# vtk DataFile Version 5.1
Generated by LIGGGHTS
ASCII
DATASET POLYDATA
POINTS 648 float
-0.0129003 -0.00574839 0.00103977 -0.0179231 -0.00300678 0.0012088 -0.0245993 0.0193658 0.00117382 
-0.0170112 0.0231088 0.00121271 -0.0428902 -0.0449088 0.00232598 0.00798734 -0.0367051 0.00120098 
0.0419483 -0.0348097 0.00187123 0.00357123 -0.00830953 0.00171732 0.0384376 0.000848974 0.0014156 
0.021602 0.00540593 0.0011867 -0.0144089 0.0201081 0.00245858 0.0123926 0.0218243 0.00238399 
0.0167463 0.0251763 0.00230042 0.0104707 0.0313218 0.00221934 -0.0197415 0.0344175 0.00162147 
0.0341086 -0.0368686 0.00362657 0.0289145 -0.0340196 0.00300931 -0.0105296 -0.0314142 0.00261594 
-0.015788 -0.0282898 0.00332925 0.033456 -0.0256735 0.00334923 -0.0198564 -0.00683511 0.00262841 
0.0154702 -0.00154679 0.00350071 -0.0356048 -0.000104637 0.00360057 0.0292006 0.00433004 0.00365885 
-0.0426568 0.00723228 0.00297479 -0.0310202 0.0131063 0.0029221 0.0143092 0.0139794 0.00359496 
0.0248423 0.0143007 0.00267149 -0.0296003 0.0277025 0.00330106 0.0185094 -0.042363 0.00450054 
-0.00302782 -0.0385948 0.00487526 -0.0266532 -0.0301716 0.00471873 -0.0419519 -0.0259749 0.00464266 
0.00689113 -0.0107816 0.00447658 0.0350526 -0.0102353 0.00400074 0.00937085 -0.00418454 0.00406243 
0.00635633 0.000852437 0.00356888 0.0305447 0.00486582 0.00492996 0.0212596 0.00979192 0.00409424 
0.0379188 0.0120326 0.00432586 -0.0360536 0.0173104 0.00381293 0.0215224 0.0171285 0.00489054 
-0.0153727 0.020636 0.00462966 0.03506 0.0228899 0.00423511 0.0297434 0.0373158 0.00450273 
0.0131273 0.040817 0.00395197 -0.0440308 0.0448256 0.00418691 0.0156715 -0.0391733 0.00574605 
0.0336491 -0.0197505 0.00630203 -0.0108877 -0.0188832 0.00533857 0.0414834 -0.0181367 0.00568849 
0.0223879 -0.0163393 0.00633193 -0.0420316 -0.0145538 0.00666944 0.00417698 0.0024455 0.00547617 
-0.0287984 0.00559412 0.0051228 -0.034865 0.0142961 0.0060049 0.0114764 0.0140289 0.00621423 
0.0287781 0.014071 0.00548264 0.0323341 0.0191974 0.00630202 -0.0282566 0.021284 0.00514236 
-0.0409258 0.0305044 0.00587798 0.0251972 0.0393087 0.00632706 -0.0437633 0.0406561 0.00571919 
-0.0390027 0.0421086 0.00612016 0.0339316 -0.041715 0.00749558 -0.0385899 -0.0405251 0.00691659 
0.040047 -0.0404588 0.0065056 0.0244271 -0.0334586 0.00763961 -0.0232422 -0.0321576 0.00709609 
0.0101031 -0.0273014 0.00750131 -0.0336946 -0.0248459 0.00750396 0.0436787 -0.0219137 0.00691891 
0.0030191 -0.0179247 0.00690214 0.0277003 -0.0107969 0.00713712 -0.0386256 -0.00983966 0.00779356 
0.0414788 -0.00521487 0.00636452 -0.00783961 -0.000387029 0.00702792 -0.00702036 -0.00121172 0.00751096 
-0.00967086 0.00179773 0.0070875 0.00265626 0.00371614 0.00748165 0.0011249 0.00615697 0.0076055 
0.0320014 0.00756294 0.00730726 -0.0371624 0.011326 0.00726959 0.0399323 0.0117688 0.00717501 
0.0153641 0.0146287 0.0077798 -0.0269229 0.0267788 0.0072228 -0.0213481 0.0319153 0.00787605 
0.00284552 0.0345861 0.0071261 0.0165329 0.0385374 0.00648875 -0.0160353 0.0448572 0.00708609 
-0.044759 -0.0437614 0.00852227 -0.0308094 -0.0435702 0.00867752 -0.00521279 -0.0413279 0.00803061 
-0.042922 -0.0404536 0.00848385 0.0433459 -0.0353282 0.0091565 0.023158 -0.0340207 0.0083424 
0.0280204 -0.0311414 0.00875748 -0.0448384 -0.0296834 0.0086278 0.00577088 -0.0287415 0.00776886 
-0.00446216 -0.0255279 0.00794372 0.032808 -0.025967 0.00850593 -0.0408326 -0.0234295 0.00805323 
-0.0329608 -0.0218045 0.00809481 -0.0317771 -0.0175651 0.00855275 0.0404767 -0.0183151 0.00866782 
-0.0393221 -0.0167834 0.00909113 -0.0227164 -0.0141288 0.00898415 0.0223025 -0.0112244 0.009073 
0.0342493 -0.0115037 0.00842438 -0.0326334 -0.00963456 0.00894404 -0.0112192 -0.0104501 0.00853867 
0.00743742 -0.00926665 0.00823015 -0.024842 -0.00884532 0.0082278 0.0282359 -0.00877456 0.00743659 
0.0275881 -0.00673863 0.00893548 0.0131353 -0.00504642 0.00863925 0.00314898 0.00491531 0.00801499 
-0.0170872 0.00564833 0.00788466 0.0228765 0.00606581 0.00867321 -0.0214351 0.00957734 0.00865044 
8.23501e-07 0.0138406 0.00770926 -0.0214239 0.0189608 0.00825587 -0.023041 0.0197144 0.00829928 
0.0226957 0.0260881 0.00826766 0.0364634 0.0310238 0.00884127 0.0444958 0.0309554 0.00868305 
-0.0264781 0.032823 0.00862215 0.0152528 0.033152 0.00898485 0.0164577 0.0353116 0.0086178 
-0.0281804 0.0418824 0.00876795 0.00513794 0.0433856 0.008978 0.0418836 -0.0421436 0.0100968 
0.0338942 -0.0410147 0.010024 0.0308099 -0.0378456 0.00949281 0.000822496 -0.0363122 0.0101593 
0.0333162 -0.0342631 0.00968509 -0.00586029 -0.0338127 0.0102268 0.00264867 -0.0338128 0.01029 
-0.0160452 -0.0323821 0.0102319 0.000892701 -0.0263701 0.00900473 -0.0328109 -0.0226975 0.00998966 
0.0363266 -0.0194176 0.00922811 -0.0405162 -0.0161033 0.0100329 -0.0257955 -0.0157834 0.0093899 
-0.00444012 -0.0151621 0.0100277 -0.0117656 -0.0138394 0.010062 -0.0207563 -0.0111167 0.00969121 
0.0414517 -0.0114994 0.0101844 -0.0449336 -0.00957357 0.0105442 -0.0222502 -0.00974669 0.0096945 
0.0109664 -0.00760095 0.0102848 -0.0141425 -0.00311887 0.0100985 0.0293019 -0.00298432 0.00952143 
0.0449494 0.00392273 0.0093879 0.0277548 0.0042931 0.0103775 0.0221269 0.00728552 0.00916765 
-0.0392616 0.00972366 0.00918419 -0.0101256 0.00978275 0.00936035 0.0197977 0.00963841 0.0101232 
-0.0394276 0.0109375 0.00935387 -0.0081225 0.0151775 0.00950602 -0.022709 0.0198803 0.00927648 
-0.0102477 0.0267602 0.00969816 -0.0368667 0.0306348 0.0102373 0.0354139 0.0312817 0.00993918 
-0.0312382 0.0393096 0.00996038 0.00308146 0.0401468 0.00860612 0.0163992 0.0415262 0.00903052 
0.0262096 -0.0449372 0.0107257 -0.0335565 -0.0442122 0.0109708 -0.0349861 -0.0412827 0.0105121 
0.0414821 -0.0410789 0.0107211 -0.018434 -0.0405477 0.0106279 -0.0108246 -0.0388127 0.0107605 
0.027474 -0.0338615 0.0115487 -0.0262624 -0.032473 0.010988 0.0346336 -0.0325969 0.0109576 
-0.0225401 -0.0213878 0.0110073 0.0262592 -0.0217201 0.0117008 0.039775 -0.0211058 0.0114412 
0.0302919 -0.0148257 0.0106369 -0.0388614 -0.0136303 0.0111294 0.013874 -0.00963069 0.0103754 
0.0313953 -0.00974065 0.0113053 -0.00553214 -0.00871323 0.0114202 -0.0343844 -0.0078404 0.0113082 
-0.00747582 -0.00609419 0.0111738 -0.040885 -0.00406647 0.0105308 0.021323 -0.00444137 0.0114535 
-0.00229178 0.0020129 0.010795 0.032558 0.00153523 0.0111023 0.0101693 0.00555192 0.0111974 
0.0246705 0.0064451 0.0103531 0.0283387 0.00890506 0.010919 0.0340899 0.00882812 0.011519 
-0.00279986 0.0127222 0.0105444 0.00861143 0.0123591 0.011579 -0.00307286 0.0144526 0.0112366 
0.012585 0.0155082 0.0115271 0.0121458 0.0151918 0.0110838 0.00517921 0.0169249 0.0114331 
0.0418335 0.0161761 0.010374 0.0090081 0.0191686 0.0114723 0.0307708 0.0242663 0.0106316 
-0.0127911 0.0299546 0.0111978 -0.032208 0.0306075 0.0110829 -0.0200898 0.0311527 0.0107182 
0.00372347 0.0304157 0.0109169 -0.0155539 0.0359545 0.0106121 0.0439232 0.0371117 0.0115851 
-0.00973825 0.0391656 0.0110733 0.0238959 0.0383247 0.0103937 0.0222253 0.0407186 0.010943 
0.0181024 -0.0433049 0.01257 0.0348044 -0.042095 0.0124268 -0.00674967 -0.0416523 0.0129009 
-0.0334706 -0.0396012 0.0129103 -0.0248652 -0.040212 0.0117705 -0.0168273 -0.0360331 0.0123787 
0.00594186 -0.0351889 0.0120683 0.0449741 -0.0303513 0.0124937 0.0412685 -0.0295104 0.0125099 
-0.0430551 -0.0267583 0.0119346 0.0306875 -0.0259396 0.0117404 -0.0296942 -0.0196153 0.0117946 
0.00156248 -0.0194187 0.0125153 -0.0100897 -0.0180162 0.0116959 0.0198229 -0.0156851 0.0120492 
-0.00254943 -0.00825679 0.0126004 -0.00433253 -0.00676057 0.0116967 -0.00474481 -0.00600267 0.0123899 
0.0387156 -0.00624884 0.012955 -0.0120059 -0.00345367 0.012885 -0.0281455 -0.00127675 0.0118162 
0.0290986 -0.000251763 0.012653 -0.0260142 0.00017485 0.0118659 0.0188762 0.00181355 0.0122297 
-0.0325416 0.00283857 0.0125703 -0.025141 0.00447188 0.012919 0.0211953 0.00966092 0.0128707 
0.0398091 0.011618 0.01172 0.00153271 0.0201988 0.0121678 0.00976854 0.0197772 0.0129486 
0.0258603 0.0235991 0.0126602 0.0395905 0.0272142 0.0126787 -0.0313244 0.0314049 0.0128135 
-0.0108954 0.0304 0.0129358 0.0038092 0.0311583 0.0117721 0.026696 0.03017 0.0127204 
-0.0073504 0.0318329 0.0122883 0.00390562 0.0317225 0.0116655 0.01325 0.0319187 0.0116342 
0.0294278 0.0431452 0.0129684 0.0416479 -0.0439733 0.0142973 0.000425919 -0.0415728 0.0131464 
0.0346338 -0.0290927 0.0133279 0.0164647 -0.0275391 0.013892 0.0155599 -0.0240909 0.0132793 
-0.0323128 -0.0219837 0.0134918 -0.0291427 -0.0219343 0.0142909 0.0233461 -0.0214624 0.0131069 
-0.00827992 -0.020547 0.0137405 0.0218308 -0.0192565 0.0138934 -0.0183202 -0.0175475 0.013283 
-0.0426154 -0.0165053 0.0139811 -0.0339565 -0.0167518 0.0134257 0.0323804 -0.0132471 0.0138152 
0.0433204 -0.0141837 0.0137598 0.0322358 -0.0130621 0.014037 0.0286804 -0.00919085 0.0129463 
-0.00401126 -0.00720159 0.0140087 0.0129906 -0.00677597 0.0132675 0.0404774 -0.00688032 0.0130484 
0.0180565 -0.00487531 0.0136455 0.00664535 -0.00164817 0.0137207 -0.000610522 -0.00103491 0.013775 
0.0404406 0.00462082 0.0141044 -0.0406381 0.00555966 0.0142086 -0.00552594 0.00555795 0.0143367 
0.030759 0.00580352 0.0141753 0.00474506 0.0103043 0.0142967 -0.0365733 0.0119208 0.0130754 
0.00243185 0.0120975 0.013402 0.000954082 0.0152563 0.0134009 0.00546842 0.0177814 0.0131419 
0.0407412 0.0174253 0.0132645 0.00395304 0.0187088 0.0141419 0.018015 0.0183735 0.0133824 
-0.0256005 0.0215871 0.0134183 -0.0267196 0.0236159 0.0139714 -0.0386663 0.0253433 0.0133808 
-0.00739359 0.0259593 0.0141881 -0.0267569 0.0263983 0.0136113 -0.00563177 0.0268155 0.0132559 
-0.0357156 0.0282031 0.0141687 0.00834461 0.0278725 0.0131185 0.0191509 0.0299648 0.013946 
-0.0337286 0.0337045 0.0132516 -0.0422696 0.0340949 0.0132306 0.0231674 0.0340949 0.013005 
-0.041477 0.0364172 0.0131836 -0.0133259 0.0414802 0.0135533 0.0405446 0.0433429 0.0133095 
-0.027409 -0.0433703 0.0151833 -0.0406141 -0.0405112 0.0146086 -0.0169239 -0.0402939 0.0146258 
-0.00670669 -0.0394183 0.01545 -0.0439713 -0.0357399 0.0155472 -0.0273176 -0.0361067 0.0145141 
-0.00161929 -0.0353994 0.0151692 0.0195647 -0.0366528 0.0151807 -0.0177429 -0.0346724 0.0149151 
0.0077947 -0.0345433 0.014364 0.00879071 -0.0344865 0.0151284 0.0403097 -0.0347888 0.0151931 
-0.0427235 -0.0332389 0.0150593 0.00802514 -0.031483 0.0150003 -0.0386911 -0.0311434 0.0144845 
0.0392765 -0.0300093 0.0149482 -0.0401314 -0.0280847 0.0147773 -0.0432264 -0.0264101 0.0152221 
-0.00580099 -0.0272788 0.0153689 0.0054016 -0.025334 0.0148375 -0.0164034 -0.0216001 0.0154172 
0.00623721 -0.0211799 0.0142848 -0.0328213 -0.0176588 0.0145926 0.0184681 -0.0172117 0.0144121 
0.0252581 -0.0163235 0.0144552 -0.0408642 -0.0154151 0.0154219 -0.015814 -0.0152491 0.0145026 
0.0268005 -0.0146468 0.0150268 0.0375745 -0.0151367 0.0145703 -0.0329121 -0.0139828 0.015217 
-0.0341597 -0.0122829 0.0147244 0.0176437 -0.0119747 0.0146644 0.0251729 -0.00985964 0.0143047 
-0.042331 -0.00792816 0.0152965 -0.0304645 -0.00701594 0.0147868 -0.042786 -0.00359954 0.01469 
-0.0408474 -0.00214648 0.0145447 -0.0376932 -0.000132947 0.0144375 0.0147261 0.00139147 0.0153368 
-0.00757157 0.00454821 0.0146665 0.0332757 0.00539899 0.0152459 0.00533928 0.00728904 0.0144626 
0.0110904 0.00657535 0.0156639 -0.0349081 0.00917553 0.0156288 0.00978397 0.00922321 0.0148658 
-0.0350204 0.0121089 0.0155425 -0.00831541 0.0129665 0.0149839 0.00789931 0.0136568 0.014907 
-0.00443291 0.0160613 0.0146489 0.0256029 0.0175394 0.0150685 0.00757299 0.0192258 0.0144418 
0.0350116 0.0207306 0.0153866 0.00128112 0.0217131 0.0147719 0.0362273 0.0220011 0.015396 
0.0181332 0.0246356 0.0144403 0.00953871 0.0271324 0.0152088 -0.0152062 0.0294088 0.0154024 
0.0434247 0.0295768 0.0143278 -0.0219587 0.0304934 0.0151624 0.0372507 0.0318783 0.0145937 
0.0214431 0.0335886 0.015164 -0.00196307 0.0366495 0.0147264 -0.0245447 0.0378537 0.0143886 
0.0030545 0.0369981 0.0153959 -0.00883869 0.0381834 0.0146595 0.0281745 0.039089 0.0150589 
-0.0112537 0.0395394 0.0146045 0.0221021 0.0401282 0.0150305 0.00805094 0.0422278 0.0147253 
-0.0205282 0.0432397 0.0143537 0.0114086 0.0440135 0.0146175 0.0399235 0.0434757 0.0153126 
0.0171919 0.0449185 0.0145092 0.0211706 0.0445491 0.0145172 -0.0346971 -0.0446764 0.0164444 
-0.00340304 -0.0448428 0.0155637 -0.0248654 -0.0427111 0.016552 0.0201641 -0.0426709 0.0157193 
0.0248068 -0.0428986 0.0162427 0.0238162 -0.0409762 0.016595 0.0244803 -0.0401788 0.016242 
0.0397687 -0.0374633 0.0166463 0.0355384 -0.0354155 0.0167919 -0.0396817 -0.0304797 0.0161474 
0.00231692 -0.0294453 0.0156157 0.023019 -0.0293484 0.0160164 0.03382 -0.0268981 0.016731 
-0.0338231 -0.0250135 0.0155655 -0.0350278 -0.0224863 0.0159138 -0.0139777 -0.0223984 0.0168517 
0.0115492 -0.0227248 0.0157341 -0.0204621 -0.0172006 0.0161361 0.0282033 -0.0178095 0.0163453 
-0.0313057 -0.0141988 0.0157701 -0.0269092 -0.0125643 0.0168447 -0.0196799 -0.00931279 0.0158797 
-0.0136128 -0.00979682 0.0158102 -0.0395569 -0.00227866 0.0158946 -0.0416237 0.00110806 0.0163412 
0.0362421 0.00170773 0.0167483 -0.037077 0.00611456 0.0157638 -0.00723413 0.00605583 0.0164097 
0.0142017 0.0079404 0.0158447 0.0202046 0.00840095 0.0158519 0.023953 0.00820576 0.0160785 
0.014866 0.0127598 0.0163364 0.0261916 0.0119357 0.0165517 -0.0429188 0.0135204 0.0164806 
0.0440772 0.0154938 0.0163676 -0.0193355 0.018129 0.0161491 -0.0421793 0.0225172 0.016656 
-0.0349287 0.0230684 0.0160941 -0.0295899 0.0232577 0.0156544 0.0146363 0.0223077 0.0163857 
-0.00782209 0.0241861 0.0155716 0.00264144 0.0247174 0.0160469 -0.0406313 0.0295913 0.0162043 
-0.00435696 0.0325462 0.0160372 -0.00472634 0.0344449 0.0159539 -0.0407273 0.0358476 0.0159729 
-0.00647711 0.0391566 0.0162211 -0.039126 0.0399637 0.0161868 -0.0375088 0.0393741 0.0160713 
-0.0181988 0.0434549 0.0167932 0.0145521 -0.0432303 0.0170656 0.0131812 -0.0427533 0.0178333 
0.0166138 -0.0412108 0.0180635 -0.0370475 -0.0370945 0.016918 -0.0309963 -0.0355024 0.0181419 
-8.23525e-05 -0.034098 0.0180699 -0.0376897 -0.0314333 0.0172202 -0.0263426 -0.0292431 0.0174362 
-0.0240719 -0.0268296 0.0178415 0.00538025 -0.0241403 0.0177728 0.0109547 -0.0235646 0.0173087 
0.035159 -0.023363 0.0181411 0.00548761 -0.0197918 0.0174097 0.038292 -0.016257 0.0178742 
0.0249316 -0.014475 0.0172019 -0.0186412 -0.0134353 0.0180716 0.0403752 -0.0143085 0.0172233 
-0.0327621 -0.0121928 0.0177534 0.0406218 -0.0100941 0.0172108 -0.0344646 -0.00725539 0.0179195 
-0.0211095 -0.00770044 0.0170853 -0.0150798 -0.00698339 0.01786 -0.0135858 -0.00672635 0.0172602 
0.0161928 -0.00760918 0.0175703 0.00523139 -0.00599236 0.0173601 0.0180458 -0.00470109 0.0179018 
-0.00941413 -0.00330341 0.0181778 0.00975646 -0.00313231 0.0177481 -0.00896956 -0.00131708 0.0176377 
0.0407777 0.000744206 0.0173521 -0.0261639 0.00337815 0.0176481 0.00243665 0.00282786 0.0178604 
0.0323225 0.00436429 0.0171836 0.0250346 0.00641518 0.0176205 0.0128044 0.0127337 0.0169837 
-0.00867948 0.0139924 0.0176192 0.0336082 0.013194 0.0177299 0.0441199 0.0136981 0.0176031 
-0.0196462 0.0155185 0.0170404 0.0226738 0.0181095 0.0176108 0.0122157 0.0191756 0.016886 
0.0388885 0.0193682 0.0169494 -0.0431379 0.0208085 0.0170789 -0.0287332 0.0215601 0.0171282 
-0.0122989 0.0222019 0.0178077 0.0398418 0.0217469 0.0179984 0.0438582 0.0244724 0.0178345 
0.000162142 0.0251126 0.0173236 -0.0190887 0.0269029 0.0171581 -0.0114472 0.026715 0.0170192 
-0.0376379 0.0294143 0.0171512 0.00519606 0.0301696 0.017731 0.00317215 0.0343196 0.0176452 
0.0311732 0.0371467 0.0171007 0.0352701 0.0439749 0.0178124 0.0352379 0.0438995 0.0173493 
-0.0317519 -0.0446953 0.0193209 -0.00396528 -0.0444182 0.0183479 0.0195053 -0.043722 0.0186254 
-0.0389435 -0.0425966 0.0188453 0.0406519 -0.0427256 0.0193204 -0.0136468 -0.0412372 0.0185404 
0.0424299 -0.0409921 0.0186997 0.00849583 -0.0405939 0.019356 -0.0289295 -0.0389067 0.0189524 
-0.0234086 -0.038644 0.0193136 -0.0195638 -0.0385913 0.0192347 0.0325128 -0.03812 0.0187586 
0.00985621 -0.0367022 0.0183409 -0.00338111 -0.0363358 0.018733 0.0307351 -0.0355434 0.0188138 
-0.0179089 -0.0346335 0.0194947 -0.0177803 -0.0340186 0.018521 -0.0161578 -0.0337243 0.0184208 
-0.0233761 -0.031813 0.0194589 -0.0210092 -0.0320472 0.0190001 0.0268369 -0.0315202 0.0188556 
-0.0220587 -0.0306349 0.0186796 0.010226 -0.0308634 0.0191706 -0.0414327 -0.0290659 0.0184488 
-0.0346801 -0.0287009 0.0186862 -0.0240024 -0.0280603 0.0182647 0.0153133 -0.0285941 0.0185304 
0.0156293 -0.0283842 0.019114 0.0347572 -0.0260666 0.0193635 -0.00863888 -0.0237376 0.0182782 
0.00179778 -0.0247441 0.0185981 0.00558373 -0.0242787 0.0189741 0.0102479 -0.024092 0.0192985 
0.0210005 -0.0239559 0.0190865 -0.038621 -0.0229432 0.0190908 -0.0127621 -0.0231756 0.0189025 
0.0240101 -0.0228809 0.0187757 0.0394323 -0.021923 0.0192723 -0.0210835 -0.0209207 0.0183685 
-0.0033641 -0.0204173 0.018367 -0.0207996 -0.0190456 0.0189528 0.0134129 -0.0192809 0.0190038 
-0.0147645 -0.0165889 0.0186378 0.0296492 -0.015918 0.019075 0.0132043 -0.01541 0.0186982 
0.0323803 -0.0150629 0.0188625 -0.0279963 -0.0141356 0.0187184 -0.00710141 -0.0133745 0.0188632 
0.00886689 -0.0141191 0.0193636 0.0144468 -0.013247 0.0184911 -0.00528066 -0.0121118 0.018725 
0.0347312 -0.012978 0.018983 0.0253763 -0.011051 0.0195232 -0.038829 -0.00978443 0.0190508 
-0.0253401 -0.0103599 0.0188985 0.0218314 -0.00971151 0.0190711 0.0334462 -0.00930086 0.0186292 
-0.0214415 -0.007536 0.0192484 -0.0101373 -0.00698039 0.0188394 -0.00720807 -0.00608605 0.0188629 
-0.0253129 -0.0039775 0.0188611 0.0200271 -0.00425623 0.0184422 -0.0107529 -0.00365687 0.0191009 
-0.0198668 -0.00211416 0.0187634 0.0168839 -0.00210364 0.0182747 -0.0283489 -0.000417126 0.0183625 
-0.0153419 -0.00108619 0.0182894 0.00127443 -0.000618905 0.0188389 0.00643655 -0.000956063 0.018687 
0.0140084 -6.89735e-05 0.0182158 0.0420414 -0.00101026 0.0190591 -0.0332593 0.000859011 0.0191596 
0.0116524 0.00206193 0.0188462 -0.0233311 0.00384073 0.0191629 0.0183943 0.00266245 0.0184945 
-0.027449 0.00511055 0.0191625 0.0260144 0.00429017 0.0192999 -0.0403489 0.00598291 0.0184815 
-0.01547 0.00642247 0.0193546 0.0133448 0.00646544 0.0187875 0.0358407 0.00533501 0.0187352 
-0.0429246 0.00657681 0.0187725 -0.019893 0.00878872 0.0192121 -0.0105861 0.00898083 0.0185852 
0.0324887 0.00836074 0.018809 -0.0408306 0.00999374 0.0193393 0.0234497 0.00978487 0.018864 
0.027557 0.009967 0.0193974 -0.00808524 0.0113378 0.0192484 -0.00071691 0.0108932 0.018775 
-0.00841171 0.0143034 0.0185541 0.012949 0.0143048 0.0189505 0.0311878 0.014057 0.0182566 
0.0396593 0.013993 0.0186034 -0.0287818 0.014969 0.0188493 -0.0231109 0.0157017 0.0187061 
-0.0408838 0.0159645 0.0187297 -0.0286532 0.0159811 0.0188731 -0.0161548 0.0159009 0.01927 
-0.00317984 0.0164631 0.0188467 -0.0436896 0.0195853 0.0189063 -0.0363159 0.0185996 0.0188471 
-0.0324762 0.0230005 0.0191233 -0.0148746 0.0223253 0.0185934 0.00126512 0.0228658 0.0186225 
-0.0436572 0.0238848 0.0188277 -0.0138035 0.0240512 0.0190781 -0.0132251 0.0252506 0.0192842 
-0.0128609 0.0265935 0.018663 -0.0214233 0.0285543 0.0189294 0.0397191 0.0283771 0.0189588 
0.0040127 0.0314243 0.0190395 0.0191028 0.0315895 0.0186394 0.0193546 0.0324404 0.0190813 
0.0337272 0.0324898 0.0193575 0.0380057 0.0324307 0.0194934 -0.0425374 0.0333781 0.018945 
0.00727395 0.0332762 0.0182833 0.0278529 0.0342296 0.0191206 -0.00750544 0.0361316 0.0192443 
0.00888594 0.0360502 0.0185371 0.00367032 0.0371324 0.0190801 -0.00585061 0.0388609 0.0183775 
-0.0379532 0.0399341 0.0190955 0.00201585 0.0404036 0.0189673 -0.00785852 0.041878 0.0192428 
0.0170579 0.0421878 0.0193562 0.0430506 0.0422314 0.0191554 0.00528787 0.0432844 0.0186494 
-0.0390775 0.0447256 0.0186486 0.0147823 -0.0446949 0.0201864 0.043014 -0.0343178 0.0201361 
0.0188903 -0.0308528 0.0191486 -0.0207679 -0.0256315 0.0195603 0.0350196 -0.0250011 0.0202928 
0.0204492 -0.0194639 0.020044 0.0272875 -0.0186725 0.0206605 0.0386193 -0.00496685 0.0203657 
-0.0131355 0.00164571 0.0206825 0.0189244 0.00254502 0.0195506 -0.00598638 0.00689803 0.0206403 
0.00418285 0.0112423 0.0197189 0.00742845 0.0199749 0.0196033 -0.014478 0.0275162 0.0203621 
-0.0359241 0.0337864 0.0199563 0.0132394 0.0345575 0.0198926 -0.0190394 0.0446837 0.0197691 
-0.00682403 -0.0314098 0.0209952 0.0127657 -0.00746761 0.0219816 -0.0137512 0.00384646 0.0210322 
-0.009285 0.00693532 0.0208818 -0.0408092 0.00981999 0.0214183 0.021223 0.0244832 0.0209051 
-0.0225361 -0.0441701 0.0222669 0.00741479 -0.0295782 0.0222805 0.0352883 -0.0103067 0.0232648 
0.0448793 -0.00396119 0.0222981 0.00347554 0.00338662 0.0219054 -0.0442311 0.00821601 0.0224466 
0.00976298 0.0163696 0.0225717 -0.0122189 0.0175978 0.0232073 -0.0260391 0.0304395 0.0222694 
-0.00254916 -0.00379952 0.0248799 0.039455 -0.000236508 0.0251095 0.0242571 -0.0100823 0.0331549 

VERTICES 649 648
OFFSETS vtktypeint64
0 1 2 3 4 5 6 7 8 
9 10 11 12 13 14 15 16 17 
18 19 20 21 22 23 24 25 26 
27 28 29 30 31 32 33 34 35 
36 37 38 39 40 41 42 43 44 
45 46 47 48 49 50 51 52 53 
54 55 56 57 58 59 60 61 62 
63 64 65 66 67 68 69 70 71 
72 73 74 75 76 77 78 79 80 
81 82 83 84 85 86 87 88 89 
90 91 92 93 94 95 96 97 98 
99 100 101 102 103 104 105 106 107 
108 109 110 111 112 113 114 115 116 
117 118 119 120 121 122 123 124 125 
126 127 128 129 130 131 132 133 134 
135 136 137 138 139 140 141 142 143 
144 145 146 147 148 149 150 151 152 
153 154 155 156 157 158 159 160 161 
162 163 164 165 166 167 168 169 170 
171 172 173 174 175 176 177 178 179 
180 181 182 183 184 185 186 187 188 
189 190 191 192 193 194 195 196 197 
198 199 200 201 202 203 204 205 206 
207 208 209 210 211 212 213 214 215 
216 217 218 219 220 221 222 223 224 
225 226 227 228 229 230 231 232 233 
234 235 236 237 238 239 240 241 242 
243 244 245 246 247 248 249 250 251 
252 253 254 255 256 257 258 259 260 
261 262 263 264 265 266 267 268 269 
270 271 272 273 274 275 276 277 278 
279 280 281 282 283 284 285 286 287 
288 289 290 291 292 293 294 295 296 
297 298 299 300 301 302 303 304 305 
306 307 308 309 310 311 312 313 314 
315 316 317 318 319 320 321 322 323 
324 325 326 327 328 329 330 331 332 
333 334 335 336 337 338 339 340 341 
342 343 344 345 346 347 348 349 350 
351 352 353 354 355 356 357 358 359 
360 361 362 363 364 365 366 367 368 
369 370 371 372 373 374 375 376 377 
378 379 380 381 382 383 384 385 386 
387 388 389 390 391 392 393 394 395 
396 397 398 399 400 401 402 403 404 
405 406 407 408 409 410 411 412 413 
414 415 416 417 418 419 420 421 422 
423 424 425 426 427 428 429 430 431 
432 433 434 435 436 437 438 439 440 
441 442 443 444 445 446 447 448 449 
450 451 452 453 454 455 456 457 458 
459 460 461 462 463 464 465 466 467 
468 469 470 471 472 473 474 475 476 
477 478 479 480 481 482 483 484 485 
486 487 488 489 490 491 492 493 494 
495 496 497 498 499 500 501 502 503 
504 505 506 507 508 509 510 511 512 
513 514 515 516 517 518 519 520 521 
522 523 524 525 526 527 528 529 530 
531 532 533 534 535 536 537 538 539 
540 541 542 543 544 545 546 547 548 
549 550 551 552 553 554 555 556 557 
558 559 560 561 562 563 564 565 566 
567 568 569 570 571 572 573 574 575 
576 577 578 579 580 581 582 583 584 
585 586 587 588 589 590 591 592 593 
594 595 596 597 598 599 600 601 602 
603 604 605 606 607 608 609 610 611 
612 613 614 615 616 617 618 619 620 
621 622 623 624 625 626 627 628 629 
630 631 632 633 634 635 636 637 638 
639 640 641 642 643 644 645 646 647 
648 
CONNECTIVITY vtktypeint64
0 1 2 3 4 5 6 7 8 
9 10 11 12 13 14 15 16 17 
18 19 20 21 22 23 24 25 26 
27 28 29 30 31 32 33 34 35 
36 37 38 39 40 41 42 43 44 
45 46 47 48 49 50 51 52 53 
54 55 56 57 58 59 60 61 62 
63 64 65 66 67 68 69 70 71 
72 73 74 75 76 77 78 79 80 
81 82 83 84 85 86 87 88 89 
90 91 92 93 94 95 96 97 98 
99 100 101 102 103 104 105 106 107 
108 109 110 111 112 113 114 115 116 
117 118 119 120 121 122 123 124 125 
126 127 128 129 130 131 132 133 134 
135 136 137 138 139 140 141 142 143 
144 145 146 147 148 149 150 151 152 
153 154 155 156 157 158 159 160 161 
162 163 164 165 166 167 168 169 170 
171 172 173 174 175 176 177 178 179 
180 181 182 183 184 185 186 187 188 
189 190 191 192 193 194 195 196 197 
198 199 200 201 202 203 204 205 206 
207 208 209 210 211 212 213 214 215 
216 217 218 219 220 221 222 223 224 
225 226 227 228 229 230 231 232 233 
234 235 236 237 238 239 240 241 242 
243 244 245 246 247 248 249 250 251 
252 253 254 255 256 257 258 259 260 
261 262 263 264 265 266 267 268 269 
270 271 272 273 274 275 276 277 278 
279 280 281 282 283 284 285 286 287 
288 289 290 291 292 293 294 295 296 
297 298 299 300 301 302 303 304 305 
306 307 308 309 310 311 312 313 314 
315 316 317 318 319 320 321 322 323 
324 325 326 327 328 329 330 331 332 
333 334 335 336 337 338 339 340 341 
342 343 344 345 346 347 348 349 350 
351 352 353 354 355 356 357 358 359 
360 361 362 363 364 365 366 367 368 
369 370 371 372 373 374 375 376 377 
378 379 380 381 382 383 384 385 386 
387 388 389 390 391 392 393 394 395 
396 397 398 399 400 401 402 403 404 
405 406 407 408 409 410 411 412 413 
414 415 416 417 418 419 420 421 422 
423 424 425 426 427 428 429 430 431 
432 433 434 435 436 437 438 439 440 
441 442 443 444 445 446 447 448 449 
450 451 452 453 454 455 456 457 458 
459 460 461 462 463 464 465 466 467 
468 469 470 471 472 473 474 475 476 
477 478 479 480 481 482 483 484 485 
486 487 488 489 490 491 492 493 494 
495 496 497 498 499 500 501 502 503 
504 505 506 507 508 509 510 511 512 
513 514 515 516 517 518 519 520 521 
522 523 524 525 526 527 528 529 530 
531 532 533 534 535 536 537 538 539 
540 541 542 543 544 545 546 547 548 
549 550 551 552 553 554 555 556 557 
558 559 560 561 562 563 564 565 566 
567 568 569 570 571 572 573 574 575 
576 577 578 579 580 581 582 583 584 
585 586 587 588 589 590 591 592 593 
594 595 596 597 598 599 600 601 602 
603 604 605 606 607 608 609 610 611 
612 613 614 615 616 617 618 619 620 
621 622 623 624 625 626 627 628 629 
630 631 632 633 634 635 636 637 638 
639 640 641 642 643 644 645 646 647 

POINT_DATA 648
FIELD FieldData 12
id 1 648 int
383 57 582 588 164 115 584 608 465 
396 625 18 195 611 600 626 634 185 
629 190 72 610 568 418 450 169 150 
491 609 635 92 304 574 106 293 370 
630 458 214 620 433 339 166 219 362 
606 639 459 470 154 603 444 590 175 
407 297 633 310 607 49 506 386 575 
372 597 648 508 347 404 645 581 317 
289 292 544 647 132 66 36 598 456 
556 595 432 622 637 583 85 246 614 
463 200 632 134 605 51 107 137 331 
604 267 282 578 439 355 618 612 599 
628 617 231 428 569 602 615 515 593 
478 467 197 322 110 521 163 26 327 
270 579 552 555 586 218 577 356 24 
88 571 616 570 291 541 238 572 176 
381 215 585 638 554 227 336 385 592 
86 613 423 261 288 255 601 619 149 
535 594 623 318 643 412 534 366 562 
207 35 34 589 303 543 64 573 237 
537 58 127 157 324 563 243 567 125 
565 538 546 353 129 165 60 401 202 
560 308 193 40 364 189 504 596 187 
201 624 531 320 328 62 346 140 457 
256 87 226 367 352 548 128 121 479 
440 247 168 260 6 557 299 257 542 
341 83 186 334 56 420 373 561 514 
507 461 488 343 158 268 253 148 29 
108 31 591 294 445 71 576 547 472 
174 558 539 496 73 530 644 566 483 
42 580 368 11 135 564 141 503 545 
454 338 345 273 469 587 392 417 117 
646 109 100 162 408 280 410 509 321 
348 550 251 233 361 272 188 549 99 
314 22 82 159 436 518 489 319 69 
229 505 333 533 502 527 409 532 160 
167 274 551 553 143 374 290 194 500 
380 349 427 95 399 263 360 204 90 
631 126 426 528 400 497 181 262 46 
220 118 443 33 337 529 12 199 540 
114 419 94 235 232 437 182 559 536 
155 435 91 406 302 351 55 438 275 
98 113 203 390 429 326 122 344 525 
139 103 183 415 526 513 449 298 517 
306 8 248 264 382 75 61 495 486 
424 112 510 21 446 384 358 184 287 
330 254 104 14 520 524 222 387 309 
413 523 76 375 84 414 52 411 487 
388 477 295 13 484 192 329 28 170 
240 59 211 146 311 53 511 522 32 
278 377 252 142 20 151 196 519 244 
216 474 378 119 236 63 178 54 447 
161 357 138 431 279 206 9 498 30 
451 81 313 198 397 475 242 89 93 
258 471 68 271 136 312 173 210 359 
102 67 492 402 350 156 239 307 5 
250 283 393 354 96 147 120 430 493 
116 79 223 234 37 416 323 111 403 
25 177 44 462 422 376 74 276 490 
441 460 43 259 340 16 23 101 38 
10 39 224 285 105 171 405 371 205 
217 365 621 265 80 389 208 212 305 
284 379 501 245 512 153 301 124 144 
145 453 296 480 442 221 17 41 395 
363 48 70 315 228 468 473 152 485 
130 325 394 191 97 131 266 209 179 
332 481 65 180 466 455 225 421 452 
286 482 45 249 123 277 434 19 342 
476 241 47 636 627 335 448 516 133 
499 77 213 464 281 369 494 391 172 
398 27 300 425 4 78 230 640 3 
50 641 316 15 7 269 642 2 1 

type 1 648 int
1 1 1 1 1 1 1 1 1 
1 1 1 1 1 1 1 2 1 
1 1 1 1 1 1 1 1 1 
1 1 1 1 1 1 1 1 1 
1 1 1 1 1 1 1 1 1 
1 1 1 1 1 1 1 1 1 
1 1 1 1 1 1 1 1 1 
1 1 1 1 1 1 1 1 1 
1 1 1 1 1 1 1 1 1 
1 1 1 1 1 1 1 1 1 
1 1 1 1 1 1 1 1 1 
1 1 1 1 1 1 1 1 1 
1 1 1 1 1 1 1 1 1 
1 1 1 1 1 1 1 1 1 
1 1 1 1 1 1 1 1 1 
1 1 1 1 1 1 1 1 1 
1 1 1 1 1 1 1 1 1 
1 1 1 1 1 1 1 1 1 
1 1 1 1 1 1 1 1 1 
1 1 1 1 1 1 1 1 1 
1 1 1 1 1 1 1 1 1 
1 1 1 1 1 1 1 1 1 
1 1 1 1 1 1 1 1 1 
1 1 1 1 1 1 1 1 1 
1 1 1 1 1 1 1 1 1 
1 1 1 1 2 1 1 1 1 
1 1 1 1 1 1 1 1 1 
1 1 1 1 1 1 1 1 1 
1 1 1 1 1 1 1 1 1 
1 1 1 1 1 1 1 1 1 
1 1 1 2 1 1 1 1 1 
1 1 1 1 1 1 1 1 1 
1 1 1 1 1 1 1 1 1 
1 1 1 1 1 1 1 1 1 
1 1 1 1 1 1 1 1 1 
1 1 1 1 1 1 1 1 1 
1 1 1 1 1 1 1 1 1 
1 1 1 1 1 1 1 1 1 
1 1 1 1 1 1 1 1 1 
1 1 1 1 1 1 2 1 1 
1 1 1 1 1 1 1 1 1 
1 1 1 1 1 1 1 1 1 
1 1 1 1 1 1 1 1 1 
1 1 1 1 1 1 1 1 1 
1 2 1 1 1 1 1 1 1 
1 1 1 1 1 1 1 1 1 
1 1 1 2 1 1 1 1 1 
1 1 1 1 1 1 1 1 1 
1 1 1 2 1 1 1 1 1 
1 1 1 1 1 1 1 1 1 
1 1 1 1 1 1 1 1 1 
1 1 1 1 1 1 1 1 1 
1 1 1 1 1 1 2 1 1 
1 1 1 1 1 1 1 1 1 
1 1 1 1 1 1 1 1 1 
1 1 1 1 1 1 1 1 2 
1 1 1 1 1 1 1 1 1 
1 1 1 1 1 1 1 1 1 
1 1 1 1 1 1 1 1 1 
1 1 1 1 1 2 1 1 1 
2 1 1 1 1 1 1 1 1 
1 1 1 1 1 1 1 1 1 
1 1 1 1 2 1 1 1 1 
1 1 1 1 1 1 1 1 1 
1 1 1 1 1 1 1 1 1 
1 1 1 1 1 1 1 1 1 
1 1 1 1 1 1 1 1 1 
1 1 1 1 1 1 1 1 1 
1 1 1 1 1 1 1 2 1 
1 1 1 1 1 1 1 1 1 
1 1 1 1 2 1 1 1 2 
1 1 1 2 2 1 1 3 4 

i 3 648 int
0 0 0 0 0 0 0 0 0 
0 0 0 0 0 0 0 0 0 
0 0 0 0 0 0 0 0 0 
0 0 0 0 0 0 0 0 0 
0 0 0 0 0 0 0 0 0 
0 0 0 0 0 0 0 0 0 
0 0 0 0 0 0 0 0 0 
0 0 0 0 0 0 0 0 0 
0 0 0 0 0 0 0 0 0 
0 0 0 0 0 0 0 0 0 
0 0 0 0 0 0 0 0 0 
0 0 0 0 0 0 0 0 0 
0 0 0 0 0 0 0 0 0 
0 0 0 0 0 0 0 0 0 
0 0 0 0 0 0 0 0 0 
0 0 0 0 0 0 0 0 0 
0 0 0 0 0 0 0 0 0 
0 0 0 0 0 0 0 0 0 
0 0 0 0 0 0 0 0 0 
0 0 0 0 0 0 0 0 0 
0 0 0 0 0 0 0 0 0 
0 0 0 0 0 0 0 0 0 
0 0 0 0 0 0 0 0 0 
0 0 0 0 0 0 0 0 0 
0 0 0 0 0 0 0 0 0 
0 0 0 0 0 0 0 0 0 
0 0 0 0 0 0 0 0 0 
0 0 0 0 0 0 0 0 0 
0 0 0 0 0 0 0 0 0 
0 0 0 0 0 0 0 0 0 
0 0 0 0 0 0 0 0 0 
0 0 0 0 0 0 0 0 0 
0 0 0 0 0 0 0 0 0 
0 0 0 0 0 0 0 0 0 
0 0 0 0 0 0 0 0 0 
0 0 0 0 0 0 0 0 0 
0 0 0 0 0 0 0 0 0 
0 0 0 0 0 0 0 0 0 
0 0 0 0 0 0 0 0 0 
0 0 0 0 0 0 0 0 0 
0 0 0 0 0 0 0 0 0 
0 0 0 0 0 0 0 0 0 
0 0 0 0 0 0 0 0 0 
0 0 0 0 0 0 0 0 0 
0 0 0 0 0 0 0 0 0 
0 0 0 0 0 0 0 0 0 
0 0 0 0 0 0 0 0 0 
0 0 0 0 0 0 0 0 0 
0 0 0 0 0 0 0 0 0 
0 0 0 0 0 0 0 0 0 
0 0 0 0 0 0 0 0 0 
0 0 0 0 0 0 0 0 0 
0 0 0 0 0 0 0 0 0 
0 0 0 0 0 0 0 0 0 
0 0 0 0 0 0 0 0 0 
0 0 0 0 0 0 0 0 0 
0 0 0 0 0 0 0 0 0 
0 0 0 0 0 0 0 0 0 
0 0 0 0 0 0 0 0 0 
0 0 0 0 0 0 0 0 0 
0 0 0 0 0 0 0 0 0 
0 0 0 0 0 0 0 0 0 
0 0 0 0 0 0 0 0 0 
0 0 0 0 0 0 0 0 0 
0 0 0 0 0 0 0 0 0 
0 0 0 0 0 0 0 0 0 
0 0 0 0 0 0 0 0 0 
0 0 0 0 0 0 0 0 0 
0 0 0 0 0 0 0 0 0 
0 0 0 0 0 0 0 0 0 
0 0 0 0 0 0 0 0 0 
0 0 0 0 0 0 0 0 0 
0 0 0 0 0 0 0 0 0 
0 0 0 0 0 0 0 0 0 
0 0 0 0 0 0 0 0 0 
0 0 0 0 0 0 0 0 0 
0 0 0 0 0 0 0 0 0 
0 0 0 0 0 0 0 0 0 
0 0 0 0 0 0 0 0 0 
0 0 0 0 0 0 0 0 0 
0 0 0 0 0 0 0 0 0 
0 0 0 0 0 0 0 0 0 
0 0 0 0 0 0 0 0 0 
0 0 0 0 0 0 0 0 0 
0 0 0 0 0 0 0 0 0 
0 0 0 0 0 0 0 0 0 
0 0 0 0 0 0 0 0 0 
0 0 0 0 0 0 0 0 0 
0 0 0 0 0 0 0 0 0 
0 0 0 0 0 0 0 0 0 
0 0 0 0 0 0 0 0 0 
0 0 0 0 0 0 0 0 0 
0 0 0 0 0 0 0 0 0 
0 0 0 0 0 0 0 0 0 
0 0 0 0 0 0 0 0 0 
0 0 0 0 0 0 0 0 0 
0 0 0 0 0 0 0 0 0 
0 0 0 0 0 0 0 0 0 
0 0 0 0 0 0 0 0 0 
0 0 0 0 0 0 0 0 0 
0 0 0 0 0 0 0 0 0 
0 0 0 0 0 0 0 0 0 
0 0 0 0 0 0 0 0 0 
0 0 0 0 0 0 0 0 0 
0 0 0 0 0 0 0 0 0 
0 0 0 0 0 0 0 0 0 
0 0 0 0 0 0 0 0 0 
0 0 0 0 0 0 0 0 0 
0 0 0 0 0 0 0 0 0 
0 0 0 0 0 0 0 0 0 
0 0 0 0 0 0 0 0 0 
0 0 0 0 0 0 0 0 0 
0 0 0 0 0 0 0 0 0 
0 0 0 0 0 0 0 0 0 
0 0 0 0 0 0 0 0 0 
0 0 0 0 0 0 0 0 0 
0 0 0 0 0 0 0 0 0 
0 0 0 0 0 0 0 0 0 
0 0 0 0 0 0 0 0 0 
0 0 0 0 0 0 0 0 0 
0 0 0 0 0 0 0 0 0 
0 0 0 0 0 0 0 0 0 
0 0 0 0 0 0 0 0 0 
0 0 0 0 0 0 0 0 0 
0 0 0 0 0 0 0 0 0 
0 0 0 0 0 0 0 0 0 
0 0 0 0 0 0 0 0 0 
0 0 0 0 0 0 0 0 0 
0 0 0 0 0 0 0 0 0 
0 0 0 0 0 0 0 0 0 
0 0 0 0 0 0 0 0 0 
0 0 0 0 0 0 0 0 0 
0 0 0 0 0 0 0 0 0 
0 0 0 0 0 0 0 0 0 
0 0 0 0 0 0 0 0 0 
0 0 0 0 0 0 0 0 0 
0 0 0 0 0 0 0 0 0 
0 0 0 0 0 0 0 0 0 
0 0 0 0 0 0 0 0 0 
0 0 0 0 0 0 0 0 0 
0 0 0 0 0 0 0 0 0 
0 0 0 0 0 0 0 0 0 
0 0 0 0 0 0 0 0 0 
0 0 0 0 0 0 0 0 0 
0 0 0 0 0 0 0 0 0 
0 0 0 0 0 0 0 0 0 
0 0 0 0 0 0 0 0 0 
0 0 0 0 0 0 0 0 0 
0 0 0 0 0 0 0 0 0 
0 0 0 0 0 0 0 0 0 
0 0 0 0 0 0 0 0 0 
0 0 0 0 0 0 0 0 0 
0 0 0 0 0 0 0 0 0 
0 0 0 0 0 0 0 0 0 
0 0 0 0 0 0 0 0 0 
0 0 0 0 0 0 0 0 0 
0 0 0 0 0 0 0 0 0 
0 0 0 0 0 0 0 0 0 
0 0 0 0 0 0 0 0 0 
0 0 0 0 0 0 0 0 0 
0 0 0 0 0 0 0 0 0 
0 0 0 0 0 0 0 0 0 
0 0 0 0 0 0 0 0 0 
0 0 0 0 0 0 0 0 0 
0 0 0 0 0 0 0 0 0 
0 0 0 0 0 0 0 0 0 
0 0 0 0 0 0 0 0 0 
0 0 0 0 0 0 0 0 0 
0 0 0 0 0 0 0 0 0 
0 0 0 0 0 0 0 0 0 
0 0 0 0 0 0 0 0 0 
0 0 0 0 0 0 0 0 0 
0 0 0 0 0 0 0 0 0 
0 0 0 0 0 0 0 0 0 
0 0 0 0 0 0 0 0 0 
0 0 0 0 0 0 0 0 0 
0 0 0 0 0 0 0 0 0 
0 0 0 0 0 0 0 0 0 
0 0 0 0 0 0 0 0 0 
0 0 0 0 0 0 0 0 0 
0 0 0 0 0 0 0 0 0 
0 0 0 0 0 0 0 0 0 
0 0 0 0 0 0 0 0 0 
0 0 0 0 0 0 0 0 0 
0 0 0 0 0 0 0 0 0 
0 0 0 0 0 0 0 0 0 
0 0 0 0 0 0 0 0 0 
0 0 0 0 0 0 0 0 0 
0 0 0 0 0 0 0 0 0 
0 0 0 0 0 0 0 0 0 
0 0 0 0 0 0 0 0 0 
0 0 0 0 0 0 0 0 0 
0 0 0 0 0 0 0 0 0 
0 0 0 0 0 0 0 0 0 
0 0 0 0 0 0 0 0 0 
0 0 0 0 0 0 0 0 0 
0 0 0 0 0 0 0 0 0 
0 0 0 0 0 0 0 0 0 
0 0 0 0 0 0 0 0 0 
0 0 0 0 0 0 0 0 0 
0 0 0 0 0 0 0 0 0 
0 0 0 0 0 0 0 0 0 
0 0 0 0 0 0 0 0 0 
0 0 0 0 0 0 0 0 0 
0 0 0 0 0 0 0 0 0 
0 0 0 0 0 0 0 0 0 
0 0 0 0 0 0 0 0 0 
0 0 0 0 0 0 0 0 0 
0 0 0 0 0 0 0 0 0 
0 0 0 0 0 0 0 0 0 
0 0 0 0 0 0 0 0 0 
0 0 0 0 0 0 0 0 0 
0 0 0 0 0 0 0 0 0 
0 0 0 0 0 0 0 0 0 
0 0 0 0 0 0 0 0 0 
0 0 0 0 0 0 0 0 0 

v 3 648 double
0 0 0.064973781283 0 0 0.054682312389 0 0 0.21579773284 
0 0 0.28286717133 0 0 -0.16150371988 0 0 -0.16738407038 
0 0 -0.66724918749 0 0 0.25474327241 0 0 -0.16544862751 
0 0 -0.16791173592 0 0 0.23963354909 0 0 -0.15774967086 
0 0 -0.16168561955 0 0 0.21546916271 0 0 0.21246137585 
0 0 0.17045915046 0 0 0.24845923907 0 0 -0.15599846426 
0 0 0.21519048616 0 0 -0.14939088927 0 0 -0.15557274539 
0 0 0.23816876206 0 0 0.23385259914 0 0 -0.14752444263 
0 0 -0.15327605475 0 0 -0.15981116986 0 0 -0.15076980571 
0 0 -0.15603786718 0 0 -0.63474918749 0 0 0.20505976474 
0 0 -0.1395379099 0 0 -0.14119331144 0 0 0.18519479815 
0 0 -0.1450332918 0 0 -0.14531297078 0 0 -0.15054517269 
0 0 -0.61849918749 0 0 -0.13555913114 0 0 -0.14780409195 
0 0 0.2103208262 0 0 -0.14553739164 0 0 -0.13738804245 
0 0 -0.13799023565 0 0 -0.15058874844 0 0 -0.15269667636 
0 0 -0.64124918749 0 0 0.2052671594 0 0 -0.13761089665 
0 0 -0.12472230115 0 0 -0.13230892709 0 0 0.2009191842 
0 0 -0.12255737589 0 0 0.20745276322 0 0 -0.13070400938 
0 0 -0.13394992772 0 0 -0.12494282635 0 0 0.14501356551 
0 0 -0.12999822935 0 0 0.19385788653 0 0 -0.13398997859 
0 0 -0.11278845729 0 0 -0.12723318213 0 0 0.21353402464 
0 0 -0.14284963862 0 0 0.13933047568 0 0 -0.60549918749 
0 0 -0.1085516083 0 0 -0.1081167744 0 0 -0.11486589817 
0 0 0.094583953287 0 0 0.1896607554 0 0 -0.11701492948 
0 0 -0.12470105129 0 0 -0.11609846291 0 0 0.20830633856 
0 0 -0.60549918749 0 0 -0.11812528642 0 0 -0.11625232366 
0 0 -0.11867942325 0 0 0.14109993137 0 0 -0.10888496212 
0 0 0.1578649276 0 0 0.18760142312 0 0 -0.11335273825 
0 0 0.17002862731 0 0 0.16886292606 0 0 0.12367309606 
0 0 -0.11426587575 0 0 -0.12974099026 0 0 0.13228755015 
0 0 -0.1019027083 0 0 -0.13488539917 0 0 -0.61524918749 
0 0 -0.13421750178 0 0 0.075142324033 0 0 -0.10064150746 
0 0 -0.13279635678 0 0 -0.10310232613 0 0 -0.11912200625 
0 0 0.10721246035 0 0 -0.10036918105 0 0 -0.11794646881 
0 0 0.18266975184 0 0 -0.099623137202 0 0 -0.10588068169 
0 0 0.16826434535 0 0 0.051528044509 0 0 0.15776254389 
0 0 0.15393180619 0 0 0.17036088532 0 0 -0.13488114554 
0 0 -0.13654679957 0 0 0.18344573728 0 0 -0.64124918749 
0 0 0.073385721953 0 0 -0.073656124883 0 0 0.11551294885 
0 0 -0.10576065881 0 0 -0.10557862631 0 0 -0.13342592142 
0 0 -0.12249777996 0 0 -0.10122625166 0 0 -0.073579067839 
0 0 -0.1012712331 0 0 -0.13148046146 0 0 -0.10632276032 
0 0 -0.1331181149 0 0 0.11239205661 0 0 0.13599399442 
0 0 0.18514172213 0 0 0.1689228567 0 0 -0.079357098916 
0 0 0.056700731999 0 0 -0.12517012028 0 0 -0.080497802067 
0 0 -0.12362306176 0 0 0.035248416532 0 0 0.12461498909 
0 0 0.071760149222 0 0 -0.12985860654 0 0 0.17710187259 
0 0 -0.089772677486 0 0 0.065688900547 0 0 -0.12653162324 
0 0 -0.12041725152 0 0 -0.11949850927 0 0 0.16429366317 
0 0 0.11551916848 0 0 0.16083676501 0 0 -0.087895025948 
0 0 -0.11947505798 0 0 -0.11995678279 0 0 0.063304633242 
0 0 -0.12600247637 0 0 0.14399025154 0 0 -0.12903173085 
0 0 -0.093331213315 0 0 -0.08831328755 0 0 -0.078371458317 
0 0 0.031464562113 0 0 -0.62174918749 0 0 -0.12757619397 
0 0 0.12454566524 0 0 0.14830264491 0 0 0.14370176567 
0 0 -0.087459496967 0 0 -0.60549918749 0 0 -0.10020751934 
0 0 0.10368188267 0 0 -0.11039362931 0 0 0.021559972821 
0 0 -0.094816112578 0 0 -0.073453149944 0 0 -0.071825660639 
0 0 0.044655700564 0 0 -0.08225596714 0 0 0.005528050192 
0 0 -0.06929118286 0 0 0.12746373141 0 0 -0.10763357505 
0 0 0.17483428964 0 0 -0.10896338286 0 0 -0.12416247862 
0 0 -0.062786730177 0 0 -0.078800021679 0 0 0.073954070161 
0 0 -0.069153284499 0 0 0.017140167921 0 0 -0.10959379099 
0 0 0.086228672562 0 0 -0.0017998995322 0 0 0.031364951487 
0 0 -0.11663710715 0 0 -0.067337512154 0 0 -0.1087354314 
0 0 -0.089816281144 0 0 -0.061527968323 0 0 -0.069225725187 
0 0 0.14164294258 0 0 -0.065081864079 0 0 -0.10550198234 
0 0 -0.090393730487 0 0 -0.10602645292 0 0 -0.11379635742 
0 0 -0.055357405264 0 0 0.12622834232 0 0 -0.11293635291 
0 0 -0.068293119141 0 0 -0.61849918749 0 0 0.16919968463 
0 0 -0.068532986826 0 0 -0.077120158756 0 0 -0.067639041986 
0 0 -0.045917226942 0 0 -0.054288105893 0 0 -0.094718756597 
0 0 -0.089703093409 0 0 -0.10375397486 0 0 -0.053044282121 
0 0 -0.098753837905 0 0 -0.044458727136 0 0 0.13964160075 
0 0 -0.053124644665 0 0 -0.068796864997 0 0 -0.06361537539 
0 0 -0.096013485502 0 0 -0.110771644 0 0 -0.069931644113 
0 0 -0.04116426892 0 0 -0.12081914438 0 0 0.13750410281 
0 0 -0.042204316258 0 0 -0.04517217749 0 0 -0.010967206466 
0 0 -0.054658957257 0 0 -0.10093390065 0 0 -0.096895740198 
0 0 -0.04170005477 0 0 -0.037979608418 0 0 -0.034857895952 
0 0 -0.10857688129 0 0 0.13151686848 0 0 0.066306067426 
0 0 -0.004770734196 0 0 -0.039958978354 0 0 -0.090704434962 
0 0 -0.047675576242 0 0 -0.10252914341 0 0 -0.042967913785 
0 0 -0.10393662176 0 0 -0.05895534487 0 0 -0.10364246967 
0 0 -0.034579970249 0 0 -0.0090780131545 0 0 0.052964132461 
0 0 -0.033935907761 0 0 -0.014363256021 0 0 -0.026536852875 
0 0 0.079859111818 0 0 0.089085789069 0 0 -0.04752820104 
0 0 -0.051062726126 0 0 0.13281558705 0 0 0.1231583582 
0 0 -0.081447008413 0 0 -0.086830207651 0 0 0.12578914302 
0 0 -0.60549918749 0 0 0.082744029516 0 0 -0.094394157566 
0 0 -0.024293526804 0 0 0.071565175257 0 0 -0.031548198035 
0 0 -0.10366924314 0 0 -0.016206446769 0 0 0.07843674555 
0 0 -0.05525478303 0 0 0.010143550493 0 0 0.093499391257 
0 0 -0.073022535111 0 0 -0.0042622285267 0 0 -0.030656848512 
0 0 -0.027901929762 0 0 -0.042798220108 0 0 0.064307517903 
0 0 -0.038315130292 0 0 -0.073600205032 0 0 -0.028372358591 
0 0 -0.60549918749 0 0 -0.025722251827 0 0 -0.083757297498 
0 0 -0.074407034399 0 0 -0.081570058348 0 0 -0.094625893962 
0 0 -0.073387125312 0 0 0.011103891935 0 0 -0.076071758431 
0 0 -0.030765992594 0 0 0.12461064415 0 0 -0.047070362436 
0 0 -0.087002340556 0 0 -0.020357359615 0 0 -0.042730995575 
0 0 -0.058821634868 0 0 0.065954153638 0 0 0.010260290954 
0 0 -0.055495975438 0 0 -0.065305837262 0 0 -0.00154654627 
0 0 0.018292789399 0 0 0.0062707014394 0 0 0.066217682983 
0 0 -0.0089390462491 0 0 -0.059537566096 0 0 0.020667110573 
0 0 -0.061408979841 0 0 -0.046378625788 0 0 -0.021182417449 
0 0 0.079791155459 0 0 0.023359573386 0 0 0.090127923551 
0 0 -0.05790946601 0 0 0.093106577644 0 0 0.010965728209 
0 0 -0.071718770859 0 0 0.0045341135784 0 0 0.080754438053 
0 0 0.049607837327 0 0 0.012139969966 0 0 0.0041086518772 
0 0 -0.065104210032 0 0 0.0050543212294 0 0 -0.065522003016 
0 0 -0.0065214419417 0 0 -0.067894501934 0 0 -0.073153009497 
0 0 0.035471151307 0 0 -0.06455002527 0 0 -0.065948900821 
0 0 -0.018400530546 0 0 -0.016911290826 0 0 -0.056475775799 
0 0 -0.61524918749 0 0 -0.0023358868778 0 0 -0.014520208203 
0 0 0.061818558325 0 0 0.04151311647 0 0 0.018724916098 
0 0 0.0064430463181 0 0 0.025738464799 0 0 0.011166917199 
0 0 0.01197006627 0 0 0.021530194811 0 0 0.003741603102 
0 0 0.013587256075 0 0 -0.065419396467 0 0 -0.0071462523936 
0 0 -0.10094148684 0 0 -0.059422811447 0 0 0.098408270976 
0 0 0.00070806688101 0 0 0.035497198769 0 0 -0.025656696006 
0 0 0.04001137709 0 0 -0.025528016146 0 0 -0.045339154073 
0 0 -0.0066013851608 0 0 0.027559357459 0 0 0.02199559261 
0 0 -0.07158193911 0 0 -0.075176470873 0 0 -0.06562832335 
0 0 -0.072744009881 0 0 0.0005656081149 0 0 -0.056750743066 
0 0 -0.001079017912 0 0 0.0028200750601 0 0 -0.03974284492 
0 0 -0.05308032222 0 0 -0.036789024838 0 0 0.036294638326 
0 0 -0.041337357771 0 0 -0.039893249186 0 0 -0.054544603131 
0 0 -0.036453180773 0 0 0.029992301216 0 0 0.098798346866 
0 0 0.0036106303308 0 0 0.024035635512 0 0 -0.036363991768 
0 0 -0.053044720066 0 0 0.039375666438 0 0 0.094610472238 
0 0 0.0067664566363 0 0 -0.047375537657 0 0 0.091756470288 
0 0 0.038528639142 0 0 -0.07125434997 0 0 -0.04777551405 
0 0 0.046733110278 0 0 0.042776551068 0 0 -0.040075634458 
0 0 -0.039546893364 0 0 -0.052435142894 0 0 -0.04415310733 
0 0 -0.056646069893 0 0 -0.055900235701 0 0 0.11728094257 
0 0 -0.054999106224 0 0 -0.037322967861 0 0 -0.048134870781 
0 0 0.031501272487 0 0 0.049358496327 0 0 -0.033588563287 
0 0 -0.046701914824 0 0 0.0020938795336 0 0 -0.050750897951 
0 0 -0.086943619304 0 0 0.024845316595 0 0 0.074442765594 
0 0 -0.056948547394 0 0 0.029679431138 0 0 0.021197632015 
0 0 0.011845478432 0 0 0.06739926587 0 0 -0.045158529956 
0 0 -0.03106484143 0 0 -0.027060656959 0 0 -0.010476667178 
0 0 -0.0016649613919 0 0 -0.053574149975 0 0 0.0014939054207 
0 0 0.046899565953 0 0 -0.022552262555 0 0 -0.019804039633 
0 0 -0.060334786611 0 0 -0.030969069236 0 0 0.048922354017 
0 0 -0.0025916453863 0 0 -0.023581998679 0 0 -0.0058129185349 
0 0 -0.04129776441 0 0 -0.013019586508 0 0 -0.028095818096 
0 0 -0.010791750626 0 0 -0.024939074109 0 0 -0.0042262121795 
0 0 0.036688250846 0 0 0.056062775645 0 0 -0.039050535899 
0 0 -0.017011489758 0 0 -0.02836012013 0 0 -0.0041634901123 
0 0 -0.0007400322292 0 0 -0.011092931822 0 0 -0.014344948686 
0 0 -0.026125834741 0 0 0.041406956281 0 0 -0.0058607002502 
0 0 -0.022672340866 0 0 -0.020989039245 0 0 -0.032884183123 
0 0 -0.0206596747 0 0 -0.035190169254 0 0 -0.013544107449 
0 0 -0.026305072425 0 0 -0.043888044197 0 0 -0.035384697116 
0 0 -0.038335142622 0 0 -0.043090804232 0 0 0.012228633907 
0 0 -0.006907145425 0 0 -0.0017230324498 0 0 -0.0062438815769 
0 0 -0.074422768368 0 0 -0.029526233811 0 0 -0.043851677823 
0 0 -0.029620990923 0 0 -0.019696514949 0 0 -0.02142574664 
0 0 -0.032492454133 0 0 -0.010539347118 0 0 -0.024581732093 
0 0 0.058187359652 0 0 0.006401133342 0 0 0.010657903947 
0 0 0.041571251334 0 0 0.029257710959 0 0 0.013546722165 
0 0 -0.021773336741 0 0 0.042039952664 0 0 0.052669656469 
0 0 0.0689490027 0 0 0.038797014818 0 0 0.03511365276 
0 0 -0.0050423048222 0 0 0.071489873702 0 0 0.067185990883 
0 0 0.058141334608 0 0 0.019140150294 0 0 0.012732834049 
0 0 0.0072722468849 0 0 0.047842349529 0 0 -0.045642623863 
0 0 0.0012459718713 0 0 0.064899071913 0 0 -0.00029235652005 
0 0 0.028925319371 0 0 -0.031641428516 0 0 0.018824849481 
0 0 0.060301185353 0 0 0.0246349779 0 0 0.0043212189077 
0 0 0.014652038579 0 0 0.0020926061251 0 0 -0.017711516283 
0 0 0.049717821822 0 0 0.072718089768 0 0 0.0018322651305 
0 0 0.0038746632041 0 0 -0.0094958993478 0 0 0.011360479199 
0 0 0.011747971584 0 0 0.043698869986 0 0 0.054681378913 
0 0 0.0039110145768 0 0 0.057534317951 0 0 0.029738498822 
0 0 -1.0708584477e-05 0 0 0.027914908569 0 0 0.053920910948 
0 0 0.04693351482 0 0 0.016773379886 0 0 0.016962501302 
0 0 0.060852260647 0 0 0.038907053619 0 0 -0.040727460248 
0 0 0.04406966802 0 0 0.062699854982 0 0 0.0039412081924 
0 0 -0.056977363113 0 0 0.06483682451 0 0 0.06773265393 
0 0 0.023332989658 0 0 0.011638034858 0 0 0.0043454940143 
0 0 0.0173675969 0 0 0.0081586897474 0 0 0.00010897310386 
0 0 0.0087080878675 0 0 0.059454879511 0 0 -0.62174918749 
0 0 0.0015802311424 0 0 0.045423593272 0 0 0.060748435473 
0 0 -0.0046389091277 0 0 0.027729453068 0 0 0.01622378792 
0 0 0.051433700734 0 0 0.016770902 0 0 0.044820885163 
0 0 0.051719189102 0 0 0.16580413992 0 0 0.032944281559 
0 0 0.015921647332 0 0 0.029753510313 0 0 0.0041410743946 
0 0 0.040269488951 0 0 0.036200159567 0 0 0.03130862228 
0 0 0.037672585433 0 0 0.034626169186 0 0 0.026686722759 
0 0 -0.0018020830384 0 0 0.043551092934 0 0 -0.006233388319 
0 0 0.0020218438446 0 0 0.049780933588 0 0 0.020141376806 
0 0 0.032321446961 0 0 0.052472942694 0 0 0.060843097796 
0 0 0.054585395982 0 0 0.063400230145 0 0 0.049854423577 
0 0 0.025105541666 0 0 0.0049188016688 0 0 -0.0037287150635 
0 0 0.044676970095 0 0 0.061870669947 0 0 0.059618104285 
0 0 0.015321142767 0 0 0.048454034031 0 0 0.0300404619 
0 0 0.040024060163 0 0 0.010294241068 0 0 -0.0017787340896 
0 0 0.037603207205 0 0 0.034027975991 0 0 0.0160294822 
0 0 0.0076800190005 0 0 0.020517486388 0 0 0.053076280409 
0 0 0.013326181367 0 0 0.032451145812 0 0 -0.0063792381766 
0 0 0.071490553033 0 0 0.011147772055 0 0 0.073414472105 
0 0 0.046678564471 0 0 0.073688114278 0 0 0.0050726314878 
0 0 0.026250292957 0 0 0.083253965079 0 0 0.056181197274 
0 0 -0.61199918749 0 0 -0.61849918749 0 0 0.028192757493 
0 0 0.032876486542 0 0 0.095688904819 0 0 0.082031345079 
0 0 0.056245661141 0 0 0.03657925621 0 0 0.026974228357 
0 0 0.069877713012 0 0 0.026354866611 0 0 0.087424545498 
0 0 0.067821417668 0 0 0.06893510339 0 0 0.06953608082 
0 0 0.072825477741 0 0 0.095990859411 0 0 0.054666185878 
0 0 0.02241563999 0 0 -0.02464241923 0 0 0.015788615742 
0 0 0.099379661041 0 0 -0.60874918749 0 0 0.065591592173 
0 0 0.057951173882 0 0 -0.60874918749 0 0 0.063798403143 
0 0 -0.0025757355744 0 0 0.0667841462 0 0 0.08749267595 
0 0 -0.60549918749 0 0 -0.003305534954 0 0 0.11675495422 

f 3 648 double
0 0 -1.7425367252e-10 0 0 -1.7425367252e-10 0 0 -1.7425367252e-10 
0 0 -1.7425367252e-10 0 0 -1.7425367252e-10 0 0 -1.7425367252e-10 
0 0 -1.7425367252e-10 0 0 -1.7425367252e-10 0 0 -1.7425367252e-10 
0 0 -1.7425367252e-10 0 0 -1.7425367252e-10 0 0 -1.7425367252e-10 
0 0 -1.7425367252e-10 0 0 -1.7425367252e-10 0 0 -1.7425367252e-10 
0 0 -1.7425367252e-10 0 0 -8.9019973083e-09 0 0 -1.7425367252e-10 
0 0 -1.7425367252e-10 0 0 -1.7425367252e-10 0 0 -1.7425367252e-10 
0 0 -1.7425367252e-10 0 0 -1.7425367252e-10 0 0 -1.7425367252e-10 
0 0 -1.7425367252e-10 0 0 -1.7425367252e-10 0 0 -1.7425367252e-10 
0 0 -1.7425367252e-10 0 0 -1.7425367252e-10 0 0 -1.7425367252e-10 
0 0 -1.7425367252e-10 0 0 -1.7425367252e-10 0 0 -1.7425367252e-10 
0 0 -1.7425367252e-10 0 0 -1.7425367252e-10 0 0 -1.7425367252e-10 
0 0 -1.7425367252e-10 0 0 -1.7425367252e-10 0 0 -1.7425367252e-10 
0 0 -1.7425367252e-10 0 0 -1.7425367252e-10 0 0 -1.7425367252e-10 
0 0 -1.7425367252e-10 0 0 -1.7425367252e-10 0 0 -1.7425367252e-10 
0 0 -1.7425367252e-10 0 0 -1.7425367252e-10 0 0 -1.7425367252e-10 
0 0 -1.7425367252e-10 0 0 -1.7425367252e-10 0 0 -1.7425367252e-10 
0 0 -1.7425367252e-10 0 0 -1.7425367252e-10 0 0 -1.7425367252e-10 
0 0 -1.7425367252e-10 0 0 -1.7425367252e-10 0 0 -1.7425367252e-10 
0 0 -1.7425367252e-10 0 0 -1.7425367252e-10 0 0 -1.7425367252e-10 
0 0 -1.7425367252e-10 0 0 -1.7425367252e-10 0 0 -1.7425367252e-10 
0 0 -1.7425367252e-10 0 0 -1.7425367252e-10 0 0 -1.7425367252e-10 
0 0 -1.7425367252e-10 0 0 -1.7425367252e-10 0 0 -1.7425367252e-10 
0 0 -1.7425367252e-10 0 0 -1.7425367252e-10 0 0 -1.7425367252e-10 
0 0 -1.7425367252e-10 0 0 -1.7425367252e-10 0 0 -1.7425367252e-10 
0 0 -1.7425367252e-10 0 0 -1.7425367252e-10 0 0 -1.7425367252e-10 
0 0 -1.7425367252e-10 0 0 -1.7425367252e-10 0 0 -1.7425367252e-10 
0 0 -1.7425367252e-10 0 0 -1.7425367252e-10 0 0 -1.7425367252e-10 
0 0 -1.7425367252e-10 0 0 -1.7425367252e-10 0 0 -1.7425367252e-10 
0 0 -1.7425367252e-10 0 0 -1.7425367252e-10 0 0 -1.7425367252e-10 
0 0 -1.7425367252e-10 0 0 -1.7425367252e-10 0 0 -1.7425367252e-10 
0 0 -1.7425367252e-10 0 0 -1.7425367252e-10 0 0 -1.7425367252e-10 
0 0 -1.7425367252e-10 0 0 -1.7425367252e-10 0 0 -1.7425367252e-10 
0 0 -1.7425367252e-10 0 0 -1.7425367252e-10 0 0 -1.7425367252e-10 
0 0 -1.7425367252e-10 0 0 -1.7425367252e-10 0 0 -1.7425367252e-10 
0 0 -1.7425367252e-10 0 0 -1.7425367252e-10 0 0 -1.7425367252e-10 
0 0 -1.7425367252e-10 0 0 -1.7425367252e-10 0 0 -1.7425367252e-10 
0 0 -1.7425367252e-10 0 0 -1.7425367252e-10 0 0 -1.7425367252e-10 
0 0 -1.7425367252e-10 0 0 -1.7425367252e-10 0 0 -1.7425367252e-10 
0 0 -1.7425367252e-10 0 0 -1.7425367252e-10 0 0 -1.7425367252e-10 
0 0 -1.7425367252e-10 0 0 -1.7425367252e-10 0 0 -1.7425367252e-10 
0 0 -1.7425367252e-10 0 0 -1.7425367252e-10 0 0 -1.7425367252e-10 
0 0 -1.7425367252e-10 0 0 -1.7425367252e-10 0 0 -1.7425367252e-10 
0 0 -1.7425367252e-10 0 0 -1.7425367252e-10 0 0 -1.7425367252e-10 
0 0 -1.7425367252e-10 0 0 -1.7425367252e-10 0 0 -1.7425367252e-10 
0 0 -1.7425367252e-10 0 0 -1.7425367252e-10 0 0 -1.7425367252e-10 
0 0 -1.7425367252e-10 0 0 -1.7425367252e-10 0 0 -1.7425367252e-10 
0 0 -1.7425367252e-10 0 0 -1.7425367252e-10 0 0 -1.7425367252e-10 
0 0 -1.7425367252e-10 0 0 -1.7425367252e-10 0 0 -1.7425367252e-10 
0 0 -1.7425367252e-10 0 0 -1.7425367252e-10 0 0 -1.7425367252e-10 
0 0 -1.7425367252e-10 0 0 -1.7425367252e-10 0 0 -1.7425367252e-10 
0 0 -1.7425367252e-10 0 0 -1.7425367252e-10 0 0 -1.7425367252e-10 
0 0 -1.7425367252e-10 0 0 -1.7425367252e-10 0 0 -1.7425367252e-10 
0 0 -1.7425367252e-10 0 0 -1.7425367252e-10 0 0 -1.7425367252e-10 
0 0 -1.7425367252e-10 0 0 -1.7425367252e-10 0 0 -1.7425367252e-10 
0 0 -1.7425367252e-10 0 0 -1.7425367252e-10 0 0 -1.7425367252e-10 
0 0 -1.7425367252e-10 0 0 -1.7425367252e-10 0 0 -1.7425367252e-10 
0 0 -1.7425367252e-10 0 0 -1.7425367252e-10 0 0 -1.7425367252e-10 
0 0 -1.7425367252e-10 0 0 -1.7425367252e-10 0 0 -1.7425367252e-10 
0 0 -1.7425367252e-10 0 0 -1.7425367252e-10 0 0 -1.7425367252e-10 
0 0 -1.7425367252e-10 0 0 -1.7425367252e-10 0 0 -1.7425367252e-10 
0 0 -1.7425367252e-10 0 0 -1.7425367252e-10 0 0 -1.7425367252e-10 
0 0 -1.7425367252e-10 0 0 -1.7425367252e-10 0 0 -1.7425367252e-10 
0 0 -1.7425367252e-10 0 0 -1.7425367252e-10 0 0 -1.7425367252e-10 
0 0 -1.7425367252e-10 0 0 -1.7425367252e-10 0 0 -1.7425367252e-10 
0 0 -1.7425367252e-10 0 0 -1.7425367252e-10 0 0 -1.7425367252e-10 
0 0 -1.7425367252e-10 0 0 -1.7425367252e-10 0 0 -1.7425367252e-10 
0 0 -1.7425367252e-10 0 0 -1.7425367252e-10 0 0 -1.7425367252e-10 
0 0 -1.7425367252e-10 0 0 -1.7425367252e-10 0 0 -1.7425367252e-10 
0 0 -1.7425367252e-10 0 0 -1.7425367252e-10 0 0 -1.7425367252e-10 
0 0 -1.7425367252e-10 0 0 -1.7425367252e-10 0 0 -1.7425367252e-10 
0 0 -1.7425367252e-10 0 0 -1.7425367252e-10 0 0 -1.7425367252e-10 
0 0 -1.7425367252e-10 0 0 -1.7425367252e-10 0 0 -1.7425367252e-10 
0 0 -1.7425367252e-10 0 0 -1.7425367252e-10 0 0 -1.7425367252e-10 
0 0 -1.7425367252e-10 0 0 -1.7425367252e-10 0 0 -1.7425367252e-10 
0 0 -1.7425367252e-10 0 0 -1.7425367252e-10 0 0 -1.7425367252e-10 
0 0 -1.7425367252e-10 0 0 -8.9019973083e-09 0 0 -1.7425367252e-10 
0 0 -1.7425367252e-10 0 0 -1.7425367252e-10 0 0 -1.7425367252e-10 
0 0 -1.7425367252e-10 0 0 -1.7425367252e-10 0 0 -1.7425367252e-10 
0 0 -1.7425367252e-10 0 0 -1.7425367252e-10 0 0 -1.7425367252e-10 
0 0 -1.7425367252e-10 0 0 -1.7425367252e-10 0 0 -1.7425367252e-10 
0 0 -1.7425367252e-10 0 0 -1.7425367252e-10 0 0 -1.7425367252e-10 
0 0 -1.7425367252e-10 0 0 -1.7425367252e-10 0 0 -1.7425367252e-10 
0 0 -1.7425367252e-10 0 0 -1.7425367252e-10 0 0 -1.7425367252e-10 
0 0 -1.7425367252e-10 0 0 -1.7425367252e-10 0 0 -1.7425367252e-10 
0 0 -1.7425367252e-10 0 0 -1.7425367252e-10 0 0 -1.7425367252e-10 
0 0 -1.7425367252e-10 0 0 -1.7425367252e-10 0 0 -1.7425367252e-10 
0 0 -1.7425367252e-10 0 0 -1.7425367252e-10 0 0 -1.7425367252e-10 
0 0 -1.7425367252e-10 0 0 -1.7425367252e-10 0 0 -1.7425367252e-10 
0 0 -1.7425367252e-10 0 0 -1.7425367252e-10 0 0 -1.7425367252e-10 
0 0 -1.7425367252e-10 0 0 -1.7425367252e-10 0 0 -1.7425367252e-10 
0 0 -8.9019973083e-09 0 0 -1.7425367252e-10 0 0 -1.7425367252e-10 
0 0 -1.7425367252e-10 0 0 -1.7425367252e-10 0 0 -1.7425367252e-10 
0 0 -1.7425367252e-10 0 0 -1.7425367252e-10 0 0 -1.7425367252e-10 
0 0 -1.7425367252e-10 0 0 -1.7425367252e-10 0 0 -1.7425367252e-10 
0 0 -1.7425367252e-10 0 0 -1.7425367252e-10 0 0 -1.7425367252e-10 
0 0 -1.7425367252e-10 0 0 -1.7425367252e-10 0 0 -1.7425367252e-10 
0 0 -1.7425367252e-10 0 0 -1.7425367252e-10 0 0 -1.7425367252e-10 
0 0 -1.7425367252e-10 0 0 -1.7425367252e-10 0 0 -1.7425367252e-10 
0 0 -1.7425367252e-10 0 0 -1.7425367252e-10 0 0 -1.7425367252e-10 
0 0 -1.7425367252e-10 0 0 -1.7425367252e-10 0 0 -1.7425367252e-10 
0 0 -1.7425367252e-10 0 0 -1.7425367252e-10 0 0 -1.7425367252e-10 
0 0 -1.7425367252e-10 0 0 -1.7425367252e-10 0 0 -1.7425367252e-10 
0 0 -1.7425367252e-10 0 0 -1.7425367252e-10 0 0 -1.7425367252e-10 
0 0 -1.7425367252e-10 0 0 -1.7425367252e-10 0 0 -1.7425367252e-10 
0 0 -1.7425367252e-10 0 0 -1.7425367252e-10 0 0 -1.7425367252e-10 
0 0 -1.7425367252e-10 0 0 -1.7425367252e-10 0 0 -1.7425367252e-10 
0 0 -1.7425367252e-10 0 0 -1.7425367252e-10 0 0 -1.7425367252e-10 
0 0 -1.7425367252e-10 0 0 -1.7425367252e-10 0 0 -1.7425367252e-10 
0 0 -1.7425367252e-10 0 0 -1.7425367252e-10 0 0 -1.7425367252e-10 
0 0 -1.7425367252e-10 0 0 -1.7425367252e-10 0 0 -1.7425367252e-10 
0 0 -1.7425367252e-10 0 0 -1.7425367252e-10 0 0 -1.7425367252e-10 
0 0 -1.7425367252e-10 0 0 -1.7425367252e-10 0 0 -1.7425367252e-10 
0 0 -1.7425367252e-10 0 0 -1.7425367252e-10 0 0 -1.7425367252e-10 
0 0 -1.7425367252e-10 0 0 -1.7425367252e-10 0 0 -1.7425367252e-10 
0 0 -1.7425367252e-10 0 0 -1.7425367252e-10 0 0 -1.7425367252e-10 
0 0 -1.7425367252e-10 0 0 -1.7425367252e-10 0 0 -1.7425367252e-10 
0 0 -1.7425367252e-10 0 0 -1.7425367252e-10 0 0 -1.7425367252e-10 
0 0 -1.7425367252e-10 0 0 -1.7425367252e-10 0 0 -1.7425367252e-10 
0 0 -8.9019973083e-09 0 0 -1.7425367252e-10 0 0 -1.7425367252e-10 
0 0 -1.7425367252e-10 0 0 -1.7425367252e-10 0 0 -1.7425367252e-10 
0 0 -1.7425367252e-10 0 0 -1.7425367252e-10 0 0 -1.7425367252e-10 
0 0 -1.7425367252e-10 0 0 -1.7425367252e-10 0 0 -1.7425367252e-10 
0 0 -1.7425367252e-10 0 0 -1.7425367252e-10 0 0 -1.7425367252e-10 
0 0 -1.7425367252e-10 0 0 -1.7425367252e-10 0 0 -1.7425367252e-10 
0 0 -1.7425367252e-10 0 0 -1.7425367252e-10 0 0 -1.7425367252e-10 
0 0 -1.7425367252e-10 0 0 -1.7425367252e-10 0 0 -1.7425367252e-10 
0 0 -1.7425367252e-10 0 0 -1.7425367252e-10 0 0 -1.7425367252e-10 
0 0 -1.7425367252e-10 0 0 -1.7425367252e-10 0 0 -1.7425367252e-10 
0 0 -1.7425367252e-10 0 0 -1.7425367252e-10 0 0 -1.7425367252e-10 
0 0 -1.7425367252e-10 0 0 -1.7425367252e-10 0 0 -1.7425367252e-10 
0 0 -1.7425367252e-10 0 0 -1.7425367252e-10 0 0 -1.7425367252e-10 
0 0 -1.7425367252e-10 0 0 -8.9019973083e-09 0 0 -1.7425367252e-10 
0 0 -1.7425367252e-10 0 0 -1.7425367252e-10 0 0 -1.7425367252e-10 
0 0 -1.7425367252e-10 0 0 -1.7425367252e-10 0 0 -1.7425367252e-10 
0 0 -1.7425367252e-10 0 0 -1.7425367252e-10 0 0 -1.7425367252e-10 
0 0 -1.7425367252e-10 0 0 -1.7425367252e-10 0 0 -1.7425367252e-10 
0 0 -1.7425367252e-10 0 0 -1.7425367252e-10 0 0 -1.7425367252e-10 
0 0 -1.7425367252e-10 0 0 -1.7425367252e-10 0 0 -1.7425367252e-10 
0 0 -8.9019973083e-09 0 0 -1.7425367252e-10 0 0 -1.7425367252e-10 
0 0 -1.7425367252e-10 0 0 -1.7425367252e-10 0 0 -1.7425367252e-10 
0 0 -1.7425367252e-10 0 0 -1.7425367252e-10 0 0 -1.7425367252e-10 
0 0 -1.7425367252e-10 0 0 -1.7425367252e-10 0 0 -1.7425367252e-10 
0 0 -1.7425367252e-10 0 0 -1.7425367252e-10 0 0 -1.7425367252e-10 
0 0 -1.7425367252e-10 0 0 -1.7425367252e-10 0 0 -1.7425367252e-10 
0 0 -8.9019973083e-09 0 0 -1.7425367252e-10 0 0 -1.7425367252e-10 
0 0 -1.7425367252e-10 0 0 -1.7425367252e-10 0 0 -1.7425367252e-10 
0 0 -1.7425367252e-10 0 0 -1.7425367252e-10 0 0 -1.7425367252e-10 
0 0 -1.7425367252e-10 0 0 -1.7425367252e-10 0 0 -1.7425367252e-10 
0 0 -1.7425367252e-10 0 0 -1.7425367252e-10 0 0 -1.7425367252e-10 
0 0 -1.7425367252e-10 0 0 -1.7425367252e-10 0 0 -1.7425367252e-10 
0 0 -1.7425367252e-10 0 0 -1.7425367252e-10 0 0 -1.7425367252e-10 
0 0 -1.7425367252e-10 0 0 -1.7425367252e-10 0 0 -1.7425367252e-10 
0 0 -1.7425367252e-10 0 0 -1.7425367252e-10 0 0 -1.7425367252e-10 
0 0 -1.7425367252e-10 0 0 -1.7425367252e-10 0 0 -1.7425367252e-10 
0 0 -1.7425367252e-10 0 0 -1.7425367252e-10 0 0 -1.7425367252e-10 
0 0 -1.7425367252e-10 0 0 -1.7425367252e-10 0 0 -1.7425367252e-10 
0 0 -1.7425367252e-10 0 0 -1.7425367252e-10 0 0 -1.7425367252e-10 
0 0 -8.9019973083e-09 0 0 -1.7425367252e-10 0 0 -1.7425367252e-10 
0 0 -1.7425367252e-10 0 0 -1.7425367252e-10 0 0 -1.7425367252e-10 
0 0 -1.7425367252e-10 0 0 -1.7425367252e-10 0 0 -1.7425367252e-10 
0 0 -1.7425367252e-10 0 0 -1.7425367252e-10 0 0 -1.7425367252e-10 
0 0 -1.7425367252e-10 0 0 -1.7425367252e-10 0 0 -1.7425367252e-10 
0 0 -1.7425367252e-10 0 0 -1.7425367252e-10 0 0 -1.7425367252e-10 
0 0 -1.7425367252e-10 0 0 -1.7425367252e-10 0 0 -1.7425367252e-10 
0 0 -1.7425367252e-10 0 0 -1.7425367252e-10 0 0 -1.7425367252e-10 
0 0 -1.7425367252e-10 0 0 -1.7425367252e-10 0 0 -1.7425367252e-10 
0 0 -1.7425367252e-10 0 0 -1.7425367252e-10 0 0 -8.9019973083e-09 
0 0 -1.7425367252e-10 0 0 -1.7425367252e-10 0 0 -1.7425367252e-10 
0 0 -1.7425367252e-10 0 0 -1.7425367252e-10 0 0 -1.7425367252e-10 
0 0 -1.7425367252e-10 0 0 -1.7425367252e-10 0 0 -1.7425367252e-10 
0 0 -1.7425367252e-10 0 0 -1.7425367252e-10 0 0 -1.7425367252e-10 
0 0 -1.7425367252e-10 0 0 -1.7425367252e-10 0 0 -1.7425367252e-10 
0 0 -1.7425367252e-10 0 0 -1.7425367252e-10 0 0 -1.7425367252e-10 
0 0 -1.7425367252e-10 0 0 -1.7425367252e-10 0 0 -1.7425367252e-10 
0 0 -1.7425367252e-10 0 0 -1.7425367252e-10 0 0 -1.7425367252e-10 
0 0 -1.7425367252e-10 0 0 -1.7425367252e-10 0 0 -1.7425367252e-10 
0 0 -1.7425367252e-10 0 0 -1.7425367252e-10 0 0 -1.7425367252e-10 
0 0 -1.7425367252e-10 0 0 -1.7425367252e-10 0 0 -8.9019973083e-09 
0 0 -1.7425367252e-10 0 0 -1.7425367252e-10 0 0 -1.7425367252e-10 
0 0 -8.9019973083e-09 0 0 -1.7425367252e-10 0 0 -1.7425367252e-10 
0 0 -1.7425367252e-10 0 0 -1.7425367252e-10 0 0 -1.7425367252e-10 
0 0 -1.7425367252e-10 0 0 -1.7425367252e-10 0 0 -1.7425367252e-10 
0 0 -1.7425367252e-10 0 0 -1.7425367252e-10 0 0 -1.7425367252e-10 
0 0 -1.7425367252e-10 0 0 -1.7425367252e-10 0 0 -1.7425367252e-10 
0 0 -1.7425367252e-10 0 0 -1.7425367252e-10 0 0 -1.7425367252e-10 
0 0 -1.7425367252e-10 0 0 -1.7425367252e-10 0 0 -1.7425367252e-10 
0 0 -1.7425367252e-10 0 0 -8.9019973083e-09 0 0 -1.7425367252e-10 
0 0 -1.7425367252e-10 0 0 -1.7425367252e-10 0 0 -1.7425367252e-10 
0 0 -1.7425367252e-10 0 0 -1.7425367252e-10 0 0 -1.7425367252e-10 
0 0 -1.7425367252e-10 0 0 -1.7425367252e-10 0 0 -1.7425367252e-10 
0 0 -1.7425367252e-10 0 0 -1.7425367252e-10 0 0 -1.7425367252e-10 
0 0 -1.7425367252e-10 0 0 -1.7425367252e-10 0 0 -1.7425367252e-10 
0 0 -1.7425367252e-10 0 0 -1.7425367252e-10 0 0 -1.7425367252e-10 
0 0 -1.7425367252e-10 0 0 -1.7425367252e-10 0 0 -1.7425367252e-10 
0 0 -1.7425367252e-10 0 0 -1.7425367252e-10 0 0 -1.7425367252e-10 
0 0 -1.7425367252e-10 0 0 -1.7425367252e-10 0 0 -1.7425367252e-10 
0 0 -1.7425367252e-10 0 0 -1.7425367252e-10 0 0 -1.7425367252e-10 
0 0 -1.7425367252e-10 0 0 -1.7425367252e-10 0 0 -1.7425367252e-10 
0 0 -1.7425367252e-10 0 0 -1.7425367252e-10 0 0 -1.7425367252e-10 
0 0 -1.7425367252e-10 0 0 -1.7425367252e-10 0 0 -1.7425367252e-10 
0 0 -1.7425367252e-10 0 0 -1.7425367252e-10 0 0 -1.7425367252e-10 
0 0 -1.7425367252e-10 0 0 -1.7425367252e-10 0 0 -1.7425367252e-10 
0 0 -1.7425367252e-10 0 0 -1.7425367252e-10 0 0 -1.7425367252e-10 
0 0 -1.7425367252e-10 0 0 -1.7425367252e-10 0 0 -1.7425367252e-10 
0 0 -1.7425367252e-10 0 0 -1.7425367252e-10 0 0 -1.7425367252e-10 
0 0 -1.7425367252e-10 0 0 -8.9019973083e-09 0 0 -1.7425367252e-10 
0 0 -1.7425367252e-10 0 0 -1.7425367252e-10 0 0 -1.7425367252e-10 
0 0 -1.7425367252e-10 0 0 -1.7425367252e-10 0 0 -1.7425367252e-10 
0 0 -1.7425367252e-10 0 0 -1.7425367252e-10 0 0 -1.7425367252e-10 
0 0 -1.7425367252e-10 0 0 -1.7425367252e-10 0 0 -1.7425367252e-10 
0 0 -1.7425367252e-10 0 0 -8.9019973083e-09 0 0 -1.7425367252e-10 
0 0 -1.7425367252e-10 0 0 -1.7425367252e-10 0 0 -8.9019973083e-09 
0 0 -1.7425367252e-10 0 0 -1.7425367252e-10 0 0 -1.7425367252e-10 
0 0 -8.9019973083e-09 0 0 -8.9019973083e-09 0 0 -1.7425367252e-10 
0 0 -1.7425367252e-10 0 0 -6.8918688838e-08 0 0 -5.3297119368e-07 

radius 1 648 double
2e-05 2e-05 2e-05 2e-05 2e-05 2e-05 2e-05 2e-05 2e-05 
2e-05 2e-05 2e-05 2e-05 2e-05 2e-05 2e-05 7.5e-05 2e-05 
2e-05 2e-05 2e-05 2e-05 2e-05 2e-05 2e-05 2e-05 2e-05 
2e-05 2e-05 2e-05 2e-05 2e-05 2e-05 2e-05 2e-05 2e-05 
2e-05 2e-05 2e-05 2e-05 2e-05 2e-05 2e-05 2e-05 2e-05 
2e-05 2e-05 2e-05 2e-05 2e-05 2e-05 2e-05 2e-05 2e-05 
2e-05 2e-05 2e-05 2e-05 2e-05 2e-05 2e-05 2e-05 2e-05 
2e-05 2e-05 2e-05 2e-05 2e-05 2e-05 2e-05 2e-05 2e-05 
2e-05 2e-05 2e-05 2e-05 2e-05 2e-05 2e-05 2e-05 2e-05 
2e-05 2e-05 2e-05 2e-05 2e-05 2e-05 2e-05 2e-05 2e-05 
2e-05 2e-05 2e-05 2e-05 2e-05 2e-05 2e-05 2e-05 2e-05 
2e-05 2e-05 2e-05 2e-05 2e-05 2e-05 2e-05 2e-05 2e-05 
2e-05 2e-05 2e-05 2e-05 2e-05 2e-05 2e-05 2e-05 2e-05 
2e-05 2e-05 2e-05 2e-05 2e-05 2e-05 2e-05 2e-05 2e-05 
2e-05 2e-05 2e-05 2e-05 2e-05 2e-05 2e-05 2e-05 2e-05 
2e-05 2e-05 2e-05 2e-05 2e-05 2e-05 2e-05 2e-05 2e-05 
2e-05 2e-05 2e-05 2e-05 2e-05 2e-05 2e-05 2e-05 2e-05 
2e-05 2e-05 2e-05 2e-05 2e-05 2e-05 2e-05 2e-05 2e-05 
2e-05 2e-05 2e-05 2e-05 2e-05 2e-05 2e-05 2e-05 2e-05 
2e-05 2e-05 2e-05 2e-05 2e-05 2e-05 2e-05 2e-05 2e-05 
2e-05 2e-05 2e-05 2e-05 2e-05 2e-05 2e-05 2e-05 2e-05 
2e-05 2e-05 2e-05 2e-05 2e-05 2e-05 2e-05 2e-05 2e-05 
2e-05 2e-05 2e-05 2e-05 2e-05 2e-05 2e-05 2e-05 2e-05 
2e-05 2e-05 2e-05 2e-05 2e-05 2e-05 2e-05 2e-05 2e-05 
2e-05 2e-05 2e-05 2e-05 2e-05 2e-05 2e-05 2e-05 2e-05 
2e-05 2e-05 2e-05 2e-05 7.5e-05 2e-05 2e-05 2e-05 2e-05 
2e-05 2e-05 2e-05 2e-05 2e-05 2e-05 2e-05 2e-05 2e-05 
2e-05 2e-05 2e-05 2e-05 2e-05 2e-05 2e-05 2e-05 2e-05 
2e-05 2e-05 2e-05 2e-05 2e-05 2e-05 2e-05 2e-05 2e-05 
2e-05 2e-05 2e-05 2e-05 2e-05 2e-05 2e-05 2e-05 2e-05 
2e-05 2e-05 2e-05 7.5e-05 2e-05 2e-05 2e-05 2e-05 2e-05 
2e-05 2e-05 2e-05 2e-05 2e-05 2e-05 2e-05 2e-05 2e-05 
2e-05 2e-05 2e-05 2e-05 2e-05 2e-05 2e-05 2e-05 2e-05 
2e-05 2e-05 2e-05 2e-05 2e-05 2e-05 2e-05 2e-05 2e-05 
2e-05 2e-05 2e-05 2e-05 2e-05 2e-05 2e-05 2e-05 2e-05 
2e-05 2e-05 2e-05 2e-05 2e-05 2e-05 2e-05 2e-05 2e-05 
2e-05 2e-05 2e-05 2e-05 2e-05 2e-05 2e-05 2e-05 2e-05 
2e-05 2e-05 2e-05 2e-05 2e-05 2e-05 2e-05 2e-05 2e-05 
2e-05 2e-05 2e-05 2e-05 2e-05 2e-05 2e-05 2e-05 2e-05 
2e-05 2e-05 2e-05 2e-05 2e-05 2e-05 7.5e-05 2e-05 2e-05 
2e-05 2e-05 2e-05 2e-05 2e-05 2e-05 2e-05 2e-05 2e-05 
2e-05 2e-05 2e-05 2e-05 2e-05 2e-05 2e-05 2e-05 2e-05 
2e-05 2e-05 2e-05 2e-05 2e-05 2e-05 2e-05 2e-05 2e-05 
2e-05 2e-05 2e-05 2e-05 2e-05 2e-05 2e-05 2e-05 2e-05 
2e-05 7.5e-05 2e-05 2e-05 2e-05 2e-05 2e-05 2e-05 2e-05 
2e-05 2e-05 2e-05 2e-05 2e-05 2e-05 2e-05 2e-05 2e-05 
2e-05 2e-05 2e-05 7.5e-05 2e-05 2e-05 2e-05 2e-05 2e-05 
2e-05 2e-05 2e-05 2e-05 2e-05 2e-05 2e-05 2e-05 2e-05 
2e-05 2e-05 2e-05 7.5e-05 2e-05 2e-05 2e-05 2e-05 2e-05 
2e-05 2e-05 2e-05 2e-05 2e-05 2e-05 2e-05 2e-05 2e-05 
2e-05 2e-05 2e-05 2e-05 2e-05 2e-05 2e-05 2e-05 2e-05 
2e-05 2e-05 2e-05 2e-05 2e-05 2e-05 2e-05 2e-05 2e-05 
2e-05 2e-05 2e-05 2e-05 2e-05 2e-05 7.5e-05 2e-05 2e-05 
2e-05 2e-05 2e-05 2e-05 2e-05 2e-05 2e-05 2e-05 2e-05 
2e-05 2e-05 2e-05 2e-05 2e-05 2e-05 2e-05 2e-05 2e-05 
2e-05 2e-05 2e-05 2e-05 2e-05 2e-05 2e-05 2e-05 7.5e-05 
2e-05 2e-05 2e-05 2e-05 2e-05 2e-05 2e-05 2e-05 2e-05 
2e-05 2e-05 2e-05 2e-05 2e-05 2e-05 2e-05 2e-05 2e-05 
2e-05 2e-05 2e-05 2e-05 2e-05 2e-05 2e-05 2e-05 2e-05 
2e-05 2e-05 2e-05 2e-05 2e-05 7.5e-05 2e-05 2e-05 2e-05 
7.5e-05 2e-05 2e-05 2e-05 2e-05 2e-05 2e-05 2e-05 2e-05 
2e-05 2e-05 2e-05 2e-05 2e-05 2e-05 2e-05 2e-05 2e-05 
2e-05 2e-05 2e-05 2e-05 7.5e-05 2e-05 2e-05 2e-05 2e-05 
2e-05 2e-05 2e-05 2e-05 2e-05 2e-05 2e-05 2e-05 2e-05 
2e-05 2e-05 2e-05 2e-05 2e-05 2e-05 2e-05 2e-05 2e-05 
2e-05 2e-05 2e-05 2e-05 2e-05 2e-05 2e-05 2e-05 2e-05 
2e-05 2e-05 2e-05 2e-05 2e-05 2e-05 2e-05 2e-05 2e-05 
2e-05 2e-05 2e-05 2e-05 2e-05 2e-05 2e-05 2e-05 2e-05 
2e-05 2e-05 2e-05 2e-05 2e-05 2e-05 2e-05 7.5e-05 2e-05 
2e-05 2e-05 2e-05 2e-05 2e-05 2e-05 2e-05 2e-05 2e-05 
2e-05 2e-05 2e-05 2e-05 7.5e-05 2e-05 2e-05 2e-05 7.5e-05 
2e-05 2e-05 2e-05 7.5e-05 7.5e-05 2e-05 2e-05 0.00015 0.0003 

omega 3 648 double
0 0 0 0 0 0 0 0 0 
0 0 0 0 0 0 0 0 0 
0 0 0 0 0 0 0 0 0 
0 0 0 0 0 0 0 0 0 
0 0 0 0 0 0 0 0 0 
0 0 0 0 0 0 0 0 0 
0 0 0 0 0 0 0 0 0 
0 0 0 0 0 0 0 0 0 
0 0 0 0 0 0 0 0 0 
0 0 0 0 0 0 0 0 0 
0 0 0 0 0 0 0 0 0 
0 0 0 0 0 0 0 0 0 
0 0 0 0 0 0 0 0 0 
0 0 0 0 0 0 0 0 0 
0 0 0 0 0 0 0 0 0 
0 0 0 0 0 0 0 0 0 
0 0 0 0 0 0 0 0 0 
0 0 0 0 0 0 0 0 0 
0 0 0 0 0 0 0 0 0 
0 0 0 0 0 0 0 0 0 
0 0 0 0 0 0 0 0 0 
0 0 0 0 0 0 0 0 0 
0 0 0 0 0 0 0 0 0 
0 0 0 0 0 0 0 0 0 
0 0 0 0 0 0 0 0 0 
0 0 0 0 0 0 0 0 0 
0 0 0 0 0 0 0 0 0 
0 0 0 0 0 0 0 0 0 
0 0 0 0 0 0 0 0 0 
0 0 0 0 0 0 0 0 0 
0 0 0 0 0 0 0 0 0 
0 0 0 0 0 0 0 0 0 
0 0 0 0 0 0 0 0 0 
0 0 0 0 0 0 0 0 0 
0 0 0 0 0 0 0 0 0 
0 0 0 0 0 0 0 0 0 
0 0 0 0 0 0 0 0 0 
0 0 0 0 0 0 0 0 0 
0 0 0 0 0 0 0 0 0 
0 0 0 0 0 0 0 0 0 
0 0 0 0 0 0 0 0 0 
0 0 0 0 0 0 0 0 0 
0 0 0 0 0 0 0 0 0 
0 0 0 0 0 0 0 0 0 
0 0 0 0 0 0 0 0 0 
0 0 0 0 0 0 0 0 0 
0 0 0 0 0 0 0 0 0 
0 0 0 0 0 0 0 0 0 
0 0 0 0 0 0 0 0 0 
0 0 0 0 0 0 0 0 0 
0 0 0 0 0 0 0 0 0 
0 0 0 0 0 0 0 0 0 
0 0 0 0 0 0 0 0 0 
0 0 0 0 0 0 0 0 0 
0 0 0 0 0 0 0 0 0 
0 0 0 0 0 0 0 0 0 
0 0 0 0 0 0 0 0 0 
0 0 0 0 0 0 0 0 0 
0 0 0 0 0 0 0 0 0 
0 0 0 0 0 0 0 0 0 
0 0 0 0 0 0 0 0 0 
0 0 0 0 0 0 0 0 0 
0 0 0 0 0 0 0 0 0 
0 0 0 0 0 0 0 0 0 
0 0 0 0 0 0 0 0 0 
0 0 0 0 0 0 0 0 0 
0 0 0 0 0 0 0 0 0 
0 0 0 0 0 0 0 0 0 
0 0 0 0 0 0 0 0 0 
0 0 0 0 0 0 0 0 0 
0 0 0 0 0 0 0 0 0 
0 0 0 0 0 0 0 0 0 
0 0 0 0 0 0 0 0 0 
0 0 0 0 0 0 0 0 0 
0 0 0 0 0 0 0 0 0 
0 0 0 0 0 0 0 0 0 
0 0 0 0 0 0 0 0 0 
0 0 0 0 0 0 0 0 0 
0 0 0 0 0 0 0 0 0 
0 0 0 0 0 0 0 0 0 
0 0 0 0 0 0 0 0 0 
0 0 0 0 0 0 0 0 0 
0 0 0 0 0 0 0 0 0 
0 0 0 0 0 0 0 0 0 
0 0 0 0 0 0 0 0 0 
0 0 0 0 0 0 0 0 0 
0 0 0 0 0 0 0 0 0 
0 0 0 0 0 0 0 0 0 
0 0 0 0 0 0 0 0 0 
0 0 0 0 0 0 0 0 0 
0 0 0 0 0 0 0 0 0 
0 0 0 0 0 0 0 0 0 
0 0 0 0 0 0 0 0 0 
0 0 0 0 0 0 0 0 0 
0 0 0 0 0 0 0 0 0 
0 0 0 0 0 0 0 0 0 
0 0 0 0 0 0 0 0 0 
0 0 0 0 0 0 0 0 0 
0 0 0 0 0 0 0 0 0 
0 0 0 0 0 0 0 0 0 
0 0 0 0 0 0 0 0 0 
0 0 0 0 0 0 0 0 0 
0 0 0 0 0 0 0 0 0 
0 0 0 0 0 0 0 0 0 
0 0 0 0 0 0 0 0 0 
0 0 0 0 0 0 0 0 0 
0 0 0 0 0 0 0 0 0 
0 0 0 0 0 0 0 0 0 
0 0 0 0 0 0 0 0 0 
0 0 0 0 0 0 0 0 0 
0 0 0 0 0 0 0 0 0 
0 0 0 0 0 0 0 0 0 
0 0 0 0 0 0 0 0 0 
0 0 0 0 0 0 0 0 0 
0 0 0 0 0 0 0 0 0 
0 0 0 0 0 0 0 0 0 
0 0 0 0 0 0 0 0 0 
0 0 0 0 0 0 0 0 0 
0 0 0 0 0 0 0 0 0 
0 0 0 0 0 0 0 0 0 
0 0 0 0 0 0 0 0 0 
0 0 0 0 0 0 0 0 0 
0 0 0 0 0 0 0 0 0 
0 0 0 0 0 0 0 0 0 
0 0 0 0 0 0 0 0 0 
0 0 0 0 0 0 0 0 0 
0 0 0 0 0 0 0 0 0 
0 0 0 0 0 0 0 0 0 
0 0 0 0 0 0 0 0 0 
0 0 0 0 0 0 0 0 0 
0 0 0 0 0 0 0 0 0 
0 0 0 0 0 0 0 0 0 
0 0 0 0 0 0 0 0 0 
0 0 0 0 0 0 0 0 0 
0 0 0 0 0 0 0 0 0 
0 0 0 0 0 0 0 0 0 
0 0 0 0 0 0 0 0 0 
0 0 0 0 0 0 0 0 0 
0 0 0 0 0 0 0 0 0 
0 0 0 0 0 0 0 0 0 
0 0 0 0 0 0 0 0 0 
0 0 0 0 0 0 0 0 0 
0 0 0 0 0 0 0 0 0 
0 0 0 0 0 0 0 0 0 
0 0 0 0 0 0 0 0 0 
0 0 0 0 0 0 0 0 0 
0 0 0 0 0 0 0 0 0 
0 0 0 0 0 0 0 0 0 
0 0 0 0 0 0 0 0 0 
0 0 0 0 0 0 0 0 0 
0 0 0 0 0 0 0 0 0 
0 0 0 0 0 0 0 0 0 
0 0 0 0 0 0 0 0 0 
0 0 0 0 0 0 0 0 0 
0 0 0 0 0 0 0 0 0 
0 0 0 0 0 0 0 0 0 
0 0 0 0 0 0 0 0 0 
0 0 0 0 0 0 0 0 0 
0 0 0 0 0 0 0 0 0 
0 0 0 0 0 0 0 0 0 
0 0 0 0 0 0 0 0 0 
0 0 0 0 0 0 0 0 0 
0 0 0 0 0 0 0 0 0 
0 0 0 0 0 0 0 0 0 
0 0 0 0 0 0 0 0 0 
0 0 0 0 0 0 0 0 0 
0 0 0 0 0 0 0 0 0 
0 0 0 0 0 0 0 0 0 
0 0 0 0 0 0 0 0 0 
0 0 0 0 0 0 0 0 0 
0 0 0 0 0 0 0 0 0 
0 0 0 0 0 0 0 0 0 
0 0 0 0 0 0 0 0 0 
0 0 0 0 0 0 0 0 0 
0 0 0 0 0 0 0 0 0 
0 0 0 0 0 0 0 0 0 
0 0 0 0 0 0 0 0 0 
0 0 0 0 0 0 0 0 0 
0 0 0 0 0 0 0 0 0 
0 0 0 0 0 0 0 0 0 
0 0 0 0 0 0 0 0 0 
0 0 0 0 0 0 0 0 0 
0 0 0 0 0 0 0 0 0 
0 0 0 0 0 0 0 0 0 
0 0 0 0 0 0 0 0 0 
0 0 0 0 0 0 0 0 0 
0 0 0 0 0 0 0 0 0 
0 0 0 0 0 0 0 0 0 
0 0 0 0 0 0 0 0 0 
0 0 0 0 0 0 0 0 0 
0 0 0 0 0 0 0 0 0 
0 0 0 0 0 0 0 0 0 
0 0 0 0 0 0 0 0 0 
0 0 0 0 0 0 0 0 0 
0 0 0 0 0 0 0 0 0 
0 0 0 0 0 0 0 0 0 
0 0 0 0 0 0 0 0 0 
0 0 0 0 0 0 0 0 0 
0 0 0 0 0 0 0 0 0 
0 0 0 0 0 0 0 0 0 
0 0 0 0 0 0 0 0 0 
0 0 0 0 0 0 0 0 0 
0 0 0 0 0 0 0 0 0 
0 0 0 0 0 0 0 0 0 
0 0 0 0 0 0 0 0 0 
0 0 0 0 0 0 0 0 0 
0 0 0 0 0 0 0 0 0 
0 0 0 0 0 0 0 0 0 
0 0 0 0 0 0 0 0 0 
0 0 0 0 0 0 0 0 0 
0 0 0 0 0 0 0 0 0 
0 0 0 0 0 0 0 0 0 
0 0 0 0 0 0 0 0 0 
0 0 0 0 0 0 0 0 0 
0 0 0 0 0 0 0 0 0 
0 0 0 0 0 0 0 0 0 

fx_mag_viz 1 648 double
0 0 0 0 0 0 0 0 0 
0 0 0 0 0 0 0 0 0 
0 0 0 0 0 0 0 0 0 
0 0 0 0 0 0 0 0 0 
0 0 0 0 0 0 0 0 0 
0 0 0 0 0 0 0 0 0 
0 0 0 0 0 0 0 0 0 
0 0 0 0 0 0 0 0 0 
0 0 0 0 0 0 0 0 0 
0 0 0 0 0 0 0 0 0 
0 0 0 0 0 0 0 0 0 
0 0 0 0 0 0 0 0 0 
0 0 0 0 0 0 0 0 0 
0 0 0 0 0 0 0 0 0 
0 0 0 0 0 0 0 0 0 
0 0 0 0 0 0 0 0 0 
0 0 0 0 0 0 0 0 0 
0 0 0 0 0 0 0 0 0 
0 0 0 0 0 0 0 0 0 
0 0 0 0 0 0 0 0 0 
0 0 0 0 0 0 0 0 0 
0 0 0 0 0 0 0 0 0 
0 0 0 0 0 0 0 0 0 
0 0 0 0 0 0 0 0 0 
0 0 0 0 0 0 0 0 0 
0 0 0 0 0 0 0 0 0 
0 0 0 0 0 0 0 0 0 
0 0 0 0 0 0 0 0 0 
0 0 0 0 0 0 0 0 0 
0 0 0 0 0 0 0 0 0 
0 0 0 0 0 0 0 0 0 
0 0 0 0 0 0 0 0 0 
0 0 0 0 0 0 0 0 0 
0 0 0 0 0 0 0 0 0 
0 0 0 0 0 0 0 0 0 
0 0 0 0 0 0 0 0 0 
0 0 0 0 0 0 0 0 0 
0 0 0 0 0 0 0 0 0 
0 0 0 0 0 0 0 0 0 
0 0 0 0 0 0 0 0 0 
0 0 0 0 0 0 0 0 0 
0 0 0 0 0 0 0 0 0 
0 0 0 0 0 0 0 0 0 
0 0 0 0 0 0 0 0 0 
0 0 0 0 0 0 0 0 0 
0 0 0 0 0 0 0 0 0 
0 0 0 0 0 0 0 0 0 
0 0 0 0 0 0 0 0 0 
0 0 0 0 0 0 0 0 0 
0 0 0 0 0 0 0 0 0 
0 0 0 0 0 0 0 0 0 
0 0 0 0 0 0 0 0 0 
0 0 0 0 0 0 0 0 0 
0 0 0 0 0 0 0 0 0 
0 0 0 0 0 0 0 0 0 
0 0 0 0 0 0 0 0 0 
0 0 0 0 0 0 0 0 0 
0 0 0 0 0 0 0 0 0 
0 0 0 0 0 0 0 0 0 
0 0 0 0 0 0 0 0 0 
0 0 0 0 0 0 0 0 0 
0 0 0 0 0 0 0 0 0 
0 0 0 0 0 0 0 0 0 
0 0 0 0 0 0 0 0 0 
0 0 0 0 0 0 0 0 0 
0 0 0 0 0 0 0 0 0 
0 0 0 0 0 0 0 0 0 
0 0 0 0 0 0 0 0 0 
0 0 0 0 0 0 0 0 0 
0 0 0 0 0 0 0 0 0 
0 0 0 0 0 0 0 0 0 
0 0 0 0 0 0 0 0 0 

fy_mag_viz 1 648 double
0 0 0 0 0 0 0 0 0 
0 0 0 0 0 0 0 0 0 
0 0 0 0 0 0 0 0 0 
0 0 0 0 0 0 0 0 0 
0 0 0 0 0 0 0 0 0 
0 0 0 0 0 0 0 0 0 
0 0 0 0 0 0 0 0 0 
0 0 0 0 0 0 0 0 0 
0 0 0 0 0 0 0 0 0 
0 0 0 0 0 0 0 0 0 
0 0 0 0 0 0 0 0 0 
0 0 0 0 0 0 0 0 0 
0 0 0 0 0 0 0 0 0 
0 0 0 0 0 0 0 0 0 
0 0 0 0 0 0 0 0 0 
0 0 0 0 0 0 0 0 0 
0 0 0 0 0 0 0 0 0 
0 0 0 0 0 0 0 0 0 
0 0 0 0 0 0 0 0 0 
0 0 0 0 0 0 0 0 0 
0 0 0 0 0 0 0 0 0 
0 0 0 0 0 0 0 0 0 
0 0 0 0 0 0 0 0 0 
0 0 0 0 0 0 0 0 0 
0 0 0 0 0 0 0 0 0 
0 0 0 0 0 0 0 0 0 
0 0 0 0 0 0 0 0 0 
0 0 0 0 0 0 0 0 0 
0 0 0 0 0 0 0 0 0 
0 0 0 0 0 0 0 0 0 
0 0 0 0 0 0 0 0 0 
0 0 0 0 0 0 0 0 0 
0 0 0 0 0 0 0 0 0 
0 0 0 0 0 0 0 0 0 
0 0 0 0 0 0 0 0 0 
0 0 0 0 0 0 0 0 0 
0 0 0 0 0 0 0 0 0 
0 0 0 0 0 0 0 0 0 
0 0 0 0 0 0 0 0 0 
0 0 0 0 0 0 0 0 0 
0 0 0 0 0 0 0 0 0 
0 0 0 0 0 0 0 0 0 
0 0 0 0 0 0 0 0 0 
0 0 0 0 0 0 0 0 0 
0 0 0 0 0 0 0 0 0 
0 0 0 0 0 0 0 0 0 
0 0 0 0 0 0 0 0 0 
0 0 0 0 0 0 0 0 0 
0 0 0 0 0 0 0 0 0 
0 0 0 0 0 0 0 0 0 
0 0 0 0 0 0 0 0 0 
0 0 0 0 0 0 0 0 0 
0 0 0 0 0 0 0 0 0 
0 0 0 0 0 0 0 0 0 
0 0 0 0 0 0 0 0 0 
0 0 0 0 0 0 0 0 0 
0 0 0 0 0 0 0 0 0 
0 0 0 0 0 0 0 0 0 
0 0 0 0 0 0 0 0 0 
0 0 0 0 0 0 0 0 0 
0 0 0 0 0 0 0 0 0 
0 0 0 0 0 0 0 0 0 
0 0 0 0 0 0 0 0 0 
0 0 0 0 0 0 0 0 0 
0 0 0 0 0 0 0 0 0 
0 0 0 0 0 0 0 0 0 
0 0 0 0 0 0 0 0 0 
0 0 0 0 0 0 0 0 0 
0 0 0 0 0 0 0 0 0 
0 0 0 0 0 0 0 0 0 
0 0 0 0 0 0 0 0 0 
0 0 0 0 0 0 0 0 0 

fz_mag_viz 1 648 double
0 0 0 0 0 0 0 0 0 
0 0 0 0 0 0 0 0 0 
0 0 0 0 0 0 0 0 0 
0 0 0 0 0 0 0 0 0 
0 0 0 0 0 0 0 0 0 
0 0 0 0 0 0 0 0 0 
0 0 0 0 0 0 0 0 0 
0 0 0 0 0 0 0 0 0 
0 0 0 0 0 0 0 0 0 
0 0 0 0 0 0 0 0 0 
0 0 0 0 0 0 0 0 0 
0 0 0 0 0 0 0 0 0 
0 0 0 0 0 0 0 0 0 
0 0 0 0 0 0 0 0 0 
0 0 0 0 0 0 0 0 0 
0 0 0 0 0 0 0 0 0 
0 0 0 0 0 0 0 0 0 
0 0 0 0 0 0 0 0 0 
0 0 0 0 0 0 0 0 0 
0 0 0 0 0 0 0 0 0 
0 0 0 0 0 0 0 0 0 
0 0 0 0 0 0 0 0 0 
0 0 0 0 0 0 0 0 0 
0 0 0 0 0 0 0 0 0 
0 0 0 0 0 0 0 0 0 
0 0 0 0 0 0 0 0 0 
0 0 0 0 0 0 0 0 0 
0 0 0 0 0 0 0 0 0 
0 0 0 0 0 0 0 0 0 
0 0 0 0 0 0 0 0 0 
0 0 0 0 0 0 0 0 0 
0 0 0 0 0 0 0 0 0 
0 0 0 0 0 0 0 0 0 
0 0 0 0 0 0 0 0 0 
0 0 0 0 0 0 0 0 0 
0 0 0 0 0 0 0 0 0 
0 0 0 0 0 0 0 0 0 
0 0 0 0 0 0 0 0 0 
0 0 0 0 0 0 0 0 0 
0 0 0 0 0 0 0 0 0 
0 0 0 0 0 0 0 0 0 
0 0 0 0 0 0 0 0 0 
0 0 0 0 0 0 0 0 0 
0 0 0 0 0 0 0 0 0 
0 0 0 0 0 0 0 0 0 
0 0 0 0 0 0 0 0 0 
0 0 0 0 0 0 0 0 0 
0 0 0 0 0 0 0 0 0 
0 0 0 0 0 0 0 0 0 
0 0 0 0 0 0 0 0 0 
0 0 0 0 0 0 0 0 0 
0 0 0 0 0 0 0 0 0 
0 0 0 0 0 0 0 0 0 
0 0 0 0 0 0 0 0 0 
0 0 0 0 0 0 0 0 0 
0 0 0 0 0 0 0 0 0 
0 0 0 0 0 0 0 0 0 
0 0 0 0 0 0 0 0 0 
0 0 0 0 0 0 0 0 0 
0 0 0 0 0 0 0 0 0 
0 0 0 0 0 0 0 0 0 
0 0 0 0 0 0 0 0 0 
0 0 0 0 0 0 0 0 0 
0 0 0 0 0 0 0 0 0 
0 0 0 0 0 0 0 0 0 
0 0 0 0 0 0 0 0 0 
0 0 0 0 0 0 0 0 0 
0 0 0 0 0 0 0 0 0 
0 0 0 0 0 0 0 0 0 
0 0 0 0 0 0 0 0 0 
0 0 0 0 0 0 0 0 0 
0 0 0 0 0 0 0 0 0 

B_magnitude 1 648 double
0 0 0 0 0 0 0 0 0 
0 0 0 0 0 0 0 0 0 
0 0 0 0 0 0 0 0 0 
0 0 0 0 0 0 0 0 0 
0 0 0 0 0 0 0 0 0 
0 0 0 0 0 0 0 0 0 
0 0 0 0 0 0 0 0 0 
0 0 0 0 0 0 0 0 0 
0 0 0 0 0 0 0 0 0 
0 0 0 0 0 0 0 0 0 
0 0 0 0 0 0 0 0 0 
0 0 0 0 0 0 0 0 0 
0 0 0 0 0 0 0 0 0 
0 0 0 0 0 0 0 0 0 
0 0 0 0 0 0 0 0 0 
0 0 0 0 0 0 0 0 0 
0 0 0 0 0 0 0 0 0 
0 0 0 0 0 0 0 0 0 
0 0 0 0 0 0 0 0 0 
0 0 0 0 0 0 0 0 0 
0 0 0 0 0 0 0 0 0 
0 0 0 0 0 0 0 0 0 
0 0 0 0 0 0 0 0 0 
0 0 0 0 0 0 0 0 0 
0 0 0 0 0 0 0 0 0 
0 0 0 0 0 0 0 0 0 
0 0 0 0 0 0 0 0 0 
0 0 0 0 0 0 0 0 0 
0 0 0 0 0 0 0 0 0 
0 0 0 0 0 0 0 0 0 
0 0 0 0 0 0 0 0 0 
0 0 0 0 0 0 0 0 0 
0 0 0 0 0 0 0 0 0 
0 0 0 0 0 0 0 0 0 
0 0 0 0 0 0 0 0 0 
0 0 0 0 0 0 0 0 0 
0 0 0 0 0 0 0 0 0 
0 0 0 0 0 0 0 0 0 
0 0 0 0 0 0 0 0 0 
0 0 0 0 0 0 0 0 0 
0 0 0 0 0 0 0 0 0 
0 0 0 0 0 0 0 0 0 
0 0 0 0 0 0 0 0 0 
0 0 0 0 0 0 0 0 0 
0 0 0 0 0 0 0 0 0 
0 0 0 0 0 0 0 0 0 
0 0 0 0 0 0 0 0 0 
0 0 0 0 0 0 0 0 0 
0 0 0 0 0 0 0 0 0 
0 0 0 0 0 0 0 0 0 
0 0 0 0 0 0 0 0 0 
0 0 0 0 0 0 0 0 0 
0 0 0 0 0 0 0 0 0 
0 0 0 0 0 0 0 0 0 
0 0 0 0 0 0 0 0 0 
0 0 0 0 0 0 0 0 0 
0 0 0 0 0 0 0 0 0 
0 0 0 0 0 0 0 0 0 
0 0 0 0 0 0 0 0 0 
0 0 0 0 0 0 0 0 0 
0 0 0 0 0 0 0 0 0 
0 0 0 0 0 0 0 0 0 
0 0 0 0 0 0 0 0 0 
0 0 0 0 0 0 0 0 0 
0 0 0 0 0 0 0 0 0 
0 0 0 0 0 0 0 0 0 
0 0 0 0 0 0 0 0 0 
0 0 0 0 0 0 0 0 0 
0 0 0 0 0 0 0 0 0 
0 0 0 0 0 0 0 0 0 
0 0 0 0 0 0 0 0 0 
0 0 0 0 0 0 0 0 0 

B_gradient_mag 1 648 double
0 0 0 0 0 0 0 0 0 
0 0 0 0 0 0 0 0 0 
0 0 0 0 0 0 0 0 0 
0 0 0 0 0 0 0 0 0 
0 0 0 0 0 0 0 0 0 
0 0 0 0 0 0 0 0 0 
0 0 0 0 0 0 0 0 0 
0 0 0 0 0 0 0 0 0 
0 0 0 0 0 0 0 0 0 
0 0 0 0 0 0 0 0 0 
0 0 0 0 0 0 0 0 0 
0 0 0 0 0 0 0 0 0 
0 0 0 0 0 0 0 0 0 
0 0 0 0 0 0 0 0 0 
0 0 0 0 0 0 0 0 0 
0 0 0 0 0 0 0 0 0 
0 0 0 0 0 0 0 0 0 
0 0 0 0 0 0 0 0 0 
0 0 0 0 0 0 0 0 0 
0 0 0 0 0 0 0 0 0 
0 0 0 0 0 0 0 0 0 
0 0 0 0 0 0 0 0 0 
0 0 0 0 0 0 0 0 0 
0 0 0 0 0 0 0 0 0 
0 0 0 0 0 0 0 0 0 
0 0 0 0 0 0 0 0 0 
0 0 0 0 0 0 0 0 0 
0 0 0 0 0 0 0 0 0 
0 0 0 0 0 0 0 0 0 
0 0 0 0 0 0 0 0 0 
0 0 0 0 0 0 0 0 0 
0 0 0 0 0 0 0 0 0 
0 0 0 0 0 0 0 0 0 
0 0 0 0 0 0 0 0 0 
0 0 0 0 0 0 0 0 0 
0 0 0 0 0 0 0 0 0 
0 0 0 0 0 0 0 0 0 
0 0 0 0 0 0 0 0 0 
0 0 0 0 0 0 0 0 0 
0 0 0 0 0 0 0 0 0 
0 0 0 0 0 0 0 0 0 
0 0 0 0 0 0 0 0 0 
0 0 0 0 0 0 0 0 0 
0 0 0 0 0 0 0 0 0 
0 0 0 0 0 0 0 0 0 
0 0 0 0 0 0 0 0 0 
0 0 0 0 0 0 0 0 0 
0 0 0 0 0 0 0 0 0 
0 0 0 0 0 0 0 0 0 
0 0 0 0 0 0 0 0 0 
0 0 0 0 0 0 0 0 0 
0 0 0 0 0 0 0 0 0 
0 0 0 0 0 0 0 0 0 
0 0 0 0 0 0 0 0 0 
0 0 0 0 0 0 0 0 0 
0 0 0 0 0 0 0 0 0 
0 0 0 0 0 0 0 0 0 
0 0 0 0 0 0 0 0 0 
0 0 0 0 0 0 0 0 0 
0 0 0 0 0 0 0 0 0 
0 0 0 0 0 0 0 0 0 
0 0 0 0 0 0 0 0 0 
0 0 0 0 0 0 0 0 0 
0 0 0 0 0 0 0 0 0 
0 0 0 0 0 0 0 0 0 
0 0 0 0 0 0 0 0 0 
0 0 0 0 0 0 0 0 0 
0 0 0 0 0 0 0 0 0 
0 0 0 0 0 0 0 0 0 
0 0 0 0 0 0 0 0 0 
0 0 0 0 0 0 0 0 0 
0 0 0 0 0 0 0 0 0 

