# vtk DataFile Version 5.1
Generated by LIGGGHTS
ASCII
DATASET POLYDATA
POINTS 648 float
-0.0248652 -0.040212 0.00153017 -0.00302782 -0.0385948 0.00154127 0.00517921 0.0169249 0.00153015 
0.000162142 0.0251126 0.00142234 -0.00563177 0.0268155 0.00125386 0.0038092 0.0311583 0.00129544 
0.01325 0.0319187 0.00137236 0.0165329 0.0385374 0.00126395 -0.0335565 -0.0442122 0.00201194 
-0.00674967 -0.0416523 0.0012709 0.0156715 -0.0391733 0.00204014 0.00594186 -0.0351889 0.00141053 
-0.0266532 -0.0301716 0.00170423 -0.0105296 -0.0314142 0.00245883 0.033456 -0.0256735 0.00191685 
0.039775 -0.0211058 0.00194965 0.00156248 -0.0194187 0.00160919 -0.0100897 -0.0180162 0.00281003 
-0.0388614 -0.0136303 0.00189457 -0.0117656 -0.0138394 0.00286036 0.00689113 -0.0107816 0.00220319 
0.0286804 -0.00919085 0.00131275 0.0350526 -0.0102353 0.00178133 -0.0198564 -0.00683511 0.00238914 
0.00937085 -0.00418454 0.00285284 0.021323 -0.00444137 0.00234033 -0.0260142 0.00017485 0.00108138 
0.0292006 0.00433004 0.00186626 0.0305447 0.00486582 0.00159875 0.0246705 0.0064451 0.00259928 
-0.0426568 0.00723228 0.00229226 0.0340899 0.00882812 0.00224009 0.0212596 0.00979192 0.00235562 
0.0398091 0.011618 0.00241056 8.23501e-07 0.0138406 0.00108652 0.0143092 0.0139794 0.00242872 
0.0248423 0.0143007 0.00252199 -0.0360536 0.0173104 0.00163683 0.0215224 0.0171285 0.00114161 
0.0090081 0.0191686 0.00167059 -0.0153727 0.020636 0.00108787 0.0123926 0.0218243 0.00256486 
-0.00782209 0.0241861 0.00208692 0.0307708 0.0242663 0.00232949 -0.0200898 0.0311527 0.00225006 
-0.0073504 0.0318329 0.00208322 -0.0428902 -0.0449088 0.00323139 -0.042922 -0.0404536 0.00412301 
0.00798734 -0.0367051 0.0032413 0.0308099 -0.0378456 0.00338583 0.0333162 -0.0342631 0.00327953 
0.0280204 -0.0311414 0.00412237 0.00577088 -0.0287415 0.0024872 0.000892701 -0.0263701 0.00380263 
-0.0408326 -0.0234295 0.00231609 -0.0108877 -0.0188832 0.00224741 0.0030191 -0.0179247 0.00192049 
-0.0257955 -0.0157834 0.00354569 -0.00444012 -0.0151621 0.00300346 -0.0269092 -0.0125643 0.00273338 
0.013874 -0.00963069 0.00407398 0.0109664 -0.00760095 0.00307863 -0.0129003 -0.00574839 0.00345764 
0.0180565 -0.00487531 0.00338886 -0.0179231 -0.00300678 0.00375519 -0.0141425 -0.00311887 0.00298537 
0.0384376 0.000848974 0.00308238 0.00417698 0.0024455 0.00275734 0.0188762 0.00181355 0.00190078 
0.0449494 0.00392273 0.00344157 -0.0287984 0.00559412 0.00195049 0.021602 0.00540593 0.00332885 
0.0221269 0.00728552 0.00380596 -0.0214351 0.00957734 0.00413683 -0.0310202 0.0131063 0.00350084 
-0.022709 0.0198803 0.00363388 -0.0282566 0.021284 0.00186765 0.03506 0.0228899 0.00303392 
0.0181332 0.0246356 0.00365723 0.0167463 0.0251763 0.00324093 0.0364634 0.0310238 0.00395219 
-0.0264781 0.032823 0.00404913 0.0297434 0.0373158 0.00370838 0.0251972 0.0393087 0.00218698 
-0.0390027 0.0421086 0.00342532 -0.0308094 -0.0435702 0.00444559 -0.0334706 -0.0396012 0.00362181 
0.0336491 -0.0197505 0.00367745 -0.0339565 -0.0167518 0.00368426 -0.0112192 -0.0104501 0.00430592 
0.00743742 -0.00926665 0.00431887 -0.0214415 -0.007536 0.00339809 -0.00433253 -0.00676057 0.00474994 
0.0287781 0.014071 0.00314552 -0.0313244 0.0314049 0.00339055 -0.041477 0.0364172 0.00420859 
-0.0240719 -0.0268296 0.00512849 -0.0426154 -0.0165053 0.00480432 0.0223879 -0.0163393 0.00481173 
-0.00702036 -0.00121172 0.00479309 -0.00783961 -0.000387029 0.00519459 -0.00967086 0.00179773 0.00470958 
-0.034865 0.0142961 0.00445327 -0.0386663 0.0253433 0.00523319 -0.0267569 0.0263983 0.0056712 
0.0221021 0.0401282 0.00508674 0.0414821 -0.0410789 0.00688567 -0.0232422 -0.0321576 0.00679874 
0.0436787 -0.0219137 0.00614142 0.0277003 -0.0107969 0.00599055 0.0444958 0.0309554 0.0067148 
-0.0439713 -0.0357399 0.00822293 0.0404767 -0.0183151 0.00699353 0.0251729 -0.00985964 0.00779584 
0.0228765 0.00606581 0.00713804 0.030759 0.00580352 0.00818298 0.0399323 0.0117688 0.00739785 
0.00395304 0.0187088 0.00800376 -0.00739359 0.0259593 0.00751799 -0.0357156 0.0282031 0.00803326 
0.0191509 0.0299648 0.00736715 0.00284552 0.0345861 0.0070405 -0.0112537 0.0395394 0.00775564 
-0.0205282 0.0432397 0.00785866 -0.044759 -0.0437614 0.00954141 0.0244271 -0.0334586 0.00886162 
0.0268369 -0.0315202 0.00891277 -0.0448384 -0.0296834 0.00858693 0.00623721 -0.0211799 0.00849961 
-0.0329121 -0.0139828 0.00894347 0.0176437 -0.0119747 0.00926923 -0.0170872 0.00564833 0.00939727 
0.0011249 0.00615697 0.00854497 0.0163992 0.0415262 0.00892696 -0.0370475 -0.0370945 0.00997386 
0.023158 -0.0340207 0.0107628 0.032808 -0.025967 0.0104098 -0.0317771 -0.0175651 0.0106658 
0.0268005 -0.0146468 0.00960554 -0.038829 -0.00978443 0.010462 -0.0304645 -0.00701594 0.0104609 
-0.042786 -0.00359954 0.0100798 -0.00279986 0.0127222 0.00988897 0.014866 0.0127598 0.0107783 
0.0418335 0.0161761 0.0100844 -0.0214239 0.0189608 0.0107138 0.00128112 0.0217131 0.0101091 
0.0226957 0.0260881 0.0106534 -0.0409258 0.0305044 0.0107888 -0.00435696 0.0325462 0.0106733 
0.00805094 0.0422278 0.0101337 -0.027409 -0.0433703 0.0119986 0.0244803 -0.0401788 0.0112066 
0.040047 -0.0404588 0.0111058 0.00879071 -0.0344865 0.0118221 -0.0427235 -0.0332389 0.0111682 
-0.00580099 -0.0272788 0.0119281 0.039455 -0.000236508 0.0117346 0.0142017 0.0079404 0.011283 
0.0202046 0.00840095 0.0115894 -0.0408092 0.00981999 0.0114665 -0.0392616 0.00972366 0.0120756 
0.00953871 0.0271324 0.0116677 -0.00670669 -0.0394183 0.0127811 -0.0262624 -0.032473 0.0123961 
-0.0222502 -0.00974669 0.0133564 -0.00553214 -0.00871323 0.0128607 0.0147261 0.00139147 0.0126403 
-0.037077 0.00611456 0.0133166 -0.0429188 0.0135204 0.0133605 0.0226738 0.0181095 0.0123765 
0.0146363 0.0223077 0.0124801 -0.0312382 0.0393096 0.0127831 0.0399235 0.0434757 0.0125811 
-0.00340304 -0.0448428 0.013546 -0.0338231 -0.0250135 0.0135569 0.0363266 -0.0194176 0.0138028 
-0.0204621 -0.0172006 0.0145514 0.0249316 -0.014475 0.0144505 -0.0101256 0.00978275 0.0141573 
-0.0431379 0.0208085 0.0140054 -0.0114472 0.026715 0.013834 0.000822496 -0.0363122 0.0157278 
-0.0240024 -0.0280603 0.0158095 0.0198229 -0.0156851 0.0153555 -0.0196799 -0.00931279 0.0150339 
-0.0135858 -0.00672635 0.0152403 -0.00723413 0.00605583 0.0152305 0.0336082 0.013194 0.0156724 
-0.0349287 0.0230684 0.0149464 -0.0375088 0.0393741 0.0156644 -0.0346971 -0.0446764 0.0170049 
0.0248068 -0.0428986 0.0168494 0.0418836 -0.0421436 0.0164969 0.0238162 -0.0409762 0.0165576 
0.00802514 -0.031483 0.0168639 0.0306875 -0.0259396 0.0167934 0.00538025 -0.0241403 0.0172866 
-0.0416237 0.00110806 0.0171295 0.0362421 0.00170773 0.0163143 0.0404406 0.00462082 0.0164309 
0.0197977 0.00963841 0.0169154 0.00976298 0.0163696 0.0171365 0.0388885 0.0193682 0.0163131 
0.0238959 0.0383247 0.0167182 -0.0248654 -0.0427111 0.017968 -0.018434 -0.0405477 0.0178374 
-0.0108246 -0.0388127 0.0182405 0.0397687 -0.0374633 0.0178664 0.03382 -0.0268981 0.0176871 
-0.00747582 -0.00609419 0.018302 0.0128044 0.0127337 0.018485 0.0261916 0.0119357 0.0177455 
-0.00307286 0.0144526 0.0180778 0.0122157 0.0191756 0.0176994 0.0311732 0.0371467 0.0183487 
0.0424299 -0.0409921 0.0186855 0.0102479 -0.024092 0.0188228 -0.0225401 -0.0213878 0.0187382 
-0.00827992 -0.020547 0.0193231 -0.0296942 -0.0196153 0.0191205 0.0403752 -0.0143085 0.019836 
0.00523139 -0.00599236 0.0193805 0.0283387 0.00890506 0.0199678 -0.0421793 0.0225172 0.0190333 
-0.0190887 0.0269029 0.0194188 -0.0376379 0.0294143 0.0193976 0.00372347 0.0304157 0.0195048 
-0.00973825 0.0391656 0.0189095 0.0222253 0.0407186 0.0197459 -0.0181988 0.0434549 0.0197232 
0.0145521 -0.0432303 0.0206617 0.00548761 -0.0197918 0.0211869 0.0313953 -0.00974065 0.0209973 
0.0406218 -0.0100941 0.0211495 0.0131353 -0.00504642 0.0211486 0.0290986 -0.000251763 0.0208011 
0.0407777 0.000744206 0.0203073 0.00861143 0.0123591 0.020768 -0.0196462 0.0155185 0.0210345 
0.0121458 0.0151918 0.0205636 -0.0245447 0.0378537 0.0200663 0.0352379 0.0438995 0.0209385 
0.0348044 -0.042095 0.0216414 -0.0168273 -0.0360331 0.0223636 -0.0376897 -0.0314333 0.0220889 
0.0394323 -0.021923 0.022044 0.0323225 0.00436429 0.0221354 0.0250346 0.00641518 0.0216876 
-0.00867948 0.0139924 0.0218225 -0.023041 0.0197144 0.0216725 0.00519606 0.0301696 0.0219207 
0.00390562 0.0317225 0.0217353 0.00317215 0.0343196 0.0214503 -0.0263426 -0.0292431 0.0226332 
-0.0430551 -0.0267583 0.0236722 0.0233461 -0.0214624 0.0227392 -0.0186412 -0.0134353 0.0236817 
0.0161928 -0.00760918 0.0233978 -0.0127911 0.0299546 0.023549 -0.0108954 0.0304 0.0231763 
0.0231674 0.0340949 0.023247 0.0181024 -0.0433049 0.025075 -0.0120059 -0.00345367 0.0244656 
-0.00896956 -0.00131708 0.0242762 0.0116524 0.00206193 0.0249447 0.0441199 0.0136981 0.0246805 
0.000954082 0.0152563 0.024008 0.0405446 0.0433429 0.0243066 0.0131812 -0.0427533 0.0252833 
0.00985621 -0.0367022 0.026071 0.0449741 -0.0303513 0.0259747 -0.0327621 -0.0121928 0.0253674 
0.0387156 -0.00624884 0.0255983 0.00975646 -0.00313231 0.0252639 0.0311878 0.014057 0.0258317 
0.0407412 0.0174253 0.0264111 0.00126512 0.0228658 0.0258535 0.026696 0.03017 0.0259619 
0.0193546 0.0324404 0.0254343 -0.00585061 0.0388609 0.0254671 0.0352701 0.0439749 0.025313 
-0.0220587 -0.0306349 0.0275811 -0.0414327 -0.0290659 0.0275945 0.00558373 -0.0242787 0.0271499 
-0.0127621 -0.0231756 0.027234 0.035159 -0.023363 0.0275181 0.038292 -0.016257 0.02698 
0.0323803 -0.0150629 0.0266468 -0.00254943 -0.00825679 0.0271466 -0.0344646 -0.00725539 0.0274704 
0.0180458 -0.00470109 0.0275406 -0.0107529 -0.00365687 0.0276651 -0.0325416 0.00283857 0.0269961 
0.00243665 0.00282786 0.0269976 -0.025141 0.00447188 0.0276044 -0.00841171 0.0143034 0.026756 
-0.0122989 0.0222019 0.0267321 0.0362273 0.0220011 0.027482 0.021223 0.0244832 0.027359 
0.0438582 0.0244724 0.0269178 0.0395905 0.0272142 0.0274511 -0.00196307 0.0366495 0.0276571 
0.0166138 -0.0412108 0.0280714 -0.0309963 -0.0355024 0.0290604 -0.0233761 -0.031813 0.0278418 
0.0346338 -0.0290927 0.0281574 0.0240101 -0.0228809 0.0283153 -0.0147645 -0.0165889 0.0286815 
0.0334462 -0.00930086 0.028715 -0.00941413 -0.00330341 0.0281247 -0.0283489 -0.000417126 0.0279675 
0.0140084 -6.89735e-05 0.0289005 -0.0105861 0.00898083 0.0289023 0.0396593 0.013993 0.028066 
0.0398418 0.0217469 0.028219 0.0372507 0.0318783 0.0279855 0.0294278 0.0431452 0.0289678 
0.00528787 0.0432844 0.0290827 -0.00396528 -0.0444182 0.0303546 -0.0386911 -0.0311434 0.0301849 
-0.00863888 -0.0237376 0.0297635 -0.00401126 -0.00720159 0.0302824 0.0404774 -0.00688032 0.0300607 
-0.009285 0.00693532 0.0297295 0.0211953 0.00966092 0.0291449 -0.0365733 0.0119208 0.030369 
-0.0148746 0.0223253 0.0291698 -0.0267196 0.0236159 0.0297855 -0.0337286 0.0337045 0.0297799 
0.0195053 -0.043722 0.031198 0.0155599 -0.0240909 0.0315349 -0.0408474 -0.00214648 0.0311674 
0.0168839 -0.00210364 0.031195 -0.0153419 -0.00108619 0.0313588 0.0260144 0.00429017 0.03167 
0.00243185 0.0120975 0.0305669 0.018015 0.0183735 0.0304228 0.0191028 0.0315895 0.0310289 
0.00727395 0.0332762 0.0309959 0.00201585 0.0404036 0.030496 -0.0136468 -0.0412372 0.032469 
-0.0161578 -0.0337243 0.0324865 0.00179778 -0.0247441 0.032718 -0.0210835 -0.0209207 0.0321238 
-0.0033641 -0.0204173 0.0322689 0.0242571 -0.0100823 0.0326903 0.0200271 -0.00425623 0.0320322 
-0.0376932 -0.000132947 0.0321021 -0.0429246 0.00657681 0.0327213 -0.00598638 0.00689803 0.0318864 
-0.0128609 0.0265935 0.03279 -0.0425374 0.0333781 0.0323139 0.00888594 0.0360502 0.0323979 
0.0350196 -0.0250011 0.0331604 0.0347572 -0.0260666 0.0342769 0.0144468 -0.013247 0.0337613 
-0.00528066 -0.0121118 0.0332176 -0.0198668 -0.00211416 0.0332627 -0.0281455 -0.00127675 0.033799 
0.0183943 0.00266245 0.033555 0.00533928 0.00728904 0.0330146 0.00742845 0.0199749 0.0342615 
0.0278529 0.0342296 0.0334575 0.0030545 0.0369981 0.0334719 -0.0133259 0.0414802 0.0333361 
0.0077947 -0.0345433 0.0355908 -0.0177803 -0.0340186 0.0345288 0.0153133 -0.0285941 0.0343918 
0.0164647 -0.0275391 0.0348068 0.0204492 -0.0194639 0.0353738 -0.0341597 -0.0122829 0.0354803 
-0.0253129 -0.0039775 0.0351202 0.00664535 -0.00164817 0.0345669 -0.0231109 0.0157017 0.0343994 
-0.0324762 0.0230005 0.0350587 0.0416479 -0.0439733 0.0357369 0.0406519 -0.0427256 0.0359847 
0.00231692 -0.0294453 0.0368241 -0.0233311 0.00384073 0.0358658 0.0332757 0.00539899 0.0355952 
-0.019893 0.00878872 0.0364345 -0.00071691 0.0108932 0.0365155 -0.0287332 0.0215601 0.0357768 
-0.0295899 0.0232577 0.0361274 -0.00883869 0.0381834 0.0367414 0.0281745 0.039089 0.036415 
-0.0390775 0.0447256 0.0366963 -0.0273176 -0.0361067 0.0380962 -0.0346801 -0.0287009 0.0375241 
0.0115492 -0.0227248 0.037685 0.0132043 -0.01541 0.0377725 -0.0279963 -0.0141356 0.0370902 
0.0352883 -0.0103067 0.038192 0.0448793 -0.00396119 0.0379553 0.0189244 0.00254502 0.0378731 
0.00474506 0.0103043 0.0376804 0.0234497 0.00978487 0.0378745 -0.00808524 0.0113378 0.0379975 
-0.0350204 0.0121089 0.0381223 0.00264144 0.0247174 0.0373913 0.0397191 0.0283771 0.0371918 
0.0380057 0.0324307 0.0371628 0.00367032 0.0371324 0.0376985 -0.00647711 0.0391566 0.038187 
-0.0195638 -0.0385913 0.0394304 0.0325128 -0.03812 0.039445 0.0195647 -0.0366528 0.0391279 
0.0253763 -0.011051 0.0387195 0.032558 0.00153523 0.0394539 -0.0261639 0.00337815 0.0383776 
0.0358407 0.00533501 0.0387715 -0.0442311 0.00821601 0.0393877 -0.0408306 0.00999374 0.0382912 
0.027557 0.009967 0.0386335 -0.0408838 0.0159645 0.0385738 -0.0122189 0.0175978 0.0386816 
0.0258603 0.0235991 0.0388241 0.0337272 0.0324898 0.0387134 0.0114086 0.0440135 0.0386138 
0.0171919 0.0449185 0.0382961 0.00849583 -0.0405939 0.0401874 -0.0350278 -0.0224863 0.0408316 
-0.0164034 -0.0216001 0.040205 -0.0328213 -0.0176588 0.0402378 -0.0408642 -0.0154151 0.0406314 
-0.015814 -0.0152491 0.0403491 0.0375745 -0.0151367 0.0405076 -0.0211095 -0.00770044 0.0400354 
-0.0137512 0.00384646 0.0399947 0.00757299 0.0192258 0.0403936 0.0434247 0.0295768 0.0395576 
0.0040127 0.0314243 0.0403483 0.0211706 0.0445491 0.0398024 -0.0389435 -0.0425966 0.0413722 
0.0346336 -0.0325969 0.0417776 -0.0207996 -0.0190456 0.0417877 0.00886689 -0.0141191 0.0417632 
-0.0253401 -0.0103599 0.0420527 -0.0150798 -0.00698339 0.0417347 0.0420414 -0.00101026 0.0420708 
-0.0131355 0.00164571 0.0413553 0.0324887 0.00836074 0.0410375 0.00789931 0.0136568 0.0418152 
0.012949 0.0143048 0.0417455 0.0350116 0.0207306 0.0412776 0.0170579 0.0421878 0.0417002 
0.000425919 -0.0415728 0.043424 -0.0169239 -0.0402939 0.0423332 0.0355384 -0.0354155 0.0430865 
0.043014 -0.0343178 0.042712 -0.0210092 -0.0320472 0.0430099 0.023019 -0.0293484 0.0432278 
0.0210005 -0.0239559 0.0433851 -0.0406381 0.00555966 0.0421903 -0.0403489 0.00598291 0.0424821 
-0.01547 0.00642247 0.0433207 -0.00443291 0.0160613 0.0429095 -0.0436572 0.0238848 0.0424387 
-0.0214233 0.0285543 0.0433942 0.00834461 0.0278725 0.0426918 -0.0407273 0.0358476 0.0423359 
-0.0289295 -0.0389067 0.0446803 -0.00161929 -0.0353994 0.0436728 0.0403097 -0.0347888 0.0444686 
0.0252581 -0.0163235 0.0436709 -0.040885 -0.00406647 0.0437141 -0.027449 0.00511055 0.0437331 
-0.0287818 0.014969 0.0440329 -0.0363159 0.0185996 0.0440623 -0.00750544 0.0361316 0.0440395 
-0.0317519 -0.0446953 0.0454403 -0.0349861 -0.0412827 0.0460014 -0.0179089 -0.0346335 0.0449721 
-8.23525e-05 -0.034098 0.0452036 0.027474 -0.0338615 0.0455846 -0.00682403 -0.0314098 0.0455893 
-0.0401314 -0.0280847 0.0457272 0.0134129 -0.0192809 0.0451797 0.0296492 -0.015918 0.0458841 
-0.00710141 -0.0133745 0.045313 0.00978397 0.00922321 0.044758 0.0440772 0.0154938 0.0448314 
-0.0286532 0.0159811 0.0448284 -0.00317984 0.0164631 0.0455665 0.0256029 0.0175394 0.0451618 
-0.0132251 0.0252506 0.0459793 -0.00472634 0.0344449 0.0454084 0.0156293 -0.0283842 0.0466377 
0.0272875 -0.0186725 0.0463321 0.0347312 -0.012978 0.047154 0.00127443 -0.000618905 0.0471064 
-0.0332593 0.000859011 0.0466553 0.0110904 0.00657535 0.0473168 -0.0394276 0.0109375 0.046864 
-0.00831541 0.0129665 0.0469383 -0.0161548 0.0159009 0.0463938 0.00546842 0.0177814 0.0463375 
-0.0138035 0.0240512 0.0472147 -0.0260391 0.0304395 0.0466783 -0.0359241 0.0337864 0.0467279 
0.0132394 0.0345575 0.0472236 0.0201641 -0.0426709 0.048395 -0.0406141 -0.0405112 0.0476412 
0.010226 -0.0308634 0.047892 0.0109547 -0.0235646 0.0479719 0.0218314 -0.00971151 0.0474865 
0.0129906 -0.00677597 0.0482959 0.0101693 0.00555192 0.0483426 0.00418285 0.0112423 0.0479518 
-0.0436896 0.0195853 0.0481373 -0.039126 0.0399637 0.0486175 -0.0190394 0.0446837 0.0477208 
-0.0234086 -0.038644 0.0487317 0.0307351 -0.0355434 0.0495278 -0.00586029 -0.0338127 0.0490382 
-0.0323128 -0.0219837 0.0498485 -0.0313057 -0.0141988 0.0490025 -0.042331 -0.00792816 0.0493915 
-0.0101373 -0.00698039 0.0487516 0.0127657 -0.00746761 0.049689 -0.00720807 -0.00608605 0.0495606 
0.0386193 -0.00496685 0.0498192 -0.0219587 0.0304934 0.049811 0.0147823 -0.0446949 0.0506193 
-0.0225361 -0.0441701 0.0499133 -0.00338111 -0.0363358 0.0510234 -0.038621 -0.0229432 0.0504327 
0.0184681 -0.0172117 0.0512166 -0.0227164 -0.0141288 0.0508554 0.0322358 -0.0130621 0.050511 
-0.0395569 -0.00227866 0.050056 -0.000610522 -0.00103491 0.0505913 -0.0349081 0.00917553 0.0504317 
-0.0406313 0.0295913 0.0503703 -0.0379532 0.0399341 0.0500592 -0.00785852 0.041878 0.0502356 
0.0430506 0.0422314 0.050546 0.0392765 -0.0300093 0.0523274 -0.0136128 -0.00979682 0.0516136 
-0.0193355 0.018129 0.0514591 -0.014478 0.0275162 0.0513385 0.0214431 0.0335886 0.051343 
-0.0177429 -0.0346724 0.0529129 0.0338942 -0.0410147 0.054269 -0.0291427 -0.0219343 0.0540358 
0.0275881 -0.00673863 0.0554489 0.0293019 -0.00298432 0.0553343 -0.00552594 0.00555795 0.0552144 
-0.0152062 0.0294088 0.0542899 -0.0396817 -0.0304797 0.0556239 -0.0432264 -0.0264101 0.0556919 
0.0054016 -0.025334 0.0559713 -0.0139777 -0.0223984 0.0558655 0.0282033 -0.0178095 0.0555086 
0.0414517 -0.0114994 0.0563317 -0.0343844 -0.0078404 0.056629 0.0433459 -0.0353282 0.0568037 
-0.0160452 -0.0323821 0.0577752 -0.0405162 -0.0161033 0.0570554 0.00264867 -0.0338128 0.0595649 
0.0101031 -0.0273014 0.0602109 -0.00229178 0.0020129 0.0603065 0.00976854 0.0197772 0.0596569 
0.0218308 -0.0192565 0.0617729 -0.032208 0.0306075 0.0613497 0.0354139 0.0312817 0.061944 
0.0277548 0.0042931 0.0623167 0.0262592 -0.0217201 0.063441 0.023953 0.00820576 0.0636849 
-0.0422696 0.0340949 0.0632479 -0.0183202 -0.0175475 0.0644793 0.0323804 -0.0132471 0.0655773 
0.00153271 0.0201988 0.0654504 -0.00446216 -0.0255279 0.065894 0.0342493 -0.0115037 0.066817 
-0.00474481 -0.00600267 0.0662473 0.0133448 0.00646544 0.0659247 -0.0368667 0.0306348 0.0669162 
0.0412685 -0.0295104 0.0675616 -0.0393221 -0.0167834 0.0675804 -0.0326334 -0.00963456 0.0681325 
0.0152528 0.033152 0.0677182 0.0262096 -0.0449372 0.069326 0.00314898 0.00491531 0.0687619 
0.012585 0.0155082 0.0686505 -0.0160353 0.0448572 0.0696975 0.0223025 -0.0112244 0.0700121 
0.0153641 0.0146287 0.0704507 -0.0269229 0.0267788 0.0701999 -0.0207563 -0.0111167 0.0720769 
0.0114764 0.0140289 0.0714415 -0.0213481 0.0319153 0.0722319 0.0339316 -0.041715 0.0728079 
0.00265626 0.00371614 0.0730443 -0.0449336 -0.00957357 0.0747374 0.00513794 0.0433856 0.0738983 
-0.0102477 0.0267602 0.0757235 0.0164577 0.0353116 0.0774311 -0.0329608 -0.0218045 0.078496 
-0.0371624 0.011326 0.0784081 0.0323341 0.0191974 0.0786286 0.0439232 0.0371117 0.0782312 
0.0185094 -0.042363 0.0793059 -0.024842 -0.00884532 0.0797692 -0.0440308 0.0448256 0.0795348 
0.0341086 -0.0368686 0.0814357 -0.0336946 -0.0248459 0.0806114 -0.0328109 -0.0226975 0.0810218 
0.0414834 -0.0181367 0.0811714 0.0302919 -0.0148257 0.0800148 -0.0420316 -0.0145538 0.0823781 
0.0379188 0.0120326 0.0816877 -0.0281804 0.0418824 0.0820974 -0.015788 -0.0282898 0.0838215 
0.0320014 0.00756294 0.0835275 0.0289145 -0.0340196 0.0843145 -0.0144089 0.0201081 0.0865108 
0.0154702 -0.00154679 0.0869498 0.0104707 0.0313218 0.0892118 -0.0437633 0.0406561 0.0879276 
-0.0419519 -0.0259749 0.0894123 -0.0386256 -0.00983966 0.0892627 0.00357123 -0.00830953 0.092161 
0.0414788 -0.00521487 0.0929611 0.00635633 0.000852437 0.0926744 -0.0385899 -0.0405251 0.0935131 
-0.0197415 0.0344175 0.0933419 -0.0356048 -0.000104637 0.0954863 -0.0296003 0.0277025 0.0955428 
0.00308146 0.0401468 0.0952027 -0.00521279 -0.0413279 0.0965089 0.0131273 0.040817 0.0974482 
-0.0081225 0.0151775 0.0992388 -0.0245993 0.0193658 0.0990575 -0.0170112 0.0231088 0.0984532 
0.0419483 -0.0348097 0.100386 0.0433204 -0.0141837 0.100356 0.0282359 -0.00877456 0.100933 
-0.0256005 0.0215871 0.100015 -0.0155539 0.0359545 0.0997176 -0.00757157 0.00454821 0.103145 
0.0188903 -0.0308528 0.107 -0.0207679 -0.0256315 0.108666 0.00643655 -0.000956063 0.10842 
0.00741479 -0.0295782 0.109504 0.00347554 0.00338662 0.109129 -0.00254916 -0.00379952 0.111476 

VERTICES 649 648
OFFSETS vtktypeint64
0 1 2 3 4 5 6 7 8 
9 10 11 12 13 14 15 16 17 
18 19 20 21 22 23 24 25 26 
27 28 29 30 31 32 33 34 35 
36 37 38 39 40 41 42 43 44 
45 46 47 48 49 50 51 52 53 
54 55 56 57 58 59 60 61 62 
63 64 65 66 67 68 69 70 71 
72 73 74 75 76 77 78 79 80 
81 82 83 84 85 86 87 88 89 
90 91 92 93 94 95 96 97 98 
99 100 101 102 103 104 105 106 107 
108 109 110 111 112 113 114 115 116 
117 118 119 120 121 122 123 124 125 
126 127 128 129 130 131 132 133 134 
135 136 137 138 139 140 141 142 143 
144 145 146 147 148 149 150 151 152 
153 154 155 156 157 158 159 160 161 
162 163 164 165 166 167 168 169 170 
171 172 173 174 175 176 177 178 179 
180 181 182 183 184 185 186 187 188 
189 190 191 192 193 194 195 196 197 
198 199 200 201 202 203 204 205 206 
207 208 209 210 211 212 213 214 215 
216 217 218 219 220 221 222 223 224 
225 226 227 228 229 230 231 232 233 
234 235 236 237 238 239 240 241 242 
243 244 245 246 247 248 249 250 251 
252 253 254 255 256 257 258 259 260 
261 262 263 264 265 266 267 268 269 
270 271 272 273 274 275 276 277 278 
279 280 281 282 283 284 285 286 287 
288 289 290 291 292 293 294 295 296 
297 298 299 300 301 302 303 304 305 
306 307 308 309 310 311 312 313 314 
315 316 317 318 319 320 321 322 323 
324 325 326 327 328 329 330 331 332 
333 334 335 336 337 338 339 340 341 
342 343 344 345 346 347 348 349 350 
351 352 353 354 355 356 357 358 359 
360 361 362 363 364 365 366 367 368 
369 370 371 372 373 374 375 376 377 
378 379 380 381 382 383 384 385 386 
387 388 389 390 391 392 393 394 395 
396 397 398 399 400 401 402 403 404 
405 406 407 408 409 410 411 412 413 
414 415 416 417 418 419 420 421 422 
423 424 425 426 427 428 429 430 431 
432 433 434 435 436 437 438 439 440 
441 442 443 444 445 446 447 448 449 
450 451 452 453 454 455 456 457 458 
459 460 461 462 463 464 465 466 467 
468 469 470 471 472 473 474 475 476 
477 478 479 480 481 482 483 484 485 
486 487 488 489 490 491 492 493 494 
495 496 497 498 499 500 501 502 503 
504 505 506 507 508 509 510 511 512 
513 514 515 516 517 518 519 520 521 
522 523 524 525 526 527 528 529 530 
531 532 533 534 535 536 537 538 539 
540 541 542 543 544 545 546 547 548 
549 550 551 552 553 554 555 556 557 
558 559 560 561 562 563 564 565 566 
567 568 569 570 571 572 573 574 575 
576 577 578 579 580 581 582 583 584 
585 586 587 588 589 590 591 592 593 
594 595 596 597 598 599 600 601 602 
603 604 605 606 607 608 609 610 611 
612 613 614 615 616 617 618 619 620 
621 622 623 624 625 626 627 628 629 
630 631 632 633 634 635 636 637 638 
639 640 641 642 643 644 645 646 647 
648 
CONNECTIVITY vtktypeint64
0 1 2 3 4 5 6 7 8 
9 10 11 12 13 14 15 16 17 
18 19 20 21 22 23 24 25 26 
27 28 29 30 31 32 33 34 35 
36 37 38 39 40 41 42 43 44 
45 46 47 48 49 50 51 52 53 
54 55 56 57 58 59 60 61 62 
63 64 65 66 67 68 69 70 71 
72 73 74 75 76 77 78 79 80 
81 82 83 84 85 86 87 88 89 
90 91 92 93 94 95 96 97 98 
99 100 101 102 103 104 105 106 107 
108 109 110 111 112 113 114 115 116 
117 118 119 120 121 122 123 124 125 
126 127 128 129 130 131 132 133 134 
135 136 137 138 139 140 141 142 143 
144 145 146 147 148 149 150 151 152 
153 154 155 156 157 158 159 160 161 
162 163 164 165 166 167 168 169 170 
171 172 173 174 175 176 177 178 179 
180 181 182 183 184 185 186 187 188 
189 190 191 192 193 194 195 196 197 
198 199 200 201 202 203 204 205 206 
207 208 209 210 211 212 213 214 215 
216 217 218 219 220 221 222 223 224 
225 226 227 228 229 230 231 232 233 
234 235 236 237 238 239 240 241 242 
243 244 245 246 247 248 249 250 251 
252 253 254 255 256 257 258 259 260 
261 262 263 264 265 266 267 268 269 
270 271 272 273 274 275 276 277 278 
279 280 281 282 283 284 285 286 287 
288 289 290 291 292 293 294 295 296 
297 298 299 300 301 302 303 304 305 
306 307 308 309 310 311 312 313 314 
315 316 317 318 319 320 321 322 323 
324 325 326 327 328 329 330 331 332 
333 334 335 336 337 338 339 340 341 
342 343 344 345 346 347 348 349 350 
351 352 353 354 355 356 357 358 359 
360 361 362 363 364 365 366 367 368 
369 370 371 372 373 374 375 376 377 
378 379 380 381 382 383 384 385 386 
387 388 389 390 391 392 393 394 395 
396 397 398 399 400 401 402 403 404 
405 406 407 408 409 410 411 412 413 
414 415 416 417 418 419 420 421 422 
423 424 425 426 427 428 429 430 431 
432 433 434 435 436 437 438 439 440 
441 442 443 444 445 446 447 448 449 
450 451 452 453 454 455 456 457 458 
459 460 461 462 463 464 465 466 467 
468 469 470 471 472 473 474 475 476 
477 478 479 480 481 482 483 484 485 
486 487 488 489 490 491 492 493 494 
495 496 497 498 499 500 501 502 503 
504 505 506 507 508 509 510 511 512 
513 514 515 516 517 518 519 520 521 
522 523 524 525 526 527 528 529 530 
531 532 533 534 535 536 537 538 539 
540 541 542 543 544 545 546 547 548 
549 550 551 552 553 554 555 556 557 
558 559 560 561 562 563 564 565 566 
567 568 569 570 571 572 573 574 575 
576 577 578 579 580 581 582 583 584 
585 586 587 588 589 590 591 592 593 
594 595 596 597 598 599 600 601 602 
603 604 605 606 607 608 609 610 611 
612 613 614 615 616 617 618 619 620 
621 622 623 624 625 626 627 628 629 
630 631 632 633 634 635 636 637 638 
639 640 641 642 643 644 645 646 647 

POINT_DATA 648
FIELD FieldData 12
id 1 648 int
87 92 193 9 280 158 29 246 366 
457 459 367 304 185 190 237 440 247 
58 215 106 483 293 72 370 125 83 
418 458 353 450 165 214 373 322 150 
491 433 339 364 166 18 14 189 187 
253 164 134 115 356 88 107 331 291 
282 154 289 176 381 8 127 336 383 
11 57 385 465 175 186 86 407 396 
423 197 169 149 49 219 12 195 26 
270 362 386 372 200 256 470 73 231 
428 10 6 310 488 233 13 496 444 
66 132 36 297 100 408 435 207 404 
317 292 327 22 355 427 467 454 432 
417 162 410 321 85 155 406 463 347 
5 137 167 500 349 478 456 412 411 
51 267 439 290 16 399 263 60 21 
40 110 337 163 506 222 91 188 326 
508 319 229 409 2 424 112 4 261 
199 314 303 227 324 90 495 384 54 
104 318 351 98 415 238 298 240 288 
357 30 24 96 168 248 32 486 236 
330 76 275 390 218 429 505 121 484 
75 61 141 255 15 161 328 113 35 
34 122 183 243 378 446 202 447 198 
271 223 64 174 479 211 377 129 287 
498 451 201 320 62 375 84 28 157 
311 515 341 196 401 178 308 437 475 
140 226 477 111 216 474 119 521 81 
148 313 295 128 472 59 278 504 343 
251 346 257 151 208 63 469 272 414 
102 352 146 299 20 395 392 394 268 
65 45 397 250 393 79 416 329 170 
74 260 53 252 171 334 244 56 17 
431 529 78 206 461 232 52 487 239 
294 323 462 38 142 205 265 144 363 
279 94 108 342 89 333 493 42 368 
425 420 345 325 109 348 93 71 360 
371 217 379 273 117 481 225 123 68 
156 116 403 25 1 105 204 301 213 
266 455 286 335 430 460 43 405 542 
305 426 281 421 182 361 489 350 147 
445 448 380 285 135 70 130 31 471 
139 212 126 124 221 138 254 559 536 
476 82 354 449 376 276 3 50 77 
338 296 442 181 520 179 466 482 413 
210 359 436 340 538 519 153 316 453 
480 315 7 507 180 302 55 136 526 
160 274 143 374 194 511 300 443 114 
332 438 258 543 177 441 23 522 80 
499 145 46 41 33 434 591 99 344 
47 307 103 234 503 501 245 220 191 
209 509 309 312 159 69 553 567 284 
48 485 452 242 562 402 388 589 398 
502 44 422 490 497 358 228 473 118 
131 387 120 516 259 365 389 528 601 
262 468 587 97 269 494 391 203 549 
283 192 101 580 546 464 152 523 172 
173 492 571 576 306 95 39 27 224 
133 419 241 230 67 37 551 612 566 
382 564 400 524 249 277 19 533 264 
184 369 235 518 577 547 615 592 545 
540 525 527 532 513 517 638 563 605 
570 572 616 645 565 514 558 596 623 
613 573 510 550 539 530 561 604 628 
557 512 594 548 618 617 579 534 593 
560 614 599 622 637 585 633 583 597 
598 554 586 535 552 578 595 607 531 
635 569 639 626 581 541 603 537 590 
620 555 629 556 634 625 610 611 575 
574 544 608 647 630 648 600 568 609 
643 632 606 619 582 588 584 644 602 
646 624 631 636 627 621 640 641 642 

type 1 648 int
1 1 1 2 1 1 1 1 1 
1 1 1 1 1 1 1 1 1 
1 1 1 1 1 1 1 1 1 
1 1 1 1 1 1 1 1 1 
1 1 1 1 1 1 2 1 1 
1 1 1 1 1 1 1 1 1 
1 1 1 1 1 2 1 1 1 
2 1 1 1 1 1 1 1 1 
1 1 1 1 1 1 2 1 1 
1 1 1 1 1 1 1 1 1 
1 2 2 1 1 1 2 1 1 
1 1 1 1 1 1 1 1 1 
1 1 1 1 1 1 1 1 1 
1 1 1 1 1 1 1 1 1 
2 1 1 1 1 1 1 1 1 
1 1 1 1 2 1 1 1 1 
1 1 1 1 1 1 1 1 1 
1 1 1 1 3 1 1 2 1 
1 1 1 1 1 1 1 1 1 
1 1 1 1 1 1 1 1 1 
1 1 1 1 1 1 1 1 1 
1 1 1 1 1 1 1 1 1 
1 1 1 1 2 1 1 1 1 
1 1 1 1 1 1 1 1 1 
1 1 1 1 1 1 1 1 1 
1 1 1 1 1 1 1 1 1 
1 1 1 1 1 1 1 1 1 
1 1 1 1 1 1 1 1 1 
1 1 1 1 1 1 1 1 1 
1 1 1 1 1 1 1 1 1 
1 1 1 1 1 1 1 1 1 
1 1 1 1 1 1 1 1 1 
1 1 1 1 1 1 1 1 1 
1 1 1 1 1 1 1 1 1 
1 1 1 1 1 1 1 1 1 
1 1 1 1 1 1 1 1 1 
1 1 1 1 1 1 1 1 1 
1 1 1 1 1 1 1 1 1 
1 1 1 1 4 1 1 1 1 
1 1 1 1 1 1 1 1 1 
1 1 1 1 1 1 1 1 1 
1 1 1 1 1 1 1 1 1 
1 1 1 1 1 1 1 1 1 
1 1 1 1 1 1 2 1 1 
1 1 1 1 1 1 1 1 1 
1 1 1 1 1 1 1 1 1 
1 1 2 1 1 1 1 1 1 
1 1 1 1 1 1 1 1 1 
1 1 1 1 1 1 1 1 1 
1 1 1 1 1 1 1 1 1 
1 1 1 1 1 1 1 1 1 
1 1 1 1 1 1 1 1 1 
1 1 1 1 1 1 1 1 1 
1 1 1 1 1 1 1 1 1 
1 1 1 2 1 1 1 1 1 
1 1 1 1 1 1 1 1 1 
1 1 1 1 1 1 1 1 1 
1 1 1 1 1 1 1 1 1 
1 1 1 1 1 1 1 1 1 
1 1 1 1 1 1 1 1 1 
1 1 1 1 1 1 1 1 1 
1 1 1 1 1 1 1 1 1 
1 1 1 1 1 1 1 1 1 
1 1 1 1 1 1 1 1 1 
1 2 1 1 1 1 1 1 1 
1 1 1 1 1 1 1 1 1 
1 1 1 1 1 1 1 1 1 
1 1 1 1 1 1 1 1 1 
1 1 1 1 2 1 1 1 1 
1 1 1 1 1 1 1 1 1 
1 1 1 1 1 1 1 1 1 
1 1 1 1 1 1 1 1 1 

i 3 648 int
0 0 0 0 0 0 0 0 0 
0 0 0 0 0 0 0 0 0 
0 0 0 0 0 0 0 0 0 
0 0 0 0 0 0 0 0 0 
0 0 0 0 0 0 0 0 0 
0 0 0 0 0 0 0 0 0 
0 0 0 0 0 0 0 0 0 
0 0 0 0 0 0 0 0 0 
0 0 0 0 0 0 0 0 0 
0 0 0 0 0 0 0 0 0 
0 0 0 0 0 0 0 0 0 
0 0 0 0 0 0 0 0 0 
0 0 0 0 0 0 0 0 0 
0 0 0 0 0 0 0 0 0 
0 0 0 0 0 0 0 0 0 
0 0 0 0 0 0 0 0 0 
0 0 0 0 0 0 0 0 0 
0 0 0 0 0 0 0 0 0 
0 0 0 0 0 0 0 0 0 
0 0 0 0 0 0 0 0 0 
0 0 0 0 0 0 0 0 0 
0 0 0 0 0 0 0 0 0 
0 0 0 0 0 0 0 0 0 
0 0 0 0 0 0 0 0 0 
0 0 0 0 0 0 0 0 0 
0 0 0 0 0 0 0 0 0 
0 0 0 0 0 0 0 0 0 
0 0 0 0 0 0 0 0 0 
0 0 0 0 0 0 0 0 0 
0 0 0 0 0 0 0 0 0 
0 0 0 0 0 0 0 0 0 
0 0 0 0 0 0 0 0 0 
0 0 0 0 0 0 0 0 0 
0 0 0 0 0 0 0 0 0 
0 0 0 0 0 0 0 0 0 
0 0 0 0 0 0 0 0 0 
0 0 0 0 0 0 0 0 0 
0 0 0 0 0 0 0 0 0 
0 0 0 0 0 0 0 0 0 
0 0 0 0 0 0 0 0 0 
0 0 0 0 0 0 0 0 0 
0 0 0 0 0 0 0 0 0 
0 0 0 0 0 0 0 0 0 
0 0 0 0 0 0 0 0 0 
0 0 0 0 0 0 0 0 0 
0 0 0 0 0 0 0 0 0 
0 0 0 0 0 0 0 0 0 
0 0 0 0 0 0 0 0 0 
0 0 0 0 0 0 0 0 0 
0 0 0 0 0 0 0 0 0 
0 0 0 0 0 0 0 0 0 
0 0 0 0 0 0 0 0 0 
0 0 0 0 0 0 0 0 0 
0 0 0 0 0 0 0 0 0 
0 0 0 0 0 0 0 0 0 
0 0 0 0 0 0 0 0 0 
0 0 0 0 0 0 0 0 0 
0 0 0 0 0 0 0 0 0 
0 0 0 0 0 0 0 0 0 
0 0 0 0 0 0 0 0 0 
0 0 0 0 0 0 0 0 0 
0 0 0 0 0 0 0 0 0 
0 0 0 0 0 0 0 0 0 
0 0 0 0 0 0 0 0 0 
0 0 0 0 0 0 0 0 0 
0 0 0 0 0 0 0 0 0 
0 0 0 0 0 0 0 0 0 
0 0 0 0 0 0 0 0 0 
0 0 0 0 0 0 0 0 0 
0 0 0 0 0 0 0 0 0 
0 0 0 0 0 0 0 0 0 
0 0 0 0 0 0 0 0 0 
0 0 0 0 0 0 0 0 0 
0 0 0 0 0 0 0 0 0 
0 0 0 0 0 0 0 0 0 
0 0 0 0 0 0 0 0 0 
0 0 0 0 0 0 0 0 0 
0 0 0 0 0 0 0 0 0 
0 0 0 0 0 0 0 0 0 
0 0 0 0 0 0 0 0 0 
0 0 0 0 0 0 0 0 0 
0 0 0 0 0 0 0 0 0 
0 0 0 0 0 0 0 0 0 
0 0 0 0 0 0 0 0 0 
0 0 0 0 0 0 0 0 0 
0 0 0 0 0 0 0 0 0 
0 0 0 0 0 0 0 0 0 
0 0 0 0 0 0 0 0 0 
0 0 0 0 0 0 0 0 0 
0 0 0 0 0 0 0 0 0 
0 0 0 0 0 0 0 0 0 
0 0 0 0 0 0 0 0 0 
0 0 0 0 0 0 0 0 0 
0 0 0 0 0 0 0 0 0 
0 0 0 0 0 0 0 0 0 
0 0 0 0 0 0 0 0 0 
0 0 0 0 0 0 0 0 0 
0 0 0 0 0 0 0 0 0 
0 0 0 0 0 0 0 0 0 
0 0 0 0 0 0 0 0 0 
0 0 0 0 0 0 0 0 0 
0 0 0 0 0 0 0 0 0 
0 0 0 0 0 0 0 0 0 
0 0 0 0 0 0 0 0 0 
0 0 0 0 0 0 0 0 0 
0 0 0 0 0 0 0 0 0 
0 0 0 0 0 0 0 0 0 
0 0 0 0 0 0 0 0 0 
0 0 0 0 0 0 0 0 0 
0 0 0 0 0 0 0 0 0 
0 0 0 0 0 0 0 0 0 
0 0 0 0 0 0 0 0 0 
0 0 0 0 0 0 0 0 0 
0 0 0 0 0 0 0 0 0 
0 0 0 0 0 0 0 0 0 
0 0 0 0 0 0 0 0 0 
0 0 0 0 0 0 0 0 0 
0 0 0 0 0 0 0 0 0 
0 0 0 0 0 0 0 0 0 
0 0 0 0 0 0 0 0 0 
0 0 0 0 0 0 0 0 0 
0 0 0 0 0 0 0 0 0 
0 0 0 0 0 0 0 0 0 
0 0 0 0 0 0 0 0 0 
0 0 0 0 0 0 0 0 0 
0 0 0 0 0 0 0 0 0 
0 0 0 0 0 0 0 0 0 
0 0 0 0 0 0 0 0 0 
0 0 0 0 0 0 0 0 0 
0 0 0 0 0 0 0 0 0 
0 0 0 0 0 0 0 0 0 
0 0 0 0 0 0 0 0 0 
0 0 0 0 0 0 0 0 0 
0 0 0 0 0 0 0 0 0 
0 0 0 0 0 0 0 0 0 
0 0 0 0 0 0 0 0 0 
0 0 0 0 0 0 0 0 0 
0 0 0 0 0 0 0 0 0 
0 0 0 0 0 0 0 0 0 
0 0 0 0 0 0 0 0 0 
0 0 0 0 0 0 0 0 0 
0 0 0 0 0 0 0 0 0 
0 0 0 0 0 0 0 0 0 
0 0 0 0 0 0 0 0 0 
0 0 0 0 0 0 0 0 0 
0 0 0 0 0 0 0 0 0 
0 0 0 0 0 0 0 0 0 
0 0 0 0 0 0 0 0 0 
0 0 0 0 0 0 0 0 0 
0 0 0 0 0 0 0 0 0 
0 0 0 0 0 0 0 0 0 
0 0 0 0 0 0 0 0 0 
0 0 0 0 0 0 0 0 0 
0 0 0 0 0 0 0 0 0 
0 0 0 0 0 0 0 0 0 
0 0 0 0 0 0 0 0 0 
0 0 0 0 0 0 0 0 0 
0 0 0 0 0 0 0 0 0 
0 0 0 0 0 0 0 0 0 
0 0 0 0 0 0 0 0 0 
0 0 0 0 0 0 0 0 0 
0 0 0 0 0 0 0 0 0 
0 0 0 0 0 0 0 0 0 
0 0 0 0 0 0 0 0 0 
0 0 0 0 0 0 0 0 0 
0 0 0 0 0 0 0 0 0 
0 0 0 0 0 0 0 0 0 
0 0 0 0 0 0 0 0 0 
0 0 0 0 0 0 0 0 0 
0 0 0 0 0 0 0 0 0 
0 0 0 0 0 0 0 0 0 
0 0 0 0 0 0 0 0 0 
0 0 0 0 0 0 0 0 0 
0 0 0 0 0 0 0 0 0 
0 0 0 0 0 0 0 0 0 
0 0 0 0 0 0 0 0 0 
0 0 0 0 0 0 0 0 0 
0 0 0 0 0 0 0 0 0 
0 0 0 0 0 0 0 0 0 
0 0 0 0 0 0 0 0 0 
0 0 0 0 0 0 0 0 0 
0 0 0 0 0 0 0 0 0 
0 0 0 0 0 0 0 0 0 
0 0 0 0 0 0 0 0 0 
0 0 0 0 0 0 0 0 0 
0 0 0 0 0 0 0 0 0 
0 0 0 0 0 0 0 0 0 
0 0 0 0 0 0 0 0 0 
0 0 0 0 0 0 0 0 0 
0 0 0 0 0 0 0 0 0 
0 0 0 0 0 0 0 0 0 
0 0 0 0 0 0 0 0 0 
0 0 0 0 0 0 0 0 0 
0 0 0 0 0 0 0 0 0 
0 0 0 0 0 0 0 0 0 
0 0 0 0 0 0 0 0 0 
0 0 0 0 0 0 0 0 0 
0 0 0 0 0 0 0 0 0 
0 0 0 0 0 0 0 0 0 
0 0 0 0 0 0 0 0 0 
0 0 0 0 0 0 0 0 0 
0 0 0 0 0 0 0 0 0 
0 0 0 0 0 0 0 0 0 
0 0 0 0 0 0 0 0 0 
0 0 0 0 0 0 0 0 0 
0 0 0 0 0 0 0 0 0 
0 0 0 0 0 0 0 0 0 
0 0 0 0 0 0 0 0 0 
0 0 0 0 0 0 0 0 0 
0 0 0 0 0 0 0 0 0 
0 0 0 0 0 0 0 0 0 
0 0 0 0 0 0 0 0 0 
0 0 0 0 0 0 0 0 0 
0 0 0 0 0 0 0 0 0 
0 0 0 0 0 0 0 0 0 
0 0 0 0 0 0 0 0 0 

v 3 648 double
0 0 0.20987102514 0 0 0.1740870901 0 0 0.20812301766 
0 0 0.23920223163 0 0 0.21899910604 0 0 0.21109585659 
0 0 0.20998253033 0 0 0.18388400974 0 0 0.20323137069 
0 0 -0.5356241875 0 0 0.17601410335 0 0 -0.5356241875 
0 0 0.17243168856 0 0 0.15762653574 0 0 0.16423411073 
0 0 0.20599142495 0 0 -0.5356241875 0 0 0.202853356 
0 0 0.20466161714 0 0 0.19412649073 0 0 0.1685917082 
0 0 -0.5356241875 0 0 0.16831202922 0 0 0.15805225461 
0 0 0.16307982731 0 0 0.20403120902 0 0 0.21269109935 
0 0 0.16610055737 0 0 -0.5356241875 0 0 0.19698789285 
0 0 0.16034894525 0 0 0.2048895686 0 0 0.16582090805 
0 0 0.20504811871 0 0 0.19112722004 0 0 0.16285519429 
0 0 0.15758713282 0 0 0.16808760836 0 0 0.17623695755 
0 0 0.20759854708 0 0 -0.5356241875 0 0 0.15587532914 
0 0 0.2266813807 0 0 0.19982864258 0 0 0.20068864709 
0 0 0.20968837824 0 0 0.15212128012 0 0 0.17940749822 
0 0 0.14624092962 0 0 0.18845487972 0 0 0.19000193824 
0 0 0.18082864323 0 0 -0.5356241875 0 0 0.18376639347 
0 0 -0.5356241875 0 0 -0.5356241875 0 0 -0.5356241875 
0 0 0.18709337676 0 0 0.19320774848 0 0 -0.5356241875 
0 0 0.18946252138 0 0 0.19414994202 0 0 0.14391091235 
0 0 0.20995575687 0 0 0.13971494193 0 0 0.19366821721 
0 0 0.14817637249 0 0 -0.5356241875 0 0 -0.5356241875 
0 0 0.18762252364 0 0 -0.5356241875 0 0 0.14571326408 
0 0 0.18459326915 0 0 0.18019907858 0 0 0.15381383014 
0 0 0.18604880603 0 0 -0.5356241875 0 0 0.16303625156 
0 0 0.21268351316 0 0 0.15193938045 0 0 0.18214453854 
0 0 0.1805068851 0 0 0.16092832364 0 0 -0.5356241875 
0 0 0.17077536138 0 0 0.17873960083 0 0 -0.5356241875 
0 0 -0.5356241875 0 0 -0.5356241875 0 0 0.17874385446 
0 0 0.17707820043 0 0 -0.5356241875 0 0 0.19280585562 
0 0 -0.5356241875 0 0 -0.5356241875 0 0 -0.5356241875 
0 0 -0.5356241875 0 0 -0.5356241875 0 0 -0.5356241875 
0 0 -0.5356241875 0 0 -0.5356241875 0 0 -0.5356241875 
0 0 -0.5356241875 0 0 -0.5356241875 0 0 -0.5356241875 
0 0 -0.5356241875 0 0 -0.5356241875 0 0 -0.5356241875 
0 0 -0.5356241875 0 0 -0.5356241875 0 0 -0.5356241875 
0 0 -0.5356241875 0 0 -0.5356241875 0 0 -0.5356241875 
0 0 -0.5356241875 0 0 -0.5356241875 0 0 -0.5356241875 
0 0 -0.5356241875 0 0 -0.5356241875 0 0 -0.5356241875 
0 0 -0.5356241875 0 0 -0.5356241875 0 0 -0.5356241875 
0 0 -0.5356241875 0 0 -0.5356241875 0 0 -0.5356241875 
0 0 -0.5356241875 0 0 -0.5356241875 0 0 -0.5356241875 
0 0 -0.5356241875 0 0 -0.5356241875 0 0 -0.5356241875 
0 0 -0.5356241875 0 0 -0.5356241875 0 0 -0.5356241875 
0 0 -0.5356241875 0 0 -0.5356241875 0 0 -0.5356241875 
0 0 -0.5356241875 0 0 -0.5356241875 0 0 -0.5356241875 
0 0 -0.5356241875 0 0 -0.5356241875 0 0 -0.5356241875 
0 0 -0.5356241875 0 0 -0.5356241875 0 0 -0.5356241875 
0 0 -0.5356241875 0 0 -0.4803741875 0 0 -0.5356241875 
0 0 -0.5356241875 0 0 -0.5356241875 0 0 -0.5356241875 
0 0 -0.4803741875 0 0 -0.5356241875 0 0 -0.5356241875 
0 0 -0.5356241875 0 0 -0.5356241875 0 0 -0.5356241875 
0 0 -0.5356241875 0 0 -0.5356241875 0 0 -0.5356241875 
0 0 -0.5356241875 0 0 -0.5356241875 0 0 -0.5356241875 
0 0 -0.5356241875 0 0 -0.5356241875 0 0 -0.5356241875 
0 0 -0.5356241875 0 0 -0.5356241875 0 0 -0.5356241875 
0 0 -0.5356241875 0 0 -0.5356241875 0 0 -0.5356241875 
0 0 -0.5356241875 0 0 -0.5356241875 0 0 -0.5356241875 
0 0 -0.5356241875 0 0 -0.5356241875 0 0 -0.5356241875 
0 0 -0.5356241875 0 0 -0.5356241875 0 0 -0.5356241875 
0 0 -0.5356241875 0 0 -0.5356241875 0 0 -0.5356241875 
0 0 -0.5356241875 0 0 -0.5356241875 0 0 -0.5356241875 
0 0 -0.5356241875 0 0 -0.5356241875 0 0 -0.5356241875 
0 0 -0.5356241875 0 0 -0.5356241875 0 0 -0.5356241875 
0 0 -0.4998741875 0 0 -0.5356241875 0 0 -0.5356241875 
0 0 -0.5356241875 0 0 -0.5356241875 0 0 -0.5356241875 
0 0 -0.5356241875 0 0 -0.5356241875 0 0 -0.5356241875 
0 0 -0.5356241875 0 0 -0.5356241875 0 0 -0.5356241875 
0 0 -0.5356241875 0 0 -0.5356241875 0 0 -0.5356241875 
0 0 -0.5356241875 0 0 -0.5356241875 0 0 -0.5356241875 
0 0 -0.5356241875 0 0 -0.5356241875 0 0 -0.5356241875 
0 0 -0.5356241875 0 0 -0.5356241875 0 0 -0.5356241875 
0 0 -0.5356241875 0 0 -0.5356241875 0 0 -0.5356241875 
0 0 -0.5356241875 0 0 -0.5356241875 0 0 -0.5356241875 
0 0 -0.5356241875 0 0 -0.5356241875 0 0 -0.5356241875 
0 0 -0.5356241875 0 0 -0.5356241875 0 0 -0.5356241875 
0 0 -0.5356241875 0 0 -0.5356241875 0 0 -0.5356241875 
0 0 -0.5356241875 0 0 -0.4608741875 0 0 -0.5356241875 
0 0 -0.5356241875 0 0 -0.5356241875 0 0 -0.5356241875 
0 0 -0.5356241875 0 0 -0.5356241875 0 0 -0.5356241875 
0 0 -0.5356241875 0 0 -0.5356241875 0 0 -0.5356241875 
0 0 -0.5356241875 0 0 -0.5356241875 0 0 -0.5356241875 
0 0 -0.5356241875 0 0 -0.4478741875 0 0 -0.5356241875 
0 0 -0.5356241875 0 0 -0.5356241875 0 0 -0.5356241875 
0 0 -0.5356241875 0 0 -0.5356241875 0 0 -0.5356241875 
0 0 -0.5356241875 0 0 -0.5031241875 0 0 -0.5356241875 
0 0 -0.5356241875 0 0 -0.5356241875 0 0 -0.5356241875 
0 0 -0.5356241875 0 0 -0.5356241875 0 0 -0.5356241875 
0 0 -0.5356241875 0 0 -0.5356241875 0 0 -0.5356241875 
0 0 -0.5356241875 0 0 -0.5356241875 0 0 -0.5356241875 
0 0 -0.5356241875 0 0 -0.5356241875 0 0 -0.5356241875 
0 0 -0.5356241875 0 0 -0.5356241875 0 0 -0.5356241875 
0 0 -0.5356241875 0 0 -0.5356241875 0 0 -0.5356241875 
0 0 -0.5356241875 0 0 -0.5356241875 0 0 -0.5356241875 
0 0 -0.5356241875 0 0 -0.5356241875 0 0 -0.5356241875 
0 0 -0.5356241875 0 0 -0.5356241875 0 0 -0.5356241875 
0 0 -0.5356241875 0 0 -0.5356241875 0 0 -0.5356241875 
0 0 -0.5356241875 0 0 -0.5356241875 0 0 -0.5356241875 
0 0 -0.5356241875 0 0 -0.4316241875 0 0 -0.5356241875 
0 0 -0.5356241875 0 0 -0.5356241875 0 0 -0.5356241875 
0 0 -0.5356241875 0 0 -0.5356241875 0 0 -0.5356241875 
0 0 -0.5356241875 0 0 -0.5356241875 0 0 -0.5356241875 
0 0 -0.5356241875 0 0 -0.5356241875 0 0 -0.5356241875 
0 0 -0.5356241875 0 0 -0.5356241875 0 0 -0.5356241875 
0 0 -0.5356241875 0 0 -0.5356241875 0 0 -0.5356241875 
0 0 -0.5356241875 0 0 -0.5356241875 0 0 -0.5356241875 
0 0 -0.5356241875 0 0 -0.5356241875 0 0 -0.5356241875 
0 0 -0.5356241875 0 0 -0.5356241875 0 0 -0.5356241875 
0 0 -0.5356241875 0 0 -0.5356241875 0 0 -0.5356241875 
0 0 -0.5356241875 0 0 -0.5356241875 0 0 -0.5356241875 
0 0 -0.5356241875 0 0 -0.5356241875 0 0 -0.5356241875 
0 0 -0.5356241875 0 0 -0.5356241875 0 0 -0.5356241875 
0 0 -0.5356241875 0 0 -0.5356241875 0 0 -0.5356241875 
0 0 -0.5356241875 0 0 -0.5356241875 0 0 -0.5356241875 
0 0 -0.5356241875 0 0 -0.5356241875 0 0 -0.5356241875 
0 0 -0.5356241875 0 0 -0.5356241875 0 0 -0.5356241875 
0 0 -0.5356241875 0 0 -0.5356241875 0 0 -0.5356241875 
0 0 -0.5356241875 0 0 -0.5356241875 0 0 -0.5356241875 
0 0 -0.5356241875 0 0 -0.5356241875 0 0 -0.4056241875 
0 0 -0.5356241875 0 0 -0.5356241875 0 0 -0.5356241875 
0 0 -0.5356241875 0 0 -0.5356241875 0 0 -0.5356241875 
0 0 -0.5356241875 0 0 -0.5356241875 0 0 -0.5356241875 
0 0 -0.5356241875 0 0 -0.5356241875 0 0 -0.5356241875 
0 0 -0.5356241875 0 0 -0.5356241875 0 0 -0.5356241875 
0 0 -0.5356241875 0 0 -0.5356241875 0 0 -0.5356241875 
0 0 -0.5356241875 0 0 -0.5356241875 0 0 -0.5356241875 
0 0 -0.5356241875 0 0 -0.5356241875 0 0 -0.5356241875 
0 0 -0.5356241875 0 0 -0.3861241875 0 0 -0.4153741875 
0 0 -0.5356241875 0 0 -0.5356241875 0 0 -0.5356241875 
0 0 -0.5356241875 0 0 -0.5356241875 0 0 -0.5356241875 
0 0 -0.5356241875 0 0 -0.5356241875 0 0 -0.5356241875 
0 0 -0.5356241875 0 0 -0.5356241875 0 0 -0.5356241875 
0 0 -0.5356241875 0 0 -0.4511241875 0 0 -0.5356241875 
0 0 -0.5356241875 0 0 -0.5356241875 0 0 -0.5356241875 
0 0 -0.5356241875 0 0 -0.5356241875 0 0 -0.5356241875 
0 0 -0.5356241875 0 0 -0.4121241875 0 0 -0.4511241875 
0 0 -0.5356241875 0 0 -0.5356241875 0 0 -0.5356241875 
0 0 -0.5356241875 0 0 -0.5356241875 0 0 -0.5356241875 
0 0 -0.4803741875 0 0 -0.5356241875 0 0 -0.5356241875 
0 0 -0.5356241875 0 0 -0.5356241875 0 0 -0.4348741875 
0 0 -0.5356241875 0 0 -0.5356241875 0 0 -0.5356241875 
0 0 -0.5356241875 0 0 -0.5356241875 0 0 -0.4738741875 
0 0 -0.5356241875 0 0 -0.5356241875 0 0 -0.5356241875 
0 0 -0.5356241875 0 0 -0.5356241875 0 0 -0.5356241875 
0 0 -0.4056241875 0 0 -0.5356241875 0 0 -0.5356241875 
0 0 -0.5356241875 0 0 -0.4478741875 0 0 -0.5356241875 
0 0 -0.5356241875 0 0 -0.5356241875 0 0 -0.5356241875 
0 0 -0.5356241875 0 0 -0.5356241875 0 0 -0.5356241875 
0 0 -0.3471241875 0 0 -0.5356241875 0 0 -0.5356241875 
0 0 -0.5356241875 0 0 -0.5356241875 0 0 -0.5356241875 
0 0 -0.5356241875 0 0 -0.5161241875 0 0 -0.5226241875 
0 0 -0.5356241875 0 0 -0.5356241875 0 0 -0.5356241875 
0 0 -0.5356241875 0 0 -0.4738741875 0 0 -0.5356241875 
0 0 -0.5356241875 0 0 -0.5356241875 0 0 -0.5356241875 
0 0 -0.3926241875 0 0 -0.3731241875 0 0 -0.5356241875 
0 0 -0.5356241875 0 0 -0.5356241875 0 0 -0.5356241875 
0 0 -0.5356241875 0 0 -0.3828741875 0 0 -0.5356241875 
0 0 -0.5356241875 0 0 -0.3471241875 0 0 -0.5356241875 
0 0 -0.5226241875 0 0 -0.5356241875 0 0 -0.5356241875 
0 0 -0.5356241875 0 0 -0.5356241875 0 0 -0.5356241875 
0 0 -0.5356241875 0 0 -0.5356241875 0 0 -0.5356241875 
0 0 -0.5356241875 0 0 -0.5356241875 0 0 -0.5356241875 
0 0 -0.4576241875 0 0 -0.5356241875 0 0 -0.5356241875 
0 0 -0.5356241875 0 0 -0.4316241875 0 0 -0.3308741875 
0 0 -0.5356241875 0 0 -0.5356241875 0 0 -0.3503741875 
0 0 -0.5356241875 0 0 -0.5356241875 0 0 -0.5356241875 
0 0 -0.5356241875 0 0 -0.5356241875 0 0 -0.3958741875 
0 0 -0.5356241875 0 0 -0.5356241875 0 0 -0.5356241875 
0 0 -0.3568741875 0 0 -0.3991241875 0 0 -0.5356241875 
0 0 -0.5356241875 0 0 -0.4446241875 0 0 -0.5356241875 
0 0 -0.5356241875 0 0 -0.5356241875 0 0 -0.3666241875 
0 0 -0.3601241875 0 0 -0.5356241875 0 0 -0.5356241875 
0 0 -0.5356241875 0 0 -0.5356241875 0 0 -0.5356241875 
0 0 -0.5356241875 0 0 -0.5356241875 0 0 -0.5356241875 
0 0 -0.5356241875 0 0 -0.5356241875 0 0 -0.5356241875 
0 0 -0.3926241875 0 0 -0.3146241875 0 0 -0.3731241875 
0 0 -0.5356241875 0 0 -0.3763741875 0 0 -0.5356241875 
0 0 -0.4446241875 0 0 -0.5356241875 0 0 -0.5356241875 
0 0 -0.5356241875 0 0 -0.4186241875 0 0 -0.5356241875 
0 0 -0.5356241875 0 0 -0.5356241875 0 0 -0.5356241875 
0 0 -0.4576241875 0 0 -0.3601241875 0 0 -0.3991241875 
0 0 -0.3146241875 0 0 -0.3438741875 0 0 -0.4023741875 
0 0 -0.4088741875 0 0 -0.4381241875 0 0 -0.4348741875 
0 0 -0.4218741875 0 0 -0.4673741875 0 0 -0.4576241875 
0 0 -0.2951241875 0 0 -0.3796241875 0 0 -0.3276241875 
0 0 -0.3666241875 0 0 -0.3666241875 0 0 -0.3113741875 
0 0 -0.2918741875 0 0 -0.3763741875 0 0 -0.4673741875 
0 0 -0.3861241875 0 0 -0.3373741875 0 0 -0.3048741875 
0 0 -0.3146241875 0 0 -0.3633741875 0 0 -0.4738741875 
0 0 -0.3958741875 0 0 -0.4088741875 0 0 -0.4251241875 
0 0 -0.3828741875 0 0 -0.3276241875 0 0 -0.3048741875 
0 0 -0.3861241875 0 0 -0.4673741875 0 0 -0.3406241875 
0 0 -0.3958741875 0 0 -0.3113741875 0 0 -0.3113741875 
0 0 -0.3568741875 0 0 -0.4186241875 0 0 -0.3406241875 
0 0 -0.3828741875 0 0 -0.3146241875 0 0 -0.3341241875 
0 0 -0.3081241875 0 0 -0.2983741875 0 0 -0.3536241875 
0 0 -0.3016241875 0 0 -0.3536241875 0 0 -0.3373741875 
0 0 -0.3373741875 0 0 -0.3893741875 0 0 -0.3503741875 
0 0 -0.4153741875 0 0 -0.3926241875 0 0 -0.3568741875 
0 0 -0.3406241875 0 0 -0.3243741875 0 0 -0.4251241875 
0 0 -0.2983741875 0 0 -0.3666241875 0 0 -0.2951241875 
0 0 -0.3048741875 0 0 -0.3568741875 0 0 -0.4088741875 
0 0 -0.3276241875 0 0 -0.4153741875 0 0 -0.3471241875 
0 0 -0.3081241875 0 0 -0.3893741875 0 0 -0.3048741875 
0 0 -0.3893741875 0 0 -0.2983741875 0 0 -0.3048741875 
0 0 -0.3211241875 0 0 -0.3178741875 0 0 -0.3633741875 
0 0 -0.3633741875 0 0 -0.4056241875 0 0 -0.3243741875 
0 0 -0.2918741875 0 0 -0.3048741875 0 0 -0.2918741875 
0 0 -0.3308741875 0 0 -0.3698741875 0 0 -0.3211241875 
0 0 -0.2918741875 0 0 -0.3016241875 0 0 -0.3276241875 
0 0 -0.3081241875 0 0 -0.3536241875 0 0 -0.3503741875 
0 0 -0.3536241875 0 0 -0.2918741875 0 0 -0.3276241875 
0 0 -0.2918741875 0 0 -0.3048741875 0 0 -0.3016241875 
0 0 -0.2983741875 0 0 -0.3048741875 0 0 -0.3081241875 
0 0 -0.2951241875 0 0 -0.2951241875 0 0 -0.2918741875 

f 3 648 double
0 0 -1.7425367252e-10 0 0 -1.7425367252e-10 0 0 -1.7425367252e-10 
0 0 -8.9019973083e-09 0 0 -1.7425367252e-10 0 0 -1.7425367252e-10 
0 0 -1.7425367252e-10 0 0 -1.7425367252e-10 0 0 -1.7425367252e-10 
0 0 -1.7425367252e-10 0 0 -1.7425367252e-10 0 0 -1.7425367252e-10 
0 0 -1.7425367252e-10 0 0 -1.7425367252e-10 0 0 -1.7425367252e-10 
0 0 -1.7425367252e-10 0 0 -1.7425367252e-10 0 0 -1.7425367252e-10 
0 0 -1.7425367252e-10 0 0 -1.7425367252e-10 0 0 -1.7425367252e-10 
0 0 -1.7425367252e-10 0 0 -1.7425367252e-10 0 0 -1.7425367252e-10 
0 0 -1.7425367252e-10 0 0 -1.7425367252e-10 0 0 -1.7425367252e-10 
0 0 -1.7425367252e-10 0 0 -1.7425367252e-10 0 0 -1.7425367252e-10 
0 0 -1.7425367252e-10 0 0 -1.7425367252e-10 0 0 -1.7425367252e-10 
0 0 -1.7425367252e-10 0 0 -1.7425367252e-10 0 0 -1.7425367252e-10 
0 0 -1.7425367252e-10 0 0 -1.7425367252e-10 0 0 -1.7425367252e-10 
0 0 -1.7425367252e-10 0 0 -1.7425367252e-10 0 0 -1.7425367252e-10 
0 0 -8.9019973083e-09 0 0 -1.7425367252e-10 0 0 -1.7425367252e-10 
0 0 -1.7425367252e-10 0 0 -1.7425367252e-10 0 0 -1.7425367252e-10 
0 0 -1.7425367252e-10 0 0 -1.7425367252e-10 0 0 -1.7425367252e-10 
0 0 -1.7425367252e-10 0 0 -1.7425367252e-10 0 0 -1.7425367252e-10 
0 0 -1.7425367252e-10 0 0 -1.7425367252e-10 0 0 -1.7425367252e-10 
0 0 -1.7425367252e-10 0 0 -1.7425367252e-10 0 0 -8.9019973083e-09 
0 0 -1.7425367252e-10 0 0 -1.7425367252e-10 0 0 -1.7425367252e-10 
0 0 -8.9019973083e-09 0 0 -1.7425367252e-10 0 0 -1.7425367252e-10 
0 0 -1.7425367252e-10 0 0 -1.7425367252e-10 0 0 -1.7425367252e-10 
0 0 -1.7425367252e-10 0 0 -1.7425367252e-10 0 0 -1.7425367252e-10 
0 0 -1.7425367252e-10 0 0 -1.7425367252e-10 0 0 -1.7425367252e-10 
0 0 -1.7425367252e-10 0 0 -1.7425367252e-10 0 0 -1.7425367252e-10 
0 0 -8.9019973083e-09 0 0 -1.7425367252e-10 0 0 -1.7425367252e-10 
0 0 -1.7425367252e-10 0 0 -1.7425367252e-10 0 0 -1.7425367252e-10 
0 0 -1.7425367252e-10 0 0 -1.7425367252e-10 0 0 -1.7425367252e-10 
0 0 -1.7425367252e-10 0 0 -1.7425367252e-10 0 0 -1.7425367252e-10 
0 0 -1.7425367252e-10 0 0 -8.9019973083e-09 0 0 -8.9019973083e-09 
0 0 -1.7425367252e-10 0 0 -1.7425367252e-10 0 0 -1.7425367252e-10 
0 0 -8.9019973083e-09 0 0 -1.7425367252e-10 0 0 -1.7425367252e-10 
0 0 -1.7425367252e-10 0 0 -1.7425367252e-10 0 0 -1.7425367252e-10 
0 0 -1.7425367252e-10 0 0 -1.7425367252e-10 0 0 -1.7425367252e-10 
0 0 -1.7425367252e-10 0 0 -1.7425367252e-10 0 0 -1.7425367252e-10 
0 0 -1.7425367252e-10 0 0 -1.7425367252e-10 0 0 -1.7425367252e-10 
0 0 -1.7425367252e-10 0 0 -1.7425367252e-10 0 0 -1.7425367252e-10 
0 0 -1.7425367252e-10 0 0 -1.7425367252e-10 0 0 -1.7425367252e-10 
0 0 -1.7425367252e-10 0 0 -1.7425367252e-10 0 0 -1.7425367252e-10 
0 0 -1.7425367252e-10 0 0 -1.7425367252e-10 0 0 -1.7425367252e-10 
0 0 -1.7425367252e-10 0 0 -1.7425367252e-10 0 0 -1.7425367252e-10 
0 0 -8.9019973083e-09 0 0 -1.7425367252e-10 0 0 -1.7425367252e-10 
0 0 -1.7425367252e-10 0 0 -1.7425367252e-10 0 0 -1.7425367252e-10 
0 0 -1.7425367252e-10 0 0 -1.7425367252e-10 0 0 -1.7425367252e-10 
0 0 -1.7425367252e-10 0 0 -1.7425367252e-10 0 0 -1.7425367252e-10 
0 0 -1.7425367252e-10 0 0 -8.9019973083e-09 0 0 -1.7425367252e-10 
0 0 -1.7425367252e-10 0 0 -1.7425367252e-10 0 0 -1.7425367252e-10 
0 0 -1.7425367252e-10 0 0 -1.7425367252e-10 0 0 -1.7425367252e-10 
0 0 -1.7425367252e-10 0 0 -1.7425367252e-10 0 0 -1.7425367252e-10 
0 0 -1.7425367252e-10 0 0 -1.7425367252e-10 0 0 -1.7425367252e-10 
0 0 -1.7425367252e-10 0 0 -1.7425367252e-10 0 0 -1.7425367252e-10 
0 0 -1.7425367252e-10 0 0 -6.8918688838e-08 0 0 -1.7425367252e-10 
0 0 -1.7425367252e-10 0 0 -8.9019973083e-09 0 0 -1.7425367252e-10 
0 0 -1.7425367252e-10 0 0 -1.7425367252e-10 0 0 -1.7425367252e-10 
0 0 -1.7425367252e-10 0 0 -1.7425367252e-10 0 0 -1.7425367252e-10 
0 0 -1.7425367252e-10 0 0 -1.7425367252e-10 0 0 -1.7425367252e-10 
0 0 -1.7425367252e-10 0 0 -1.7425367252e-10 0 0 -1.7425367252e-10 
0 0 -1.7425367252e-10 0 0 -1.7425367252e-10 0 0 -1.7425367252e-10 
0 0 -1.7425367252e-10 0 0 -1.7425367252e-10 0 0 -1.7425367252e-10 
0 0 -1.7425367252e-10 0 0 -1.7425367252e-10 0 0 -1.7425367252e-10 
0 0 -1.7425367252e-10 0 0 -1.7425367252e-10 0 0 -1.7425367252e-10 
0 0 -1.7425367252e-10 0 0 -1.7425367252e-10 0 0 -1.7425367252e-10 
0 0 -1.7425367252e-10 0 0 -1.7425367252e-10 0 0 -1.7425367252e-10 
0 0 -1.7425367252e-10 0 0 -1.7425367252e-10 0 0 -1.7425367252e-10 
0 0 -1.7425367252e-10 0 0 -1.7425367252e-10 0 0 -1.7425367252e-10 
0 0 -1.7425367252e-10 0 0 -1.7425367252e-10 0 0 -1.7425367252e-10 
0 0 -1.7425367252e-10 0 0 -8.9019973083e-09 0 0 -1.7425367252e-10 
0 0 -1.7425367252e-10 0 0 -1.7425367252e-10 0 0 -1.7425367252e-10 
0 0 -1.7425367252e-10 0 0 -1.7425367252e-10 0 0 -1.7425367252e-10 
0 0 -1.7425367252e-10 0 0 -1.7425367252e-10 0 0 -1.7425367252e-10 
0 0 -1.7425367252e-10 0 0 -1.7425367252e-10 0 0 -1.7425367252e-10 
0 0 -1.7425367252e-10 0 0 -1.7425367252e-10 0 0 -1.7425367252e-10 
0 0 -1.7425367252e-10 0 0 -1.7425367252e-10 0 0 -1.7425367252e-10 
0 0 -1.7425367252e-10 0 0 -1.7425367252e-10 0 0 -1.7425367252e-10 
0 0 -1.7425367252e-10 0 0 -1.7425367252e-10 0 0 -1.7425367252e-10 
0 0 -1.7425367252e-10 0 0 -1.7425367252e-10 0 0 -1.7425367252e-10 
0 0 -1.7425367252e-10 0 0 -1.7425367252e-10 0 0 -1.7425367252e-10 
0 0 -1.7425367252e-10 0 0 -1.7425367252e-10 0 0 -1.7425367252e-10 
0 0 -1.7425367252e-10 0 0 -1.7425367252e-10 0 0 -1.7425367252e-10 
0 0 -1.7425367252e-10 0 0 -1.7425367252e-10 0 0 -1.7425367252e-10 
0 0 -1.7425367252e-10 0 0 -1.7425367252e-10 0 0 -1.7425367252e-10 
0 0 -1.7425367252e-10 0 0 -1.7425367252e-10 0 0 -1.7425367252e-10 
0 0 -1.7425367252e-10 0 0 -1.7425367252e-10 0 0 -1.7425367252e-10 
0 0 -1.7425367252e-10 0 0 -1.7425367252e-10 0 0 -1.7425367252e-10 
0 0 -1.7425367252e-10 0 0 -1.7425367252e-10 0 0 -1.7425367252e-10 
0 0 -1.7425367252e-10 0 0 -1.7425367252e-10 0 0 -1.7425367252e-10 
0 0 -1.7425367252e-10 0 0 -1.7425367252e-10 0 0 -1.7425367252e-10 
0 0 -1.7425367252e-10 0 0 -1.7425367252e-10 0 0 -1.7425367252e-10 
0 0 -1.7425367252e-10 0 0 -1.7425367252e-10 0 0 -1.7425367252e-10 
0 0 -1.7425367252e-10 0 0 -1.7425367252e-10 0 0 -1.7425367252e-10 
0 0 -1.7425367252e-10 0 0 -1.7425367252e-10 0 0 -1.7425367252e-10 
0 0 -1.7425367252e-10 0 0 -1.7425367252e-10 0 0 -1.7425367252e-10 
0 0 -1.7425367252e-10 0 0 -1.7425367252e-10 0 0 -1.7425367252e-10 
0 0 -1.7425367252e-10 0 0 -1.7425367252e-10 0 0 -1.7425367252e-10 
0 0 -1.7425367252e-10 0 0 -1.7425367252e-10 0 0 -1.7425367252e-10 
0 0 -1.7425367252e-10 0 0 -1.7425367252e-10 0 0 -1.7425367252e-10 
0 0 -1.7425367252e-10 0 0 -1.7425367252e-10 0 0 -1.7425367252e-10 
0 0 -1.7425367252e-10 0 0 -1.7425367252e-10 0 0 -1.7425367252e-10 
0 0 -1.7425367252e-10 0 0 -1.7425367252e-10 0 0 -1.7425367252e-10 
0 0 -1.7425367252e-10 0 0 -1.7425367252e-10 0 0 -1.7425367252e-10 
0 0 -1.7425367252e-10 0 0 -1.7425367252e-10 0 0 -1.7425367252e-10 
0 0 -1.7425367252e-10 0 0 -1.7425367252e-10 0 0 -1.7425367252e-10 
0 0 -1.7425367252e-10 0 0 -1.7425367252e-10 0 0 -1.7425367252e-10 
0 0 -1.7425367252e-10 0 0 -1.7425367252e-10 0 0 -1.7425367252e-10 
0 0 -1.7425367252e-10 0 0 -1.7425367252e-10 0 0 -1.7425367252e-10 
0 0 -1.7425367252e-10 0 0 -1.7425367252e-10 0 0 -1.7425367252e-10 
0 0 -1.7425367252e-10 0 0 -1.7425367252e-10 0 0 -1.7425367252e-10 
0 0 -1.7425367252e-10 0 0 -1.7425367252e-10 0 0 -1.7425367252e-10 
0 0 -1.7425367252e-10 0 0 -1.7425367252e-10 0 0 -1.7425367252e-10 
0 0 -1.7425367252e-10 0 0 -1.7425367252e-10 0 0 -1.7425367252e-10 
0 0 -1.7425367252e-10 0 0 -1.7425367252e-10 0 0 -1.7425367252e-10 
0 0 -1.7425367252e-10 0 0 -1.7425367252e-10 0 0 -1.7425367252e-10 
0 0 -1.7425367252e-10 0 0 -1.7425367252e-10 0 0 -1.7425367252e-10 
0 0 -1.7425367252e-10 0 0 -1.7425367252e-10 0 0 -1.7425367252e-10 
0 0 -1.7425367252e-10 0 0 -5.3297119368e-07 0 0 -1.7425367252e-10 
0 0 -1.7425367252e-10 0 0 -1.7425367252e-10 0 0 -1.7425367252e-10 
0 0 -1.7425367252e-10 0 0 -1.7425367252e-10 0 0 -1.7425367252e-10 
0 0 -1.7425367252e-10 0 0 -1.7425367252e-10 0 0 -1.7425367252e-10 
0 0 -1.7425367252e-10 0 0 -1.7425367252e-10 0 0 -1.7425367252e-10 
0 0 -1.7425367252e-10 0 0 -1.7425367252e-10 0 0 -1.7425367252e-10 
0 0 -1.7425367252e-10 0 0 -1.7425367252e-10 0 0 -1.7425367252e-10 
0 0 -1.7425367252e-10 0 0 -1.7425367252e-10 0 0 -1.7425367252e-10 
0 0 -1.7425367252e-10 0 0 -1.7425367252e-10 0 0 -1.7425367252e-10 
0 0 -1.7425367252e-10 0 0 -1.7425367252e-10 0 0 -1.7425367252e-10 
0 0 -1.7425367252e-10 0 0 -1.7425367252e-10 0 0 -1.7425367252e-10 
0 0 -1.7425367252e-10 0 0 -1.7425367252e-10 0 0 -1.7425367252e-10 
0 0 -1.7425367252e-10 0 0 -1.7425367252e-10 0 0 -1.7425367252e-10 
0 0 -1.7425367252e-10 0 0 -1.7425367252e-10 0 0 -1.7425367252e-10 
0 0 -1.7425367252e-10 0 0 -1.7425367252e-10 0 0 -1.7425367252e-10 
0 0 -1.7425367252e-10 0 0 -1.7425367252e-10 0 0 -1.7425367252e-10 
0 0 -8.9019973083e-09 0 0 -1.7425367252e-10 0 0 -1.7425367252e-10 
0 0 -1.7425367252e-10 0 0 -1.7425367252e-10 0 0 -1.7425367252e-10 
0 0 -1.7425367252e-10 0 0 -1.7425367252e-10 0 0 -1.7425367252e-10 
0 0 -1.7425367252e-10 0 0 -1.7425367252e-10 0 0 -1.7425367252e-10 
0 0 -1.7425367252e-10 0 0 -1.7425367252e-10 0 0 -1.7425367252e-10 
0 0 -1.7425367252e-10 0 0 -1.7425367252e-10 0 0 -1.7425367252e-10 
0 0 -1.7425367252e-10 0 0 -1.7425367252e-10 0 0 -1.7425367252e-10 
0 0 -1.7425367252e-10 0 0 -1.7425367252e-10 0 0 -8.9019973083e-09 
0 0 -1.7425367252e-10 0 0 -1.7425367252e-10 0 0 -1.7425367252e-10 
0 0 -1.7425367252e-10 0 0 -1.7425367252e-10 0 0 -1.7425367252e-10 
0 0 -1.7425367252e-10 0 0 -1.7425367252e-10 0 0 -1.7425367252e-10 
0 0 -1.7425367252e-10 0 0 -1.7425367252e-10 0 0 -1.7425367252e-10 
0 0 -1.7425367252e-10 0 0 -1.7425367252e-10 0 0 -1.7425367252e-10 
0 0 -1.7425367252e-10 0 0 -1.7425367252e-10 0 0 -1.7425367252e-10 
0 0 -1.7425367252e-10 0 0 -1.7425367252e-10 0 0 -1.7425367252e-10 
0 0 -1.7425367252e-10 0 0 -1.7425367252e-10 0 0 -1.7425367252e-10 
0 0 -1.7425367252e-10 0 0 -1.7425367252e-10 0 0 -1.7425367252e-10 
0 0 -1.7425367252e-10 0 0 -1.7425367252e-10 0 0 -1.7425367252e-10 
0 0 -1.7425367252e-10 0 0 -1.7425367252e-10 0 0 -1.7425367252e-10 
0 0 -1.7425367252e-10 0 0 -1.7425367252e-10 0 0 -1.7425367252e-10 
0 0 -1.7425367252e-10 0 0 -1.7425367252e-10 0 0 -1.7425367252e-10 
0 0 -1.7425367252e-10 0 0 -1.7425367252e-10 0 0 -1.7425367252e-10 
0 0 -1.7425367252e-10 0 0 -1.7425367252e-10 0 0 -1.7425367252e-10 
0 0 -1.7425367252e-10 0 0 -1.7425367252e-10 0 0 -1.7425367252e-10 
0 0 -1.7425367252e-10 0 0 -1.7425367252e-10 0 0 -1.7425367252e-10 
0 0 -1.7425367252e-10 0 0 -1.7425367252e-10 0 0 -1.7425367252e-10 
0 0 -1.7425367252e-10 0 0 -1.7425367252e-10 0 0 -1.7425367252e-10 
0 0 -1.7425367252e-10 0 0 -1.7425367252e-10 0 0 -1.7425367252e-10 
0 0 -1.7425367252e-10 0 0 -1.7425367252e-10 0 0 -1.7425367252e-10 
0 0 -1.7425367252e-10 0 0 -1.7425367252e-10 0 0 -1.7425367252e-10 
0 0 -1.7425367252e-10 0 0 -1.7425367252e-10 0 0 -1.7425367252e-10 
0 0 -1.7425367252e-10 0 0 -1.7425367252e-10 0 0 -1.7425367252e-10 
0 0 -8.9019973083e-09 0 0 -1.7425367252e-10 0 0 -1.7425367252e-10 
0 0 -1.7425367252e-10 0 0 -1.7425367252e-10 0 0 -1.7425367252e-10 
0 0 -1.7425367252e-10 0 0 -1.7425367252e-10 0 0 -1.7425367252e-10 
0 0 -1.7425367252e-10 0 0 -1.7425367252e-10 0 0 -1.7425367252e-10 
0 0 -1.7425367252e-10 0 0 -1.7425367252e-10 0 0 -1.7425367252e-10 
0 0 -1.7425367252e-10 0 0 -1.7425367252e-10 0 0 -1.7425367252e-10 
0 0 -1.7425367252e-10 0 0 -1.7425367252e-10 0 0 -1.7425367252e-10 
0 0 -1.7425367252e-10 0 0 -1.7425367252e-10 0 0 -1.7425367252e-10 
0 0 -1.7425367252e-10 0 0 -1.7425367252e-10 0 0 -1.7425367252e-10 
0 0 -1.7425367252e-10 0 0 -1.7425367252e-10 0 0 -1.7425367252e-10 
0 0 -1.7425367252e-10 0 0 -1.7425367252e-10 0 0 -1.7425367252e-10 
0 0 -1.7425367252e-10 0 0 -1.7425367252e-10 0 0 -1.7425367252e-10 
0 0 -1.7425367252e-10 0 0 -1.7425367252e-10 0 0 -1.7425367252e-10 
0 0 -1.7425367252e-10 0 0 -1.7425367252e-10 0 0 -1.7425367252e-10 
0 0 -1.7425367252e-10 0 0 -1.7425367252e-10 0 0 -1.7425367252e-10 
0 0 -1.7425367252e-10 0 0 -1.7425367252e-10 0 0 -1.7425367252e-10 
0 0 -1.7425367252e-10 0 0 -1.7425367252e-10 0 0 -1.7425367252e-10 
0 0 -1.7425367252e-10 0 0 -1.7425367252e-10 0 0 -1.7425367252e-10 
0 0 -1.7425367252e-10 0 0 -1.7425367252e-10 0 0 -1.7425367252e-10 
0 0 -1.7425367252e-10 0 0 -1.7425367252e-10 0 0 -1.7425367252e-10 
0 0 -1.7425367252e-10 0 0 -1.7425367252e-10 0 0 -1.7425367252e-10 
0 0 -1.7425367252e-10 0 0 -1.7425367252e-10 0 0 -1.7425367252e-10 
0 0 -1.7425367252e-10 0 0 -1.7425367252e-10 0 0 -1.7425367252e-10 
0 0 -1.7425367252e-10 0 0 -1.7425367252e-10 0 0 -1.7425367252e-10 
0 0 -1.7425367252e-10 0 0 -1.7425367252e-10 0 0 -1.7425367252e-10 
0 0 -1.7425367252e-10 0 0 -1.7425367252e-10 0 0 -1.7425367252e-10 
0 0 -1.7425367252e-10 0 0 -1.7425367252e-10 0 0 -1.7425367252e-10 
0 0 -1.7425367252e-10 0 0 -1.7425367252e-10 0 0 -1.7425367252e-10 
0 0 -1.7425367252e-10 0 0 -1.7425367252e-10 0 0 -1.7425367252e-10 
0 0 -1.7425367252e-10 0 0 -8.9019973083e-09 0 0 -1.7425367252e-10 
0 0 -1.7425367252e-10 0 0 -1.7425367252e-10 0 0 -1.7425367252e-10 
0 0 -1.7425367252e-10 0 0 -1.7425367252e-10 0 0 -1.7425367252e-10 
0 0 -1.7425367252e-10 0 0 -1.7425367252e-10 0 0 -1.7425367252e-10 
0 0 -1.7425367252e-10 0 0 -1.7425367252e-10 0 0 -1.7425367252e-10 
0 0 -1.7425367252e-10 0 0 -1.7425367252e-10 0 0 -1.7425367252e-10 
0 0 -1.7425367252e-10 0 0 -1.7425367252e-10 0 0 -1.7425367252e-10 
0 0 -1.7425367252e-10 0 0 -1.7425367252e-10 0 0 -1.7425367252e-10 
0 0 -1.7425367252e-10 0 0 -1.7425367252e-10 0 0 -1.7425367252e-10 
0 0 -1.7425367252e-10 0 0 -1.7425367252e-10 0 0 -1.7425367252e-10 
0 0 -1.7425367252e-10 0 0 -1.7425367252e-10 0 0 -1.7425367252e-10 
0 0 -1.7425367252e-10 0 0 -1.7425367252e-10 0 0 -1.7425367252e-10 
0 0 -1.7425367252e-10 0 0 -1.7425367252e-10 0 0 -1.7425367252e-10 
0 0 -1.7425367252e-10 0 0 -8.9019973083e-09 0 0 -1.7425367252e-10 
0 0 -1.7425367252e-10 0 0 -1.7425367252e-10 0 0 -1.7425367252e-10 
0 0 -1.7425367252e-10 0 0 -1.7425367252e-10 0 0 -1.7425367252e-10 
0 0 -1.7425367252e-10 0 0 -1.7425367252e-10 0 0 -1.7425367252e-10 
0 0 -1.7425367252e-10 0 0 -1.7425367252e-10 0 0 -1.7425367252e-10 
0 0 -1.7425367252e-10 0 0 -1.7425367252e-10 0 0 -1.7425367252e-10 
0 0 -1.7425367252e-10 0 0 -1.7425367252e-10 0 0 -1.7425367252e-10 
0 0 -1.7425367252e-10 0 0 -1.7425367252e-10 0 0 -1.7425367252e-10 
0 0 -1.7425367252e-10 0 0 -1.7425367252e-10 0 0 -1.7425367252e-10 
0 0 -1.7425367252e-10 0 0 -1.7425367252e-10 0 0 -1.7425367252e-10 
0 0 -1.7425367252e-10 0 0 -1.7425367252e-10 0 0 -1.7425367252e-10 

radius 1 648 double
2e-05 2e-05 2e-05 7.5e-05 2e-05 2e-05 2e-05 2e-05 2e-05 
2e-05 2e-05 2e-05 2e-05 2e-05 2e-05 2e-05 2e-05 2e-05 
2e-05 2e-05 2e-05 2e-05 2e-05 2e-05 2e-05 2e-05 2e-05 
2e-05 2e-05 2e-05 2e-05 2e-05 2e-05 2e-05 2e-05 2e-05 
2e-05 2e-05 2e-05 2e-05 2e-05 2e-05 7.5e-05 2e-05 2e-05 
2e-05 2e-05 2e-05 2e-05 2e-05 2e-05 2e-05 2e-05 2e-05 
2e-05 2e-05 2e-05 2e-05 2e-05 7.5e-05 2e-05 2e-05 2e-05 
7.5e-05 2e-05 2e-05 2e-05 2e-05 2e-05 2e-05 2e-05 2e-05 
2e-05 2e-05 2e-05 2e-05 2e-05 2e-05 7.5e-05 2e-05 2e-05 
2e-05 2e-05 2e-05 2e-05 2e-05 2e-05 2e-05 2e-05 2e-05 
2e-05 7.5e-05 7.5e-05 2e-05 2e-05 2e-05 7.5e-05 2e-05 2e-05 
2e-05 2e-05 2e-05 2e-05 2e-05 2e-05 2e-05 2e-05 2e-05 
2e-05 2e-05 2e-05 2e-05 2e-05 2e-05 2e-05 2e-05 2e-05 
2e-05 2e-05 2e-05 2e-05 2e-05 2e-05 2e-05 2e-05 2e-05 
7.5e-05 2e-05 2e-05 2e-05 2e-05 2e-05 2e-05 2e-05 2e-05 
2e-05 2e-05 2e-05 2e-05 7.5e-05 2e-05 2e-05 2e-05 2e-05 
2e-05 2e-05 2e-05 2e-05 2e-05 2e-05 2e-05 2e-05 2e-05 
2e-05 2e-05 2e-05 2e-05 0.00015 2e-05 2e-05 7.5e-05 2e-05 
2e-05 2e-05 2e-05 2e-05 2e-05 2e-05 2e-05 2e-05 2e-05 
2e-05 2e-05 2e-05 2e-05 2e-05 2e-05 2e-05 2e-05 2e-05 
2e-05 2e-05 2e-05 2e-05 2e-05 2e-05 2e-05 2e-05 2e-05 
2e-05 2e-05 2e-05 2e-05 2e-05 2e-05 2e-05 2e-05 2e-05 
2e-05 2e-05 2e-05 2e-05 7.5e-05 2e-05 2e-05 2e-05 2e-05 
2e-05 2e-05 2e-05 2e-05 2e-05 2e-05 2e-05 2e-05 2e-05 
2e-05 2e-05 2e-05 2e-05 2e-05 2e-05 2e-05 2e-05 2e-05 
2e-05 2e-05 2e-05 2e-05 2e-05 2e-05 2e-05 2e-05 2e-05 
2e-05 2e-05 2e-05 2e-05 2e-05 2e-05 2e-05 2e-05 2e-05 
2e-05 2e-05 2e-05 2e-05 2e-05 2e-05 2e-05 2e-05 2e-05 
2e-05 2e-05 2e-05 2e-05 2e-05 2e-05 2e-05 2e-05 2e-05 
2e-05 2e-05 2e-05 2e-05 2e-05 2e-05 2e-05 2e-05 2e-05 
2e-05 2e-05 2e-05 2e-05 2e-05 2e-05 2e-05 2e-05 2e-05 
2e-05 2e-05 2e-05 2e-05 2e-05 2e-05 2e-05 2e-05 2e-05 
2e-05 2e-05 2e-05 2e-05 2e-05 2e-05 2e-05 2e-05 2e-05 
2e-05 2e-05 2e-05 2e-05 2e-05 2e-05 2e-05 2e-05 2e-05 
2e-05 2e-05 2e-05 2e-05 2e-05 2e-05 2e-05 2e-05 2e-05 
2e-05 2e-05 2e-05 2e-05 2e-05 2e-05 2e-05 2e-05 2e-05 
2e-05 2e-05 2e-05 2e-05 2e-05 2e-05 2e-05 2e-05 2e-05 
2e-05 2e-05 2e-05 2e-05 2e-05 2e-05 2e-05 2e-05 2e-05 
2e-05 2e-05 2e-05 2e-05 0.0003 2e-05 2e-05 2e-05 2e-05 
2e-05 2e-05 2e-05 2e-05 2e-05 2e-05 2e-05 2e-05 2e-05 
2e-05 2e-05 2e-05 2e-05 2e-05 2e-05 2e-05 2e-05 2e-05 
2e-05 2e-05 2e-05 2e-05 2e-05 2e-05 2e-05 2e-05 2e-05 
2e-05 2e-05 2e-05 2e-05 2e-05 2e-05 2e-05 2e-05 2e-05 
2e-05 2e-05 2e-05 2e-05 2e-05 2e-05 7.5e-05 2e-05 2e-05 
2e-05 2e-05 2e-05 2e-05 2e-05 2e-05 2e-05 2e-05 2e-05 
2e-05 2e-05 2e-05 2e-05 2e-05 2e-05 2e-05 2e-05 2e-05 
2e-05 2e-05 7.5e-05 2e-05 2e-05 2e-05 2e-05 2e-05 2e-05 
2e-05 2e-05 2e-05 2e-05 2e-05 2e-05 2e-05 2e-05 2e-05 
2e-05 2e-05 2e-05 2e-05 2e-05 2e-05 2e-05 2e-05 2e-05 
2e-05 2e-05 2e-05 2e-05 2e-05 2e-05 2e-05 2e-05 2e-05 
2e-05 2e-05 2e-05 2e-05 2e-05 2e-05 2e-05 2e-05 2e-05 
2e-05 2e-05 2e-05 2e-05 2e-05 2e-05 2e-05 2e-05 2e-05 
2e-05 2e-05 2e-05 2e-05 2e-05 2e-05 2e-05 2e-05 2e-05 
2e-05 2e-05 2e-05 2e-05 2e-05 2e-05 2e-05 2e-05 2e-05 
2e-05 2e-05 2e-05 7.5e-05 2e-05 2e-05 2e-05 2e-05 2e-05 
2e-05 2e-05 2e-05 2e-05 2e-05 2e-05 2e-05 2e-05 2e-05 
2e-05 2e-05 2e-05 2e-05 2e-05 2e-05 2e-05 2e-05 2e-05 
2e-05 2e-05 2e-05 2e-05 2e-05 2e-05 2e-05 2e-05 2e-05 
2e-05 2e-05 2e-05 2e-05 2e-05 2e-05 2e-05 2e-05 2e-05 
2e-05 2e-05 2e-05 2e-05 2e-05 2e-05 2e-05 2e-05 2e-05 
2e-05 2e-05 2e-05 2e-05 2e-05 2e-05 2e-05 2e-05 2e-05 
2e-05 2e-05 2e-05 2e-05 2e-05 2e-05 2e-05 2e-05 2e-05 
2e-05 2e-05 2e-05 2e-05 2e-05 2e-05 2e-05 2e-05 2e-05 
2e-05 2e-05 2e-05 2e-05 2e-05 2e-05 2e-05 2e-05 2e-05 
2e-05 7.5e-05 2e-05 2e-05 2e-05 2e-05 2e-05 2e-05 2e-05 
2e-05 2e-05 2e-05 2e-05 2e-05 2e-05 2e-05 2e-05 2e-05 
2e-05 2e-05 2e-05 2e-05 2e-05 2e-05 2e-05 2e-05 2e-05 
2e-05 2e-05 2e-05 2e-05 2e-05 2e-05 2e-05 2e-05 2e-05 
2e-05 2e-05 2e-05 2e-05 7.5e-05 2e-05 2e-05 2e-05 2e-05 
2e-05 2e-05 2e-05 2e-05 2e-05 2e-05 2e-05 2e-05 2e-05 
2e-05 2e-05 2e-05 2e-05 2e-05 2e-05 2e-05 2e-05 2e-05 
2e-05 2e-05 2e-05 2e-05 2e-05 2e-05 2e-05 2e-05 2e-05 

omega 3 648 double
0 0 0 0 0 0 0 0 0 
0 0 0 0 0 0 0 0 0 
0 0 0 0 0 0 0 0 0 
0 0 0 0 0 0 0 0 0 
0 0 0 0 0 0 0 0 0 
0 0 0 0 0 0 0 0 0 
0 0 0 0 0 0 0 0 0 
0 0 0 0 0 0 0 0 0 
0 0 0 0 0 0 0 0 0 
0 0 0 0 0 0 0 0 0 
0 0 0 0 0 0 0 0 0 
0 0 0 0 0 0 0 0 0 
0 0 0 0 0 0 0 0 0 
0 0 0 0 0 0 0 0 0 
0 0 0 0 0 0 0 0 0 
0 0 0 0 0 0 0 0 0 
0 0 0 0 0 0 0 0 0 
0 0 0 0 0 0 0 0 0 
0 0 0 0 0 0 0 0 0 
0 0 0 0 0 0 0 0 0 
0 0 0 0 0 0 0 0 0 
0 0 0 0 0 0 0 0 0 
0 0 0 0 0 0 0 0 0 
0 0 0 0 0 0 0 0 0 
0 0 0 0 0 0 0 0 0 
0 0 0 0 0 0 0 0 0 
0 0 0 0 0 0 0 0 0 
0 0 0 0 0 0 0 0 0 
0 0 0 0 0 0 0 0 0 
0 0 0 0 0 0 0 0 0 
0 0 0 0 0 0 0 0 0 
0 0 0 0 0 0 0 0 0 
0 0 0 0 0 0 0 0 0 
0 0 0 0 0 0 0 0 0 
0 0 0 0 0 0 0 0 0 
0 0 0 0 0 0 0 0 0 
0 0 0 0 0 0 0 0 0 
0 0 0 0 0 0 0 0 0 
0 0 0 0 0 0 0 0 0 
0 0 0 0 0 0 0 0 0 
0 0 0 0 0 0 0 0 0 
0 0 0 0 0 0 0 0 0 
0 0 0 0 0 0 0 0 0 
0 0 0 0 0 0 0 0 0 
0 0 0 0 0 0 0 0 0 
0 0 0 0 0 0 0 0 0 
0 0 0 0 0 0 0 0 0 
0 0 0 0 0 0 0 0 0 
0 0 0 0 0 0 0 0 0 
0 0 0 0 0 0 0 0 0 
0 0 0 0 0 0 0 0 0 
0 0 0 0 0 0 0 0 0 
0 0 0 0 0 0 0 0 0 
0 0 0 0 0 0 0 0 0 
0 0 0 0 0 0 0 0 0 
0 0 0 0 0 0 0 0 0 
0 0 0 0 0 0 0 0 0 
0 0 0 0 0 0 0 0 0 
0 0 0 0 0 0 0 0 0 
0 0 0 0 0 0 0 0 0 
0 0 0 0 0 0 0 0 0 
0 0 0 0 0 0 0 0 0 
0 0 0 0 0 0 0 0 0 
0 0 0 0 0 0 0 0 0 
0 0 0 0 0 0 0 0 0 
0 0 0 0 0 0 0 0 0 
0 0 0 0 0 0 0 0 0 
0 0 0 0 0 0 0 0 0 
0 0 0 0 0 0 0 0 0 
0 0 0 0 0 0 0 0 0 
0 0 0 0 0 0 0 0 0 
0 0 0 0 0 0 0 0 0 
0 0 0 0 0 0 0 0 0 
0 0 0 0 0 0 0 0 0 
0 0 0 0 0 0 0 0 0 
0 0 0 0 0 0 0 0 0 
0 0 0 0 0 0 0 0 0 
0 0 0 0 0 0 0 0 0 
0 0 0 0 0 0 0 0 0 
0 0 0 0 0 0 0 0 0 
0 0 0 0 0 0 0 0 0 
0 0 0 0 0 0 0 0 0 
0 0 0 0 0 0 0 0 0 
0 0 0 0 0 0 0 0 0 
0 0 0 0 0 0 0 0 0 
0 0 0 0 0 0 0 0 0 
0 0 0 0 0 0 0 0 0 
0 0 0 0 0 0 0 0 0 
0 0 0 0 0 0 0 0 0 
0 0 0 0 0 0 0 0 0 
0 0 0 0 0 0 0 0 0 
0 0 0 0 0 0 0 0 0 
0 0 0 0 0 0 0 0 0 
0 0 0 0 0 0 0 0 0 
0 0 0 0 0 0 0 0 0 
0 0 0 0 0 0 0 0 0 
0 0 0 0 0 0 0 0 0 
0 0 0 0 0 0 0 0 0 
0 0 0 0 0 0 0 0 0 
0 0 0 0 0 0 0 0 0 
0 0 0 0 0 0 0 0 0 
0 0 0 0 0 0 0 0 0 
0 0 0 0 0 0 0 0 0 
0 0 0 0 0 0 0 0 0 
0 0 0 0 0 0 0 0 0 
0 0 0 0 0 0 0 0 0 
0 0 0 0 0 0 0 0 0 
0 0 0 0 0 0 0 0 0 
0 0 0 0 0 0 0 0 0 
0 0 0 0 0 0 0 0 0 
0 0 0 0 0 0 0 0 0 
0 0 0 0 0 0 0 0 0 
0 0 0 0 0 0 0 0 0 
0 0 0 0 0 0 0 0 0 
0 0 0 0 0 0 0 0 0 
0 0 0 0 0 0 0 0 0 
0 0 0 0 0 0 0 0 0 
0 0 0 0 0 0 0 0 0 
0 0 0 0 0 0 0 0 0 
0 0 0 0 0 0 0 0 0 
0 0 0 0 0 0 0 0 0 
0 0 0 0 0 0 0 0 0 
0 0 0 0 0 0 0 0 0 
0 0 0 0 0 0 0 0 0 
0 0 0 0 0 0 0 0 0 
0 0 0 0 0 0 0 0 0 
0 0 0 0 0 0 0 0 0 
0 0 0 0 0 0 0 0 0 
0 0 0 0 0 0 0 0 0 
0 0 0 0 0 0 0 0 0 
0 0 0 0 0 0 0 0 0 
0 0 0 0 0 0 0 0 0 
0 0 0 0 0 0 0 0 0 
0 0 0 0 0 0 0 0 0 
0 0 0 0 0 0 0 0 0 
0 0 0 0 0 0 0 0 0 
0 0 0 0 0 0 0 0 0 
0 0 0 0 0 0 0 0 0 
0 0 0 0 0 0 0 0 0 
0 0 0 0 0 0 0 0 0 
0 0 0 0 0 0 0 0 0 
0 0 0 0 0 0 0 0 0 
0 0 0 0 0 0 0 0 0 
0 0 0 0 0 0 0 0 0 
0 0 0 0 0 0 0 0 0 
0 0 0 0 0 0 0 0 0 
0 0 0 0 0 0 0 0 0 
0 0 0 0 0 0 0 0 0 
0 0 0 0 0 0 0 0 0 
0 0 0 0 0 0 0 0 0 
0 0 0 0 0 0 0 0 0 
0 0 0 0 0 0 0 0 0 
0 0 0 0 0 0 0 0 0 
0 0 0 0 0 0 0 0 0 
0 0 0 0 0 0 0 0 0 
0 0 0 0 0 0 0 0 0 
0 0 0 0 0 0 0 0 0 
0 0 0 0 0 0 0 0 0 
0 0 0 0 0 0 0 0 0 
0 0 0 0 0 0 0 0 0 
0 0 0 0 0 0 0 0 0 
0 0 0 0 0 0 0 0 0 
0 0 0 0 0 0 0 0 0 
0 0 0 0 0 0 0 0 0 
0 0 0 0 0 0 0 0 0 
0 0 0 0 0 0 0 0 0 
0 0 0 0 0 0 0 0 0 
0 0 0 0 0 0 0 0 0 
0 0 0 0 0 0 0 0 0 
0 0 0 0 0 0 0 0 0 
0 0 0 0 0 0 0 0 0 
0 0 0 0 0 0 0 0 0 
0 0 0 0 0 0 0 0 0 
0 0 0 0 0 0 0 0 0 
0 0 0 0 0 0 0 0 0 
0 0 0 0 0 0 0 0 0 
0 0 0 0 0 0 0 0 0 
0 0 0 0 0 0 0 0 0 
0 0 0 0 0 0 0 0 0 
0 0 0 0 0 0 0 0 0 
0 0 0 0 0 0 0 0 0 
0 0 0 0 0 0 0 0 0 
0 0 0 0 0 0 0 0 0 
0 0 0 0 0 0 0 0 0 
0 0 0 0 0 0 0 0 0 
0 0 0 0 0 0 0 0 0 
0 0 0 0 0 0 0 0 0 
0 0 0 0 0 0 0 0 0 
0 0 0 0 0 0 0 0 0 
0 0 0 0 0 0 0 0 0 
0 0 0 0 0 0 0 0 0 
0 0 0 0 0 0 0 0 0 
0 0 0 0 0 0 0 0 0 
0 0 0 0 0 0 0 0 0 
0 0 0 0 0 0 0 0 0 
0 0 0 0 0 0 0 0 0 
0 0 0 0 0 0 0 0 0 
0 0 0 0 0 0 0 0 0 
0 0 0 0 0 0 0 0 0 
0 0 0 0 0 0 0 0 0 
0 0 0 0 0 0 0 0 0 
0 0 0 0 0 0 0 0 0 
0 0 0 0 0 0 0 0 0 
0 0 0 0 0 0 0 0 0 
0 0 0 0 0 0 0 0 0 
0 0 0 0 0 0 0 0 0 
0 0 0 0 0 0 0 0 0 
0 0 0 0 0 0 0 0 0 
0 0 0 0 0 0 0 0 0 
0 0 0 0 0 0 0 0 0 
0 0 0 0 0 0 0 0 0 
0 0 0 0 0 0 0 0 0 
0 0 0 0 0 0 0 0 0 
0 0 0 0 0 0 0 0 0 
0 0 0 0 0 0 0 0 0 
0 0 0 0 0 0 0 0 0 

fx_mag_viz 1 648 double
0 0 0 0 0 0 0 0 0 
0 0 0 0 0 0 0 0 0 
0 0 0 0 0 0 0 0 0 
0 0 0 0 0 0 0 0 0 
0 0 0 0 0 0 0 0 0 
0 0 0 0 0 0 0 0 0 
0 0 0 0 0 0 0 0 0 
0 0 0 0 0 0 0 0 0 
0 0 0 0 0 0 0 0 0 
0 0 0 0 0 0 0 0 0 
0 0 0 0 0 0 0 0 0 
0 0 0 0 0 0 0 0 0 
0 0 0 0 0 0 0 0 0 
0 0 0 0 0 0 0 0 0 
0 0 0 0 0 0 0 0 0 
0 0 0 0 0 0 0 0 0 
0 0 0 0 0 0 0 0 0 
0 0 0 0 0 0 0 0 0 
0 0 0 0 0 0 0 0 0 
0 0 0 0 0 0 0 0 0 
0 0 0 0 0 0 0 0 0 
0 0 0 0 0 0 0 0 0 
0 0 0 0 0 0 0 0 0 
0 0 0 0 0 0 0 0 0 
0 0 0 0 0 0 0 0 0 
0 0 0 0 0 0 0 0 0 
0 0 0 0 0 0 0 0 0 
0 0 0 0 0 0 0 0 0 
0 0 0 0 0 0 0 0 0 
0 0 0 0 0 0 0 0 0 
0 0 0 0 0 0 0 0 0 
0 0 0 0 0 0 0 0 0 
0 0 0 0 0 0 0 0 0 
0 0 0 0 0 0 0 0 0 
0 0 0 0 0 0 0 0 0 
0 0 0 0 0 0 0 0 0 
0 0 0 0 0 0 0 0 0 
0 0 0 0 0 0 0 0 0 
0 0 0 0 0 0 0 0 0 
0 0 0 0 0 0 0 0 0 
0 0 0 0 0 0 0 0 0 
0 0 0 0 0 0 0 0 0 
0 0 0 0 0 0 0 0 0 
0 0 0 0 0 0 0 0 0 
0 0 0 0 0 0 0 0 0 
0 0 0 0 0 0 0 0 0 
0 0 0 0 0 0 0 0 0 
0 0 0 0 0 0 0 0 0 
0 0 0 0 0 0 0 0 0 
0 0 0 0 0 0 0 0 0 
0 0 0 0 0 0 0 0 0 
0 0 0 0 0 0 0 0 0 
0 0 0 0 0 0 0 0 0 
0 0 0 0 0 0 0 0 0 
0 0 0 0 0 0 0 0 0 
0 0 0 0 0 0 0 0 0 
0 0 0 0 0 0 0 0 0 
0 0 0 0 0 0 0 0 0 
0 0 0 0 0 0 0 0 0 
0 0 0 0 0 0 0 0 0 
0 0 0 0 0 0 0 0 0 
0 0 0 0 0 0 0 0 0 
0 0 0 0 0 0 0 0 0 
0 0 0 0 0 0 0 0 0 
0 0 0 0 0 0 0 0 0 
0 0 0 0 0 0 0 0 0 
0 0 0 0 0 0 0 0 0 
0 0 0 0 0 0 0 0 0 
0 0 0 0 0 0 0 0 0 
0 0 0 0 0 0 0 0 0 
0 0 0 0 0 0 0 0 0 
0 0 0 0 0 0 0 0 0 

fy_mag_viz 1 648 double
0 0 0 0 0 0 0 0 0 
0 0 0 0 0 0 0 0 0 
0 0 0 0 0 0 0 0 0 
0 0 0 0 0 0 0 0 0 
0 0 0 0 0 0 0 0 0 
0 0 0 0 0 0 0 0 0 
0 0 0 0 0 0 0 0 0 
0 0 0 0 0 0 0 0 0 
0 0 0 0 0 0 0 0 0 
0 0 0 0 0 0 0 0 0 
0 0 0 0 0 0 0 0 0 
0 0 0 0 0 0 0 0 0 
0 0 0 0 0 0 0 0 0 
0 0 0 0 0 0 0 0 0 
0 0 0 0 0 0 0 0 0 
0 0 0 0 0 0 0 0 0 
0 0 0 0 0 0 0 0 0 
0 0 0 0 0 0 0 0 0 
0 0 0 0 0 0 0 0 0 
0 0 0 0 0 0 0 0 0 
0 0 0 0 0 0 0 0 0 
0 0 0 0 0 0 0 0 0 
0 0 0 0 0 0 0 0 0 
0 0 0 0 0 0 0 0 0 
0 0 0 0 0 0 0 0 0 
0 0 0 0 0 0 0 0 0 
0 0 0 0 0 0 0 0 0 
0 0 0 0 0 0 0 0 0 
0 0 0 0 0 0 0 0 0 
0 0 0 0 0 0 0 0 0 
0 0 0 0 0 0 0 0 0 
0 0 0 0 0 0 0 0 0 
0 0 0 0 0 0 0 0 0 
0 0 0 0 0 0 0 0 0 
0 0 0 0 0 0 0 0 0 
0 0 0 0 0 0 0 0 0 
0 0 0 0 0 0 0 0 0 
0 0 0 0 0 0 0 0 0 
0 0 0 0 0 0 0 0 0 
0 0 0 0 0 0 0 0 0 
0 0 0 0 0 0 0 0 0 
0 0 0 0 0 0 0 0 0 
0 0 0 0 0 0 0 0 0 
0 0 0 0 0 0 0 0 0 
0 0 0 0 0 0 0 0 0 
0 0 0 0 0 0 0 0 0 
0 0 0 0 0 0 0 0 0 
0 0 0 0 0 0 0 0 0 
0 0 0 0 0 0 0 0 0 
0 0 0 0 0 0 0 0 0 
0 0 0 0 0 0 0 0 0 
0 0 0 0 0 0 0 0 0 
0 0 0 0 0 0 0 0 0 
0 0 0 0 0 0 0 0 0 
0 0 0 0 0 0 0 0 0 
0 0 0 0 0 0 0 0 0 
0 0 0 0 0 0 0 0 0 
0 0 0 0 0 0 0 0 0 
0 0 0 0 0 0 0 0 0 
0 0 0 0 0 0 0 0 0 
0 0 0 0 0 0 0 0 0 
0 0 0 0 0 0 0 0 0 
0 0 0 0 0 0 0 0 0 
0 0 0 0 0 0 0 0 0 
0 0 0 0 0 0 0 0 0 
0 0 0 0 0 0 0 0 0 
0 0 0 0 0 0 0 0 0 
0 0 0 0 0 0 0 0 0 
0 0 0 0 0 0 0 0 0 
0 0 0 0 0 0 0 0 0 
0 0 0 0 0 0 0 0 0 
0 0 0 0 0 0 0 0 0 

fz_mag_viz 1 648 double
0 0 0 0 0 0 0 0 0 
0 0 0 0 0 0 0 0 0 
0 0 0 0 0 0 0 0 0 
0 0 0 0 0 0 0 0 0 
0 0 0 0 0 0 0 0 0 
0 0 0 0 0 0 0 0 0 
0 0 0 0 0 0 0 0 0 
0 0 0 0 0 0 0 0 0 
0 0 0 0 0 0 0 0 0 
0 0 0 0 0 0 0 0 0 
0 0 0 0 0 0 0 0 0 
0 0 0 0 0 0 0 0 0 
0 0 0 0 0 0 0 0 0 
0 0 0 0 0 0 0 0 0 
0 0 0 0 0 0 0 0 0 
0 0 0 0 0 0 0 0 0 
0 0 0 0 0 0 0 0 0 
0 0 0 0 0 0 0 0 0 
0 0 0 0 0 0 0 0 0 
0 0 0 0 0 0 0 0 0 
0 0 0 0 0 0 0 0 0 
0 0 0 0 0 0 0 0 0 
0 0 0 0 0 0 0 0 0 
0 0 0 0 0 0 0 0 0 
0 0 0 0 0 0 0 0 0 
0 0 0 0 0 0 0 0 0 
0 0 0 0 0 0 0 0 0 
0 0 0 0 0 0 0 0 0 
0 0 0 0 0 0 0 0 0 
0 0 0 0 0 0 0 0 0 
0 0 0 0 0 0 0 0 0 
0 0 0 0 0 0 0 0 0 
0 0 0 0 0 0 0 0 0 
0 0 0 0 0 0 0 0 0 
0 0 0 0 0 0 0 0 0 
0 0 0 0 0 0 0 0 0 
0 0 0 0 0 0 0 0 0 
0 0 0 0 0 0 0 0 0 
0 0 0 0 0 0 0 0 0 
0 0 0 0 0 0 0 0 0 
0 0 0 0 0 0 0 0 0 
0 0 0 0 0 0 0 0 0 
0 0 0 0 0 0 0 0 0 
0 0 0 0 0 0 0 0 0 
0 0 0 0 0 0 0 0 0 
0 0 0 0 0 0 0 0 0 
0 0 0 0 0 0 0 0 0 
0 0 0 0 0 0 0 0 0 
0 0 0 0 0 0 0 0 0 
0 0 0 0 0 0 0 0 0 
0 0 0 0 0 0 0 0 0 
0 0 0 0 0 0 0 0 0 
0 0 0 0 0 0 0 0 0 
0 0 0 0 0 0 0 0 0 
0 0 0 0 0 0 0 0 0 
0 0 0 0 0 0 0 0 0 
0 0 0 0 0 0 0 0 0 
0 0 0 0 0 0 0 0 0 
0 0 0 0 0 0 0 0 0 
0 0 0 0 0 0 0 0 0 
0 0 0 0 0 0 0 0 0 
0 0 0 0 0 0 0 0 0 
0 0 0 0 0 0 0 0 0 
0 0 0 0 0 0 0 0 0 
0 0 0 0 0 0 0 0 0 
0 0 0 0 0 0 0 0 0 
0 0 0 0 0 0 0 0 0 
0 0 0 0 0 0 0 0 0 
0 0 0 0 0 0 0 0 0 
0 0 0 0 0 0 0 0 0 
0 0 0 0 0 0 0 0 0 
0 0 0 0 0 0 0 0 0 

B_magnitude 1 648 double
0 0 0 0 0 0 0 0 0 
0 0 0 0 0 0 0 0 0 
0 0 0 0 0 0 0 0 0 
0 0 0 0 0 0 0 0 0 
0 0 0 0 0 0 0 0 0 
0 0 0 0 0 0 0 0 0 
0 0 0 0 0 0 0 0 0 
0 0 0 0 0 0 0 0 0 
0 0 0 0 0 0 0 0 0 
0 0 0 0 0 0 0 0 0 
0 0 0 0 0 0 0 0 0 
0 0 0 0 0 0 0 0 0 
0 0 0 0 0 0 0 0 0 
0 0 0 0 0 0 0 0 0 
0 0 0 0 0 0 0 0 0 
0 0 0 0 0 0 0 0 0 
0 0 0 0 0 0 0 0 0 
0 0 0 0 0 0 0 0 0 
0 0 0 0 0 0 0 0 0 
0 0 0 0 0 0 0 0 0 
0 0 0 0 0 0 0 0 0 
0 0 0 0 0 0 0 0 0 
0 0 0 0 0 0 0 0 0 
0 0 0 0 0 0 0 0 0 
0 0 0 0 0 0 0 0 0 
0 0 0 0 0 0 0 0 0 
0 0 0 0 0 0 0 0 0 
0 0 0 0 0 0 0 0 0 
0 0 0 0 0 0 0 0 0 
0 0 0 0 0 0 0 0 0 
0 0 0 0 0 0 0 0 0 
0 0 0 0 0 0 0 0 0 
0 0 0 0 0 0 0 0 0 
0 0 0 0 0 0 0 0 0 
0 0 0 0 0 0 0 0 0 
0 0 0 0 0 0 0 0 0 
0 0 0 0 0 0 0 0 0 
0 0 0 0 0 0 0 0 0 
0 0 0 0 0 0 0 0 0 
0 0 0 0 0 0 0 0 0 
0 0 0 0 0 0 0 0 0 
0 0 0 0 0 0 0 0 0 
0 0 0 0 0 0 0 0 0 
0 0 0 0 0 0 0 0 0 
0 0 0 0 0 0 0 0 0 
0 0 0 0 0 0 0 0 0 
0 0 0 0 0 0 0 0 0 
0 0 0 0 0 0 0 0 0 
0 0 0 0 0 0 0 0 0 
0 0 0 0 0 0 0 0 0 
0 0 0 0 0 0 0 0 0 
0 0 0 0 0 0 0 0 0 
0 0 0 0 0 0 0 0 0 
0 0 0 0 0 0 0 0 0 
0 0 0 0 0 0 0 0 0 
0 0 0 0 0 0 0 0 0 
0 0 0 0 0 0 0 0 0 
0 0 0 0 0 0 0 0 0 
0 0 0 0 0 0 0 0 0 
0 0 0 0 0 0 0 0 0 
0 0 0 0 0 0 0 0 0 
0 0 0 0 0 0 0 0 0 
0 0 0 0 0 0 0 0 0 
0 0 0 0 0 0 0 0 0 
0 0 0 0 0 0 0 0 0 
0 0 0 0 0 0 0 0 0 
0 0 0 0 0 0 0 0 0 
0 0 0 0 0 0 0 0 0 
0 0 0 0 0 0 0 0 0 
0 0 0 0 0 0 0 0 0 
0 0 0 0 0 0 0 0 0 
0 0 0 0 0 0 0 0 0 

B_gradient_mag 1 648 double
0 0 0 0 0 0 0 0 0 
0 0 0 0 0 0 0 0 0 
0 0 0 0 0 0 0 0 0 
0 0 0 0 0 0 0 0 0 
0 0 0 0 0 0 0 0 0 
0 0 0 0 0 0 0 0 0 
0 0 0 0 0 0 0 0 0 
0 0 0 0 0 0 0 0 0 
0 0 0 0 0 0 0 0 0 
0 0 0 0 0 0 0 0 0 
0 0 0 0 0 0 0 0 0 
0 0 0 0 0 0 0 0 0 
0 0 0 0 0 0 0 0 0 
0 0 0 0 0 0 0 0 0 
0 0 0 0 0 0 0 0 0 
0 0 0 0 0 0 0 0 0 
0 0 0 0 0 0 0 0 0 
0 0 0 0 0 0 0 0 0 
0 0 0 0 0 0 0 0 0 
0 0 0 0 0 0 0 0 0 
0 0 0 0 0 0 0 0 0 
0 0 0 0 0 0 0 0 0 
0 0 0 0 0 0 0 0 0 
0 0 0 0 0 0 0 0 0 
0 0 0 0 0 0 0 0 0 
0 0 0 0 0 0 0 0 0 
0 0 0 0 0 0 0 0 0 
0 0 0 0 0 0 0 0 0 
0 0 0 0 0 0 0 0 0 
0 0 0 0 0 0 0 0 0 
0 0 0 0 0 0 0 0 0 
0 0 0 0 0 0 0 0 0 
0 0 0 0 0 0 0 0 0 
0 0 0 0 0 0 0 0 0 
0 0 0 0 0 0 0 0 0 
0 0 0 0 0 0 0 0 0 
0 0 0 0 0 0 0 0 0 
0 0 0 0 0 0 0 0 0 
0 0 0 0 0 0 0 0 0 
0 0 0 0 0 0 0 0 0 
0 0 0 0 0 0 0 0 0 
0 0 0 0 0 0 0 0 0 
0 0 0 0 0 0 0 0 0 
0 0 0 0 0 0 0 0 0 
0 0 0 0 0 0 0 0 0 
0 0 0 0 0 0 0 0 0 
0 0 0 0 0 0 0 0 0 
0 0 0 0 0 0 0 0 0 
0 0 0 0 0 0 0 0 0 
0 0 0 0 0 0 0 0 0 
0 0 0 0 0 0 0 0 0 
0 0 0 0 0 0 0 0 0 
0 0 0 0 0 0 0 0 0 
0 0 0 0 0 0 0 0 0 
0 0 0 0 0 0 0 0 0 
0 0 0 0 0 0 0 0 0 
0 0 0 0 0 0 0 0 0 
0 0 0 0 0 0 0 0 0 
0 0 0 0 0 0 0 0 0 
0 0 0 0 0 0 0 0 0 
0 0 0 0 0 0 0 0 0 
0 0 0 0 0 0 0 0 0 
0 0 0 0 0 0 0 0 0 
0 0 0 0 0 0 0 0 0 
0 0 0 0 0 0 0 0 0 
0 0 0 0 0 0 0 0 0 
0 0 0 0 0 0 0 0 0 
0 0 0 0 0 0 0 0 0 
0 0 0 0 0 0 0 0 0 
0 0 0 0 0 0 0 0 0 
0 0 0 0 0 0 0 0 0 
0 0 0 0 0 0 0 0 0 

