# vtk DataFile Version 5.1
Generated by LIGGGHTS
ASCII
DATASET POLYDATA
POINTS 648 float
0.0156715 -0.0391733 0.00122339 -0.0108877 -0.0188832 0.00131745 0.00417698 0.0024455 0.00124381 
0.0287781 0.014071 0.00121114 -0.0390027 0.0421086 0.00112229 -0.0428902 -0.0449088 0.00205599 
0.040047 -0.0404588 0.00219995 -0.00302782 -0.0385948 0.00146039 0.00798734 -0.0367051 0.00210922 
-0.0266532 -0.0301716 0.00162468 -0.0105296 -0.0314142 0.0019874 0.0188903 -0.0308528 0.00187914 
0.00741479 -0.0295782 0.00196854 -0.0207679 -0.0256315 0.00180085 0.033456 -0.0256735 0.00207074 
0.0436787 -0.0219137 0.00234243 0.0336491 -0.0197505 0.00147892 0.0030191 -0.0179247 0.00207971 
0.0223879 -0.0163393 0.0015781 0.00689113 -0.0107816 0.00174763 0.0350526 -0.0102353 0.00174872 
-0.0198564 -0.00683511 0.00197258 -0.0129003 -0.00574839 0.00228693 0.00937085 -0.00418454 0.00190543 
-0.0179231 -0.00300678 0.00212663 -0.00783961 -0.000387029 0.00241592 0.00643655 -0.000956063 0.00217611 
0.0384376 0.000848974 0.0021011 -0.00967086 0.00179773 0.00245776 0.00347554 0.00338662 0.00159346 
0.0292006 0.00433004 0.00186445 0.0305447 0.00486582 0.00141502 -0.0287984 0.00559412 0.00135268 
0.021602 0.00540593 0.00250529 -0.0426568 0.00723228 0.00216134 0.0212596 0.00979192 0.00172755 
-0.034865 0.0142961 0.00117473 -0.0310202 0.0131063 0.0020093 0.0143092 0.0139794 0.0020269 
0.0248423 0.0143007 0.00223252 -0.0360536 0.0173104 0.00177859 0.0215224 0.0171285 0.00146341 
-0.0153727 0.020636 0.00151091 -0.0282566 0.021284 0.00136308 0.0123926 0.0218243 0.00204127 
0.03506 0.0228899 0.00170122 0.0167463 0.0251763 0.00210028 -0.0409258 0.0305044 0.00143675 
0.0297434 0.0373158 0.00180726 0.0165329 0.0385374 0.00150504 0.0251972 0.0393087 0.00142359 
-0.0308094 -0.0435702 0.00352919 -0.042922 -0.0404536 0.00335689 0.0244271 -0.0334586 0.00334787 
-0.0232422 -0.0321576 0.00258838 0.0280204 -0.0311414 0.003676 0.00577088 -0.0287415 0.00312496 
-0.0408326 -0.0234295 0.00344694 0.0433204 -0.0141837 0.00371361 0.0277003 -0.0107969 0.00258997 
-0.0112192 -0.0104501 0.00339047 0.00743742 -0.00926665 0.00302866 -0.00702036 -0.00121172 0.00295888 
-0.00757157 0.00454821 0.00353398 -0.0170872 0.00564833 0.00366832 0.0011249 0.00615697 0.00328919 
-0.0214351 0.00957734 0.00354881 0.0399323 0.0117688 0.00271573 8.23501e-07 0.0138406 0.00295733 
-0.0256005 0.0215871 0.00385095 -0.0264781 0.032823 0.00353037 0.00284552 0.0345861 0.0026376 
-0.044759 -0.0437614 0.00442938 0.0308099 -0.0378456 0.00465537 0.0333162 -0.0342631 0.00489715 
0.023158 -0.0340207 0.00428987 -0.0448384 -0.0296834 0.00449652 0.000892701 -0.0263701 0.00401726 
0.032808 -0.025967 0.00446212 -0.0317771 -0.0175651 0.00453281 0.0404767 -0.0183151 0.00444764 
-0.0257955 -0.0157834 0.00450889 -0.00254916 -0.00379952 0.00467191 0.0449494 0.00392273 0.00452382 
0.0228765 0.00606581 0.0044627 0.0221269 0.00728552 0.00420664 -0.0081225 0.0151775 0.00529265 
-0.0214239 0.0189608 0.00418463 -0.022709 0.0198803 0.00436205 -0.023041 0.0197144 0.00511275 
0.0226957 0.0260881 0.00419498 0.0364634 0.0310238 0.0038019 0.0444958 0.0309554 0.00444872 
-0.0155539 0.0359545 0.00454814 0.00308146 0.0401468 0.00474453 0.0163992 0.0415262 0.00499188 
-0.00521279 -0.0413279 0.00568519 -0.0385899 -0.0405251 0.00591942 0.0363266 -0.0194176 0.00552339 
-0.00444012 -0.0151621 0.00534239 -0.0117656 -0.0138394 0.00540601 -0.0222502 -0.00974669 0.00604986 
0.013874 -0.00963069 0.00557024 0.0282359 -0.00877456 0.00623315 0.0109664 -0.00760095 0.00562956 
0.0131353 -0.00504642 0.00545026 0.0414788 -0.00521487 0.0061274 -0.0141425 -0.00311887 0.0054279 
0.0246705 0.0064451 0.00578874 -0.0392616 0.00972366 0.00536559 -0.0101256 0.00978275 0.00570232 
0.0307708 0.0242663 0.00615812 -0.0200898 0.0311527 0.0062722 -0.0312382 0.0393096 0.00632968 
-0.0335565 -0.0442122 0.00660619 0.0418836 -0.0421436 0.00672539 0.0414821 -0.0410789 0.00685496 
-0.0248652 -0.040212 0.00761834 -0.018434 -0.0405477 0.00744539 -0.0108246 -0.0388127 0.0076301 
0.000822496 -0.0363122 0.00675133 0.0419483 -0.0348097 0.00703856 -0.0262624 -0.032473 0.00752381 
0.039775 -0.0211058 0.00716491 -0.0100897 -0.0180162 0.00731922 -0.0388614 -0.0136303 0.00681062 
-0.00433253 -0.00676057 0.00699845 0.021323 -0.00444137 0.00711454 0.00635633 0.000852437 0.00768675 
0.0340899 0.00882812 0.00720743 0.0197977 0.00963841 0.00678331 0.0398091 0.011618 0.00741357 
-0.00279986 0.0127222 0.00683831 0.00517921 0.0169249 0.00722502 0.0418335 0.0161761 0.00664936 
-0.0245993 0.0193658 0.00724735 0.0090081 0.0191686 0.00724745 -0.0296003 0.0277025 0.00728999 
0.0038092 0.0311583 0.0076592 0.01325 0.0319187 0.00748562 -0.0197415 0.0344175 0.00758824 
0.0238959 0.0383247 0.00709386 0.0131273 0.040817 0.00749712 0.0341086 -0.0368686 0.00824927 
0.00594186 -0.0351889 0.0080762 0.0306875 -0.0259396 0.00870687 -0.0225401 -0.0213878 0.00795802 
-0.0296942 -0.0196153 0.00892692 0.00156248 -0.0194187 0.00861084 0.0198229 -0.0156851 0.0089794 
0.0313953 -0.00974065 0.0084641 -0.00553214 -0.00871323 0.00806656 0.00357123 -0.00830953 0.0090371 
-0.00747582 -0.00609419 0.00812886 -0.0260142 0.00017485 0.00780406 0.0188762 0.00181355 0.00829701 
0.0283387 0.00890506 0.00793216 0.00861143 0.0123591 0.00877814 -0.00307286 0.0144526 0.00818933 
0.0121458 0.0151918 0.00816919 -0.0127911 0.0299546 0.00859436 0.00372347 0.0304157 0.00789948 
0.0104707 0.0313218 0.00828235 -0.0073504 0.0318329 0.0081303 0.00390562 0.0317225 0.00894693 
-0.00973825 0.0391656 0.0080482 0.0222253 0.0407186 0.00794652 0.0181024 -0.0433049 0.0102687 
0.0185094 -0.042363 0.0102305 0.0348044 -0.042095 0.00985758 -0.0349861 -0.0412827 0.01037 
-0.00674967 -0.0416523 0.00903785 -0.0334706 -0.0396012 0.00920775 -0.0168273 -0.0360331 0.00984929 
0.0289145 -0.0340196 0.010128 0.0346336 -0.0325969 0.0103025 0.0449741 -0.0303513 0.010239 
-0.015788 -0.0282898 0.00938334 -0.0430551 -0.0267583 0.00940259 0.0101031 -0.0273014 0.009696 
-0.0419519 -0.0259749 0.0097369 -0.0339565 -0.0167518 0.00981515 -0.0227164 -0.0141288 0.00980104 
0.0286804 -0.00919085 0.0090937 -0.040885 -0.00406647 0.0102473 0.0180565 -0.00487531 0.0094961 
0.0154702 -0.00154679 0.0102901 -0.0356048 -0.000104637 0.0102519 0.0290986 -0.000251763 0.0100719 
0.032558 0.00153523 0.0102127 -0.0394276 0.0109375 0.00952874 0.0379188 0.0120326 0.0102241 
0.0114764 0.0140289 0.0100227 -0.0144089 0.0201081 0.00929486 -0.0170112 0.0231088 0.00943246 
-0.0386663 0.0253433 0.00986852 -0.0267569 0.0263983 0.0101691 -0.00563177 0.0268155 0.00939584 
-0.0313244 0.0314049 0.009079 -0.041477 0.0364172 0.0095675 -0.0440308 0.0448256 0.00992346 
0.0339316 -0.041715 0.0111222 0.0338942 -0.0410147 0.0110064 0.0433459 -0.0353282 0.0107291 
-0.00586029 -0.0338127 0.0105228 -0.0160452 -0.0323821 0.0116962 0.0346338 -0.0290927 0.0114099 
-0.00446216 -0.0255279 0.0105425 0.0155599 -0.0240909 0.0115981 0.00623721 -0.0211799 0.0111578 
0.0233461 -0.0214624 0.010754 -0.00827992 -0.020547 0.0112745 0.0414834 -0.0181367 0.0112859 
-0.0426154 -0.0165053 0.0105428 -0.0405162 -0.0161033 0.011303 0.0251729 -0.00985964 0.0111319 
-0.00254943 -0.00825679 0.0104511 0.0275881 -0.00673863 0.0104518 0.0404774 -0.00688032 0.0112068 
0.0387156 -0.00624884 0.0107725 -0.0120059 -0.00345367 0.0106075 0.0293019 -0.00298432 0.0107152 
-0.0281455 -0.00127675 0.0106333 -0.0325416 0.00283857 0.0104039 0.00265626 0.00371614 0.0111648 
-0.025141 0.00447188 0.0108717 0.00314898 0.00491531 0.0108794 0.0404406 0.00462082 0.0115043 
0.0101693 0.00555192 0.0113691 0.030759 0.00580352 0.0110066 0.0320014 0.00756294 0.0115269 
0.0211953 0.00966092 0.0109233 -0.0365733 0.0119208 0.0112623 0.000954082 0.0152563 0.0111993 
0.0407412 0.0174253 0.0112064 0.00395304 0.0187088 0.0109547 0.018015 0.0183735 0.0116425 
0.0323341 0.0191974 0.0116735 0.0181332 0.0246356 0.0103782 -0.00739359 0.0259593 0.0109751 
0.0395905 0.0272142 0.010568 -0.0357156 0.0282031 0.0109883 0.0191509 0.0299648 0.0106797 
-0.0108954 0.0304 0.0105782 0.026696 0.03017 0.0105135 -0.0213481 0.0319153 0.0110016 
-0.0337286 0.0337045 0.011435 0.0152528 0.033152 0.0117494 0.0231674 0.0340949 0.0106668 
-0.0112537 0.0395394 0.0114819 -0.0437633 0.0406561 0.0117203 0.0294278 0.0431452 0.0110298 
-0.0205282 0.0432397 0.0111939 0.0405446 0.0433429 0.0111101 -0.0160353 0.0448572 0.0104873 
-0.027409 -0.0433703 0.012469 -0.00670669 -0.0394183 0.0128421 -0.0439713 -0.0357399 0.0126254 
0.00879071 -0.0344865 0.0123912 -0.0427235 -0.0332389 0.0122622 0.027474 -0.0338615 0.0121457 
0.00802514 -0.031483 0.0126842 0.0164647 -0.0275391 0.0126004 -0.00580099 -0.0272788 0.0126838 
-0.0336946 -0.0248459 0.0127411 -0.0420316 -0.0145538 0.0124759 0.0268005 -0.0146468 0.0121115 
-0.0329121 -0.0139828 0.0122883 0.0176437 -0.0119747 0.0116598 0.0342493 -0.0115037 0.0125182 
0.0414517 -0.0114994 0.013049 -0.0343844 -0.0078404 0.0128427 -0.0304645 -0.00701594 0.0118892 
-0.00401126 -0.00720159 0.0123993 -0.042786 -0.00359954 0.0117476 0.00664535 -0.00164817 0.0123701 
-0.00229178 0.0020129 0.0127223 0.0147261 0.00139147 0.0126975 -0.0371624 0.011326 0.0124408 
0.00243185 0.0120975 0.0116772 0.0153641 0.0146287 0.0123887 0.00128112 0.0217131 0.0118465 
-0.0267196 0.0236159 0.0123162 -0.00782209 0.0241861 0.0119574 0.0258603 0.0235991 0.0116755 
-0.0269229 0.0267788 0.0117944 -0.0102477 0.0267602 0.0128516 0.00953871 0.0271324 0.0124753 
0.00834461 0.0278725 0.0126419 0.0372507 0.0318783 0.0129407 0.0164577 0.0353116 0.0121376 
-0.0245447 0.0378537 0.0121057 0.0221021 0.0401282 0.0117929 -0.0133259 0.0414802 0.0120699 
0.00805094 0.0422278 0.0117932 0.0399235 0.0434757 0.0126646 -0.00340304 -0.0448428 0.0130331 
0.0262096 -0.0449372 0.0132115 0.0416479 -0.0439733 0.0131748 0.0248068 -0.0428986 0.0140879 
0.000425919 -0.0415728 0.0140093 -0.0169239 -0.0402939 0.0141222 0.0244803 -0.0401788 0.0136646 
-0.0273176 -0.0361067 0.0136326 0.0077947 -0.0345433 0.013246 0.00264867 -0.0338128 0.0134456 
-0.0386911 -0.0311434 0.0129747 -0.0338231 -0.0250135 0.0130361 -0.0329608 -0.0218045 0.0131082 
-0.0328213 -0.0176588 0.0139057 -0.0204621 -0.0172006 0.0137881 -0.0393221 -0.0167834 0.0136436 
-0.015814 -0.0152491 0.0138021 0.0375745 -0.0151367 0.0139001 -0.0341597 -0.0122829 0.0136837 
-0.0269092 -0.0125643 0.0137326 -0.0207563 -0.0111167 0.0141166 0.0223025 -0.0112244 0.0132894 
-0.0386256 -0.00983966 0.0136274 -0.0326334 -0.00963456 0.0135636 -0.0196799 -0.00931279 0.0135188 
-0.024842 -0.00884532 0.0132661 -0.0408474 -0.00214648 0.0131238 -0.0376932 -0.000132947 0.0130644 
-0.0416237 0.00110806 0.0142268 0.0277548 0.0042931 0.0141532 -0.0406381 0.00555966 0.0137012 
-0.037077 0.00611456 0.0132539 -0.00723413 0.00605583 0.0141648 0.00533928 0.00728904 0.0131659 
0.0142017 0.0079404 0.0132 0.0202046 0.00840095 0.0132311 0.00474506 0.0103043 0.0133283 
0.014866 0.0127598 0.0137445 -0.0429188 0.0135204 0.0141083 -0.00443291 0.0160613 0.0142 
0.00757299 0.0192258 0.0137295 0.00976854 0.0197772 0.0142384 -0.0349287 0.0230684 0.0137676 
0.0146363 0.0223077 0.0139297 0.000162142 0.0251126 0.01411 0.0434247 0.0295768 0.0135185 
-0.0368667 0.0306348 0.014151 -0.032208 0.0306075 0.0142902 0.0354139 0.0312817 0.0137056 
-0.00435696 0.0325462 0.0133828 -0.00196307 0.0366495 0.0130775 -0.0375088 0.0393741 0.0137942 
-0.0281804 0.0418824 0.0138605 0.00513794 0.0433856 0.0135515 0.0114086 0.0440135 0.0138036 
0.0171919 0.0449185 0.0136427 0.0211706 0.0445491 0.0137755 -0.0346971 -0.0446764 0.0143407 
0.0145521 -0.0432303 0.0153677 -0.0248654 -0.0427111 0.0145428 0.0238162 -0.0409762 0.0144865 
-0.0370475 -0.0370945 0.0143716 0.0397687 -0.0374633 0.0146478 -0.00161929 -0.0353994 0.0149226 
0.0195647 -0.0366528 0.0145494 0.0403097 -0.0347888 0.0150225 0.00231692 -0.0294453 0.0148992 
-0.0401314 -0.0280847 0.0146928 -0.0240719 -0.0268296 0.0150788 0.03382 -0.0268981 0.0147354 
-0.0328109 -0.0226975 0.0148249 0.0115492 -0.0227248 0.0151187 -0.0323128 -0.0219837 0.0152153 
-0.0164034 -0.0216001 0.0149361 0.0262592 -0.0217201 0.0149477 0.0252581 -0.0163235 0.0152107 
-0.0408642 -0.0154151 0.0149784 0.0249316 -0.014475 0.0150484 0.0302919 -0.0148257 0.0153996 
0.0403752 -0.0143085 0.0154922 -0.0449336 -0.00957357 0.014859 -0.0135858 -0.00672635 0.0151786 
0.0129906 -0.00677597 0.0147256 -0.000610522 -0.00103491 0.015453 0.0362421 0.00170773 0.0146508 
0.0332757 0.00539899 0.0143391 0.00978397 0.00922321 0.014633 -0.0350204 0.0121089 0.0149167 
-0.00831541 0.0129665 0.0149755 0.0128044 0.0127337 0.0150994 0.0261916 0.0119357 0.0145254 
0.00789931 0.0136568 0.0144323 -0.0196462 0.0155185 0.0153666 0.012585 0.0155082 0.0152277 
0.00546842 0.0177814 0.0143677 0.0226738 0.0181095 0.0153744 0.0256029 0.0175394 0.0149255 
0.0122157 0.0191756 0.0149217 0.0388885 0.0193682 0.0148907 -0.0431379 0.0208085 0.014868 
0.00153271 0.0201988 0.0155443 0.0350116 0.0207306 0.0149894 0.0362273 0.0220011 0.0143354 
-0.0421793 0.0225172 0.0147492 -0.0295899 0.0232577 0.0148894 -0.0190887 0.0269029 0.0153813 
-0.0114472 0.026715 0.014784 -0.0376379 0.0294143 0.0153714 -0.0219587 0.0304934 0.0154663 
0.0030545 0.0369981 0.0143527 0.0311732 0.0371467 0.015229 -0.00883869 0.0381834 0.0147094 
0.0281745 0.039089 0.0149307 -0.0181988 0.0434549 0.0149671 0.0131812 -0.0427533 0.016666 
0.0201641 -0.0426709 0.0160487 -0.0406141 -0.0405112 0.0158872 -0.0177429 -0.0346724 0.0162021 
-0.0376897 -0.0314333 0.0156665 0.0268369 -0.0315202 0.016563 -0.0263426 -0.0292431 0.0159705 
0.023019 -0.0293484 0.0159536 0.0392765 -0.0300093 0.0166695 0.0412685 -0.0295104 0.0161465 
-0.0240024 -0.0280603 0.0164202 0.00538025 -0.0241403 0.0159498 -0.0350278 -0.0224863 0.0163418 
-0.0291427 -0.0219343 0.0163096 0.00548761 -0.0197918 0.0158231 -0.0183202 -0.0175475 0.016392 
0.0184681 -0.0172117 0.0161643 0.038292 -0.016257 0.0168562 -0.0313057 -0.0141988 0.016171 
-0.0186412 -0.0134353 0.016823 -0.0327621 -0.0121928 0.0165761 0.0322358 -0.0130621 0.0158528 
-0.0136128 -0.00979682 0.0164737 0.0406218 -0.0100941 0.0155808 -0.042331 -0.00792816 0.0155996 
-0.0214415 -0.007536 0.0165931 0.0161928 -0.00760918 0.0161939 -0.00474481 -0.00600267 0.015958 
0.00523139 -0.00599236 0.0156205 0.00975646 -0.00313231 0.0165611 -0.0395569 -0.00227866 0.0164314 
-0.00896956 -0.00131708 0.0163466 0.0407777 0.000744206 0.015684 0.00243665 0.00282786 0.0168409 
0.0323225 0.00436429 0.015626 -0.00552594 0.00555795 0.0164967 0.0250346 0.00641518 0.0161168 
0.0110904 0.00657535 0.0168101 -0.0349081 0.00917553 0.0161252 -0.00867948 0.0139924 0.016126 
0.0336082 0.013194 0.0157718 0.0441199 0.0136981 0.0163377 0.0440772 0.0154938 0.0165437 
-0.0193355 0.018129 0.0168966 -0.0287332 0.0215601 0.0166875 -0.0122989 0.0222019 0.0167546 
0.00264144 0.0247174 0.0160099 0.0438582 0.0244724 0.0168027 0.00519606 0.0301696 0.0162687 
0.0214431 0.0335886 0.0156124 -0.0422696 0.0340949 0.0163861 -0.00472634 0.0344449 0.0160716 
0.00317215 0.0343196 0.0161275 -0.0407273 0.0358476 0.0158192 0.0439232 0.0371117 0.0161675 
-0.00647711 0.0391566 0.0157682 0.0352379 0.0438995 0.0157307 0.0352701 0.0439749 0.0166431 
-0.00396528 -0.0444182 0.0177207 0.0195053 -0.043722 0.0181345 -0.0136468 -0.0412372 0.0181419 
0.0166138 -0.0412108 0.0171782 0.0424299 -0.0409921 0.017171 0.00985621 -0.0367022 0.0173476 
-0.0309963 -0.0355024 0.0173577 0.0355384 -0.0354155 0.0169196 -0.0161578 -0.0337243 0.0179963 
-0.0220587 -0.0306349 0.0178875 -0.0414327 -0.0290659 0.0176074 -0.0432264 -0.0264101 0.0172742 
0.0054016 -0.025334 0.0169849 -0.00863888 -0.0237376 0.0175845 0.0102479 -0.024092 0.0178998 
-0.0127621 -0.0231756 0.0181291 0.0109547 -0.0235646 0.0180422 0.0240101 -0.0228809 0.0180677 
0.035159 -0.023363 0.0172262 0.0394323 -0.021923 0.0181365 -0.0210835 -0.0209207 0.0179 
-0.0033641 -0.0204173 0.017911 0.0218308 -0.0192565 0.0173115 -0.0147645 -0.0165889 0.017931 
0.0323803 -0.0150629 0.0180302 0.0323804 -0.0132471 0.0170084 -0.038829 -0.00978443 0.0169156 
0.0334462 -0.00930086 0.0179233 -0.0344646 -0.00725539 0.0169523 -0.0211095 -0.00770044 0.0174274 
0.0180458 -0.00470109 0.0169366 0.0200271 -0.00425623 0.0179826 -0.00941413 -0.00330341 0.0173222 
0.0168839 -0.00210364 0.0177038 -0.0283489 -0.000417126 0.017534 -0.0153419 -0.00108619 0.0177361 
0.0140084 -6.89735e-05 0.0174344 0.0116524 0.00206193 0.0178658 -0.0261639 0.00337815 0.0181412 
0.0183943 0.00266245 0.0181816 -0.0105861 0.00898083 0.0178857 -0.00841171 0.0143034 0.0176644 
0.0311878 0.014057 0.0172251 0.0396593 0.013993 0.0178361 0.0398418 0.0217469 0.0171113 
-0.0148746 0.0223253 0.0179188 0.00126512 0.0228658 0.0176712 -0.0406313 0.0295913 0.0177545 
-0.0152062 0.0294088 0.0177195 0.0191028 0.0315895 0.0181369 0.00727395 0.0332762 0.017697 
0.00888594 0.0360502 0.0181315 -0.00585061 0.0388609 0.0173414 -0.039126 0.0399637 0.0175116 
0.00528787 0.0432844 0.0179798 -0.0389435 -0.0425966 0.0193436 0.0406519 -0.0427256 0.0194247 
0.0325128 -0.03812 0.0190503 -8.23525e-05 -0.034098 0.0187387 -0.0177803 -0.0340186 0.0183015 
-0.0233761 -0.031813 0.0188596 -0.0396817 -0.0304797 0.018477 -0.0346801 -0.0287009 0.0187798 
0.0153133 -0.0285941 0.0183008 0.0347572 -0.0260666 0.0193198 0.00179778 -0.0247441 0.018235 
0.00558373 -0.0242787 0.0182091 -0.0139777 -0.0223984 0.0190472 0.0282033 -0.0178095 0.0184495 
0.0132043 -0.01541 0.0188178 -0.0279963 -0.0141356 0.0187796 0.0144468 -0.013247 0.0181958 
-0.00528066 -0.0121118 0.0184358 -0.0253401 -0.0103599 0.0194767 -0.0150798 -0.00698339 0.018822 
-0.0253129 -0.0039775 0.0187758 -0.0107529 -0.00365687 0.018408 -0.0198668 -0.00211416 0.0184872 
-0.0233311 0.00384073 0.0192182 0.0260144 0.00429017 0.0190046 -0.0403489 0.00598291 0.0190838 
0.0358407 0.00533501 0.0189574 -0.0429246 0.00657681 0.01845 -0.019893 0.00878872 0.0193322 
0.023953 0.00820576 0.0189995 0.0324887 0.00836074 0.0192656 0.0234497 0.00978487 0.0190338 
-0.00071691 0.0108932 0.018797 -0.0231109 0.0157017 0.0185186 -0.0408838 0.0159645 0.018932 
-0.0324762 0.0230005 0.0190947 -0.0436572 0.0238848 0.0194254 -0.0128609 0.0265935 0.0183213 
0.0397191 0.0283771 0.0190881 0.0040127 0.0314243 0.0194883 0.0193546 0.0324404 0.0181924 
-0.0425374 0.0333781 0.0186259 0.0278529 0.0342296 0.0189452 0.00367032 0.0371324 0.0192866 
0.00201585 0.0404036 0.018492 -0.0390775 0.0447256 0.0186566 -0.0317519 -0.0446953 0.0203509 
0.00849583 -0.0405939 0.0198693 -0.0289295 -0.0389067 0.0198058 -0.0234086 -0.038644 0.020688 
-0.0195638 -0.0385913 0.0196442 -0.00338111 -0.0363358 0.0201887 0.0307351 -0.0355434 0.0201317 
-0.0179089 -0.0346335 0.0205233 -0.0210092 -0.0320472 0.0196991 0.010226 -0.0308634 0.0204154 
0.0156293 -0.0283842 0.0202117 0.0350196 -0.0250011 0.0203629 0.0210005 -0.0239559 0.0198455 
-0.038621 -0.0229432 0.0205858 -0.0207996 -0.0190456 0.0195192 0.0134129 -0.0192809 0.0199216 
0.0204492 -0.0194639 0.020264 0.0296492 -0.015918 0.0200841 -0.00710141 -0.0133745 0.0197567 
0.00886689 -0.0141191 0.0200335 0.0347312 -0.012978 0.0200983 0.0253763 -0.011051 0.0199363 
0.0218314 -0.00971151 0.0202455 -0.0101373 -0.00698039 0.0200822 -0.00720807 -0.00608605 0.0201983 
0.00127443 -0.000618905 0.0199095 0.0420414 -0.00101026 0.0196806 -0.0332593 0.000859011 0.0202715 
0.0189244 0.00254502 0.0198892 -0.027449 0.00511055 0.0199764 -0.01547 0.00642247 0.0201776 
-0.009285 0.00693532 0.0207671 -0.00598638 0.00689803 0.0206714 -0.0408306 0.00999374 0.0196657 
-0.0408092 0.00981999 0.0197977 0.027557 0.009967 0.0197709 -0.00808524 0.0113378 0.0195244 
0.012949 0.0143048 0.0195121 -0.0287818 0.014969 0.0196103 -0.0286532 0.0159811 0.0197202 
-0.0161548 0.0159009 0.020385 -0.00317984 0.0164631 0.0197614 -0.0436896 0.0195853 0.0201031 
-0.0363159 0.0185996 0.0196105 0.00742845 0.0199749 0.0196146 -0.0138035 0.0240512 0.020226 
0.021223 0.0244832 0.0205783 -0.0132251 0.0252506 0.02036 -0.0214233 0.0285543 0.0196479 
0.0337272 0.0324898 0.0197288 0.0380057 0.0324307 0.0197503 -0.00750544 0.0361316 0.0201107 
-0.0379532 0.0399341 0.0205512 -0.00785852 0.041878 0.0207601 0.0170579 0.0421878 0.0200179 
0.0430506 0.0422314 0.0206814 0.0147823 -0.0446949 0.0220185 0.043014 -0.0343178 0.0211019 
-0.0131355 0.00164571 0.0216503 -0.0137512 0.00384646 0.0219495 0.00418285 0.0112423 0.021123 
0.00976298 0.0163696 0.0216573 -0.0359241 0.0337864 0.0212946 0.0132394 0.0345575 0.0212665 
-0.0190394 0.0446837 0.0211622 -0.00682403 -0.0314098 0.0224936 0.0272875 -0.0186725 0.0228906 
0.0386193 -0.00496685 0.0221587 0.0448793 -0.00396119 0.0233205 0.0133448 0.00646544 0.0232613 
-0.014478 0.0275162 0.0223277 -0.0225361 -0.0441701 0.024615 0.0352883 -0.0103067 0.0245317 
0.0127657 -0.00746761 0.0242213 0.039455 -0.000236508 0.0241717 -0.0442311 0.00821601 0.0236561 
-0.0122189 0.0175978 0.0245124 -0.0260391 0.0304395 0.0242372 0.0242571 -0.0100823 0.0360591 

VERTICES 649 648
OFFSETS vtktypeint64
0 1 2 3 4 5 6 7 8 
9 10 11 12 13 14 15 16 17 
18 19 20 21 22 23 24 25 26 
27 28 29 30 31 32 33 34 35 
36 37 38 39 40 41 42 43 44 
45 46 47 48 49 50 51 52 53 
54 55 56 57 58 59 60 61 62 
63 64 65 66 67 68 69 70 71 
72 73 74 75 76 77 78 79 80 
81 82 83 84 85 86 87 88 89 
90 91 92 93 94 95 96 97 98 
99 100 101 102 103 104 105 106 107 
108 109 110 111 112 113 114 115 116 
117 118 119 120 121 122 123 124 125 
126 127 128 129 130 131 132 133 134 
135 136 137 138 139 140 141 142 143 
144 145 146 147 148 149 150 151 152 
153 154 155 156 157 158 159 160 161 
162 163 164 165 166 167 168 169 170 
171 172 173 174 175 176 177 178 179 
180 181 182 183 184 185 186 187 188 
189 190 191 192 193 194 195 196 197 
198 199 200 201 202 203 204 205 206 
207 208 209 210 211 212 213 214 215 
216 217 218 219 220 221 222 223 224 
225 226 227 228 229 230 231 232 233 
234 235 236 237 238 239 240 241 242 
243 244 245 246 247 248 249 250 251 
252 253 254 255 256 257 258 259 260 
261 262 263 264 265 266 267 268 269 
270 271 272 273 274 275 276 277 278 
279 280 281 282 283 284 285 286 287 
288 289 290 291 292 293 294 295 296 
297 298 299 300 301 302 303 304 305 
306 307 308 309 310 311 312 313 314 
315 316 317 318 319 320 321 322 323 
324 325 326 327 328 329 330 331 332 
333 334 335 336 337 338 339 340 341 
342 343 344 345 346 347 348 349 350 
351 352 353 354 355 356 357 358 359 
360 361 362 363 364 365 366 367 368 
369 370 371 372 373 374 375 376 377 
378 379 380 381 382 383 384 385 386 
387 388 389 390 391 392 393 394 395 
396 397 398 399 400 401 402 403 404 
405 406 407 408 409 410 411 412 413 
414 415 416 417 418 419 420 421 422 
423 424 425 426 427 428 429 430 431 
432 433 434 435 436 437 438 439 440 
441 442 443 444 445 446 447 448 449 
450 451 452 453 454 455 456 457 458 
459 460 461 462 463 464 465 466 467 
468 469 470 471 472 473 474 475 476 
477 478 479 480 481 482 483 484 485 
486 487 488 489 490 491 492 493 494 
495 496 497 498 499 500 501 502 503 
504 505 506 507 508 509 510 511 512 
513 514 515 516 517 518 519 520 521 
522 523 524 525 526 527 528 529 530 
531 532 533 534 535 536 537 538 539 
540 541 542 543 544 545 546 547 548 
549 550 551 552 553 554 555 556 557 
558 559 560 561 562 563 564 565 566 
567 568 569 570 571 572 573 574 575 
576 577 578 579 580 581 582 583 584 
585 586 587 588 589 590 591 592 593 
594 595 596 597 598 599 600 601 602 
603 604 605 606 607 608 609 610 611 
612 613 614 615 616 617 618 619 620 
621 622 623 624 625 626 627 628 629 
630 631 632 633 634 635 636 637 638 
639 640 641 642 643 644 645 646 647 
648 
CONNECTIVITY vtktypeint64
0 1 2 3 4 5 6 7 8 
9 10 11 12 13 14 15 16 17 
18 19 20 21 22 23 24 25 26 
27 28 29 30 31 32 33 34 35 
36 37 38 39 40 41 42 43 44 
45 46 47 48 49 50 51 52 53 
54 55 56 57 58 59 60 61 62 
63 64 65 66 67 68 69 70 71 
72 73 74 75 76 77 78 79 80 
81 82 83 84 85 86 87 88 89 
90 91 92 93 94 95 96 97 98 
99 100 101 102 103 104 105 106 107 
108 109 110 111 112 113 114 115 116 
117 118 119 120 121 122 123 124 125 
126 127 128 129 130 131 132 133 134 
135 136 137 138 139 140 141 142 143 
144 145 146 147 148 149 150 151 152 
153 154 155 156 157 158 159 160 161 
162 163 164 165 166 167 168 169 170 
171 172 173 174 175 176 177 178 179 
180 181 182 183 184 185 186 187 188 
189 190 191 192 193 194 195 196 197 
198 199 200 201 202 203 204 205 206 
207 208 209 210 211 212 213 214 215 
216 217 218 219 220 221 222 223 224 
225 226 227 228 229 230 231 232 233 
234 235 236 237 238 239 240 241 242 
243 244 245 246 247 248 249 250 251 
252 253 254 255 256 257 258 259 260 
261 262 263 264 265 266 267 268 269 
270 271 272 273 274 275 276 277 278 
279 280 281 282 283 284 285 286 287 
288 289 290 291 292 293 294 295 296 
297 298 299 300 301 302 303 304 305 
306 307 308 309 310 311 312 313 314 
315 316 317 318 319 320 321 322 323 
324 325 326 327 328 329 330 331 332 
333 334 335 336 337 338 339 340 341 
342 343 344 345 346 347 348 349 350 
351 352 353 354 355 356 357 358 359 
360 361 362 363 364 365 366 367 368 
369 370 371 372 373 374 375 376 377 
378 379 380 381 382 383 384 385 386 
387 388 389 390 391 392 393 394 395 
396 397 398 399 400 401 402 403 404 
405 406 407 408 409 410 411 412 413 
414 415 416 417 418 419 420 421 422 
423 424 425 426 427 428 429 430 431 
432 433 434 435 436 437 438 439 440 
441 442 443 444 445 446 447 448 449 
450 451 452 453 454 455 456 457 458 
459 460 461 462 463 464 465 466 467 
468 469 470 471 472 473 474 475 476 
477 478 479 480 481 482 483 484 485 
486 487 488 489 490 491 492 493 494 
495 496 497 498 499 500 501 502 503 
504 505 506 507 508 509 510 511 512 
513 514 515 516 517 518 519 520 521 
522 523 524 525 526 527 528 529 530 
531 532 533 534 535 536 537 538 539 
540 541 542 543 544 545 546 547 548 
549 550 551 552 553 554 555 556 557 
558 559 560 561 562 563 564 565 566 
567 568 569 570 571 572 573 574 575 
576 577 578 579 580 581 582 583 584 
585 586 587 588 589 590 591 592 593 
594 595 596 597 598 599 600 601 602 
603 604 605 606 607 608 609 610 611 
612 613 614 615 616 617 618 619 620 
621 622 623 624 625 626 627 628 629 
630 631 632 633 634 635 636 637 638 
639 640 641 642 643 644 645 646 647 

POINT_DATA 648
FIELD FieldData 12
id 1 648 int
459 154 175 310 372 164 508 92 115 
304 185 636 640 627 190 317 470 289 
444 106 293 72 383 370 57 132 621 
465 36 641 418 458 407 396 450 214 
297 169 150 491 433 339 166 49 18 
219 195 506 362 246 386 200 134 347 
404 107 331 282 644 292 231 428 66 
631 478 456 197 432 322 646 270 85 
463 356 88 51 137 291 267 439 355 
176 642 86 467 423 619 110 149 521 
163 26 327 624 643 412 632 648 238 
381 215 227 127 602 336 515 647 385 
353 261 288 189 187 318 366 218 207 
87 35 34 24 584 303 237 247 58 
6 125 630 165 255 373 60 193 40 
582 364 609 158 29 600 328 606 626 
367 121 64 479 440 168 157 324 608 
243 83 186 129 401 202 308 504 201 
611 253 148 320 62 346 635 140 562 
457 256 226 634 543 352 629 128 645 
574 73 612 483 567 11 610 568 341 
538 601 620 633 625 588 100 408 280 
488 233 639 597 577 605 571 570 294 
604 71 167 472 174 603 496 572 427 
260 615 368 299 257 592 542 334 598 
56 593 141 546 454 556 420 345 469 
392 417 117 607 12 162 461 410 321 
343 268 583 348 579 251 155 575 108 
406 272 614 188 314 22 319 229 589 
505 445 409 581 590 290 500 349 628 
638 563 399 42 263 135 565 90 595 
273 622 337 109 14 507 637 535 199 
509 94 552 437 435 361 91 351 98 
534 31 390 591 99 326 82 489 616 
333 415 578 274 298 618 374 194 380 
8 585 599 544 617 248 569 360 204 
75 613 503 495 486 426 424 112 338 
21 384 220 443 514 330 104 9 114 
594 596 623 222 232 76 555 586 302 
55 438 275 84 113 429 411 122 159 
436 69 139 502 13 183 541 449 576 
160 573 553 143 240 537 211 554 32 
580 564 61 126 497 181 262 378 446 
46 178 560 587 54 118 447 161 357 
561 33 529 287 254 498 30 451 419 
182 198 559 536 375 414 203 549 518 
477 5 295 103 533 548 96 484 526 
547 28 539 551 170 306 59 146 566 
264 311 95 10 278 557 377 20 382 
151 196 244 216 545 474 528 400 119 
236 63 358 184 138 431 520 206 81 
235 550 387 313 309 531 413 475 397 
89 93 68 52 271 102 487 344 156 
250 393 527 532 493 223 416 192 323 
329 111 403 25 558 462 74 530 16 
38 53 511 252 105 142 371 205 217 
265 208 519 305 144 17 395 363 279 
325 394 524 540 481 225 286 45 523 
342 258 471 359 388 350 239 525 354 
147 430 116 79 513 517 376 276 460 
43 23 522 285 171 405 212 379 501 
153 301 124 510 145 296 221 70 315 
130 191 266 179 332 65 455 421 482 
123 476 242 136 312 173 210 67 492 
402 307 283 120 335 234 37 177 44 
448 422 490 441 259 340 101 39 224 
365 80 389 77 284 245 425 213 453 
4 480 442 41 48 228 468 473 152 
485 281 97 78 131 209 180 466 452 
249 277 434 19 241 47 499 300 464 
15 494 391 172 398 516 133 50 512 
369 230 3 27 2 316 7 269 1 

type 1 648 int
1 1 1 1 1 1 1 1 1 
1 1 1 1 1 1 1 1 1 
1 1 1 1 1 1 1 1 1 
1 1 1 1 1 1 1 1 1 
1 1 1 1 1 1 1 1 1 
1 1 1 1 1 1 1 1 1 
1 1 1 1 1 1 1 1 1 
1 1 1 1 1 1 1 1 1 
1 1 1 1 1 1 1 1 1 
1 1 1 1 1 1 1 1 1 
1 1 1 1 1 1 1 1 1 
1 1 1 1 1 1 1 1 1 
1 1 1 1 1 1 1 1 1 
1 1 1 1 1 1 1 1 1 
2 1 1 1 1 1 1 1 1 
1 1 1 1 1 1 1 1 1 
1 1 1 1 1 1 1 1 1 
1 1 1 1 1 1 1 1 1 
1 1 1 1 1 1 1 1 1 
1 1 1 2 1 1 1 1 1 
1 1 1 1 1 2 1 1 1 
1 1 1 1 1 1 1 1 1 
1 1 1 1 1 1 1 1 1 
1 1 1 1 1 1 1 1 1 
1 1 1 1 1 1 1 1 1 
1 1 1 1 1 1 1 1 1 
1 1 1 1 2 1 1 1 1 
1 1 1 1 1 1 1 1 1 
1 1 1 1 1 1 1 1 1 
1 1 1 1 1 1 1 1 1 
1 1 1 1 1 1 1 1 1 
1 1 1 1 2 1 1 1 1 
1 1 1 1 1 1 1 1 1 
1 1 1 1 1 1 1 1 1 
1 1 1 1 1 1 1 1 1 
2 1 1 1 1 1 1 1 1 
1 1 1 1 1 1 1 1 1 
1 1 1 1 1 1 1 2 1 
1 1 1 1 1 1 1 1 1 
1 1 1 1 1 1 1 1 1 
1 1 1 1 2 1 1 1 1 
1 1 1 1 1 1 1 1 1 
1 1 1 1 1 1 1 1 1 
1 1 1 1 1 1 1 1 1 
1 1 1 1 1 1 1 1 1 
1 1 1 1 1 1 1 1 1 
1 2 1 1 1 1 1 1 1 
1 1 1 1 1 1 1 1 1 
1 1 1 2 1 1 1 1 1 
1 1 1 1 1 1 1 1 1 
1 1 1 1 1 1 1 1 1 
1 1 1 1 1 1 1 1 1 
1 1 1 1 1 1 1 1 1 
1 1 1 1 1 1 1 1 1 
1 1 1 1 1 1 1 1 2 
1 1 1 1 1 1 1 1 1 
1 1 1 1 1 1 1 1 1 
1 1 1 1 1 1 1 1 1 
1 1 1 1 1 1 1 1 1 
1 1 1 1 1 1 1 1 1 
1 1 1 1 1 1 1 1 1 
1 1 1 1 1 1 1 1 1 
1 1 1 1 1 1 1 1 1 
1 1 1 1 1 1 1 1 1 
1 1 1 1 1 1 1 1 1 
1 1 1 1 1 1 1 1 1 
1 1 1 1 1 1 1 1 1 
2 1 1 1 1 1 1 1 1 
1 1 1 1 1 1 1 1 1 
1 1 1 1 1 1 1 1 1 
2 1 1 1 1 2 1 1 2 
1 1 2 1 3 1 2 1 4 

i 3 648 int
0 0 0 0 0 0 0 0 0 
0 0 0 0 0 0 0 0 0 
0 0 0 0 0 0 0 0 0 
0 0 0 0 0 0 0 0 0 
0 0 0 0 0 0 0 0 0 
0 0 0 0 0 0 0 0 0 
0 0 0 0 0 0 0 0 0 
0 0 0 0 0 0 0 0 0 
0 0 0 0 0 0 0 0 0 
0 0 0 0 0 0 0 0 0 
0 0 0 0 0 0 0 0 0 
0 0 0 0 0 0 0 0 0 
0 0 0 0 0 0 0 0 0 
0 0 0 0 0 0 0 0 0 
0 0 0 0 0 0 0 0 0 
0 0 0 0 0 0 0 0 0 
0 0 0 0 0 0 0 0 0 
0 0 0 0 0 0 0 0 0 
0 0 0 0 0 0 0 0 0 
0 0 0 0 0 0 0 0 0 
0 0 0 0 0 0 0 0 0 
0 0 0 0 0 0 0 0 0 
0 0 0 0 0 0 0 0 0 
0 0 0 0 0 0 0 0 0 
0 0 0 0 0 0 0 0 0 
0 0 0 0 0 0 0 0 0 
0 0 0 0 0 0 0 0 0 
0 0 0 0 0 0 0 0 0 
0 0 0 0 0 0 0 0 0 
0 0 0 0 0 0 0 0 0 
0 0 0 0 0 0 0 0 0 
0 0 0 0 0 0 0 0 0 
0 0 0 0 0 0 0 0 0 
0 0 0 0 0 0 0 0 0 
0 0 0 0 0 0 0 0 0 
0 0 0 0 0 0 0 0 0 
0 0 0 0 0 0 0 0 0 
0 0 0 0 0 0 0 0 0 
0 0 0 0 0 0 0 0 0 
0 0 0 0 0 0 0 0 0 
0 0 0 0 0 0 0 0 0 
0 0 0 0 0 0 0 0 0 
0 0 0 0 0 0 0 0 0 
0 0 0 0 0 0 0 0 0 
0 0 0 0 0 0 0 0 0 
0 0 0 0 0 0 0 0 0 
0 0 0 0 0 0 0 0 0 
0 0 0 0 0 0 0 0 0 
0 0 0 0 0 0 0 0 0 
0 0 0 0 0 0 0 0 0 
0 0 0 0 0 0 0 0 0 
0 0 0 0 0 0 0 0 0 
0 0 0 0 0 0 0 0 0 
0 0 0 0 0 0 0 0 0 
0 0 0 0 0 0 0 0 0 
0 0 0 0 0 0 0 0 0 
0 0 0 0 0 0 0 0 0 
0 0 0 0 0 0 0 0 0 
0 0 0 0 0 0 0 0 0 
0 0 0 0 0 0 0 0 0 
0 0 0 0 0 0 0 0 0 
0 0 0 0 0 0 0 0 0 
0 0 0 0 0 0 0 0 0 
0 0 0 0 0 0 0 0 0 
0 0 0 0 0 0 0 0 0 
0 0 0 0 0 0 0 0 0 
0 0 0 0 0 0 0 0 0 
0 0 0 0 0 0 0 0 0 
0 0 0 0 0 0 0 0 0 
0 0 0 0 0 0 0 0 0 
0 0 0 0 0 0 0 0 0 
0 0 0 0 0 0 0 0 0 
0 0 0 0 0 0 0 0 0 
0 0 0 0 0 0 0 0 0 
0 0 0 0 0 0 0 0 0 
0 0 0 0 0 0 0 0 0 
0 0 0 0 0 0 0 0 0 
0 0 0 0 0 0 0 0 0 
0 0 0 0 0 0 0 0 0 
0 0 0 0 0 0 0 0 0 
0 0 0 0 0 0 0 0 0 
0 0 0 0 0 0 0 0 0 
0 0 0 0 0 0 0 0 0 
0 0 0 0 0 0 0 0 0 
0 0 0 0 0 0 0 0 0 
0 0 0 0 0 0 0 0 0 
0 0 0 0 0 0 0 0 0 
0 0 0 0 0 0 0 0 0 
0 0 0 0 0 0 0 0 0 
0 0 0 0 0 0 0 0 0 
0 0 0 0 0 0 0 0 0 
0 0 0 0 0 0 0 0 0 
0 0 0 0 0 0 0 0 0 
0 0 0 0 0 0 0 0 0 
0 0 0 0 0 0 0 0 0 
0 0 0 0 0 0 0 0 0 
0 0 0 0 0 0 0 0 0 
0 0 0 0 0 0 0 0 0 
0 0 0 0 0 0 0 0 0 
0 0 0 0 0 0 0 0 0 
0 0 0 0 0 0 0 0 0 
0 0 0 0 0 0 0 0 0 
0 0 0 0 0 0 0 0 0 
0 0 0 0 0 0 0 0 0 
0 0 0 0 0 0 0 0 0 
0 0 0 0 0 0 0 0 0 
0 0 0 0 0 0 0 0 0 
0 0 0 0 0 0 0 0 0 
0 0 0 0 0 0 0 0 0 
0 0 0 0 0 0 0 0 0 
0 0 0 0 0 0 0 0 0 
0 0 0 0 0 0 0 0 0 
0 0 0 0 0 0 0 0 0 
0 0 0 0 0 0 0 0 0 
0 0 0 0 0 0 0 0 0 
0 0 0 0 0 0 0 0 0 
0 0 0 0 0 0 0 0 0 
0 0 0 0 0 0 0 0 0 
0 0 0 0 0 0 0 0 0 
0 0 0 0 0 0 0 0 0 
0 0 0 0 0 0 0 0 0 
0 0 0 0 0 0 0 0 0 
0 0 0 0 0 0 0 0 0 
0 0 0 0 0 0 0 0 0 
0 0 0 0 0 0 0 0 0 
0 0 0 0 0 0 0 0 0 
0 0 0 0 0 0 0 0 0 
0 0 0 0 0 0 0 0 0 
0 0 0 0 0 0 0 0 0 
0 0 0 0 0 0 0 0 0 
0 0 0 0 0 0 0 0 0 
0 0 0 0 0 0 0 0 0 
0 0 0 0 0 0 0 0 0 
0 0 0 0 0 0 0 0 0 
0 0 0 0 0 0 0 0 0 
0 0 0 0 0 0 0 0 0 
0 0 0 0 0 0 0 0 0 
0 0 0 0 0 0 0 0 0 
0 0 0 0 0 0 0 0 0 
0 0 0 0 0 0 0 0 0 
0 0 0 0 0 0 0 0 0 
0 0 0 0 0 0 0 0 0 
0 0 0 0 0 0 0 0 0 
0 0 0 0 0 0 0 0 0 
0 0 0 0 0 0 0 0 0 
0 0 0 0 0 0 0 0 0 
0 0 0 0 0 0 0 0 0 
0 0 0 0 0 0 0 0 0 
0 0 0 0 0 0 0 0 0 
0 0 0 0 0 0 0 0 0 
0 0 0 0 0 0 0 0 0 
0 0 0 0 0 0 0 0 0 
0 0 0 0 0 0 0 0 0 
0 0 0 0 0 0 0 0 0 
0 0 0 0 0 0 0 0 0 
0 0 0 0 0 0 0 0 0 
0 0 0 0 0 0 0 0 0 
0 0 0 0 0 0 0 0 0 
0 0 0 0 0 0 0 0 0 
0 0 0 0 0 0 0 0 0 
0 0 0 0 0 0 0 0 0 
0 0 0 0 0 0 0 0 0 
0 0 0 0 0 0 0 0 0 
0 0 0 0 0 0 0 0 0 
0 0 0 0 0 0 0 0 0 
0 0 0 0 0 0 0 0 0 
0 0 0 0 0 0 0 0 0 
0 0 0 0 0 0 0 0 0 
0 0 0 0 0 0 0 0 0 
0 0 0 0 0 0 0 0 0 
0 0 0 0 0 0 0 0 0 
0 0 0 0 0 0 0 0 0 
0 0 0 0 0 0 0 0 0 
0 0 0 0 0 0 0 0 0 
0 0 0 0 0 0 0 0 0 
0 0 0 0 0 0 0 0 0 
0 0 0 0 0 0 0 0 0 
0 0 0 0 0 0 0 0 0 
0 0 0 0 0 0 0 0 0 
0 0 0 0 0 0 0 0 0 
0 0 0 0 0 0 0 0 0 
0 0 0 0 0 0 0 0 0 
0 0 0 0 0 0 0 0 0 
0 0 0 0 0 0 0 0 0 
0 0 0 0 0 0 0 0 0 
0 0 0 0 0 0 0 0 0 
0 0 0 0 0 0 0 0 0 
0 0 0 0 0 0 0 0 0 
0 0 0 0 0 0 0 0 0 
0 0 0 0 0 0 0 0 0 
0 0 0 0 0 0 0 0 0 
0 0 0 0 0 0 0 0 0 
0 0 0 0 0 0 0 0 0 
0 0 0 0 0 0 0 0 0 
0 0 0 0 0 0 0 0 0 
0 0 0 0 0 0 0 0 0 
0 0 0 0 0 0 0 0 0 
0 0 0 0 0 0 0 0 0 
0 0 0 0 0 0 0 0 0 
0 0 0 0 0 0 0 0 0 
0 0 0 0 0 0 0 0 0 
0 0 0 0 0 0 0 0 0 
0 0 0 0 0 0 0 0 0 
0 0 0 0 0 0 0 0 0 
0 0 0 0 0 0 0 0 0 
0 0 0 0 0 0 0 0 0 
0 0 0 0 0 0 0 0 0 
0 0 0 0 0 0 0 0 0 
0 0 0 0 0 0 0 0 0 
0 0 0 0 0 0 0 0 0 
0 0 0 0 0 0 0 0 0 
0 0 0 0 0 0 0 0 0 
0 0 0 0 0 0 0 0 0 
0 0 0 0 0 0 0 0 0 
0 0 0 0 0 0 0 0 0 
0 0 0 0 0 0 0 0 0 

v 3 648 double
0 0 0.072760381499 0 0 0.068770183821 0 0 0.069845710347 
0 0 0.06259574104 0 0 0.064315536617 0 0 0.023115177855 
0 0 -0.1605516083 0 0 0.050287886116 0 0 0.010107567247 
0 0 0.060929650856 0 0 0.02537997278 0 0 0.24584996973 
0 0 -0.66074918749 0 0 0.24813238299 0 0 0.045657210453 
0 0 -0.16901492948 0 0 -0.17672230115 0 0 -0.17670105129 
0 0 -0.17455737589 0 0 0.059299038052 0 0 0.043435180373 
0 0 0.024980251306 0 0 0.012973781283 0 0 0.0540036614 
0 0 0.0026823123893 0 0 -0.17012528642 0 0 0.24960056041 
0 0 0.012411248862 0 0 -0.17067942325 0 0 -0.66074918749 
0 0 0.04150333745 0 0 0.05146669494 0 0 0.054939329405 
0 0 0.022710226721 0 0 0.040805909324 0 0 0.043134532603 
0 0 -0.17694282635 0 0 0.030860346073 0 0 0.048754174139 
0 0 0.037448794707 0 0 0.040490024831 0 0 0.05391423371 
0 0 0.047512179788 0 0 0.058053404008 0 0 0.023830258515 
0 0 0.043518635052 0 0 0.024534702493 0 0 -0.16478845729 
0 0 0.059553611178 0 0 -0.18174099026 0 0 -0.17923318213 
0 0 -0.18688539917 0 0 -0.18621750178 0 0 -0.1601167744 
0 0 -0.16686589817 0 0 -0.18479635678 0 0 -0.17112200625 
0 0 -0.16994646881 0 0 0.22449765905 0 0 -0.16809846291 
0 0 -0.18688114554 0 0 -0.18854679957 0 0 -0.16825232366 
0 0 0.232567768 0 0 -0.15776065881 0 0 -0.16088496212 
0 0 -0.18542592142 0 0 -0.16535273825 0 0 -0.17449777996 
0 0 0.22507962169 0 0 -0.1851181149 0 0 -0.16626587575 
0 0 -0.1539027083 0 0 -0.17717012028 0 0 -0.17562306176 
0 0 -0.15264150747 0 0 -0.15510232613 0 0 -0.18185860654 
0 0 -0.15236918105 0 0 -0.1516231372 0 0 -0.15788068169 
0 0 -0.17853162324 0 0 -0.65749918749 0 0 -0.17800247637 
0 0 -0.15757862631 0 0 -0.18103173085 0 0 0.21483441911 
0 0 -0.15322625166 0 0 -0.17957619397 0 0 -0.12557906784 
0 0 -0.1532712331 0 0 -0.18348046146 0 0 -0.15832276032 
0 0 0.19648196469 0 0 0.17336118889 0 0 -0.15220751934 
0 0 0.20776533454 0 0 0.20072136663 0 0 -0.14177267749 
0 0 -0.17241725152 0 0 -0.17149850927 0 0 -0.13989502595 
0 0 -0.17616247862 0 0 0.21778292434 0 0 -0.17147505798 
0 0 -0.12565612488 0 0 0.20056564817 0 0 -0.17195678279 
0 0 -0.16863710715 0 0 -0.14533121331 0 0 -0.14031328755 
0 0 -0.16579635742 0 0 -0.16493635291 0 0 -0.13945949697 
0 0 -0.16239362931 0 0 -0.13135709892 0 0 -0.14681611258 
0 0 -0.15575397486 0 0 -0.12545314994 0 0 -0.12382566064 
0 0 -0.13249780207 0 0 0.17094277323 0 0 -0.13425596714 
0 0 -0.15963357505 0 0 -0.162771644 0 0 -0.16096338286 
0 0 -0.17281914438 0 0 -0.16159379099 0 0 0.21631195153 
0 0 -0.1607354314 0 0 -0.13037145832 0 0 -0.16057688129 
0 0 -0.14181628114 0 0 -0.15750198234 0 0 -0.14239373049 
0 0 0.16379773284 0 0 -0.15802645292 0 0 0.1975401708 
0 0 -0.15452914341 0 0 -0.15564246967 0 0 0.16046137585 
0 0 -0.12912015876 0 0 0.21365946253 0 0 0.11845915046 
0 0 -0.1507538379 0 0 -0.120796865 0 0 -0.12129118286 
0 0 -0.11561537539 0 0 -0.1480134855 0 0 -0.12193164411 
0 0 -0.11478673018 0 0 -0.13080002168 0 0 0.20274327241 
0 0 -0.1211532845 0 0 -0.15293390065 0 0 -0.1488957402 
0 0 -0.11933751215 0 0 -0.11352796832 0 0 -0.12122572519 
0 0 -0.11708186408 0 0 -0.10735740526 0 0 -0.12029311914 
0 0 0.16346916271 0 0 -0.15593662176 0 0 -0.11095534487 
0 0 -0.12053298683 0 0 -0.11963904199 0 0 -0.097917226942 
0 0 0.15305976474 0 0 -0.10628810589 0 0 -0.030440027179 
0 0 -0.1467187566 0 0 -0.14170309341 0 0 -0.10504428212 
0 0 0.19645923907 0 0 -0.046471949808 0 0 -0.096458727136 
0 0 0.16319048616 0 0 -0.10512464467 0 0 0.042583953287 
0 0 0.13319479815 0 0 -0.13883020765 0 0 -0.00047195549072 
0 0 -0.14639415757 0 0 -0.034859832079 0 0 -0.15566924314 
0 0 0.18616876206 0 0 0.18185259914 0 0 -0.10665895726 
0 0 -0.053799899532 0 0 -0.020535437887 0 0 0.1583208262 
0 0 0.093013565512 0 0 0.18763354909 0 0 0.23086717133 
0 0 -0.1357572975 0 0 -0.13357005835 0 0 -0.14662589396 
0 0 -0.14270443496 0 0 -0.13900234056 0 0 0.1532671594 
0 0 0.087330475676 0 0 0.0047007319994 0 0 0.023142324033 
0 0 -0.016751583468 0 0 0.019760149222 0 0 -0.085935907761 
0 0 0.05521246035 0 0 -0.078536852875 0 0 -0.12371877086 
0 0 -0.099528201041 0 0 -0.10306272613 0 0 0.1489191842 
0 0 -0.13344700841 0 0 0.013688900547 0 0 -0.1251530095 
0 0 -0.09316426892 0 0 0.021385721953 0 0 -0.083548198036 
0 0 -0.094204316258 0 0 -0.09717217749 0 0 0.011304633242 
0 0 -0.062967206466 0 0 -0.09370005477 0 0 0.089099931374 
0 0 -0.089979608418 0 0 0.063512948853 0 0 -0.10725478303 
0 0 -0.020635048513 0 0 -0.12502253511 0 0 0.1058649276 
0 0 -0.086857895952 0 0 -0.082656848512 0 0 -0.094798220108 
0 0 -0.090315130292 0 0 -0.12560020503 0 0 -0.080372358592 
0 0 0.14185788653 0 0 -0.15294148684 0 0 -0.1264070344 
0 0 -0.091958978354 0 0 -0.12538712531 0 0 -0.12807175843 
0 0 -0.099675576243 0 0 -0.094967913785 0 0 0.07167309606 
0 0 -0.082765992594 0 0 0.060392056615 0 0 -0.099070362436 
0 0 -0.12358193911 0 0 0.16153402464 0 0 -0.086579970249 
0 0 -0.12474400988 0 0 -0.094730995575 0 0 0.08028755015 
0 0 -0.11082163487 0 0 -0.10749597544 0 0 -0.11730583726 
0 0 -0.1115375661 0 0 -0.11340897984 0 0 -0.0073442994357 
0 0 -0.098378625788 0 0 -0.066363256021 0 0 -0.10990946601 
0 0 0.1376607554 0 0 0.15545276322 0 0 -0.11710421003 
0 0 -0.11752200302 0 0 -0.11989450193 0 0 0.10193180619 
0 0 0.063519168483 0 0 0.021954070161 0 0 -0.11655002527 
0 0 -0.076293526804 0 0 -0.11794890082 0 0 -0.068206446769 
0 0 0.034228672561 0 0 -0.1084757758 0 0 0.13560142312 
0 0 -0.079901929762 0 0 0.11802862731 0 0 -0.11741939647 
0 0 -0.077722251827 0 0 -0.1389436193 0 0 -0.056770734196 
0 0 0.11686292606 0 0 0.072545665235 0 0 -0.11142281145 
0 0 -0.040896108065 0 0 -0.077656696006 0 0 0.083993994424 
0 0 -0.097339154074 0 0 -0.12717647087 0 0 -0.072357359615 
0 0 -0.11762832335 0 0 -0.10875074307 0 0 -0.10508032222 
0 0 0.051681882671 0 0 -0.061078013155 0 0 -0.093337357771 
0 0 0.00096413246138 0 0 -0.041739709046 0 0 -0.10654460313 
0 0 -0.05354654627 0 0 -0.060939046249 0 0 0.072614989091 
0 0 -0.073182417449 0 0 -0.10504472007 0 0 0.13066975184 
0 0 -0.047465886422 0 0 -0.099375537657 0 0 0.11626434535 
0 0 -0.047891348123 0 0 -0.046945678771 0 0 -0.058521441942 
0 0 -0.12325434997 0 0 0.11229366317 0 0 0.10576254389 
0 0 0.15630633856 0 0 0.11836088532 0 0 -0.09977551405 
0 0 0.13144573728 0 0 -0.070400530546 0 0 -0.068911290826 
0 0 -0.092075634458 0 0 0.091990251535 0 0 -0.041856449507 
0 0 -0.10443514289 0 0 -0.09615310733 0 0 -0.066520208203 
0 0 -0.10864606989 0 0 -0.1079002357 0 0 -0.056262228527 
0 0 -0.10699910622 0 0 -0.10013487078 0 0 -0.04002993373 
0 0 -0.048258396898 0 0 0.014306067426 0 0 -0.098701914824 
0 0 -0.10275089795 0 0 -0.12642276837 0 0 -0.051291933119 
0 0 0.096302644905 0 0 0.074228342315 0 0 0.091701765672 
0 0 -0.10894854739 0 0 -0.077528016146 0 0 -0.097158529956 
0 0 0.13314172213 0 0 0.1169228567 0 0 -0.051434391885 
0 0 -0.053079017912 0 0 -0.04917992494 0 0 -0.09174284492 
0 0 -0.079060656959 0 0 -0.088789024839 0 0 -0.091893249187 
0 0 -0.10557414998 0 0 -0.088453180773 0 0 -0.033707210601 
0 0 -0.045729298561 0 0 -0.031332889427 0 0 -0.048389369669 
0 0 -0.028640426614 0 0 -0.11233478661 0 0 -0.088363991768 
0 0 0.12510187259 0 0 -0.045233543364 0 0 0.027859111818 
0 0 -0.041034271791 0 0 0.075463731405 0 0 -0.0023921626734 
0 0 -0.039860030034 0 0 -0.09329776441 0 0 0.12283428964 
0 0 -0.080095818096 0 0 0.10883676501 0 0 -0.091050535899 
0 0 0.019565175257 0 0 0.02643674555 0 0 -0.091546893364 
0 0 -0.054335886878 0 0 -0.033275083902 0 0 -0.045556953682 
0 0 -0.026261535201 0 0 -0.084884183123 0 0 -0.089322967861 
0 0 -0.040833082801 0 0 -0.078305072425 0 0 0.08964294258 
0 0 0.012307517903 0 0 -0.095888044197 0 0 -0.030469805188 
0 0 -0.087384697116 0 0 -0.090335142623 0 0 -0.095090804232 
0 0 0.079516868484 0 0 -0.038412743925 0 0 -0.059146252394 
0 0 -0.085588563287 0 0 -0.049906120466 0 0 -0.081526233811 
0 0 -0.095851677823 0 0 -0.081620990923 0 0 -0.016502801231 
0 0 -0.058601385161 0 0 -0.084492454133 0 0 -0.024440642541 
0 0 -0.03000440739 0 0 -0.08306484143 0 0 -0.062476667178 
0 0 -0.015705361674 0 0 0.013954153638 0 0 0.014217682983 
0 0 -0.074552262556 0 0 -0.097642623863 0 0 -0.071804039634 
0 0 -0.027964364488 0 0 0.027791155459 0 0 0.087641600746 
0 0 -0.083641428516 0 0 -0.082969069236 0 0 -0.012624333562 
0 0 0.037085789069 0 0 -0.075581998679 0 0 0.071158358196 
0 0 0.028754438053 0 0 -0.057812918535 0 0 -0.013471360858 
0 0 -0.065019586508 0 0 -0.062791750626 0 0 0.030744029516 
0 0 -0.0052668897221 0 0 -0.076939074109 0 0 -0.016528848693 
0 0 -0.10897736311 0 0 -0.069011489759 0 0 0.085504102815 
0 0 -0.08036012013 0 0 -0.063092931822 0 0 -0.009223448932 
0 0 -0.066344948687 0 0 -0.078125834741 0 0 -0.05786070025 
0 0 -0.074672340866 0 0 0.041499391257 0 0 -0.072989039245 
0 0 0.0098185583248 0 0 -0.01048688353 0 0 -0.0726596747 
0 0 -0.087190169254 0 0 -0.065544107449 0 0 -0.020498727513 
0 0 -0.0026415036728 0 0 -0.039771366093 0 0 -0.058907145425 
0 0 -0.027154683405 0 0 -0.058243881577 0 0 -0.071696514949 
0 0 -0.01198862291 0 0 0.072610644145 0 0 -0.022320568862 
0 0 -0.07342574664 0 0 -0.030802367985 0 0 0.11719968463 
0 0 -0.040154521568 0 0 -0.076581732093 0 0 -0.062539347118 
0 0 -0.045598866658 0 0 -0.041342096053 0 0 -0.038453277835 
0 0 -0.053664961392 0 0 -0.073773336741 0 0 -0.057042304822 
0 0 -0.050506094579 0 0 -0.022007698784 0 0 -0.039267165951 
0 0 -0.050754028129 0 0 -0.05229235652 0 0 0.038127923551 
0 0 0.041106577643 0 0 -0.047678781092 0 0 -0.069711516283 
0 0 -0.05016773487 0 0 -0.0030776459827 0 0 -0.048125336796 
0 0 -0.054591645386 0 0 -0.061495899348 0 0 -0.040639520801 
0 0 -0.040252028416 0 0 0.080815587053 0 0 -0.048088985423 
0 0 -0.052010708585 0 0 0.073789143017 0 0 -0.092727460248 
0 0 -0.048058791808 0 0 -0.05622621218 0 0 -0.015311749154 
0 0 -0.056163490112 0 0 -0.040361965142 0 0 -0.052740032229 
0 0 -0.043841310253 0 0 -0.051891026896 0 0 -0.043291912133 
0 0 -0.050419768858 0 0 -0.056638909128 0 0 -0.010593043719 
0 0 -0.03577621208 0 0 -0.047858925605 0 0 -0.053802083038 
0 0 -0.058233388319 0 0 -0.049978156155 0 0 -0.05372303245 
0 0 -0.047081198331 0 0 -0.055728715064 0 0 0.022442765594 
0 0 0.046408270976 0 0 -0.041705758932 0 0 -0.044319981 
0 0 -0.038673818633 0 0 -0.058379238177 0 0 0.01539926587 
0 0 -0.046927368512 0 0 -0.010428748666 0 0 -0.022742289041 
0 0 -0.01688634724 0 0 -0.0051004340466 0 0 -0.032859849706 
0 0 -0.044727753115 0 0 0.046798346865 0 0 -0.023074680629 
0 0 -0.033175150519 0 0 -0.0273650221 0 0 -0.037347961421 
0 0 -0.049907393875 0 0 0.042610472238 0 0 0.039756470288 
0 0 -0.022261501178 0 0 -0.024085091431 0 0 -0.035226620114 
0 0 -0.035037498698 0 0 -0.0079303319802 0 0 0.0040627756448 
0 0 -0.028667010342 0 0 -0.047654505986 0 0 -0.0346324031 
0 0 -0.024270546932 0 0 -0.035229098 0 0 -0.0071791148369 
0 0 -0.019055718441 0 0 -0.036078352668 0 0 -0.022246489687 
0 0 0.065280942567 0 0 -0.011730511049 0 0 -0.02069137772 
0 0 -0.025313277241 0 0 -0.031858623194 0 0 -0.019678553039 
0 0 -0.026894458334 0 0 -0.0073230299048 0 0 -0.036678857234 
0 0 -0.0219595381 0 0 -0.011975939837 0 0 -0.05377873409 
0 0 -0.0359705178 0 0 -0.031482513612 0 0 -0.019548854188 
0 0 -0.040852227945 0 0 -0.025749707043 0 0 0.0061873596515 
0 0 -0.0099600473359 0 0 0.00066965646853 0 0 0.0169490027 
0 0 -0.013202985182 0 0 0.019489873702 0 0 0.015185990883 
0 0 0.0061413346079 0 0 -0.0041576504713 0 0 0.012899071913 
0 0 0.0083011853526 0 0 -0.023807242507 0 0 -0.002282178178 
0 0 0.020718089767 0 0 -0.0083011300139 0 0 0.0026813789134 
0 0 -0.019123513458 0 0 0.0055343179507 0 0 0.0019209109483 
0 0 -0.0050664851797 0 0 0.008852260647 0 0 -0.013092946381 
0 0 0.010699854982 0 0 0.012836824509 0 0 0.01573265393 
0 0 0.0074548795109 0 0 -0.0065764067283 0 0 0.0087484354733 
0 0 -0.01542074379 0 0 -0.00056629926604 0 0 -0.00028081089805 
0 0 -0.02958436001 0 0 -0.025025771643 0 0 -0.015799840433 
0 0 -0.07664241923 0 0 -0.014327414567 0 0 -0.017373830814 
0 0 -0.0084489070659 0 0 -0.0022190664124 0 0 0.00047294269442 
0 0 0.0088430977955 0 0 0.0025853959821 0 0 0.011400230145 
0 0 -0.0021455764232 0 0 -0.025645133389 0 0 0.0098706699464 
0 0 -0.036211384258 0 0 0.0076181042852 0 0 -0.0035459659687 
0 0 -0.014396792795 0 0 -0.017972024009 0 0 0.0010762804085 
0 0 0.019490553033 0 0 0.021414472105 0 0 -0.0053214355287 
0 0 0.021688114278 0 0 0.031253965079 0 0 0.0041811972741 
0 0 0.0042456611408 0 0 0.0026661858779 0 0 0.017877713012 
0 0 -0.054575735574 0 0 0.015821417668 0 0 0.01693510339 
0 0 0.01753608082 0 0 0.02082547774 0 0 0.043688904819 
0 0 0.030031345079 0 0 0.0059511738817 0 0 0.11380413992 
0 0 0.035424545498 0 0 0.04737966104 0 0 0.013591592173 
0 0 0.043990859411 0 0 -0.055305534954 0 0 0.011798403143 
0 0 0.0147841462 0 0 0.03549267595 0 0 0.064754954216 

f 3 648 double
0 0 -1.7425367252e-10 0 0 -1.7425367252e-10 0 0 -1.7425367252e-10 
0 0 -1.7425367252e-10 0 0 -1.7425367252e-10 0 0 -1.7425367252e-10 
0 0 -1.7425367252e-10 0 0 -1.7425367252e-10 0 0 -1.7425367252e-10 
0 0 -1.7425367252e-10 0 0 -1.7425367252e-10 0 0 -1.7425367252e-10 
0 0 -1.7425367252e-10 0 0 -1.7425367252e-10 0 0 -1.7425367252e-10 
0 0 -1.7425367252e-10 0 0 -1.7425367252e-10 0 0 -1.7425367252e-10 
0 0 -1.7425367252e-10 0 0 -1.7425367252e-10 0 0 -1.7425367252e-10 
0 0 -1.7425367252e-10 0 0 -1.7425367252e-10 0 0 -1.7425367252e-10 
0 0 -1.7425367252e-10 0 0 -1.7425367252e-10 0 0 -1.7425367252e-10 
0 0 -1.7425367252e-10 0 0 -1.7425367252e-10 0 0 -1.7425367252e-10 
0 0 -1.7425367252e-10 0 0 -1.7425367252e-10 0 0 -1.7425367252e-10 
0 0 -1.7425367252e-10 0 0 -1.7425367252e-10 0 0 -1.7425367252e-10 
0 0 -1.7425367252e-10 0 0 -1.7425367252e-10 0 0 -1.7425367252e-10 
0 0 -1.7425367252e-10 0 0 -1.7425367252e-10 0 0 -1.7425367252e-10 
0 0 -1.7425367252e-10 0 0 -1.7425367252e-10 0 0 -1.7425367252e-10 
0 0 -1.7425367252e-10 0 0 -1.7425367252e-10 0 0 -1.7425367252e-10 
0 0 -1.7425367252e-10 0 0 -1.7425367252e-10 0 0 -1.7425367252e-10 
0 0 -1.7425367252e-10 0 0 -1.7425367252e-10 0 0 -1.7425367252e-10 
0 0 -1.7425367252e-10 0 0 -1.7425367252e-10 0 0 -1.7425367252e-10 
0 0 -1.7425367252e-10 0 0 -1.7425367252e-10 0 0 -1.7425367252e-10 
0 0 -1.7425367252e-10 0 0 -1.7425367252e-10 0 0 -1.7425367252e-10 
0 0 -1.7425367252e-10 0 0 -1.7425367252e-10 0 0 -1.7425367252e-10 
0 0 -1.7425367252e-10 0 0 -1.7425367252e-10 0 0 -1.7425367252e-10 
0 0 -1.7425367252e-10 0 0 -1.7425367252e-10 0 0 -1.7425367252e-10 
0 0 -1.7425367252e-10 0 0 -1.7425367252e-10 0 0 -1.7425367252e-10 
0 0 -1.7425367252e-10 0 0 -1.7425367252e-10 0 0 -1.7425367252e-10 
0 0 -1.7425367252e-10 0 0 -1.7425367252e-10 0 0 -1.7425367252e-10 
0 0 -1.7425367252e-10 0 0 -1.7425367252e-10 0 0 -1.7425367252e-10 
0 0 -1.7425367252e-10 0 0 -1.7425367252e-10 0 0 -1.7425367252e-10 
0 0 -1.7425367252e-10 0 0 -1.7425367252e-10 0 0 -1.7425367252e-10 
0 0 -1.7425367252e-10 0 0 -1.7425367252e-10 0 0 -1.7425367252e-10 
0 0 -1.7425367252e-10 0 0 -1.7425367252e-10 0 0 -1.7425367252e-10 
0 0 -1.7425367252e-10 0 0 -1.7425367252e-10 0 0 -1.7425367252e-10 
0 0 -1.7425367252e-10 0 0 -1.7425367252e-10 0 0 -1.7425367252e-10 
0 0 -1.7425367252e-10 0 0 -1.7425367252e-10 0 0 -1.7425367252e-10 
0 0 -1.7425367252e-10 0 0 -1.7425367252e-10 0 0 -1.7425367252e-10 
0 0 -1.7425367252e-10 0 0 -1.7425367252e-10 0 0 -1.7425367252e-10 
0 0 -1.7425367252e-10 0 0 -1.7425367252e-10 0 0 -1.7425367252e-10 
0 0 -1.7425367252e-10 0 0 -1.7425367252e-10 0 0 -1.7425367252e-10 
0 0 -1.7425367252e-10 0 0 -1.7425367252e-10 0 0 -1.7425367252e-10 
0 0 -1.7425367252e-10 0 0 -1.7425367252e-10 0 0 -1.7425367252e-10 
0 0 -1.7425367252e-10 0 0 -1.7425367252e-10 0 0 -1.7425367252e-10 
0 0 -8.9019973083e-09 0 0 -1.7425367252e-10 0 0 -1.7425367252e-10 
0 0 -1.7425367252e-10 0 0 -1.7425367252e-10 0 0 -1.7425367252e-10 
0 0 -1.7425367252e-10 0 0 -1.7425367252e-10 0 0 -1.7425367252e-10 
0 0 -1.7425367252e-10 0 0 -1.7425367252e-10 0 0 -1.7425367252e-10 
0 0 -1.7425367252e-10 0 0 -1.7425367252e-10 0 0 -1.7425367252e-10 
0 0 -1.7425367252e-10 0 0 -1.7425367252e-10 0 0 -1.7425367252e-10 
0 0 -1.7425367252e-10 0 0 -1.7425367252e-10 0 0 -1.7425367252e-10 
0 0 -1.7425367252e-10 0 0 -1.7425367252e-10 0 0 -1.7425367252e-10 
0 0 -1.7425367252e-10 0 0 -1.7425367252e-10 0 0 -1.7425367252e-10 
0 0 -1.7425367252e-10 0 0 -1.7425367252e-10 0 0 -1.7425367252e-10 
0 0 -1.7425367252e-10 0 0 -1.7425367252e-10 0 0 -1.7425367252e-10 
0 0 -1.7425367252e-10 0 0 -1.7425367252e-10 0 0 -1.7425367252e-10 
0 0 -1.7425367252e-10 0 0 -1.7425367252e-10 0 0 -1.7425367252e-10 
0 0 -1.7425367252e-10 0 0 -1.7425367252e-10 0 0 -1.7425367252e-10 
0 0 -1.7425367252e-10 0 0 -1.7425367252e-10 0 0 -1.7425367252e-10 
0 0 -1.7425367252e-10 0 0 -1.7425367252e-10 0 0 -1.7425367252e-10 
0 0 -8.9019973083e-09 0 0 -1.7425367252e-10 0 0 -1.7425367252e-10 
0 0 -1.7425367252e-10 0 0 -1.7425367252e-10 0 0 -1.7425367252e-10 
0 0 -1.7425367252e-10 0 0 -1.7425367252e-10 0 0 -1.7425367252e-10 
0 0 -1.7425367252e-10 0 0 -1.7425367252e-10 0 0 -8.9019973083e-09 
0 0 -1.7425367252e-10 0 0 -1.7425367252e-10 0 0 -1.7425367252e-10 
0 0 -1.7425367252e-10 0 0 -1.7425367252e-10 0 0 -1.7425367252e-10 
0 0 -1.7425367252e-10 0 0 -1.7425367252e-10 0 0 -1.7425367252e-10 
0 0 -1.7425367252e-10 0 0 -1.7425367252e-10 0 0 -1.7425367252e-10 
0 0 -1.7425367252e-10 0 0 -1.7425367252e-10 0 0 -1.7425367252e-10 
0 0 -1.7425367252e-10 0 0 -1.7425367252e-10 0 0 -1.7425367252e-10 
0 0 -1.7425367252e-10 0 0 -1.7425367252e-10 0 0 -1.7425367252e-10 
0 0 -1.7425367252e-10 0 0 -1.7425367252e-10 0 0 -1.7425367252e-10 
0 0 -1.7425367252e-10 0 0 -1.7425367252e-10 0 0 -1.7425367252e-10 
0 0 -1.7425367252e-10 0 0 -1.7425367252e-10 0 0 -1.7425367252e-10 
0 0 -1.7425367252e-10 0 0 -1.7425367252e-10 0 0 -1.7425367252e-10 
0 0 -1.7425367252e-10 0 0 -1.7425367252e-10 0 0 -1.7425367252e-10 
0 0 -1.7425367252e-10 0 0 -1.7425367252e-10 0 0 -1.7425367252e-10 
0 0 -1.7425367252e-10 0 0 -1.7425367252e-10 0 0 -1.7425367252e-10 
0 0 -1.7425367252e-10 0 0 -1.7425367252e-10 0 0 -1.7425367252e-10 
0 0 -1.7425367252e-10 0 0 -1.7425367252e-10 0 0 -1.7425367252e-10 
0 0 -1.7425367252e-10 0 0 -1.7425367252e-10 0 0 -1.7425367252e-10 
0 0 -1.7425367252e-10 0 0 -8.9019973083e-09 0 0 -1.7425367252e-10 
0 0 -1.7425367252e-10 0 0 -1.7425367252e-10 0 0 -1.7425367252e-10 
0 0 -1.7425367252e-10 0 0 -1.7425367252e-10 0 0 -1.7425367252e-10 
0 0 -1.7425367252e-10 0 0 -1.7425367252e-10 0 0 -1.7425367252e-10 
0 0 -1.7425367252e-10 0 0 -1.7425367252e-10 0 0 -1.7425367252e-10 
0 0 -1.7425367252e-10 0 0 -1.7425367252e-10 0 0 -1.7425367252e-10 
0 0 -1.7425367252e-10 0 0 -1.7425367252e-10 0 0 -1.7425367252e-10 
0 0 -1.7425367252e-10 0 0 -1.7425367252e-10 0 0 -1.7425367252e-10 
0 0 -1.7425367252e-10 0 0 -1.7425367252e-10 0 0 -1.7425367252e-10 
0 0 -1.7425367252e-10 0 0 -1.7425367252e-10 0 0 -1.7425367252e-10 
0 0 -1.7425367252e-10 0 0 -1.7425367252e-10 0 0 -1.7425367252e-10 
0 0 -1.7425367252e-10 0 0 -1.7425367252e-10 0 0 -1.7425367252e-10 
0 0 -1.7425367252e-10 0 0 -1.7425367252e-10 0 0 -1.7425367252e-10 
0 0 -1.7425367252e-10 0 0 -1.7425367252e-10 0 0 -1.7425367252e-10 
0 0 -1.7425367252e-10 0 0 -1.7425367252e-10 0 0 -1.7425367252e-10 
0 0 -1.7425367252e-10 0 0 -8.9019973083e-09 0 0 -1.7425367252e-10 
0 0 -1.7425367252e-10 0 0 -1.7425367252e-10 0 0 -1.7425367252e-10 
0 0 -1.7425367252e-10 0 0 -1.7425367252e-10 0 0 -1.7425367252e-10 
0 0 -1.7425367252e-10 0 0 -1.7425367252e-10 0 0 -1.7425367252e-10 
0 0 -1.7425367252e-10 0 0 -1.7425367252e-10 0 0 -1.7425367252e-10 
0 0 -1.7425367252e-10 0 0 -1.7425367252e-10 0 0 -1.7425367252e-10 
0 0 -1.7425367252e-10 0 0 -1.7425367252e-10 0 0 -1.7425367252e-10 
0 0 -1.7425367252e-10 0 0 -1.7425367252e-10 0 0 -1.7425367252e-10 
0 0 -1.7425367252e-10 0 0 -1.7425367252e-10 0 0 -1.7425367252e-10 
0 0 -1.7425367252e-10 0 0 -1.7425367252e-10 0 0 -1.7425367252e-10 
0 0 -1.7425367252e-10 0 0 -1.7425367252e-10 0 0 -1.7425367252e-10 
0 0 -8.9019973083e-09 0 0 -1.7425367252e-10 0 0 -1.7425367252e-10 
0 0 -1.7425367252e-10 0 0 -1.7425367252e-10 0 0 -1.7425367252e-10 
0 0 -1.7425367252e-10 0 0 -1.7425367252e-10 0 0 -1.7425367252e-10 
0 0 -1.7425367252e-10 0 0 -1.7425367252e-10 0 0 -1.7425367252e-10 
0 0 -1.7425367252e-10 0 0 -1.7425367252e-10 0 0 -1.7425367252e-10 
0 0 -1.7425367252e-10 0 0 -1.7425367252e-10 0 0 -1.7425367252e-10 
0 0 -1.7425367252e-10 0 0 -1.7425367252e-10 0 0 -1.7425367252e-10 
0 0 -1.7425367252e-10 0 0 -1.7425367252e-10 0 0 -1.7425367252e-10 
0 0 -1.7425367252e-10 0 0 -8.9019973083e-09 0 0 -1.7425367252e-10 
0 0 -1.7425367252e-10 0 0 -1.7425367252e-10 0 0 -1.7425367252e-10 
0 0 -1.7425367252e-10 0 0 -1.7425367252e-10 0 0 -1.7425367252e-10 
0 0 -1.7425367252e-10 0 0 -1.7425367252e-10 0 0 -1.7425367252e-10 
0 0 -1.7425367252e-10 0 0 -1.7425367252e-10 0 0 -1.7425367252e-10 
0 0 -1.7425367252e-10 0 0 -1.7425367252e-10 0 0 -1.7425367252e-10 
0 0 -1.7425367252e-10 0 0 -1.7425367252e-10 0 0 -1.7425367252e-10 
0 0 -1.7425367252e-10 0 0 -1.7425367252e-10 0 0 -1.7425367252e-10 
0 0 -1.7425367252e-10 0 0 -8.9019973083e-09 0 0 -1.7425367252e-10 
0 0 -1.7425367252e-10 0 0 -1.7425367252e-10 0 0 -1.7425367252e-10 
0 0 -1.7425367252e-10 0 0 -1.7425367252e-10 0 0 -1.7425367252e-10 
0 0 -1.7425367252e-10 0 0 -1.7425367252e-10 0 0 -1.7425367252e-10 
0 0 -1.7425367252e-10 0 0 -1.7425367252e-10 0 0 -1.7425367252e-10 
0 0 -1.7425367252e-10 0 0 -1.7425367252e-10 0 0 -1.7425367252e-10 
0 0 -1.7425367252e-10 0 0 -1.7425367252e-10 0 0 -1.7425367252e-10 
0 0 -1.7425367252e-10 0 0 -1.7425367252e-10 0 0 -1.7425367252e-10 
0 0 -1.7425367252e-10 0 0 -1.7425367252e-10 0 0 -1.7425367252e-10 
0 0 -1.7425367252e-10 0 0 -1.7425367252e-10 0 0 -1.7425367252e-10 
0 0 -1.7425367252e-10 0 0 -1.7425367252e-10 0 0 -1.7425367252e-10 
0 0 -1.7425367252e-10 0 0 -1.7425367252e-10 0 0 -1.7425367252e-10 
0 0 -1.7425367252e-10 0 0 -1.7425367252e-10 0 0 -1.7425367252e-10 
0 0 -1.7425367252e-10 0 0 -1.7425367252e-10 0 0 -1.7425367252e-10 
0 0 -1.7425367252e-10 0 0 -1.7425367252e-10 0 0 -1.7425367252e-10 
0 0 -1.7425367252e-10 0 0 -1.7425367252e-10 0 0 -1.7425367252e-10 
0 0 -1.7425367252e-10 0 0 -1.7425367252e-10 0 0 -1.7425367252e-10 
0 0 -1.7425367252e-10 0 0 -8.9019973083e-09 0 0 -1.7425367252e-10 
0 0 -1.7425367252e-10 0 0 -1.7425367252e-10 0 0 -1.7425367252e-10 
0 0 -1.7425367252e-10 0 0 -1.7425367252e-10 0 0 -1.7425367252e-10 
0 0 -1.7425367252e-10 0 0 -1.7425367252e-10 0 0 -1.7425367252e-10 
0 0 -1.7425367252e-10 0 0 -1.7425367252e-10 0 0 -1.7425367252e-10 
0 0 -1.7425367252e-10 0 0 -1.7425367252e-10 0 0 -1.7425367252e-10 
0 0 -1.7425367252e-10 0 0 -1.7425367252e-10 0 0 -1.7425367252e-10 
0 0 -8.9019973083e-09 0 0 -1.7425367252e-10 0 0 -1.7425367252e-10 
0 0 -1.7425367252e-10 0 0 -1.7425367252e-10 0 0 -1.7425367252e-10 
0 0 -1.7425367252e-10 0 0 -1.7425367252e-10 0 0 -1.7425367252e-10 
0 0 -1.7425367252e-10 0 0 -1.7425367252e-10 0 0 -1.7425367252e-10 
0 0 -1.7425367252e-10 0 0 -1.7425367252e-10 0 0 -1.7425367252e-10 
0 0 -1.7425367252e-10 0 0 -1.7425367252e-10 0 0 -1.7425367252e-10 
0 0 -1.7425367252e-10 0 0 -1.7425367252e-10 0 0 -1.7425367252e-10 
0 0 -1.7425367252e-10 0 0 -1.7425367252e-10 0 0 -1.7425367252e-10 
0 0 -1.7425367252e-10 0 0 -1.7425367252e-10 0 0 -1.7425367252e-10 
0 0 -1.7425367252e-10 0 0 -1.7425367252e-10 0 0 -1.7425367252e-10 
0 0 -1.7425367252e-10 0 0 -1.7425367252e-10 0 0 -1.7425367252e-10 
0 0 -1.7425367252e-10 0 0 -1.7425367252e-10 0 0 -1.7425367252e-10 
0 0 -1.7425367252e-10 0 0 -1.7425367252e-10 0 0 -1.7425367252e-10 
0 0 -1.7425367252e-10 0 0 -1.7425367252e-10 0 0 -1.7425367252e-10 
0 0 -1.7425367252e-10 0 0 -1.7425367252e-10 0 0 -1.7425367252e-10 
0 0 -1.7425367252e-10 0 0 -1.7425367252e-10 0 0 -1.7425367252e-10 
0 0 -1.7425367252e-10 0 0 -1.7425367252e-10 0 0 -1.7425367252e-10 
0 0 -1.7425367252e-10 0 0 -1.7425367252e-10 0 0 -1.7425367252e-10 
0 0 -1.7425367252e-10 0 0 -1.7425367252e-10 0 0 -1.7425367252e-10 
0 0 -1.7425367252e-10 0 0 -1.7425367252e-10 0 0 -8.9019973083e-09 
0 0 -1.7425367252e-10 0 0 -1.7425367252e-10 0 0 -1.7425367252e-10 
0 0 -1.7425367252e-10 0 0 -1.7425367252e-10 0 0 -1.7425367252e-10 
0 0 -1.7425367252e-10 0 0 -1.7425367252e-10 0 0 -1.7425367252e-10 
0 0 -1.7425367252e-10 0 0 -1.7425367252e-10 0 0 -1.7425367252e-10 
0 0 -1.7425367252e-10 0 0 -1.7425367252e-10 0 0 -1.7425367252e-10 
0 0 -1.7425367252e-10 0 0 -1.7425367252e-10 0 0 -1.7425367252e-10 
0 0 -1.7425367252e-10 0 0 -1.7425367252e-10 0 0 -1.7425367252e-10 
0 0 -1.7425367252e-10 0 0 -1.7425367252e-10 0 0 -1.7425367252e-10 
0 0 -1.7425367252e-10 0 0 -1.7425367252e-10 0 0 -1.7425367252e-10 
0 0 -1.7425367252e-10 0 0 -1.7425367252e-10 0 0 -1.7425367252e-10 
0 0 -1.7425367252e-10 0 0 -1.7425367252e-10 0 0 -1.7425367252e-10 
0 0 -1.7425367252e-10 0 0 -1.7425367252e-10 0 0 -1.7425367252e-10 
0 0 -1.7425367252e-10 0 0 -1.7425367252e-10 0 0 -1.7425367252e-10 
0 0 -1.7425367252e-10 0 0 -1.7425367252e-10 0 0 -1.7425367252e-10 
0 0 -1.7425367252e-10 0 0 -1.7425367252e-10 0 0 -1.7425367252e-10 
0 0 -1.7425367252e-10 0 0 -1.7425367252e-10 0 0 -1.7425367252e-10 
0 0 -1.7425367252e-10 0 0 -1.7425367252e-10 0 0 -1.7425367252e-10 
0 0 -1.7425367252e-10 0 0 -1.7425367252e-10 0 0 -1.7425367252e-10 
0 0 -1.7425367252e-10 0 0 -1.7425367252e-10 0 0 -1.7425367252e-10 
0 0 -1.7425367252e-10 0 0 -1.7425367252e-10 0 0 -1.7425367252e-10 
0 0 -1.7425367252e-10 0 0 -1.7425367252e-10 0 0 -1.7425367252e-10 
0 0 -1.7425367252e-10 0 0 -1.7425367252e-10 0 0 -1.7425367252e-10 
0 0 -1.7425367252e-10 0 0 -1.7425367252e-10 0 0 -1.7425367252e-10 
0 0 -1.7425367252e-10 0 0 -1.7425367252e-10 0 0 -1.7425367252e-10 
0 0 -1.7425367252e-10 0 0 -1.7425367252e-10 0 0 -1.7425367252e-10 
0 0 -1.7425367252e-10 0 0 -1.7425367252e-10 0 0 -1.7425367252e-10 
0 0 -1.7425367252e-10 0 0 -1.7425367252e-10 0 0 -1.7425367252e-10 
0 0 -1.7425367252e-10 0 0 -1.7425367252e-10 0 0 -1.7425367252e-10 
0 0 -1.7425367252e-10 0 0 -1.7425367252e-10 0 0 -1.7425367252e-10 
0 0 -1.7425367252e-10 0 0 -1.7425367252e-10 0 0 -1.7425367252e-10 
0 0 -1.7425367252e-10 0 0 -1.7425367252e-10 0 0 -1.7425367252e-10 
0 0 -1.7425367252e-10 0 0 -1.7425367252e-10 0 0 -1.7425367252e-10 
0 0 -1.7425367252e-10 0 0 -1.7425367252e-10 0 0 -1.7425367252e-10 
0 0 -1.7425367252e-10 0 0 -1.7425367252e-10 0 0 -1.7425367252e-10 
0 0 -1.7425367252e-10 0 0 -1.7425367252e-10 0 0 -1.7425367252e-10 
0 0 -1.7425367252e-10 0 0 -1.7425367252e-10 0 0 -1.7425367252e-10 
0 0 -8.9019973083e-09 0 0 -1.7425367252e-10 0 0 -1.7425367252e-10 
0 0 -1.7425367252e-10 0 0 -1.7425367252e-10 0 0 -1.7425367252e-10 
0 0 -1.7425367252e-10 0 0 -1.7425367252e-10 0 0 -1.7425367252e-10 
0 0 -1.7425367252e-10 0 0 -1.7425367252e-10 0 0 -1.7425367252e-10 
0 0 -1.7425367252e-10 0 0 -1.7425367252e-10 0 0 -1.7425367252e-10 
0 0 -1.7425367252e-10 0 0 -1.7425367252e-10 0 0 -1.7425367252e-10 
0 0 -1.7425367252e-10 0 0 -1.7425367252e-10 0 0 -1.7425367252e-10 
0 0 -1.7425367252e-10 0 0 -1.7425367252e-10 0 0 -1.7425367252e-10 
0 0 -1.7425367252e-10 0 0 -1.7425367252e-10 0 0 -1.7425367252e-10 
0 0 -8.9019973083e-09 0 0 -1.7425367252e-10 0 0 -1.7425367252e-10 
0 0 -1.7425367252e-10 0 0 -1.7425367252e-10 0 0 -8.9019973083e-09 
0 0 -1.7425367252e-10 0 0 -1.7425367252e-10 0 0 -8.9019973083e-09 
0 0 -1.7425367252e-10 0 0 -1.7425367252e-10 0 0 -8.9019973083e-09 
0 0 -1.7425367252e-10 0 0 -6.8918688838e-08 0 0 -1.7425367252e-10 
0 0 -8.9019973083e-09 0 0 -1.7425367252e-10 0 0 -5.3297119368e-07 

radius 1 648 double
2e-05 2e-05 2e-05 2e-05 2e-05 2e-05 2e-05 2e-05 2e-05 
2e-05 2e-05 2e-05 2e-05 2e-05 2e-05 2e-05 2e-05 2e-05 
2e-05 2e-05 2e-05 2e-05 2e-05 2e-05 2e-05 2e-05 2e-05 
2e-05 2e-05 2e-05 2e-05 2e-05 2e-05 2e-05 2e-05 2e-05 
2e-05 2e-05 2e-05 2e-05 2e-05 2e-05 2e-05 2e-05 2e-05 
2e-05 2e-05 2e-05 2e-05 2e-05 2e-05 2e-05 2e-05 2e-05 
2e-05 2e-05 2e-05 2e-05 2e-05 2e-05 2e-05 2e-05 2e-05 
2e-05 2e-05 2e-05 2e-05 2e-05 2e-05 2e-05 2e-05 2e-05 
2e-05 2e-05 2e-05 2e-05 2e-05 2e-05 2e-05 2e-05 2e-05 
2e-05 2e-05 2e-05 2e-05 2e-05 2e-05 2e-05 2e-05 2e-05 
2e-05 2e-05 2e-05 2e-05 2e-05 2e-05 2e-05 2e-05 2e-05 
2e-05 2e-05 2e-05 2e-05 2e-05 2e-05 2e-05 2e-05 2e-05 
2e-05 2e-05 2e-05 2e-05 2e-05 2e-05 2e-05 2e-05 2e-05 
2e-05 2e-05 2e-05 2e-05 2e-05 2e-05 2e-05 2e-05 2e-05 
7.5e-05 2e-05 2e-05 2e-05 2e-05 2e-05 2e-05 2e-05 2e-05 
2e-05 2e-05 2e-05 2e-05 2e-05 2e-05 2e-05 2e-05 2e-05 
2e-05 2e-05 2e-05 2e-05 2e-05 2e-05 2e-05 2e-05 2e-05 
2e-05 2e-05 2e-05 2e-05 2e-05 2e-05 2e-05 2e-05 2e-05 
2e-05 2e-05 2e-05 2e-05 2e-05 2e-05 2e-05 2e-05 2e-05 
2e-05 2e-05 2e-05 7.5e-05 2e-05 2e-05 2e-05 2e-05 2e-05 
2e-05 2e-05 2e-05 2e-05 2e-05 7.5e-05 2e-05 2e-05 2e-05 
2e-05 2e-05 2e-05 2e-05 2e-05 2e-05 2e-05 2e-05 2e-05 
2e-05 2e-05 2e-05 2e-05 2e-05 2e-05 2e-05 2e-05 2e-05 
2e-05 2e-05 2e-05 2e-05 2e-05 2e-05 2e-05 2e-05 2e-05 
2e-05 2e-05 2e-05 2e-05 2e-05 2e-05 2e-05 2e-05 2e-05 
2e-05 2e-05 2e-05 2e-05 2e-05 2e-05 2e-05 2e-05 2e-05 
2e-05 2e-05 2e-05 2e-05 7.5e-05 2e-05 2e-05 2e-05 2e-05 
2e-05 2e-05 2e-05 2e-05 2e-05 2e-05 2e-05 2e-05 2e-05 
2e-05 2e-05 2e-05 2e-05 2e-05 2e-05 2e-05 2e-05 2e-05 
2e-05 2e-05 2e-05 2e-05 2e-05 2e-05 2e-05 2e-05 2e-05 
2e-05 2e-05 2e-05 2e-05 2e-05 2e-05 2e-05 2e-05 2e-05 
2e-05 2e-05 2e-05 2e-05 7.5e-05 2e-05 2e-05 2e-05 2e-05 
2e-05 2e-05 2e-05 2e-05 2e-05 2e-05 2e-05 2e-05 2e-05 
2e-05 2e-05 2e-05 2e-05 2e-05 2e-05 2e-05 2e-05 2e-05 
2e-05 2e-05 2e-05 2e-05 2e-05 2e-05 2e-05 2e-05 2e-05 
7.5e-05 2e-05 2e-05 2e-05 2e-05 2e-05 2e-05 2e-05 2e-05 
2e-05 2e-05 2e-05 2e-05 2e-05 2e-05 2e-05 2e-05 2e-05 
2e-05 2e-05 2e-05 2e-05 2e-05 2e-05 2e-05 7.5e-05 2e-05 
2e-05 2e-05 2e-05 2e-05 2e-05 2e-05 2e-05 2e-05 2e-05 
2e-05 2e-05 2e-05 2e-05 2e-05 2e-05 2e-05 2e-05 2e-05 
2e-05 2e-05 2e-05 2e-05 7.5e-05 2e-05 2e-05 2e-05 2e-05 
2e-05 2e-05 2e-05 2e-05 2e-05 2e-05 2e-05 2e-05 2e-05 
2e-05 2e-05 2e-05 2e-05 2e-05 2e-05 2e-05 2e-05 2e-05 
2e-05 2e-05 2e-05 2e-05 2e-05 2e-05 2e-05 2e-05 2e-05 
2e-05 2e-05 2e-05 2e-05 2e-05 2e-05 2e-05 2e-05 2e-05 
2e-05 2e-05 2e-05 2e-05 2e-05 2e-05 2e-05 2e-05 2e-05 
2e-05 7.5e-05 2e-05 2e-05 2e-05 2e-05 2e-05 2e-05 2e-05 
2e-05 2e-05 2e-05 2e-05 2e-05 2e-05 2e-05 2e-05 2e-05 
2e-05 2e-05 2e-05 7.5e-05 2e-05 2e-05 2e-05 2e-05 2e-05 
2e-05 2e-05 2e-05 2e-05 2e-05 2e-05 2e-05 2e-05 2e-05 
2e-05 2e-05 2e-05 2e-05 2e-05 2e-05 2e-05 2e-05 2e-05 
2e-05 2e-05 2e-05 2e-05 2e-05 2e-05 2e-05 2e-05 2e-05 
2e-05 2e-05 2e-05 2e-05 2e-05 2e-05 2e-05 2e-05 2e-05 
2e-05 2e-05 2e-05 2e-05 2e-05 2e-05 2e-05 2e-05 2e-05 
2e-05 2e-05 2e-05 2e-05 2e-05 2e-05 2e-05 2e-05 7.5e-05 
2e-05 2e-05 2e-05 2e-05 2e-05 2e-05 2e-05 2e-05 2e-05 
2e-05 2e-05 2e-05 2e-05 2e-05 2e-05 2e-05 2e-05 2e-05 
2e-05 2e-05 2e-05 2e-05 2e-05 2e-05 2e-05 2e-05 2e-05 
2e-05 2e-05 2e-05 2e-05 2e-05 2e-05 2e-05 2e-05 2e-05 
2e-05 2e-05 2e-05 2e-05 2e-05 2e-05 2e-05 2e-05 2e-05 
2e-05 2e-05 2e-05 2e-05 2e-05 2e-05 2e-05 2e-05 2e-05 
2e-05 2e-05 2e-05 2e-05 2e-05 2e-05 2e-05 2e-05 2e-05 
2e-05 2e-05 2e-05 2e-05 2e-05 2e-05 2e-05 2e-05 2e-05 
2e-05 2e-05 2e-05 2e-05 2e-05 2e-05 2e-05 2e-05 2e-05 
2e-05 2e-05 2e-05 2e-05 2e-05 2e-05 2e-05 2e-05 2e-05 
2e-05 2e-05 2e-05 2e-05 2e-05 2e-05 2e-05 2e-05 2e-05 
2e-05 2e-05 2e-05 2e-05 2e-05 2e-05 2e-05 2e-05 2e-05 
7.5e-05 2e-05 2e-05 2e-05 2e-05 2e-05 2e-05 2e-05 2e-05 
2e-05 2e-05 2e-05 2e-05 2e-05 2e-05 2e-05 2e-05 2e-05 
2e-05 2e-05 2e-05 2e-05 2e-05 2e-05 2e-05 2e-05 2e-05 
7.5e-05 2e-05 2e-05 2e-05 2e-05 7.5e-05 2e-05 2e-05 7.5e-05 
2e-05 2e-05 7.5e-05 2e-05 0.00015 2e-05 7.5e-05 2e-05 0.0003 

omega 3 648 double
0 0 0 0 0 0 0 0 0 
0 0 0 0 0 0 0 0 0 
0 0 0 0 0 0 0 0 0 
0 0 0 0 0 0 0 0 0 
0 0 0 0 0 0 0 0 0 
0 0 0 0 0 0 0 0 0 
0 0 0 0 0 0 0 0 0 
0 0 0 0 0 0 0 0 0 
0 0 0 0 0 0 0 0 0 
0 0 0 0 0 0 0 0 0 
0 0 0 0 0 0 0 0 0 
0 0 0 0 0 0 0 0 0 
0 0 0 0 0 0 0 0 0 
0 0 0 0 0 0 0 0 0 
0 0 0 0 0 0 0 0 0 
0 0 0 0 0 0 0 0 0 
0 0 0 0 0 0 0 0 0 
0 0 0 0 0 0 0 0 0 
0 0 0 0 0 0 0 0 0 
0 0 0 0 0 0 0 0 0 
0 0 0 0 0 0 0 0 0 
0 0 0 0 0 0 0 0 0 
0 0 0 0 0 0 0 0 0 
0 0 0 0 0 0 0 0 0 
0 0 0 0 0 0 0 0 0 
0 0 0 0 0 0 0 0 0 
0 0 0 0 0 0 0 0 0 
0 0 0 0 0 0 0 0 0 
0 0 0 0 0 0 0 0 0 
0 0 0 0 0 0 0 0 0 
0 0 0 0 0 0 0 0 0 
0 0 0 0 0 0 0 0 0 
0 0 0 0 0 0 0 0 0 
0 0 0 0 0 0 0 0 0 
0 0 0 0 0 0 0 0 0 
0 0 0 0 0 0 0 0 0 
0 0 0 0 0 0 0 0 0 
0 0 0 0 0 0 0 0 0 
0 0 0 0 0 0 0 0 0 
0 0 0 0 0 0 0 0 0 
0 0 0 0 0 0 0 0 0 
0 0 0 0 0 0 0 0 0 
0 0 0 0 0 0 0 0 0 
0 0 0 0 0 0 0 0 0 
0 0 0 0 0 0 0 0 0 
0 0 0 0 0 0 0 0 0 
0 0 0 0 0 0 0 0 0 
0 0 0 0 0 0 0 0 0 
0 0 0 0 0 0 0 0 0 
0 0 0 0 0 0 0 0 0 
0 0 0 0 0 0 0 0 0 
0 0 0 0 0 0 0 0 0 
0 0 0 0 0 0 0 0 0 
0 0 0 0 0 0 0 0 0 
0 0 0 0 0 0 0 0 0 
0 0 0 0 0 0 0 0 0 
0 0 0 0 0 0 0 0 0 
0 0 0 0 0 0 0 0 0 
0 0 0 0 0 0 0 0 0 
0 0 0 0 0 0 0 0 0 
0 0 0 0 0 0 0 0 0 
0 0 0 0 0 0 0 0 0 
0 0 0 0 0 0 0 0 0 
0 0 0 0 0 0 0 0 0 
0 0 0 0 0 0 0 0 0 
0 0 0 0 0 0 0 0 0 
0 0 0 0 0 0 0 0 0 
0 0 0 0 0 0 0 0 0 
0 0 0 0 0 0 0 0 0 
0 0 0 0 0 0 0 0 0 
0 0 0 0 0 0 0 0 0 
0 0 0 0 0 0 0 0 0 
0 0 0 0 0 0 0 0 0 
0 0 0 0 0 0 0 0 0 
0 0 0 0 0 0 0 0 0 
0 0 0 0 0 0 0 0 0 
0 0 0 0 0 0 0 0 0 
0 0 0 0 0 0 0 0 0 
0 0 0 0 0 0 0 0 0 
0 0 0 0 0 0 0 0 0 
0 0 0 0 0 0 0 0 0 
0 0 0 0 0 0 0 0 0 
0 0 0 0 0 0 0 0 0 
0 0 0 0 0 0 0 0 0 
0 0 0 0 0 0 0 0 0 
0 0 0 0 0 0 0 0 0 
0 0 0 0 0 0 0 0 0 
0 0 0 0 0 0 0 0 0 
0 0 0 0 0 0 0 0 0 
0 0 0 0 0 0 0 0 0 
0 0 0 0 0 0 0 0 0 
0 0 0 0 0 0 0 0 0 
0 0 0 0 0 0 0 0 0 
0 0 0 0 0 0 0 0 0 
0 0 0 0 0 0 0 0 0 
0 0 0 0 0 0 0 0 0 
0 0 0 0 0 0 0 0 0 
0 0 0 0 0 0 0 0 0 
0 0 0 0 0 0 0 0 0 
0 0 0 0 0 0 0 0 0 
0 0 0 0 0 0 0 0 0 
0 0 0 0 0 0 0 0 0 
0 0 0 0 0 0 0 0 0 
0 0 0 0 0 0 0 0 0 
0 0 0 0 0 0 0 0 0 
0 0 0 0 0 0 0 0 0 
0 0 0 0 0 0 0 0 0 
0 0 0 0 0 0 0 0 0 
0 0 0 0 0 0 0 0 0 
0 0 0 0 0 0 0 0 0 
0 0 0 0 0 0 0 0 0 
0 0 0 0 0 0 0 0 0 
0 0 0 0 0 0 0 0 0 
0 0 0 0 0 0 0 0 0 
0 0 0 0 0 0 0 0 0 
0 0 0 0 0 0 0 0 0 
0 0 0 0 0 0 0 0 0 
0 0 0 0 0 0 0 0 0 
0 0 0 0 0 0 0 0 0 
0 0 0 0 0 0 0 0 0 
0 0 0 0 0 0 0 0 0 
0 0 0 0 0 0 0 0 0 
0 0 0 0 0 0 0 0 0 
0 0 0 0 0 0 0 0 0 
0 0 0 0 0 0 0 0 0 
0 0 0 0 0 0 0 0 0 
0 0 0 0 0 0 0 0 0 
0 0 0 0 0 0 0 0 0 
0 0 0 0 0 0 0 0 0 
0 0 0 0 0 0 0 0 0 
0 0 0 0 0 0 0 0 0 
0 0 0 0 0 0 0 0 0 
0 0 0 0 0 0 0 0 0 
0 0 0 0 0 0 0 0 0 
0 0 0 0 0 0 0 0 0 
0 0 0 0 0 0 0 0 0 
0 0 0 0 0 0 0 0 0 
0 0 0 0 0 0 0 0 0 
0 0 0 0 0 0 0 0 0 
0 0 0 0 0 0 0 0 0 
0 0 0 0 0 0 0 0 0 
0 0 0 0 0 0 0 0 0 
0 0 0 0 0 0 0 0 0 
0 0 0 0 0 0 0 0 0 
0 0 0 0 0 0 0 0 0 
0 0 0 0 0 0 0 0 0 
0 0 0 0 0 0 0 0 0 
0 0 0 0 0 0 0 0 0 
0 0 0 0 0 0 0 0 0 
0 0 0 0 0 0 0 0 0 
0 0 0 0 0 0 0 0 0 
0 0 0 0 0 0 0 0 0 
0 0 0 0 0 0 0 0 0 
0 0 0 0 0 0 0 0 0 
0 0 0 0 0 0 0 0 0 
0 0 0 0 0 0 0 0 0 
0 0 0 0 0 0 0 0 0 
0 0 0 0 0 0 0 0 0 
0 0 0 0 0 0 0 0 0 
0 0 0 0 0 0 0 0 0 
0 0 0 0 0 0 0 0 0 
0 0 0 0 0 0 0 0 0 
0 0 0 0 0 0 0 0 0 
0 0 0 0 0 0 0 0 0 
0 0 0 0 0 0 0 0 0 
0 0 0 0 0 0 0 0 0 
0 0 0 0 0 0 0 0 0 
0 0 0 0 0 0 0 0 0 
0 0 0 0 0 0 0 0 0 
0 0 0 0 0 0 0 0 0 
0 0 0 0 0 0 0 0 0 
0 0 0 0 0 0 0 0 0 
0 0 0 0 0 0 0 0 0 
0 0 0 0 0 0 0 0 0 
0 0 0 0 0 0 0 0 0 
0 0 0 0 0 0 0 0 0 
0 0 0 0 0 0 0 0 0 
0 0 0 0 0 0 0 0 0 
0 0 0 0 0 0 0 0 0 
0 0 0 0 0 0 0 0 0 
0 0 0 0 0 0 0 0 0 
0 0 0 0 0 0 0 0 0 
0 0 0 0 0 0 0 0 0 
0 0 0 0 0 0 0 0 0 
0 0 0 0 0 0 0 0 0 
0 0 0 0 0 0 0 0 0 
0 0 0 0 0 0 0 0 0 
0 0 0 0 0 0 0 0 0 
0 0 0 0 0 0 0 0 0 
0 0 0 0 0 0 0 0 0 
0 0 0 0 0 0 0 0 0 
0 0 0 0 0 0 0 0 0 
0 0 0 0 0 0 0 0 0 
0 0 0 0 0 0 0 0 0 
0 0 0 0 0 0 0 0 0 
0 0 0 0 0 0 0 0 0 
0 0 0 0 0 0 0 0 0 
0 0 0 0 0 0 0 0 0 
0 0 0 0 0 0 0 0 0 
0 0 0 0 0 0 0 0 0 
0 0 0 0 0 0 0 0 0 
0 0 0 0 0 0 0 0 0 
0 0 0 0 0 0 0 0 0 
0 0 0 0 0 0 0 0 0 
0 0 0 0 0 0 0 0 0 
0 0 0 0 0 0 0 0 0 
0 0 0 0 0 0 0 0 0 
0 0 0 0 0 0 0 0 0 
0 0 0 0 0 0 0 0 0 
0 0 0 0 0 0 0 0 0 
0 0 0 0 0 0 0 0 0 
0 0 0 0 0 0 0 0 0 
0 0 0 0 0 0 0 0 0 
0 0 0 0 0 0 0 0 0 
0 0 0 0 0 0 0 0 0 
0 0 0 0 0 0 0 0 0 

fx_mag_viz 1 648 double
0 0 0 0 0 0 0 0 0 
0 0 0 0 0 0 0 0 0 
0 0 0 0 0 0 0 0 0 
0 0 0 0 0 0 0 0 0 
0 0 0 0 0 0 0 0 0 
0 0 0 0 0 0 0 0 0 
0 0 0 0 0 0 0 0 0 
0 0 0 0 0 0 0 0 0 
0 0 0 0 0 0 0 0 0 
0 0 0 0 0 0 0 0 0 
0 0 0 0 0 0 0 0 0 
0 0 0 0 0 0 0 0 0 
0 0 0 0 0 0 0 0 0 
0 0 0 0 0 0 0 0 0 
0 0 0 0 0 0 0 0 0 
0 0 0 0 0 0 0 0 0 
0 0 0 0 0 0 0 0 0 
0 0 0 0 0 0 0 0 0 
0 0 0 0 0 0 0 0 0 
0 0 0 0 0 0 0 0 0 
0 0 0 0 0 0 0 0 0 
0 0 0 0 0 0 0 0 0 
0 0 0 0 0 0 0 0 0 
0 0 0 0 0 0 0 0 0 
0 0 0 0 0 0 0 0 0 
0 0 0 0 0 0 0 0 0 
0 0 0 0 0 0 0 0 0 
0 0 0 0 0 0 0 0 0 
0 0 0 0 0 0 0 0 0 
0 0 0 0 0 0 0 0 0 
0 0 0 0 0 0 0 0 0 
0 0 0 0 0 0 0 0 0 
0 0 0 0 0 0 0 0 0 
0 0 0 0 0 0 0 0 0 
0 0 0 0 0 0 0 0 0 
0 0 0 0 0 0 0 0 0 
0 0 0 0 0 0 0 0 0 
0 0 0 0 0 0 0 0 0 
0 0 0 0 0 0 0 0 0 
0 0 0 0 0 0 0 0 0 
0 0 0 0 0 0 0 0 0 
0 0 0 0 0 0 0 0 0 
0 0 0 0 0 0 0 0 0 
0 0 0 0 0 0 0 0 0 
0 0 0 0 0 0 0 0 0 
0 0 0 0 0 0 0 0 0 
0 0 0 0 0 0 0 0 0 
0 0 0 0 0 0 0 0 0 
0 0 0 0 0 0 0 0 0 
0 0 0 0 0 0 0 0 0 
0 0 0 0 0 0 0 0 0 
0 0 0 0 0 0 0 0 0 
0 0 0 0 0 0 0 0 0 
0 0 0 0 0 0 0 0 0 
0 0 0 0 0 0 0 0 0 
0 0 0 0 0 0 0 0 0 
0 0 0 0 0 0 0 0 0 
0 0 0 0 0 0 0 0 0 
0 0 0 0 0 0 0 0 0 
0 0 0 0 0 0 0 0 0 
0 0 0 0 0 0 0 0 0 
0 0 0 0 0 0 0 0 0 
0 0 0 0 0 0 0 0 0 
0 0 0 0 0 0 0 0 0 
0 0 0 0 0 0 0 0 0 
0 0 0 0 0 0 0 0 0 
0 0 0 0 0 0 0 0 0 
0 0 0 0 0 0 0 0 0 
0 0 0 0 0 0 0 0 0 
0 0 0 0 0 0 0 0 0 
0 0 0 0 0 0 0 0 0 
0 0 0 0 0 0 0 0 0 

fy_mag_viz 1 648 double
0 0 0 0 0 0 0 0 0 
0 0 0 0 0 0 0 0 0 
0 0 0 0 0 0 0 0 0 
0 0 0 0 0 0 0 0 0 
0 0 0 0 0 0 0 0 0 
0 0 0 0 0 0 0 0 0 
0 0 0 0 0 0 0 0 0 
0 0 0 0 0 0 0 0 0 
0 0 0 0 0 0 0 0 0 
0 0 0 0 0 0 0 0 0 
0 0 0 0 0 0 0 0 0 
0 0 0 0 0 0 0 0 0 
0 0 0 0 0 0 0 0 0 
0 0 0 0 0 0 0 0 0 
0 0 0 0 0 0 0 0 0 
0 0 0 0 0 0 0 0 0 
0 0 0 0 0 0 0 0 0 
0 0 0 0 0 0 0 0 0 
0 0 0 0 0 0 0 0 0 
0 0 0 0 0 0 0 0 0 
0 0 0 0 0 0 0 0 0 
0 0 0 0 0 0 0 0 0 
0 0 0 0 0 0 0 0 0 
0 0 0 0 0 0 0 0 0 
0 0 0 0 0 0 0 0 0 
0 0 0 0 0 0 0 0 0 
0 0 0 0 0 0 0 0 0 
0 0 0 0 0 0 0 0 0 
0 0 0 0 0 0 0 0 0 
0 0 0 0 0 0 0 0 0 
0 0 0 0 0 0 0 0 0 
0 0 0 0 0 0 0 0 0 
0 0 0 0 0 0 0 0 0 
0 0 0 0 0 0 0 0 0 
0 0 0 0 0 0 0 0 0 
0 0 0 0 0 0 0 0 0 
0 0 0 0 0 0 0 0 0 
0 0 0 0 0 0 0 0 0 
0 0 0 0 0 0 0 0 0 
0 0 0 0 0 0 0 0 0 
0 0 0 0 0 0 0 0 0 
0 0 0 0 0 0 0 0 0 
0 0 0 0 0 0 0 0 0 
0 0 0 0 0 0 0 0 0 
0 0 0 0 0 0 0 0 0 
0 0 0 0 0 0 0 0 0 
0 0 0 0 0 0 0 0 0 
0 0 0 0 0 0 0 0 0 
0 0 0 0 0 0 0 0 0 
0 0 0 0 0 0 0 0 0 
0 0 0 0 0 0 0 0 0 
0 0 0 0 0 0 0 0 0 
0 0 0 0 0 0 0 0 0 
0 0 0 0 0 0 0 0 0 
0 0 0 0 0 0 0 0 0 
0 0 0 0 0 0 0 0 0 
0 0 0 0 0 0 0 0 0 
0 0 0 0 0 0 0 0 0 
0 0 0 0 0 0 0 0 0 
0 0 0 0 0 0 0 0 0 
0 0 0 0 0 0 0 0 0 
0 0 0 0 0 0 0 0 0 
0 0 0 0 0 0 0 0 0 
0 0 0 0 0 0 0 0 0 
0 0 0 0 0 0 0 0 0 
0 0 0 0 0 0 0 0 0 
0 0 0 0 0 0 0 0 0 
0 0 0 0 0 0 0 0 0 
0 0 0 0 0 0 0 0 0 
0 0 0 0 0 0 0 0 0 
0 0 0 0 0 0 0 0 0 
0 0 0 0 0 0 0 0 0 

fz_mag_viz 1 648 double
0 0 0 0 0 0 0 0 0 
0 0 0 0 0 0 0 0 0 
0 0 0 0 0 0 0 0 0 
0 0 0 0 0 0 0 0 0 
0 0 0 0 0 0 0 0 0 
0 0 0 0 0 0 0 0 0 
0 0 0 0 0 0 0 0 0 
0 0 0 0 0 0 0 0 0 
0 0 0 0 0 0 0 0 0 
0 0 0 0 0 0 0 0 0 
0 0 0 0 0 0 0 0 0 
0 0 0 0 0 0 0 0 0 
0 0 0 0 0 0 0 0 0 
0 0 0 0 0 0 0 0 0 
0 0 0 0 0 0 0 0 0 
0 0 0 0 0 0 0 0 0 
0 0 0 0 0 0 0 0 0 
0 0 0 0 0 0 0 0 0 
0 0 0 0 0 0 0 0 0 
0 0 0 0 0 0 0 0 0 
0 0 0 0 0 0 0 0 0 
0 0 0 0 0 0 0 0 0 
0 0 0 0 0 0 0 0 0 
0 0 0 0 0 0 0 0 0 
0 0 0 0 0 0 0 0 0 
0 0 0 0 0 0 0 0 0 
0 0 0 0 0 0 0 0 0 
0 0 0 0 0 0 0 0 0 
0 0 0 0 0 0 0 0 0 
0 0 0 0 0 0 0 0 0 
0 0 0 0 0 0 0 0 0 
0 0 0 0 0 0 0 0 0 
0 0 0 0 0 0 0 0 0 
0 0 0 0 0 0 0 0 0 
0 0 0 0 0 0 0 0 0 
0 0 0 0 0 0 0 0 0 
0 0 0 0 0 0 0 0 0 
0 0 0 0 0 0 0 0 0 
0 0 0 0 0 0 0 0 0 
0 0 0 0 0 0 0 0 0 
0 0 0 0 0 0 0 0 0 
0 0 0 0 0 0 0 0 0 
0 0 0 0 0 0 0 0 0 
0 0 0 0 0 0 0 0 0 
0 0 0 0 0 0 0 0 0 
0 0 0 0 0 0 0 0 0 
0 0 0 0 0 0 0 0 0 
0 0 0 0 0 0 0 0 0 
0 0 0 0 0 0 0 0 0 
0 0 0 0 0 0 0 0 0 
0 0 0 0 0 0 0 0 0 
0 0 0 0 0 0 0 0 0 
0 0 0 0 0 0 0 0 0 
0 0 0 0 0 0 0 0 0 
0 0 0 0 0 0 0 0 0 
0 0 0 0 0 0 0 0 0 
0 0 0 0 0 0 0 0 0 
0 0 0 0 0 0 0 0 0 
0 0 0 0 0 0 0 0 0 
0 0 0 0 0 0 0 0 0 
0 0 0 0 0 0 0 0 0 
0 0 0 0 0 0 0 0 0 
0 0 0 0 0 0 0 0 0 
0 0 0 0 0 0 0 0 0 
0 0 0 0 0 0 0 0 0 
0 0 0 0 0 0 0 0 0 
0 0 0 0 0 0 0 0 0 
0 0 0 0 0 0 0 0 0 
0 0 0 0 0 0 0 0 0 
0 0 0 0 0 0 0 0 0 
0 0 0 0 0 0 0 0 0 
0 0 0 0 0 0 0 0 0 

B_magnitude 1 648 double
0 0 0 0 0 0 0 0 0 
0 0 0 0 0 0 0 0 0 
0 0 0 0 0 0 0 0 0 
0 0 0 0 0 0 0 0 0 
0 0 0 0 0 0 0 0 0 
0 0 0 0 0 0 0 0 0 
0 0 0 0 0 0 0 0 0 
0 0 0 0 0 0 0 0 0 
0 0 0 0 0 0 0 0 0 
0 0 0 0 0 0 0 0 0 
0 0 0 0 0 0 0 0 0 
0 0 0 0 0 0 0 0 0 
0 0 0 0 0 0 0 0 0 
0 0 0 0 0 0 0 0 0 
0 0 0 0 0 0 0 0 0 
0 0 0 0 0 0 0 0 0 
0 0 0 0 0 0 0 0 0 
0 0 0 0 0 0 0 0 0 
0 0 0 0 0 0 0 0 0 
0 0 0 0 0 0 0 0 0 
0 0 0 0 0 0 0 0 0 
0 0 0 0 0 0 0 0 0 
0 0 0 0 0 0 0 0 0 
0 0 0 0 0 0 0 0 0 
0 0 0 0 0 0 0 0 0 
0 0 0 0 0 0 0 0 0 
0 0 0 0 0 0 0 0 0 
0 0 0 0 0 0 0 0 0 
0 0 0 0 0 0 0 0 0 
0 0 0 0 0 0 0 0 0 
0 0 0 0 0 0 0 0 0 
0 0 0 0 0 0 0 0 0 
0 0 0 0 0 0 0 0 0 
0 0 0 0 0 0 0 0 0 
0 0 0 0 0 0 0 0 0 
0 0 0 0 0 0 0 0 0 
0 0 0 0 0 0 0 0 0 
0 0 0 0 0 0 0 0 0 
0 0 0 0 0 0 0 0 0 
0 0 0 0 0 0 0 0 0 
0 0 0 0 0 0 0 0 0 
0 0 0 0 0 0 0 0 0 
0 0 0 0 0 0 0 0 0 
0 0 0 0 0 0 0 0 0 
0 0 0 0 0 0 0 0 0 
0 0 0 0 0 0 0 0 0 
0 0 0 0 0 0 0 0 0 
0 0 0 0 0 0 0 0 0 
0 0 0 0 0 0 0 0 0 
0 0 0 0 0 0 0 0 0 
0 0 0 0 0 0 0 0 0 
0 0 0 0 0 0 0 0 0 
0 0 0 0 0 0 0 0 0 
0 0 0 0 0 0 0 0 0 
0 0 0 0 0 0 0 0 0 
0 0 0 0 0 0 0 0 0 
0 0 0 0 0 0 0 0 0 
0 0 0 0 0 0 0 0 0 
0 0 0 0 0 0 0 0 0 
0 0 0 0 0 0 0 0 0 
0 0 0 0 0 0 0 0 0 
0 0 0 0 0 0 0 0 0 
0 0 0 0 0 0 0 0 0 
0 0 0 0 0 0 0 0 0 
0 0 0 0 0 0 0 0 0 
0 0 0 0 0 0 0 0 0 
0 0 0 0 0 0 0 0 0 
0 0 0 0 0 0 0 0 0 
0 0 0 0 0 0 0 0 0 
0 0 0 0 0 0 0 0 0 
0 0 0 0 0 0 0 0 0 
0 0 0 0 0 0 0 0 0 

B_gradient_mag 1 648 double
0 0 0 0 0 0 0 0 0 
0 0 0 0 0 0 0 0 0 
0 0 0 0 0 0 0 0 0 
0 0 0 0 0 0 0 0 0 
0 0 0 0 0 0 0 0 0 
0 0 0 0 0 0 0 0 0 
0 0 0 0 0 0 0 0 0 
0 0 0 0 0 0 0 0 0 
0 0 0 0 0 0 0 0 0 
0 0 0 0 0 0 0 0 0 
0 0 0 0 0 0 0 0 0 
0 0 0 0 0 0 0 0 0 
0 0 0 0 0 0 0 0 0 
0 0 0 0 0 0 0 0 0 
0 0 0 0 0 0 0 0 0 
0 0 0 0 0 0 0 0 0 
0 0 0 0 0 0 0 0 0 
0 0 0 0 0 0 0 0 0 
0 0 0 0 0 0 0 0 0 
0 0 0 0 0 0 0 0 0 
0 0 0 0 0 0 0 0 0 
0 0 0 0 0 0 0 0 0 
0 0 0 0 0 0 0 0 0 
0 0 0 0 0 0 0 0 0 
0 0 0 0 0 0 0 0 0 
0 0 0 0 0 0 0 0 0 
0 0 0 0 0 0 0 0 0 
0 0 0 0 0 0 0 0 0 
0 0 0 0 0 0 0 0 0 
0 0 0 0 0 0 0 0 0 
0 0 0 0 0 0 0 0 0 
0 0 0 0 0 0 0 0 0 
0 0 0 0 0 0 0 0 0 
0 0 0 0 0 0 0 0 0 
0 0 0 0 0 0 0 0 0 
0 0 0 0 0 0 0 0 0 
0 0 0 0 0 0 0 0 0 
0 0 0 0 0 0 0 0 0 
0 0 0 0 0 0 0 0 0 
0 0 0 0 0 0 0 0 0 
0 0 0 0 0 0 0 0 0 
0 0 0 0 0 0 0 0 0 
0 0 0 0 0 0 0 0 0 
0 0 0 0 0 0 0 0 0 
0 0 0 0 0 0 0 0 0 
0 0 0 0 0 0 0 0 0 
0 0 0 0 0 0 0 0 0 
0 0 0 0 0 0 0 0 0 
0 0 0 0 0 0 0 0 0 
0 0 0 0 0 0 0 0 0 
0 0 0 0 0 0 0 0 0 
0 0 0 0 0 0 0 0 0 
0 0 0 0 0 0 0 0 0 
0 0 0 0 0 0 0 0 0 
0 0 0 0 0 0 0 0 0 
0 0 0 0 0 0 0 0 0 
0 0 0 0 0 0 0 0 0 
0 0 0 0 0 0 0 0 0 
0 0 0 0 0 0 0 0 0 
0 0 0 0 0 0 0 0 0 
0 0 0 0 0 0 0 0 0 
0 0 0 0 0 0 0 0 0 
0 0 0 0 0 0 0 0 0 
0 0 0 0 0 0 0 0 0 
0 0 0 0 0 0 0 0 0 
0 0 0 0 0 0 0 0 0 
0 0 0 0 0 0 0 0 0 
0 0 0 0 0 0 0 0 0 
0 0 0 0 0 0 0 0 0 
0 0 0 0 0 0 0 0 0 
0 0 0 0 0 0 0 0 0 
0 0 0 0 0 0 0 0 0 

