# vtk DataFile Version 5.1
Generated by LIGGGHTS
ASCII
DATASET POLYDATA
POINTS 648 float
0.0244271 -0.0334586 0.00134603 0.0280204 -0.0311414 0.00131851 0.000892701 -0.0263701 0.0012342 
-0.0408326 -0.0234295 0.00130775 -0.0257955 -0.0157834 0.00103207 0.0449494 0.00392273 0.00105653 
-0.0170872 0.00564833 0.00117485 0.0011249 0.00615697 0.00130633 0.0221269 0.00728552 0.00115435 
-0.0214351 0.00957734 0.0013641 -0.022709 0.0198803 0.00107666 0.0364634 0.0310238 0.00132252 
-0.0264781 0.032823 0.00136659 -0.0428902 -0.0449088 0.00220882 -0.044759 -0.0437614 0.00139588 
-0.0308094 -0.0435702 0.00137271 -0.042922 -0.0404536 0.00149616 0.040047 -0.0404588 0.00158874 
-0.00302782 -0.0385948 0.00210233 0.0156715 -0.0391733 0.00226982 0.00798734 -0.0367051 0.00202791 
0.0308099 -0.0378456 0.00120306 0.0333162 -0.0342631 0.00147269 0.023158 -0.0340207 0.00127907 
-0.0232422 -0.0321576 0.00163694 -0.0266532 -0.0301716 0.00245817 -0.0105296 -0.0314142 0.00218099 
-0.0448384 -0.0296834 0.00144143 0.00577088 -0.0287415 0.00141819 0.032808 -0.025967 0.00145622 
0.0436787 -0.0219137 0.00172316 0.0336491 -0.0197505 0.00180687 -0.0108877 -0.0188832 0.00229206 
-0.0317771 -0.0175651 0.00154034 0.0030191 -0.0179247 0.00184004 0.0404767 -0.0183151 0.00134254 
0.0223879 -0.0163393 0.00198256 -0.00444012 -0.0151621 0.00197563 -0.0117656 -0.0138394 0.00205578 
0.00689113 -0.0107816 0.00255176 0.0277003 -0.0107969 0.00164481 -0.0112192 -0.0104501 0.0014175 
0.00743742 -0.00926665 0.00152033 0.013874 -0.00963069 0.00213606 0.0350526 -0.0102353 0.00226731 
-0.0198564 -0.00683511 0.00215898 0.0109664 -0.00760095 0.00227976 -0.0129003 -0.00574839 0.00225721 
0.00937085 -0.00418454 0.00261425 -0.0179231 -0.00300678 0.00191167 -0.0141425 -0.00311887 0.00206943 
-0.00702036 -0.00121172 0.00152789 -0.00783961 -0.000387029 0.00158492 0.0384376 0.000848974 0.00206125 
-0.00967086 0.00179773 0.00157638 0.00417698 0.0024455 0.00223779 0.0292006 0.00433004 0.00234826 
0.0305447 0.00486582 0.00207817 -0.0287984 0.00559412 0.00207834 0.0228765 0.00606581 0.00136303 
0.0212596 0.00979192 0.00224072 0.0399323 0.0117688 0.00149551 -0.034865 0.0142961 0.0020082 
-0.0310202 0.0131063 0.00230154 8.23501e-07 0.0138406 0.00157298 0.0287781 0.014071 0.00207461 
-0.0360536 0.0173104 0.00224416 0.0215224 0.0171285 0.00217062 -0.0214239 0.0189608 0.00116331 
-0.0153727 0.020636 0.00210288 -0.0282566 0.021284 0.0021448 0.0123926 0.0218243 0.00220696 
0.03506 0.0228899 0.0022213 0.0167463 0.0251763 0.00227865 0.0226957 0.0260881 0.00117284 
-0.0409258 0.0305044 0.00194079 0.0444958 0.0309554 0.00133566 0.00284552 0.0345861 0.00152243 
0.0297434 0.0373158 0.00261598 0.0165329 0.0385374 0.00183813 0.0251972 0.0393087 0.002023 
0.0163992 0.0415262 0.0019889 -0.0390027 0.0421086 0.00201672 -0.0335565 -0.0442122 0.00341985 
0.033456 -0.0256735 0.00262932 0.0363266 -0.0194176 0.00270823 -0.0388614 -0.0136303 0.00365003 
-0.0222502 -0.00974669 0.0032685 -0.00433253 -0.00676057 0.00362445 0.0131353 -0.00504642 0.0029252 
-0.00254916 -0.00379952 0.00409098 0.021602 0.00540593 0.00265082 0.0246705 0.0064451 0.00249002 
-0.0426568 0.00723228 0.0026326 -0.0392616 0.00972366 0.00248638 -0.0101256 0.00978275 0.00291344 
0.0143092 0.0139794 0.00264123 0.0248423 0.0143007 0.00264335 -0.023041 0.0197144 0.00258907 
0.0307708 0.0242663 0.00291053 -0.0200898 0.0311527 0.00304009 -0.0312382 0.0393096 0.00355615 
0.0418836 -0.0421436 0.00409772 0.0414821 -0.0410789 0.00394902 -0.0248652 -0.040212 0.00455152 
-0.018434 -0.0405477 0.00492398 0.000822496 -0.0363122 0.00410312 -0.0262624 -0.032473 0.00484395 
0.00741479 -0.0295782 0.00535139 0.039775 -0.0211058 0.00402825 -0.0100897 -0.0180162 0.00412608 
0.021323 -0.00444137 0.0039426 -0.0260142 0.00017485 0.004788 0.00347554 0.00338662 0.00471373 
0.0340899 0.00882812 0.00405094 0.0197977 0.00963841 0.00417337 0.0398091 0.011618 0.00425994 
-0.00279986 0.0127222 0.00402237 0.00517921 0.0169249 0.00412673 0.0418335 0.0161761 0.00382302 
0.0090081 0.0191686 0.00413973 0.0038092 0.0311583 0.00461443 0.01325 0.0319187 0.0044208 
0.0238959 0.0383247 0.00450644 -0.00674967 -0.0416523 0.00613367 -0.0108246 -0.0388127 0.00513799 
0.00594186 -0.0351889 0.00509938 0.0188903 -0.0308528 0.00604119 -0.0207679 -0.0256315 0.00600399 
0.0306875 -0.0259396 0.00626927 -0.0225401 -0.0213878 0.00551153 0.00156248 -0.0194187 0.00568335 
0.0286804 -0.00919085 0.00619536 0.0313953 -0.00974065 0.00613469 -0.00553214 -0.00871323 0.00544891 
-0.00747582 -0.00609419 0.00568485 0.00643655 -0.000956063 0.00640567 0.0188762 0.00181355 0.00535363 
0.0283387 0.00890506 0.00552084 -0.00307286 0.0144526 0.00574401 0.0121458 0.0151918 0.00579847 
-0.0313244 0.0314049 0.00624707 0.00372347 0.0304157 0.00547095 -0.0073504 0.0318329 0.00506019 
-0.00973825 0.0391656 0.00561536 0.0222253 0.0407186 0.00552977 -0.0334706 -0.0396012 0.00639385 
-0.0430551 -0.0267583 0.0072471 -0.0296942 -0.0196153 0.00658259 -0.0339565 -0.0167518 0.00705296 
0.0198229 -0.0156851 0.00652138 0.0433204 -0.0141837 0.00749132 0.0180565 -0.00487531 0.0064308 
-0.00757157 0.00454821 0.00745695 0.00861143 0.0123591 0.00647139 -0.0256005 0.0215871 0.00763914 
0.0181332 0.0246356 0.00736201 -0.0386663 0.0253433 0.00716164 -0.0267569 0.0263983 0.00750156 
-0.00563177 0.0268155 0.00649333 -0.0127911 0.0299546 0.00639868 0.00390562 0.0317225 0.00668648 
-0.041477 0.0364172 0.00680221 -0.0155539 0.0359545 0.00782157 0.00308146 0.0401468 0.00760178 
0.0181024 -0.0433049 0.00824289 0.0348044 -0.042095 0.00768114 -0.00521279 -0.0413279 0.00916172 
-0.0385899 -0.0405251 0.00926915 -0.0168273 -0.0360331 0.00769524 0.0449741 -0.0303513 0.00823949 
0.00623721 -0.0211799 0.00866762 0.0233461 -0.0214624 0.00869924 -0.0426154 -0.0165053 0.00787751 
0.0251729 -0.00985964 0.00861585 -0.00254943 -0.00825679 0.00851091 0.0387156 -0.00624884 0.00881356 
-0.0120059 -0.00345367 0.00859517 0.0290986 -0.000251763 0.00788879 0.032558 0.00153523 0.00898108 
-0.0325416 0.00283857 0.00845406 0.030759 0.00580352 0.00849296 -0.0394276 0.0109375 0.00889585 
-0.0081225 0.0151775 0.00889642 0.00395304 0.0187088 0.00843066 -0.00739359 0.0259593 0.00843649 
0.0395905 0.0272142 0.00864947 -0.0357156 0.0282031 0.00846808 0.0191509 0.0299648 0.00811118 
-0.0108954 0.0304 0.00852077 0.026696 0.03017 0.0085408 0.0231674 0.0340949 0.00862025 
-0.0205282 0.0432397 0.00868522 -0.027409 -0.0433703 0.0102109 -0.0349861 -0.0412827 0.00955888 
0.0341086 -0.0368686 0.0101183 0.00879071 -0.0344865 0.0101202 0.0419483 -0.0348097 0.00985228 
-0.0427235 -0.0332389 0.00995757 -0.00586029 -0.0338127 0.00995801 0.0346336 -0.0325969 0.00920273 
0.0346338 -0.0290927 0.00959984 0.0101031 -0.0273014 0.0101993 0.0155599 -0.0240909 0.0099212 
-0.00827992 -0.020547 0.00915612 0.0268005 -0.0146468 0.00974033 -0.0329121 -0.0139828 0.00990967 
-0.0227164 -0.0141288 0.0095293 0.0176437 -0.0119747 0.00923843 0.0282359 -0.00877456 0.00988999 
-0.0304645 -0.00701594 0.009528 0.0404774 -0.00688032 0.00943973 -0.040885 -0.00406647 0.00935656 
0.0414788 -0.00521487 0.00947434 -0.042786 -0.00359954 0.00936126 -0.0281455 -0.00127675 0.0092366 
-0.025141 0.00447188 0.00898881 0.0404406 0.00462082 0.00931043 0.0211953 0.00966092 0.0090966 
-0.0365733 0.0119208 0.00951128 0.00243185 0.0120975 0.00997569 0.000954082 0.0152563 0.0092297 
0.0407412 0.0174253 0.00931749 -0.0245993 0.0193658 0.00993246 0.018015 0.0183735 0.00993255 
0.00128112 0.0217131 0.00946966 -0.00782209 0.0241861 0.00919319 0.00953871 0.0271324 0.0102064 
-0.0296003 0.0277025 0.0105825 -0.0337286 0.0337045 0.00968201 -0.0197415 0.0344175 0.0102133 
-0.0245447 0.0378537 0.0100903 -0.0112537 0.0395394 0.00899418 0.0221021 0.0401282 0.00924046 
0.00805094 0.0422278 0.00941266 0.0294278 0.0431452 0.00920811 0.0405446 0.0433429 0.00914169 
-0.00340304 -0.0448428 0.0108784 0.0338942 -0.0410147 0.0108278 -0.00670669 -0.0394183 0.0106439 
0.0244803 -0.0401788 0.0114835 -0.0439713 -0.0357399 0.0102506 0.0433459 -0.0353282 0.0108824 
0.00802514 -0.031483 0.0106501 -0.0386911 -0.0311434 0.0113941 0.0164647 -0.0275391 0.0111426 
-0.00580099 -0.0272788 0.0104422 -0.0338231 -0.0250135 0.010882 -0.00446216 -0.0255279 0.0112731 
-0.0405162 -0.0161033 0.0112861 -0.0269092 -0.0125643 0.0112508 -0.0196799 -0.00931279 0.0114596 
-0.00401126 -0.00720159 0.0107628 0.0275881 -0.00673863 0.0105735 0.0293019 -0.00298432 0.0106554 
-0.0408474 -0.00214648 0.0115934 0.00664535 -0.00164817 0.0108791 -0.0376932 -0.000132947 0.0115607 
0.00635633 0.000852437 0.0113171 0.0147261 0.00139147 0.0104817 -0.037077 0.00611456 0.0111108 
0.0101693 0.00555192 0.0107344 0.0142017 0.0079404 0.0109811 0.0202046 0.00840095 0.0110257 
0.014866 0.0127598 0.0115552 0.0114764 0.0140289 0.0114337 -0.0267196 0.0236159 0.010654 
0.0258603 0.0235991 0.0103904 0.0104707 0.0313218 0.0109615 -0.00435696 0.0325462 0.0111585 
0.0372507 0.0318783 0.0112796 -0.00196307 0.0366495 0.0114188 -0.0133259 0.0414802 0.0105042 
0.0131273 0.040817 0.0110797 0.0399235 0.0434757 0.0104439 -0.0160353 0.0448572 0.0116692 
-0.0346971 -0.0446764 0.0124261 0.0416479 -0.0439733 0.0118122 -0.0248654 -0.0427111 0.0126813 
0.0185094 -0.042363 0.0127223 0.0248068 -0.0428986 0.0121446 0.0238162 -0.0409762 0.0125691 
0.0339316 -0.041715 0.0124309 -0.0370475 -0.0370945 0.0122081 0.0397687 -0.0374633 0.0127924 
-0.0273176 -0.0361067 0.0124056 0.0077947 -0.0345433 0.0118858 0.027474 -0.0338615 0.0117502 
-0.0160452 -0.0323821 0.0117886 -0.015788 -0.0282898 0.0120575 -0.0240719 -0.0268296 0.0127935 
-0.0419519 -0.0259749 0.0118712 -0.0328213 -0.0176588 0.0127881 -0.0204621 -0.0172006 0.011736 
-0.015814 -0.0152491 0.0126768 0.0375745 -0.0151367 0.0127918 -0.0341597 -0.0122829 0.0123671 
0.00357123 -0.00830953 0.0124232 -0.0343844 -0.0078404 0.0129746 -0.0416237 0.00110806 0.0123062 
0.0362421 0.00170773 0.0127397 0.00265626 0.00371614 0.0125054 0.00314898 0.00491531 0.0117594 
-0.0406381 0.00555966 0.0126845 -0.00723413 0.00605583 0.0121708 0.00533928 0.00728904 0.0117053 
0.00474506 0.0103043 0.0120523 0.0261916 0.0119357 0.0126543 0.0379188 0.0120326 0.0128107 
-0.0429188 0.0135204 0.0120426 0.00757299 0.0192258 0.0125976 -0.0144089 0.0201081 0.012409 
-0.0349287 0.0230684 0.0117278 0.0146363 0.0223077 0.0118169 0.000162142 0.0251126 0.0115712 
-0.0114472 0.026715 0.0127954 0.00834461 0.0278725 0.0116425 0.0434247 0.0295768 0.012332 
-0.0213481 0.0319153 0.0120285 0.0152528 0.033152 0.0125732 -0.0375088 0.0393741 0.0117821 
0.0114086 0.0440135 0.0126145 -0.0440308 0.0448256 0.012419 0.0171919 0.0449185 0.012424 
0.0211706 0.0445491 0.012627 0.0262096 -0.0449372 0.0138785 0.0145521 -0.0432303 0.0136813 
0.000425919 -0.0415728 0.0137634 -0.0169239 -0.0402939 0.0131076 -0.00161929 -0.0353994 0.0140526 
0.0195647 -0.0366528 0.013463 0.0403097 -0.0347888 0.0141952 0.0289145 -0.0340196 0.013401 
-0.0376897 -0.0314333 0.0140613 0.00231692 -0.0294453 0.013765 -0.0401314 -0.0280847 0.013914 
0.03382 -0.0268981 0.0128816 0.0115492 -0.0227248 0.0140412 -0.0164034 -0.0216001 0.0139342 
0.0414834 -0.0181367 0.0137032 -0.0408642 -0.0154151 0.0139977 0.0249316 -0.014475 0.0131057 
0.0403752 -0.0143085 0.0137872 0.0342493 -0.0115037 0.0140897 0.0414517 -0.0114994 0.0139291 
0.0406218 -0.0100941 0.0139326 -0.0135858 -0.00672635 0.0132764 0.00523139 -0.00599236 0.0139108 
0.0154702 -0.00154679 0.0133779 -0.0356048 -0.000104637 0.013262 0.0407777 0.000744206 0.0140145 
-0.00229178 0.0020129 0.0130752 0.0323225 0.00436429 0.0140187 0.0332757 0.00539899 0.0130978 
0.0320014 0.00756294 0.0131693 0.00978397 0.00922321 0.0137708 -0.0350204 0.0121089 0.0138334 
-0.00831541 0.0129665 0.0142395 0.0128044 0.0127337 0.0133082 0.00789931 0.0136568 0.0134341 
0.0336082 0.013194 0.0139391 -0.0196462 0.0155185 0.0136939 0.0153641 0.0146287 0.01425 
-0.00443291 0.0160613 0.0132162 0.0226738 0.0181095 0.0133852 0.0256029 0.0175394 0.0141138 
0.0122157 0.0191756 0.0130855 0.0323341 0.0191974 0.0139637 0.0388885 0.0193682 0.0130014 
-0.0431379 0.0208085 0.0128931 0.00976854 0.0197772 0.0142326 0.0350116 0.0207306 0.0140347 
0.0362273 0.0220011 0.0130075 -0.0421793 0.0225172 0.0129453 -0.0295899 0.0232577 0.0137278 
-0.0170112 0.0231088 0.0133248 -0.0269229 0.0267788 0.0136347 -0.0190887 0.0269029 0.0136505 
-0.0102477 0.0267602 0.0138942 -0.0376379 0.0294143 0.0136389 0.0164577 0.0353116 0.0133863 
0.0030545 0.0369981 0.0130346 0.0311732 0.0371467 0.0134448 -0.00883869 0.0381834 0.0140062 
0.0281745 0.039089 0.0141274 -0.0437633 0.0406561 0.0143646 -0.0181988 0.0434549 0.0132087 
0.0352379 0.0438995 0.014089 0.0131812 -0.0427533 0.0152782 0.0201641 -0.0426709 0.0155027 
0.00264867 -0.0338128 0.0144895 0.0268369 -0.0315202 0.0145422 -0.0263426 -0.0292431 0.0144148 
0.023019 -0.0293484 0.015187 -0.0240024 -0.0280603 0.0146514 -0.0336946 -0.0248459 0.0149557 
0.00538025 -0.0241403 0.0141931 -0.0329608 -0.0218045 0.015197 -0.0323128 -0.0219837 0.0154535 
0.00548761 -0.0197918 0.0141994 -0.0393221 -0.0167834 0.0154731 0.0252581 -0.0163235 0.0149044 
-0.0420316 -0.0145538 0.0150108 -0.0186412 -0.0134353 0.0153894 -0.0327621 -0.0121928 0.0151826 
0.0223025 -0.0112244 0.0149299 -0.038829 -0.00978443 0.0149832 -0.0326334 -0.00963456 0.0154308 
-0.042331 -0.00792816 0.0150388 -0.024842 -0.00884532 0.0153688 -0.0214415 -0.007536 0.0143683 
0.0129906 -0.00677597 0.0148145 0.0161928 -0.00760918 0.0146885 0.00975646 -0.00313231 0.0151622 
-0.00896956 -0.00131708 0.0148892 0.0277548 0.0042931 0.0155458 0.0250346 0.00641518 0.0145398 
-0.0371624 0.011326 0.0146184 -0.00867948 0.0139924 0.0145549 0.0441199 0.0136981 0.0148947 
0.00546842 0.0177814 0.014326 -0.0122989 0.0222019 0.0154311 0.00264144 0.0247174 0.0152579 
0.0438582 0.0244724 0.015491 -0.0368667 0.0306348 0.0156212 -0.032208 0.0306075 0.0153631 
-0.0219587 0.0304934 0.014906 0.00519606 0.0301696 0.0147149 0.0354139 0.0312817 0.015093 
0.0214431 0.0335886 0.0151333 -0.00472634 0.0344449 0.0154066 0.00317215 0.0343196 0.0145426 
-0.0407273 0.0358476 0.0150015 -0.00647711 0.0391566 0.0147822 0.00513794 0.0433856 0.0153929 
0.0352701 0.0439749 0.0152542 -0.00396528 -0.0444182 0.0166367 0.0166138 -0.0412108 0.015949 
0.0424299 -0.0409921 0.0155798 -0.0406141 -0.0405112 0.0158751 0.00985621 -0.0367022 0.0160576 
-0.0309963 -0.0355024 0.0161853 0.0355384 -0.0354155 0.0162603 -0.0177429 -0.0346724 0.0161947 
-0.0220587 -0.0306349 0.0167107 -0.0414327 -0.0290659 0.0164029 0.0392765 -0.0300093 0.0169065 
-0.00863888 -0.0237376 0.016463 0.0102479 -0.024092 0.0163817 -0.0350278 -0.0224863 0.0158513 
-0.0328109 -0.0226975 0.0168135 0.035159 -0.023363 0.0159803 -0.0291427 -0.0219343 0.0167139 
0.0262592 -0.0217201 0.0160428 0.0394323 -0.021923 0.0167663 0.0184681 -0.0172117 0.0164186 
-0.0147645 -0.0165889 0.0168021 0.038292 -0.016257 0.0155523 -0.0313057 -0.0141988 0.0156653 
0.0322358 -0.0130621 0.0161429 -0.0207563 -0.0111167 0.0158746 -0.0449336 -0.00957357 0.0165548 
-0.0386256 -0.00983966 0.0161776 -0.0136128 -0.00979682 0.0161156 0.0334462 -0.00930086 0.016795 
-0.0344646 -0.00725539 0.015677 0.0180458 -0.00470109 0.0156624 -0.00941413 -0.00330341 0.0161096 
-0.0395569 -0.00227866 0.0160022 0.0168839 -0.00210364 0.0166514 -0.0283489 -0.000417126 0.0163367 
-0.0153419 -0.00108619 0.0166936 -0.000610522 -0.00103491 0.0156656 0.0140084 -6.89735e-05 0.0162636 
0.0116524 0.00206193 0.016583 0.00243665 0.00282786 0.0155361 0.0110904 0.00657535 0.0167236 
-0.0105861 0.00898083 0.016761 -0.0349081 0.00917553 0.0156732 -0.00841171 0.0143034 0.0164328 
0.0311878 0.014057 0.0159137 0.0396593 0.013993 0.0166732 0.012585 0.0155082 0.016578 
0.0440772 0.0154938 0.0159115 -0.0193355 0.018129 0.0165858 0.00153271 0.0201988 0.0167123 
-0.0287332 0.0215601 0.0157084 0.0398418 0.0217469 0.015881 -0.0148746 0.0223253 0.0168081 
0.00126512 0.0228658 0.0164048 0.00727395 0.0332762 0.016636 -0.00585061 0.0388609 0.0160273 
-0.0281804 0.0418824 0.0159938 0.0195053 -0.043722 0.0171271 -0.0136468 -0.0412372 0.0171865 
-0.0177803 -0.0340186 0.0174467 -0.0161578 -0.0337243 0.0170262 -0.0233761 -0.031813 0.0177913 
0.0412685 -0.0295104 0.0174608 -0.0346801 -0.0287009 0.0181012 0.0153133 -0.0285941 0.0174404 
-0.0432264 -0.0264101 0.0176973 0.0054016 -0.025334 0.0174616 0.00179778 -0.0247441 0.0172995 
0.00558373 -0.0242787 0.0170475 -0.0127621 -0.0231756 0.0169628 0.0109547 -0.0235646 0.0177235 
0.0240101 -0.0228809 0.0169382 -0.0210835 -0.0209207 0.0169053 -0.0033641 -0.0204173 0.0169232 
-0.0183202 -0.0175475 0.0174096 0.0132043 -0.01541 0.0181538 0.0302919 -0.0148257 0.0173474 
0.0323803 -0.0150629 0.0168307 -0.0279963 -0.0141356 0.0180829 0.0144468 -0.013247 0.0172985 
0.0323804 -0.0132471 0.0180734 -0.00528066 -0.0121118 0.0175419 -0.0211095 -0.00770044 0.0168885 
-0.00474481 -0.00600267 0.0172339 -0.0253129 -0.0039775 0.0179965 0.0200271 -0.00425623 0.0169929 
-0.0107529 -0.00365687 0.0172869 -0.0198668 -0.00211416 0.0176005 -0.0261639 0.00337815 0.0176872 
0.0183943 0.00266245 0.0172744 0.0260144 0.00429017 0.0181072 -0.00552594 0.00555795 0.0169804 
-0.0429246 0.00657681 0.0175373 -0.00071691 0.0108932 0.0180781 -0.0231109 0.0157017 0.0176819 
-0.0128609 0.0265935 0.0173978 -0.0406313 0.0295913 0.0178952 0.0191028 0.0315895 0.0171229 
0.0193546 0.0324404 0.0169612 -0.0425374 0.0333781 0.0177152 -0.0422696 0.0340949 0.0174298 
0.0278529 0.0342296 0.0181152 0.00888594 0.0360502 0.0171721 0.0439232 0.0371117 0.0180138 
-0.039126 0.0399637 0.0175255 0.00201585 0.0404036 0.0174934 0.00528787 0.0432844 0.0168718 
-0.0390775 0.0447256 0.0179299 -0.0389435 -0.0425966 0.0188926 0.0406519 -0.0427256 0.0187521 
0.00849583 -0.0405939 0.0194268 -0.0195638 -0.0385913 0.0191433 0.0325128 -0.03812 0.0184831 
-8.23525e-05 -0.034098 0.0183836 -0.0210092 -0.0320472 0.019361 -0.0396817 -0.0304797 0.0190561 
0.0347572 -0.0260666 0.018564 -0.0207996 -0.0190456 0.0191065 0.0218308 -0.0192565 0.018503 
0.0282033 -0.0178095 0.0189018 0.0253763 -0.011051 0.0194373 -0.0253401 -0.0103599 0.0190707 
-0.0150798 -0.00698339 0.0186319 0.0420414 -0.00101026 0.019299 0.0189244 0.00254502 0.0193483 
-0.0233311 0.00384073 0.0185181 -0.0403489 0.00598291 0.0186913 0.0358407 0.00533501 0.0183512 
-0.019893 0.00878872 0.0186685 0.0324887 0.00836074 0.0187912 -0.0408092 0.00981999 0.0181549 
-0.0408306 0.00999374 0.0191181 0.0234497 0.00978487 0.0183982 0.027557 0.009967 0.0192498 
-0.00808524 0.0113378 0.0189484 0.012949 0.0143048 0.0190968 -0.0287818 0.014969 0.0193071 
-0.0408838 0.0159645 0.0183145 -0.0286532 0.0159811 0.0194655 -0.0363159 0.0185996 0.0193086 
0.00742845 0.0199749 0.0188898 -0.0324762 0.0230005 0.0183473 -0.0436572 0.0238848 0.0190303 
-0.0214233 0.0285543 0.0193208 0.0397191 0.0283771 0.0184296 -0.0152062 0.0294088 0.0182916 
0.0040127 0.0314243 0.0190095 0.0337272 0.0324898 0.0192065 0.0380057 0.0324307 0.0191635 
0.00367032 0.0371324 0.0186714 -0.0317519 -0.0446953 0.020199 -0.0289295 -0.0389067 0.0195547 
-0.0234086 -0.038644 0.0207298 -0.00338111 -0.0363358 0.0202763 0.0307351 -0.0355434 0.0201418 
-0.0179089 -0.0346335 0.0203706 0.010226 -0.0308634 0.0203843 0.0156293 -0.0283842 0.0200979 
0.0350196 -0.0250011 0.0196712 0.0210005 -0.0239559 0.0195411 -0.038621 -0.0229432 0.0206954 
-0.0139777 -0.0223984 0.0195509 0.0134129 -0.0192809 0.0197066 0.0204492 -0.0194639 0.0196565 
0.0296492 -0.015918 0.0199205 -0.00710141 -0.0133745 0.019528 0.00886689 -0.0141191 0.019679 
0.0347312 -0.012978 0.0199944 0.0218314 -0.00971151 0.0201749 -0.0101373 -0.00698039 0.02005 
-0.00720807 -0.00608605 0.0202182 0.00127443 -0.000618905 0.0197804 -0.0332593 0.000859011 0.0201657 
-0.027449 0.00511055 0.0197029 -0.01547 0.00642247 0.0199093 -0.009285 0.00693532 0.0199713 
-0.00598638 0.00689803 0.0199577 0.023953 0.00820576 0.0199113 -0.0161548 0.0159009 0.0202809 
-0.00317984 0.0164631 0.0195447 0.00976298 0.0163696 0.0204116 -0.0436896 0.0195853 0.020045 
-0.0138035 0.0240512 0.0201404 0.021223 0.0244832 0.0196633 -0.0132251 0.0252506 0.0202339 
-0.00750544 0.0361316 0.0198669 -0.0379532 0.0399341 0.0206388 0.0170579 0.0421878 0.0196589 
0.043014 -0.0343178 0.0209139 -0.0131355 0.00164571 0.0214635 -0.0137512 0.00384646 0.0217342 
0.00418285 0.0112423 0.0211816 -0.0359241 0.0337864 0.0213161 0.0132394 0.0345575 0.0213081 
-0.00785852 0.041878 0.0208823 0.0430506 0.0422314 0.0208086 -0.0190394 0.0446837 0.0212146 
0.0147823 -0.0446949 0.0223178 -0.00682403 -0.0314098 0.0226052 0.0272875 -0.0186725 0.0234137 
0.0386193 -0.00496685 0.022436 0.0448793 -0.00396119 0.0231644 0.039455 -0.000236508 0.022913 
-0.014478 0.0275162 0.0227021 0.0352883 -0.0103067 0.0245131 -0.0442311 0.00821601 0.0236052 
-0.0122189 0.0175978 0.0245152 -0.0260391 0.0304395 0.0246128 -0.0225361 -0.0441701 0.0252046 
0.0127657 -0.00746761 0.0247499 0.0133448 0.00646544 0.0250465 0.0242571 -0.0100823 0.0369614 

VERTICES 649 648
OFFSETS vtktypeint64
0 1 2 3 4 5 6 7 8 
9 10 11 12 13 14 15 16 17 
18 19 20 21 22 23 24 25 26 
27 28 29 30 31 32 33 34 35 
36 37 38 39 40 41 42 43 44 
45 46 47 48 49 50 51 52 53 
54 55 56 57 58 59 60 61 62 
63 64 65 66 67 68 69 70 71 
72 73 74 75 76 77 78 79 80 
81 82 83 84 85 86 87 88 89 
90 91 92 93 94 95 96 97 98 
99 100 101 102 103 104 105 106 107 
108 109 110 111 112 113 114 115 116 
117 118 119 120 121 122 123 124 125 
126 127 128 129 130 131 132 133 134 
135 136 137 138 139 140 141 142 143 
144 145 146 147 148 149 150 151 152 
153 154 155 156 157 158 159 160 161 
162 163 164 165 166 167 168 169 170 
171 172 173 174 175 176 177 178 179 
180 181 182 183 184 185 186 187 188 
189 190 191 192 193 194 195 196 197 
198 199 200 201 202 203 204 205 206 
207 208 209 210 211 212 213 214 215 
216 217 218 219 220 221 222 223 224 
225 226 227 228 229 230 231 232 233 
234 235 236 237 238 239 240 241 242 
243 244 245 246 247 248 249 250 251 
252 253 254 255 256 257 258 259 260 
261 262 263 264 265 266 267 268 269 
270 271 272 273 274 275 276 277 278 
279 280 281 282 283 284 285 286 287 
288 289 290 291 292 293 294 295 296 
297 298 299 300 301 302 303 304 305 
306 307 308 309 310 311 312 313 314 
315 316 317 318 319 320 321 322 323 
324 325 326 327 328 329 330 331 332 
333 334 335 336 337 338 339 340 341 
342 343 344 345 346 347 348 349 350 
351 352 353 354 355 356 357 358 359 
360 361 362 363 364 365 366 367 368 
369 370 371 372 373 374 375 376 377 
378 379 380 381 382 383 384 385 386 
387 388 389 390 391 392 393 394 395 
396 397 398 399 400 401 402 403 404 
405 406 407 408 409 410 411 412 413 
414 415 416 417 418 419 420 421 422 
423 424 425 426 427 428 429 430 431 
432 433 434 435 436 437 438 439 440 
441 442 443 444 445 446 447 448 449 
450 451 452 453 454 455 456 457 458 
459 460 461 462 463 464 465 466 467 
468 469 470 471 472 473 474 475 476 
477 478 479 480 481 482 483 484 485 
486 487 488 489 490 491 492 493 494 
495 496 497 498 499 500 501 502 503 
504 505 506 507 508 509 510 511 512 
513 514 515 516 517 518 519 520 521 
522 523 524 525 526 527 528 529 530 
531 532 533 534 535 536 537 538 539 
540 541 542 543 544 545 546 547 548 
549 550 551 552 553 554 555 556 557 
558 559 560 561 562 563 564 565 566 
567 568 569 570 571 572 573 574 575 
576 577 578 579 580 581 582 583 584 
585 586 587 588 589 590 591 592 593 
594 595 596 597 598 599 600 601 602 
603 604 605 606 607 608 609 610 611 
612 613 614 615 616 617 618 619 620 
621 622 623 624 625 626 627 628 629 
630 631 632 633 634 635 636 637 638 
639 640 641 642 643 644 645 646 647 
648 
CONNECTIVITY vtktypeint64
0 1 2 3 4 5 6 7 8 
9 10 11 12 13 14 15 16 17 
18 19 20 21 22 23 24 25 26 
27 28 29 30 31 32 33 34 35 
36 37 38 39 40 41 42 43 44 
45 46 47 48 49 50 51 52 53 
54 55 56 57 58 59 60 61 62 
63 64 65 66 67 68 69 70 71 
72 73 74 75 76 77 78 79 80 
81 82 83 84 85 86 87 88 89 
90 91 92 93 94 95 96 97 98 
99 100 101 102 103 104 105 106 107 
108 109 110 111 112 113 114 115 116 
117 118 119 120 121 122 123 124 125 
126 127 128 129 130 131 132 133 134 
135 136 137 138 139 140 141 142 143 
144 145 146 147 148 149 150 151 152 
153 154 155 156 157 158 159 160 161 
162 163 164 165 166 167 168 169 170 
171 172 173 174 175 176 177 178 179 
180 181 182 183 184 185 186 187 188 
189 190 191 192 193 194 195 196 197 
198 199 200 201 202 203 204 205 206 
207 208 209 210 211 212 213 214 215 
216 217 218 219 220 221 222 223 224 
225 226 227 228 229 230 231 232 233 
234 235 236 237 238 239 240 241 242 
243 244 245 246 247 248 249 250 251 
252 253 254 255 256 257 258 259 260 
261 262 263 264 265 266 267 268 269 
270 271 272 273 274 275 276 277 278 
279 280 281 282 283 284 285 286 287 
288 289 290 291 292 293 294 295 296 
297 298 299 300 301 302 303 304 305 
306 307 308 309 310 311 312 313 314 
315 316 317 318 319 320 321 322 323 
324 325 326 327 328 329 330 331 332 
333 334 335 336 337 338 339 340 341 
342 343 344 345 346 347 348 349 350 
351 352 353 354 355 356 357 358 359 
360 361 362 363 364 365 366 367 368 
369 370 371 372 373 374 375 376 377 
378 379 380 381 382 383 384 385 386 
387 388 389 390 391 392 393 394 395 
396 397 398 399 400 401 402 403 404 
405 406 407 408 409 410 411 412 413 
414 415 416 417 418 419 420 421 422 
423 424 425 426 427 428 429 430 431 
432 433 434 435 436 437 438 439 440 
441 442 443 444 445 446 447 448 449 
450 451 452 453 454 455 456 457 458 
459 460 461 462 463 464 465 466 467 
468 469 470 471 472 473 474 475 476 
477 478 479 480 481 482 483 484 485 
486 487 488 489 490 491 492 493 494 
495 496 497 498 499 500 501 502 503 
504 505 506 507 508 509 510 511 512 
513 514 515 516 517 518 519 520 521 
522 523 524 525 526 527 528 529 530 
531 532 533 534 535 536 537 538 539 
540 541 542 543 544 545 546 547 548 
549 550 551 552 553 554 555 556 557 
558 559 560 561 562 563 564 565 566 
567 568 569 570 571 572 573 574 575 
576 577 578 579 580 581 582 583 584 
585 586 587 588 589 590 591 592 593 
594 595 596 597 598 599 600 601 602 
603 604 605 606 607 608 609 610 611 
612 613 614 615 616 617 618 619 620 
621 622 623 624 625 626 627 628 629 
630 631 632 633 634 635 636 637 638 
639 640 641 642 643 644 645 646 647 

POINT_DATA 648
FIELD FieldData 12
id 1 648 int
347 107 291 282 176 86 478 456 423 
197 149 26 270 164 463 200 134 508 
92 459 115 356 88 51 404 304 185 
137 331 267 317 470 154 439 289 355 
444 381 215 106 292 231 428 127 293 
72 336 383 370 57 385 66 132 465 
36 175 418 458 407 467 214 432 297 
169 322 310 433 339 110 166 49 18 
219 195 163 506 327 85 362 246 386 
412 372 366 190 238 58 227 6 515 
642 396 353 450 261 288 150 491 521 
189 187 318 218 207 87 35 24 303 
640 237 247 125 83 641 165 255 373 
60 193 40 364 158 29 328 457 34 
367 636 627 121 64 440 483 157 324 
243 621 186 129 202 308 488 201 253 
320 62 256 128 479 73 168 644 11 
631 401 646 12 100 408 280 504 148 
233 624 643 346 140 632 648 226 352 
167 472 496 427 260 299 257 341 538 
334 454 601 619 417 162 461 410 321 
343 268 251 406 188 562 626 319 584 
229 571 543 294 645 71 174 290 500 
612 349 602 399 368 567 647 263 542 
56 141 420 345 273 469 392 582 117 
337 14 199 609 348 600 437 155 435 
91 108 272 98 577 314 326 22 605 
505 333 445 409 415 604 572 8 248 
42 615 592 360 135 204 630 90 495 
546 424 112 21 633 109 507 611 222 
94 232 361 606 351 614 275 31 113 
635 390 429 597 411 122 82 489 589 
570 629 13 574 274 298 374 194 380 
608 563 75 61 598 593 503 486 426 
338 446 620 384 443 625 330 104 9 
30 509 114 583 579 76 302 639 55 
438 534 84 591 99 159 436 69 634 
477 139 502 183 449 160 603 143 240 
211 628 638 311 32 377 610 568 196 
565 216 126 556 497 181 262 378 46 
236 178 622 220 54 118 447 607 161 
357 514 33 529 287 254 588 637 498 
535 451 552 182 198 559 536 575 375 
475 414 203 616 5 295 103 96 581 
484 578 576 28 618 553 590 59 146 
599 16 617 95 569 10 580 278 20 
151 613 474 595 119 63 587 431 520 
206 594 596 419 81 623 235 387 313 
309 413 586 397 89 52 271 549 102 
487 344 518 250 393 533 493 223 526 
541 329 547 573 111 551 462 170 306 
566 585 554 544 264 38 53 252 142 
382 371 205 217 564 265 208 244 528 
144 400 17 395 363 560 358 184 561 
138 279 325 394 225 45 555 93 68 
350 156 239 548 354 147 527 532 116 
79 416 192 323 403 25 539 376 537 
74 276 460 530 43 511 557 285 105 
171 405 519 305 379 545 301 221 70 
266 524 481 65 455 550 421 286 531 
523 123 342 476 258 471 136 210 359 
388 307 525 430 177 558 517 340 23 
522 80 77 212 501 153 124 145 4 
453 296 480 442 41 48 315 228 485 
281 130 191 209 179 540 332 180 466 
482 242 312 173 67 492 402 283 120 
335 234 37 513 44 448 422 490 441 
259 101 39 224 365 389 284 245 425 
213 510 468 473 15 152 97 78 131 
452 249 434 47 499 300 464 494 391 
277 19 172 241 398 516 133 50 2 
369 3 316 7 269 230 27 512 1 

type 1 648 int
1 1 1 1 1 1 1 1 1 
1 1 1 1 1 1 1 1 1 
1 1 1 1 1 1 1 1 1 
1 1 1 1 1 1 1 1 1 
1 1 1 1 1 1 1 1 1 
1 1 1 1 1 1 1 1 1 
1 1 1 1 1 1 1 1 1 
1 1 1 1 1 1 1 1 1 
1 1 1 1 1 1 1 1 1 
1 1 1 1 1 1 1 2 1 
1 1 1 1 1 1 1 1 1 
1 1 1 1 1 1 1 1 1 
1 1 1 1 1 1 1 1 1 
1 1 1 1 1 1 1 1 1 
1 1 1 1 1 1 1 1 1 
1 1 1 1 1 1 1 1 1 
1 1 1 1 1 1 1 1 2 
1 1 1 2 1 1 1 1 1 
1 1 1 1 1 1 1 1 1 
1 1 1 1 1 1 1 1 1 
1 1 1 1 1 1 1 1 1 
1 1 1 1 1 1 1 1 1 
1 1 1 1 1 1 1 1 1 
1 1 1 1 1 1 1 1 1 
1 1 1 1 1 1 1 1 1 
1 2 1 1 1 1 1 1 1 
1 1 1 1 1 1 1 1 1 
1 1 1 1 1 1 1 2 1 
1 1 1 1 1 1 1 1 1 
1 1 1 1 1 1 1 1 1 
1 1 1 1 1 1 1 1 1 
1 1 1 1 1 1 1 1 1 
1 1 2 1 1 1 1 1 1 
1 1 1 1 1 1 1 1 1 
1 1 1 1 1 1 1 1 2 
1 1 1 1 1 1 1 1 1 
1 1 1 1 1 1 1 1 2 
1 1 1 1 1 1 1 1 1 
1 1 1 1 1 1 1 1 1 
1 1 1 1 1 1 1 1 1 
1 1 1 1 1 1 1 1 1 
1 1 1 1 1 1 1 1 1 
1 1 1 1 1 1 1 1 1 
1 1 1 1 2 1 1 1 1 
1 1 1 1 1 1 1 1 1 
1 2 1 1 1 2 1 1 1 
1 1 1 1 1 1 1 1 1 
1 1 1 1 1 1 1 1 1 
1 1 1 1 1 1 1 1 1 
1 1 1 1 1 1 1 1 1 
1 1 1 1 1 1 1 1 1 
1 1 1 1 1 1 1 1 1 
1 1 1 1 1 1 1 1 1 
1 1 1 1 1 1 1 1 1 
1 1 1 1 1 1 1 1 1 
1 1 1 1 1 1 1 1 1 
1 1 1 1 1 1 1 1 1 
1 1 1 1 1 1 1 1 1 
1 1 1 1 1 1 1 1 1 
1 1 1 1 1 1 1 1 1 
1 1 1 1 1 1 1 1 1 
1 1 1 1 1 1 1 1 1 
1 1 1 1 1 1 1 1 2 
1 1 1 1 1 1 1 1 1 
1 1 1 1 1 1 1 1 1 
1 1 1 1 1 1 1 1 1 
1 1 1 1 1 1 1 1 1 
1 1 1 1 1 1 1 1 1 
1 1 1 1 2 1 1 1 1 
1 1 1 1 1 1 1 1 1 
1 1 1 1 1 2 1 1 3 
1 2 1 2 1 1 1 2 4 

i 3 648 int
0 0 0 0 0 0 0 0 0 
0 0 0 0 0 0 0 0 0 
0 0 0 0 0 0 0 0 0 
0 0 0 0 0 0 0 0 0 
0 0 0 0 0 0 0 0 0 
0 0 0 0 0 0 0 0 0 
0 0 0 0 0 0 0 0 0 
0 0 0 0 0 0 0 0 0 
0 0 0 0 0 0 0 0 0 
0 0 0 0 0 0 0 0 0 
0 0 0 0 0 0 0 0 0 
0 0 0 0 0 0 0 0 0 
0 0 0 0 0 0 0 0 0 
0 0 0 0 0 0 0 0 0 
0 0 0 0 0 0 0 0 0 
0 0 0 0 0 0 0 0 0 
0 0 0 0 0 0 0 0 0 
0 0 0 0 0 0 0 0 0 
0 0 0 0 0 0 0 0 0 
0 0 0 0 0 0 0 0 0 
0 0 0 0 0 0 0 0 0 
0 0 0 0 0 0 0 0 0 
0 0 0 0 0 0 0 0 0 
0 0 0 0 0 0 0 0 0 
0 0 0 0 0 0 0 0 0 
0 0 0 0 0 0 0 0 0 
0 0 0 0 0 0 0 0 0 
0 0 0 0 0 0 0 0 0 
0 0 0 0 0 0 0 0 0 
0 0 0 0 0 0 0 0 0 
0 0 0 0 0 0 0 0 0 
0 0 0 0 0 0 0 0 0 
0 0 0 0 0 0 0 0 0 
0 0 0 0 0 0 0 0 0 
0 0 0 0 0 0 0 0 0 
0 0 0 0 0 0 0 0 0 
0 0 0 0 0 0 0 0 0 
0 0 0 0 0 0 0 0 0 
0 0 0 0 0 0 0 0 0 
0 0 0 0 0 0 0 0 0 
0 0 0 0 0 0 0 0 0 
0 0 0 0 0 0 0 0 0 
0 0 0 0 0 0 0 0 0 
0 0 0 0 0 0 0 0 0 
0 0 0 0 0 0 0 0 0 
0 0 0 0 0 0 0 0 0 
0 0 0 0 0 0 0 0 0 
0 0 0 0 0 0 0 0 0 
0 0 0 0 0 0 0 0 0 
0 0 0 0 0 0 0 0 0 
0 0 0 0 0 0 0 0 0 
0 0 0 0 0 0 0 0 0 
0 0 0 0 0 0 0 0 0 
0 0 0 0 0 0 0 0 0 
0 0 0 0 0 0 0 0 0 
0 0 0 0 0 0 0 0 0 
0 0 0 0 0 0 0 0 0 
0 0 0 0 0 0 0 0 0 
0 0 0 0 0 0 0 0 0 
0 0 0 0 0 0 0 0 0 
0 0 0 0 0 0 0 0 0 
0 0 0 0 0 0 0 0 0 
0 0 0 0 0 0 0 0 0 
0 0 0 0 0 0 0 0 0 
0 0 0 0 0 0 0 0 0 
0 0 0 0 0 0 0 0 0 
0 0 0 0 0 0 0 0 0 
0 0 0 0 0 0 0 0 0 
0 0 0 0 0 0 0 0 0 
0 0 0 0 0 0 0 0 0 
0 0 0 0 0 0 0 0 0 
0 0 0 0 0 0 0 0 0 
0 0 0 0 0 0 0 0 0 
0 0 0 0 0 0 0 0 0 
0 0 0 0 0 0 0 0 0 
0 0 0 0 0 0 0 0 0 
0 0 0 0 0 0 0 0 0 
0 0 0 0 0 0 0 0 0 
0 0 0 0 0 0 0 0 0 
0 0 0 0 0 0 0 0 0 
0 0 0 0 0 0 0 0 0 
0 0 0 0 0 0 0 0 0 
0 0 0 0 0 0 0 0 0 
0 0 0 0 0 0 0 0 0 
0 0 0 0 0 0 0 0 0 
0 0 0 0 0 0 0 0 0 
0 0 0 0 0 0 0 0 0 
0 0 0 0 0 0 0 0 0 
0 0 0 0 0 0 0 0 0 
0 0 0 0 0 0 0 0 0 
0 0 0 0 0 0 0 0 0 
0 0 0 0 0 0 0 0 0 
0 0 0 0 0 0 0 0 0 
0 0 0 0 0 0 0 0 0 
0 0 0 0 0 0 0 0 0 
0 0 0 0 0 0 0 0 0 
0 0 0 0 0 0 0 0 0 
0 0 0 0 0 0 0 0 0 
0 0 0 0 0 0 0 0 0 
0 0 0 0 0 0 0 0 0 
0 0 0 0 0 0 0 0 0 
0 0 0 0 0 0 0 0 0 
0 0 0 0 0 0 0 0 0 
0 0 0 0 0 0 0 0 0 
0 0 0 0 0 0 0 0 0 
0 0 0 0 0 0 0 0 0 
0 0 0 0 0 0 0 0 0 
0 0 0 0 0 0 0 0 0 
0 0 0 0 0 0 0 0 0 
0 0 0 0 0 0 0 0 0 
0 0 0 0 0 0 0 0 0 
0 0 0 0 0 0 0 0 0 
0 0 0 0 0 0 0 0 0 
0 0 0 0 0 0 0 0 0 
0 0 0 0 0 0 0 0 0 
0 0 0 0 0 0 0 0 0 
0 0 0 0 0 0 0 0 0 
0 0 0 0 0 0 0 0 0 
0 0 0 0 0 0 0 0 0 
0 0 0 0 0 0 0 0 0 
0 0 0 0 0 0 0 0 0 
0 0 0 0 0 0 0 0 0 
0 0 0 0 0 0 0 0 0 
0 0 0 0 0 0 0 0 0 
0 0 0 0 0 0 0 0 0 
0 0 0 0 0 0 0 0 0 
0 0 0 0 0 0 0 0 0 
0 0 0 0 0 0 0 0 0 
0 0 0 0 0 0 0 0 0 
0 0 0 0 0 0 0 0 0 
0 0 0 0 0 0 0 0 0 
0 0 0 0 0 0 0 0 0 
0 0 0 0 0 0 0 0 0 
0 0 0 0 0 0 0 0 0 
0 0 0 0 0 0 0 0 0 
0 0 0 0 0 0 0 0 0 
0 0 0 0 0 0 0 0 0 
0 0 0 0 0 0 0 0 0 
0 0 0 0 0 0 0 0 0 
0 0 0 0 0 0 0 0 0 
0 0 0 0 0 0 0 0 0 
0 0 0 0 0 0 0 0 0 
0 0 0 0 0 0 0 0 0 
0 0 0 0 0 0 0 0 0 
0 0 0 0 0 0 0 0 0 
0 0 0 0 0 0 0 0 0 
0 0 0 0 0 0 0 0 0 
0 0 0 0 0 0 0 0 0 
0 0 0 0 0 0 0 0 0 
0 0 0 0 0 0 0 0 0 
0 0 0 0 0 0 0 0 0 
0 0 0 0 0 0 0 0 0 
0 0 0 0 0 0 0 0 0 
0 0 0 0 0 0 0 0 0 
0 0 0 0 0 0 0 0 0 
0 0 0 0 0 0 0 0 0 
0 0 0 0 0 0 0 0 0 
0 0 0 0 0 0 0 0 0 
0 0 0 0 0 0 0 0 0 
0 0 0 0 0 0 0 0 0 
0 0 0 0 0 0 0 0 0 
0 0 0 0 0 0 0 0 0 
0 0 0 0 0 0 0 0 0 
0 0 0 0 0 0 0 0 0 
0 0 0 0 0 0 0 0 0 
0 0 0 0 0 0 0 0 0 
0 0 0 0 0 0 0 0 0 
0 0 0 0 0 0 0 0 0 
0 0 0 0 0 0 0 0 0 
0 0 0 0 0 0 0 0 0 
0 0 0 0 0 0 0 0 0 
0 0 0 0 0 0 0 0 0 
0 0 0 0 0 0 0 0 0 
0 0 0 0 0 0 0 0 0 
0 0 0 0 0 0 0 0 0 
0 0 0 0 0 0 0 0 0 
0 0 0 0 0 0 0 0 0 
0 0 0 0 0 0 0 0 0 
0 0 0 0 0 0 0 0 0 
0 0 0 0 0 0 0 0 0 
0 0 0 0 0 0 0 0 0 
0 0 0 0 0 0 0 0 0 
0 0 0 0 0 0 0 0 0 
0 0 0 0 0 0 0 0 0 
0 0 0 0 0 0 0 0 0 
0 0 0 0 0 0 0 0 0 
0 0 0 0 0 0 0 0 0 
0 0 0 0 0 0 0 0 0 
0 0 0 0 0 0 0 0 0 
0 0 0 0 0 0 0 0 0 
0 0 0 0 0 0 0 0 0 
0 0 0 0 0 0 0 0 0 
0 0 0 0 0 0 0 0 0 
0 0 0 0 0 0 0 0 0 
0 0 0 0 0 0 0 0 0 
0 0 0 0 0 0 0 0 0 
0 0 0 0 0 0 0 0 0 
0 0 0 0 0 0 0 0 0 
0 0 0 0 0 0 0 0 0 
0 0 0 0 0 0 0 0 0 
0 0 0 0 0 0 0 0 0 
0 0 0 0 0 0 0 0 0 
0 0 0 0 0 0 0 0 0 
0 0 0 0 0 0 0 0 0 
0 0 0 0 0 0 0 0 0 
0 0 0 0 0 0 0 0 0 
0 0 0 0 0 0 0 0 0 
0 0 0 0 0 0 0 0 0 
0 0 0 0 0 0 0 0 0 
0 0 0 0 0 0 0 0 0 
0 0 0 0 0 0 0 0 0 
0 0 0 0 0 0 0 0 0 
0 0 0 0 0 0 0 0 0 
0 0 0 0 0 0 0 0 0 
0 0 0 0 0 0 0 0 0 
0 0 0 0 0 0 0 0 0 

v 3 648 double
0 0 0.070620958046 0 0 0.063772244669 0 0 0.081076057968 
0 0 0.059185187674 0 0 -0.20778162324 0 0 -0.20725247637 
0 0 0.06117329321 0 0 0.056115281912 0 0 0.082750329382 
0 0 0.063516759203 0 0 0.07680955194 0 0 0.077999254357 
0 0 0.0630202379 0 0 -0.0061348221447 0 0 -0.1831527083 
0 0 0.06262299825 0 0 0.073566917503 0 0 0.043324155535 
0 0 0.021037886116 0 0 0.043510381499 0 0 -0.019142432753 
0 0 -0.20642012028 0 0 -0.20487306176 0 0 -0.18189150747 
0 0 0.061319930256 0 0 0.031679650856 0 0 -0.0038700272197 
0 0 -0.18435232613 0 0 0.057671288207 0 0 -0.18161918105 
0 0 0.058841138289 0 0 0.038468519723 0 0 0.039520183821 
0 0 -0.1808731372 0 0 0.057595675417 0 0 -0.18713068169 
0 0 0.052787384483 0 0 -0.20166725152 0 0 -0.20074850927 
0 0 0.030049038052 0 0 0.061753392513 0 0 0.062074246691 
0 0 0.057899358241 0 0 -0.20541247862 0 0 0.014185180373 
0 0 -0.0042697486942 0 0 -0.20072505798 0 0 -0.016276218717 
0 0 0.0247536614 0 0 -0.026567687611 0 0 -0.20120678279 
0 0 0.066321230502 0 0 0.047805619003 0 0 -0.016838751138 
0 0 0.048262177102 0 0 0.040595710346 0 0 0.01225333745 
0 0 0.02221669494 0 0 0.025689329405 0 0 -0.18682862631 
0 0 0.013884532603 0 0 0.051251944655 0 0 0.043798294285 
0 0 0.0016103460734 0 0 0.068568549166 0 0 0.033345741039 
0 0 0.011240024831 0 0 0.02466423371 0 0 -0.18247625166 
0 0 0.018262179788 0 0 0.028803404008 0 0 -0.0054197414845 
0 0 0.014268635052 0 0 -0.0047152975071 0 0 -0.1825212331 
0 0 0.046830445929 0 0 -0.18757276032 0 0 0.050768301193 
0 0 0.030303611178 0 0 0.040798431187 0 0 0.050812521093 
0 0 -0.18145751934 0 0 0.035065536617 0 0 -0.19164362931 
0 0 0.016407210453 0 0 -0.17102267749 0 0 -0.19021338286 
0 0 -0.16914502595 0 0 -0.20206914438 0 0 -0.15490612488 
0 0 0.23595151278 0 0 -0.0065397732786 0 0 -0.19788710715 
0 0 0.011555909323 0 0 -0.17458121331 0 0 -0.16956328755 
0 0 0.019504174139 0 0 0.0081987947068 0 0 -0.15482906784 
0 0 -0.19504635742 0 0 -0.19418635291 0 0 -0.16870949697 
0 0 -0.16060709892 0 0 -0.17606611258 0 0 -0.18500397486 
0 0 -0.15470314994 0 0 -0.16174780207 0 0 -0.16350596714 
0 0 0.24805439355 0 0 -0.18888357505 0 0 -0.192021644 
0 0 -0.19084379099 0 0 -0.18218390065 0 0 0.20172742398 
0 0 -0.1899854314 0 0 -0.15962145832 0 0 -0.18982688129 
0 0 -0.17106628114 0 0 -0.18675198234 0 0 -0.17164373049 
0 0 -0.18727645292 0 0 -0.18377914341 0 0 -0.18489246967 
0 0 -0.15837015876 0 0 -0.1759687566 0 0 -0.15307566064 
0 0 -0.1800038379 0 0 0.21659996973 0 0 0.21888238299 
0 0 -0.150046865 0 0 -0.15054118286 0 0 -0.1772634855 
0 0 -0.17564415757 0 0 -0.14403673018 0 0 -0.16005002168 
0 0 -0.1504032845 0 0 0.22035056041 0 0 -0.1781457402 
0 0 -0.14858751215 0 0 -0.15047572519 0 0 -0.14633186408 
0 0 -0.17195443496 0 0 -0.14954311914 0 0 -0.18518662176 
0 0 -0.14978298683 0 0 -0.14888904199 0 0 -0.17095309341 
0 0 -0.13437464467 0 0 -0.14486537539 0 0 -0.16808020765 
0 0 -0.15118164411 0 0 0.19524765905 0 0 -0.18491924314 
0 0 0.203317768 0 0 -0.14277796832 0 0 0.19582962169 
0 0 -0.18219148684 0 0 -0.1650072975 0 0 -0.16282005835 
0 0 -0.17587589396 0 0 -0.13660740526 0 0 -0.14020534487 
0 0 -0.16825234056 0 0 0.16723196469 0 0 0.14411118889 
0 0 -0.12716722694 0 0 -0.13553810589 0 0 0.17851533454 
0 0 0.17147136663 0 0 -0.13429428212 0 0 -0.12570872714 
0 0 -0.15296877086 0 0 -0.12877820104 0 0 -0.16269700841 
0 0 -0.1544030095 0 0 -0.12241426892 0 0 -0.12345431626 
0 0 -0.12642217749 0 0 -0.13590895726 0 0 -0.083049899532 
0 0 -0.12295005477 0 0 -0.15427253511 0 0 -0.049785437887 
0 0 0.18558441911 0 0 -0.15485020503 0 0 -0.1556570344 
0 0 -0.12120897835 0 0 -0.15463712531 0 0 -0.15732175843 
0 0 -0.12892557624 0 0 -0.12421791378 0 0 -0.12832036244 
0 0 -0.15399400988 0 0 -0.14007163487 0 0 -0.059690027179 
0 0 0.089209150458 0 0 -0.1407875661 0 0 0.14169277323 
0 0 -0.14265897984 0 0 -0.046001583468 0 0 -0.075721949808 
0 0 -0.11518590776 0 0 0.013333953287 0 0 -0.10778685288 
0 0 -0.13231272613 0 0 -0.14635421003 0 0 -0.14677200302 
0 0 -0.029721955491 0 0 -0.14914450193 0 0 0.18853292434 
0 0 -0.14580002527 0 0 -0.11279819804 0 0 -0.064109832079 
0 0 0.17131564817 0 0 -0.14719890082 0 0 -0.092217206466 
0 0 -0.11922960842 0 0 -0.13650478303 0 0 -0.11610789595 
0 0 -0.11190684851 0 0 -0.10915192976 0 0 -0.12404822011 
0 0 -0.11956513029 0 0 0.13454773284 0 0 -0.10962235859 
0 0 -0.14666939647 0 0 -0.1681936193 0 0 -0.14067281145 
0 0 0.1682901708 0 0 -0.11201599259 0 0 0.13121137585 
0 0 -0.12658915407 0 0 -0.15283193911 0 0 -0.15642647087 
0 0 -0.14687832335 0 0 -0.11582997025 0 0 -0.12398099558 
0 0 -0.13433032222 0 0 -0.024549268001 0 0 -0.13674597544 
0 0 -0.13579460313 0 0 -0.14655583726 0 0 -0.0061076759671 
0 0 -0.12762862579 0 0 -0.10243241745 0 0 -0.095613256021 
0 0 -0.13915946601 0 0 -0.13429472007 0 0 0.02596246035 
0 0 -0.015561099453 0 0 -0.15250434997 0 0 -0.12902551405 
0 0 -0.1055435268 0 0 -0.007864278047 0 0 -0.017945366758 
0 0 -0.099650530546 0 0 -0.097456446769 0 0 -0.098161290826 
0 0 0.18706195153 0 0 -0.1377257758 0 0 -0.13368514289 
0 0 -0.049885048513 0 0 -0.13789606989 0 0 -0.1371502357 
0 0 -0.13624910622 0 0 0.063763565512 0 0 -0.10697225183 
0 0 -0.086020734196 0 0 0.13421916271 0 0 -0.13819854739 
0 0 -0.10690669601 0 0 -0.10677801615 0 0 -0.10160735962 
0 0 0.18440946253 0 0 -0.13800074307 0 0 0.05103755015 
0 0 -0.12099284492 0 0 -0.090328013155 0 0 -0.11803902484 
0 0 0.12380976474 0 0 -0.12258735777 0 0 -0.12114324919 
0 0 0.058080475676 0 0 -0.13482414998 0 0 -0.11770318077 
0 0 -0.08279654627 0 0 -0.090189046249 0 0 -0.036594299436 
0 0 -0.0094898507779 0 0 0.13394048616 0 0 -0.14158478661 
0 0 0.10394479815 0 0 -0.076715886422 0 0 -0.12862553766 
0 0 -0.077141348123 0 0 -0.076195678771 0 0 -0.087771441942 
0 0 0.17349327241 0 0 -0.0072959298392 0 0 -0.12132563446 
0 0 -0.12079689336 0 0 0.059849931373 0 0 0.034262948852 
0 0 -0.071106449507 0 0 -0.12540310733 0 0 -0.095770208203 
0 0 -0.085512228527 0 0 -0.11857296786 0 0 0.1290708262 
0 0 -0.12938487078 0 0 -0.077508396898 0 0 0.15838354909 
0 0 -0.12795191482 0 0 -0.13200089795 0 0 -0.15567276837 
0 0 -0.12510167782 0 0 -0.070146108065 0 0 -0.080541933119 
0 0 0.04242309606 0 0 0.031142056615 0 0 -0.12640852996 
0 0 -0.080684391885 0 0 0.1240171594 0 0 -0.082329017912 
0 0 -0.07842992494 0 0 0.022431882671 0 0 -0.10831065696 
0 0 -0.028285867539 0 0 -0.070989709046 0 0 -0.062957210601 
0 0 -0.074979298561 0 0 -0.060582889427 0 0 0.16720923907 
0 0 -0.10380226256 0 0 -0.077639369669 0 0 -0.057890426614 
0 0 -0.11761399177 0 0 -0.074483543364 0 0 -0.070284271792 
0 0 0.1196691842 0 0 -0.069110030034 0 0 -0.12254776441 
0 0 -0.1093458181 0 0 0.072681806193 0 0 0.034269168483 
0 0 -0.10618907411 0 0 -0.1203005359 0 0 -0.10961012013 
0 0 0.15691876206 0 0 0.15260259914 0 0 -0.10737583474 
0 0 0.0049786725615 0 0 -0.10392234087 0 0 -0.083585886878 
0 0 0.076614927595 0 0 -0.062525083902 0 0 -0.074806953682 
0 0 -0.055511535201 0 0 -0.11413418312 0 0 -0.070083082801 
0 0 -0.11644016925 0 0 -0.10755507242 0 0 0.088778627313 
0 0 -0.06927993373 0 0 -0.1251380442 0 0 -0.059719805189 
0 0 -0.11663469712 0 0 0.11260788653 0 0 -0.11958514262 
0 0 -0.12434080423 0 0 -0.014943932574 0 0 -0.067662743925 
0 0 -0.088396252394 0 0 -0.11483856329 0 0 -0.079156120467 
0 0 0.20161717133 0 0 0.087612926063 0 0 -0.11077623381 
0 0 0.043295665235 0 0 -0.11087099092 0 0 0.054743994424 
0 0 -0.087851385161 0 0 -0.11374245413 0 0 -0.053690642541 
0 0 -0.05925440739 0 0 0.13228402464 0 0 -0.11231484143 
0 0 -0.10583173209 0 0 -0.091726667178 0 0 -0.044955361674 
0 0 0.043364989091 0 0 -0.12689262386 0 0 -0.10105403963 
0 0 -0.057214364488 0 0 -0.11289142852 0 0 0.1084107554 
0 0 -0.11221906924 0 0 0.10141975184 0 0 -0.0013908881822 
0 0 -0.10483199868 0 0 0.087014345347 0 0 -0.031642162673 
0 0 0.12620276322 0 0 -0.094269586508 0 0 -0.092041750626 
0 0 0.07651254389 0 0 -0.12197746025 0 0 0.089110885315 
0 0 -0.045778848693 0 0 0.10219573728 0 0 -0.13822736311 
0 0 -0.0096848247427 0 0 -0.098261489759 0 0 -0.092342931823 
0 0 -0.095594948687 0 0 0.062740251535 0 0 -0.10223903925 
0 0 0.10635142312 0 0 -0.1019096747 0 0 -0.094794107449 
0 0 -0.016942482097 0 0 -0.088157145425 0 0 -0.056404683405 
0 0 -0.087493881577 0 0 0.067052644905 0 0 0.044978342315 
0 0 -0.045752801231 0 0 -0.10094651495 0 0 0.062451765672 
0 0 -0.04123862291 0 0 -0.051570568862 0 0 -0.10267574664 
0 0 -0.060052367985 0 0 -0.069404521568 0 0 0.087672856702 
0 0 -0.091789347119 0 0 -0.074848866658 0 0 -0.082914961392 
0 0 -0.10302333674 0 0 -0.015295846362 0 0 -0.086292304822 
0 0 -0.079756094579 0 0 -0.051257698784 0 0 -0.015032317017 
0 0 -0.080004028129 0 0 -0.08154235652 0 0 -0.0014588445409 
0 0 -0.076928781092 0 0 -0.098961516283 0 0 -0.041874333562 
0 0 0.095851872585 0 0 -0.083841645386 0 0 0.0078357890685 
0 0 0.046213731405 0 0 -0.090745899348 0 0 -0.00049556194702 
0 0 -0.077338985423 0 0 -0.087062918535 0 0 -0.042721360858 
0 0 0.0014940295157 0 0 0.083043663172 0 0 0.079586765012 
0 0 0.12705633856 0 0 -0.034516889722 0 0 -0.077308791808 
0 0 -0.08547621218 0 0 -0.085413490112 0 0 -0.081990032229 
0 0 -0.038473448932 0 0 -0.073091310253 0 0 -0.081141026896 
0 0 -0.072541912133 0 0 -0.0028132544498 0 0 -0.079669768858 
0 0 -0.085888909128 0 0 -0.08711070025 0 0 -0.019431441675 
0 0 -0.077108925606 0 0 -0.03973688353 0 0 -0.083052083039 
0 0 -0.087483388319 0 0 -0.079228156156 0 0 0.06039294258 
0 0 -0.049748727513 0 0 -0.031891503673 0 0 0.050266868484 
0 0 -0.069021366093 0 0 -0.08297303245 0 0 -0.076331198331 
0 0 -0.084978715064 0 0 -0.073569981 0 0 -0.087629238177 
0 0 0.10389172213 0 0 -0.070592096053 0 0 -0.067703277835 
0 0 -0.062109849707 0 0 -0.068517165951 0 0 -0.073977753115 
0 0 0.058391600746 0 0 -0.052324680629 0 0 -0.062425150519 
0 0 0.0088779235512 0 0 0.011856577643 0 0 -0.066597961421 
0 0 -0.079157393875 0 0 -0.07941773487 0 0 -0.032327645983 
0 0 -0.077375336796 0 0 -0.069889520801 0 0 -0.069502028416 
0 0 0.041908358196 0 0 -0.051511501178 0 0 0.093584289637 
0 0 -0.081260708585 0 0 -0.053335091431 0 0 -0.064476620114 
0 0 0.044539143017 0 0 -0.064287498698 0 0 -0.044561749154 
0 0 0.056254102815 0 0 -0.057917010342 0 0 -0.069611965142 
0 0 -0.076904505986 0 0 -0.0638824031 0 0 -0.039843043719 
0 0 -0.06502621208 0 0 -0.064479098 0 0 0.012249391257 
0 0 -0.065328352669 0 0 -0.054563277241 0 0 -0.061108623194 
0 0 -0.065928857234 0 0 -0.0068072344058 0 0 -0.070955758932 
0 0 -0.08302873409 0 0 -0.0652205178 0 0 0.043360644145 
0 0 -0.060732513613 0 0 -0.067923818633 0 0 0.087949684632 
0 0 -0.01385073413 0 0 -0.070102227945 0 0 -0.076177368512 
0 0 -0.054999707043 0 0 -0.039678748666 0 0 -0.051992289041 
0 0 -0.039210047336 0 0 -0.042452985182 0 0 -0.04613634724 
0 0 -0.034350434047 0 0 -0.033407650471 0 0 0.017548346865 
0 0 -0.0566150221 0 0 -0.037551130014 0 0 0.051565587053 
0 0 0.010506470288 0 0 -0.042342946381 0 0 -0.03718033198 
0 0 -0.025187224355 0 0 -0.035826406728 0 0 -0.04467074379 
0 0 -0.053520546932 0 0 -0.036429114837 0 0 -0.048305718441 
0 0 -0.051496489687 0 0 -0.040980511049 0 0 -0.10589241923 
0 0 -0.045049840433 0 0 -0.04994137772 0 0 -0.043577414567 
0 0 -0.046623830814 0 0 -0.037698907066 0 0 -0.031469066412 
0 0 -0.048928553039 0 0 -0.028777057306 0 0 -0.031395576423 
0 0 -0.054895133389 0 0 -0.056144458334 0 0 -0.036573029905 
0 0 -0.032795965969 0 0 -0.0512095381 0 0 0.017158270976 
0 0 -0.041225939837 0 0 -0.043646792795 0 0 -0.047222024009 
0 0 -0.048798854188 0 0 -0.023062640349 0 0 -0.028580343531 
0 0 -0.0123009973 0 0 -0.009760126298 0 0 -0.014064009117 
0 0 -0.023108665392 0 0 -0.016350928087 0 0 -0.020948814647 
0 0 -0.053057242507 0 0 -0.031532178178 0 0 -0.0085319102326 
0 0 0.013360472238 0 0 -0.026568621087 0 0 -0.048373513458 
0 0 -0.023715682049 0 0 -0.027329089052 0 0 -0.03431648518 
0 0 -0.020397739353 0 0 -0.018550145018 0 0 -0.016413175491 
0 0 -0.01351734607 0 0 -0.021795120489 0 0 -0.020501564527 
0 0 -0.029816299266 0 0 -0.029530810898 0 0 -0.05883436001 
0 0 -0.054275771643 0 0 0.036030942567 0 0 -0.020406902204 
0 0 -0.026664604018 0 0 -0.083825735575 0 0 -0.017849769855 
0 0 -0.019379330054 0 0 -0.065461384258 0 0 -0.021631895715 
0 0 -0.028173719592 0 0 -0.0097594469671 0 0 -0.034571435529 
0 0 -0.025068802726 0 0 -0.025004338859 0 0 -0.026583814122 
0 0 -0.011372286988 0 0 -0.013428582332 0 0 -0.01231489661 
0 0 -0.0078355278955 0 0 -0.0075618857222 0 0 -0.01171391918 
0 0 0.0020039650793 0 0 -0.0084245222595 0 0 0.014438904819 
0 0 0.00078134507917 0 0 -0.023298826118 0 0 -0.084555534954 
0 0 0.0061745454978 0 0 -0.015658407827 0 0 -0.017451596857 
0 0 -0.0144658538 0 0 0.0062426759503 0 0 0.01812966104 
0 0 0.014740859411 0 0 0.084554139916 0 0 0.035504954216 

f 3 648 double
0 0 -1.7425367252e-10 0 0 -1.7425367252e-10 0 0 -1.7425367252e-10 
0 0 -1.7425367252e-10 0 0 -1.7425367252e-10 0 0 -1.7425367252e-10 
0 0 -1.7425367252e-10 0 0 -1.7425367252e-10 0 0 -1.7425367252e-10 
0 0 -1.7425367252e-10 0 0 -1.7425367252e-10 0 0 -1.7425367252e-10 
0 0 -1.7425367252e-10 0 0 -1.7425367252e-10 0 0 -1.7425367252e-10 
0 0 -1.7425367252e-10 0 0 -1.7425367252e-10 0 0 -1.7425367252e-10 
0 0 -1.7425367252e-10 0 0 -1.7425367252e-10 0 0 -1.7425367252e-10 
0 0 -1.7425367252e-10 0 0 -1.7425367252e-10 0 0 -1.7425367252e-10 
0 0 -1.7425367252e-10 0 0 -1.7425367252e-10 0 0 -1.7425367252e-10 
0 0 -1.7425367252e-10 0 0 -1.7425367252e-10 0 0 -1.7425367252e-10 
0 0 -1.7425367252e-10 0 0 -1.7425367252e-10 0 0 -1.7425367252e-10 
0 0 -1.7425367252e-10 0 0 -1.7425367252e-10 0 0 -1.7425367252e-10 
0 0 -1.7425367252e-10 0 0 -1.7425367252e-10 0 0 -1.7425367252e-10 
0 0 -1.7425367252e-10 0 0 -1.7425367252e-10 0 0 -1.7425367252e-10 
0 0 -1.7425367252e-10 0 0 -1.7425367252e-10 0 0 -1.7425367252e-10 
0 0 -1.7425367252e-10 0 0 -1.7425367252e-10 0 0 -1.7425367252e-10 
0 0 -1.7425367252e-10 0 0 -1.7425367252e-10 0 0 -1.7425367252e-10 
0 0 -1.7425367252e-10 0 0 -1.7425367252e-10 0 0 -1.7425367252e-10 
0 0 -1.7425367252e-10 0 0 -1.7425367252e-10 0 0 -1.7425367252e-10 
0 0 -1.7425367252e-10 0 0 -1.7425367252e-10 0 0 -1.7425367252e-10 
0 0 -1.7425367252e-10 0 0 -1.7425367252e-10 0 0 -1.7425367252e-10 
0 0 -1.7425367252e-10 0 0 -1.7425367252e-10 0 0 -1.7425367252e-10 
0 0 -1.7425367252e-10 0 0 -1.7425367252e-10 0 0 -1.7425367252e-10 
0 0 -1.7425367252e-10 0 0 -1.7425367252e-10 0 0 -1.7425367252e-10 
0 0 -1.7425367252e-10 0 0 -1.7425367252e-10 0 0 -1.7425367252e-10 
0 0 -1.7425367252e-10 0 0 -1.7425367252e-10 0 0 -1.7425367252e-10 
0 0 -1.7425367252e-10 0 0 -1.7425367252e-10 0 0 -1.7425367252e-10 
0 0 -1.7425367252e-10 0 0 -1.7425367252e-10 0 0 -1.7425367252e-10 
0 0 -1.7425367252e-10 0 0 -1.7425367252e-10 0 0 -1.7425367252e-10 
0 0 -1.7425367252e-10 0 0 -8.9019973083e-09 0 0 -1.7425367252e-10 
0 0 -1.7425367252e-10 0 0 -1.7425367252e-10 0 0 -1.7425367252e-10 
0 0 -1.7425367252e-10 0 0 -1.7425367252e-10 0 0 -1.7425367252e-10 
0 0 -1.7425367252e-10 0 0 -1.7425367252e-10 0 0 -1.7425367252e-10 
0 0 -1.7425367252e-10 0 0 -1.7425367252e-10 0 0 -1.7425367252e-10 
0 0 -1.7425367252e-10 0 0 -1.7425367252e-10 0 0 -1.7425367252e-10 
0 0 -1.7425367252e-10 0 0 -1.7425367252e-10 0 0 -1.7425367252e-10 
0 0 -1.7425367252e-10 0 0 -1.7425367252e-10 0 0 -1.7425367252e-10 
0 0 -1.7425367252e-10 0 0 -1.7425367252e-10 0 0 -1.7425367252e-10 
0 0 -1.7425367252e-10 0 0 -1.7425367252e-10 0 0 -1.7425367252e-10 
0 0 -1.7425367252e-10 0 0 -1.7425367252e-10 0 0 -1.7425367252e-10 
0 0 -1.7425367252e-10 0 0 -1.7425367252e-10 0 0 -1.7425367252e-10 
0 0 -1.7425367252e-10 0 0 -1.7425367252e-10 0 0 -1.7425367252e-10 
0 0 -1.7425367252e-10 0 0 -1.7425367252e-10 0 0 -1.7425367252e-10 
0 0 -1.7425367252e-10 0 0 -1.7425367252e-10 0 0 -1.7425367252e-10 
0 0 -1.7425367252e-10 0 0 -1.7425367252e-10 0 0 -1.7425367252e-10 
0 0 -1.7425367252e-10 0 0 -1.7425367252e-10 0 0 -1.7425367252e-10 
0 0 -1.7425367252e-10 0 0 -1.7425367252e-10 0 0 -1.7425367252e-10 
0 0 -1.7425367252e-10 0 0 -1.7425367252e-10 0 0 -1.7425367252e-10 
0 0 -1.7425367252e-10 0 0 -1.7425367252e-10 0 0 -1.7425367252e-10 
0 0 -1.7425367252e-10 0 0 -1.7425367252e-10 0 0 -1.7425367252e-10 
0 0 -1.7425367252e-10 0 0 -1.7425367252e-10 0 0 -8.9019973083e-09 
0 0 -1.7425367252e-10 0 0 -1.7425367252e-10 0 0 -1.7425367252e-10 
0 0 -8.9019973083e-09 0 0 -1.7425367252e-10 0 0 -1.7425367252e-10 
0 0 -1.7425367252e-10 0 0 -1.7425367252e-10 0 0 -1.7425367252e-10 
0 0 -1.7425367252e-10 0 0 -1.7425367252e-10 0 0 -1.7425367252e-10 
0 0 -1.7425367252e-10 0 0 -1.7425367252e-10 0 0 -1.7425367252e-10 
0 0 -1.7425367252e-10 0 0 -1.7425367252e-10 0 0 -1.7425367252e-10 
0 0 -1.7425367252e-10 0 0 -1.7425367252e-10 0 0 -1.7425367252e-10 
0 0 -1.7425367252e-10 0 0 -1.7425367252e-10 0 0 -1.7425367252e-10 
0 0 -1.7425367252e-10 0 0 -1.7425367252e-10 0 0 -1.7425367252e-10 
0 0 -1.7425367252e-10 0 0 -1.7425367252e-10 0 0 -1.7425367252e-10 
0 0 -1.7425367252e-10 0 0 -1.7425367252e-10 0 0 -1.7425367252e-10 
0 0 -1.7425367252e-10 0 0 -1.7425367252e-10 0 0 -1.7425367252e-10 
0 0 -1.7425367252e-10 0 0 -1.7425367252e-10 0 0 -1.7425367252e-10 
0 0 -1.7425367252e-10 0 0 -1.7425367252e-10 0 0 -1.7425367252e-10 
0 0 -1.7425367252e-10 0 0 -1.7425367252e-10 0 0 -1.7425367252e-10 
0 0 -1.7425367252e-10 0 0 -1.7425367252e-10 0 0 -1.7425367252e-10 
0 0 -1.7425367252e-10 0 0 -1.7425367252e-10 0 0 -1.7425367252e-10 
0 0 -1.7425367252e-10 0 0 -1.7425367252e-10 0 0 -1.7425367252e-10 
0 0 -1.7425367252e-10 0 0 -1.7425367252e-10 0 0 -1.7425367252e-10 
0 0 -1.7425367252e-10 0 0 -1.7425367252e-10 0 0 -1.7425367252e-10 
0 0 -1.7425367252e-10 0 0 -1.7425367252e-10 0 0 -1.7425367252e-10 
0 0 -1.7425367252e-10 0 0 -1.7425367252e-10 0 0 -1.7425367252e-10 
0 0 -1.7425367252e-10 0 0 -1.7425367252e-10 0 0 -1.7425367252e-10 
0 0 -1.7425367252e-10 0 0 -1.7425367252e-10 0 0 -1.7425367252e-10 
0 0 -1.7425367252e-10 0 0 -8.9019973083e-09 0 0 -1.7425367252e-10 
0 0 -1.7425367252e-10 0 0 -1.7425367252e-10 0 0 -1.7425367252e-10 
0 0 -1.7425367252e-10 0 0 -1.7425367252e-10 0 0 -1.7425367252e-10 
0 0 -1.7425367252e-10 0 0 -1.7425367252e-10 0 0 -1.7425367252e-10 
0 0 -1.7425367252e-10 0 0 -1.7425367252e-10 0 0 -1.7425367252e-10 
0 0 -1.7425367252e-10 0 0 -1.7425367252e-10 0 0 -1.7425367252e-10 
0 0 -1.7425367252e-10 0 0 -1.7425367252e-10 0 0 -1.7425367252e-10 
0 0 -1.7425367252e-10 0 0 -1.7425367252e-10 0 0 -1.7425367252e-10 
0 0 -1.7425367252e-10 0 0 -8.9019973083e-09 0 0 -1.7425367252e-10 
0 0 -1.7425367252e-10 0 0 -1.7425367252e-10 0 0 -1.7425367252e-10 
0 0 -1.7425367252e-10 0 0 -1.7425367252e-10 0 0 -1.7425367252e-10 
0 0 -1.7425367252e-10 0 0 -1.7425367252e-10 0 0 -1.7425367252e-10 
0 0 -1.7425367252e-10 0 0 -1.7425367252e-10 0 0 -1.7425367252e-10 
0 0 -1.7425367252e-10 0 0 -1.7425367252e-10 0 0 -1.7425367252e-10 
0 0 -1.7425367252e-10 0 0 -1.7425367252e-10 0 0 -1.7425367252e-10 
0 0 -1.7425367252e-10 0 0 -1.7425367252e-10 0 0 -1.7425367252e-10 
0 0 -1.7425367252e-10 0 0 -1.7425367252e-10 0 0 -1.7425367252e-10 
0 0 -1.7425367252e-10 0 0 -1.7425367252e-10 0 0 -1.7425367252e-10 
0 0 -1.7425367252e-10 0 0 -1.7425367252e-10 0 0 -1.7425367252e-10 
0 0 -1.7425367252e-10 0 0 -1.7425367252e-10 0 0 -1.7425367252e-10 
0 0 -1.7425367252e-10 0 0 -1.7425367252e-10 0 0 -1.7425367252e-10 
0 0 -1.7425367252e-10 0 0 -1.7425367252e-10 0 0 -8.9019973083e-09 
0 0 -1.7425367252e-10 0 0 -1.7425367252e-10 0 0 -1.7425367252e-10 
0 0 -1.7425367252e-10 0 0 -1.7425367252e-10 0 0 -1.7425367252e-10 
0 0 -1.7425367252e-10 0 0 -1.7425367252e-10 0 0 -1.7425367252e-10 
0 0 -1.7425367252e-10 0 0 -1.7425367252e-10 0 0 -1.7425367252e-10 
0 0 -1.7425367252e-10 0 0 -1.7425367252e-10 0 0 -1.7425367252e-10 
0 0 -1.7425367252e-10 0 0 -1.7425367252e-10 0 0 -1.7425367252e-10 
0 0 -1.7425367252e-10 0 0 -1.7425367252e-10 0 0 -1.7425367252e-10 
0 0 -1.7425367252e-10 0 0 -1.7425367252e-10 0 0 -8.9019973083e-09 
0 0 -1.7425367252e-10 0 0 -1.7425367252e-10 0 0 -1.7425367252e-10 
0 0 -1.7425367252e-10 0 0 -1.7425367252e-10 0 0 -1.7425367252e-10 
0 0 -1.7425367252e-10 0 0 -1.7425367252e-10 0 0 -1.7425367252e-10 
0 0 -1.7425367252e-10 0 0 -1.7425367252e-10 0 0 -1.7425367252e-10 
0 0 -1.7425367252e-10 0 0 -1.7425367252e-10 0 0 -1.7425367252e-10 
0 0 -1.7425367252e-10 0 0 -1.7425367252e-10 0 0 -8.9019973083e-09 
0 0 -1.7425367252e-10 0 0 -1.7425367252e-10 0 0 -1.7425367252e-10 
0 0 -1.7425367252e-10 0 0 -1.7425367252e-10 0 0 -1.7425367252e-10 
0 0 -1.7425367252e-10 0 0 -1.7425367252e-10 0 0 -1.7425367252e-10 
0 0 -1.7425367252e-10 0 0 -1.7425367252e-10 0 0 -1.7425367252e-10 
0 0 -1.7425367252e-10 0 0 -1.7425367252e-10 0 0 -1.7425367252e-10 
0 0 -1.7425367252e-10 0 0 -1.7425367252e-10 0 0 -1.7425367252e-10 
0 0 -1.7425367252e-10 0 0 -1.7425367252e-10 0 0 -1.7425367252e-10 
0 0 -1.7425367252e-10 0 0 -1.7425367252e-10 0 0 -1.7425367252e-10 
0 0 -1.7425367252e-10 0 0 -1.7425367252e-10 0 0 -1.7425367252e-10 
0 0 -1.7425367252e-10 0 0 -1.7425367252e-10 0 0 -1.7425367252e-10 
0 0 -1.7425367252e-10 0 0 -1.7425367252e-10 0 0 -1.7425367252e-10 
0 0 -1.7425367252e-10 0 0 -1.7425367252e-10 0 0 -1.7425367252e-10 
0 0 -1.7425367252e-10 0 0 -1.7425367252e-10 0 0 -1.7425367252e-10 
0 0 -1.7425367252e-10 0 0 -1.7425367252e-10 0 0 -1.7425367252e-10 
0 0 -1.7425367252e-10 0 0 -1.7425367252e-10 0 0 -1.7425367252e-10 
0 0 -1.7425367252e-10 0 0 -1.7425367252e-10 0 0 -1.7425367252e-10 
0 0 -1.7425367252e-10 0 0 -1.7425367252e-10 0 0 -1.7425367252e-10 
0 0 -1.7425367252e-10 0 0 -1.7425367252e-10 0 0 -1.7425367252e-10 
0 0 -1.7425367252e-10 0 0 -1.7425367252e-10 0 0 -1.7425367252e-10 
0 0 -1.7425367252e-10 0 0 -8.9019973083e-09 0 0 -1.7425367252e-10 
0 0 -1.7425367252e-10 0 0 -1.7425367252e-10 0 0 -1.7425367252e-10 
0 0 -1.7425367252e-10 0 0 -1.7425367252e-10 0 0 -1.7425367252e-10 
0 0 -1.7425367252e-10 0 0 -1.7425367252e-10 0 0 -1.7425367252e-10 
0 0 -1.7425367252e-10 0 0 -1.7425367252e-10 0 0 -1.7425367252e-10 
0 0 -1.7425367252e-10 0 0 -8.9019973083e-09 0 0 -1.7425367252e-10 
0 0 -1.7425367252e-10 0 0 -1.7425367252e-10 0 0 -8.9019973083e-09 
0 0 -1.7425367252e-10 0 0 -1.7425367252e-10 0 0 -1.7425367252e-10 
0 0 -1.7425367252e-10 0 0 -1.7425367252e-10 0 0 -1.7425367252e-10 
0 0 -1.7425367252e-10 0 0 -1.7425367252e-10 0 0 -1.7425367252e-10 
0 0 -1.7425367252e-10 0 0 -1.7425367252e-10 0 0 -1.7425367252e-10 
0 0 -1.7425367252e-10 0 0 -1.7425367252e-10 0 0 -1.7425367252e-10 
0 0 -1.7425367252e-10 0 0 -1.7425367252e-10 0 0 -1.7425367252e-10 
0 0 -1.7425367252e-10 0 0 -1.7425367252e-10 0 0 -1.7425367252e-10 
0 0 -1.7425367252e-10 0 0 -1.7425367252e-10 0 0 -1.7425367252e-10 
0 0 -1.7425367252e-10 0 0 -1.7425367252e-10 0 0 -1.7425367252e-10 
0 0 -1.7425367252e-10 0 0 -1.7425367252e-10 0 0 -1.7425367252e-10 
0 0 -1.7425367252e-10 0 0 -1.7425367252e-10 0 0 -1.7425367252e-10 
0 0 -1.7425367252e-10 0 0 -1.7425367252e-10 0 0 -1.7425367252e-10 
0 0 -1.7425367252e-10 0 0 -1.7425367252e-10 0 0 -1.7425367252e-10 
0 0 -1.7425367252e-10 0 0 -1.7425367252e-10 0 0 -1.7425367252e-10 
0 0 -1.7425367252e-10 0 0 -1.7425367252e-10 0 0 -1.7425367252e-10 
0 0 -1.7425367252e-10 0 0 -1.7425367252e-10 0 0 -1.7425367252e-10 
0 0 -1.7425367252e-10 0 0 -1.7425367252e-10 0 0 -1.7425367252e-10 
0 0 -1.7425367252e-10 0 0 -1.7425367252e-10 0 0 -1.7425367252e-10 
0 0 -1.7425367252e-10 0 0 -1.7425367252e-10 0 0 -1.7425367252e-10 
0 0 -1.7425367252e-10 0 0 -1.7425367252e-10 0 0 -1.7425367252e-10 
0 0 -1.7425367252e-10 0 0 -1.7425367252e-10 0 0 -1.7425367252e-10 
0 0 -1.7425367252e-10 0 0 -1.7425367252e-10 0 0 -1.7425367252e-10 
0 0 -1.7425367252e-10 0 0 -1.7425367252e-10 0 0 -1.7425367252e-10 
0 0 -1.7425367252e-10 0 0 -1.7425367252e-10 0 0 -1.7425367252e-10 
0 0 -1.7425367252e-10 0 0 -1.7425367252e-10 0 0 -1.7425367252e-10 
0 0 -1.7425367252e-10 0 0 -1.7425367252e-10 0 0 -1.7425367252e-10 
0 0 -1.7425367252e-10 0 0 -1.7425367252e-10 0 0 -1.7425367252e-10 
0 0 -1.7425367252e-10 0 0 -1.7425367252e-10 0 0 -1.7425367252e-10 
0 0 -1.7425367252e-10 0 0 -1.7425367252e-10 0 0 -1.7425367252e-10 
0 0 -1.7425367252e-10 0 0 -1.7425367252e-10 0 0 -1.7425367252e-10 
0 0 -1.7425367252e-10 0 0 -1.7425367252e-10 0 0 -1.7425367252e-10 
0 0 -1.7425367252e-10 0 0 -1.7425367252e-10 0 0 -1.7425367252e-10 
0 0 -1.7425367252e-10 0 0 -1.7425367252e-10 0 0 -1.7425367252e-10 
0 0 -1.7425367252e-10 0 0 -1.7425367252e-10 0 0 -1.7425367252e-10 
0 0 -1.7425367252e-10 0 0 -1.7425367252e-10 0 0 -1.7425367252e-10 
0 0 -1.7425367252e-10 0 0 -1.7425367252e-10 0 0 -1.7425367252e-10 
0 0 -1.7425367252e-10 0 0 -1.7425367252e-10 0 0 -1.7425367252e-10 
0 0 -1.7425367252e-10 0 0 -1.7425367252e-10 0 0 -1.7425367252e-10 
0 0 -1.7425367252e-10 0 0 -1.7425367252e-10 0 0 -1.7425367252e-10 
0 0 -1.7425367252e-10 0 0 -1.7425367252e-10 0 0 -1.7425367252e-10 
0 0 -1.7425367252e-10 0 0 -1.7425367252e-10 0 0 -1.7425367252e-10 
0 0 -1.7425367252e-10 0 0 -1.7425367252e-10 0 0 -1.7425367252e-10 
0 0 -1.7425367252e-10 0 0 -1.7425367252e-10 0 0 -1.7425367252e-10 
0 0 -1.7425367252e-10 0 0 -1.7425367252e-10 0 0 -1.7425367252e-10 
0 0 -1.7425367252e-10 0 0 -1.7425367252e-10 0 0 -1.7425367252e-10 
0 0 -1.7425367252e-10 0 0 -1.7425367252e-10 0 0 -1.7425367252e-10 
0 0 -1.7425367252e-10 0 0 -1.7425367252e-10 0 0 -1.7425367252e-10 
0 0 -1.7425367252e-10 0 0 -1.7425367252e-10 0 0 -1.7425367252e-10 
0 0 -1.7425367252e-10 0 0 -1.7425367252e-10 0 0 -1.7425367252e-10 
0 0 -1.7425367252e-10 0 0 -1.7425367252e-10 0 0 -1.7425367252e-10 
0 0 -1.7425367252e-10 0 0 -1.7425367252e-10 0 0 -1.7425367252e-10 
0 0 -1.7425367252e-10 0 0 -1.7425367252e-10 0 0 -8.9019973083e-09 
0 0 -1.7425367252e-10 0 0 -1.7425367252e-10 0 0 -1.7425367252e-10 
0 0 -1.7425367252e-10 0 0 -1.7425367252e-10 0 0 -1.7425367252e-10 
0 0 -1.7425367252e-10 0 0 -1.7425367252e-10 0 0 -1.7425367252e-10 
0 0 -1.7425367252e-10 0 0 -1.7425367252e-10 0 0 -1.7425367252e-10 
0 0 -1.7425367252e-10 0 0 -1.7425367252e-10 0 0 -1.7425367252e-10 
0 0 -1.7425367252e-10 0 0 -1.7425367252e-10 0 0 -1.7425367252e-10 
0 0 -1.7425367252e-10 0 0 -1.7425367252e-10 0 0 -1.7425367252e-10 
0 0 -1.7425367252e-10 0 0 -1.7425367252e-10 0 0 -1.7425367252e-10 
0 0 -1.7425367252e-10 0 0 -1.7425367252e-10 0 0 -1.7425367252e-10 
0 0 -1.7425367252e-10 0 0 -1.7425367252e-10 0 0 -1.7425367252e-10 
0 0 -1.7425367252e-10 0 0 -1.7425367252e-10 0 0 -1.7425367252e-10 
0 0 -1.7425367252e-10 0 0 -1.7425367252e-10 0 0 -1.7425367252e-10 
0 0 -1.7425367252e-10 0 0 -1.7425367252e-10 0 0 -1.7425367252e-10 
0 0 -1.7425367252e-10 0 0 -1.7425367252e-10 0 0 -1.7425367252e-10 
0 0 -1.7425367252e-10 0 0 -1.7425367252e-10 0 0 -1.7425367252e-10 
0 0 -1.7425367252e-10 0 0 -1.7425367252e-10 0 0 -1.7425367252e-10 
0 0 -1.7425367252e-10 0 0 -8.9019973083e-09 0 0 -1.7425367252e-10 
0 0 -1.7425367252e-10 0 0 -1.7425367252e-10 0 0 -1.7425367252e-10 
0 0 -1.7425367252e-10 0 0 -1.7425367252e-10 0 0 -1.7425367252e-10 
0 0 -1.7425367252e-10 0 0 -1.7425367252e-10 0 0 -1.7425367252e-10 
0 0 -1.7425367252e-10 0 0 -1.7425367252e-10 0 0 -1.7425367252e-10 
0 0 -1.7425367252e-10 0 0 -1.7425367252e-10 0 0 -1.7425367252e-10 
0 0 -1.7425367252e-10 0 0 -1.7425367252e-10 0 0 -8.9019973083e-09 
0 0 -1.7425367252e-10 0 0 -1.7425367252e-10 0 0 -6.8918688838e-08 
0 0 -1.7425367252e-10 0 0 -8.9019973083e-09 0 0 -1.7425367252e-10 
0 0 -8.9019973083e-09 0 0 -1.7425367252e-10 0 0 -1.7425367252e-10 
0 0 -1.7425367252e-10 0 0 -8.9019973083e-09 0 0 -5.3297119368e-07 

radius 1 648 double
2e-05 2e-05 2e-05 2e-05 2e-05 2e-05 2e-05 2e-05 2e-05 
2e-05 2e-05 2e-05 2e-05 2e-05 2e-05 2e-05 2e-05 2e-05 
2e-05 2e-05 2e-05 2e-05 2e-05 2e-05 2e-05 2e-05 2e-05 
2e-05 2e-05 2e-05 2e-05 2e-05 2e-05 2e-05 2e-05 2e-05 
2e-05 2e-05 2e-05 2e-05 2e-05 2e-05 2e-05 2e-05 2e-05 
2e-05 2e-05 2e-05 2e-05 2e-05 2e-05 2e-05 2e-05 2e-05 
2e-05 2e-05 2e-05 2e-05 2e-05 2e-05 2e-05 2e-05 2e-05 
2e-05 2e-05 2e-05 2e-05 2e-05 2e-05 2e-05 2e-05 2e-05 
2e-05 2e-05 2e-05 2e-05 2e-05 2e-05 2e-05 2e-05 2e-05 
2e-05 2e-05 2e-05 2e-05 2e-05 2e-05 2e-05 7.5e-05 2e-05 
2e-05 2e-05 2e-05 2e-05 2e-05 2e-05 2e-05 2e-05 2e-05 
2e-05 2e-05 2e-05 2e-05 2e-05 2e-05 2e-05 2e-05 2e-05 
2e-05 2e-05 2e-05 2e-05 2e-05 2e-05 2e-05 2e-05 2e-05 
2e-05 2e-05 2e-05 2e-05 2e-05 2e-05 2e-05 2e-05 2e-05 
2e-05 2e-05 2e-05 2e-05 2e-05 2e-05 2e-05 2e-05 2e-05 
2e-05 2e-05 2e-05 2e-05 2e-05 2e-05 2e-05 2e-05 2e-05 
2e-05 2e-05 2e-05 2e-05 2e-05 2e-05 2e-05 2e-05 7.5e-05 
2e-05 2e-05 2e-05 7.5e-05 2e-05 2e-05 2e-05 2e-05 2e-05 
2e-05 2e-05 2e-05 2e-05 2e-05 2e-05 2e-05 2e-05 2e-05 
2e-05 2e-05 2e-05 2e-05 2e-05 2e-05 2e-05 2e-05 2e-05 
2e-05 2e-05 2e-05 2e-05 2e-05 2e-05 2e-05 2e-05 2e-05 
2e-05 2e-05 2e-05 2e-05 2e-05 2e-05 2e-05 2e-05 2e-05 
2e-05 2e-05 2e-05 2e-05 2e-05 2e-05 2e-05 2e-05 2e-05 
2e-05 2e-05 2e-05 2e-05 2e-05 2e-05 2e-05 2e-05 2e-05 
2e-05 2e-05 2e-05 2e-05 2e-05 2e-05 2e-05 2e-05 2e-05 
2e-05 7.5e-05 2e-05 2e-05 2e-05 2e-05 2e-05 2e-05 2e-05 
2e-05 2e-05 2e-05 2e-05 2e-05 2e-05 2e-05 2e-05 2e-05 
2e-05 2e-05 2e-05 2e-05 2e-05 2e-05 2e-05 7.5e-05 2e-05 
2e-05 2e-05 2e-05 2e-05 2e-05 2e-05 2e-05 2e-05 2e-05 
2e-05 2e-05 2e-05 2e-05 2e-05 2e-05 2e-05 2e-05 2e-05 
2e-05 2e-05 2e-05 2e-05 2e-05 2e-05 2e-05 2e-05 2e-05 
2e-05 2e-05 2e-05 2e-05 2e-05 2e-05 2e-05 2e-05 2e-05 
2e-05 2e-05 7.5e-05 2e-05 2e-05 2e-05 2e-05 2e-05 2e-05 
2e-05 2e-05 2e-05 2e-05 2e-05 2e-05 2e-05 2e-05 2e-05 
2e-05 2e-05 2e-05 2e-05 2e-05 2e-05 2e-05 2e-05 7.5e-05 
2e-05 2e-05 2e-05 2e-05 2e-05 2e-05 2e-05 2e-05 2e-05 
2e-05 2e-05 2e-05 2e-05 2e-05 2e-05 2e-05 2e-05 7.5e-05 
2e-05 2e-05 2e-05 2e-05 2e-05 2e-05 2e-05 2e-05 2e-05 
2e-05 2e-05 2e-05 2e-05 2e-05 2e-05 2e-05 2e-05 2e-05 
2e-05 2e-05 2e-05 2e-05 2e-05 2e-05 2e-05 2e-05 2e-05 
2e-05 2e-05 2e-05 2e-05 2e-05 2e-05 2e-05 2e-05 2e-05 
2e-05 2e-05 2e-05 2e-05 2e-05 2e-05 2e-05 2e-05 2e-05 
2e-05 2e-05 2e-05 2e-05 2e-05 2e-05 2e-05 2e-05 2e-05 
2e-05 2e-05 2e-05 2e-05 7.5e-05 2e-05 2e-05 2e-05 2e-05 
2e-05 2e-05 2e-05 2e-05 2e-05 2e-05 2e-05 2e-05 2e-05 
2e-05 7.5e-05 2e-05 2e-05 2e-05 7.5e-05 2e-05 2e-05 2e-05 
2e-05 2e-05 2e-05 2e-05 2e-05 2e-05 2e-05 2e-05 2e-05 
2e-05 2e-05 2e-05 2e-05 2e-05 2e-05 2e-05 2e-05 2e-05 
2e-05 2e-05 2e-05 2e-05 2e-05 2e-05 2e-05 2e-05 2e-05 
2e-05 2e-05 2e-05 2e-05 2e-05 2e-05 2e-05 2e-05 2e-05 
2e-05 2e-05 2e-05 2e-05 2e-05 2e-05 2e-05 2e-05 2e-05 
2e-05 2e-05 2e-05 2e-05 2e-05 2e-05 2e-05 2e-05 2e-05 
2e-05 2e-05 2e-05 2e-05 2e-05 2e-05 2e-05 2e-05 2e-05 
2e-05 2e-05 2e-05 2e-05 2e-05 2e-05 2e-05 2e-05 2e-05 
2e-05 2e-05 2e-05 2e-05 2e-05 2e-05 2e-05 2e-05 2e-05 
2e-05 2e-05 2e-05 2e-05 2e-05 2e-05 2e-05 2e-05 2e-05 
2e-05 2e-05 2e-05 2e-05 2e-05 2e-05 2e-05 2e-05 2e-05 
2e-05 2e-05 2e-05 2e-05 2e-05 2e-05 2e-05 2e-05 2e-05 
2e-05 2e-05 2e-05 2e-05 2e-05 2e-05 2e-05 2e-05 2e-05 
2e-05 2e-05 2e-05 2e-05 2e-05 2e-05 2e-05 2e-05 2e-05 
2e-05 2e-05 2e-05 2e-05 2e-05 2e-05 2e-05 2e-05 2e-05 
2e-05 2e-05 2e-05 2e-05 2e-05 2e-05 2e-05 2e-05 2e-05 
2e-05 2e-05 2e-05 2e-05 2e-05 2e-05 2e-05 2e-05 7.5e-05 
2e-05 2e-05 2e-05 2e-05 2e-05 2e-05 2e-05 2e-05 2e-05 
2e-05 2e-05 2e-05 2e-05 2e-05 2e-05 2e-05 2e-05 2e-05 
2e-05 2e-05 2e-05 2e-05 2e-05 2e-05 2e-05 2e-05 2e-05 
2e-05 2e-05 2e-05 2e-05 2e-05 2e-05 2e-05 2e-05 2e-05 
2e-05 2e-05 2e-05 2e-05 2e-05 2e-05 2e-05 2e-05 2e-05 
2e-05 2e-05 2e-05 2e-05 7.5e-05 2e-05 2e-05 2e-05 2e-05 
2e-05 2e-05 2e-05 2e-05 2e-05 2e-05 2e-05 2e-05 2e-05 
2e-05 2e-05 2e-05 2e-05 2e-05 7.5e-05 2e-05 2e-05 0.00015 
2e-05 7.5e-05 2e-05 7.5e-05 2e-05 2e-05 2e-05 7.5e-05 0.0003 

omega 3 648 double
0 0 0 0 0 0 0 0 0 
0 0 0 0 0 0 0 0 0 
0 0 0 0 0 0 0 0 0 
0 0 0 0 0 0 0 0 0 
0 0 0 0 0 0 0 0 0 
0 0 0 0 0 0 0 0 0 
0 0 0 0 0 0 0 0 0 
0 0 0 0 0 0 0 0 0 
0 0 0 0 0 0 0 0 0 
0 0 0 0 0 0 0 0 0 
0 0 0 0 0 0 0 0 0 
0 0 0 0 0 0 0 0 0 
0 0 0 0 0 0 0 0 0 
0 0 0 0 0 0 0 0 0 
0 0 0 0 0 0 0 0 0 
0 0 0 0 0 0 0 0 0 
0 0 0 0 0 0 0 0 0 
0 0 0 0 0 0 0 0 0 
0 0 0 0 0 0 0 0 0 
0 0 0 0 0 0 0 0 0 
0 0 0 0 0 0 0 0 0 
0 0 0 0 0 0 0 0 0 
0 0 0 0 0 0 0 0 0 
0 0 0 0 0 0 0 0 0 
0 0 0 0 0 0 0 0 0 
0 0 0 0 0 0 0 0 0 
0 0 0 0 0 0 0 0 0 
0 0 0 0 0 0 0 0 0 
0 0 0 0 0 0 0 0 0 
0 0 0 0 0 0 0 0 0 
0 0 0 0 0 0 0 0 0 
0 0 0 0 0 0 0 0 0 
0 0 0 0 0 0 0 0 0 
0 0 0 0 0 0 0 0 0 
0 0 0 0 0 0 0 0 0 
0 0 0 0 0 0 0 0 0 
0 0 0 0 0 0 0 0 0 
0 0 0 0 0 0 0 0 0 
0 0 0 0 0 0 0 0 0 
0 0 0 0 0 0 0 0 0 
0 0 0 0 0 0 0 0 0 
0 0 0 0 0 0 0 0 0 
0 0 0 0 0 0 0 0 0 
0 0 0 0 0 0 0 0 0 
0 0 0 0 0 0 0 0 0 
0 0 0 0 0 0 0 0 0 
0 0 0 0 0 0 0 0 0 
0 0 0 0 0 0 0 0 0 
0 0 0 0 0 0 0 0 0 
0 0 0 0 0 0 0 0 0 
0 0 0 0 0 0 0 0 0 
0 0 0 0 0 0 0 0 0 
0 0 0 0 0 0 0 0 0 
0 0 0 0 0 0 0 0 0 
0 0 0 0 0 0 0 0 0 
0 0 0 0 0 0 0 0 0 
0 0 0 0 0 0 0 0 0 
0 0 0 0 0 0 0 0 0 
0 0 0 0 0 0 0 0 0 
0 0 0 0 0 0 0 0 0 
0 0 0 0 0 0 0 0 0 
0 0 0 0 0 0 0 0 0 
0 0 0 0 0 0 0 0 0 
0 0 0 0 0 0 0 0 0 
0 0 0 0 0 0 0 0 0 
0 0 0 0 0 0 0 0 0 
0 0 0 0 0 0 0 0 0 
0 0 0 0 0 0 0 0 0 
0 0 0 0 0 0 0 0 0 
0 0 0 0 0 0 0 0 0 
0 0 0 0 0 0 0 0 0 
0 0 0 0 0 0 0 0 0 
0 0 0 0 0 0 0 0 0 
0 0 0 0 0 0 0 0 0 
0 0 0 0 0 0 0 0 0 
0 0 0 0 0 0 0 0 0 
0 0 0 0 0 0 0 0 0 
0 0 0 0 0 0 0 0 0 
0 0 0 0 0 0 0 0 0 
0 0 0 0 0 0 0 0 0 
0 0 0 0 0 0 0 0 0 
0 0 0 0 0 0 0 0 0 
0 0 0 0 0 0 0 0 0 
0 0 0 0 0 0 0 0 0 
0 0 0 0 0 0 0 0 0 
0 0 0 0 0 0 0 0 0 
0 0 0 0 0 0 0 0 0 
0 0 0 0 0 0 0 0 0 
0 0 0 0 0 0 0 0 0 
0 0 0 0 0 0 0 0 0 
0 0 0 0 0 0 0 0 0 
0 0 0 0 0 0 0 0 0 
0 0 0 0 0 0 0 0 0 
0 0 0 0 0 0 0 0 0 
0 0 0 0 0 0 0 0 0 
0 0 0 0 0 0 0 0 0 
0 0 0 0 0 0 0 0 0 
0 0 0 0 0 0 0 0 0 
0 0 0 0 0 0 0 0 0 
0 0 0 0 0 0 0 0 0 
0 0 0 0 0 0 0 0 0 
0 0 0 0 0 0 0 0 0 
0 0 0 0 0 0 0 0 0 
0 0 0 0 0 0 0 0 0 
0 0 0 0 0 0 0 0 0 
0 0 0 0 0 0 0 0 0 
0 0 0 0 0 0 0 0 0 
0 0 0 0 0 0 0 0 0 
0 0 0 0 0 0 0 0 0 
0 0 0 0 0 0 0 0 0 
0 0 0 0 0 0 0 0 0 
0 0 0 0 0 0 0 0 0 
0 0 0 0 0 0 0 0 0 
0 0 0 0 0 0 0 0 0 
0 0 0 0 0 0 0 0 0 
0 0 0 0 0 0 0 0 0 
0 0 0 0 0 0 0 0 0 
0 0 0 0 0 0 0 0 0 
0 0 0 0 0 0 0 0 0 
0 0 0 0 0 0 0 0 0 
0 0 0 0 0 0 0 0 0 
0 0 0 0 0 0 0 0 0 
0 0 0 0 0 0 0 0 0 
0 0 0 0 0 0 0 0 0 
0 0 0 0 0 0 0 0 0 
0 0 0 0 0 0 0 0 0 
0 0 0 0 0 0 0 0 0 
0 0 0 0 0 0 0 0 0 
0 0 0 0 0 0 0 0 0 
0 0 0 0 0 0 0 0 0 
0 0 0 0 0 0 0 0 0 
0 0 0 0 0 0 0 0 0 
0 0 0 0 0 0 0 0 0 
0 0 0 0 0 0 0 0 0 
0 0 0 0 0 0 0 0 0 
0 0 0 0 0 0 0 0 0 
0 0 0 0 0 0 0 0 0 
0 0 0 0 0 0 0 0 0 
0 0 0 0 0 0 0 0 0 
0 0 0 0 0 0 0 0 0 
0 0 0 0 0 0 0 0 0 
0 0 0 0 0 0 0 0 0 
0 0 0 0 0 0 0 0 0 
0 0 0 0 0 0 0 0 0 
0 0 0 0 0 0 0 0 0 
0 0 0 0 0 0 0 0 0 
0 0 0 0 0 0 0 0 0 
0 0 0 0 0 0 0 0 0 
0 0 0 0 0 0 0 0 0 
0 0 0 0 0 0 0 0 0 
0 0 0 0 0 0 0 0 0 
0 0 0 0 0 0 0 0 0 
0 0 0 0 0 0 0 0 0 
0 0 0 0 0 0 0 0 0 
0 0 0 0 0 0 0 0 0 
0 0 0 0 0 0 0 0 0 
0 0 0 0 0 0 0 0 0 
0 0 0 0 0 0 0 0 0 
0 0 0 0 0 0 0 0 0 
0 0 0 0 0 0 0 0 0 
0 0 0 0 0 0 0 0 0 
0 0 0 0 0 0 0 0 0 
0 0 0 0 0 0 0 0 0 
0 0 0 0 0 0 0 0 0 
0 0 0 0 0 0 0 0 0 
0 0 0 0 0 0 0 0 0 
0 0 0 0 0 0 0 0 0 
0 0 0 0 0 0 0 0 0 
0 0 0 0 0 0 0 0 0 
0 0 0 0 0 0 0 0 0 
0 0 0 0 0 0 0 0 0 
0 0 0 0 0 0 0 0 0 
0 0 0 0 0 0 0 0 0 
0 0 0 0 0 0 0 0 0 
0 0 0 0 0 0 0 0 0 
0 0 0 0 0 0 0 0 0 
0 0 0 0 0 0 0 0 0 
0 0 0 0 0 0 0 0 0 
0 0 0 0 0 0 0 0 0 
0 0 0 0 0 0 0 0 0 
0 0 0 0 0 0 0 0 0 
0 0 0 0 0 0 0 0 0 
0 0 0 0 0 0 0 0 0 
0 0 0 0 0 0 0 0 0 
0 0 0 0 0 0 0 0 0 
0 0 0 0 0 0 0 0 0 
0 0 0 0 0 0 0 0 0 
0 0 0 0 0 0 0 0 0 
0 0 0 0 0 0 0 0 0 
0 0 0 0 0 0 0 0 0 
0 0 0 0 0 0 0 0 0 
0 0 0 0 0 0 0 0 0 
0 0 0 0 0 0 0 0 0 
0 0 0 0 0 0 0 0 0 
0 0 0 0 0 0 0 0 0 
0 0 0 0 0 0 0 0 0 
0 0 0 0 0 0 0 0 0 
0 0 0 0 0 0 0 0 0 
0 0 0 0 0 0 0 0 0 
0 0 0 0 0 0 0 0 0 
0 0 0 0 0 0 0 0 0 
0 0 0 0 0 0 0 0 0 
0 0 0 0 0 0 0 0 0 
0 0 0 0 0 0 0 0 0 
0 0 0 0 0 0 0 0 0 
0 0 0 0 0 0 0 0 0 
0 0 0 0 0 0 0 0 0 
0 0 0 0 0 0 0 0 0 
0 0 0 0 0 0 0 0 0 
0 0 0 0 0 0 0 0 0 
0 0 0 0 0 0 0 0 0 
0 0 0 0 0 0 0 0 0 
0 0 0 0 0 0 0 0 0 
0 0 0 0 0 0 0 0 0 
0 0 0 0 0 0 0 0 0 
0 0 0 0 0 0 0 0 0 

fx_mag_viz 1 648 double
0 0 0 0 0 0 0 0 0 
0 0 0 0 0 0 0 0 0 
0 0 0 0 0 0 0 0 0 
0 0 0 0 0 0 0 0 0 
0 0 0 0 0 0 0 0 0 
0 0 0 0 0 0 0 0 0 
0 0 0 0 0 0 0 0 0 
0 0 0 0 0 0 0 0 0 
0 0 0 0 0 0 0 0 0 
0 0 0 0 0 0 0 0 0 
0 0 0 0 0 0 0 0 0 
0 0 0 0 0 0 0 0 0 
0 0 0 0 0 0 0 0 0 
0 0 0 0 0 0 0 0 0 
0 0 0 0 0 0 0 0 0 
0 0 0 0 0 0 0 0 0 
0 0 0 0 0 0 0 0 0 
0 0 0 0 0 0 0 0 0 
0 0 0 0 0 0 0 0 0 
0 0 0 0 0 0 0 0 0 
0 0 0 0 0 0 0 0 0 
0 0 0 0 0 0 0 0 0 
0 0 0 0 0 0 0 0 0 
0 0 0 0 0 0 0 0 0 
0 0 0 0 0 0 0 0 0 
0 0 0 0 0 0 0 0 0 
0 0 0 0 0 0 0 0 0 
0 0 0 0 0 0 0 0 0 
0 0 0 0 0 0 0 0 0 
0 0 0 0 0 0 0 0 0 
0 0 0 0 0 0 0 0 0 
0 0 0 0 0 0 0 0 0 
0 0 0 0 0 0 0 0 0 
0 0 0 0 0 0 0 0 0 
0 0 0 0 0 0 0 0 0 
0 0 0 0 0 0 0 0 0 
0 0 0 0 0 0 0 0 0 
0 0 0 0 0 0 0 0 0 
0 0 0 0 0 0 0 0 0 
0 0 0 0 0 0 0 0 0 
0 0 0 0 0 0 0 0 0 
0 0 0 0 0 0 0 0 0 
0 0 0 0 0 0 0 0 0 
0 0 0 0 0 0 0 0 0 
0 0 0 0 0 0 0 0 0 
0 0 0 0 0 0 0 0 0 
0 0 0 0 0 0 0 0 0 
0 0 0 0 0 0 0 0 0 
0 0 0 0 0 0 0 0 0 
0 0 0 0 0 0 0 0 0 
0 0 0 0 0 0 0 0 0 
0 0 0 0 0 0 0 0 0 
0 0 0 0 0 0 0 0 0 
0 0 0 0 0 0 0 0 0 
0 0 0 0 0 0 0 0 0 
0 0 0 0 0 0 0 0 0 
0 0 0 0 0 0 0 0 0 
0 0 0 0 0 0 0 0 0 
0 0 0 0 0 0 0 0 0 
0 0 0 0 0 0 0 0 0 
0 0 0 0 0 0 0 0 0 
0 0 0 0 0 0 0 0 0 
0 0 0 0 0 0 0 0 0 
0 0 0 0 0 0 0 0 0 
0 0 0 0 0 0 0 0 0 
0 0 0 0 0 0 0 0 0 
0 0 0 0 0 0 0 0 0 
0 0 0 0 0 0 0 0 0 
0 0 0 0 0 0 0 0 0 
0 0 0 0 0 0 0 0 0 
0 0 0 0 0 0 0 0 0 
0 0 0 0 0 0 0 0 0 

fy_mag_viz 1 648 double
0 0 0 0 0 0 0 0 0 
0 0 0 0 0 0 0 0 0 
0 0 0 0 0 0 0 0 0 
0 0 0 0 0 0 0 0 0 
0 0 0 0 0 0 0 0 0 
0 0 0 0 0 0 0 0 0 
0 0 0 0 0 0 0 0 0 
0 0 0 0 0 0 0 0 0 
0 0 0 0 0 0 0 0 0 
0 0 0 0 0 0 0 0 0 
0 0 0 0 0 0 0 0 0 
0 0 0 0 0 0 0 0 0 
0 0 0 0 0 0 0 0 0 
0 0 0 0 0 0 0 0 0 
0 0 0 0 0 0 0 0 0 
0 0 0 0 0 0 0 0 0 
0 0 0 0 0 0 0 0 0 
0 0 0 0 0 0 0 0 0 
0 0 0 0 0 0 0 0 0 
0 0 0 0 0 0 0 0 0 
0 0 0 0 0 0 0 0 0 
0 0 0 0 0 0 0 0 0 
0 0 0 0 0 0 0 0 0 
0 0 0 0 0 0 0 0 0 
0 0 0 0 0 0 0 0 0 
0 0 0 0 0 0 0 0 0 
0 0 0 0 0 0 0 0 0 
0 0 0 0 0 0 0 0 0 
0 0 0 0 0 0 0 0 0 
0 0 0 0 0 0 0 0 0 
0 0 0 0 0 0 0 0 0 
0 0 0 0 0 0 0 0 0 
0 0 0 0 0 0 0 0 0 
0 0 0 0 0 0 0 0 0 
0 0 0 0 0 0 0 0 0 
0 0 0 0 0 0 0 0 0 
0 0 0 0 0 0 0 0 0 
0 0 0 0 0 0 0 0 0 
0 0 0 0 0 0 0 0 0 
0 0 0 0 0 0 0 0 0 
0 0 0 0 0 0 0 0 0 
0 0 0 0 0 0 0 0 0 
0 0 0 0 0 0 0 0 0 
0 0 0 0 0 0 0 0 0 
0 0 0 0 0 0 0 0 0 
0 0 0 0 0 0 0 0 0 
0 0 0 0 0 0 0 0 0 
0 0 0 0 0 0 0 0 0 
0 0 0 0 0 0 0 0 0 
0 0 0 0 0 0 0 0 0 
0 0 0 0 0 0 0 0 0 
0 0 0 0 0 0 0 0 0 
0 0 0 0 0 0 0 0 0 
0 0 0 0 0 0 0 0 0 
0 0 0 0 0 0 0 0 0 
0 0 0 0 0 0 0 0 0 
0 0 0 0 0 0 0 0 0 
0 0 0 0 0 0 0 0 0 
0 0 0 0 0 0 0 0 0 
0 0 0 0 0 0 0 0 0 
0 0 0 0 0 0 0 0 0 
0 0 0 0 0 0 0 0 0 
0 0 0 0 0 0 0 0 0 
0 0 0 0 0 0 0 0 0 
0 0 0 0 0 0 0 0 0 
0 0 0 0 0 0 0 0 0 
0 0 0 0 0 0 0 0 0 
0 0 0 0 0 0 0 0 0 
0 0 0 0 0 0 0 0 0 
0 0 0 0 0 0 0 0 0 
0 0 0 0 0 0 0 0 0 
0 0 0 0 0 0 0 0 0 

fz_mag_viz 1 648 double
0 0 0 0 0 0 0 0 0 
0 0 0 0 0 0 0 0 0 
0 0 0 0 0 0 0 0 0 
0 0 0 0 0 0 0 0 0 
0 0 0 0 0 0 0 0 0 
0 0 0 0 0 0 0 0 0 
0 0 0 0 0 0 0 0 0 
0 0 0 0 0 0 0 0 0 
0 0 0 0 0 0 0 0 0 
0 0 0 0 0 0 0 0 0 
0 0 0 0 0 0 0 0 0 
0 0 0 0 0 0 0 0 0 
0 0 0 0 0 0 0 0 0 
0 0 0 0 0 0 0 0 0 
0 0 0 0 0 0 0 0 0 
0 0 0 0 0 0 0 0 0 
0 0 0 0 0 0 0 0 0 
0 0 0 0 0 0 0 0 0 
0 0 0 0 0 0 0 0 0 
0 0 0 0 0 0 0 0 0 
0 0 0 0 0 0 0 0 0 
0 0 0 0 0 0 0 0 0 
0 0 0 0 0 0 0 0 0 
0 0 0 0 0 0 0 0 0 
0 0 0 0 0 0 0 0 0 
0 0 0 0 0 0 0 0 0 
0 0 0 0 0 0 0 0 0 
0 0 0 0 0 0 0 0 0 
0 0 0 0 0 0 0 0 0 
0 0 0 0 0 0 0 0 0 
0 0 0 0 0 0 0 0 0 
0 0 0 0 0 0 0 0 0 
0 0 0 0 0 0 0 0 0 
0 0 0 0 0 0 0 0 0 
0 0 0 0 0 0 0 0 0 
0 0 0 0 0 0 0 0 0 
0 0 0 0 0 0 0 0 0 
0 0 0 0 0 0 0 0 0 
0 0 0 0 0 0 0 0 0 
0 0 0 0 0 0 0 0 0 
0 0 0 0 0 0 0 0 0 
0 0 0 0 0 0 0 0 0 
0 0 0 0 0 0 0 0 0 
0 0 0 0 0 0 0 0 0 
0 0 0 0 0 0 0 0 0 
0 0 0 0 0 0 0 0 0 
0 0 0 0 0 0 0 0 0 
0 0 0 0 0 0 0 0 0 
0 0 0 0 0 0 0 0 0 
0 0 0 0 0 0 0 0 0 
0 0 0 0 0 0 0 0 0 
0 0 0 0 0 0 0 0 0 
0 0 0 0 0 0 0 0 0 
0 0 0 0 0 0 0 0 0 
0 0 0 0 0 0 0 0 0 
0 0 0 0 0 0 0 0 0 
0 0 0 0 0 0 0 0 0 
0 0 0 0 0 0 0 0 0 
0 0 0 0 0 0 0 0 0 
0 0 0 0 0 0 0 0 0 
0 0 0 0 0 0 0 0 0 
0 0 0 0 0 0 0 0 0 
0 0 0 0 0 0 0 0 0 
0 0 0 0 0 0 0 0 0 
0 0 0 0 0 0 0 0 0 
0 0 0 0 0 0 0 0 0 
0 0 0 0 0 0 0 0 0 
0 0 0 0 0 0 0 0 0 
0 0 0 0 0 0 0 0 0 
0 0 0 0 0 0 0 0 0 
0 0 0 0 0 0 0 0 0 
0 0 0 0 0 0 0 0 0 

B_magnitude 1 648 double
0 0 0 0 0 0 0 0 0 
0 0 0 0 0 0 0 0 0 
0 0 0 0 0 0 0 0 0 
0 0 0 0 0 0 0 0 0 
0 0 0 0 0 0 0 0 0 
0 0 0 0 0 0 0 0 0 
0 0 0 0 0 0 0 0 0 
0 0 0 0 0 0 0 0 0 
0 0 0 0 0 0 0 0 0 
0 0 0 0 0 0 0 0 0 
0 0 0 0 0 0 0 0 0 
0 0 0 0 0 0 0 0 0 
0 0 0 0 0 0 0 0 0 
0 0 0 0 0 0 0 0 0 
0 0 0 0 0 0 0 0 0 
0 0 0 0 0 0 0 0 0 
0 0 0 0 0 0 0 0 0 
0 0 0 0 0 0 0 0 0 
0 0 0 0 0 0 0 0 0 
0 0 0 0 0 0 0 0 0 
0 0 0 0 0 0 0 0 0 
0 0 0 0 0 0 0 0 0 
0 0 0 0 0 0 0 0 0 
0 0 0 0 0 0 0 0 0 
0 0 0 0 0 0 0 0 0 
0 0 0 0 0 0 0 0 0 
0 0 0 0 0 0 0 0 0 
0 0 0 0 0 0 0 0 0 
0 0 0 0 0 0 0 0 0 
0 0 0 0 0 0 0 0 0 
0 0 0 0 0 0 0 0 0 
0 0 0 0 0 0 0 0 0 
0 0 0 0 0 0 0 0 0 
0 0 0 0 0 0 0 0 0 
0 0 0 0 0 0 0 0 0 
0 0 0 0 0 0 0 0 0 
0 0 0 0 0 0 0 0 0 
0 0 0 0 0 0 0 0 0 
0 0 0 0 0 0 0 0 0 
0 0 0 0 0 0 0 0 0 
0 0 0 0 0 0 0 0 0 
0 0 0 0 0 0 0 0 0 
0 0 0 0 0 0 0 0 0 
0 0 0 0 0 0 0 0 0 
0 0 0 0 0 0 0 0 0 
0 0 0 0 0 0 0 0 0 
0 0 0 0 0 0 0 0 0 
0 0 0 0 0 0 0 0 0 
0 0 0 0 0 0 0 0 0 
0 0 0 0 0 0 0 0 0 
0 0 0 0 0 0 0 0 0 
0 0 0 0 0 0 0 0 0 
0 0 0 0 0 0 0 0 0 
0 0 0 0 0 0 0 0 0 
0 0 0 0 0 0 0 0 0 
0 0 0 0 0 0 0 0 0 
0 0 0 0 0 0 0 0 0 
0 0 0 0 0 0 0 0 0 
0 0 0 0 0 0 0 0 0 
0 0 0 0 0 0 0 0 0 
0 0 0 0 0 0 0 0 0 
0 0 0 0 0 0 0 0 0 
0 0 0 0 0 0 0 0 0 
0 0 0 0 0 0 0 0 0 
0 0 0 0 0 0 0 0 0 
0 0 0 0 0 0 0 0 0 
0 0 0 0 0 0 0 0 0 
0 0 0 0 0 0 0 0 0 
0 0 0 0 0 0 0 0 0 
0 0 0 0 0 0 0 0 0 
0 0 0 0 0 0 0 0 0 
0 0 0 0 0 0 0 0 0 

B_gradient_mag 1 648 double
0 0 0 0 0 0 0 0 0 
0 0 0 0 0 0 0 0 0 
0 0 0 0 0 0 0 0 0 
0 0 0 0 0 0 0 0 0 
0 0 0 0 0 0 0 0 0 
0 0 0 0 0 0 0 0 0 
0 0 0 0 0 0 0 0 0 
0 0 0 0 0 0 0 0 0 
0 0 0 0 0 0 0 0 0 
0 0 0 0 0 0 0 0 0 
0 0 0 0 0 0 0 0 0 
0 0 0 0 0 0 0 0 0 
0 0 0 0 0 0 0 0 0 
0 0 0 0 0 0 0 0 0 
0 0 0 0 0 0 0 0 0 
0 0 0 0 0 0 0 0 0 
0 0 0 0 0 0 0 0 0 
0 0 0 0 0 0 0 0 0 
0 0 0 0 0 0 0 0 0 
0 0 0 0 0 0 0 0 0 
0 0 0 0 0 0 0 0 0 
0 0 0 0 0 0 0 0 0 
0 0 0 0 0 0 0 0 0 
0 0 0 0 0 0 0 0 0 
0 0 0 0 0 0 0 0 0 
0 0 0 0 0 0 0 0 0 
0 0 0 0 0 0 0 0 0 
0 0 0 0 0 0 0 0 0 
0 0 0 0 0 0 0 0 0 
0 0 0 0 0 0 0 0 0 
0 0 0 0 0 0 0 0 0 
0 0 0 0 0 0 0 0 0 
0 0 0 0 0 0 0 0 0 
0 0 0 0 0 0 0 0 0 
0 0 0 0 0 0 0 0 0 
0 0 0 0 0 0 0 0 0 
0 0 0 0 0 0 0 0 0 
0 0 0 0 0 0 0 0 0 
0 0 0 0 0 0 0 0 0 
0 0 0 0 0 0 0 0 0 
0 0 0 0 0 0 0 0 0 
0 0 0 0 0 0 0 0 0 
0 0 0 0 0 0 0 0 0 
0 0 0 0 0 0 0 0 0 
0 0 0 0 0 0 0 0 0 
0 0 0 0 0 0 0 0 0 
0 0 0 0 0 0 0 0 0 
0 0 0 0 0 0 0 0 0 
0 0 0 0 0 0 0 0 0 
0 0 0 0 0 0 0 0 0 
0 0 0 0 0 0 0 0 0 
0 0 0 0 0 0 0 0 0 
0 0 0 0 0 0 0 0 0 
0 0 0 0 0 0 0 0 0 
0 0 0 0 0 0 0 0 0 
0 0 0 0 0 0 0 0 0 
0 0 0 0 0 0 0 0 0 
0 0 0 0 0 0 0 0 0 
0 0 0 0 0 0 0 0 0 
0 0 0 0 0 0 0 0 0 
0 0 0 0 0 0 0 0 0 
0 0 0 0 0 0 0 0 0 
0 0 0 0 0 0 0 0 0 
0 0 0 0 0 0 0 0 0 
0 0 0 0 0 0 0 0 0 
0 0 0 0 0 0 0 0 0 
0 0 0 0 0 0 0 0 0 
0 0 0 0 0 0 0 0 0 
0 0 0 0 0 0 0 0 0 
0 0 0 0 0 0 0 0 0 
0 0 0 0 0 0 0 0 0 
0 0 0 0 0 0 0 0 0 

