# vtk DataFile Version 5.1
Generated by LIGGGHTS
ASCII
DATASET POLYDATA
POINTS 648 float
-0.0136468 -0.0412372 0.00119773 0.0155599 -0.0240909 0.00146813 -0.0210835 -0.0209207 0.0013275 
-0.0033641 -0.0204173 0.00127257 0.0200271 -0.00425623 0.00136291 -0.0376932 -0.000132947 0.00129803 
0.0260144 0.00429017 0.0015123 -0.00598638 0.00689803 0.00144456 -0.0425374 0.0333781 0.00125966 
0.00888594 0.0360502 0.0012248 -0.00396528 -0.0444182 0.00199124 0.0195053 -0.043722 0.00168137 
0.0166138 -0.0412108 0.00282 -0.0309963 -0.0355024 0.00246246 -0.0161578 -0.0337243 0.00119044 
-0.0386911 -0.0311434 0.00193442 0.0346338 -0.0290927 0.00253779 0.0350196 -0.0250011 0.00124327 
-0.00863888 -0.0237376 0.00220862 0.00179778 -0.0247441 0.00110288 0.0240101 -0.0228809 0.00276775 
-0.0147645 -0.0165889 0.00262487 0.0144468 -0.013247 0.00184415 -0.00528066 -0.0121118 0.00130049 
0.0242571 -0.0100823 0.00156952 0.0334462 -0.00930086 0.00261205 -0.00254943 -0.00825679 0.00280779 
-0.00401126 -0.00720159 0.001888 0.0404774 -0.00688032 0.00192879 -0.00941413 -0.00330341 0.00280671 
-0.0408474 -0.00214648 0.00161068 -0.0198668 -0.00211416 0.00134555 0.0168839 -0.00210364 0.00167555 
-0.0153419 -0.00108619 0.00161444 0.0140084 -6.89735e-05 0.00252447 0.0183943 0.00266245 0.00163786 
-0.025141 0.00447188 0.00268697 -0.0429246 0.00657681 0.00110202 -0.009285 0.00693532 0.00231515 
0.00533928 0.00728904 0.00109747 -0.0105861 0.00898083 0.00254045 0.0211953 0.00966092 0.00220788 
-0.0365733 0.0119208 0.00183276 0.00243185 0.0120975 0.00177925 0.0396593 0.013993 0.00285109 
0.018015 0.0183735 0.00182456 0.0362273 0.0220011 0.0012849 0.0398418 0.0217469 0.00276293 
-0.0148746 0.0223253 0.00244137 -0.0267196 0.0236159 0.00204777 -0.0128609 0.0265935 0.00107542 
0.0395905 0.0272142 0.00271975 0.0191028 0.0315895 0.00174558 0.0372507 0.0318783 0.0026611 
-0.0337286 0.0337045 0.00202402 0.00727395 0.0332762 0.00175018 0.0278529 0.0342296 0.00154032 
-0.00196307 0.0366495 0.00277606 0.0030545 0.0369981 0.00155476 0.00201585 0.0404036 0.00195564 
-0.0133259 0.0414802 0.00141894 0.0294278 0.0431452 0.00226714 0.00528787 0.0432844 0.00247616 
0.0181024 -0.0433049 0.00343333 0.0131812 -0.0427533 0.00380582 0.00985621 -0.0367022 0.00356353 
-0.0177803 -0.0340186 0.00261171 -0.0233761 -0.031813 0.00298211 -0.0220587 -0.0306349 0.00303445 
0.0449741 -0.0303513 0.00315574 -0.0414327 -0.0290659 0.0030159 0.0153133 -0.0285941 0.00247462 
0.0164647 -0.0275391 0.00288962 -0.0430551 -0.0267583 0.00379253 0.0347572 -0.0260666 0.00235974 
0.00558373 -0.0242787 0.00321209 -0.0127621 -0.0231756 0.00317636 0.035159 -0.023363 0.00302553 
0.038292 -0.016257 0.00320317 0.0323803 -0.0150629 0.00339073 -0.0327621 -0.0121928 0.00376944 
-0.0344646 -0.00725539 0.00302951 0.0387156 -0.00624884 0.00330597 0.0131353 -0.00504642 0.00333055 
0.0180458 -0.00470109 0.00300312 -0.0120059 -0.00345367 0.00364554 -0.0107529 -0.00365687 0.003028 
0.00975646 -0.00313231 0.00380569 -0.00896956 -0.00131708 0.00414403 0.00664535 -0.00164817 0.00264973 
-0.0283489 -0.000417126 0.00287425 0.0116524 0.00206193 0.00401315 -0.0325416 0.00283857 0.00285167 
0.00243665 0.00282786 0.00319593 -0.00841171 0.0143034 0.00332955 0.0311878 0.014057 0.00364354 
0.0441199 0.0136981 0.00399898 -0.0231109 0.0157017 0.00248222 0.000954082 0.0152563 0.00383377 
0.0407412 0.0174253 0.00307874 -0.023041 0.0197144 0.00297994 0.00742845 0.0199749 0.00234433 
-0.0122989 0.0222019 0.00328761 -0.0324762 0.0230005 0.00314152 0.00126512 0.0228658 0.00366384 
0.021223 0.0244832 0.003253 0.0438582 0.0244724 0.00322288 -0.0127911 0.0299546 0.00336387 
-0.0108954 0.0304 0.00404178 0.026696 0.03017 0.00317677 0.0193546 0.0324404 0.00385356 
0.0231674 0.0340949 0.00402748 -0.00585061 0.0388609 0.00378461 0.0352701 0.0439749 0.00379358 
0.0405446 0.0433429 0.00373312 0.0145521 -0.0432303 0.00532675 0.0416479 -0.0439733 0.00381979 
0.0348044 -0.042095 0.00444531 0.0406519 -0.0427256 0.00406758 -0.018434 -0.0405477 0.00529117 
-0.0108246 -0.0388127 0.00519922 -0.0168273 -0.0360331 0.00422556 0.0077947 -0.0345433 0.00367368 
-0.0376897 -0.0314333 0.00485918 -0.0263426 -0.0292431 0.00469594 -0.0225401 -0.0213878 0.00509628 
0.0233461 -0.0214624 0.00419255 0.0394323 -0.021923 0.00510951 -0.00827992 -0.020547 0.00531392 
0.00548761 -0.0197918 0.00519079 -0.0296942 -0.0196153 0.00510028 0.0204492 -0.0194639 0.00345666 
-0.0186412 -0.0134353 0.00439508 -0.0341597 -0.0122829 0.00356312 0.0313953 -0.00974065 0.00449659 
0.0406218 -0.0100941 0.00517915 0.0161928 -0.00760918 0.00444464 -0.00747582 -0.00609419 0.00524367 
-0.0253129 -0.0039775 0.00320308 0.0290986 -0.000251763 0.00472267 -0.0233311 0.00384073 0.00394861 
0.0323225 0.00436429 0.00483908 0.0250346 0.00641518 0.00504372 0.0332757 0.00539899 0.00367808 
0.0283387 0.00890506 0.00473829 0.00861143 0.0123591 0.00459665 -0.00867948 0.0139924 0.00499694 
-0.0196462 0.0155185 0.00519724 -0.00307286 0.0144526 0.00531645 0.0121458 0.0151918 0.00459186 
-0.0287332 0.0215601 0.00385969 -0.0295899 0.0232577 0.00421024 0.00372347 0.0304157 0.00486806 
0.00519606 0.0301696 0.00497587 0.00390562 0.0317225 0.00432809 0.00317215 0.0343196 0.00512868 
-0.0245447 0.0378537 0.00517211 -0.00973825 0.0391656 0.00505756 0.0222253 0.0407186 0.00480391 
0.0352379 0.0438995 0.00526834 -0.0346971 -0.0446764 0.00645571 -0.0248654 -0.0427111 0.00615564 
0.0248068 -0.0428986 0.00647401 0.0418836 -0.0421436 0.00557485 0.0238162 -0.0409762 0.00662706 
0.0424299 -0.0409921 0.00623118 0.040047 -0.0404588 0.00601247 0.0397687 -0.0374633 0.00620358 
0.000822496 -0.0363122 0.00579471 0.00802514 -0.031483 0.00592731 0.00231692 -0.0294453 0.00490697 
-0.0346801 -0.0287009 0.00560691 0.03382 -0.0268981 0.00627598 0.0306875 -0.0259396 0.00576108 
0.00538025 -0.0241403 0.00657329 0.0102479 -0.024092 0.00626949 0.0363266 -0.0194176 0.00614349 
0.0198229 -0.0156851 0.00622653 -0.0279963 -0.0141356 0.00517303 0.0403752 -0.0143085 0.00562724 
-0.0222502 -0.00974669 0.00635076 0.00523139 -0.00599236 0.00580052 -0.0416237 0.00110806 0.00639839 
0.0407777 0.000744206 0.00548417 0.0404406 0.00462082 0.00625633 -0.019893 0.00878872 0.00451732 
-0.0392616 0.00972366 0.00659065 -0.0101256 0.00978275 0.00607433 0.00474506 0.0103043 0.00576323 
0.0197977 0.00963841 0.0054652 -0.00071691 0.0108932 0.00459841 0.0128044 0.0127337 0.00604844 
0.0261916 0.0119357 0.00622903 0.0122157 0.0191756 0.00629584 -0.0421793 0.0225172 0.005818 
-0.0190887 0.0269029 0.00575947 0.0397191 0.0283771 0.00527464 -0.0376379 0.0294143 0.00576567 
-0.0409258 0.0305044 0.00596954 0.0380057 0.0324307 0.00524565 0.0311732 0.0371467 0.00611142 
0.0238959 0.0383247 0.00556303 -0.0312382 0.0393096 0.00655654 -0.0181988 0.0434549 0.00560691 
-0.0390775 0.0447256 0.00477915 -0.00340304 -0.0448428 0.00741552 -0.044759 -0.0437614 0.00711159 
-0.027409 -0.0433703 0.00782739 -0.00670669 -0.0394183 0.00763516 -0.0273176 -0.0361067 0.00617903 
0.00879071 -0.0344865 0.00787129 0.023158 -0.0340207 0.00675767 0.0244271 -0.0334586 0.00708647 
-0.0262624 -0.032473 0.00686607 -0.0232422 -0.0321576 0.00747434 -0.0448384 -0.0296834 0.00738267 
-0.0240024 -0.0280603 0.00715801 -0.00580099 -0.0272788 0.00788715 -0.0338231 -0.0250135 0.00741242 
0.032808 -0.025967 0.00688363 0.0115492 -0.0227248 0.00576783 0.0436787 -0.0219137 0.00759372 
-0.0317771 -0.0175651 0.00682749 -0.0204621 -0.0172006 0.00720064 0.0404767 -0.0183151 0.00780611 
0.0223879 -0.0163393 0.0077716 0.0132043 -0.01541 0.00585541 0.0249316 -0.014475 0.00742772 
0.0253763 -0.011051 0.00680239 0.0277003 -0.0107969 0.00768546 -0.0196799 -0.00931279 0.00699942 
0.0352883 -0.0103067 0.00627483 -0.00553214 -0.00871323 0.00682132 -0.0135858 -0.00672635 0.00717594 
0.0448793 -0.00396119 0.00603818 -0.00783961 -0.000387029 0.00785596 0.0147261 0.00139147 0.00765718 
0.0189244 0.00254502 0.005956 0.0362421 0.00170773 0.00673251 -0.037077 0.00611456 0.0075266 
-0.0170872 0.00564833 0.00700638 -0.00723413 0.00605583 0.00702957 0.0011249 0.00615697 0.00715838 
0.0228765 0.00606581 0.00776982 0.0358407 0.00533501 0.00685435 -0.0408306 0.00999374 0.00637406 
0.0234497 0.00978487 0.00595734 0.027557 0.009967 0.00671631 -0.00808524 0.0113378 0.0060804 
0.0399323 0.0117688 0.00734444 -0.0350204 0.0121089 0.00620517 -0.00279986 0.0127222 0.00746583 
-0.0429188 0.0135204 0.00764997 -0.034865 0.0142961 0.00777376 0.0336082 0.013194 0.00711284 
-0.0408838 0.0159645 0.00665668 0.00976298 0.0163696 0.00745388 0.0418335 0.0161761 0.00737504 
-0.0122189 0.0175978 0.00676447 -0.0214239 0.0189608 0.00675184 0.0388885 0.0193682 0.0067664 
-0.0431379 0.0208085 0.00755217 -0.0349287 0.0230684 0.00706572 0.0146363 0.0223077 0.00791606 
0.0226957 0.0260881 0.00676984 -0.0114472 0.026715 0.00759749 0.00953871 0.0271324 0.00793593 
0.0444958 0.0309554 0.00788234 0.0337272 0.0324898 0.00679627 0.00284552 0.0345861 0.00742154 
0.00367032 0.0371324 0.00578137 -0.00647711 0.0391566 0.00626983 -0.0375088 0.0393741 0.00682994 
0.0163992 0.0415262 0.00738591 0.0114086 0.0440135 0.00669666 0.0399235 0.0434757 0.00767099 
0.0171919 0.0449185 0.00637898 -0.0428902 -0.0449088 0.00914024 0.0414821 -0.0410789 0.00833245 
0.00849583 -0.0405939 0.00827027 0.0244803 -0.0401788 0.00829593 -0.0195638 -0.0385913 0.00751325 
-0.00302782 -0.0385948 0.00865825 0.0325128 -0.03812 0.00752788 -0.0370475 -0.0370945 0.008838 
0.00798734 -0.0367051 0.00882674 -0.0439713 -0.0357399 0.00908614 0.0195647 -0.0366528 0.0072108 
-0.0427235 -0.0332389 0.00806046 -0.0266532 -0.0301716 0.00873016 -0.0105296 -0.0314142 0.00867048 
0.00577088 -0.0287415 0.00873445 0.033456 -0.0256735 0.00849192 -0.0408326 -0.0234295 0.00885659 
-0.0164034 -0.0216001 0.00828787 0.00623721 -0.0211799 0.00870875 0.0336491 -0.0197505 0.00804046 
-0.0108877 -0.0188832 0.00812395 -0.0328213 -0.0176588 0.00832065 0.0030191 -0.0179247 0.00863764 
0.0268005 -0.0146468 0.00853792 -0.0329121 -0.0139828 0.00878581 0.0176437 -0.0119747 0.00856059 
0.00689113 -0.0107816 0.00901792 -0.038829 -0.00978443 0.00919798 0.0251729 -0.00985964 0.00892661 
0.0350526 -0.0102353 0.00858068 -0.0304645 -0.00701594 0.00822141 -0.0198564 -0.00683511 0.0086242 
-0.0129003 -0.00574839 0.00891492 -0.042786 -0.00359954 0.00831765 -0.0179231 -0.00300678 0.0089817 
-0.00702036 -0.00121172 0.00808053 0.0384376 0.000848974 0.00877427 -0.00967086 0.00179773 0.00799202 
0.00417698 0.0024455 0.00804007 -0.0137512 0.00384646 0.00807757 0.0292006 0.00433004 0.00854398 
0.0305447 0.00486582 0.00816387 -0.0287984 0.00559412 0.00813464 0.021602 0.00540593 0.00888527 
0.030759 0.00580352 0.00877919 -0.0426568 0.00723228 0.00865364 -0.0442311 0.00821601 0.00747054 
0.0142017 0.0079404 0.00818861 0.0202046 0.00840095 0.00809292 0.0212596 0.00979192 0.00901795 
0.014866 0.0127598 0.00845306 8.23501e-07 0.0138406 0.0091407 0.0143092 0.0139794 0.00892794 
0.0248423 0.0143007 0.00873147 0.0287781 0.014071 0.00794915 -0.0360536 0.0173104 0.00842384 
0.0215224 0.0171285 0.00837683 0.0226738 0.0181095 0.00819415 0.00395304 0.0187088 0.00882549 
-0.0153727 0.020636 0.00819907 -0.0282566 0.021284 0.00815973 0.00128112 0.0217131 0.0083265 
0.0123926 0.0218243 0.00868019 -0.00739359 0.0259593 0.00898302 0.0167463 0.0251763 0.00913978 
-0.0357156 0.0282031 0.00882285 0.0191509 0.0299648 0.00897067 0.0434247 0.0295768 0.00764049 
-0.00435696 0.0325462 0.00842284 0.0165329 0.0385374 0.00891976 -0.0112537 0.0395394 0.00900959 
0.0251972 0.0393087 0.00841198 0.00805094 0.0422278 0.00830878 -0.0205282 0.0432397 0.0089191 
0.0211706 0.0445491 0.00788523 -0.0389435 -0.0425966 0.00945508 -0.00674967 -0.0416523 0.0104988 
-0.0334706 -0.0396012 0.00981603 0.0156715 -0.0391733 0.0092631 0.00594186 -0.0351889 0.0102231 
0.0268369 -0.0315202 0.009681 0.00156248 -0.0194187 0.0102919 -0.0426154 -0.0165053 0.00974755 
-0.0339565 -0.0167518 0.00993504 -0.0408642 -0.0154151 0.0087143 -0.015814 -0.0152491 0.00843197 
0.0375745 -0.0151367 0.00859044 0.0286804 -0.00919085 0.0104995 0.00937085 -0.00418454 0.00936441 
-0.0281455 -0.00127675 0.00903183 0.039455 -0.000236508 0.0100924 -0.0260142 0.00017485 0.0103216 
-0.0131355 0.00164571 0.00943811 0.0188762 0.00181355 0.010128 0.0324887 0.00836074 0.00912039 
-0.0408092 0.00981999 0.00934568 -0.0310202 0.0131063 0.00950279 0.00517921 0.0169249 0.0105191 
0.00757299 0.0192258 0.00847642 0.0350116 0.0207306 0.00936045 0.03506 0.0228899 0.0095431 
-0.0386663 0.0253433 0.00946601 -0.0267569 0.0263983 0.00939473 -0.0313244 0.0314049 0.00985751 
0.0038092 0.0311583 0.0104479 0.0040127 0.0314243 0.00843116 0.01325 0.0319187 0.0104636 
-0.041477 0.0364172 0.00971665 0.0297434 0.0373158 0.0101016 0.0221021 0.0401282 0.00993164 
-0.0390027 0.0421086 0.0103602 -0.0335565 -0.0442122 0.0107319 -0.042922 -0.0404536 0.0115326 
-0.0248652 -0.040212 0.0106153 -0.0169239 -0.0402939 0.010416 0.0308099 -0.0378456 0.011293 
0.0333162 -0.0342631 0.0112718 0.043014 -0.0343178 0.0107949 0.0280204 -0.0311414 0.0116101 
-0.0240719 -0.0268296 0.0106945 0.000892701 -0.0263701 0.011452 0.039775 -0.0211058 0.0108214 
-0.0207996 -0.0190456 0.0098706 -0.0100897 -0.0180162 0.0115091 -0.0257955 -0.0157834 0.011378 
-0.00444012 -0.0151621 0.0111721 -0.0388614 -0.0136303 0.0106931 -0.0117656 -0.0138394 0.0110795 
0.00886689 -0.0141191 0.00984607 -0.0269092 -0.0125643 0.0112046 -0.0253401 -0.0103599 0.0101356 
-0.0112192 -0.0104501 0.011679 0.00743742 -0.00926665 0.0116004 -0.0214415 -0.007536 0.011638 
0.0109664 -0.00760095 0.0112991 0.021323 -0.00444137 0.0111042 -0.0141425 -0.00311887 0.0111793 
0.0420414 -0.00101026 0.0101536 0.0449494 0.00392273 0.011303 0.0246705 0.0064451 0.0109758 
0.0221269 0.00728552 0.0115008 0.0340899 0.00882812 0.0110512 -0.0214351 0.00957734 0.01159 
0.0398091 0.011618 0.0112304 0.00789931 0.0136568 0.00989808 0.012949 0.0143048 0.00982838 
0.0090081 0.0191686 0.0106307 -0.022709 0.0198803 0.0114087 -0.0436572 0.0238848 0.0105215 
0.00264144 0.0247174 0.0101217 0.0258603 0.0235991 0.0099457 0.0307708 0.0242663 0.0108622 
-0.00563177 0.0268155 0.010841 -0.0200898 0.0311527 0.0108301 0.0364634 0.0310238 0.0115123 
-0.0073504 0.0318329 0.0111583 -0.0264781 0.032823 0.0115192 -0.0407273 0.0358476 0.0104187 
0.0281745 0.039089 0.0111116 0.0170579 0.0421878 0.00978301 -0.0308094 -0.0435702 0.0118185 
-0.00161929 -0.0353994 0.0117557 0.0355384 -0.0354155 0.0111694 -0.0210092 -0.0320472 0.0110928 
0.023019 -0.0293484 0.0113106 0.0210005 -0.0239559 0.011468 0.013874 -0.00963069 0.0120366 
-0.0211095 -0.00770044 0.0115145 -0.00433253 -0.00676057 0.0128965 0.0180565 -0.00487531 0.0124786 
-0.0261639 0.00337815 0.011108 -0.027449 0.00511055 0.011816 -0.0406381 0.00555966 0.0113456 
-0.0403489 0.00598291 0.01128 -0.01547 0.00642247 0.0114035 -0.0287818 0.014969 0.0121158 
-0.00443291 0.0160613 0.0109923 -0.0363159 0.0185996 0.0121451 -0.00782209 0.0241861 0.0120966 
0.0181332 0.0246356 0.012897 0.000162142 0.0251126 0.0121207 -0.0214233 0.0285543 0.0114771 
-0.00750544 0.0361316 0.0121224 -0.0317519 -0.0446953 0.0135231 -0.0289295 -0.0389067 0.0127632 
-0.0179089 -0.0346335 0.0130549 -8.23525e-05 -0.034098 0.0132865 0.0403097 -0.0347888 0.0125515 
0.0134129 -0.0192809 0.0132626 -0.00710141 -0.0133745 0.0133959 0.00978397 0.00922321 0.0128408 
0.0440772 0.0154938 0.0129143 -0.0286532 0.0159811 0.0129113 0.0256029 0.0175394 0.0132446 
-0.00472634 0.0344449 0.0134913 -0.00883869 0.0381834 0.0130467 -0.00682403 -0.0314098 0.0136722 
-0.0401314 -0.0280847 0.014525 0.0156293 -0.0283842 0.0147206 -0.0350278 -0.0224863 0.0144557 
0.0296492 -0.015918 0.013967 -0.0150798 -0.00698339 0.0146438 -0.0332593 0.000859011 0.0147382 
0.032558 0.00153523 0.0143293 -0.0161548 0.0159009 0.0144766 -0.00317984 0.0164631 0.0136494 
-0.0132251 0.0252506 0.0140622 0.00834461 0.0278725 0.014171 -0.0260391 0.0304395 0.0147612 
-0.0359241 0.0337864 0.0148107 0.010226 -0.0308634 0.0159749 0.0109547 -0.0235646 0.0160547 
0.0347312 -0.012978 0.0152369 0.0218314 -0.00971151 0.0155694 0.00127443 -0.000618905 0.0151893 
0.00418285 0.0112423 0.0160346 -0.00831541 0.0129665 0.0150211 -0.0138035 0.0240512 0.0152976 
0.0132394 0.0345575 0.0153064 -0.0190394 0.0446837 0.0158037 0.0201641 -0.0426709 0.0164778 
-0.0234086 -0.038644 0.0168146 0.0346336 -0.0325969 0.0170105 -0.0313057 -0.0141988 0.0170854 
-0.042331 -0.00792816 0.0174744 -0.0101373 -0.00698039 0.0168344 -0.0436896 0.0195853 0.0162202 
0.0147823 -0.0446949 0.0187022 -0.0225361 -0.0441701 0.0179961 0.0307351 -0.0355434 0.0176107 
-0.038621 -0.0229432 0.0185155 0.0272875 -0.0186725 0.0187049 0.0127657 -0.00746761 0.0177719 
-0.00720807 -0.00608605 0.0176434 0.0386193 -0.00496685 0.017902 -0.0395569 -0.00227866 0.0181389 
-0.0349081 0.00917553 0.0185146 -0.0219587 0.0304934 0.0178939 -0.0379532 0.0399341 0.0181421 
-0.00785852 0.041878 0.0183185 0.0430506 0.0422314 0.0186288 -0.00338111 -0.0363358 0.0191063 
0.0252581 -0.0163235 0.0196188 -0.0136128 -0.00979682 0.0196964 -0.0193355 0.018129 0.0195419 
-0.014478 0.0275162 0.0194213 0.0214431 0.0335886 0.0194259 -0.040885 -0.00406647 0.0207344 
0.0110904 0.00657535 0.0211196 -0.0349861 -0.0412827 0.0224855 0.000425919 -0.0415728 0.0218744 
-0.039126 0.0399637 0.0217053 -0.0406141 -0.0405112 0.0234104 0.027474 -0.0338615 0.0240349 
0.0101693 0.00555192 0.0239329 -0.0406313 0.0295913 0.0234582 -0.0177429 -0.0346724 0.0252857 
0.00546842 0.0177814 0.0246091 -0.00586029 -0.0338127 0.0264161 0.0129906 -0.00677597 0.02621 
-0.0394276 0.0109375 0.0262081 0.0392765 -0.0300093 0.0268453 -0.0139777 -0.0223984 0.0277021 
-0.0323128 -0.0219837 0.0275839 0.0184681 -0.0172117 0.0271645 0.0282033 -0.0178095 0.0278814 
0.0322358 -0.0130621 0.0275314 -0.000610522 -0.00103491 0.0274329 -0.0396817 -0.0304797 0.0290692 
-0.0432264 -0.0264101 0.029316 0.0054016 -0.025334 0.0303104 -0.0291427 -0.0219343 0.0296262 
-0.00552594 0.00555795 0.030626 -0.0152062 0.0294088 0.029344 -0.0227164 -0.0141288 0.0310933 
0.00976854 0.0197772 0.0314935 0.0338942 -0.0410147 0.0320044 -0.0405162 -0.0161033 0.0344332 
-0.0343844 -0.0078404 0.0332918 0.0293019 -0.00298432 0.0339634 -0.0160452 -0.0323821 0.0351531 
0.0275881 -0.00673863 0.0356868 0.023953 0.00820576 0.035164 0.0433459 -0.0353282 0.0363266 
-0.00229178 0.0020129 0.0371481 0.0218308 -0.0192565 0.0380783 0.0414517 -0.0114994 0.0376421 
0.0133448 0.00646544 0.0377613 -0.0183202 -0.0175475 0.0395334 -0.0422696 0.0340949 0.039017 
0.00264867 -0.0338128 0.0399815 0.0262592 -0.0217201 0.0409976 0.0323804 -0.0132471 0.0397376 
-0.032208 0.0306075 0.0403363 0.0101031 -0.0273014 0.0417 0.00153271 0.0201988 0.0419345 
0.0412685 -0.0295104 0.0433307 -0.00474481 -0.00600267 0.0425526 0.0277548 0.0042931 0.0425546 
0.0354139 0.0312817 0.0427182 0.0262096 -0.0449372 0.0438439 -0.00446216 -0.0255279 0.0454168 
0.012585 0.0155082 0.0451346 -0.0368667 0.0306348 0.0457241 0.0152528 0.033152 0.0456324 
0.0342493 -0.0115037 0.0475911 0.00314898 0.00491531 0.0475698 -0.0393221 -0.0167834 0.047997 
-0.0326334 -0.00963456 0.0485491 -0.0207563 -0.0111167 0.0501698 0.0223025 -0.0112244 0.0491775 
-0.0160353 0.0448572 0.0499354 -0.0449336 -0.00957357 0.050864 0.0153641 0.0146287 0.0510461 
-0.0269229 0.0267788 0.0513315 -0.0102477 0.0267602 0.0504201 -0.0213481 0.0319153 0.0503247 
0.0339316 -0.041715 0.0517945 0.00265626 0.00371614 0.0520309 0.0114764 0.0140289 0.0523943 
0.0439232 0.0371117 0.0523915 0.00513794 0.0433856 0.0521699 0.0164577 0.0353116 0.0533789 
0.0302919 -0.0148257 0.0547114 -0.0328109 -0.0226975 0.056076 -0.0329608 -0.0218045 0.0564101 
-0.024842 -0.00884532 0.0571471 -0.0371624 0.011326 0.0572159 -0.0336946 -0.0248459 0.0585255 
0.0323341 0.0191974 0.0583303 -0.0281804 0.0418824 0.058224 0.0185094 -0.042363 0.0604375 
0.0320014 0.00756294 0.0596541 0.0414834 -0.0181367 0.0606943 -0.0420316 -0.0145538 0.0608284 
-0.0440308 0.0448256 0.0608452 0.0341086 -0.0368686 0.0622098 0.0379188 0.0120326 0.0622831 
0.0289145 -0.0340196 0.0654461 -0.015788 -0.0282898 0.0645956 -0.0386256 -0.00983966 0.0644956 
-0.0437633 0.0406561 0.0654842 -0.0419519 -0.0259749 0.0669689 0.0154702 -0.00154679 0.0668302 
-0.0144089 0.0201081 0.0672849 0.0104707 0.0313218 0.0692709 0.00357123 -0.00830953 0.0718626 
-0.0356048 -0.000104637 0.0726854 0.00635633 0.000852437 0.0734485 -0.0197415 0.0344175 0.072686 
0.0414788 -0.00521487 0.0744502 -0.0385899 -0.0405251 0.0750022 -0.0296003 0.0277025 0.0754232 
-0.00521279 -0.0413279 0.0774617 -0.0245993 0.0193658 0.0771503 -0.0170112 0.0231088 0.0767248 
0.00308146 0.0401468 0.0766918 0.0131273 0.040817 0.0769711 0.0419483 -0.0348097 0.0784784 
-0.0081225 0.0151775 0.0798342 0.0282359 -0.00877456 0.0804557 -0.0155539 0.0359545 0.0804917 
0.0433204 -0.0141837 0.0818454 -0.0256005 0.0215871 0.081504 -0.00757157 0.00454821 0.0840976 
0.0188903 -0.0308528 0.0881313 0.00643655 -0.000956063 0.0890152 -0.0207679 -0.0256315 0.0894399 
0.00347554 0.00338662 0.0904396 0.00741479 -0.0295782 0.0908147 -0.00254916 -0.00379952 0.0929655 

VERTICES 649 648
OFFSETS vtktypeint64
0 1 2 3 4 5 6 7 8 
9 10 11 12 13 14 15 16 17 
18 19 20 21 22 23 24 25 26 
27 28 29 30 31 32 33 34 35 
36 37 38 39 40 41 42 43 44 
45 46 47 48 49 50 51 52 53 
54 55 56 57 58 59 60 61 62 
63 64 65 66 67 68 69 70 71 
72 73 74 75 76 77 78 79 80 
81 82 83 84 85 86 87 88 89 
90 91 92 93 94 95 96 97 98 
99 100 101 102 103 104 105 106 107 
108 109 110 111 112 113 114 115 116 
117 118 119 120 121 122 123 124 125 
126 127 128 129 130 131 132 133 134 
135 136 137 138 139 140 141 142 143 
144 145 146 147 148 149 150 151 152 
153 154 155 156 157 158 159 160 161 
162 163 164 165 166 167 168 169 170 
171 172 173 174 175 176 177 178 179 
180 181 182 183 184 185 186 187 188 
189 190 191 192 193 194 195 196 197 
198 199 200 201 202 203 204 205 206 
207 208 209 210 211 212 213 214 215 
216 217 218 219 220 221 222 223 224 
225 226 227 228 229 230 231 232 233 
234 235 236 237 238 239 240 241 242 
243 244 245 246 247 248 249 250 251 
252 253 254 255 256 257 258 259 260 
261 262 263 264 265 266 267 268 269 
270 271 272 273 274 275 276 277 278 
279 280 281 282 283 284 285 286 287 
288 289 290 291 292 293 294 295 296 
297 298 299 300 301 302 303 304 305 
306 307 308 309 310 311 312 313 314 
315 316 317 318 319 320 321 322 323 
324 325 326 327 328 329 330 331 332 
333 334 335 336 337 338 339 340 341 
342 343 344 345 346 347 348 349 350 
351 352 353 354 355 356 357 358 359 
360 361 362 363 364 365 366 367 368 
369 370 371 372 373 374 375 376 377 
378 379 380 381 382 383 384 385 386 
387 388 389 390 391 392 393 394 395 
396 397 398 399 400 401 402 403 404 
405 406 407 408 409 410 411 412 413 
414 415 416 417 418 419 420 421 422 
423 424 425 426 427 428 429 430 431 
432 433 434 435 436 437 438 439 440 
441 442 443 444 445 446 447 448 449 
450 451 452 453 454 455 456 457 458 
459 460 461 462 463 464 465 466 467 
468 469 470 471 472 473 474 475 476 
477 478 479 480 481 482 483 484 485 
486 487 488 489 490 491 492 493 494 
495 496 497 498 499 500 501 502 503 
504 505 506 507 508 509 510 511 512 
513 514 515 516 517 518 519 520 521 
522 523 524 525 526 527 528 529 530 
531 532 533 534 535 536 537 538 539 
540 541 542 543 544 545 546 547 548 
549 550 551 552 553 554 555 556 557 
558 559 560 561 562 563 564 565 566 
567 568 569 570 571 572 573 574 575 
576 577 578 579 580 581 582 583 584 
585 586 587 588 589 590 591 592 593 
594 595 596 597 598 599 600 601 602 
603 604 605 606 607 608 609 610 611 
612 613 614 615 616 617 618 619 620 
621 622 623 624 625 626 627 628 629 
630 631 632 633 634 635 636 637 638 
639 640 641 642 643 644 645 646 647 
648 
CONNECTIVITY vtktypeint64
0 1 2 3 4 5 6 7 8 
9 10 11 12 13 14 15 16 17 
18 19 20 21 22 23 24 25 26 
27 28 29 30 31 32 33 34 35 
36 37 38 39 40 41 42 43 44 
45 46 47 48 49 50 51 52 53 
54 55 56 57 58 59 60 61 62 
63 64 65 66 67 68 69 70 71 
72 73 74 75 76 77 78 79 80 
81 82 83 84 85 86 87 88 89 
90 91 92 93 94 95 96 97 98 
99 100 101 102 103 104 105 106 107 
108 109 110 111 112 113 114 115 116 
117 118 119 120 121 122 123 124 125 
126 127 128 129 130 131 132 133 134 
135 136 137 138 139 140 141 142 143 
144 145 146 147 148 149 150 151 152 
153 154 155 156 157 158 159 160 161 
162 163 164 165 166 167 168 169 170 
171 172 173 174 175 176 177 178 179 
180 181 182 183 184 185 186 187 188 
189 190 191 192 193 194 195 196 197 
198 199 200 201 202 203 204 205 206 
207 208 209 210 211 212 213 214 215 
216 217 218 219 220 221 222 223 224 
225 226 227 228 229 230 231 232 233 
234 235 236 237 238 239 240 241 242 
243 244 245 246 247 248 249 250 251 
252 253 254 255 256 257 258 259 260 
261 262 263 264 265 266 267 268 269 
270 271 272 273 274 275 276 277 278 
279 280 281 282 283 284 285 286 287 
288 289 290 291 292 293 294 295 296 
297 298 299 300 301 302 303 304 305 
306 307 308 309 310 311 312 313 314 
315 316 317 318 319 320 321 322 323 
324 325 326 327 328 329 330 331 332 
333 334 335 336 337 338 339 340 341 
342 343 344 345 346 347 348 349 350 
351 352 353 354 355 356 357 358 359 
360 361 362 363 364 365 366 367 368 
369 370 371 372 373 374 375 376 377 
378 379 380 381 382 383 384 385 386 
387 388 389 390 391 392 393 394 395 
396 397 398 399 400 401 402 403 404 
405 406 407 408 409 410 411 412 413 
414 415 416 417 418 419 420 421 422 
423 424 425 426 427 428 429 430 431 
432 433 434 435 436 437 438 439 440 
441 442 443 444 445 446 447 448 449 
450 451 452 453 454 455 456 457 458 
459 460 461 462 463 464 465 466 467 
468 469 470 471 472 473 474 475 476 
477 478 479 480 481 482 483 484 485 
486 487 488 489 490 491 492 493 494 
495 496 497 498 499 500 501 502 503 
504 505 506 507 508 509 510 511 512 
513 514 515 516 517 518 519 520 521 
522 523 524 525 526 527 528 529 530 
531 532 533 534 535 536 537 538 539 
540 541 542 543 544 545 546 547 548 
549 550 551 552 553 554 555 556 557 
558 559 560 561 562 563 564 565 566 
567 568 569 570 571 572 573 574 575 
576 577 578 579 580 581 582 583 584 
585 586 587 588 589 590 591 592 593 
594 595 596 597 598 599 600 601 602 
603 604 605 606 607 608 609 610 611 
612 613 614 615 616 617 618 619 620 
621 622 623 624 625 626 627 628 629 
630 631 632 633 634 635 636 637 638 
639 640 641 642 643 644 645 646 647 

POINT_DATA 648
FIELD FieldData 12
id 1 648 int
68 71 403 25 105 204 379 213 455 
286 89 93 52 487 156 333 294 335 
493 116 323 462 460 43 1 38 260 
42 368 142 360 405 371 217 265 305 
56 301 425 426 144 420 345 273 363 
117 529 279 325 109 266 461 481 94 
348 225 421 232 182 123 361 108 342 
346 414 102 350 239 250 352 393 147 
445 128 430 79 416 329 170 74 146 
53 299 515 252 257 171 20 151 135 
205 208 334 244 17 395 63 70 469 
392 521 281 431 130 394 78 206 504 
343 268 65 251 45 397 272 84 31 
140 471 35 34 226 489 477 295 64 
472 111 174 28 479 448 59 380 157 
311 278 243 285 341 212 216 474 126 
129 401 119 178 202 308 138 254 201 
81 148 313 437 320 62 475 275 113 
390 218 429 271 508 122 24 505 139 
354 183 121 484 223 238 168 276 211 
227 377 75 196 141 124 261 288 338 
255 221 378 446 447 287 498 179 451 
506 466 198 328 318 375 476 98 463 
188 314 82 319 51 347 303 404 137 
96 409 415 267 449 317 439 298 355 
444 376 240 340 292 248 3 324 32 
50 132 90 77 61 495 478 486 456 
467 153 453 296 480 442 432 181 60 
384 297 236 315 15 40 7 110 161 
357 330 104 163 30 199 327 180 85 
482 413 76 412 302 351 55 164 207 
136 326 210 92 359 411 115 22 436 
229 304 185 331 190 282 160 167 470 
154 274 289 290 500 349 106 16 427 
293 399 72 383 263 57 66 465 36 
175 300 418 458 407 396 454 450 316 
424 112 214 21 322 150 491 310 433 
339 54 417 166 49 337 18 162 195 
410 321 114 222 246 155 386 91 406 
438 258 457 256 459 367 5 440 496 
73 143 374 194 483 370 542 2 83 
499 186 145 4 169 193 443 33 219 
100 408 488 158 332 29 233 362 435 
372 366 134 87 99 356 88 47 107 
13 291 237 177 247 176 381 58 215 
441 8 23 231 428 10 336 125 385 
80 86 353 423 165 197 373 46 41 
364 149 191 520 507 189 280 187 26 
253 270 309 536 434 200 159 344 307 
103 234 127 511 6 11 519 284 503 
501 245 48 220 485 14 12 9 209 
452 242 312 402 388 69 44 490 497 
358 228 118 387 559 398 502 120 526 
422 522 389 538 468 473 131 509 269 
494 283 192 259 101 365 464 262 97 
391 172 203 173 543 306 95 39 152 
241 230 492 37 516 27 224 133 382 
400 419 249 277 19 67 553 264 184 
369 235 567 528 562 591 523 549 589 
546 524 518 587 571 580 601 533 513 
576 551 517 566 564 525 527 532 547 
545 540 612 514 577 572 563 592 570 
615 510 605 565 558 638 512 539 550 
616 573 530 596 645 561 548 557 613 
623 534 604 560 594 579 628 593 618 
617 585 599 614 554 622 637 535 583 
597 598 633 531 586 552 537 541 578 
569 595 581 607 555 635 556 603 590 
639 626 620 634 629 544 575 574 610 
625 611 608 568 630 600 647 648 609 
632 582 588 643 606 584 619 602 624 
644 646 631 636 621 627 641 640 642 

type 1 648 int
1 1 1 1 1 1 1 1 1 
1 1 1 1 1 1 1 1 1 
1 1 1 1 1 1 4 1 1 
1 1 1 1 1 1 1 1 1 
1 1 1 1 1 1 1 1 1 
1 1 1 1 1 1 1 1 1 
1 1 1 1 1 1 1 1 1 
1 1 1 1 1 1 1 1 1 
1 1 1 1 1 1 1 1 1 
1 1 1 1 1 1 1 1 1 
1 1 1 1 1 1 1 1 1 
1 1 1 1 1 1 1 1 1 
1 1 1 1 1 1 1 1 1 
1 1 1 1 1 1 1 1 1 
1 1 1 1 1 1 1 1 1 
1 1 1 1 1 1 1 1 1 
1 1 1 1 1 1 1 1 1 
1 1 1 1 1 1 1 1 1 
1 1 1 1 1 1 1 1 1 
1 1 1 1 1 1 1 1 1 
1 1 1 1 1 1 1 1 1 
1 1 1 1 1 1 1 1 1 
1 1 1 1 1 1 1 1 1 
1 1 1 1 1 1 1 1 1 
1 1 1 1 1 1 1 1 1 
1 1 1 1 1 1 2 1 1 
1 1 1 1 1 1 1 1 1 
1 1 1 1 1 1 1 1 1 
1 1 1 1 2 1 2 1 1 
1 1 1 1 1 1 1 1 1 
1 1 1 1 1 1 1 1 1 
1 1 1 1 1 1 1 1 1 
1 1 1 1 1 1 1 1 1 
1 1 1 1 1 1 1 2 1 
1 1 1 1 1 1 1 1 1 
1 1 1 1 1 1 1 1 1 
1 1 1 1 1 1 1 1 1 
1 1 1 1 1 1 1 1 1 
1 1 1 1 1 1 1 1 1 
1 1 1 1 1 1 2 1 1 
1 1 1 1 1 1 1 3 1 
1 1 1 2 1 1 1 1 1 
1 1 1 1 1 1 1 1 1 
1 1 1 1 1 1 1 1 1 
2 1 1 1 1 1 1 1 1 
1 2 1 1 1 2 1 1 1 
1 1 1 1 1 1 1 1 1 
1 1 1 1 1 1 1 1 1 
1 1 1 1 1 1 1 1 1 
1 1 1 1 2 2 1 1 1 
1 1 1 1 1 2 2 2 1 
1 1 1 1 1 1 1 1 1 
1 1 1 1 1 1 1 1 1 
1 1 1 1 1 1 1 1 1 
1 1 1 1 1 1 1 1 1 
1 1 1 1 1 1 1 1 1 
1 1 1 1 2 1 1 1 1 
1 1 1 1 1 1 1 1 1 
1 1 1 1 1 1 1 1 1 
1 1 1 1 1 1 1 1 1 
1 1 1 1 1 1 1 1 1 
1 1 1 1 1 1 1 1 1 
1 1 1 1 1 1 2 1 1 
1 1 1 1 1 1 1 1 1 
1 1 1 1 1 1 1 1 1 
1 1 1 1 1 1 1 1 1 
1 1 1 1 1 1 1 1 1 
1 1 1 1 1 1 1 1 1 
1 1 1 2 1 1 1 1 1 
1 1 1 1 1 1 1 1 1 
1 1 1 1 1 1 1 1 1 
1 1 1 1 1 1 1 1 1 

i 3 648 int
0 0 0 0 0 0 0 0 0 
0 0 0 0 0 0 0 0 0 
0 0 0 0 0 0 0 0 0 
0 0 0 0 0 0 0 0 0 
0 0 0 0 0 0 0 0 0 
0 0 0 0 0 0 0 0 0 
0 0 0 0 0 0 0 0 0 
0 0 0 0 0 0 0 0 0 
0 0 0 0 0 0 0 0 0 
0 0 0 0 0 0 0 0 0 
0 0 0 0 0 0 0 0 0 
0 0 0 0 0 0 0 0 0 
0 0 0 0 0 0 0 0 0 
0 0 0 0 0 0 0 0 0 
0 0 0 0 0 0 0 0 0 
0 0 0 0 0 0 0 0 0 
0 0 0 0 0 0 0 0 0 
0 0 0 0 0 0 0 0 0 
0 0 0 0 0 0 0 0 0 
0 0 0 0 0 0 0 0 0 
0 0 0 0 0 0 0 0 0 
0 0 0 0 0 0 0 0 0 
0 0 0 0 0 0 0 0 0 
0 0 0 0 0 0 0 0 0 
0 0 0 0 0 0 0 0 0 
0 0 0 0 0 0 0 0 0 
0 0 0 0 0 0 0 0 0 
0 0 0 0 0 0 0 0 0 
0 0 0 0 0 0 0 0 0 
0 0 0 0 0 0 0 0 0 
0 0 0 0 0 0 0 0 0 
0 0 0 0 0 0 0 0 0 
0 0 0 0 0 0 0 0 0 
0 0 0 0 0 0 0 0 0 
0 0 0 0 0 0 0 0 0 
0 0 0 0 0 0 0 0 0 
0 0 0 0 0 0 0 0 0 
0 0 0 0 0 0 0 0 0 
0 0 0 0 0 0 0 0 0 
0 0 0 0 0 0 0 0 0 
0 0 0 0 0 0 0 0 0 
0 0 0 0 0 0 0 0 0 
0 0 0 0 0 0 0 0 0 
0 0 0 0 0 0 0 0 0 
0 0 0 0 0 0 0 0 0 
0 0 0 0 0 0 0 0 0 
0 0 0 0 0 0 0 0 0 
0 0 0 0 0 0 0 0 0 
0 0 0 0 0 0 0 0 0 
0 0 0 0 0 0 0 0 0 
0 0 0 0 0 0 0 0 0 
0 0 0 0 0 0 0 0 0 
0 0 0 0 0 0 0 0 0 
0 0 0 0 0 0 0 0 0 
0 0 0 0 0 0 0 0 0 
0 0 0 0 0 0 0 0 0 
0 0 0 0 0 0 0 0 0 
0 0 0 0 0 0 0 0 0 
0 0 0 0 0 0 0 0 0 
0 0 0 0 0 0 0 0 0 
0 0 0 0 0 0 0 0 0 
0 0 0 0 0 0 0 0 0 
0 0 0 0 0 0 0 0 0 
0 0 0 0 0 0 0 0 0 
0 0 0 0 0 0 0 0 0 
0 0 0 0 0 0 0 0 0 
0 0 0 0 0 0 0 0 0 
0 0 0 0 0 0 0 0 0 
0 0 0 0 0 0 0 0 0 
0 0 0 0 0 0 0 0 0 
0 0 0 0 0 0 0 0 0 
0 0 0 0 0 0 0 0 0 
0 0 0 0 0 0 0 0 0 
0 0 0 0 0 0 0 0 0 
0 0 0 0 0 0 0 0 0 
0 0 0 0 0 0 0 0 0 
0 0 0 0 0 0 0 0 0 
0 0 0 0 0 0 0 0 0 
0 0 0 0 0 0 0 0 0 
0 0 0 0 0 0 0 0 0 
0 0 0 0 0 0 0 0 0 
0 0 0 0 0 0 0 0 0 
0 0 0 0 0 0 0 0 0 
0 0 0 0 0 0 0 0 0 
0 0 0 0 0 0 0 0 0 
0 0 0 0 0 0 0 0 0 
0 0 0 0 0 0 0 0 0 
0 0 0 0 0 0 0 0 0 
0 0 0 0 0 0 0 0 0 
0 0 0 0 0 0 0 0 0 
0 0 0 0 0 0 0 0 0 
0 0 0 0 0 0 0 0 0 
0 0 0 0 0 0 0 0 0 
0 0 0 0 0 0 0 0 0 
0 0 0 0 0 0 0 0 0 
0 0 0 0 0 0 0 0 0 
0 0 0 0 0 0 0 0 0 
0 0 0 0 0 0 0 0 0 
0 0 0 0 0 0 0 0 0 
0 0 0 0 0 0 0 0 0 
0 0 0 0 0 0 0 0 0 
0 0 0 0 0 0 0 0 0 
0 0 0 0 0 0 0 0 0 
0 0 0 0 0 0 0 0 0 
0 0 0 0 0 0 0 0 0 
0 0 0 0 0 0 0 0 0 
0 0 0 0 0 0 0 0 0 
0 0 0 0 0 0 0 0 0 
0 0 0 0 0 0 0 0 0 
0 0 0 0 0 0 0 0 0 
0 0 0 0 0 0 0 0 0 
0 0 0 0 0 0 0 0 0 
0 0 0 0 0 0 0 0 0 
0 0 0 0 0 0 0 0 0 
0 0 0 0 0 0 0 0 0 
0 0 0 0 0 0 0 0 0 
0 0 0 0 0 0 0 0 0 
0 0 0 0 0 0 0 0 0 
0 0 0 0 0 0 0 0 0 
0 0 0 0 0 0 0 0 0 
0 0 0 0 0 0 0 0 0 
0 0 0 0 0 0 0 0 0 
0 0 0 0 0 0 0 0 0 
0 0 0 0 0 0 0 0 0 
0 0 0 0 0 0 0 0 0 
0 0 0 0 0 0 0 0 0 
0 0 0 0 0 0 0 0 0 
0 0 0 0 0 0 0 0 0 
0 0 0 0 0 0 0 0 0 
0 0 0 0 0 0 0 0 0 
0 0 0 0 0 0 0 0 0 
0 0 0 0 0 0 0 0 0 
0 0 0 0 0 0 0 0 0 
0 0 0 0 0 0 0 0 0 
0 0 0 0 0 0 0 0 0 
0 0 0 0 0 0 0 0 0 
0 0 0 0 0 0 0 0 0 
0 0 0 0 0 0 0 0 0 
0 0 0 0 0 0 0 0 0 
0 0 0 0 0 0 0 0 0 
0 0 0 0 0 0 0 0 0 
0 0 0 0 0 0 0 0 0 
0 0 0 0 0 0 0 0 0 
0 0 0 0 0 0 0 0 0 
0 0 0 0 0 0 0 0 0 
0 0 0 0 0 0 0 0 0 
0 0 0 0 0 0 0 0 0 
0 0 0 0 0 0 0 0 0 
0 0 0 0 0 0 0 0 0 
0 0 0 0 0 0 0 0 0 
0 0 0 0 0 0 0 0 0 
0 0 0 0 0 0 0 0 0 
0 0 0 0 0 0 0 0 0 
0 0 0 0 0 0 0 0 0 
0 0 0 0 0 0 0 0 0 
0 0 0 0 0 0 0 0 0 
0 0 0 0 0 0 0 0 0 
0 0 0 0 0 0 0 0 0 
0 0 0 0 0 0 0 0 0 
0 0 0 0 0 0 0 0 0 
0 0 0 0 0 0 0 0 0 
0 0 0 0 0 0 0 0 0 
0 0 0 0 0 0 0 0 0 
0 0 0 0 0 0 0 0 0 
0 0 0 0 0 0 0 0 0 
0 0 0 0 0 0 0 0 0 
0 0 0 0 0 0 0 0 0 
0 0 0 0 0 0 0 0 0 
0 0 0 0 0 0 0 0 0 
0 0 0 0 0 0 0 0 0 
0 0 0 0 0 0 0 0 0 
0 0 0 0 0 0 0 0 0 
0 0 0 0 0 0 0 0 0 
0 0 0 0 0 0 0 0 0 
0 0 0 0 0 0 0 0 0 
0 0 0 0 0 0 0 0 0 
0 0 0 0 0 0 0 0 0 
0 0 0 0 0 0 0 0 0 
0 0 0 0 0 0 0 0 0 
0 0 0 0 0 0 0 0 0 
0 0 0 0 0 0 0 0 0 
0 0 0 0 0 0 0 0 0 
0 0 0 0 0 0 0 0 0 
0 0 0 0 0 0 0 0 0 
0 0 0 0 0 0 0 0 0 
0 0 0 0 0 0 0 0 0 
0 0 0 0 0 0 0 0 0 
0 0 0 0 0 0 0 0 0 
0 0 0 0 0 0 0 0 0 
0 0 0 0 0 0 0 0 0 
0 0 0 0 0 0 0 0 0 
0 0 0 0 0 0 0 0 0 
0 0 0 0 0 0 0 0 0 
0 0 0 0 0 0 0 0 0 
0 0 0 0 0 0 0 0 0 
0 0 0 0 0 0 0 0 0 
0 0 0 0 0 0 0 0 0 
0 0 0 0 0 0 0 0 0 
0 0 0 0 0 0 0 0 0 
0 0 0 0 0 0 0 0 0 
0 0 0 0 0 0 0 0 0 
0 0 0 0 0 0 0 0 0 
0 0 0 0 0 0 0 0 0 
0 0 0 0 0 0 0 0 0 
0 0 0 0 0 0 0 0 0 
0 0 0 0 0 0 0 0 0 
0 0 0 0 0 0 0 0 0 
0 0 0 0 0 0 0 0 0 
0 0 0 0 0 0 0 0 0 
0 0 0 0 0 0 0 0 0 
0 0 0 0 0 0 0 0 0 
0 0 0 0 0 0 0 0 0 
0 0 0 0 0 0 0 0 0 
0 0 0 0 0 0 0 0 0 
0 0 0 0 0 0 0 0 0 
0 0 0 0 0 0 0 0 0 

v 3 648 double
0 0 0.23779672217 0 0 0.19771314713 0 0 0.2356104792 
0 0 0.23599797158 0 0 0.23588803486 0 0 0.20733870917 
0 0 0.241020902 0 0 0.25122422836 0 0 0.2402794822 
0 0 0.23757618137 0 0 0.23065113334 0 0 0.23490790395 
0 0 0.22258503861 0 0 0.22574390542 0 0 0.23698283405 
0 0 0.20306758255 0 0 0.19031409224 0 0 -0.62499918749 
0 0 0.22857121891 0 0 0.23890203858 0 0 0.2281246632 
0 0 0.22816101458 0 0 -0.62499918749 0 0 -0.62499918749 
0 0 0.34100495422 0 0 0.22819120819 0 0 0.18308573108 
0 0 0.1999564732 0 0 0.19270180197 0 0 0.22350996777 
0 0 0.20584946945 0 0 -0.62499918749 0 0 0.23240868975 
0 0 0.23295808787 0 0 0.22583023114 0 0 -0.62499918749 
0 0 0.18627039158 0 0 0.24017164733 0 0 0.24666563999 
0 0 -0.62499918749 0 0 0.2283910744 0 0 0.18939210405 
0 0 0.19359315149 0 0 0.19634807024 0 0 0.22627184385 
0 0 0.19587764141 0 0 -0.5209991875 0 0 0.22252696755 
0 0 0.22916880167 0 0 0.19852774817 0 0 0.23957114277 
0 0 0.18429102165 0 0 0.23454424107 0 0 0.19859330399 
0 0 0.19348400741 0 0 0.231930019 0 0 -0.62499918749 
0 0 0.19872198385 0 0 -0.62499918749 0 0 0.23539777206 
0 0 -0.62499918749 0 0 0.18967002975 0 0 0.22932263149 
0 0 0.17833277306 0 0 0.21377333282 0 0 0.21920769518 
0 0 -0.62499918749 0 0 0.23152224689 0 0 0.22549597187 
0 0 0.17979127286 0 0 0.22395764348 0 0 -0.62499918749 
0 0 -0.62499918749 0 0 0.17112535534 0 0 -0.62499918749 
0 0 0.22634260613 0 0 0.22608226513 0 0 0.22165835461 
0 0 0.21843708147 0 0 0.22423929142 0 0 0.21345824937 
0 0 0.22002378782 0 0 0.18204568374 0 0 0.15059387512 
0 0 0.22008650989 0 0 0.17907782251 0 0 0.22859549401 
0 0 0.21315706818 0 0 0.20990505131 0 0 -0.62499918749 
0 0 0.2243589731 0 0 0.21961109087 0 0 0.18254994523 
0 0 0.21838929975 0 0 0.22244791696 0 0 0.21801661168 
0 0 0.21070589255 0 0 -0.62499918749 0 0 0.18145177989 
0 0 0.18593486971 0 0 0.15067093216 0 0 -0.62499918749 
0 0 0.21734285458 0 0 -0.62499918749 0 0 0.22052128494 
0 0 0.24003861574 0 0 0.21800611842 0 0 0.16889259474 
0 0 0.17657442376 0 0 0.18128208622 0 0 0.22247126591 
0 0 0.17717963756 0 0 0.21787076182 0 0 0.21371065288 
0 0 0.18151900443 0 0 0.19718934304 0 0 -0.62499918749 
0 0 0.16996189411 0 0 -0.62499918749 0 0 0.15079685006 
0 0 0.15242433936 0 0 0.17120571788 0 0 -0.62499918749 
0 0 0.20169773745 0 0 0.20444596037 0 0 0.15495881714 
0 0 0.17672179896 0 0 0.21475410065 0 0 0.17318727387 
0 0 0.20066800132 0 0 0.16063462461 0 0 -0.62499918749 
0 0 0.21123041349 0 0 -0.62499918749 0 0 0.16146326982 
0 0 0.19931092589 0 0 0.20723851024 0 0 0.1550967155 
0 0 -0.62499918749 0 0 0.16959104274 0 0 -0.62499918749 
0 0 0.20157765913 0 0 0.20326096076 0 0 -0.62499918749 
0 0 0.15691248785 0 0 0.16272203168 0 0 0.2035903253 
0 0 0.19794492758 0 0 0.15502427481 0 0 0.15916813592 
0 0 -0.62499918749 0 0 -0.62499918749 0 0 0.15595688086 
0 0 0.20455348505 0 0 0.16529465513 0 0 0.20282425336 
0 0 0.17891084593 0 0 0.15571701317 0 0 0.15661095801 
0 0 0.19966826791 0 0 0.18450715508 0 0 0.18746097516 
0 0 0.18291264223 0 0 0.14489290108 0 0 0.18435675081 
0 0 0.20247666326 0 0 0.11569839171 0 0 0.18779681923 
0 0 0.14375219793 0 0 0.17787137421 0 0 -0.62499918749 
0 0 -0.62499918749 0 0 0.18788600823 0 0 0.155453135 
0 0 0.19328093076 0 0 0.20653848372 0 0 0.13447732251 
0 0 0.15431835589 0 0 -0.62499918749 0 0 0.1961541819 
0 0 0.13635497405 0 0 0.19588987987 0 0 0.18417436554 
0 0 0.19812416526 0 0 0.16899521697 0 0 -0.62499918749 
0 0 0.13091878669 0 0 0.13593671245 0 0 -0.62499918749 
0 0 0.14587854168 0 0 -0.62499918749 0 0 0.19136581688 
0 0 0.18692703214 0 0 0.18886530288 0 0 0.19066143671 
0 0 0.19472376619 0 0 -0.62499918749 0 0 0.19462900908 
0 0 0.11146154271 0 0 -0.62499918749 0 0 0.19175754587 
0 0 0.14712984124 0 0 0.13679050303 0 0 0.19318515857 
0 0 -0.62499918749 0 0 0.17116967778 0 0 0.1223472917 
0 0 0.16542836513 0 0 0.16875402456 0 0 -0.62499918749 
0 0 0.1647124339 0 0 0.12360849254 0 0 0.1161332256 
0 0 0.14199403286 0 0 0.10938410183 0 0 0.12114767387 
0 0 0.19260857148 0 0 0.16634053399 0 0 0.17120527993 
0 0 0.12388081895 0 0 -0.62499918749 0 0 0.10723507052 
0 0 0.1246268628 0 0 0.17687446234 0 0 0.11836931831 
0 0 0.10169262411 0 0 -0.62499918749 0 0 0.18295223559 
0 0 -0.62499918749 0 0 0.10815153709 0 0 0.17647448595 
0 0 -0.62499918749 0 0 0.14544997832 0 0 0.1851994641 
0 0 -0.62499918749 0 0 0.10612471358 0 0 0.1677742242 
0 0 -0.62499918749 0 0 0.18470310664 0 0 0.17181485711 
0 0 0.11848934119 0 0 0.18009689267 0 0 0.11536503788 
0 0 0.11867137369 0 0 -0.62499918749 0 0 -0.62499918749 
0 0 -0.62499918749 0 0 -0.62499918749 0 0 -0.62499918749 
0 0 0.11089726175 0 0 -0.62499918749 0 0 0.13443371886 
0 0 0.17611512922 0 0 0.099307173654 0 0 0.18905983075 
0 0 -0.62499918749 0 0 0.22167426443 0 0 0.13385626951 
0 0 -0.62499918749 0 0 0.12302374834 0 0 0.18591485738 
0 0 0.18115919577 0 0 0.17754808518 0 0 0.17349910205 
0 0 0.1229787669 0 0 0.18039832218 0 0 0.16482718855 
0 0 0.11792723968 0 0 -0.62499918749 0 0 0.10998412425 
0 0 -0.62499918749 0 0 -0.62499918749 0 0 0.17909147004 
0 0 0.12404248066 0 0 -0.62499918749 0 0 0.16749925693 
0 0 -0.62499918749 0 0 0.062746280117 0 0 0.12943388742 
0 0 -0.62499918749 0 0 0.16970539687 0 0 -0.62499918749 
0 0 0.084712090103 0 0 -0.62499918749 0 0 0.17067585003 
0 0 0.056865929619 0 0 0.15894416274 0 0 -0.62499918749 
0 0 0.16284102016 0 0 0.083056688561 0 0 0.068251535737 
0 0 0.10512799375 0 0 0.074859110731 0 0 0.10630353119 
0 0 -0.62499918749 0 0 0.15253122914 0 0 0.099527698849 
0 0 0.091941072907 0 0 -0.62499918749 0 0 0.099548948709 
0 0 0.15914578997 0 0 0.15872799698 0 0 0.15635549807 
0 0 0.079216708203 0 0 0.18352253975 0 0 0.1510969905 
0 0 0.078937029224 0 0 0.15969997473 0 0 0.068677254613 
0 0 0.054535912348 0 0 0.15830109918 0 0 0.05033994193 
0 0 0.10799767634 0 0 0.058801372491 0 0 0.10557057675 
0 0 0.093545990619 0 0 -0.62499918749 0 0 0.076725557368 
0 0 0.088690868858 0 0 0.090300072281 0 0 0.056338264077 
0 0 0.15122746489 0 0 0.070973945253 0 0 -0.62499918749 
0 0 0.16760393011 0 0 0.1683497643 0 0 0.076445908054 
0 0 0.16925089378 0 0 0.10175222004 0 0 0.073480194288 
0 0 0.068212132816 0 0 0.094251770652 0 0 0.07871260836 
0 0 0.086861957549 0 0 0.1803619558 0 0 0.15064979497 
0 0 0.08625976435 0 0 0.090260021413 0 0 0.15883060353 
0 0 0.066500329143 0 0 0.1498429656 0 0 0.062564380452 
0 0 0.15086287469 0 0 0.14817824157 0 0 -0.62499918749 
0 0 0.16730145261 0 0 0.094509009742 0 0 0.15266806089 
0 0 0.09701681787 0 0 0.15862167665 0 0 0.15150599012 
0 0 -0.62499918749 0 0 -0.62499918749 0 0 0.1295312434 
0 0 0.13454690659 0 0 0.086639103353 0 0 0.1254961621 
0 0 0.17860737614 0 0 0.1282365145 0 0 0.14280299159 
0 0 0.13741979235 0 0 -0.62499918749 0 0 -0.62499918749 
0 0 -0.62499918749 0 0 0.12985584243 0 0 0.073704827309 
0 0 -0.4949991875 0 0 0.22094446505 0 0 0.12331609935 
0 0 -0.62499918749 0 0 0.1273542598 0 0 -0.62499918749 
0 0 0.19960758077 0 0 0.064438830138 0 0 0.11874801766 
0 0 -0.62499918749 0 0 -0.62499918749 0 0 0.07366125156 
0 0 0.1404927025 0 0 0.14267994165 0 0 0.13354556504 
0 0 0.12172085659 0 0 -0.62499918749 0 0 0.12060753033 
0 0 0.13724765944 0 0 0.071553323639 0 0 0.14907352913 
0 0 0.081400361377 0 0 0.11385637069 0 0 0.090032498223 
0 0 0.12049602514 0 0 -0.62499918749 0 0 0.099079879721 
0 0 0.10062693824 0 0 -0.62499918749 0 0 0.091453643225 
0 0 0.16391521339 0 0 0.094391393465 0 0 0.11661642495 
0 0 -0.62499918749 0 0 0.113478356 0 0 0.097718376759 
0 0 0.10383274848 0 0 0.11528661714 0 0 0.10475149073 
0 0 -0.62499918749 0 0 0.15299565003 0 0 -0.62499918749 
0 0 0.089368854464 0 0 0.087703200432 0 0 0.16727263689 
0 0 0.10477494202 0 0 0.11465620902 0 0 0.10429321721 
0 0 -0.62499918749 0 0 0.098247523635 0 0 0.10761289285 
0 0 0.095218269148 0 0 0.1155145686 0 0 0.090824078579 
0 0 0.11567311871 0 0 -0.62499918749 0 0 -0.62499918749 
0 0 0.11822354708 0 0 0.096673806034 0 0 -0.62499918749 
0 0 -0.5404991875 0 0 -0.5697491875 0 0 0.11045364258 
0 0 0.12962410604 0 0 0.11131364709 0 0 0.09276953854 
0 0 0.12031337824 0 0 0.091131885097 0 0 -0.62499918749 
0 0 -0.5047491875 0 0 -0.62499918749 0 0 0.08936460083 
0 0 -0.62499918749 0 0 -0.62499918749 0 0 -0.62499918749 
0 0 -0.62499918749 0 0 -0.62499918749 0 0 0.10008752138 
0 0 -0.5632491875 0 0 0.10343085562 0 0 0.12058075686 
0 0 -0.5404991875 0 0 -0.62499918749 0 0 -0.60549918749 
0 0 -0.61199918749 0 0 -0.62499918749 0 0 -0.62499918749 
0 0 -0.62499918749 0 0 -0.62499918749 0 0 0.1373063807 
0 0 0.12330851316 0 0 0.14982723163 0 0 -0.62499918749 
0 0 -0.62499918749 0 0 -0.62499918749 0 0 -0.62499918749 
0 0 -0.62499918749 0 0 -0.62499918749 0 0 -0.62499918749 
0 0 -0.62499918749 0 0 -0.62499918749 0 0 -0.62499918749 
0 0 -0.62499918749 0 0 -0.62499918749 0 0 -0.62499918749 
0 0 -0.62499918749 0 0 -0.4754991875 0 0 -0.62499918749 
0 0 -0.61199918749 0 0 -0.62499918749 0 0 -0.5242491875 
0 0 -0.62499918749 0 0 -0.5372491875 0 0 -0.62499918749 
0 0 -0.5014991875 0 0 -0.62499918749 0 0 -0.62499918749 
0 0 -0.62499918749 0 0 -0.5632491875 0 0 -0.62499918749 
0 0 -0.62499918749 0 0 -0.62499918749 0 0 -0.62499918749 
0 0 -0.62499918749 0 0 -0.62499918749 0 0 -0.62499918749 
0 0 -0.62499918749 0 0 -0.62499918749 0 0 -0.62499918749 
0 0 -0.62499918749 0 0 -0.62499918749 0 0 -0.62499918749 
0 0 -0.62499918749 0 0 -0.4949991875 0 0 -0.62499918749 
0 0 -0.62499918749 0 0 -0.62499918749 0 0 -0.62499918749 
0 0 -0.62499918749 0 0 -0.62499918749 0 0 -0.62499918749 
0 0 -0.62499918749 0 0 -0.5469991875 0 0 -0.62499918749 
0 0 -0.62499918749 0 0 -0.62499918749 0 0 -0.62499918749 
0 0 -0.62499918749 0 0 -0.62499918749 0 0 -0.62499918749 
0 0 -0.62499918749 0 0 -0.62499918749 0 0 -0.62499918749 
0 0 -0.4819991875 0 0 -0.62499918749 0 0 -0.62499918749 
0 0 -0.62499918749 0 0 -0.62499918749 0 0 -0.4624991875 
0 0 -0.5209991875 0 0 -0.4722491875 0 0 -0.4364991875 
0 0 -0.5339991875 0 0 -0.4852491875 0 0 -0.4364991875 
0 0 -0.4884991875 0 0 -0.5339991875 0 0 -0.5469991875 
0 0 -0.4397491875 0 0 -0.4559991875 0 0 -0.4462491875 
0 0 -0.4202491875 0 0 -0.5079991875 0 0 -0.5567491875 
0 0 -0.4494991875 0 0 -0.4819991875 0 0 -0.5469991875 
0 0 -0.4624991875 0 0 -0.4657491875 0 0 -0.5274991875 
0 0 -0.5242491875 0 0 -0.5112491875 0 0 -0.4884991875 
0 0 -0.4917491875 0 0 -0.4982491875 0 0 -0.4039991875 
0 0 -0.5567491875 0 0 -0.4494991875 0 0 -0.4559991875 
0 0 -0.4689991875 0 0 -0.4332491875 0 0 -0.4559991875 
0 0 -0.4039991875 0 0 -0.5632491875 0 0 -0.4169991875 
0 0 -0.4657491875 0 0 -0.4754991875 0 0 -0.3844991875 
0 0 -0.5567491875 0 0 -0.4982491875 0 0 -0.4852491875 
0 0 -0.4007491875 0 0 -0.4527491875 0 0 -0.5144991875 
0 0 -0.4267491875 0 0 -0.3812491875 0 0 -0.4722491875 
0 0 -0.4852491875 0 0 -0.4754991875 0 0 -0.4039991875 
0 0 -0.3942491875 0 0 -0.5079991875 0 0 -0.4169991875 
0 0 -0.4722491875 0 0 -0.4299991875 0 0 -0.4462491875 
0 0 -0.3942491875 0 0 -0.4299991875 0 0 -0.4007491875 
0 0 -0.4007491875 0 0 -0.4429991875 0 0 -0.4234991875 
0 0 -0.4039991875 0 0 -0.4787491875 0 0 -0.3974991875 
0 0 -0.3877491875 0 0 -0.5047491875 0 0 -0.4429991875 
0 0 -0.4267491875 0 0 -0.4267491875 0 0 -0.3909991875 
0 0 -0.5144991875 0 0 -0.4397491875 0 0 -0.4819991875 
0 0 -0.5047491875 0 0 -0.4982491875 0 0 -0.4462491875 
0 0 -0.4559991875 0 0 -0.4299991875 0 0 -0.4462491875 
0 0 -0.4137491875 0 0 -0.4787491875 0 0 -0.3877491875 
0 0 -0.4787491875 0 0 -0.4169991875 0 0 -0.4364991875 
0 0 -0.3844991875 0 0 -0.3942491875 0 0 -0.3974991875 
0 0 -0.3877491875 0 0 -0.3942491875 0 0 -0.4949991875 
0 0 -0.4527491875 0 0 -0.4527491875 0 0 -0.4104991875 
0 0 -0.3942491875 0 0 -0.4072491875 0 0 -0.4137491875 
0 0 -0.4592491875 0 0 -0.3942491875 0 0 -0.4202491875 
0 0 -0.3812491875 0 0 -0.3812491875 0 0 -0.4104991875 
0 0 -0.3909991875 0 0 -0.4429991875 0 0 -0.4397491875 
0 0 -0.3812491875 0 0 -0.4169991875 0 0 -0.4429991875 
0 0 -0.3974991875 0 0 -0.4169991875 0 0 -0.3942491875 
0 0 -0.3812491875 0 0 -0.3812491875 0 0 -0.3909991875 
0 0 -0.3877491875 0 0 -0.3974991875 0 0 -0.3942491875 
0 0 -0.3844991875 0 0 -0.3844991875 0 0 -0.3812491875 

f 3 648 double
0 0 -1.7425367252e-10 0 0 -1.7425367252e-10 0 0 -1.7425367252e-10 
0 0 -1.7425367252e-10 0 0 -1.7425367252e-10 0 0 -1.7425367252e-10 
0 0 -1.7425367252e-10 0 0 -1.7425367252e-10 0 0 -1.7425367252e-10 
0 0 -1.7425367252e-10 0 0 -1.7425367252e-10 0 0 -1.7425367252e-10 
0 0 -1.7425367252e-10 0 0 -1.7425367252e-10 0 0 -1.7425367252e-10 
0 0 -1.7425367252e-10 0 0 -1.7425367252e-10 0 0 -1.7425367252e-10 
0 0 -1.7425367252e-10 0 0 -1.7425367252e-10 0 0 -1.7425367252e-10 
0 0 -1.7425367252e-10 0 0 -1.7425367252e-10 0 0 -1.7425367252e-10 
0 0 -5.3297119368e-07 0 0 -1.7425367252e-10 0 0 -1.7425367252e-10 
0 0 -1.7425367252e-10 0 0 -1.7425367252e-10 0 0 -1.7425367252e-10 
0 0 -1.7425367252e-10 0 0 -1.7425367252e-10 0 0 -1.7425367252e-10 
0 0 -1.7425367252e-10 0 0 -1.7425367252e-10 0 0 -1.7425367252e-10 
0 0 -1.7425367252e-10 0 0 -1.7425367252e-10 0 0 -1.7425367252e-10 
0 0 -1.7425367252e-10 0 0 -1.7425367252e-10 0 0 -1.7425367252e-10 
0 0 -1.7425367252e-10 0 0 -1.7425367252e-10 0 0 -1.7425367252e-10 
0 0 -1.7425367252e-10 0 0 -1.7425367252e-10 0 0 -1.7425367252e-10 
0 0 -1.7425367252e-10 0 0 -1.7425367252e-10 0 0 -1.7425367252e-10 
0 0 -1.7425367252e-10 0 0 -1.7425367252e-10 0 0 -1.7425367252e-10 
0 0 -1.7425367252e-10 0 0 -1.7425367252e-10 0 0 -1.7425367252e-10 
0 0 -1.7425367252e-10 0 0 -1.7425367252e-10 0 0 -1.7425367252e-10 
0 0 -1.7425367252e-10 0 0 -1.7425367252e-10 0 0 -1.7425367252e-10 
0 0 -1.7425367252e-10 0 0 -1.7425367252e-10 0 0 -1.7425367252e-10 
0 0 -1.7425367252e-10 0 0 -1.7425367252e-10 0 0 -1.7425367252e-10 
0 0 -1.7425367252e-10 0 0 -1.7425367252e-10 0 0 -1.7425367252e-10 
0 0 -1.7425367252e-10 0 0 -1.7425367252e-10 0 0 -1.7425367252e-10 
0 0 -1.7425367252e-10 0 0 -1.7425367252e-10 0 0 -1.7425367252e-10 
0 0 -1.7425367252e-10 0 0 -1.7425367252e-10 0 0 -1.7425367252e-10 
0 0 -1.7425367252e-10 0 0 -1.7425367252e-10 0 0 -1.7425367252e-10 
0 0 -1.7425367252e-10 0 0 -1.7425367252e-10 0 0 -1.7425367252e-10 
0 0 -1.7425367252e-10 0 0 -1.7425367252e-10 0 0 -1.7425367252e-10 
0 0 -1.7425367252e-10 0 0 -1.7425367252e-10 0 0 -1.7425367252e-10 
0 0 -1.7425367252e-10 0 0 -1.7425367252e-10 0 0 -1.7425367252e-10 
0 0 -1.7425367252e-10 0 0 -1.7425367252e-10 0 0 -1.7425367252e-10 
0 0 -1.7425367252e-10 0 0 -1.7425367252e-10 0 0 -1.7425367252e-10 
0 0 -1.7425367252e-10 0 0 -1.7425367252e-10 0 0 -1.7425367252e-10 
0 0 -1.7425367252e-10 0 0 -1.7425367252e-10 0 0 -1.7425367252e-10 
0 0 -1.7425367252e-10 0 0 -1.7425367252e-10 0 0 -1.7425367252e-10 
0 0 -1.7425367252e-10 0 0 -1.7425367252e-10 0 0 -1.7425367252e-10 
0 0 -1.7425367252e-10 0 0 -1.7425367252e-10 0 0 -1.7425367252e-10 
0 0 -1.7425367252e-10 0 0 -1.7425367252e-10 0 0 -1.7425367252e-10 
0 0 -1.7425367252e-10 0 0 -1.7425367252e-10 0 0 -1.7425367252e-10 
0 0 -1.7425367252e-10 0 0 -1.7425367252e-10 0 0 -1.7425367252e-10 
0 0 -1.7425367252e-10 0 0 -1.7425367252e-10 0 0 -1.7425367252e-10 
0 0 -1.7425367252e-10 0 0 -1.7425367252e-10 0 0 -1.7425367252e-10 
0 0 -1.7425367252e-10 0 0 -1.7425367252e-10 0 0 -1.7425367252e-10 
0 0 -1.7425367252e-10 0 0 -1.7425367252e-10 0 0 -1.7425367252e-10 
0 0 -1.7425367252e-10 0 0 -1.7425367252e-10 0 0 -1.7425367252e-10 
0 0 -1.7425367252e-10 0 0 -1.7425367252e-10 0 0 -1.7425367252e-10 
0 0 -1.7425367252e-10 0 0 -1.7425367252e-10 0 0 -1.7425367252e-10 
0 0 -1.7425367252e-10 0 0 -1.7425367252e-10 0 0 -1.7425367252e-10 
0 0 -1.7425367252e-10 0 0 -1.7425367252e-10 0 0 -1.7425367252e-10 
0 0 -1.7425367252e-10 0 0 -1.7425367252e-10 0 0 -1.7425367252e-10 
0 0 -1.7425367252e-10 0 0 -1.7425367252e-10 0 0 -1.7425367252e-10 
0 0 -1.7425367252e-10 0 0 -1.7425367252e-10 0 0 -1.7425367252e-10 
0 0 -1.7425367252e-10 0 0 -1.7425367252e-10 0 0 -1.7425367252e-10 
0 0 -1.7425367252e-10 0 0 -1.7425367252e-10 0 0 -1.7425367252e-10 
0 0 -1.7425367252e-10 0 0 -1.7425367252e-10 0 0 -1.7425367252e-10 
0 0 -1.7425367252e-10 0 0 -1.7425367252e-10 0 0 -1.7425367252e-10 
0 0 -1.7425367252e-10 0 0 -1.7425367252e-10 0 0 -1.7425367252e-10 
0 0 -1.7425367252e-10 0 0 -1.7425367252e-10 0 0 -1.7425367252e-10 
0 0 -1.7425367252e-10 0 0 -1.7425367252e-10 0 0 -1.7425367252e-10 
0 0 -1.7425367252e-10 0 0 -1.7425367252e-10 0 0 -1.7425367252e-10 
0 0 -1.7425367252e-10 0 0 -1.7425367252e-10 0 0 -1.7425367252e-10 
0 0 -1.7425367252e-10 0 0 -1.7425367252e-10 0 0 -1.7425367252e-10 
0 0 -1.7425367252e-10 0 0 -1.7425367252e-10 0 0 -1.7425367252e-10 
0 0 -1.7425367252e-10 0 0 -1.7425367252e-10 0 0 -1.7425367252e-10 
0 0 -1.7425367252e-10 0 0 -1.7425367252e-10 0 0 -1.7425367252e-10 
0 0 -1.7425367252e-10 0 0 -1.7425367252e-10 0 0 -1.7425367252e-10 
0 0 -1.7425367252e-10 0 0 -1.7425367252e-10 0 0 -1.7425367252e-10 
0 0 -1.7425367252e-10 0 0 -1.7425367252e-10 0 0 -1.7425367252e-10 
0 0 -1.7425367252e-10 0 0 -1.7425367252e-10 0 0 -1.7425367252e-10 
0 0 -1.7425367252e-10 0 0 -1.7425367252e-10 0 0 -1.7425367252e-10 
0 0 -1.7425367252e-10 0 0 -1.7425367252e-10 0 0 -1.7425367252e-10 
0 0 -1.7425367252e-10 0 0 -1.7425367252e-10 0 0 -1.7425367252e-10 
0 0 -1.7425367252e-10 0 0 -1.7425367252e-10 0 0 -1.7425367252e-10 
0 0 -1.7425367252e-10 0 0 -1.7425367252e-10 0 0 -1.7425367252e-10 
0 0 -1.7425367252e-10 0 0 -1.7425367252e-10 0 0 -1.7425367252e-10 
0 0 -8.9019973083e-09 0 0 -1.7425367252e-10 0 0 -1.7425367252e-10 
0 0 -1.7425367252e-10 0 0 -1.7425367252e-10 0 0 -1.7425367252e-10 
0 0 -1.7425367252e-10 0 0 -1.7425367252e-10 0 0 -1.7425367252e-10 
0 0 -1.7425367252e-10 0 0 -1.7425367252e-10 0 0 -1.7425367252e-10 
0 0 -1.7425367252e-10 0 0 -1.7425367252e-10 0 0 -1.7425367252e-10 
0 0 -1.7425367252e-10 0 0 -1.7425367252e-10 0 0 -1.7425367252e-10 
0 0 -1.7425367252e-10 0 0 -1.7425367252e-10 0 0 -1.7425367252e-10 
0 0 -1.7425367252e-10 0 0 -1.7425367252e-10 0 0 -1.7425367252e-10 
0 0 -1.7425367252e-10 0 0 -8.9019973083e-09 0 0 -1.7425367252e-10 
0 0 -8.9019973083e-09 0 0 -1.7425367252e-10 0 0 -1.7425367252e-10 
0 0 -1.7425367252e-10 0 0 -1.7425367252e-10 0 0 -1.7425367252e-10 
0 0 -1.7425367252e-10 0 0 -1.7425367252e-10 0 0 -1.7425367252e-10 
0 0 -1.7425367252e-10 0 0 -1.7425367252e-10 0 0 -1.7425367252e-10 
0 0 -1.7425367252e-10 0 0 -1.7425367252e-10 0 0 -1.7425367252e-10 
0 0 -1.7425367252e-10 0 0 -1.7425367252e-10 0 0 -1.7425367252e-10 
0 0 -1.7425367252e-10 0 0 -1.7425367252e-10 0 0 -1.7425367252e-10 
0 0 -1.7425367252e-10 0 0 -1.7425367252e-10 0 0 -1.7425367252e-10 
0 0 -1.7425367252e-10 0 0 -1.7425367252e-10 0 0 -1.7425367252e-10 
0 0 -1.7425367252e-10 0 0 -1.7425367252e-10 0 0 -1.7425367252e-10 
0 0 -1.7425367252e-10 0 0 -1.7425367252e-10 0 0 -1.7425367252e-10 
0 0 -1.7425367252e-10 0 0 -1.7425367252e-10 0 0 -1.7425367252e-10 
0 0 -1.7425367252e-10 0 0 -1.7425367252e-10 0 0 -1.7425367252e-10 
0 0 -1.7425367252e-10 0 0 -1.7425367252e-10 0 0 -1.7425367252e-10 
0 0 -1.7425367252e-10 0 0 -1.7425367252e-10 0 0 -1.7425367252e-10 
0 0 -1.7425367252e-10 0 0 -8.9019973083e-09 0 0 -1.7425367252e-10 
0 0 -1.7425367252e-10 0 0 -1.7425367252e-10 0 0 -1.7425367252e-10 
0 0 -1.7425367252e-10 0 0 -1.7425367252e-10 0 0 -1.7425367252e-10 
0 0 -1.7425367252e-10 0 0 -1.7425367252e-10 0 0 -1.7425367252e-10 
0 0 -1.7425367252e-10 0 0 -1.7425367252e-10 0 0 -1.7425367252e-10 
0 0 -1.7425367252e-10 0 0 -1.7425367252e-10 0 0 -1.7425367252e-10 
0 0 -1.7425367252e-10 0 0 -1.7425367252e-10 0 0 -1.7425367252e-10 
0 0 -1.7425367252e-10 0 0 -1.7425367252e-10 0 0 -1.7425367252e-10 
0 0 -1.7425367252e-10 0 0 -1.7425367252e-10 0 0 -1.7425367252e-10 
0 0 -1.7425367252e-10 0 0 -1.7425367252e-10 0 0 -1.7425367252e-10 
0 0 -1.7425367252e-10 0 0 -1.7425367252e-10 0 0 -1.7425367252e-10 
0 0 -1.7425367252e-10 0 0 -1.7425367252e-10 0 0 -1.7425367252e-10 
0 0 -1.7425367252e-10 0 0 -1.7425367252e-10 0 0 -1.7425367252e-10 
0 0 -1.7425367252e-10 0 0 -1.7425367252e-10 0 0 -1.7425367252e-10 
0 0 -1.7425367252e-10 0 0 -1.7425367252e-10 0 0 -1.7425367252e-10 
0 0 -1.7425367252e-10 0 0 -1.7425367252e-10 0 0 -1.7425367252e-10 
0 0 -1.7425367252e-10 0 0 -1.7425367252e-10 0 0 -1.7425367252e-10 
0 0 -1.7425367252e-10 0 0 -1.7425367252e-10 0 0 -1.7425367252e-10 
0 0 -8.9019973083e-09 0 0 -1.7425367252e-10 0 0 -1.7425367252e-10 
0 0 -1.7425367252e-10 0 0 -1.7425367252e-10 0 0 -1.7425367252e-10 
0 0 -1.7425367252e-10 0 0 -1.7425367252e-10 0 0 -1.7425367252e-10 
0 0 -1.7425367252e-10 0 0 -6.8918688838e-08 0 0 -1.7425367252e-10 
0 0 -1.7425367252e-10 0 0 -1.7425367252e-10 0 0 -1.7425367252e-10 
0 0 -8.9019973083e-09 0 0 -1.7425367252e-10 0 0 -1.7425367252e-10 
0 0 -1.7425367252e-10 0 0 -1.7425367252e-10 0 0 -1.7425367252e-10 
0 0 -1.7425367252e-10 0 0 -1.7425367252e-10 0 0 -1.7425367252e-10 
0 0 -1.7425367252e-10 0 0 -1.7425367252e-10 0 0 -1.7425367252e-10 
0 0 -1.7425367252e-10 0 0 -1.7425367252e-10 0 0 -1.7425367252e-10 
0 0 -1.7425367252e-10 0 0 -1.7425367252e-10 0 0 -1.7425367252e-10 
0 0 -1.7425367252e-10 0 0 -1.7425367252e-10 0 0 -1.7425367252e-10 
0 0 -1.7425367252e-10 0 0 -1.7425367252e-10 0 0 -1.7425367252e-10 
0 0 -8.9019973083e-09 0 0 -1.7425367252e-10 0 0 -1.7425367252e-10 
0 0 -1.7425367252e-10 0 0 -1.7425367252e-10 0 0 -1.7425367252e-10 
0 0 -1.7425367252e-10 0 0 -1.7425367252e-10 0 0 -1.7425367252e-10 
0 0 -1.7425367252e-10 0 0 -8.9019973083e-09 0 0 -1.7425367252e-10 
0 0 -1.7425367252e-10 0 0 -1.7425367252e-10 0 0 -8.9019973083e-09 
0 0 -1.7425367252e-10 0 0 -1.7425367252e-10 0 0 -1.7425367252e-10 
0 0 -1.7425367252e-10 0 0 -1.7425367252e-10 0 0 -1.7425367252e-10 
0 0 -1.7425367252e-10 0 0 -1.7425367252e-10 0 0 -1.7425367252e-10 
0 0 -1.7425367252e-10 0 0 -1.7425367252e-10 0 0 -1.7425367252e-10 
0 0 -1.7425367252e-10 0 0 -1.7425367252e-10 0 0 -1.7425367252e-10 
0 0 -1.7425367252e-10 0 0 -1.7425367252e-10 0 0 -1.7425367252e-10 
0 0 -1.7425367252e-10 0 0 -1.7425367252e-10 0 0 -1.7425367252e-10 
0 0 -1.7425367252e-10 0 0 -1.7425367252e-10 0 0 -1.7425367252e-10 
0 0 -1.7425367252e-10 0 0 -1.7425367252e-10 0 0 -1.7425367252e-10 
0 0 -1.7425367252e-10 0 0 -1.7425367252e-10 0 0 -1.7425367252e-10 
0 0 -1.7425367252e-10 0 0 -1.7425367252e-10 0 0 -1.7425367252e-10 
0 0 -1.7425367252e-10 0 0 -8.9019973083e-09 0 0 -8.9019973083e-09 
0 0 -1.7425367252e-10 0 0 -1.7425367252e-10 0 0 -1.7425367252e-10 
0 0 -1.7425367252e-10 0 0 -1.7425367252e-10 0 0 -1.7425367252e-10 
0 0 -1.7425367252e-10 0 0 -1.7425367252e-10 0 0 -8.9019973083e-09 
0 0 -8.9019973083e-09 0 0 -8.9019973083e-09 0 0 -1.7425367252e-10 
0 0 -1.7425367252e-10 0 0 -1.7425367252e-10 0 0 -1.7425367252e-10 
0 0 -1.7425367252e-10 0 0 -1.7425367252e-10 0 0 -1.7425367252e-10 
0 0 -1.7425367252e-10 0 0 -1.7425367252e-10 0 0 -1.7425367252e-10 
0 0 -1.7425367252e-10 0 0 -1.7425367252e-10 0 0 -1.7425367252e-10 
0 0 -1.7425367252e-10 0 0 -1.7425367252e-10 0 0 -1.7425367252e-10 
0 0 -1.7425367252e-10 0 0 -1.7425367252e-10 0 0 -1.7425367252e-10 
0 0 -1.7425367252e-10 0 0 -1.7425367252e-10 0 0 -1.7425367252e-10 
0 0 -1.7425367252e-10 0 0 -1.7425367252e-10 0 0 -1.7425367252e-10 
0 0 -1.7425367252e-10 0 0 -1.7425367252e-10 0 0 -1.7425367252e-10 
0 0 -1.7425367252e-10 0 0 -1.7425367252e-10 0 0 -1.7425367252e-10 
0 0 -1.7425367252e-10 0 0 -1.7425367252e-10 0 0 -1.7425367252e-10 
0 0 -1.7425367252e-10 0 0 -1.7425367252e-10 0 0 -1.7425367252e-10 
0 0 -1.7425367252e-10 0 0 -1.7425367252e-10 0 0 -1.7425367252e-10 
0 0 -1.7425367252e-10 0 0 -1.7425367252e-10 0 0 -1.7425367252e-10 
0 0 -1.7425367252e-10 0 0 -1.7425367252e-10 0 0 -1.7425367252e-10 
0 0 -1.7425367252e-10 0 0 -1.7425367252e-10 0 0 -1.7425367252e-10 
0 0 -1.7425367252e-10 0 0 -8.9019973083e-09 0 0 -1.7425367252e-10 
0 0 -1.7425367252e-10 0 0 -1.7425367252e-10 0 0 -1.7425367252e-10 
0 0 -1.7425367252e-10 0 0 -1.7425367252e-10 0 0 -1.7425367252e-10 
0 0 -1.7425367252e-10 0 0 -1.7425367252e-10 0 0 -1.7425367252e-10 
0 0 -1.7425367252e-10 0 0 -1.7425367252e-10 0 0 -1.7425367252e-10 
0 0 -1.7425367252e-10 0 0 -1.7425367252e-10 0 0 -1.7425367252e-10 
0 0 -1.7425367252e-10 0 0 -1.7425367252e-10 0 0 -1.7425367252e-10 
0 0 -1.7425367252e-10 0 0 -1.7425367252e-10 0 0 -1.7425367252e-10 
0 0 -1.7425367252e-10 0 0 -1.7425367252e-10 0 0 -1.7425367252e-10 
0 0 -1.7425367252e-10 0 0 -1.7425367252e-10 0 0 -1.7425367252e-10 
0 0 -1.7425367252e-10 0 0 -1.7425367252e-10 0 0 -1.7425367252e-10 
0 0 -1.7425367252e-10 0 0 -1.7425367252e-10 0 0 -1.7425367252e-10 
0 0 -1.7425367252e-10 0 0 -1.7425367252e-10 0 0 -1.7425367252e-10 
0 0 -1.7425367252e-10 0 0 -1.7425367252e-10 0 0 -1.7425367252e-10 
0 0 -1.7425367252e-10 0 0 -1.7425367252e-10 0 0 -1.7425367252e-10 
0 0 -1.7425367252e-10 0 0 -1.7425367252e-10 0 0 -1.7425367252e-10 
0 0 -1.7425367252e-10 0 0 -1.7425367252e-10 0 0 -1.7425367252e-10 
0 0 -1.7425367252e-10 0 0 -1.7425367252e-10 0 0 -1.7425367252e-10 
0 0 -1.7425367252e-10 0 0 -1.7425367252e-10 0 0 -1.7425367252e-10 
0 0 -8.9019973083e-09 0 0 -1.7425367252e-10 0 0 -1.7425367252e-10 
0 0 -1.7425367252e-10 0 0 -1.7425367252e-10 0 0 -1.7425367252e-10 
0 0 -1.7425367252e-10 0 0 -1.7425367252e-10 0 0 -1.7425367252e-10 
0 0 -1.7425367252e-10 0 0 -1.7425367252e-10 0 0 -1.7425367252e-10 
0 0 -1.7425367252e-10 0 0 -1.7425367252e-10 0 0 -1.7425367252e-10 
0 0 -1.7425367252e-10 0 0 -1.7425367252e-10 0 0 -1.7425367252e-10 
0 0 -1.7425367252e-10 0 0 -1.7425367252e-10 0 0 -1.7425367252e-10 
0 0 -1.7425367252e-10 0 0 -1.7425367252e-10 0 0 -1.7425367252e-10 
0 0 -1.7425367252e-10 0 0 -1.7425367252e-10 0 0 -1.7425367252e-10 
0 0 -1.7425367252e-10 0 0 -1.7425367252e-10 0 0 -1.7425367252e-10 
0 0 -1.7425367252e-10 0 0 -1.7425367252e-10 0 0 -1.7425367252e-10 
0 0 -1.7425367252e-10 0 0 -1.7425367252e-10 0 0 -1.7425367252e-10 
0 0 -1.7425367252e-10 0 0 -1.7425367252e-10 0 0 -1.7425367252e-10 
0 0 -1.7425367252e-10 0 0 -1.7425367252e-10 0 0 -1.7425367252e-10 
0 0 -1.7425367252e-10 0 0 -1.7425367252e-10 0 0 -1.7425367252e-10 
0 0 -1.7425367252e-10 0 0 -1.7425367252e-10 0 0 -1.7425367252e-10 
0 0 -1.7425367252e-10 0 0 -1.7425367252e-10 0 0 -1.7425367252e-10 
0 0 -8.9019973083e-09 0 0 -1.7425367252e-10 0 0 -1.7425367252e-10 
0 0 -1.7425367252e-10 0 0 -1.7425367252e-10 0 0 -1.7425367252e-10 
0 0 -1.7425367252e-10 0 0 -1.7425367252e-10 0 0 -1.7425367252e-10 
0 0 -1.7425367252e-10 0 0 -1.7425367252e-10 0 0 -1.7425367252e-10 
0 0 -1.7425367252e-10 0 0 -1.7425367252e-10 0 0 -1.7425367252e-10 
0 0 -1.7425367252e-10 0 0 -1.7425367252e-10 0 0 -1.7425367252e-10 
0 0 -1.7425367252e-10 0 0 -1.7425367252e-10 0 0 -1.7425367252e-10 
0 0 -1.7425367252e-10 0 0 -1.7425367252e-10 0 0 -1.7425367252e-10 
0 0 -1.7425367252e-10 0 0 -1.7425367252e-10 0 0 -1.7425367252e-10 
0 0 -1.7425367252e-10 0 0 -1.7425367252e-10 0 0 -1.7425367252e-10 
0 0 -1.7425367252e-10 0 0 -1.7425367252e-10 0 0 -1.7425367252e-10 

radius 1 648 double
2e-05 2e-05 2e-05 2e-05 2e-05 2e-05 2e-05 2e-05 2e-05 
2e-05 2e-05 2e-05 2e-05 2e-05 2e-05 2e-05 2e-05 2e-05 
2e-05 2e-05 2e-05 2e-05 2e-05 2e-05 0.0003 2e-05 2e-05 
2e-05 2e-05 2e-05 2e-05 2e-05 2e-05 2e-05 2e-05 2e-05 
2e-05 2e-05 2e-05 2e-05 2e-05 2e-05 2e-05 2e-05 2e-05 
2e-05 2e-05 2e-05 2e-05 2e-05 2e-05 2e-05 2e-05 2e-05 
2e-05 2e-05 2e-05 2e-05 2e-05 2e-05 2e-05 2e-05 2e-05 
2e-05 2e-05 2e-05 2e-05 2e-05 2e-05 2e-05 2e-05 2e-05 
2e-05 2e-05 2e-05 2e-05 2e-05 2e-05 2e-05 2e-05 2e-05 
2e-05 2e-05 2e-05 2e-05 2e-05 2e-05 2e-05 2e-05 2e-05 
2e-05 2e-05 2e-05 2e-05 2e-05 2e-05 2e-05 2e-05 2e-05 
2e-05 2e-05 2e-05 2e-05 2e-05 2e-05 2e-05 2e-05 2e-05 
2e-05 2e-05 2e-05 2e-05 2e-05 2e-05 2e-05 2e-05 2e-05 
2e-05 2e-05 2e-05 2e-05 2e-05 2e-05 2e-05 2e-05 2e-05 
2e-05 2e-05 2e-05 2e-05 2e-05 2e-05 2e-05 2e-05 2e-05 
2e-05 2e-05 2e-05 2e-05 2e-05 2e-05 2e-05 2e-05 2e-05 
2e-05 2e-05 2e-05 2e-05 2e-05 2e-05 2e-05 2e-05 2e-05 
2e-05 2e-05 2e-05 2e-05 2e-05 2e-05 2e-05 2e-05 2e-05 
2e-05 2e-05 2e-05 2e-05 2e-05 2e-05 2e-05 2e-05 2e-05 
2e-05 2e-05 2e-05 2e-05 2e-05 2e-05 2e-05 2e-05 2e-05 
2e-05 2e-05 2e-05 2e-05 2e-05 2e-05 2e-05 2e-05 2e-05 
2e-05 2e-05 2e-05 2e-05 2e-05 2e-05 2e-05 2e-05 2e-05 
2e-05 2e-05 2e-05 2e-05 2e-05 2e-05 2e-05 2e-05 2e-05 
2e-05 2e-05 2e-05 2e-05 2e-05 2e-05 2e-05 2e-05 2e-05 
2e-05 2e-05 2e-05 2e-05 2e-05 2e-05 2e-05 2e-05 2e-05 
2e-05 2e-05 2e-05 2e-05 2e-05 2e-05 7.5e-05 2e-05 2e-05 
2e-05 2e-05 2e-05 2e-05 2e-05 2e-05 2e-05 2e-05 2e-05 
2e-05 2e-05 2e-05 2e-05 2e-05 2e-05 2e-05 2e-05 2e-05 
2e-05 2e-05 2e-05 2e-05 7.5e-05 2e-05 7.5e-05 2e-05 2e-05 
2e-05 2e-05 2e-05 2e-05 2e-05 2e-05 2e-05 2e-05 2e-05 
2e-05 2e-05 2e-05 2e-05 2e-05 2e-05 2e-05 2e-05 2e-05 
2e-05 2e-05 2e-05 2e-05 2e-05 2e-05 2e-05 2e-05 2e-05 
2e-05 2e-05 2e-05 2e-05 2e-05 2e-05 2e-05 2e-05 2e-05 
2e-05 2e-05 2e-05 2e-05 2e-05 2e-05 2e-05 7.5e-05 2e-05 
2e-05 2e-05 2e-05 2e-05 2e-05 2e-05 2e-05 2e-05 2e-05 
2e-05 2e-05 2e-05 2e-05 2e-05 2e-05 2e-05 2e-05 2e-05 
2e-05 2e-05 2e-05 2e-05 2e-05 2e-05 2e-05 2e-05 2e-05 
2e-05 2e-05 2e-05 2e-05 2e-05 2e-05 2e-05 2e-05 2e-05 
2e-05 2e-05 2e-05 2e-05 2e-05 2e-05 2e-05 2e-05 2e-05 
2e-05 2e-05 2e-05 2e-05 2e-05 2e-05 7.5e-05 2e-05 2e-05 
2e-05 2e-05 2e-05 2e-05 2e-05 2e-05 2e-05 0.00015 2e-05 
2e-05 2e-05 2e-05 7.5e-05 2e-05 2e-05 2e-05 2e-05 2e-05 
2e-05 2e-05 2e-05 2e-05 2e-05 2e-05 2e-05 2e-05 2e-05 
2e-05 2e-05 2e-05 2e-05 2e-05 2e-05 2e-05 2e-05 2e-05 
7.5e-05 2e-05 2e-05 2e-05 2e-05 2e-05 2e-05 2e-05 2e-05 
2e-05 7.5e-05 2e-05 2e-05 2e-05 7.5e-05 2e-05 2e-05 2e-05 
2e-05 2e-05 2e-05 2e-05 2e-05 2e-05 2e-05 2e-05 2e-05 
2e-05 2e-05 2e-05 2e-05 2e-05 2e-05 2e-05 2e-05 2e-05 
2e-05 2e-05 2e-05 2e-05 2e-05 2e-05 2e-05 2e-05 2e-05 
2e-05 2e-05 2e-05 2e-05 7.5e-05 7.5e-05 2e-05 2e-05 2e-05 
2e-05 2e-05 2e-05 2e-05 2e-05 7.5e-05 7.5e-05 7.5e-05 2e-05 
2e-05 2e-05 2e-05 2e-05 2e-05 2e-05 2e-05 2e-05 2e-05 
2e-05 2e-05 2e-05 2e-05 2e-05 2e-05 2e-05 2e-05 2e-05 
2e-05 2e-05 2e-05 2e-05 2e-05 2e-05 2e-05 2e-05 2e-05 
2e-05 2e-05 2e-05 2e-05 2e-05 2e-05 2e-05 2e-05 2e-05 
2e-05 2e-05 2e-05 2e-05 2e-05 2e-05 2e-05 2e-05 2e-05 
2e-05 2e-05 2e-05 2e-05 7.5e-05 2e-05 2e-05 2e-05 2e-05 
2e-05 2e-05 2e-05 2e-05 2e-05 2e-05 2e-05 2e-05 2e-05 
2e-05 2e-05 2e-05 2e-05 2e-05 2e-05 2e-05 2e-05 2e-05 
2e-05 2e-05 2e-05 2e-05 2e-05 2e-05 2e-05 2e-05 2e-05 
2e-05 2e-05 2e-05 2e-05 2e-05 2e-05 2e-05 2e-05 2e-05 
2e-05 2e-05 2e-05 2e-05 2e-05 2e-05 2e-05 2e-05 2e-05 
2e-05 2e-05 2e-05 2e-05 2e-05 2e-05 7.5e-05 2e-05 2e-05 
2e-05 2e-05 2e-05 2e-05 2e-05 2e-05 2e-05 2e-05 2e-05 
2e-05 2e-05 2e-05 2e-05 2e-05 2e-05 2e-05 2e-05 2e-05 
2e-05 2e-05 2e-05 2e-05 2e-05 2e-05 2e-05 2e-05 2e-05 
2e-05 2e-05 2e-05 2e-05 2e-05 2e-05 2e-05 2e-05 2e-05 
2e-05 2e-05 2e-05 2e-05 2e-05 2e-05 2e-05 2e-05 2e-05 
2e-05 2e-05 2e-05 7.5e-05 2e-05 2e-05 2e-05 2e-05 2e-05 
2e-05 2e-05 2e-05 2e-05 2e-05 2e-05 2e-05 2e-05 2e-05 
2e-05 2e-05 2e-05 2e-05 2e-05 2e-05 2e-05 2e-05 2e-05 
2e-05 2e-05 2e-05 2e-05 2e-05 2e-05 2e-05 2e-05 2e-05 

omega 3 648 double
0 0 0 0 0 0 0 0 0 
0 0 0 0 0 0 0 0 0 
0 0 0 0 0 0 0 0 0 
0 0 0 0 0 0 0 0 0 
0 0 0 0 0 0 0 0 0 
0 0 0 0 0 0 0 0 0 
0 0 0 0 0 0 0 0 0 
0 0 0 0 0 0 0 0 0 
0 0 0 0 0 0 0 0 0 
0 0 0 0 0 0 0 0 0 
0 0 0 0 0 0 0 0 0 
0 0 0 0 0 0 0 0 0 
0 0 0 0 0 0 0 0 0 
0 0 0 0 0 0 0 0 0 
0 0 0 0 0 0 0 0 0 
0 0 0 0 0 0 0 0 0 
0 0 0 0 0 0 0 0 0 
0 0 0 0 0 0 0 0 0 
0 0 0 0 0 0 0 0 0 
0 0 0 0 0 0 0 0 0 
0 0 0 0 0 0 0 0 0 
0 0 0 0 0 0 0 0 0 
0 0 0 0 0 0 0 0 0 
0 0 0 0 0 0 0 0 0 
0 0 0 0 0 0 0 0 0 
0 0 0 0 0 0 0 0 0 
0 0 0 0 0 0 0 0 0 
0 0 0 0 0 0 0 0 0 
0 0 0 0 0 0 0 0 0 
0 0 0 0 0 0 0 0 0 
0 0 0 0 0 0 0 0 0 
0 0 0 0 0 0 0 0 0 
0 0 0 0 0 0 0 0 0 
0 0 0 0 0 0 0 0 0 
0 0 0 0 0 0 0 0 0 
0 0 0 0 0 0 0 0 0 
0 0 0 0 0 0 0 0 0 
0 0 0 0 0 0 0 0 0 
0 0 0 0 0 0 0 0 0 
0 0 0 0 0 0 0 0 0 
0 0 0 0 0 0 0 0 0 
0 0 0 0 0 0 0 0 0 
0 0 0 0 0 0 0 0 0 
0 0 0 0 0 0 0 0 0 
0 0 0 0 0 0 0 0 0 
0 0 0 0 0 0 0 0 0 
0 0 0 0 0 0 0 0 0 
0 0 0 0 0 0 0 0 0 
0 0 0 0 0 0 0 0 0 
0 0 0 0 0 0 0 0 0 
0 0 0 0 0 0 0 0 0 
0 0 0 0 0 0 0 0 0 
0 0 0 0 0 0 0 0 0 
0 0 0 0 0 0 0 0 0 
0 0 0 0 0 0 0 0 0 
0 0 0 0 0 0 0 0 0 
0 0 0 0 0 0 0 0 0 
0 0 0 0 0 0 0 0 0 
0 0 0 0 0 0 0 0 0 
0 0 0 0 0 0 0 0 0 
0 0 0 0 0 0 0 0 0 
0 0 0 0 0 0 0 0 0 
0 0 0 0 0 0 0 0 0 
0 0 0 0 0 0 0 0 0 
0 0 0 0 0 0 0 0 0 
0 0 0 0 0 0 0 0 0 
0 0 0 0 0 0 0 0 0 
0 0 0 0 0 0 0 0 0 
0 0 0 0 0 0 0 0 0 
0 0 0 0 0 0 0 0 0 
0 0 0 0 0 0 0 0 0 
0 0 0 0 0 0 0 0 0 
0 0 0 0 0 0 0 0 0 
0 0 0 0 0 0 0 0 0 
0 0 0 0 0 0 0 0 0 
0 0 0 0 0 0 0 0 0 
0 0 0 0 0 0 0 0 0 
0 0 0 0 0 0 0 0 0 
0 0 0 0 0 0 0 0 0 
0 0 0 0 0 0 0 0 0 
0 0 0 0 0 0 0 0 0 
0 0 0 0 0 0 0 0 0 
0 0 0 0 0 0 0 0 0 
0 0 0 0 0 0 0 0 0 
0 0 0 0 0 0 0 0 0 
0 0 0 0 0 0 0 0 0 
0 0 0 0 0 0 0 0 0 
0 0 0 0 0 0 0 0 0 
0 0 0 0 0 0 0 0 0 
0 0 0 0 0 0 0 0 0 
0 0 0 0 0 0 0 0 0 
0 0 0 0 0 0 0 0 0 
0 0 0 0 0 0 0 0 0 
0 0 0 0 0 0 0 0 0 
0 0 0 0 0 0 0 0 0 
0 0 0 0 0 0 0 0 0 
0 0 0 0 0 0 0 0 0 
0 0 0 0 0 0 0 0 0 
0 0 0 0 0 0 0 0 0 
0 0 0 0 0 0 0 0 0 
0 0 0 0 0 0 0 0 0 
0 0 0 0 0 0 0 0 0 
0 0 0 0 0 0 0 0 0 
0 0 0 0 0 0 0 0 0 
0 0 0 0 0 0 0 0 0 
0 0 0 0 0 0 0 0 0 
0 0 0 0 0 0 0 0 0 
0 0 0 0 0 0 0 0 0 
0 0 0 0 0 0 0 0 0 
0 0 0 0 0 0 0 0 0 
0 0 0 0 0 0 0 0 0 
0 0 0 0 0 0 0 0 0 
0 0 0 0 0 0 0 0 0 
0 0 0 0 0 0 0 0 0 
0 0 0 0 0 0 0 0 0 
0 0 0 0 0 0 0 0 0 
0 0 0 0 0 0 0 0 0 
0 0 0 0 0 0 0 0 0 
0 0 0 0 0 0 0 0 0 
0 0 0 0 0 0 0 0 0 
0 0 0 0 0 0 0 0 0 
0 0 0 0 0 0 0 0 0 
0 0 0 0 0 0 0 0 0 
0 0 0 0 0 0 0 0 0 
0 0 0 0 0 0 0 0 0 
0 0 0 0 0 0 0 0 0 
0 0 0 0 0 0 0 0 0 
0 0 0 0 0 0 0 0 0 
0 0 0 0 0 0 0 0 0 
0 0 0 0 0 0 0 0 0 
0 0 0 0 0 0 0 0 0 
0 0 0 0 0 0 0 0 0 
0 0 0 0 0 0 0 0 0 
0 0 0 0 0 0 0 0 0 
0 0 0 0 0 0 0 0 0 
0 0 0 0 0 0 0 0 0 
0 0 0 0 0 0 0 0 0 
0 0 0 0 0 0 0 0 0 
0 0 0 0 0 0 0 0 0 
0 0 0 0 0 0 0 0 0 
0 0 0 0 0 0 0 0 0 
0 0 0 0 0 0 0 0 0 
0 0 0 0 0 0 0 0 0 
0 0 0 0 0 0 0 0 0 
0 0 0 0 0 0 0 0 0 
0 0 0 0 0 0 0 0 0 
0 0 0 0 0 0 0 0 0 
0 0 0 0 0 0 0 0 0 
0 0 0 0 0 0 0 0 0 
0 0 0 0 0 0 0 0 0 
0 0 0 0 0 0 0 0 0 
0 0 0 0 0 0 0 0 0 
0 0 0 0 0 0 0 0 0 
0 0 0 0 0 0 0 0 0 
0 0 0 0 0 0 0 0 0 
0 0 0 0 0 0 0 0 0 
0 0 0 0 0 0 0 0 0 
0 0 0 0 0 0 0 0 0 
0 0 0 0 0 0 0 0 0 
0 0 0 0 0 0 0 0 0 
0 0 0 0 0 0 0 0 0 
0 0 0 0 0 0 0 0 0 
0 0 0 0 0 0 0 0 0 
0 0 0 0 0 0 0 0 0 
0 0 0 0 0 0 0 0 0 
0 0 0 0 0 0 0 0 0 
0 0 0 0 0 0 0 0 0 
0 0 0 0 0 0 0 0 0 
0 0 0 0 0 0 0 0 0 
0 0 0 0 0 0 0 0 0 
0 0 0 0 0 0 0 0 0 
0 0 0 0 0 0 0 0 0 
0 0 0 0 0 0 0 0 0 
0 0 0 0 0 0 0 0 0 
0 0 0 0 0 0 0 0 0 
0 0 0 0 0 0 0 0 0 
0 0 0 0 0 0 0 0 0 
0 0 0 0 0 0 0 0 0 
0 0 0 0 0 0 0 0 0 
0 0 0 0 0 0 0 0 0 
0 0 0 0 0 0 0 0 0 
0 0 0 0 0 0 0 0 0 
0 0 0 0 0 0 0 0 0 
0 0 0 0 0 0 0 0 0 
0 0 0 0 0 0 0 0 0 
0 0 0 0 0 0 0 0 0 
0 0 0 0 0 0 0 0 0 
0 0 0 0 0 0 0 0 0 
0 0 0 0 0 0 0 0 0 
0 0 0 0 0 0 0 0 0 
0 0 0 0 0 0 0 0 0 
0 0 0 0 0 0 0 0 0 
0 0 0 0 0 0 0 0 0 
0 0 0 0 0 0 0 0 0 
0 0 0 0 0 0 0 0 0 
0 0 0 0 0 0 0 0 0 
0 0 0 0 0 0 0 0 0 
0 0 0 0 0 0 0 0 0 
0 0 0 0 0 0 0 0 0 
0 0 0 0 0 0 0 0 0 
0 0 0 0 0 0 0 0 0 
0 0 0 0 0 0 0 0 0 
0 0 0 0 0 0 0 0 0 
0 0 0 0 0 0 0 0 0 
0 0 0 0 0 0 0 0 0 
0 0 0 0 0 0 0 0 0 
0 0 0 0 0 0 0 0 0 
0 0 0 0 0 0 0 0 0 
0 0 0 0 0 0 0 0 0 
0 0 0 0 0 0 0 0 0 
0 0 0 0 0 0 0 0 0 
0 0 0 0 0 0 0 0 0 
0 0 0 0 0 0 0 0 0 
0 0 0 0 0 0 0 0 0 
0 0 0 0 0 0 0 0 0 
0 0 0 0 0 0 0 0 0 

fx_mag_viz 1 648 double
0 0 0 0 0 0 0 0 0 
0 0 0 0 0 0 0 0 0 
0 0 0 0 0 0 0 0 0 
0 0 0 0 0 0 0 0 0 
0 0 0 0 0 0 0 0 0 
0 0 0 0 0 0 0 0 0 
0 0 0 0 0 0 0 0 0 
0 0 0 0 0 0 0 0 0 
0 0 0 0 0 0 0 0 0 
0 0 0 0 0 0 0 0 0 
0 0 0 0 0 0 0 0 0 
0 0 0 0 0 0 0 0 0 
0 0 0 0 0 0 0 0 0 
0 0 0 0 0 0 0 0 0 
0 0 0 0 0 0 0 0 0 
0 0 0 0 0 0 0 0 0 
0 0 0 0 0 0 0 0 0 
0 0 0 0 0 0 0 0 0 
0 0 0 0 0 0 0 0 0 
0 0 0 0 0 0 0 0 0 
0 0 0 0 0 0 0 0 0 
0 0 0 0 0 0 0 0 0 
0 0 0 0 0 0 0 0 0 
0 0 0 0 0 0 0 0 0 
0 0 0 0 0 0 0 0 0 
0 0 0 0 0 0 0 0 0 
0 0 0 0 0 0 0 0 0 
0 0 0 0 0 0 0 0 0 
0 0 0 0 0 0 0 0 0 
0 0 0 0 0 0 0 0 0 
0 0 0 0 0 0 0 0 0 
0 0 0 0 0 0 0 0 0 
0 0 0 0 0 0 0 0 0 
0 0 0 0 0 0 0 0 0 
0 0 0 0 0 0 0 0 0 
0 0 0 0 0 0 0 0 0 
0 0 0 0 0 0 0 0 0 
0 0 0 0 0 0 0 0 0 
0 0 0 0 0 0 0 0 0 
0 0 0 0 0 0 0 0 0 
0 0 0 0 0 0 0 0 0 
0 0 0 0 0 0 0 0 0 
0 0 0 0 0 0 0 0 0 
0 0 0 0 0 0 0 0 0 
0 0 0 0 0 0 0 0 0 
0 0 0 0 0 0 0 0 0 
0 0 0 0 0 0 0 0 0 
0 0 0 0 0 0 0 0 0 
0 0 0 0 0 0 0 0 0 
0 0 0 0 0 0 0 0 0 
0 0 0 0 0 0 0 0 0 
0 0 0 0 0 0 0 0 0 
0 0 0 0 0 0 0 0 0 
0 0 0 0 0 0 0 0 0 
0 0 0 0 0 0 0 0 0 
0 0 0 0 0 0 0 0 0 
0 0 0 0 0 0 0 0 0 
0 0 0 0 0 0 0 0 0 
0 0 0 0 0 0 0 0 0 
0 0 0 0 0 0 0 0 0 
0 0 0 0 0 0 0 0 0 
0 0 0 0 0 0 0 0 0 
0 0 0 0 0 0 0 0 0 
0 0 0 0 0 0 0 0 0 
0 0 0 0 0 0 0 0 0 
0 0 0 0 0 0 0 0 0 
0 0 0 0 0 0 0 0 0 
0 0 0 0 0 0 0 0 0 
0 0 0 0 0 0 0 0 0 
0 0 0 0 0 0 0 0 0 
0 0 0 0 0 0 0 0 0 
0 0 0 0 0 0 0 0 0 

fy_mag_viz 1 648 double
0 0 0 0 0 0 0 0 0 
0 0 0 0 0 0 0 0 0 
0 0 0 0 0 0 0 0 0 
0 0 0 0 0 0 0 0 0 
0 0 0 0 0 0 0 0 0 
0 0 0 0 0 0 0 0 0 
0 0 0 0 0 0 0 0 0 
0 0 0 0 0 0 0 0 0 
0 0 0 0 0 0 0 0 0 
0 0 0 0 0 0 0 0 0 
0 0 0 0 0 0 0 0 0 
0 0 0 0 0 0 0 0 0 
0 0 0 0 0 0 0 0 0 
0 0 0 0 0 0 0 0 0 
0 0 0 0 0 0 0 0 0 
0 0 0 0 0 0 0 0 0 
0 0 0 0 0 0 0 0 0 
0 0 0 0 0 0 0 0 0 
0 0 0 0 0 0 0 0 0 
0 0 0 0 0 0 0 0 0 
0 0 0 0 0 0 0 0 0 
0 0 0 0 0 0 0 0 0 
0 0 0 0 0 0 0 0 0 
0 0 0 0 0 0 0 0 0 
0 0 0 0 0 0 0 0 0 
0 0 0 0 0 0 0 0 0 
0 0 0 0 0 0 0 0 0 
0 0 0 0 0 0 0 0 0 
0 0 0 0 0 0 0 0 0 
0 0 0 0 0 0 0 0 0 
0 0 0 0 0 0 0 0 0 
0 0 0 0 0 0 0 0 0 
0 0 0 0 0 0 0 0 0 
0 0 0 0 0 0 0 0 0 
0 0 0 0 0 0 0 0 0 
0 0 0 0 0 0 0 0 0 
0 0 0 0 0 0 0 0 0 
0 0 0 0 0 0 0 0 0 
0 0 0 0 0 0 0 0 0 
0 0 0 0 0 0 0 0 0 
0 0 0 0 0 0 0 0 0 
0 0 0 0 0 0 0 0 0 
0 0 0 0 0 0 0 0 0 
0 0 0 0 0 0 0 0 0 
0 0 0 0 0 0 0 0 0 
0 0 0 0 0 0 0 0 0 
0 0 0 0 0 0 0 0 0 
0 0 0 0 0 0 0 0 0 
0 0 0 0 0 0 0 0 0 
0 0 0 0 0 0 0 0 0 
0 0 0 0 0 0 0 0 0 
0 0 0 0 0 0 0 0 0 
0 0 0 0 0 0 0 0 0 
0 0 0 0 0 0 0 0 0 
0 0 0 0 0 0 0 0 0 
0 0 0 0 0 0 0 0 0 
0 0 0 0 0 0 0 0 0 
0 0 0 0 0 0 0 0 0 
0 0 0 0 0 0 0 0 0 
0 0 0 0 0 0 0 0 0 
0 0 0 0 0 0 0 0 0 
0 0 0 0 0 0 0 0 0 
0 0 0 0 0 0 0 0 0 
0 0 0 0 0 0 0 0 0 
0 0 0 0 0 0 0 0 0 
0 0 0 0 0 0 0 0 0 
0 0 0 0 0 0 0 0 0 
0 0 0 0 0 0 0 0 0 
0 0 0 0 0 0 0 0 0 
0 0 0 0 0 0 0 0 0 
0 0 0 0 0 0 0 0 0 
0 0 0 0 0 0 0 0 0 

fz_mag_viz 1 648 double
0 0 0 0 0 0 0 0 0 
0 0 0 0 0 0 0 0 0 
0 0 0 0 0 0 0 0 0 
0 0 0 0 0 0 0 0 0 
0 0 0 0 0 0 0 0 0 
0 0 0 0 0 0 0 0 0 
0 0 0 0 0 0 0 0 0 
0 0 0 0 0 0 0 0 0 
0 0 0 0 0 0 0 0 0 
0 0 0 0 0 0 0 0 0 
0 0 0 0 0 0 0 0 0 
0 0 0 0 0 0 0 0 0 
0 0 0 0 0 0 0 0 0 
0 0 0 0 0 0 0 0 0 
0 0 0 0 0 0 0 0 0 
0 0 0 0 0 0 0 0 0 
0 0 0 0 0 0 0 0 0 
0 0 0 0 0 0 0 0 0 
0 0 0 0 0 0 0 0 0 
0 0 0 0 0 0 0 0 0 
0 0 0 0 0 0 0 0 0 
0 0 0 0 0 0 0 0 0 
0 0 0 0 0 0 0 0 0 
0 0 0 0 0 0 0 0 0 
0 0 0 0 0 0 0 0 0 
0 0 0 0 0 0 0 0 0 
0 0 0 0 0 0 0 0 0 
0 0 0 0 0 0 0 0 0 
0 0 0 0 0 0 0 0 0 
0 0 0 0 0 0 0 0 0 
0 0 0 0 0 0 0 0 0 
0 0 0 0 0 0 0 0 0 
0 0 0 0 0 0 0 0 0 
0 0 0 0 0 0 0 0 0 
0 0 0 0 0 0 0 0 0 
0 0 0 0 0 0 0 0 0 
0 0 0 0 0 0 0 0 0 
0 0 0 0 0 0 0 0 0 
0 0 0 0 0 0 0 0 0 
0 0 0 0 0 0 0 0 0 
0 0 0 0 0 0 0 0 0 
0 0 0 0 0 0 0 0 0 
0 0 0 0 0 0 0 0 0 
0 0 0 0 0 0 0 0 0 
0 0 0 0 0 0 0 0 0 
0 0 0 0 0 0 0 0 0 
0 0 0 0 0 0 0 0 0 
0 0 0 0 0 0 0 0 0 
0 0 0 0 0 0 0 0 0 
0 0 0 0 0 0 0 0 0 
0 0 0 0 0 0 0 0 0 
0 0 0 0 0 0 0 0 0 
0 0 0 0 0 0 0 0 0 
0 0 0 0 0 0 0 0 0 
0 0 0 0 0 0 0 0 0 
0 0 0 0 0 0 0 0 0 
0 0 0 0 0 0 0 0 0 
0 0 0 0 0 0 0 0 0 
0 0 0 0 0 0 0 0 0 
0 0 0 0 0 0 0 0 0 
0 0 0 0 0 0 0 0 0 
0 0 0 0 0 0 0 0 0 
0 0 0 0 0 0 0 0 0 
0 0 0 0 0 0 0 0 0 
0 0 0 0 0 0 0 0 0 
0 0 0 0 0 0 0 0 0 
0 0 0 0 0 0 0 0 0 
0 0 0 0 0 0 0 0 0 
0 0 0 0 0 0 0 0 0 
0 0 0 0 0 0 0 0 0 
0 0 0 0 0 0 0 0 0 
0 0 0 0 0 0 0 0 0 

B_magnitude 1 648 double
0 0 0 0 0 0 0 0 0 
0 0 0 0 0 0 0 0 0 
0 0 0 0 0 0 0 0 0 
0 0 0 0 0 0 0 0 0 
0 0 0 0 0 0 0 0 0 
0 0 0 0 0 0 0 0 0 
0 0 0 0 0 0 0 0 0 
0 0 0 0 0 0 0 0 0 
0 0 0 0 0 0 0 0 0 
0 0 0 0 0 0 0 0 0 
0 0 0 0 0 0 0 0 0 
0 0 0 0 0 0 0 0 0 
0 0 0 0 0 0 0 0 0 
0 0 0 0 0 0 0 0 0 
0 0 0 0 0 0 0 0 0 
0 0 0 0 0 0 0 0 0 
0 0 0 0 0 0 0 0 0 
0 0 0 0 0 0 0 0 0 
0 0 0 0 0 0 0 0 0 
0 0 0 0 0 0 0 0 0 
0 0 0 0 0 0 0 0 0 
0 0 0 0 0 0 0 0 0 
0 0 0 0 0 0 0 0 0 
0 0 0 0 0 0 0 0 0 
0 0 0 0 0 0 0 0 0 
0 0 0 0 0 0 0 0 0 
0 0 0 0 0 0 0 0 0 
0 0 0 0 0 0 0 0 0 
0 0 0 0 0 0 0 0 0 
0 0 0 0 0 0 0 0 0 
0 0 0 0 0 0 0 0 0 
0 0 0 0 0 0 0 0 0 
0 0 0 0 0 0 0 0 0 
0 0 0 0 0 0 0 0 0 
0 0 0 0 0 0 0 0 0 
0 0 0 0 0 0 0 0 0 
0 0 0 0 0 0 0 0 0 
0 0 0 0 0 0 0 0 0 
0 0 0 0 0 0 0 0 0 
0 0 0 0 0 0 0 0 0 
0 0 0 0 0 0 0 0 0 
0 0 0 0 0 0 0 0 0 
0 0 0 0 0 0 0 0 0 
0 0 0 0 0 0 0 0 0 
0 0 0 0 0 0 0 0 0 
0 0 0 0 0 0 0 0 0 
0 0 0 0 0 0 0 0 0 
0 0 0 0 0 0 0 0 0 
0 0 0 0 0 0 0 0 0 
0 0 0 0 0 0 0 0 0 
0 0 0 0 0 0 0 0 0 
0 0 0 0 0 0 0 0 0 
0 0 0 0 0 0 0 0 0 
0 0 0 0 0 0 0 0 0 
0 0 0 0 0 0 0 0 0 
0 0 0 0 0 0 0 0 0 
0 0 0 0 0 0 0 0 0 
0 0 0 0 0 0 0 0 0 
0 0 0 0 0 0 0 0 0 
0 0 0 0 0 0 0 0 0 
0 0 0 0 0 0 0 0 0 
0 0 0 0 0 0 0 0 0 
0 0 0 0 0 0 0 0 0 
0 0 0 0 0 0 0 0 0 
0 0 0 0 0 0 0 0 0 
0 0 0 0 0 0 0 0 0 
0 0 0 0 0 0 0 0 0 
0 0 0 0 0 0 0 0 0 
0 0 0 0 0 0 0 0 0 
0 0 0 0 0 0 0 0 0 
0 0 0 0 0 0 0 0 0 
0 0 0 0 0 0 0 0 0 

B_gradient_mag 1 648 double
0 0 0 0 0 0 0 0 0 
0 0 0 0 0 0 0 0 0 
0 0 0 0 0 0 0 0 0 
0 0 0 0 0 0 0 0 0 
0 0 0 0 0 0 0 0 0 
0 0 0 0 0 0 0 0 0 
0 0 0 0 0 0 0 0 0 
0 0 0 0 0 0 0 0 0 
0 0 0 0 0 0 0 0 0 
0 0 0 0 0 0 0 0 0 
0 0 0 0 0 0 0 0 0 
0 0 0 0 0 0 0 0 0 
0 0 0 0 0 0 0 0 0 
0 0 0 0 0 0 0 0 0 
0 0 0 0 0 0 0 0 0 
0 0 0 0 0 0 0 0 0 
0 0 0 0 0 0 0 0 0 
0 0 0 0 0 0 0 0 0 
0 0 0 0 0 0 0 0 0 
0 0 0 0 0 0 0 0 0 
0 0 0 0 0 0 0 0 0 
0 0 0 0 0 0 0 0 0 
0 0 0 0 0 0 0 0 0 
0 0 0 0 0 0 0 0 0 
0 0 0 0 0 0 0 0 0 
0 0 0 0 0 0 0 0 0 
0 0 0 0 0 0 0 0 0 
0 0 0 0 0 0 0 0 0 
0 0 0 0 0 0 0 0 0 
0 0 0 0 0 0 0 0 0 
0 0 0 0 0 0 0 0 0 
0 0 0 0 0 0 0 0 0 
0 0 0 0 0 0 0 0 0 
0 0 0 0 0 0 0 0 0 
0 0 0 0 0 0 0 0 0 
0 0 0 0 0 0 0 0 0 
0 0 0 0 0 0 0 0 0 
0 0 0 0 0 0 0 0 0 
0 0 0 0 0 0 0 0 0 
0 0 0 0 0 0 0 0 0 
0 0 0 0 0 0 0 0 0 
0 0 0 0 0 0 0 0 0 
0 0 0 0 0 0 0 0 0 
0 0 0 0 0 0 0 0 0 
0 0 0 0 0 0 0 0 0 
0 0 0 0 0 0 0 0 0 
0 0 0 0 0 0 0 0 0 
0 0 0 0 0 0 0 0 0 
0 0 0 0 0 0 0 0 0 
0 0 0 0 0 0 0 0 0 
0 0 0 0 0 0 0 0 0 
0 0 0 0 0 0 0 0 0 
0 0 0 0 0 0 0 0 0 
0 0 0 0 0 0 0 0 0 
0 0 0 0 0 0 0 0 0 
0 0 0 0 0 0 0 0 0 
0 0 0 0 0 0 0 0 0 
0 0 0 0 0 0 0 0 0 
0 0 0 0 0 0 0 0 0 
0 0 0 0 0 0 0 0 0 
0 0 0 0 0 0 0 0 0 
0 0 0 0 0 0 0 0 0 
0 0 0 0 0 0 0 0 0 
0 0 0 0 0 0 0 0 0 
0 0 0 0 0 0 0 0 0 
0 0 0 0 0 0 0 0 0 
0 0 0 0 0 0 0 0 0 
0 0 0 0 0 0 0 0 0 
0 0 0 0 0 0 0 0 0 
0 0 0 0 0 0 0 0 0 
0 0 0 0 0 0 0 0 0 
0 0 0 0 0 0 0 0 0 

