# vtk DataFile Version 5.1
Generated by LIGGGHTS
ASCII
DATASET POLYDATA
POINTS 648 float
-0.0336946 -0.0248459 0.00132048 0.0114764 0.0140289 0.00132553 0.0339316 -0.041715 0.00277168 
-0.0329608 -0.0218045 0.00211407 -0.0386256 -0.00983966 0.00106936 -0.024842 -0.00884532 0.00222456 
0.00265626 0.00371614 0.00270644 0.0320014 0.00756294 0.00204586 -0.0371624 0.011326 0.00114583 
0.0153641 0.0146287 0.00216565 -0.0269229 0.0267788 0.00164247 -0.0281804 0.0418824 0.00271553 
-0.0160353 0.0448572 0.00256644 -0.0393221 -0.0167834 0.00352815 0.0223025 -0.0112244 0.00381457 
0.0342493 -0.0115037 0.00327705 -0.0326334 -0.00963456 0.00332026 0.00314898 0.00491531 0.0039818 
-0.0213481 0.0319153 0.00360622 0.0164577 0.0353116 0.00399066 0.00513794 0.0433856 0.00339592 
0.0101031 -0.0273014 0.00407507 -0.00446216 -0.0255279 0.00415124 -0.0328109 -0.0226975 0.0041704 
-0.0420316 -0.0145538 0.00359672 0.0302919 -0.0148257 0.00488343 -0.0207563 -0.0111167 0.00424339 
-0.0449336 -0.00957357 0.00519666 -0.0179231 -0.00300678 0.00481544 0.0323341 0.0191974 0.00357828 
-0.0368667 0.0306348 0.00525323 0.0354139 0.0312817 0.00508852 0.0152528 0.033152 0.00504217 
-0.0428902 -0.0449088 0.00632628 0.00798734 -0.0367051 0.00537181 0.0433459 -0.0353282 0.00629406 
0.00264867 -0.0338128 0.00599282 0.0414834 -0.0181367 0.00558806 0.0414517 -0.0114994 0.00615099 
0.0275881 -0.00673863 0.00612398 -0.0129003 -0.00574839 0.00520603 0.0384376 0.000848974 0.0055303 
0.0277548 0.0042931 0.00551851 0.021602 0.00540593 0.00537283 0.0123926 0.0218243 0.00627541 
0.0167463 0.0251763 0.00630599 -0.0102477 0.0267602 0.00540302 0.0439232 0.0371117 0.00599499 
0.0262096 -0.0449372 0.00703558 0.0338942 -0.0410147 0.00769637 -0.0160452 -0.0323821 0.00746752 
-0.0105296 -0.0314142 0.00645658 0.0412685 -0.0295104 0.00777701 0.033456 -0.0256735 0.00699825 
0.0262592 -0.0217201 0.00732105 -0.0405162 -0.0161033 0.00744465 -0.0227164 -0.0141288 0.00680652 
0.0350526 -0.0102353 0.0075315 -0.0198564 -0.00683511 0.00645671 -0.00474481 -0.00600267 0.00771898 
0.0293019 -0.00298432 0.00700229 -0.00229178 0.0020129 0.00761107 0.0292006 0.00433004 0.00725375 
-0.0426568 0.00723228 0.00673649 0.0212596 0.00979192 0.00769724 -0.0394276 0.0109375 0.00775809 
-0.0310202 0.0131063 0.00687331 0.0143092 0.0139794 0.00728397 0.0248423 0.0143007 0.00651328 
0.012585 0.0155082 0.00673613 -0.0360536 0.0173104 0.0073502 0.00153271 0.0201988 0.00767045 
-0.032208 0.0306075 0.00673895 -0.0437633 0.0406561 0.00648127 0.0185094 -0.042363 0.00851952 
0.040047 -0.0404588 0.00897028 -0.00302782 -0.0385948 0.00823855 -0.00586029 -0.0338127 0.00852132 
-0.0266532 -0.0301716 0.00813003 -0.0419519 -0.0259749 0.00796592 -0.0108877 -0.0188832 0.00849221 
-0.0183202 -0.0175475 0.00902806 0.00689113 -0.0107816 0.00799923 -0.0343844 -0.0078404 0.00848019 
0.00937085 -0.00418454 0.00774493 0.00417698 0.0024455 0.00858327 0.0305447 0.00486582 0.00817786 
-0.0287984 0.00559412 0.00832404 -0.034865 0.0142961 0.00894493 0.0287781 0.014071 0.00856928 
0.0215224 0.0171285 0.00819148 -0.0153727 0.020636 0.00794807 -0.0282566 0.021284 0.00834476 
0.03506 0.0228899 0.00791887 -0.0409258 0.0305044 0.00846553 -0.0422696 0.0340949 0.00893353 
0.0297434 0.0373158 0.00824762 -0.0349861 -0.0412827 0.00920358 0.0156715 -0.0391733 0.00905345 
0.0341086 -0.0368686 0.00958335 0.0244271 -0.0334586 0.0100917 0.027474 -0.0338615 0.00957036 
-0.0232422 -0.0321576 0.00974389 0.0346336 -0.0325969 0.010114 -0.0323128 -0.0219837 0.0104926 
0.0436787 -0.0219137 0.00962903 0.0336491 -0.0197505 0.00923566 0.0218308 -0.0192565 0.00935846 
0.0030191 -0.0179247 0.00983516 0.0223879 -0.0163393 0.00920279 0.0323804 -0.0132471 0.00948396 
0.0277003 -0.0107969 0.00982067 0.0129906 -0.00677597 0.0105088 -0.040885 -0.00406647 0.00935043 
0.0131353 -0.00504642 0.010092 -0.00783961 -0.000387029 0.00977025 -0.00702036 -0.00121172 0.010199 
-0.00967086 0.00179773 0.0098459 -0.0170872 0.00564833 0.0102684 0.0011249 0.00615697 0.0100799 
0.0101693 0.00555192 0.00960455 0.0399323 0.0117688 0.00977893 0.0379188 0.0120326 0.00930236 
-0.023041 0.0197144 0.00974976 0.00976854 0.0197772 0.0103424 0.00284552 0.0345861 0.0097565 
0.0165329 0.0385374 0.00956793 0.0251972 0.0393087 0.00933351 -0.0390027 0.0421086 0.00957948 
-0.0440308 0.0448256 0.00928143 -0.044759 -0.0437614 0.0107941 0.000425919 -0.0415728 0.0109272 
0.023158 -0.0340207 0.0105777 -0.0448384 -0.0296834 0.0109345 0.00577088 -0.0287415 0.0105401 
0.0054016 -0.025334 0.0114541 0.032808 -0.025967 0.0107333 -0.0408326 -0.0234295 0.0107904 
-0.0291427 -0.0219343 0.0110241 0.0363266 -0.0194176 0.0111482 -0.0317771 -0.0175651 0.0107585 
0.0184681 -0.0172117 0.0113869 0.0404767 -0.0183151 0.011055 0.0322358 -0.0130621 0.0109541 
-0.0222502 -0.00974669 0.0115601 0.00743742 -0.00926665 0.0115067 -0.0281455 -0.00127675 0.0114509 
-0.000610522 -0.00103491 0.0108171 0.032558 0.00153523 0.0104712 -0.00552594 0.00555795 0.0109419 
0.0228765 0.00606581 0.0110517 -0.0392616 0.00972366 0.0112075 -0.0101256 0.00978275 0.0112381 
8.23501e-07 0.0138406 0.0105784 0.00546842 0.0177814 0.0105936 -0.0214239 0.0189608 0.0105081 
0.0226957 0.0260881 0.0105212 0.0444958 0.0309554 0.0110831 0.0163992 0.0415262 0.0112532 
-0.0308094 -0.0435702 0.0119059 0.0418836 -0.0421436 0.0117149 0.0414821 -0.0410789 0.0127874 
-0.042922 -0.0404536 0.0116928 -0.0406141 -0.0405112 0.0120127 -0.018434 -0.0405477 0.0120747 
-0.0108246 -0.0388127 0.0121602 0.0308099 -0.0378456 0.0124394 0.000822496 -0.0363122 0.0118104 
-0.0177429 -0.0346724 0.0123115 0.0333162 -0.0342631 0.0125868 -0.0262624 -0.032473 0.0126901 
-0.0396817 -0.0304797 0.012599 0.0280204 -0.0311414 0.0119253 0.0392765 -0.0300093 0.011951 
-0.015788 -0.0282898 0.0119691 -0.0432264 -0.0264101 0.0119251 -0.0430551 -0.0267583 0.0127919 
0.000892701 -0.0263701 0.0120873 -0.0225401 -0.0213878 0.0123335 -0.0296942 -0.0196153 0.0129561 
0.0282033 -0.0178095 0.013001 -0.0257955 -0.0157834 0.012376 0.0252581 -0.0163235 0.0123333 
-0.00444012 -0.0151621 0.0128365 -0.0117656 -0.0138394 0.0128441 -0.0112192 -0.0104501 0.0117669 
0.0313953 -0.00974065 0.0124428 -0.00747582 -0.00609419 0.0124959 -0.0141425 -0.00311887 0.012894 
0.0449494 0.00392273 0.0123587 0.0221269 0.00728552 0.0122263 0.023953 0.00820576 0.0119941 
0.0283387 0.00890506 0.0121884 -0.0214351 0.00957734 0.0118365 0.0197977 0.00963841 0.0117127 
-0.00279986 0.0127222 0.0124658 0.00861143 0.0123591 0.01268 -0.00307286 0.0144526 0.0125608 
0.0121458 0.0151918 0.0122879 0.0418335 0.0161761 0.0123121 -0.022709 0.0198803 0.0122929 
0.0258603 0.0235991 0.0121152 0.00834461 0.0278725 0.0121132 -0.0152062 0.0294088 0.0118652 
-0.0127911 0.0299546 0.0121199 0.00372347 0.0304157 0.012214 0.0364634 0.0310238 0.0119709 
0.00390562 0.0317225 0.0126919 -0.0264781 0.032823 0.0117993 -0.00973825 0.0391656 0.0123774 
0.0238959 0.0383247 0.0119469 -0.0312382 0.0393096 0.0118134 0.0222253 0.0407186 0.0122212 
-0.0335565 -0.0442122 0.0134889 0.0181024 -0.0433049 0.0132183 0.0416479 -0.0439733 0.0138773 
0.0201641 -0.0426709 0.0139834 0.0348044 -0.042095 0.0133178 -0.0248652 -0.040212 0.014096 
-0.0169239 -0.0402939 0.013645 -0.0273176 -0.0361067 0.0138757 -0.0168273 -0.0360331 0.0132337 
-0.00161929 -0.0353994 0.0139554 0.0195647 -0.0366528 0.0143155 0.00594186 -0.0351889 0.0142489 
0.0077947 -0.0345433 0.01394 0.0403097 -0.0347888 0.0139104 0.0289145 -0.0340196 0.0135281 
0.0449741 -0.0303513 0.0130997 0.0346338 -0.0290927 0.0136287 -0.0401314 -0.0280847 0.0134166 
0.0164647 -0.0275391 0.0136252 0.0306875 -0.0259396 0.0130522 0.0155599 -0.0240909 0.0133656 
-0.0350278 -0.0224863 0.0140886 -0.0139777 -0.0223984 0.0134246 0.0233461 -0.0214624 0.0138019 
0.039775 -0.0211058 0.0138792 -0.0328213 -0.0176588 0.0137778 -0.0100897 -0.0180162 0.014225 
-0.015814 -0.0152491 0.0137001 0.0198229 -0.0156851 0.0133939 0.0375745 -0.0151367 0.0137405 
-0.0388614 -0.0136303 0.0136061 -0.0313057 -0.0141988 0.0139695 -0.0341597 -0.0122829 0.0142302 
-0.0136128 -0.00979682 0.0137717 0.013874 -0.00963069 0.0132928 -0.042331 -0.00792816 0.0135845 
-0.00553214 -0.00871323 0.0130221 -0.00254943 -0.00825679 0.0131108 -0.00401126 -0.00720159 0.0140299 
0.0109664 -0.00760095 0.0130662 0.0404774 -0.00688032 0.01328 0.0387156 -0.00624884 0.0134956 
0.021323 -0.00444137 0.0139484 -0.0120059 -0.00345367 0.0135117 -0.0395569 -0.00227866 0.0139708 
0.00664535 -0.00164817 0.0135074 0.0154702 -0.00154679 0.0124324 -0.0376932 -0.000132947 0.0142446 
-0.0356048 -0.000104637 0.0129739 0.0290986 -0.000251763 0.0135548 -0.0260142 0.00017485 0.0141097 
-0.0325416 0.00283857 0.0130963 -0.025141 0.00447188 0.0133371 -0.0406381 0.00555966 0.0132311 
0.0133448 0.00646544 0.0132959 0.0246705 0.0064451 0.0130523 0.00533928 0.00728904 0.0142003 
0.0110904 0.00657535 0.0131878 0.0340899 0.00882812 0.013989 -0.0349081 0.00917553 0.0137416 
0.00474506 0.0103043 0.013737 0.00978397 0.00922321 0.0136395 0.0211953 0.00966092 0.0131983 
0.0398091 0.011618 0.0141855 -0.0365733 0.0119208 0.0132811 -0.00831541 0.0129665 0.0135541 
0.00243185 0.0120975 0.0135279 0.00789931 0.0136568 0.0138999 0.000954082 0.0152563 0.0139587 
-0.00443291 0.0160613 0.0136185 0.00517921 0.0169249 0.0138093 -0.0193355 0.018129 0.0140344 
0.0256029 0.0175394 0.0137608 0.0407412 0.0174253 0.0136923 0.00757299 0.0192258 0.01365 
0.0090081 0.0191686 0.0138638 0.018015 0.0183735 0.0135219 0.0350116 0.0207306 0.0143092 
-0.0267196 0.0236159 0.014034 0.0307708 0.0242663 0.0132484 0.0395905 0.0272142 0.0131542 
-0.0406313 0.0295913 0.0133621 0.0434247 0.0295768 0.013624 -0.0219587 0.0304934 0.0134497 
-0.0200898 0.0311527 0.01331 -0.0108954 0.0304 0.0136351 0.0038092 0.0311583 0.0140622 
0.026696 0.03017 0.0132832 0.01325 0.0319187 0.0139565 -0.0337286 0.0337045 0.0134605 
0.0214431 0.0335886 0.0133204 0.0231674 0.0340949 0.0136867 -0.00883869 0.0381834 0.013177 
0.0281745 0.039089 0.0137377 -0.039126 0.0399637 0.0135489 -0.0133259 0.0414802 0.0134604 
0.0294278 0.0431452 0.0132879 0.0114086 0.0440135 0.0139178 0.0405446 0.0433429 0.0138654 
0.0171919 0.0449185 0.0138572 0.0211706 0.0445491 0.0137522 -0.00674967 -0.0416523 0.0149644 
-0.0334706 -0.0396012 0.0148283 0.0355384 -0.0354155 0.0152388 -0.0386911 -0.0311434 0.0144155 
0.00231692 -0.0294453 0.0148277 0.023019 -0.0293484 0.0146361 0.0109547 -0.0235646 0.0152066 
0.0115492 -0.0227248 0.0148546 -0.0164034 -0.0216001 0.0144158 -0.00827992 -0.020547 0.014538 
0.00156248 -0.0194187 0.0146163 -0.0339565 -0.0167518 0.0152605 -0.0408642 -0.0154151 0.0143866 
0.0286804 -0.00919085 0.0150004 -0.0211095 -0.00770044 0.0153381 -0.0150798 -0.00698339 0.0155509 
-0.00433253 -0.00676057 0.0145171 -0.0408474 -0.00214648 0.014395 0.0188762 0.00181355 0.0143563 
0.0404406 0.00462082 0.0150235 0.0332757 0.00539899 0.0146303 -0.0350204 0.0121089 0.0146723 
0.0440772 0.0154938 0.0147708 -0.0144089 0.0201081 0.0146584 0.0362273 0.0220011 0.01492 
-0.0295899 0.0232577 0.0149103 0.00264144 0.0247174 0.014643 -0.0386663 0.0253433 0.0151264 
-0.0267569 0.0263983 0.0152935 -0.00563177 0.0268155 0.0153167 0.0191509 0.0299648 0.0154688 
-0.0313244 0.0314049 0.0147607 -0.0073504 0.0318329 0.0146191 0.0372507 0.0318783 0.0146545 
-0.00472634 0.0344449 0.0144099 -0.0407273 0.0358476 0.0146748 -0.041477 0.0364172 0.0150233 
-0.00196307 0.0366495 0.0147834 -0.0245447 0.0378537 0.0150201 0.0030545 0.0369981 0.014904 
-0.00647711 0.0391566 0.0151943 -0.0346971 -0.0446764 0.0169137 -0.0317519 -0.0446953 0.0169502 
-0.00340304 -0.0448428 0.0164197 -0.027409 -0.0433703 0.0162058 -0.0389435 -0.0425966 0.0169565 
0.0248068 -0.0428986 0.0167582 -0.00670669 -0.0394183 0.016376 -0.0289295 -0.0389067 0.0167417 
-0.0234086 -0.038644 0.0166308 -0.0439713 -0.0357399 0.0167577 -0.00338111 -0.0363358 0.0159765 
0.0307351 -0.0355434 0.0161821 -8.23525e-05 -0.034098 0.0160265 0.00879071 -0.0344865 0.0161716 
-0.0427235 -0.0332389 0.0161568 -0.0210092 -0.0320472 0.0169294 0.00802514 -0.031483 0.015662 
0.010226 -0.0308634 0.0166052 0.0156293 -0.0283842 0.016682 -0.00580099 -0.0272788 0.016365 
-0.0338231 -0.0250135 0.0164205 0.0210005 -0.0239559 0.0169614 -0.038621 -0.0229432 0.0162986 
0.00623721 -0.0211799 0.0156813 -0.0207996 -0.0190456 0.0170022 0.0134129 -0.0192809 0.0167347 
-0.0204621 -0.0172006 0.0168266 -0.0426154 -0.0165053 0.0156598 0.0296492 -0.015918 0.0167232 
0.0268005 -0.0146468 0.0162315 -0.0329121 -0.0139828 0.0164338 -0.00710141 -0.0133745 0.0166162 
0.0176437 -0.0119747 0.01595 0.0347312 -0.012978 0.016535 -0.0253401 -0.0103599 0.0169371 
-0.0196799 -0.00931279 0.0165818 0.0218314 -0.00971151 0.0165695 0.0251729 -0.00985964 0.0157429 
-0.0304645 -0.00701594 0.0159754 -0.0101373 -0.00698039 0.0162758 -0.00720807 -0.00608605 0.0162153 
0.0180565 -0.00487531 0.0159686 -0.042786 -0.00359954 0.0159192 0.00127443 -0.000618905 0.0164314 
-0.0416237 0.00110806 0.0168201 -0.0332593 0.000859011 0.0167146 0.0147261 0.00139147 0.0162913 
-0.0261639 0.00337815 0.015764 -0.027449 0.00511055 0.0169876 -0.0403489 0.00598291 0.0164984 
-0.037077 0.00611456 0.0166011 0.030759 0.00580352 0.0156097 0.0142017 0.0079404 0.0168041 
0.0202046 0.00840095 0.0167897 0.0324887 0.00836074 0.0169579 0.00418285 0.0112423 0.0170092 
0.012949 0.0143048 0.0170042 -0.0287818 0.014969 0.0167224 -0.0286532 0.0159811 0.0166681 
-0.0161548 0.0159009 0.0168223 -0.00317984 0.0164631 0.0165804 -0.0436896 0.0195853 0.0163844 
-0.0363159 0.0185996 0.016718 0.00395304 0.0187088 0.015593 -0.0287332 0.0215601 0.0160903 
0.00128112 0.0217131 0.0159857 -0.0349287 0.0230684 0.0167652 -0.0436572 0.0238848 0.0168488 
-0.0138035 0.0240512 0.0166005 0.0181332 0.0246356 0.0166843 -0.0132251 0.0252506 0.016872 
-0.00739359 0.0259593 0.0156626 0.00953871 0.0271324 0.0162488 -0.0357156 0.0282031 0.0156136 
-0.0214233 0.0285543 0.0168409 0.0104707 0.0313218 0.0152274 -0.0379532 0.0399341 0.0163389 
-0.0375088 0.0393741 0.0166976 -0.0112537 0.0395394 0.0159971 0.0221021 0.0401282 0.0165273 
-0.00785852 0.041878 0.0164305 0.00805094 0.0422278 0.0159452 0.0430506 0.0422314 0.0163351 
-0.0205282 0.0432397 0.0157799 0.0399235 0.0434757 0.0162751 0.0147823 -0.0446949 0.0170887 
-0.00396528 -0.0444182 0.0174789 0.0145521 -0.0432303 0.0171671 0.0195053 -0.043722 0.017633 
-0.0248654 -0.0427111 0.0169356 0.0131812 -0.0427533 0.0174538 0.0406519 -0.0427256 0.0177886 
-0.0136468 -0.0412372 0.0174643 0.0166138 -0.0412108 0.0174285 0.0238162 -0.0409762 0.0170686 
0.00849583 -0.0405939 0.0174535 0.0244803 -0.0401788 0.0171405 -0.0195638 -0.0385913 0.0174262 
0.0325128 -0.03812 0.017057 -0.0370475 -0.0370945 0.0177884 0.00985621 -0.0367022 0.0178039 
0.0397687 -0.0374633 0.0170201 -0.0309963 -0.0355024 0.0174152 -0.0179089 -0.0346335 0.0171253 
0.043014 -0.0343178 0.0178235 -0.0177803 -0.0340186 0.0172826 -0.0161578 -0.0337243 0.0173683 
-0.0376897 -0.0314333 0.0171909 -0.0220587 -0.0306349 0.0179602 -0.00682403 -0.0314098 0.0181999 
-0.0414327 -0.0290659 0.017774 -0.0263426 -0.0292431 0.0173272 -0.0346801 -0.0287009 0.017164 
0.0153133 -0.0285941 0.0173012 0.03382 -0.0268981 0.0171022 0.0347572 -0.0260666 0.0179658 
-0.00863888 -0.0237376 0.0174696 0.00179778 -0.0247441 0.0174899 0.00558373 -0.0242787 0.0182301 
0.00538025 -0.0241403 0.0179876 -0.0127621 -0.0231756 0.018166 0.0240101 -0.0228809 0.01798 
0.035159 -0.023363 0.017533 -0.0210835 -0.0209207 0.0173557 -0.0033641 -0.0204173 0.017343 
0.00548761 -0.0197918 0.0174103 0.0272875 -0.0186725 0.0172022 -0.0147645 -0.0165889 0.0178411 
0.038292 -0.016257 0.0173595 0.0132043 -0.01541 0.0171524 0.0249316 -0.014475 0.0177162 
0.0323803 -0.0150629 0.0181795 -0.0279963 -0.0141356 0.0172255 -0.0186412 -0.0134353 0.0177659 
0.00886689 -0.0141191 0.0173192 0.0144468 -0.013247 0.0173213 0.0403752 -0.0143085 0.0173547 
-0.0327621 -0.0121928 0.0173831 -0.00528066 -0.0121118 0.0175498 0.0253763 -0.011051 0.0177116 
0.0334462 -0.00930086 0.0178316 0.0406218 -0.0100941 0.0172507 0.00357123 -0.00830953 0.0171106 
-0.0344646 -0.00725539 0.0173588 -0.0135858 -0.00672635 0.0177094 0.0161928 -0.00760918 0.0173803 
0.00523139 -0.00599236 0.0174992 -0.0253129 -0.0039775 0.0175011 0.0180458 -0.00470109 0.0173392 
0.0200271 -0.00425623 0.0174214 0.0386193 -0.00496685 0.0173035 -0.00941413 -0.00330341 0.017516 
0.00975646 -0.00313231 0.0173865 -0.0198668 -0.00211416 0.0175764 -0.00896956 -0.00131708 0.0173704 
0.0168839 -0.00210364 0.0173548 -0.0283489 -0.000417126 0.0176761 -0.0153419 -0.00108619 0.0173536 
0.0140084 -6.89735e-05 0.0174867 0.0420414 -0.00101026 0.0170585 0.0407777 0.000744206 0.0174264 
0.0189244 0.00254502 0.0178065 0.0362421 0.00170773 0.0172118 -0.0233311 0.00384073 0.0176754 
0.00243665 0.00282786 0.0173471 0.0183943 0.00266245 0.0173407 0.0260144 0.00429017 0.0181303 
0.0323225 0.00436429 0.0171577 -0.01547 0.00642247 0.0171714 -0.00723413 0.00605583 0.0170068 
0.0250346 0.00641518 0.0175459 0.0358407 0.00533501 0.0170965 -0.0429246 0.00657681 0.0176274 
-0.019893 0.00878872 0.0176659 -0.0105861 0.00898083 0.0177818 -0.0408306 0.00999374 0.0176062 
0.0234497 0.00978487 0.0172727 0.027557 0.009967 0.0176216 -0.00808524 0.0113378 0.0175609 
-0.00071691 0.0108932 0.0173178 0.0128044 0.0127337 0.017254 0.014866 0.0127598 0.0172481 
0.0261916 0.0119357 0.0169508 -0.0429188 0.0135204 0.0171932 -0.00867948 0.0139924 0.017535 
-0.00841171 0.0143034 0.0179231 0.0311878 0.014057 0.017754 0.0336082 0.013194 0.0180671 
0.0396593 0.013993 0.0178614 0.0441199 0.0136981 0.0173126 -0.0231109 0.0157017 0.0174387 
-0.0196462 0.0155185 0.0171199 -0.0408838 0.0159645 0.0171091 0.0226738 0.0181095 0.0182003 
0.0122157 0.0191756 0.0172288 0.0388885 0.0193682 0.0173778 -0.0431379 0.0208085 0.0176452 
0.00742845 0.0199749 0.0181557 -0.0122989 0.0222019 0.0173247 0.0398418 0.0217469 0.0173651 
-0.0421793 0.0225172 0.0169468 -0.0324762 0.0230005 0.0177119 -0.0148746 0.0223253 0.0177675 
0.00126512 0.0228658 0.0180474 0.0146363 0.0223077 0.0171742 -0.00782209 0.0241861 0.0174097 
0.0438582 0.0244724 0.0173322 -0.0190887 0.0269029 0.0173311 -0.0128609 0.0265935 0.0175354 
-0.0114472 0.026715 0.0176076 -0.014478 0.0275162 0.0171435 0.0397191 0.0283771 0.0174043 
-0.0376379 0.0294143 0.0173269 0.0040127 0.0314243 0.0171955 0.00519606 0.0301696 0.0176189 
-0.00435696 0.0325462 0.0170054 0.0191028 0.0315895 0.0176576 0.0337272 0.0324898 0.0175837 
0.0380057 0.0324307 0.0178233 -0.0425374 0.0333781 0.0177968 -0.0359241 0.0337864 0.0173062 
0.00727395 0.0332762 0.0173772 -0.0197415 0.0344175 0.0172255 0.00317215 0.0343196 0.0175832 
0.0132394 0.0345575 0.0172102 0.0278529 0.0342296 0.0178423 -0.00750544 0.0361316 0.0170218 
0.00888594 0.0360502 0.0174673 0.00367032 0.0371324 0.0174557 0.0311732 0.0371467 0.0173597 
-0.00585061 0.0388609 0.0178792 0.00201585 0.0404036 0.0179607 0.0170579 0.0421878 0.0173192 
-0.0181988 0.0434549 0.0170108 0.00528787 0.0432844 0.017819 0.0352701 0.0439749 0.0174347 
0.0352379 0.0438995 0.0173789 -0.0390775 0.0447256 0.0172041 -0.0190394 0.0446837 0.0170692 
-0.0225361 -0.0441701 0.0187015 0.0424299 -0.0409921 0.0186478 -0.0233761 -0.031813 0.0185647 
0.0268369 -0.0315202 0.0194959 -0.0240024 -0.0280603 0.018499 -0.0240719 -0.0268296 0.0189079 
0.0350196 -0.0250011 0.0187919 0.0102479 -0.024092 0.0191289 0.0394323 -0.021923 0.0188644 
0.0204492 -0.0194639 0.0184072 -0.0269092 -0.0125643 0.0182278 0.0127657 -0.00746761 0.0185145 
-0.0107529 -0.00365687 0.0182916 -0.0131355 0.00164571 0.018368 0.0116524 0.00206193 0.0182974 
-0.0137512 0.00384646 0.0187635 -0.009285 0.00693532 0.0195484 -0.00598638 0.00689803 0.0191747 
0.000162142 0.0251126 0.0187985 -0.0260391 0.0304395 0.0190488 0.0193546 0.0324404 0.0184496 
-0.038829 -0.00978443 0.0195486 0.0352883 -0.0103067 0.0206793 -0.0214415 -0.007536 0.0202175 
0.0448793 -0.00396119 0.0199342 -0.0442311 0.00821601 0.0199131 -0.0122189 0.0175978 0.0205872 
-0.0245993 0.0193658 0.0192101 -0.0170112 0.0231088 0.0191389 0.021223 0.0244832 0.0197639 
0.0419483 -0.0348097 0.0205381 0.00635633 0.000852437 0.020822 -0.0408092 0.00981999 0.0214496 
0.00976298 0.0163696 0.0219631 -0.0296003 0.0277025 0.0210255 0.0131273 0.040817 0.0218649 
-0.0385899 -0.0405251 0.0237928 0.0414788 -0.00521487 0.0232407 0.039455 -0.000236508 0.024522 
-0.00521279 -0.0413279 0.0251895 0.0282359 -0.00877456 0.0253495 0.00308146 0.0401468 0.0254823 
-0.0081225 0.0151775 0.0268534 -0.0155539 0.0359545 0.0278653 0.0242571 -0.0100823 0.0290857 
0.0433204 -0.0141837 0.030636 -0.0256005 0.0215871 0.0302945 -0.00757157 0.00454821 0.0318254 
0.0188903 -0.0308528 0.0362133 -0.0207679 -0.0256315 0.0368135 0.00643655 -0.000956063 0.0360344 
0.00741479 -0.0295782 0.0392509 0.00347554 0.00338662 0.0388758 -0.00254916 -0.00379952 0.0417561 

VERTICES 649 648
OFFSETS vtktypeint64
0 1 2 3 4 5 6 7 8 
9 10 11 12 13 14 15 16 17 
18 19 20 21 22 23 24 25 26 
27 28 29 30 31 32 33 34 35 
36 37 38 39 40 41 42 43 44 
45 46 47 48 49 50 51 52 53 
54 55 56 57 58 59 60 61 62 
63 64 65 66 67 68 69 70 71 
72 73 74 75 76 77 78 79 80 
81 82 83 84 85 86 87 88 89 
90 91 92 93 94 95 96 97 98 
99 100 101 102 103 104 105 106 107 
108 109 110 111 112 113 114 115 116 
117 118 119 120 121 122 123 124 125 
126 127 128 129 130 131 132 133 134 
135 136 137 138 139 140 141 142 143 
144 145 146 147 148 149 150 151 152 
153 154 155 156 157 158 159 160 161 
162 163 164 165 166 167 168 169 170 
171 172 173 174 175 176 177 178 179 
180 181 182 183 184 185 186 187 188 
189 190 191 192 193 194 195 196 197 
198 199 200 201 202 203 204 205 206 
207 208 209 210 211 212 213 214 215 
216 217 218 219 220 221 222 223 224 
225 226 227 228 229 230 231 232 233 
234 235 236 237 238 239 240 241 242 
243 244 245 246 247 248 249 250 251 
252 253 254 255 256 257 258 259 260 
261 262 263 264 265 266 267 268 269 
270 271 272 273 274 275 276 277 278 
279 280 281 282 283 284 285 286 287 
288 289 290 291 292 293 294 295 296 
297 298 299 300 301 302 303 304 305 
306 307 308 309 310 311 312 313 314 
315 316 317 318 319 320 321 322 323 
324 325 326 327 328 329 330 331 332 
333 334 335 336 337 338 339 340 341 
342 343 344 345 346 347 348 349 350 
351 352 353 354 355 356 357 358 359 
360 361 362 363 364 365 366 367 368 
369 370 371 372 373 374 375 376 377 
378 379 380 381 382 383 384 385 386 
387 388 389 390 391 392 393 394 395 
396 397 398 399 400 401 402 403 404 
405 406 407 408 409 410 411 412 413 
414 415 416 417 418 419 420 421 422 
423 424 425 426 427 428 429 430 431 
432 433 434 435 436 437 438 439 440 
441 442 443 444 445 446 447 448 449 
450 451 452 453 454 455 456 457 458 
459 460 461 462 463 464 465 466 467 
468 469 470 471 472 473 474 475 476 
477 478 479 480 481 482 483 484 485 
486 487 488 489 490 491 492 493 494 
495 496 497 498 499 500 501 502 503 
504 505 506 507 508 509 510 511 512 
513 514 515 516 517 518 519 520 521 
522 523 524 525 526 527 528 529 530 
531 532 533 534 535 536 537 538 539 
540 541 542 543 544 545 546 547 548 
549 550 551 552 553 554 555 556 557 
558 559 560 561 562 563 564 565 566 
567 568 569 570 571 572 573 574 575 
576 577 578 579 580 581 582 583 584 
585 586 587 588 589 590 591 592 593 
594 595 596 597 598 599 600 601 602 
603 604 605 606 607 608 609 610 611 
612 613 614 615 616 617 618 619 620 
621 622 623 624 625 626 627 628 629 
630 631 632 633 634 635 636 637 638 
639 640 641 642 643 644 645 646 647 
648 
CONNECTIVITY vtktypeint64
0 1 2 3 4 5 6 7 8 
9 10 11 12 13 14 15 16 17 
18 19 20 21 22 23 24 25 26 
27 28 29 30 31 32 33 34 35 
36 37 38 39 40 41 42 43 44 
45 46 47 48 49 50 51 52 53 
54 55 56 57 58 59 60 61 62 
63 64 65 66 67 68 69 70 71 
72 73 74 75 76 77 78 79 80 
81 82 83 84 85 86 87 88 89 
90 91 92 93 94 95 96 97 98 
99 100 101 102 103 104 105 106 107 
108 109 110 111 112 113 114 115 116 
117 118 119 120 121 122 123 124 125 
126 127 128 129 130 131 132 133 134 
135 136 137 138 139 140 141 142 143 
144 145 146 147 148 149 150 151 152 
153 154 155 156 157 158 159 160 161 
162 163 164 165 166 167 168 169 170 
171 172 173 174 175 176 177 178 179 
180 181 182 183 184 185 186 187 188 
189 190 191 192 193 194 195 196 197 
198 199 200 201 202 203 204 205 206 
207 208 209 210 211 212 213 214 215 
216 217 218 219 220 221 222 223 224 
225 226 227 228 229 230 231 232 233 
234 235 236 237 238 239 240 241 242 
243 244 245 246 247 248 249 250 251 
252 253 254 255 256 257 258 259 260 
261 262 263 264 265 266 267 268 269 
270 271 272 273 274 275 276 277 278 
279 280 281 282 283 284 285 286 287 
288 289 290 291 292 293 294 295 296 
297 298 299 300 301 302 303 304 305 
306 307 308 309 310 311 312 313 314 
315 316 317 318 319 320 321 322 323 
324 325 326 327 328 329 330 331 332 
333 334 335 336 337 338 339 340 341 
342 343 344 345 346 347 348 349 350 
351 352 353 354 355 356 357 358 359 
360 361 362 363 364 365 366 367 368 
369 370 371 372 373 374 375 376 377 
378 379 380 381 382 383 384 385 386 
387 388 389 390 391 392 393 394 395 
396 397 398 399 400 401 402 403 404 
405 406 407 408 409 410 411 412 413 
414 415 416 417 418 419 420 421 422 
423 424 425 426 427 428 429 430 431 
432 433 434 435 436 437 438 439 440 
441 442 443 444 445 446 447 448 449 
450 451 452 453 454 455 456 457 458 
459 460 461 462 463 464 465 466 467 
468 469 470 471 472 473 474 475 476 
477 478 479 480 481 482 483 484 485 
486 487 488 489 490 491 492 493 494 
495 496 497 498 499 500 501 502 503 
504 505 506 507 508 509 510 511 512 
513 514 515 516 517 518 519 520 521 
522 523 524 525 526 527 528 529 530 
531 532 533 534 535 536 537 538 539 
540 541 542 543 544 545 546 547 548 
549 550 551 552 553 554 555 556 557 
558 559 560 561 562 563 564 565 566 
567 568 569 570 571 572 573 574 575 
576 577 578 579 580 581 582 583 584 
585 586 587 588 589 590 591 592 593 
594 595 596 597 598 599 600 601 602 
603 604 605 606 607 608 609 610 611 
612 613 614 615 616 617 618 619 620 
621 622 623 624 625 626 627 628 629 
630 631 632 633 634 635 636 637 638 
639 640 641 642 643 644 645 646 647 

POINT_DATA 648
FIELD FieldData 12
id 1 648 int
581 633 597 578 544 569 598 556 595 
622 637 555 614 618 599 628 617 593 
583 552 586 645 604 541 590 537 585 
554 57 607 594 623 579 164 115 605 
616 603 638 615 383 465 613 396 18 
195 535 531 534 577 570 185 548 190 
573 572 612 293 72 557 592 565 418 
450 214 601 169 150 491 560 433 561 
596 575 635 508 92 571 304 574 154 
539 106 563 370 175 458 407 297 310 
339 166 49 219 506 550 362 562 459 
626 347 589 404 543 576 317 470 558 
289 444 530 292 580 567 515 132 66 
36 478 456 546 432 620 521 514 85 
246 386 372 639 463 591 51 137 331 
532 267 282 547 238 439 551 355 566 
227 428 542 564 538 545 467 261 288 
322 587 110 163 327 412 200 218 207 
134 549 35 34 356 24 518 88 303 
525 107 533 629 527 128 291 64 479 
517 176 553 381 215 231 157 243 385 
86 423 510 129 197 255 60 401 202 
308 40 149 507 509 540 504 201 26 
148 270 320 328 318 62 366 346 31 
203 140 87 99 82 226 159 436 367 
489 69 634 352 294 502 445 121 71 
526 513 472 237 274 247 374 168 194 
58 306 380 264 127 95 324 260 42 
336 368 299 125 257 382 135 610 204 
568 341 83 334 56 503 512 353 426 
528 165 400 338 497 420 373 345 262 
273 46 469 220 193 184 118 392 443 
364 117 33 109 189 461 524 114 419 
187 343 158 268 29 348 235 251 559 
536 523 361 108 302 272 55 438 457 
256 344 333 139 103 192 449 160 174 
440 73 143 483 511 522 6 360 186 
141 126 181 358 625 529 254 520 100 
408 280 321 488 253 94 387 309 233 
232 437 182 413 275 242 98 188 258 
390 314 312 173 22 67 492 388 319 
229 307 505 283 120 409 415 234 37 
167 177 44 298 496 422 290 500 490 
349 259 23 248 101 427 399 39 224 
11 263 365 75 389 90 519 284 501 
495 454 424 112 145 464 41 48 228 
468 473 152 485 417 138 337 330 191 
97 12 131 162 199 410 209 611 249 
76 155 435 277 91 19 406 351 241 
89 84 93 113 414 471 68 52 429 
136 326 210 359 411 102 122 487 402 
47 350 156 477 250 398 393 295 354 
147 183 430 493 116 79 484 416 323 
329 403 25 28 516 462 170 376 240 
74 276 59 441 460 211 146 43 340 
38 311 608 53 32 278 377 285 252 
105 133 142 20 405 151 371 205 217 
265 80 196 77 61 212 244 305 379 
216 245 486 474 153 301 124 144 453 
296 480 442 221 378 21 446 384 119 
17 395 236 363 63 70 178 315 54 
447 161 357 281 431 279 287 130 325 
394 104 14 206 498 266 30 369 179 
451 332 81 222 481 180 466 455 494 
225 600 313 391 421 452 286 482 198 
45 123 434 375 342 397 475 476 172 
230 271 239 5 96 13 335 223 111 
448 8 27 171 499 208 300 425 213 
9 269 65 16 3 10 50 316 7 
582 588 78 584 630 4 15 609 606 
648 647 2 632 602 643 619 624 1 
644 646 631 636 627 621 640 641 642 

type 1 648 int
1 1 1 1 1 1 1 1 1 
1 1 1 1 1 1 1 1 1 
1 1 1 1 1 1 1 1 1 
1 1 1 1 1 1 1 1 1 
1 1 1 1 1 1 1 1 1 
1 1 1 1 1 1 1 1 1 
1 1 1 1 1 1 1 1 1 
1 1 1 1 1 1 1 1 1 
1 1 1 1 1 1 1 1 1 
1 1 1 1 1 1 1 1 1 
1 1 1 1 1 1 1 1 1 
1 1 1 1 1 1 1 1 1 
1 1 1 1 1 1 1 1 1 
1 1 1 1 1 1 1 1 1 
1 1 1 1 1 1 1 1 1 
1 1 1 1 1 1 1 1 1 
1 1 1 1 1 1 1 1 1 
1 1 1 1 1 1 1 1 1 
1 1 1 1 1 1 1 1 1 
1 1 1 1 1 1 1 1 1 
1 1 1 1 1 1 1 1 1 
1 1 1 1 1 1 1 1 1 
1 1 1 1 1 1 1 1 1 
1 1 1 1 1 1 1 1 1 
1 1 1 1 1 1 1 1 1 
1 1 2 1 1 1 1 1 1 
1 1 1 1 1 1 1 1 1 
1 1 1 1 1 1 1 1 1 
1 1 1 1 1 1 1 1 1 
1 1 1 1 1 1 2 1 1 
1 1 1 1 1 1 1 1 1 
1 1 1 1 1 1 1 1 1 
1 1 1 1 1 1 1 1 1 
1 1 1 1 1 1 1 1 1 
1 1 1 1 1 1 1 1 1 
1 1 1 1 1 1 1 1 1 
1 1 1 1 1 1 2 1 1 
1 1 1 1 1 1 1 1 1 
1 1 1 1 1 1 1 1 1 
1 1 1 1 1 1 1 1 1 
1 1 1 1 1 1 1 1 1 
1 1 1 1 1 1 1 1 1 
1 1 1 1 1 1 1 1 1 
1 1 1 1 1 1 1 1 1 
2 1 1 1 1 1 1 1 1 
1 1 1 1 1 1 1 1 1 
1 1 1 1 1 1 1 1 1 
1 2 1 1 1 1 1 1 1 
1 1 1 1 1 1 1 1 1 
1 1 1 1 1 1 1 1 1 
1 1 1 1 1 1 1 1 1 
1 1 1 1 1 1 1 1 1 
1 1 1 1 1 1 1 1 1 
1 1 1 1 2 1 1 1 1 
1 1 1 1 1 1 1 1 1 
1 1 1 1 1 1 1 1 1 
1 1 1 1 1 1 1 1 1 
1 1 1 1 1 1 1 1 1 
1 1 1 1 1 1 1 1 1 
1 1 1 1 1 1 1 1 1 
1 1 1 1 1 1 1 1 1 
1 1 1 1 1 1 1 1 1 
1 1 2 1 1 1 1 1 1 
1 1 1 1 1 1 1 1 1 
1 1 1 1 1 1 1 1 1 
1 1 1 1 1 1 1 1 1 
1 1 1 2 1 2 1 1 1 
1 2 1 1 1 1 1 1 1 
2 1 1 2 2 2 1 1 2 
1 1 1 1 1 2 2 1 1 
1 1 3 1 1 1 1 1 4 
1 1 1 1 1 1 1 1 1 

i 3 648 int
0 0 0 0 0 0 0 0 0 
0 0 0 0 0 0 0 0 0 
0 0 0 0 0 0 0 0 0 
0 0 0 0 0 0 0 0 0 
0 0 0 0 0 0 0 0 0 
0 0 0 0 0 0 0 0 0 
0 0 0 0 0 0 0 0 0 
0 0 0 0 0 0 0 0 0 
0 0 0 0 0 0 0 0 0 
0 0 0 0 0 0 0 0 0 
0 0 0 0 0 0 0 0 0 
0 0 0 0 0 0 0 0 0 
0 0 0 0 0 0 0 0 0 
0 0 0 0 0 0 0 0 0 
0 0 0 0 0 0 0 0 0 
0 0 0 0 0 0 0 0 0 
0 0 0 0 0 0 0 0 0 
0 0 0 0 0 0 0 0 0 
0 0 0 0 0 0 0 0 0 
0 0 0 0 0 0 0 0 0 
0 0 0 0 0 0 0 0 0 
0 0 0 0 0 0 0 0 0 
0 0 0 0 0 0 0 0 0 
0 0 0 0 0 0 0 0 0 
0 0 0 0 0 0 0 0 0 
0 0 0 0 0 0 0 0 0 
0 0 0 0 0 0 0 0 0 
0 0 0 0 0 0 0 0 0 
0 0 0 0 0 0 0 0 0 
0 0 0 0 0 0 0 0 0 
0 0 0 0 0 0 0 0 0 
0 0 0 0 0 0 0 0 0 
0 0 0 0 0 0 0 0 0 
0 0 0 0 0 0 0 0 0 
0 0 0 0 0 0 0 0 0 
0 0 0 0 0 0 0 0 0 
0 0 0 0 0 0 0 0 0 
0 0 0 0 0 0 0 0 0 
0 0 0 0 0 0 0 0 0 
0 0 0 0 0 0 0 0 0 
0 0 0 0 0 0 0 0 0 
0 0 0 0 0 0 0 0 0 
0 0 0 0 0 0 0 0 0 
0 0 0 0 0 0 0 0 0 
0 0 0 0 0 0 0 0 0 
0 0 0 0 0 0 0 0 0 
0 0 0 0 0 0 0 0 0 
0 0 0 0 0 0 0 0 0 
0 0 0 0 0 0 0 0 0 
0 0 0 0 0 0 0 0 0 
0 0 0 0 0 0 0 0 0 
0 0 0 0 0 0 0 0 0 
0 0 0 0 0 0 0 0 0 
0 0 0 0 0 0 0 0 0 
0 0 0 0 0 0 0 0 0 
0 0 0 0 0 0 0 0 0 
0 0 0 0 0 0 0 0 0 
0 0 0 0 0 0 0 0 0 
0 0 0 0 0 0 0 0 0 
0 0 0 0 0 0 0 0 0 
0 0 0 0 0 0 0 0 0 
0 0 0 0 0 0 0 0 0 
0 0 0 0 0 0 0 0 0 
0 0 0 0 0 0 0 0 0 
0 0 0 0 0 0 0 0 0 
0 0 0 0 0 0 0 0 0 
0 0 0 0 0 0 0 0 0 
0 0 0 0 0 0 0 0 0 
0 0 0 0 0 0 0 0 0 
0 0 0 0 0 0 0 0 0 
0 0 0 0 0 0 0 0 0 
0 0 0 0 0 0 0 0 0 
0 0 0 0 0 0 0 0 0 
0 0 0 0 0 0 0 0 0 
0 0 0 0 0 0 0 0 0 
0 0 0 0 0 0 0 0 0 
0 0 0 0 0 0 0 0 0 
0 0 0 0 0 0 0 0 0 
0 0 0 0 0 0 0 0 0 
0 0 0 0 0 0 0 0 0 
0 0 0 0 0 0 0 0 0 
0 0 0 0 0 0 0 0 0 
0 0 0 0 0 0 0 0 0 
0 0 0 0 0 0 0 0 0 
0 0 0 0 0 0 0 0 0 
0 0 0 0 0 0 0 0 0 
0 0 0 0 0 0 0 0 0 
0 0 0 0 0 0 0 0 0 
0 0 0 0 0 0 0 0 0 
0 0 0 0 0 0 0 0 0 
0 0 0 0 0 0 0 0 0 
0 0 0 0 0 0 0 0 0 
0 0 0 0 0 0 0 0 0 
0 0 0 0 0 0 0 0 0 
0 0 0 0 0 0 0 0 0 
0 0 0 0 0 0 0 0 0 
0 0 0 0 0 0 0 0 0 
0 0 0 0 0 0 0 0 0 
0 0 0 0 0 0 0 0 0 
0 0 0 0 0 0 0 0 0 
0 0 0 0 0 0 0 0 0 
0 0 0 0 0 0 0 0 0 
0 0 0 0 0 0 0 0 0 
0 0 0 0 0 0 0 0 0 
0 0 0 0 0 0 0 0 0 
0 0 0 0 0 0 0 0 0 
0 0 0 0 0 0 0 0 0 
0 0 0 0 0 0 0 0 0 
0 0 0 0 0 0 0 0 0 
0 0 0 0 0 0 0 0 0 
0 0 0 0 0 0 0 0 0 
0 0 0 0 0 0 0 0 0 
0 0 0 0 0 0 0 0 0 
0 0 0 0 0 0 0 0 0 
0 0 0 0 0 0 0 0 0 
0 0 0 0 0 0 0 0 0 
0 0 0 0 0 0 0 0 0 
0 0 0 0 0 0 0 0 0 
0 0 0 0 0 0 0 0 0 
0 0 0 0 0 0 0 0 0 
0 0 0 0 0 0 0 0 0 
0 0 0 0 0 0 0 0 0 
0 0 0 0 0 0 0 0 0 
0 0 0 0 0 0 0 0 0 
0 0 0 0 0 0 0 0 0 
0 0 0 0 0 0 0 0 0 
0 0 0 0 0 0 0 0 0 
0 0 0 0 0 0 0 0 0 
0 0 0 0 0 0 0 0 0 
0 0 0 0 0 0 0 0 0 
0 0 0 0 0 0 0 0 0 
0 0 0 0 0 0 0 0 0 
0 0 0 0 0 0 0 0 0 
0 0 0 0 0 0 0 0 0 
0 0 0 0 0 0 0 0 0 
0 0 0 0 0 0 0 0 0 
0 0 0 0 0 0 0 0 0 
0 0 0 0 0 0 0 0 0 
0 0 0 0 0 0 0 0 0 
0 0 0 0 0 0 0 0 0 
0 0 0 0 0 0 0 0 0 
0 0 0 0 0 0 0 0 0 
0 0 0 0 0 0 0 0 0 
0 0 0 0 0 0 0 0 0 
0 0 0 0 0 0 0 0 0 
0 0 0 0 0 0 0 0 0 
0 0 0 0 0 0 0 0 0 
0 0 0 0 0 0 0 0 0 
0 0 0 0 0 0 0 0 0 
0 0 0 0 0 0 0 0 0 
0 0 0 0 0 0 0 0 0 
0 0 0 0 0 0 0 0 0 
0 0 0 0 0 0 0 0 0 
0 0 0 0 0 0 0 0 0 
0 0 0 0 0 0 0 0 0 
0 0 0 0 0 0 0 0 0 
0 0 0 0 0 0 0 0 0 
0 0 0 0 0 0 0 0 0 
0 0 0 0 0 0 0 0 0 
0 0 0 0 0 0 0 0 0 
0 0 0 0 0 0 0 0 0 
0 0 0 0 0 0 0 0 0 
0 0 0 0 0 0 0 0 0 
0 0 0 0 0 0 0 0 0 
0 0 0 0 0 0 0 0 0 
0 0 0 0 0 0 0 0 0 
0 0 0 0 0 0 0 0 0 
0 0 0 0 0 0 0 0 0 
0 0 0 0 0 0 0 0 0 
0 0 0 0 0 0 0 0 0 
0 0 0 0 0 0 0 0 0 
0 0 0 0 0 0 0 0 0 
0 0 0 0 0 0 0 0 0 
0 0 0 0 0 0 0 0 0 
0 0 0 0 0 0 0 0 0 
0 0 0 0 0 0 0 0 0 
0 0 0 0 0 0 0 0 0 
0 0 0 0 0 0 0 0 0 
0 0 0 0 0 0 0 0 0 
0 0 0 0 0 0 0 0 0 
0 0 0 0 0 0 0 0 0 
0 0 0 0 0 0 0 0 0 
0 0 0 0 0 0 0 0 0 
0 0 0 0 0 0 0 0 0 
0 0 0 0 0 0 0 0 0 
0 0 0 0 0 0 0 0 0 
0 0 0 0 0 0 0 0 0 
0 0 0 0 0 0 0 0 0 
0 0 0 0 0 0 0 0 0 
0 0 0 0 0 0 0 0 0 
0 0 0 0 0 0 0 0 0 
0 0 0 0 0 0 0 0 0 
0 0 0 0 0 0 0 0 0 
0 0 0 0 0 0 0 0 0 
0 0 0 0 0 0 0 0 0 
0 0 0 0 0 0 0 0 0 
0 0 0 0 0 0 0 0 0 
0 0 0 0 0 0 0 0 0 
0 0 0 0 0 0 0 0 0 
0 0 0 0 0 0 0 0 0 
0 0 0 0 0 0 0 0 0 
0 0 0 0 0 0 0 0 0 
0 0 0 0 0 0 0 0 0 
0 0 0 0 0 0 0 0 0 
0 0 0 0 0 0 0 0 0 
0 0 0 0 0 0 0 0 0 
0 0 0 0 0 0 0 0 0 
0 0 0 0 0 0 0 0 0 
0 0 0 0 0 0 0 0 0 
0 0 0 0 0 0 0 0 0 
0 0 0 0 0 0 0 0 0 
0 0 0 0 0 0 0 0 0 
0 0 0 0 0 0 0 0 0 
0 0 0 0 0 0 0 0 0 
0 0 0 0 0 0 0 0 0 
0 0 0 0 0 0 0 0 0 

v 3 648 double
0 0 0.23678575541 0 0 0.19213856551 0 0 0.18645547568 
0 0 0.22979475184 0 0 0.25543133856 0 0 0.23057073728 
0 0 0.18822493137 0 0 0.2049899276 0 0 0.23472642312 
0 0 0.21715362731 0 0 0.21598792606 0 0 0.23226672213 
0 0 0.17941255015 0 0 0.21538934535 0 0 0.20488754389 
0 0 0.20105680619 0 0 0.21748588532 0 0 0.16263794885 
0 0 0.17079809606 0 0 0.18311899442 0 0 0.2160478567 
0 0 0.14170895329 0 0 0.15433746035 0 0 0.22422687259 
0 0 -0.61362418749 0 0 0.22195928964 0 0 0.21141866317 
0 0 0.20796176501 0 0 -0.12678505807 0 0 -0.5908741875 
0 0 0.19542764491 0 0 0.19082676567 0 0 0.15951705661 
0 0 -0.11437871988 0 0 -0.12025907038 0 0 0.12226732403 
0 0 0.17173998909 0 0 -0.5941241875 0 0 0.16264416848 
0 0 0.12051072195 0 0 -0.12258908765 0 0 -0.11832362751 
0 0 0.19111525154 0 0 -0.12078673592 0 0 -0.11062467086 
0 0 -0.11456061955 0 0 0.17167066524 0 0 0.21632468463 
0 0 0.15080688267 0 0 0.103825732 0 0 0.11888514922 
0 0 -0.10887346426 0 0 0.18676660075 0 0 -0.10226588927 
0 0 0.17458873141 0 0 0.11281390055 0 0 0.098653044509 
0 0 -0.098187970777 0 0 -0.10844774539 0 0 0.18462910282 
0 0 0.11042963324 0 0 0.13335367256 0 0 -0.10039944263 
0 0 -0.10615105475 0 0 -0.10067909195 0 0 0.078589562113 
0 0 -0.11268616986 0 0 -0.10364480571 0 0 -0.10891286718 
0 0 0.18876794258 0 0 -0.09841239164 0 0 0.17864186848 
0 0 0.17335334232 0 0 -0.62987418749 0 0 -0.5648741875 
0 0 -0.061426608295 0 0 -0.092412909898 0 0 0.082373416532 
0 0 -0.09406831144 0 0 -0.62987418749 0 0 -0.085183927093 
0 0 0.1702833582 0 0 -0.097908291798 0 0 0.12107907016 
0 0 -0.10342017269 0 0 -0.083579009381 0 0 -0.088434131142 
0 0 -0.08682492772 0 0 -0.077817826346 0 0 -0.082873229348 
0 0 -0.090263042451 0 0 -0.09086523565 0 0 -0.086864978588 
0 0 -0.10346374844 0 0 -0.065663457287 0 0 0.17173564415 
0 0 -0.10557167636 0 0 0.068684972821 0 0 -0.090485896647 
0 0 -0.5713741875 0 0 -0.060991774399 0 0 0.091780700564 
0 0 -0.067740898171 0 0 0.052653050192 0 0 0.12698411182 
0 0 -0.069889929481 0 0 -0.077597301152 0 0 0.17994058705 
0 0 -0.077576051292 0 0 -0.075432375891 0 0 0.17291414302 
0 0 -0.068973462906 0 0 0.11869017526 0 0 0.064265167921 
0 0 -0.026531124883 0 0 -0.07100028642 0 0 -0.069127323656 
0 0 -0.071554423251 0 0 -0.058635658807 0 0 -0.061759962122 
0 0 0.078489951487 0 0 -0.066227738254 0 0 -0.5746241875 
0 0 -0.026454067839 0 0 0.11343106743 0 0 -0.067140875749 
0 0 -0.082615990258 0 0 -0.080108182131 0 0 -0.095724638624 
0 0 -0.5616241875 0 0 -0.054777708302 0 0 0.10008913246 
0 0 -0.053516507465 0 0 -0.055977326129 0 0 -0.07199700625 
0 0 0.14023157764 0 0 -0.053244181054 0 0 -0.070821468808 
0 0 0.13621078907 0 0 -0.042647677486 0 0 -0.052498137201 
0 0 0.12787943805 0 0 -0.058755681693 0 0 0.12986902952 
0 0 -0.040770025947 0 0 -0.089421799568 0 0 0.036157793534 
0 0 0.12556174555 0 0 0.045325100468 0 0 0.14062439126 
0 0 -0.058453626307 0 0 -0.046206213314 0 0 -0.04118828755 
0 0 -0.075372779961 0 0 0.1114325179 0 0 -0.054101251662 
0 0 -0.054146233104 0 0 -0.059197760317 0 0 -0.053082519339 
0 0 -0.08776039917 0 0 -0.032232098916 0 0 -0.047691112578 
0 0 -0.087092501777 0 0 0.11307915364 0 0 -0.026328149944 
0 0 -0.024700660638 0 0 -0.078045120279 0 0 -0.033372802067 
0 0 0.11334268298 0 0 -0.07649806176 0 0 -0.03513096714 
0 0 0.14592334687 0 0 -0.085671356775 0 0 0.12691615546 
0 0 -0.5713741875 0 0 0.13725292355 0 0 -0.0059996446649 
0 0 -0.082733606535 0 0 -0.02216618286 0 0 -0.01649037539 
0 0 0.13888147029 0 0 -0.079406623241 0 0 0.096732837327 
0 0 -0.073292251517 0 0 -0.07237350927 0 0 -0.087756145536 
0 0 -0.015661730177 0 0 -0.022028284499 0 0 -0.07283178279 
0 0 -0.078877476365 0 0 -0.081906730852 0 0 0.16440594257 
0 0 -0.020212512154 0 0 -0.086300921422 0 0 -0.031246458317 
0 0 -0.042691281144 0 0 -0.014402968323 0 0 -0.022100725187 
0 0 -0.017956864079 0 0 -0.043268730487 0 0 -0.080451193966 
0 0 0.042354265804 0 0 0.058228891935 0 0 0.14553327098 
0 0 -0.008232405264 0 0 -0.021168119141 0 0 -0.08435546146 
0 0 -0.011830344869 0 0 -0.085993114904 0 0 -0.021407986825 
0 0 -0.029995158756 0 0 -0.040334496967 0 0 -0.020514041986 
0 0 -0.063268629308 0 0 0.0012077730582 0 0 0.038046986845 
0 0 0.083419638326 0 0 -0.0071631058928 0 0 -0.056628974862 
0 0 0.057385290954 0 0 0.04557845373 0 0 -0.0059192821213 
0 0 0.065417789399 0 0 0.053395701439 0 0 -0.051628837904 
0 0 0.038185953751 0 0 0.067792110573 0 0 -0.5648741875 
0 0 0.0026662728641 0 0 0.013189092239 0 0 0.070484573387 
0 0 0.032761743979 0 0 -0.021671864997 0 0 0.020588147125 
0 0 0.086500666438 0 0 0.14173547224 0 0 -0.0004032010403 
0 0 -0.060508575052 0 0 0.051659113578 0 0 -0.063646644004 
0 0 0.051233651877 0 0 -0.022806644113 0 0 0.052179321229 
0 0 -0.061838382864 0 0 0.085653639142 0 0 0.040603558058 
0 0 0.093858110278 0 0 -0.077037478619 0 0 0.082596151307 
0 0 -0.031675021679 0 0 0.0059607310802 0 0 0.022831473196 
0 0 -0.072350057984 0 0 0.015576801965 0 0 0.0049206837424 
0 0 -0.062468790985 0 0 0.0019528225099 0 0 0.089901551068 
0 0 0.030918553231 0 0 -0.5876241875 0 0 0.030213709174 
0 0 -0.63637418749 0 0 -0.0075339572571 0 0 -0.053808900646 
0 0 0.0054249452302 0 0 0.009145391582 0 0 0.057268550493 
0 0 0.21292913992 0 0 -0.069512107149 0 0 0.032604791797 
0 0 0.10894355832 0 0 -0.061610431404 0 0 0.08863811647 
0 0 0.042862771473 0 0 0.065849916098 0 0 0.012267104048 
0 0 -0.061451881292 0 0 0.016468151488 0 0 0.072863464799 
0 0 0.019223070238 0 0 0.058291917199 0 0 0.0043267798923 
0 0 0.05909506627 0 0 -0.058376982341 0 0 0.096483496327 
0 0 0.068655194812 0 0 0.0088098697083 0 0 0.050866603102 
0 0 -0.058901452919 0 0 0.018752641409 0 0 0.060712256076 
0 0 0.021402748173 0 0 -0.066671357423 0 0 0.0071660216462 
0 0 0.12156776559 0 0 0.047833066881 0 0 0.082622198769 
0 0 -0.065811352906 0 0 -0.00055057624245 0 0 -0.055404143406 
0 0 0.0041570862154 0 0 -0.056517469672 0 0 0.016359007406 
0 0 0.08713637709 0 0 5.4637564236e-05 0 0 0.074684357459 
0 0 0.06912059261 0 0 0.11452426587 0 0 0.026767640385 
0 0 0.012545029751 0 0 0.047690608115 0 0 0.004394004425 
0 0 0.046045982088 0 0 0.04994507506 0 0 -0.047593756597 
0 0 -0.042578093409 0 0 0.077117301217 0 0 0.025942582551 
0 0 0.050735630331 0 0 0.071160635512 0 0 0.096047354018 
0 0 0.053891456636 0 0 0.058090728209 0 0 -0.0039377261259 
0 0 -0.048888485501 0 0 -0.039705207651 0 0 0.059264969967 
0 0 -0.047269157565 0 0 0.083813250846 0 0 0.10318777565 
0 0 -0.073694144381 0 0 0.028724469454 0 0 -0.049770740198 
0 0 -0.0081297830297 0 0 0.044789113122 0 0 0.053568046318 
0 0 0.078626272487 0 0 -0.5713741875 0 0 0.039978747606 
0 0 0.049218879534 0 0 0.071970316595 0 0 -0.036632297497 
0 0 -0.034445058347 0 0 -0.047500893961 0 0 -0.028946758431 
0 0 -0.043579434962 0 0 -0.056811621757 0 0 0.021468303994 
0 0 0.076804431138 0 0 0.068322632015 0 0 -0.039877340556 
0 0 0.021596983854 0 0 0.0017858459266 0 0 0.040523614839 
0 0 0.058970478432 0 0 0.0073821550801 0 0 0.10531235965 
0 0 -0.0059553222203 0 0 -0.011696634868 0 0 0.088696251335 
0 0 0.0057876422294 0 0 -0.0083709754383 0 0 0.099794656469 
0 0 0.1160740027 0 0 -0.018180837262 0 0 0.1186148737 
0 0 0.11431099088 0 0 0.094024565954 0 0 -0.012412566096 
0 0 -0.01428397984 0 0 0.094967349529 0 0 0.00074637421218 
0 0 0.11202407191 0 0 0.10742618535 0 0 -0.01078446601 
0 0 -0.0059197200656 0 0 0.096842821822 0 0 0.11984308977 
0 0 -0.024593770859 0 0 0.090823869986 0 0 0.10180637891 
0 0 -0.00025053765716 0 0 -0.034322008413 0 0 0.10465931795 
0 0 -0.017979210032 0 0 -0.018397003016 0 0 0.10104591095 
0 0 -0.020769501934 0 0 0.10797726065 0 0 0.09119466802 
0 0 -0.00065051405024 0 0 0.10982485498 0 0 -0.026028009497 
0 0 -0.01742502527 0 0 0.11196182451 0 0 0.11485765393 
0 0 -0.056544243136 0 0 -0.018823900821 0 0 0.10657987951 
0 0 0.0070493655424 0 0 0.10787343547 0 0 -0.0093507757993 
0 0 0.088531956281 0 0 0.098558700734 0 0 0.091945885163 
0 0 -0.0053101428944 0 0 -0.025897535111 0 0 -0.0095210698926 
0 0 -0.0087752357006 0 0 0.087394488951 0 0 0.11700271301 
0 0 0.090676092934 0 0 0.096905933588 0 0 0.099597942695 
0 0 0.1079680978 0 0 0.10171039598 0 0 0.11052523014 
0 0 0.096979423577 0 0 -0.026475205032 0 0 0.059353633907 
0 0 -0.018294396467 0 0 0.00042308517584 0 0 0.091801970095 
0 0 0.10899566995 0 0 -0.053816486836 0 0 0.10674310429 
0 0 -0.027282034399 0 0 -0.012297811447 0 0 -0.026262125312 
0 0 0.095579034031 0 0 -0.5843741875 0 0 0.11861555303 
0 0 0.0019664700437 0 0 -0.02445693911 0 0 -0.028051470873 
0 0 0.1205394721 0 0 -0.01850332335 0 0 0.12081311428 
0 0 -0.025619009881 0 0 -0.0096257430656 0 0 0.13037896508 
0 0 0.053526133342 0 0 0.020064343041 0 0 0.057782903947 
0 0 0.010335975162 0 0 0.036648332822 0 0 0.076382710959 
0 0 0.060671722165 0 0 0.045460038608 0 0 0.0072317508136 
0 0 0.089164952664 0 0 -0.0074196031314 0 0 0.085922014818 
0 0 0.08223865276 0 0 -0.006449149975 0 0 0.042082695178 
0 0 0.010671819227 0 0 0.048618905421 0 0 0.10526633461 
0 0 0.10330619727 0 0 0.066265150294 0 0 0.059857834049 
0 0 0.024572737445 0 0 0.048370971871 0 0 0.11995047774 
0 0 0.04683264348 0 0 0.027320960367 0 0 0.076050319371 
0 0 0.065949849481 0 0 0.010761008232 0 0 0.0717599779 
0 0 0.051446218908 0 0 0.061777038579 0 0 0.049217606125 
0 0 0.016155930764 0 0 0.048957265131 0 0 0.050999663204 
0 0 0.044533354614 0 0 0.058485479199 0 0 0.058872971584 
0 0 0.023543001321 0 0 0.14281390482 0 0 0.051036014577 
0 0 0.041312081465 0 0 0.076863498822 0 0 0.0058272355899 
0 0 0.047114291416 0 0 0.075039908569 0 0 0.034105413492 
0 0 0.09405851482 0 0 0.063898379886 0 0 0.019029181904 
0 0 0.036333249374 0 0 0.064087501302 0 0 0.08603205362 
0 0 0.051066208192 0 0 0.022185925891 0 0 -0.5908741875 
0 0 0.042898787821 0 0 0.0080744641007 0 0 0.030113510242 
0 0 0.01876487987 0 0 0.070457989658 0 0 0.042961509888 
0 0 0.058763034858 0 0 0.12915634508 0 0 0.046384967771 
0 0 0.036032068178 0 0 0.0644925969 0 0 0.032780051314 
0 0 0.055283689747 0 0 0.047233973104 0 0 0.055833087868 
0 0 0.048705231142 0 0 0.092548593272 0 0 0.020999165259 
0 0 0.08370425621 0 0 0.0075781066357 0 0 0.074854453069 
0 0 0.04126429975 0 0 0.06334878792 0 0 0.063895902 
0 0 0.024452659134 0 0 0.098844189102 0 0 0.0029718926701 
0 0 0.026135960755 0 0 0.080069281559 0 0 0.063046647332 
0 0 0.076878510313 0 0 0.051266074395 0 0 0.083325159567 
0 0 0.078433622281 0 0 0.084797585433 0 0 0.081751169186 
0 0 0.073811722759 0 0 0.014240816877 0 0 -0.0078741062244 
0 0 0.0098020321394 0 0 -0.0010098707814 0 0 0.0264653253 
0 0 0.045322916962 0 0 0.040891611681 0 0 0.011934830746 
0 0 0.049146843845 0 0 0.033580892551 0 0 0.067266376806 
0 0 0.020819927575 0 0 0.079446446961 0 0 0.0032369558028 
0 0 0.011740302884 0 0 0.0087898573776 0 0 0.0040341957681 
0 0 0.073479866611 0 0 0.040217854575 0 0 0.04540196755 
0 0 0.013536436713 0 0 0.072230541667 0 0 0.052043801669 
0 0 0.043396284937 0 0 -0.003625897951 0 0 -0.039818619304 
0 0 0.040881118423 0 0 0.017598766189 0 0 0.062446142767 
0 0 0.0032733221767 0 0 0.1345495455 0 0 0.0771654619 
0 0 0.017504009077 0 0 0.087149060163 0 0 0.027428485051 
0 0 -0.0098235473942 0 0 0.057419241068 0 0 0.084728207205 
0 0 0.081152975991 0 0 0.0631544822 0 0 0.11494641767 
0 0 0.054805019001 0 0 -0.5973741875 0 0 0.02569925336 
0 0 0.11606010339 0 0 0.067642486388 0 0 0.10020128041 
0 0 0.060451181367 0 0 0.079576145812 0 0 0.014632545867 
0 0 0.040745761823 0 0 0.058272772055 0 0 0.093803564471 
0 0 0.01606015857 0 0 0.052197631488 0 0 0.036585652882 
0 0 0.022543267907 0 0 0.073375292957 0 0 0.11666108082 
0 0 0.14650466104 0 0 0.025351663259 0 0 0.054397246885 
0 0 0.0014823761371 0 0 0.015483571484 0 0 -0.013209786611 
0 0 0.075317757494 0 0 0.029413483717 0 0 0.037629100652 
0 0 0.080001486542 0 0 -0.02412934997 0 0 0.14311585941 
0 0 0.051470494014 0 0 0.10337066114 0 0 0.042486090872 
0 0 0.10179118588 0 0 0.06954063999 0 0 0.074099228357 
0 0 -0.027297768368 0 0 0.13461767595 0 0 0.04534626591 
0 0 0.0063975397525 0 0 0.11271659217 0 0 -0.0098523631134 
0 0 0.10507617388 0 0 0.11092340314 0 0 0.1139091462 
0 0 -0.62012418749 0 0 -0.61687418749 0 0 0.062913615742 
0 0 -0.62012418749 0 0 -0.5713741875 0 0 0.02248258077 
0 0 0.044549264426 0 0 -0.5876241875 0 0 -0.5941241875 
0 0 -0.5583741875 0 0 -0.5583741875 0 0 0.043819465046 
0 0 -0.5681241875 0 0 -0.5941241875 0 0 -0.5583741875 
0 0 -0.5746241875 0 0 -0.5713741875 0 0 0.16387995422 
0 0 -0.5583741875 0 0 -0.5583741875 0 0 -0.5681241875 
0 0 -0.5648741875 0 0 -0.5713741875 0 0 -0.5746241875 
0 0 -0.5616241875 0 0 -0.5616241875 0 0 -0.5583741875 

f 3 648 double
0 0 -1.7425367252e-10 0 0 -1.7425367252e-10 0 0 -1.7425367252e-10 
0 0 -1.7425367252e-10 0 0 -1.7425367252e-10 0 0 -1.7425367252e-10 
0 0 -1.7425367252e-10 0 0 -1.7425367252e-10 0 0 -1.7425367252e-10 
0 0 -1.7425367252e-10 0 0 -1.7425367252e-10 0 0 -1.7425367252e-10 
0 0 -1.7425367252e-10 0 0 -1.7425367252e-10 0 0 -1.7425367252e-10 
0 0 -1.7425367252e-10 0 0 -1.7425367252e-10 0 0 -1.7425367252e-10 
0 0 -1.7425367252e-10 0 0 -1.7425367252e-10 0 0 -1.7425367252e-10 
0 0 -1.7425367252e-10 0 0 -1.7425367252e-10 0 0 -1.7425367252e-10 
0 0 -1.7425367252e-10 0 0 -1.7425367252e-10 0 0 -1.7425367252e-10 
0 0 -1.7425367252e-10 0 0 -1.7425367252e-10 0 0 -1.7425367252e-10 
0 0 -1.7425367252e-10 0 0 -1.7425367252e-10 0 0 -1.7425367252e-10 
0 0 -1.7425367252e-10 0 0 -1.7425367252e-10 0 0 -1.7425367252e-10 
0 0 -1.7425367252e-10 0 0 -1.7425367252e-10 0 0 -1.7425367252e-10 
0 0 -1.7425367252e-10 0 0 -1.7425367252e-10 0 0 -1.7425367252e-10 
0 0 -1.7425367252e-10 0 0 -1.7425367252e-10 0 0 -1.7425367252e-10 
0 0 -1.7425367252e-10 0 0 -1.7425367252e-10 0 0 -1.7425367252e-10 
0 0 -1.7425367252e-10 0 0 -1.7425367252e-10 0 0 -1.7425367252e-10 
0 0 -1.7425367252e-10 0 0 -1.7425367252e-10 0 0 -1.7425367252e-10 
0 0 -1.7425367252e-10 0 0 -1.7425367252e-10 0 0 -1.7425367252e-10 
0 0 -1.7425367252e-10 0 0 -1.7425367252e-10 0 0 -1.7425367252e-10 
0 0 -1.7425367252e-10 0 0 -1.7425367252e-10 0 0 -1.7425367252e-10 
0 0 -1.7425367252e-10 0 0 -1.7425367252e-10 0 0 -1.7425367252e-10 
0 0 -1.7425367252e-10 0 0 -1.7425367252e-10 0 0 -1.7425367252e-10 
0 0 -1.7425367252e-10 0 0 -1.7425367252e-10 0 0 -1.7425367252e-10 
0 0 -1.7425367252e-10 0 0 -1.7425367252e-10 0 0 -1.7425367252e-10 
0 0 -1.7425367252e-10 0 0 -1.7425367252e-10 0 0 -1.7425367252e-10 
0 0 -1.7425367252e-10 0 0 -1.7425367252e-10 0 0 -1.7425367252e-10 
0 0 -1.7425367252e-10 0 0 -1.7425367252e-10 0 0 -1.7425367252e-10 
0 0 -1.7425367252e-10 0 0 -1.7425367252e-10 0 0 -1.7425367252e-10 
0 0 -1.7425367252e-10 0 0 -1.7425367252e-10 0 0 -1.7425367252e-10 
0 0 -1.7425367252e-10 0 0 -1.7425367252e-10 0 0 -1.7425367252e-10 
0 0 -1.7425367252e-10 0 0 -1.7425367252e-10 0 0 -1.7425367252e-10 
0 0 -1.7425367252e-10 0 0 -1.7425367252e-10 0 0 -1.7425367252e-10 
0 0 -1.7425367252e-10 0 0 -1.7425367252e-10 0 0 -1.7425367252e-10 
0 0 -1.7425367252e-10 0 0 -1.7425367252e-10 0 0 -1.7425367252e-10 
0 0 -1.7425367252e-10 0 0 -1.7425367252e-10 0 0 -1.7425367252e-10 
0 0 -1.7425367252e-10 0 0 -1.7425367252e-10 0 0 -1.7425367252e-10 
0 0 -1.7425367252e-10 0 0 -1.7425367252e-10 0 0 -1.7425367252e-10 
0 0 -1.7425367252e-10 0 0 -1.7425367252e-10 0 0 -1.7425367252e-10 
0 0 -1.7425367252e-10 0 0 -1.7425367252e-10 0 0 -1.7425367252e-10 
0 0 -1.7425367252e-10 0 0 -1.7425367252e-10 0 0 -1.7425367252e-10 
0 0 -1.7425367252e-10 0 0 -1.7425367252e-10 0 0 -1.7425367252e-10 
0 0 -1.7425367252e-10 0 0 -1.7425367252e-10 0 0 -1.7425367252e-10 
0 0 -1.7425367252e-10 0 0 -1.7425367252e-10 0 0 -1.7425367252e-10 
0 0 -1.7425367252e-10 0 0 -1.7425367252e-10 0 0 -1.7425367252e-10 
0 0 -1.7425367252e-10 0 0 -1.7425367252e-10 0 0 -1.7425367252e-10 
0 0 -1.7425367252e-10 0 0 -1.7425367252e-10 0 0 -1.7425367252e-10 
0 0 -1.7425367252e-10 0 0 -1.7425367252e-10 0 0 -1.7425367252e-10 
0 0 -1.7425367252e-10 0 0 -1.7425367252e-10 0 0 -1.7425367252e-10 
0 0 -1.7425367252e-10 0 0 -1.7425367252e-10 0 0 -1.7425367252e-10 
0 0 -1.7425367252e-10 0 0 -1.7425367252e-10 0 0 -1.7425367252e-10 
0 0 -1.7425367252e-10 0 0 -1.7425367252e-10 0 0 -1.7425367252e-10 
0 0 -1.7425367252e-10 0 0 -1.7425367252e-10 0 0 -1.7425367252e-10 
0 0 -1.7425367252e-10 0 0 -1.7425367252e-10 0 0 -1.7425367252e-10 
0 0 -1.7425367252e-10 0 0 -1.7425367252e-10 0 0 -1.7425367252e-10 
0 0 -1.7425367252e-10 0 0 -1.7425367252e-10 0 0 -1.7425367252e-10 
0 0 -1.7425367252e-10 0 0 -1.7425367252e-10 0 0 -1.7425367252e-10 
0 0 -1.7425367252e-10 0 0 -1.7425367252e-10 0 0 -1.7425367252e-10 
0 0 -1.7425367252e-10 0 0 -1.7425367252e-10 0 0 -1.7425367252e-10 
0 0 -1.7425367252e-10 0 0 -1.7425367252e-10 0 0 -1.7425367252e-10 
0 0 -1.7425367252e-10 0 0 -1.7425367252e-10 0 0 -1.7425367252e-10 
0 0 -1.7425367252e-10 0 0 -1.7425367252e-10 0 0 -1.7425367252e-10 
0 0 -1.7425367252e-10 0 0 -1.7425367252e-10 0 0 -1.7425367252e-10 
0 0 -1.7425367252e-10 0 0 -1.7425367252e-10 0 0 -1.7425367252e-10 
0 0 -1.7425367252e-10 0 0 -1.7425367252e-10 0 0 -1.7425367252e-10 
0 0 -1.7425367252e-10 0 0 -1.7425367252e-10 0 0 -1.7425367252e-10 
0 0 -1.7425367252e-10 0 0 -1.7425367252e-10 0 0 -1.7425367252e-10 
0 0 -1.7425367252e-10 0 0 -1.7425367252e-10 0 0 -1.7425367252e-10 
0 0 -1.7425367252e-10 0 0 -1.7425367252e-10 0 0 -1.7425367252e-10 
0 0 -1.7425367252e-10 0 0 -1.7425367252e-10 0 0 -1.7425367252e-10 
0 0 -1.7425367252e-10 0 0 -1.7425367252e-10 0 0 -1.7425367252e-10 
0 0 -1.7425367252e-10 0 0 -1.7425367252e-10 0 0 -1.7425367252e-10 
0 0 -1.7425367252e-10 0 0 -1.7425367252e-10 0 0 -1.7425367252e-10 
0 0 -1.7425367252e-10 0 0 -1.7425367252e-10 0 0 -1.7425367252e-10 
0 0 -1.7425367252e-10 0 0 -1.7425367252e-10 0 0 -1.7425367252e-10 
0 0 -1.7425367252e-10 0 0 -1.7425367252e-10 0 0 -8.9019973083e-09 
0 0 -1.7425367252e-10 0 0 -1.7425367252e-10 0 0 -1.7425367252e-10 
0 0 -1.7425367252e-10 0 0 -1.7425367252e-10 0 0 -1.7425367252e-10 
0 0 -1.7425367252e-10 0 0 -1.7425367252e-10 0 0 -1.7425367252e-10 
0 0 -1.7425367252e-10 0 0 -1.7425367252e-10 0 0 -1.7425367252e-10 
0 0 -1.7425367252e-10 0 0 -1.7425367252e-10 0 0 -1.7425367252e-10 
0 0 -1.7425367252e-10 0 0 -1.7425367252e-10 0 0 -1.7425367252e-10 
0 0 -1.7425367252e-10 0 0 -1.7425367252e-10 0 0 -1.7425367252e-10 
0 0 -1.7425367252e-10 0 0 -1.7425367252e-10 0 0 -1.7425367252e-10 
0 0 -1.7425367252e-10 0 0 -1.7425367252e-10 0 0 -1.7425367252e-10 
0 0 -1.7425367252e-10 0 0 -1.7425367252e-10 0 0 -1.7425367252e-10 
0 0 -1.7425367252e-10 0 0 -1.7425367252e-10 0 0 -1.7425367252e-10 
0 0 -1.7425367252e-10 0 0 -1.7425367252e-10 0 0 -1.7425367252e-10 
0 0 -1.7425367252e-10 0 0 -1.7425367252e-10 0 0 -1.7425367252e-10 
0 0 -8.9019973083e-09 0 0 -1.7425367252e-10 0 0 -1.7425367252e-10 
0 0 -1.7425367252e-10 0 0 -1.7425367252e-10 0 0 -1.7425367252e-10 
0 0 -1.7425367252e-10 0 0 -1.7425367252e-10 0 0 -1.7425367252e-10 
0 0 -1.7425367252e-10 0 0 -1.7425367252e-10 0 0 -1.7425367252e-10 
0 0 -1.7425367252e-10 0 0 -1.7425367252e-10 0 0 -1.7425367252e-10 
0 0 -1.7425367252e-10 0 0 -1.7425367252e-10 0 0 -1.7425367252e-10 
0 0 -1.7425367252e-10 0 0 -1.7425367252e-10 0 0 -1.7425367252e-10 
0 0 -1.7425367252e-10 0 0 -1.7425367252e-10 0 0 -1.7425367252e-10 
0 0 -1.7425367252e-10 0 0 -1.7425367252e-10 0 0 -1.7425367252e-10 
0 0 -1.7425367252e-10 0 0 -1.7425367252e-10 0 0 -1.7425367252e-10 
0 0 -1.7425367252e-10 0 0 -1.7425367252e-10 0 0 -1.7425367252e-10 
0 0 -1.7425367252e-10 0 0 -1.7425367252e-10 0 0 -1.7425367252e-10 
0 0 -1.7425367252e-10 0 0 -1.7425367252e-10 0 0 -1.7425367252e-10 
0 0 -1.7425367252e-10 0 0 -1.7425367252e-10 0 0 -1.7425367252e-10 
0 0 -1.7425367252e-10 0 0 -1.7425367252e-10 0 0 -1.7425367252e-10 
0 0 -1.7425367252e-10 0 0 -1.7425367252e-10 0 0 -1.7425367252e-10 
0 0 -1.7425367252e-10 0 0 -1.7425367252e-10 0 0 -1.7425367252e-10 
0 0 -1.7425367252e-10 0 0 -1.7425367252e-10 0 0 -1.7425367252e-10 
0 0 -1.7425367252e-10 0 0 -1.7425367252e-10 0 0 -1.7425367252e-10 
0 0 -1.7425367252e-10 0 0 -1.7425367252e-10 0 0 -1.7425367252e-10 
0 0 -1.7425367252e-10 0 0 -1.7425367252e-10 0 0 -1.7425367252e-10 
0 0 -8.9019973083e-09 0 0 -1.7425367252e-10 0 0 -1.7425367252e-10 
0 0 -1.7425367252e-10 0 0 -1.7425367252e-10 0 0 -1.7425367252e-10 
0 0 -1.7425367252e-10 0 0 -1.7425367252e-10 0 0 -1.7425367252e-10 
0 0 -1.7425367252e-10 0 0 -1.7425367252e-10 0 0 -1.7425367252e-10 
0 0 -1.7425367252e-10 0 0 -1.7425367252e-10 0 0 -1.7425367252e-10 
0 0 -1.7425367252e-10 0 0 -1.7425367252e-10 0 0 -1.7425367252e-10 
0 0 -1.7425367252e-10 0 0 -1.7425367252e-10 0 0 -1.7425367252e-10 
0 0 -1.7425367252e-10 0 0 -1.7425367252e-10 0 0 -1.7425367252e-10 
0 0 -1.7425367252e-10 0 0 -1.7425367252e-10 0 0 -1.7425367252e-10 
0 0 -1.7425367252e-10 0 0 -1.7425367252e-10 0 0 -1.7425367252e-10 
0 0 -1.7425367252e-10 0 0 -1.7425367252e-10 0 0 -1.7425367252e-10 
0 0 -1.7425367252e-10 0 0 -1.7425367252e-10 0 0 -1.7425367252e-10 
0 0 -1.7425367252e-10 0 0 -1.7425367252e-10 0 0 -1.7425367252e-10 
0 0 -1.7425367252e-10 0 0 -1.7425367252e-10 0 0 -1.7425367252e-10 
0 0 -1.7425367252e-10 0 0 -1.7425367252e-10 0 0 -1.7425367252e-10 
0 0 -1.7425367252e-10 0 0 -1.7425367252e-10 0 0 -1.7425367252e-10 
0 0 -1.7425367252e-10 0 0 -1.7425367252e-10 0 0 -1.7425367252e-10 
0 0 -1.7425367252e-10 0 0 -1.7425367252e-10 0 0 -1.7425367252e-10 
0 0 -1.7425367252e-10 0 0 -1.7425367252e-10 0 0 -1.7425367252e-10 
0 0 -1.7425367252e-10 0 0 -1.7425367252e-10 0 0 -1.7425367252e-10 
0 0 -1.7425367252e-10 0 0 -1.7425367252e-10 0 0 -1.7425367252e-10 
0 0 -1.7425367252e-10 0 0 -1.7425367252e-10 0 0 -1.7425367252e-10 
0 0 -8.9019973083e-09 0 0 -1.7425367252e-10 0 0 -1.7425367252e-10 
0 0 -1.7425367252e-10 0 0 -1.7425367252e-10 0 0 -1.7425367252e-10 
0 0 -1.7425367252e-10 0 0 -1.7425367252e-10 0 0 -1.7425367252e-10 
0 0 -1.7425367252e-10 0 0 -1.7425367252e-10 0 0 -1.7425367252e-10 
0 0 -1.7425367252e-10 0 0 -1.7425367252e-10 0 0 -1.7425367252e-10 
0 0 -1.7425367252e-10 0 0 -1.7425367252e-10 0 0 -1.7425367252e-10 
0 0 -1.7425367252e-10 0 0 -1.7425367252e-10 0 0 -1.7425367252e-10 
0 0 -1.7425367252e-10 0 0 -1.7425367252e-10 0 0 -1.7425367252e-10 
0 0 -1.7425367252e-10 0 0 -1.7425367252e-10 0 0 -1.7425367252e-10 
0 0 -1.7425367252e-10 0 0 -8.9019973083e-09 0 0 -1.7425367252e-10 
0 0 -1.7425367252e-10 0 0 -1.7425367252e-10 0 0 -1.7425367252e-10 
0 0 -1.7425367252e-10 0 0 -1.7425367252e-10 0 0 -1.7425367252e-10 
0 0 -1.7425367252e-10 0 0 -1.7425367252e-10 0 0 -1.7425367252e-10 
0 0 -1.7425367252e-10 0 0 -1.7425367252e-10 0 0 -1.7425367252e-10 
0 0 -1.7425367252e-10 0 0 -1.7425367252e-10 0 0 -1.7425367252e-10 
0 0 -1.7425367252e-10 0 0 -1.7425367252e-10 0 0 -1.7425367252e-10 
0 0 -1.7425367252e-10 0 0 -1.7425367252e-10 0 0 -1.7425367252e-10 
0 0 -1.7425367252e-10 0 0 -1.7425367252e-10 0 0 -1.7425367252e-10 
0 0 -1.7425367252e-10 0 0 -1.7425367252e-10 0 0 -1.7425367252e-10 
0 0 -1.7425367252e-10 0 0 -1.7425367252e-10 0 0 -1.7425367252e-10 
0 0 -1.7425367252e-10 0 0 -1.7425367252e-10 0 0 -1.7425367252e-10 
0 0 -1.7425367252e-10 0 0 -1.7425367252e-10 0 0 -1.7425367252e-10 
0 0 -1.7425367252e-10 0 0 -1.7425367252e-10 0 0 -1.7425367252e-10 
0 0 -1.7425367252e-10 0 0 -1.7425367252e-10 0 0 -1.7425367252e-10 
0 0 -1.7425367252e-10 0 0 -1.7425367252e-10 0 0 -1.7425367252e-10 
0 0 -1.7425367252e-10 0 0 -1.7425367252e-10 0 0 -1.7425367252e-10 
0 0 -1.7425367252e-10 0 0 -1.7425367252e-10 0 0 -1.7425367252e-10 
0 0 -1.7425367252e-10 0 0 -1.7425367252e-10 0 0 -1.7425367252e-10 
0 0 -1.7425367252e-10 0 0 -8.9019973083e-09 0 0 -1.7425367252e-10 
0 0 -1.7425367252e-10 0 0 -1.7425367252e-10 0 0 -1.7425367252e-10 
0 0 -1.7425367252e-10 0 0 -1.7425367252e-10 0 0 -1.7425367252e-10 
0 0 -1.7425367252e-10 0 0 -1.7425367252e-10 0 0 -1.7425367252e-10 
0 0 -1.7425367252e-10 0 0 -1.7425367252e-10 0 0 -1.7425367252e-10 
0 0 -1.7425367252e-10 0 0 -1.7425367252e-10 0 0 -1.7425367252e-10 
0 0 -1.7425367252e-10 0 0 -1.7425367252e-10 0 0 -1.7425367252e-10 
0 0 -1.7425367252e-10 0 0 -1.7425367252e-10 0 0 -1.7425367252e-10 
0 0 -1.7425367252e-10 0 0 -1.7425367252e-10 0 0 -1.7425367252e-10 
0 0 -1.7425367252e-10 0 0 -1.7425367252e-10 0 0 -1.7425367252e-10 
0 0 -1.7425367252e-10 0 0 -1.7425367252e-10 0 0 -1.7425367252e-10 
0 0 -1.7425367252e-10 0 0 -1.7425367252e-10 0 0 -1.7425367252e-10 
0 0 -1.7425367252e-10 0 0 -1.7425367252e-10 0 0 -1.7425367252e-10 
0 0 -1.7425367252e-10 0 0 -1.7425367252e-10 0 0 -1.7425367252e-10 
0 0 -1.7425367252e-10 0 0 -1.7425367252e-10 0 0 -1.7425367252e-10 
0 0 -1.7425367252e-10 0 0 -1.7425367252e-10 0 0 -1.7425367252e-10 
0 0 -1.7425367252e-10 0 0 -1.7425367252e-10 0 0 -1.7425367252e-10 
0 0 -1.7425367252e-10 0 0 -1.7425367252e-10 0 0 -1.7425367252e-10 
0 0 -1.7425367252e-10 0 0 -1.7425367252e-10 0 0 -1.7425367252e-10 
0 0 -1.7425367252e-10 0 0 -1.7425367252e-10 0 0 -1.7425367252e-10 
0 0 -1.7425367252e-10 0 0 -1.7425367252e-10 0 0 -1.7425367252e-10 
0 0 -1.7425367252e-10 0 0 -1.7425367252e-10 0 0 -1.7425367252e-10 
0 0 -1.7425367252e-10 0 0 -1.7425367252e-10 0 0 -1.7425367252e-10 
0 0 -1.7425367252e-10 0 0 -1.7425367252e-10 0 0 -1.7425367252e-10 
0 0 -1.7425367252e-10 0 0 -1.7425367252e-10 0 0 -1.7425367252e-10 
0 0 -1.7425367252e-10 0 0 -1.7425367252e-10 0 0 -1.7425367252e-10 
0 0 -1.7425367252e-10 0 0 -1.7425367252e-10 0 0 -8.9019973083e-09 
0 0 -1.7425367252e-10 0 0 -1.7425367252e-10 0 0 -1.7425367252e-10 
0 0 -1.7425367252e-10 0 0 -1.7425367252e-10 0 0 -1.7425367252e-10 
0 0 -1.7425367252e-10 0 0 -1.7425367252e-10 0 0 -1.7425367252e-10 
0 0 -1.7425367252e-10 0 0 -1.7425367252e-10 0 0 -1.7425367252e-10 
0 0 -1.7425367252e-10 0 0 -1.7425367252e-10 0 0 -1.7425367252e-10 
0 0 -1.7425367252e-10 0 0 -1.7425367252e-10 0 0 -1.7425367252e-10 
0 0 -1.7425367252e-10 0 0 -1.7425367252e-10 0 0 -1.7425367252e-10 
0 0 -1.7425367252e-10 0 0 -1.7425367252e-10 0 0 -1.7425367252e-10 
0 0 -1.7425367252e-10 0 0 -1.7425367252e-10 0 0 -1.7425367252e-10 
0 0 -1.7425367252e-10 0 0 -1.7425367252e-10 0 0 -1.7425367252e-10 
0 0 -1.7425367252e-10 0 0 -1.7425367252e-10 0 0 -1.7425367252e-10 
0 0 -1.7425367252e-10 0 0 -1.7425367252e-10 0 0 -1.7425367252e-10 
0 0 -8.9019973083e-09 0 0 -1.7425367252e-10 0 0 -8.9019973083e-09 
0 0 -1.7425367252e-10 0 0 -1.7425367252e-10 0 0 -1.7425367252e-10 
0 0 -1.7425367252e-10 0 0 -8.9019973083e-09 0 0 -1.7425367252e-10 
0 0 -1.7425367252e-10 0 0 -1.7425367252e-10 0 0 -1.7425367252e-10 
0 0 -1.7425367252e-10 0 0 -1.7425367252e-10 0 0 -1.7425367252e-10 
0 0 -8.9019973083e-09 0 0 -1.7425367252e-10 0 0 -1.7425367252e-10 
0 0 -8.9019973083e-09 0 0 -8.9019973083e-09 0 0 -8.9019973083e-09 
0 0 -1.7425367252e-10 0 0 -1.7425367252e-10 0 0 -8.9019973083e-09 
0 0 -1.7425367252e-10 0 0 -1.7425367252e-10 0 0 -1.7425367252e-10 
0 0 -1.7425367252e-10 0 0 -1.7425367252e-10 0 0 -8.9019973083e-09 
0 0 -8.9019973083e-09 0 0 -1.7425367252e-10 0 0 -1.7425367252e-10 
0 0 -1.7425367252e-10 0 0 -1.7425367252e-10 0 0 -6.8918688838e-08 
0 0 -1.7425367252e-10 0 0 -1.7425367252e-10 0 0 -1.7425367252e-10 
0 0 -1.7425367252e-10 0 0 -1.7425367252e-10 0 0 -5.3297119368e-07 
0 0 -1.7425367252e-10 0 0 -1.7425367252e-10 0 0 -1.7425367252e-10 
0 0 -1.7425367252e-10 0 0 -1.7425367252e-10 0 0 -1.7425367252e-10 
0 0 -1.7425367252e-10 0 0 -1.7425367252e-10 0 0 -1.7425367252e-10 

radius 1 648 double
2e-05 2e-05 2e-05 2e-05 2e-05 2e-05 2e-05 2e-05 2e-05 
2e-05 2e-05 2e-05 2e-05 2e-05 2e-05 2e-05 2e-05 2e-05 
2e-05 2e-05 2e-05 2e-05 2e-05 2e-05 2e-05 2e-05 2e-05 
2e-05 2e-05 2e-05 2e-05 2e-05 2e-05 2e-05 2e-05 2e-05 
2e-05 2e-05 2e-05 2e-05 2e-05 2e-05 2e-05 2e-05 2e-05 
2e-05 2e-05 2e-05 2e-05 2e-05 2e-05 2e-05 2e-05 2e-05 
2e-05 2e-05 2e-05 2e-05 2e-05 2e-05 2e-05 2e-05 2e-05 
2e-05 2e-05 2e-05 2e-05 2e-05 2e-05 2e-05 2e-05 2e-05 
2e-05 2e-05 2e-05 2e-05 2e-05 2e-05 2e-05 2e-05 2e-05 
2e-05 2e-05 2e-05 2e-05 2e-05 2e-05 2e-05 2e-05 2e-05 
2e-05 2e-05 2e-05 2e-05 2e-05 2e-05 2e-05 2e-05 2e-05 
2e-05 2e-05 2e-05 2e-05 2e-05 2e-05 2e-05 2e-05 2e-05 
2e-05 2e-05 2e-05 2e-05 2e-05 2e-05 2e-05 2e-05 2e-05 
2e-05 2e-05 2e-05 2e-05 2e-05 2e-05 2e-05 2e-05 2e-05 
2e-05 2e-05 2e-05 2e-05 2e-05 2e-05 2e-05 2e-05 2e-05 
2e-05 2e-05 2e-05 2e-05 2e-05 2e-05 2e-05 2e-05 2e-05 
2e-05 2e-05 2e-05 2e-05 2e-05 2e-05 2e-05 2e-05 2e-05 
2e-05 2e-05 2e-05 2e-05 2e-05 2e-05 2e-05 2e-05 2e-05 
2e-05 2e-05 2e-05 2e-05 2e-05 2e-05 2e-05 2e-05 2e-05 
2e-05 2e-05 2e-05 2e-05 2e-05 2e-05 2e-05 2e-05 2e-05 
2e-05 2e-05 2e-05 2e-05 2e-05 2e-05 2e-05 2e-05 2e-05 
2e-05 2e-05 2e-05 2e-05 2e-05 2e-05 2e-05 2e-05 2e-05 
2e-05 2e-05 2e-05 2e-05 2e-05 2e-05 2e-05 2e-05 2e-05 
2e-05 2e-05 2e-05 2e-05 2e-05 2e-05 2e-05 2e-05 2e-05 
2e-05 2e-05 2e-05 2e-05 2e-05 2e-05 2e-05 2e-05 2e-05 
2e-05 2e-05 7.5e-05 2e-05 2e-05 2e-05 2e-05 2e-05 2e-05 
2e-05 2e-05 2e-05 2e-05 2e-05 2e-05 2e-05 2e-05 2e-05 
2e-05 2e-05 2e-05 2e-05 2e-05 2e-05 2e-05 2e-05 2e-05 
2e-05 2e-05 2e-05 2e-05 2e-05 2e-05 2e-05 2e-05 2e-05 
2e-05 2e-05 2e-05 2e-05 2e-05 2e-05 7.5e-05 2e-05 2e-05 
2e-05 2e-05 2e-05 2e-05 2e-05 2e-05 2e-05 2e-05 2e-05 
2e-05 2e-05 2e-05 2e-05 2e-05 2e-05 2e-05 2e-05 2e-05 
2e-05 2e-05 2e-05 2e-05 2e-05 2e-05 2e-05 2e-05 2e-05 
2e-05 2e-05 2e-05 2e-05 2e-05 2e-05 2e-05 2e-05 2e-05 
2e-05 2e-05 2e-05 2e-05 2e-05 2e-05 2e-05 2e-05 2e-05 
2e-05 2e-05 2e-05 2e-05 2e-05 2e-05 2e-05 2e-05 2e-05 
2e-05 2e-05 2e-05 2e-05 2e-05 2e-05 7.5e-05 2e-05 2e-05 
2e-05 2e-05 2e-05 2e-05 2e-05 2e-05 2e-05 2e-05 2e-05 
2e-05 2e-05 2e-05 2e-05 2e-05 2e-05 2e-05 2e-05 2e-05 
2e-05 2e-05 2e-05 2e-05 2e-05 2e-05 2e-05 2e-05 2e-05 
2e-05 2e-05 2e-05 2e-05 2e-05 2e-05 2e-05 2e-05 2e-05 
2e-05 2e-05 2e-05 2e-05 2e-05 2e-05 2e-05 2e-05 2e-05 
2e-05 2e-05 2e-05 2e-05 2e-05 2e-05 2e-05 2e-05 2e-05 
2e-05 2e-05 2e-05 2e-05 2e-05 2e-05 2e-05 2e-05 2e-05 
7.5e-05 2e-05 2e-05 2e-05 2e-05 2e-05 2e-05 2e-05 2e-05 
2e-05 2e-05 2e-05 2e-05 2e-05 2e-05 2e-05 2e-05 2e-05 
2e-05 2e-05 2e-05 2e-05 2e-05 2e-05 2e-05 2e-05 2e-05 
2e-05 7.5e-05 2e-05 2e-05 2e-05 2e-05 2e-05 2e-05 2e-05 
2e-05 2e-05 2e-05 2e-05 2e-05 2e-05 2e-05 2e-05 2e-05 
2e-05 2e-05 2e-05 2e-05 2e-05 2e-05 2e-05 2e-05 2e-05 
2e-05 2e-05 2e-05 2e-05 2e-05 2e-05 2e-05 2e-05 2e-05 
2e-05 2e-05 2e-05 2e-05 2e-05 2e-05 2e-05 2e-05 2e-05 
2e-05 2e-05 2e-05 2e-05 2e-05 2e-05 2e-05 2e-05 2e-05 
2e-05 2e-05 2e-05 2e-05 7.5e-05 2e-05 2e-05 2e-05 2e-05 
2e-05 2e-05 2e-05 2e-05 2e-05 2e-05 2e-05 2e-05 2e-05 
2e-05 2e-05 2e-05 2e-05 2e-05 2e-05 2e-05 2e-05 2e-05 
2e-05 2e-05 2e-05 2e-05 2e-05 2e-05 2e-05 2e-05 2e-05 
2e-05 2e-05 2e-05 2e-05 2e-05 2e-05 2e-05 2e-05 2e-05 
2e-05 2e-05 2e-05 2e-05 2e-05 2e-05 2e-05 2e-05 2e-05 
2e-05 2e-05 2e-05 2e-05 2e-05 2e-05 2e-05 2e-05 2e-05 
2e-05 2e-05 2e-05 2e-05 2e-05 2e-05 2e-05 2e-05 2e-05 
2e-05 2e-05 2e-05 2e-05 2e-05 2e-05 2e-05 2e-05 2e-05 
2e-05 2e-05 7.5e-05 2e-05 2e-05 2e-05 2e-05 2e-05 2e-05 
2e-05 2e-05 2e-05 2e-05 2e-05 2e-05 2e-05 2e-05 2e-05 
2e-05 2e-05 2e-05 2e-05 2e-05 2e-05 2e-05 2e-05 2e-05 
2e-05 2e-05 2e-05 2e-05 2e-05 2e-05 2e-05 2e-05 2e-05 
2e-05 2e-05 2e-05 7.5e-05 2e-05 7.5e-05 2e-05 2e-05 2e-05 
2e-05 7.5e-05 2e-05 2e-05 2e-05 2e-05 2e-05 2e-05 2e-05 
7.5e-05 2e-05 2e-05 7.5e-05 7.5e-05 7.5e-05 2e-05 2e-05 7.5e-05 
2e-05 2e-05 2e-05 2e-05 2e-05 7.5e-05 7.5e-05 2e-05 2e-05 
2e-05 2e-05 0.00015 2e-05 2e-05 2e-05 2e-05 2e-05 0.0003 
2e-05 2e-05 2e-05 2e-05 2e-05 2e-05 2e-05 2e-05 2e-05 

omega 3 648 double
0 0 0 0 0 0 0 0 0 
0 0 0 0 0 0 0 0 0 
0 0 0 0 0 0 0 0 0 
0 0 0 0 0 0 0 0 0 
0 0 0 0 0 0 0 0 0 
0 0 0 0 0 0 0 0 0 
0 0 0 0 0 0 0 0 0 
0 0 0 0 0 0 0 0 0 
0 0 0 0 0 0 0 0 0 
0 0 0 0 0 0 0 0 0 
0 0 0 0 0 0 0 0 0 
0 0 0 0 0 0 0 0 0 
0 0 0 0 0 0 0 0 0 
0 0 0 0 0 0 0 0 0 
0 0 0 0 0 0 0 0 0 
0 0 0 0 0 0 0 0 0 
0 0 0 0 0 0 0 0 0 
0 0 0 0 0 0 0 0 0 
0 0 0 0 0 0 0 0 0 
0 0 0 0 0 0 0 0 0 
0 0 0 0 0 0 0 0 0 
0 0 0 0 0 0 0 0 0 
0 0 0 0 0 0 0 0 0 
0 0 0 0 0 0 0 0 0 
0 0 0 0 0 0 0 0 0 
0 0 0 0 0 0 0 0 0 
0 0 0 0 0 0 0 0 0 
0 0 0 0 0 0 0 0 0 
0 0 0 0 0 0 0 0 0 
0 0 0 0 0 0 0 0 0 
0 0 0 0 0 0 0 0 0 
0 0 0 0 0 0 0 0 0 
0 0 0 0 0 0 0 0 0 
0 0 0 0 0 0 0 0 0 
0 0 0 0 0 0 0 0 0 
0 0 0 0 0 0 0 0 0 
0 0 0 0 0 0 0 0 0 
0 0 0 0 0 0 0 0 0 
0 0 0 0 0 0 0 0 0 
0 0 0 0 0 0 0 0 0 
0 0 0 0 0 0 0 0 0 
0 0 0 0 0 0 0 0 0 
0 0 0 0 0 0 0 0 0 
0 0 0 0 0 0 0 0 0 
0 0 0 0 0 0 0 0 0 
0 0 0 0 0 0 0 0 0 
0 0 0 0 0 0 0 0 0 
0 0 0 0 0 0 0 0 0 
0 0 0 0 0 0 0 0 0 
0 0 0 0 0 0 0 0 0 
0 0 0 0 0 0 0 0 0 
0 0 0 0 0 0 0 0 0 
0 0 0 0 0 0 0 0 0 
0 0 0 0 0 0 0 0 0 
0 0 0 0 0 0 0 0 0 
0 0 0 0 0 0 0 0 0 
0 0 0 0 0 0 0 0 0 
0 0 0 0 0 0 0 0 0 
0 0 0 0 0 0 0 0 0 
0 0 0 0 0 0 0 0 0 
0 0 0 0 0 0 0 0 0 
0 0 0 0 0 0 0 0 0 
0 0 0 0 0 0 0 0 0 
0 0 0 0 0 0 0 0 0 
0 0 0 0 0 0 0 0 0 
0 0 0 0 0 0 0 0 0 
0 0 0 0 0 0 0 0 0 
0 0 0 0 0 0 0 0 0 
0 0 0 0 0 0 0 0 0 
0 0 0 0 0 0 0 0 0 
0 0 0 0 0 0 0 0 0 
0 0 0 0 0 0 0 0 0 
0 0 0 0 0 0 0 0 0 
0 0 0 0 0 0 0 0 0 
0 0 0 0 0 0 0 0 0 
0 0 0 0 0 0 0 0 0 
0 0 0 0 0 0 0 0 0 
0 0 0 0 0 0 0 0 0 
0 0 0 0 0 0 0 0 0 
0 0 0 0 0 0 0 0 0 
0 0 0 0 0 0 0 0 0 
0 0 0 0 0 0 0 0 0 
0 0 0 0 0 0 0 0 0 
0 0 0 0 0 0 0 0 0 
0 0 0 0 0 0 0 0 0 
0 0 0 0 0 0 0 0 0 
0 0 0 0 0 0 0 0 0 
0 0 0 0 0 0 0 0 0 
0 0 0 0 0 0 0 0 0 
0 0 0 0 0 0 0 0 0 
0 0 0 0 0 0 0 0 0 
0 0 0 0 0 0 0 0 0 
0 0 0 0 0 0 0 0 0 
0 0 0 0 0 0 0 0 0 
0 0 0 0 0 0 0 0 0 
0 0 0 0 0 0 0 0 0 
0 0 0 0 0 0 0 0 0 
0 0 0 0 0 0 0 0 0 
0 0 0 0 0 0 0 0 0 
0 0 0 0 0 0 0 0 0 
0 0 0 0 0 0 0 0 0 
0 0 0 0 0 0 0 0 0 
0 0 0 0 0 0 0 0 0 
0 0 0 0 0 0 0 0 0 
0 0 0 0 0 0 0 0 0 
0 0 0 0 0 0 0 0 0 
0 0 0 0 0 0 0 0 0 
0 0 0 0 0 0 0 0 0 
0 0 0 0 0 0 0 0 0 
0 0 0 0 0 0 0 0 0 
0 0 0 0 0 0 0 0 0 
0 0 0 0 0 0 0 0 0 
0 0 0 0 0 0 0 0 0 
0 0 0 0 0 0 0 0 0 
0 0 0 0 0 0 0 0 0 
0 0 0 0 0 0 0 0 0 
0 0 0 0 0 0 0 0 0 
0 0 0 0 0 0 0 0 0 
0 0 0 0 0 0 0 0 0 
0 0 0 0 0 0 0 0 0 
0 0 0 0 0 0 0 0 0 
0 0 0 0 0 0 0 0 0 
0 0 0 0 0 0 0 0 0 
0 0 0 0 0 0 0 0 0 
0 0 0 0 0 0 0 0 0 
0 0 0 0 0 0 0 0 0 
0 0 0 0 0 0 0 0 0 
0 0 0 0 0 0 0 0 0 
0 0 0 0 0 0 0 0 0 
0 0 0 0 0 0 0 0 0 
0 0 0 0 0 0 0 0 0 
0 0 0 0 0 0 0 0 0 
0 0 0 0 0 0 0 0 0 
0 0 0 0 0 0 0 0 0 
0 0 0 0 0 0 0 0 0 
0 0 0 0 0 0 0 0 0 
0 0 0 0 0 0 0 0 0 
0 0 0 0 0 0 0 0 0 
0 0 0 0 0 0 0 0 0 
0 0 0 0 0 0 0 0 0 
0 0 0 0 0 0 0 0 0 
0 0 0 0 0 0 0 0 0 
0 0 0 0 0 0 0 0 0 
0 0 0 0 0 0 0 0 0 
0 0 0 0 0 0 0 0 0 
0 0 0 0 0 0 0 0 0 
0 0 0 0 0 0 0 0 0 
0 0 0 0 0 0 0 0 0 
0 0 0 0 0 0 0 0 0 
0 0 0 0 0 0 0 0 0 
0 0 0 0 0 0 0 0 0 
0 0 0 0 0 0 0 0 0 
0 0 0 0 0 0 0 0 0 
0 0 0 0 0 0 0 0 0 
0 0 0 0 0 0 0 0 0 
0 0 0 0 0 0 0 0 0 
0 0 0 0 0 0 0 0 0 
0 0 0 0 0 0 0 0 0 
0 0 0 0 0 0 0 0 0 
0 0 0 0 0 0 0 0 0 
0 0 0 0 0 0 0 0 0 
0 0 0 0 0 0 0 0 0 
0 0 0 0 0 0 0 0 0 
0 0 0 0 0 0 0 0 0 
0 0 0 0 0 0 0 0 0 
0 0 0 0 0 0 0 0 0 
0 0 0 0 0 0 0 0 0 
0 0 0 0 0 0 0 0 0 
0 0 0 0 0 0 0 0 0 
0 0 0 0 0 0 0 0 0 
0 0 0 0 0 0 0 0 0 
0 0 0 0 0 0 0 0 0 
0 0 0 0 0 0 0 0 0 
0 0 0 0 0 0 0 0 0 
0 0 0 0 0 0 0 0 0 
0 0 0 0 0 0 0 0 0 
0 0 0 0 0 0 0 0 0 
0 0 0 0 0 0 0 0 0 
0 0 0 0 0 0 0 0 0 
0 0 0 0 0 0 0 0 0 
0 0 0 0 0 0 0 0 0 
0 0 0 0 0 0 0 0 0 
0 0 0 0 0 0 0 0 0 
0 0 0 0 0 0 0 0 0 
0 0 0 0 0 0 0 0 0 
0 0 0 0 0 0 0 0 0 
0 0 0 0 0 0 0 0 0 
0 0 0 0 0 0 0 0 0 
0 0 0 0 0 0 0 0 0 
0 0 0 0 0 0 0 0 0 
0 0 0 0 0 0 0 0 0 
0 0 0 0 0 0 0 0 0 
0 0 0 0 0 0 0 0 0 
0 0 0 0 0 0 0 0 0 
0 0 0 0 0 0 0 0 0 
0 0 0 0 0 0 0 0 0 
0 0 0 0 0 0 0 0 0 
0 0 0 0 0 0 0 0 0 
0 0 0 0 0 0 0 0 0 
0 0 0 0 0 0 0 0 0 
0 0 0 0 0 0 0 0 0 
0 0 0 0 0 0 0 0 0 
0 0 0 0 0 0 0 0 0 
0 0 0 0 0 0 0 0 0 
0 0 0 0 0 0 0 0 0 
0 0 0 0 0 0 0 0 0 
0 0 0 0 0 0 0 0 0 
0 0 0 0 0 0 0 0 0 
0 0 0 0 0 0 0 0 0 
0 0 0 0 0 0 0 0 0 
0 0 0 0 0 0 0 0 0 
0 0 0 0 0 0 0 0 0 
0 0 0 0 0 0 0 0 0 
0 0 0 0 0 0 0 0 0 
0 0 0 0 0 0 0 0 0 
0 0 0 0 0 0 0 0 0 

fx_mag_viz 1 648 double
0 0 0 0 0 0 0 0 0 
0 0 0 0 0 0 0 0 0 
0 0 0 0 0 0 0 0 0 
0 0 0 0 0 0 0 0 0 
0 0 0 0 0 0 0 0 0 
0 0 0 0 0 0 0 0 0 
0 0 0 0 0 0 0 0 0 
0 0 0 0 0 0 0 0 0 
0 0 0 0 0 0 0 0 0 
0 0 0 0 0 0 0 0 0 
0 0 0 0 0 0 0 0 0 
0 0 0 0 0 0 0 0 0 
0 0 0 0 0 0 0 0 0 
0 0 0 0 0 0 0 0 0 
0 0 0 0 0 0 0 0 0 
0 0 0 0 0 0 0 0 0 
0 0 0 0 0 0 0 0 0 
0 0 0 0 0 0 0 0 0 
0 0 0 0 0 0 0 0 0 
0 0 0 0 0 0 0 0 0 
0 0 0 0 0 0 0 0 0 
0 0 0 0 0 0 0 0 0 
0 0 0 0 0 0 0 0 0 
0 0 0 0 0 0 0 0 0 
0 0 0 0 0 0 0 0 0 
0 0 0 0 0 0 0 0 0 
0 0 0 0 0 0 0 0 0 
0 0 0 0 0 0 0 0 0 
0 0 0 0 0 0 0 0 0 
0 0 0 0 0 0 0 0 0 
0 0 0 0 0 0 0 0 0 
0 0 0 0 0 0 0 0 0 
0 0 0 0 0 0 0 0 0 
0 0 0 0 0 0 0 0 0 
0 0 0 0 0 0 0 0 0 
0 0 0 0 0 0 0 0 0 
0 0 0 0 0 0 0 0 0 
0 0 0 0 0 0 0 0 0 
0 0 0 0 0 0 0 0 0 
0 0 0 0 0 0 0 0 0 
0 0 0 0 0 0 0 0 0 
0 0 0 0 0 0 0 0 0 
0 0 0 0 0 0 0 0 0 
0 0 0 0 0 0 0 0 0 
0 0 0 0 0 0 0 0 0 
0 0 0 0 0 0 0 0 0 
0 0 0 0 0 0 0 0 0 
0 0 0 0 0 0 0 0 0 
0 0 0 0 0 0 0 0 0 
0 0 0 0 0 0 0 0 0 
0 0 0 0 0 0 0 0 0 
0 0 0 0 0 0 0 0 0 
0 0 0 0 0 0 0 0 0 
0 0 0 0 0 0 0 0 0 
0 0 0 0 0 0 0 0 0 
0 0 0 0 0 0 0 0 0 
0 0 0 0 0 0 0 0 0 
0 0 0 0 0 0 0 0 0 
0 0 0 0 0 0 0 0 0 
0 0 0 0 0 0 0 0 0 
0 0 0 0 0 0 0 0 0 
0 0 0 0 0 0 0 0 0 
0 0 0 0 0 0 0 0 0 
0 0 0 0 0 0 0 0 0 
0 0 0 0 0 0 0 0 0 
0 0 0 0 0 0 0 0 0 
0 0 0 0 0 0 0 0 0 
0 0 0 0 0 0 0 0 0 
0 0 0 0 0 0 0 0 0 
0 0 0 0 0 0 0 0 0 
0 0 0 0 0 0 0 0 0 
0 0 0 0 0 0 0 0 0 

fy_mag_viz 1 648 double
0 0 0 0 0 0 0 0 0 
0 0 0 0 0 0 0 0 0 
0 0 0 0 0 0 0 0 0 
0 0 0 0 0 0 0 0 0 
0 0 0 0 0 0 0 0 0 
0 0 0 0 0 0 0 0 0 
0 0 0 0 0 0 0 0 0 
0 0 0 0 0 0 0 0 0 
0 0 0 0 0 0 0 0 0 
0 0 0 0 0 0 0 0 0 
0 0 0 0 0 0 0 0 0 
0 0 0 0 0 0 0 0 0 
0 0 0 0 0 0 0 0 0 
0 0 0 0 0 0 0 0 0 
0 0 0 0 0 0 0 0 0 
0 0 0 0 0 0 0 0 0 
0 0 0 0 0 0 0 0 0 
0 0 0 0 0 0 0 0 0 
0 0 0 0 0 0 0 0 0 
0 0 0 0 0 0 0 0 0 
0 0 0 0 0 0 0 0 0 
0 0 0 0 0 0 0 0 0 
0 0 0 0 0 0 0 0 0 
0 0 0 0 0 0 0 0 0 
0 0 0 0 0 0 0 0 0 
0 0 0 0 0 0 0 0 0 
0 0 0 0 0 0 0 0 0 
0 0 0 0 0 0 0 0 0 
0 0 0 0 0 0 0 0 0 
0 0 0 0 0 0 0 0 0 
0 0 0 0 0 0 0 0 0 
0 0 0 0 0 0 0 0 0 
0 0 0 0 0 0 0 0 0 
0 0 0 0 0 0 0 0 0 
0 0 0 0 0 0 0 0 0 
0 0 0 0 0 0 0 0 0 
0 0 0 0 0 0 0 0 0 
0 0 0 0 0 0 0 0 0 
0 0 0 0 0 0 0 0 0 
0 0 0 0 0 0 0 0 0 
0 0 0 0 0 0 0 0 0 
0 0 0 0 0 0 0 0 0 
0 0 0 0 0 0 0 0 0 
0 0 0 0 0 0 0 0 0 
0 0 0 0 0 0 0 0 0 
0 0 0 0 0 0 0 0 0 
0 0 0 0 0 0 0 0 0 
0 0 0 0 0 0 0 0 0 
0 0 0 0 0 0 0 0 0 
0 0 0 0 0 0 0 0 0 
0 0 0 0 0 0 0 0 0 
0 0 0 0 0 0 0 0 0 
0 0 0 0 0 0 0 0 0 
0 0 0 0 0 0 0 0 0 
0 0 0 0 0 0 0 0 0 
0 0 0 0 0 0 0 0 0 
0 0 0 0 0 0 0 0 0 
0 0 0 0 0 0 0 0 0 
0 0 0 0 0 0 0 0 0 
0 0 0 0 0 0 0 0 0 
0 0 0 0 0 0 0 0 0 
0 0 0 0 0 0 0 0 0 
0 0 0 0 0 0 0 0 0 
0 0 0 0 0 0 0 0 0 
0 0 0 0 0 0 0 0 0 
0 0 0 0 0 0 0 0 0 
0 0 0 0 0 0 0 0 0 
0 0 0 0 0 0 0 0 0 
0 0 0 0 0 0 0 0 0 
0 0 0 0 0 0 0 0 0 
0 0 0 0 0 0 0 0 0 
0 0 0 0 0 0 0 0 0 

fz_mag_viz 1 648 double
0 0 0 0 0 0 0 0 0 
0 0 0 0 0 0 0 0 0 
0 0 0 0 0 0 0 0 0 
0 0 0 0 0 0 0 0 0 
0 0 0 0 0 0 0 0 0 
0 0 0 0 0 0 0 0 0 
0 0 0 0 0 0 0 0 0 
0 0 0 0 0 0 0 0 0 
0 0 0 0 0 0 0 0 0 
0 0 0 0 0 0 0 0 0 
0 0 0 0 0 0 0 0 0 
0 0 0 0 0 0 0 0 0 
0 0 0 0 0 0 0 0 0 
0 0 0 0 0 0 0 0 0 
0 0 0 0 0 0 0 0 0 
0 0 0 0 0 0 0 0 0 
0 0 0 0 0 0 0 0 0 
0 0 0 0 0 0 0 0 0 
0 0 0 0 0 0 0 0 0 
0 0 0 0 0 0 0 0 0 
0 0 0 0 0 0 0 0 0 
0 0 0 0 0 0 0 0 0 
0 0 0 0 0 0 0 0 0 
0 0 0 0 0 0 0 0 0 
0 0 0 0 0 0 0 0 0 
0 0 0 0 0 0 0 0 0 
0 0 0 0 0 0 0 0 0 
0 0 0 0 0 0 0 0 0 
0 0 0 0 0 0 0 0 0 
0 0 0 0 0 0 0 0 0 
0 0 0 0 0 0 0 0 0 
0 0 0 0 0 0 0 0 0 
0 0 0 0 0 0 0 0 0 
0 0 0 0 0 0 0 0 0 
0 0 0 0 0 0 0 0 0 
0 0 0 0 0 0 0 0 0 
0 0 0 0 0 0 0 0 0 
0 0 0 0 0 0 0 0 0 
0 0 0 0 0 0 0 0 0 
0 0 0 0 0 0 0 0 0 
0 0 0 0 0 0 0 0 0 
0 0 0 0 0 0 0 0 0 
0 0 0 0 0 0 0 0 0 
0 0 0 0 0 0 0 0 0 
0 0 0 0 0 0 0 0 0 
0 0 0 0 0 0 0 0 0 
0 0 0 0 0 0 0 0 0 
0 0 0 0 0 0 0 0 0 
0 0 0 0 0 0 0 0 0 
0 0 0 0 0 0 0 0 0 
0 0 0 0 0 0 0 0 0 
0 0 0 0 0 0 0 0 0 
0 0 0 0 0 0 0 0 0 
0 0 0 0 0 0 0 0 0 
0 0 0 0 0 0 0 0 0 
0 0 0 0 0 0 0 0 0 
0 0 0 0 0 0 0 0 0 
0 0 0 0 0 0 0 0 0 
0 0 0 0 0 0 0 0 0 
0 0 0 0 0 0 0 0 0 
0 0 0 0 0 0 0 0 0 
0 0 0 0 0 0 0 0 0 
0 0 0 0 0 0 0 0 0 
0 0 0 0 0 0 0 0 0 
0 0 0 0 0 0 0 0 0 
0 0 0 0 0 0 0 0 0 
0 0 0 0 0 0 0 0 0 
0 0 0 0 0 0 0 0 0 
0 0 0 0 0 0 0 0 0 
0 0 0 0 0 0 0 0 0 
0 0 0 0 0 0 0 0 0 
0 0 0 0 0 0 0 0 0 

B_magnitude 1 648 double
0 0 0 0 0 0 0 0 0 
0 0 0 0 0 0 0 0 0 
0 0 0 0 0 0 0 0 0 
0 0 0 0 0 0 0 0 0 
0 0 0 0 0 0 0 0 0 
0 0 0 0 0 0 0 0 0 
0 0 0 0 0 0 0 0 0 
0 0 0 0 0 0 0 0 0 
0 0 0 0 0 0 0 0 0 
0 0 0 0 0 0 0 0 0 
0 0 0 0 0 0 0 0 0 
0 0 0 0 0 0 0 0 0 
0 0 0 0 0 0 0 0 0 
0 0 0 0 0 0 0 0 0 
0 0 0 0 0 0 0 0 0 
0 0 0 0 0 0 0 0 0 
0 0 0 0 0 0 0 0 0 
0 0 0 0 0 0 0 0 0 
0 0 0 0 0 0 0 0 0 
0 0 0 0 0 0 0 0 0 
0 0 0 0 0 0 0 0 0 
0 0 0 0 0 0 0 0 0 
0 0 0 0 0 0 0 0 0 
0 0 0 0 0 0 0 0 0 
0 0 0 0 0 0 0 0 0 
0 0 0 0 0 0 0 0 0 
0 0 0 0 0 0 0 0 0 
0 0 0 0 0 0 0 0 0 
0 0 0 0 0 0 0 0 0 
0 0 0 0 0 0 0 0 0 
0 0 0 0 0 0 0 0 0 
0 0 0 0 0 0 0 0 0 
0 0 0 0 0 0 0 0 0 
0 0 0 0 0 0 0 0 0 
0 0 0 0 0 0 0 0 0 
0 0 0 0 0 0 0 0 0 
0 0 0 0 0 0 0 0 0 
0 0 0 0 0 0 0 0 0 
0 0 0 0 0 0 0 0 0 
0 0 0 0 0 0 0 0 0 
0 0 0 0 0 0 0 0 0 
0 0 0 0 0 0 0 0 0 
0 0 0 0 0 0 0 0 0 
0 0 0 0 0 0 0 0 0 
0 0 0 0 0 0 0 0 0 
0 0 0 0 0 0 0 0 0 
0 0 0 0 0 0 0 0 0 
0 0 0 0 0 0 0 0 0 
0 0 0 0 0 0 0 0 0 
0 0 0 0 0 0 0 0 0 
0 0 0 0 0 0 0 0 0 
0 0 0 0 0 0 0 0 0 
0 0 0 0 0 0 0 0 0 
0 0 0 0 0 0 0 0 0 
0 0 0 0 0 0 0 0 0 
0 0 0 0 0 0 0 0 0 
0 0 0 0 0 0 0 0 0 
0 0 0 0 0 0 0 0 0 
0 0 0 0 0 0 0 0 0 
0 0 0 0 0 0 0 0 0 
0 0 0 0 0 0 0 0 0 
0 0 0 0 0 0 0 0 0 
0 0 0 0 0 0 0 0 0 
0 0 0 0 0 0 0 0 0 
0 0 0 0 0 0 0 0 0 
0 0 0 0 0 0 0 0 0 
0 0 0 0 0 0 0 0 0 
0 0 0 0 0 0 0 0 0 
0 0 0 0 0 0 0 0 0 
0 0 0 0 0 0 0 0 0 
0 0 0 0 0 0 0 0 0 
0 0 0 0 0 0 0 0 0 

B_gradient_mag 1 648 double
0 0 0 0 0 0 0 0 0 
0 0 0 0 0 0 0 0 0 
0 0 0 0 0 0 0 0 0 
0 0 0 0 0 0 0 0 0 
0 0 0 0 0 0 0 0 0 
0 0 0 0 0 0 0 0 0 
0 0 0 0 0 0 0 0 0 
0 0 0 0 0 0 0 0 0 
0 0 0 0 0 0 0 0 0 
0 0 0 0 0 0 0 0 0 
0 0 0 0 0 0 0 0 0 
0 0 0 0 0 0 0 0 0 
0 0 0 0 0 0 0 0 0 
0 0 0 0 0 0 0 0 0 
0 0 0 0 0 0 0 0 0 
0 0 0 0 0 0 0 0 0 
0 0 0 0 0 0 0 0 0 
0 0 0 0 0 0 0 0 0 
0 0 0 0 0 0 0 0 0 
0 0 0 0 0 0 0 0 0 
0 0 0 0 0 0 0 0 0 
0 0 0 0 0 0 0 0 0 
0 0 0 0 0 0 0 0 0 
0 0 0 0 0 0 0 0 0 
0 0 0 0 0 0 0 0 0 
0 0 0 0 0 0 0 0 0 
0 0 0 0 0 0 0 0 0 
0 0 0 0 0 0 0 0 0 
0 0 0 0 0 0 0 0 0 
0 0 0 0 0 0 0 0 0 
0 0 0 0 0 0 0 0 0 
0 0 0 0 0 0 0 0 0 
0 0 0 0 0 0 0 0 0 
0 0 0 0 0 0 0 0 0 
0 0 0 0 0 0 0 0 0 
0 0 0 0 0 0 0 0 0 
0 0 0 0 0 0 0 0 0 
0 0 0 0 0 0 0 0 0 
0 0 0 0 0 0 0 0 0 
0 0 0 0 0 0 0 0 0 
0 0 0 0 0 0 0 0 0 
0 0 0 0 0 0 0 0 0 
0 0 0 0 0 0 0 0 0 
0 0 0 0 0 0 0 0 0 
0 0 0 0 0 0 0 0 0 
0 0 0 0 0 0 0 0 0 
0 0 0 0 0 0 0 0 0 
0 0 0 0 0 0 0 0 0 
0 0 0 0 0 0 0 0 0 
0 0 0 0 0 0 0 0 0 
0 0 0 0 0 0 0 0 0 
0 0 0 0 0 0 0 0 0 
0 0 0 0 0 0 0 0 0 
0 0 0 0 0 0 0 0 0 
0 0 0 0 0 0 0 0 0 
0 0 0 0 0 0 0 0 0 
0 0 0 0 0 0 0 0 0 
0 0 0 0 0 0 0 0 0 
0 0 0 0 0 0 0 0 0 
0 0 0 0 0 0 0 0 0 
0 0 0 0 0 0 0 0 0 
0 0 0 0 0 0 0 0 0 
0 0 0 0 0 0 0 0 0 
0 0 0 0 0 0 0 0 0 
0 0 0 0 0 0 0 0 0 
0 0 0 0 0 0 0 0 0 
0 0 0 0 0 0 0 0 0 
0 0 0 0 0 0 0 0 0 
0 0 0 0 0 0 0 0 0 
0 0 0 0 0 0 0 0 0 
0 0 0 0 0 0 0 0 0 
0 0 0 0 0 0 0 0 0 

