# vtk DataFile Version 5.1
Generated by LIGGGHTS
ASCII
DATASET POLYDATA
POINTS 648 float
0.0147823 -0.0446949 0.00145836 -0.00338111 -0.0363358 0.0012873 -0.0349081 0.00917553 0.00145053 
-0.0193355 0.018129 0.00111571 -0.014478 0.0275162 0.00117951 0.0214431 0.0335886 0.00114945 
0.0430506 0.0422314 0.00147008 -0.0225361 -0.0441701 0.00178117 0.0201641 -0.0426709 0.00210984 
-0.0234086 -0.038644 0.00214483 0.0307351 -0.0355434 0.00183719 0.0346336 -0.0325969 0.00197219 
0.010226 -0.0308634 0.00244332 -0.0401314 -0.0280847 0.0025778 -0.038621 -0.0229432 0.0015112 
-0.0350278 -0.0224863 0.00196854 0.0109547 -0.0235646 0.00232282 -0.0313057 -0.0141988 0.00191716 
0.0347312 -0.012978 0.0026968 -0.0136128 -0.00979682 0.001063 0.0218314 -0.00971151 0.00258355 
-0.042331 -0.00792816 0.00177683 -0.0150798 -0.00698339 0.00209585 -0.0101373 -0.00698039 0.00211888 
0.0127657 -0.00746761 0.00186527 -0.00720807 -0.00608605 0.0018267 0.0386193 -0.00496685 0.00177095 
-0.0395569 -0.00227866 0.00157863 0.00127443 -0.000618905 0.00270505 0.032558 0.00153523 0.0016452 
0.00418285 0.0112423 0.00244894 -0.00831541 0.0129665 0.00252506 -0.0436896 0.0195853 0.00234235 
-0.0138035 0.0240512 0.00268089 0.00834461 0.0278725 0.0022549 -0.0219587 0.0304934 0.00163992 
0.0132394 0.0345575 0.00272538 -0.00883869 0.0381834 0.0020022 -0.0379532 0.0399341 0.0016497 
-0.00785852 0.041878 0.00158735 -0.0190394 0.0446837 0.00253633 -0.0317519 -0.0446953 0.0033252 
-0.0169239 -0.0402939 0.00385414 -0.0289295 -0.0389067 0.00355811 -0.00161929 -0.0353994 0.003522 
0.0355384 -0.0354155 0.00386942 -0.0179089 -0.0346335 0.00350402 -8.23525e-05 -0.034098 0.00330451 
0.0403097 -0.0347888 0.00328708 -0.00682403 -0.0314098 0.00340391 0.023019 -0.0293484 0.00374324 
0.0156293 -0.0283842 0.00288791 0.0210005 -0.0239559 0.00401394 0.0134129 -0.0192809 0.00339019 
0.0272875 -0.0186725 0.00215864 0.0296492 -0.015918 0.00315046 -0.00710141 -0.0133745 0.0033325 
-0.0211095 -0.00770044 0.003433 -0.0281455 -0.00127675 0.00335832 -0.0332593 0.000859011 0.00288468 
-0.0261639 0.00337815 0.00348147 -0.027449 0.00511055 0.00390293 -0.0406381 0.00555966 0.00344963 
-0.0403489 0.00598291 0.00394272 -0.01547 0.00642247 0.00406389 0.00978397 0.00922321 0.0031715 
0.00789931 0.0136568 0.0040365 -0.0287818 0.014969 0.00376988 0.0440772 0.0154938 0.0032807 
-0.0286532 0.0159811 0.00350022 -0.0161548 0.0159009 0.00298482 -0.00443291 0.0160613 0.00369088 
-0.00317984 0.0164631 0.00324354 0.0256029 0.0175394 0.00306842 -0.0363159 0.0185996 0.00375968 
0.00264144 0.0247174 0.00368541 0.0258603 0.0235991 0.00352689 -0.0132251 0.0252506 0.00313254 
-0.0214233 0.0285543 0.00399456 -0.0260391 0.0304395 0.00307939 -0.0359241 0.0337864 0.00291045 
-0.00472634 0.0344449 0.00306552 -0.0407273 0.0358476 0.00400904 -0.00750544 0.0361316 0.00380568 
0.0281745 0.039089 0.00300803 -0.0389435 -0.0425966 0.00466075 0.00849583 -0.0405939 0.00512034 
-0.0195638 -0.0385913 0.00535249 0.0325128 -0.03812 0.00527793 -0.0273176 -0.0361067 0.0050294 
0.0195647 -0.0366528 0.00484388 0.043014 -0.0343178 0.00435902 -0.0210092 -0.0320472 0.00413201 
0.0115492 -0.0227248 0.00534328 -0.0164034 -0.0216001 0.00456859 -0.0207996 -0.0190456 0.00453632 
-0.0328213 -0.0176588 0.00444509 -0.0408642 -0.0154151 0.00444538 -0.015814 -0.0152491 0.00440142 
0.0375745 -0.0151367 0.00436611 0.00886689 -0.0141191 0.00459453 -0.0253401 -0.0103599 0.00444157 
0.0420414 -0.00101026 0.00445461 -0.0131355 0.00164571 0.00489839 0.0324887 0.00836074 0.00476634 
0.00474506 0.0103043 0.00510795 -0.0350204 0.0121089 0.0051869 0.012949 0.0143048 0.0045501 
0.00757299 0.0192258 0.00438065 0.0350116 0.0207306 0.00425226 -0.0436572 0.0238848 0.00430463 
0.0434247 0.0295768 0.00459731 0.0040127 0.0314243 0.00502358 -0.00647711 0.0391566 0.00527666 
0.0170579 0.0421878 0.00461491 0.0114086 0.0440135 0.00490255 0.0171919 0.0449185 0.00497349 
0.0211706 0.0445491 0.00455655 0.0416479 -0.0439733 0.00563353 0.0406519 -0.0427256 0.00647802 
0.0077947 -0.0345433 0.00568509 0.00231692 -0.0294453 0.0055688 -0.0346801 -0.0287009 0.00588002 
0.0164647 -0.0275391 0.00580429 0.0155599 -0.0240909 0.0065185 0.0252581 -0.0163235 0.00495747 
0.0132043 -0.01541 0.00580335 -0.0279963 -0.0141356 0.00602233 -0.0341597 -0.0122829 0.00578191 
0.0253763 -0.011051 0.00562904 0.0352883 -0.0103067 0.00646201 -0.0253129 -0.0039775 0.0066645 
0.0448793 -0.00396119 0.00632808 0.00664535 -0.00164817 0.00583389 -0.0376932 -0.000132947 0.00662754 
0.0189244 0.00254502 0.00591016 -0.0233311 0.00384073 0.00648704 -0.0137512 0.00384646 0.00542022 
0.0332757 0.00539899 0.00584717 0.0358407 0.00533501 0.00549097 0.00533928 0.00728904 0.00639196 
0.0110904 0.00657535 0.00532736 -0.0442311 0.00821601 0.00583922 -0.019893 0.00878872 0.00631567 
-0.0408306 0.00999374 0.00574021 0.0234497 0.00978487 0.00579802 0.027557 0.009967 0.00563775 
-0.00808524 0.0113378 0.00582082 -0.00071691 0.0108932 0.00621287 -0.0408838 0.0159645 0.00555338 
-0.0122189 0.0175978 0.0062745 -0.0287332 0.0215601 0.006142 0.0362273 0.0220011 0.00652167 
-0.0295899 0.0232577 0.00577283 0.0397191 0.0283771 0.00603108 0.0337272 0.0324898 0.00560548 
0.0380057 0.0324307 0.00613104 0.00367032 0.0371324 0.00588963 0.0030545 0.0369981 0.00646213 
-0.039126 0.0399637 0.00553603 -0.0133259 0.0414802 0.00611898 -0.0390775 0.0447256 0.00613404 
0.0195053 -0.043722 0.00781039 -0.0136468 -0.0412372 0.00741052 -0.0177803 -0.0340186 0.0067814 
-0.0161578 -0.0337243 0.00737963 -0.0386911 -0.0311434 0.00714007 0.0449741 -0.0303513 0.00768637 
0.0346338 -0.0290927 0.00737359 0.0153133 -0.0285941 0.00682518 0.0347572 -0.0260666 0.00702497 
0.0350196 -0.0250011 0.00756645 0.00179778 -0.0247441 0.00734773 -0.0210835 -0.0209207 0.00747689 
-0.0033641 -0.0204173 0.0074332 0.0204492 -0.0194639 0.00680712 0.0144468 -0.013247 0.00700947 
-0.00528066 -0.0121118 0.00722279 -0.00254943 -0.00825679 0.00743397 -0.00401126 -0.00720159 0.00700342 
0.0404774 -0.00688032 0.00683383 0.0387156 -0.00624884 0.00790198 -0.040885 -0.00406647 0.00663866 
0.0131353 -0.00504642 0.00701446 0.0200271 -0.00425623 0.00752035 -0.0408474 -0.00214648 0.006897 
-0.0198668 -0.00211416 0.00721701 0.0168839 -0.00210364 0.00773209 -0.0153419 -0.00108619 0.00768691 
-0.0325416 0.00283857 0.00746231 0.0183943 0.00266245 0.00707278 -0.025141 0.00447188 0.0074055 
0.0260144 0.00429017 0.00781859 -0.0429246 0.00657681 0.00738369 0.0211953 0.00966092 0.00701694 
-0.0365733 0.0119208 0.00676365 0.00243185 0.0120975 0.00679004 -0.0231109 0.0157017 0.00685738 
0.0407412 0.0174253 0.00778754 0.018015 0.0183735 0.00682169 -0.023041 0.0197144 0.00666608 
0.00742845 0.0199749 0.00707727 -0.0324762 0.0230005 0.0067335 -0.0267196 0.0236159 0.00712176 
-0.0128609 0.0265935 0.00733967 0.0395905 0.0272142 0.00738088 -0.0406313 0.0295913 0.0072889 
-0.0127911 0.0299546 0.00757845 0.026696 0.03017 0.00775064 0.0191028 0.0315895 0.00786405 
0.0372507 0.0318783 0.00773699 -0.0425374 0.0333781 0.00754445 -0.0337286 0.0337045 0.00695174 
0.00727395 0.0332762 0.00779284 0.0278529 0.0342296 0.0072309 -0.00196307 0.0366495 0.00785569 
0.00888594 0.0360502 0.0074312 0.0294278 0.0431452 0.00708426 -0.00396528 -0.0444182 0.00799681 
0.0181024 -0.0433049 0.00792167 0.0348044 -0.042095 0.00869089 0.0418836 -0.0421436 0.00909343 
-0.0349861 -0.0412827 0.00810696 0.000425919 -0.0415728 0.0085326 0.0166138 -0.0412108 0.00859166 
-0.0406141 -0.0405112 0.00865481 -0.018434 -0.0405477 0.00898097 0.040047 -0.0404588 0.00868441 
-0.0108246 -0.0388127 0.00893621 0.00985621 -0.0367022 0.00923724 -0.0309963 -0.0355024 0.00832572 
-0.0168273 -0.0360331 0.00850722 -0.0233761 -0.031813 0.00901294 -0.0220587 -0.0306349 0.00889052 
-0.0414327 -0.0290659 0.00882736 -0.0430551 -0.0267583 0.00807185 -0.00863888 -0.0237376 0.00815387 
0.00558373 -0.0242787 0.00909271 -0.0127621 -0.0231756 0.00904944 0.0240101 -0.0228809 0.00870005 
0.035159 -0.023363 0.00877031 -0.0225401 -0.0213878 0.00890677 0.0233461 -0.0214624 0.00863417 
-0.0296942 -0.0196153 0.00907538 -0.0147645 -0.0165889 0.00855822 0.038292 -0.016257 0.00885454 
0.0323803 -0.0150629 0.00921036 0.0313953 -0.00974065 0.00849571 0.0334462 -0.00930086 0.00854628 
-0.0344646 -0.00725539 0.00872688 -0.00747582 -0.00609419 0.00905816 0.0180458 -0.00470109 0.00870232 
-0.0120059 -0.00345367 0.00815548 -0.0107529 -0.00365687 0.00897395 -0.00941413 -0.00330341 0.00860519 
-0.0283489 -0.000417126 0.00869735 0.0140084 -6.89735e-05 0.00839023 0.0290986 -0.000251763 0.0089575 
0.00243665 0.00282786 0.00884591 -0.009285 0.00693532 0.00878514 -0.00598638 0.00689803 0.00804675 
-0.0105861 0.00898083 0.00848048 0.0283387 0.00890506 0.00860544 0.0197977 0.00963841 0.00901237 
0.00861143 0.0123591 0.00863228 -0.00841171 0.0143034 0.00909723 0.0396593 0.013993 0.00872966 
-0.00307286 0.0144526 0.00912884 0.000954082 0.0152563 0.00841256 0.0121458 0.0151918 0.00852442 
-0.0122989 0.0222019 0.00890724 0.0398418 0.0217469 0.0085329 -0.0148746 0.0223253 0.00840396 
0.0438582 0.0244724 0.00886175 -0.0409258 0.0305044 0.00851861 -0.0108954 0.0304 0.00847913 
0.00372347 0.0304157 0.0087075 0.00390562 0.0317225 0.00843832 0.0231674 0.0340949 0.00848237 
-0.00973825 0.0391656 0.00889004 0.0238959 0.0383247 0.00914649 0.00201585 0.0404036 0.00809887 
0.0222253 0.0407186 0.00866231 0.00528787 0.0432844 0.0084432 0.0405446 0.0433429 0.00831385 
-0.0428902 -0.0449088 0.0102766 -0.044759 -0.0437614 0.00997635 0.0145521 -0.0432303 0.0103619 
0.0131812 -0.0427533 0.00932193 -0.00302782 -0.0385948 0.0104316 0.00798734 -0.0367051 0.00979254 
0.000822496 -0.0363122 0.00928021 -0.0177429 -0.0346724 0.00873946 0.023158 -0.0340207 0.00965901 
0.0244271 -0.0334586 0.00977102 -0.0376897 -0.0314333 0.0100251 -0.0262624 -0.032473 0.0103006 
-0.0232422 -0.0321576 0.00996316 0.00802514 -0.031483 0.0104023 -0.0105296 -0.0314142 0.00996646 
-0.0448384 -0.0296834 0.0102126 -0.0263426 -0.0292431 0.00994156 0.0306875 -0.0259396 0.00958591 
0.032808 -0.025967 0.00979286 0.033456 -0.0256735 0.00997952 0.0436787 -0.0219137 0.0100202 
-0.00827992 -0.020547 0.00965304 0.00548761 -0.0197918 0.0103269 0.0336491 -0.0197505 0.0102434 
-0.0108877 -0.0188832 0.0101069 0.0363266 -0.0194176 0.00936002 -0.0317771 -0.0175651 0.00975836 
0.0223879 -0.0163393 0.0100374 0.0198229 -0.0156851 0.0100185 -0.0186412 -0.0134353 0.00983745 
-0.0327621 -0.0121928 0.00927642 0.0277003 -0.0107969 0.0101385 -0.0222502 -0.00974669 0.00962174 
0.0350526 -0.0102353 0.0101865 0.0406218 -0.0100941 0.0102759 -0.00553214 -0.00871323 0.0103561 
-0.0198564 -0.00683511 0.00993253 0.0161928 -0.00760918 0.00977124 -0.0129003 -0.00574839 0.00981315 
-0.0179231 -0.00300678 0.00975825 0.00975646 -0.00313231 0.00930393 -0.00896956 -0.00131708 0.00954797 
-0.00783961 -0.000387029 0.0102503 0.0384376 0.000848974 0.00979619 -0.00967086 0.00179773 0.0103702 
0.00417698 0.0024455 0.0100696 0.0116524 0.00206193 0.00969856 0.0292006 0.00433004 0.0100857 
0.0305447 0.00486582 0.0100526 0.0323225 0.00436429 0.0100015 0.0404406 0.00462082 0.0104739 
-0.0287984 0.00559412 0.01007 -0.0170872 0.00564833 0.00975926 0.0011249 0.00615697 0.00982065 
0.0101693 0.00555192 0.00908314 0.021602 0.00540593 0.00983577 0.0250346 0.00641518 0.010255 
-0.0426568 0.00723228 0.0100286 -0.0392616 0.00972366 0.00970398 -0.0101256 0.00978275 0.00933319 
0.0399323 0.0117688 0.00987715 -0.034865 0.0142961 0.00997036 -0.00867948 0.0139924 0.0102177 
0.0143092 0.0139794 0.0103756 0.0248423 0.0143007 0.0100263 0.0287781 0.014071 0.00999914 
0.0311878 0.014057 0.00928271 0.0441199 0.0136981 0.00942614 -0.0196462 0.0155185 0.0102543 
-0.0360536 0.0173104 0.0100232 0.0215224 0.0171285 0.0102125 -0.0214239 0.0189608 0.00963622 
-0.0153727 0.020636 0.0100173 -0.0282566 0.021284 0.010094 0.0123926 0.0218243 0.00992539 
0.00126512 0.0228658 0.00937565 0.021223 0.0244832 0.00953081 0.0167463 0.0251763 0.0102708 
0.0226957 0.0260881 0.00965291 0.00519606 0.0301696 0.0102246 0.0193546 0.0324404 0.00962192 
0.00317215 0.0343196 0.0103273 0.00284552 0.0345861 0.00992777 -0.0245447 0.0378537 0.00967721 
-0.00585061 0.0388609 0.00941955 -0.0312382 0.0393096 0.00984015 0.0163992 0.0415262 0.0102998 
0.0352701 0.0439749 0.00930788 0.0352379 0.0438995 0.0103754 -0.0346971 -0.0446764 0.0111231 
-0.00340304 -0.0448428 0.0116961 -0.0248654 -0.0427111 0.0109087 0.0248068 -0.0428986 0.0110952 
0.0238162 -0.0409762 0.0112901 0.0414821 -0.0410789 0.0114027 0.0424299 -0.0409921 0.0114197 
0.0156715 -0.0391733 0.0110923 0.0397687 -0.0374633 0.0109664 0.027474 -0.0338615 0.0106932 
-0.0266532 -0.0301716 0.0104555 0.00577088 -0.0287415 0.0110998 0.03382 -0.0268981 0.0110414 
-0.0338231 -0.0250135 0.0116941 0.00538025 -0.0241403 0.0114951 0.0102479 -0.024092 0.0115758 
-0.0408326 -0.0234295 0.0112561 -0.0139777 -0.0223984 0.0108731 0.0394323 -0.021923 0.0106541 
-0.0204621 -0.0172006 0.0116467 0.0030191 -0.0179247 0.0108412 0.0404767 -0.0183151 0.0105555 
0.0403752 -0.0143085 0.0106324 0.00689113 -0.0107816 0.0106319 -0.0196799 -0.00931279 0.0114339 
0.0242571 -0.0100823 0.0107753 0.00523139 -0.00599236 0.010798 0.00937085 -0.00418454 0.0108185 
-0.00702036 -0.00121172 0.0105291 -0.0416237 0.00110806 0.0110561 0.0407777 0.000744206 0.0105465 
0.0362421 0.00170773 0.0114056 -0.00723413 0.00605583 0.0115691 0.0228765 0.00606581 0.010528 
0.0212596 0.00979192 0.0105516 -0.00279986 0.0127222 0.0106811 0.0128044 0.0127337 0.0109147 
0.0261916 0.0119357 0.0109666 -0.0310202 0.0131063 0.0106882 8.23501e-07 0.0138406 0.0114082 
0.0418335 0.0161761 0.0105736 0.00546842 0.0177814 0.011173 0.0122157 0.0191756 0.0110896 
0.0388885 0.0193682 0.0114746 -0.0421793 0.0225172 0.0106639 -0.0349287 0.0230684 0.0115313 
0.03506 0.0228899 0.010996 -0.0190887 0.0269029 0.0107232 -0.0376379 0.0294143 0.0107266 
0.0444958 0.0309554 0.0106189 0.0297434 0.0373158 0.0114934 0.0311732 0.0371467 0.0109891 
0.0165329 0.0385374 0.0109772 -0.0375088 0.0393741 0.0113403 0.0251972 0.0393087 0.0105422 
-0.0181988 0.0434549 0.010526 -0.027409 -0.0433703 0.0119415 -0.0334706 -0.0396012 0.0130346 
-0.00670669 -0.0394183 0.0118457 0.0244803 -0.0401788 0.0125341 -0.0370475 -0.0370945 0.0131043 
-0.0439713 -0.0357399 0.0130122 0.00879071 -0.0344865 0.0119646 -0.0427235 -0.0332389 0.0120995 
-0.00586029 -0.0338127 0.0125088 0.0392765 -0.0300093 0.01143 -0.0240024 -0.0280603 0.0120604 
-0.00580099 -0.0272788 0.0120277 0.00623721 -0.0211799 0.0124488 0.0184681 -0.0172117 0.0125032 
0.0282033 -0.0178095 0.0113351 0.0249316 -0.014475 0.01205 0.0268005 -0.0146468 0.0124698 
-0.0329121 -0.0139828 0.0127056 0.0176437 -0.0119747 0.0124116 0.0251729 -0.00985964 0.0126251 
-0.0304645 -0.00701594 0.0121694 -0.0135858 -0.00672635 0.0118634 0.0129906 -0.00677597 0.0125855 
-0.042786 -0.00359954 0.0122251 0.0147261 0.00139147 0.0118393 -0.037077 0.00611456 0.0118259 
0.030759 0.00580352 0.0124815 0.0142017 0.0079404 0.0123658 0.0202046 0.00840095 0.0122917 
0.014866 0.0127598 0.012678 -0.0429188 0.0135204 0.012074 0.0336082 0.013194 0.0119123 
0.0226738 0.0181095 0.0127413 0.00395304 0.0187088 0.012511 -0.0431379 0.0208085 0.0121225 
0.00128112 0.0217131 0.0122493 0.0146363 0.0223077 0.0122642 -0.0386663 0.0253433 0.012857 
-0.00739359 0.0259593 0.0126451 -0.0267569 0.0263983 0.0128491 -0.0114472 0.026715 0.0121457 
0.00953871 0.0271324 0.0120326 -0.0357156 0.0282031 0.0125146 0.0191509 0.0299648 0.0125845 
-0.0313244 0.0314049 0.013047 -0.00435696 0.0325462 0.0125913 -0.041477 0.0364172 0.0130135 
-0.0112537 0.0395394 0.0127536 -0.0390027 0.0421086 0.0120375 0.00805094 0.0422278 0.0122255 
-0.0205282 0.0432397 0.0126295 0.0399235 0.0434757 0.0118452 -0.0335565 -0.0442122 0.0133504 
-0.0308094 -0.0435702 0.0137267 -0.00674967 -0.0416523 0.0135719 -0.042922 -0.0404536 0.0134602 
-0.0248652 -0.040212 0.0134263 0.0308099 -0.0378456 0.013483 0.00594186 -0.0351889 0.0131792 
0.0333162 -0.0342631 0.0135067 0.0268369 -0.0315202 0.0141773 -0.0396817 -0.0304797 0.0130884 
0.0280204 -0.0311414 0.013579 -0.0432264 -0.0264101 0.0134294 0.000892701 -0.0263701 0.013506 
-0.0323128 -0.0219837 0.0138651 0.039775 -0.0211058 0.0135199 0.00156248 -0.0194187 0.0133274 
-0.0100897 -0.0180162 0.0141167 -0.0426154 -0.0165053 0.0132055 -0.0339565 -0.0167518 0.0132369 
-0.0257955 -0.0157834 0.0135285 -0.00444012 -0.0151621 0.0134999 -0.0388614 -0.0136303 0.0133531 
-0.0117656 -0.0138394 0.013434 0.0322358 -0.0130621 0.0134356 -0.038829 -0.00978443 0.0138368 
-0.0112192 -0.0104501 0.0135874 0.00743742 -0.00926665 0.0134604 0.013874 -0.00963069 0.0142558 
0.0286804 -0.00919085 0.013582 0.0109664 -0.00760095 0.0136542 0.021323 -0.00444137 0.0137459 
-0.0141425 -0.00311887 0.0135205 -0.000610522 -0.00103491 0.0132429 -0.0260142 0.00017485 0.0132144 
0.0188762 0.00181355 0.013138 0.0449494 0.00392273 0.0134689 0.0246705 0.0064451 0.0134133 
0.0221269 0.00728552 0.0135788 0.0340899 0.00882812 0.0137178 -0.0214351 0.00957734 0.0135406 
-0.0394276 0.0109375 0.0133375 0.0398091 0.011618 0.0139016 0.00517921 0.0169249 0.0132795 
0.00976298 0.0163696 0.0131991 0.0090081 0.0191686 0.0133759 -0.022709 0.0198803 0.013529 
0.0307708 0.0242663 0.0133821 -0.00563177 0.0268155 0.0139168 -0.0200898 0.0311527 0.0133749 
0.0038092 0.0311583 0.0132945 0.0364634 0.0310238 0.0135193 -0.0073504 0.0318329 0.013964 
0.01325 0.0319187 0.0132779 -0.0264781 0.032823 0.0134787 0.0221021 0.0401282 0.0135715 
-0.0240719 -0.0268296 0.0147647 0.0054016 -0.025334 0.0148009 -0.0291427 -0.0219343 0.0147764 
-0.0269092 -0.0125643 0.0149581 -0.00433253 -0.00676057 0.0152126 0.0180565 -0.00487531 0.0152921 
-0.0408092 0.00981999 0.014451 0.00976854 0.0197772 0.0146645 -0.00782209 0.0241861 0.0153952 
-0.0152062 0.0294088 0.0142115 -0.0214415 -0.007536 0.0158056 0.039455 -0.000236508 0.0158165 
-0.00552594 0.00555795 0.015682 0.0181332 0.0246356 0.0157896 0.000162142 0.0251126 0.0157823 
0.0338942 -0.0410147 0.0182856 -0.0227164 -0.0141288 0.018694 -0.0343844 -0.0078404 0.0190075 
0.023953 0.00820576 0.0181464 -0.0160452 -0.0323821 0.0212458 -0.0405162 -0.0161033 0.020526 
0.0293019 -0.00298432 0.0207159 0.0133448 0.00646544 0.0209322 -0.00229178 0.0020129 0.0229581 
0.0433459 -0.0353282 0.0235503 0.0218308 -0.0192565 0.0236055 0.0323804 -0.0132471 0.0241338 
0.0275881 -0.00673863 0.0232875 -0.0422696 0.0340949 0.0242614 -0.0183202 -0.0175475 0.0244008 
0.0414517 -0.0114994 0.0258083 0.00264867 -0.0338128 0.0276765 0.0262592 -0.0217201 0.0271846 
-0.00474481 -0.00600267 0.0280799 0.00153271 0.0201988 0.027556 -0.032208 0.0306075 0.0272772 
0.0262096 -0.0449372 0.0284286 0.0412685 -0.0295104 0.0285751 0.0101031 -0.0273014 0.0299605 
0.0277548 0.0042931 0.0301553 0.012585 0.0155082 0.0307561 0.0354139 0.0312817 0.0306016 
0.0152528 0.033152 0.0320078 -0.00446216 -0.0255279 0.0326405 -0.0368667 0.0306348 0.0325708 
0.00314898 0.00491531 0.0344165 -0.0393221 -0.0167834 0.035692 0.0342493 -0.0115037 0.0354746 
-0.0102477 0.0267602 0.0350991 -0.0207563 -0.0111167 0.0366395 0.0223025 -0.0112244 0.0362127 
-0.0449336 -0.00957357 0.0362969 -0.0326334 -0.00963456 0.0362441 -0.0213481 0.0319153 0.0367944 
0.0439232 0.0371117 0.0367877 -0.0160353 0.0448572 0.0375361 0.0339316 -0.041715 0.0387355 
0.0302919 -0.0148257 0.0393903 0.00265626 0.00371614 0.0389719 0.0153641 0.0146287 0.0388353 
-0.0269229 0.0267788 0.0394034 0.0164577 0.0353116 0.0387176 0.00513794 0.0433856 0.0387339 
-0.0328109 -0.0226975 0.0409434 0.0114764 0.0140289 0.040372 -0.0329608 -0.0218045 0.0427856 
-0.024842 -0.00884532 0.0432398 -0.0281804 0.0418824 0.043657 -0.0336946 -0.0248459 0.0449009 
0.0320014 0.00756294 0.0450871 -0.0371624 0.011326 0.0440627 0.0323341 0.0191974 0.0456482 
-0.0420316 -0.0145538 0.0474867 0.0185094 -0.042363 0.0485095 0.0414834 -0.0181367 0.047918 
-0.0440308 0.0448256 0.0490114 0.0341086 -0.0368686 0.0500933 -0.0386256 -0.00983966 0.0494573 
0.0379188 0.0120326 0.0500723 -0.015788 -0.0282898 0.0524791 -0.0437633 0.0406561 0.0516712 
0.0289145 -0.0340196 0.0535181 -0.0419519 -0.0259749 0.0531559 0.0154702 -0.00154679 0.0542424 
-0.0144089 0.0201081 0.0551683 0.0104707 0.0313218 0.0567774 0.00357123 -0.00830953 0.0591805 
-0.0356048 -0.000104637 0.0586838 -0.0197415 0.0344175 0.0598155 0.00635633 0.000852437 0.061332 
-0.0385899 -0.0405251 0.0632627 0.0414788 -0.00521487 0.0627106 -0.0170112 0.0231088 0.0632888 
-0.0296003 0.0277025 0.0628354 -0.0245993 0.0193658 0.06362 0.0131273 0.040817 0.0641948 
-0.00521279 -0.0413279 0.0654395 0.0419483 -0.0348097 0.0649481 0.00308146 0.0401468 0.0649522 
0.0282359 -0.00877456 0.0676794 -0.0081225 0.0151775 0.0676234 -0.0155539 0.0359545 0.0683752 
-0.0256005 0.0215871 0.0697644 0.0433204 -0.0141837 0.0701059 -0.00757157 0.00454821 0.0720753 
0.0188903 -0.0308528 0.0762032 -0.0207679 -0.0256315 0.0773234 0.00643655 -0.000956063 0.0768044 
0.00741479 -0.0295782 0.0789809 0.00347554 0.00338662 0.0786058 -0.00254916 -0.00379952 0.081226 

VERTICES 649 648
OFFSETS vtktypeint64
0 1 2 3 4 5 6 7 8 
9 10 11 12 13 14 15 16 17 
18 19 20 21 22 23 24 25 26 
27 28 29 30 31 32 33 34 35 
36 37 38 39 40 41 42 43 44 
45 46 47 48 49 50 51 52 53 
54 55 56 57 58 59 60 61 62 
63 64 65 66 67 68 69 70 71 
72 73 74 75 76 77 78 79 80 
81 82 83 84 85 86 87 88 89 
90 91 92 93 94 95 96 97 98 
99 100 101 102 103 104 105 106 107 
108 109 110 111 112 113 114 115 116 
117 118 119 120 121 122 123 124 125 
126 127 128 129 130 131 132 133 134 
135 136 137 138 139 140 141 142 143 
144 145 146 147 148 149 150 151 152 
153 154 155 156 157 158 159 160 161 
162 163 164 165 166 167 168 169 170 
171 172 173 174 175 176 177 178 179 
180 181 182 183 184 185 186 187 188 
189 190 191 192 193 194 195 196 197 
198 199 200 201 202 203 204 205 206 
207 208 209 210 211 212 213 214 215 
216 217 218 219 220 221 222 223 224 
225 226 227 228 229 230 231 232 233 
234 235 236 237 238 239 240 241 242 
243 244 245 246 247 248 249 250 251 
252 253 254 255 256 257 258 259 260 
261 262 263 264 265 266 267 268 269 
270 271 272 273 274 275 276 277 278 
279 280 281 282 283 284 285 286 287 
288 289 290 291 292 293 294 295 296 
297 298 299 300 301 302 303 304 305 
306 307 308 309 310 311 312 313 314 
315 316 317 318 319 320 321 322 323 
324 325 326 327 328 329 330 331 332 
333 334 335 336 337 338 339 340 341 
342 343 344 345 346 347 348 349 350 
351 352 353 354 355 356 357 358 359 
360 361 362 363 364 365 366 367 368 
369 370 371 372 373 374 375 376 377 
378 379 380 381 382 383 384 385 386 
387 388 389 390 391 392 393 394 395 
396 397 398 399 400 401 402 403 404 
405 406 407 408 409 410 411 412 413 
414 415 416 417 418 419 420 421 422 
423 424 425 426 427 428 429 430 431 
432 433 434 435 436 437 438 439 440 
441 442 443 444 445 446 447 448 449 
450 451 452 453 454 455 456 457 458 
459 460 461 462 463 464 465 466 467 
468 469 470 471 472 473 474 475 476 
477 478 479 480 481 482 483 484 485 
486 487 488 489 490 491 492 493 494 
495 496 497 498 499 500 501 502 503 
504 505 506 507 508 509 510 511 512 
513 514 515 516 517 518 519 520 521 
522 523 524 525 526 527 528 529 530 
531 532 533 534 535 536 537 538 539 
540 541 542 543 544 545 546 547 548 
549 550 551 552 553 554 555 556 557 
558 559 560 561 562 563 564 565 566 
567 568 569 570 571 572 573 574 575 
576 577 578 579 580 581 582 583 584 
585 586 587 588 589 590 591 592 593 
594 595 596 597 598 599 600 601 602 
603 604 605 606 607 608 609 610 611 
612 613 614 615 616 617 618 619 620 
621 622 623 624 625 626 627 628 629 
630 631 632 633 634 635 636 637 638 
639 640 641 642 643 644 645 646 647 
648 
CONNECTIVITY vtktypeint64
0 1 2 3 4 5 6 7 8 
9 10 11 12 13 14 15 16 17 
18 19 20 21 22 23 24 25 26 
27 28 29 30 31 32 33 34 35 
36 37 38 39 40 41 42 43 44 
45 46 47 48 49 50 51 52 53 
54 55 56 57 58 59 60 61 62 
63 64 65 66 67 68 69 70 71 
72 73 74 75 76 77 78 79 80 
81 82 83 84 85 86 87 88 89 
90 91 92 93 94 95 96 97 98 
99 100 101 102 103 104 105 106 107 
108 109 110 111 112 113 114 115 116 
117 118 119 120 121 122 123 124 125 
126 127 128 129 130 131 132 133 134 
135 136 137 138 139 140 141 142 143 
144 145 146 147 148 149 150 151 152 
153 154 155 156 157 158 159 160 161 
162 163 164 165 166 167 168 169 170 
171 172 173 174 175 176 177 178 179 
180 181 182 183 184 185 186 187 188 
189 190 191 192 193 194 195 196 197 
198 199 200 201 202 203 204 205 206 
207 208 209 210 211 212 213 214 215 
216 217 218 219 220 221 222 223 224 
225 226 227 228 229 230 231 232 233 
234 235 236 237 238 239 240 241 242 
243 244 245 246 247 248 249 250 251 
252 253 254 255 256 257 258 259 260 
261 262 263 264 265 266 267 268 269 
270 271 272 273 274 275 276 277 278 
279 280 281 282 283 284 285 286 287 
288 289 290 291 292 293 294 295 296 
297 298 299 300 301 302 303 304 305 
306 307 308 309 310 311 312 313 314 
315 316 317 318 319 320 321 322 323 
324 325 326 327 328 329 330 331 332 
333 334 335 336 337 338 339 340 341 
342 343 344 345 346 347 348 349 350 
351 352 353 354 355 356 357 358 359 
360 361 362 363 364 365 366 367 368 
369 370 371 372 373 374 375 376 377 
378 379 380 381 382 383 384 385 386 
387 388 389 390 391 392 393 394 395 
396 397 398 399 400 401 402 403 404 
405 406 407 408 409 410 411 412 413 
414 415 416 417 418 419 420 421 422 
423 424 425 426 427 428 429 430 431 
432 433 434 435 436 437 438 439 440 
441 442 443 444 445 446 447 448 449 
450 451 452 453 454 455 456 457 458 
459 460 461 462 463 464 465 466 467 
468 469 470 471 472 473 474 475 476 
477 478 479 480 481 482 483 484 485 
486 487 488 489 490 491 492 493 494 
495 496 497 498 499 500 501 502 503 
504 505 506 507 508 509 510 511 512 
513 514 515 516 517 518 519 520 521 
522 523 524 525 526 527 528 529 530 
531 532 533 534 535 536 537 538 539 
540 541 542 543 544 545 546 547 548 
549 550 551 552 553 554 555 556 557 
558 559 560 561 562 563 564 565 566 
567 568 569 570 571 572 573 574 575 
576 577 578 579 580 581 582 583 584 
585 586 587 588 589 590 591 592 593 
594 595 596 597 598 599 600 601 602 
603 604 605 606 607 608 609 610 611 
612 613 614 615 616 617 618 619 620 
621 622 623 624 625 626 627 628 629 
630 631 632 633 634 635 636 637 638 
639 640 641 642 643 644 645 646 647 

POINT_DATA 648
FIELD FieldData 12
id 1 648 int
241 67 400 184 369 235 19 230 203 
173 492 543 283 502 37 526 192 306 
259 264 101 95 522 39 27 224 133 
382 365 538 464 262 152 97 509 419 
391 559 249 277 172 242 99 312 159 
344 402 388 69 398 103 120 234 44 
516 422 490 511 542 389 519 284 503 
501 245 497 46 48 358 228 468 220 
473 118 485 520 507 131 209 269 494 
387 309 452 536 258 136 210 359 82 
436 47 307 449 160 177 274 143 374 
194 441 23 80 499 145 338 181 41 
443 33 191 114 332 413 434 302 55 
438 31 471 489 139 354 445 71 553 
376 276 380 340 3 285 50 135 204 
77 212 300 126 153 426 528 316 124 
453 296 480 442 221 315 7 138 529 
254 179 180 466 482 182 523 361 476 
93 68 350 156 333 352 294 147 430 
335 116 403 25 448 460 43 260 42 
368 299 567 515 105 360 405 371 217 
334 305 56 379 301 420 345 273 70 
392 117 521 281 130 109 266 461 524 
504 268 481 94 455 348 225 421 232 
286 108 89 346 140 218 562 591 52 
549 35 508 34 102 487 226 239 250 
393 128 493 79 416 323 329 64 472 
479 462 170 74 157 38 53 243 252 
257 171 142 205 265 341 244 425 213 
144 129 255 401 17 363 202 469 308 
431 279 325 206 506 343 201 148 251 
320 328 123 62 342 272 164 463 84 
414 92 115 24 518 51 347 477 303 
404 505 185 137 295 121 267 190 317 
174 28 470 154 238 439 444 168 59 
146 292 227 293 311 324 72 278 383 
57 20 151 132 465 36 175 208 418 
458 216 141 407 478 456 546 396 474 
450 261 288 432 297 119 150 491 310 
395 63 178 433 339 110 166 49 18 
394 78 195 163 81 65 313 85 437 
45 318 412 397 475 275 98 113 390 
429 207 271 459 122 589 304 331 183 
415 484 223 282 513 111 298 289 355 
211 106 248 1 377 370 66 75 196 
61 486 467 214 60 378 446 169 322 
40 587 447 161 287 330 219 498 451 
327 362 198 246 76 386 375 188 256 
314 326 411 22 319 229 571 533 96 
409 167 551 517 240 290 500 349 427 
399 32 580 263 90 495 454 424 112 
21 384 236 54 417 357 337 104 100 
162 408 30 199 410 321 488 222 233 
155 372 91 406 351 366 200 457 134 
87 356 367 88 5 525 107 527 291 
576 237 440 247 496 73 176 381 58 
215 566 16 231 428 127 483 336 125 
385 564 83 186 86 353 423 165 197 
601 373 193 15 364 149 189 280 187 
158 26 253 29 270 435 13 532 547 
8 6 11 4 514 14 540 10 2 
545 12 9 577 612 563 510 570 572 
592 512 565 605 558 530 615 550 539 
638 616 573 557 561 596 534 548 645 
613 560 623 579 604 594 593 618 628 
535 585 599 554 617 583 531 614 597 
537 598 622 637 552 586 541 633 578 
569 555 581 556 595 607 590 635 603 
639 626 544 620 629 575 634 574 610 
625 611 608 568 600 630 648 647 588 
609 582 606 632 584 643 602 619 624 
646 644 631 636 627 621 640 641 642 

type 1 648 int
1 1 1 1 1 1 1 1 1 
1 1 1 1 1 1 1 1 1 
1 1 1 1 1 1 1 1 1 
1 1 1 1 1 1 1 1 1 
1 1 1 1 1 1 1 1 1 
1 1 1 1 1 1 1 1 1 
2 1 1 1 1 1 1 1 1 
1 1 1 1 1 1 1 1 1 
1 1 1 1 1 1 1 1 1 
1 1 1 1 1 1 1 1 1 
1 1 1 1 1 1 1 1 1 
1 1 1 1 1 1 1 1 1 
1 1 1 1 1 1 1 1 1 
1 1 1 1 1 1 1 1 1 
1 1 1 1 2 1 1 1 1 
1 1 1 1 1 1 1 1 1 
1 1 1 1 1 1 2 1 1 
1 1 1 1 1 1 1 1 1 
1 1 1 1 1 1 1 1 1 
1 1 1 1 1 1 1 1 1 
1 1 1 1 1 1 1 1 1 
1 1 1 1 1 1 1 1 1 
1 1 1 1 1 1 1 1 1 
1 1 1 1 1 1 1 1 1 
1 1 1 1 1 1 1 1 1 
1 1 1 1 1 1 1 1 1 
1 1 1 1 1 1 1 1 1 
1 1 1 1 1 1 1 1 1 
1 1 1 1 1 1 1 1 1 
1 1 1 1 1 1 1 1 1 
1 1 1 1 1 1 1 1 1 
1 1 1 1 1 1 1 1 1 
1 1 1 1 1 1 1 1 1 
1 1 1 1 1 1 1 1 1 
1 1 1 1 1 1 1 1 1 
1 1 1 1 1 1 1 1 1 
1 1 1 1 1 1 1 1 1 
1 1 1 1 1 1 1 1 1 
1 1 1 1 1 1 1 1 1 
1 1 1 1 1 1 1 1 1 
1 1 1 1 1 1 1 1 1 
1 1 1 1 1 1 1 1 1 
1 1 1 1 1 1 1 1 1 
1 1 1 1 1 1 1 1 1 
1 1 1 4 1 1 1 1 1 
1 1 1 1 1 1 1 1 1 
1 1 1 1 1 1 1 1 1 
1 1 1 1 1 1 1 1 1 
1 1 1 1 1 1 1 1 1 
1 1 1 1 1 1 1 1 1 
1 1 1 1 1 1 1 1 1 
1 1 1 1 1 1 1 1 1 
1 1 1 1 1 1 1 1 1 
1 1 1 1 1 1 1 1 1 
1 1 1 1 2 1 1 1 1 
1 1 1 1 1 1 1 1 1 
1 1 2 1 1 1 1 1 1 
1 1 1 1 1 1 1 1 1 
1 1 1 2 1 1 1 1 1 
1 1 1 1 1 1 2 1 1 
2 2 2 2 1 2 1 2 3 
1 2 2 1 1 1 1 1 1 
1 2 1 1 1 1 1 1 1 
1 1 1 1 1 1 1 1 1 
1 1 1 1 1 1 1 1 1 
1 1 1 1 1 1 1 1 1 
1 1 1 1 1 1 1 1 1 
1 1 1 1 1 1 1 1 1 
1 1 1 1 1 1 2 1 1 
1 1 1 1 1 1 1 1 1 
1 1 1 1 1 1 1 1 1 
1 1 1 1 1 1 1 1 1 

i 3 648 int
0 0 0 0 0 0 0 0 0 
0 0 0 0 0 0 0 0 0 
0 0 0 0 0 0 0 0 0 
0 0 0 0 0 0 0 0 0 
0 0 0 0 0 0 0 0 0 
0 0 0 0 0 0 0 0 0 
0 0 0 0 0 0 0 0 0 
0 0 0 0 0 0 0 0 0 
0 0 0 0 0 0 0 0 0 
0 0 0 0 0 0 0 0 0 
0 0 0 0 0 0 0 0 0 
0 0 0 0 0 0 0 0 0 
0 0 0 0 0 0 0 0 0 
0 0 0 0 0 0 0 0 0 
0 0 0 0 0 0 0 0 0 
0 0 0 0 0 0 0 0 0 
0 0 0 0 0 0 0 0 0 
0 0 0 0 0 0 0 0 0 
0 0 0 0 0 0 0 0 0 
0 0 0 0 0 0 0 0 0 
0 0 0 0 0 0 0 0 0 
0 0 0 0 0 0 0 0 0 
0 0 0 0 0 0 0 0 0 
0 0 0 0 0 0 0 0 0 
0 0 0 0 0 0 0 0 0 
0 0 0 0 0 0 0 0 0 
0 0 0 0 0 0 0 0 0 
0 0 0 0 0 0 0 0 0 
0 0 0 0 0 0 0 0 0 
0 0 0 0 0 0 0 0 0 
0 0 0 0 0 0 0 0 0 
0 0 0 0 0 0 0 0 0 
0 0 0 0 0 0 0 0 0 
0 0 0 0 0 0 0 0 0 
0 0 0 0 0 0 0 0 0 
0 0 0 0 0 0 0 0 0 
0 0 0 0 0 0 0 0 0 
0 0 0 0 0 0 0 0 0 
0 0 0 0 0 0 0 0 0 
0 0 0 0 0 0 0 0 0 
0 0 0 0 0 0 0 0 0 
0 0 0 0 0 0 0 0 0 
0 0 0 0 0 0 0 0 0 
0 0 0 0 0 0 0 0 0 
0 0 0 0 0 0 0 0 0 
0 0 0 0 0 0 0 0 0 
0 0 0 0 0 0 0 0 0 
0 0 0 0 0 0 0 0 0 
0 0 0 0 0 0 0 0 0 
0 0 0 0 0 0 0 0 0 
0 0 0 0 0 0 0 0 0 
0 0 0 0 0 0 0 0 0 
0 0 0 0 0 0 0 0 0 
0 0 0 0 0 0 0 0 0 
0 0 0 0 0 0 0 0 0 
0 0 0 0 0 0 0 0 0 
0 0 0 0 0 0 0 0 0 
0 0 0 0 0 0 0 0 0 
0 0 0 0 0 0 0 0 0 
0 0 0 0 0 0 0 0 0 
0 0 0 0 0 0 0 0 0 
0 0 0 0 0 0 0 0 0 
0 0 0 0 0 0 0 0 0 
0 0 0 0 0 0 0 0 0 
0 0 0 0 0 0 0 0 0 
0 0 0 0 0 0 0 0 0 
0 0 0 0 0 0 0 0 0 
0 0 0 0 0 0 0 0 0 
0 0 0 0 0 0 0 0 0 
0 0 0 0 0 0 0 0 0 
0 0 0 0 0 0 0 0 0 
0 0 0 0 0 0 0 0 0 
0 0 0 0 0 0 0 0 0 
0 0 0 0 0 0 0 0 0 
0 0 0 0 0 0 0 0 0 
0 0 0 0 0 0 0 0 0 
0 0 0 0 0 0 0 0 0 
0 0 0 0 0 0 0 0 0 
0 0 0 0 0 0 0 0 0 
0 0 0 0 0 0 0 0 0 
0 0 0 0 0 0 0 0 0 
0 0 0 0 0 0 0 0 0 
0 0 0 0 0 0 0 0 0 
0 0 0 0 0 0 0 0 0 
0 0 0 0 0 0 0 0 0 
0 0 0 0 0 0 0 0 0 
0 0 0 0 0 0 0 0 0 
0 0 0 0 0 0 0 0 0 
0 0 0 0 0 0 0 0 0 
0 0 0 0 0 0 0 0 0 
0 0 0 0 0 0 0 0 0 
0 0 0 0 0 0 0 0 0 
0 0 0 0 0 0 0 0 0 
0 0 0 0 0 0 0 0 0 
0 0 0 0 0 0 0 0 0 
0 0 0 0 0 0 0 0 0 
0 0 0 0 0 0 0 0 0 
0 0 0 0 0 0 0 0 0 
0 0 0 0 0 0 0 0 0 
0 0 0 0 0 0 0 0 0 
0 0 0 0 0 0 0 0 0 
0 0 0 0 0 0 0 0 0 
0 0 0 0 0 0 0 0 0 
0 0 0 0 0 0 0 0 0 
0 0 0 0 0 0 0 0 0 
0 0 0 0 0 0 0 0 0 
0 0 0 0 0 0 0 0 0 
0 0 0 0 0 0 0 0 0 
0 0 0 0 0 0 0 0 0 
0 0 0 0 0 0 0 0 0 
0 0 0 0 0 0 0 0 0 
0 0 0 0 0 0 0 0 0 
0 0 0 0 0 0 0 0 0 
0 0 0 0 0 0 0 0 0 
0 0 0 0 0 0 0 0 0 
0 0 0 0 0 0 0 0 0 
0 0 0 0 0 0 0 0 0 
0 0 0 0 0 0 0 0 0 
0 0 0 0 0 0 0 0 0 
0 0 0 0 0 0 0 0 0 
0 0 0 0 0 0 0 0 0 
0 0 0 0 0 0 0 0 0 
0 0 0 0 0 0 0 0 0 
0 0 0 0 0 0 0 0 0 
0 0 0 0 0 0 0 0 0 
0 0 0 0 0 0 0 0 0 
0 0 0 0 0 0 0 0 0 
0 0 0 0 0 0 0 0 0 
0 0 0 0 0 0 0 0 0 
0 0 0 0 0 0 0 0 0 
0 0 0 0 0 0 0 0 0 
0 0 0 0 0 0 0 0 0 
0 0 0 0 0 0 0 0 0 
0 0 0 0 0 0 0 0 0 
0 0 0 0 0 0 0 0 0 
0 0 0 0 0 0 0 0 0 
0 0 0 0 0 0 0 0 0 
0 0 0 0 0 0 0 0 0 
0 0 0 0 0 0 0 0 0 
0 0 0 0 0 0 0 0 0 
0 0 0 0 0 0 0 0 0 
0 0 0 0 0 0 0 0 0 
0 0 0 0 0 0 0 0 0 
0 0 0 0 0 0 0 0 0 
0 0 0 0 0 0 0 0 0 
0 0 0 0 0 0 0 0 0 
0 0 0 0 0 0 0 0 0 
0 0 0 0 0 0 0 0 0 
0 0 0 0 0 0 0 0 0 
0 0 0 0 0 0 0 0 0 
0 0 0 0 0 0 0 0 0 
0 0 0 0 0 0 0 0 0 
0 0 0 0 0 0 0 0 0 
0 0 0 0 0 0 0 0 0 
0 0 0 0 0 0 0 0 0 
0 0 0 0 0 0 0 0 0 
0 0 0 0 0 0 0 0 0 
0 0 0 0 0 0 0 0 0 
0 0 0 0 0 0 0 0 0 
0 0 0 0 0 0 0 0 0 
0 0 0 0 0 0 0 0 0 
0 0 0 0 0 0 0 0 0 
0 0 0 0 0 0 0 0 0 
0 0 0 0 0 0 0 0 0 
0 0 0 0 0 0 0 0 0 
0 0 0 0 0 0 0 0 0 
0 0 0 0 0 0 0 0 0 
0 0 0 0 0 0 0 0 0 
0 0 0 0 0 0 0 0 0 
0 0 0 0 0 0 0 0 0 
0 0 0 0 0 0 0 0 0 
0 0 0 0 0 0 0 0 0 
0 0 0 0 0 0 0 0 0 
0 0 0 0 0 0 0 0 0 
0 0 0 0 0 0 0 0 0 
0 0 0 0 0 0 0 0 0 
0 0 0 0 0 0 0 0 0 
0 0 0 0 0 0 0 0 0 
0 0 0 0 0 0 0 0 0 
0 0 0 0 0 0 0 0 0 
0 0 0 0 0 0 0 0 0 
0 0 0 0 0 0 0 0 0 
0 0 0 0 0 0 0 0 0 
0 0 0 0 0 0 0 0 0 
0 0 0 0 0 0 0 0 0 
0 0 0 0 0 0 0 0 0 
0 0 0 0 0 0 0 0 0 
0 0 0 0 0 0 0 0 0 
0 0 0 0 0 0 0 0 0 
0 0 0 0 0 0 0 0 0 
0 0 0 0 0 0 0 0 0 
0 0 0 0 0 0 0 0 0 
0 0 0 0 0 0 0 0 0 
0 0 0 0 0 0 0 0 0 
0 0 0 0 0 0 0 0 0 
0 0 0 0 0 0 0 0 0 
0 0 0 0 0 0 0 0 0 
0 0 0 0 0 0 0 0 0 
0 0 0 0 0 0 0 0 0 
0 0 0 0 0 0 0 0 0 
0 0 0 0 0 0 0 0 0 
0 0 0 0 0 0 0 0 0 
0 0 0 0 0 0 0 0 0 
0 0 0 0 0 0 0 0 0 
0 0 0 0 0 0 0 0 0 
0 0 0 0 0 0 0 0 0 
0 0 0 0 0 0 0 0 0 
0 0 0 0 0 0 0 0 0 
0 0 0 0 0 0 0 0 0 
0 0 0 0 0 0 0 0 0 
0 0 0 0 0 0 0 0 0 
0 0 0 0 0 0 0 0 0 
0 0 0 0 0 0 0 0 0 
0 0 0 0 0 0 0 0 0 
0 0 0 0 0 0 0 0 0 
0 0 0 0 0 0 0 0 0 

v 3 648 double
0 0 0.26037896508 0 0 0.2486148737 0 0 0.21863811647 
0 0 0.22648349633 0 0 0.2645495455 0 0 0.21713637709 
0 0 0.25081311428 0 0 0.27650466104 0 0 0.21341963833 
0 0 0.2460740027 0 0 0.24431099088 0 0 -0.5421241875 
0 0 0.24202407191 0 0 0.20048457339 0 0 0.24984308977 
0 0 0.21650066644 0 0 0.22604735402 0 0 0.21565363914 
0 0 0.23797726065 0 0 0.22385811028 0 0 0.23982485498 
0 0 0.21259615131 0 0 0.23318777565 0 0 0.24196182451 
0 0 0.27311585941 0 0 0.24485765393 0 0 0.25915634508 
0 0 0.21990155107 0 0 0.23657987951 0 0 0.17532510047 
0 0 0.24700271301 0 0 0.2028634648 0 0 0.24052523015 
0 0 0.23899566995 0 0 0.18822889194 0 0 0.21262219877 
0 0 0.24606010339 0 0 0.20468435746 0 0 0.24861555303 
0 0 0.25053947211 0 0 0.24666108082 0 0 0.23531235965 
0 0 0.18738529095 0 0 0.22979465647 0 0 0.1954177894 
0 0 0.20711730122 0 0 0.23526633461 0 0 0.22402456595 
0 0 0.19779211057 0 0 0.24995047774 0 0 0.20116063551 
0 0 0.23742618535 0 0 0.22684282182 0 0 0.23180637891 
0 0 -0.5941241875 0 0 0.23465931795 0 0 0.23104591095 
0 0 0.21381325085 0 0 0.16615779353 0 0 0.23787343547 
0 0 0.21853195628 0 0 0.22855870073 0 0 0.18726855049 
0 0 0.22194588516 0 0 0.2288441891 0 0 0.1958499161 
0 0 0.1882919172 0 0 0.22690593359 0 0 0.20862627249 
0 0 0.2295979427 0 0 0.2379680978 0 0 0.18909506627 
0 0 0.23171039598 0 0 0.19865519481 0 0 0.22697942358 
0 0 0.2019703166 0 0 0.1723542658 0 0 0.23674310429 
0 0 0.22557903403 0 0 0.26461767595 0 0 0.24494641767 
0 0 0.20680443114 0 0 0.19832263202 0 0 0.23020128041 
0 0 0.19912059261 0 0 0.21869625133 0 0 0.21916495266 
0 0 0.21592201482 0 0 0.21223865276 0 0 0.17557845373 
0 0 0.18339570144 0 0 0.23330619727 0 0 0.22496734953 
0 0 0.18389145664 0 0 0.18809072821 0 0 0.22082386999 
0 0 0.18165911358 0 0 0.18926496997 0 0 0.18123365188 
0 0 0.18217932123 0 0 0.22405851482 0 0 0.22119466802 
0 0 0.22254859327 0 0 0.23337066114 0 0 0.21739448895 
0 0 0.17286277147 0 0 0.18356804632 0 0 0.22067609293 
0 0 0.1808666031 0 0 0.19071225608 0 0 0.2218019701 
0 0 0.17783306688 0 0 0.21714906016 0 0 0.18897047843 
0 0 0.22380356447 0 0 0.17769060812 0 0 0.17604598209 
0 0 0.17994507506 0 0 0.16804698685 0 0 0.20638271096 
0 0 0.16818595375 0 0 0.18073563033 0 0 0.20605031937 
0 0 0.16276174398 0 0 0.15058814713 0 0 -0.5291241875 
0 0 0.20686349882 0 0 0.20503990857 0 0 0.17060355806 
0 0 0.21603205362 0 0 0.24271659217 0 0 0.20045798966 
0 0 0.23507617388 0 0 0.16091855323 0 0 0.16021370917 
0 0 0.21370425621 0 0 0.20485445307 0 0 0.23179118588 
0 0 0.17478911312 0 0 0.21006928156 0 0 0.1626047918 
0 0 -0.5681241875 0 0 0.24092340314 0 0 0.20687851031 
0 0 0.21332515957 0 0 0.20843362228 0 0 0.21479758543 
0 0 0.21175116919 0 0 0.20381172276 0 0 0.20944644696 
0 0 0.2439091462 0 0 0.18935363391 0 0 0.16997874761 
0 0 0.17921887953 0 0 0.2071654619 0 0 0.21472820721 
0 0 0.21115297599 0 0 0.20957614581 0 0 0.17052361484 
0 0 -0.5811241875 0 0 0.15676764039 0 0 0.20337529296 
0 0 0.18778290395 0 0 0.19067172217 0 0 0.19626515029 
0 0 0.18985783405 0 0 0.15594258255 0 0 0.13266627286 
0 0 0.14318909224 0 0 0.19594984948 0 0 0.2017599779 
0 0 0.20531775749 0 0 0.19177703858 0 0 0.1884854792 
0 0 0.18887297158 0 0 0.21000148654 0 0 0.19389837989 
0 0 0.1940875013 0 0 0.13596073108 0 0 0.1528314732 
0 0 0.14557680196 0 0 0.13492068374 0 0 -0.5096241875 
0 0 0.10346887512 0 0 0.18876303486 0 0 0.15872446945 
0 0 0.1944925969 0 0 0.18528368975 0 0 0.18583308787 
0 0 0.13542494523 0 0 0.19334878792 0 0 0.13914539158 
0 0 0.193895902 0 0 0.19304664733 0 0 0.14226710405 
0 0 0.14646815149 0 0 0.14922307024 0 0 0.19726637681 
0 0 0.13880986971 0 0 0.14875264141 0 0 0.10354593216 
0 0 0.20347986661 0 0 0.20223054167 0 0 0.15140274817 
0 0 0.19244614277 0 0 0.13716602165 0 0 -0.5811241875 
0 0 0.12176759474 0 0 0.13415708622 0 0 0.18741924107 
0 0 0.15146830399 0 0 0.1931544822 0 0 0.14635900741 
0 0 0.184805019 0 0 0.19764248639 0 0 0.15159698385 
0 0 0.19045118137 0 0 0.14254502975 0 0 0.18352613334 
0 0 0.13120777306 0 0 0.12283689411 0 0 0.097767901084 
0 0 -0.5193741875 0 0 -0.4836241875 0 0 0.17546003861 
0 0 -0.5323741875 0 0 0.10367185006 0 0 0.068573391705 
0 0 0.10529933936 0 0 0.17208269518 0 0 0.17861890542 
0 0 0.12408071788 0 0 0.18439724689 0 0 0.17837097187 
0 0 0.17683264348 0 0 0.12400035534 0 0 0.18144621891 
0 0 0.17921760613 0 0 0.17895726513 0 0 0.1809996632 
0 0 0.17453335461 0 0 0.10783381714 0 0 0.12959679896 
0 0 0.11350962461 0 0 0.18103601458 0 0 0.17131208147 
0 0 0.17711429142 0 0 0.11433826982 0 0 0.18106620819 
0 0 0.17289878782 0 0 0.1079717155 0 0 0.17296150989 
0 0 0.13195282251 0 0 0.18147049401 0 0 0.17638496777 
0 0 0.1772339731 0 0 0.17870523114 0 0 0.12246604274 
0 0 0.17126429975 0 0 0.19954063999 0 0 0.20409922836 
0 0 0.1812660744 0 0 0.10978748785 0 0 0.098753541683 
0 0 0.11559703168 0 0 0.17532291696 0 0 0.17914684385 
0 0 0.10789927481 0 0 0.13432677989 0 0 0.11204313592 
0 0 0.17021785458 0 0 0.17540196755 0 0 0.18204380167 
0 0 0.17088111842 0 0 0.064336542713 0 0 0.12944942376 
0 0 0.10883188086 0 0 0.11816965513 0 0 0.13005463756 
0 0 0.10859201317 0 0 0.10000484124 0 0 0.18827277206 
0 0 0.10948595801 0 0 0.18219763149 0 0 0.13439400443 
0 0 0.015621280117 0 0 0.075222291698 0 0 0.15006434304 
0 0 0.16664833282 0 0 0.037587090103 0 0 0.009740929619 
0 0 0.096627197934 0 0 -0.5941241875 0 0 0.076483492535 
0 0 0.069008225601 0 0 0.15457273744 0 0 0.09486903286 
0 0 0.062259101829 0 0 0.13074637421 0 0 0.021126535737 
0 0 0.074022673871 0 0 0.15732096037 0 0 0.108328135 
0 0 0.076755818946 0 0 0.027734110731 0 0 0.060110070519 
0 0 0.12606227387 0 0 0.15354300132 0 0 0.052402698849 
0 0 0.044816072907 0 0 0.087352322515 0 0 0.077501862799 
0 0 0.054567624109 0 0 0.10719335589 0 0 0.16410541349 
0 0 0.16633324937 0 0 0.061026537094 0 0 0.089229974053 
0 0 0.031812029223 0 0 0.15218592589 0 0 0.098324978321 
0 0 0.021552254613 0 0 0.16011351024 0 0 0.0074109123475 
0 0 0.0032149419304 0 0 0.16603206818 0 0 0.16278005131 
0 0 0.058999713581 0 0 0.011676372491 0 0 0.058445576749 
0 0 0.046420990619 0 0 0.17248609087 0 0 0.029600557368 
0 0 0.041565868858 0 0 0.15445265913 0 0 0.12187021697 
0 0 0.04317507228 0 0 0.071364341194 0 0 0.068240037878 
0 0 -0.5356241875 0 0 0.009213264077 0 0 0.15613596076 
0 0 0.023848945253 0 0 0.083793786686 0 0 0.08881171245 
0 0 0.063772261746 0 0 0.052182173654 0 0 0.1564653253 
0 0 0.026355194288 0 0 0.021087132815 0 0 0.047126770652 
0 0 0.17089161168 0 0 0.16358089255 0 0 0.15081992758 
0 0 0.03158760836 0 0 0.039736957549 0 0 0.075898748338 
0 0 0.03913476435 0 0 0.043135021412 0 0 0.019375329143 
0 0 0.17339628494 0 0 0.19291361574 0 0 0.015439380452 
0 0 0.075853766896 0 0 0.15742848505 0 0 0.17534626591 
0 0 0.15569925336 0 0 0.062859124251 0 0 0.13178584593 
0 0 0.17074576182 0 0 0.089665503033 0 0 0.076917480661 
0 0 0.16658565288 0 0 0.15254326791 0 0 0.13738215508 
0 0 0.12404467778 0 0 0.14033597516 0 0 0.13578764223 
0 0 0.13723175081 0 0 0.082308887422 0 0 0.15535166326 
0 0 0.039514103353 0 0 0.14067181923 0 0 -0.4836241875 
0 0 0.035931688561 0 0 0.05800299375 0 0 0.14076100823 
0 0 0.12408027993 0 0 0.14615593076 0 0 0.15941348372 
0 0 0.059178531192 0 0 -0.60387418749 0 0 0.16762910065 
0 0 0.12974946234 0 0 0.052423948708 0 0 0.071244318307 
0 0 0.1490291819 0 0 0.032091708202 0 0 0.12934948595 
0 0 0.29387995422 0 0 0.14876487987 0 0 0.026579827308 
0 0 0.060872676344 0 0 0.13704936554 0 0 0.15099916526 
0 0 0.13757810664 0 0 0.13297189267 0 0 0.071546373693 
0 0 0.029320908054 0 0 0.087308718857 0 0 0.14424081688 
0 0 0.13980203214 0 0 0.017313830138 0 0 0.05462722004 
0 0 0.086731269513 0 0 -0.4868741875 0 0 0.14174030288 
0 0 0.13878985738 0 0 0.14353643671 0 0 0.13042308518 
0 0 0.026536251559 0 0 0.14759876619 0 0 0.14750400908 
0 0 0.070802239683 0 0 0.024428323639 0 0 0.14463254587 
0 0 0.047384009742 0 0 0.13196647004 0 0 0.04989181787 
0 0 0.14606015857 0 0 0.11830336513 0 0 0.087421906591 
0 0 0.12162902456 0 0 0.12258039687 0 0 0.12355085003 
0 0 0.11181916274 0 0 0.1175874339 0 0 0.11571602016 
0 0 -0.5031241875 0 0 -0.5551241875 0 0 0.14548357148 
0 0 0.11921553399 0 0 0.10540622914 0 0 -0.5291241875 
0 0 -0.5941241875 0 0 0.13582723559 0 0 0.11202078997 
0 0 0.11160299698 0 0 0.10923049807 0 0 0.1039719905 
0 0 0.11257497473 0 0 0.1380744641 0 0 -0.4933741875 
0 0 0.11117609918 0 0 0.1206492242 0 0 0.12468985711 
0 0 0.10410246489 0 0 0.12047893011 0 0 0.1212247643 
0 0 0.12212589378 0 0 0.12899012922 0 0 0.14193483075 
0 0 0.1332369558 0 0 0.10352479497 0 0 0.13403419577 
0 0 0.11170560353 0 0 0.12637410205 0 0 0.093367702503 
0 0 0.1027179656 0 0 0.095554941653 0 0 0.13327332218 
0 0 0.11770218855 0 0 0.10373787469 0 0 0.10105324157 
0 0 0.086420565038 0 0 0.12017645261 0 0 0.090122659444 
0 0 0.10554306089 0 0 0.034275361376 0 0 0.11149667665 
0 0 0.10438099012 0 0 0.12037425693 0 0 0.066731370692 
0 0 0.04223960083 0 0 0.082406243403 0 0 0.042907498223 
0 0 0.073371025138 0 0 0.051954879721 0 0 0.078371162096 
0 0 0.05350193824 0 0 0.13148237614 0 0 -0.5746241875 
0 0 0.044328643225 0 0 -0.5713741875 0 0 0.047266393465 
0 0 -0.4966241875 0 0 0.069491424948 0 0 0.081111514499 
0 0 0.066353355996 0 0 0.095677991588 0 0 0.090294792349 
0 0 0.050593376759 0 0 0.056707748483 0 0 0.068161617136 
0 0 0.05762649073 0 0 -0.5096241875 0 0 0.13639753975 
0 0 0.042243854464 0 0 0.040578200432 0 0 0.052962521382 
0 0 0.082730842435 0 0 0.057649942016 0 0 0.067531209015 
0 0 0.05716821721 0 0 -0.5128741875 0 0 0.076191099354 
0 0 0.080229259803 0 0 0.051122523635 0 0 0.060487892851 
0 0 0.048093269148 0 0 0.068389568596 0 0 0.043699078578 
0 0 -0.4673741875 0 0 0.068548118708 0 0 0.071623017659 
0 0 0.17454926443 0 0 0.071098547081 0 0 0.049548806034 
0 0 0.063328642577 0 0 0.082499106039 0 0 0.064188647094 
0 0 0.074595856594 0 0 0.04564453854 0 0 0.073188378244 
0 0 0.073482530329 0 0 0.044006885097 0 0 0.10194852913 
0 0 0.11679021339 0 0 -0.5583741875 0 0 -0.5356241875 
0 0 0.10587065003 0 0 0.056305855619 0 0 0.073455756865 
0 0 0.15248258077 0 0 -0.60387418749 0 0 0.090181380697 
0 0 -0.5453741875 0 0 0.12014763689 0 0 0.17381946505 
0 0 -0.5388741875 0 0 0.076183513165 0 0 0.10270223163 
0 0 -0.4966241875 0 0 -0.4511241875 0 0 -0.5161241875 
0 0 -0.61037418749 0 0 -0.5031241875 0 0 -0.5031241875 
0 0 -0.4803741875 0 0 -0.60387418749 0 0 -0.5128741875 
0 0 -0.4641241875 0 0 -0.5226241875 0 0 -0.5616241875 
0 0 -0.4511241875 0 0 -0.5323741875 0 0 -0.5453741875 
0 0 -0.4316241875 0 0 -0.4478741875 0 0 -0.4998741875 
0 0 -0.5226241875 0 0 -0.5193741875 0 0 -0.4738741875 
0 0 -0.5551241875 0 0 -0.5323741875 0 0 -0.4283741875 
0 0 -0.4511241875 0 0 -0.5193741875 0 0 -0.4413741875 
0 0 -0.4933741875 0 0 -0.4641241875 0 0 -0.4771241875 
0 0 -0.4771241875 0 0 -0.4478741875 0 0 -0.4413741875 
0 0 -0.5518741875 0 0 -0.4901241875 0 0 -0.4706241875 
0 0 -0.5258741875 0 0 -0.4478741875 0 0 -0.4901241875 
0 0 -0.5616241875 0 0 -0.4511241875 0 0 -0.4738741875 
0 0 -0.5518741875 0 0 -0.4738741875 0 0 -0.4446241875 
0 0 -0.4348741875 0 0 -0.5291241875 0 0 -0.4868741875 
0 0 -0.5453741875 0 0 -0.4381241875 0 0 -0.4933741875 
0 0 -0.5031241875 0 0 -0.5258741875 0 0 -0.4933741875 
0 0 -0.5258741875 0 0 -0.4771241875 0 0 -0.4608741875 
0 0 -0.4836241875 0 0 -0.4348741875 0 0 -0.4641241875 
0 0 -0.4316241875 0 0 -0.4413741875 0 0 -0.5421241875 
0 0 -0.4446241875 0 0 -0.4413741875 0 0 -0.4998741875 
0 0 -0.4348741875 0 0 -0.4998741875 0 0 -0.4576241875 
0 0 -0.4413741875 0 0 -0.4543741875 0 0 -0.4608741875 
0 0 -0.5063741875 0 0 -0.4673741875 0 0 -0.4413741875 
0 0 -0.4283741875 0 0 -0.4283741875 0 0 -0.4868741875 
0 0 -0.4576241875 0 0 -0.4901241875 0 0 -0.4641241875 
0 0 -0.4381241875 0 0 -0.4901241875 0 0 -0.4283741875 
0 0 -0.4641241875 0 0 -0.4446241875 0 0 -0.4413741875 
0 0 -0.4283741875 0 0 -0.4283741875 0 0 -0.4381241875 
0 0 -0.4348741875 0 0 -0.4413741875 0 0 -0.4446241875 
0 0 -0.4316241875 0 0 -0.4316241875 0 0 -0.4283741875 

f 3 648 double
0 0 -1.7425367252e-10 0 0 -1.7425367252e-10 0 0 -1.7425367252e-10 
0 0 -1.7425367252e-10 0 0 -1.7425367252e-10 0 0 -1.7425367252e-10 
0 0 -1.7425367252e-10 0 0 -1.7425367252e-10 0 0 -1.7425367252e-10 
0 0 -1.7425367252e-10 0 0 -1.7425367252e-10 0 0 -1.7425367252e-10 
0 0 -1.7425367252e-10 0 0 -1.7425367252e-10 0 0 -1.7425367252e-10 
0 0 -1.7425367252e-10 0 0 -1.7425367252e-10 0 0 -1.7425367252e-10 
0 0 -1.7425367252e-10 0 0 -1.7425367252e-10 0 0 -1.7425367252e-10 
0 0 -1.7425367252e-10 0 0 -1.7425367252e-10 0 0 -1.7425367252e-10 
0 0 -1.7425367252e-10 0 0 -1.7425367252e-10 0 0 -1.7425367252e-10 
0 0 -1.7425367252e-10 0 0 -1.7425367252e-10 0 0 -1.7425367252e-10 
0 0 -1.7425367252e-10 0 0 -1.7425367252e-10 0 0 -1.7425367252e-10 
0 0 -1.7425367252e-10 0 0 -1.7425367252e-10 0 0 -1.7425367252e-10 
0 0 -1.7425367252e-10 0 0 -1.7425367252e-10 0 0 -1.7425367252e-10 
0 0 -1.7425367252e-10 0 0 -1.7425367252e-10 0 0 -1.7425367252e-10 
0 0 -1.7425367252e-10 0 0 -1.7425367252e-10 0 0 -1.7425367252e-10 
0 0 -1.7425367252e-10 0 0 -1.7425367252e-10 0 0 -1.7425367252e-10 
0 0 -1.7425367252e-10 0 0 -1.7425367252e-10 0 0 -1.7425367252e-10 
0 0 -1.7425367252e-10 0 0 -1.7425367252e-10 0 0 -1.7425367252e-10 
0 0 -8.9019973083e-09 0 0 -1.7425367252e-10 0 0 -1.7425367252e-10 
0 0 -1.7425367252e-10 0 0 -1.7425367252e-10 0 0 -1.7425367252e-10 
0 0 -1.7425367252e-10 0 0 -1.7425367252e-10 0 0 -1.7425367252e-10 
0 0 -1.7425367252e-10 0 0 -1.7425367252e-10 0 0 -1.7425367252e-10 
0 0 -1.7425367252e-10 0 0 -1.7425367252e-10 0 0 -1.7425367252e-10 
0 0 -1.7425367252e-10 0 0 -1.7425367252e-10 0 0 -1.7425367252e-10 
0 0 -1.7425367252e-10 0 0 -1.7425367252e-10 0 0 -1.7425367252e-10 
0 0 -1.7425367252e-10 0 0 -1.7425367252e-10 0 0 -1.7425367252e-10 
0 0 -1.7425367252e-10 0 0 -1.7425367252e-10 0 0 -1.7425367252e-10 
0 0 -1.7425367252e-10 0 0 -1.7425367252e-10 0 0 -1.7425367252e-10 
0 0 -1.7425367252e-10 0 0 -1.7425367252e-10 0 0 -1.7425367252e-10 
0 0 -1.7425367252e-10 0 0 -1.7425367252e-10 0 0 -1.7425367252e-10 
0 0 -1.7425367252e-10 0 0 -1.7425367252e-10 0 0 -1.7425367252e-10 
0 0 -1.7425367252e-10 0 0 -1.7425367252e-10 0 0 -1.7425367252e-10 
0 0 -1.7425367252e-10 0 0 -1.7425367252e-10 0 0 -1.7425367252e-10 
0 0 -1.7425367252e-10 0 0 -1.7425367252e-10 0 0 -1.7425367252e-10 
0 0 -1.7425367252e-10 0 0 -1.7425367252e-10 0 0 -1.7425367252e-10 
0 0 -1.7425367252e-10 0 0 -1.7425367252e-10 0 0 -1.7425367252e-10 
0 0 -1.7425367252e-10 0 0 -1.7425367252e-10 0 0 -1.7425367252e-10 
0 0 -1.7425367252e-10 0 0 -1.7425367252e-10 0 0 -1.7425367252e-10 
0 0 -1.7425367252e-10 0 0 -1.7425367252e-10 0 0 -1.7425367252e-10 
0 0 -1.7425367252e-10 0 0 -1.7425367252e-10 0 0 -1.7425367252e-10 
0 0 -1.7425367252e-10 0 0 -1.7425367252e-10 0 0 -1.7425367252e-10 
0 0 -1.7425367252e-10 0 0 -1.7425367252e-10 0 0 -1.7425367252e-10 
0 0 -1.7425367252e-10 0 0 -1.7425367252e-10 0 0 -1.7425367252e-10 
0 0 -1.7425367252e-10 0 0 -8.9019973083e-09 0 0 -1.7425367252e-10 
0 0 -1.7425367252e-10 0 0 -1.7425367252e-10 0 0 -1.7425367252e-10 
0 0 -1.7425367252e-10 0 0 -1.7425367252e-10 0 0 -1.7425367252e-10 
0 0 -1.7425367252e-10 0 0 -1.7425367252e-10 0 0 -1.7425367252e-10 
0 0 -1.7425367252e-10 0 0 -1.7425367252e-10 0 0 -1.7425367252e-10 
0 0 -1.7425367252e-10 0 0 -1.7425367252e-10 0 0 -1.7425367252e-10 
0 0 -1.7425367252e-10 0 0 -1.7425367252e-10 0 0 -1.7425367252e-10 
0 0 -8.9019973083e-09 0 0 -1.7425367252e-10 0 0 -1.7425367252e-10 
0 0 -1.7425367252e-10 0 0 -1.7425367252e-10 0 0 -1.7425367252e-10 
0 0 -1.7425367252e-10 0 0 -1.7425367252e-10 0 0 -1.7425367252e-10 
0 0 -1.7425367252e-10 0 0 -1.7425367252e-10 0 0 -1.7425367252e-10 
0 0 -1.7425367252e-10 0 0 -1.7425367252e-10 0 0 -1.7425367252e-10 
0 0 -1.7425367252e-10 0 0 -1.7425367252e-10 0 0 -1.7425367252e-10 
0 0 -1.7425367252e-10 0 0 -1.7425367252e-10 0 0 -1.7425367252e-10 
0 0 -1.7425367252e-10 0 0 -1.7425367252e-10 0 0 -1.7425367252e-10 
0 0 -1.7425367252e-10 0 0 -1.7425367252e-10 0 0 -1.7425367252e-10 
0 0 -1.7425367252e-10 0 0 -1.7425367252e-10 0 0 -1.7425367252e-10 
0 0 -1.7425367252e-10 0 0 -1.7425367252e-10 0 0 -1.7425367252e-10 
0 0 -1.7425367252e-10 0 0 -1.7425367252e-10 0 0 -1.7425367252e-10 
0 0 -1.7425367252e-10 0 0 -1.7425367252e-10 0 0 -1.7425367252e-10 
0 0 -1.7425367252e-10 0 0 -1.7425367252e-10 0 0 -1.7425367252e-10 
0 0 -1.7425367252e-10 0 0 -1.7425367252e-10 0 0 -1.7425367252e-10 
0 0 -1.7425367252e-10 0 0 -1.7425367252e-10 0 0 -1.7425367252e-10 
0 0 -1.7425367252e-10 0 0 -1.7425367252e-10 0 0 -1.7425367252e-10 
0 0 -1.7425367252e-10 0 0 -1.7425367252e-10 0 0 -1.7425367252e-10 
0 0 -1.7425367252e-10 0 0 -1.7425367252e-10 0 0 -1.7425367252e-10 
0 0 -1.7425367252e-10 0 0 -1.7425367252e-10 0 0 -1.7425367252e-10 
0 0 -1.7425367252e-10 0 0 -1.7425367252e-10 0 0 -1.7425367252e-10 
0 0 -1.7425367252e-10 0 0 -1.7425367252e-10 0 0 -1.7425367252e-10 
0 0 -1.7425367252e-10 0 0 -1.7425367252e-10 0 0 -1.7425367252e-10 
0 0 -1.7425367252e-10 0 0 -1.7425367252e-10 0 0 -1.7425367252e-10 
0 0 -1.7425367252e-10 0 0 -1.7425367252e-10 0 0 -1.7425367252e-10 
0 0 -1.7425367252e-10 0 0 -1.7425367252e-10 0 0 -1.7425367252e-10 
0 0 -1.7425367252e-10 0 0 -1.7425367252e-10 0 0 -1.7425367252e-10 
0 0 -1.7425367252e-10 0 0 -1.7425367252e-10 0 0 -1.7425367252e-10 
0 0 -1.7425367252e-10 0 0 -1.7425367252e-10 0 0 -1.7425367252e-10 
0 0 -1.7425367252e-10 0 0 -1.7425367252e-10 0 0 -1.7425367252e-10 
0 0 -1.7425367252e-10 0 0 -1.7425367252e-10 0 0 -1.7425367252e-10 
0 0 -1.7425367252e-10 0 0 -1.7425367252e-10 0 0 -1.7425367252e-10 
0 0 -1.7425367252e-10 0 0 -1.7425367252e-10 0 0 -1.7425367252e-10 
0 0 -1.7425367252e-10 0 0 -1.7425367252e-10 0 0 -1.7425367252e-10 
0 0 -1.7425367252e-10 0 0 -1.7425367252e-10 0 0 -1.7425367252e-10 
0 0 -1.7425367252e-10 0 0 -1.7425367252e-10 0 0 -1.7425367252e-10 
0 0 -1.7425367252e-10 0 0 -1.7425367252e-10 0 0 -1.7425367252e-10 
0 0 -1.7425367252e-10 0 0 -1.7425367252e-10 0 0 -1.7425367252e-10 
0 0 -1.7425367252e-10 0 0 -1.7425367252e-10 0 0 -1.7425367252e-10 
0 0 -1.7425367252e-10 0 0 -1.7425367252e-10 0 0 -1.7425367252e-10 
0 0 -1.7425367252e-10 0 0 -1.7425367252e-10 0 0 -1.7425367252e-10 
0 0 -1.7425367252e-10 0 0 -1.7425367252e-10 0 0 -1.7425367252e-10 
0 0 -1.7425367252e-10 0 0 -1.7425367252e-10 0 0 -1.7425367252e-10 
0 0 -1.7425367252e-10 0 0 -1.7425367252e-10 0 0 -1.7425367252e-10 
0 0 -1.7425367252e-10 0 0 -1.7425367252e-10 0 0 -1.7425367252e-10 
0 0 -1.7425367252e-10 0 0 -1.7425367252e-10 0 0 -1.7425367252e-10 
0 0 -1.7425367252e-10 0 0 -1.7425367252e-10 0 0 -1.7425367252e-10 
0 0 -1.7425367252e-10 0 0 -1.7425367252e-10 0 0 -1.7425367252e-10 
0 0 -1.7425367252e-10 0 0 -1.7425367252e-10 0 0 -1.7425367252e-10 
0 0 -1.7425367252e-10 0 0 -1.7425367252e-10 0 0 -1.7425367252e-10 
0 0 -1.7425367252e-10 0 0 -1.7425367252e-10 0 0 -1.7425367252e-10 
0 0 -1.7425367252e-10 0 0 -1.7425367252e-10 0 0 -1.7425367252e-10 
0 0 -1.7425367252e-10 0 0 -1.7425367252e-10 0 0 -1.7425367252e-10 
0 0 -1.7425367252e-10 0 0 -1.7425367252e-10 0 0 -1.7425367252e-10 
0 0 -1.7425367252e-10 0 0 -1.7425367252e-10 0 0 -1.7425367252e-10 
0 0 -1.7425367252e-10 0 0 -1.7425367252e-10 0 0 -1.7425367252e-10 
0 0 -1.7425367252e-10 0 0 -1.7425367252e-10 0 0 -1.7425367252e-10 
0 0 -1.7425367252e-10 0 0 -1.7425367252e-10 0 0 -1.7425367252e-10 
0 0 -1.7425367252e-10 0 0 -1.7425367252e-10 0 0 -1.7425367252e-10 
0 0 -1.7425367252e-10 0 0 -1.7425367252e-10 0 0 -1.7425367252e-10 
0 0 -1.7425367252e-10 0 0 -1.7425367252e-10 0 0 -1.7425367252e-10 
0 0 -1.7425367252e-10 0 0 -1.7425367252e-10 0 0 -1.7425367252e-10 
0 0 -1.7425367252e-10 0 0 -1.7425367252e-10 0 0 -1.7425367252e-10 
0 0 -1.7425367252e-10 0 0 -1.7425367252e-10 0 0 -1.7425367252e-10 
0 0 -1.7425367252e-10 0 0 -1.7425367252e-10 0 0 -1.7425367252e-10 
0 0 -1.7425367252e-10 0 0 -1.7425367252e-10 0 0 -1.7425367252e-10 
0 0 -1.7425367252e-10 0 0 -1.7425367252e-10 0 0 -1.7425367252e-10 
0 0 -1.7425367252e-10 0 0 -1.7425367252e-10 0 0 -1.7425367252e-10 
0 0 -1.7425367252e-10 0 0 -1.7425367252e-10 0 0 -1.7425367252e-10 
0 0 -1.7425367252e-10 0 0 -1.7425367252e-10 0 0 -1.7425367252e-10 
0 0 -1.7425367252e-10 0 0 -1.7425367252e-10 0 0 -1.7425367252e-10 
0 0 -1.7425367252e-10 0 0 -1.7425367252e-10 0 0 -1.7425367252e-10 
0 0 -1.7425367252e-10 0 0 -1.7425367252e-10 0 0 -1.7425367252e-10 
0 0 -1.7425367252e-10 0 0 -1.7425367252e-10 0 0 -1.7425367252e-10 
0 0 -1.7425367252e-10 0 0 -1.7425367252e-10 0 0 -1.7425367252e-10 
0 0 -1.7425367252e-10 0 0 -1.7425367252e-10 0 0 -1.7425367252e-10 
0 0 -1.7425367252e-10 0 0 -1.7425367252e-10 0 0 -1.7425367252e-10 
0 0 -1.7425367252e-10 0 0 -1.7425367252e-10 0 0 -1.7425367252e-10 
0 0 -1.7425367252e-10 0 0 -1.7425367252e-10 0 0 -1.7425367252e-10 
0 0 -1.7425367252e-10 0 0 -1.7425367252e-10 0 0 -1.7425367252e-10 
0 0 -1.7425367252e-10 0 0 -1.7425367252e-10 0 0 -1.7425367252e-10 
0 0 -1.7425367252e-10 0 0 -1.7425367252e-10 0 0 -1.7425367252e-10 
0 0 -1.7425367252e-10 0 0 -1.7425367252e-10 0 0 -1.7425367252e-10 
0 0 -5.3297119368e-07 0 0 -1.7425367252e-10 0 0 -1.7425367252e-10 
0 0 -1.7425367252e-10 0 0 -1.7425367252e-10 0 0 -1.7425367252e-10 
0 0 -1.7425367252e-10 0 0 -1.7425367252e-10 0 0 -1.7425367252e-10 
0 0 -1.7425367252e-10 0 0 -1.7425367252e-10 0 0 -1.7425367252e-10 
0 0 -1.7425367252e-10 0 0 -1.7425367252e-10 0 0 -1.7425367252e-10 
0 0 -1.7425367252e-10 0 0 -1.7425367252e-10 0 0 -1.7425367252e-10 
0 0 -1.7425367252e-10 0 0 -1.7425367252e-10 0 0 -1.7425367252e-10 
0 0 -1.7425367252e-10 0 0 -1.7425367252e-10 0 0 -1.7425367252e-10 
0 0 -1.7425367252e-10 0 0 -1.7425367252e-10 0 0 -1.7425367252e-10 
0 0 -1.7425367252e-10 0 0 -1.7425367252e-10 0 0 -1.7425367252e-10 
0 0 -1.7425367252e-10 0 0 -1.7425367252e-10 0 0 -1.7425367252e-10 
0 0 -1.7425367252e-10 0 0 -1.7425367252e-10 0 0 -1.7425367252e-10 
0 0 -1.7425367252e-10 0 0 -1.7425367252e-10 0 0 -1.7425367252e-10 
0 0 -1.7425367252e-10 0 0 -1.7425367252e-10 0 0 -1.7425367252e-10 
0 0 -1.7425367252e-10 0 0 -1.7425367252e-10 0 0 -1.7425367252e-10 
0 0 -1.7425367252e-10 0 0 -1.7425367252e-10 0 0 -1.7425367252e-10 
0 0 -1.7425367252e-10 0 0 -1.7425367252e-10 0 0 -1.7425367252e-10 
0 0 -1.7425367252e-10 0 0 -1.7425367252e-10 0 0 -1.7425367252e-10 
0 0 -1.7425367252e-10 0 0 -1.7425367252e-10 0 0 -1.7425367252e-10 
0 0 -1.7425367252e-10 0 0 -1.7425367252e-10 0 0 -1.7425367252e-10 
0 0 -1.7425367252e-10 0 0 -1.7425367252e-10 0 0 -1.7425367252e-10 
0 0 -1.7425367252e-10 0 0 -1.7425367252e-10 0 0 -1.7425367252e-10 
0 0 -1.7425367252e-10 0 0 -1.7425367252e-10 0 0 -1.7425367252e-10 
0 0 -1.7425367252e-10 0 0 -1.7425367252e-10 0 0 -1.7425367252e-10 
0 0 -1.7425367252e-10 0 0 -1.7425367252e-10 0 0 -1.7425367252e-10 
0 0 -1.7425367252e-10 0 0 -1.7425367252e-10 0 0 -1.7425367252e-10 
0 0 -1.7425367252e-10 0 0 -1.7425367252e-10 0 0 -1.7425367252e-10 
0 0 -1.7425367252e-10 0 0 -1.7425367252e-10 0 0 -1.7425367252e-10 
0 0 -1.7425367252e-10 0 0 -1.7425367252e-10 0 0 -1.7425367252e-10 
0 0 -1.7425367252e-10 0 0 -1.7425367252e-10 0 0 -1.7425367252e-10 
0 0 -1.7425367252e-10 0 0 -8.9019973083e-09 0 0 -1.7425367252e-10 
0 0 -1.7425367252e-10 0 0 -1.7425367252e-10 0 0 -1.7425367252e-10 
0 0 -1.7425367252e-10 0 0 -1.7425367252e-10 0 0 -1.7425367252e-10 
0 0 -1.7425367252e-10 0 0 -1.7425367252e-10 0 0 -1.7425367252e-10 
0 0 -1.7425367252e-10 0 0 -1.7425367252e-10 0 0 -1.7425367252e-10 
0 0 -1.7425367252e-10 0 0 -1.7425367252e-10 0 0 -8.9019973083e-09 
0 0 -1.7425367252e-10 0 0 -1.7425367252e-10 0 0 -1.7425367252e-10 
0 0 -1.7425367252e-10 0 0 -1.7425367252e-10 0 0 -1.7425367252e-10 
0 0 -1.7425367252e-10 0 0 -1.7425367252e-10 0 0 -1.7425367252e-10 
0 0 -1.7425367252e-10 0 0 -1.7425367252e-10 0 0 -1.7425367252e-10 
0 0 -1.7425367252e-10 0 0 -1.7425367252e-10 0 0 -1.7425367252e-10 
0 0 -1.7425367252e-10 0 0 -1.7425367252e-10 0 0 -1.7425367252e-10 
0 0 -8.9019973083e-09 0 0 -1.7425367252e-10 0 0 -1.7425367252e-10 
0 0 -1.7425367252e-10 0 0 -1.7425367252e-10 0 0 -1.7425367252e-10 
0 0 -1.7425367252e-10 0 0 -1.7425367252e-10 0 0 -1.7425367252e-10 
0 0 -1.7425367252e-10 0 0 -1.7425367252e-10 0 0 -1.7425367252e-10 
0 0 -8.9019973083e-09 0 0 -1.7425367252e-10 0 0 -1.7425367252e-10 
0 0 -8.9019973083e-09 0 0 -8.9019973083e-09 0 0 -8.9019973083e-09 
0 0 -8.9019973083e-09 0 0 -1.7425367252e-10 0 0 -8.9019973083e-09 
0 0 -1.7425367252e-10 0 0 -8.9019973083e-09 0 0 -6.8918688838e-08 
0 0 -1.7425367252e-10 0 0 -8.9019973083e-09 0 0 -8.9019973083e-09 
0 0 -1.7425367252e-10 0 0 -1.7425367252e-10 0 0 -1.7425367252e-10 
0 0 -1.7425367252e-10 0 0 -1.7425367252e-10 0 0 -1.7425367252e-10 
0 0 -1.7425367252e-10 0 0 -8.9019973083e-09 0 0 -1.7425367252e-10 
0 0 -1.7425367252e-10 0 0 -1.7425367252e-10 0 0 -1.7425367252e-10 
0 0 -1.7425367252e-10 0 0 -1.7425367252e-10 0 0 -1.7425367252e-10 
0 0 -1.7425367252e-10 0 0 -1.7425367252e-10 0 0 -1.7425367252e-10 
0 0 -1.7425367252e-10 0 0 -1.7425367252e-10 0 0 -1.7425367252e-10 
0 0 -1.7425367252e-10 0 0 -1.7425367252e-10 0 0 -1.7425367252e-10 
0 0 -1.7425367252e-10 0 0 -1.7425367252e-10 0 0 -1.7425367252e-10 
0 0 -1.7425367252e-10 0 0 -1.7425367252e-10 0 0 -1.7425367252e-10 
0 0 -1.7425367252e-10 0 0 -1.7425367252e-10 0 0 -1.7425367252e-10 
0 0 -1.7425367252e-10 0 0 -1.7425367252e-10 0 0 -1.7425367252e-10 
0 0 -1.7425367252e-10 0 0 -1.7425367252e-10 0 0 -1.7425367252e-10 
0 0 -1.7425367252e-10 0 0 -1.7425367252e-10 0 0 -1.7425367252e-10 
0 0 -1.7425367252e-10 0 0 -1.7425367252e-10 0 0 -1.7425367252e-10 
0 0 -1.7425367252e-10 0 0 -1.7425367252e-10 0 0 -1.7425367252e-10 
0 0 -1.7425367252e-10 0 0 -1.7425367252e-10 0 0 -1.7425367252e-10 
0 0 -1.7425367252e-10 0 0 -1.7425367252e-10 0 0 -1.7425367252e-10 
0 0 -1.7425367252e-10 0 0 -1.7425367252e-10 0 0 -1.7425367252e-10 
0 0 -1.7425367252e-10 0 0 -1.7425367252e-10 0 0 -1.7425367252e-10 
0 0 -1.7425367252e-10 0 0 -1.7425367252e-10 0 0 -1.7425367252e-10 
0 0 -1.7425367252e-10 0 0 -1.7425367252e-10 0 0 -1.7425367252e-10 
0 0 -8.9019973083e-09 0 0 -1.7425367252e-10 0 0 -1.7425367252e-10 
0 0 -1.7425367252e-10 0 0 -1.7425367252e-10 0 0 -1.7425367252e-10 
0 0 -1.7425367252e-10 0 0 -1.7425367252e-10 0 0 -1.7425367252e-10 
0 0 -1.7425367252e-10 0 0 -1.7425367252e-10 0 0 -1.7425367252e-10 
0 0 -1.7425367252e-10 0 0 -1.7425367252e-10 0 0 -1.7425367252e-10 
0 0 -1.7425367252e-10 0 0 -1.7425367252e-10 0 0 -1.7425367252e-10 
0 0 -1.7425367252e-10 0 0 -1.7425367252e-10 0 0 -1.7425367252e-10 
0 0 -1.7425367252e-10 0 0 -1.7425367252e-10 0 0 -1.7425367252e-10 
0 0 -1.7425367252e-10 0 0 -1.7425367252e-10 0 0 -1.7425367252e-10 
0 0 -1.7425367252e-10 0 0 -1.7425367252e-10 0 0 -1.7425367252e-10 

radius 1 648 double
2e-05 2e-05 2e-05 2e-05 2e-05 2e-05 2e-05 2e-05 2e-05 
2e-05 2e-05 2e-05 2e-05 2e-05 2e-05 2e-05 2e-05 2e-05 
2e-05 2e-05 2e-05 2e-05 2e-05 2e-05 2e-05 2e-05 2e-05 
2e-05 2e-05 2e-05 2e-05 2e-05 2e-05 2e-05 2e-05 2e-05 
2e-05 2e-05 2e-05 2e-05 2e-05 2e-05 2e-05 2e-05 2e-05 
2e-05 2e-05 2e-05 2e-05 2e-05 2e-05 2e-05 2e-05 2e-05 
7.5e-05 2e-05 2e-05 2e-05 2e-05 2e-05 2e-05 2e-05 2e-05 
2e-05 2e-05 2e-05 2e-05 2e-05 2e-05 2e-05 2e-05 2e-05 
2e-05 2e-05 2e-05 2e-05 2e-05 2e-05 2e-05 2e-05 2e-05 
2e-05 2e-05 2e-05 2e-05 2e-05 2e-05 2e-05 2e-05 2e-05 
2e-05 2e-05 2e-05 2e-05 2e-05 2e-05 2e-05 2e-05 2e-05 
2e-05 2e-05 2e-05 2e-05 2e-05 2e-05 2e-05 2e-05 2e-05 
2e-05 2e-05 2e-05 2e-05 2e-05 2e-05 2e-05 2e-05 2e-05 
2e-05 2e-05 2e-05 2e-05 2e-05 2e-05 2e-05 2e-05 2e-05 
2e-05 2e-05 2e-05 2e-05 7.5e-05 2e-05 2e-05 2e-05 2e-05 
2e-05 2e-05 2e-05 2e-05 2e-05 2e-05 2e-05 2e-05 2e-05 
2e-05 2e-05 2e-05 2e-05 2e-05 2e-05 7.5e-05 2e-05 2e-05 
2e-05 2e-05 2e-05 2e-05 2e-05 2e-05 2e-05 2e-05 2e-05 
2e-05 2e-05 2e-05 2e-05 2e-05 2e-05 2e-05 2e-05 2e-05 
2e-05 2e-05 2e-05 2e-05 2e-05 2e-05 2e-05 2e-05 2e-05 
2e-05 2e-05 2e-05 2e-05 2e-05 2e-05 2e-05 2e-05 2e-05 
2e-05 2e-05 2e-05 2e-05 2e-05 2e-05 2e-05 2e-05 2e-05 
2e-05 2e-05 2e-05 2e-05 2e-05 2e-05 2e-05 2e-05 2e-05 
2e-05 2e-05 2e-05 2e-05 2e-05 2e-05 2e-05 2e-05 2e-05 
2e-05 2e-05 2e-05 2e-05 2e-05 2e-05 2e-05 2e-05 2e-05 
2e-05 2e-05 2e-05 2e-05 2e-05 2e-05 2e-05 2e-05 2e-05 
2e-05 2e-05 2e-05 2e-05 2e-05 2e-05 2e-05 2e-05 2e-05 
2e-05 2e-05 2e-05 2e-05 2e-05 2e-05 2e-05 2e-05 2e-05 
2e-05 2e-05 2e-05 2e-05 2e-05 2e-05 2e-05 2e-05 2e-05 
2e-05 2e-05 2e-05 2e-05 2e-05 2e-05 2e-05 2e-05 2e-05 
2e-05 2e-05 2e-05 2e-05 2e-05 2e-05 2e-05 2e-05 2e-05 
2e-05 2e-05 2e-05 2e-05 2e-05 2e-05 2e-05 2e-05 2e-05 
2e-05 2e-05 2e-05 2e-05 2e-05 2e-05 2e-05 2e-05 2e-05 
2e-05 2e-05 2e-05 2e-05 2e-05 2e-05 2e-05 2e-05 2e-05 
2e-05 2e-05 2e-05 2e-05 2e-05 2e-05 2e-05 2e-05 2e-05 
2e-05 2e-05 2e-05 2e-05 2e-05 2e-05 2e-05 2e-05 2e-05 
2e-05 2e-05 2e-05 2e-05 2e-05 2e-05 2e-05 2e-05 2e-05 
2e-05 2e-05 2e-05 2e-05 2e-05 2e-05 2e-05 2e-05 2e-05 
2e-05 2e-05 2e-05 2e-05 2e-05 2e-05 2e-05 2e-05 2e-05 
2e-05 2e-05 2e-05 2e-05 2e-05 2e-05 2e-05 2e-05 2e-05 
2e-05 2e-05 2e-05 2e-05 2e-05 2e-05 2e-05 2e-05 2e-05 
2e-05 2e-05 2e-05 2e-05 2e-05 2e-05 2e-05 2e-05 2e-05 
2e-05 2e-05 2e-05 2e-05 2e-05 2e-05 2e-05 2e-05 2e-05 
2e-05 2e-05 2e-05 2e-05 2e-05 2e-05 2e-05 2e-05 2e-05 
2e-05 2e-05 2e-05 0.0003 2e-05 2e-05 2e-05 2e-05 2e-05 
2e-05 2e-05 2e-05 2e-05 2e-05 2e-05 2e-05 2e-05 2e-05 
2e-05 2e-05 2e-05 2e-05 2e-05 2e-05 2e-05 2e-05 2e-05 
2e-05 2e-05 2e-05 2e-05 2e-05 2e-05 2e-05 2e-05 2e-05 
2e-05 2e-05 2e-05 2e-05 2e-05 2e-05 2e-05 2e-05 2e-05 
2e-05 2e-05 2e-05 2e-05 2e-05 2e-05 2e-05 2e-05 2e-05 
2e-05 2e-05 2e-05 2e-05 2e-05 2e-05 2e-05 2e-05 2e-05 
2e-05 2e-05 2e-05 2e-05 2e-05 2e-05 2e-05 2e-05 2e-05 
2e-05 2e-05 2e-05 2e-05 2e-05 2e-05 2e-05 2e-05 2e-05 
2e-05 2e-05 2e-05 2e-05 2e-05 2e-05 2e-05 2e-05 2e-05 
2e-05 2e-05 2e-05 2e-05 7.5e-05 2e-05 2e-05 2e-05 2e-05 
2e-05 2e-05 2e-05 2e-05 2e-05 2e-05 2e-05 2e-05 2e-05 
2e-05 2e-05 7.5e-05 2e-05 2e-05 2e-05 2e-05 2e-05 2e-05 
2e-05 2e-05 2e-05 2e-05 2e-05 2e-05 2e-05 2e-05 2e-05 
2e-05 2e-05 2e-05 7.5e-05 2e-05 2e-05 2e-05 2e-05 2e-05 
2e-05 2e-05 2e-05 2e-05 2e-05 2e-05 7.5e-05 2e-05 2e-05 
7.5e-05 7.5e-05 7.5e-05 7.5e-05 2e-05 7.5e-05 2e-05 7.5e-05 0.00015 
2e-05 7.5e-05 7.5e-05 2e-05 2e-05 2e-05 2e-05 2e-05 2e-05 
2e-05 7.5e-05 2e-05 2e-05 2e-05 2e-05 2e-05 2e-05 2e-05 
2e-05 2e-05 2e-05 2e-05 2e-05 2e-05 2e-05 2e-05 2e-05 
2e-05 2e-05 2e-05 2e-05 2e-05 2e-05 2e-05 2e-05 2e-05 
2e-05 2e-05 2e-05 2e-05 2e-05 2e-05 2e-05 2e-05 2e-05 
2e-05 2e-05 2e-05 2e-05 2e-05 2e-05 2e-05 2e-05 2e-05 
2e-05 2e-05 2e-05 2e-05 2e-05 2e-05 2e-05 2e-05 2e-05 
2e-05 2e-05 2e-05 2e-05 2e-05 2e-05 7.5e-05 2e-05 2e-05 
2e-05 2e-05 2e-05 2e-05 2e-05 2e-05 2e-05 2e-05 2e-05 
2e-05 2e-05 2e-05 2e-05 2e-05 2e-05 2e-05 2e-05 2e-05 
2e-05 2e-05 2e-05 2e-05 2e-05 2e-05 2e-05 2e-05 2e-05 

omega 3 648 double
0 0 0 0 0 0 0 0 0 
0 0 0 0 0 0 0 0 0 
0 0 0 0 0 0 0 0 0 
0 0 0 0 0 0 0 0 0 
0 0 0 0 0 0 0 0 0 
0 0 0 0 0 0 0 0 0 
0 0 0 0 0 0 0 0 0 
0 0 0 0 0 0 0 0 0 
0 0 0 0 0 0 0 0 0 
0 0 0 0 0 0 0 0 0 
0 0 0 0 0 0 0 0 0 
0 0 0 0 0 0 0 0 0 
0 0 0 0 0 0 0 0 0 
0 0 0 0 0 0 0 0 0 
0 0 0 0 0 0 0 0 0 
0 0 0 0 0 0 0 0 0 
0 0 0 0 0 0 0 0 0 
0 0 0 0 0 0 0 0 0 
0 0 0 0 0 0 0 0 0 
0 0 0 0 0 0 0 0 0 
0 0 0 0 0 0 0 0 0 
0 0 0 0 0 0 0 0 0 
0 0 0 0 0 0 0 0 0 
0 0 0 0 0 0 0 0 0 
0 0 0 0 0 0 0 0 0 
0 0 0 0 0 0 0 0 0 
0 0 0 0 0 0 0 0 0 
0 0 0 0 0 0 0 0 0 
0 0 0 0 0 0 0 0 0 
0 0 0 0 0 0 0 0 0 
0 0 0 0 0 0 0 0 0 
0 0 0 0 0 0 0 0 0 
0 0 0 0 0 0 0 0 0 
0 0 0 0 0 0 0 0 0 
0 0 0 0 0 0 0 0 0 
0 0 0 0 0 0 0 0 0 
0 0 0 0 0 0 0 0 0 
0 0 0 0 0 0 0 0 0 
0 0 0 0 0 0 0 0 0 
0 0 0 0 0 0 0 0 0 
0 0 0 0 0 0 0 0 0 
0 0 0 0 0 0 0 0 0 
0 0 0 0 0 0 0 0 0 
0 0 0 0 0 0 0 0 0 
0 0 0 0 0 0 0 0 0 
0 0 0 0 0 0 0 0 0 
0 0 0 0 0 0 0 0 0 
0 0 0 0 0 0 0 0 0 
0 0 0 0 0 0 0 0 0 
0 0 0 0 0 0 0 0 0 
0 0 0 0 0 0 0 0 0 
0 0 0 0 0 0 0 0 0 
0 0 0 0 0 0 0 0 0 
0 0 0 0 0 0 0 0 0 
0 0 0 0 0 0 0 0 0 
0 0 0 0 0 0 0 0 0 
0 0 0 0 0 0 0 0 0 
0 0 0 0 0 0 0 0 0 
0 0 0 0 0 0 0 0 0 
0 0 0 0 0 0 0 0 0 
0 0 0 0 0 0 0 0 0 
0 0 0 0 0 0 0 0 0 
0 0 0 0 0 0 0 0 0 
0 0 0 0 0 0 0 0 0 
0 0 0 0 0 0 0 0 0 
0 0 0 0 0 0 0 0 0 
0 0 0 0 0 0 0 0 0 
0 0 0 0 0 0 0 0 0 
0 0 0 0 0 0 0 0 0 
0 0 0 0 0 0 0 0 0 
0 0 0 0 0 0 0 0 0 
0 0 0 0 0 0 0 0 0 
0 0 0 0 0 0 0 0 0 
0 0 0 0 0 0 0 0 0 
0 0 0 0 0 0 0 0 0 
0 0 0 0 0 0 0 0 0 
0 0 0 0 0 0 0 0 0 
0 0 0 0 0 0 0 0 0 
0 0 0 0 0 0 0 0 0 
0 0 0 0 0 0 0 0 0 
0 0 0 0 0 0 0 0 0 
0 0 0 0 0 0 0 0 0 
0 0 0 0 0 0 0 0 0 
0 0 0 0 0 0 0 0 0 
0 0 0 0 0 0 0 0 0 
0 0 0 0 0 0 0 0 0 
0 0 0 0 0 0 0 0 0 
0 0 0 0 0 0 0 0 0 
0 0 0 0 0 0 0 0 0 
0 0 0 0 0 0 0 0 0 
0 0 0 0 0 0 0 0 0 
0 0 0 0 0 0 0 0 0 
0 0 0 0 0 0 0 0 0 
0 0 0 0 0 0 0 0 0 
0 0 0 0 0 0 0 0 0 
0 0 0 0 0 0 0 0 0 
0 0 0 0 0 0 0 0 0 
0 0 0 0 0 0 0 0 0 
0 0 0 0 0 0 0 0 0 
0 0 0 0 0 0 0 0 0 
0 0 0 0 0 0 0 0 0 
0 0 0 0 0 0 0 0 0 
0 0 0 0 0 0 0 0 0 
0 0 0 0 0 0 0 0 0 
0 0 0 0 0 0 0 0 0 
0 0 0 0 0 0 0 0 0 
0 0 0 0 0 0 0 0 0 
0 0 0 0 0 0 0 0 0 
0 0 0 0 0 0 0 0 0 
0 0 0 0 0 0 0 0 0 
0 0 0 0 0 0 0 0 0 
0 0 0 0 0 0 0 0 0 
0 0 0 0 0 0 0 0 0 
0 0 0 0 0 0 0 0 0 
0 0 0 0 0 0 0 0 0 
0 0 0 0 0 0 0 0 0 
0 0 0 0 0 0 0 0 0 
0 0 0 0 0 0 0 0 0 
0 0 0 0 0 0 0 0 0 
0 0 0 0 0 0 0 0 0 
0 0 0 0 0 0 0 0 0 
0 0 0 0 0 0 0 0 0 
0 0 0 0 0 0 0 0 0 
0 0 0 0 0 0 0 0 0 
0 0 0 0 0 0 0 0 0 
0 0 0 0 0 0 0 0 0 
0 0 0 0 0 0 0 0 0 
0 0 0 0 0 0 0 0 0 
0 0 0 0 0 0 0 0 0 
0 0 0 0 0 0 0 0 0 
0 0 0 0 0 0 0 0 0 
0 0 0 0 0 0 0 0 0 
0 0 0 0 0 0 0 0 0 
0 0 0 0 0 0 0 0 0 
0 0 0 0 0 0 0 0 0 
0 0 0 0 0 0 0 0 0 
0 0 0 0 0 0 0 0 0 
0 0 0 0 0 0 0 0 0 
0 0 0 0 0 0 0 0 0 
0 0 0 0 0 0 0 0 0 
0 0 0 0 0 0 0 0 0 
0 0 0 0 0 0 0 0 0 
0 0 0 0 0 0 0 0 0 
0 0 0 0 0 0 0 0 0 
0 0 0 0 0 0 0 0 0 
0 0 0 0 0 0 0 0 0 
0 0 0 0 0 0 0 0 0 
0 0 0 0 0 0 0 0 0 
0 0 0 0 0 0 0 0 0 
0 0 0 0 0 0 0 0 0 
0 0 0 0 0 0 0 0 0 
0 0 0 0 0 0 0 0 0 
0 0 0 0 0 0 0 0 0 
0 0 0 0 0 0 0 0 0 
0 0 0 0 0 0 0 0 0 
0 0 0 0 0 0 0 0 0 
0 0 0 0 0 0 0 0 0 
0 0 0 0 0 0 0 0 0 
0 0 0 0 0 0 0 0 0 
0 0 0 0 0 0 0 0 0 
0 0 0 0 0 0 0 0 0 
0 0 0 0 0 0 0 0 0 
0 0 0 0 0 0 0 0 0 
0 0 0 0 0 0 0 0 0 
0 0 0 0 0 0 0 0 0 
0 0 0 0 0 0 0 0 0 
0 0 0 0 0 0 0 0 0 
0 0 0 0 0 0 0 0 0 
0 0 0 0 0 0 0 0 0 
0 0 0 0 0 0 0 0 0 
0 0 0 0 0 0 0 0 0 
0 0 0 0 0 0 0 0 0 
0 0 0 0 0 0 0 0 0 
0 0 0 0 0 0 0 0 0 
0 0 0 0 0 0 0 0 0 
0 0 0 0 0 0 0 0 0 
0 0 0 0 0 0 0 0 0 
0 0 0 0 0 0 0 0 0 
0 0 0 0 0 0 0 0 0 
0 0 0 0 0 0 0 0 0 
0 0 0 0 0 0 0 0 0 
0 0 0 0 0 0 0 0 0 
0 0 0 0 0 0 0 0 0 
0 0 0 0 0 0 0 0 0 
0 0 0 0 0 0 0 0 0 
0 0 0 0 0 0 0 0 0 
0 0 0 0 0 0 0 0 0 
0 0 0 0 0 0 0 0 0 
0 0 0 0 0 0 0 0 0 
0 0 0 0 0 0 0 0 0 
0 0 0 0 0 0 0 0 0 
0 0 0 0 0 0 0 0 0 
0 0 0 0 0 0 0 0 0 
0 0 0 0 0 0 0 0 0 
0 0 0 0 0 0 0 0 0 
0 0 0 0 0 0 0 0 0 
0 0 0 0 0 0 0 0 0 
0 0 0 0 0 0 0 0 0 
0 0 0 0 0 0 0 0 0 
0 0 0 0 0 0 0 0 0 
0 0 0 0 0 0 0 0 0 
0 0 0 0 0 0 0 0 0 
0 0 0 0 0 0 0 0 0 
0 0 0 0 0 0 0 0 0 
0 0 0 0 0 0 0 0 0 
0 0 0 0 0 0 0 0 0 
0 0 0 0 0 0 0 0 0 
0 0 0 0 0 0 0 0 0 
0 0 0 0 0 0 0 0 0 
0 0 0 0 0 0 0 0 0 
0 0 0 0 0 0 0 0 0 
0 0 0 0 0 0 0 0 0 
0 0 0 0 0 0 0 0 0 
0 0 0 0 0 0 0 0 0 
0 0 0 0 0 0 0 0 0 
0 0 0 0 0 0 0 0 0 

fx_mag_viz 1 648 double
0 0 0 0 0 0 0 0 0 
0 0 0 0 0 0 0 0 0 
0 0 0 0 0 0 0 0 0 
0 0 0 0 0 0 0 0 0 
0 0 0 0 0 0 0 0 0 
0 0 0 0 0 0 0 0 0 
0 0 0 0 0 0 0 0 0 
0 0 0 0 0 0 0 0 0 
0 0 0 0 0 0 0 0 0 
0 0 0 0 0 0 0 0 0 
0 0 0 0 0 0 0 0 0 
0 0 0 0 0 0 0 0 0 
0 0 0 0 0 0 0 0 0 
0 0 0 0 0 0 0 0 0 
0 0 0 0 0 0 0 0 0 
0 0 0 0 0 0 0 0 0 
0 0 0 0 0 0 0 0 0 
0 0 0 0 0 0 0 0 0 
0 0 0 0 0 0 0 0 0 
0 0 0 0 0 0 0 0 0 
0 0 0 0 0 0 0 0 0 
0 0 0 0 0 0 0 0 0 
0 0 0 0 0 0 0 0 0 
0 0 0 0 0 0 0 0 0 
0 0 0 0 0 0 0 0 0 
0 0 0 0 0 0 0 0 0 
0 0 0 0 0 0 0 0 0 
0 0 0 0 0 0 0 0 0 
0 0 0 0 0 0 0 0 0 
0 0 0 0 0 0 0 0 0 
0 0 0 0 0 0 0 0 0 
0 0 0 0 0 0 0 0 0 
0 0 0 0 0 0 0 0 0 
0 0 0 0 0 0 0 0 0 
0 0 0 0 0 0 0 0 0 
0 0 0 0 0 0 0 0 0 
0 0 0 0 0 0 0 0 0 
0 0 0 0 0 0 0 0 0 
0 0 0 0 0 0 0 0 0 
0 0 0 0 0 0 0 0 0 
0 0 0 0 0 0 0 0 0 
0 0 0 0 0 0 0 0 0 
0 0 0 0 0 0 0 0 0 
0 0 0 0 0 0 0 0 0 
0 0 0 0 0 0 0 0 0 
0 0 0 0 0 0 0 0 0 
0 0 0 0 0 0 0 0 0 
0 0 0 0 0 0 0 0 0 
0 0 0 0 0 0 0 0 0 
0 0 0 0 0 0 0 0 0 
0 0 0 0 0 0 0 0 0 
0 0 0 0 0 0 0 0 0 
0 0 0 0 0 0 0 0 0 
0 0 0 0 0 0 0 0 0 
0 0 0 0 0 0 0 0 0 
0 0 0 0 0 0 0 0 0 
0 0 0 0 0 0 0 0 0 
0 0 0 0 0 0 0 0 0 
0 0 0 0 0 0 0 0 0 
0 0 0 0 0 0 0 0 0 
0 0 0 0 0 0 0 0 0 
0 0 0 0 0 0 0 0 0 
0 0 0 0 0 0 0 0 0 
0 0 0 0 0 0 0 0 0 
0 0 0 0 0 0 0 0 0 
0 0 0 0 0 0 0 0 0 
0 0 0 0 0 0 0 0 0 
0 0 0 0 0 0 0 0 0 
0 0 0 0 0 0 0 0 0 
0 0 0 0 0 0 0 0 0 
0 0 0 0 0 0 0 0 0 
0 0 0 0 0 0 0 0 0 

fy_mag_viz 1 648 double
0 0 0 0 0 0 0 0 0 
0 0 0 0 0 0 0 0 0 
0 0 0 0 0 0 0 0 0 
0 0 0 0 0 0 0 0 0 
0 0 0 0 0 0 0 0 0 
0 0 0 0 0 0 0 0 0 
0 0 0 0 0 0 0 0 0 
0 0 0 0 0 0 0 0 0 
0 0 0 0 0 0 0 0 0 
0 0 0 0 0 0 0 0 0 
0 0 0 0 0 0 0 0 0 
0 0 0 0 0 0 0 0 0 
0 0 0 0 0 0 0 0 0 
0 0 0 0 0 0 0 0 0 
0 0 0 0 0 0 0 0 0 
0 0 0 0 0 0 0 0 0 
0 0 0 0 0 0 0 0 0 
0 0 0 0 0 0 0 0 0 
0 0 0 0 0 0 0 0 0 
0 0 0 0 0 0 0 0 0 
0 0 0 0 0 0 0 0 0 
0 0 0 0 0 0 0 0 0 
0 0 0 0 0 0 0 0 0 
0 0 0 0 0 0 0 0 0 
0 0 0 0 0 0 0 0 0 
0 0 0 0 0 0 0 0 0 
0 0 0 0 0 0 0 0 0 
0 0 0 0 0 0 0 0 0 
0 0 0 0 0 0 0 0 0 
0 0 0 0 0 0 0 0 0 
0 0 0 0 0 0 0 0 0 
0 0 0 0 0 0 0 0 0 
0 0 0 0 0 0 0 0 0 
0 0 0 0 0 0 0 0 0 
0 0 0 0 0 0 0 0 0 
0 0 0 0 0 0 0 0 0 
0 0 0 0 0 0 0 0 0 
0 0 0 0 0 0 0 0 0 
0 0 0 0 0 0 0 0 0 
0 0 0 0 0 0 0 0 0 
0 0 0 0 0 0 0 0 0 
0 0 0 0 0 0 0 0 0 
0 0 0 0 0 0 0 0 0 
0 0 0 0 0 0 0 0 0 
0 0 0 0 0 0 0 0 0 
0 0 0 0 0 0 0 0 0 
0 0 0 0 0 0 0 0 0 
0 0 0 0 0 0 0 0 0 
0 0 0 0 0 0 0 0 0 
0 0 0 0 0 0 0 0 0 
0 0 0 0 0 0 0 0 0 
0 0 0 0 0 0 0 0 0 
0 0 0 0 0 0 0 0 0 
0 0 0 0 0 0 0 0 0 
0 0 0 0 0 0 0 0 0 
0 0 0 0 0 0 0 0 0 
0 0 0 0 0 0 0 0 0 
0 0 0 0 0 0 0 0 0 
0 0 0 0 0 0 0 0 0 
0 0 0 0 0 0 0 0 0 
0 0 0 0 0 0 0 0 0 
0 0 0 0 0 0 0 0 0 
0 0 0 0 0 0 0 0 0 
0 0 0 0 0 0 0 0 0 
0 0 0 0 0 0 0 0 0 
0 0 0 0 0 0 0 0 0 
0 0 0 0 0 0 0 0 0 
0 0 0 0 0 0 0 0 0 
0 0 0 0 0 0 0 0 0 
0 0 0 0 0 0 0 0 0 
0 0 0 0 0 0 0 0 0 
0 0 0 0 0 0 0 0 0 

fz_mag_viz 1 648 double
0 0 0 0 0 0 0 0 0 
0 0 0 0 0 0 0 0 0 
0 0 0 0 0 0 0 0 0 
0 0 0 0 0 0 0 0 0 
0 0 0 0 0 0 0 0 0 
0 0 0 0 0 0 0 0 0 
0 0 0 0 0 0 0 0 0 
0 0 0 0 0 0 0 0 0 
0 0 0 0 0 0 0 0 0 
0 0 0 0 0 0 0 0 0 
0 0 0 0 0 0 0 0 0 
0 0 0 0 0 0 0 0 0 
0 0 0 0 0 0 0 0 0 
0 0 0 0 0 0 0 0 0 
0 0 0 0 0 0 0 0 0 
0 0 0 0 0 0 0 0 0 
0 0 0 0 0 0 0 0 0 
0 0 0 0 0 0 0 0 0 
0 0 0 0 0 0 0 0 0 
0 0 0 0 0 0 0 0 0 
0 0 0 0 0 0 0 0 0 
0 0 0 0 0 0 0 0 0 
0 0 0 0 0 0 0 0 0 
0 0 0 0 0 0 0 0 0 
0 0 0 0 0 0 0 0 0 
0 0 0 0 0 0 0 0 0 
0 0 0 0 0 0 0 0 0 
0 0 0 0 0 0 0 0 0 
0 0 0 0 0 0 0 0 0 
0 0 0 0 0 0 0 0 0 
0 0 0 0 0 0 0 0 0 
0 0 0 0 0 0 0 0 0 
0 0 0 0 0 0 0 0 0 
0 0 0 0 0 0 0 0 0 
0 0 0 0 0 0 0 0 0 
0 0 0 0 0 0 0 0 0 
0 0 0 0 0 0 0 0 0 
0 0 0 0 0 0 0 0 0 
0 0 0 0 0 0 0 0 0 
0 0 0 0 0 0 0 0 0 
0 0 0 0 0 0 0 0 0 
0 0 0 0 0 0 0 0 0 
0 0 0 0 0 0 0 0 0 
0 0 0 0 0 0 0 0 0 
0 0 0 0 0 0 0 0 0 
0 0 0 0 0 0 0 0 0 
0 0 0 0 0 0 0 0 0 
0 0 0 0 0 0 0 0 0 
0 0 0 0 0 0 0 0 0 
0 0 0 0 0 0 0 0 0 
0 0 0 0 0 0 0 0 0 
0 0 0 0 0 0 0 0 0 
0 0 0 0 0 0 0 0 0 
0 0 0 0 0 0 0 0 0 
0 0 0 0 0 0 0 0 0 
0 0 0 0 0 0 0 0 0 
0 0 0 0 0 0 0 0 0 
0 0 0 0 0 0 0 0 0 
0 0 0 0 0 0 0 0 0 
0 0 0 0 0 0 0 0 0 
0 0 0 0 0 0 0 0 0 
0 0 0 0 0 0 0 0 0 
0 0 0 0 0 0 0 0 0 
0 0 0 0 0 0 0 0 0 
0 0 0 0 0 0 0 0 0 
0 0 0 0 0 0 0 0 0 
0 0 0 0 0 0 0 0 0 
0 0 0 0 0 0 0 0 0 
0 0 0 0 0 0 0 0 0 
0 0 0 0 0 0 0 0 0 
0 0 0 0 0 0 0 0 0 
0 0 0 0 0 0 0 0 0 

B_magnitude 1 648 double
0 0 0 0 0 0 0 0 0 
0 0 0 0 0 0 0 0 0 
0 0 0 0 0 0 0 0 0 
0 0 0 0 0 0 0 0 0 
0 0 0 0 0 0 0 0 0 
0 0 0 0 0 0 0 0 0 
0 0 0 0 0 0 0 0 0 
0 0 0 0 0 0 0 0 0 
0 0 0 0 0 0 0 0 0 
0 0 0 0 0 0 0 0 0 
0 0 0 0 0 0 0 0 0 
0 0 0 0 0 0 0 0 0 
0 0 0 0 0 0 0 0 0 
0 0 0 0 0 0 0 0 0 
0 0 0 0 0 0 0 0 0 
0 0 0 0 0 0 0 0 0 
0 0 0 0 0 0 0 0 0 
0 0 0 0 0 0 0 0 0 
0 0 0 0 0 0 0 0 0 
0 0 0 0 0 0 0 0 0 
0 0 0 0 0 0 0 0 0 
0 0 0 0 0 0 0 0 0 
0 0 0 0 0 0 0 0 0 
0 0 0 0 0 0 0 0 0 
0 0 0 0 0 0 0 0 0 
0 0 0 0 0 0 0 0 0 
0 0 0 0 0 0 0 0 0 
0 0 0 0 0 0 0 0 0 
0 0 0 0 0 0 0 0 0 
0 0 0 0 0 0 0 0 0 
0 0 0 0 0 0 0 0 0 
0 0 0 0 0 0 0 0 0 
0 0 0 0 0 0 0 0 0 
0 0 0 0 0 0 0 0 0 
0 0 0 0 0 0 0 0 0 
0 0 0 0 0 0 0 0 0 
0 0 0 0 0 0 0 0 0 
0 0 0 0 0 0 0 0 0 
0 0 0 0 0 0 0 0 0 
0 0 0 0 0 0 0 0 0 
0 0 0 0 0 0 0 0 0 
0 0 0 0 0 0 0 0 0 
0 0 0 0 0 0 0 0 0 
0 0 0 0 0 0 0 0 0 
0 0 0 0 0 0 0 0 0 
0 0 0 0 0 0 0 0 0 
0 0 0 0 0 0 0 0 0 
0 0 0 0 0 0 0 0 0 
0 0 0 0 0 0 0 0 0 
0 0 0 0 0 0 0 0 0 
0 0 0 0 0 0 0 0 0 
0 0 0 0 0 0 0 0 0 
0 0 0 0 0 0 0 0 0 
0 0 0 0 0 0 0 0 0 
0 0 0 0 0 0 0 0 0 
0 0 0 0 0 0 0 0 0 
0 0 0 0 0 0 0 0 0 
0 0 0 0 0 0 0 0 0 
0 0 0 0 0 0 0 0 0 
0 0 0 0 0 0 0 0 0 
0 0 0 0 0 0 0 0 0 
0 0 0 0 0 0 0 0 0 
0 0 0 0 0 0 0 0 0 
0 0 0 0 0 0 0 0 0 
0 0 0 0 0 0 0 0 0 
0 0 0 0 0 0 0 0 0 
0 0 0 0 0 0 0 0 0 
0 0 0 0 0 0 0 0 0 
0 0 0 0 0 0 0 0 0 
0 0 0 0 0 0 0 0 0 
0 0 0 0 0 0 0 0 0 
0 0 0 0 0 0 0 0 0 

B_gradient_mag 1 648 double
0 0 0 0 0 0 0 0 0 
0 0 0 0 0 0 0 0 0 
0 0 0 0 0 0 0 0 0 
0 0 0 0 0 0 0 0 0 
0 0 0 0 0 0 0 0 0 
0 0 0 0 0 0 0 0 0 
0 0 0 0 0 0 0 0 0 
0 0 0 0 0 0 0 0 0 
0 0 0 0 0 0 0 0 0 
0 0 0 0 0 0 0 0 0 
0 0 0 0 0 0 0 0 0 
0 0 0 0 0 0 0 0 0 
0 0 0 0 0 0 0 0 0 
0 0 0 0 0 0 0 0 0 
0 0 0 0 0 0 0 0 0 
0 0 0 0 0 0 0 0 0 
0 0 0 0 0 0 0 0 0 
0 0 0 0 0 0 0 0 0 
0 0 0 0 0 0 0 0 0 
0 0 0 0 0 0 0 0 0 
0 0 0 0 0 0 0 0 0 
0 0 0 0 0 0 0 0 0 
0 0 0 0 0 0 0 0 0 
0 0 0 0 0 0 0 0 0 
0 0 0 0 0 0 0 0 0 
0 0 0 0 0 0 0 0 0 
0 0 0 0 0 0 0 0 0 
0 0 0 0 0 0 0 0 0 
0 0 0 0 0 0 0 0 0 
0 0 0 0 0 0 0 0 0 
0 0 0 0 0 0 0 0 0 
0 0 0 0 0 0 0 0 0 
0 0 0 0 0 0 0 0 0 
0 0 0 0 0 0 0 0 0 
0 0 0 0 0 0 0 0 0 
0 0 0 0 0 0 0 0 0 
0 0 0 0 0 0 0 0 0 
0 0 0 0 0 0 0 0 0 
0 0 0 0 0 0 0 0 0 
0 0 0 0 0 0 0 0 0 
0 0 0 0 0 0 0 0 0 
0 0 0 0 0 0 0 0 0 
0 0 0 0 0 0 0 0 0 
0 0 0 0 0 0 0 0 0 
0 0 0 0 0 0 0 0 0 
0 0 0 0 0 0 0 0 0 
0 0 0 0 0 0 0 0 0 
0 0 0 0 0 0 0 0 0 
0 0 0 0 0 0 0 0 0 
0 0 0 0 0 0 0 0 0 
0 0 0 0 0 0 0 0 0 
0 0 0 0 0 0 0 0 0 
0 0 0 0 0 0 0 0 0 
0 0 0 0 0 0 0 0 0 
0 0 0 0 0 0 0 0 0 
0 0 0 0 0 0 0 0 0 
0 0 0 0 0 0 0 0 0 
0 0 0 0 0 0 0 0 0 
0 0 0 0 0 0 0 0 0 
0 0 0 0 0 0 0 0 0 
0 0 0 0 0 0 0 0 0 
0 0 0 0 0 0 0 0 0 
0 0 0 0 0 0 0 0 0 
0 0 0 0 0 0 0 0 0 
0 0 0 0 0 0 0 0 0 
0 0 0 0 0 0 0 0 0 
0 0 0 0 0 0 0 0 0 
0 0 0 0 0 0 0 0 0 
0 0 0 0 0 0 0 0 0 
0 0 0 0 0 0 0 0 0 
0 0 0 0 0 0 0 0 0 
0 0 0 0 0 0 0 0 0 

