# vtk DataFile Version 5.1
Generated by LIGGGHTS
ASCII
DATASET POLYDATA
POINTS 648 float
-0.0428902 -0.0449088 0.00126869 -0.00521279 -0.0413279 0.00120488 -0.0105296 -0.0314142 0.0011548 
-0.0198564 -0.00683511 0.00114798 -0.0426568 0.00723228 0.00102023 -0.0310202 0.0131063 0.0010671 
0.0248423 0.0143007 0.00115854 0.0123926 0.0218243 0.00123966 0.0167463 0.0251763 0.00128458 
-0.0385899 -0.0405251 0.00157999 0.00798734 -0.0367051 0.00158207 0.033456 -0.0256735 0.00143953 
0.0350526 -0.0102353 0.00213998 0.0282359 -0.00877456 0.00155249 -0.0129003 -0.00574839 0.00170246 
0.00937085 -0.00418454 0.00213889 0.0414788 -0.00521487 0.00179109 -0.0179231 -0.00300678 0.00174799 
0.0384376 0.000848974 0.00152787 0.0292006 0.00433004 0.00177156 0.021602 0.00540593 0.00172608 
0.0212596 0.00979192 0.00220359 0.0143092 0.0139794 0.00166872 -0.0081225 0.0151775 0.00192803 
-0.0360536 0.0173104 0.00194948 0.03506 0.0228899 0.00231104 0.00308146 0.0401468 0.00122313 
-0.00302782 -0.0385948 0.00308381 0.0419483 -0.0348097 0.00329471 -0.0266532 -0.0301716 0.00290741 
-0.0108877 -0.0188832 0.00363386 0.00689113 -0.0107816 0.00261918 0.00635633 0.000852437 0.00303551 
0.00417698 0.0024455 0.00379072 0.0305447 0.00486582 0.00318625 -0.0287984 0.00559412 0.0033984 
0.0287781 0.014071 0.00380566 0.0215224 0.0171285 0.00312488 -0.0245993 0.0193658 0.00364639 
-0.0153727 0.020636 0.00285678 -0.0282566 0.021284 0.00341748 -0.0296003 0.0277025 0.00301418 
-0.0155539 0.0359545 0.00307312 0.0297434 0.0373158 0.00255337 0.0131273 0.040817 0.00289893 
0.040047 -0.0404588 0.00508598 0.0156715 -0.0391733 0.00397772 0.0336491 -0.0197505 0.00468836 
0.0223879 -0.0163393 0.00474425 0.00357123 -0.00830953 0.00465724 -0.034865 0.0142961 0.00438859 
-0.0144089 0.0201081 0.00521719 -0.0170112 0.0231088 0.00449012 -0.0409258 0.0305044 0.00440752 
0.0104707 0.0313218 0.00468797 -0.0197415 0.0344175 0.00405401 0.0165329 0.0385374 0.00481486 
0.0251972 0.0393087 0.00468326 -0.0390027 0.0421086 0.00428896 0.0341086 -0.0368686 0.00555508 
0.0244271 -0.0334586 0.0062252 0.0289145 -0.0340196 0.00587382 -0.0232422 -0.0321576 0.0056007 
-0.015788 -0.0282898 0.00579453 0.00577088 -0.0287415 0.0062224 0.0436787 -0.0219137 0.00539773 
0.0030191 -0.0179247 0.00528873 0.0277003 -0.0107969 0.00562694 0.0154702 -0.00154679 0.00624173 
-0.0356048 -0.000104637 0.0062898 -0.00783961 -0.000387029 0.00549342 -0.00702036 -0.00121172 0.00599893 
-0.00967086 0.00179773 0.00554635 0.0011249 0.00615697 0.00618188 0.0399323 0.0117688 0.00569778 
8.23501e-07 0.0138406 0.00612229 -0.0256005 0.0215871 0.00603534 0.00284552 0.0345861 0.00563791 
-0.0440308 0.0448256 0.00653312 -0.044759 -0.0437614 0.00718243 -0.0308094 -0.0435702 0.0069419 
0.0185094 -0.042363 0.00684426 -0.042922 -0.0404536 0.00675624 0.023158 -0.0340207 0.0070177 
0.0280204 -0.0311414 0.00704692 -0.0448384 -0.0296834 0.00727357 0.000892701 -0.0263701 0.00732943 
-0.0419519 -0.0259749 0.006748 0.032808 -0.025967 0.0071845 -0.0408326 -0.0234295 0.00652087 
-0.0317771 -0.0175651 0.00724027 0.0404767 -0.0183151 0.00728025 0.0433204 -0.0141837 0.00637681 
-0.0112192 -0.0104501 0.0068031 0.00743742 -0.00926665 0.00647459 0.0131353 -0.00504642 0.00763838 
-0.00757157 0.00454821 0.00716648 -0.0170872 0.00564833 0.00649853 0.0228765 0.00606581 0.00728927 
0.0221269 0.00728552 0.00750227 -0.0214351 0.00957734 0.00693233 0.0379188 0.0120326 0.00673271 
0.0114764 0.0140289 0.0078374 -0.0214239 0.0189608 0.00692416 -0.023041 0.0197144 0.00729933 
-0.022709 0.0198803 0.00762857 0.0226957 0.0260881 0.0069354 0.0364634 0.0310238 0.00714651 
0.0444958 0.0309554 0.00729018 -0.0264781 0.032823 0.00690773 0.0163992 0.0415262 0.00771103 
0.0418836 -0.0421436 0.00902754 0.0339316 -0.041715 0.00905054 0.0308099 -0.0378456 0.00787377 
0.0333162 -0.0342631 0.00808461 0.0101031 -0.0273014 0.00851932 -0.00446216 -0.0255279 0.00911327 
0.0363266 -0.0194176 0.00803384 0.0414834 -0.0181367 0.00798252 -0.0257955 -0.0157834 0.00775452 
-0.0420316 -0.0145538 0.00904188 -0.00444012 -0.0151621 0.00846574 -0.0117656 -0.0138394 0.00851098 
-0.0222502 -0.00974669 0.00852276 0.013874 -0.00963069 0.00876848 0.0109664 -0.00760095 0.00873406 
-0.0141425 -0.00311887 0.00854204 0.00265626 0.00371614 0.00905785 0.0449494 0.00392273 0.00775887 
0.0246705 0.0064451 0.00883648 0.0320014 0.00756294 0.00908463 -0.0392616 0.00972366 0.00794722 
-0.0101256 0.00978275 0.00818359 0.0323341 0.0191974 0.00851131 -0.0269229 0.0267788 0.00913216 
-0.0312382 0.0393096 0.00879387 -0.0437633 0.0406561 0.0081646 -0.0160353 0.0448572 0.00855654 
-0.0335565 -0.0442122 0.00952906 0.0414821 -0.0410789 0.00946628 -0.018434 -0.0405477 0.00962945 
-0.0108246 -0.0388127 0.00978162 0.000822496 -0.0363122 0.00907629 0.0433459 -0.0353282 0.00994121 
-0.0262624 -0.032473 0.00988393 -0.0336946 -0.0248459 0.00966289 -0.0329608 -0.0218045 0.0101698 
-0.0225401 -0.0213878 0.0100588 0.039775 -0.0211058 0.0100326 -0.0100897 -0.0180162 0.0102497 
-0.0388614 -0.0136303 0.00970489 -0.0227164 -0.0141288 0.00948548 0.0342493 -0.0115037 0.0101546 
-0.0386256 -0.00983966 0.0101762 -0.024842 -0.00884532 0.0103122 -0.00433253 -0.00676057 0.0101298 
0.0275881 -0.00673863 0.0096991 -0.00747582 -0.00609419 0.0102269 0.021323 -0.00444137 0.0100214 
0.0293019 -0.00298432 0.0101641 0.00314898 0.00491531 0.00928415 0.0283387 0.00890506 0.00999392 
0.0340899 0.00882812 0.0100971 0.0197977 0.00963841 0.00906574 -0.0394276 0.0109375 0.00961445 
-0.0371624 0.011326 0.00940381 0.0398091 0.011618 0.0103001 -0.00279986 0.0127222 0.00934964 
-0.00307286 0.0144526 0.0102888 0.0121458 0.0151918 0.0101858 0.0153641 0.0146287 0.00970314 
0.00517921 0.0169249 0.0100501 0.0418335 0.0161761 0.00917223 0.0090081 0.0191686 0.010083 
0.0307708 0.0242663 0.00914905 -0.0200898 0.0311527 0.00924592 0.00372347 0.0304157 0.00998034 
-0.0213481 0.0319153 0.00924313 0.01325 0.0319187 0.0102735 0.0152528 0.033152 0.0102166 
0.0164577 0.0353116 0.0101327 -0.00973825 0.0391656 0.0101339 0.0238959 0.0383247 0.00935126 
0.0222253 0.0407186 0.0100143 0.0348044 -0.042095 0.0116583 -0.0349861 -0.0412827 0.0106538 
0.0338942 -0.0410147 0.0105874 -0.0248652 -0.040212 0.0104084 -0.0168273 -0.0360331 0.0116252 
0.00594186 -0.0351889 0.0107663 -0.00586029 -0.0338127 0.0105328 0.00264867 -0.0338128 0.0116683 
-0.0160452 -0.0323821 0.010976 0.0346336 -0.0325969 0.0109069 -0.0430551 -0.0267583 0.0111801 
0.0306875 -0.0259396 0.0107978 -0.0296942 -0.0196153 0.0109142 0.00156248 -0.0194187 0.0112461 
-0.0393221 -0.0167834 0.0109933 -0.0405162 -0.0161033 0.0107042 0.0198229 -0.0156851 0.011093 
-0.0207563 -0.0111167 0.0115457 0.0223025 -0.0112244 0.0108491 0.0414517 -0.0114994 0.0114536 
-0.0326334 -0.00963456 0.0108714 0.0313953 -0.00974065 0.0104348 -0.00553214 -0.00871323 0.0103576 
-0.040885 -0.00406647 0.0106195 -0.0281455 -0.00127675 0.0115676 0.00643655 -0.000956063 0.011109 
-0.0260142 0.00017485 0.0105377 -0.00229178 0.0020129 0.0117128 0.0188762 0.00181355 0.0109499 
0.032558 0.00153523 0.0109637 0.0101693 0.00555192 0.0114568 0.00861143 0.0123591 0.0107237 
-0.0102477 0.0267602 0.0110757 -0.0127911 0.0299546 0.0104165 -0.0313244 0.0314049 0.0116081 
0.0038092 0.0311583 0.0104248 0.0354139 0.0312817 0.0115466 -0.0073504 0.0318329 0.010924 
0.00390562 0.0317225 0.010841 -0.0281804 0.0418824 0.0108727 0.00513794 0.0433856 0.0108881 
0.0262096 -0.0449372 0.0118529 0.0181024 -0.0433049 0.011902 -0.00674967 -0.0416523 0.0116472 
-0.0334706 -0.0396012 0.0117168 0.027474 -0.0338615 0.0119676 0.0188903 -0.0308528 0.0116877 
0.0449741 -0.0303513 0.0118432 0.0346338 -0.0290927 0.0128037 -0.0207679 -0.0256315 0.0120213 
0.0155599 -0.0240909 0.0128439 -0.0328109 -0.0226975 0.0119979 0.0233461 -0.0214624 0.0124196 
-0.0426154 -0.0165053 0.0128867 -0.0339565 -0.0167518 0.0122668 0.0302919 -0.0148257 0.012618 
-0.0449336 -0.00957357 0.0123573 0.0286804 -0.00919085 0.0116966 -0.00254943 -0.00825679 0.0119894 
-0.0343844 -0.0078404 0.0120786 0.0404774 -0.00688032 0.0125528 0.0387156 -0.00624884 0.0123316 
0.0180565 -0.00487531 0.0122845 -0.0120059 -0.00345367 0.012226 0.0290986 -0.000251763 0.0118801 
-0.0325416 0.00283857 0.0119529 -0.025141 0.00447188 0.0123463 0.0277548 0.0042931 0.0119884 
0.0211953 0.00966092 0.0123355 -0.0365733 0.0119208 0.0125905 0.00243185 0.0120975 0.0129502 
0.000954082 0.0152563 0.0127703 0.0407412 0.0174253 0.0126877 0.018015 0.0183735 0.012925 
0.0258603 0.0235991 0.0124859 -0.0386663 0.0253433 0.0122587 -0.0267569 0.0263983 0.0125155 
-0.00563177 0.0268155 0.0120034 0.0395905 0.0272142 0.0120822 0.0191509 0.0299648 0.0129162 
-0.0368667 0.0306348 0.0118999 -0.032208 0.0306075 0.0124806 -0.0108954 0.0304 0.0122467 
0.026696 0.03017 0.0120878 -0.0337286 0.0337045 0.0127654 0.0231674 0.0340949 0.0123232 
-0.041477 0.0364172 0.0120225 0.0294278 0.0431452 0.0124364 0.0405446 0.0433429 0.0126797 
0.0416479 -0.0439733 0.0140714 0.000425919 -0.0415728 0.013665 0.0077947 -0.0345433 0.0141398 
-0.0427235 -0.0332389 0.0142054 -0.0386911 -0.0311434 0.0141133 0.0412685 -0.0295104 0.0140686 
0.0164647 -0.0275391 0.0136026 -0.0323128 -0.0219837 0.0143331 0.00623721 -0.0211799 0.0133072 
0.0262592 -0.0217201 0.0131134 -0.00827992 -0.020547 0.0130108 0.0268005 -0.0146468 0.0141285 
0.0176437 -0.0119747 0.0137327 0.0251729 -0.00985964 0.0133099 -0.0304645 -0.00701594 0.0138952 
-0.00401126 -0.00720159 0.0136002 0.0129906 -0.00677597 0.0140093 -0.00474481 -0.00600267 0.013923 
-0.042786 -0.00359954 0.0137816 -0.0408474 -0.00214648 0.0142069 0.00664535 -0.00164817 0.0134092 
-0.0376932 -0.000132947 0.0141176 0.0404406 0.00462082 0.0133244 -0.0406381 0.00555966 0.0142133 
0.030759 0.00580352 0.0131821 0.00533928 0.00728904 0.0141713 0.00474506 0.0103043 0.0141285 
0.012585 0.0155082 0.0131098 0.00546842 0.0177814 0.0137965 0.00395304 0.0187088 0.0131417 
0.00153271 0.0201988 0.013629 0.00976854 0.0197772 0.0136273 0.00128112 0.0217131 0.0138698 
-0.0267196 0.0236159 0.0135457 0.0181332 0.0246356 0.013112 -0.00739359 0.0259593 0.0131782 
-0.0357156 0.0282031 0.013171 0.00834461 0.0278725 0.0131348 0.0434247 0.0295768 0.0142193 
0.0372507 0.0318783 0.0141688 -0.0245447 0.0378537 0.0137275 0.0439232 0.0371117 0.0134985 
-0.0112537 0.0395394 0.0136285 0.0221021 0.0401282 0.0140114 -0.0133259 0.0414802 0.0131921 
0.00805094 0.0422278 0.0138208 -0.0205282 0.0432397 0.0133637 -0.00340304 -0.0448428 0.0148097 
-0.027409 -0.0433703 0.0143604 -0.0406141 -0.0405112 0.0152831 -0.0169239 -0.0402939 0.0146319 
-0.00670669 -0.0394183 0.014667 0.0244803 -0.0401788 0.0154705 -0.0439713 -0.0357399 0.0146465 
-0.0273176 -0.0361067 0.0143786 -0.00161929 -0.0353994 0.0152717 0.0195647 -0.0366528 0.0151389 
-0.0177429 -0.0346724 0.0155927 0.00879071 -0.0344865 0.0142969 0.0403097 -0.0347888 0.0153241 
0.00802514 -0.031483 0.0143268 0.00231692 -0.0294453 0.015542 0.00741479 -0.0295782 0.0148585 
-0.0401314 -0.0280847 0.0149406 -0.00580099 -0.0272788 0.014557 -0.0338231 -0.0250135 0.014812 
-0.0291427 -0.0219343 0.0152429 -0.0164034 -0.0216001 0.0154318 0.0218308 -0.0192565 0.0153702 
-0.0328213 -0.0176588 0.01453 -0.0204621 -0.0172006 0.0154506 -0.0183202 -0.0175475 0.0146439 
0.0184681 -0.0172117 0.0152642 0.0252581 -0.0163235 0.0149335 -0.0408642 -0.0154151 0.0154506 
-0.015814 -0.0152491 0.0144349 0.0375745 -0.0151367 0.014514 -0.0329121 -0.0139828 0.0143138 
0.0323804 -0.0132471 0.0152076 -0.0341597 -0.0122829 0.0145291 0.0322358 -0.0130621 0.0149129 
-0.0196799 -0.00931279 0.0151893 -0.042331 -0.00792816 0.0156052 -0.000610522 -0.00103491 0.0145993 
0.0147261 0.00139147 0.0145421 0.00347554 0.00338662 0.0144834 -0.037077 0.00611456 0.0150176 
-0.00552594 0.00555795 0.0153417 0.0332757 0.00539899 0.0151008 0.0142017 0.0079404 0.0150479 
0.0202046 0.00840095 0.0150641 0.00978397 0.00922321 0.0149735 -0.0350204 0.0121089 0.0155028 
-0.00831541 0.0129665 0.0151757 0.014866 0.0127598 0.0155594 0.00789931 0.0136568 0.014924 
-0.00443291 0.0160613 0.0146756 0.0256029 0.0175394 0.0152099 0.00757299 0.0192258 0.0143697 
0.0350116 0.0207306 0.0154326 0.0362273 0.0220011 0.0151933 -0.0349287 0.0230684 0.0154167 
-0.0295899 0.0232577 0.0155625 -0.00782209 0.0241861 0.0144113 0.00953871 0.0271324 0.0143788 
-0.0219587 0.0304934 0.0154714 -0.00435696 0.0325462 0.0152368 0.0214431 0.0335886 0.0155271 
-0.0422696 0.0340949 0.0146089 -0.00196307 0.0366495 0.0143031 0.0030545 0.0369981 0.0151997 
-0.00883869 0.0381834 0.0148732 0.0281745 0.039089 0.0152058 -0.0375088 0.0393741 0.0154124 
0.0114086 0.0440135 0.0145073 0.0399235 0.0434757 0.0145146 0.0171919 0.0449185 0.0143792 
0.0211706 0.0445491 0.0144341 -0.0346971 -0.0446764 0.0158505 0.0145521 -0.0432303 0.0166239 
-0.0248654 -0.0427111 0.0159935 0.0201641 -0.0426709 0.0160378 0.0248068 -0.0428986 0.0156297 
0.0238162 -0.0409762 0.0159993 -0.0370475 -0.0370945 0.0161581 0.0397687 -0.0374633 0.0160919 
-0.0376897 -0.0314333 0.0168326 0.023019 -0.0293484 0.0161879 0.0392765 -0.0300093 0.0157887 
-0.0432264 -0.0264101 0.0161867 0.03382 -0.0268981 0.0161776 0.0054016 -0.025334 0.0158378 
-0.0350278 -0.0224863 0.0162693 0.0115492 -0.0227248 0.0156983 0.0249316 -0.014475 0.0165893 
-0.0313057 -0.0141988 0.0161154 0.0403752 -0.0143085 0.0167691 -0.0269092 -0.0125643 0.0158727 
-0.0136128 -0.00979682 0.016254 0.0406218 -0.0100941 0.0167945 -0.0135858 -0.00672635 0.0166746 
-0.0395569 -0.00227866 0.0162909 -0.0416237 0.00110806 0.0157433 0.0362421 0.00170773 0.0161567 
0.0323225 0.00436429 0.0167945 -0.00723413 0.00605583 0.0157629 0.0110904 0.00657535 0.0162887 
-0.0349081 0.00917553 0.0160099 0.0128044 0.0127337 0.0164721 0.0261916 0.0119357 0.0159868 
-0.0429188 0.0135204 0.015786 -0.0196462 0.0155185 0.0166077 0.0440772 0.0154938 0.0166287 
-0.0193355 0.018129 0.0166244 0.0122157 0.0191756 0.0163444 0.0388885 0.0193682 0.0163724 
-0.0431379 0.0208085 0.0164448 -0.0421793 0.0225172 0.016136 0.0146363 0.0223077 0.0156597 
0.00264144 0.0247174 0.016228 0.000162142 0.0251126 0.0163135 -0.0190887 0.0269029 0.0166868 
-0.0114472 0.026715 0.016376 -0.0376379 0.0294143 0.0166788 -0.0152062 0.0294088 0.0164663 
-0.00472634 0.0344449 0.016193 -0.0407273 0.0358476 0.0161103 0.0311732 0.0371467 0.0165938 
-0.00647711 0.0391566 0.0162463 -0.039126 0.0399637 0.0168786 -0.0181988 0.0434549 0.0163034 
0.0131812 -0.0427533 0.0175906 0.0166138 -0.0412108 0.0179265 0.00985621 -0.0367022 0.0181634 
-0.0309963 -0.0355024 0.0180428 0.0355384 -0.0354155 0.0170348 -0.0396817 -0.0304797 0.017216 
-0.0263426 -0.0292431 0.0170816 -0.0240024 -0.0280603 0.017768 -0.0240719 -0.0268296 0.0170005 
0.00538025 -0.0241403 0.0172842 -0.0139777 -0.0223984 0.01787 0.0109547 -0.0235646 0.0177787 
0.035159 -0.023363 0.017993 0.00548761 -0.0197918 0.0170097 0.0282033 -0.0178095 0.0173293 
0.038292 -0.016257 0.0176875 -0.0186412 -0.0134353 0.0177984 -0.0327621 -0.0121928 0.0175069 
-0.0344646 -0.00725539 0.0177518 -0.0211095 -0.00770044 0.0174086 0.0161928 -0.00760918 0.0172492 
0.00523139 -0.00599236 0.0169028 0.0180458 -0.00470109 0.0177348 -0.00941413 -0.00330341 0.018052 
-0.00254916 -0.00379952 0.0174969 0.00975646 -0.00313231 0.017498 -0.00896956 -0.00131708 0.0173485 
0.0140084 -6.89735e-05 0.0181178 0.0407777 0.000744206 0.0169215 -0.0261639 0.00337815 0.018028 
0.00243665 0.00282786 0.0176731 0.0250346 0.00641518 0.0172516 0.023953 0.00820576 0.0173689 
-0.00867948 0.0139924 0.0172542 0.0311878 0.014057 0.0180648 0.0336082 0.013194 0.0171906 
0.0441199 0.0136981 0.0173236 0.0226738 0.0181095 0.0169672 -0.0287332 0.0215601 0.017158 
-0.0122989 0.0222019 0.0176078 0.0398418 0.0217469 0.0178607 0.0438582 0.0244724 0.0176426 
-0.0406313 0.0295913 0.0169806 0.00519606 0.0301696 0.0173776 0.00317215 0.0343196 0.0172711 
-0.00585061 0.0388609 0.018184 0.0352701 0.0439749 0.0175689 0.0352379 0.0438995 0.0169373 
-0.00396528 -0.0444182 0.0183077 0.0195053 -0.043722 0.0186363 -0.0389435 -0.0425966 0.0192272 
-0.0136468 -0.0412372 0.018586 0.0424299 -0.0409921 0.0183214 -0.0289295 -0.0389067 0.0194675 
0.0325128 -0.03812 0.019063 -0.00338111 -0.0363358 0.0194739 0.0307351 -0.0355434 0.019503 
-8.23525e-05 -0.034098 0.0185157 -0.0177803 -0.0340186 0.0186337 -0.0161578 -0.0337243 0.0184566 
-0.0233761 -0.031813 0.0194292 -0.0210092 -0.0320472 0.0194572 0.0268369 -0.0315202 0.0181909 
-0.0220587 -0.0306349 0.0185776 -0.0414327 -0.0290659 0.0183283 -0.0346801 -0.0287009 0.0189163 
0.0153133 -0.0285941 0.0186393 -0.00863888 -0.0237376 0.0182131 0.00179778 -0.0247441 0.0186569 
0.00558373 -0.0242787 0.0188822 0.0102479 -0.024092 0.018969 -0.0127621 -0.0231756 0.0188075 
0.0240101 -0.0228809 0.0187052 0.0394323 -0.021923 0.0190414 -0.0210835 -0.0209207 0.0183878 
-0.0033641 -0.0204173 0.018391 -0.0207996 -0.0190456 0.0193602 -0.0147645 -0.0165889 0.0185678 
0.0132043 -0.01541 0.018938 0.0323803 -0.0150629 0.0187454 -0.0279963 -0.0141356 0.0189363 
-0.00710141 -0.0133745 0.0193932 0.0144468 -0.013247 0.0185754 -0.00528066 -0.0121118 0.0188116 
-0.038829 -0.00978443 0.0184451 -0.0253401 -0.0103599 0.0193103 0.0334462 -0.00930086 0.0185595 
-0.0214415 -0.007536 0.0184477 -0.0150798 -0.00698339 0.0184158 -0.0101373 -0.00698039 0.0195005 
-0.0253129 -0.0039775 0.0190241 0.0200271 -0.00425623 0.0184649 -0.0107529 -0.00365687 0.0190361 
-0.0198668 -0.00211416 0.0188548 0.0168839 -0.00210364 0.0182556 -0.0283489 -0.000417126 0.0182468 
-0.0153419 -0.00108619 0.0182769 0.00127443 -0.000618905 0.0194354 0.0420414 -0.00101026 0.0194872 
0.0116524 0.00206193 0.0186736 -0.0233311 0.00384073 0.0193786 0.0183943 0.00266245 0.0185722 
0.0260144 0.00429017 0.0193842 -0.0403489 0.00598291 0.0189024 0.0358407 0.00533501 0.0190135 
-0.0429246 0.00657681 0.0188465 -0.019893 0.00878872 0.0194522 -0.0105861 0.00898083 0.0185179 
0.0324887 0.00836074 0.0191753 0.0234497 0.00978487 0.0191227 -0.00071691 0.0108932 0.0189783 
-0.00841171 0.0143034 0.0184155 0.012949 0.0143048 0.0193561 0.0396593 0.013993 0.0185106 
-0.0287818 0.014969 0.0193297 -0.0231109 0.0157017 0.0188308 -0.0408838 0.0159645 0.0190006 
-0.0286532 0.0159811 0.0193858 -0.00317984 0.0164631 0.0193847 -0.0363159 0.0185996 0.0193284 
-0.0324762 0.0230005 0.0193076 -0.0148746 0.0223253 0.0185354 0.00126512 0.0228658 0.0184608 
-0.0436572 0.0238848 0.0192469 -0.0128609 0.0265935 0.0187298 -0.0214233 0.0285543 0.0193938 
0.0397191 0.0283771 0.0192023 0.0040127 0.0314243 0.0194028 0.0191028 0.0315895 0.018646 
0.0193546 0.0324404 0.018943 -0.0425374 0.0333781 0.0190203 0.00727395 0.0332762 0.0182584 
0.0278529 0.0342296 0.0192498 0.00888594 0.0360502 0.01858 0.00367032 0.0371324 0.0193525 
0.00201585 0.0404036 0.0189841 0.00528787 0.0432844 0.0185933 -0.0390775 0.0447256 0.0188466 
-0.0317519 -0.0446953 0.0199022 0.0406519 -0.0427256 0.0195545 0.00849583 -0.0405939 0.0197435 
-0.0234086 -0.038644 0.020024 -0.0195638 -0.0385913 0.0195832 -0.0179089 -0.0346335 0.0200754 
0.043014 -0.0343178 0.0206933 0.010226 -0.0308634 0.0198324 0.0156293 -0.0283842 0.0197207 
0.0347572 -0.0260666 0.0195421 0.0350196 -0.0250011 0.0205141 0.0210005 -0.0239559 0.0195661 
-0.038621 -0.0229432 0.0198464 0.0134129 -0.0192809 0.0195429 0.0204492 -0.0194639 0.0203215 
0.0296492 -0.015918 0.0196484 0.00886689 -0.0141191 0.0198098 0.0347312 -0.012978 0.0195962 
0.0253763 -0.011051 0.0198731 0.0218314 -0.00971151 0.0197065 -0.00720807 -0.00608605 0.0195587 
-0.0332593 0.000859011 0.0197716 0.0189244 0.00254502 0.0198726 -0.027449 0.00511055 0.0196627 
-0.01547 0.00642247 0.0198582 0.0133448 0.00646544 0.0206602 -0.0408306 0.00999374 0.0196567 
0.027557 0.009967 0.0197324 -0.00808524 0.0113378 0.0195469 0.00418285 0.0112423 0.0204405 
-0.0161548 0.0159009 0.0198831 -0.0436896 0.0195853 0.0195501 0.00742845 0.0199749 0.0198025 
-0.0138035 0.0240512 0.0197036 -0.0132251 0.0252506 0.0198826 0.0337272 0.0324898 0.0196918 
0.0380057 0.0324307 0.0197847 -0.0359241 0.0337864 0.0206532 0.0132394 0.0345575 0.0206028 
-0.00750544 0.0361316 0.0197642 -0.0379532 0.0399341 0.0198364 -0.00785852 0.041878 0.0200068 
0.0170579 0.0421878 0.0197993 0.0430506 0.0422314 0.0199227 -0.0190394 0.0446837 0.0204865 
0.0147823 -0.0446949 0.0210684 -0.00682403 -0.0314098 0.0217521 0.0272875 -0.0186725 0.0216918 
0.0386193 -0.00496685 0.0212331 -0.0131355 0.00164571 0.0212404 -0.0137512 0.00384646 0.0215711 
-0.009285 0.00693532 0.0210337 -0.00598638 0.00689803 0.0208469 -0.0408092 0.00981999 0.0210056 
0.021223 0.0244832 0.0209775 -0.014478 0.0275162 0.0212942 -0.0225361 -0.0441701 0.0233424 
0.0127657 -0.00746761 0.0230165 0.0448793 -0.00396119 0.0228765 -0.0442311 0.00821601 0.0230951 
0.00976298 0.0163696 0.0224238 -0.0260391 0.0304395 0.0232023 0.0352883 -0.0103067 0.0239349 
-0.0122189 0.0175978 0.0238917 0.039455 -0.000236508 0.0249528 0.0242571 -0.0100823 0.034439 

VERTICES 649 648
OFFSETS vtktypeint64
0 1 2 3 4 5 6 7 8 
9 10 11 12 13 14 15 16 17 
18 19 20 21 22 23 24 25 26 
27 28 29 30 31 32 33 34 35 
36 37 38 39 40 41 42 43 44 
45 46 47 48 49 50 51 52 53 
54 55 56 57 58 59 60 61 62 
63 64 65 66 67 68 69 70 71 
72 73 74 75 76 77 78 79 80 
81 82 83 84 85 86 87 88 89 
90 91 92 93 94 95 96 97 98 
99 100 101 102 103 104 105 106 107 
108 109 110 111 112 113 114 115 116 
117 118 119 120 121 122 123 124 125 
126 127 128 129 130 131 132 133 134 
135 136 137 138 139 140 141 142 143 
144 145 146 147 148 149 150 151 152 
153 154 155 156 157 158 159 160 161 
162 163 164 165 166 167 168 169 170 
171 172 173 174 175 176 177 178 179 
180 181 182 183 184 185 186 187 188 
189 190 191 192 193 194 195 196 197 
198 199 200 201 202 203 204 205 206 
207 208 209 210 211 212 213 214 215 
216 217 218 219 220 221 222 223 224 
225 226 227 228 229 230 231 232 233 
234 235 236 237 238 239 240 241 242 
243 244 245 246 247 248 249 250 251 
252 253 254 255 256 257 258 259 260 
261 262 263 264 265 266 267 268 269 
270 271 272 273 274 275 276 277 278 
279 280 281 282 283 284 285 286 287 
288 289 290 291 292 293 294 295 296 
297 298 299 300 301 302 303 304 305 
306 307 308 309 310 311 312 313 314 
315 316 317 318 319 320 321 322 323 
324 325 326 327 328 329 330 331 332 
333 334 335 336 337 338 339 340 341 
342 343 344 345 346 347 348 349 350 
351 352 353 354 355 356 357 358 359 
360 361 362 363 364 365 366 367 368 
369 370 371 372 373 374 375 376 377 
378 379 380 381 382 383 384 385 386 
387 388 389 390 391 392 393 394 395 
396 397 398 399 400 401 402 403 404 
405 406 407 408 409 410 411 412 413 
414 415 416 417 418 419 420 421 422 
423 424 425 426 427 428 429 430 431 
432 433 434 435 436 437 438 439 440 
441 442 443 444 445 446 447 448 449 
450 451 452 453 454 455 456 457 458 
459 460 461 462 463 464 465 466 467 
468 469 470 471 472 473 474 475 476 
477 478 479 480 481 482 483 484 485 
486 487 488 489 490 491 492 493 494 
495 496 497 498 499 500 501 502 503 
504 505 506 507 508 509 510 511 512 
513 514 515 516 517 518 519 520 521 
522 523 524 525 526 527 528 529 530 
531 532 533 534 535 536 537 538 539 
540 541 542 543 544 545 546 547 548 
549 550 551 552 553 554 555 556 557 
558 559 560 561 562 563 564 565 566 
567 568 569 570 571 572 573 574 575 
576 577 578 579 580 581 582 583 584 
585 586 587 588 589 590 591 592 593 
594 595 596 597 598 599 600 601 602 
603 604 605 606 607 608 609 610 611 
612 613 614 615 616 617 618 619 620 
621 622 623 624 625 626 627 628 629 
630 631 632 633 634 635 636 637 638 
639 640 641 642 643 644 645 646 647 
648 
CONNECTIVITY vtktypeint64
0 1 2 3 4 5 6 7 8 
9 10 11 12 13 14 15 16 17 
18 19 20 21 22 23 24 25 26 
27 28 29 30 31 32 33 34 35 
36 37 38 39 40 41 42 43 44 
45 46 47 48 49 50 51 52 53 
54 55 56 57 58 59 60 61 62 
63 64 65 66 67 68 69 70 71 
72 73 74 75 76 77 78 79 80 
81 82 83 84 85 86 87 88 89 
90 91 92 93 94 95 96 97 98 
99 100 101 102 103 104 105 106 107 
108 109 110 111 112 113 114 115 116 
117 118 119 120 121 122 123 124 125 
126 127 128 129 130 131 132 133 134 
135 136 137 138 139 140 141 142 143 
144 145 146 147 148 149 150 151 152 
153 154 155 156 157 158 159 160 161 
162 163 164 165 166 167 168 169 170 
171 172 173 174 175 176 177 178 179 
180 181 182 183 184 185 186 187 188 
189 190 191 192 193 194 195 196 197 
198 199 200 201 202 203 204 205 206 
207 208 209 210 211 212 213 214 215 
216 217 218 219 220 221 222 223 224 
225 226 227 228 229 230 231 232 233 
234 235 236 237 238 239 240 241 242 
243 244 245 246 247 248 249 250 251 
252 253 254 255 256 257 258 259 260 
261 262 263 264 265 266 267 268 269 
270 271 272 273 274 275 276 277 278 
279 280 281 282 283 284 285 286 287 
288 289 290 291 292 293 294 295 296 
297 298 299 300 301 302 303 304 305 
306 307 308 309 310 311 312 313 314 
315 316 317 318 319 320 321 322 323 
324 325 326 327 328 329 330 331 332 
333 334 335 336 337 338 339 340 341 
342 343 344 345 346 347 348 349 350 
351 352 353 354 355 356 357 358 359 
360 361 362 363 364 365 366 367 368 
369 370 371 372 373 374 375 376 377 
378 379 380 381 382 383 384 385 386 
387 388 389 390 391 392 393 394 395 
396 397 398 399 400 401 402 403 404 
405 406 407 408 409 410 411 412 413 
414 415 416 417 418 419 420 421 422 
423 424 425 426 427 428 429 430 431 
432 433 434 435 436 437 438 439 440 
441 442 443 444 445 446 447 448 449 
450 451 452 453 454 455 456 457 458 
459 460 461 462 463 464 465 466 467 
468 469 470 471 472 473 474 475 476 
477 478 479 480 481 482 483 484 485 
486 487 488 489 490 491 492 493 494 
495 496 497 498 499 500 501 502 503 
504 505 506 507 508 509 510 511 512 
513 514 515 516 517 518 519 520 521 
522 523 524 525 526 527 528 529 530 
531 532 533 534 535 536 537 538 539 
540 541 542 543 544 545 546 547 548 
549 550 551 552 553 554 555 556 557 
558 559 560 561 562 563 564 565 566 
567 568 569 570 571 572 573 574 575 
576 577 578 579 580 581 582 583 584 
585 586 587 588 589 590 591 592 593 
594 595 596 597 598 599 600 601 602 
603 604 605 606 607 608 609 610 611 
612 613 614 615 616 617 618 619 620 
621 622 623 624 625 626 627 628 629 
630 631 632 633 634 635 636 637 638 
639 640 641 642 643 644 645 646 647 

POINT_DATA 648
FIELD FieldData 12
id 1 648 int
164 632 185 72 450 169 491 18 195 
648 115 190 293 602 383 370 647 57 
465 418 396 214 150 619 433 219 643 
92 584 304 154 106 630 175 458 407 
310 339 582 166 49 609 624 362 606 
508 459 470 444 608 297 625 588 506 
611 600 246 386 372 626 347 634 404 
629 331 317 289 292 610 568 132 66 
36 456 432 322 646 85 639 463 200 
635 134 51 107 137 291 574 267 282 
439 355 644 231 428 515 631 478 467 
423 197 620 633 110 521 149 163 26 
327 270 412 218 597 356 88 645 604 
238 603 176 590 381 215 227 127 336 
385 598 86 353 556 261 288 607 637 
318 575 614 366 207 35 34 24 605 
303 581 578 64 237 247 58 612 628 
544 569 6 615 243 125 592 593 129 
165 255 601 595 373 60 202 308 622 
193 40 364 189 187 201 583 29 579 
552 320 328 62 140 562 577 87 226 
367 571 616 570 543 128 121 479 440 
618 572 168 585 599 638 617 157 324 
567 542 621 83 565 186 538 546 401 
535 504 488 158 623 253 148 555 586 
534 346 457 256 589 636 352 294 627 
71 541 472 496 73 537 554 483 260 
563 368 299 11 257 341 334 56 613 
420 345 273 469 392 117 507 100 408 
280 461 321 594 596 343 268 348 251 
233 108 272 31 591 489 229 333 548 
445 576 167 573 174 290 349 427 399 
42 580 557 263 360 135 204 141 503 
454 426 338 560 587 417 561 514 337 
109 12 162 410 509 114 94 437 531 
155 435 361 91 406 98 188 549 99 
314 326 22 82 159 436 518 319 69 
505 139 640 502 409 415 547 160 558 
274 298 539 551 553 143 374 194 500 
530 380 566 248 95 564 90 641 495 
545 126 424 112 497 181 262 21 46 
220 118 443 33 529 330 254 14 199 
419 222 235 550 232 182 559 536 76 
302 351 55 438 275 84 113 203 390 
429 411 122 477 103 533 527 183 532 
526 449 240 306 211 8 264 311 32 
382 75 61 216 486 528 400 378 446 
384 178 358 184 447 161 357 287 104 
520 9 498 30 451 540 387 309 198 
413 523 375 414 52 102 487 344 525 
295 96 13 484 513 192 329 28 517 
170 59 146 53 511 278 377 252 142 
642 20 151 265 196 519 244 474 510 
119 395 236 63 54 138 431 279 206 
524 81 313 45 397 475 89 93 258 
68 271 312 359 67 492 388 350 156 
239 307 5 250 393 354 147 493 116 
79 223 416 323 111 403 25 177 462 
376 74 276 490 460 43 16 23 38 
10 522 39 285 105 171 405 371 205 
217 365 80 208 212 305 379 501 153 
301 124 144 145 296 221 17 41 363 
48 70 315 228 473 485 130 325 394 
191 266 209 179 332 481 65 455 225 
421 286 482 123 342 476 242 471 136 
173 210 402 47 283 120 430 335 234 
37 44 448 422 441 259 340 101 224 
389 77 284 245 512 453 480 442 464 
468 152 281 97 131 180 466 494 391 
452 249 277 434 19 172 241 398 516 
133 499 300 425 213 4 78 369 230 
27 50 316 15 269 3 7 2 1 

type 1 648 int
1 1 1 1 1 1 1 1 1 
1 1 1 1 1 1 1 1 1 
1 1 1 1 1 1 1 1 1 
1 1 1 1 1 1 1 1 1 
1 1 1 1 1 1 1 1 1 
1 1 1 1 1 1 1 1 1 
1 1 1 1 1 1 1 2 1 
1 1 1 1 1 1 1 1 1 
1 1 1 1 1 1 1 1 1 
1 1 1 1 1 1 1 1 1 
1 1 1 1 1 1 1 1 1 
1 1 1 1 1 1 1 1 1 
1 1 1 1 1 1 1 1 1 
1 1 1 1 1 1 1 1 1 
1 1 1 1 1 1 1 1 1 
1 1 1 1 1 1 1 1 1 
1 1 1 1 1 1 1 1 1 
1 1 2 1 1 1 1 1 1 
1 1 1 1 1 1 1 1 1 
1 1 1 1 1 1 1 1 1 
1 1 1 1 1 1 1 1 1 
1 1 1 1 1 1 1 1 1 
1 1 1 1 1 1 1 1 1 
1 1 1 1 1 1 1 1 1 
1 1 1 1 1 1 1 1 1 
1 1 1 1 1 1 1 1 1 
1 1 1 1 1 1 1 1 1 
1 1 1 2 1 1 1 1 1 
1 1 1 1 1 1 1 1 1 
1 1 1 1 1 1 1 1 1 
1 1 1 1 1 1 1 1 1 
1 1 1 1 1 1 1 1 1 
1 1 1 1 1 1 1 1 1 
1 1 1 1 1 1 1 1 1 
1 2 1 1 1 1 1 1 1 
1 1 1 1 1 1 1 1 1 
1 1 1 1 1 1 1 1 1 
1 1 1 1 1 1 1 1 1 
1 1 1 1 1 1 1 1 1 
1 1 1 1 1 1 1 1 1 
1 1 1 1 1 1 1 1 1 
1 1 1 1 1 1 1 2 1 
1 1 1 1 1 1 1 1 1 
1 1 1 1 1 1 1 1 1 
1 1 1 1 1 1 1 1 1 
1 1 1 1 1 2 1 1 1 
1 1 1 1 1 1 1 1 1 
1 1 1 1 1 1 1 1 1 
1 2 1 1 1 1 1 1 1 
1 1 1 1 1 1 1 1 1 
1 1 2 1 1 1 1 1 1 
1 1 1 1 1 1 1 1 1 
1 1 1 1 1 1 1 1 1 
1 1 1 1 1 1 1 1 1 
1 1 1 1 1 1 1 1 1 
1 1 1 1 1 1 1 1 1 
1 1 2 1 1 1 1 1 1 
1 1 1 1 1 1 1 1 1 
1 1 1 1 1 1 2 1 1 
2 1 1 1 1 1 1 1 1 
1 1 1 1 1 1 1 1 1 
1 1 1 1 1 1 1 1 1 
1 1 1 1 1 1 1 1 1 
1 1 1 1 1 1 1 1 1 
1 1 1 1 1 1 1 1 1 
1 1 1 1 1 1 1 1 1 
1 1 1 1 1 1 1 1 1 
1 1 1 1 2 1 1 1 1 
1 1 1 1 1 1 1 1 1 
1 1 1 1 1 1 1 1 2 
1 1 1 1 1 2 1 1 1 
1 1 1 2 1 2 2 3 4 

i 3 648 int
0 0 0 0 0 0 0 0 0 
0 0 0 0 0 0 0 0 0 
0 0 0 0 0 0 0 0 0 
0 0 0 0 0 0 0 0 0 
0 0 0 0 0 0 0 0 0 
0 0 0 0 0 0 0 0 0 
0 0 0 0 0 0 0 0 0 
0 0 0 0 0 0 0 0 0 
0 0 0 0 0 0 0 0 0 
0 0 0 0 0 0 0 0 0 
0 0 0 0 0 0 0 0 0 
0 0 0 0 0 0 0 0 0 
0 0 0 0 0 0 0 0 0 
0 0 0 0 0 0 0 0 0 
0 0 0 0 0 0 0 0 0 
0 0 0 0 0 0 0 0 0 
0 0 0 0 0 0 0 0 0 
0 0 0 0 0 0 0 0 0 
0 0 0 0 0 0 0 0 0 
0 0 0 0 0 0 0 0 0 
0 0 0 0 0 0 0 0 0 
0 0 0 0 0 0 0 0 0 
0 0 0 0 0 0 0 0 0 
0 0 0 0 0 0 0 0 0 
0 0 0 0 0 0 0 0 0 
0 0 0 0 0 0 0 0 0 
0 0 0 0 0 0 0 0 0 
0 0 0 0 0 0 0 0 0 
0 0 0 0 0 0 0 0 0 
0 0 0 0 0 0 0 0 0 
0 0 0 0 0 0 0 0 0 
0 0 0 0 0 0 0 0 0 
0 0 0 0 0 0 0 0 0 
0 0 0 0 0 0 0 0 0 
0 0 0 0 0 0 0 0 0 
0 0 0 0 0 0 0 0 0 
0 0 0 0 0 0 0 0 0 
0 0 0 0 0 0 0 0 0 
0 0 0 0 0 0 0 0 0 
0 0 0 0 0 0 0 0 0 
0 0 0 0 0 0 0 0 0 
0 0 0 0 0 0 0 0 0 
0 0 0 0 0 0 0 0 0 
0 0 0 0 0 0 0 0 0 
0 0 0 0 0 0 0 0 0 
0 0 0 0 0 0 0 0 0 
0 0 0 0 0 0 0 0 0 
0 0 0 0 0 0 0 0 0 
0 0 0 0 0 0 0 0 0 
0 0 0 0 0 0 0 0 0 
0 0 0 0 0 0 0 0 0 
0 0 0 0 0 0 0 0 0 
0 0 0 0 0 0 0 0 0 
0 0 0 0 0 0 0 0 0 
0 0 0 0 0 0 0 0 0 
0 0 0 0 0 0 0 0 0 
0 0 0 0 0 0 0 0 0 
0 0 0 0 0 0 0 0 0 
0 0 0 0 0 0 0 0 0 
0 0 0 0 0 0 0 0 0 
0 0 0 0 0 0 0 0 0 
0 0 0 0 0 0 0 0 0 
0 0 0 0 0 0 0 0 0 
0 0 0 0 0 0 0 0 0 
0 0 0 0 0 0 0 0 0 
0 0 0 0 0 0 0 0 0 
0 0 0 0 0 0 0 0 0 
0 0 0 0 0 0 0 0 0 
0 0 0 0 0 0 0 0 0 
0 0 0 0 0 0 0 0 0 
0 0 0 0 0 0 0 0 0 
0 0 0 0 0 0 0 0 0 
0 0 0 0 0 0 0 0 0 
0 0 0 0 0 0 0 0 0 
0 0 0 0 0 0 0 0 0 
0 0 0 0 0 0 0 0 0 
0 0 0 0 0 0 0 0 0 
0 0 0 0 0 0 0 0 0 
0 0 0 0 0 0 0 0 0 
0 0 0 0 0 0 0 0 0 
0 0 0 0 0 0 0 0 0 
0 0 0 0 0 0 0 0 0 
0 0 0 0 0 0 0 0 0 
0 0 0 0 0 0 0 0 0 
0 0 0 0 0 0 0 0 0 
0 0 0 0 0 0 0 0 0 
0 0 0 0 0 0 0 0 0 
0 0 0 0 0 0 0 0 0 
0 0 0 0 0 0 0 0 0 
0 0 0 0 0 0 0 0 0 
0 0 0 0 0 0 0 0 0 
0 0 0 0 0 0 0 0 0 
0 0 0 0 0 0 0 0 0 
0 0 0 0 0 0 0 0 0 
0 0 0 0 0 0 0 0 0 
0 0 0 0 0 0 0 0 0 
0 0 0 0 0 0 0 0 0 
0 0 0 0 0 0 0 0 0 
0 0 0 0 0 0 0 0 0 
0 0 0 0 0 0 0 0 0 
0 0 0 0 0 0 0 0 0 
0 0 0 0 0 0 0 0 0 
0 0 0 0 0 0 0 0 0 
0 0 0 0 0 0 0 0 0 
0 0 0 0 0 0 0 0 0 
0 0 0 0 0 0 0 0 0 
0 0 0 0 0 0 0 0 0 
0 0 0 0 0 0 0 0 0 
0 0 0 0 0 0 0 0 0 
0 0 0 0 0 0 0 0 0 
0 0 0 0 0 0 0 0 0 
0 0 0 0 0 0 0 0 0 
0 0 0 0 0 0 0 0 0 
0 0 0 0 0 0 0 0 0 
0 0 0 0 0 0 0 0 0 
0 0 0 0 0 0 0 0 0 
0 0 0 0 0 0 0 0 0 
0 0 0 0 0 0 0 0 0 
0 0 0 0 0 0 0 0 0 
0 0 0 0 0 0 0 0 0 
0 0 0 0 0 0 0 0 0 
0 0 0 0 0 0 0 0 0 
0 0 0 0 0 0 0 0 0 
0 0 0 0 0 0 0 0 0 
0 0 0 0 0 0 0 0 0 
0 0 0 0 0 0 0 0 0 
0 0 0 0 0 0 0 0 0 
0 0 0 0 0 0 0 0 0 
0 0 0 0 0 0 0 0 0 
0 0 0 0 0 0 0 0 0 
0 0 0 0 0 0 0 0 0 
0 0 0 0 0 0 0 0 0 
0 0 0 0 0 0 0 0 0 
0 0 0 0 0 0 0 0 0 
0 0 0 0 0 0 0 0 0 
0 0 0 0 0 0 0 0 0 
0 0 0 0 0 0 0 0 0 
0 0 0 0 0 0 0 0 0 
0 0 0 0 0 0 0 0 0 
0 0 0 0 0 0 0 0 0 
0 0 0 0 0 0 0 0 0 
0 0 0 0 0 0 0 0 0 
0 0 0 0 0 0 0 0 0 
0 0 0 0 0 0 0 0 0 
0 0 0 0 0 0 0 0 0 
0 0 0 0 0 0 0 0 0 
0 0 0 0 0 0 0 0 0 
0 0 0 0 0 0 0 0 0 
0 0 0 0 0 0 0 0 0 
0 0 0 0 0 0 0 0 0 
0 0 0 0 0 0 0 0 0 
0 0 0 0 0 0 0 0 0 
0 0 0 0 0 0 0 0 0 
0 0 0 0 0 0 0 0 0 
0 0 0 0 0 0 0 0 0 
0 0 0 0 0 0 0 0 0 
0 0 0 0 0 0 0 0 0 
0 0 0 0 0 0 0 0 0 
0 0 0 0 0 0 0 0 0 
0 0 0 0 0 0 0 0 0 
0 0 0 0 0 0 0 0 0 
0 0 0 0 0 0 0 0 0 
0 0 0 0 0 0 0 0 0 
0 0 0 0 0 0 0 0 0 
0 0 0 0 0 0 0 0 0 
0 0 0 0 0 0 0 0 0 
0 0 0 0 0 0 0 0 0 
0 0 0 0 0 0 0 0 0 
0 0 0 0 0 0 0 0 0 
0 0 0 0 0 0 0 0 0 
0 0 0 0 0 0 0 0 0 
0 0 0 0 0 0 0 0 0 
0 0 0 0 0 0 0 0 0 
0 0 0 0 0 0 0 0 0 
0 0 0 0 0 0 0 0 0 
0 0 0 0 0 0 0 0 0 
0 0 0 0 0 0 0 0 0 
0 0 0 0 0 0 0 0 0 
0 0 0 0 0 0 0 0 0 
0 0 0 0 0 0 0 0 0 
0 0 0 0 0 0 0 0 0 
0 0 0 0 0 0 0 0 0 
0 0 0 0 0 0 0 0 0 
0 0 0 0 0 0 0 0 0 
0 0 0 0 0 0 0 0 0 
0 0 0 0 0 0 0 0 0 
0 0 0 0 0 0 0 0 0 
0 0 0 0 0 0 0 0 0 
0 0 0 0 0 0 0 0 0 
0 0 0 0 0 0 0 0 0 
0 0 0 0 0 0 0 0 0 
0 0 0 0 0 0 0 0 0 
0 0 0 0 0 0 0 0 0 
0 0 0 0 0 0 0 0 0 
0 0 0 0 0 0 0 0 0 
0 0 0 0 0 0 0 0 0 
0 0 0 0 0 0 0 0 0 
0 0 0 0 0 0 0 0 0 
0 0 0 0 0 0 0 0 0 
0 0 0 0 0 0 0 0 0 
0 0 0 0 0 0 0 0 0 
0 0 0 0 0 0 0 0 0 
0 0 0 0 0 0 0 0 0 
0 0 0 0 0 0 0 0 0 
0 0 0 0 0 0 0 0 0 
0 0 0 0 0 0 0 0 0 
0 0 0 0 0 0 0 0 0 
0 0 0 0 0 0 0 0 0 
0 0 0 0 0 0 0 0 0 
0 0 0 0 0 0 0 0 0 
0 0 0 0 0 0 0 0 0 
0 0 0 0 0 0 0 0 0 
0 0 0 0 0 0 0 0 0 
0 0 0 0 0 0 0 0 0 
0 0 0 0 0 0 0 0 0 
0 0 0 0 0 0 0 0 0 

v 3 648 double
0 0 0.055615177855 0 0 0.24026533454 0 0 0.05787997278 
0 0 0.057480251306 0 0 0.073305909324 0 0 0.063360346074 
0 0 0.069948794707 0 0 0.056330258516 0 0 0.057034702493 
0 0 0.23322136663 0 0 0.042607567247 0 0 -0.16889088927 
0 0 -0.16481297078 0 0 0.25028292434 0 0 0.045473781283 
0 0 -0.17004517269 0 0 0.23306564817 0 0 0.035182312389 
0 0 0.044911248862 0 0 -0.16702444263 0 0 0.055210226722 
0 0 -0.16730409195 0 0 -0.17026980571 0 0 -0.64124918749 
0 0 -0.16503739164 0 0 -0.17008874844 0 0 -0.62499918749 
0 0 -0.1590379099 0 0 0.20344277323 0 0 -0.16069331144 
0 0 -0.15180892709 0 0 -0.1645332918 0 0 0.24881195153 
0 0 -0.15020400938 0 0 -0.15505913114 0 0 -0.15344992772 
0 0 -0.14949822935 0 0 -0.15688804245 0 0 0.19629773284 
0 0 -0.15749023565 0 0 -0.15348997859 0 0 0.2300401708 
0 0 -0.63799918749 0 0 -0.17219667636 0 0 0.24615946253 
0 0 -0.1280516083 0 0 -0.15711089665 0 0 -0.14422230115 
0 0 -0.14205737589 0 0 0.23524327241 0 0 -0.14444282635 
0 0 0.22013354909 0 0 0.26336717133 0 0 -0.13228845729 
0 0 0.19596916271 0 0 0.19296137585 0 0 -0.14924099026 
0 0 -0.14673318213 0 0 -0.16234963862 0 0 0.15095915046 
0 0 -0.1276167744 0 0 0.22895923907 0 0 -0.13436589817 
0 0 0.19569048616 0 0 -0.13862200625 0 0 -0.13651492948 
0 0 -0.14420105129 0 0 -0.13559846291 0 0 0.21866876206 
0 0 0.21435259914 0 0 -0.13762528642 0 0 -0.13575232366 
0 0 -0.13817942325 0 0 -0.12838496212 0 0 -0.13285273825 
0 0 -0.14199777996 0 0 -0.62499918749 0 0 -0.13376587575 
0 0 0.1857671594 0 0 -0.1214027083 0 0 -0.15438539917 
0 0 0.18555976474 0 0 -0.15371750178 0 0 -0.12014150747 
0 0 -0.15229635678 0 0 -0.12260232613 0 0 -0.14935860654 
0 0 0.16569479815 0 0 -0.11986918105 0 0 -0.13744646881 
0 0 -0.1191231372 0 0 -0.12538068169 0 0 -0.62499918749 
0 0 -0.15438114554 0 0 -0.15604679957 0 0 -0.093156124883 
0 0 -0.63474918749 0 0 -0.12526065881 0 0 -0.12507862631 
0 0 -0.14853173085 0 0 -0.15292592142 0 0 0.1908208262 
0 0 0.12551356551 0 0 -0.12072625166 0 0 -0.093079067839 
0 0 -0.14707619397 0 0 -0.1207712331 0 0 -0.15098046146 
0 0 -0.12582276032 0 0 -0.1526181149 0 0 -0.11970751934 
0 0 -0.098857098916 0 0 0.11983047568 0 0 -0.14467012028 
0 0 -0.14312306176 0 0 0.075083953287 0 0 0.08771246035 
0 0 -0.10927267749 0 0 0.1814191842 0 0 -0.14603162324 
0 0 0.18795276322 0 0 -0.13991725152 0 0 -0.13899850927 
0 0 -0.10739502595 0 0 -0.14366247862 0 0 -0.13897505798 
0 0 -0.13945678279 0 0 0.12159993137 0 0 -0.14550247637 
0 0 -0.13613710715 0 0 0.1383649276 0 0 -0.11283121331 
0 0 -0.10781328755 0 0 0.17435788653 0 0 0.14936292606 
0 0 -0.10695949697 0 0 0.19403402464 0 0 0.11278755015 
0 0 -0.12989362931 0 0 -0.11431611258 0 0 -0.092953149944 
0 0 -0.091325660639 0 0 -0.099997802067 0 0 0.055642324033 
0 0 -0.10175596714 0 0 0.1701607554 0 0 0.16316975184 
0 0 -0.08879118286 0 0 -0.12713357505 0 0 -0.130271644 
0 0 -0.12846338286 0 0 0.032028044509 0 0 0.13443180619 
0 0 0.18880633856 0 0 0.16394573728 0 0 -0.14031914438 
0 0 0.053885721953 0 0 -0.088653284499 0 0 -0.12909379099 
0 0 0.043804633242 0 0 0.096012948853 0 0 -0.086837512154 
0 0 -0.1282354314 0 0 -0.097871458317 0 0 0.011964562113 
0 0 0.16810142312 0 0 -0.12807688129 0 0 -0.10931628114 
0 0 -0.088725725187 0 0 -0.084581864079 0 0 0.15052862731 
0 0 -0.12500198234 0 0 -0.10989373049 0 0 -0.12552645292 
0 0 -0.13329635742 0 0 -0.13243635291 0 0 -0.087793119141 
0 0 0.10417309606 0 0 -0.12314246967 0 0 0.092892056615 
0 0 0.11649399442 0 0 -0.088032986826 0 0 -0.096620158756 
0 0 -0.087139041986 0 0 -0.073788105893 0 0 0.0020599728212 
0 0 0.037200731999 0 0 -0.12325397486 0 0 -0.072544282121 
0 0 -0.1182538379 0 0 0.015748416532 0 0 0.10511498909 
0 0 0.052260149222 0 0 -0.013971949808 0 0 -0.072624644665 
0 0 -0.088296864998 0 0 -0.08311537539 0 0 -0.1155134855 
0 0 0.14876434535 0 0 0.046188900547 0 0 -0.089431644113 
0 0 0.14479366317 0 0 0.13826254389 0 0 0.096019168483 
0 0 0.15086088532 0 0 -0.082286730177 0 0 -0.098300021679 
0 0 -0.0023598320792 0 0 -0.030467206466 0 0 -0.64124918749 
0 0 -0.12043390065 0 0 0.066728672562 0 0 -0.1163957402 
0 0 -0.021299899532 0 0 0.011864951487 0 0 -0.081027968323 
0 0 0.10504566524 0 0 -0.074857405264 0 0 -0.11020443496 
0 0 -0.12202914341 0 0 0.12420176567 0 0 -0.12343662176 
0 0 -0.07845534487 0 0 0.16564172213 0 0 0.1494228567 
0 0 0.084181882671 0 0 -0.065417226942 0 0 -0.1142187566 
0 0 -0.10920309341 0 0 0.025155700564 0 0 -0.63149918749 
0 0 -0.063958727136 0 0 -0.053435907761 0 0 -0.63799918749 
0 0 -0.046036852875 0 0 0.15760187259 0 0 -0.06702820104 
0 0 -0.10094700841 0 0 -0.10633020765 0 0 0.15533428964 
0 0 0.14133676501 0 0 -0.11389415757 0 0 -0.06066426892 
0 0 0.054454070161 0 0 -0.051048198035 0 0 -0.061704316258 
0 0 -0.12316924314 0 0 -0.06467217749 0 0 -0.074158957257 
0 0 -0.06120005477 0 0 -0.057479608418 0 0 0.12449025154 
0 0 -0.054357895952 0 0 -0.050156848512 0 0 -0.047401929762 
0 0 -0.062298220108 0 0 -0.057815130292 0 0 -0.047872358591 
0 0 -0.024270734196 0 0 -0.1032572975 0 0 -0.10107005835 
0 0 -0.11412589396 0 0 -0.059458978354 0 0 -0.095571758431 
0 0 0.12880264491 0 0 0.10672834232 0 0 -0.067175576243 
0 0 -0.062467913785 0 0 -0.050265992594 0 0 -0.066570362436 
0 0 -0.10650234056 0 0 -0.054079970249 0 0 -0.062230995575 
0 0 -0.028578013155 0 0 0.033464132461 0 0 -0.028439046249 
0 0 -0.080908979841 0 0 -0.040682417449 0 0 0.12014160075 
0 0 -0.033863256021 0 0 0.060359111818 0 0 -0.091218770859 
0 0 0.10796373141 0 0 -0.070562726126 0 0 -0.084604210032 
0 0 -0.087394501934 0 0 -0.092653009497 0 0 -0.08405002527 
0 0 -0.043793526804 0 0 0.052065175257 0 0 0.11800410281 
0 0 -0.085448900821 0 0 -0.037900530546 0 0 -0.035706446769 
0 0 -0.036411290826 0 0 -0.07475478303 0 0 -0.009356449507 
0 0 -0.092522535111 0 0 -0.034020208203 0 0 -0.023762228527 
0 0 0.12214294258 0 0 0.044807517903 0 0 -0.093100205032 
0 0 0.11201686848 0 0 0.046806067426 0 0 -0.084919396467 
0 0 -0.045222251827 0 0 -0.12044148684 0 0 -0.093907034399 
0 0 -0.092887125312 0 0 -0.0083961080652 0 0 -0.018791933119 
0 0 -0.045156696006 0 0 -0.064839154073 0 0 0.14969968463 
0 0 -0.09108193911 0 0 -0.094676470873 0 0 -0.039857359615 
0 0 -0.08512832335 0 0 -0.092244009881 0 0 -0.07258032222 
0 0 -0.078321634868 0 0 0.046454153638 0 0 -0.009239709046 
0 0 -0.074995975438 0 0 -0.074044603132 0 0 -0.084805837262 
0 0 -0.02104654627 0 0 -0.0012072106011 0 0 -0.013229298561 
0 0 0.046717682983 0 0 -0.079037566096 0 0 0.0011671105726 
0 0 -0.065878625788 0 0 -0.015889369669 0 0 -0.62824918749 
0 0 0.0038595733864 0 0 -0.07740946601 0 0 -0.072544720066 
0 0 0.069585789069 0 0 -0.0085342717914 0 0 0.11331558705 
0 0 -0.014965886422 0 0 -0.066875537657 0 0 0.1036583582 
0 0 0.061254438053 0 0 0.030107837327 0 0 -0.0073600300336 
0 0 -0.015391348123 0 0 -0.014445678771 0 0 -0.085022003016 
0 0 0.10628914302 0 0 -0.026021441942 0 0 0.063244029516 
0 0 -0.06727551405 0 0 0.015971151307 0 0 0.05893674555 
0 0 -0.075975775799 0 0 -0.62824918749 0 0 -0.071935142895 
0 0 0.073999391257 0 0 -0.021835886878 0 0 -0.076146069893 
0 0 -0.075400235701 0 0 -0.00077508390163 0 0 -0.013056953682 
0 0 0.0062384647987 0 0 -0.074499106224 0 0 -0.0083330828011 
0 0 -0.0075299337303 0 0 0.0020301948115 0 0 -0.015758396898 
0 0 -0.0059127439245 0 0 -0.026646252394 0 0 -0.066201914824 
0 0 -0.017406120466 0 0 -0.1064436193 0 0 -0.078922811447 
0 0 0.015997198769 0 0 -0.076448547394 0 0 0.02051137709 
0 0 0.10511064415 0 0 -0.045028016146 0 0 -0.026101385161 
0 0 0.0080593574592 0 0 0.00249559261 0 0 -0.064658529956 
0 0 -0.018934391885 0 0 -0.076250743066 0 0 -0.020579017912 
0 0 -0.01667992494 0 0 -0.05924284492 0 0 -0.046560656959 
0 0 -0.056289024839 0 0 0.016794638326 0 0 -0.060837357771 
0 0 -0.059393249186 0 0 -0.073074149975 0 0 -0.055953180773 
0 0 -0.042052262555 0 0 0.0045356355118 0 0 0.060291155459 
0 0 0.070627923551 0 0 -0.055863991768 0 0 0.073606577644 
0 0 0.019875666438 0 0 -0.012733543364 0 0 -0.06079776441 
0 0 0.019028639142 0 0 -0.047595818096 0 0 -0.09075434997 
0 0 0.027233110278 0 0 -0.044439074109 0 0 -0.058550535899 
0 0 0.023276551068 0 0 -0.059575634458 0 0 -0.059046893364 
0 0 -0.042172340866 0 0 -0.06365310733 0 0 0.042318558325 
0 0 0.02201311647 0 0 -0.052384183123 0 0 -0.056822967861 
0 0 -0.067634870782 0 0 -0.045805072425 0 0 0.012001272487 
0 0 0.029858496327 0 0 -0.054884697116 0 0 -0.057835142622 
0 0 -0.062590804232 0 0 -0.053088563287 0 0 -0.070250897951 
0 0 0.0053453165953 0 0 -0.093922768369 0 0 -0.049026233811 
0 0 -0.063351677823 0 0 -0.049120990923 0 0 0.078908270976 
0 0 0.010179431138 0 0 0.0016976320148 0 0 -0.051992454133 
0 0 -0.0076545215683 0 0 0.04789926587 0 0 -0.05056484143 
0 0 -0.029976667178 0 0 -0.021164961392 0 0 -0.024542304822 
0 0 -0.018006094579 0 0 0.010492301216 0 0 0.079298346865 
0 0 -0.039304039633 0 0 -0.051141428516 0 0 -0.079834786611 
0 0 -0.050469069236 0 0 0.075110472238 0 0 0.029422354017 
0 0 -0.022091645386 0 0 -0.043081998679 0 0 0.072256470288 
0 0 -0.025312918535 0 0 -0.032519586508 0 0 -0.030291750626 
0 0 -0.023726212179 0 0 0.017188250846 0 0 -0.036511489758 
0 0 -0.04786012013 0 0 -0.023663490112 0 0 -0.020240032229 
0 0 -0.62499918749 0 0 -0.030592931822 0 0 -0.033844948686 
0 0 -0.017919768858 0 0 -0.045625834741 0 0 0.021906956281 
0 0 -0.02536070025 0 0 -0.040489039245 0 0 0.097780942567 
0 0 -0.0401596747 0 0 -0.025733388319 0 0 -0.054690169254 
0 0 -0.033044107449 0 0 -0.063388044197 0 0 -0.0072713660932 
0 0 -0.026407145425 0 0 -0.02122303245 0 0 -0.025743881577 
0 0 0.054942765594 0 0 -0.039196514949 0 0 -0.04092574664 
0 0 -0.025879238177 0 0 -0.030039347118 0 0 -0.044081732093 
0 0 -0.013098866658 0 0 -0.0088420960531 0 0 0.022071251334 
0 0 -0.0059532778353 0 0 -0.041273336741 0 0 0.033169656469 
0 0 0.01561365276 0 0 0.051989873702 0 0 0.047685990883 
0 0 0.027399565953 0 0 -0.00035984970643 0 0 -0.0067671659506 
0 0 -0.012227753115 0 0 0.028342349529 0 0 -0.065142623863 
0 0 -0.018254028129 0 0 -0.01979235652 0 0 0.0094253193707 
0 0 -0.00067515051871 0 0 -0.015178781092 0 0 -0.0048479614212 
0 0 -0.017407393875 0 0 -0.037211516283 0 0 -0.017667734869 
0 0 -0.015625336796 0 0 -0.028995899348 0 0 -0.008139520801 
0 0 -0.0077520284162 0 0 0.024198869986 0 0 -0.015588985423 
0 0 0.010238498822 0 0 -0.019510708584 0 0 0.0084149085686 
0 0 0.034420910948 0 0 -0.0027266201138 0 0 -0.0025374986979 
0 0 -0.060227460248 0 0 0.02456966802 0 0 -0.015558791808 
0 0 -0.076477363114 0 0 0.036562775645 0 0 0.045336824509 
0 0 0.0038329896577 0 0 -0.0078619651424 0 0 -0.015154505986 
0 0 -0.0021324031002 0 0 -0.011341310253 0 0 -0.019391026896 
0 0 -0.010791912133 0 0 0.039954879511 0 0 0.025923593272 
0 0 -0.024138909128 0 0 0.0082294530684 0 0 -0.0032762120801 
0 0 -0.0027290979996 0 0 0.025320885163 0 0 0.013444281559 
0 0 -0.0035783526684 0 0 0.010253510313 0 0 -0.015358925605 
0 0 0.020769488951 0 0 0.01180862228 0 0 0.0071867227586 
0 0 -0.021302083038 0 0 0.024051092934 0 0 -0.017478156155 
0 0 0.030280933588 0 0 0.00064137680634 0 0 0.012821446961 
0 0 0.032972942694 0 0 0.035085395982 0 0 0.030354423577 
0 0 0.0056055416664 0 0 -0.014581198331 0 0 -0.023228715063 
0 0 0.025176970095 0 0 -0.0041788572335 0 0 0.028954034031 
0 0 0.0105404619 0 0 0.020524060163 0 0 -0.0092057589317 
0 0 -0.02127873409 0 0 -0.0034705177998 0 0 -0.011819981 
0 0 0.0010174863875 0 0 -0.0061738186327 0 0 0.012951145812 
0 0 -0.0083522279451 0 0 -0.014427368512 0 0 0.0067502929574 
0 0 0.038687359651 0 0 0.0097577109593 0 0 0.022539952664 
0 0 0.0494490027 0 0 0.019297014818 0 0 0.038641334608 
0 0 0.036681197274 0 0 0.045399071913 0 0 0.040801185353 
0 0 0.0051349778998 0 0 0.0086927574934 0 0 0.030217821822 
0 0 0.053218089767 0 0 0.035181378913 0 0 0.013376486542 
0 0 0.038034317951 0 0 0.02743351482 0 0 0.041352260647 
0 0 0.019407053619 0 0 0.043199854982 0 0 0.04823265393 
0 0 0.041248435473 0 0 0.01707925621 0 0 0.031933700734 
0 0 0.032219189102 0 0 0.14630413992 0 0 0.016700159567 
0 0 0.018172585433 0 0 0.015126169186 0 0 0.050377713012 
0 0 0.041343097796 0 0 0.043900230145 0 0 0.0068548666107 
0 0 0.042370669946 0 0 0.040118104285 0 0 0.018103207205 
0 0 0.014527975991 0 0 0.048321417668 0 0 0.04943510339 
0 0 0.033576280408 0 0 0.051990553033 0 0 0.053914472105 
0 0 0.027178564471 0 0 0.054188114278 0 0 0.05003608082 
0 0 0.063753965079 0 0 0.053325477741 0 0 0.076188904819 
0 0 0.062531345079 0 0 0.036745661141 0 0 0.035166185878 
0 0 0.0029156399902 0 0 0.0074742283567 0 0 -0.04414241923 
0 0 -0.0037113842577 0 0 0.067924545498 0 0 0.079879661041 
0 0 0.076490859411 0 0 0.038451173882 0 0 0.044298403143 
0 0 -0.022075735574 0 0 0.06799267595 0 0 0.046091592173 
0 0 0.0472841462 0 0 -0.022805534954 0 0 0.097254954216 

f 3 648 double
0 0 -1.7425367252e-10 0 0 -1.7425367252e-10 0 0 -1.7425367252e-10 
0 0 -1.7425367252e-10 0 0 -1.7425367252e-10 0 0 -1.7425367252e-10 
0 0 -1.7425367252e-10 0 0 -1.7425367252e-10 0 0 -1.7425367252e-10 
0 0 -1.7425367252e-10 0 0 -1.7425367252e-10 0 0 -1.7425367252e-10 
0 0 -1.7425367252e-10 0 0 -1.7425367252e-10 0 0 -1.7425367252e-10 
0 0 -1.7425367252e-10 0 0 -1.7425367252e-10 0 0 -1.7425367252e-10 
0 0 -1.7425367252e-10 0 0 -1.7425367252e-10 0 0 -1.7425367252e-10 
0 0 -1.7425367252e-10 0 0 -1.7425367252e-10 0 0 -1.7425367252e-10 
0 0 -1.7425367252e-10 0 0 -1.7425367252e-10 0 0 -1.7425367252e-10 
0 0 -1.7425367252e-10 0 0 -1.7425367252e-10 0 0 -1.7425367252e-10 
0 0 -1.7425367252e-10 0 0 -1.7425367252e-10 0 0 -1.7425367252e-10 
0 0 -1.7425367252e-10 0 0 -1.7425367252e-10 0 0 -1.7425367252e-10 
0 0 -1.7425367252e-10 0 0 -1.7425367252e-10 0 0 -1.7425367252e-10 
0 0 -1.7425367252e-10 0 0 -1.7425367252e-10 0 0 -1.7425367252e-10 
0 0 -1.7425367252e-10 0 0 -1.7425367252e-10 0 0 -1.7425367252e-10 
0 0 -1.7425367252e-10 0 0 -1.7425367252e-10 0 0 -1.7425367252e-10 
0 0 -1.7425367252e-10 0 0 -1.7425367252e-10 0 0 -1.7425367252e-10 
0 0 -1.7425367252e-10 0 0 -1.7425367252e-10 0 0 -1.7425367252e-10 
0 0 -1.7425367252e-10 0 0 -1.7425367252e-10 0 0 -1.7425367252e-10 
0 0 -1.7425367252e-10 0 0 -1.7425367252e-10 0 0 -1.7425367252e-10 
0 0 -1.7425367252e-10 0 0 -8.9019973083e-09 0 0 -1.7425367252e-10 
0 0 -1.7425367252e-10 0 0 -1.7425367252e-10 0 0 -1.7425367252e-10 
0 0 -1.7425367252e-10 0 0 -1.7425367252e-10 0 0 -1.7425367252e-10 
0 0 -1.7425367252e-10 0 0 -1.7425367252e-10 0 0 -1.7425367252e-10 
0 0 -1.7425367252e-10 0 0 -1.7425367252e-10 0 0 -1.7425367252e-10 
0 0 -1.7425367252e-10 0 0 -1.7425367252e-10 0 0 -1.7425367252e-10 
0 0 -1.7425367252e-10 0 0 -1.7425367252e-10 0 0 -1.7425367252e-10 
0 0 -1.7425367252e-10 0 0 -1.7425367252e-10 0 0 -1.7425367252e-10 
0 0 -1.7425367252e-10 0 0 -1.7425367252e-10 0 0 -1.7425367252e-10 
0 0 -1.7425367252e-10 0 0 -1.7425367252e-10 0 0 -1.7425367252e-10 
0 0 -1.7425367252e-10 0 0 -1.7425367252e-10 0 0 -1.7425367252e-10 
0 0 -1.7425367252e-10 0 0 -1.7425367252e-10 0 0 -1.7425367252e-10 
0 0 -1.7425367252e-10 0 0 -1.7425367252e-10 0 0 -1.7425367252e-10 
0 0 -1.7425367252e-10 0 0 -1.7425367252e-10 0 0 -1.7425367252e-10 
0 0 -1.7425367252e-10 0 0 -1.7425367252e-10 0 0 -1.7425367252e-10 
0 0 -1.7425367252e-10 0 0 -1.7425367252e-10 0 0 -1.7425367252e-10 
0 0 -1.7425367252e-10 0 0 -1.7425367252e-10 0 0 -1.7425367252e-10 
0 0 -1.7425367252e-10 0 0 -1.7425367252e-10 0 0 -1.7425367252e-10 
0 0 -1.7425367252e-10 0 0 -1.7425367252e-10 0 0 -1.7425367252e-10 
0 0 -1.7425367252e-10 0 0 -1.7425367252e-10 0 0 -1.7425367252e-10 
0 0 -1.7425367252e-10 0 0 -1.7425367252e-10 0 0 -1.7425367252e-10 
0 0 -1.7425367252e-10 0 0 -1.7425367252e-10 0 0 -1.7425367252e-10 
0 0 -1.7425367252e-10 0 0 -1.7425367252e-10 0 0 -1.7425367252e-10 
0 0 -1.7425367252e-10 0 0 -1.7425367252e-10 0 0 -1.7425367252e-10 
0 0 -1.7425367252e-10 0 0 -1.7425367252e-10 0 0 -1.7425367252e-10 
0 0 -1.7425367252e-10 0 0 -1.7425367252e-10 0 0 -1.7425367252e-10 
0 0 -1.7425367252e-10 0 0 -1.7425367252e-10 0 0 -1.7425367252e-10 
0 0 -1.7425367252e-10 0 0 -1.7425367252e-10 0 0 -1.7425367252e-10 
0 0 -1.7425367252e-10 0 0 -1.7425367252e-10 0 0 -1.7425367252e-10 
0 0 -1.7425367252e-10 0 0 -1.7425367252e-10 0 0 -1.7425367252e-10 
0 0 -1.7425367252e-10 0 0 -1.7425367252e-10 0 0 -1.7425367252e-10 
0 0 -1.7425367252e-10 0 0 -1.7425367252e-10 0 0 -8.9019973083e-09 
0 0 -1.7425367252e-10 0 0 -1.7425367252e-10 0 0 -1.7425367252e-10 
0 0 -1.7425367252e-10 0 0 -1.7425367252e-10 0 0 -1.7425367252e-10 
0 0 -1.7425367252e-10 0 0 -1.7425367252e-10 0 0 -1.7425367252e-10 
0 0 -1.7425367252e-10 0 0 -1.7425367252e-10 0 0 -1.7425367252e-10 
0 0 -1.7425367252e-10 0 0 -1.7425367252e-10 0 0 -1.7425367252e-10 
0 0 -1.7425367252e-10 0 0 -1.7425367252e-10 0 0 -1.7425367252e-10 
0 0 -1.7425367252e-10 0 0 -1.7425367252e-10 0 0 -1.7425367252e-10 
0 0 -1.7425367252e-10 0 0 -1.7425367252e-10 0 0 -1.7425367252e-10 
0 0 -1.7425367252e-10 0 0 -1.7425367252e-10 0 0 -1.7425367252e-10 
0 0 -1.7425367252e-10 0 0 -1.7425367252e-10 0 0 -1.7425367252e-10 
0 0 -1.7425367252e-10 0 0 -1.7425367252e-10 0 0 -1.7425367252e-10 
0 0 -1.7425367252e-10 0 0 -1.7425367252e-10 0 0 -1.7425367252e-10 
0 0 -1.7425367252e-10 0 0 -1.7425367252e-10 0 0 -1.7425367252e-10 
0 0 -1.7425367252e-10 0 0 -1.7425367252e-10 0 0 -1.7425367252e-10 
0 0 -1.7425367252e-10 0 0 -1.7425367252e-10 0 0 -1.7425367252e-10 
0 0 -1.7425367252e-10 0 0 -1.7425367252e-10 0 0 -1.7425367252e-10 
0 0 -1.7425367252e-10 0 0 -1.7425367252e-10 0 0 -1.7425367252e-10 
0 0 -1.7425367252e-10 0 0 -1.7425367252e-10 0 0 -1.7425367252e-10 
0 0 -1.7425367252e-10 0 0 -1.7425367252e-10 0 0 -1.7425367252e-10 
0 0 -1.7425367252e-10 0 0 -1.7425367252e-10 0 0 -1.7425367252e-10 
0 0 -1.7425367252e-10 0 0 -1.7425367252e-10 0 0 -1.7425367252e-10 
0 0 -1.7425367252e-10 0 0 -1.7425367252e-10 0 0 -1.7425367252e-10 
0 0 -1.7425367252e-10 0 0 -1.7425367252e-10 0 0 -1.7425367252e-10 
0 0 -1.7425367252e-10 0 0 -1.7425367252e-10 0 0 -1.7425367252e-10 
0 0 -1.7425367252e-10 0 0 -1.7425367252e-10 0 0 -1.7425367252e-10 
0 0 -1.7425367252e-10 0 0 -1.7425367252e-10 0 0 -1.7425367252e-10 
0 0 -1.7425367252e-10 0 0 -1.7425367252e-10 0 0 -1.7425367252e-10 
0 0 -1.7425367252e-10 0 0 -1.7425367252e-10 0 0 -1.7425367252e-10 
0 0 -1.7425367252e-10 0 0 -1.7425367252e-10 0 0 -1.7425367252e-10 
0 0 -1.7425367252e-10 0 0 -1.7425367252e-10 0 0 -1.7425367252e-10 
0 0 -8.9019973083e-09 0 0 -1.7425367252e-10 0 0 -1.7425367252e-10 
0 0 -1.7425367252e-10 0 0 -1.7425367252e-10 0 0 -1.7425367252e-10 
0 0 -1.7425367252e-10 0 0 -1.7425367252e-10 0 0 -1.7425367252e-10 
0 0 -1.7425367252e-10 0 0 -1.7425367252e-10 0 0 -1.7425367252e-10 
0 0 -1.7425367252e-10 0 0 -1.7425367252e-10 0 0 -1.7425367252e-10 
0 0 -1.7425367252e-10 0 0 -1.7425367252e-10 0 0 -1.7425367252e-10 
0 0 -1.7425367252e-10 0 0 -1.7425367252e-10 0 0 -1.7425367252e-10 
0 0 -1.7425367252e-10 0 0 -1.7425367252e-10 0 0 -1.7425367252e-10 
0 0 -1.7425367252e-10 0 0 -1.7425367252e-10 0 0 -1.7425367252e-10 
0 0 -1.7425367252e-10 0 0 -1.7425367252e-10 0 0 -1.7425367252e-10 
0 0 -1.7425367252e-10 0 0 -1.7425367252e-10 0 0 -1.7425367252e-10 
0 0 -1.7425367252e-10 0 0 -1.7425367252e-10 0 0 -1.7425367252e-10 
0 0 -1.7425367252e-10 0 0 -1.7425367252e-10 0 0 -1.7425367252e-10 
0 0 -1.7425367252e-10 0 0 -1.7425367252e-10 0 0 -1.7425367252e-10 
0 0 -1.7425367252e-10 0 0 -1.7425367252e-10 0 0 -1.7425367252e-10 
0 0 -1.7425367252e-10 0 0 -1.7425367252e-10 0 0 -1.7425367252e-10 
0 0 -1.7425367252e-10 0 0 -1.7425367252e-10 0 0 -1.7425367252e-10 
0 0 -1.7425367252e-10 0 0 -1.7425367252e-10 0 0 -1.7425367252e-10 
0 0 -1.7425367252e-10 0 0 -1.7425367252e-10 0 0 -1.7425367252e-10 
0 0 -1.7425367252e-10 0 0 -1.7425367252e-10 0 0 -1.7425367252e-10 
0 0 -1.7425367252e-10 0 0 -8.9019973083e-09 0 0 -1.7425367252e-10 
0 0 -1.7425367252e-10 0 0 -1.7425367252e-10 0 0 -1.7425367252e-10 
0 0 -1.7425367252e-10 0 0 -1.7425367252e-10 0 0 -1.7425367252e-10 
0 0 -1.7425367252e-10 0 0 -1.7425367252e-10 0 0 -1.7425367252e-10 
0 0 -1.7425367252e-10 0 0 -1.7425367252e-10 0 0 -1.7425367252e-10 
0 0 -1.7425367252e-10 0 0 -1.7425367252e-10 0 0 -1.7425367252e-10 
0 0 -1.7425367252e-10 0 0 -1.7425367252e-10 0 0 -1.7425367252e-10 
0 0 -1.7425367252e-10 0 0 -1.7425367252e-10 0 0 -1.7425367252e-10 
0 0 -1.7425367252e-10 0 0 -1.7425367252e-10 0 0 -1.7425367252e-10 
0 0 -1.7425367252e-10 0 0 -1.7425367252e-10 0 0 -1.7425367252e-10 
0 0 -1.7425367252e-10 0 0 -1.7425367252e-10 0 0 -1.7425367252e-10 
0 0 -1.7425367252e-10 0 0 -1.7425367252e-10 0 0 -1.7425367252e-10 
0 0 -1.7425367252e-10 0 0 -1.7425367252e-10 0 0 -1.7425367252e-10 
0 0 -1.7425367252e-10 0 0 -1.7425367252e-10 0 0 -1.7425367252e-10 
0 0 -1.7425367252e-10 0 0 -1.7425367252e-10 0 0 -1.7425367252e-10 
0 0 -1.7425367252e-10 0 0 -1.7425367252e-10 0 0 -1.7425367252e-10 
0 0 -1.7425367252e-10 0 0 -1.7425367252e-10 0 0 -1.7425367252e-10 
0 0 -1.7425367252e-10 0 0 -1.7425367252e-10 0 0 -1.7425367252e-10 
0 0 -1.7425367252e-10 0 0 -1.7425367252e-10 0 0 -1.7425367252e-10 
0 0 -1.7425367252e-10 0 0 -1.7425367252e-10 0 0 -1.7425367252e-10 
0 0 -1.7425367252e-10 0 0 -1.7425367252e-10 0 0 -1.7425367252e-10 
0 0 -1.7425367252e-10 0 0 -1.7425367252e-10 0 0 -1.7425367252e-10 
0 0 -1.7425367252e-10 0 0 -1.7425367252e-10 0 0 -1.7425367252e-10 
0 0 -1.7425367252e-10 0 0 -8.9019973083e-09 0 0 -1.7425367252e-10 
0 0 -1.7425367252e-10 0 0 -1.7425367252e-10 0 0 -1.7425367252e-10 
0 0 -1.7425367252e-10 0 0 -1.7425367252e-10 0 0 -1.7425367252e-10 
0 0 -1.7425367252e-10 0 0 -1.7425367252e-10 0 0 -1.7425367252e-10 
0 0 -1.7425367252e-10 0 0 -1.7425367252e-10 0 0 -1.7425367252e-10 
0 0 -1.7425367252e-10 0 0 -1.7425367252e-10 0 0 -1.7425367252e-10 
0 0 -1.7425367252e-10 0 0 -1.7425367252e-10 0 0 -1.7425367252e-10 
0 0 -1.7425367252e-10 0 0 -1.7425367252e-10 0 0 -1.7425367252e-10 
0 0 -1.7425367252e-10 0 0 -1.7425367252e-10 0 0 -1.7425367252e-10 
0 0 -1.7425367252e-10 0 0 -1.7425367252e-10 0 0 -1.7425367252e-10 
0 0 -1.7425367252e-10 0 0 -1.7425367252e-10 0 0 -1.7425367252e-10 
0 0 -1.7425367252e-10 0 0 -1.7425367252e-10 0 0 -8.9019973083e-09 
0 0 -1.7425367252e-10 0 0 -1.7425367252e-10 0 0 -1.7425367252e-10 
0 0 -1.7425367252e-10 0 0 -1.7425367252e-10 0 0 -1.7425367252e-10 
0 0 -1.7425367252e-10 0 0 -1.7425367252e-10 0 0 -1.7425367252e-10 
0 0 -1.7425367252e-10 0 0 -1.7425367252e-10 0 0 -1.7425367252e-10 
0 0 -1.7425367252e-10 0 0 -1.7425367252e-10 0 0 -1.7425367252e-10 
0 0 -1.7425367252e-10 0 0 -1.7425367252e-10 0 0 -1.7425367252e-10 
0 0 -1.7425367252e-10 0 0 -1.7425367252e-10 0 0 -1.7425367252e-10 
0 0 -1.7425367252e-10 0 0 -8.9019973083e-09 0 0 -1.7425367252e-10 
0 0 -1.7425367252e-10 0 0 -1.7425367252e-10 0 0 -1.7425367252e-10 
0 0 -1.7425367252e-10 0 0 -1.7425367252e-10 0 0 -1.7425367252e-10 
0 0 -1.7425367252e-10 0 0 -1.7425367252e-10 0 0 -1.7425367252e-10 
0 0 -1.7425367252e-10 0 0 -1.7425367252e-10 0 0 -1.7425367252e-10 
0 0 -1.7425367252e-10 0 0 -1.7425367252e-10 0 0 -1.7425367252e-10 
0 0 -1.7425367252e-10 0 0 -1.7425367252e-10 0 0 -8.9019973083e-09 
0 0 -1.7425367252e-10 0 0 -1.7425367252e-10 0 0 -1.7425367252e-10 
0 0 -1.7425367252e-10 0 0 -1.7425367252e-10 0 0 -1.7425367252e-10 
0 0 -1.7425367252e-10 0 0 -1.7425367252e-10 0 0 -1.7425367252e-10 
0 0 -1.7425367252e-10 0 0 -1.7425367252e-10 0 0 -1.7425367252e-10 
0 0 -1.7425367252e-10 0 0 -1.7425367252e-10 0 0 -1.7425367252e-10 
0 0 -1.7425367252e-10 0 0 -1.7425367252e-10 0 0 -1.7425367252e-10 
0 0 -1.7425367252e-10 0 0 -1.7425367252e-10 0 0 -1.7425367252e-10 
0 0 -1.7425367252e-10 0 0 -1.7425367252e-10 0 0 -1.7425367252e-10 
0 0 -1.7425367252e-10 0 0 -1.7425367252e-10 0 0 -1.7425367252e-10 
0 0 -1.7425367252e-10 0 0 -1.7425367252e-10 0 0 -1.7425367252e-10 
0 0 -1.7425367252e-10 0 0 -1.7425367252e-10 0 0 -1.7425367252e-10 
0 0 -1.7425367252e-10 0 0 -1.7425367252e-10 0 0 -1.7425367252e-10 
0 0 -1.7425367252e-10 0 0 -1.7425367252e-10 0 0 -1.7425367252e-10 
0 0 -1.7425367252e-10 0 0 -1.7425367252e-10 0 0 -1.7425367252e-10 
0 0 -1.7425367252e-10 0 0 -1.7425367252e-10 0 0 -1.7425367252e-10 
0 0 -1.7425367252e-10 0 0 -1.7425367252e-10 0 0 -1.7425367252e-10 
0 0 -1.7425367252e-10 0 0 -1.7425367252e-10 0 0 -1.7425367252e-10 
0 0 -1.7425367252e-10 0 0 -1.7425367252e-10 0 0 -8.9019973083e-09 
0 0 -1.7425367252e-10 0 0 -1.7425367252e-10 0 0 -1.7425367252e-10 
0 0 -1.7425367252e-10 0 0 -1.7425367252e-10 0 0 -1.7425367252e-10 
0 0 -1.7425367252e-10 0 0 -1.7425367252e-10 0 0 -1.7425367252e-10 
0 0 -1.7425367252e-10 0 0 -1.7425367252e-10 0 0 -1.7425367252e-10 
0 0 -1.7425367252e-10 0 0 -1.7425367252e-10 0 0 -1.7425367252e-10 
0 0 -1.7425367252e-10 0 0 -1.7425367252e-10 0 0 -1.7425367252e-10 
0 0 -1.7425367252e-10 0 0 -1.7425367252e-10 0 0 -1.7425367252e-10 
0 0 -8.9019973083e-09 0 0 -1.7425367252e-10 0 0 -1.7425367252e-10 
0 0 -8.9019973083e-09 0 0 -1.7425367252e-10 0 0 -1.7425367252e-10 
0 0 -1.7425367252e-10 0 0 -1.7425367252e-10 0 0 -1.7425367252e-10 
0 0 -1.7425367252e-10 0 0 -1.7425367252e-10 0 0 -1.7425367252e-10 
0 0 -1.7425367252e-10 0 0 -1.7425367252e-10 0 0 -1.7425367252e-10 
0 0 -1.7425367252e-10 0 0 -1.7425367252e-10 0 0 -1.7425367252e-10 
0 0 -1.7425367252e-10 0 0 -1.7425367252e-10 0 0 -1.7425367252e-10 
0 0 -1.7425367252e-10 0 0 -1.7425367252e-10 0 0 -1.7425367252e-10 
0 0 -1.7425367252e-10 0 0 -1.7425367252e-10 0 0 -1.7425367252e-10 
0 0 -1.7425367252e-10 0 0 -1.7425367252e-10 0 0 -1.7425367252e-10 
0 0 -1.7425367252e-10 0 0 -1.7425367252e-10 0 0 -1.7425367252e-10 
0 0 -1.7425367252e-10 0 0 -1.7425367252e-10 0 0 -1.7425367252e-10 
0 0 -1.7425367252e-10 0 0 -1.7425367252e-10 0 0 -1.7425367252e-10 
0 0 -1.7425367252e-10 0 0 -1.7425367252e-10 0 0 -1.7425367252e-10 
0 0 -1.7425367252e-10 0 0 -1.7425367252e-10 0 0 -1.7425367252e-10 
0 0 -1.7425367252e-10 0 0 -1.7425367252e-10 0 0 -1.7425367252e-10 
0 0 -1.7425367252e-10 0 0 -1.7425367252e-10 0 0 -1.7425367252e-10 
0 0 -1.7425367252e-10 0 0 -1.7425367252e-10 0 0 -1.7425367252e-10 
0 0 -1.7425367252e-10 0 0 -1.7425367252e-10 0 0 -1.7425367252e-10 
0 0 -1.7425367252e-10 0 0 -1.7425367252e-10 0 0 -1.7425367252e-10 
0 0 -1.7425367252e-10 0 0 -1.7425367252e-10 0 0 -1.7425367252e-10 
0 0 -1.7425367252e-10 0 0 -1.7425367252e-10 0 0 -1.7425367252e-10 
0 0 -1.7425367252e-10 0 0 -1.7425367252e-10 0 0 -1.7425367252e-10 
0 0 -1.7425367252e-10 0 0 -1.7425367252e-10 0 0 -1.7425367252e-10 
0 0 -1.7425367252e-10 0 0 -1.7425367252e-10 0 0 -1.7425367252e-10 
0 0 -1.7425367252e-10 0 0 -1.7425367252e-10 0 0 -1.7425367252e-10 
0 0 -1.7425367252e-10 0 0 -8.9019973083e-09 0 0 -1.7425367252e-10 
0 0 -1.7425367252e-10 0 0 -1.7425367252e-10 0 0 -1.7425367252e-10 
0 0 -1.7425367252e-10 0 0 -1.7425367252e-10 0 0 -1.7425367252e-10 
0 0 -1.7425367252e-10 0 0 -1.7425367252e-10 0 0 -1.7425367252e-10 
0 0 -1.7425367252e-10 0 0 -1.7425367252e-10 0 0 -1.7425367252e-10 
0 0 -1.7425367252e-10 0 0 -1.7425367252e-10 0 0 -1.7425367252e-10 
0 0 -1.7425367252e-10 0 0 -1.7425367252e-10 0 0 -1.7425367252e-10 
0 0 -1.7425367252e-10 0 0 -1.7425367252e-10 0 0 -8.9019973083e-09 
0 0 -1.7425367252e-10 0 0 -1.7425367252e-10 0 0 -1.7425367252e-10 
0 0 -1.7425367252e-10 0 0 -1.7425367252e-10 0 0 -8.9019973083e-09 
0 0 -1.7425367252e-10 0 0 -1.7425367252e-10 0 0 -1.7425367252e-10 
0 0 -1.7425367252e-10 0 0 -1.7425367252e-10 0 0 -1.7425367252e-10 
0 0 -8.9019973083e-09 0 0 -1.7425367252e-10 0 0 -8.9019973083e-09 
0 0 -8.9019973083e-09 0 0 -6.8918688838e-08 0 0 -5.3297119368e-07 

radius 1 648 double
2e-05 2e-05 2e-05 2e-05 2e-05 2e-05 2e-05 2e-05 2e-05 
2e-05 2e-05 2e-05 2e-05 2e-05 2e-05 2e-05 2e-05 2e-05 
2e-05 2e-05 2e-05 2e-05 2e-05 2e-05 2e-05 2e-05 2e-05 
2e-05 2e-05 2e-05 2e-05 2e-05 2e-05 2e-05 2e-05 2e-05 
2e-05 2e-05 2e-05 2e-05 2e-05 2e-05 2e-05 2e-05 2e-05 
2e-05 2e-05 2e-05 2e-05 2e-05 2e-05 2e-05 2e-05 2e-05 
2e-05 2e-05 2e-05 2e-05 2e-05 2e-05 2e-05 7.5e-05 2e-05 
2e-05 2e-05 2e-05 2e-05 2e-05 2e-05 2e-05 2e-05 2e-05 
2e-05 2e-05 2e-05 2e-05 2e-05 2e-05 2e-05 2e-05 2e-05 
2e-05 2e-05 2e-05 2e-05 2e-05 2e-05 2e-05 2e-05 2e-05 
2e-05 2e-05 2e-05 2e-05 2e-05 2e-05 2e-05 2e-05 2e-05 
2e-05 2e-05 2e-05 2e-05 2e-05 2e-05 2e-05 2e-05 2e-05 
2e-05 2e-05 2e-05 2e-05 2e-05 2e-05 2e-05 2e-05 2e-05 
2e-05 2e-05 2e-05 2e-05 2e-05 2e-05 2e-05 2e-05 2e-05 
2e-05 2e-05 2e-05 2e-05 2e-05 2e-05 2e-05 2e-05 2e-05 
2e-05 2e-05 2e-05 2e-05 2e-05 2e-05 2e-05 2e-05 2e-05 
2e-05 2e-05 2e-05 2e-05 2e-05 2e-05 2e-05 2e-05 2e-05 
2e-05 2e-05 7.5e-05 2e-05 2e-05 2e-05 2e-05 2e-05 2e-05 
2e-05 2e-05 2e-05 2e-05 2e-05 2e-05 2e-05 2e-05 2e-05 
2e-05 2e-05 2e-05 2e-05 2e-05 2e-05 2e-05 2e-05 2e-05 
2e-05 2e-05 2e-05 2e-05 2e-05 2e-05 2e-05 2e-05 2e-05 
2e-05 2e-05 2e-05 2e-05 2e-05 2e-05 2e-05 2e-05 2e-05 
2e-05 2e-05 2e-05 2e-05 2e-05 2e-05 2e-05 2e-05 2e-05 
2e-05 2e-05 2e-05 2e-05 2e-05 2e-05 2e-05 2e-05 2e-05 
2e-05 2e-05 2e-05 2e-05 2e-05 2e-05 2e-05 2e-05 2e-05 
2e-05 2e-05 2e-05 2e-05 2e-05 2e-05 2e-05 2e-05 2e-05 
2e-05 2e-05 2e-05 2e-05 2e-05 2e-05 2e-05 2e-05 2e-05 
2e-05 2e-05 2e-05 7.5e-05 2e-05 2e-05 2e-05 2e-05 2e-05 
2e-05 2e-05 2e-05 2e-05 2e-05 2e-05 2e-05 2e-05 2e-05 
2e-05 2e-05 2e-05 2e-05 2e-05 2e-05 2e-05 2e-05 2e-05 
2e-05 2e-05 2e-05 2e-05 2e-05 2e-05 2e-05 2e-05 2e-05 
2e-05 2e-05 2e-05 2e-05 2e-05 2e-05 2e-05 2e-05 2e-05 
2e-05 2e-05 2e-05 2e-05 2e-05 2e-05 2e-05 2e-05 2e-05 
2e-05 2e-05 2e-05 2e-05 2e-05 2e-05 2e-05 2e-05 2e-05 
2e-05 7.5e-05 2e-05 2e-05 2e-05 2e-05 2e-05 2e-05 2e-05 
2e-05 2e-05 2e-05 2e-05 2e-05 2e-05 2e-05 2e-05 2e-05 
2e-05 2e-05 2e-05 2e-05 2e-05 2e-05 2e-05 2e-05 2e-05 
2e-05 2e-05 2e-05 2e-05 2e-05 2e-05 2e-05 2e-05 2e-05 
2e-05 2e-05 2e-05 2e-05 2e-05 2e-05 2e-05 2e-05 2e-05 
2e-05 2e-05 2e-05 2e-05 2e-05 2e-05 2e-05 2e-05 2e-05 
2e-05 2e-05 2e-05 2e-05 2e-05 2e-05 2e-05 2e-05 2e-05 
2e-05 2e-05 2e-05 2e-05 2e-05 2e-05 2e-05 7.5e-05 2e-05 
2e-05 2e-05 2e-05 2e-05 2e-05 2e-05 2e-05 2e-05 2e-05 
2e-05 2e-05 2e-05 2e-05 2e-05 2e-05 2e-05 2e-05 2e-05 
2e-05 2e-05 2e-05 2e-05 2e-05 2e-05 2e-05 2e-05 2e-05 
2e-05 2e-05 2e-05 2e-05 2e-05 7.5e-05 2e-05 2e-05 2e-05 
2e-05 2e-05 2e-05 2e-05 2e-05 2e-05 2e-05 2e-05 2e-05 
2e-05 2e-05 2e-05 2e-05 2e-05 2e-05 2e-05 2e-05 2e-05 
2e-05 7.5e-05 2e-05 2e-05 2e-05 2e-05 2e-05 2e-05 2e-05 
2e-05 2e-05 2e-05 2e-05 2e-05 2e-05 2e-05 2e-05 2e-05 
2e-05 2e-05 7.5e-05 2e-05 2e-05 2e-05 2e-05 2e-05 2e-05 
2e-05 2e-05 2e-05 2e-05 2e-05 2e-05 2e-05 2e-05 2e-05 
2e-05 2e-05 2e-05 2e-05 2e-05 2e-05 2e-05 2e-05 2e-05 
2e-05 2e-05 2e-05 2e-05 2e-05 2e-05 2e-05 2e-05 2e-05 
2e-05 2e-05 2e-05 2e-05 2e-05 2e-05 2e-05 2e-05 2e-05 
2e-05 2e-05 2e-05 2e-05 2e-05 2e-05 2e-05 2e-05 2e-05 
2e-05 2e-05 7.5e-05 2e-05 2e-05 2e-05 2e-05 2e-05 2e-05 
2e-05 2e-05 2e-05 2e-05 2e-05 2e-05 2e-05 2e-05 2e-05 
2e-05 2e-05 2e-05 2e-05 2e-05 2e-05 7.5e-05 2e-05 2e-05 
7.5e-05 2e-05 2e-05 2e-05 2e-05 2e-05 2e-05 2e-05 2e-05 
2e-05 2e-05 2e-05 2e-05 2e-05 2e-05 2e-05 2e-05 2e-05 
2e-05 2e-05 2e-05 2e-05 2e-05 2e-05 2e-05 2e-05 2e-05 
2e-05 2e-05 2e-05 2e-05 2e-05 2e-05 2e-05 2e-05 2e-05 
2e-05 2e-05 2e-05 2e-05 2e-05 2e-05 2e-05 2e-05 2e-05 
2e-05 2e-05 2e-05 2e-05 2e-05 2e-05 2e-05 2e-05 2e-05 
2e-05 2e-05 2e-05 2e-05 2e-05 2e-05 2e-05 2e-05 2e-05 
2e-05 2e-05 2e-05 2e-05 2e-05 2e-05 2e-05 2e-05 2e-05 
2e-05 2e-05 2e-05 2e-05 7.5e-05 2e-05 2e-05 2e-05 2e-05 
2e-05 2e-05 2e-05 2e-05 2e-05 2e-05 2e-05 2e-05 2e-05 
2e-05 2e-05 2e-05 2e-05 2e-05 2e-05 2e-05 2e-05 7.5e-05 
2e-05 2e-05 2e-05 2e-05 2e-05 7.5e-05 2e-05 2e-05 2e-05 
2e-05 2e-05 2e-05 7.5e-05 2e-05 7.5e-05 7.5e-05 0.00015 0.0003 

omega 3 648 double
0 0 0 0 0 0 0 0 0 
0 0 0 0 0 0 0 0 0 
0 0 0 0 0 0 0 0 0 
0 0 0 0 0 0 0 0 0 
0 0 0 0 0 0 0 0 0 
0 0 0 0 0 0 0 0 0 
0 0 0 0 0 0 0 0 0 
0 0 0 0 0 0 0 0 0 
0 0 0 0 0 0 0 0 0 
0 0 0 0 0 0 0 0 0 
0 0 0 0 0 0 0 0 0 
0 0 0 0 0 0 0 0 0 
0 0 0 0 0 0 0 0 0 
0 0 0 0 0 0 0 0 0 
0 0 0 0 0 0 0 0 0 
0 0 0 0 0 0 0 0 0 
0 0 0 0 0 0 0 0 0 
0 0 0 0 0 0 0 0 0 
0 0 0 0 0 0 0 0 0 
0 0 0 0 0 0 0 0 0 
0 0 0 0 0 0 0 0 0 
0 0 0 0 0 0 0 0 0 
0 0 0 0 0 0 0 0 0 
0 0 0 0 0 0 0 0 0 
0 0 0 0 0 0 0 0 0 
0 0 0 0 0 0 0 0 0 
0 0 0 0 0 0 0 0 0 
0 0 0 0 0 0 0 0 0 
0 0 0 0 0 0 0 0 0 
0 0 0 0 0 0 0 0 0 
0 0 0 0 0 0 0 0 0 
0 0 0 0 0 0 0 0 0 
0 0 0 0 0 0 0 0 0 
0 0 0 0 0 0 0 0 0 
0 0 0 0 0 0 0 0 0 
0 0 0 0 0 0 0 0 0 
0 0 0 0 0 0 0 0 0 
0 0 0 0 0 0 0 0 0 
0 0 0 0 0 0 0 0 0 
0 0 0 0 0 0 0 0 0 
0 0 0 0 0 0 0 0 0 
0 0 0 0 0 0 0 0 0 
0 0 0 0 0 0 0 0 0 
0 0 0 0 0 0 0 0 0 
0 0 0 0 0 0 0 0 0 
0 0 0 0 0 0 0 0 0 
0 0 0 0 0 0 0 0 0 
0 0 0 0 0 0 0 0 0 
0 0 0 0 0 0 0 0 0 
0 0 0 0 0 0 0 0 0 
0 0 0 0 0 0 0 0 0 
0 0 0 0 0 0 0 0 0 
0 0 0 0 0 0 0 0 0 
0 0 0 0 0 0 0 0 0 
0 0 0 0 0 0 0 0 0 
0 0 0 0 0 0 0 0 0 
0 0 0 0 0 0 0 0 0 
0 0 0 0 0 0 0 0 0 
0 0 0 0 0 0 0 0 0 
0 0 0 0 0 0 0 0 0 
0 0 0 0 0 0 0 0 0 
0 0 0 0 0 0 0 0 0 
0 0 0 0 0 0 0 0 0 
0 0 0 0 0 0 0 0 0 
0 0 0 0 0 0 0 0 0 
0 0 0 0 0 0 0 0 0 
0 0 0 0 0 0 0 0 0 
0 0 0 0 0 0 0 0 0 
0 0 0 0 0 0 0 0 0 
0 0 0 0 0 0 0 0 0 
0 0 0 0 0 0 0 0 0 
0 0 0 0 0 0 0 0 0 
0 0 0 0 0 0 0 0 0 
0 0 0 0 0 0 0 0 0 
0 0 0 0 0 0 0 0 0 
0 0 0 0 0 0 0 0 0 
0 0 0 0 0 0 0 0 0 
0 0 0 0 0 0 0 0 0 
0 0 0 0 0 0 0 0 0 
0 0 0 0 0 0 0 0 0 
0 0 0 0 0 0 0 0 0 
0 0 0 0 0 0 0 0 0 
0 0 0 0 0 0 0 0 0 
0 0 0 0 0 0 0 0 0 
0 0 0 0 0 0 0 0 0 
0 0 0 0 0 0 0 0 0 
0 0 0 0 0 0 0 0 0 
0 0 0 0 0 0 0 0 0 
0 0 0 0 0 0 0 0 0 
0 0 0 0 0 0 0 0 0 
0 0 0 0 0 0 0 0 0 
0 0 0 0 0 0 0 0 0 
0 0 0 0 0 0 0 0 0 
0 0 0 0 0 0 0 0 0 
0 0 0 0 0 0 0 0 0 
0 0 0 0 0 0 0 0 0 
0 0 0 0 0 0 0 0 0 
0 0 0 0 0 0 0 0 0 
0 0 0 0 0 0 0 0 0 
0 0 0 0 0 0 0 0 0 
0 0 0 0 0 0 0 0 0 
0 0 0 0 0 0 0 0 0 
0 0 0 0 0 0 0 0 0 
0 0 0 0 0 0 0 0 0 
0 0 0 0 0 0 0 0 0 
0 0 0 0 0 0 0 0 0 
0 0 0 0 0 0 0 0 0 
0 0 0 0 0 0 0 0 0 
0 0 0 0 0 0 0 0 0 
0 0 0 0 0 0 0 0 0 
0 0 0 0 0 0 0 0 0 
0 0 0 0 0 0 0 0 0 
0 0 0 0 0 0 0 0 0 
0 0 0 0 0 0 0 0 0 
0 0 0 0 0 0 0 0 0 
0 0 0 0 0 0 0 0 0 
0 0 0 0 0 0 0 0 0 
0 0 0 0 0 0 0 0 0 
0 0 0 0 0 0 0 0 0 
0 0 0 0 0 0 0 0 0 
0 0 0 0 0 0 0 0 0 
0 0 0 0 0 0 0 0 0 
0 0 0 0 0 0 0 0 0 
0 0 0 0 0 0 0 0 0 
0 0 0 0 0 0 0 0 0 
0 0 0 0 0 0 0 0 0 
0 0 0 0 0 0 0 0 0 
0 0 0 0 0 0 0 0 0 
0 0 0 0 0 0 0 0 0 
0 0 0 0 0 0 0 0 0 
0 0 0 0 0 0 0 0 0 
0 0 0 0 0 0 0 0 0 
0 0 0 0 0 0 0 0 0 
0 0 0 0 0 0 0 0 0 
0 0 0 0 0 0 0 0 0 
0 0 0 0 0 0 0 0 0 
0 0 0 0 0 0 0 0 0 
0 0 0 0 0 0 0 0 0 
0 0 0 0 0 0 0 0 0 
0 0 0 0 0 0 0 0 0 
0 0 0 0 0 0 0 0 0 
0 0 0 0 0 0 0 0 0 
0 0 0 0 0 0 0 0 0 
0 0 0 0 0 0 0 0 0 
0 0 0 0 0 0 0 0 0 
0 0 0 0 0 0 0 0 0 
0 0 0 0 0 0 0 0 0 
0 0 0 0 0 0 0 0 0 
0 0 0 0 0 0 0 0 0 
0 0 0 0 0 0 0 0 0 
0 0 0 0 0 0 0 0 0 
0 0 0 0 0 0 0 0 0 
0 0 0 0 0 0 0 0 0 
0 0 0 0 0 0 0 0 0 
0 0 0 0 0 0 0 0 0 
0 0 0 0 0 0 0 0 0 
0 0 0 0 0 0 0 0 0 
0 0 0 0 0 0 0 0 0 
0 0 0 0 0 0 0 0 0 
0 0 0 0 0 0 0 0 0 
0 0 0 0 0 0 0 0 0 
0 0 0 0 0 0 0 0 0 
0 0 0 0 0 0 0 0 0 
0 0 0 0 0 0 0 0 0 
0 0 0 0 0 0 0 0 0 
0 0 0 0 0 0 0 0 0 
0 0 0 0 0 0 0 0 0 
0 0 0 0 0 0 0 0 0 
0 0 0 0 0 0 0 0 0 
0 0 0 0 0 0 0 0 0 
0 0 0 0 0 0 0 0 0 
0 0 0 0 0 0 0 0 0 
0 0 0 0 0 0 0 0 0 
0 0 0 0 0 0 0 0 0 
0 0 0 0 0 0 0 0 0 
0 0 0 0 0 0 0 0 0 
0 0 0 0 0 0 0 0 0 
0 0 0 0 0 0 0 0 0 
0 0 0 0 0 0 0 0 0 
0 0 0 0 0 0 0 0 0 
0 0 0 0 0 0 0 0 0 
0 0 0 0 0 0 0 0 0 
0 0 0 0 0 0 0 0 0 
0 0 0 0 0 0 0 0 0 
0 0 0 0 0 0 0 0 0 
0 0 0 0 0 0 0 0 0 
0 0 0 0 0 0 0 0 0 
0 0 0 0 0 0 0 0 0 
0 0 0 0 0 0 0 0 0 
0 0 0 0 0 0 0 0 0 
0 0 0 0 0 0 0 0 0 
0 0 0 0 0 0 0 0 0 
0 0 0 0 0 0 0 0 0 
0 0 0 0 0 0 0 0 0 
0 0 0 0 0 0 0 0 0 
0 0 0 0 0 0 0 0 0 
0 0 0 0 0 0 0 0 0 
0 0 0 0 0 0 0 0 0 
0 0 0 0 0 0 0 0 0 
0 0 0 0 0 0 0 0 0 
0 0 0 0 0 0 0 0 0 
0 0 0 0 0 0 0 0 0 
0 0 0 0 0 0 0 0 0 
0 0 0 0 0 0 0 0 0 
0 0 0 0 0 0 0 0 0 
0 0 0 0 0 0 0 0 0 
0 0 0 0 0 0 0 0 0 
0 0 0 0 0 0 0 0 0 
0 0 0 0 0 0 0 0 0 
0 0 0 0 0 0 0 0 0 
0 0 0 0 0 0 0 0 0 
0 0 0 0 0 0 0 0 0 
0 0 0 0 0 0 0 0 0 
0 0 0 0 0 0 0 0 0 
0 0 0 0 0 0 0 0 0 
0 0 0 0 0 0 0 0 0 

fx_mag_viz 1 648 double
0 0 0 0 0 0 0 0 0 
0 0 0 0 0 0 0 0 0 
0 0 0 0 0 0 0 0 0 
0 0 0 0 0 0 0 0 0 
0 0 0 0 0 0 0 0 0 
0 0 0 0 0 0 0 0 0 
0 0 0 0 0 0 0 0 0 
0 0 0 0 0 0 0 0 0 
0 0 0 0 0 0 0 0 0 
0 0 0 0 0 0 0 0 0 
0 0 0 0 0 0 0 0 0 
0 0 0 0 0 0 0 0 0 
0 0 0 0 0 0 0 0 0 
0 0 0 0 0 0 0 0 0 
0 0 0 0 0 0 0 0 0 
0 0 0 0 0 0 0 0 0 
0 0 0 0 0 0 0 0 0 
0 0 0 0 0 0 0 0 0 
0 0 0 0 0 0 0 0 0 
0 0 0 0 0 0 0 0 0 
0 0 0 0 0 0 0 0 0 
0 0 0 0 0 0 0 0 0 
0 0 0 0 0 0 0 0 0 
0 0 0 0 0 0 0 0 0 
0 0 0 0 0 0 0 0 0 
0 0 0 0 0 0 0 0 0 
0 0 0 0 0 0 0 0 0 
0 0 0 0 0 0 0 0 0 
0 0 0 0 0 0 0 0 0 
0 0 0 0 0 0 0 0 0 
0 0 0 0 0 0 0 0 0 
0 0 0 0 0 0 0 0 0 
0 0 0 0 0 0 0 0 0 
0 0 0 0 0 0 0 0 0 
0 0 0 0 0 0 0 0 0 
0 0 0 0 0 0 0 0 0 
0 0 0 0 0 0 0 0 0 
0 0 0 0 0 0 0 0 0 
0 0 0 0 0 0 0 0 0 
0 0 0 0 0 0 0 0 0 
0 0 0 0 0 0 0 0 0 
0 0 0 0 0 0 0 0 0 
0 0 0 0 0 0 0 0 0 
0 0 0 0 0 0 0 0 0 
0 0 0 0 0 0 0 0 0 
0 0 0 0 0 0 0 0 0 
0 0 0 0 0 0 0 0 0 
0 0 0 0 0 0 0 0 0 
0 0 0 0 0 0 0 0 0 
0 0 0 0 0 0 0 0 0 
0 0 0 0 0 0 0 0 0 
0 0 0 0 0 0 0 0 0 
0 0 0 0 0 0 0 0 0 
0 0 0 0 0 0 0 0 0 
0 0 0 0 0 0 0 0 0 
0 0 0 0 0 0 0 0 0 
0 0 0 0 0 0 0 0 0 
0 0 0 0 0 0 0 0 0 
0 0 0 0 0 0 0 0 0 
0 0 0 0 0 0 0 0 0 
0 0 0 0 0 0 0 0 0 
0 0 0 0 0 0 0 0 0 
0 0 0 0 0 0 0 0 0 
0 0 0 0 0 0 0 0 0 
0 0 0 0 0 0 0 0 0 
0 0 0 0 0 0 0 0 0 
0 0 0 0 0 0 0 0 0 
0 0 0 0 0 0 0 0 0 
0 0 0 0 0 0 0 0 0 
0 0 0 0 0 0 0 0 0 
0 0 0 0 0 0 0 0 0 
0 0 0 0 0 0 0 0 0 

fy_mag_viz 1 648 double
0 0 0 0 0 0 0 0 0 
0 0 0 0 0 0 0 0 0 
0 0 0 0 0 0 0 0 0 
0 0 0 0 0 0 0 0 0 
0 0 0 0 0 0 0 0 0 
0 0 0 0 0 0 0 0 0 
0 0 0 0 0 0 0 0 0 
0 0 0 0 0 0 0 0 0 
0 0 0 0 0 0 0 0 0 
0 0 0 0 0 0 0 0 0 
0 0 0 0 0 0 0 0 0 
0 0 0 0 0 0 0 0 0 
0 0 0 0 0 0 0 0 0 
0 0 0 0 0 0 0 0 0 
0 0 0 0 0 0 0 0 0 
0 0 0 0 0 0 0 0 0 
0 0 0 0 0 0 0 0 0 
0 0 0 0 0 0 0 0 0 
0 0 0 0 0 0 0 0 0 
0 0 0 0 0 0 0 0 0 
0 0 0 0 0 0 0 0 0 
0 0 0 0 0 0 0 0 0 
0 0 0 0 0 0 0 0 0 
0 0 0 0 0 0 0 0 0 
0 0 0 0 0 0 0 0 0 
0 0 0 0 0 0 0 0 0 
0 0 0 0 0 0 0 0 0 
0 0 0 0 0 0 0 0 0 
0 0 0 0 0 0 0 0 0 
0 0 0 0 0 0 0 0 0 
0 0 0 0 0 0 0 0 0 
0 0 0 0 0 0 0 0 0 
0 0 0 0 0 0 0 0 0 
0 0 0 0 0 0 0 0 0 
0 0 0 0 0 0 0 0 0 
0 0 0 0 0 0 0 0 0 
0 0 0 0 0 0 0 0 0 
0 0 0 0 0 0 0 0 0 
0 0 0 0 0 0 0 0 0 
0 0 0 0 0 0 0 0 0 
0 0 0 0 0 0 0 0 0 
0 0 0 0 0 0 0 0 0 
0 0 0 0 0 0 0 0 0 
0 0 0 0 0 0 0 0 0 
0 0 0 0 0 0 0 0 0 
0 0 0 0 0 0 0 0 0 
0 0 0 0 0 0 0 0 0 
0 0 0 0 0 0 0 0 0 
0 0 0 0 0 0 0 0 0 
0 0 0 0 0 0 0 0 0 
0 0 0 0 0 0 0 0 0 
0 0 0 0 0 0 0 0 0 
0 0 0 0 0 0 0 0 0 
0 0 0 0 0 0 0 0 0 
0 0 0 0 0 0 0 0 0 
0 0 0 0 0 0 0 0 0 
0 0 0 0 0 0 0 0 0 
0 0 0 0 0 0 0 0 0 
0 0 0 0 0 0 0 0 0 
0 0 0 0 0 0 0 0 0 
0 0 0 0 0 0 0 0 0 
0 0 0 0 0 0 0 0 0 
0 0 0 0 0 0 0 0 0 
0 0 0 0 0 0 0 0 0 
0 0 0 0 0 0 0 0 0 
0 0 0 0 0 0 0 0 0 
0 0 0 0 0 0 0 0 0 
0 0 0 0 0 0 0 0 0 
0 0 0 0 0 0 0 0 0 
0 0 0 0 0 0 0 0 0 
0 0 0 0 0 0 0 0 0 
0 0 0 0 0 0 0 0 0 

fz_mag_viz 1 648 double
0 0 0 0 0 0 0 0 0 
0 0 0 0 0 0 0 0 0 
0 0 0 0 0 0 0 0 0 
0 0 0 0 0 0 0 0 0 
0 0 0 0 0 0 0 0 0 
0 0 0 0 0 0 0 0 0 
0 0 0 0 0 0 0 0 0 
0 0 0 0 0 0 0 0 0 
0 0 0 0 0 0 0 0 0 
0 0 0 0 0 0 0 0 0 
0 0 0 0 0 0 0 0 0 
0 0 0 0 0 0 0 0 0 
0 0 0 0 0 0 0 0 0 
0 0 0 0 0 0 0 0 0 
0 0 0 0 0 0 0 0 0 
0 0 0 0 0 0 0 0 0 
0 0 0 0 0 0 0 0 0 
0 0 0 0 0 0 0 0 0 
0 0 0 0 0 0 0 0 0 
0 0 0 0 0 0 0 0 0 
0 0 0 0 0 0 0 0 0 
0 0 0 0 0 0 0 0 0 
0 0 0 0 0 0 0 0 0 
0 0 0 0 0 0 0 0 0 
0 0 0 0 0 0 0 0 0 
0 0 0 0 0 0 0 0 0 
0 0 0 0 0 0 0 0 0 
0 0 0 0 0 0 0 0 0 
0 0 0 0 0 0 0 0 0 
0 0 0 0 0 0 0 0 0 
0 0 0 0 0 0 0 0 0 
0 0 0 0 0 0 0 0 0 
0 0 0 0 0 0 0 0 0 
0 0 0 0 0 0 0 0 0 
0 0 0 0 0 0 0 0 0 
0 0 0 0 0 0 0 0 0 
0 0 0 0 0 0 0 0 0 
0 0 0 0 0 0 0 0 0 
0 0 0 0 0 0 0 0 0 
0 0 0 0 0 0 0 0 0 
0 0 0 0 0 0 0 0 0 
0 0 0 0 0 0 0 0 0 
0 0 0 0 0 0 0 0 0 
0 0 0 0 0 0 0 0 0 
0 0 0 0 0 0 0 0 0 
0 0 0 0 0 0 0 0 0 
0 0 0 0 0 0 0 0 0 
0 0 0 0 0 0 0 0 0 
0 0 0 0 0 0 0 0 0 
0 0 0 0 0 0 0 0 0 
0 0 0 0 0 0 0 0 0 
0 0 0 0 0 0 0 0 0 
0 0 0 0 0 0 0 0 0 
0 0 0 0 0 0 0 0 0 
0 0 0 0 0 0 0 0 0 
0 0 0 0 0 0 0 0 0 
0 0 0 0 0 0 0 0 0 
0 0 0 0 0 0 0 0 0 
0 0 0 0 0 0 0 0 0 
0 0 0 0 0 0 0 0 0 
0 0 0 0 0 0 0 0 0 
0 0 0 0 0 0 0 0 0 
0 0 0 0 0 0 0 0 0 
0 0 0 0 0 0 0 0 0 
0 0 0 0 0 0 0 0 0 
0 0 0 0 0 0 0 0 0 
0 0 0 0 0 0 0 0 0 
0 0 0 0 0 0 0 0 0 
0 0 0 0 0 0 0 0 0 
0 0 0 0 0 0 0 0 0 
0 0 0 0 0 0 0 0 0 
0 0 0 0 0 0 0 0 0 

B_magnitude 1 648 double
0 0 0 0 0 0 0 0 0 
0 0 0 0 0 0 0 0 0 
0 0 0 0 0 0 0 0 0 
0 0 0 0 0 0 0 0 0 
0 0 0 0 0 0 0 0 0 
0 0 0 0 0 0 0 0 0 
0 0 0 0 0 0 0 0 0 
0 0 0 0 0 0 0 0 0 
0 0 0 0 0 0 0 0 0 
0 0 0 0 0 0 0 0 0 
0 0 0 0 0 0 0 0 0 
0 0 0 0 0 0 0 0 0 
0 0 0 0 0 0 0 0 0 
0 0 0 0 0 0 0 0 0 
0 0 0 0 0 0 0 0 0 
0 0 0 0 0 0 0 0 0 
0 0 0 0 0 0 0 0 0 
0 0 0 0 0 0 0 0 0 
0 0 0 0 0 0 0 0 0 
0 0 0 0 0 0 0 0 0 
0 0 0 0 0 0 0 0 0 
0 0 0 0 0 0 0 0 0 
0 0 0 0 0 0 0 0 0 
0 0 0 0 0 0 0 0 0 
0 0 0 0 0 0 0 0 0 
0 0 0 0 0 0 0 0 0 
0 0 0 0 0 0 0 0 0 
0 0 0 0 0 0 0 0 0 
0 0 0 0 0 0 0 0 0 
0 0 0 0 0 0 0 0 0 
0 0 0 0 0 0 0 0 0 
0 0 0 0 0 0 0 0 0 
0 0 0 0 0 0 0 0 0 
0 0 0 0 0 0 0 0 0 
0 0 0 0 0 0 0 0 0 
0 0 0 0 0 0 0 0 0 
0 0 0 0 0 0 0 0 0 
0 0 0 0 0 0 0 0 0 
0 0 0 0 0 0 0 0 0 
0 0 0 0 0 0 0 0 0 
0 0 0 0 0 0 0 0 0 
0 0 0 0 0 0 0 0 0 
0 0 0 0 0 0 0 0 0 
0 0 0 0 0 0 0 0 0 
0 0 0 0 0 0 0 0 0 
0 0 0 0 0 0 0 0 0 
0 0 0 0 0 0 0 0 0 
0 0 0 0 0 0 0 0 0 
0 0 0 0 0 0 0 0 0 
0 0 0 0 0 0 0 0 0 
0 0 0 0 0 0 0 0 0 
0 0 0 0 0 0 0 0 0 
0 0 0 0 0 0 0 0 0 
0 0 0 0 0 0 0 0 0 
0 0 0 0 0 0 0 0 0 
0 0 0 0 0 0 0 0 0 
0 0 0 0 0 0 0 0 0 
0 0 0 0 0 0 0 0 0 
0 0 0 0 0 0 0 0 0 
0 0 0 0 0 0 0 0 0 
0 0 0 0 0 0 0 0 0 
0 0 0 0 0 0 0 0 0 
0 0 0 0 0 0 0 0 0 
0 0 0 0 0 0 0 0 0 
0 0 0 0 0 0 0 0 0 
0 0 0 0 0 0 0 0 0 
0 0 0 0 0 0 0 0 0 
0 0 0 0 0 0 0 0 0 
0 0 0 0 0 0 0 0 0 
0 0 0 0 0 0 0 0 0 
0 0 0 0 0 0 0 0 0 
0 0 0 0 0 0 0 0 0 

B_gradient_mag 1 648 double
0 0 0 0 0 0 0 0 0 
0 0 0 0 0 0 0 0 0 
0 0 0 0 0 0 0 0 0 
0 0 0 0 0 0 0 0 0 
0 0 0 0 0 0 0 0 0 
0 0 0 0 0 0 0 0 0 
0 0 0 0 0 0 0 0 0 
0 0 0 0 0 0 0 0 0 
0 0 0 0 0 0 0 0 0 
0 0 0 0 0 0 0 0 0 
0 0 0 0 0 0 0 0 0 
0 0 0 0 0 0 0 0 0 
0 0 0 0 0 0 0 0 0 
0 0 0 0 0 0 0 0 0 
0 0 0 0 0 0 0 0 0 
0 0 0 0 0 0 0 0 0 
0 0 0 0 0 0 0 0 0 
0 0 0 0 0 0 0 0 0 
0 0 0 0 0 0 0 0 0 
0 0 0 0 0 0 0 0 0 
0 0 0 0 0 0 0 0 0 
0 0 0 0 0 0 0 0 0 
0 0 0 0 0 0 0 0 0 
0 0 0 0 0 0 0 0 0 
0 0 0 0 0 0 0 0 0 
0 0 0 0 0 0 0 0 0 
0 0 0 0 0 0 0 0 0 
0 0 0 0 0 0 0 0 0 
0 0 0 0 0 0 0 0 0 
0 0 0 0 0 0 0 0 0 
0 0 0 0 0 0 0 0 0 
0 0 0 0 0 0 0 0 0 
0 0 0 0 0 0 0 0 0 
0 0 0 0 0 0 0 0 0 
0 0 0 0 0 0 0 0 0 
0 0 0 0 0 0 0 0 0 
0 0 0 0 0 0 0 0 0 
0 0 0 0 0 0 0 0 0 
0 0 0 0 0 0 0 0 0 
0 0 0 0 0 0 0 0 0 
0 0 0 0 0 0 0 0 0 
0 0 0 0 0 0 0 0 0 
0 0 0 0 0 0 0 0 0 
0 0 0 0 0 0 0 0 0 
0 0 0 0 0 0 0 0 0 
0 0 0 0 0 0 0 0 0 
0 0 0 0 0 0 0 0 0 
0 0 0 0 0 0 0 0 0 
0 0 0 0 0 0 0 0 0 
0 0 0 0 0 0 0 0 0 
0 0 0 0 0 0 0 0 0 
0 0 0 0 0 0 0 0 0 
0 0 0 0 0 0 0 0 0 
0 0 0 0 0 0 0 0 0 
0 0 0 0 0 0 0 0 0 
0 0 0 0 0 0 0 0 0 
0 0 0 0 0 0 0 0 0 
0 0 0 0 0 0 0 0 0 
0 0 0 0 0 0 0 0 0 
0 0 0 0 0 0 0 0 0 
0 0 0 0 0 0 0 0 0 
0 0 0 0 0 0 0 0 0 
0 0 0 0 0 0 0 0 0 
0 0 0 0 0 0 0 0 0 
0 0 0 0 0 0 0 0 0 
0 0 0 0 0 0 0 0 0 
0 0 0 0 0 0 0 0 0 
0 0 0 0 0 0 0 0 0 
0 0 0 0 0 0 0 0 0 
0 0 0 0 0 0 0 0 0 
0 0 0 0 0 0 0 0 0 
0 0 0 0 0 0 0 0 0 

