# vtk DataFile Version 5.1
Generated by LIGGGHTS
ASCII
DATASET POLYDATA
POINTS 648 float
-0.0428902 -0.0449088 0.00102325 0.0416479 -0.0439733 0.00113536 -0.0349861 -0.0412827 0.00115481 
0.040047 -0.0404588 0.00117409 -0.00302782 -0.0385948 0.00115313 0.0156715 -0.0391733 0.00104034 
0.00798734 -0.0367051 0.00102 0.0077947 -0.0345433 0.0011242 0.0268369 -0.0315202 0.00123333 
-0.0266532 -0.0301716 0.00119186 -0.0105296 -0.0314142 0.00104235 0.033456 -0.0256735 0.00125962 
0.0336491 -0.0197505 0.00119199 -0.0108877 -0.0188832 0.00110123 0.00689113 -0.0107816 0.00120359 
0.0350526 -0.0102353 0.00109565 -0.0198564 -0.00683511 0.00103706 -0.0135858 -0.00672635 0.00142698 
-0.0129003 -0.00574839 0.00102012 -0.040885 -0.00406647 0.00135581 0.00937085 -0.00418454 0.00124583 
-0.0179231 -0.00300678 0.00102 -0.00783961 -0.000387029 0.00112376 0.0384376 0.000848974 0.00102 
-0.00967086 0.00179773 0.00111829 0.00417698 0.0024455 0.00110826 0.0292006 0.00433004 0.00122313 
0.0305447 0.00486582 0.00117215 -0.0287984 0.00559412 0.00119353 0.0011249 0.00615697 0.0010238 
0.021602 0.00540593 0.00103702 -0.0426568 0.00723228 0.00123632 0.00533928 0.00728904 0.00129358 
0.0212596 0.00979192 0.00115493 -0.0394276 0.0109375 0.00111084 0.0399323 0.0117688 0.00108203 
0.0128044 0.0127337 0.00121799 -0.034865 0.0142961 0.00109546 -0.0310202 0.0131063 0.00103995 
0.0143092 0.0139794 0.00125546 0.0248423 0.0143007 0.00122912 0.0287781 0.014071 0.00121542 
0.0336082 0.013194 0.00106873 -0.0360536 0.0173104 0.00108541 0.0215224 0.0171285 0.00120868 
0.0122157 0.0191756 0.00134635 -0.0153727 0.020636 0.00113294 -0.0282566 0.021284 0.00121891 
0.0123926 0.0218243 0.00104169 -0.0421793 0.0225172 0.00140381 0.03506 0.0228899 0.00111936 
0.0167463 0.0251763 0.00102858 -0.0409258 0.0305044 0.00104243 0.00284552 0.0345861 0.0010832 
0.0297434 0.0373158 0.00122066 0.0311732 0.0371467 0.00118925 0.0165329 0.0385374 0.00116028 
-0.0390027 0.0421086 0.00120197 -0.0181988 0.0434549 0.00120676 -0.0346971 -0.0446764 0.00163066 
-0.00340304 -0.0448428 0.00219769 -0.044759 -0.0437614 0.00177865 -0.0308094 -0.0435702 0.00155757 
-0.027409 -0.0433703 0.00264378 0.0145521 -0.0432303 0.00121711 -0.0248654 -0.0427111 0.00149793 
0.0248068 -0.0428986 0.00175605 0.0348044 -0.042095 0.00245756 0.0418836 -0.0421436 0.00215087 
0.0238162 -0.0409762 0.00169215 0.0414821 -0.0410789 0.00237729 -0.042922 -0.0404536 0.00249086 
-0.018434 -0.0405477 0.00238626 -0.00670669 -0.0394183 0.00250411 0.0244803 -0.0401788 0.00209904 
-0.0108246 -0.0388127 0.00247609 -0.0370475 -0.0370945 0.00209187 0.0308099 -0.0378456 0.00190522 
0.0397687 -0.0374633 0.00145243 -0.0273176 -0.0361067 0.00182937 0.000822496 -0.0363122 0.00222068 
0.00879071 -0.0344865 0.00266871 0.0333162 -0.0342631 0.00200653 -0.00586029 -0.0338127 0.00210465 
0.023158 -0.0340207 0.00174018 0.0244271 -0.0334586 0.00212273 -0.0376897 -0.0314333 0.00193073 
-0.0262624 -0.032473 0.00247997 -0.0232422 -0.0321576 0.00172536 0.00802514 -0.031483 0.00238514 
0.0346336 -0.0325969 0.00157978 -0.0386911 -0.0311434 0.00163664 0.0280204 -0.0311414 0.0015884 
-0.0448384 -0.0296834 0.0016606 0.0346338 -0.0290927 0.00226425 -0.0240024 -0.0280603 0.00184821 
0.00577088 -0.0287415 0.00123661 0.0164647 -0.0275391 0.00147749 -0.0430551 -0.0267583 0.00241218 
-0.0240719 -0.0268296 0.00234104 -0.00580099 -0.0272788 0.00258486 0.03382 -0.0268981 0.00149464 
-0.0338231 -0.0250135 0.00241066 0.0306875 -0.0259396 0.00248332 0.032808 -0.025967 0.00149069 
0.00538025 -0.0241403 0.00143965 0.0155599 -0.0240909 0.00216346 -0.0408326 -0.0234295 0.00123821 
0.0233461 -0.0214624 0.00234659 0.0436787 -0.0219137 0.00162816 0.00548761 -0.0197918 0.00199256 
-0.0317771 -0.0175651 0.00151437 -0.0204621 -0.0172006 0.00191947 0.0030191 -0.0179247 0.00165287 
0.0404767 -0.0183151 0.00176145 0.0223879 -0.0163393 0.00143958 -0.00444012 -0.0151621 0.0024589 
0.0249316 -0.014475 0.00146752 0.0403752 -0.0143085 0.00124638 -0.0341597 -0.0122829 0.00142273 
0.0277003 -0.0107969 0.00176531 -0.038829 -0.00978443 0.00150763 -0.0196799 -0.00931279 0.00198233 
-0.0112192 -0.0104501 0.00156175 0.00743742 -0.00926665 0.00135563 0.0313953 -0.00974065 0.00252422 
0.0406218 -0.0100941 0.00162536 -0.0214415 -0.007536 0.001664 -0.00401126 -0.00720159 0.00188658 
0.0404774 -0.00688032 0.00234197 -0.00747582 -0.00609419 0.00259032 0.00523139 -0.00599236 0.00135042 
0.0387156 -0.00624884 0.00236475 0.0131353 -0.00504642 0.00213649 -0.0408474 -0.00214648 0.00142441 
0.00664535 -0.00164817 0.00161512 -0.0376932 -0.000132947 0.00146668 -0.0281455 -0.00127675 0.00187825 
-0.00702036 -0.00121172 0.00198641 -0.0416237 0.00110806 0.00177171 0.0407777 0.000744206 0.00161945 
0.0147261 0.00139147 0.00227671 0.032558 0.00153523 0.00173926 0.0362421 0.00170773 0.00162247 
-0.0325416 0.00283857 0.00229193 -0.025141 0.00447188 0.00221457 0.0323225 0.00436429 0.00187918 
0.0404406 0.00462082 0.00239474 -0.037077 0.00611456 0.00216828 -0.0170872 0.00564833 0.00125242 
-0.00723413 0.00605583 0.00190539 0.0228765 0.00606581 0.00155671 0.0246705 0.0064451 0.00232802 
0.0142017 0.0079404 0.00245086 0.0202046 0.00840095 0.00242906 0.0283387 0.00890506 0.00245832 
-0.0392616 0.00972366 0.00185039 -0.0214351 0.00957734 0.00161509 -0.0101256 0.00978275 0.00189353 
0.00474506 0.0103043 0.00127516 0.0197977 0.00963841 0.00215863 0.0211953 0.00966092 0.0021938 
-0.0365733 0.0119208 0.00231017 -0.00279986 0.0127222 0.00238132 0.00243185 0.0120975 0.00218196 
0.014866 0.0127598 0.00229337 0.0261916 0.0119357 0.00159788 -0.0429188 0.0135204 0.00186604 
8.23501e-07 0.0138406 0.00219781 -0.0196462 0.0155185 0.00128556 -0.00307286 0.0144526 0.00243886 
0.000954082 0.0152563 0.0025585 0.00517921 0.0169249 0.00251122 0.0226738 0.0181095 0.00144073 
0.0407412 0.0174253 0.00223005 -0.0214239 0.0189608 0.00137337 0.018015 0.0183735 0.00202357 
0.0388885 0.0193682 0.00144244 -0.0431379 0.0208085 0.00156766 -0.023041 0.0197144 0.00187166 
-0.022709 0.0198803 0.00231132 0.0362273 0.0220011 0.0020169 -0.0349287 0.0230684 0.00191855 
0.0146363 0.0223077 0.00207819 -0.0267196 0.0236159 0.00179847 0.0258603 0.0235991 0.00156335 
0.0226957 0.0260881 0.00227886 -0.0190887 0.0269029 0.001026 -0.0114472 0.026715 0.00170497 
0.00953871 0.0271324 0.00236044 0.0395905 0.0272142 0.00226409 0.00834461 0.0278725 0.00200242 
-0.0376379 0.0294143 0.00103321 -0.0127911 0.0299546 0.00242168 0.0434247 0.0295768 0.00192261 
-0.0200898 0.0311527 0.00230565 0.00372347 0.0304157 0.00240121 0.0038092 0.0311583 0.00256371 
0.0444958 0.0309554 0.00163857 -0.00435696 0.0325462 0.00243989 0.00390562 0.0317225 0.00248795 
0.0372507 0.0318783 0.00176404 -0.0337286 0.0337045 0.00209838 -0.0264781 0.032823 0.00158084 
0.0231674 0.0340949 0.00242664 -0.00196307 0.0366495 0.00160814 -0.0245447 0.0378537 0.00228073 
0.0030545 0.0369981 0.00208432 -0.00973825 0.0391656 0.00237288 0.0238959 0.0383247 0.00228135 
-0.0375088 0.0393741 0.0018746 -0.0112537 0.0395394 0.00259223 0.0221021 0.0401282 0.00263249 
0.0251972 0.0393087 0.00133388 -0.0133259 0.0414802 0.00172491 0.0163992 0.0415262 0.001719 
0.0222253 0.0407186 0.00241111 0.0294278 0.0431452 0.00222604 0.0114086 0.0440135 0.00219464 
0.0352379 0.0438995 0.00180818 0.0405446 0.0433429 0.00225378 0.0399235 0.0434757 0.00257225 
0.0171919 0.0449185 0.00188239 -0.0335565 -0.0442122 0.00325513 0.0181024 -0.0433049 0.00273067 
-0.00674967 -0.0416523 0.00273287 0.0424299 -0.0409921 0.00350682 -0.0334706 -0.0396012 0.00277671 
-0.0248652 -0.040212 0.00329134 -0.0169239 -0.0402939 0.0034051 -0.0439713 -0.0357399 0.00273925 
-0.0168273 -0.0360331 0.00284975 0.0195647 -0.0366528 0.00346527 0.00594186 -0.0351889 0.00334948 
-0.0427235 -0.0332389 0.00275455 0.0449741 -0.0303513 0.00270265 -0.0263426 -0.0292431 0.00248754 
0.00231692 -0.0294453 0.00357039 0.000892701 -0.0263701 0.00278458 -0.0225401 -0.0213878 0.00297131 
0.00623721 -0.0211799 0.00273711 0.039775 -0.0211058 0.00324533 -0.00827992 -0.020547 0.00269544 
-0.0296942 -0.0196153 0.00301774 0.00156248 -0.0194187 0.00343919 0.0363266 -0.0194176 0.00262991 
-0.0328213 -0.0176588 0.00266185 -0.0100897 -0.0180162 0.00331261 -0.0426154 -0.0165053 0.00325138 
-0.0339565 -0.0167518 0.00279686 -0.0257955 -0.0157834 0.00287894 -0.015814 -0.0152491 0.00251905 
0.0198229 -0.0156851 0.00305494 0.0268005 -0.0146468 0.00281474 0.0375745 -0.0151367 0.00270408 
-0.0388614 -0.0136303 0.00319229 -0.0329121 -0.0139828 0.00282313 -0.0227164 -0.0141288 0.00288062 
-0.0117656 -0.0138394 0.00302573 -0.0269092 -0.0125643 0.00295557 0.0176437 -0.0119747 0.00267997 
-0.0222502 -0.00974669 0.00279789 0.013874 -0.00963069 0.00309624 0.0251729 -0.00985964 0.00265837 
0.0286804 -0.00919085 0.00337149 -0.00553214 -0.00871323 0.00269069 -0.00254943 -0.00825679 0.00266679 
-0.0304645 -0.00701594 0.00287739 0.0109664 -0.00760095 0.00306015 0.0161928 -0.00760918 0.00296788 
0.021323 -0.00444137 0.00259135 -0.042786 -0.00359954 0.00287371 -0.0141425 -0.00311887 0.00300396 
-0.0120059 -0.00345367 0.00269103 -0.00896956 -0.00131708 0.0033659 0.0290986 -0.000251763 0.00286014 
-0.0260142 0.00017485 0.00276454 0.0188762 0.00181355 0.00294704 0.0449494 0.00392273 0.00284663 
-0.0406381 0.00555966 0.00297338 0.0101693 0.00555192 0.0025937 0.0250346 0.00641518 0.00252484 
0.030759 0.00580352 0.00305517 0.0332757 0.00539899 0.00246322 0.0221269 0.00728552 0.00282863 
0.0340899 0.00882812 0.00326849 0.0398091 0.011618 0.00331765 0.00861143 0.0123591 0.00266792 
-0.00867948 0.0139924 0.00256436 0.0441199 0.0136981 0.00343068 0.0121458 0.0151918 0.00299557 
0.0418335 0.0161761 0.00297888 0.00395304 0.0187088 0.00306641 0.00757299 0.0192258 0.00241275 
0.0090081 0.0191686 0.00324733 0.00128112 0.0217131 0.00267576 -0.0295899 0.0232577 0.00342102 
-0.00782209 0.0241861 0.00362311 0.0307708 0.0242663 0.00316419 -0.0386663 0.0253433 0.00323829 
-0.00739359 0.0259593 0.00278461 0.000162142 0.0251126 0.0029484 -0.0267569 0.0263983 0.0032155 
-0.00563177 0.0268155 0.00348353 -0.0357156 0.0282031 0.00268639 0.0191509 0.0299648 0.00312917 
-0.0313244 0.0314049 0.00278166 -0.0108954 0.0304 0.00276806 0.00519606 0.0301696 0.00279564 
0.026696 0.03017 0.00267066 0.0364634 0.0310238 0.00264522 -0.0073504 0.0318329 0.00268656 
0.01325 0.0319187 0.00325502 0.00317215 0.0343196 0.00249538 -0.041477 0.0364172 0.00273501 
-0.0312382 0.0393096 0.00286676 0.00805094 0.0422278 0.0029452 -0.0205282 0.0432397 0.0027812 
0.0211706 0.0445491 0.00237394 0.0131812 -0.0427533 0.00404118 0.0338942 -0.0410147 0.0045619 
0.027474 -0.0338615 0.004593 0.0102479 -0.024092 0.00460932 0.0115492 -0.0227248 0.00408017 
-0.0164034 -0.0216001 0.00428391 0.038292 -0.016257 0.00466044 -0.0408642 -0.0154151 0.0044343 
-0.0186412 -0.0134353 0.0039642 -0.0327621 -0.0121928 0.00392225 -0.00433253 -0.00676057 0.00402986 
0.0180565 -0.00487531 0.00421308 0.00975646 -0.00313231 0.00387959 0.0293019 -0.00298432 0.00487821 
0.00243665 0.00282786 0.00464068 0.00978397 0.00922321 0.00469472 -0.0350204 0.0121089 0.00384845 
0.00789931 0.0136568 0.00379871 -0.00443291 0.0160613 0.00364022 0.0350116 0.0207306 0.00457841 
-0.0122989 0.0222019 0.00445818 0.0181332 0.0246356 0.00399654 0.0438582 0.0244724 0.00456724 
0.0352701 0.0439749 0.00401252 0.0166138 -0.0412108 0.00536403 0.00985621 -0.0367022 0.00522269 
-0.0309963 -0.0355024 0.00583411 -0.00161929 -0.0353994 0.00494454 0.0403097 -0.0347888 0.00526283 
0.0433459 -0.0353282 0.00598115 -0.0414327 -0.0290659 0.00591955 -0.0401314 -0.0280847 0.00518089 
0.035159 -0.023363 0.00532677 0.0394323 -0.021923 0.00560183 -0.0405162 -0.0161033 0.00568536 
-0.0344646 -0.00725539 0.00490249 0.0275881 -0.00673863 0.00554231 0.0180458 -0.00470109 0.00489254 
-0.00941413 -0.00330341 0.00559307 -0.0283489 -0.000417126 0.00588306 0.0140084 -6.89735e-05 0.00591874 
0.0116524 0.00206193 0.005778 -0.0408092 0.00981999 0.00586962 -0.00831541 0.0129665 0.00568244 
-0.00841171 0.0143034 0.00583766 0.0311878 0.014057 0.00499065 0.0256029 0.0175394 0.00524527 
-0.0287332 0.0215601 0.00615158 0.0398418 0.0217469 0.00529174 0.00126512 0.0228658 0.00566717 
-0.0407273 0.0358476 0.0061084 -0.00883869 0.0381834 0.00558385 -0.00647711 0.0391566 0.00519697 
-0.00585061 0.0388609 0.0050935 0.0281745 0.039089 0.00529331 -0.00396528 -0.0444182 0.00664859 
0.0195053 -0.043722 0.00745399 0.000425919 -0.0415728 0.00722099 -0.0161578 -0.0337243 0.00750669 
-0.0160452 -0.0323821 0.00663713 -0.0220587 -0.0306349 0.00634114 0.023019 -0.0293484 0.00650385 
0.0101031 -0.0273014 0.00673673 -0.00863888 -0.0237376 0.00632103 0.00558373 -0.0242787 0.0067406 
-0.0127621 -0.0231756 0.00663667 0.0240101 -0.0228809 0.00676316 -0.0210835 -0.0209207 0.0072842 
-0.0033641 -0.0204173 0.00733079 -0.0147645 -0.0165889 0.0066298 0.0323803 -0.0150629 0.00636818 
0.0334462 -0.00930086 0.0066249 -0.042331 -0.00792816 0.00720193 0.0200271 -0.00425623 0.00739232 
-0.0107529 -0.00365687 0.00714677 0.0168839 -0.00210364 0.00679337 -0.0153419 -0.00108619 0.00687621 
-0.0105861 0.00898083 0.00660566 0.0396593 0.013993 0.00636107 -0.0148746 0.0223253 0.00671035 
0.00264144 0.0247174 0.00663468 -0.0219587 0.0304934 0.00707108 0.0193546 0.0324404 0.00636778 
0.0191028 0.0315895 0.00742292 0.00727395 0.0332762 0.00674259 -0.00472634 0.0344449 0.00714114 
0.00528787 0.0432844 0.00678544 0.0201641 -0.0426709 0.0077268 -0.0136468 -0.0412372 0.00772722 
0.0355384 -0.0354155 0.00801793 -0.0177803 -0.0340186 0.00840137 -0.0233761 -0.031813 0.00786769 
0.0153133 -0.0285941 0.00837168 -0.00446216 -0.0255279 0.00874506 0.00179778 -0.0247441 0.00792197 
-0.0350278 -0.0224863 0.00830339 0.0252581 -0.0163235 0.0081136 -0.0313057 -0.0141988 0.00805465 
0.0144468 -0.013247 0.00807798 -0.00528066 -0.0121118 0.00833536 -0.0343844 -0.0078404 0.00798547 
-0.0395569 -0.00227866 0.00870588 -0.0198668 -0.00211416 0.00842397 0.0183943 0.00266245 0.00801324 
-0.0429246 0.00657681 0.00825374 -0.0349081 0.00917553 0.0082834 -0.0231109 0.0157017 0.00871063 
0.0440772 0.0154938 0.0077808 0.00546842 0.0177814 0.00862299 0.00976854 0.0197772 0.00867753 
-0.0128609 0.0265935 0.00806981 -0.0425374 0.0333781 0.00843963 0.0214431 0.0335886 0.00763241 
0.00888594 0.0360502 0.00769651 0.00201585 0.0404036 0.00785661 -0.0346801 -0.0287009 0.00977993 
0.0347572 -0.0260666 0.00992523 0.0132043 -0.01541 0.00989274 -0.0279963 -0.0141356 0.00968682 
-0.0136128 -0.00979682 0.00911213 -0.0211095 -0.00770044 0.00914167 0.0129906 -0.00677597 0.00964855 
-0.0253129 -0.0039775 0.0092614 -0.00229178 0.0020129 0.00899437 -0.0233311 0.00384073 0.0101083 
0.00314898 0.00491531 0.0098456 0.0260144 0.00429017 0.00888653 -0.00071691 0.0108932 0.00959119 
0.00976298 0.0163696 0.00975929 -0.0193355 0.018129 0.00977656 -0.0324762 0.0230005 0.00974341 
0.0278529 0.0342296 0.00917179 -0.0390775 0.0447256 0.00941067 0.0262096 -0.0449372 0.0110892 
0.0406519 -0.0427256 0.0104554 -0.0406141 -0.0405112 0.010294 0.0325128 -0.03812 0.0106197 
-0.0177429 -0.0346724 0.0106331 -8.23525e-05 -0.034098 0.0113924 0.0350196 -0.0250011 0.0112957 
0.0109547 -0.0235646 0.010882 -0.0323128 -0.0219837 0.0109013 -0.000610522 -0.00103491 0.0110082 
-0.0261639 0.00337815 0.0102896 0.0358407 0.00533501 0.0103273 -0.009285 0.00693532 0.0111683 
0.0110904 0.00657535 0.0108364 -0.019893 0.00878872 0.0104085 0.0324887 0.00836074 0.0113094 
-0.0408306 0.00999374 0.0113352 0.0234497 0.00978487 0.0102532 -0.00808524 0.0113378 0.011049 
-0.0408838 0.0159645 0.0102446 0.00742845 0.0199749 0.0103783 0.021223 0.0244832 0.0103699 
0.0397191 0.0283771 0.0101908 -0.0213481 0.0319153 0.0107185 0.0380057 0.0324307 0.0112199 
0.0152528 0.033152 0.0104285 0.00367032 0.0371324 0.0106111 -0.0160353 0.0448572 0.0109967 
-0.0389435 -0.0425966 0.0115072 0.0339316 -0.041715 0.0122796 0.00849583 -0.0405939 0.012076 
-0.0195638 -0.0385913 0.0115525 0.0341086 -0.0368686 0.0122705 -0.0210092 -0.0320472 0.0124396 
0.0392765 -0.0300093 0.0123493 0.0210005 -0.0239559 0.0127585 -0.0207996 -0.0190456 0.0118785 
0.0204492 -0.0194639 0.0116277 0.0184681 -0.0172117 0.0119327 0.00886689 -0.0141191 0.0126904 
0.0322358 -0.0130621 0.0118042 0.0253763 -0.011051 0.0118547 0.0414517 -0.0114994 0.0120157 
-0.0253401 -0.0103599 0.0118701 -0.0150798 -0.00698339 0.0123188 0.039455 -0.000236508 0.0122066 
0.0420414 -0.00101026 0.0121986 0.0189244 0.00254502 0.0115934 0.00265626 0.00371614 0.012485 
-0.0403489 0.00598291 0.0115463 -0.00598638 0.00689803 0.0114921 0.027557 0.009967 0.0115758 
0.0114764 0.0140289 0.0117029 0.012949 0.0143048 0.0118578 -0.0287818 0.014969 0.0125292 
-0.0363159 0.0185996 0.0125361 -0.0436572 0.0238848 0.0118747 -0.0102477 0.0267602 0.0126488 
-0.0214233 0.0285543 0.0124447 0.0040127 0.0314243 0.0115095 0.0337272 0.0324898 0.0115273 
-0.039126 0.0399637 0.0120513 0.0170579 0.0421878 0.0126513 -0.0317519 -0.0446953 0.0140432 
-0.0289295 -0.0389067 0.0129905 0.00264867 -0.0338128 0.0132492 -0.0432264 -0.0264101 0.013905 
0.0054016 -0.025334 0.0138897 -0.0291427 -0.0219343 0.0128445 0.0134129 -0.0192809 0.0132913 
0.0296492 -0.015918 0.0137163 -0.00710141 -0.0133745 0.0130564 0.0347312 -0.012978 0.0140357 
0.00127443 -0.000618905 0.0137184 -0.027449 0.00511055 0.0130473 -0.01547 0.00642247 0.0132748 
-0.00552594 0.00555795 0.0134376 -0.0286532 0.0159811 0.0128867 -0.00317984 0.0164631 0.0131223 
-0.0406313 0.0295913 0.0129422 0.0164577 0.0353116 0.0129881 -0.00750544 0.0361316 0.0133328 
0.00308146 0.0401468 0.0138168 -0.0234086 -0.038644 0.0153703 -0.00338111 -0.0363358 0.0151048 
0.0307351 -0.0355434 0.0146518 -0.0179089 -0.0346335 0.0142113 0.043014 -0.0343178 0.0146096 
0.010226 -0.0308634 0.0147251 0.0156293 -0.0283842 0.0140984 -0.0419519 -0.0259749 0.0151138 
0.0262592 -0.0217201 0.0150133 0.0282033 -0.0178095 0.0152301 0.0342493 -0.0115037 0.0150189 
0.0218314 -0.00971151 0.0143529 -0.0101373 -0.00698039 0.0143862 -0.00720807 -0.00608605 0.0147687 
-0.0332593 0.000859011 0.0141994 -0.0131355 0.00164571 0.0151639 -0.0137512 0.00384646 0.0153178 
0.00347554 0.00338662 0.0151923 0.0320014 0.00756294 0.0143895 -0.0161548 0.0159009 0.0143216 
-0.0436896 0.0195853 0.0142749 -0.0245993 0.0193658 0.0154397 -0.0138035 0.0240512 0.0142571 
-0.0132251 0.0252506 0.0141839 -0.0152062 0.0294088 0.015112 -0.032208 0.0306075 0.0142422 
0.0354139 0.0312817 0.0152652 -0.0197415 0.0344175 0.0154737 0.0419483 -0.0348097 0.0158883 
-0.0396817 -0.0304797 0.0159054 -0.038621 -0.0229432 0.0156148 -0.0139777 -0.0223984 0.0160904 
-0.0183202 -0.0175475 0.0160616 0.0223025 -0.0112244 0.0161426 0.0277548 0.0042931 0.0157393 
0.00418285 0.0112423 0.0158908 0.012585 0.0155082 0.0165978 0.0153641 0.0146287 0.0163703 
0.00153271 0.0201988 0.0159828 -0.0269229 0.0267788 0.0156688 -0.0368667 0.0306348 0.0161338 
0.0104707 0.0313218 0.0164445 -0.0359241 0.0337864 0.0158732 -0.0422696 0.0340949 0.0161893 
0.0132394 0.0345575 0.0159476 -0.0155539 0.0359545 0.0157475 -0.0379532 0.0399341 0.0154673 
-0.00785852 0.041878 0.0158532 0.0430506 0.0422314 0.0157997 -0.0190394 0.0446837 0.0158985 
0.0147823 -0.0446949 0.0180168 0.0185094 -0.042363 0.017435 -0.00521279 -0.0413279 0.0179226 
-0.0385899 -0.0405251 0.0175088 -0.00682403 -0.0314098 0.0175326 0.0188903 -0.0308528 0.0176203 
0.0412685 -0.0295104 0.0173325 -0.015788 -0.0282898 0.0175199 -0.0207679 -0.0256315 0.017752 
0.0218308 -0.0192565 0.0178696 0.0414834 -0.0181367 0.0181095 -0.0393221 -0.0167834 0.0174629 
0.0323804 -0.0132471 0.01692 0.0433204 -0.0141837 0.0174904 -0.0207563 -0.0111167 0.0175706 
-0.0449336 -0.00957357 0.017995 -0.0326334 -0.00963456 0.0175758 -0.00474481 -0.00600267 0.0169474 
0.0414788 -0.00521487 0.0177024 0.0448793 -0.00396119 0.016991 -0.00254916 -0.00379952 0.0171021 
0.00643655 -0.000956063 0.0182624 -0.00757157 0.00454821 0.0180532 -0.0442311 0.00821601 0.0178646 
-0.0371624 0.011326 0.0180392 0.0379188 0.0120326 0.0179126 -0.0081225 0.0151775 0.0181804 
0.0323341 0.0191974 0.0178474 -0.0256005 0.0215871 0.0176813 0.00513794 0.0433856 0.0174314 
-0.0440308 0.0448256 0.017147 0.00741479 -0.0295782 0.0192582 -0.0336946 -0.0248459 0.0185289 
-0.0328109 -0.0226975 0.0194573 -0.0329608 -0.0218045 0.0182529 0.0352883 -0.0103067 0.0189052 
-0.024842 -0.00884532 0.0184821 0.0282359 -0.00877456 0.0193922 0.0386193 -0.00496685 0.0180446 
0.023953 0.00820576 0.0181284 -0.0122189 0.0175978 0.0189955 -0.0296003 0.0277025 0.0185867 
-0.014478 0.0275162 0.0187097 -0.0281804 0.0418824 0.0192325 0.0272875 -0.0186725 0.020033 
-0.0420316 -0.0145538 0.0199006 0.0302919 -0.0148257 0.0198234 0.00357123 -0.00830953 0.0208125 
0.0154702 -0.00154679 0.0205406 -0.0356048 -0.000104637 0.0201053 0.00635633 0.000852437 0.0207104 
-0.0144089 0.0201081 0.0196801 -0.0260391 0.0304395 0.0206255 0.0439232 0.0371117 0.0200729 
-0.0437633 0.0406561 0.0197044 0.0131273 0.040817 0.0202768 0.0289145 -0.0340196 0.0213253 
-0.0386256 -0.00983966 0.0211305 0.0127657 -0.00746761 0.0213914 -0.0225361 -0.0441701 0.0220969 
-0.0170112 0.0231088 0.0237952 0.0133448 0.00646544 0.0268543 0.0242571 -0.0100823 0.0351396 

VERTICES 649 648
OFFSETS vtktypeint64
0 1 2 3 4 5 6 7 8 
9 10 11 12 13 14 15 16 17 
18 19 20 21 22 23 24 25 26 
27 28 29 30 31 32 33 34 35 
36 37 38 39 40 41 42 43 44 
45 46 47 48 49 50 51 52 53 
54 55 56 57 58 59 60 61 62 
63 64 65 66 67 68 69 70 71 
72 73 74 75 76 77 78 79 80 
81 82 83 84 85 86 87 88 89 
90 91 92 93 94 95 96 97 98 
99 100 101 102 103 104 105 106 107 
108 109 110 111 112 113 114 115 116 
117 118 119 120 121 122 123 124 125 
126 127 128 129 130 131 132 133 134 
135 136 137 138 139 140 141 142 143 
144 145 146 147 148 149 150 151 152 
153 154 155 156 157 158 159 160 161 
162 163 164 165 166 167 168 169 170 
171 172 173 174 175 176 177 178 179 
180 181 182 183 184 185 186 187 188 
189 190 191 192 193 194 195 196 197 
198 199 200 201 202 203 204 205 206 
207 208 209 210 211 212 213 214 215 
216 217 218 219 220 221 222 223 224 
225 226 227 228 229 230 231 232 233 
234 235 236 237 238 239 240 241 242 
243 244 245 246 247 248 249 250 251 
252 253 254 255 256 257 258 259 260 
261 262 263 264 265 266 267 268 269 
270 271 272 273 274 275 276 277 278 
279 280 281 282 283 284 285 286 287 
288 289 290 291 292 293 294 295 296 
297 298 299 300 301 302 303 304 305 
306 307 308 309 310 311 312 313 314 
315 316 317 318 319 320 321 322 323 
324 325 326 327 328 329 330 331 332 
333 334 335 336 337 338 339 340 341 
342 343 344 345 346 347 348 349 350 
351 352 353 354 355 356 357 358 359 
360 361 362 363 364 365 366 367 368 
369 370 371 372 373 374 375 376 377 
378 379 380 381 382 383 384 385 386 
387 388 389 390 391 392 393 394 395 
396 397 398 399 400 401 402 403 404 
405 406 407 408 409 410 411 412 413 
414 415 416 417 418 419 420 421 422 
423 424 425 426 427 428 429 430 431 
432 433 434 435 436 437 438 439 440 
441 442 443 444 445 446 447 448 449 
450 451 452 453 454 455 456 457 458 
459 460 461 462 463 464 465 466 467 
468 469 470 471 472 473 474 475 476 
477 478 479 480 481 482 483 484 485 
486 487 488 489 490 491 492 493 494 
495 496 497 498 499 500 501 502 503 
504 505 506 507 508 509 510 511 512 
513 514 515 516 517 518 519 520 521 
522 523 524 525 526 527 528 529 530 
531 532 533 534 535 536 537 538 539 
540 541 542 543 544 545 546 547 548 
549 550 551 552 553 554 555 556 557 
558 559 560 561 562 563 564 565 566 
567 568 569 570 571 572 573 574 575 
576 577 578 579 580 581 582 583 584 
585 586 587 588 589 590 591 592 593 
594 595 596 597 598 599 600 601 602 
603 604 605 606 607 608 609 610 611 
612 613 614 615 616 617 618 619 620 
621 622 623 624 625 626 627 628 629 
630 631 632 633 634 635 636 637 638 
639 640 641 642 643 644 645 646 647 
648 
CONNECTIVITY vtktypeint64
0 1 2 3 4 5 6 7 8 
9 10 11 12 13 14 15 16 17 
18 19 20 21 22 23 24 25 26 
27 28 29 30 31 32 33 34 35 
36 37 38 39 40 41 42 43 44 
45 46 47 48 49 50 51 52 53 
54 55 56 57 58 59 60 61 62 
63 64 65 66 67 68 69 70 71 
72 73 74 75 76 77 78 79 80 
81 82 83 84 85 86 87 88 89 
90 91 92 93 94 95 96 97 98 
99 100 101 102 103 104 105 106 107 
108 109 110 111 112 113 114 115 116 
117 118 119 120 121 122 123 124 125 
126 127 128 129 130 131 132 133 134 
135 136 137 138 139 140 141 142 143 
144 145 146 147 148 149 150 151 152 
153 154 155 156 157 158 159 160 161 
162 163 164 165 166 167 168 169 170 
171 172 173 174 175 176 177 178 179 
180 181 182 183 184 185 186 187 188 
189 190 191 192 193 194 195 196 197 
198 199 200 201 202 203 204 205 206 
207 208 209 210 211 212 213 214 215 
216 217 218 219 220 221 222 223 224 
225 226 227 228 229 230 231 232 233 
234 235 236 237 238 239 240 241 242 
243 244 245 246 247 248 249 250 251 
252 253 254 255 256 257 258 259 260 
261 262 263 264 265 266 267 268 269 
270 271 272 273 274 275 276 277 278 
279 280 281 282 283 284 285 286 287 
288 289 290 291 292 293 294 295 296 
297 298 299 300 301 302 303 304 305 
306 307 308 309 310 311 312 313 314 
315 316 317 318 319 320 321 322 323 
324 325 326 327 328 329 330 331 332 
333 334 335 336 337 338 339 340 341 
342 343 344 345 346 347 348 349 350 
351 352 353 354 355 356 357 358 359 
360 361 362 363 364 365 366 367 368 
369 370 371 372 373 374 375 376 377 
378 379 380 381 382 383 384 385 386 
387 388 389 390 391 392 393 394 395 
396 397 398 399 400 401 402 403 404 
405 406 407 408 409 410 411 412 413 
414 415 416 417 418 419 420 421 422 
423 424 425 426 427 428 429 430 431 
432 433 434 435 436 437 438 439 440 
441 442 443 444 445 446 447 448 449 
450 451 452 453 454 455 456 457 458 
459 460 461 462 463 464 465 466 467 
468 469 470 471 472 473 474 475 476 
477 478 479 480 481 482 483 484 485 
486 487 488 489 490 491 492 493 494 
495 496 497 498 499 500 501 502 503 
504 505 506 507 508 509 510 511 512 
513 514 515 516 517 518 519 520 521 
522 523 524 525 526 527 528 529 530 
531 532 533 534 535 536 537 538 539 
540 541 542 543 544 545 546 547 548 
549 550 551 552 553 554 555 556 557 
558 559 560 561 562 563 564 565 566 
567 568 569 570 571 572 573 574 575 
576 577 578 579 580 581 582 583 584 
585 586 587 588 589 590 591 592 593 
594 595 596 597 598 599 600 601 602 
603 604 605 606 607 608 609 610 611 
612 613 614 615 616 617 618 619 620 
621 622 623 624 625 626 627 628 629 
630 631 632 633 634 635 636 637 638 
639 640 641 642 643 644 645 646 647 

POINT_DATA 648
FIELD FieldData 12
id 1 648 int
164 31 562 508 92 459 115 489 5 
304 185 190 470 154 106 293 72 32 
383 567 370 57 132 465 36 175 418 
458 407 456 396 450 426 214 601 432 
378 297 169 150 491 310 236 433 339 
447 166 49 18 287 219 195 506 85 
362 198 246 372 375 275 98 463 200 
188 84 113 390 140 218 429 207 134 
35 314 326 34 411 356 122 82 24 
319 88 571 51 347 477 303 404 505 
543 333 107 137 294 96 331 445 128 
13 409 183 415 121 267 484 71 282 
472 317 28 439 298 289 355 444 381 
240 211 380 292 16 248 231 428 157 
311 10 42 368 243 377 299 515 360 
135 204 542 66 75 196 90 538 61 
334 56 216 141 495 478 486 467 353 
424 112 129 261 197 288 338 255 420 
345 60 273 21 446 384 322 178 202 
469 193 54 392 110 117 161 357 521 
149 529 330 104 109 507 163 498 30 
199 461 509 451 504 114 187 201 158 
327 222 148 94 348 270 251 232 437 
182 320 328 76 155 435 386 361 412 
62 108 302 475 272 351 55 366 346 
457 271 256 87 99 22 226 436 367 
229 352 295 139 291 64 167 237 174 
479 440 238 274 247 496 73 176 374 
168 290 194 58 500 612 215 8 349 
227 127 427 483 324 260 399 336 278 
125 263 385 257 151 341 83 186 86 
503 546 474 454 126 423 165 373 401 
119 63 308 40 417 443 364 337 254 
14 189 100 162 9 408 280 410 321 
488 343 81 268 26 253 29 313 233 
318 91 406 438 414 577 589 223 449 
160 170 143 59 146 6 11 20 592 
244 497 181 46 220 33 431 12 206 
397 52 102 487 159 69 605 393 502 
329 111 572 53 615 252 142 205 265 
208 4 262 17 395 118 138 279 394 
309 559 413 45 536 89 93 591 156 
570 250 103 645 493 79 416 323 403 
25 462 74 38 95 105 171 371 217 
144 363 325 520 419 65 481 225 387 
342 203 68 344 350 239 147 604 116 
526 553 306 460 43 563 382 405 305 
301 400 70 358 587 514 266 455 235 
286 123 354 430 376 276 264 511 580 
285 565 212 593 379 221 15 184 130 
421 476 534 471 549 359 518 388 335 
192 576 564 519 153 425 528 124 145 
453 296 442 315 281 78 179 583 466 
579 482 614 258 597 136 210 626 307 
533 234 177 448 551 441 566 340 638 
23 522 2 80 77 598 501 213 480 
633 41 48 485 191 535 209 332 180 
523 434 242 312 616 527 532 547 44 
422 490 259 365 284 245 545 228 473 
524 552 452 643 173 67 492 402 47 
283 120 574 573 517 628 101 39 224 
389 499 300 641 556 468 152 582 97 
131 540 596 623 600 584 525 37 513 
539 599 613 464 560 622 561 637 594 
611 494 550 391 624 249 277 19 172 
241 635 632 648 398 636 548 629 627 
558 603 618 530 644 585 554 617 557 
647 50 642 621 631 316 595 620 619 
607 646 586 639 640 581 541 578 3 
569 602 133 510 7 609 369 555 516 
590 537 608 610 568 630 625 269 531 
575 606 634 544 27 230 588 512 1 

type 1 648 int
1 1 1 1 1 1 1 1 2 
1 1 1 1 1 1 1 1 1 
1 1 1 1 1 1 1 1 1 
1 1 1 1 1 1 1 1 1 
1 1 1 1 1 1 1 1 1 
1 1 1 1 1 1 1 1 1 
1 1 1 1 1 1 1 1 1 
1 1 1 1 1 1 1 1 1 
1 1 1 1 1 1 1 1 1 
1 1 1 1 1 1 1 1 1 
1 1 1 1 1 1 1 1 1 
2 1 1 1 1 1 1 1 1 
1 1 1 1 1 1 1 1 1 
1 1 1 1 2 1 1 1 1 
1 2 1 1 1 1 1 1 1 
1 1 1 1 1 1 1 1 1 
1 1 1 1 1 1 1 1 1 
1 1 1 1 1 1 1 1 1 
1 1 1 1 1 1 1 1 1 
1 1 1 1 1 1 1 1 1 
1 1 1 1 1 1 1 1 1 
1 1 1 1 1 1 1 1 1 
1 1 1 1 1 1 1 1 1 
1 1 1 1 1 1 1 1 1 
1 1 1 1 1 1 1 1 1 
1 1 1 1 1 1 1 1 1 
1 1 1 1 1 1 1 1 1 
1 1 1 1 1 1 1 1 1 
1 1 1 1 1 1 1 2 1 
1 1 1 1 1 1 1 1 1 
1 1 1 1 1 1 1 1 1 
1 1 1 1 1 1 1 1 1 
1 1 1 1 1 1 1 1 1 
2 1 1 1 2 1 1 1 1 
1 1 1 1 1 1 1 1 1 
1 1 1 1 1 1 1 1 1 
1 1 1 1 1 2 2 1 1 
1 1 1 1 1 1 1 2 1 
1 1 1 1 1 1 1 1 1 
1 1 1 1 1 1 1 1 1 
1 2 1 1 1 1 1 1 1 
1 1 1 1 1 1 1 1 1 
1 1 1 1 1 1 1 1 1 
1 1 1 1 1 1 1 1 1 
1 1 1 1 1 1 1 1 1 
1 1 1 1 1 1 1 1 1 
1 1 1 1 1 1 1 1 1 
1 1 1 1 1 1 1 1 1 
1 1 1 1 1 1 1 1 1 
1 1 1 1 1 1 2 1 1 
1 1 1 1 1 1 1 1 1 
1 1 1 1 1 1 1 1 1 
1 1 1 1 1 1 1 1 1 
1 1 1 1 1 1 1 1 1 
1 1 1 1 1 1 1 1 1 
1 1 3 1 1 1 1 1 1 
1 1 1 1 1 1 1 1 1 
1 1 1 1 1 1 1 1 1 
1 1 1 1 1 1 1 1 1 
1 1 1 1 1 1 1 1 1 
1 1 1 1 1 1 1 1 1 
1 1 1 1 1 1 1 1 1 
1 1 1 1 1 1 1 1 1 
1 1 1 1 1 1 1 1 1 
1 1 1 1 1 1 1 1 1 
1 1 1 1 1 1 1 1 1 
1 1 1 1 1 1 1 1 1 
1 1 1 1 1 1 1 1 1 
1 1 1 1 1 1 1 1 2 
1 1 1 1 2 1 1 1 2 
1 1 1 1 1 1 1 1 1 
1 1 2 1 1 1 1 2 4 

i 3 648 int
0 0 0 0 0 0 0 0 0 
0 0 0 0 0 0 0 0 0 
0 0 0 0 0 0 0 0 0 
0 0 0 0 0 0 0 0 0 
0 0 0 0 0 0 0 0 0 
0 0 0 0 0 0 0 0 0 
0 0 0 0 0 0 0 0 0 
0 0 0 0 0 0 0 0 0 
0 0 0 0 0 0 0 0 0 
0 0 0 0 0 0 0 0 0 
0 0 0 0 0 0 0 0 0 
0 0 0 0 0 0 0 0 0 
0 0 0 0 0 0 0 0 0 
0 0 0 0 0 0 0 0 0 
0 0 0 0 0 0 0 0 0 
0 0 0 0 0 0 0 0 0 
0 0 0 0 0 0 0 0 0 
0 0 0 0 0 0 0 0 0 
0 0 0 0 0 0 0 0 0 
0 0 0 0 0 0 0 0 0 
0 0 0 0 0 0 0 0 0 
0 0 0 0 0 0 0 0 0 
0 0 0 0 0 0 0 0 0 
0 0 0 0 0 0 0 0 0 
0 0 0 0 0 0 0 0 0 
0 0 0 0 0 0 0 0 0 
0 0 0 0 0 0 0 0 0 
0 0 0 0 0 0 0 0 0 
0 0 0 0 0 0 0 0 0 
0 0 0 0 0 0 0 0 0 
0 0 0 0 0 0 0 0 0 
0 0 0 0 0 0 0 0 0 
0 0 0 0 0 0 0 0 0 
0 0 0 0 0 0 0 0 0 
0 0 0 0 0 0 0 0 0 
0 0 0 0 0 0 0 0 0 
0 0 0 0 0 0 0 0 0 
0 0 0 0 0 0 0 0 0 
0 0 0 0 0 0 0 0 0 
0 0 0 0 0 0 0 0 0 
0 0 0 0 0 0 0 0 0 
0 0 0 0 0 0 0 0 0 
0 0 0 0 0 0 0 0 0 
0 0 0 0 0 0 0 0 0 
0 0 0 0 0 0 0 0 0 
0 0 0 0 0 0 0 0 0 
0 0 0 0 0 0 0 0 0 
0 0 0 0 0 0 0 0 0 
0 0 0 0 0 0 0 0 0 
0 0 0 0 0 0 0 0 0 
0 0 0 0 0 0 0 0 0 
0 0 0 0 0 0 0 0 0 
0 0 0 0 0 0 0 0 0 
0 0 0 0 0 0 0 0 0 
0 0 0 0 0 0 0 0 0 
0 0 0 0 0 0 0 0 0 
0 0 0 0 0 0 0 0 0 
0 0 0 0 0 0 0 0 0 
0 0 0 0 0 0 0 0 0 
0 0 0 0 0 0 0 0 0 
0 0 0 0 0 0 0 0 0 
0 0 0 0 0 0 0 0 0 
0 0 0 0 0 0 0 0 0 
0 0 0 0 0 0 0 0 0 
0 0 0 0 0 0 0 0 0 
0 0 0 0 0 0 0 0 0 
0 0 0 0 0 0 0 0 0 
0 0 0 0 0 0 0 0 0 
0 0 0 0 0 0 0 0 0 
0 0 0 0 0 0 0 0 0 
0 0 0 0 0 0 0 0 0 
0 0 0 0 0 0 0 0 0 
0 0 0 0 0 0 0 0 0 
0 0 0 0 0 0 0 0 0 
0 0 0 0 0 0 0 0 0 
0 0 0 0 0 0 0 0 0 
0 0 0 0 0 0 0 0 0 
0 0 0 0 0 0 0 0 0 
0 0 0 0 0 0 0 0 0 
0 0 0 0 0 0 0 0 0 
0 0 0 0 0 0 0 0 0 
0 0 0 0 0 0 0 0 0 
0 0 0 0 0 0 0 0 0 
0 0 0 0 0 0 0 0 0 
0 0 0 0 0 0 0 0 0 
0 0 0 0 0 0 0 0 0 
0 0 0 0 0 0 0 0 0 
0 0 0 0 0 0 0 0 0 
0 0 0 0 0 0 0 0 0 
0 0 0 0 0 0 0 0 0 
0 0 0 0 0 0 0 0 0 
0 0 0 0 0 0 0 0 0 
0 0 0 0 0 0 0 0 0 
0 0 0 0 0 0 0 0 0 
0 0 0 0 0 0 0 0 0 
0 0 0 0 0 0 0 0 0 
0 0 0 0 0 0 0 0 0 
0 0 0 0 0 0 0 0 0 
0 0 0 0 0 0 0 0 0 
0 0 0 0 0 0 0 0 0 
0 0 0 0 0 0 0 0 0 
0 0 0 0 0 0 0 0 0 
0 0 0 0 0 0 0 0 0 
0 0 0 0 0 0 0 0 0 
0 0 0 0 0 0 0 0 0 
0 0 0 0 0 0 0 0 0 
0 0 0 0 0 0 0 0 0 
0 0 0 0 0 0 0 0 0 
0 0 0 0 0 0 0 0 0 
0 0 0 0 0 0 0 0 0 
0 0 0 0 0 0 0 0 0 
0 0 0 0 0 0 0 0 0 
0 0 0 0 0 0 0 0 0 
0 0 0 0 0 0 0 0 0 
0 0 0 0 0 0 0 0 0 
0 0 0 0 0 0 0 0 0 
0 0 0 0 0 0 0 0 0 
0 0 0 0 0 0 0 0 0 
0 0 0 0 0 0 0 0 0 
0 0 0 0 0 0 0 0 0 
0 0 0 0 0 0 0 0 0 
0 0 0 0 0 0 0 0 0 
0 0 0 0 0 0 0 0 0 
0 0 0 0 0 0 0 0 0 
0 0 0 0 0 0 0 0 0 
0 0 0 0 0 0 0 0 0 
0 0 0 0 0 0 0 0 0 
0 0 0 0 0 0 0 0 0 
0 0 0 0 0 0 0 0 0 
0 0 0 0 0 0 0 0 0 
0 0 0 0 0 0 0 0 0 
0 0 0 0 0 0 0 0 0 
0 0 0 0 0 0 0 0 0 
0 0 0 0 0 0 0 0 0 
0 0 0 0 0 0 0 0 0 
0 0 0 0 0 0 0 0 0 
0 0 0 0 0 0 0 0 0 
0 0 0 0 0 0 0 0 0 
0 0 0 0 0 0 0 0 0 
0 0 0 0 0 0 0 0 0 
0 0 0 0 0 0 0 0 0 
0 0 0 0 0 0 0 0 0 
0 0 0 0 0 0 0 0 0 
0 0 0 0 0 0 0 0 0 
0 0 0 0 0 0 0 0 0 
0 0 0 0 0 0 0 0 0 
0 0 0 0 0 0 0 0 0 
0 0 0 0 0 0 0 0 0 
0 0 0 0 0 0 0 0 0 
0 0 0 0 0 0 0 0 0 
0 0 0 0 0 0 0 0 0 
0 0 0 0 0 0 0 0 0 
0 0 0 0 0 0 0 0 0 
0 0 0 0 0 0 0 0 0 
0 0 0 0 0 0 0 0 0 
0 0 0 0 0 0 0 0 0 
0 0 0 0 0 0 0 0 0 
0 0 0 0 0 0 0 0 0 
0 0 0 0 0 0 0 0 0 
0 0 0 0 0 0 0 0 0 
0 0 0 0 0 0 0 0 0 
0 0 0 0 0 0 0 0 0 
0 0 0 0 0 0 0 0 0 
0 0 0 0 0 0 0 0 0 
0 0 0 0 0 0 0 0 0 
0 0 0 0 0 0 0 0 0 
0 0 0 0 0 0 0 0 0 
0 0 0 0 0 0 0 0 0 
0 0 0 0 0 0 0 0 0 
0 0 0 0 0 0 0 0 0 
0 0 0 0 0 0 0 0 0 
0 0 0 0 0 0 0 0 0 
0 0 0 0 0 0 0 0 0 
0 0 0 0 0 0 0 0 0 
0 0 0 0 0 0 0 0 0 
0 0 0 0 0 0 0 0 0 
0 0 0 0 0 0 0 0 0 
0 0 0 0 0 0 0 0 0 
0 0 0 0 0 0 0 0 0 
0 0 0 0 0 0 0 0 0 
0 0 0 0 0 0 0 0 0 
0 0 0 0 0 0 0 0 0 
0 0 0 0 0 0 0 0 0 
0 0 0 0 0 0 0 0 0 
0 0 0 0 0 0 0 0 0 
0 0 0 0 0 0 0 0 0 
0 0 0 0 0 0 0 0 0 
0 0 0 0 0 0 0 0 0 
0 0 0 0 0 0 0 0 0 
0 0 0 0 0 0 0 0 0 
0 0 0 0 0 0 0 0 0 
0 0 0 0 0 0 0 0 0 
0 0 0 0 0 0 0 0 0 
0 0 0 0 0 0 0 0 0 
0 0 0 0 0 0 0 0 0 
0 0 0 0 0 0 0 0 0 
0 0 0 0 0 0 0 0 0 
0 0 0 0 0 0 0 0 0 
0 0 0 0 0 0 0 0 0 
0 0 0 0 0 0 0 0 0 
0 0 0 0 0 0 0 0 0 
0 0 0 0 0 0 0 0 0 
0 0 0 0 0 0 0 0 0 
0 0 0 0 0 0 0 0 0 
0 0 0 0 0 0 0 0 0 
0 0 0 0 0 0 0 0 0 
0 0 0 0 0 0 0 0 0 
0 0 0 0 0 0 0 0 0 
0 0 0 0 0 0 0 0 0 
0 0 0 0 0 0 0 0 0 
0 0 0 0 0 0 0 0 0 
0 0 0 0 0 0 0 0 0 
0 0 0 0 0 0 0 0 0 
0 0 0 0 0 0 0 0 0 
0 0 0 0 0 0 0 0 0 
0 0 0 0 0 0 0 0 0 

v 3 648 double
0 0 7.0768395488e-05 0 0 0.069645151421 0 0 0.072213069888 
0 0 0.007831246862 0 0 -0.012170879794 0 0 -0.076739618501 
0 0 3.2413286006e-14 0 0 0.084170540535 0 0 0.10472843144 
0 0 0.014538506487 0 0 -0.0051633525054 0 0 -0.0017136789197 
0 0 0.0062143919611 0 0 0.022536615811 0 0 0.015347282659 
0 0 -0.017400284371 0 0 -0.0065233192003 0 0 0.084354151459 
0 0 0.0010767620427 0 0 0.066977349749 0 0 0.0092657264888 
0 0 8.0432443644e-14 0 0 0.016357827872 0 0 -1.560588404e-14 
0 0 0.017044220393 0 0 0.027674106861 0 0 -0.012553396893 
0 0 -0.010653424437 0 0 -0.0060216990044 0 0 0.02437442697 
0 0 -0.02632640055 0 0 -0.0077477740058 0 0 0.065257279888 
0 0 -0.015689016353 0 0 0.058534484918 0 0 0.020744293861 
0 0 0.07380451452 0 0 0.023049637411 0 0 0.0043551109898 
0 0 0.0021764085815 0 0 -0.010745796307 0 0 0.0065116400594 
0 0 0.078640269555 0 0 -0.020098770084 0 0 -0.0044723230239 
0 0 0.07161610641 0 0 -0.015353419042 0 0 0.00098126778841 
0 0 -0.0054304682116 0 0 0.083469309035 0 0 -0.017083343123 
0 0 -0.0067599871333 0 0 0.025394686941 0 0 0.020117036153 
0 0 0.021734992708 0 0 0.087856228303 0 0 0.0098110705874 
0 0 0.0069772394594 0 0 0.07345492809 0 0 0.064791222153 
0 0 0.046795980054 0 0 -0.047925147339 0 0 -0.05762700175 
0 0 0.050792975372 0 0 -0.22856065696 0 0 0.067872875515 
0 0 0.063788293338 0 0 0.014051171126 0 0 -0.025771442358 
0 0 0.078299294232 0 0 -0.024294104509 0 0 -0.046683082497 
0 0 -0.015224570527 0 0 0.05542249911 0 0 0.051375056047 
0 0 -0.01166807982 0 0 0.070135204494 0 0 -0.047294483322 
0 0 0.067923561869 0 0 -0.20304654627 0 0 -0.024625405953 
0 0 0.049707983909 0 0 -0.044601375406 0 0 -0.16625158347 
0 0 -0.049047715687 0 0 -0.049629041954 0 0 -0.22405226256 
0 0 -0.015292476759 0 0 -0.058930069744 0 0 0.059765035544 
0 0 0.048194857904 0 0 0.074497876833 0 0 -0.056477755331 
0 0 -0.049350763653 0 0 0.045802086252 0 0 -0.23314142852 
0 0 -0.062578711793 0 0 0.063320636774 0 0 0.0089296852411 
0 0 0.089038500818 0 0 0.05307595123 0 0 0.081383037503 
0 0 0.058157092086 0 0 -0.0023527079764 0 0 -0.051617107743 
0 0 -0.23246906924 0 0 0.05635085035 0 0 -0.061064812326 
0 0 0.025089609235 0 0 -0.061408861711 0 0 -0.22508199868 
0 0 -0.050864428402 0 0 0.054692810318 0 0 -0.062654324584 
0 0 -0.048472680157 0 0 -0.067462615517 0 0 -0.035590668718 
0 0 0.06952889308 0 0 -0.2295958181 0 0 -0.20802144194 
0 0 -0.058496607487 0 0 -0.24222746025 0 0 0.051969064347 
0 0 -0.058175753309 0 0 -0.062350641759 0 0 -0.0010388404779 
0 0 -0.22643907411 0 0 0.10401289638 0 0 0.065082833008 
0 0 0.049043009849 0 0 -0.0046763074052 0 0 -0.22986012013 
0 0 0.030553049969 0 0 -0.032807717187 0 0 0.064969295437 
0 0 0.062711693397 0 0 0.077143749591 0 0 0.043780484967 
0 0 -0.053928769498 0 0 0.074825524216 0 0 -0.22762583474 
0 0 0.04087083778 0 0 0.041366715348 0 0 0.07926340488 
0 0 0.023422434677 0 0 0.029946510555 0 0 -0.22417234087 
0 0 0.030015282255 0 0 0.050298917641 0 0 -0.05907670679 
0 0 0.072518408036 0 0 -0.051203794593 0 0 -0.03467118141 
0 0 0.058218795331 0 0 0.058844598532 0 0 -0.0083602392971 
0 0 -0.040942788718 0 0 -0.056733240797 0 0 -0.037702199235 
0 0 -0.20576222853 0 0 -0.0250551568 0 0 0.033005219715 
0 0 0.049903501774 0 0 -0.023292966962 0 0 0.05687089873 
0 0 0.064147307004 0 0 0.079358463401 0 0 0.057353940791 
0 0 -0.051681450834 0 0 -0.22780507243 0 0 -0.0074741526975 
0 0 0.044218134184 0 0 -0.021933880699 0 0 0.070925109674 
0 0 0.035279744499 0 0 -0.054657760385 0 0 0.045762391393 
0 0 0.070990585369 0 0 0.067504701871 0 0 -0.039047711891 
0 0 -0.04344044806 0 0 -0.20864625239 0 0 0.055437928327 
0 0 0.062954889365 0 0 0.05165488118 0 0 0.069599330393 
0 0 -0.042235546408 0 0 0.092740589953 0 0 0.078172606817 
0 0 0.038115602921 0 0 0.025938245459 0 0 -0.19039610807 
0 0 0.090877700139 0 0 0.00076147755686 0 0 -0.20079193312 
0 0 -0.031921614161 0 0 -0.01011671518 0 0 -0.017784662786 
0 0 -0.050210048849 0 0 0.061007354747 0 0 0.003857238906 
0 0 0.069968474822 0 0 0.04216505149 0 0 -0.0572297621 
0 0 0.027223446738 0 0 0.059059793623 0 0 0.044370642619 
0 0 -0.20810138516 0 0 -0.0096968713863 0 0 -0.020548364737 
0 0 0.055940727161 0 0 0.024453048496 0 0 0.026752027606 
0 0 -0.069437478907 0 0 0.050791728153 0 0 -0.045717693208 
0 0 -0.0093464355264 0 0 0.036437290857 0 0 -0.20093439189 
0 0 -0.22608173209 0 0 0.030381293547 0 0 0.053628688839 
0 0 -0.20257901791 0 0 -0.014428262995 0 0 0.03341135372 
0 0 -0.0033834680181 0 0 -0.22327333674 0 0 0.00044583456976 
0 0 -0.0053747670272 0 0 -0.19123970905 0 0 0.050049474095 
0 0 0.026246140435 0 0 -0.19522929856 0 0 0.00044691272743 
0 0 0.04903169229 0 0 0.033314689016 0 0 -0.22130403963 
0 0 -0.19788936967 0 0 -0.039173942032 0 0 0.0019045654236 
0 0 0.025344410211 0 0 -0.010265233085 0 0 0.041986896875 
0 0 0.014393118041 0 0 0.0072838331987 0 0 -0.027502756737 
0 0 -0.19696588642 0 0 -0.0087795102857 0 0 0.027299424765 
0 0 0.006733347328 0 0 -0.034931045252 0 0 -0.19739134812 
0 0 0.012719931999 0 0 0.045244670991 0 0 -0.19644567877 
0 0 -0.013811646689 0 0 0.04782195726 0 0 -0.14997195549 
0 0 -0.026917963653 0 0 0.068664481106 0 0 0.031980059059 
0 0 -0.021003917564 0 0 -0.025563423962 0 0 0.021801876384 
0 0 0.01049976317 0 0 -0.0063095221867 0 0 0.038190915485 
0 0 0.044795164688 0 0 -0.025085149801 0 0 -0.21851148976 
0 0 -0.022018100239 0 0 0.04136816983 0 0 -0.027167148768 
0 0 0.037541374589 0 0 -0.21584494869 0 0 0.028111606165 
0 0 -0.012874692893 0 0 -0.0050319544208 0 0 -0.035232517625 
0 0 -0.19135644951 0 0 -0.17013504851 0 0 -0.22248903925 
0 0 0.032271149136 0 0 -0.20383588688 0 0 -0.037499670618 
0 0 -0.0098306844974 0 0 -0.007538737024 0 0 0.0055749063617 
0 0 -0.2221596747 0 0 -0.21504410745 0 0 0.0059847227686 
0 0 -0.014408701107 0 0 0.031604119834 0 0 -0.1977583969 
0 0 -0.0092994436033 0 0 0.036184317653 0 0 -0.19940612047 
0 0 0.048555579303 0 0 -0.019381190975 0 0 0.018983654956 
0 0 0.023132909259 0 0 0.071475187181 0 0 0.022464040791 
0 0 0.015405666698 0 0 0.021015738163 0 0 0.028682523871 
0 0 -0.00075619074962 0 0 0.037505507488 0 0 -0.22119651495 
0 0 0.037514724115 0 0 -0.042250745643 0 0 -0.012932270189 
0 0 -0.0069322061403 0 0 -0.22292574664 0 0 0.0032634382688 
0 0 -0.017859533024 0 0 0.04481098013 0 0 0.026412667267 
0 0 -0.19867992494 0 0 -0.21197666718 0 0 -0.144799268 
0 0 -0.15684429944 0 0 -0.21921151628 0 0 -0.19473354336 
0 0 -0.19053427179 0 0 -0.20731291854 0 0 -0.18936003003 
0 0 -0.21451958651 0 0 -0.21229175063 0 0 -0.0026313906706 
0 0 0.026404877284 0 0 -0.21259293182 0 0 -0.13819536676 
0 0 -0.20736070025 0 0 -0.1827750839 0 0 -0.19505695368 
0 0 -0.1903330828 0 0 -0.18952993373 0 0 -0.18791274393 
0 0 -0.20840714543 0 0 0.031602034834 0 0 -0.20774388158 
0 0 -0.21203934712 0 0 -0.20316496139 0 0 -0.20654230482 
0 0 -0.20000609458 0 0 -0.1832072106 0 0 -0.18083288943 
0 0 -0.12635767597 0 0 -0.20179235652 0 0 -0.17814042661 
0 0 -0.20409164539 0 0 -0.21099589935 0 0 -0.13581109945 
0 0 -0.20572621218 0 0 -0.12811427805 0 0 -0.20566349011 
0 0 -0.20224003223 0 0 -0.2013910269 0 0 -0.19991976886 
0 0 -0.20613890913 0 0 -0.22614241923 0 0 -0.1757615352 
0 0 -0.20330208304 0 0 -0.20773338832 0 0 -0.17996980519 
0 0 -0.18927136609 0 0 -0.20322303245 0 0 -0.20522871506 
0 0 -0.18030236799 0 0 -0.17394064254 0 0 -0.18965452157 
0 0 -0.20787923818 0 0 -0.17950440739 0 0 -0.19509886666 
0 0 -0.19084209605 0 0 -0.14853586754 0 0 -0.18876716595 
0 0 -0.12973985078 0 0 -0.20025402813 0 0 -0.17746436449 
0 0 -0.10691604671 0 0 -0.19717878109 0 0 -0.19940739388 
0 0 -0.19966773487 0 0 -0.1976253368 0 0 -0.1901395208 
0 0 -0.18975202842 0 0 -0.19758898542 0 0 -0.20151070859 
0 0 -0.19755879181 0 0 -0.16602884869 0 0 -0.18986196514 
0 0 -0.19715450599 0 0 -0.19334131025 0 0 -0.19279191213 
0 0 -0.19735892561 0 0 -0.19947815616 0 0 -0.19658119833 
0 0 -0.17665468341 0 0 -0.16600280123 0 0 -0.20327873409 
0 0 -0.19120575893 0 0 -0.193819981 0 0 -0.17182056886 
0 0 -0.19642736851 0 0 -0.16520536167 0 0 -0.18795327784 
0 0 -0.17150769878 0 0 -0.18235984971 0 0 -0.19422775312 
0 0 -0.18267515052 0 0 -0.094287539651 0 0 -0.18684796142 
0 0 -0.16212433356 0 0 -0.15189216267 0 0 -0.16297136086 
0 0 -0.18472662011 0 0 -0.1845374987 0 0 -0.12754592984 
0 0 -0.15872344893 0 0 -0.1841324031 0 0 -0.18527621208 
0 0 -0.18557835267 0 0 -0.15998688353 0 0 -0.18135862319 
0 0 -0.16999872751 0 0 -0.1371924821 0 0 -0.13519393257 
0 0 -0.18617885723 0 0 -0.1854705178 0 0 -0.16148862291 
0 0 -0.18817381863 0 0 -0.19035222795 0 0 -0.17257468063 
0 0 -0.1768650221 0 0 -0.17176150118 0 0 -0.17358509143 
0 0 -0.15476688972 0 0 -0.16481174915 0 0 -0.12993482474 
0 0 -0.17816701034 0 0 -0.11527132744 0 0 -0.17377054693 
0 0 -0.085987051148 0 0 -0.184729098 0 0 -0.17481327724 
0 0 -0.20407573557 0 0 -0.15214150367 0 0 -0.17639445833 
0 0 -0.18098251361 0 0 -0.17524970704 0 0 -0.097818117329 
0 0 -0.17224228904 0 0 -0.13554584636 0 0 -0.16638634724 
0 0 -0.13528231702 0 0 -0.15460043405 0 0 -0.17330724251 
0 0 -0.15257764598 0 0 -0.12164088818 0 0 -0.12306325445 
0 0 -0.16009304372 0 0 -0.16855571844 0 0 -0.17908436001 
0 0 -0.13968144168 0 0 -0.17174648969 0 0 -0.16123051105 
0 0 -0.16529984043 0 0 -0.17019137772 0 0 -0.16687383081 
0 0 -0.16917855304 0 0 -0.17514513339 0 0 -0.18571138426 
0 0 -0.1714595381 0 0 -0.07782690394 0 0 -0.16747202401 
0 0 -0.089107943386 0 0 -0.16904885419 0 0 -0.069212449851 
0 0 -0.15992874867 0 0 -0.062169524325 0 0 -0.15946004734 
0 0 -0.16270298518 0 0 -0.031040849543 0 0 -0.15365765047 
0 0 -0.12170884454 0 0 -0.15178217818 0 0 -0.15780113001 
0 0 -0.16862351346 0 0 -0.12074556195 0 0 -0.15456648518 
0 0 -0.11875597048 0 0 -0.16259294638 0 0 -0.085980831517 
0 0 -0.15743033198 0 0 -0.14543722436 0 0 -0.20480553495 
0 0 -0.15607640673 0 0 -0.16492074379 0 0 -0.060400068627 
0 0 -0.15667911484 0 0 -0.17452577164 0 0 -0.16382741457 
0 0 -0.056486434488 0 0 -0.15794890707 0 0 -0.15171906641 
0 0 -0.15164557642 0 0 -0.15682302991 0 0 -0.076954334765 
0 0 -0.15304596597 0 0 -0.16147593984 0 0 -0.1638967928 
0 0 -0.13410073413 0 0 -0.15482143553 0 0 -0.14331264035 
0 0 -0.14883034353 0 0 -0.076885010909 0 0 -0.11137207645 
0 0 -0.10839342236 0 0 -0.11241421093 0 0 -0.14681862109 
0 0 -0.14396568205 0 0 -0.14757908905 0 0 -0.14064773935 
0 0 -0.14204512049 0 0 -0.15006629927 0 0 -0.1497808109 
0 0 -0.10800060874 0 0 -0.14902705731 0 0 -0.14691460402 
0 0 -0.12705723441 0 0 -0.065506005576 0 0 -0.14842371959 
0 0 0.023861188889 0 0 -0.1325509973 0 0 -0.1300101263 
0 0 -0.13431400912 0 0 -0.14335866539 0 0 -0.14531880273 
0 0 -0.13660092809 0 0 -0.14119881465 0 0 -0.016305201854 
0 0 -0.074036268595 0 0 -0.10974352971 0 0 -0.047568193807 
0 0 -0.13880014502 0 0 -0.13666317549 0 0 -0.13376734607 
0 0 -0.14075156453 0 0 -0.14525433886 0 0 -0.14683381412 
0 0 0.081477423977 0 0 -0.043635072405 0 0 -0.1406569022 
0 0 -0.13809976986 0 0 0.014297732835 0 0 -0.13962933005 
0 0 -0.14188189572 0 0 -0.10309172902 0 0 -0.075271657685 
0 0 -0.057798234328 0 0 0.010961375854 0 0 0.021442773229 
0 0 -0.10270165313 0 0 -0.12878191023 0 0 -0.10688952776 
0 0 -0.078341641804 0 0 -0.04373745611 0 0 -0.057509748465 
0 0 -0.13162228699 0 0 -0.05985705742 0 0 -0.031471372687 
0 0 -0.069983131516 0 0 -0.032637073937 0 0 -0.053197355095 
0 0 0.013969162706 0 0 -0.13367858233 0 0 -0.076889355855 
0 0 -0.13256489661 0 0 0.046981964691 0 0 -0.13000944697 
0 0 -0.1280855279 0 0 -0.12781188572 0 0 -0.13196391918 
0 0 -0.11824603492 0 0 0.0035597647388 0 0 0.058265334539 
0 0 0.051221366631 0 0 -0.12867452226 0 0 0.096349969732 
0 0 -0.061858399255 0 0 0.01369048616 0 0 0.098632382994 
0 0 -0.068684412947 0 0 -0.00058081580013 0 0 -0.033235654654 
0 0 -0.075710856983 0 0 0.074997659048 0 0 -0.037206336828 
0 0 -0.040663234988 0 0 -0.031139114685 0 0 -0.063995897185 
0 0 0.051065648166 0 0 -0.14354882612 0 0 0.11570151278 
0 0 0.10010056041 0 0 0.083067767997 0 0 -0.13770159686 
0 0 -0.013898576885 0 0 0.0088208261991 0 0 0.065334419107 
0 0 -0.007642113467 0 0 0.075579621687 0 0 -0.032577143299 
0 0 0.0037671593959 0 0 0.12780439355 0 0 -0.011839244596 
0 0 -0.024398127415 0 0 -0.018830248159 0 0 -0.13590840783 
0 0 -0.01805426272 0 0 0.068282924343 0 0 -0.11946865492 
0 0 -0.084219057433 0 0 -0.1347158538 0 0 0.048040170795 
0 0 -0.1140754545 0 0 -0.016358277866 0 0 -0.10581109518 
0 0 0.0059527632216 0 0 -0.026665710363 0 0 0.053243272412 
0 0 0.036668762055 0 0 0.032352599137 0 0 0.066811951528 
0 0 0.03813354909 0 0 -0.11400732405 0 0 -0.032300315368 
0 0 0.012034024641 0 0 0.064159462528 0 0 0.046959239072 
0 0 0.0068063385601 0 0 -0.10550914059 0 0 -0.10212033896 
0 0 0.081367171325 0 0 -0.035695860084 0 0 -0.084745045784 

f 3 648 double
0 0 -1.7425367252e-10 0 0 -1.7425367252e-10 0 0 -1.7425367252e-10 
0 0 -1.7425367252e-10 0 0 -1.7425367252e-10 0 0 -1.7425367252e-10 
0 0 0 0 0 -1.7425367252e-10 0 0 -8.9019973083e-09 
0 0 -1.7425367252e-10 0 0 -1.7425367252e-10 0 0 -1.7425367252e-10 
0 0 -1.7425367252e-10 0 0 -1.7425367252e-10 0 0 -1.7425367252e-10 
0 0 -1.7425367252e-10 0 0 -1.7425367252e-10 0 0 -1.7425367252e-10 
0 0 -1.7425367252e-10 0 0 -1.7425367252e-10 0 0 -1.7425367252e-10 
0 0 0 0 0 -1.7425367252e-10 0 0 0 
0 0 -1.7425367252e-10 0 0 -1.7425367252e-10 0 0 -1.7425367252e-10 
0 0 -1.7425367252e-10 0 0 -1.7425367252e-10 0 0 -1.7425367252e-10 
0 0 -1.7425367252e-10 0 0 -1.7425367252e-10 0 0 -1.7425367252e-10 
0 0 -1.7425367252e-10 0 0 -1.7425367252e-10 0 0 -1.7425367252e-10 
0 0 -1.7425367252e-10 0 0 -1.7425367252e-10 0 0 -1.7425367252e-10 
0 0 -1.7425367252e-10 0 0 -1.7425367252e-10 0 0 -1.7425367252e-10 
0 0 -1.7425367252e-10 0 0 -1.7425367252e-10 0 0 -1.7425367252e-10 
0 0 -1.7425367252e-10 0 0 -1.7425367252e-10 0 0 -1.7425367252e-10 
0 0 -1.7425367252e-10 0 0 -1.7425367252e-10 0 0 -1.7425367252e-10 
0 0 -1.7425367252e-10 0 0 -1.7425367252e-10 0 0 -1.7425367252e-10 
0 0 -1.7425367252e-10 0 0 -1.7425367252e-10 0 0 -1.7425367252e-10 
0 0 -1.7425367252e-10 0 0 -1.7425367252e-10 0 0 -1.7425367252e-10 
0 0 -1.7425367252e-10 0 0 -1.7425367252e-10 0 0 -1.7425367252e-10 
0 0 -1.7425367252e-10 0 0 -1.7425367252e-10 0 0 -1.7425367252e-10 
0 0 -1.7425367252e-10 0 0 -1.7425367252e-10 0 0 -1.7425367252e-10 
0 0 -1.7425367252e-10 0 0 -1.7425367252e-10 0 0 -1.7425367252e-10 
0 0 -1.7425367252e-10 0 0 -1.7425367252e-10 0 0 -1.7425367252e-10 
0 0 -1.7425367252e-10 0 0 -1.7425367252e-10 0 0 -1.7425367252e-10 
0 0 -1.7425367252e-10 0 0 -1.7425367252e-10 0 0 -1.7425367252e-10 
0 0 -1.7425367252e-10 0 0 -1.7425367252e-10 0 0 -1.7425367252e-10 
0 0 -1.7425367252e-10 0 0 -1.7425367252e-10 0 0 -1.7425367252e-10 
0 0 -1.7425367252e-10 0 0 -1.7425367252e-10 0 0 -1.7425367252e-10 
0 0 -1.7425367252e-10 0 0 -1.7425367252e-10 0 0 -1.7425367252e-10 
0 0 -1.7425367252e-10 0 0 -1.7425367252e-10 0 0 -1.7425367252e-10 
0 0 -1.7425367252e-10 0 0 -1.7425367252e-10 0 0 -1.7425367252e-10 
0 0 -8.9019973083e-09 0 0 -1.7425367252e-10 0 0 -1.7425367252e-10 
0 0 -1.7425367252e-10 0 0 -1.7425367252e-10 0 0 -1.7425367252e-10 
0 0 -1.7425367252e-10 0 0 -1.7425367252e-10 0 0 -1.7425367252e-10 
0 0 -1.7425367252e-10 0 0 -1.7425367252e-10 0 0 -1.7425367252e-10 
0 0 -1.7425367252e-10 0 0 -1.7425367252e-10 0 0 -1.7425367252e-10 
0 0 -1.7425367252e-10 0 0 -1.7425367252e-10 0 0 -1.7425367252e-10 
0 0 -1.7425367252e-10 0 0 -1.7425367252e-10 0 0 -1.7425367252e-10 
0 0 -1.7425367252e-10 0 0 -8.9019973083e-09 0 0 -1.7425367252e-10 
0 0 -1.7425367252e-10 0 0 -1.7425367252e-10 0 0 -1.7425367252e-10 
0 0 -1.7425367252e-10 0 0 -8.9019973083e-09 0 0 -1.7425367252e-10 
0 0 -1.7425367252e-10 0 0 -1.7425367252e-10 0 0 -1.7425367252e-10 
0 0 -1.7425367252e-10 0 0 -1.7425367252e-10 0 0 -1.7425367252e-10 
0 0 -1.7425367252e-10 0 0 -1.7425367252e-10 0 0 -1.7425367252e-10 
0 0 -1.7425367252e-10 0 0 -1.7425367252e-10 0 0 -1.7425367252e-10 
0 0 -1.7425367252e-10 0 0 -1.7425367252e-10 0 0 -1.7425367252e-10 
0 0 -1.7425367252e-10 0 0 -1.7425367252e-10 0 0 -1.7425367252e-10 
0 0 -1.7425367252e-10 0 0 -1.7425367252e-10 0 0 -1.7425367252e-10 
0 0 -1.7425367252e-10 0 0 -1.7425367252e-10 0 0 -1.7425367252e-10 
0 0 -1.7425367252e-10 0 0 -1.7425367252e-10 0 0 -1.7425367252e-10 
0 0 -1.7425367252e-10 0 0 -1.7425367252e-10 0 0 -1.7425367252e-10 
0 0 -1.7425367252e-10 0 0 -1.7425367252e-10 0 0 -1.7425367252e-10 
0 0 -1.7425367252e-10 0 0 -1.7425367252e-10 0 0 -1.7425367252e-10 
0 0 -1.7425367252e-10 0 0 -1.7425367252e-10 0 0 -1.7425367252e-10 
0 0 -1.7425367252e-10 0 0 -1.7425367252e-10 0 0 -1.7425367252e-10 
0 0 -1.7425367252e-10 0 0 -1.7425367252e-10 0 0 -1.7425367252e-10 
0 0 -1.7425367252e-10 0 0 -1.7425367252e-10 0 0 -1.7425367252e-10 
0 0 -1.7425367252e-10 0 0 -1.7425367252e-10 0 0 -1.7425367252e-10 
0 0 -1.7425367252e-10 0 0 -1.7425367252e-10 0 0 -1.7425367252e-10 
0 0 -1.7425367252e-10 0 0 -1.7425367252e-10 0 0 -1.7425367252e-10 
0 0 -1.7425367252e-10 0 0 -1.7425367252e-10 0 0 -1.7425367252e-10 
0 0 -1.7425367252e-10 0 0 -1.7425367252e-10 0 0 -1.7425367252e-10 
0 0 -1.7425367252e-10 0 0 -1.7425367252e-10 0 0 -1.7425367252e-10 
0 0 -1.7425367252e-10 0 0 -1.7425367252e-10 0 0 -1.7425367252e-10 
0 0 -1.7425367252e-10 0 0 -1.7425367252e-10 0 0 -1.7425367252e-10 
0 0 -1.7425367252e-10 0 0 -1.7425367252e-10 0 0 -1.7425367252e-10 
0 0 -1.7425367252e-10 0 0 -1.7425367252e-10 0 0 -1.7425367252e-10 
0 0 -1.7425367252e-10 0 0 -1.7425367252e-10 0 0 -1.7425367252e-10 
0 0 -1.7425367252e-10 0 0 -1.7425367252e-10 0 0 -1.7425367252e-10 
0 0 -1.7425367252e-10 0 0 -1.7425367252e-10 0 0 -1.7425367252e-10 
0 0 -1.7425367252e-10 0 0 -1.7425367252e-10 0 0 -1.7425367252e-10 
0 0 -1.7425367252e-10 0 0 -1.7425367252e-10 0 0 -1.7425367252e-10 
0 0 -1.7425367252e-10 0 0 -1.7425367252e-10 0 0 -1.7425367252e-10 
0 0 -1.7425367252e-10 0 0 -1.7425367252e-10 0 0 -1.7425367252e-10 
0 0 -1.7425367252e-10 0 0 -1.7425367252e-10 0 0 -1.7425367252e-10 
0 0 -1.7425367252e-10 0 0 -1.7425367252e-10 0 0 -1.7425367252e-10 
0 0 -1.7425367252e-10 0 0 -1.7425367252e-10 0 0 -1.7425367252e-10 
0 0 -1.7425367252e-10 0 0 -1.7425367252e-10 0 0 -1.7425367252e-10 
0 0 -1.7425367252e-10 0 0 -1.7425367252e-10 0 0 -1.7425367252e-10 
0 0 -1.7425367252e-10 0 0 -1.7425367252e-10 0 0 -1.7425367252e-10 
0 0 -1.7425367252e-10 0 0 -1.7425367252e-10 0 0 -1.7425367252e-10 
0 0 -1.7425367252e-10 0 0 -1.7425367252e-10 0 0 -1.7425367252e-10 
0 0 -1.7425367252e-10 0 0 -1.7425367252e-10 0 0 -1.7425367252e-10 
0 0 -1.7425367252e-10 0 0 -1.7425367252e-10 0 0 -1.7425367252e-10 
0 0 -1.7425367252e-10 0 0 -8.9019973083e-09 0 0 -1.7425367252e-10 
0 0 -1.7425367252e-10 0 0 -1.7425367252e-10 0 0 -1.7425367252e-10 
0 0 -1.7425367252e-10 0 0 -1.7425367252e-10 0 0 -1.7425367252e-10 
0 0 -1.7425367252e-10 0 0 -1.7425367252e-10 0 0 -1.7425367252e-10 
0 0 -1.7425367252e-10 0 0 -1.7425367252e-10 0 0 -1.7425367252e-10 
0 0 -1.7425367252e-10 0 0 -1.7425367252e-10 0 0 -1.7425367252e-10 
0 0 -1.7425367252e-10 0 0 -1.7425367252e-10 0 0 -1.7425367252e-10 
0 0 -1.7425367252e-10 0 0 -1.7425367252e-10 0 0 -1.7425367252e-10 
0 0 -1.7425367252e-10 0 0 -1.7425367252e-10 0 0 -1.7425367252e-10 
0 0 -1.7425367252e-10 0 0 -1.7425367252e-10 0 0 -1.7425367252e-10 
0 0 -1.7425367252e-10 0 0 -1.7425367252e-10 0 0 -1.7425367252e-10 
0 0 -1.7425367252e-10 0 0 -1.7425367252e-10 0 0 -1.7425367252e-10 
0 0 -1.7425367252e-10 0 0 -1.7425367252e-10 0 0 -1.7425367252e-10 
0 0 -8.9019973083e-09 0 0 -1.7425367252e-10 0 0 -1.7425367252e-10 
0 0 -1.7425367252e-10 0 0 -8.9019973083e-09 0 0 -1.7425367252e-10 
0 0 -1.7425367252e-10 0 0 -1.7425367252e-10 0 0 -1.7425367252e-10 
0 0 -1.7425367252e-10 0 0 -1.7425367252e-10 0 0 -1.7425367252e-10 
0 0 -1.7425367252e-10 0 0 -1.7425367252e-10 0 0 -1.7425367252e-10 
0 0 -1.7425367252e-10 0 0 -1.7425367252e-10 0 0 -1.7425367252e-10 
0 0 -1.7425367252e-10 0 0 -1.7425367252e-10 0 0 -1.7425367252e-10 
0 0 -1.7425367252e-10 0 0 -1.7425367252e-10 0 0 -1.7425367252e-10 
0 0 -1.7425367252e-10 0 0 -1.7425367252e-10 0 0 -1.7425367252e-10 
0 0 -1.7425367252e-10 0 0 -1.7425367252e-10 0 0 -1.7425367252e-10 
0 0 -1.7425367252e-10 0 0 -1.7425367252e-10 0 0 -8.9019973083e-09 
0 0 -8.9019973083e-09 0 0 -1.7425367252e-10 0 0 -1.7425367252e-10 
0 0 -1.7425367252e-10 0 0 -1.7425367252e-10 0 0 -1.7425367252e-10 
0 0 -1.7425367252e-10 0 0 -1.7425367252e-10 0 0 -1.7425367252e-10 
0 0 -1.7425367252e-10 0 0 -8.9019973083e-09 0 0 -1.7425367252e-10 
0 0 -1.7425367252e-10 0 0 -1.7425367252e-10 0 0 -1.7425367252e-10 
0 0 -1.7425367252e-10 0 0 -1.7425367252e-10 0 0 -1.7425367252e-10 
0 0 -1.7425367252e-10 0 0 -1.7425367252e-10 0 0 -1.7425367252e-10 
0 0 -1.7425367252e-10 0 0 -1.7425367252e-10 0 0 -1.7425367252e-10 
0 0 -1.7425367252e-10 0 0 -1.7425367252e-10 0 0 -1.7425367252e-10 
0 0 -1.7425367252e-10 0 0 -1.7425367252e-10 0 0 -1.7425367252e-10 
0 0 -1.7425367252e-10 0 0 -8.9019973083e-09 0 0 -1.7425367252e-10 
0 0 -1.7425367252e-10 0 0 -1.7425367252e-10 0 0 -1.7425367252e-10 
0 0 -1.7425367252e-10 0 0 -1.7425367252e-10 0 0 -1.7425367252e-10 
0 0 -1.7425367252e-10 0 0 -1.7425367252e-10 0 0 -1.7425367252e-10 
0 0 -1.7425367252e-10 0 0 -1.7425367252e-10 0 0 -1.7425367252e-10 
0 0 -1.7425367252e-10 0 0 -1.7425367252e-10 0 0 -1.7425367252e-10 
0 0 -1.7425367252e-10 0 0 -1.7425367252e-10 0 0 -1.7425367252e-10 
0 0 -1.7425367252e-10 0 0 -1.7425367252e-10 0 0 -1.7425367252e-10 
0 0 -1.7425367252e-10 0 0 -1.7425367252e-10 0 0 -1.7425367252e-10 
0 0 -1.7425367252e-10 0 0 -1.7425367252e-10 0 0 -1.7425367252e-10 
0 0 -1.7425367252e-10 0 0 -1.7425367252e-10 0 0 -1.7425367252e-10 
0 0 -1.7425367252e-10 0 0 -1.7425367252e-10 0 0 -1.7425367252e-10 
0 0 -1.7425367252e-10 0 0 -1.7425367252e-10 0 0 -1.7425367252e-10 
0 0 -1.7425367252e-10 0 0 -1.7425367252e-10 0 0 -1.7425367252e-10 
0 0 -1.7425367252e-10 0 0 -1.7425367252e-10 0 0 -1.7425367252e-10 
0 0 -1.7425367252e-10 0 0 -1.7425367252e-10 0 0 -1.7425367252e-10 
0 0 -1.7425367252e-10 0 0 -1.7425367252e-10 0 0 -1.7425367252e-10 
0 0 -1.7425367252e-10 0 0 -1.7425367252e-10 0 0 -1.7425367252e-10 
0 0 -1.7425367252e-10 0 0 -1.7425367252e-10 0 0 -1.7425367252e-10 
0 0 -1.7425367252e-10 0 0 -1.7425367252e-10 0 0 -1.7425367252e-10 
0 0 -1.7425367252e-10 0 0 -1.7425367252e-10 0 0 -1.7425367252e-10 
0 0 -1.7425367252e-10 0 0 -1.7425367252e-10 0 0 -1.7425367252e-10 
0 0 -1.7425367252e-10 0 0 -1.7425367252e-10 0 0 -1.7425367252e-10 
0 0 -1.7425367252e-10 0 0 -1.7425367252e-10 0 0 -1.7425367252e-10 
0 0 -1.7425367252e-10 0 0 -1.7425367252e-10 0 0 -1.7425367252e-10 
0 0 -1.7425367252e-10 0 0 -1.7425367252e-10 0 0 -1.7425367252e-10 
0 0 -1.7425367252e-10 0 0 -1.7425367252e-10 0 0 -1.7425367252e-10 
0 0 -1.7425367252e-10 0 0 -1.7425367252e-10 0 0 -1.7425367252e-10 
0 0 -1.7425367252e-10 0 0 -1.7425367252e-10 0 0 -1.7425367252e-10 
0 0 -8.9019973083e-09 0 0 -1.7425367252e-10 0 0 -1.7425367252e-10 
0 0 -1.7425367252e-10 0 0 -1.7425367252e-10 0 0 -1.7425367252e-10 
0 0 -1.7425367252e-10 0 0 -1.7425367252e-10 0 0 -1.7425367252e-10 
0 0 -1.7425367252e-10 0 0 -1.7425367252e-10 0 0 -1.7425367252e-10 
0 0 -1.7425367252e-10 0 0 -1.7425367252e-10 0 0 -1.7425367252e-10 
0 0 -1.7425367252e-10 0 0 -1.7425367252e-10 0 0 -1.7425367252e-10 
0 0 -1.7425367252e-10 0 0 -1.7425367252e-10 0 0 -1.7425367252e-10 
0 0 -1.7425367252e-10 0 0 -1.7425367252e-10 0 0 -1.7425367252e-10 
0 0 -1.7425367252e-10 0 0 -1.7425367252e-10 0 0 -1.7425367252e-10 
0 0 -1.7425367252e-10 0 0 -1.7425367252e-10 0 0 -1.7425367252e-10 
0 0 -1.7425367252e-10 0 0 -1.7425367252e-10 0 0 -1.7425367252e-10 
0 0 -1.7425367252e-10 0 0 -1.7425367252e-10 0 0 -1.7425367252e-10 
0 0 -1.7425367252e-10 0 0 -1.7425367252e-10 0 0 -1.7425367252e-10 
0 0 -1.7425367252e-10 0 0 -1.7425367252e-10 0 0 -1.7425367252e-10 
0 0 -1.7425367252e-10 0 0 -1.7425367252e-10 0 0 -1.7425367252e-10 
0 0 -1.7425367252e-10 0 0 -1.7425367252e-10 0 0 -1.7425367252e-10 
0 0 -1.7425367252e-10 0 0 -1.7425367252e-10 0 0 -6.8918688838e-08 
0 0 -1.7425367252e-10 0 0 -1.7425367252e-10 0 0 -1.7425367252e-10 
0 0 -1.7425367252e-10 0 0 -1.7425367252e-10 0 0 -1.7425367252e-10 
0 0 -1.7425367252e-10 0 0 -1.7425367252e-10 0 0 -1.7425367252e-10 
0 0 -1.7425367252e-10 0 0 -1.7425367252e-10 0 0 -1.7425367252e-10 
0 0 -1.7425367252e-10 0 0 -1.7425367252e-10 0 0 -1.7425367252e-10 
0 0 -1.7425367252e-10 0 0 -1.7425367252e-10 0 0 -1.7425367252e-10 
0 0 -1.7425367252e-10 0 0 -1.7425367252e-10 0 0 -1.7425367252e-10 
0 0 -1.7425367252e-10 0 0 -1.7425367252e-10 0 0 -1.7425367252e-10 
0 0 -1.7425367252e-10 0 0 -1.7425367252e-10 0 0 -1.7425367252e-10 
0 0 -1.7425367252e-10 0 0 -1.7425367252e-10 0 0 -1.7425367252e-10 
0 0 -1.7425367252e-10 0 0 -1.7425367252e-10 0 0 -1.7425367252e-10 
0 0 -1.7425367252e-10 0 0 -1.7425367252e-10 0 0 -1.7425367252e-10 
0 0 -1.7425367252e-10 0 0 -1.7425367252e-10 0 0 -1.7425367252e-10 
0 0 -1.7425367252e-10 0 0 -1.7425367252e-10 0 0 -1.7425367252e-10 
0 0 -1.7425367252e-10 0 0 -1.7425367252e-10 0 0 -1.7425367252e-10 
0 0 -1.7425367252e-10 0 0 -1.7425367252e-10 0 0 -1.7425367252e-10 
0 0 -1.7425367252e-10 0 0 -1.7425367252e-10 0 0 -1.7425367252e-10 
0 0 -1.7425367252e-10 0 0 -1.7425367252e-10 0 0 -1.7425367252e-10 
0 0 -1.7425367252e-10 0 0 -1.7425367252e-10 0 0 -1.7425367252e-10 
0 0 -1.7425367252e-10 0 0 -1.7425367252e-10 0 0 -1.7425367252e-10 
0 0 -1.7425367252e-10 0 0 -1.7425367252e-10 0 0 -1.7425367252e-10 
0 0 -1.7425367252e-10 0 0 -1.7425367252e-10 0 0 -1.7425367252e-10 
0 0 -1.7425367252e-10 0 0 -1.7425367252e-10 0 0 -1.7425367252e-10 
0 0 -1.7425367252e-10 0 0 -1.7425367252e-10 0 0 -1.7425367252e-10 
0 0 -1.7425367252e-10 0 0 -1.7425367252e-10 0 0 -1.7425367252e-10 
0 0 -1.7425367252e-10 0 0 -1.7425367252e-10 0 0 -1.7425367252e-10 
0 0 -1.7425367252e-10 0 0 -1.7425367252e-10 0 0 -1.7425367252e-10 
0 0 -1.7425367252e-10 0 0 -1.7425367252e-10 0 0 -1.7425367252e-10 
0 0 -1.7425367252e-10 0 0 -1.7425367252e-10 0 0 -1.7425367252e-10 
0 0 -1.7425367252e-10 0 0 -1.7425367252e-10 0 0 -1.7425367252e-10 
0 0 -1.7425367252e-10 0 0 -1.7425367252e-10 0 0 -1.7425367252e-10 
0 0 -1.7425367252e-10 0 0 -1.7425367252e-10 0 0 -1.7425367252e-10 
0 0 -1.7425367252e-10 0 0 -1.7425367252e-10 0 0 -1.7425367252e-10 
0 0 -1.7425367252e-10 0 0 -1.7425367252e-10 0 0 -1.7425367252e-10 
0 0 -1.7425367252e-10 0 0 -1.7425367252e-10 0 0 -1.7425367252e-10 
0 0 -1.7425367252e-10 0 0 -1.7425367252e-10 0 0 -1.7425367252e-10 
0 0 -1.7425367252e-10 0 0 -1.7425367252e-10 0 0 -1.7425367252e-10 
0 0 -1.7425367252e-10 0 0 -1.7425367252e-10 0 0 -1.7425367252e-10 
0 0 -1.7425367252e-10 0 0 -1.7425367252e-10 0 0 -1.7425367252e-10 
0 0 -1.7425367252e-10 0 0 -1.7425367252e-10 0 0 -1.7425367252e-10 
0 0 -1.7425367252e-10 0 0 -1.7425367252e-10 0 0 -8.9019973083e-09 
0 0 -1.7425367252e-10 0 0 -1.7425367252e-10 0 0 -1.7425367252e-10 
0 0 -1.7425367252e-10 0 0 -8.9019973083e-09 0 0 -1.7425367252e-10 
0 0 -1.7425367252e-10 0 0 -1.7425367252e-10 0 0 -8.9019973083e-09 
0 0 -1.7425367252e-10 0 0 -1.7425367252e-10 0 0 -1.7425367252e-10 
0 0 -1.7425367252e-10 0 0 -1.7425367252e-10 0 0 -1.7425367252e-10 
0 0 -1.7425367252e-10 0 0 -1.7425367252e-10 0 0 -1.7425367252e-10 
0 0 -1.7425367252e-10 0 0 -1.7425367252e-10 0 0 -8.9019973083e-09 
0 0 -1.7425367252e-10 0 0 -1.7425367252e-10 0 0 -1.7425367252e-10 
0 0 -1.7425367252e-10 0 0 -8.9019973083e-09 0 0 -5.3297119368e-07 

radius 1 648 double
2e-05 2e-05 2e-05 2e-05 2e-05 2e-05 2e-05 2e-05 7.5e-05 
2e-05 2e-05 2e-05 2e-05 2e-05 2e-05 2e-05 2e-05 2e-05 
2e-05 2e-05 2e-05 2e-05 2e-05 2e-05 2e-05 2e-05 2e-05 
2e-05 2e-05 2e-05 2e-05 2e-05 2e-05 2e-05 2e-05 2e-05 
2e-05 2e-05 2e-05 2e-05 2e-05 2e-05 2e-05 2e-05 2e-05 
2e-05 2e-05 2e-05 2e-05 2e-05 2e-05 2e-05 2e-05 2e-05 
2e-05 2e-05 2e-05 2e-05 2e-05 2e-05 2e-05 2e-05 2e-05 
2e-05 2e-05 2e-05 2e-05 2e-05 2e-05 2e-05 2e-05 2e-05 
2e-05 2e-05 2e-05 2e-05 2e-05 2e-05 2e-05 2e-05 2e-05 
2e-05 2e-05 2e-05 2e-05 2e-05 2e-05 2e-05 2e-05 2e-05 
2e-05 2e-05 2e-05 2e-05 2e-05 2e-05 2e-05 2e-05 2e-05 
7.5e-05 2e-05 2e-05 2e-05 2e-05 2e-05 2e-05 2e-05 2e-05 
2e-05 2e-05 2e-05 2e-05 2e-05 2e-05 2e-05 2e-05 2e-05 
2e-05 2e-05 2e-05 2e-05 7.5e-05 2e-05 2e-05 2e-05 2e-05 
2e-05 7.5e-05 2e-05 2e-05 2e-05 2e-05 2e-05 2e-05 2e-05 
2e-05 2e-05 2e-05 2e-05 2e-05 2e-05 2e-05 2e-05 2e-05 
2e-05 2e-05 2e-05 2e-05 2e-05 2e-05 2e-05 2e-05 2e-05 
2e-05 2e-05 2e-05 2e-05 2e-05 2e-05 2e-05 2e-05 2e-05 
2e-05 2e-05 2e-05 2e-05 2e-05 2e-05 2e-05 2e-05 2e-05 
2e-05 2e-05 2e-05 2e-05 2e-05 2e-05 2e-05 2e-05 2e-05 
2e-05 2e-05 2e-05 2e-05 2e-05 2e-05 2e-05 2e-05 2e-05 
2e-05 2e-05 2e-05 2e-05 2e-05 2e-05 2e-05 2e-05 2e-05 
2e-05 2e-05 2e-05 2e-05 2e-05 2e-05 2e-05 2e-05 2e-05 
2e-05 2e-05 2e-05 2e-05 2e-05 2e-05 2e-05 2e-05 2e-05 
2e-05 2e-05 2e-05 2e-05 2e-05 2e-05 2e-05 2e-05 2e-05 
2e-05 2e-05 2e-05 2e-05 2e-05 2e-05 2e-05 2e-05 2e-05 
2e-05 2e-05 2e-05 2e-05 2e-05 2e-05 2e-05 2e-05 2e-05 
2e-05 2e-05 2e-05 2e-05 2e-05 2e-05 2e-05 2e-05 2e-05 
2e-05 2e-05 2e-05 2e-05 2e-05 2e-05 2e-05 7.5e-05 2e-05 
2e-05 2e-05 2e-05 2e-05 2e-05 2e-05 2e-05 2e-05 2e-05 
2e-05 2e-05 2e-05 2e-05 2e-05 2e-05 2e-05 2e-05 2e-05 
2e-05 2e-05 2e-05 2e-05 2e-05 2e-05 2e-05 2e-05 2e-05 
2e-05 2e-05 2e-05 2e-05 2e-05 2e-05 2e-05 2e-05 2e-05 
7.5e-05 2e-05 2e-05 2e-05 7.5e-05 2e-05 2e-05 2e-05 2e-05 
2e-05 2e-05 2e-05 2e-05 2e-05 2e-05 2e-05 2e-05 2e-05 
2e-05 2e-05 2e-05 2e-05 2e-05 2e-05 2e-05 2e-05 2e-05 
2e-05 2e-05 2e-05 2e-05 2e-05 7.5e-05 7.5e-05 2e-05 2e-05 
2e-05 2e-05 2e-05 2e-05 2e-05 2e-05 2e-05 7.5e-05 2e-05 
2e-05 2e-05 2e-05 2e-05 2e-05 2e-05 2e-05 2e-05 2e-05 
2e-05 2e-05 2e-05 2e-05 2e-05 2e-05 2e-05 2e-05 2e-05 
2e-05 7.5e-05 2e-05 2e-05 2e-05 2e-05 2e-05 2e-05 2e-05 
2e-05 2e-05 2e-05 2e-05 2e-05 2e-05 2e-05 2e-05 2e-05 
2e-05 2e-05 2e-05 2e-05 2e-05 2e-05 2e-05 2e-05 2e-05 
2e-05 2e-05 2e-05 2e-05 2e-05 2e-05 2e-05 2e-05 2e-05 
2e-05 2e-05 2e-05 2e-05 2e-05 2e-05 2e-05 2e-05 2e-05 
2e-05 2e-05 2e-05 2e-05 2e-05 2e-05 2e-05 2e-05 2e-05 
2e-05 2e-05 2e-05 2e-05 2e-05 2e-05 2e-05 2e-05 2e-05 
2e-05 2e-05 2e-05 2e-05 2e-05 2e-05 2e-05 2e-05 2e-05 
2e-05 2e-05 2e-05 2e-05 2e-05 2e-05 2e-05 2e-05 2e-05 
2e-05 2e-05 2e-05 2e-05 2e-05 2e-05 7.5e-05 2e-05 2e-05 
2e-05 2e-05 2e-05 2e-05 2e-05 2e-05 2e-05 2e-05 2e-05 
2e-05 2e-05 2e-05 2e-05 2e-05 2e-05 2e-05 2e-05 2e-05 
2e-05 2e-05 2e-05 2e-05 2e-05 2e-05 2e-05 2e-05 2e-05 
2e-05 2e-05 2e-05 2e-05 2e-05 2e-05 2e-05 2e-05 2e-05 
2e-05 2e-05 2e-05 2e-05 2e-05 2e-05 2e-05 2e-05 2e-05 
2e-05 2e-05 0.00015 2e-05 2e-05 2e-05 2e-05 2e-05 2e-05 
2e-05 2e-05 2e-05 2e-05 2e-05 2e-05 2e-05 2e-05 2e-05 
2e-05 2e-05 2e-05 2e-05 2e-05 2e-05 2e-05 2e-05 2e-05 
2e-05 2e-05 2e-05 2e-05 2e-05 2e-05 2e-05 2e-05 2e-05 
2e-05 2e-05 2e-05 2e-05 2e-05 2e-05 2e-05 2e-05 2e-05 
2e-05 2e-05 2e-05 2e-05 2e-05 2e-05 2e-05 2e-05 2e-05 
2e-05 2e-05 2e-05 2e-05 2e-05 2e-05 2e-05 2e-05 2e-05 
2e-05 2e-05 2e-05 2e-05 2e-05 2e-05 2e-05 2e-05 2e-05 
2e-05 2e-05 2e-05 2e-05 2e-05 2e-05 2e-05 2e-05 2e-05 
2e-05 2e-05 2e-05 2e-05 2e-05 2e-05 2e-05 2e-05 2e-05 
2e-05 2e-05 2e-05 2e-05 2e-05 2e-05 2e-05 2e-05 2e-05 
2e-05 2e-05 2e-05 2e-05 2e-05 2e-05 2e-05 2e-05 2e-05 
2e-05 2e-05 2e-05 2e-05 2e-05 2e-05 2e-05 2e-05 2e-05 
2e-05 2e-05 2e-05 2e-05 2e-05 2e-05 2e-05 2e-05 7.5e-05 
2e-05 2e-05 2e-05 2e-05 7.5e-05 2e-05 2e-05 2e-05 7.5e-05 
2e-05 2e-05 2e-05 2e-05 2e-05 2e-05 2e-05 2e-05 2e-05 
2e-05 2e-05 7.5e-05 2e-05 2e-05 2e-05 2e-05 7.5e-05 0.0003 

omega 3 648 double
0 0 0 0 0 0 0 0 0 
0 0 0 0 0 0 0 0 0 
0 0 0 0 0 0 0 0 0 
0 0 0 0 0 0 0 0 0 
0 0 0 0 0 0 0 0 0 
0 0 0 0 0 0 0 0 0 
0 0 0 0 0 0 0 0 0 
0 0 0 0 0 0 0 0 0 
0 0 0 0 0 0 0 0 0 
0 0 0 0 0 0 0 0 0 
0 0 0 0 0 0 0 0 0 
0 0 0 0 0 0 0 0 0 
0 0 0 0 0 0 0 0 0 
0 0 0 0 0 0 0 0 0 
0 0 0 0 0 0 0 0 0 
0 0 0 0 0 0 0 0 0 
0 0 0 0 0 0 0 0 0 
0 0 0 0 0 0 0 0 0 
0 0 0 0 0 0 0 0 0 
0 0 0 0 0 0 0 0 0 
0 0 0 0 0 0 0 0 0 
0 0 0 0 0 0 0 0 0 
0 0 0 0 0 0 0 0 0 
0 0 0 0 0 0 0 0 0 
0 0 0 0 0 0 0 0 0 
0 0 0 0 0 0 0 0 0 
0 0 0 0 0 0 0 0 0 
0 0 0 0 0 0 0 0 0 
0 0 0 0 0 0 0 0 0 
0 0 0 0 0 0 0 0 0 
0 0 0 0 0 0 0 0 0 
0 0 0 0 0 0 0 0 0 
0 0 0 0 0 0 0 0 0 
0 0 0 0 0 0 0 0 0 
0 0 0 0 0 0 0 0 0 
0 0 0 0 0 0 0 0 0 
0 0 0 0 0 0 0 0 0 
0 0 0 0 0 0 0 0 0 
0 0 0 0 0 0 0 0 0 
0 0 0 0 0 0 0 0 0 
0 0 0 0 0 0 0 0 0 
0 0 0 0 0 0 0 0 0 
0 0 0 0 0 0 0 0 0 
0 0 0 0 0 0 0 0 0 
0 0 0 0 0 0 0 0 0 
0 0 0 0 0 0 0 0 0 
0 0 0 0 0 0 0 0 0 
0 0 0 0 0 0 0 0 0 
0 0 0 0 0 0 0 0 0 
0 0 0 0 0 0 0 0 0 
0 0 0 0 0 0 0 0 0 
0 0 0 0 0 0 0 0 0 
0 0 0 0 0 0 0 0 0 
0 0 0 0 0 0 0 0 0 
0 0 0 0 0 0 0 0 0 
0 0 0 0 0 0 0 0 0 
0 0 0 0 0 0 0 0 0 
0 0 0 0 0 0 0 0 0 
0 0 0 0 0 0 0 0 0 
0 0 0 0 0 0 0 0 0 
0 0 0 0 0 0 0 0 0 
0 0 0 0 0 0 0 0 0 
0 0 0 0 0 0 0 0 0 
0 0 0 0 0 0 0 0 0 
0 0 0 0 0 0 0 0 0 
0 0 0 0 0 0 0 0 0 
0 0 0 0 0 0 0 0 0 
0 0 0 0 0 0 0 0 0 
0 0 0 0 0 0 0 0 0 
0 0 0 0 0 0 0 0 0 
0 0 0 0 0 0 0 0 0 
0 0 0 0 0 0 0 0 0 
0 0 0 0 0 0 0 0 0 
0 0 0 0 0 0 0 0 0 
0 0 0 0 0 0 0 0 0 
0 0 0 0 0 0 0 0 0 
0 0 0 0 0 0 0 0 0 
0 0 0 0 0 0 0 0 0 
0 0 0 0 0 0 0 0 0 
0 0 0 0 0 0 0 0 0 
0 0 0 0 0 0 0 0 0 
0 0 0 0 0 0 0 0 0 
0 0 0 0 0 0 0 0 0 
0 0 0 0 0 0 0 0 0 
0 0 0 0 0 0 0 0 0 
0 0 0 0 0 0 0 0 0 
0 0 0 0 0 0 0 0 0 
0 0 0 0 0 0 0 0 0 
0 0 0 0 0 0 0 0 0 
0 0 0 0 0 0 0 0 0 
0 0 0 0 0 0 0 0 0 
0 0 0 0 0 0 0 0 0 
0 0 0 0 0 0 0 0 0 
0 0 0 0 0 0 0 0 0 
0 0 0 0 0 0 0 0 0 
0 0 0 0 0 0 0 0 0 
0 0 0 0 0 0 0 0 0 
0 0 0 0 0 0 0 0 0 
0 0 0 0 0 0 0 0 0 
0 0 0 0 0 0 0 0 0 
0 0 0 0 0 0 0 0 0 
0 0 0 0 0 0 0 0 0 
0 0 0 0 0 0 0 0 0 
0 0 0 0 0 0 0 0 0 
0 0 0 0 0 0 0 0 0 
0 0 0 0 0 0 0 0 0 
0 0 0 0 0 0 0 0 0 
0 0 0 0 0 0 0 0 0 
0 0 0 0 0 0 0 0 0 
0 0 0 0 0 0 0 0 0 
0 0 0 0 0 0 0 0 0 
0 0 0 0 0 0 0 0 0 
0 0 0 0 0 0 0 0 0 
0 0 0 0 0 0 0 0 0 
0 0 0 0 0 0 0 0 0 
0 0 0 0 0 0 0 0 0 
0 0 0 0 0 0 0 0 0 
0 0 0 0 0 0 0 0 0 
0 0 0 0 0 0 0 0 0 
0 0 0 0 0 0 0 0 0 
0 0 0 0 0 0 0 0 0 
0 0 0 0 0 0 0 0 0 
0 0 0 0 0 0 0 0 0 
0 0 0 0 0 0 0 0 0 
0 0 0 0 0 0 0 0 0 
0 0 0 0 0 0 0 0 0 
0 0 0 0 0 0 0 0 0 
0 0 0 0 0 0 0 0 0 
0 0 0 0 0 0 0 0 0 
0 0 0 0 0 0 0 0 0 
0 0 0 0 0 0 0 0 0 
0 0 0 0 0 0 0 0 0 
0 0 0 0 0 0 0 0 0 
0 0 0 0 0 0 0 0 0 
0 0 0 0 0 0 0 0 0 
0 0 0 0 0 0 0 0 0 
0 0 0 0 0 0 0 0 0 
0 0 0 0 0 0 0 0 0 
0 0 0 0 0 0 0 0 0 
0 0 0 0 0 0 0 0 0 
0 0 0 0 0 0 0 0 0 
0 0 0 0 0 0 0 0 0 
0 0 0 0 0 0 0 0 0 
0 0 0 0 0 0 0 0 0 
0 0 0 0 0 0 0 0 0 
0 0 0 0 0 0 0 0 0 
0 0 0 0 0 0 0 0 0 
0 0 0 0 0 0 0 0 0 
0 0 0 0 0 0 0 0 0 
0 0 0 0 0 0 0 0 0 
0 0 0 0 0 0 0 0 0 
0 0 0 0 0 0 0 0 0 
0 0 0 0 0 0 0 0 0 
0 0 0 0 0 0 0 0 0 
0 0 0 0 0 0 0 0 0 
0 0 0 0 0 0 0 0 0 
0 0 0 0 0 0 0 0 0 
0 0 0 0 0 0 0 0 0 
0 0 0 0 0 0 0 0 0 
0 0 0 0 0 0 0 0 0 
0 0 0 0 0 0 0 0 0 
0 0 0 0 0 0 0 0 0 
0 0 0 0 0 0 0 0 0 
0 0 0 0 0 0 0 0 0 
0 0 0 0 0 0 0 0 0 
0 0 0 0 0 0 0 0 0 
0 0 0 0 0 0 0 0 0 
0 0 0 0 0 0 0 0 0 
0 0 0 0 0 0 0 0 0 
0 0 0 0 0 0 0 0 0 
0 0 0 0 0 0 0 0 0 
0 0 0 0 0 0 0 0 0 
0 0 0 0 0 0 0 0 0 
0 0 0 0 0 0 0 0 0 
0 0 0 0 0 0 0 0 0 
0 0 0 0 0 0 0 0 0 
0 0 0 0 0 0 0 0 0 
0 0 0 0 0 0 0 0 0 
0 0 0 0 0 0 0 0 0 
0 0 0 0 0 0 0 0 0 
0 0 0 0 0 0 0 0 0 
0 0 0 0 0 0 0 0 0 
0 0 0 0 0 0 0 0 0 
0 0 0 0 0 0 0 0 0 
0 0 0 0 0 0 0 0 0 
0 0 0 0 0 0 0 0 0 
0 0 0 0 0 0 0 0 0 
0 0 0 0 0 0 0 0 0 
0 0 0 0 0 0 0 0 0 
0 0 0 0 0 0 0 0 0 
0 0 0 0 0 0 0 0 0 
0 0 0 0 0 0 0 0 0 
0 0 0 0 0 0 0 0 0 
0 0 0 0 0 0 0 0 0 
0 0 0 0 0 0 0 0 0 
0 0 0 0 0 0 0 0 0 
0 0 0 0 0 0 0 0 0 
0 0 0 0 0 0 0 0 0 
0 0 0 0 0 0 0 0 0 
0 0 0 0 0 0 0 0 0 
0 0 0 0 0 0 0 0 0 
0 0 0 0 0 0 0 0 0 
0 0 0 0 0 0 0 0 0 
0 0 0 0 0 0 0 0 0 
0 0 0 0 0 0 0 0 0 
0 0 0 0 0 0 0 0 0 
0 0 0 0 0 0 0 0 0 
0 0 0 0 0 0 0 0 0 
0 0 0 0 0 0 0 0 0 
0 0 0 0 0 0 0 0 0 
0 0 0 0 0 0 0 0 0 
0 0 0 0 0 0 0 0 0 
0 0 0 0 0 0 0 0 0 
0 0 0 0 0 0 0 0 0 
0 0 0 0 0 0 0 0 0 
0 0 0 0 0 0 0 0 0 

fx_mag_viz 1 648 double
0 0 0 0 0 0 0 0 0 
0 0 0 0 0 0 0 0 0 
0 0 0 0 0 0 0 0 0 
0 0 0 0 0 0 0 0 0 
0 0 0 0 0 0 0 0 0 
0 0 0 0 0 0 0 0 0 
0 0 0 0 0 0 0 0 0 
0 0 0 0 0 0 0 0 0 
0 0 0 0 0 0 0 0 0 
0 0 0 0 0 0 0 0 0 
0 0 0 0 0 0 0 0 0 
0 0 0 0 0 0 0 0 0 
0 0 0 0 0 0 0 0 0 
0 0 0 0 0 0 0 0 0 
0 0 0 0 0 0 0 0 0 
0 0 0 0 0 0 0 0 0 
0 0 0 0 0 0 0 0 0 
0 0 0 0 0 0 0 0 0 
0 0 0 0 0 0 0 0 0 
0 0 0 0 0 0 0 0 0 
0 0 0 0 0 0 0 0 0 
0 0 0 0 0 0 0 0 0 
0 0 0 0 0 0 0 0 0 
0 0 0 0 0 0 0 0 0 
0 0 0 0 0 0 0 0 0 
0 0 0 0 0 0 0 0 0 
0 0 0 0 0 0 0 0 0 
0 0 0 0 0 0 0 0 0 
0 0 0 0 0 0 0 0 0 
0 0 0 0 0 0 0 0 0 
0 0 0 0 0 0 0 0 0 
0 0 0 0 0 0 0 0 0 
0 0 0 0 0 0 0 0 0 
0 0 0 0 0 0 0 0 0 
0 0 0 0 0 0 0 0 0 
0 0 0 0 0 0 0 0 0 
0 0 0 0 0 0 0 0 0 
0 0 0 0 0 0 0 0 0 
0 0 0 0 0 0 0 0 0 
0 0 0 0 0 0 0 0 0 
0 0 0 0 0 0 0 0 0 
0 0 0 0 0 0 0 0 0 
0 0 0 0 0 0 0 0 0 
0 0 0 0 0 0 0 0 0 
0 0 0 0 0 0 0 0 0 
0 0 0 0 0 0 0 0 0 
0 0 0 0 0 0 0 0 0 
0 0 0 0 0 0 0 0 0 
0 0 0 0 0 0 0 0 0 
0 0 0 0 0 0 0 0 0 
0 0 0 0 0 0 0 0 0 
0 0 0 0 0 0 0 0 0 
0 0 0 0 0 0 0 0 0 
0 0 0 0 0 0 0 0 0 
0 0 0 0 0 0 0 0 0 
0 0 0 0 0 0 0 0 0 
0 0 0 0 0 0 0 0 0 
0 0 0 0 0 0 0 0 0 
0 0 0 0 0 0 0 0 0 
0 0 0 0 0 0 0 0 0 
0 0 0 0 0 0 0 0 0 
0 0 0 0 0 0 0 0 0 
0 0 0 0 0 0 0 0 0 
0 0 0 0 0 0 0 0 0 
0 0 0 0 0 0 0 0 0 
0 0 0 0 0 0 0 0 0 
0 0 0 0 0 0 0 0 0 
0 0 0 0 0 0 0 0 0 
0 0 0 0 0 0 0 0 0 
0 0 0 0 0 0 0 0 0 
0 0 0 0 0 0 0 0 0 
0 0 0 0 0 0 0 0 0 

fy_mag_viz 1 648 double
0 0 0 0 0 0 0 0 0 
0 0 0 0 0 0 0 0 0 
0 0 0 0 0 0 0 0 0 
0 0 0 0 0 0 0 0 0 
0 0 0 0 0 0 0 0 0 
0 0 0 0 0 0 0 0 0 
0 0 0 0 0 0 0 0 0 
0 0 0 0 0 0 0 0 0 
0 0 0 0 0 0 0 0 0 
0 0 0 0 0 0 0 0 0 
0 0 0 0 0 0 0 0 0 
0 0 0 0 0 0 0 0 0 
0 0 0 0 0 0 0 0 0 
0 0 0 0 0 0 0 0 0 
0 0 0 0 0 0 0 0 0 
0 0 0 0 0 0 0 0 0 
0 0 0 0 0 0 0 0 0 
0 0 0 0 0 0 0 0 0 
0 0 0 0 0 0 0 0 0 
0 0 0 0 0 0 0 0 0 
0 0 0 0 0 0 0 0 0 
0 0 0 0 0 0 0 0 0 
0 0 0 0 0 0 0 0 0 
0 0 0 0 0 0 0 0 0 
0 0 0 0 0 0 0 0 0 
0 0 0 0 0 0 0 0 0 
0 0 0 0 0 0 0 0 0 
0 0 0 0 0 0 0 0 0 
0 0 0 0 0 0 0 0 0 
0 0 0 0 0 0 0 0 0 
0 0 0 0 0 0 0 0 0 
0 0 0 0 0 0 0 0 0 
0 0 0 0 0 0 0 0 0 
0 0 0 0 0 0 0 0 0 
0 0 0 0 0 0 0 0 0 
0 0 0 0 0 0 0 0 0 
0 0 0 0 0 0 0 0 0 
0 0 0 0 0 0 0 0 0 
0 0 0 0 0 0 0 0 0 
0 0 0 0 0 0 0 0 0 
0 0 0 0 0 0 0 0 0 
0 0 0 0 0 0 0 0 0 
0 0 0 0 0 0 0 0 0 
0 0 0 0 0 0 0 0 0 
0 0 0 0 0 0 0 0 0 
0 0 0 0 0 0 0 0 0 
0 0 0 0 0 0 0 0 0 
0 0 0 0 0 0 0 0 0 
0 0 0 0 0 0 0 0 0 
0 0 0 0 0 0 0 0 0 
0 0 0 0 0 0 0 0 0 
0 0 0 0 0 0 0 0 0 
0 0 0 0 0 0 0 0 0 
0 0 0 0 0 0 0 0 0 
0 0 0 0 0 0 0 0 0 
0 0 0 0 0 0 0 0 0 
0 0 0 0 0 0 0 0 0 
0 0 0 0 0 0 0 0 0 
0 0 0 0 0 0 0 0 0 
0 0 0 0 0 0 0 0 0 
0 0 0 0 0 0 0 0 0 
0 0 0 0 0 0 0 0 0 
0 0 0 0 0 0 0 0 0 
0 0 0 0 0 0 0 0 0 
0 0 0 0 0 0 0 0 0 
0 0 0 0 0 0 0 0 0 
0 0 0 0 0 0 0 0 0 
0 0 0 0 0 0 0 0 0 
0 0 0 0 0 0 0 0 0 
0 0 0 0 0 0 0 0 0 
0 0 0 0 0 0 0 0 0 
0 0 0 0 0 0 0 0 0 

fz_mag_viz 1 648 double
0 0 0 0 0 0 0 0 0 
0 0 0 0 0 0 0 0 0 
0 0 0 0 0 0 0 0 0 
0 0 0 0 0 0 0 0 0 
0 0 0 0 0 0 0 0 0 
0 0 0 0 0 0 0 0 0 
0 0 0 0 0 0 0 0 0 
0 0 0 0 0 0 0 0 0 
0 0 0 0 0 0 0 0 0 
0 0 0 0 0 0 0 0 0 
0 0 0 0 0 0 0 0 0 
0 0 0 0 0 0 0 0 0 
0 0 0 0 0 0 0 0 0 
0 0 0 0 0 0 0 0 0 
0 0 0 0 0 0 0 0 0 
0 0 0 0 0 0 0 0 0 
0 0 0 0 0 0 0 0 0 
0 0 0 0 0 0 0 0 0 
0 0 0 0 0 0 0 0 0 
0 0 0 0 0 0 0 0 0 
0 0 0 0 0 0 0 0 0 
0 0 0 0 0 0 0 0 0 
0 0 0 0 0 0 0 0 0 
0 0 0 0 0 0 0 0 0 
0 0 0 0 0 0 0 0 0 
0 0 0 0 0 0 0 0 0 
0 0 0 0 0 0 0 0 0 
0 0 0 0 0 0 0 0 0 
0 0 0 0 0 0 0 0 0 
0 0 0 0 0 0 0 0 0 
0 0 0 0 0 0 0 0 0 
0 0 0 0 0 0 0 0 0 
0 0 0 0 0 0 0 0 0 
0 0 0 0 0 0 0 0 0 
0 0 0 0 0 0 0 0 0 
0 0 0 0 0 0 0 0 0 
0 0 0 0 0 0 0 0 0 
0 0 0 0 0 0 0 0 0 
0 0 0 0 0 0 0 0 0 
0 0 0 0 0 0 0 0 0 
0 0 0 0 0 0 0 0 0 
0 0 0 0 0 0 0 0 0 
0 0 0 0 0 0 0 0 0 
0 0 0 0 0 0 0 0 0 
0 0 0 0 0 0 0 0 0 
0 0 0 0 0 0 0 0 0 
0 0 0 0 0 0 0 0 0 
0 0 0 0 0 0 0 0 0 
0 0 0 0 0 0 0 0 0 
0 0 0 0 0 0 0 0 0 
0 0 0 0 0 0 0 0 0 
0 0 0 0 0 0 0 0 0 
0 0 0 0 0 0 0 0 0 
0 0 0 0 0 0 0 0 0 
0 0 0 0 0 0 0 0 0 
0 0 0 0 0 0 0 0 0 
0 0 0 0 0 0 0 0 0 
0 0 0 0 0 0 0 0 0 
0 0 0 0 0 0 0 0 0 
0 0 0 0 0 0 0 0 0 
0 0 0 0 0 0 0 0 0 
0 0 0 0 0 0 0 0 0 
0 0 0 0 0 0 0 0 0 
0 0 0 0 0 0 0 0 0 
0 0 0 0 0 0 0 0 0 
0 0 0 0 0 0 0 0 0 
0 0 0 0 0 0 0 0 0 
0 0 0 0 0 0 0 0 0 
0 0 0 0 0 0 0 0 0 
0 0 0 0 0 0 0 0 0 
0 0 0 0 0 0 0 0 0 
0 0 0 0 0 0 0 0 0 

B_magnitude 1 648 double
0 0 0 0 0 0 0 0 0 
0 0 0 0 0 0 0 0 0 
0 0 0 0 0 0 0 0 0 
0 0 0 0 0 0 0 0 0 
0 0 0 0 0 0 0 0 0 
0 0 0 0 0 0 0 0 0 
0 0 0 0 0 0 0 0 0 
0 0 0 0 0 0 0 0 0 
0 0 0 0 0 0 0 0 0 
0 0 0 0 0 0 0 0 0 
0 0 0 0 0 0 0 0 0 
0 0 0 0 0 0 0 0 0 
0 0 0 0 0 0 0 0 0 
0 0 0 0 0 0 0 0 0 
0 0 0 0 0 0 0 0 0 
0 0 0 0 0 0 0 0 0 
0 0 0 0 0 0 0 0 0 
0 0 0 0 0 0 0 0 0 
0 0 0 0 0 0 0 0 0 
0 0 0 0 0 0 0 0 0 
0 0 0 0 0 0 0 0 0 
0 0 0 0 0 0 0 0 0 
0 0 0 0 0 0 0 0 0 
0 0 0 0 0 0 0 0 0 
0 0 0 0 0 0 0 0 0 
0 0 0 0 0 0 0 0 0 
0 0 0 0 0 0 0 0 0 
0 0 0 0 0 0 0 0 0 
0 0 0 0 0 0 0 0 0 
0 0 0 0 0 0 0 0 0 
0 0 0 0 0 0 0 0 0 
0 0 0 0 0 0 0 0 0 
0 0 0 0 0 0 0 0 0 
0 0 0 0 0 0 0 0 0 
0 0 0 0 0 0 0 0 0 
0 0 0 0 0 0 0 0 0 
0 0 0 0 0 0 0 0 0 
0 0 0 0 0 0 0 0 0 
0 0 0 0 0 0 0 0 0 
0 0 0 0 0 0 0 0 0 
0 0 0 0 0 0 0 0 0 
0 0 0 0 0 0 0 0 0 
0 0 0 0 0 0 0 0 0 
0 0 0 0 0 0 0 0 0 
0 0 0 0 0 0 0 0 0 
0 0 0 0 0 0 0 0 0 
0 0 0 0 0 0 0 0 0 
0 0 0 0 0 0 0 0 0 
0 0 0 0 0 0 0 0 0 
0 0 0 0 0 0 0 0 0 
0 0 0 0 0 0 0 0 0 
0 0 0 0 0 0 0 0 0 
0 0 0 0 0 0 0 0 0 
0 0 0 0 0 0 0 0 0 
0 0 0 0 0 0 0 0 0 
0 0 0 0 0 0 0 0 0 
0 0 0 0 0 0 0 0 0 
0 0 0 0 0 0 0 0 0 
0 0 0 0 0 0 0 0 0 
0 0 0 0 0 0 0 0 0 
0 0 0 0 0 0 0 0 0 
0 0 0 0 0 0 0 0 0 
0 0 0 0 0 0 0 0 0 
0 0 0 0 0 0 0 0 0 
0 0 0 0 0 0 0 0 0 
0 0 0 0 0 0 0 0 0 
0 0 0 0 0 0 0 0 0 
0 0 0 0 0 0 0 0 0 
0 0 0 0 0 0 0 0 0 
0 0 0 0 0 0 0 0 0 
0 0 0 0 0 0 0 0 0 
0 0 0 0 0 0 0 0 0 

B_gradient_mag 1 648 double
0 0 0 0 0 0 0 0 0 
0 0 0 0 0 0 0 0 0 
0 0 0 0 0 0 0 0 0 
0 0 0 0 0 0 0 0 0 
0 0 0 0 0 0 0 0 0 
0 0 0 0 0 0 0 0 0 
0 0 0 0 0 0 0 0 0 
0 0 0 0 0 0 0 0 0 
0 0 0 0 0 0 0 0 0 
0 0 0 0 0 0 0 0 0 
0 0 0 0 0 0 0 0 0 
0 0 0 0 0 0 0 0 0 
0 0 0 0 0 0 0 0 0 
0 0 0 0 0 0 0 0 0 
0 0 0 0 0 0 0 0 0 
0 0 0 0 0 0 0 0 0 
0 0 0 0 0 0 0 0 0 
0 0 0 0 0 0 0 0 0 
0 0 0 0 0 0 0 0 0 
0 0 0 0 0 0 0 0 0 
0 0 0 0 0 0 0 0 0 
0 0 0 0 0 0 0 0 0 
0 0 0 0 0 0 0 0 0 
0 0 0 0 0 0 0 0 0 
0 0 0 0 0 0 0 0 0 
0 0 0 0 0 0 0 0 0 
0 0 0 0 0 0 0 0 0 
0 0 0 0 0 0 0 0 0 
0 0 0 0 0 0 0 0 0 
0 0 0 0 0 0 0 0 0 
0 0 0 0 0 0 0 0 0 
0 0 0 0 0 0 0 0 0 
0 0 0 0 0 0 0 0 0 
0 0 0 0 0 0 0 0 0 
0 0 0 0 0 0 0 0 0 
0 0 0 0 0 0 0 0 0 
0 0 0 0 0 0 0 0 0 
0 0 0 0 0 0 0 0 0 
0 0 0 0 0 0 0 0 0 
0 0 0 0 0 0 0 0 0 
0 0 0 0 0 0 0 0 0 
0 0 0 0 0 0 0 0 0 
0 0 0 0 0 0 0 0 0 
0 0 0 0 0 0 0 0 0 
0 0 0 0 0 0 0 0 0 
0 0 0 0 0 0 0 0 0 
0 0 0 0 0 0 0 0 0 
0 0 0 0 0 0 0 0 0 
0 0 0 0 0 0 0 0 0 
0 0 0 0 0 0 0 0 0 
0 0 0 0 0 0 0 0 0 
0 0 0 0 0 0 0 0 0 
0 0 0 0 0 0 0 0 0 
0 0 0 0 0 0 0 0 0 
0 0 0 0 0 0 0 0 0 
0 0 0 0 0 0 0 0 0 
0 0 0 0 0 0 0 0 0 
0 0 0 0 0 0 0 0 0 
0 0 0 0 0 0 0 0 0 
0 0 0 0 0 0 0 0 0 
0 0 0 0 0 0 0 0 0 
0 0 0 0 0 0 0 0 0 
0 0 0 0 0 0 0 0 0 
0 0 0 0 0 0 0 0 0 
0 0 0 0 0 0 0 0 0 
0 0 0 0 0 0 0 0 0 
0 0 0 0 0 0 0 0 0 
0 0 0 0 0 0 0 0 0 
0 0 0 0 0 0 0 0 0 
0 0 0 0 0 0 0 0 0 
0 0 0 0 0 0 0 0 0 
0 0 0 0 0 0 0 0 0 

