# vtk DataFile Version 5.1
Generated by LIGGGHTS
ASCII
DATASET POLYDATA
POINTS 648 float
-0.0428902 -0.0449088 0.00102 -0.0346971 -0.0446764 0.00111788 -0.00340304 -0.0448428 0.00106387 
-0.044759 -0.0437614 0.00102 -0.0335565 -0.0442122 0.00102 -0.0308094 -0.0435702 0.00102 
-0.027409 -0.0433703 0.00115748 0.0145521 -0.0432303 0.00124451 0.0181024 -0.0433049 0.00105929 
0.0416479 -0.0439733 0.00103927 -0.0248654 -0.0427111 0.00116477 0.0131812 -0.0427533 0.00125443 
0.0248068 -0.0428986 0.00114253 0.0348044 -0.042095 0.00102 0.0418836 -0.0421436 0.00102 
-0.0349861 -0.0412827 0.00116654 -0.00674967 -0.0416523 0.00102 0.0338942 -0.0410147 0.00116482 
0.0414821 -0.0410789 0.00102 0.0424299 -0.0409921 0.00126585 -0.042922 -0.0404536 0.00102 
-0.0334706 -0.0396012 0.00102 -0.0248652 -0.040212 0.00102018 -0.018434 -0.0405477 0.00102 
-0.0169239 -0.0402939 0.00125113 -0.00670669 -0.0394183 0.00123801 0.0244803 -0.0401788 0.00105666 
0.040047 -0.0404588 0.00102 -0.0108246 -0.0388127 0.00102 -0.00302782 -0.0385948 0.00102 
0.0156715 -0.0391733 0.00102 0.00798734 -0.0367051 0.00102 0.0308099 -0.0378456 0.00102 
-0.0439713 -0.0357399 0.00118111 -0.0273176 -0.0361067 0.00126845 -0.0168273 -0.0360331 0.00102234 
0.000822496 -0.0363122 0.00102 0.0195647 -0.0366528 0.00132246 0.00594186 -0.0351889 0.00102 
0.00879071 -0.0344865 0.00117597 0.0333162 -0.0342631 0.00102 0.0433459 -0.0353282 0.00117731 
-0.00586029 -0.0338127 0.00104714 0.023158 -0.0340207 0.00102 0.0244271 -0.0334586 0.00102 
0.027474 -0.0338615 0.0010902 -0.0376897 -0.0314333 0.00128157 -0.0262624 -0.032473 0.00102 
-0.0232422 -0.0321576 0.00102 -0.0160452 -0.0323821 0.00106377 0.0346336 -0.0325969 0.00102 
-0.0266532 -0.0301716 0.00102 -0.0105296 -0.0314142 0.00102 0.0280204 -0.0311414 0.00102 
0.0449741 -0.0303513 0.00104463 -0.0448384 -0.0296834 0.00102 -0.0263426 -0.0292431 0.00106266 
0.00231692 -0.0294453 0.00125734 0.0346338 -0.0290927 0.00105382 -0.0240024 -0.0280603 0.00107214 
0.00577088 -0.0287415 0.00102 0.0164647 -0.0275391 0.00103439 -0.0430551 -0.0267583 0.00102 
-0.00580099 -0.0272788 0.00119051 0.000892701 -0.0263701 0.00102 0.0101031 -0.0273014 0.00107528 
0.03382 -0.0268981 0.00133345 0.0306875 -0.0259396 0.00102 0.033456 -0.0256735 0.00102 
0.032808 -0.025967 0.00102 0.0155599 -0.0240909 0.00114324 -0.0408326 -0.0234295 0.00102 
0.0115492 -0.0227248 0.00127675 -0.0225401 -0.0213878 0.00102 0.00623721 -0.0211799 0.0010207 
0.0233461 -0.0214624 0.00102 0.039775 -0.0211058 0.00102 0.0436787 -0.0219137 0.00102 
-0.00827992 -0.020547 0.00105217 0.00548761 -0.0197918 0.001114 0.0336491 -0.0197505 0.00102 
-0.0296942 -0.0196153 0.00102771 -0.0108877 -0.0188832 0.00102 0.00156248 -0.0194187 0.00102601 
0.0363266 -0.0194176 0.00102 -0.0328213 -0.0176588 0.00120301 -0.0317771 -0.0175651 0.00102 
-0.0204621 -0.0172006 0.0010788 -0.0100897 -0.0180162 0.00102 0.0030191 -0.0179247 0.00102 
0.0404767 -0.0183151 0.00102 -0.0426154 -0.0165053 0.00106181 -0.0405162 -0.0161033 0.00118501 
-0.0339565 -0.0167518 0.00102 -0.0257955 -0.0157834 0.00102 0.0223879 -0.0163393 0.00102 
0.038292 -0.016257 0.00111054 -0.015814 -0.0152491 0.00119778 -0.00444012 -0.0151621 0.00102 
0.0198229 -0.0156851 0.00102 0.0249316 -0.014475 0.00122087 0.0375745 -0.0151367 0.00123887 
-0.0388614 -0.0136303 0.00102 -0.0227164 -0.0141288 0.0010412 -0.0186412 -0.0134353 0.00116961 
-0.0117656 -0.0138394 0.00102 -0.0341597 -0.0122829 0.00116237 0.0176437 -0.0119747 0.0010252 
0.00689113 -0.0107816 0.00102 0.0277003 -0.0107969 0.00102 -0.0222502 -0.00974669 0.00102 
-0.0196799 -0.00931279 0.00105931 -0.0112192 -0.0104501 0.00102 0.00743742 -0.00926665 0.00102 
0.013874 -0.00963069 0.00102 0.0251729 -0.00985964 0.00102001 0.0286804 -0.00919085 0.00104613 
0.0313953 -0.00974065 0.00102 0.0350526 -0.0102353 0.00102 0.0406218 -0.0100941 0.001176 
-0.00553214 -0.00871323 0.00102 -0.00254943 -0.00825679 0.00106179 -0.0344646 -0.00725539 0.00114206 
-0.0198564 -0.00683511 0.00102 -0.0135858 -0.00672635 0.00128847 -0.00433253 -0.00676057 0.0011762 
0.0109664 -0.00760095 0.00102 0.0161928 -0.00760918 0.00124075 0.0275881 -0.00673863 0.00117047 
0.0404774 -0.00688032 0.00103769 -0.0129003 -0.00574839 0.00102 -0.00747582 -0.00609419 0.00102 
0.00523139 -0.00599236 0.00121361 0.0387156 -0.00624884 0.00102 -0.040885 -0.00406647 0.00107329 
0.00937085 -0.00418454 0.00102 0.0131353 -0.00504642 0.00102 0.021323 -0.00444137 0.00102 
-0.042786 -0.00359954 0.00102842 -0.0179231 -0.00300678 0.00102 -0.0141425 -0.00311887 0.00102 
-0.0120059 -0.00345367 0.00105318 0.00975646 -0.00313231 0.00120177 0.0293019 -0.00298432 0.00109147 
-0.0408474 -0.00214648 0.00102086 -0.00896956 -0.00131708 0.0012447 0.00664535 -0.00164817 0.00103302 
-0.0281455 -0.00127675 0.00102009 -0.00783961 -0.000387029 0.00102 -0.00702036 -0.00121172 0.00102 
0.0290986 -0.000251763 0.00102591 -0.0260142 0.00017485 0.00102 0.0384376 0.000848974 0.00102 
0.0407777 0.000744206 0.00114561 -0.00967086 0.00179773 0.00102 0.00417698 0.0024455 0.00102 
0.0147261 0.00139147 0.00102379 0.0188762 0.00181355 0.00102 0.032558 0.00153523 0.00102 
-0.0325416 0.00283857 0.00102 0.0449494 0.00392273 0.00102 -0.025141 0.00447188 0.00102021 
0.0292006 0.00433004 0.00102 0.0305447 0.00486582 0.00102 0.0323225 0.00436429 0.00127821 
0.0404406 0.00462082 0.00102 -0.0406381 0.00555966 0.00119178 -0.037077 0.00611456 0.00104498 
-0.0287984 0.00559412 0.00102 -0.0170872 0.00564833 0.00102 0.0011249 0.00615697 0.00102 
0.0101693 0.00555192 0.0010223 0.021602 0.00540593 0.00102 0.0228765 0.00606581 0.00102 
0.0246705 0.0064451 0.00102 0.0250346 0.00641518 0.0010442 0.030759 0.00580352 0.00106716 
0.0332757 0.00539899 0.00114473 -0.0426568 0.00723228 0.00102 0.00533928 0.00728904 0.00104395 
0.0221269 0.00728552 0.00102 0.0283387 0.00890506 0.00102 0.0340899 0.00882812 0.00102 
-0.0392616 0.00972366 0.00102 -0.0214351 0.00957734 0.00102 -0.0101256 0.00978275 0.00102 
0.00978397 0.00922321 0.00120969 0.0197977 0.00963841 0.00102 0.0212596 0.00979192 0.00102 
0.0211953 0.00966092 0.00102 -0.0394276 0.0109375 0.00102001 0.0399323 0.0117688 0.00102 
0.0398091 0.011618 0.00102 -0.0365733 0.0119208 0.00103743 -0.0350204 0.0121089 0.00124405 
-0.00831541 0.0129665 0.00105324 -0.00279986 0.0127222 0.00102 0.00243185 0.0120975 0.00113105 
0.00861143 0.0123591 0.00102 -0.0429188 0.0135204 0.0010289 -0.034865 0.0142961 0.00102 
-0.0310202 0.0131063 0.00102 -0.00867948 0.0139924 0.00103206 8.23501e-07 0.0138406 0.00102 
0.00789931 0.0136568 0.00124381 0.0143092 0.0139794 0.00102 0.0248423 0.0143007 0.00102 
0.0287781 0.014071 0.00102 0.0311878 0.014057 0.00112358 0.0336082 0.013194 0.00127757 
0.0441199 0.0136981 0.00127633 -0.00307286 0.0144526 0.00102 0.000954082 0.0152563 0.00105727 
0.0121458 0.0151918 0.00102011 -0.00443291 0.0160613 0.00108157 0.00517921 0.0169249 0.00102 
0.0418335 0.0161761 0.00102 -0.0360536 0.0173104 0.00102 0.0215224 0.0171285 0.00102 
0.0226738 0.0181095 0.0012421 0.0407412 0.0174253 0.00102001 -0.0214239 0.0189608 0.00102 
0.00395304 0.0187088 0.00105782 0.00757299 0.0192258 0.0012829 0.0090081 0.0191686 0.00102 
0.0122157 0.0191756 0.0012124 0.018015 0.0183735 0.00102308 0.0388885 0.0193682 0.00121686 
-0.0431379 0.0208085 0.00117828 -0.023041 0.0197144 0.00102 -0.022709 0.0198803 0.00102 
-0.0153727 0.020636 0.00102 0.0350116 0.0207306 0.00117565 -0.0282566 0.021284 0.00102 
0.00128112 0.0217131 0.00106533 0.0123926 0.0218243 0.00102 0.0362273 0.0220011 0.00122416 
0.0398418 0.0217469 0.00109376 -0.0421793 0.0225172 0.00130562 -0.0349287 0.0230684 0.00103004 
-0.0295899 0.0232577 0.0012631 0.0146363 0.0223077 0.00124389 0.03506 0.0228899 0.00102 
-0.0267196 0.0236159 0.00105217 0.0307708 0.0242663 0.00102 0.0438582 0.0244724 0.00105861 
-0.0386663 0.0253433 0.001026 -0.00739359 0.0259593 0.00102081 0.0167463 0.0251763 0.00102 
0.0226957 0.0260881 0.00102 -0.0267569 0.0263983 0.00108101 -0.0269229 0.0267788 0.00132921 
-0.0190887 0.0269029 0.00118905 -0.0114472 0.026715 0.00132941 -0.00563177 0.0268155 0.00102086 
0.00953871 0.0271324 0.00102349 0.0395905 0.0272142 0.00102 -0.0357156 0.0282031 0.00102 
0.00834461 0.0278725 0.00128634 -0.0376379 0.0294143 0.00122713 -0.0127911 0.0299546 0.00102 
0.0191509 0.0299648 0.00106295 0.0434247 0.0295768 0.00132646 -0.0409258 0.0305044 0.00102 
-0.0313244 0.0314049 0.00102 -0.0200898 0.0311527 0.00102 -0.0108954 0.0304 0.00103958 
0.00372347 0.0304157 0.00102 0.0038092 0.0311583 0.00102 0.00519606 0.0301696 0.00126963 
0.026696 0.03017 0.00106403 0.0364634 0.0310238 0.00102 0.0444958 0.0309554 0.00102 
-0.0073504 0.0318329 0.00102 0.00390562 0.0317225 0.00102 0.01325 0.0319187 0.00102 
-0.0337286 0.0337045 0.00102283 -0.0264781 0.032823 0.00102 0.00284552 0.0345861 0.00102 
0.00317215 0.0343196 0.00128387 0.0231674 0.0340949 0.00102 -0.041477 0.0364172 0.00102 
-0.00196307 0.0366495 0.00105111 -0.0245447 0.0378537 0.00104488 0.0030545 0.0369981 0.00121752 
0.0297434 0.0373158 0.00102 0.0311732 0.0371467 0.00131554 -0.00973825 0.0391656 0.00102 
-0.00883869 0.0381834 0.00116606 -0.00647711 0.0391566 0.00116845 0.0165329 0.0385374 0.00102 
0.0238959 0.0383247 0.00102 0.0281745 0.039089 0.00115512 -0.0375088 0.0393741 0.00102989 
-0.0312382 0.0393096 0.00102 -0.0112537 0.0395394 0.00102 0.0221021 0.0401282 0.00102088 
0.0251972 0.0393087 0.00102 -0.0133259 0.0414802 0.00102048 0.0163992 0.0415262 0.00102 
0.0222253 0.0407186 0.00102 -0.0390027 0.0421086 0.00102 0.00805094 0.0422278 0.00111873 
0.0294278 0.0431452 0.00102033 -0.0205282 0.0432397 0.00102567 -0.0181988 0.0434549 0.00122083 
0.0352701 0.0439749 0.00120968 0.0405446 0.0433429 0.00102096 0.0171919 0.0449185 0.00114744 
0.0211706 0.0445491 0.00118724 -0.0225361 -0.0441701 0.0019858 0.0195053 -0.043722 0.00232188 
0.000425919 -0.0415728 0.00115115 0.0238162 -0.0409762 0.00134439 -0.0406141 -0.0405112 0.0023924 
-0.0370475 -0.0370945 0.00134862 0.00985621 -0.0367022 0.00224044 0.0341086 -0.0368686 0.00203374 
0.0397687 -0.0374633 0.00128178 -0.0309963 -0.0355024 0.00122053 -0.00161929 -0.0353994 0.00157877 
0.0077947 -0.0345433 0.00138156 0.0403097 -0.0347888 0.0016672 -0.0427235 -0.0332389 0.00132619 
-0.0161578 -0.0337243 0.00199134 0.00802514 -0.031483 0.00127453 0.0268369 -0.0315202 0.00210074 
-0.0386911 -0.0311434 0.00141851 -0.0414327 -0.0290659 0.00237487 0.023019 -0.0293484 0.00240349 
0.0412685 -0.0295104 0.00185601 -0.0401314 -0.0280847 0.00177905 -0.0346801 -0.0287009 0.00244603 
-0.0240719 -0.0268296 0.00132566 -0.0419519 -0.0259749 0.00145719 -0.0338231 -0.0250135 0.00140326 
-0.00446216 -0.0255279 0.00180781 -0.00863888 -0.0237376 0.00145656 0.00179778 -0.0247441 0.00187849 
0.00538025 -0.0241403 0.00137341 -0.0350278 -0.0224863 0.00186885 -0.0127621 -0.0231756 0.00145128 
0.0240101 -0.0228809 0.00151497 0.035159 -0.023363 0.00211719 -0.0323128 -0.0219837 0.00250233 
-0.0164034 -0.0216001 0.00150511 0.0262592 -0.0217201 0.0024979 0.0218308 -0.0192565 0.00206994 
-0.0183202 -0.0175475 0.00251859 -0.0393221 -0.0167834 0.00177463 -0.0147645 -0.0165889 0.0018988 
-0.0408642 -0.0154151 0.00133669 0.0268005 -0.0146468 0.00126217 -0.0329121 -0.0139828 0.00132336 
-0.0313057 -0.0141988 0.00173534 0.0323804 -0.0132471 0.0024387 0.0403752 -0.0143085 0.00137838 
-0.0327621 -0.0121928 0.00180549 -0.0269092 -0.0125643 0.00155905 -0.0207563 -0.0111167 0.00140587 
0.0223025 -0.0112244 0.00167524 0.0342493 -0.0115037 0.0019432 0.0414517 -0.0114994 0.00258281 
-0.0449336 -0.00957357 0.00141541 -0.0136128 -0.00979682 0.00209604 -0.042331 -0.00792816 0.00134509 
-0.0343844 -0.0078404 0.00208811 -0.0304645 -0.00701594 0.00128113 -0.0211095 -0.00770044 0.00223996 
-0.00401126 -0.00720159 0.001365 0.0127657 -0.00746761 0.00231101 -0.00474481 -0.00600267 0.00198106 
0.0180565 -0.00487531 0.00164484 0.0180458 -0.00470109 0.0022098 -0.00941413 -0.00330341 0.00219756 
-0.0198668 -0.00211416 0.00221328 0.0168839 -0.00210364 0.00150124 -0.0376932 -0.000132947 0.00131518 
-0.0283489 -0.000417126 0.00236211 0.0140084 -6.89735e-05 0.00231605 -0.0416237 0.00110806 0.00142951 
0.0116524 0.00206193 0.00237175 0.0362421 0.00170773 0.0014071 0.00243665 0.00282786 0.0019633 
0.00314898 0.00491531 0.00217624 0.0260144 0.00429017 0.00224781 0.0277548 0.0042931 0.00226167 
-0.00723413 0.00605583 0.00134576 0.0320014 0.00756294 0.00217282 0.0142017 0.0079404 0.00141384 
0.0202046 0.00840095 0.00129083 0.023953 0.00820576 0.00228363 0.00474506 0.0103043 0.00135598 
0.0128044 0.0127337 0.00133238 0.014866 0.0127598 0.00132315 0.0261916 0.0119357 0.00134938 
0.0114764 0.0140289 0.00244006 -0.0196462 0.0155185 0.00130734 0.012585 0.0155082 0.00212365 
0.0153641 0.0146287 0.00106433 0.0440772 0.0154938 0.00203699 -0.0193355 0.018129 0.00242926 
0.00546842 0.0177814 0.00208303 0.0256029 0.0175394 0.00109472 0.00153271 0.0201988 0.00259231 
-0.0287332 0.0215601 0.0022444 -0.0122989 0.0222019 0.00177011 0.00126512 0.0228658 0.00231896 
-0.00782209 0.0241861 0.0017258 0.0181332 0.0246356 0.00162098 0.0258603 0.0235991 0.00135544 
0.000162142 0.0251126 0.00148223 -0.0128609 0.0265935 0.00228457 -0.0102477 0.0267602 0.00263539 
-0.0368667 0.0306348 0.0018833 -0.0260391 0.0304395 0.00278058 -0.0219587 0.0304934 0.00121522 
0.0354139 0.0312817 0.00237725 -0.0213481 0.0319153 0.00244257 -0.00435696 0.0325462 0.00131678 
0.0191028 0.0315895 0.00206083 0.0372507 0.0318783 0.00130332 -0.0425374 0.0333781 0.00219922 
0.00727395 0.0332762 0.00167406 0.0214431 0.0335886 0.00149529 -0.0422696 0.0340949 0.00254033 
-0.0407273 0.0358476 0.00217056 0.00888594 0.0360502 0.00217459 -0.00585061 0.0388609 0.00207959 
0.00513794 0.0433856 0.00182218 0.0114086 0.0440135 0.00133244 0.0352379 0.0438995 0.00137326 
0.0399235 0.0434757 0.00126327 -0.0160353 0.0448572 0.00260622 -0.0317519 -0.0446953 0.00323514 
0.0147823 -0.0446949 0.00336221 0.0262096 -0.0449372 0.00316402 -0.00396528 -0.0444182 0.00261942 
0.0201641 -0.0426709 0.00263279 0.0406519 -0.0427256 0.00364712 -0.0136468 -0.0412372 0.00290875 
0.0166138 -0.0412108 0.00239982 0.0339316 -0.041715 0.00288255 0.00849583 -0.0405939 0.00387255 
-0.0289295 -0.0389067 0.00313639 -0.0234086 -0.038644 0.00377882 -0.0195638 -0.0385913 0.0037479 
0.0325128 -0.03812 0.00363592 -0.00338111 -0.0363358 0.00330365 0.0307351 -0.0355434 0.00331233 
0.0355384 -0.0354155 0.00281358 -0.0179089 -0.0346335 0.00352724 -0.0177429 -0.0346724 0.00331657 
-8.23525e-05 -0.034098 0.00368294 0.043014 -0.0343178 0.00331242 -0.0177803 -0.0340186 0.00311071 
0.00264867 -0.0338128 0.00305259 -0.0233761 -0.031813 0.0031064 -0.0210092 -0.0320472 0.00381322 
-0.0396817 -0.0304797 0.00288806 -0.0220587 -0.0306349 0.00256404 -0.00682403 -0.0314098 0.00363458 
0.010226 -0.0308634 0.0034053 0.0392765 -0.0300093 0.00286819 0.0153133 -0.0285941 0.00307632 
-0.0432264 -0.0264101 0.00360229 0.0054016 -0.025334 0.00297576 0.0347572 -0.0260666 0.00309613 
0.00558373 -0.0242787 0.00272728 0.0102479 -0.024092 0.00250034 0.0210005 -0.0239559 0.00383082 
-0.038621 -0.0229432 0.0031893 -0.0139777 -0.0223984 0.0033385 0.0109547 -0.0235646 0.00279572 
-0.0291427 -0.0219343 0.00350385 0.0394323 -0.021923 0.00242456 -0.0210835 -0.0209207 0.00277199 
-0.0033641 -0.0204173 0.00277315 -0.0207996 -0.0190456 0.00377508 0.0134129 -0.0192809 0.00318521 
0.0272875 -0.0186725 0.00303302 0.0184681 -0.0172117 0.003535 0.0282033 -0.0178095 0.0030249 
0.0252581 -0.0163235 0.00282632 0.0296492 -0.015918 0.00326961 0.0132043 -0.01541 0.00352239 
0.0323803 -0.0150629 0.0025913 -0.0279963 -0.0141356 0.00355864 -0.00710141 -0.0133745 0.00387106 
0.00886689 -0.0141191 0.00385753 0.0144468 -0.013247 0.00302086 -0.00528066 -0.0121118 0.00328756 
0.0322358 -0.0130621 0.00341031 0.0347312 -0.012978 0.00383676 0.0253763 -0.011051 0.00380541 
-0.038829 -0.00978443 0.00240526 -0.0326334 -0.00963456 0.00213909 -0.0253401 -0.0103599 0.0030007 
0.0218314 -0.00971151 0.00391919 0.0334462 -0.00930086 0.00259388 -0.0214415 -0.007536 0.00244554 
-0.0150798 -0.00698339 0.00379575 -0.0101373 -0.00698039 0.00383213 0.0129906 -0.00677597 0.00302344 
-0.00720807 -0.00608605 0.00383107 -0.0253129 -0.0039775 0.00350345 0.0200271 -0.00425623 0.0028453 
0.0386193 -0.00496685 0.00336565 0.0448793 -0.00396119 0.00388906 -0.0107529 -0.00365687 0.00324589 
-0.0395569 -0.00227866 0.00314379 -0.0153419 -0.00108619 0.00293139 -0.000610522 -0.00103491 0.00254205 
0.00127443 -0.000618905 0.00390134 0.0420414 -0.00101026 0.00383194 -0.0332593 0.000859011 0.00329788 
-0.0131355 0.00164571 0.00396227 -0.00229178 0.0020129 0.00275889 0.0189244 0.00254502 0.00377362 
-0.0261639 0.00337815 0.00349459 -0.0233311 0.00384073 0.00280716 -0.0137512 0.00384646 0.00396713 
0.00265626 0.00371614 0.0028792 0.0183943 0.00266245 0.00305156 -0.0403489 0.00598291 0.00301942 
-0.01547 0.00642247 0.00390064 -0.00552594 0.00555795 0.00345302 0.0358407 0.00533501 0.00357539 
-0.0429246 0.00657681 0.00346927 -0.009285 0.00693532 0.00383032 -0.00598638 0.00689803 0.00304075 
0.0110904 0.00657535 0.00258474 -0.0442311 0.00821601 0.00403774 -0.019893 0.00878872 0.00264655 
-0.0105861 0.00898083 0.00258555 0.0324887 0.00836074 0.00287923 -0.0408306 0.00999374 0.0029377 
-0.0349081 0.00917553 0.00301577 0.0234497 0.00978487 0.00356022 0.027557 0.009967 0.003757 
-0.00808524 0.0113378 0.00369304 -0.00071691 0.0108932 0.00339303 0.00418285 0.0112423 0.00374824 
-0.00841171 0.0143034 0.00259179 0.012949 0.0143048 0.00298797 0.0396593 0.013993 0.00253366 
-0.0287818 0.014969 0.00383988 -0.0231109 0.0157017 0.00326986 -0.0408838 0.0159645 0.0036028 
-0.0286532 0.0159811 0.00382498 -0.0161548 0.0159009 0.00343068 -0.00317984 0.0164631 0.0038285 
-0.0436896 0.0195853 0.00382061 -0.0363159 0.0185996 0.00317614 0.00742845 0.0199749 0.00362419 
0.00976854 0.0197772 0.00274507 -0.0324762 0.0230005 0.00348954 -0.0148746 0.0223253 0.00266142 
-0.0436572 0.0238848 0.00375303 0.00264144 0.0247174 0.00246925 0.021223 0.0244832 0.0036136 
-0.0132251 0.0252506 0.00321893 -0.014478 0.0275162 0.00314946 0.0397191 0.0283771 0.00352805 
-0.0406313 0.0295913 0.00305924 -0.0152062 0.0294088 0.00304171 -0.032208 0.0306075 0.00302249 
0.0040127 0.0314243 0.00379048 0.0193546 0.0324404 0.00262778 0.0337272 0.0324898 0.00313825 
0.0380057 0.0324307 0.00382197 -0.0359241 0.0337864 0.00379204 0.0152528 0.033152 0.002997 
-0.00472634 0.0344449 0.00248894 0.0132394 0.0345575 0.00379367 0.0164577 0.0353116 0.0027122 
0.0278529 0.0342296 0.00332338 -0.00750544 0.0361316 0.00315503 0.00367032 0.0371324 0.00361762 
-0.039126 0.0399637 0.00376137 -0.0379532 0.0399341 0.00377717 0.00201585 0.0404036 0.00246312 
-0.00785852 0.041878 0.00370029 0.0430506 0.0422314 0.00371916 0.00528787 0.0432844 0.00265075 
-0.0390775 0.0447256 0.00334972 -0.0190394 0.0446837 0.00381138 -0.0389435 -0.0425966 0.0038905 
0.0156293 -0.0283842 0.00406442 0.0350196 -0.0250011 0.00386671 -0.0329608 -0.0218045 0.00429323 
0.0204492 -0.0194639 0.00394625 0.0352883 -0.0103067 0.00430994 -0.027449 0.00511055 0.00393293 
-0.0408092 0.00981999 0.00457914 -0.0122189 0.0175978 0.00423619 -0.0138035 0.0240512 0.00396473 
-0.0214233 0.0285543 0.00409878 0.0170579 0.0421878 0.00390574 -0.0336946 -0.0248459 0.00540818 
-0.0328109 -0.0226975 0.00482952 0.0302919 -0.0148257 0.00492351 -0.024842 -0.00884532 0.00461556 
-0.0371624 0.011326 0.00467134 0.00976298 0.0163696 0.00532383 -0.0245993 0.0193658 0.00545547 
0.0323341 0.0191974 0.00523034 -0.0197415 0.0344175 0.00508905 0.0439232 0.0371117 0.00449682 
0.00308146 0.0401468 0.0049801 -0.0281804 0.0418824 0.00556953 -0.0440308 0.0448256 0.0058991 
0.0185094 -0.042363 0.00616212 0.0419483 -0.0348097 0.00676143 0.0414834 -0.0181367 0.00633977 
0.039455 -0.000236508 0.00694862 0.0104707 0.0313218 0.00642081 -0.015788 -0.0282898 0.00746273 
0.0379188 0.0120326 0.00727114 -0.0420316 -0.0145538 0.00891492 -0.0155539 0.0359545 0.00968532 
-0.0437633 0.0406561 0.00944849 -0.0386256 -0.00983966 0.0102473 0.0133448 0.00646544 0.0108708 
-0.0385899 -0.0405251 0.0119553 0.0414788 -0.00521487 0.0121303 -0.0356048 -0.000104637 0.0122876 
-0.00521279 -0.0413279 0.0132144 0.0242571 -0.0100823 0.0132702 0.0154702 -0.00154679 0.0132409 
0.00347554 0.00338662 0.0132696 -0.0144089 0.0201081 0.0125562 -0.0296003 0.0277025 0.0126515 
0.0433204 -0.0141837 0.0147901 -0.0081225 0.0151775 0.0143205 -0.0256005 0.0215871 0.0150508 
0.0289145 -0.0340196 0.0152604 0.00357123 -0.00830953 0.0155017 0.0282359 -0.00877456 0.0158861 
-0.00757157 0.00454821 0.0163213 0.0131273 0.040817 0.0162759 0.0188903 -0.0308528 0.0174823 
-0.0207679 -0.0256315 0.0178879 0.00635633 0.000852437 0.0170279 0.00643655 -0.000956063 0.0185744 
-0.00254916 -0.00379952 0.0192863 0.00741479 -0.0295782 0.0228947 -0.0170112 0.0231088 0.0218593 

VERTICES 649 648
OFFSETS vtktypeint64
0 1 2 3 4 5 6 7 8 
9 10 11 12 13 14 15 16 17 
18 19 20 21 22 23 24 25 26 
27 28 29 30 31 32 33 34 35 
36 37 38 39 40 41 42 43 44 
45 46 47 48 49 50 51 52 53 
54 55 56 57 58 59 60 61 62 
63 64 65 66 67 68 69 70 71 
72 73 74 75 76 77 78 79 80 
81 82 83 84 85 86 87 88 89 
90 91 92 93 94 95 96 97 98 
99 100 101 102 103 104 105 106 107 
108 109 110 111 112 113 114 115 116 
117 118 119 120 121 122 123 124 125 
126 127 128 129 130 131 132 133 134 
135 136 137 138 139 140 141 142 143 
144 145 146 147 148 149 150 151 152 
153 154 155 156 157 158 159 160 161 
162 163 164 165 166 167 168 169 170 
171 172 173 174 175 176 177 178 179 
180 181 182 183 184 185 186 187 188 
189 190 191 192 193 194 195 196 197 
198 199 200 201 202 203 204 205 206 
207 208 209 210 211 212 213 214 215 
216 217 218 219 220 221 222 223 224 
225 226 227 228 229 230 231 232 233 
234 235 236 237 238 239 240 241 242 
243 244 245 246 247 248 249 250 251 
252 253 254 255 256 257 258 259 260 
261 262 263 264 265 266 267 268 269 
270 271 272 273 274 275 276 277 278 
279 280 281 282 283 284 285 286 287 
288 289 290 291 292 293 294 295 296 
297 298 299 300 301 302 303 304 305 
306 307 308 309 310 311 312 313 314 
315 316 317 318 319 320 321 322 323 
324 325 326 327 328 329 330 331 332 
333 334 335 336 337 338 339 340 341 
342 343 344 345 346 347 348 349 350 
351 352 353 354 355 356 357 358 359 
360 361 362 363 364 365 366 367 368 
369 370 371 372 373 374 375 376 377 
378 379 380 381 382 383 384 385 386 
387 388 389 390 391 392 393 394 395 
396 397 398 399 400 401 402 403 404 
405 406 407 408 409 410 411 412 413 
414 415 416 417 418 419 420 421 422 
423 424 425 426 427 428 429 430 431 
432 433 434 435 436 437 438 439 440 
441 442 443 444 445 446 447 448 449 
450 451 452 453 454 455 456 457 458 
459 460 461 462 463 464 465 466 467 
468 469 470 471 472 473 474 475 476 
477 478 479 480 481 482 483 484 485 
486 487 488 489 490 491 492 493 494 
495 496 497 498 499 500 501 502 503 
504 505 506 507 508 509 510 511 512 
513 514 515 516 517 518 519 520 521 
522 523 524 525 526 527 528 529 530 
531 532 533 534 535 536 537 538 539 
540 541 542 543 544 545 546 547 548 
549 550 551 552 553 554 555 556 557 
558 559 560 561 562 563 564 565 566 
567 568 569 570 571 572 573 574 575 
576 577 578 579 580 581 582 583 584 
585 586 587 588 589 590 591 592 593 
594 595 596 597 598 599 600 601 602 
603 604 605 606 607 608 609 610 611 
612 613 614 615 616 617 618 619 620 
621 622 623 624 625 626 627 628 629 
630 631 632 633 634 635 636 637 638 
639 640 641 642 643 644 645 646 647 
648 
CONNECTIVITY vtktypeint64
0 1 2 3 4 5 6 7 8 
9 10 11 12 13 14 15 16 17 
18 19 20 21 22 23 24 25 26 
27 28 29 30 31 32 33 34 35 
36 37 38 39 40 41 42 43 44 
45 46 47 48 49 50 51 52 53 
54 55 56 57 58 59 60 61 62 
63 64 65 66 67 68 69 70 71 
72 73 74 75 76 77 78 79 80 
81 82 83 84 85 86 87 88 89 
90 91 92 93 94 95 96 97 98 
99 100 101 102 103 104 105 106 107 
108 109 110 111 112 113 114 115 116 
117 118 119 120 121 122 123 124 125 
126 127 128 129 130 131 132 133 134 
135 136 137 138 139 140 141 142 143 
144 145 146 147 148 149 150 151 152 
153 154 155 156 157 158 159 160 161 
162 163 164 165 166 167 168 169 170 
171 172 173 174 175 176 177 178 179 
180 181 182 183 184 185 186 187 188 
189 190 191 192 193 194 195 196 197 
198 199 200 201 202 203 204 205 206 
207 208 209 210 211 212 213 214 215 
216 217 218 219 220 221 222 223 224 
225 226 227 228 229 230 231 232 233 
234 235 236 237 238 239 240 241 242 
243 244 245 246 247 248 249 250 251 
252 253 254 255 256 257 258 259 260 
261 262 263 264 265 266 267 268 269 
270 271 272 273 274 275 276 277 278 
279 280 281 282 283 284 285 286 287 
288 289 290 291 292 293 294 295 296 
297 298 299 300 301 302 303 304 305 
306 307 308 309 310 311 312 313 314 
315 316 317 318 319 320 321 322 323 
324 325 326 327 328 329 330 331 332 
333 334 335 336 337 338 339 340 341 
342 343 344 345 346 347 348 349 350 
351 352 353 354 355 356 357 358 359 
360 361 362 363 364 365 366 367 368 
369 370 371 372 373 374 375 376 377 
378 379 380 381 382 383 384 385 386 
387 388 389 390 391 392 393 394 395 
396 397 398 399 400 401 402 403 404 
405 406 407 408 409 410 411 412 413 
414 415 416 417 418 419 420 421 422 
423 424 425 426 427 428 429 430 431 
432 433 434 435 436 437 438 439 440 
441 442 443 444 445 446 447 448 449 
450 451 452 453 454 455 456 457 458 
459 460 461 462 463 464 465 466 467 
468 469 470 471 472 473 474 475 476 
477 478 479 480 481 482 483 484 485 
486 487 488 489 490 491 492 493 494 
495 496 497 498 499 500 501 502 503 
504 505 506 507 508 509 510 511 512 
513 514 515 516 517 518 519 520 521 
522 523 524 525 526 527 528 529 530 
531 532 533 534 535 536 537 538 539 
540 541 542 543 544 545 546 547 548 
549 550 551 552 553 554 555 556 557 
558 559 560 561 562 563 564 565 566 
567 568 569 570 571 572 573 574 575 
576 577 578 579 580 581 582 583 584 
585 586 587 588 589 590 591 592 593 
594 595 596 597 598 599 600 601 602 
603 604 605 606 607 608 609 610 611 
612 613 614 615 616 617 618 619 620 
621 622 623 624 625 626 627 628 629 
630 631 632 633 634 635 636 637 638 
639 640 641 642 643 644 645 646 647 

POINT_DATA 648
FIELD FieldData 12
id 1 648 int
164 275 98 463 366 200 188 84 346 
31 113 414 390 140 218 562 457 577 
207 271 134 256 87 35 99 314 326 
508 34 92 459 115 356 22 82 226 
24 436 367 319 88 605 571 51 347 
589 477 303 404 570 543 304 185 107 
352 137 295 139 294 96 331 445 128 
409 291 645 183 121 190 267 71 282 
449 64 167 472 237 317 174 28 470 
479 154 440 238 274 439 298 247 289 
355 496 572 73 176 444 170 374 381 
168 240 194 58 612 59 215 380 349 
106 292 227 248 231 428 127 427 483 
157 293 311 324 260 53 72 32 6 
336 278 615 368 383 243 377 299 567 
370 515 125 263 57 385 257 20 592 
360 151 135 542 132 66 341 83 465 
196 36 175 90 186 538 334 86 56 
418 458 216 141 503 495 407 478 456 
546 396 467 353 474 454 126 450 426 
423 129 165 261 197 288 497 255 214 
420 601 432 373 345 181 262 60 273 
401 384 297 169 119 322 46 150 491 
310 395 236 63 202 469 308 220 193 
40 433 339 54 392 110 417 443 364 
447 117 161 357 521 149 166 33 49 
337 18 529 279 287 330 254 104 219 
109 189 206 100 162 195 163 408 637 
498 30 280 199 461 410 509 451 504 
321 114 506 488 187 343 201 158 81 
268 26 327 253 148 29 348 270 85 
313 251 233 232 437 182 362 198 320 
559 413 246 328 536 76 318 155 435 
386 361 412 62 372 91 108 406 375 
397 272 55 438 230 93 591 429 549 
411 102 626 122 487 159 489 69 229 
156 505 5 333 393 103 548 502 354 
13 574 415 604 493 116 484 526 416 
323 329 576 160 573 558 539 618 462 
143 290 500 306 530 211 146 8 585 
599 628 638 554 264 95 563 399 511 
42 27 557 11 252 142 405 371 204 
205 265 75 208 61 244 593 379 613 
486 556 424 112 510 338 378 21 446 
633 178 560 622 358 184 587 118 561 
138 431 394 14 12 507 9 266 535 
594 269 419 623 583 222 481 94 455 
225 235 550 309 286 45 586 302 475 
351 614 242 241 534 89 203 471 68 
52 597 136 312 173 210 359 67 492 
344 402 518 388 47 350 616 239 307 
525 250 398 283 533 147 527 532 430 
79 223 234 37 513 192 547 111 403 
25 177 44 516 551 517 553 422 376 
74 276 490 441 460 43 566 259 340 
16 617 23 101 38 10 522 39 580 
224 285 105 133 50 171 382 217 564 
365 80 389 499 565 77 519 212 300 
598 305 501 245 545 153 301 425 213 
528 316 124 144 145 453 400 296 480 
442 221 464 17 41 363 48 70 315 
228 468 473 152 485 281 514 130 325 
191 520 78 131 369 179 524 540 596 
332 65 180 466 494 579 387 391 552 
421 452 482 523 249 123 277 19 342 
476 172 258 120 335 578 448 3 284 
4 7 97 209 434 581 541 537 569 
595 15 582 607 600 531 643 555 639 
635 584 603 2 611 629 620 590 624 
575 544 512 648 647 568 632 1 610 
641 625 609 644 619 646 634 608 602 
631 606 636 627 630 621 642 640 588 

type 1 648 int
1 1 1 1 1 1 1 1 1 
1 1 1 1 1 1 1 1 1 
1 1 1 1 1 1 1 1 1 
1 1 1 1 1 1 1 1 1 
1 1 1 1 1 1 1 1 1 
1 1 1 1 1 1 1 1 1 
1 1 1 1 1 1 1 1 1 
1 1 1 1 1 1 1 1 1 
1 1 1 1 1 1 1 1 1 
1 1 1 1 1 1 1 1 1 
1 1 1 1 1 1 1 1 1 
1 1 1 1 1 1 1 1 1 
1 1 1 1 1 1 1 1 1 
1 1 1 1 1 1 1 1 2 
1 1 1 1 1 1 1 1 1 
1 1 1 1 1 1 1 1 1 
1 1 1 1 1 1 1 1 1 
1 1 1 1 1 1 1 1 1 
1 1 1 1 1 1 1 1 1 
1 1 1 1 1 1 1 1 1 
1 1 1 1 1 1 1 1 1 
1 1 1 1 1 1 1 1 1 
1 1 1 1 1 1 1 1 1 
1 1 1 1 1 1 1 1 1 
1 1 1 1 1 1 1 1 1 
1 1 1 1 1 1 1 1 1 
1 1 1 1 1 1 1 1 1 
1 1 1 1 1 1 1 1 1 
1 1 1 1 1 1 1 1 1 
1 1 1 1 1 1 1 1 1 
1 1 1 1 1 1 1 1 1 
1 1 1 1 1 1 1 1 1 
1 1 1 1 1 1 1 1 1 
1 1 1 1 1 1 1 1 1 
1 1 1 1 1 1 1 1 1 
1 1 1 1 1 1 1 1 1 
1 1 2 1 1 1 1 1 1 
2 1 1 1 1 1 1 1 1 
1 1 1 1 1 1 1 1 1 
1 1 1 1 1 1 1 2 1 
1 1 1 1 1 1 1 1 1 
1 1 1 2 1 1 1 1 1 
1 1 1 1 1 1 1 1 1 
1 1 1 1 1 1 1 1 1 
1 1 1 1 1 1 1 1 1 
1 1 1 2 2 1 2 1 1 
1 1 1 1 1 1 1 1 1 
1 1 1 1 1 1 1 1 1 
1 1 1 1 1 1 1 1 1 
1 1 1 1 1 1 1 1 1 
1 1 1 1 1 1 1 1 1 
1 1 1 1 1 1 1 1 1 
1 1 1 1 1 1 1 1 1 
1 1 1 2 1 1 1 1 1 
1 1 1 1 1 1 1 1 1 
2 1 1 1 1 2 1 1 1 
1 1 1 1 1 1 1 1 1 
1 1 1 1 1 1 1 1 1 
1 1 1 1 1 1 1 1 1 
1 1 1 1 1 1 1 1 1 
1 1 1 1 1 1 1 1 1 
1 1 1 1 1 1 1 1 1 
1 1 1 1 1 1 1 1 1 
1 1 1 1 1 1 1 1 1 
1 1 1 1 1 1 1 1 1 
1 1 1 1 1 1 1 2 1 
2 2 1 1 1 1 1 1 1 
1 2 1 1 1 1 1 1 1 
1 1 1 3 1 1 1 1 1 
1 1 2 1 1 1 1 4 1 
1 1 1 1 1 1 2 1 1 
1 1 1 1 1 1 1 1 1 

i 3 648 int
0 0 0 0 0 0 0 0 0 
0 0 0 0 0 0 0 0 0 
0 0 0 0 0 0 0 0 0 
0 0 0 0 0 0 0 0 0 
0 0 0 0 0 0 0 0 0 
0 0 0 0 0 0 0 0 0 
0 0 0 0 0 0 0 0 0 
0 0 0 0 0 0 0 0 0 
0 0 0 0 0 0 0 0 0 
0 0 0 0 0 0 0 0 0 
0 0 0 0 0 0 0 0 0 
0 0 0 0 0 0 0 0 0 
0 0 0 0 0 0 0 0 0 
0 0 0 0 0 0 0 0 0 
0 0 0 0 0 0 0 0 0 
0 0 0 0 0 0 0 0 0 
0 0 0 0 0 0 0 0 0 
0 0 0 0 0 0 0 0 0 
0 0 0 0 0 0 0 0 0 
0 0 0 0 0 0 0 0 0 
0 0 0 0 0 0 0 0 0 
0 0 0 0 0 0 0 0 0 
0 0 0 0 0 0 0 0 0 
0 0 0 0 0 0 0 0 0 
0 0 0 0 0 0 0 0 0 
0 0 0 0 0 0 0 0 0 
0 0 0 0 0 0 0 0 0 
0 0 0 0 0 0 0 0 0 
0 0 0 0 0 0 0 0 0 
0 0 0 0 0 0 0 0 0 
0 0 0 0 0 0 0 0 0 
0 0 0 0 0 0 0 0 0 
0 0 0 0 0 0 0 0 0 
0 0 0 0 0 0 0 0 0 
0 0 0 0 0 0 0 0 0 
0 0 0 0 0 0 0 0 0 
0 0 0 0 0 0 0 0 0 
0 0 0 0 0 0 0 0 0 
0 0 0 0 0 0 0 0 0 
0 0 0 0 0 0 0 0 0 
0 0 0 0 0 0 0 0 0 
0 0 0 0 0 0 0 0 0 
0 0 0 0 0 0 0 0 0 
0 0 0 0 0 0 0 0 0 
0 0 0 0 0 0 0 0 0 
0 0 0 0 0 0 0 0 0 
0 0 0 0 0 0 0 0 0 
0 0 0 0 0 0 0 0 0 
0 0 0 0 0 0 0 0 0 
0 0 0 0 0 0 0 0 0 
0 0 0 0 0 0 0 0 0 
0 0 0 0 0 0 0 0 0 
0 0 0 0 0 0 0 0 0 
0 0 0 0 0 0 0 0 0 
0 0 0 0 0 0 0 0 0 
0 0 0 0 0 0 0 0 0 
0 0 0 0 0 0 0 0 0 
0 0 0 0 0 0 0 0 0 
0 0 0 0 0 0 0 0 0 
0 0 0 0 0 0 0 0 0 
0 0 0 0 0 0 0 0 0 
0 0 0 0 0 0 0 0 0 
0 0 0 0 0 0 0 0 0 
0 0 0 0 0 0 0 0 0 
0 0 0 0 0 0 0 0 0 
0 0 0 0 0 0 0 0 0 
0 0 0 0 0 0 0 0 0 
0 0 0 0 0 0 0 0 0 
0 0 0 0 0 0 0 0 0 
0 0 0 0 0 0 0 0 0 
0 0 0 0 0 0 0 0 0 
0 0 0 0 0 0 0 0 0 
0 0 0 0 0 0 0 0 0 
0 0 0 0 0 0 0 0 0 
0 0 0 0 0 0 0 0 0 
0 0 0 0 0 0 0 0 0 
0 0 0 0 0 0 0 0 0 
0 0 0 0 0 0 0 0 0 
0 0 0 0 0 0 0 0 0 
0 0 0 0 0 0 0 0 0 
0 0 0 0 0 0 0 0 0 
0 0 0 0 0 0 0 0 0 
0 0 0 0 0 0 0 0 0 
0 0 0 0 0 0 0 0 0 
0 0 0 0 0 0 0 0 0 
0 0 0 0 0 0 0 0 0 
0 0 0 0 0 0 0 0 0 
0 0 0 0 0 0 0 0 0 
0 0 0 0 0 0 0 0 0 
0 0 0 0 0 0 0 0 0 
0 0 0 0 0 0 0 0 0 
0 0 0 0 0 0 0 0 0 
0 0 0 0 0 0 0 0 0 
0 0 0 0 0 0 0 0 0 
0 0 0 0 0 0 0 0 0 
0 0 0 0 0 0 0 0 0 
0 0 0 0 0 0 0 0 0 
0 0 0 0 0 0 0 0 0 
0 0 0 0 0 0 0 0 0 
0 0 0 0 0 0 0 0 0 
0 0 0 0 0 0 0 0 0 
0 0 0 0 0 0 0 0 0 
0 0 0 0 0 0 0 0 0 
0 0 0 0 0 0 0 0 0 
0 0 0 0 0 0 0 0 0 
0 0 0 0 0 0 0 0 0 
0 0 0 0 0 0 0 0 0 
0 0 0 0 0 0 0 0 0 
0 0 0 0 0 0 0 0 0 
0 0 0 0 0 0 0 0 0 
0 0 0 0 0 0 0 0 0 
0 0 0 0 0 0 0 0 0 
0 0 0 0 0 0 0 0 0 
0 0 0 0 0 0 0 0 0 
0 0 0 0 0 0 0 0 0 
0 0 0 0 0 0 0 0 0 
0 0 0 0 0 0 0 0 0 
0 0 0 0 0 0 0 0 0 
0 0 0 0 0 0 0 0 0 
0 0 0 0 0 0 0 0 0 
0 0 0 0 0 0 0 0 0 
0 0 0 0 0 0 0 0 0 
0 0 0 0 0 0 0 0 0 
0 0 0 0 0 0 0 0 0 
0 0 0 0 0 0 0 0 0 
0 0 0 0 0 0 0 0 0 
0 0 0 0 0 0 0 0 0 
0 0 0 0 0 0 0 0 0 
0 0 0 0 0 0 0 0 0 
0 0 0 0 0 0 0 0 0 
0 0 0 0 0 0 0 0 0 
0 0 0 0 0 0 0 0 0 
0 0 0 0 0 0 0 0 0 
0 0 0 0 0 0 0 0 0 
0 0 0 0 0 0 0 0 0 
0 0 0 0 0 0 0 0 0 
0 0 0 0 0 0 0 0 0 
0 0 0 0 0 0 0 0 0 
0 0 0 0 0 0 0 0 0 
0 0 0 0 0 0 0 0 0 
0 0 0 0 0 0 0 0 0 
0 0 0 0 0 0 0 0 0 
0 0 0 0 0 0 0 0 0 
0 0 0 0 0 0 0 0 0 
0 0 0 0 0 0 0 0 0 
0 0 0 0 0 0 0 0 0 
0 0 0 0 0 0 0 0 0 
0 0 0 0 0 0 0 0 0 
0 0 0 0 0 0 0 0 0 
0 0 0 0 0 0 0 0 0 
0 0 0 0 0 0 0 0 0 
0 0 0 0 0 0 0 0 0 
0 0 0 0 0 0 0 0 0 
0 0 0 0 0 0 0 0 0 
0 0 0 0 0 0 0 0 0 
0 0 0 0 0 0 0 0 0 
0 0 0 0 0 0 0 0 0 
0 0 0 0 0 0 0 0 0 
0 0 0 0 0 0 0 0 0 
0 0 0 0 0 0 0 0 0 
0 0 0 0 0 0 0 0 0 
0 0 0 0 0 0 0 0 0 
0 0 0 0 0 0 0 0 0 
0 0 0 0 0 0 0 0 0 
0 0 0 0 0 0 0 0 0 
0 0 0 0 0 0 0 0 0 
0 0 0 0 0 0 0 0 0 
0 0 0 0 0 0 0 0 0 
0 0 0 0 0 0 0 0 0 
0 0 0 0 0 0 0 0 0 
0 0 0 0 0 0 0 0 0 
0 0 0 0 0 0 0 0 0 
0 0 0 0 0 0 0 0 0 
0 0 0 0 0 0 0 0 0 
0 0 0 0 0 0 0 0 0 
0 0 0 0 0 0 0 0 0 
0 0 0 0 0 0 0 0 0 
0 0 0 0 0 0 0 0 0 
0 0 0 0 0 0 0 0 0 
0 0 0 0 0 0 0 0 0 
0 0 0 0 0 0 0 0 0 
0 0 0 0 0 0 0 0 0 
0 0 0 0 0 0 0 0 0 
0 0 0 0 0 0 0 0 0 
0 0 0 0 0 0 0 0 0 
0 0 0 0 0 0 0 0 0 
0 0 0 0 0 0 0 0 0 
0 0 0 0 0 0 0 0 0 
0 0 0 0 0 0 0 0 0 
0 0 0 0 0 0 0 0 0 
0 0 0 0 0 0 0 0 0 
0 0 0 0 0 0 0 0 0 
0 0 0 0 0 0 0 0 0 
0 0 0 0 0 0 0 0 0 
0 0 0 0 0 0 0 0 0 
0 0 0 0 0 0 0 0 0 
0 0 0 0 0 0 0 0 0 
0 0 0 0 0 0 0 0 0 
0 0 0 0 0 0 0 0 0 
0 0 0 0 0 0 0 0 0 
0 0 0 0 0 0 0 0 0 
0 0 0 0 0 0 0 0 0 
0 0 0 0 0 0 0 0 0 
0 0 0 0 0 0 0 0 0 
0 0 0 0 0 0 0 0 0 
0 0 0 0 0 0 0 0 0 
0 0 0 0 0 0 0 0 0 
0 0 0 0 0 0 0 0 0 
0 0 0 0 0 0 0 0 0 
0 0 0 0 0 0 0 0 0 
0 0 0 0 0 0 0 0 0 
0 0 0 0 0 0 0 0 0 
0 0 0 0 0 0 0 0 0 
0 0 0 0 0 0 0 0 0 
0 0 0 0 0 0 0 0 0 
0 0 0 0 0 0 0 0 0 

v 3 648 double
0 0 3.2413285931e-14 0 0 -0.0226998826 0 0 0.0030382265967 
0 0 3.2413285929e-14 0 0 8.0432447451e-14 0 0 3.2413290076e-14 
0 0 -0.023756103986 0 0 -0.0091978541324 0 0 -0.0048923092862 
0 0 -0.025938242645 0 0 -0.019477575764 0 0 0.019829198309 
0 0 -0.021491766923 0 0 8.0432443483e-14 0 0 8.0432443462e-14 
0 0 -0.018791087531 0 0 8.0432443502e-14 0 0 0.024444771467 
0 0 -1.5605880166e-14 0 0 0.020006871699 0 0 8.0432447366e-14 
0 0 8.0432443586e-14 0 0 0.0001485093344 0 0 8.0432443653e-14 
0 0 9.8621343042e-05 0 0 -0.018370698117 0 0 0.003573919407 
0 0 3.241328596e-14 0 0 8.0432443647e-14 0 0 3.2413286072e-14 
0 0 3.2413289944e-14 0 0 3.2413286006e-14 0 0 -1.5605879955e-14 
0 0 -0.022728913221 0 0 -0.0061219550861 0 0 0.0035883633826 
0 0 3.2413286102e-14 0 0 0.010627377302 0 0 8.0432447578e-14 
0 0 -0.02393693627 0 0 8.0432443439e-14 0 0 0.0086711925205 
0 0 0.00063789182479 0 0 8.0432447536e-14 0 0 3.241329003e-14 
0 0 0.024452422027 0 0 0.0011078028729 0 0 3.2413289948e-14 
0 0 3.2413290061e-14 0 0 0.02253150389 0 0 -3.1805552821e-05 
0 0 3.2413289938e-14 0 0 8.0432447378e-14 0 0 8.0432447469e-14 
0 0 -0.0081088459555 0 0 8.0432443568e-14 0 0 0.035541571798 
0 0 0.0035822373045 0 0 -0.0015980365058 0 0 0.036311892004 
0 0 8.0432443464e-14 0 0 0.0073306252642 0 0 3.2413286112e-14 
0 0 -0.021281159111 0 0 3.2413289856e-14 0 0 0.017359670359 
0 0 0.010295653139 0 0 8.0432443435e-14 0 0 3.2413289933e-14 
0 0 3.2413285961e-14 0 0 -0.024210579902 0 0 8.0432447432e-14 
0 0 0.0082322979339 0 0 3.241328999e-14 0 0 0.0009141618719 
0 0 8.043244354e-14 0 0 -1.5605880089e-14 0 0 8.0432447426e-14 
0 0 0.0041709956779 0 0 0.033318881347 0 0 8.0432443599e-14 
0 0 -0.0015320078634 0 0 8.0432443456e-14 0 0 0.0025868662077 
0 0 3.2413289963e-14 0 0 0.018741523501 0 0 8.0432443441e-14 
0 0 -0.030187561982 0 0 3.2413290005e-14 0 0 -1.5605879989e-14 
0 0 3.2413286097e-14 0 0 -0.0012200000055 0 0 0.005182517636 
0 0 3.2413289869e-14 0 0 8.0432447375e-14 0 0 8.0432443553e-14 
0 0 0.024391904749 0 0 -0.01248327143 0 0 3.2413289871e-14 
0 0 8.1057567599e-14 0 0 -0.016007577605 0 0 -0.0089807683947 
0 0 3.241328991e-14 0 0 -0.00041537440228 0 0 0.020062746043 
0 0 -1.5605880133e-14 0 0 -0.017630605305 0 0 0.0012340927953 
0 0 3.2413290023e-14 0 0 8.043244346e-14 0 0 8.0432443472e-14 
0 0 0.0014933042338 0 0 3.2413289993e-14 0 0 8.0432447411e-14 
0 0 3.241328986e-14 0 0 0.0001766447816 0 0 -0.0099547955364 
0 0 8.0432443515e-14 0 0 8.0432443474e-14 0 0 0.026099492792 
0 0 3.2413290061e-14 0 0 -0.0023930641934 0 0 0.022797986117 
0 0 8.0432443602e-14 0 0 0.013849142773 0 0 0.0055026015337 
0 0 -1.5605880027e-14 0 0 0.012896904384 0 0 0.00034697781832 
0 0 0.007966244038 0 0 3.2413285982e-14 0 0 8.043244364e-14 
0 0 0.027918794799 0 0 8.043244362e-14 0 0 -0.025041036912 
0 0 8.0432447573e-14 0 0 8.0432443539e-14 0 0 3.2413289846e-14 
0 0 0.011528929799 0 0 8.0432443644e-14 0 0 -1.5605880028e-14 
0 0 0.0085987636927 0 0 0.017428677525 0 0 0.024108295599 
0 0 -0.027784645117 0 0 0.011207171812 0 0 -0.027460671928 
0 0 0.00021711970413 0 0 3.2413286008e-14 0 0 3.2413289914e-14 
0 0 -0.010416466981 0 0 8.0432447404e-14 0 0 -1.560588404e-14 
0 0 0.025613184373 0 0 8.0432443503e-14 0 0 3.24132899e-14 
0 0 -0.01080643379 0 0 3.2413289968e-14 0 0 8.0432443482e-14 
0 0 8.0432443528e-14 0 0 -1.5605879994e-14 0 0 -0.001582647589 
0 0 8.0432443491e-14 0 0 8.0432443537e-14 0 0 -0.0010184490891 
0 0 8.0432443641e-14 0 0 0.019358770232 0 0 0.0062475900039 
0 0 8.0432443498e-14 0 0 3.2413285952e-14 0 0 8.0432443535e-14 
0 0 0.0089736067042 0 0 8.0432443665e-14 0 0 8.0432447559e-14 
0 0 3.2413289844e-14 0 0 0.036803278969 0 0 8.9171342083e-05 
0 0 0.024281032454 0 0 8.0432447373e-14 0 0 0.0065479624247 
0 0 -1.5605880048e-14 0 0 3.2413285933e-14 0 0 -1.5605880065e-14 
0 0 8.0432443639e-14 0 0 3.2413289894e-14 0 0 3.2413286133e-14 
0 0 0.012177546753 0 0 3.241328603e-14 0 0 3.2413286034e-14 
0 0 3.2413290022e-14 0 0 -0.000116452744 0 0 8.0432443489e-14 
0 0 8.0432447365e-14 0 0 0.0093556126125 0 0 0.0074272800011 
0 0 0.031556099428 0 0 8.0432443515e-14 0 0 -0.023876199365 
0 0 8.0432443578e-14 0 0 0.010511715082 0 0 8.0432443443e-14 
0 0 3.2413285951e-14 0 0 0.032660901561 0 0 3.2413290037e-14 
0 0 -0.00021164734894 0 0 8.0432447588e-14 0 0 8.043244739e-14 
0 0 8.0432443526e-14 0 0 0.025444382445 0 0 -0.0069514585135 
0 0 0.0106413724 0 0 8.0432443646e-14 0 0 0.0049214111375 
0 0 0.00045579016545 0 0 0.027630371867 0 0 8.0432443436e-14 
0 0 8.0432447496e-14 0 0 8.043244366e-14 0 0 8.0432443654e-14 
0 0 -0.013850858907 0 0 0.00056840664524 0 0 8.0432443436e-14 
0 0 -0.0020276051468 0 0 -0.0044219511286 0 0 3.2413290061e-14 
0 0 -0.015355309114 0 0 -0.010575723291 0 0 -0.014676159652 
0 0 -0.018568197529 0 0 3.2413285938e-14 0 0 8.0432447477e-14 
0 0 -1.5605883967e-14 0 0 0.018682508441 0 0 8.043244349e-14 
0 0 0.0059496959131 0 0 8.0432447524e-14 0 0 0.017470021428 
0 0 0.024446010188 0 0 0.01177928608 0 0 0.0093607147451 
0 0 0.0016311692001 0 0 -0.015088528329 0 0 3.2413286037e-14 
0 0 -0.0030054281583 0 0 -1.5605880188e-14 0 0 0.028884278188 
0 0 0.0010588140673 0 0 0.00072182238749 0 0 3.2413286009e-14 
0 0 3.2413289873e-14 0 0 0.0022068682853 0 0 0.068209962248 
0 0 0.024513535668 0 0 0.0069563863912 0 0 -0.01169422912 
0 0 0.0029571698247 0 0 8.0432447579e-14 0 0 8.0432443667e-14 
0 0 0.010395291556 0 0 0.019396281846 0 0 8.0432443539e-14 
0 0 -0.0036118047638 0 0 0.015609473837 0 0 8.0432447534e-14 
0 0 8.0432443664e-14 0 0 3.2413290066e-14 0 0 0.011071730692 
0 0 3.2413285974e-14 0 0 3.2413289863e-14 0 0 0.0048333514504 
0 0 -0.0018894973144 0 0 -1.5605880032e-14 0 0 8.0432447369e-14 
0 0 8.0432447474e-14 0 0 8.0432447568e-14 0 0 -6.3625037731e-14 
0 0 0.0032810485324 0 0 8.0432443508e-14 0 0 3.2413285921e-14 
0 0 0.0064826412571 0 0 8.0432447538e-14 0 0 8.0432443667e-14 
0 0 0.0052448947234 0 0 -0.005298187717 0 0 0.018360457351 
0 0 3.2413289953e-14 0 0 0.021544619054 0 0 8.0432443615e-14 
0 0 0.016585178675 0 0 0.018633564092 0 0 8.0432447367e-14 
0 0 3.2413285923e-14 0 0 0.025328606564 0 0 0.0093523810038 
0 0 8.0432447546e-14 0 0 3.2413289965e-14 0 0 0.00017417964768 
0 0 8.04324474e-14 0 0 0.0038129285441 0 0 8.0432443557e-14 
0 0 8.0432443442e-14 0 0 3.241328594e-14 0 0 -0.026926066095 
0 0 -0.0011275552144 0 0 -0.0017614249903 0 0 -0.014621147341 
0 0 0.015373861875 0 0 0.00024835114314 0 0 -0.017426028031 
0 0 -0.013678097644 0 0 0.088975851634 0 0 -0.058745963732 
0 0 -0.06748688576 0 0 0.0079196003361 0 0 -0.034917418903 
0 0 -0.00050411280023 0 0 -0.070032564646 0 0 0.034828200361 
0 0 -0.016144903306 0 0 -0.077501011559 0 0 -0.075917970048 
0 0 0.011495522481 0 0 -0.073540082777 0 0 -0.019301659288 
0 0 -0.061964759418 0 0 -0.013822857977 0 0 -0.090271568557 
0 0 0.0024971743948 0 0 -0.065526446152 0 0 -0.060242065382 
0 0 0.064479666528 0 0 -0.072507420198 0 0 -0.044745458581 
0 0 -0.10596149918 0 0 -0.21130520185 0 0 -0.010978648705 
0 0 -0.040244033227 0 0 -0.073081531509 0 0 -0.061388494973 
0 0 0.0068604230799 0 0 -0.056480215921 0 0 -0.072224178683 
0 0 -0.070903261973 0 0 -0.07066358828 0 0 -0.025943843865 
0 0 -0.079801715228 0 0 0.033840785513 0 0 0.076300563862 
0 0 0.04343975678 0 0 -0.22823565465 0 0 -0.067313259789 
0 0 -0.080762163779 0 0 -0.024033766822 0 0 -0.019790280298 
0 0 -0.05925637609 0 0 0.058566434291 0 0 0.0031996126975 
0 0 -0.079572409452 0 0 0.024231397525 0 0 -0.23220633683 
0 0 0.077057482934 0 0 0.050445210607 0 0 -0.0020007236415 
0 0 -0.23566323499 0 0 -0.048870972719 0 0 -0.067656178382 
0 0 -0.048792541371 0 0 -0.023242732212 0 0 -0.048745640022 
0 0 -0.010758340319 0 0 0.082451301966 0 0 0.057658698772 
0 0 -0.017658372349 0 0 -0.071571303798 0 0 -0.068665378447 
0 0 -0.055164593763 0 0 -0.070526457289 0 0 -0.00082153613614 
0 0 -0.065767528777 0 0 -0.065964111781 0 0 0.0065841337388 
0 0 -0.066498615872 0 0 0.012740661072 0 0 -0.075059520324 
0 0 -0.024880810411 0 0 -0.05296618203 0 0 0.063405793647 
0 0 0.00027058366348 0 0 0.060178548241 0 0 -0.0099666936267 
0 0 -0.013762176447 0 0 0.05683732502 0 0 0.013190250495 
0 0 -0.00980488159 0 0 -0.0076796400447 0 0 0.0086263203677 
0 0 0.012261178581 0 0 -0.0015186351696 0 0 0.07045063258 
0 0 0.079724852407 0 0 -0.057868999454 0 0 -0.040892055175 
0 0 -0.04778816312 0 0 -0.079343167082 0 0 0.059198449646 
0 0 -0.064739923409 0 0 -0.077675642569 0 0 -0.067394348977 
0 0 0.0028137869634 0 0 -0.01589845104 0 0 -0.0096804161527 
0 0 0.028611169336 0 0 -0.056060759151 0 0 0.010326922196 
0 0 0.059101188042 0 0 0.073327641981 0 0 -0.069634895482 
0 0 0.058534027281 0 0 -0.010211513289 0 0 -0.010038072291 
0 0 -0.061808202648 0 0 -0.0080945706518 0 0 -0.055454494579 
0 0 -0.068909552447 0 0 -0.063606857405 0 0 0.048483656435 
0 0 -0.064760840762 0 0 -0.059084142378 0 0 -0.072218376745 
0 0 -0.2275771433 0 0 -0.0045304148028 0 0 0.0031994641861 
0 0 -0.018630728017 0 0 0.0005097728348 0 0 -0.0026867817329 
0 0 0.050845085158 0 0 -0.0036030135269 0 0 -0.059326212601 
0 0 -0.050412700616 0 0 -0.025698100505 0 0 -0.050644741237 
0 0 -0.067625415408 0 0 0.026021901146 0 0 -0.009945922478 
0 0 -0.012810657886 0 0 0.023385797645 0 0 -0.015834898594 
0 0 -0.023552900361 0 0 0.012391336013 0 0 0.0069773906795 
0 0 -0.047956461489 0 0 0.003840846711 0 0 -0.019189795229 
0 0 -0.01528938597 0 0 0.0015255452948 0 0 -0.044444045257 
0 0 0.027647853747 0 0 -0.048662660349 0 0 -0.0067114517996 
0 0 0.027771451003 0 0 -0.061718345779 0 0 0.043081847271 
0 0 0.008238087148 0 0 -0.011167531613 0 0 -0.045035252712 
0 0 0.020491114556 0 0 0.0082292247025 0 0 -0.03654627355 
0 0 -0.058262239874 0 0 -0.070749563471 0 0 -0.0037595476267 
0 0 0.014443313637 0 0 0.039093387691 0 0 -0.030485670453 
0 0 0.0088563906215 0 0 -0.067054890386 0 0 -0.05439090623 
0 0 -0.054127870208 0 0 -0.012062026299 0 0 -0.0095194857172 
0 0 0.087332175033 0 0 -0.0016048734711 0 0 0.019643607369 
0 0 -0.043839996426 0 0 -0.0043639664103 0 0 -0.030135502885 
0 0 -0.061447505075 0 0 -0.031111761006 0 0 0.00046530151184 
0 0 -0.0047730248252 0 0 -0.047334637003 0 0 -0.043026913602 
0 0 -0.0038231748043 0 0 0.0096939496941 0 0 -0.013231048164 
0 0 -0.084788454374 0 0 -0.22613911469 0 0 -0.023712870484 
0 0 0.014557931334 0 0 -0.059960601095 0 0 -0.090987103618 
0 0 -0.0047612257526 0 0 0.014231945785 0 0 -0.027665877412 
0 0 0.018811192507 0 0 -0.034864921508 0 0 -0.053076780724 
0 0 0.049955895166 0 0 0.032685232163 0 0 -0.050685388767 
0 0 -0.038257585614 0 0 -0.0547490761 0 0 -0.025166297387 
0 0 0.0079426605028 0 0 -0.0087195807629 0 0 0.0005883203906 
0 0 0.018191573803 0 0 -0.030960374926 0 0 -0.015871456172 
0 0 -0.025674929713 0 0 -0.038825933878 0 0 0.018619823196 
0 0 0.030299192376 0 0 -0.047356294866 0 0 -0.024899390329 
0 0 0.0015218178705 0 0 0.015323988661 0 0 -0.026455155426 
0 0 -0.041461145467 0 0 -0.021140734209 0 0 -0.029365367884 
0 0 -0.030402977738 0 0 0.049521016698 0 0 -0.039178334313 
0 0 -0.06010727045 0 0 -0.029340412752 0 0 -0.029380452466 
0 0 -0.042227209019 0 0 -0.027428244899 0 0 -0.015897256798 
0 0 -0.020568551663 0 0 -0.033954907244 0 0 0.027798698422 
0 0 -0.063778269502 0 0 -0.024112417228 0 0 -0.061877068685 
0 0 -0.00503440651 0 0 -0.040947050322 0 0 -0.026670418659 
0 0 -0.0019912370223 0 0 0.0039820177925 0 0 0.00044574950745 
0 0 0.012416934744 0 0 -0.015661673444 0 0 -0.027073364446 
0 0 -0.038314624766 0 0 -0.032297254715 0 0 -0.058782389996 
0 0 -0.012107709775 0 0 -0.05885317568 0 0 -0.029547398472 
0 0 -0.0014980755486 0 0 0.057707038335 0 0 -0.028467548785 
0 0 -0.0061212426679 0 0 0.023997242264 0 0 0.040582438826 
0 0 -0.015097620851 0 0 -0.061242559057 0 0 -0.025176543461 
0 0 -0.017978007268 0 0 0.027267689284 0 0 -0.0073458970176 
0 0 -0.055739744193 0 0 0.028709594047 0 0 0.025856268919 
0 0 -0.038047170837 0 0 -0.010380353543 0 0 -0.024510367557 
0 0 -0.0026420129242 0 0 0.025815581429 0 0 -0.055452898574 
0 0 0.028786679894 0 0 0.028937856865 0 0 -0.058565917744 
0 0 -0.035477042225 0 0 0.02909167475 0 0 -0.013182485982 
0 0 0.014167764546 0 0 -0.018494569912 0 0 -0.21383024816 
0 0 -0.014243287123 0 0 0.069343735091 0 0 0.00045296623641 
0 0 -0.04642653981 0 0 0.06973073921 0 0 0.014277301896 
0 0 -0.001913426381 0 0 -0.0043337270255 0 0 -0.2068392446 
0 0 -0.21939812742 0 0 -0.22166571036 0 0 -0.21305426272 
0 0 -0.20889857689 0 0 -0.016106019874 0 0 -0.18070226717 
0 0 -0.20264211347 0 0 -0.18403862415 0 0 -0.22730031537 
0 0 -0.17113881111 0 0 -0.21135827787 0 0 -0.1912328406 
0 0 -0.19144023526 0 0 -0.17355722677 0 0 -0.1955808158 
0 0 0.017738403853 0 0 -0.18103083729 0 0 -0.18130951384 
0 0 -0.1861791738 0 0 -0.18904723678 0 0 -0.14801803531 
0 0 -0.18296597536 0 0 -0.18819366144 0 0 -0.23069586008 
0 0 -0.14377863337 0 0 -0.14393435183 0 0 -0.16264740086 
0 0 -0.13673466546 0 0 -0.27974504578 0 0 -0.15833123795 
0 0 -0.11352257602 0 0 -0.15686645091 0 0 -0.14695982921 
0 0 -0.12000234095 0 0 -0.12966558089 0 0 -0.11942037831 
0 0 -0.14804076093 0 0 -0.14175672759 0 0 -0.12671707566 
0 0 -0.111932232 0 0 -0.13084053747 0 0 -0.098650030268 
0 0 -0.096367617006 0 0 -0.12818804847 0 0 -0.09489943959 
0 0 -0.079298487218 0 0 -0.067195606454 0 0 -0.11363282867 

f 3 648 double
0 0 0 0 0 -1.7425367252e-10 0 0 -1.7425367252e-10 
0 0 0 0 0 0 0 0 0 
0 0 -1.7425367252e-10 0 0 -1.7425367252e-10 0 0 -1.7425367252e-10 
0 0 -1.7425367252e-10 0 0 -1.7425367252e-10 0 0 -1.7425367252e-10 
0 0 -1.7425367252e-10 0 0 0 0 0 0 
0 0 -1.7425367252e-10 0 0 0 0 0 -1.7425367252e-10 
0 0 0 0 0 -1.7425367252e-10 0 0 0 
0 0 0 0 0 -1.7425367252e-10 0 0 0 
0 0 -1.7425367252e-10 0 0 -1.7425367252e-10 0 0 -1.7425367252e-10 
0 0 0 0 0 0 0 0 0 
0 0 0 0 0 0 0 0 0 
0 0 -1.7425367252e-10 0 0 -1.7425367252e-10 0 0 -1.7425367252e-10 
0 0 0 0 0 -1.7425367252e-10 0 0 0 
0 0 -1.7425367252e-10 0 0 0 0 0 -1.7425367252e-10 
0 0 -1.7425367252e-10 0 0 0 0 0 0 
0 0 -1.7425367252e-10 0 0 -1.7425367252e-10 0 0 0 
0 0 0 0 0 -1.7425367252e-10 0 0 -1.7425367252e-10 
0 0 0 0 0 0 0 0 0 
0 0 -1.7425367252e-10 0 0 0 0 0 -1.7425367252e-10 
0 0 -1.7425367252e-10 0 0 -1.7425367252e-10 0 0 -1.7425367252e-10 
0 0 0 0 0 -1.7425367252e-10 0 0 0 
0 0 -1.7425367252e-10 0 0 0 0 0 -1.7425367252e-10 
0 0 -1.7425367252e-10 0 0 0 0 0 0 
0 0 0 0 0 -1.7425367252e-10 0 0 0 
0 0 -1.7425367252e-10 0 0 0 0 0 -1.7425367252e-10 
0 0 0 0 0 0 0 0 0 
0 0 -1.7425367252e-10 0 0 -1.7425367252e-10 0 0 0 
0 0 -1.7425367252e-10 0 0 0 0 0 -1.7425367252e-10 
0 0 0 0 0 -1.7425367252e-10 0 0 0 
0 0 -1.7425367252e-10 0 0 0 0 0 0 
0 0 0 0 0 -1.7425367252e-10 0 0 -1.7425367252e-10 
0 0 0 0 0 0 0 0 0 
0 0 -1.7425367252e-10 0 0 -1.7425367252e-10 0 0 0 
0 0 -3.9949204671e-21 0 0 -1.7425367252e-10 0 0 -1.7425367252e-10 
0 0 0 0 0 -1.7425367252e-10 0 0 -1.7425367252e-10 
0 0 0 0 0 -1.7425367252e-10 0 0 -1.7425367252e-10 
0 0 0 0 0 0 0 0 0 
0 0 -1.7425367252e-10 0 0 0 0 0 0 
0 0 0 0 0 -1.7425367252e-10 0 0 -1.7425367252e-10 
0 0 0 0 0 0 0 0 -1.7425367252e-10 
0 0 0 0 0 -1.7425367252e-10 0 0 -1.7425367252e-10 
0 0 0 0 0 -1.7425367252e-10 0 0 -8.9019973083e-09 
0 0 0 0 0 -1.7425367252e-10 0 0 -1.7425367252e-10 
0 0 -1.7425367252e-10 0 0 0 0 0 0 
0 0 -1.7425367252e-10 0 0 0 0 0 -1.7425367252e-10 
0 0 0 0 0 0 0 0 0 
0 0 -1.7425367252e-10 0 0 0 0 0 0 
0 0 -1.7425367252e-10 0 0 -1.7425367252e-10 0 0 -1.7425367252e-10 
0 0 -1.7425367252e-10 0 0 -1.7425367252e-10 0 0 -1.7425367252e-10 
0 0 -1.7425367252e-10 0 0 0 0 0 0 
0 0 -1.7425367252e-10 0 0 0 0 0 0 
0 0 -1.7425367252e-10 0 0 0 0 0 0 
0 0 -1.7425367252e-10 0 0 0 0 0 0 
0 0 0 0 0 0 0 0 -1.7425367252e-10 
0 0 0 0 0 0 0 0 -1.7425367252e-10 
0 0 0 0 0 -1.7425367252e-10 0 0 -1.7425367252e-10 
0 0 0 0 0 0 0 0 0 
0 0 -1.7425367252e-10 0 0 0 0 0 0 
0 0 0 0 0 -1.7425367252e-10 0 0 -1.7425367252e-10 
0 0 -1.7425367252e-10 0 0 0 0 0 -1.7425367252e-10 
0 0 0 0 0 0 0 0 0 
0 0 0 0 0 0 0 0 0 
0 0 -1.7425367252e-10 0 0 0 0 0 0 
0 0 0 0 0 -1.7425367252e-10 0 0 0 
0 0 0 0 0 -1.7425367252e-10 0 0 -1.7425367252e-10 
0 0 -1.7425367252e-10 0 0 0 0 0 -1.7425367252e-10 
0 0 0 0 0 -1.7425367252e-10 0 0 0 
0 0 0 0 0 -1.7425367252e-10 0 0 0 
0 0 -1.7425367252e-10 0 0 0 0 0 0 
0 0 0 0 0 -1.7425367252e-10 0 0 -1.7425367252e-10 
0 0 -1.7425367252e-10 0 0 0 0 0 -1.7425367252e-10 
0 0 -1.7425367252e-10 0 0 -1.7425367252e-10 0 0 0 
0 0 0 0 0 0 0 0 0 
0 0 -1.7425367252e-10 0 0 -1.7425367252e-10 0 0 0 
0 0 -1.7425367252e-10 0 0 -1.7425367252e-10 0 0 0 
0 0 -1.7425367252e-10 0 0 -1.7425367252e-10 0 0 -1.7425367252e-10 
0 0 -1.7425367252e-10 0 0 0 0 0 0 
0 0 0 0 0 -1.7425367252e-10 0 0 0 
0 0 -1.7425367252e-10 0 0 0 0 0 -1.7425367252e-10 
0 0 -1.7425367252e-10 0 0 -1.7425367252e-10 0 0 -1.7425367252e-10 
0 0 -1.7425367252e-10 0 0 -1.7425367252e-10 0 0 0 
0 0 -1.7425367252e-10 0 0 0 0 0 -1.7425367252e-10 
0 0 -1.7425367252e-10 0 0 -1.7425367252e-10 0 0 0 
0 0 0 0 0 -1.7425367252e-10 0 0 -1.7425367252e-10 
0 0 -1.7425367252e-10 0 0 -1.7425367252e-10 0 0 -1.7425367252e-10 
0 0 -1.7425367252e-10 0 0 0 0 0 0 
0 0 -1.7425367252e-10 0 0 -1.7425367252e-10 0 0 0 
0 0 -1.7425367252e-10 0 0 -1.7425367252e-10 0 0 0 
0 0 0 0 0 0 0 0 -1.7425367252e-10 
0 0 0 0 0 0 0 0 -1.7425367252e-10 
0 0 -1.7425367252e-10 0 0 0 0 0 0 
0 0 0 0 0 0 0 0 0 
0 0 -1.7425367252e-10 0 0 0 0 0 0 
0 0 -1.7425367252e-10 0 0 0 0 0 0 
0 0 -1.7425367252e-10 0 0 -1.7425367252e-10 0 0 -1.7425367252e-10 
0 0 0 0 0 -1.7425367252e-10 0 0 0 
0 0 -1.7425367252e-10 0 0 -1.7425367252e-10 0 0 0 
0 0 0 0 0 -1.7425367252e-10 0 0 -1.7425367252e-10 
0 0 0 0 0 0 0 0 -1.7425367252e-10 
0 0 0 0 0 -1.7425367252e-10 0 0 0 
0 0 0 0 0 0 0 0 -1.7425367252e-10 
0 0 -1.7425367252e-10 0 0 -1.7425367252e-10 0 0 -1.7425367252e-10 
0 0 -1.7425367252e-10 0 0 -1.7425367252e-10 0 0 -1.7425367252e-10 
0 0 -1.7425367252e-10 0 0 -1.7425367252e-10 0 0 -1.7425367252e-10 
0 0 -1.7425367252e-10 0 0 -1.7425367252e-10 0 0 -1.7425367252e-10 
0 0 -1.7425367252e-10 0 0 -1.7425367252e-10 0 0 -1.7425367252e-10 
0 0 -1.7425367252e-10 0 0 -1.7425367252e-10 0 0 -1.7425367252e-10 
0 0 -1.7425367252e-10 0 0 -1.7425367252e-10 0 0 -1.7425367252e-10 
0 0 -1.7425367252e-10 0 0 -1.7425367252e-10 0 0 -8.9019973083e-09 
0 0 -1.7425367252e-10 0 0 -1.7425367252e-10 0 0 -1.7425367252e-10 
0 0 -1.7425367252e-10 0 0 -1.7425367252e-10 0 0 -1.7425367252e-10 
0 0 -8.9019973083e-09 0 0 -1.7425367252e-10 0 0 -1.7425367252e-10 
0 0 -1.7425367252e-10 0 0 -1.7425367252e-10 0 0 -1.7425367252e-10 
0 0 -1.7425367252e-10 0 0 -1.7425367252e-10 0 0 -1.7425367252e-10 
0 0 -1.7425367252e-10 0 0 -1.7425367252e-10 0 0 -1.7425367252e-10 
0 0 -1.7425367252e-10 0 0 -1.7425367252e-10 0 0 -1.7425367252e-10 
0 0 -1.7425367252e-10 0 0 -1.7425367252e-10 0 0 -1.7425367252e-10 
0 0 -1.7425367252e-10 0 0 -1.7425367252e-10 0 0 -1.7425367252e-10 
0 0 -1.7425367252e-10 0 0 -1.7425367252e-10 0 0 -1.7425367252e-10 
0 0 -1.7425367252e-10 0 0 -8.9019973083e-09 0 0 -1.7425367252e-10 
0 0 -1.7425367252e-10 0 0 -1.7425367252e-10 0 0 -1.7425367252e-10 
0 0 -1.7425367252e-10 0 0 -1.7425367252e-10 0 0 -1.7425367252e-10 
0 0 -1.7425367252e-10 0 0 -1.7425367252e-10 0 0 -1.7425367252e-10 
0 0 -1.7425367252e-10 0 0 -1.7425367252e-10 0 0 -1.7425367252e-10 
0 0 -8.9019973083e-09 0 0 -1.7425367252e-10 0 0 -1.7425367252e-10 
0 0 -1.7425367252e-10 0 0 -1.7425367252e-10 0 0 -1.7425367252e-10 
0 0 -1.7425367252e-10 0 0 -1.7425367252e-10 0 0 -1.7425367252e-10 
0 0 -1.7425367252e-10 0 0 -1.7425367252e-10 0 0 -1.7425367252e-10 
0 0 -1.7425367252e-10 0 0 -1.7425367252e-10 0 0 -1.7425367252e-10 
0 0 -1.7425367252e-10 0 0 -1.7425367252e-10 0 0 -1.7425367252e-10 
0 0 -1.7425367252e-10 0 0 -1.7425367252e-10 0 0 -1.7425367252e-10 
0 0 -1.7425367252e-10 0 0 -1.7425367252e-10 0 0 -1.7425367252e-10 
0 0 -1.7425367252e-10 0 0 -1.7425367252e-10 0 0 -1.7425367252e-10 
0 0 -1.7425367252e-10 0 0 -1.7425367252e-10 0 0 -1.7425367252e-10 
0 0 -1.7425367252e-10 0 0 -1.7425367252e-10 0 0 -1.7425367252e-10 
0 0 -1.7425367252e-10 0 0 -1.7425367252e-10 0 0 -1.7425367252e-10 
0 0 -8.9019973083e-09 0 0 -8.9019973083e-09 0 0 -1.7425367252e-10 
0 0 -8.9019973083e-09 0 0 -1.7425367252e-10 0 0 -1.7425367252e-10 
0 0 -1.7425367252e-10 0 0 -1.7425367252e-10 0 0 -1.7425367252e-10 
0 0 -1.7425367252e-10 0 0 -1.7425367252e-10 0 0 -1.7425367252e-10 
0 0 -1.7425367252e-10 0 0 -1.7425367252e-10 0 0 -1.7425367252e-10 
0 0 -1.7425367252e-10 0 0 -1.7425367252e-10 0 0 -1.7425367252e-10 
0 0 -1.7425367252e-10 0 0 -1.7425367252e-10 0 0 -1.7425367252e-10 
0 0 -1.7425367252e-10 0 0 -1.7425367252e-10 0 0 -1.7425367252e-10 
0 0 -1.7425367252e-10 0 0 -1.7425367252e-10 0 0 -1.7425367252e-10 
0 0 -1.7425367252e-10 0 0 -1.7425367252e-10 0 0 -1.7425367252e-10 
0 0 -1.7425367252e-10 0 0 -1.7425367252e-10 0 0 -1.7425367252e-10 
0 0 -1.7425367252e-10 0 0 -1.7425367252e-10 0 0 -1.7425367252e-10 
0 0 -1.7425367252e-10 0 0 -1.7425367252e-10 0 0 -1.7425367252e-10 
0 0 -1.7425367252e-10 0 0 -1.7425367252e-10 0 0 -1.7425367252e-10 
0 0 -1.7425367252e-10 0 0 -1.7425367252e-10 0 0 -1.7425367252e-10 
0 0 -1.7425367252e-10 0 0 -1.7425367252e-10 0 0 -1.7425367252e-10 
0 0 -1.7425367252e-10 0 0 -1.7425367252e-10 0 0 -1.7425367252e-10 
0 0 -1.7425367252e-10 0 0 -1.7425367252e-10 0 0 -1.7425367252e-10 
0 0 -1.7425367252e-10 0 0 -1.7425367252e-10 0 0 -1.7425367252e-10 
0 0 -1.7425367252e-10 0 0 -1.7425367252e-10 0 0 -1.7425367252e-10 
0 0 -1.7425367252e-10 0 0 -1.7425367252e-10 0 0 -1.7425367252e-10 
0 0 -1.7425367252e-10 0 0 -1.7425367252e-10 0 0 -1.7425367252e-10 
0 0 -1.7425367252e-10 0 0 -1.7425367252e-10 0 0 -1.7425367252e-10 
0 0 -1.7425367252e-10 0 0 -1.7425367252e-10 0 0 -1.7425367252e-10 
0 0 -8.9019973083e-09 0 0 -1.7425367252e-10 0 0 -1.7425367252e-10 
0 0 -1.7425367252e-10 0 0 -1.7425367252e-10 0 0 -1.7425367252e-10 
0 0 -1.7425367252e-10 0 0 -1.7425367252e-10 0 0 -1.7425367252e-10 
0 0 -1.7425367252e-10 0 0 -1.7425367252e-10 0 0 -1.7425367252e-10 
0 0 -1.7425367252e-10 0 0 -1.7425367252e-10 0 0 -1.7425367252e-10 
0 0 -8.9019973083e-09 0 0 -1.7425367252e-10 0 0 -1.7425367252e-10 
0 0 -1.7425367252e-10 0 0 -1.7425367252e-10 0 0 -8.9019973083e-09 
0 0 -1.7425367252e-10 0 0 -1.7425367252e-10 0 0 -1.7425367252e-10 
0 0 -1.7425367252e-10 0 0 -1.7425367252e-10 0 0 -1.7425367252e-10 
0 0 -1.7425367252e-10 0 0 -1.7425367252e-10 0 0 -1.7425367252e-10 
0 0 -1.7425367252e-10 0 0 -1.7425367252e-10 0 0 -1.7425367252e-10 
0 0 -1.7425367252e-10 0 0 -1.7425367252e-10 0 0 -1.7425367252e-10 
0 0 -1.7425367252e-10 0 0 -1.7425367252e-10 0 0 -1.7425367252e-10 
0 0 -1.7425367252e-10 0 0 -1.7425367252e-10 0 0 -1.7425367252e-10 
0 0 -1.7425367252e-10 0 0 -1.7425367252e-10 0 0 -1.7425367252e-10 
0 0 -1.7425367252e-10 0 0 -1.7425367252e-10 0 0 -1.7425367252e-10 
0 0 -1.7425367252e-10 0 0 -1.7425367252e-10 0 0 -1.7425367252e-10 
0 0 -1.7425367252e-10 0 0 -1.7425367252e-10 0 0 -1.7425367252e-10 
0 0 -1.7425367252e-10 0 0 -1.7425367252e-10 0 0 -1.7425367252e-10 
0 0 -1.7425367252e-10 0 0 -1.7425367252e-10 0 0 -1.7425367252e-10 
0 0 -1.7425367252e-10 0 0 -1.7425367252e-10 0 0 -1.7425367252e-10 
0 0 -1.7425367252e-10 0 0 -1.7425367252e-10 0 0 -1.7425367252e-10 
0 0 -1.7425367252e-10 0 0 -1.7425367252e-10 0 0 -1.7425367252e-10 
0 0 -1.7425367252e-10 0 0 -1.7425367252e-10 0 0 -1.7425367252e-10 
0 0 -1.7425367252e-10 0 0 -1.7425367252e-10 0 0 -1.7425367252e-10 
0 0 -1.7425367252e-10 0 0 -1.7425367252e-10 0 0 -1.7425367252e-10 
0 0 -1.7425367252e-10 0 0 -1.7425367252e-10 0 0 -1.7425367252e-10 
0 0 -1.7425367252e-10 0 0 -1.7425367252e-10 0 0 -1.7425367252e-10 
0 0 -1.7425367252e-10 0 0 -1.7425367252e-10 0 0 -1.7425367252e-10 
0 0 -1.7425367252e-10 0 0 -1.7425367252e-10 0 0 -1.7425367252e-10 
0 0 -1.7425367252e-10 0 0 -1.7425367252e-10 0 0 -1.7425367252e-10 
0 0 -1.7425367252e-10 0 0 -1.7425367252e-10 0 0 -1.7425367252e-10 
0 0 -1.7425367252e-10 0 0 -1.7425367252e-10 0 0 -1.7425367252e-10 
0 0 -1.7425367252e-10 0 0 -1.7425367252e-10 0 0 -1.7425367252e-10 
0 0 -1.7425367252e-10 0 0 -1.7425367252e-10 0 0 -1.7425367252e-10 
0 0 -1.7425367252e-10 0 0 -1.7425367252e-10 0 0 -1.7425367252e-10 
0 0 -1.7425367252e-10 0 0 -1.7425367252e-10 0 0 -1.7425367252e-10 
0 0 -1.7425367252e-10 0 0 -8.9019973083e-09 0 0 -1.7425367252e-10 
0 0 -8.9019973083e-09 0 0 -8.9019973083e-09 0 0 -1.7425367252e-10 
0 0 -1.7425367252e-10 0 0 -1.7425367252e-10 0 0 -1.7425367252e-10 
0 0 -1.7425367252e-10 0 0 -1.7425367252e-10 0 0 -1.7425367252e-10 
0 0 -1.7425367252e-10 0 0 -8.9019973083e-09 0 0 -1.7425367252e-10 
0 0 -1.7425367252e-10 0 0 -1.7425367252e-10 0 0 -1.7425367252e-10 
0 0 -1.7425367252e-10 0 0 -1.7425367252e-10 0 0 -1.7425367252e-10 
0 0 -1.7425367252e-10 0 0 -1.7425367252e-10 0 0 -1.7425367252e-10 
0 0 -6.8918688838e-08 0 0 -1.7425367252e-10 0 0 -1.7425367252e-10 
0 0 -1.7425367252e-10 0 0 -1.7425367252e-10 0 0 -1.7425367252e-10 
0 0 -1.7425367252e-10 0 0 -1.7425367252e-10 0 0 -8.9019973083e-09 
0 0 -1.7425367252e-10 0 0 -1.7425367252e-10 0 0 -1.7425367252e-10 
0 0 -1.7425367252e-10 0 0 -5.3297119368e-07 0 0 -1.7425367252e-10 
0 0 -1.7425367252e-10 0 0 -1.7425367252e-10 0 0 -1.7425367252e-10 
0 0 -1.7425367252e-10 0 0 -1.7425367252e-10 0 0 -1.7425367252e-10 
0 0 -8.9019973083e-09 0 0 -1.7425367252e-10 0 0 -1.7425367252e-10 
0 0 -1.7425367252e-10 0 0 -1.7425367252e-10 0 0 -1.7425367252e-10 
0 0 -1.7425367252e-10 0 0 -1.7425367252e-10 0 0 -1.7425367252e-10 
0 0 -1.7425367252e-10 0 0 -1.7425367252e-10 0 0 -1.7425367252e-10 

radius 1 648 double
2e-05 2e-05 2e-05 2e-05 2e-05 2e-05 2e-05 2e-05 2e-05 
2e-05 2e-05 2e-05 2e-05 2e-05 2e-05 2e-05 2e-05 2e-05 
2e-05 2e-05 2e-05 2e-05 2e-05 2e-05 2e-05 2e-05 2e-05 
2e-05 2e-05 2e-05 2e-05 2e-05 2e-05 2e-05 2e-05 2e-05 
2e-05 2e-05 2e-05 2e-05 2e-05 2e-05 2e-05 2e-05 2e-05 
2e-05 2e-05 2e-05 2e-05 2e-05 2e-05 2e-05 2e-05 2e-05 
2e-05 2e-05 2e-05 2e-05 2e-05 2e-05 2e-05 2e-05 2e-05 
2e-05 2e-05 2e-05 2e-05 2e-05 2e-05 2e-05 2e-05 2e-05 
2e-05 2e-05 2e-05 2e-05 2e-05 2e-05 2e-05 2e-05 2e-05 
2e-05 2e-05 2e-05 2e-05 2e-05 2e-05 2e-05 2e-05 2e-05 
2e-05 2e-05 2e-05 2e-05 2e-05 2e-05 2e-05 2e-05 2e-05 
2e-05 2e-05 2e-05 2e-05 2e-05 2e-05 2e-05 2e-05 2e-05 
2e-05 2e-05 2e-05 2e-05 2e-05 2e-05 2e-05 2e-05 2e-05 
2e-05 2e-05 2e-05 2e-05 2e-05 2e-05 2e-05 2e-05 7.5e-05 
2e-05 2e-05 2e-05 2e-05 2e-05 2e-05 2e-05 2e-05 2e-05 
2e-05 2e-05 2e-05 2e-05 2e-05 2e-05 2e-05 2e-05 2e-05 
2e-05 2e-05 2e-05 2e-05 2e-05 2e-05 2e-05 2e-05 2e-05 
2e-05 2e-05 2e-05 2e-05 2e-05 2e-05 2e-05 2e-05 2e-05 
2e-05 2e-05 2e-05 2e-05 2e-05 2e-05 2e-05 2e-05 2e-05 
2e-05 2e-05 2e-05 2e-05 2e-05 2e-05 2e-05 2e-05 2e-05 
2e-05 2e-05 2e-05 2e-05 2e-05 2e-05 2e-05 2e-05 2e-05 
2e-05 2e-05 2e-05 2e-05 2e-05 2e-05 2e-05 2e-05 2e-05 
2e-05 2e-05 2e-05 2e-05 2e-05 2e-05 2e-05 2e-05 2e-05 
2e-05 2e-05 2e-05 2e-05 2e-05 2e-05 2e-05 2e-05 2e-05 
2e-05 2e-05 2e-05 2e-05 2e-05 2e-05 2e-05 2e-05 2e-05 
2e-05 2e-05 2e-05 2e-05 2e-05 2e-05 2e-05 2e-05 2e-05 
2e-05 2e-05 2e-05 2e-05 2e-05 2e-05 2e-05 2e-05 2e-05 
2e-05 2e-05 2e-05 2e-05 2e-05 2e-05 2e-05 2e-05 2e-05 
2e-05 2e-05 2e-05 2e-05 2e-05 2e-05 2e-05 2e-05 2e-05 
2e-05 2e-05 2e-05 2e-05 2e-05 2e-05 2e-05 2e-05 2e-05 
2e-05 2e-05 2e-05 2e-05 2e-05 2e-05 2e-05 2e-05 2e-05 
2e-05 2e-05 2e-05 2e-05 2e-05 2e-05 2e-05 2e-05 2e-05 
2e-05 2e-05 2e-05 2e-05 2e-05 2e-05 2e-05 2e-05 2e-05 
2e-05 2e-05 2e-05 2e-05 2e-05 2e-05 2e-05 2e-05 2e-05 
2e-05 2e-05 2e-05 2e-05 2e-05 2e-05 2e-05 2e-05 2e-05 
2e-05 2e-05 2e-05 2e-05 2e-05 2e-05 2e-05 2e-05 2e-05 
2e-05 2e-05 7.5e-05 2e-05 2e-05 2e-05 2e-05 2e-05 2e-05 
7.5e-05 2e-05 2e-05 2e-05 2e-05 2e-05 2e-05 2e-05 2e-05 
2e-05 2e-05 2e-05 2e-05 2e-05 2e-05 2e-05 2e-05 2e-05 
2e-05 2e-05 2e-05 2e-05 2e-05 2e-05 2e-05 7.5e-05 2e-05 
2e-05 2e-05 2e-05 2e-05 2e-05 2e-05 2e-05 2e-05 2e-05 
2e-05 2e-05 2e-05 7.5e-05 2e-05 2e-05 2e-05 2e-05 2e-05 
2e-05 2e-05 2e-05 2e-05 2e-05 2e-05 2e-05 2e-05 2e-05 
2e-05 2e-05 2e-05 2e-05 2e-05 2e-05 2e-05 2e-05 2e-05 
2e-05 2e-05 2e-05 2e-05 2e-05 2e-05 2e-05 2e-05 2e-05 
2e-05 2e-05 2e-05 7.5e-05 7.5e-05 2e-05 7.5e-05 2e-05 2e-05 
2e-05 2e-05 2e-05 2e-05 2e-05 2e-05 2e-05 2e-05 2e-05 
2e-05 2e-05 2e-05 2e-05 2e-05 2e-05 2e-05 2e-05 2e-05 
2e-05 2e-05 2e-05 2e-05 2e-05 2e-05 2e-05 2e-05 2e-05 
2e-05 2e-05 2e-05 2e-05 2e-05 2e-05 2e-05 2e-05 2e-05 
2e-05 2e-05 2e-05 2e-05 2e-05 2e-05 2e-05 2e-05 2e-05 
2e-05 2e-05 2e-05 2e-05 2e-05 2e-05 2e-05 2e-05 2e-05 
2e-05 2e-05 2e-05 2e-05 2e-05 2e-05 2e-05 2e-05 2e-05 
2e-05 2e-05 2e-05 7.5e-05 2e-05 2e-05 2e-05 2e-05 2e-05 
2e-05 2e-05 2e-05 2e-05 2e-05 2e-05 2e-05 2e-05 2e-05 
7.5e-05 2e-05 2e-05 2e-05 2e-05 7.5e-05 2e-05 2e-05 2e-05 
2e-05 2e-05 2e-05 2e-05 2e-05 2e-05 2e-05 2e-05 2e-05 
2e-05 2e-05 2e-05 2e-05 2e-05 2e-05 2e-05 2e-05 2e-05 
2e-05 2e-05 2e-05 2e-05 2e-05 2e-05 2e-05 2e-05 2e-05 
2e-05 2e-05 2e-05 2e-05 2e-05 2e-05 2e-05 2e-05 2e-05 
2e-05 2e-05 2e-05 2e-05 2e-05 2e-05 2e-05 2e-05 2e-05 
2e-05 2e-05 2e-05 2e-05 2e-05 2e-05 2e-05 2e-05 2e-05 
2e-05 2e-05 2e-05 2e-05 2e-05 2e-05 2e-05 2e-05 2e-05 
2e-05 2e-05 2e-05 2e-05 2e-05 2e-05 2e-05 2e-05 2e-05 
2e-05 2e-05 2e-05 2e-05 2e-05 2e-05 2e-05 2e-05 2e-05 
2e-05 2e-05 2e-05 2e-05 2e-05 2e-05 2e-05 7.5e-05 2e-05 
7.5e-05 7.5e-05 2e-05 2e-05 2e-05 2e-05 2e-05 2e-05 2e-05 
2e-05 7.5e-05 2e-05 2e-05 2e-05 2e-05 2e-05 2e-05 2e-05 
2e-05 2e-05 2e-05 0.00015 2e-05 2e-05 2e-05 2e-05 2e-05 
2e-05 2e-05 7.5e-05 2e-05 2e-05 2e-05 2e-05 0.0003 2e-05 
2e-05 2e-05 2e-05 2e-05 2e-05 2e-05 7.5e-05 2e-05 2e-05 
2e-05 2e-05 2e-05 2e-05 2e-05 2e-05 2e-05 2e-05 2e-05 

omega 3 648 double
0 0 0 0 0 0 0 0 0 
0 0 0 0 0 0 0 0 0 
0 0 0 0 0 0 0 0 0 
0 0 0 0 0 0 0 0 0 
0 0 0 0 0 0 0 0 0 
0 0 0 0 0 0 0 0 0 
0 0 0 0 0 0 0 0 0 
0 0 0 0 0 0 0 0 0 
0 0 0 0 0 0 0 0 0 
0 0 0 0 0 0 0 0 0 
0 0 0 0 0 0 0 0 0 
0 0 0 0 0 0 0 0 0 
0 0 0 0 0 0 0 0 0 
0 0 0 0 0 0 0 0 0 
0 0 0 0 0 0 0 0 0 
0 0 0 0 0 0 0 0 0 
0 0 0 0 0 0 0 0 0 
0 0 0 0 0 0 0 0 0 
0 0 0 0 0 0 0 0 0 
0 0 0 0 0 0 0 0 0 
0 0 0 0 0 0 0 0 0 
0 0 0 0 0 0 0 0 0 
0 0 0 0 0 0 0 0 0 
0 0 0 0 0 0 0 0 0 
0 0 0 0 0 0 0 0 0 
0 0 0 0 0 0 0 0 0 
0 0 0 0 0 0 0 0 0 
0 0 0 0 0 0 0 0 0 
0 0 0 0 0 0 0 0 0 
0 0 0 0 0 0 0 0 0 
0 0 0 0 0 0 0 0 0 
0 0 0 0 0 0 0 0 0 
0 0 0 0 0 0 0 0 0 
0 0 0 0 0 0 0 0 0 
0 0 0 0 0 0 0 0 0 
0 0 0 0 0 0 0 0 0 
0 0 0 0 0 0 0 0 0 
0 0 0 0 0 0 0 0 0 
0 0 0 0 0 0 0 0 0 
0 0 0 0 0 0 0 0 0 
0 0 0 0 0 0 0 0 0 
0 0 0 0 0 0 0 0 0 
0 0 0 0 0 0 0 0 0 
0 0 0 0 0 0 0 0 0 
0 0 0 0 0 0 0 0 0 
0 0 0 0 0 0 0 0 0 
0 0 0 0 0 0 0 0 0 
0 0 0 0 0 0 0 0 0 
0 0 0 0 0 0 0 0 0 
0 0 0 0 0 0 0 0 0 
0 0 0 0 0 0 0 0 0 
0 0 0 0 0 0 0 0 0 
0 0 0 0 0 0 0 0 0 
0 0 0 0 0 0 0 0 0 
0 0 0 0 0 0 0 0 0 
0 0 0 0 0 0 0 0 0 
0 0 0 0 0 0 0 0 0 
0 0 0 0 0 0 0 0 0 
0 0 0 0 0 0 0 0 0 
0 0 0 0 0 0 0 0 0 
0 0 0 0 0 0 0 0 0 
0 0 0 0 0 0 0 0 0 
0 0 0 0 0 0 0 0 0 
0 0 0 0 0 0 0 0 0 
0 0 0 0 0 0 0 0 0 
0 0 0 0 0 0 0 0 0 
0 0 0 0 0 0 0 0 0 
0 0 0 0 0 0 0 0 0 
0 0 0 0 0 0 0 0 0 
0 0 0 0 0 0 0 0 0 
0 0 0 0 0 0 0 0 0 
0 0 0 0 0 0 0 0 0 
0 0 0 0 0 0 0 0 0 
0 0 0 0 0 0 0 0 0 
0 0 0 0 0 0 0 0 0 
0 0 0 0 0 0 0 0 0 
0 0 0 0 0 0 0 0 0 
0 0 0 0 0 0 0 0 0 
0 0 0 0 0 0 0 0 0 
0 0 0 0 0 0 0 0 0 
0 0 0 0 0 0 0 0 0 
0 0 0 0 0 0 0 0 0 
0 0 0 0 0 0 0 0 0 
0 0 0 0 0 0 0 0 0 
0 0 0 0 0 0 0 0 0 
0 0 0 0 0 0 0 0 0 
0 0 0 0 0 0 0 0 0 
0 0 0 0 0 0 0 0 0 
0 0 0 0 0 0 0 0 0 
0 0 0 0 0 0 0 0 0 
0 0 0 0 0 0 0 0 0 
0 0 0 0 0 0 0 0 0 
0 0 0 0 0 0 0 0 0 
0 0 0 0 0 0 0 0 0 
0 0 0 0 0 0 0 0 0 
0 0 0 0 0 0 0 0 0 
0 0 0 0 0 0 0 0 0 
0 0 0 0 0 0 0 0 0 
0 0 0 0 0 0 0 0 0 
0 0 0 0 0 0 0 0 0 
0 0 0 0 0 0 0 0 0 
0 0 0 0 0 0 0 0 0 
0 0 0 0 0 0 0 0 0 
0 0 0 0 0 0 0 0 0 
0 0 0 0 0 0 0 0 0 
0 0 0 0 0 0 0 0 0 
0 0 0 0 0 0 0 0 0 
0 0 0 0 0 0 0 0 0 
0 0 0 0 0 0 0 0 0 
0 0 0 0 0 0 0 0 0 
0 0 0 0 0 0 0 0 0 
0 0 0 0 0 0 0 0 0 
0 0 0 0 0 0 0 0 0 
0 0 0 0 0 0 0 0 0 
0 0 0 0 0 0 0 0 0 
0 0 0 0 0 0 0 0 0 
0 0 0 0 0 0 0 0 0 
0 0 0 0 0 0 0 0 0 
0 0 0 0 0 0 0 0 0 
0 0 0 0 0 0 0 0 0 
0 0 0 0 0 0 0 0 0 
0 0 0 0 0 0 0 0 0 
0 0 0 0 0 0 0 0 0 
0 0 0 0 0 0 0 0 0 
0 0 0 0 0 0 0 0 0 
0 0 0 0 0 0 0 0 0 
0 0 0 0 0 0 0 0 0 
0 0 0 0 0 0 0 0 0 
0 0 0 0 0 0 0 0 0 
0 0 0 0 0 0 0 0 0 
0 0 0 0 0 0 0 0 0 
0 0 0 0 0 0 0 0 0 
0 0 0 0 0 0 0 0 0 
0 0 0 0 0 0 0 0 0 
0 0 0 0 0 0 0 0 0 
0 0 0 0 0 0 0 0 0 
0 0 0 0 0 0 0 0 0 
0 0 0 0 0 0 0 0 0 
0 0 0 0 0 0 0 0 0 
0 0 0 0 0 0 0 0 0 
0 0 0 0 0 0 0 0 0 
0 0 0 0 0 0 0 0 0 
0 0 0 0 0 0 0 0 0 
0 0 0 0 0 0 0 0 0 
0 0 0 0 0 0 0 0 0 
0 0 0 0 0 0 0 0 0 
0 0 0 0 0 0 0 0 0 
0 0 0 0 0 0 0 0 0 
0 0 0 0 0 0 0 0 0 
0 0 0 0 0 0 0 0 0 
0 0 0 0 0 0 0 0 0 
0 0 0 0 0 0 0 0 0 
0 0 0 0 0 0 0 0 0 
0 0 0 0 0 0 0 0 0 
0 0 0 0 0 0 0 0 0 
0 0 0 0 0 0 0 0 0 
0 0 0 0 0 0 0 0 0 
0 0 0 0 0 0 0 0 0 
0 0 0 0 0 0 0 0 0 
0 0 0 0 0 0 0 0 0 
0 0 0 0 0 0 0 0 0 
0 0 0 0 0 0 0 0 0 
0 0 0 0 0 0 0 0 0 
0 0 0 0 0 0 0 0 0 
0 0 0 0 0 0 0 0 0 
0 0 0 0 0 0 0 0 0 
0 0 0 0 0 0 0 0 0 
0 0 0 0 0 0 0 0 0 
0 0 0 0 0 0 0 0 0 
0 0 0 0 0 0 0 0 0 
0 0 0 0 0 0 0 0 0 
0 0 0 0 0 0 0 0 0 
0 0 0 0 0 0 0 0 0 
0 0 0 0 0 0 0 0 0 
0 0 0 0 0 0 0 0 0 
0 0 0 0 0 0 0 0 0 
0 0 0 0 0 0 0 0 0 
0 0 0 0 0 0 0 0 0 
0 0 0 0 0 0 0 0 0 
0 0 0 0 0 0 0 0 0 
0 0 0 0 0 0 0 0 0 
0 0 0 0 0 0 0 0 0 
0 0 0 0 0 0 0 0 0 
0 0 0 0 0 0 0 0 0 
0 0 0 0 0 0 0 0 0 
0 0 0 0 0 0 0 0 0 
0 0 0 0 0 0 0 0 0 
0 0 0 0 0 0 0 0 0 
0 0 0 0 0 0 0 0 0 
0 0 0 0 0 0 0 0 0 
0 0 0 0 0 0 0 0 0 
0 0 0 0 0 0 0 0 0 
0 0 0 0 0 0 0 0 0 
0 0 0 0 0 0 0 0 0 
0 0 0 0 0 0 0 0 0 
0 0 0 0 0 0 0 0 0 
0 0 0 0 0 0 0 0 0 
0 0 0 0 0 0 0 0 0 
0 0 0 0 0 0 0 0 0 
0 0 0 0 0 0 0 0 0 
0 0 0 0 0 0 0 0 0 
0 0 0 0 0 0 0 0 0 
0 0 0 0 0 0 0 0 0 
0 0 0 0 0 0 0 0 0 
0 0 0 0 0 0 0 0 0 
0 0 0 0 0 0 0 0 0 
0 0 0 0 0 0 0 0 0 
0 0 0 0 0 0 0 0 0 
0 0 0 0 0 0 0 0 0 
0 0 0 0 0 0 0 0 0 
0 0 0 0 0 0 0 0 0 
0 0 0 0 0 0 0 0 0 
0 0 0 0 0 0 0 0 0 
0 0 0 0 0 0 0 0 0 
0 0 0 0 0 0 0 0 0 
0 0 0 0 0 0 0 0 0 

fx_mag_viz 1 648 double
0 0 0 0 0 0 0 0 0 
0 0 0 0 0 0 0 0 0 
0 0 0 0 0 0 0 0 0 
0 0 0 0 0 0 0 0 0 
0 0 0 0 0 0 0 0 0 
0 0 0 0 0 0 0 0 0 
0 0 0 0 0 0 0 0 0 
0 0 0 0 0 0 0 0 0 
0 0 0 0 0 0 0 0 0 
0 0 0 0 0 0 0 0 0 
0 0 0 0 0 0 0 0 0 
0 0 0 0 0 0 0 0 0 
0 0 0 0 0 0 0 0 0 
0 0 0 0 0 0 0 0 0 
0 0 0 0 0 0 0 0 0 
0 0 0 0 0 0 0 0 0 
0 0 0 0 0 0 0 0 0 
0 0 0 0 0 0 0 0 0 
0 0 0 0 0 0 0 0 0 
0 0 0 0 0 0 0 0 0 
0 0 0 0 0 0 0 0 0 
0 0 0 0 0 0 0 0 0 
0 0 0 0 0 0 0 0 0 
0 0 0 0 0 0 0 0 0 
0 0 0 0 0 0 0 0 0 
0 0 0 0 0 0 0 0 0 
0 0 0 0 0 0 0 0 0 
0 0 0 0 0 0 0 0 0 
0 0 0 0 0 0 0 0 0 
0 0 0 0 0 0 0 0 0 
0 0 0 0 0 0 0 0 0 
0 0 0 0 0 0 0 0 0 
0 0 0 0 0 0 0 0 0 
0 0 0 0 0 0 0 0 0 
0 0 0 0 0 0 0 0 0 
0 0 0 0 0 0 0 0 0 
0 0 0 0 0 0 0 0 0 
0 0 0 0 0 0 0 0 0 
0 0 0 0 0 0 0 0 0 
0 0 0 0 0 0 0 0 0 
0 0 0 0 0 0 0 0 0 
0 0 0 0 0 0 0 0 0 
0 0 0 0 0 0 0 0 0 
0 0 0 0 0 0 0 0 0 
0 0 0 0 0 0 0 0 0 
0 0 0 0 0 0 0 0 0 
0 0 0 0 0 0 0 0 0 
0 0 0 0 0 0 0 0 0 
0 0 0 0 0 0 0 0 0 
0 0 0 0 0 0 0 0 0 
0 0 0 0 0 0 0 0 0 
0 0 0 0 0 0 0 0 0 
0 0 0 0 0 0 0 0 0 
0 0 0 0 0 0 0 0 0 
0 0 0 0 0 0 0 0 0 
0 0 0 0 0 0 0 0 0 
0 0 0 0 0 0 0 0 0 
0 0 0 0 0 0 0 0 0 
0 0 0 0 0 0 0 0 0 
0 0 0 0 0 0 0 0 0 
0 0 0 0 0 0 0 0 0 
0 0 0 0 0 0 0 0 0 
0 0 0 0 0 0 0 0 0 
0 0 0 0 0 0 0 0 0 
0 0 0 0 0 0 0 0 0 
0 0 0 0 0 0 0 0 0 
0 0 0 0 0 0 0 0 0 
0 0 0 0 0 0 0 0 0 
0 0 0 0 0 0 0 0 0 
0 0 0 0 0 0 0 0 0 
0 0 0 0 0 0 0 0 0 
0 0 0 0 0 0 0 0 0 

fy_mag_viz 1 648 double
0 0 0 0 0 0 0 0 0 
0 0 0 0 0 0 0 0 0 
0 0 0 0 0 0 0 0 0 
0 0 0 0 0 0 0 0 0 
0 0 0 0 0 0 0 0 0 
0 0 0 0 0 0 0 0 0 
0 0 0 0 0 0 0 0 0 
0 0 0 0 0 0 0 0 0 
0 0 0 0 0 0 0 0 0 
0 0 0 0 0 0 0 0 0 
0 0 0 0 0 0 0 0 0 
0 0 0 0 0 0 0 0 0 
0 0 0 0 0 0 0 0 0 
0 0 0 0 0 0 0 0 0 
0 0 0 0 0 0 0 0 0 
0 0 0 0 0 0 0 0 0 
0 0 0 0 0 0 0 0 0 
0 0 0 0 0 0 0 0 0 
0 0 0 0 0 0 0 0 0 
0 0 0 0 0 0 0 0 0 
0 0 0 0 0 0 0 0 0 
0 0 0 0 0 0 0 0 0 
0 0 0 0 0 0 0 0 0 
0 0 0 0 0 0 0 0 0 
0 0 0 0 0 0 0 0 0 
0 0 0 0 0 0 0 0 0 
0 0 0 0 0 0 0 0 0 
0 0 0 0 0 0 0 0 0 
0 0 0 0 0 0 0 0 0 
0 0 0 0 0 0 0 0 0 
0 0 0 0 0 0 0 0 0 
0 0 0 0 0 0 0 0 0 
0 0 0 0 0 0 0 0 0 
0 0 0 0 0 0 0 0 0 
0 0 0 0 0 0 0 0 0 
0 0 0 0 0 0 0 0 0 
0 0 0 0 0 0 0 0 0 
0 0 0 0 0 0 0 0 0 
0 0 0 0 0 0 0 0 0 
0 0 0 0 0 0 0 0 0 
0 0 0 0 0 0 0 0 0 
0 0 0 0 0 0 0 0 0 
0 0 0 0 0 0 0 0 0 
0 0 0 0 0 0 0 0 0 
0 0 0 0 0 0 0 0 0 
0 0 0 0 0 0 0 0 0 
0 0 0 0 0 0 0 0 0 
0 0 0 0 0 0 0 0 0 
0 0 0 0 0 0 0 0 0 
0 0 0 0 0 0 0 0 0 
0 0 0 0 0 0 0 0 0 
0 0 0 0 0 0 0 0 0 
0 0 0 0 0 0 0 0 0 
0 0 0 0 0 0 0 0 0 
0 0 0 0 0 0 0 0 0 
0 0 0 0 0 0 0 0 0 
0 0 0 0 0 0 0 0 0 
0 0 0 0 0 0 0 0 0 
0 0 0 0 0 0 0 0 0 
0 0 0 0 0 0 0 0 0 
0 0 0 0 0 0 0 0 0 
0 0 0 0 0 0 0 0 0 
0 0 0 0 0 0 0 0 0 
0 0 0 0 0 0 0 0 0 
0 0 0 0 0 0 0 0 0 
0 0 0 0 0 0 0 0 0 
0 0 0 0 0 0 0 0 0 
0 0 0 0 0 0 0 0 0 
0 0 0 0 0 0 0 0 0 
0 0 0 0 0 0 0 0 0 
0 0 0 0 0 0 0 0 0 
0 0 0 0 0 0 0 0 0 

fz_mag_viz 1 648 double
0 0 0 0 0 0 0 0 0 
0 0 0 0 0 0 0 0 0 
0 0 0 0 0 0 0 0 0 
0 0 0 0 0 0 0 0 0 
0 0 0 0 0 0 0 0 0 
0 0 0 0 0 0 0 0 0 
0 0 0 0 0 0 0 0 0 
0 0 0 0 0 0 0 0 0 
0 0 0 0 0 0 0 0 0 
0 0 0 0 0 0 0 0 0 
0 0 0 0 0 0 0 0 0 
0 0 0 0 0 0 0 0 0 
0 0 0 0 0 0 0 0 0 
0 0 0 0 0 0 0 0 0 
0 0 0 0 0 0 0 0 0 
0 0 0 0 0 0 0 0 0 
0 0 0 0 0 0 0 0 0 
0 0 0 0 0 0 0 0 0 
0 0 0 0 0 0 0 0 0 
0 0 0 0 0 0 0 0 0 
0 0 0 0 0 0 0 0 0 
0 0 0 0 0 0 0 0 0 
0 0 0 0 0 0 0 0 0 
0 0 0 0 0 0 0 0 0 
0 0 0 0 0 0 0 0 0 
0 0 0 0 0 0 0 0 0 
0 0 0 0 0 0 0 0 0 
0 0 0 0 0 0 0 0 0 
0 0 0 0 0 0 0 0 0 
0 0 0 0 0 0 0 0 0 
0 0 0 0 0 0 0 0 0 
0 0 0 0 0 0 0 0 0 
0 0 0 0 0 0 0 0 0 
0 0 0 0 0 0 0 0 0 
0 0 0 0 0 0 0 0 0 
0 0 0 0 0 0 0 0 0 
0 0 0 0 0 0 0 0 0 
0 0 0 0 0 0 0 0 0 
0 0 0 0 0 0 0 0 0 
0 0 0 0 0 0 0 0 0 
0 0 0 0 0 0 0 0 0 
0 0 0 0 0 0 0 0 0 
0 0 0 0 0 0 0 0 0 
0 0 0 0 0 0 0 0 0 
0 0 0 0 0 0 0 0 0 
0 0 0 0 0 0 0 0 0 
0 0 0 0 0 0 0 0 0 
0 0 0 0 0 0 0 0 0 
0 0 0 0 0 0 0 0 0 
0 0 0 0 0 0 0 0 0 
0 0 0 0 0 0 0 0 0 
0 0 0 0 0 0 0 0 0 
0 0 0 0 0 0 0 0 0 
0 0 0 0 0 0 0 0 0 
0 0 0 0 0 0 0 0 0 
0 0 0 0 0 0 0 0 0 
0 0 0 0 0 0 0 0 0 
0 0 0 0 0 0 0 0 0 
0 0 0 0 0 0 0 0 0 
0 0 0 0 0 0 0 0 0 
0 0 0 0 0 0 0 0 0 
0 0 0 0 0 0 0 0 0 
0 0 0 0 0 0 0 0 0 
0 0 0 0 0 0 0 0 0 
0 0 0 0 0 0 0 0 0 
0 0 0 0 0 0 0 0 0 
0 0 0 0 0 0 0 0 0 
0 0 0 0 0 0 0 0 0 
0 0 0 0 0 0 0 0 0 
0 0 0 0 0 0 0 0 0 
0 0 0 0 0 0 0 0 0 
0 0 0 0 0 0 0 0 0 

B_magnitude 1 648 double
0 0 0 0 0 0 0 0 0 
0 0 0 0 0 0 0 0 0 
0 0 0 0 0 0 0 0 0 
0 0 0 0 0 0 0 0 0 
0 0 0 0 0 0 0 0 0 
0 0 0 0 0 0 0 0 0 
0 0 0 0 0 0 0 0 0 
0 0 0 0 0 0 0 0 0 
0 0 0 0 0 0 0 0 0 
0 0 0 0 0 0 0 0 0 
0 0 0 0 0 0 0 0 0 
0 0 0 0 0 0 0 0 0 
0 0 0 0 0 0 0 0 0 
0 0 0 0 0 0 0 0 0 
0 0 0 0 0 0 0 0 0 
0 0 0 0 0 0 0 0 0 
0 0 0 0 0 0 0 0 0 
0 0 0 0 0 0 0 0 0 
0 0 0 0 0 0 0 0 0 
0 0 0 0 0 0 0 0 0 
0 0 0 0 0 0 0 0 0 
0 0 0 0 0 0 0 0 0 
0 0 0 0 0 0 0 0 0 
0 0 0 0 0 0 0 0 0 
0 0 0 0 0 0 0 0 0 
0 0 0 0 0 0 0 0 0 
0 0 0 0 0 0 0 0 0 
0 0 0 0 0 0 0 0 0 
0 0 0 0 0 0 0 0 0 
0 0 0 0 0 0 0 0 0 
0 0 0 0 0 0 0 0 0 
0 0 0 0 0 0 0 0 0 
0 0 0 0 0 0 0 0 0 
0 0 0 0 0 0 0 0 0 
0 0 0 0 0 0 0 0 0 
0 0 0 0 0 0 0 0 0 
0 0 0 0 0 0 0 0 0 
0 0 0 0 0 0 0 0 0 
0 0 0 0 0 0 0 0 0 
0 0 0 0 0 0 0 0 0 
0 0 0 0 0 0 0 0 0 
0 0 0 0 0 0 0 0 0 
0 0 0 0 0 0 0 0 0 
0 0 0 0 0 0 0 0 0 
0 0 0 0 0 0 0 0 0 
0 0 0 0 0 0 0 0 0 
0 0 0 0 0 0 0 0 0 
0 0 0 0 0 0 0 0 0 
0 0 0 0 0 0 0 0 0 
0 0 0 0 0 0 0 0 0 
0 0 0 0 0 0 0 0 0 
0 0 0 0 0 0 0 0 0 
0 0 0 0 0 0 0 0 0 
0 0 0 0 0 0 0 0 0 
0 0 0 0 0 0 0 0 0 
0 0 0 0 0 0 0 0 0 
0 0 0 0 0 0 0 0 0 
0 0 0 0 0 0 0 0 0 
0 0 0 0 0 0 0 0 0 
0 0 0 0 0 0 0 0 0 
0 0 0 0 0 0 0 0 0 
0 0 0 0 0 0 0 0 0 
0 0 0 0 0 0 0 0 0 
0 0 0 0 0 0 0 0 0 
0 0 0 0 0 0 0 0 0 
0 0 0 0 0 0 0 0 0 
0 0 0 0 0 0 0 0 0 
0 0 0 0 0 0 0 0 0 
0 0 0 0 0 0 0 0 0 
0 0 0 0 0 0 0 0 0 
0 0 0 0 0 0 0 0 0 
0 0 0 0 0 0 0 0 0 

B_gradient_mag 1 648 double
0 0 0 0 0 0 0 0 0 
0 0 0 0 0 0 0 0 0 
0 0 0 0 0 0 0 0 0 
0 0 0 0 0 0 0 0 0 
0 0 0 0 0 0 0 0 0 
0 0 0 0 0 0 0 0 0 
0 0 0 0 0 0 0 0 0 
0 0 0 0 0 0 0 0 0 
0 0 0 0 0 0 0 0 0 
0 0 0 0 0 0 0 0 0 
0 0 0 0 0 0 0 0 0 
0 0 0 0 0 0 0 0 0 
0 0 0 0 0 0 0 0 0 
0 0 0 0 0 0 0 0 0 
0 0 0 0 0 0 0 0 0 
0 0 0 0 0 0 0 0 0 
0 0 0 0 0 0 0 0 0 
0 0 0 0 0 0 0 0 0 
0 0 0 0 0 0 0 0 0 
0 0 0 0 0 0 0 0 0 
0 0 0 0 0 0 0 0 0 
0 0 0 0 0 0 0 0 0 
0 0 0 0 0 0 0 0 0 
0 0 0 0 0 0 0 0 0 
0 0 0 0 0 0 0 0 0 
0 0 0 0 0 0 0 0 0 
0 0 0 0 0 0 0 0 0 
0 0 0 0 0 0 0 0 0 
0 0 0 0 0 0 0 0 0 
0 0 0 0 0 0 0 0 0 
0 0 0 0 0 0 0 0 0 
0 0 0 0 0 0 0 0 0 
0 0 0 0 0 0 0 0 0 
0 0 0 0 0 0 0 0 0 
0 0 0 0 0 0 0 0 0 
0 0 0 0 0 0 0 0 0 
0 0 0 0 0 0 0 0 0 
0 0 0 0 0 0 0 0 0 
0 0 0 0 0 0 0 0 0 
0 0 0 0 0 0 0 0 0 
0 0 0 0 0 0 0 0 0 
0 0 0 0 0 0 0 0 0 
0 0 0 0 0 0 0 0 0 
0 0 0 0 0 0 0 0 0 
0 0 0 0 0 0 0 0 0 
0 0 0 0 0 0 0 0 0 
0 0 0 0 0 0 0 0 0 
0 0 0 0 0 0 0 0 0 
0 0 0 0 0 0 0 0 0 
0 0 0 0 0 0 0 0 0 
0 0 0 0 0 0 0 0 0 
0 0 0 0 0 0 0 0 0 
0 0 0 0 0 0 0 0 0 
0 0 0 0 0 0 0 0 0 
0 0 0 0 0 0 0 0 0 
0 0 0 0 0 0 0 0 0 
0 0 0 0 0 0 0 0 0 
0 0 0 0 0 0 0 0 0 
0 0 0 0 0 0 0 0 0 
0 0 0 0 0 0 0 0 0 
0 0 0 0 0 0 0 0 0 
0 0 0 0 0 0 0 0 0 
0 0 0 0 0 0 0 0 0 
0 0 0 0 0 0 0 0 0 
0 0 0 0 0 0 0 0 0 
0 0 0 0 0 0 0 0 0 
0 0 0 0 0 0 0 0 0 
0 0 0 0 0 0 0 0 0 
0 0 0 0 0 0 0 0 0 
0 0 0 0 0 0 0 0 0 
0 0 0 0 0 0 0 0 0 
0 0 0 0 0 0 0 0 0 

