# vtk DataFile Version 5.1
Generated by LIGGGHTS
ASCII
DATASET POLYDATA
POINTS 648 float
-0.0144089 0.0201081 0.00148705 0.0104707 0.0313218 0.00134446 0.00798734 -0.0367051 0.00185752 
0.0289145 -0.0340196 0.00200247 -0.015788 -0.0282898 0.00245548 -0.0129003 -0.00574839 0.00163349 
-0.0179231 -0.00300678 0.001138 0.0154702 -0.00154679 0.00253503 -0.0356048 -0.000104637 0.00265216 
0.0384376 0.000848974 0.0020644 0.021602 0.00540593 0.00184535 -0.0428902 -0.0449088 0.002959 
0.0185094 -0.042363 0.0036673 0.0341086 -0.0368686 0.00293174 -0.0105296 -0.0314142 0.00322693 
-0.0419519 -0.0259749 0.00388888 0.00357123 -0.00830953 0.00183094 -0.0198564 -0.00683511 0.00323771 
-0.0426568 0.00723228 0.0035749 0.0379188 0.0120326 0.00347158 -0.0310202 0.0131063 0.00354835 
0.0248423 0.0143007 0.00328265 0.0123926 0.0218243 0.00300199 0.0167463 0.0251763 0.00293416 
-0.0197415 0.0344175 0.00178337 -0.0440308 0.0448256 0.00335284 0.033456 -0.0256735 0.00393379 
0.0414834 -0.0181367 0.00487181 0.0350526 -0.0102353 0.00456899 0.00937085 -0.00418454 0.00465161 
0.0292006 0.00433004 0.00423595 0.0212596 0.00979192 0.00467245 0.0143092 0.0139794 0.00418503 
-0.0360536 0.0173104 0.00438207 -0.0245993 0.0193658 0.00319919 -0.0170112 0.0231088 0.00320921 
0.03506 0.0228899 0.00482446 -0.0437633 0.0406561 0.00485205 -0.00302782 -0.0385948 0.00542042 
0.0156715 -0.0391733 0.00628349 0.0419483 -0.0348097 0.00452723 -0.0266532 -0.0301716 0.00527051 
-0.0336946 -0.0248459 0.00673231 -0.0108877 -0.0188832 0.0058548 -0.0420316 -0.0145538 0.00582663 
0.00689113 -0.0107816 0.00504371 0.00417698 0.0024455 0.00598599 0.0305447 0.00486582 0.00545919 
-0.0287984 0.00559412 0.0056456 0.0320014 0.00756294 0.0066628 -0.0371624 0.011326 0.00650618 
0.0114764 0.0140289 0.00562118 0.0287781 0.014071 0.00598964 0.0215224 0.0171285 0.00542709 
0.0323341 0.0191974 0.00551358 -0.0153727 0.020636 0.00516862 -0.0282566 0.021284 0.00566532 
-0.0269229 0.0267788 0.00653435 -0.0409258 0.0305044 0.00631613 0.0297434 0.0373158 0.00510052 
-0.0160353 0.0448572 0.00654394 0.0339316 -0.041715 0.00692526 0.040047 -0.0404588 0.0069268 
-0.0232422 -0.0321576 0.00754256 0.0101031 -0.0273014 0.00710998 -0.00446216 -0.0255279 0.00750187 
-0.0329608 -0.0218045 0.00735113 0.0436787 -0.0219137 0.00737397 0.0336491 -0.0197505 0.00678792 
0.0030191 -0.0179247 0.00738794 0.0223879 -0.0163393 0.00680916 0.0277003 -0.0107969 0.00758852 
0.0342493 -0.0115037 0.00779565 -0.0386256 -0.00983966 0.00694733 -0.024842 -0.00884532 0.00748102 
-0.00783961 -0.000387029 0.00748743 0.00635633 0.000852437 0.00602988 -0.00967086 0.00179773 0.00754922 
0.00265626 0.00371614 0.00690425 0.00314898 0.00491531 0.00753994 0.0399323 0.0117688 0.00761543 
-0.034865 0.0142961 0.00649167 0.0153641 0.0146287 0.00708668 -0.0296003 0.0277025 0.00582705 
-0.0213481 0.0319153 0.00736836 0.00284552 0.0345861 0.00757017 0.0165329 0.0385374 0.00699472 
0.0251972 0.0393087 0.00682299 -0.0281804 0.0418824 0.00801439 0.0131273 0.040817 0.00650396 
-0.0390027 0.0421086 0.00667855 -0.044759 -0.0437614 0.00891688 0.0433459 -0.0353282 0.00884293 
0.023158 -0.0340207 0.00873196 0.0244271 -0.0334586 0.00805907 0.00577088 -0.0287415 0.00823235 
0.032808 -0.025967 0.00889441 -0.0408326 -0.0234295 0.00851202 -0.0328109 -0.0226975 0.00926825 
-0.0317771 -0.0175651 0.00893824 -0.0393221 -0.0167834 0.00840507 -0.0227164 -0.0141288 0.00876503 
-0.0207563 -0.0111167 0.00902104 0.0223025 -0.0112244 0.00842895 -0.0326334 -0.00963456 0.00824959 
0.00743742 -0.00926665 0.00876334 0.0275881 -0.00673863 0.00862893 0.0131353 -0.00504642 0.00892088 
-0.00702036 -0.00121172 0.00796297 -0.0170872 0.00564833 0.0082947 0.0011249 0.00615697 0.00802804 
8.23501e-07 0.0138406 0.00818625 -0.0214239 0.0189608 0.00864778 -0.023041 0.0197144 0.00858059 
0.0226957 0.0260881 0.00865974 -0.0102477 0.0267602 0.00918697 0.0152528 0.033152 0.00852228 
0.0164577 0.0353116 0.00806083 0.00513794 0.0433856 0.00828931 0.0262096 -0.0449372 0.0102979 
-0.0308094 -0.0435702 0.00920407 -0.0349861 -0.0412827 0.0104129 0.0338942 -0.0410147 0.0097842 
-0.042922 -0.0404536 0.00900772 -0.0385899 -0.0405251 0.00932559 0.0308099 -0.0378456 0.00998049 
0.0333162 -0.0342631 0.0101666 -0.00586029 -0.0338127 0.0100728 0.00264867 -0.0338128 0.0097785 
-0.0160452 -0.0323821 0.00993183 0.0280204 -0.0311414 0.00927567 -0.0448384 -0.0296834 0.00902721 
0.000892701 -0.0263701 0.00951117 0.0363266 -0.0194176 0.0095742 0.0404767 -0.0183151 0.00907835 
-0.0405162 -0.0161033 0.00975718 -0.0257955 -0.0157834 0.00988303 0.0302919 -0.0148257 0.0099246 
0.0414517 -0.0114994 0.00970928 -0.0449336 -0.00957357 0.00988789 -0.0222502 -0.00974669 0.0100331 
-0.0112192 -0.0104501 0.00906519 0.0414788 -0.00521487 0.00877352 0.0293019 -0.00298432 0.00925521 
-0.00229178 0.0020129 0.0104371 0.0449494 0.00392273 0.00987891 0.0277548 0.0042931 0.00978857 
0.0228765 0.00606581 0.00908253 0.0221269 0.00728552 0.00967078 -0.0392616 0.00972366 0.00954452 
-0.0214351 0.00957734 0.00917115 -0.0101256 0.00978275 0.0097006 -0.0394276 0.0109375 0.00921501 
-0.022709 0.0198803 0.00977379 -0.0368667 0.0306348 0.0096311 -0.032208 0.0306075 0.010565 
0.0354139 0.0312817 0.00935138 0.0364634 0.0310238 0.00935419 0.0444958 0.0309554 0.00909534 
-0.0264781 0.032823 0.00914162 0.0163992 0.0415262 0.00941835 -0.0335565 -0.0442122 0.0113994 
0.0418836 -0.0421436 0.0104012 -0.00521279 -0.0413279 0.0104786 0.0414821 -0.0410789 0.0110873 
-0.018434 -0.0405477 0.0109087 -0.0108246 -0.0388127 0.0110348 0.000822496 -0.0363122 0.0104683 
0.027474 -0.0338615 0.0113571 -0.0262624 -0.032473 0.011304 0.0346336 -0.0325969 0.0109225 
-0.0225401 -0.0213878 0.0112715 0.0262592 -0.0217201 0.011178 -0.00444012 -0.0151621 0.0104964 
-0.0388614 -0.0136303 0.0115523 -0.0117656 -0.0138394 0.010527 0.013874 -0.00963069 0.0108591 
0.0313953 -0.00974065 0.0115434 0.0282359 -0.00877456 0.00998859 -0.0343844 -0.0078404 0.0109994 
0.0109664 -0.00760095 0.0107497 -0.00747582 -0.00609419 0.0114374 -0.00474481 -0.00600267 0.0118269 
-0.040885 -0.00406647 0.0104492 -0.0141425 -0.00311887 0.0105653 0.032558 0.00153523 0.0110965 
0.0101693 0.00555192 0.011059 0.0246705 0.0064451 0.0108067 0.0283387 0.00890506 0.0111753 
0.0197977 0.00963841 0.0104237 -0.00279986 0.0127222 0.0108907 -0.00307286 0.0144526 0.0115005 
0.012585 0.0155082 0.0109475 0.0121458 0.0151918 0.0113311 0.0418335 0.0161761 0.0107225 
0.00153271 0.0201988 0.0116287 0.0307708 0.0242663 0.0110738 -0.0127911 0.0299546 0.0114062 
-0.0200898 0.0311527 0.0111569 0.00372347 0.0304157 0.011177 0.0439232 0.0371117 0.0108953 
-0.00973825 0.0391656 0.0113344 0.0238959 0.0383247 0.0106892 -0.0312382 0.0393096 0.0102972 
0.0222253 0.0407186 0.0112005 0.0181024 -0.0433049 0.0127407 0.0348044 -0.042095 0.0126309 
0.000425919 -0.0415728 0.0129216 -0.0248652 -0.040212 0.0121725 -0.0168273 -0.0360331 0.0125779 
0.00594186 -0.0351889 0.0124503 0.0449741 -0.0303513 0.0126585 0.0412685 -0.0295104 0.0119384 
-0.0430551 -0.0267583 0.0121341 0.0306875 -0.0259396 0.0120026 0.039775 -0.0211058 0.0118587 
-0.0296942 -0.0196153 0.0120361 -0.0183202 -0.0175475 0.0127773 -0.0100897 -0.0180162 0.012126 
0.0198229 -0.0156851 0.0123159 -0.00553214 -0.00871323 0.0117224 -0.00254943 -0.00825679 0.012752 
-0.00433253 -0.00676057 0.0121669 0.0129906 -0.00677597 0.0129682 0.021323 -0.00444137 0.0118789 
-0.0281455 -0.00127675 0.0118471 0.0290986 -0.000251763 0.0128586 -0.0260142 0.00017485 0.0122567 
0.0188762 0.00181355 0.0126043 -0.0325416 0.00283857 0.0127241 0.0340899 0.00882812 0.0119409 
0.0398091 0.011618 0.0121413 0.00861143 0.0123591 0.0118122 -0.0081225 0.0151775 0.01198 
0.00517921 0.0169249 0.0118421 0.00546842 0.0177814 0.0128716 0.0090081 0.0191686 0.0118834 
0.00976854 0.0197772 0.0126704 0.0258603 0.0235991 0.0126663 0.0395905 0.0272142 0.0128255 
0.0038092 0.0311583 0.0121692 0.026696 0.03017 0.0128793 -0.0073504 0.0318329 0.012691 
0.00390562 0.0317225 0.0118883 0.01325 0.0319187 0.0120357 -0.0422696 0.0340949 0.0127191 
0.00308146 0.0401468 0.0110151 -0.00674967 -0.0416523 0.0132667 -0.0406141 -0.0405112 0.0143318 
-0.0334706 -0.0396012 0.0132561 0.0346338 -0.0290927 0.0134506 0.0164647 -0.0275391 0.0139365 
0.0054016 -0.025334 0.0144521 0.0155599 -0.0240909 0.0133724 -0.0323128 -0.0219837 0.0131594 
-0.0291427 -0.0219343 0.0139215 0.0233461 -0.0214624 0.013284 -0.00827992 -0.020547 0.0139318 
0.00156248 -0.0194187 0.0128863 0.0218308 -0.0192565 0.0133492 0.0184681 -0.0172117 0.0140761 
-0.0339565 -0.0167518 0.01376 0.0252581 -0.0163235 0.0142438 0.0323804 -0.0132471 0.013299 
0.0322358 -0.0130621 0.013693 0.0286804 -0.00919085 0.0133109 -0.00401126 -0.00720159 0.0140929 
0.0404774 -0.00688032 0.0131616 0.0387156 -0.00624884 0.0131108 0.0180565 -0.00487531 0.0140472 
-0.0120059 -0.00345367 0.0130527 0.00664535 -0.00164817 0.0137725 -0.000610522 -0.00103491 0.0134483 
-0.025141 0.00447188 0.013058 -0.0406381 0.00555966 0.014155 -0.00552594 0.00555795 0.0139497 
0.00474506 0.0103043 0.0143007 0.0211953 0.00966092 0.0129972 -0.0365733 0.0119208 0.013185 
0.00243185 0.0120975 0.0135006 0.000954082 0.0152563 0.0135591 0.0407412 0.0174253 0.0134048 
0.018015 0.0183735 0.0134829 -0.0267196 0.0236159 0.0140612 -0.0386663 0.0253433 0.0137028 
-0.0267569 0.0263983 0.0139246 -0.00563177 0.0268155 0.0136214 0.00834461 0.0278725 0.0130611 
0.0434247 0.0295768 0.014312 -0.0313244 0.0314049 0.0131634 -0.0108954 0.0304 0.0131135 
-0.0337286 0.0337045 0.0133616 0.0231674 0.0340949 0.0131803 -0.041477 0.0364172 0.0135186 
-0.0155539 0.0359545 0.0130731 -0.0133259 0.0414802 0.0136218 0.0294278 0.0431452 0.0130937 
0.0405446 0.0433429 0.0134674 -0.027409 -0.0433703 0.0154055 0.0416479 -0.0439733 0.0143207 
0.0201641 -0.0426709 0.0155611 -0.0169239 -0.0402939 0.0145718 -0.0273176 -0.0361067 0.0145073 
-0.00161929 -0.0353994 0.0150831 0.0195647 -0.0366528 0.0151426 -0.0177429 -0.0346724 0.0146372 
0.0077947 -0.0345433 0.0143868 0.00879071 -0.0344865 0.0153535 0.0403097 -0.0347888 0.0150974 
-0.0427235 -0.0332389 0.0152919 0.00802514 -0.031483 0.0151728 -0.0396817 -0.0304797 0.0157392 
-0.0386911 -0.0311434 0.0145562 0.00231692 -0.0294453 0.0155882 0.0392765 -0.0300093 0.014616 
-0.0401314 -0.0280847 0.0146709 -0.0432264 -0.0264101 0.0148486 -0.0164034 -0.0216001 0.0153603 
0.00623721 -0.0211799 0.0145587 -0.0328213 -0.0176588 0.0145615 -0.0426154 -0.0165053 0.0142939 
-0.0408642 -0.0154151 0.0153604 -0.015814 -0.0152491 0.0144731 0.0268005 -0.0146468 0.0152742 
0.0375745 -0.0151367 0.0145371 -0.0329121 -0.0139828 0.0154661 -0.0313057 -0.0141988 0.015603 
-0.0341597 -0.0122829 0.0147375 0.0176437 -0.0119747 0.014923 -0.0136128 -0.00979682 0.0156103 
0.0251729 -0.00985964 0.0145844 -0.042331 -0.00792816 0.0151416 -0.0304645 -0.00701594 0.015032 
-0.042786 -0.00359954 0.0149407 -0.0408474 -0.00214648 0.0146053 -0.0376932 -0.000132947 0.0144922 
0.0404406 0.00462082 0.0143124 0.030759 0.00580352 0.0144544 0.0332757 0.00539899 0.0152422 
0.00533928 0.00728904 0.0145076 0.0110904 0.00657535 0.0154036 0.023953 0.00820576 0.0155964 
-0.0349081 0.00917553 0.0154497 0.00978397 0.00922321 0.0147779 -0.0350204 0.0121089 0.0155037 
-0.00831541 0.0129665 0.0148679 0.00789931 0.0136568 0.0148493 -0.00443291 0.0160613 0.014588 
0.0256029 0.0175394 0.0149694 0.00395304 0.0187088 0.0144233 0.00757299 0.0192258 0.0144138 
0.0350116 0.0207306 0.0153192 0.00128112 0.0217131 0.0150206 0.0362273 0.0220011 0.0154116 
0.0181332 0.0246356 0.0148311 -0.00739359 0.0259593 0.0144727 0.00953871 0.0271324 0.0154335 
-0.0357156 0.0282031 0.0144492 -0.0152062 0.0294088 0.0149958 0.0191509 0.0299648 0.0142373 
-0.0219587 0.0304934 0.0150074 0.0372507 0.0318783 0.0146834 0.0214431 0.0335886 0.014991 
-0.00196307 0.0366495 0.0148156 -0.0245447 0.0378537 0.0145569 0.0030545 0.0369981 0.0154093 
-0.00883869 0.0381834 0.0145362 0.0281745 0.039089 0.0149579 -0.0112537 0.0395394 0.0148779 
0.0221021 0.0401282 0.0153182 0.00805094 0.0422278 0.0149748 -0.0205282 0.0432397 0.0146316 
0.0114086 0.0440135 0.0146022 0.0399235 0.0434757 0.0155266 0.0171919 0.0449185 0.0145005 
0.0211706 0.0445491 0.014493 -0.0346971 -0.0446764 0.0165904 -0.00340304 -0.0448428 0.015763 
-0.0248654 -0.0427111 0.0166862 0.0248068 -0.0428986 0.0163951 0.0238162 -0.0409762 0.0167416 
-0.00670669 -0.0394183 0.015659 0.0244803 -0.0401788 0.0164472 0.0397687 -0.0374633 0.0167791 
-0.0439713 -0.0357399 0.0157954 0.0355384 -0.0354155 0.0166589 0.023019 -0.0293484 0.0159073 
-0.00580099 -0.0272788 0.0155875 0.03382 -0.0268981 0.0168635 -0.0338231 -0.0250135 0.0157647 
-0.0350278 -0.0224863 0.0157433 -0.0139777 -0.0223984 0.0164602 0.0115492 -0.0227248 0.0156941 
-0.0204621 -0.0172006 0.0163126 0.0282033 -0.0178095 0.0159652 -0.0196799 -0.00931279 0.0160578 
-0.0211095 -0.00770044 0.0169256 -0.0395569 -0.00227866 0.0157105 -0.0416237 0.00110806 0.0164885 
0.0147261 0.00139147 0.0155497 -0.037077 0.00611456 0.0159605 -0.00723413 0.00605583 0.0165733 
0.0142017 0.0079404 0.0160583 0.0202046 0.00840095 0.0160625 0.014866 0.0127598 0.0165434 
0.0261916 0.0119357 0.016688 -0.0429188 0.0135204 0.0166601 0.0440772 0.0154938 0.0162286 
-0.0193355 0.018129 0.0159387 -0.0256005 0.0215871 0.0158273 -0.0421793 0.0225172 0.0167774 
-0.0349287 0.0230684 0.0162679 -0.0295899 0.0232577 0.015633 0.0146363 0.0223077 0.0165757 
-0.00782209 0.0241861 0.0159064 0.00264144 0.0247174 0.0159345 -0.0406313 0.0295913 0.0158935 
-0.00435696 0.0325462 0.016252 -0.00472634 0.0344449 0.0158222 -0.0407273 0.0358476 0.0158751 
-0.00647711 0.0391566 0.0161607 -0.039126 0.0399637 0.0159042 -0.0375088 0.0393741 0.0162389 
0.0145521 -0.0432303 0.0171609 0.0131812 -0.0427533 0.0178622 0.0166138 -0.0412108 0.0180571 
-0.0370475 -0.0370945 0.0171193 -0.0309963 -0.0355024 0.0181229 -8.23525e-05 -0.034098 0.0178693 
-0.0376897 -0.0314333 0.0172974 -0.0263426 -0.0292431 0.0175025 -0.0240719 -0.0268296 0.0180699 
0.00538025 -0.0241403 0.0178837 0.0109547 -0.0235646 0.0171 0.035159 -0.023363 0.0181385 
0.00548761 -0.0197918 0.0174911 0.038292 -0.016257 0.0178845 0.0249316 -0.014475 0.0173541 
-0.0186412 -0.0134353 0.0181107 0.0403752 -0.0143085 0.0173226 0.0433204 -0.0141837 0.0161688 
-0.0327621 -0.0121928 0.0177836 -0.0269092 -0.0125643 0.0171167 0.0406218 -0.0100941 0.0172976 
-0.0344646 -0.00725539 0.0179234 -0.0150798 -0.00698339 0.0176228 -0.0135858 -0.00672635 0.0174034 
0.0161928 -0.00760918 0.0176254 0.00523139 -0.00599236 0.0174605 0.0180458 -0.00470109 0.0179055 
-0.00941413 -0.00330341 0.0181678 0.00975646 -0.00313231 0.0177795 -0.00896956 -0.00131708 0.0176821 
0.0168839 -0.00210364 0.0182291 0.0140084 -6.89735e-05 0.0181965 0.0407777 0.000744206 0.0174436 
0.0362421 0.00170773 0.0168935 -0.0261639 0.00337815 0.0174695 0.00243665 0.00282786 0.0178708 
-0.00757157 0.00454821 0.0171145 0.0323225 0.00436429 0.0172612 0.0133448 0.00646544 0.0181113 
0.0250346 0.00641518 0.0176914 0.0128044 0.0127337 0.0171022 -0.00867948 0.0139924 0.0176888 
0.0336082 0.013194 0.0178576 0.0441199 0.0136981 0.0176443 -0.0196462 0.0155185 0.0171326 
0.0226738 0.0181095 0.0177734 0.0122157 0.0191756 0.0170145 0.0388885 0.0193682 0.0170897 
-0.0431379 0.0208085 0.0172383 -0.0287332 0.0215601 0.0170663 -0.0122989 0.0222019 0.0178223 
0.0398418 0.0217469 0.0179923 0.0438582 0.0244724 0.0178465 0.000162142 0.0251126 0.0176083 
-0.0190887 0.0269029 0.0172632 -0.0114472 0.026715 0.0171816 -0.0376379 0.0294143 0.0172567 
0.00519606 0.0301696 0.0177968 0.00317215 0.0343196 0.0177179 0.0311732 0.0371467 0.0172177 
-0.0181988 0.0434549 0.0169045 0.0352701 0.0439749 0.0178416 0.0352379 0.0438995 0.0174346 
-0.0317519 -0.0446953 0.0190752 -0.00396528 -0.0444182 0.0183092 0.0195053 -0.043722 0.0185698 
-0.0389435 -0.0425966 0.018666 0.0406519 -0.0427256 0.0191904 -0.0136468 -0.0412372 0.0184732 
0.0424299 -0.0409921 0.0187738 0.00849583 -0.0405939 0.0191748 -0.0289295 -0.0389067 0.0187287 
-0.0234086 -0.038644 0.0190248 -0.0195638 -0.0385913 0.0190665 0.0325128 -0.03812 0.0186052 
0.00985621 -0.0367022 0.0183481 -0.00338111 -0.0363358 0.018434 0.0307351 -0.0355434 0.018532 
-0.0179089 -0.0346335 0.0192492 -0.0177803 -0.0340186 0.0184314 -0.0161578 -0.0337243 0.0183569 
-0.0233761 -0.031813 0.0194168 -0.0210092 -0.0320472 0.0187958 0.0268369 -0.0315202 0.0190251 
-0.0220587 -0.0306349 0.0186617 0.010226 -0.0308634 0.018898 -0.0414327 -0.0290659 0.018437 
-0.0346801 -0.0287009 0.0185575 -0.0240024 -0.0280603 0.0183783 0.0153133 -0.0285941 0.0184421 
0.0156293 -0.0283842 0.0188598 0.0347572 -0.0260666 0.019252 -0.00863888 -0.0237376 0.0182479 
0.00179778 -0.0247441 0.0185265 0.00558373 -0.0242787 0.0189527 0.0102479 -0.024092 0.0193564 
0.0210005 -0.0239559 0.0188746 -0.038621 -0.0229432 0.0187869 -0.0127621 -0.0231756 0.0188821 
0.0240101 -0.0228809 0.0187472 0.0394323 -0.021923 0.0192973 -0.0210835 -0.0209207 0.0183101 
-0.0033641 -0.0204173 0.0183071 -0.0207996 -0.0190456 0.018765 0.0134129 -0.0192809 0.018772 
-0.0147645 -0.0165889 0.0186092 0.0296492 -0.015918 0.0188319 0.0132043 -0.01541 0.0185662 
0.0323803 -0.0150629 0.0188495 -0.0279963 -0.0141356 0.0185937 -0.00710141 -0.0133745 0.0186345 
0.00886689 -0.0141191 0.0191629 0.0144468 -0.013247 0.018411 -0.00528066 -0.0121118 0.0186442 
0.0347312 -0.012978 0.0187266 0.0253763 -0.011051 0.0193546 -0.038829 -0.00978443 0.0192007 
-0.0253401 -0.0103599 0.0187092 0.0218314 -0.00971151 0.0188073 0.0334462 -0.00930086 0.0186004 
-0.0101373 -0.00698039 0.0185671 -0.00720807 -0.00608605 0.0185789 -0.0253129 -0.0039775 0.0187548 
0.0200271 -0.00425623 0.0183827 -0.0107529 -0.00365687 0.0190705 -0.0198668 -0.00211416 0.0186809 
-0.0283489 -0.000417126 0.0183491 -0.0153419 -0.00108619 0.0182416 0.00127443 -0.000618905 0.0185881 
0.0420414 -0.00101026 0.0188644 -0.0332593 0.000859011 0.0189036 0.0116524 0.00206193 0.0188518 
0.0189244 0.00254502 0.0193913 -0.0233311 0.00384073 0.0190389 0.0183943 0.00266245 0.0184166 
-0.027449 0.00511055 0.0189438 0.0260144 0.00429017 0.0192199 -0.0403489 0.00598291 0.0182892 
-0.01547 0.00642247 0.0191347 0.0358407 0.00533501 0.0185904 -0.0429246 0.00657681 0.0186958 
-0.019893 0.00878872 0.0190801 -0.0105861 0.00898083 0.0185556 0.0324887 0.00836074 0.0186349 
-0.0408306 0.00999374 0.0191815 0.0234497 0.00978487 0.0187257 0.027557 0.009967 0.0192337 
-0.00808524 0.0113378 0.0190969 -0.00071691 0.0108932 0.0186553 0.00418285 0.0112423 0.0194264 
-0.00841171 0.0143034 0.0185483 0.012949 0.0143048 0.0187633 0.0311878 0.014057 0.0182685 
0.0396593 0.013993 0.0185823 -0.0287818 0.014969 0.0186372 -0.0231109 0.0157017 0.0186125 
-0.0408838 0.0159645 0.0185874 -0.0286532 0.0159811 0.0186502 -0.0161548 0.0159009 0.0190137 
-0.00317984 0.0164631 0.0186153 -0.0436896 0.0195853 0.0186397 -0.0363159 0.0185996 0.0186347 
0.00742845 0.0199749 0.0194848 -0.0324762 0.0230005 0.0190099 -0.0148746 0.0223253 0.0185607 
0.00126512 0.0228658 0.0186244 -0.0436572 0.0238848 0.018636 -0.0138035 0.0240512 0.0188176 
-0.0132251 0.0252506 0.0190328 -0.0128609 0.0265935 0.0185887 -0.0214233 0.0285543 0.0187225 
0.0397191 0.0283771 0.0188256 0.0040127 0.0314243 0.0188664 0.0191028 0.0315895 0.0185853 
0.0193546 0.0324404 0.0190755 0.0337272 0.0324898 0.0191941 0.0380057 0.0324307 0.0193443 
-0.0425374 0.0333781 0.0188679 0.00727395 0.0332762 0.0182396 0.0132394 0.0345575 0.0196039 
0.0278529 0.0342296 0.0190255 -0.00750544 0.0361316 0.019019 0.00888594 0.0360502 0.0184708 
0.00367032 0.0371324 0.0189373 -0.00585061 0.0388609 0.01839 -0.0379532 0.0399341 0.0187965 
0.00201585 0.0404036 0.0189097 -0.00785852 0.041878 0.0189362 0.0170579 0.0421878 0.0191565 
0.0430506 0.0422314 0.0188476 0.00528787 0.0432844 0.0186161 -0.0390775 0.0447256 0.0185306 
-0.0190394 0.0446837 0.0194779 0.0147823 -0.0446949 0.0198403 0.043014 -0.0343178 0.0198984 
-0.00682403 -0.0314098 0.0206909 0.0350196 -0.0250011 0.020167 0.0204492 -0.0194639 0.0198995 
0.0272875 -0.0186725 0.0202648 -0.0214415 -0.007536 0.0194633 0.0386193 -0.00496685 0.0200246 
-0.0131355 0.00164571 0.0204445 -0.0137512 0.00384646 0.0208005 -0.009285 0.00693532 0.0207791 
-0.00598638 0.00689803 0.0205194 0.021223 0.0244832 0.0208289 -0.014478 0.0275162 0.0199994 
-0.0359241 0.0337864 0.019672 -0.0225361 -0.0441701 0.0218564 0.0127657 -0.00746761 0.0215846 
0.0448793 -0.00396119 0.0220533 0.00643655 -0.000956063 0.021161 -0.0442311 0.00821601 0.0221784 
-0.0408092 0.00981999 0.0215038 -0.0260391 0.0304395 0.0219064 0.0188903 -0.0308528 0.0215836 
-0.0207679 -0.0256315 0.0220213 0.0352883 -0.0103067 0.0229894 0.00976298 0.0163696 0.022569 
-0.0122189 0.0175978 0.0229272 0.00741479 -0.0295782 0.0247025 0.039455 -0.000236508 0.0251097 
0.00347554 0.00338662 0.0243274 -0.00254916 -0.00379952 0.0272889 0.0242571 -0.0100823 0.0326749 

VERTICES 649 648
OFFSETS vtktypeint64
0 1 2 3 4 5 6 7 8 
9 10 11 12 13 14 15 16 17 
18 19 20 21 22 23 24 25 26 
27 28 29 30 31 32 33 34 35 
36 37 38 39 40 41 42 43 44 
45 46 47 48 49 50 51 52 53 
54 55 56 57 58 59 60 61 62 
63 64 65 66 67 68 69 70 71 
72 73 74 75 76 77 78 79 80 
81 82 83 84 85 86 87 88 89 
90 91 92 93 94 95 96 97 98 
99 100 101 102 103 104 105 106 107 
108 109 110 111 112 113 114 115 116 
117 118 119 120 121 122 123 124 125 
126 127 128 129 130 131 132 133 134 
135 136 137 138 139 140 141 142 143 
144 145 146 147 148 149 150 151 152 
153 154 155 156 157 158 159 160 161 
162 163 164 165 166 167 168 169 170 
171 172 173 174 175 176 177 178 179 
180 181 182 183 184 185 186 187 188 
189 190 191 192 193 194 195 196 197 
198 199 200 201 202 203 204 205 206 
207 208 209 210 211 212 213 214 215 
216 217 218 219 220 221 222 223 224 
225 226 227 228 229 230 231 232 233 
234 235 236 237 238 239 240 241 242 
243 244 245 246 247 248 249 250 251 
252 253 254 255 256 257 258 259 260 
261 262 263 264 265 266 267 268 269 
270 271 272 273 274 275 276 277 278 
279 280 281 282 283 284 285 286 287 
288 289 290 291 292 293 294 295 296 
297 298 299 300 301 302 303 304 305 
306 307 308 309 310 311 312 313 314 
315 316 317 318 319 320 321 322 323 
324 325 326 327 328 329 330 331 332 
333 334 335 336 337 338 339 340 341 
342 343 344 345 346 347 348 349 350 
351 352 353 354 355 356 357 358 359 
360 361 362 363 364 365 366 367 368 
369 370 371 372 373 374 375 376 377 
378 379 380 381 382 383 384 385 386 
387 388 389 390 391 392 393 394 395 
396 397 398 399 400 401 402 403 404 
405 406 407 408 409 410 411 412 413 
414 415 416 417 418 419 420 421 422 
423 424 425 426 427 428 429 430 431 
432 433 434 435 436 437 438 439 440 
441 442 443 444 445 446 447 448 449 
450 451 452 453 454 455 456 457 458 
459 460 461 462 463 464 465 466 467 
468 469 470 471 472 473 474 475 476 
477 478 479 480 481 482 483 484 485 
486 487 488 489 490 491 492 493 494 
495 496 497 498 499 500 501 502 503 
504 505 506 507 508 509 510 511 512 
513 514 515 516 517 518 519 520 521 
522 523 524 525 526 527 528 529 530 
531 532 533 534 535 536 537 538 539 
540 541 542 543 544 545 546 547 548 
549 550 551 552 553 554 555 556 557 
558 559 560 561 562 563 564 565 566 
567 568 569 570 571 572 573 574 575 
576 577 578 579 580 581 582 583 584 
585 586 587 588 589 590 591 592 593 
594 595 596 597 598 599 600 601 602 
603 604 605 606 607 608 609 610 611 
612 613 614 615 616 617 618 619 620 
621 622 623 624 625 626 627 628 629 
630 631 632 633 634 635 636 637 638 
639 640 641 642 643 644 645 646 647 
648 
CONNECTIVITY vtktypeint64
0 1 2 3 4 5 6 7 8 
9 10 11 12 13 14 15 16 17 
18 19 20 21 22 23 24 25 26 
27 28 29 30 31 32 33 34 35 
36 37 38 39 40 41 42 43 44 
45 46 47 48 49 50 51 52 53 
54 55 56 57 58 59 60 61 62 
63 64 65 66 67 68 69 70 71 
72 73 74 75 76 77 78 79 80 
81 82 83 84 85 86 87 88 89 
90 91 92 93 94 95 96 97 98 
99 100 101 102 103 104 105 106 107 
108 109 110 111 112 113 114 115 116 
117 118 119 120 121 122 123 124 125 
126 127 128 129 130 131 132 133 134 
135 136 137 138 139 140 141 142 143 
144 145 146 147 148 149 150 151 152 
153 154 155 156 157 158 159 160 161 
162 163 164 165 166 167 168 169 170 
171 172 173 174 175 176 177 178 179 
180 181 182 183 184 185 186 187 188 
189 190 191 192 193 194 195 196 197 
198 199 200 201 202 203 204 205 206 
207 208 209 210 211 212 213 214 215 
216 217 218 219 220 221 222 223 224 
225 226 227 228 229 230 231 232 233 
234 235 236 237 238 239 240 241 242 
243 244 245 246 247 248 249 250 251 
252 253 254 255 256 257 258 259 260 
261 262 263 264 265 266 267 268 269 
270 271 272 273 274 275 276 277 278 
279 280 281 282 283 284 285 286 287 
288 289 290 291 292 293 294 295 296 
297 298 299 300 301 302 303 304 305 
306 307 308 309 310 311 312 313 314 
315 316 317 318 319 320 321 322 323 
324 325 326 327 328 329 330 331 332 
333 334 335 336 337 338 339 340 341 
342 343 344 345 346 347 348 349 350 
351 352 353 354 355 356 357 358 359 
360 361 362 363 364 365 366 367 368 
369 370 371 372 373 374 375 376 377 
378 379 380 381 382 383 384 385 386 
387 388 389 390 391 392 393 394 395 
396 397 398 399 400 401 402 403 404 
405 406 407 408 409 410 411 412 413 
414 415 416 417 418 419 420 421 422 
423 424 425 426 427 428 429 430 431 
432 433 434 435 436 437 438 439 440 
441 442 443 444 445 446 447 448 449 
450 451 452 453 454 455 456 457 458 
459 460 461 462 463 464 465 466 467 
468 469 470 471 472 473 474 475 476 
477 478 479 480 481 482 483 484 485 
486 487 488 489 490 491 492 493 494 
495 496 497 498 499 500 501 502 503 
504 505 506 507 508 509 510 511 512 
513 514 515 516 517 518 519 520 521 
522 523 524 525 526 527 528 529 530 
531 532 533 534 535 536 537 538 539 
540 541 542 543 544 545 546 547 548 
549 550 551 552 553 554 555 556 557 
558 559 560 561 562 563 564 565 566 
567 568 569 570 571 572 573 574 575 
576 577 578 579 580 581 582 583 584 
585 586 587 588 589 590 591 592 593 
594 595 596 597 598 599 600 601 602 
603 604 605 606 607 608 609 610 611 
612 613 614 615 616 617 618 619 620 
621 622 623 624 625 626 627 628 629 
630 631 632 633 634 635 636 637 638 
639 640 641 642 643 644 645 646 647 

POINT_DATA 648
FIELD FieldData 12
id 1 648 int
625 611 115 634 629 383 57 610 568 
465 396 164 635 626 185 574 608 72 
450 620 169 491 18 195 600 639 190 
603 293 370 418 214 150 433 582 588 
219 575 92 459 584 304 581 154 590 
106 175 458 407 556 595 633 310 339 
607 166 49 637 506 362 614 597 508 
404 645 604 578 317 470 289 444 292 
628 544 569 132 630 36 598 593 432 
297 622 609 583 85 246 386 555 606 
372 463 605 51 347 331 267 282 541 
439 618 612 585 599 617 428 615 515 
66 478 456 322 110 521 163 535 579 
552 586 534 200 562 577 134 648 356 
88 571 616 570 107 137 291 238 355 
572 176 537 638 554 227 231 647 592 
565 86 613 467 423 261 197 288 601 
149 594 596 623 26 327 270 412 366 
218 632 207 35 34 24 589 303 543 
64 573 381 58 215 127 157 602 563 
336 243 557 567 385 538 546 353 129 
255 60 202 560 308 40 561 189 504 
187 201 531 320 328 318 62 346 140 
591 87 226 367 352 548 128 121 237 
479 539 247 168 324 260 6 580 125 
542 341 83 186 334 165 373 401 619 
193 587 364 514 507 461 158 268 253 
148 29 550 643 457 549 256 294 445 
532 71 576 547 472 174 440 558 551 
73 553 530 566 483 42 368 299 11 
257 135 564 56 503 545 338 420 345 
273 469 392 117 109 100 408 280 509 
114 488 343 348 251 233 624 361 108 
272 188 31 203 99 82 159 436 518 
489 319 69 229 505 525 333 139 533 
502 527 160 167 274 496 143 374 290 
194 500 306 380 349 264 427 95 399 
263 360 204 141 454 126 426 528 510 
400 497 181 262 46 220 118 417 443 
33 337 529 12 162 199 410 540 321 
419 94 235 232 437 182 559 536 155 
435 91 406 302 351 55 438 275 98 
113 390 429 314 326 122 22 344 103 
409 183 415 526 513 449 298 517 248 
511 382 75 90 495 486 424 112 21 
446 384 358 184 646 287 330 254 104 
14 520 524 222 387 309 413 523 76 
84 414 52 411 487 388 477 295 13 
484 192 329 28 170 240 59 211 644 
146 8 311 53 522 32 278 377 252 
142 20 151 371 265 196 61 519 244 
631 216 512 474 378 119 236 63 178 
54 447 161 357 138 431 279 206 9 
498 30 451 81 313 198 375 397 475 
242 89 93 258 471 68 271 136 312 
173 210 359 102 67 492 402 350 156 
239 307 5 250 283 393 354 96 147 
120 430 493 116 79 223 234 37 416 
323 111 403 25 177 44 462 422 376 
74 276 490 441 460 43 259 340 16 
23 101 38 39 224 285 105 171 405 
205 217 365 80 389 208 77 212 305 
284 379 501 245 153 301 124 144 145 
453 296 480 442 221 464 17 41 395 
363 48 70 315 228 468 473 152 485 
281 130 325 394 191 97 131 266 209 
179 332 481 65 180 466 455 225 391 
421 452 286 482 45 249 123 277 434 
19 342 476 172 241 47 398 335 448 
516 10 133 499 300 425 213 78 369 
494 230 27 50 621 316 4 269 636 
627 3 15 7 640 2 641 642 1 

type 1 648 int
1 1 1 2 1 1 1 1 1 
1 1 1 1 1 1 1 1 1 
1 1 1 1 1 1 1 1 1 
1 1 1 1 1 1 1 1 1 
1 1 1 1 1 1 1 1 1 
1 1 1 1 1 1 1 1 1 
1 1 1 1 1 1 1 1 1 
1 1 1 1 1 1 1 1 1 
1 1 1 1 1 1 1 1 1 
1 1 1 1 1 1 1 1 1 
1 1 1 1 1 1 1 1 1 
1 1 1 1 1 1 1 1 1 
1 1 1 1 1 1 1 1 1 
1 1 1 1 1 1 1 1 1 
1 1 1 1 1 1 1 1 1 
1 1 1 1 1 1 1 1 1 
1 1 1 1 1 1 1 1 1 
1 1 1 1 1 1 1 1 1 
1 1 1 1 1 1 1 1 1 
1 1 1 1 1 1 1 1 1 
1 1 1 1 1 1 1 1 1 
1 1 1 1 1 1 1 1 1 
1 1 1 1 1 1 1 1 1 
1 1 1 1 1 1 1 1 1 
1 1 1 1 1 1 2 1 1 
1 1 1 1 1 1 1 1 1 
1 1 1 1 1 1 1 1 1 
1 1 1 1 1 1 1 1 1 
1 1 1 1 1 1 1 1 1 
1 1 1 1 1 1 1 1 2 
1 1 1 1 1 1 1 1 1 
1 1 1 1 1 1 1 1 1 
1 1 1 1 1 1 1 1 1 
1 1 1 1 1 1 1 1 1 
1 1 1 1 1 1 1 1 1 
1 1 1 1 1 1 1 1 1 
1 1 1 1 1 1 1 1 1 
1 1 1 1 1 1 1 1 1 
1 1 1 1 1 1 1 1 1 
1 1 1 2 1 1 1 1 1 
1 1 1 1 1 1 1 1 1 
1 1 1 1 1 1 1 1 1 
1 1 1 1 1 1 1 1 1 
1 1 1 1 1 1 1 1 1 
1 1 1 1 1 1 1 1 1 
1 1 1 1 1 1 1 1 1 
2 1 1 1 1 1 1 1 1 
1 1 1 1 1 1 1 1 2 
1 1 1 1 1 1 1 1 1 
1 2 1 1 1 1 1 1 1 
1 1 1 1 1 1 1 1 1 
1 1 2 1 1 1 1 1 1 
1 1 1 1 1 1 1 1 2 
1 1 1 1 1 1 1 1 1 
1 1 1 1 1 1 1 1 1 
1 1 1 1 1 1 1 1 1 
1 1 2 1 1 1 1 1 1 
1 1 1 1 1 1 1 1 1 
1 1 1 1 1 1 1 1 1 
1 1 1 1 1 1 1 1 2 
1 1 1 1 1 1 1 1 1 
1 1 1 1 1 1 1 1 1 
1 1 1 1 1 1 1 1 1 
1 1 1 1 1 1 1 1 1 
1 1 1 1 1 1 1 1 1 
1 1 1 1 1 1 1 1 1 
1 1 1 1 1 1 1 1 1 
1 1 1 1 1 1 1 1 1 
1 1 1 1 1 1 1 1 1 
2 2 1 1 1 1 1 1 1 
1 1 1 1 1 1 2 1 1 
1 2 2 2 1 3 1 1 4 

i 3 648 int
0 0 0 0 0 0 0 0 0 
0 0 0 0 0 0 0 0 0 
0 0 0 0 0 0 0 0 0 
0 0 0 0 0 0 0 0 0 
0 0 0 0 0 0 0 0 0 
0 0 0 0 0 0 0 0 0 
0 0 0 0 0 0 0 0 0 
0 0 0 0 0 0 0 0 0 
0 0 0 0 0 0 0 0 0 
0 0 0 0 0 0 0 0 0 
0 0 0 0 0 0 0 0 0 
0 0 0 0 0 0 0 0 0 
0 0 0 0 0 0 0 0 0 
0 0 0 0 0 0 0 0 0 
0 0 0 0 0 0 0 0 0 
0 0 0 0 0 0 0 0 0 
0 0 0 0 0 0 0 0 0 
0 0 0 0 0 0 0 0 0 
0 0 0 0 0 0 0 0 0 
0 0 0 0 0 0 0 0 0 
0 0 0 0 0 0 0 0 0 
0 0 0 0 0 0 0 0 0 
0 0 0 0 0 0 0 0 0 
0 0 0 0 0 0 0 0 0 
0 0 0 0 0 0 0 0 0 
0 0 0 0 0 0 0 0 0 
0 0 0 0 0 0 0 0 0 
0 0 0 0 0 0 0 0 0 
0 0 0 0 0 0 0 0 0 
0 0 0 0 0 0 0 0 0 
0 0 0 0 0 0 0 0 0 
0 0 0 0 0 0 0 0 0 
0 0 0 0 0 0 0 0 0 
0 0 0 0 0 0 0 0 0 
0 0 0 0 0 0 0 0 0 
0 0 0 0 0 0 0 0 0 
0 0 0 0 0 0 0 0 0 
0 0 0 0 0 0 0 0 0 
0 0 0 0 0 0 0 0 0 
0 0 0 0 0 0 0 0 0 
0 0 0 0 0 0 0 0 0 
0 0 0 0 0 0 0 0 0 
0 0 0 0 0 0 0 0 0 
0 0 0 0 0 0 0 0 0 
0 0 0 0 0 0 0 0 0 
0 0 0 0 0 0 0 0 0 
0 0 0 0 0 0 0 0 0 
0 0 0 0 0 0 0 0 0 
0 0 0 0 0 0 0 0 0 
0 0 0 0 0 0 0 0 0 
0 0 0 0 0 0 0 0 0 
0 0 0 0 0 0 0 0 0 
0 0 0 0 0 0 0 0 0 
0 0 0 0 0 0 0 0 0 
0 0 0 0 0 0 0 0 0 
0 0 0 0 0 0 0 0 0 
0 0 0 0 0 0 0 0 0 
0 0 0 0 0 0 0 0 0 
0 0 0 0 0 0 0 0 0 
0 0 0 0 0 0 0 0 0 
0 0 0 0 0 0 0 0 0 
0 0 0 0 0 0 0 0 0 
0 0 0 0 0 0 0 0 0 
0 0 0 0 0 0 0 0 0 
0 0 0 0 0 0 0 0 0 
0 0 0 0 0 0 0 0 0 
0 0 0 0 0 0 0 0 0 
0 0 0 0 0 0 0 0 0 
0 0 0 0 0 0 0 0 0 
0 0 0 0 0 0 0 0 0 
0 0 0 0 0 0 0 0 0 
0 0 0 0 0 0 0 0 0 
0 0 0 0 0 0 0 0 0 
0 0 0 0 0 0 0 0 0 
0 0 0 0 0 0 0 0 0 
0 0 0 0 0 0 0 0 0 
0 0 0 0 0 0 0 0 0 
0 0 0 0 0 0 0 0 0 
0 0 0 0 0 0 0 0 0 
0 0 0 0 0 0 0 0 0 
0 0 0 0 0 0 0 0 0 
0 0 0 0 0 0 0 0 0 
0 0 0 0 0 0 0 0 0 
0 0 0 0 0 0 0 0 0 
0 0 0 0 0 0 0 0 0 
0 0 0 0 0 0 0 0 0 
0 0 0 0 0 0 0 0 0 
0 0 0 0 0 0 0 0 0 
0 0 0 0 0 0 0 0 0 
0 0 0 0 0 0 0 0 0 
0 0 0 0 0 0 0 0 0 
0 0 0 0 0 0 0 0 0 
0 0 0 0 0 0 0 0 0 
0 0 0 0 0 0 0 0 0 
0 0 0 0 0 0 0 0 0 
0 0 0 0 0 0 0 0 0 
0 0 0 0 0 0 0 0 0 
0 0 0 0 0 0 0 0 0 
0 0 0 0 0 0 0 0 0 
0 0 0 0 0 0 0 0 0 
0 0 0 0 0 0 0 0 0 
0 0 0 0 0 0 0 0 0 
0 0 0 0 0 0 0 0 0 
0 0 0 0 0 0 0 0 0 
0 0 0 0 0 0 0 0 0 
0 0 0 0 0 0 0 0 0 
0 0 0 0 0 0 0 0 0 
0 0 0 0 0 0 0 0 0 
0 0 0 0 0 0 0 0 0 
0 0 0 0 0 0 0 0 0 
0 0 0 0 0 0 0 0 0 
0 0 0 0 0 0 0 0 0 
0 0 0 0 0 0 0 0 0 
0 0 0 0 0 0 0 0 0 
0 0 0 0 0 0 0 0 0 
0 0 0 0 0 0 0 0 0 
0 0 0 0 0 0 0 0 0 
0 0 0 0 0 0 0 0 0 
0 0 0 0 0 0 0 0 0 
0 0 0 0 0 0 0 0 0 
0 0 0 0 0 0 0 0 0 
0 0 0 0 0 0 0 0 0 
0 0 0 0 0 0 0 0 0 
0 0 0 0 0 0 0 0 0 
0 0 0 0 0 0 0 0 0 
0 0 0 0 0 0 0 0 0 
0 0 0 0 0 0 0 0 0 
0 0 0 0 0 0 0 0 0 
0 0 0 0 0 0 0 0 0 
0 0 0 0 0 0 0 0 0 
0 0 0 0 0 0 0 0 0 
0 0 0 0 0 0 0 0 0 
0 0 0 0 0 0 0 0 0 
0 0 0 0 0 0 0 0 0 
0 0 0 0 0 0 0 0 0 
0 0 0 0 0 0 0 0 0 
0 0 0 0 0 0 0 0 0 
0 0 0 0 0 0 0 0 0 
0 0 0 0 0 0 0 0 0 
0 0 0 0 0 0 0 0 0 
0 0 0 0 0 0 0 0 0 
0 0 0 0 0 0 0 0 0 
0 0 0 0 0 0 0 0 0 
0 0 0 0 0 0 0 0 0 
0 0 0 0 0 0 0 0 0 
0 0 0 0 0 0 0 0 0 
0 0 0 0 0 0 0 0 0 
0 0 0 0 0 0 0 0 0 
0 0 0 0 0 0 0 0 0 
0 0 0 0 0 0 0 0 0 
0 0 0 0 0 0 0 0 0 
0 0 0 0 0 0 0 0 0 
0 0 0 0 0 0 0 0 0 
0 0 0 0 0 0 0 0 0 
0 0 0 0 0 0 0 0 0 
0 0 0 0 0 0 0 0 0 
0 0 0 0 0 0 0 0 0 
0 0 0 0 0 0 0 0 0 
0 0 0 0 0 0 0 0 0 
0 0 0 0 0 0 0 0 0 
0 0 0 0 0 0 0 0 0 
0 0 0 0 0 0 0 0 0 
0 0 0 0 0 0 0 0 0 
0 0 0 0 0 0 0 0 0 
0 0 0 0 0 0 0 0 0 
0 0 0 0 0 0 0 0 0 
0 0 0 0 0 0 0 0 0 
0 0 0 0 0 0 0 0 0 
0 0 0 0 0 0 0 0 0 
0 0 0 0 0 0 0 0 0 
0 0 0 0 0 0 0 0 0 
0 0 0 0 0 0 0 0 0 
0 0 0 0 0 0 0 0 0 
0 0 0 0 0 0 0 0 0 
0 0 0 0 0 0 0 0 0 
0 0 0 0 0 0 0 0 0 
0 0 0 0 0 0 0 0 0 
0 0 0 0 0 0 0 0 0 
0 0 0 0 0 0 0 0 0 
0 0 0 0 0 0 0 0 0 
0 0 0 0 0 0 0 0 0 
0 0 0 0 0 0 0 0 0 
0 0 0 0 0 0 0 0 0 
0 0 0 0 0 0 0 0 0 
0 0 0 0 0 0 0 0 0 
0 0 0 0 0 0 0 0 0 
0 0 0 0 0 0 0 0 0 
0 0 0 0 0 0 0 0 0 
0 0 0 0 0 0 0 0 0 
0 0 0 0 0 0 0 0 0 
0 0 0 0 0 0 0 0 0 
0 0 0 0 0 0 0 0 0 
0 0 0 0 0 0 0 0 0 
0 0 0 0 0 0 0 0 0 
0 0 0 0 0 0 0 0 0 
0 0 0 0 0 0 0 0 0 
0 0 0 0 0 0 0 0 0 
0 0 0 0 0 0 0 0 0 
0 0 0 0 0 0 0 0 0 
0 0 0 0 0 0 0 0 0 
0 0 0 0 0 0 0 0 0 
0 0 0 0 0 0 0 0 0 
0 0 0 0 0 0 0 0 0 
0 0 0 0 0 0 0 0 0 
0 0 0 0 0 0 0 0 0 
0 0 0 0 0 0 0 0 0 
0 0 0 0 0 0 0 0 0 
0 0 0 0 0 0 0 0 0 
0 0 0 0 0 0 0 0 0 
0 0 0 0 0 0 0 0 0 
0 0 0 0 0 0 0 0 0 
0 0 0 0 0 0 0 0 0 
0 0 0 0 0 0 0 0 0 
0 0 0 0 0 0 0 0 0 
0 0 0 0 0 0 0 0 0 
0 0 0 0 0 0 0 0 0 

v 3 648 double
0 0 0.24613354909 0 0 0.22196916271 0 0 -0.16088407038 
0 0 0.25495923907 0 0 0.22169048616 0 0 -0.16321408765 
0 0 -0.16741005807 0 0 0.24466876206 0 0 0.24035259914 
0 0 -0.15894862751 0 0 -0.16141173592 0 0 -0.15500371988 
0 0 0.21155976474 0 0 0.17695915046 0 0 -0.14949846426 
0 0 0.19169479815 0 0 -0.63149918749 0 0 -0.14907274539 
0 0 -0.14677605475 0 0 0.2168208262 0 0 -0.15331116986 
0 0 -0.14953786718 0 0 -0.15124967086 0 0 -0.15518561955 
0 0 -0.63799918749 0 0 0.2117671594 0 0 -0.14289088927 
0 0 0.2074191842 0 0 -0.13881297078 0 0 -0.14404517269 
0 0 -0.14102444263 0 0 -0.14130409195 0 0 -0.14426980571 
0 0 -0.13903739164 0 0 -0.66074918749 0 0 -0.65749918749 
0 0 -0.14408874844 0 0 0.22003402464 0 0 -0.1330379099 
0 0 -0.13111089665 0 0 -0.66074918749 0 0 -0.13469331144 
0 0 0.1961607554 0 0 -0.12580892709 0 0 0.21395276322 
0 0 -0.1385332918 0 0 -0.12420400938 0 0 -0.12905913114 
0 0 -0.12744992772 0 0 0.1643649276 0 0 0.19410142312 
0 0 0.15151356551 0 0 -0.12349822935 0 0 -0.13088804245 
0 0 0.20035788653 0 0 -0.13149023565 0 0 -0.12748997859 
0 0 0.17536292606 0 0 -0.10628845729 0 0 -0.14619667636 
0 0 0.13878755015 0 0 0.14583047568 0 0 -0.1020516083 
0 0 -0.10836589817 0 0 0.10108395329 0 0 0.11371246035 
0 0 0.18916975184 0 0 -0.11051492948 0 0 -0.11822230115 
0 0 -0.11820105129 0 0 -0.11605737589 0 0 -0.10959846291 
0 0 0.16043180619 0 0 0.21480633856 0 0 0.18994573728 
0 0 -0.11162528642 0 0 -0.61199918749 0 0 -0.11217942325 
0 0 0.14759993137 0 0 0.12201294885 0 0 -0.10685273825 
0 0 -0.11844282635 0 0 0.17652862731 0 0 -0.62824918749 
0 0 0.13017309606 0 0 -0.10776587575 0 0 -0.12324099026 
0 0 -0.12073318213 0 0 0.19164172213 0 0 -0.63474918749 
0 0 -0.13634963862 0 0 -0.095402708302 0 0 0.081642324033 
0 0 -0.094141507465 0 0 -0.1016167744 0 0 -0.11262200625 
0 0 -0.093869181054 0 0 -0.11144646881 0 0 0.18360187259 
0 0 -0.093123137202 0 0 0.17476434535 0 0 0.058028044509 
0 0 0.17079366317 0 0 0.16426254389 0 0 0.17686088532 
0 0 -0.13004679957 0 0 0.079885721953 0 0 -0.067156124883 
0 0 -0.10975232366 0 0 -0.099260658807 0 0 -0.10238496212 
0 0 -0.11599777996 0 0 -0.094726251662 0 0 -0.067079067839 
0 0 -0.094771233105 0 0 0.13104566524 0 0 0.11889205661 
0 0 0.14249399442 0 0 0.1754228567 0 0 0.11018188267 
0 0 -0.12838539917 0 0 0.028059972821 0 0 0.063200731999 
0 0 -0.12771750178 0 0 -0.5989991875 0 0 -0.11867012028 
0 0 -0.11712306176 0 0 0.041748416532 0 0 0.13111498909 
0 0 0.078260149222 0 0 -0.12629635678 0 0 -0.096602326129 
0 0 -0.12335860654 0 0 -0.083272677486 0 0 -0.099380681693 
0 0 0.072188900547 0 0 -0.12003162324 0 0 0.18133428964 
0 0 0.12201916848 0 0 0.16733676501 0 0 -0.081395025948 
0 0 -0.12838114554 0 0 -0.5989991875 0 0 0.069804633242 
0 0 0.092728672562 0 0 -0.11950247637 0 0 0.15049025154 
0 0 -0.099078626307 0 0 -0.12253173085 0 0 -0.086831213315 
0 0 -0.12692592142 0 0 -0.08181328755 0 0 0.037964562113 
0 0 -0.12107619397 0 0 0.15480264491 0 0 0.13272834232 
0 0 0.15020176567 0 0 -0.12498046146 0 0 -0.099822760317 
0 0 -0.1266181149 0 0 -0.093707519339 0 0 -0.10389362931 
0 0 -0.072857098916 0 0 -0.60874918749 0 0 -0.088316112578 
0 0 -0.066953149944 0 0 -0.065325660639 0 0 -0.073997802067 
0 0 0.051155700564 0 0 -0.07575596714 0 0 0.012028050192 
0 0 -0.06279118286 0 0 0.13396373141 0 0 -0.11391725152 
0 0 -0.10246338286 0 0 -0.11299850927 0 0 -0.11766247862 
0 0 -0.056286730177 0 0 -0.63474918749 0 0 0.080454070161 
0 0 -0.11297505798 0 0 -0.062653284499 0 0 0.14400410281 
0 0 0.023640167921 0 0 -0.11345678279 0 0 0.0047001004678 
0 0 0.037864951487 0 0 -0.11013710715 0 0 -0.060837512154 
0 0 -0.071871458317 0 0 -0.083316281144 0 0 -0.062725725187 
0 0 0.14814294258 0 0 -0.058581864079 0 0 -0.083893730487 
0 0 0.13801686848 0 0 -0.10729635742 0 0 -0.048857405264 
0 0 -0.10643635291 0 0 -0.061793119141 0 0 0.17569968463 
0 0 -0.062032986825 0 0 -0.070620158756 0 0 -0.080959496967 
0 0 -0.061139041986 0 0 -0.039417226942 0 0 -0.047788105893 
0 0 0.059464132461 0 0 -0.097253974862 0 0 -0.046544282121 
0 0 -0.092253837905 0 0 -0.037958727136 0 0 0.14614160075 
0 0 -0.046624644665 0 0 -0.062296864997 0 0 -0.10113357505 
0 0 -0.05711537539 0 0 0.1296583582 0 0 -0.104271644 
0 0 -0.063431644113 0 0 -0.072300021679 0 0 -0.03466426892 
0 0 -0.11431914438 0 0 0.078065175257 0 0 -0.10309379099 
0 0 -0.0044672064659 0 0 -0.048158957257 0 0 -0.094433900646 
0 0 -0.090395740198 0 0 -0.03520005477 0 0 -0.1022354314 
0 0 -0.10207688129 0 0 -0.055027968323 0 0 -0.61524918749 
0 0 -0.099001982341 0 0 0.070807517903 0 0 -0.099526452919 
0 0 0.072806067426 0 0 0.001729265804 0 0 -0.033458978354 
0 0 -0.096029143407 0 0 -0.036467913785 0 0 -0.097436621757 
0 0 -0.052455344869 0 0 -0.097142469672 0 0 0.13111064415 
0 0 -0.5989991875 0 0 -0.088218756597 0 0 0.072454153638 
0 0 -0.083203093409 0 0 -0.027435907761 0 0 -0.007863256021 
0 0 0.099606577644 0 0 -0.020036852875 0 0 0.086359111818 
0 0 0.095585789069 0 0 -0.04102820104 0 0 -0.044562726126 
0 0 -0.089513485502 0 0 0.13931558705 0 0 0.087254438053 
0 0 -0.080330207651 0 0 0.056107837327 0 0 0.13228914302 
0 0 0.089244029516 0 0 -0.087894157566 0 0 -0.017793526804 
0 0 -0.025048198035 0 0 -0.035704316258 0 0 -0.097169243136 
0 0 -0.03867217749 0 0 -0.0097064467691 0 0 0.08493674555 
0 0 -0.031479608418 0 0 0.016643550493 0 0 0.099999391257 
0 0 0.0022377714733 0 0 -0.028357895952 0 0 -0.024156848512 
0 0 -0.021401929762 0 0 -0.036298220108 0 0 -0.031815130292 
0 0 -0.021872358591 0 0 -0.019222251827 0 0 -0.077257297498 
0 0 -0.075070058348 0 0 -0.088125893962 0 0 0.017603891935 
0 0 0.007208066881 0 0 -0.084204434962 0 0 -0.041175576242 
0 0 -0.024265992594 0 0 -0.040570362436 0 0 -0.080502340556 
0 0 -0.61199918749 0 0 -0.013857359615 0 0 -0.028079970249 
0 0 -0.036230995575 0 0 -0.052321634868 0 0 -0.0025780131545 
0 0 0.042794638326 0 0 0.016760290954 0 0 0.00495345373 
0 0 0.024792789399 0 0 0.012770701439 0 0 0.072717682983 
0 0 -0.0024390462491 0 0 -0.053037566096 0 0 0.027167110573 
0 0 -0.05490897984 0 0 -0.039878625788 0 0 0.10529834687 
0 0 -0.014682417449 0 0 0.010110630331 0 0 0.086291155459 
0 0 0.029859573386 0 0 0.096627923551 0 0 0.017465728209 
0 0 -0.065218770859 0 0 0.011034113578 0 0 -0.074947008413 
0 0 0.018639969966 0 0 0.010608651877 0 0 -0.058604210032 
0 0 0.011554321229 0 0 -0.059022003016 0 0 0.045028639142 
0 0 -2.1441941742e-05 0 0 -0.061394501934 0 0 0.053233110278 
0 0 -0.066653009497 0 0 0.041971151307 0 0 -0.05805002527 
0 0 -0.059448900821 0 0 -0.011900530546 0 0 -0.010411290826 
0 0 -0.04875478303 0 0 -0.066522535111 0 0 0.0041641131222 
0 0 -0.0080202082032 0 0 0.068318558325 0 0 0.12378094257 
0 0 0.04801311647 0 0 0.025224916098 0 0 0.012943046318 
0 0 0.032238464799 0 0 0.017666917199 0 0 0.01847006627 
0 0 0.028030194811 0 0 -0.067100205032 0 0 0.010241603102 
0 0 0.020087256075 0 0 -0.058919396467 0 0 -0.00064625239361 
0 0 -0.094441486836 0 0 -0.067907034399 0 0 -0.052922811447 
0 0 -0.066887125312 0 0 0.10490827098 0 0 -0.069571758431 
0 0 0.041997198769 0 0 -0.019156696006 0 0 0.04651137709 
0 0 -0.019028016146 0 0 -0.038839154073 0 0 -0.00010138516079 
0 0 0.034059357459 0 0 0.02849559261 0 0 -0.06508193911 
0 0 -0.068676470873 0 0 -0.05912832335 0 0 -0.066244009881 
0 0 0.0070656081149 0 0 -0.050250743066 0 0 0.005420982088 
0 0 0.0093200750601 0 0 -0.03324284492 0 0 -0.04658032222 
0 0 -0.030289024838 0 0 -0.034837357771 0 0 -0.033393249186 
0 0 -0.048995975438 0 0 -0.048044603131 0 0 -0.029953180773 
0 0 -0.058805837262 0 0 0.036492301216 0 0 0.030535635512 
0 0 -0.05140946601 0 0 -0.029863991768 0 0 -0.046544720066 
0 0 0.045875666438 0 0 0.10111047224 0 0 0.013266456636 
0 0 -0.040875537657 0 0 0.098256470288 0 0 -0.04127551405 
0 0 0.043188250846 0 0 0.049276551068 0 0 -0.033575634458 
0 0 -0.049975775799 0 0 -0.045935142894 0 0 -0.03765310733 
0 0 -0.050146069893 0 0 -0.049400235701 0 0 -0.048499106224 
0 0 -0.030822967861 0 0 -0.041634870781 0 0 0.038001272487 
0 0 0.055858496327 0 0 -0.5989991875 0 0 -0.027088563287 
0 0 -0.040201914824 0 0 0.0085938795336 0 0 -0.044250897951 
0 0 -0.080443619304 0 0 0.031345316595 0 0 0.080942765594 
0 0 -0.050448547394 0 0 0.036179431138 0 0 0.027697632015 
0 0 0.018345478432 0 0 0.07389926587 0 0 -0.038658529956 
0 0 -0.020560656959 0 0 -0.0039766671776 0 0 0.0048350386081 
0 0 -0.047074149975 0 0 0.0079939054207 0 0 0.053399565953 
0 0 -0.016052262555 0 0 -0.013304039633 0 0 -0.053834786611 
0 0 -0.024469069236 0 0 0.055422354017 0 0 0.0039083546137 
0 0 -0.017081998679 0 0 0.00068708146506 0 0 -0.03479776441 
0 0 -0.0065195865076 0 0 -0.021595818096 0 0 -0.5989991875 
0 0 -0.0042917506256 0 0 -0.06475434997 0 0 -0.018439074109 
0 0 0.0022737878205 0 0 0.062562775645 0 0 -0.032550535899 
0 0 -0.010511489758 0 0 -0.02186012013 0 0 0.0023365098877 
0 0 0.0057599677708 0 0 -0.0045929318224 0 0 -0.0078449486864 
0 0 0.014658689747 0 0 0.0080802311424 0 0 -0.019625834741 
0 0 -0.033046893364 0 0 0.047906956281 0 0 0.00063929974977 
0 0 -0.60874918749 0 0 -0.016172340866 0 0 0.17230413992 
0 0 -0.014489039245 0 0 -0.026384183123 0 0 -0.0141596747 
0 0 -0.028690169254 0 0 -0.0070441074492 0 0 -0.019805072425 
0 0 -0.037388044197 0 0 -0.028884697116 0 0 -0.031835142622 
0 0 -0.036590804232 0 0 0.018728633907 0 0 -0.00040714542504 
0 0 0.0047769675502 0 0 0.0002561184231 0 0 -0.067922768368 
0 0 -0.023026233811 0 0 -0.037351677823 0 0 -0.023120990923 
0 0 -0.013196514949 0 0 -0.01492574664 0 0 -0.025992454133 
0 0 -0.02456484143 0 0 -0.0040393471183 0 0 -0.018081732093 
0 0 0.064687359652 0 0 0.012901133342 0 0 0.017157903947 
0 0 0.048071251334 0 0 0.035757710959 0 0 0.020046722165 
0 0 -0.015273336741 0 0 0.048539952664 0 0 0.059169656469 
0 0 0.0754490027 0 0 0.045297014818 0 0 0.04161365276 
0 0 0.0014576951778 0 0 0.077989873702 0 0 0.073685990883 
0 0 0.064641334608 0 0 0.025640150294 0 0 0.019232834049 
0 0 0.013772246885 0 0 0.054342349529 0 0 -0.039142623863 
0 0 0.0077459718713 0 0 0.071399071913 0 0 0.0062076434799 
0 0 0.035425319371 0 0 -0.025141428516 0 0 0.025324849481 
0 0 0.066801185353 0 0 0.0311349779 0 0 0.010821218908 
0 0 0.021152038579 0 0 0.0085926061251 0 0 -0.011211516283 
0 0 0.056217821822 0 0 0.079218089768 0 0 0.0083322651305 
0 0 0.010374663204 0 0 -0.0029958993478 0 0 0.017860479199 
0 0 0.018247971584 0 0 0.050198869986 0 0 0.061181378913 
0 0 0.010411014577 0 0 0.064034317951 0 0 0.036238498822 
0 0 0.0064892914155 0 0 0.034414908569 0 0 0.060420910948 
0 0 0.05343351482 0 0 0.023273379886 0 0 0.023462501302 
0 0 0.067352260647 0 0 0.045407053619 0 0 -0.034227460248 
0 0 0.05056966802 0 0 0.069199854982 0 0 0.010441208192 
0 0 0.07133682451 0 0 0.07423265393 0 0 0.029832989658 
0 0 0.018138034858 0 0 0.010845494014 0 0 0.0238675969 
0 0 0.0066089731039 0 0 0.015208087867 0 0 0.065954879511 
0 0 0.051923593272 0 0 0.067248435473 0 0 0.0018610908723 
0 0 0.04307925621 0 0 0.034229453068 0 0 0.02272378792 
0 0 0.057933700734 0 0 0.023270902 0 0 0.051320885163 
0 0 0.058219189102 0 0 0.039444281559 0 0 0.022421647332 
0 0 0.036253510313 0 0 0.010641074395 0 0 0.046769488951 
0 0 0.042700159567 0 0 0.03780862228 0 0 0.044172585433 
0 0 0.041126169186 0 0 0.033186722759 0 0 0.076377713012 
0 0 0.0046979169616 0 0 0.050051092934 0 0 0.00026661168102 
0 0 0.0085218438446 0 0 0.056280933588 0 0 0.026641376806 
0 0 0.038821446961 0 0 0.058972942694 0 0 0.067343097796 
0 0 0.061085395982 0 0 0.069900230145 0 0 0.056354423577 
0 0 0.032854866611 0 0 0.031605541666 0 0 0.011418801669 
0 0 0.0027712849365 0 0 0.051176970095 0 0 0.068370669947 
0 0 0.066118104285 0 0 0.021821142767 0 0 0.054954034031 
0 0 0.0365404619 0 0 0.046524060163 0 0 0.016794241068 
0 0 0.0047212659104 0 0 0.044103207205 0 0 0.040527975991 
0 0 0.0225294822 0 0 0.014180019 0 0 0.07543510339 
0 0 0.027017486388 0 0 0.059576280409 0 0 0.019826181367 
0 0 0.038951145812 0 0 0.00012076182344 0 0 0.077990553033 
0 0 0.017647772055 0 0 0.079914472105 0 0 0.053178564471 
0 0 0.080188114278 0 0 0.011572631488 0 0 0.032750292957 
0 0 0.07603608082 0 0 0.089753965079 0 0 0.062681197274 
0 0 0.079325477741 0 0 0.034692757493 0 0 0.039376486542 
0 0 0.10218890482 0 0 -0.050477363113 0 0 0.088531345079 
0 0 0.062745661141 0 0 0.061166185878 0 0 0.02891563999 
0 0 0.033474228357 0 0 0.022288615742 0 0 0.093924545498 
0 0 0.074321417668 0 0 0.10587966104 0 0 0.10249085941 
0 0 0.064451173882 0 0 -0.61524918749 0 0 0.070298403143 
0 0 -0.01814241923 0 0 0.09399267595 0 0 -0.60549918749 
0 0 -0.61199918749 0 0 0.072091592173 0 0 0.0039242644256 
0 0 0.0732841462 0 0 -0.60224918749 0 0 0.003194465046 
0 0 -0.60224918749 0 0 -0.5989991875 0 0 0.12325495422 

f 3 648 double
0 0 -1.7425367252e-10 0 0 -1.7425367252e-10 0 0 -1.7425367252e-10 
0 0 -8.9019973083e-09 0 0 -1.7425367252e-10 0 0 -1.7425367252e-10 
0 0 -1.7425367252e-10 0 0 -1.7425367252e-10 0 0 -1.7425367252e-10 
0 0 -1.7425367252e-10 0 0 -1.7425367252e-10 0 0 -1.7425367252e-10 
0 0 -1.7425367252e-10 0 0 -1.7425367252e-10 0 0 -1.7425367252e-10 
0 0 -1.7425367252e-10 0 0 -1.7425367252e-10 0 0 -1.7425367252e-10 
0 0 -1.7425367252e-10 0 0 -1.7425367252e-10 0 0 -1.7425367252e-10 
0 0 -1.7425367252e-10 0 0 -1.7425367252e-10 0 0 -1.7425367252e-10 
0 0 -1.7425367252e-10 0 0 -1.7425367252e-10 0 0 -1.7425367252e-10 
0 0 -1.7425367252e-10 0 0 -1.7425367252e-10 0 0 -1.7425367252e-10 
0 0 -1.7425367252e-10 0 0 -1.7425367252e-10 0 0 -1.7425367252e-10 
0 0 -1.7425367252e-10 0 0 -1.7425367252e-10 0 0 -1.7425367252e-10 
0 0 -1.7425367252e-10 0 0 -1.7425367252e-10 0 0 -1.7425367252e-10 
0 0 -1.7425367252e-10 0 0 -1.7425367252e-10 0 0 -1.7425367252e-10 
0 0 -1.7425367252e-10 0 0 -1.7425367252e-10 0 0 -1.7425367252e-10 
0 0 -1.7425367252e-10 0 0 -1.7425367252e-10 0 0 -1.7425367252e-10 
0 0 -1.7425367252e-10 0 0 -1.7425367252e-10 0 0 -1.7425367252e-10 
0 0 -1.7425367252e-10 0 0 -1.7425367252e-10 0 0 -1.7425367252e-10 
0 0 -1.7425367252e-10 0 0 -1.7425367252e-10 0 0 -1.7425367252e-10 
0 0 -1.7425367252e-10 0 0 -1.7425367252e-10 0 0 -1.7425367252e-10 
0 0 -1.7425367252e-10 0 0 -1.7425367252e-10 0 0 -1.7425367252e-10 
0 0 -1.7425367252e-10 0 0 -1.7425367252e-10 0 0 -1.7425367252e-10 
0 0 -1.7425367252e-10 0 0 -1.7425367252e-10 0 0 -1.7425367252e-10 
0 0 -1.7425367252e-10 0 0 -1.7425367252e-10 0 0 -1.7425367252e-10 
0 0 -1.7425367252e-10 0 0 -1.7425367252e-10 0 0 -1.7425367252e-10 
0 0 -1.7425367252e-10 0 0 -1.7425367252e-10 0 0 -1.7425367252e-10 
0 0 -1.7425367252e-10 0 0 -1.7425367252e-10 0 0 -1.7425367252e-10 
0 0 -1.7425367252e-10 0 0 -1.7425367252e-10 0 0 -1.7425367252e-10 
0 0 -1.7425367252e-10 0 0 -1.7425367252e-10 0 0 -1.7425367252e-10 
0 0 -1.7425367252e-10 0 0 -1.7425367252e-10 0 0 -1.7425367252e-10 
0 0 -1.7425367252e-10 0 0 -1.7425367252e-10 0 0 -1.7425367252e-10 
0 0 -1.7425367252e-10 0 0 -1.7425367252e-10 0 0 -1.7425367252e-10 
0 0 -1.7425367252e-10 0 0 -1.7425367252e-10 0 0 -1.7425367252e-10 
0 0 -1.7425367252e-10 0 0 -1.7425367252e-10 0 0 -1.7425367252e-10 
0 0 -1.7425367252e-10 0 0 -1.7425367252e-10 0 0 -1.7425367252e-10 
0 0 -1.7425367252e-10 0 0 -1.7425367252e-10 0 0 -1.7425367252e-10 
0 0 -1.7425367252e-10 0 0 -1.7425367252e-10 0 0 -1.7425367252e-10 
0 0 -1.7425367252e-10 0 0 -1.7425367252e-10 0 0 -1.7425367252e-10 
0 0 -1.7425367252e-10 0 0 -1.7425367252e-10 0 0 -1.7425367252e-10 
0 0 -1.7425367252e-10 0 0 -1.7425367252e-10 0 0 -1.7425367252e-10 
0 0 -1.7425367252e-10 0 0 -1.7425367252e-10 0 0 -1.7425367252e-10 
0 0 -1.7425367252e-10 0 0 -1.7425367252e-10 0 0 -1.7425367252e-10 
0 0 -1.7425367252e-10 0 0 -1.7425367252e-10 0 0 -1.7425367252e-10 
0 0 -1.7425367252e-10 0 0 -1.7425367252e-10 0 0 -1.7425367252e-10 
0 0 -1.7425367252e-10 0 0 -1.7425367252e-10 0 0 -1.7425367252e-10 
0 0 -1.7425367252e-10 0 0 -1.7425367252e-10 0 0 -1.7425367252e-10 
0 0 -1.7425367252e-10 0 0 -1.7425367252e-10 0 0 -1.7425367252e-10 
0 0 -1.7425367252e-10 0 0 -1.7425367252e-10 0 0 -1.7425367252e-10 
0 0 -1.7425367252e-10 0 0 -1.7425367252e-10 0 0 -1.7425367252e-10 
0 0 -1.7425367252e-10 0 0 -1.7425367252e-10 0 0 -1.7425367252e-10 
0 0 -1.7425367252e-10 0 0 -1.7425367252e-10 0 0 -1.7425367252e-10 
0 0 -1.7425367252e-10 0 0 -1.7425367252e-10 0 0 -1.7425367252e-10 
0 0 -1.7425367252e-10 0 0 -1.7425367252e-10 0 0 -1.7425367252e-10 
0 0 -1.7425367252e-10 0 0 -1.7425367252e-10 0 0 -1.7425367252e-10 
0 0 -1.7425367252e-10 0 0 -1.7425367252e-10 0 0 -1.7425367252e-10 
0 0 -1.7425367252e-10 0 0 -1.7425367252e-10 0 0 -1.7425367252e-10 
0 0 -1.7425367252e-10 0 0 -1.7425367252e-10 0 0 -1.7425367252e-10 
0 0 -1.7425367252e-10 0 0 -1.7425367252e-10 0 0 -1.7425367252e-10 
0 0 -1.7425367252e-10 0 0 -1.7425367252e-10 0 0 -1.7425367252e-10 
0 0 -1.7425367252e-10 0 0 -1.7425367252e-10 0 0 -1.7425367252e-10 
0 0 -1.7425367252e-10 0 0 -1.7425367252e-10 0 0 -1.7425367252e-10 
0 0 -1.7425367252e-10 0 0 -1.7425367252e-10 0 0 -1.7425367252e-10 
0 0 -1.7425367252e-10 0 0 -1.7425367252e-10 0 0 -1.7425367252e-10 
0 0 -1.7425367252e-10 0 0 -1.7425367252e-10 0 0 -1.7425367252e-10 
0 0 -1.7425367252e-10 0 0 -1.7425367252e-10 0 0 -1.7425367252e-10 
0 0 -1.7425367252e-10 0 0 -1.7425367252e-10 0 0 -1.7425367252e-10 
0 0 -1.7425367252e-10 0 0 -1.7425367252e-10 0 0 -1.7425367252e-10 
0 0 -1.7425367252e-10 0 0 -1.7425367252e-10 0 0 -1.7425367252e-10 
0 0 -1.7425367252e-10 0 0 -1.7425367252e-10 0 0 -1.7425367252e-10 
0 0 -1.7425367252e-10 0 0 -1.7425367252e-10 0 0 -1.7425367252e-10 
0 0 -1.7425367252e-10 0 0 -1.7425367252e-10 0 0 -1.7425367252e-10 
0 0 -1.7425367252e-10 0 0 -1.7425367252e-10 0 0 -1.7425367252e-10 
0 0 -1.7425367252e-10 0 0 -1.7425367252e-10 0 0 -1.7425367252e-10 
0 0 -1.7425367252e-10 0 0 -1.7425367252e-10 0 0 -1.7425367252e-10 
0 0 -8.9019973083e-09 0 0 -1.7425367252e-10 0 0 -1.7425367252e-10 
0 0 -1.7425367252e-10 0 0 -1.7425367252e-10 0 0 -1.7425367252e-10 
0 0 -1.7425367252e-10 0 0 -1.7425367252e-10 0 0 -1.7425367252e-10 
0 0 -1.7425367252e-10 0 0 -1.7425367252e-10 0 0 -1.7425367252e-10 
0 0 -1.7425367252e-10 0 0 -1.7425367252e-10 0 0 -1.7425367252e-10 
0 0 -1.7425367252e-10 0 0 -1.7425367252e-10 0 0 -1.7425367252e-10 
0 0 -1.7425367252e-10 0 0 -1.7425367252e-10 0 0 -1.7425367252e-10 
0 0 -1.7425367252e-10 0 0 -1.7425367252e-10 0 0 -1.7425367252e-10 
0 0 -1.7425367252e-10 0 0 -1.7425367252e-10 0 0 -1.7425367252e-10 
0 0 -1.7425367252e-10 0 0 -1.7425367252e-10 0 0 -1.7425367252e-10 
0 0 -1.7425367252e-10 0 0 -1.7425367252e-10 0 0 -1.7425367252e-10 
0 0 -1.7425367252e-10 0 0 -1.7425367252e-10 0 0 -1.7425367252e-10 
0 0 -1.7425367252e-10 0 0 -1.7425367252e-10 0 0 -1.7425367252e-10 
0 0 -1.7425367252e-10 0 0 -1.7425367252e-10 0 0 -1.7425367252e-10 
0 0 -1.7425367252e-10 0 0 -1.7425367252e-10 0 0 -1.7425367252e-10 
0 0 -1.7425367252e-10 0 0 -1.7425367252e-10 0 0 -8.9019973083e-09 
0 0 -1.7425367252e-10 0 0 -1.7425367252e-10 0 0 -1.7425367252e-10 
0 0 -1.7425367252e-10 0 0 -1.7425367252e-10 0 0 -1.7425367252e-10 
0 0 -1.7425367252e-10 0 0 -1.7425367252e-10 0 0 -1.7425367252e-10 
0 0 -1.7425367252e-10 0 0 -1.7425367252e-10 0 0 -1.7425367252e-10 
0 0 -1.7425367252e-10 0 0 -1.7425367252e-10 0 0 -1.7425367252e-10 
0 0 -1.7425367252e-10 0 0 -1.7425367252e-10 0 0 -1.7425367252e-10 
0 0 -1.7425367252e-10 0 0 -1.7425367252e-10 0 0 -1.7425367252e-10 
0 0 -1.7425367252e-10 0 0 -1.7425367252e-10 0 0 -1.7425367252e-10 
0 0 -1.7425367252e-10 0 0 -1.7425367252e-10 0 0 -1.7425367252e-10 
0 0 -1.7425367252e-10 0 0 -1.7425367252e-10 0 0 -1.7425367252e-10 
0 0 -1.7425367252e-10 0 0 -1.7425367252e-10 0 0 -1.7425367252e-10 
0 0 -1.7425367252e-10 0 0 -1.7425367252e-10 0 0 -1.7425367252e-10 
0 0 -1.7425367252e-10 0 0 -1.7425367252e-10 0 0 -1.7425367252e-10 
0 0 -1.7425367252e-10 0 0 -1.7425367252e-10 0 0 -1.7425367252e-10 
0 0 -1.7425367252e-10 0 0 -1.7425367252e-10 0 0 -1.7425367252e-10 
0 0 -1.7425367252e-10 0 0 -1.7425367252e-10 0 0 -1.7425367252e-10 
0 0 -1.7425367252e-10 0 0 -1.7425367252e-10 0 0 -1.7425367252e-10 
0 0 -1.7425367252e-10 0 0 -1.7425367252e-10 0 0 -1.7425367252e-10 
0 0 -1.7425367252e-10 0 0 -1.7425367252e-10 0 0 -1.7425367252e-10 
0 0 -1.7425367252e-10 0 0 -1.7425367252e-10 0 0 -1.7425367252e-10 
0 0 -1.7425367252e-10 0 0 -1.7425367252e-10 0 0 -1.7425367252e-10 
0 0 -1.7425367252e-10 0 0 -1.7425367252e-10 0 0 -1.7425367252e-10 
0 0 -1.7425367252e-10 0 0 -1.7425367252e-10 0 0 -1.7425367252e-10 
0 0 -1.7425367252e-10 0 0 -1.7425367252e-10 0 0 -1.7425367252e-10 
0 0 -1.7425367252e-10 0 0 -1.7425367252e-10 0 0 -1.7425367252e-10 
0 0 -1.7425367252e-10 0 0 -1.7425367252e-10 0 0 -1.7425367252e-10 
0 0 -1.7425367252e-10 0 0 -1.7425367252e-10 0 0 -1.7425367252e-10 
0 0 -1.7425367252e-10 0 0 -1.7425367252e-10 0 0 -1.7425367252e-10 
0 0 -8.9019973083e-09 0 0 -1.7425367252e-10 0 0 -1.7425367252e-10 
0 0 -1.7425367252e-10 0 0 -1.7425367252e-10 0 0 -1.7425367252e-10 
0 0 -1.7425367252e-10 0 0 -1.7425367252e-10 0 0 -1.7425367252e-10 
0 0 -1.7425367252e-10 0 0 -1.7425367252e-10 0 0 -1.7425367252e-10 
0 0 -1.7425367252e-10 0 0 -1.7425367252e-10 0 0 -1.7425367252e-10 
0 0 -1.7425367252e-10 0 0 -1.7425367252e-10 0 0 -1.7425367252e-10 
0 0 -1.7425367252e-10 0 0 -1.7425367252e-10 0 0 -1.7425367252e-10 
0 0 -1.7425367252e-10 0 0 -1.7425367252e-10 0 0 -1.7425367252e-10 
0 0 -1.7425367252e-10 0 0 -1.7425367252e-10 0 0 -1.7425367252e-10 
0 0 -1.7425367252e-10 0 0 -1.7425367252e-10 0 0 -1.7425367252e-10 
0 0 -1.7425367252e-10 0 0 -1.7425367252e-10 0 0 -1.7425367252e-10 
0 0 -1.7425367252e-10 0 0 -1.7425367252e-10 0 0 -1.7425367252e-10 
0 0 -1.7425367252e-10 0 0 -1.7425367252e-10 0 0 -1.7425367252e-10 
0 0 -1.7425367252e-10 0 0 -1.7425367252e-10 0 0 -1.7425367252e-10 
0 0 -1.7425367252e-10 0 0 -1.7425367252e-10 0 0 -1.7425367252e-10 
0 0 -1.7425367252e-10 0 0 -1.7425367252e-10 0 0 -1.7425367252e-10 
0 0 -1.7425367252e-10 0 0 -1.7425367252e-10 0 0 -1.7425367252e-10 
0 0 -1.7425367252e-10 0 0 -1.7425367252e-10 0 0 -1.7425367252e-10 
0 0 -1.7425367252e-10 0 0 -1.7425367252e-10 0 0 -1.7425367252e-10 
0 0 -1.7425367252e-10 0 0 -1.7425367252e-10 0 0 -1.7425367252e-10 
0 0 -8.9019973083e-09 0 0 -1.7425367252e-10 0 0 -1.7425367252e-10 
0 0 -1.7425367252e-10 0 0 -1.7425367252e-10 0 0 -1.7425367252e-10 
0 0 -1.7425367252e-10 0 0 -1.7425367252e-10 0 0 -1.7425367252e-10 
0 0 -1.7425367252e-10 0 0 -1.7425367252e-10 0 0 -1.7425367252e-10 
0 0 -1.7425367252e-10 0 0 -1.7425367252e-10 0 0 -1.7425367252e-10 
0 0 -1.7425367252e-10 0 0 -1.7425367252e-10 0 0 -8.9019973083e-09 
0 0 -1.7425367252e-10 0 0 -1.7425367252e-10 0 0 -1.7425367252e-10 
0 0 -1.7425367252e-10 0 0 -1.7425367252e-10 0 0 -1.7425367252e-10 
0 0 -1.7425367252e-10 0 0 -1.7425367252e-10 0 0 -1.7425367252e-10 
0 0 -1.7425367252e-10 0 0 -8.9019973083e-09 0 0 -1.7425367252e-10 
0 0 -1.7425367252e-10 0 0 -1.7425367252e-10 0 0 -1.7425367252e-10 
0 0 -1.7425367252e-10 0 0 -1.7425367252e-10 0 0 -1.7425367252e-10 
0 0 -1.7425367252e-10 0 0 -1.7425367252e-10 0 0 -1.7425367252e-10 
0 0 -1.7425367252e-10 0 0 -1.7425367252e-10 0 0 -1.7425367252e-10 
0 0 -1.7425367252e-10 0 0 -1.7425367252e-10 0 0 -1.7425367252e-10 
0 0 -1.7425367252e-10 0 0 -1.7425367252e-10 0 0 -8.9019973083e-09 
0 0 -1.7425367252e-10 0 0 -1.7425367252e-10 0 0 -1.7425367252e-10 
0 0 -1.7425367252e-10 0 0 -1.7425367252e-10 0 0 -1.7425367252e-10 
0 0 -1.7425367252e-10 0 0 -1.7425367252e-10 0 0 -1.7425367252e-10 
0 0 -1.7425367252e-10 0 0 -1.7425367252e-10 0 0 -1.7425367252e-10 
0 0 -1.7425367252e-10 0 0 -1.7425367252e-10 0 0 -8.9019973083e-09 
0 0 -1.7425367252e-10 0 0 -1.7425367252e-10 0 0 -1.7425367252e-10 
0 0 -1.7425367252e-10 0 0 -1.7425367252e-10 0 0 -1.7425367252e-10 
0 0 -1.7425367252e-10 0 0 -1.7425367252e-10 0 0 -1.7425367252e-10 
0 0 -1.7425367252e-10 0 0 -1.7425367252e-10 0 0 -1.7425367252e-10 
0 0 -1.7425367252e-10 0 0 -1.7425367252e-10 0 0 -1.7425367252e-10 
0 0 -1.7425367252e-10 0 0 -1.7425367252e-10 0 0 -1.7425367252e-10 
0 0 -1.7425367252e-10 0 0 -1.7425367252e-10 0 0 -1.7425367252e-10 
0 0 -1.7425367252e-10 0 0 -1.7425367252e-10 0 0 -1.7425367252e-10 
0 0 -1.7425367252e-10 0 0 -1.7425367252e-10 0 0 -1.7425367252e-10 
0 0 -1.7425367252e-10 0 0 -1.7425367252e-10 0 0 -8.9019973083e-09 
0 0 -1.7425367252e-10 0 0 -1.7425367252e-10 0 0 -1.7425367252e-10 
0 0 -1.7425367252e-10 0 0 -1.7425367252e-10 0 0 -1.7425367252e-10 
0 0 -1.7425367252e-10 0 0 -1.7425367252e-10 0 0 -1.7425367252e-10 
0 0 -1.7425367252e-10 0 0 -1.7425367252e-10 0 0 -1.7425367252e-10 
0 0 -1.7425367252e-10 0 0 -1.7425367252e-10 0 0 -1.7425367252e-10 
0 0 -1.7425367252e-10 0 0 -1.7425367252e-10 0 0 -1.7425367252e-10 
0 0 -1.7425367252e-10 0 0 -1.7425367252e-10 0 0 -1.7425367252e-10 
0 0 -1.7425367252e-10 0 0 -1.7425367252e-10 0 0 -1.7425367252e-10 
0 0 -1.7425367252e-10 0 0 -1.7425367252e-10 0 0 -1.7425367252e-10 
0 0 -1.7425367252e-10 0 0 -1.7425367252e-10 0 0 -1.7425367252e-10 
0 0 -1.7425367252e-10 0 0 -1.7425367252e-10 0 0 -8.9019973083e-09 
0 0 -1.7425367252e-10 0 0 -1.7425367252e-10 0 0 -1.7425367252e-10 
0 0 -1.7425367252e-10 0 0 -1.7425367252e-10 0 0 -1.7425367252e-10 
0 0 -1.7425367252e-10 0 0 -1.7425367252e-10 0 0 -1.7425367252e-10 
0 0 -1.7425367252e-10 0 0 -1.7425367252e-10 0 0 -1.7425367252e-10 
0 0 -1.7425367252e-10 0 0 -1.7425367252e-10 0 0 -1.7425367252e-10 
0 0 -1.7425367252e-10 0 0 -1.7425367252e-10 0 0 -1.7425367252e-10 
0 0 -1.7425367252e-10 0 0 -1.7425367252e-10 0 0 -1.7425367252e-10 
0 0 -1.7425367252e-10 0 0 -1.7425367252e-10 0 0 -1.7425367252e-10 
0 0 -1.7425367252e-10 0 0 -1.7425367252e-10 0 0 -1.7425367252e-10 
0 0 -1.7425367252e-10 0 0 -1.7425367252e-10 0 0 -1.7425367252e-10 
0 0 -1.7425367252e-10 0 0 -1.7425367252e-10 0 0 -1.7425367252e-10 
0 0 -1.7425367252e-10 0 0 -1.7425367252e-10 0 0 -1.7425367252e-10 
0 0 -1.7425367252e-10 0 0 -1.7425367252e-10 0 0 -1.7425367252e-10 
0 0 -1.7425367252e-10 0 0 -1.7425367252e-10 0 0 -1.7425367252e-10 
0 0 -1.7425367252e-10 0 0 -1.7425367252e-10 0 0 -1.7425367252e-10 
0 0 -1.7425367252e-10 0 0 -1.7425367252e-10 0 0 -1.7425367252e-10 
0 0 -1.7425367252e-10 0 0 -1.7425367252e-10 0 0 -1.7425367252e-10 
0 0 -1.7425367252e-10 0 0 -1.7425367252e-10 0 0 -1.7425367252e-10 
0 0 -1.7425367252e-10 0 0 -1.7425367252e-10 0 0 -1.7425367252e-10 
0 0 -1.7425367252e-10 0 0 -1.7425367252e-10 0 0 -1.7425367252e-10 
0 0 -1.7425367252e-10 0 0 -1.7425367252e-10 0 0 -1.7425367252e-10 
0 0 -1.7425367252e-10 0 0 -1.7425367252e-10 0 0 -1.7425367252e-10 
0 0 -1.7425367252e-10 0 0 -1.7425367252e-10 0 0 -1.7425367252e-10 
0 0 -1.7425367252e-10 0 0 -1.7425367252e-10 0 0 -1.7425367252e-10 
0 0 -1.7425367252e-10 0 0 -1.7425367252e-10 0 0 -1.7425367252e-10 
0 0 -1.7425367252e-10 0 0 -1.7425367252e-10 0 0 -1.7425367252e-10 
0 0 -1.7425367252e-10 0 0 -1.7425367252e-10 0 0 -1.7425367252e-10 
0 0 -8.9019973083e-09 0 0 -8.9019973083e-09 0 0 -1.7425367252e-10 
0 0 -1.7425367252e-10 0 0 -1.7425367252e-10 0 0 -1.7425367252e-10 
0 0 -1.7425367252e-10 0 0 -1.7425367252e-10 0 0 -1.7425367252e-10 
0 0 -1.7425367252e-10 0 0 -1.7425367252e-10 0 0 -1.7425367252e-10 
0 0 -1.7425367252e-10 0 0 -1.7425367252e-10 0 0 -1.7425367252e-10 
0 0 -8.9019973083e-09 0 0 -1.7425367252e-10 0 0 -1.7425367252e-10 
0 0 -1.7425367252e-10 0 0 -8.9019973083e-09 0 0 -8.9019973083e-09 
0 0 -8.9019973083e-09 0 0 -1.7425367252e-10 0 0 -6.8918688838e-08 
0 0 -1.7425367252e-10 0 0 -1.7425367252e-10 0 0 -5.3297119368e-07 

radius 1 648 double
2e-05 2e-05 2e-05 7.5e-05 2e-05 2e-05 2e-05 2e-05 2e-05 
2e-05 2e-05 2e-05 2e-05 2e-05 2e-05 2e-05 2e-05 2e-05 
2e-05 2e-05 2e-05 2e-05 2e-05 2e-05 2e-05 2e-05 2e-05 
2e-05 2e-05 2e-05 2e-05 2e-05 2e-05 2e-05 2e-05 2e-05 
2e-05 2e-05 2e-05 2e-05 2e-05 2e-05 2e-05 2e-05 2e-05 
2e-05 2e-05 2e-05 2e-05 2e-05 2e-05 2e-05 2e-05 2e-05 
2e-05 2e-05 2e-05 2e-05 2e-05 2e-05 2e-05 2e-05 2e-05 
2e-05 2e-05 2e-05 2e-05 2e-05 2e-05 2e-05 2e-05 2e-05 
2e-05 2e-05 2e-05 2e-05 2e-05 2e-05 2e-05 2e-05 2e-05 
2e-05 2e-05 2e-05 2e-05 2e-05 2e-05 2e-05 2e-05 2e-05 
2e-05 2e-05 2e-05 2e-05 2e-05 2e-05 2e-05 2e-05 2e-05 
2e-05 2e-05 2e-05 2e-05 2e-05 2e-05 2e-05 2e-05 2e-05 
2e-05 2e-05 2e-05 2e-05 2e-05 2e-05 2e-05 2e-05 2e-05 
2e-05 2e-05 2e-05 2e-05 2e-05 2e-05 2e-05 2e-05 2e-05 
2e-05 2e-05 2e-05 2e-05 2e-05 2e-05 2e-05 2e-05 2e-05 
2e-05 2e-05 2e-05 2e-05 2e-05 2e-05 2e-05 2e-05 2e-05 
2e-05 2e-05 2e-05 2e-05 2e-05 2e-05 2e-05 2e-05 2e-05 
2e-05 2e-05 2e-05 2e-05 2e-05 2e-05 2e-05 2e-05 2e-05 
2e-05 2e-05 2e-05 2e-05 2e-05 2e-05 2e-05 2e-05 2e-05 
2e-05 2e-05 2e-05 2e-05 2e-05 2e-05 2e-05 2e-05 2e-05 
2e-05 2e-05 2e-05 2e-05 2e-05 2e-05 2e-05 2e-05 2e-05 
2e-05 2e-05 2e-05 2e-05 2e-05 2e-05 2e-05 2e-05 2e-05 
2e-05 2e-05 2e-05 2e-05 2e-05 2e-05 2e-05 2e-05 2e-05 
2e-05 2e-05 2e-05 2e-05 2e-05 2e-05 2e-05 2e-05 2e-05 
2e-05 2e-05 2e-05 2e-05 2e-05 2e-05 7.5e-05 2e-05 2e-05 
2e-05 2e-05 2e-05 2e-05 2e-05 2e-05 2e-05 2e-05 2e-05 
2e-05 2e-05 2e-05 2e-05 2e-05 2e-05 2e-05 2e-05 2e-05 
2e-05 2e-05 2e-05 2e-05 2e-05 2e-05 2e-05 2e-05 2e-05 
2e-05 2e-05 2e-05 2e-05 2e-05 2e-05 2e-05 2e-05 2e-05 
2e-05 2e-05 2e-05 2e-05 2e-05 2e-05 2e-05 2e-05 7.5e-05 
2e-05 2e-05 2e-05 2e-05 2e-05 2e-05 2e-05 2e-05 2e-05 
2e-05 2e-05 2e-05 2e-05 2e-05 2e-05 2e-05 2e-05 2e-05 
2e-05 2e-05 2e-05 2e-05 2e-05 2e-05 2e-05 2e-05 2e-05 
2e-05 2e-05 2e-05 2e-05 2e-05 2e-05 2e-05 2e-05 2e-05 
2e-05 2e-05 2e-05 2e-05 2e-05 2e-05 2e-05 2e-05 2e-05 
2e-05 2e-05 2e-05 2e-05 2e-05 2e-05 2e-05 2e-05 2e-05 
2e-05 2e-05 2e-05 2e-05 2e-05 2e-05 2e-05 2e-05 2e-05 
2e-05 2e-05 2e-05 2e-05 2e-05 2e-05 2e-05 2e-05 2e-05 
2e-05 2e-05 2e-05 2e-05 2e-05 2e-05 2e-05 2e-05 2e-05 
2e-05 2e-05 2e-05 7.5e-05 2e-05 2e-05 2e-05 2e-05 2e-05 
2e-05 2e-05 2e-05 2e-05 2e-05 2e-05 2e-05 2e-05 2e-05 
2e-05 2e-05 2e-05 2e-05 2e-05 2e-05 2e-05 2e-05 2e-05 
2e-05 2e-05 2e-05 2e-05 2e-05 2e-05 2e-05 2e-05 2e-05 
2e-05 2e-05 2e-05 2e-05 2e-05 2e-05 2e-05 2e-05 2e-05 
2e-05 2e-05 2e-05 2e-05 2e-05 2e-05 2e-05 2e-05 2e-05 
2e-05 2e-05 2e-05 2e-05 2e-05 2e-05 2e-05 2e-05 2e-05 
7.5e-05 2e-05 2e-05 2e-05 2e-05 2e-05 2e-05 2e-05 2e-05 
2e-05 2e-05 2e-05 2e-05 2e-05 2e-05 2e-05 2e-05 7.5e-05 
2e-05 2e-05 2e-05 2e-05 2e-05 2e-05 2e-05 2e-05 2e-05 
2e-05 7.5e-05 2e-05 2e-05 2e-05 2e-05 2e-05 2e-05 2e-05 
2e-05 2e-05 2e-05 2e-05 2e-05 2e-05 2e-05 2e-05 2e-05 
2e-05 2e-05 7.5e-05 2e-05 2e-05 2e-05 2e-05 2e-05 2e-05 
2e-05 2e-05 2e-05 2e-05 2e-05 2e-05 2e-05 2e-05 7.5e-05 
2e-05 2e-05 2e-05 2e-05 2e-05 2e-05 2e-05 2e-05 2e-05 
2e-05 2e-05 2e-05 2e-05 2e-05 2e-05 2e-05 2e-05 2e-05 
2e-05 2e-05 2e-05 2e-05 2e-05 2e-05 2e-05 2e-05 2e-05 
2e-05 2e-05 7.5e-05 2e-05 2e-05 2e-05 2e-05 2e-05 2e-05 
2e-05 2e-05 2e-05 2e-05 2e-05 2e-05 2e-05 2e-05 2e-05 
2e-05 2e-05 2e-05 2e-05 2e-05 2e-05 2e-05 2e-05 2e-05 
2e-05 2e-05 2e-05 2e-05 2e-05 2e-05 2e-05 2e-05 7.5e-05 
2e-05 2e-05 2e-05 2e-05 2e-05 2e-05 2e-05 2e-05 2e-05 
2e-05 2e-05 2e-05 2e-05 2e-05 2e-05 2e-05 2e-05 2e-05 
2e-05 2e-05 2e-05 2e-05 2e-05 2e-05 2e-05 2e-05 2e-05 
2e-05 2e-05 2e-05 2e-05 2e-05 2e-05 2e-05 2e-05 2e-05 
2e-05 2e-05 2e-05 2e-05 2e-05 2e-05 2e-05 2e-05 2e-05 
2e-05 2e-05 2e-05 2e-05 2e-05 2e-05 2e-05 2e-05 2e-05 
2e-05 2e-05 2e-05 2e-05 2e-05 2e-05 2e-05 2e-05 2e-05 
2e-05 2e-05 2e-05 2e-05 2e-05 2e-05 2e-05 2e-05 2e-05 
2e-05 2e-05 2e-05 2e-05 2e-05 2e-05 2e-05 2e-05 2e-05 
7.5e-05 7.5e-05 2e-05 2e-05 2e-05 2e-05 2e-05 2e-05 2e-05 
2e-05 2e-05 2e-05 2e-05 2e-05 2e-05 7.5e-05 2e-05 2e-05 
2e-05 7.5e-05 7.5e-05 7.5e-05 2e-05 0.00015 2e-05 2e-05 0.0003 

omega 3 648 double
0 0 0 0 0 0 0 0 0 
0 0 0 0 0 0 0 0 0 
0 0 0 0 0 0 0 0 0 
0 0 0 0 0 0 0 0 0 
0 0 0 0 0 0 0 0 0 
0 0 0 0 0 0 0 0 0 
0 0 0 0 0 0 0 0 0 
0 0 0 0 0 0 0 0 0 
0 0 0 0 0 0 0 0 0 
0 0 0 0 0 0 0 0 0 
0 0 0 0 0 0 0 0 0 
0 0 0 0 0 0 0 0 0 
0 0 0 0 0 0 0 0 0 
0 0 0 0 0 0 0 0 0 
0 0 0 0 0 0 0 0 0 
0 0 0 0 0 0 0 0 0 
0 0 0 0 0 0 0 0 0 
0 0 0 0 0 0 0 0 0 
0 0 0 0 0 0 0 0 0 
0 0 0 0 0 0 0 0 0 
0 0 0 0 0 0 0 0 0 
0 0 0 0 0 0 0 0 0 
0 0 0 0 0 0 0 0 0 
0 0 0 0 0 0 0 0 0 
0 0 0 0 0 0 0 0 0 
0 0 0 0 0 0 0 0 0 
0 0 0 0 0 0 0 0 0 
0 0 0 0 0 0 0 0 0 
0 0 0 0 0 0 0 0 0 
0 0 0 0 0 0 0 0 0 
0 0 0 0 0 0 0 0 0 
0 0 0 0 0 0 0 0 0 
0 0 0 0 0 0 0 0 0 
0 0 0 0 0 0 0 0 0 
0 0 0 0 0 0 0 0 0 
0 0 0 0 0 0 0 0 0 
0 0 0 0 0 0 0 0 0 
0 0 0 0 0 0 0 0 0 
0 0 0 0 0 0 0 0 0 
0 0 0 0 0 0 0 0 0 
0 0 0 0 0 0 0 0 0 
0 0 0 0 0 0 0 0 0 
0 0 0 0 0 0 0 0 0 
0 0 0 0 0 0 0 0 0 
0 0 0 0 0 0 0 0 0 
0 0 0 0 0 0 0 0 0 
0 0 0 0 0 0 0 0 0 
0 0 0 0 0 0 0 0 0 
0 0 0 0 0 0 0 0 0 
0 0 0 0 0 0 0 0 0 
0 0 0 0 0 0 0 0 0 
0 0 0 0 0 0 0 0 0 
0 0 0 0 0 0 0 0 0 
0 0 0 0 0 0 0 0 0 
0 0 0 0 0 0 0 0 0 
0 0 0 0 0 0 0 0 0 
0 0 0 0 0 0 0 0 0 
0 0 0 0 0 0 0 0 0 
0 0 0 0 0 0 0 0 0 
0 0 0 0 0 0 0 0 0 
0 0 0 0 0 0 0 0 0 
0 0 0 0 0 0 0 0 0 
0 0 0 0 0 0 0 0 0 
0 0 0 0 0 0 0 0 0 
0 0 0 0 0 0 0 0 0 
0 0 0 0 0 0 0 0 0 
0 0 0 0 0 0 0 0 0 
0 0 0 0 0 0 0 0 0 
0 0 0 0 0 0 0 0 0 
0 0 0 0 0 0 0 0 0 
0 0 0 0 0 0 0 0 0 
0 0 0 0 0 0 0 0 0 
0 0 0 0 0 0 0 0 0 
0 0 0 0 0 0 0 0 0 
0 0 0 0 0 0 0 0 0 
0 0 0 0 0 0 0 0 0 
0 0 0 0 0 0 0 0 0 
0 0 0 0 0 0 0 0 0 
0 0 0 0 0 0 0 0 0 
0 0 0 0 0 0 0 0 0 
0 0 0 0 0 0 0 0 0 
0 0 0 0 0 0 0 0 0 
0 0 0 0 0 0 0 0 0 
0 0 0 0 0 0 0 0 0 
0 0 0 0 0 0 0 0 0 
0 0 0 0 0 0 0 0 0 
0 0 0 0 0 0 0 0 0 
0 0 0 0 0 0 0 0 0 
0 0 0 0 0 0 0 0 0 
0 0 0 0 0 0 0 0 0 
0 0 0 0 0 0 0 0 0 
0 0 0 0 0 0 0 0 0 
0 0 0 0 0 0 0 0 0 
0 0 0 0 0 0 0 0 0 
0 0 0 0 0 0 0 0 0 
0 0 0 0 0 0 0 0 0 
0 0 0 0 0 0 0 0 0 
0 0 0 0 0 0 0 0 0 
0 0 0 0 0 0 0 0 0 
0 0 0 0 0 0 0 0 0 
0 0 0 0 0 0 0 0 0 
0 0 0 0 0 0 0 0 0 
0 0 0 0 0 0 0 0 0 
0 0 0 0 0 0 0 0 0 
0 0 0 0 0 0 0 0 0 
0 0 0 0 0 0 0 0 0 
0 0 0 0 0 0 0 0 0 
0 0 0 0 0 0 0 0 0 
0 0 0 0 0 0 0 0 0 
0 0 0 0 0 0 0 0 0 
0 0 0 0 0 0 0 0 0 
0 0 0 0 0 0 0 0 0 
0 0 0 0 0 0 0 0 0 
0 0 0 0 0 0 0 0 0 
0 0 0 0 0 0 0 0 0 
0 0 0 0 0 0 0 0 0 
0 0 0 0 0 0 0 0 0 
0 0 0 0 0 0 0 0 0 
0 0 0 0 0 0 0 0 0 
0 0 0 0 0 0 0 0 0 
0 0 0 0 0 0 0 0 0 
0 0 0 0 0 0 0 0 0 
0 0 0 0 0 0 0 0 0 
0 0 0 0 0 0 0 0 0 
0 0 0 0 0 0 0 0 0 
0 0 0 0 0 0 0 0 0 
0 0 0 0 0 0 0 0 0 
0 0 0 0 0 0 0 0 0 
0 0 0 0 0 0 0 0 0 
0 0 0 0 0 0 0 0 0 
0 0 0 0 0 0 0 0 0 
0 0 0 0 0 0 0 0 0 
0 0 0 0 0 0 0 0 0 
0 0 0 0 0 0 0 0 0 
0 0 0 0 0 0 0 0 0 
0 0 0 0 0 0 0 0 0 
0 0 0 0 0 0 0 0 0 
0 0 0 0 0 0 0 0 0 
0 0 0 0 0 0 0 0 0 
0 0 0 0 0 0 0 0 0 
0 0 0 0 0 0 0 0 0 
0 0 0 0 0 0 0 0 0 
0 0 0 0 0 0 0 0 0 
0 0 0 0 0 0 0 0 0 
0 0 0 0 0 0 0 0 0 
0 0 0 0 0 0 0 0 0 
0 0 0 0 0 0 0 0 0 
0 0 0 0 0 0 0 0 0 
0 0 0 0 0 0 0 0 0 
0 0 0 0 0 0 0 0 0 
0 0 0 0 0 0 0 0 0 
0 0 0 0 0 0 0 0 0 
0 0 0 0 0 0 0 0 0 
0 0 0 0 0 0 0 0 0 
0 0 0 0 0 0 0 0 0 
0 0 0 0 0 0 0 0 0 
0 0 0 0 0 0 0 0 0 
0 0 0 0 0 0 0 0 0 
0 0 0 0 0 0 0 0 0 
0 0 0 0 0 0 0 0 0 
0 0 0 0 0 0 0 0 0 
0 0 0 0 0 0 0 0 0 
0 0 0 0 0 0 0 0 0 
0 0 0 0 0 0 0 0 0 
0 0 0 0 0 0 0 0 0 
0 0 0 0 0 0 0 0 0 
0 0 0 0 0 0 0 0 0 
0 0 0 0 0 0 0 0 0 
0 0 0 0 0 0 0 0 0 
0 0 0 0 0 0 0 0 0 
0 0 0 0 0 0 0 0 0 
0 0 0 0 0 0 0 0 0 
0 0 0 0 0 0 0 0 0 
0 0 0 0 0 0 0 0 0 
0 0 0 0 0 0 0 0 0 
0 0 0 0 0 0 0 0 0 
0 0 0 0 0 0 0 0 0 
0 0 0 0 0 0 0 0 0 
0 0 0 0 0 0 0 0 0 
0 0 0 0 0 0 0 0 0 
0 0 0 0 0 0 0 0 0 
0 0 0 0 0 0 0 0 0 
0 0 0 0 0 0 0 0 0 
0 0 0 0 0 0 0 0 0 
0 0 0 0 0 0 0 0 0 
0 0 0 0 0 0 0 0 0 
0 0 0 0 0 0 0 0 0 
0 0 0 0 0 0 0 0 0 
0 0 0 0 0 0 0 0 0 
0 0 0 0 0 0 0 0 0 
0 0 0 0 0 0 0 0 0 
0 0 0 0 0 0 0 0 0 
0 0 0 0 0 0 0 0 0 
0 0 0 0 0 0 0 0 0 
0 0 0 0 0 0 0 0 0 
0 0 0 0 0 0 0 0 0 
0 0 0 0 0 0 0 0 0 
0 0 0 0 0 0 0 0 0 
0 0 0 0 0 0 0 0 0 
0 0 0 0 0 0 0 0 0 
0 0 0 0 0 0 0 0 0 
0 0 0 0 0 0 0 0 0 
0 0 0 0 0 0 0 0 0 
0 0 0 0 0 0 0 0 0 
0 0 0 0 0 0 0 0 0 
0 0 0 0 0 0 0 0 0 
0 0 0 0 0 0 0 0 0 
0 0 0 0 0 0 0 0 0 
0 0 0 0 0 0 0 0 0 
0 0 0 0 0 0 0 0 0 
0 0 0 0 0 0 0 0 0 
0 0 0 0 0 0 0 0 0 
0 0 0 0 0 0 0 0 0 
0 0 0 0 0 0 0 0 0 
0 0 0 0 0 0 0 0 0 
0 0 0 0 0 0 0 0 0 

fx_mag_viz 1 648 double
0 0 0 0 0 0 0 0 0 
0 0 0 0 0 0 0 0 0 
0 0 0 0 0 0 0 0 0 
0 0 0 0 0 0 0 0 0 
0 0 0 0 0 0 0 0 0 
0 0 0 0 0 0 0 0 0 
0 0 0 0 0 0 0 0 0 
0 0 0 0 0 0 0 0 0 
0 0 0 0 0 0 0 0 0 
0 0 0 0 0 0 0 0 0 
0 0 0 0 0 0 0 0 0 
0 0 0 0 0 0 0 0 0 
0 0 0 0 0 0 0 0 0 
0 0 0 0 0 0 0 0 0 
0 0 0 0 0 0 0 0 0 
0 0 0 0 0 0 0 0 0 
0 0 0 0 0 0 0 0 0 
0 0 0 0 0 0 0 0 0 
0 0 0 0 0 0 0 0 0 
0 0 0 0 0 0 0 0 0 
0 0 0 0 0 0 0 0 0 
0 0 0 0 0 0 0 0 0 
0 0 0 0 0 0 0 0 0 
0 0 0 0 0 0 0 0 0 
0 0 0 0 0 0 0 0 0 
0 0 0 0 0 0 0 0 0 
0 0 0 0 0 0 0 0 0 
0 0 0 0 0 0 0 0 0 
0 0 0 0 0 0 0 0 0 
0 0 0 0 0 0 0 0 0 
0 0 0 0 0 0 0 0 0 
0 0 0 0 0 0 0 0 0 
0 0 0 0 0 0 0 0 0 
0 0 0 0 0 0 0 0 0 
0 0 0 0 0 0 0 0 0 
0 0 0 0 0 0 0 0 0 
0 0 0 0 0 0 0 0 0 
0 0 0 0 0 0 0 0 0 
0 0 0 0 0 0 0 0 0 
0 0 0 0 0 0 0 0 0 
0 0 0 0 0 0 0 0 0 
0 0 0 0 0 0 0 0 0 
0 0 0 0 0 0 0 0 0 
0 0 0 0 0 0 0 0 0 
0 0 0 0 0 0 0 0 0 
0 0 0 0 0 0 0 0 0 
0 0 0 0 0 0 0 0 0 
0 0 0 0 0 0 0 0 0 
0 0 0 0 0 0 0 0 0 
0 0 0 0 0 0 0 0 0 
0 0 0 0 0 0 0 0 0 
0 0 0 0 0 0 0 0 0 
0 0 0 0 0 0 0 0 0 
0 0 0 0 0 0 0 0 0 
0 0 0 0 0 0 0 0 0 
0 0 0 0 0 0 0 0 0 
0 0 0 0 0 0 0 0 0 
0 0 0 0 0 0 0 0 0 
0 0 0 0 0 0 0 0 0 
0 0 0 0 0 0 0 0 0 
0 0 0 0 0 0 0 0 0 
0 0 0 0 0 0 0 0 0 
0 0 0 0 0 0 0 0 0 
0 0 0 0 0 0 0 0 0 
0 0 0 0 0 0 0 0 0 
0 0 0 0 0 0 0 0 0 
0 0 0 0 0 0 0 0 0 
0 0 0 0 0 0 0 0 0 
0 0 0 0 0 0 0 0 0 
0 0 0 0 0 0 0 0 0 
0 0 0 0 0 0 0 0 0 
0 0 0 0 0 0 0 0 0 

fy_mag_viz 1 648 double
0 0 0 0 0 0 0 0 0 
0 0 0 0 0 0 0 0 0 
0 0 0 0 0 0 0 0 0 
0 0 0 0 0 0 0 0 0 
0 0 0 0 0 0 0 0 0 
0 0 0 0 0 0 0 0 0 
0 0 0 0 0 0 0 0 0 
0 0 0 0 0 0 0 0 0 
0 0 0 0 0 0 0 0 0 
0 0 0 0 0 0 0 0 0 
0 0 0 0 0 0 0 0 0 
0 0 0 0 0 0 0 0 0 
0 0 0 0 0 0 0 0 0 
0 0 0 0 0 0 0 0 0 
0 0 0 0 0 0 0 0 0 
0 0 0 0 0 0 0 0 0 
0 0 0 0 0 0 0 0 0 
0 0 0 0 0 0 0 0 0 
0 0 0 0 0 0 0 0 0 
0 0 0 0 0 0 0 0 0 
0 0 0 0 0 0 0 0 0 
0 0 0 0 0 0 0 0 0 
0 0 0 0 0 0 0 0 0 
0 0 0 0 0 0 0 0 0 
0 0 0 0 0 0 0 0 0 
0 0 0 0 0 0 0 0 0 
0 0 0 0 0 0 0 0 0 
0 0 0 0 0 0 0 0 0 
0 0 0 0 0 0 0 0 0 
0 0 0 0 0 0 0 0 0 
0 0 0 0 0 0 0 0 0 
0 0 0 0 0 0 0 0 0 
0 0 0 0 0 0 0 0 0 
0 0 0 0 0 0 0 0 0 
0 0 0 0 0 0 0 0 0 
0 0 0 0 0 0 0 0 0 
0 0 0 0 0 0 0 0 0 
0 0 0 0 0 0 0 0 0 
0 0 0 0 0 0 0 0 0 
0 0 0 0 0 0 0 0 0 
0 0 0 0 0 0 0 0 0 
0 0 0 0 0 0 0 0 0 
0 0 0 0 0 0 0 0 0 
0 0 0 0 0 0 0 0 0 
0 0 0 0 0 0 0 0 0 
0 0 0 0 0 0 0 0 0 
0 0 0 0 0 0 0 0 0 
0 0 0 0 0 0 0 0 0 
0 0 0 0 0 0 0 0 0 
0 0 0 0 0 0 0 0 0 
0 0 0 0 0 0 0 0 0 
0 0 0 0 0 0 0 0 0 
0 0 0 0 0 0 0 0 0 
0 0 0 0 0 0 0 0 0 
0 0 0 0 0 0 0 0 0 
0 0 0 0 0 0 0 0 0 
0 0 0 0 0 0 0 0 0 
0 0 0 0 0 0 0 0 0 
0 0 0 0 0 0 0 0 0 
0 0 0 0 0 0 0 0 0 
0 0 0 0 0 0 0 0 0 
0 0 0 0 0 0 0 0 0 
0 0 0 0 0 0 0 0 0 
0 0 0 0 0 0 0 0 0 
0 0 0 0 0 0 0 0 0 
0 0 0 0 0 0 0 0 0 
0 0 0 0 0 0 0 0 0 
0 0 0 0 0 0 0 0 0 
0 0 0 0 0 0 0 0 0 
0 0 0 0 0 0 0 0 0 
0 0 0 0 0 0 0 0 0 
0 0 0 0 0 0 0 0 0 

fz_mag_viz 1 648 double
0 0 0 0 0 0 0 0 0 
0 0 0 0 0 0 0 0 0 
0 0 0 0 0 0 0 0 0 
0 0 0 0 0 0 0 0 0 
0 0 0 0 0 0 0 0 0 
0 0 0 0 0 0 0 0 0 
0 0 0 0 0 0 0 0 0 
0 0 0 0 0 0 0 0 0 
0 0 0 0 0 0 0 0 0 
0 0 0 0 0 0 0 0 0 
0 0 0 0 0 0 0 0 0 
0 0 0 0 0 0 0 0 0 
0 0 0 0 0 0 0 0 0 
0 0 0 0 0 0 0 0 0 
0 0 0 0 0 0 0 0 0 
0 0 0 0 0 0 0 0 0 
0 0 0 0 0 0 0 0 0 
0 0 0 0 0 0 0 0 0 
0 0 0 0 0 0 0 0 0 
0 0 0 0 0 0 0 0 0 
0 0 0 0 0 0 0 0 0 
0 0 0 0 0 0 0 0 0 
0 0 0 0 0 0 0 0 0 
0 0 0 0 0 0 0 0 0 
0 0 0 0 0 0 0 0 0 
0 0 0 0 0 0 0 0 0 
0 0 0 0 0 0 0 0 0 
0 0 0 0 0 0 0 0 0 
0 0 0 0 0 0 0 0 0 
0 0 0 0 0 0 0 0 0 
0 0 0 0 0 0 0 0 0 
0 0 0 0 0 0 0 0 0 
0 0 0 0 0 0 0 0 0 
0 0 0 0 0 0 0 0 0 
0 0 0 0 0 0 0 0 0 
0 0 0 0 0 0 0 0 0 
0 0 0 0 0 0 0 0 0 
0 0 0 0 0 0 0 0 0 
0 0 0 0 0 0 0 0 0 
0 0 0 0 0 0 0 0 0 
0 0 0 0 0 0 0 0 0 
0 0 0 0 0 0 0 0 0 
0 0 0 0 0 0 0 0 0 
0 0 0 0 0 0 0 0 0 
0 0 0 0 0 0 0 0 0 
0 0 0 0 0 0 0 0 0 
0 0 0 0 0 0 0 0 0 
0 0 0 0 0 0 0 0 0 
0 0 0 0 0 0 0 0 0 
0 0 0 0 0 0 0 0 0 
0 0 0 0 0 0 0 0 0 
0 0 0 0 0 0 0 0 0 
0 0 0 0 0 0 0 0 0 
0 0 0 0 0 0 0 0 0 
0 0 0 0 0 0 0 0 0 
0 0 0 0 0 0 0 0 0 
0 0 0 0 0 0 0 0 0 
0 0 0 0 0 0 0 0 0 
0 0 0 0 0 0 0 0 0 
0 0 0 0 0 0 0 0 0 
0 0 0 0 0 0 0 0 0 
0 0 0 0 0 0 0 0 0 
0 0 0 0 0 0 0 0 0 
0 0 0 0 0 0 0 0 0 
0 0 0 0 0 0 0 0 0 
0 0 0 0 0 0 0 0 0 
0 0 0 0 0 0 0 0 0 
0 0 0 0 0 0 0 0 0 
0 0 0 0 0 0 0 0 0 
0 0 0 0 0 0 0 0 0 
0 0 0 0 0 0 0 0 0 
0 0 0 0 0 0 0 0 0 

B_magnitude 1 648 double
0 0 0 0 0 0 0 0 0 
0 0 0 0 0 0 0 0 0 
0 0 0 0 0 0 0 0 0 
0 0 0 0 0 0 0 0 0 
0 0 0 0 0 0 0 0 0 
0 0 0 0 0 0 0 0 0 
0 0 0 0 0 0 0 0 0 
0 0 0 0 0 0 0 0 0 
0 0 0 0 0 0 0 0 0 
0 0 0 0 0 0 0 0 0 
0 0 0 0 0 0 0 0 0 
0 0 0 0 0 0 0 0 0 
0 0 0 0 0 0 0 0 0 
0 0 0 0 0 0 0 0 0 
0 0 0 0 0 0 0 0 0 
0 0 0 0 0 0 0 0 0 
0 0 0 0 0 0 0 0 0 
0 0 0 0 0 0 0 0 0 
0 0 0 0 0 0 0 0 0 
0 0 0 0 0 0 0 0 0 
0 0 0 0 0 0 0 0 0 
0 0 0 0 0 0 0 0 0 
0 0 0 0 0 0 0 0 0 
0 0 0 0 0 0 0 0 0 
0 0 0 0 0 0 0 0 0 
0 0 0 0 0 0 0 0 0 
0 0 0 0 0 0 0 0 0 
0 0 0 0 0 0 0 0 0 
0 0 0 0 0 0 0 0 0 
0 0 0 0 0 0 0 0 0 
0 0 0 0 0 0 0 0 0 
0 0 0 0 0 0 0 0 0 
0 0 0 0 0 0 0 0 0 
0 0 0 0 0 0 0 0 0 
0 0 0 0 0 0 0 0 0 
0 0 0 0 0 0 0 0 0 
0 0 0 0 0 0 0 0 0 
0 0 0 0 0 0 0 0 0 
0 0 0 0 0 0 0 0 0 
0 0 0 0 0 0 0 0 0 
0 0 0 0 0 0 0 0 0 
0 0 0 0 0 0 0 0 0 
0 0 0 0 0 0 0 0 0 
0 0 0 0 0 0 0 0 0 
0 0 0 0 0 0 0 0 0 
0 0 0 0 0 0 0 0 0 
0 0 0 0 0 0 0 0 0 
0 0 0 0 0 0 0 0 0 
0 0 0 0 0 0 0 0 0 
0 0 0 0 0 0 0 0 0 
0 0 0 0 0 0 0 0 0 
0 0 0 0 0 0 0 0 0 
0 0 0 0 0 0 0 0 0 
0 0 0 0 0 0 0 0 0 
0 0 0 0 0 0 0 0 0 
0 0 0 0 0 0 0 0 0 
0 0 0 0 0 0 0 0 0 
0 0 0 0 0 0 0 0 0 
0 0 0 0 0 0 0 0 0 
0 0 0 0 0 0 0 0 0 
0 0 0 0 0 0 0 0 0 
0 0 0 0 0 0 0 0 0 
0 0 0 0 0 0 0 0 0 
0 0 0 0 0 0 0 0 0 
0 0 0 0 0 0 0 0 0 
0 0 0 0 0 0 0 0 0 
0 0 0 0 0 0 0 0 0 
0 0 0 0 0 0 0 0 0 
0 0 0 0 0 0 0 0 0 
0 0 0 0 0 0 0 0 0 
0 0 0 0 0 0 0 0 0 
0 0 0 0 0 0 0 0 0 

B_gradient_mag 1 648 double
0 0 0 0 0 0 0 0 0 
0 0 0 0 0 0 0 0 0 
0 0 0 0 0 0 0 0 0 
0 0 0 0 0 0 0 0 0 
0 0 0 0 0 0 0 0 0 
0 0 0 0 0 0 0 0 0 
0 0 0 0 0 0 0 0 0 
0 0 0 0 0 0 0 0 0 
0 0 0 0 0 0 0 0 0 
0 0 0 0 0 0 0 0 0 
0 0 0 0 0 0 0 0 0 
0 0 0 0 0 0 0 0 0 
0 0 0 0 0 0 0 0 0 
0 0 0 0 0 0 0 0 0 
0 0 0 0 0 0 0 0 0 
0 0 0 0 0 0 0 0 0 
0 0 0 0 0 0 0 0 0 
0 0 0 0 0 0 0 0 0 
0 0 0 0 0 0 0 0 0 
0 0 0 0 0 0 0 0 0 
0 0 0 0 0 0 0 0 0 
0 0 0 0 0 0 0 0 0 
0 0 0 0 0 0 0 0 0 
0 0 0 0 0 0 0 0 0 
0 0 0 0 0 0 0 0 0 
0 0 0 0 0 0 0 0 0 
0 0 0 0 0 0 0 0 0 
0 0 0 0 0 0 0 0 0 
0 0 0 0 0 0 0 0 0 
0 0 0 0 0 0 0 0 0 
0 0 0 0 0 0 0 0 0 
0 0 0 0 0 0 0 0 0 
0 0 0 0 0 0 0 0 0 
0 0 0 0 0 0 0 0 0 
0 0 0 0 0 0 0 0 0 
0 0 0 0 0 0 0 0 0 
0 0 0 0 0 0 0 0 0 
0 0 0 0 0 0 0 0 0 
0 0 0 0 0 0 0 0 0 
0 0 0 0 0 0 0 0 0 
0 0 0 0 0 0 0 0 0 
0 0 0 0 0 0 0 0 0 
0 0 0 0 0 0 0 0 0 
0 0 0 0 0 0 0 0 0 
0 0 0 0 0 0 0 0 0 
0 0 0 0 0 0 0 0 0 
0 0 0 0 0 0 0 0 0 
0 0 0 0 0 0 0 0 0 
0 0 0 0 0 0 0 0 0 
0 0 0 0 0 0 0 0 0 
0 0 0 0 0 0 0 0 0 
0 0 0 0 0 0 0 0 0 
0 0 0 0 0 0 0 0 0 
0 0 0 0 0 0 0 0 0 
0 0 0 0 0 0 0 0 0 
0 0 0 0 0 0 0 0 0 
0 0 0 0 0 0 0 0 0 
0 0 0 0 0 0 0 0 0 
0 0 0 0 0 0 0 0 0 
0 0 0 0 0 0 0 0 0 
0 0 0 0 0 0 0 0 0 
0 0 0 0 0 0 0 0 0 
0 0 0 0 0 0 0 0 0 
0 0 0 0 0 0 0 0 0 
0 0 0 0 0 0 0 0 0 
0 0 0 0 0 0 0 0 0 
0 0 0 0 0 0 0 0 0 
0 0 0 0 0 0 0 0 0 
0 0 0 0 0 0 0 0 0 
0 0 0 0 0 0 0 0 0 
0 0 0 0 0 0 0 0 0 
0 0 0 0 0 0 0 0 0 

