# vtk DataFile Version 5.1
Generated by LIGGGHTS
ASCII
DATASET POLYDATA
POINTS 648 float
0.0336491 -0.0197505 0.00116946 0.0223879 -0.0163393 0.00115901 -0.034865 0.0142961 0.00130151 
-0.0409258 0.0305044 0.00119468 0.0165329 0.0385374 0.00117043 0.0251972 0.0393087 0.00122513 
-0.0428902 -0.0449088 0.00215126 0.040047 -0.0404588 0.00137688 -0.00302782 -0.0385948 0.00169152 
0.0156715 -0.0391733 0.00156688 0.00798734 -0.0367051 0.00213945 -0.0232422 -0.0321576 0.00173374 
-0.0266532 -0.0301716 0.00190902 -0.0105296 -0.0314142 0.00209399 0.00741479 -0.0295782 0.00198938 
0.00577088 -0.0287415 0.00224903 0.033456 -0.0256735 0.00227871 0.0436787 -0.0219137 0.00147705 
-0.0108877 -0.0188832 0.00164099 0.0030191 -0.0179247 0.00117589 0.00689113 -0.0107816 0.00202381 
0.0277003 -0.0107969 0.00172917 0.00743742 -0.00926665 0.00206561 0.0350526 -0.0102353 0.00194559 
-0.0198564 -0.00683511 0.00207717 -0.0129003 -0.00574839 0.00233149 0.00937085 -0.00418454 0.00215514 
-0.0179231 -0.00300678 0.00211973 -0.00254916 -0.00379952 0.00136411 -0.00783961 -0.000387029 0.00154498 
-0.00702036 -0.00121172 0.00209731 0.0384376 0.000848974 0.00214284 -0.00967086 0.00179773 0.00158405 
0.00417698 0.0024455 0.00157273 0.00347554 0.00338662 0.00195396 0.0292006 0.00433004 0.00205165 
0.0305447 0.00486582 0.00165204 -0.0287984 0.00559412 0.00160707 0.021602 0.00540593 0.00259853 
-0.0426568 0.00723228 0.00234506 0.0212596 0.00979192 0.00192291 0.0399323 0.0117688 0.00186865 
-0.0310202 0.0131063 0.00214329 8.23501e-07 0.0138406 0.00206453 0.0143092 0.0139794 0.00225036 
0.0248423 0.0143007 0.00239945 0.0287781 0.014071 0.0015038 -0.0360536 0.0173104 0.00196073 
0.0215224 0.0171285 0.00171267 -0.0153727 0.020636 0.00172816 -0.0282566 0.021284 0.00163304 
0.0123926 0.0218243 0.00214011 0.03506 0.0228899 0.0018985 0.0167463 0.0251763 0.00220264 
0.00284552 0.0345861 0.00178595 0.0297434 0.0373158 0.00208472 -0.0390027 0.0421086 0.00142356 
-0.044759 -0.0437614 0.00363955 -0.0308094 -0.0435702 0.00257445 -0.042922 -0.0404536 0.00240549 
0.023158 -0.0340207 0.00350635 0.0244271 -0.0334586 0.00252697 0.0188903 -0.0308528 0.00308808 
0.0280204 -0.0311414 0.0027317 -0.0448384 -0.0296834 0.0037007 0.000892701 -0.0263701 0.00308765 
-0.0207679 -0.0256315 0.0030212 0.032808 -0.025967 0.00367996 -0.0408326 -0.0234295 0.0025769 
0.0404767 -0.0183151 0.00363792 -0.0257955 -0.0157834 0.00359592 -0.0112192 -0.0104501 0.00243575 
0.00643655 -0.000956063 0.0034038 0.0449494 0.00392273 0.0036135 -0.0170872 0.00564833 0.0028592 
0.0011249 0.00615697 0.00246445 0.0228765 0.00606581 0.00365449 0.0221269 0.00728552 0.00328116 
-0.0214351 0.00957734 0.00260137 -0.0214239 0.0189608 0.00339819 -0.022709 0.0198803 0.00344385 
0.0226957 0.0260881 0.00340831 0.0364634 0.0310238 0.00286418 0.0444958 0.0309554 0.0036368 
-0.0264781 0.032823 0.00258446 0.0308099 -0.0378456 0.0037492 0.0333162 -0.0342631 0.00399873 
0.0363266 -0.0194176 0.00479421 -0.0317771 -0.0175651 0.00375438 -0.00444012 -0.0151621 0.00445999 
-0.0117656 -0.0138394 0.0045282 0.0433204 -0.0141837 0.00481578 0.013874 -0.00963069 0.00466911 
0.0109664 -0.00760095 0.00475187 0.0131353 -0.00504642 0.00480166 -0.0141425 -0.00311887 0.00454781 
-0.00757157 0.00454821 0.00467651 0.0246705 0.0064451 0.00492524 -0.0392616 0.00972366 0.00461862 
-0.0101256 0.00978275 0.00498045 -0.023041 0.0197144 0.00446454 -0.0256005 0.0215871 0.00495604 
0.0163992 0.0415262 0.00421053 -0.0335565 -0.0442122 0.00577391 0.0418836 -0.0421436 0.0060483 
-0.00521279 -0.0413279 0.00670371 0.0414821 -0.0410789 0.00610057 0.000822496 -0.0363122 0.00606853 
-0.0388614 -0.0136303 0.00598549 -0.0222502 -0.00974669 0.00533007 -0.00433253 -0.00676057 0.00611404 
0.021323 -0.00444137 0.00628626 0.0197977 0.00963841 0.00611114 -0.00279986 0.0127222 0.00610892 
-0.0081225 0.0151775 0.00634651 0.0418335 0.0161761 0.00591708 0.0307708 0.0242663 0.00530882 
-0.0200898 0.0311527 0.0054272 -0.0155539 0.0359545 0.00551024 -0.0312382 0.0393096 0.00561207 
0.00308146 0.0401468 0.00559102 -0.0385899 -0.0405251 0.00690271 -0.0248652 -0.040212 0.00681926 
-0.018434 -0.0405477 0.00679781 -0.0108246 -0.0388127 0.00699066 0.00594186 -0.0351889 0.00730211 
0.0419483 -0.0348097 0.00787296 -0.0262624 -0.032473 0.00683221 -0.0225401 -0.0213878 0.00733126 
0.039775 -0.0211058 0.00634643 -0.0100897 -0.0180162 0.00648505 -0.00553214 -0.00871323 0.00739225 
0.0282359 -0.00877456 0.00730175 -0.00747582 -0.00609419 0.00750278 0.0414788 -0.00521487 0.00710992 
-0.0260142 0.00017485 0.00701908 0.0188762 0.00181355 0.00753222 0.0283387 0.00890506 0.00731516 
0.0340899 0.00882812 0.00638344 0.0398091 0.011618 0.00659038 -0.00307286 0.0144526 0.00756289 
0.0121458 0.0151918 0.00756347 0.00517921 0.0169249 0.0064172 0.0090081 0.0191686 0.00643701 
0.0038092 0.0311583 0.00686624 0.00372347 0.0304157 0.0072777 -0.0073504 0.0318329 0.0073303 
0.01325 0.0319187 0.00668709 -0.00973825 0.0391656 0.00742523 0.0238959 0.0383247 0.00642794 
0.0222253 0.0407186 0.00732801 -0.00674967 -0.0416523 0.00828395 -0.0334706 -0.0396012 0.00847893 
0.0341086 -0.0368686 0.00882125 -0.0430551 -0.0267583 0.00885665 0.0306875 -0.0259396 0.00808257 
-0.0296942 -0.0196153 0.00832853 0.00156248 -0.0194187 0.00785046 0.0198229 -0.0156851 0.00834943 
0.0286804 -0.00919085 0.00834142 0.0313953 -0.00974065 0.00786985 0.0180565 -0.00487531 0.00869744 
0.00635633 0.000852437 0.00874799 0.00861143 0.0123591 0.00819019 -0.0245993 0.0193658 0.00804603 
-0.00563177 0.0268155 0.0086424 -0.0296003 0.0277025 0.00825738 -0.0127911 0.0299546 0.00803727 
-0.0313244 0.0314049 0.00834517 0.0104707 0.0313218 0.00907938 0.00390562 0.0317225 0.00837184 
-0.0197415 0.0344175 0.00837023 -0.041477 0.0364172 0.00885217 0.0131273 0.040817 0.00854511 
0.0181024 -0.0433049 0.00975876 0.0348044 -0.042095 0.00930582 -0.0349861 -0.0412827 0.0101975 
-0.0168273 -0.0360331 0.00930375 0.0346336 -0.0325969 0.0100498 0.0449741 -0.0303513 0.0097364 
-0.015788 -0.0282898 0.010179 0.0101031 -0.0273014 0.00988861 -0.0419519 -0.0259749 0.0103826 
0.0233461 -0.0214624 0.010236 -0.0426154 -0.0165053 0.00985526 -0.0339565 -0.0167518 0.00910069 
-0.0227164 -0.0141288 0.00977837 -0.00254943 -0.00825679 0.00996498 0.00357123 -0.00830953 0.0100305 
0.0387156 -0.00624884 0.0102812 -0.040885 -0.00406647 0.0100527 -0.0120059 -0.00345367 0.0101013 
-0.0281455 -0.00127675 0.0102981 0.0290986 -0.000251763 0.00951829 0.032558 0.00153523 0.00992342 
-0.0325416 0.00283857 0.0099151 -0.0394276 0.0109375 0.00940575 0.0114764 0.0140289 0.0104674 
-0.0144089 0.0201081 0.0102127 -0.0170112 0.0231088 0.0105665 0.0181332 0.0246356 0.00959319 
-0.0386663 0.0253433 0.00916942 -0.0267569 0.0263983 0.00948091 0.0395905 0.0272142 0.0100879 
0.0191509 0.0299648 0.0100191 -0.0108954 0.0304 0.0100595 0.026696 0.03017 0.0100183 
0.0231674 0.0340949 0.0101511 0.0185094 -0.042363 0.0109754 0.0339316 -0.041715 0.0115385 
0.0338942 -0.0410147 0.0110096 0.0433459 -0.0353282 0.0108245 -0.00586029 -0.0338127 0.0104187 
0.0289145 -0.0340196 0.01109 0.0346338 -0.0290927 0.0109599 -0.00446216 -0.0255279 0.0107983 
0.0155599 -0.0240909 0.0111851 0.00623721 -0.0211799 0.0105189 -0.00827992 -0.020547 0.0107389 
-0.0405162 -0.0161033 0.0113511 0.0268005 -0.0146468 0.0115056 0.0176437 -0.0119747 0.01104 
0.0251729 -0.00985964 0.0104858 -0.0304645 -0.00701594 0.0112861 0.0275881 -0.00673863 0.0105384 
0.0404774 -0.00688032 0.0107688 -0.042786 -0.00359954 0.0111375 0.0293019 -0.00298432 0.0107514 
0.0154702 -0.00154679 0.0112006 -0.0356048 -0.000104637 0.0111408 0.00265626 0.00371614 0.01159 
-0.025141 0.00447188 0.0104015 0.00314898 0.00491531 0.0111767 0.0404406 0.00462082 0.0109477 
0.0101693 0.00555192 0.0112456 0.030759 0.00580352 0.0103612 0.0211953 0.00966092 0.0104687 
-0.0365733 0.0119208 0.0108288 0.00243185 0.0120975 0.0112574 0.0379188 0.0120326 0.0109954 
0.000954082 0.0152563 0.010705 0.0407412 0.0174253 0.0107345 0.00395304 0.0187088 0.0103064 
0.018015 0.0183735 0.0112203 0.00128112 0.0217131 0.011239 -0.00782209 0.0241861 0.0112424 
0.0258603 0.0235991 0.0113714 -0.00739359 0.0259593 0.0103227 -0.0357156 0.0282031 0.010341 
-0.0213481 0.0319153 0.0113396 -0.0337286 0.0337045 0.0110009 -0.0112537 0.0395394 0.0108437 
0.0221021 0.0401282 0.0111367 0.00805094 0.0422278 0.0111848 0.0294278 0.0431452 0.0105766 
-0.0205282 0.0432397 0.0105498 0.0405446 0.0433429 0.0106161 -0.0440308 0.0448256 0.0106695 
-0.0160353 0.0448572 0.0108684 -0.00340304 -0.0448428 0.0124874 -0.027409 -0.0433703 0.0118945 
0.0416479 -0.0439733 0.0128491 -0.00670669 -0.0394183 0.0122843 -0.0439713 -0.0357399 0.0120186 
0.0077947 -0.0345433 0.012921 0.00879071 -0.0344865 0.0118132 -0.0427235 -0.0332389 0.0116748 
0.027474 -0.0338615 0.0120886 -0.0160452 -0.0323821 0.0117747 0.00802514 -0.031483 0.012172 
-0.0386911 -0.0311434 0.0125884 0.0164647 -0.0275391 0.0122483 -0.00580099 -0.0272788 0.0121139 
-0.0338231 -0.0250135 0.0124905 0.0414834 -0.0181367 0.0120102 -0.0329121 -0.0139828 0.0116804 
0.0342493 -0.0115037 0.0130075 -0.0343844 -0.0078404 0.0129322 -0.00401126 -0.00720159 0.0119976 
-0.0408474 -0.00214648 0.0127515 0.00664535 -0.00164817 0.0120087 -0.0376932 -0.000132947 0.0126995 
-0.00229178 0.0020129 0.0128732 0.0147261 0.00139147 0.0121349 -0.037077 0.00611456 0.0127114 
0.00533928 0.00728904 0.012813 0.0320014 0.00756294 0.0120359 0.0142017 0.0079404 0.0126365 
0.0202046 0.00840095 0.0126713 -0.0371624 0.011326 0.0130985 0.0153641 0.0146287 0.0129585 
0.0323341 0.0191974 0.0123624 -0.0267196 0.0236159 0.0119073 -0.0269229 0.0267788 0.0123584 
0.00953871 0.0271324 0.0118979 0.00834461 0.0278725 0.0124171 -0.00435696 0.0325462 0.0128178 
0.0372507 0.0318783 0.0125321 0.0152528 0.033152 0.012031 0.0164577 0.0353116 0.0125373 
-0.00196307 0.0366495 0.0126696 -0.0245447 0.0378537 0.0115987 -0.0437633 0.0406561 0.0125076 
-0.0133259 0.0414802 0.0116878 0.0399235 0.0434757 0.0121006 -0.0346971 -0.0446764 0.0138616 
0.0262096 -0.0449372 0.0134496 -0.0248654 -0.0427111 0.0140785 0.0248068 -0.0428986 0.0136009 
0.000425919 -0.0415728 0.0139938 0.0238162 -0.0409762 0.0140067 -0.0169239 -0.0402939 0.0138931 
0.0244803 -0.0401788 0.0131116 -0.0370475 -0.0370945 0.0138235 0.0397687 -0.0374633 0.0141852 
-0.0273176 -0.0361067 0.0133446 0.00264867 -0.0338128 0.0137884 -0.0336946 -0.0248459 0.0134091 
-0.0329608 -0.0218045 0.0137413 -0.0328213 -0.0176588 0.0136481 -0.0204621 -0.0172006 0.0132709 
-0.0393221 -0.0167834 0.0142046 -0.0420316 -0.0145538 0.0132329 -0.015814 -0.0152491 0.0135423 
0.0375745 -0.0151367 0.013645 -0.0341597 -0.0122829 0.0133708 -0.0269092 -0.0125643 0.013096 
0.0223025 -0.0112244 0.0137979 0.0414517 -0.0114994 0.0133463 -0.0386256 -0.00983966 0.0143886 
-0.0326334 -0.00963456 0.0141351 -0.0196799 -0.00931279 0.0129996 -0.024842 -0.00884532 0.013903 
-0.0416237 0.00110806 0.0137461 0.0362421 0.00170773 0.0141727 -0.0406381 0.00555966 0.0134716 
-0.00723413 0.00605583 0.0136637 0.0332757 0.00539899 0.0140471 0.00474506 0.0103043 0.0130267 
0.014866 0.0127598 0.0131892 0.0261916 0.0119357 0.0140584 -0.0429188 0.0135204 0.0135873 
0.00789931 0.0136568 0.0142079 -0.00443291 0.0160613 0.0139795 0.00757299 0.0192258 0.0134679 
0.00976854 0.0197772 0.0142896 0.0362273 0.0220011 0.0140193 -0.0349287 0.0230684 0.0132538 
0.0146363 0.0223077 0.0133956 0.000162142 0.0251126 0.0134576 -0.0102477 0.0267602 0.013194 
0.0434247 0.0295768 0.0132417 0.0354139 0.0312817 0.0141438 0.0030545 0.0369981 0.0140393 
-0.0375088 0.0393741 0.0132881 0.00513794 0.0433856 0.0141158 0.0114086 0.0440135 0.0135261 
0.0171919 0.0449185 0.013357 0.0211706 0.0445491 0.0135093 0.0145521 -0.0432303 0.0149521 
-0.00161929 -0.0353994 0.0147338 0.0195647 -0.0366528 0.0143004 0.0403097 -0.0347888 0.0148455 
-0.0376897 -0.0314333 0.0152735 0.00231692 -0.0294453 0.014637 -0.0401314 -0.0280847 0.0145293 
-0.0240719 -0.0268296 0.0144968 0.03382 -0.0268981 0.0142732 -0.0328109 -0.0226975 0.0154301 
0.0115492 -0.0227248 0.0148722 -0.0323128 -0.0219837 0.0153343 -0.0164034 -0.0216001 0.0147106 
0.0262592 -0.0217201 0.0153047 0.00548761 -0.0197918 0.0154249 0.0252581 -0.0163235 0.0151784 
-0.0408642 -0.0154151 0.0147588 0.0249316 -0.014475 0.0145616 0.0403752 -0.0143085 0.0150714 
-0.0207563 -0.0111167 0.0146578 -0.0449336 -0.00957357 0.0153829 0.0406218 -0.0100941 0.0151757 
-0.042331 -0.00792816 0.0154966 -0.0135858 -0.00672635 0.014703 0.0129906 -0.00677597 0.0148031 
0.00523139 -0.00599236 0.0151984 -0.000610522 -0.00103491 0.0155649 0.0407777 0.000744206 0.0152731 
0.0277548 0.0042931 0.0145929 0.0323225 0.00436429 0.0152324 0.00978397 0.00922321 0.0144463 
-0.0350204 0.0121089 0.0146686 -0.00831541 0.0129665 0.0148239 0.0128044 0.0127337 0.0146546 
0.0336082 0.013194 0.0153155 -0.0196462 0.0155185 0.0149548 0.012585 0.0155082 0.0156556 
0.00546842 0.0177814 0.0144089 0.0226738 0.0181095 0.0148747 0.0256029 0.0175394 0.0147528 
0.0122157 0.0191756 0.0144645 0.0388885 0.0193682 0.0144187 -0.0431379 0.0208085 0.0143722 
0.0350116 0.0207306 0.014777 -0.0421793 0.0225172 0.0143009 -0.0295899 0.0232577 0.0146195 
-0.0190887 0.0269029 0.0149533 -0.0114472 0.026715 0.0142844 -0.0376379 0.0294143 0.0149429 
-0.0368667 0.0306348 0.0146122 -0.032208 0.0306075 0.014641 -0.0219587 0.0304934 0.0153635 
0.0214431 0.0335886 0.0155321 0.0311732 0.0371467 0.0147862 -0.00883869 0.0381834 0.0145669 
-0.00647711 0.0391566 0.0155471 0.0281745 0.039089 0.0147604 -0.0281804 0.0418824 0.0145059 
-0.0181988 0.0434549 0.0145315 0.0352379 0.0438995 0.0153275 0.0131812 -0.0427533 0.0163333 
0.0201641 -0.0426709 0.0159499 0.0424299 -0.0409921 0.0167818 -0.0406141 -0.0405112 0.0159366 
0.0355384 -0.0354155 0.0167893 -0.0177429 -0.0346724 0.0162528 0.0268369 -0.0315202 0.0160545 
-0.0263426 -0.0292431 0.0155912 0.023019 -0.0293484 0.0157934 0.0392765 -0.0300093 0.0167882 
0.0412685 -0.0295104 0.0165644 -0.0240024 -0.0280603 0.0159817 0.00538025 -0.0241403 0.0155146 
-0.0350278 -0.0224863 0.0162584 -0.0291427 -0.0219343 0.0164747 -0.0183202 -0.0175475 0.0167275 
0.0184681 -0.0172117 0.0162877 0.038292 -0.016257 0.0165469 0.0302919 -0.0148257 0.0159935 
-0.0313057 -0.0141988 0.0160833 -0.0186412 -0.0134353 0.0164776 -0.0327621 -0.0121928 0.0162418 
0.0322358 -0.0130621 0.0159862 -0.038829 -0.00978443 0.0164316 -0.0136128 -0.00979682 0.016427 
-0.0344646 -0.00725539 0.0166509 -0.0214415 -0.007536 0.0160279 0.0161928 -0.00760918 0.0158286 
-0.00474481 -0.00600267 0.0163653 0.0180458 -0.00470109 0.0166354 0.00975646 -0.00313231 0.0162254 
-0.0395569 -0.00227866 0.016365 -0.00896956 -0.00131708 0.0159946 0.00243665 0.00282786 0.0165312 
-0.00552594 0.00555795 0.0166839 0.0250346 0.00641518 0.0157316 0.0110904 0.00657535 0.0168389 
-0.0349081 0.00917553 0.0160524 -0.00867948 0.0139924 0.0157424 0.0441199 0.0136981 0.0159897 
0.0440772 0.0154938 0.0164209 -0.0193355 0.018129 0.0168631 0.00153271 0.0201988 0.0159216 
-0.0287332 0.0215601 0.0164684 -0.0122989 0.0222019 0.0164398 0.0398418 0.0217469 0.0168223 
0.00264144 0.0247174 0.0158538 0.0438582 0.0244724 0.0164911 0.00519606 0.0301696 0.0158899 
-0.0422696 0.0340949 0.0167288 -0.00472634 0.0344449 0.0159397 0.00317215 0.0343196 0.0157401 
-0.0407273 0.0358476 0.0156449 0.0439232 0.0371117 0.0167332 0.0352701 0.0439749 0.0163101 
-0.00396528 -0.0444182 0.0174724 0.0195053 -0.043722 0.0179074 -0.0136468 -0.0412372 0.0179293 
0.0166138 -0.0412108 0.0168896 0.00985621 -0.0367022 0.0170421 -0.0309963 -0.0355024 0.0170848 
-0.0177803 -0.0340186 0.0181169 -0.0161578 -0.0337243 0.0177796 -0.0220587 -0.0306349 0.0176134 
-0.0414327 -0.0290659 0.0173257 0.0153133 -0.0285941 0.0181146 -0.0432264 -0.0264101 0.0174446 
0.0054016 -0.025334 0.0171701 -0.00863888 -0.0237376 0.0173258 0.00179778 -0.0247441 0.0180279 
0.00558373 -0.0242787 0.0179392 0.0102479 -0.024092 0.0175309 -0.0127621 -0.0231756 0.0178579 
0.0109547 -0.0235646 0.0180065 0.0240101 -0.0228809 0.0178068 0.035159 -0.023363 0.0169329 
0.0394323 -0.021923 0.0178087 -0.0210835 -0.0209207 0.0176765 -0.0033641 -0.0204173 0.0176894 
0.0218308 -0.0192565 0.0176953 -0.0147645 -0.0165889 0.0176702 0.0323803 -0.0150629 0.0177498 
0.0144468 -0.013247 0.0179994 0.0323804 -0.0132471 0.017357 0.0334462 -0.00930086 0.0176627 
-0.0211095 -0.00770044 0.0173305 0.0200271 -0.00425623 0.0177605 -0.00941413 -0.00330341 0.0170381 
0.0168839 -0.00210364 0.0174643 -0.0283489 -0.000417126 0.0172543 -0.0153419 -0.00108619 0.0174993 
0.0140084 -6.89735e-05 0.0171619 0.0116524 0.00206193 0.0175623 -0.0261639 0.00337815 0.0180679 
0.0183943 0.00266245 0.0179825 -0.0105861 0.00898083 0.0176261 -0.00841171 0.0143034 0.0173751 
0.0311878 0.014057 0.0169136 0.0396593 0.013993 0.0175659 -0.0148746 0.0223253 0.0176631 
0.00126512 0.0228658 0.0173723 -0.0128609 0.0265935 0.0181176 -0.0406313 0.0295913 0.0178464 
-0.0152062 0.0294088 0.0179312 0.0191028 0.0315895 0.017908 0.0193546 0.0324404 0.0179032 
0.00727395 0.0332762 0.0174551 0.00888594 0.0360502 0.0179178 -0.00585061 0.0388609 0.0170292 
-0.039126 0.0399637 0.0175683 0.00528787 0.0432844 0.0177248 -0.0389435 -0.0425966 0.0192712 
0.0406519 -0.0427256 0.0192906 0.0325128 -0.03812 0.0189455 -8.23525e-05 -0.034098 0.0186928 
-0.0233761 -0.031813 0.0186157 -0.0396817 -0.0304797 0.0186907 -0.0346801 -0.0287009 0.0186441 
0.0347572 -0.0260666 0.0191627 -0.0139777 -0.0223984 0.0192399 -0.0207996 -0.0190456 0.0194574 
0.0282033 -0.0178095 0.0186279 0.0132043 -0.01541 0.0186862 -0.0279963 -0.0141356 0.0186389 
-0.00528066 -0.0121118 0.0182403 -0.0253401 -0.0103599 0.0194167 -0.0150798 -0.00698339 0.018822 
-0.0253129 -0.0039775 0.0186121 -0.0107529 -0.00365687 0.0181494 -0.0198668 -0.00211416 0.0182937 
-0.0233311 0.00384073 0.0190765 0.0260144 0.00429017 0.0188081 -0.0403489 0.00598291 0.0190276 
0.0358407 0.00533501 0.0188418 -0.0429246 0.00657681 0.0182492 -0.019893 0.00878872 0.0192007 
0.023953 0.00820576 0.0193056 0.0324887 0.00836074 0.0191867 -0.0408092 0.00981999 0.0193942 
0.0234497 0.00978487 0.0189101 -0.00808524 0.0113378 0.0194172 -0.00071691 0.0108932 0.0186501 
0.012949 0.0143048 0.0194496 -0.0231109 0.0157017 0.018339 -0.0408838 0.0159645 0.0188133 
0.00742845 0.0199749 0.0194661 -0.0324762 0.0230005 0.0189399 -0.0436572 0.0238848 0.0193685 
0.0397191 0.0283771 0.018958 0.0040127 0.0314243 0.0194081 -0.0425374 0.0333781 0.0184258 
0.0278529 0.0342296 0.0187675 0.00367032 0.0371324 0.0191685 0.00201585 0.0404036 0.0182674 
-0.0390775 0.0447256 0.0185076 -0.0317519 -0.0446953 0.0203616 0.00849583 -0.0405939 0.0197992 
-0.0289295 -0.0389067 0.0197889 -0.0234086 -0.038644 0.0207524 -0.0195638 -0.0385913 0.0195579 
-0.00338111 -0.0363358 0.0202658 0.0307351 -0.0355434 0.0201873 -0.0179089 -0.0346335 0.0205337 
-0.0210092 -0.0320472 0.019658 0.010226 -0.0308634 0.0204596 0.0156293 -0.0283842 0.0202329 
0.0350196 -0.0250011 0.0202236 0.0210005 -0.0239559 0.0198137 -0.038621 -0.0229432 0.020669 
0.0134129 -0.0192809 0.0199147 0.0204492 -0.0194639 0.0201481 0.0296492 -0.015918 0.0200915 
-0.00710141 -0.0133745 0.0197459 0.00886689 -0.0141191 0.0199878 0.0347312 -0.012978 0.0201222 
0.0253763 -0.011051 0.0198505 0.0218314 -0.00971151 0.0202787 -0.0101373 -0.00698039 0.0201261 
-0.00720807 -0.00608605 0.0202567 0.00127443 -0.000618905 0.0199265 0.0420414 -0.00101026 0.0196275 
-0.0332593 0.000859011 0.020295 0.0189244 0.00254502 0.0197917 -0.027449 0.00511055 0.0199532 
-0.01547 0.00642247 0.0201559 -0.009285 0.00693532 0.0205988 -0.00598638 0.00689803 0.020526 
-0.0408306 0.00999374 0.0195664 0.027557 0.009967 0.019679 -0.0287818 0.014969 0.0195789 
-0.0286532 0.0159811 0.0197023 -0.0161548 0.0159009 0.0204089 -0.00317984 0.0164631 0.019754 
-0.0436896 0.0195853 0.0201398 -0.0363159 0.0185996 0.0195794 -0.0138035 0.0240512 0.020255 
0.021223 0.0244832 0.0203769 -0.0132251 0.0252506 0.0203778 -0.0214233 0.0285543 0.0196098 
0.0337272 0.0324898 0.0196365 0.0380057 0.0324307 0.0196401 -0.00750544 0.0361316 0.0200958 
-0.0379532 0.0399341 0.0206283 0.0170579 0.0421878 0.019971 0.0430506 0.0422314 0.0207695 
0.043014 -0.0343178 0.0211025 -0.0131355 0.00164571 0.0216513 -0.0137512 0.00384646 0.0219425 
0.00418285 0.0112423 0.0211921 0.00976298 0.0163696 0.0213641 -0.0359241 0.0337864 0.0213534 
0.0132394 0.0345575 0.0213309 -0.00785852 0.041878 0.0208469 -0.0190394 0.0446837 0.0212296 
0.0147823 -0.0446949 0.0221544 -0.00682403 -0.0314098 0.0225774 0.0272875 -0.0186725 0.0230887 
0.0386193 -0.00496685 0.0222885 0.0448793 -0.00396119 0.02333 -0.014478 0.0275162 0.0224845 
0.0352883 -0.0103067 0.0245794 0.0127657 -0.00746761 0.0244209 0.039455 -0.000236508 0.0238749 
0.0133448 0.00646544 0.02381 -0.0442311 0.00821601 0.0236948 -0.0122189 0.0175978 0.024566 
-0.0260391 0.0304395 0.0243943 -0.0225361 -0.0441701 0.0248316 0.0242571 -0.0100823 0.0363626 

VERTICES 649 648
OFFSETS vtktypeint64
0 1 2 3 4 5 6 7 8 
9 10 11 12 13 14 15 16 17 
18 19 20 21 22 23 24 25 26 
27 28 29 30 31 32 33 34 35 
36 37 38 39 40 41 42 43 44 
45 46 47 48 49 50 51 52 53 
54 55 56 57 58 59 60 61 62 
63 64 65 66 67 68 69 70 71 
72 73 74 75 76 77 78 79 80 
81 82 83 84 85 86 87 88 89 
90 91 92 93 94 95 96 97 98 
99 100 101 102 103 104 105 106 107 
108 109 110 111 112 113 114 115 116 
117 118 119 120 121 122 123 124 125 
126 127 128 129 130 131 132 133 134 
135 136 137 138 139 140 141 142 143 
144 145 146 147 148 149 150 151 152 
153 154 155 156 157 158 159 160 161 
162 163 164 165 166 167 168 169 170 
171 172 173 174 175 176 177 178 179 
180 181 182 183 184 185 186 187 188 
189 190 191 192 193 194 195 196 197 
198 199 200 201 202 203 204 205 206 
207 208 209 210 211 212 213 214 215 
216 217 218 219 220 221 222 223 224 
225 226 227 228 229 230 231 232 233 
234 235 236 237 238 239 240 241 242 
243 244 245 246 247 248 249 250 251 
252 253 254 255 256 257 258 259 260 
261 262 263 264 265 266 267 268 269 
270 271 272 273 274 275 276 277 278 
279 280 281 282 283 284 285 286 287 
288 289 290 291 292 293 294 295 296 
297 298 299 300 301 302 303 304 305 
306 307 308 309 310 311 312 313 314 
315 316 317 318 319 320 321 322 323 
324 325 326 327 328 329 330 331 332 
333 334 335 336 337 338 339 340 341 
342 343 344 345 346 347 348 349 350 
351 352 353 354 355 356 357 358 359 
360 361 362 363 364 365 366 367 368 
369 370 371 372 373 374 375 376 377 
378 379 380 381 382 383 384 385 386 
387 388 389 390 391 392 393 394 395 
396 397 398 399 400 401 402 403 404 
405 406 407 408 409 410 411 412 413 
414 415 416 417 418 419 420 421 422 
423 424 425 426 427 428 429 430 431 
432 433 434 435 436 437 438 439 440 
441 442 443 444 445 446 447 448 449 
450 451 452 453 454 455 456 457 458 
459 460 461 462 463 464 465 466 467 
468 469 470 471 472 473 474 475 476 
477 478 479 480 481 482 483 484 485 
486 487 488 489 490 491 492 493 494 
495 496 497 498 499 500 501 502 503 
504 505 506 507 508 509 510 511 512 
513 514 515 516 517 518 519 520 521 
522 523 524 525 526 527 528 529 530 
531 532 533 534 535 536 537 538 539 
540 541 542 543 544 545 546 547 548 
549 550 551 552 553 554 555 556 557 
558 559 560 561 562 563 564 565 566 
567 568 569 570 571 572 573 574 575 
576 577 578 579 580 581 582 583 584 
585 586 587 588 589 590 591 592 593 
594 595 596 597 598 599 600 601 602 
603 604 605 606 607 608 609 610 611 
612 613 614 615 616 617 618 619 620 
621 622 623 624 625 626 627 628 629 
630 631 632 633 634 635 636 637 638 
639 640 641 642 643 644 645 646 647 
648 
CONNECTIVITY vtktypeint64
0 1 2 3 4 5 6 7 8 
9 10 11 12 13 14 15 16 17 
18 19 20 21 22 23 24 25 26 
27 28 29 30 31 32 33 34 35 
36 37 38 39 40 41 42 43 44 
45 46 47 48 49 50 51 52 53 
54 55 56 57 58 59 60 61 62 
63 64 65 66 67 68 69 70 71 
72 73 74 75 76 77 78 79 80 
81 82 83 84 85 86 87 88 89 
90 91 92 93 94 95 96 97 98 
99 100 101 102 103 104 105 106 107 
108 109 110 111 112 113 114 115 116 
117 118 119 120 121 122 123 124 125 
126 127 128 129 130 131 132 133 134 
135 136 137 138 139 140 141 142 143 
144 145 146 147 148 149 150 151 152 
153 154 155 156 157 158 159 160 161 
162 163 164 165 166 167 168 169 170 
171 172 173 174 175 176 177 178 179 
180 181 182 183 184 185 186 187 188 
189 190 191 192 193 194 195 196 197 
198 199 200 201 202 203 204 205 206 
207 208 209 210 211 212 213 214 215 
216 217 218 219 220 221 222 223 224 
225 226 227 228 229 230 231 232 233 
234 235 236 237 238 239 240 241 242 
243 244 245 246 247 248 249 250 251 
252 253 254 255 256 257 258 259 260 
261 262 263 264 265 266 267 268 269 
270 271 272 273 274 275 276 277 278 
279 280 281 282 283 284 285 286 287 
288 289 290 291 292 293 294 295 296 
297 298 299 300 301 302 303 304 305 
306 307 308 309 310 311 312 313 314 
315 316 317 318 319 320 321 322 323 
324 325 326 327 328 329 330 331 332 
333 334 335 336 337 338 339 340 341 
342 343 344 345 346 347 348 349 350 
351 352 353 354 355 356 357 358 359 
360 361 362 363 364 365 366 367 368 
369 370 371 372 373 374 375 376 377 
378 379 380 381 382 383 384 385 386 
387 388 389 390 391 392 393 394 395 
396 397 398 399 400 401 402 403 404 
405 406 407 408 409 410 411 412 413 
414 415 416 417 418 419 420 421 422 
423 424 425 426 427 428 429 430 431 
432 433 434 435 436 437 438 439 440 
441 442 443 444 445 446 447 448 449 
450 451 452 453 454 455 456 457 458 
459 460 461 462 463 464 465 466 467 
468 469 470 471 472 473 474 475 476 
477 478 479 480 481 482 483 484 485 
486 487 488 489 490 491 492 493 494 
495 496 497 498 499 500 501 502 503 
504 505 506 507 508 509 510 511 512 
513 514 515 516 517 518 519 520 521 
522 523 524 525 526 527 528 529 530 
531 532 533 534 535 536 537 538 539 
540 541 542 543 544 545 546 547 548 
549 550 551 552 553 554 555 556 557 
558 559 560 561 562 563 564 565 566 
567 568 569 570 571 572 573 574 575 
576 577 578 579 580 581 582 583 584 
585 586 587 588 589 590 591 592 593 
594 595 596 597 598 599 600 601 602 
603 604 605 606 607 608 609 610 611 
612 613 614 615 616 617 618 619 620 
621 622 623 624 625 626 627 628 629 
630 631 632 633 634 635 636 637 638 
639 640 641 642 643 644 645 646 647 

POINT_DATA 648
FIELD FieldData 12
id 1 648 int
470 444 297 506 246 386 164 508 92 
459 115 404 304 185 640 331 190 317 
154 289 106 292 428 293 72 383 370 
57 642 132 66 465 36 175 641 418 
458 407 396 450 214 432 169 322 150 
491 310 433 339 166 49 18 219 195 
85 362 372 463 200 134 51 347 636 
107 137 291 627 267 282 355 176 231 
621 86 478 456 467 423 197 110 149 
163 26 327 270 356 88 238 439 381 
215 644 127 336 515 385 631 353 261 
288 521 646 412 366 218 632 207 24 
58 227 6 125 255 60 619 40 189 
187 624 318 643 648 87 35 34 367 
584 303 64 237 247 324 602 243 647 
83 186 129 165 373 202 308 193 364 
158 201 253 29 320 328 62 457 256 
626 128 121 479 440 168 483 157 11 
630 401 582 280 609 504 488 611 148 
600 233 606 346 140 562 226 543 352 
629 645 574 472 496 73 612 260 608 
299 567 257 542 341 538 334 601 633 
625 588 12 100 408 461 321 343 268 
251 635 597 577 605 571 634 294 604 
71 167 174 572 290 349 427 399 615 
368 263 592 610 568 598 56 593 141 
546 454 420 345 273 620 469 392 417 
117 337 14 507 162 410 583 348 155 
435 91 108 406 272 639 614 98 188 
31 314 22 489 319 229 589 570 505 
333 445 409 415 603 500 628 563 42 
360 135 204 565 90 495 426 556 424 
112 595 622 607 109 637 199 509 222 
94 579 552 232 437 575 361 351 275 
534 113 390 591 429 99 326 411 122 
82 616 581 578 274 298 618 590 374 
194 380 8 599 638 544 617 248 569 
75 61 503 486 126 338 21 446 384 
46 220 443 514 529 330 104 9 535 
114 623 182 76 586 302 55 438 84 
159 436 69 477 139 502 13 183 541 
449 576 160 573 28 553 143 240 211 
585 554 311 95 32 580 377 564 196 
613 216 497 181 262 378 236 178 560 
587 54 118 447 161 357 33 287 254 
498 30 451 594 596 419 235 198 559 
413 536 555 375 475 414 203 271 549 
344 518 5 295 103 533 548 96 484 
526 547 539 551 170 537 306 59 146 
566 16 264 53 10 278 557 252 20 
382 151 244 545 474 528 400 119 63 
358 184 561 138 431 279 520 206 81 
550 387 313 309 531 397 89 93 68 
52 102 487 350 156 250 393 147 527 
532 493 116 79 223 416 192 323 329 
111 403 25 558 462 74 460 530 38 
511 105 142 371 205 217 265 208 519 
305 144 17 395 363 325 394 266 524 
540 481 65 225 286 45 523 342 258 
471 359 388 239 525 354 430 513 177 
517 376 276 43 23 522 285 171 405 
212 379 501 153 301 124 510 145 4 
296 442 221 41 70 315 281 130 191 
179 332 455 421 482 123 476 242 136 
312 173 210 67 492 402 307 283 120 
335 234 37 44 448 422 490 441 259 
340 101 39 224 365 80 389 77 284 
245 425 213 453 480 48 228 468 473 
152 485 97 78 131 209 180 466 452 
249 434 19 47 499 300 464 15 494 
391 277 172 241 398 516 133 50 369 
3 27 2 512 316 7 269 230 1 

type 1 648 int
1 1 1 1 1 1 1 1 1 
1 1 1 1 1 1 1 1 1 
1 1 1 1 1 1 1 1 1 
1 1 1 1 1 1 1 1 1 
1 1 1 1 1 1 1 1 1 
1 1 1 1 1 1 1 1 1 
1 1 1 1 1 1 1 1 1 
1 1 1 1 1 1 1 1 1 
1 1 1 1 1 1 1 1 1 
1 1 1 1 1 1 1 1 1 
1 1 1 1 1 1 1 1 1 
1 1 1 1 1 1 1 1 1 
1 1 2 1 1 1 1 1 1 
1 1 1 1 1 1 1 1 1 
1 1 1 1 1 1 1 1 1 
1 1 1 1 1 1 1 1 1 
1 1 1 1 1 1 1 1 1 
1 1 1 1 1 1 1 1 2 
1 1 1 1 1 1 1 1 1 
1 1 1 1 1 1 1 1 1 
1 1 1 1 1 1 1 1 1 
1 1 1 1 1 1 1 1 1 
1 1 2 1 1 1 1 1 1 
1 1 1 1 1 1 2 1 1 
1 1 1 1 1 1 1 1 1 
1 1 1 1 1 1 1 1 1 
1 1 1 1 1 1 1 1 1 
1 1 2 1 1 1 1 1 1 
1 1 1 1 1 1 1 1 1 
1 1 1 1 1 1 1 1 1 
1 1 1 1 1 1 1 1 1 
1 1 1 1 1 1 1 1 1 
1 1 1 1 1 1 1 1 1 
1 1 1 1 1 1 1 1 1 
1 1 1 1 1 1 1 1 1 
1 1 1 1 1 1 1 1 1 
1 1 2 1 1 1 1 1 1 
1 1 1 1 1 1 1 1 1 
1 1 1 1 1 1 1 2 1 
1 1 1 1 1 1 1 1 1 
1 1 1 1 1 1 2 1 1 
1 1 1 1 1 1 1 1 1 
1 1 1 1 1 1 1 1 1 
1 1 1 1 1 1 1 1 1 
1 1 1 1 1 1 1 1 1 
1 1 1 1 1 1 1 1 1 
1 1 1 1 1 1 1 1 1 
1 1 2 1 1 1 1 1 1 
1 1 1 1 1 1 1 1 1 
1 2 1 1 2 1 1 1 1 
1 1 1 1 1 1 1 1 1 
1 1 1 1 1 1 1 1 1 
1 1 1 1 1 1 1 1 1 
1 1 1 1 1 1 1 1 1 
1 1 1 1 1 1 1 1 1 
1 1 1 1 1 1 1 1 1 
1 1 1 1 1 1 1 1 1 
1 1 1 1 1 1 1 1 1 
1 1 1 1 1 1 1 1 1 
1 1 1 1 1 1 1 1 1 
1 1 1 1 1 1 1 1 1 
1 1 1 1 1 1 1 1 2 
1 1 1 1 1 1 1 1 1 
1 1 1 1 1 1 1 1 1 
1 1 1 1 1 1 1 1 1 
1 1 1 1 1 1 1 1 1 
1 1 1 1 1 1 1 1 1 
1 1 1 1 1 1 1 1 1 
1 1 1 1 1 1 1 1 1 
1 1 1 1 1 1 1 2 1 
1 1 1 1 1 2 1 1 1 
2 1 3 2 1 2 1 1 4 

i 3 648 int
0 0 0 0 0 0 0 0 0 
0 0 0 0 0 0 0 0 0 
0 0 0 0 0 0 0 0 0 
0 0 0 0 0 0 0 0 0 
0 0 0 0 0 0 0 0 0 
0 0 0 0 0 0 0 0 0 
0 0 0 0 0 0 0 0 0 
0 0 0 0 0 0 0 0 0 
0 0 0 0 0 0 0 0 0 
0 0 0 0 0 0 0 0 0 
0 0 0 0 0 0 0 0 0 
0 0 0 0 0 0 0 0 0 
0 0 0 0 0 0 0 0 0 
0 0 0 0 0 0 0 0 0 
0 0 0 0 0 0 0 0 0 
0 0 0 0 0 0 0 0 0 
0 0 0 0 0 0 0 0 0 
0 0 0 0 0 0 0 0 0 
0 0 0 0 0 0 0 0 0 
0 0 0 0 0 0 0 0 0 
0 0 0 0 0 0 0 0 0 
0 0 0 0 0 0 0 0 0 
0 0 0 0 0 0 0 0 0 
0 0 0 0 0 0 0 0 0 
0 0 0 0 0 0 0 0 0 
0 0 0 0 0 0 0 0 0 
0 0 0 0 0 0 0 0 0 
0 0 0 0 0 0 0 0 0 
0 0 0 0 0 0 0 0 0 
0 0 0 0 0 0 0 0 0 
0 0 0 0 0 0 0 0 0 
0 0 0 0 0 0 0 0 0 
0 0 0 0 0 0 0 0 0 
0 0 0 0 0 0 0 0 0 
0 0 0 0 0 0 0 0 0 
0 0 0 0 0 0 0 0 0 
0 0 0 0 0 0 0 0 0 
0 0 0 0 0 0 0 0 0 
0 0 0 0 0 0 0 0 0 
0 0 0 0 0 0 0 0 0 
0 0 0 0 0 0 0 0 0 
0 0 0 0 0 0 0 0 0 
0 0 0 0 0 0 0 0 0 
0 0 0 0 0 0 0 0 0 
0 0 0 0 0 0 0 0 0 
0 0 0 0 0 0 0 0 0 
0 0 0 0 0 0 0 0 0 
0 0 0 0 0 0 0 0 0 
0 0 0 0 0 0 0 0 0 
0 0 0 0 0 0 0 0 0 
0 0 0 0 0 0 0 0 0 
0 0 0 0 0 0 0 0 0 
0 0 0 0 0 0 0 0 0 
0 0 0 0 0 0 0 0 0 
0 0 0 0 0 0 0 0 0 
0 0 0 0 0 0 0 0 0 
0 0 0 0 0 0 0 0 0 
0 0 0 0 0 0 0 0 0 
0 0 0 0 0 0 0 0 0 
0 0 0 0 0 0 0 0 0 
0 0 0 0 0 0 0 0 0 
0 0 0 0 0 0 0 0 0 
0 0 0 0 0 0 0 0 0 
0 0 0 0 0 0 0 0 0 
0 0 0 0 0 0 0 0 0 
0 0 0 0 0 0 0 0 0 
0 0 0 0 0 0 0 0 0 
0 0 0 0 0 0 0 0 0 
0 0 0 0 0 0 0 0 0 
0 0 0 0 0 0 0 0 0 
0 0 0 0 0 0 0 0 0 
0 0 0 0 0 0 0 0 0 
0 0 0 0 0 0 0 0 0 
0 0 0 0 0 0 0 0 0 
0 0 0 0 0 0 0 0 0 
0 0 0 0 0 0 0 0 0 
0 0 0 0 0 0 0 0 0 
0 0 0 0 0 0 0 0 0 
0 0 0 0 0 0 0 0 0 
0 0 0 0 0 0 0 0 0 
0 0 0 0 0 0 0 0 0 
0 0 0 0 0 0 0 0 0 
0 0 0 0 0 0 0 0 0 
0 0 0 0 0 0 0 0 0 
0 0 0 0 0 0 0 0 0 
0 0 0 0 0 0 0 0 0 
0 0 0 0 0 0 0 0 0 
0 0 0 0 0 0 0 0 0 
0 0 0 0 0 0 0 0 0 
0 0 0 0 0 0 0 0 0 
0 0 0 0 0 0 0 0 0 
0 0 0 0 0 0 0 0 0 
0 0 0 0 0 0 0 0 0 
0 0 0 0 0 0 0 0 0 
0 0 0 0 0 0 0 0 0 
0 0 0 0 0 0 0 0 0 
0 0 0 0 0 0 0 0 0 
0 0 0 0 0 0 0 0 0 
0 0 0 0 0 0 0 0 0 
0 0 0 0 0 0 0 0 0 
0 0 0 0 0 0 0 0 0 
0 0 0 0 0 0 0 0 0 
0 0 0 0 0 0 0 0 0 
0 0 0 0 0 0 0 0 0 
0 0 0 0 0 0 0 0 0 
0 0 0 0 0 0 0 0 0 
0 0 0 0 0 0 0 0 0 
0 0 0 0 0 0 0 0 0 
0 0 0 0 0 0 0 0 0 
0 0 0 0 0 0 0 0 0 
0 0 0 0 0 0 0 0 0 
0 0 0 0 0 0 0 0 0 
0 0 0 0 0 0 0 0 0 
0 0 0 0 0 0 0 0 0 
0 0 0 0 0 0 0 0 0 
0 0 0 0 0 0 0 0 0 
0 0 0 0 0 0 0 0 0 
0 0 0 0 0 0 0 0 0 
0 0 0 0 0 0 0 0 0 
0 0 0 0 0 0 0 0 0 
0 0 0 0 0 0 0 0 0 
0 0 0 0 0 0 0 0 0 
0 0 0 0 0 0 0 0 0 
0 0 0 0 0 0 0 0 0 
0 0 0 0 0 0 0 0 0 
0 0 0 0 0 0 0 0 0 
0 0 0 0 0 0 0 0 0 
0 0 0 0 0 0 0 0 0 
0 0 0 0 0 0 0 0 0 
0 0 0 0 0 0 0 0 0 
0 0 0 0 0 0 0 0 0 
0 0 0 0 0 0 0 0 0 
0 0 0 0 0 0 0 0 0 
0 0 0 0 0 0 0 0 0 
0 0 0 0 0 0 0 0 0 
0 0 0 0 0 0 0 0 0 
0 0 0 0 0 0 0 0 0 
0 0 0 0 0 0 0 0 0 
0 0 0 0 0 0 0 0 0 
0 0 0 0 0 0 0 0 0 
0 0 0 0 0 0 0 0 0 
0 0 0 0 0 0 0 0 0 
0 0 0 0 0 0 0 0 0 
0 0 0 0 0 0 0 0 0 
0 0 0 0 0 0 0 0 0 
0 0 0 0 0 0 0 0 0 
0 0 0 0 0 0 0 0 0 
0 0 0 0 0 0 0 0 0 
0 0 0 0 0 0 0 0 0 
0 0 0 0 0 0 0 0 0 
0 0 0 0 0 0 0 0 0 
0 0 0 0 0 0 0 0 0 
0 0 0 0 0 0 0 0 0 
0 0 0 0 0 0 0 0 0 
0 0 0 0 0 0 0 0 0 
0 0 0 0 0 0 0 0 0 
0 0 0 0 0 0 0 0 0 
0 0 0 0 0 0 0 0 0 
0 0 0 0 0 0 0 0 0 
0 0 0 0 0 0 0 0 0 
0 0 0 0 0 0 0 0 0 
0 0 0 0 0 0 0 0 0 
0 0 0 0 0 0 0 0 0 
0 0 0 0 0 0 0 0 0 
0 0 0 0 0 0 0 0 0 
0 0 0 0 0 0 0 0 0 
0 0 0 0 0 0 0 0 0 
0 0 0 0 0 0 0 0 0 
0 0 0 0 0 0 0 0 0 
0 0 0 0 0 0 0 0 0 
0 0 0 0 0 0 0 0 0 
0 0 0 0 0 0 0 0 0 
0 0 0 0 0 0 0 0 0 
0 0 0 0 0 0 0 0 0 
0 0 0 0 0 0 0 0 0 
0 0 0 0 0 0 0 0 0 
0 0 0 0 0 0 0 0 0 
0 0 0 0 0 0 0 0 0 
0 0 0 0 0 0 0 0 0 
0 0 0 0 0 0 0 0 0 
0 0 0 0 0 0 0 0 0 
0 0 0 0 0 0 0 0 0 
0 0 0 0 0 0 0 0 0 
0 0 0 0 0 0 0 0 0 
0 0 0 0 0 0 0 0 0 
0 0 0 0 0 0 0 0 0 
0 0 0 0 0 0 0 0 0 
0 0 0 0 0 0 0 0 0 
0 0 0 0 0 0 0 0 0 
0 0 0 0 0 0 0 0 0 
0 0 0 0 0 0 0 0 0 
0 0 0 0 0 0 0 0 0 
0 0 0 0 0 0 0 0 0 
0 0 0 0 0 0 0 0 0 
0 0 0 0 0 0 0 0 0 
0 0 0 0 0 0 0 0 0 
0 0 0 0 0 0 0 0 0 
0 0 0 0 0 0 0 0 0 
0 0 0 0 0 0 0 0 0 
0 0 0 0 0 0 0 0 0 
0 0 0 0 0 0 0 0 0 
0 0 0 0 0 0 0 0 0 
0 0 0 0 0 0 0 0 0 
0 0 0 0 0 0 0 0 0 
0 0 0 0 0 0 0 0 0 
0 0 0 0 0 0 0 0 0 
0 0 0 0 0 0 0 0 0 
0 0 0 0 0 0 0 0 0 
0 0 0 0 0 0 0 0 0 
0 0 0 0 0 0 0 0 0 
0 0 0 0 0 0 0 0 0 
0 0 0 0 0 0 0 0 0 
0 0 0 0 0 0 0 0 0 
0 0 0 0 0 0 0 0 0 
0 0 0 0 0 0 0 0 0 
0 0 0 0 0 0 0 0 0 

v 3 648 double
0 0 0.059593519723 0 0 0.073912384483 0 0 0.064923294285 
0 0 0.067955445929 0 0 0.061923431187 0 0 0.071937521093 
0 0 0.014990177855 0 0 -0.1686766083 0 0 0.042162886116 
0 0 0.064635381499 0 0 0.001982567247 0 0 -0.17499089817 
0 0 0.052804650856 0 0 0.01725497278 0 0 0.26917939355 
0 0 -0.17924700625 0 0 0.037532210453 0 0 -0.17713992948 
0 0 0.060645183821 0 0 -0.18482605129 0 0 0.051174038052 
0 0 -0.17622346291 0 0 -0.19667179957 0 0 0.035310180373 
0 0 0.016855251306 0 0 0.0048487812831 0 0 0.0458786614 
0 0 -0.0054426876107 0 0 -0.66562418749 0 0 -0.17825028642 
0 0 -0.17637732366 0 0 0.0042862488621 0 0 -0.17880442325 
0 0 0.061720710347 0 0 0.22285242398 0 0 0.03337833745 
0 0 0.04334169494 0 0 0.046814329405 0 0 0.014585226721 
0 0 0.032680909323 0 0 0.035009532603 0 0 -0.17347773825 
0 0 0.022735346073 0 0 -0.18262277996 0 0 0.040629174139 
0 0 0.029323794707 0 0 0.05447074104 0 0 0.032365024831 
0 0 0.04578923371 0 0 0.039387179788 0 0 0.049928404008 
0 0 0.015705258516 0 0 0.035393635052 0 0 0.016409702493 
0 0 -0.17439087575 0 0 0.051428611178 0 0 0.056190536617 
0 0 -0.1620277083 0 0 -0.19501039917 0 0 -0.19434250178 
0 0 -0.16076650747 0 0 -0.1682417744 0 0 0.23772496973 
0 0 -0.19292135678 0 0 -0.16322732613 0 0 -0.18998360654 
0 0 0.24000738299 0 0 -0.16049418105 0 0 -0.17807146881 
0 0 -0.16600568169 0 0 -0.18665662324 0 0 -0.19500614554 
0 0 0.24147556041 0 0 -0.18612747637 0 0 -0.16588565881 
0 0 -0.16900996212 0 0 -0.16570362631 0 0 -0.18915673085 
0 0 -0.19355092142 0 0 -0.16135125166 0 0 -0.18770119397 
0 0 -0.1613962331 0 0 -0.19160546146 0 0 -0.16644776032 
0 0 -0.1932431149 0 0 -0.18529512028 0 0 -0.18374806176 
0 0 -0.14989767749 0 0 -0.1597481372 0 0 -0.18054225152 
0 0 -0.17962350927 0 0 0.21637265905 0 0 -0.18428747862 
0 0 -0.17960005798 0 0 -0.13378112488 0 0 -0.18008178279 
0 0 0.224442768 0 0 -0.17676210715 0 0 -0.15345621331 
0 0 -0.14843828755 0 0 -0.13370406784 0 0 0.21695462169 
0 0 -0.16033251934 0 0 -0.17051862931 0 0 -0.13948209892 
0 0 0.19964033454 0 0 -0.15494111258 0 0 -0.14062280207 
0 0 -0.16908838286 0 0 -0.14802002595 0 0 -0.18094414438 
0 0 -0.16971879099 0 0 -0.13849645832 0 0 -0.14994128114 
0 0 0.20670941911 0 0 -0.15051873049 0 0 -0.17392135742 
0 0 -0.17306135291 0 0 0.18835696469 0 0 -0.14758449697 
0 0 0.16523618889 0 0 0.19259636663 0 0 -0.16387897486 
0 0 -0.13357814994 0 0 -0.13195066064 0 0 -0.1588788379 
0 0 0.16281777323 0 0 -0.14238096714 0 0 -0.12941618286 
0 0 -0.16775857505 0 0 -0.170896644 0 0 -0.13892502168 
0 0 0.20965792434 0 0 -0.1292782845 0 0 0.19244064817 
0 0 -0.16105890065 0 0 -0.1570207402 0 0 -0.12746251215 
0 0 -0.1688604314 0 0 -0.16870188129 0 0 -0.12935072519 
0 0 -0.12520686408 0 0 -0.16562698234 0 0 -0.16615145292 
0 0 -0.16265414341 0 0 -0.12841811914 0 0 -0.16406162176 
0 0 -0.16376746967 0 0 -0.12865798683 0 0 -0.13724515876 
0 0 -0.12776404199 0 0 -0.1548437566 0 0 -0.14982809341 
0 0 0.11033415046 0 0 -0.11324964467 0 0 -0.128921865 
0 0 -0.12374037539 0 0 -0.1561384855 0 0 -0.13005664411 
0 0 -0.15451915757 0 0 -0.12291173018 0 0 -0.16379424314 
0 0 0.20818695153 0 0 -0.12165296832 0 0 0.15567273284 
0 0 -0.15475089396 0 0 0.1894151708 0 0 -0.11548240526 
0 0 -0.15082943496 0 0 0.15534416271 0 0 -0.11908034487 
0 0 0.15233637585 0 0 -0.14712734056 0 0 0.20553446253 
0 0 -0.10604222694 0 0 -0.11441310589 0 0 -0.038565027179 
0 0 -0.11316928212 0 0 -0.054596949808 0 0 -0.10458372714 
0 0 0.15506548616 0 0 0.034458953287 0 0 0.12506979815 
0 0 -0.10765320104 0 0 -0.14157200841 0 0 -0.14695520765 
0 0 -0.0085969554907 0 0 -0.10128926892 0 0 0.19461827241 
0 0 -0.10232931626 0 0 -0.042984832079 0 0 -0.10529717749 
0 0 -0.071092206466 0 0 -0.11478395726 0 0 -0.061924899532 
0 0 -0.10182505477 0 0 -0.028660437887 0 0 0.084888565512 
0 0 0.17950854909 0 0 0.22274217133 0 0 -0.16106648684 
0 0 -0.1438822975 0 0 -0.14169505835 0 0 -0.10008397835 
0 0 -0.13619675843 0 0 -0.10780057624 0 0 -0.10309291378 
0 0 -0.10719536244 0 0 0.14493476474 0 0 0.079205475676 
0 0 -0.0034242680006 0 0 0.015017324033 0 0 -0.024876583468 
0 0 0.18833423907 0 0 -0.094060907761 0 0 0.04708746035 
0 0 -0.086661852875 0 0 -0.13184377086 0 0 -0.11118772613 
0 0 0.0055639005468 0 0 -0.12522921003 0 0 -0.12801950193 
0 0 -0.1332780095 0 0 -0.12467502527 0 0 0.013260721953 
0 0 -0.091673198036 0 0 -0.12607390082 0 0 0.0031796332424 
0 0 0.17804376206 0 0 0.17372759914 0 0 0.080974931373 
0 0 -0.098104608418 0 0 0.055387948852 0 0 -0.11537978303 
0 0 -0.028760048513 0 0 -0.13314753511 0 0 -0.094982895952 
0 0 -0.090781848512 0 0 -0.088026929762 0 0 0.1501958262 
0 0 -0.10292322011 0 0 -0.098440130292 0 0 -0.13372520503 
0 0 -0.088497358592 0 0 -0.12554439647 0 0 -0.1470686193 
0 0 -0.064895734196 0 0 -0.1345320344 0 0 -0.13351212531 
0 0 0.06354809606 0 0 -0.090890992594 0 0 -0.13170693911 
0 0 -0.13530147087 0 0 -0.12575332335 0 0 -0.094704970249 
0 0 -0.13286900988 0 0 -0.10285599558 0 0 0.1451421594 
0 0 0.07216255015 0 0 -0.11320532222 0 0 -0.11894663487 
0 0 -0.069203013155 0 0 -0.11562097544 0 0 -0.12543083726 
0 0 -0.069064046249 0 0 -0.1196625661 0 0 -0.12153397984 
0 0 -0.015469299436 0 0 0.011635149222 0 0 -0.10650362579 
0 0 -0.081307417449 0 0 -0.074488256021 0 0 -0.11803446601 
0 0 -0.11316972007 0 0 0.1407941842 0 0 -0.12564700302 
0 0 0.093806806193 0 0 0.013829070161 0 0 -0.084418526804 
0 0 -0.078525530546 0 0 -0.076331446769 0 0 -0.077036290826 
0 0 0.026103672561 0 0 -0.1166007758 0 0 -0.11256014289 
0 0 -0.074645208203 0 0 0.097739927595 0 0 -0.11677106989 
0 0 -0.1160252357 0 0 0.12747642312 0 0 0.10990362731 
0 0 0.13373288653 0 0 -0.085847251827 0 0 0.10873792606 
0 0 -0.11954781145 0 0 -0.049021108065 0 0 -0.11707354739 
0 0 -0.085781696007 0 0 0.052267056615 0 0 0.075868994424 
0 0 -0.085653016146 0 0 -0.10546415407 0 0 0.15340902464 
0 0 -0.080482359615 0 0 -0.11687574307 0 0 -0.09986784492 
0 0 0.043556882671 0 0 -0.096914024839 0 0 -0.10146235777 
0 0 -0.0071608675386 0 0 -0.10001824919 0 0 -0.049864709046 
0 0 -0.11466960313 0 0 -0.11369914998 0 0 -0.096578180773 
0 0 -0.06167154627 0 0 0.064489989091 0 0 0.1295357554 
0 0 0.12254475184 0 0 -0.055590886422 0 0 -0.10750053766 
0 0 0.10813934535 0 0 0.14732776322 0 0 -0.056016348123 
0 0 -0.055070678771 0 0 -0.066646441942 0 0 -0.13137934997 
0 0 0.09763754389 0 0 0.055394168483 0 0 0.14818133856 
0 0 0.11023588532 0 0 -0.10790051405 0 0 0.12332073728 
0 0 -0.10020063446 0 0 -0.099671893365 0 0 -0.049981449507 
0 0 -0.10427810733 0 0 -0.062460886878 0 0 -0.064387228527 
0 0 -0.11512410622 0 0 -0.097447967861 0 0 -0.10825987078 
0 0 -0.048958082801 0 0 -0.04815493373 0 0 -0.056383396898 
0 0 0.0061810674257 0 0 -0.067271252394 0 0 -0.10682691482 
0 0 -0.11087589795 0 0 -0.13454776837 0 0 0.064420665235 
0 0 -0.059416933119 0 0 0.083576765672 0 0 -0.066726385161 
0 0 -0.10528352996 0 0 0.1087978567 0 0 -0.059559391885 
0 0 -0.061204017912 0 0 -0.05730492494 0 0 -0.087185656959 
0 0 -0.041832210601 0 0 -0.053854298561 0 0 -0.039457889427 
0 0 -0.082677262556 0 0 -0.056514369669 0 0 -0.036765426614 
0 0 -0.12045978661 0 0 -0.096488991768 0 0 0.11697687259 
0 0 -0.053358543364 0 0 0.019734111818 0 0 -0.049159271791 
0 0 0.067338731405 0 0 -0.083706998679 0 0 -0.010517162673 
0 0 -0.047985030034 0 0 -0.10142276441 0 0 -0.088220818096 
0 0 0.10416866317 0 0 0.10071176501 0 0 -0.085064074109 
0 0 -0.024653848693 0 0 -0.099175535899 0 0 0.011440175257 
0 0 -0.08848512013 0 0 0.01831174555 0 0 -0.086250834741 
0 0 0.083865251535 0 0 -0.082797340867 0 0 -0.041400083902 
0 0 -0.053681953682 0 0 -0.034386535201 0 0 -0.093009183123 
0 0 -0.095315169254 0 0 -0.086430072425 0 0 0.08151794258 
0 0 0.0041825179033 0 0 -0.1040130442 0 0 -0.038594805189 
0 0 -0.095509697116 0 0 -0.098460142623 0 0 -0.10321580423 
0 0 -0.046537743925 0 0 -0.093713563287 0 0 -0.058031120467 
0 0 -0.089651233811 0 0 -0.10397667782 0 0 -0.089745990923 
0 0 0.088177644905 0 0 0.066103342315 0 0 -0.024627801231 
0 0 -0.02011362291 0 0 -0.092617454133 0 0 -0.032565642541 
0 0 -0.048279521568 0 0 -0.03812940739 0 0 0.12501672213 
0 0 -0.09118984143 0 0 -0.084706732093 0 0 -0.070601667178 
0 0 -0.023830361674 0 0 -0.081898336741 0 0 0.0058291536377 
0 0 -0.030132698784 0 0 0.0060926829827 0 0 -0.10576762386 
0 0 -0.079929039634 0 0 -0.036089364488 0 0 0.019666155459 
0 0 0.079516600746 0 0 -0.091766428516 0 0 -0.091094069236 
0 0 -0.020749333562 0 0 0.028960789069 0 0 0.063033358196 
0 0 0.020629438053 0 0 -0.065937918535 0 0 0.11470928964 
0 0 -0.021596360858 0 0 -0.073144586508 0 0 -0.070916750626 
0 0 0.022619029516 0 0 -0.10085246025 0 0 -0.013391889722 
0 0 -0.06435121218 0 0 -0.11710236311 0 0 -0.077136489759 
0 0 0.077379102815 0 0 -0.064288490112 0 0 -0.071217931822 
0 0 -0.017348448932 0 0 -0.074469948687 0 0 -0.06598570025 
0 0 0.033374391257 0 0 -0.081114039245 0 0 0.0016935583248 
0 0 -0.01861188353 0 0 -0.0807846747 0 0 -0.073669107449 
0 0 -0.028623727513 0 0 -0.010766503673 0 0 0.071391868484 
0 0 -0.047896366093 0 0 -0.067032145425 0 0 -0.06184803245 
0 0 -0.035279683405 0 0 -0.066368881577 0 0 -0.079821514949 
0 0 0.064485644145 0 0 -0.030445568862 0 0 -0.08155074664 
0 0 -0.038927367985 0 0 0.10907468463 0 0 -0.070664347118 
0 0 -0.053723866658 0 0 -0.049467096053 0 0 -0.046578277835 
0 0 -0.061789961392 0 0 -0.065167304822 0 0 -0.058631094579 
0 0 -0.040984849706 0 0 -0.047392165951 0 0 -0.058879028129 
0 0 -0.06041735652 0 0 -0.041300150519 0 0 0.030002923551 
0 0 0.032981577643 0 0 -0.055803781092 0 0 -0.045472961421 
0 0 -0.058032393875 0 0 -0.077836516283 0 0 -0.05829273487 
0 0 -0.011202645983 0 0 -0.056250336796 0 0 -0.062716645386 
0 0 -0.069620899348 0 0 -0.048764520801 0 0 -0.048377028416 
0 0 0.072690587053 0 0 -0.056213985423 0 0 -0.060135708585 
0 0 -0.043351620114 0 0 0.065664143017 0 0 -0.056183791808 
0 0 -0.023436749154 0 0 -0.048486965142 0 0 -0.060865032229 
0 0 -0.051966310253 0 0 -0.060016026896 0 0 -0.051416912133 
0 0 -0.058544768858 0 0 -0.064763909128 0 0 -0.018718043719 
0 0 -0.04390121208 0 0 -0.055983925605 0 0 -0.061927083038 
0 0 -0.066358388319 0 0 -0.058103156156 0 0 -0.055206198331 
0 0 -0.063853715064 0 0 -0.044803857234 0 0 0.014317765594 
0 0 0.038283270976 0 0 -0.049830758932 0 0 -0.06190373409 
0 0 -0.052444981 0 0 -0.046798818633 0 0 -0.066504238177 
0 0 0.0072742658703 0 0 -0.055052368512 0 0 -0.018553748666 
0 0 -0.030867289041 0 0 -0.02501134724 0 0 -0.013225434047 
0 0 -0.052852753115 0 0 0.038673346865 0 0 -0.031199680629 
0 0 -0.0354900221 0 0 0.034485472238 0 0 -0.016426130014 
0 0 0.031631470288 0 0 -0.030386501178 0 0 -0.032210091431 
0 0 -0.043162498698 0 0 -0.01605533198 0 0 -0.0040622243552 
0 0 -0.036792010342 0 0 -0.055779505986 0 0 -0.0427574031 
0 0 -0.032395546932 0 0 -0.043354098 0 0 -0.015304114837 
0 0 -0.027180718441 0 0 -0.044203352668 0 0 -0.030371489687 
0 0 0.057155942567 0 0 -0.019855511049 0 0 -0.08476741923 
0 0 -0.02881637772 0 0 -0.025498830814 0 0 -0.033438277241 
0 0 -0.016573907066 0 0 -0.039983623194 0 0 -0.027803553039 
0 0 -0.033770133389 0 0 -0.035019458334 0 0 -0.015448029905 
0 0 -0.0300845381 0 0 -0.020100939837 0 0 -0.0440955178 
0 0 -0.039607513612 0 0 -0.027673854188 0 0 -0.048977227945 
0 0 -0.033874707043 0 0 -0.0019376403485 0 0 -0.018085047336 
0 0 -0.0074553435315 0 0 0.0088240027003 0 0 -0.021327985182 
0 0 0.011364873702 0 0 0.0070609908829 0 0 -0.0019836653921 
0 0 -0.012282650471 0 0 0.0047740719126 0 0 0.00017618535259 
0 0 -0.031932242507 0 0 -0.010407178178 0 0 0.012593089767 
0 0 -0.0054436210866 0 0 -0.027248513458 0 0 -0.0025906820493 
0 0 -0.0062040890517 0 0 -0.01319148518 0 0 0.00072726064696 
0 0 -0.021217946381 0 0 0.0025748549819 0 0 0.0047118245095 
0 0 0.0076076539301 0 0 -0.00067012048907 0 0 -0.014701406728 
0 0 0.00062343547335 0 0 -0.02354574379 0 0 -0.008691299266 
0 0 -0.008405810898 0 0 -0.03770936001 0 0 -0.033150771643 
0 0 -0.023924840433 0 0 -0.022452414567 0 0 -0.010344066412 
0 0 -0.0076520573056 0 0 0.00071809779554 0 0 -0.0055396040179 
0 0 0.0032752301445 0 0 -0.010270576423 0 0 0.0017456699464 
0 0 -0.044336384258 0 0 -0.00050689571477 0 0 -0.011670965969 
0 0 -0.022521792795 0 0 -0.026097024009 0 0 -0.0070487195915 
0 0 0.011365553033 0 0 -0.013446435529 0 0 0.013563114278 
0 0 -0.0039438027259 0 0 -0.0038793388592 0 0 -0.0054588141221 
0 0 0.0097527130119 0 0 -0.062700735574 0 0 0.0076964176682 
0 0 0.0088101033899 0 0 0.013289472105 0 0 0.0094110808197 
0 0 0.023128965079 0 0 0.01270047774 0 0 0.035563904819 
0 0 0.021906345079 0 0 -0.0021738261183 0 0 0.027299545498 
0 0 0.0054665921731 0 0 0.035865859411 0 0 -0.063430534954 
0 0 0.10567913992 0 0 0.0036734031428 0 0 0.0066591461997 
0 0 0.02736767595 0 0 0.03925466104 0 0 0.056629954216 

f 3 648 double
0 0 -1.7425367252e-10 0 0 -1.7425367252e-10 0 0 -1.7425367252e-10 
0 0 -1.7425367252e-10 0 0 -1.7425367252e-10 0 0 -1.7425367252e-10 
0 0 -1.7425367252e-10 0 0 -1.7425367252e-10 0 0 -1.7425367252e-10 
0 0 -1.7425367252e-10 0 0 -1.7425367252e-10 0 0 -1.7425367252e-10 
0 0 -1.7425367252e-10 0 0 -1.7425367252e-10 0 0 -1.7425367252e-10 
0 0 -1.7425367252e-10 0 0 -1.7425367252e-10 0 0 -1.7425367252e-10 
0 0 -1.7425367252e-10 0 0 -1.7425367252e-10 0 0 -1.7425367252e-10 
0 0 -1.7425367252e-10 0 0 -1.7425367252e-10 0 0 -1.7425367252e-10 
0 0 -1.7425367252e-10 0 0 -1.7425367252e-10 0 0 -1.7425367252e-10 
0 0 -1.7425367252e-10 0 0 -1.7425367252e-10 0 0 -1.7425367252e-10 
0 0 -1.7425367252e-10 0 0 -1.7425367252e-10 0 0 -1.7425367252e-10 
0 0 -1.7425367252e-10 0 0 -1.7425367252e-10 0 0 -1.7425367252e-10 
0 0 -1.7425367252e-10 0 0 -1.7425367252e-10 0 0 -1.7425367252e-10 
0 0 -1.7425367252e-10 0 0 -1.7425367252e-10 0 0 -1.7425367252e-10 
0 0 -1.7425367252e-10 0 0 -1.7425367252e-10 0 0 -1.7425367252e-10 
0 0 -1.7425367252e-10 0 0 -1.7425367252e-10 0 0 -1.7425367252e-10 
0 0 -1.7425367252e-10 0 0 -1.7425367252e-10 0 0 -1.7425367252e-10 
0 0 -1.7425367252e-10 0 0 -1.7425367252e-10 0 0 -1.7425367252e-10 
0 0 -1.7425367252e-10 0 0 -1.7425367252e-10 0 0 -1.7425367252e-10 
0 0 -1.7425367252e-10 0 0 -1.7425367252e-10 0 0 -1.7425367252e-10 
0 0 -1.7425367252e-10 0 0 -1.7425367252e-10 0 0 -1.7425367252e-10 
0 0 -1.7425367252e-10 0 0 -1.7425367252e-10 0 0 -1.7425367252e-10 
0 0 -1.7425367252e-10 0 0 -1.7425367252e-10 0 0 -1.7425367252e-10 
0 0 -1.7425367252e-10 0 0 -1.7425367252e-10 0 0 -1.7425367252e-10 
0 0 -1.7425367252e-10 0 0 -1.7425367252e-10 0 0 -1.7425367252e-10 
0 0 -1.7425367252e-10 0 0 -1.7425367252e-10 0 0 -1.7425367252e-10 
0 0 -1.7425367252e-10 0 0 -1.7425367252e-10 0 0 -1.7425367252e-10 
0 0 -1.7425367252e-10 0 0 -1.7425367252e-10 0 0 -1.7425367252e-10 
0 0 -1.7425367252e-10 0 0 -1.7425367252e-10 0 0 -1.7425367252e-10 
0 0 -1.7425367252e-10 0 0 -1.7425367252e-10 0 0 -1.7425367252e-10 
0 0 -1.7425367252e-10 0 0 -1.7425367252e-10 0 0 -1.7425367252e-10 
0 0 -1.7425367252e-10 0 0 -1.7425367252e-10 0 0 -1.7425367252e-10 
0 0 -1.7425367252e-10 0 0 -1.7425367252e-10 0 0 -1.7425367252e-10 
0 0 -1.7425367252e-10 0 0 -1.7425367252e-10 0 0 -1.7425367252e-10 
0 0 -1.7425367252e-10 0 0 -1.7425367252e-10 0 0 -1.7425367252e-10 
0 0 -1.7425367252e-10 0 0 -1.7425367252e-10 0 0 -1.7425367252e-10 
0 0 -1.7425367252e-10 0 0 -1.7425367252e-10 0 0 -8.9019973083e-09 
0 0 -1.7425367252e-10 0 0 -1.7425367252e-10 0 0 -1.7425367252e-10 
0 0 -1.7425367252e-10 0 0 -1.7425367252e-10 0 0 -1.7425367252e-10 
0 0 -1.7425367252e-10 0 0 -1.7425367252e-10 0 0 -1.7425367252e-10 
0 0 -1.7425367252e-10 0 0 -1.7425367252e-10 0 0 -1.7425367252e-10 
0 0 -1.7425367252e-10 0 0 -1.7425367252e-10 0 0 -1.7425367252e-10 
0 0 -1.7425367252e-10 0 0 -1.7425367252e-10 0 0 -1.7425367252e-10 
0 0 -1.7425367252e-10 0 0 -1.7425367252e-10 0 0 -1.7425367252e-10 
0 0 -1.7425367252e-10 0 0 -1.7425367252e-10 0 0 -1.7425367252e-10 
0 0 -1.7425367252e-10 0 0 -1.7425367252e-10 0 0 -1.7425367252e-10 
0 0 -1.7425367252e-10 0 0 -1.7425367252e-10 0 0 -1.7425367252e-10 
0 0 -1.7425367252e-10 0 0 -1.7425367252e-10 0 0 -1.7425367252e-10 
0 0 -1.7425367252e-10 0 0 -1.7425367252e-10 0 0 -1.7425367252e-10 
0 0 -1.7425367252e-10 0 0 -1.7425367252e-10 0 0 -1.7425367252e-10 
0 0 -1.7425367252e-10 0 0 -1.7425367252e-10 0 0 -1.7425367252e-10 
0 0 -1.7425367252e-10 0 0 -1.7425367252e-10 0 0 -1.7425367252e-10 
0 0 -1.7425367252e-10 0 0 -1.7425367252e-10 0 0 -1.7425367252e-10 
0 0 -1.7425367252e-10 0 0 -1.7425367252e-10 0 0 -8.9019973083e-09 
0 0 -1.7425367252e-10 0 0 -1.7425367252e-10 0 0 -1.7425367252e-10 
0 0 -1.7425367252e-10 0 0 -1.7425367252e-10 0 0 -1.7425367252e-10 
0 0 -1.7425367252e-10 0 0 -1.7425367252e-10 0 0 -1.7425367252e-10 
0 0 -1.7425367252e-10 0 0 -1.7425367252e-10 0 0 -1.7425367252e-10 
0 0 -1.7425367252e-10 0 0 -1.7425367252e-10 0 0 -1.7425367252e-10 
0 0 -1.7425367252e-10 0 0 -1.7425367252e-10 0 0 -1.7425367252e-10 
0 0 -1.7425367252e-10 0 0 -1.7425367252e-10 0 0 -1.7425367252e-10 
0 0 -1.7425367252e-10 0 0 -1.7425367252e-10 0 0 -1.7425367252e-10 
0 0 -1.7425367252e-10 0 0 -1.7425367252e-10 0 0 -1.7425367252e-10 
0 0 -1.7425367252e-10 0 0 -1.7425367252e-10 0 0 -1.7425367252e-10 
0 0 -1.7425367252e-10 0 0 -1.7425367252e-10 0 0 -1.7425367252e-10 
0 0 -1.7425367252e-10 0 0 -1.7425367252e-10 0 0 -1.7425367252e-10 
0 0 -1.7425367252e-10 0 0 -1.7425367252e-10 0 0 -8.9019973083e-09 
0 0 -1.7425367252e-10 0 0 -1.7425367252e-10 0 0 -1.7425367252e-10 
0 0 -1.7425367252e-10 0 0 -1.7425367252e-10 0 0 -1.7425367252e-10 
0 0 -1.7425367252e-10 0 0 -1.7425367252e-10 0 0 -1.7425367252e-10 
0 0 -1.7425367252e-10 0 0 -1.7425367252e-10 0 0 -1.7425367252e-10 
0 0 -8.9019973083e-09 0 0 -1.7425367252e-10 0 0 -1.7425367252e-10 
0 0 -1.7425367252e-10 0 0 -1.7425367252e-10 0 0 -1.7425367252e-10 
0 0 -1.7425367252e-10 0 0 -1.7425367252e-10 0 0 -1.7425367252e-10 
0 0 -1.7425367252e-10 0 0 -1.7425367252e-10 0 0 -1.7425367252e-10 
0 0 -1.7425367252e-10 0 0 -1.7425367252e-10 0 0 -1.7425367252e-10 
0 0 -1.7425367252e-10 0 0 -1.7425367252e-10 0 0 -1.7425367252e-10 
0 0 -1.7425367252e-10 0 0 -1.7425367252e-10 0 0 -1.7425367252e-10 
0 0 -1.7425367252e-10 0 0 -1.7425367252e-10 0 0 -1.7425367252e-10 
0 0 -1.7425367252e-10 0 0 -1.7425367252e-10 0 0 -1.7425367252e-10 
0 0 -1.7425367252e-10 0 0 -1.7425367252e-10 0 0 -1.7425367252e-10 
0 0 -1.7425367252e-10 0 0 -1.7425367252e-10 0 0 -8.9019973083e-09 
0 0 -1.7425367252e-10 0 0 -1.7425367252e-10 0 0 -1.7425367252e-10 
0 0 -1.7425367252e-10 0 0 -1.7425367252e-10 0 0 -1.7425367252e-10 
0 0 -1.7425367252e-10 0 0 -1.7425367252e-10 0 0 -1.7425367252e-10 
0 0 -1.7425367252e-10 0 0 -1.7425367252e-10 0 0 -1.7425367252e-10 
0 0 -1.7425367252e-10 0 0 -1.7425367252e-10 0 0 -1.7425367252e-10 
0 0 -1.7425367252e-10 0 0 -1.7425367252e-10 0 0 -1.7425367252e-10 
0 0 -1.7425367252e-10 0 0 -1.7425367252e-10 0 0 -1.7425367252e-10 
0 0 -1.7425367252e-10 0 0 -1.7425367252e-10 0 0 -1.7425367252e-10 
0 0 -1.7425367252e-10 0 0 -1.7425367252e-10 0 0 -1.7425367252e-10 
0 0 -1.7425367252e-10 0 0 -1.7425367252e-10 0 0 -1.7425367252e-10 
0 0 -1.7425367252e-10 0 0 -1.7425367252e-10 0 0 -1.7425367252e-10 
0 0 -1.7425367252e-10 0 0 -1.7425367252e-10 0 0 -1.7425367252e-10 
0 0 -1.7425367252e-10 0 0 -1.7425367252e-10 0 0 -1.7425367252e-10 
0 0 -1.7425367252e-10 0 0 -1.7425367252e-10 0 0 -1.7425367252e-10 
0 0 -1.7425367252e-10 0 0 -1.7425367252e-10 0 0 -1.7425367252e-10 
0 0 -1.7425367252e-10 0 0 -1.7425367252e-10 0 0 -1.7425367252e-10 
0 0 -1.7425367252e-10 0 0 -1.7425367252e-10 0 0 -1.7425367252e-10 
0 0 -1.7425367252e-10 0 0 -1.7425367252e-10 0 0 -1.7425367252e-10 
0 0 -1.7425367252e-10 0 0 -1.7425367252e-10 0 0 -1.7425367252e-10 
0 0 -1.7425367252e-10 0 0 -1.7425367252e-10 0 0 -1.7425367252e-10 
0 0 -1.7425367252e-10 0 0 -1.7425367252e-10 0 0 -1.7425367252e-10 
0 0 -1.7425367252e-10 0 0 -1.7425367252e-10 0 0 -1.7425367252e-10 
0 0 -1.7425367252e-10 0 0 -1.7425367252e-10 0 0 -1.7425367252e-10 
0 0 -1.7425367252e-10 0 0 -1.7425367252e-10 0 0 -1.7425367252e-10 
0 0 -1.7425367252e-10 0 0 -1.7425367252e-10 0 0 -1.7425367252e-10 
0 0 -1.7425367252e-10 0 0 -1.7425367252e-10 0 0 -1.7425367252e-10 
0 0 -1.7425367252e-10 0 0 -1.7425367252e-10 0 0 -8.9019973083e-09 
0 0 -1.7425367252e-10 0 0 -1.7425367252e-10 0 0 -1.7425367252e-10 
0 0 -1.7425367252e-10 0 0 -1.7425367252e-10 0 0 -1.7425367252e-10 
0 0 -1.7425367252e-10 0 0 -1.7425367252e-10 0 0 -1.7425367252e-10 
0 0 -1.7425367252e-10 0 0 -1.7425367252e-10 0 0 -1.7425367252e-10 
0 0 -1.7425367252e-10 0 0 -1.7425367252e-10 0 0 -1.7425367252e-10 
0 0 -1.7425367252e-10 0 0 -1.7425367252e-10 0 0 -1.7425367252e-10 
0 0 -1.7425367252e-10 0 0 -1.7425367252e-10 0 0 -1.7425367252e-10 
0 0 -1.7425367252e-10 0 0 -8.9019973083e-09 0 0 -1.7425367252e-10 
0 0 -1.7425367252e-10 0 0 -1.7425367252e-10 0 0 -1.7425367252e-10 
0 0 -1.7425367252e-10 0 0 -1.7425367252e-10 0 0 -1.7425367252e-10 
0 0 -1.7425367252e-10 0 0 -1.7425367252e-10 0 0 -1.7425367252e-10 
0 0 -1.7425367252e-10 0 0 -1.7425367252e-10 0 0 -1.7425367252e-10 
0 0 -1.7425367252e-10 0 0 -1.7425367252e-10 0 0 -1.7425367252e-10 
0 0 -8.9019973083e-09 0 0 -1.7425367252e-10 0 0 -1.7425367252e-10 
0 0 -1.7425367252e-10 0 0 -1.7425367252e-10 0 0 -1.7425367252e-10 
0 0 -1.7425367252e-10 0 0 -1.7425367252e-10 0 0 -1.7425367252e-10 
0 0 -1.7425367252e-10 0 0 -1.7425367252e-10 0 0 -1.7425367252e-10 
0 0 -1.7425367252e-10 0 0 -1.7425367252e-10 0 0 -1.7425367252e-10 
0 0 -1.7425367252e-10 0 0 -1.7425367252e-10 0 0 -1.7425367252e-10 
0 0 -1.7425367252e-10 0 0 -1.7425367252e-10 0 0 -1.7425367252e-10 
0 0 -1.7425367252e-10 0 0 -1.7425367252e-10 0 0 -1.7425367252e-10 
0 0 -1.7425367252e-10 0 0 -1.7425367252e-10 0 0 -1.7425367252e-10 
0 0 -1.7425367252e-10 0 0 -1.7425367252e-10 0 0 -1.7425367252e-10 
0 0 -1.7425367252e-10 0 0 -1.7425367252e-10 0 0 -1.7425367252e-10 
0 0 -1.7425367252e-10 0 0 -1.7425367252e-10 0 0 -1.7425367252e-10 
0 0 -1.7425367252e-10 0 0 -1.7425367252e-10 0 0 -1.7425367252e-10 
0 0 -1.7425367252e-10 0 0 -1.7425367252e-10 0 0 -1.7425367252e-10 
0 0 -1.7425367252e-10 0 0 -1.7425367252e-10 0 0 -1.7425367252e-10 
0 0 -1.7425367252e-10 0 0 -1.7425367252e-10 0 0 -1.7425367252e-10 
0 0 -1.7425367252e-10 0 0 -1.7425367252e-10 0 0 -1.7425367252e-10 
0 0 -1.7425367252e-10 0 0 -1.7425367252e-10 0 0 -1.7425367252e-10 
0 0 -1.7425367252e-10 0 0 -1.7425367252e-10 0 0 -1.7425367252e-10 
0 0 -1.7425367252e-10 0 0 -1.7425367252e-10 0 0 -8.9019973083e-09 
0 0 -1.7425367252e-10 0 0 -1.7425367252e-10 0 0 -1.7425367252e-10 
0 0 -1.7425367252e-10 0 0 -1.7425367252e-10 0 0 -1.7425367252e-10 
0 0 -1.7425367252e-10 0 0 -1.7425367252e-10 0 0 -1.7425367252e-10 
0 0 -1.7425367252e-10 0 0 -1.7425367252e-10 0 0 -1.7425367252e-10 
0 0 -1.7425367252e-10 0 0 -1.7425367252e-10 0 0 -1.7425367252e-10 
0 0 -1.7425367252e-10 0 0 -8.9019973083e-09 0 0 -1.7425367252e-10 
0 0 -1.7425367252e-10 0 0 -8.9019973083e-09 0 0 -1.7425367252e-10 
0 0 -1.7425367252e-10 0 0 -1.7425367252e-10 0 0 -1.7425367252e-10 
0 0 -1.7425367252e-10 0 0 -1.7425367252e-10 0 0 -1.7425367252e-10 
0 0 -1.7425367252e-10 0 0 -1.7425367252e-10 0 0 -1.7425367252e-10 
0 0 -1.7425367252e-10 0 0 -1.7425367252e-10 0 0 -1.7425367252e-10 
0 0 -1.7425367252e-10 0 0 -1.7425367252e-10 0 0 -1.7425367252e-10 
0 0 -1.7425367252e-10 0 0 -1.7425367252e-10 0 0 -1.7425367252e-10 
0 0 -1.7425367252e-10 0 0 -1.7425367252e-10 0 0 -1.7425367252e-10 
0 0 -1.7425367252e-10 0 0 -1.7425367252e-10 0 0 -1.7425367252e-10 
0 0 -1.7425367252e-10 0 0 -1.7425367252e-10 0 0 -1.7425367252e-10 
0 0 -1.7425367252e-10 0 0 -1.7425367252e-10 0 0 -1.7425367252e-10 
0 0 -1.7425367252e-10 0 0 -1.7425367252e-10 0 0 -1.7425367252e-10 
0 0 -1.7425367252e-10 0 0 -1.7425367252e-10 0 0 -1.7425367252e-10 
0 0 -1.7425367252e-10 0 0 -1.7425367252e-10 0 0 -1.7425367252e-10 
0 0 -1.7425367252e-10 0 0 -1.7425367252e-10 0 0 -1.7425367252e-10 
0 0 -1.7425367252e-10 0 0 -1.7425367252e-10 0 0 -1.7425367252e-10 
0 0 -1.7425367252e-10 0 0 -1.7425367252e-10 0 0 -1.7425367252e-10 
0 0 -1.7425367252e-10 0 0 -1.7425367252e-10 0 0 -1.7425367252e-10 
0 0 -1.7425367252e-10 0 0 -1.7425367252e-10 0 0 -1.7425367252e-10 
0 0 -1.7425367252e-10 0 0 -1.7425367252e-10 0 0 -1.7425367252e-10 
0 0 -1.7425367252e-10 0 0 -1.7425367252e-10 0 0 -1.7425367252e-10 
0 0 -1.7425367252e-10 0 0 -1.7425367252e-10 0 0 -1.7425367252e-10 
0 0 -1.7425367252e-10 0 0 -1.7425367252e-10 0 0 -1.7425367252e-10 
0 0 -1.7425367252e-10 0 0 -1.7425367252e-10 0 0 -1.7425367252e-10 
0 0 -1.7425367252e-10 0 0 -1.7425367252e-10 0 0 -1.7425367252e-10 
0 0 -1.7425367252e-10 0 0 -1.7425367252e-10 0 0 -1.7425367252e-10 
0 0 -1.7425367252e-10 0 0 -1.7425367252e-10 0 0 -1.7425367252e-10 
0 0 -1.7425367252e-10 0 0 -1.7425367252e-10 0 0 -1.7425367252e-10 
0 0 -1.7425367252e-10 0 0 -1.7425367252e-10 0 0 -1.7425367252e-10 
0 0 -1.7425367252e-10 0 0 -1.7425367252e-10 0 0 -1.7425367252e-10 
0 0 -1.7425367252e-10 0 0 -1.7425367252e-10 0 0 -1.7425367252e-10 
0 0 -1.7425367252e-10 0 0 -1.7425367252e-10 0 0 -1.7425367252e-10 
0 0 -1.7425367252e-10 0 0 -1.7425367252e-10 0 0 -1.7425367252e-10 
0 0 -1.7425367252e-10 0 0 -1.7425367252e-10 0 0 -1.7425367252e-10 
0 0 -1.7425367252e-10 0 0 -1.7425367252e-10 0 0 -1.7425367252e-10 
0 0 -1.7425367252e-10 0 0 -1.7425367252e-10 0 0 -1.7425367252e-10 
0 0 -1.7425367252e-10 0 0 -1.7425367252e-10 0 0 -1.7425367252e-10 
0 0 -1.7425367252e-10 0 0 -1.7425367252e-10 0 0 -8.9019973083e-09 
0 0 -1.7425367252e-10 0 0 -1.7425367252e-10 0 0 -1.7425367252e-10 
0 0 -1.7425367252e-10 0 0 -1.7425367252e-10 0 0 -1.7425367252e-10 
0 0 -1.7425367252e-10 0 0 -1.7425367252e-10 0 0 -1.7425367252e-10 
0 0 -1.7425367252e-10 0 0 -1.7425367252e-10 0 0 -1.7425367252e-10 
0 0 -1.7425367252e-10 0 0 -1.7425367252e-10 0 0 -1.7425367252e-10 
0 0 -1.7425367252e-10 0 0 -1.7425367252e-10 0 0 -1.7425367252e-10 
0 0 -1.7425367252e-10 0 0 -1.7425367252e-10 0 0 -1.7425367252e-10 
0 0 -1.7425367252e-10 0 0 -1.7425367252e-10 0 0 -1.7425367252e-10 
0 0 -1.7425367252e-10 0 0 -1.7425367252e-10 0 0 -1.7425367252e-10 
0 0 -1.7425367252e-10 0 0 -1.7425367252e-10 0 0 -1.7425367252e-10 
0 0 -1.7425367252e-10 0 0 -1.7425367252e-10 0 0 -1.7425367252e-10 
0 0 -1.7425367252e-10 0 0 -1.7425367252e-10 0 0 -1.7425367252e-10 
0 0 -1.7425367252e-10 0 0 -1.7425367252e-10 0 0 -1.7425367252e-10 
0 0 -1.7425367252e-10 0 0 -1.7425367252e-10 0 0 -1.7425367252e-10 
0 0 -1.7425367252e-10 0 0 -1.7425367252e-10 0 0 -1.7425367252e-10 
0 0 -1.7425367252e-10 0 0 -1.7425367252e-10 0 0 -1.7425367252e-10 
0 0 -1.7425367252e-10 0 0 -1.7425367252e-10 0 0 -1.7425367252e-10 
0 0 -1.7425367252e-10 0 0 -1.7425367252e-10 0 0 -1.7425367252e-10 
0 0 -1.7425367252e-10 0 0 -1.7425367252e-10 0 0 -1.7425367252e-10 
0 0 -1.7425367252e-10 0 0 -1.7425367252e-10 0 0 -1.7425367252e-10 
0 0 -1.7425367252e-10 0 0 -1.7425367252e-10 0 0 -1.7425367252e-10 
0 0 -1.7425367252e-10 0 0 -1.7425367252e-10 0 0 -1.7425367252e-10 
0 0 -1.7425367252e-10 0 0 -1.7425367252e-10 0 0 -1.7425367252e-10 
0 0 -1.7425367252e-10 0 0 -8.9019973083e-09 0 0 -1.7425367252e-10 
0 0 -1.7425367252e-10 0 0 -1.7425367252e-10 0 0 -1.7425367252e-10 
0 0 -1.7425367252e-10 0 0 -1.7425367252e-10 0 0 -8.9019973083e-09 
0 0 -1.7425367252e-10 0 0 -1.7425367252e-10 0 0 -1.7425367252e-10 
0 0 -8.9019973083e-09 0 0 -1.7425367252e-10 0 0 -6.8918688838e-08 
0 0 -8.9019973083e-09 0 0 -1.7425367252e-10 0 0 -8.9019973083e-09 
0 0 -1.7425367252e-10 0 0 -1.7425367252e-10 0 0 -5.3297119368e-07 

radius 1 648 double
2e-05 2e-05 2e-05 2e-05 2e-05 2e-05 2e-05 2e-05 2e-05 
2e-05 2e-05 2e-05 2e-05 2e-05 2e-05 2e-05 2e-05 2e-05 
2e-05 2e-05 2e-05 2e-05 2e-05 2e-05 2e-05 2e-05 2e-05 
2e-05 2e-05 2e-05 2e-05 2e-05 2e-05 2e-05 2e-05 2e-05 
2e-05 2e-05 2e-05 2e-05 2e-05 2e-05 2e-05 2e-05 2e-05 
2e-05 2e-05 2e-05 2e-05 2e-05 2e-05 2e-05 2e-05 2e-05 
2e-05 2e-05 2e-05 2e-05 2e-05 2e-05 2e-05 2e-05 2e-05 
2e-05 2e-05 2e-05 2e-05 2e-05 2e-05 2e-05 2e-05 2e-05 
2e-05 2e-05 2e-05 2e-05 2e-05 2e-05 2e-05 2e-05 2e-05 
2e-05 2e-05 2e-05 2e-05 2e-05 2e-05 2e-05 2e-05 2e-05 
2e-05 2e-05 2e-05 2e-05 2e-05 2e-05 2e-05 2e-05 2e-05 
2e-05 2e-05 2e-05 2e-05 2e-05 2e-05 2e-05 2e-05 2e-05 
2e-05 2e-05 7.5e-05 2e-05 2e-05 2e-05 2e-05 2e-05 2e-05 
2e-05 2e-05 2e-05 2e-05 2e-05 2e-05 2e-05 2e-05 2e-05 
2e-05 2e-05 2e-05 2e-05 2e-05 2e-05 2e-05 2e-05 2e-05 
2e-05 2e-05 2e-05 2e-05 2e-05 2e-05 2e-05 2e-05 2e-05 
2e-05 2e-05 2e-05 2e-05 2e-05 2e-05 2e-05 2e-05 2e-05 
2e-05 2e-05 2e-05 2e-05 2e-05 2e-05 2e-05 2e-05 7.5e-05 
2e-05 2e-05 2e-05 2e-05 2e-05 2e-05 2e-05 2e-05 2e-05 
2e-05 2e-05 2e-05 2e-05 2e-05 2e-05 2e-05 2e-05 2e-05 
2e-05 2e-05 2e-05 2e-05 2e-05 2e-05 2e-05 2e-05 2e-05 
2e-05 2e-05 2e-05 2e-05 2e-05 2e-05 2e-05 2e-05 2e-05 
2e-05 2e-05 7.5e-05 2e-05 2e-05 2e-05 2e-05 2e-05 2e-05 
2e-05 2e-05 2e-05 2e-05 2e-05 2e-05 7.5e-05 2e-05 2e-05 
2e-05 2e-05 2e-05 2e-05 2e-05 2e-05 2e-05 2e-05 2e-05 
2e-05 2e-05 2e-05 2e-05 2e-05 2e-05 2e-05 2e-05 2e-05 
2e-05 2e-05 2e-05 2e-05 2e-05 2e-05 2e-05 2e-05 2e-05 
2e-05 2e-05 7.5e-05 2e-05 2e-05 2e-05 2e-05 2e-05 2e-05 
2e-05 2e-05 2e-05 2e-05 2e-05 2e-05 2e-05 2e-05 2e-05 
2e-05 2e-05 2e-05 2e-05 2e-05 2e-05 2e-05 2e-05 2e-05 
2e-05 2e-05 2e-05 2e-05 2e-05 2e-05 2e-05 2e-05 2e-05 
2e-05 2e-05 2e-05 2e-05 2e-05 2e-05 2e-05 2e-05 2e-05 
2e-05 2e-05 2e-05 2e-05 2e-05 2e-05 2e-05 2e-05 2e-05 
2e-05 2e-05 2e-05 2e-05 2e-05 2e-05 2e-05 2e-05 2e-05 
2e-05 2e-05 2e-05 2e-05 2e-05 2e-05 2e-05 2e-05 2e-05 
2e-05 2e-05 2e-05 2e-05 2e-05 2e-05 2e-05 2e-05 2e-05 
2e-05 2e-05 7.5e-05 2e-05 2e-05 2e-05 2e-05 2e-05 2e-05 
2e-05 2e-05 2e-05 2e-05 2e-05 2e-05 2e-05 2e-05 2e-05 
2e-05 2e-05 2e-05 2e-05 2e-05 2e-05 2e-05 7.5e-05 2e-05 
2e-05 2e-05 2e-05 2e-05 2e-05 2e-05 2e-05 2e-05 2e-05 
2e-05 2e-05 2e-05 2e-05 2e-05 2e-05 7.5e-05 2e-05 2e-05 
2e-05 2e-05 2e-05 2e-05 2e-05 2e-05 2e-05 2e-05 2e-05 
2e-05 2e-05 2e-05 2e-05 2e-05 2e-05 2e-05 2e-05 2e-05 
2e-05 2e-05 2e-05 2e-05 2e-05 2e-05 2e-05 2e-05 2e-05 
2e-05 2e-05 2e-05 2e-05 2e-05 2e-05 2e-05 2e-05 2e-05 
2e-05 2e-05 2e-05 2e-05 2e-05 2e-05 2e-05 2e-05 2e-05 
2e-05 2e-05 2e-05 2e-05 2e-05 2e-05 2e-05 2e-05 2e-05 
2e-05 2e-05 7.5e-05 2e-05 2e-05 2e-05 2e-05 2e-05 2e-05 
2e-05 2e-05 2e-05 2e-05 2e-05 2e-05 2e-05 2e-05 2e-05 
2e-05 7.5e-05 2e-05 2e-05 7.5e-05 2e-05 2e-05 2e-05 2e-05 
2e-05 2e-05 2e-05 2e-05 2e-05 2e-05 2e-05 2e-05 2e-05 
2e-05 2e-05 2e-05 2e-05 2e-05 2e-05 2e-05 2e-05 2e-05 
2e-05 2e-05 2e-05 2e-05 2e-05 2e-05 2e-05 2e-05 2e-05 
2e-05 2e-05 2e-05 2e-05 2e-05 2e-05 2e-05 2e-05 2e-05 
2e-05 2e-05 2e-05 2e-05 2e-05 2e-05 2e-05 2e-05 2e-05 
2e-05 2e-05 2e-05 2e-05 2e-05 2e-05 2e-05 2e-05 2e-05 
2e-05 2e-05 2e-05 2e-05 2e-05 2e-05 2e-05 2e-05 2e-05 
2e-05 2e-05 2e-05 2e-05 2e-05 2e-05 2e-05 2e-05 2e-05 
2e-05 2e-05 2e-05 2e-05 2e-05 2e-05 2e-05 2e-05 2e-05 
2e-05 2e-05 2e-05 2e-05 2e-05 2e-05 2e-05 2e-05 2e-05 
2e-05 2e-05 2e-05 2e-05 2e-05 2e-05 2e-05 2e-05 2e-05 
2e-05 2e-05 2e-05 2e-05 2e-05 2e-05 2e-05 2e-05 7.5e-05 
2e-05 2e-05 2e-05 2e-05 2e-05 2e-05 2e-05 2e-05 2e-05 
2e-05 2e-05 2e-05 2e-05 2e-05 2e-05 2e-05 2e-05 2e-05 
2e-05 2e-05 2e-05 2e-05 2e-05 2e-05 2e-05 2e-05 2e-05 
2e-05 2e-05 2e-05 2e-05 2e-05 2e-05 2e-05 2e-05 2e-05 
2e-05 2e-05 2e-05 2e-05 2e-05 2e-05 2e-05 2e-05 2e-05 
2e-05 2e-05 2e-05 2e-05 2e-05 2e-05 2e-05 2e-05 2e-05 
2e-05 2e-05 2e-05 2e-05 2e-05 2e-05 2e-05 2e-05 2e-05 
2e-05 2e-05 2e-05 2e-05 2e-05 2e-05 2e-05 7.5e-05 2e-05 
2e-05 2e-05 2e-05 2e-05 2e-05 7.5e-05 2e-05 2e-05 2e-05 
7.5e-05 2e-05 0.00015 7.5e-05 2e-05 7.5e-05 2e-05 2e-05 0.0003 

omega 3 648 double
0 0 0 0 0 0 0 0 0 
0 0 0 0 0 0 0 0 0 
0 0 0 0 0 0 0 0 0 
0 0 0 0 0 0 0 0 0 
0 0 0 0 0 0 0 0 0 
0 0 0 0 0 0 0 0 0 
0 0 0 0 0 0 0 0 0 
0 0 0 0 0 0 0 0 0 
0 0 0 0 0 0 0 0 0 
0 0 0 0 0 0 0 0 0 
0 0 0 0 0 0 0 0 0 
0 0 0 0 0 0 0 0 0 
0 0 0 0 0 0 0 0 0 
0 0 0 0 0 0 0 0 0 
0 0 0 0 0 0 0 0 0 
0 0 0 0 0 0 0 0 0 
0 0 0 0 0 0 0 0 0 
0 0 0 0 0 0 0 0 0 
0 0 0 0 0 0 0 0 0 
0 0 0 0 0 0 0 0 0 
0 0 0 0 0 0 0 0 0 
0 0 0 0 0 0 0 0 0 
0 0 0 0 0 0 0 0 0 
0 0 0 0 0 0 0 0 0 
0 0 0 0 0 0 0 0 0 
0 0 0 0 0 0 0 0 0 
0 0 0 0 0 0 0 0 0 
0 0 0 0 0 0 0 0 0 
0 0 0 0 0 0 0 0 0 
0 0 0 0 0 0 0 0 0 
0 0 0 0 0 0 0 0 0 
0 0 0 0 0 0 0 0 0 
0 0 0 0 0 0 0 0 0 
0 0 0 0 0 0 0 0 0 
0 0 0 0 0 0 0 0 0 
0 0 0 0 0 0 0 0 0 
0 0 0 0 0 0 0 0 0 
0 0 0 0 0 0 0 0 0 
0 0 0 0 0 0 0 0 0 
0 0 0 0 0 0 0 0 0 
0 0 0 0 0 0 0 0 0 
0 0 0 0 0 0 0 0 0 
0 0 0 0 0 0 0 0 0 
0 0 0 0 0 0 0 0 0 
0 0 0 0 0 0 0 0 0 
0 0 0 0 0 0 0 0 0 
0 0 0 0 0 0 0 0 0 
0 0 0 0 0 0 0 0 0 
0 0 0 0 0 0 0 0 0 
0 0 0 0 0 0 0 0 0 
0 0 0 0 0 0 0 0 0 
0 0 0 0 0 0 0 0 0 
0 0 0 0 0 0 0 0 0 
0 0 0 0 0 0 0 0 0 
0 0 0 0 0 0 0 0 0 
0 0 0 0 0 0 0 0 0 
0 0 0 0 0 0 0 0 0 
0 0 0 0 0 0 0 0 0 
0 0 0 0 0 0 0 0 0 
0 0 0 0 0 0 0 0 0 
0 0 0 0 0 0 0 0 0 
0 0 0 0 0 0 0 0 0 
0 0 0 0 0 0 0 0 0 
0 0 0 0 0 0 0 0 0 
0 0 0 0 0 0 0 0 0 
0 0 0 0 0 0 0 0 0 
0 0 0 0 0 0 0 0 0 
0 0 0 0 0 0 0 0 0 
0 0 0 0 0 0 0 0 0 
0 0 0 0 0 0 0 0 0 
0 0 0 0 0 0 0 0 0 
0 0 0 0 0 0 0 0 0 
0 0 0 0 0 0 0 0 0 
0 0 0 0 0 0 0 0 0 
0 0 0 0 0 0 0 0 0 
0 0 0 0 0 0 0 0 0 
0 0 0 0 0 0 0 0 0 
0 0 0 0 0 0 0 0 0 
0 0 0 0 0 0 0 0 0 
0 0 0 0 0 0 0 0 0 
0 0 0 0 0 0 0 0 0 
0 0 0 0 0 0 0 0 0 
0 0 0 0 0 0 0 0 0 
0 0 0 0 0 0 0 0 0 
0 0 0 0 0 0 0 0 0 
0 0 0 0 0 0 0 0 0 
0 0 0 0 0 0 0 0 0 
0 0 0 0 0 0 0 0 0 
0 0 0 0 0 0 0 0 0 
0 0 0 0 0 0 0 0 0 
0 0 0 0 0 0 0 0 0 
0 0 0 0 0 0 0 0 0 
0 0 0 0 0 0 0 0 0 
0 0 0 0 0 0 0 0 0 
0 0 0 0 0 0 0 0 0 
0 0 0 0 0 0 0 0 0 
0 0 0 0 0 0 0 0 0 
0 0 0 0 0 0 0 0 0 
0 0 0 0 0 0 0 0 0 
0 0 0 0 0 0 0 0 0 
0 0 0 0 0 0 0 0 0 
0 0 0 0 0 0 0 0 0 
0 0 0 0 0 0 0 0 0 
0 0 0 0 0 0 0 0 0 
0 0 0 0 0 0 0 0 0 
0 0 0 0 0 0 0 0 0 
0 0 0 0 0 0 0 0 0 
0 0 0 0 0 0 0 0 0 
0 0 0 0 0 0 0 0 0 
0 0 0 0 0 0 0 0 0 
0 0 0 0 0 0 0 0 0 
0 0 0 0 0 0 0 0 0 
0 0 0 0 0 0 0 0 0 
0 0 0 0 0 0 0 0 0 
0 0 0 0 0 0 0 0 0 
0 0 0 0 0 0 0 0 0 
0 0 0 0 0 0 0 0 0 
0 0 0 0 0 0 0 0 0 
0 0 0 0 0 0 0 0 0 
0 0 0 0 0 0 0 0 0 
0 0 0 0 0 0 0 0 0 
0 0 0 0 0 0 0 0 0 
0 0 0 0 0 0 0 0 0 
0 0 0 0 0 0 0 0 0 
0 0 0 0 0 0 0 0 0 
0 0 0 0 0 0 0 0 0 
0 0 0 0 0 0 0 0 0 
0 0 0 0 0 0 0 0 0 
0 0 0 0 0 0 0 0 0 
0 0 0 0 0 0 0 0 0 
0 0 0 0 0 0 0 0 0 
0 0 0 0 0 0 0 0 0 
0 0 0 0 0 0 0 0 0 
0 0 0 0 0 0 0 0 0 
0 0 0 0 0 0 0 0 0 
0 0 0 0 0 0 0 0 0 
0 0 0 0 0 0 0 0 0 
0 0 0 0 0 0 0 0 0 
0 0 0 0 0 0 0 0 0 
0 0 0 0 0 0 0 0 0 
0 0 0 0 0 0 0 0 0 
0 0 0 0 0 0 0 0 0 
0 0 0 0 0 0 0 0 0 
0 0 0 0 0 0 0 0 0 
0 0 0 0 0 0 0 0 0 
0 0 0 0 0 0 0 0 0 
0 0 0 0 0 0 0 0 0 
0 0 0 0 0 0 0 0 0 
0 0 0 0 0 0 0 0 0 
0 0 0 0 0 0 0 0 0 
0 0 0 0 0 0 0 0 0 
0 0 0 0 0 0 0 0 0 
0 0 0 0 0 0 0 0 0 
0 0 0 0 0 0 0 0 0 
0 0 0 0 0 0 0 0 0 
0 0 0 0 0 0 0 0 0 
0 0 0 0 0 0 0 0 0 
0 0 0 0 0 0 0 0 0 
0 0 0 0 0 0 0 0 0 
0 0 0 0 0 0 0 0 0 
0 0 0 0 0 0 0 0 0 
0 0 0 0 0 0 0 0 0 
0 0 0 0 0 0 0 0 0 
0 0 0 0 0 0 0 0 0 
0 0 0 0 0 0 0 0 0 
0 0 0 0 0 0 0 0 0 
0 0 0 0 0 0 0 0 0 
0 0 0 0 0 0 0 0 0 
0 0 0 0 0 0 0 0 0 
0 0 0 0 0 0 0 0 0 
0 0 0 0 0 0 0 0 0 
0 0 0 0 0 0 0 0 0 
0 0 0 0 0 0 0 0 0 
0 0 0 0 0 0 0 0 0 
0 0 0 0 0 0 0 0 0 
0 0 0 0 0 0 0 0 0 
0 0 0 0 0 0 0 0 0 
0 0 0 0 0 0 0 0 0 
0 0 0 0 0 0 0 0 0 
0 0 0 0 0 0 0 0 0 
0 0 0 0 0 0 0 0 0 
0 0 0 0 0 0 0 0 0 
0 0 0 0 0 0 0 0 0 
0 0 0 0 0 0 0 0 0 
0 0 0 0 0 0 0 0 0 
0 0 0 0 0 0 0 0 0 
0 0 0 0 0 0 0 0 0 
0 0 0 0 0 0 0 0 0 
0 0 0 0 0 0 0 0 0 
0 0 0 0 0 0 0 0 0 
0 0 0 0 0 0 0 0 0 
0 0 0 0 0 0 0 0 0 
0 0 0 0 0 0 0 0 0 
0 0 0 0 0 0 0 0 0 
0 0 0 0 0 0 0 0 0 
0 0 0 0 0 0 0 0 0 
0 0 0 0 0 0 0 0 0 
0 0 0 0 0 0 0 0 0 
0 0 0 0 0 0 0 0 0 
0 0 0 0 0 0 0 0 0 
0 0 0 0 0 0 0 0 0 
0 0 0 0 0 0 0 0 0 
0 0 0 0 0 0 0 0 0 
0 0 0 0 0 0 0 0 0 
0 0 0 0 0 0 0 0 0 
0 0 0 0 0 0 0 0 0 
0 0 0 0 0 0 0 0 0 
0 0 0 0 0 0 0 0 0 
0 0 0 0 0 0 0 0 0 
0 0 0 0 0 0 0 0 0 
0 0 0 0 0 0 0 0 0 
0 0 0 0 0 0 0 0 0 
0 0 0 0 0 0 0 0 0 
0 0 0 0 0 0 0 0 0 
0 0 0 0 0 0 0 0 0 
0 0 0 0 0 0 0 0 0 

fx_mag_viz 1 648 double
0 0 0 0 0 0 0 0 0 
0 0 0 0 0 0 0 0 0 
0 0 0 0 0 0 0 0 0 
0 0 0 0 0 0 0 0 0 
0 0 0 0 0 0 0 0 0 
0 0 0 0 0 0 0 0 0 
0 0 0 0 0 0 0 0 0 
0 0 0 0 0 0 0 0 0 
0 0 0 0 0 0 0 0 0 
0 0 0 0 0 0 0 0 0 
0 0 0 0 0 0 0 0 0 
0 0 0 0 0 0 0 0 0 
0 0 0 0 0 0 0 0 0 
0 0 0 0 0 0 0 0 0 
0 0 0 0 0 0 0 0 0 
0 0 0 0 0 0 0 0 0 
0 0 0 0 0 0 0 0 0 
0 0 0 0 0 0 0 0 0 
0 0 0 0 0 0 0 0 0 
0 0 0 0 0 0 0 0 0 
0 0 0 0 0 0 0 0 0 
0 0 0 0 0 0 0 0 0 
0 0 0 0 0 0 0 0 0 
0 0 0 0 0 0 0 0 0 
0 0 0 0 0 0 0 0 0 
0 0 0 0 0 0 0 0 0 
0 0 0 0 0 0 0 0 0 
0 0 0 0 0 0 0 0 0 
0 0 0 0 0 0 0 0 0 
0 0 0 0 0 0 0 0 0 
0 0 0 0 0 0 0 0 0 
0 0 0 0 0 0 0 0 0 
0 0 0 0 0 0 0 0 0 
0 0 0 0 0 0 0 0 0 
0 0 0 0 0 0 0 0 0 
0 0 0 0 0 0 0 0 0 
0 0 0 0 0 0 0 0 0 
0 0 0 0 0 0 0 0 0 
0 0 0 0 0 0 0 0 0 
0 0 0 0 0 0 0 0 0 
0 0 0 0 0 0 0 0 0 
0 0 0 0 0 0 0 0 0 
0 0 0 0 0 0 0 0 0 
0 0 0 0 0 0 0 0 0 
0 0 0 0 0 0 0 0 0 
0 0 0 0 0 0 0 0 0 
0 0 0 0 0 0 0 0 0 
0 0 0 0 0 0 0 0 0 
0 0 0 0 0 0 0 0 0 
0 0 0 0 0 0 0 0 0 
0 0 0 0 0 0 0 0 0 
0 0 0 0 0 0 0 0 0 
0 0 0 0 0 0 0 0 0 
0 0 0 0 0 0 0 0 0 
0 0 0 0 0 0 0 0 0 
0 0 0 0 0 0 0 0 0 
0 0 0 0 0 0 0 0 0 
0 0 0 0 0 0 0 0 0 
0 0 0 0 0 0 0 0 0 
0 0 0 0 0 0 0 0 0 
0 0 0 0 0 0 0 0 0 
0 0 0 0 0 0 0 0 0 
0 0 0 0 0 0 0 0 0 
0 0 0 0 0 0 0 0 0 
0 0 0 0 0 0 0 0 0 
0 0 0 0 0 0 0 0 0 
0 0 0 0 0 0 0 0 0 
0 0 0 0 0 0 0 0 0 
0 0 0 0 0 0 0 0 0 
0 0 0 0 0 0 0 0 0 
0 0 0 0 0 0 0 0 0 
0 0 0 0 0 0 0 0 0 

fy_mag_viz 1 648 double
0 0 0 0 0 0 0 0 0 
0 0 0 0 0 0 0 0 0 
0 0 0 0 0 0 0 0 0 
0 0 0 0 0 0 0 0 0 
0 0 0 0 0 0 0 0 0 
0 0 0 0 0 0 0 0 0 
0 0 0 0 0 0 0 0 0 
0 0 0 0 0 0 0 0 0 
0 0 0 0 0 0 0 0 0 
0 0 0 0 0 0 0 0 0 
0 0 0 0 0 0 0 0 0 
0 0 0 0 0 0 0 0 0 
0 0 0 0 0 0 0 0 0 
0 0 0 0 0 0 0 0 0 
0 0 0 0 0 0 0 0 0 
0 0 0 0 0 0 0 0 0 
0 0 0 0 0 0 0 0 0 
0 0 0 0 0 0 0 0 0 
0 0 0 0 0 0 0 0 0 
0 0 0 0 0 0 0 0 0 
0 0 0 0 0 0 0 0 0 
0 0 0 0 0 0 0 0 0 
0 0 0 0 0 0 0 0 0 
0 0 0 0 0 0 0 0 0 
0 0 0 0 0 0 0 0 0 
0 0 0 0 0 0 0 0 0 
0 0 0 0 0 0 0 0 0 
0 0 0 0 0 0 0 0 0 
0 0 0 0 0 0 0 0 0 
0 0 0 0 0 0 0 0 0 
0 0 0 0 0 0 0 0 0 
0 0 0 0 0 0 0 0 0 
0 0 0 0 0 0 0 0 0 
0 0 0 0 0 0 0 0 0 
0 0 0 0 0 0 0 0 0 
0 0 0 0 0 0 0 0 0 
0 0 0 0 0 0 0 0 0 
0 0 0 0 0 0 0 0 0 
0 0 0 0 0 0 0 0 0 
0 0 0 0 0 0 0 0 0 
0 0 0 0 0 0 0 0 0 
0 0 0 0 0 0 0 0 0 
0 0 0 0 0 0 0 0 0 
0 0 0 0 0 0 0 0 0 
0 0 0 0 0 0 0 0 0 
0 0 0 0 0 0 0 0 0 
0 0 0 0 0 0 0 0 0 
0 0 0 0 0 0 0 0 0 
0 0 0 0 0 0 0 0 0 
0 0 0 0 0 0 0 0 0 
0 0 0 0 0 0 0 0 0 
0 0 0 0 0 0 0 0 0 
0 0 0 0 0 0 0 0 0 
0 0 0 0 0 0 0 0 0 
0 0 0 0 0 0 0 0 0 
0 0 0 0 0 0 0 0 0 
0 0 0 0 0 0 0 0 0 
0 0 0 0 0 0 0 0 0 
0 0 0 0 0 0 0 0 0 
0 0 0 0 0 0 0 0 0 
0 0 0 0 0 0 0 0 0 
0 0 0 0 0 0 0 0 0 
0 0 0 0 0 0 0 0 0 
0 0 0 0 0 0 0 0 0 
0 0 0 0 0 0 0 0 0 
0 0 0 0 0 0 0 0 0 
0 0 0 0 0 0 0 0 0 
0 0 0 0 0 0 0 0 0 
0 0 0 0 0 0 0 0 0 
0 0 0 0 0 0 0 0 0 
0 0 0 0 0 0 0 0 0 
0 0 0 0 0 0 0 0 0 

fz_mag_viz 1 648 double
0 0 0 0 0 0 0 0 0 
0 0 0 0 0 0 0 0 0 
0 0 0 0 0 0 0 0 0 
0 0 0 0 0 0 0 0 0 
0 0 0 0 0 0 0 0 0 
0 0 0 0 0 0 0 0 0 
0 0 0 0 0 0 0 0 0 
0 0 0 0 0 0 0 0 0 
0 0 0 0 0 0 0 0 0 
0 0 0 0 0 0 0 0 0 
0 0 0 0 0 0 0 0 0 
0 0 0 0 0 0 0 0 0 
0 0 0 0 0 0 0 0 0 
0 0 0 0 0 0 0 0 0 
0 0 0 0 0 0 0 0 0 
0 0 0 0 0 0 0 0 0 
0 0 0 0 0 0 0 0 0 
0 0 0 0 0 0 0 0 0 
0 0 0 0 0 0 0 0 0 
0 0 0 0 0 0 0 0 0 
0 0 0 0 0 0 0 0 0 
0 0 0 0 0 0 0 0 0 
0 0 0 0 0 0 0 0 0 
0 0 0 0 0 0 0 0 0 
0 0 0 0 0 0 0 0 0 
0 0 0 0 0 0 0 0 0 
0 0 0 0 0 0 0 0 0 
0 0 0 0 0 0 0 0 0 
0 0 0 0 0 0 0 0 0 
0 0 0 0 0 0 0 0 0 
0 0 0 0 0 0 0 0 0 
0 0 0 0 0 0 0 0 0 
0 0 0 0 0 0 0 0 0 
0 0 0 0 0 0 0 0 0 
0 0 0 0 0 0 0 0 0 
0 0 0 0 0 0 0 0 0 
0 0 0 0 0 0 0 0 0 
0 0 0 0 0 0 0 0 0 
0 0 0 0 0 0 0 0 0 
0 0 0 0 0 0 0 0 0 
0 0 0 0 0 0 0 0 0 
0 0 0 0 0 0 0 0 0 
0 0 0 0 0 0 0 0 0 
0 0 0 0 0 0 0 0 0 
0 0 0 0 0 0 0 0 0 
0 0 0 0 0 0 0 0 0 
0 0 0 0 0 0 0 0 0 
0 0 0 0 0 0 0 0 0 
0 0 0 0 0 0 0 0 0 
0 0 0 0 0 0 0 0 0 
0 0 0 0 0 0 0 0 0 
0 0 0 0 0 0 0 0 0 
0 0 0 0 0 0 0 0 0 
0 0 0 0 0 0 0 0 0 
0 0 0 0 0 0 0 0 0 
0 0 0 0 0 0 0 0 0 
0 0 0 0 0 0 0 0 0 
0 0 0 0 0 0 0 0 0 
0 0 0 0 0 0 0 0 0 
0 0 0 0 0 0 0 0 0 
0 0 0 0 0 0 0 0 0 
0 0 0 0 0 0 0 0 0 
0 0 0 0 0 0 0 0 0 
0 0 0 0 0 0 0 0 0 
0 0 0 0 0 0 0 0 0 
0 0 0 0 0 0 0 0 0 
0 0 0 0 0 0 0 0 0 
0 0 0 0 0 0 0 0 0 
0 0 0 0 0 0 0 0 0 
0 0 0 0 0 0 0 0 0 
0 0 0 0 0 0 0 0 0 
0 0 0 0 0 0 0 0 0 

B_magnitude 1 648 double
0 0 0 0 0 0 0 0 0 
0 0 0 0 0 0 0 0 0 
0 0 0 0 0 0 0 0 0 
0 0 0 0 0 0 0 0 0 
0 0 0 0 0 0 0 0 0 
0 0 0 0 0 0 0 0 0 
0 0 0 0 0 0 0 0 0 
0 0 0 0 0 0 0 0 0 
0 0 0 0 0 0 0 0 0 
0 0 0 0 0 0 0 0 0 
0 0 0 0 0 0 0 0 0 
0 0 0 0 0 0 0 0 0 
0 0 0 0 0 0 0 0 0 
0 0 0 0 0 0 0 0 0 
0 0 0 0 0 0 0 0 0 
0 0 0 0 0 0 0 0 0 
0 0 0 0 0 0 0 0 0 
0 0 0 0 0 0 0 0 0 
0 0 0 0 0 0 0 0 0 
0 0 0 0 0 0 0 0 0 
0 0 0 0 0 0 0 0 0 
0 0 0 0 0 0 0 0 0 
0 0 0 0 0 0 0 0 0 
0 0 0 0 0 0 0 0 0 
0 0 0 0 0 0 0 0 0 
0 0 0 0 0 0 0 0 0 
0 0 0 0 0 0 0 0 0 
0 0 0 0 0 0 0 0 0 
0 0 0 0 0 0 0 0 0 
0 0 0 0 0 0 0 0 0 
0 0 0 0 0 0 0 0 0 
0 0 0 0 0 0 0 0 0 
0 0 0 0 0 0 0 0 0 
0 0 0 0 0 0 0 0 0 
0 0 0 0 0 0 0 0 0 
0 0 0 0 0 0 0 0 0 
0 0 0 0 0 0 0 0 0 
0 0 0 0 0 0 0 0 0 
0 0 0 0 0 0 0 0 0 
0 0 0 0 0 0 0 0 0 
0 0 0 0 0 0 0 0 0 
0 0 0 0 0 0 0 0 0 
0 0 0 0 0 0 0 0 0 
0 0 0 0 0 0 0 0 0 
0 0 0 0 0 0 0 0 0 
0 0 0 0 0 0 0 0 0 
0 0 0 0 0 0 0 0 0 
0 0 0 0 0 0 0 0 0 
0 0 0 0 0 0 0 0 0 
0 0 0 0 0 0 0 0 0 
0 0 0 0 0 0 0 0 0 
0 0 0 0 0 0 0 0 0 
0 0 0 0 0 0 0 0 0 
0 0 0 0 0 0 0 0 0 
0 0 0 0 0 0 0 0 0 
0 0 0 0 0 0 0 0 0 
0 0 0 0 0 0 0 0 0 
0 0 0 0 0 0 0 0 0 
0 0 0 0 0 0 0 0 0 
0 0 0 0 0 0 0 0 0 
0 0 0 0 0 0 0 0 0 
0 0 0 0 0 0 0 0 0 
0 0 0 0 0 0 0 0 0 
0 0 0 0 0 0 0 0 0 
0 0 0 0 0 0 0 0 0 
0 0 0 0 0 0 0 0 0 
0 0 0 0 0 0 0 0 0 
0 0 0 0 0 0 0 0 0 
0 0 0 0 0 0 0 0 0 
0 0 0 0 0 0 0 0 0 
0 0 0 0 0 0 0 0 0 
0 0 0 0 0 0 0 0 0 

B_gradient_mag 1 648 double
0 0 0 0 0 0 0 0 0 
0 0 0 0 0 0 0 0 0 
0 0 0 0 0 0 0 0 0 
0 0 0 0 0 0 0 0 0 
0 0 0 0 0 0 0 0 0 
0 0 0 0 0 0 0 0 0 
0 0 0 0 0 0 0 0 0 
0 0 0 0 0 0 0 0 0 
0 0 0 0 0 0 0 0 0 
0 0 0 0 0 0 0 0 0 
0 0 0 0 0 0 0 0 0 
0 0 0 0 0 0 0 0 0 
0 0 0 0 0 0 0 0 0 
0 0 0 0 0 0 0 0 0 
0 0 0 0 0 0 0 0 0 
0 0 0 0 0 0 0 0 0 
0 0 0 0 0 0 0 0 0 
0 0 0 0 0 0 0 0 0 
0 0 0 0 0 0 0 0 0 
0 0 0 0 0 0 0 0 0 
0 0 0 0 0 0 0 0 0 
0 0 0 0 0 0 0 0 0 
0 0 0 0 0 0 0 0 0 
0 0 0 0 0 0 0 0 0 
0 0 0 0 0 0 0 0 0 
0 0 0 0 0 0 0 0 0 
0 0 0 0 0 0 0 0 0 
0 0 0 0 0 0 0 0 0 
0 0 0 0 0 0 0 0 0 
0 0 0 0 0 0 0 0 0 
0 0 0 0 0 0 0 0 0 
0 0 0 0 0 0 0 0 0 
0 0 0 0 0 0 0 0 0 
0 0 0 0 0 0 0 0 0 
0 0 0 0 0 0 0 0 0 
0 0 0 0 0 0 0 0 0 
0 0 0 0 0 0 0 0 0 
0 0 0 0 0 0 0 0 0 
0 0 0 0 0 0 0 0 0 
0 0 0 0 0 0 0 0 0 
0 0 0 0 0 0 0 0 0 
0 0 0 0 0 0 0 0 0 
0 0 0 0 0 0 0 0 0 
0 0 0 0 0 0 0 0 0 
0 0 0 0 0 0 0 0 0 
0 0 0 0 0 0 0 0 0 
0 0 0 0 0 0 0 0 0 
0 0 0 0 0 0 0 0 0 
0 0 0 0 0 0 0 0 0 
0 0 0 0 0 0 0 0 0 
0 0 0 0 0 0 0 0 0 
0 0 0 0 0 0 0 0 0 
0 0 0 0 0 0 0 0 0 
0 0 0 0 0 0 0 0 0 
0 0 0 0 0 0 0 0 0 
0 0 0 0 0 0 0 0 0 
0 0 0 0 0 0 0 0 0 
0 0 0 0 0 0 0 0 0 
0 0 0 0 0 0 0 0 0 
0 0 0 0 0 0 0 0 0 
0 0 0 0 0 0 0 0 0 
0 0 0 0 0 0 0 0 0 
0 0 0 0 0 0 0 0 0 
0 0 0 0 0 0 0 0 0 
0 0 0 0 0 0 0 0 0 
0 0 0 0 0 0 0 0 0 
0 0 0 0 0 0 0 0 0 
0 0 0 0 0 0 0 0 0 
0 0 0 0 0 0 0 0 0 
0 0 0 0 0 0 0 0 0 
0 0 0 0 0 0 0 0 0 
0 0 0 0 0 0 0 0 0 

