# vtk DataFile Version 5.1
Generated by LIGGGHTS
ASCII
DATASET POLYDATA
POINTS 648 float
-0.0308094 -0.0435702 0.0547045 0.00743742 -0.00926665 0.0549445 -0.00433253 -0.00676057 0.0547538 
-0.0179231 -0.00300678 0.0546992 -0.042922 -0.0404536 0.0555257 0.0280204 -0.0311414 0.0555837 
-0.0112192 -0.0104501 0.055047 0.013874 -0.00963069 0.0560271 -0.0129003 -0.00574839 0.0558057 
0.021602 0.00540593 0.0562765 -0.0214351 0.00957734 0.0555231 -0.0310202 0.0131063 0.0561231 
0.0364634 0.0310238 0.0560543 -0.0264781 0.032823 0.055752 0.0297434 0.0373158 0.0558447 
-0.0428902 -0.0449088 0.0568369 0.00798734 -0.0367051 0.0565643 0.000892701 -0.0263701 0.0564833 
-0.0257955 -0.0157834 0.057231 0.0384376 0.000848974 0.0571263 0.0449494 0.00392273 0.0575058 
0.0221269 0.00728552 0.0565042 -0.022709 0.0198803 0.056979 0.0167463 0.0251763 0.0568015 
-0.0390027 0.0421086 0.0569942 0.0308099 -0.0378456 0.0576692 0.0333162 -0.0342631 0.0579778 
-0.00444012 -0.0151621 0.0587475 0.0109664 -0.00760095 0.0585849 0.00937085 -0.00418454 0.0583249 
0.0180565 -0.00487531 0.0584178 -0.0141425 -0.00311887 0.0588036 0.03506 0.0228899 0.0578064 
0.0181332 0.0246356 0.0578806 -0.0105296 -0.0314142 0.0593317 -0.0100897 -0.0180162 0.0594373 
-0.0117656 -0.0138394 0.0591252 -0.0198564 -0.00683511 0.0595545 0.0246705 0.0064451 0.0598365 
-0.0426568 0.00723228 0.0599043 0.0212596 0.00979192 0.059841 0.0143092 0.0139794 0.0595555 
0.0248423 0.0143007 0.0591394 0.0123926 0.0218243 0.0589614 -0.0335565 -0.0442122 0.0614018 
0.0156715 -0.0391733 0.0609487 0.033456 -0.0256735 0.0611214 0.00689113 -0.0107816 0.060346 
0.021323 -0.00444137 0.0605996 0.0292006 0.00433004 0.0613043 0.0340899 0.00882812 0.0608583 
0.0398091 0.011618 0.0604442 0.0307708 0.0242663 0.0605604 -0.0200898 0.0311527 0.0607722 
-0.0073504 0.0318329 0.061304 -0.0248652 -0.040212 0.0626631 -0.00302782 -0.0385948 0.0623733 
-0.0266532 -0.0301716 0.0618735 0.039775 -0.0211058 0.0615886 -0.0388614 -0.0136303 0.0617114 
0.0350526 -0.0102353 0.0615921 0.00517921 0.0169249 0.0626525 -0.0360536 0.0173104 0.062027 
0.0090081 0.0191686 0.0622977 -0.00782209 0.0241861 0.061659 -0.0260142 0.00017485 0.063794 
8.23501e-07 0.0138406 0.0637622 0.0215224 0.0171285 0.0635802 -0.0153727 0.020636 0.0640186 
0.000162142 0.0251126 0.0632249 -0.00563177 0.0268155 0.0633796 0.0038092 0.0311583 0.0632543 
0.01325 0.0319187 0.0630575 0.0165329 0.0385374 0.0632432 -0.00674967 -0.0416523 0.0642016 
0.040047 -0.0404588 0.0655832 0.00594186 -0.0351889 0.0643412 0.00577088 -0.0287415 0.0654179 
-0.0408326 -0.0234295 0.0652468 -0.0108877 -0.0188832 0.0651781 0.00156248 -0.0194187 0.0645399 
0.0030191 -0.0179247 0.0648512 0.0286804 -0.00919085 0.0642434 0.0188762 0.00181355 0.0648315 
0.0305447 0.00486582 0.0645294 -0.0287984 0.00559412 0.0648812 -0.0282566 0.021284 0.0647983 
-0.0409258 0.0305044 0.0652662 0.0251972 0.0393087 0.0651177 -0.0334706 -0.0396012 0.0665525 
0.0336491 -0.0197505 0.0666081 -0.0339565 -0.0167518 0.0666149 -0.0269092 -0.0125643 0.0656641 
-0.0214415 -0.007536 0.0663288 0.00417698 0.0024455 0.065688 0.0287781 0.014071 0.0660762 
-0.0313244 0.0314049 0.0663212 -0.0426154 -0.0165053 0.067735 0.0223879 -0.0163393 0.0677424 
-0.00702036 -0.00121172 0.0677238 -0.00967086 0.00179773 0.0676403 -0.034865 0.0142961 0.067384 
-0.041477 0.0364172 0.0671393 0.0221021 0.0401282 0.0680174 -0.0240719 -0.0268296 0.0680592 
0.0436787 -0.0219137 0.0690721 0.0277003 -0.0107969 0.0689212 -0.00783961 -0.000387029 0.0681253 
-0.0386663 0.0253433 0.0681639 -0.0267569 0.0263983 0.0686019 0.0414821 -0.0410789 0.0698164 
-0.0232422 -0.0321576 0.0697294 0.0404767 -0.0183151 0.0699242 0.0228765 0.00606581 0.0700687 
0.0399323 0.0117688 0.0703285 -0.00739359 0.0259593 0.0704487 0.0191509 0.0299648 0.0702978 
0.0444958 0.0309554 0.0696455 0.00284552 0.0345861 0.0699712 -0.0439713 -0.0357399 0.0711536 
0.0244271 -0.0334586 0.0717923 0.0268369 -0.0315202 0.0718435 -0.0448384 -0.0296834 0.0715176 
0.00623721 -0.0211799 0.0714303 -0.0329121 -0.0139828 0.0718742 0.0251729 -0.00985964 0.0707265 
0.0011249 0.00615697 0.0714757 0.030759 0.00580352 0.0711137 0.00395304 0.0187088 0.0709345 
-0.023041 0.0197144 0.0711775 -0.0357156 0.0282031 0.0709639 -0.0112537 0.0395394 0.0706863 
0.0163992 0.0415262 0.0718576 -0.0205282 0.0432397 0.0707894 -0.044759 -0.0437614 0.0724721 
-0.0370475 -0.0370945 0.0729045 0.0268005 -0.0146468 0.0725362 0.0176437 -0.0119747 0.0721999 
0.0131353 -0.00504642 0.0726426 -0.042786 -0.00359954 0.0730105 -0.0170872 0.00564833 0.072328 
-0.00279986 0.0127222 0.0728197 0.0418335 0.0161761 0.0730151 0.00128112 0.0217131 0.0730397 
0.00805094 0.0422278 0.0730644 0.0244803 -0.0401788 0.0741373 -0.0427235 -0.0332389 0.0740989 
0.023158 -0.0340207 0.0736935 0.00802514 -0.031483 0.0743249 0.032808 -0.025967 0.0733405 
-0.0317771 -0.0175651 0.0735965 -0.038829 -0.00978443 0.0733926 -0.0304645 -0.00701594 0.0733916 
0.0142017 0.0079404 0.0742137 0.0202046 0.00840095 0.0745201 -0.0408092 0.00981999 0.0743972 
0.014866 0.0127598 0.073709 -0.0214239 0.0189608 0.0736444 0.0362273 0.0220011 0.0745007 
0.0226957 0.0260881 0.0735841 -0.00435696 0.0325462 0.073604 -0.027409 -0.0433703 0.0749293 
-0.00670669 -0.0394183 0.0757118 0.00879071 -0.0344865 0.0747527 -0.0262624 -0.032473 0.0753268 
-0.00580099 -0.0272788 0.0748588 -0.00553214 -0.00871323 0.0757914 0.039455 -0.000236508 0.0746653 
0.0147261 0.00139147 0.075571 -0.0392616 0.00972366 0.0750063 0.0226738 0.0181095 0.0753072 
0.0146363 0.0223077 0.0754108 0.00953871 0.0271324 0.0745984 -0.0312382 0.0393096 0.0757138 
0.0399235 0.0434757 0.0755117 -0.00340304 -0.0448428 0.0764767 0.000425919 -0.0415728 0.0775142 
-0.0338231 -0.0250135 0.0764876 0.0363266 -0.0194176 0.0767335 -0.0222502 -0.00974669 0.0762871 
-0.0281455 -0.00127675 0.0768397 -0.037077 0.00611456 0.0762472 -0.0101256 0.00978275 0.077088 
-0.0429188 0.0135204 0.0762912 -0.0431379 0.0208085 0.0769361 -0.0114472 0.026715 0.0767647 
-0.00883869 0.0381834 0.0767986 -0.0204621 -0.0172006 0.0774821 0.0198229 -0.0156851 0.0782861 
0.0249316 -0.014475 0.0773812 -0.0196799 -0.00931279 0.0779646 -0.0135858 -0.00672635 0.0781709 
-0.00723413 0.00605583 0.0781612 -0.0394276 0.0109375 0.0784679 -0.0349287 0.0230684 0.0778771 
0.0418836 -0.0421436 0.0794276 0.0238162 -0.0409762 0.0794882 0.000822496 -0.0363122 0.0786585 
0.027474 -0.0338615 0.0796748 -0.0240024 -0.0280603 0.0787402 0.0306875 -0.0259396 0.0797241 
-0.0227164 -0.0141288 0.0799731 0.0362421 0.00170773 0.079245 0.0404406 0.00462082 0.0793616 
0.0336082 0.013194 0.0786031 0.0388885 0.0193682 0.0792438 0.0238959 0.0383247 0.0796489 
-0.0375088 0.0393741 0.0785951 -0.0346971 -0.0446764 0.0799356 -0.0248654 -0.0427111 0.0808987 
0.0248068 -0.0428986 0.0797801 -0.018434 -0.0405477 0.0807681 0.0397687 -0.0374633 0.0807971 
0.03382 -0.0268981 0.0806178 0.00538025 -0.0241403 0.0802173 -0.0416237 0.00110806 0.0800601 
0.0197977 0.00963841 0.0798461 0.0261916 0.0119357 0.0806761 -0.00307286 0.0144526 0.0810085 
0.00976298 0.0163696 0.0800672 0.00546842 0.0177814 0.0809249 0.0122157 0.0191756 0.0806301 
0.0281745 0.039089 0.0809474 0.0424299 -0.0409921 0.0816162 -0.0108246 -0.0388127 0.0811711 
0.0102479 -0.024092 0.0817535 -0.0225401 -0.0213878 0.0816689 -0.00827992 -0.020547 0.0822537 
-0.0296942 -0.0196153 0.0820512 0.0414517 -0.0114994 0.0824659 -0.00747582 -0.00609419 0.0812327 
0.00523139 -0.00599236 0.0823112 -0.040885 -0.00406647 0.0817823 0.0128044 0.0127337 0.0814157 
-0.0421793 0.0225172 0.081964 -0.0376379 0.0294143 0.0823282 -0.0127911 0.0299546 0.0815072 
0.0311732 0.0371467 0.0812794 -0.00973825 0.0391656 0.0818402 0.0145521 -0.0432303 0.0835924 
0.0403752 -0.0143085 0.0827667 0.0129906 -0.00677597 0.0838778 0.0407777 0.000744206 0.083238 
0.032558 0.00153523 0.0834891 0.0283387 0.00890506 0.0828984 0.0121458 0.0151918 0.0834943 
-0.0190887 0.0269029 0.0823494 0.00372347 0.0304157 0.0824355 -0.0245447 0.0378537 0.082997 
0.0222253 0.0407186 0.0826766 -0.0181988 0.0434549 0.0826539 0.0348044 -0.042095 0.0845721 
0.0346336 -0.0325969 0.0848183 0.00548761 -0.0197918 0.0841176 0.0252581 -0.0163235 0.0847226 
0.0313953 -0.00974065 0.083928 0.0406218 -0.0100941 0.0840802 0.0275881 -0.00673863 0.0845666 
0.0290986 -0.000251763 0.0837317 0.0250346 0.00641518 0.0846183 0.00861143 0.0123591 0.0836987 
-0.00867948 0.0139924 0.0847532 -0.0196462 0.0155185 0.0839652 0.00519606 0.0301696 0.0848514 
0.00390562 0.0317225 0.084666 0.00317215 0.0343196 0.084381 0.0352379 0.0438995 0.0838692 
-0.0349861 -0.0412827 0.0855613 -0.0168273 -0.0360331 0.0852943 -0.00586029 -0.0338127 0.0861119 
-0.0376897 -0.0314333 0.0850196 -0.0263426 -0.0292431 0.0855638 0.0101031 -0.0273014 0.0858479 
-0.0323128 -0.0219837 0.0859277 0.0233461 -0.0214624 0.0856699 0.0394323 -0.021923 0.0849747 
0.0323225 0.00436429 0.0850661 -0.0108954 0.0304 0.0861069 0.0231674 0.0340949 0.0861777 
0.0433459 -0.0353282 0.0879104 0.00264867 -0.0338128 0.0881854 -0.0430551 -0.0267583 0.0866029 
-0.0186412 -0.0134353 0.0866124 0.0161928 -0.00760918 0.0863285 -0.0120059 -0.00345367 0.0873963 
-0.00896956 -0.00131708 0.0872069 0.000954082 0.0152563 0.0869387 0.00264144 0.0247174 0.0873935 
0.0405446 0.0433429 0.0872373 0.0181024 -0.0433049 0.0880057 0.0131812 -0.0427533 0.088214 
-0.0406141 -0.0405112 0.0891902 -0.0350278 -0.0224863 0.0883476 -0.0327621 -0.0121928 0.0882981 
0.0322358 -0.0130621 0.0885792 0.0387156 -0.00624884 0.088529 0.00975646 -0.00313231 0.0881945 
0.0293019 -0.00298432 0.0889273 -0.000610522 -0.00103491 0.0891567 0.0116524 0.00206193 0.0878754 
-0.0261639 0.00337815 0.0883798 0.0311878 0.014057 0.0887624 0.0441199 0.0136981 0.0876112 
0.00126512 0.0228658 0.0887842 0.0354139 0.0312817 0.08957 0.0193546 0.0324404 0.088365 
-0.00585061 0.0388609 0.0883978 0.0352701 0.0439749 0.0882437 0.0338942 -0.0410147 0.0903482 
0.00985621 -0.0367022 0.0890017 0.0449741 -0.0303513 0.0889053 0.00558373 -0.0242787 0.0900806 
0.038292 -0.016257 0.0899107 0.0323803 -0.0150629 0.0895774 -0.00254943 -0.00825679 0.0900773 
-0.0325416 0.00283857 0.0899268 0.00243665 0.00282786 0.0899283 0.0101693 0.00555192 0.0903888 
-0.00841171 0.0143034 0.0896867 0.0407412 0.0174253 0.0893418 -0.0122989 0.0222019 0.0896628 
0.0438582 0.0244724 0.0898485 0.026696 0.03017 0.0888926 0.0166138 -0.0412108 0.0910021 
-0.0233761 -0.031813 0.0907724 -0.0220587 -0.0306349 0.0905118 -0.0414327 -0.0290659 0.0905252 
0.0346338 -0.0290927 0.0910881 -0.0127621 -0.0231756 0.0901647 0.0240101 -0.0228809 0.091246 
0.035159 -0.023363 0.0904488 -0.0344646 -0.00725539 0.0904011 -0.0150798 -0.00698339 0.0912396 
0.0180458 -0.00470109 0.0904713 -0.0107529 -0.00365687 0.0905958 -0.00941413 -0.00330341 0.0910554 
-0.0283489 -0.000417126 0.0908981 -0.025141 0.00447188 0.0905351 0.0277548 0.0042931 0.0914344 
0.0396593 0.013993 0.0909967 0.0398418 0.0217469 0.0911496 0.021223 0.0244832 0.0902897 
0.0395905 0.0272142 0.0903817 0.0372507 0.0318783 0.0909161 -0.00196307 0.0366495 0.0905877 
-0.0309963 -0.0355024 0.0919911 -0.00863888 -0.0237376 0.0926942 0.0184681 -0.0172117 0.0922683 
-0.0147645 -0.0165889 0.0916122 0.0334462 -0.00930086 0.0916457 0.0140084 -6.89735e-05 0.0918312 
-0.009285 0.00693532 0.0926602 -0.0105861 0.00898083 0.091833 0.0211953 0.00966092 0.0920756 
-0.0148746 0.0223253 0.0921004 -0.0267196 0.0236159 0.0927162 -0.0337286 0.0337045 0.0927106 
0.0294278 0.0431452 0.0918985 0.00528787 0.0432844 0.0920134 -0.00396528 -0.0444182 0.0932853 
-0.0386911 -0.0311434 0.0931156 -0.0405162 -0.0161033 0.0941291 0.0342493 -0.0115037 0.0944429 
-0.0211095 -0.00770044 0.0935183 -0.00401126 -0.00720159 0.0932131 0.0404774 -0.00688032 0.0929914 
0.0110904 0.00657535 0.0943355 -0.0365733 0.0119208 0.0932997 0.00243185 0.0120975 0.0934976 
0.018015 0.0183735 0.0933535 0.0258603 0.0235991 0.0933015 -0.032208 0.0306075 0.0939481 
0.0191028 0.0315895 0.0939596 0.00727395 0.0332762 0.0939266 0.00201585 0.0404036 0.0934267 
0.0195053 -0.043722 0.0941287 -0.0160452 -0.0323821 0.0948489 0.0155599 -0.0240909 0.0944656 
-0.0210835 -0.0209207 0.0950545 -0.0033641 -0.0204173 0.0951996 -0.0343844 -0.0078404 0.0956917 
0.0200271 -0.00425623 0.0949628 -0.0408474 -0.00214648 0.0940981 0.0168839 -0.00210364 0.0941257 
-0.0376932 -0.000132947 0.0950328 -0.0153419 -0.00108619 0.0942895 0.0260144 0.00429017 0.0946006 
-0.00598638 0.00689803 0.094817 -0.0425374 0.0333781 0.0952446 0.00888594 0.0360502 0.0953286 
-0.0136468 -0.0412372 0.0953997 -0.0161578 -0.0337243 0.0954172 -0.00446216 -0.0255279 0.0970007 
0.0350196 -0.0250011 0.0960911 0.00179778 -0.0247441 0.0956487 -0.0291427 -0.0219343 0.096082 
-0.0393221 -0.0167834 0.0962008 -0.00528066 -0.0121118 0.0961483 -0.0326334 -0.00963456 0.0967529 
0.0242571 -0.0100823 0.095621 -0.0198668 -0.00211416 0.0961934 0.0183943 0.00266245 0.0964857 
-0.0429246 0.00657681 0.095652 0.00533928 0.00728904 0.0959453 -0.0269229 0.0267788 0.0968313 
-0.0128609 0.0265935 0.0957207 0.00834461 0.0278725 0.0961748 0.0278529 0.0342296 0.0963881 
0.0030545 0.0369981 0.0964026 -0.0133259 0.0414802 0.0962668 -0.0177803 -0.0340186 0.0974595 
0.0392765 -0.0300093 0.0973571 0.0153133 -0.0285941 0.0973224 0.0164647 -0.0275391 0.0977374 
0.0347572 -0.0260666 0.0972076 0.0272875 -0.0186725 0.0973288 0.0144468 -0.013247 0.096692 
0.00664535 -0.00164817 0.0974976 -0.00552594 0.00555795 0.0977579 0.0114764 0.0140289 0.0985701 
-0.0231109 0.0157017 0.09733 0.0153641 0.0146287 0.0985739 0.00742845 0.0199749 0.0971922 
-0.0152062 0.0294088 0.0978279 -0.039126 0.0399637 0.0976251 0.0416479 -0.0439733 0.0986676 
0.0406519 -0.0427256 0.0989154 0.0077947 -0.0345433 0.0985215 0.0204492 -0.0194639 0.0983045 
-0.0341597 -0.0122829 0.0984109 -0.0253129 -0.0039775 0.0980509 -0.00229178 0.0020129 0.0988719 
-0.0233311 0.00384073 0.0987964 0.0332757 0.00539899 0.0985259 -0.0287332 0.0215601 0.0987075 
-0.0324762 0.0230005 0.0979894 -0.0295899 0.0232577 0.0990581 -0.0406313 0.0295913 0.099378 
-0.0160353 0.0448572 0.0988152 0.00231692 -0.0294453 0.0997548 -0.0346801 -0.0287009 0.100455 
0.0262592 -0.0217201 0.100017 -0.0279963 -0.0141356 0.100021 -0.019893 0.00878872 0.0993651 
-0.00071691 0.0108932 0.0994462 0.0397191 0.0283771 0.100122 -0.0368667 0.0306348 0.100012 
0.0380057 0.0324307 0.100093 -0.0390775 0.0447256 0.099627 -0.0273176 -0.0361067 0.101027 
0.0054016 -0.025334 0.101498 0.0115492 -0.0227248 0.100616 0.0218308 -0.0192565 0.10183 
0.0132043 -0.01541 0.100703 0.0223025 -0.0112244 0.102113 0.0253763 -0.011051 0.10165 
0.0352883 -0.0103067 0.101123 0.0448793 -0.00396119 0.100886 0.0189244 0.00254502 0.100804 
0.00314898 0.00491531 0.101858 0.0358407 0.00533501 0.101702 -0.0408306 0.00999374 0.101222 
0.00474506 0.0103043 0.100611 0.0234497 0.00978487 0.100805 0.027557 0.009967 0.101564 
-0.00808524 0.0113378 0.100928 -0.0350204 0.0121089 0.101053 -0.0408838 0.0159645 0.101505 
-0.0122189 0.0175978 0.101612 0.0337272 0.0324898 0.101644 0.00367032 0.0371324 0.100629 
-0.00647711 0.0391566 0.101118 0.0114086 0.0440135 0.101544 0.0171919 0.0449185 0.101227 
0.00849583 -0.0405939 0.103118 -0.0195638 -0.0385913 0.102361 0.0325128 -0.03812 0.102376 
0.0195647 -0.0366528 0.102059 -0.0432264 -0.0264101 0.103208 -0.0164034 -0.0216001 0.103136 
-0.0137512 0.00384646 0.102925 -0.0406381 0.00555966 0.102137 -0.0442311 0.00821601 0.102318 
0.0434247 0.0295768 0.102488 0.0152528 0.033152 0.1033 0.0211706 0.0445491 0.102733 
-0.0389435 -0.0425966 0.104303 -0.0177429 -0.0346724 0.10391 -0.0396817 -0.0304797 0.103637 
-0.0328213 -0.0176588 0.103168 -0.0408642 -0.0154151 0.103562 -0.015814 -0.0152491 0.10328 
0.0375745 -0.0151367 0.103438 -0.0131355 0.00164571 0.104286 -0.0403489 0.00598291 0.103424 
0.0324887 0.00836074 0.103968 0.00757299 0.0192258 0.103324 0.0350116 0.0207306 0.104208 
0.0040127 0.0314243 0.103279 -0.0422696 0.0340949 0.104797 0.0185094 -0.042363 0.105937 
0.0339316 -0.041715 0.105406 -0.0169239 -0.0402939 0.105264 0.043014 -0.0343178 0.105643 
-0.0207996 -0.0190456 0.104718 0.00886689 -0.0141191 0.104694 -0.0253401 -0.0103599 0.104983 
0.0420414 -0.00101026 0.105001 0.00265626 0.00371614 0.105643 0.00789931 0.0136568 0.104746 
0.012949 0.0143048 0.104676 0.00153271 0.0201988 0.10501 -0.0436572 0.0238848 0.105369 
-0.0407273 0.0358476 0.105267 0.0170579 0.0421878 0.104631 -0.0440308 0.0448256 0.105669 
-0.00161929 -0.0353994 0.106603 0.0355384 -0.0354155 0.106017 -0.0210092 -0.0320472 0.105941 
0.023019 -0.0293484 0.106158 -0.0401314 -0.0280847 0.106669 0.0210005 -0.0239559 0.106316 
0.0282033 -0.0178095 0.106505 -0.0207563 -0.0111167 0.107162 -0.00474481 -0.00600267 0.106304 
-0.027449 0.00511055 0.106664 -0.01547 0.00642247 0.106251 -0.0287818 0.014969 0.106964 
-0.00443291 0.0160613 0.10584 -0.0363159 0.0185996 0.106993 -0.0214233 0.0285543 0.106325 
-0.0213481 0.0319153 0.107317 -0.00750544 0.0361316 0.10697 -0.0289295 -0.0389067 0.107611 
0.0341086 -0.0368686 0.109062 -0.0179089 -0.0346335 0.107903 -8.23525e-05 -0.034098 0.108134 
0.0403097 -0.0347888 0.107399 -0.0139777 -0.0223984 0.108354 0.0134129 -0.0192809 0.10811 
-0.0183202 -0.0175475 0.108017 -0.00710141 -0.0133745 0.108244 0.00978397 0.00922321 0.107689 
0.012585 0.0155082 0.10821 0.0440772 0.0154938 0.107762 -0.0286532 0.0159811 0.107759 
0.0256029 0.0175394 0.108092 -0.00472634 0.0344449 0.108339 0.00513794 0.0433856 0.108486 
-0.0317519 -0.0446953 0.108371 -0.00682403 -0.0314098 0.10852 0.0412685 -0.0295104 0.109111 
0.0156293 -0.0283842 0.109568 0.0296492 -0.015918 0.108815 -0.0332593 0.000859011 0.109586 
0.0379188 0.0120326 0.109811 -0.0161548 0.0159009 0.109324 -0.00317984 0.0164631 0.108497 
0.0323341 0.0191974 0.109238 -0.0132251 0.0252506 0.10891 -0.0260391 0.0304395 0.109609 
0.0289145 -0.0340196 0.110946 0.010226 -0.0308634 0.110823 -0.015788 -0.0282898 0.111447 
0.0109547 -0.0235646 0.110903 0.0347312 -0.012978 0.110085 0.0218314 -0.00971151 0.110417 
0.00127443 -0.000618905 0.110037 -0.0371624 0.011326 0.111504 0.00418285 0.0112423 0.110882 
-0.00831541 0.0129665 0.109869 -0.0138035 0.0240512 0.110145 -0.0359241 0.0337864 0.109659 
0.0132394 0.0345575 0.110154 -0.0190394 0.0446837 0.110652 0.0201641 -0.0426709 0.111326 
-0.0234086 -0.038644 0.111662 0.0414834 -0.0181367 0.112278 -0.0313057 -0.0141988 0.111933 
0.0323804 -0.0132471 0.111601 -0.0101373 -0.00698039 0.111682 -0.0436896 0.0195853 0.111068 
0.00976854 0.0197772 0.112145 0.0147823 -0.0446949 0.11355 -0.0225361 -0.0441701 0.112844 
0.0307351 -0.0355434 0.112459 -0.038621 -0.0229432 0.113363 -0.0329608 -0.0218045 0.114078 
-0.042331 -0.00792816 0.112322 0.0127657 -0.00746761 0.11262 -0.00720807 -0.00608605 0.112491 
0.0386193 -0.00496685 0.11275 -0.0395569 -0.00227866 0.112987 -0.0349081 0.00917553 0.113362 
-0.0144089 0.0201081 0.114137 -0.0219587 0.0304934 0.112742 -0.0379532 0.0399341 0.11299 
-0.00785852 0.041878 0.113166 0.0430506 0.0422314 0.113477 0.0262096 -0.0449372 0.114356 
-0.00338111 -0.0363358 0.113954 -0.0449336 -0.00957357 0.115292 -0.0136128 -0.00979682 0.114544 
-0.0193355 0.018129 0.11439 -0.014478 0.0275162 0.114269 0.0214431 0.0335886 0.114274 
-0.0336946 -0.0248459 0.116193 -0.0420316 -0.0145538 0.116468 -0.024842 -0.00884532 0.116843 
0.0154702 -0.00154679 0.117062 0.023953 0.00820576 0.117168 -0.0385899 -0.0405251 0.11915 
0.0414788 -0.00521487 0.118598 0.0133448 0.00646544 0.118413 0.0104707 0.0313218 0.118827 
0.0164577 0.0353116 0.118483 0.00635633 0.000852437 0.1203 -0.0102477 0.0267602 0.120256 
0.00308146 0.0401468 0.12084 0.00357123 -0.00830953 0.12277 -0.0281804 0.0418824 0.122652 
-0.00521279 -0.0413279 0.123638 0.0320014 0.00756294 0.124082 0.0439232 0.0371117 0.124255 
-0.0437633 0.0406561 0.124504 -0.0328109 -0.0226975 0.12456 0.0302919 -0.0148257 0.124547 
0.0433204 -0.0141837 0.125993 -0.0256005 0.0215871 0.125652 -0.0296003 0.0277025 0.125655 
-0.0197415 0.0344175 0.124946 -0.0419519 -0.0259749 0.125989 -0.0081225 0.0151775 0.127362 
-0.0155539 0.0359545 0.127344 0.0131273 0.040817 0.128555 -0.00757157 0.00454821 0.130273 
0.0282359 -0.00877456 0.13204 0.0188903 -0.0308528 0.133631 -0.0386256 -0.00983966 0.132303 
-0.0356048 -0.000104637 0.133057 -0.0170112 0.0231088 0.133041 -0.0245993 0.0193658 0.134142 
0.0419483 -0.0348097 0.13547 0.00741479 -0.0295782 0.135638 -0.0207679 -0.0256315 0.136292 
0.00347554 0.00338662 0.135263 -0.00254916 -0.00379952 0.137113 0.00643655 -0.000956063 0.136543 

VERTICES 649 648
OFFSETS vtktypeint64
0 1 2 3 4 5 6 7 8 
9 10 11 12 13 14 15 16 17 
18 19 20 21 22 23 24 25 26 
27 28 29 30 31 32 33 34 35 
36 37 38 39 40 41 42 43 44 
45 46 47 48 49 50 51 52 53 
54 55 56 57 58 59 60 61 62 
63 64 65 66 67 68 69 70 71 
72 73 74 75 76 77 78 79 80 
81 82 83 84 85 86 87 88 89 
90 91 92 93 94 95 96 97 98 
99 100 101 102 103 104 105 106 107 
108 109 110 111 112 113 114 115 116 
117 118 119 120 121 122 123 124 125 
126 127 128 129 130 131 132 133 134 
135 136 137 138 139 140 141 142 143 
144 145 146 147 148 149 150 151 152 
153 154 155 156 157 158 159 160 161 
162 163 164 165 166 167 168 169 170 
171 172 173 174 175 176 177 178 179 
180 181 182 183 184 185 186 187 188 
189 190 191 192 193 194 195 196 197 
198 199 200 201 202 203 204 205 206 
207 208 209 210 211 212 213 214 215 
216 217 218 219 220 221 222 223 224 
225 226 227 228 229 230 231 232 233 
234 235 236 237 238 239 240 241 242 
243 244 245 246 247 248 249 250 251 
252 253 254 255 256 257 258 259 260 
261 262 263 264 265 266 267 268 269 
270 271 272 273 274 275 276 277 278 
279 280 281 282 283 284 285 286 287 
288 289 290 291 292 293 294 295 296 
297 298 299 300 301 302 303 304 305 
306 307 308 309 310 311 312 313 314 
315 316 317 318 319 320 321 322 323 
324 325 326 327 328 329 330 331 332 
333 334 335 336 337 338 339 340 341 
342 343 344 345 346 347 348 349 350 
351 352 353 354 355 356 357 358 359 
360 361 362 363 364 365 366 367 368 
369 370 371 372 373 374 375 376 377 
378 379 380 381 382 383 384 385 386 
387 388 389 390 391 392 393 394 395 
396 397 398 399 400 401 402 403 404 
405 406 407 408 409 410 411 412 413 
414 415 416 417 418 419 420 421 422 
423 424 425 426 427 428 429 430 431 
432 433 434 435 436 437 438 439 440 
441 442 443 444 445 446 447 448 449 
450 451 452 453 454 455 456 457 458 
459 460 461 462 463 464 465 466 467 
468 469 470 471 472 473 474 475 476 
477 478 479 480 481 482 483 484 485 
486 487 488 489 490 491 492 493 494 
495 496 497 498 499 500 501 502 503 
504 505 506 507 508 509 510 511 512 
513 514 515 516 517 518 519 520 521 
522 523 524 525 526 527 528 529 530 
531 532 533 534 535 536 537 538 539 
540 541 542 543 544 545 546 547 548 
549 550 551 552 553 554 555 556 557 
558 559 560 561 562 563 564 565 566 
567 568 569 570 571 572 573 574 575 
576 577 578 579 580 581 582 583 584 
585 586 587 588 589 590 591 592 593 
594 595 596 597 598 599 600 601 602 
603 604 605 606 607 608 609 610 611 
612 613 614 615 616 617 618 619 620 
621 622 623 624 625 626 627 628 629 
630 631 632 633 634 635 636 637 638 
639 640 641 642 643 644 645 646 647 
648 
CONNECTIVITY vtktypeint64
0 1 2 3 4 5 6 7 8 
9 10 11 12 13 14 15 16 17 
18 19 20 21 22 23 24 25 26 
27 28 29 30 31 32 33 34 35 
36 37 38 39 40 41 42 43 44 
45 46 47 48 49 50 51 52 53 
54 55 56 57 58 59 60 61 62 
63 64 65 66 67 68 69 70 71 
72 73 74 75 76 77 78 79 80 
81 82 83 84 85 86 87 88 89 
90 91 92 93 94 95 96 97 98 
99 100 101 102 103 104 105 106 107 
108 109 110 111 112 113 114 115 116 
117 118 119 120 121 122 123 124 125 
126 127 128 129 130 131 132 133 134 
135 136 137 138 139 140 141 142 143 
144 145 146 147 148 149 150 151 152 
153 154 155 156 157 158 159 160 161 
162 163 164 165 166 167 168 169 170 
171 172 173 174 175 176 177 178 179 
180 181 182 183 184 185 186 187 188 
189 190 191 192 193 194 195 196 197 
198 199 200 201 202 203 204 205 206 
207 208 209 210 211 212 213 214 215 
216 217 218 219 220 221 222 223 224 
225 226 227 228 229 230 231 232 233 
234 235 236 237 238 239 240 241 242 
243 244 245 246 247 248 249 250 251 
252 253 254 255 256 257 258 259 260 
261 262 263 264 265 266 267 268 269 
270 271 272 273 274 275 276 277 278 
279 280 281 282 283 284 285 286 287 
288 289 290 291 292 293 294 295 296 
297 298 299 300 301 302 303 304 305 
306 307 308 309 310 311 312 313 314 
315 316 317 318 319 320 321 322 323 
324 325 326 327 328 329 330 331 332 
333 334 335 336 337 338 339 340 341 
342 343 344 345 346 347 348 349 350 
351 352 353 354 355 356 357 358 359 
360 361 362 363 364 365 366 367 368 
369 370 371 372 373 374 375 376 377 
378 379 380 381 382 383 384 385 386 
387 388 389 390 391 392 393 394 395 
396 397 398 399 400 401 402 403 404 
405 406 407 408 409 410 411 412 413 
414 415 416 417 418 419 420 421 422 
423 424 425 426 427 428 429 430 431 
432 433 434 435 436 437 438 439 440 
441 442 443 444 445 446 447 448 449 
450 451 452 453 454 455 456 457 458 
459 460 461 462 463 464 465 466 467 
468 469 470 471 472 473 474 475 476 
477 478 479 480 481 482 483 484 485 
486 487 488 489 490 491 492 493 494 
495 496 497 498 499 500 501 502 503 
504 505 506 507 508 509 510 511 512 
513 514 515 516 517 518 519 520 521 
522 523 524 525 526 527 528 529 530 
531 532 533 534 535 536 537 538 539 
540 541 542 543 544 545 546 547 548 
549 550 551 552 553 554 555 556 557 
558 559 560 561 562 563 564 565 566 
567 568 569 570 571 572 573 574 575 
576 577 578 579 580 581 582 583 584 
585 586 587 588 589 590 591 592 593 
594 595 596 597 598 599 600 601 602 
603 604 605 606 607 608 609 610 611 
612 613 614 615 616 617 618 619 620 
621 622 623 624 625 626 627 628 629 
630 631 632 633 634 635 636 637 638 
639 640 641 642 643 644 645 646 647 

POINT_DATA 648
FIELD FieldData 12
id 1 648 int
200 428 6 57 134 107 231 127 383 
396 197 169 26 270 362 164 115 291 
176 465 86 423 149 195 372 356 88 
381 336 370 11 385 219 12 185 247 
215 72 353 450 214 150 491 18 366 
459 190 106 125 418 165 373 189 187 
253 87 92 304 237 58 293 193 433 
364 14 83 322 339 166 9 280 158 
29 246 457 508 367 331 282 154 440 
289 483 186 458 407 49 506 386 256 
470 73 8 10 175 310 488 496 444 
66 36 297 233 435 13 317 292 132 
100 408 207 404 355 467 432 162 321 
327 85 22 347 5 137 167 500 427 
456 454 417 521 410 155 412 406 463 
411 290 349 515 263 478 60 40 337 
91 326 229 51 505 267 439 16 399 
424 112 4 21 110 529 163 222 188 
314 319 303 409 324 2 90 261 54 
104 199 318 351 98 591 415 238 227 
542 495 288 384 357 30 559 298 168 
240 248 32 486 601 330 218 429 24 
589 96 121 612 61 141 236 161 328 
76 275 113 390 35 122 183 484 75 
255 446 202 15 587 447 536 271 34 
223 64 174 479 638 243 377 567 378 
287 451 504 198 320 84 211 580 196 
538 129 308 498 201 437 62 375 140 
543 28 553 157 311 615 341 474 401 
119 178 81 148 313 475 562 226 571 
477 295 645 576 472 111 216 343 251 
605 616 128 59 278 257 151 469 520 
272 346 414 549 526 146 566 299 20 
592 564 208 519 395 63 394 623 65 
45 397 577 102 352 79 170 74 260 
334 244 546 17 392 431 206 268 52 
239 250 393 294 416 323 329 53 522 
252 171 142 205 56 613 363 279 78 
461 94 232 487 493 551 462 38 265 
425 144 420 325 109 348 108 342 89 
333 572 628 511 42 368 528 345 273 
117 507 596 481 225 123 93 570 71 
403 25 563 105 360 371 204 217 379 
213 455 286 68 156 604 335 116 547 
618 43 617 1 405 305 301 426 637 
266 509 421 182 361 350 533 147 445 
430 516 460 135 545 633 70 622 281 
540 523 31 471 489 448 380 285 565 
212 126 138 130 254 524 614 139 354 
573 276 124 221 179 594 466 476 82 
532 449 558 376 599 340 3 50 77 
593 153 453 338 296 480 442 181 315 
7 180 482 413 302 55 136 210 359 
436 527 160 300 503 316 114 579 438 
258 518 525 274 143 374 194 499 501 
145 443 33 332 550 635 597 99 47 
177 441 23 80 598 46 41 561 191 
309 434 639 159 344 307 103 502 234 
517 585 557 284 245 48 220 485 209 
583 452 312 626 402 388 69 513 44 
539 490 497 560 358 228 118 387 586 
242 398 548 120 422 389 620 468 473 
607 131 269 634 283 629 192 259 101 
365 595 464 262 97 494 391 172 203 
173 603 306 530 39 152 514 241 230 
492 37 578 95 27 224 133 382 400 
625 419 249 277 19 534 67 554 264 
184 369 235 581 590 569 610 510 648 
647 512 611 552 630 535 643 608 555 
632 556 531 575 541 537 644 646 609 
600 574 619 624 606 631 602 636 544 
568 588 582 584 640 627 641 642 621 

type 1 648 int
1 1 2 1 1 1 1 1 1 
1 1 1 1 1 1 1 1 1 
1 1 1 1 1 1 1 1 1 
1 1 1 2 1 1 2 1 1 
1 1 1 1 1 1 1 1 1 
1 1 1 1 1 1 1 1 1 
1 1 1 1 1 1 1 1 1 
1 2 1 1 1 1 2 1 1 
1 1 1 1 1 1 1 1 1 
1 1 1 1 1 1 1 1 1 
1 1 2 2 1 1 1 1 1 
1 1 1 1 1 2 1 1 1 
1 1 1 1 1 1 1 1 1 
1 1 1 1 2 1 1 1 1 
1 1 1 1 1 1 1 1 1 
1 1 1 1 1 1 1 1 1 
1 1 1 1 1 1 1 2 1 
1 1 2 1 1 1 1 1 1 
1 1 1 1 1 3 1 1 1 
1 1 1 1 1 1 1 1 1 
1 1 1 1 1 1 1 1 1 
1 1 1 1 1 1 1 1 1 
1 1 1 1 1 1 1 1 1 
1 1 1 1 1 1 1 1 1 
1 1 1 2 1 1 1 1 1 
1 1 1 1 1 1 1 1 1 
1 1 1 1 1 1 1 1 1 
1 1 1 1 1 1 1 1 1 
1 1 1 1 1 1 1 1 1 
1 1 1 1 1 1 1 1 1 
1 1 1 1 1 1 1 1 1 
1 1 1 1 1 1 1 1 1 
1 1 1 1 1 1 1 1 1 
1 1 1 1 1 1 1 1 1 
1 1 1 1 1 1 1 1 1 
1 1 1 1 1 1 1 1 1 
1 1 1 1 1 1 1 1 1 
1 1 1 1 1 1 1 1 1 
1 1 1 1 1 1 1 1 1 
1 1 1 1 1 1 1 1 1 
1 1 1 1 1 1 1 1 1 
1 1 1 1 1 1 1 1 1 
1 1 1 1 1 1 1 1 1 
1 1 1 1 1 1 1 1 1 
1 1 1 4 1 1 1 1 1 
1 1 1 1 1 1 1 1 1 
1 2 1 1 1 1 1 1 1 
1 1 1 1 1 1 1 1 1 
1 1 1 1 1 1 1 1 1 
1 1 1 1 1 1 1 1 1 
1 1 1 1 1 1 2 1 1 
1 1 1 1 1 1 1 1 1 
2 1 1 1 1 1 1 1 1 
1 1 1 1 1 1 1 1 1 
1 1 1 1 1 1 1 1 1 
1 1 1 1 1 1 1 1 1 
1 1 1 1 1 1 1 1 1 
1 1 1 1 1 1 1 1 1 
1 1 1 1 1 1 1 1 1 
1 1 1 1 1 1 1 1 1 
1 1 1 1 1 1 1 1 1 
1 1 1 1 1 1 1 1 1 
1 1 1 2 1 1 1 1 1 
1 1 1 1 1 1 1 1 1 
1 1 1 1 1 1 1 1 1 
1 1 1 1 1 1 1 1 1 
1 1 1 1 1 1 1 1 1 
1 1 1 1 1 1 1 1 1 
1 2 1 1 1 1 1 1 1 
1 1 1 1 1 1 1 1 1 
1 1 1 1 1 1 1 1 1 
1 1 1 1 1 1 1 1 1 

i 3 648 int
0 0 0 0 0 0 0 0 0 
0 0 0 0 0 0 0 0 0 
0 0 0 0 0 0 0 0 0 
0 0 0 0 0 0 0 0 0 
0 0 0 0 0 0 0 0 0 
0 0 0 0 0 0 0 0 0 
0 0 0 0 0 0 0 0 0 
0 0 0 0 0 0 0 0 0 
0 0 0 0 0 0 0 0 0 
0 0 0 0 0 0 0 0 0 
0 0 0 0 0 0 0 0 0 
0 0 0 0 0 0 0 0 0 
0 0 0 0 0 0 0 0 0 
0 0 0 0 0 0 0 0 0 
0 0 0 0 0 0 0 0 0 
0 0 0 0 0 0 0 0 0 
0 0 0 0 0 0 0 0 0 
0 0 0 0 0 0 0 0 0 
0 0 0 0 0 0 0 0 0 
0 0 0 0 0 0 0 0 0 
0 0 0 0 0 0 0 0 0 
0 0 0 0 0 0 0 0 0 
0 0 0 0 0 0 0 0 0 
0 0 0 0 0 0 0 0 0 
0 0 0 0 0 0 0 0 0 
0 0 0 0 0 0 0 0 0 
0 0 0 0 0 0 0 0 0 
0 0 0 0 0 0 0 0 0 
0 0 0 0 0 0 0 0 0 
0 0 0 0 0 0 0 0 0 
0 0 0 0 0 0 0 0 0 
0 0 0 0 0 0 0 0 0 
0 0 0 0 0 0 0 0 0 
0 0 0 0 0 0 0 0 0 
0 0 0 0 0 0 0 0 0 
0 0 0 0 0 0 0 0 0 
0 0 0 0 0 0 0 0 0 
0 0 0 0 0 0 0 0 0 
0 0 0 0 0 0 0 0 0 
0 0 0 0 0 0 0 0 0 
0 0 0 0 0 0 0 0 0 
0 0 0 0 0 0 0 0 0 
0 0 0 0 0 0 0 0 0 
0 0 0 0 0 0 0 0 0 
0 0 0 0 0 0 0 0 0 
0 0 0 0 0 0 0 0 0 
0 0 0 0 0 0 0 0 0 
0 0 0 0 0 0 0 0 0 
0 0 0 0 0 0 0 0 0 
0 0 0 0 0 0 0 0 0 
0 0 0 0 0 0 0 0 0 
0 0 0 0 0 0 0 0 0 
0 0 0 0 0 0 0 0 0 
0 0 0 0 0 0 0 0 0 
0 0 0 0 0 0 0 0 0 
0 0 0 0 0 0 0 0 0 
0 0 0 0 0 0 0 0 0 
0 0 0 0 0 0 0 0 0 
0 0 0 0 0 0 0 0 0 
0 0 0 0 0 0 0 0 0 
0 0 0 0 0 0 0 0 0 
0 0 0 0 0 0 0 0 0 
0 0 0 0 0 0 0 0 0 
0 0 0 0 0 0 0 0 0 
0 0 0 0 0 0 0 0 0 
0 0 0 0 0 0 0 0 0 
0 0 0 0 0 0 0 0 0 
0 0 0 0 0 0 0 0 0 
0 0 0 0 0 0 0 0 0 
0 0 0 0 0 0 0 0 0 
0 0 0 0 0 0 0 0 0 
0 0 0 0 0 0 0 0 0 
0 0 0 0 0 0 0 0 0 
0 0 0 0 0 0 0 0 0 
0 0 0 0 0 0 0 0 0 
0 0 0 0 0 0 0 0 0 
0 0 0 0 0 0 0 0 0 
0 0 0 0 0 0 0 0 0 
0 0 0 0 0 0 0 0 0 
0 0 0 0 0 0 0 0 0 
0 0 0 0 0 0 0 0 0 
0 0 0 0 0 0 0 0 0 
0 0 0 0 0 0 0 0 0 
0 0 0 0 0 0 0 0 0 
0 0 0 0 0 0 0 0 0 
0 0 0 0 0 0 0 0 0 
0 0 0 0 0 0 0 0 0 
0 0 0 0 0 0 0 0 0 
0 0 0 0 0 0 0 0 0 
0 0 0 0 0 0 0 0 0 
0 0 0 0 0 0 0 0 0 
0 0 0 0 0 0 0 0 0 
0 0 0 0 0 0 0 0 0 
0 0 0 0 0 0 0 0 0 
0 0 0 0 0 0 0 0 0 
0 0 0 0 0 0 0 0 0 
0 0 0 0 0 0 0 0 0 
0 0 0 0 0 0 0 0 0 
0 0 0 0 0 0 0 0 0 
0 0 0 0 0 0 0 0 0 
0 0 0 0 0 0 0 0 0 
0 0 0 0 0 0 0 0 0 
0 0 0 0 0 0 0 0 0 
0 0 0 0 0 0 0 0 0 
0 0 0 0 0 0 0 0 0 
0 0 0 0 0 0 0 0 0 
0 0 0 0 0 0 0 0 0 
0 0 0 0 0 0 0 0 0 
0 0 0 0 0 0 0 0 0 
0 0 0 0 0 0 0 0 0 
0 0 0 0 0 0 0 0 0 
0 0 0 0 0 0 0 0 0 
0 0 0 0 0 0 0 0 0 
0 0 0 0 0 0 0 0 0 
0 0 0 0 0 0 0 0 0 
0 0 0 0 0 0 0 0 0 
0 0 0 0 0 0 0 0 0 
0 0 0 0 0 0 0 0 0 
0 0 0 0 0 0 0 0 0 
0 0 0 0 0 0 0 0 0 
0 0 0 0 0 0 0 0 0 
0 0 0 0 0 0 0 0 0 
0 0 0 0 0 0 0 0 0 
0 0 0 0 0 0 0 0 0 
0 0 0 0 0 0 0 0 0 
0 0 0 0 0 0 0 0 0 
0 0 0 0 0 0 0 0 0 
0 0 0 0 0 0 0 0 0 
0 0 0 0 0 0 0 0 0 
0 0 0 0 0 0 0 0 0 
0 0 0 0 0 0 0 0 0 
0 0 0 0 0 0 0 0 0 
0 0 0 0 0 0 0 0 0 
0 0 0 0 0 0 0 0 0 
0 0 0 0 0 0 0 0 0 
0 0 0 0 0 0 0 0 0 
0 0 0 0 0 0 0 0 0 
0 0 0 0 0 0 0 0 0 
0 0 0 0 0 0 0 0 0 
0 0 0 0 0 0 0 0 0 
0 0 0 0 0 0 0 0 0 
0 0 0 0 0 0 0 0 0 
0 0 0 0 0 0 0 0 0 
0 0 0 0 0 0 0 0 0 
0 0 0 0 0 0 0 0 0 
0 0 0 0 0 0 0 0 0 
0 0 0 0 0 0 0 0 0 
0 0 0 0 0 0 0 0 0 
0 0 0 0 0 0 0 0 0 
0 0 0 0 0 0 0 0 0 
0 0 0 0 0 0 0 0 0 
0 0 0 0 0 0 0 0 0 
0 0 0 0 0 0 0 0 0 
0 0 0 0 0 0 0 0 0 
0 0 0 0 0 0 0 0 0 
0 0 0 0 0 0 0 0 0 
0 0 0 0 0 0 0 0 0 
0 0 0 0 0 0 0 0 0 
0 0 0 0 0 0 0 0 0 
0 0 0 0 0 0 0 0 0 
0 0 0 0 0 0 0 0 0 
0 0 0 0 0 0 0 0 0 
0 0 0 0 0 0 0 0 0 
0 0 0 0 0 0 0 0 0 
0 0 0 0 0 0 0 0 0 
0 0 0 0 0 0 0 0 0 
0 0 0 0 0 0 0 0 0 
0 0 0 0 0 0 0 0 0 
0 0 0 0 0 0 0 0 0 
0 0 0 0 0 0 0 0 0 
0 0 0 0 0 0 0 0 0 
0 0 0 0 0 0 0 0 0 
0 0 0 0 0 0 0 0 0 
0 0 0 0 0 0 0 0 0 
0 0 0 0 0 0 0 0 0 
0 0 0 0 0 0 0 0 0 
0 0 0 0 0 0 0 0 0 
0 0 0 0 0 0 0 0 0 
0 0 0 0 0 0 0 0 0 
0 0 0 0 0 0 0 0 0 
0 0 0 0 0 0 0 0 0 
0 0 0 0 0 0 0 0 0 
0 0 0 0 0 0 0 0 0 
0 0 0 0 0 0 0 0 0 
0 0 0 0 0 0 0 0 0 
0 0 0 0 0 0 0 0 0 
0 0 0 0 0 0 0 0 0 
0 0 0 0 0 0 0 0 0 
0 0 0 0 0 0 0 0 0 
0 0 0 0 0 0 0 0 0 
0 0 0 0 0 0 0 0 0 
0 0 0 0 0 0 0 0 0 
0 0 0 0 0 0 0 0 0 
0 0 0 0 0 0 0 0 0 
0 0 0 0 0 0 0 0 0 
0 0 0 0 0 0 0 0 0 
0 0 0 0 0 0 0 0 0 
0 0 0 0 0 0 0 0 0 
0 0 0 0 0 0 0 0 0 
0 0 0 0 0 0 0 0 0 
0 0 0 0 0 0 0 0 0 
0 0 0 0 0 0 0 0 0 
0 0 0 0 0 0 0 0 0 
0 0 0 0 0 0 0 0 0 
0 0 0 0 0 0 0 0 0 
0 0 0 0 0 0 0 0 0 
0 0 0 0 0 0 0 0 0 
0 0 0 0 0 0 0 0 0 
0 0 0 0 0 0 0 0 0 
0 0 0 0 0 0 0 0 0 
0 0 0 0 0 0 0 0 0 
0 0 0 0 0 0 0 0 0 
0 0 0 0 0 0 0 0 0 
0 0 0 0 0 0 0 0 0 
0 0 0 0 0 0 0 0 0 
0 0 0 0 0 0 0 0 0 

v 3 648 double
0 0 -0.2869991875 0 0 -0.2869991875 0 0 -0.2869991875 
0 0 -0.2869991875 0 0 -0.2869991875 0 0 -0.2869991875 
0 0 -0.2869991875 0 0 -0.2869991875 0 0 -0.2869991875 
0 0 -0.2869991875 0 0 -0.2869991875 0 0 -0.2869991875 
0 0 -0.2869991875 0 0 -0.2869991875 0 0 -0.2869991875 
0 0 -0.2869991875 0 0 -0.2869991875 0 0 -0.2869991875 
0 0 -0.2869991875 0 0 -0.2869991875 0 0 -0.2869991875 
0 0 -0.2869991875 0 0 -0.2869991875 0 0 -0.2869991875 
0 0 -0.2869991875 0 0 -0.2869991875 0 0 -0.2869991875 
0 0 -0.2869991875 0 0 -0.2869991875 0 0 -0.2869991875 
0 0 -0.2869991875 0 0 -0.2869991875 0 0 -0.2869991875 
0 0 -0.2869991875 0 0 -0.2869991875 0 0 -0.2869991875 
0 0 -0.2869991875 0 0 -0.2869991875 0 0 -0.2869991875 
0 0 -0.2869991875 0 0 -0.2869991875 0 0 -0.2869991875 
0 0 -0.2869991875 0 0 -0.2869991875 0 0 -0.2869991875 
0 0 -0.2869991875 0 0 -0.2869991875 0 0 -0.2869991875 
0 0 -0.2869991875 0 0 -0.2869991875 0 0 -0.2869991875 
0 0 -0.2869991875 0 0 -0.2869991875 0 0 -0.2869991875 
0 0 -0.2869991875 0 0 -0.2869991875 0 0 -0.2869991875 
0 0 -0.2869991875 0 0 -0.2869991875 0 0 -0.2869991875 
0 0 -0.2869991875 0 0 -0.2869991875 0 0 -0.2869991875 
0 0 -0.2869991875 0 0 -0.2869991875 0 0 -0.2869991875 
0 0 -0.2869991875 0 0 -0.2869991875 0 0 -0.2869991875 
0 0 -0.2869991875 0 0 -0.2869991875 0 0 -0.2869991875 
0 0 -0.2869991875 0 0 -0.2869991875 0 0 -0.2869991875 
0 0 -0.2317491875 0 0 -0.2869991875 0 0 -0.2869991875 
0 0 -0.2869991875 0 0 -0.2869991875 0 0 -0.2869991875 
0 0 -0.2869991875 0 0 -0.2869991875 0 0 -0.2869991875 
0 0 -0.2869991875 0 0 -0.2869991875 0 0 -0.2869991875 
0 0 -0.2317491875 0 0 -0.2869991875 0 0 -0.2869991875 
0 0 -0.2869991875 0 0 -0.2869991875 0 0 -0.2869991875 
0 0 -0.2869991875 0 0 -0.2869991875 0 0 -0.2869991875 
0 0 -0.2869991875 0 0 -0.2869991875 0 0 -0.2869991875 
0 0 -0.2869991875 0 0 -0.2869991875 0 0 -0.2869991875 
0 0 -0.2869991875 0 0 -0.2869991875 0 0 -0.2869991875 
0 0 -0.2869991875 0 0 -0.2869991875 0 0 -0.2869991875 
0 0 -0.2869991875 0 0 -0.2869991875 0 0 -0.2869991875 
0 0 -0.2869991875 0 0 -0.2869991875 0 0 -0.2869991875 
0 0 -0.2869991875 0 0 -0.2869991875 0 0 -0.2869991875 
0 0 -0.2869991875 0 0 -0.2869991875 0 0 -0.2869991875 
0 0 -0.2869991875 0 0 -0.2869991875 0 0 -0.2869991875 
0 0 -0.2869991875 0 0 -0.2869991875 0 0 -0.2869991875 
0 0 -0.2869991875 0 0 -0.2869991875 0 0 -0.2869991875 
0 0 -0.1992491875 0 0 -0.2869991875 0 0 -0.2869991875 
0 0 -0.2869991875 0 0 -0.2869991875 0 0 -0.2869991875 
0 0 -0.2869991875 0 0 -0.2869991875 0 0 -0.2869991875 
0 0 -0.2122491875 0 0 -0.2869991875 0 0 -0.2869991875 
0 0 -0.2869991875 0 0 -0.2869991875 0 0 -0.2869991875 
0 0 -0.2869991875 0 0 -0.2869991875 0 0 -0.2869991875 
0 0 -0.2869991875 0 0 -0.2512491875 0 0 -0.2869991875 
0 0 -0.2869991875 0 0 -0.2869991875 0 0 -0.2869991875 
0 0 -0.2869991875 0 0 -0.2869991875 0 0 -0.2869991875 
0 0 -0.2869991875 0 0 -0.2869991875 0 0 -0.1829991875 
0 0 -0.2869991875 0 0 -0.2869991875 0 0 -0.2869991875 
0 0 -0.2869991875 0 0 -0.2869991875 0 0 -0.2869991875 
0 0 -0.2869991875 0 0 -0.2869991875 0 0 -0.2869991875 
0 0 -0.2869991875 0 0 -0.2869991875 0 0 -0.2869991875 
0 0 -0.2869991875 0 0 -0.2869991875 0 0 -0.2869991875 
0 0 -0.2869991875 0 0 -0.2869991875 0 0 -0.0984991875 
0 0 -0.2869991875 0 0 -0.2869991875 0 0 -0.2869991875 
0 0 -0.1569991875 0 0 -0.2869991875 0 0 -0.2869991875 
0 0 -0.2869991875 0 0 -0.2869991875 0 0 -0.2869991875 
0 0 -0.1374991875 0 0 -0.2869991875 0 0 -0.2869991875 
0 0 -0.2869991875 0 0 -0.2869991875 0 0 -0.2869991875 
0 0 -0.2869991875 0 0 -0.0822491875 0 0 -0.2869991875 
0 0 -0.2869991875 0 0 -0.2869991875 0 0 -0.2869991875 
0 0 -0.0984991875 0 0 -0.2869991875 0 0 -0.2869991875 
0 0 -0.0659991875 0 0 -0.2869991875 0 0 -0.2869991875 
0 0 -0.2869991875 0 0 -0.2869991875 0 0 -0.2869991875 
0 0 -0.2869991875 0 0 -0.2869991875 0 0 -0.2869991875 
0 0 -0.2869991875 0 0 -0.2869991875 0 0 -0.2869991875 
0 0 -0.2869991875 0 0 -0.2869991875 0 0 -0.2869991875 
0 0 -0.2869991875 0 0 -0.2869991875 0 0 -0.2869991875 
0 0 -0.2869991875 0 0 -0.1017491875 0 0 -0.2869991875 
0 0 -0.1667491875 0 0 -0.2869991875 0 0 -0.2869991875 
0 0 -0.2869991875 0 0 -0.2869991875 0 0 -0.2869991875 
0 0 -0.2869991875 0 0 -0.0464991875 0 0 -0.2869991875 
0 0 -0.2869991875 0 0 -0.1244991875 0 0 -0.2869991875 
0 0 -0.2869991875 0 0 -0.2869991875 0 0 -0.2544991875 
0 0 -0.2869991875 0 0 -0.2869991875 0 0 -0.2869991875 
0 0 -0.2869991875 0 0 -0.1082491875 0 0 -0.2869991875 
0 0 -0.1634991875 0 0 -0.2869991875 0 0 -0.2869991875 
0 0 -0.2869991875 0 0 -0.2869991875 0 0 -0.2869991875 
0 0 -0.2869991875 0 0 -0.2869991875 0 0 -0.2869991875 
0 0 -0.1569991875 0 0 -0.2869991875 0 0 -0.1439991875 
0 0 -0.2869991875 0 0 -0.2869991875 0 0 -0.0659991875 
0 0 -0.2869991875 0 0 -0.2869991875 0 0 -0.2869991875 
0 0 -0.2869991875 0 0 -0.2869991875 0 0 -0.2869991875 
0 0 -0.2869991875 0 0 -0.2869991875 0 0 -0.2869991875 
0 0 -0.1342491875 0 0 -0.2869991875 0 0 -0.1179991875 
0 0 -0.2869991875 0 0 -0.2869991875 0 0 -0.0432491875 
0 0 -0.1114991875 0 0 -0.2869991875 0 0 -0.2869991875 
0 0 -0.2869991875 0 0 -0.2869991875 0 0 -0.2869991875 
0 0 -0.0789991875 0 0 -0.0627491875 0 0 -0.2869991875 
0 0 -0.2869991875 0 0 -0.2869991875 0 0 -0.2869991875 
0 0 -0.2869991875 0 0 -0.2869991875 0 0 -0.2024991875 
0 0 -0.2869991875 0 0 -0.2869991875 0 0 -0.2869991875 
0 0 -0.1472491875 0 0 -0.1862491875 0 0 -0.2869991875 
0 0 -0.1244991875 0 0 -0.2869991875 0 0 -0.2869991875 
0 0 -0.0952491875 0 0 -0.1277491875 0 0 -0.2869991875 
0 0 -0.2024991875 0 0 -0.2869991875 0 0 -0.2869991875 
0 0 -0.2869991875 0 0 -0.0562491875 0 0 -0.2869991875 
0 0 -0.2869991875 0 0 -0.2869991875 0 0 -0.1114991875 
0 0 -0.2869991875 0 0 -0.2869991875 0 0 -0.2869991875 
0 0 -0.2869991875 0 0 -0.2869991875 0 0 -0.2869991875 
0 0 -0.2869991875 0 0 -0.2869991875 0 0 -0.1504991875 
0 0 -0.2869991875 0 0 -0.2869991875 0 0 -0.2869991875 
0 0 -0.2869991875 0 0 -0.2869991875 0 0 -0.2869991875 
0 0 -0.2869991875 0 0 -0.2869991875 0 0 -0.2869991875 
0 0 -0.2869991875 0 0 -0.2869991875 0 0 -0.2869991875 
0 0 -0.2869991875 0 0 -0.2869991875 0 0 -0.1992491875 
0 0 -0.2869991875 0 0 -0.2869991875 0 0 -0.2869991875 
0 0 -0.2869991875 0 0 -0.2869991875 0 0 -0.0659991875 
0 0 -0.2869991875 0 0 -0.2869991875 0 0 -0.2869991875 
0 0 -0.2869991875 0 0 -0.2869991875 0 0 -0.2869991875 
0 0 -0.2869991875 0 0 -0.2869991875 0 0 -0.1439991875 
0 0 -0.2869991875 0 0 -0.2869991875 0 0 -0.2869991875 
0 0 -0.2869991875 0 0 -0.2869991875 0 0 -0.2869991875 
0 0 -0.2869991875 0 0 -0.2869991875 0 0 -0.2869991875 
0 0 -0.2869991875 0 0 -0.2869991875 0 0 -0.2869991875 
0 0 -0.2869991875 0 0 -0.1179991875 0 0 -0.0562491875 
0 0 -0.2252491875 0 0 -0.2869991875 0 0 -0.2869991875 
0 0 -0.1829991875 0 0 -0.2869991875 0 0 -0.2869991875 
0 0 -0.2869991875 0 0 -0.2317491875 0 0 -0.0887491875 
0 0 -0.2869991875 0 0 -0.2869991875 0 0 -0.2869991875 
0 0 -0.2869991875 0 0 -0.1179991875 0 0 -0.2869991875 
0 0 -0.2869991875 0 0 -0.2869991875 0 0 -0.1309991875 
0 0 -0.2869991875 0 0 -0.2869991875 0 0 -0.2869991875 
0 0 -0.2869991875 0 0 -0.2869991875 0 0 -0.2869991875 
0 0 -0.2869991875 0 0 -0.2869991875 0 0 -0.2869991875 
0 0 -0.2869991875 0 0 -0.2869991875 0 0 -0.0789991875 
0 0 -0.2869991875 0 0 -0.2869991875 0 0 -0.1504991875 
0 0 -0.0627491875 0 0 -0.2869991875 0 0 -0.0627491875 
0 0 -0.2869991875 0 0 -0.2869991875 0 0 -0.2869991875 
0 0 -0.2869991875 0 0 -0.2869991875 0 0 -0.0497491875 
0 0 -0.2869991875 0 0 -0.2252491875 0 0 -0.2869991875 
0 0 -0.2869991875 0 0 -0.2869991875 0 0 -0.2869991875 
0 0 -0.1699991875 0 0 -0.2869991875 0 0 -0.2869991875 
0 0 -0.2869991875 0 0 -0.2089991875 0 0 -0.2869991875 
0 0 -0.2869991875 0 0 -0.1537491875 0 0 -0.0529991875 
0 0 -0.2869991875 0 0 -0.0594991875 0 0 -0.2869991875 
0 0 -0.1602491875 0 0 -0.1959991875 0 0 -0.2869991875 
0 0 -0.2869991875 0 0 -0.2869991875 0 0 -0.2869991875 
0 0 -0.2869991875 0 0 -0.2869991875 0 0 -0.1277491875 
0 0 -0.2869991875 0 0 -0.2869991875 0 0 -0.2869991875 
0 0 -0.2869991875 0 0 -0.2869991875 0 0 -0.1959991875 
0 0 -0.0659991875 0 0 -0.2869991875 0 0 -0.2869991875 
0 0 -0.1147491875 0 0 -0.2869991875 0 0 -0.2869991875 
0 0 -0.2869991875 0 0 -0.2869991875 0 0 -0.0919991875 
0 0 -0.2869991875 0 0 -0.2869991875 0 0 -0.2869991875 
0 0 -0.1732491875 0 0 -0.2869991875 0 0 -0.1374991875 
0 0 -0.2869991875 0 0 -0.0854991875 0 0 -0.2869991875 
0 0 -0.2869991875 0 0 -0.2869991875 0 0 -0.2869991875 
0 0 -0.0919991875 0 0 -0.2869991875 0 0 -0.2869991875 
0 0 -0.2869991875 0 0 -0.2869991875 0 0 -0.2869991875 
0 0 -0.2869991875 0 0 -0.2869991875 0 0 -0.2869991875 
0 0 -0.2869991875 0 0 -0.2869991875 0 0 -0.2869991875 
0 0 -0.2869991875 0 0 -0.2869991875 0 0 -0.2869991875 
0 0 -0.2869991875 0 0 -0.2869991875 0 0 -0.2869991875 
0 0 -0.2869991875 0 0 -0.1862491875 0 0 -0.2869991875 
0 0 -0.2869991875 0 0 -0.2674991875 0 0 -0.2869991875 
0 0 -0.2869991875 0 0 -0.1082491875 0 0 -0.2869991875 
0 0 -0.2869991875 0 0 -0.2089991875 0 0 -0.1894991875 
0 0 -0.2869991875 0 0 -0.2869991875 0 0 -0.2869991875 
0 0 -0.2869991875 0 0 -0.2869991875 0 0 -0.2739991875 
0 0 -0.2869991875 0 0 -0.2869991875 0 0 -0.2869991875 
0 0 -0.2869991875 0 0 -0.1472491875 0 0 -0.0497491875 
0 0 -0.0887491875 0 0 -0.2869991875 0 0 -0.2869991875 
0 0 -0.2869991875 0 0 -0.2869991875 0 0 -0.2869991875 
0 0 -0.2869991875 0 0 -0.0887491875 0 0 -0.2869991875 
0 0 -0.2869991875 0 0 -0.1342491875 0 0 -0.2869991875 
0 0 -0.2869991875 0 0 -0.2869991875 0 0 -0.0464991875 
0 0 -0.2869991875 0 0 -0.2869991875 0 0 -0.2869991875 
0 0 -0.2869991875 0 0 -0.2739991875 0 0 -0.2869991875 
0 0 -0.2089991875 0 0 -0.1049991875 0 0 -0.1374991875 
0 0 -0.2869991875 0 0 -0.2869991875 0 0 -0.2869991875 
0 0 -0.2869991875 0 0 -0.2869991875 0 0 -0.2869991875 
0 0 -0.1049991875 0 0 -0.2869991875 0 0 -0.2869991875 
0 0 -0.0562491875 0 0 -0.2869991875 0 0 -0.2869991875 
0 0 -0.2869991875 0 0 -0.2187491875 0 0 -0.2869991875 
0 0 -0.1602491875 0 0 -0.2869991875 0 0 -0.2869991875 
0 0 -0.1342491875 0 0 -0.2869991875 0 0 -0.2869991875 
0 0 -0.2869991875 0 0 -0.2869991875 0 0 -0.1017491875 
0 0 -0.2869991875 0 0 -0.2869991875 0 0 -0.1472491875 
0 0 -0.2869991875 0 0 -0.2869991875 0 0 -0.2869991875 
0 0 -0.0594991875 0 0 -0.2869991875 0 0 -0.2869991875 
0 0 -0.0757491875 0 0 -0.2869991875 0 0 -0.2869991875 
0 0 -0.0497491875 0 0 -0.2869991875 0 0 -0.0562491875 
0 0 -0.2869991875 0 0 -0.2869991875 0 0 -0.2869991875 
0 0 -0.2869991875 0 0 -0.0919991875 0 0 -0.2869991875 
0 0 -0.2869991875 0 0 -0.2869991875 0 0 -0.2869991875 
0 0 -0.2869991875 0 0 -0.2869991875 0 0 -0.2869991875 
0 0 -0.2869991875 0 0 -0.0789991875 0 0 -0.2869991875 
0 0 -0.1764991875 0 0 -0.2869991875 0 0 -0.2869991875 
0 0 -0.2187491875 0 0 -0.2869991875 0 0 -0.2869991875 
0 0 -0.2869991875 0 0 -0.2869991875 0 0 -0.1082491875 
0 0 -0.2869991875 0 0 -0.2869991875 0 0 -0.2869991875 
0 0 -0.2869991875 0 0 -0.2869991875 0 0 -0.2869991875 
0 0 -0.0562491875 0 0 -0.2869991875 0 0 -0.2869991875 
0 0 -0.2869991875 0 0 -0.2869991875 0 0 -0.1699991875 
0 0 -0.2869991875 0 0 -0.1407491875 0 0 -0.2869991875 
0 0 -0.2869991875 0 0 -0.2869991875 0 0 -0.2869991875 
0 0 -0.1082491875 0 0 -0.0984991875 0 0 -0.1179991875 
0 0 -0.0724991875 0 0 -0.2252491875 0 0 -0.0432491875 
0 0 -0.0432491875 0 0 -0.2187491875 0 0 -0.0692491875 
0 0 -0.1439991875 0 0 -0.0562491875 0 0 -0.1667491875 
0 0 -0.0432491875 0 0 -0.0757491875 0 0 -0.1407491875 
0 0 -0.0529991875 0 0 -0.1407491875 0 0 -0.1764991875 
0 0 -0.1147491875 0 0 -0.1602491875 0 0 -0.1667491875 
0 0 -0.0432491875 0 0 -0.0432491875 0 0 -0.0724991875 
0 0 -0.0822491875 0 0 -0.1147491875 0 0 -0.0594991875 
0 0 -0.0562491875 0 0 -0.0789991875 0 0 -0.0529991875 
0 0 -0.0789991875 0 0 -0.0497491875 0 0 -0.1569991875 
0 0 -0.1212491875 0 0 -0.1017491875 0 0 -0.1049991875 
0 0 -0.1049991875 0 0 -0.0464991875 0 0 -0.0562491875 
0 0 -0.0464991875 0 0 -0.0432491875 0 0 -0.0594991875 

f 3 648 double
0 0 -1.7425367252e-10 0 0 -1.7425367252e-10 0 0 -8.9019973083e-09 
0 0 -1.7425367252e-10 0 0 -1.7425367252e-10 0 0 -1.7425367252e-10 
0 0 -1.7425367252e-10 0 0 -1.7425367252e-10 0 0 -1.7425367252e-10 
0 0 -1.7425367252e-10 0 0 -1.7425367252e-10 0 0 -1.7425367252e-10 
0 0 -1.7425367252e-10 0 0 -1.7425367252e-10 0 0 -1.7425367252e-10 
0 0 -1.7425367252e-10 0 0 -1.7425367252e-10 0 0 -1.7425367252e-10 
0 0 -1.7425367252e-10 0 0 -1.7425367252e-10 0 0 -1.7425367252e-10 
0 0 -1.7425367252e-10 0 0 -1.7425367252e-10 0 0 -1.7425367252e-10 
0 0 -1.7425367252e-10 0 0 -1.7425367252e-10 0 0 -1.7425367252e-10 
0 0 -1.7425367252e-10 0 0 -1.7425367252e-10 0 0 -1.7425367252e-10 
0 0 -8.9019973083e-09 0 0 -1.7425367252e-10 0 0 -1.7425367252e-10 
0 0 -8.9019973083e-09 0 0 -1.7425367252e-10 0 0 -1.7425367252e-10 
0 0 -1.7425367252e-10 0 0 -1.7425367252e-10 0 0 -1.7425367252e-10 
0 0 -1.7425367252e-10 0 0 -1.7425367252e-10 0 0 -1.7425367252e-10 
0 0 -1.7425367252e-10 0 0 -1.7425367252e-10 0 0 -1.7425367252e-10 
0 0 -1.7425367252e-10 0 0 -1.7425367252e-10 0 0 -1.7425367252e-10 
0 0 -1.7425367252e-10 0 0 -1.7425367252e-10 0 0 -1.7425367252e-10 
0 0 -1.7425367252e-10 0 0 -1.7425367252e-10 0 0 -1.7425367252e-10 
0 0 -1.7425367252e-10 0 0 -1.7425367252e-10 0 0 -1.7425367252e-10 
0 0 -1.7425367252e-10 0 0 -1.7425367252e-10 0 0 -1.7425367252e-10 
0 0 -1.7425367252e-10 0 0 -1.7425367252e-10 0 0 -1.7425367252e-10 
0 0 -1.7425367252e-10 0 0 -8.9019973083e-09 0 0 -1.7425367252e-10 
0 0 -1.7425367252e-10 0 0 -1.7425367252e-10 0 0 -1.7425367252e-10 
0 0 -8.9019973083e-09 0 0 -1.7425367252e-10 0 0 -1.7425367252e-10 
0 0 -1.7425367252e-10 0 0 -1.7425367252e-10 0 0 -1.7425367252e-10 
0 0 -1.7425367252e-10 0 0 -1.7425367252e-10 0 0 -1.7425367252e-10 
0 0 -1.7425367252e-10 0 0 -1.7425367252e-10 0 0 -1.7425367252e-10 
0 0 -1.7425367252e-10 0 0 -1.7425367252e-10 0 0 -1.7425367252e-10 
0 0 -1.7425367252e-10 0 0 -1.7425367252e-10 0 0 -1.7425367252e-10 
0 0 -1.7425367252e-10 0 0 -1.7425367252e-10 0 0 -1.7425367252e-10 
0 0 -1.7425367252e-10 0 0 -1.7425367252e-10 0 0 -8.9019973083e-09 
0 0 -8.9019973083e-09 0 0 -1.7425367252e-10 0 0 -1.7425367252e-10 
0 0 -1.7425367252e-10 0 0 -1.7425367252e-10 0 0 -1.7425367252e-10 
0 0 -1.7425367252e-10 0 0 -1.7425367252e-10 0 0 -1.7425367252e-10 
0 0 -1.7425367252e-10 0 0 -1.7425367252e-10 0 0 -8.9019973083e-09 
0 0 -1.7425367252e-10 0 0 -1.7425367252e-10 0 0 -1.7425367252e-10 
0 0 -1.7425367252e-10 0 0 -1.7425367252e-10 0 0 -1.7425367252e-10 
0 0 -1.7425367252e-10 0 0 -1.7425367252e-10 0 0 -1.7425367252e-10 
0 0 -1.7425367252e-10 0 0 -1.7425367252e-10 0 0 -1.7425367252e-10 
0 0 -1.7425367252e-10 0 0 -1.7425367252e-10 0 0 -1.7425367252e-10 
0 0 -1.7425367252e-10 0 0 -8.9019973083e-09 0 0 -1.7425367252e-10 
0 0 -1.7425367252e-10 0 0 -1.7425367252e-10 0 0 -1.7425367252e-10 
0 0 -1.7425367252e-10 0 0 -1.7425367252e-10 0 0 -1.7425367252e-10 
0 0 -1.7425367252e-10 0 0 -1.7425367252e-10 0 0 -1.7425367252e-10 
0 0 -1.7425367252e-10 0 0 -1.7425367252e-10 0 0 -1.7425367252e-10 
0 0 -1.7425367252e-10 0 0 -1.7425367252e-10 0 0 -1.7425367252e-10 
0 0 -1.7425367252e-10 0 0 -1.7425367252e-10 0 0 -1.7425367252e-10 
0 0 -1.7425367252e-10 0 0 -1.7425367252e-10 0 0 -1.7425367252e-10 
0 0 -1.7425367252e-10 0 0 -1.7425367252e-10 0 0 -1.7425367252e-10 
0 0 -1.7425367252e-10 0 0 -1.7425367252e-10 0 0 -1.7425367252e-10 
0 0 -1.7425367252e-10 0 0 -8.9019973083e-09 0 0 -1.7425367252e-10 
0 0 -1.7425367252e-10 0 0 -1.7425367252e-10 0 0 -8.9019973083e-09 
0 0 -1.7425367252e-10 0 0 -1.7425367252e-10 0 0 -1.7425367252e-10 
0 0 -1.7425367252e-10 0 0 -1.7425367252e-10 0 0 -1.7425367252e-10 
0 0 -1.7425367252e-10 0 0 -1.7425367252e-10 0 0 -1.7425367252e-10 
0 0 -1.7425367252e-10 0 0 -1.7425367252e-10 0 0 -6.8918688838e-08 
0 0 -1.7425367252e-10 0 0 -1.7425367252e-10 0 0 -1.7425367252e-10 
0 0 -1.7425367252e-10 0 0 -1.7425367252e-10 0 0 -1.7425367252e-10 
0 0 -1.7425367252e-10 0 0 -1.7425367252e-10 0 0 -1.7425367252e-10 
0 0 -1.7425367252e-10 0 0 -1.7425367252e-10 0 0 -1.7425367252e-10 
0 0 -1.7425367252e-10 0 0 -1.7425367252e-10 0 0 -1.7425367252e-10 
0 0 -1.7425367252e-10 0 0 -1.7425367252e-10 0 0 -1.7425367252e-10 
0 0 -1.7425367252e-10 0 0 -1.7425367252e-10 0 0 -1.7425367252e-10 
0 0 -1.7425367252e-10 0 0 -1.7425367252e-10 0 0 -1.7425367252e-10 
0 0 -1.7425367252e-10 0 0 -1.7425367252e-10 0 0 -1.7425367252e-10 
0 0 -1.7425367252e-10 0 0 -1.7425367252e-10 0 0 -1.7425367252e-10 
0 0 -1.7425367252e-10 0 0 -1.7425367252e-10 0 0 -1.7425367252e-10 
0 0 -1.7425367252e-10 0 0 -1.7425367252e-10 0 0 -1.7425367252e-10 
0 0 -1.7425367252e-10 0 0 -1.7425367252e-10 0 0 -1.7425367252e-10 
0 0 -1.7425367252e-10 0 0 -1.7425367252e-10 0 0 -1.7425367252e-10 
0 0 -1.7425367252e-10 0 0 -1.7425367252e-10 0 0 -1.7425367252e-10 
0 0 -1.7425367252e-10 0 0 -1.7425367252e-10 0 0 -1.7425367252e-10 
0 0 -1.7425367252e-10 0 0 -1.7425367252e-10 0 0 -1.7425367252e-10 
0 0 -8.9019973083e-09 0 0 -1.7425367252e-10 0 0 -1.7425367252e-10 
0 0 -1.7425367252e-10 0 0 -1.7425367252e-10 0 0 -1.7425367252e-10 
0 0 -1.7425367252e-10 0 0 -1.7425367252e-10 0 0 -1.7425367252e-10 
0 0 -1.7425367252e-10 0 0 -1.7425367252e-10 0 0 -1.7425367252e-10 
0 0 -1.7425367252e-10 0 0 -1.7425367252e-10 0 0 -1.7425367252e-10 
0 0 -1.7425367252e-10 0 0 -1.7425367252e-10 0 0 -1.7425367252e-10 
0 0 -1.7425367252e-10 0 0 -1.7425367252e-10 0 0 -1.7425367252e-10 
0 0 -1.7425367252e-10 0 0 -1.7425367252e-10 0 0 -1.7425367252e-10 
0 0 -1.7425367252e-10 0 0 -1.7425367252e-10 0 0 -1.7425367252e-10 
0 0 -1.7425367252e-10 0 0 -1.7425367252e-10 0 0 -1.7425367252e-10 
0 0 -1.7425367252e-10 0 0 -1.7425367252e-10 0 0 -1.7425367252e-10 
0 0 -1.7425367252e-10 0 0 -1.7425367252e-10 0 0 -1.7425367252e-10 
0 0 -1.7425367252e-10 0 0 -1.7425367252e-10 0 0 -1.7425367252e-10 
0 0 -1.7425367252e-10 0 0 -1.7425367252e-10 0 0 -1.7425367252e-10 
0 0 -1.7425367252e-10 0 0 -1.7425367252e-10 0 0 -1.7425367252e-10 
0 0 -1.7425367252e-10 0 0 -1.7425367252e-10 0 0 -1.7425367252e-10 
0 0 -1.7425367252e-10 0 0 -1.7425367252e-10 0 0 -1.7425367252e-10 
0 0 -1.7425367252e-10 0 0 -1.7425367252e-10 0 0 -1.7425367252e-10 
0 0 -1.7425367252e-10 0 0 -1.7425367252e-10 0 0 -1.7425367252e-10 
0 0 -1.7425367252e-10 0 0 -1.7425367252e-10 0 0 -1.7425367252e-10 
0 0 -1.7425367252e-10 0 0 -1.7425367252e-10 0 0 -1.7425367252e-10 
0 0 -1.7425367252e-10 0 0 -1.7425367252e-10 0 0 -1.7425367252e-10 
0 0 -1.7425367252e-10 0 0 -1.7425367252e-10 0 0 -1.7425367252e-10 
0 0 -1.7425367252e-10 0 0 -1.7425367252e-10 0 0 -1.7425367252e-10 
0 0 -1.7425367252e-10 0 0 -1.7425367252e-10 0 0 -1.7425367252e-10 
0 0 -1.7425367252e-10 0 0 -1.7425367252e-10 0 0 -1.7425367252e-10 
0 0 -1.7425367252e-10 0 0 -1.7425367252e-10 0 0 -1.7425367252e-10 
0 0 -1.7425367252e-10 0 0 -1.7425367252e-10 0 0 -1.7425367252e-10 
0 0 -1.7425367252e-10 0 0 -1.7425367252e-10 0 0 -1.7425367252e-10 
0 0 -1.7425367252e-10 0 0 -1.7425367252e-10 0 0 -1.7425367252e-10 
0 0 -1.7425367252e-10 0 0 -1.7425367252e-10 0 0 -1.7425367252e-10 
0 0 -1.7425367252e-10 0 0 -1.7425367252e-10 0 0 -1.7425367252e-10 
0 0 -1.7425367252e-10 0 0 -1.7425367252e-10 0 0 -1.7425367252e-10 
0 0 -1.7425367252e-10 0 0 -1.7425367252e-10 0 0 -1.7425367252e-10 
0 0 -1.7425367252e-10 0 0 -1.7425367252e-10 0 0 -1.7425367252e-10 
0 0 -1.7425367252e-10 0 0 -1.7425367252e-10 0 0 -1.7425367252e-10 
0 0 -1.7425367252e-10 0 0 -1.7425367252e-10 0 0 -1.7425367252e-10 
0 0 -1.7425367252e-10 0 0 -1.7425367252e-10 0 0 -1.7425367252e-10 
0 0 -1.7425367252e-10 0 0 -1.7425367252e-10 0 0 -1.7425367252e-10 
0 0 -1.7425367252e-10 0 0 -1.7425367252e-10 0 0 -1.7425367252e-10 
0 0 -1.7425367252e-10 0 0 -1.7425367252e-10 0 0 -1.7425367252e-10 
0 0 -1.7425367252e-10 0 0 -1.7425367252e-10 0 0 -1.7425367252e-10 
0 0 -1.7425367252e-10 0 0 -1.7425367252e-10 0 0 -1.7425367252e-10 
0 0 -1.7425367252e-10 0 0 -1.7425367252e-10 0 0 -1.7425367252e-10 
0 0 -1.7425367252e-10 0 0 -1.7425367252e-10 0 0 -1.7425367252e-10 
0 0 -1.7425367252e-10 0 0 -1.7425367252e-10 0 0 -1.7425367252e-10 
0 0 -1.7425367252e-10 0 0 -1.7425367252e-10 0 0 -1.7425367252e-10 
0 0 -1.7425367252e-10 0 0 -1.7425367252e-10 0 0 -1.7425367252e-10 
0 0 -1.7425367252e-10 0 0 -1.7425367252e-10 0 0 -1.7425367252e-10 
0 0 -1.7425367252e-10 0 0 -1.7425367252e-10 0 0 -1.7425367252e-10 
0 0 -1.7425367252e-10 0 0 -1.7425367252e-10 0 0 -1.7425367252e-10 
0 0 -1.7425367252e-10 0 0 -1.7425367252e-10 0 0 -1.7425367252e-10 
0 0 -1.7425367252e-10 0 0 -1.7425367252e-10 0 0 -1.7425367252e-10 
0 0 -1.7425367252e-10 0 0 -1.7425367252e-10 0 0 -1.7425367252e-10 
0 0 -1.7425367252e-10 0 0 -1.7425367252e-10 0 0 -1.7425367252e-10 
0 0 -1.7425367252e-10 0 0 -1.7425367252e-10 0 0 -1.7425367252e-10 
0 0 -1.7425367252e-10 0 0 -1.7425367252e-10 0 0 -1.7425367252e-10 
0 0 -1.7425367252e-10 0 0 -1.7425367252e-10 0 0 -1.7425367252e-10 
0 0 -1.7425367252e-10 0 0 -1.7425367252e-10 0 0 -1.7425367252e-10 
0 0 -1.7425367252e-10 0 0 -1.7425367252e-10 0 0 -1.7425367252e-10 
0 0 -5.3297119368e-07 0 0 -1.7425367252e-10 0 0 -1.7425367252e-10 
0 0 -1.7425367252e-10 0 0 -1.7425367252e-10 0 0 -1.7425367252e-10 
0 0 -1.7425367252e-10 0 0 -1.7425367252e-10 0 0 -1.7425367252e-10 
0 0 -1.7425367252e-10 0 0 -1.7425367252e-10 0 0 -1.7425367252e-10 
0 0 -1.7425367252e-10 0 0 -1.7425367252e-10 0 0 -1.7425367252e-10 
0 0 -1.7425367252e-10 0 0 -8.9019973083e-09 0 0 -1.7425367252e-10 
0 0 -1.7425367252e-10 0 0 -1.7425367252e-10 0 0 -1.7425367252e-10 
0 0 -1.7425367252e-10 0 0 -1.7425367252e-10 0 0 -1.7425367252e-10 
0 0 -1.7425367252e-10 0 0 -1.7425367252e-10 0 0 -1.7425367252e-10 
0 0 -1.7425367252e-10 0 0 -1.7425367252e-10 0 0 -1.7425367252e-10 
0 0 -1.7425367252e-10 0 0 -1.7425367252e-10 0 0 -1.7425367252e-10 
0 0 -1.7425367252e-10 0 0 -1.7425367252e-10 0 0 -1.7425367252e-10 
0 0 -1.7425367252e-10 0 0 -1.7425367252e-10 0 0 -1.7425367252e-10 
0 0 -1.7425367252e-10 0 0 -1.7425367252e-10 0 0 -1.7425367252e-10 
0 0 -1.7425367252e-10 0 0 -1.7425367252e-10 0 0 -1.7425367252e-10 
0 0 -1.7425367252e-10 0 0 -1.7425367252e-10 0 0 -1.7425367252e-10 
0 0 -1.7425367252e-10 0 0 -1.7425367252e-10 0 0 -1.7425367252e-10 
0 0 -1.7425367252e-10 0 0 -1.7425367252e-10 0 0 -1.7425367252e-10 
0 0 -1.7425367252e-10 0 0 -1.7425367252e-10 0 0 -1.7425367252e-10 
0 0 -8.9019973083e-09 0 0 -1.7425367252e-10 0 0 -1.7425367252e-10 
0 0 -1.7425367252e-10 0 0 -1.7425367252e-10 0 0 -1.7425367252e-10 
0 0 -1.7425367252e-10 0 0 -1.7425367252e-10 0 0 -1.7425367252e-10 
0 0 -1.7425367252e-10 0 0 -1.7425367252e-10 0 0 -1.7425367252e-10 
0 0 -8.9019973083e-09 0 0 -1.7425367252e-10 0 0 -1.7425367252e-10 
0 0 -1.7425367252e-10 0 0 -1.7425367252e-10 0 0 -1.7425367252e-10 
0 0 -1.7425367252e-10 0 0 -1.7425367252e-10 0 0 -1.7425367252e-10 
0 0 -1.7425367252e-10 0 0 -1.7425367252e-10 0 0 -1.7425367252e-10 
0 0 -1.7425367252e-10 0 0 -1.7425367252e-10 0 0 -1.7425367252e-10 
0 0 -1.7425367252e-10 0 0 -1.7425367252e-10 0 0 -1.7425367252e-10 
0 0 -1.7425367252e-10 0 0 -1.7425367252e-10 0 0 -1.7425367252e-10 
0 0 -1.7425367252e-10 0 0 -1.7425367252e-10 0 0 -1.7425367252e-10 
0 0 -1.7425367252e-10 0 0 -1.7425367252e-10 0 0 -1.7425367252e-10 
0 0 -1.7425367252e-10 0 0 -1.7425367252e-10 0 0 -1.7425367252e-10 
0 0 -1.7425367252e-10 0 0 -1.7425367252e-10 0 0 -1.7425367252e-10 
0 0 -1.7425367252e-10 0 0 -1.7425367252e-10 0 0 -1.7425367252e-10 
0 0 -1.7425367252e-10 0 0 -1.7425367252e-10 0 0 -1.7425367252e-10 
0 0 -1.7425367252e-10 0 0 -1.7425367252e-10 0 0 -1.7425367252e-10 
0 0 -1.7425367252e-10 0 0 -1.7425367252e-10 0 0 -1.7425367252e-10 
0 0 -1.7425367252e-10 0 0 -1.7425367252e-10 0 0 -1.7425367252e-10 
0 0 -1.7425367252e-10 0 0 -1.7425367252e-10 0 0 -1.7425367252e-10 
0 0 -1.7425367252e-10 0 0 -1.7425367252e-10 0 0 -1.7425367252e-10 
0 0 -1.7425367252e-10 0 0 -1.7425367252e-10 0 0 -1.7425367252e-10 
0 0 -1.7425367252e-10 0 0 -1.7425367252e-10 0 0 -1.7425367252e-10 
0 0 -1.7425367252e-10 0 0 -1.7425367252e-10 0 0 -1.7425367252e-10 
0 0 -1.7425367252e-10 0 0 -1.7425367252e-10 0 0 -1.7425367252e-10 
0 0 -1.7425367252e-10 0 0 -1.7425367252e-10 0 0 -1.7425367252e-10 
0 0 -1.7425367252e-10 0 0 -1.7425367252e-10 0 0 -1.7425367252e-10 
0 0 -1.7425367252e-10 0 0 -1.7425367252e-10 0 0 -1.7425367252e-10 
0 0 -1.7425367252e-10 0 0 -1.7425367252e-10 0 0 -1.7425367252e-10 
0 0 -1.7425367252e-10 0 0 -1.7425367252e-10 0 0 -1.7425367252e-10 
0 0 -1.7425367252e-10 0 0 -1.7425367252e-10 0 0 -1.7425367252e-10 
0 0 -1.7425367252e-10 0 0 -1.7425367252e-10 0 0 -1.7425367252e-10 
0 0 -1.7425367252e-10 0 0 -1.7425367252e-10 0 0 -1.7425367252e-10 
0 0 -1.7425367252e-10 0 0 -1.7425367252e-10 0 0 -1.7425367252e-10 
0 0 -8.9019973083e-09 0 0 -1.7425367252e-10 0 0 -1.7425367252e-10 
0 0 -1.7425367252e-10 0 0 -1.7425367252e-10 0 0 -1.7425367252e-10 
0 0 -1.7425367252e-10 0 0 -1.7425367252e-10 0 0 -1.7425367252e-10 
0 0 -1.7425367252e-10 0 0 -1.7425367252e-10 0 0 -1.7425367252e-10 
0 0 -1.7425367252e-10 0 0 -1.7425367252e-10 0 0 -1.7425367252e-10 
0 0 -1.7425367252e-10 0 0 -1.7425367252e-10 0 0 -1.7425367252e-10 
0 0 -1.7425367252e-10 0 0 -1.7425367252e-10 0 0 -1.7425367252e-10 
0 0 -1.7425367252e-10 0 0 -1.7425367252e-10 0 0 -1.7425367252e-10 
0 0 -1.7425367252e-10 0 0 -1.7425367252e-10 0 0 -1.7425367252e-10 
0 0 -1.7425367252e-10 0 0 -1.7425367252e-10 0 0 -1.7425367252e-10 
0 0 -1.7425367252e-10 0 0 -1.7425367252e-10 0 0 -1.7425367252e-10 
0 0 -1.7425367252e-10 0 0 -1.7425367252e-10 0 0 -1.7425367252e-10 
0 0 -1.7425367252e-10 0 0 -1.7425367252e-10 0 0 -1.7425367252e-10 
0 0 -1.7425367252e-10 0 0 -1.7425367252e-10 0 0 -1.7425367252e-10 
0 0 -1.7425367252e-10 0 0 -1.7425367252e-10 0 0 -1.7425367252e-10 
0 0 -1.7425367252e-10 0 0 -1.7425367252e-10 0 0 -1.7425367252e-10 
0 0 -1.7425367252e-10 0 0 -1.7425367252e-10 0 0 -1.7425367252e-10 
0 0 -1.7425367252e-10 0 0 -8.9019973083e-09 0 0 -1.7425367252e-10 
0 0 -1.7425367252e-10 0 0 -1.7425367252e-10 0 0 -1.7425367252e-10 
0 0 -1.7425367252e-10 0 0 -1.7425367252e-10 0 0 -1.7425367252e-10 
0 0 -1.7425367252e-10 0 0 -1.7425367252e-10 0 0 -1.7425367252e-10 
0 0 -1.7425367252e-10 0 0 -1.7425367252e-10 0 0 -1.7425367252e-10 
0 0 -1.7425367252e-10 0 0 -1.7425367252e-10 0 0 -1.7425367252e-10 
0 0 -1.7425367252e-10 0 0 -1.7425367252e-10 0 0 -1.7425367252e-10 
0 0 -1.7425367252e-10 0 0 -1.7425367252e-10 0 0 -1.7425367252e-10 
0 0 -1.7425367252e-10 0 0 -1.7425367252e-10 0 0 -1.7425367252e-10 
0 0 -1.7425367252e-10 0 0 -1.7425367252e-10 0 0 -1.7425367252e-10 
0 0 -1.7425367252e-10 0 0 -1.7425367252e-10 0 0 -1.7425367252e-10 
0 0 -1.7425367252e-10 0 0 -1.7425367252e-10 0 0 -1.7425367252e-10 

radius 1 648 double
2e-05 2e-05 7.5e-05 2e-05 2e-05 2e-05 2e-05 2e-05 2e-05 
2e-05 2e-05 2e-05 2e-05 2e-05 2e-05 2e-05 2e-05 2e-05 
2e-05 2e-05 2e-05 2e-05 2e-05 2e-05 2e-05 2e-05 2e-05 
2e-05 2e-05 2e-05 7.5e-05 2e-05 2e-05 7.5e-05 2e-05 2e-05 
2e-05 2e-05 2e-05 2e-05 2e-05 2e-05 2e-05 2e-05 2e-05 
2e-05 2e-05 2e-05 2e-05 2e-05 2e-05 2e-05 2e-05 2e-05 
2e-05 2e-05 2e-05 2e-05 2e-05 2e-05 2e-05 2e-05 2e-05 
2e-05 7.5e-05 2e-05 2e-05 2e-05 2e-05 7.5e-05 2e-05 2e-05 
2e-05 2e-05 2e-05 2e-05 2e-05 2e-05 2e-05 2e-05 2e-05 
2e-05 2e-05 2e-05 2e-05 2e-05 2e-05 2e-05 2e-05 2e-05 
2e-05 2e-05 7.5e-05 7.5e-05 2e-05 2e-05 2e-05 2e-05 2e-05 
2e-05 2e-05 2e-05 2e-05 2e-05 7.5e-05 2e-05 2e-05 2e-05 
2e-05 2e-05 2e-05 2e-05 2e-05 2e-05 2e-05 2e-05 2e-05 
2e-05 2e-05 2e-05 2e-05 7.5e-05 2e-05 2e-05 2e-05 2e-05 
2e-05 2e-05 2e-05 2e-05 2e-05 2e-05 2e-05 2e-05 2e-05 
2e-05 2e-05 2e-05 2e-05 2e-05 2e-05 2e-05 2e-05 2e-05 
2e-05 2e-05 2e-05 2e-05 2e-05 2e-05 2e-05 7.5e-05 2e-05 
2e-05 2e-05 7.5e-05 2e-05 2e-05 2e-05 2e-05 2e-05 2e-05 
2e-05 2e-05 2e-05 2e-05 2e-05 0.00015 2e-05 2e-05 2e-05 
2e-05 2e-05 2e-05 2e-05 2e-05 2e-05 2e-05 2e-05 2e-05 
2e-05 2e-05 2e-05 2e-05 2e-05 2e-05 2e-05 2e-05 2e-05 
2e-05 2e-05 2e-05 2e-05 2e-05 2e-05 2e-05 2e-05 2e-05 
2e-05 2e-05 2e-05 2e-05 2e-05 2e-05 2e-05 2e-05 2e-05 
2e-05 2e-05 2e-05 2e-05 2e-05 2e-05 2e-05 2e-05 2e-05 
2e-05 2e-05 2e-05 7.5e-05 2e-05 2e-05 2e-05 2e-05 2e-05 
2e-05 2e-05 2e-05 2e-05 2e-05 2e-05 2e-05 2e-05 2e-05 
2e-05 2e-05 2e-05 2e-05 2e-05 2e-05 2e-05 2e-05 2e-05 
2e-05 2e-05 2e-05 2e-05 2e-05 2e-05 2e-05 2e-05 2e-05 
2e-05 2e-05 2e-05 2e-05 2e-05 2e-05 2e-05 2e-05 2e-05 
2e-05 2e-05 2e-05 2e-05 2e-05 2e-05 2e-05 2e-05 2e-05 
2e-05 2e-05 2e-05 2e-05 2e-05 2e-05 2e-05 2e-05 2e-05 
2e-05 2e-05 2e-05 2e-05 2e-05 2e-05 2e-05 2e-05 2e-05 
2e-05 2e-05 2e-05 2e-05 2e-05 2e-05 2e-05 2e-05 2e-05 
2e-05 2e-05 2e-05 2e-05 2e-05 2e-05 2e-05 2e-05 2e-05 
2e-05 2e-05 2e-05 2e-05 2e-05 2e-05 2e-05 2e-05 2e-05 
2e-05 2e-05 2e-05 2e-05 2e-05 2e-05 2e-05 2e-05 2e-05 
2e-05 2e-05 2e-05 2e-05 2e-05 2e-05 2e-05 2e-05 2e-05 
2e-05 2e-05 2e-05 2e-05 2e-05 2e-05 2e-05 2e-05 2e-05 
2e-05 2e-05 2e-05 2e-05 2e-05 2e-05 2e-05 2e-05 2e-05 
2e-05 2e-05 2e-05 2e-05 2e-05 2e-05 2e-05 2e-05 2e-05 
2e-05 2e-05 2e-05 2e-05 2e-05 2e-05 2e-05 2e-05 2e-05 
2e-05 2e-05 2e-05 2e-05 2e-05 2e-05 2e-05 2e-05 2e-05 
2e-05 2e-05 2e-05 2e-05 2e-05 2e-05 2e-05 2e-05 2e-05 
2e-05 2e-05 2e-05 2e-05 2e-05 2e-05 2e-05 2e-05 2e-05 
2e-05 2e-05 2e-05 0.0003 2e-05 2e-05 2e-05 2e-05 2e-05 
2e-05 2e-05 2e-05 2e-05 2e-05 2e-05 2e-05 2e-05 2e-05 
2e-05 7.5e-05 2e-05 2e-05 2e-05 2e-05 2e-05 2e-05 2e-05 
2e-05 2e-05 2e-05 2e-05 2e-05 2e-05 2e-05 2e-05 2e-05 
2e-05 2e-05 2e-05 2e-05 2e-05 2e-05 2e-05 2e-05 2e-05 
2e-05 2e-05 2e-05 2e-05 2e-05 2e-05 2e-05 2e-05 2e-05 
2e-05 2e-05 2e-05 2e-05 2e-05 2e-05 7.5e-05 2e-05 2e-05 
2e-05 2e-05 2e-05 2e-05 2e-05 2e-05 2e-05 2e-05 2e-05 
7.5e-05 2e-05 2e-05 2e-05 2e-05 2e-05 2e-05 2e-05 2e-05 
2e-05 2e-05 2e-05 2e-05 2e-05 2e-05 2e-05 2e-05 2e-05 
2e-05 2e-05 2e-05 2e-05 2e-05 2e-05 2e-05 2e-05 2e-05 
2e-05 2e-05 2e-05 2e-05 2e-05 2e-05 2e-05 2e-05 2e-05 
2e-05 2e-05 2e-05 2e-05 2e-05 2e-05 2e-05 2e-05 2e-05 
2e-05 2e-05 2e-05 2e-05 2e-05 2e-05 2e-05 2e-05 2e-05 
2e-05 2e-05 2e-05 2e-05 2e-05 2e-05 2e-05 2e-05 2e-05 
2e-05 2e-05 2e-05 2e-05 2e-05 2e-05 2e-05 2e-05 2e-05 
2e-05 2e-05 2e-05 2e-05 2e-05 2e-05 2e-05 2e-05 2e-05 
2e-05 2e-05 2e-05 2e-05 2e-05 2e-05 2e-05 2e-05 2e-05 
2e-05 2e-05 2e-05 7.5e-05 2e-05 2e-05 2e-05 2e-05 2e-05 
2e-05 2e-05 2e-05 2e-05 2e-05 2e-05 2e-05 2e-05 2e-05 
2e-05 2e-05 2e-05 2e-05 2e-05 2e-05 2e-05 2e-05 2e-05 
2e-05 2e-05 2e-05 2e-05 2e-05 2e-05 2e-05 2e-05 2e-05 
2e-05 2e-05 2e-05 2e-05 2e-05 2e-05 2e-05 2e-05 2e-05 
2e-05 2e-05 2e-05 2e-05 2e-05 2e-05 2e-05 2e-05 2e-05 
2e-05 7.5e-05 2e-05 2e-05 2e-05 2e-05 2e-05 2e-05 2e-05 
2e-05 2e-05 2e-05 2e-05 2e-05 2e-05 2e-05 2e-05 2e-05 
2e-05 2e-05 2e-05 2e-05 2e-05 2e-05 2e-05 2e-05 2e-05 
2e-05 2e-05 2e-05 2e-05 2e-05 2e-05 2e-05 2e-05 2e-05 

omega 3 648 double
0 0 0 0 0 0 0 0 0 
0 0 0 0 0 0 0 0 0 
0 0 0 0 0 0 0 0 0 
0 0 0 0 0 0 0 0 0 
0 0 0 0 0 0 0 0 0 
0 0 0 0 0 0 0 0 0 
0 0 0 0 0 0 0 0 0 
0 0 0 0 0 0 0 0 0 
0 0 0 0 0 0 0 0 0 
0 0 0 0 0 0 0 0 0 
0 0 0 0 0 0 0 0 0 
0 0 0 0 0 0 0 0 0 
0 0 0 0 0 0 0 0 0 
0 0 0 0 0 0 0 0 0 
0 0 0 0 0 0 0 0 0 
0 0 0 0 0 0 0 0 0 
0 0 0 0 0 0 0 0 0 
0 0 0 0 0 0 0 0 0 
0 0 0 0 0 0 0 0 0 
0 0 0 0 0 0 0 0 0 
0 0 0 0 0 0 0 0 0 
0 0 0 0 0 0 0 0 0 
0 0 0 0 0 0 0 0 0 
0 0 0 0 0 0 0 0 0 
0 0 0 0 0 0 0 0 0 
0 0 0 0 0 0 0 0 0 
0 0 0 0 0 0 0 0 0 
0 0 0 0 0 0 0 0 0 
0 0 0 0 0 0 0 0 0 
0 0 0 0 0 0 0 0 0 
0 0 0 0 0 0 0 0 0 
0 0 0 0 0 0 0 0 0 
0 0 0 0 0 0 0 0 0 
0 0 0 0 0 0 0 0 0 
0 0 0 0 0 0 0 0 0 
0 0 0 0 0 0 0 0 0 
0 0 0 0 0 0 0 0 0 
0 0 0 0 0 0 0 0 0 
0 0 0 0 0 0 0 0 0 
0 0 0 0 0 0 0 0 0 
0 0 0 0 0 0 0 0 0 
0 0 0 0 0 0 0 0 0 
0 0 0 0 0 0 0 0 0 
0 0 0 0 0 0 0 0 0 
0 0 0 0 0 0 0 0 0 
0 0 0 0 0 0 0 0 0 
0 0 0 0 0 0 0 0 0 
0 0 0 0 0 0 0 0 0 
0 0 0 0 0 0 0 0 0 
0 0 0 0 0 0 0 0 0 
0 0 0 0 0 0 0 0 0 
0 0 0 0 0 0 0 0 0 
0 0 0 0 0 0 0 0 0 
0 0 0 0 0 0 0 0 0 
0 0 0 0 0 0 0 0 0 
0 0 0 0 0 0 0 0 0 
0 0 0 0 0 0 0 0 0 
0 0 0 0 0 0 0 0 0 
0 0 0 0 0 0 0 0 0 
0 0 0 0 0 0 0 0 0 
0 0 0 0 0 0 0 0 0 
0 0 0 0 0 0 0 0 0 
0 0 0 0 0 0 0 0 0 
0 0 0 0 0 0 0 0 0 
0 0 0 0 0 0 0 0 0 
0 0 0 0 0 0 0 0 0 
0 0 0 0 0 0 0 0 0 
0 0 0 0 0 0 0 0 0 
0 0 0 0 0 0 0 0 0 
0 0 0 0 0 0 0 0 0 
0 0 0 0 0 0 0 0 0 
0 0 0 0 0 0 0 0 0 
0 0 0 0 0 0 0 0 0 
0 0 0 0 0 0 0 0 0 
0 0 0 0 0 0 0 0 0 
0 0 0 0 0 0 0 0 0 
0 0 0 0 0 0 0 0 0 
0 0 0 0 0 0 0 0 0 
0 0 0 0 0 0 0 0 0 
0 0 0 0 0 0 0 0 0 
0 0 0 0 0 0 0 0 0 
0 0 0 0 0 0 0 0 0 
0 0 0 0 0 0 0 0 0 
0 0 0 0 0 0 0 0 0 
0 0 0 0 0 0 0 0 0 
0 0 0 0 0 0 0 0 0 
0 0 0 0 0 0 0 0 0 
0 0 0 0 0 0 0 0 0 
0 0 0 0 0 0 0 0 0 
0 0 0 0 0 0 0 0 0 
0 0 0 0 0 0 0 0 0 
0 0 0 0 0 0 0 0 0 
0 0 0 0 0 0 0 0 0 
0 0 0 0 0 0 0 0 0 
0 0 0 0 0 0 0 0 0 
0 0 0 0 0 0 0 0 0 
0 0 0 0 0 0 0 0 0 
0 0 0 0 0 0 0 0 0 
0 0 0 0 0 0 0 0 0 
0 0 0 0 0 0 0 0 0 
0 0 0 0 0 0 0 0 0 
0 0 0 0 0 0 0 0 0 
0 0 0 0 0 0 0 0 0 
0 0 0 0 0 0 0 0 0 
0 0 0 0 0 0 0 0 0 
0 0 0 0 0 0 0 0 0 
0 0 0 0 0 0 0 0 0 
0 0 0 0 0 0 0 0 0 
0 0 0 0 0 0 0 0 0 
0 0 0 0 0 0 0 0 0 
0 0 0 0 0 0 0 0 0 
0 0 0 0 0 0 0 0 0 
0 0 0 0 0 0 0 0 0 
0 0 0 0 0 0 0 0 0 
0 0 0 0 0 0 0 0 0 
0 0 0 0 0 0 0 0 0 
0 0 0 0 0 0 0 0 0 
0 0 0 0 0 0 0 0 0 
0 0 0 0 0 0 0 0 0 
0 0 0 0 0 0 0 0 0 
0 0 0 0 0 0 0 0 0 
0 0 0 0 0 0 0 0 0 
0 0 0 0 0 0 0 0 0 
0 0 0 0 0 0 0 0 0 
0 0 0 0 0 0 0 0 0 
0 0 0 0 0 0 0 0 0 
0 0 0 0 0 0 0 0 0 
0 0 0 0 0 0 0 0 0 
0 0 0 0 0 0 0 0 0 
0 0 0 0 0 0 0 0 0 
0 0 0 0 0 0 0 0 0 
0 0 0 0 0 0 0 0 0 
0 0 0 0 0 0 0 0 0 
0 0 0 0 0 0 0 0 0 
0 0 0 0 0 0 0 0 0 
0 0 0 0 0 0 0 0 0 
0 0 0 0 0 0 0 0 0 
0 0 0 0 0 0 0 0 0 
0 0 0 0 0 0 0 0 0 
0 0 0 0 0 0 0 0 0 
0 0 0 0 0 0 0 0 0 
0 0 0 0 0 0 0 0 0 
0 0 0 0 0 0 0 0 0 
0 0 0 0 0 0 0 0 0 
0 0 0 0 0 0 0 0 0 
0 0 0 0 0 0 0 0 0 
0 0 0 0 0 0 0 0 0 
0 0 0 0 0 0 0 0 0 
0 0 0 0 0 0 0 0 0 
0 0 0 0 0 0 0 0 0 
0 0 0 0 0 0 0 0 0 
0 0 0 0 0 0 0 0 0 
0 0 0 0 0 0 0 0 0 
0 0 0 0 0 0 0 0 0 
0 0 0 0 0 0 0 0 0 
0 0 0 0 0 0 0 0 0 
0 0 0 0 0 0 0 0 0 
0 0 0 0 0 0 0 0 0 
0 0 0 0 0 0 0 0 0 
0 0 0 0 0 0 0 0 0 
0 0 0 0 0 0 0 0 0 
0 0 0 0 0 0 0 0 0 
0 0 0 0 0 0 0 0 0 
0 0 0 0 0 0 0 0 0 
0 0 0 0 0 0 0 0 0 
0 0 0 0 0 0 0 0 0 
0 0 0 0 0 0 0 0 0 
0 0 0 0 0 0 0 0 0 
0 0 0 0 0 0 0 0 0 
0 0 0 0 0 0 0 0 0 
0 0 0 0 0 0 0 0 0 
0 0 0 0 0 0 0 0 0 
0 0 0 0 0 0 0 0 0 
0 0 0 0 0 0 0 0 0 
0 0 0 0 0 0 0 0 0 
0 0 0 0 0 0 0 0 0 
0 0 0 0 0 0 0 0 0 
0 0 0 0 0 0 0 0 0 
0 0 0 0 0 0 0 0 0 
0 0 0 0 0 0 0 0 0 
0 0 0 0 0 0 0 0 0 
0 0 0 0 0 0 0 0 0 
0 0 0 0 0 0 0 0 0 
0 0 0 0 0 0 0 0 0 
0 0 0 0 0 0 0 0 0 
0 0 0 0 0 0 0 0 0 
0 0 0 0 0 0 0 0 0 
0 0 0 0 0 0 0 0 0 
0 0 0 0 0 0 0 0 0 
0 0 0 0 0 0 0 0 0 
0 0 0 0 0 0 0 0 0 
0 0 0 0 0 0 0 0 0 
0 0 0 0 0 0 0 0 0 
0 0 0 0 0 0 0 0 0 
0 0 0 0 0 0 0 0 0 
0 0 0 0 0 0 0 0 0 
0 0 0 0 0 0 0 0 0 
0 0 0 0 0 0 0 0 0 
0 0 0 0 0 0 0 0 0 
0 0 0 0 0 0 0 0 0 
0 0 0 0 0 0 0 0 0 
0 0 0 0 0 0 0 0 0 
0 0 0 0 0 0 0 0 0 
0 0 0 0 0 0 0 0 0 
0 0 0 0 0 0 0 0 0 
0 0 0 0 0 0 0 0 0 
0 0 0 0 0 0 0 0 0 
0 0 0 0 0 0 0 0 0 
0 0 0 0 0 0 0 0 0 
0 0 0 0 0 0 0 0 0 
0 0 0 0 0 0 0 0 0 
0 0 0 0 0 0 0 0 0 
0 0 0 0 0 0 0 0 0 
0 0 0 0 0 0 0 0 0 
0 0 0 0 0 0 0 0 0 
0 0 0 0 0 0 0 0 0 

fx_mag_viz 1 648 double
0 0 0 0 0 0 0 0 0 
0 0 0 0 0 0 0 0 0 
0 0 0 0 0 0 0 0 0 
0 0 0 0 0 0 0 0 0 
0 0 0 0 0 0 0 0 0 
0 0 0 0 0 0 0 0 0 
0 0 0 0 0 0 0 0 0 
0 0 0 0 0 0 0 0 0 
0 0 0 0 0 0 0 0 0 
0 0 0 0 0 0 0 0 0 
0 0 0 0 0 0 0 0 0 
0 0 0 0 0 0 0 0 0 
0 0 0 0 0 0 0 0 0 
0 0 0 0 0 0 0 0 0 
0 0 0 0 0 0 0 0 0 
0 0 0 0 0 0 0 0 0 
0 0 0 0 0 0 0 0 0 
0 0 0 0 0 0 0 0 0 
0 0 0 0 0 0 0 0 0 
0 0 0 0 0 0 0 0 0 
0 0 0 0 0 0 0 0 0 
0 0 0 0 0 0 0 0 0 
0 0 0 0 0 0 0 0 0 
0 0 0 0 0 0 0 0 0 
0 0 0 0 0 0 0 0 0 
0 0 0 0 0 0 0 0 0 
0 0 0 0 0 0 0 0 0 
0 0 0 0 0 0 0 0 0 
0 0 0 0 0 0 0 0 0 
0 0 0 0 0 0 0 0 0 
0 0 0 0 0 0 0 0 0 
0 0 0 0 0 0 0 0 0 
0 0 0 0 0 0 0 0 0 
0 0 0 0 0 0 0 0 0 
0 0 0 0 0 0 0 0 0 
0 0 0 0 0 0 0 0 0 
0 0 0 0 0 0 0 0 0 
0 0 0 0 0 0 0 0 0 
0 0 0 0 0 0 0 0 0 
0 0 0 0 0 0 0 0 0 
0 0 0 0 0 0 0 0 0 
0 0 0 0 0 0 0 0 0 
0 0 0 0 0 0 0 0 0 
0 0 0 0 0 0 0 0 0 
0 0 0 0 0 0 0 0 0 
0 0 0 0 0 0 0 0 0 
0 0 0 0 0 0 0 0 0 
0 0 0 0 0 0 0 0 0 
0 0 0 0 0 0 0 0 0 
0 0 0 0 0 0 0 0 0 
0 0 0 0 0 0 0 0 0 
0 0 0 0 0 0 0 0 0 
0 0 0 0 0 0 0 0 0 
0 0 0 0 0 0 0 0 0 
0 0 0 0 0 0 0 0 0 
0 0 0 0 0 0 0 0 0 
0 0 0 0 0 0 0 0 0 
0 0 0 0 0 0 0 0 0 
0 0 0 0 0 0 0 0 0 
0 0 0 0 0 0 0 0 0 
0 0 0 0 0 0 0 0 0 
0 0 0 0 0 0 0 0 0 
0 0 0 0 0 0 0 0 0 
0 0 0 0 0 0 0 0 0 
0 0 0 0 0 0 0 0 0 
0 0 0 0 0 0 0 0 0 
0 0 0 0 0 0 0 0 0 
0 0 0 0 0 0 0 0 0 
0 0 0 0 0 0 0 0 0 
0 0 0 0 0 0 0 0 0 
0 0 0 0 0 0 0 0 0 
0 0 0 0 0 0 0 0 0 

fy_mag_viz 1 648 double
0 0 0 0 0 0 0 0 0 
0 0 0 0 0 0 0 0 0 
0 0 0 0 0 0 0 0 0 
0 0 0 0 0 0 0 0 0 
0 0 0 0 0 0 0 0 0 
0 0 0 0 0 0 0 0 0 
0 0 0 0 0 0 0 0 0 
0 0 0 0 0 0 0 0 0 
0 0 0 0 0 0 0 0 0 
0 0 0 0 0 0 0 0 0 
0 0 0 0 0 0 0 0 0 
0 0 0 0 0 0 0 0 0 
0 0 0 0 0 0 0 0 0 
0 0 0 0 0 0 0 0 0 
0 0 0 0 0 0 0 0 0 
0 0 0 0 0 0 0 0 0 
0 0 0 0 0 0 0 0 0 
0 0 0 0 0 0 0 0 0 
0 0 0 0 0 0 0 0 0 
0 0 0 0 0 0 0 0 0 
0 0 0 0 0 0 0 0 0 
0 0 0 0 0 0 0 0 0 
0 0 0 0 0 0 0 0 0 
0 0 0 0 0 0 0 0 0 
0 0 0 0 0 0 0 0 0 
0 0 0 0 0 0 0 0 0 
0 0 0 0 0 0 0 0 0 
0 0 0 0 0 0 0 0 0 
0 0 0 0 0 0 0 0 0 
0 0 0 0 0 0 0 0 0 
0 0 0 0 0 0 0 0 0 
0 0 0 0 0 0 0 0 0 
0 0 0 0 0 0 0 0 0 
0 0 0 0 0 0 0 0 0 
0 0 0 0 0 0 0 0 0 
0 0 0 0 0 0 0 0 0 
0 0 0 0 0 0 0 0 0 
0 0 0 0 0 0 0 0 0 
0 0 0 0 0 0 0 0 0 
0 0 0 0 0 0 0 0 0 
0 0 0 0 0 0 0 0 0 
0 0 0 0 0 0 0 0 0 
0 0 0 0 0 0 0 0 0 
0 0 0 0 0 0 0 0 0 
0 0 0 0 0 0 0 0 0 
0 0 0 0 0 0 0 0 0 
0 0 0 0 0 0 0 0 0 
0 0 0 0 0 0 0 0 0 
0 0 0 0 0 0 0 0 0 
0 0 0 0 0 0 0 0 0 
0 0 0 0 0 0 0 0 0 
0 0 0 0 0 0 0 0 0 
0 0 0 0 0 0 0 0 0 
0 0 0 0 0 0 0 0 0 
0 0 0 0 0 0 0 0 0 
0 0 0 0 0 0 0 0 0 
0 0 0 0 0 0 0 0 0 
0 0 0 0 0 0 0 0 0 
0 0 0 0 0 0 0 0 0 
0 0 0 0 0 0 0 0 0 
0 0 0 0 0 0 0 0 0 
0 0 0 0 0 0 0 0 0 
0 0 0 0 0 0 0 0 0 
0 0 0 0 0 0 0 0 0 
0 0 0 0 0 0 0 0 0 
0 0 0 0 0 0 0 0 0 
0 0 0 0 0 0 0 0 0 
0 0 0 0 0 0 0 0 0 
0 0 0 0 0 0 0 0 0 
0 0 0 0 0 0 0 0 0 
0 0 0 0 0 0 0 0 0 
0 0 0 0 0 0 0 0 0 

fz_mag_viz 1 648 double
0 0 0 0 0 0 0 0 0 
0 0 0 0 0 0 0 0 0 
0 0 0 0 0 0 0 0 0 
0 0 0 0 0 0 0 0 0 
0 0 0 0 0 0 0 0 0 
0 0 0 0 0 0 0 0 0 
0 0 0 0 0 0 0 0 0 
0 0 0 0 0 0 0 0 0 
0 0 0 0 0 0 0 0 0 
0 0 0 0 0 0 0 0 0 
0 0 0 0 0 0 0 0 0 
0 0 0 0 0 0 0 0 0 
0 0 0 0 0 0 0 0 0 
0 0 0 0 0 0 0 0 0 
0 0 0 0 0 0 0 0 0 
0 0 0 0 0 0 0 0 0 
0 0 0 0 0 0 0 0 0 
0 0 0 0 0 0 0 0 0 
0 0 0 0 0 0 0 0 0 
0 0 0 0 0 0 0 0 0 
0 0 0 0 0 0 0 0 0 
0 0 0 0 0 0 0 0 0 
0 0 0 0 0 0 0 0 0 
0 0 0 0 0 0 0 0 0 
0 0 0 0 0 0 0 0 0 
0 0 0 0 0 0 0 0 0 
0 0 0 0 0 0 0 0 0 
0 0 0 0 0 0 0 0 0 
0 0 0 0 0 0 0 0 0 
0 0 0 0 0 0 0 0 0 
0 0 0 0 0 0 0 0 0 
0 0 0 0 0 0 0 0 0 
0 0 0 0 0 0 0 0 0 
0 0 0 0 0 0 0 0 0 
0 0 0 0 0 0 0 0 0 
0 0 0 0 0 0 0 0 0 
0 0 0 0 0 0 0 0 0 
0 0 0 0 0 0 0 0 0 
0 0 0 0 0 0 0 0 0 
0 0 0 0 0 0 0 0 0 
0 0 0 0 0 0 0 0 0 
0 0 0 0 0 0 0 0 0 
0 0 0 0 0 0 0 0 0 
0 0 0 0 0 0 0 0 0 
0 0 0 0 0 0 0 0 0 
0 0 0 0 0 0 0 0 0 
0 0 0 0 0 0 0 0 0 
0 0 0 0 0 0 0 0 0 
0 0 0 0 0 0 0 0 0 
0 0 0 0 0 0 0 0 0 
0 0 0 0 0 0 0 0 0 
0 0 0 0 0 0 0 0 0 
0 0 0 0 0 0 0 0 0 
0 0 0 0 0 0 0 0 0 
0 0 0 0 0 0 0 0 0 
0 0 0 0 0 0 0 0 0 
0 0 0 0 0 0 0 0 0 
0 0 0 0 0 0 0 0 0 
0 0 0 0 0 0 0 0 0 
0 0 0 0 0 0 0 0 0 
0 0 0 0 0 0 0 0 0 
0 0 0 0 0 0 0 0 0 
0 0 0 0 0 0 0 0 0 
0 0 0 0 0 0 0 0 0 
0 0 0 0 0 0 0 0 0 
0 0 0 0 0 0 0 0 0 
0 0 0 0 0 0 0 0 0 
0 0 0 0 0 0 0 0 0 
0 0 0 0 0 0 0 0 0 
0 0 0 0 0 0 0 0 0 
0 0 0 0 0 0 0 0 0 
0 0 0 0 0 0 0 0 0 

B_magnitude 1 648 double
0 0 0 0 0 0 0 0 0 
0 0 0 0 0 0 0 0 0 
0 0 0 0 0 0 0 0 0 
0 0 0 0 0 0 0 0 0 
0 0 0 0 0 0 0 0 0 
0 0 0 0 0 0 0 0 0 
0 0 0 0 0 0 0 0 0 
0 0 0 0 0 0 0 0 0 
0 0 0 0 0 0 0 0 0 
0 0 0 0 0 0 0 0 0 
0 0 0 0 0 0 0 0 0 
0 0 0 0 0 0 0 0 0 
0 0 0 0 0 0 0 0 0 
0 0 0 0 0 0 0 0 0 
0 0 0 0 0 0 0 0 0 
0 0 0 0 0 0 0 0 0 
0 0 0 0 0 0 0 0 0 
0 0 0 0 0 0 0 0 0 
0 0 0 0 0 0 0 0 0 
0 0 0 0 0 0 0 0 0 
0 0 0 0 0 0 0 0 0 
0 0 0 0 0 0 0 0 0 
0 0 0 0 0 0 0 0 0 
0 0 0 0 0 0 0 0 0 
0 0 0 0 0 0 0 0 0 
0 0 0 0 0 0 0 0 0 
0 0 0 0 0 0 0 0 0 
0 0 0 0 0 0 0 0 0 
0 0 0 0 0 0 0 0 0 
0 0 0 0 0 0 0 0 0 
0 0 0 0 0 0 0 0 0 
0 0 0 0 0 0 0 0 0 
0 0 0 0 0 0 0 0 0 
0 0 0 0 0 0 0 0 0 
0 0 0 0 0 0 0 0 0 
0 0 0 0 0 0 0 0 0 
0 0 0 0 0 0 0 0 0 
0 0 0 0 0 0 0 0 0 
0 0 0 0 0 0 0 0 0 
0 0 0 0 0 0 0 0 0 
0 0 0 0 0 0 0 0 0 
0 0 0 0 0 0 0 0 0 
0 0 0 0 0 0 0 0 0 
0 0 0 0 0 0 0 0 0 
0 0 0 0 0 0 0 0 0 
0 0 0 0 0 0 0 0 0 
0 0 0 0 0 0 0 0 0 
0 0 0 0 0 0 0 0 0 
0 0 0 0 0 0 0 0 0 
0 0 0 0 0 0 0 0 0 
0 0 0 0 0 0 0 0 0 
0 0 0 0 0 0 0 0 0 
0 0 0 0 0 0 0 0 0 
0 0 0 0 0 0 0 0 0 
0 0 0 0 0 0 0 0 0 
0 0 0 0 0 0 0 0 0 
0 0 0 0 0 0 0 0 0 
0 0 0 0 0 0 0 0 0 
0 0 0 0 0 0 0 0 0 
0 0 0 0 0 0 0 0 0 
0 0 0 0 0 0 0 0 0 
0 0 0 0 0 0 0 0 0 
0 0 0 0 0 0 0 0 0 
0 0 0 0 0 0 0 0 0 
0 0 0 0 0 0 0 0 0 
0 0 0 0 0 0 0 0 0 
0 0 0 0 0 0 0 0 0 
0 0 0 0 0 0 0 0 0 
0 0 0 0 0 0 0 0 0 
0 0 0 0 0 0 0 0 0 
0 0 0 0 0 0 0 0 0 
0 0 0 0 0 0 0 0 0 

B_gradient_mag 1 648 double
0 0 0 0 0 0 0 0 0 
0 0 0 0 0 0 0 0 0 
0 0 0 0 0 0 0 0 0 
0 0 0 0 0 0 0 0 0 
0 0 0 0 0 0 0 0 0 
0 0 0 0 0 0 0 0 0 
0 0 0 0 0 0 0 0 0 
0 0 0 0 0 0 0 0 0 
0 0 0 0 0 0 0 0 0 
0 0 0 0 0 0 0 0 0 
0 0 0 0 0 0 0 0 0 
0 0 0 0 0 0 0 0 0 
0 0 0 0 0 0 0 0 0 
0 0 0 0 0 0 0 0 0 
0 0 0 0 0 0 0 0 0 
0 0 0 0 0 0 0 0 0 
0 0 0 0 0 0 0 0 0 
0 0 0 0 0 0 0 0 0 
0 0 0 0 0 0 0 0 0 
0 0 0 0 0 0 0 0 0 
0 0 0 0 0 0 0 0 0 
0 0 0 0 0 0 0 0 0 
0 0 0 0 0 0 0 0 0 
0 0 0 0 0 0 0 0 0 
0 0 0 0 0 0 0 0 0 
0 0 0 0 0 0 0 0 0 
0 0 0 0 0 0 0 0 0 
0 0 0 0 0 0 0 0 0 
0 0 0 0 0 0 0 0 0 
0 0 0 0 0 0 0 0 0 
0 0 0 0 0 0 0 0 0 
0 0 0 0 0 0 0 0 0 
0 0 0 0 0 0 0 0 0 
0 0 0 0 0 0 0 0 0 
0 0 0 0 0 0 0 0 0 
0 0 0 0 0 0 0 0 0 
0 0 0 0 0 0 0 0 0 
0 0 0 0 0 0 0 0 0 
0 0 0 0 0 0 0 0 0 
0 0 0 0 0 0 0 0 0 
0 0 0 0 0 0 0 0 0 
0 0 0 0 0 0 0 0 0 
0 0 0 0 0 0 0 0 0 
0 0 0 0 0 0 0 0 0 
0 0 0 0 0 0 0 0 0 
0 0 0 0 0 0 0 0 0 
0 0 0 0 0 0 0 0 0 
0 0 0 0 0 0 0 0 0 
0 0 0 0 0 0 0 0 0 
0 0 0 0 0 0 0 0 0 
0 0 0 0 0 0 0 0 0 
0 0 0 0 0 0 0 0 0 
0 0 0 0 0 0 0 0 0 
0 0 0 0 0 0 0 0 0 
0 0 0 0 0 0 0 0 0 
0 0 0 0 0 0 0 0 0 
0 0 0 0 0 0 0 0 0 
0 0 0 0 0 0 0 0 0 
0 0 0 0 0 0 0 0 0 
0 0 0 0 0 0 0 0 0 
0 0 0 0 0 0 0 0 0 
0 0 0 0 0 0 0 0 0 
0 0 0 0 0 0 0 0 0 
0 0 0 0 0 0 0 0 0 
0 0 0 0 0 0 0 0 0 
0 0 0 0 0 0 0 0 0 
0 0 0 0 0 0 0 0 0 
0 0 0 0 0 0 0 0 0 
0 0 0 0 0 0 0 0 0 
0 0 0 0 0 0 0 0 0 
0 0 0 0 0 0 0 0 0 
0 0 0 0 0 0 0 0 0 

