# vtk DataFile Version 5.1
Generated by LIGGGHTS
ASCII
DATASET POLYDATA
POINTS 648 float
-0.0428902 -0.0449088 0.00102 -0.044759 -0.0437614 0.00121936 -0.0308094 -0.0435702 0.0012076 
-0.00396528 -0.0444182 0.00154812 0.0195053 -0.043722 0.00119952 0.0418836 -0.0421436 0.00117316 
0.0414821 -0.0410789 0.00111663 -0.042922 -0.0404536 0.00124646 -0.018434 -0.0405477 0.00106708 
0.040047 -0.0404588 0.00102335 -0.00302782 -0.0385948 0.00102 0.0156715 -0.0391733 0.00110789 
0.00798734 -0.0367051 0.00102 0.0308099 -0.0378456 0.00131811 0.000822496 -0.0363122 0.00114187 
0.0333162 -0.0342631 0.00125431 0.023158 -0.0340207 0.00121515 0.0244271 -0.0334586 0.00126262 
-0.0232422 -0.0321576 0.00125421 -0.0266532 -0.0301716 0.00105829 -0.0105296 -0.0314142 0.00102 
0.0280204 -0.0311414 0.00120178 -0.0448384 -0.0296834 0.00119491 0.023019 -0.0293484 0.00141279 
0.00577088 -0.0287415 0.00108575 0.000892701 -0.0263701 0.00112194 0.033456 -0.0256735 0.0010255 
0.032808 -0.025967 0.0011087 0.00558373 -0.0242787 0.00156236 -0.0408326 -0.0234295 0.00104027 
-0.0127621 -0.0231756 0.001515 0.0240101 -0.0228809 0.00146246 0.0436787 -0.0219137 0.00125907 
-0.0210835 -0.0209207 0.00126639 -0.0033641 -0.0204173 0.0012444 0.0336491 -0.0197505 0.00102385 
-0.0108877 -0.0188832 0.0010298 0.0363266 -0.0194176 0.00105538 -0.0317771 -0.0175651 0.00115289 
0.0404767 -0.0183151 0.00122311 -0.0405162 -0.0161033 0.00119151 -0.0257955 -0.0157834 0.00105169 
-0.0147645 -0.0165889 0.00153036 0.0223879 -0.0163393 0.00120153 -0.00444012 -0.0151621 0.00119997 
0.00689113 -0.0107816 0.00105682 0.0277003 -0.0107969 0.00126081 -0.0112192 -0.0104501 0.00120133 
0.00743742 -0.00926665 0.00114091 0.0350526 -0.0102353 0.00102 -0.0198564 -0.00683511 0.00102 
0.0275881 -0.00673863 0.00115884 -0.0129003 -0.00574839 0.00102 0.00937085 -0.00418454 0.00104971 
0.0131353 -0.00504642 0.00119644 0.0200271 -0.00425623 0.00122405 0.021323 -0.00444137 0.00105477 
-0.0179231 -0.00300678 0.00102 -0.0107529 -0.00365687 0.00141421 0.0168839 -0.00210364 0.00141557 
-0.0153419 -0.00108619 0.00145731 -0.00783961 -0.000387029 0.00104588 -0.00702036 -0.00121172 0.00127365 
0.0384376 0.000848974 0.00102 -0.00967086 0.00179773 0.00105237 0.00417698 0.0024455 0.00116183 
0.0449494 0.00392273 0.00106774 0.0292006 0.00433004 0.00102 0.0305447 0.00486582 0.00102 
-0.0287984 0.00559412 0.00102 -0.0170872 0.00564833 0.00107834 0.0011249 0.00615697 0.00103414 
0.021602 0.00540593 0.00102 0.0228765 0.00606581 0.00117047 0.0246705 0.0064451 0.00118804 
-0.0426568 0.00723228 0.00102008 0.0221269 0.00728552 0.0011063 -0.0392616 0.00972366 0.00121904 
-0.0101256 0.00978275 0.00123131 0.0197977 0.00963841 0.0011543 0.0212596 0.00979192 0.00102 
0.0399323 0.0117688 0.0010436 -0.00279986 0.0127222 0.00109151 -0.034865 0.0142961 0.00102639 
-0.0310202 0.0131063 0.00102 8.23501e-07 0.0138406 0.0012721 0.0143092 0.0139794 0.00102237 
0.0248423 0.0143007 0.00102 0.0287781 0.014071 0.00103155 0.00517921 0.0169249 0.00103543 
-0.0360536 0.0173104 0.00102 0.0215224 0.0171285 0.00102068 -0.0214239 0.0189608 0.00110891 
-0.023041 0.0197144 0.00121044 -0.022709 0.0198803 0.00124136 -0.0153727 0.020636 0.00102 
-0.0282566 0.021284 0.00102374 0.0123926 0.0218243 0.00102 -0.0148746 0.0223253 0.00154227 
0.03506 0.0228899 0.00102 0.00264144 0.0247174 0.00135633 0.0167463 0.0251763 0.00102 
0.0226957 0.0260881 0.00123891 -0.0409258 0.0305044 0.00102306 -0.0200898 0.0311527 0.00117337 
0.0364634 0.0310238 0.00118026 0.0444958 0.0309554 0.00119108 0.0191028 0.0315895 0.00120795 
-0.0264781 0.032823 0.00121211 0.00727395 0.0332762 0.0014461 0.00284552 0.0345861 0.00104503 
0.0297434 0.0373158 0.00108418 0.0165329 0.0385374 0.00102648 0.0238959 0.0383247 0.00109543 
0.0251972 0.0393087 0.00117591 0.0163992 0.0415262 0.0012087 -0.0390027 0.0421086 0.00102067 
0.00528787 0.0432844 0.00151255 -0.0335565 -0.0442122 0.00196143 0.0145521 -0.0432303 0.00265855 
0.0416479 -0.0439733 0.002532 0.0131812 -0.0427533 0.0022082 0.0201641 -0.0426709 0.00160823 
0.0348044 -0.042095 0.0020752 -0.0349861 -0.0412827 0.00263363 -0.0136468 -0.0412372 0.00107349 
-0.00674967 -0.0416523 0.0017926 0.000425919 -0.0415728 0.00163584 0.0166138 -0.0412108 0.00205886 
0.0338942 -0.0410147 0.00170717 0.0424299 -0.0409921 0.00238547 -0.0334706 -0.0396012 0.00195898 
-0.0248652 -0.040212 0.00228735 -0.0169239 -0.0402939 0.00218382 -0.0108246 -0.0388127 0.00127072 
0.00985621 -0.0367022 0.00211131 -0.0309963 -0.0355024 0.00174861 -0.0273176 -0.0361067 0.00253296 
-0.00161929 -0.0353994 0.00196755 0.0195647 -0.0366528 0.00222885 0.0355384 -0.0354155 0.00169769 
0.0403097 -0.0347888 0.00184673 0.0433459 -0.0353282 0.00110571 -0.0177803 -0.0340186 0.00173386 
-0.0161578 -0.0337243 0.00115224 -0.00586029 -0.0338127 0.00211769 0.027474 -0.0338615 0.00181121 
-0.0376897 -0.0314333 0.00262818 -0.0262624 -0.032473 0.00115861 -0.0233761 -0.031813 0.00109671 
-0.0160452 -0.0323821 0.00165346 0.0346336 -0.0325969 0.00229001 -0.0220587 -0.0306349 0.00170325 
-0.0414327 -0.0290659 0.00184919 0.00231692 -0.0294453 0.00218935 -0.0401314 -0.0280847 0.0018677 
0.0153133 -0.0285941 0.00169407 -0.0430551 -0.0267583 0.00186593 0.0306875 -0.0259396 0.00157603 
-0.00863888 -0.0237376 0.00159573 0.00179778 -0.0247441 0.00111083 0.0102479 -0.024092 0.0024343 
0.0115492 -0.0227248 0.00206181 0.035159 -0.023363 0.00204358 -0.0225401 -0.0213878 0.00220025 
-0.0164034 -0.0216001 0.00223566 0.0233461 -0.0214624 0.00231746 0.0394323 -0.021923 0.00203339 
0.039775 -0.0211058 0.00208484 -0.0328213 -0.0176588 0.00258691 -0.0100897 -0.0180162 0.00219967 
0.0030191 -0.0179247 0.00135794 -0.0339565 -0.0167518 0.00218032 0.038292 -0.016257 0.00208614 
-0.0408642 -0.0154151 0.00215176 -0.015814 -0.0152491 0.0022933 0.0323803 -0.0150629 0.00170668 
0.0375745 -0.0151367 0.00227481 -0.0388614 -0.0136303 0.00191832 -0.0227164 -0.0141288 0.00193936 
-0.0186412 -0.0134353 0.00228029 -0.0117656 -0.0138394 0.00133235 0.0144468 -0.013247 0.00133472 
-0.0341597 -0.0122829 0.00248673 -0.0327621 -0.0121928 0.00251586 -0.00528066 -0.0121118 0.00159816 
-0.0222502 -0.00974669 0.00129376 0.013874 -0.00963069 0.00144621 0.0313953 -0.00974065 0.00165898 
0.0334462 -0.00930086 0.00157841 -0.042331 -0.00792816 0.001057 -0.00553214 -0.00871323 0.00165678 
-0.0344646 -0.00725539 0.00199243 0.0109664 -0.00760095 0.00142542 0.0161928 -0.00760918 0.00249337 
-0.00747582 -0.00609419 0.00160868 0.0387156 -0.00624884 0.00251045 0.0180458 -0.00470109 0.00221608 
-0.0141425 -0.00311887 0.00130261 -0.00941413 -0.00330341 0.00194811 0.00975646 -0.00313231 0.00227106 
0.0293019 -0.00298432 0.00154522 -0.0198668 -0.00211416 0.00169973 -0.00896956 -0.00131708 0.00236547 
-0.0283489 -0.000417126 0.00185766 -0.0281455 -0.00127675 0.00244723 0.0140084 -6.89735e-05 0.00182889 
-0.0260142 0.00017485 0.00152055 0.0116524 0.00206193 0.00193163 0.0188762 0.00181355 0.00195402 
0.032558 0.00153523 0.00223099 -0.0325416 0.00283857 0.00220945 0.00243665 0.00282786 0.00227654 
0.0183943 0.00266245 0.0012524 -0.025141 0.00447188 0.00234086 0.0323225 0.00436429 0.00261384 
0.0404406 0.00462082 0.00252323 -0.0406381 0.00555966 0.00248262 0.0101693 0.00555192 0.00208445 
0.0332757 0.00539899 0.00272362 -0.0429246 0.00657681 0.00148324 0.00533928 0.00728904 0.00254981 
-0.0105861 0.00898083 0.00158299 0.0283387 0.00890506 0.00135879 0.0340899 0.00882812 0.00212191 
-0.0408092 0.00981999 0.00237267 -0.0214351 0.00957734 0.00131519 0.00978397 0.00922321 0.00187576 
0.0211953 0.00966092 0.00241797 -0.0394276 0.0109375 0.00215194 0.0398091 0.011618 0.00224441 
-0.0350204 0.0121089 0.00213884 -0.00831541 0.0129665 0.00159274 0.00861143 0.0123591 0.00201431 
-0.00841171 0.0143034 0.00191228 0.00789931 0.0136568 0.00207423 0.0311878 0.014057 0.00198827 
0.0396593 0.013993 0.00168684 0.0441199 0.0136981 0.0023238 -0.00307286 0.0144526 0.00136769 
0.0121458 0.0151918 0.00235508 0.0440772 0.0154938 0.00150884 -0.00443291 0.0160613 0.00233932 
0.0418335 0.0161761 0.0016858 0.0256029 0.0175394 0.00178492 0.0407412 0.0174253 0.002527 
0.00757299 0.0192258 0.00239042 0.0090081 0.0191686 0.00211775 0.0350116 0.0207306 0.00197331 
-0.0287332 0.0215601 0.00164951 -0.0122989 0.0222019 0.00231357 0.0398418 0.0217469 0.00188525 
-0.0295899 0.0232577 0.00221333 0.00126512 0.0228658 0.00195766 0.0307708 0.0242663 0.00171199 
0.0438582 0.0244724 0.00214214 -0.0128609 0.0265935 0.00128009 0.0395905 0.0272142 0.00226211 
0.00834461 0.0278725 0.00266598 -0.0127911 0.0299546 0.00161405 0.0434247 0.0295768 0.00272143 
-0.0313244 0.0314049 0.00192546 -0.0219587 0.0304934 0.00105109 0.00372347 0.0304157 0.00124547 
0.0038092 0.0311583 0.0011626 0.00519606 0.0301696 0.00245852 -0.0073504 0.0318329 0.00144073 
0.00390562 0.0317225 0.00177938 0.01325 0.0319187 0.00220119 0.0193546 0.0324404 0.00172512 
-0.0425374 0.0333781 0.00167258 0.0214431 0.0335886 0.00163278 -0.00472634 0.0344449 0.00110203 
0.00317215 0.0343196 0.00254505 0.0231674 0.0340949 0.00246579 -0.0407273 0.0358476 0.00157751 
-0.041477 0.0364172 0.00200744 0.00888594 0.0360502 0.001082 -0.00973825 0.0391656 0.00123058 
-0.00883869 0.0381834 0.00157287 -0.00585061 0.0388609 0.0021428 -0.00647711 0.0391566 0.00179896 
0.0281745 0.039089 0.00171859 -0.0312382 0.0393096 0.00146326 0.00201585 0.0404036 0.00105097 
-0.0133259 0.0414802 0.00251824 0.0222253 0.0407186 0.00128003 0.0114086 0.0440135 0.00241644 
0.0352701 0.0439749 0.00221937 0.0352379 0.0438995 0.00262105 0.0405446 0.0433429 0.00239398 
0.0171919 0.0449185 0.00239328 0.0211706 0.0445491 0.0023169 -0.0346971 -0.0446764 0.00287197 
-0.00340304 -0.0448428 0.00286317 -0.027409 -0.0433703 0.00343716 0.0181024 -0.0433049 0.00296783 
-0.0248654 -0.0427111 0.00283786 0.0248068 -0.0428986 0.00296528 0.0238162 -0.0409762 0.00336572 
-0.00670669 -0.0394183 0.00344563 0.0244803 -0.0401788 0.00291104 -0.0370475 -0.0370945 0.0035042 
0.0397687 -0.0374633 0.00279399 -0.0439713 -0.0357399 0.00350884 -0.0168273 -0.0360331 0.00285762 
0.00594186 -0.0351889 0.00253178 0.0077947 -0.0345433 0.00298566 0.00879071 -0.0344865 0.00342736 
-0.0427235 -0.0332389 0.00349156 0.00802514 -0.031483 0.00346562 0.0268369 -0.0315202 0.00375264 
-0.0386911 -0.0311434 0.00318857 0.0449741 -0.0303513 0.00293672 -0.0263426 -0.0292431 0.00282012 
0.0346338 -0.0290927 0.00289792 -0.0240024 -0.0280603 0.00302431 0.0164647 -0.0275391 0.00267175 
-0.00580099 -0.0272788 0.00345129 0.0101031 -0.0273014 0.00248341 0.03382 -0.0268981 0.0032669 
-0.0338231 -0.0250135 0.00343969 0.00538025 -0.0241403 0.00276063 0.0155599 -0.0240909 0.00313469 
-0.0350278 -0.0224863 0.00228341 0.00623721 -0.0211799 0.00271614 -0.00827992 -0.020547 0.00320702 
0.00548761 -0.0197918 0.00294346 -0.0296942 -0.0196153 0.00264632 0.00156248 -0.0194187 0.00284028 
-0.0204621 -0.0172006 0.00283764 -0.0426154 -0.0165053 0.00329296 0.0252581 -0.0163235 0.00242105 
0.0198229 -0.0156851 0.00262998 0.0249316 -0.014475 0.00286045 0.0268005 -0.0146468 0.00343057 
-0.0329121 -0.0139828 0.00352143 -0.0313057 -0.0141988 0.00200756 0.0403752 -0.0143085 0.00275529 
0.0176437 -0.0119747 0.00287134 -0.038829 -0.00978443 0.00357464 -0.0196799 -0.00931279 0.00281334 
0.0251729 -0.00985964 0.00252403 0.0286804 -0.00919085 0.00287548 0.0406218 -0.0100941 0.00299529 
-0.00254943 -0.00825679 0.0030569 -0.0343844 -0.0078404 0.003072 -0.0304645 -0.00701594 0.00347884 
-0.0211095 -0.00770044 0.0030357 -0.0135858 -0.00672635 0.00329431 -0.00401126 -0.00720159 0.00313723 
-0.00433253 -0.00676057 0.00311365 0.0404774 -0.00688032 0.00307935 0.00523139 -0.00599236 0.00305827 
-0.040885 -0.00406647 0.00266709 -0.0253129 -0.0039775 0.00272805 -0.042786 -0.00359954 0.0033655 
-0.0120059 -0.00345367 0.00306036 -0.0408474 -0.00214648 0.00267143 -0.0395569 -0.00227866 0.00279473 
0.00664535 -0.00164817 0.00278989 -0.0376932 -0.000132947 0.00310328 0.0290986 -0.000251763 0.00292771 
-0.0416237 0.00110806 0.00333413 0.0407777 0.000744206 0.00301791 0.0147261 0.00139147 0.00275258 
0.0362421 0.00170773 0.00332689 0.0260144 0.00429017 0.0021432 -0.037077 0.00611456 0.00294585 
-0.00723413 0.00605583 0.00339398 0.0250346 0.00641518 0.00282189 0.030759 0.00580352 0.00325585 
0.0142017 0.0079404 0.00348186 0.0202046 0.00840095 0.00348008 -0.0349081 0.00917553 0.00233182 
0.00474506 0.0103043 0.00287485 -0.00071691 0.0108932 0.00316516 -0.0365733 0.0119208 0.00307508 
0.00243185 0.0120975 0.00316982 0.0128044 0.0127337 0.00274774 0.014866 0.0127598 0.00351408 
0.0261916 0.0119357 0.00330535 -0.0429188 0.0135204 0.00286936 -0.00867948 0.0139924 0.00281498 
0.0336082 0.013194 0.00275322 -0.0231109 0.0157017 0.00207516 -0.0196462 0.0155185 0.00272932 
0.000954082 0.0152563 0.00314148 0.00976298 0.0163696 0.00239686 0.0226738 0.0181095 0.00287833 
0.00395304 0.0187088 0.00324574 0.0122157 0.0191756 0.00280606 0.018015 0.0183735 0.00265597 
0.0388885 0.0193682 0.00288213 -0.0431379 0.0208085 0.00289581 0.00128112 0.0217131 0.00300166 
0.0362273 0.0220011 0.00278557 -0.0421793 0.0225172 0.00324283 -0.0349287 0.0230684 0.00286057 
0.0146363 0.0223077 0.00326074 -0.0267196 0.0236159 0.00261942 0.0258603 0.0235991 0.00295853 
-0.0386663 0.0253433 0.00301376 -0.00739359 0.0259593 0.00269286 -0.0267569 0.0263983 0.00310235 
-0.0190887 0.0269029 0.0031617 -0.0114472 0.026715 0.0033745 -0.00563177 0.0268155 0.00314451 
0.00953871 0.0271324 0.00274814 -0.0357156 0.0282031 0.00252689 -0.0376379 0.0294143 0.00310929 
0.0191509 0.0299648 0.00321501 -0.0108954 0.0304 0.00313623 0.026696 0.03017 0.00303913 
-0.00435696 0.0325462 0.00356013 0.0372507 0.0318783 0.00317103 -0.0337286 0.0337045 0.00261566 
0.0278529 0.0342296 0.00254835 -0.00196307 0.0366495 0.00266606 -0.0245447 0.0378537 0.00286859 
0.0030545 0.0369981 0.0027744 0.0311732 0.0371467 0.00316865 -0.0375088 0.0393741 0.0028327 
-0.0112537 0.0395394 0.00254272 0.0221021 0.0401282 0.00265656 0.00805094 0.0422278 0.00354715 
0.0294278 0.0431452 0.00256003 -0.0205282 0.0432397 0.0027944 -0.0181988 0.0434549 0.00272532 
0.0399235 0.0434757 0.00345637 -0.0390775 0.0447256 0.00297068 0.0406519 -0.0427256 0.00411163 
0.0325128 -0.03812 0.00446336 -0.0346801 -0.0287009 0.00342554 -0.0240719 -0.0268296 0.00435827 
0.0347572 -0.0260666 0.00343355 0.0132043 -0.01541 0.00356437 -0.0279963 -0.0141356 0.0033001 
-0.0269092 -0.0125643 0.00432084 -0.0136128 -0.00979682 0.00332759 -0.0214415 -0.007536 0.00416041 
0.0180565 -0.00487531 0.00422604 -0.00229178 0.0020129 0.00447368 -0.0261639 0.00337815 0.00433463 
-0.0233311 0.00384073 0.00371566 0.0358407 0.00533501 0.00410152 -0.019893 0.00878872 0.00408066 
0.0234497 0.00978487 0.00397512 -0.0408838 0.0159645 0.00399887 -0.0193355 0.018129 0.00407603 
0.00546842 0.0177814 0.00340083 0.00742845 0.0199749 0.00394162 0.00976854 0.0197772 0.00351932 
-0.0324762 0.0230005 0.00326678 -0.00782209 0.0241861 0.00434489 0.0181332 0.0246356 0.00417581 
0.021223 0.0244832 0.0035951 0.000162142 0.0251126 0.0044036 0.0397191 0.0283771 0.00387211 
0.00367032 0.0371324 0.0043695 -0.0389435 -0.0425966 0.00555745 -0.0406141 -0.0405112 0.00512449 
-0.0195638 -0.0385913 0.00551401 -0.0177429 -0.0346724 0.00547205 -8.23525e-05 -0.034098 0.00561321 
-0.00446216 -0.0255279 0.00489586 0.0350196 -0.0250011 0.00491784 0.0109547 -0.0235646 0.00516756 
0.0204492 -0.0194639 0.0053997 0.0129906 -0.00677597 0.00465864 0.039455 -0.000236508 0.00482082 
0.0189244 0.00254502 0.00548398 -0.0403489 0.00598291 0.00570056 -0.009285 0.00693532 0.0046056 
-0.00598638 0.00689803 0.00507523 0.0110904 0.00657535 0.0055346 0.0324887 0.00836074 0.00531806 
-0.0408306 0.00999374 0.00521356 0.027557 0.009967 0.0055013 -0.00808524 0.0113378 0.00487706 
0.0040127 0.0314243 0.00551027 0.0337272 0.0324898 0.00545064 0.0380057 0.0324307 0.00502876 
0.0262096 -0.0449372 0.00712705 0.00849583 -0.0405939 0.00614124 -0.0210092 -0.0320472 0.00669055 
0.0210005 -0.0239559 0.00706948 -0.0323128 -0.0219837 0.00617682 -0.0207996 -0.0190456 0.00599684 
0.0184681 -0.0172117 0.00723682 0.00886689 -0.0141191 0.00691223 0.0322358 -0.0130621 0.00717205 
0.0253763 -0.011051 0.00581973 -0.0253401 -0.0103599 0.00600034 -0.0150798 -0.00698339 0.0068328 
-0.000610522 -0.00103491 0.00623818 0.0420414 -0.00101026 0.00637217 0.00314898 0.00491531 0.00626201 
0.012949 0.0143048 0.00597146 -0.0287818 0.014969 0.00684214 -0.0363159 0.0185996 0.00685141 
-0.0436572 0.0238848 0.00602434 -0.0214233 0.0285543 0.00671519 0.0152528 0.033152 0.00674501 
-0.039126 0.0399637 0.0069281 0.0170579 0.0421878 0.00686505 -0.0289295 -0.0389067 0.00739589 
0.0392765 -0.0300093 0.00762263 -0.0291427 -0.0219343 0.00841525 0.0134129 -0.0192809 0.00776107 
0.0296492 -0.015918 0.00827737 -0.00710141 -0.0133745 0.00750185 0.0414517 -0.0114994 0.00843235 
0.00127443 -0.000618905 0.00834091 -0.027449 0.00511055 0.00741317 -0.01547 0.00642247 0.00764978 
-0.0286532 0.0159811 0.00728586 -0.00317984 0.0164631 0.00758899 -0.0406313 0.0295913 0.00804436 
-0.0213481 0.0319153 0.00739605 -0.00750544 0.0361316 0.00775121 -0.0160353 0.0448572 0.00794995 
-0.0317519 -0.0446953 0.00862516 0.0339316 -0.041715 0.00945813 0.0307351 -0.0355434 0.00952179 
-0.0179089 -0.0346335 0.00879179 0.043014 -0.0343178 0.00912735 0.00264867 -0.0338128 0.0099569 
0.010226 -0.0308634 0.00952189 0.0156293 -0.0283842 0.00874803 -0.0432264 -0.0264101 0.0095091 
0.0054016 -0.025334 0.00958912 0.0347312 -0.012978 0.00870296 0.0218314 -0.00971151 0.00907933 
-0.0101373 -0.00698039 0.00918095 -0.00720807 -0.00608605 0.00965616 -0.0332593 0.000859011 0.00886333 
-0.0131355 0.00164571 0.0096838 0.00265626 0.00371614 0.00972024 -0.00552594 0.00555795 0.00914961 
0.0114764 0.0140289 0.00906335 -0.0161548 0.0159009 0.00898855 -0.0436896 0.0195853 0.00902373 
-0.0138035 0.0240512 0.00895693 -0.0132251 0.0252506 0.00881165 -0.0102477 0.0267602 0.00935428 
-0.0234086 -0.038644 0.0102966 0.0341086 -0.0368686 0.0104452 -0.00338111 -0.0363358 0.0101124 
-0.038621 -0.0229432 0.0106618 0.0282033 -0.0178095 0.0108863 -0.0137512 0.00384646 0.00978708 
0.00418285 0.0112423 0.0108468 -0.0152062 0.0294088 0.0109811 -0.032208 0.0306075 0.0110015 
-0.0359241 0.0337864 0.0107634 0.0132394 0.0345575 0.0108735 0.0164577 0.0353116 0.0100599 
-0.0379532 0.0399341 0.010475 -0.00785852 0.041878 0.0109225 0.0430506 0.0422314 0.0108777 
-0.0190394 0.0446837 0.0108437 -0.0396817 -0.0304797 0.011787 -0.0139777 -0.0223984 0.0118379 
0.0262592 -0.0217201 0.0118122 0.0342493 -0.0115037 0.0126647 0.0448793 -0.00396119 0.0115655 
0.0320014 0.00756294 0.0121612 0.0354139 0.0312817 0.0125837 0.0147823 -0.0446949 0.013401 
-0.00682403 -0.0314098 0.012583 -0.0419519 -0.0259749 0.0137601 -0.0183202 -0.0175475 0.0127227 
0.0323804 -0.0132471 0.0136653 0.0223025 -0.0112244 0.013911 0.0386193 -0.00496685 0.0133896 
0.0277548 0.0042931 0.013067 -0.0442311 0.00821601 0.0126261 0.012585 0.0155082 0.0138504 
0.00153271 0.0201988 0.0129114 -0.0269229 0.0267788 0.0137924 -0.0368667 0.0306348 0.0135995 
-0.0422696 0.0340949 0.0128968 0.00308146 0.0401468 0.0137483 0.0412685 -0.0295104 0.014521 
0.0218308 -0.0192565 0.0148397 0.0352883 -0.0103067 0.0137241 -0.00474481 -0.00600267 0.0140676 
0.023953 0.00820576 0.0146014 0.0153641 0.0146287 0.0145313 -0.0122189 0.0175978 0.0138526 
-0.0245993 0.0193658 0.0150653 -0.014478 0.0275162 0.0142273 -0.0197415 0.0344175 0.0149924 
0.0185094 -0.042363 0.0167169 0.0419483 -0.0348097 0.0157425 0.0272875 -0.0186725 0.015815 
-0.0393221 -0.0167834 0.0155674 -0.0207563 -0.0111167 0.015548 -0.0449336 -0.00957357 0.0158618 
-0.0326334 -0.00963456 0.0157473 0.00347554 0.00338662 0.0169676 -0.0260391 0.0304395 0.0161453 
0.0104707 0.0313218 0.0160595 -0.0155539 0.0359545 0.0164189 0.00513794 0.0433856 0.015557 
-0.0440308 0.0448256 0.0164356 -0.015788 -0.0282898 0.017126 -0.0336946 -0.0248459 0.017318 
-0.0328109 -0.0226975 0.0178446 -0.0329608 -0.0218045 0.0168183 0.0414834 -0.0181367 0.0172589 
-0.024842 -0.00884532 0.0170723 0.0127657 -0.00746761 0.0171832 -0.0371624 0.011326 0.0167624 
0.0379188 0.0120326 0.0173629 0.0323341 0.0191974 0.0167708 -0.0281804 0.0418824 0.0178771 
-0.0225361 -0.0441701 0.0179971 -0.00521279 -0.0413279 0.0189551 -0.0385899 -0.0405251 0.0183159 
-0.0420316 -0.0145538 0.0192591 0.0302919 -0.0148257 0.0181381 0.0433204 -0.0141837 0.0190583 
0.0414788 -0.00521487 0.0185045 -0.0081225 0.0151775 0.0194391 -0.0256005 0.0215871 0.0192678 
-0.0296003 0.0277025 0.019292 0.0439232 0.0371117 0.0182072 -0.0437633 0.0406561 0.0192575 
0.0188903 -0.0308528 0.0198715 -0.0207679 -0.0256315 0.0200763 -0.0386256 -0.00983966 0.0205163 
0.0282359 -0.00877456 0.0207452 -0.00254916 -0.00379952 0.0199726 -0.0356048 -0.000104637 0.0203086 
0.00643655 -0.000956063 0.0206336 -0.00757157 0.00454821 0.0198794 -0.0144089 0.0201081 0.0200684 
0.0289145 -0.0340196 0.0219959 0.00357123 -0.00830953 0.0216843 0.0154702 -0.00154679 0.020882 
0.00635633 0.000852437 0.0220164 0.0131273 0.040817 0.0214979 0.00741479 -0.0295782 0.0225159 
0.0133448 0.00646544 0.02488 -0.0170112 0.0231088 0.025567 0.0242571 -0.0100823 0.0315957 

VERTICES 649 648
OFFSETS vtktypeint64
0 1 2 3 4 5 6 7 8 
9 10 11 12 13 14 15 16 17 
18 19 20 21 22 23 24 25 26 
27 28 29 30 31 32 33 34 35 
36 37 38 39 40 41 42 43 44 
45 46 47 48 49 50 51 52 53 
54 55 56 57 58 59 60 61 62 
63 64 65 66 67 68 69 70 71 
72 73 74 75 76 77 78 79 80 
81 82 83 84 85 86 87 88 89 
90 91 92 93 94 95 96 97 98 
99 100 101 102 103 104 105 106 107 
108 109 110 111 112 113 114 115 116 
117 118 119 120 121 122 123 124 125 
126 127 128 129 130 131 132 133 134 
135 136 137 138 139 140 141 142 143 
144 145 146 147 148 149 150 151 152 
153 154 155 156 157 158 159 160 161 
162 163 164 165 166 167 168 169 170 
171 172 173 174 175 176 177 178 179 
180 181 182 183 184 185 186 187 188 
189 190 191 192 193 194 195 196 197 
198 199 200 201 202 203 204 205 206 
207 208 209 210 211 212 213 214 215 
216 217 218 219 220 221 222 223 224 
225 226 227 228 229 230 231 232 233 
234 235 236 237 238 239 240 241 242 
243 244 245 246 247 248 249 250 251 
252 253 254 255 256 257 258 259 260 
261 262 263 264 265 266 267 268 269 
270 271 272 273 274 275 276 277 278 
279 280 281 282 283 284 285 286 287 
288 289 290 291 292 293 294 295 296 
297 298 299 300 301 302 303 304 305 
306 307 308 309 310 311 312 313 314 
315 316 317 318 319 320 321 322 323 
324 325 326 327 328 329 330 331 332 
333 334 335 336 337 338 339 340 341 
342 343 344 345 346 347 348 349 350 
351 352 353 354 355 356 357 358 359 
360 361 362 363 364 365 366 367 368 
369 370 371 372 373 374 375 376 377 
378 379 380 381 382 383 384 385 386 
387 388 389 390 391 392 393 394 395 
396 397 398 399 400 401 402 403 404 
405 406 407 408 409 410 411 412 413 
414 415 416 417 418 419 420 421 422 
423 424 425 426 427 428 429 430 431 
432 433 434 435 436 437 438 439 440 
441 442 443 444 445 446 447 448 449 
450 451 452 453 454 455 456 457 458 
459 460 461 462 463 464 465 466 467 
468 469 470 471 472 473 474 475 476 
477 478 479 480 481 482 483 484 485 
486 487 488 489 490 491 492 493 494 
495 496 497 498 499 500 501 502 503 
504 505 506 507 508 509 510 511 512 
513 514 515 516 517 518 519 520 521 
522 523 524 525 526 527 528 529 530 
531 532 533 534 535 536 537 538 539 
540 541 542 543 544 545 546 547 548 
549 550 551 552 553 554 555 556 557 
558 559 560 561 562 563 564 565 566 
567 568 569 570 571 572 573 574 575 
576 577 578 579 580 581 582 583 584 
585 586 587 588 589 590 591 592 593 
594 595 596 597 598 599 600 601 602 
603 604 605 606 607 608 609 610 611 
612 613 614 615 616 617 618 619 620 
621 622 623 624 625 626 627 628 629 
630 631 632 633 634 635 636 637 638 
639 640 641 642 643 644 645 646 647 
648 
CONNECTIVITY vtktypeint64
0 1 2 3 4 5 6 7 8 
9 10 11 12 13 14 15 16 17 
18 19 20 21 22 23 24 25 26 
27 28 29 30 31 32 33 34 35 
36 37 38 39 40 41 42 43 44 
45 46 47 48 49 50 51 52 53 
54 55 56 57 58 59 60 61 62 
63 64 65 66 67 68 69 70 71 
72 73 74 75 76 77 78 79 80 
81 82 83 84 85 86 87 88 89 
90 91 92 93 94 95 96 97 98 
99 100 101 102 103 104 105 106 107 
108 109 110 111 112 113 114 115 116 
117 118 119 120 121 122 123 124 125 
126 127 128 129 130 131 132 133 134 
135 136 137 138 139 140 141 142 143 
144 145 146 147 148 149 150 151 152 
153 154 155 156 157 158 159 160 161 
162 163 164 165 166 167 168 169 170 
171 172 173 174 175 176 177 178 179 
180 181 182 183 184 185 186 187 188 
189 190 191 192 193 194 195 196 197 
198 199 200 201 202 203 204 205 206 
207 208 209 210 211 212 213 214 215 
216 217 218 219 220 221 222 223 224 
225 226 227 228 229 230 231 232 233 
234 235 236 237 238 239 240 241 242 
243 244 245 246 247 248 249 250 251 
252 253 254 255 256 257 258 259 260 
261 262 263 264 265 266 267 268 269 
270 271 272 273 274 275 276 277 278 
279 280 281 282 283 284 285 286 287 
288 289 290 291 292 293 294 295 296 
297 298 299 300 301 302 303 304 305 
306 307 308 309 310 311 312 313 314 
315 316 317 318 319 320 321 322 323 
324 325 326 327 328 329 330 331 332 
333 334 335 336 337 338 339 340 341 
342 343 344 345 346 347 348 349 350 
351 352 353 354 355 356 357 358 359 
360 361 362 363 364 365 366 367 368 
369 370 371 372 373 374 375 376 377 
378 379 380 381 382 383 384 385 386 
387 388 389 390 391 392 393 394 395 
396 397 398 399 400 401 402 403 404 
405 406 407 408 409 410 411 412 413 
414 415 416 417 418 419 420 421 422 
423 424 425 426 427 428 429 430 431 
432 433 434 435 436 437 438 439 440 
441 442 443 444 445 446 447 448 449 
450 451 452 453 454 455 456 457 458 
459 460 461 462 463 464 465 466 467 
468 469 470 471 472 473 474 475 476 
477 478 479 480 481 482 483 484 485 
486 487 488 489 490 491 492 493 494 
495 496 497 498 499 500 501 502 503 
504 505 506 507 508 509 510 511 512 
513 514 515 516 517 518 519 520 521 
522 523 524 525 526 527 528 529 530 
531 532 533 534 535 536 537 538 539 
540 541 542 543 544 545 546 547 548 
549 550 551 552 553 554 555 556 557 
558 559 560 561 562 563 564 565 566 
567 568 569 570 571 572 573 574 575 
576 577 578 579 580 581 582 583 584 
585 586 587 588 589 590 591 592 593 
594 595 596 597 598 599 600 601 602 
603 604 605 606 607 608 609 610 611 
612 613 614 615 616 617 618 619 620 
621 622 623 624 625 626 627 628 629 
630 631 632 633 634 635 636 637 638 
639 640 641 642 643 644 645 646 647 

POINT_DATA 648
FIELD FieldData 12
id 1 648 int
164 463 200 89 93 218 207 134 35 
508 92 459 115 356 24 88 51 347 
404 304 185 107 137 103 331 291 190 
267 79 282 416 323 317 403 25 470 
154 238 439 355 572 176 462 444 381 
106 292 231 428 293 72 615 383 370 
515 105 125 57 171 371 217 132 66 
465 36 175 86 418 458 407 478 456 
396 467 353 450 423 261 288 255 214 
432 60 297 169 322 150 491 310 193 
433 339 110 521 149 166 49 18 325 
219 520 195 163 506 187 26 327 481 
270 225 85 362 246 328 386 412 372 
342 366 84 31 414 203 140 562 68 
457 591 52 577 271 256 87 99 34 
102 487 82 159 436 344 69 605 350 
156 571 589 477 303 239 570 543 250 
393 139 502 147 128 121 493 116 223 
449 329 64 160 472 111 237 274 247 
289 73 170 143 374 74 194 58 612 
59 215 460 380 146 43 227 127 157 
38 95 324 53 336 278 243 299 252 
385 142 20 592 405 151 205 542 265 
83 208 186 538 334 244 305 56 216 
141 503 546 126 301 426 144 129 165 
4 197 497 420 601 373 181 262 401 
17 46 395 363 63 202 308 358 220 
40 118 392 443 364 33 138 431 279 
254 394 189 206 266 461 509 504 114 
488 419 201 158 81 253 148 29 65 
455 235 387 313 251 309 233 286 320 
559 45 413 536 318 123 361 62 302 
397 475 272 55 438 275 98 188 346 
113 390 429 314 326 411 122 22 226 
367 489 319 229 505 5 333 352 295 
294 96 445 409 645 183 415 484 71 
526 167 174 28 479 440 298 496 553 
168 240 290 500 306 211 349 16 248 
427 483 311 260 563 399 511 32 42 
6 368 377 567 285 263 257 360 382 
135 204 341 75 196 90 61 379 495 
486 474 454 424 112 400 338 221 345 
273 378 21 446 384 119 236 70 178 
469 15 54 417 447 117 161 357 337 
529 287 330 104 109 507 100 162 408 
498 30 280 199 410 451 321 343 268 
222 94 348 421 232 437 182 198 76 
155 435 91 108 406 375 351 476 471 
359 354 13 430 376 276 8 264 10 
11 565 519 212 153 124 296 315 184 
587 281 514 130 14 12 78 9 179 
482 258 549 210 518 388 604 335 192 
448 580 2 77 501 425 213 528 145 
453 480 442 332 180 466 534 136 307 
234 576 177 551 441 566 340 23 522 
564 80 593 41 48 485 191 209 579 
523 434 312 533 547 44 422 490 638 
365 284 245 228 473 524 583 452 614 
242 597 492 402 47 616 283 120 527 
532 259 101 39 224 389 499 598 545 
633 468 152 97 131 535 173 626 67 
37 517 300 464 540 596 494 391 552 
249 277 19 172 525 513 573 628 50 
556 623 241 398 574 539 530 599 133 
613 316 560 561 637 594 550 643 548 
558 3 557 510 622 7 582 369 600 
635 584 516 618 585 554 617 641 269 
611 624 586 639 629 581 541 578 603 
569 27 595 620 607 555 230 632 648 
590 537 644 647 619 646 609 531 575 
636 627 544 602 642 568 621 631 625 
634 608 610 630 606 640 512 588 1 

type 1 648 int
1 1 1 1 1 1 1 1 1 
1 1 1 1 1 1 1 1 1 
1 1 1 1 1 1 1 1 1 
1 1 1 1 1 1 1 1 1 
1 1 1 1 1 1 1 1 1 
1 1 1 1 1 1 1 1 1 
1 1 1 1 1 1 1 1 1 
1 1 1 1 1 1 1 1 1 
1 1 1 1 1 1 1 1 1 
1 1 1 1 1 1 1 1 1 
1 1 1 1 1 1 1 1 1 
1 1 1 1 1 1 1 1 1 
1 1 1 1 1 1 1 1 1 
1 1 1 1 1 1 1 1 1 
1 1 1 1 1 1 1 1 1 
1 1 1 1 1 1 1 1 1 
1 1 1 1 1 1 1 1 1 
1 1 1 1 1 1 1 1 1 
1 1 1 1 1 1 1 1 1 
1 1 1 1 1 1 1 1 1 
1 1 1 1 1 1 1 1 1 
1 1 1 1 1 1 1 1 1 
1 1 1 1 1 1 1 1 1 
1 1 1 1 1 1 1 1 1 
1 1 1 1 1 1 1 1 1 
2 1 1 1 1 1 1 1 1 
1 1 1 1 1 1 1 1 1 
1 1 1 1 1 1 1 1 1 
1 1 1 1 1 1 1 1 1 
1 1 1 1 1 1 1 1 1 
1 1 1 1 1 1 1 1 1 
1 1 1 1 1 1 1 1 1 
1 1 1 1 1 1 1 1 1 
1 1 1 1 1 1 1 1 1 
1 1 1 1 1 2 1 1 1 
1 1 1 1 1 1 1 1 1 
1 1 1 1 1 1 1 1 1 
1 1 1 1 1 1 1 2 1 
1 1 1 1 1 1 1 1 1 
2 1 1 1 1 1 1 1 1 
1 1 1 1 1 1 1 1 1 
1 1 1 1 1 1 1 1 1 
1 1 1 1 1 1 1 1 1 
1 2 1 1 1 1 1 1 1 
1 1 1 1 1 1 1 1 1 
1 1 1 1 1 1 1 1 1 
1 1 1 1 1 1 1 1 1 
1 1 1 1 1 1 1 1 1 
1 1 2 1 1 1 2 1 2 
2 1 1 1 1 1 1 1 1 
1 1 1 1 2 2 1 2 1 
1 1 1 1 1 1 1 1 1 
1 1 3 1 1 1 1 1 1 
1 1 1 1 1 1 1 1 1 
1 1 1 1 1 1 1 1 1 
1 1 1 1 1 1 1 1 1 
1 1 1 1 1 1 1 1 1 
1 1 1 1 1 1 1 1 1 
1 1 1 1 1 1 1 1 1 
1 1 1 1 1 1 1 1 1 
1 1 1 1 1 1 1 1 1 
1 1 1 1 1 1 1 1 1 
1 1 1 1 1 1 1 1 1 
1 1 1 1 1 1 1 1 1 
1 1 1 1 1 1 1 1 1 
1 2 1 1 1 2 1 1 1 
1 1 2 1 1 1 1 1 1 
1 1 1 1 1 1 1 1 1 
1 1 1 1 1 1 1 1 1 
1 1 1 1 1 1 1 1 1 
1 1 1 1 1 1 1 1 1 
2 1 1 1 1 1 2 1 4 

i 3 648 int
0 0 0 0 0 0 0 0 0 
0 0 0 0 0 0 0 0 0 
0 0 0 0 0 0 0 0 0 
0 0 0 0 0 0 0 0 0 
0 0 0 0 0 0 0 0 0 
0 0 0 0 0 0 0 0 0 
0 0 0 0 0 0 0 0 0 
0 0 0 0 0 0 0 0 0 
0 0 0 0 0 0 0 0 0 
0 0 0 0 0 0 0 0 0 
0 0 0 0 0 0 0 0 0 
0 0 0 0 0 0 0 0 0 
0 0 0 0 0 0 0 0 0 
0 0 0 0 0 0 0 0 0 
0 0 0 0 0 0 0 0 0 
0 0 0 0 0 0 0 0 0 
0 0 0 0 0 0 0 0 0 
0 0 0 0 0 0 0 0 0 
0 0 0 0 0 0 0 0 0 
0 0 0 0 0 0 0 0 0 
0 0 0 0 0 0 0 0 0 
0 0 0 0 0 0 0 0 0 
0 0 0 0 0 0 0 0 0 
0 0 0 0 0 0 0 0 0 
0 0 0 0 0 0 0 0 0 
0 0 0 0 0 0 0 0 0 
0 0 0 0 0 0 0 0 0 
0 0 0 0 0 0 0 0 0 
0 0 0 0 0 0 0 0 0 
0 0 0 0 0 0 0 0 0 
0 0 0 0 0 0 0 0 0 
0 0 0 0 0 0 0 0 0 
0 0 0 0 0 0 0 0 0 
0 0 0 0 0 0 0 0 0 
0 0 0 0 0 0 0 0 0 
0 0 0 0 0 0 0 0 0 
0 0 0 0 0 0 0 0 0 
0 0 0 0 0 0 0 0 0 
0 0 0 0 0 0 0 0 0 
0 0 0 0 0 0 0 0 0 
0 0 0 0 0 0 0 0 0 
0 0 0 0 0 0 0 0 0 
0 0 0 0 0 0 0 0 0 
0 0 0 0 0 0 0 0 0 
0 0 0 0 0 0 0 0 0 
0 0 0 0 0 0 0 0 0 
0 0 0 0 0 0 0 0 0 
0 0 0 0 0 0 0 0 0 
0 0 0 0 0 0 0 0 0 
0 0 0 0 0 0 0 0 0 
0 0 0 0 0 0 0 0 0 
0 0 0 0 0 0 0 0 0 
0 0 0 0 0 0 0 0 0 
0 0 0 0 0 0 0 0 0 
0 0 0 0 0 0 0 0 0 
0 0 0 0 0 0 0 0 0 
0 0 0 0 0 0 0 0 0 
0 0 0 0 0 0 0 0 0 
0 0 0 0 0 0 0 0 0 
0 0 0 0 0 0 0 0 0 
0 0 0 0 0 0 0 0 0 
0 0 0 0 0 0 0 0 0 
0 0 0 0 0 0 0 0 0 
0 0 0 0 0 0 0 0 0 
0 0 0 0 0 0 0 0 0 
0 0 0 0 0 0 0 0 0 
0 0 0 0 0 0 0 0 0 
0 0 0 0 0 0 0 0 0 
0 0 0 0 0 0 0 0 0 
0 0 0 0 0 0 0 0 0 
0 0 0 0 0 0 0 0 0 
0 0 0 0 0 0 0 0 0 
0 0 0 0 0 0 0 0 0 
0 0 0 0 0 0 0 0 0 
0 0 0 0 0 0 0 0 0 
0 0 0 0 0 0 0 0 0 
0 0 0 0 0 0 0 0 0 
0 0 0 0 0 0 0 0 0 
0 0 0 0 0 0 0 0 0 
0 0 0 0 0 0 0 0 0 
0 0 0 0 0 0 0 0 0 
0 0 0 0 0 0 0 0 0 
0 0 0 0 0 0 0 0 0 
0 0 0 0 0 0 0 0 0 
0 0 0 0 0 0 0 0 0 
0 0 0 0 0 0 0 0 0 
0 0 0 0 0 0 0 0 0 
0 0 0 0 0 0 0 0 0 
0 0 0 0 0 0 0 0 0 
0 0 0 0 0 0 0 0 0 
0 0 0 0 0 0 0 0 0 
0 0 0 0 0 0 0 0 0 
0 0 0 0 0 0 0 0 0 
0 0 0 0 0 0 0 0 0 
0 0 0 0 0 0 0 0 0 
0 0 0 0 0 0 0 0 0 
0 0 0 0 0 0 0 0 0 
0 0 0 0 0 0 0 0 0 
0 0 0 0 0 0 0 0 0 
0 0 0 0 0 0 0 0 0 
0 0 0 0 0 0 0 0 0 
0 0 0 0 0 0 0 0 0 
0 0 0 0 0 0 0 0 0 
0 0 0 0 0 0 0 0 0 
0 0 0 0 0 0 0 0 0 
0 0 0 0 0 0 0 0 0 
0 0 0 0 0 0 0 0 0 
0 0 0 0 0 0 0 0 0 
0 0 0 0 0 0 0 0 0 
0 0 0 0 0 0 0 0 0 
0 0 0 0 0 0 0 0 0 
0 0 0 0 0 0 0 0 0 
0 0 0 0 0 0 0 0 0 
0 0 0 0 0 0 0 0 0 
0 0 0 0 0 0 0 0 0 
0 0 0 0 0 0 0 0 0 
0 0 0 0 0 0 0 0 0 
0 0 0 0 0 0 0 0 0 
0 0 0 0 0 0 0 0 0 
0 0 0 0 0 0 0 0 0 
0 0 0 0 0 0 0 0 0 
0 0 0 0 0 0 0 0 0 
0 0 0 0 0 0 0 0 0 
0 0 0 0 0 0 0 0 0 
0 0 0 0 0 0 0 0 0 
0 0 0 0 0 0 0 0 0 
0 0 0 0 0 0 0 0 0 
0 0 0 0 0 0 0 0 0 
0 0 0 0 0 0 0 0 0 
0 0 0 0 0 0 0 0 0 
0 0 0 0 0 0 0 0 0 
0 0 0 0 0 0 0 0 0 
0 0 0 0 0 0 0 0 0 
0 0 0 0 0 0 0 0 0 
0 0 0 0 0 0 0 0 0 
0 0 0 0 0 0 0 0 0 
0 0 0 0 0 0 0 0 0 
0 0 0 0 0 0 0 0 0 
0 0 0 0 0 0 0 0 0 
0 0 0 0 0 0 0 0 0 
0 0 0 0 0 0 0 0 0 
0 0 0 0 0 0 0 0 0 
0 0 0 0 0 0 0 0 0 
0 0 0 0 0 0 0 0 0 
0 0 0 0 0 0 0 0 0 
0 0 0 0 0 0 0 0 0 
0 0 0 0 0 0 0 0 0 
0 0 0 0 0 0 0 0 0 
0 0 0 0 0 0 0 0 0 
0 0 0 0 0 0 0 0 0 
0 0 0 0 0 0 0 0 0 
0 0 0 0 0 0 0 0 0 
0 0 0 0 0 0 0 0 0 
0 0 0 0 0 0 0 0 0 
0 0 0 0 0 0 0 0 0 
0 0 0 0 0 0 0 0 0 
0 0 0 0 0 0 0 0 0 
0 0 0 0 0 0 0 0 0 
0 0 0 0 0 0 0 0 0 
0 0 0 0 0 0 0 0 0 
0 0 0 0 0 0 0 0 0 
0 0 0 0 0 0 0 0 0 
0 0 0 0 0 0 0 0 0 
0 0 0 0 0 0 0 0 0 
0 0 0 0 0 0 0 0 0 
0 0 0 0 0 0 0 0 0 
0 0 0 0 0 0 0 0 0 
0 0 0 0 0 0 0 0 0 
0 0 0 0 0 0 0 0 0 
0 0 0 0 0 0 0 0 0 
0 0 0 0 0 0 0 0 0 
0 0 0 0 0 0 0 0 0 
0 0 0 0 0 0 0 0 0 
0 0 0 0 0 0 0 0 0 
0 0 0 0 0 0 0 0 0 
0 0 0 0 0 0 0 0 0 
0 0 0 0 0 0 0 0 0 
0 0 0 0 0 0 0 0 0 
0 0 0 0 0 0 0 0 0 
0 0 0 0 0 0 0 0 0 
0 0 0 0 0 0 0 0 0 
0 0 0 0 0 0 0 0 0 
0 0 0 0 0 0 0 0 0 
0 0 0 0 0 0 0 0 0 
0 0 0 0 0 0 0 0 0 
0 0 0 0 0 0 0 0 0 
0 0 0 0 0 0 0 0 0 
0 0 0 0 0 0 0 0 0 
0 0 0 0 0 0 0 0 0 
0 0 0 0 0 0 0 0 0 
0 0 0 0 0 0 0 0 0 
0 0 0 0 0 0 0 0 0 
0 0 0 0 0 0 0 0 0 
0 0 0 0 0 0 0 0 0 
0 0 0 0 0 0 0 0 0 
0 0 0 0 0 0 0 0 0 
0 0 0 0 0 0 0 0 0 
0 0 0 0 0 0 0 0 0 
0 0 0 0 0 0 0 0 0 
0 0 0 0 0 0 0 0 0 
0 0 0 0 0 0 0 0 0 
0 0 0 0 0 0 0 0 0 
0 0 0 0 0 0 0 0 0 
0 0 0 0 0 0 0 0 0 
0 0 0 0 0 0 0 0 0 
0 0 0 0 0 0 0 0 0 
0 0 0 0 0 0 0 0 0 
0 0 0 0 0 0 0 0 0 
0 0 0 0 0 0 0 0 0 
0 0 0 0 0 0 0 0 0 
0 0 0 0 0 0 0 0 0 
0 0 0 0 0 0 0 0 0 
0 0 0 0 0 0 0 0 0 
0 0 0 0 0 0 0 0 0 
0 0 0 0 0 0 0 0 0 
0 0 0 0 0 0 0 0 0 

v 3 648 double
0 0 3.2413285931e-14 0 0 -0.0049688017578 0 0 -0.011279494432 
0 0 0.083673787399 0 0 0.084254036268 0 0 0.014998690369 
0 0 0.025449213868 0 0 0.016510649442 0 0 -0.067224570528 
0 0 0.00067235380506 0 0 3.2413286072e-14 0 0 -0.023009617738 
0 0 3.2413286006e-14 0 0 0.0035557745854 0 0 0.016183510715 
0 0 0.0032795733493 0 0 -0.006205887231 0 0 0.0045984483535 
0 0 -0.0066180154897 0 0 0.0015641445311 0 0 8.0432447378e-14 
0 0 -0.010868822912 0 0 -0.0087353052831 0 0 0.082757934618 
0 0 -0.021004931651 0 0 0.02511893064 0 0 0.0014576668604 
0 0 -0.015711058406 0 0 0.084737760126 0 0 -0.022507879769 
0 0 0.070775821317 0 0 0.072096738027 0 0 -0.0084560399262 
0 0 0.08860909377 0 0 0.088872129793 0 0 0.00047953444384 
0 0 0.008725239729 0 0 0.026256226215 0 0 -0.013377275451 
0 0 -0.0052500321067 0 0 0.05998056015 0 0 0.029366807425 
0 0 0.075686740211 0 0 -0.014337987946 0 0 0.0226407751 
0 0 0.0037854439964 0 0 -0.0055229556066 0 0 -0.011550989111 
0 0 -0.017403111053 0 0 8.0432443474e-14 0 0 8.0432443602e-14 
0 0 0.058747852314 0 0 3.2413285982e-14 0 0 -0.0036174084467 
0 0 0.0095924214984 0 0 0.089923219276 0 0 -0.074018100239 
0 0 8.0432443644e-14 0 0 0.092314611233 0 0 0.072473542711 
0 0 0.0882509239 0 0 -0.0017064292551 0 0 0.00057636369781 
0 0 -1.560588404e-14 0 0 1.2158578073e-05 0 0 -0.024325893139 
0 0 0.029788122896 0 0 8.0432443491e-14 0 0 8.0432443537e-14 
0 0 8.0432443498e-14 0 0 -0.020888839707 0 0 0.0062045638312 
0 0 8.0432443665e-14 0 0 -0.011969750672 0 0 0.014901683642 
0 0 0.00036669436806 0 0 0.031793684273 0 0 -0.0013184695105 
0 0 0.0018524536111 0 0 0.01376652473 0 0 3.2413286034e-14 
0 0 0.0032333623063 0 0 0.021778537931 0 0 0.0091674525901 
0 0 3.2413285951e-14 0 0 0.0062418788587 0 0 -0.010856288367 
0 0 -3.4909982452e-10 0 0 -0.0087571178445 0 0 0.026422952564 
0 0 8.043244366e-14 0 0 -0.00055563384386 0 0 -0.017754843961 
0 0 -0.00063143516736 0 0 0.011922393907 0 0 -1.5605883967e-14 
0 0 -0.0019325456603 0 0 8.0432447524e-14 0 0 0.084217610005 
0 0 3.2413286037e-14 0 0 0.08414682432 0 0 3.2413286009e-14 
0 0 0.011454095215 0 0 -0.026605313059 0 0 0.015180593236 
0 0 0.020509654955 0 0 -0.0094715429847 0 0 0.081191797352 
0 0 -0.010654399109 0 0 0.074090447553 0 0 0.0020909223287 
0 0 -0.030265007292 0 0 -0.0087743337773 0 0 0.020506771194 
0 0 -0.016866875615 0 0 -0.0061458602429 0 0 0.0033139941678 
0 0 0.084434082257 0 0 -0.066428262995 0 0 0.027330734796 
0 0 0.017645151421 0 0 0.049428704831 0 0 -0.21720536167 
0 0 -0.037948828874 0 0 0.020213069888 0 0 0.092355258763 
0 0 -0.055383468018 0 0 -0.20053586754 0 0 0.075374584592 
0 0 0.059088215195 0 0 0.04689694946 0 0 -0.05155416543 
0 0 -0.057374767027 0 0 0.041491097787 0 0 -0.063668079821 
0 0 0.072967435355 0 0 0.065498988441 0 0 0.031092635838 
0 0 0.067082029953 0 0 0.0439554839 0 0 -0.22350769878 
0 0 0.069459917223 0 0 -0.17835767597 0 0 -0.23435984971 
0 0 0.081035240582 0 0 0.021915118462 0 0 0.060079956998 
0 0 0.034719392794 0 0 -0.067292476759 0 0 0.094337339652 
0 0 -0.18173985078 0 0 -0.0038051420965 0 0 0.081281654221 
0 0 0.077473553849 0 0 0.043257570397 0 0 0.070492579802 
0 0 -0.23467515052 0 0 -0.043070314759 0 0 -0.054352707976 
0 0 0.069918468491 0 0 -0.23884796142 0 0 0.072250436529 
0 0 0.046622353754 0 0 0.07233641172 0 0 -0.050095434576 
0 0 0.063198284772 0 0 -0.026910390765 0 0 0.075945109614 
0 0 -0.062265233085 0 0 0.04604552034 0 0 -0.060779510286 
0 0 -0.0039252349994 0 0 -0.045266652672 0 0 0.056186081973 
0 0 0.062237836221 0 0 0.031703387826 0 0 0.081552494925 
0 0 0.033671687315 0 0 -0.065811646689 0 0 0.028718201465 
0 0 0.051249273908 0 0 -0.078917963653 0 0 -0.23672662011 
0 0 0.024338367686 0 0 0.063427590548 0 0 -0.2365374987 
0 0 -0.073003917564 0 0 -0.077563423962 0 0 -0.053038840478 
0 0 0.083039398905 0 0 -0.21802884869 0 0 -0.058309522187 
0 0 0.056096239915 0 0 -0.077085149801 0 0 0.044100808824 
0 0 -0.056676307405 0 0 -0.021446950031 0 0 0.071428696202 
0 0 -0.079167148768 0 0 0.074334621553 0 0 0.049677395735 
0 0 0.063128820406 0 0 -0.2361324031 0 0 0.044971070692 
0 0 0.077232471223 0 0 -0.0082195150331 0 0 0.077035888219 
0 0 -0.064874692893 0 0 0.076501384128 0 0 -0.057031954421 
0 0 -0.010633284652 0 0 -0.028577565323 0 0 0.067940479676 
0 0 -0.23727621208 0 0 -0.022053489445 0 0 0.033568299518 
0 0 -0.021984717745 0 0 0.047868042626 0 0 0.027253865215 
0 0 0.04746707616 0 0 -0.23757835267 0 0 0.013257279888 
0 0 0.08289272955 0 0 -0.060360239297 0 0 -0.061830684497 
0 0 0.09657346019 0 0 -0.0054841618715 0 0 0.05284993623 
0 0 -0.018994780285 0 0 0.0065344849182 0 0 -0.059538737024 
0 0 0.046363599904 0 0 0.064075031851 0 0 -0.046425093638 
0 0 0.079221730498 0 0 0.043110211526 0 0 0.05705225101 
0 0 0.081122931316 0 0 0.044190615712 0 0 -0.059474152698 
0 0 -0.046015277231 0 0 -0.22199872751 0 0 0.054429469635 
0 0 -0.066408701107 0 0 0.063656832918 0 0 -0.016720255501 
0 0 0.034071946761 0 0 -0.061299443603 0 0 0.05451861827 
0 0 0.078260076591 0 0 0.065324357431 0 0 0.059096986067 
0 0 0.041581832479 0 0 0.075605651023 0 0 -0.071381190975 
0 0 0.057504170106 0 0 -0.23817885723 0 0 -0.026061754541 
0 0 0.039198565053 0 0 -0.051238522443 0 0 0.039287667128 
0 0 -0.05275619075 0 0 0.073365104519 0 0 -0.06211671518 
0 0 -0.069784662786 0 0 0.03981069268 0 0 -0.064932270189 
0 0 -0.048142761094 0 0 -0.05893220614 0 0 0.081757440943 
0 0 -0.2374705178 0 0 -0.21348862291 0 0 0.087260255807 
0 0 0.038996897087 0 0 -0.024776553262 0 0 0.078239159238 
0 0 -0.048736561731 0 0 0.083915857622 0 0 -0.061696871386 
0 0 0.05929954559 0 0 0.070781623255 0 0 0.056878709627 
0 0 0.059340565291 0 0 -0.069859533024 0 0 0.087547101426 
0 0 -0.0012082718468 0 0 -0.061346435526 0 0 0.031783075098 
0 0 0.049490019631 0 0 0.03287953394 0 0 -0.021618706453 
0 0 0.026791285713 0 0 0.030535322987 0 0 0.012791222153 
0 0 -0.0052040199457 0 0 -0.0012070246283 0 0 -0.01858864628 
0 0 0.015872875515 0 0 0.011788293338 0 0 0.026299294232 
0 0 0.0034224991101 0 0 -0.00062494395285 0 0 0.018135204494 
0 0 0.015923561869 0 0 -0.0019505259053 0 0 -0.025753859565 
0 0 -0.051553087273 0 0 0.032170540535 0 0 -0.002292016091 
0 0 -0.0029683077097 0 0 0.0077650355442 0 0 0.052728431443 
0 0 0.022497876833 0 0 -0.018685310984 0 0 0.049811895247 
0 0 -0.006197913748 0 0 0.047219181673 0 0 0.011320636774 
0 0 0.0010759512296 0 0 -0.15891604671 0 0 0.029383037503 
0 0 0.0061570920856 0 0 0.03309769213 0 0 0.0043508503498 
0 0 -0.21412433356 0 0 -0.026655589789 0 0 -0.010013103125 
0 0 0.046803486961 0 0 -0.037606881959 0 0 -0.044716166801 
0 0 0.0026928103184 0 0 -0.024700575235 0 0 -0.20389216267 
0 0 -0.039280068001 0 0 0.01752889308 0 0 -0.006755329009 
0 0 -0.0041780427405 0 0 -0.21497136086 0 0 0.030758202212 
0 0 -0.020019940941 0 0 0.058211545626 0 0 -3.0935652692e-05 
0 0 -0.030198123616 0 0 -0.04150023683 0 0 0.043465478215 
0 0 -0.013809084515 0 0 -0.17954592984 0 0 -0.0072048353121 
0 0 -0.21681174915 0 0 0.032354151459 0 0 0.013082833008 
0 0 -0.054631390671 0 0 -0.0029569901515 0 0 0.041854207759 
0 0 0.014977349749 0 0 -0.23016701034 0 0 -0.01063183017 
0 0 -0.014458625411 0 0 0.012969295437 0 0 -0.21072344893 
0 0 0.010711693397 0 0 0.025143749591 0 0 -0.023888393835 
0 0 0.022825524216 0 0 0.044113965947 0 0 -0.01112916222 
0 0 0.02726340488 0 0 -0.236729098 0 0 -0.0017010823586 
0 0 0.020518408036 0 0 0.050338328394 0 0 -0.019728850864 
0 0 0.0062187953313 0 0 0.0068445985319 0 0 -0.21198688353 
0 0 0.035306994142 0 0 -0.22681327724 0 0 -0.0020964982262 
0 0 0.0048708987301 0 0 0.02180451452 0 0 0.012147307004 
0 0 0.027358463401 0 0 0.0053539407907 0 0 0.050713070973 
0 0 0.026640269555 0 0 -0.23335862319 0 0 0.030384506603 
0 0 -0.0077818658158 0 0 -0.25607573558 0 0 0.018925109674 
0 0 -0.020395880166 0 0 0.01961610641 0 0 -0.006237608607 
0 0 0.018990585369 0 0 0.015504701871 0 0 -0.015815682347 
0 0 0.042484195402 0 0 0.031469309035 0 0 0.0034379283268 
0 0 0.010954889365 0 0 -0.00034511881992 0 0 0.017599330393 
0 0 -0.033016345044 0 0 -0.028867090741 0 0 -0.029535959209 
0 0 0.040740589953 0 0 0.026172606817 0 0 -0.036594333302 
0 0 -0.013884397079 0 0 -0.030984261837 0 0 0.038877700138 
0 0 -0.023317476129 0 0 -0.014494492512 0 0 -0.014485275885 
0 0 0.0090073547472 0 0 0.017968474822 0 0 -0.0098349485101 
0 0 -0.23298251361 0 0 0.007059793623 0 0 -0.0076293573813 
0 0 0.043109885035 0 0 0.035856228303 0 0 0.0039407271608 
0 0 -0.027546951504 0 0 -0.025247972394 0 0 -0.0071890198698 
0 0 -0.015562709143 0 0 -0.025587332733 0 0 0.02145492809 
0 0 0.0016286888394 0 0 -0.22724970704 0 0 -0.22424228904 
0 0 -0.21838634724 0 0 -0.22457468063 0 0 0.037038500818 
0 0 -0.2288650221 0 0 -0.22376150118 0 0 -0.22558509143 
0 0 0.016664481105 0 0 -0.20676688972 0 0 0.052012896382 
0 0 -0.025595122716 0 0 -0.16727132744 0 0 -0.21209304372 
0 0 -0.22577054693 0 0 -0.22055571844 0 0 -0.22374648969 
0 0 -0.22219137772 0 0 -0.22117855304 0 0 -0.20414150367 
0 0 -0.1891924821 0 0 -0.22714513339 0 0 -0.18719393257 
0 0 -0.22839445833 0 0 -0.0034444206974 0 0 -0.020397965166 
0 0 -0.23771138426 0 0 0.01947518718 0 0 -0.2234595381 
0 0 -0.22104885419 0 0 -0.21192874867 0 0 -0.18754584636 
0 0 -0.21470298518 0 0 -0.18728231702 0 0 -0.20660043405 
0 0 -0.14628753965 0 0 -0.22530724251 0 0 -0.20457764598 
0 0 -0.22062351346 0 0 -0.18193482474 0 0 -0.25680553495 
0 0 -0.21692074379 0 0 -0.20867911484 0 0 -0.23108436001 
0 0 -0.22652577164 0 0 -0.19168144168 0 0 -0.21323051105 
0 0 -0.21729984043 0 0 -0.21582741457 0 0 -0.21887383081 
0 0 -0.21347593984 0 0 -0.2158967928 0 0 -0.21947202401 
0 0 -0.14981811733 0 0 -0.21146004734 0 0 -0.20565765047 
0 0 -0.20378217818 0 0 -0.17364088818 0 0 -0.20980113001 
0 0 -0.17274556195 0 0 -0.20656648518 0 0 -0.17075597048 
0 0 -0.21459294638 0 0 -0.20943033198 0 0 -0.19743722436 
0 0 -0.17506325445 0 0 -0.20807640673 0 0 -0.13798705115 
0 0 -0.20994890707 0 0 -0.20371906641 0 0 -0.20364557642 
0 0 -0.20882302991 0 0 -0.20504596597 0 0 -0.14110794339 
0 0 -0.18610073413 0 0 -0.20682143553 0 0 -0.20083034353 
0 0 -0.17370884454 0 0 -0.16441421093 0 0 -0.19881862109 
0 0 -0.19596568205 0 0 -0.19957908905 0 0 -0.13798083152 
0 0 -0.19404512049 0 0 -0.20206629927 0 0 -0.2017808109 
0 0 -0.20102705731 0 0 -0.19891460402 0 0 -0.17905723441 
0 0 -0.12982690394 0 0 -0.20042371959 0 0 -0.12121244985 
0 0 -0.19531264035 0 0 -0.11416952432 0 0 -0.18631400912 
0 0 -0.19535866539 0 0 -0.19731880273 0 0 -0.12888501091 
0 0 -0.18860092809 0 0 -0.19319881465 0 0 -0.16337207645 
0 0 -0.16039342236 0 0 -0.19264773935 0 0 -0.19080014502 
0 0 -0.18866317549 0 0 -0.18576734607 0 0 -0.19275156453 
0 0 -0.19725433886 0 0 -0.11240006863 0 0 -0.16000060874 
0 0 -0.10848643449 0 0 -0.1926569022 0 0 -0.19009976986 
0 0 -0.19162933005 0 0 -0.19388189572 0 0 -0.12895433477 
0 0 -0.1845509973 0 0 -0.083040849543 0 0 -0.1820101263 
0 0 -0.18078191023 0 0 -0.16174352971 0 0 -0.19883381412 
0 0 -0.18362228699 0 0 -0.15509172902 0 0 -0.12727165769 
0 0 -0.18567858233 0 0 -0.18456489661 0 0 -0.11750600558 
0 0 -0.18200944697 0 0 -0.1800855279 0 0 -0.17981188572 
0 0 -0.18396391918 0 0 -0.15470165314 0 0 -0.15888952776 
0 0 -0.1260362686 0 0 -0.099568193807 0 0 -0.19554882612 
0 0 -0.095635072405 0 0 -0.10979823433 0 0 -0.17024603492 
0 0 -0.18067452226 0 0 -0.068305201854 0 0 -0.1303416418 
0 0 -0.12771085698 0 0 -0.09573745611 0 0 -0.17146865492 
0 0 -0.10950974847 0 0 -0.18970159686 0 0 -0.11185705742 
0 0 -0.12198313152 0 0 -0.084637073937 0 0 -0.1051973551 
0 0 -0.12888935586 0 0 -0.028138811111 0 0 -0.11385839925 
0 0 -0.12068441295 0 0 -0.18790840783 0 0 -0.11599589719 
0 0 -0.13621905743 0 0 -0.083471372687 0 0 -0.1867158538 
0 0 -0.037702267165 0 0 -0.1660754545 0 0 -0.041038624146 
0 0 -0.048440235261 0 0 -0.030557226771 0 0 -0.15781109518 
0 0 -0.085235654654 0 0 -0.089206336828 0 0 -0.092663234989 
0 0 -0.083139114685 0 0 0.029477423977 0 0 -0.16600732405 
0 0 -0.038030837294 0 0 -0.0050180353087 0 0 -0.084577143299 
0 0 -0.048232840604 0 0 -0.03830951384 0 0 -0.063839244596 
0 0 -0.076398127415 0 0 -0.070830248159 0 0 -0.0525808158 
0 0 -0.07005426272 0 0 -0.15750914059 0 0 -0.065898576885 
0 0 -0.043179173801 0 0 -0.059642113467 0 0 -0.068358277866 
0 0 -0.15412033896 0 0 0.0062653345386 0 0 -0.00077863336919 
0 0 -0.046047236778 0 0 -0.078665710364 0 0 0.022997659048 
0 0 -0.00093435183408 0 0 0.013334419107 0 0 0.023579621687 
0 0 -0.0039598292053 0 0 -0.084300315368 0 0 -0.039965975359 
0 0 0.044349969732 0 0 0.046632382994 0 0 -0.04519366144 
0 0 0.016282924343 0 0 0.063701512782 0 0 -0.019647400863 
0 0 0.048100560411 0 0 0.031067767997 0 0 -0.01386645091 
0 0 -0.0050407609277 0 0 0.0012432724121 0 0 -0.015331237945 
0 0 0.014811951528 0 0 0.012159462528 0 0 0.075804393546 
0 0 -0.087695860084 0 0 0.029367171325 0 0 -0.13674504578 

f 3 648 double
0 0 0 0 0 -1.7425367252e-10 0 0 -1.7425367252e-10 
0 0 -1.7425367252e-10 0 0 -1.7425367252e-10 0 0 -1.7425367252e-10 
0 0 -1.7425367252e-10 0 0 -1.7425367252e-10 0 0 -1.7425367252e-10 
0 0 -1.7425367252e-10 0 0 0 0 0 -1.7425367252e-10 
0 0 0 0 0 -1.7425367252e-10 0 0 -1.7425367252e-10 
0 0 -1.7425367252e-10 0 0 -1.7425367252e-10 0 0 -1.7425367252e-10 
0 0 -1.7425367252e-10 0 0 -1.7425367252e-10 0 0 0 
0 0 -1.7425367252e-10 0 0 -1.7425367252e-10 0 0 -1.7425367252e-10 
0 0 -1.7425367252e-10 0 0 -1.7425367252e-10 0 0 -1.7425367252e-10 
0 0 -1.7425367252e-10 0 0 -1.7425367252e-10 0 0 -1.7425367252e-10 
0 0 -1.7425367252e-10 0 0 -1.7425367252e-10 0 0 -1.7425367252e-10 
0 0 -1.7425367252e-10 0 0 -1.7425367252e-10 0 0 -1.7425367252e-10 
0 0 -1.7425367252e-10 0 0 -1.7425367252e-10 0 0 -1.7425367252e-10 
0 0 -1.7425367252e-10 0 0 -1.7425367252e-10 0 0 -1.7425367252e-10 
0 0 -1.7425367252e-10 0 0 -1.7425367252e-10 0 0 -1.7425367252e-10 
0 0 -1.7425367252e-10 0 0 -1.7425367252e-10 0 0 -1.7425367252e-10 
0 0 -1.7425367252e-10 0 0 0 0 0 0 
0 0 -1.7425367252e-10 0 0 0 0 0 -1.7425367252e-10 
0 0 -1.7425367252e-10 0 0 -1.7425367252e-10 0 0 -1.7425367252e-10 
0 0 0 0 0 -1.7425367252e-10 0 0 -1.7425367252e-10 
0 0 -1.7425367252e-10 0 0 -1.7425367252e-10 0 0 -1.7425367252e-10 
0 0 0 0 0 -1.7425367252e-10 0 0 -1.7425367252e-10 
0 0 -1.7425367252e-10 0 0 0 0 0 0 
0 0 0 0 0 -1.7425367252e-10 0 0 -1.7425367252e-10 
0 0 0 0 0 -1.7425367252e-10 0 0 -1.7425367252e-10 
0 0 -1.7425367252e-10 0 0 -1.7425367252e-10 0 0 -1.7425367252e-10 
0 0 -1.7425367252e-10 0 0 -1.7425367252e-10 0 0 0 
0 0 -1.7425367252e-10 0 0 -1.7425367252e-10 0 0 -1.7425367252e-10 
0 0 0 0 0 -1.7425367252e-10 0 0 -1.7425367252e-10 
0 0 5.2256515153e-15 0 0 -1.7425367252e-10 0 0 -1.7425367252e-10 
0 0 0 0 0 -1.7425367252e-10 0 0 -1.7425367252e-10 
0 0 -1.7425367252e-10 0 0 -1.7425367252e-10 0 0 0 
0 0 -1.7425367252e-10 0 0 0 0 0 -1.7425367252e-10 
0 0 0 0 0 -1.7425367252e-10 0 0 0 
0 0 -1.7425367252e-10 0 0 -1.7425367252e-10 0 0 -1.7425367252e-10 
0 0 -1.7425367252e-10 0 0 -1.7425367252e-10 0 0 -1.7425367252e-10 
0 0 -1.7425367252e-10 0 0 -1.7425367252e-10 0 0 -1.7425367252e-10 
0 0 -1.7425367252e-10 0 0 -1.7425367252e-10 0 0 -1.7425367252e-10 
0 0 -1.7425367252e-10 0 0 -1.7425367252e-10 0 0 -1.7425367252e-10 
0 0 -1.7425367252e-10 0 0 -1.7425367252e-10 0 0 -1.7425367252e-10 
0 0 -1.7425367252e-10 0 0 -1.7425367252e-10 0 0 -1.7425367252e-10 
0 0 -1.7425367252e-10 0 0 -1.7425367252e-10 0 0 -1.7425367252e-10 
0 0 -1.7425367252e-10 0 0 -1.7425367252e-10 0 0 -1.7425367252e-10 
0 0 -1.7425367252e-10 0 0 -1.7425367252e-10 0 0 -1.7425367252e-10 
0 0 -1.7425367252e-10 0 0 -1.7425367252e-10 0 0 -1.7425367252e-10 
0 0 -1.7425367252e-10 0 0 -1.7425367252e-10 0 0 -1.7425367252e-10 
0 0 -1.7425367252e-10 0 0 -1.7425367252e-10 0 0 -1.7425367252e-10 
0 0 -1.7425367252e-10 0 0 -1.7425367252e-10 0 0 -1.7425367252e-10 
0 0 -1.7425367252e-10 0 0 -1.7425367252e-10 0 0 -1.7425367252e-10 
0 0 -1.7425367252e-10 0 0 -1.7425367252e-10 0 0 -1.7425367252e-10 
0 0 -1.7425367252e-10 0 0 -1.7425367252e-10 0 0 -1.7425367252e-10 
0 0 -1.7425367252e-10 0 0 -1.7425367252e-10 0 0 -1.7425367252e-10 
0 0 -1.7425367252e-10 0 0 -1.7425367252e-10 0 0 -1.7425367252e-10 
0 0 -1.7425367252e-10 0 0 -1.7425367252e-10 0 0 -1.7425367252e-10 
0 0 -1.7425367252e-10 0 0 -1.7425367252e-10 0 0 -1.7425367252e-10 
0 0 -1.7425367252e-10 0 0 -1.7425367252e-10 0 0 -1.7425367252e-10 
0 0 -1.7425367252e-10 0 0 -1.7425367252e-10 0 0 -1.7425367252e-10 
0 0 -1.7425367252e-10 0 0 -1.7425367252e-10 0 0 -1.7425367252e-10 
0 0 -1.7425367252e-10 0 0 -1.7425367252e-10 0 0 -1.7425367252e-10 
0 0 -1.7425367252e-10 0 0 -1.7425367252e-10 0 0 -1.7425367252e-10 
0 0 -1.7425367252e-10 0 0 -1.7425367252e-10 0 0 -1.7425367252e-10 
0 0 -1.7425367252e-10 0 0 -1.7425367252e-10 0 0 -1.7425367252e-10 
0 0 -1.7425367252e-10 0 0 -1.7425367252e-10 0 0 -1.7425367252e-10 
0 0 -1.7425367252e-10 0 0 -1.7425367252e-10 0 0 -1.7425367252e-10 
0 0 -1.7425367252e-10 0 0 -1.7425367252e-10 0 0 -1.7425367252e-10 
0 0 -1.7425367252e-10 0 0 -1.7425367252e-10 0 0 -1.7425367252e-10 
0 0 -1.7425367252e-10 0 0 -1.7425367252e-10 0 0 -1.7425367252e-10 
0 0 -1.7425367252e-10 0 0 -1.7425367252e-10 0 0 -1.7425367252e-10 
0 0 -1.7425367252e-10 0 0 -1.7425367252e-10 0 0 -1.7425367252e-10 
0 0 -1.7425367252e-10 0 0 -1.7425367252e-10 0 0 -1.7425367252e-10 
0 0 -1.7425367252e-10 0 0 -1.7425367252e-10 0 0 -1.7425367252e-10 
0 0 -1.7425367252e-10 0 0 -1.7425367252e-10 0 0 -1.7425367252e-10 
0 0 -1.7425367252e-10 0 0 -1.7425367252e-10 0 0 -1.7425367252e-10 
0 0 -1.7425367252e-10 0 0 -1.7425367252e-10 0 0 -1.7425367252e-10 
0 0 -1.7425367252e-10 0 0 -1.7425367252e-10 0 0 -1.7425367252e-10 
0 0 -8.9019973083e-09 0 0 -1.7425367252e-10 0 0 -1.7425367252e-10 
0 0 -1.7425367252e-10 0 0 -1.7425367252e-10 0 0 -1.7425367252e-10 
0 0 -1.7425367252e-10 0 0 -1.7425367252e-10 0 0 -1.7425367252e-10 
0 0 -1.7425367252e-10 0 0 -1.7425367252e-10 0 0 -1.7425367252e-10 
0 0 -1.7425367252e-10 0 0 -1.7425367252e-10 0 0 -1.7425367252e-10 
0 0 -1.7425367252e-10 0 0 -1.7425367252e-10 0 0 -1.7425367252e-10 
0 0 -1.7425367252e-10 0 0 -1.7425367252e-10 0 0 -1.7425367252e-10 
0 0 -1.7425367252e-10 0 0 -1.7425367252e-10 0 0 -1.7425367252e-10 
0 0 -1.7425367252e-10 0 0 -1.7425367252e-10 0 0 -1.7425367252e-10 
0 0 -1.7425367252e-10 0 0 -1.7425367252e-10 0 0 -1.7425367252e-10 
0 0 -1.7425367252e-10 0 0 -1.7425367252e-10 0 0 -1.7425367252e-10 
0 0 -1.7425367252e-10 0 0 -1.7425367252e-10 0 0 -1.7425367252e-10 
0 0 -1.7425367252e-10 0 0 -1.7425367252e-10 0 0 -1.7425367252e-10 
0 0 -1.7425367252e-10 0 0 -1.7425367252e-10 0 0 -1.7425367252e-10 
0 0 -1.7425367252e-10 0 0 -1.7425367252e-10 0 0 -1.7425367252e-10 
0 0 -1.7425367252e-10 0 0 -1.7425367252e-10 0 0 -1.7425367252e-10 
0 0 -1.7425367252e-10 0 0 -1.7425367252e-10 0 0 -1.7425367252e-10 
0 0 -1.7425367252e-10 0 0 -1.7425367252e-10 0 0 -1.7425367252e-10 
0 0 -1.7425367252e-10 0 0 -1.7425367252e-10 0 0 -1.7425367252e-10 
0 0 -1.7425367252e-10 0 0 -1.7425367252e-10 0 0 -1.7425367252e-10 
0 0 -1.7425367252e-10 0 0 -1.7425367252e-10 0 0 -1.7425367252e-10 
0 0 -1.7425367252e-10 0 0 -1.7425367252e-10 0 0 -1.7425367252e-10 
0 0 -1.7425367252e-10 0 0 -1.7425367252e-10 0 0 -1.7425367252e-10 
0 0 -1.7425367252e-10 0 0 -1.7425367252e-10 0 0 -1.7425367252e-10 
0 0 -1.7425367252e-10 0 0 -1.7425367252e-10 0 0 -1.7425367252e-10 
0 0 -1.7425367252e-10 0 0 -1.7425367252e-10 0 0 -1.7425367252e-10 
0 0 -1.7425367252e-10 0 0 -1.7425367252e-10 0 0 -1.7425367252e-10 
0 0 -1.7425367252e-10 0 0 -1.7425367252e-10 0 0 -1.7425367252e-10 
0 0 -1.7425367252e-10 0 0 -1.7425367252e-10 0 0 -8.9019973083e-09 
0 0 -1.7425367252e-10 0 0 -1.7425367252e-10 0 0 -1.7425367252e-10 
0 0 -1.7425367252e-10 0 0 -1.7425367252e-10 0 0 -1.7425367252e-10 
0 0 -1.7425367252e-10 0 0 -1.7425367252e-10 0 0 -1.7425367252e-10 
0 0 -1.7425367252e-10 0 0 -1.7425367252e-10 0 0 -1.7425367252e-10 
0 0 -1.7425367252e-10 0 0 -1.7425367252e-10 0 0 -1.7425367252e-10 
0 0 -1.7425367252e-10 0 0 -1.7425367252e-10 0 0 -1.7425367252e-10 
0 0 -1.7425367252e-10 0 0 -1.7425367252e-10 0 0 -1.7425367252e-10 
0 0 -1.7425367252e-10 0 0 -1.7425367252e-10 0 0 -1.7425367252e-10 
0 0 -1.7425367252e-10 0 0 -1.7425367252e-10 0 0 -1.7425367252e-10 
0 0 -1.7425367252e-10 0 0 -8.9019973083e-09 0 0 -1.7425367252e-10 
0 0 -1.7425367252e-10 0 0 -1.7425367252e-10 0 0 -1.7425367252e-10 
0 0 -1.7425367252e-10 0 0 -1.7425367252e-10 0 0 -1.7425367252e-10 
0 0 -1.7425367252e-10 0 0 -1.7425367252e-10 0 0 -1.7425367252e-10 
0 0 -8.9019973083e-09 0 0 -1.7425367252e-10 0 0 -1.7425367252e-10 
0 0 -1.7425367252e-10 0 0 -1.7425367252e-10 0 0 -1.7425367252e-10 
0 0 -1.7425367252e-10 0 0 -1.7425367252e-10 0 0 -1.7425367252e-10 
0 0 -1.7425367252e-10 0 0 -1.7425367252e-10 0 0 -1.7425367252e-10 
0 0 -1.7425367252e-10 0 0 -1.7425367252e-10 0 0 -1.7425367252e-10 
0 0 -1.7425367252e-10 0 0 -1.7425367252e-10 0 0 -1.7425367252e-10 
0 0 -1.7425367252e-10 0 0 -1.7425367252e-10 0 0 -1.7425367252e-10 
0 0 -1.7425367252e-10 0 0 -1.7425367252e-10 0 0 -1.7425367252e-10 
0 0 -1.7425367252e-10 0 0 -1.7425367252e-10 0 0 -1.7425367252e-10 
0 0 -1.7425367252e-10 0 0 -1.7425367252e-10 0 0 -1.7425367252e-10 
0 0 -1.7425367252e-10 0 0 -1.7425367252e-10 0 0 -1.7425367252e-10 
0 0 -1.7425367252e-10 0 0 -1.7425367252e-10 0 0 -1.7425367252e-10 
0 0 -1.7425367252e-10 0 0 -8.9019973083e-09 0 0 -1.7425367252e-10 
0 0 -1.7425367252e-10 0 0 -1.7425367252e-10 0 0 -1.7425367252e-10 
0 0 -1.7425367252e-10 0 0 -1.7425367252e-10 0 0 -1.7425367252e-10 
0 0 -1.7425367252e-10 0 0 -1.7425367252e-10 0 0 -1.7425367252e-10 
0 0 -1.7425367252e-10 0 0 -1.7425367252e-10 0 0 -1.7425367252e-10 
0 0 -1.7425367252e-10 0 0 -1.7425367252e-10 0 0 -1.7425367252e-10 
0 0 -1.7425367252e-10 0 0 -1.7425367252e-10 0 0 -1.7425367252e-10 
0 0 -1.7425367252e-10 0 0 -1.7425367252e-10 0 0 -1.7425367252e-10 
0 0 -1.7425367252e-10 0 0 -1.7425367252e-10 0 0 -1.7425367252e-10 
0 0 -1.7425367252e-10 0 0 -1.7425367252e-10 0 0 -1.7425367252e-10 
0 0 -1.7425367252e-10 0 0 -1.7425367252e-10 0 0 -1.7425367252e-10 
0 0 -1.7425367252e-10 0 0 -1.7425367252e-10 0 0 -1.7425367252e-10 
0 0 -1.7425367252e-10 0 0 -1.7425367252e-10 0 0 -1.7425367252e-10 
0 0 -1.7425367252e-10 0 0 -1.7425367252e-10 0 0 -1.7425367252e-10 
0 0 -1.7425367252e-10 0 0 -1.7425367252e-10 0 0 -1.7425367252e-10 
0 0 -1.7425367252e-10 0 0 -1.7425367252e-10 0 0 -8.9019973083e-09 
0 0 -1.7425367252e-10 0 0 -1.7425367252e-10 0 0 -1.7425367252e-10 
0 0 -8.9019973083e-09 0 0 -1.7425367252e-10 0 0 -8.9019973083e-09 
0 0 -8.9019973083e-09 0 0 -1.7425367252e-10 0 0 -1.7425367252e-10 
0 0 -1.7425367252e-10 0 0 -1.7425367252e-10 0 0 -1.7425367252e-10 
0 0 -1.7425367252e-10 0 0 -1.7425367252e-10 0 0 -1.7425367252e-10 
0 0 -1.7425367252e-10 0 0 -1.7425367252e-10 0 0 -1.7425367252e-10 
0 0 -1.7425367252e-10 0 0 -8.9019973083e-09 0 0 -8.9019973083e-09 
0 0 -1.7425367252e-10 0 0 -8.9019973083e-09 0 0 -1.7425367252e-10 
0 0 -1.7425367252e-10 0 0 -1.7425367252e-10 0 0 -1.7425367252e-10 
0 0 -1.7425367252e-10 0 0 -1.7425367252e-10 0 0 -1.7425367252e-10 
0 0 -1.7425367252e-10 0 0 -1.7425367252e-10 0 0 -1.7425367252e-10 
0 0 -1.7425367252e-10 0 0 -1.7425367252e-10 0 0 -6.8918688838e-08 
0 0 -1.7425367252e-10 0 0 -1.7425367252e-10 0 0 -1.7425367252e-10 
0 0 -1.7425367252e-10 0 0 -1.7425367252e-10 0 0 -1.7425367252e-10 
0 0 -1.7425367252e-10 0 0 -1.7425367252e-10 0 0 -1.7425367252e-10 
0 0 -1.7425367252e-10 0 0 -1.7425367252e-10 0 0 -1.7425367252e-10 
0 0 -1.7425367252e-10 0 0 -1.7425367252e-10 0 0 -1.7425367252e-10 
0 0 -1.7425367252e-10 0 0 -1.7425367252e-10 0 0 -1.7425367252e-10 
0 0 -1.7425367252e-10 0 0 -1.7425367252e-10 0 0 -1.7425367252e-10 
0 0 -1.7425367252e-10 0 0 -1.7425367252e-10 0 0 -1.7425367252e-10 
0 0 -1.7425367252e-10 0 0 -1.7425367252e-10 0 0 -1.7425367252e-10 
0 0 -1.7425367252e-10 0 0 -1.7425367252e-10 0 0 -1.7425367252e-10 
0 0 -1.7425367252e-10 0 0 -1.7425367252e-10 0 0 -1.7425367252e-10 
0 0 -1.7425367252e-10 0 0 -1.7425367252e-10 0 0 -1.7425367252e-10 
0 0 -1.7425367252e-10 0 0 -1.7425367252e-10 0 0 -1.7425367252e-10 
0 0 -1.7425367252e-10 0 0 -1.7425367252e-10 0 0 -1.7425367252e-10 
0 0 -1.7425367252e-10 0 0 -1.7425367252e-10 0 0 -1.7425367252e-10 
0 0 -1.7425367252e-10 0 0 -1.7425367252e-10 0 0 -1.7425367252e-10 
0 0 -1.7425367252e-10 0 0 -1.7425367252e-10 0 0 -1.7425367252e-10 
0 0 -1.7425367252e-10 0 0 -1.7425367252e-10 0 0 -1.7425367252e-10 
0 0 -1.7425367252e-10 0 0 -1.7425367252e-10 0 0 -1.7425367252e-10 
0 0 -1.7425367252e-10 0 0 -1.7425367252e-10 0 0 -1.7425367252e-10 
0 0 -1.7425367252e-10 0 0 -1.7425367252e-10 0 0 -1.7425367252e-10 
0 0 -1.7425367252e-10 0 0 -1.7425367252e-10 0 0 -1.7425367252e-10 
0 0 -1.7425367252e-10 0 0 -1.7425367252e-10 0 0 -1.7425367252e-10 
0 0 -1.7425367252e-10 0 0 -1.7425367252e-10 0 0 -1.7425367252e-10 
0 0 -1.7425367252e-10 0 0 -1.7425367252e-10 0 0 -1.7425367252e-10 
0 0 -1.7425367252e-10 0 0 -1.7425367252e-10 0 0 -1.7425367252e-10 
0 0 -1.7425367252e-10 0 0 -1.7425367252e-10 0 0 -1.7425367252e-10 
0 0 -1.7425367252e-10 0 0 -1.7425367252e-10 0 0 -1.7425367252e-10 
0 0 -1.7425367252e-10 0 0 -1.7425367252e-10 0 0 -1.7425367252e-10 
0 0 -1.7425367252e-10 0 0 -1.7425367252e-10 0 0 -1.7425367252e-10 
0 0 -1.7425367252e-10 0 0 -1.7425367252e-10 0 0 -1.7425367252e-10 
0 0 -1.7425367252e-10 0 0 -1.7425367252e-10 0 0 -1.7425367252e-10 
0 0 -1.7425367252e-10 0 0 -1.7425367252e-10 0 0 -1.7425367252e-10 
0 0 -1.7425367252e-10 0 0 -1.7425367252e-10 0 0 -1.7425367252e-10 
0 0 -1.7425367252e-10 0 0 -1.7425367252e-10 0 0 -1.7425367252e-10 
0 0 -1.7425367252e-10 0 0 -1.7425367252e-10 0 0 -1.7425367252e-10 
0 0 -1.7425367252e-10 0 0 -1.7425367252e-10 0 0 -1.7425367252e-10 
0 0 -1.7425367252e-10 0 0 -1.7425367252e-10 0 0 -1.7425367252e-10 
0 0 -1.7425367252e-10 0 0 -8.9019973083e-09 0 0 -1.7425367252e-10 
0 0 -1.7425367252e-10 0 0 -1.7425367252e-10 0 0 -8.9019973083e-09 
0 0 -1.7425367252e-10 0 0 -1.7425367252e-10 0 0 -1.7425367252e-10 
0 0 -1.7425367252e-10 0 0 -1.7425367252e-10 0 0 -8.9019973083e-09 
0 0 -1.7425367252e-10 0 0 -1.7425367252e-10 0 0 -1.7425367252e-10 
0 0 -1.7425367252e-10 0 0 -1.7425367252e-10 0 0 -1.7425367252e-10 
0 0 -1.7425367252e-10 0 0 -1.7425367252e-10 0 0 -1.7425367252e-10 
0 0 -1.7425367252e-10 0 0 -1.7425367252e-10 0 0 -1.7425367252e-10 
0 0 -1.7425367252e-10 0 0 -1.7425367252e-10 0 0 -1.7425367252e-10 
0 0 -1.7425367252e-10 0 0 -1.7425367252e-10 0 0 -1.7425367252e-10 
0 0 -1.7425367252e-10 0 0 -1.7425367252e-10 0 0 -1.7425367252e-10 
0 0 -1.7425367252e-10 0 0 -1.7425367252e-10 0 0 -1.7425367252e-10 
0 0 -1.7425367252e-10 0 0 -1.7425367252e-10 0 0 -1.7425367252e-10 
0 0 -1.7425367252e-10 0 0 -1.7425367252e-10 0 0 -1.7425367252e-10 
0 0 -1.7425367252e-10 0 0 -1.7425367252e-10 0 0 -1.7425367252e-10 
0 0 -1.7425367252e-10 0 0 -1.7425367252e-10 0 0 -1.7425367252e-10 
0 0 -1.7425367252e-10 0 0 -1.7425367252e-10 0 0 -1.7425367252e-10 
0 0 -1.7425367252e-10 0 0 -1.7425367252e-10 0 0 -1.7425367252e-10 
0 0 -8.9019973083e-09 0 0 -1.7425367252e-10 0 0 -1.7425367252e-10 
0 0 -1.7425367252e-10 0 0 -1.7425367252e-10 0 0 -1.7425367252e-10 
0 0 -8.9019973083e-09 0 0 -1.7425367252e-10 0 0 -5.3297119368e-07 

radius 1 648 double
2e-05 2e-05 2e-05 2e-05 2e-05 2e-05 2e-05 2e-05 2e-05 
2e-05 2e-05 2e-05 2e-05 2e-05 2e-05 2e-05 2e-05 2e-05 
2e-05 2e-05 2e-05 2e-05 2e-05 2e-05 2e-05 2e-05 2e-05 
2e-05 2e-05 2e-05 2e-05 2e-05 2e-05 2e-05 2e-05 2e-05 
2e-05 2e-05 2e-05 2e-05 2e-05 2e-05 2e-05 2e-05 2e-05 
2e-05 2e-05 2e-05 2e-05 2e-05 2e-05 2e-05 2e-05 2e-05 
2e-05 2e-05 2e-05 2e-05 2e-05 2e-05 2e-05 2e-05 2e-05 
2e-05 2e-05 2e-05 2e-05 2e-05 2e-05 2e-05 2e-05 2e-05 
2e-05 2e-05 2e-05 2e-05 2e-05 2e-05 2e-05 2e-05 2e-05 
2e-05 2e-05 2e-05 2e-05 2e-05 2e-05 2e-05 2e-05 2e-05 
2e-05 2e-05 2e-05 2e-05 2e-05 2e-05 2e-05 2e-05 2e-05 
2e-05 2e-05 2e-05 2e-05 2e-05 2e-05 2e-05 2e-05 2e-05 
2e-05 2e-05 2e-05 2e-05 2e-05 2e-05 2e-05 2e-05 2e-05 
2e-05 2e-05 2e-05 2e-05 2e-05 2e-05 2e-05 2e-05 2e-05 
2e-05 2e-05 2e-05 2e-05 2e-05 2e-05 2e-05 2e-05 2e-05 
2e-05 2e-05 2e-05 2e-05 2e-05 2e-05 2e-05 2e-05 2e-05 
2e-05 2e-05 2e-05 2e-05 2e-05 2e-05 2e-05 2e-05 2e-05 
2e-05 2e-05 2e-05 2e-05 2e-05 2e-05 2e-05 2e-05 2e-05 
2e-05 2e-05 2e-05 2e-05 2e-05 2e-05 2e-05 2e-05 2e-05 
2e-05 2e-05 2e-05 2e-05 2e-05 2e-05 2e-05 2e-05 2e-05 
2e-05 2e-05 2e-05 2e-05 2e-05 2e-05 2e-05 2e-05 2e-05 
2e-05 2e-05 2e-05 2e-05 2e-05 2e-05 2e-05 2e-05 2e-05 
2e-05 2e-05 2e-05 2e-05 2e-05 2e-05 2e-05 2e-05 2e-05 
2e-05 2e-05 2e-05 2e-05 2e-05 2e-05 2e-05 2e-05 2e-05 
2e-05 2e-05 2e-05 2e-05 2e-05 2e-05 2e-05 2e-05 2e-05 
7.5e-05 2e-05 2e-05 2e-05 2e-05 2e-05 2e-05 2e-05 2e-05 
2e-05 2e-05 2e-05 2e-05 2e-05 2e-05 2e-05 2e-05 2e-05 
2e-05 2e-05 2e-05 2e-05 2e-05 2e-05 2e-05 2e-05 2e-05 
2e-05 2e-05 2e-05 2e-05 2e-05 2e-05 2e-05 2e-05 2e-05 
2e-05 2e-05 2e-05 2e-05 2e-05 2e-05 2e-05 2e-05 2e-05 
2e-05 2e-05 2e-05 2e-05 2e-05 2e-05 2e-05 2e-05 2e-05 
2e-05 2e-05 2e-05 2e-05 2e-05 2e-05 2e-05 2e-05 2e-05 
2e-05 2e-05 2e-05 2e-05 2e-05 2e-05 2e-05 2e-05 2e-05 
2e-05 2e-05 2e-05 2e-05 2e-05 2e-05 2e-05 2e-05 2e-05 
2e-05 2e-05 2e-05 2e-05 2e-05 7.5e-05 2e-05 2e-05 2e-05 
2e-05 2e-05 2e-05 2e-05 2e-05 2e-05 2e-05 2e-05 2e-05 
2e-05 2e-05 2e-05 2e-05 2e-05 2e-05 2e-05 2e-05 2e-05 
2e-05 2e-05 2e-05 2e-05 2e-05 2e-05 2e-05 7.5e-05 2e-05 
2e-05 2e-05 2e-05 2e-05 2e-05 2e-05 2e-05 2e-05 2e-05 
7.5e-05 2e-05 2e-05 2e-05 2e-05 2e-05 2e-05 2e-05 2e-05 
2e-05 2e-05 2e-05 2e-05 2e-05 2e-05 2e-05 2e-05 2e-05 
2e-05 2e-05 2e-05 2e-05 2e-05 2e-05 2e-05 2e-05 2e-05 
2e-05 2e-05 2e-05 2e-05 2e-05 2e-05 2e-05 2e-05 2e-05 
2e-05 7.5e-05 2e-05 2e-05 2e-05 2e-05 2e-05 2e-05 2e-05 
2e-05 2e-05 2e-05 2e-05 2e-05 2e-05 2e-05 2e-05 2e-05 
2e-05 2e-05 2e-05 2e-05 2e-05 2e-05 2e-05 2e-05 2e-05 
2e-05 2e-05 2e-05 2e-05 2e-05 2e-05 2e-05 2e-05 2e-05 
2e-05 2e-05 2e-05 2e-05 2e-05 2e-05 2e-05 2e-05 2e-05 
2e-05 2e-05 7.5e-05 2e-05 2e-05 2e-05 7.5e-05 2e-05 7.5e-05 
7.5e-05 2e-05 2e-05 2e-05 2e-05 2e-05 2e-05 2e-05 2e-05 
2e-05 2e-05 2e-05 2e-05 7.5e-05 7.5e-05 2e-05 7.5e-05 2e-05 
2e-05 2e-05 2e-05 2e-05 2e-05 2e-05 2e-05 2e-05 2e-05 
2e-05 2e-05 0.00015 2e-05 2e-05 2e-05 2e-05 2e-05 2e-05 
2e-05 2e-05 2e-05 2e-05 2e-05 2e-05 2e-05 2e-05 2e-05 
2e-05 2e-05 2e-05 2e-05 2e-05 2e-05 2e-05 2e-05 2e-05 
2e-05 2e-05 2e-05 2e-05 2e-05 2e-05 2e-05 2e-05 2e-05 
2e-05 2e-05 2e-05 2e-05 2e-05 2e-05 2e-05 2e-05 2e-05 
2e-05 2e-05 2e-05 2e-05 2e-05 2e-05 2e-05 2e-05 2e-05 
2e-05 2e-05 2e-05 2e-05 2e-05 2e-05 2e-05 2e-05 2e-05 
2e-05 2e-05 2e-05 2e-05 2e-05 2e-05 2e-05 2e-05 2e-05 
2e-05 2e-05 2e-05 2e-05 2e-05 2e-05 2e-05 2e-05 2e-05 
2e-05 2e-05 2e-05 2e-05 2e-05 2e-05 2e-05 2e-05 2e-05 
2e-05 2e-05 2e-05 2e-05 2e-05 2e-05 2e-05 2e-05 2e-05 
2e-05 2e-05 2e-05 2e-05 2e-05 2e-05 2e-05 2e-05 2e-05 
2e-05 2e-05 2e-05 2e-05 2e-05 2e-05 2e-05 2e-05 2e-05 
2e-05 7.5e-05 2e-05 2e-05 2e-05 7.5e-05 2e-05 2e-05 2e-05 
2e-05 2e-05 7.5e-05 2e-05 2e-05 2e-05 2e-05 2e-05 2e-05 
2e-05 2e-05 2e-05 2e-05 2e-05 2e-05 2e-05 2e-05 2e-05 
2e-05 2e-05 2e-05 2e-05 2e-05 2e-05 2e-05 2e-05 2e-05 
2e-05 2e-05 2e-05 2e-05 2e-05 2e-05 2e-05 2e-05 2e-05 
2e-05 2e-05 2e-05 2e-05 2e-05 2e-05 2e-05 2e-05 2e-05 
7.5e-05 2e-05 2e-05 2e-05 2e-05 2e-05 7.5e-05 2e-05 0.0003 

omega 3 648 double
0 0 0 0 0 0 0 0 0 
0 0 0 0 0 0 0 0 0 
0 0 0 0 0 0 0 0 0 
0 0 0 0 0 0 0 0 0 
0 0 0 0 0 0 0 0 0 
0 0 0 0 0 0 0 0 0 
0 0 0 0 0 0 0 0 0 
0 0 0 0 0 0 0 0 0 
0 0 0 0 0 0 0 0 0 
0 0 0 0 0 0 0 0 0 
0 0 0 0 0 0 0 0 0 
0 0 0 0 0 0 0 0 0 
0 0 0 0 0 0 0 0 0 
0 0 0 0 0 0 0 0 0 
0 0 0 0 0 0 0 0 0 
0 0 0 0 0 0 0 0 0 
0 0 0 0 0 0 0 0 0 
0 0 0 0 0 0 0 0 0 
0 0 0 0 0 0 0 0 0 
0 0 0 0 0 0 0 0 0 
0 0 0 0 0 0 0 0 0 
0 0 0 0 0 0 0 0 0 
0 0 0 0 0 0 0 0 0 
0 0 0 0 0 0 0 0 0 
0 0 0 0 0 0 0 0 0 
0 0 0 0 0 0 0 0 0 
0 0 0 0 0 0 0 0 0 
0 0 0 0 0 0 0 0 0 
0 0 0 0 0 0 0 0 0 
0 0 0 0 0 0 0 0 0 
0 0 0 0 0 0 0 0 0 
0 0 0 0 0 0 0 0 0 
0 0 0 0 0 0 0 0 0 
0 0 0 0 0 0 0 0 0 
0 0 0 0 0 0 0 0 0 
0 0 0 0 0 0 0 0 0 
0 0 0 0 0 0 0 0 0 
0 0 0 0 0 0 0 0 0 
0 0 0 0 0 0 0 0 0 
0 0 0 0 0 0 0 0 0 
0 0 0 0 0 0 0 0 0 
0 0 0 0 0 0 0 0 0 
0 0 0 0 0 0 0 0 0 
0 0 0 0 0 0 0 0 0 
0 0 0 0 0 0 0 0 0 
0 0 0 0 0 0 0 0 0 
0 0 0 0 0 0 0 0 0 
0 0 0 0 0 0 0 0 0 
0 0 0 0 0 0 0 0 0 
0 0 0 0 0 0 0 0 0 
0 0 0 0 0 0 0 0 0 
0 0 0 0 0 0 0 0 0 
0 0 0 0 0 0 0 0 0 
0 0 0 0 0 0 0 0 0 
0 0 0 0 0 0 0 0 0 
0 0 0 0 0 0 0 0 0 
0 0 0 0 0 0 0 0 0 
0 0 0 0 0 0 0 0 0 
0 0 0 0 0 0 0 0 0 
0 0 0 0 0 0 0 0 0 
0 0 0 0 0 0 0 0 0 
0 0 0 0 0 0 0 0 0 
0 0 0 0 0 0 0 0 0 
0 0 0 0 0 0 0 0 0 
0 0 0 0 0 0 0 0 0 
0 0 0 0 0 0 0 0 0 
0 0 0 0 0 0 0 0 0 
0 0 0 0 0 0 0 0 0 
0 0 0 0 0 0 0 0 0 
0 0 0 0 0 0 0 0 0 
0 0 0 0 0 0 0 0 0 
0 0 0 0 0 0 0 0 0 
0 0 0 0 0 0 0 0 0 
0 0 0 0 0 0 0 0 0 
0 0 0 0 0 0 0 0 0 
0 0 0 0 0 0 0 0 0 
0 0 0 0 0 0 0 0 0 
0 0 0 0 0 0 0 0 0 
0 0 0 0 0 0 0 0 0 
0 0 0 0 0 0 0 0 0 
0 0 0 0 0 0 0 0 0 
0 0 0 0 0 0 0 0 0 
0 0 0 0 0 0 0 0 0 
0 0 0 0 0 0 0 0 0 
0 0 0 0 0 0 0 0 0 
0 0 0 0 0 0 0 0 0 
0 0 0 0 0 0 0 0 0 
0 0 0 0 0 0 0 0 0 
0 0 0 0 0 0 0 0 0 
0 0 0 0 0 0 0 0 0 
0 0 0 0 0 0 0 0 0 
0 0 0 0 0 0 0 0 0 
0 0 0 0 0 0 0 0 0 
0 0 0 0 0 0 0 0 0 
0 0 0 0 0 0 0 0 0 
0 0 0 0 0 0 0 0 0 
0 0 0 0 0 0 0 0 0 
0 0 0 0 0 0 0 0 0 
0 0 0 0 0 0 0 0 0 
0 0 0 0 0 0 0 0 0 
0 0 0 0 0 0 0 0 0 
0 0 0 0 0 0 0 0 0 
0 0 0 0 0 0 0 0 0 
0 0 0 0 0 0 0 0 0 
0 0 0 0 0 0 0 0 0 
0 0 0 0 0 0 0 0 0 
0 0 0 0 0 0 0 0 0 
0 0 0 0 0 0 0 0 0 
0 0 0 0 0 0 0 0 0 
0 0 0 0 0 0 0 0 0 
0 0 0 0 0 0 0 0 0 
0 0 0 0 0 0 0 0 0 
0 0 0 0 0 0 0 0 0 
0 0 0 0 0 0 0 0 0 
0 0 0 0 0 0 0 0 0 
0 0 0 0 0 0 0 0 0 
0 0 0 0 0 0 0 0 0 
0 0 0 0 0 0 0 0 0 
0 0 0 0 0 0 0 0 0 
0 0 0 0 0 0 0 0 0 
0 0 0 0 0 0 0 0 0 
0 0 0 0 0 0 0 0 0 
0 0 0 0 0 0 0 0 0 
0 0 0 0 0 0 0 0 0 
0 0 0 0 0 0 0 0 0 
0 0 0 0 0 0 0 0 0 
0 0 0 0 0 0 0 0 0 
0 0 0 0 0 0 0 0 0 
0 0 0 0 0 0 0 0 0 
0 0 0 0 0 0 0 0 0 
0 0 0 0 0 0 0 0 0 
0 0 0 0 0 0 0 0 0 
0 0 0 0 0 0 0 0 0 
0 0 0 0 0 0 0 0 0 
0 0 0 0 0 0 0 0 0 
0 0 0 0 0 0 0 0 0 
0 0 0 0 0 0 0 0 0 
0 0 0 0 0 0 0 0 0 
0 0 0 0 0 0 0 0 0 
0 0 0 0 0 0 0 0 0 
0 0 0 0 0 0 0 0 0 
0 0 0 0 0 0 0 0 0 
0 0 0 0 0 0 0 0 0 
0 0 0 0 0 0 0 0 0 
0 0 0 0 0 0 0 0 0 
0 0 0 0 0 0 0 0 0 
0 0 0 0 0 0 0 0 0 
0 0 0 0 0 0 0 0 0 
0 0 0 0 0 0 0 0 0 
0 0 0 0 0 0 0 0 0 
0 0 0 0 0 0 0 0 0 
0 0 0 0 0 0 0 0 0 
0 0 0 0 0 0 0 0 0 
0 0 0 0 0 0 0 0 0 
0 0 0 0 0 0 0 0 0 
0 0 0 0 0 0 0 0 0 
0 0 0 0 0 0 0 0 0 
0 0 0 0 0 0 0 0 0 
0 0 0 0 0 0 0 0 0 
0 0 0 0 0 0 0 0 0 
0 0 0 0 0 0 0 0 0 
0 0 0 0 0 0 0 0 0 
0 0 0 0 0 0 0 0 0 
0 0 0 0 0 0 0 0 0 
0 0 0 0 0 0 0 0 0 
0 0 0 0 0 0 0 0 0 
0 0 0 0 0 0 0 0 0 
0 0 0 0 0 0 0 0 0 
0 0 0 0 0 0 0 0 0 
0 0 0 0 0 0 0 0 0 
0 0 0 0 0 0 0 0 0 
0 0 0 0 0 0 0 0 0 
0 0 0 0 0 0 0 0 0 
0 0 0 0 0 0 0 0 0 
0 0 0 0 0 0 0 0 0 
0 0 0 0 0 0 0 0 0 
0 0 0 0 0 0 0 0 0 
0 0 0 0 0 0 0 0 0 
0 0 0 0 0 0 0 0 0 
0 0 0 0 0 0 0 0 0 
0 0 0 0 0 0 0 0 0 
0 0 0 0 0 0 0 0 0 
0 0 0 0 0 0 0 0 0 
0 0 0 0 0 0 0 0 0 
0 0 0 0 0 0 0 0 0 
0 0 0 0 0 0 0 0 0 
0 0 0 0 0 0 0 0 0 
0 0 0 0 0 0 0 0 0 
0 0 0 0 0 0 0 0 0 
0 0 0 0 0 0 0 0 0 
0 0 0 0 0 0 0 0 0 
0 0 0 0 0 0 0 0 0 
0 0 0 0 0 0 0 0 0 
0 0 0 0 0 0 0 0 0 
0 0 0 0 0 0 0 0 0 
0 0 0 0 0 0 0 0 0 
0 0 0 0 0 0 0 0 0 
0 0 0 0 0 0 0 0 0 
0 0 0 0 0 0 0 0 0 
0 0 0 0 0 0 0 0 0 
0 0 0 0 0 0 0 0 0 
0 0 0 0 0 0 0 0 0 
0 0 0 0 0 0 0 0 0 
0 0 0 0 0 0 0 0 0 
0 0 0 0 0 0 0 0 0 
0 0 0 0 0 0 0 0 0 
0 0 0 0 0 0 0 0 0 
0 0 0 0 0 0 0 0 0 
0 0 0 0 0 0 0 0 0 
0 0 0 0 0 0 0 0 0 
0 0 0 0 0 0 0 0 0 
0 0 0 0 0 0 0 0 0 
0 0 0 0 0 0 0 0 0 
0 0 0 0 0 0 0 0 0 
0 0 0 0 0 0 0 0 0 
0 0 0 0 0 0 0 0 0 

fx_mag_viz 1 648 double
0 0 0 0 0 0 0 0 0 
0 0 0 0 0 0 0 0 0 
0 0 0 0 0 0 0 0 0 
0 0 0 0 0 0 0 0 0 
0 0 0 0 0 0 0 0 0 
0 0 0 0 0 0 0 0 0 
0 0 0 0 0 0 0 0 0 
0 0 0 0 0 0 0 0 0 
0 0 0 0 0 0 0 0 0 
0 0 0 0 0 0 0 0 0 
0 0 0 0 0 0 0 0 0 
0 0 0 0 0 0 0 0 0 
0 0 0 0 0 0 0 0 0 
0 0 0 0 0 0 0 0 0 
0 0 0 0 0 0 0 0 0 
0 0 0 0 0 0 0 0 0 
0 0 0 0 0 0 0 0 0 
0 0 0 0 0 0 0 0 0 
0 0 0 0 0 0 0 0 0 
0 0 0 0 0 0 0 0 0 
0 0 0 0 0 0 0 0 0 
0 0 0 0 0 0 0 0 0 
0 0 0 0 0 0 0 0 0 
0 0 0 0 0 0 0 0 0 
0 0 0 0 0 0 0 0 0 
0 0 0 0 0 0 0 0 0 
0 0 0 0 0 0 0 0 0 
0 0 0 0 0 0 0 0 0 
0 0 0 0 0 0 0 0 0 
0 0 0 0 0 0 0 0 0 
0 0 0 0 0 0 0 0 0 
0 0 0 0 0 0 0 0 0 
0 0 0 0 0 0 0 0 0 
0 0 0 0 0 0 0 0 0 
0 0 0 0 0 0 0 0 0 
0 0 0 0 0 0 0 0 0 
0 0 0 0 0 0 0 0 0 
0 0 0 0 0 0 0 0 0 
0 0 0 0 0 0 0 0 0 
0 0 0 0 0 0 0 0 0 
0 0 0 0 0 0 0 0 0 
0 0 0 0 0 0 0 0 0 
0 0 0 0 0 0 0 0 0 
0 0 0 0 0 0 0 0 0 
0 0 0 0 0 0 0 0 0 
0 0 0 0 0 0 0 0 0 
0 0 0 0 0 0 0 0 0 
0 0 0 0 0 0 0 0 0 
0 0 0 0 0 0 0 0 0 
0 0 0 0 0 0 0 0 0 
0 0 0 0 0 0 0 0 0 
0 0 0 0 0 0 0 0 0 
0 0 0 0 0 0 0 0 0 
0 0 0 0 0 0 0 0 0 
0 0 0 0 0 0 0 0 0 
0 0 0 0 0 0 0 0 0 
0 0 0 0 0 0 0 0 0 
0 0 0 0 0 0 0 0 0 
0 0 0 0 0 0 0 0 0 
0 0 0 0 0 0 0 0 0 
0 0 0 0 0 0 0 0 0 
0 0 0 0 0 0 0 0 0 
0 0 0 0 0 0 0 0 0 
0 0 0 0 0 0 0 0 0 
0 0 0 0 0 0 0 0 0 
0 0 0 0 0 0 0 0 0 
0 0 0 0 0 0 0 0 0 
0 0 0 0 0 0 0 0 0 
0 0 0 0 0 0 0 0 0 
0 0 0 0 0 0 0 0 0 
0 0 0 0 0 0 0 0 0 
0 0 0 0 0 0 0 0 0 

fy_mag_viz 1 648 double
0 0 0 0 0 0 0 0 0 
0 0 0 0 0 0 0 0 0 
0 0 0 0 0 0 0 0 0 
0 0 0 0 0 0 0 0 0 
0 0 0 0 0 0 0 0 0 
0 0 0 0 0 0 0 0 0 
0 0 0 0 0 0 0 0 0 
0 0 0 0 0 0 0 0 0 
0 0 0 0 0 0 0 0 0 
0 0 0 0 0 0 0 0 0 
0 0 0 0 0 0 0 0 0 
0 0 0 0 0 0 0 0 0 
0 0 0 0 0 0 0 0 0 
0 0 0 0 0 0 0 0 0 
0 0 0 0 0 0 0 0 0 
0 0 0 0 0 0 0 0 0 
0 0 0 0 0 0 0 0 0 
0 0 0 0 0 0 0 0 0 
0 0 0 0 0 0 0 0 0 
0 0 0 0 0 0 0 0 0 
0 0 0 0 0 0 0 0 0 
0 0 0 0 0 0 0 0 0 
0 0 0 0 0 0 0 0 0 
0 0 0 0 0 0 0 0 0 
0 0 0 0 0 0 0 0 0 
0 0 0 0 0 0 0 0 0 
0 0 0 0 0 0 0 0 0 
0 0 0 0 0 0 0 0 0 
0 0 0 0 0 0 0 0 0 
0 0 0 0 0 0 0 0 0 
0 0 0 0 0 0 0 0 0 
0 0 0 0 0 0 0 0 0 
0 0 0 0 0 0 0 0 0 
0 0 0 0 0 0 0 0 0 
0 0 0 0 0 0 0 0 0 
0 0 0 0 0 0 0 0 0 
0 0 0 0 0 0 0 0 0 
0 0 0 0 0 0 0 0 0 
0 0 0 0 0 0 0 0 0 
0 0 0 0 0 0 0 0 0 
0 0 0 0 0 0 0 0 0 
0 0 0 0 0 0 0 0 0 
0 0 0 0 0 0 0 0 0 
0 0 0 0 0 0 0 0 0 
0 0 0 0 0 0 0 0 0 
0 0 0 0 0 0 0 0 0 
0 0 0 0 0 0 0 0 0 
0 0 0 0 0 0 0 0 0 
0 0 0 0 0 0 0 0 0 
0 0 0 0 0 0 0 0 0 
0 0 0 0 0 0 0 0 0 
0 0 0 0 0 0 0 0 0 
0 0 0 0 0 0 0 0 0 
0 0 0 0 0 0 0 0 0 
0 0 0 0 0 0 0 0 0 
0 0 0 0 0 0 0 0 0 
0 0 0 0 0 0 0 0 0 
0 0 0 0 0 0 0 0 0 
0 0 0 0 0 0 0 0 0 
0 0 0 0 0 0 0 0 0 
0 0 0 0 0 0 0 0 0 
0 0 0 0 0 0 0 0 0 
0 0 0 0 0 0 0 0 0 
0 0 0 0 0 0 0 0 0 
0 0 0 0 0 0 0 0 0 
0 0 0 0 0 0 0 0 0 
0 0 0 0 0 0 0 0 0 
0 0 0 0 0 0 0 0 0 
0 0 0 0 0 0 0 0 0 
0 0 0 0 0 0 0 0 0 
0 0 0 0 0 0 0 0 0 
0 0 0 0 0 0 0 0 0 

fz_mag_viz 1 648 double
0 0 0 0 0 0 0 0 0 
0 0 0 0 0 0 0 0 0 
0 0 0 0 0 0 0 0 0 
0 0 0 0 0 0 0 0 0 
0 0 0 0 0 0 0 0 0 
0 0 0 0 0 0 0 0 0 
0 0 0 0 0 0 0 0 0 
0 0 0 0 0 0 0 0 0 
0 0 0 0 0 0 0 0 0 
0 0 0 0 0 0 0 0 0 
0 0 0 0 0 0 0 0 0 
0 0 0 0 0 0 0 0 0 
0 0 0 0 0 0 0 0 0 
0 0 0 0 0 0 0 0 0 
0 0 0 0 0 0 0 0 0 
0 0 0 0 0 0 0 0 0 
0 0 0 0 0 0 0 0 0 
0 0 0 0 0 0 0 0 0 
0 0 0 0 0 0 0 0 0 
0 0 0 0 0 0 0 0 0 
0 0 0 0 0 0 0 0 0 
0 0 0 0 0 0 0 0 0 
0 0 0 0 0 0 0 0 0 
0 0 0 0 0 0 0 0 0 
0 0 0 0 0 0 0 0 0 
0 0 0 0 0 0 0 0 0 
0 0 0 0 0 0 0 0 0 
0 0 0 0 0 0 0 0 0 
0 0 0 0 0 0 0 0 0 
0 0 0 0 0 0 0 0 0 
0 0 0 0 0 0 0 0 0 
0 0 0 0 0 0 0 0 0 
0 0 0 0 0 0 0 0 0 
0 0 0 0 0 0 0 0 0 
0 0 0 0 0 0 0 0 0 
0 0 0 0 0 0 0 0 0 
0 0 0 0 0 0 0 0 0 
0 0 0 0 0 0 0 0 0 
0 0 0 0 0 0 0 0 0 
0 0 0 0 0 0 0 0 0 
0 0 0 0 0 0 0 0 0 
0 0 0 0 0 0 0 0 0 
0 0 0 0 0 0 0 0 0 
0 0 0 0 0 0 0 0 0 
0 0 0 0 0 0 0 0 0 
0 0 0 0 0 0 0 0 0 
0 0 0 0 0 0 0 0 0 
0 0 0 0 0 0 0 0 0 
0 0 0 0 0 0 0 0 0 
0 0 0 0 0 0 0 0 0 
0 0 0 0 0 0 0 0 0 
0 0 0 0 0 0 0 0 0 
0 0 0 0 0 0 0 0 0 
0 0 0 0 0 0 0 0 0 
0 0 0 0 0 0 0 0 0 
0 0 0 0 0 0 0 0 0 
0 0 0 0 0 0 0 0 0 
0 0 0 0 0 0 0 0 0 
0 0 0 0 0 0 0 0 0 
0 0 0 0 0 0 0 0 0 
0 0 0 0 0 0 0 0 0 
0 0 0 0 0 0 0 0 0 
0 0 0 0 0 0 0 0 0 
0 0 0 0 0 0 0 0 0 
0 0 0 0 0 0 0 0 0 
0 0 0 0 0 0 0 0 0 
0 0 0 0 0 0 0 0 0 
0 0 0 0 0 0 0 0 0 
0 0 0 0 0 0 0 0 0 
0 0 0 0 0 0 0 0 0 
0 0 0 0 0 0 0 0 0 
0 0 0 0 0 0 0 0 0 

B_magnitude 1 648 double
0 0 0 0 0 0 0 0 0 
0 0 0 0 0 0 0 0 0 
0 0 0 0 0 0 0 0 0 
0 0 0 0 0 0 0 0 0 
0 0 0 0 0 0 0 0 0 
0 0 0 0 0 0 0 0 0 
0 0 0 0 0 0 0 0 0 
0 0 0 0 0 0 0 0 0 
0 0 0 0 0 0 0 0 0 
0 0 0 0 0 0 0 0 0 
0 0 0 0 0 0 0 0 0 
0 0 0 0 0 0 0 0 0 
0 0 0 0 0 0 0 0 0 
0 0 0 0 0 0 0 0 0 
0 0 0 0 0 0 0 0 0 
0 0 0 0 0 0 0 0 0 
0 0 0 0 0 0 0 0 0 
0 0 0 0 0 0 0 0 0 
0 0 0 0 0 0 0 0 0 
0 0 0 0 0 0 0 0 0 
0 0 0 0 0 0 0 0 0 
0 0 0 0 0 0 0 0 0 
0 0 0 0 0 0 0 0 0 
0 0 0 0 0 0 0 0 0 
0 0 0 0 0 0 0 0 0 
0 0 0 0 0 0 0 0 0 
0 0 0 0 0 0 0 0 0 
0 0 0 0 0 0 0 0 0 
0 0 0 0 0 0 0 0 0 
0 0 0 0 0 0 0 0 0 
0 0 0 0 0 0 0 0 0 
0 0 0 0 0 0 0 0 0 
0 0 0 0 0 0 0 0 0 
0 0 0 0 0 0 0 0 0 
0 0 0 0 0 0 0 0 0 
0 0 0 0 0 0 0 0 0 
0 0 0 0 0 0 0 0 0 
0 0 0 0 0 0 0 0 0 
0 0 0 0 0 0 0 0 0 
0 0 0 0 0 0 0 0 0 
0 0 0 0 0 0 0 0 0 
0 0 0 0 0 0 0 0 0 
0 0 0 0 0 0 0 0 0 
0 0 0 0 0 0 0 0 0 
0 0 0 0 0 0 0 0 0 
0 0 0 0 0 0 0 0 0 
0 0 0 0 0 0 0 0 0 
0 0 0 0 0 0 0 0 0 
0 0 0 0 0 0 0 0 0 
0 0 0 0 0 0 0 0 0 
0 0 0 0 0 0 0 0 0 
0 0 0 0 0 0 0 0 0 
0 0 0 0 0 0 0 0 0 
0 0 0 0 0 0 0 0 0 
0 0 0 0 0 0 0 0 0 
0 0 0 0 0 0 0 0 0 
0 0 0 0 0 0 0 0 0 
0 0 0 0 0 0 0 0 0 
0 0 0 0 0 0 0 0 0 
0 0 0 0 0 0 0 0 0 
0 0 0 0 0 0 0 0 0 
0 0 0 0 0 0 0 0 0 
0 0 0 0 0 0 0 0 0 
0 0 0 0 0 0 0 0 0 
0 0 0 0 0 0 0 0 0 
0 0 0 0 0 0 0 0 0 
0 0 0 0 0 0 0 0 0 
0 0 0 0 0 0 0 0 0 
0 0 0 0 0 0 0 0 0 
0 0 0 0 0 0 0 0 0 
0 0 0 0 0 0 0 0 0 
0 0 0 0 0 0 0 0 0 

B_gradient_mag 1 648 double
0 0 0 0 0 0 0 0 0 
0 0 0 0 0 0 0 0 0 
0 0 0 0 0 0 0 0 0 
0 0 0 0 0 0 0 0 0 
0 0 0 0 0 0 0 0 0 
0 0 0 0 0 0 0 0 0 
0 0 0 0 0 0 0 0 0 
0 0 0 0 0 0 0 0 0 
0 0 0 0 0 0 0 0 0 
0 0 0 0 0 0 0 0 0 
0 0 0 0 0 0 0 0 0 
0 0 0 0 0 0 0 0 0 
0 0 0 0 0 0 0 0 0 
0 0 0 0 0 0 0 0 0 
0 0 0 0 0 0 0 0 0 
0 0 0 0 0 0 0 0 0 
0 0 0 0 0 0 0 0 0 
0 0 0 0 0 0 0 0 0 
0 0 0 0 0 0 0 0 0 
0 0 0 0 0 0 0 0 0 
0 0 0 0 0 0 0 0 0 
0 0 0 0 0 0 0 0 0 
0 0 0 0 0 0 0 0 0 
0 0 0 0 0 0 0 0 0 
0 0 0 0 0 0 0 0 0 
0 0 0 0 0 0 0 0 0 
0 0 0 0 0 0 0 0 0 
0 0 0 0 0 0 0 0 0 
0 0 0 0 0 0 0 0 0 
0 0 0 0 0 0 0 0 0 
0 0 0 0 0 0 0 0 0 
0 0 0 0 0 0 0 0 0 
0 0 0 0 0 0 0 0 0 
0 0 0 0 0 0 0 0 0 
0 0 0 0 0 0 0 0 0 
0 0 0 0 0 0 0 0 0 
0 0 0 0 0 0 0 0 0 
0 0 0 0 0 0 0 0 0 
0 0 0 0 0 0 0 0 0 
0 0 0 0 0 0 0 0 0 
0 0 0 0 0 0 0 0 0 
0 0 0 0 0 0 0 0 0 
0 0 0 0 0 0 0 0 0 
0 0 0 0 0 0 0 0 0 
0 0 0 0 0 0 0 0 0 
0 0 0 0 0 0 0 0 0 
0 0 0 0 0 0 0 0 0 
0 0 0 0 0 0 0 0 0 
0 0 0 0 0 0 0 0 0 
0 0 0 0 0 0 0 0 0 
0 0 0 0 0 0 0 0 0 
0 0 0 0 0 0 0 0 0 
0 0 0 0 0 0 0 0 0 
0 0 0 0 0 0 0 0 0 
0 0 0 0 0 0 0 0 0 
0 0 0 0 0 0 0 0 0 
0 0 0 0 0 0 0 0 0 
0 0 0 0 0 0 0 0 0 
0 0 0 0 0 0 0 0 0 
0 0 0 0 0 0 0 0 0 
0 0 0 0 0 0 0 0 0 
0 0 0 0 0 0 0 0 0 
0 0 0 0 0 0 0 0 0 
0 0 0 0 0 0 0 0 0 
0 0 0 0 0 0 0 0 0 
0 0 0 0 0 0 0 0 0 
0 0 0 0 0 0 0 0 0 
0 0 0 0 0 0 0 0 0 
0 0 0 0 0 0 0 0 0 
0 0 0 0 0 0 0 0 0 
0 0 0 0 0 0 0 0 0 
0 0 0 0 0 0 0 0 0 

