# vtk DataFile Version 5.1
Generated by LIGGGHTS
ASCII
DATASET POLYDATA
POINTS 532 float
-0.0308094 -0.0435702 0.0757644 -0.0112192 -0.0104501 0.0761069 0.00743742 -0.00926665 0.0760044 
-0.00433253 -0.00676057 0.0758137 -0.0179231 -0.00300678 0.0757591 -0.042922 -0.0404536 0.0765856 
0.00798734 -0.0367051 0.0776243 0.0280204 -0.0311414 0.0766436 0.000892701 -0.0263701 0.0775432 
0.013874 -0.00963069 0.077087 -0.0129003 -0.00574839 0.0768657 0.021602 0.00540593 0.0773364 
0.0221269 0.00728552 0.0775641 -0.0214351 0.00957734 0.076583 -0.0310202 0.0131063 0.077183 
0.0364634 0.0310238 0.0771142 -0.0264781 0.032823 0.0768119 0.0297434 0.0373158 0.0769046 
-0.0428902 -0.0449088 0.0778969 0.0308099 -0.0378456 0.0787292 0.0333162 -0.0342631 0.0790377 
-0.0257955 -0.0157834 0.0782909 0.0384376 0.000848974 0.0781862 0.0449494 0.00392273 0.0785657 
-0.022709 0.0198803 0.0780389 0.03506 0.0228899 0.0788664 0.0181332 0.0246356 0.0789405 
0.0167463 0.0251763 0.0778614 -0.0390027 0.0421086 0.0780542 -0.0105296 -0.0314142 0.0803916 
-0.00444012 -0.0151621 0.0798074 -0.0117656 -0.0138394 0.0801851 0.0109664 -0.00760095 0.0796448 
0.00937085 -0.00418454 0.0793848 0.0180565 -0.00487531 0.0794777 -0.0141425 -0.00311887 0.0798635 
0.0248423 0.0143007 0.0801993 0.0123926 0.0218243 0.0800213 0.040047 -0.0404588 0.0808972 
-0.0100897 -0.0180162 0.0804972 0.00689113 -0.0107816 0.0814059 -0.0198564 -0.00683511 0.0806145 
0.021323 -0.00444137 0.0816595 0.0246705 0.0064451 0.0808965 -0.0426568 0.00723228 0.0809642 
0.0212596 0.00979192 0.0809009 0.0398091 0.011618 0.0815041 0.0143092 0.0139794 0.0806154 
0.0307708 0.0242663 0.0816203 -0.0409258 0.0305044 0.0805801 -0.0335565 -0.0442122 0.0824617 
0.0156715 -0.0391733 0.0820087 -0.0266532 -0.0301716 0.0829334 0.033456 -0.0256735 0.0821813 
0.039775 -0.0211058 0.0826485 -0.0388614 -0.0136303 0.0827713 0.0350526 -0.0102353 0.082652 
0.0292006 0.00433004 0.0823642 0.0340899 0.00882812 0.0819182 -0.023041 0.0197144 0.0831114 
-0.00782209 0.0241861 0.0827189 -0.0200898 0.0311527 0.0818321 -0.0073504 0.0318329 0.0823639 
-0.0248652 -0.040212 0.083723 -0.00302782 -0.0385948 0.0834333 0.00517921 0.0169249 0.0837124 
-0.0360536 0.0173104 0.0830869 0.0090081 0.0191686 0.0833576 0.000162142 0.0251126 0.0842848 
0.0038092 0.0311583 0.0843142 0.01325 0.0319187 0.0841175 0.0165329 0.0385374 0.0843032 
-0.00674967 -0.0416523 0.0852615 0.00594186 -0.0351889 0.0854011 0.00156248 -0.0194187 0.0855998 
0.0286804 -0.00919085 0.0853034 -0.0260142 0.00017485 0.0848539 0.0305447 0.00486582 0.0855894 
8.23501e-07 0.0138406 0.0848221 0.0215224 0.0171285 0.0846401 -0.0153727 0.020636 0.0850785 
0.0362273 0.0220011 0.0847446 -0.00563177 0.0268155 0.0844395 0.00577088 -0.0287415 0.0864778 
-0.0408326 -0.0234295 0.0863067 -0.0108877 -0.0188832 0.086238 0.0030191 -0.0179247 0.0859111 
-0.0269092 -0.0125643 0.086724 0.0131353 -0.00504642 0.0859285 0.00417698 0.0024455 0.0867479 
0.0188762 0.00181355 0.0858914 -0.0287984 0.00559412 0.0859411 -0.0282566 0.021284 0.0858583 
0.0251972 0.0393087 0.0861776 -0.0334706 -0.0396012 0.0876124 0.0336491 -0.0197505 0.087668 
-0.0339565 -0.0167518 0.0876749 -0.0214415 -0.007536 0.0873887 0.0287781 0.014071 0.0871361 
-0.0313244 0.0314049 0.0873812 -0.041477 0.0364172 0.0881992 -0.0240719 -0.0268296 0.0891191 
-0.0426154 -0.0165053 0.0887949 0.0223879 -0.0163393 0.0888023 -0.00702036 -0.00121172 0.0887837 
-0.00783961 -0.000387029 0.0891852 -0.00967086 0.00179773 0.0887002 -0.034865 0.0142961 0.0884439 
-0.0386663 0.0253433 0.0892238 0.0221021 0.0401282 0.0890773 -0.0232422 -0.0321576 0.0907893 
0.0436787 -0.0219137 0.090132 0.0277003 -0.0107969 0.0899811 -0.0267569 0.0263983 0.0896618 
0.0444958 0.0309554 0.0907054 0.0414821 -0.0410789 0.0908763 0.00802514 -0.031483 0.0916668 
0.0404767 -0.0183151 0.0909841 0.0251729 -0.00985964 0.0917864 0.0228765 0.00606581 0.0911286 
0.0399323 0.0117688 0.0913885 0.00395304 0.0187088 0.0919944 -0.00739359 0.0259593 0.0915086 
-0.0357156 0.0282031 0.0920239 0.0191509 0.0299648 0.0913578 0.00284552 0.0345861 0.0910311 
-0.0112537 0.0395394 0.0917462 -0.0205282 0.0432397 0.0918493 -0.0439713 -0.0357399 0.0922135 
0.0244271 -0.0334586 0.0928522 0.0268369 -0.0315202 0.0929034 -0.0448384 -0.0296834 0.0925775 
0.00623721 -0.0211799 0.0924902 -0.0329121 -0.0139828 0.0929341 0.0176437 -0.0119747 0.0932598 
-0.0170872 0.00564833 0.0933879 0.0011249 0.00615697 0.0925356 0.030759 0.00580352 0.0921736 
0.0163992 0.0415262 0.0929176 -0.044759 -0.0437614 0.093532 -0.0370475 -0.0370945 0.0939645 
0.032808 -0.025967 0.0944004 -0.0317771 -0.0175651 0.0946564 0.0268005 -0.0146468 0.0935961 
-0.038829 -0.00978443 0.0944526 -0.0304645 -0.00701594 0.0944515 -0.042786 -0.00359954 0.0940704 
-0.00279986 0.0127222 0.0938796 0.0418335 0.0161761 0.094075 -0.0214239 0.0189608 0.0947044 
0.00128112 0.0217131 0.0940997 0.0226957 0.0260881 0.094644 -0.00435696 0.0325462 0.0946639 
0.00805094 0.0422278 0.0941243 -0.027409 -0.0433703 0.0959892 0.0244803 -0.0401788 0.0951972 
0.00879071 -0.0344865 0.0958127 -0.0427235 -0.0332389 0.0951589 0.023158 -0.0340207 0.0947534 
-0.00580099 -0.0272788 0.0959187 0.039455 -0.000236508 0.0957252 0.0142017 0.0079404 0.0952736 
0.0202046 0.00840095 0.09558 -0.0408092 0.00981999 0.0954571 0.014866 0.0127598 0.0947689 
0.00953871 0.0271324 0.0956583 -0.00670669 -0.0394183 0.0967717 -0.0262624 -0.032473 0.0963867 
-0.00553214 -0.00871323 0.0968513 0.0147261 0.00139147 0.0966309 -0.037077 0.00611456 0.0973072 
-0.0392616 0.00972366 0.0960662 0.0226738 0.0181095 0.0963671 0.0146363 0.0223077 0.0964707 
-0.0312382 0.0393096 0.0967737 0.0399235 0.0434757 0.0965717 -0.00340304 -0.0448428 0.0975367 
-0.0338231 -0.0250135 0.0975475 0.0363266 -0.0194176 0.0977934 -0.0204621 -0.0172006 0.098542 
0.0249316 -0.014475 0.0984411 -0.0222502 -0.00974669 0.097347 -0.0101256 0.00978275 0.0981479 
-0.0429188 0.0135204 0.0973511 -0.0431379 0.0208085 0.097996 -0.0114472 0.026715 0.0978246 
0.000822496 -0.0363122 0.0997184 -0.0240024 -0.0280603 0.0998001 -0.0350278 -0.0224863 0.0989295 
0.0198229 -0.0156851 0.0993461 -0.0196799 -0.00931279 0.0990245 -0.0135858 -0.00672635 0.0992309 
-0.00723413 0.00605583 0.0992211 0.0336082 0.013194 0.099663 -0.0349287 0.0230684 0.098937 
0.00264144 0.0247174 0.0996654 -0.0127911 0.0299546 0.0991871 -0.0375088 0.0393741 0.099655 
-0.0346971 -0.0446764 0.100995 0.0248068 -0.0428986 0.10084 0.0418836 -0.0421436 0.100487 
0.0238162 -0.0409762 0.100548 0.0306875 -0.0259396 0.100784 -0.0416237 0.00110806 0.10112 
0.0362421 0.00170773 0.100305 -0.0261639 0.00337815 0.100652 0.0404406 0.00462082 0.100421 
0.0197977 0.00963841 0.100906 0.00976298 0.0163696 0.101127 0.0388885 0.0193682 0.100304 
0.0238959 0.0383247 0.100709 -0.0248654 -0.0427111 0.101959 -0.018434 -0.0405477 0.101828 
-0.0108246 -0.0388127 0.102231 0.0397687 -0.0374633 0.101857 0.03382 -0.0268981 0.101678 
0.00538025 -0.0241403 0.101277 -0.00747582 -0.00609419 0.102293 0.0128044 0.0127337 0.102476 
0.0261916 0.0119357 0.101736 -0.00307286 0.0144526 0.102068 0.0122157 0.0191756 0.10169 
0.0311732 0.0371467 0.102339 0.0424299 -0.0409921 0.102676 0.0102479 -0.024092 0.102813 
-0.0225401 -0.0213878 0.102729 -0.00827992 -0.020547 0.103314 -0.0296942 -0.0196153 0.103111 
0.0403752 -0.0143085 0.103827 -0.0150798 -0.00698339 0.103174 0.00523139 -0.00599236 0.103371 
-0.0421793 0.0225172 0.103024 -0.0190887 0.0269029 0.103409 -0.0376379 0.0294143 0.103388 
0.00372347 0.0304157 0.103495 -0.00973825 0.0391656 0.1029 0.0222253 0.0407186 0.103736 
-0.0181988 0.0434549 0.103714 0.0145521 -0.0432303 0.104652 0.0313953 -0.00974065 0.104988 
0.0290986 -0.000251763 0.104792 0.0407777 0.000744206 0.104298 0.0110904 0.00657535 0.104579 
0.0283387 0.00890506 0.103958 0.00861143 0.0123591 0.104759 -0.0196462 0.0155185 0.105025 
0.0121458 0.0151918 0.104554 -0.0245447 0.0378537 0.104057 0.0352379 0.0438995 0.104929 
0.0348044 -0.042095 0.105632 -0.0168273 -0.0360331 0.106354 -0.0376897 -0.0314333 0.10608 
0.0394323 -0.021923 0.106035 0.00548761 -0.0197918 0.105178 0.0406218 -0.0100941 0.10514 
0.0323225 0.00436429 0.106126 0.0250346 0.00641518 0.105678 -0.00867948 0.0139924 0.105813 
0.00519606 0.0301696 0.105911 0.00390562 0.0317225 0.105726 0.00317215 0.0343196 0.105441 
-0.0263426 -0.0292431 0.106624 -0.0430551 -0.0267583 0.107663 0.0233461 -0.0214624 0.10673 
-0.0186412 -0.0134353 0.107672 0.0161928 -0.00760918 0.107388 -0.0108954 0.0304 0.107167 
0.0231674 0.0340949 0.107238 -0.0211095 -0.00770044 0.108156 -0.0120059 -0.00345367 0.108456 
-0.00896956 -0.00131708 0.108267 0.0116524 0.00206193 0.108935 0.0441199 0.0136981 0.108671 
0.000954082 0.0152563 0.107999 0.0258603 0.0235991 0.108615 0.0405446 0.0433429 0.108297 
0.0181024 -0.0433049 0.109066 0.0131812 -0.0427533 0.109274 0.00985621 -0.0367022 0.110062 
0.0449741 -0.0303513 0.109965 0.0272875 -0.0186725 0.110277 -0.0327621 -0.0121928 0.109358 
0.0387156 -0.00624884 0.109589 0.00975646 -0.00313231 0.109254 0.0311878 0.014057 0.109822 
0.00126512 0.0228658 0.109844 0.026696 0.03017 0.109953 0.0193546 0.0324404 0.109425 
-0.00585061 0.0388609 0.109458 -0.039126 0.0399637 0.109221 0.0352701 0.0439749 0.109304 
-0.0220587 -0.0306349 0.111572 -0.0414327 -0.0290659 0.111585 0.0054016 -0.025334 0.110728 
0.00558373 -0.0242787 0.11114 -0.0127621 -0.0231756 0.111225 0.035159 -0.023363 0.111509 
0.038292 -0.016257 0.110971 0.0323803 -0.0150629 0.110637 -0.00254943 -0.00825679 0.111137 
-0.0344646 -0.00725539 0.111461 0.0180458 -0.00470109 0.111531 -0.0325416 0.00283857 0.110987 
0.00243665 0.00282786 0.110988 -0.025141 0.00447188 0.111595 -0.00841171 0.0143034 0.110747 
0.0407412 0.0174253 0.110402 -0.0122989 0.0222019 0.110723 0.021223 0.0244832 0.11135 
0.0438582 0.0244724 0.110908 0.0395905 0.0272142 0.111442 0.00834461 0.0278725 0.110813 
-0.0406313 0.0295913 0.110974 0.0166138 -0.0412108 0.112062 -0.0233761 -0.031813 0.111832 
0.0346338 -0.0290927 0.112148 0.0240101 -0.0228809 0.112306 -0.0147645 -0.0165889 0.112672 
0.0334462 -0.00930086 0.112706 -0.0107529 -0.00365687 0.111656 -0.00941413 -0.00330341 0.112115 
-0.0283489 -0.000417126 0.111958 0.0140084 -6.89735e-05 0.112891 -0.0105861 0.00898083 0.112893 
0.0396593 0.013993 0.112057 0.0398418 0.0217469 0.11221 0.0372507 0.0318783 0.111976 
-0.00196307 0.0366495 0.111648 -0.0309963 -0.0355024 0.113051 -0.0386911 -0.0311434 0.114176 
-0.0432264 -0.0264101 0.11379 -0.00863888 -0.0237376 0.113754 0.0404774 -0.00688032 0.114051 
-0.009285 0.00693532 0.11372 0.0211953 0.00966092 0.113136 -0.0148746 0.0223253 0.11316 
-0.0267196 0.0236159 0.113776 -0.0337286 0.0337045 0.113771 0.0294278 0.0431452 0.112958 
0.00528787 0.0432844 0.113073 -0.00396528 -0.0444182 0.114345 0.0195053 -0.043722 0.115189 
-0.0396817 -0.0304797 0.114557 0.0155599 -0.0240909 0.115525 -0.00401126 -0.00720159 0.114273 
-0.0408474 -0.00214648 0.115158 0.0168839 -0.00210364 0.115186 -0.0153419 -0.00108619 0.115349 
-0.0365733 0.0119208 0.11436 0.00243185 0.0120975 0.114558 0.018015 0.0183735 0.114413 
0.0191028 0.0315895 0.115019 0.00727395 0.0332762 0.114987 0.00201585 0.0404036 0.114487 
-0.0136468 -0.0412372 0.11646 -0.0177429 -0.0346724 0.116857 -0.0161578 -0.0337243 0.116477 
0.00179778 -0.0247441 0.116709 -0.0210835 -0.0209207 0.116114 -0.0033641 -0.0204173 0.11626 
0.0242571 -0.0100823 0.116681 0.0200271 -0.00425623 0.116023 -0.0376932 -0.000132947 0.116093 
0.0260144 0.00429017 0.115661 -0.0429246 0.00657681 0.116712 -0.00598638 0.00689803 0.115877 
-0.0128609 0.0265935 0.116781 -0.0425374 0.0333781 0.116305 0.00888594 0.0360502 0.116389 
0.0350196 -0.0250011 0.117151 0.0144468 -0.013247 0.117752 -0.00528066 -0.0121118 0.117208 
-0.0198668 -0.00211416 0.117253 0.0183943 0.00266245 0.117546 0.00533928 0.00728904 0.117005 
0.0278529 0.0342296 0.117448 0.0030545 0.0369981 0.117463 -0.0133259 0.0414802 0.117327 
-0.0177803 -0.0340186 0.118519 0.0153133 -0.0285941 0.118382 0.0164647 -0.0275391 0.118797 
0.0347572 -0.0260666 0.118267 0.0204492 -0.0194639 0.119364 0.0282033 -0.0178095 0.119453 
-0.0253129 -0.0039775 0.119111 0.00664535 -0.00164817 0.118557 -0.0231109 0.0157017 0.11839 
0.00742845 0.0199749 0.118252 -0.0324762 0.0230005 0.119049 0.0416479 -0.0439733 0.119728 
0.0406519 -0.0427256 0.119975 0.0077947 -0.0345433 0.119581 -0.0341597 -0.0122829 0.119471 
-0.0233311 0.00384073 0.119856 0.0332757 0.00539899 0.119586 -0.019893 0.00878872 0.120425 
-0.00071691 0.0108932 0.120506 -0.0287332 0.0215601 0.119767 -0.0295899 0.0232577 0.120118 
-0.0390775 0.0447256 0.120687 0.00231692 -0.0294453 0.120815 -0.0346801 -0.0287009 0.121515 
0.0115492 -0.0227248 0.121676 0.0132043 -0.01541 0.121763 -0.0279963 -0.0141356 0.121081 
0.0323804 -0.0132471 0.121169 0.0448793 -0.00396119 0.121946 0.0189244 0.00254502 0.121864 
-0.0406381 0.00555966 0.121169 0.00474506 0.0103043 0.121671 0.0234497 0.00978487 0.121865 
-0.00808524 0.0113378 0.121988 0.0397191 0.0283771 0.121182 0.0380057 0.0324307 0.121153 
0.00367032 0.0371324 0.121689 -0.0273176 -0.0361067 0.122087 0.0195647 -0.0366528 0.123119 
-0.0139777 -0.0223984 0.122316 0.0253763 -0.011051 0.12271 0.0352883 -0.0103067 0.122183 
-0.0403489 0.00598291 0.123132 0.0358407 0.00533501 0.122762 -0.0408306 0.00999374 0.122282 
0.027557 0.009967 0.122624 -0.0350204 0.0121089 0.122113 -0.0408838 0.0159645 0.122564 
-0.0122189 0.0175978 0.122672 0.0337272 0.0324898 0.122704 -0.00647711 0.0391566 0.122178 
0.0114086 0.0440135 0.122604 0.0171919 0.0449185 0.122287 0.00849583 -0.0405939 0.124178 
-0.0195638 -0.0385913 0.123421 0.0325128 -0.03812 0.123436 -0.0164034 -0.0216001 0.124196 
-0.0328213 -0.0176588 0.124228 -0.0408642 -0.0154151 0.124622 -0.015814 -0.0152491 0.12434 
0.0375745 -0.0151367 0.124498 -0.0137512 0.00384646 0.123985 -0.0442311 0.00821601 0.123378 
0.00757299 0.0192258 0.124384 0.0434247 0.0295768 0.123548 0.0040127 0.0314243 0.124339 
0.0211706 0.0445491 0.123793 -0.0389435 -0.0425966 0.125363 -0.0207996 -0.0190456 0.125778 
0.00886689 -0.0141191 0.125754 -0.0131355 0.00164571 0.125346 0.0324887 0.00836074 0.125028 
0.00789931 0.0136568 0.125806 0.012949 0.0143048 0.125736 0.0350116 0.0207306 0.125268 
0.0170579 0.0421878 0.125691 -0.0169239 -0.0402939 0.126324 0.0355384 -0.0354155 0.127077 
0.043014 -0.0343178 0.126703 -0.0210092 -0.0320472 0.127001 0.023019 -0.0293484 0.127218 
-0.0401314 -0.0280847 0.126377 -0.0253401 -0.0103599 0.126043 0.0420414 -0.00101026 0.126061 
-0.00443291 0.0160613 0.1269 0.00976854 0.0197772 0.126107 -0.0436572 0.0238848 0.126429 
-0.0407273 0.0358476 0.126326 -0.00161929 -0.0353994 0.127663 0.0403097 -0.0347888 0.128459 
0.0210005 -0.0239559 0.127376 -0.027449 0.00511055 0.127724 -0.01547 0.00642247 0.127311 
-0.0287818 0.014969 0.128024 -0.0363159 0.0185996 0.128053 -0.0214233 0.0285543 0.127385 
-0.00750544 0.0361316 0.12803 -0.0317519 -0.0446953 0.129431 -0.0289295 -0.0389067 0.128671 
-0.0179089 -0.0346335 0.128963 -8.23525e-05 -0.034098 0.129194 -0.00682403 -0.0314098 0.12958 
0.0134129 -0.0192809 0.12917 -0.00710141 -0.0133745 0.129304 0.00978397 0.00922321 0.128749 
0.0440772 0.0154938 0.128822 -0.0286532 0.0159811 0.128819 -0.00317984 0.0164631 0.129557 
0.0256029 0.0175394 0.129152 -0.00472634 0.0344449 0.129399 0.0156293 -0.0283842 0.130628 
0.0296492 -0.015918 0.129875 0.0347312 -0.012978 0.131145 0.00127443 -0.000618905 0.131097 
-0.0332593 0.000859011 0.130646 -0.00831541 0.0129665 0.130929 -0.0161548 0.0159009 0.130384 
-0.0132251 0.0252506 0.12997 -0.0260391 0.0304395 0.130669 -0.0359241 0.0337864 0.130718 
0.0201641 -0.0426709 0.132386 0.010226 -0.0308634 0.131883 0.0109547 -0.0235646 0.131962 
0.0218314 -0.00971151 0.131477 0.0133448 0.00646544 0.132375 0.023953 0.00820576 0.131806 
0.00418285 0.0112423 0.131942 -0.0436896 0.0195853 0.132128 -0.0138035 0.0240512 0.131205 
0.0132394 0.0345575 0.131214 -0.0190394 0.0446837 0.131711 -0.0234086 -0.038644 0.132722 
0.0307351 -0.0355434 0.133518 -0.0313057 -0.0141988 0.132993 -0.042331 -0.00792816 0.133382 
-0.0101373 -0.00698039 0.132742 0.0127657 -0.00746761 0.13368 -0.00720807 -0.00608605 0.133551 
0.0439232 0.0371117 0.133823 0.0147823 -0.0446949 0.13461 -0.0225361 -0.0441701 0.133904 
-0.00338111 -0.0363358 0.135014 -0.038621 -0.0229432 0.134423 0.0386193 -0.00496685 0.13381 
-0.0395569 -0.00227866 0.134047 -0.0349081 0.00917553 0.134422 -0.0219587 0.0304934 0.133802 
-0.0379532 0.0399341 0.13405 -0.00785852 0.041878 0.134226 0.0430506 0.0422314 0.134537 
-0.0136128 -0.00979682 0.135604 -0.0193355 0.018129 0.13545 -0.014478 0.0275162 0.135329 
0.0214431 0.0335886 0.135334 
VERTICES 533 532
OFFSETS vtktypeint64
0 1 2 3 4 5 6 7 8 
9 10 11 12 13 14 15 16 17 
18 19 20 21 22 23 24 25 26 
27 28 29 30 31 32 33 34 35 
36 37 38 39 40 41 42 43 44 
45 46 47 48 49 50 51 52 53 
54 55 56 57 58 59 60 61 62 
63 64 65 66 67 68 69 70 71 
72 73 74 75 76 77 78 79 80 
81 82 83 84 85 86 87 88 89 
90 91 92 93 94 95 96 97 98 
99 100 101 102 103 104 105 106 107 
108 109 110 111 112 113 114 115 116 
117 118 119 120 121 122 123 124 125 
126 127 128 129 130 131 132 133 134 
135 136 137 138 139 140 141 142 143 
144 145 146 147 148 149 150 151 152 
153 154 155 156 157 158 159 160 161 
162 163 164 165 166 167 168 169 170 
171 172 173 174 175 176 177 178 179 
180 181 182 183 184 185 186 187 188 
189 190 191 192 193 194 195 196 197 
198 199 200 201 202 203 204 205 206 
207 208 209 210 211 212 213 214 215 
216 217 218 219 220 221 222 223 224 
225 226 227 228 229 230 231 232 233 
234 235 236 237 238 239 240 241 242 
243 244 245 246 247 248 249 250 251 
252 253 254 255 256 257 258 259 260 
261 262 263 264 265 266 267 268 269 
270 271 272 273 274 275 276 277 278 
279 280 281 282 283 284 285 286 287 
288 289 290 291 292 293 294 295 296 
297 298 299 300 301 302 303 304 305 
306 307 308 309 310 311 312 313 314 
315 316 317 318 319 320 321 322 323 
324 325 326 327 328 329 330 331 332 
333 334 335 336 337 338 339 340 341 
342 343 344 345 346 347 348 349 350 
351 352 353 354 355 356 357 358 359 
360 361 362 363 364 365 366 367 368 
369 370 371 372 373 374 375 376 377 
378 379 380 381 382 383 384 385 386 
387 388 389 390 391 392 393 394 395 
396 397 398 399 400 401 402 403 404 
405 406 407 408 409 410 411 412 413 
414 415 416 417 418 419 420 421 422 
423 424 425 426 427 428 429 430 431 
432 433 434 435 436 437 438 439 440 
441 442 443 444 445 446 447 448 449 
450 451 452 453 454 455 456 457 458 
459 460 461 462 463 464 465 466 467 
468 469 470 471 472 473 474 475 476 
477 478 479 480 481 482 483 484 485 
486 487 488 489 490 491 492 493 494 
495 496 497 498 499 500 501 502 503 
504 505 506 507 508 509 510 511 512 
513 514 515 516 517 518 519 520 521 
522 523 524 525 526 527 528 529 530 
531 532 
CONNECTIVITY vtktypeint64
0 1 2 3 4 5 6 7 8 
9 10 11 12 13 14 15 16 17 
18 19 20 21 22 23 24 25 26 
27 28 29 30 31 32 33 34 35 
36 37 38 39 40 41 42 43 44 
45 46 47 48 49 50 51 52 53 
54 55 56 57 58 59 60 61 62 
63 64 65 66 67 68 69 70 71 
72 73 74 75 76 77 78 79 80 
81 82 83 84 85 86 87 88 89 
90 91 92 93 94 95 96 97 98 
99 100 101 102 103 104 105 106 107 
108 109 110 111 112 113 114 115 116 
117 118 119 120 121 122 123 124 125 
126 127 128 129 130 131 132 133 134 
135 136 137 138 139 140 141 142 143 
144 145 146 147 148 149 150 151 152 
153 154 155 156 157 158 159 160 161 
162 163 164 165 166 167 168 169 170 
171 172 173 174 175 176 177 178 179 
180 181 182 183 184 185 186 187 188 
189 190 191 192 193 194 195 196 197 
198 199 200 201 202 203 204 205 206 
207 208 209 210 211 212 213 214 215 
216 217 218 219 220 221 222 223 224 
225 226 227 228 229 230 231 232 233 
234 235 236 237 238 239 240 241 242 
243 244 245 246 247 248 249 250 251 
252 253 254 255 256 257 258 259 260 
261 262 263 264 265 266 267 268 269 
270 271 272 273 274 275 276 277 278 
279 280 281 282 283 284 285 286 287 
288 289 290 291 292 293 294 295 296 
297 298 299 300 301 302 303 304 305 
306 307 308 309 310 311 312 313 314 
315 316 317 318 319 320 321 322 323 
324 325 326 327 328 329 330 331 332 
333 334 335 336 337 338 339 340 341 
342 343 344 345 346 347 348 349 350 
351 352 353 354 355 356 357 358 359 
360 361 362 363 364 365 366 367 368 
369 370 371 372 373 374 375 376 377 
378 379 380 381 382 383 384 385 386 
387 388 389 390 391 392 393 394 395 
396 397 398 399 400 401 402 403 404 
405 406 407 408 409 410 411 412 413 
414 415 416 417 418 419 420 421 422 
423 424 425 426 427 428 429 430 431 
432 433 434 435 436 437 438 439 440 
441 442 443 444 445 446 447 448 449 
450 451 452 453 454 455 456 457 458 
459 460 461 462 463 464 465 466 467 
468 469 470 471 472 473 474 475 476 
477 478 479 480 481 482 483 484 485 
486 487 488 489 490 491 492 493 494 
495 496 497 498 499 500 501 502 503 
504 505 506 507 508 509 510 511 512 
513 514 515 516 517 518 519 520 521 
522 523 524 525 526 527 528 529 530 
531 
POINT_DATA 532
FIELD FieldData 12
id 1 532 int
200 231 428 6 57 134 115 107 291 
127 383 396 423 197 169 26 270 362 
164 356 88 176 465 86 149 219 12 
195 372 185 381 215 336 370 11 385 
491 18 508 247 106 72 125 353 450 
214 373 150 189 506 366 459 304 190 
237 58 293 418 165 521 14 187 253 
87 92 193 433 364 9 158 29 246 
457 367 440 483 83 458 322 339 166 
529 280 331 282 154 289 8 515 175 
186 407 49 386 256 470 73 10 310 
488 233 13 496 444 66 132 36 297 
100 435 404 317 292 408 327 207 505 
355 427 467 432 417 162 410 321 85 
155 406 22 347 5 137 167 500 349 
478 456 454 412 463 411 267 439 290 
16 399 263 60 40 110 337 163 222 
91 188 326 319 229 51 409 2 424 
112 4 21 199 314 303 324 90 495 
261 54 104 318 351 98 415 238 298 
240 227 288 384 357 30 24 96 526 
168 248 32 486 236 330 520 504 76 
275 390 218 429 121 75 61 519 141 
255 15 161 328 113 35 34 122 183 
484 243 378 446 202 447 198 271 223 
64 174 479 211 522 377 287 498 451 
201 320 62 375 84 157 341 196 528 
129 401 178 308 437 475 140 226 477 
111 28 311 216 474 119 81 148 313 
295 128 472 59 278 343 251 511 257 
151 208 63 469 507 272 346 414 102 
352 516 146 299 20 395 394 268 65 
45 523 397 250 393 532 79 416 329 
170 74 260 53 252 334 244 56 17 
392 431 78 206 461 509 524 52 239 
294 323 462 38 171 142 205 265 144 
363 279 94 232 487 333 527 493 368 
425 420 325 109 348 108 342 89 93 
525 71 42 360 371 217 345 273 117 
481 225 123 68 518 156 116 403 25 
1 105 204 379 301 213 266 455 286 
335 460 43 405 305 426 421 182 361 
350 147 445 430 448 517 285 135 70 
281 130 31 471 489 380 212 126 124 
221 138 254 476 139 354 449 376 276 
530 50 77 503 338 296 442 179 466 
482 82 436 513 340 3 501 153 453 
480 181 315 7 180 413 302 55 136 
210 359 160 274 143 374 194 300 316 
443 114 332 438 258 177 441 499 145 
46 41 33 434 99 344 47 307 103 
502 23 80 220 514 191 309 159 69 
234 284 245 48 485 209 452 242 312 
402 388 398 44 490 497 358 228 473 
118 387 120 422 259 365 389 262 468 
131 269 494 203 283 192 101 512 510 
464 152 97 391 172 173 492 306 95 
39 27 224 531 241 230 67 37 133 
382 400 419 249 277 19 264 184 369 
235 
type 1 532 int
1 1 1 2 1 1 1 1 1 
1 1 1 1 1 1 1 1 1 
1 1 1 1 1 1 1 1 2 
1 1 1 1 1 1 1 2 1 
1 1 1 1 1 1 1 1 1 
1 1 1 1 1 1 1 1 1 
1 1 1 1 1 1 2 1 1 
1 1 1 1 1 2 1 1 1 
1 1 1 1 1 1 1 1 1 
1 1 1 1 1 1 2 1 1 
1 1 1 1 1 1 1 2 1 
1 1 2 1 1 1 1 1 1 
1 1 1 1 1 1 1 1 1 
1 1 1 1 1 1 1 1 1 
1 1 1 1 2 1 1 1 1 
1 1 1 1 1 1 1 1 1 
2 1 1 1 1 1 1 1 1 
1 1 1 1 1 1 1 3 1 
1 2 1 1 1 1 1 1 1 
1 1 1 1 1 1 1 1 1 
1 1 1 1 1 1 1 1 1 
1 1 1 1 1 1 1 1 1 
1 1 1 1 1 1 1 1 1 
1 2 1 1 1 1 1 1 1 
1 1 1 1 1 1 1 1 1 
1 1 1 1 1 1 1 1 1 
1 1 1 1 1 1 1 1 1 
1 1 1 1 1 1 1 1 1 
1 1 1 1 1 1 1 1 1 
1 1 1 1 1 1 1 1 1 
1 1 1 1 1 1 1 1 1 
1 2 1 1 1 1 1 1 1 
1 1 1 1 1 1 1 1 1 
1 1 1 1 1 1 1 1 1 
1 1 1 1 1 1 1 1 1 
1 1 1 1 1 1 1 1 1 
1 1 1 1 1 1 1 1 1 
1 1 1 1 1 1 1 1 1 
1 1 1 1 1 1 1 1 1 
1 1 1 1 1 1 1 1 1 
4 1 1 1 1 1 1 1 1 
1 1 1 1 1 1 1 1 1 
1 1 1 1 1 1 1 1 1 
1 1 1 1 1 1 1 1 1 
1 1 1 1 1 1 1 1 1 
1 1 1 1 1 1 1 1 1 
1 1 1 1 1 2 1 1 1 
1 1 1 2 1 1 1 1 1 
1 1 1 1 1 1 1 1 1 
1 1 1 1 1 1 1 1 1 
1 1 1 1 1 1 1 1 1 
1 1 1 1 1 1 1 1 1 
1 1 1 1 1 1 1 1 1 
1 1 1 1 1 1 1 1 1 
1 1 1 1 1 1 1 1 1 
1 1 1 1 1 1 1 2 1 
1 1 1 1 1 1 1 1 1 
1 1 1 1 1 1 1 1 1 
1 1 1 1 1 1 1 1 1 
1 
i 3 532 int
0 0 0 0 0 0 0 0 0 
0 0 0 0 0 0 0 0 0 
0 0 0 0 0 0 0 0 0 
0 0 0 0 0 0 0 0 0 
0 0 0 0 0 0 0 0 0 
0 0 0 0 0 0 0 0 0 
0 0 0 0 0 0 0 0 0 
0 0 0 0 0 0 0 0 0 
0 0 0 0 0 0 0 0 0 
0 0 0 0 0 0 0 0 0 
0 0 0 0 0 0 0 0 0 
0 0 0 0 0 0 0 0 0 
0 0 0 0 0 0 0 0 0 
0 0 0 0 0 0 0 0 0 
0 0 0 0 0 0 0 0 0 
0 0 0 0 0 0 0 0 0 
0 0 0 0 0 0 0 0 0 
0 0 0 0 0 0 0 0 0 
0 0 0 0 0 0 0 0 0 
0 0 0 0 0 0 0 0 0 
0 0 0 0 0 0 0 0 0 
0 0 0 0 0 0 0 0 0 
0 0 0 0 0 0 0 0 0 
0 0 0 0 0 0 0 0 0 
0 0 0 0 0 0 0 0 0 
0 0 0 0 0 0 0 0 0 
0 0 0 0 0 0 0 0 0 
0 0 0 0 0 0 0 0 0 
0 0 0 0 0 0 0 0 0 
0 0 0 0 0 0 0 0 0 
0 0 0 0 0 0 0 0 0 
0 0 0 0 0 0 0 0 0 
0 0 0 0 0 0 0 0 0 
0 0 0 0 0 0 0 0 0 
0 0 0 0 0 0 0 0 0 
0 0 0 0 0 0 0 0 0 
0 0 0 0 0 0 0 0 0 
0 0 0 0 0 0 0 0 0 
0 0 0 0 0 0 0 0 0 
0 0 0 0 0 0 0 0 0 
0 0 0 0 0 0 0 0 0 
0 0 0 0 0 0 0 0 0 
0 0 0 0 0 0 0 0 0 
0 0 0 0 0 0 0 0 0 
0 0 0 0 0 0 0 0 0 
0 0 0 0 0 0 0 0 0 
0 0 0 0 0 0 0 0 0 
0 0 0 0 0 0 0 0 0 
0 0 0 0 0 0 0 0 0 
0 0 0 0 0 0 0 0 0 
0 0 0 0 0 0 0 0 0 
0 0 0 0 0 0 0 0 0 
0 0 0 0 0 0 0 0 0 
0 0 0 0 0 0 0 0 0 
0 0 0 0 0 0 0 0 0 
0 0 0 0 0 0 0 0 0 
0 0 0 0 0 0 0 0 0 
0 0 0 0 0 0 0 0 0 
0 0 0 0 0 0 0 0 0 
0 0 0 0 0 0 0 0 0 
0 0 0 0 0 0 0 0 0 
0 0 0 0 0 0 0 0 0 
0 0 0 0 0 0 0 0 0 
0 0 0 0 0 0 0 0 0 
0 0 0 0 0 0 0 0 0 
0 0 0 0 0 0 0 0 0 
0 0 0 0 0 0 0 0 0 
0 0 0 0 0 0 0 0 0 
0 0 0 0 0 0 0 0 0 
0 0 0 0 0 0 0 0 0 
0 0 0 0 0 0 0 0 0 
0 0 0 0 0 0 0 0 0 
0 0 0 0 0 0 0 0 0 
0 0 0 0 0 0 0 0 0 
0 0 0 0 0 0 0 0 0 
0 0 0 0 0 0 0 0 0 
0 0 0 0 0 0 0 0 0 
0 0 0 0 0 0 0 0 0 
0 0 0 0 0 0 0 0 0 
0 0 0 0 0 0 0 0 0 
0 0 0 0 0 0 0 0 0 
0 0 0 0 0 0 0 0 0 
0 0 0 0 0 0 0 0 0 
0 0 0 0 0 0 0 0 0 
0 0 0 0 0 0 0 0 0 
0 0 0 0 0 0 0 0 0 
0 0 0 0 0 0 0 0 0 
0 0 0 0 0 0 0 0 0 
0 0 0 0 0 0 0 0 0 
0 0 0 0 0 0 0 0 0 
0 0 0 0 0 0 0 0 0 
0 0 0 0 0 0 0 0 0 
0 0 0 0 0 0 0 0 0 
0 0 0 0 0 0 0 0 0 
0 0 0 0 0 0 0 0 0 
0 0 0 0 0 0 0 0 0 
0 0 0 0 0 0 0 0 0 
0 0 0 0 0 0 0 0 0 
0 0 0 0 0 0 0 0 0 
0 0 0 0 0 0 0 0 0 
0 0 0 0 0 0 0 0 0 
0 0 0 0 0 0 0 0 0 
0 0 0 0 0 0 0 0 0 
0 0 0 0 0 0 0 0 0 
0 0 0 0 0 0 0 0 0 
0 0 0 0 0 0 0 0 0 
0 0 0 0 0 0 0 0 0 
0 0 0 0 0 0 0 0 0 
0 0 0 0 0 0 0 0 0 
0 0 0 0 0 0 0 0 0 
0 0 0 0 0 0 0 0 0 
0 0 0 0 0 0 0 0 0 
0 0 0 0 0 0 0 0 0 
0 0 0 0 0 0 0 0 0 
0 0 0 0 0 0 0 0 0 
0 0 0 0 0 0 0 0 0 
0 0 0 0 0 0 0 0 0 
0 0 0 0 0 0 0 0 0 
0 0 0 0 0 0 0 0 0 
0 0 0 0 0 0 0 0 0 
0 0 0 0 0 0 0 0 0 
0 0 0 0 0 0 0 0 0 
0 0 0 0 0 0 0 0 0 
0 0 0 0 0 0 0 0 0 
0 0 0 0 0 0 0 0 0 
0 0 0 0 0 0 0 0 0 
0 0 0 0 0 0 0 0 0 
0 0 0 0 0 0 0 0 0 
0 0 0 0 0 0 0 0 0 
0 0 0 0 0 0 0 0 0 
0 0 0 0 0 0 0 0 0 
0 0 0 0 0 0 0 0 0 
0 0 0 0 0 0 0 0 0 
0 0 0 0 0 0 0 0 0 
0 0 0 0 0 0 0 0 0 
0 0 0 0 0 0 0 0 0 
0 0 0 0 0 0 0 0 0 
0 0 0 0 0 0 0 0 0 
0 0 0 0 0 0 0 0 0 
0 0 0 0 0 0 0 0 0 
0 0 0 0 0 0 0 0 0 
0 0 0 0 0 0 0 0 0 
0 0 0 0 0 0 0 0 0 
0 0 0 0 0 0 0 0 0 
0 0 0 0 0 0 0 0 0 
0 0 0 0 0 0 0 0 0 
0 0 0 0 0 0 0 0 0 
0 0 0 0 0 0 0 0 0 
0 0 0 0 0 0 0 0 0 
0 0 0 0 0 0 0 0 0 
0 0 0 0 0 0 0 0 0 
0 0 0 0 0 0 0 0 0 
0 0 0 0 0 0 0 0 0 
0 0 0 0 0 0 0 0 0 
0 0 0 0 0 0 0 0 0 
0 0 0 0 0 0 0 0 0 
0 0 0 0 0 0 0 0 0 
0 0 0 0 0 0 0 0 0 
0 0 0 0 0 0 0 0 0 
0 0 0 0 0 0 0 0 0 
0 0 0 0 0 0 0 0 0 
0 0 0 0 0 0 0 0 0 
0 0 0 0 0 0 0 0 0 
0 0 0 0 0 0 0 0 0 
0 0 0 0 0 0 0 0 0 
0 0 0 0 0 0 0 0 0 
0 0 0 0 0 0 0 0 0 
0 0 0 0 0 0 0 0 0 
0 0 0 0 0 0 0 0 0 
0 0 0 0 0 0 0 0 0 
0 0 0 0 0 0 0 0 0 
0 0 0 0 0 0 0 0 0 
0 0 0 0 0 0 0 0 0 
0 0 0 0 0 0 0 0 0 
0 0 0 0 0 0 0 0 0 
0 0 0 0 0 0 0 0 0 
0 0 0 0 0 0 0 0 0 
0 0 0 
v 3 532 double
0 0 -0.1179991875 0 0 -0.1179991875 0 0 -0.1179991875 
0 0 -0.1179991875 0 0 -0.1179991875 0 0 -0.1179991875 
0 0 -0.1179991875 0 0 -0.1179991875 0 0 -0.1179991875 
0 0 -0.1179991875 0 0 -0.1179991875 0 0 -0.1179991875 
0 0 -0.1179991875 0 0 -0.1179991875 0 0 -0.1179991875 
0 0 -0.1179991875 0 0 -0.1179991875 0 0 -0.1179991875 
0 0 -0.1179991875 0 0 -0.1179991875 0 0 -0.1179991875 
0 0 -0.1179991875 0 0 -0.1179991875 0 0 -0.1179991875 
0 0 -0.1179991875 0 0 -0.1179991875 0 0 -0.1179991875 
0 0 -0.1179991875 0 0 -0.1179991875 0 0 -0.1179991875 
0 0 -0.1179991875 0 0 -0.1179991875 0 0 -0.1179991875 
0 0 -0.1179991875 0 0 -0.1179991875 0 0 -0.1179991875 
0 0 -0.1179991875 0 0 -0.1179991875 0 0 -0.0627491875 
0 0 -0.1179991875 0 0 -0.1179991875 0 0 -0.1179991875 
0 0 -0.1179991875 0 0 -0.1179991875 0 0 -0.1179991875 
0 0 -0.1179991875 0 0 -0.1179991875 0 0 -0.1179991875 
0 0 -0.1179991875 0 0 -0.0627491875 0 0 -0.1179991875 
0 0 -0.1179991875 0 0 -0.1179991875 0 0 -0.1179991875 
0 0 -0.1179991875 0 0 -0.1179991875 0 0 -0.1179991875 
0 0 -0.1179991875 0 0 -0.1179991875 0 0 -0.0302491875 
0 0 -0.1179991875 0 0 -0.1179991875 0 0 -0.1179991875 
0 0 -0.1179991875 0 0 -0.1179991875 0 0 -0.1179991875 
0 0 -0.1179991875 0 0 -0.1179991875 0 0 -0.1179991875 
0 0 -0.1179991875 0 0 -0.1179991875 0 0 -0.1179991875 
0 0 -0.1179991875 0 0 -0.1179991875 0 0 -0.1179991875 
0 0 -0.1179991875 0 0 -0.1179991875 0 0 -0.1179991875 
0 0 -0.1179991875 0 0 -0.1179991875 0 0 -0.1179991875 
0 0 -0.0139991875 0 0 -0.1179991875 0 0 -0.1179991875 
0 0 -0.1179991875 0 0 -0.1179991875 0 0 -0.1179991875 
0 0 -0.1179991875 0 0 -0.0432491875 0 0 -0.1179991875 
0 0 -0.1179991875 0 0 -0.1179991875 0 0 -0.1179991875 
0 0 -0.1179991875 0 0 -0.1179991875 0 0 -0.1179991875 
0 0 -0.1179991875 0 0 -0.1179991875 0 0 -0.1179991875 
0 0 -0.1179991875 0 0 -0.1179991875 0 0 -0.1179991875 
0 0 -0.1179991875 0 0 -0.1179991875 0 0 -0.1179991875 
0 0 -0.1179991875 0 0 -0.1179991875 0 0 -0.1179991875 
0 0 -0.1179991875 0 0 -0.1179991875 0 0 -0.1179991875 
0 0 -0.1179991875 0 0 -0.1179991875 0 0 -0.1179991875 
0 0 -0.1179991875 0 0 -0.1179991875 0 0 -0.0822491875 
0 0 -0.1179991875 0 0 -0.1179991875 0 0 -0.1179991875 
0 0 -0.1179991875 0 0 -0.1179991875 0 0 -0.1179991875 
0 0 -0.1179991875 0 0 -0.1179991875 0 0 -0.1179991875 
0 0 -0.1179991875 0 0 -0.1179991875 0 0 -0.1179991875 
0 0 -0.1179991875 0 0 -0.1179991875 0 0 -0.1179991875 
0 0 -0.1179991875 0 0 -0.1179991875 0 0 -0.1179991875 
0 0 -0.1179991875 0 0 -0.1179991875 0 0 -0.1179991875 
0 0 -0.1179991875 0 0 -0.1179991875 0 0 -0.1179991875 
0 0 -0.1179991875 0 0 -0.1179991875 0 0 -0.1179991875 
0 0 -0.1179991875 0 0 -0.1179991875 0 0 -0.1179991875 
0 0 -0.1179991875 0 0 -0.1179991875 0 0 -0.1179991875 
0 0 -0.1179991875 0 0 -0.1179991875 0 0 -0.1179991875 
0 0 -0.1179991875 0 0 -0.1179991875 0 0 -0.1179991875 
0 0 -0.1179991875 0 0 -0.1179991875 0 0 -0.1179991875 
0 0 -0.1179991875 0 0 -0.1179991875 0 0 -0.1179991875 
0 0 -0.1179991875 0 0 -0.1179991875 0 0 -0.1179991875 
0 0 -0.1179991875 0 0 -0.1179991875 0 0 -0.1179991875 
0 0 -0.1179991875 0 0 -0.1179991875 0 0 -0.1179991875 
0 0 -0.1179991875 0 0 -0.1179991875 0 0 -0.1179991875 
0 0 -0.1179991875 0 0 -0.1179991875 0 0 -0.1179991875 
0 0 -0.1179991875 0 0 -0.1179991875 0 0 -0.1179991875 
0 0 -0.1179991875 0 0 -0.1179991875 0 0 -0.1179991875 
0 0 -0.1179991875 0 0 -0.1179991875 0 0 -0.1179991875 
0 0 -0.1179991875 0 0 -0.1179991875 0 0 -0.0172491875 
0 0 -0.1179991875 0 0 -0.1179991875 0 0 -0.1179991875 
0 0 -0.1179991875 0 0 -0.1179991875 0 0 -0.1179991875 
0 0 -0.0334991875 0 0 -0.0854991875 0 0 -0.1179991875 
0 0 -0.1179991875 0 0 -0.1179991875 0 0 -0.1179991875 
0 0 -0.1179991875 0 0 -0.1179991875 0 0 -0.1179991875 
0 0 -0.1179991875 0 0 -0.0334991875 0 0 -0.1179991875 
0 0 -0.1179991875 0 0 -0.1179991875 0 0 -0.1179991875 
0 0 -0.1179991875 0 0 -0.1179991875 0 0 -0.1179991875 
0 0 -0.1179991875 0 0 -0.1179991875 0 0 -0.1179991875 
0 0 -0.1179991875 0 0 -0.1179991875 0 0 -0.1179991875 
0 0 -0.1179991875 0 0 -0.1179991875 0 0 -0.1179991875 
0 0 -0.1179991875 0 0 -0.1179991875 0 0 -0.1179991875 
0 0 -0.1179991875 0 0 -0.1179991875 0 0 -0.1179991875 
0 0 -0.1179991875 0 0 -0.0302491875 0 0 -0.1179991875 
0 0 -0.1179991875 0 0 -0.1179991875 0 0 -0.1179991875 
0 0 -0.1179991875 0 0 -0.1179991875 0 0 -0.1179991875 
0 0 -0.1179991875 0 0 -0.1179991875 0 0 -0.1179991875 
0 0 -0.1179991875 0 0 -0.1179991875 0 0 -0.0139991875 
0 0 -0.1179991875 0 0 -0.1179991875 0 0 -0.1179991875 
0 0 -0.1179991875 0 0 -0.1179991875 0 0 -0.1179991875 
0 0 -0.1179991875 0 0 -0.1179991875 0 0 -0.1179991875 
0 0 -0.1179991875 0 0 -0.1179991875 0 0 -0.1179991875 
0 0 -0.1179991875 0 0 -0.1179991875 0 0 -0.1179991875 
0 0 -0.1179991875 0 0 -0.1179991875 0 0 -0.1179991875 
0 0 -0.1179991875 0 0 -0.1179991875 0 0 -0.1179991875 
0 0 -0.1179991875 0 0 -0.1179991875 0 0 -0.1179991875 
0 0 -0.1179991875 0 0 -0.0562491875 0 0 -0.1179991875 
0 0 -0.1179991875 0 0 -0.1179991875 0 0 -0.1179991875 
0 0 -0.1179991875 0 0 -0.0627491875 0 0 -0.1179991875 
0 0 -0.1179991875 0 0 -0.1179991875 0 0 -0.1179991875 
0 0 -0.1179991875 0 0 -0.0399991875 0 0 -0.1179991875 
0 0 -0.1179991875 0 0 -0.1179991875 0 0 -0.1179991875 
0 0 -0.1179991875 0 0 -0.1179991875 0 0 -0.1179991875 
0 0 -0.1179991875 0 0 -0.0269991875 0 0 -0.1179991875 
0 0 -0.1179991875 0 0 -0.1179991875 0 0 -0.0042491875 
0 0 -0.1179991875 0 0 -0.1179991875 0 0 -0.1179991875 
0 0 -0.1179991875 0 0 -0.1179991875 0 0 -0.1179991875 
0 0 -0.1179991875 0 0 -0.1179991875 0 0 -0.1179991875 
0 0 -0.1179991875 0 0 -0.1179991875 0 0 -0.1179991875 
0 0 -0.1179991875 0 0 -0.1179991875 0 0 -0.1179991875 
0 0 -0.1179991875 0 0 -0.1179991875 0 0 -0.0562491875 
0 0 -0.0269991875 0 0 -0.1179991875 0 0 -0.1179991875 
0 0 -0.1179991875 0 0 -0.1179991875 0 0 -0.1179991875 
0 0 -0.1179991875 0 0 -0.1179991875 0 0 -0.1179991875 
0 0 -0.1179991875 0 0 -0.1179991875 0 0 -0.1179991875 
0 0 -0.1179991875 0 0 -0.1179991875 0 0 -0.1179991875 
0 0 -0.1179991875 0 0 -0.1179991875 0 0 -0.1179991875 
0 0 -0.0172491875 0 0 -0.1179991875 0 0 -0.1179991875 
0 0 -0.1179991875 0 0 -0.1179991875 0 0 -0.1179991875 
0 0 -0.1179991875 0 0 -0.1179991875 0 0 -0.1179991875 
0 0 -0.1179991875 0 0 -0.1179991875 0 0 -0.1179991875 
0 0 -0.0204991875 0 0 -0.1179991875 0 0 -0.1179991875 
0 0 -0.1179991875 0 0 -0.1179991875 0 0 -0.1179991875 
0 0 -0.1179991875 0 0 -0.1179991875 0 0 -0.1179991875 
0 0 -0.1179991875 0 0 -0.1179991875 0 0 -0.1179991875 
0 0 -0.1179991875 0 0 -0.0399991875 0 0 -0.1179991875 
0 0 -0.1179991875 0 0 -0.1179991875 0 0 -0.1179991875 
0 0 -0.1179991875 0 0 -0.1179991875 0 0 -0.1179991875 
0 0 -0.1179991875 0 0 -0.1179991875 0 0 -0.1179991875 
0 0 -0.1179991875 0 0 -0.1179991875 0 0 -0.1179991875 
0 0 -0.1179991875 0 0 -0.1179991875 0 0 -0.1179991875 
0 0 -0.1179991875 0 0 -0.1179991875 0 0 -0.1179991875 
0 0 -0.1179991875 0 0 -0.1179991875 0 0 -0.1179991875 
0 0 -0.1179991875 0 0 -0.1179991875 0 0 -0.1179991875 
0 0 -0.1179991875 0 0 -0.1179991875 0 0 -0.0399991875 
0 0 -0.1179991875 0 0 -0.1179991875 0 0 -0.1179991875 
0 0 -0.1179991875 0 0 -0.1179991875 0 0 -0.1179991875 
0 0 -0.1179991875 0 0 -0.1179991875 0 0 -0.1179991875 
0 0 -0.1179991875 0 0 -0.1179991875 0 0 -0.1179991875 
0 0 -0.1179991875 0 0 -0.1179991875 0 0 -0.1179991875 
0 0 -0.1179991875 0 0 -0.1179991875 0 0 -0.1179991875 
0 0 -0.1179991875 0 0 -0.1179991875 0 0 -0.1179991875 
0 0 -0.0074991875 0 0 -0.1179991875 0 0 -0.1179991875 
0 0 -0.0984991875 0 0 -0.1179991875 0 0 -0.1179991875 
0 0 -0.1179991875 0 0 -0.1179991875 0 0 -0.1179991875 
0 0 -0.1179991875 0 0 -0.1179991875 0 0 -0.1179991875 
0 0 -0.0497491875 0 0 -0.1179991875 0 0 -0.1179991875 
0 0 -0.1049991875 0 0 -0.1179991875 0 0 -0.1179991875 
0 0 -0.1179991875 0 0 -0.1179991875 0 0 -0.1179991875 
0 0 -0.1179991875 0 0 -0.1179991875 0 0 -0.1179991875 
0 0 -0.1179991875 0 0 -0.1179991875 0 0 -0.1179991875 
0 0 -0.1179991875 0 0 -0.1179991875 0 0 -0.1179991875 
0 0 -0.1179991875 0 0 -0.1179991875 0 0 -0.1179991875 
0 0 -0.1179991875 0 0 -0.1179991875 0 0 -0.1179991875 
0 0 -0.1179991875 0 0 -0.1179991875 0 0 -0.1179991875 
0 0 -0.1179991875 0 0 -0.1179991875 0 0 -0.1179991875 
0 0 -0.1179991875 0 0 -0.1179991875 0 0 -0.1179991875 
0 0 -0.1179991875 0 0 -0.1179991875 0 0 -0.1179991875 
0 0 -0.1179991875 0 0 -0.1179991875 0 0 -0.1179991875 
0 0 -0.1179991875 0 0 -0.1179991875 0 0 -0.1179991875 
0 0 -0.1049991875 0 0 -0.1179991875 0 0 -0.1179991875 
0 0 -0.1179991875 0 0 -0.0497491875 0 0 -0.1179991875 
0 0 -0.1179991875 0 0 -0.1179991875 0 0 -0.1179991875 
0 0 -0.1179991875 0 0 -0.1179991875 0 0 -0.1179991875 
0 0 -0.1179991875 0 0 -0.1179991875 0 0 -0.1179991875 
0 0 -0.1179991875 0 0 -0.1179991875 0 0 -0.1179991875 
0 0 -0.1179991875 0 0 -0.1179991875 0 0 -0.1179991875 
0 0 -0.1179991875 0 0 -0.1179991875 0 0 -0.1179991875 
0 0 -0.1179991875 0 0 -0.1179991875 0 0 -0.1179991875 
0 0 -0.1179991875 0 0 -0.1179991875 0 0 -0.1179991875 
0 0 -0.1179991875 0 0 -0.1179991875 0 0 -0.1179991875 
0 0 -0.1179991875 0 0 -0.1179991875 0 0 -0.1179991875 
0 0 -0.1179991875 0 0 -0.1179991875 0 0 -0.1179991875 
0 0 -0.1179991875 0 0 -0.1179991875 0 0 -0.1179991875 
0 0 -0.1179991875 0 0 -0.0497491875 0 0 -0.0562491875 
0 0 -0.1179991875 0 0 -0.1179991875 0 0 -0.1179991875 
0 0 -0.1179991875 0 0 -0.1179991875 0 0 -0.1179991875 
0 0 -0.1179991875 0 0 -0.1179991875 0 0 -0.1179991875 
0 0 -0.1179991875 0 0 -0.1179991875 0 0 -0.1179991875 
0 0 -0.0074991875 0 0 -0.1179991875 0 0 -0.1179991875 
0 0 -0.1179991875 0 0 -0.1179991875 0 0 -0.1179991875 
0 0 -0.1179991875 0 0 -0.1179991875 0 0 -0.1179991875 
0 0 -0.1179991875 0 0 -0.1179991875 0 0 -0.1179991875 
0 0 -0.1179991875 0 0 -0.1179991875 0 0 -0.1179991875 
0 0 -0.1179991875 
f 3 532 double
0 0 -1.7425367252e-10 0 0 -1.7425367252e-10 0 0 -1.7425367252e-10 
0 0 -8.9019973083e-09 0 0 -1.7425367252e-10 0 0 -1.7425367252e-10 
0 0 -1.7425367252e-10 0 0 -1.7425367252e-10 0 0 -1.7425367252e-10 
0 0 -1.7425367252e-10 0 0 -1.7425367252e-10 0 0 -1.7425367252e-10 
0 0 -1.7425367252e-10 0 0 -1.7425367252e-10 0 0 -1.7425367252e-10 
0 0 -1.7425367252e-10 0 0 -1.7425367252e-10 0 0 -1.7425367252e-10 
0 0 -1.7425367252e-10 0 0 -1.7425367252e-10 0 0 -1.7425367252e-10 
0 0 -1.7425367252e-10 0 0 -1.7425367252e-10 0 0 -1.7425367252e-10 
0 0 -1.7425367252e-10 0 0 -1.7425367252e-10 0 0 -8.9019973083e-09 
0 0 -1.7425367252e-10 0 0 -1.7425367252e-10 0 0 -1.7425367252e-10 
0 0 -1.7425367252e-10 0 0 -1.7425367252e-10 0 0 -1.7425367252e-10 
0 0 -1.7425367252e-10 0 0 -8.9019973083e-09 0 0 -1.7425367252e-10 
0 0 -1.7425367252e-10 0 0 -1.7425367252e-10 0 0 -1.7425367252e-10 
0 0 -1.7425367252e-10 0 0 -1.7425367252e-10 0 0 -1.7425367252e-10 
0 0 -1.7425367252e-10 0 0 -1.7425367252e-10 0 0 -1.7425367252e-10 
0 0 -1.7425367252e-10 0 0 -1.7425367252e-10 0 0 -1.7425367252e-10 
0 0 -1.7425367252e-10 0 0 -1.7425367252e-10 0 0 -1.7425367252e-10 
0 0 -1.7425367252e-10 0 0 -1.7425367252e-10 0 0 -1.7425367252e-10 
0 0 -1.7425367252e-10 0 0 -1.7425367252e-10 0 0 -1.7425367252e-10 
0 0 -1.7425367252e-10 0 0 -1.7425367252e-10 0 0 -1.7425367252e-10 
0 0 -8.9019973083e-09 0 0 -1.7425367252e-10 0 0 -1.7425367252e-10 
0 0 -1.7425367252e-10 0 0 -1.7425367252e-10 0 0 -1.7425367252e-10 
0 0 -1.7425367252e-10 0 0 -1.7425367252e-10 0 0 -8.9019973083e-09 
0 0 -1.7425367252e-10 0 0 -1.7425367252e-10 0 0 -1.7425367252e-10 
0 0 -1.7425367252e-10 0 0 -1.7425367252e-10 0 0 -1.7425367252e-10 
0 0 -1.7425367252e-10 0 0 -1.7425367252e-10 0 0 -1.7425367252e-10 
0 0 -1.7425367252e-10 0 0 -1.7425367252e-10 0 0 -1.7425367252e-10 
0 0 -1.7425367252e-10 0 0 -1.7425367252e-10 0 0 -1.7425367252e-10 
0 0 -1.7425367252e-10 0 0 -1.7425367252e-10 0 0 -1.7425367252e-10 
0 0 -8.9019973083e-09 0 0 -1.7425367252e-10 0 0 -1.7425367252e-10 
0 0 -1.7425367252e-10 0 0 -1.7425367252e-10 0 0 -1.7425367252e-10 
0 0 -1.7425367252e-10 0 0 -1.7425367252e-10 0 0 -1.7425367252e-10 
0 0 -1.7425367252e-10 0 0 -8.9019973083e-09 0 0 -1.7425367252e-10 
0 0 -1.7425367252e-10 0 0 -1.7425367252e-10 0 0 -8.9019973083e-09 
0 0 -1.7425367252e-10 0 0 -1.7425367252e-10 0 0 -1.7425367252e-10 
0 0 -1.7425367252e-10 0 0 -1.7425367252e-10 0 0 -1.7425367252e-10 
0 0 -1.7425367252e-10 0 0 -1.7425367252e-10 0 0 -1.7425367252e-10 
0 0 -1.7425367252e-10 0 0 -1.7425367252e-10 0 0 -1.7425367252e-10 
0 0 -1.7425367252e-10 0 0 -1.7425367252e-10 0 0 -1.7425367252e-10 
0 0 -1.7425367252e-10 0 0 -1.7425367252e-10 0 0 -1.7425367252e-10 
0 0 -1.7425367252e-10 0 0 -1.7425367252e-10 0 0 -1.7425367252e-10 
0 0 -1.7425367252e-10 0 0 -1.7425367252e-10 0 0 -1.7425367252e-10 
0 0 -1.7425367252e-10 0 0 -1.7425367252e-10 0 0 -1.7425367252e-10 
0 0 -1.7425367252e-10 0 0 -8.9019973083e-09 0 0 -1.7425367252e-10 
0 0 -1.7425367252e-10 0 0 -1.7425367252e-10 0 0 -1.7425367252e-10 
0 0 -1.7425367252e-10 0 0 -1.7425367252e-10 0 0 -1.7425367252e-10 
0 0 -1.7425367252e-10 0 0 -1.7425367252e-10 0 0 -1.7425367252e-10 
0 0 -1.7425367252e-10 0 0 -1.7425367252e-10 0 0 -1.7425367252e-10 
0 0 -8.9019973083e-09 0 0 -1.7425367252e-10 0 0 -1.7425367252e-10 
0 0 -1.7425367252e-10 0 0 -1.7425367252e-10 0 0 -1.7425367252e-10 
0 0 -1.7425367252e-10 0 0 -1.7425367252e-10 0 0 -1.7425367252e-10 
0 0 -1.7425367252e-10 0 0 -1.7425367252e-10 0 0 -1.7425367252e-10 
0 0 -1.7425367252e-10 0 0 -1.7425367252e-10 0 0 -1.7425367252e-10 
0 0 -1.7425367252e-10 0 0 -6.8918688838e-08 0 0 -1.7425367252e-10 
0 0 -1.7425367252e-10 0 0 -8.9019973083e-09 0 0 -1.7425367252e-10 
0 0 -1.7425367252e-10 0 0 -1.7425367252e-10 0 0 -1.7425367252e-10 
0 0 -1.7425367252e-10 0 0 -1.7425367252e-10 0 0 -1.7425367252e-10 
0 0 -1.7425367252e-10 0 0 -1.7425367252e-10 0 0 -1.7425367252e-10 
0 0 -1.7425367252e-10 0 0 -1.7425367252e-10 0 0 -1.7425367252e-10 
0 0 -1.7425367252e-10 0 0 -1.7425367252e-10 0 0 -1.7425367252e-10 
0 0 -1.7425367252e-10 0 0 -1.7425367252e-10 0 0 -1.7425367252e-10 
0 0 -1.7425367252e-10 0 0 -1.7425367252e-10 0 0 -1.7425367252e-10 
0 0 -1.7425367252e-10 0 0 -1.7425367252e-10 0 0 -1.7425367252e-10 
0 0 -1.7425367252e-10 0 0 -1.7425367252e-10 0 0 -1.7425367252e-10 
0 0 -1.7425367252e-10 0 0 -1.7425367252e-10 0 0 -1.7425367252e-10 
0 0 -1.7425367252e-10 0 0 -1.7425367252e-10 0 0 -1.7425367252e-10 
0 0 -1.7425367252e-10 0 0 -1.7425367252e-10 0 0 -1.7425367252e-10 
0 0 -1.7425367252e-10 0 0 -1.7425367252e-10 0 0 -1.7425367252e-10 
0 0 -1.7425367252e-10 0 0 -1.7425367252e-10 0 0 -1.7425367252e-10 
0 0 -1.7425367252e-10 0 0 -8.9019973083e-09 0 0 -1.7425367252e-10 
0 0 -1.7425367252e-10 0 0 -1.7425367252e-10 0 0 -1.7425367252e-10 
0 0 -1.7425367252e-10 0 0 -1.7425367252e-10 0 0 -1.7425367252e-10 
0 0 -1.7425367252e-10 0 0 -1.7425367252e-10 0 0 -1.7425367252e-10 
0 0 -1.7425367252e-10 0 0 -1.7425367252e-10 0 0 -1.7425367252e-10 
0 0 -1.7425367252e-10 0 0 -1.7425367252e-10 0 0 -1.7425367252e-10 
0 0 -1.7425367252e-10 0 0 -1.7425367252e-10 0 0 -1.7425367252e-10 
0 0 -1.7425367252e-10 0 0 -1.7425367252e-10 0 0 -1.7425367252e-10 
0 0 -1.7425367252e-10 0 0 -1.7425367252e-10 0 0 -1.7425367252e-10 
0 0 -1.7425367252e-10 0 0 -1.7425367252e-10 0 0 -1.7425367252e-10 
0 0 -1.7425367252e-10 0 0 -1.7425367252e-10 0 0 -1.7425367252e-10 
0 0 -1.7425367252e-10 0 0 -1.7425367252e-10 0 0 -1.7425367252e-10 
0 0 -1.7425367252e-10 0 0 -1.7425367252e-10 0 0 -1.7425367252e-10 
0 0 -1.7425367252e-10 0 0 -1.7425367252e-10 0 0 -1.7425367252e-10 
0 0 -1.7425367252e-10 0 0 -1.7425367252e-10 0 0 -1.7425367252e-10 
0 0 -1.7425367252e-10 0 0 -1.7425367252e-10 0 0 -1.7425367252e-10 
0 0 -1.7425367252e-10 0 0 -1.7425367252e-10 0 0 -1.7425367252e-10 
0 0 -1.7425367252e-10 0 0 -1.7425367252e-10 0 0 -1.7425367252e-10 
0 0 -1.7425367252e-10 0 0 -1.7425367252e-10 0 0 -1.7425367252e-10 
0 0 -1.7425367252e-10 0 0 -1.7425367252e-10 0 0 -1.7425367252e-10 
0 0 -1.7425367252e-10 0 0 -1.7425367252e-10 0 0 -1.7425367252e-10 
0 0 -1.7425367252e-10 0 0 -1.7425367252e-10 0 0 -1.7425367252e-10 
0 0 -1.7425367252e-10 0 0 -1.7425367252e-10 0 0 -1.7425367252e-10 
0 0 -1.7425367252e-10 0 0 -1.7425367252e-10 0 0 -1.7425367252e-10 
0 0 -1.7425367252e-10 0 0 -8.9019973083e-09 0 0 -1.7425367252e-10 
0 0 -1.7425367252e-10 0 0 -1.7425367252e-10 0 0 -1.7425367252e-10 
0 0 -1.7425367252e-10 0 0 -1.7425367252e-10 0 0 -1.7425367252e-10 
0 0 -1.7425367252e-10 0 0 -1.7425367252e-10 0 0 -1.7425367252e-10 
0 0 -1.7425367252e-10 0 0 -1.7425367252e-10 0 0 -1.7425367252e-10 
0 0 -1.7425367252e-10 0 0 -1.7425367252e-10 0 0 -1.7425367252e-10 
0 0 -1.7425367252e-10 0 0 -1.7425367252e-10 0 0 -1.7425367252e-10 
0 0 -1.7425367252e-10 0 0 -1.7425367252e-10 0 0 -1.7425367252e-10 
0 0 -1.7425367252e-10 0 0 -1.7425367252e-10 0 0 -1.7425367252e-10 
0 0 -1.7425367252e-10 0 0 -1.7425367252e-10 0 0 -1.7425367252e-10 
0 0 -1.7425367252e-10 0 0 -1.7425367252e-10 0 0 -1.7425367252e-10 
0 0 -1.7425367252e-10 0 0 -1.7425367252e-10 0 0 -1.7425367252e-10 
0 0 -1.7425367252e-10 0 0 -1.7425367252e-10 0 0 -1.7425367252e-10 
0 0 -1.7425367252e-10 0 0 -1.7425367252e-10 0 0 -1.7425367252e-10 
0 0 -1.7425367252e-10 0 0 -1.7425367252e-10 0 0 -1.7425367252e-10 
0 0 -1.7425367252e-10 0 0 -1.7425367252e-10 0 0 -1.7425367252e-10 
0 0 -1.7425367252e-10 0 0 -1.7425367252e-10 0 0 -1.7425367252e-10 
0 0 -1.7425367252e-10 0 0 -1.7425367252e-10 0 0 -1.7425367252e-10 
0 0 -1.7425367252e-10 0 0 -1.7425367252e-10 0 0 -1.7425367252e-10 
0 0 -1.7425367252e-10 0 0 -1.7425367252e-10 0 0 -1.7425367252e-10 
0 0 -1.7425367252e-10 0 0 -1.7425367252e-10 0 0 -1.7425367252e-10 
0 0 -1.7425367252e-10 0 0 -1.7425367252e-10 0 0 -1.7425367252e-10 
0 0 -1.7425367252e-10 0 0 -1.7425367252e-10 0 0 -1.7425367252e-10 
0 0 -1.7425367252e-10 0 0 -1.7425367252e-10 0 0 -1.7425367252e-10 
0 0 -1.7425367252e-10 0 0 -1.7425367252e-10 0 0 -1.7425367252e-10 
0 0 -1.7425367252e-10 0 0 -1.7425367252e-10 0 0 -1.7425367252e-10 
0 0 -1.7425367252e-10 0 0 -1.7425367252e-10 0 0 -1.7425367252e-10 
0 0 -5.3297119368e-07 0 0 -1.7425367252e-10 0 0 -1.7425367252e-10 
0 0 -1.7425367252e-10 0 0 -1.7425367252e-10 0 0 -1.7425367252e-10 
0 0 -1.7425367252e-10 0 0 -1.7425367252e-10 0 0 -1.7425367252e-10 
0 0 -1.7425367252e-10 0 0 -1.7425367252e-10 0 0 -1.7425367252e-10 
0 0 -1.7425367252e-10 0 0 -1.7425367252e-10 0 0 -1.7425367252e-10 
0 0 -1.7425367252e-10 0 0 -1.7425367252e-10 0 0 -1.7425367252e-10 
0 0 -1.7425367252e-10 0 0 -1.7425367252e-10 0 0 -1.7425367252e-10 
0 0 -1.7425367252e-10 0 0 -1.7425367252e-10 0 0 -1.7425367252e-10 
0 0 -1.7425367252e-10 0 0 -1.7425367252e-10 0 0 -1.7425367252e-10 
0 0 -1.7425367252e-10 0 0 -1.7425367252e-10 0 0 -1.7425367252e-10 
0 0 -1.7425367252e-10 0 0 -1.7425367252e-10 0 0 -1.7425367252e-10 
0 0 -1.7425367252e-10 0 0 -1.7425367252e-10 0 0 -1.7425367252e-10 
0 0 -1.7425367252e-10 0 0 -1.7425367252e-10 0 0 -1.7425367252e-10 
0 0 -1.7425367252e-10 0 0 -1.7425367252e-10 0 0 -1.7425367252e-10 
0 0 -1.7425367252e-10 0 0 -1.7425367252e-10 0 0 -1.7425367252e-10 
0 0 -1.7425367252e-10 0 0 -1.7425367252e-10 0 0 -1.7425367252e-10 
0 0 -1.7425367252e-10 0 0 -1.7425367252e-10 0 0 -1.7425367252e-10 
0 0 -1.7425367252e-10 0 0 -1.7425367252e-10 0 0 -1.7425367252e-10 
0 0 -1.7425367252e-10 0 0 -1.7425367252e-10 0 0 -1.7425367252e-10 
0 0 -1.7425367252e-10 0 0 -1.7425367252e-10 0 0 -8.9019973083e-09 
0 0 -1.7425367252e-10 0 0 -1.7425367252e-10 0 0 -1.7425367252e-10 
0 0 -1.7425367252e-10 0 0 -1.7425367252e-10 0 0 -1.7425367252e-10 
0 0 -8.9019973083e-09 0 0 -1.7425367252e-10 0 0 -1.7425367252e-10 
0 0 -1.7425367252e-10 0 0 -1.7425367252e-10 0 0 -1.7425367252e-10 
0 0 -1.7425367252e-10 0 0 -1.7425367252e-10 0 0 -1.7425367252e-10 
0 0 -1.7425367252e-10 0 0 -1.7425367252e-10 0 0 -1.7425367252e-10 
0 0 -1.7425367252e-10 0 0 -1.7425367252e-10 0 0 -1.7425367252e-10 
0 0 -1.7425367252e-10 0 0 -1.7425367252e-10 0 0 -1.7425367252e-10 
0 0 -1.7425367252e-10 0 0 -1.7425367252e-10 0 0 -1.7425367252e-10 
0 0 -1.7425367252e-10 0 0 -1.7425367252e-10 0 0 -1.7425367252e-10 
0 0 -1.7425367252e-10 0 0 -1.7425367252e-10 0 0 -1.7425367252e-10 
0 0 -1.7425367252e-10 0 0 -1.7425367252e-10 0 0 -1.7425367252e-10 
0 0 -1.7425367252e-10 0 0 -1.7425367252e-10 0 0 -1.7425367252e-10 
0 0 -1.7425367252e-10 0 0 -1.7425367252e-10 0 0 -1.7425367252e-10 
0 0 -1.7425367252e-10 0 0 -1.7425367252e-10 0 0 -1.7425367252e-10 
0 0 -1.7425367252e-10 0 0 -1.7425367252e-10 0 0 -1.7425367252e-10 
0 0 -1.7425367252e-10 0 0 -1.7425367252e-10 0 0 -1.7425367252e-10 
0 0 -1.7425367252e-10 0 0 -1.7425367252e-10 0 0 -1.7425367252e-10 
0 0 -1.7425367252e-10 0 0 -1.7425367252e-10 0 0 -1.7425367252e-10 
0 0 -1.7425367252e-10 0 0 -1.7425367252e-10 0 0 -1.7425367252e-10 
0 0 -1.7425367252e-10 0 0 -1.7425367252e-10 0 0 -1.7425367252e-10 
0 0 -1.7425367252e-10 0 0 -1.7425367252e-10 0 0 -1.7425367252e-10 
0 0 -1.7425367252e-10 0 0 -1.7425367252e-10 0 0 -1.7425367252e-10 
0 0 -1.7425367252e-10 0 0 -1.7425367252e-10 0 0 -1.7425367252e-10 
0 0 -1.7425367252e-10 0 0 -1.7425367252e-10 0 0 -1.7425367252e-10 
0 0 -1.7425367252e-10 0 0 -1.7425367252e-10 0 0 -1.7425367252e-10 
0 0 -1.7425367252e-10 0 0 -1.7425367252e-10 0 0 -1.7425367252e-10 
0 0 -1.7425367252e-10 0 0 -8.9019973083e-09 0 0 -1.7425367252e-10 
0 0 -1.7425367252e-10 0 0 -1.7425367252e-10 0 0 -1.7425367252e-10 
0 0 -1.7425367252e-10 0 0 -1.7425367252e-10 0 0 -1.7425367252e-10 
0 0 -1.7425367252e-10 0 0 -1.7425367252e-10 0 0 -1.7425367252e-10 
0 0 -1.7425367252e-10 0 0 -1.7425367252e-10 0 0 -1.7425367252e-10 
0 0 -1.7425367252e-10 0 0 -1.7425367252e-10 0 0 -1.7425367252e-10 
0 0 -1.7425367252e-10 0 0 -1.7425367252e-10 0 0 -1.7425367252e-10 
0 0 -1.7425367252e-10 0 0 -1.7425367252e-10 0 0 -1.7425367252e-10 
0 0 -1.7425367252e-10 0 0 -1.7425367252e-10 0 0 -1.7425367252e-10 
0 0 -1.7425367252e-10 0 0 -1.7425367252e-10 0 0 -1.7425367252e-10 
0 0 -1.7425367252e-10 
radius 1 532 double
2e-05 2e-05 2e-05 7.5e-05 2e-05 2e-05 2e-05 2e-05 2e-05 
2e-05 2e-05 2e-05 2e-05 2e-05 2e-05 2e-05 2e-05 2e-05 
2e-05 2e-05 2e-05 2e-05 2e-05 2e-05 2e-05 2e-05 7.5e-05 
2e-05 2e-05 2e-05 2e-05 2e-05 2e-05 2e-05 7.5e-05 2e-05 
2e-05 2e-05 2e-05 2e-05 2e-05 2e-05 2e-05 2e-05 2e-05 
2e-05 2e-05 2e-05 2e-05 2e-05 2e-05 2e-05 2e-05 2e-05 
2e-05 2e-05 2e-05 2e-05 2e-05 2e-05 7.5e-05 2e-05 2e-05 
2e-05 2e-05 2e-05 2e-05 2e-05 7.5e-05 2e-05 2e-05 2e-05 
2e-05 2e-05 2e-05 2e-05 2e-05 2e-05 2e-05 2e-05 2e-05 
2e-05 2e-05 2e-05 2e-05 2e-05 2e-05 7.5e-05 2e-05 2e-05 
2e-05 2e-05 2e-05 2e-05 2e-05 2e-05 2e-05 7.5e-05 2e-05 
2e-05 2e-05 7.5e-05 2e-05 2e-05 2e-05 2e-05 2e-05 2e-05 
2e-05 2e-05 2e-05 2e-05 2e-05 2e-05 2e-05 2e-05 2e-05 
2e-05 2e-05 2e-05 2e-05 2e-05 2e-05 2e-05 2e-05 2e-05 
2e-05 2e-05 2e-05 2e-05 7.5e-05 2e-05 2e-05 2e-05 2e-05 
2e-05 2e-05 2e-05 2e-05 2e-05 2e-05 2e-05 2e-05 2e-05 
7.5e-05 2e-05 2e-05 2e-05 2e-05 2e-05 2e-05 2e-05 2e-05 
2e-05 2e-05 2e-05 2e-05 2e-05 2e-05 2e-05 0.00015 2e-05 
2e-05 7.5e-05 2e-05 2e-05 2e-05 2e-05 2e-05 2e-05 2e-05 
2e-05 2e-05 2e-05 2e-05 2e-05 2e-05 2e-05 2e-05 2e-05 
2e-05 2e-05 2e-05 2e-05 2e-05 2e-05 2e-05 2e-05 2e-05 
2e-05 2e-05 2e-05 2e-05 2e-05 2e-05 2e-05 2e-05 2e-05 
2e-05 2e-05 2e-05 2e-05 2e-05 2e-05 2e-05 2e-05 2e-05 
2e-05 7.5e-05 2e-05 2e-05 2e-05 2e-05 2e-05 2e-05 2e-05 
2e-05 2e-05 2e-05 2e-05 2e-05 2e-05 2e-05 2e-05 2e-05 
2e-05 2e-05 2e-05 2e-05 2e-05 2e-05 2e-05 2e-05 2e-05 
2e-05 2e-05 2e-05 2e-05 2e-05 2e-05 2e-05 2e-05 2e-05 
2e-05 2e-05 2e-05 2e-05 2e-05 2e-05 2e-05 2e-05 2e-05 
2e-05 2e-05 2e-05 2e-05 2e-05 2e-05 2e-05 2e-05 2e-05 
2e-05 2e-05 2e-05 2e-05 2e-05 2e-05 2e-05 2e-05 2e-05 
2e-05 2e-05 2e-05 2e-05 2e-05 2e-05 2e-05 2e-05 2e-05 
2e-05 7.5e-05 2e-05 2e-05 2e-05 2e-05 2e-05 2e-05 2e-05 
2e-05 2e-05 2e-05 2e-05 2e-05 2e-05 2e-05 2e-05 2e-05 
2e-05 2e-05 2e-05 2e-05 2e-05 2e-05 2e-05 2e-05 2e-05 
2e-05 2e-05 2e-05 2e-05 2e-05 2e-05 2e-05 2e-05 2e-05 
2e-05 2e-05 2e-05 2e-05 2e-05 2e-05 2e-05 2e-05 2e-05 
2e-05 2e-05 2e-05 2e-05 2e-05 2e-05 2e-05 2e-05 2e-05 
2e-05 2e-05 2e-05 2e-05 2e-05 2e-05 2e-05 2e-05 2e-05 
2e-05 2e-05 2e-05 2e-05 2e-05 2e-05 2e-05 2e-05 2e-05 
2e-05 2e-05 2e-05 2e-05 2e-05 2e-05 2e-05 2e-05 2e-05 
0.0003 2e-05 2e-05 2e-05 2e-05 2e-05 2e-05 2e-05 2e-05 
2e-05 2e-05 2e-05 2e-05 2e-05 2e-05 2e-05 2e-05 2e-05 
2e-05 2e-05 2e-05 2e-05 2e-05 2e-05 2e-05 2e-05 2e-05 
2e-05 2e-05 2e-05 2e-05 2e-05 2e-05 2e-05 2e-05 2e-05 
2e-05 2e-05 2e-05 2e-05 2e-05 2e-05 2e-05 2e-05 2e-05 
2e-05 2e-05 2e-05 2e-05 2e-05 2e-05 2e-05 2e-05 2e-05 
2e-05 2e-05 2e-05 2e-05 2e-05 7.5e-05 2e-05 2e-05 2e-05 
2e-05 2e-05 2e-05 7.5e-05 2e-05 2e-05 2e-05 2e-05 2e-05 
2e-05 2e-05 2e-05 2e-05 2e-05 2e-05 2e-05 2e-05 2e-05 
2e-05 2e-05 2e-05 2e-05 2e-05 2e-05 2e-05 2e-05 2e-05 
2e-05 2e-05 2e-05 2e-05 2e-05 2e-05 2e-05 2e-05 2e-05 
2e-05 2e-05 2e-05 2e-05 2e-05 2e-05 2e-05 2e-05 2e-05 
2e-05 2e-05 2e-05 2e-05 2e-05 2e-05 2e-05 2e-05 2e-05 
2e-05 2e-05 2e-05 2e-05 2e-05 2e-05 2e-05 2e-05 2e-05 
2e-05 2e-05 2e-05 2e-05 2e-05 2e-05 2e-05 2e-05 2e-05 
2e-05 2e-05 2e-05 2e-05 2e-05 2e-05 2e-05 7.5e-05 2e-05 
2e-05 2e-05 2e-05 2e-05 2e-05 2e-05 2e-05 2e-05 2e-05 
2e-05 2e-05 2e-05 2e-05 2e-05 2e-05 2e-05 2e-05 2e-05 
2e-05 2e-05 2e-05 2e-05 2e-05 2e-05 2e-05 2e-05 2e-05 
2e-05 
omega 3 532 double
0 0 0 0 0 0 0 0 0 
0 0 0 0 0 0 0 0 0 
0 0 0 0 0 0 0 0 0 
0 0 0 0 0 0 0 0 0 
0 0 0 0 0 0 0 0 0 
0 0 0 0 0 0 0 0 0 
0 0 0 0 0 0 0 0 0 
0 0 0 0 0 0 0 0 0 
0 0 0 0 0 0 0 0 0 
0 0 0 0 0 0 0 0 0 
0 0 0 0 0 0 0 0 0 
0 0 0 0 0 0 0 0 0 
0 0 0 0 0 0 0 0 0 
0 0 0 0 0 0 0 0 0 
0 0 0 0 0 0 0 0 0 
0 0 0 0 0 0 0 0 0 
0 0 0 0 0 0 0 0 0 
0 0 0 0 0 0 0 0 0 
0 0 0 0 0 0 0 0 0 
0 0 0 0 0 0 0 0 0 
0 0 0 0 0 0 0 0 0 
0 0 0 0 0 0 0 0 0 
0 0 0 0 0 0 0 0 0 
0 0 0 0 0 0 0 0 0 
0 0 0 0 0 0 0 0 0 
0 0 0 0 0 0 0 0 0 
0 0 0 0 0 0 0 0 0 
0 0 0 0 0 0 0 0 0 
0 0 0 0 0 0 0 0 0 
0 0 0 0 0 0 0 0 0 
0 0 0 0 0 0 0 0 0 
0 0 0 0 0 0 0 0 0 
0 0 0 0 0 0 0 0 0 
0 0 0 0 0 0 0 0 0 
0 0 0 0 0 0 0 0 0 
0 0 0 0 0 0 0 0 0 
0 0 0 0 0 0 0 0 0 
0 0 0 0 0 0 0 0 0 
0 0 0 0 0 0 0 0 0 
0 0 0 0 0 0 0 0 0 
0 0 0 0 0 0 0 0 0 
0 0 0 0 0 0 0 0 0 
0 0 0 0 0 0 0 0 0 
0 0 0 0 0 0 0 0 0 
0 0 0 0 0 0 0 0 0 
0 0 0 0 0 0 0 0 0 
0 0 0 0 0 0 0 0 0 
0 0 0 0 0 0 0 0 0 
0 0 0 0 0 0 0 0 0 
0 0 0 0 0 0 0 0 0 
0 0 0 0 0 0 0 0 0 
0 0 0 0 0 0 0 0 0 
0 0 0 0 0 0 0 0 0 
0 0 0 0 0 0 0 0 0 
0 0 0 0 0 0 0 0 0 
0 0 0 0 0 0 0 0 0 
0 0 0 0 0 0 0 0 0 
0 0 0 0 0 0 0 0 0 
0 0 0 0 0 0 0 0 0 
0 0 0 0 0 0 0 0 0 
0 0 0 0 0 0 0 0 0 
0 0 0 0 0 0 0 0 0 
0 0 0 0 0 0 0 0 0 
0 0 0 0 0 0 0 0 0 
0 0 0 0 0 0 0 0 0 
0 0 0 0 0 0 0 0 0 
0 0 0 0 0 0 0 0 0 
0 0 0 0 0 0 0 0 0 
0 0 0 0 0 0 0 0 0 
0 0 0 0 0 0 0 0 0 
0 0 0 0 0 0 0 0 0 
0 0 0 0 0 0 0 0 0 
0 0 0 0 0 0 0 0 0 
0 0 0 0 0 0 0 0 0 
0 0 0 0 0 0 0 0 0 
0 0 0 0 0 0 0 0 0 
0 0 0 0 0 0 0 0 0 
0 0 0 0 0 0 0 0 0 
0 0 0 0 0 0 0 0 0 
0 0 0 0 0 0 0 0 0 
0 0 0 0 0 0 0 0 0 
0 0 0 0 0 0 0 0 0 
0 0 0 0 0 0 0 0 0 
0 0 0 0 0 0 0 0 0 
0 0 0 0 0 0 0 0 0 
0 0 0 0 0 0 0 0 0 
0 0 0 0 0 0 0 0 0 
0 0 0 0 0 0 0 0 0 
0 0 0 0 0 0 0 0 0 
0 0 0 0 0 0 0 0 0 
0 0 0 0 0 0 0 0 0 
0 0 0 0 0 0 0 0 0 
0 0 0 0 0 0 0 0 0 
0 0 0 0 0 0 0 0 0 
0 0 0 0 0 0 0 0 0 
0 0 0 0 0 0 0 0 0 
0 0 0 0 0 0 0 0 0 
0 0 0 0 0 0 0 0 0 
0 0 0 0 0 0 0 0 0 
0 0 0 0 0 0 0 0 0 
0 0 0 0 0 0 0 0 0 
0 0 0 0 0 0 0 0 0 
0 0 0 0 0 0 0 0 0 
0 0 0 0 0 0 0 0 0 
0 0 0 0 0 0 0 0 0 
0 0 0 0 0 0 0 0 0 
0 0 0 0 0 0 0 0 0 
0 0 0 0 0 0 0 0 0 
0 0 0 0 0 0 0 0 0 
0 0 0 0 0 0 0 0 0 
0 0 0 0 0 0 0 0 0 
0 0 0 0 0 0 0 0 0 
0 0 0 0 0 0 0 0 0 
0 0 0 0 0 0 0 0 0 
0 0 0 0 0 0 0 0 0 
0 0 0 0 0 0 0 0 0 
0 0 0 0 0 0 0 0 0 
0 0 0 0 0 0 0 0 0 
0 0 0 0 0 0 0 0 0 
0 0 0 0 0 0 0 0 0 
0 0 0 0 0 0 0 0 0 
0 0 0 0 0 0 0 0 0 
0 0 0 0 0 0 0 0 0 
0 0 0 0 0 0 0 0 0 
0 0 0 0 0 0 0 0 0 
0 0 0 0 0 0 0 0 0 
0 0 0 0 0 0 0 0 0 
0 0 0 0 0 0 0 0 0 
0 0 0 0 0 0 0 0 0 
0 0 0 0 0 0 0 0 0 
0 0 0 0 0 0 0 0 0 
0 0 0 0 0 0 0 0 0 
0 0 0 0 0 0 0 0 0 
0 0 0 0 0 0 0 0 0 
0 0 0 0 0 0 0 0 0 
0 0 0 0 0 0 0 0 0 
0 0 0 0 0 0 0 0 0 
0 0 0 0 0 0 0 0 0 
0 0 0 0 0 0 0 0 0 
0 0 0 0 0 0 0 0 0 
0 0 0 0 0 0 0 0 0 
0 0 0 0 0 0 0 0 0 
0 0 0 0 0 0 0 0 0 
0 0 0 0 0 0 0 0 0 
0 0 0 0 0 0 0 0 0 
0 0 0 0 0 0 0 0 0 
0 0 0 0 0 0 0 0 0 
0 0 0 0 0 0 0 0 0 
0 0 0 0 0 0 0 0 0 
0 0 0 0 0 0 0 0 0 
0 0 0 0 0 0 0 0 0 
0 0 0 0 0 0 0 0 0 
0 0 0 0 0 0 0 0 0 
0 0 0 0 0 0 0 0 0 
0 0 0 0 0 0 0 0 0 
0 0 0 0 0 0 0 0 0 
0 0 0 0 0 0 0 0 0 
0 0 0 0 0 0 0 0 0 
0 0 0 0 0 0 0 0 0 
0 0 0 0 0 0 0 0 0 
0 0 0 0 0 0 0 0 0 
0 0 0 0 0 0 0 0 0 
0 0 0 0 0 0 0 0 0 
0 0 0 0 0 0 0 0 0 
0 0 0 0 0 0 0 0 0 
0 0 0 0 0 0 0 0 0 
0 0 0 0 0 0 0 0 0 
0 0 0 0 0 0 0 0 0 
0 0 0 0 0 0 0 0 0 
0 0 0 0 0 0 0 0 0 
0 0 0 0 0 0 0 0 0 
0 0 0 0 0 0 0 0 0 
0 0 0 0 0 0 0 0 0 
0 0 0 0 0 0 0 0 0 
0 0 0 0 0 0 0 0 0 
0 0 0 0 0 0 0 0 0 
0 0 0 0 0 0 0 0 0 
0 0 0 
fx_mag_viz 1 532 double
0 0 0 0 0 0 0 0 0 
0 0 0 0 0 0 0 0 0 
0 0 0 0 0 0 0 0 0 
0 0 0 0 0 0 0 0 0 
0 0 0 0 0 0 0 0 0 
0 0 0 0 0 0 0 0 0 
0 0 0 0 0 0 0 0 0 
0 0 0 0 0 0 0 0 0 
0 0 0 0 0 0 0 0 0 
0 0 0 0 0 0 0 0 0 
0 0 0 0 0 0 0 0 0 
0 0 0 0 0 0 0 0 0 
0 0 0 0 0 0 0 0 0 
0 0 0 0 0 0 0 0 0 
0 0 0 0 0 0 0 0 0 
0 0 0 0 0 0 0 0 0 
0 0 0 0 0 0 0 0 0 
0 0 0 0 0 0 0 0 0 
0 0 0 0 0 0 0 0 0 
0 0 0 0 0 0 0 0 0 
0 0 0 0 0 0 0 0 0 
0 0 0 0 0 0 0 0 0 
0 0 0 0 0 0 0 0 0 
0 0 0 0 0 0 0 0 0 
0 0 0 0 0 0 0 0 0 
0 0 0 0 0 0 0 0 0 
0 0 0 0 0 0 0 0 0 
0 0 0 0 0 0 0 0 0 
0 0 0 0 0 0 0 0 0 
0 0 0 0 0 0 0 0 0 
0 0 0 0 0 0 0 0 0 
0 0 0 0 0 0 0 0 0 
0 0 0 0 0 0 0 0 0 
0 0 0 0 0 0 0 0 0 
0 0 0 0 0 0 0 0 0 
0 0 0 0 0 0 0 0 0 
0 0 0 0 0 0 0 0 0 
0 0 0 0 0 0 0 0 0 
0 0 0 0 0 0 0 0 0 
0 0 0 0 0 0 0 0 0 
0 0 0 0 0 0 0 0 0 
0 0 0 0 0 0 0 0 0 
0 0 0 0 0 0 0 0 0 
0 0 0 0 0 0 0 0 0 
0 0 0 0 0 0 0 0 0 
0 0 0 0 0 0 0 0 0 
0 0 0 0 0 0 0 0 0 
0 0 0 0 0 0 0 0 0 
0 0 0 0 0 0 0 0 0 
0 0 0 0 0 0 0 0 0 
0 0 0 0 0 0 0 0 0 
0 0 0 0 0 0 0 0 0 
0 0 0 0 0 0 0 0 0 
0 0 0 0 0 0 0 0 0 
0 0 0 0 0 0 0 0 0 
0 0 0 0 0 0 0 0 0 
0 0 0 0 0 0 0 0 0 
0 0 0 0 0 0 0 0 0 
0 0 0 0 0 0 0 0 0 
0 
fy_mag_viz 1 532 double
0 0 0 0 0 0 0 0 0 
0 0 0 0 0 0 0 0 0 
0 0 0 0 0 0 0 0 0 
0 0 0 0 0 0 0 0 0 
0 0 0 0 0 0 0 0 0 
0 0 0 0 0 0 0 0 0 
0 0 0 0 0 0 0 0 0 
0 0 0 0 0 0 0 0 0 
0 0 0 0 0 0 0 0 0 
0 0 0 0 0 0 0 0 0 
0 0 0 0 0 0 0 0 0 
0 0 0 0 0 0 0 0 0 
0 0 0 0 0 0 0 0 0 
0 0 0 0 0 0 0 0 0 
0 0 0 0 0 0 0 0 0 
0 0 0 0 0 0 0 0 0 
0 0 0 0 0 0 0 0 0 
0 0 0 0 0 0 0 0 0 
0 0 0 0 0 0 0 0 0 
0 0 0 0 0 0 0 0 0 
0 0 0 0 0 0 0 0 0 
0 0 0 0 0 0 0 0 0 
0 0 0 0 0 0 0 0 0 
0 0 0 0 0 0 0 0 0 
0 0 0 0 0 0 0 0 0 
0 0 0 0 0 0 0 0 0 
0 0 0 0 0 0 0 0 0 
0 0 0 0 0 0 0 0 0 
0 0 0 0 0 0 0 0 0 
0 0 0 0 0 0 0 0 0 
0 0 0 0 0 0 0 0 0 
0 0 0 0 0 0 0 0 0 
0 0 0 0 0 0 0 0 0 
0 0 0 0 0 0 0 0 0 
0 0 0 0 0 0 0 0 0 
0 0 0 0 0 0 0 0 0 
0 0 0 0 0 0 0 0 0 
0 0 0 0 0 0 0 0 0 
0 0 0 0 0 0 0 0 0 
0 0 0 0 0 0 0 0 0 
0 0 0 0 0 0 0 0 0 
0 0 0 0 0 0 0 0 0 
0 0 0 0 0 0 0 0 0 
0 0 0 0 0 0 0 0 0 
0 0 0 0 0 0 0 0 0 
0 0 0 0 0 0 0 0 0 
0 0 0 0 0 0 0 0 0 
0 0 0 0 0 0 0 0 0 
0 0 0 0 0 0 0 0 0 
0 0 0 0 0 0 0 0 0 
0 0 0 0 0 0 0 0 0 
0 0 0 0 0 0 0 0 0 
0 0 0 0 0 0 0 0 0 
0 0 0 0 0 0 0 0 0 
0 0 0 0 0 0 0 0 0 
0 0 0 0 0 0 0 0 0 
0 0 0 0 0 0 0 0 0 
0 0 0 0 0 0 0 0 0 
0 0 0 0 0 0 0 0 0 
0 
fz_mag_viz 1 532 double
0 0 0 0 0 0 0 0 0 
0 0 0 0 0 0 0 0 0 
0 0 0 0 0 0 0 0 0 
0 0 0 0 0 0 0 0 0 
0 0 0 0 0 0 0 0 0 
0 0 0 0 0 0 0 0 0 
0 0 0 0 0 0 0 0 0 
0 0 0 0 0 0 0 0 0 
0 0 0 0 0 0 0 0 0 
0 0 0 0 0 0 0 0 0 
0 0 0 0 0 0 0 0 0 
0 0 0 0 0 0 0 0 0 
0 0 0 0 0 0 0 0 0 
0 0 0 0 0 0 0 0 0 
0 0 0 0 0 0 0 0 0 
0 0 0 0 0 0 0 0 0 
0 0 0 0 0 0 0 0 0 
0 0 0 0 0 0 0 0 0 
0 0 0 0 0 0 0 0 0 
0 0 0 0 0 0 0 0 0 
0 0 0 0 0 0 0 0 0 
0 0 0 0 0 0 0 0 0 
0 0 0 0 0 0 0 0 0 
0 0 0 0 0 0 0 0 0 
0 0 0 0 0 0 0 0 0 
0 0 0 0 0 0 0 0 0 
0 0 0 0 0 0 0 0 0 
0 0 0 0 0 0 0 0 0 
0 0 0 0 0 0 0 0 0 
0 0 0 0 0 0 0 0 0 
0 0 0 0 0 0 0 0 0 
0 0 0 0 0 0 0 0 0 
0 0 0 0 0 0 0 0 0 
0 0 0 0 0 0 0 0 0 
0 0 0 0 0 0 0 0 0 
0 0 0 0 0 0 0 0 0 
0 0 0 0 0 0 0 0 0 
0 0 0 0 0 0 0 0 0 
0 0 0 0 0 0 0 0 0 
0 0 0 0 0 0 0 0 0 
0 0 0 0 0 0 0 0 0 
0 0 0 0 0 0 0 0 0 
0 0 0 0 0 0 0 0 0 
0 0 0 0 0 0 0 0 0 
0 0 0 0 0 0 0 0 0 
0 0 0 0 0 0 0 0 0 
0 0 0 0 0 0 0 0 0 
0 0 0 0 0 0 0 0 0 
0 0 0 0 0 0 0 0 0 
0 0 0 0 0 0 0 0 0 
0 0 0 0 0 0 0 0 0 
0 0 0 0 0 0 0 0 0 
0 0 0 0 0 0 0 0 0 
0 0 0 0 0 0 0 0 0 
0 0 0 0 0 0 0 0 0 
0 0 0 0 0 0 0 0 0 
0 0 0 0 0 0 0 0 0 
0 0 0 0 0 0 0 0 0 
0 0 0 0 0 0 0 0 0 
0 
B_magnitude 1 532 double
0 0 0 0 0 0 0 0 0 
0 0 0 0 0 0 0 0 0 
0 0 0 0 0 0 0 0 0 
0 0 0 0 0 0 0 0 0 
0 0 0 0 0 0 0 0 0 
0 0 0 0 0 0 0 0 0 
0 0 0 0 0 0 0 0 0 
0 0 0 0 0 0 0 0 0 
0 0 0 0 0 0 0 0 0 
0 0 0 0 0 0 0 0 0 
0 0 0 0 0 0 0 0 0 
0 0 0 0 0 0 0 0 0 
0 0 0 0 0 0 0 0 0 
0 0 0 0 0 0 0 0 0 
0 0 0 0 0 0 0 0 0 
0 0 0 0 0 0 0 0 0 
0 0 0 0 0 0 0 0 0 
0 0 0 0 0 0 0 0 0 
0 0 0 0 0 0 0 0 0 
0 0 0 0 0 0 0 0 0 
0 0 0 0 0 0 0 0 0 
0 0 0 0 0 0 0 0 0 
0 0 0 0 0 0 0 0 0 
0 0 0 0 0 0 0 0 0 
0 0 0 0 0 0 0 0 0 
0 0 0 0 0 0 0 0 0 
0 0 0 0 0 0 0 0 0 
0 0 0 0 0 0 0 0 0 
0 0 0 0 0 0 0 0 0 
0 0 0 0 0 0 0 0 0 
0 0 0 0 0 0 0 0 0 
0 0 0 0 0 0 0 0 0 
0 0 0 0 0 0 0 0 0 
0 0 0 0 0 0 0 0 0 
0 0 0 0 0 0 0 0 0 
0 0 0 0 0 0 0 0 0 
0 0 0 0 0 0 0 0 0 
0 0 0 0 0 0 0 0 0 
0 0 0 0 0 0 0 0 0 
0 0 0 0 0 0 0 0 0 
0 0 0 0 0 0 0 0 0 
0 0 0 0 0 0 0 0 0 
0 0 0 0 0 0 0 0 0 
0 0 0 0 0 0 0 0 0 
0 0 0 0 0 0 0 0 0 
0 0 0 0 0 0 0 0 0 
0 0 0 0 0 0 0 0 0 
0 0 0 0 0 0 0 0 0 
0 0 0 0 0 0 0 0 0 
0 0 0 0 0 0 0 0 0 
0 0 0 0 0 0 0 0 0 
0 0 0 0 0 0 0 0 0 
0 0 0 0 0 0 0 0 0 
0 0 0 0 0 0 0 0 0 
0 0 0 0 0 0 0 0 0 
0 0 0 0 0 0 0 0 0 
0 0 0 0 0 0 0 0 0 
0 0 0 0 0 0 0 0 0 
0 0 0 0 0 0 0 0 0 
0 
B_gradient_mag 1 532 double
0 0 0 0 0 0 0 0 0 
0 0 0 0 0 0 0 0 0 
0 0 0 0 0 0 0 0 0 
0 0 0 0 0 0 0 0 0 
0 0 0 0 0 0 0 0 0 
0 0 0 0 0 0 0 0 0 
0 0 0 0 0 0 0 0 0 
0 0 0 0 0 0 0 0 0 
0 0 0 0 0 0 0 0 0 
0 0 0 0 0 0 0 0 0 
0 0 0 0 0 0 0 0 0 
0 0 0 0 0 0 0 0 0 
0 0 0 0 0 0 0 0 0 
0 0 0 0 0 0 0 0 0 
0 0 0 0 0 0 0 0 0 
0 0 0 0 0 0 0 0 0 
0 0 0 0 0 0 0 0 0 
0 0 0 0 0 0 0 0 0 
0 0 0 0 0 0 0 0 0 
0 0 0 0 0 0 0 0 0 
0 0 0 0 0 0 0 0 0 
0 0 0 0 0 0 0 0 0 
0 0 0 0 0 0 0 0 0 
0 0 0 0 0 0 0 0 0 
0 0 0 0 0 0 0 0 0 
0 0 0 0 0 0 0 0 0 
0 0 0 0 0 0 0 0 0 
0 0 0 0 0 0 0 0 0 
0 0 0 0 0 0 0 0 0 
0 0 0 0 0 0 0 0 0 
0 0 0 0 0 0 0 0 0 
0 0 0 0 0 0 0 0 0 
0 0 0 0 0 0 0 0 0 
0 0 0 0 0 0 0 0 0 
0 0 0 0 0 0 0 0 0 
0 0 0 0 0 0 0 0 0 
0 0 0 0 0 0 0 0 0 
0 0 0 0 0 0 0 0 0 
0 0 0 0 0 0 0 0 0 
0 0 0 0 0 0 0 0 0 
0 0 0 0 0 0 0 0 0 
0 0 0 0 0 0 0 0 0 
0 0 0 0 0 0 0 0 0 
0 0 0 0 0 0 0 0 0 
0 0 0 0 0 0 0 0 0 
0 0 0 0 0 0 0 0 0 
0 0 0 0 0 0 0 0 0 
0 0 0 0 0 0 0 0 0 
0 0 0 0 0 0 0 0 0 
0 0 0 0 0 0 0 0 0 
0 0 0 0 0 0 0 0 0 
0 0 0 0 0 0 0 0 0 
0 0 0 0 0 0 0 0 0 
0 0 0 0 0 0 0 0 0 
0 0 0 0 0 0 0 0 0 
0 0 0 0 0 0 0 0 0 
0 0 0 0 0 0 0 0 0 
0 0 0 0 0 0 0 0 0 
0 0 0 0 0 0 0 0 0 
0 
