# vtk DataFile Version 5.1
Generated by LIGGGHTS
ASCII
DATASET POLYDATA
POINTS 648 float
-0.0428902 -0.0449088 0.00109453 -0.0105296 -0.0314142 0.00114614 -0.0198564 -0.00683511 0.00116245 
0.0414788 -0.00521487 0.00108458 0.0123926 0.0218243 0.00106336 0.0167463 0.0251763 0.00110617 
-0.0385899 -0.0405251 0.00140129 0.00798734 -0.0367051 0.00144694 0.0419483 -0.0348097 0.00267707 
0.033456 -0.0256735 0.0019389 0.0282359 -0.00877456 0.00159954 -0.0129003 -0.00574839 0.00155873 
-0.0179231 -0.00300678 0.00163513 0.00635633 0.000852437 0.00228176 0.0384376 0.000848974 0.00138583 
0.0292006 0.00433004 0.00226532 0.021602 0.00540593 0.00155314 -0.0426568 0.00723228 0.0015295 
-0.0310202 0.0131063 0.00141799 0.0143092 0.0139794 0.00217221 0.0248423 0.0143007 0.00120134 
-0.0360536 0.0173104 0.00243728 -0.0296003 0.0277025 0.00231675 0.0131273 0.040817 0.00215314 
-0.00521279 -0.0413279 0.00242756 -0.00302782 -0.0385948 0.00355361 -0.0266532 -0.0301716 0.00338218 
0.00689113 -0.0107816 0.00310547 0.0350526 -0.0102353 0.00262711 0.00357123 -0.00830953 0.00394419 
0.00937085 -0.00418454 0.00264171 0.0305447 0.00486582 0.00364411 0.0212596 0.00979192 0.00269819 
0.0215224 0.0171285 0.00358823 -0.0245993 0.0193658 0.00305019 -0.0153727 0.020636 0.00332194 
-0.0170112 0.0231088 0.0036927 0.03506 0.0228899 0.002814 -0.0197415 0.0344175 0.00346781 
0.0297434 0.0373158 0.00306265 0.00308146 0.0401468 0.00309082 0.0156715 -0.0391733 0.00444174 
0.0341086 -0.0368686 0.00509489 0.0289145 -0.0340196 0.00517963 -0.015788 -0.0282898 0.00520015 
-0.0108877 -0.0188832 0.00408197 0.00417698 0.0024455 0.00423402 -0.0287984 0.00559412 0.00385144 
-0.034865 0.0142961 0.00481461 0.0287781 0.014071 0.00424685 -0.0081225 0.0151775 0.00384447 
-0.0144089 0.0201081 0.00454947 -0.0282566 0.021284 0.00387064 -0.0409258 0.0305044 0.00479707 
0.0104707 0.0313218 0.00409275 -0.0390027 0.0421086 0.0047687 0.0185094 -0.042363 0.00628027 
0.040047 -0.0404588 0.00546282 -0.0232422 -0.0321576 0.00599649 -0.0419519 -0.0259749 0.0062436 
0.0436787 -0.0219137 0.00579996 0.0336491 -0.0197505 0.00511372 0.0030191 -0.0179247 0.00571402 
0.0223879 -0.0163393 0.00516311 0.0277003 -0.0107969 0.00602642 0.0154702 -0.00154679 0.00557842 
-0.0356048 -0.000104637 0.00563943 -0.00783961 -0.000387029 0.00589898 -0.00702036 -0.00121172 0.00639888 
-0.00967086 0.00179773 0.00595358 0.0399323 0.0117688 0.00608903 0.0379188 0.0120326 0.00615293 
0.00284552 0.0345861 0.0060319 -0.0155539 0.0359545 0.0049798 0.0165329 0.0385374 0.00525527 
0.0251972 0.0393087 0.00511614 -0.0440308 0.0448256 0.0059685 -0.044759 -0.0437614 0.00753933 
-0.0308094 -0.0435702 0.00739774 -0.042922 -0.0404536 0.00721008 0.023158 -0.0340207 0.00737081 
0.0244271 -0.0334586 0.00660074 0.0280204 -0.0311414 0.0074965 -0.0448384 -0.0296834 0.00763407 
0.00577088 -0.0287415 0.00663095 0.032808 -0.025967 0.0075368 -0.0408326 -0.0234295 0.0069259 
-0.0317771 -0.0175651 0.00759033 0.0404767 -0.0183151 0.00764908 0.0414834 -0.0181367 0.00743095 
-0.0112192 -0.0104501 0.00725893 0.00743742 -0.00926665 0.00693542 -0.0170872 0.00564833 0.006867 
0.0011249 0.00615697 0.00655973 0.0228765 0.00606581 0.00765719 -0.0214351 0.00957734 0.0073838 
8.23501e-07 0.0138406 0.00654097 0.0114764 0.0140289 0.00745354 -0.0214239 0.0189608 0.00727902 
-0.023041 0.0197144 0.00757125 0.0226957 0.0260881 0.0072904 0.0364634 0.0310238 0.00759214 
0.0444958 0.0309554 0.00766033 -0.0264781 0.032823 0.00735827 -0.0437633 0.0406561 0.00757518 
0.0339316 -0.041715 0.00868374 0.0308099 -0.0378456 0.00830047 0.0333162 -0.0342631 0.00850667 
0.000892701 -0.0263701 0.00777019 0.0101031 -0.0273014 0.00828676 -0.00446216 -0.0255279 0.00884282 
-0.0336946 -0.0248459 0.00914509 0.0363266 -0.0194176 0.00835435 -0.0257955 -0.0157834 0.00818531 
-0.0420316 -0.0145538 0.0084707 -0.00444012 -0.0151621 0.00887818 -0.0117656 -0.0138394 0.00892066 
0.0433204 -0.0141837 0.0082445 -0.0222502 -0.00974669 0.00883763 0.0131353 -0.00504642 0.00791053 
-0.0141425 -0.00311887 0.0089531 0.00265626 0.00371614 0.00868574 0.0449494 0.00392273 0.00818807 
0.00314898 0.00491531 0.0089888 0.0221269 0.00728552 0.00794055 0.0320014 0.00756294 0.00866223 
-0.0392616 0.00972366 0.0082784 -0.0101256 0.00978275 0.00849972 -0.0371624 0.011326 0.00889219 
0.0323341 0.0191974 0.00798092 -0.022709 0.0198803 0.00806249 -0.0256005 0.0215871 0.00790303 
-0.0269229 0.0267788 0.00867676 -0.0213481 0.0319153 0.00892329 0.0163992 0.0415262 0.00806284 
-0.0160353 0.0448572 0.00821087 -0.0335565 -0.0442122 0.00991143 0.0418836 -0.0421436 0.0093168 
0.0414821 -0.0410789 0.00980192 -0.018434 -0.0405477 0.009901 -0.0108246 -0.0388127 0.0100483 
0.000822496 -0.0363122 0.00936897 0.0433459 -0.0353282 0.00976697 -0.0262624 -0.032473 0.0101819 
-0.0329608 -0.0218045 0.00967302 -0.0225401 -0.0213878 0.0103179 -0.0388614 -0.0136303 0.010083 
-0.0227164 -0.0141288 0.00938209 0.0223025 -0.0112244 0.010427 0.0342493 -0.0115037 0.00974395 
-0.0386256 -0.00983966 0.0096025 -0.0326334 -0.00963456 0.0104115 0.013874 -0.00963069 0.00919216 
-0.024842 -0.00884532 0.009813 0.0109664 -0.00760095 0.00914367 0.0275881 -0.00673863 0.00953013 
0.0293019 -0.00298432 0.0100254 -0.00757157 0.00454821 0.00906342 0.0246705 0.0064451 0.00923758 
0.0283387 0.00890506 0.0102471 0.0197977 0.00963841 0.00935204 -0.0394276 0.0109375 0.00957124 
-0.00279986 0.0127222 0.00967028 0.0153641 0.0146287 0.00924424 0.0418335 0.0161761 0.0094946 
0.0307708 0.0242663 0.00954162 -0.0200898 0.0311527 0.00963592 0.00372347 0.0304157 0.0102364 
0.0152528 0.033152 0.00993057 0.0164577 0.0353116 0.00977594 0.0238959 0.0383247 0.00963381 
-0.0312382 0.0393096 0.00910743 -0.0281804 0.0418824 0.0103684 0.0222253 0.0407186 0.0102684 
0.00513794 0.0433856 0.0104325 0.0262096 -0.0449372 0.011593 -0.0349861 -0.0412827 0.0106404 
0.0338942 -0.0410147 0.0104685 -0.0248652 -0.040212 0.0107709 0.00594186 -0.0351889 0.0111137 
-0.00586029 -0.0338127 0.0104783 0.00264867 -0.0338128 0.0113457 -0.0160452 -0.0323821 0.0108119 
0.0346336 -0.0325969 0.0109415 -0.0430551 -0.0267583 0.0113906 0.0306875 -0.0259396 0.0110554 
-0.0328109 -0.0226975 0.0115178 0.039775 -0.0211058 0.0104067 -0.0296942 -0.0196153 0.0111563 
0.00156248 -0.0194187 0.0115853 -0.0100897 -0.0180162 0.0106332 -0.0393221 -0.0167834 0.0105397 
-0.0405162 -0.0161033 0.0105583 0.0198229 -0.0156851 0.011354 -0.0207563 -0.0111167 0.011104 
0.0414517 -0.0114994 0.0111582 0.0313953 -0.00974065 0.0106744 -0.00553214 -0.00871323 0.0106452 
-0.00433253 -0.00676057 0.0105435 -0.00747582 -0.00609419 0.0104856 -0.040885 -0.00406647 0.0106193 
0.021323 -0.00444137 0.0104014 -0.0281455 -0.00127675 0.0116517 -0.0260142 0.00017485 0.0108917 
-0.00229178 0.0020129 0.0115053 0.0188762 0.00181355 0.0112918 0.032558 0.00153523 0.0110203 
0.0277548 0.0042931 0.0116076 0.0101693 0.00555192 0.0114139 0.0340899 0.00882812 0.0104745 
0.0398091 0.011618 0.010677 0.00861143 0.0123591 0.0109595 -0.00307286 0.0144526 0.0105477 
0.0121458 0.0151918 0.0104323 0.00517921 0.0169249 0.0104178 0.0090081 0.0191686 0.0104522 
-0.0102477 0.0267602 0.0107533 -0.0127911 0.0299546 0.0106338 -0.0368667 0.0306348 0.0115062 
0.0038092 0.0311583 0.0107836 0.0354139 0.0312817 0.0111667 -0.0073504 0.0318329 0.011287 
0.00390562 0.0317225 0.0110691 0.01325 0.0319187 0.0106356 -0.00973825 0.0391656 0.0103906 
0.0181024 -0.0433049 0.0120909 0.0348044 -0.042095 0.0118724 -0.00674967 -0.0416523 0.0119826 
-0.0334706 -0.0396012 0.0120371 -0.0168273 -0.0360331 0.0118355 0.027474 -0.0338615 0.0118848 
0.0449741 -0.0303513 0.0120277 0.0346338 -0.0290927 0.0129567 0.0155599 -0.0240909 0.0129747 
0.0233461 -0.0214624 0.0126133 0.0262592 -0.0217201 0.0127822 -0.0339565 -0.0167518 0.0125784 
0.0302919 -0.0148257 0.0121446 -0.0449336 -0.00957357 0.011926 0.0286804 -0.00919085 0.012031 
-0.00254943 -0.00825679 0.0121641 -0.0343844 -0.0078404 0.0119079 0.0404774 -0.00688032 0.0126986 
0.0387156 -0.00624884 0.0125094 0.0180565 -0.00487531 0.0126467 -0.0120059 -0.00345367 0.0124127 
0.0290986 -0.000251763 0.0120952 -0.0325416 0.00283857 0.0121292 -0.025141 0.00447188 0.0125114 
0.0211953 0.00966092 0.0124912 -0.0365733 0.0119208 0.0127336 0.000954082 0.0152563 0.0129499 
0.012585 0.0155082 0.0127361 0.0407412 0.0174253 0.0128539 0.0258603 0.0235991 0.0125514 
-0.0386663 0.0253433 0.0125611 -0.0267569 0.0263983 0.0128114 -0.00563177 0.0268155 0.0123384 
0.0395905 0.0272142 0.0122532 -0.032208 0.0306075 0.0121531 -0.0313244 0.0314049 0.0119314 
-0.0108954 0.0304 0.0124409 0.026696 0.03017 0.0122679 -0.0337286 0.0337045 0.0129089 
0.0231674 0.0340949 0.0125156 -0.041477 0.0364172 0.0123347 0.0439232 0.0371117 0.0130421 
0.0294278 0.0431452 0.0125913 0.0405446 0.0433429 0.0128591 0.0416479 -0.0439733 0.0141498 
0.000425919 -0.0415728 0.0135573 0.0077947 -0.0345433 0.0142178 -0.0386911 -0.0311434 0.014228 
0.0188903 -0.0308528 0.0135748 0.0412685 -0.0295104 0.0137009 0.0164647 -0.0275391 0.0136969 
-0.0323128 -0.0219837 0.0141447 0.00623721 -0.0211799 0.0135735 -0.00827992 -0.020547 0.0132151 
-0.0183202 -0.0175475 0.0143256 -0.0426154 -0.0165053 0.0131823 0.0176437 -0.0119747 0.0139875 
0.0251729 -0.00985964 0.0135806 -0.0304645 -0.00701594 0.01414 -0.00401126 -0.00720159 0.0137243 
0.0129906 -0.00677597 0.0138457 -0.00474481 -0.00600267 0.0135616 -0.042786 -0.00359954 0.0140306 
0.00664535 -0.00164817 0.013509 -0.0376932 -0.000132947 0.0142195 0.00643655 -0.000956063 0.0130255 
0.0404406 0.00462082 0.0135413 -0.0406381 0.00555966 0.0142341 0.030759 0.00580352 0.0134523 
0.00533928 0.00728904 0.0142661 0.00474506 0.0103043 0.0141925 0.00243185 0.0120975 0.0130851 
0.00546842 0.0177814 0.0136548 0.00395304 0.0187088 0.0134137 0.018015 0.0183735 0.0130613 
0.00153271 0.0201988 0.0132856 0.00976854 0.0197772 0.0134795 0.00128112 0.0217131 0.0141173 
-0.0267196 0.0236159 0.013674 0.0181332 0.0246356 0.0134661 -0.00739359 0.0259593 0.0134526 
-0.0357156 0.0282031 0.0134424 0.00834461 0.0278725 0.0131527 0.0191509 0.0299648 0.0131956 
0.0434247 0.0295768 0.0142684 -0.0422696 0.0340949 0.0142862 -0.0245447 0.0378537 0.0139147 
-0.0112537 0.0395394 0.0138945 -0.0133259 0.0414802 0.0133043 0.00805094 0.0422278 0.0140689 
-0.0205282 0.0432397 0.0136332 -0.00340304 -0.0448428 0.0150201 -0.027409 -0.0433703 0.014588 
-0.0406141 -0.0405112 0.0151364 -0.0169239 -0.0402939 0.0146524 -0.00670669 -0.0394183 0.0148847 
-0.0439713 -0.0357399 0.0148936 -0.0273176 -0.0361067 0.0144344 -0.00161929 -0.0353994 0.0152681 
0.0195647 -0.0366528 0.0151713 -0.0177429 -0.0346724 0.0154452 0.00879071 -0.0344865 0.0145267 
0.0403097 -0.0347888 0.0153133 -0.0427235 -0.0332389 0.0144408 0.00802514 -0.031483 0.0145171 
0.00231692 -0.0294453 0.0155824 0.0392765 -0.0300093 0.0156005 -0.0401314 -0.0280847 0.0149217 
-0.00580099 -0.0272788 0.0147819 -0.0338231 -0.0250135 0.0150223 -0.0207679 -0.0256315 0.013928 
0.0054016 -0.025334 0.0156096 -0.0291427 -0.0219343 0.0150268 -0.0164034 -0.0216001 0.01545 
0.0218308 -0.0192565 0.015023 -0.0328213 -0.0176588 0.0145676 0.0184681 -0.0172117 0.0150731 
0.0252581 -0.0163235 0.0148359 -0.0408642 -0.0154151 0.0154654 -0.015814 -0.0152491 0.0144737 
0.0268005 -0.0146468 0.014375 0.0375745 -0.0151367 0.01455 -0.0329121 -0.0139828 0.0145615 
0.0323804 -0.0132471 0.0148814 -0.0341597 -0.0122829 0.0145999 0.0322358 -0.0130621 0.0147159 
-0.0196799 -0.00931279 0.0153839 -0.042331 -0.00792816 0.0155499 -0.0408474 -0.00214648 0.0143132 
-0.000610522 -0.00103491 0.0144152 0.0147261 0.00139147 0.0147627 -0.037077 0.00611456 0.0152261 
-0.00552594 0.00555795 0.0151124 0.0332757 0.00539899 0.015159 0.0142017 0.0079404 0.0152691 
0.0202046 0.00840095 0.015283 0.00978397 0.00922321 0.0149685 -0.0350204 0.0121089 0.0155347 
-0.00831541 0.0129665 0.0151497 0.00789931 0.0136568 0.0149417 -0.00443291 0.0160613 0.0146908 
0.0256029 0.0175394 0.0151965 0.00757299 0.0192258 0.0144097 0.0350116 0.0207306 0.0154431 
0.0362273 0.0220011 0.0152659 -0.00782209 0.0241861 0.0147233 0.00953871 0.0271324 0.0146082 
-0.0219587 0.0304934 0.0154161 -0.00435696 0.0325462 0.0154588 0.0372507 0.0318783 0.014297 
0.0214431 0.0335886 0.0154583 -0.00196307 0.0366495 0.0144309 0.0030545 0.0369981 0.0152707 
-0.00883869 0.0381834 0.0148417 0.0281745 0.039089 0.015191 0.0221021 0.0401282 0.0142881 
0.0114086 0.0440135 0.0145568 0.0399235 0.0434757 0.0147361 0.0171919 0.0449185 0.0144337 
0.0211706 0.0445491 0.0144768 -0.0346971 -0.0446764 0.0160209 0.0145521 -0.0432303 0.0167563 
-0.0248654 -0.0427111 0.0161551 0.0201641 -0.0426709 0.0159801 0.0248068 -0.0428986 0.0158049 
0.0238162 -0.0409762 0.0161702 0.0244803 -0.0401788 0.0156853 -0.0370475 -0.0370945 0.01637 
0.0397687 -0.0374633 0.0162524 0.023019 -0.0293484 0.0161669 -0.0432264 -0.0264101 0.0159675 
0.03382 -0.0268981 0.0163379 -0.0350278 -0.0224863 0.0162024 0.0115492 -0.0227248 0.0157292 
-0.0204621 -0.0172006 0.0156439 0.0249316 -0.014475 0.0167644 -0.0313057 -0.0141988 0.016051 
-0.0269092 -0.0125643 0.0161376 -0.0136128 -0.00979682 0.016165 -0.0135858 -0.00672635 0.0168429 
-0.0395569 -0.00227866 0.0162138 -0.0416237 0.00110806 0.0159147 0.0362421 0.00170773 0.0163266 
0.00347554 0.00338662 0.0163609 -0.00723413 0.00605583 0.0159465 0.0110904 0.00657535 0.0161545 
-0.0349081 0.00917553 0.0159366 0.0128044 0.0127337 0.0166219 0.014866 0.0127598 0.0157756 
0.0261916 0.0119357 0.01615 -0.0429188 0.0135204 0.0159816 -0.0196462 0.0155185 0.0167378 
0.0440772 0.0154938 0.0165853 -0.0193355 0.018129 0.0165275 0.0122157 0.0191756 0.0165017 
0.0388885 0.0193682 0.0165386 -0.0431379 0.0208085 0.0166253 -0.0421793 0.0225172 0.0162879 
-0.0349287 0.0230684 0.015608 -0.0295899 0.0232577 0.0156074 0.0146363 0.0223077 0.0158631 
0.00264144 0.0247174 0.0162047 0.000162142 0.0251126 0.0165879 -0.0190887 0.0269029 0.0168266 
-0.0114472 0.026715 0.0165587 -0.0406313 0.0295913 0.0168085 -0.0376379 0.0294143 0.0168188 
-0.0152062 0.0294088 0.0162223 -0.00472634 0.0344449 0.0161552 -0.0407273 0.0358476 0.0160979 
0.0311732 0.0371467 0.0167425 -0.00647711 0.0391566 0.0162619 -0.039126 0.0399637 0.0167276 
-0.0375088 0.0393741 0.0155991 -0.0181988 0.0434549 0.0164478 0.0131812 -0.0427533 0.0176732 
0.0166138 -0.0412108 0.0179827 -0.0309963 -0.0355024 0.0180895 0.0355384 -0.0354155 0.016996 
-0.0376897 -0.0314333 0.0169514 -0.0396817 -0.0304797 0.0169708 -0.0263426 -0.0292431 0.0171922 
0.00741479 -0.0295782 0.016736 -0.0240024 -0.0280603 0.0179142 -0.0240719 -0.0268296 0.0172327 
0.00538025 -0.0241403 0.0174283 -0.0139777 -0.0223984 0.0176373 0.0109547 -0.0235646 0.0176832 
0.035159 -0.023363 0.018052 0.00548761 -0.0197918 0.0171317 0.0282033 -0.0178095 0.0171053 
0.038292 -0.016257 0.0177561 -0.0186412 -0.0134353 0.0178886 0.0403752 -0.0143085 0.0169046 
-0.0327621 -0.0121928 0.0175905 0.0406218 -0.0100941 0.0169205 -0.0344646 -0.00725539 0.0178157 
-0.0211095 -0.00770044 0.0173497 0.0161928 -0.00760918 0.0173514 0.00523139 -0.00599236 0.017039 
0.0180458 -0.00470109 0.0177985 -0.00941413 -0.00330341 0.0181054 0.00975646 -0.00313231 0.0175825 
-0.00896956 -0.00131708 0.0174428 0.0140084 -6.89735e-05 0.0181642 0.0407777 0.000744206 0.0170511 
-0.0261639 0.00337815 0.017955 0.00243665 0.00282786 0.0177418 0.0323225 0.00436429 0.0169137 
0.0250346 0.00641518 0.0173658 0.023953 0.00820576 0.0170682 -0.00867948 0.0139924 0.0173674 
0.0311878 0.014057 0.0181347 0.0336082 0.013194 0.0173473 0.0441199 0.0136981 0.0174154 
0.0226738 0.0181095 0.01715 -0.0287332 0.0215601 0.0171725 -0.0122989 0.0222019 0.0176797 
0.0398418 0.0217469 0.0179171 0.0438582 0.0244724 0.0177125 0.00519606 0.0301696 0.0174879 
0.00317215 0.0343196 0.0173865 0.0352701 0.0439749 0.0176517 0.0352379 0.0438995 0.0170623 
-0.00396528 -0.0444182 0.0183396 0.0195053 -0.043722 0.0186555 -0.0389435 -0.0425966 0.0191537 
0.0406519 -0.0427256 0.0195179 -0.0136468 -0.0412372 0.0185965 0.0424299 -0.0409921 0.0184379 
-0.0289295 -0.0389067 0.0193606 -0.0195638 -0.0385913 0.019518 0.0325128 -0.03812 0.0190088 
0.00985621 -0.0367022 0.0182297 -0.00338111 -0.0363358 0.0193106 0.0307351 -0.0355434 0.0193526 
-8.23525e-05 -0.034098 0.0184262 -0.0177803 -0.0340186 0.0186274 -0.0161578 -0.0337243 0.0184696 
-0.0233761 -0.031813 0.0194586 -0.0210092 -0.0320472 0.0193649 0.0268369 -0.0315202 0.018379 
-0.0220587 -0.0306349 0.018625 -0.0414327 -0.0290659 0.0183804 -0.0346801 -0.0287009 0.0188807 
0.0153133 -0.0285941 0.018634 0.0347572 -0.0260666 0.0195194 -0.00863888 -0.0237376 0.0182513 
0.00179778 -0.0247441 0.0186642 0.00558373 -0.0242787 0.0189271 0.0102479 -0.024092 0.0190733 
0.0210005 -0.0239559 0.0194681 -0.0127621 -0.0231756 0.0188531 0.0240101 -0.0228809 0.0187448 
0.0394323 -0.021923 0.019121 -0.0210835 -0.0209207 0.0184049 -0.0033641 -0.0204173 0.018407 
-0.0207996 -0.0190456 0.0192803 0.0134129 -0.0192809 0.0194301 -0.0147645 -0.0165889 0.0186072 
0.0296492 -0.015918 0.019527 0.0132043 -0.01541 0.0189 0.0323803 -0.0150629 0.0187966 
-0.0279963 -0.0141356 0.0189038 -0.00710141 -0.0133745 0.0192827 0.0144468 -0.013247 0.0185762 
-0.00528066 -0.0121118 0.0188119 0.0347312 -0.012978 0.0194649 -0.038829 -0.00978443 0.0186185 
-0.0253401 -0.0103599 0.0192293 0.0334462 -0.00930086 0.0185988 -0.0214415 -0.007536 0.0186698 
-0.0150798 -0.00698339 0.0182988 -0.0101373 -0.00698039 0.0193571 -0.00720807 -0.00608605 0.0194066 
-0.0253129 -0.0039775 0.0190053 0.0200271 -0.00425623 0.0184811 -0.0107529 -0.00365687 0.0190742 
-0.0198668 -0.00211416 0.0188539 0.0168839 -0.00210364 0.0182823 -0.0283489 -0.000417126 0.0182977 
-0.0153419 -0.00108619 0.018302 0.00127443 -0.000618905 0.0193082 0.0420414 -0.00101026 0.0194021 
0.0116524 0.00206193 0.0187387 -0.0233311 0.00384073 0.0193466 0.0183943 0.00266245 0.0185747 
0.0260144 0.00429017 0.0193851 -0.0403489 0.00598291 0.0188191 0.0358407 0.00533501 0.0189659 
-0.0429246 0.00657681 0.0188499 -0.019893 0.00878872 0.0194141 -0.0105861 0.00898083 0.0185566 
0.0324887 0.00836074 0.0191056 0.0234497 0.00978487 0.0190799 -0.00808524 0.0113378 0.0194942 
-0.00071691 0.0108932 0.0189494 -0.00841171 0.0143034 0.0184721 0.012949 0.0143048 0.0192766 
0.0396593 0.013993 0.0185557 -0.0287818 0.014969 0.0192315 -0.0231109 0.0157017 0.0188216 
-0.0408838 0.0159645 0.0189548 -0.0286532 0.0159811 0.0192795 -0.00317984 0.0164631 0.0192721 
-0.0436896 0.0195853 0.0194111 -0.0363159 0.0185996 0.01923 -0.0324762 0.0230005 0.0192835 
-0.0148746 0.0223253 0.0185719 0.00126512 0.0228658 0.0185232 -0.0436572 0.0238848 0.019164 
-0.0128609 0.0265935 0.0187351 -0.0214233 0.0285543 0.0192996 0.0397191 0.0283771 0.0191634 
0.0040127 0.0314243 0.0193339 0.0191028 0.0315895 0.0186663 0.0193546 0.0324404 0.0189995 
-0.0425374 0.0333781 0.0190234 0.00727395 0.0332762 0.0182866 0.0278529 0.0342296 0.0192395 
0.00888594 0.0360502 0.0185912 0.00367032 0.0371324 0.0193064 -0.00585061 0.0388609 0.0182543 
0.00201585 0.0404036 0.0190018 0.00528787 0.0432844 0.0186293 -0.0390775 0.0447256 0.0188191 
-0.0317519 -0.0446953 0.0197788 0.00849583 -0.0405939 0.0196685 -0.0234086 -0.038644 0.0198683 
-0.0179089 -0.0346335 0.0199522 0.043014 -0.0343178 0.0205759 0.010226 -0.0308634 0.0196889 
0.0156293 -0.0283842 0.0195909 0.0350196 -0.0250011 0.0204807 -0.038621 -0.0229432 0.0196794 
0.0204492 -0.0194639 0.020274 0.00886689 -0.0141191 0.0197202 0.0253763 -0.011051 0.0198076 
0.0218314 -0.00971151 0.0195696 -0.00254916 -0.00379952 0.0193646 -0.0332593 0.000859011 0.0196405 
0.0189244 0.00254502 0.019814 -0.027449 0.00511055 0.0195596 -0.01547 0.00642247 0.0197542 
0.0133448 0.00646544 0.020214 -0.00598638 0.00689803 0.0208172 -0.0408306 0.00999374 0.0195993 
0.027557 0.009967 0.0196706 0.00418285 0.0112423 0.020282 -0.0161548 0.0159009 0.0197518 
0.00742845 0.0199749 0.0197746 -0.0138035 0.0240512 0.0195691 -0.0132251 0.0252506 0.019755 
0.0337272 0.0324898 0.0196302 0.0380057 0.0324307 0.0197338 -0.0359241 0.0337864 0.0205009 
0.0132394 0.0345575 0.0204472 -0.00750544 0.0361316 0.0196562 -0.0379532 0.0399341 0.0196731 
-0.00785852 0.041878 0.0198378 0.0170579 0.0421878 0.0197105 0.0430506 0.0422314 0.0197528 
-0.0190394 0.0446837 0.0203291 0.0147823 -0.0446949 0.0208698 -0.00682403 -0.0314098 0.0215848 
0.0272875 -0.0186725 0.0214559 0.0386193 -0.00496685 0.0210381 -0.0131355 0.00164571 0.0211229 
-0.0137512 0.00384646 0.0214583 -0.009285 0.00693532 0.0210177 -0.0408092 0.00981999 0.0211307 
0.021223 0.0244832 0.0209814 -0.014478 0.0275162 0.0210831 -0.0225361 -0.0441701 0.0230955 
0.0127657 -0.00746761 0.0227797 0.0448793 -0.00396119 0.0227538 -0.0442311 0.00821601 0.0229549 
0.00976298 0.0163696 0.0224827 -0.0260391 0.0304395 0.022991 0.0352883 -0.0103067 0.0237893 
-0.0122189 0.0175978 0.0237425 0.039455 -0.000236508 0.0250139 0.0242571 -0.0100823 0.0341399 

VERTICES 649 648
OFFSETS vtktypeint64
0 1 2 3 4 5 6 7 8 
9 10 11 12 13 14 15 16 17 
18 19 20 21 22 23 24 25 26 
27 28 29 30 31 32 33 34 35 
36 37 38 39 40 41 42 43 44 
45 46 47 48 49 50 51 52 53 
54 55 56 57 58 59 60 61 62 
63 64 65 66 67 68 69 70 71 
72 73 74 75 76 77 78 79 80 
81 82 83 84 85 86 87 88 89 
90 91 92 93 94 95 96 97 98 
99 100 101 102 103 104 105 106 107 
108 109 110 111 112 113 114 115 116 
117 118 119 120 121 122 123 124 125 
126 127 128 129 130 131 132 133 134 
135 136 137 138 139 140 141 142 143 
144 145 146 147 148 149 150 151 152 
153 154 155 156 157 158 159 160 161 
162 163 164 165 166 167 168 169 170 
171 172 173 174 175 176 177 178 179 
180 181 182 183 184 185 186 187 188 
189 190 191 192 193 194 195 196 197 
198 199 200 201 202 203 204 205 206 
207 208 209 210 211 212 213 214 215 
216 217 218 219 220 221 222 223 224 
225 226 227 228 229 230 231 232 233 
234 235 236 237 238 239 240 241 242 
243 244 245 246 247 248 249 250 251 
252 253 254 255 256 257 258 259 260 
261 262 263 264 265 266 267 268 269 
270 271 272 273 274 275 276 277 278 
279 280 281 282 283 284 285 286 287 
288 289 290 291 292 293 294 295 296 
297 298 299 300 301 302 303 304 305 
306 307 308 309 310 311 312 313 314 
315 316 317 318 319 320 321 322 323 
324 325 326 327 328 329 330 331 332 
333 334 335 336 337 338 339 340 341 
342 343 344 345 346 347 348 349 350 
351 352 353 354 355 356 357 358 359 
360 361 362 363 364 365 366 367 368 
369 370 371 372 373 374 375 376 377 
378 379 380 381 382 383 384 385 386 
387 388 389 390 391 392 393 394 395 
396 397 398 399 400 401 402 403 404 
405 406 407 408 409 410 411 412 413 
414 415 416 417 418 419 420 421 422 
423 424 425 426 427 428 429 430 431 
432 433 434 435 436 437 438 439 440 
441 442 443 444 445 446 447 448 449 
450 451 452 453 454 455 456 457 458 
459 460 461 462 463 464 465 466 467 
468 469 470 471 472 473 474 475 476 
477 478 479 480 481 482 483 484 485 
486 487 488 489 490 491 492 493 494 
495 496 497 498 499 500 501 502 503 
504 505 506 507 508 509 510 511 512 
513 514 515 516 517 518 519 520 521 
522 523 524 525 526 527 528 529 530 
531 532 533 534 535 536 537 538 539 
540 541 542 543 544 545 546 547 548 
549 550 551 552 553 554 555 556 557 
558 559 560 561 562 563 564 565 566 
567 568 569 570 571 572 573 574 575 
576 577 578 579 580 581 582 583 584 
585 586 587 588 589 590 591 592 593 
594 595 596 597 598 599 600 601 602 
603 604 605 606 607 608 609 610 611 
612 613 614 615 616 617 618 619 620 
621 622 623 624 625 626 627 628 629 
630 631 632 633 634 635 636 637 638 
639 640 641 642 643 644 645 646 647 
648 
CONNECTIVITY vtktypeint64
0 1 2 3 4 5 6 7 8 
9 10 11 12 13 14 15 16 17 
18 19 20 21 22 23 24 25 26 
27 28 29 30 31 32 33 34 35 
36 37 38 39 40 41 42 43 44 
45 46 47 48 49 50 51 52 53 
54 55 56 57 58 59 60 61 62 
63 64 65 66 67 68 69 70 71 
72 73 74 75 76 77 78 79 80 
81 82 83 84 85 86 87 88 89 
90 91 92 93 94 95 96 97 98 
99 100 101 102 103 104 105 106 107 
108 109 110 111 112 113 114 115 116 
117 118 119 120 121 122 123 124 125 
126 127 128 129 130 131 132 133 134 
135 136 137 138 139 140 141 142 143 
144 145 146 147 148 149 150 151 152 
153 154 155 156 157 158 159 160 161 
162 163 164 165 166 167 168 169 170 
171 172 173 174 175 176 177 178 179 
180 181 182 183 184 185 186 187 188 
189 190 191 192 193 194 195 196 197 
198 199 200 201 202 203 204 205 206 
207 208 209 210 211 212 213 214 215 
216 217 218 219 220 221 222 223 224 
225 226 227 228 229 230 231 232 233 
234 235 236 237 238 239 240 241 242 
243 244 245 246 247 248 249 250 251 
252 253 254 255 256 257 258 259 260 
261 262 263 264 265 266 267 268 269 
270 271 272 273 274 275 276 277 278 
279 280 281 282 283 284 285 286 287 
288 289 290 291 292 293 294 295 296 
297 298 299 300 301 302 303 304 305 
306 307 308 309 310 311 312 313 314 
315 316 317 318 319 320 321 322 323 
324 325 326 327 328 329 330 331 332 
333 334 335 336 337 338 339 340 341 
342 343 344 345 346 347 348 349 350 
351 352 353 354 355 356 357 358 359 
360 361 362 363 364 365 366 367 368 
369 370 371 372 373 374 375 376 377 
378 379 380 381 382 383 384 385 386 
387 388 389 390 391 392 393 394 395 
396 397 398 399 400 401 402 403 404 
405 406 407 408 409 410 411 412 413 
414 415 416 417 418 419 420 421 422 
423 424 425 426 427 428 429 430 431 
432 433 434 435 436 437 438 439 440 
441 442 443 444 445 446 447 448 449 
450 451 452 453 454 455 456 457 458 
459 460 461 462 463 464 465 466 467 
468 469 470 471 472 473 474 475 476 
477 478 479 480 481 482 483 484 485 
486 487 488 489 490 491 492 493 494 
495 496 497 498 499 500 501 502 503 
504 505 506 507 508 509 510 511 512 
513 514 515 516 517 518 519 520 521 
522 523 524 525 526 527 528 529 530 
531 532 533 534 535 536 537 538 539 
540 541 542 543 544 545 546 547 548 
549 550 551 552 553 554 555 556 557 
558 559 560 561 562 563 564 565 566 
567 568 569 570 571 572 573 574 575 
576 577 578 579 580 581 582 583 584 
585 586 587 588 589 590 591 592 593 
594 595 596 597 598 599 600 601 602 
603 604 605 606 607 608 609 610 611 
612 613 614 615 616 617 618 619 620 
621 622 623 624 625 626 627 628 629 
630 631 632 633 634 635 636 637 638 
639 640 641 642 643 644 645 646 647 

POINT_DATA 648
FIELD FieldData 12
id 1 648 int
164 185 72 647 18 195 648 115 584 
190 602 383 57 630 465 418 396 450 
169 150 491 433 609 606 632 92 304 
106 293 608 370 458 214 339 582 166 
588 219 600 362 643 459 626 634 629 
154 175 407 297 310 619 625 49 506 
611 372 635 508 404 574 317 470 289 
444 292 610 568 132 66 36 432 620 
85 624 246 386 639 463 200 134 51 
347 107 137 331 267 282 439 355 603 
231 428 478 456 467 197 322 633 110 
521 163 26 327 270 575 597 356 88 
291 645 604 581 238 176 590 381 215 
644 227 515 385 598 86 593 423 556 
261 288 595 607 149 646 637 583 412 
614 366 218 207 35 34 24 605 303 
578 64 58 612 599 628 544 617 127 
569 336 615 592 631 353 129 255 601 
60 622 40 189 187 201 579 552 328 
318 555 62 586 534 562 577 87 367 
571 616 570 543 128 121 541 237 479 
440 247 618 572 168 585 638 157 324 
6 243 567 125 542 83 565 186 538 
613 546 165 373 401 202 308 193 364 
535 504 594 158 623 253 148 29 320 
346 140 457 256 226 589 352 294 71 
472 573 73 537 554 483 260 563 368 
299 11 257 341 334 56 420 345 469 
560 392 507 100 408 280 461 596 488 
343 268 348 251 233 531 108 272 31 
591 489 333 636 548 445 576 167 174 
539 496 349 427 399 42 580 557 263 
135 204 621 141 503 454 426 338 273 
587 417 117 561 514 337 109 12 162 
410 509 321 114 550 437 155 361 91 
406 98 188 549 99 314 22 82 159 
436 518 319 69 229 505 139 533 502 
409 415 627 532 547 160 558 274 551 
553 143 374 290 194 500 530 380 566 
248 95 360 564 90 495 545 126 424 
112 497 181 262 46 220 118 443 33 
529 14 199 419 222 94 235 232 182 
559 536 435 302 351 55 438 275 84 
113 203 390 429 326 411 122 103 527 
183 526 449 298 240 306 8 264 32 
382 75 61 641 486 528 400 378 21 
446 384 178 358 184 447 161 357 287 
330 254 104 520 9 498 30 524 451 
540 387 309 198 413 523 76 375 414 
52 487 344 477 525 295 640 96 13 
484 513 192 329 28 517 170 59 211 
146 311 53 511 278 377 252 142 20 
151 265 196 519 244 216 474 510 119 
395 236 63 54 138 431 279 206 81 
313 397 475 89 93 258 471 68 271 
312 210 359 102 67 492 388 350 156 
239 307 5 250 393 354 147 430 493 
116 79 223 234 416 323 111 403 25 
177 44 462 422 376 74 276 490 460 
43 259 16 23 38 10 522 39 224 
285 105 171 405 371 205 217 365 80 
208 212 305 379 501 153 301 124 144 
145 296 442 221 17 41 363 48 70 
315 228 473 152 485 130 325 394 191 
266 209 179 332 481 65 455 225 421 
286 482 45 123 342 476 242 136 173 
402 47 283 120 335 37 448 441 340 
101 642 389 77 284 245 512 213 453 
480 464 468 281 97 131 180 466 494 
391 452 249 277 434 19 172 241 398 
516 133 499 300 425 4 78 369 230 
27 50 316 15 269 3 7 2 1 

type 1 648 int
1 1 1 1 1 1 1 1 1 
1 1 1 1 1 1 1 1 1 
1 1 1 1 1 1 1 1 1 
1 1 1 1 1 1 1 1 1 
1 1 1 1 1 1 1 2 1 
1 1 1 1 1 1 1 1 1 
1 1 1 1 1 1 1 1 1 
1 1 1 1 1 1 1 1 1 
1 1 1 1 1 1 1 1 1 
1 1 1 1 1 1 1 1 1 
1 1 1 1 1 1 1 1 1 
1 1 1 1 1 1 1 1 1 
1 1 1 1 1 1 1 1 1 
1 1 1 1 1 1 1 1 1 
1 1 1 1 1 1 1 1 1 
1 1 1 1 1 1 1 1 1 
1 1 1 1 1 1 1 1 1 
1 1 1 1 1 1 1 1 1 
1 1 1 1 1 1 1 1 1 
1 1 1 1 1 1 1 1 1 
1 1 1 1 1 1 1 1 1 
1 1 1 1 1 1 1 1 1 
2 1 1 1 1 1 1 1 1 
1 1 1 1 1 1 1 1 1 
1 1 1 1 1 1 1 1 1 
1 1 1 1 1 1 1 1 1 
1 1 1 1 1 1 1 1 1 
1 2 1 1 1 1 1 1 1 
1 1 1 1 1 1 1 1 1 
1 1 1 1 1 1 1 1 1 
1 1 1 1 1 1 1 1 1 
1 1 1 1 1 1 1 1 1 
1 1 1 1 1 1 1 1 1 
1 1 1 1 1 1 1 2 1 
1 1 1 1 1 1 1 1 1 
1 1 1 1 1 1 1 1 1 
1 1 1 1 1 1 1 1 1 
1 1 1 1 1 1 1 1 1 
1 1 1 1 1 1 1 1 1 
1 1 1 1 1 1 1 1 1 
1 1 1 1 1 1 1 1 1 
1 2 1 1 1 1 1 1 1 
1 1 1 1 1 1 1 1 1 
1 1 1 1 1 1 1 1 1 
1 1 1 1 1 1 2 1 1 
1 1 1 1 1 1 1 1 1 
1 1 1 1 1 1 1 1 1 
1 1 1 1 2 1 1 1 1 
1 1 1 1 1 1 1 1 1 
1 1 1 1 1 1 1 1 2 
1 1 1 1 1 1 1 1 1 
1 1 1 1 1 1 1 1 1 
1 1 1 1 1 1 1 1 1 
1 1 1 1 1 1 1 1 1 
1 1 1 1 1 1 1 1 1 
1 1 1 1 1 1 1 1 1 
1 1 2 1 1 1 1 1 1 
1 1 1 1 1 1 1 1 1 
1 1 1 1 1 1 1 1 1 
1 1 2 1 1 2 1 1 1 
1 1 1 1 1 1 1 1 1 
1 1 1 1 1 1 1 1 1 
1 1 1 1 1 1 1 1 1 
1 1 1 1 1 1 1 1 1 
1 1 1 1 1 1 1 1 1 
1 1 1 1 1 1 1 1 1 
1 1 1 1 1 1 1 1 1 
1 1 1 1 1 1 2 1 1 
1 1 1 1 1 1 1 1 1 
1 1 1 1 1 1 1 1 1 
2 1 1 1 1 2 1 1 1 
1 1 1 2 1 2 2 3 4 

i 3 648 int
0 0 0 0 0 0 0 0 0 
0 0 0 0 0 0 0 0 0 
0 0 0 0 0 0 0 0 0 
0 0 0 0 0 0 0 0 0 
0 0 0 0 0 0 0 0 0 
0 0 0 0 0 0 0 0 0 
0 0 0 0 0 0 0 0 0 
0 0 0 0 0 0 0 0 0 
0 0 0 0 0 0 0 0 0 
0 0 0 0 0 0 0 0 0 
0 0 0 0 0 0 0 0 0 
0 0 0 0 0 0 0 0 0 
0 0 0 0 0 0 0 0 0 
0 0 0 0 0 0 0 0 0 
0 0 0 0 0 0 0 0 0 
0 0 0 0 0 0 0 0 0 
0 0 0 0 0 0 0 0 0 
0 0 0 0 0 0 0 0 0 
0 0 0 0 0 0 0 0 0 
0 0 0 0 0 0 0 0 0 
0 0 0 0 0 0 0 0 0 
0 0 0 0 0 0 0 0 0 
0 0 0 0 0 0 0 0 0 
0 0 0 0 0 0 0 0 0 
0 0 0 0 0 0 0 0 0 
0 0 0 0 0 0 0 0 0 
0 0 0 0 0 0 0 0 0 
0 0 0 0 0 0 0 0 0 
0 0 0 0 0 0 0 0 0 
0 0 0 0 0 0 0 0 0 
0 0 0 0 0 0 0 0 0 
0 0 0 0 0 0 0 0 0 
0 0 0 0 0 0 0 0 0 
0 0 0 0 0 0 0 0 0 
0 0 0 0 0 0 0 0 0 
0 0 0 0 0 0 0 0 0 
0 0 0 0 0 0 0 0 0 
0 0 0 0 0 0 0 0 0 
0 0 0 0 0 0 0 0 0 
0 0 0 0 0 0 0 0 0 
0 0 0 0 0 0 0 0 0 
0 0 0 0 0 0 0 0 0 
0 0 0 0 0 0 0 0 0 
0 0 0 0 0 0 0 0 0 
0 0 0 0 0 0 0 0 0 
0 0 0 0 0 0 0 0 0 
0 0 0 0 0 0 0 0 0 
0 0 0 0 0 0 0 0 0 
0 0 0 0 0 0 0 0 0 
0 0 0 0 0 0 0 0 0 
0 0 0 0 0 0 0 0 0 
0 0 0 0 0 0 0 0 0 
0 0 0 0 0 0 0 0 0 
0 0 0 0 0 0 0 0 0 
0 0 0 0 0 0 0 0 0 
0 0 0 0 0 0 0 0 0 
0 0 0 0 0 0 0 0 0 
0 0 0 0 0 0 0 0 0 
0 0 0 0 0 0 0 0 0 
0 0 0 0 0 0 0 0 0 
0 0 0 0 0 0 0 0 0 
0 0 0 0 0 0 0 0 0 
0 0 0 0 0 0 0 0 0 
0 0 0 0 0 0 0 0 0 
0 0 0 0 0 0 0 0 0 
0 0 0 0 0 0 0 0 0 
0 0 0 0 0 0 0 0 0 
0 0 0 0 0 0 0 0 0 
0 0 0 0 0 0 0 0 0 
0 0 0 0 0 0 0 0 0 
0 0 0 0 0 0 0 0 0 
0 0 0 0 0 0 0 0 0 
0 0 0 0 0 0 0 0 0 
0 0 0 0 0 0 0 0 0 
0 0 0 0 0 0 0 0 0 
0 0 0 0 0 0 0 0 0 
0 0 0 0 0 0 0 0 0 
0 0 0 0 0 0 0 0 0 
0 0 0 0 0 0 0 0 0 
0 0 0 0 0 0 0 0 0 
0 0 0 0 0 0 0 0 0 
0 0 0 0 0 0 0 0 0 
0 0 0 0 0 0 0 0 0 
0 0 0 0 0 0 0 0 0 
0 0 0 0 0 0 0 0 0 
0 0 0 0 0 0 0 0 0 
0 0 0 0 0 0 0 0 0 
0 0 0 0 0 0 0 0 0 
0 0 0 0 0 0 0 0 0 
0 0 0 0 0 0 0 0 0 
0 0 0 0 0 0 0 0 0 
0 0 0 0 0 0 0 0 0 
0 0 0 0 0 0 0 0 0 
0 0 0 0 0 0 0 0 0 
0 0 0 0 0 0 0 0 0 
0 0 0 0 0 0 0 0 0 
0 0 0 0 0 0 0 0 0 
0 0 0 0 0 0 0 0 0 
0 0 0 0 0 0 0 0 0 
0 0 0 0 0 0 0 0 0 
0 0 0 0 0 0 0 0 0 
0 0 0 0 0 0 0 0 0 
0 0 0 0 0 0 0 0 0 
0 0 0 0 0 0 0 0 0 
0 0 0 0 0 0 0 0 0 
0 0 0 0 0 0 0 0 0 
0 0 0 0 0 0 0 0 0 
0 0 0 0 0 0 0 0 0 
0 0 0 0 0 0 0 0 0 
0 0 0 0 0 0 0 0 0 
0 0 0 0 0 0 0 0 0 
0 0 0 0 0 0 0 0 0 
0 0 0 0 0 0 0 0 0 
0 0 0 0 0 0 0 0 0 
0 0 0 0 0 0 0 0 0 
0 0 0 0 0 0 0 0 0 
0 0 0 0 0 0 0 0 0 
0 0 0 0 0 0 0 0 0 
0 0 0 0 0 0 0 0 0 
0 0 0 0 0 0 0 0 0 
0 0 0 0 0 0 0 0 0 
0 0 0 0 0 0 0 0 0 
0 0 0 0 0 0 0 0 0 
0 0 0 0 0 0 0 0 0 
0 0 0 0 0 0 0 0 0 
0 0 0 0 0 0 0 0 0 
0 0 0 0 0 0 0 0 0 
0 0 0 0 0 0 0 0 0 
0 0 0 0 0 0 0 0 0 
0 0 0 0 0 0 0 0 0 
0 0 0 0 0 0 0 0 0 
0 0 0 0 0 0 0 0 0 
0 0 0 0 0 0 0 0 0 
0 0 0 0 0 0 0 0 0 
0 0 0 0 0 0 0 0 0 
0 0 0 0 0 0 0 0 0 
0 0 0 0 0 0 0 0 0 
0 0 0 0 0 0 0 0 0 
0 0 0 0 0 0 0 0 0 
0 0 0 0 0 0 0 0 0 
0 0 0 0 0 0 0 0 0 
0 0 0 0 0 0 0 0 0 
0 0 0 0 0 0 0 0 0 
0 0 0 0 0 0 0 0 0 
0 0 0 0 0 0 0 0 0 
0 0 0 0 0 0 0 0 0 
0 0 0 0 0 0 0 0 0 
0 0 0 0 0 0 0 0 0 
0 0 0 0 0 0 0 0 0 
0 0 0 0 0 0 0 0 0 
0 0 0 0 0 0 0 0 0 
0 0 0 0 0 0 0 0 0 
0 0 0 0 0 0 0 0 0 
0 0 0 0 0 0 0 0 0 
0 0 0 0 0 0 0 0 0 
0 0 0 0 0 0 0 0 0 
0 0 0 0 0 0 0 0 0 
0 0 0 0 0 0 0 0 0 
0 0 0 0 0 0 0 0 0 
0 0 0 0 0 0 0 0 0 
0 0 0 0 0 0 0 0 0 
0 0 0 0 0 0 0 0 0 
0 0 0 0 0 0 0 0 0 
0 0 0 0 0 0 0 0 0 
0 0 0 0 0 0 0 0 0 
0 0 0 0 0 0 0 0 0 
0 0 0 0 0 0 0 0 0 
0 0 0 0 0 0 0 0 0 
0 0 0 0 0 0 0 0 0 
0 0 0 0 0 0 0 0 0 
0 0 0 0 0 0 0 0 0 
0 0 0 0 0 0 0 0 0 
0 0 0 0 0 0 0 0 0 
0 0 0 0 0 0 0 0 0 
0 0 0 0 0 0 0 0 0 
0 0 0 0 0 0 0 0 0 
0 0 0 0 0 0 0 0 0 
0 0 0 0 0 0 0 0 0 
0 0 0 0 0 0 0 0 0 
0 0 0 0 0 0 0 0 0 
0 0 0 0 0 0 0 0 0 
0 0 0 0 0 0 0 0 0 
0 0 0 0 0 0 0 0 0 
0 0 0 0 0 0 0 0 0 
0 0 0 0 0 0 0 0 0 
0 0 0 0 0 0 0 0 0 
0 0 0 0 0 0 0 0 0 
0 0 0 0 0 0 0 0 0 
0 0 0 0 0 0 0 0 0 
0 0 0 0 0 0 0 0 0 
0 0 0 0 0 0 0 0 0 
0 0 0 0 0 0 0 0 0 
0 0 0 0 0 0 0 0 0 
0 0 0 0 0 0 0 0 0 
0 0 0 0 0 0 0 0 0 
0 0 0 0 0 0 0 0 0 
0 0 0 0 0 0 0 0 0 
0 0 0 0 0 0 0 0 0 
0 0 0 0 0 0 0 0 0 
0 0 0 0 0 0 0 0 0 
0 0 0 0 0 0 0 0 0 
0 0 0 0 0 0 0 0 0 
0 0 0 0 0 0 0 0 0 
0 0 0 0 0 0 0 0 0 
0 0 0 0 0 0 0 0 0 
0 0 0 0 0 0 0 0 0 
0 0 0 0 0 0 0 0 0 
0 0 0 0 0 0 0 0 0 
0 0 0 0 0 0 0 0 0 
0 0 0 0 0 0 0 0 0 
0 0 0 0 0 0 0 0 0 
0 0 0 0 0 0 0 0 0 
0 0 0 0 0 0 0 0 0 
0 0 0 0 0 0 0 0 0 
0 0 0 0 0 0 0 0 0 
0 0 0 0 0 0 0 0 0 

v 3 648 double
0 0 0.060490177855 0 0 -0.17062346426 0 0 -0.17019774539 
0 0 0.23794064817 0 0 0.061205258516 0 0 0.061909702493 
0 0 -0.62012418749 0 0 0.047482567247 0 0 0.20831777323 
0 0 -0.16401588927 0 0 -0.65587418749 0 0 0.050348781283 
0 0 0.040057312389 0 0 0.25368695153 0 0 0.049786248862 
0 0 -0.16214944263 0 0 0.060085226722 0 0 -0.16790105475 
0 0 -0.17443616986 0 0 -0.16539480571 0 0 -0.17066286718 
0 0 -0.16016239164 0 0 0.2349151708 0 0 0.25103446253 
0 0 -0.62987418749 0 0 -0.1541629099 0 0 -0.15581831144 
0 0 -0.1596582918 0 0 -0.15993797078 0 0 0.24011827241 
0 0 -0.16517017269 0 0 -0.15018413114 0 0 -0.16242909195 
0 0 -0.15201304245 0 0 0.20117273284 0 0 -0.15261523565 
0 0 0.26824217133 0 0 -0.16521374844 0 0 0.19783637585 
0 0 -0.16732167636 0 0 -0.62012418749 0 0 -0.15223589665 
0 0 0.15583415046 0 0 0.23383423907 0 0 0.20056548616 
0 0 -0.14693392709 0 0 -0.14532900938 0 0 -0.14857492772 
0 0 -0.13956782635 0 0 -0.14462322935 0 0 -0.63637418749 
0 0 0.22500854909 0 0 -0.14861497859 0 0 -0.12741345729 
0 0 0.20084416271 0 0 -0.15747463862 0 0 0.19043476474 
0 0 -0.1231766083 0 0 -0.12949089817 0 0 0.17056979815 
0 0 -0.13163992948 0 0 -0.13934730115 0 0 -0.13932605129 
0 0 -0.13718237589 0 0 -0.13072346291 0 0 0.22354376206 
0 0 0.21922759914 0 0 -0.13275028642 0 0 -0.13087732366 
0 0 -0.13330442325 0 0 -0.12797773825 0 0 0.1956958262 
0 0 -0.12889087575 0 0 -0.63312418749 0 0 -0.14436599026 
0 0 -0.14185818213 0 0 0.1906421594 0 0 -0.1165277083 
0 0 -0.14951039917 0 0 -0.14884250178 0 0 -0.11526650746 
0 0 -0.1227417744 0 0 -0.14742135678 0 0 -0.11772732613 
0 0 -0.13374700625 0 0 -0.11499418105 0 0 -0.13257146881 
0 0 -0.1142481372 0 0 -0.12050568169 0 0 0.1862941842 
0 0 -0.14950614554 0 0 -0.15117179957 0 0 -0.12038565881 
0 0 -0.12350996212 0 0 -0.12020362631 0 0 -0.14805092142 
0 0 -0.13712277996 0 0 0.13038856551 0 0 -0.11585125166 
0 0 -0.088204067839 0 0 -0.1158962331 0 0 -0.14610546146 
0 0 -0.12094776032 0 0 -0.1477431149 0 0 0.19890902464 
0 0 0.12470547568 0 0 -0.13979512028 0 0 -0.13824806176 
0 0 -0.14448360654 0 0 0.079958953287 0 0 0.09258746035 
0 0 0.1750357554 0 0 -0.10439767749 0 0 -0.14115662324 
0 0 0.19282776322 0 0 -0.13504225152 0 0 -0.13412350927 
0 0 -0.62012418749 0 0 -0.10252002595 0 0 -0.088281124883 
0 0 -0.13458178279 0 0 0.12647493137 0 0 -0.14062747637 
0 0 0.10088794885 0 0 -0.14365673085 0 0 0.1432399276 
0 0 -0.10795621331 0 0 -0.10293828755 0 0 0.17297642312 
0 0 0.17923288653 0 0 -0.14220119397 0 0 -0.62012418749 
0 0 0.15423792606 0 0 0.10904809606 0 0 -0.11483251934 
0 0 0.11766255015 0 0 -0.12501862931 0 0 -0.093982098916 
0 0 -0.10944111258 0 0 -0.088078149944 0 0 -0.086450660639 
0 0 -0.095122802067 0 0 0.060517324033 0 0 -0.09688096714 
0 0 0.16804475184 0 0 -0.08391618286 0 0 -0.12358838286 
0 0 0.036903044509 0 0 0.14313754389 0 0 0.13930680619 
0 0 0.19368133856 0 0 0.15573588532 0 0 -0.13878747862 
0 0 0.16882073728 0 0 -0.13410005798 0 0 0.058760721953 
0 0 0.048679633242 0 0 -0.62987418749 0 0 -0.13126210715 
0 0 -0.081962512154 0 0 -0.092996458317 0 0 0.016839562113 
0 0 -0.10444128114 0 0 0.15540362731 0 0 -0.10501873049 
0 0 -0.12842135742 0 0 -0.12756135291 0 0 -0.082918119141 
0 0 0.097767056615 0 0 0.12136899442 0 0 -0.091745158756 
0 0 -0.10208449697 0 0 0.17051672213 0 0 -0.082264041986 
0 0 0.1542978567 0 0 0.089056882671 0 0 0.0069349728212 
0 0 0.042075731999 0 0 -0.11837897486 0 0 -0.1133788379 
0 0 0.020623416532 0 0 0.10998998909 0 0 0.057135149222 
0 0 -0.009096949808 0 0 -0.067749644665 0 0 -0.083421864998 
0 0 0.16247687259 0 0 -0.12225857505 0 0 -0.07824037539 
0 0 -0.1106384855 0 0 -0.125396644 0 0 0.15363934535 
0 0 0.051063900547 0 0 -0.084556644113 0 0 0.14966866317 
0 0 0.10089416848 0 0 -0.077411730177 0 0 -0.093425021679 
0 0 -0.13544414438 0 0 -0.083778284499 0 0 0.0025151679208 
0 0 -0.12421879099 0 0 -0.025592206466 0 0 -0.11555890065 
0 0 0.071603672562 0 0 -0.1115207402 0 0 -0.016424899532 
0 0 0.12936525154 0 0 0.016739951487 0 0 -0.1233604314 
0 0 -0.12320188129 0 0 -0.076152968323 0 0 -0.083850725187 
0 0 -0.079706864079 0 0 -0.12012698234 0 0 -0.12065145292 
0 0 0.10992066524 0 0 -0.069982405264 0 0 0.13367764491 
0 0 -0.11715414341 0 0 0.12907676567 0 0 -0.11856162176 
0 0 -0.07358034487 0 0 -0.11826746967 0 0 -0.083157986826 
0 0 -0.060542226942 0 0 -0.068913105893 0 0 -0.1093437566 
0 0 -0.10432809341 0 0 -0.067669282121 0 0 0.030030700564 
0 0 -0.059083727136 0 0 -0.048560907761 0 0 -0.041161852875 
0 0 -0.06215320104 0 0 0.11283873141 0 0 -0.10145520765 
0 0 0.16020928964 0 0 0.14621176501 0 0 -0.10901915757 
0 0 -0.05578926892 0 0 0.059329070161 0 0 -0.046173198035 
0 0 -0.056829316258 0 0 -0.11829424314 0 0 -0.05979717749 
0 0 -0.069283957257 0 0 -0.05632505477 0 0 -0.052604608418 
0 0 -0.049482895952 0 0 -0.045281848512 0 0 -0.057423220108 
0 0 0.12701794258 0 0 -0.052940130292 0 0 -0.019395734196 
0 0 -0.098382297498 0 0 -0.096195058348 0 0 -0.10925089396 
0 0 -0.054583978354 0 0 0.11160334232 0 0 -0.10532943496 
0 0 -0.062300576243 0 0 -0.057592913785 0 0 -0.045390992594 
0 0 -0.061695362436 0 0 -0.10162734056 0 0 0.15457468463 
0 0 -0.049204970249 0 0 -0.057355995575 0 0 -0.023703013155 
0 0 0.038339132461 0 0 -0.023564046249 0 0 -0.035807417449 
0 0 -0.62662418749 0 0 0.12501660075 0 0 -0.028988256021 
0 0 0.065234111818 0 0 -0.086343770859 0 0 -0.065687726126 
0 0 0.1085333582 0 0 -0.096072008413 0 0 -0.082519501934 
0 0 -0.087778009497 0 0 -0.07917502527 0 0 -0.038918526804 
0 0 0.056940175257 0 0 0.12287910281 0 0 -0.080573900821 
0 0 -0.030831446769 0 0 -0.031536290826 0 0 -0.63637418749 
0 0 -0.06987978303 0 0 -0.004481449507 0 0 -0.087647535111 
0 0 -0.029145208203 0 0 -0.018887228527 0 0 -0.042526929762 
0 0 0.049682517903 0 0 -0.088225205032 0 0 -0.042997358591 
0 0 0.11689186848 0 0 0.051681067426 0 0 -0.080044396467 
0 0 -0.040347251827 0 0 -0.11556648684 0 0 -0.089032034399 
0 0 -0.088012125312 0 0 -0.0035211080652 0 0 -0.090696758431 
0 0 -0.013916933119 0 0 0.10998564415 0 0 -0.059964154073 
0 0 -0.08620693911 0 0 -0.034982359615 0 0 -0.08025332335 
0 0 -0.087369009881 0 0 -0.06770532222 0 0 -0.073446634868 
0 0 0.051329153638 0 0 -0.004364709046 0 0 -0.070120975438 
0 0 -0.079930837262 0 0 -0.01617154627 0 0 0.0036677893989 
0 0 -0.0083542985606 0 0 0.051592682983 0 0 -0.074162566096 
0 0 0.0060421105726 0 0 -0.076033979841 0 0 -0.061003625788 
0 0 -0.011014369669 0 0 0.065166155459 0 0 0.0087345733864 
0 0 -0.07253446601 0 0 -0.067669720066 0 0 -0.63312418749 
0 0 0.078481577644 0 0 0.074460789069 0 0 -0.0036592717914 
0 0 0.11819058705 0 0 -0.010090886422 0 0 0.066129438053 
0 0 0.034982837327 0 0 -0.0024850300336 0 0 -0.010516348123 
0 0 -0.079729210032 0 0 -0.0095706787706 0 0 -0.080147003016 
0 0 0.11116414302 0 0 -0.021146441942 0 0 0.068119029516 
0 0 -0.06240051405 0 0 0.020846151307 0 0 -0.033025530546 
0 0 0.06381174555 0 0 -0.071100775799 0 0 -0.067060142894 
0 0 0.078874391257 0 0 -0.016960886878 0 0 -0.071271069893 
0 0 -0.070525235701 0 0 0.0040999160984 0 0 -0.0081819536819 
0 0 0.011113464799 0 0 -0.0034580828011 0 0 -0.0026549337303 
0 0 0.0069051948115 0 0 -0.010883396898 0 0 -0.0010377439245 
0 0 -0.021771252394 0 0 -0.1015686193 0 0 -0.074047811447 
0 0 0.020872198769 0 0 -0.071573547394 0 0 -0.040281696006 
0 0 0.02538637709 0 0 -0.040153016146 0 0 -0.021226385161 
0 0 0.012934357459 0 0 0.00737059261 0 0 -0.089801470873 
0 0 -0.014059391885 0 0 -0.071375743066 0 0 -0.015704017912 
0 0 -0.01180492494 0 0 -0.05436784492 0 0 -0.041685656959 
0 0 -0.051414024838 0 0 0.021669638326 0 0 -0.055962357771 
0 0 -0.054518249186 0 0 -0.069169603132 0 0 -0.068199149975 
0 0 -0.051078180773 0 0 0.0094106355118 0 0 0.075502923551 
0 0 -0.050988991768 0 0 0.024750666438 0 0 -0.0078585433637 
0 0 -0.062000537657 0 0 -0.05592276441 0 0 0.023903639142 
0 0 -0.08587934997 0 0 0.032108110278 0 0 -0.053675535899 
0 0 0.028151551068 0 0 -0.054700634458 0 0 -0.054171893364 
0 0 -0.62337418749 0 0 -0.05877810733 0 0 0.047193558325 
0 0 0.02688811647 0 0 -0.047509183123 0 0 -0.069624106224 
0 0 -0.051947967861 0 0 -0.062759870782 0 0 -0.040930072425 
0 0 0.016876272487 0 0 0.034733496327 0 0 -0.050009697116 
0 0 -0.052960142622 0 0 -0.057715804232 0 0 -0.048213563287 
0 0 -0.061326914824 0 0 -0.012531120466 0 0 -0.065375897951 
0 0 0.010220316595 0 0 -0.089047768369 0 0 -0.044151233811 
0 0 -0.058476677823 0 0 0.059817765594 0 0 -0.044245990923 
0 0 0.083783270976 0 0 0.015054431138 0 0 0.0065726320148 
0 0 -0.047117454133 0 0 -0.0027795215683 0 0 0.05277426587 
0 0 -0.059783529956 0 0 -0.04568984143 0 0 -0.025101667178 
0 0 -0.016289961392 0 0 -0.013131094579 0 0 0.015367301216 
0 0 -0.037177262555 0 0 0.084173346865 0 0 -0.034429039633 
0 0 -0.62337418749 0 0 -0.046266428516 0 0 -0.074959786611 
0 0 -0.045594069236 0 0 0.079985472238 0 0 0.034297354017 
0 0 -0.017216645386 0 0 -0.038206998679 0 0 0.077131470288 
0 0 -0.020437918535 0 0 -0.027644586508 0 0 -0.042720818096 
0 0 -0.025416750626 0 0 -0.039564074109 0 0 -0.018851212179 
0 0 0.022063250846 0 0 -0.031636489758 0 0 -0.04298512013 
0 0 -0.018788490112 0 0 -0.015365032229 0 0 -0.025717931822 
0 0 -0.028969948686 0 0 -0.013044768858 0 0 -0.040750834741 
0 0 0.026781956281 0 0 -0.02048570025 0 0 -0.037297340866 
0 0 -0.035614039245 0 0 0.10265594257 0 0 -0.0352846747 
0 0 -0.020858388319 0 0 -0.049815169254 0 0 -0.028169107449 
0 0 -0.058513044197 0 0 -0.0023963660932 0 0 -0.021532145425 
0 0 -0.01634803245 0 0 -0.020868881577 0 0 -0.034321514949 
0 0 -0.03605074664 0 0 -0.025164347118 0 0 -0.039206732093 
0 0 -0.008223866658 0 0 -0.0039670960531 0 0 0.026946251334 
0 0 0.014632710959 0 0 -0.0010782778353 0 0 -0.036398336741 
0 0 0.038044656469 0 0 0.024172014818 0 0 0.02048865276 
0 0 -0.019667304822 0 0 0.056864873702 0 0 0.052560990883 
0 0 0.032274565953 0 0 0.0045151502936 0 0 -0.0018921659506 
0 0 -0.0073527531151 0 0 0.033217349529 0 0 -0.060267623863 
0 0 -0.013379028129 0 0 -0.01491735652 0 0 0.014300319371 
0 0 0.0041998494813 0 0 0.0100099779 0 0 -0.010303781092 
0 0 2.7038578809e-05 0 0 -0.012532393875 0 0 -0.032336516283 
0 0 0.035092821822 0 0 -0.012792734869 0 0 -0.010750336796 
0 0 -0.024120899348 0 0 -0.003264520801 0 0 -0.0028770284162 
0 0 0.029073869986 0 0 0.040056378913 0 0 -0.010713985423 
0 0 0.042909317951 0 0 0.015113498822 0 0 -0.014635708584 
0 0 0.013289908569 0 0 0.039295910948 0 0 0.0021483798862 
0 0 0.0023375013021 0 0 0.046227260647 0 0 -0.055352460248 
0 0 0.02944466802 0 0 -0.010683791808 0 0 -0.071602363114 
0 0 0.041437775645 0 0 0.05021182451 0 0 0.05310765393 
0 0 0.0087079896577 0 0 -0.0029869651424 0 0 -0.010279505986 
0 0 0.0027425968998 0 0 -0.0064663102526 0 0 -0.014516026896 
0 0 -0.0059169121325 0 0 0.044829879511 0 0 0.030798593272 
0 0 -0.019263909128 0 0 0.013104453068 0 0 0.0015987879199 
0 0 0.0021459020004 0 0 0.030195885163 0 0 0.018319281559 
0 0 0.0012966473316 0 0 0.015128510313 0 0 -0.010483925605 
0 0 0.025644488951 0 0 0.01668362228 0 0 0.020001169186 
0 0 0.012061722759 0 0 -0.016427083038 0 0 0.028926092934 
0 0 -0.012603156155 0 0 0.035155933588 0 0 0.0055163768063 
0 0 0.017696446961 0 0 0.037847942694 0 0 0.039960395982 
0 0 0.048775230145 0 0 0.035229423577 0 0 0.010480541666 
0 0 -0.0097061983312 0 0 -0.018353715063 0 0 0.030051970095 
0 0 0.0006961427665 0 0 0.033829034031 0 0 0.0154154619 
0 0 0.025399060163 0 0 -0.0043307589317 0 0 -0.01640373409 
0 0 0.0014044822002 0 0 -0.0069449809995 0 0 0.0058924863875 
0 0 -0.0012988186327 0 0 0.017826145812 0 0 -0.021004238177 
0 0 -0.0034772279451 0 0 -0.0095523685122 0 0 0.011625292957 
0 0 0.043562359652 0 0 0.027414952664 0 0 0.0543240027 
0 0 0.043516334608 0 0 0.041556197274 0 0 0.050274071913 
0 0 0.045676185353 0 0 0.013567757493 0 0 0.058093089768 
0 0 0.018251486542 0 0 0.03230851482 0 0 0.024282053619 
0 0 0.048074854982 0 0 -0.62012418749 0 0 0.046123435473 
0 0 0.02195425621 0 0 0.036808700734 0 0 0.037094189102 
0 0 0.15117913992 0 0 0.012349228357 0 0 0.021575159567 
0 0 0.023047585433 0 0 0.055252713012 0 0 0.046218097796 
0 0 0.011729866611 0 0 0.047245669946 0 0 0.044993104285 
0 0 0.022978207205 0 0 0.019402975991 0 0 0.053196417668 
0 0 0.05431010339 0 0 0.038451280408 0 0 0.056865553033 
0 0 0.058789472105 0 0 0.032053564471 0 0 0.059063114278 
0 0 0.05491108082 0 0 0.068628965079 0 0 0.058200477741 
0 0 0.081063904819 0 0 0.067406345079 0 0 0.041620661141 
0 0 0.040041185878 0 0 0.0077906399902 0 0 -0.03926741923 
0 0 0.0011636157423 0 0 0.072799545498 0 0 0.084754661041 
0 0 0.081365859411 0 0 0.043326173882 0 0 0.049173403143 
0 0 -0.017200735574 0 0 0.07286767595 0 0 0.050966592173 
0 0 0.0521591462 0 0 -0.017930534954 0 0 0.10212995422 

f 3 648 double
0 0 -1.7425367252e-10 0 0 -1.7425367252e-10 0 0 -1.7425367252e-10 
0 0 -1.7425367252e-10 0 0 -1.7425367252e-10 0 0 -1.7425367252e-10 
0 0 -1.7425367252e-10 0 0 -1.7425367252e-10 0 0 -1.7425367252e-10 
0 0 -1.7425367252e-10 0 0 -1.7425367252e-10 0 0 -1.7425367252e-10 
0 0 -1.7425367252e-10 0 0 -1.7425367252e-10 0 0 -1.7425367252e-10 
0 0 -1.7425367252e-10 0 0 -1.7425367252e-10 0 0 -1.7425367252e-10 
0 0 -1.7425367252e-10 0 0 -1.7425367252e-10 0 0 -1.7425367252e-10 
0 0 -1.7425367252e-10 0 0 -1.7425367252e-10 0 0 -1.7425367252e-10 
0 0 -1.7425367252e-10 0 0 -1.7425367252e-10 0 0 -1.7425367252e-10 
0 0 -1.7425367252e-10 0 0 -1.7425367252e-10 0 0 -1.7425367252e-10 
0 0 -1.7425367252e-10 0 0 -1.7425367252e-10 0 0 -1.7425367252e-10 
0 0 -1.7425367252e-10 0 0 -1.7425367252e-10 0 0 -1.7425367252e-10 
0 0 -1.7425367252e-10 0 0 -1.7425367252e-10 0 0 -1.7425367252e-10 
0 0 -1.7425367252e-10 0 0 -1.7425367252e-10 0 0 -1.7425367252e-10 
0 0 -1.7425367252e-10 0 0 -8.9019973083e-09 0 0 -1.7425367252e-10 
0 0 -1.7425367252e-10 0 0 -1.7425367252e-10 0 0 -1.7425367252e-10 
0 0 -1.7425367252e-10 0 0 -1.7425367252e-10 0 0 -1.7425367252e-10 
0 0 -1.7425367252e-10 0 0 -1.7425367252e-10 0 0 -1.7425367252e-10 
0 0 -1.7425367252e-10 0 0 -1.7425367252e-10 0 0 -1.7425367252e-10 
0 0 -1.7425367252e-10 0 0 -1.7425367252e-10 0 0 -1.7425367252e-10 
0 0 -1.7425367252e-10 0 0 -1.7425367252e-10 0 0 -1.7425367252e-10 
0 0 -1.7425367252e-10 0 0 -1.7425367252e-10 0 0 -1.7425367252e-10 
0 0 -1.7425367252e-10 0 0 -1.7425367252e-10 0 0 -1.7425367252e-10 
0 0 -1.7425367252e-10 0 0 -1.7425367252e-10 0 0 -1.7425367252e-10 
0 0 -1.7425367252e-10 0 0 -1.7425367252e-10 0 0 -1.7425367252e-10 
0 0 -1.7425367252e-10 0 0 -1.7425367252e-10 0 0 -1.7425367252e-10 
0 0 -1.7425367252e-10 0 0 -1.7425367252e-10 0 0 -1.7425367252e-10 
0 0 -1.7425367252e-10 0 0 -1.7425367252e-10 0 0 -1.7425367252e-10 
0 0 -1.7425367252e-10 0 0 -1.7425367252e-10 0 0 -1.7425367252e-10 
0 0 -1.7425367252e-10 0 0 -1.7425367252e-10 0 0 -1.7425367252e-10 
0 0 -1.7425367252e-10 0 0 -1.7425367252e-10 0 0 -1.7425367252e-10 
0 0 -1.7425367252e-10 0 0 -1.7425367252e-10 0 0 -1.7425367252e-10 
0 0 -1.7425367252e-10 0 0 -1.7425367252e-10 0 0 -1.7425367252e-10 
0 0 -1.7425367252e-10 0 0 -1.7425367252e-10 0 0 -1.7425367252e-10 
0 0 -1.7425367252e-10 0 0 -1.7425367252e-10 0 0 -1.7425367252e-10 
0 0 -1.7425367252e-10 0 0 -1.7425367252e-10 0 0 -1.7425367252e-10 
0 0 -1.7425367252e-10 0 0 -1.7425367252e-10 0 0 -1.7425367252e-10 
0 0 -1.7425367252e-10 0 0 -1.7425367252e-10 0 0 -1.7425367252e-10 
0 0 -1.7425367252e-10 0 0 -1.7425367252e-10 0 0 -1.7425367252e-10 
0 0 -1.7425367252e-10 0 0 -1.7425367252e-10 0 0 -1.7425367252e-10 
0 0 -1.7425367252e-10 0 0 -1.7425367252e-10 0 0 -1.7425367252e-10 
0 0 -1.7425367252e-10 0 0 -1.7425367252e-10 0 0 -1.7425367252e-10 
0 0 -1.7425367252e-10 0 0 -1.7425367252e-10 0 0 -1.7425367252e-10 
0 0 -1.7425367252e-10 0 0 -1.7425367252e-10 0 0 -1.7425367252e-10 
0 0 -1.7425367252e-10 0 0 -1.7425367252e-10 0 0 -1.7425367252e-10 
0 0 -1.7425367252e-10 0 0 -1.7425367252e-10 0 0 -1.7425367252e-10 
0 0 -1.7425367252e-10 0 0 -1.7425367252e-10 0 0 -1.7425367252e-10 
0 0 -1.7425367252e-10 0 0 -1.7425367252e-10 0 0 -1.7425367252e-10 
0 0 -1.7425367252e-10 0 0 -1.7425367252e-10 0 0 -1.7425367252e-10 
0 0 -1.7425367252e-10 0 0 -1.7425367252e-10 0 0 -1.7425367252e-10 
0 0 -1.7425367252e-10 0 0 -1.7425367252e-10 0 0 -1.7425367252e-10 
0 0 -1.7425367252e-10 0 0 -1.7425367252e-10 0 0 -1.7425367252e-10 
0 0 -1.7425367252e-10 0 0 -1.7425367252e-10 0 0 -1.7425367252e-10 
0 0 -1.7425367252e-10 0 0 -1.7425367252e-10 0 0 -1.7425367252e-10 
0 0 -1.7425367252e-10 0 0 -1.7425367252e-10 0 0 -1.7425367252e-10 
0 0 -1.7425367252e-10 0 0 -1.7425367252e-10 0 0 -1.7425367252e-10 
0 0 -1.7425367252e-10 0 0 -1.7425367252e-10 0 0 -1.7425367252e-10 
0 0 -1.7425367252e-10 0 0 -1.7425367252e-10 0 0 -1.7425367252e-10 
0 0 -1.7425367252e-10 0 0 -1.7425367252e-10 0 0 -1.7425367252e-10 
0 0 -1.7425367252e-10 0 0 -1.7425367252e-10 0 0 -1.7425367252e-10 
0 0 -1.7425367252e-10 0 0 -1.7425367252e-10 0 0 -1.7425367252e-10 
0 0 -1.7425367252e-10 0 0 -1.7425367252e-10 0 0 -1.7425367252e-10 
0 0 -1.7425367252e-10 0 0 -1.7425367252e-10 0 0 -1.7425367252e-10 
0 0 -1.7425367252e-10 0 0 -1.7425367252e-10 0 0 -1.7425367252e-10 
0 0 -1.7425367252e-10 0 0 -1.7425367252e-10 0 0 -1.7425367252e-10 
0 0 -1.7425367252e-10 0 0 -1.7425367252e-10 0 0 -1.7425367252e-10 
0 0 -8.9019973083e-09 0 0 -1.7425367252e-10 0 0 -1.7425367252e-10 
0 0 -1.7425367252e-10 0 0 -1.7425367252e-10 0 0 -1.7425367252e-10 
0 0 -1.7425367252e-10 0 0 -1.7425367252e-10 0 0 -1.7425367252e-10 
0 0 -1.7425367252e-10 0 0 -1.7425367252e-10 0 0 -1.7425367252e-10 
0 0 -1.7425367252e-10 0 0 -1.7425367252e-10 0 0 -1.7425367252e-10 
0 0 -1.7425367252e-10 0 0 -1.7425367252e-10 0 0 -1.7425367252e-10 
0 0 -1.7425367252e-10 0 0 -1.7425367252e-10 0 0 -1.7425367252e-10 
0 0 -1.7425367252e-10 0 0 -1.7425367252e-10 0 0 -1.7425367252e-10 
0 0 -1.7425367252e-10 0 0 -1.7425367252e-10 0 0 -1.7425367252e-10 
0 0 -1.7425367252e-10 0 0 -1.7425367252e-10 0 0 -1.7425367252e-10 
0 0 -1.7425367252e-10 0 0 -1.7425367252e-10 0 0 -1.7425367252e-10 
0 0 -1.7425367252e-10 0 0 -1.7425367252e-10 0 0 -1.7425367252e-10 
0 0 -1.7425367252e-10 0 0 -1.7425367252e-10 0 0 -1.7425367252e-10 
0 0 -1.7425367252e-10 0 0 -1.7425367252e-10 0 0 -1.7425367252e-10 
0 0 -1.7425367252e-10 0 0 -1.7425367252e-10 0 0 -1.7425367252e-10 
0 0 -1.7425367252e-10 0 0 -8.9019973083e-09 0 0 -1.7425367252e-10 
0 0 -1.7425367252e-10 0 0 -1.7425367252e-10 0 0 -1.7425367252e-10 
0 0 -1.7425367252e-10 0 0 -1.7425367252e-10 0 0 -1.7425367252e-10 
0 0 -1.7425367252e-10 0 0 -1.7425367252e-10 0 0 -1.7425367252e-10 
0 0 -1.7425367252e-10 0 0 -1.7425367252e-10 0 0 -1.7425367252e-10 
0 0 -1.7425367252e-10 0 0 -1.7425367252e-10 0 0 -1.7425367252e-10 
0 0 -1.7425367252e-10 0 0 -1.7425367252e-10 0 0 -1.7425367252e-10 
0 0 -1.7425367252e-10 0 0 -1.7425367252e-10 0 0 -1.7425367252e-10 
0 0 -1.7425367252e-10 0 0 -1.7425367252e-10 0 0 -1.7425367252e-10 
0 0 -1.7425367252e-10 0 0 -1.7425367252e-10 0 0 -1.7425367252e-10 
0 0 -1.7425367252e-10 0 0 -1.7425367252e-10 0 0 -1.7425367252e-10 
0 0 -1.7425367252e-10 0 0 -1.7425367252e-10 0 0 -1.7425367252e-10 
0 0 -1.7425367252e-10 0 0 -1.7425367252e-10 0 0 -1.7425367252e-10 
0 0 -1.7425367252e-10 0 0 -1.7425367252e-10 0 0 -1.7425367252e-10 
0 0 -1.7425367252e-10 0 0 -1.7425367252e-10 0 0 -1.7425367252e-10 
0 0 -1.7425367252e-10 0 0 -1.7425367252e-10 0 0 -1.7425367252e-10 
0 0 -1.7425367252e-10 0 0 -1.7425367252e-10 0 0 -1.7425367252e-10 
0 0 -1.7425367252e-10 0 0 -1.7425367252e-10 0 0 -1.7425367252e-10 
0 0 -1.7425367252e-10 0 0 -1.7425367252e-10 0 0 -1.7425367252e-10 
0 0 -1.7425367252e-10 0 0 -1.7425367252e-10 0 0 -1.7425367252e-10 
0 0 -1.7425367252e-10 0 0 -8.9019973083e-09 0 0 -1.7425367252e-10 
0 0 -1.7425367252e-10 0 0 -1.7425367252e-10 0 0 -1.7425367252e-10 
0 0 -1.7425367252e-10 0 0 -1.7425367252e-10 0 0 -1.7425367252e-10 
0 0 -1.7425367252e-10 0 0 -1.7425367252e-10 0 0 -1.7425367252e-10 
0 0 -1.7425367252e-10 0 0 -1.7425367252e-10 0 0 -1.7425367252e-10 
0 0 -1.7425367252e-10 0 0 -1.7425367252e-10 0 0 -1.7425367252e-10 
0 0 -1.7425367252e-10 0 0 -1.7425367252e-10 0 0 -1.7425367252e-10 
0 0 -1.7425367252e-10 0 0 -1.7425367252e-10 0 0 -1.7425367252e-10 
0 0 -1.7425367252e-10 0 0 -1.7425367252e-10 0 0 -1.7425367252e-10 
0 0 -1.7425367252e-10 0 0 -1.7425367252e-10 0 0 -1.7425367252e-10 
0 0 -1.7425367252e-10 0 0 -1.7425367252e-10 0 0 -1.7425367252e-10 
0 0 -1.7425367252e-10 0 0 -1.7425367252e-10 0 0 -1.7425367252e-10 
0 0 -1.7425367252e-10 0 0 -1.7425367252e-10 0 0 -1.7425367252e-10 
0 0 -1.7425367252e-10 0 0 -1.7425367252e-10 0 0 -1.7425367252e-10 
0 0 -1.7425367252e-10 0 0 -1.7425367252e-10 0 0 -1.7425367252e-10 
0 0 -1.7425367252e-10 0 0 -1.7425367252e-10 0 0 -1.7425367252e-10 
0 0 -1.7425367252e-10 0 0 -1.7425367252e-10 0 0 -1.7425367252e-10 
0 0 -1.7425367252e-10 0 0 -1.7425367252e-10 0 0 -1.7425367252e-10 
0 0 -1.7425367252e-10 0 0 -1.7425367252e-10 0 0 -1.7425367252e-10 
0 0 -1.7425367252e-10 0 0 -1.7425367252e-10 0 0 -1.7425367252e-10 
0 0 -1.7425367252e-10 0 0 -1.7425367252e-10 0 0 -1.7425367252e-10 
0 0 -1.7425367252e-10 0 0 -1.7425367252e-10 0 0 -1.7425367252e-10 
0 0 -1.7425367252e-10 0 0 -8.9019973083e-09 0 0 -1.7425367252e-10 
0 0 -1.7425367252e-10 0 0 -1.7425367252e-10 0 0 -1.7425367252e-10 
0 0 -1.7425367252e-10 0 0 -1.7425367252e-10 0 0 -1.7425367252e-10 
0 0 -1.7425367252e-10 0 0 -1.7425367252e-10 0 0 -1.7425367252e-10 
0 0 -1.7425367252e-10 0 0 -1.7425367252e-10 0 0 -1.7425367252e-10 
0 0 -1.7425367252e-10 0 0 -1.7425367252e-10 0 0 -1.7425367252e-10 
0 0 -1.7425367252e-10 0 0 -1.7425367252e-10 0 0 -1.7425367252e-10 
0 0 -1.7425367252e-10 0 0 -1.7425367252e-10 0 0 -1.7425367252e-10 
0 0 -1.7425367252e-10 0 0 -1.7425367252e-10 0 0 -1.7425367252e-10 
0 0 -1.7425367252e-10 0 0 -1.7425367252e-10 0 0 -1.7425367252e-10 
0 0 -1.7425367252e-10 0 0 -1.7425367252e-10 0 0 -1.7425367252e-10 
0 0 -8.9019973083e-09 0 0 -1.7425367252e-10 0 0 -1.7425367252e-10 
0 0 -1.7425367252e-10 0 0 -1.7425367252e-10 0 0 -1.7425367252e-10 
0 0 -1.7425367252e-10 0 0 -1.7425367252e-10 0 0 -1.7425367252e-10 
0 0 -1.7425367252e-10 0 0 -1.7425367252e-10 0 0 -1.7425367252e-10 
0 0 -1.7425367252e-10 0 0 -1.7425367252e-10 0 0 -1.7425367252e-10 
0 0 -1.7425367252e-10 0 0 -1.7425367252e-10 0 0 -1.7425367252e-10 
0 0 -1.7425367252e-10 0 0 -1.7425367252e-10 0 0 -1.7425367252e-10 
0 0 -1.7425367252e-10 0 0 -1.7425367252e-10 0 0 -1.7425367252e-10 
0 0 -1.7425367252e-10 0 0 -8.9019973083e-09 0 0 -1.7425367252e-10 
0 0 -1.7425367252e-10 0 0 -1.7425367252e-10 0 0 -1.7425367252e-10 
0 0 -1.7425367252e-10 0 0 -1.7425367252e-10 0 0 -1.7425367252e-10 
0 0 -1.7425367252e-10 0 0 -1.7425367252e-10 0 0 -1.7425367252e-10 
0 0 -1.7425367252e-10 0 0 -1.7425367252e-10 0 0 -1.7425367252e-10 
0 0 -1.7425367252e-10 0 0 -1.7425367252e-10 0 0 -1.7425367252e-10 
0 0 -1.7425367252e-10 0 0 -1.7425367252e-10 0 0 -1.7425367252e-10 
0 0 -1.7425367252e-10 0 0 -1.7425367252e-10 0 0 -8.9019973083e-09 
0 0 -1.7425367252e-10 0 0 -1.7425367252e-10 0 0 -1.7425367252e-10 
0 0 -1.7425367252e-10 0 0 -1.7425367252e-10 0 0 -1.7425367252e-10 
0 0 -1.7425367252e-10 0 0 -1.7425367252e-10 0 0 -1.7425367252e-10 
0 0 -1.7425367252e-10 0 0 -1.7425367252e-10 0 0 -1.7425367252e-10 
0 0 -1.7425367252e-10 0 0 -1.7425367252e-10 0 0 -1.7425367252e-10 
0 0 -1.7425367252e-10 0 0 -1.7425367252e-10 0 0 -1.7425367252e-10 
0 0 -1.7425367252e-10 0 0 -1.7425367252e-10 0 0 -1.7425367252e-10 
0 0 -1.7425367252e-10 0 0 -1.7425367252e-10 0 0 -1.7425367252e-10 
0 0 -1.7425367252e-10 0 0 -1.7425367252e-10 0 0 -1.7425367252e-10 
0 0 -1.7425367252e-10 0 0 -1.7425367252e-10 0 0 -1.7425367252e-10 
0 0 -1.7425367252e-10 0 0 -1.7425367252e-10 0 0 -1.7425367252e-10 
0 0 -1.7425367252e-10 0 0 -1.7425367252e-10 0 0 -1.7425367252e-10 
0 0 -1.7425367252e-10 0 0 -1.7425367252e-10 0 0 -1.7425367252e-10 
0 0 -1.7425367252e-10 0 0 -1.7425367252e-10 0 0 -1.7425367252e-10 
0 0 -1.7425367252e-10 0 0 -1.7425367252e-10 0 0 -1.7425367252e-10 
0 0 -1.7425367252e-10 0 0 -1.7425367252e-10 0 0 -1.7425367252e-10 
0 0 -1.7425367252e-10 0 0 -1.7425367252e-10 0 0 -1.7425367252e-10 
0 0 -1.7425367252e-10 0 0 -1.7425367252e-10 0 0 -1.7425367252e-10 
0 0 -1.7425367252e-10 0 0 -1.7425367252e-10 0 0 -8.9019973083e-09 
0 0 -1.7425367252e-10 0 0 -1.7425367252e-10 0 0 -1.7425367252e-10 
0 0 -1.7425367252e-10 0 0 -1.7425367252e-10 0 0 -1.7425367252e-10 
0 0 -1.7425367252e-10 0 0 -1.7425367252e-10 0 0 -1.7425367252e-10 
0 0 -1.7425367252e-10 0 0 -1.7425367252e-10 0 0 -1.7425367252e-10 
0 0 -1.7425367252e-10 0 0 -1.7425367252e-10 0 0 -1.7425367252e-10 
0 0 -1.7425367252e-10 0 0 -1.7425367252e-10 0 0 -1.7425367252e-10 
0 0 -1.7425367252e-10 0 0 -1.7425367252e-10 0 0 -1.7425367252e-10 
0 0 -1.7425367252e-10 0 0 -1.7425367252e-10 0 0 -1.7425367252e-10 
0 0 -1.7425367252e-10 0 0 -1.7425367252e-10 0 0 -8.9019973083e-09 
0 0 -1.7425367252e-10 0 0 -1.7425367252e-10 0 0 -8.9019973083e-09 
0 0 -1.7425367252e-10 0 0 -1.7425367252e-10 0 0 -1.7425367252e-10 
0 0 -1.7425367252e-10 0 0 -1.7425367252e-10 0 0 -1.7425367252e-10 
0 0 -1.7425367252e-10 0 0 -1.7425367252e-10 0 0 -1.7425367252e-10 
0 0 -1.7425367252e-10 0 0 -1.7425367252e-10 0 0 -1.7425367252e-10 
0 0 -1.7425367252e-10 0 0 -1.7425367252e-10 0 0 -1.7425367252e-10 
0 0 -1.7425367252e-10 0 0 -1.7425367252e-10 0 0 -1.7425367252e-10 
0 0 -1.7425367252e-10 0 0 -1.7425367252e-10 0 0 -1.7425367252e-10 
0 0 -1.7425367252e-10 0 0 -1.7425367252e-10 0 0 -1.7425367252e-10 
0 0 -1.7425367252e-10 0 0 -1.7425367252e-10 0 0 -1.7425367252e-10 
0 0 -1.7425367252e-10 0 0 -1.7425367252e-10 0 0 -1.7425367252e-10 
0 0 -1.7425367252e-10 0 0 -1.7425367252e-10 0 0 -1.7425367252e-10 
0 0 -1.7425367252e-10 0 0 -1.7425367252e-10 0 0 -1.7425367252e-10 
0 0 -1.7425367252e-10 0 0 -1.7425367252e-10 0 0 -1.7425367252e-10 
0 0 -1.7425367252e-10 0 0 -1.7425367252e-10 0 0 -1.7425367252e-10 
0 0 -1.7425367252e-10 0 0 -1.7425367252e-10 0 0 -1.7425367252e-10 
0 0 -1.7425367252e-10 0 0 -1.7425367252e-10 0 0 -1.7425367252e-10 
0 0 -1.7425367252e-10 0 0 -1.7425367252e-10 0 0 -1.7425367252e-10 
0 0 -1.7425367252e-10 0 0 -1.7425367252e-10 0 0 -1.7425367252e-10 
0 0 -1.7425367252e-10 0 0 -1.7425367252e-10 0 0 -1.7425367252e-10 
0 0 -1.7425367252e-10 0 0 -1.7425367252e-10 0 0 -1.7425367252e-10 
0 0 -1.7425367252e-10 0 0 -1.7425367252e-10 0 0 -1.7425367252e-10 
0 0 -1.7425367252e-10 0 0 -1.7425367252e-10 0 0 -1.7425367252e-10 
0 0 -1.7425367252e-10 0 0 -1.7425367252e-10 0 0 -1.7425367252e-10 
0 0 -1.7425367252e-10 0 0 -1.7425367252e-10 0 0 -1.7425367252e-10 
0 0 -8.9019973083e-09 0 0 -1.7425367252e-10 0 0 -1.7425367252e-10 
0 0 -1.7425367252e-10 0 0 -1.7425367252e-10 0 0 -1.7425367252e-10 
0 0 -1.7425367252e-10 0 0 -1.7425367252e-10 0 0 -1.7425367252e-10 
0 0 -1.7425367252e-10 0 0 -1.7425367252e-10 0 0 -1.7425367252e-10 
0 0 -1.7425367252e-10 0 0 -1.7425367252e-10 0 0 -1.7425367252e-10 
0 0 -1.7425367252e-10 0 0 -1.7425367252e-10 0 0 -1.7425367252e-10 
0 0 -1.7425367252e-10 0 0 -1.7425367252e-10 0 0 -1.7425367252e-10 
0 0 -8.9019973083e-09 0 0 -1.7425367252e-10 0 0 -1.7425367252e-10 
0 0 -1.7425367252e-10 0 0 -1.7425367252e-10 0 0 -8.9019973083e-09 
0 0 -1.7425367252e-10 0 0 -1.7425367252e-10 0 0 -1.7425367252e-10 
0 0 -1.7425367252e-10 0 0 -1.7425367252e-10 0 0 -1.7425367252e-10 
0 0 -8.9019973083e-09 0 0 -1.7425367252e-10 0 0 -8.9019973083e-09 
0 0 -8.9019973083e-09 0 0 -6.8918688838e-08 0 0 -5.3297119368e-07 

radius 1 648 double
2e-05 2e-05 2e-05 2e-05 2e-05 2e-05 2e-05 2e-05 2e-05 
2e-05 2e-05 2e-05 2e-05 2e-05 2e-05 2e-05 2e-05 2e-05 
2e-05 2e-05 2e-05 2e-05 2e-05 2e-05 2e-05 2e-05 2e-05 
2e-05 2e-05 2e-05 2e-05 2e-05 2e-05 2e-05 2e-05 2e-05 
2e-05 2e-05 2e-05 2e-05 2e-05 2e-05 2e-05 7.5e-05 2e-05 
2e-05 2e-05 2e-05 2e-05 2e-05 2e-05 2e-05 2e-05 2e-05 
2e-05 2e-05 2e-05 2e-05 2e-05 2e-05 2e-05 2e-05 2e-05 
2e-05 2e-05 2e-05 2e-05 2e-05 2e-05 2e-05 2e-05 2e-05 
2e-05 2e-05 2e-05 2e-05 2e-05 2e-05 2e-05 2e-05 2e-05 
2e-05 2e-05 2e-05 2e-05 2e-05 2e-05 2e-05 2e-05 2e-05 
2e-05 2e-05 2e-05 2e-05 2e-05 2e-05 2e-05 2e-05 2e-05 
2e-05 2e-05 2e-05 2e-05 2e-05 2e-05 2e-05 2e-05 2e-05 
2e-05 2e-05 2e-05 2e-05 2e-05 2e-05 2e-05 2e-05 2e-05 
2e-05 2e-05 2e-05 2e-05 2e-05 2e-05 2e-05 2e-05 2e-05 
2e-05 2e-05 2e-05 2e-05 2e-05 2e-05 2e-05 2e-05 2e-05 
2e-05 2e-05 2e-05 2e-05 2e-05 2e-05 2e-05 2e-05 2e-05 
2e-05 2e-05 2e-05 2e-05 2e-05 2e-05 2e-05 2e-05 2e-05 
2e-05 2e-05 2e-05 2e-05 2e-05 2e-05 2e-05 2e-05 2e-05 
2e-05 2e-05 2e-05 2e-05 2e-05 2e-05 2e-05 2e-05 2e-05 
2e-05 2e-05 2e-05 2e-05 2e-05 2e-05 2e-05 2e-05 2e-05 
2e-05 2e-05 2e-05 2e-05 2e-05 2e-05 2e-05 2e-05 2e-05 
2e-05 2e-05 2e-05 2e-05 2e-05 2e-05 2e-05 2e-05 2e-05 
7.5e-05 2e-05 2e-05 2e-05 2e-05 2e-05 2e-05 2e-05 2e-05 
2e-05 2e-05 2e-05 2e-05 2e-05 2e-05 2e-05 2e-05 2e-05 
2e-05 2e-05 2e-05 2e-05 2e-05 2e-05 2e-05 2e-05 2e-05 
2e-05 2e-05 2e-05 2e-05 2e-05 2e-05 2e-05 2e-05 2e-05 
2e-05 2e-05 2e-05 2e-05 2e-05 2e-05 2e-05 2e-05 2e-05 
2e-05 7.5e-05 2e-05 2e-05 2e-05 2e-05 2e-05 2e-05 2e-05 
2e-05 2e-05 2e-05 2e-05 2e-05 2e-05 2e-05 2e-05 2e-05 
2e-05 2e-05 2e-05 2e-05 2e-05 2e-05 2e-05 2e-05 2e-05 
2e-05 2e-05 2e-05 2e-05 2e-05 2e-05 2e-05 2e-05 2e-05 
2e-05 2e-05 2e-05 2e-05 2e-05 2e-05 2e-05 2e-05 2e-05 
2e-05 2e-05 2e-05 2e-05 2e-05 2e-05 2e-05 2e-05 2e-05 
2e-05 2e-05 2e-05 2e-05 2e-05 2e-05 2e-05 7.5e-05 2e-05 
2e-05 2e-05 2e-05 2e-05 2e-05 2e-05 2e-05 2e-05 2e-05 
2e-05 2e-05 2e-05 2e-05 2e-05 2e-05 2e-05 2e-05 2e-05 
2e-05 2e-05 2e-05 2e-05 2e-05 2e-05 2e-05 2e-05 2e-05 
2e-05 2e-05 2e-05 2e-05 2e-05 2e-05 2e-05 2e-05 2e-05 
2e-05 2e-05 2e-05 2e-05 2e-05 2e-05 2e-05 2e-05 2e-05 
2e-05 2e-05 2e-05 2e-05 2e-05 2e-05 2e-05 2e-05 2e-05 
2e-05 2e-05 2e-05 2e-05 2e-05 2e-05 2e-05 2e-05 2e-05 
2e-05 7.5e-05 2e-05 2e-05 2e-05 2e-05 2e-05 2e-05 2e-05 
2e-05 2e-05 2e-05 2e-05 2e-05 2e-05 2e-05 2e-05 2e-05 
2e-05 2e-05 2e-05 2e-05 2e-05 2e-05 2e-05 2e-05 2e-05 
2e-05 2e-05 2e-05 2e-05 2e-05 2e-05 7.5e-05 2e-05 2e-05 
2e-05 2e-05 2e-05 2e-05 2e-05 2e-05 2e-05 2e-05 2e-05 
2e-05 2e-05 2e-05 2e-05 2e-05 2e-05 2e-05 2e-05 2e-05 
2e-05 2e-05 2e-05 2e-05 7.5e-05 2e-05 2e-05 2e-05 2e-05 
2e-05 2e-05 2e-05 2e-05 2e-05 2e-05 2e-05 2e-05 2e-05 
2e-05 2e-05 2e-05 2e-05 2e-05 2e-05 2e-05 2e-05 7.5e-05 
2e-05 2e-05 2e-05 2e-05 2e-05 2e-05 2e-05 2e-05 2e-05 
2e-05 2e-05 2e-05 2e-05 2e-05 2e-05 2e-05 2e-05 2e-05 
2e-05 2e-05 2e-05 2e-05 2e-05 2e-05 2e-05 2e-05 2e-05 
2e-05 2e-05 2e-05 2e-05 2e-05 2e-05 2e-05 2e-05 2e-05 
2e-05 2e-05 2e-05 2e-05 2e-05 2e-05 2e-05 2e-05 2e-05 
2e-05 2e-05 2e-05 2e-05 2e-05 2e-05 2e-05 2e-05 2e-05 
2e-05 2e-05 7.5e-05 2e-05 2e-05 2e-05 2e-05 2e-05 2e-05 
2e-05 2e-05 2e-05 2e-05 2e-05 2e-05 2e-05 2e-05 2e-05 
2e-05 2e-05 2e-05 2e-05 2e-05 2e-05 2e-05 2e-05 2e-05 
2e-05 2e-05 7.5e-05 2e-05 2e-05 7.5e-05 2e-05 2e-05 2e-05 
2e-05 2e-05 2e-05 2e-05 2e-05 2e-05 2e-05 2e-05 2e-05 
2e-05 2e-05 2e-05 2e-05 2e-05 2e-05 2e-05 2e-05 2e-05 
2e-05 2e-05 2e-05 2e-05 2e-05 2e-05 2e-05 2e-05 2e-05 
2e-05 2e-05 2e-05 2e-05 2e-05 2e-05 2e-05 2e-05 2e-05 
2e-05 2e-05 2e-05 2e-05 2e-05 2e-05 2e-05 2e-05 2e-05 
2e-05 2e-05 2e-05 2e-05 2e-05 2e-05 2e-05 2e-05 2e-05 
2e-05 2e-05 2e-05 2e-05 2e-05 2e-05 2e-05 2e-05 2e-05 
2e-05 2e-05 2e-05 2e-05 2e-05 2e-05 7.5e-05 2e-05 2e-05 
2e-05 2e-05 2e-05 2e-05 2e-05 2e-05 2e-05 2e-05 2e-05 
2e-05 2e-05 2e-05 2e-05 2e-05 2e-05 2e-05 2e-05 2e-05 
7.5e-05 2e-05 2e-05 2e-05 2e-05 7.5e-05 2e-05 2e-05 2e-05 
2e-05 2e-05 2e-05 7.5e-05 2e-05 7.5e-05 7.5e-05 0.00015 0.0003 

omega 3 648 double
0 0 0 0 0 0 0 0 0 
0 0 0 0 0 0 0 0 0 
0 0 0 0 0 0 0 0 0 
0 0 0 0 0 0 0 0 0 
0 0 0 0 0 0 0 0 0 
0 0 0 0 0 0 0 0 0 
0 0 0 0 0 0 0 0 0 
0 0 0 0 0 0 0 0 0 
0 0 0 0 0 0 0 0 0 
0 0 0 0 0 0 0 0 0 
0 0 0 0 0 0 0 0 0 
0 0 0 0 0 0 0 0 0 
0 0 0 0 0 0 0 0 0 
0 0 0 0 0 0 0 0 0 
0 0 0 0 0 0 0 0 0 
0 0 0 0 0 0 0 0 0 
0 0 0 0 0 0 0 0 0 
0 0 0 0 0 0 0 0 0 
0 0 0 0 0 0 0 0 0 
0 0 0 0 0 0 0 0 0 
0 0 0 0 0 0 0 0 0 
0 0 0 0 0 0 0 0 0 
0 0 0 0 0 0 0 0 0 
0 0 0 0 0 0 0 0 0 
0 0 0 0 0 0 0 0 0 
0 0 0 0 0 0 0 0 0 
0 0 0 0 0 0 0 0 0 
0 0 0 0 0 0 0 0 0 
0 0 0 0 0 0 0 0 0 
0 0 0 0 0 0 0 0 0 
0 0 0 0 0 0 0 0 0 
0 0 0 0 0 0 0 0 0 
0 0 0 0 0 0 0 0 0 
0 0 0 0 0 0 0 0 0 
0 0 0 0 0 0 0 0 0 
0 0 0 0 0 0 0 0 0 
0 0 0 0 0 0 0 0 0 
0 0 0 0 0 0 0 0 0 
0 0 0 0 0 0 0 0 0 
0 0 0 0 0 0 0 0 0 
0 0 0 0 0 0 0 0 0 
0 0 0 0 0 0 0 0 0 
0 0 0 0 0 0 0 0 0 
0 0 0 0 0 0 0 0 0 
0 0 0 0 0 0 0 0 0 
0 0 0 0 0 0 0 0 0 
0 0 0 0 0 0 0 0 0 
0 0 0 0 0 0 0 0 0 
0 0 0 0 0 0 0 0 0 
0 0 0 0 0 0 0 0 0 
0 0 0 0 0 0 0 0 0 
0 0 0 0 0 0 0 0 0 
0 0 0 0 0 0 0 0 0 
0 0 0 0 0 0 0 0 0 
0 0 0 0 0 0 0 0 0 
0 0 0 0 0 0 0 0 0 
0 0 0 0 0 0 0 0 0 
0 0 0 0 0 0 0 0 0 
0 0 0 0 0 0 0 0 0 
0 0 0 0 0 0 0 0 0 
0 0 0 0 0 0 0 0 0 
0 0 0 0 0 0 0 0 0 
0 0 0 0 0 0 0 0 0 
0 0 0 0 0 0 0 0 0 
0 0 0 0 0 0 0 0 0 
0 0 0 0 0 0 0 0 0 
0 0 0 0 0 0 0 0 0 
0 0 0 0 0 0 0 0 0 
0 0 0 0 0 0 0 0 0 
0 0 0 0 0 0 0 0 0 
0 0 0 0 0 0 0 0 0 
0 0 0 0 0 0 0 0 0 
0 0 0 0 0 0 0 0 0 
0 0 0 0 0 0 0 0 0 
0 0 0 0 0 0 0 0 0 
0 0 0 0 0 0 0 0 0 
0 0 0 0 0 0 0 0 0 
0 0 0 0 0 0 0 0 0 
0 0 0 0 0 0 0 0 0 
0 0 0 0 0 0 0 0 0 
0 0 0 0 0 0 0 0 0 
0 0 0 0 0 0 0 0 0 
0 0 0 0 0 0 0 0 0 
0 0 0 0 0 0 0 0 0 
0 0 0 0 0 0 0 0 0 
0 0 0 0 0 0 0 0 0 
0 0 0 0 0 0 0 0 0 
0 0 0 0 0 0 0 0 0 
0 0 0 0 0 0 0 0 0 
0 0 0 0 0 0 0 0 0 
0 0 0 0 0 0 0 0 0 
0 0 0 0 0 0 0 0 0 
0 0 0 0 0 0 0 0 0 
0 0 0 0 0 0 0 0 0 
0 0 0 0 0 0 0 0 0 
0 0 0 0 0 0 0 0 0 
0 0 0 0 0 0 0 0 0 
0 0 0 0 0 0 0 0 0 
0 0 0 0 0 0 0 0 0 
0 0 0 0 0 0 0 0 0 
0 0 0 0 0 0 0 0 0 
0 0 0 0 0 0 0 0 0 
0 0 0 0 0 0 0 0 0 
0 0 0 0 0 0 0 0 0 
0 0 0 0 0 0 0 0 0 
0 0 0 0 0 0 0 0 0 
0 0 0 0 0 0 0 0 0 
0 0 0 0 0 0 0 0 0 
0 0 0 0 0 0 0 0 0 
0 0 0 0 0 0 0 0 0 
0 0 0 0 0 0 0 0 0 
0 0 0 0 0 0 0 0 0 
0 0 0 0 0 0 0 0 0 
0 0 0 0 0 0 0 0 0 
0 0 0 0 0 0 0 0 0 
0 0 0 0 0 0 0 0 0 
0 0 0 0 0 0 0 0 0 
0 0 0 0 0 0 0 0 0 
0 0 0 0 0 0 0 0 0 
0 0 0 0 0 0 0 0 0 
0 0 0 0 0 0 0 0 0 
0 0 0 0 0 0 0 0 0 
0 0 0 0 0 0 0 0 0 
0 0 0 0 0 0 0 0 0 
0 0 0 0 0 0 0 0 0 
0 0 0 0 0 0 0 0 0 
0 0 0 0 0 0 0 0 0 
0 0 0 0 0 0 0 0 0 
0 0 0 0 0 0 0 0 0 
0 0 0 0 0 0 0 0 0 
0 0 0 0 0 0 0 0 0 
0 0 0 0 0 0 0 0 0 
0 0 0 0 0 0 0 0 0 
0 0 0 0 0 0 0 0 0 
0 0 0 0 0 0 0 0 0 
0 0 0 0 0 0 0 0 0 
0 0 0 0 0 0 0 0 0 
0 0 0 0 0 0 0 0 0 
0 0 0 0 0 0 0 0 0 
0 0 0 0 0 0 0 0 0 
0 0 0 0 0 0 0 0 0 
0 0 0 0 0 0 0 0 0 
0 0 0 0 0 0 0 0 0 
0 0 0 0 0 0 0 0 0 
0 0 0 0 0 0 0 0 0 
0 0 0 0 0 0 0 0 0 
0 0 0 0 0 0 0 0 0 
0 0 0 0 0 0 0 0 0 
0 0 0 0 0 0 0 0 0 
0 0 0 0 0 0 0 0 0 
0 0 0 0 0 0 0 0 0 
0 0 0 0 0 0 0 0 0 
0 0 0 0 0 0 0 0 0 
0 0 0 0 0 0 0 0 0 
0 0 0 0 0 0 0 0 0 
0 0 0 0 0 0 0 0 0 
0 0 0 0 0 0 0 0 0 
0 0 0 0 0 0 0 0 0 
0 0 0 0 0 0 0 0 0 
0 0 0 0 0 0 0 0 0 
0 0 0 0 0 0 0 0 0 
0 0 0 0 0 0 0 0 0 
0 0 0 0 0 0 0 0 0 
0 0 0 0 0 0 0 0 0 
0 0 0 0 0 0 0 0 0 
0 0 0 0 0 0 0 0 0 
0 0 0 0 0 0 0 0 0 
0 0 0 0 0 0 0 0 0 
0 0 0 0 0 0 0 0 0 
0 0 0 0 0 0 0 0 0 
0 0 0 0 0 0 0 0 0 
0 0 0 0 0 0 0 0 0 
0 0 0 0 0 0 0 0 0 
0 0 0 0 0 0 0 0 0 
0 0 0 0 0 0 0 0 0 
0 0 0 0 0 0 0 0 0 
0 0 0 0 0 0 0 0 0 
0 0 0 0 0 0 0 0 0 
0 0 0 0 0 0 0 0 0 
0 0 0 0 0 0 0 0 0 
0 0 0 0 0 0 0 0 0 
0 0 0 0 0 0 0 0 0 
0 0 0 0 0 0 0 0 0 
0 0 0 0 0 0 0 0 0 
0 0 0 0 0 0 0 0 0 
0 0 0 0 0 0 0 0 0 
0 0 0 0 0 0 0 0 0 
0 0 0 0 0 0 0 0 0 
0 0 0 0 0 0 0 0 0 
0 0 0 0 0 0 0 0 0 
0 0 0 0 0 0 0 0 0 
0 0 0 0 0 0 0 0 0 
0 0 0 0 0 0 0 0 0 
0 0 0 0 0 0 0 0 0 
0 0 0 0 0 0 0 0 0 
0 0 0 0 0 0 0 0 0 
0 0 0 0 0 0 0 0 0 
0 0 0 0 0 0 0 0 0 
0 0 0 0 0 0 0 0 0 
0 0 0 0 0 0 0 0 0 
0 0 0 0 0 0 0 0 0 
0 0 0 0 0 0 0 0 0 
0 0 0 0 0 0 0 0 0 
0 0 0 0 0 0 0 0 0 
0 0 0 0 0 0 0 0 0 
0 0 0 0 0 0 0 0 0 
0 0 0 0 0 0 0 0 0 
0 0 0 0 0 0 0 0 0 
0 0 0 0 0 0 0 0 0 
0 0 0 0 0 0 0 0 0 
0 0 0 0 0 0 0 0 0 
0 0 0 0 0 0 0 0 0 
0 0 0 0 0 0 0 0 0 
0 0 0 0 0 0 0 0 0 
0 0 0 0 0 0 0 0 0 
0 0 0 0 0 0 0 0 0 

fx_mag_viz 1 648 double
0 0 0 0 0 0 0 0 0 
0 0 0 0 0 0 0 0 0 
0 0 0 0 0 0 0 0 0 
0 0 0 0 0 0 0 0 0 
0 0 0 0 0 0 0 0 0 
0 0 0 0 0 0 0 0 0 
0 0 0 0 0 0 0 0 0 
0 0 0 0 0 0 0 0 0 
0 0 0 0 0 0 0 0 0 
0 0 0 0 0 0 0 0 0 
0 0 0 0 0 0 0 0 0 
0 0 0 0 0 0 0 0 0 
0 0 0 0 0 0 0 0 0 
0 0 0 0 0 0 0 0 0 
0 0 0 0 0 0 0 0 0 
0 0 0 0 0 0 0 0 0 
0 0 0 0 0 0 0 0 0 
0 0 0 0 0 0 0 0 0 
0 0 0 0 0 0 0 0 0 
0 0 0 0 0 0 0 0 0 
0 0 0 0 0 0 0 0 0 
0 0 0 0 0 0 0 0 0 
0 0 0 0 0 0 0 0 0 
0 0 0 0 0 0 0 0 0 
0 0 0 0 0 0 0 0 0 
0 0 0 0 0 0 0 0 0 
0 0 0 0 0 0 0 0 0 
0 0 0 0 0 0 0 0 0 
0 0 0 0 0 0 0 0 0 
0 0 0 0 0 0 0 0 0 
0 0 0 0 0 0 0 0 0 
0 0 0 0 0 0 0 0 0 
0 0 0 0 0 0 0 0 0 
0 0 0 0 0 0 0 0 0 
0 0 0 0 0 0 0 0 0 
0 0 0 0 0 0 0 0 0 
0 0 0 0 0 0 0 0 0 
0 0 0 0 0 0 0 0 0 
0 0 0 0 0 0 0 0 0 
0 0 0 0 0 0 0 0 0 
0 0 0 0 0 0 0 0 0 
0 0 0 0 0 0 0 0 0 
0 0 0 0 0 0 0 0 0 
0 0 0 0 0 0 0 0 0 
0 0 0 0 0 0 0 0 0 
0 0 0 0 0 0 0 0 0 
0 0 0 0 0 0 0 0 0 
0 0 0 0 0 0 0 0 0 
0 0 0 0 0 0 0 0 0 
0 0 0 0 0 0 0 0 0 
0 0 0 0 0 0 0 0 0 
0 0 0 0 0 0 0 0 0 
0 0 0 0 0 0 0 0 0 
0 0 0 0 0 0 0 0 0 
0 0 0 0 0 0 0 0 0 
0 0 0 0 0 0 0 0 0 
0 0 0 0 0 0 0 0 0 
0 0 0 0 0 0 0 0 0 
0 0 0 0 0 0 0 0 0 
0 0 0 0 0 0 0 0 0 
0 0 0 0 0 0 0 0 0 
0 0 0 0 0 0 0 0 0 
0 0 0 0 0 0 0 0 0 
0 0 0 0 0 0 0 0 0 
0 0 0 0 0 0 0 0 0 
0 0 0 0 0 0 0 0 0 
0 0 0 0 0 0 0 0 0 
0 0 0 0 0 0 0 0 0 
0 0 0 0 0 0 0 0 0 
0 0 0 0 0 0 0 0 0 
0 0 0 0 0 0 0 0 0 
0 0 0 0 0 0 0 0 0 

fy_mag_viz 1 648 double
0 0 0 0 0 0 0 0 0 
0 0 0 0 0 0 0 0 0 
0 0 0 0 0 0 0 0 0 
0 0 0 0 0 0 0 0 0 
0 0 0 0 0 0 0 0 0 
0 0 0 0 0 0 0 0 0 
0 0 0 0 0 0 0 0 0 
0 0 0 0 0 0 0 0 0 
0 0 0 0 0 0 0 0 0 
0 0 0 0 0 0 0 0 0 
0 0 0 0 0 0 0 0 0 
0 0 0 0 0 0 0 0 0 
0 0 0 0 0 0 0 0 0 
0 0 0 0 0 0 0 0 0 
0 0 0 0 0 0 0 0 0 
0 0 0 0 0 0 0 0 0 
0 0 0 0 0 0 0 0 0 
0 0 0 0 0 0 0 0 0 
0 0 0 0 0 0 0 0 0 
0 0 0 0 0 0 0 0 0 
0 0 0 0 0 0 0 0 0 
0 0 0 0 0 0 0 0 0 
0 0 0 0 0 0 0 0 0 
0 0 0 0 0 0 0 0 0 
0 0 0 0 0 0 0 0 0 
0 0 0 0 0 0 0 0 0 
0 0 0 0 0 0 0 0 0 
0 0 0 0 0 0 0 0 0 
0 0 0 0 0 0 0 0 0 
0 0 0 0 0 0 0 0 0 
0 0 0 0 0 0 0 0 0 
0 0 0 0 0 0 0 0 0 
0 0 0 0 0 0 0 0 0 
0 0 0 0 0 0 0 0 0 
0 0 0 0 0 0 0 0 0 
0 0 0 0 0 0 0 0 0 
0 0 0 0 0 0 0 0 0 
0 0 0 0 0 0 0 0 0 
0 0 0 0 0 0 0 0 0 
0 0 0 0 0 0 0 0 0 
0 0 0 0 0 0 0 0 0 
0 0 0 0 0 0 0 0 0 
0 0 0 0 0 0 0 0 0 
0 0 0 0 0 0 0 0 0 
0 0 0 0 0 0 0 0 0 
0 0 0 0 0 0 0 0 0 
0 0 0 0 0 0 0 0 0 
0 0 0 0 0 0 0 0 0 
0 0 0 0 0 0 0 0 0 
0 0 0 0 0 0 0 0 0 
0 0 0 0 0 0 0 0 0 
0 0 0 0 0 0 0 0 0 
0 0 0 0 0 0 0 0 0 
0 0 0 0 0 0 0 0 0 
0 0 0 0 0 0 0 0 0 
0 0 0 0 0 0 0 0 0 
0 0 0 0 0 0 0 0 0 
0 0 0 0 0 0 0 0 0 
0 0 0 0 0 0 0 0 0 
0 0 0 0 0 0 0 0 0 
0 0 0 0 0 0 0 0 0 
0 0 0 0 0 0 0 0 0 
0 0 0 0 0 0 0 0 0 
0 0 0 0 0 0 0 0 0 
0 0 0 0 0 0 0 0 0 
0 0 0 0 0 0 0 0 0 
0 0 0 0 0 0 0 0 0 
0 0 0 0 0 0 0 0 0 
0 0 0 0 0 0 0 0 0 
0 0 0 0 0 0 0 0 0 
0 0 0 0 0 0 0 0 0 
0 0 0 0 0 0 0 0 0 

fz_mag_viz 1 648 double
0 0 0 0 0 0 0 0 0 
0 0 0 0 0 0 0 0 0 
0 0 0 0 0 0 0 0 0 
0 0 0 0 0 0 0 0 0 
0 0 0 0 0 0 0 0 0 
0 0 0 0 0 0 0 0 0 
0 0 0 0 0 0 0 0 0 
0 0 0 0 0 0 0 0 0 
0 0 0 0 0 0 0 0 0 
0 0 0 0 0 0 0 0 0 
0 0 0 0 0 0 0 0 0 
0 0 0 0 0 0 0 0 0 
0 0 0 0 0 0 0 0 0 
0 0 0 0 0 0 0 0 0 
0 0 0 0 0 0 0 0 0 
0 0 0 0 0 0 0 0 0 
0 0 0 0 0 0 0 0 0 
0 0 0 0 0 0 0 0 0 
0 0 0 0 0 0 0 0 0 
0 0 0 0 0 0 0 0 0 
0 0 0 0 0 0 0 0 0 
0 0 0 0 0 0 0 0 0 
0 0 0 0 0 0 0 0 0 
0 0 0 0 0 0 0 0 0 
0 0 0 0 0 0 0 0 0 
0 0 0 0 0 0 0 0 0 
0 0 0 0 0 0 0 0 0 
0 0 0 0 0 0 0 0 0 
0 0 0 0 0 0 0 0 0 
0 0 0 0 0 0 0 0 0 
0 0 0 0 0 0 0 0 0 
0 0 0 0 0 0 0 0 0 
0 0 0 0 0 0 0 0 0 
0 0 0 0 0 0 0 0 0 
0 0 0 0 0 0 0 0 0 
0 0 0 0 0 0 0 0 0 
0 0 0 0 0 0 0 0 0 
0 0 0 0 0 0 0 0 0 
0 0 0 0 0 0 0 0 0 
0 0 0 0 0 0 0 0 0 
0 0 0 0 0 0 0 0 0 
0 0 0 0 0 0 0 0 0 
0 0 0 0 0 0 0 0 0 
0 0 0 0 0 0 0 0 0 
0 0 0 0 0 0 0 0 0 
0 0 0 0 0 0 0 0 0 
0 0 0 0 0 0 0 0 0 
0 0 0 0 0 0 0 0 0 
0 0 0 0 0 0 0 0 0 
0 0 0 0 0 0 0 0 0 
0 0 0 0 0 0 0 0 0 
0 0 0 0 0 0 0 0 0 
0 0 0 0 0 0 0 0 0 
0 0 0 0 0 0 0 0 0 
0 0 0 0 0 0 0 0 0 
0 0 0 0 0 0 0 0 0 
0 0 0 0 0 0 0 0 0 
0 0 0 0 0 0 0 0 0 
0 0 0 0 0 0 0 0 0 
0 0 0 0 0 0 0 0 0 
0 0 0 0 0 0 0 0 0 
0 0 0 0 0 0 0 0 0 
0 0 0 0 0 0 0 0 0 
0 0 0 0 0 0 0 0 0 
0 0 0 0 0 0 0 0 0 
0 0 0 0 0 0 0 0 0 
0 0 0 0 0 0 0 0 0 
0 0 0 0 0 0 0 0 0 
0 0 0 0 0 0 0 0 0 
0 0 0 0 0 0 0 0 0 
0 0 0 0 0 0 0 0 0 
0 0 0 0 0 0 0 0 0 

B_magnitude 1 648 double
0 0 0 0 0 0 0 0 0 
0 0 0 0 0 0 0 0 0 
0 0 0 0 0 0 0 0 0 
0 0 0 0 0 0 0 0 0 
0 0 0 0 0 0 0 0 0 
0 0 0 0 0 0 0 0 0 
0 0 0 0 0 0 0 0 0 
0 0 0 0 0 0 0 0 0 
0 0 0 0 0 0 0 0 0 
0 0 0 0 0 0 0 0 0 
0 0 0 0 0 0 0 0 0 
0 0 0 0 0 0 0 0 0 
0 0 0 0 0 0 0 0 0 
0 0 0 0 0 0 0 0 0 
0 0 0 0 0 0 0 0 0 
0 0 0 0 0 0 0 0 0 
0 0 0 0 0 0 0 0 0 
0 0 0 0 0 0 0 0 0 
0 0 0 0 0 0 0 0 0 
0 0 0 0 0 0 0 0 0 
0 0 0 0 0 0 0 0 0 
0 0 0 0 0 0 0 0 0 
0 0 0 0 0 0 0 0 0 
0 0 0 0 0 0 0 0 0 
0 0 0 0 0 0 0 0 0 
0 0 0 0 0 0 0 0 0 
0 0 0 0 0 0 0 0 0 
0 0 0 0 0 0 0 0 0 
0 0 0 0 0 0 0 0 0 
0 0 0 0 0 0 0 0 0 
0 0 0 0 0 0 0 0 0 
0 0 0 0 0 0 0 0 0 
0 0 0 0 0 0 0 0 0 
0 0 0 0 0 0 0 0 0 
0 0 0 0 0 0 0 0 0 
0 0 0 0 0 0 0 0 0 
0 0 0 0 0 0 0 0 0 
0 0 0 0 0 0 0 0 0 
0 0 0 0 0 0 0 0 0 
0 0 0 0 0 0 0 0 0 
0 0 0 0 0 0 0 0 0 
0 0 0 0 0 0 0 0 0 
0 0 0 0 0 0 0 0 0 
0 0 0 0 0 0 0 0 0 
0 0 0 0 0 0 0 0 0 
0 0 0 0 0 0 0 0 0 
0 0 0 0 0 0 0 0 0 
0 0 0 0 0 0 0 0 0 
0 0 0 0 0 0 0 0 0 
0 0 0 0 0 0 0 0 0 
0 0 0 0 0 0 0 0 0 
0 0 0 0 0 0 0 0 0 
0 0 0 0 0 0 0 0 0 
0 0 0 0 0 0 0 0 0 
0 0 0 0 0 0 0 0 0 
0 0 0 0 0 0 0 0 0 
0 0 0 0 0 0 0 0 0 
0 0 0 0 0 0 0 0 0 
0 0 0 0 0 0 0 0 0 
0 0 0 0 0 0 0 0 0 
0 0 0 0 0 0 0 0 0 
0 0 0 0 0 0 0 0 0 
0 0 0 0 0 0 0 0 0 
0 0 0 0 0 0 0 0 0 
0 0 0 0 0 0 0 0 0 
0 0 0 0 0 0 0 0 0 
0 0 0 0 0 0 0 0 0 
0 0 0 0 0 0 0 0 0 
0 0 0 0 0 0 0 0 0 
0 0 0 0 0 0 0 0 0 
0 0 0 0 0 0 0 0 0 
0 0 0 0 0 0 0 0 0 

B_gradient_mag 1 648 double
0 0 0 0 0 0 0 0 0 
0 0 0 0 0 0 0 0 0 
0 0 0 0 0 0 0 0 0 
0 0 0 0 0 0 0 0 0 
0 0 0 0 0 0 0 0 0 
0 0 0 0 0 0 0 0 0 
0 0 0 0 0 0 0 0 0 
0 0 0 0 0 0 0 0 0 
0 0 0 0 0 0 0 0 0 
0 0 0 0 0 0 0 0 0 
0 0 0 0 0 0 0 0 0 
0 0 0 0 0 0 0 0 0 
0 0 0 0 0 0 0 0 0 
0 0 0 0 0 0 0 0 0 
0 0 0 0 0 0 0 0 0 
0 0 0 0 0 0 0 0 0 
0 0 0 0 0 0 0 0 0 
0 0 0 0 0 0 0 0 0 
0 0 0 0 0 0 0 0 0 
0 0 0 0 0 0 0 0 0 
0 0 0 0 0 0 0 0 0 
0 0 0 0 0 0 0 0 0 
0 0 0 0 0 0 0 0 0 
0 0 0 0 0 0 0 0 0 
0 0 0 0 0 0 0 0 0 
0 0 0 0 0 0 0 0 0 
0 0 0 0 0 0 0 0 0 
0 0 0 0 0 0 0 0 0 
0 0 0 0 0 0 0 0 0 
0 0 0 0 0 0 0 0 0 
0 0 0 0 0 0 0 0 0 
0 0 0 0 0 0 0 0 0 
0 0 0 0 0 0 0 0 0 
0 0 0 0 0 0 0 0 0 
0 0 0 0 0 0 0 0 0 
0 0 0 0 0 0 0 0 0 
0 0 0 0 0 0 0 0 0 
0 0 0 0 0 0 0 0 0 
0 0 0 0 0 0 0 0 0 
0 0 0 0 0 0 0 0 0 
0 0 0 0 0 0 0 0 0 
0 0 0 0 0 0 0 0 0 
0 0 0 0 0 0 0 0 0 
0 0 0 0 0 0 0 0 0 
0 0 0 0 0 0 0 0 0 
0 0 0 0 0 0 0 0 0 
0 0 0 0 0 0 0 0 0 
0 0 0 0 0 0 0 0 0 
0 0 0 0 0 0 0 0 0 
0 0 0 0 0 0 0 0 0 
0 0 0 0 0 0 0 0 0 
0 0 0 0 0 0 0 0 0 
0 0 0 0 0 0 0 0 0 
0 0 0 0 0 0 0 0 0 
0 0 0 0 0 0 0 0 0 
0 0 0 0 0 0 0 0 0 
0 0 0 0 0 0 0 0 0 
0 0 0 0 0 0 0 0 0 
0 0 0 0 0 0 0 0 0 
0 0 0 0 0 0 0 0 0 
0 0 0 0 0 0 0 0 0 
0 0 0 0 0 0 0 0 0 
0 0 0 0 0 0 0 0 0 
0 0 0 0 0 0 0 0 0 
0 0 0 0 0 0 0 0 0 
0 0 0 0 0 0 0 0 0 
0 0 0 0 0 0 0 0 0 
0 0 0 0 0 0 0 0 0 
0 0 0 0 0 0 0 0 0 
0 0 0 0 0 0 0 0 0 
0 0 0 0 0 0 0 0 0 
0 0 0 0 0 0 0 0 0 

