# vtk DataFile Version 5.1
Generated by LIGGGHTS
ASCII
DATASET POLYDATA
POINTS 648 float
-0.040885 -0.00406647 0.00104782 -0.0406313 0.0295913 0.00110565 -0.0349861 -0.0412827 0.00229553 
-0.0177429 -0.0346724 0.00210578 0.0346336 -0.0325969 0.00261258 0.0252581 -0.0163235 0.00179041 
0.0110904 0.00657535 0.00180243 -0.039126 0.0399637 0.00177843 0.000425919 -0.0415728 0.00311442 
-0.0406141 -0.0405112 0.00270038 -0.00338111 -0.0363358 0.00392375 0.0272875 -0.0186725 0.00347977 
-0.0136128 -0.00979682 0.00342713 -0.0395569 -0.00227866 0.00389924 0.032558 0.00153523 0.00347547 
0.0101693 0.00555192 0.00309296 -0.0349081 0.00917553 0.00375724 -0.0193355 0.018129 0.00350872 
-0.014478 0.0275162 0.00399124 -0.0219587 0.0304934 0.00388045 0.0214431 0.0335886 0.00343964 
0.0147823 -0.0446949 0.00422422 -0.0225361 -0.0441701 0.00472441 0.0201641 -0.0426709 0.00435914 
-0.0234086 -0.038644 0.00475333 0.0307351 -0.0355434 0.0044263 0.010226 -0.0308634 0.00500727 
-0.0401314 -0.0280847 0.00468481 -0.038621 -0.0229432 0.00416116 -0.0350278 -0.0224863 0.00425174 
-0.0139777 -0.0223984 0.00413214 0.0109547 -0.0235646 0.00471103 0.0282033 -0.0178095 0.00470146 
-0.0313057 -0.0141988 0.00419104 0.0347312 -0.012978 0.00521624 0.0218314 -0.00971151 0.00512331 
-0.042331 -0.00792816 0.00401708 -0.0150798 -0.00698339 0.0045626 -0.0101373 -0.00698039 0.00468215 
0.0127657 -0.00746761 0.00477123 -0.00720807 -0.00608605 0.00442182 0.0386193 -0.00496685 0.00452336 
-0.0281455 -0.00127675 0.00508775 0.00127443 -0.000618905 0.00520912 0.00978397 0.00922321 0.00522754 
0.00418285 0.0112423 0.00506766 -0.00831541 0.0129665 0.00465825 0.0256029 0.0175394 0.00515532 
-0.0436896 0.0195853 0.00488982 -0.0138035 0.0240512 0.00521153 0.00834461 0.0278725 0.00422711 
-0.00472634 0.0344449 0.00524206 -0.00883869 0.0381834 0.00415542 0.0281745 0.039089 0.00510004 
-0.0379532 0.0399341 0.00428616 -0.00785852 0.041878 0.00424498 0.0430506 0.0422314 0.00413071 
-0.0190394 0.0446837 0.00515129 -0.0317519 -0.0446953 0.00581532 -0.0169239 -0.0402939 0.00581707 
-0.0289295 -0.0389067 0.00598754 -0.00161929 -0.0353994 0.00557329 0.0355384 -0.0354155 0.00604939 
-0.0179089 -0.0346335 0.00599364 -8.23525e-05 -0.034098 0.00567047 0.0403097 -0.0347888 0.00536448 
0.027474 -0.0338615 0.00527498 -0.0210092 -0.0320472 0.00650834 -0.00682403 -0.0314098 0.00605505 
0.023019 -0.0293484 0.00585769 0.0392765 -0.0300093 0.00522532 0.0156293 -0.0283842 0.00540128 
0.0210005 -0.0239559 0.0064109 -0.0164034 -0.0216001 0.00653927 0.0134129 -0.0192809 0.00584175 
-0.0328213 -0.0176588 0.00634502 0.0296492 -0.015918 0.0056334 -0.0408642 -0.0154151 0.00642898 
-0.015814 -0.0152491 0.00629668 0.0375745 -0.0151367 0.00627177 -0.00710141 -0.0133745 0.00577569 
-0.0211095 -0.00770044 0.00568663 -0.0332593 0.000859011 0.00540297 -0.0261639 0.00337815 0.00578701 
-0.027449 0.00511055 0.00631876 -0.0406381 0.00555966 0.00541127 -0.0403489 0.00598291 0.00628581 
-0.01547 0.00642247 0.00648286 0.00789931 0.0136568 0.0060094 -0.0287818 0.014969 0.00616754 
0.0440772 0.0154938 0.00547727 -0.0286532 0.0159811 0.00592748 -0.0161548 0.0159009 0.00550415 
-0.00443291 0.0160613 0.00567261 -0.00317984 0.0164631 0.00569405 0.00546842 0.0177814 0.00571912 
-0.0363159 0.0185996 0.00615814 0.00757299 0.0192258 0.00627187 0.0350116 0.0207306 0.00625179 
0.00264144 0.0247174 0.00580877 0.0258603 0.0235991 0.00532447 -0.0132251 0.0252506 0.0056384 
-0.0214233 0.0285543 0.00637761 0.0434247 0.0295768 0.00645517 -0.0260391 0.0304395 0.00589187 
-0.0359241 0.0337864 0.00550655 0.0132394 0.0345575 0.00533373 -0.0407273 0.0358476 0.00609227 
-0.00750544 0.0361316 0.00623958 0.0211706 0.0445491 0.00643763 0.0416479 -0.0439733 0.00738374 
-0.0389435 -0.0425966 0.0069681 0.00849583 -0.0405939 0.00743284 -0.0195638 -0.0385913 0.00762932 
0.0325128 -0.03812 0.00751424 -0.0273176 -0.0361067 0.00686245 0.0195647 -0.0366528 0.00676292 
0.0077947 -0.0345433 0.00743682 0.043014 -0.0343178 0.00682708 -0.00586029 -0.0338127 0.00687611 
-0.0396817 -0.0304797 0.00666924 0.00231692 -0.0294453 0.00745858 0.0164647 -0.0275391 0.00749636 
-0.0432264 -0.0264101 0.00704601 0.0115492 -0.0227248 0.00726777 -0.0207996 -0.0190456 0.00686707 
0.0184681 -0.0172117 0.00658451 0.00886689 -0.0141191 0.00696087 -0.0341597 -0.0122829 0.00756024 
-0.0253401 -0.0103599 0.0067764 0.0129906 -0.00677597 0.00706005 0.00664535 -0.00164817 0.00750568 
-0.000610522 -0.00103491 0.00750295 0.0420414 -0.00101026 0.00680433 -0.0131355 0.00164571 0.00736715 
-0.0137512 0.00384646 0.00787161 0.0332757 0.00539899 0.00767154 0.0358407 0.00533501 0.00770342 
0.0324887 0.00836074 0.00705936 0.00474506 0.0103043 0.00691113 -0.0350204 0.0121089 0.00710784 
0.012949 0.0143048 0.00687923 -0.0408838 0.0159645 0.00775898 -0.023041 0.0197144 0.00770677 
-0.0295899 0.0232577 0.00764592 -0.0436572 0.0238848 0.00664614 0.0040127 0.0314243 0.00731391 
0.0337272 0.0324898 0.00786918 -0.00647711 0.0391566 0.00725702 -0.0133259 0.0414802 0.00774511 
0.0170579 0.0421878 0.00697844 0.0114086 0.0440135 0.00675883 0.0171919 0.0449185 0.00681168 
0.0406519 -0.0427256 0.00864992 -0.0177803 -0.0340186 0.00884201 -0.0386911 -0.0311434 0.00875712 
0.0449741 -0.0303513 0.00904739 0.0346338 -0.0290927 0.00885036 -0.0346801 -0.0287009 0.00804826 
0.0153133 -0.0285941 0.00888231 0.0054016 -0.025334 0.00856043 0.0347572 -0.0260666 0.00914602 
0.0155599 -0.0240909 0.00807666 -0.0323128 -0.0219837 0.0083039 -0.0291427 -0.0219343 0.00878624 
0.0204492 -0.0194639 0.00901883 0.0132043 -0.01541 0.00798054 -0.0279963 -0.0141356 0.00817946 
0.0144468 -0.013247 0.00904404 0.0322358 -0.0130621 0.00773144 0.0253763 -0.011051 0.00790709 
0.0352883 -0.0103067 0.00903358 -0.00254943 -0.00825679 0.00883122 -0.00401126 -0.00720159 0.00858626 
0.0404774 -0.00688032 0.00833686 -0.0253129 -0.0039775 0.00877122 0.0131353 -0.00504642 0.0080543 
0.0448793 -0.00396119 0.00881561 -0.0408474 -0.00214648 0.00854466 -0.0376932 -0.000132947 0.00829158 
0.0189244 0.00254502 0.0081626 -0.0325416 0.00283857 0.00885367 -0.0233311 0.00384073 0.00864213 
0.0183943 0.00266245 0.00910131 -0.025141 0.00447188 0.00883779 0.00533928 0.00728904 0.0080823 
-0.0442311 0.00821601 0.00839107 -0.019893 0.00878872 0.00849302 -0.0408306 0.00999374 0.00798847 
0.0211953 0.00966092 0.00848357 0.0234497 0.00978487 0.00799248 0.027557 0.009967 0.00790222 
-0.0394276 0.0109375 0.0080981 -0.00808524 0.0113378 0.00805177 -0.00071691 0.0108932 0.00835648 
-0.0365733 0.0119208 0.00827649 0.00243185 0.0120975 0.00833318 -0.0231109 0.0157017 0.008929 
-0.0122189 0.0175978 0.00885919 0.018015 0.0183735 0.00835966 0.00976854 0.0197772 0.00792355 
-0.0287332 0.0215601 0.00812657 0.0362273 0.0220011 0.00829312 -0.0324762 0.0230005 0.00885973 
-0.0267196 0.0236159 0.00868888 0.0395905 0.0272142 0.00879139 0.0397191 0.0283771 0.00821158 
-0.0152062 0.0294088 0.00811408 -0.0127911 0.0299546 0.00881958 -0.0409258 0.0305044 0.009128 
0.026696 0.03017 0.00912805 0.0380057 0.0324307 0.00835541 -0.0337286 0.0337045 0.00846338 
0.00367032 0.0371324 0.00809666 0.0030545 0.0369981 0.00823958 0.0294278 0.0431452 0.00855395 
-0.0390775 0.0447256 0.00827286 -0.0428902 -0.0449088 0.0103501 -0.00396528 -0.0444182 0.00991729 
0.0181024 -0.0433049 0.00926664 0.0195053 -0.043722 0.00977769 0.0348044 -0.042095 0.00994378 
0.0418836 -0.0421436 0.0100706 -0.0136468 -0.0412372 0.0094096 0.0166138 -0.0412108 0.0104234 
-0.018434 -0.0405477 0.010023 0.040047 -0.0404588 0.00934041 -0.0108246 -0.0388127 0.00999619 
0.00798734 -0.0367051 0.00980137 -0.0309963 -0.0355024 0.0101922 -0.0168273 -0.0360331 0.00977379 
0.000822496 -0.0363122 0.0102448 -0.0161578 -0.0337243 0.00936975 0.023158 -0.0340207 0.010402 
-0.0105296 -0.0314142 0.0101005 -0.0430551 -0.0267583 0.00933754 0.033456 -0.0256735 0.0101863 
0.0350196 -0.0250011 0.00972663 -0.00863888 -0.0237376 0.0100515 0.00179778 -0.0247441 0.00935896 
-0.0225401 -0.0213878 0.00999463 0.0233461 -0.0214624 0.00996142 -0.0210835 -0.0209207 0.00945192 
-0.0033641 -0.0204173 0.00941249 -0.0296942 -0.0196153 0.0102257 0.0363266 -0.0194176 0.0102226 
-0.0147645 -0.0165889 0.0104513 -0.00528066 -0.0121118 0.00925944 0.0313953 -0.00974065 0.00965512 
0.0334462 -0.00930086 0.0104397 -0.0198564 -0.00683511 0.0100713 -0.0129003 -0.00574839 0.00979636 
-0.00747582 -0.00609419 0.0101475 0.0387156 -0.00624884 0.0092878 0.0200271 -0.00425623 0.00949843 
-0.0179231 -0.00300678 0.0096953 -0.0120059 -0.00345367 0.00950865 -0.00941413 -0.00330341 0.0104471 
-0.0198668 -0.00211416 0.00925811 0.0168839 -0.00210364 0.00967189 -0.0153419 -0.00108619 0.00963276 
0.0140084 -6.89735e-05 0.0102577 0.0290986 -0.000251763 0.0102063 0.0384376 0.000848974 0.00982632 
0.0260144 0.00429017 0.00985314 0.0292006 0.00433004 0.010313 0.0305447 0.00486582 0.0104115 
-0.00552594 0.00555795 0.00965607 0.021602 0.00540593 0.0098388 -0.0429246 0.00657681 0.00940889 
-0.0426568 0.00723228 0.0101926 -0.00598638 0.00689803 0.0101935 -0.0105861 0.00898083 0.0103761 
0.0283387 0.00890506 0.00971479 -0.0101256 0.00978275 0.0102118 0.0197977 0.00963841 0.0100003 
0.00861143 0.0123591 0.00980553 0.0248423 0.0143007 0.01016 0.0287781 0.014071 0.0104192 
-0.00307286 0.0144526 0.0102174 0.000954082 0.0152563 0.00979184 0.0121458 0.0151918 0.00965859 
-0.0360536 0.0173104 0.0102723 0.0407412 0.0174253 0.00921613 -0.0214239 0.0189608 0.0103728 
-0.0153727 0.020636 0.0103495 0.00742845 0.0199749 0.00921723 0.0123926 0.0218243 0.0100402 
0.0398418 0.0217469 0.010364 -0.0148746 0.0223253 0.0103081 0.0167463 0.0251763 0.0103424 
0.0226957 0.0260881 0.010389 -0.0128609 0.0265935 0.00935827 -0.0108954 0.0304 0.00980476 
0.00372347 0.0304157 0.00980633 0.00390562 0.0317225 0.00963988 0.0191028 0.0315895 0.00982735 
0.0372507 0.0318783 0.00930483 -0.0425374 0.0333781 0.00957084 0.00727395 0.0332762 0.00972738 
0.0231674 0.0340949 0.00981466 0.0278529 0.0342296 0.00930665 -0.00196307 0.0366495 0.00942494 
0.00888594 0.0360502 0.00942785 -0.00973825 0.0391656 0.00998624 0.0238959 0.0383247 0.0101482 
0.00201585 0.0404036 0.0100716 0.0222253 0.0407186 0.00976834 0.00528787 0.0432844 0.0103491 
0.0405446 0.0433429 0.00969387 -0.044759 -0.0437614 0.0107055 0.0131812 -0.0427533 0.0110568 
-0.00302782 -0.0385948 0.0107467 0.0156715 -0.0391733 0.0114287 0.00985621 -0.0367022 0.0110318 
0.0244271 -0.0334586 0.0104318 -0.0376897 -0.0314333 0.0116271 -0.0262624 -0.032473 0.0112458 
-0.0233761 -0.031813 0.010943 -0.0232422 -0.0321576 0.0105497 0.00802514 -0.031483 0.0117422 
-0.0266532 -0.0301716 0.0107524 -0.0220587 -0.0306349 0.0107543 -0.0448384 -0.0296834 0.0109286 
-0.0414327 -0.0290659 0.0106742 -0.0263426 -0.0292431 0.0115738 0.00577088 -0.0287415 0.0116396 
0.0306875 -0.0259396 0.0106792 0.032808 -0.025967 0.0105389 0.00558373 -0.0242787 0.0109658 
-0.0127621 -0.0231756 0.0109197 0.0240101 -0.0228809 0.0105927 0.035159 -0.023363 0.0105919 
0.0436787 -0.0219137 0.0105831 -0.00827992 -0.020547 0.0109414 0.0336491 -0.0197505 0.0107216 
-0.0108877 -0.0188832 0.0105016 -0.0317771 -0.0175651 0.0105126 0.0030191 -0.0179247 0.0113196 
0.0404767 -0.0183151 0.0112409 0.0223879 -0.0163393 0.0105393 0.038292 -0.016257 0.0106407 
0.0198229 -0.0156851 0.0110993 0.0323803 -0.0150629 0.0110603 -0.0186412 -0.0134353 0.0115443 
-0.0327621 -0.0121928 0.0110078 0.00689113 -0.0107816 0.0108866 0.0277003 -0.0107969 0.0107115 
-0.0222502 -0.00974669 0.010505 0.0350526 -0.0102353 0.0104382 -0.00553214 -0.00871323 0.0113393 
-0.0344646 -0.00725539 0.0105305 0.0161928 -0.00760918 0.0114342 0.00937085 -0.00418454 0.0110126 
0.0180458 -0.00470109 0.0105066 -0.0107529 -0.00365687 0.0108718 0.00975646 -0.00313231 0.011032 
-0.00896956 -0.00131708 0.0112402 -0.0283489 -0.000417126 0.0105486 -0.00783961 -0.000387029 0.010801 
-0.00702036 -0.00121172 0.0111004 -0.00967086 0.00179773 0.0109148 0.00417698 0.0024455 0.0104819 
0.0116524 0.00206193 0.0114976 0.00243665 0.00282786 0.0106315 0.0323225 0.00436429 0.0116022 
0.0404406 0.00462082 0.0117161 -0.0287984 0.00559412 0.0104466 -0.0170872 0.00564833 0.010446 
0.0011249 0.00615697 0.010473 0.0228765 0.00606581 0.0112167 -0.009285 0.00693532 0.0108818 
0.023953 0.00820576 0.011334 -0.0392616 0.00972366 0.0105274 0.0212596 0.00979192 0.0107758 
0.0399323 0.0117688 0.0104803 -0.00279986 0.0127222 0.0115432 -0.034865 0.0142961 0.0104461 
-0.0310202 0.0131063 0.0107803 -0.00841171 0.0143034 0.0109275 0.0143092 0.0139794 0.0105671 
0.0311878 0.014057 0.0110642 0.0396593 0.013993 0.010602 0.0441199 0.0136981 0.0111272 
0.0418335 0.0161761 0.0114293 0.0215224 0.0171285 0.0105513 -0.0282566 0.021284 0.0104701 
-0.0122989 0.0222019 0.0106813 0.00126512 0.0228658 0.0111847 0.03506 0.0228899 0.0111896 
0.021223 0.0244832 0.0115545 0.0438582 0.0244724 0.0106431 0.0444958 0.0309554 0.0112994 
0.0193546 0.0324404 0.0114524 0.00284552 0.0345861 0.0105209 -0.0245447 0.0378537 0.0110285 
0.0297434 0.0373158 0.0116638 -0.00585061 0.0388609 0.0111994 0.0165329 0.0385374 0.0114001 
-0.0312382 0.0393096 0.0107282 0.0251972 0.0393087 0.0109927 0.0163992 0.0415262 0.0110476 
0.0352701 0.0439749 0.011042 -0.0346971 -0.0446764 0.012536 -0.00340304 -0.0448428 0.0129623 
0.0145521 -0.0432303 0.0119143 -0.0248654 -0.0427111 0.0123541 0.0248068 -0.0428986 0.0124905 
0.0238162 -0.0409762 0.0127013 0.0338942 -0.0410147 0.0127244 0.0414821 -0.0410789 0.0122098 
0.0424299 -0.0409921 0.0130302 0.0397687 -0.0374633 0.0124155 0.03382 -0.0268981 0.0124914 
-0.0338231 -0.0250135 0.0129606 0.00538025 -0.0241403 0.0130045 -0.0408326 -0.0234295 0.0118087 
0.0394323 -0.021923 0.0123997 0.00548761 -0.0197918 0.0119175 -0.0204621 -0.0172006 0.0129756 
0.0403752 -0.0143085 0.0121734 -0.0196799 -0.00931279 0.0127584 0.0406218 -0.0100941 0.0118516 
0.00523139 -0.00599236 0.0123361 -0.0416237 0.00110806 0.0124654 0.0407777 0.000744206 0.0121091 
0.0362421 0.00170773 0.0128206 -0.00723413 0.00605583 0.0129334 0.0250346 0.00641518 0.0118742 
0.0128044 0.0127337 0.0124031 0.0261916 0.0119357 0.0124061 -0.00867948 0.0139924 0.0118406 
8.23501e-07 0.0138406 0.0119108 -0.0196462 0.0155185 0.011815 0.0122157 0.0191756 0.0125505 
0.0388885 0.0193682 0.012903 -0.0421793 0.0225172 0.0121445 -0.0349287 0.0230684 0.0128676 
-0.0190887 0.0269029 0.0122484 -0.0376379 0.0294143 0.0122508 0.00519606 0.0301696 0.011858 
0.00317215 0.0343196 0.0119416 0.0311732 0.0371467 0.0124817 -0.0375088 0.0393741 0.0126936 
-0.0390027 0.0421086 0.0123162 -0.0181988 0.0434549 0.0120343 0.0352379 0.0438995 0.0119551 
-0.0335565 -0.0442122 0.0139861 -0.0308094 -0.0435702 0.014093 -0.027409 -0.0433703 0.0131445 
-0.042922 -0.0404536 0.0138339 -0.0334706 -0.0396012 0.0138979 -0.0248652 -0.040212 0.0141351 
-0.00670669 -0.0394183 0.0130853 0.0244803 -0.0401788 0.0137841 0.0308099 -0.0378456 0.0139562 
-0.0439713 -0.0357399 0.0141439 0.00594186 -0.0351889 0.0139429 0.00879071 -0.0344865 0.0131598 
0.0333162 -0.0342631 0.0139969 -0.0427235 -0.0332389 0.0132741 0.0280204 -0.0311414 0.0139683 
-0.0240024 -0.0280603 0.0135624 -0.00580099 -0.0272788 0.0132408 0.000892701 -0.0263701 0.0139276 
0.0102479 -0.024092 0.013231 0.00623721 -0.0211799 0.01351 0.039775 -0.0211058 0.014186 
0.00156248 -0.0194187 0.0141213 -0.0426154 -0.0165053 0.0141597 -0.0339565 -0.0167518 0.0141318 
-0.0257955 -0.0157834 0.0139868 -0.00444012 -0.0151621 0.0140254 0.0249316 -0.014475 0.0134458 
0.0268005 -0.0146468 0.0136037 -0.0388614 -0.0136303 0.0140046 -0.0329121 -0.0139828 0.0138349 
-0.0227164 -0.0141288 0.0136333 -0.0117656 -0.0138394 0.0139696 0.0176437 -0.0119747 0.0135148 
-0.0112192 -0.0104501 0.0139538 0.00743742 -0.00926665 0.0138085 0.0242571 -0.0100823 0.0139097 
0.0251729 -0.00985964 0.0136705 -0.0343844 -0.0078404 0.0132319 -0.0304645 -0.00701594 0.0133094 
-0.0135858 -0.00672635 0.0132839 0.0109664 -0.00760095 0.0141901 -0.042786 -0.00359954 0.0133497 
-0.0141425 -0.00311887 0.014051 -0.0260142 0.00017485 0.0139542 0.0147261 0.00139147 0.0130681 
0.0188762 0.00181355 0.0139222 0.0449494 0.00392273 0.0139329 -0.037077 0.00611456 0.0130992 
0.0246705 0.0064451 0.0139803 0.030759 0.00580352 0.0135283 0.0221269 0.00728552 0.0140095 
0.0142017 0.0079404 0.0135928 0.0202046 0.00840095 0.0135269 -0.0214351 0.00957734 0.0139229 
0.014866 0.0127598 0.0139231 -0.0429188 0.0135204 0.0133946 0.0336082 0.013194 0.0133752 
0.00517921 0.0169249 0.013969 0.0226738 0.0181095 0.0141086 0.00395304 0.0187088 0.0135515 
0.0090081 0.0191686 0.0140596 -0.0431379 0.0208085 0.0134985 -0.022709 0.0198803 0.0139757 
0.00128112 0.0217131 0.0133797 0.0146363 0.0223077 0.013556 0.0307708 0.0242663 0.0139804 
-0.0386663 0.0253433 0.0137857 -0.00739359 0.0259593 0.0136767 -0.0267569 0.0263983 0.0138019 
-0.0114472 0.026715 0.0135134 0.00953871 0.0271324 0.013229 -0.0357156 0.0282031 0.0135574 
0.0191509 0.0299648 0.0135978 -0.0313244 0.0314049 0.0138993 -0.0200898 0.0311527 0.0139827 
0.0038092 0.0311583 0.0140167 0.0364634 0.0310238 0.0139231 -0.00435696 0.0325462 0.0138149 
0.01325 0.0319187 0.0139879 -0.0264781 0.032823 0.0138645 -0.041477 0.0364172 0.0139066 
-0.0112537 0.0395394 0.0138163 0.00805094 0.0422278 0.0133536 -0.0205282 0.0432397 0.0136793 
0.0399235 0.0434757 0.013071 -0.00674967 -0.0416523 0.01438 -0.0370475 -0.0370945 0.014365 
0.0268369 -0.0315202 0.0155253 -0.0100897 -0.0180162 0.0147483 -0.0405162 -0.0161033 0.0148933 
-0.038829 -0.00978443 0.0152389 0.013874 -0.00963069 0.0147401 0.0286804 -0.00919085 0.0143937 
0.021323 -0.00444137 0.0143905 0.0293019 -0.00298432 0.0153335 0.0133448 0.00646544 0.0141913 
0.0340899 0.00882812 0.0143718 0.0398091 0.011618 0.0145573 0.00976298 0.0163696 0.0150208 
-0.00563177 0.0268155 0.014726 -0.0073504 0.0318329 0.0146708 0.0221021 0.0401282 0.0145946 
-0.0160452 -0.0323821 0.0156131 -0.0240719 -0.0268296 0.0159511 -0.0269092 -0.0125643 0.0160244 
-0.00433253 -0.00676057 0.0157337 0.0180565 -0.00487531 0.0160018 -0.0408092 0.00981999 0.01603 
-0.00782209 0.0241861 0.0162888 0.0181332 0.0246356 0.0165294 0.000162142 0.0251126 0.0168137 
0.0218308 -0.0192565 0.0177583 0.0323804 -0.0132471 0.0178577 -0.0214415 -0.007536 0.017029 
0.039455 -0.000236508 0.0176302 -0.00229178 0.0020129 0.0172181 0.0433459 -0.0353282 0.0183466 
-0.0183202 -0.0175475 0.0183034 0.0275881 -0.00673863 0.0182268 -0.0422696 0.0340949 0.018307 
0.0262592 -0.0217201 0.0215877 0.0414517 -0.0114994 0.0209621 0.00153271 0.0201988 0.0217445 
0.0262096 -0.0449372 0.0222239 0.00264867 -0.0338128 0.0226516 0.0412685 -0.0295104 0.0226207 
-0.00474481 -0.00600267 0.0222327 -0.032208 0.0306075 0.0219663 0.0101031 -0.0273014 0.0251501 
0.0277548 0.0042931 0.0250946 0.012585 0.0155082 0.0249447 0.0354139 0.0312817 0.0256482 
0.0152528 0.033152 0.0264824 -0.00446216 -0.0255279 0.0274369 -0.0368667 0.0306348 0.0272241 
0.00314898 0.00491531 0.0290698 -0.0102477 0.0267602 0.0289302 -0.0393221 -0.0167834 0.030667 
0.0223025 -0.0112244 0.0309375 0.0342493 -0.0115037 0.0305211 -0.0449336 -0.00957357 0.030414 
0.0439232 0.0371117 0.0305116 -0.0207563 -0.0111167 0.0311498 -0.0326334 -0.00963456 0.0312192 
-0.0213481 0.0319153 0.0313048 0.0339316 -0.041715 0.0334246 0.0302919 -0.0148257 0.0332214 
0.0164577 0.0353116 0.0327989 0.00513794 0.0433856 0.03328 -0.0160353 0.0448572 0.0324754 
-0.0328109 -0.0226975 0.034846 0.00265626 0.00371614 0.033661 0.0153641 0.0146287 0.0338461 
-0.0269229 0.0267788 0.0345215 0.0114764 0.0140289 0.0354544 -0.0329608 -0.0218045 0.0372601 
-0.024842 -0.00884532 0.0376071 -0.0371624 0.011326 0.038716 -0.0281804 0.0418824 0.0377741 
-0.0336946 -0.0248459 0.0393755 0.0320014 0.00756294 0.0392041 0.0323341 0.0191974 0.0404803 
-0.0420316 -0.0145538 0.0420685 0.0185094 -0.042363 0.0436275 0.0414834 -0.0181367 0.0427143 
-0.0386256 -0.00983966 0.0433956 0.0341086 -0.0368686 0.0451399 0.0379188 0.0120326 0.0450831 
-0.0440308 0.0448256 0.0441652 -0.0437633 0.0406561 0.0460743 -0.015788 -0.0282898 0.0475257 
-0.0419519 -0.0259749 0.0475589 0.0289145 -0.0340196 0.0486361 0.0154702 -0.00154679 0.0491102 
-0.0144089 0.0201081 0.0502149 0.0104707 0.0313218 0.0516809 -0.0356048 -0.000104637 0.0530154 
0.00357123 -0.00830953 0.0540126 -0.0197415 0.0344175 0.054576 0.00635633 0.000852437 0.0563786 
0.0414788 -0.00521487 0.0579002 -0.0245993 0.0193658 0.0581304 -0.0170112 0.0231088 0.0578349 
-0.0296003 0.0277025 0.0577032 -0.0385899 -0.0405251 0.0584523 0.0419483 -0.0348097 0.0594584 
0.0131273 0.040817 0.0589911 -0.00521279 -0.0413279 0.0605218 0.00308146 0.0401468 0.0601418 
0.0282359 -0.00877456 0.0624758 -0.0081225 0.0151775 0.0626342 -0.0155539 0.0359545 0.0634218 
0.0433204 -0.0141837 0.0652955 -0.0256005 0.0215871 0.064954 -0.00757157 0.00454821 0.0671576 
0.0188903 -0.0308528 0.0713213 -0.0207679 -0.0256315 0.07237 0.00643655 -0.000956063 0.0718152 
0.00347554 0.00338662 0.0737596 0.00741479 -0.0295782 0.0741347 -0.00254916 -0.00379952 0.0764156 

VERTICES 649 648
OFFSETS vtktypeint64
0 1 2 3 4 5 6 7 8 
9 10 11 12 13 14 15 16 17 
18 19 20 21 22 23 24 25 26 
27 28 29 30 31 32 33 34 35 
36 37 38 39 40 41 42 43 44 
45 46 47 48 49 50 51 52 53 
54 55 56 57 58 59 60 61 62 
63 64 65 66 67 68 69 70 71 
72 73 74 75 76 77 78 79 80 
81 82 83 84 85 86 87 88 89 
90 91 92 93 94 95 96 97 98 
99 100 101 102 103 104 105 106 107 
108 109 110 111 112 113 114 115 116 
117 118 119 120 121 122 123 124 125 
126 127 128 129 130 131 132 133 134 
135 136 137 138 139 140 141 142 143 
144 145 146 147 148 149 150 151 152 
153 154 155 156 157 158 159 160 161 
162 163 164 165 166 167 168 169 170 
171 172 173 174 175 176 177 178 179 
180 181 182 183 184 185 186 187 188 
189 190 191 192 193 194 195 196 197 
198 199 200 201 202 203 204 205 206 
207 208 209 210 211 212 213 214 215 
216 217 218 219 220 221 222 223 224 
225 226 227 228 229 230 231 232 233 
234 235 236 237 238 239 240 241 242 
243 244 245 246 247 248 249 250 251 
252 253 254 255 256 257 258 259 260 
261 262 263 264 265 266 267 268 269 
270 271 272 273 274 275 276 277 278 
279 280 281 282 283 284 285 286 287 
288 289 290 291 292 293 294 295 296 
297 298 299 300 301 302 303 304 305 
306 307 308 309 310 311 312 313 314 
315 316 317 318 319 320 321 322 323 
324 325 326 327 328 329 330 331 332 
333 334 335 336 337 338 339 340 341 
342 343 344 345 346 347 348 349 350 
351 352 353 354 355 356 357 358 359 
360 361 362 363 364 365 366 367 368 
369 370 371 372 373 374 375 376 377 
378 379 380 381 382 383 384 385 386 
387 388 389 390 391 392 393 394 395 
396 397 398 399 400 401 402 403 404 
405 406 407 408 409 410 411 412 413 
414 415 416 417 418 419 420 421 422 
423 424 425 426 427 428 429 430 431 
432 433 434 435 436 437 438 439 440 
441 442 443 444 445 446 447 448 449 
450 451 452 453 454 455 456 457 458 
459 460 461 462 463 464 465 466 467 
468 469 470 471 472 473 474 475 476 
477 478 479 480 481 482 483 484 485 
486 487 488 489 490 491 492 493 494 
495 496 497 498 499 500 501 502 503 
504 505 506 507 508 509 510 511 512 
513 514 515 516 517 518 519 520 521 
522 523 524 525 526 527 528 529 530 
531 532 533 534 535 536 537 538 539 
540 541 542 543 544 545 546 547 548 
549 550 551 552 553 554 555 556 557 
558 559 560 561 562 563 564 565 566 
567 568 569 570 571 572 573 574 575 
576 577 578 579 580 581 582 583 584 
585 586 587 588 589 590 591 592 593 
594 595 596 597 598 599 600 601 602 
603 604 605 606 607 608 609 610 611 
612 613 614 615 616 617 618 619 620 
621 622 623 624 625 626 627 628 629 
630 631 632 633 634 635 636 637 638 
639 640 641 642 643 644 645 646 647 
648 
CONNECTIVITY vtktypeint64
0 1 2 3 4 5 6 7 8 
9 10 11 12 13 14 15 16 17 
18 19 20 21 22 23 24 25 26 
27 28 29 30 31 32 33 34 35 
36 37 38 39 40 41 42 43 44 
45 46 47 48 49 50 51 52 53 
54 55 56 57 58 59 60 61 62 
63 64 65 66 67 68 69 70 71 
72 73 74 75 76 77 78 79 80 
81 82 83 84 85 86 87 88 89 
90 91 92 93 94 95 96 97 98 
99 100 101 102 103 104 105 106 107 
108 109 110 111 112 113 114 115 116 
117 118 119 120 121 122 123 124 125 
126 127 128 129 130 131 132 133 134 
135 136 137 138 139 140 141 142 143 
144 145 146 147 148 149 150 151 152 
153 154 155 156 157 158 159 160 161 
162 163 164 165 166 167 168 169 170 
171 172 173 174 175 176 177 178 179 
180 181 182 183 184 185 186 187 188 
189 190 191 192 193 194 195 196 197 
198 199 200 201 202 203 204 205 206 
207 208 209 210 211 212 213 214 215 
216 217 218 219 220 221 222 223 224 
225 226 227 228 229 230 231 232 233 
234 235 236 237 238 239 240 241 242 
243 244 245 246 247 248 249 250 251 
252 253 254 255 256 257 258 259 260 
261 262 263 264 265 266 267 268 269 
270 271 272 273 274 275 276 277 278 
279 280 281 282 283 284 285 286 287 
288 289 290 291 292 293 294 295 296 
297 298 299 300 301 302 303 304 305 
306 307 308 309 310 311 312 313 314 
315 316 317 318 319 320 321 322 323 
324 325 326 327 328 329 330 331 332 
333 334 335 336 337 338 339 340 341 
342 343 344 345 346 347 348 349 350 
351 352 353 354 355 356 357 358 359 
360 361 362 363 364 365 366 367 368 
369 370 371 372 373 374 375 376 377 
378 379 380 381 382 383 384 385 386 
387 388 389 390 391 392 393 394 395 
396 397 398 399 400 401 402 403 404 
405 406 407 408 409 410 411 412 413 
414 415 416 417 418 419 420 421 422 
423 424 425 426 427 428 429 430 431 
432 433 434 435 436 437 438 439 440 
441 442 443 444 445 446 447 448 449 
450 451 452 453 454 455 456 457 458 
459 460 461 462 463 464 465 466 467 
468 469 470 471 472 473 474 475 476 
477 478 479 480 481 482 483 484 485 
486 487 488 489 490 491 492 493 494 
495 496 497 498 499 500 501 502 503 
504 505 506 507 508 509 510 511 512 
513 514 515 516 517 518 519 520 521 
522 523 524 525 526 527 528 529 530 
531 532 533 534 535 536 537 538 539 
540 541 542 543 544 545 546 547 548 
549 550 551 552 553 554 555 556 557 
558 559 560 561 562 563 564 565 566 
567 568 569 570 571 572 573 574 575 
576 577 578 579 580 581 582 583 584 
585 586 587 588 589 590 591 592 593 
594 595 596 597 598 599 600 601 602 
603 604 605 606 607 608 609 610 611 
612 613 614 615 616 617 618 619 620 
621 622 623 624 625 626 627 628 629 
630 631 632 633 634 635 636 637 638 
639 640 641 642 643 644 645 646 647 

POINT_DATA 648
FIELD FieldData 12
id 1 648 int
567 524 562 518 543 553 528 523 591 
549 67 516 264 382 538 546 400 184 
369 419 235 241 230 203 173 492 283 
502 37 526 513 192 517 306 259 101 
95 522 39 27 224 133 542 365 497 
464 262 118 152 97 509 387 559 536 
249 277 19 172 242 99 312 159 344 
402 388 69 589 307 398 103 533 120 
234 160 44 274 422 143 374 194 490 
511 389 519 284 503 501 245 46 48 
358 228 468 220 473 587 485 443 33 
520 507 131 209 114 269 494 391 309 
452 438 31 258 136 210 359 82 436 
489 47 571 525 139 445 527 449 177 
551 441 380 23 580 135 564 80 499 
300 126 153 145 338 181 41 315 521 
254 191 332 180 413 361 434 302 55 
471 350 333 352 294 354 147 532 430 
71 576 547 448 376 276 460 566 340 
3 260 42 368 285 515 50 360 204 
77 334 212 305 56 426 316 124 453 
420 296 480 601 442 221 345 273 70 
7 117 514 138 529 130 109 461 179 
540 504 506 268 466 348 482 182 108 
476 164 89 346 93 140 218 68 52 
35 508 34 115 487 226 24 156 51 
185 128 190 335 493 116 64 472 403 
25 479 238 462 43 157 38 72 383 
243 299 105 57 257 142 405 371 217 
265 341 465 379 418 458 545 396 301 
450 213 144 129 288 255 401 491 310 
202 469 308 433 392 110 166 281 18 
279 325 195 163 266 343 201 148 481 
94 455 225 251 421 232 286 320 328 
123 62 342 272 463 414 92 459 102 
347 477 303 239 404 505 304 250 137 
393 295 331 121 267 79 416 323 329 
317 174 470 154 439 289 355 444 170 
168 74 59 146 106 292 227 293 324 
53 278 370 252 171 20 151 205 132 
66 36 175 208 244 216 141 407 478 
456 467 425 510 261 214 432 60 297 
169 17 150 395 363 63 40 339 49 
431 394 219 78 206 327 65 85 437 
362 45 246 318 386 412 397 275 98 
84 113 390 429 577 207 271 122 183 
415 484 282 111 28 298 211 248 311 
377 75 196 61 486 474 378 446 119 
322 178 447 161 287 330 498 451 81 
313 198 76 372 375 475 366 200 188 
134 256 87 314 326 356 22 367 319 
88 229 107 96 409 291 223 167 237 
440 496 73 176 381 240 290 58 500 
612 215 349 231 428 1 427 563 399 
32 336 263 385 83 90 186 86 495 
353 454 423 424 112 197 21 384 236 
193 54 417 364 357 149 337 104 189 
100 162 408 30 199 410 321 488 187 
158 26 222 29 270 233 155 91 406 
351 457 411 5 247 572 16 127 483 
125 592 512 165 373 15 280 253 435 
570 13 8 6 11 4 14 12 9 
558 530 10 2 565 605 539 615 550 
573 638 561 534 616 548 557 596 645 
613 560 623 579 604 594 593 535 618 
599 628 554 531 585 617 583 597 537 
552 586 614 541 598 622 637 633 578 
569 595 555 581 556 607 590 635 603 
544 626 620 639 575 629 574 634 610 
625 611 568 608 600 630 647 582 588 
609 648 584 606 632 643 602 619 624 
644 646 631 636 627 621 641 640 642 

type 1 648 int
1 1 1 1 1 1 1 1 1 
1 1 2 1 1 1 1 1 1 
1 1 1 1 1 1 1 1 1 
1 1 1 1 1 1 1 1 1 
1 1 1 1 1 1 1 1 1 
1 1 1 1 1 1 1 1 1 
1 1 1 1 1 1 1 1 1 
1 1 1 1 1 1 1 1 1 
1 1 1 1 1 1 1 1 1 
1 1 1 1 1 1 1 1 1 
1 1 1 1 1 1 1 1 1 
1 1 1 1 1 1 1 1 1 
1 1 1 1 1 1 1 1 1 
1 1 1 1 1 1 1 1 1 
1 1 1 1 1 1 1 1 1 
1 1 1 1 1 1 1 1 1 
1 1 1 1 1 1 1 1 1 
1 1 1 1 1 1 1 1 1 
1 1 1 1 1 1 1 1 1 
2 1 1 1 1 1 1 1 1 
1 1 1 1 1 1 1 1 1 
1 1 1 1 1 1 1 1 1 
2 1 1 1 1 1 1 1 1 
1 1 1 1 1 1 1 1 1 
1 1 1 1 1 1 1 1 1 
1 1 1 1 1 1 1 1 1 
1 1 1 1 1 1 1 1 1 
1 1 1 1 1 1 1 1 1 
1 1 1 1 1 1 1 1 1 
1 1 1 1 1 1 1 1 1 
1 1 1 1 1 1 1 1 1 
1 1 1 1 1 1 1 1 1 
1 1 1 1 1 1 1 1 1 
1 1 1 1 1 1 1 1 1 
1 1 1 1 1 1 1 1 1 
1 1 1 1 1 1 1 1 1 
1 1 1 1 1 1 1 1 1 
1 1 1 1 1 1 1 1 1 
1 1 1 1 1 1 1 1 1 
1 1 1 1 1 1 1 1 1 
1 1 1 1 1 1 1 1 1 
1 1 1 1 1 1 1 1 1 
1 1 1 1 1 1 1 1 1 
1 1 1 1 1 1 1 1 1 
1 1 1 1 1 1 1 1 1 
1 1 1 1 1 1 1 1 1 
1 1 1 1 1 1 1 1 1 
1 1 1 1 1 1 1 1 1 
1 1 1 1 1 1 1 1 1 
1 1 1 1 1 1 1 1 1 
1 1 1 1 1 1 1 1 1 
1 1 1 1 1 1 1 1 1 
1 1 1 1 1 1 1 1 1 
1 1 1 1 1 4 1 1 1 
1 1 1 1 1 1 1 1 1 
1 1 1 1 1 1 1 1 1 
1 1 1 1 1 1 1 1 1 
1 1 1 1 1 1 1 1 1 
1 1 1 1 1 1 1 1 1 
1 1 1 2 1 1 2 1 1 
1 1 2 1 1 2 1 1 1 
1 2 2 2 2 2 2 2 2 
1 1 2 3 1 1 1 1 1 
1 1 1 1 1 1 1 1 1 
1 1 1 1 1 1 1 1 1 
1 1 1 1 1 1 1 1 1 
1 1 1 1 1 1 1 1 1 
1 1 1 1 1 1 1 1 1 
1 1 1 1 1 1 1 2 1 
1 1 1 1 1 1 1 1 1 
1 1 1 1 1 1 1 1 1 
1 1 1 1 1 1 1 1 1 

i 3 648 int
0 0 0 0 0 0 0 0 0 
0 0 0 0 0 0 0 0 0 
0 0 0 0 0 0 0 0 0 
0 0 0 0 0 0 0 0 0 
0 0 0 0 0 0 0 0 0 
0 0 0 0 0 0 0 0 0 
0 0 0 0 0 0 0 0 0 
0 0 0 0 0 0 0 0 0 
0 0 0 0 0 0 0 0 0 
0 0 0 0 0 0 0 0 0 
0 0 0 0 0 0 0 0 0 
0 0 0 0 0 0 0 0 0 
0 0 0 0 0 0 0 0 0 
0 0 0 0 0 0 0 0 0 
0 0 0 0 0 0 0 0 0 
0 0 0 0 0 0 0 0 0 
0 0 0 0 0 0 0 0 0 
0 0 0 0 0 0 0 0 0 
0 0 0 0 0 0 0 0 0 
0 0 0 0 0 0 0 0 0 
0 0 0 0 0 0 0 0 0 
0 0 0 0 0 0 0 0 0 
0 0 0 0 0 0 0 0 0 
0 0 0 0 0 0 0 0 0 
0 0 0 0 0 0 0 0 0 
0 0 0 0 0 0 0 0 0 
0 0 0 0 0 0 0 0 0 
0 0 0 0 0 0 0 0 0 
0 0 0 0 0 0 0 0 0 
0 0 0 0 0 0 0 0 0 
0 0 0 0 0 0 0 0 0 
0 0 0 0 0 0 0 0 0 
0 0 0 0 0 0 0 0 0 
0 0 0 0 0 0 0 0 0 
0 0 0 0 0 0 0 0 0 
0 0 0 0 0 0 0 0 0 
0 0 0 0 0 0 0 0 0 
0 0 0 0 0 0 0 0 0 
0 0 0 0 0 0 0 0 0 
0 0 0 0 0 0 0 0 0 
0 0 0 0 0 0 0 0 0 
0 0 0 0 0 0 0 0 0 
0 0 0 0 0 0 0 0 0 
0 0 0 0 0 0 0 0 0 
0 0 0 0 0 0 0 0 0 
0 0 0 0 0 0 0 0 0 
0 0 0 0 0 0 0 0 0 
0 0 0 0 0 0 0 0 0 
0 0 0 0 0 0 0 0 0 
0 0 0 0 0 0 0 0 0 
0 0 0 0 0 0 0 0 0 
0 0 0 0 0 0 0 0 0 
0 0 0 0 0 0 0 0 0 
0 0 0 0 0 0 0 0 0 
0 0 0 0 0 0 0 0 0 
0 0 0 0 0 0 0 0 0 
0 0 0 0 0 0 0 0 0 
0 0 0 0 0 0 0 0 0 
0 0 0 0 0 0 0 0 0 
0 0 0 0 0 0 0 0 0 
0 0 0 0 0 0 0 0 0 
0 0 0 0 0 0 0 0 0 
0 0 0 0 0 0 0 0 0 
0 0 0 0 0 0 0 0 0 
0 0 0 0 0 0 0 0 0 
0 0 0 0 0 0 0 0 0 
0 0 0 0 0 0 0 0 0 
0 0 0 0 0 0 0 0 0 
0 0 0 0 0 0 0 0 0 
0 0 0 0 0 0 0 0 0 
0 0 0 0 0 0 0 0 0 
0 0 0 0 0 0 0 0 0 
0 0 0 0 0 0 0 0 0 
0 0 0 0 0 0 0 0 0 
0 0 0 0 0 0 0 0 0 
0 0 0 0 0 0 0 0 0 
0 0 0 0 0 0 0 0 0 
0 0 0 0 0 0 0 0 0 
0 0 0 0 0 0 0 0 0 
0 0 0 0 0 0 0 0 0 
0 0 0 0 0 0 0 0 0 
0 0 0 0 0 0 0 0 0 
0 0 0 0 0 0 0 0 0 
0 0 0 0 0 0 0 0 0 
0 0 0 0 0 0 0 0 0 
0 0 0 0 0 0 0 0 0 
0 0 0 0 0 0 0 0 0 
0 0 0 0 0 0 0 0 0 
0 0 0 0 0 0 0 0 0 
0 0 0 0 0 0 0 0 0 
0 0 0 0 0 0 0 0 0 
0 0 0 0 0 0 0 0 0 
0 0 0 0 0 0 0 0 0 
0 0 0 0 0 0 0 0 0 
0 0 0 0 0 0 0 0 0 
0 0 0 0 0 0 0 0 0 
0 0 0 0 0 0 0 0 0 
0 0 0 0 0 0 0 0 0 
0 0 0 0 0 0 0 0 0 
0 0 0 0 0 0 0 0 0 
0 0 0 0 0 0 0 0 0 
0 0 0 0 0 0 0 0 0 
0 0 0 0 0 0 0 0 0 
0 0 0 0 0 0 0 0 0 
0 0 0 0 0 0 0 0 0 
0 0 0 0 0 0 0 0 0 
0 0 0 0 0 0 0 0 0 
0 0 0 0 0 0 0 0 0 
0 0 0 0 0 0 0 0 0 
0 0 0 0 0 0 0 0 0 
0 0 0 0 0 0 0 0 0 
0 0 0 0 0 0 0 0 0 
0 0 0 0 0 0 0 0 0 
0 0 0 0 0 0 0 0 0 
0 0 0 0 0 0 0 0 0 
0 0 0 0 0 0 0 0 0 
0 0 0 0 0 0 0 0 0 
0 0 0 0 0 0 0 0 0 
0 0 0 0 0 0 0 0 0 
0 0 0 0 0 0 0 0 0 
0 0 0 0 0 0 0 0 0 
0 0 0 0 0 0 0 0 0 
0 0 0 0 0 0 0 0 0 
0 0 0 0 0 0 0 0 0 
0 0 0 0 0 0 0 0 0 
0 0 0 0 0 0 0 0 0 
0 0 0 0 0 0 0 0 0 
0 0 0 0 0 0 0 0 0 
0 0 0 0 0 0 0 0 0 
0 0 0 0 0 0 0 0 0 
0 0 0 0 0 0 0 0 0 
0 0 0 0 0 0 0 0 0 
0 0 0 0 0 0 0 0 0 
0 0 0 0 0 0 0 0 0 
0 0 0 0 0 0 0 0 0 
0 0 0 0 0 0 0 0 0 
0 0 0 0 0 0 0 0 0 
0 0 0 0 0 0 0 0 0 
0 0 0 0 0 0 0 0 0 
0 0 0 0 0 0 0 0 0 
0 0 0 0 0 0 0 0 0 
0 0 0 0 0 0 0 0 0 
0 0 0 0 0 0 0 0 0 
0 0 0 0 0 0 0 0 0 
0 0 0 0 0 0 0 0 0 
0 0 0 0 0 0 0 0 0 
0 0 0 0 0 0 0 0 0 
0 0 0 0 0 0 0 0 0 
0 0 0 0 0 0 0 0 0 
0 0 0 0 0 0 0 0 0 
0 0 0 0 0 0 0 0 0 
0 0 0 0 0 0 0 0 0 
0 0 0 0 0 0 0 0 0 
0 0 0 0 0 0 0 0 0 
0 0 0 0 0 0 0 0 0 
0 0 0 0 0 0 0 0 0 
0 0 0 0 0 0 0 0 0 
0 0 0 0 0 0 0 0 0 
0 0 0 0 0 0 0 0 0 
0 0 0 0 0 0 0 0 0 
0 0 0 0 0 0 0 0 0 
0 0 0 0 0 0 0 0 0 
0 0 0 0 0 0 0 0 0 
0 0 0 0 0 0 0 0 0 
0 0 0 0 0 0 0 0 0 
0 0 0 0 0 0 0 0 0 
0 0 0 0 0 0 0 0 0 
0 0 0 0 0 0 0 0 0 
0 0 0 0 0 0 0 0 0 
0 0 0 0 0 0 0 0 0 
0 0 0 0 0 0 0 0 0 
0 0 0 0 0 0 0 0 0 
0 0 0 0 0 0 0 0 0 
0 0 0 0 0 0 0 0 0 
0 0 0 0 0 0 0 0 0 
0 0 0 0 0 0 0 0 0 
0 0 0 0 0 0 0 0 0 
0 0 0 0 0 0 0 0 0 
0 0 0 0 0 0 0 0 0 
0 0 0 0 0 0 0 0 0 
0 0 0 0 0 0 0 0 0 
0 0 0 0 0 0 0 0 0 
0 0 0 0 0 0 0 0 0 
0 0 0 0 0 0 0 0 0 
0 0 0 0 0 0 0 0 0 
0 0 0 0 0 0 0 0 0 
0 0 0 0 0 0 0 0 0 
0 0 0 0 0 0 0 0 0 
0 0 0 0 0 0 0 0 0 
0 0 0 0 0 0 0 0 0 
0 0 0 0 0 0 0 0 0 
0 0 0 0 0 0 0 0 0 
0 0 0 0 0 0 0 0 0 
0 0 0 0 0 0 0 0 0 
0 0 0 0 0 0 0 0 0 
0 0 0 0 0 0 0 0 0 
0 0 0 0 0 0 0 0 0 
0 0 0 0 0 0 0 0 0 
0 0 0 0 0 0 0 0 0 
0 0 0 0 0 0 0 0 0 
0 0 0 0 0 0 0 0 0 
0 0 0 0 0 0 0 0 0 
0 0 0 0 0 0 0 0 0 
0 0 0 0 0 0 0 0 0 
0 0 0 0 0 0 0 0 0 
0 0 0 0 0 0 0 0 0 
0 0 0 0 0 0 0 0 0 
0 0 0 0 0 0 0 0 0 
0 0 0 0 0 0 0 0 0 
0 0 0 0 0 0 0 0 0 
0 0 0 0 0 0 0 0 0 
0 0 0 0 0 0 0 0 0 
0 0 0 0 0 0 0 0 0 
0 0 0 0 0 0 0 0 0 
0 0 0 0 0 0 0 0 0 
0 0 0 0 0 0 0 0 0 

v 3 648 double
0 0 0.17639016792 0 0 0.23369276559 0 0 -0.5372491875 
0 0 -0.61199918749 0 0 0.16477805019 0 0 0.20885783733 
0 0 0.22106855833 0 0 0.22664926587 0 0 -0.5014991875 
0 0 -0.5502491875 0 0 0.2307398737 0 0 0.25493890482 
0 0 0.20598311028 0 0 0.20202655107 0 0 0.15745010047 
0 0 -0.5534991875 0 0 0.20076311647 0 0 0.20860849633 
0 0 0.2466745455 0 0 0.19474719877 0 0 0.19926137709 
0 0 0.24250396508 0 0 0.25862966104 0 0 0.19554463833 
0 0 0.2281990027 0 0 0.22643599088 0 0 0.22414907191 
0 0 0.18260957339 0 0 0.23196808977 0 0 0.19862566644 
0 0 -0.62174918749 0 0 0.20817235402 0 0 -0.61199918749 
0 0 0.19777863914 0 0 0.22010226065 0 0 0.22194985498 
0 0 0.19472115131 0 0 0.21531277565 0 0 0.22408682451 
0 0 0.25524085941 0 0 0.22698265393 0 0 0.24128134508 
0 0 0.14828279353 0 0 0.21870487951 0 0 0.1779749161 
0 0 0.22912771301 0 0 0.1849884648 0 0 0.18078019481 
0 0 0.22265023015 0 0 0.22112066995 0 0 0.17035389194 
0 0 0.18892943114 0 0 0.18680935746 0 0 0.18124559261 
0 0 0.23074055303 0 0 0.23266447211 0 0 0.23293811428 
0 0 0.22878608082 0 0 0.21743735965 0 0 0.16951029095 
0 0 0.21191965647 0 0 0.1775427894 0 0 0.18924230122 
0 0 0.21739133461 0 0 0.20614956595 0 0 0.17991711057 
0 0 -0.5014991875 0 0 0.20709234953 0 0 0.23207547774 
0 0 0.18328563551 0 0 -0.5729991875 0 0 0.21955118535 
0 0 0.20896782182 0 0 0.17021572821 0 0 0.21393137891 
0 0 0.16378411358 0 0 0.21678431795 0 0 0.17138996997 
0 0 0.16335865188 0 0 0.16430432123 0 0 0.21317091095 
0 0 0.19593825085 0 0 0.21999843547 0 0 0.20065695628 
0 0 0.21068370073 0 0 0.16939355049 0 0 0.20407088516 
0 0 0.2109691891 0 0 0.1704169172 0 0 0.20903093359 
0 0 0.19075127249 0 0 0.21172294269 0 0 0.2200930978 
0 0 0.17122006627 0 0 0.21383539598 0 0 -0.5047491875 
0 0 0.20910442358 0 0 0.1629916031 0 0 0.17283725608 
0 0 0.1840953166 0 0 0.1544792658 0 0 0.21886810429 
0 0 0.20770403403 0 0 0.15995806688 0 0 0.24674267595 
0 0 0.22707141767 0 0 0.22818510339 0 0 0.18044763202 
0 0 0.21232628041 0 0 0.16207007506 0 0 0.15017198685 
0 0 0.20082125133 0 0 0.20128995266 0 0 0.19804701482 
0 0 0.19436365276 0 0 0.15770345373 0 0 0.16552070144 
0 0 0.15031095375 0 0 0.21543119727 0 0 -0.5209991875 
0 0 -0.5924991875 0 0 0.16286063033 0 0 0.14488674398 
0 0 -0.5892491875 0 0 0.16601645664 0 0 0.20294886999 
0 0 -0.5469991875 0 0 0.20618351482 0 0 0.15272855806 
0 0 0.20331966802 0 0 -0.5112491875 0 0 0.14304355323 
0 0 -0.5307491875 0 0 0.20467359327 0 0 0.21549566114 
0 0 0.21391618588 0 0 0.15691411312 0 0 0.19219428156 
0 0 0.19951948895 0 0 0.15498777147 0 0 0.16569304632 
0 0 0.20280109293 0 0 0.19157144696 0 0 0.085670932161 
0 0 0.16134387953 0 0 0.2039269701 0 0 0.19927406016 
0 0 0.19685320721 0 0 0.17109547843 0 0 0.13889264039 
0 0 0.20592856447 0 0 0.15981560812 0 0 0.15817098209 
0 0 0.18850771096 0 0 0.17839015029 0 0 0.13806758255 
0 0 0.11479127286 0 0 0.12531409224 0 0 0.18817531937 
0 0 0.17807484948 0 0 -0.5762491875 0 0 0.1838849779 
0 0 0.13271314713 0 0 -0.5144991875 0 0 -0.5534991875 
0 0 0.19212648654 0 0 0.18898849882 0 0 0.18716490857 
0 0 0.17602337989 0 0 -0.5274991875 0 0 0.19815705362 
0 0 0.22484159217 0 0 0.11808573108 0 0 0.1349564732 
0 0 0.12770180196 0 0 0.18258298966 0 0 0.085593875117 
0 0 0.21720117388 0 0 0.14084946945 0 0 0.14233870917 
0 0 0.19582925621 0 0 0.11754994523 0 0 0.18697945307 
0 0 0.17547378792 0 0 0.12127039158 0 0 0.1447297918 
0 0 0.22304840314 0 0 0.18900351031 0 0 0.19545015957 
0 0 0.12439210405 0 0 0.19055862228 0 0 0.19692258543 
0 0 -0.4852491875 0 0 0.19387616919 0 0 0.18593672276 
0 0 0.12859315149 0 0 0.13134807024 0 0 0.17939137681 
0 0 0.2260341462 0 0 0.13087764141 0 0 -0.62174918749 
0 0 0.17147863391 0 0 0.15210374761 0 0 0.18435554167 
0 0 0.13352774817 0 0 0.11929102165 0 0 0.1892904619 
0 0 -0.5632491875 0 0 0.10389259474 0 0 0.046461542713 
0 0 0.11628208622 0 0 0.19327797599 0 0 0.12848400741 
0 0 0.19170114581 0 0 0.15264861484 0 0 0.12467002975 
0 0 0.18550029296 0 0 -0.0022537198833 0 0 0.16565113334 
0 0 0.11333277306 0 0 0.16990790395 0 0 0.10496189411 
0 0 0.079892901084 0 0 0.17279672217 0 0 0.15758503861 
0 0 0.085796850056 0 0 0.050698391705 0 0 0.087424339362 
0 0 -0.008134070381 0 0 0.16074390542 0 0 0.10620571788 
0 0 0.078752197933 0 0 0.17198283405 0 0 0.058608492535 
0 0 0.0032515357371 0 0 0.10612535534 0 0 0.0098591107312 
0 0 0.18744275749 0 0 0.16357121891 0 0 0.17390203858 
0 0 0.08995881714 0 0 0.11172179896 0 0 0.1706104792 
0 0 0.17099797158 0 0 0.09563462461 0 0 0.069477322515 
0 0 0.16316101458 0 0 0.1762125013 0 0 0.096463269824 
0 0 0.16319120819 0 0 0.0036772546133 0 0 -0.010464087652 
0 0 0.090096715501 0 0 0.11704568374 0 0 0.17088803486 
0 0 -0.01466005807 0 0 0.11407782251 0 0 0.15850996777 
0 0 0.1766175969 0 0 0.16740868975 0 0 0.16795808787 
0 0 0.16083023114 0 0 0.10459104274 0 0 -0.0061986275094 
0 0 0.176020902 0 0 0.011725557368 0 0 0.023690868858 
0 0 -0.5567491875 0 0 -0.008661735923 0 0 0.17517164733 
0 0 0.0059739452532 0 0 0.18622422836 0 0 0.16339107439 
0 0 0.091912487846 0 0 0.07093671245 0 0 0.080878541683 
0 0 0.097722031677 0 0 0.0032121328154 0 0 0.029251770652 
0 0 0.090024274814 0 0 0.11645177989 0 0 0.094168135922 
0 0 0.01371260836 0 0 0.12093486971 0 0 0.058023748338 
0 0 0.02125976435 0 0 0.18560486661 0 0 0.0015003291425 
0 0 0.15752696755 0 0 0.16416880167 0 0 -0.0024356195483 
0 0 0.057978766896 0 0 0.17457114277 0 0 0.11157442376 
0 0 0.09095688086 0 0 0.10029465513 0 0 0.16954424107 
0 0 0.13359330399 0 0 0.1752794822 0 0 0.166930019 
0 0 0.11217963756 0 0 0.17976748639 0 0 0.13372198385 
0 0 0.17257618137 0 0 0.090717013175 0 0 0.082129841244 
0 0 0.17039777206 0 0 0.091610958015 0 0 0.16432263149 
0 0 0.11651900443 0 0 0.057347291698 0 0 0.14877333282 
0 0 0.019712090103 0 0 0.021639103353 0 0 0.15420769518 
0 0 0.051133225601 0 0 0.13669773744 0 0 0.07699403286 
0 0 0.16652224689 0 0 0.044384101829 0 0 0.11287137421 
0 0 0.018056688561 0 0 0.16049597187 0 0 0.056147673871 
0 0 0.15895764348 0 0 0.13944596037 0 0 0.04012799375 
0 0 0.090453135003 0 0 0.058880818946 0 0 0.16134260613 
0 0 0.16108226513 0 0 0.1631246632 0 0 0.15665835461 
0 0 0.042235070519 0 0 0.10818727387 0 0 0.034527698849 
0 0 0.026941072907 0 0 0.059626862799 0 0 0.034548948708 
0 0 0.053369318307 0 0 0.036692624109 0 0 0.15343708147 
0 0 0.089318355887 0 0 0.15923929142 0 0 0.14623041349 
0 0 0.14845824937 0 0 0.014216708202 0 0 0.043151537094 
0 0 0.071354974053 0 0 0.013937029223 0 0 0.080449978321 
0 0 0.15502378782 0 0 0.14223851024 0 0 0.0087048273085 
0 0 0.15508650989 0 0 0.16359549401 0 0 0.14815706818 
0 0 0.14490505131 0 0 0.1593589731 0 0 0.041124713581 
0 0 0.042997676344 0 0 0.040570576749 0 0 0.028545990619 
0 0 0.15461109087 0 0 0.15338929975 0 0 0.13657765913 
0 0 0.10399521697 0 0 0.02530007228 0 0 0.053489341194 
0 0 0.050365037878 0 0 0.053671373693 0 0 0.18166563999 
0 0 -0.62824918749 0 0 0.065918786686 0 0 0.011445908054 
0 0 0.045897261746 0 0 0.069433718856 0 0 0.034307173654 
0 0 -0.00056116986236 0 0 0.15744791696 0 0 0.008480194288 
0 0 0.15301661168 0 0 0.16127184384 0 0 0.14570589255 
0 0 0.068856269513 0 0 0.021861957549 0 0 0.025260021412 
0 0 0.15234285458 0 0 0.15552128494 0 0 0.0086612515594 
0 0 0.17503861574 0 0 0.15300611842 0 0 0.052927239683 
0 0 0.15747126591 0 0 0.044984124251 0 0 0.11391084593 
0 0 0.0065533236391 0 0 0.15287076182 0 0 0.029509009742 
0 0 0.071790503033 0 0 0.03201681787 0 0 0.059042480661 
0 0 0.14871065288 0 0 0.11950715508 0 0 0.10616967778 
0 0 0.13218934304 0 0 0.12246097516 0 0 0.11791264223 
0 0 0.11935675081 0 0 -0.5144991875 0 0 0.064433887422 
0 0 0.13747666326 0 0 0.12279681923 0 0 0.12288600823 
0 0 0.10620527993 0 0 0.12828093076 0 0 0.041303531192 
0 0 0.14975410065 0 0 0.13566800132 0 0 0.11187446234 
0 0 0.1311541819 0 0 0.11147448595 0 0 0.13431092589 
0 0 0.13088987987 0 0 0.11917436554 0 0 0.13312416526 
0 0 0.11970310664 0 0 0.11509689267 0 0 0.13826096076 
0 0 0.12636581688 0 0 0.12192703214 0 0 0.1385903253 
0 0 0.03675222004 0 0 0.13294492758 0 0 0.12386530288 
0 0 0.12091485738 0 0 0.12566143671 0 0 0.11254808518 
0 0 0.12972376619 0 0 0.12962900908 0 0 0.13955348505 
0 0 0.13782425336 0 0 0.12675754587 0 0 0.11409147004 
0 0 0.016400361377 0 0 0.12818515857 0 0 0.13466826791 
0 0 0.048856370692 0 0 0.02436460083 0 0 0.10042836513 
0 0 0.025032498223 0 0 0.069546906591 0 0 0.055496025138 
0 0 0.10375402456 0 0 0.10470539687 0 0 0.034079879721 
0 0 0.093944162738 0 0 0.060496162096 0 0 0.099712433904 
0 0 0.03562693824 0 0 0.09784102016 0 0 0.026453643225 
0 0 0.12760857148 0 0 0.10134053399 0 0 0.029391393465 
0 0 0.14153848372 0 0 0.087531229141 0 0 0.051616424948 
0 0 0.063236514499 0 0 0.077802991588 0 0 0.072419792349 
0 0 0.032718376759 0 0 0.038832748483 0 0 0.11795223559 
0 0 0.094145789968 0 0 0.050286617136 0 0 0.093727996984 
0 0 -0.4689991875 0 0 0.03975149073 0 0 0.091355498066 
0 0 0.024368854464 0 0 0.022703200432 0 0 0.27600495422 
0 0 0.086096990503 0 0 -0.5339991875 0 0 0.09469997473 
0 0 0.1201994641 0 0 0.039774942016 0 0 0.093301099179 
0 0 0.03929321721 0 0 0.058316099354 0 0 0.1027742242 
0 0 0.062354259803 0 0 0.033247523635 0 0 0.10681485711 
0 0 0.042612892851 0 0 0.08622746489 0 0 0.030218269148 
0 0 0.10260393011 0 0 0.1033497643 0 0 0.025824078578 
0 0 0.10425089378 0 0 0.11111512922 0 0 0.12405983075 
0 0 0.053748017659 0 0 0.1153619558 0 0 0.085649794968 
0 0 0.053223547081 0 0 0.11615919577 0 0 0.031673806034 
0 0 0.093830603534 0 0 0.10849910205 0 0 0.045453642577 
0 0 0.075492702503 0 0 0.084842965601 0 0 0.077679941653 
0 0 0.11539832218 0 0 0.099827188554 0 0 0.085862874688 
0 0 0.083178241569 0 0 0.068545565038 0 0 0.046313647094 
0 0 0.056720856594 0 0 0.02776953854 0 0 0.10230145261 
0 0 0.055607530329 0 0 0.026131885097 0 0 0.072247659444 
0 0 0.08766806089 0 0 0.09362167665 0 0 0.086505990119 
0 0 0.10249925693 0 0 0.064531243403 0 0 0.10567585003 
0 0 0.11360737614 0 0 0.048478355996 0 0 -0.5209991875 
0 0 0.11852253975 0 0 0.035087521381 0 0 0.064855842435 
0 0 0.049656209015 0 0 -0.4982491875 0 0 -0.62174918749 
0 0 0.050514568596 0 0 0.050673118708 0 0 0.15667426443 
0 0 0.064624106039 0 0 0.055313378243 0 0 0.084073529127 
0 0 -0.5209991875 0 0 0.098915213389 0 0 0.087995650031 
0 0 0.038430855619 0 0 0.055580756865 0 0 0.13460758077 
0 0 0.072306380696 0 0 0.058308513164 0 0 0.084827231632 
0 0 -0.5404991875 0 0 -0.5794991875 0 0 0.10227263689 
0 0 0.15594446505 0 0 -0.5307491875 0 0 -0.4819991875 
0 0 -0.5632491875 0 0 -0.4689991875 0 0 -0.5502491875 
0 0 -0.5177491875 0 0 -0.4494991875 0 0 -0.5372491875 
0 0 -0.5729991875 0 0 -0.4657491875 0 0 -0.5502491875 
0 0 -0.5404991875 0 0 -0.4917491875 0 0 -0.4462491875 
0 0 -0.4689991875 0 0 -0.5372491875 0 0 -0.4592491875 
0 0 -0.5112491875 0 0 -0.4819991875 0 0 -0.4949991875 
0 0 -0.4949991875 0 0 -0.5697491875 0 0 -0.4657491875 
0 0 -0.4884991875 0 0 -0.4592491875 0 0 -0.5437491875 
0 0 -0.5794991875 0 0 -0.5079991875 0 0 -0.4657491875 
0 0 -0.5079991875 0 0 -0.4917491875 0 0 -0.5697491875 
0 0 -0.5469991875 0 0 -0.5047491875 0 0 -0.4689991875 
0 0 -0.5632491875 0 0 -0.4917491875 0 0 -0.4624991875 
0 0 -0.4527491875 0 0 -0.4559991875 0 0 -0.5112491875 
0 0 -0.5209991875 0 0 -0.4949991875 0 0 -0.5437491875 
0 0 -0.5112491875 0 0 -0.5437491875 0 0 -0.4787491875 
0 0 -0.5014991875 0 0 -0.4527491875 0 0 -0.4819991875 
0 0 -0.5599991875 0 0 -0.4592491875 0 0 -0.4624991875 
0 0 -0.4494991875 0 0 -0.5177491875 0 0 -0.4592491875 
0 0 -0.5177491875 0 0 -0.4527491875 0 0 -0.4754991875 
0 0 -0.4592491875 0 0 -0.4722491875 0 0 -0.5242491875 
0 0 -0.4787491875 0 0 -0.4852491875 0 0 -0.4592491875 
0 0 -0.4462491875 0 0 -0.5079991875 0 0 -0.5047491875 
0 0 -0.4754991875 0 0 -0.4462491875 0 0 -0.5079991875 
0 0 -0.4819991875 0 0 -0.4559991875 0 0 -0.4462491875 
0 0 -0.4819991875 0 0 -0.4624991875 0 0 -0.4592491875 
0 0 -0.4462491875 0 0 -0.4462491875 0 0 -0.4559991875 
0 0 -0.4527491875 0 0 -0.4592491875 0 0 -0.4624991875 
0 0 -0.4494991875 0 0 -0.4494991875 0 0 -0.4462491875 

f 3 648 double
0 0 -1.7425367252e-10 0 0 -1.7425367252e-10 0 0 -1.7425367252e-10 
0 0 -1.7425367252e-10 0 0 -1.7425367252e-10 0 0 -1.7425367252e-10 
0 0 -1.7425367252e-10 0 0 -1.7425367252e-10 0 0 -1.7425367252e-10 
0 0 -1.7425367252e-10 0 0 -1.7425367252e-10 0 0 -8.9019973083e-09 
0 0 -1.7425367252e-10 0 0 -1.7425367252e-10 0 0 -1.7425367252e-10 
0 0 -1.7425367252e-10 0 0 -1.7425367252e-10 0 0 -1.7425367252e-10 
0 0 -1.7425367252e-10 0 0 -1.7425367252e-10 0 0 -1.7425367252e-10 
0 0 -1.7425367252e-10 0 0 -1.7425367252e-10 0 0 -1.7425367252e-10 
0 0 -1.7425367252e-10 0 0 -1.7425367252e-10 0 0 -1.7425367252e-10 
0 0 -1.7425367252e-10 0 0 -1.7425367252e-10 0 0 -1.7425367252e-10 
0 0 -1.7425367252e-10 0 0 -1.7425367252e-10 0 0 -1.7425367252e-10 
0 0 -1.7425367252e-10 0 0 -1.7425367252e-10 0 0 -1.7425367252e-10 
0 0 -1.7425367252e-10 0 0 -1.7425367252e-10 0 0 -1.7425367252e-10 
0 0 -1.7425367252e-10 0 0 -1.7425367252e-10 0 0 -1.7425367252e-10 
0 0 -1.7425367252e-10 0 0 -1.7425367252e-10 0 0 -1.7425367252e-10 
0 0 -1.7425367252e-10 0 0 -1.7425367252e-10 0 0 -1.7425367252e-10 
0 0 -1.7425367252e-10 0 0 -1.7425367252e-10 0 0 -1.7425367252e-10 
0 0 -1.7425367252e-10 0 0 -1.7425367252e-10 0 0 -1.7425367252e-10 
0 0 -1.7425367252e-10 0 0 -1.7425367252e-10 0 0 -1.7425367252e-10 
0 0 -1.7425367252e-10 0 0 -1.7425367252e-10 0 0 -1.7425367252e-10 
0 0 -1.7425367252e-10 0 0 -1.7425367252e-10 0 0 -1.7425367252e-10 
0 0 -1.7425367252e-10 0 0 -1.7425367252e-10 0 0 -1.7425367252e-10 
0 0 -1.7425367252e-10 0 0 -1.7425367252e-10 0 0 -1.7425367252e-10 
0 0 -1.7425367252e-10 0 0 -1.7425367252e-10 0 0 -1.7425367252e-10 
0 0 -1.7425367252e-10 0 0 -1.7425367252e-10 0 0 -1.7425367252e-10 
0 0 -1.7425367252e-10 0 0 -1.7425367252e-10 0 0 -1.7425367252e-10 
0 0 -1.7425367252e-10 0 0 -1.7425367252e-10 0 0 -1.7425367252e-10 
0 0 -1.7425367252e-10 0 0 -1.7425367252e-10 0 0 -1.7425367252e-10 
0 0 -1.7425367252e-10 0 0 -1.7425367252e-10 0 0 -1.7425367252e-10 
0 0 -1.7425367252e-10 0 0 -1.7425367252e-10 0 0 -1.7425367252e-10 
0 0 -1.7425367252e-10 0 0 -1.7425367252e-10 0 0 -1.7425367252e-10 
0 0 -1.7425367252e-10 0 0 -1.7425367252e-10 0 0 -1.7425367252e-10 
0 0 -1.7425367252e-10 0 0 -1.7425367252e-10 0 0 -1.7425367252e-10 
0 0 -1.7425367252e-10 0 0 -1.7425367252e-10 0 0 -1.7425367252e-10 
0 0 -1.7425367252e-10 0 0 -1.7425367252e-10 0 0 -1.7425367252e-10 
0 0 -1.7425367252e-10 0 0 -1.7425367252e-10 0 0 -1.7425367252e-10 
0 0 -1.7425367252e-10 0 0 -1.7425367252e-10 0 0 -1.7425367252e-10 
0 0 -1.7425367252e-10 0 0 -1.7425367252e-10 0 0 -1.7425367252e-10 
0 0 -1.7425367252e-10 0 0 -1.7425367252e-10 0 0 -1.7425367252e-10 
0 0 -1.7425367252e-10 0 0 -1.7425367252e-10 0 0 -1.7425367252e-10 
0 0 -1.7425367252e-10 0 0 -1.7425367252e-10 0 0 -1.7425367252e-10 
0 0 -1.7425367252e-10 0 0 -1.7425367252e-10 0 0 -1.7425367252e-10 
0 0 -1.7425367252e-10 0 0 -1.7425367252e-10 0 0 -1.7425367252e-10 
0 0 -1.7425367252e-10 0 0 -1.7425367252e-10 0 0 -1.7425367252e-10 
0 0 -1.7425367252e-10 0 0 -1.7425367252e-10 0 0 -1.7425367252e-10 
0 0 -1.7425367252e-10 0 0 -1.7425367252e-10 0 0 -1.7425367252e-10 
0 0 -1.7425367252e-10 0 0 -1.7425367252e-10 0 0 -1.7425367252e-10 
0 0 -1.7425367252e-10 0 0 -1.7425367252e-10 0 0 -1.7425367252e-10 
0 0 -1.7425367252e-10 0 0 -1.7425367252e-10 0 0 -1.7425367252e-10 
0 0 -1.7425367252e-10 0 0 -1.7425367252e-10 0 0 -1.7425367252e-10 
0 0 -1.7425367252e-10 0 0 -1.7425367252e-10 0 0 -1.7425367252e-10 
0 0 -1.7425367252e-10 0 0 -1.7425367252e-10 0 0 -1.7425367252e-10 
0 0 -1.7425367252e-10 0 0 -1.7425367252e-10 0 0 -1.7425367252e-10 
0 0 -1.7425367252e-10 0 0 -1.7425367252e-10 0 0 -1.7425367252e-10 
0 0 -1.7425367252e-10 0 0 -1.7425367252e-10 0 0 -1.7425367252e-10 
0 0 -1.7425367252e-10 0 0 -1.7425367252e-10 0 0 -1.7425367252e-10 
0 0 -1.7425367252e-10 0 0 -1.7425367252e-10 0 0 -1.7425367252e-10 
0 0 -8.9019973083e-09 0 0 -1.7425367252e-10 0 0 -1.7425367252e-10 
0 0 -1.7425367252e-10 0 0 -1.7425367252e-10 0 0 -1.7425367252e-10 
0 0 -1.7425367252e-10 0 0 -1.7425367252e-10 0 0 -1.7425367252e-10 
0 0 -1.7425367252e-10 0 0 -1.7425367252e-10 0 0 -1.7425367252e-10 
0 0 -1.7425367252e-10 0 0 -1.7425367252e-10 0 0 -1.7425367252e-10 
0 0 -1.7425367252e-10 0 0 -1.7425367252e-10 0 0 -1.7425367252e-10 
0 0 -1.7425367252e-10 0 0 -1.7425367252e-10 0 0 -1.7425367252e-10 
0 0 -1.7425367252e-10 0 0 -1.7425367252e-10 0 0 -1.7425367252e-10 
0 0 -1.7425367252e-10 0 0 -1.7425367252e-10 0 0 -1.7425367252e-10 
0 0 -8.9019973083e-09 0 0 -1.7425367252e-10 0 0 -1.7425367252e-10 
0 0 -1.7425367252e-10 0 0 -1.7425367252e-10 0 0 -1.7425367252e-10 
0 0 -1.7425367252e-10 0 0 -1.7425367252e-10 0 0 -1.7425367252e-10 
0 0 -1.7425367252e-10 0 0 -1.7425367252e-10 0 0 -1.7425367252e-10 
0 0 -1.7425367252e-10 0 0 -1.7425367252e-10 0 0 -1.7425367252e-10 
0 0 -1.7425367252e-10 0 0 -1.7425367252e-10 0 0 -1.7425367252e-10 
0 0 -1.7425367252e-10 0 0 -1.7425367252e-10 0 0 -1.7425367252e-10 
0 0 -1.7425367252e-10 0 0 -1.7425367252e-10 0 0 -1.7425367252e-10 
0 0 -1.7425367252e-10 0 0 -1.7425367252e-10 0 0 -1.7425367252e-10 
0 0 -1.7425367252e-10 0 0 -1.7425367252e-10 0 0 -1.7425367252e-10 
0 0 -1.7425367252e-10 0 0 -1.7425367252e-10 0 0 -1.7425367252e-10 
0 0 -1.7425367252e-10 0 0 -1.7425367252e-10 0 0 -1.7425367252e-10 
0 0 -1.7425367252e-10 0 0 -1.7425367252e-10 0 0 -1.7425367252e-10 
0 0 -1.7425367252e-10 0 0 -1.7425367252e-10 0 0 -1.7425367252e-10 
0 0 -1.7425367252e-10 0 0 -1.7425367252e-10 0 0 -1.7425367252e-10 
0 0 -1.7425367252e-10 0 0 -1.7425367252e-10 0 0 -1.7425367252e-10 
0 0 -1.7425367252e-10 0 0 -1.7425367252e-10 0 0 -1.7425367252e-10 
0 0 -1.7425367252e-10 0 0 -1.7425367252e-10 0 0 -1.7425367252e-10 
0 0 -1.7425367252e-10 0 0 -1.7425367252e-10 0 0 -1.7425367252e-10 
0 0 -1.7425367252e-10 0 0 -1.7425367252e-10 0 0 -1.7425367252e-10 
0 0 -1.7425367252e-10 0 0 -1.7425367252e-10 0 0 -1.7425367252e-10 
0 0 -1.7425367252e-10 0 0 -1.7425367252e-10 0 0 -1.7425367252e-10 
0 0 -1.7425367252e-10 0 0 -1.7425367252e-10 0 0 -1.7425367252e-10 
0 0 -1.7425367252e-10 0 0 -1.7425367252e-10 0 0 -1.7425367252e-10 
0 0 -1.7425367252e-10 0 0 -1.7425367252e-10 0 0 -1.7425367252e-10 
0 0 -1.7425367252e-10 0 0 -1.7425367252e-10 0 0 -1.7425367252e-10 
0 0 -1.7425367252e-10 0 0 -1.7425367252e-10 0 0 -1.7425367252e-10 
0 0 -1.7425367252e-10 0 0 -1.7425367252e-10 0 0 -1.7425367252e-10 
0 0 -1.7425367252e-10 0 0 -1.7425367252e-10 0 0 -1.7425367252e-10 
0 0 -1.7425367252e-10 0 0 -1.7425367252e-10 0 0 -1.7425367252e-10 
0 0 -1.7425367252e-10 0 0 -1.7425367252e-10 0 0 -1.7425367252e-10 
0 0 -1.7425367252e-10 0 0 -1.7425367252e-10 0 0 -1.7425367252e-10 
0 0 -1.7425367252e-10 0 0 -1.7425367252e-10 0 0 -1.7425367252e-10 
0 0 -1.7425367252e-10 0 0 -1.7425367252e-10 0 0 -1.7425367252e-10 
0 0 -1.7425367252e-10 0 0 -1.7425367252e-10 0 0 -1.7425367252e-10 
0 0 -1.7425367252e-10 0 0 -1.7425367252e-10 0 0 -1.7425367252e-10 
0 0 -1.7425367252e-10 0 0 -1.7425367252e-10 0 0 -1.7425367252e-10 
0 0 -1.7425367252e-10 0 0 -1.7425367252e-10 0 0 -1.7425367252e-10 
0 0 -1.7425367252e-10 0 0 -1.7425367252e-10 0 0 -1.7425367252e-10 
0 0 -1.7425367252e-10 0 0 -1.7425367252e-10 0 0 -1.7425367252e-10 
0 0 -1.7425367252e-10 0 0 -1.7425367252e-10 0 0 -1.7425367252e-10 
0 0 -1.7425367252e-10 0 0 -1.7425367252e-10 0 0 -1.7425367252e-10 
0 0 -1.7425367252e-10 0 0 -1.7425367252e-10 0 0 -1.7425367252e-10 
0 0 -1.7425367252e-10 0 0 -1.7425367252e-10 0 0 -1.7425367252e-10 
0 0 -1.7425367252e-10 0 0 -1.7425367252e-10 0 0 -1.7425367252e-10 
0 0 -1.7425367252e-10 0 0 -1.7425367252e-10 0 0 -1.7425367252e-10 
0 0 -1.7425367252e-10 0 0 -1.7425367252e-10 0 0 -1.7425367252e-10 
0 0 -1.7425367252e-10 0 0 -1.7425367252e-10 0 0 -1.7425367252e-10 
0 0 -1.7425367252e-10 0 0 -1.7425367252e-10 0 0 -1.7425367252e-10 
0 0 -1.7425367252e-10 0 0 -1.7425367252e-10 0 0 -1.7425367252e-10 
0 0 -1.7425367252e-10 0 0 -1.7425367252e-10 0 0 -1.7425367252e-10 
0 0 -1.7425367252e-10 0 0 -1.7425367252e-10 0 0 -1.7425367252e-10 
0 0 -1.7425367252e-10 0 0 -1.7425367252e-10 0 0 -1.7425367252e-10 
0 0 -1.7425367252e-10 0 0 -1.7425367252e-10 0 0 -1.7425367252e-10 
0 0 -1.7425367252e-10 0 0 -1.7425367252e-10 0 0 -1.7425367252e-10 
0 0 -1.7425367252e-10 0 0 -1.7425367252e-10 0 0 -1.7425367252e-10 
0 0 -1.7425367252e-10 0 0 -1.7425367252e-10 0 0 -1.7425367252e-10 
0 0 -1.7425367252e-10 0 0 -1.7425367252e-10 0 0 -1.7425367252e-10 
0 0 -1.7425367252e-10 0 0 -1.7425367252e-10 0 0 -1.7425367252e-10 
0 0 -1.7425367252e-10 0 0 -1.7425367252e-10 0 0 -1.7425367252e-10 
0 0 -1.7425367252e-10 0 0 -1.7425367252e-10 0 0 -1.7425367252e-10 
0 0 -1.7425367252e-10 0 0 -1.7425367252e-10 0 0 -1.7425367252e-10 
0 0 -1.7425367252e-10 0 0 -1.7425367252e-10 0 0 -1.7425367252e-10 
0 0 -1.7425367252e-10 0 0 -1.7425367252e-10 0 0 -1.7425367252e-10 
0 0 -1.7425367252e-10 0 0 -1.7425367252e-10 0 0 -1.7425367252e-10 
0 0 -1.7425367252e-10 0 0 -1.7425367252e-10 0 0 -1.7425367252e-10 
0 0 -1.7425367252e-10 0 0 -1.7425367252e-10 0 0 -1.7425367252e-10 
0 0 -1.7425367252e-10 0 0 -1.7425367252e-10 0 0 -1.7425367252e-10 
0 0 -1.7425367252e-10 0 0 -1.7425367252e-10 0 0 -1.7425367252e-10 
0 0 -1.7425367252e-10 0 0 -1.7425367252e-10 0 0 -1.7425367252e-10 
0 0 -1.7425367252e-10 0 0 -1.7425367252e-10 0 0 -1.7425367252e-10 
0 0 -1.7425367252e-10 0 0 -1.7425367252e-10 0 0 -1.7425367252e-10 
0 0 -1.7425367252e-10 0 0 -1.7425367252e-10 0 0 -1.7425367252e-10 
0 0 -1.7425367252e-10 0 0 -1.7425367252e-10 0 0 -1.7425367252e-10 
0 0 -1.7425367252e-10 0 0 -1.7425367252e-10 0 0 -1.7425367252e-10 
0 0 -1.7425367252e-10 0 0 -1.7425367252e-10 0 0 -1.7425367252e-10 
0 0 -1.7425367252e-10 0 0 -1.7425367252e-10 0 0 -1.7425367252e-10 
0 0 -1.7425367252e-10 0 0 -1.7425367252e-10 0 0 -1.7425367252e-10 
0 0 -1.7425367252e-10 0 0 -1.7425367252e-10 0 0 -1.7425367252e-10 
0 0 -1.7425367252e-10 0 0 -1.7425367252e-10 0 0 -1.7425367252e-10 
0 0 -1.7425367252e-10 0 0 -1.7425367252e-10 0 0 -1.7425367252e-10 
0 0 -1.7425367252e-10 0 0 -1.7425367252e-10 0 0 -1.7425367252e-10 
0 0 -1.7425367252e-10 0 0 -1.7425367252e-10 0 0 -1.7425367252e-10 
0 0 -1.7425367252e-10 0 0 -1.7425367252e-10 0 0 -1.7425367252e-10 
0 0 -1.7425367252e-10 0 0 -1.7425367252e-10 0 0 -1.7425367252e-10 
0 0 -1.7425367252e-10 0 0 -1.7425367252e-10 0 0 -1.7425367252e-10 
0 0 -1.7425367252e-10 0 0 -1.7425367252e-10 0 0 -1.7425367252e-10 
0 0 -1.7425367252e-10 0 0 -1.7425367252e-10 0 0 -1.7425367252e-10 
0 0 -1.7425367252e-10 0 0 -1.7425367252e-10 0 0 -1.7425367252e-10 
0 0 -1.7425367252e-10 0 0 -1.7425367252e-10 0 0 -1.7425367252e-10 
0 0 -1.7425367252e-10 0 0 -1.7425367252e-10 0 0 -1.7425367252e-10 
0 0 -1.7425367252e-10 0 0 -1.7425367252e-10 0 0 -1.7425367252e-10 
0 0 -1.7425367252e-10 0 0 -1.7425367252e-10 0 0 -1.7425367252e-10 
0 0 -1.7425367252e-10 0 0 -1.7425367252e-10 0 0 -1.7425367252e-10 
0 0 -1.7425367252e-10 0 0 -1.7425367252e-10 0 0 -5.3297119368e-07 
0 0 -1.7425367252e-10 0 0 -1.7425367252e-10 0 0 -1.7425367252e-10 
0 0 -1.7425367252e-10 0 0 -1.7425367252e-10 0 0 -1.7425367252e-10 
0 0 -1.7425367252e-10 0 0 -1.7425367252e-10 0 0 -1.7425367252e-10 
0 0 -1.7425367252e-10 0 0 -1.7425367252e-10 0 0 -1.7425367252e-10 
0 0 -1.7425367252e-10 0 0 -1.7425367252e-10 0 0 -1.7425367252e-10 
0 0 -1.7425367252e-10 0 0 -1.7425367252e-10 0 0 -1.7425367252e-10 
0 0 -1.7425367252e-10 0 0 -1.7425367252e-10 0 0 -1.7425367252e-10 
0 0 -1.7425367252e-10 0 0 -1.7425367252e-10 0 0 -1.7425367252e-10 
0 0 -1.7425367252e-10 0 0 -1.7425367252e-10 0 0 -1.7425367252e-10 
0 0 -1.7425367252e-10 0 0 -1.7425367252e-10 0 0 -1.7425367252e-10 
0 0 -1.7425367252e-10 0 0 -1.7425367252e-10 0 0 -1.7425367252e-10 
0 0 -1.7425367252e-10 0 0 -1.7425367252e-10 0 0 -1.7425367252e-10 
0 0 -1.7425367252e-10 0 0 -1.7425367252e-10 0 0 -1.7425367252e-10 
0 0 -1.7425367252e-10 0 0 -1.7425367252e-10 0 0 -1.7425367252e-10 
0 0 -1.7425367252e-10 0 0 -1.7425367252e-10 0 0 -1.7425367252e-10 
0 0 -1.7425367252e-10 0 0 -1.7425367252e-10 0 0 -1.7425367252e-10 
0 0 -1.7425367252e-10 0 0 -1.7425367252e-10 0 0 -1.7425367252e-10 
0 0 -8.9019973083e-09 0 0 -1.7425367252e-10 0 0 -1.7425367252e-10 
0 0 -8.9019973083e-09 0 0 -1.7425367252e-10 0 0 -1.7425367252e-10 
0 0 -1.7425367252e-10 0 0 -1.7425367252e-10 0 0 -8.9019973083e-09 
0 0 -1.7425367252e-10 0 0 -1.7425367252e-10 0 0 -8.9019973083e-09 
0 0 -1.7425367252e-10 0 0 -1.7425367252e-10 0 0 -1.7425367252e-10 
0 0 -1.7425367252e-10 0 0 -8.9019973083e-09 0 0 -8.9019973083e-09 
0 0 -8.9019973083e-09 0 0 -8.9019973083e-09 0 0 -8.9019973083e-09 
0 0 -8.9019973083e-09 0 0 -8.9019973083e-09 0 0 -8.9019973083e-09 
0 0 -1.7425367252e-10 0 0 -1.7425367252e-10 0 0 -8.9019973083e-09 
0 0 -6.8918688838e-08 0 0 -1.7425367252e-10 0 0 -1.7425367252e-10 
0 0 -1.7425367252e-10 0 0 -1.7425367252e-10 0 0 -1.7425367252e-10 
0 0 -1.7425367252e-10 0 0 -1.7425367252e-10 0 0 -1.7425367252e-10 
0 0 -1.7425367252e-10 0 0 -1.7425367252e-10 0 0 -1.7425367252e-10 
0 0 -1.7425367252e-10 0 0 -1.7425367252e-10 0 0 -1.7425367252e-10 
0 0 -1.7425367252e-10 0 0 -1.7425367252e-10 0 0 -1.7425367252e-10 
0 0 -1.7425367252e-10 0 0 -1.7425367252e-10 0 0 -1.7425367252e-10 
0 0 -1.7425367252e-10 0 0 -1.7425367252e-10 0 0 -1.7425367252e-10 
0 0 -1.7425367252e-10 0 0 -1.7425367252e-10 0 0 -1.7425367252e-10 
0 0 -1.7425367252e-10 0 0 -1.7425367252e-10 0 0 -1.7425367252e-10 
0 0 -1.7425367252e-10 0 0 -1.7425367252e-10 0 0 -1.7425367252e-10 
0 0 -1.7425367252e-10 0 0 -1.7425367252e-10 0 0 -1.7425367252e-10 
0 0 -1.7425367252e-10 0 0 -1.7425367252e-10 0 0 -1.7425367252e-10 
0 0 -1.7425367252e-10 0 0 -1.7425367252e-10 0 0 -1.7425367252e-10 
0 0 -1.7425367252e-10 0 0 -1.7425367252e-10 0 0 -1.7425367252e-10 
0 0 -1.7425367252e-10 0 0 -1.7425367252e-10 0 0 -1.7425367252e-10 
0 0 -1.7425367252e-10 0 0 -1.7425367252e-10 0 0 -1.7425367252e-10 
0 0 -1.7425367252e-10 0 0 -1.7425367252e-10 0 0 -1.7425367252e-10 
0 0 -1.7425367252e-10 0 0 -1.7425367252e-10 0 0 -1.7425367252e-10 
0 0 -1.7425367252e-10 0 0 -8.9019973083e-09 0 0 -1.7425367252e-10 
0 0 -1.7425367252e-10 0 0 -1.7425367252e-10 0 0 -1.7425367252e-10 
0 0 -1.7425367252e-10 0 0 -1.7425367252e-10 0 0 -1.7425367252e-10 
0 0 -1.7425367252e-10 0 0 -1.7425367252e-10 0 0 -1.7425367252e-10 
0 0 -1.7425367252e-10 0 0 -1.7425367252e-10 0 0 -1.7425367252e-10 
0 0 -1.7425367252e-10 0 0 -1.7425367252e-10 0 0 -1.7425367252e-10 
0 0 -1.7425367252e-10 0 0 -1.7425367252e-10 0 0 -1.7425367252e-10 
0 0 -1.7425367252e-10 0 0 -1.7425367252e-10 0 0 -1.7425367252e-10 
0 0 -1.7425367252e-10 0 0 -1.7425367252e-10 0 0 -1.7425367252e-10 
0 0 -1.7425367252e-10 0 0 -1.7425367252e-10 0 0 -1.7425367252e-10 

radius 1 648 double
2e-05 2e-05 2e-05 2e-05 2e-05 2e-05 2e-05 2e-05 2e-05 
2e-05 2e-05 7.5e-05 2e-05 2e-05 2e-05 2e-05 2e-05 2e-05 
2e-05 2e-05 2e-05 2e-05 2e-05 2e-05 2e-05 2e-05 2e-05 
2e-05 2e-05 2e-05 2e-05 2e-05 2e-05 2e-05 2e-05 2e-05 
2e-05 2e-05 2e-05 2e-05 2e-05 2e-05 2e-05 2e-05 2e-05 
2e-05 2e-05 2e-05 2e-05 2e-05 2e-05 2e-05 2e-05 2e-05 
2e-05 2e-05 2e-05 2e-05 2e-05 2e-05 2e-05 2e-05 2e-05 
2e-05 2e-05 2e-05 2e-05 2e-05 2e-05 2e-05 2e-05 2e-05 
2e-05 2e-05 2e-05 2e-05 2e-05 2e-05 2e-05 2e-05 2e-05 
2e-05 2e-05 2e-05 2e-05 2e-05 2e-05 2e-05 2e-05 2e-05 
2e-05 2e-05 2e-05 2e-05 2e-05 2e-05 2e-05 2e-05 2e-05 
2e-05 2e-05 2e-05 2e-05 2e-05 2e-05 2e-05 2e-05 2e-05 
2e-05 2e-05 2e-05 2e-05 2e-05 2e-05 2e-05 2e-05 2e-05 
2e-05 2e-05 2e-05 2e-05 2e-05 2e-05 2e-05 2e-05 2e-05 
2e-05 2e-05 2e-05 2e-05 2e-05 2e-05 2e-05 2e-05 2e-05 
2e-05 2e-05 2e-05 2e-05 2e-05 2e-05 2e-05 2e-05 2e-05 
2e-05 2e-05 2e-05 2e-05 2e-05 2e-05 2e-05 2e-05 2e-05 
2e-05 2e-05 2e-05 2e-05 2e-05 2e-05 2e-05 2e-05 2e-05 
2e-05 2e-05 2e-05 2e-05 2e-05 2e-05 2e-05 2e-05 2e-05 
7.5e-05 2e-05 2e-05 2e-05 2e-05 2e-05 2e-05 2e-05 2e-05 
2e-05 2e-05 2e-05 2e-05 2e-05 2e-05 2e-05 2e-05 2e-05 
2e-05 2e-05 2e-05 2e-05 2e-05 2e-05 2e-05 2e-05 2e-05 
7.5e-05 2e-05 2e-05 2e-05 2e-05 2e-05 2e-05 2e-05 2e-05 
2e-05 2e-05 2e-05 2e-05 2e-05 2e-05 2e-05 2e-05 2e-05 
2e-05 2e-05 2e-05 2e-05 2e-05 2e-05 2e-05 2e-05 2e-05 
2e-05 2e-05 2e-05 2e-05 2e-05 2e-05 2e-05 2e-05 2e-05 
2e-05 2e-05 2e-05 2e-05 2e-05 2e-05 2e-05 2e-05 2e-05 
2e-05 2e-05 2e-05 2e-05 2e-05 2e-05 2e-05 2e-05 2e-05 
2e-05 2e-05 2e-05 2e-05 2e-05 2e-05 2e-05 2e-05 2e-05 
2e-05 2e-05 2e-05 2e-05 2e-05 2e-05 2e-05 2e-05 2e-05 
2e-05 2e-05 2e-05 2e-05 2e-05 2e-05 2e-05 2e-05 2e-05 
2e-05 2e-05 2e-05 2e-05 2e-05 2e-05 2e-05 2e-05 2e-05 
2e-05 2e-05 2e-05 2e-05 2e-05 2e-05 2e-05 2e-05 2e-05 
2e-05 2e-05 2e-05 2e-05 2e-05 2e-05 2e-05 2e-05 2e-05 
2e-05 2e-05 2e-05 2e-05 2e-05 2e-05 2e-05 2e-05 2e-05 
2e-05 2e-05 2e-05 2e-05 2e-05 2e-05 2e-05 2e-05 2e-05 
2e-05 2e-05 2e-05 2e-05 2e-05 2e-05 2e-05 2e-05 2e-05 
2e-05 2e-05 2e-05 2e-05 2e-05 2e-05 2e-05 2e-05 2e-05 
2e-05 2e-05 2e-05 2e-05 2e-05 2e-05 2e-05 2e-05 2e-05 
2e-05 2e-05 2e-05 2e-05 2e-05 2e-05 2e-05 2e-05 2e-05 
2e-05 2e-05 2e-05 2e-05 2e-05 2e-05 2e-05 2e-05 2e-05 
2e-05 2e-05 2e-05 2e-05 2e-05 2e-05 2e-05 2e-05 2e-05 
2e-05 2e-05 2e-05 2e-05 2e-05 2e-05 2e-05 2e-05 2e-05 
2e-05 2e-05 2e-05 2e-05 2e-05 2e-05 2e-05 2e-05 2e-05 
2e-05 2e-05 2e-05 2e-05 2e-05 2e-05 2e-05 2e-05 2e-05 
2e-05 2e-05 2e-05 2e-05 2e-05 2e-05 2e-05 2e-05 2e-05 
2e-05 2e-05 2e-05 2e-05 2e-05 2e-05 2e-05 2e-05 2e-05 
2e-05 2e-05 2e-05 2e-05 2e-05 2e-05 2e-05 2e-05 2e-05 
2e-05 2e-05 2e-05 2e-05 2e-05 2e-05 2e-05 2e-05 2e-05 
2e-05 2e-05 2e-05 2e-05 2e-05 2e-05 2e-05 2e-05 2e-05 
2e-05 2e-05 2e-05 2e-05 2e-05 2e-05 2e-05 2e-05 2e-05 
2e-05 2e-05 2e-05 2e-05 2e-05 2e-05 2e-05 2e-05 2e-05 
2e-05 2e-05 2e-05 2e-05 2e-05 2e-05 2e-05 2e-05 2e-05 
2e-05 2e-05 2e-05 2e-05 2e-05 0.0003 2e-05 2e-05 2e-05 
2e-05 2e-05 2e-05 2e-05 2e-05 2e-05 2e-05 2e-05 2e-05 
2e-05 2e-05 2e-05 2e-05 2e-05 2e-05 2e-05 2e-05 2e-05 
2e-05 2e-05 2e-05 2e-05 2e-05 2e-05 2e-05 2e-05 2e-05 
2e-05 2e-05 2e-05 2e-05 2e-05 2e-05 2e-05 2e-05 2e-05 
2e-05 2e-05 2e-05 2e-05 2e-05 2e-05 2e-05 2e-05 2e-05 
2e-05 2e-05 2e-05 7.5e-05 2e-05 2e-05 7.5e-05 2e-05 2e-05 
2e-05 2e-05 7.5e-05 2e-05 2e-05 7.5e-05 2e-05 2e-05 2e-05 
2e-05 7.5e-05 7.5e-05 7.5e-05 7.5e-05 7.5e-05 7.5e-05 7.5e-05 7.5e-05 
2e-05 2e-05 7.5e-05 0.00015 2e-05 2e-05 2e-05 2e-05 2e-05 
2e-05 2e-05 2e-05 2e-05 2e-05 2e-05 2e-05 2e-05 2e-05 
2e-05 2e-05 2e-05 2e-05 2e-05 2e-05 2e-05 2e-05 2e-05 
2e-05 2e-05 2e-05 2e-05 2e-05 2e-05 2e-05 2e-05 2e-05 
2e-05 2e-05 2e-05 2e-05 2e-05 2e-05 2e-05 2e-05 2e-05 
2e-05 2e-05 2e-05 2e-05 2e-05 2e-05 2e-05 2e-05 2e-05 
2e-05 2e-05 2e-05 2e-05 2e-05 2e-05 2e-05 7.5e-05 2e-05 
2e-05 2e-05 2e-05 2e-05 2e-05 2e-05 2e-05 2e-05 2e-05 
2e-05 2e-05 2e-05 2e-05 2e-05 2e-05 2e-05 2e-05 2e-05 
2e-05 2e-05 2e-05 2e-05 2e-05 2e-05 2e-05 2e-05 2e-05 

omega 3 648 double
0 0 0 0 0 0 0 0 0 
0 0 0 0 0 0 0 0 0 
0 0 0 0 0 0 0 0 0 
0 0 0 0 0 0 0 0 0 
0 0 0 0 0 0 0 0 0 
0 0 0 0 0 0 0 0 0 
0 0 0 0 0 0 0 0 0 
0 0 0 0 0 0 0 0 0 
0 0 0 0 0 0 0 0 0 
0 0 0 0 0 0 0 0 0 
0 0 0 0 0 0 0 0 0 
0 0 0 0 0 0 0 0 0 
0 0 0 0 0 0 0 0 0 
0 0 0 0 0 0 0 0 0 
0 0 0 0 0 0 0 0 0 
0 0 0 0 0 0 0 0 0 
0 0 0 0 0 0 0 0 0 
0 0 0 0 0 0 0 0 0 
0 0 0 0 0 0 0 0 0 
0 0 0 0 0 0 0 0 0 
0 0 0 0 0 0 0 0 0 
0 0 0 0 0 0 0 0 0 
0 0 0 0 0 0 0 0 0 
0 0 0 0 0 0 0 0 0 
0 0 0 0 0 0 0 0 0 
0 0 0 0 0 0 0 0 0 
0 0 0 0 0 0 0 0 0 
0 0 0 0 0 0 0 0 0 
0 0 0 0 0 0 0 0 0 
0 0 0 0 0 0 0 0 0 
0 0 0 0 0 0 0 0 0 
0 0 0 0 0 0 0 0 0 
0 0 0 0 0 0 0 0 0 
0 0 0 0 0 0 0 0 0 
0 0 0 0 0 0 0 0 0 
0 0 0 0 0 0 0 0 0 
0 0 0 0 0 0 0 0 0 
0 0 0 0 0 0 0 0 0 
0 0 0 0 0 0 0 0 0 
0 0 0 0 0 0 0 0 0 
0 0 0 0 0 0 0 0 0 
0 0 0 0 0 0 0 0 0 
0 0 0 0 0 0 0 0 0 
0 0 0 0 0 0 0 0 0 
0 0 0 0 0 0 0 0 0 
0 0 0 0 0 0 0 0 0 
0 0 0 0 0 0 0 0 0 
0 0 0 0 0 0 0 0 0 
0 0 0 0 0 0 0 0 0 
0 0 0 0 0 0 0 0 0 
0 0 0 0 0 0 0 0 0 
0 0 0 0 0 0 0 0 0 
0 0 0 0 0 0 0 0 0 
0 0 0 0 0 0 0 0 0 
0 0 0 0 0 0 0 0 0 
0 0 0 0 0 0 0 0 0 
0 0 0 0 0 0 0 0 0 
0 0 0 0 0 0 0 0 0 
0 0 0 0 0 0 0 0 0 
0 0 0 0 0 0 0 0 0 
0 0 0 0 0 0 0 0 0 
0 0 0 0 0 0 0 0 0 
0 0 0 0 0 0 0 0 0 
0 0 0 0 0 0 0 0 0 
0 0 0 0 0 0 0 0 0 
0 0 0 0 0 0 0 0 0 
0 0 0 0 0 0 0 0 0 
0 0 0 0 0 0 0 0 0 
0 0 0 0 0 0 0 0 0 
0 0 0 0 0 0 0 0 0 
0 0 0 0 0 0 0 0 0 
0 0 0 0 0 0 0 0 0 
0 0 0 0 0 0 0 0 0 
0 0 0 0 0 0 0 0 0 
0 0 0 0 0 0 0 0 0 
0 0 0 0 0 0 0 0 0 
0 0 0 0 0 0 0 0 0 
0 0 0 0 0 0 0 0 0 
0 0 0 0 0 0 0 0 0 
0 0 0 0 0 0 0 0 0 
0 0 0 0 0 0 0 0 0 
0 0 0 0 0 0 0 0 0 
0 0 0 0 0 0 0 0 0 
0 0 0 0 0 0 0 0 0 
0 0 0 0 0 0 0 0 0 
0 0 0 0 0 0 0 0 0 
0 0 0 0 0 0 0 0 0 
0 0 0 0 0 0 0 0 0 
0 0 0 0 0 0 0 0 0 
0 0 0 0 0 0 0 0 0 
0 0 0 0 0 0 0 0 0 
0 0 0 0 0 0 0 0 0 
0 0 0 0 0 0 0 0 0 
0 0 0 0 0 0 0 0 0 
0 0 0 0 0 0 0 0 0 
0 0 0 0 0 0 0 0 0 
0 0 0 0 0 0 0 0 0 
0 0 0 0 0 0 0 0 0 
0 0 0 0 0 0 0 0 0 
0 0 0 0 0 0 0 0 0 
0 0 0 0 0 0 0 0 0 
0 0 0 0 0 0 0 0 0 
0 0 0 0 0 0 0 0 0 
0 0 0 0 0 0 0 0 0 
0 0 0 0 0 0 0 0 0 
0 0 0 0 0 0 0 0 0 
0 0 0 0 0 0 0 0 0 
0 0 0 0 0 0 0 0 0 
0 0 0 0 0 0 0 0 0 
0 0 0 0 0 0 0 0 0 
0 0 0 0 0 0 0 0 0 
0 0 0 0 0 0 0 0 0 
0 0 0 0 0 0 0 0 0 
0 0 0 0 0 0 0 0 0 
0 0 0 0 0 0 0 0 0 
0 0 0 0 0 0 0 0 0 
0 0 0 0 0 0 0 0 0 
0 0 0 0 0 0 0 0 0 
0 0 0 0 0 0 0 0 0 
0 0 0 0 0 0 0 0 0 
0 0 0 0 0 0 0 0 0 
0 0 0 0 0 0 0 0 0 
0 0 0 0 0 0 0 0 0 
0 0 0 0 0 0 0 0 0 
0 0 0 0 0 0 0 0 0 
0 0 0 0 0 0 0 0 0 
0 0 0 0 0 0 0 0 0 
0 0 0 0 0 0 0 0 0 
0 0 0 0 0 0 0 0 0 
0 0 0 0 0 0 0 0 0 
0 0 0 0 0 0 0 0 0 
0 0 0 0 0 0 0 0 0 
0 0 0 0 0 0 0 0 0 
0 0 0 0 0 0 0 0 0 
0 0 0 0 0 0 0 0 0 
0 0 0 0 0 0 0 0 0 
0 0 0 0 0 0 0 0 0 
0 0 0 0 0 0 0 0 0 
0 0 0 0 0 0 0 0 0 
0 0 0 0 0 0 0 0 0 
0 0 0 0 0 0 0 0 0 
0 0 0 0 0 0 0 0 0 
0 0 0 0 0 0 0 0 0 
0 0 0 0 0 0 0 0 0 
0 0 0 0 0 0 0 0 0 
0 0 0 0 0 0 0 0 0 
0 0 0 0 0 0 0 0 0 
0 0 0 0 0 0 0 0 0 
0 0 0 0 0 0 0 0 0 
0 0 0 0 0 0 0 0 0 
0 0 0 0 0 0 0 0 0 
0 0 0 0 0 0 0 0 0 
0 0 0 0 0 0 0 0 0 
0 0 0 0 0 0 0 0 0 
0 0 0 0 0 0 0 0 0 
0 0 0 0 0 0 0 0 0 
0 0 0 0 0 0 0 0 0 
0 0 0 0 0 0 0 0 0 
0 0 0 0 0 0 0 0 0 
0 0 0 0 0 0 0 0 0 
0 0 0 0 0 0 0 0 0 
0 0 0 0 0 0 0 0 0 
0 0 0 0 0 0 0 0 0 
0 0 0 0 0 0 0 0 0 
0 0 0 0 0 0 0 0 0 
0 0 0 0 0 0 0 0 0 
0 0 0 0 0 0 0 0 0 
0 0 0 0 0 0 0 0 0 
0 0 0 0 0 0 0 0 0 
0 0 0 0 0 0 0 0 0 
0 0 0 0 0 0 0 0 0 
0 0 0 0 0 0 0 0 0 
0 0 0 0 0 0 0 0 0 
0 0 0 0 0 0 0 0 0 
0 0 0 0 0 0 0 0 0 
0 0 0 0 0 0 0 0 0 
0 0 0 0 0 0 0 0 0 
0 0 0 0 0 0 0 0 0 
0 0 0 0 0 0 0 0 0 
0 0 0 0 0 0 0 0 0 
0 0 0 0 0 0 0 0 0 
0 0 0 0 0 0 0 0 0 
0 0 0 0 0 0 0 0 0 
0 0 0 0 0 0 0 0 0 
0 0 0 0 0 0 0 0 0 
0 0 0 0 0 0 0 0 0 
0 0 0 0 0 0 0 0 0 
0 0 0 0 0 0 0 0 0 
0 0 0 0 0 0 0 0 0 
0 0 0 0 0 0 0 0 0 
0 0 0 0 0 0 0 0 0 
0 0 0 0 0 0 0 0 0 
0 0 0 0 0 0 0 0 0 
0 0 0 0 0 0 0 0 0 
0 0 0 0 0 0 0 0 0 
0 0 0 0 0 0 0 0 0 
0 0 0 0 0 0 0 0 0 
0 0 0 0 0 0 0 0 0 
0 0 0 0 0 0 0 0 0 
0 0 0 0 0 0 0 0 0 
0 0 0 0 0 0 0 0 0 
0 0 0 0 0 0 0 0 0 
0 0 0 0 0 0 0 0 0 
0 0 0 0 0 0 0 0 0 
0 0 0 0 0 0 0 0 0 
0 0 0 0 0 0 0 0 0 
0 0 0 0 0 0 0 0 0 
0 0 0 0 0 0 0 0 0 
0 0 0 0 0 0 0 0 0 
0 0 0 0 0 0 0 0 0 
0 0 0 0 0 0 0 0 0 
0 0 0 0 0 0 0 0 0 
0 0 0 0 0 0 0 0 0 
0 0 0 0 0 0 0 0 0 
0 0 0 0 0 0 0 0 0 
0 0 0 0 0 0 0 0 0 

fx_mag_viz 1 648 double
0 0 0 0 0 0 0 0 0 
0 0 0 0 0 0 0 0 0 
0 0 0 0 0 0 0 0 0 
0 0 0 0 0 0 0 0 0 
0 0 0 0 0 0 0 0 0 
0 0 0 0 0 0 0 0 0 
0 0 0 0 0 0 0 0 0 
0 0 0 0 0 0 0 0 0 
0 0 0 0 0 0 0 0 0 
0 0 0 0 0 0 0 0 0 
0 0 0 0 0 0 0 0 0 
0 0 0 0 0 0 0 0 0 
0 0 0 0 0 0 0 0 0 
0 0 0 0 0 0 0 0 0 
0 0 0 0 0 0 0 0 0 
0 0 0 0 0 0 0 0 0 
0 0 0 0 0 0 0 0 0 
0 0 0 0 0 0 0 0 0 
0 0 0 0 0 0 0 0 0 
0 0 0 0 0 0 0 0 0 
0 0 0 0 0 0 0 0 0 
0 0 0 0 0 0 0 0 0 
0 0 0 0 0 0 0 0 0 
0 0 0 0 0 0 0 0 0 
0 0 0 0 0 0 0 0 0 
0 0 0 0 0 0 0 0 0 
0 0 0 0 0 0 0 0 0 
0 0 0 0 0 0 0 0 0 
0 0 0 0 0 0 0 0 0 
0 0 0 0 0 0 0 0 0 
0 0 0 0 0 0 0 0 0 
0 0 0 0 0 0 0 0 0 
0 0 0 0 0 0 0 0 0 
0 0 0 0 0 0 0 0 0 
0 0 0 0 0 0 0 0 0 
0 0 0 0 0 0 0 0 0 
0 0 0 0 0 0 0 0 0 
0 0 0 0 0 0 0 0 0 
0 0 0 0 0 0 0 0 0 
0 0 0 0 0 0 0 0 0 
0 0 0 0 0 0 0 0 0 
0 0 0 0 0 0 0 0 0 
0 0 0 0 0 0 0 0 0 
0 0 0 0 0 0 0 0 0 
0 0 0 0 0 0 0 0 0 
0 0 0 0 0 0 0 0 0 
0 0 0 0 0 0 0 0 0 
0 0 0 0 0 0 0 0 0 
0 0 0 0 0 0 0 0 0 
0 0 0 0 0 0 0 0 0 
0 0 0 0 0 0 0 0 0 
0 0 0 0 0 0 0 0 0 
0 0 0 0 0 0 0 0 0 
0 0 0 0 0 0 0 0 0 
0 0 0 0 0 0 0 0 0 
0 0 0 0 0 0 0 0 0 
0 0 0 0 0 0 0 0 0 
0 0 0 0 0 0 0 0 0 
0 0 0 0 0 0 0 0 0 
0 0 0 0 0 0 0 0 0 
0 0 0 0 0 0 0 0 0 
0 0 0 0 0 0 0 0 0 
0 0 0 0 0 0 0 0 0 
0 0 0 0 0 0 0 0 0 
0 0 0 0 0 0 0 0 0 
0 0 0 0 0 0 0 0 0 
0 0 0 0 0 0 0 0 0 
0 0 0 0 0 0 0 0 0 
0 0 0 0 0 0 0 0 0 
0 0 0 0 0 0 0 0 0 
0 0 0 0 0 0 0 0 0 
0 0 0 0 0 0 0 0 0 

fy_mag_viz 1 648 double
0 0 0 0 0 0 0 0 0 
0 0 0 0 0 0 0 0 0 
0 0 0 0 0 0 0 0 0 
0 0 0 0 0 0 0 0 0 
0 0 0 0 0 0 0 0 0 
0 0 0 0 0 0 0 0 0 
0 0 0 0 0 0 0 0 0 
0 0 0 0 0 0 0 0 0 
0 0 0 0 0 0 0 0 0 
0 0 0 0 0 0 0 0 0 
0 0 0 0 0 0 0 0 0 
0 0 0 0 0 0 0 0 0 
0 0 0 0 0 0 0 0 0 
0 0 0 0 0 0 0 0 0 
0 0 0 0 0 0 0 0 0 
0 0 0 0 0 0 0 0 0 
0 0 0 0 0 0 0 0 0 
0 0 0 0 0 0 0 0 0 
0 0 0 0 0 0 0 0 0 
0 0 0 0 0 0 0 0 0 
0 0 0 0 0 0 0 0 0 
0 0 0 0 0 0 0 0 0 
0 0 0 0 0 0 0 0 0 
0 0 0 0 0 0 0 0 0 
0 0 0 0 0 0 0 0 0 
0 0 0 0 0 0 0 0 0 
0 0 0 0 0 0 0 0 0 
0 0 0 0 0 0 0 0 0 
0 0 0 0 0 0 0 0 0 
0 0 0 0 0 0 0 0 0 
0 0 0 0 0 0 0 0 0 
0 0 0 0 0 0 0 0 0 
0 0 0 0 0 0 0 0 0 
0 0 0 0 0 0 0 0 0 
0 0 0 0 0 0 0 0 0 
0 0 0 0 0 0 0 0 0 
0 0 0 0 0 0 0 0 0 
0 0 0 0 0 0 0 0 0 
0 0 0 0 0 0 0 0 0 
0 0 0 0 0 0 0 0 0 
0 0 0 0 0 0 0 0 0 
0 0 0 0 0 0 0 0 0 
0 0 0 0 0 0 0 0 0 
0 0 0 0 0 0 0 0 0 
0 0 0 0 0 0 0 0 0 
0 0 0 0 0 0 0 0 0 
0 0 0 0 0 0 0 0 0 
0 0 0 0 0 0 0 0 0 
0 0 0 0 0 0 0 0 0 
0 0 0 0 0 0 0 0 0 
0 0 0 0 0 0 0 0 0 
0 0 0 0 0 0 0 0 0 
0 0 0 0 0 0 0 0 0 
0 0 0 0 0 0 0 0 0 
0 0 0 0 0 0 0 0 0 
0 0 0 0 0 0 0 0 0 
0 0 0 0 0 0 0 0 0 
0 0 0 0 0 0 0 0 0 
0 0 0 0 0 0 0 0 0 
0 0 0 0 0 0 0 0 0 
0 0 0 0 0 0 0 0 0 
0 0 0 0 0 0 0 0 0 
0 0 0 0 0 0 0 0 0 
0 0 0 0 0 0 0 0 0 
0 0 0 0 0 0 0 0 0 
0 0 0 0 0 0 0 0 0 
0 0 0 0 0 0 0 0 0 
0 0 0 0 0 0 0 0 0 
0 0 0 0 0 0 0 0 0 
0 0 0 0 0 0 0 0 0 
0 0 0 0 0 0 0 0 0 
0 0 0 0 0 0 0 0 0 

fz_mag_viz 1 648 double
0 0 0 0 0 0 0 0 0 
0 0 0 0 0 0 0 0 0 
0 0 0 0 0 0 0 0 0 
0 0 0 0 0 0 0 0 0 
0 0 0 0 0 0 0 0 0 
0 0 0 0 0 0 0 0 0 
0 0 0 0 0 0 0 0 0 
0 0 0 0 0 0 0 0 0 
0 0 0 0 0 0 0 0 0 
0 0 0 0 0 0 0 0 0 
0 0 0 0 0 0 0 0 0 
0 0 0 0 0 0 0 0 0 
0 0 0 0 0 0 0 0 0 
0 0 0 0 0 0 0 0 0 
0 0 0 0 0 0 0 0 0 
0 0 0 0 0 0 0 0 0 
0 0 0 0 0 0 0 0 0 
0 0 0 0 0 0 0 0 0 
0 0 0 0 0 0 0 0 0 
0 0 0 0 0 0 0 0 0 
0 0 0 0 0 0 0 0 0 
0 0 0 0 0 0 0 0 0 
0 0 0 0 0 0 0 0 0 
0 0 0 0 0 0 0 0 0 
0 0 0 0 0 0 0 0 0 
0 0 0 0 0 0 0 0 0 
0 0 0 0 0 0 0 0 0 
0 0 0 0 0 0 0 0 0 
0 0 0 0 0 0 0 0 0 
0 0 0 0 0 0 0 0 0 
0 0 0 0 0 0 0 0 0 
0 0 0 0 0 0 0 0 0 
0 0 0 0 0 0 0 0 0 
0 0 0 0 0 0 0 0 0 
0 0 0 0 0 0 0 0 0 
0 0 0 0 0 0 0 0 0 
0 0 0 0 0 0 0 0 0 
0 0 0 0 0 0 0 0 0 
0 0 0 0 0 0 0 0 0 
0 0 0 0 0 0 0 0 0 
0 0 0 0 0 0 0 0 0 
0 0 0 0 0 0 0 0 0 
0 0 0 0 0 0 0 0 0 
0 0 0 0 0 0 0 0 0 
0 0 0 0 0 0 0 0 0 
0 0 0 0 0 0 0 0 0 
0 0 0 0 0 0 0 0 0 
0 0 0 0 0 0 0 0 0 
0 0 0 0 0 0 0 0 0 
0 0 0 0 0 0 0 0 0 
0 0 0 0 0 0 0 0 0 
0 0 0 0 0 0 0 0 0 
0 0 0 0 0 0 0 0 0 
0 0 0 0 0 0 0 0 0 
0 0 0 0 0 0 0 0 0 
0 0 0 0 0 0 0 0 0 
0 0 0 0 0 0 0 0 0 
0 0 0 0 0 0 0 0 0 
0 0 0 0 0 0 0 0 0 
0 0 0 0 0 0 0 0 0 
0 0 0 0 0 0 0 0 0 
0 0 0 0 0 0 0 0 0 
0 0 0 0 0 0 0 0 0 
0 0 0 0 0 0 0 0 0 
0 0 0 0 0 0 0 0 0 
0 0 0 0 0 0 0 0 0 
0 0 0 0 0 0 0 0 0 
0 0 0 0 0 0 0 0 0 
0 0 0 0 0 0 0 0 0 
0 0 0 0 0 0 0 0 0 
0 0 0 0 0 0 0 0 0 
0 0 0 0 0 0 0 0 0 

B_magnitude 1 648 double
0 0 0 0 0 0 0 0 0 
0 0 0 0 0 0 0 0 0 
0 0 0 0 0 0 0 0 0 
0 0 0 0 0 0 0 0 0 
0 0 0 0 0 0 0 0 0 
0 0 0 0 0 0 0 0 0 
0 0 0 0 0 0 0 0 0 
0 0 0 0 0 0 0 0 0 
0 0 0 0 0 0 0 0 0 
0 0 0 0 0 0 0 0 0 
0 0 0 0 0 0 0 0 0 
0 0 0 0 0 0 0 0 0 
0 0 0 0 0 0 0 0 0 
0 0 0 0 0 0 0 0 0 
0 0 0 0 0 0 0 0 0 
0 0 0 0 0 0 0 0 0 
0 0 0 0 0 0 0 0 0 
0 0 0 0 0 0 0 0 0 
0 0 0 0 0 0 0 0 0 
0 0 0 0 0 0 0 0 0 
0 0 0 0 0 0 0 0 0 
0 0 0 0 0 0 0 0 0 
0 0 0 0 0 0 0 0 0 
0 0 0 0 0 0 0 0 0 
0 0 0 0 0 0 0 0 0 
0 0 0 0 0 0 0 0 0 
0 0 0 0 0 0 0 0 0 
0 0 0 0 0 0 0 0 0 
0 0 0 0 0 0 0 0 0 
0 0 0 0 0 0 0 0 0 
0 0 0 0 0 0 0 0 0 
0 0 0 0 0 0 0 0 0 
0 0 0 0 0 0 0 0 0 
0 0 0 0 0 0 0 0 0 
0 0 0 0 0 0 0 0 0 
0 0 0 0 0 0 0 0 0 
0 0 0 0 0 0 0 0 0 
0 0 0 0 0 0 0 0 0 
0 0 0 0 0 0 0 0 0 
0 0 0 0 0 0 0 0 0 
0 0 0 0 0 0 0 0 0 
0 0 0 0 0 0 0 0 0 
0 0 0 0 0 0 0 0 0 
0 0 0 0 0 0 0 0 0 
0 0 0 0 0 0 0 0 0 
0 0 0 0 0 0 0 0 0 
0 0 0 0 0 0 0 0 0 
0 0 0 0 0 0 0 0 0 
0 0 0 0 0 0 0 0 0 
0 0 0 0 0 0 0 0 0 
0 0 0 0 0 0 0 0 0 
0 0 0 0 0 0 0 0 0 
0 0 0 0 0 0 0 0 0 
0 0 0 0 0 0 0 0 0 
0 0 0 0 0 0 0 0 0 
0 0 0 0 0 0 0 0 0 
0 0 0 0 0 0 0 0 0 
0 0 0 0 0 0 0 0 0 
0 0 0 0 0 0 0 0 0 
0 0 0 0 0 0 0 0 0 
0 0 0 0 0 0 0 0 0 
0 0 0 0 0 0 0 0 0 
0 0 0 0 0 0 0 0 0 
0 0 0 0 0 0 0 0 0 
0 0 0 0 0 0 0 0 0 
0 0 0 0 0 0 0 0 0 
0 0 0 0 0 0 0 0 0 
0 0 0 0 0 0 0 0 0 
0 0 0 0 0 0 0 0 0 
0 0 0 0 0 0 0 0 0 
0 0 0 0 0 0 0 0 0 
0 0 0 0 0 0 0 0 0 

B_gradient_mag 1 648 double
0 0 0 0 0 0 0 0 0 
0 0 0 0 0 0 0 0 0 
0 0 0 0 0 0 0 0 0 
0 0 0 0 0 0 0 0 0 
0 0 0 0 0 0 0 0 0 
0 0 0 0 0 0 0 0 0 
0 0 0 0 0 0 0 0 0 
0 0 0 0 0 0 0 0 0 
0 0 0 0 0 0 0 0 0 
0 0 0 0 0 0 0 0 0 
0 0 0 0 0 0 0 0 0 
0 0 0 0 0 0 0 0 0 
0 0 0 0 0 0 0 0 0 
0 0 0 0 0 0 0 0 0 
0 0 0 0 0 0 0 0 0 
0 0 0 0 0 0 0 0 0 
0 0 0 0 0 0 0 0 0 
0 0 0 0 0 0 0 0 0 
0 0 0 0 0 0 0 0 0 
0 0 0 0 0 0 0 0 0 
0 0 0 0 0 0 0 0 0 
0 0 0 0 0 0 0 0 0 
0 0 0 0 0 0 0 0 0 
0 0 0 0 0 0 0 0 0 
0 0 0 0 0 0 0 0 0 
0 0 0 0 0 0 0 0 0 
0 0 0 0 0 0 0 0 0 
0 0 0 0 0 0 0 0 0 
0 0 0 0 0 0 0 0 0 
0 0 0 0 0 0 0 0 0 
0 0 0 0 0 0 0 0 0 
0 0 0 0 0 0 0 0 0 
0 0 0 0 0 0 0 0 0 
0 0 0 0 0 0 0 0 0 
0 0 0 0 0 0 0 0 0 
0 0 0 0 0 0 0 0 0 
0 0 0 0 0 0 0 0 0 
0 0 0 0 0 0 0 0 0 
0 0 0 0 0 0 0 0 0 
0 0 0 0 0 0 0 0 0 
0 0 0 0 0 0 0 0 0 
0 0 0 0 0 0 0 0 0 
0 0 0 0 0 0 0 0 0 
0 0 0 0 0 0 0 0 0 
0 0 0 0 0 0 0 0 0 
0 0 0 0 0 0 0 0 0 
0 0 0 0 0 0 0 0 0 
0 0 0 0 0 0 0 0 0 
0 0 0 0 0 0 0 0 0 
0 0 0 0 0 0 0 0 0 
0 0 0 0 0 0 0 0 0 
0 0 0 0 0 0 0 0 0 
0 0 0 0 0 0 0 0 0 
0 0 0 0 0 0 0 0 0 
0 0 0 0 0 0 0 0 0 
0 0 0 0 0 0 0 0 0 
0 0 0 0 0 0 0 0 0 
0 0 0 0 0 0 0 0 0 
0 0 0 0 0 0 0 0 0 
0 0 0 0 0 0 0 0 0 
0 0 0 0 0 0 0 0 0 
0 0 0 0 0 0 0 0 0 
0 0 0 0 0 0 0 0 0 
0 0 0 0 0 0 0 0 0 
0 0 0 0 0 0 0 0 0 
0 0 0 0 0 0 0 0 0 
0 0 0 0 0 0 0 0 0 
0 0 0 0 0 0 0 0 0 
0 0 0 0 0 0 0 0 0 
0 0 0 0 0 0 0 0 0 
0 0 0 0 0 0 0 0 0 
0 0 0 0 0 0 0 0 0 

