# vtk DataFile Version 5.1
Generated by LIGGGHTS
ASCII
DATASET POLYDATA
POINTS 648 float
-0.0428902 -0.0449088 0.00108454 0.00798734 -0.0367051 0.00118706 -0.0105296 -0.0314142 0.00107416 
0.0306875 -0.0259396 0.00151502 -0.0296942 -0.0196153 0.00144659 -0.0339565 -0.0167518 0.00150146 
0.0198229 -0.0156851 0.00154402 0.0313953 -0.00974065 0.00150862 -0.0198564 -0.00683511 0.00108493 
-0.0129003 -0.00574839 0.00115172 -0.0179231 -0.00300678 0.00117009 0.0384376 0.000848974 0.00115744 
0.00861143 0.0123591 0.00141422 0.0123926 0.0218243 0.00108375 -0.0386663 0.0253433 0.00150187 
0.0167463 0.0251763 0.00105083 -0.0267569 0.0263983 0.0013538 -0.0127911 0.0299546 0.00134127 
0.00390562 0.0317225 0.00129609 -0.041477 0.0364172 0.00156453 -0.044759 -0.0437614 0.00245096 
-0.0335565 -0.0442122 0.00272155 -0.0308094 -0.0435702 0.00257914 0.0348044 -0.042095 0.00135744 
0.0418836 -0.0421436 0.00202564 -0.00674967 -0.0416523 0.00180167 0.0414821 -0.0410789 0.00219887 
-0.0334706 -0.0396012 0.00170766 -0.0248652 -0.040212 0.00243183 -0.018434 -0.0405477 0.00188135 
0.040047 -0.0404588 0.00206181 -0.0108246 -0.0388127 0.00184314 -0.00302782 -0.0385948 0.00172852 
0.0308099 -0.0378456 0.00255482 -0.0168273 -0.0360331 0.00141881 0.000822496 -0.0363122 0.00205419 
0.00594186 -0.0351889 0.00228039 0.0333162 -0.0342631 0.00255918 0.023158 -0.0340207 0.0024529 
-0.0262624 -0.032473 0.00197749 -0.0266532 -0.0301716 0.00248874 0.0280204 -0.0311414 0.0025686 
-0.0448384 -0.0296834 0.00238423 0.00577088 -0.0287415 0.00243645 -0.0430551 -0.0267583 0.00103771 
0.032808 -0.025967 0.00229591 0.033456 -0.0256735 0.00207954 -0.0408326 -0.0234295 0.00238354 
-0.0225401 -0.0213878 0.00184974 0.00623721 -0.0211799 0.00168156 0.039775 -0.0211058 0.00256188 
0.0336491 -0.0197505 0.00209542 0.00156248 -0.0194187 0.00212398 0.0363266 -0.0194176 0.00256701 
-0.0317771 -0.0175651 0.00229249 -0.0100897 -0.0180162 0.00257567 0.0404767 -0.0183151 0.00245347 
-0.0426154 -0.0165053 0.0012156 -0.00444012 -0.0151621 0.00268717 -0.0388614 -0.0136303 0.00263651 
-0.0222502 -0.00974669 0.00250103 -0.0112192 -0.0104501 0.00260307 0.00743742 -0.00926665 0.00254725 
0.0251729 -0.00985964 0.00157528 0.0286804 -0.00919085 0.0019405 0.0350526 -0.0102353 0.00163309 
-0.00553214 -0.00871323 0.00186483 -0.00747582 -0.00609419 0.00170567 0.00937085 -0.00418454 0.00238164 
0.0131353 -0.00504642 0.00226457 0.0180565 -0.00487531 0.0022095 0.021323 -0.00444137 0.002331 
-0.00783961 -0.000387029 0.00222829 0.0290986 -0.000251763 0.001551 -0.0260142 0.00017485 0.00217503 
-0.00967086 0.00179773 0.00223709 0.0188762 0.00181355 0.00207519 0.0292006 0.00433004 0.00164063 
0.0305447 0.00486582 0.00174916 -0.0287984 0.00559412 0.00188129 -0.0170872 0.00564833 0.00232618 
0.0011249 0.00615697 0.00226546 0.021602 0.00540593 0.00122906 0.0228765 0.00606581 0.00234705 
0.0246705 0.0064451 0.00252318 0.030759 0.00580352 0.00145735 -0.0426568 0.00723228 0.00189847 
0.0283387 0.00890506 0.00170629 0.0340899 0.00882812 0.0025694 -0.0392616 0.00972366 0.00227133 
-0.0214351 0.00957734 0.00260449 -0.0101256 0.00978275 0.00219781 0.0197977 0.00963841 0.00200762 
0.0212596 0.00979192 0.00159508 0.0398091 0.011618 0.00253605 0.0399323 0.0117688 0.00226983 
-0.00279986 0.0127222 0.00216687 -0.034865 0.0142961 0.00249929 -0.0310202 0.0131063 0.00118948 
0.0143092 0.0139794 0.00220914 0.0248423 0.0143007 0.00178165 0.0287781 0.014071 0.0021685 
-0.00307286 0.0144526 0.00165493 0.0121458 0.0151918 0.00172712 0.00517921 0.0169249 0.00224784 
0.0418335 0.0161761 0.00244459 -0.0360536 0.0173104 0.00149803 0.0215224 0.0171285 0.00193461 
-0.0214239 0.0189608 0.00228805 0.00395304 0.0187088 0.0013731 0.0090081 0.0191686 0.00252911 
-0.023041 0.0197144 0.00222438 -0.0153727 0.020636 0.00162359 -0.0282566 0.021284 0.00206608 
0.03506 0.0228899 0.00159026 -0.00782209 0.0241861 0.00162858 0.0181332 0.0246356 0.00180587 
-0.00739359 0.0259593 0.00134828 -0.00563177 0.0268155 0.00187592 -0.0357156 0.0282031 0.00141861 
0.0191509 0.0299648 0.0010436 -0.0409258 0.0305044 0.0025471 -0.0313244 0.0314049 0.00175588 
-0.0200898 0.0311527 0.00240183 0.00372347 0.0304157 0.00171241 0.0038092 0.0311583 0.00215096 
0.0444958 0.0309554 0.00239313 -0.0073504 0.0318329 0.00209912 0.01325 0.0319187 0.00245158 
-0.0264781 0.032823 0.00258811 0.00284552 0.0345861 0.00227838 -0.00973825 0.0391656 0.00166896 
0.0165329 0.0385374 0.00221522 0.0238959 0.0383247 0.00196809 -0.0312382 0.0393096 0.00245671 
0.0163992 0.0415262 0.00231184 0.0222253 0.0407186 0.00169458 -0.0390027 0.0421086 0.00217596 
-0.0205282 0.0432397 0.0016602 0.0181024 -0.0433049 0.00223729 -0.042922 -0.0404536 0.00311845 
0.0156715 -0.0391733 0.00274997 0.0244271 -0.0334586 0.00285637 -0.0232422 -0.0321576 0.00279384 
0.0449741 -0.0303513 0.00228931 0.000892701 -0.0263701 0.00314184 0.0233461 -0.0214624 0.00263242 
0.0436787 -0.0219137 0.00278588 -0.00827992 -0.020547 0.00295499 -0.0108877 -0.0188832 0.00262058 
0.0030191 -0.0179247 0.00285543 -0.0257955 -0.0157834 0.00308345 0.0223879 -0.0163393 0.00281523 
0.0268005 -0.0146468 0.00300562 -0.0117656 -0.0138394 0.00294177 0.0176437 -0.0119747 0.00239769 
0.00689113 -0.0107816 0.00252037 0.0277003 -0.0107969 0.00281819 0.013874 -0.00963069 0.00296352 
-0.00254943 -0.00825679 0.00268592 -0.0304645 -0.00701594 0.00281435 -0.00433253 -0.00676057 0.00307159 
0.0109664 -0.00760095 0.00291021 0.0387156 -0.00624884 0.00294905 -0.042786 -0.00359954 0.00259445 
-0.0141425 -0.00311887 0.00292898 -0.0120059 -0.00345367 0.00261788 -0.00702036 -0.00121172 0.00287484 
0.00417698 0.0024455 0.00260717 -0.0325416 0.00283857 0.00260871 0.0449494 0.00392273 0.003062 
0.0404406 0.00462082 0.00295 0.0221269 0.00728552 0.00312561 8.23501e-07 0.0138406 0.00300534 
-0.022709 0.0198803 0.00282217 0.00128112 0.0217131 0.00272297 0.0307708 0.0242663 0.00280891 
0.0226957 0.0260881 0.00274634 0.0395905 0.0272142 0.00287027 -0.0108954 0.0304 0.00244835 
0.026696 0.03017 0.00264727 0.0364634 0.0310238 0.00311324 0.0231674 0.0340949 0.00257082 
0.0297434 0.0373158 0.00259426 -0.0112537 0.0395394 0.00201332 0.0221021 0.0401282 0.002123 
0.0251972 0.0393087 0.00278063 0.00805094 0.0422278 0.00265803 -0.027409 -0.0433703 0.00371495 
-0.00670669 -0.0394183 0.00427432 -0.0439713 -0.0357399 0.00350827 0.00879071 -0.0344865 0.00359705 
-0.0427235 -0.0332389 0.00336328 0.0346338 -0.0290927 0.00404953 -0.00580099 -0.0272788 0.00398086 
-0.0329121 -0.0139828 0.00315909 -0.0269092 -0.0125643 0.00428234 0.0404774 -0.00688032 0.00398014 
-0.0281455 -0.00127675 0.0045591 0.0147261 0.00139147 0.0040749 -0.025141 0.00447188 0.00328483 
0.0211953 0.00966092 0.00351125 -0.0365733 0.0119208 0.00408557 0.000954082 0.0152563 0.00334262 
0.0407412 0.0174253 0.00360077 0.00953871 0.0271324 0.00368763 -0.0337286 0.0337045 0.00425215 
-0.0245447 0.0378537 0.00410671 0.0294278 0.0431452 0.00363332 0.0405446 0.0433429 0.00325716 
0.0399235 0.0434757 0.00402658 -0.00340304 -0.0448428 0.00460062 0.0244803 -0.0401788 0.0051501 
0.00802514 -0.031483 0.00462699 0.0346336 -0.0325969 0.00515204 -0.0338231 -0.0250135 0.00460556 
0.0155599 -0.0240909 0.00465205 -0.0204621 -0.0172006 0.00567502 -0.0196799 -0.00931279 0.00538341 
-0.00401126 -0.00720159 0.00557891 -0.040885 -0.00406647 0.00574714 0.032558 0.00153523 0.00465194 
-0.037077 0.00611456 0.00485751 0.0142017 0.0079404 0.00456784 0.0202046 0.00840095 0.00464071 
-0.0394276 0.0109375 0.00583075 0.00243185 0.0120975 0.00465467 0.014866 0.0127598 0.00520452 
0.018015 0.0183735 0.00459365 -0.0349287 0.0230684 0.00569234 0.0146363 0.0223077 0.00562761 
-0.0267196 0.0236159 0.00541579 0.000162142 0.0251126 0.00448236 -0.00435696 0.0325462 0.00473372 
-0.0133259 0.0414802 0.00546989 -0.0346971 -0.0446764 0.00665508 -0.0248654 -0.0427111 0.00702257 
0.0248068 -0.0428986 0.00631302 -0.0349861 -0.0412827 0.00611741 0.0238162 -0.0409762 0.00679244 
-0.0370475 -0.0370945 0.00591149 -0.00586029 -0.0338127 0.0070367 -0.0386911 -0.0311434 0.00632844 
0.0164647 -0.0275391 0.00633604 -0.0240719 -0.0268296 0.00624006 -0.0227164 -0.0141288 0.00722661 
-0.0408474 -0.00214648 0.00663341 0.00664535 -0.00164817 0.00600253 -0.0376932 -0.000132947 0.00665733 
-0.0416237 0.00110806 0.00652255 0.0362421 0.00170773 0.00697616 -0.00723413 0.00605583 0.00623222 
0.00533928 0.00728904 0.00689279 0.0261916 0.0119357 0.00697529 -0.0429188 0.0135204 0.00595274 
-0.0431379 0.0208085 0.0069949 0.0258603 0.0235991 0.00594837 -0.0114472 0.026715 0.00686826 
0.0372507 0.0318783 0.00604394 -0.00196307 0.0366495 0.00618798 -0.0375088 0.0393741 0.00580536 
0.0145521 -0.0432303 0.00839229 0.0416479 -0.0439733 0.00720648 0.0338942 -0.0410147 0.00872167 
0.0397687 -0.0374633 0.00714641 -0.0273176 -0.0361067 0.00808604 0.0077947 -0.0345433 0.00728541 
0.03382 -0.0268981 0.00723897 0.0249316 -0.014475 0.00727568 -0.0341597 -0.0122829 0.0078585 
-0.0214415 -0.007536 0.00794242 -0.0135858 -0.00672635 0.00753176 0.0101693 0.00555192 0.00766557 
0.00474506 0.0103043 0.00762961 0.0128044 0.0127337 0.00779786 0.0336082 0.013194 0.00834111 
0.0226738 0.0181095 0.0074567 0.00757299 0.0192258 0.00847906 0.0122157 0.0191756 0.00748015 
0.0388885 0.0193682 0.00728391 0.0362273 0.0220011 0.00847517 -0.0421793 0.0225172 0.00740823 
-0.0190887 0.0269029 0.00826779 0.00834461 0.0278725 0.00780368 -0.0376379 0.0294143 0.00825258 
0.0434247 0.0295768 0.00809812 0.0311732 0.0371467 0.00794938 -0.0181988 0.0434549 0.0077675 
0.0114086 0.0440135 0.00837528 0.0171919 0.0449185 0.00812223 0.0211706 0.0445491 0.00847341 
-0.0169239 -0.0402939 0.00923673 0.0195647 -0.0366528 0.00944052 0.0433459 -0.0353282 0.00947703 
0.027474 -0.0338615 0.00918639 -0.0376897 -0.0314333 0.00894361 0.0268369 -0.0315202 0.00854702 
-0.0263426 -0.0292431 0.00940148 0.00231692 -0.0294453 0.00964141 -0.0240024 -0.0280603 0.0091883 
0.0101031 -0.0273014 0.0095327 0.00538025 -0.0241403 0.00875553 0.00548761 -0.0197918 0.00904251 
-0.0328213 -0.0176588 0.00869962 -0.0405162 -0.0161033 0.00952156 -0.015814 -0.0152491 0.00857214 
0.0375745 -0.0151367 0.00872312 0.0403752 -0.0143085 0.00845883 -0.038829 -0.00978443 0.00917482 
0.0406218 -0.0100941 0.00872417 0.0275881 -0.00673863 0.00910142 0.00523139 -0.00599236 0.00857238 
0.0293019 -0.00298432 0.00880024 0.0407777 0.000744206 0.00876098 0.0323225 0.00436429 0.00889639 
-0.0406381 0.00555966 0.00880922 0.0250346 0.00641518 0.00948145 0.0332757 0.00539899 0.00874832 
-0.0350204 0.0121089 0.0098175 -0.00867948 0.0139924 0.0095091 0.00789931 0.0136568 0.0095977 
-0.0196462 0.0155185 0.00843354 -0.00443291 0.0160613 0.00941029 -0.0295899 0.0232577 0.00954664 
0.00519606 0.0301696 0.00970571 0.00317215 0.0343196 0.00946771 0.0030545 0.0369981 0.00852297 
0.0352379 0.0438995 0.00889412 0.0131812 -0.0427533 0.0106193 0.0424299 -0.0409921 0.0104917 
-0.00161929 -0.0353994 0.010487 0.0403097 -0.0347888 0.0107198 -0.0160452 -0.0323821 0.0102548 
-0.0401314 -0.0280847 0.0105409 -0.00446216 -0.0255279 0.0110864 0.0115492 -0.0227248 0.0100376 
-0.0164034 -0.0216001 0.0100901 0.038292 -0.016257 0.0110707 -0.0408642 -0.0154151 0.0101983 
-0.0186412 -0.0134353 0.0106339 -0.0327621 -0.0121928 0.0105118 0.0161928 -0.00760918 0.00978129 
-0.00254916 -0.00379952 0.0118839 0.00975646 -0.00313231 0.0104799 -0.00896956 -0.00131708 0.0100833 
0.00243665 0.00282786 0.0110527 0.00347554 0.00338662 0.0112061 0.00978397 0.00922321 0.0102216 
-0.00831541 0.0129665 0.0109569 0.0441199 0.0136981 0.0101193 0.0256029 0.0175394 0.0106712 
0.0350116 0.0207306 0.0102903 -0.0122989 0.0222019 0.0109078 0.0438582 0.0244724 0.010993 
-0.00883869 0.0381834 0.0107927 -0.00647711 0.0391566 0.0109715 0.0281745 0.039089 0.0107025 
0.00308146 0.0401468 0.0119048 0.0352701 0.0439749 0.0105929 0.000425919 -0.0415728 0.0115153 
0.0166138 -0.0412108 0.011625 0.00985621 -0.0367022 0.0116052 0.0341086 -0.0368686 0.012335 
-0.0309963 -0.0355024 0.0119813 0.0188903 -0.0308528 0.0130987 -0.0414327 -0.0290659 0.0121311 
0.00741479 -0.0295782 0.0136042 0.023019 -0.0293484 0.0118396 -0.0207679 -0.0256315 0.0131483 
-0.00863888 -0.0237376 0.0123665 0.0102479 -0.024092 0.0114479 0.035159 -0.023363 0.0116211 
0.0394323 -0.021923 0.0121447 0.0252581 -0.0163235 0.0125287 -0.042331 -0.00792816 0.012126 
-0.0343844 -0.0078404 0.0115241 -0.0344646 -0.00725539 0.0112556 0.0180458 -0.00470109 0.0112434 
-0.00941413 -0.00330341 0.0118207 -0.0283489 -0.000417126 0.0120801 0.00643655 -0.000956063 0.0136057 
0.0140084 -6.89735e-05 0.0120629 -0.00229178 0.0020129 0.0120911 0.0116524 0.00206193 0.012146 
0.00314898 0.00491531 0.0118881 -0.00841171 0.0143034 0.0121035 0.0114764 0.0140289 0.0126834 
0.0311878 0.014057 0.011416 0.00546842 0.0177814 0.0125089 0.00976854 0.0197772 0.0124915 
-0.0287332 0.0215601 0.0119123 0.0398418 0.0217469 0.0115548 0.00126512 0.0228658 0.0120024 
0.00264144 0.0247174 0.0119413 -0.0219587 0.0304934 0.0119942 -0.0213481 0.0319153 0.0124673 
0.0152528 0.033152 0.0125834 0.0214431 0.0335886 0.012393 -0.00472634 0.0344449 0.0122737 
-0.0407273 0.0358476 0.0115463 -0.0155539 0.0359545 0.0130031 -0.00585061 0.0388609 0.0115242 
-0.0160353 0.0448572 0.0124354 0.0262096 -0.0449372 0.0135577 -0.00396528 -0.0444182 0.0126191 
0.0195053 -0.043722 0.0132713 0.0201641 -0.0426709 0.0126212 -0.0136468 -0.0412372 0.0134405 
-0.00521279 -0.0413279 0.014772 0.0339316 -0.041715 0.0134647 -0.0385899 -0.0405251 0.0146118 
0.0355384 -0.0354155 0.0131392 0.0419483 -0.0348097 0.0140634 -0.0161578 -0.0337243 0.0132493 
-0.0220587 -0.0306349 0.0124973 0.00179778 -0.0247441 0.0135955 0.00558373 -0.0242787 0.0128663 
-0.0350278 -0.0224863 0.0130869 -0.0127621 -0.0231756 0.0127717 0.0240101 -0.0228809 0.0128247 
-0.0210835 -0.0209207 0.0130762 -0.0033641 -0.0204173 0.0131089 -0.0147645 -0.0165889 0.01269 
0.0323803 -0.0150629 0.0125696 -0.0313057 -0.0141988 0.0128686 0.0144468 -0.013247 0.0136751 
0.0433204 -0.0141837 0.0137375 0.0414517 -0.0114994 0.014058 -0.0136128 -0.00979682 0.0136307 
0.0334462 -0.00930086 0.012684 0.0129906 -0.00677597 0.0132732 0.0200271 -0.00425623 0.0131744 
-0.0107529 -0.00365687 0.0131913 -0.0395569 -0.00227866 0.0133669 0.0168839 -0.00210364 0.0127007 
-0.0153419 -0.00108619 0.0127637 0.00265626 0.00371614 0.0136064 0.0183943 0.00266245 0.0136302 
-0.00757157 0.00454821 0.0140098 -0.0105861 0.00898083 0.0126576 -0.0408092 0.00981999 0.0129577 
-0.0349081 0.00917553 0.0129899 0.0396593 0.013993 0.0124893 -0.0081225 0.0151775 0.0147754 
0.0440772 0.0154938 0.0128478 -0.0245993 0.0193658 0.013872 -0.0256005 0.0215871 0.0139074 
-0.0148746 0.0223253 0.0127343 -0.0128609 0.0265935 0.0137193 0.0193546 0.0324404 0.0126328 
0.0191028 0.0315895 0.0132533 0.00727395 0.0332762 0.0126671 -0.0197415 0.0344175 0.0140261 
0.0164577 0.0353116 0.0142933 0.00888594 0.0360502 0.0134178 0.00201585 0.0404036 0.0136563 
0.00528787 0.0432844 0.0128038 -0.0406141 -0.0405112 0.0141206 -0.0177429 -0.0346724 0.0144503 
-0.0177803 -0.0340186 0.0139133 0.00264867 -0.0338128 0.0149641 -0.0233761 -0.031813 0.0138069 
-0.0346801 -0.0287009 0.0149396 0.0153133 -0.0285941 0.013895 -0.0419519 -0.0259749 0.0146478 
-0.0323128 -0.0219837 0.0142274 0.0184681 -0.0172117 0.0152265 0.0132043 -0.01541 0.0150232 
-0.0279963 -0.0141356 0.0148829 -0.00528066 -0.0121118 0.0139257 0.0322358 -0.0130621 0.0150265 
0.0282359 -0.00877456 0.015881 -0.0211095 -0.00770044 0.0140219 -0.0253129 -0.0039775 0.0146224 
0.0414788 -0.00521487 0.0148111 -0.0198668 -0.00211416 0.0139997 -0.000610522 -0.00103491 0.0143855 
-0.0261639 0.00337815 0.015 0.0260144 0.00429017 0.0144838 -0.0429246 0.00657681 0.0138816 
0.0110904 0.00657535 0.0148119 0.0320014 0.00756294 0.0149074 -0.00071691 0.0108932 0.0148315 
-0.0231109 0.0157017 0.0141865 -0.0193355 0.018129 0.0142007 -0.0324762 0.0230005 0.0150406 
-0.0102477 0.0267602 0.0143662 -0.0296003 0.0277025 0.0158042 0.0104707 0.0313218 0.0148886 
-0.0425374 0.0333781 0.0140636 0.0278529 0.0342296 0.0146342 -0.0390775 0.0447256 0.0146667 
-0.0389435 -0.0425966 0.0162116 0.0185094 -0.042363 0.0162538 0.0406519 -0.0427256 0.0156031 
-0.0195638 -0.0385913 0.0163568 0.0325128 -0.03812 0.0155566 -8.23525e-05 -0.034098 0.015905 
0.0392765 -0.0300093 0.0156778 -0.015788 -0.0282898 0.015974 0.0347572 -0.0260666 0.0152394 
0.0109547 -0.0235646 0.0153218 -0.0291427 -0.0219343 0.0158384 0.0262592 -0.0217201 0.0166256 
-0.0207996 -0.0190456 0.0165063 0.0414834 -0.0181367 0.0170774 0.0223025 -0.0112244 0.0166641 
0.0342493 -0.0115037 0.0156784 -0.0253401 -0.0103599 0.0164846 -0.0150798 -0.00698339 0.0165015 
0.00635633 0.000852437 0.0172522 0.0189244 0.00254502 0.0164776 -0.0233311 0.00384073 0.0153111 
0.0277548 0.0042931 0.0167567 -0.0403489 0.00598291 0.0161337 -0.00552594 0.00555795 0.0162726 
0.0358407 0.00533501 0.0153423 -0.019893 0.00878872 0.0155384 0.0324887 0.00836074 0.0160607 
-0.0408306 0.00999374 0.0162329 0.0234497 0.00978487 0.0153271 0.027557 0.009967 0.0164206 
-0.00808524 0.0113378 0.0160035 0.0379188 0.0120326 0.0165421 0.012949 0.0143048 0.016491 
0.0153641 0.0146287 0.0164503 -0.0408838 0.0159645 0.015282 0.00976298 0.0163696 0.016053 
0.0323341 0.0191974 0.0170695 -0.0144089 0.0201081 0.0172543 0.00742845 0.0199749 0.0156305 
-0.0436572 0.0238848 0.0164673 0.021223 0.0244832 0.0160025 -0.0269229 0.0267788 0.0157907 
0.0397191 0.0283771 0.0153104 -0.0406313 0.0295913 0.0164633 -0.032208 0.0306075 0.015899 
0.0040127 0.0314243 0.0162696 0.0354139 0.0312817 0.0162929 0.0337272 0.0324898 0.0163746 
0.0380057 0.0324307 0.0161959 0.00367032 0.0371324 0.0156438 -0.039126 0.0399637 0.0158259 
0.0131273 0.040817 0.0169141 -0.0440308 0.0448256 0.0159584 0.00849583 -0.0405939 0.0167635 
-0.0289295 -0.0389067 0.0172953 0.0289145 -0.0340196 0.0185817 -0.0210092 -0.0320472 0.0169183 
-0.0432264 -0.0264101 0.0168614 0.0054016 -0.025334 0.0167389 0.0350196 -0.0250011 0.0164817 
-0.0336946 -0.0248459 0.0179021 0.0210005 -0.0239559 0.0171697 -0.0329608 -0.0218045 0.0178777 
0.0134129 -0.0192809 0.0175237 0.0204492 -0.0194639 0.0166451 -0.0183202 -0.0175475 0.0178289 
-0.0393221 -0.0167834 0.0176064 0.0296492 -0.015918 0.017846 -0.00710141 -0.0133745 0.0173162 
0.00886689 -0.0141191 0.0172017 -0.0207563 -0.0111167 0.0178571 0.0253763 -0.011051 0.016655 
-0.0326334 -0.00963456 0.0176438 -0.024842 -0.00884532 0.018079 0.00357123 -0.00830953 0.0178427 
-0.00474481 -0.00600267 0.0181983 0.0154702 -0.00154679 0.0181676 -0.0356048 -0.000104637 0.0178876 
0.00127443 -0.000618905 0.017779 0.0420414 -0.00101026 0.0167644 -0.027449 0.00511055 0.0173967 
-0.01547 0.00642247 0.0176139 -0.009285 0.00693532 0.0165623 -0.00598638 0.00689803 0.016722 
-0.0371624 0.011326 0.0174865 -0.0287818 0.014969 0.016938 0.012585 0.0155082 0.0176997 
-0.0286532 0.0159811 0.0171987 -0.00317984 0.0164631 0.0173582 -0.0363159 0.0185996 0.0169423 
0.00153271 0.0201988 0.0174492 -0.0214233 0.0285543 0.0169013 -0.0152062 0.0294088 0.0177703 
-0.0368667 0.0306348 0.0169959 -0.0422696 0.0340949 0.0179043 -0.00750544 0.0361316 0.017623 
-0.0437633 0.0406561 0.0182182 0.0170579 0.0421878 0.0171719 0.00513794 0.0433856 0.0175512 
-0.0317519 -0.0446953 0.0181494 -0.0234086 -0.038644 0.0190891 -0.00338111 -0.0363358 0.0187321 
0.0307351 -0.0355434 0.0184341 -0.0179089 -0.0346335 0.0183192 0.043014 -0.0343178 0.018788 
-0.0396817 -0.0304797 0.0185497 0.010226 -0.0308634 0.0185898 0.0412685 -0.0295104 0.0185064 
0.0156293 -0.0283842 0.0181286 -0.038621 -0.0229432 0.019198 -0.0328109 -0.0226975 0.0192826 
-0.0139777 -0.0223984 0.0188854 0.0218308 -0.0192565 0.0192892 0.0282033 -0.0178095 0.0181278 
-0.0420316 -0.0145538 0.0186333 0.0323804 -0.0132471 0.0185926 0.0347312 -0.012978 0.018046 
-0.0449336 -0.00957357 0.0184059 0.0218314 -0.00971151 0.0182967 -0.0101373 -0.00698039 0.0182531 
-0.00720807 -0.00608605 0.0185313 0.039455 -0.000236508 0.0185266 -0.0332593 0.000859011 0.0182134 
-0.0161548 0.0159009 0.0183322 -0.0436896 0.0195853 0.0181935 -0.0170112 0.0231088 0.019813 
-0.0138035 0.0240512 0.0182307 -0.0132251 0.0252506 0.0182386 -0.0379532 0.0399341 0.0190946 
-0.0281804 0.0418824 0.0187684 0.0302919 -0.0148257 0.0197304 -0.0386256 -0.00983966 0.0198325 
-0.0131355 0.00164571 0.0193401 -0.0137512 0.00384646 0.0195508 0.023953 0.00820576 0.0201073 
0.00418285 0.0112423 0.0195762 -0.0359241 0.0337864 0.0196326 0.0132394 0.0345575 0.0196669 
0.0439232 0.0371117 0.0201827 -0.00785852 0.041878 0.0194113 0.0430506 0.0422314 0.0193479 
-0.0190394 0.0446837 0.0195962 0.0147823 -0.0446949 0.0212207 -0.00682403 -0.0314098 0.0211118 
0.0386193 -0.00496685 0.0212924 0.0448793 -0.00396119 0.0211058 -0.0442311 0.00821601 0.0217688 
-0.014478 0.0275162 0.0217635 0.0272875 -0.0186725 0.0227892 0.0352883 -0.0103067 0.0227449 
-0.0122189 0.0175978 0.0227923 0.0127657 -0.00746761 0.0241368 -0.0260391 0.0304395 0.0236768 
-0.0225361 -0.0441701 0.0247203 0.0133448 0.00646544 0.0270863 0.0242571 -0.0100823 0.0371374 

VERTICES 649 648
OFFSETS vtktypeint64
0 1 2 3 4 5 6 7 8 
9 10 11 12 13 14 15 16 17 
18 19 20 21 22 23 24 25 26 
27 28 29 30 31 32 33 34 35 
36 37 38 39 40 41 42 43 44 
45 46 47 48 49 50 51 52 53 
54 55 56 57 58 59 60 61 62 
63 64 65 66 67 68 69 70 71 
72 73 74 75 76 77 78 79 80 
81 82 83 84 85 86 87 88 89 
90 91 92 93 94 95 96 97 98 
99 100 101 102 103 104 105 106 107 
108 109 110 111 112 113 114 115 116 
117 118 119 120 121 122 123 124 125 
126 127 128 129 130 131 132 133 134 
135 136 137 138 139 140 141 142 143 
144 145 146 147 148 149 150 151 152 
153 154 155 156 157 158 159 160 161 
162 163 164 165 166 167 168 169 170 
171 172 173 174 175 176 177 178 179 
180 181 182 183 184 185 186 187 188 
189 190 191 192 193 194 195 196 197 
198 199 200 201 202 203 204 205 206 
207 208 209 210 211 212 213 214 215 
216 217 218 219 220 221 222 223 224 
225 226 227 228 229 230 231 232 233 
234 235 236 237 238 239 240 241 242 
243 244 245 246 247 248 249 250 251 
252 253 254 255 256 257 258 259 260 
261 262 263 264 265 266 267 268 269 
270 271 272 273 274 275 276 277 278 
279 280 281 282 283 284 285 286 287 
288 289 290 291 292 293 294 295 296 
297 298 299 300 301 302 303 304 305 
306 307 308 309 310 311 312 313 314 
315 316 317 318 319 320 321 322 323 
324 325 326 327 328 329 330 331 332 
333 334 335 336 337 338 339 340 341 
342 343 344 345 346 347 348 349 350 
351 352 353 354 355 356 357 358 359 
360 361 362 363 364 365 366 367 368 
369 370 371 372 373 374 375 376 377 
378 379 380 381 382 383 384 385 386 
387 388 389 390 391 392 393 394 395 
396 397 398 399 400 401 402 403 404 
405 406 407 408 409 410 411 412 413 
414 415 416 417 418 419 420 421 422 
423 424 425 426 427 428 429 430 431 
432 433 434 435 436 437 438 439 440 
441 442 443 444 445 446 447 448 449 
450 451 452 453 454 455 456 457 458 
459 460 461 462 463 464 465 466 467 
468 469 470 471 472 473 474 475 476 
477 478 479 480 481 482 483 484 485 
486 487 488 489 490 491 492 493 494 
495 496 497 498 499 500 501 502 503 
504 505 506 507 508 509 510 511 512 
513 514 515 516 517 518 519 520 521 
522 523 524 525 526 527 528 529 530 
531 532 533 534 535 536 537 538 539 
540 541 542 543 544 545 546 547 548 
549 550 551 552 553 554 555 556 557 
558 559 560 561 562 563 564 565 566 
567 568 569 570 571 572 573 574 575 
576 577 578 579 580 581 582 583 584 
585 586 587 588 589 590 591 592 593 
594 595 596 597 598 599 600 601 602 
603 604 605 606 607 608 609 610 611 
612 613 614 615 616 617 618 619 620 
621 622 623 624 625 626 627 628 629 
630 631 632 633 634 635 636 637 638 
639 640 641 642 643 644 645 646 647 
648 
CONNECTIVITY vtktypeint64
0 1 2 3 4 5 6 7 8 
9 10 11 12 13 14 15 16 17 
18 19 20 21 22 23 24 25 26 
27 28 29 30 31 32 33 34 35 
36 37 38 39 40 41 42 43 44 
45 46 47 48 49 50 51 52 53 
54 55 56 57 58 59 60 61 62 
63 64 65 66 67 68 69 70 71 
72 73 74 75 76 77 78 79 80 
81 82 83 84 85 86 87 88 89 
90 91 92 93 94 95 96 97 98 
99 100 101 102 103 104 105 106 107 
108 109 110 111 112 113 114 115 116 
117 118 119 120 121 122 123 124 125 
126 127 128 129 130 131 132 133 134 
135 136 137 138 139 140 141 142 143 
144 145 146 147 148 149 150 151 152 
153 154 155 156 157 158 159 160 161 
162 163 164 165 166 167 168 169 170 
171 172 173 174 175 176 177 178 179 
180 181 182 183 184 185 186 187 188 
189 190 191 192 193 194 195 196 197 
198 199 200 201 202 203 204 205 206 
207 208 209 210 211 212 213 214 215 
216 217 218 219 220 221 222 223 224 
225 226 227 228 229 230 231 232 233 
234 235 236 237 238 239 240 241 242 
243 244 245 246 247 248 249 250 251 
252 253 254 255 256 257 258 259 260 
261 262 263 264 265 266 267 268 269 
270 271 272 273 274 275 276 277 278 
279 280 281 282 283 284 285 286 287 
288 289 290 291 292 293 294 295 296 
297 298 299 300 301 302 303 304 305 
306 307 308 309 310 311 312 313 314 
315 316 317 318 319 320 321 322 323 
324 325 326 327 328 329 330 331 332 
333 334 335 336 337 338 339 340 341 
342 343 344 345 346 347 348 349 350 
351 352 353 354 355 356 357 358 359 
360 361 362 363 364 365 366 367 368 
369 370 371 372 373 374 375 376 377 
378 379 380 381 382 383 384 385 386 
387 388 389 390 391 392 393 394 395 
396 397 398 399 400 401 402 403 404 
405 406 407 408 409 410 411 412 413 
414 415 416 417 418 419 420 421 422 
423 424 425 426 427 428 429 430 431 
432 433 434 435 436 437 438 439 440 
441 442 443 444 445 446 447 448 449 
450 451 452 453 454 455 456 457 458 
459 460 461 462 463 464 465 466 467 
468 469 470 471 472 473 474 475 476 
477 478 479 480 481 482 483 484 485 
486 487 488 489 490 491 492 493 494 
495 496 497 498 499 500 501 502 503 
504 505 506 507 508 509 510 511 512 
513 514 515 516 517 518 519 520 521 
522 523 524 525 526 527 528 529 530 
531 532 533 534 535 536 537 538 539 
540 541 542 543 544 545 546 547 548 
549 550 551 552 553 554 555 556 557 
558 559 560 561 562 563 564 565 566 
567 568 569 570 571 572 573 574 575 
576 577 578 579 580 581 582 583 584 
585 586 587 588 589 590 591 592 593 
594 595 596 597 598 599 600 601 602 
603 604 605 606 607 608 609 610 611 
612 613 614 615 616 617 618 619 620 
621 622 623 624 625 626 627 628 629 
630 631 632 633 634 635 636 637 638 
639 640 641 642 643 644 645 646 647 

POINT_DATA 648
FIELD FieldData 12
id 1 648 int
164 115 185 121 479 73 168 157 72 
383 57 465 401 18 100 195 408 504 
148 233 463 366 200 140 218 457 207 
256 87 35 508 34 92 356 226 24 
367 88 51 303 304 107 137 331 128 
267 190 282 64 167 237 470 440 238 
439 247 355 496 381 58 227 231 428 
427 483 293 324 243 370 515 11 125 
132 341 83 36 186 418 458 407 478 
456 396 467 353 454 450 129 165 261 
197 288 255 214 373 432 60 297 169 
150 491 310 202 308 193 40 433 339 
110 417 364 521 166 49 219 14 12 
162 280 410 321 506 488 187 201 158 
327 253 29 270 85 320 246 328 318 
412 62 372 406 346 134 459 347 404 
352 291 472 317 174 154 289 176 444 
290 215 349 106 292 127 260 399 6 
336 299 263 385 257 66 175 334 86 
141 423 322 149 337 189 163 461 343 
268 26 251 362 155 435 386 91 188 
314 22 319 229 294 409 500 8 368 
542 90 56 420 345 469 392 199 348 
437 108 272 351 98 326 505 543 415 
71 298 248 42 567 538 495 424 112 
601 273 21 117 330 104 109 9 222 
361 275 113 390 562 429 411 571 333 
445 13 612 360 135 204 75 61 486 
426 446 384 357 507 30 94 232 76 
84 31 577 122 82 489 183 240 380 
10 32 546 338 378 236 54 443 447 
161 529 287 498 509 451 114 198 375 
302 55 438 99 436 605 589 477 5 
295 139 96 645 484 28 274 572 374 
194 211 16 311 615 377 592 196 216 
503 474 126 181 119 46 178 220 254 
81 313 182 475 414 271 159 69 570 
502 604 449 160 170 143 59 146 278 
642 20 151 244 641 497 262 63 118 
33 431 206 559 413 536 643 397 591 
52 102 626 487 636 393 640 103 627 
493 223 329 111 553 95 563 53 252 
142 205 621 265 565 208 593 17 633 
395 587 514 138 279 394 520 419 583 
579 235 387 309 624 45 614 534 89 
93 203 68 632 597 648 344 584 156 
250 116 79 526 416 323 403 25 462 
74 306 460 644 638 264 38 580 105 
171 382 371 217 598 305 631 144 4 
400 363 619 358 582 646 325 266 65 
481 225 600 552 286 123 342 549 518 
350 616 239 354 147 574 576 551 376 
276 43 566 602 511 285 647 405 564 
519 379 301 528 556 221 70 184 130 
535 609 611 455 421 476 258 635 471 
210 359 388 533 629 430 192 547 573 
177 603 599 628 23 522 630 77 212 
613 501 545 153 124 145 453 296 480 
442 620 41 622 315 15 607 625 281 
191 78 637 179 524 596 332 623 180 
466 482 523 606 639 136 312 634 307 
527 532 335 581 234 578 44 448 539 
618 422 490 441 585 340 617 569 608 
557 610 568 365 80 284 245 425 213 
595 48 560 228 473 485 561 209 540 
594 550 452 575 434 586 242 173 67 
492 402 47 525 283 548 120 37 541 
513 558 517 590 530 259 554 101 39 
224 2 389 468 152 588 97 131 249 
555 537 544 499 300 510 464 494 391 
531 277 19 172 241 398 133 50 316 
369 516 3 7 27 269 230 512 1 

type 1 648 int
1 1 1 1 1 1 1 1 1 
1 1 1 1 1 1 1 1 1 
1 1 1 1 1 1 1 1 1 
1 1 1 1 1 1 1 1 1 
1 1 1 1 1 1 1 1 1 
1 1 1 1 1 1 1 1 1 
1 1 1 1 1 1 1 1 1 
1 1 1 1 1 1 1 2 1 
1 1 1 1 1 1 1 1 1 
1 1 1 1 1 1 1 1 1 
1 1 1 1 1 1 1 1 1 
1 1 1 1 1 1 1 1 1 
1 1 1 1 1 1 1 2 2 
1 1 1 1 1 1 1 1 1 
1 1 1 1 1 1 1 1 1 
1 1 1 1 1 1 1 1 1 
1 1 1 1 1 1 1 1 1 
1 1 1 1 1 1 1 1 2 
1 1 1 1 1 1 1 1 1 
1 1 1 1 1 1 1 1 1 
1 1 1 1 1 1 1 1 1 
1 1 1 1 1 1 1 2 1 
1 1 1 1 1 1 1 1 1 
1 1 1 1 1 1 1 1 1 
1 1 1 1 1 1 1 1 1 
1 1 1 1 1 1 1 2 1 
1 1 1 1 1 1 1 1 1 
1 2 1 1 1 1 1 1 1 
1 1 1 1 1 1 1 1 1 
1 1 1 1 1 1 1 1 1 
2 1 1 1 1 1 1 1 1 
1 1 1 1 1 1 1 1 1 
1 1 1 1 1 1 1 1 2 
1 1 1 1 1 1 1 1 1 
1 1 2 1 1 1 1 1 1 
1 1 1 1 1 1 1 1 1 
1 1 1 1 1 1 1 1 1 
1 1 1 1 1 1 1 1 1 
1 1 1 1 1 1 1 1 1 
1 1 1 1 1 1 1 1 1 
1 1 1 1 1 1 1 1 1 
1 1 1 1 1 1 1 1 1 
1 1 1 1 1 1 1 1 1 
1 1 1 1 1 1 1 1 1 
1 1 1 1 1 1 1 1 1 
1 1 1 1 1 1 1 1 1 
1 1 1 1 1 1 1 1 1 
1 1 1 1 1 1 1 1 1 
1 1 1 1 1 1 1 1 2 
1 1 1 1 1 1 1 1 1 
1 1 1 1 1 1 1 1 1 
1 1 1 1 1 1 1 1 1 
1 1 1 1 1 1 1 1 1 
1 1 1 1 1 1 1 1 1 
1 1 1 1 1 1 1 1 1 
1 1 1 1 1 1 1 1 1 
1 1 1 1 1 1 1 1 1 
1 1 1 1 1 1 1 1 1 
1 1 1 1 1 2 1 1 1 
1 1 1 1 1 1 1 1 1 
1 1 1 1 1 1 1 2 1 
1 1 1 1 1 1 1 1 1 
1 1 1 1 1 1 1 1 1 
1 1 1 1 1 1 1 1 1 
1 1 1 1 1 1 1 1 1 
1 1 1 1 1 1 1 1 1 
1 1 1 1 1 1 1 1 1 
1 1 1 1 1 1 1 1 1 
1 3 1 1 1 1 1 1 1 
1 1 1 1 1 1 1 1 1 
1 1 1 1 1 1 1 1 1 
1 2 2 2 1 1 1 2 4 

i 3 648 int
0 0 0 0 0 0 0 0 0 
0 0 0 0 0 0 0 0 0 
0 0 0 0 0 0 0 0 0 
0 0 0 0 0 0 0 0 0 
0 0 0 0 0 0 0 0 0 
0 0 0 0 0 0 0 0 0 
0 0 0 0 0 0 0 0 0 
0 0 0 0 0 0 0 0 0 
0 0 0 0 0 0 0 0 0 
0 0 0 0 0 0 0 0 0 
0 0 0 0 0 0 0 0 0 
0 0 0 0 0 0 0 0 0 
0 0 0 0 0 0 0 0 0 
0 0 0 0 0 0 0 0 0 
0 0 0 0 0 0 0 0 0 
0 0 0 0 0 0 0 0 0 
0 0 0 0 0 0 0 0 0 
0 0 0 0 0 0 0 0 0 
0 0 0 0 0 0 0 0 0 
0 0 0 0 0 0 0 0 0 
0 0 0 0 0 0 0 0 0 
0 0 0 0 0 0 0 0 0 
0 0 0 0 0 0 0 0 0 
0 0 0 0 0 0 0 0 0 
0 0 0 0 0 0 0 0 0 
0 0 0 0 0 0 0 0 0 
0 0 0 0 0 0 0 0 0 
0 0 0 0 0 0 0 0 0 
0 0 0 0 0 0 0 0 0 
0 0 0 0 0 0 0 0 0 
0 0 0 0 0 0 0 0 0 
0 0 0 0 0 0 0 0 0 
0 0 0 0 0 0 0 0 0 
0 0 0 0 0 0 0 0 0 
0 0 0 0 0 0 0 0 0 
0 0 0 0 0 0 0 0 0 
0 0 0 0 0 0 0 0 0 
0 0 0 0 0 0 0 0 0 
0 0 0 0 0 0 0 0 0 
0 0 0 0 0 0 0 0 0 
0 0 0 0 0 0 0 0 0 
0 0 0 0 0 0 0 0 0 
0 0 0 0 0 0 0 0 0 
0 0 0 0 0 0 0 0 0 
0 0 0 0 0 0 0 0 0 
0 0 0 0 0 0 0 0 0 
0 0 0 0 0 0 0 0 0 
0 0 0 0 0 0 0 0 0 
0 0 0 0 0 0 0 0 0 
0 0 0 0 0 0 0 0 0 
0 0 0 0 0 0 0 0 0 
0 0 0 0 0 0 0 0 0 
0 0 0 0 0 0 0 0 0 
0 0 0 0 0 0 0 0 0 
0 0 0 0 0 0 0 0 0 
0 0 0 0 0 0 0 0 0 
0 0 0 0 0 0 0 0 0 
0 0 0 0 0 0 0 0 0 
0 0 0 0 0 0 0 0 0 
0 0 0 0 0 0 0 0 0 
0 0 0 0 0 0 0 0 0 
0 0 0 0 0 0 0 0 0 
0 0 0 0 0 0 0 0 0 
0 0 0 0 0 0 0 0 0 
0 0 0 0 0 0 0 0 0 
0 0 0 0 0 0 0 0 0 
0 0 0 0 0 0 0 0 0 
0 0 0 0 0 0 0 0 0 
0 0 0 0 0 0 0 0 0 
0 0 0 0 0 0 0 0 0 
0 0 0 0 0 0 0 0 0 
0 0 0 0 0 0 0 0 0 
0 0 0 0 0 0 0 0 0 
0 0 0 0 0 0 0 0 0 
0 0 0 0 0 0 0 0 0 
0 0 0 0 0 0 0 0 0 
0 0 0 0 0 0 0 0 0 
0 0 0 0 0 0 0 0 0 
0 0 0 0 0 0 0 0 0 
0 0 0 0 0 0 0 0 0 
0 0 0 0 0 0 0 0 0 
0 0 0 0 0 0 0 0 0 
0 0 0 0 0 0 0 0 0 
0 0 0 0 0 0 0 0 0 
0 0 0 0 0 0 0 0 0 
0 0 0 0 0 0 0 0 0 
0 0 0 0 0 0 0 0 0 
0 0 0 0 0 0 0 0 0 
0 0 0 0 0 0 0 0 0 
0 0 0 0 0 0 0 0 0 
0 0 0 0 0 0 0 0 0 
0 0 0 0 0 0 0 0 0 
0 0 0 0 0 0 0 0 0 
0 0 0 0 0 0 0 0 0 
0 0 0 0 0 0 0 0 0 
0 0 0 0 0 0 0 0 0 
0 0 0 0 0 0 0 0 0 
0 0 0 0 0 0 0 0 0 
0 0 0 0 0 0 0 0 0 
0 0 0 0 0 0 0 0 0 
0 0 0 0 0 0 0 0 0 
0 0 0 0 0 0 0 0 0 
0 0 0 0 0 0 0 0 0 
0 0 0 0 0 0 0 0 0 
0 0 0 0 0 0 0 0 0 
0 0 0 0 0 0 0 0 0 
0 0 0 0 0 0 0 0 0 
0 0 0 0 0 0 0 0 0 
0 0 0 0 0 0 0 0 0 
0 0 0 0 0 0 0 0 0 
0 0 0 0 0 0 0 0 0 
0 0 0 0 0 0 0 0 0 
0 0 0 0 0 0 0 0 0 
0 0 0 0 0 0 0 0 0 
0 0 0 0 0 0 0 0 0 
0 0 0 0 0 0 0 0 0 
0 0 0 0 0 0 0 0 0 
0 0 0 0 0 0 0 0 0 
0 0 0 0 0 0 0 0 0 
0 0 0 0 0 0 0 0 0 
0 0 0 0 0 0 0 0 0 
0 0 0 0 0 0 0 0 0 
0 0 0 0 0 0 0 0 0 
0 0 0 0 0 0 0 0 0 
0 0 0 0 0 0 0 0 0 
0 0 0 0 0 0 0 0 0 
0 0 0 0 0 0 0 0 0 
0 0 0 0 0 0 0 0 0 
0 0 0 0 0 0 0 0 0 
0 0 0 0 0 0 0 0 0 
0 0 0 0 0 0 0 0 0 
0 0 0 0 0 0 0 0 0 
0 0 0 0 0 0 0 0 0 
0 0 0 0 0 0 0 0 0 
0 0 0 0 0 0 0 0 0 
0 0 0 0 0 0 0 0 0 
0 0 0 0 0 0 0 0 0 
0 0 0 0 0 0 0 0 0 
0 0 0 0 0 0 0 0 0 
0 0 0 0 0 0 0 0 0 
0 0 0 0 0 0 0 0 0 
0 0 0 0 0 0 0 0 0 
0 0 0 0 0 0 0 0 0 
0 0 0 0 0 0 0 0 0 
0 0 0 0 0 0 0 0 0 
0 0 0 0 0 0 0 0 0 
0 0 0 0 0 0 0 0 0 
0 0 0 0 0 0 0 0 0 
0 0 0 0 0 0 0 0 0 
0 0 0 0 0 0 0 0 0 
0 0 0 0 0 0 0 0 0 
0 0 0 0 0 0 0 0 0 
0 0 0 0 0 0 0 0 0 
0 0 0 0 0 0 0 0 0 
0 0 0 0 0 0 0 0 0 
0 0 0 0 0 0 0 0 0 
0 0 0 0 0 0 0 0 0 
0 0 0 0 0 0 0 0 0 
0 0 0 0 0 0 0 0 0 
0 0 0 0 0 0 0 0 0 
0 0 0 0 0 0 0 0 0 
0 0 0 0 0 0 0 0 0 
0 0 0 0 0 0 0 0 0 
0 0 0 0 0 0 0 0 0 
0 0 0 0 0 0 0 0 0 
0 0 0 0 0 0 0 0 0 
0 0 0 0 0 0 0 0 0 
0 0 0 0 0 0 0 0 0 
0 0 0 0 0 0 0 0 0 
0 0 0 0 0 0 0 0 0 
0 0 0 0 0 0 0 0 0 
0 0 0 0 0 0 0 0 0 
0 0 0 0 0 0 0 0 0 
0 0 0 0 0 0 0 0 0 
0 0 0 0 0 0 0 0 0 
0 0 0 0 0 0 0 0 0 
0 0 0 0 0 0 0 0 0 
0 0 0 0 0 0 0 0 0 
0 0 0 0 0 0 0 0 0 
0 0 0 0 0 0 0 0 0 
0 0 0 0 0 0 0 0 0 
0 0 0 0 0 0 0 0 0 
0 0 0 0 0 0 0 0 0 
0 0 0 0 0 0 0 0 0 
0 0 0 0 0 0 0 0 0 
0 0 0 0 0 0 0 0 0 
0 0 0 0 0 0 0 0 0 
0 0 0 0 0 0 0 0 0 
0 0 0 0 0 0 0 0 0 
0 0 0 0 0 0 0 0 0 
0 0 0 0 0 0 0 0 0 
0 0 0 0 0 0 0 0 0 
0 0 0 0 0 0 0 0 0 
0 0 0 0 0 0 0 0 0 
0 0 0 0 0 0 0 0 0 
0 0 0 0 0 0 0 0 0 
0 0 0 0 0 0 0 0 0 
0 0 0 0 0 0 0 0 0 
0 0 0 0 0 0 0 0 0 
0 0 0 0 0 0 0 0 0 
0 0 0 0 0 0 0 0 0 
0 0 0 0 0 0 0 0 0 
0 0 0 0 0 0 0 0 0 
0 0 0 0 0 0 0 0 0 
0 0 0 0 0 0 0 0 0 
0 0 0 0 0 0 0 0 0 
0 0 0 0 0 0 0 0 0 
0 0 0 0 0 0 0 0 0 
0 0 0 0 0 0 0 0 0 
0 0 0 0 0 0 0 0 0 
0 0 0 0 0 0 0 0 0 
0 0 0 0 0 0 0 0 0 
0 0 0 0 0 0 0 0 0 
0 0 0 0 0 0 0 0 0 
0 0 0 0 0 0 0 0 0 
0 0 0 0 0 0 0 0 0 

v 3 648 double
0 0 0.016670954928 0 0 0.0029576720152 0 0 0.019649170461 
0 0 0.056147292024 0 0 0.072893118041 0 0 0.065233347328 
0 0 0.071219931999 0 0 0.057461159522 0 0 0.018523204163 
0 0 0.010783984554 0 0 -0.0055110790649 0 0 0.0033887013431 
0 0 0.064074906362 0 0 0.019122069992 0 0 0.077483654956 
0 0 0.020412982708 0 0 0.080964040791 0 0 0.059261477557 
0 0 0.062357238906 0 0 0.061763438269 0 0 0.010574852661 
0 0 0.044071737005 0 0 0.0008729982501 0 0 -0.19728810589 
0 0 0.032728557642 0 0 0.055116531982 0 0 0.034205895491 
0 0 0.05894583457 0 0 0.053125232973 0 0 0.043275429473 
0 0 -0.018425844465 0 0 0.04683192018 0 0 -0.040712113884 
0 0 0.011205516678 0 0 -0.19604428212 0 0 0.033874594047 
0 0 0.058946912728 0 0 0.013898624594 0 0 0.0094522843135 
0 0 0.043207523241 0 0 -0.030070349144 0 0 0.0020222446687 
0 0 0.0091492363472 0 0 -0.0040787117928 0 0 0.067429685241 
0 0 0.0068828922569 0 0 -0.045342789547 0 0 -0.0025648123262 
0 0 0.060404565424 0 0 -0.21471877086 0 0 0.048234766915 
0 0 -0.023281480277 0 0 0.065783833199 0 0 0.030997243263 
0 0 0.0076355715981 0 0 0.049720489714 0 0 0.010027319843 
0 0 0.085799424765 0 0 0.022909331282 0 0 0.044688353311 
0 0 0.037496082436 0 0 0.00032424669128 0 0 -0.0038506417594 
0 0 -0.2161530095 0 0 0.06899976317 0 0 -0.047564819627 
0 0 0.052190477813 0 0 0.053823692595 0 0 -0.0369963386 
0 0 0.025692282813 0 0 0.084904877285 0 0 0.036481899761 
0 0 -0.013944380997 0 0 -0.19765895726 0 0 0.045625307107 
0 0 -0.013487822898 0 0 0.053468045579 0 0 -0.04949666255 
0 0 -0.03953330506 0 0 -0.036060670595 0 0 -0.00057670678995 
0 0 -0.0056347180885 0 0 -0.068289773279 0 0 0.0072962054067 
0 0 0.02382881859 0 0 -0.21602253511 0 0 -0.050194090677 
0 0 0.050139760703 0 0 0.048669315503 0 0 0.017557211282 
0 0 0.0017667592032 0 0 0.020797800765 0 0 0.0334448432 
0 0 -0.047865467397 0 0 0.050961262976 0 0 -0.010498055345 
0 0 0.035207033038 0 0 -0.017951705715 0 0 -0.060139653927 
0 0 -0.042245825861 0 0 -0.053551205293 0 0 -0.028404258961 
0 0 0.051025847303 0 0 0.064484722769 0 0 0.036566119301 
0 0 0.044091298893 0 0 -0.050509975169 0 0 -0.03708576629 
0 0 0.0038422396156 0 0 -0.21660020503 0 0 0.049200556397 
0 0 0.019452288109 0 0 -0.043487820212 0 0 -0.032946595992 
0 0 -0.047481364948 0 0 -0.2299436193 0 0 0.090102034834 
0 0 -0.2174070344 0 0 0.073905666698 0 0 -0.21638712531 
0 0 0.087182523871 0 0 -0.014919554071 0 0 0.05774380925 
0 0 0.026578385839 0 0 0.04838328482 0 0 0.040715337214 
0 0 0.0082899511509 0 0 0.045567729811 0 0 0.05156779386 
0 0 0.0012702378997 0 0 -0.010981698807 0 0 0.048803128614 
0 0 -0.020951568813 0 0 0.037951635263 0 0 0.040640466976 
0 0 0.012782306792 0 0 0.049153564474 0 0 -0.026684463383 
0 0 -0.21574400988 0 0 -0.18891722694 0 0 0.011816917503 
0 0 -0.018239618501 0 0 0.0088709580462 0 0 -0.00043006974385 
0 0 -0.18745872714 0 0 0.019326057968 0 0 -0.19052820104 
0 0 -0.0029088617108 0 0 -0.19406272613 0 0 -0.022229816179 
0 0 -0.0041543245836 0 0 0.023568954748 0 0 -0.0089626155168 
0 0 -0.20810421003 0 0 0.031582036347 0 0 -0.21089450193 
0 0 -0.031700961948 0 0 3.392513037e-06 0 0 0.032936576038 
0 0 -0.18416426892 0 0 -0.20755002527 0 0 0.055868609329 
0 0 0.033414850199 0 0 -0.18520431626 0 0 -0.20894890082 
0 0 0.031332851232 0 0 -0.18817217749 0 0 0.0045712305018 
0 0 -0.021154289654 0 0 -0.18470005477 0 0 0.023267482375 
0 0 -0.19825478303 0 0 0.021000329382 0 0 0.0068185491664 
0 0 0.01505955194 0 0 -0.20841939647 0 0 0.039118809025 
0 0 0.016264453592 0 0 -0.18295897835 0 0 -0.19067557624 
0 0 -0.18596791379 0 0 0.016249254357 0 0 -0.19007036244 
0 0 -0.031446388822 0 0 -0.21458193911 0 0 -0.21817647087 
0 0 -0.010937478907 0 0 -0.20862832335 0 0 -0.20182163487 
0 0 -0.19849597544 0 0 -0.20830583726 0 0 -0.2025375661 
0 0 -0.20440897984 0 0 -0.17693590776 0 0 -0.20090946601 
0 0 -0.20852200302 0 0 -0.21425434997 0 0 -0.17454819804 
0 0 -0.15396720647 0 0 -0.1994757758 0 0 -0.18097960842 
0 0 -0.17785789595 0 0 -0.17365684851 0 0 -0.18579822011 
0 0 -0.18131513029 0 0 -0.20242281145 0 0 -0.17376599259 
0 0 -0.18833915407 0 0 -0.17757997025 0 0 -0.18573099558 
0 0 -0.19975074307 0 0 -0.19608032222 0 0 -0.19754460313 
0 0 -0.18937862579 0 0 -0.13747194981 0 0 -0.19604472007 
0 0 -0.16953685288 0 0 -0.19037553766 0 0 -0.19077551405 
0 0 -0.1672935268 0 0 -0.12585983208 0 0 -0.14479989953 
0 0 -0.19543514289 0 0 -0.19964606989 0 0 -0.1989002357 
0 0 -0.11153543789 0 0 -0.17090192976 0 0 -0.19799910622 
0 0 -0.17137235859 0 0 -0.18970191482 0 0 -0.19375089795 
0 0 -0.16872225183 0 0 -0.21742276837 0 0 -0.19994854739 
0 0 -0.16335735962 0 0 -0.18274284492 0 0 -0.17978902484 
0 0 -0.18433735777 0 0 -0.12144002718 0 0 -0.18289324919 
0 0 -0.19657414998 0 0 -0.10775158347 0 0 -0.16418241745 
0 0 -0.15736325602 0 0 -0.20333478661 0 0 -0.091471955491 
0 0 -0.16140053055 0 0 -0.15920644677 0 0 -0.15991129083 
0 0 -0.18307563446 0 0 -0.18254689336 0 0 -0.18715310733 
0 0 -0.1575202082 0 0 -0.18032296786 0 0 -0.19113487078 
0 0 -0.18609080423 0 0 -0.1477707342 0 0 -0.18685167782 
0 0 -0.16865669601 0 0 -0.16852801615 0 0 -0.18815852996 
0 0 -0.17006065696 0 0 -0.15207801315 0 0 -0.086299268001 
0 0 -0.17945318077 0 0 -0.14454654627 0 0 -0.15193904625 
0 0 -0.17936399177 0 0 -0.18429776441 0 0 -0.14952144194 
0 0 -0.19997736311 0 0 -0.1820505359 0 0 -0.11163504851 
0 0 -0.14726222853 0 0 -0.17588418312 0 0 -0.17819016925 
0 0 -0.1868880442 0 0 -0.1392583969 0 0 -0.17838469712 
0 0 -0.18133514262 0 0 -0.15014625239 0 0 -0.17658856329 
0 0 -0.17252623381 0 0 -0.13189610807 0 0 -0.17262099092 
0 0 -0.14229193312 0 0 -0.17549245413 0 0 -0.17406484143 
0 0 -0.14243439189 0 0 -0.14407901791 0 0 -0.14017992494 
0 0 -0.13273970905 0 0 -0.13672929856 0 0 -0.067857675967 
0 0 -0.098344299436 0 0 -0.16555226256 0 0 -0.18864262386 
0 0 -0.16280403963 0 0 -0.13938936967 0 0 -0.17464142852 
0 0 -0.048416046713 0 0 -0.17396906924 0 0 -0.16658199868 
0 0 -0.13846588642 0 0 -0.077311099453 0 0 -0.13889134812 
0 0 -0.13794567877 0 0 -0.1710958181 0 0 -0.18372746025 
0 0 -0.16793907411 0 0 -0.069614278047 0 0 -0.17136012013 
0 0 -0.079695366758 0 0 -0.16912583474 0 0 -0.16567234087 
0 0 -0.13285644951 0 0 -0.16398903925 0 0 -0.14533588688 
0 0 -0.13655695368 0 0 -0.1636596747 0 0 -0.1318330828 
0 0 -0.16930507242 0 0 -0.13102993373 0 0 -0.14090612047 
0 0 -0.16269651495 0 0 -0.16442574664 0 0 -0.14960138516 
0 0 -0.16758173209 0 0 -0.15347666718 0 0 -0.16477333674 
0 0 -0.1247072106 0 0 -0.12233288943 0 0 -0.071239850778 
0 0 -0.11964042661 0 0 -0.03578753965 0 0 -0.13623354336 
0 0 -0.13203427179 0 0 -0.14881291854 0 0 -0.13086003003 
0 0 -0.15601958651 0 0 -0.15379175063 0 0 -0.16001148976 
0 0 0.17420151278 0 0 -0.15409293182 0 0 -0.15734494869 
0 0 -0.14886070025 0 0 0.13997742398 0 0 -0.1242750839 
0 0 -0.1172615352 0 0 -0.15654410745 0 0 -0.12146980519 
0 0 -0.12941274392 0 0 -0.14990714543 0 0 -0.14924388158 
0 0 -0.11544064254 0 0 -0.13115452157 0 0 -0.12100440739 
0 0 0.082361188889 0 0 -0.15353934712 0 0 -0.090035867539 
0 0 -0.14466496139 0 0 -0.14804230482 0 0 0.027459150457 
0 0 -0.14150609458 0 0 0.15484996973 0 0 -0.14329235652 
0 0 0.18630439355 0 0 -0.11896436449 0 0 0.15713238299 
0 0 -0.13867878109 0 0 -0.16071151628 0 0 -0.14559164539 
0 0 -0.15249589935 0 0 -0.093392162674 0 0 -0.10752884869 
0 0 -0.069045929839 0 0 -0.14722621218 0 0 -0.14716349011 
0 0 -0.14374003223 0 0 -0.1428910269 0 0 0.15860056041 
0 0 -0.14141976886 0 0 -0.056771327439 0 0 -0.14763890913 
0 0 -0.027487051148 0 0 -0.14480208304 0 0 0.0020135655122 
0 0 -0.14923338832 0 0 -0.078692482097 0 0 -0.076693932574 
0 0 -0.13077136609 0 0 -0.14472303245 0 0 -0.14672871506 
0 0 -0.1181546834 0 0 -0.10750280123 0 0 -0.01932690394 
0 0 -0.030607943385 0 0 -0.10298862291 0 0 -0.11332056886 
0 0 -0.12180236799 0 0 0.10548196469 0 0 -0.14937923818 
0 0 -0.01071244985 0 0 -0.039318117329 0 0 -0.13659886666 
0 0 -0.13234209605 0 0 -0.10670536167 0 0 -0.12945327784 
0 0 0.11676533454 0 0 -0.0036695243246 0 0 0.10972136663 
0 0 -0.11300769878 0 0 0.079942773229 0 0 -0.13026716595 
0 0 -0.14175402813 0 0 -0.12834796142 0 0 -0.14090739388 
0 0 -0.10362433356 0 0 -0.14116773487 0 0 -0.1391253368 
0 0 -0.1316395208 0 0 -0.13125202842 0 0 -0.13908898542 
0 0 -0.14301070858 0 0 -0.10447136086 0 0 -0.12622662011 
0 0 0.13349765905 0 0 -0.027480831517 0 0 -0.096266889722 
0 0 -0.13905879181 0 0 -0.071434824743 0 0 -0.13136196514 
0 0 -0.13865450599 0 0 -0.10022344893 0 0 -0.13484131025 
0 0 -0.13429191213 0 0 -0.0019000686267 0 0 -0.12677621208 
0 0 0.141567768 0 0 -0.13885892561 0 0 -0.16764241923 
0 0 -0.10148688353 0 0 -0.14097815616 0 0 0.12383441911 
0 0 -0.11149872751 0 0 0.072797732835 0 0 0.13407962169 
0 0 -0.13808119833 0 0 -0.12767885723 0 0 -0.14477873409 
0 0 -0.13270575893 0 0 -0.135319981 0 0 0.069461375854 
0 0 -0.0070060055764 0 0 -0.12967381863 0 0 -0.13185222795 
0 0 -0.13792736851 0 0 -0.077045846362 0 0 -0.076782317017 
0 0 -0.12385984971 0 0 -0.018385010909 0 0 -0.13572775312 
0 0 -0.11407468063 0 0 -0.12417515052 0 0 0.042194798146 
0 0 -0.063140888182 0 0 -0.062245561947 0 0 -0.11326150118 
0 0 -0.11508509143 0 0 -0.1260374987 0 0 -0.060255970484 
0 0 0.12678292434 0 0 -0.10631174915 0 0 -0.11966701034 
0 0 0.10956564817 0 0 -0.1256324031 0 0 -0.06456325445 
0 0 -0.10159304372 0 0 -0.126229098 0 0 -0.12707835267 
0 0 -0.081181441675 0 0 0.014864927595 0 0 -0.11631327724 
0 0 -0.12285862319 0 0 -0.093641503673 0 0 -0.11789445833 
0 0 -0.018454334765 0 0 0.10654017079 0 0 0.072469162706 
0 0 -0.1269705178 0 0 -0.12248251361 0 0 -0.11674970704 
0 0 -0.10142874867 0 0 0.062059764739 0 0 -0.11374228904 
0 0 -0.10420298518 0 0 -0.10788634724 0 0 -0.096100434047 
0 0 -0.063208844541 0 0 0.07219048616 0 0 -0.1183650221 
0 0 -0.094077645983 0 0 -0.053914210932 0 0 -0.015536268595 
0 0 -0.099301130014 0 0 0.0579191842 0 0 0.01476254389 
0 0 0.010931806193 0 0 -0.09893033198 0 0 -0.086937224355 
0 0 0.12531195153 0 0 -0.10642074379 0 0 -0.11527054693 
0 0 0.00099025153482 0 0 -0.098179114837 0 0 -0.049500608744 
0 0 -0.11005571844 0 0 -0.11324648969 0 0 -0.10273051105 
0 0 -0.10679984043 0 0 -0.11169137772 0 0 -0.10532741457 
0 0 -0.10837383081 0 0 0.067320826199 0 0 -0.099448907066 
0 0 0.027028627313 0 0 -0.11067855304 0 0 -0.14557573557 
0 0 0.050857886533 0 0 0.09663354909 0 0 -0.11664513339 
0 0 -0.098323029905 0 0 -0.12721138426 0 0 0.025862926063 
0 0 -0.1129595381 0 0 -0.068557234406 0 0 -0.016771657685 
0 0 -0.10297593984 0 0 0.00070176567206 0 0 -0.1053967928 
0 0 -0.10897202401 0 0 -0.11054885419 0 0 -0.07560073413 
0 0 0.12265946253 0 0 0.062267159396 0 0 -0.10096004734 
0 0 -0.090330343532 0 0 0.10545923907 0 0 -0.095157650472 
0 0 -0.052872076449 0 0 -0.049893422357 0 0 -0.11480724251 
0 0 0.046660755404 0 0 -0.093282178178 0 0 0.039669751841 
0 0 -0.088318621087 0 0 -0.11012351346 0 0 -0.019841641804 
0 0 0.025264345346 0 0 -0.085465682049 0 0 -0.089079089052 
0 0 -0.09606648518 0 0 0.021293663172 0 0 -0.10409294638 
0 0 0.027360885315 0 0 0.040445737281 0 0 0.11174327241 
0 0 -0.0054958971854 0 0 0.095168762055 0 0 0.090852599137 
0 0 -0.083545120489 0 0 -0.097576406729 0 0 -0.091566299266 
0 0 -0.091280810898 0 0 -0.12058436001 0 0 -0.11602577164 
0 0 0.044601423115 0 0 -0.093219066413 0 0 -0.0013570574199 
0 0 -0.090527057306 0 0 -0.088414604018 0 0 -0.093145576423 
0 0 -0.011483131516 0 0 -0.094545965969 0 0 -0.044591729024 
0 0 0.0053026449051 0 0 -0.018389355855 0 0 -0.089923719592 
0 0 0.070534024642 0 0 -0.096321435529 0 0 0.025922856701 
0 0 -0.084812640349 0 0 -0.0740509973 0 0 -0.071510126298 
0 0 -0.075814009117 0 0 -0.084858665392 0 0 -0.086818802726 
0 0 -0.044201653135 0 0 -0.078100928088 0 0 -0.0033583992545 
0 0 -0.082698814648 0 0 -0.070281910233 0 0 0.034101872585 
0 0 -0.048389527762 0 0 -0.010184412947 0 0 -0.051243529712 
0 0 0.064452763222 0 0 -0.017210856983 0 0 -0.082147739353 
0 0 0.017836765012 0 0 -0.080300145018 0 0 -0.078163175491 
0 0 -0.07526734607 0 0 -0.14630553495 0 0 -0.082251564527 
0 0 -0.082156902205 0 0 -0.079599769856 0 0 0.13986717133 
0 0 -0.081129330054 0 0 -0.083381895715 0 0 -0.071509446967 
0 0 0.042141722134 0 0 0.031834289636 0 0 0.06530633856 
0 0 -0.086754338859 0 0 -0.088333814122 0 0 -0.025719057433 
0 0 -0.073122286988 0 0 -0.075178582332 0 0 -0.07406489661 
0 0 0.026199684632 0 0 -0.069585527896 0 0 -0.069311885722 
0 0 -0.07346391918 0 0 -0.059746034921 0 0 -0.07017452226 
0 0 -0.060968654921 0 0 -0.085048826118 0 0 -0.079201596857 
0 0 -0.055575454502 0 0 -0.047311095181 0 0 -0.077408407827 
0 0 -0.0762158538 0 0 -0.047009140589 0 0 -0.05550732405 
0 0 -0.04362033896 0 0 0.022804139916 0 0 -0.026245045784 

f 3 648 double
0 0 -1.7425367252e-10 0 0 -1.7425367252e-10 0 0 -1.7425367252e-10 
0 0 -1.7425367252e-10 0 0 -1.7425367252e-10 0 0 -1.7425367252e-10 
0 0 -1.7425367252e-10 0 0 -1.7425367252e-10 0 0 -1.7425367252e-10 
0 0 -1.7425367252e-10 0 0 -1.7425367252e-10 0 0 -1.7425367252e-10 
0 0 -1.7425367252e-10 0 0 -1.7425367252e-10 0 0 -1.7425367252e-10 
0 0 -1.7425367252e-10 0 0 -1.7425367252e-10 0 0 -1.7425367252e-10 
0 0 -1.7425367252e-10 0 0 -1.7425367252e-10 0 0 -1.7425367252e-10 
0 0 -1.7425367252e-10 0 0 -1.7425367252e-10 0 0 -1.7425367252e-10 
0 0 -1.7425367252e-10 0 0 -1.7425367252e-10 0 0 -1.7425367252e-10 
0 0 -1.7425367252e-10 0 0 -1.7425367252e-10 0 0 -1.7425367252e-10 
0 0 -1.7425367252e-10 0 0 -1.7425367252e-10 0 0 -1.7425367252e-10 
0 0 -1.7425367252e-10 0 0 -1.7425367252e-10 0 0 -1.7425367252e-10 
0 0 -1.7425367252e-10 0 0 -1.7425367252e-10 0 0 -1.7425367252e-10 
0 0 -1.7425367252e-10 0 0 -1.7425367252e-10 0 0 -1.7425367252e-10 
0 0 -1.7425367252e-10 0 0 -1.7425367252e-10 0 0 -1.7425367252e-10 
0 0 -1.7425367252e-10 0 0 -1.7425367252e-10 0 0 -1.7425367252e-10 
0 0 -1.7425367252e-10 0 0 -1.7425367252e-10 0 0 -1.7425367252e-10 
0 0 -1.7425367252e-10 0 0 -1.7425367252e-10 0 0 -1.7425367252e-10 
0 0 -1.7425367252e-10 0 0 -1.7425367252e-10 0 0 -1.7425367252e-10 
0 0 -1.7425367252e-10 0 0 -1.7425367252e-10 0 0 -1.7425367252e-10 
0 0 -1.7425367252e-10 0 0 -1.7425367252e-10 0 0 -1.7425367252e-10 
0 0 -1.7425367252e-10 0 0 -1.7425367252e-10 0 0 -1.7425367252e-10 
0 0 -1.7425367252e-10 0 0 -1.7425367252e-10 0 0 -1.7425367252e-10 
0 0 -1.7425367252e-10 0 0 -8.9019973083e-09 0 0 -1.7425367252e-10 
0 0 -1.7425367252e-10 0 0 -1.7425367252e-10 0 0 -1.7425367252e-10 
0 0 -1.7425367252e-10 0 0 -1.7425367252e-10 0 0 -1.7425367252e-10 
0 0 -1.7425367252e-10 0 0 -1.7425367252e-10 0 0 -1.7425367252e-10 
0 0 -1.7425367252e-10 0 0 -1.7425367252e-10 0 0 -1.7425367252e-10 
0 0 -1.7425367252e-10 0 0 -1.7425367252e-10 0 0 -1.7425367252e-10 
0 0 -1.7425367252e-10 0 0 -1.7425367252e-10 0 0 -1.7425367252e-10 
0 0 -1.7425367252e-10 0 0 -1.7425367252e-10 0 0 -1.7425367252e-10 
0 0 -1.7425367252e-10 0 0 -1.7425367252e-10 0 0 -1.7425367252e-10 
0 0 -1.7425367252e-10 0 0 -1.7425367252e-10 0 0 -1.7425367252e-10 
0 0 -1.7425367252e-10 0 0 -1.7425367252e-10 0 0 -1.7425367252e-10 
0 0 -1.7425367252e-10 0 0 -1.7425367252e-10 0 0 -1.7425367252e-10 
0 0 -1.7425367252e-10 0 0 -1.7425367252e-10 0 0 -1.7425367252e-10 
0 0 -1.7425367252e-10 0 0 -1.7425367252e-10 0 0 -1.7425367252e-10 
0 0 -1.7425367252e-10 0 0 -1.7425367252e-10 0 0 -1.7425367252e-10 
0 0 -1.7425367252e-10 0 0 -8.9019973083e-09 0 0 -8.9019973083e-09 
0 0 -1.7425367252e-10 0 0 -1.7425367252e-10 0 0 -1.7425367252e-10 
0 0 -1.7425367252e-10 0 0 -1.7425367252e-10 0 0 -1.7425367252e-10 
0 0 -1.7425367252e-10 0 0 -1.7425367252e-10 0 0 -1.7425367252e-10 
0 0 -1.7425367252e-10 0 0 -1.7425367252e-10 0 0 -1.7425367252e-10 
0 0 -1.7425367252e-10 0 0 -1.7425367252e-10 0 0 -1.7425367252e-10 
0 0 -1.7425367252e-10 0 0 -1.7425367252e-10 0 0 -1.7425367252e-10 
0 0 -1.7425367252e-10 0 0 -1.7425367252e-10 0 0 -1.7425367252e-10 
0 0 -1.7425367252e-10 0 0 -1.7425367252e-10 0 0 -1.7425367252e-10 
0 0 -1.7425367252e-10 0 0 -1.7425367252e-10 0 0 -1.7425367252e-10 
0 0 -1.7425367252e-10 0 0 -1.7425367252e-10 0 0 -1.7425367252e-10 
0 0 -1.7425367252e-10 0 0 -1.7425367252e-10 0 0 -1.7425367252e-10 
0 0 -1.7425367252e-10 0 0 -1.7425367252e-10 0 0 -1.7425367252e-10 
0 0 -1.7425367252e-10 0 0 -1.7425367252e-10 0 0 -1.7425367252e-10 
0 0 -1.7425367252e-10 0 0 -1.7425367252e-10 0 0 -1.7425367252e-10 
0 0 -1.7425367252e-10 0 0 -1.7425367252e-10 0 0 -8.9019973083e-09 
0 0 -1.7425367252e-10 0 0 -1.7425367252e-10 0 0 -1.7425367252e-10 
0 0 -1.7425367252e-10 0 0 -1.7425367252e-10 0 0 -1.7425367252e-10 
0 0 -1.7425367252e-10 0 0 -1.7425367252e-10 0 0 -1.7425367252e-10 
0 0 -1.7425367252e-10 0 0 -1.7425367252e-10 0 0 -1.7425367252e-10 
0 0 -1.7425367252e-10 0 0 -1.7425367252e-10 0 0 -1.7425367252e-10 
0 0 -1.7425367252e-10 0 0 -1.7425367252e-10 0 0 -1.7425367252e-10 
0 0 -1.7425367252e-10 0 0 -1.7425367252e-10 0 0 -1.7425367252e-10 
0 0 -1.7425367252e-10 0 0 -1.7425367252e-10 0 0 -1.7425367252e-10 
0 0 -1.7425367252e-10 0 0 -1.7425367252e-10 0 0 -1.7425367252e-10 
0 0 -1.7425367252e-10 0 0 -1.7425367252e-10 0 0 -1.7425367252e-10 
0 0 -1.7425367252e-10 0 0 -1.7425367252e-10 0 0 -1.7425367252e-10 
0 0 -1.7425367252e-10 0 0 -8.9019973083e-09 0 0 -1.7425367252e-10 
0 0 -1.7425367252e-10 0 0 -1.7425367252e-10 0 0 -1.7425367252e-10 
0 0 -1.7425367252e-10 0 0 -1.7425367252e-10 0 0 -1.7425367252e-10 
0 0 -1.7425367252e-10 0 0 -1.7425367252e-10 0 0 -1.7425367252e-10 
0 0 -1.7425367252e-10 0 0 -1.7425367252e-10 0 0 -1.7425367252e-10 
0 0 -1.7425367252e-10 0 0 -1.7425367252e-10 0 0 -1.7425367252e-10 
0 0 -1.7425367252e-10 0 0 -1.7425367252e-10 0 0 -1.7425367252e-10 
0 0 -1.7425367252e-10 0 0 -1.7425367252e-10 0 0 -1.7425367252e-10 
0 0 -1.7425367252e-10 0 0 -1.7425367252e-10 0 0 -1.7425367252e-10 
0 0 -1.7425367252e-10 0 0 -1.7425367252e-10 0 0 -1.7425367252e-10 
0 0 -1.7425367252e-10 0 0 -1.7425367252e-10 0 0 -1.7425367252e-10 
0 0 -1.7425367252e-10 0 0 -1.7425367252e-10 0 0 -1.7425367252e-10 
0 0 -1.7425367252e-10 0 0 -8.9019973083e-09 0 0 -1.7425367252e-10 
0 0 -1.7425367252e-10 0 0 -1.7425367252e-10 0 0 -1.7425367252e-10 
0 0 -1.7425367252e-10 0 0 -1.7425367252e-10 0 0 -1.7425367252e-10 
0 0 -1.7425367252e-10 0 0 -1.7425367252e-10 0 0 -1.7425367252e-10 
0 0 -1.7425367252e-10 0 0 -8.9019973083e-09 0 0 -1.7425367252e-10 
0 0 -1.7425367252e-10 0 0 -1.7425367252e-10 0 0 -1.7425367252e-10 
0 0 -1.7425367252e-10 0 0 -1.7425367252e-10 0 0 -1.7425367252e-10 
0 0 -1.7425367252e-10 0 0 -1.7425367252e-10 0 0 -1.7425367252e-10 
0 0 -1.7425367252e-10 0 0 -1.7425367252e-10 0 0 -1.7425367252e-10 
0 0 -1.7425367252e-10 0 0 -1.7425367252e-10 0 0 -1.7425367252e-10 
0 0 -1.7425367252e-10 0 0 -1.7425367252e-10 0 0 -1.7425367252e-10 
0 0 -1.7425367252e-10 0 0 -1.7425367252e-10 0 0 -1.7425367252e-10 
0 0 -1.7425367252e-10 0 0 -1.7425367252e-10 0 0 -1.7425367252e-10 
0 0 -8.9019973083e-09 0 0 -1.7425367252e-10 0 0 -1.7425367252e-10 
0 0 -1.7425367252e-10 0 0 -1.7425367252e-10 0 0 -1.7425367252e-10 
0 0 -1.7425367252e-10 0 0 -1.7425367252e-10 0 0 -1.7425367252e-10 
0 0 -1.7425367252e-10 0 0 -1.7425367252e-10 0 0 -1.7425367252e-10 
0 0 -1.7425367252e-10 0 0 -1.7425367252e-10 0 0 -1.7425367252e-10 
0 0 -1.7425367252e-10 0 0 -1.7425367252e-10 0 0 -1.7425367252e-10 
0 0 -1.7425367252e-10 0 0 -1.7425367252e-10 0 0 -1.7425367252e-10 
0 0 -1.7425367252e-10 0 0 -1.7425367252e-10 0 0 -1.7425367252e-10 
0 0 -1.7425367252e-10 0 0 -1.7425367252e-10 0 0 -8.9019973083e-09 
0 0 -1.7425367252e-10 0 0 -1.7425367252e-10 0 0 -1.7425367252e-10 
0 0 -1.7425367252e-10 0 0 -1.7425367252e-10 0 0 -1.7425367252e-10 
0 0 -1.7425367252e-10 0 0 -1.7425367252e-10 0 0 -1.7425367252e-10 
0 0 -1.7425367252e-10 0 0 -1.7425367252e-10 0 0 -8.9019973083e-09 
0 0 -1.7425367252e-10 0 0 -1.7425367252e-10 0 0 -1.7425367252e-10 
0 0 -1.7425367252e-10 0 0 -1.7425367252e-10 0 0 -1.7425367252e-10 
0 0 -1.7425367252e-10 0 0 -1.7425367252e-10 0 0 -1.7425367252e-10 
0 0 -1.7425367252e-10 0 0 -1.7425367252e-10 0 0 -1.7425367252e-10 
0 0 -1.7425367252e-10 0 0 -1.7425367252e-10 0 0 -1.7425367252e-10 
0 0 -1.7425367252e-10 0 0 -1.7425367252e-10 0 0 -1.7425367252e-10 
0 0 -1.7425367252e-10 0 0 -1.7425367252e-10 0 0 -1.7425367252e-10 
0 0 -1.7425367252e-10 0 0 -1.7425367252e-10 0 0 -1.7425367252e-10 
0 0 -1.7425367252e-10 0 0 -1.7425367252e-10 0 0 -1.7425367252e-10 
0 0 -1.7425367252e-10 0 0 -1.7425367252e-10 0 0 -1.7425367252e-10 
0 0 -1.7425367252e-10 0 0 -1.7425367252e-10 0 0 -1.7425367252e-10 
0 0 -1.7425367252e-10 0 0 -1.7425367252e-10 0 0 -1.7425367252e-10 
0 0 -1.7425367252e-10 0 0 -1.7425367252e-10 0 0 -1.7425367252e-10 
0 0 -1.7425367252e-10 0 0 -1.7425367252e-10 0 0 -1.7425367252e-10 
0 0 -1.7425367252e-10 0 0 -1.7425367252e-10 0 0 -1.7425367252e-10 
0 0 -1.7425367252e-10 0 0 -1.7425367252e-10 0 0 -1.7425367252e-10 
0 0 -1.7425367252e-10 0 0 -1.7425367252e-10 0 0 -1.7425367252e-10 
0 0 -1.7425367252e-10 0 0 -1.7425367252e-10 0 0 -1.7425367252e-10 
0 0 -1.7425367252e-10 0 0 -1.7425367252e-10 0 0 -1.7425367252e-10 
0 0 -1.7425367252e-10 0 0 -1.7425367252e-10 0 0 -1.7425367252e-10 
0 0 -1.7425367252e-10 0 0 -1.7425367252e-10 0 0 -1.7425367252e-10 
0 0 -1.7425367252e-10 0 0 -1.7425367252e-10 0 0 -1.7425367252e-10 
0 0 -1.7425367252e-10 0 0 -1.7425367252e-10 0 0 -1.7425367252e-10 
0 0 -1.7425367252e-10 0 0 -1.7425367252e-10 0 0 -1.7425367252e-10 
0 0 -1.7425367252e-10 0 0 -1.7425367252e-10 0 0 -1.7425367252e-10 
0 0 -1.7425367252e-10 0 0 -1.7425367252e-10 0 0 -1.7425367252e-10 
0 0 -1.7425367252e-10 0 0 -1.7425367252e-10 0 0 -1.7425367252e-10 
0 0 -1.7425367252e-10 0 0 -1.7425367252e-10 0 0 -1.7425367252e-10 
0 0 -1.7425367252e-10 0 0 -1.7425367252e-10 0 0 -1.7425367252e-10 
0 0 -1.7425367252e-10 0 0 -1.7425367252e-10 0 0 -1.7425367252e-10 
0 0 -1.7425367252e-10 0 0 -1.7425367252e-10 0 0 -1.7425367252e-10 
0 0 -1.7425367252e-10 0 0 -1.7425367252e-10 0 0 -1.7425367252e-10 
0 0 -1.7425367252e-10 0 0 -1.7425367252e-10 0 0 -1.7425367252e-10 
0 0 -1.7425367252e-10 0 0 -1.7425367252e-10 0 0 -1.7425367252e-10 
0 0 -1.7425367252e-10 0 0 -1.7425367252e-10 0 0 -1.7425367252e-10 
0 0 -1.7425367252e-10 0 0 -1.7425367252e-10 0 0 -1.7425367252e-10 
0 0 -1.7425367252e-10 0 0 -1.7425367252e-10 0 0 -1.7425367252e-10 
0 0 -1.7425367252e-10 0 0 -1.7425367252e-10 0 0 -1.7425367252e-10 
0 0 -1.7425367252e-10 0 0 -1.7425367252e-10 0 0 -1.7425367252e-10 
0 0 -1.7425367252e-10 0 0 -1.7425367252e-10 0 0 -1.7425367252e-10 
0 0 -1.7425367252e-10 0 0 -1.7425367252e-10 0 0 -1.7425367252e-10 
0 0 -1.7425367252e-10 0 0 -1.7425367252e-10 0 0 -1.7425367252e-10 
0 0 -1.7425367252e-10 0 0 -1.7425367252e-10 0 0 -1.7425367252e-10 
0 0 -1.7425367252e-10 0 0 -1.7425367252e-10 0 0 -8.9019973083e-09 
0 0 -1.7425367252e-10 0 0 -1.7425367252e-10 0 0 -1.7425367252e-10 
0 0 -1.7425367252e-10 0 0 -1.7425367252e-10 0 0 -1.7425367252e-10 
0 0 -1.7425367252e-10 0 0 -1.7425367252e-10 0 0 -1.7425367252e-10 
0 0 -1.7425367252e-10 0 0 -1.7425367252e-10 0 0 -1.7425367252e-10 
0 0 -1.7425367252e-10 0 0 -1.7425367252e-10 0 0 -1.7425367252e-10 
0 0 -1.7425367252e-10 0 0 -1.7425367252e-10 0 0 -1.7425367252e-10 
0 0 -1.7425367252e-10 0 0 -1.7425367252e-10 0 0 -1.7425367252e-10 
0 0 -1.7425367252e-10 0 0 -1.7425367252e-10 0 0 -1.7425367252e-10 
0 0 -1.7425367252e-10 0 0 -1.7425367252e-10 0 0 -1.7425367252e-10 
0 0 -1.7425367252e-10 0 0 -1.7425367252e-10 0 0 -1.7425367252e-10 
0 0 -1.7425367252e-10 0 0 -1.7425367252e-10 0 0 -1.7425367252e-10 
0 0 -1.7425367252e-10 0 0 -1.7425367252e-10 0 0 -1.7425367252e-10 
0 0 -1.7425367252e-10 0 0 -1.7425367252e-10 0 0 -1.7425367252e-10 
0 0 -1.7425367252e-10 0 0 -1.7425367252e-10 0 0 -1.7425367252e-10 
0 0 -1.7425367252e-10 0 0 -1.7425367252e-10 0 0 -1.7425367252e-10 
0 0 -1.7425367252e-10 0 0 -1.7425367252e-10 0 0 -1.7425367252e-10 
0 0 -1.7425367252e-10 0 0 -1.7425367252e-10 0 0 -1.7425367252e-10 
0 0 -1.7425367252e-10 0 0 -1.7425367252e-10 0 0 -1.7425367252e-10 
0 0 -1.7425367252e-10 0 0 -1.7425367252e-10 0 0 -1.7425367252e-10 
0 0 -1.7425367252e-10 0 0 -1.7425367252e-10 0 0 -1.7425367252e-10 
0 0 -1.7425367252e-10 0 0 -1.7425367252e-10 0 0 -1.7425367252e-10 
0 0 -1.7425367252e-10 0 0 -1.7425367252e-10 0 0 -1.7425367252e-10 
0 0 -1.7425367252e-10 0 0 -1.7425367252e-10 0 0 -1.7425367252e-10 
0 0 -1.7425367252e-10 0 0 -1.7425367252e-10 0 0 -1.7425367252e-10 
0 0 -1.7425367252e-10 0 0 -1.7425367252e-10 0 0 -1.7425367252e-10 
0 0 -1.7425367252e-10 0 0 -1.7425367252e-10 0 0 -1.7425367252e-10 
0 0 -1.7425367252e-10 0 0 -1.7425367252e-10 0 0 -1.7425367252e-10 
0 0 -1.7425367252e-10 0 0 -1.7425367252e-10 0 0 -1.7425367252e-10 
0 0 -1.7425367252e-10 0 0 -1.7425367252e-10 0 0 -8.9019973083e-09 
0 0 -1.7425367252e-10 0 0 -1.7425367252e-10 0 0 -1.7425367252e-10 
0 0 -1.7425367252e-10 0 0 -1.7425367252e-10 0 0 -1.7425367252e-10 
0 0 -1.7425367252e-10 0 0 -1.7425367252e-10 0 0 -1.7425367252e-10 
0 0 -1.7425367252e-10 0 0 -1.7425367252e-10 0 0 -1.7425367252e-10 
0 0 -1.7425367252e-10 0 0 -1.7425367252e-10 0 0 -1.7425367252e-10 
0 0 -1.7425367252e-10 0 0 -1.7425367252e-10 0 0 -1.7425367252e-10 
0 0 -1.7425367252e-10 0 0 -8.9019973083e-09 0 0 -1.7425367252e-10 
0 0 -1.7425367252e-10 0 0 -1.7425367252e-10 0 0 -1.7425367252e-10 
0 0 -1.7425367252e-10 0 0 -1.7425367252e-10 0 0 -1.7425367252e-10 
0 0 -1.7425367252e-10 0 0 -1.7425367252e-10 0 0 -1.7425367252e-10 
0 0 -1.7425367252e-10 0 0 -1.7425367252e-10 0 0 -1.7425367252e-10 
0 0 -1.7425367252e-10 0 0 -1.7425367252e-10 0 0 -1.7425367252e-10 
0 0 -1.7425367252e-10 0 0 -1.7425367252e-10 0 0 -1.7425367252e-10 
0 0 -1.7425367252e-10 0 0 -1.7425367252e-10 0 0 -1.7425367252e-10 
0 0 -1.7425367252e-10 0 0 -1.7425367252e-10 0 0 -1.7425367252e-10 
0 0 -1.7425367252e-10 0 0 -1.7425367252e-10 0 0 -1.7425367252e-10 
0 0 -1.7425367252e-10 0 0 -1.7425367252e-10 0 0 -1.7425367252e-10 
0 0 -1.7425367252e-10 0 0 -1.7425367252e-10 0 0 -1.7425367252e-10 
0 0 -1.7425367252e-10 0 0 -1.7425367252e-10 0 0 -1.7425367252e-10 
0 0 -1.7425367252e-10 0 0 -1.7425367252e-10 0 0 -1.7425367252e-10 
0 0 -1.7425367252e-10 0 0 -1.7425367252e-10 0 0 -1.7425367252e-10 
0 0 -1.7425367252e-10 0 0 -1.7425367252e-10 0 0 -1.7425367252e-10 
0 0 -1.7425367252e-10 0 0 -1.7425367252e-10 0 0 -1.7425367252e-10 
0 0 -1.7425367252e-10 0 0 -1.7425367252e-10 0 0 -1.7425367252e-10 
0 0 -1.7425367252e-10 0 0 -1.7425367252e-10 0 0 -1.7425367252e-10 
0 0 -1.7425367252e-10 0 0 -1.7425367252e-10 0 0 -1.7425367252e-10 
0 0 -1.7425367252e-10 0 0 -1.7425367252e-10 0 0 -1.7425367252e-10 
0 0 -1.7425367252e-10 0 0 -1.7425367252e-10 0 0 -1.7425367252e-10 
0 0 -1.7425367252e-10 0 0 -6.8918688838e-08 0 0 -1.7425367252e-10 
0 0 -1.7425367252e-10 0 0 -1.7425367252e-10 0 0 -1.7425367252e-10 
0 0 -1.7425367252e-10 0 0 -1.7425367252e-10 0 0 -1.7425367252e-10 
0 0 -1.7425367252e-10 0 0 -1.7425367252e-10 0 0 -1.7425367252e-10 
0 0 -1.7425367252e-10 0 0 -1.7425367252e-10 0 0 -1.7425367252e-10 
0 0 -1.7425367252e-10 0 0 -1.7425367252e-10 0 0 -1.7425367252e-10 
0 0 -1.7425367252e-10 0 0 -1.7425367252e-10 0 0 -1.7425367252e-10 
0 0 -1.7425367252e-10 0 0 -1.7425367252e-10 0 0 -1.7425367252e-10 
0 0 -1.7425367252e-10 0 0 -1.7425367252e-10 0 0 -1.7425367252e-10 
0 0 -1.7425367252e-10 0 0 -8.9019973083e-09 0 0 -8.9019973083e-09 
0 0 -8.9019973083e-09 0 0 -1.7425367252e-10 0 0 -1.7425367252e-10 
0 0 -1.7425367252e-10 0 0 -8.9019973083e-09 0 0 -5.3297119368e-07 

radius 1 648 double
2e-05 2e-05 2e-05 2e-05 2e-05 2e-05 2e-05 2e-05 2e-05 
2e-05 2e-05 2e-05 2e-05 2e-05 2e-05 2e-05 2e-05 2e-05 
2e-05 2e-05 2e-05 2e-05 2e-05 2e-05 2e-05 2e-05 2e-05 
2e-05 2e-05 2e-05 2e-05 2e-05 2e-05 2e-05 2e-05 2e-05 
2e-05 2e-05 2e-05 2e-05 2e-05 2e-05 2e-05 2e-05 2e-05 
2e-05 2e-05 2e-05 2e-05 2e-05 2e-05 2e-05 2e-05 2e-05 
2e-05 2e-05 2e-05 2e-05 2e-05 2e-05 2e-05 2e-05 2e-05 
2e-05 2e-05 2e-05 2e-05 2e-05 2e-05 2e-05 7.5e-05 2e-05 
2e-05 2e-05 2e-05 2e-05 2e-05 2e-05 2e-05 2e-05 2e-05 
2e-05 2e-05 2e-05 2e-05 2e-05 2e-05 2e-05 2e-05 2e-05 
2e-05 2e-05 2e-05 2e-05 2e-05 2e-05 2e-05 2e-05 2e-05 
2e-05 2e-05 2e-05 2e-05 2e-05 2e-05 2e-05 2e-05 2e-05 
2e-05 2e-05 2e-05 2e-05 2e-05 2e-05 2e-05 7.5e-05 7.5e-05 
2e-05 2e-05 2e-05 2e-05 2e-05 2e-05 2e-05 2e-05 2e-05 
2e-05 2e-05 2e-05 2e-05 2e-05 2e-05 2e-05 2e-05 2e-05 
2e-05 2e-05 2e-05 2e-05 2e-05 2e-05 2e-05 2e-05 2e-05 
2e-05 2e-05 2e-05 2e-05 2e-05 2e-05 2e-05 2e-05 2e-05 
2e-05 2e-05 2e-05 2e-05 2e-05 2e-05 2e-05 2e-05 7.5e-05 
2e-05 2e-05 2e-05 2e-05 2e-05 2e-05 2e-05 2e-05 2e-05 
2e-05 2e-05 2e-05 2e-05 2e-05 2e-05 2e-05 2e-05 2e-05 
2e-05 2e-05 2e-05 2e-05 2e-05 2e-05 2e-05 2e-05 2e-05 
2e-05 2e-05 2e-05 2e-05 2e-05 2e-05 2e-05 7.5e-05 2e-05 
2e-05 2e-05 2e-05 2e-05 2e-05 2e-05 2e-05 2e-05 2e-05 
2e-05 2e-05 2e-05 2e-05 2e-05 2e-05 2e-05 2e-05 2e-05 
2e-05 2e-05 2e-05 2e-05 2e-05 2e-05 2e-05 2e-05 2e-05 
2e-05 2e-05 2e-05 2e-05 2e-05 2e-05 2e-05 7.5e-05 2e-05 
2e-05 2e-05 2e-05 2e-05 2e-05 2e-05 2e-05 2e-05 2e-05 
2e-05 7.5e-05 2e-05 2e-05 2e-05 2e-05 2e-05 2e-05 2e-05 
2e-05 2e-05 2e-05 2e-05 2e-05 2e-05 2e-05 2e-05 2e-05 
2e-05 2e-05 2e-05 2e-05 2e-05 2e-05 2e-05 2e-05 2e-05 
7.5e-05 2e-05 2e-05 2e-05 2e-05 2e-05 2e-05 2e-05 2e-05 
2e-05 2e-05 2e-05 2e-05 2e-05 2e-05 2e-05 2e-05 2e-05 
2e-05 2e-05 2e-05 2e-05 2e-05 2e-05 2e-05 2e-05 7.5e-05 
2e-05 2e-05 2e-05 2e-05 2e-05 2e-05 2e-05 2e-05 2e-05 
2e-05 2e-05 7.5e-05 2e-05 2e-05 2e-05 2e-05 2e-05 2e-05 
2e-05 2e-05 2e-05 2e-05 2e-05 2e-05 2e-05 2e-05 2e-05 
2e-05 2e-05 2e-05 2e-05 2e-05 2e-05 2e-05 2e-05 2e-05 
2e-05 2e-05 2e-05 2e-05 2e-05 2e-05 2e-05 2e-05 2e-05 
2e-05 2e-05 2e-05 2e-05 2e-05 2e-05 2e-05 2e-05 2e-05 
2e-05 2e-05 2e-05 2e-05 2e-05 2e-05 2e-05 2e-05 2e-05 
2e-05 2e-05 2e-05 2e-05 2e-05 2e-05 2e-05 2e-05 2e-05 
2e-05 2e-05 2e-05 2e-05 2e-05 2e-05 2e-05 2e-05 2e-05 
2e-05 2e-05 2e-05 2e-05 2e-05 2e-05 2e-05 2e-05 2e-05 
2e-05 2e-05 2e-05 2e-05 2e-05 2e-05 2e-05 2e-05 2e-05 
2e-05 2e-05 2e-05 2e-05 2e-05 2e-05 2e-05 2e-05 2e-05 
2e-05 2e-05 2e-05 2e-05 2e-05 2e-05 2e-05 2e-05 2e-05 
2e-05 2e-05 2e-05 2e-05 2e-05 2e-05 2e-05 2e-05 2e-05 
2e-05 2e-05 2e-05 2e-05 2e-05 2e-05 2e-05 2e-05 2e-05 
2e-05 2e-05 2e-05 2e-05 2e-05 2e-05 2e-05 2e-05 7.5e-05 
2e-05 2e-05 2e-05 2e-05 2e-05 2e-05 2e-05 2e-05 2e-05 
2e-05 2e-05 2e-05 2e-05 2e-05 2e-05 2e-05 2e-05 2e-05 
2e-05 2e-05 2e-05 2e-05 2e-05 2e-05 2e-05 2e-05 2e-05 
2e-05 2e-05 2e-05 2e-05 2e-05 2e-05 2e-05 2e-05 2e-05 
2e-05 2e-05 2e-05 2e-05 2e-05 2e-05 2e-05 2e-05 2e-05 
2e-05 2e-05 2e-05 2e-05 2e-05 2e-05 2e-05 2e-05 2e-05 
2e-05 2e-05 2e-05 2e-05 2e-05 2e-05 2e-05 2e-05 2e-05 
2e-05 2e-05 2e-05 2e-05 2e-05 2e-05 2e-05 2e-05 2e-05 
2e-05 2e-05 2e-05 2e-05 2e-05 2e-05 2e-05 2e-05 2e-05 
2e-05 2e-05 2e-05 2e-05 2e-05 7.5e-05 2e-05 2e-05 2e-05 
2e-05 2e-05 2e-05 2e-05 2e-05 2e-05 2e-05 2e-05 2e-05 
2e-05 2e-05 2e-05 2e-05 2e-05 2e-05 2e-05 7.5e-05 2e-05 
2e-05 2e-05 2e-05 2e-05 2e-05 2e-05 2e-05 2e-05 2e-05 
2e-05 2e-05 2e-05 2e-05 2e-05 2e-05 2e-05 2e-05 2e-05 
2e-05 2e-05 2e-05 2e-05 2e-05 2e-05 2e-05 2e-05 2e-05 
2e-05 2e-05 2e-05 2e-05 2e-05 2e-05 2e-05 2e-05 2e-05 
2e-05 2e-05 2e-05 2e-05 2e-05 2e-05 2e-05 2e-05 2e-05 
2e-05 2e-05 2e-05 2e-05 2e-05 2e-05 2e-05 2e-05 2e-05 
2e-05 2e-05 2e-05 2e-05 2e-05 2e-05 2e-05 2e-05 2e-05 
2e-05 0.00015 2e-05 2e-05 2e-05 2e-05 2e-05 2e-05 2e-05 
2e-05 2e-05 2e-05 2e-05 2e-05 2e-05 2e-05 2e-05 2e-05 
2e-05 2e-05 2e-05 2e-05 2e-05 2e-05 2e-05 2e-05 2e-05 
2e-05 7.5e-05 7.5e-05 7.5e-05 2e-05 2e-05 2e-05 7.5e-05 0.0003 

omega 3 648 double
0 0 0 0 0 0 0 0 0 
0 0 0 0 0 0 0 0 0 
0 0 0 0 0 0 0 0 0 
0 0 0 0 0 0 0 0 0 
0 0 0 0 0 0 0 0 0 
0 0 0 0 0 0 0 0 0 
0 0 0 0 0 0 0 0 0 
0 0 0 0 0 0 0 0 0 
0 0 0 0 0 0 0 0 0 
0 0 0 0 0 0 0 0 0 
0 0 0 0 0 0 0 0 0 
0 0 0 0 0 0 0 0 0 
0 0 0 0 0 0 0 0 0 
0 0 0 0 0 0 0 0 0 
0 0 0 0 0 0 0 0 0 
0 0 0 0 0 0 0 0 0 
0 0 0 0 0 0 0 0 0 
0 0 0 0 0 0 0 0 0 
0 0 0 0 0 0 0 0 0 
0 0 0 0 0 0 0 0 0 
0 0 0 0 0 0 0 0 0 
0 0 0 0 0 0 0 0 0 
0 0 0 0 0 0 0 0 0 
0 0 0 0 0 0 0 0 0 
0 0 0 0 0 0 0 0 0 
0 0 0 0 0 0 0 0 0 
0 0 0 0 0 0 0 0 0 
0 0 0 0 0 0 0 0 0 
0 0 0 0 0 0 0 0 0 
0 0 0 0 0 0 0 0 0 
0 0 0 0 0 0 0 0 0 
0 0 0 0 0 0 0 0 0 
0 0 0 0 0 0 0 0 0 
0 0 0 0 0 0 0 0 0 
0 0 0 0 0 0 0 0 0 
0 0 0 0 0 0 0 0 0 
0 0 0 0 0 0 0 0 0 
0 0 0 0 0 0 0 0 0 
0 0 0 0 0 0 0 0 0 
0 0 0 0 0 0 0 0 0 
0 0 0 0 0 0 0 0 0 
0 0 0 0 0 0 0 0 0 
0 0 0 0 0 0 0 0 0 
0 0 0 0 0 0 0 0 0 
0 0 0 0 0 0 0 0 0 
0 0 0 0 0 0 0 0 0 
0 0 0 0 0 0 0 0 0 
0 0 0 0 0 0 0 0 0 
0 0 0 0 0 0 0 0 0 
0 0 0 0 0 0 0 0 0 
0 0 0 0 0 0 0 0 0 
0 0 0 0 0 0 0 0 0 
0 0 0 0 0 0 0 0 0 
0 0 0 0 0 0 0 0 0 
0 0 0 0 0 0 0 0 0 
0 0 0 0 0 0 0 0 0 
0 0 0 0 0 0 0 0 0 
0 0 0 0 0 0 0 0 0 
0 0 0 0 0 0 0 0 0 
0 0 0 0 0 0 0 0 0 
0 0 0 0 0 0 0 0 0 
0 0 0 0 0 0 0 0 0 
0 0 0 0 0 0 0 0 0 
0 0 0 0 0 0 0 0 0 
0 0 0 0 0 0 0 0 0 
0 0 0 0 0 0 0 0 0 
0 0 0 0 0 0 0 0 0 
0 0 0 0 0 0 0 0 0 
0 0 0 0 0 0 0 0 0 
0 0 0 0 0 0 0 0 0 
0 0 0 0 0 0 0 0 0 
0 0 0 0 0 0 0 0 0 
0 0 0 0 0 0 0 0 0 
0 0 0 0 0 0 0 0 0 
0 0 0 0 0 0 0 0 0 
0 0 0 0 0 0 0 0 0 
0 0 0 0 0 0 0 0 0 
0 0 0 0 0 0 0 0 0 
0 0 0 0 0 0 0 0 0 
0 0 0 0 0 0 0 0 0 
0 0 0 0 0 0 0 0 0 
0 0 0 0 0 0 0 0 0 
0 0 0 0 0 0 0 0 0 
0 0 0 0 0 0 0 0 0 
0 0 0 0 0 0 0 0 0 
0 0 0 0 0 0 0 0 0 
0 0 0 0 0 0 0 0 0 
0 0 0 0 0 0 0 0 0 
0 0 0 0 0 0 0 0 0 
0 0 0 0 0 0 0 0 0 
0 0 0 0 0 0 0 0 0 
0 0 0 0 0 0 0 0 0 
0 0 0 0 0 0 0 0 0 
0 0 0 0 0 0 0 0 0 
0 0 0 0 0 0 0 0 0 
0 0 0 0 0 0 0 0 0 
0 0 0 0 0 0 0 0 0 
0 0 0 0 0 0 0 0 0 
0 0 0 0 0 0 0 0 0 
0 0 0 0 0 0 0 0 0 
0 0 0 0 0 0 0 0 0 
0 0 0 0 0 0 0 0 0 
0 0 0 0 0 0 0 0 0 
0 0 0 0 0 0 0 0 0 
0 0 0 0 0 0 0 0 0 
0 0 0 0 0 0 0 0 0 
0 0 0 0 0 0 0 0 0 
0 0 0 0 0 0 0 0 0 
0 0 0 0 0 0 0 0 0 
0 0 0 0 0 0 0 0 0 
0 0 0 0 0 0 0 0 0 
0 0 0 0 0 0 0 0 0 
0 0 0 0 0 0 0 0 0 
0 0 0 0 0 0 0 0 0 
0 0 0 0 0 0 0 0 0 
0 0 0 0 0 0 0 0 0 
0 0 0 0 0 0 0 0 0 
0 0 0 0 0 0 0 0 0 
0 0 0 0 0 0 0 0 0 
0 0 0 0 0 0 0 0 0 
0 0 0 0 0 0 0 0 0 
0 0 0 0 0 0 0 0 0 
0 0 0 0 0 0 0 0 0 
0 0 0 0 0 0 0 0 0 
0 0 0 0 0 0 0 0 0 
0 0 0 0 0 0 0 0 0 
0 0 0 0 0 0 0 0 0 
0 0 0 0 0 0 0 0 0 
0 0 0 0 0 0 0 0 0 
0 0 0 0 0 0 0 0 0 
0 0 0 0 0 0 0 0 0 
0 0 0 0 0 0 0 0 0 
0 0 0 0 0 0 0 0 0 
0 0 0 0 0 0 0 0 0 
0 0 0 0 0 0 0 0 0 
0 0 0 0 0 0 0 0 0 
0 0 0 0 0 0 0 0 0 
0 0 0 0 0 0 0 0 0 
0 0 0 0 0 0 0 0 0 
0 0 0 0 0 0 0 0 0 
0 0 0 0 0 0 0 0 0 
0 0 0 0 0 0 0 0 0 
0 0 0 0 0 0 0 0 0 
0 0 0 0 0 0 0 0 0 
0 0 0 0 0 0 0 0 0 
0 0 0 0 0 0 0 0 0 
0 0 0 0 0 0 0 0 0 
0 0 0 0 0 0 0 0 0 
0 0 0 0 0 0 0 0 0 
0 0 0 0 0 0 0 0 0 
0 0 0 0 0 0 0 0 0 
0 0 0 0 0 0 0 0 0 
0 0 0 0 0 0 0 0 0 
0 0 0 0 0 0 0 0 0 
0 0 0 0 0 0 0 0 0 
0 0 0 0 0 0 0 0 0 
0 0 0 0 0 0 0 0 0 
0 0 0 0 0 0 0 0 0 
0 0 0 0 0 0 0 0 0 
0 0 0 0 0 0 0 0 0 
0 0 0 0 0 0 0 0 0 
0 0 0 0 0 0 0 0 0 
0 0 0 0 0 0 0 0 0 
0 0 0 0 0 0 0 0 0 
0 0 0 0 0 0 0 0 0 
0 0 0 0 0 0 0 0 0 
0 0 0 0 0 0 0 0 0 
0 0 0 0 0 0 0 0 0 
0 0 0 0 0 0 0 0 0 
0 0 0 0 0 0 0 0 0 
0 0 0 0 0 0 0 0 0 
0 0 0 0 0 0 0 0 0 
0 0 0 0 0 0 0 0 0 
0 0 0 0 0 0 0 0 0 
0 0 0 0 0 0 0 0 0 
0 0 0 0 0 0 0 0 0 
0 0 0 0 0 0 0 0 0 
0 0 0 0 0 0 0 0 0 
0 0 0 0 0 0 0 0 0 
0 0 0 0 0 0 0 0 0 
0 0 0 0 0 0 0 0 0 
0 0 0 0 0 0 0 0 0 
0 0 0 0 0 0 0 0 0 
0 0 0 0 0 0 0 0 0 
0 0 0 0 0 0 0 0 0 
0 0 0 0 0 0 0 0 0 
0 0 0 0 0 0 0 0 0 
0 0 0 0 0 0 0 0 0 
0 0 0 0 0 0 0 0 0 
0 0 0 0 0 0 0 0 0 
0 0 0 0 0 0 0 0 0 
0 0 0 0 0 0 0 0 0 
0 0 0 0 0 0 0 0 0 
0 0 0 0 0 0 0 0 0 
0 0 0 0 0 0 0 0 0 
0 0 0 0 0 0 0 0 0 
0 0 0 0 0 0 0 0 0 
0 0 0 0 0 0 0 0 0 
0 0 0 0 0 0 0 0 0 
0 0 0 0 0 0 0 0 0 
0 0 0 0 0 0 0 0 0 
0 0 0 0 0 0 0 0 0 
0 0 0 0 0 0 0 0 0 
0 0 0 0 0 0 0 0 0 
0 0 0 0 0 0 0 0 0 
0 0 0 0 0 0 0 0 0 
0 0 0 0 0 0 0 0 0 
0 0 0 0 0 0 0 0 0 
0 0 0 0 0 0 0 0 0 
0 0 0 0 0 0 0 0 0 
0 0 0 0 0 0 0 0 0 
0 0 0 0 0 0 0 0 0 
0 0 0 0 0 0 0 0 0 
0 0 0 0 0 0 0 0 0 
0 0 0 0 0 0 0 0 0 
0 0 0 0 0 0 0 0 0 

fx_mag_viz 1 648 double
0 0 0 0 0 0 0 0 0 
0 0 0 0 0 0 0 0 0 
0 0 0 0 0 0 0 0 0 
0 0 0 0 0 0 0 0 0 
0 0 0 0 0 0 0 0 0 
0 0 0 0 0 0 0 0 0 
0 0 0 0 0 0 0 0 0 
0 0 0 0 0 0 0 0 0 
0 0 0 0 0 0 0 0 0 
0 0 0 0 0 0 0 0 0 
0 0 0 0 0 0 0 0 0 
0 0 0 0 0 0 0 0 0 
0 0 0 0 0 0 0 0 0 
0 0 0 0 0 0 0 0 0 
0 0 0 0 0 0 0 0 0 
0 0 0 0 0 0 0 0 0 
0 0 0 0 0 0 0 0 0 
0 0 0 0 0 0 0 0 0 
0 0 0 0 0 0 0 0 0 
0 0 0 0 0 0 0 0 0 
0 0 0 0 0 0 0 0 0 
0 0 0 0 0 0 0 0 0 
0 0 0 0 0 0 0 0 0 
0 0 0 0 0 0 0 0 0 
0 0 0 0 0 0 0 0 0 
0 0 0 0 0 0 0 0 0 
0 0 0 0 0 0 0 0 0 
0 0 0 0 0 0 0 0 0 
0 0 0 0 0 0 0 0 0 
0 0 0 0 0 0 0 0 0 
0 0 0 0 0 0 0 0 0 
0 0 0 0 0 0 0 0 0 
0 0 0 0 0 0 0 0 0 
0 0 0 0 0 0 0 0 0 
0 0 0 0 0 0 0 0 0 
0 0 0 0 0 0 0 0 0 
0 0 0 0 0 0 0 0 0 
0 0 0 0 0 0 0 0 0 
0 0 0 0 0 0 0 0 0 
0 0 0 0 0 0 0 0 0 
0 0 0 0 0 0 0 0 0 
0 0 0 0 0 0 0 0 0 
0 0 0 0 0 0 0 0 0 
0 0 0 0 0 0 0 0 0 
0 0 0 0 0 0 0 0 0 
0 0 0 0 0 0 0 0 0 
0 0 0 0 0 0 0 0 0 
0 0 0 0 0 0 0 0 0 
0 0 0 0 0 0 0 0 0 
0 0 0 0 0 0 0 0 0 
0 0 0 0 0 0 0 0 0 
0 0 0 0 0 0 0 0 0 
0 0 0 0 0 0 0 0 0 
0 0 0 0 0 0 0 0 0 
0 0 0 0 0 0 0 0 0 
0 0 0 0 0 0 0 0 0 
0 0 0 0 0 0 0 0 0 
0 0 0 0 0 0 0 0 0 
0 0 0 0 0 0 0 0 0 
0 0 0 0 0 0 0 0 0 
0 0 0 0 0 0 0 0 0 
0 0 0 0 0 0 0 0 0 
0 0 0 0 0 0 0 0 0 
0 0 0 0 0 0 0 0 0 
0 0 0 0 0 0 0 0 0 
0 0 0 0 0 0 0 0 0 
0 0 0 0 0 0 0 0 0 
0 0 0 0 0 0 0 0 0 
0 0 0 0 0 0 0 0 0 
0 0 0 0 0 0 0 0 0 
0 0 0 0 0 0 0 0 0 
0 0 0 0 0 0 0 0 0 

fy_mag_viz 1 648 double
0 0 0 0 0 0 0 0 0 
0 0 0 0 0 0 0 0 0 
0 0 0 0 0 0 0 0 0 
0 0 0 0 0 0 0 0 0 
0 0 0 0 0 0 0 0 0 
0 0 0 0 0 0 0 0 0 
0 0 0 0 0 0 0 0 0 
0 0 0 0 0 0 0 0 0 
0 0 0 0 0 0 0 0 0 
0 0 0 0 0 0 0 0 0 
0 0 0 0 0 0 0 0 0 
0 0 0 0 0 0 0 0 0 
0 0 0 0 0 0 0 0 0 
0 0 0 0 0 0 0 0 0 
0 0 0 0 0 0 0 0 0 
0 0 0 0 0 0 0 0 0 
0 0 0 0 0 0 0 0 0 
0 0 0 0 0 0 0 0 0 
0 0 0 0 0 0 0 0 0 
0 0 0 0 0 0 0 0 0 
0 0 0 0 0 0 0 0 0 
0 0 0 0 0 0 0 0 0 
0 0 0 0 0 0 0 0 0 
0 0 0 0 0 0 0 0 0 
0 0 0 0 0 0 0 0 0 
0 0 0 0 0 0 0 0 0 
0 0 0 0 0 0 0 0 0 
0 0 0 0 0 0 0 0 0 
0 0 0 0 0 0 0 0 0 
0 0 0 0 0 0 0 0 0 
0 0 0 0 0 0 0 0 0 
0 0 0 0 0 0 0 0 0 
0 0 0 0 0 0 0 0 0 
0 0 0 0 0 0 0 0 0 
0 0 0 0 0 0 0 0 0 
0 0 0 0 0 0 0 0 0 
0 0 0 0 0 0 0 0 0 
0 0 0 0 0 0 0 0 0 
0 0 0 0 0 0 0 0 0 
0 0 0 0 0 0 0 0 0 
0 0 0 0 0 0 0 0 0 
0 0 0 0 0 0 0 0 0 
0 0 0 0 0 0 0 0 0 
0 0 0 0 0 0 0 0 0 
0 0 0 0 0 0 0 0 0 
0 0 0 0 0 0 0 0 0 
0 0 0 0 0 0 0 0 0 
0 0 0 0 0 0 0 0 0 
0 0 0 0 0 0 0 0 0 
0 0 0 0 0 0 0 0 0 
0 0 0 0 0 0 0 0 0 
0 0 0 0 0 0 0 0 0 
0 0 0 0 0 0 0 0 0 
0 0 0 0 0 0 0 0 0 
0 0 0 0 0 0 0 0 0 
0 0 0 0 0 0 0 0 0 
0 0 0 0 0 0 0 0 0 
0 0 0 0 0 0 0 0 0 
0 0 0 0 0 0 0 0 0 
0 0 0 0 0 0 0 0 0 
0 0 0 0 0 0 0 0 0 
0 0 0 0 0 0 0 0 0 
0 0 0 0 0 0 0 0 0 
0 0 0 0 0 0 0 0 0 
0 0 0 0 0 0 0 0 0 
0 0 0 0 0 0 0 0 0 
0 0 0 0 0 0 0 0 0 
0 0 0 0 0 0 0 0 0 
0 0 0 0 0 0 0 0 0 
0 0 0 0 0 0 0 0 0 
0 0 0 0 0 0 0 0 0 
0 0 0 0 0 0 0 0 0 

fz_mag_viz 1 648 double
0 0 0 0 0 0 0 0 0 
0 0 0 0 0 0 0 0 0 
0 0 0 0 0 0 0 0 0 
0 0 0 0 0 0 0 0 0 
0 0 0 0 0 0 0 0 0 
0 0 0 0 0 0 0 0 0 
0 0 0 0 0 0 0 0 0 
0 0 0 0 0 0 0 0 0 
0 0 0 0 0 0 0 0 0 
0 0 0 0 0 0 0 0 0 
0 0 0 0 0 0 0 0 0 
0 0 0 0 0 0 0 0 0 
0 0 0 0 0 0 0 0 0 
0 0 0 0 0 0 0 0 0 
0 0 0 0 0 0 0 0 0 
0 0 0 0 0 0 0 0 0 
0 0 0 0 0 0 0 0 0 
0 0 0 0 0 0 0 0 0 
0 0 0 0 0 0 0 0 0 
0 0 0 0 0 0 0 0 0 
0 0 0 0 0 0 0 0 0 
0 0 0 0 0 0 0 0 0 
0 0 0 0 0 0 0 0 0 
0 0 0 0 0 0 0 0 0 
0 0 0 0 0 0 0 0 0 
0 0 0 0 0 0 0 0 0 
0 0 0 0 0 0 0 0 0 
0 0 0 0 0 0 0 0 0 
0 0 0 0 0 0 0 0 0 
0 0 0 0 0 0 0 0 0 
0 0 0 0 0 0 0 0 0 
0 0 0 0 0 0 0 0 0 
0 0 0 0 0 0 0 0 0 
0 0 0 0 0 0 0 0 0 
0 0 0 0 0 0 0 0 0 
0 0 0 0 0 0 0 0 0 
0 0 0 0 0 0 0 0 0 
0 0 0 0 0 0 0 0 0 
0 0 0 0 0 0 0 0 0 
0 0 0 0 0 0 0 0 0 
0 0 0 0 0 0 0 0 0 
0 0 0 0 0 0 0 0 0 
0 0 0 0 0 0 0 0 0 
0 0 0 0 0 0 0 0 0 
0 0 0 0 0 0 0 0 0 
0 0 0 0 0 0 0 0 0 
0 0 0 0 0 0 0 0 0 
0 0 0 0 0 0 0 0 0 
0 0 0 0 0 0 0 0 0 
0 0 0 0 0 0 0 0 0 
0 0 0 0 0 0 0 0 0 
0 0 0 0 0 0 0 0 0 
0 0 0 0 0 0 0 0 0 
0 0 0 0 0 0 0 0 0 
0 0 0 0 0 0 0 0 0 
0 0 0 0 0 0 0 0 0 
0 0 0 0 0 0 0 0 0 
0 0 0 0 0 0 0 0 0 
0 0 0 0 0 0 0 0 0 
0 0 0 0 0 0 0 0 0 
0 0 0 0 0 0 0 0 0 
0 0 0 0 0 0 0 0 0 
0 0 0 0 0 0 0 0 0 
0 0 0 0 0 0 0 0 0 
0 0 0 0 0 0 0 0 0 
0 0 0 0 0 0 0 0 0 
0 0 0 0 0 0 0 0 0 
0 0 0 0 0 0 0 0 0 
0 0 0 0 0 0 0 0 0 
0 0 0 0 0 0 0 0 0 
0 0 0 0 0 0 0 0 0 
0 0 0 0 0 0 0 0 0 

B_magnitude 1 648 double
0 0 0 0 0 0 0 0 0 
0 0 0 0 0 0 0 0 0 
0 0 0 0 0 0 0 0 0 
0 0 0 0 0 0 0 0 0 
0 0 0 0 0 0 0 0 0 
0 0 0 0 0 0 0 0 0 
0 0 0 0 0 0 0 0 0 
0 0 0 0 0 0 0 0 0 
0 0 0 0 0 0 0 0 0 
0 0 0 0 0 0 0 0 0 
0 0 0 0 0 0 0 0 0 
0 0 0 0 0 0 0 0 0 
0 0 0 0 0 0 0 0 0 
0 0 0 0 0 0 0 0 0 
0 0 0 0 0 0 0 0 0 
0 0 0 0 0 0 0 0 0 
0 0 0 0 0 0 0 0 0 
0 0 0 0 0 0 0 0 0 
0 0 0 0 0 0 0 0 0 
0 0 0 0 0 0 0 0 0 
0 0 0 0 0 0 0 0 0 
0 0 0 0 0 0 0 0 0 
0 0 0 0 0 0 0 0 0 
0 0 0 0 0 0 0 0 0 
0 0 0 0 0 0 0 0 0 
0 0 0 0 0 0 0 0 0 
0 0 0 0 0 0 0 0 0 
0 0 0 0 0 0 0 0 0 
0 0 0 0 0 0 0 0 0 
0 0 0 0 0 0 0 0 0 
0 0 0 0 0 0 0 0 0 
0 0 0 0 0 0 0 0 0 
0 0 0 0 0 0 0 0 0 
0 0 0 0 0 0 0 0 0 
0 0 0 0 0 0 0 0 0 
0 0 0 0 0 0 0 0 0 
0 0 0 0 0 0 0 0 0 
0 0 0 0 0 0 0 0 0 
0 0 0 0 0 0 0 0 0 
0 0 0 0 0 0 0 0 0 
0 0 0 0 0 0 0 0 0 
0 0 0 0 0 0 0 0 0 
0 0 0 0 0 0 0 0 0 
0 0 0 0 0 0 0 0 0 
0 0 0 0 0 0 0 0 0 
0 0 0 0 0 0 0 0 0 
0 0 0 0 0 0 0 0 0 
0 0 0 0 0 0 0 0 0 
0 0 0 0 0 0 0 0 0 
0 0 0 0 0 0 0 0 0 
0 0 0 0 0 0 0 0 0 
0 0 0 0 0 0 0 0 0 
0 0 0 0 0 0 0 0 0 
0 0 0 0 0 0 0 0 0 
0 0 0 0 0 0 0 0 0 
0 0 0 0 0 0 0 0 0 
0 0 0 0 0 0 0 0 0 
0 0 0 0 0 0 0 0 0 
0 0 0 0 0 0 0 0 0 
0 0 0 0 0 0 0 0 0 
0 0 0 0 0 0 0 0 0 
0 0 0 0 0 0 0 0 0 
0 0 0 0 0 0 0 0 0 
0 0 0 0 0 0 0 0 0 
0 0 0 0 0 0 0 0 0 
0 0 0 0 0 0 0 0 0 
0 0 0 0 0 0 0 0 0 
0 0 0 0 0 0 0 0 0 
0 0 0 0 0 0 0 0 0 
0 0 0 0 0 0 0 0 0 
0 0 0 0 0 0 0 0 0 
0 0 0 0 0 0 0 0 0 

B_gradient_mag 1 648 double
0 0 0 0 0 0 0 0 0 
0 0 0 0 0 0 0 0 0 
0 0 0 0 0 0 0 0 0 
0 0 0 0 0 0 0 0 0 
0 0 0 0 0 0 0 0 0 
0 0 0 0 0 0 0 0 0 
0 0 0 0 0 0 0 0 0 
0 0 0 0 0 0 0 0 0 
0 0 0 0 0 0 0 0 0 
0 0 0 0 0 0 0 0 0 
0 0 0 0 0 0 0 0 0 
0 0 0 0 0 0 0 0 0 
0 0 0 0 0 0 0 0 0 
0 0 0 0 0 0 0 0 0 
0 0 0 0 0 0 0 0 0 
0 0 0 0 0 0 0 0 0 
0 0 0 0 0 0 0 0 0 
0 0 0 0 0 0 0 0 0 
0 0 0 0 0 0 0 0 0 
0 0 0 0 0 0 0 0 0 
0 0 0 0 0 0 0 0 0 
0 0 0 0 0 0 0 0 0 
0 0 0 0 0 0 0 0 0 
0 0 0 0 0 0 0 0 0 
0 0 0 0 0 0 0 0 0 
0 0 0 0 0 0 0 0 0 
0 0 0 0 0 0 0 0 0 
0 0 0 0 0 0 0 0 0 
0 0 0 0 0 0 0 0 0 
0 0 0 0 0 0 0 0 0 
0 0 0 0 0 0 0 0 0 
0 0 0 0 0 0 0 0 0 
0 0 0 0 0 0 0 0 0 
0 0 0 0 0 0 0 0 0 
0 0 0 0 0 0 0 0 0 
0 0 0 0 0 0 0 0 0 
0 0 0 0 0 0 0 0 0 
0 0 0 0 0 0 0 0 0 
0 0 0 0 0 0 0 0 0 
0 0 0 0 0 0 0 0 0 
0 0 0 0 0 0 0 0 0 
0 0 0 0 0 0 0 0 0 
0 0 0 0 0 0 0 0 0 
0 0 0 0 0 0 0 0 0 
0 0 0 0 0 0 0 0 0 
0 0 0 0 0 0 0 0 0 
0 0 0 0 0 0 0 0 0 
0 0 0 0 0 0 0 0 0 
0 0 0 0 0 0 0 0 0 
0 0 0 0 0 0 0 0 0 
0 0 0 0 0 0 0 0 0 
0 0 0 0 0 0 0 0 0 
0 0 0 0 0 0 0 0 0 
0 0 0 0 0 0 0 0 0 
0 0 0 0 0 0 0 0 0 
0 0 0 0 0 0 0 0 0 
0 0 0 0 0 0 0 0 0 
0 0 0 0 0 0 0 0 0 
0 0 0 0 0 0 0 0 0 
0 0 0 0 0 0 0 0 0 
0 0 0 0 0 0 0 0 0 
0 0 0 0 0 0 0 0 0 
0 0 0 0 0 0 0 0 0 
0 0 0 0 0 0 0 0 0 
0 0 0 0 0 0 0 0 0 
0 0 0 0 0 0 0 0 0 
0 0 0 0 0 0 0 0 0 
0 0 0 0 0 0 0 0 0 
0 0 0 0 0 0 0 0 0 
0 0 0 0 0 0 0 0 0 
0 0 0 0 0 0 0 0 0 
0 0 0 0 0 0 0 0 0 

