# vtk DataFile Version 5.1
Generated by LIGGGHTS
ASCII
DATASET POLYDATA
POINTS 648 float
-0.0428902 -0.0449088 0.00102 -0.00340304 -0.0448428 0.00111634 -0.044759 -0.0437614 0.00102 
-0.0335565 -0.0442122 0.00109421 -0.0308094 -0.0435702 0.00102 0.0181024 -0.0433049 0.00123862 
0.0348044 -0.042095 0.00111064 0.0418836 -0.0421436 0.00102 -0.00674967 -0.0416523 0.00103778 
0.0414821 -0.0410789 0.00104033 -0.042922 -0.0404536 0.00102672 -0.0334706 -0.0396012 0.00105303 
-0.018434 -0.0405477 0.00102283 0.0244803 -0.0401788 0.00102378 0.040047 -0.0404588 0.00102 
-0.0108246 -0.0388127 0.00102369 -0.00302782 -0.0385948 0.00102 0.0156715 -0.0391733 0.00102 
0.00798734 -0.0367051 0.00102 0.0308099 -0.0378456 0.00102 -0.0168273 -0.0360331 0.00130125 
0.000822496 -0.0363122 0.00102 0.00594186 -0.0351889 0.00127997 0.0333162 -0.0342631 0.00102 
0.023158 -0.0340207 0.00102 0.0244271 -0.0334586 0.00102 -0.0262624 -0.032473 0.0010235 
-0.0232422 -0.0321576 0.00102 0.0346336 -0.0325969 0.00119171 -0.0266532 -0.0301716 0.00102 
-0.0105296 -0.0314142 0.00102 0.0280204 -0.0311414 0.00102 0.0449741 -0.0303513 0.00123459 
-0.0448384 -0.0296834 0.00102 0.0346338 -0.0290927 0.00111449 0.00577088 -0.0287415 0.00102 
-0.0430551 -0.0267583 0.00102364 0.000892701 -0.0263701 0.00103753 0.0306875 -0.0259396 0.00104936 
0.033456 -0.0256735 0.00102 0.032808 -0.025967 0.00102 -0.0408326 -0.0234295 0.00102 
-0.038621 -0.0229432 0.00131157 -0.0225401 -0.0213878 0.00120536 0.00623721 -0.0211799 0.00127401 
0.0233461 -0.0214624 0.00123296 0.0436787 -0.0219137 0.00102 -0.00827992 -0.020547 0.00107546 
0.0336491 -0.0197505 0.00102 -0.0108877 -0.0188832 0.00102 0.0363266 -0.0194176 0.00102371 
-0.0317771 -0.0175651 0.00102 -0.0204621 -0.0172006 0.00109489 -0.0100897 -0.0180162 0.0011889 
0.0030191 -0.0179247 0.00102 0.0404767 -0.0183151 0.00102 -0.0426154 -0.0165053 0.00123238 
-0.0339565 -0.0167518 0.00128924 -0.0257955 -0.0157834 0.00104892 0.0223879 -0.0163393 0.00102 
-0.00444012 -0.0151621 0.00103524 0.0198229 -0.0156851 0.00128534 0.0268005 -0.0146468 0.00123431 
-0.0388614 -0.0136303 0.00124473 -0.0117656 -0.0138394 0.00106457 0.0176437 -0.0119747 0.00124285 
0.00689113 -0.0107816 0.00102 0.0277003 -0.0107969 0.00102 -0.0222502 -0.00974669 0.00105497 
-0.0196799 -0.00931279 0.0010484 -0.0112192 -0.0104501 0.00102 0.00743742 -0.00926665 0.00102 
0.013874 -0.00963069 0.00105496 0.0313953 -0.00974065 0.00104768 0.0350526 -0.0102353 0.00102 
-0.00553214 -0.00871323 0.00105055 -0.00254943 -0.00825679 0.00116462 -0.0304645 -0.00701594 0.001261 
-0.0198564 -0.00683511 0.00102 0.0109664 -0.00760095 0.00103204 0.0404774 -0.00688032 0.00106541 
-0.0129003 -0.00574839 0.00102 -0.00747582 -0.00609419 0.00104881 0.0387156 -0.00624884 0.00126391 
0.00937085 -0.00418454 0.00102 0.0131353 -0.00504642 0.00102 0.0180565 -0.00487531 0.00112547 
0.021323 -0.00444137 0.00102588 0.0448793 -0.00396119 0.00128165 -0.042786 -0.00359954 0.0010331 
-0.0179231 -0.00300678 0.00102 -0.0141425 -0.00311887 0.00106603 -0.0120059 -0.00345367 0.00120016 
-0.0281455 -0.00127675 0.00120602 -0.00783961 -0.000387029 0.00102 -0.00702036 -0.00121172 0.00102 
0.0290986 -0.000251763 0.00128085 -0.0260142 0.00017485 0.00105952 0.0384376 0.000848974 0.00102 
-0.00967086 0.00179773 0.00102 0.00417698 0.0024455 0.00102 0.0147261 0.00139147 0.00119467 
0.0188762 0.00181355 0.00107952 0.032558 0.00153523 0.00120185 -0.0325416 0.00283857 0.00117797 
0.0449494 0.00392273 0.00106562 0.0292006 0.00433004 0.00102 0.0305447 0.00486582 0.00102 
0.0404406 0.00462082 0.00124694 -0.037077 0.00611456 0.00103034 -0.0287984 0.00559412 0.00102 
-0.0170872 0.00564833 0.00102 0.0011249 0.00615697 0.00102 0.021602 0.00540593 0.00102 
0.0228765 0.00606581 0.00102 0.0246705 0.0064451 0.00102014 0.030759 0.00580352 0.00118572 
-0.0426568 0.00723228 0.00102 0.0221269 0.00728552 0.00107305 0.0283387 0.00890506 0.00102036 
0.0340899 0.00882812 0.00120718 -0.0392616 0.00972366 0.00102 -0.0214351 0.00957734 0.00102 
-0.0101256 0.00978275 0.00102 0.0197977 0.00963841 0.00102 0.0212596 0.00979192 0.00102 
0.0211953 0.00966092 0.00123335 -0.0394276 0.0109375 0.00113787 0.0399323 0.0117688 0.00102 
0.0398091 0.011618 0.00119836 -0.0365733 0.0119208 0.00110245 -0.00279986 0.0127222 0.00102002 
0.00861143 0.0123591 0.0010934 -0.0429188 0.0135204 0.00125435 -0.034865 0.0142961 0.00102 
-0.0310202 0.0131063 0.00102 8.23501e-07 0.0138406 0.00102 0.0143092 0.0139794 0.00102 
0.0248423 0.0143007 0.00102 0.0287781 0.014071 0.00102 -0.00307286 0.0144526 0.00102942 
0.000954082 0.0152563 0.00106222 0.00517921 0.0169249 0.00102387 0.0418335 0.0161761 0.00104307 
-0.0360536 0.0173104 0.00102 0.0215224 0.0171285 0.00102 0.0407412 0.0174253 0.00124026 
-0.0214239 0.0189608 0.00102 0.00395304 0.0187088 0.00119371 0.0090081 0.0191686 0.00116678 
0.018015 0.0183735 0.00116737 -0.023041 0.0197144 0.00102 -0.022709 0.0198803 0.00102 
-0.0153727 0.020636 0.00102 -0.0282566 0.021284 0.00102 0.00128112 0.0217131 0.00123217 
0.0123926 0.0218243 0.00102 -0.0349287 0.0230684 0.00115359 0.03506 0.0228899 0.00102 
-0.0267196 0.0236159 0.00111846 0.0307708 0.0242663 0.00103288 -0.0386663 0.0253433 0.00130317 
-0.00739359 0.0259593 0.0013006 0.0167463 0.0251763 0.00102 0.0226957 0.0260881 0.00102 
0.00953871 0.0271324 0.00121603 0.0395905 0.0272142 0.00120851 -0.0357156 0.0282031 0.00125753 
-0.0127911 0.0299546 0.0010491 0.0191509 0.0299648 0.00122642 -0.0409258 0.0305044 0.00102 
-0.0313244 0.0314049 0.00106138 -0.0200898 0.0311527 0.00102001 -0.0108954 0.0304 0.00117928 
0.00372347 0.0304157 0.001025 0.0038092 0.0311583 0.00105272 0.026696 0.03017 0.00117974 
0.0364634 0.0310238 0.00102534 0.0444958 0.0309554 0.00102 -0.0073504 0.0318329 0.00106047 
0.00390562 0.0317225 0.00104232 -0.0337286 0.0337045 0.0012115 -0.0264781 0.032823 0.00102 
0.00284552 0.0345861 0.00102 0.0231674 0.0340949 0.00125595 -0.041477 0.0364172 0.00107183 
-0.00196307 0.0366495 0.00113293 -0.0245447 0.0378537 0.00113718 0.0297434 0.0373158 0.00102 
-0.00973825 0.0391656 0.00102457 0.0165329 0.0385374 0.00102 0.0238959 0.0383247 0.00102 
-0.0375088 0.0393741 0.00114986 -0.0312382 0.0393096 0.00105488 -0.0112537 0.0395394 0.00127609 
0.0221021 0.0401282 0.00128115 0.0251972 0.0393087 0.00102 -0.0133259 0.0414802 0.00114511 
-0.00785852 0.041878 0.00124882 0.0163992 0.0415262 0.00102 0.0222253 0.0407186 0.00103536 
-0.0390027 0.0421086 0.00102 0.0294278 0.0431452 0.00123524 0.0430506 0.0422314 0.00126164 
-0.0205282 0.0432397 0.00127374 -0.0160353 0.0448572 0.00128583 -0.0346971 -0.0446764 0.00161395 
-0.0317519 -0.0446953 0.00204261 0.0262096 -0.0449372 0.00200814 -0.027409 -0.0433703 0.00150722 
0.0145521 -0.0432303 0.00209843 0.0416479 -0.0439733 0.00150697 -0.0248654 -0.0427111 0.00172776 
0.0248068 -0.0428986 0.00165912 -0.0349861 -0.0412827 0.00173186 0.000425919 -0.0415728 0.00255063 
0.0339316 -0.041715 0.002106 -0.0406141 -0.0405112 0.0024891 -0.0248652 -0.040212 0.00135998 
-0.0169239 -0.0402939 0.0023034 -0.00670669 -0.0394183 0.00173791 -0.0289295 -0.0389067 0.00234882 
-0.0234086 -0.038644 0.00154339 -0.0370475 -0.0370945 0.00250269 0.0397687 -0.0374633 0.00168632 
-0.0439713 -0.0357399 0.00154321 -0.0273176 -0.0361067 0.0021534 -0.00338111 -0.0363358 0.001508 
0.0195647 -0.0366528 0.00246671 0.0307351 -0.0355434 0.00173324 -0.0179089 -0.0346335 0.00207361 
0.00879071 -0.0344865 0.00144534 0.043014 -0.0343178 0.0019514 0.0433459 -0.0353282 0.00219463 
-0.0427235 -0.0332389 0.00147709 -0.00586029 -0.0338127 0.00129762 0.00264867 -0.0338128 0.00189842 
-0.0376897 -0.0314333 0.00242271 -0.0160452 -0.0323821 0.002402 0.00802514 -0.031483 0.00196634 
-0.0396817 -0.0304797 0.00248929 -0.0386911 -0.0311434 0.00239647 -0.00682403 -0.0314098 0.00203859 
0.010226 -0.0308634 0.00177578 0.00231692 -0.0294453 0.00239371 0.0392765 -0.0300093 0.00201489 
0.0156293 -0.0283842 0.00219771 0.0164647 -0.0275391 0.00134314 -0.0432264 -0.0264101 0.00148264 
-0.00580099 -0.0272788 0.00163094 0.0101031 -0.0273014 0.00220361 -0.0338231 -0.0250135 0.00186323 
-0.00446216 -0.0255279 0.00211757 0.0054016 -0.025334 0.00134659 0.00538025 -0.0241403 0.00247732 
0.0155599 -0.0240909 0.00147153 -0.0139777 -0.0223984 0.0023392 0.0115492 -0.0227248 0.00242768 
-0.0323128 -0.0219837 0.00224009 -0.0291427 -0.0219343 0.0018496 0.039775 -0.0211058 0.00131564 
-0.0296942 -0.0196153 0.00135527 0.00156248 -0.0194187 0.0013903 0.0134129 -0.0192809 0.00226599 
0.0184681 -0.0172117 0.0022992 0.0282033 -0.0178095 0.00125058 -0.0405162 -0.0161033 0.00219858 
0.0296492 -0.015918 0.00214417 -0.015814 -0.0152491 0.00194306 0.0249316 -0.014475 0.00182983 
0.0375745 -0.0151367 0.00201905 -0.0329121 -0.0139828 0.00144888 -0.0227164 -0.0141288 0.00144584 
-0.00710141 -0.0133745 0.00255244 0.0403752 -0.0143085 0.00235968 -0.0341597 -0.0122829 0.00178297 
0.0322358 -0.0130621 0.00226323 0.0347312 -0.012978 0.00214901 0.0414517 -0.0114994 0.00136284 
0.0218314 -0.00971151 0.00203687 0.0251729 -0.00985964 0.00130425 0.0286804 -0.00919085 0.00142115 
-0.0101373 -0.00698039 0.00196285 -0.00433253 -0.00676057 0.00162277 -0.00401126 -0.00720159 0.00189321 
0.0275881 -0.00673863 0.00210674 -0.00720807 -0.00608605 0.00177862 -0.040885 -0.00406647 0.001514 
-0.0408474 -0.00214648 0.00142196 0.00664535 -0.00164817 0.00143206 -0.0376932 -0.000132947 0.00243818 
-0.000610522 -0.00103491 0.0022487 0.00127443 -0.000618905 0.00228364 -0.0416237 0.00110806 0.00255775 
-0.0332593 0.000859011 0.00197435 -0.0131355 0.00164571 0.00193461 -0.0137512 0.00384646 0.00192233 
0.00265626 0.00371614 0.00245303 -0.027449 0.00511055 0.00261482 -0.025141 0.00447188 0.00130792 
0.00314898 0.00491531 0.00187147 0.0323225 0.00436429 0.00235312 -0.01547 0.00642247 0.00253977 
-0.00723413 0.00605583 0.00250687 -0.00552594 0.00555795 0.00154006 0.0101693 0.00555192 0.00152064 
0.00533928 0.00728904 0.00131416 0.0110904 0.00657535 0.00250086 -0.0442311 0.00821601 0.00164843 
0.0142017 0.0079404 0.00190837 0.0202046 0.00840095 0.00193662 0.00978397 0.00922321 0.00254056 
0.00418285 0.0112423 0.00133629 -0.0350204 0.0121089 0.0024923 0.00243185 0.0120975 0.00153163 
0.0128044 0.0127337 0.00192236 0.014866 0.0127598 0.00222516 0.00789931 0.0136568 0.00227152 
0.0114764 0.0140289 0.001984 0.0336082 0.013194 0.00215996 0.0441199 0.0136981 0.00257295 
-0.0196462 0.0155185 0.00231577 0.0121458 0.0151918 0.00134751 -0.0286532 0.0159811 0.00260463 
-0.0161548 0.0159009 0.0019714 -0.00317984 0.0164631 0.00251066 0.0226738 0.0181095 0.00191474 
-0.0436896 0.0195853 0.00202394 -0.0363159 0.0185996 0.0025026 0.00757299 0.0192258 0.00215387 
0.0122157 0.0191756 0.00187563 0.0388885 0.0193682 0.00192168 -0.0431379 0.0208085 0.00176804 
-0.0295899 0.0232577 0.00233726 0.0146363 0.0223077 0.00191458 -0.0138035 0.0240512 0.00209363 
-0.00782209 0.0241861 0.00230756 0.0181332 0.0246356 0.00132471 0.0258603 0.0235991 0.0019313 
-0.0132251 0.0252506 0.00197885 -0.0267569 0.0263983 0.00134771 -0.0102477 0.0267602 0.00129247 
-0.00563177 0.0268155 0.00132361 -0.0406313 0.0295913 0.00200409 -0.0152062 0.0294088 0.00166468 
0.00519606 0.0301696 0.00249744 -0.0213481 0.0319153 0.00155103 -0.00435696 0.0325462 0.00212048 
0.01325 0.0319187 0.00133505 0.0372507 0.0318783 0.00216152 -0.0359241 0.0337864 0.00140133 
0.0152528 0.033152 0.00199084 0.00317215 0.0343196 0.0025449 0.0132394 0.0345575 0.00134528 
-0.00750544 0.0361316 0.00227025 -0.00883869 0.0381834 0.00254725 -0.039126 0.0399637 0.00256705 
-0.0379532 0.0399341 0.00144454 0.00805094 0.0422278 0.00133008 -0.0181988 0.0434549 0.00188316 
0.0114086 0.0440135 0.00207003 0.0352379 0.0438995 0.00232727 0.0405446 0.0433429 0.00131219 
0.0399235 0.0434757 0.00166254 -0.0190394 0.0446837 0.00134772 0.0171919 0.0449185 0.00180726 
0.0211706 0.0445491 0.0019106 0.0147823 -0.0446949 0.00335717 -0.00396528 -0.0444182 0.00369247 
0.0195053 -0.043722 0.00337171 -0.0389435 -0.0425966 0.0031178 0.0131812 -0.0427533 0.00270877 
0.0201641 -0.0426709 0.0033493 0.0406519 -0.0427256 0.00337504 -0.0136468 -0.0412372 0.00363454 
0.0166138 -0.0412108 0.00380484 0.0238162 -0.0409762 0.00275609 0.0338942 -0.0410147 0.0026714 
0.0424299 -0.0409921 0.00276452 0.00849583 -0.0405939 0.00297038 -0.0195638 -0.0385913 0.00308129 
0.0325128 -0.03812 0.00327804 0.00985621 -0.0367022 0.00374175 -0.0309963 -0.0355024 0.00302057 
-0.00161929 -0.0353994 0.00331549 0.0355384 -0.0354155 0.00343184 -0.0177429 -0.0346724 0.00278416 
-8.23525e-05 -0.034098 0.00299452 0.0077947 -0.0345433 0.00265785 0.0403097 -0.0347888 0.00330881 
-0.0177803 -0.0340186 0.00358847 -0.0161578 -0.0337243 0.00316993 0.027474 -0.0338615 0.00282305 
-0.0233761 -0.031813 0.0037529 -0.0210092 -0.0320472 0.00278168 -0.0220587 -0.0306349 0.00373277 
-0.0414327 -0.0290659 0.00369592 -0.0263426 -0.0292431 0.00333909 0.023019 -0.0293484 0.00351317 
-0.0401314 -0.0280847 0.00337934 -0.0346801 -0.0287009 0.00293585 -0.0240024 -0.0280603 0.00341883 
0.0153133 -0.0285941 0.00357773 0.03382 -0.0268981 0.00280528 0.0350196 -0.0250011 0.00330649 
0.0347572 -0.0260666 0.00325798 -0.00863888 -0.0237376 0.00307982 0.00179778 -0.0247441 0.00303403 
0.00558373 -0.0242787 0.00375777 0.0210005 -0.0239559 0.0026812 -0.0350278 -0.0224863 0.00282806 
-0.0127621 -0.0231756 0.00304024 0.0109547 -0.0235646 0.00271515 0.0240101 -0.0228809 0.0030511 
0.035159 -0.023363 0.00364373 -0.0164034 -0.0216001 0.00339718 0.0394323 -0.021923 0.00380675 
-0.0210835 -0.0209207 0.00364763 -0.0033641 -0.0204173 0.00363827 0.00548761 -0.0197918 0.00331803 
-0.0207996 -0.0190456 0.00295756 0.0204492 -0.0194639 0.00321598 -0.0328213 -0.0176588 0.0029251 
-0.0147645 -0.0165889 0.00329133 0.0252581 -0.0163235 0.00327992 0.038292 -0.016257 0.00291107 
-0.0408642 -0.0154151 0.00326718 0.0132043 -0.01541 0.00342781 0.0323803 -0.0150629 0.0037492 
-0.0313057 -0.0141988 0.00280559 -0.0279963 -0.0141356 0.00350311 -0.0186412 -0.0134353 0.00286825 
0.00886689 -0.0141191 0.00274845 0.0144468 -0.013247 0.00361425 -0.0327621 -0.0121928 0.00368838 
-0.0269092 -0.0125643 0.00324873 -0.00528066 -0.0121118 0.00370864 0.0253763 -0.011051 0.00303465 
-0.0253401 -0.0103599 0.00264921 -0.0136128 -0.00979682 0.00275087 0.0334462 -0.00930086 0.0036923 
0.0352883 -0.0103067 0.00283249 0.0406218 -0.0100941 0.00320963 -0.042331 -0.00792816 0.00275133 
-0.0343844 -0.0078404 0.00273981 -0.0344646 -0.00725539 0.00281305 -0.0211095 -0.00770044 0.00288978 
-0.0150798 -0.00698339 0.0026862 -0.0135858 -0.00672635 0.00297531 0.0129906 -0.00677597 0.00283007 
0.0161928 -0.00760918 0.00273821 0.00523139 -0.00599236 0.00319527 -0.0253129 -0.0039775 0.00359805 
0.0180458 -0.00470109 0.00377265 0.0200271 -0.00425623 0.00366837 0.0386193 -0.00496685 0.00328707 
-0.00941413 -0.00330341 0.00364417 0.00975646 -0.00313231 0.00278357 0.0293019 -0.00298432 0.0027034 
-0.0395569 -0.00227866 0.00337409 -0.0198668 -0.00211416 0.00311986 -0.00896956 -0.00131708 0.00265208 
0.0168839 -0.00210364 0.0030223 -0.0283489 -0.000417126 0.00369281 -0.0153419 -0.00108619 0.00382135 
0.0140084 -6.89735e-05 0.00365461 0.0420414 -0.00101026 0.00288073 0.0407777 0.000744206 0.00326338 
-0.00229178 0.0020129 0.00269731 0.0116524 0.00206193 0.00373169 0.0189244 0.00254502 0.00310848 
0.0362421 0.00170773 0.00276354 -0.0261639 0.00337815 0.00322158 -0.0233311 0.00384073 0.0030602 
0.00243665 0.00282786 0.00366568 0.0183943 0.00266245 0.00364581 0.0260144 0.00429017 0.00306645 
-0.0406381 0.00555966 0.00290828 -0.0403489 0.00598291 0.00271539 0.0250346 0.00641518 0.00336613 
0.0332757 0.00539899 0.00313004 0.0358407 0.00533501 0.0033336 -0.0429246 0.00657681 0.00382772 
-0.009285 0.00693532 0.00337594 -0.00598638 0.00689803 0.00291537 -0.019893 0.00878872 0.00291368 
-0.0105861 0.00898083 0.00368984 0.0324887 0.00836074 0.00275284 -0.0408306 0.00999374 0.00281292 
-0.0349081 0.00917553 0.00340485 0.00474506 0.0103043 0.00269759 0.0234497 0.00978487 0.00335735 
0.027557 0.009967 0.00309289 -0.00808524 0.0113378 0.00321578 -0.00071691 0.0108932 0.00345122 
-0.00831541 0.0129665 0.00279634 0.0261916 0.0119357 0.00274656 -0.00841171 0.0143034 0.00384292 
-0.00867948 0.0139924 0.00337721 0.012949 0.0143048 0.00265247 0.0311878 0.014057 0.00285478 
0.0396593 0.013993 0.00370875 -0.0287818 0.014969 0.00274126 -0.0231109 0.0157017 0.00360774 
0.0440772 0.0154938 0.00305175 -0.0408838 0.0159645 0.00336962 -0.00443291 0.0160613 0.00307993 
-0.0193355 0.018129 0.00276495 -0.0122189 0.0175978 0.00301825 0.00546842 0.0177814 0.00269455 
0.0256029 0.0175394 0.00296845 0.00742845 0.0199749 0.00340712 0.00976854 0.0197772 0.00297766 
0.0350116 0.0207306 0.00271821 -0.0287332 0.0215601 0.00353399 -0.0122989 0.0222019 0.00357714 
0.0362273 0.0220011 0.00295281 0.0398418 0.0217469 0.00284991 -0.0421793 0.0225172 0.00288136 
-0.0324762 0.0230005 0.00348143 -0.0148746 0.0223253 0.00371271 0.00126512 0.0228658 0.00371473 
-0.0436572 0.0238848 0.00293734 0.00264144 0.0247174 0.00352338 0.021223 0.0244832 0.0034955 
0.0438582 0.0244724 0.00303034 0.000162142 0.0251126 0.00346641 -0.0190887 0.0269029 0.00324524 
-0.0128609 0.0265935 0.003227 -0.0114472 0.026715 0.00275878 -0.0214233 0.0285543 0.00287532 
0.00834461 0.0278725 0.00267551 0.0397191 0.0283771 0.00336675 -0.0376379 0.0294143 0.00310342 
0.0434247 0.0295768 0.00273524 -0.032208 0.0306075 0.00302047 -0.0219587 0.0304934 0.00270061 
0.0040127 0.0314243 0.00309439 0.0191028 0.0315895 0.00323316 0.0193546 0.0324404 0.00377748 
0.0337272 0.0324898 0.00284531 0.0380057 0.0324307 0.00324109 -0.0425374 0.0333781 0.0031174 
0.00727395 0.0332762 0.00313044 0.0214431 0.0335886 0.00273956 -0.00472634 0.0344449 0.00341853 
0.0164577 0.0353116 0.00254758 0.0278529 0.0342296 0.00354527 -0.0407273 0.0358476 0.00346099 
0.00888594 0.0360502 0.00323796 0.00367032 0.0371324 0.00329803 0.0030545 0.0369981 0.00297167 
0.0311732 0.0371467 0.00301775 -0.00647711 0.0391566 0.00265714 -0.00585061 0.0388609 0.00366832 
0.0281745 0.039089 0.00269493 0.00201585 0.0404036 0.00338123 0.0170579 0.0421878 0.00277909 
0.00528787 0.0432844 0.00369339 0.0352701 0.0439749 0.00272289 -0.0390775 0.0447256 0.0034688 
0.0341086 -0.0368686 0.00458724 0.0268369 -0.0315202 0.0044116 -0.0240719 -0.0268296 0.00426412 
0.0102479 -0.024092 0.00403032 0.0262592 -0.0217201 0.00389042 -0.0183202 -0.0175475 0.00459427 
-0.038829 -0.00978443 0.0044968 -0.0214415 -0.007536 0.00478503 -0.0107529 -0.00365687 0.00397331 
0.039455 -0.000236508 0.00493909 -0.0408092 0.00981999 0.0051362 0.00976298 0.0163696 0.00466807 
-0.014478 0.0275162 0.0043837 -0.0422696 0.0340949 0.00483812 0.0272875 -0.0186725 0.00636807 
0.0323804 -0.0132471 0.00566315 0.0342493 -0.0115037 0.00601347 0.0277548 0.0042931 0.00593855 
0.0320014 0.00756294 0.0056987 0.023953 0.00820576 0.00619084 0.00153271 0.0201988 0.00518419 
-0.0260391 0.0304395 0.00630491 0.0354139 0.0312817 0.00544134 0.0412685 -0.0295104 0.00718381 
0.0218308 -0.0192565 0.00717481 0.0223025 -0.0112244 0.00744355 -0.00474481 -0.00600267 0.00662775 
0.012585 0.0155082 0.00660925 -0.0368667 0.0306348 0.00667805 -0.0225361 -0.0441701 0.00872732 
-0.0419519 -0.0259749 0.0086094 0.0127657 -0.00746761 0.00775072 0.0153641 0.0146287 0.00865264 
-0.0269229 0.0267788 0.00785784 -0.0393221 -0.0167834 0.00960406 -0.0207563 -0.0111167 0.00939412 
-0.0449336 -0.00957357 0.00954194 -0.0326334 -0.00963456 0.00988466 0.00513794 0.0433856 0.00962526 
-0.0329608 -0.0218045 0.0115464 -0.0245993 0.0193658 0.0113836 -0.0197415 0.0344175 0.0111506 
0.00308146 0.0401468 0.0105257 0.0185094 -0.042363 0.0125197 0.0419483 -0.0348097 0.0124037 
-0.0336946 -0.0248459 0.0123818 -0.0328109 -0.0226975 0.0123054 0.0414834 -0.0181367 0.012863 
0.0302919 -0.0148257 0.0124901 -0.024842 -0.00884532 0.0118377 -0.0371624 0.011326 0.0117273 
0.0323341 0.0191974 0.012036 0.0104707 0.0313218 0.012362 0.0439232 0.0371117 0.0122888 
-0.0281804 0.0418824 0.0127239 -0.0440308 0.0448256 0.0122484 -0.015788 -0.0282898 0.0134151 
0.0379188 0.0120326 0.0134183 -0.0420316 -0.0145538 0.0151768 -0.0155539 0.0359545 0.014306 
-0.0437633 0.0406561 0.0154671 -0.0385899 -0.0405251 0.0164065 -0.0386256 -0.00983966 0.016475 
0.0414788 -0.00521487 0.0165877 0.00347554 0.00338662 0.0165105 -0.00521279 -0.0413279 0.0173838 
-0.0356048 -0.000104637 0.0174935 -0.0144089 0.0201081 0.0175308 -0.0296003 0.0277025 0.0172299 
0.0433204 -0.0141837 0.0182902 0.0154702 -0.00154679 0.0182741 0.0133448 0.00646544 0.0187986 
-0.0081225 0.0151775 0.0182072 -0.0256005 0.0215871 0.0185276 0.0289145 -0.0340196 0.019882 
0.0188903 -0.0308528 0.0201283 -0.0207679 -0.0256315 0.0204426 0.00357123 -0.00830953 0.0198719 
0.0282359 -0.00877456 0.0196548 -0.00757157 0.00454821 0.0194986 0.0131273 0.040817 0.0202095 
-0.00254916 -0.00379952 0.0211583 0.00643655 -0.000956063 0.0210704 0.00635633 0.000852437 0.0208554 
0.0242571 -0.0100823 0.02316 0.00741479 -0.0295782 0.0242825 -0.0170112 0.0231088 0.0251046 

VERTICES 649 648
OFFSETS vtktypeint64
0 1 2 3 4 5 6 7 8 
9 10 11 12 13 14 15 16 17 
18 19 20 21 22 23 24 25 26 
27 28 29 30 31 32 33 34 35 
36 37 38 39 40 41 42 43 44 
45 46 47 48 49 50 51 52 53 
54 55 56 57 58 59 60 61 62 
63 64 65 66 67 68 69 70 71 
72 73 74 75 76 77 78 79 80 
81 82 83 84 85 86 87 88 89 
90 91 92 93 94 95 96 97 98 
99 100 101 102 103 104 105 106 107 
108 109 110 111 112 113 114 115 116 
117 118 119 120 121 122 123 124 125 
126 127 128 129 130 131 132 133 134 
135 136 137 138 139 140 141 142 143 
144 145 146 147 148 149 150 151 152 
153 154 155 156 157 158 159 160 161 
162 163 164 165 166 167 168 169 170 
171 172 173 174 175 176 177 178 179 
180 181 182 183 184 185 186 187 188 
189 190 191 192 193 194 195 196 197 
198 199 200 201 202 203 204 205 206 
207 208 209 210 211 212 213 214 215 
216 217 218 219 220 221 222 223 224 
225 226 227 228 229 230 231 232 233 
234 235 236 237 238 239 240 241 242 
243 244 245 246 247 248 249 250 251 
252 253 254 255 256 257 258 259 260 
261 262 263 264 265 266 267 268 269 
270 271 272 273 274 275 276 277 278 
279 280 281 282 283 284 285 286 287 
288 289 290 291 292 293 294 295 296 
297 298 299 300 301 302 303 304 305 
306 307 308 309 310 311 312 313 314 
315 316 317 318 319 320 321 322 323 
324 325 326 327 328 329 330 331 332 
333 334 335 336 337 338 339 340 341 
342 343 344 345 346 347 348 349 350 
351 352 353 354 355 356 357 358 359 
360 361 362 363 364 365 366 367 368 
369 370 371 372 373 374 375 376 377 
378 379 380 381 382 383 384 385 386 
387 388 389 390 391 392 393 394 395 
396 397 398 399 400 401 402 403 404 
405 406 407 408 409 410 411 412 413 
414 415 416 417 418 419 420 421 422 
423 424 425 426 427 428 429 430 431 
432 433 434 435 436 437 438 439 440 
441 442 443 444 445 446 447 448 449 
450 451 452 453 454 455 456 457 458 
459 460 461 462 463 464 465 466 467 
468 469 470 471 472 473 474 475 476 
477 478 479 480 481 482 483 484 485 
486 487 488 489 490 491 492 493 494 
495 496 497 498 499 500 501 502 503 
504 505 506 507 508 509 510 511 512 
513 514 515 516 517 518 519 520 521 
522 523 524 525 526 527 528 529 530 
531 532 533 534 535 536 537 538 539 
540 541 542 543 544 545 546 547 548 
549 550 551 552 553 554 555 556 557 
558 559 560 561 562 563 564 565 566 
567 568 569 570 571 572 573 574 575 
576 577 578 579 580 581 582 583 584 
585 586 587 588 589 590 591 592 593 
594 595 596 597 598 599 600 601 602 
603 604 605 606 607 608 609 610 611 
612 613 614 615 616 617 618 619 620 
621 622 623 624 625 626 627 628 629 
630 631 632 633 634 635 636 637 638 
639 640 641 642 643 644 645 646 647 
648 
CONNECTIVITY vtktypeint64
0 1 2 3 4 5 6 7 8 
9 10 11 12 13 14 15 16 17 
18 19 20 21 22 23 24 25 26 
27 28 29 30 31 32 33 34 35 
36 37 38 39 40 41 42 43 44 
45 46 47 48 49 50 51 52 53 
54 55 56 57 58 59 60 61 62 
63 64 65 66 67 68 69 70 71 
72 73 74 75 76 77 78 79 80 
81 82 83 84 85 86 87 88 89 
90 91 92 93 94 95 96 97 98 
99 100 101 102 103 104 105 106 107 
108 109 110 111 112 113 114 115 116 
117 118 119 120 121 122 123 124 125 
126 127 128 129 130 131 132 133 134 
135 136 137 138 139 140 141 142 143 
144 145 146 147 148 149 150 151 152 
153 154 155 156 157 158 159 160 161 
162 163 164 165 166 167 168 169 170 
171 172 173 174 175 176 177 178 179 
180 181 182 183 184 185 186 187 188 
189 190 191 192 193 194 195 196 197 
198 199 200 201 202 203 204 205 206 
207 208 209 210 211 212 213 214 215 
216 217 218 219 220 221 222 223 224 
225 226 227 228 229 230 231 232 233 
234 235 236 237 238 239 240 241 242 
243 244 245 246 247 248 249 250 251 
252 253 254 255 256 257 258 259 260 
261 262 263 264 265 266 267 268 269 
270 271 272 273 274 275 276 277 278 
279 280 281 282 283 284 285 286 287 
288 289 290 291 292 293 294 295 296 
297 298 299 300 301 302 303 304 305 
306 307 308 309 310 311 312 313 314 
315 316 317 318 319 320 321 322 323 
324 325 326 327 328 329 330 331 332 
333 334 335 336 337 338 339 340 341 
342 343 344 345 346 347 348 349 350 
351 352 353 354 355 356 357 358 359 
360 361 362 363 364 365 366 367 368 
369 370 371 372 373 374 375 376 377 
378 379 380 381 382 383 384 385 386 
387 388 389 390 391 392 393 394 395 
396 397 398 399 400 401 402 403 404 
405 406 407 408 409 410 411 412 413 
414 415 416 417 418 419 420 421 422 
423 424 425 426 427 428 429 430 431 
432 433 434 435 436 437 438 439 440 
441 442 443 444 445 446 447 448 449 
450 451 452 453 454 455 456 457 458 
459 460 461 462 463 464 465 466 467 
468 469 470 471 472 473 474 475 476 
477 478 479 480 481 482 483 484 485 
486 487 488 489 490 491 492 493 494 
495 496 497 498 499 500 501 502 503 
504 505 506 507 508 509 510 511 512 
513 514 515 516 517 518 519 520 521 
522 523 524 525 526 527 528 529 530 
531 532 533 534 535 536 537 538 539 
540 541 542 543 544 545 546 547 548 
549 550 551 552 553 554 555 556 557 
558 559 560 561 562 563 564 565 566 
567 568 569 570 571 572 573 574 575 
576 577 578 579 580 581 582 583 584 
585 586 587 588 589 590 591 592 593 
594 595 596 597 598 599 600 601 602 
603 604 605 606 607 608 609 610 611 
612 613 614 615 616 617 618 619 620 
621 622 623 624 625 626 627 628 629 
630 631 632 633 634 635 636 637 638 
639 640 641 642 643 644 645 646 647 

POINT_DATA 648
FIELD FieldData 12
id 1 648 int
164 98 463 366 200 346 140 218 457 
207 134 256 35 326 508 34 92 459 
115 356 226 24 367 88 51 347 303 
404 543 304 185 107 352 137 294 331 
128 291 121 190 267 282 37 64 167 
472 317 174 470 154 238 439 298 247 
289 355 496 73 176 444 381 168 290 
58 215 349 106 292 227 248 231 428 
127 157 293 324 260 399 72 336 368 
383 243 299 370 515 11 125 50 263 
57 385 257 542 132 66 341 83 465 
36 175 90 186 538 334 86 418 458 
141 495 407 478 456 396 467 353 454 
450 423 129 165 261 197 288 255 214 
420 601 432 373 345 60 401 384 297 
169 322 150 491 310 202 469 193 40 
433 339 392 110 417 364 117 521 149 
166 49 337 18 330 219 109 189 100 
162 195 163 199 461 410 504 321 506 
488 187 343 201 158 268 26 327 253 
148 348 270 85 251 233 232 437 362 
320 246 328 76 318 155 435 386 361 
277 412 62 372 108 19 406 614 275 
242 534 188 84 31 113 390 562 591 
597 549 87 99 314 312 173 411 122 
22 82 67 436 492 402 319 47 605 
229 571 616 477 570 505 525 333 398 
283 139 533 120 445 527 409 645 415 
604 532 484 71 513 449 576 547 237 
479 440 44 551 517 572 422 374 240 
194 500 612 490 211 380 566 259 638 
101 427 483 39 6 42 615 224 567 
360 135 204 564 365 75 389 499 300 
598 284 56 593 216 245 486 545 546 
426 528 316 424 112 497 464 181 273 
378 21 46 633 236 63 178 308 228 
468 473 54 152 485 443 447 161 357 
254 104 97 14 12 507 131 408 535 
280 524 540 81 583 222 29 94 494 
579 313 391 452 559 523 249 91 375 
302 475 272 351 172 55 438 241 89 
93 258 414 203 471 68 52 429 577 
271 136 210 359 102 487 159 344 518 
388 489 69 350 156 589 239 307 250 
393 295 103 502 354 96 147 183 335 
430 493 116 79 234 526 416 192 323 
329 160 111 403 25 28 177 448 274 
462 553 170 143 376 74 306 276 59 
441 460 146 8 43 340 23 264 38 
3 311 95 563 53 511 522 32 580 
278 377 285 252 105 133 142 20 592 
382 405 151 371 205 217 265 80 196 
565 208 77 61 519 212 244 305 379 
503 501 474 126 153 301 425 213 124 
144 145 453 400 338 296 480 442 221 
262 446 17 119 41 395 363 48 70 
358 315 220 184 7 587 118 281 514 
33 138 431 529 279 287 130 325 394 
191 520 78 206 9 498 266 30 209 
509 179 451 114 596 419 332 481 65 
180 466 455 225 235 387 552 421 309 
286 482 182 198 413 45 536 123 434 
342 397 476 626 5 13 223 573 539 
16 10 171 2 4 15 369 550 516 
530 628 613 556 510 561 269 623 548 
558 599 557 560 594 230 574 27 622 
637 618 585 554 617 586 578 582 600 
643 635 584 581 541 603 537 569 595 
607 611 531 555 639 629 620 590 624 
575 648 544 647 641 632 568 625 609 
644 610 512 619 646 634 636 627 608 
602 631 606 642 621 630 1 640 588 

type 1 648 int
1 1 1 1 1 1 1 1 1 
1 1 1 1 1 1 1 1 1 
1 1 1 1 1 1 1 1 1 
1 1 1 1 1 1 1 1 1 
1 1 1 1 1 1 1 1 1 
1 1 1 1 1 1 1 1 1 
1 1 1 1 1 1 1 1 1 
1 1 1 1 1 1 1 1 1 
1 1 1 1 1 1 1 1 1 
1 1 1 1 1 2 1 1 1 
1 1 1 1 1 1 1 1 1 
1 1 1 1 1 1 1 1 1 
1 1 1 1 1 1 1 1 1 
1 1 1 1 1 1 1 1 1 
1 1 1 1 1 1 1 1 1 
1 1 1 1 1 1 1 1 1 
1 1 1 1 1 1 1 1 1 
1 1 1 1 1 1 1 1 1 
1 1 1 1 1 1 1 1 1 
1 1 1 1 1 1 1 1 1 
1 1 1 1 1 1 1 1 1 
1 1 1 1 1 1 1 1 1 
1 1 1 1 1 1 1 1 1 
1 1 1 1 1 1 1 1 1 
1 1 1 1 1 1 1 1 1 
1 1 1 1 1 1 1 1 1 
1 1 1 1 1 1 1 1 1 
1 1 1 1 1 1 1 1 1 
1 1 1 1 1 1 1 1 1 
1 1 1 1 1 1 1 1 1 
1 1 1 1 1 1 1 1 1 
1 1 1 1 2 1 1 1 1 
1 1 1 1 1 1 1 1 1 
1 1 1 1 1 1 1 1 1 
1 1 1 1 1 1 1 1 1 
1 1 1 1 1 1 1 1 1 
1 1 1 1 1 1 1 1 1 
1 1 1 2 2 1 1 1 1 
1 1 1 1 1 1 1 1 1 
1 1 1 1 1 1 1 1 1 
1 1 1 1 1 1 1 1 1 
1 1 1 1 1 1 1 1 1 
1 1 1 1 1 1 1 1 1 
1 1 1 1 1 1 1 1 1 
1 1 1 1 1 1 1 1 1 
1 1 1 1 1 1 1 1 1 
1 1 1 1 1 1 1 1 1 
1 1 1 1 1 1 1 1 1 
1 1 1 2 1 1 1 1 1 
2 1 1 1 1 1 1 1 1 
1 1 1 1 1 1 1 1 1 
1 1 1 1 1 1 1 1 1 
1 1 1 1 1 1 1 1 1 
1 1 1 1 1 1 1 1 1 
1 1 1 1 1 1 1 1 1 
1 1 1 1 1 1 1 1 1 
1 1 1 1 2 1 1 1 1 
1 1 1 1 1 1 1 1 1 
1 1 1 1 2 1 1 1 1 
1 1 1 1 1 1 1 1 1 
1 1 1 1 1 1 1 1 1 
1 1 1 1 1 1 1 1 1 
1 1 1 1 2 2 1 1 1 
2 2 1 3 2 2 1 1 2 
1 1 1 1 1 1 1 1 1 
1 1 1 1 1 1 1 1 1 
1 1 1 1 1 1 1 1 1 
1 1 1 1 1 1 1 1 1 
1 1 1 1 1 1 1 1 1 
1 1 1 1 1 1 1 1 1 
1 1 2 1 1 2 1 1 1 
1 1 1 1 1 1 4 1 1 

i 3 648 int
0 0 0 0 0 0 0 0 0 
0 0 0 0 0 0 0 0 0 
0 0 0 0 0 0 0 0 0 
0 0 0 0 0 0 0 0 0 
0 0 0 0 0 0 0 0 0 
0 0 0 0 0 0 0 0 0 
0 0 0 0 0 0 0 0 0 
0 0 0 0 0 0 0 0 0 
0 0 0 0 0 0 0 0 0 
0 0 0 0 0 0 0 0 0 
0 0 0 0 0 0 0 0 0 
0 0 0 0 0 0 0 0 0 
0 0 0 0 0 0 0 0 0 
0 0 0 0 0 0 0 0 0 
0 0 0 0 0 0 0 0 0 
0 0 0 0 0 0 0 0 0 
0 0 0 0 0 0 0 0 0 
0 0 0 0 0 0 0 0 0 
0 0 0 0 0 0 0 0 0 
0 0 0 0 0 0 0 0 0 
0 0 0 0 0 0 0 0 0 
0 0 0 0 0 0 0 0 0 
0 0 0 0 0 0 0 0 0 
0 0 0 0 0 0 0 0 0 
0 0 0 0 0 0 0 0 0 
0 0 0 0 0 0 0 0 0 
0 0 0 0 0 0 0 0 0 
0 0 0 0 0 0 0 0 0 
0 0 0 0 0 0 0 0 0 
0 0 0 0 0 0 0 0 0 
0 0 0 0 0 0 0 0 0 
0 0 0 0 0 0 0 0 0 
0 0 0 0 0 0 0 0 0 
0 0 0 0 0 0 0 0 0 
0 0 0 0 0 0 0 0 0 
0 0 0 0 0 0 0 0 0 
0 0 0 0 0 0 0 0 0 
0 0 0 0 0 0 0 0 0 
0 0 0 0 0 0 0 0 0 
0 0 0 0 0 0 0 0 0 
0 0 0 0 0 0 0 0 0 
0 0 0 0 0 0 0 0 0 
0 0 0 0 0 0 0 0 0 
0 0 0 0 0 0 0 0 0 
0 0 0 0 0 0 0 0 0 
0 0 0 0 0 0 0 0 0 
0 0 0 0 0 0 0 0 0 
0 0 0 0 0 0 0 0 0 
0 0 0 0 0 0 0 0 0 
0 0 0 0 0 0 0 0 0 
0 0 0 0 0 0 0 0 0 
0 0 0 0 0 0 0 0 0 
0 0 0 0 0 0 0 0 0 
0 0 0 0 0 0 0 0 0 
0 0 0 0 0 0 0 0 0 
0 0 0 0 0 0 0 0 0 
0 0 0 0 0 0 0 0 0 
0 0 0 0 0 0 0 0 0 
0 0 0 0 0 0 0 0 0 
0 0 0 0 0 0 0 0 0 
0 0 0 0 0 0 0 0 0 
0 0 0 0 0 0 0 0 0 
0 0 0 0 0 0 0 0 0 
0 0 0 0 0 0 0 0 0 
0 0 0 0 0 0 0 0 0 
0 0 0 0 0 0 0 0 0 
0 0 0 0 0 0 0 0 0 
0 0 0 0 0 0 0 0 0 
0 0 0 0 0 0 0 0 0 
0 0 0 0 0 0 0 0 0 
0 0 0 0 0 0 0 0 0 
0 0 0 0 0 0 0 0 0 
0 0 0 0 0 0 0 0 0 
0 0 0 0 0 0 0 0 0 
0 0 0 0 0 0 0 0 0 
0 0 0 0 0 0 0 0 0 
0 0 0 0 0 0 0 0 0 
0 0 0 0 0 0 0 0 0 
0 0 0 0 0 0 0 0 0 
0 0 0 0 0 0 0 0 0 
0 0 0 0 0 0 0 0 0 
0 0 0 0 0 0 0 0 0 
0 0 0 0 0 0 0 0 0 
0 0 0 0 0 0 0 0 0 
0 0 0 0 0 0 0 0 0 
0 0 0 0 0 0 0 0 0 
0 0 0 0 0 0 0 0 0 
0 0 0 0 0 0 0 0 0 
0 0 0 0 0 0 0 0 0 
0 0 0 0 0 0 0 0 0 
0 0 0 0 0 0 0 0 0 
0 0 0 0 0 0 0 0 0 
0 0 0 0 0 0 0 0 0 
0 0 0 0 0 0 0 0 0 
0 0 0 0 0 0 0 0 0 
0 0 0 0 0 0 0 0 0 
0 0 0 0 0 0 0 0 0 
0 0 0 0 0 0 0 0 0 
0 0 0 0 0 0 0 0 0 
0 0 0 0 0 0 0 0 0 
0 0 0 0 0 0 0 0 0 
0 0 0 0 0 0 0 0 0 
0 0 0 0 0 0 0 0 0 
0 0 0 0 0 0 0 0 0 
0 0 0 0 0 0 0 0 0 
0 0 0 0 0 0 0 0 0 
0 0 0 0 0 0 0 0 0 
0 0 0 0 0 0 0 0 0 
0 0 0 0 0 0 0 0 0 
0 0 0 0 0 0 0 0 0 
0 0 0 0 0 0 0 0 0 
0 0 0 0 0 0 0 0 0 
0 0 0 0 0 0 0 0 0 
0 0 0 0 0 0 0 0 0 
0 0 0 0 0 0 0 0 0 
0 0 0 0 0 0 0 0 0 
0 0 0 0 0 0 0 0 0 
0 0 0 0 0 0 0 0 0 
0 0 0 0 0 0 0 0 0 
0 0 0 0 0 0 0 0 0 
0 0 0 0 0 0 0 0 0 
0 0 0 0 0 0 0 0 0 
0 0 0 0 0 0 0 0 0 
0 0 0 0 0 0 0 0 0 
0 0 0 0 0 0 0 0 0 
0 0 0 0 0 0 0 0 0 
0 0 0 0 0 0 0 0 0 
0 0 0 0 0 0 0 0 0 
0 0 0 0 0 0 0 0 0 
0 0 0 0 0 0 0 0 0 
0 0 0 0 0 0 0 0 0 
0 0 0 0 0 0 0 0 0 
0 0 0 0 0 0 0 0 0 
0 0 0 0 0 0 0 0 0 
0 0 0 0 0 0 0 0 0 
0 0 0 0 0 0 0 0 0 
0 0 0 0 0 0 0 0 0 
0 0 0 0 0 0 0 0 0 
0 0 0 0 0 0 0 0 0 
0 0 0 0 0 0 0 0 0 
0 0 0 0 0 0 0 0 0 
0 0 0 0 0 0 0 0 0 
0 0 0 0 0 0 0 0 0 
0 0 0 0 0 0 0 0 0 
0 0 0 0 0 0 0 0 0 
0 0 0 0 0 0 0 0 0 
0 0 0 0 0 0 0 0 0 
0 0 0 0 0 0 0 0 0 
0 0 0 0 0 0 0 0 0 
0 0 0 0 0 0 0 0 0 
0 0 0 0 0 0 0 0 0 
0 0 0 0 0 0 0 0 0 
0 0 0 0 0 0 0 0 0 
0 0 0 0 0 0 0 0 0 
0 0 0 0 0 0 0 0 0 
0 0 0 0 0 0 0 0 0 
0 0 0 0 0 0 0 0 0 
0 0 0 0 0 0 0 0 0 
0 0 0 0 0 0 0 0 0 
0 0 0 0 0 0 0 0 0 
0 0 0 0 0 0 0 0 0 
0 0 0 0 0 0 0 0 0 
0 0 0 0 0 0 0 0 0 
0 0 0 0 0 0 0 0 0 
0 0 0 0 0 0 0 0 0 
0 0 0 0 0 0 0 0 0 
0 0 0 0 0 0 0 0 0 
0 0 0 0 0 0 0 0 0 
0 0 0 0 0 0 0 0 0 
0 0 0 0 0 0 0 0 0 
0 0 0 0 0 0 0 0 0 
0 0 0 0 0 0 0 0 0 
0 0 0 0 0 0 0 0 0 
0 0 0 0 0 0 0 0 0 
0 0 0 0 0 0 0 0 0 
0 0 0 0 0 0 0 0 0 
0 0 0 0 0 0 0 0 0 
0 0 0 0 0 0 0 0 0 
0 0 0 0 0 0 0 0 0 
0 0 0 0 0 0 0 0 0 
0 0 0 0 0 0 0 0 0 
0 0 0 0 0 0 0 0 0 
0 0 0 0 0 0 0 0 0 
0 0 0 0 0 0 0 0 0 
0 0 0 0 0 0 0 0 0 
0 0 0 0 0 0 0 0 0 
0 0 0 0 0 0 0 0 0 
0 0 0 0 0 0 0 0 0 
0 0 0 0 0 0 0 0 0 
0 0 0 0 0 0 0 0 0 
0 0 0 0 0 0 0 0 0 
0 0 0 0 0 0 0 0 0 
0 0 0 0 0 0 0 0 0 
0 0 0 0 0 0 0 0 0 
0 0 0 0 0 0 0 0 0 
0 0 0 0 0 0 0 0 0 
0 0 0 0 0 0 0 0 0 
0 0 0 0 0 0 0 0 0 
0 0 0 0 0 0 0 0 0 
0 0 0 0 0 0 0 0 0 
0 0 0 0 0 0 0 0 0 
0 0 0 0 0 0 0 0 0 
0 0 0 0 0 0 0 0 0 
0 0 0 0 0 0 0 0 0 
0 0 0 0 0 0 0 0 0 
0 0 0 0 0 0 0 0 0 
0 0 0 0 0 0 0 0 0 
0 0 0 0 0 0 0 0 0 
0 0 0 0 0 0 0 0 0 
0 0 0 0 0 0 0 0 0 
0 0 0 0 0 0 0 0 0 
0 0 0 0 0 0 0 0 0 
0 0 0 0 0 0 0 0 0 
0 0 0 0 0 0 0 0 0 
0 0 0 0 0 0 0 0 0 
0 0 0 0 0 0 0 0 0 

v 3 648 double
0 0 3.2413285931e-14 0 0 0.025041172315 0 0 3.2413285929e-14 
0 0 -0.026907092055 0 0 3.2413290076e-14 0 0 0.016454928319 
0 0 -0.019886581766 0 0 8.0432443462e-14 0 0 0.0066568580733 
0 0 -0.0092283322786 0 0 0.00039296352457 0 0 -0.025996339253 
0 0 -0.0024499412465 0 0 0.028429178918 0 0 3.241328596e-14 
0 0 -0.0092369964834 0 0 3.2413286072e-14 0 0 3.2413289944e-14 
0 0 3.2413286006e-14 0 0 -1.5605879955e-14 0 0 0.0093677082449 
0 0 3.2413286102e-14 0 0 -0.011332541883 0 0 8.0432443439e-14 
0 0 8.0432447536e-14 0 0 3.241329003e-14 0 0 0.0025867592528 
0 0 3.2413290061e-14 0 0 0.0072864143162 0 0 3.2413289938e-14 
0 0 8.0432447378e-14 0 0 8.0432447469e-14 0 0 0.014618340337 
0 0 8.0432443568e-14 0 0 0.023482416596 0 0 8.0432443464e-14 
0 0 0.0092073878082 0 0 -0.0096196432175 0 0 -0.0003294150469 
0 0 3.2413289933e-14 0 0 3.2413285961e-14 0 0 8.0432447432e-14 
0 0 0.079443313637 0 0 -0.017993431821 0 0 0.0031448863312 
0 0 -0.0073041173664 0 0 8.0432447426e-14 0 0 0.027506440954 
0 0 8.0432443599e-14 0 0 8.0432443456e-14 0 0 0.0025389512515 
0 0 8.0432443441e-14 0 0 -0.075307189682 0 0 -0.020724436219 
0 0 -1.5605879989e-14 0 0 3.2413286097e-14 0 0 0.01939145323 
0 0 -0.014167347486 0 0 -0.0060965569032 0 0 8.0432443553e-14 
0 0 -0.0099936456295 0 0 -0.0051435053891 0 0 -0.084755329009 
0 0 -0.023098236711 0 0 0.001606948387 0 0 0.011283494703 
0 0 3.2413290023e-14 0 0 8.043244346e-14 0 0 -0.0018025803625 
0 0 0.026701211849 0 0 3.2413289993e-14 0 0 8.0432447411e-14 
0 0 0.0034844213513 0 0 0.0027182392174 0 0 8.0432443474e-14 
0 0 0.0054514867723 0 0 0.020712146057 0 0 -0.085204835312 
0 0 8.0432443602e-14 0 0 0.012092429588 0 0 -0.080956990152 
0 0 3.2413285982e-14 0 0 0.0032989951692 0 0 0.0015923783686 
0 0 8.0432447573e-14 0 0 8.0432443539e-14 0 0 -0.10359512272 
0 0 -0.010396829674 0 0 0.097685232163 0 0 0.031593914218 
0 0 8.0432443644e-14 0 0 0.0023073810777 0 0 0.025180225473 
0 0 0.0083640325678 0 0 3.2413286008e-14 0 0 3.2413289914e-14 
0 0 0.011837774134 0 0 0.0018100306433 0 0 -1.560588404e-14 
0 0 8.0432443503e-14 0 0 3.24132899e-14 0 0 0.014779680254 
0 0 -0.026125470397 0 0 -0.00067130574478 0 0 -0.012338172968 
0 0 -0.0032965090301 0 0 8.0432443491e-14 0 0 8.0432443537e-14 
0 0 0.00046075627293 0 0 0.029855801889 0 0 8.0432443498e-14 
0 0 3.2413285952e-14 0 0 8.0432443535e-14 0 0 8.0432443665e-14 
0 0 8.0432447559e-14 0 0 0.00019812268326 0 0 0.021236902097 
0 0 8.0432447373e-14 0 0 0.0032745923846 0 0 0.0033786710779 
0 0 -0.021229065894 0 0 8.0432443639e-14 0 0 3.2413289894e-14 
0 0 3.2413286133e-14 0 0 3.241328603e-14 0 0 3.2413286034e-14 
0 0 -0.00061379081497 0 0 0.013105601599 0 0 8.0432443489e-14 
0 0 -0.019685623023 0 0 -0.080096498226 0 0 0.00047695284053 
0 0 -0.023171405017 0 0 -0.072646059209 0 0 8.0432443443e-14 
0 0 3.2413285951e-14 0 0 3.2413290037e-14 0 0 8.0432447588e-14 
0 0 8.043244739e-14 0 0 8.0432443526e-14 0 0 -0.007915021435 
0 0 0.027739950463 0 0 0.0020907437592 0 0 0.0062052372296 
0 0 8.043244366e-14 0 0 8.0432443654e-14 0 0 0.0043518115776 
0 0 8.0432443436e-14 0 0 0.02038250189 0 0 -0.022408552946 
0 0 0.016164448983 0 0 3.2413285938e-14 0 0 -1.0736851394e-13 
0 0 -1.5605883967e-14 0 0 8.043244349e-14 0 0 0.02270525852 
0 0 8.0432447524e-14 0 0 -0.074562071673 0 0 3.2413286037e-14 
0 0 0.022543574965 0 0 0.010321505637 0 0 0.0071721829883 
0 0 0.002641979098 0 0 3.2413286009e-14 0 0 3.2413289873e-14 
0 0 0.012520964233 0 0 -0.0090289802646 0 0 -0.0043209676855 
0 0 0.0015734719017 0 0 0.01766768974 0 0 8.0432447534e-14 
0 0 -0.026316401751 0 0 0.0002285180832 0 0 0.027059075546 
0 0 -0.0093911920608 0 0 -0.0038034384239 0 0 0.020402128256 
0 0 0.0022229827773 0 0 8.0432447369e-14 0 0 0.000535579649 
0 0 0.0055814518811 0 0 0.012980605537 0 0 8.0432443508e-14 
0 0 3.2413285921e-14 0 0 -0.0021054721626 0 0 -0.024378290216 
0 0 -0.070940206377 0 0 0.020758761761 0 0 3.2413289953e-14 
0 0 -0.0094731834786 0 0 8.0432447367e-14 0 0 -6.2089817535e-08 
0 0 -0.074059272839 0 0 0.0020707541534 0 0 -0.0011150457938 
0 0 0.0032541310255 0 0 8.04324474e-14 0 0 0.01691130696 
0 0 0.093786679894 0 0 8.0432443557e-14 0 0 -0.008180586549 
0 0 3.241328594e-14 0 0 0.0060094671883 0 0 0.093937856865 
0 0 0.005868401649 0 0 0.065509772835 0 0 -0.065208777847 
0 0 0.062313218267 0 0 0.061396986473 0 0 -0.079207024628 
0 0 -0.050669265204 0 0 -0.060354848579 0 0 -0.062127124485 
0 0 -0.066211706662 0 0 -0.057786930112 0 0 -0.0024868857598 
0 0 -0.19216952433 0 0 0.030082581097 0 0 -0.013427881897 
0 0 -0.036508902213 0 0 -0.07457750089 0 0 0.052189342115 
0 0 0.088385797645 0 0 -0.059864795507 0 0 -0.062076438132 
0 0 -0.079950525905 0 0 -0.046907364162 0 0 0.077391336013 
0 0 -0.0340445161 0 0 0.07197739068 0 0 0.068840846711 
0 0 -0.080292016091 0 0 0.066525545295 0 0 -0.013884306266 
0 0 -0.08096830771 0 0 -0.056084881538 0 0 -0.20688501091 
0 0 -0.043280607206 0 0 -0.0051927769635 0 0 -0.070234964456 
0 0 -0.23270165314 0 0 -0.055502123167 0 0 -0.25867452226 
0 0 0.073238087148 0 0 -0.034742429603 0 0 0.053832468387 
0 0 0.079167764546 0 0 -0.066679363226 0 0 0.085491114556 
0 0 -0.076924048771 0 0 -0.0016279266372 0 0 -0.071842907915 
0 0 0.024755966773 0 0 0.073229224703 0 0 -0.04490230787 
0 0 -0.07364914965 0 0 -0.23688952776 0 0 -0.031377646246 
0 0 0.039056156135 0 0 0.073856390622 0 0 -0.018497232297 
0 0 -0.00072601768353 0 0 0.00096814073601 0 0 0.055480514283 
0 0 0.063395126529 0 0 -0.23974352971 0 0 -0.01801943985 
0 0 0.06063603359 0 0 -0.046296612174 0 0 -0.06047110692 
0 0 -0.044328312685 0 0 -0.082178042741 0 0 -0.049281798535 
0 0 0.065465301512 0 0 -0.047241797788 0 0 -0.053661632314 
0 0 0.061176825196 0 0 0.074693949694 0 0 0.062999276359 
0 0 0.079557931334 0 0 -0.0015929039592 0 0 0.0050130334091 
0 0 0.079231945785 0 0 0.0084720721708 0 0 -0.064917166992 
0 0 -0.019252147686 0 0 0.083811192507 0 0 -0.063022650251 
0 0 -0.065030704563 0 0 -0.067288306603 0 0 -0.052856250409 
0 0 0.039833702613 0 0 0.072942660503 0 0 -0.055174475784 
0 0 0.065588320391 0 0 0.083191573803 0 0 0.083619823196 
0 0 -0.19040006863 0 0 0.065452966237 0 0 -0.00031942570563 
0 0 0.040119189589 0 0 -0.044431700482 0 0 0.066521817871 
0 0 -0.057481591964 0 0 0.080323988661 0 0 -0.050746134785 
0 0 -0.064742720112 0 0 0.034597022262 0 0 -0.26770159686 
0 0 -0.071781204669 0 0 -0.071155401468 0 0 -0.02515006377 
0 0 0.092798698422 0 0 -0.031636400096 0 0 -0.07312910127 
0 0 -0.05619548548 0 0 -0.065852692996 0 0 -0.034889788474 
0 0 -0.18648643449 0 0 -0.051359730445 0 0 -0.033809384288 
0 0 -0.047615493397 0 0 -0.00963437067 0 0 0.063008762978 
0 0 0.068982017793 0 0 0.065445749508 0 0 -0.059074890326 
0 0 0.077416934744 0 0 0.049338326556 0 0 -0.043928053239 
0 0 -0.05838389359 0 0 -0.059009414631 0 0 -0.062495298129 
0 0 -0.036418167521 0 0 -0.067045110635 0 0 0.079277301896 
0 0 -0.081444420698 0 0 -0.098397965167 0 0 -0.060400669607 
0 0 0.063501924452 0 0 0.016411544418 0 0 -0.20695433477 
0 0 0.0088457396374 0 0 0.058878757332 0 0 -0.23309172902 
0 0 -0.03818930732 0 0 0.054788486711 0 0 -0.068992645253 
0 0 -0.015748067932 0 0 -0.060031525178 0 0 0.092267689285 
0 0 0.057654102983 0 0 -0.039003102913 0 0 0.093709594047 
0 0 0.054619646457 0 0 -0.01870045441 0 0 0.062357987076 
0 0 0.090815581429 0 0 -0.08518901987 0 0 -0.05654507191 
0 0 -0.046216924902 0 0 -0.04512046606 0 0 0.0014777821548 
0 0 -0.076371311161 0 0 0.09409167475 0 0 -0.051208714287 
0 0 -0.047464677013 0 0 -0.24824603492 0 0 0.0056737873986 
0 0 0.006254036268 0 0 0.051817514018 0 0 -0.028571295169 
0 0 0.014587299384 0 0 0.039301899495 0 0 0.014355258763 
0 0 -0.0026254154081 0 0 -0.051700705768 0 0 -0.018911784805 
0 0 -0.03110305054 0 0 0.055054077522 0 0 0.049165101406 
0 0 0.041447099639 0 0 -0.0050325646455 0 0 -0.012501011559 
0 0 -0.010917970047 0 0 0.017043538511 0 0 0.045810204771 
0 0 0.04971061403 0 0 -0.045829459465 0 0 -0.0085400827773 
0 0 0.020555954743 0 0 0.0030352405819 0 0 -0.017920043002 
0 0 0.016337339651 0 0 0.0582885482 0 0 0.0032816542206 
0 0 -0.00052644615158 0 0 -0.028188104753 0 0 0.0047579346177 
0 0 -0.0075074201981 0 0 0.020254541419 0 0 -0.030780818327 
0 0 0.019964747288 0 0 -0.048616962497 0 0 0.046505430088 
0 0 0.02845372645 0 0 -0.0080815315087 0 0 0.0036115050273 
0 0 0.0067377601257 0 0 0.061240452373 0 0 0.0085197840789 
0 0 -0.0072241786827 0 0 0.034514329547 0 0 -0.0059032619732 
0 0 -0.0056635882803 0 0 -0.014801715228 0 0 -0.0020548903861 
0 0 0.01060909377 0 0 0.010872129792 0 0 -0.031196513039 
0 0 0.052937973701 0 0 0.050756712877 0 0 -0.03195447966 
0 0 -0.0023132597887 0 0 0.021160003575 0 0 -0.021813918028 
0 0 -0.015762163779 0 0 0.034864497115 0 0 0.0035524949248 
0 0 0.00574362391 0 0 0.033888238994 0 0 -0.026750726092 
0 0 0.060226975175 0 0 0.017665362997 0 0 -0.014572409452 
0 0 -0.061335518895 0 0 0.021973086398 0 0 0.051768951836 
0 0 0.041287129516 0 0 0.016129027281 0 0 0.0050393989051 
0 0 -0.26590840783 0 0 -0.034534521785 0 0 -0.0026561783816 
0 0 0.016207458629 0 0 -0.021903760085 0 0 0.016254359978 
0 0 0.060238774248 0 0 -0.045645848541 0 0 0.037334122588 
0 0 -0.033899191176 0 0 -0.036145792241 0 0 0.030135078492 
0 0 -0.0065713037983 0 0 0.011923219276 0 0 -0.24946865492 
0 0 -0.0036653784469 0 0 -0.028322604265 0 0 -0.014871179594 
0 0 0.026742414386 0 0 0.0098354062366 0 0 -0.033028929308 
0 0 -0.0055264572887 0 0 -0.00076752877731 0 0 0.0102509239 
0 0 -0.00096411178097 0 0 0.056280419237 0 0 -0.033886034053 
0 0 0.034039625074 0 0 -0.001498615872 0 0 0.049128543828 
0 0 -0.05073659512 0 0 0.039325070287 0 0 0.026174066122 
0 0 -0.010059520324 0 0 0.017643705134 0 0 0.01203381797 
0 0 -0.030131957374 0 0 0.040100609671 0 0 -0.027661671606 
0 0 -0.03053292384 0 0 0.038544844574 0 0 0.023538854533 
0 0 0.043859265792 0 0 0.035634632116 0 0 0.025821665687 
0 0 0.0048927295499 0 0 0.035659587248 0 0 0.035619547534 
0 0 0.022772790981 0 0 -0.042693005858 0 0 0.037571755101 
0 0 0.049102743202 0 0 0.044431448337 0 0 0.031045092756 
0 0 -0.013924968149 0 0 -0.050641536599 0 0 0.0012217304978 
0 0 -0.027286929027 0 0 0.040887582772 0 0 -0.02094774899 
0 0 0.0031229313155 0 0 0.05996559349 0 0 0.024052949678 
0 0 0.0071310005457 0 0 0.038329581341 0 0 -0.023570530365 
0 0 0.024107944825 0 0 -0.2647158538 0 0 0.01721183688 
0 0 -0.014343167082 0 0 0.037926635554 0 0 0.026685375234 
0 0 -0.02348138173 0 0 0.00026007659083 0 0 -0.012675642569 
0 0 -0.035515804598 0 0 -0.018903013933 0 0 -0.046530690966 
0 0 0.032702745285 0 0 0.0062176100045 0 0 -0.0023943489767 
0 0 0.052892290225 0 0 0.0061468243199 0 0 0.035452601528 
0 0 -0.020495829894 0 0 -0.05852481282 0 0 -0.037259410047 
0 0 0.0089392408487 0 0 -0.051827393183 0 0 0.063086573619 
0 0 -0.038801434947 0 0 0.036532451215 0 0 -0.039122299862 
0 0 -0.038712332873 0 0 -0.20527165769 0 0 -0.0046348954814 
0 0 0.049902379149 0 0 0.0031917973522 0 0 0.0037574409431 
0 0 0.039823456539 0 0 0.047021992732 0 0 0.0095455054214 
0 0 -0.003909552447 0 0 0.0013931425946 0 0 0.0092602558066 
0 0 -0.19550600558 0 0 0.026952829163 0 0 0.00023915923769 
0 0 0.0059158576222 0 0 0.040489632443 0 0 -0.034890114965 
0 0 -0.042143771697 0 0 -0.021121290373 0 0 -0.0072183767448 
0 0 -0.018659434709 0 0 0.0095471014259 0 0 0.060666272975 
0 0 0.0064340822564 0 0 -0.028509980369 0 0 0.029522957775 
0 0 -0.16104084954 0 0 -0.025271568557 0 0 -0.040961499182 
0 0 -0.0057495634708 0 0 -0.2040362686 0 0 -0.2083416418 
0 0 -0.019788454374 0 0 -0.025987103618 0 0 0.014314611233 
0 0 0.082738403854 0 0 0.01857346019 0 0 0.048893980126 
0 0 -0.2440754545 0 0 -0.20688935586 0 0 -0.23581109518 
0 0 -0.20571085698 0 0 -0.17756819381 0 0 -0.18750974847 
0 0 -0.17363507241 0 0 -0.21421905743 0 0 -0.19998313152 
0 0 -0.24400732405 0 0 -0.18779823433 0 0 -0.19185839925 
0 0 -0.19868441295 0 0 -0.17373745611 0 0 -0.19399589719 
0 0 -0.18985705742 0 0 -0.1831973551 0 0 -0.23212033896 
0 0 -0.14630520185 0 0 -0.23550914059 0 0 -0.16147137269 
0 0 -0.16263707394 0 0 -0.16323565465 0 0 -0.16720633683 
0 0 -0.17066323499 0 0 -0.16113911469 0 0 -0.1625771433 
0 0 -0.14883024816 0 0 -0.11570226716 0 0 -0.11903862415 
0 0 -0.10613881111 0 0 -0.12644023526 0 0 -0.10855722677 
0 0 -0.1418392446 0 0 -0.15439812742 0 0 -0.1305808158 
0 0 -0.15666571036 0 0 -0.14805426272 0 0 -0.14389857689 
0 0 -0.13764211347 0 0 -0.11603083729 0 0 -0.16230031537 
0 0 -0.14635827787 0 0 -0.1262328406 0 0 -0.11630951384 
0 0 -0.1211791738 0 0 -0.12404723678 0 0 -0.083018035309 
0 0 -0.11796597536 0 0 -0.078778633369 0 0 -0.12319366144 
0 0 -0.078934351834 0 0 -0.048522576023 0 0 -0.071734665462 
0 0 -0.097647400863 0 0 -0.091866450911 0 0 -0.081959829205 
0 0 -0.055002340952 0 0 -0.093331237945 0 0 -0.16569586008 
0 0 -0.064665580894 0 0 -0.054420378313 0 0 -0.083040760928 
0 0 -0.033650030268 0 0 -0.031367617006 0 0 -0.076756727588 
0 0 -0.061717075658 0 0 -0.046932232003 0 0 -0.065840537472 
0 0 -0.014298487218 0 0 -0.029899439589 0 0 -0.063188048472 
0 0 -0.21474504578 0 0 -0.0021956064542 0 0 -0.048632828675 

f 3 648 double
0 0 0 0 0 -1.7425367252e-10 0 0 0 
0 0 -1.7425367252e-10 0 0 0 0 0 -1.7425367252e-10 
0 0 -1.7425367252e-10 0 0 0 0 0 -1.7425367252e-10 
0 0 -1.7425367252e-10 0 0 -1.7425367252e-10 0 0 -1.7425367252e-10 
0 0 -1.7425367252e-10 0 0 -1.7425367252e-10 0 0 0 
0 0 -1.7425367252e-10 0 0 0 0 0 0 
0 0 0 0 0 0 0 0 -1.7425367252e-10 
0 0 0 0 0 -1.7425367252e-10 0 0 0 
0 0 0 0 0 0 0 0 -1.7425367252e-10 
0 0 0 0 0 -1.7425367252e-10 0 0 0 
0 0 0 0 0 0 0 0 -1.7425367252e-10 
0 0 0 0 0 -1.7425367252e-10 0 0 0 
0 0 -1.7425367252e-10 0 0 -1.7425367252e-10 0 0 -1.7425367252e-10 
0 0 0 0 0 0 0 0 0 
0 0 -1.7425367252e-10 0 0 -1.7425367252e-10 0 0 -1.7425367252e-10 
0 0 -1.7425367252e-10 0 0 0 0 0 -1.7425367252e-10 
0 0 0 0 0 0 0 0 -1.7425367252e-10 
0 0 0 0 0 -1.7425367252e-10 0 0 -1.7425367252e-10 
0 0 0 0 0 0 0 0 -1.7425367252e-10 
0 0 -1.7425367252e-10 0 0 -1.7425367252e-10 0 0 0 
0 0 -1.7425367252e-10 0 0 -1.7425367252e-10 0 0 -1.7425367252e-10 
0 0 -1.7425367252e-10 0 0 -1.7425367252e-10 0 0 -1.7425367252e-10 
0 0 0 0 0 0 0 0 -1.7425367252e-10 
0 0 -1.7425367252e-10 0 0 0 0 0 0 
0 0 -1.7425367252e-10 0 0 -1.7425367252e-10 0 0 0 
0 0 -1.7425367252e-10 0 0 -1.7425367252e-10 0 0 -1.7425367252e-10 
0 0 0 0 0 -1.7425367252e-10 0 0 -1.7425367252e-10 
0 0 0 0 0 -1.7425367252e-10 0 0 -1.7425367252e-10 
0 0 0 0 0 0 0 0 -8.9019973083e-09 
0 0 -1.7425367252e-10 0 0 -1.7425367252e-10 0 0 -1.7425367252e-10 
0 0 0 0 0 -1.7425367252e-10 0 0 -1.7425367252e-10 
0 0 -1.7425367252e-10 0 0 0 0 0 0 
0 0 -1.7425367252e-10 0 0 -1.7425367252e-10 0 0 0 
0 0 0 0 0 0 0 0 -1.7425367252e-10 
0 0 -1.7425367252e-10 0 0 -1.7425367252e-10 0 0 -1.7425367252e-10 
0 0 -1.7425367252e-10 0 0 0 0 0 0 
0 0 -1.7425367252e-10 0 0 -1.7425367252e-10 0 0 0 
0 0 0 0 0 0 0 0 0 
0 0 0 0 0 -1.7425367252e-10 0 0 -1.7425367252e-10 
0 0 0 0 0 -1.7425367252e-10 0 0 -1.7425367252e-10 
0 0 -1.7425367252e-10 0 0 0 0 0 0 
0 0 0 0 0 0 0 0 0 
0 0 -1.7425367252e-10 0 0 -1.7425367252e-10 0 0 0 
0 0 -1.7425367252e-10 0 0 -1.7425367252e-10 0 0 -1.7425367252e-10 
0 0 -1.7425367252e-10 0 0 -1.7425367252e-10 0 0 0 
0 0 0 0 0 0 0 0 0 
0 0 0 0 0 0 0 0 -1.7425367252e-10 
0 0 -1.7425367252e-10 0 0 -1.7425367252e-10 0 0 -1.7425367252e-10 
0 0 0 0 0 0 0 0 -1.7425367252e-10 
0 0 0 0 0 -1.7425367252e-10 0 0 -1.7425367252e-10 
0 0 -1.7425367252e-10 0 0 0 0 0 1.5070385486e-18 
0 0 0 0 0 0 0 0 -1.7425367252e-10 
0 0 0 0 0 -1.7425367252e-10 0 0 0 
0 0 -1.7425367252e-10 0 0 -1.7425367252e-10 0 0 -1.7425367252e-10 
0 0 -1.7425367252e-10 0 0 0 0 0 0 
0 0 -1.7425367252e-10 0 0 -1.7425367252e-10 0 0 -1.7425367252e-10 
0 0 -1.7425367252e-10 0 0 -1.7425367252e-10 0 0 0 
0 0 -1.7425367252e-10 0 0 -1.7425367252e-10 0 0 -1.7425367252e-10 
0 0 -1.7425367252e-10 0 0 -1.7425367252e-10 0 0 -1.7425367252e-10 
0 0 -1.7425367252e-10 0 0 0 0 0 -1.7425367252e-10 
0 0 -1.7425367252e-10 0 0 -1.7425367252e-10 0 0 0 
0 0 0 0 0 -1.7425367252e-10 0 0 -1.7425367252e-10 
0 0 -1.7425367252e-10 0 0 -1.7425367252e-10 0 0 0 
0 0 -1.7425367252e-10 0 0 0 0 0 6.3736134449e-13 
0 0 -1.7425367252e-10 0 0 -1.7425367252e-10 0 0 -1.7425367252e-10 
0 0 -1.7425367252e-10 0 0 0 0 0 -1.7425367252e-10 
0 0 -1.7425367252e-10 0 0 0 0 0 -1.7425367252e-10 
0 0 0 0 0 -1.7425367252e-10 0 0 -1.7425367252e-10 
0 0 -1.7425367252e-10 0 0 -1.7425367252e-10 0 0 -1.7425367252e-10 
0 0 -1.7425367252e-10 0 0 -1.7425367252e-10 0 0 -1.7425367252e-10 
0 0 -1.7425367252e-10 0 0 -1.7425367252e-10 0 0 -1.7425367252e-10 
0 0 -1.7425367252e-10 0 0 -1.7425367252e-10 0 0 -1.7425367252e-10 
0 0 -1.7425367252e-10 0 0 -1.7425367252e-10 0 0 -1.7425367252e-10 
0 0 -1.7425367252e-10 0 0 -1.7425367252e-10 0 0 -1.7425367252e-10 
0 0 -1.7425367252e-10 0 0 -1.7425367252e-10 0 0 -1.7425367252e-10 
0 0 -1.7425367252e-10 0 0 -1.7425367252e-10 0 0 -1.7425367252e-10 
0 0 -1.7425367252e-10 0 0 -1.7425367252e-10 0 0 -1.7425367252e-10 
0 0 -1.7425367252e-10 0 0 -1.7425367252e-10 0 0 -1.7425367252e-10 
0 0 -1.7425367252e-10 0 0 -1.7425367252e-10 0 0 -1.7425367252e-10 
0 0 -1.7425367252e-10 0 0 -1.7425367252e-10 0 0 -1.7425367252e-10 
0 0 -1.7425367252e-10 0 0 -1.7425367252e-10 0 0 -1.7425367252e-10 
0 0 -1.7425367252e-10 0 0 -1.7425367252e-10 0 0 -1.7425367252e-10 
0 0 -1.7425367252e-10 0 0 -1.7425367252e-10 0 0 -1.7425367252e-10 
0 0 -1.7425367252e-10 0 0 -1.7425367252e-10 0 0 -1.7425367252e-10 
0 0 -1.7425367252e-10 0 0 -1.7425367252e-10 0 0 -1.7425367252e-10 
0 0 -1.7425367252e-10 0 0 -1.7425367252e-10 0 0 -1.7425367252e-10 
0 0 -1.7425367252e-10 0 0 -1.7425367252e-10 0 0 -1.7425367252e-10 
0 0 -1.7425367252e-10 0 0 -1.7425367252e-10 0 0 -1.7425367252e-10 
0 0 -1.7425367252e-10 0 0 -1.7425367252e-10 0 0 -1.7425367252e-10 
0 0 -1.7425367252e-10 0 0 -1.7425367252e-10 0 0 -1.7425367252e-10 
0 0 -1.7425367252e-10 0 0 -1.7425367252e-10 0 0 -1.7425367252e-10 
0 0 -1.7425367252e-10 0 0 -1.7425367252e-10 0 0 -1.7425367252e-10 
0 0 -1.7425367252e-10 0 0 -1.7425367252e-10 0 0 -1.7425367252e-10 
0 0 -1.7425367252e-10 0 0 -1.7425367252e-10 0 0 -1.7425367252e-10 
0 0 -1.7425367252e-10 0 0 -8.9019973083e-09 0 0 -1.7425367252e-10 
0 0 -1.7425367252e-10 0 0 -1.7425367252e-10 0 0 -1.7425367252e-10 
0 0 -1.7425367252e-10 0 0 -1.7425367252e-10 0 0 -1.7425367252e-10 
0 0 -1.7425367252e-10 0 0 -1.7425367252e-10 0 0 -1.7425367252e-10 
0 0 -1.7425367252e-10 0 0 -1.7425367252e-10 0 0 -1.7425367252e-10 
0 0 -1.7425367252e-10 0 0 -1.7425367252e-10 0 0 -1.7425367252e-10 
0 0 -1.7425367252e-10 0 0 -1.7425367252e-10 0 0 -1.7425367252e-10 
0 0 -1.7425367252e-10 0 0 -1.7425367252e-10 0 0 -1.7425367252e-10 
0 0 -1.7425367252e-10 0 0 -1.7425367252e-10 0 0 -1.7425367252e-10 
0 0 -1.7425367252e-10 0 0 -1.7425367252e-10 0 0 -1.7425367252e-10 
0 0 -1.7425367252e-10 0 0 -1.7425367252e-10 0 0 -1.7425367252e-10 
0 0 -1.7425367252e-10 0 0 -1.7425367252e-10 0 0 -1.7425367252e-10 
0 0 -1.7425367252e-10 0 0 -1.7425367252e-10 0 0 -1.7425367252e-10 
0 0 -1.7425367252e-10 0 0 -1.7425367252e-10 0 0 -1.7425367252e-10 
0 0 -1.7425367252e-10 0 0 -1.7425367252e-10 0 0 -1.7425367252e-10 
0 0 -1.7425367252e-10 0 0 -1.7425367252e-10 0 0 -1.7425367252e-10 
0 0 -1.7425367252e-10 0 0 -1.7425367252e-10 0 0 -1.7425367252e-10 
0 0 -1.7425367252e-10 0 0 -1.7425367252e-10 0 0 -1.7425367252e-10 
0 0 -8.9019973083e-09 0 0 -8.9019973083e-09 0 0 -1.7425367252e-10 
0 0 -1.7425367252e-10 0 0 -1.7425367252e-10 0 0 -1.7425367252e-10 
0 0 -1.7425367252e-10 0 0 -1.7425367252e-10 0 0 -1.7425367252e-10 
0 0 -1.7425367252e-10 0 0 -1.7425367252e-10 0 0 -1.7425367252e-10 
0 0 -1.7425367252e-10 0 0 -1.7425367252e-10 0 0 -1.7425367252e-10 
0 0 -1.7425367252e-10 0 0 -1.7425367252e-10 0 0 -1.7425367252e-10 
0 0 -1.7425367252e-10 0 0 -1.7425367252e-10 0 0 -1.7425367252e-10 
0 0 -1.7425367252e-10 0 0 -1.7425367252e-10 0 0 -1.7425367252e-10 
0 0 -1.7425367252e-10 0 0 -1.7425367252e-10 0 0 -1.7425367252e-10 
0 0 -1.7425367252e-10 0 0 -1.7425367252e-10 0 0 -1.7425367252e-10 
0 0 -1.7425367252e-10 0 0 -1.7425367252e-10 0 0 -1.7425367252e-10 
0 0 -1.7425367252e-10 0 0 -1.7425367252e-10 0 0 -1.7425367252e-10 
0 0 -1.7425367252e-10 0 0 -1.7425367252e-10 0 0 -1.7425367252e-10 
0 0 -1.7425367252e-10 0 0 -1.7425367252e-10 0 0 -1.7425367252e-10 
0 0 -1.7425367252e-10 0 0 -1.7425367252e-10 0 0 -1.7425367252e-10 
0 0 -1.7425367252e-10 0 0 -1.7425367252e-10 0 0 -1.7425367252e-10 
0 0 -1.7425367252e-10 0 0 -1.7425367252e-10 0 0 -1.7425367252e-10 
0 0 -1.7425367252e-10 0 0 -1.7425367252e-10 0 0 -1.7425367252e-10 
0 0 -1.7425367252e-10 0 0 -1.7425367252e-10 0 0 -1.7425367252e-10 
0 0 -1.7425367252e-10 0 0 -1.7425367252e-10 0 0 -1.7425367252e-10 
0 0 -1.7425367252e-10 0 0 -1.7425367252e-10 0 0 -1.7425367252e-10 
0 0 -1.7425367252e-10 0 0 -1.7425367252e-10 0 0 -1.7425367252e-10 
0 0 -1.7425367252e-10 0 0 -1.7425367252e-10 0 0 -1.7425367252e-10 
0 0 -1.7425367252e-10 0 0 -1.7425367252e-10 0 0 -1.7425367252e-10 
0 0 -1.7425367252e-10 0 0 -1.7425367252e-10 0 0 -1.7425367252e-10 
0 0 -1.7425367252e-10 0 0 -1.7425367252e-10 0 0 -1.7425367252e-10 
0 0 -1.7425367252e-10 0 0 -1.7425367252e-10 0 0 -1.7425367252e-10 
0 0 -1.7425367252e-10 0 0 -1.7425367252e-10 0 0 -1.7425367252e-10 
0 0 -1.7425367252e-10 0 0 -1.7425367252e-10 0 0 -1.7425367252e-10 
0 0 -1.7425367252e-10 0 0 -1.7425367252e-10 0 0 -1.7425367252e-10 
0 0 -1.7425367252e-10 0 0 -1.7425367252e-10 0 0 -1.7425367252e-10 
0 0 -1.7425367252e-10 0 0 -1.7425367252e-10 0 0 -1.7425367252e-10 
0 0 -1.7425367252e-10 0 0 -1.7425367252e-10 0 0 -1.7425367252e-10 
0 0 -8.9019973083e-09 0 0 -1.7425367252e-10 0 0 -1.7425367252e-10 
0 0 -1.7425367252e-10 0 0 -1.7425367252e-10 0 0 -1.7425367252e-10 
0 0 -8.9019973083e-09 0 0 -1.7425367252e-10 0 0 -1.7425367252e-10 
0 0 -1.7425367252e-10 0 0 -1.7425367252e-10 0 0 -1.7425367252e-10 
0 0 -1.7425367252e-10 0 0 -1.7425367252e-10 0 0 -1.7425367252e-10 
0 0 -1.7425367252e-10 0 0 -1.7425367252e-10 0 0 -1.7425367252e-10 
0 0 -1.7425367252e-10 0 0 -1.7425367252e-10 0 0 -1.7425367252e-10 
0 0 -1.7425367252e-10 0 0 -1.7425367252e-10 0 0 -1.7425367252e-10 
0 0 -1.7425367252e-10 0 0 -1.7425367252e-10 0 0 -1.7425367252e-10 
0 0 -1.7425367252e-10 0 0 -1.7425367252e-10 0 0 -1.7425367252e-10 
0 0 -1.7425367252e-10 0 0 -1.7425367252e-10 0 0 -1.7425367252e-10 
0 0 -1.7425367252e-10 0 0 -1.7425367252e-10 0 0 -1.7425367252e-10 
0 0 -1.7425367252e-10 0 0 -1.7425367252e-10 0 0 -1.7425367252e-10 
0 0 -1.7425367252e-10 0 0 -1.7425367252e-10 0 0 -1.7425367252e-10 
0 0 -1.7425367252e-10 0 0 -1.7425367252e-10 0 0 -1.7425367252e-10 
0 0 -1.7425367252e-10 0 0 -1.7425367252e-10 0 0 -1.7425367252e-10 
0 0 -1.7425367252e-10 0 0 -1.7425367252e-10 0 0 -1.7425367252e-10 
0 0 -1.7425367252e-10 0 0 -1.7425367252e-10 0 0 -1.7425367252e-10 
0 0 -1.7425367252e-10 0 0 -1.7425367252e-10 0 0 -1.7425367252e-10 
0 0 -1.7425367252e-10 0 0 -1.7425367252e-10 0 0 -1.7425367252e-10 
0 0 -1.7425367252e-10 0 0 -1.7425367252e-10 0 0 -1.7425367252e-10 
0 0 -1.7425367252e-10 0 0 -1.7425367252e-10 0 0 -1.7425367252e-10 
0 0 -1.7425367252e-10 0 0 -1.7425367252e-10 0 0 -1.7425367252e-10 
0 0 -1.7425367252e-10 0 0 -1.7425367252e-10 0 0 -1.7425367252e-10 
0 0 -1.7425367252e-10 0 0 -8.9019973083e-09 0 0 -1.7425367252e-10 
0 0 -1.7425367252e-10 0 0 -1.7425367252e-10 0 0 -1.7425367252e-10 
0 0 -1.7425367252e-10 0 0 -1.7425367252e-10 0 0 -1.7425367252e-10 
0 0 -1.7425367252e-10 0 0 -1.7425367252e-10 0 0 -1.7425367252e-10 
0 0 -1.7425367252e-10 0 0 -1.7425367252e-10 0 0 -1.7425367252e-10 
0 0 -1.7425367252e-10 0 0 -1.7425367252e-10 0 0 -1.7425367252e-10 
0 0 -1.7425367252e-10 0 0 -8.9019973083e-09 0 0 -1.7425367252e-10 
0 0 -1.7425367252e-10 0 0 -1.7425367252e-10 0 0 -1.7425367252e-10 
0 0 -1.7425367252e-10 0 0 -1.7425367252e-10 0 0 -1.7425367252e-10 
0 0 -1.7425367252e-10 0 0 -1.7425367252e-10 0 0 -1.7425367252e-10 
0 0 -1.7425367252e-10 0 0 -1.7425367252e-10 0 0 -1.7425367252e-10 
0 0 -1.7425367252e-10 0 0 -1.7425367252e-10 0 0 -1.7425367252e-10 
0 0 -1.7425367252e-10 0 0 -1.7425367252e-10 0 0 -1.7425367252e-10 
0 0 -1.7425367252e-10 0 0 -1.7425367252e-10 0 0 -1.7425367252e-10 
0 0 -1.7425367252e-10 0 0 -1.7425367252e-10 0 0 -1.7425367252e-10 
0 0 -1.7425367252e-10 0 0 -1.7425367252e-10 0 0 -1.7425367252e-10 
0 0 -1.7425367252e-10 0 0 -1.7425367252e-10 0 0 -1.7425367252e-10 
0 0 -1.7425367252e-10 0 0 -1.7425367252e-10 0 0 -1.7425367252e-10 
0 0 -1.7425367252e-10 0 0 -8.9019973083e-09 0 0 -8.9019973083e-09 
0 0 -1.7425367252e-10 0 0 -1.7425367252e-10 0 0 -1.7425367252e-10 
0 0 -8.9019973083e-09 0 0 -8.9019973083e-09 0 0 -1.7425367252e-10 
0 0 -6.8918688838e-08 0 0 -8.9019973083e-09 0 0 -8.9019973083e-09 
0 0 -1.7425367252e-10 0 0 -1.7425367252e-10 0 0 -8.9019973083e-09 
0 0 -1.7425367252e-10 0 0 -1.7425367252e-10 0 0 -1.7425367252e-10 
0 0 -1.7425367252e-10 0 0 -1.7425367252e-10 0 0 -1.7425367252e-10 
0 0 -1.7425367252e-10 0 0 -1.7425367252e-10 0 0 -1.7425367252e-10 
0 0 -1.7425367252e-10 0 0 -1.7425367252e-10 0 0 -1.7425367252e-10 
0 0 -1.7425367252e-10 0 0 -1.7425367252e-10 0 0 -1.7425367252e-10 
0 0 -1.7425367252e-10 0 0 -1.7425367252e-10 0 0 -1.7425367252e-10 
0 0 -1.7425367252e-10 0 0 -1.7425367252e-10 0 0 -1.7425367252e-10 
0 0 -1.7425367252e-10 0 0 -1.7425367252e-10 0 0 -1.7425367252e-10 
0 0 -1.7425367252e-10 0 0 -1.7425367252e-10 0 0 -1.7425367252e-10 
0 0 -1.7425367252e-10 0 0 -1.7425367252e-10 0 0 -1.7425367252e-10 
0 0 -1.7425367252e-10 0 0 -1.7425367252e-10 0 0 -1.7425367252e-10 
0 0 -1.7425367252e-10 0 0 -1.7425367252e-10 0 0 -1.7425367252e-10 
0 0 -1.7425367252e-10 0 0 -1.7425367252e-10 0 0 -1.7425367252e-10 
0 0 -1.7425367252e-10 0 0 -1.7425367252e-10 0 0 -1.7425367252e-10 
0 0 -1.7425367252e-10 0 0 -1.7425367252e-10 0 0 -1.7425367252e-10 
0 0 -1.7425367252e-10 0 0 -1.7425367252e-10 0 0 -1.7425367252e-10 
0 0 -1.7425367252e-10 0 0 -1.7425367252e-10 0 0 -1.7425367252e-10 
0 0 -1.7425367252e-10 0 0 -1.7425367252e-10 0 0 -1.7425367252e-10 
0 0 -1.7425367252e-10 0 0 -1.7425367252e-10 0 0 -8.9019973083e-09 
0 0 -1.7425367252e-10 0 0 -1.7425367252e-10 0 0 -8.9019973083e-09 
0 0 -1.7425367252e-10 0 0 -1.7425367252e-10 0 0 -1.7425367252e-10 
0 0 -1.7425367252e-10 0 0 -1.7425367252e-10 0 0 -1.7425367252e-10 
0 0 -1.7425367252e-10 0 0 -1.7425367252e-10 0 0 -1.7425367252e-10 
0 0 -5.3297119368e-07 0 0 -1.7425367252e-10 0 0 -1.7425367252e-10 

radius 1 648 double
2e-05 2e-05 2e-05 2e-05 2e-05 2e-05 2e-05 2e-05 2e-05 
2e-05 2e-05 2e-05 2e-05 2e-05 2e-05 2e-05 2e-05 2e-05 
2e-05 2e-05 2e-05 2e-05 2e-05 2e-05 2e-05 2e-05 2e-05 
2e-05 2e-05 2e-05 2e-05 2e-05 2e-05 2e-05 2e-05 2e-05 
2e-05 2e-05 2e-05 2e-05 2e-05 2e-05 2e-05 2e-05 2e-05 
2e-05 2e-05 2e-05 2e-05 2e-05 2e-05 2e-05 2e-05 2e-05 
2e-05 2e-05 2e-05 2e-05 2e-05 2e-05 2e-05 2e-05 2e-05 
2e-05 2e-05 2e-05 2e-05 2e-05 2e-05 2e-05 2e-05 2e-05 
2e-05 2e-05 2e-05 2e-05 2e-05 2e-05 2e-05 2e-05 2e-05 
2e-05 2e-05 2e-05 2e-05 2e-05 7.5e-05 2e-05 2e-05 2e-05 
2e-05 2e-05 2e-05 2e-05 2e-05 2e-05 2e-05 2e-05 2e-05 
2e-05 2e-05 2e-05 2e-05 2e-05 2e-05 2e-05 2e-05 2e-05 
2e-05 2e-05 2e-05 2e-05 2e-05 2e-05 2e-05 2e-05 2e-05 
2e-05 2e-05 2e-05 2e-05 2e-05 2e-05 2e-05 2e-05 2e-05 
2e-05 2e-05 2e-05 2e-05 2e-05 2e-05 2e-05 2e-05 2e-05 
2e-05 2e-05 2e-05 2e-05 2e-05 2e-05 2e-05 2e-05 2e-05 
2e-05 2e-05 2e-05 2e-05 2e-05 2e-05 2e-05 2e-05 2e-05 
2e-05 2e-05 2e-05 2e-05 2e-05 2e-05 2e-05 2e-05 2e-05 
2e-05 2e-05 2e-05 2e-05 2e-05 2e-05 2e-05 2e-05 2e-05 
2e-05 2e-05 2e-05 2e-05 2e-05 2e-05 2e-05 2e-05 2e-05 
2e-05 2e-05 2e-05 2e-05 2e-05 2e-05 2e-05 2e-05 2e-05 
2e-05 2e-05 2e-05 2e-05 2e-05 2e-05 2e-05 2e-05 2e-05 
2e-05 2e-05 2e-05 2e-05 2e-05 2e-05 2e-05 2e-05 2e-05 
2e-05 2e-05 2e-05 2e-05 2e-05 2e-05 2e-05 2e-05 2e-05 
2e-05 2e-05 2e-05 2e-05 2e-05 2e-05 2e-05 2e-05 2e-05 
2e-05 2e-05 2e-05 2e-05 2e-05 2e-05 2e-05 2e-05 2e-05 
2e-05 2e-05 2e-05 2e-05 2e-05 2e-05 2e-05 2e-05 2e-05 
2e-05 2e-05 2e-05 2e-05 2e-05 2e-05 2e-05 2e-05 2e-05 
2e-05 2e-05 2e-05 2e-05 2e-05 2e-05 2e-05 2e-05 2e-05 
2e-05 2e-05 2e-05 2e-05 2e-05 2e-05 2e-05 2e-05 2e-05 
2e-05 2e-05 2e-05 2e-05 2e-05 2e-05 2e-05 2e-05 2e-05 
2e-05 2e-05 2e-05 2e-05 7.5e-05 2e-05 2e-05 2e-05 2e-05 
2e-05 2e-05 2e-05 2e-05 2e-05 2e-05 2e-05 2e-05 2e-05 
2e-05 2e-05 2e-05 2e-05 2e-05 2e-05 2e-05 2e-05 2e-05 
2e-05 2e-05 2e-05 2e-05 2e-05 2e-05 2e-05 2e-05 2e-05 
2e-05 2e-05 2e-05 2e-05 2e-05 2e-05 2e-05 2e-05 2e-05 
2e-05 2e-05 2e-05 2e-05 2e-05 2e-05 2e-05 2e-05 2e-05 
2e-05 2e-05 2e-05 7.5e-05 7.5e-05 2e-05 2e-05 2e-05 2e-05 
2e-05 2e-05 2e-05 2e-05 2e-05 2e-05 2e-05 2e-05 2e-05 
2e-05 2e-05 2e-05 2e-05 2e-05 2e-05 2e-05 2e-05 2e-05 
2e-05 2e-05 2e-05 2e-05 2e-05 2e-05 2e-05 2e-05 2e-05 
2e-05 2e-05 2e-05 2e-05 2e-05 2e-05 2e-05 2e-05 2e-05 
2e-05 2e-05 2e-05 2e-05 2e-05 2e-05 2e-05 2e-05 2e-05 
2e-05 2e-05 2e-05 2e-05 2e-05 2e-05 2e-05 2e-05 2e-05 
2e-05 2e-05 2e-05 2e-05 2e-05 2e-05 2e-05 2e-05 2e-05 
2e-05 2e-05 2e-05 2e-05 2e-05 2e-05 2e-05 2e-05 2e-05 
2e-05 2e-05 2e-05 2e-05 2e-05 2e-05 2e-05 2e-05 2e-05 
2e-05 2e-05 2e-05 2e-05 2e-05 2e-05 2e-05 2e-05 2e-05 
2e-05 2e-05 2e-05 7.5e-05 2e-05 2e-05 2e-05 2e-05 2e-05 
7.5e-05 2e-05 2e-05 2e-05 2e-05 2e-05 2e-05 2e-05 2e-05 
2e-05 2e-05 2e-05 2e-05 2e-05 2e-05 2e-05 2e-05 2e-05 
2e-05 2e-05 2e-05 2e-05 2e-05 2e-05 2e-05 2e-05 2e-05 
2e-05 2e-05 2e-05 2e-05 2e-05 2e-05 2e-05 2e-05 2e-05 
2e-05 2e-05 2e-05 2e-05 2e-05 2e-05 2e-05 2e-05 2e-05 
2e-05 2e-05 2e-05 2e-05 2e-05 2e-05 2e-05 2e-05 2e-05 
2e-05 2e-05 2e-05 2e-05 2e-05 2e-05 2e-05 2e-05 2e-05 
2e-05 2e-05 2e-05 2e-05 7.5e-05 2e-05 2e-05 2e-05 2e-05 
2e-05 2e-05 2e-05 2e-05 2e-05 2e-05 2e-05 2e-05 2e-05 
2e-05 2e-05 2e-05 2e-05 7.5e-05 2e-05 2e-05 2e-05 2e-05 
2e-05 2e-05 2e-05 2e-05 2e-05 2e-05 2e-05 2e-05 2e-05 
2e-05 2e-05 2e-05 2e-05 2e-05 2e-05 2e-05 2e-05 2e-05 
2e-05 2e-05 2e-05 2e-05 2e-05 2e-05 2e-05 2e-05 2e-05 
2e-05 2e-05 2e-05 2e-05 7.5e-05 7.5e-05 2e-05 2e-05 2e-05 
7.5e-05 7.5e-05 2e-05 0.00015 7.5e-05 7.5e-05 2e-05 2e-05 7.5e-05 
2e-05 2e-05 2e-05 2e-05 2e-05 2e-05 2e-05 2e-05 2e-05 
2e-05 2e-05 2e-05 2e-05 2e-05 2e-05 2e-05 2e-05 2e-05 
2e-05 2e-05 2e-05 2e-05 2e-05 2e-05 2e-05 2e-05 2e-05 
2e-05 2e-05 2e-05 2e-05 2e-05 2e-05 2e-05 2e-05 2e-05 
2e-05 2e-05 2e-05 2e-05 2e-05 2e-05 2e-05 2e-05 2e-05 
2e-05 2e-05 2e-05 2e-05 2e-05 2e-05 2e-05 2e-05 2e-05 
2e-05 2e-05 7.5e-05 2e-05 2e-05 7.5e-05 2e-05 2e-05 2e-05 
2e-05 2e-05 2e-05 2e-05 2e-05 2e-05 0.0003 2e-05 2e-05 

omega 3 648 double
0 0 0 0 0 0 0 0 0 
0 0 0 0 0 0 0 0 0 
0 0 0 0 0 0 0 0 0 
0 0 0 0 0 0 0 0 0 
0 0 0 0 0 0 0 0 0 
0 0 0 0 0 0 0 0 0 
0 0 0 0 0 0 0 0 0 
0 0 0 0 0 0 0 0 0 
0 0 0 0 0 0 0 0 0 
0 0 0 0 0 0 0 0 0 
0 0 0 0 0 0 0 0 0 
0 0 0 0 0 0 0 0 0 
0 0 0 0 0 0 0 0 0 
0 0 0 0 0 0 0 0 0 
0 0 0 0 0 0 0 0 0 
0 0 0 0 0 0 0 0 0 
0 0 0 0 0 0 0 0 0 
0 0 0 0 0 0 0 0 0 
0 0 0 0 0 0 0 0 0 
0 0 0 0 0 0 0 0 0 
0 0 0 0 0 0 0 0 0 
0 0 0 0 0 0 0 0 0 
0 0 0 0 0 0 0 0 0 
0 0 0 0 0 0 0 0 0 
0 0 0 0 0 0 0 0 0 
0 0 0 0 0 0 0 0 0 
0 0 0 0 0 0 0 0 0 
0 0 0 0 0 0 0 0 0 
0 0 0 0 0 0 0 0 0 
0 0 0 0 0 0 0 0 0 
0 0 0 0 0 0 0 0 0 
0 0 0 0 0 0 0 0 0 
0 0 0 0 0 0 0 0 0 
0 0 0 0 0 0 0 0 0 
0 0 0 0 0 0 0 0 0 
0 0 0 0 0 0 0 0 0 
0 0 0 0 0 0 0 0 0 
0 0 0 0 0 0 0 0 0 
0 0 0 0 0 0 0 0 0 
0 0 0 0 0 0 0 0 0 
0 0 0 0 0 0 0 0 0 
0 0 0 0 0 0 0 0 0 
0 0 0 0 0 0 0 0 0 
0 0 0 0 0 0 0 0 0 
0 0 0 0 0 0 0 0 0 
0 0 0 0 0 0 0 0 0 
0 0 0 0 0 0 0 0 0 
0 0 0 0 0 0 0 0 0 
0 0 0 0 0 0 0 0 0 
0 0 0 0 0 0 0 0 0 
0 0 0 0 0 0 0 0 0 
0 0 0 0 0 0 0 0 0 
0 0 0 0 0 0 0 0 0 
0 0 0 0 0 0 0 0 0 
0 0 0 0 0 0 0 0 0 
0 0 0 0 0 0 0 0 0 
0 0 0 0 0 0 0 0 0 
0 0 0 0 0 0 0 0 0 
0 0 0 0 0 0 0 0 0 
0 0 0 0 0 0 0 0 0 
0 0 0 0 0 0 0 0 0 
0 0 0 0 0 0 0 0 0 
0 0 0 0 0 0 0 0 0 
0 0 0 0 0 0 0 0 0 
0 0 0 0 0 0 0 0 0 
0 0 0 0 0 0 0 0 0 
0 0 0 0 0 0 0 0 0 
0 0 0 0 0 0 0 0 0 
0 0 0 0 0 0 0 0 0 
0 0 0 0 0 0 0 0 0 
0 0 0 0 0 0 0 0 0 
0 0 0 0 0 0 0 0 0 
0 0 0 0 0 0 0 0 0 
0 0 0 0 0 0 0 0 0 
0 0 0 0 0 0 0 0 0 
0 0 0 0 0 0 0 0 0 
0 0 0 0 0 0 0 0 0 
0 0 0 0 0 0 0 0 0 
0 0 0 0 0 0 0 0 0 
0 0 0 0 0 0 0 0 0 
0 0 0 0 0 0 0 0 0 
0 0 0 0 0 0 0 0 0 
0 0 0 0 0 0 0 0 0 
0 0 0 0 0 0 0 0 0 
0 0 0 0 0 0 0 0 0 
0 0 0 0 0 0 0 0 0 
0 0 0 0 0 0 0 0 0 
0 0 0 0 0 0 0 0 0 
0 0 0 0 0 0 0 0 0 
0 0 0 0 0 0 0 0 0 
0 0 0 0 0 0 0 0 0 
0 0 0 0 0 0 0 0 0 
0 0 0 0 0 0 0 0 0 
0 0 0 0 0 0 0 0 0 
0 0 0 0 0 0 0 0 0 
0 0 0 0 0 0 0 0 0 
0 0 0 0 0 0 0 0 0 
0 0 0 0 0 0 0 0 0 
0 0 0 0 0 0 0 0 0 
0 0 0 0 0 0 0 0 0 
0 0 0 0 0 0 0 0 0 
0 0 0 0 0 0 0 0 0 
0 0 0 0 0 0 0 0 0 
0 0 0 0 0 0 0 0 0 
0 0 0 0 0 0 0 0 0 
0 0 0 0 0 0 0 0 0 
0 0 0 0 0 0 0 0 0 
0 0 0 0 0 0 0 0 0 
0 0 0 0 0 0 0 0 0 
0 0 0 0 0 0 0 0 0 
0 0 0 0 0 0 0 0 0 
0 0 0 0 0 0 0 0 0 
0 0 0 0 0 0 0 0 0 
0 0 0 0 0 0 0 0 0 
0 0 0 0 0 0 0 0 0 
0 0 0 0 0 0 0 0 0 
0 0 0 0 0 0 0 0 0 
0 0 0 0 0 0 0 0 0 
0 0 0 0 0 0 0 0 0 
0 0 0 0 0 0 0 0 0 
0 0 0 0 0 0 0 0 0 
0 0 0 0 0 0 0 0 0 
0 0 0 0 0 0 0 0 0 
0 0 0 0 0 0 0 0 0 
0 0 0 0 0 0 0 0 0 
0 0 0 0 0 0 0 0 0 
0 0 0 0 0 0 0 0 0 
0 0 0 0 0 0 0 0 0 
0 0 0 0 0 0 0 0 0 
0 0 0 0 0 0 0 0 0 
0 0 0 0 0 0 0 0 0 
0 0 0 0 0 0 0 0 0 
0 0 0 0 0 0 0 0 0 
0 0 0 0 0 0 0 0 0 
0 0 0 0 0 0 0 0 0 
0 0 0 0 0 0 0 0 0 
0 0 0 0 0 0 0 0 0 
0 0 0 0 0 0 0 0 0 
0 0 0 0 0 0 0 0 0 
0 0 0 0 0 0 0 0 0 
0 0 0 0 0 0 0 0 0 
0 0 0 0 0 0 0 0 0 
0 0 0 0 0 0 0 0 0 
0 0 0 0 0 0 0 0 0 
0 0 0 0 0 0 0 0 0 
0 0 0 0 0 0 0 0 0 
0 0 0 0 0 0 0 0 0 
0 0 0 0 0 0 0 0 0 
0 0 0 0 0 0 0 0 0 
0 0 0 0 0 0 0 0 0 
0 0 0 0 0 0 0 0 0 
0 0 0 0 0 0 0 0 0 
0 0 0 0 0 0 0 0 0 
0 0 0 0 0 0 0 0 0 
0 0 0 0 0 0 0 0 0 
0 0 0 0 0 0 0 0 0 
0 0 0 0 0 0 0 0 0 
0 0 0 0 0 0 0 0 0 
0 0 0 0 0 0 0 0 0 
0 0 0 0 0 0 0 0 0 
0 0 0 0 0 0 0 0 0 
0 0 0 0 0 0 0 0 0 
0 0 0 0 0 0 0 0 0 
0 0 0 0 0 0 0 0 0 
0 0 0 0 0 0 0 0 0 
0 0 0 0 0 0 0 0 0 
0 0 0 0 0 0 0 0 0 
0 0 0 0 0 0 0 0 0 
0 0 0 0 0 0 0 0 0 
0 0 0 0 0 0 0 0 0 
0 0 0 0 0 0 0 0 0 
0 0 0 0 0 0 0 0 0 
0 0 0 0 0 0 0 0 0 
0 0 0 0 0 0 0 0 0 
0 0 0 0 0 0 0 0 0 
0 0 0 0 0 0 0 0 0 
0 0 0 0 0 0 0 0 0 
0 0 0 0 0 0 0 0 0 
0 0 0 0 0 0 0 0 0 
0 0 0 0 0 0 0 0 0 
0 0 0 0 0 0 0 0 0 
0 0 0 0 0 0 0 0 0 
0 0 0 0 0 0 0 0 0 
0 0 0 0 0 0 0 0 0 
0 0 0 0 0 0 0 0 0 
0 0 0 0 0 0 0 0 0 
0 0 0 0 0 0 0 0 0 
0 0 0 0 0 0 0 0 0 
0 0 0 0 0 0 0 0 0 
0 0 0 0 0 0 0 0 0 
0 0 0 0 0 0 0 0 0 
0 0 0 0 0 0 0 0 0 
0 0 0 0 0 0 0 0 0 
0 0 0 0 0 0 0 0 0 
0 0 0 0 0 0 0 0 0 
0 0 0 0 0 0 0 0 0 
0 0 0 0 0 0 0 0 0 
0 0 0 0 0 0 0 0 0 
0 0 0 0 0 0 0 0 0 
0 0 0 0 0 0 0 0 0 
0 0 0 0 0 0 0 0 0 
0 0 0 0 0 0 0 0 0 
0 0 0 0 0 0 0 0 0 
0 0 0 0 0 0 0 0 0 
0 0 0 0 0 0 0 0 0 
0 0 0 0 0 0 0 0 0 
0 0 0 0 0 0 0 0 0 
0 0 0 0 0 0 0 0 0 
0 0 0 0 0 0 0 0 0 
0 0 0 0 0 0 0 0 0 
0 0 0 0 0 0 0 0 0 
0 0 0 0 0 0 0 0 0 
0 0 0 0 0 0 0 0 0 
0 0 0 0 0 0 0 0 0 
0 0 0 0 0 0 0 0 0 
0 0 0 0 0 0 0 0 0 

fx_mag_viz 1 648 double
0 0 0 0 0 0 0 0 0 
0 0 0 0 0 0 0 0 0 
0 0 0 0 0 0 0 0 0 
0 0 0 0 0 0 0 0 0 
0 0 0 0 0 0 0 0 0 
0 0 0 0 0 0 0 0 0 
0 0 0 0 0 0 0 0 0 
0 0 0 0 0 0 0 0 0 
0 0 0 0 0 0 0 0 0 
0 0 0 0 0 0 0 0 0 
0 0 0 0 0 0 0 0 0 
0 0 0 0 0 0 0 0 0 
0 0 0 0 0 0 0 0 0 
0 0 0 0 0 0 0 0 0 
0 0 0 0 0 0 0 0 0 
0 0 0 0 0 0 0 0 0 
0 0 0 0 0 0 0 0 0 
0 0 0 0 0 0 0 0 0 
0 0 0 0 0 0 0 0 0 
0 0 0 0 0 0 0 0 0 
0 0 0 0 0 0 0 0 0 
0 0 0 0 0 0 0 0 0 
0 0 0 0 0 0 0 0 0 
0 0 0 0 0 0 0 0 0 
0 0 0 0 0 0 0 0 0 
0 0 0 0 0 0 0 0 0 
0 0 0 0 0 0 0 0 0 
0 0 0 0 0 0 0 0 0 
0 0 0 0 0 0 0 0 0 
0 0 0 0 0 0 0 0 0 
0 0 0 0 0 0 0 0 0 
0 0 0 0 0 0 0 0 0 
0 0 0 0 0 0 0 0 0 
0 0 0 0 0 0 0 0 0 
0 0 0 0 0 0 0 0 0 
0 0 0 0 0 0 0 0 0 
0 0 0 0 0 0 0 0 0 
0 0 0 0 0 0 0 0 0 
0 0 0 0 0 0 0 0 0 
0 0 0 0 0 0 0 0 0 
0 0 0 0 0 0 0 0 0 
0 0 0 0 0 0 0 0 0 
0 0 0 0 0 0 0 0 0 
0 0 0 0 0 0 0 0 0 
0 0 0 0 0 0 0 0 0 
0 0 0 0 0 0 0 0 0 
0 0 0 0 0 0 0 0 0 
0 0 0 0 0 0 0 0 0 
0 0 0 0 0 0 0 0 0 
0 0 0 0 0 0 0 0 0 
0 0 0 0 0 0 0 0 0 
0 0 0 0 0 0 0 0 0 
0 0 0 0 0 0 0 0 0 
0 0 0 0 0 0 0 0 0 
0 0 0 0 0 0 0 0 0 
0 0 0 0 0 0 0 0 0 
0 0 0 0 0 0 0 0 0 
0 0 0 0 0 0 0 0 0 
0 0 0 0 0 0 0 0 0 
0 0 0 0 0 0 0 0 0 
0 0 0 0 0 0 0 0 0 
0 0 0 0 0 0 0 0 0 
0 0 0 0 0 0 0 0 0 
0 0 0 0 0 0 0 0 0 
0 0 0 0 0 0 0 0 0 
0 0 0 0 0 0 0 0 0 
0 0 0 0 0 0 0 0 0 
0 0 0 0 0 0 0 0 0 
0 0 0 0 0 0 0 0 0 
0 0 0 0 0 0 0 0 0 
0 0 0 0 0 0 0 0 0 
0 0 0 0 0 0 0 0 0 

fy_mag_viz 1 648 double
0 0 0 0 0 0 0 0 0 
0 0 0 0 0 0 0 0 0 
0 0 0 0 0 0 0 0 0 
0 0 0 0 0 0 0 0 0 
0 0 0 0 0 0 0 0 0 
0 0 0 0 0 0 0 0 0 
0 0 0 0 0 0 0 0 0 
0 0 0 0 0 0 0 0 0 
0 0 0 0 0 0 0 0 0 
0 0 0 0 0 0 0 0 0 
0 0 0 0 0 0 0 0 0 
0 0 0 0 0 0 0 0 0 
0 0 0 0 0 0 0 0 0 
0 0 0 0 0 0 0 0 0 
0 0 0 0 0 0 0 0 0 
0 0 0 0 0 0 0 0 0 
0 0 0 0 0 0 0 0 0 
0 0 0 0 0 0 0 0 0 
0 0 0 0 0 0 0 0 0 
0 0 0 0 0 0 0 0 0 
0 0 0 0 0 0 0 0 0 
0 0 0 0 0 0 0 0 0 
0 0 0 0 0 0 0 0 0 
0 0 0 0 0 0 0 0 0 
0 0 0 0 0 0 0 0 0 
0 0 0 0 0 0 0 0 0 
0 0 0 0 0 0 0 0 0 
0 0 0 0 0 0 0 0 0 
0 0 0 0 0 0 0 0 0 
0 0 0 0 0 0 0 0 0 
0 0 0 0 0 0 0 0 0 
0 0 0 0 0 0 0 0 0 
0 0 0 0 0 0 0 0 0 
0 0 0 0 0 0 0 0 0 
0 0 0 0 0 0 0 0 0 
0 0 0 0 0 0 0 0 0 
0 0 0 0 0 0 0 0 0 
0 0 0 0 0 0 0 0 0 
0 0 0 0 0 0 0 0 0 
0 0 0 0 0 0 0 0 0 
0 0 0 0 0 0 0 0 0 
0 0 0 0 0 0 0 0 0 
0 0 0 0 0 0 0 0 0 
0 0 0 0 0 0 0 0 0 
0 0 0 0 0 0 0 0 0 
0 0 0 0 0 0 0 0 0 
0 0 0 0 0 0 0 0 0 
0 0 0 0 0 0 0 0 0 
0 0 0 0 0 0 0 0 0 
0 0 0 0 0 0 0 0 0 
0 0 0 0 0 0 0 0 0 
0 0 0 0 0 0 0 0 0 
0 0 0 0 0 0 0 0 0 
0 0 0 0 0 0 0 0 0 
0 0 0 0 0 0 0 0 0 
0 0 0 0 0 0 0 0 0 
0 0 0 0 0 0 0 0 0 
0 0 0 0 0 0 0 0 0 
0 0 0 0 0 0 0 0 0 
0 0 0 0 0 0 0 0 0 
0 0 0 0 0 0 0 0 0 
0 0 0 0 0 0 0 0 0 
0 0 0 0 0 0 0 0 0 
0 0 0 0 0 0 0 0 0 
0 0 0 0 0 0 0 0 0 
0 0 0 0 0 0 0 0 0 
0 0 0 0 0 0 0 0 0 
0 0 0 0 0 0 0 0 0 
0 0 0 0 0 0 0 0 0 
0 0 0 0 0 0 0 0 0 
0 0 0 0 0 0 0 0 0 
0 0 0 0 0 0 0 0 0 

fz_mag_viz 1 648 double
0 0 0 0 0 0 0 0 0 
0 0 0 0 0 0 0 0 0 
0 0 0 0 0 0 0 0 0 
0 0 0 0 0 0 0 0 0 
0 0 0 0 0 0 0 0 0 
0 0 0 0 0 0 0 0 0 
0 0 0 0 0 0 0 0 0 
0 0 0 0 0 0 0 0 0 
0 0 0 0 0 0 0 0 0 
0 0 0 0 0 0 0 0 0 
0 0 0 0 0 0 0 0 0 
0 0 0 0 0 0 0 0 0 
0 0 0 0 0 0 0 0 0 
0 0 0 0 0 0 0 0 0 
0 0 0 0 0 0 0 0 0 
0 0 0 0 0 0 0 0 0 
0 0 0 0 0 0 0 0 0 
0 0 0 0 0 0 0 0 0 
0 0 0 0 0 0 0 0 0 
0 0 0 0 0 0 0 0 0 
0 0 0 0 0 0 0 0 0 
0 0 0 0 0 0 0 0 0 
0 0 0 0 0 0 0 0 0 
0 0 0 0 0 0 0 0 0 
0 0 0 0 0 0 0 0 0 
0 0 0 0 0 0 0 0 0 
0 0 0 0 0 0 0 0 0 
0 0 0 0 0 0 0 0 0 
0 0 0 0 0 0 0 0 0 
0 0 0 0 0 0 0 0 0 
0 0 0 0 0 0 0 0 0 
0 0 0 0 0 0 0 0 0 
0 0 0 0 0 0 0 0 0 
0 0 0 0 0 0 0 0 0 
0 0 0 0 0 0 0 0 0 
0 0 0 0 0 0 0 0 0 
0 0 0 0 0 0 0 0 0 
0 0 0 0 0 0 0 0 0 
0 0 0 0 0 0 0 0 0 
0 0 0 0 0 0 0 0 0 
0 0 0 0 0 0 0 0 0 
0 0 0 0 0 0 0 0 0 
0 0 0 0 0 0 0 0 0 
0 0 0 0 0 0 0 0 0 
0 0 0 0 0 0 0 0 0 
0 0 0 0 0 0 0 0 0 
0 0 0 0 0 0 0 0 0 
0 0 0 0 0 0 0 0 0 
0 0 0 0 0 0 0 0 0 
0 0 0 0 0 0 0 0 0 
0 0 0 0 0 0 0 0 0 
0 0 0 0 0 0 0 0 0 
0 0 0 0 0 0 0 0 0 
0 0 0 0 0 0 0 0 0 
0 0 0 0 0 0 0 0 0 
0 0 0 0 0 0 0 0 0 
0 0 0 0 0 0 0 0 0 
0 0 0 0 0 0 0 0 0 
0 0 0 0 0 0 0 0 0 
0 0 0 0 0 0 0 0 0 
0 0 0 0 0 0 0 0 0 
0 0 0 0 0 0 0 0 0 
0 0 0 0 0 0 0 0 0 
0 0 0 0 0 0 0 0 0 
0 0 0 0 0 0 0 0 0 
0 0 0 0 0 0 0 0 0 
0 0 0 0 0 0 0 0 0 
0 0 0 0 0 0 0 0 0 
0 0 0 0 0 0 0 0 0 
0 0 0 0 0 0 0 0 0 
0 0 0 0 0 0 0 0 0 
0 0 0 0 0 0 0 0 0 

B_magnitude 1 648 double
0 0 0 0 0 0 0 0 0 
0 0 0 0 0 0 0 0 0 
0 0 0 0 0 0 0 0 0 
0 0 0 0 0 0 0 0 0 
0 0 0 0 0 0 0 0 0 
0 0 0 0 0 0 0 0 0 
0 0 0 0 0 0 0 0 0 
0 0 0 0 0 0 0 0 0 
0 0 0 0 0 0 0 0 0 
0 0 0 0 0 0 0 0 0 
0 0 0 0 0 0 0 0 0 
0 0 0 0 0 0 0 0 0 
0 0 0 0 0 0 0 0 0 
0 0 0 0 0 0 0 0 0 
0 0 0 0 0 0 0 0 0 
0 0 0 0 0 0 0 0 0 
0 0 0 0 0 0 0 0 0 
0 0 0 0 0 0 0 0 0 
0 0 0 0 0 0 0 0 0 
0 0 0 0 0 0 0 0 0 
0 0 0 0 0 0 0 0 0 
0 0 0 0 0 0 0 0 0 
0 0 0 0 0 0 0 0 0 
0 0 0 0 0 0 0 0 0 
0 0 0 0 0 0 0 0 0 
0 0 0 0 0 0 0 0 0 
0 0 0 0 0 0 0 0 0 
0 0 0 0 0 0 0 0 0 
0 0 0 0 0 0 0 0 0 
0 0 0 0 0 0 0 0 0 
0 0 0 0 0 0 0 0 0 
0 0 0 0 0 0 0 0 0 
0 0 0 0 0 0 0 0 0 
0 0 0 0 0 0 0 0 0 
0 0 0 0 0 0 0 0 0 
0 0 0 0 0 0 0 0 0 
0 0 0 0 0 0 0 0 0 
0 0 0 0 0 0 0 0 0 
0 0 0 0 0 0 0 0 0 
0 0 0 0 0 0 0 0 0 
0 0 0 0 0 0 0 0 0 
0 0 0 0 0 0 0 0 0 
0 0 0 0 0 0 0 0 0 
0 0 0 0 0 0 0 0 0 
0 0 0 0 0 0 0 0 0 
0 0 0 0 0 0 0 0 0 
0 0 0 0 0 0 0 0 0 
0 0 0 0 0 0 0 0 0 
0 0 0 0 0 0 0 0 0 
0 0 0 0 0 0 0 0 0 
0 0 0 0 0 0 0 0 0 
0 0 0 0 0 0 0 0 0 
0 0 0 0 0 0 0 0 0 
0 0 0 0 0 0 0 0 0 
0 0 0 0 0 0 0 0 0 
0 0 0 0 0 0 0 0 0 
0 0 0 0 0 0 0 0 0 
0 0 0 0 0 0 0 0 0 
0 0 0 0 0 0 0 0 0 
0 0 0 0 0 0 0 0 0 
0 0 0 0 0 0 0 0 0 
0 0 0 0 0 0 0 0 0 
0 0 0 0 0 0 0 0 0 
0 0 0 0 0 0 0 0 0 
0 0 0 0 0 0 0 0 0 
0 0 0 0 0 0 0 0 0 
0 0 0 0 0 0 0 0 0 
0 0 0 0 0 0 0 0 0 
0 0 0 0 0 0 0 0 0 
0 0 0 0 0 0 0 0 0 
0 0 0 0 0 0 0 0 0 
0 0 0 0 0 0 0 0 0 

B_gradient_mag 1 648 double
0 0 0 0 0 0 0 0 0 
0 0 0 0 0 0 0 0 0 
0 0 0 0 0 0 0 0 0 
0 0 0 0 0 0 0 0 0 
0 0 0 0 0 0 0 0 0 
0 0 0 0 0 0 0 0 0 
0 0 0 0 0 0 0 0 0 
0 0 0 0 0 0 0 0 0 
0 0 0 0 0 0 0 0 0 
0 0 0 0 0 0 0 0 0 
0 0 0 0 0 0 0 0 0 
0 0 0 0 0 0 0 0 0 
0 0 0 0 0 0 0 0 0 
0 0 0 0 0 0 0 0 0 
0 0 0 0 0 0 0 0 0 
0 0 0 0 0 0 0 0 0 
0 0 0 0 0 0 0 0 0 
0 0 0 0 0 0 0 0 0 
0 0 0 0 0 0 0 0 0 
0 0 0 0 0 0 0 0 0 
0 0 0 0 0 0 0 0 0 
0 0 0 0 0 0 0 0 0 
0 0 0 0 0 0 0 0 0 
0 0 0 0 0 0 0 0 0 
0 0 0 0 0 0 0 0 0 
0 0 0 0 0 0 0 0 0 
0 0 0 0 0 0 0 0 0 
0 0 0 0 0 0 0 0 0 
0 0 0 0 0 0 0 0 0 
0 0 0 0 0 0 0 0 0 
0 0 0 0 0 0 0 0 0 
0 0 0 0 0 0 0 0 0 
0 0 0 0 0 0 0 0 0 
0 0 0 0 0 0 0 0 0 
0 0 0 0 0 0 0 0 0 
0 0 0 0 0 0 0 0 0 
0 0 0 0 0 0 0 0 0 
0 0 0 0 0 0 0 0 0 
0 0 0 0 0 0 0 0 0 
0 0 0 0 0 0 0 0 0 
0 0 0 0 0 0 0 0 0 
0 0 0 0 0 0 0 0 0 
0 0 0 0 0 0 0 0 0 
0 0 0 0 0 0 0 0 0 
0 0 0 0 0 0 0 0 0 
0 0 0 0 0 0 0 0 0 
0 0 0 0 0 0 0 0 0 
0 0 0 0 0 0 0 0 0 
0 0 0 0 0 0 0 0 0 
0 0 0 0 0 0 0 0 0 
0 0 0 0 0 0 0 0 0 
0 0 0 0 0 0 0 0 0 
0 0 0 0 0 0 0 0 0 
0 0 0 0 0 0 0 0 0 
0 0 0 0 0 0 0 0 0 
0 0 0 0 0 0 0 0 0 
0 0 0 0 0 0 0 0 0 
0 0 0 0 0 0 0 0 0 
0 0 0 0 0 0 0 0 0 
0 0 0 0 0 0 0 0 0 
0 0 0 0 0 0 0 0 0 
0 0 0 0 0 0 0 0 0 
0 0 0 0 0 0 0 0 0 
0 0 0 0 0 0 0 0 0 
0 0 0 0 0 0 0 0 0 
0 0 0 0 0 0 0 0 0 
0 0 0 0 0 0 0 0 0 
0 0 0 0 0 0 0 0 0 
0 0 0 0 0 0 0 0 0 
0 0 0 0 0 0 0 0 0 
0 0 0 0 0 0 0 0 0 
0 0 0 0 0 0 0 0 0 

