# vtk DataFile Version 5.1
Generated by LIGGGHTS
ASCII
DATASET POLYDATA
POINTS 648 float
-0.0177803 -0.0340186 0.00160304 0.0164647 -0.0275391 0.00143001 0.0204492 -0.0194639 0.00129909 
-0.0341597 -0.0122829 0.00121943 -0.0253129 -0.0039775 0.00138551 0.00664535 -0.00164817 0.00150384 
-0.0324762 0.0230005 0.00141197 0.0195053 -0.043722 0.0028356 0.0416479 -0.0439733 0.00113241 
0.0406519 -0.0427256 0.00105684 -0.0136468 -0.0412372 0.0023664 0.0077947 -0.0345433 0.00118063 
-0.0161578 -0.0337243 0.00235504 0.0153133 -0.0285941 0.00165438 0.0347572 -0.0260666 0.00171473 
0.0350196 -0.0250011 0.00217082 0.00179778 -0.0247441 0.00227708 0.0155599 -0.0240909 0.00243638 
-0.0210835 -0.0209207 0.00248524 -0.0033641 -0.0204173 0.00243225 0.0144468 -0.013247 0.0018879 
-0.00528066 -0.0121118 0.00209669 -0.00401126 -0.00720159 0.00286747 0.0200271 -0.00425623 0.00252203 
-0.0408474 -0.00214648 0.00261962 -0.0198668 -0.00211416 0.00208119 0.0168839 -0.00210364 0.00281728 
-0.0376932 -0.000132947 0.00231441 -0.0153419 -0.00108619 0.00275892 -0.0233311 0.00384073 0.00110254 
0.0183943 0.00266245 0.00196441 0.0260144 0.00429017 0.00269709 0.0332757 0.00539899 0.00118423 
-0.0429246 0.00657681 0.00228257 -0.00598638 0.00689803 0.00268037 0.00533928 0.00728904 0.00202144 
-0.019893 0.00878872 0.00137201 -0.00071691 0.0108932 0.0014531 -0.0365733 0.0119208 0.00278042 
0.00243185 0.0120975 0.00274068 -0.0231109 0.0157017 0.00165499 0.018015 0.0183735 0.00278363 
0.00742845 0.0199749 0.00172575 -0.0287332 0.0215601 0.00112951 0.0362273 0.0220011 0.00197418 
-0.0295899 0.0232577 0.00106493 -0.0128609 0.0265935 0.00225297 0.0191028 0.0315895 0.00289799 
-0.0425374 0.0333781 0.00244074 0.00727395 0.0332762 0.00288951 0.0278529 0.0342296 0.00201948 
0.00888594 0.0360502 0.00239237 0.0030545 0.0369981 0.00190157 -0.0133259 0.0414802 0.00188856 
-0.0390775 0.0447256 0.00163384 -0.00396528 -0.0444182 0.00312419 0.0166138 -0.0412108 0.00391262 
-0.0309963 -0.0355024 0.00357087 -0.0233761 -0.031813 0.00411941 -0.0386911 -0.0311434 0.00292944 
-0.0220587 -0.0306349 0.00414162 0.0449741 -0.0303513 0.00403438 -0.0414327 -0.0290659 0.00411538 
0.00231692 -0.0294453 0.00176167 0.0346338 -0.0290927 0.00346905 -0.0346801 -0.0287009 0.0024616 
-0.00863888 -0.0237376 0.00333116 0.0115492 -0.0227248 0.00262252 0.0240101 -0.0228809 0.00388806 
0.035159 -0.023363 0.00411351 -0.0147645 -0.0165889 0.00374536 0.0132043 -0.01541 0.0027101 
-0.0279963 -0.0141356 0.00202772 0.0242571 -0.0100823 0.00325423 0.0334462 -0.00930086 0.00373269 
-0.00254943 -0.00825679 0.00370291 -0.0344646 -0.00725539 0.00410931 0.0404774 -0.00688032 0.00287198 
0.0131353 -0.00504642 0.0040632 0.0180458 -0.00470109 0.00408324 0.0448793 -0.00396119 0.00289288 
-0.0107529 -0.00365687 0.00415066 -0.00941413 -0.00330341 0.00390395 -0.0283489 -0.000417126 0.00397574 
0.0140084 -6.89735e-05 0.00363331 0.0189244 0.00254502 0.00281069 -0.0325416 0.00283857 0.00374411 
-0.025141 0.00447188 0.00359801 -0.009285 0.00693532 0.00352817 -0.0105861 0.00898083 0.00366209 
0.00474506 0.0103043 0.00261792 0.0211953 0.00966092 0.00313453 0.0234497 0.00978487 0.00281204 
-0.00808524 0.0113378 0.0029351 0.0396593 0.013993 0.00396214 0.0407412 0.0174253 0.0039881 
-0.023041 0.0197144 0.00371298 0.0398418 0.0217469 0.00385525 -0.0148746 0.0223253 0.0035669 
-0.0267196 0.0236159 0.0030201 0.0395905 0.0272142 0.0036209 0.0397191 0.0283771 0.00212933 
0.026696 0.03017 0.00406287 0.0372507 0.0318783 0.00363376 0.0380057 0.0324307 0.00210034 
-0.0337286 0.0337045 0.00297112 -0.00196307 0.0366495 0.00374936 0.00367032 0.0371324 0.00263606 
0.00201585 0.0404036 0.00311232 0.0294278 0.0431452 0.00319518 0.00528787 0.0432844 0.00360246 
0.0181024 -0.0433049 0.00430468 0.0131812 -0.0427533 0.00485437 0.0348044 -0.042095 0.0052748 
0.00985621 -0.0367022 0.00463925 -0.0273176 -0.0361067 0.00303372 -0.0168273 -0.0360331 0.00506128 
0.0195647 -0.0366528 0.00406549 -0.0430551 -0.0267583 0.00462784 0.00558373 -0.0242787 0.00432349 
-0.0127621 -0.0231756 0.00428646 0.0233461 -0.0214624 0.00505584 0.038292 -0.016257 0.00427505 
0.0323803 -0.0150629 0.00449162 -0.0186412 -0.0134353 0.00543092 -0.0327621 -0.0121928 0.00481642 
0.0253763 -0.011051 0.00365708 0.0313953 -0.00974065 0.0052836 0.0352883 -0.0103067 0.00312952 
0.0161928 -0.00760918 0.00546052 0.0387156 -0.00624884 0.00419589 -0.0120059 -0.00345367 0.00452062 
0.00975646 -0.00313231 0.00485116 -0.00896956 -0.00131708 0.00517324 0.0116524 0.00206193 0.00509089 
0.00243665 0.00282786 0.00426756 0.0358407 0.00533501 0.00370904 -0.0408306 0.00999374 0.00322875 
0.027557 0.009967 0.003571 -0.0350204 0.0121089 0.00305987 0.00861143 0.0123591 0.00538995 
-0.00841171 0.0143034 0.00442148 0.0311878 0.014057 0.00471331 0.0441199 0.0136981 0.0050322 
0.000954082 0.0152563 0.00472071 0.0121458 0.0151918 0.00536739 -0.0408838 0.0159645 0.00351137 
-0.0122189 0.0175978 0.00361916 -0.0122989 0.0222019 0.00435401 0.00126512 0.0228658 0.00474614 
0.021223 0.0244832 0.00443288 0.0438582 0.0244724 0.0042926 -0.0127911 0.0299546 0.00418802 
-0.0108954 0.0304 0.00490434 0.00390562 0.0317225 0.00513425 0.0193546 0.0324404 0.00494561 
0.0337272 0.0324898 0.00365097 0.0231674 0.0340949 0.00489306 -0.00585061 0.0388609 0.00485365 
-0.00647711 0.0391566 0.00312453 0.0114086 0.0440135 0.00355135 0.0352701 0.0439749 0.00484182 
0.0405446 0.0433429 0.0046204 0.0171919 0.0449185 0.00323367 0.0145521 -0.0432303 0.00629238 
0.0418836 -0.0421436 0.006279 -0.018434 -0.0405477 0.00602484 0.00849583 -0.0405939 0.00512496 
0.040047 -0.0404588 0.00657065 -0.0195638 -0.0385913 0.00436794 -0.0108246 -0.0388127 0.00594103 
0.0325128 -0.03812 0.00438257 0.000822496 -0.0363122 0.00649315 -0.0376897 -0.0314333 0.00584735 
-0.0263426 -0.0292431 0.00569786 0.0306875 -0.0259396 0.00651804 -0.0225401 -0.0213878 0.00585076 
-0.0164034 -0.0216001 0.00514256 0.0394323 -0.021923 0.00616296 -0.00827992 -0.020547 0.00615954 
0.00548761 -0.0197918 0.00617382 -0.0296942 -0.0196153 0.00588314 -0.0328213 -0.0176588 0.00517534 
-0.0408642 -0.0154151 0.00556899 -0.015814 -0.0152491 0.00528667 0.0375745 -0.0151367 0.00544513 
0.0403752 -0.0143085 0.0065877 0.0406218 -0.0100941 0.00615539 -0.00747582 -0.00609419 0.00599884 
0.00523139 -0.00599236 0.00675966 0.0290986 -0.000251763 0.00555031 0.0407777 0.000744206 0.00645447 
-0.0137512 0.00384646 0.00493226 0.0323225 0.00436429 0.00582666 0.0250346 0.00641518 0.00603971 
-0.0442311 0.00821601 0.00432524 0.0283387 0.00890506 0.00550254 0.0197977 0.00963841 0.00617428 
-0.00867948 0.0139924 0.00599458 -0.0196462 0.0155185 0.00616665 -0.00307286 0.0144526 0.00607126 
0.00757299 0.0192258 0.00533111 -0.0421793 0.0225172 0.00675099 -0.0190887 0.0269029 0.00671278 
-0.0376379 0.0294143 0.00671851 0.0434247 0.0295768 0.00449518 -0.0409258 0.0305044 0.00650653 
0.00372347 0.0304157 0.00562753 0.00519606 0.0301696 0.00597833 0.0040127 0.0314243 0.00528585 
0.00317215 0.0343196 0.00612248 -0.0245447 0.0378537 0.00604635 -0.00973825 0.0391656 0.00581583 
0.0238959 0.0383247 0.00627837 0.0222253 0.0407186 0.00556665 -0.0181988 0.0434549 0.00655252 
0.0352379 0.0438995 0.00624637 0.0211706 0.0445491 0.00473993 -0.0346971 -0.0446764 0.00735793 
-0.044759 -0.0437614 0.00770301 -0.0389435 -0.0425966 0.00630977 -0.0248654 -0.0427111 0.00707263 
0.0248068 -0.0428986 0.00736826 0.0238162 -0.0409762 0.00752853 0.0424299 -0.0409921 0.00722325 
0.0397687 -0.0374633 0.00712225 0.023158 -0.0340207 0.0073554 0.0244271 -0.0334586 0.00764682 
-0.0262624 -0.032473 0.00755573 0.00802514 -0.031483 0.00679636 0.03382 -0.0268981 0.0071951 
0.032808 -0.025967 0.00748272 0.00538025 -0.0241403 0.00751938 0.0102479 -0.024092 0.00728187 
-0.0207996 -0.0190456 0.00672529 0.0363266 -0.0194176 0.00679557 -0.0317771 -0.0175651 0.00743032 
0.0198229 -0.0156851 0.00697781 0.00886689 -0.0141191 0.00670076 -0.0222502 -0.00974669 0.00701223 
-0.0196799 -0.00931279 0.00786148 -0.00553214 -0.00871323 0.00752826 -0.0281455 -0.00127675 0.00653652 
-0.0416237 0.00110806 0.00729895 -0.0131355 0.00164571 0.00629281 0.0362421 0.00170773 0.00763571 
0.0404406 0.00462082 0.00708099 -0.0170872 0.00564833 0.00757852 -0.00723413 0.00605583 0.00790974 
0.0011249 0.00615697 0.00771489 0.0324887 0.00836074 0.00597509 -0.0392616 0.00972366 0.00722493 
-0.0101256 0.00978275 0.0067337 0.0399323 0.0117688 0.00787862 0.0128044 0.0127337 0.00698495 
0.0261916 0.0119357 0.00714335 0.00789931 0.0136568 0.00675277 0.012949 0.0143048 0.00668308 
0.0336082 0.013194 0.00803783 -0.0214239 0.0189608 0.00734665 0.0122157 0.0191756 0.00721986 
0.0388885 0.0193682 0.00767566 0.0350116 0.0207306 0.00621514 -0.0349287 0.0230684 0.00793315 
0.0226957 0.0260881 0.00736442 0.0311732 0.0371467 0.0070499 -0.0375088 0.0393741 0.00770508 
-0.0312382 0.0393096 0.00722018 0.0170579 0.0421878 0.0066377 -0.00340304 -0.0448428 0.00825106 
-0.027409 -0.0433703 0.00863422 0.0414821 -0.0410789 0.00895931 -0.0169239 -0.0402939 0.00727074 
-0.00670669 -0.0394183 0.00845862 0.0244803 -0.0401788 0.00912415 -0.00302782 -0.0385948 0.00906149 
0.00798734 -0.0367051 0.00909075 0.0355384 -0.0354155 0.00802408 0.00879071 -0.0344865 0.00867454 
0.043014 -0.0343178 0.00764955 -0.0427235 -0.0332389 0.00885435 -0.0232422 -0.0321576 0.00800094 
-0.0210092 -0.0320472 0.00794747 -0.0266532 -0.0301716 0.00912513 -0.0105296 -0.0314142 0.00899142 
-0.0448384 -0.0296834 0.0079681 0.023019 -0.0293484 0.00816534 -0.0240024 -0.0280603 0.00810075 
0.00577088 -0.0287415 0.00923977 -0.00580099 -0.0272788 0.00869854 -0.0338231 -0.0250135 0.00824813 
0.033456 -0.0256735 0.0088459 0.0436787 -0.0219137 0.00810958 0.0336491 -0.0197505 0.00851778 
-0.0108877 -0.0188832 0.00856334 -0.0204621 -0.0172006 0.0080647 0.0030191 -0.0179247 0.00911507 
0.0404767 -0.0183151 0.00837764 0.0223879 -0.0163393 0.00825975 0.0249316 -0.014475 0.00832217 
0.0268005 -0.0146468 0.00931333 0.0277003 -0.0107969 0.00820591 -0.0253401 -0.0103599 0.00699028 
0.0350526 -0.0102353 0.00895505 -0.0304645 -0.00701594 0.0089996 -0.0198564 -0.00683511 0.00894728 
-0.0135858 -0.00672635 0.00808162 -0.0129003 -0.00574839 0.00916729 -0.042786 -0.00359954 0.00908884 
-0.00783961 -0.000387029 0.00836627 -0.00702036 -0.00121172 0.00860021 0.0420414 -0.00101026 0.0070083 
0.0384376 0.000848974 0.00904796 -0.00967086 0.00179773 0.00849956 0.00417698 0.0024455 0.00848749 
0.0147261 0.00139147 0.00847574 0.0292006 0.00433004 0.00890729 0.0305447 0.00486582 0.00858701 
-0.0403489 0.00598291 0.00819966 -0.037077 0.00611456 0.00836536 -0.0287984 0.00559412 0.00856583 
0.021602 0.00540593 0.00914665 0.0228765 0.00606581 0.00834286 -0.0426568 0.00723228 0.0089882 
0.0142017 0.0079404 0.00900631 0.0202046 0.00840095 0.00891435 -0.00279986 0.0127222 0.00811769 
0.014866 0.0127598 0.00927901 -0.0429188 0.0135204 0.00851023 -0.034865 0.0142961 0.00824999 
0.0248423 0.0143007 0.00905222 0.0287781 0.014071 0.00840009 -0.00443291 0.0160613 0.00784701 
0.00976298 0.0163696 0.00854194 0.0418335 0.0161761 0.00802401 -0.0360536 0.0173104 0.00879709 
0.0215224 0.0171285 0.00879083 0.0226738 0.0181095 0.00907564 -0.0431379 0.0208085 0.00843765 
-0.0153727 0.020636 0.00861005 -0.0282566 0.021284 0.00859072 0.00128112 0.0217131 0.00910034 
0.0123926 0.0218243 0.00899238 0.0146363 0.0223077 0.00876324 -0.0436572 0.0238848 0.00737624 
0.00264144 0.0247174 0.00739885 0.0258603 0.0235991 0.00707664 -0.0114472 0.026715 0.00847917 
0.00953871 0.0271324 0.00873976 0.0444958 0.0309554 0.00845167 -0.00435696 0.0325462 0.00923903 
0.00284552 0.0345861 0.00795115 -0.0407273 0.0358476 0.00727342 0.0251972 0.0393087 0.00887676 
0.0163992 0.0415262 0.00798581 0.00805094 0.0422278 0.00908158 0.0399235 0.0434757 0.00848818 
-0.0428902 -0.0449088 0.00943366 -0.0334706 -0.0396012 0.0104685 0.0156715 -0.0391733 0.00967599 
-0.0370475 -0.0370945 0.00967107 -0.0439713 -0.0357399 0.00986055 -0.00161929 -0.0353994 0.00861035 
0.0403097 -0.0347888 0.00940618 0.0268369 -0.0315202 0.0105537 0.0210005 -0.0239559 0.00832269 
-0.0408326 -0.0234295 0.0093678 0.00623721 -0.0211799 0.0094511 -0.0426154 -0.0165053 0.0104413 
-0.0329121 -0.0139828 0.00955914 0.0176437 -0.0119747 0.00932206 0.00689113 -0.0107816 0.00939369 
-0.038829 -0.00978443 0.0100953 0.0251729 -0.00985964 0.00966178 -0.0211095 -0.00770044 0.00867794 
0.00937085 -0.00418454 0.00971263 -0.0179231 -0.00300678 0.00921309 -0.0261639 0.00337815 0.00838518 
-0.027449 0.00511055 0.00867069 -0.0406381 0.00555966 0.0082978 -0.01547 0.00642247 0.00825823 
0.030759 0.00580352 0.00951502 -0.0408092 0.00981999 0.0103234 0.0212596 0.00979192 0.00937987 
-0.0310202 0.0131063 0.00980467 8.23501e-07 0.0138406 0.00962915 0.0143092 0.0139794 0.00927503 
-0.0287818 0.014969 0.00897045 -0.0363159 0.0185996 0.00899984 0.00395304 0.0187088 0.00955843 
0.03506 0.0228899 0.0098911 -0.0386663 0.0253433 0.0101482 -0.00739359 0.0259593 0.00971192 
0.0167463 0.0251763 0.00943229 -0.0267569 0.0263983 0.0100878 -0.0357156 0.0282031 0.00955686 
-0.0214233 0.0285543 0.00833177 0.0191509 0.0299648 0.00969125 -0.0313244 0.0314049 0.0105049 
-0.041477 0.0364172 0.0103826 -0.00750544 0.0361316 0.00897709 0.0297434 0.0373158 0.0104391 
0.0165329 0.0385374 0.00937199 0.0281745 0.039089 0.00856754 -0.0112537 0.0395394 0.00975261 
-0.0205282 0.0432397 0.00965631 -0.0317519 -0.0446953 0.0103778 -0.0335565 -0.0442122 0.0112808 
-0.00674967 -0.0416523 0.0111261 -0.0248652 -0.040212 0.0111974 -0.0289295 -0.0389067 0.00961785 
0.0308099 -0.0378456 0.0117681 -0.0179089 -0.0346335 0.00990962 -8.23525e-05 -0.034098 0.0101412 
0.00594186 -0.0351889 0.0108303 0.0333162 -0.0342631 0.0117546 -0.00682403 -0.0314098 0.0105269 
-0.0240719 -0.0268296 0.0114937 0.039775 -0.0211058 0.0113841 0.00156248 -0.0194187 0.0109128 
0.0134129 -0.0192809 0.0101173 -0.0339565 -0.0167518 0.0106018 0.0296492 -0.015918 0.0108217 
-0.00444012 -0.0151621 0.0116709 -0.0388614 -0.0136303 0.0112493 -0.0117656 -0.0138394 0.0115829 
-0.00710141 -0.0133745 0.0102506 0.0286804 -0.00919085 0.0111284 0.0109664 -0.00760095 0.0118026 
0.021323 -0.00444137 0.0116572 -0.0141425 -0.00311887 0.0116805 0.039455 -0.000236508 0.0111768 
-0.0260142 0.00017485 0.0109178 0.0188762 0.00181355 0.0107445 0.0449494 0.00392273 0.0117739 
0.0246705 0.0064451 0.0114936 0.0340899 0.00882812 0.0116085 0.00978397 0.00922321 0.00969551 
0.0398091 0.011618 0.0117884 0.0440772 0.0154938 0.00976895 -0.0286532 0.0159811 0.00976597 
-0.00317984 0.0164631 0.0105041 0.00517921 0.0169249 0.0110925 0.0256029 0.0175394 0.0100993 
0.0090081 0.0191686 0.0112015 0.0307708 0.0242663 0.0113942 -0.00563177 0.0268155 0.0114688 
-0.0200898 0.0311527 0.0113664 0.0038092 0.0311583 0.0110362 -0.0073504 0.0318329 0.0117395 
0.01325 0.0319187 0.0110463 -0.00472634 0.0344449 0.010346 -0.00883869 0.0381834 0.0106489 
0.0221021 0.0401282 0.0106567 -0.0390027 0.0421086 0.0107468 -0.0308094 -0.0435702 0.012245 
-0.042922 -0.0404536 0.0119625 0.0280204 -0.0311414 0.0120471 -0.0401314 -0.0280847 0.0114447 
0.0156293 -0.0283842 0.0115753 0.000892701 -0.0263701 0.0119036 -0.0350278 -0.0224863 0.0118142 
-0.0100897 -0.0180162 0.0120562 -0.0257955 -0.0157834 0.0118463 -0.0269092 -0.0125643 0.0119492 
0.0347312 -0.012978 0.0120916 -0.0112192 -0.0104501 0.0121055 0.00743742 -0.00926665 0.0120186 
0.013874 -0.00963069 0.0125167 -0.0214415 -0.007536 0.0124541 -0.0150798 -0.00698339 0.0119372 
0.0180565 -0.00487531 0.0130612 0.00127443 -0.000618905 0.012044 -0.0332593 0.000859011 0.0115929 
0.032558 0.00153523 0.0118015 0.0221269 0.00728552 0.0119566 -0.0214351 0.00957734 0.0120238 
-0.00831541 0.0129665 0.0118758 -0.0161548 0.0159009 0.0113313 -0.022709 0.0198803 0.0118718 
-0.00782209 0.0241861 0.0127628 -0.0132251 0.0252506 0.0109169 0.000162142 0.0251126 0.0128495 
0.00834461 0.0278725 0.0113344 -0.0260391 0.0304395 0.0116158 0.0364634 0.0310238 0.0119559 
-0.0359241 0.0337864 0.0116654 -0.0264781 0.032823 0.0119545 0.0201641 -0.0426709 0.0133325 
0.010226 -0.0308634 0.0128296 0.0109547 -0.0235646 0.0129094 0.0218314 -0.00971151 0.0124241 
-0.00433253 -0.00676057 0.0133933 0.00418285 0.0112423 0.0128893 -0.0436896 0.0195853 0.0130749 
-0.0138035 0.0240512 0.0121522 0.0181332 0.0246356 0.0134932 0.0132394 0.0345575 0.0121611 
-0.0190394 0.0446837 0.0126584 -0.0234086 -0.038644 0.0136693 0.0307351 -0.0355434 0.0144654 
0.0346336 -0.0325969 0.0145152 -0.0313057 -0.0141988 0.0139401 -0.042331 -0.00792816 0.0143291 
-0.0101373 -0.00698039 0.0136891 0.0127657 -0.00746761 0.0146266 -0.00720807 -0.00608605 0.0144981 
0.0147823 -0.0446949 0.0155568 -0.0225361 -0.0441701 0.0148508 -0.00338111 -0.0363358 0.015961 
-0.038621 -0.0229432 0.0153702 0.0272875 -0.0186725 0.0159496 0.0386193 -0.00496685 0.0147567 
-0.0395569 -0.00227866 0.0149935 -0.0349081 0.00917553 0.0153692 -0.0219587 0.0304934 0.0147486 
-0.0379532 0.0399341 0.0149968 -0.00785852 0.041878 0.0151732 0.0430506 0.0422314 0.0154835 
0.0252581 -0.0163235 0.0171885 -0.0136128 -0.00979682 0.0165511 -0.0193355 0.018129 0.0163966 
-0.014478 0.0275162 0.016276 0.0214431 0.0335886 0.0162806 -0.040885 -0.00406647 0.0184016 
0.0110904 0.00657535 0.0184943 -0.0349861 -0.0412827 0.0201039 0.000425919 -0.0415728 0.0196716 
-0.039126 0.0399637 0.019015 -0.0406141 -0.0405112 0.0209638 -0.0406313 0.0295913 0.0207679 
-0.0177429 -0.0346724 0.0225304 0.027474 -0.0338615 0.0218321 0.0101693 0.00555192 0.0214701 
0.00546842 0.0177814 0.02239 0.0129906 -0.00677597 0.0239585 -0.0394276 0.0109375 0.0240865 
-0.00586029 -0.0338127 0.0241158 0.0392765 -0.0300093 0.024285 -0.0139777 -0.0223984 0.0248981 
-0.0323128 -0.0219837 0.0253161 0.0184681 -0.0172117 0.0247342 0.0282033 -0.0178095 0.0251261 
0.0322358 -0.0130621 0.0251986 -0.000610522 -0.00103491 0.0250839 -0.0396817 -0.0304797 0.0264114 
-0.0432264 -0.0264101 0.0266744 0.0054016 -0.025334 0.0277338 -0.0291427 -0.0219343 0.0271634 
-0.0152062 0.0294088 0.0268325 -0.0227164 -0.0141288 0.0290529 -0.00552594 0.00555795 0.028147 
0.00976854 0.0197772 0.0286895 0.0338942 -0.0410147 0.0297366 -0.0343844 -0.0078404 0.0309265 
0.0293019 -0.00298432 0.0317769 -0.0160452 -0.0323821 0.0328528 -0.0405162 -0.0161033 0.0321329 
0.023953 0.00820576 0.0323274 0.0433459 -0.0353282 0.0342213 0.0275881 -0.00673863 0.0336465 
0.0218308 -0.0192565 0.0356805 0.0414517 -0.0114994 0.0356993 -0.00229178 0.0020129 0.034799 
0.0133448 0.00646544 0.0349572 -0.0422696 0.0340949 0.0365704 0.00264867 -0.0338128 0.0379575 
-0.0183202 -0.0175475 0.0370218 0.0323804 -0.0132471 0.0371448 -0.032208 0.0306075 0.0381822 
0.0101031 -0.0273014 0.0397735 0.0262592 -0.0217201 0.0387136 0.00153271 0.0201988 0.039553 
0.0412685 -0.0295104 0.0408841 -0.00474481 -0.00600267 0.0401548 0.0277548 0.0042931 0.0405143 
0.0354139 0.0312817 0.0407266 0.0262096 -0.0449372 0.0412836 -0.00446216 -0.0255279 0.0433115 
0.012585 0.0155082 0.0427531 -0.0368667 0.0306348 0.0435538 0.0152528 0.033152 0.0433808 
-0.0393221 -0.0167834 0.045973 0.0342493 -0.0115037 0.0455996 0.00314898 0.00491531 0.0453995 
0.0223025 -0.0112244 0.0470397 -0.0326334 -0.00963456 0.0465251 -0.0207563 -0.0111167 0.0479345 
-0.0449336 -0.00957357 0.0484499 -0.0102477 0.0267602 0.0478761 -0.0213481 0.0319153 0.0480894 
-0.0160353 0.0448572 0.0478951 0.0339316 -0.041715 0.0496405 0.00265626 0.00371614 0.0498769 
0.0153641 0.0146287 0.0490382 -0.0269229 0.0267788 0.0493724 0.0439232 0.0371117 0.0497987 
0.00513794 0.0433856 0.0499509 0.0114764 0.0140289 0.050419 0.0164577 0.0353116 0.0509486 
0.0302919 -0.0148257 0.0521673 -0.0328109 -0.0226975 0.0535644 -0.0329608 -0.0218045 0.0541585 
-0.024842 -0.00884532 0.0548468 -0.0371624 0.011326 0.0550456 -0.0336946 -0.0248459 0.0562739 
0.0323341 0.0191974 0.0562412 -0.0281804 0.0418824 0.05581 0.0320014 0.00756294 0.0572401 
0.0185094 -0.042363 0.0584784 0.0414834 -0.0181367 0.058589 -0.0420316 -0.0145538 0.0586256 
-0.0440308 0.0448256 0.0589023 0.0341086 -0.0368686 0.0602183 0.0379188 0.0120326 0.0602753 
-0.015788 -0.0282898 0.0626041 -0.0386256 -0.00983966 0.0620003 0.0289145 -0.0340196 0.0634871 
-0.0437633 0.0406561 0.0632002 -0.0419519 -0.0259749 0.0646848 0.0154702 -0.00154679 0.0647573 
-0.0144089 0.0201081 0.0652933 0.0104707 0.0313218 0.0672143 0.00357123 -0.00830953 0.0697735 
-0.0356048 -0.000104637 0.0703688 -0.0197415 0.0344175 0.0705645 0.00635633 0.000852437 0.071457 
-0.0385899 -0.0405251 0.0730757 0.0414788 -0.00521487 0.0725236 -0.0296003 0.0277025 0.0733504 
-0.0170112 0.0231088 0.0745058 0.00308146 0.0401468 0.0747652 -0.00521279 -0.0413279 0.0754864 
-0.0245993 0.0193658 0.074915 0.0131273 0.040817 0.0748658 0.0419483 -0.0348097 0.0762431 
0.0282359 -0.00877456 0.0783504 -0.0081225 0.0151775 0.0778264 -0.0155539 0.0359545 0.0785002 
0.0433204 -0.0141837 0.0799189 -0.0256005 0.0215871 0.0795774 -0.00757157 0.00454821 0.0821223 
0.0188903 -0.0308528 0.0861722 -0.0207679 -0.0256315 0.0874484 0.00643655 -0.000956063 0.0870073 
0.00741479 -0.0295782 0.0888719 0.00347554 0.00338662 0.0884968 -0.00254916 -0.00379952 0.091039 

VERTICES 649 648
OFFSETS vtktypeint64
0 1 2 3 4 5 6 7 8 
9 10 11 12 13 14 15 16 17 
18 19 20 21 22 23 24 25 26 
27 28 29 30 31 32 33 34 35 
36 37 38 39 40 41 42 43 44 
45 46 47 48 49 50 51 52 53 
54 55 56 57 58 59 60 61 62 
63 64 65 66 67 68 69 70 71 
72 73 74 75 76 77 78 79 80 
81 82 83 84 85 86 87 88 89 
90 91 92 93 94 95 96 97 98 
99 100 101 102 103 104 105 106 107 
108 109 110 111 112 113 114 115 116 
117 118 119 120 121 122 123 124 125 
126 127 128 129 130 131 132 133 134 
135 136 137 138 139 140 141 142 143 
144 145 146 147 148 149 150 151 152 
153 154 155 156 157 158 159 160 161 
162 163 164 165 166 167 168 169 170 
171 172 173 174 175 176 177 178 179 
180 181 182 183 184 185 186 187 188 
189 190 191 192 193 194 195 196 197 
198 199 200 201 202 203 204 205 206 
207 208 209 210 211 212 213 214 215 
216 217 218 219 220 221 222 223 224 
225 226 227 228 229 230 231 232 233 
234 235 236 237 238 239 240 241 242 
243 244 245 246 247 248 249 250 251 
252 253 254 255 256 257 258 259 260 
261 262 263 264 265 266 267 268 269 
270 271 272 273 274 275 276 277 278 
279 280 281 282 283 284 285 286 287 
288 289 290 291 292 293 294 295 296 
297 298 299 300 301 302 303 304 305 
306 307 308 309 310 311 312 313 314 
315 316 317 318 319 320 321 322 323 
324 325 326 327 328 329 330 331 332 
333 334 335 336 337 338 339 340 341 
342 343 344 345 346 347 348 349 350 
351 352 353 354 355 356 357 358 359 
360 361 362 363 364 365 366 367 368 
369 370 371 372 373 374 375 376 377 
378 379 380 381 382 383 384 385 386 
387 388 389 390 391 392 393 394 395 
396 397 398 399 400 401 402 403 404 
405 406 407 408 409 410 411 412 413 
414 415 416 417 418 419 420 421 422 
423 424 425 426 427 428 429 430 431 
432 433 434 435 436 437 438 439 440 
441 442 443 444 445 446 447 448 449 
450 451 452 453 454 455 456 457 458 
459 460 461 462 463 464 465 466 467 
468 469 470 471 472 473 474 475 476 
477 478 479 480 481 482 483 484 485 
486 487 488 489 490 491 492 493 494 
495 496 497 498 499 500 501 502 503 
504 505 506 507 508 509 510 511 512 
513 514 515 516 517 518 519 520 521 
522 523 524 525 526 527 528 529 530 
531 532 533 534 535 536 537 538 539 
540 541 542 543 544 545 546 547 548 
549 550 551 552 553 554 555 556 557 
558 559 560 561 562 563 564 565 566 
567 568 569 570 571 572 573 574 575 
576 577 578 579 580 581 582 583 584 
585 586 587 588 589 590 591 592 593 
594 595 596 597 598 599 600 601 602 
603 604 605 606 607 608 609 610 611 
612 613 614 615 616 617 618 619 620 
621 622 623 624 625 626 627 628 629 
630 631 632 633 634 635 636 637 638 
639 640 641 642 643 644 645 646 647 
648 
CONNECTIVITY vtktypeint64
0 1 2 3 4 5 6 7 8 
9 10 11 12 13 14 15 16 17 
18 19 20 21 22 23 24 25 26 
27 28 29 30 31 32 33 34 35 
36 37 38 39 40 41 42 43 44 
45 46 47 48 49 50 51 52 53 
54 55 56 57 58 59 60 61 62 
63 64 65 66 67 68 69 70 71 
72 73 74 75 76 77 78 79 80 
81 82 83 84 85 86 87 88 89 
90 91 92 93 94 95 96 97 98 
99 100 101 102 103 104 105 106 107 
108 109 110 111 112 113 114 115 116 
117 118 119 120 121 122 123 124 125 
126 127 128 129 130 131 132 133 134 
135 136 137 138 139 140 141 142 143 
144 145 146 147 148 149 150 151 152 
153 154 155 156 157 158 159 160 161 
162 163 164 165 166 167 168 169 170 
171 172 173 174 175 176 177 178 179 
180 181 182 183 184 185 186 187 188 
189 190 191 192 193 194 195 196 197 
198 199 200 201 202 203 204 205 206 
207 208 209 210 211 212 213 214 215 
216 217 218 219 220 221 222 223 224 
225 226 227 228 229 230 231 232 233 
234 235 236 237 238 239 240 241 242 
243 244 245 246 247 248 249 250 251 
252 253 254 255 256 257 258 259 260 
261 262 263 264 265 266 267 268 269 
270 271 272 273 274 275 276 277 278 
279 280 281 282 283 284 285 286 287 
288 289 290 291 292 293 294 295 296 
297 298 299 300 301 302 303 304 305 
306 307 308 309 310 311 312 313 314 
315 316 317 318 319 320 321 322 323 
324 325 326 327 328 329 330 331 332 
333 334 335 336 337 338 339 340 341 
342 343 344 345 346 347 348 349 350 
351 352 353 354 355 356 357 358 359 
360 361 362 363 364 365 366 367 368 
369 370 371 372 373 374 375 376 377 
378 379 380 381 382 383 384 385 386 
387 388 389 390 391 392 393 394 395 
396 397 398 399 400 401 402 403 404 
405 406 407 408 409 410 411 412 413 
414 415 416 417 418 419 420 421 422 
423 424 425 426 427 428 429 430 431 
432 433 434 435 436 437 438 439 440 
441 442 443 444 445 446 447 448 449 
450 451 452 453 454 455 456 457 458 
459 460 461 462 463 464 465 466 467 
468 469 470 471 472 473 474 475 476 
477 478 479 480 481 482 483 484 485 
486 487 488 489 490 491 492 493 494 
495 496 497 498 499 500 501 502 503 
504 505 506 507 508 509 510 511 512 
513 514 515 516 517 518 519 520 521 
522 523 524 525 526 527 528 529 530 
531 532 533 534 535 536 537 538 539 
540 541 542 543 544 545 546 547 548 
549 550 551 552 553 554 555 556 557 
558 559 560 561 562 563 564 565 566 
567 568 569 570 571 572 573 574 575 
576 577 578 579 580 581 582 583 584 
585 586 587 588 589 590 591 592 593 
594 595 596 597 598 599 600 601 602 
603 604 605 606 607 608 609 610 611 
612 613 614 615 616 617 618 619 620 
621 622 623 624 625 626 627 628 629 
630 631 632 633 634 635 636 637 638 
639 640 641 642 643 644 645 646 647 

POINT_DATA 648
FIELD FieldData 12
id 1 648 int
350 445 448 380 285 135 130 93 31 
471 68 489 156 147 430 335 116 71 
403 25 460 43 42 105 360 405 371 
204 217 212 305 379 126 301 213 426 
124 221 345 273 70 117 281 138 529 
254 266 481 455 225 421 286 182 361 
476 89 52 487 239 333 250 352 393 
139 294 354 493 449 323 329 462 376 
276 1 38 260 53 368 515 252 50 
171 142 205 265 77 334 56 425 144 
338 420 296 442 363 392 521 279 325 
109 461 179 268 94 466 348 232 482 
123 108 342 346 414 140 102 82 226 
436 128 79 416 472 170 74 59 146 
340 157 3 278 299 257 20 151 208 
244 153 453 480 181 401 17 395 63 
469 308 315 7 431 394 78 206 504 
343 148 65 180 251 45 413 302 397 
272 55 84 218 35 136 508 210 34 
359 24 477 295 121 64 160 111 174 
28 479 274 143 374 194 211 311 243 
377 341 196 300 216 474 316 129 255 
119 178 202 443 287 498 451 114 506 
201 81 332 313 437 320 328 62 375 
475 438 275 463 258 113 390 429 271 
122 51 347 303 505 183 267 484 223 
177 238 439 168 441 227 248 324 542 
75 499 61 141 478 486 456 145 261 
288 432 378 446 46 41 236 110 447 
161 33 330 163 198 76 318 434 98 
188 207 99 314 326 92 115 344 319 
47 229 404 307 304 185 137 103 96 
331 409 415 190 317 470 154 298 289 
355 444 240 290 292 23 293 399 72 
32 383 263 132 66 80 465 36 175 
90 418 458 501 495 407 396 467 450 
424 112 60 21 384 297 491 310 220 
15 40 433 339 54 357 166 49 337 
18 104 191 520 507 30 199 327 222 
85 309 386 412 91 351 164 256 459 
411 22 159 69 5 234 282 167 496 
500 349 106 16 427 511 370 57 519 
284 503 245 454 4 214 169 322 150 
48 485 417 219 100 162 195 408 410 
209 321 488 233 452 362 246 536 155 
406 242 366 457 87 312 356 402 388 
367 88 398 13 237 440 44 73 422 
381 58 215 490 483 336 125 385 2 
83 186 86 353 165 497 373 358 228 
473 193 118 364 189 280 187 158 253 
29 387 559 435 372 200 134 107 502 
120 291 526 247 176 8 259 231 428 
127 10 522 11 365 389 538 423 197 
262 468 149 14 131 9 509 269 26 
494 270 203 283 192 101 6 464 152 
97 12 391 172 173 492 543 306 95 
39 27 224 241 230 67 37 516 133 
382 400 419 249 277 19 553 264 184 
369 235 567 528 562 591 523 549 524 
518 589 546 587 580 601 571 533 513 
576 551 517 566 564 525 527 532 547 
540 612 545 514 577 563 592 570 572 
510 605 615 558 638 565 512 550 616 
539 530 596 645 573 561 548 557 613 
623 534 604 560 594 579 618 628 593 
599 617 585 554 535 583 614 597 598 
622 637 531 586 633 552 537 541 578 
569 595 581 607 555 556 635 603 590 
639 626 620 629 544 634 575 574 610 
625 611 608 568 600 630 648 647 609 
588 643 632 582 606 584 602 619 624 
644 646 631 636 627 621 640 641 642 

type 1 648 int
1 1 1 1 1 1 1 1 1 
1 1 1 1 1 1 1 1 1 
1 1 1 1 1 1 1 1 1 
1 1 1 1 1 1 1 1 1 
1 1 1 1 1 1 1 1 1 
1 1 1 1 1 1 1 1 1 
1 1 1 1 1 1 1 1 1 
1 1 1 1 1 1 1 1 1 
1 4 1 1 1 1 1 1 1 
1 1 1 1 1 1 1 1 1 
1 1 1 1 1 1 1 1 1 
1 1 1 1 1 1 1 1 1 
1 1 1 1 1 1 1 1 1 
1 1 1 1 1 1 1 1 1 
1 1 2 1 1 1 1 1 1 
1 1 1 1 1 1 1 1 1 
1 1 1 2 1 1 1 1 1 
1 1 1 1 1 1 1 1 1 
1 1 1 1 1 1 1 1 1 
1 1 1 1 1 1 1 1 1 
1 1 1 1 1 1 1 1 1 
1 1 1 1 1 1 1 1 1 
1 1 1 1 1 1 1 1 1 
1 1 1 1 1 1 1 1 1 
1 1 1 1 1 1 1 1 1 
1 1 1 1 1 1 1 1 1 
1 1 1 1 1 1 1 1 1 
1 1 1 1 1 1 1 1 1 
1 1 1 1 1 1 1 1 1 
1 1 1 1 1 1 1 1 1 
1 1 1 1 1 1 1 1 1 
1 1 1 1 1 1 1 1 1 
1 1 1 1 1 1 1 1 1 
1 1 1 1 1 1 1 1 1 
1 1 1 1 1 1 1 1 1 
1 1 1 1 1 1 1 1 1 
1 1 1 1 1 1 1 1 1 
2 1 1 1 1 1 1 1 1 
1 1 1 1 1 1 1 1 1 
1 1 1 1 1 1 1 1 1 
1 1 1 1 2 1 1 1 1 
1 1 1 2 1 1 1 1 1 
1 1 1 1 2 1 1 1 1 
1 1 1 1 1 1 1 1 1 
1 1 1 1 1 1 1 1 1 
1 1 1 1 1 1 1 1 1 
1 1 1 2 1 1 1 1 1 
1 1 1 1 1 1 1 1 3 
1 1 1 1 1 1 1 1 1 
1 1 1 1 1 1 1 1 1 
1 1 1 1 1 1 1 1 1 
1 1 1 1 1 2 1 1 1 
1 2 1 2 1 1 1 1 1 
1 1 1 2 1 2 1 1 1 
1 1 1 1 1 1 2 1 1 
1 2 1 1 1 1 1 1 1 
1 1 1 1 1 1 1 2 1 
1 1 1 1 1 1 1 1 1 
1 1 1 1 1 1 1 1 1 
1 1 1 1 1 1 1 1 1 
1 1 1 1 1 1 1 1 1 
1 1 1 1 1 1 1 1 1 
1 1 1 1 1 1 2 1 1 
1 1 1 1 1 1 1 1 1 
1 1 1 1 1 1 1 1 1 
1 1 1 1 1 1 1 1 1 
1 1 1 1 1 1 1 1 1 
1 1 1 1 1 1 1 1 1 
1 1 1 1 1 2 1 1 1 
1 1 1 1 1 1 1 1 1 
1 1 1 1 1 1 1 1 1 
1 1 1 1 1 1 1 1 1 

i 3 648 int
0 0 0 0 0 0 0 0 0 
0 0 0 0 0 0 0 0 0 
0 0 0 0 0 0 0 0 0 
0 0 0 0 0 0 0 0 0 
0 0 0 0 0 0 0 0 0 
0 0 0 0 0 0 0 0 0 
0 0 0 0 0 0 0 0 0 
0 0 0 0 0 0 0 0 0 
0 0 0 0 0 0 0 0 0 
0 0 0 0 0 0 0 0 0 
0 0 0 0 0 0 0 0 0 
0 0 0 0 0 0 0 0 0 
0 0 0 0 0 0 0 0 0 
0 0 0 0 0 0 0 0 0 
0 0 0 0 0 0 0 0 0 
0 0 0 0 0 0 0 0 0 
0 0 0 0 0 0 0 0 0 
0 0 0 0 0 0 0 0 0 
0 0 0 0 0 0 0 0 0 
0 0 0 0 0 0 0 0 0 
0 0 0 0 0 0 0 0 0 
0 0 0 0 0 0 0 0 0 
0 0 0 0 0 0 0 0 0 
0 0 0 0 0 0 0 0 0 
0 0 0 0 0 0 0 0 0 
0 0 0 0 0 0 0 0 0 
0 0 0 0 0 0 0 0 0 
0 0 0 0 0 0 0 0 0 
0 0 0 0 0 0 0 0 0 
0 0 0 0 0 0 0 0 0 
0 0 0 0 0 0 0 0 0 
0 0 0 0 0 0 0 0 0 
0 0 0 0 0 0 0 0 0 
0 0 0 0 0 0 0 0 0 
0 0 0 0 0 0 0 0 0 
0 0 0 0 0 0 0 0 0 
0 0 0 0 0 0 0 0 0 
0 0 0 0 0 0 0 0 0 
0 0 0 0 0 0 0 0 0 
0 0 0 0 0 0 0 0 0 
0 0 0 0 0 0 0 0 0 
0 0 0 0 0 0 0 0 0 
0 0 0 0 0 0 0 0 0 
0 0 0 0 0 0 0 0 0 
0 0 0 0 0 0 0 0 0 
0 0 0 0 0 0 0 0 0 
0 0 0 0 0 0 0 0 0 
0 0 0 0 0 0 0 0 0 
0 0 0 0 0 0 0 0 0 
0 0 0 0 0 0 0 0 0 
0 0 0 0 0 0 0 0 0 
0 0 0 0 0 0 0 0 0 
0 0 0 0 0 0 0 0 0 
0 0 0 0 0 0 0 0 0 
0 0 0 0 0 0 0 0 0 
0 0 0 0 0 0 0 0 0 
0 0 0 0 0 0 0 0 0 
0 0 0 0 0 0 0 0 0 
0 0 0 0 0 0 0 0 0 
0 0 0 0 0 0 0 0 0 
0 0 0 0 0 0 0 0 0 
0 0 0 0 0 0 0 0 0 
0 0 0 0 0 0 0 0 0 
0 0 0 0 0 0 0 0 0 
0 0 0 0 0 0 0 0 0 
0 0 0 0 0 0 0 0 0 
0 0 0 0 0 0 0 0 0 
0 0 0 0 0 0 0 0 0 
0 0 0 0 0 0 0 0 0 
0 0 0 0 0 0 0 0 0 
0 0 0 0 0 0 0 0 0 
0 0 0 0 0 0 0 0 0 
0 0 0 0 0 0 0 0 0 
0 0 0 0 0 0 0 0 0 
0 0 0 0 0 0 0 0 0 
0 0 0 0 0 0 0 0 0 
0 0 0 0 0 0 0 0 0 
0 0 0 0 0 0 0 0 0 
0 0 0 0 0 0 0 0 0 
0 0 0 0 0 0 0 0 0 
0 0 0 0 0 0 0 0 0 
0 0 0 0 0 0 0 0 0 
0 0 0 0 0 0 0 0 0 
0 0 0 0 0 0 0 0 0 
0 0 0 0 0 0 0 0 0 
0 0 0 0 0 0 0 0 0 
0 0 0 0 0 0 0 0 0 
0 0 0 0 0 0 0 0 0 
0 0 0 0 0 0 0 0 0 
0 0 0 0 0 0 0 0 0 
0 0 0 0 0 0 0 0 0 
0 0 0 0 0 0 0 0 0 
0 0 0 0 0 0 0 0 0 
0 0 0 0 0 0 0 0 0 
0 0 0 0 0 0 0 0 0 
0 0 0 0 0 0 0 0 0 
0 0 0 0 0 0 0 0 0 
0 0 0 0 0 0 0 0 0 
0 0 0 0 0 0 0 0 0 
0 0 0 0 0 0 0 0 0 
0 0 0 0 0 0 0 0 0 
0 0 0 0 0 0 0 0 0 
0 0 0 0 0 0 0 0 0 
0 0 0 0 0 0 0 0 0 
0 0 0 0 0 0 0 0 0 
0 0 0 0 0 0 0 0 0 
0 0 0 0 0 0 0 0 0 
0 0 0 0 0 0 0 0 0 
0 0 0 0 0 0 0 0 0 
0 0 0 0 0 0 0 0 0 
0 0 0 0 0 0 0 0 0 
0 0 0 0 0 0 0 0 0 
0 0 0 0 0 0 0 0 0 
0 0 0 0 0 0 0 0 0 
0 0 0 0 0 0 0 0 0 
0 0 0 0 0 0 0 0 0 
0 0 0 0 0 0 0 0 0 
0 0 0 0 0 0 0 0 0 
0 0 0 0 0 0 0 0 0 
0 0 0 0 0 0 0 0 0 
0 0 0 0 0 0 0 0 0 
0 0 0 0 0 0 0 0 0 
0 0 0 0 0 0 0 0 0 
0 0 0 0 0 0 0 0 0 
0 0 0 0 0 0 0 0 0 
0 0 0 0 0 0 0 0 0 
0 0 0 0 0 0 0 0 0 
0 0 0 0 0 0 0 0 0 
0 0 0 0 0 0 0 0 0 
0 0 0 0 0 0 0 0 0 
0 0 0 0 0 0 0 0 0 
0 0 0 0 0 0 0 0 0 
0 0 0 0 0 0 0 0 0 
0 0 0 0 0 0 0 0 0 
0 0 0 0 0 0 0 0 0 
0 0 0 0 0 0 0 0 0 
0 0 0 0 0 0 0 0 0 
0 0 0 0 0 0 0 0 0 
0 0 0 0 0 0 0 0 0 
0 0 0 0 0 0 0 0 0 
0 0 0 0 0 0 0 0 0 
0 0 0 0 0 0 0 0 0 
0 0 0 0 0 0 0 0 0 
0 0 0 0 0 0 0 0 0 
0 0 0 0 0 0 0 0 0 
0 0 0 0 0 0 0 0 0 
0 0 0 0 0 0 0 0 0 
0 0 0 0 0 0 0 0 0 
0 0 0 0 0 0 0 0 0 
0 0 0 0 0 0 0 0 0 
0 0 0 0 0 0 0 0 0 
0 0 0 0 0 0 0 0 0 
0 0 0 0 0 0 0 0 0 
0 0 0 0 0 0 0 0 0 
0 0 0 0 0 0 0 0 0 
0 0 0 0 0 0 0 0 0 
0 0 0 0 0 0 0 0 0 
0 0 0 0 0 0 0 0 0 
0 0 0 0 0 0 0 0 0 
0 0 0 0 0 0 0 0 0 
0 0 0 0 0 0 0 0 0 
0 0 0 0 0 0 0 0 0 
0 0 0 0 0 0 0 0 0 
0 0 0 0 0 0 0 0 0 
0 0 0 0 0 0 0 0 0 
0 0 0 0 0 0 0 0 0 
0 0 0 0 0 0 0 0 0 
0 0 0 0 0 0 0 0 0 
0 0 0 0 0 0 0 0 0 
0 0 0 0 0 0 0 0 0 
0 0 0 0 0 0 0 0 0 
0 0 0 0 0 0 0 0 0 
0 0 0 0 0 0 0 0 0 
0 0 0 0 0 0 0 0 0 
0 0 0 0 0 0 0 0 0 
0 0 0 0 0 0 0 0 0 
0 0 0 0 0 0 0 0 0 
0 0 0 0 0 0 0 0 0 
0 0 0 0 0 0 0 0 0 
0 0 0 0 0 0 0 0 0 
0 0 0 0 0 0 0 0 0 
0 0 0 0 0 0 0 0 0 
0 0 0 0 0 0 0 0 0 
0 0 0 0 0 0 0 0 0 
0 0 0 0 0 0 0 0 0 
0 0 0 0 0 0 0 0 0 
0 0 0 0 0 0 0 0 0 
0 0 0 0 0 0 0 0 0 
0 0 0 0 0 0 0 0 0 
0 0 0 0 0 0 0 0 0 
0 0 0 0 0 0 0 0 0 
0 0 0 0 0 0 0 0 0 
0 0 0 0 0 0 0 0 0 
0 0 0 0 0 0 0 0 0 
0 0 0 0 0 0 0 0 0 
0 0 0 0 0 0 0 0 0 
0 0 0 0 0 0 0 0 0 
0 0 0 0 0 0 0 0 0 
0 0 0 0 0 0 0 0 0 
0 0 0 0 0 0 0 0 0 
0 0 0 0 0 0 0 0 0 
0 0 0 0 0 0 0 0 0 
0 0 0 0 0 0 0 0 0 
0 0 0 0 0 0 0 0 0 
0 0 0 0 0 0 0 0 0 
0 0 0 0 0 0 0 0 0 
0 0 0 0 0 0 0 0 0 
0 0 0 0 0 0 0 0 0 
0 0 0 0 0 0 0 0 0 
0 0 0 0 0 0 0 0 0 
0 0 0 0 0 0 0 0 0 
0 0 0 0 0 0 0 0 0 
0 0 0 0 0 0 0 0 0 
0 0 0 0 0 0 0 0 0 
0 0 0 0 0 0 0 0 0 
0 0 0 0 0 0 0 0 0 

v 3 648 double
0 0 0.23526515029 0 0 0.20176174398 0 0 0.24900148654 
0 0 0.20960355806 0 0 0.23945798966 0 0 0.19991855323 
0 0 0.24123054167 0 0 0.22678290395 0 0 0.20704698685 
0 0 0.24538271096 0 0 0.22967172217 0 0 0.20718595375 
0 0 0.22885783405 0 0 0.23494984948 0 0 0.2407599779 
0 0 0.24431775749 0 0 0.23077703858 0 0 0.18958814713 
0 0 0.2274854792 0 0 0.22787297158 0 0 0.23289837989 
0 0 0.2330875013 0 0 0.1918314732 0 0 0.22776303486 
0 0 0.19772446945 0 0 0.2334925969 0 0 0.22428368975 
0 0 0.19921370917 0 0 0.22483308787 0 0 0.24385445307 
0 0 0.23234878792 0 0 0.232895902 0 0 0.21378911312 
0 0 0.23204664733 0 0 0.24309922836 0 0 0.2016047918 
0 0 -0.63312418749 0 0 -0.63312418749 0 0 0.18546815149 
0 0 0.18822307024 0 0 0.23626637681 0 0 0.18775264141 
0 0 0.24247986661 0 0 0.22835363391 0 0 0.20897874761 
0 0 -0.63312418749 0 0 0.23144614277 0 0 0.22641924107 
0 0 0.2321544822 0 0 0.223805019 0 0 0.23664248639 
0 0 0.22945118137 0 0 0.20952361484 0 0 0.19576764039 
0 0 -0.63312418749 0 0 0.22252613334 0 0 0.21446003861 
0 0 0.21761890542 0 0 0.22339724689 0 0 0.19494258255 
0 0 0.21737097187 0 0 0.17166627286 0 0 0.21583264348 
0 0 -0.63312418749 0 0 0.18218909224 0 0 -0.63312418749 
0 0 0.22044621891 0 0 -0.63312418749 0 0 0.2199996632 
0 0 0.21353335461 0 0 0.22003601458 0 0 -0.63312418749 
0 0 -0.63312418749 0 0 0.33287995422 0 0 0.22006620819 
0 0 0.17496073108 0 0 0.21189878782 0 0 0.18457680197 
0 0 0.14246887512 0 0 0.21196150989 0 0 -0.63312418749 
0 0 0.22047049401 0 0 0.21538496777 0 0 0.2162339731 
0 0 0.21770523114 0 0 -0.63312418749 0 0 0.17442494523 
0 0 0.17814539158 0 0 0.23854063999 0 0 0.2202660744 
0 0 -0.63312418749 0 0 0.18126710405 0 0 -0.63312418749 
0 0 -0.63312418749 0 0 0.21814684385 0 0 0.17780986971 
0 0 0.14254593216 0 0 0.21440196755 0 0 0.22104380167 
0 0 0.19040274817 0 0 0.17616602165 0 0 -0.63312418749 
0 0 0.17315708622 0 0 0.19046830399 0 0 -0.63312418749 
0 0 0.18535900741 0 0 0.19059698385 0 0 -0.63312418749 
0 0 0.22727277206 0 0 0.18154502975 0 0 0.22119763149 
0 0 0.17020777306 0 0 0.20564833282 0 0 0.16183689411 
0 0 0.21108269518 0 0 -0.63312418749 0 0 0.16308071788 
0 0 -0.63312418749 0 0 0.16300035534 0 0 0.21821760613 
0 0 0.21795726513 0 0 0.16859679896 0 0 0.21031208147 
0 0 0.21611429142 0 0 0.20310541349 0 0 0.20533324937 
0 0 -0.63312418749 0 0 0.15333826982 0 0 -0.63312418749 
0 0 0.19911351024 0 0 0.17392068374 0 0 0.17095282251 
0 0 0.20503206818 0 0 0.20178005131 0 0 0.21148609087 
0 0 0.21026429975 0 0 -0.63312418749 0 0 -0.63312418749 
0 0 -0.63312418749 0 0 -0.63312418749 0 0 0.15459703168 
0 0 0.21432291696 0 0 0.20989161168 0 0 0.20258089255 
0 0 0.17332677989 0 0 0.15104313592 0 0 -0.63312418749 
0 0 -0.63312418749 0 0 0.20921785458 0 0 0.21239628494 
0 0 0.23191361574 0 0 0.20988111842 0 0 0.16076759474 
0 0 0.16844942376 0 0 0.15716965513 0 0 0.21434626591 
0 0 -0.63312418749 0 0 0.16905463756 0 0 0.20974576182 
0 0 -0.63312418749 0 0 -0.63312418749 0 0 0.20558565288 
0 0 0.17339400443 0 0 -0.63312418749 0 0 0.18906434304 
0 0 0.13676790108 0 0 0.14267185006 0 0 -0.63312418749 
0 0 0.10757339171 0 0 -0.63312418749 0 0 0.14429933936 
0 0 -0.63312418749 0 0 0.13562719793 0 0 0.19357273745 
0 0 0.19632096037 0 0 0.147328135 0 0 0.14683381714 
0 0 -0.63312418749 0 0 0.20662910065 0 0 0.16506227387 
0 0 0.19254300132 0 0 0.15250962461 0 0 -0.63312418749 
0 0 -0.63312418749 0 0 -0.63312418749 0 0 -0.63312418749 
0 0 0.1880291819 0 0 0.19118592589 0 0 0.1469717155 
0 0 0.18776487987 0 0 0.16146604274 0 0 0.18999916526 
0 0 -0.63312418749 0 0 0.19345265913 0 0 0.19513596076 
0 0 -0.63312418749 0 0 0.14878748785 0 0 0.13775354168 
0 0 0.1954653253 0 0 0.18981992758 0 0 0.14689927481 
0 0 -0.63312418749 0 0 0.18253643671 0 0 0.18659876619 
0 0 0.18650400908 0 0 -0.63312418749 0 0 0.10333654271 
0 0 0.14783188086 0 0 0.19642848505 0 0 -0.63312418749 
0 0 0.19469925336 0 0 0.17078584593 0 0 0.14759201317 
0 0 0.13900484124 0 0 0.14848595801 0 0 0.18506015857 
0 0 0.19154326791 0 0 -0.63312418749 0 0 0.17638215508 
0 0 0.1142222917 0 0 -0.63312418749 0 0 0.17933597516 
0 0 0.17478764223 0 0 0.17623175081 0 0 0.19435166326 
0 0 0.17967181923 0 0 0.11548349254 0 0 0.1080082256 
0 0 0.13386903286 0 0 0.16974637421 0 0 0.17976100823 
0 0 0.11575581895 0 0 0.18515593076 0 0 0.19841348372 
0 0 -0.63312418749 0 0 0.12635232251 0 0 0.1165018628 
0 0 0.14619335589 0 0 -0.63312418749 0 0 0.12822997405 
0 0 0.16834948595 0 0 0.13732497832 0 0 -0.5031241875 
0 0 0.17604936554 0 0 -0.63312418749 0 0 0.17657810664 
0 0 0.16087021697 0 0 0.11036434119 0 0 0.17197189267 
0 0 0.10724003788 0 0 -0.63312418749 0 0 0.12279378669 
0 0 0.12781171245 0 0 0.10277226175 0 0 0.18324081688 
0 0 0.17880203214 0 0 -0.63312418749 0 0 -0.63312418749 
0 0 0.18093483075 0 0 0.11489874834 0 0 0.18074030288 
0 0 0.17778985738 0 0 -0.63312418749 0 0 0.16942308518 
0 0 0.1148537669 0 0 0.18363254587 0 0 0.17096647004 
0 0 0.12866550303 0 0 -0.63312418749 0 0 0.16304467778 
0 0 0.15730336513 0 0 0.12130888742 0 0 -0.63312418749 
0 0 0.16062902456 0 0 0.16158039687 0 0 0.076587090103 
0 0 0.048740929619 0 0 -0.63312418749 0 0 0.1565874339 
0 0 -0.63312418749 0 0 0.15471602016 0 0 0.10125910183 
0 0 -0.63312418749 0 0 0.074931688561 0 0 0.060126535737 
0 0 0.11302267387 0 0 -0.63312418749 0 0 0.18448357148 
0 0 0.097002993751 0 0 0.15821553399 0 0 0.16308027993 
0 0 0.066734110731 0 0 0.099110070519 0 0 0.091402698849 
0 0 0.083816072907 0 0 0.16874946234 0 0 0.091423948709 
0 0 0.11024431831 0 0 0.093567624109 0 0 0.17482723559 
0 0 0.15102078997 0 0 0.10002653709 0 0 -0.63312418749 
0 0 0.070812029224 0 0 0.15157497473 0 0 0.060552254613 
0 0 0.1770744641 0 0 0.046410912348 0 0 0.15017609918 
0 0 0.097999713581 0 0 0.099872676344 0 0 -0.63312418749 
0 0 0.050676372491 0 0 0.09744557675 0 0 0.085420990619 
0 0 0.1596492242 0 0 0.068600557368 0 0 0.080565868858 
0 0 -0.62012418749 0 0 0.16368985711 0 0 0.082175072281 
0 0 0.048213264077 0 0 0.11054637369 0 0 0.062848945253 
0 0 0.15947893011 0 0 0.1602247643 0 0 0.12630871886 
0 0 0.16112589378 0 0 0.16799012922 0 0 0.091182173654 
0 0 0.060087132816 0 0 0.086126770652 0 0 -0.63312418749 
0 0 0.21354926443 0 0 0.12573126951 0 0 0.07058760836 
0 0 0.078736957549 0 0 0.1722369558 0 0 0.17303419577 
0 0 0.07813476435 0 0 0.082135021413 0 0 0.15070560353 
0 0 0.058375329143 0 0 0.16537410205 0 0 -0.63312418749 
0 0 -0.5486241875 0 0 -0.5778741875 0 0 0.17227332218 
0 0 0.15670218855 0 0 0.10980223968 0 0 0.15917645261 
0 0 0.10185912425 0 0 -0.63312418749 0 0 0.08889181787 
0 0 0.11591748066 0 0 0.15049667665 0 0 0.15937425693 
0 0 0.054621280117 0 0 0.12642190659 0 0 0.078514103353 
0 0 0.16255085003 0 0 0.15081916274 0 0 -0.63312418749 
0 0 -0.63312418749 0 0 0.17048237614 0 0 -0.63312418749 
0 0 0.098178531192 0 0 0.14440622914 0 0 0.13467799159 
0 0 0.15060299698 0 0 0.14823049807 0 0 0.071091708203 
0 0 0.17539753975 0 0 0.1429719905 0 0 -0.5713741875 
0 0 0.065579827309 0 0 0.04221494193 0 0 -0.5486241875 
0 0 -0.63312418749 0 0 -0.61362418749 0 0 -0.63312418749 
0 0 0.14310246489 0 0 0.19148258077 0 0 0.068320908054 
0 0 0.056313830138 0 0 0.09362722004 0 0 0.065355194288 
0 0 -0.63312418749 0 0 -0.63312418749 0 0 0.14252479497 
0 0 0.065536251559 0 0 0.1323677025 0 0 0.1417179656 
0 0 0.054439380452 0 0 0.13455494165 0 0 0.14273787469 
0 0 -0.63312418749 0 0 0.14005324157 0 0 0.12542056504 
0 0 0.12912265944 0 0 -0.63312418749 0 0 0.063428323639 
0 0 0.086384009742 0 0 -0.5128741875 0 0 0.14454306089 
0 0 0.14338099012 0 0 -0.63312418749 0 0 0.10573137069 
0 0 0.1214062434 0 0 0.11237102514 0 0 -0.63312418749 
0 0 0.090954879721 0 0 -0.63312418749 0 0 -0.63312418749 
0 0 0.1173711621 0 0 0.09250193824 0 0 -0.63312418749 
0 0 0.15579021339 0 0 0.10849142495 0 0 0.1201115145 
0 0 -0.63312418749 0 0 0.12929479235 0 0 -0.63312418749 
0 0 0.095707748483 0 0 0.10716161714 0 0 0.096626490731 
0 0 -0.63312418749 0 0 0.12173084243 0 0 0.096649942016 
0 0 0.10653120902 0 0 0.09616821721 0 0 0.21281946505 
0 0 0.11519109935 0 0 0.1192292598 0 0 0.090122523635 
0 0 0.099487892851 0 0 0.1073895686 0 0 -0.63312418749 
0 0 0.10754811871 0 0 -0.63312418749 0 0 -0.63312418749 
0 0 -0.63312418749 0 0 0.11062301766 0 0 -0.63312418749 
0 0 0.11009854708 0 0 0.10232864258 0 0 0.12149910604 
0 0 0.10318864709 0 0 0.11359585659 0 0 0.11218837824 
0 0 0.11248253033 0 0 -0.63312418749 0 0 -0.4836241875 
0 0 0.14094852913 0 0 0.073275361377 0 0 0.08123960083 
0 0 0.081907498223 0 0 0.083328643225 0 0 -0.62012418749 
0 0 -0.63312418749 0 0 0.086266393465 0 0 -0.5323741875 
0 0 0.105353356 0 0 0.089593376759 0 0 0.14487065003 
0 0 -0.63312418749 0 0 0.081243854464 0 0 0.079578200432 
0 0 0.091962521382 0 0 0.15914763689 0 0 -0.5453741875 
0 0 0.11245575686 0 0 -0.63312418749 0 0 -0.63312418749 
0 0 -0.5096241875 0 0 0.087093269148 0 0 0.082699078579 
0 0 -0.63312418749 0 0 -0.63312418749 0 0 0.088548806034 
0 0 0.1291813807 0 0 -0.63312418749 0 0 0.14170223163 
0 0 -0.5713741875 0 0 -0.63312418749 0 0 0.08464453854 
0 0 -0.63312418749 0 0 0.083006885097 0 0 -0.63312418749 
0 0 -0.63312418749 0 0 -0.63312418749 0 0 -0.63312418749 
0 0 0.095305855619 0 0 -0.63312418749 0 0 -0.63312418749 
0 0 -0.63312418749 0 0 0.11518351316 0 0 -0.63312418749 
0 0 -0.63312418749 0 0 -0.63312418749 0 0 -0.63312418749 
0 0 -0.5031241875 0 0 -0.63312418749 0 0 -0.63312418749 
0 0 -0.63312418749 0 0 -0.63312418749 0 0 -0.63312418749 
0 0 -0.63312418749 0 0 -0.63312418749 0 0 -0.63312418749 
0 0 -0.63312418749 0 0 -0.5551241875 0 0 -0.63312418749 
0 0 -0.63312418749 0 0 -0.63312418749 0 0 -0.63312418749 
0 0 -0.63312418749 0 0 -0.63312418749 0 0 -0.63312418749 
0 0 -0.4901241875 0 0 -0.63312418749 0 0 -0.63312418749 
0 0 -0.63312418749 0 0 -0.63312418749 0 0 -0.4706241875 
0 0 -0.5291241875 0 0 -0.4803741875 0 0 -0.4446241875 
0 0 -0.5421241875 0 0 -0.4933741875 0 0 -0.5421241875 
0 0 -0.5551241875 0 0 -0.4446241875 0 0 -0.4966241875 
0 0 -0.4478741875 0 0 -0.4543741875 0 0 -0.4283741875 
0 0 -0.4641241875 0 0 -0.5161241875 0 0 -0.5648741875 
0 0 -0.4576241875 0 0 -0.4901241875 0 0 -0.5551241875 
0 0 -0.4706241875 0 0 -0.4738741875 0 0 -0.5356241875 
0 0 -0.5323741875 0 0 -0.5193741875 0 0 -0.4966241875 
0 0 -0.5063741875 0 0 -0.4121241875 0 0 -0.4998741875 
0 0 -0.5648741875 0 0 -0.4576241875 0 0 -0.4771241875 
0 0 -0.4413741875 0 0 -0.4641241875 0 0 -0.4641241875 
0 0 -0.5713741875 0 0 -0.4251241875 0 0 -0.4121241875 
0 0 -0.4836241875 0 0 -0.3926241875 0 0 -0.4738741875 
0 0 -0.5648741875 0 0 -0.4933741875 0 0 -0.4088741875 
0 0 -0.5063741875 0 0 -0.5226241875 0 0 -0.4348741875 
0 0 -0.3893741875 0 0 -0.4608741875 0 0 -0.4803741875 
0 0 -0.4933741875 0 0 -0.4836241875 0 0 -0.4121241875 
0 0 -0.4023741875 0 0 -0.5161241875 0 0 -0.4251241875 
0 0 -0.4803741875 0 0 -0.4381241875 0 0 -0.4543741875 
0 0 -0.4088741875 0 0 -0.4023741875 0 0 -0.4381241875 
0 0 -0.4316241875 0 0 -0.4088741875 0 0 -0.4511241875 
0 0 -0.4868741875 0 0 -0.5128741875 0 0 -0.4511241875 
0 0 -0.4121241875 0 0 -0.4348741875 0 0 -0.4348741875 
0 0 -0.4056241875 0 0 -0.3958741875 0 0 -0.5226241875 
0 0 -0.4478741875 0 0 -0.3991241875 0 0 -0.4901241875 
0 0 -0.5128741875 0 0 -0.5063741875 0 0 -0.4543741875 
0 0 -0.4641241875 0 0 -0.4381241875 0 0 -0.4543741875 
0 0 -0.4218741875 0 0 -0.4868741875 0 0 -0.4868741875 
0 0 -0.3958741875 0 0 -0.4251241875 0 0 -0.4446241875 
0 0 -0.3926241875 0 0 -0.4023741875 0 0 -0.4056241875 
0 0 -0.4023741875 0 0 -0.5031241875 0 0 -0.3958741875 
0 0 -0.4608741875 0 0 -0.4608741875 0 0 -0.4186241875 
0 0 -0.4023741875 0 0 -0.4153741875 0 0 -0.4218741875 
0 0 -0.4673741875 0 0 -0.4283741875 0 0 -0.4023741875 
0 0 -0.3893741875 0 0 -0.3893741875 0 0 -0.4186241875 
0 0 -0.4478741875 0 0 -0.3893741875 0 0 -0.3991241875 
0 0 -0.4511241875 0 0 -0.4251241875 0 0 -0.4511241875 
0 0 -0.4251241875 0 0 -0.4056241875 0 0 -0.4023741875 
0 0 -0.3893741875 0 0 -0.3893741875 0 0 -0.3991241875 
0 0 -0.3958741875 0 0 -0.4023741875 0 0 -0.4056241875 
0 0 -0.3926241875 0 0 -0.3926241875 0 0 -0.3893741875 

f 3 648 double
0 0 -1.7425367252e-10 0 0 -1.7425367252e-10 0 0 -1.7425367252e-10 
0 0 -1.7425367252e-10 0 0 -1.7425367252e-10 0 0 -1.7425367252e-10 
0 0 -1.7425367252e-10 0 0 -1.7425367252e-10 0 0 -1.7425367252e-10 
0 0 -1.7425367252e-10 0 0 -1.7425367252e-10 0 0 -1.7425367252e-10 
0 0 -1.7425367252e-10 0 0 -1.7425367252e-10 0 0 -1.7425367252e-10 
0 0 -1.7425367252e-10 0 0 -1.7425367252e-10 0 0 -1.7425367252e-10 
0 0 -1.7425367252e-10 0 0 -1.7425367252e-10 0 0 -1.7425367252e-10 
0 0 -1.7425367252e-10 0 0 -1.7425367252e-10 0 0 -1.7425367252e-10 
0 0 -1.7425367252e-10 0 0 -1.7425367252e-10 0 0 -1.7425367252e-10 
0 0 -1.7425367252e-10 0 0 -1.7425367252e-10 0 0 -1.7425367252e-10 
0 0 -1.7425367252e-10 0 0 -1.7425367252e-10 0 0 -1.7425367252e-10 
0 0 -1.7425367252e-10 0 0 -1.7425367252e-10 0 0 -1.7425367252e-10 
0 0 -1.7425367252e-10 0 0 -1.7425367252e-10 0 0 -1.7425367252e-10 
0 0 -1.7425367252e-10 0 0 -1.7425367252e-10 0 0 -1.7425367252e-10 
0 0 -1.7425367252e-10 0 0 -1.7425367252e-10 0 0 -1.7425367252e-10 
0 0 -1.7425367252e-10 0 0 -1.7425367252e-10 0 0 -1.7425367252e-10 
0 0 -1.7425367252e-10 0 0 -1.7425367252e-10 0 0 -1.7425367252e-10 
0 0 -1.7425367252e-10 0 0 -1.7425367252e-10 0 0 -1.7425367252e-10 
0 0 -1.7425367252e-10 0 0 -1.7425367252e-10 0 0 -1.7425367252e-10 
0 0 -1.7425367252e-10 0 0 -1.7425367252e-10 0 0 -1.7425367252e-10 
0 0 -1.7425367252e-10 0 0 -1.7425367252e-10 0 0 -1.7425367252e-10 
0 0 -1.7425367252e-10 0 0 -1.7425367252e-10 0 0 -1.7425367252e-10 
0 0 -1.7425367252e-10 0 0 -1.7425367252e-10 0 0 -1.7425367252e-10 
0 0 -1.7425367252e-10 0 0 -1.7425367252e-10 0 0 -1.7425367252e-10 
0 0 -1.7425367252e-10 0 0 -5.3297119368e-07 0 0 -1.7425367252e-10 
0 0 -1.7425367252e-10 0 0 -1.7425367252e-10 0 0 -1.7425367252e-10 
0 0 -1.7425367252e-10 0 0 -1.7425367252e-10 0 0 -1.7425367252e-10 
0 0 -1.7425367252e-10 0 0 -1.7425367252e-10 0 0 -1.7425367252e-10 
0 0 -1.7425367252e-10 0 0 -1.7425367252e-10 0 0 -1.7425367252e-10 
0 0 -1.7425367252e-10 0 0 -1.7425367252e-10 0 0 -1.7425367252e-10 
0 0 -1.7425367252e-10 0 0 -1.7425367252e-10 0 0 -1.7425367252e-10 
0 0 -1.7425367252e-10 0 0 -1.7425367252e-10 0 0 -1.7425367252e-10 
0 0 -1.7425367252e-10 0 0 -1.7425367252e-10 0 0 -1.7425367252e-10 
0 0 -1.7425367252e-10 0 0 -1.7425367252e-10 0 0 -1.7425367252e-10 
0 0 -1.7425367252e-10 0 0 -1.7425367252e-10 0 0 -1.7425367252e-10 
0 0 -1.7425367252e-10 0 0 -1.7425367252e-10 0 0 -1.7425367252e-10 
0 0 -1.7425367252e-10 0 0 -1.7425367252e-10 0 0 -1.7425367252e-10 
0 0 -1.7425367252e-10 0 0 -1.7425367252e-10 0 0 -1.7425367252e-10 
0 0 -1.7425367252e-10 0 0 -1.7425367252e-10 0 0 -1.7425367252e-10 
0 0 -1.7425367252e-10 0 0 -1.7425367252e-10 0 0 -1.7425367252e-10 
0 0 -1.7425367252e-10 0 0 -1.7425367252e-10 0 0 -1.7425367252e-10 
0 0 -1.7425367252e-10 0 0 -1.7425367252e-10 0 0 -1.7425367252e-10 
0 0 -1.7425367252e-10 0 0 -1.7425367252e-10 0 0 -8.9019973083e-09 
0 0 -1.7425367252e-10 0 0 -1.7425367252e-10 0 0 -1.7425367252e-10 
0 0 -1.7425367252e-10 0 0 -1.7425367252e-10 0 0 -1.7425367252e-10 
0 0 -1.7425367252e-10 0 0 -1.7425367252e-10 0 0 -1.7425367252e-10 
0 0 -1.7425367252e-10 0 0 -1.7425367252e-10 0 0 -1.7425367252e-10 
0 0 -1.7425367252e-10 0 0 -1.7425367252e-10 0 0 -1.7425367252e-10 
0 0 -1.7425367252e-10 0 0 -1.7425367252e-10 0 0 -1.7425367252e-10 
0 0 -8.9019973083e-09 0 0 -1.7425367252e-10 0 0 -1.7425367252e-10 
0 0 -1.7425367252e-10 0 0 -1.7425367252e-10 0 0 -1.7425367252e-10 
0 0 -1.7425367252e-10 0 0 -1.7425367252e-10 0 0 -1.7425367252e-10 
0 0 -1.7425367252e-10 0 0 -1.7425367252e-10 0 0 -1.7425367252e-10 
0 0 -1.7425367252e-10 0 0 -1.7425367252e-10 0 0 -1.7425367252e-10 
0 0 -1.7425367252e-10 0 0 -1.7425367252e-10 0 0 -1.7425367252e-10 
0 0 -1.7425367252e-10 0 0 -1.7425367252e-10 0 0 -1.7425367252e-10 
0 0 -1.7425367252e-10 0 0 -1.7425367252e-10 0 0 -1.7425367252e-10 
0 0 -1.7425367252e-10 0 0 -1.7425367252e-10 0 0 -1.7425367252e-10 
0 0 -1.7425367252e-10 0 0 -1.7425367252e-10 0 0 -1.7425367252e-10 
0 0 -1.7425367252e-10 0 0 -1.7425367252e-10 0 0 -1.7425367252e-10 
0 0 -1.7425367252e-10 0 0 -1.7425367252e-10 0 0 -1.7425367252e-10 
0 0 -1.7425367252e-10 0 0 -1.7425367252e-10 0 0 -1.7425367252e-10 
0 0 -1.7425367252e-10 0 0 -1.7425367252e-10 0 0 -1.7425367252e-10 
0 0 -1.7425367252e-10 0 0 -1.7425367252e-10 0 0 -1.7425367252e-10 
0 0 -1.7425367252e-10 0 0 -1.7425367252e-10 0 0 -1.7425367252e-10 
0 0 -1.7425367252e-10 0 0 -1.7425367252e-10 0 0 -1.7425367252e-10 
0 0 -1.7425367252e-10 0 0 -1.7425367252e-10 0 0 -1.7425367252e-10 
0 0 -1.7425367252e-10 0 0 -1.7425367252e-10 0 0 -1.7425367252e-10 
0 0 -1.7425367252e-10 0 0 -1.7425367252e-10 0 0 -1.7425367252e-10 
0 0 -1.7425367252e-10 0 0 -1.7425367252e-10 0 0 -1.7425367252e-10 
0 0 -1.7425367252e-10 0 0 -1.7425367252e-10 0 0 -1.7425367252e-10 
0 0 -1.7425367252e-10 0 0 -1.7425367252e-10 0 0 -1.7425367252e-10 
0 0 -1.7425367252e-10 0 0 -1.7425367252e-10 0 0 -1.7425367252e-10 
0 0 -1.7425367252e-10 0 0 -1.7425367252e-10 0 0 -1.7425367252e-10 
0 0 -1.7425367252e-10 0 0 -1.7425367252e-10 0 0 -1.7425367252e-10 
0 0 -1.7425367252e-10 0 0 -1.7425367252e-10 0 0 -1.7425367252e-10 
0 0 -1.7425367252e-10 0 0 -1.7425367252e-10 0 0 -1.7425367252e-10 
0 0 -1.7425367252e-10 0 0 -1.7425367252e-10 0 0 -1.7425367252e-10 
0 0 -1.7425367252e-10 0 0 -1.7425367252e-10 0 0 -1.7425367252e-10 
0 0 -1.7425367252e-10 0 0 -1.7425367252e-10 0 0 -1.7425367252e-10 
0 0 -1.7425367252e-10 0 0 -1.7425367252e-10 0 0 -1.7425367252e-10 
0 0 -1.7425367252e-10 0 0 -1.7425367252e-10 0 0 -1.7425367252e-10 
0 0 -1.7425367252e-10 0 0 -1.7425367252e-10 0 0 -1.7425367252e-10 
0 0 -1.7425367252e-10 0 0 -1.7425367252e-10 0 0 -1.7425367252e-10 
0 0 -1.7425367252e-10 0 0 -1.7425367252e-10 0 0 -1.7425367252e-10 
0 0 -1.7425367252e-10 0 0 -1.7425367252e-10 0 0 -1.7425367252e-10 
0 0 -1.7425367252e-10 0 0 -1.7425367252e-10 0 0 -1.7425367252e-10 
0 0 -1.7425367252e-10 0 0 -1.7425367252e-10 0 0 -1.7425367252e-10 
0 0 -1.7425367252e-10 0 0 -1.7425367252e-10 0 0 -1.7425367252e-10 
0 0 -1.7425367252e-10 0 0 -1.7425367252e-10 0 0 -1.7425367252e-10 
0 0 -1.7425367252e-10 0 0 -1.7425367252e-10 0 0 -1.7425367252e-10 
0 0 -1.7425367252e-10 0 0 -1.7425367252e-10 0 0 -1.7425367252e-10 
0 0 -1.7425367252e-10 0 0 -1.7425367252e-10 0 0 -1.7425367252e-10 
0 0 -1.7425367252e-10 0 0 -1.7425367252e-10 0 0 -1.7425367252e-10 
0 0 -1.7425367252e-10 0 0 -1.7425367252e-10 0 0 -1.7425367252e-10 
0 0 -1.7425367252e-10 0 0 -1.7425367252e-10 0 0 -1.7425367252e-10 
0 0 -1.7425367252e-10 0 0 -1.7425367252e-10 0 0 -1.7425367252e-10 
0 0 -1.7425367252e-10 0 0 -1.7425367252e-10 0 0 -1.7425367252e-10 
0 0 -1.7425367252e-10 0 0 -1.7425367252e-10 0 0 -1.7425367252e-10 
0 0 -1.7425367252e-10 0 0 -1.7425367252e-10 0 0 -1.7425367252e-10 
0 0 -1.7425367252e-10 0 0 -1.7425367252e-10 0 0 -1.7425367252e-10 
0 0 -1.7425367252e-10 0 0 -1.7425367252e-10 0 0 -1.7425367252e-10 
0 0 -1.7425367252e-10 0 0 -1.7425367252e-10 0 0 -1.7425367252e-10 
0 0 -1.7425367252e-10 0 0 -1.7425367252e-10 0 0 -1.7425367252e-10 
0 0 -1.7425367252e-10 0 0 -1.7425367252e-10 0 0 -1.7425367252e-10 
0 0 -1.7425367252e-10 0 0 -1.7425367252e-10 0 0 -1.7425367252e-10 
0 0 -1.7425367252e-10 0 0 -1.7425367252e-10 0 0 -1.7425367252e-10 
0 0 -1.7425367252e-10 0 0 -1.7425367252e-10 0 0 -1.7425367252e-10 
0 0 -1.7425367252e-10 0 0 -1.7425367252e-10 0 0 -1.7425367252e-10 
0 0 -1.7425367252e-10 0 0 -1.7425367252e-10 0 0 -1.7425367252e-10 
0 0 -1.7425367252e-10 0 0 -1.7425367252e-10 0 0 -1.7425367252e-10 
0 0 -8.9019973083e-09 0 0 -1.7425367252e-10 0 0 -1.7425367252e-10 
0 0 -1.7425367252e-10 0 0 -1.7425367252e-10 0 0 -1.7425367252e-10 
0 0 -1.7425367252e-10 0 0 -1.7425367252e-10 0 0 -1.7425367252e-10 
0 0 -1.7425367252e-10 0 0 -1.7425367252e-10 0 0 -1.7425367252e-10 
0 0 -1.7425367252e-10 0 0 -1.7425367252e-10 0 0 -1.7425367252e-10 
0 0 -1.7425367252e-10 0 0 -1.7425367252e-10 0 0 -1.7425367252e-10 
0 0 -1.7425367252e-10 0 0 -1.7425367252e-10 0 0 -1.7425367252e-10 
0 0 -1.7425367252e-10 0 0 -1.7425367252e-10 0 0 -1.7425367252e-10 
0 0 -1.7425367252e-10 0 0 -1.7425367252e-10 0 0 -1.7425367252e-10 
0 0 -1.7425367252e-10 0 0 -1.7425367252e-10 0 0 -1.7425367252e-10 
0 0 -1.7425367252e-10 0 0 -8.9019973083e-09 0 0 -1.7425367252e-10 
0 0 -1.7425367252e-10 0 0 -1.7425367252e-10 0 0 -1.7425367252e-10 
0 0 -1.7425367252e-10 0 0 -1.7425367252e-10 0 0 -1.7425367252e-10 
0 0 -8.9019973083e-09 0 0 -1.7425367252e-10 0 0 -1.7425367252e-10 
0 0 -1.7425367252e-10 0 0 -1.7425367252e-10 0 0 -1.7425367252e-10 
0 0 -1.7425367252e-10 0 0 -1.7425367252e-10 0 0 -1.7425367252e-10 
0 0 -1.7425367252e-10 0 0 -8.9019973083e-09 0 0 -1.7425367252e-10 
0 0 -1.7425367252e-10 0 0 -1.7425367252e-10 0 0 -1.7425367252e-10 
0 0 -1.7425367252e-10 0 0 -1.7425367252e-10 0 0 -1.7425367252e-10 
0 0 -1.7425367252e-10 0 0 -1.7425367252e-10 0 0 -1.7425367252e-10 
0 0 -1.7425367252e-10 0 0 -1.7425367252e-10 0 0 -1.7425367252e-10 
0 0 -1.7425367252e-10 0 0 -1.7425367252e-10 0 0 -1.7425367252e-10 
0 0 -1.7425367252e-10 0 0 -1.7425367252e-10 0 0 -1.7425367252e-10 
0 0 -1.7425367252e-10 0 0 -1.7425367252e-10 0 0 -1.7425367252e-10 
0 0 -1.7425367252e-10 0 0 -1.7425367252e-10 0 0 -1.7425367252e-10 
0 0 -1.7425367252e-10 0 0 -1.7425367252e-10 0 0 -1.7425367252e-10 
0 0 -1.7425367252e-10 0 0 -1.7425367252e-10 0 0 -1.7425367252e-10 
0 0 -1.7425367252e-10 0 0 -1.7425367252e-10 0 0 -1.7425367252e-10 
0 0 -8.9019973083e-09 0 0 -1.7425367252e-10 0 0 -1.7425367252e-10 
0 0 -1.7425367252e-10 0 0 -1.7425367252e-10 0 0 -1.7425367252e-10 
0 0 -1.7425367252e-10 0 0 -1.7425367252e-10 0 0 -1.7425367252e-10 
0 0 -1.7425367252e-10 0 0 -1.7425367252e-10 0 0 -1.7425367252e-10 
0 0 -1.7425367252e-10 0 0 -1.7425367252e-10 0 0 -6.8918688838e-08 
0 0 -1.7425367252e-10 0 0 -1.7425367252e-10 0 0 -1.7425367252e-10 
0 0 -1.7425367252e-10 0 0 -1.7425367252e-10 0 0 -1.7425367252e-10 
0 0 -1.7425367252e-10 0 0 -1.7425367252e-10 0 0 -1.7425367252e-10 
0 0 -1.7425367252e-10 0 0 -1.7425367252e-10 0 0 -1.7425367252e-10 
0 0 -1.7425367252e-10 0 0 -1.7425367252e-10 0 0 -1.7425367252e-10 
0 0 -1.7425367252e-10 0 0 -1.7425367252e-10 0 0 -1.7425367252e-10 
0 0 -1.7425367252e-10 0 0 -1.7425367252e-10 0 0 -1.7425367252e-10 
0 0 -1.7425367252e-10 0 0 -1.7425367252e-10 0 0 -1.7425367252e-10 
0 0 -1.7425367252e-10 0 0 -1.7425367252e-10 0 0 -1.7425367252e-10 
0 0 -1.7425367252e-10 0 0 -1.7425367252e-10 0 0 -1.7425367252e-10 
0 0 -1.7425367252e-10 0 0 -1.7425367252e-10 0 0 -8.9019973083e-09 
0 0 -1.7425367252e-10 0 0 -1.7425367252e-10 0 0 -1.7425367252e-10 
0 0 -1.7425367252e-10 0 0 -8.9019973083e-09 0 0 -1.7425367252e-10 
0 0 -8.9019973083e-09 0 0 -1.7425367252e-10 0 0 -1.7425367252e-10 
0 0 -1.7425367252e-10 0 0 -1.7425367252e-10 0 0 -1.7425367252e-10 
0 0 -1.7425367252e-10 0 0 -1.7425367252e-10 0 0 -1.7425367252e-10 
0 0 -8.9019973083e-09 0 0 -1.7425367252e-10 0 0 -8.9019973083e-09 
0 0 -1.7425367252e-10 0 0 -1.7425367252e-10 0 0 -1.7425367252e-10 
0 0 -1.7425367252e-10 0 0 -1.7425367252e-10 0 0 -1.7425367252e-10 
0 0 -1.7425367252e-10 0 0 -1.7425367252e-10 0 0 -1.7425367252e-10 
0 0 -8.9019973083e-09 0 0 -1.7425367252e-10 0 0 -1.7425367252e-10 
0 0 -1.7425367252e-10 0 0 -8.9019973083e-09 0 0 -1.7425367252e-10 
0 0 -1.7425367252e-10 0 0 -1.7425367252e-10 0 0 -1.7425367252e-10 
0 0 -1.7425367252e-10 0 0 -1.7425367252e-10 0 0 -1.7425367252e-10 
0 0 -1.7425367252e-10 0 0 -1.7425367252e-10 0 0 -1.7425367252e-10 
0 0 -1.7425367252e-10 0 0 -1.7425367252e-10 0 0 -1.7425367252e-10 
0 0 -1.7425367252e-10 0 0 -8.9019973083e-09 0 0 -1.7425367252e-10 
0 0 -1.7425367252e-10 0 0 -1.7425367252e-10 0 0 -1.7425367252e-10 
0 0 -1.7425367252e-10 0 0 -1.7425367252e-10 0 0 -1.7425367252e-10 
0 0 -1.7425367252e-10 0 0 -1.7425367252e-10 0 0 -1.7425367252e-10 
0 0 -1.7425367252e-10 0 0 -1.7425367252e-10 0 0 -1.7425367252e-10 
0 0 -1.7425367252e-10 0 0 -1.7425367252e-10 0 0 -1.7425367252e-10 
0 0 -1.7425367252e-10 0 0 -1.7425367252e-10 0 0 -1.7425367252e-10 
0 0 -1.7425367252e-10 0 0 -1.7425367252e-10 0 0 -1.7425367252e-10 
0 0 -1.7425367252e-10 0 0 -1.7425367252e-10 0 0 -1.7425367252e-10 
0 0 -1.7425367252e-10 0 0 -1.7425367252e-10 0 0 -1.7425367252e-10 
0 0 -1.7425367252e-10 0 0 -1.7425367252e-10 0 0 -1.7425367252e-10 
0 0 -1.7425367252e-10 0 0 -1.7425367252e-10 0 0 -1.7425367252e-10 
0 0 -1.7425367252e-10 0 0 -1.7425367252e-10 0 0 -1.7425367252e-10 
0 0 -1.7425367252e-10 0 0 -1.7425367252e-10 0 0 -1.7425367252e-10 
0 0 -1.7425367252e-10 0 0 -1.7425367252e-10 0 0 -1.7425367252e-10 
0 0 -1.7425367252e-10 0 0 -1.7425367252e-10 0 0 -1.7425367252e-10 
0 0 -1.7425367252e-10 0 0 -1.7425367252e-10 0 0 -1.7425367252e-10 
0 0 -1.7425367252e-10 0 0 -1.7425367252e-10 0 0 -1.7425367252e-10 
0 0 -8.9019973083e-09 0 0 -1.7425367252e-10 0 0 -1.7425367252e-10 
0 0 -1.7425367252e-10 0 0 -1.7425367252e-10 0 0 -1.7425367252e-10 
0 0 -1.7425367252e-10 0 0 -1.7425367252e-10 0 0 -1.7425367252e-10 
0 0 -1.7425367252e-10 0 0 -1.7425367252e-10 0 0 -1.7425367252e-10 
0 0 -1.7425367252e-10 0 0 -1.7425367252e-10 0 0 -1.7425367252e-10 
0 0 -1.7425367252e-10 0 0 -1.7425367252e-10 0 0 -1.7425367252e-10 
0 0 -1.7425367252e-10 0 0 -1.7425367252e-10 0 0 -1.7425367252e-10 
0 0 -1.7425367252e-10 0 0 -1.7425367252e-10 0 0 -1.7425367252e-10 
0 0 -1.7425367252e-10 0 0 -1.7425367252e-10 0 0 -1.7425367252e-10 
0 0 -1.7425367252e-10 0 0 -1.7425367252e-10 0 0 -1.7425367252e-10 
0 0 -1.7425367252e-10 0 0 -1.7425367252e-10 0 0 -1.7425367252e-10 
0 0 -1.7425367252e-10 0 0 -1.7425367252e-10 0 0 -1.7425367252e-10 
0 0 -1.7425367252e-10 0 0 -1.7425367252e-10 0 0 -1.7425367252e-10 
0 0 -1.7425367252e-10 0 0 -1.7425367252e-10 0 0 -1.7425367252e-10 
0 0 -1.7425367252e-10 0 0 -1.7425367252e-10 0 0 -1.7425367252e-10 
0 0 -1.7425367252e-10 0 0 -1.7425367252e-10 0 0 -1.7425367252e-10 
0 0 -1.7425367252e-10 0 0 -1.7425367252e-10 0 0 -1.7425367252e-10 
0 0 -1.7425367252e-10 0 0 -1.7425367252e-10 0 0 -8.9019973083e-09 
0 0 -1.7425367252e-10 0 0 -1.7425367252e-10 0 0 -1.7425367252e-10 
0 0 -1.7425367252e-10 0 0 -1.7425367252e-10 0 0 -1.7425367252e-10 
0 0 -1.7425367252e-10 0 0 -1.7425367252e-10 0 0 -1.7425367252e-10 
0 0 -1.7425367252e-10 0 0 -1.7425367252e-10 0 0 -1.7425367252e-10 
0 0 -1.7425367252e-10 0 0 -1.7425367252e-10 0 0 -1.7425367252e-10 
0 0 -1.7425367252e-10 0 0 -1.7425367252e-10 0 0 -1.7425367252e-10 
0 0 -1.7425367252e-10 0 0 -1.7425367252e-10 0 0 -1.7425367252e-10 
0 0 -1.7425367252e-10 0 0 -1.7425367252e-10 0 0 -1.7425367252e-10 
0 0 -1.7425367252e-10 0 0 -1.7425367252e-10 0 0 -1.7425367252e-10 
0 0 -1.7425367252e-10 0 0 -1.7425367252e-10 0 0 -1.7425367252e-10 

radius 1 648 double
2e-05 2e-05 2e-05 2e-05 2e-05 2e-05 2e-05 2e-05 2e-05 
2e-05 2e-05 2e-05 2e-05 2e-05 2e-05 2e-05 2e-05 2e-05 
2e-05 2e-05 2e-05 2e-05 2e-05 2e-05 2e-05 2e-05 2e-05 
2e-05 2e-05 2e-05 2e-05 2e-05 2e-05 2e-05 2e-05 2e-05 
2e-05 2e-05 2e-05 2e-05 2e-05 2e-05 2e-05 2e-05 2e-05 
2e-05 2e-05 2e-05 2e-05 2e-05 2e-05 2e-05 2e-05 2e-05 
2e-05 2e-05 2e-05 2e-05 2e-05 2e-05 2e-05 2e-05 2e-05 
2e-05 2e-05 2e-05 2e-05 2e-05 2e-05 2e-05 2e-05 2e-05 
2e-05 0.0003 2e-05 2e-05 2e-05 2e-05 2e-05 2e-05 2e-05 
2e-05 2e-05 2e-05 2e-05 2e-05 2e-05 2e-05 2e-05 2e-05 
2e-05 2e-05 2e-05 2e-05 2e-05 2e-05 2e-05 2e-05 2e-05 
2e-05 2e-05 2e-05 2e-05 2e-05 2e-05 2e-05 2e-05 2e-05 
2e-05 2e-05 2e-05 2e-05 2e-05 2e-05 2e-05 2e-05 2e-05 
2e-05 2e-05 2e-05 2e-05 2e-05 2e-05 2e-05 2e-05 2e-05 
2e-05 2e-05 7.5e-05 2e-05 2e-05 2e-05 2e-05 2e-05 2e-05 
2e-05 2e-05 2e-05 2e-05 2e-05 2e-05 2e-05 2e-05 2e-05 
2e-05 2e-05 2e-05 7.5e-05 2e-05 2e-05 2e-05 2e-05 2e-05 
2e-05 2e-05 2e-05 2e-05 2e-05 2e-05 2e-05 2e-05 2e-05 
2e-05 2e-05 2e-05 2e-05 2e-05 2e-05 2e-05 2e-05 2e-05 
2e-05 2e-05 2e-05 2e-05 2e-05 2e-05 2e-05 2e-05 2e-05 
2e-05 2e-05 2e-05 2e-05 2e-05 2e-05 2e-05 2e-05 2e-05 
2e-05 2e-05 2e-05 2e-05 2e-05 2e-05 2e-05 2e-05 2e-05 
2e-05 2e-05 2e-05 2e-05 2e-05 2e-05 2e-05 2e-05 2e-05 
2e-05 2e-05 2e-05 2e-05 2e-05 2e-05 2e-05 2e-05 2e-05 
2e-05 2e-05 2e-05 2e-05 2e-05 2e-05 2e-05 2e-05 2e-05 
2e-05 2e-05 2e-05 2e-05 2e-05 2e-05 2e-05 2e-05 2e-05 
2e-05 2e-05 2e-05 2e-05 2e-05 2e-05 2e-05 2e-05 2e-05 
2e-05 2e-05 2e-05 2e-05 2e-05 2e-05 2e-05 2e-05 2e-05 
2e-05 2e-05 2e-05 2e-05 2e-05 2e-05 2e-05 2e-05 2e-05 
2e-05 2e-05 2e-05 2e-05 2e-05 2e-05 2e-05 2e-05 2e-05 
2e-05 2e-05 2e-05 2e-05 2e-05 2e-05 2e-05 2e-05 2e-05 
2e-05 2e-05 2e-05 2e-05 2e-05 2e-05 2e-05 2e-05 2e-05 
2e-05 2e-05 2e-05 2e-05 2e-05 2e-05 2e-05 2e-05 2e-05 
2e-05 2e-05 2e-05 2e-05 2e-05 2e-05 2e-05 2e-05 2e-05 
2e-05 2e-05 2e-05 2e-05 2e-05 2e-05 2e-05 2e-05 2e-05 
2e-05 2e-05 2e-05 2e-05 2e-05 2e-05 2e-05 2e-05 2e-05 
2e-05 2e-05 2e-05 2e-05 2e-05 2e-05 2e-05 2e-05 2e-05 
7.5e-05 2e-05 2e-05 2e-05 2e-05 2e-05 2e-05 2e-05 2e-05 
2e-05 2e-05 2e-05 2e-05 2e-05 2e-05 2e-05 2e-05 2e-05 
2e-05 2e-05 2e-05 2e-05 2e-05 2e-05 2e-05 2e-05 2e-05 
2e-05 2e-05 2e-05 2e-05 7.5e-05 2e-05 2e-05 2e-05 2e-05 
2e-05 2e-05 2e-05 7.5e-05 2e-05 2e-05 2e-05 2e-05 2e-05 
2e-05 2e-05 2e-05 2e-05 7.5e-05 2e-05 2e-05 2e-05 2e-05 
2e-05 2e-05 2e-05 2e-05 2e-05 2e-05 2e-05 2e-05 2e-05 
2e-05 2e-05 2e-05 2e-05 2e-05 2e-05 2e-05 2e-05 2e-05 
2e-05 2e-05 2e-05 2e-05 2e-05 2e-05 2e-05 2e-05 2e-05 
2e-05 2e-05 2e-05 7.5e-05 2e-05 2e-05 2e-05 2e-05 2e-05 
2e-05 2e-05 2e-05 2e-05 2e-05 2e-05 2e-05 2e-05 0.00015 
2e-05 2e-05 2e-05 2e-05 2e-05 2e-05 2e-05 2e-05 2e-05 
2e-05 2e-05 2e-05 2e-05 2e-05 2e-05 2e-05 2e-05 2e-05 
2e-05 2e-05 2e-05 2e-05 2e-05 2e-05 2e-05 2e-05 2e-05 
2e-05 2e-05 2e-05 2e-05 2e-05 7.5e-05 2e-05 2e-05 2e-05 
2e-05 7.5e-05 2e-05 7.5e-05 2e-05 2e-05 2e-05 2e-05 2e-05 
2e-05 2e-05 2e-05 7.5e-05 2e-05 7.5e-05 2e-05 2e-05 2e-05 
2e-05 2e-05 2e-05 2e-05 2e-05 2e-05 7.5e-05 2e-05 2e-05 
2e-05 7.5e-05 2e-05 2e-05 2e-05 2e-05 2e-05 2e-05 2e-05 
2e-05 2e-05 2e-05 2e-05 2e-05 2e-05 2e-05 7.5e-05 2e-05 
2e-05 2e-05 2e-05 2e-05 2e-05 2e-05 2e-05 2e-05 2e-05 
2e-05 2e-05 2e-05 2e-05 2e-05 2e-05 2e-05 2e-05 2e-05 
2e-05 2e-05 2e-05 2e-05 2e-05 2e-05 2e-05 2e-05 2e-05 
2e-05 2e-05 2e-05 2e-05 2e-05 2e-05 2e-05 2e-05 2e-05 
2e-05 2e-05 2e-05 2e-05 2e-05 2e-05 2e-05 2e-05 2e-05 
2e-05 2e-05 2e-05 2e-05 2e-05 2e-05 7.5e-05 2e-05 2e-05 
2e-05 2e-05 2e-05 2e-05 2e-05 2e-05 2e-05 2e-05 2e-05 
2e-05 2e-05 2e-05 2e-05 2e-05 2e-05 2e-05 2e-05 2e-05 
2e-05 2e-05 2e-05 2e-05 2e-05 2e-05 2e-05 2e-05 2e-05 
2e-05 2e-05 2e-05 2e-05 2e-05 2e-05 2e-05 2e-05 2e-05 
2e-05 2e-05 2e-05 2e-05 2e-05 2e-05 2e-05 2e-05 2e-05 
2e-05 2e-05 2e-05 2e-05 2e-05 7.5e-05 2e-05 2e-05 2e-05 
2e-05 2e-05 2e-05 2e-05 2e-05 2e-05 2e-05 2e-05 2e-05 
2e-05 2e-05 2e-05 2e-05 2e-05 2e-05 2e-05 2e-05 2e-05 
2e-05 2e-05 2e-05 2e-05 2e-05 2e-05 2e-05 2e-05 2e-05 

omega 3 648 double
0 0 0 0 0 0 0 0 0 
0 0 0 0 0 0 0 0 0 
0 0 0 0 0 0 0 0 0 
0 0 0 0 0 0 0 0 0 
0 0 0 0 0 0 0 0 0 
0 0 0 0 0 0 0 0 0 
0 0 0 0 0 0 0 0 0 
0 0 0 0 0 0 0 0 0 
0 0 0 0 0 0 0 0 0 
0 0 0 0 0 0 0 0 0 
0 0 0 0 0 0 0 0 0 
0 0 0 0 0 0 0 0 0 
0 0 0 0 0 0 0 0 0 
0 0 0 0 0 0 0 0 0 
0 0 0 0 0 0 0 0 0 
0 0 0 0 0 0 0 0 0 
0 0 0 0 0 0 0 0 0 
0 0 0 0 0 0 0 0 0 
0 0 0 0 0 0 0 0 0 
0 0 0 0 0 0 0 0 0 
0 0 0 0 0 0 0 0 0 
0 0 0 0 0 0 0 0 0 
0 0 0 0 0 0 0 0 0 
0 0 0 0 0 0 0 0 0 
0 0 0 0 0 0 0 0 0 
0 0 0 0 0 0 0 0 0 
0 0 0 0 0 0 0 0 0 
0 0 0 0 0 0 0 0 0 
0 0 0 0 0 0 0 0 0 
0 0 0 0 0 0 0 0 0 
0 0 0 0 0 0 0 0 0 
0 0 0 0 0 0 0 0 0 
0 0 0 0 0 0 0 0 0 
0 0 0 0 0 0 0 0 0 
0 0 0 0 0 0 0 0 0 
0 0 0 0 0 0 0 0 0 
0 0 0 0 0 0 0 0 0 
0 0 0 0 0 0 0 0 0 
0 0 0 0 0 0 0 0 0 
0 0 0 0 0 0 0 0 0 
0 0 0 0 0 0 0 0 0 
0 0 0 0 0 0 0 0 0 
0 0 0 0 0 0 0 0 0 
0 0 0 0 0 0 0 0 0 
0 0 0 0 0 0 0 0 0 
0 0 0 0 0 0 0 0 0 
0 0 0 0 0 0 0 0 0 
0 0 0 0 0 0 0 0 0 
0 0 0 0 0 0 0 0 0 
0 0 0 0 0 0 0 0 0 
0 0 0 0 0 0 0 0 0 
0 0 0 0 0 0 0 0 0 
0 0 0 0 0 0 0 0 0 
0 0 0 0 0 0 0 0 0 
0 0 0 0 0 0 0 0 0 
0 0 0 0 0 0 0 0 0 
0 0 0 0 0 0 0 0 0 
0 0 0 0 0 0 0 0 0 
0 0 0 0 0 0 0 0 0 
0 0 0 0 0 0 0 0 0 
0 0 0 0 0 0 0 0 0 
0 0 0 0 0 0 0 0 0 
0 0 0 0 0 0 0 0 0 
0 0 0 0 0 0 0 0 0 
0 0 0 0 0 0 0 0 0 
0 0 0 0 0 0 0 0 0 
0 0 0 0 0 0 0 0 0 
0 0 0 0 0 0 0 0 0 
0 0 0 0 0 0 0 0 0 
0 0 0 0 0 0 0 0 0 
0 0 0 0 0 0 0 0 0 
0 0 0 0 0 0 0 0 0 
0 0 0 0 0 0 0 0 0 
0 0 0 0 0 0 0 0 0 
0 0 0 0 0 0 0 0 0 
0 0 0 0 0 0 0 0 0 
0 0 0 0 0 0 0 0 0 
0 0 0 0 0 0 0 0 0 
0 0 0 0 0 0 0 0 0 
0 0 0 0 0 0 0 0 0 
0 0 0 0 0 0 0 0 0 
0 0 0 0 0 0 0 0 0 
0 0 0 0 0 0 0 0 0 
0 0 0 0 0 0 0 0 0 
0 0 0 0 0 0 0 0 0 
0 0 0 0 0 0 0 0 0 
0 0 0 0 0 0 0 0 0 
0 0 0 0 0 0 0 0 0 
0 0 0 0 0 0 0 0 0 
0 0 0 0 0 0 0 0 0 
0 0 0 0 0 0 0 0 0 
0 0 0 0 0 0 0 0 0 
0 0 0 0 0 0 0 0 0 
0 0 0 0 0 0 0 0 0 
0 0 0 0 0 0 0 0 0 
0 0 0 0 0 0 0 0 0 
0 0 0 0 0 0 0 0 0 
0 0 0 0 0 0 0 0 0 
0 0 0 0 0 0 0 0 0 
0 0 0 0 0 0 0 0 0 
0 0 0 0 0 0 0 0 0 
0 0 0 0 0 0 0 0 0 
0 0 0 0 0 0 0 0 0 
0 0 0 0 0 0 0 0 0 
0 0 0 0 0 0 0 0 0 
0 0 0 0 0 0 0 0 0 
0 0 0 0 0 0 0 0 0 
0 0 0 0 0 0 0 0 0 
0 0 0 0 0 0 0 0 0 
0 0 0 0 0 0 0 0 0 
0 0 0 0 0 0 0 0 0 
0 0 0 0 0 0 0 0 0 
0 0 0 0 0 0 0 0 0 
0 0 0 0 0 0 0 0 0 
0 0 0 0 0 0 0 0 0 
0 0 0 0 0 0 0 0 0 
0 0 0 0 0 0 0 0 0 
0 0 0 0 0 0 0 0 0 
0 0 0 0 0 0 0 0 0 
0 0 0 0 0 0 0 0 0 
0 0 0 0 0 0 0 0 0 
0 0 0 0 0 0 0 0 0 
0 0 0 0 0 0 0 0 0 
0 0 0 0 0 0 0 0 0 
0 0 0 0 0 0 0 0 0 
0 0 0 0 0 0 0 0 0 
0 0 0 0 0 0 0 0 0 
0 0 0 0 0 0 0 0 0 
0 0 0 0 0 0 0 0 0 
0 0 0 0 0 0 0 0 0 
0 0 0 0 0 0 0 0 0 
0 0 0 0 0 0 0 0 0 
0 0 0 0 0 0 0 0 0 
0 0 0 0 0 0 0 0 0 
0 0 0 0 0 0 0 0 0 
0 0 0 0 0 0 0 0 0 
0 0 0 0 0 0 0 0 0 
0 0 0 0 0 0 0 0 0 
0 0 0 0 0 0 0 0 0 
0 0 0 0 0 0 0 0 0 
0 0 0 0 0 0 0 0 0 
0 0 0 0 0 0 0 0 0 
0 0 0 0 0 0 0 0 0 
0 0 0 0 0 0 0 0 0 
0 0 0 0 0 0 0 0 0 
0 0 0 0 0 0 0 0 0 
0 0 0 0 0 0 0 0 0 
0 0 0 0 0 0 0 0 0 
0 0 0 0 0 0 0 0 0 
0 0 0 0 0 0 0 0 0 
0 0 0 0 0 0 0 0 0 
0 0 0 0 0 0 0 0 0 
0 0 0 0 0 0 0 0 0 
0 0 0 0 0 0 0 0 0 
0 0 0 0 0 0 0 0 0 
0 0 0 0 0 0 0 0 0 
0 0 0 0 0 0 0 0 0 
0 0 0 0 0 0 0 0 0 
0 0 0 0 0 0 0 0 0 
0 0 0 0 0 0 0 0 0 
0 0 0 0 0 0 0 0 0 
0 0 0 0 0 0 0 0 0 
0 0 0 0 0 0 0 0 0 
0 0 0 0 0 0 0 0 0 
0 0 0 0 0 0 0 0 0 
0 0 0 0 0 0 0 0 0 
0 0 0 0 0 0 0 0 0 
0 0 0 0 0 0 0 0 0 
0 0 0 0 0 0 0 0 0 
0 0 0 0 0 0 0 0 0 
0 0 0 0 0 0 0 0 0 
0 0 0 0 0 0 0 0 0 
0 0 0 0 0 0 0 0 0 
0 0 0 0 0 0 0 0 0 
0 0 0 0 0 0 0 0 0 
0 0 0 0 0 0 0 0 0 
0 0 0 0 0 0 0 0 0 
0 0 0 0 0 0 0 0 0 
0 0 0 0 0 0 0 0 0 
0 0 0 0 0 0 0 0 0 
0 0 0 0 0 0 0 0 0 
0 0 0 0 0 0 0 0 0 
0 0 0 0 0 0 0 0 0 
0 0 0 0 0 0 0 0 0 
0 0 0 0 0 0 0 0 0 
0 0 0 0 0 0 0 0 0 
0 0 0 0 0 0 0 0 0 
0 0 0 0 0 0 0 0 0 
0 0 0 0 0 0 0 0 0 
0 0 0 0 0 0 0 0 0 
0 0 0 0 0 0 0 0 0 
0 0 0 0 0 0 0 0 0 
0 0 0 0 0 0 0 0 0 
0 0 0 0 0 0 0 0 0 
0 0 0 0 0 0 0 0 0 
0 0 0 0 0 0 0 0 0 
0 0 0 0 0 0 0 0 0 
0 0 0 0 0 0 0 0 0 
0 0 0 0 0 0 0 0 0 
0 0 0 0 0 0 0 0 0 
0 0 0 0 0 0 0 0 0 
0 0 0 0 0 0 0 0 0 
0 0 0 0 0 0 0 0 0 
0 0 0 0 0 0 0 0 0 
0 0 0 0 0 0 0 0 0 
0 0 0 0 0 0 0 0 0 
0 0 0 0 0 0 0 0 0 
0 0 0 0 0 0 0 0 0 
0 0 0 0 0 0 0 0 0 
0 0 0 0 0 0 0 0 0 
0 0 0 0 0 0 0 0 0 
0 0 0 0 0 0 0 0 0 
0 0 0 0 0 0 0 0 0 
0 0 0 0 0 0 0 0 0 
0 0 0 0 0 0 0 0 0 
0 0 0 0 0 0 0 0 0 

fx_mag_viz 1 648 double
0 0 0 0 0 0 0 0 0 
0 0 0 0 0 0 0 0 0 
0 0 0 0 0 0 0 0 0 
0 0 0 0 0 0 0 0 0 
0 0 0 0 0 0 0 0 0 
0 0 0 0 0 0 0 0 0 
0 0 0 0 0 0 0 0 0 
0 0 0 0 0 0 0 0 0 
0 0 0 0 0 0 0 0 0 
0 0 0 0 0 0 0 0 0 
0 0 0 0 0 0 0 0 0 
0 0 0 0 0 0 0 0 0 
0 0 0 0 0 0 0 0 0 
0 0 0 0 0 0 0 0 0 
0 0 0 0 0 0 0 0 0 
0 0 0 0 0 0 0 0 0 
0 0 0 0 0 0 0 0 0 
0 0 0 0 0 0 0 0 0 
0 0 0 0 0 0 0 0 0 
0 0 0 0 0 0 0 0 0 
0 0 0 0 0 0 0 0 0 
0 0 0 0 0 0 0 0 0 
0 0 0 0 0 0 0 0 0 
0 0 0 0 0 0 0 0 0 
0 0 0 0 0 0 0 0 0 
0 0 0 0 0 0 0 0 0 
0 0 0 0 0 0 0 0 0 
0 0 0 0 0 0 0 0 0 
0 0 0 0 0 0 0 0 0 
0 0 0 0 0 0 0 0 0 
0 0 0 0 0 0 0 0 0 
0 0 0 0 0 0 0 0 0 
0 0 0 0 0 0 0 0 0 
0 0 0 0 0 0 0 0 0 
0 0 0 0 0 0 0 0 0 
0 0 0 0 0 0 0 0 0 
0 0 0 0 0 0 0 0 0 
0 0 0 0 0 0 0 0 0 
0 0 0 0 0 0 0 0 0 
0 0 0 0 0 0 0 0 0 
0 0 0 0 0 0 0 0 0 
0 0 0 0 0 0 0 0 0 
0 0 0 0 0 0 0 0 0 
0 0 0 0 0 0 0 0 0 
0 0 0 0 0 0 0 0 0 
0 0 0 0 0 0 0 0 0 
0 0 0 0 0 0 0 0 0 
0 0 0 0 0 0 0 0 0 
0 0 0 0 0 0 0 0 0 
0 0 0 0 0 0 0 0 0 
0 0 0 0 0 0 0 0 0 
0 0 0 0 0 0 0 0 0 
0 0 0 0 0 0 0 0 0 
0 0 0 0 0 0 0 0 0 
0 0 0 0 0 0 0 0 0 
0 0 0 0 0 0 0 0 0 
0 0 0 0 0 0 0 0 0 
0 0 0 0 0 0 0 0 0 
0 0 0 0 0 0 0 0 0 
0 0 0 0 0 0 0 0 0 
0 0 0 0 0 0 0 0 0 
0 0 0 0 0 0 0 0 0 
0 0 0 0 0 0 0 0 0 
0 0 0 0 0 0 0 0 0 
0 0 0 0 0 0 0 0 0 
0 0 0 0 0 0 0 0 0 
0 0 0 0 0 0 0 0 0 
0 0 0 0 0 0 0 0 0 
0 0 0 0 0 0 0 0 0 
0 0 0 0 0 0 0 0 0 
0 0 0 0 0 0 0 0 0 
0 0 0 0 0 0 0 0 0 

fy_mag_viz 1 648 double
0 0 0 0 0 0 0 0 0 
0 0 0 0 0 0 0 0 0 
0 0 0 0 0 0 0 0 0 
0 0 0 0 0 0 0 0 0 
0 0 0 0 0 0 0 0 0 
0 0 0 0 0 0 0 0 0 
0 0 0 0 0 0 0 0 0 
0 0 0 0 0 0 0 0 0 
0 0 0 0 0 0 0 0 0 
0 0 0 0 0 0 0 0 0 
0 0 0 0 0 0 0 0 0 
0 0 0 0 0 0 0 0 0 
0 0 0 0 0 0 0 0 0 
0 0 0 0 0 0 0 0 0 
0 0 0 0 0 0 0 0 0 
0 0 0 0 0 0 0 0 0 
0 0 0 0 0 0 0 0 0 
0 0 0 0 0 0 0 0 0 
0 0 0 0 0 0 0 0 0 
0 0 0 0 0 0 0 0 0 
0 0 0 0 0 0 0 0 0 
0 0 0 0 0 0 0 0 0 
0 0 0 0 0 0 0 0 0 
0 0 0 0 0 0 0 0 0 
0 0 0 0 0 0 0 0 0 
0 0 0 0 0 0 0 0 0 
0 0 0 0 0 0 0 0 0 
0 0 0 0 0 0 0 0 0 
0 0 0 0 0 0 0 0 0 
0 0 0 0 0 0 0 0 0 
0 0 0 0 0 0 0 0 0 
0 0 0 0 0 0 0 0 0 
0 0 0 0 0 0 0 0 0 
0 0 0 0 0 0 0 0 0 
0 0 0 0 0 0 0 0 0 
0 0 0 0 0 0 0 0 0 
0 0 0 0 0 0 0 0 0 
0 0 0 0 0 0 0 0 0 
0 0 0 0 0 0 0 0 0 
0 0 0 0 0 0 0 0 0 
0 0 0 0 0 0 0 0 0 
0 0 0 0 0 0 0 0 0 
0 0 0 0 0 0 0 0 0 
0 0 0 0 0 0 0 0 0 
0 0 0 0 0 0 0 0 0 
0 0 0 0 0 0 0 0 0 
0 0 0 0 0 0 0 0 0 
0 0 0 0 0 0 0 0 0 
0 0 0 0 0 0 0 0 0 
0 0 0 0 0 0 0 0 0 
0 0 0 0 0 0 0 0 0 
0 0 0 0 0 0 0 0 0 
0 0 0 0 0 0 0 0 0 
0 0 0 0 0 0 0 0 0 
0 0 0 0 0 0 0 0 0 
0 0 0 0 0 0 0 0 0 
0 0 0 0 0 0 0 0 0 
0 0 0 0 0 0 0 0 0 
0 0 0 0 0 0 0 0 0 
0 0 0 0 0 0 0 0 0 
0 0 0 0 0 0 0 0 0 
0 0 0 0 0 0 0 0 0 
0 0 0 0 0 0 0 0 0 
0 0 0 0 0 0 0 0 0 
0 0 0 0 0 0 0 0 0 
0 0 0 0 0 0 0 0 0 
0 0 0 0 0 0 0 0 0 
0 0 0 0 0 0 0 0 0 
0 0 0 0 0 0 0 0 0 
0 0 0 0 0 0 0 0 0 
0 0 0 0 0 0 0 0 0 
0 0 0 0 0 0 0 0 0 

fz_mag_viz 1 648 double
0 0 0 0 0 0 0 0 0 
0 0 0 0 0 0 0 0 0 
0 0 0 0 0 0 0 0 0 
0 0 0 0 0 0 0 0 0 
0 0 0 0 0 0 0 0 0 
0 0 0 0 0 0 0 0 0 
0 0 0 0 0 0 0 0 0 
0 0 0 0 0 0 0 0 0 
0 0 0 0 0 0 0 0 0 
0 0 0 0 0 0 0 0 0 
0 0 0 0 0 0 0 0 0 
0 0 0 0 0 0 0 0 0 
0 0 0 0 0 0 0 0 0 
0 0 0 0 0 0 0 0 0 
0 0 0 0 0 0 0 0 0 
0 0 0 0 0 0 0 0 0 
0 0 0 0 0 0 0 0 0 
0 0 0 0 0 0 0 0 0 
0 0 0 0 0 0 0 0 0 
0 0 0 0 0 0 0 0 0 
0 0 0 0 0 0 0 0 0 
0 0 0 0 0 0 0 0 0 
0 0 0 0 0 0 0 0 0 
0 0 0 0 0 0 0 0 0 
0 0 0 0 0 0 0 0 0 
0 0 0 0 0 0 0 0 0 
0 0 0 0 0 0 0 0 0 
0 0 0 0 0 0 0 0 0 
0 0 0 0 0 0 0 0 0 
0 0 0 0 0 0 0 0 0 
0 0 0 0 0 0 0 0 0 
0 0 0 0 0 0 0 0 0 
0 0 0 0 0 0 0 0 0 
0 0 0 0 0 0 0 0 0 
0 0 0 0 0 0 0 0 0 
0 0 0 0 0 0 0 0 0 
0 0 0 0 0 0 0 0 0 
0 0 0 0 0 0 0 0 0 
0 0 0 0 0 0 0 0 0 
0 0 0 0 0 0 0 0 0 
0 0 0 0 0 0 0 0 0 
0 0 0 0 0 0 0 0 0 
0 0 0 0 0 0 0 0 0 
0 0 0 0 0 0 0 0 0 
0 0 0 0 0 0 0 0 0 
0 0 0 0 0 0 0 0 0 
0 0 0 0 0 0 0 0 0 
0 0 0 0 0 0 0 0 0 
0 0 0 0 0 0 0 0 0 
0 0 0 0 0 0 0 0 0 
0 0 0 0 0 0 0 0 0 
0 0 0 0 0 0 0 0 0 
0 0 0 0 0 0 0 0 0 
0 0 0 0 0 0 0 0 0 
0 0 0 0 0 0 0 0 0 
0 0 0 0 0 0 0 0 0 
0 0 0 0 0 0 0 0 0 
0 0 0 0 0 0 0 0 0 
0 0 0 0 0 0 0 0 0 
0 0 0 0 0 0 0 0 0 
0 0 0 0 0 0 0 0 0 
0 0 0 0 0 0 0 0 0 
0 0 0 0 0 0 0 0 0 
0 0 0 0 0 0 0 0 0 
0 0 0 0 0 0 0 0 0 
0 0 0 0 0 0 0 0 0 
0 0 0 0 0 0 0 0 0 
0 0 0 0 0 0 0 0 0 
0 0 0 0 0 0 0 0 0 
0 0 0 0 0 0 0 0 0 
0 0 0 0 0 0 0 0 0 
0 0 0 0 0 0 0 0 0 

B_magnitude 1 648 double
0 0 0 0 0 0 0 0 0 
0 0 0 0 0 0 0 0 0 
0 0 0 0 0 0 0 0 0 
0 0 0 0 0 0 0 0 0 
0 0 0 0 0 0 0 0 0 
0 0 0 0 0 0 0 0 0 
0 0 0 0 0 0 0 0 0 
0 0 0 0 0 0 0 0 0 
0 0 0 0 0 0 0 0 0 
0 0 0 0 0 0 0 0 0 
0 0 0 0 0 0 0 0 0 
0 0 0 0 0 0 0 0 0 
0 0 0 0 0 0 0 0 0 
0 0 0 0 0 0 0 0 0 
0 0 0 0 0 0 0 0 0 
0 0 0 0 0 0 0 0 0 
0 0 0 0 0 0 0 0 0 
0 0 0 0 0 0 0 0 0 
0 0 0 0 0 0 0 0 0 
0 0 0 0 0 0 0 0 0 
0 0 0 0 0 0 0 0 0 
0 0 0 0 0 0 0 0 0 
0 0 0 0 0 0 0 0 0 
0 0 0 0 0 0 0 0 0 
0 0 0 0 0 0 0 0 0 
0 0 0 0 0 0 0 0 0 
0 0 0 0 0 0 0 0 0 
0 0 0 0 0 0 0 0 0 
0 0 0 0 0 0 0 0 0 
0 0 0 0 0 0 0 0 0 
0 0 0 0 0 0 0 0 0 
0 0 0 0 0 0 0 0 0 
0 0 0 0 0 0 0 0 0 
0 0 0 0 0 0 0 0 0 
0 0 0 0 0 0 0 0 0 
0 0 0 0 0 0 0 0 0 
0 0 0 0 0 0 0 0 0 
0 0 0 0 0 0 0 0 0 
0 0 0 0 0 0 0 0 0 
0 0 0 0 0 0 0 0 0 
0 0 0 0 0 0 0 0 0 
0 0 0 0 0 0 0 0 0 
0 0 0 0 0 0 0 0 0 
0 0 0 0 0 0 0 0 0 
0 0 0 0 0 0 0 0 0 
0 0 0 0 0 0 0 0 0 
0 0 0 0 0 0 0 0 0 
0 0 0 0 0 0 0 0 0 
0 0 0 0 0 0 0 0 0 
0 0 0 0 0 0 0 0 0 
0 0 0 0 0 0 0 0 0 
0 0 0 0 0 0 0 0 0 
0 0 0 0 0 0 0 0 0 
0 0 0 0 0 0 0 0 0 
0 0 0 0 0 0 0 0 0 
0 0 0 0 0 0 0 0 0 
0 0 0 0 0 0 0 0 0 
0 0 0 0 0 0 0 0 0 
0 0 0 0 0 0 0 0 0 
0 0 0 0 0 0 0 0 0 
0 0 0 0 0 0 0 0 0 
0 0 0 0 0 0 0 0 0 
0 0 0 0 0 0 0 0 0 
0 0 0 0 0 0 0 0 0 
0 0 0 0 0 0 0 0 0 
0 0 0 0 0 0 0 0 0 
0 0 0 0 0 0 0 0 0 
0 0 0 0 0 0 0 0 0 
0 0 0 0 0 0 0 0 0 
0 0 0 0 0 0 0 0 0 
0 0 0 0 0 0 0 0 0 
0 0 0 0 0 0 0 0 0 

B_gradient_mag 1 648 double
0 0 0 0 0 0 0 0 0 
0 0 0 0 0 0 0 0 0 
0 0 0 0 0 0 0 0 0 
0 0 0 0 0 0 0 0 0 
0 0 0 0 0 0 0 0 0 
0 0 0 0 0 0 0 0 0 
0 0 0 0 0 0 0 0 0 
0 0 0 0 0 0 0 0 0 
0 0 0 0 0 0 0 0 0 
0 0 0 0 0 0 0 0 0 
0 0 0 0 0 0 0 0 0 
0 0 0 0 0 0 0 0 0 
0 0 0 0 0 0 0 0 0 
0 0 0 0 0 0 0 0 0 
0 0 0 0 0 0 0 0 0 
0 0 0 0 0 0 0 0 0 
0 0 0 0 0 0 0 0 0 
0 0 0 0 0 0 0 0 0 
0 0 0 0 0 0 0 0 0 
0 0 0 0 0 0 0 0 0 
0 0 0 0 0 0 0 0 0 
0 0 0 0 0 0 0 0 0 
0 0 0 0 0 0 0 0 0 
0 0 0 0 0 0 0 0 0 
0 0 0 0 0 0 0 0 0 
0 0 0 0 0 0 0 0 0 
0 0 0 0 0 0 0 0 0 
0 0 0 0 0 0 0 0 0 
0 0 0 0 0 0 0 0 0 
0 0 0 0 0 0 0 0 0 
0 0 0 0 0 0 0 0 0 
0 0 0 0 0 0 0 0 0 
0 0 0 0 0 0 0 0 0 
0 0 0 0 0 0 0 0 0 
0 0 0 0 0 0 0 0 0 
0 0 0 0 0 0 0 0 0 
0 0 0 0 0 0 0 0 0 
0 0 0 0 0 0 0 0 0 
0 0 0 0 0 0 0 0 0 
0 0 0 0 0 0 0 0 0 
0 0 0 0 0 0 0 0 0 
0 0 0 0 0 0 0 0 0 
0 0 0 0 0 0 0 0 0 
0 0 0 0 0 0 0 0 0 
0 0 0 0 0 0 0 0 0 
0 0 0 0 0 0 0 0 0 
0 0 0 0 0 0 0 0 0 
0 0 0 0 0 0 0 0 0 
0 0 0 0 0 0 0 0 0 
0 0 0 0 0 0 0 0 0 
0 0 0 0 0 0 0 0 0 
0 0 0 0 0 0 0 0 0 
0 0 0 0 0 0 0 0 0 
0 0 0 0 0 0 0 0 0 
0 0 0 0 0 0 0 0 0 
0 0 0 0 0 0 0 0 0 
0 0 0 0 0 0 0 0 0 
0 0 0 0 0 0 0 0 0 
0 0 0 0 0 0 0 0 0 
0 0 0 0 0 0 0 0 0 
0 0 0 0 0 0 0 0 0 
0 0 0 0 0 0 0 0 0 
0 0 0 0 0 0 0 0 0 
0 0 0 0 0 0 0 0 0 
0 0 0 0 0 0 0 0 0 
0 0 0 0 0 0 0 0 0 
0 0 0 0 0 0 0 0 0 
0 0 0 0 0 0 0 0 0 
0 0 0 0 0 0 0 0 0 
0 0 0 0 0 0 0 0 0 
0 0 0 0 0 0 0 0 0 
0 0 0 0 0 0 0 0 0 

