# vtk DataFile Version 5.1
Generated by LIGGGHTS
ASCII
DATASET POLYDATA
POINTS 648 float
-0.024842 -0.00884532 0.0010514 0.0153641 0.0146287 0.00105957 0.0339316 -0.041715 0.00181909 
-0.0329608 -0.0218045 0.00121218 -0.0393221 -0.0167834 0.00243089 0.0342493 -0.0115037 0.00225145 
-0.0326334 -0.00963456 0.00221252 0.00265626 0.00371614 0.001745 0.0320014 0.00756294 0.00107619 
-0.0269229 0.0267788 0.00221756 -0.0281804 0.0418824 0.00153389 0.00513794 0.0433856 0.00229537 
-0.0160353 0.0448572 0.00164906 0.0101031 -0.0273014 0.00334621 -0.00446216 -0.0255279 0.00335924 
-0.0336946 -0.0248459 0.00332757 -0.0328109 -0.0226975 0.00302895 0.0302919 -0.0148257 0.00375333 
-0.0207563 -0.0111167 0.00316598 0.0223025 -0.0112244 0.00276982 0.00314898 0.00491531 0.0031483 
0.0114764 0.0140289 0.0029424 -0.0213481 0.0319153 0.00273191 0.0164577 0.0353116 0.00305476 
0.00264867 -0.0338128 0.0051138 -0.0449336 -0.00957357 0.00413654 -0.0386256 -0.00983966 0.00422766 
0.0277548 0.0042931 0.00454262 -0.0371624 0.011326 0.00370802 -0.0102477 0.0267602 0.00452435 
-0.0368667 0.0306348 0.00425577 0.0354139 0.0312817 0.00411407 0.0152528 0.033152 0.00422427 
0.0439232 0.0371117 0.00489306 0.0262096 -0.0449372 0.00626124 0.00798734 -0.0367051 0.00595279 
0.0433459 -0.0353282 0.00566241 0.0262592 -0.0217201 0.0064278 -0.0227164 -0.0141288 0.00629294 
0.0414517 -0.0114994 0.00531746 0.0275881 -0.00673863 0.00550111 -0.0129003 -0.00574839 0.00579866 
-0.0179231 -0.00300678 0.00542906 0.0293019 -0.00298432 0.00642982 0.0384376 0.000848974 0.00610161 
0.021602 0.00540593 0.00595645 0.012585 0.0155082 0.00577198 -0.032208 0.0306075 0.00585187 
-0.0428902 -0.0449088 0.00687786 0.0338942 -0.0410147 0.00715693 -0.0160452 -0.0323821 0.00685278 
-0.0105296 -0.0314142 0.00698064 0.0412685 -0.0295104 0.00682286 0.033456 -0.0256735 0.00748927 
-0.0405162 -0.0161033 0.00686027 -0.0420316 -0.0145538 0.00664452 -0.0343844 -0.0078404 0.00785448 
-0.0198564 -0.00683511 0.00697864 -0.00474481 -0.00600267 0.00677553 -0.00229178 0.0020129 0.00692399 
0.0292006 0.00433004 0.00773544 -0.0426568 0.00723228 0.00724693 -0.0394276 0.0109375 0.00734483 
-0.0310202 0.0131063 0.00741643 0.0248423 0.0143007 0.00703753 0.0323341 0.0191974 0.00651234 
0.00153271 0.0201988 0.00675693 0.0123926 0.0218243 0.00680823 0.0167463 0.0251763 0.00685848 
-0.0349861 -0.0412827 0.00883984 -0.00302782 -0.0385948 0.0086803 -0.00586029 -0.0338127 0.00808915 
0.027474 -0.0338615 0.00909115 -0.0266532 -0.0301716 0.00858006 -0.0108877 -0.0188832 0.00889782 
0.0218308 -0.0192565 0.00843845 -0.0183202 -0.0175475 0.00815633 0.0414834 -0.0181367 0.00853837 
0.0323804 -0.0132471 0.00859908 0.00689113 -0.0107816 0.00846846 0.0350526 -0.0102353 0.00800213 
-0.040885 -0.00406647 0.00900879 0.00937085 -0.00418454 0.00824172 0.00417698 0.0024455 0.00898086 
0.0305447 0.00486582 0.00859972 -0.0287984 0.00559412 0.00873785 0.0212596 0.00979192 0.00818033 
0.0143092 0.0139794 0.00778188 0.0287781 0.014071 0.00896333 -0.0360536 0.0173104 0.00782195 
0.0215224 0.0171285 0.00862248 -0.0153727 0.020636 0.00838208 -0.0282566 0.021284 0.00875877 
0.03506 0.0228899 0.00841587 -0.0409258 0.0305044 0.00877354 -0.0422696 0.0340949 0.00805454 
0.0297434 0.0373158 0.00875517 0.000425919 -0.0415728 0.0104064 0.040047 -0.0404588 0.0092571 
0.0156715 -0.0391733 0.00948557 0.0244271 -0.0334586 0.0103763 -0.0232422 -0.0321576 0.0100623 
0.0346336 -0.0325969 0.00983037 -0.0323128 -0.0219837 0.00983734 -0.0291427 -0.0219343 0.0103227 
0.0436787 -0.0219137 0.00995817 0.0336491 -0.0197505 0.00960334 0.0030191 -0.0179247 0.0102027 
0.0223879 -0.0163393 0.00955964 0.0322358 -0.0130621 0.0102844 0.0277003 -0.0107969 0.0101452 
0.0129906 -0.00677597 0.00989501 0.0131353 -0.00504642 0.0102043 -0.00783961 -0.000387029 0.0101049 
-0.000610522 -0.00103491 0.010169 -0.00967086 0.00179773 0.0101834 0.032558 0.00153523 0.0102243 
-0.00552594 0.00555795 0.0102185 0.0011249 0.00615697 0.0103683 0.0101693 0.00555192 0.00919179 
0.0399323 0.0117688 0.0100898 -0.034865 0.0142961 0.00931371 0.00546842 0.0177814 0.0100162 
-0.023041 0.0197144 0.00986171 0.00976854 0.0197772 0.00975492 0.00284552 0.0345861 0.0100719 
0.0165329 0.0385374 0.0099607 0.0251972 0.0393087 0.00971373 -0.0437633 0.0406561 0.00961033 
-0.0390027 0.0421086 0.0100378 -0.044759 -0.0437614 0.0110477 0.0185094 -0.042363 0.0113236 
-0.0406141 -0.0405112 0.0114269 -0.0177429 -0.0346724 0.0117244 0.023158 -0.0340207 0.010825 
-0.0448384 -0.0296834 0.011194 0.0392765 -0.0300093 0.0112961 0.00577088 -0.0287415 0.0108798 
-0.0432264 -0.0264101 0.0112185 -0.0419519 -0.0259749 0.011095 0.0054016 -0.025334 0.0107326 
0.032808 -0.025967 0.0109792 -0.0408326 -0.0234295 0.0111242 0.0363266 -0.0194176 0.0113411 
-0.0317771 -0.0175651 0.0110007 0.0184681 -0.0172117 0.0107272 0.0404767 -0.0183151 0.0113285 
-0.0281455 -0.00127675 0.0112498 -0.00702036 -0.00121172 0.0105243 -0.0170872 0.00564833 0.0105413 
0.0228765 0.00606581 0.0113236 0.023953 0.00820576 0.0111517 -0.0392616 0.00972366 0.0114182 
-0.0101256 0.00978275 0.0114238 8.23501e-07 0.0138406 0.0109349 -0.0214239 0.0189608 0.0107583 
0.0226957 0.0260881 0.0107716 -0.0152062 0.0294088 0.0111173 0.0444958 0.0309554 0.0113588 
0.0163992 0.0415262 0.0114983 -0.0308094 -0.0435702 0.0123244 0.0418836 -0.0421436 0.0118557 
-0.042922 -0.0404536 0.012108 -0.018434 -0.0405477 0.012186 -0.0108246 -0.0388127 0.0122633 
0.0308099 -0.0378456 0.0128093 0.0341086 -0.0368686 0.0124199 0.000822496 -0.0363122 0.0119569 
0.0333162 -0.0342631 0.012949 -0.0262624 -0.032473 0.0128455 -0.0396817 -0.0304797 0.011849 
0.0280204 -0.0311414 0.0123333 -0.0401314 -0.0280847 0.0130438 -0.0430551 -0.0267583 0.0128016 
0.000892701 -0.0263701 0.0124807 -0.0139777 -0.0223984 0.0126957 -0.0225401 -0.0213878 0.012424 
0.0282033 -0.0178095 0.0122863 -0.0257955 -0.0157834 0.0127527 0.0252581 -0.0163235 0.0118293 
-0.0222502 -0.00974669 0.0117437 -0.0112192 -0.0104501 0.0121854 0.00743742 -0.00926665 0.0119335 
0.0313953 -0.00974065 0.0125008 -0.00747582 -0.00609419 0.0125857 0.0449494 0.00392273 0.0127327 
-0.0406381 0.00555966 0.0129245 0.0133448 0.00646544 0.012211 0.0110904 0.00657535 0.0126228 
0.0221269 0.00728552 0.0126155 0.0283387 0.00890506 0.0122692 -0.0214351 0.00957734 0.0122477 
0.0197977 0.00963841 0.0118486 -0.00279986 0.0127222 0.0126589 0.00861143 0.0123591 0.0127317 
0.0379188 0.0120326 0.0121552 -0.00307286 0.0144526 0.012651 0.0121458 0.0151918 0.0123573 
0.0418335 0.0161761 0.0125081 -0.022709 0.0198803 0.0126748 0.0258603 0.0235991 0.0118831 
0.00834461 0.0278725 0.0118018 -0.0406313 0.0295913 0.012734 -0.0127911 0.0299546 0.0121407 
-0.0219587 0.0304934 0.0130163 0.00372347 0.0304157 0.0122996 0.0364634 0.0310238 0.0123724 
0.00390562 0.0317225 0.0127307 -0.0264781 0.032823 0.0122089 0.0214431 0.0335886 0.0128644 
-0.00973825 0.0391656 0.0124641 -0.00883869 0.0381834 0.0127832 0.0238959 0.0383247 0.0120765 
-0.039126 0.0399637 0.012956 -0.0312382 0.0393096 0.0119948 0.0222253 0.0407186 0.0123034 
-0.0440308 0.0448256 0.0120692 -0.0335565 -0.0442122 0.0137849 0.0181024 -0.0433049 0.0131919 
0.0416479 -0.0439733 0.0136667 0.0201641 -0.0426709 0.013546 0.0348044 -0.042095 0.0133333 
0.0414821 -0.0410789 0.0130056 -0.0169239 -0.0402939 0.0133377 -0.0273176 -0.0361067 0.0136275 
-0.0168273 -0.0360331 0.013243 -0.00161929 -0.0353994 0.013608 0.0195647 -0.0366528 0.0140282 
0.0077947 -0.0345433 0.0137287 0.0403097 -0.0347888 0.0135512 -0.0386911 -0.0311434 0.0142654 
0.0449741 -0.0303513 0.013066 0.023019 -0.0293484 0.01426 0.0346338 -0.0290927 0.0135425 
0.0164647 -0.0275391 0.0134411 0.0306875 -0.0259396 0.0131402 0.0155599 -0.0240909 0.0132423 
-0.0350278 -0.0224863 0.0136358 -0.0164034 -0.0216001 0.0141051 0.0233461 -0.0214624 0.0137836 
0.039775 -0.0211058 0.0141615 -0.0296942 -0.0196153 0.0130183 -0.0328213 -0.0176588 0.0134992 
-0.0408642 -0.0154151 0.0140699 -0.015814 -0.0152491 0.0134236 -0.00444012 -0.0151621 0.0131827 
0.0198229 -0.0156851 0.0134876 0.0375745 -0.0151367 0.0134592 -0.0388614 -0.0136303 0.013895 
-0.0313057 -0.0141988 0.0135209 -0.0117656 -0.0138394 0.0131857 -0.0341597 -0.0122829 0.0140069 
-0.0136128 -0.00979682 0.013282 0.013874 -0.00963069 0.0136577 -0.042331 -0.00792816 0.0131512 
-0.00553214 -0.00871323 0.0131601 -0.00254943 -0.00825679 0.0130607 -0.00401126 -0.00720159 0.0138955 
0.0109664 -0.00760095 0.0134077 0.0404774 -0.00688032 0.0131818 0.0387156 -0.00624884 0.0134507 
0.021323 -0.00444137 0.0142405 -0.0141425 -0.00311887 0.0132378 -0.0120059 -0.00345367 0.0134816 
-0.0408474 -0.00214648 0.014231 -0.0395569 -0.00227866 0.0135009 0.00664535 -0.00164817 0.0133325 
-0.0376932 -0.000132947 0.0140733 0.0290986 -0.000251763 0.0135721 -0.0325416 0.00283857 0.0130489 
-0.025141 0.00447188 0.0132711 0.0246705 0.0064451 0.0133795 0.00533928 0.00728904 0.014017 
0.0340899 0.00882812 0.0142767 -0.0349081 0.00917553 0.0132781 0.00474506 0.0103043 0.0135023 
0.00978397 0.00922321 0.0132899 0.0211953 0.00966092 0.0131167 -0.0365733 0.0119208 0.0131785 
-0.00831541 0.0129665 0.0131695 0.00243185 0.0120975 0.0134115 0.00789931 0.0136568 0.0135881 
0.000954082 0.0152563 0.0139168 -0.00443291 0.0160613 0.0133027 0.00517921 0.0169249 0.0140809 
-0.0193355 0.018129 0.0135317 0.0256029 0.0175394 0.0133972 0.0407412 0.0174253 0.013628 
0.00757299 0.0192258 0.0133753 0.0090081 0.0191686 0.0141379 0.018015 0.0183735 0.0134078 
0.0350116 0.0207306 0.0139854 -0.0267196 0.0236159 0.0139067 0.00264144 0.0247174 0.0142629 
0.0307708 0.0242663 0.0135614 0.0395905 0.0272142 0.013098 0.0434247 0.0295768 0.0133645 
-0.0200898 0.0311527 0.0136187 -0.0108954 0.0304 0.0136175 0.026696 0.03017 0.0132421 
0.01325 0.0319187 0.0142188 -0.0337286 0.0337045 0.0133584 -0.00472634 0.0344449 0.0140055 
0.0231674 0.0340949 0.0136662 -0.0407273 0.0358476 0.0143129 0.0281745 0.039089 0.0133718 
-0.0133259 0.0414802 0.0133062 0.0294278 0.0431452 0.0132048 0.0114086 0.0440135 0.013659 
0.0405446 0.0433429 0.0138231 0.0171919 0.0449185 0.0136066 0.0211706 0.0445491 0.0134821 
-0.00674967 -0.0416523 0.015182 -0.0334706 -0.0396012 0.0150209 -0.0248652 -0.040212 0.0143589 
-0.00338111 -0.0363358 0.0153631 0.0307351 -0.0355434 0.0155902 0.0355384 -0.0354155 0.0148329 
-8.23525e-05 -0.034098 0.015536 0.00594186 -0.0351889 0.0144867 0.00231692 -0.0294453 0.0145537 
-0.015788 -0.0282898 0.0148057 0.0109547 -0.0235646 0.0147061 0.0115492 -0.0227248 0.0145648 
-0.00827992 -0.020547 0.0145374 0.00156248 -0.0194187 0.0148405 -0.0100897 -0.0180162 0.0145229 
-0.0339565 -0.0167518 0.0154387 0.0286804 -0.00919085 0.0152165 -0.0211095 -0.00770044 0.0148987 
-0.0150798 -0.00698339 0.0150146 -0.00433253 -0.00676057 0.0148653 -0.00720807 -0.00608605 0.0156207 
-0.0260142 0.00017485 0.0143585 0.0188762 0.00181355 0.0145849 -0.0261639 0.00337815 0.0153011 
0.0404406 0.00462082 0.0150438 0.0332757 0.00539899 0.014386 0.0398091 0.011618 0.0144724 
-0.0350204 0.0121089 0.0143842 0.0440772 0.0154938 0.0143574 0.0362273 0.0220011 0.0146998 
-0.0295899 0.0232577 0.0146439 -0.0386663 0.0253433 0.0152893 -0.0267569 0.0263983 0.0154454 
-0.00563177 0.0268155 0.0155339 0.0191509 0.0299648 0.0155932 -0.0313244 0.0314049 0.0149582 
0.0038092 0.0311583 0.0143189 -0.0073504 0.0318329 0.0148829 0.0372507 0.0318783 0.0145268 
-0.041477 0.0364172 0.0152024 -0.00196307 0.0366495 0.0146551 -0.0245447 0.0378537 0.0149908 
0.0030545 0.0369981 0.0146811 -0.00647711 0.0391566 0.0148791 -0.0346971 -0.0446764 0.0168565 
-0.0317519 -0.0446953 0.0164033 -0.00340304 -0.0448428 0.0164292 0.0147823 -0.0446949 0.0164165 
-0.027409 -0.0433703 0.0162439 -0.0389435 -0.0425966 0.0164927 -0.0248654 -0.0427111 0.0168636 
0.0248068 -0.0428986 0.0167089 -0.00670669 -0.0394183 0.0163976 -0.0289295 -0.0389067 0.0162224 
-0.0234086 -0.038644 0.0160301 0.0325128 -0.03812 0.0166255 -0.0439713 -0.0357399 0.0168283 
-0.0179089 -0.0346335 0.0165787 0.00879071 -0.0344865 0.0162134 -0.0427235 -0.0332389 0.0162079 
-0.0177803 -0.0340186 0.016931 0.0289145 -0.0340196 0.0163322 -0.0210092 -0.0320472 0.0164343 
0.00802514 -0.031483 0.0156379 0.010226 -0.0308634 0.0160248 -0.0346801 -0.0287009 0.0167635 
0.0156293 -0.0283842 0.0161246 -0.00580099 -0.0272788 0.0163986 -0.0338231 -0.0250135 0.0164298 
0.0210005 -0.0239559 0.0164568 -0.038621 -0.0229432 0.0156791 0.00623721 -0.0211799 0.015784 
-0.0207996 -0.0190456 0.0165278 0.0134129 -0.0192809 0.0162054 0.0272875 -0.0186725 0.0164679 
-0.0204621 -0.0172006 0.0168076 -0.0426154 -0.0165053 0.0158111 0.0296492 -0.015918 0.0161796 
0.0132043 -0.01541 0.0167478 0.0268005 -0.0146468 0.0163011 -0.0329121 -0.0139828 0.0165055 
-0.0279963 -0.0141356 0.01683 -0.00710141 -0.0133745 0.0160906 0.00886689 -0.0141191 0.0168286 
0.0176437 -0.0119747 0.0160336 0.0347312 -0.012978 0.0159748 -0.0253401 -0.0103599 0.0164609 
-0.0196799 -0.00931279 0.0165648 0.0218314 -0.00971151 0.0160001 0.0251729 -0.00985964 0.0158527 
-0.0304645 -0.00701594 0.0160422 -0.0101373 -0.00698039 0.0156957 0.0180565 -0.00487531 0.016231 
0.0386193 -0.00496685 0.0166374 -0.042786 -0.00359954 0.015993 0.0154702 -0.00154679 0.0153502 
-0.0356048 -0.000104637 0.0161354 0.00127443 -0.000618905 0.0158782 0.0420414 -0.00101026 0.0165754 
-0.0416237 0.00110806 0.0167645 -0.0332593 0.000859011 0.0161549 0.0147261 0.00139147 0.0163177 
-0.027449 0.00511055 0.0164745 -0.0403489 0.00598291 0.0160183 -0.037077 0.00611456 0.0166073 
-0.01547 0.00642247 0.0166569 0.030759 0.00580352 0.0157189 0.0358407 0.00533501 0.0166759 
0.0142017 0.0079404 0.0168314 0.0202046 0.00840095 0.0168133 0.0324887 0.00836074 0.0165006 
0.0234497 0.00978487 0.0168602 -0.00071691 0.0108932 0.0169284 0.00418285 0.0112423 0.0164038 
0.0261916 0.0119357 0.0168814 0.012949 0.0143048 0.0165305 -0.0287818 0.014969 0.0162175 
-0.0408838 0.0159645 0.0166915 -0.0286532 0.0159811 0.0161498 -0.0161548 0.0159009 0.0162621 
-0.00317984 0.0164631 0.0160515 -0.0436896 0.0195853 0.0158114 -0.0363159 0.0185996 0.0162128 
0.00395304 0.0187088 0.0157051 -0.0287332 0.0215601 0.0157732 0.00128112 0.0217131 0.0160569 
-0.0421793 0.0225172 0.0168588 -0.0349287 0.0230684 0.0167427 -0.0436572 0.0238848 0.0163695 
-0.0138035 0.0240512 0.0160352 -0.0132251 0.0252506 0.016318 -0.00739359 0.0259593 0.0157787 
0.00953871 0.0271324 0.01629 -0.0357156 0.0282031 0.0157246 -0.0214233 0.0285543 0.0163427 
-0.014478 0.0275162 0.0164504 0.0040127 0.0314243 0.0167394 -0.0359241 0.0337864 0.0167111 
0.0132394 0.0345575 0.0166096 -0.00750544 0.0361316 0.0165005 -0.0379532 0.0399341 0.0157256 
-0.0375088 0.0393741 0.0166675 -0.0112537 0.0395394 0.0160991 0.0221021 0.0401282 0.0166473 
-0.00785852 0.041878 0.0158075 0.00805094 0.0422278 0.0160174 0.0170579 0.0421878 0.0168299 
0.0430506 0.0422314 0.0157107 -0.0205282 0.0432397 0.0158877 -0.0181988 0.0434549 0.0169102 
0.0399235 0.0434757 0.0163029 -0.0390775 0.0447256 0.0168169 -0.0190394 0.0446837 0.0164656 
-0.0225361 -0.0441701 0.0179487 -0.00396528 -0.0444182 0.017191 0.0145521 -0.0432303 0.0170464 
0.0195053 -0.043722 0.0173238 0.0131812 -0.0427533 0.0172502 0.0406519 -0.0427256 0.0173864 
-0.0136468 -0.0412372 0.0171406 0.0166138 -0.0412108 0.0171808 0.0238162 -0.0409762 0.0170122 
0.00849583 -0.0405939 0.0169874 0.0244803 -0.0401788 0.0171573 -0.0195638 -0.0385913 0.0169763 
-0.0370475 -0.0370945 0.0178003 0.00985621 -0.0367022 0.0175731 0.0397687 -0.0374633 0.0169464 
-0.0309963 -0.0355024 0.0171518 0.043014 -0.0343178 0.0172867 -0.0161578 -0.0337243 0.0170487 
-0.0376897 -0.0314333 0.0170477 -0.0220587 -0.0306349 0.017698 -0.00682403 -0.0314098 0.0175799 
-0.0414327 -0.0290659 0.0175195 -0.0263426 -0.0292431 0.0171703 0.0153133 -0.0285941 0.0169511 
0.03382 -0.0268981 0.0170281 0.0347572 -0.0260666 0.0175867 -0.00863888 -0.0237376 0.017192 
0.00179778 -0.0247441 0.0171607 0.00558373 -0.0242787 0.0179637 0.00538025 -0.0241403 0.0178865 
-0.0127621 -0.0231756 0.0179009 0.0240101 -0.0228809 0.0177047 0.035159 -0.023363 0.01729 
-0.0210835 -0.0209207 0.017043 -0.0033641 -0.0204173 0.0170284 0.00548761 -0.0197918 0.0172723 
0.0204492 -0.0194639 0.0179869 -0.0147645 -0.0165889 0.0175656 0.038292 -0.016257 0.0171326 
0.0249316 -0.014475 0.0176668 0.0323803 -0.0150629 0.0179236 -0.0186412 -0.0134353 0.017575 
0.0144468 -0.013247 0.0169815 0.0403752 -0.0143085 0.0172393 -0.0327621 -0.0121928 0.0171811 
-0.00528066 -0.0121118 0.017209 0.0253763 -0.011051 0.0172611 0.0334462 -0.00930086 0.0175559 
0.0406218 -0.0100941 0.0171195 -0.0344646 -0.00725539 0.017124 -0.0135858 -0.00672635 0.0176487 
0.0127657 -0.00746761 0.0177786 0.0161928 -0.00760918 0.0172094 0.00523139 -0.00599236 0.0173851 
-0.0253129 -0.0039775 0.0171285 0.0180458 -0.00470109 0.0171041 0.0200271 -0.00425623 0.0171073 
-0.0107529 -0.00365687 0.0180139 -0.00941413 -0.00330341 0.0172637 0.00975646 -0.00313231 0.017186 
-0.0198668 -0.00211416 0.0172336 -0.00896956 -0.00131708 0.0171862 0.0168839 -0.00210364 0.0170581 
-0.0283489 -0.000417126 0.0174196 -0.0153419 -0.00108619 0.0170541 0.0140084 -6.89735e-05 0.0172228 
0.0407777 0.000744206 0.0173011 -0.0131355 0.00164571 0.0178309 0.0116524 0.00206193 0.0180647 
0.0189244 0.00254502 0.0173677 0.0362421 0.00170773 0.0171536 -0.0233311 0.00384073 0.0172808 
-0.0137512 0.00384646 0.0182343 0.00243665 0.00282786 0.0171204 0.0183943 0.00266245 0.0170036 
0.0260144 0.00429017 0.0177905 0.0323225 0.00436429 0.0170152 -0.00723413 0.00605583 0.0169716 
0.0250346 0.00641518 0.0173949 -0.0429246 0.00657681 0.0172919 -0.019893 0.00878872 0.0172612 
-0.0105861 0.00898083 0.0175051 -0.0408306 0.00999374 0.0171693 0.027557 0.009967 0.0171773 
-0.00808524 0.0113378 0.0171318 0.0128044 0.0127337 0.0171625 0.014866 0.0127598 0.0172672 
-0.0429188 0.0135204 0.0171779 -0.00867948 0.0139924 0.0173823 -0.00841171 0.0143034 0.0176761 
0.0311878 0.014057 0.0175293 0.0336082 0.013194 0.0179871 0.0396593 0.013993 0.0175954 
0.0441199 0.0136981 0.0171244 -0.0231109 0.0157017 0.017082 -0.0196462 0.0155185 0.0169955 
0.0226738 0.0181095 0.0181638 0.0122157 0.0191756 0.0171498 0.0388885 0.0193682 0.0173135 
-0.0431379 0.0208085 0.0176047 -0.0144089 0.0201081 0.017495 0.00742845 0.0199749 0.0177679 
-0.0122989 0.0222019 0.0171033 0.0398418 0.0217469 0.0171177 -0.0324762 0.0230005 0.0173305 
-0.0148746 0.0223253 0.0174869 0.00126512 0.0228658 0.0178101 0.0146363 0.0223077 0.017172 
-0.00782209 0.0241861 0.0175884 0.0181332 0.0246356 0.0169331 0.0438582 0.0244724 0.0171075 
-0.0190887 0.0269029 0.0172227 -0.0128609 0.0265935 0.0172028 -0.0114472 0.026715 0.0175709 
0.0397191 0.0283771 0.0169982 -0.0376379 0.0294143 0.0172191 0.00519606 0.0301696 0.0174614 
-0.00435696 0.0325462 0.0170342 0.0191028 0.0315895 0.0173502 0.0193546 0.0324404 0.0182026 
0.0337272 0.0324898 0.0171398 0.0380057 0.0324307 0.0173972 -0.0425374 0.0333781 0.0174607 
0.00727395 0.0332762 0.0170829 0.00317215 0.0343196 0.0174344 0.0278529 0.0342296 0.0174838 
0.00888594 0.0360502 0.0171447 0.00367032 0.0371324 0.0170375 0.0311732 0.0371467 0.0172662 
-0.00585061 0.0388609 0.0176552 0.00201585 0.0404036 0.017649 0.00528787 0.0432844 0.0175377 
0.0352701 0.0439749 0.0172315 0.0352379 0.0438995 0.0172458 0.0424299 -0.0409921 0.0185008 
-0.0233761 -0.031813 0.0182724 0.0268369 -0.0315202 0.0194682 -0.0240024 -0.0280603 0.0184013 
-0.0240719 -0.0268296 0.0189537 0.0350196 -0.0250011 0.018395 0.0102479 -0.024092 0.0189615 
0.0394323 -0.021923 0.0186559 -0.0269092 -0.0125643 0.0183281 -0.038829 -0.00978443 0.0194963 
0.0448793 -0.00396119 0.0193885 -0.009285 0.00693532 0.0191804 -0.00598638 0.00689803 0.0187839 
-0.0442311 0.00821601 0.0193382 0.021223 0.0244832 0.019429 0.000162142 0.0251126 0.0189147 
-0.0260391 0.0304395 0.0183554 0.0104707 0.0313218 0.018129 0.0352883 -0.0103067 0.0200954 
0.00357123 -0.00830953 0.0200447 -0.0214415 -0.007536 0.0202464 -0.0122189 0.0175978 0.0199974 
-0.0197415 0.0344175 0.0201921 -0.0408092 0.00981999 0.0213169 0.00976298 0.0163696 0.02172 
-0.0245993 0.0193658 0.0222904 -0.0170112 0.0231088 0.0222029 0.0419483 -0.0348097 0.0236185 
0.039455 -0.000236508 0.0242826 0.00635633 0.000852437 0.0236586 -0.0296003 0.0277025 0.0239433 
0.0131273 0.040817 0.0248152 -0.0385899 -0.0405251 0.0265643 0.0414788 -0.00521487 0.0260122 
-0.00521279 -0.0413279 0.0280098 0.0242571 -0.0100823 0.028246 0.0282359 -0.00877456 0.0282998 
0.00308146 0.0401468 0.0282538 -0.0081225 0.0151775 0.0297062 -0.0155539 0.0359545 0.0307018 
0.0433204 -0.0141837 0.0334075 -0.0256005 0.0215871 0.0330661 -0.00757157 0.00454821 0.0346457 
0.0188903 -0.0308528 0.0390174 -0.0207679 -0.0256315 0.03965 0.00643655 -0.000956063 0.0388872 
0.00741479 -0.0295782 0.0420387 0.00347554 0.00338662 0.0416637 -0.00254916 -0.00379952 0.0445276 

VERTICES 649 648
OFFSETS vtktypeint64
0 1 2 3 4 5 6 7 8 
9 10 11 12 13 14 15 16 17 
18 19 20 21 22 23 24 25 26 
27 28 29 30 31 32 33 34 35 
36 37 38 39 40 41 42 43 44 
45 46 47 48 49 50 51 52 53 
54 55 56 57 58 59 60 61 62 
63 64 65 66 67 68 69 70 71 
72 73 74 75 76 77 78 79 80 
81 82 83 84 85 86 87 88 89 
90 91 92 93 94 95 96 97 98 
99 100 101 102 103 104 105 106 107 
108 109 110 111 112 113 114 115 116 
117 118 119 120 121 122 123 124 125 
126 127 128 129 130 131 132 133 134 
135 136 137 138 139 140 141 142 143 
144 145 146 147 148 149 150 151 152 
153 154 155 156 157 158 159 160 161 
162 163 164 165 166 167 168 169 170 
171 172 173 174 175 176 177 178 179 
180 181 182 183 184 185 186 187 188 
189 190 191 192 193 194 195 196 197 
198 199 200 201 202 203 204 205 206 
207 208 209 210 211 212 213 214 215 
216 217 218 219 220 221 222 223 224 
225 226 227 228 229 230 231 232 233 
234 235 236 237 238 239 240 241 242 
243 244 245 246 247 248 249 250 251 
252 253 254 255 256 257 258 259 260 
261 262 263 264 265 266 267 268 269 
270 271 272 273 274 275 276 277 278 
279 280 281 282 283 284 285 286 287 
288 289 290 291 292 293 294 295 296 
297 298 299 300 301 302 303 304 305 
306 307 308 309 310 311 312 313 314 
315 316 317 318 319 320 321 322 323 
324 325 326 327 328 329 330 331 332 
333 334 335 336 337 338 339 340 341 
342 343 344 345 346 347 348 349 350 
351 352 353 354 355 356 357 358 359 
360 361 362 363 364 365 366 367 368 
369 370 371 372 373 374 375 376 377 
378 379 380 381 382 383 384 385 386 
387 388 389 390 391 392 393 394 395 
396 397 398 399 400 401 402 403 404 
405 406 407 408 409 410 411 412 413 
414 415 416 417 418 419 420 421 422 
423 424 425 426 427 428 429 430 431 
432 433 434 435 436 437 438 439 440 
441 442 443 444 445 446 447 448 449 
450 451 452 453 454 455 456 457 458 
459 460 461 462 463 464 465 466 467 
468 469 470 471 472 473 474 475 476 
477 478 479 480 481 482 483 484 485 
486 487 488 489 490 491 492 493 494 
495 496 497 498 499 500 501 502 503 
504 505 506 507 508 509 510 511 512 
513 514 515 516 517 518 519 520 521 
522 523 524 525 526 527 528 529 530 
531 532 533 534 535 536 537 538 539 
540 541 542 543 544 545 546 547 548 
549 550 551 552 553 554 555 556 557 
558 559 560 561 562 563 564 565 566 
567 568 569 570 571 572 573 574 575 
576 577 578 579 580 581 582 583 584 
585 586 587 588 589 590 591 592 593 
594 595 596 597 598 599 600 601 602 
603 604 605 606 607 608 609 610 611 
612 613 614 615 616 617 618 619 620 
621 622 623 624 625 626 627 628 629 
630 631 632 633 634 635 636 637 638 
639 640 641 642 643 644 645 646 647 
648 
CONNECTIVITY vtktypeint64
0 1 2 3 4 5 6 7 8 
9 10 11 12 13 14 15 16 17 
18 19 20 21 22 23 24 25 26 
27 28 29 30 31 32 33 34 35 
36 37 38 39 40 41 42 43 44 
45 46 47 48 49 50 51 52 53 
54 55 56 57 58 59 60 61 62 
63 64 65 66 67 68 69 70 71 
72 73 74 75 76 77 78 79 80 
81 82 83 84 85 86 87 88 89 
90 91 92 93 94 95 96 97 98 
99 100 101 102 103 104 105 106 107 
108 109 110 111 112 113 114 115 116 
117 118 119 120 121 122 123 124 125 
126 127 128 129 130 131 132 133 134 
135 136 137 138 139 140 141 142 143 
144 145 146 147 148 149 150 151 152 
153 154 155 156 157 158 159 160 161 
162 163 164 165 166 167 168 169 170 
171 172 173 174 175 176 177 178 179 
180 181 182 183 184 185 186 187 188 
189 190 191 192 193 194 195 196 197 
198 199 200 201 202 203 204 205 206 
207 208 209 210 211 212 213 214 215 
216 217 218 219 220 221 222 223 224 
225 226 227 228 229 230 231 232 233 
234 235 236 237 238 239 240 241 242 
243 244 245 246 247 248 249 250 251 
252 253 254 255 256 257 258 259 260 
261 262 263 264 265 266 267 268 269 
270 271 272 273 274 275 276 277 278 
279 280 281 282 283 284 285 286 287 
288 289 290 291 292 293 294 295 296 
297 298 299 300 301 302 303 304 305 
306 307 308 309 310 311 312 313 314 
315 316 317 318 319 320 321 322 323 
324 325 326 327 328 329 330 331 332 
333 334 335 336 337 338 339 340 341 
342 343 344 345 346 347 348 349 350 
351 352 353 354 355 356 357 358 359 
360 361 362 363 364 365 366 367 368 
369 370 371 372 373 374 375 376 377 
378 379 380 381 382 383 384 385 386 
387 388 389 390 391 392 393 394 395 
396 397 398 399 400 401 402 403 404 
405 406 407 408 409 410 411 412 413 
414 415 416 417 418 419 420 421 422 
423 424 425 426 427 428 429 430 431 
432 433 434 435 436 437 438 439 440 
441 442 443 444 445 446 447 448 449 
450 451 452 453 454 455 456 457 458 
459 460 461 462 463 464 465 466 467 
468 469 470 471 472 473 474 475 476 
477 478 479 480 481 482 483 484 485 
486 487 488 489 490 491 492 493 494 
495 496 497 498 499 500 501 502 503 
504 505 506 507 508 509 510 511 512 
513 514 515 516 517 518 519 520 521 
522 523 524 525 526 527 528 529 530 
531 532 533 534 535 536 537 538 539 
540 541 542 543 544 545 546 547 548 
549 550 551 552 553 554 555 556 557 
558 559 560 561 562 563 564 565 566 
567 568 569 570 571 572 573 574 575 
576 577 578 579 580 581 582 583 584 
585 586 587 588 589 590 591 592 593 
594 595 596 597 598 599 600 601 602 
603 604 605 606 607 608 609 610 611 
612 613 614 615 616 617 618 619 620 
621 622 623 624 625 626 627 628 629 
630 631 632 633 634 635 636 637 638 
639 640 641 642 643 644 645 646 647 

POINT_DATA 648
FIELD FieldData 12
id 1 648 int
569 622 597 578 618 628 617 598 556 
637 555 586 614 645 604 581 541 537 
585 599 593 633 583 552 616 554 544 
613 595 535 594 623 579 531 534 115 
605 573 612 638 615 383 57 592 465 
396 560 596 164 577 570 185 548 190 
572 590 563 72 557 565 418 450 601 
169 491 607 561 18 195 562 92 571 
589 304 154 558 539 603 530 106 293 
567 370 175 458 407 214 150 310 433 
339 166 49 219 506 550 362 591 508 
459 347 404 543 576 547 317 470 289 
444 566 292 580 515 132 564 36 538 
545 456 546 432 297 587 521 514 85 
246 386 575 372 463 635 549 518 51 
137 533 331 527 574 532 267 282 238 
439 551 355 542 66 478 467 510 261 
288 322 110 163 540 327 412 200 218 
134 35 34 356 626 24 88 303 525 
107 502 128 291 513 64 517 176 553 
227 231 428 157 243 86 503 512 528 
423 129 197 255 60 401 620 202 308 
40 149 507 509 524 504 419 201 26 
148 270 235 320 559 328 523 318 62 
639 366 346 31 203 140 207 99 82 
226 159 436 489 69 333 352 103 294 
445 121 71 526 160 472 237 479 274 
143 374 381 168 194 58 306 215 380 
264 127 95 324 260 42 336 368 299 
125 385 257 360 382 135 204 341 334 
56 353 426 165 400 338 497 420 345 
262 273 46 469 220 193 184 118 392 
443 364 117 33 109 520 189 461 114 
187 343 268 29 348 387 251 309 536 
361 108 302 272 55 438 457 256 87 
67 492 344 388 367 139 629 192 449 
174 440 247 73 483 511 522 6 224 
83 186 519 141 126 373 181 358 529 
254 100 408 280 321 488 158 253 94 
233 232 437 182 413 275 242 98 241 
188 258 113 390 314 312 173 359 22 
402 319 229 350 634 307 505 283 354 
120 409 415 234 37 167 177 44 516 
298 496 422 376 290 500 276 490 441 
349 259 23 248 101 427 399 39 11 
133 263 610 568 365 80 75 389 90 
284 501 495 245 454 153 424 112 145 
296 221 464 446 41 48 315 228 468 
473 152 485 417 138 337 287 330 191 
97 131 162 199 410 209 369 332 494 
391 452 249 76 155 435 277 91 434 
19 406 375 351 476 172 230 89 84 
93 414 471 68 52 429 136 326 210 
411 102 122 487 47 156 477 250 398 
393 295 147 183 430 493 116 79 484 
416 323 329 403 25 28 448 462 170 
240 74 59 460 211 146 43 340 38 
311 53 32 27 278 377 285 252 105 
171 142 20 405 151 371 205 217 265 
196 499 208 77 61 212 300 244 305 
379 216 486 474 301 124 144 453 480 
442 378 21 384 119 17 395 236 363 
63 70 178 54 447 161 357 625 281 
431 279 130 325 394 104 14 12 206 
498 266 30 179 451 81 222 481 65 
180 466 455 225 313 421 286 482 198 
45 123 342 397 475 271 239 5 96 
13 335 223 111 8 16 50 425 213 
316 78 9 269 611 3 608 10 7 
600 4 15 582 588 584 2 630 609 
606 648 647 632 1 602 643 619 624 
644 646 631 636 627 621 640 641 642 

type 1 648 int
1 1 1 1 1 1 1 1 1 
1 1 1 1 1 1 1 1 1 
1 1 1 1 1 1 1 1 1 
1 1 1 1 1 1 1 1 1 
1 1 1 1 1 1 1 1 1 
1 1 1 1 1 1 1 1 1 
1 1 1 1 1 1 1 1 1 
1 1 1 1 1 1 1 1 1 
1 1 1 1 1 1 1 1 1 
1 1 1 1 1 1 1 1 1 
1 1 1 1 1 1 1 1 1 
1 1 1 1 1 1 1 1 1 
1 1 1 1 1 1 1 1 1 
1 1 1 1 1 1 1 1 1 
1 1 1 1 1 1 1 1 1 
1 1 1 1 1 1 1 1 1 
1 1 1 1 1 1 1 1 1 
1 1 1 1 1 1 1 1 1 
1 1 1 1 1 1 1 1 1 
1 1 1 1 1 1 1 1 1 
1 1 1 1 1 1 1 2 1 
1 1 1 1 1 1 1 1 1 
1 1 1 1 1 1 1 1 1 
1 1 1 1 1 1 1 1 1 
1 1 1 1 1 1 1 1 1 
1 1 1 1 1 1 1 1 1 
1 1 1 1 1 1 1 1 1 
1 1 1 1 1 1 1 1 1 
1 1 1 1 1 1 1 1 1 
1 1 1 1 1 1 1 1 1 
1 1 1 1 1 1 1 1 1 
1 1 1 1 1 1 1 1 1 
1 1 1 1 1 1 1 1 1 
1 1 1 1 1 1 1 1 1 
1 1 1 1 1 1 1 1 1 
1 1 1 1 1 1 1 1 1 
1 1 1 1 1 1 1 2 1 
1 1 1 1 1 1 1 1 1 
1 1 1 1 1 1 1 1 1 
1 1 1 1 1 1 1 1 1 
1 1 1 1 1 1 1 1 1 
1 1 1 1 2 1 1 1 1 
1 1 1 1 1 1 1 1 2 
1 1 1 1 1 1 1 1 1 
1 1 1 1 1 1 1 1 2 
1 1 1 1 1 1 1 1 1 
1 1 1 1 1 1 1 1 1 
1 1 1 1 1 1 1 1 1 
1 1 1 1 1 1 1 1 1 
1 1 1 1 1 1 1 1 1 
1 1 1 1 1 1 1 1 1 
1 1 1 1 1 1 1 1 1 
1 1 1 1 1 1 1 1 1 
1 1 1 1 1 1 1 1 1 
1 1 1 1 1 1 1 1 1 
1 1 1 1 1 1 1 1 1 
1 1 1 1 1 1 1 1 1 
1 1 1 1 1 1 1 1 1 
1 1 1 1 1 1 1 1 1 
1 1 1 1 1 1 1 1 1 
1 1 1 1 1 1 1 1 1 
1 1 1 1 1 1 1 1 1 
1 1 1 1 1 1 1 1 1 
1 1 1 1 1 1 2 2 1 
1 1 1 1 1 1 1 1 1 
1 1 1 1 1 1 1 1 1 
1 1 1 1 1 1 1 2 1 
2 1 1 1 2 2 1 1 1 
1 1 2 1 1 2 1 2 2 
1 2 2 1 1 1 3 1 1 
1 1 1 1 4 1 1 1 1 
1 1 1 1 1 1 1 1 1 

i 3 648 int
0 0 0 0 0 0 0 0 0 
0 0 0 0 0 0 0 0 0 
0 0 0 0 0 0 0 0 0 
0 0 0 0 0 0 0 0 0 
0 0 0 0 0 0 0 0 0 
0 0 0 0 0 0 0 0 0 
0 0 0 0 0 0 0 0 0 
0 0 0 0 0 0 0 0 0 
0 0 0 0 0 0 0 0 0 
0 0 0 0 0 0 0 0 0 
0 0 0 0 0 0 0 0 0 
0 0 0 0 0 0 0 0 0 
0 0 0 0 0 0 0 0 0 
0 0 0 0 0 0 0 0 0 
0 0 0 0 0 0 0 0 0 
0 0 0 0 0 0 0 0 0 
0 0 0 0 0 0 0 0 0 
0 0 0 0 0 0 0 0 0 
0 0 0 0 0 0 0 0 0 
0 0 0 0 0 0 0 0 0 
0 0 0 0 0 0 0 0 0 
0 0 0 0 0 0 0 0 0 
0 0 0 0 0 0 0 0 0 
0 0 0 0 0 0 0 0 0 
0 0 0 0 0 0 0 0 0 
0 0 0 0 0 0 0 0 0 
0 0 0 0 0 0 0 0 0 
0 0 0 0 0 0 0 0 0 
0 0 0 0 0 0 0 0 0 
0 0 0 0 0 0 0 0 0 
0 0 0 0 0 0 0 0 0 
0 0 0 0 0 0 0 0 0 
0 0 0 0 0 0 0 0 0 
0 0 0 0 0 0 0 0 0 
0 0 0 0 0 0 0 0 0 
0 0 0 0 0 0 0 0 0 
0 0 0 0 0 0 0 0 0 
0 0 0 0 0 0 0 0 0 
0 0 0 0 0 0 0 0 0 
0 0 0 0 0 0 0 0 0 
0 0 0 0 0 0 0 0 0 
0 0 0 0 0 0 0 0 0 
0 0 0 0 0 0 0 0 0 
0 0 0 0 0 0 0 0 0 
0 0 0 0 0 0 0 0 0 
0 0 0 0 0 0 0 0 0 
0 0 0 0 0 0 0 0 0 
0 0 0 0 0 0 0 0 0 
0 0 0 0 0 0 0 0 0 
0 0 0 0 0 0 0 0 0 
0 0 0 0 0 0 0 0 0 
0 0 0 0 0 0 0 0 0 
0 0 0 0 0 0 0 0 0 
0 0 0 0 0 0 0 0 0 
0 0 0 0 0 0 0 0 0 
0 0 0 0 0 0 0 0 0 
0 0 0 0 0 0 0 0 0 
0 0 0 0 0 0 0 0 0 
0 0 0 0 0 0 0 0 0 
0 0 0 0 0 0 0 0 0 
0 0 0 0 0 0 0 0 0 
0 0 0 0 0 0 0 0 0 
0 0 0 0 0 0 0 0 0 
0 0 0 0 0 0 0 0 0 
0 0 0 0 0 0 0 0 0 
0 0 0 0 0 0 0 0 0 
0 0 0 0 0 0 0 0 0 
0 0 0 0 0 0 0 0 0 
0 0 0 0 0 0 0 0 0 
0 0 0 0 0 0 0 0 0 
0 0 0 0 0 0 0 0 0 
0 0 0 0 0 0 0 0 0 
0 0 0 0 0 0 0 0 0 
0 0 0 0 0 0 0 0 0 
0 0 0 0 0 0 0 0 0 
0 0 0 0 0 0 0 0 0 
0 0 0 0 0 0 0 0 0 
0 0 0 0 0 0 0 0 0 
0 0 0 0 0 0 0 0 0 
0 0 0 0 0 0 0 0 0 
0 0 0 0 0 0 0 0 0 
0 0 0 0 0 0 0 0 0 
0 0 0 0 0 0 0 0 0 
0 0 0 0 0 0 0 0 0 
0 0 0 0 0 0 0 0 0 
0 0 0 0 0 0 0 0 0 
0 0 0 0 0 0 0 0 0 
0 0 0 0 0 0 0 0 0 
0 0 0 0 0 0 0 0 0 
0 0 0 0 0 0 0 0 0 
0 0 0 0 0 0 0 0 0 
0 0 0 0 0 0 0 0 0 
0 0 0 0 0 0 0 0 0 
0 0 0 0 0 0 0 0 0 
0 0 0 0 0 0 0 0 0 
0 0 0 0 0 0 0 0 0 
0 0 0 0 0 0 0 0 0 
0 0 0 0 0 0 0 0 0 
0 0 0 0 0 0 0 0 0 
0 0 0 0 0 0 0 0 0 
0 0 0 0 0 0 0 0 0 
0 0 0 0 0 0 0 0 0 
0 0 0 0 0 0 0 0 0 
0 0 0 0 0 0 0 0 0 
0 0 0 0 0 0 0 0 0 
0 0 0 0 0 0 0 0 0 
0 0 0 0 0 0 0 0 0 
0 0 0 0 0 0 0 0 0 
0 0 0 0 0 0 0 0 0 
0 0 0 0 0 0 0 0 0 
0 0 0 0 0 0 0 0 0 
0 0 0 0 0 0 0 0 0 
0 0 0 0 0 0 0 0 0 
0 0 0 0 0 0 0 0 0 
0 0 0 0 0 0 0 0 0 
0 0 0 0 0 0 0 0 0 
0 0 0 0 0 0 0 0 0 
0 0 0 0 0 0 0 0 0 
0 0 0 0 0 0 0 0 0 
0 0 0 0 0 0 0 0 0 
0 0 0 0 0 0 0 0 0 
0 0 0 0 0 0 0 0 0 
0 0 0 0 0 0 0 0 0 
0 0 0 0 0 0 0 0 0 
0 0 0 0 0 0 0 0 0 
0 0 0 0 0 0 0 0 0 
0 0 0 0 0 0 0 0 0 
0 0 0 0 0 0 0 0 0 
0 0 0 0 0 0 0 0 0 
0 0 0 0 0 0 0 0 0 
0 0 0 0 0 0 0 0 0 
0 0 0 0 0 0 0 0 0 
0 0 0 0 0 0 0 0 0 
0 0 0 0 0 0 0 0 0 
0 0 0 0 0 0 0 0 0 
0 0 0 0 0 0 0 0 0 
0 0 0 0 0 0 0 0 0 
0 0 0 0 0 0 0 0 0 
0 0 0 0 0 0 0 0 0 
0 0 0 0 0 0 0 0 0 
0 0 0 0 0 0 0 0 0 
0 0 0 0 0 0 0 0 0 
0 0 0 0 0 0 0 0 0 
0 0 0 0 0 0 0 0 0 
0 0 0 0 0 0 0 0 0 
0 0 0 0 0 0 0 0 0 
0 0 0 0 0 0 0 0 0 
0 0 0 0 0 0 0 0 0 
0 0 0 0 0 0 0 0 0 
0 0 0 0 0 0 0 0 0 
0 0 0 0 0 0 0 0 0 
0 0 0 0 0 0 0 0 0 
0 0 0 0 0 0 0 0 0 
0 0 0 0 0 0 0 0 0 
0 0 0 0 0 0 0 0 0 
0 0 0 0 0 0 0 0 0 
0 0 0 0 0 0 0 0 0 
0 0 0 0 0 0 0 0 0 
0 0 0 0 0 0 0 0 0 
0 0 0 0 0 0 0 0 0 
0 0 0 0 0 0 0 0 0 
0 0 0 0 0 0 0 0 0 
0 0 0 0 0 0 0 0 0 
0 0 0 0 0 0 0 0 0 
0 0 0 0 0 0 0 0 0 
0 0 0 0 0 0 0 0 0 
0 0 0 0 0 0 0 0 0 
0 0 0 0 0 0 0 0 0 
0 0 0 0 0 0 0 0 0 
0 0 0 0 0 0 0 0 0 
0 0 0 0 0 0 0 0 0 
0 0 0 0 0 0 0 0 0 
0 0 0 0 0 0 0 0 0 
0 0 0 0 0 0 0 0 0 
0 0 0 0 0 0 0 0 0 
0 0 0 0 0 0 0 0 0 
0 0 0 0 0 0 0 0 0 
0 0 0 0 0 0 0 0 0 
0 0 0 0 0 0 0 0 0 
0 0 0 0 0 0 0 0 0 
0 0 0 0 0 0 0 0 0 
0 0 0 0 0 0 0 0 0 
0 0 0 0 0 0 0 0 0 
0 0 0 0 0 0 0 0 0 
0 0 0 0 0 0 0 0 0 
0 0 0 0 0 0 0 0 0 
0 0 0 0 0 0 0 0 0 
0 0 0 0 0 0 0 0 0 
0 0 0 0 0 0 0 0 0 
0 0 0 0 0 0 0 0 0 
0 0 0 0 0 0 0 0 0 
0 0 0 0 0 0 0 0 0 
0 0 0 0 0 0 0 0 0 
0 0 0 0 0 0 0 0 0 
0 0 0 0 0 0 0 0 0 
0 0 0 0 0 0 0 0 0 
0 0 0 0 0 0 0 0 0 
0 0 0 0 0 0 0 0 0 
0 0 0 0 0 0 0 0 0 
0 0 0 0 0 0 0 0 0 
0 0 0 0 0 0 0 0 0 
0 0 0 0 0 0 0 0 0 
0 0 0 0 0 0 0 0 0 
0 0 0 0 0 0 0 0 0 
0 0 0 0 0 0 0 0 0 
0 0 0 0 0 0 0 0 0 
0 0 0 0 0 0 0 0 0 
0 0 0 0 0 0 0 0 0 
0 0 0 0 0 0 0 0 0 
0 0 0 0 0 0 0 0 0 
0 0 0 0 0 0 0 0 0 
0 0 0 0 0 0 0 0 0 
0 0 0 0 0 0 0 0 0 
0 0 0 0 0 0 0 0 0 
0 0 0 0 0 0 0 0 0 
0 0 0 0 0 0 0 0 0 

v 3 648 double
0 0 0.23869573728 0 0 0.22527862731 0 0 0.19458047568 
0 0 -0.61524918749 0 0 0.22351434535 0 0 0.20918180619 
0 0 0.22561088532 0 0 0.19634993137 0 0 -0.64774918749 
0 0 -0.5567491875 0 0 0.24039172213 0 0 0.2241728567 
0 0 0.18753755015 0 0 0.14983395329 0 0 0.16246246035 
0 0 -0.61524918749 0 0 0.23235187259 0 0 0.23008428964 
0 0 0.21954366317 0 0 0.21301254389 0 0 0.17076294885 
0 0 -0.5599991875 0 0 0.17892309606 0 0 0.19124399442 
0 0 0.17986498909 0 0 0.21608676501 0 0 -0.66399918749 
0 0 0.19924025154 0 0 -0.5989991875 0 0 0.17979566524 
0 0 0.20355264491 0 0 0.19895176567 0 0 0.16764205661 
0 0 0.22444968463 0 0 0.15893188267 0 0 -0.11213407038 
0 0 0.13039232403 0 0 0.18271373141 0 0 0.10677804451 
0 0 0.17076916848 0 0 0.12863572195 0 0 -0.11446408765 
0 0 -0.11866005807 0 0 0.11855463324 0 0 -0.11019862751 
0 0 -0.11266173592 0 0 0.19689294258 0 0 0.18147834232 
0 0 -0.10625371988 0 0 0.111950732 0 0 0.12701014922 
0 0 -0.10074846426 0 0 0.19489160075 0 0 -0.094140889269 
0 0 0.12093890055 0 0 -0.60549918749 0 0 0.12920407016 
0 0 -0.10032274539 0 0 0.19275410282 0 0 0.14147867256 
0 0 -0.092274442632 0 0 -0.098026054747 0 0 0.086714562113 
0 0 -0.10456116986 0 0 -0.10078786718 0 0 -0.5827491875 
0 0 0.18676686848 0 0 -0.10249967086 0 0 -0.10643561955 
0 0 0.076809972821 0 0 -0.084287909898 0 0 0.090498416532 
0 0 0.099905700564 0 0 -0.085943311439 0 0 -0.077058927093 
0 0 0.18806558705 0 0 0.1784083582 0 0 -0.5859991875 
0 0 0.18103914302 0 0 -0.089783291798 0 0 -0.090062970777 
0 0 0.072390167921 0 0 -0.095295172692 0 0 -0.075454009381 
0 0 -0.080309131142 0 0 -0.07869992772 0 0 -0.092554091947 
0 0 -0.095519805712 0 0 -0.074748229348 0 0 -0.09028739164 
0 0 -0.082138042451 0 0 -0.08274023565 0 0 -0.078739978588 
0 0 -0.095338748441 0 0 -0.057538457287 0 0 0.17986064415 
0 0 -0.097446676361 0 0 0.10821413246 0 0 -0.053301608295 
0 0 -0.082360896647 0 0 -0.052866774399 0 0 -0.059615898171 
0 0 0.060778050192 0 0 0.13510911182 0 0 0.14433578907 
0 0 -0.061764929481 0 0 -0.069472301152 0 0 -0.069451051292 
0 0 -0.067307375891 0 0 0.13799402952 0 0 -0.060848462906 
0 0 0.12681517526 0 0 -0.018406124883 0 0 -0.06287528642 
0 0 0.13368674555 0 0 -0.063429423251 0 0 0.053450100468 
0 0 0.14874939126 0 0 -0.053634962122 0 0 0.086614951487 
0 0 -0.058102738254 0 0 -0.069692826346 0 0 0.1195575179 
0 0 -0.018329067839 0 0 0.12155606743 0 0 -0.059015875749 
0 0 -0.074490990258 0 0 -0.071983182131 0 0 -0.62174918749 
0 0 -0.087599638624 0 0 -0.046652708302 0 0 -0.5567491875 
0 0 0.12120415364 0 0 0.12146768298 0 0 -0.045391507465 
0 0 -0.047852326129 0 0 0.13504115546 0 0 -0.06387200625 
0 0 0.14537792355 0 0 -0.62174918749 0 0 0.14835657764 
0 0 -0.045119181054 0 0 -0.062696468808 0 0 -0.034522677486 
0 0 -0.044373137201 0 0 0.13600443805 0 0 -0.050630681693 
0 0 0.044282793534 0 0 -0.061002323656 0 0 -0.050510658806 
0 0 -0.050328626307 0 0 0.17253094257 0 0 -0.038081213314 
0 0 -0.03306328755 0 0 -0.067247779961 0 0 -0.045976251662 
0 0 -0.046021233104 0 0 0.15365827098 0 0 -0.051072760317 
0 0 -0.044957519339 0 0 -0.07963539917 0 0 -0.024107098916 
0 0 -0.078967501777 0 0 -0.018203149944 0 0 -0.016575660638 
0 0 -0.069920120279 0 0 -0.5632491875 0 0 -0.025247802067 
0 0 -0.06837306176 0 0 -0.02700596714 0 0 0.15404834687 
0 0 -0.077546356775 0 0 0.078609573387 0 0 0.0021253553351 
0 0 -0.074608606535 0 0 0.14986047224 0 0 -0.01404118286 
0 0 0.14700647029 0 0 -0.071281623241 0 0 0.10485783733 
0 0 -0.032645025947 0 0 -0.079631145536 0 0 -0.081296799568 
0 0 -0.0075367301767 0 0 -0.013903284499 0 0 -0.070752476365 
0 0 0.065393550493 0 0 0.22105413992 0 0 0.11706855833 
0 0 -0.073781730852 0 0 -0.012087512154 0 0 -0.078175921422 
0 0 -0.023121458317 0 0 -0.034566281144 0 0 -0.006277968323 
0 0 -0.5664991875 0 0 -0.013975725187 0 0 -0.0098318640785 
0 0 -0.035143730487 0 0 -0.072326193966 0 0 0.050479265804 
0 0 0.066353891935 0 0 0.12969276559 0 0 -0.00010740526402 
0 0 0.090747198769 0 0 -0.013043119141 0 0 -0.07623046146 
0 0 -0.0037053448694 0 0 -0.077868114904 0 0 0.09526137709 
0 0 -0.013282986825 0 0 0.082809357459 0 0 -0.021870158756 
0 0 0.12264926587 0 0 -0.032209496967 0 0 -0.012389041986 
0 0 -0.5534991875 0 0 -0.055143629308 0 0 0.0093327730582 
0 0 0.046171986846 0 0 0.091544638326 0 0 0.0009618941072 
0 0 -0.039566112578 0 0 0.065510290954 0 0 0.05370345373 
0 0 0.0022057178787 0 0 0.073542789399 0 0 0.061520701439 
0 0 0.046310953751 0 0 0.075917110573 0 0 0.034067582551 
0 0 0.010791272864 0 0 0.079285635512 0 0 0.021314092239 
0 0 0.040886743979 0 0 -0.013546864997 0 0 0.028713147125 
0 0 0.094625666438 0 0 0.066215728209 0 0 0.0077217989597 
0 0 -0.052383575052 0 0 -0.00836537539 0 0 0.059784113578 
0 0 0.067389969967 0 0 0.059358651877 0 0 -0.065167251517 
0 0 -0.014681644113 0 0 0.06030432123 0 0 -0.053713382864 
0 0 0.093778639142 0 0 -0.06424850927 0 0 0.048728558058 
0 0 0.10198311028 0 0 -0.068912478619 0 0 0.090721151307 
0 0 -0.023550021679 0 0 0.01408573108 0 0 0.030956473196 
0 0 -0.064225057984 0 0 0.023701801965 0 0 0.013045683742 
0 0 -0.054343790985 0 0 -0.06470678279 0 0 0.01007782251 
0 0 0.036849469454 0 0 0.098026551068 0 0 0.039043553231 
0 0 0.038338709174 0 0 0.00059104274293 0 0 0.01354994523 
0 0 0.017270391582 0 0 -0.061387107149 0 0 0.040729791797 
0 0 -0.053485431404 0 0 0.09676311647 0 0 0.050987771473 
0 0 0.073974916098 0 0 0.020392104048 0 0 0.024593151488 
0 0 0.080988464799 0 0 0.027348070238 0 0 0.066416917199 
0 0 0.012451779892 0 0 0.06722006627 0 0 -0.050251982341 
0 0 0.10460849633 0 0 0.076780194812 0 0 0.016934869708 
0 0 0.058991603102 0 0 -0.050776452919 0 0 0.026877641409 
0 0 0.068837256076 0 0 0.029527748173 0 0 0.080095316595 
0 0 -0.058546357423 0 0 0.015291021646 0 0 0.055958066881 
0 0 -0.057686352906 0 0 0.0075744237575 0 0 0.012282086215 
0 0 -0.048392469672 0 0 0.024484007406 0 0 0.084929431138 
0 0 0.0081796375642 0 0 0.076447632015 0 0 0.07724559261 
0 0 0.034892640385 0 0 0.020670029751 0 0 0.055815608115 
0 0 0.012519004425 0 0 0.054170982088 0 0 0.05807007506 
0 0 -0.039468756597 0 0 -0.034453093409 0 0 -0.048503974862 
0 0 0.1267398737 0 0 0.12243599088 0 0 0.085242301217 
0 0 0.10214956595 0 0 -0.043503837904 0 0 0.058860630331 
0 0 -0.5632491875 0 0 0.10417235402 0 0 0.062016456636 
0 0 0.0041872738741 0 0 -0.040763485501 0 0 -0.055521644004 
0 0 -0.031580207651 0 0 -0.039144157565 0 0 0.091938250846 
0 0 0.11131277565 0 0 -0.065569144381 0 0 0.12298265393 
0 0 -0.045683900646 0 0 -0.041645740198 0 0 0.096656956281 
0 0 -4.7830296923e-06 0 0 0.052914113122 0 0 -0.053326881292 
0 0 0.061693046318 0 0 0.086751272487 0 0 0.048103747606 
0 0 0.057343879534 0 0 -0.028507297497 0 0 -0.026320058347 
0 0 -0.039375893961 0 0 -0.020821758431 0 0 -0.035454434962 
0 0 -0.047279143406 0 0 -0.048686621757 0 0 0.029593303994 
0 0 -0.031752340556 0 0 0.029721983854 0 0 0.0099108459266 
0 0 0.048648614839 0 0 0.067095478432 0 0 0.01550715508 
0 0 0.11343735965 0 0 0.0021696777797 0 0 0.13850396508 
0 0 -0.0035716348683 0 0 0.096821251335 0 0 0.018460975162 
0 0 0.013912642229 0 0 -0.0002459754383 0 0 0.10791965647 
0 0 0.1241990027 0 0 0.09036365276 0 0 -0.010055837262 
0 0 0.11339133461 0 0 -0.0042875660961 0 0 -0.0061589798404 
0 0 0.074390150294 0 0 -0.5567491875 0 0 0.10309234953 
0 0 0.0088713742122 0 0 0.12014907191 0 0 0.084175319371 
0 0 0.11555118535 0 0 -0.00265946601 0 0 0.0022052799344 
0 0 0.10496782182 0 0 0.12796808977 0 0 -0.016468770859 
0 0 0.098948869986 0 0 0.10993137891 0 0 0.15093890482 
0 0 0.0078744623428 0 0 -0.026197008413 0 0 0.11278431795 
0 0 0.084988498822 0 0 -0.0098542100319 0 0 -0.010272003016 
0 0 0.083164908569 0 0 0.10917091095 0 0 0.10218351482 
0 0 -0.012644501934 0 0 0.11610226065 0 0 0.09931966802 
0 0 0.0074744859498 0 0 0.11794985498 0 0 -0.017903009497 
0 0 -0.00930002527 0 0 0.12008682451 0 0 -0.048419243135 
0 0 0.13728134508 0 0 -0.010698900821 0 0 -0.5794991875 
0 0 -0.62824918749 0 0 0.11470487951 0 0 0.10067359327 
0 0 0.015174365542 0 0 0.11599843547 0 0 -0.0012257757993 
0 0 0.10668370073 0 0 0.10007088516 0 0 0.0028148571056 
0 0 0.1069691891 0 0 -0.017772535111 0 0 0.088194281559 
0 0 -0.0013960698926 0 0 -0.0006502357006 0 0 0.095519488951 
0 0 0.086558622281 0 0 0.081936722759 0 0 0.12512771301 
0 0 0.017927032139 0 0 0.098801092934 0 0 0.10503093359 
0 0 0.087571446961 0 0 0.10772294269 0 0 0.1160930978 
0 0 0.10983539598 0 0 0.11865023014 0 0 0.10510442358 
0 0 -0.018350205032 0 0 0.067478633907 0 0 -0.010169396467 
0 0 0.021661436713 0 0 0.0085480851758 0 0 0.099926970095 
0 0 0.11712066995 0 0 0.11486810429 0 0 -0.019157034399 
0 0 -0.0041728114466 0 0 -0.018137125312 0 0 0.10370403403 
0 0 0.1426745455 0 0 0.095274060163 0 0 0.12307141767 
0 0 0.12418510339 0 0 0.10832628041 0 0 0.12674055303 
0 0 0.010091470044 0 0 -0.01633193911 0 0 -0.019926470873 
0 0 0.1286644721 0 0 -0.01037832335 0 0 0.10192856447 
0 0 0.12893811428 0 0 -0.017494009881 0 0 0.02418515857 
0 0 -0.0015007430656 0 0 0.081500292958 0 0 0.12478608082 
0 0 0.15462966104 0 0 0.061651133342 0 0 0.028189343041 
0 0 0.065907903947 0 0 0.044773332822 0 0 0.084507710959 
0 0 0.068796722165 0 0 0.053585038608 0 0 0.015356750814 
0 0 0.097289952664 0 0 0.00070539686858 0 0 0.094047014818 
0 0 0.001675850025 0 0 0.050207695178 0 0 0.018796819227 
0 0 0.056743905421 0 0 0.11143119727 0 0 0.06798283405 
0 0 0.032697737445 0 0 0.056495971871 0 0 0.12807547774 
0 0 0.05495764348 0 0 0.035445960367 0 0 0.074074849481 
0 0 0.018886008232 0 0 0.0798849779 0 0 0.059571218908 
0 0 0.069902038579 0 0 0.057342606125 0 0 0.024280930764 
0 0 0.057082265131 0 0 0.059124663204 0 0 0.052658354614 
0 0 0.066610479199 0 0 0.066997971584 0 0 0.031668001321 
0 0 0.088126486542 0 0 0.059161014577 0 0 0.049437081465 
0 0 0.01395223559 0 0 0.055239291416 0 0 0.042230413492 
0 0 0.072023379886 0 0 0.027154181904 0 0 0.044458249374 
0 0 0.072212501302 0 0 0.09415705362 0 0 0.059191208192 
0 0 0.030310925891 0 0 0.051023787821 0 0 0.016199464101 
0 0 0.15124085941 0 0 0.038238510242 0 0 0.02688987987 
0 0 0.078582989658 0 0 0.051086509888 0 0 0.066888034858 
0 0 0.059595494014 0 0 0.054509967771 0 0 0.044157068178 
0 0 0.0726175969 0 0 0.040905051314 0 0 0.063408689747 
0 0 0.055358973104 0 0 0.063958087868 0 0 0.056830231142 
0 0 0.029124165259 0 0 0.11149566114 0 0 0.050611090872 
0 0 0.09182925621 0 0 0.015703106636 0 0 0.082979453069 
0 0 0.10991618588 0 0 0.04938929975 0 0 0.07147378792 
0 0 0.072020902 0 0 0.032577659134 0 0 0.01109689267 
0 0 0.034260960755 0 0 0.071171647332 0 0 0.085003510313 
0 0 0.059391074395 0 0 0.091450159567 0 0 0.092922585433 
0 0 0.089876169186 0 0 0.022365816877 0 0 0.00025089377563 
0 0 0.0071151292186 0 0 0.0345903253 0 0 0.053447916962 
0 0 0.049016611681 0 0 0.020059830746 0 0 0.057271843845 
0 0 0.041705892551 0 0 0.075391376806 0 0 0.028944927575 
0 0 0.011361955803 0 0 0.019865302884 0 0 0.016914857378 
0 0 0.012159195768 0 0 -0.5632491875 0 0 0.081604866611 
0 0 0.048342854575 0 0 0.05352696755 0 0 0.080355541667 
0 0 0.060168801669 0 0 0.051521284937 0 0 0.004499102049 
0 0 -0.031693619304 0 0 -0.045691486836 0 0 0.049006118423 
0 0 0.025723766189 0 0 0.070571142767 0 0 0.011398322177 
0 0 0.0852904619 0 0 0.025629009077 0 0 0.035553485051 
0 0 -0.0016985473942 0 0 0.065544241068 0 0 0.05347126591 
0 0 0.092853207205 0 0 0.089277975991 0 0 0.0712794822 
0 0 0.062930019001 0 0 0.03382425336 0 0 0.075767486388 
0 0 0.068576181367 0 0 0.087701145812 0 0 0.022757545867 
0 0 0.048870761823 0 0 0.066397772055 0 0 0.060322631488 
0 0 0.044710652882 0 0 0.030668267907 0 0 0.033476663259 
0 0 0.062522246885 0 0 0.0096073761371 0 0 0.023608571484 
0 0 -0.0050847866112 0 0 0.083442757494 0 0 0.037538483717 
0 0 0.045754100652 0 0 -0.01600434997 0 0 0.014522539752 
0 0 0.11320117388 0 0 0.07766563999 0 0 0.082224228357 
0 0 0.11904840314 0 0 0.071038615742 0 0 -0.019172768368 
0 0 0.14274267595 0 0 -0.5762491875 0 0 0.12084159217 
0 0 -0.5827491875 0 0 -0.0017273631134 0 0 0.1220341462 
0 0 -0.5892491875 0 0 0.03060758077 0 0 0.052674264426 
0 0 -0.61199918749 0 0 -0.60874918749 0 0 -0.61199918749 
0 0 0.051944465046 0 0 -0.5632491875 0 0 -0.5794991875 
0 0 -0.5859991875 0 0 -0.5502491875 0 0 -0.5502491875 
0 0 -0.5599991875 0 0 0.17200495422 0 0 -0.5859991875 
0 0 -0.5502491875 0 0 -0.5664991875 0 0 -0.5632491875 
0 0 -0.5502491875 0 0 -0.5502491875 0 0 -0.5599991875 
0 0 -0.5567491875 0 0 -0.5632491875 0 0 -0.5664991875 
0 0 -0.5534991875 0 0 -0.5534991875 0 0 -0.5502491875 

f 3 648 double
0 0 -1.7425367252e-10 0 0 -1.7425367252e-10 0 0 -1.7425367252e-10 
0 0 -1.7425367252e-10 0 0 -1.7425367252e-10 0 0 -1.7425367252e-10 
0 0 -1.7425367252e-10 0 0 -1.7425367252e-10 0 0 -1.7425367252e-10 
0 0 -1.7425367252e-10 0 0 -1.7425367252e-10 0 0 -1.7425367252e-10 
0 0 -1.7425367252e-10 0 0 -1.7425367252e-10 0 0 -1.7425367252e-10 
0 0 -1.7425367252e-10 0 0 -1.7425367252e-10 0 0 -1.7425367252e-10 
0 0 -1.7425367252e-10 0 0 -1.7425367252e-10 0 0 -1.7425367252e-10 
0 0 -1.7425367252e-10 0 0 -1.7425367252e-10 0 0 -1.7425367252e-10 
0 0 -1.7425367252e-10 0 0 -1.7425367252e-10 0 0 -1.7425367252e-10 
0 0 -1.7425367252e-10 0 0 -1.7425367252e-10 0 0 -1.7425367252e-10 
0 0 -1.7425367252e-10 0 0 -1.7425367252e-10 0 0 -1.7425367252e-10 
0 0 -1.7425367252e-10 0 0 -1.7425367252e-10 0 0 -1.7425367252e-10 
0 0 -1.7425367252e-10 0 0 -1.7425367252e-10 0 0 -1.7425367252e-10 
0 0 -1.7425367252e-10 0 0 -1.7425367252e-10 0 0 -1.7425367252e-10 
0 0 -1.7425367252e-10 0 0 -1.7425367252e-10 0 0 -1.7425367252e-10 
0 0 -1.7425367252e-10 0 0 -1.7425367252e-10 0 0 -1.7425367252e-10 
0 0 -1.7425367252e-10 0 0 -1.7425367252e-10 0 0 -1.7425367252e-10 
0 0 -1.7425367252e-10 0 0 -1.7425367252e-10 0 0 -1.7425367252e-10 
0 0 -1.7425367252e-10 0 0 -1.7425367252e-10 0 0 -1.7425367252e-10 
0 0 -1.7425367252e-10 0 0 -1.7425367252e-10 0 0 -1.7425367252e-10 
0 0 -1.7425367252e-10 0 0 -1.7425367252e-10 0 0 -1.7425367252e-10 
0 0 -1.7425367252e-10 0 0 -1.7425367252e-10 0 0 -1.7425367252e-10 
0 0 -1.7425367252e-10 0 0 -1.7425367252e-10 0 0 -1.7425367252e-10 
0 0 -1.7425367252e-10 0 0 -1.7425367252e-10 0 0 -1.7425367252e-10 
0 0 -1.7425367252e-10 0 0 -1.7425367252e-10 0 0 -1.7425367252e-10 
0 0 -1.7425367252e-10 0 0 -1.7425367252e-10 0 0 -1.7425367252e-10 
0 0 -1.7425367252e-10 0 0 -1.7425367252e-10 0 0 -1.7425367252e-10 
0 0 -1.7425367252e-10 0 0 -1.7425367252e-10 0 0 -1.7425367252e-10 
0 0 -1.7425367252e-10 0 0 -1.7425367252e-10 0 0 -1.7425367252e-10 
0 0 -1.7425367252e-10 0 0 -1.7425367252e-10 0 0 -1.7425367252e-10 
0 0 -1.7425367252e-10 0 0 -1.7425367252e-10 0 0 -1.7425367252e-10 
0 0 -1.7425367252e-10 0 0 -1.7425367252e-10 0 0 -1.7425367252e-10 
0 0 -1.7425367252e-10 0 0 -1.7425367252e-10 0 0 -1.7425367252e-10 
0 0 -1.7425367252e-10 0 0 -1.7425367252e-10 0 0 -1.7425367252e-10 
0 0 -1.7425367252e-10 0 0 -1.7425367252e-10 0 0 -1.7425367252e-10 
0 0 -1.7425367252e-10 0 0 -1.7425367252e-10 0 0 -1.7425367252e-10 
0 0 -1.7425367252e-10 0 0 -1.7425367252e-10 0 0 -1.7425367252e-10 
0 0 -1.7425367252e-10 0 0 -1.7425367252e-10 0 0 -1.7425367252e-10 
0 0 -1.7425367252e-10 0 0 -1.7425367252e-10 0 0 -1.7425367252e-10 
0 0 -1.7425367252e-10 0 0 -1.7425367252e-10 0 0 -1.7425367252e-10 
0 0 -1.7425367252e-10 0 0 -1.7425367252e-10 0 0 -1.7425367252e-10 
0 0 -1.7425367252e-10 0 0 -1.7425367252e-10 0 0 -1.7425367252e-10 
0 0 -1.7425367252e-10 0 0 -1.7425367252e-10 0 0 -1.7425367252e-10 
0 0 -1.7425367252e-10 0 0 -1.7425367252e-10 0 0 -1.7425367252e-10 
0 0 -1.7425367252e-10 0 0 -1.7425367252e-10 0 0 -1.7425367252e-10 
0 0 -1.7425367252e-10 0 0 -1.7425367252e-10 0 0 -1.7425367252e-10 
0 0 -1.7425367252e-10 0 0 -1.7425367252e-10 0 0 -1.7425367252e-10 
0 0 -1.7425367252e-10 0 0 -1.7425367252e-10 0 0 -1.7425367252e-10 
0 0 -1.7425367252e-10 0 0 -1.7425367252e-10 0 0 -1.7425367252e-10 
0 0 -1.7425367252e-10 0 0 -1.7425367252e-10 0 0 -1.7425367252e-10 
0 0 -1.7425367252e-10 0 0 -1.7425367252e-10 0 0 -1.7425367252e-10 
0 0 -1.7425367252e-10 0 0 -1.7425367252e-10 0 0 -1.7425367252e-10 
0 0 -1.7425367252e-10 0 0 -1.7425367252e-10 0 0 -1.7425367252e-10 
0 0 -1.7425367252e-10 0 0 -1.7425367252e-10 0 0 -1.7425367252e-10 
0 0 -1.7425367252e-10 0 0 -1.7425367252e-10 0 0 -1.7425367252e-10 
0 0 -1.7425367252e-10 0 0 -1.7425367252e-10 0 0 -1.7425367252e-10 
0 0 -1.7425367252e-10 0 0 -1.7425367252e-10 0 0 -1.7425367252e-10 
0 0 -1.7425367252e-10 0 0 -1.7425367252e-10 0 0 -1.7425367252e-10 
0 0 -1.7425367252e-10 0 0 -1.7425367252e-10 0 0 -1.7425367252e-10 
0 0 -1.7425367252e-10 0 0 -1.7425367252e-10 0 0 -1.7425367252e-10 
0 0 -1.7425367252e-10 0 0 -1.7425367252e-10 0 0 -1.7425367252e-10 
0 0 -1.7425367252e-10 0 0 -1.7425367252e-10 0 0 -1.7425367252e-10 
0 0 -1.7425367252e-10 0 0 -8.9019973083e-09 0 0 -1.7425367252e-10 
0 0 -1.7425367252e-10 0 0 -1.7425367252e-10 0 0 -1.7425367252e-10 
0 0 -1.7425367252e-10 0 0 -1.7425367252e-10 0 0 -1.7425367252e-10 
0 0 -1.7425367252e-10 0 0 -1.7425367252e-10 0 0 -1.7425367252e-10 
0 0 -1.7425367252e-10 0 0 -1.7425367252e-10 0 0 -1.7425367252e-10 
0 0 -1.7425367252e-10 0 0 -1.7425367252e-10 0 0 -1.7425367252e-10 
0 0 -1.7425367252e-10 0 0 -1.7425367252e-10 0 0 -1.7425367252e-10 
0 0 -1.7425367252e-10 0 0 -1.7425367252e-10 0 0 -1.7425367252e-10 
0 0 -1.7425367252e-10 0 0 -1.7425367252e-10 0 0 -1.7425367252e-10 
0 0 -1.7425367252e-10 0 0 -1.7425367252e-10 0 0 -1.7425367252e-10 
0 0 -1.7425367252e-10 0 0 -1.7425367252e-10 0 0 -1.7425367252e-10 
0 0 -1.7425367252e-10 0 0 -1.7425367252e-10 0 0 -1.7425367252e-10 
0 0 -1.7425367252e-10 0 0 -1.7425367252e-10 0 0 -1.7425367252e-10 
0 0 -1.7425367252e-10 0 0 -1.7425367252e-10 0 0 -1.7425367252e-10 
0 0 -1.7425367252e-10 0 0 -1.7425367252e-10 0 0 -1.7425367252e-10 
0 0 -1.7425367252e-10 0 0 -1.7425367252e-10 0 0 -1.7425367252e-10 
0 0 -1.7425367252e-10 0 0 -1.7425367252e-10 0 0 -1.7425367252e-10 
0 0 -1.7425367252e-10 0 0 -1.7425367252e-10 0 0 -1.7425367252e-10 
0 0 -1.7425367252e-10 0 0 -1.7425367252e-10 0 0 -1.7425367252e-10 
0 0 -1.7425367252e-10 0 0 -1.7425367252e-10 0 0 -1.7425367252e-10 
0 0 -1.7425367252e-10 0 0 -1.7425367252e-10 0 0 -1.7425367252e-10 
0 0 -1.7425367252e-10 0 0 -1.7425367252e-10 0 0 -1.7425367252e-10 
0 0 -1.7425367252e-10 0 0 -1.7425367252e-10 0 0 -1.7425367252e-10 
0 0 -1.7425367252e-10 0 0 -1.7425367252e-10 0 0 -1.7425367252e-10 
0 0 -1.7425367252e-10 0 0 -1.7425367252e-10 0 0 -1.7425367252e-10 
0 0 -1.7425367252e-10 0 0 -1.7425367252e-10 0 0 -1.7425367252e-10 
0 0 -1.7425367252e-10 0 0 -1.7425367252e-10 0 0 -1.7425367252e-10 
0 0 -1.7425367252e-10 0 0 -1.7425367252e-10 0 0 -1.7425367252e-10 
0 0 -1.7425367252e-10 0 0 -1.7425367252e-10 0 0 -1.7425367252e-10 
0 0 -1.7425367252e-10 0 0 -1.7425367252e-10 0 0 -1.7425367252e-10 
0 0 -1.7425367252e-10 0 0 -1.7425367252e-10 0 0 -1.7425367252e-10 
0 0 -1.7425367252e-10 0 0 -1.7425367252e-10 0 0 -1.7425367252e-10 
0 0 -1.7425367252e-10 0 0 -1.7425367252e-10 0 0 -1.7425367252e-10 
0 0 -1.7425367252e-10 0 0 -1.7425367252e-10 0 0 -1.7425367252e-10 
0 0 -1.7425367252e-10 0 0 -1.7425367252e-10 0 0 -1.7425367252e-10 
0 0 -1.7425367252e-10 0 0 -1.7425367252e-10 0 0 -1.7425367252e-10 
0 0 -1.7425367252e-10 0 0 -1.7425367252e-10 0 0 -1.7425367252e-10 
0 0 -1.7425367252e-10 0 0 -1.7425367252e-10 0 0 -1.7425367252e-10 
0 0 -1.7425367252e-10 0 0 -1.7425367252e-10 0 0 -1.7425367252e-10 
0 0 -1.7425367252e-10 0 0 -1.7425367252e-10 0 0 -1.7425367252e-10 
0 0 -1.7425367252e-10 0 0 -1.7425367252e-10 0 0 -1.7425367252e-10 
0 0 -1.7425367252e-10 0 0 -1.7425367252e-10 0 0 -1.7425367252e-10 
0 0 -1.7425367252e-10 0 0 -1.7425367252e-10 0 0 -1.7425367252e-10 
0 0 -1.7425367252e-10 0 0 -1.7425367252e-10 0 0 -1.7425367252e-10 
0 0 -1.7425367252e-10 0 0 -1.7425367252e-10 0 0 -1.7425367252e-10 
0 0 -1.7425367252e-10 0 0 -1.7425367252e-10 0 0 -1.7425367252e-10 
0 0 -1.7425367252e-10 0 0 -1.7425367252e-10 0 0 -1.7425367252e-10 
0 0 -1.7425367252e-10 0 0 -1.7425367252e-10 0 0 -1.7425367252e-10 
0 0 -1.7425367252e-10 0 0 -8.9019973083e-09 0 0 -1.7425367252e-10 
0 0 -1.7425367252e-10 0 0 -1.7425367252e-10 0 0 -1.7425367252e-10 
0 0 -1.7425367252e-10 0 0 -1.7425367252e-10 0 0 -1.7425367252e-10 
0 0 -1.7425367252e-10 0 0 -1.7425367252e-10 0 0 -1.7425367252e-10 
0 0 -1.7425367252e-10 0 0 -1.7425367252e-10 0 0 -1.7425367252e-10 
0 0 -1.7425367252e-10 0 0 -1.7425367252e-10 0 0 -1.7425367252e-10 
0 0 -1.7425367252e-10 0 0 -1.7425367252e-10 0 0 -1.7425367252e-10 
0 0 -1.7425367252e-10 0 0 -1.7425367252e-10 0 0 -1.7425367252e-10 
0 0 -1.7425367252e-10 0 0 -1.7425367252e-10 0 0 -1.7425367252e-10 
0 0 -1.7425367252e-10 0 0 -1.7425367252e-10 0 0 -1.7425367252e-10 
0 0 -1.7425367252e-10 0 0 -1.7425367252e-10 0 0 -1.7425367252e-10 
0 0 -1.7425367252e-10 0 0 -1.7425367252e-10 0 0 -1.7425367252e-10 
0 0 -1.7425367252e-10 0 0 -1.7425367252e-10 0 0 -1.7425367252e-10 
0 0 -1.7425367252e-10 0 0 -1.7425367252e-10 0 0 -1.7425367252e-10 
0 0 -1.7425367252e-10 0 0 -8.9019973083e-09 0 0 -1.7425367252e-10 
0 0 -1.7425367252e-10 0 0 -1.7425367252e-10 0 0 -1.7425367252e-10 
0 0 -1.7425367252e-10 0 0 -1.7425367252e-10 0 0 -1.7425367252e-10 
0 0 -1.7425367252e-10 0 0 -1.7425367252e-10 0 0 -1.7425367252e-10 
0 0 -1.7425367252e-10 0 0 -1.7425367252e-10 0 0 -8.9019973083e-09 
0 0 -1.7425367252e-10 0 0 -1.7425367252e-10 0 0 -1.7425367252e-10 
0 0 -1.7425367252e-10 0 0 -1.7425367252e-10 0 0 -1.7425367252e-10 
0 0 -1.7425367252e-10 0 0 -1.7425367252e-10 0 0 -1.7425367252e-10 
0 0 -1.7425367252e-10 0 0 -1.7425367252e-10 0 0 -1.7425367252e-10 
0 0 -1.7425367252e-10 0 0 -1.7425367252e-10 0 0 -1.7425367252e-10 
0 0 -1.7425367252e-10 0 0 -1.7425367252e-10 0 0 -8.9019973083e-09 
0 0 -1.7425367252e-10 0 0 -1.7425367252e-10 0 0 -1.7425367252e-10 
0 0 -1.7425367252e-10 0 0 -1.7425367252e-10 0 0 -1.7425367252e-10 
0 0 -1.7425367252e-10 0 0 -1.7425367252e-10 0 0 -1.7425367252e-10 
0 0 -1.7425367252e-10 0 0 -1.7425367252e-10 0 0 -1.7425367252e-10 
0 0 -1.7425367252e-10 0 0 -1.7425367252e-10 0 0 -1.7425367252e-10 
0 0 -1.7425367252e-10 0 0 -1.7425367252e-10 0 0 -1.7425367252e-10 
0 0 -1.7425367252e-10 0 0 -1.7425367252e-10 0 0 -1.7425367252e-10 
0 0 -1.7425367252e-10 0 0 -1.7425367252e-10 0 0 -1.7425367252e-10 
0 0 -1.7425367252e-10 0 0 -1.7425367252e-10 0 0 -1.7425367252e-10 
0 0 -1.7425367252e-10 0 0 -1.7425367252e-10 0 0 -1.7425367252e-10 
0 0 -1.7425367252e-10 0 0 -1.7425367252e-10 0 0 -1.7425367252e-10 
0 0 -1.7425367252e-10 0 0 -1.7425367252e-10 0 0 -1.7425367252e-10 
0 0 -1.7425367252e-10 0 0 -1.7425367252e-10 0 0 -1.7425367252e-10 
0 0 -1.7425367252e-10 0 0 -1.7425367252e-10 0 0 -1.7425367252e-10 
0 0 -1.7425367252e-10 0 0 -1.7425367252e-10 0 0 -1.7425367252e-10 
0 0 -1.7425367252e-10 0 0 -1.7425367252e-10 0 0 -1.7425367252e-10 
0 0 -1.7425367252e-10 0 0 -1.7425367252e-10 0 0 -1.7425367252e-10 
0 0 -1.7425367252e-10 0 0 -1.7425367252e-10 0 0 -1.7425367252e-10 
0 0 -1.7425367252e-10 0 0 -1.7425367252e-10 0 0 -1.7425367252e-10 
0 0 -1.7425367252e-10 0 0 -1.7425367252e-10 0 0 -1.7425367252e-10 
0 0 -1.7425367252e-10 0 0 -1.7425367252e-10 0 0 -1.7425367252e-10 
0 0 -1.7425367252e-10 0 0 -1.7425367252e-10 0 0 -1.7425367252e-10 
0 0 -1.7425367252e-10 0 0 -1.7425367252e-10 0 0 -1.7425367252e-10 
0 0 -1.7425367252e-10 0 0 -1.7425367252e-10 0 0 -1.7425367252e-10 
0 0 -1.7425367252e-10 0 0 -1.7425367252e-10 0 0 -1.7425367252e-10 
0 0 -1.7425367252e-10 0 0 -1.7425367252e-10 0 0 -1.7425367252e-10 
0 0 -1.7425367252e-10 0 0 -1.7425367252e-10 0 0 -1.7425367252e-10 
0 0 -1.7425367252e-10 0 0 -1.7425367252e-10 0 0 -1.7425367252e-10 
0 0 -1.7425367252e-10 0 0 -1.7425367252e-10 0 0 -1.7425367252e-10 
0 0 -1.7425367252e-10 0 0 -1.7425367252e-10 0 0 -1.7425367252e-10 
0 0 -1.7425367252e-10 0 0 -1.7425367252e-10 0 0 -1.7425367252e-10 
0 0 -1.7425367252e-10 0 0 -1.7425367252e-10 0 0 -1.7425367252e-10 
0 0 -1.7425367252e-10 0 0 -1.7425367252e-10 0 0 -1.7425367252e-10 
0 0 -1.7425367252e-10 0 0 -1.7425367252e-10 0 0 -1.7425367252e-10 
0 0 -1.7425367252e-10 0 0 -1.7425367252e-10 0 0 -1.7425367252e-10 
0 0 -1.7425367252e-10 0 0 -1.7425367252e-10 0 0 -1.7425367252e-10 
0 0 -1.7425367252e-10 0 0 -1.7425367252e-10 0 0 -1.7425367252e-10 
0 0 -1.7425367252e-10 0 0 -1.7425367252e-10 0 0 -1.7425367252e-10 
0 0 -1.7425367252e-10 0 0 -1.7425367252e-10 0 0 -1.7425367252e-10 
0 0 -1.7425367252e-10 0 0 -1.7425367252e-10 0 0 -1.7425367252e-10 
0 0 -1.7425367252e-10 0 0 -1.7425367252e-10 0 0 -1.7425367252e-10 
0 0 -1.7425367252e-10 0 0 -1.7425367252e-10 0 0 -1.7425367252e-10 
0 0 -1.7425367252e-10 0 0 -1.7425367252e-10 0 0 -1.7425367252e-10 
0 0 -1.7425367252e-10 0 0 -1.7425367252e-10 0 0 -1.7425367252e-10 
0 0 -1.7425367252e-10 0 0 -1.7425367252e-10 0 0 -1.7425367252e-10 
0 0 -1.7425367252e-10 0 0 -1.7425367252e-10 0 0 -1.7425367252e-10 
0 0 -1.7425367252e-10 0 0 -1.7425367252e-10 0 0 -1.7425367252e-10 
0 0 -1.7425367252e-10 0 0 -1.7425367252e-10 0 0 -1.7425367252e-10 
0 0 -1.7425367252e-10 0 0 -1.7425367252e-10 0 0 -1.7425367252e-10 
0 0 -1.7425367252e-10 0 0 -1.7425367252e-10 0 0 -1.7425367252e-10 
0 0 -1.7425367252e-10 0 0 -1.7425367252e-10 0 0 -1.7425367252e-10 
0 0 -1.7425367252e-10 0 0 -1.7425367252e-10 0 0 -1.7425367252e-10 
0 0 -1.7425367252e-10 0 0 -1.7425367252e-10 0 0 -1.7425367252e-10 
0 0 -1.7425367252e-10 0 0 -1.7425367252e-10 0 0 -1.7425367252e-10 
0 0 -1.7425367252e-10 0 0 -1.7425367252e-10 0 0 -1.7425367252e-10 
0 0 -1.7425367252e-10 0 0 -1.7425367252e-10 0 0 -1.7425367252e-10 
0 0 -8.9019973083e-09 0 0 -8.9019973083e-09 0 0 -1.7425367252e-10 
0 0 -1.7425367252e-10 0 0 -1.7425367252e-10 0 0 -1.7425367252e-10 
0 0 -1.7425367252e-10 0 0 -1.7425367252e-10 0 0 -1.7425367252e-10 
0 0 -1.7425367252e-10 0 0 -1.7425367252e-10 0 0 -1.7425367252e-10 
0 0 -1.7425367252e-10 0 0 -1.7425367252e-10 0 0 -1.7425367252e-10 
0 0 -1.7425367252e-10 0 0 -1.7425367252e-10 0 0 -1.7425367252e-10 
0 0 -1.7425367252e-10 0 0 -1.7425367252e-10 0 0 -1.7425367252e-10 
0 0 -1.7425367252e-10 0 0 -1.7425367252e-10 0 0 -1.7425367252e-10 
0 0 -1.7425367252e-10 0 0 -1.7425367252e-10 0 0 -1.7425367252e-10 
0 0 -1.7425367252e-10 0 0 -8.9019973083e-09 0 0 -1.7425367252e-10 
0 0 -8.9019973083e-09 0 0 -1.7425367252e-10 0 0 -1.7425367252e-10 
0 0 -1.7425367252e-10 0 0 -8.9019973083e-09 0 0 -8.9019973083e-09 
0 0 -1.7425367252e-10 0 0 -1.7425367252e-10 0 0 -1.7425367252e-10 
0 0 -1.7425367252e-10 0 0 -1.7425367252e-10 0 0 -8.9019973083e-09 
0 0 -1.7425367252e-10 0 0 -1.7425367252e-10 0 0 -8.9019973083e-09 
0 0 -1.7425367252e-10 0 0 -8.9019973083e-09 0 0 -8.9019973083e-09 
0 0 -1.7425367252e-10 0 0 -8.9019973083e-09 0 0 -8.9019973083e-09 
0 0 -1.7425367252e-10 0 0 -1.7425367252e-10 0 0 -1.7425367252e-10 
0 0 -6.8918688838e-08 0 0 -1.7425367252e-10 0 0 -1.7425367252e-10 
0 0 -1.7425367252e-10 0 0 -1.7425367252e-10 0 0 -1.7425367252e-10 
0 0 -1.7425367252e-10 0 0 -5.3297119368e-07 0 0 -1.7425367252e-10 
0 0 -1.7425367252e-10 0 0 -1.7425367252e-10 0 0 -1.7425367252e-10 
0 0 -1.7425367252e-10 0 0 -1.7425367252e-10 0 0 -1.7425367252e-10 
0 0 -1.7425367252e-10 0 0 -1.7425367252e-10 0 0 -1.7425367252e-10 
0 0 -1.7425367252e-10 0 0 -1.7425367252e-10 0 0 -1.7425367252e-10 

radius 1 648 double
2e-05 2e-05 2e-05 2e-05 2e-05 2e-05 2e-05 2e-05 2e-05 
2e-05 2e-05 2e-05 2e-05 2e-05 2e-05 2e-05 2e-05 2e-05 
2e-05 2e-05 2e-05 2e-05 2e-05 2e-05 2e-05 2e-05 2e-05 
2e-05 2e-05 2e-05 2e-05 2e-05 2e-05 2e-05 2e-05 2e-05 
2e-05 2e-05 2e-05 2e-05 2e-05 2e-05 2e-05 2e-05 2e-05 
2e-05 2e-05 2e-05 2e-05 2e-05 2e-05 2e-05 2e-05 2e-05 
2e-05 2e-05 2e-05 2e-05 2e-05 2e-05 2e-05 2e-05 2e-05 
2e-05 2e-05 2e-05 2e-05 2e-05 2e-05 2e-05 2e-05 2e-05 
2e-05 2e-05 2e-05 2e-05 2e-05 2e-05 2e-05 2e-05 2e-05 
2e-05 2e-05 2e-05 2e-05 2e-05 2e-05 2e-05 2e-05 2e-05 
2e-05 2e-05 2e-05 2e-05 2e-05 2e-05 2e-05 2e-05 2e-05 
2e-05 2e-05 2e-05 2e-05 2e-05 2e-05 2e-05 2e-05 2e-05 
2e-05 2e-05 2e-05 2e-05 2e-05 2e-05 2e-05 2e-05 2e-05 
2e-05 2e-05 2e-05 2e-05 2e-05 2e-05 2e-05 2e-05 2e-05 
2e-05 2e-05 2e-05 2e-05 2e-05 2e-05 2e-05 2e-05 2e-05 
2e-05 2e-05 2e-05 2e-05 2e-05 2e-05 2e-05 2e-05 2e-05 
2e-05 2e-05 2e-05 2e-05 2e-05 2e-05 2e-05 2e-05 2e-05 
2e-05 2e-05 2e-05 2e-05 2e-05 2e-05 2e-05 2e-05 2e-05 
2e-05 2e-05 2e-05 2e-05 2e-05 2e-05 2e-05 2e-05 2e-05 
2e-05 2e-05 2e-05 2e-05 2e-05 2e-05 2e-05 2e-05 2e-05 
2e-05 2e-05 2e-05 2e-05 2e-05 2e-05 2e-05 7.5e-05 2e-05 
2e-05 2e-05 2e-05 2e-05 2e-05 2e-05 2e-05 2e-05 2e-05 
2e-05 2e-05 2e-05 2e-05 2e-05 2e-05 2e-05 2e-05 2e-05 
2e-05 2e-05 2e-05 2e-05 2e-05 2e-05 2e-05 2e-05 2e-05 
2e-05 2e-05 2e-05 2e-05 2e-05 2e-05 2e-05 2e-05 2e-05 
2e-05 2e-05 2e-05 2e-05 2e-05 2e-05 2e-05 2e-05 2e-05 
2e-05 2e-05 2e-05 2e-05 2e-05 2e-05 2e-05 2e-05 2e-05 
2e-05 2e-05 2e-05 2e-05 2e-05 2e-05 2e-05 2e-05 2e-05 
2e-05 2e-05 2e-05 2e-05 2e-05 2e-05 2e-05 2e-05 2e-05 
2e-05 2e-05 2e-05 2e-05 2e-05 2e-05 2e-05 2e-05 2e-05 
2e-05 2e-05 2e-05 2e-05 2e-05 2e-05 2e-05 2e-05 2e-05 
2e-05 2e-05 2e-05 2e-05 2e-05 2e-05 2e-05 2e-05 2e-05 
2e-05 2e-05 2e-05 2e-05 2e-05 2e-05 2e-05 2e-05 2e-05 
2e-05 2e-05 2e-05 2e-05 2e-05 2e-05 2e-05 2e-05 2e-05 
2e-05 2e-05 2e-05 2e-05 2e-05 2e-05 2e-05 2e-05 2e-05 
2e-05 2e-05 2e-05 2e-05 2e-05 2e-05 2e-05 2e-05 2e-05 
2e-05 2e-05 2e-05 2e-05 2e-05 2e-05 2e-05 7.5e-05 2e-05 
2e-05 2e-05 2e-05 2e-05 2e-05 2e-05 2e-05 2e-05 2e-05 
2e-05 2e-05 2e-05 2e-05 2e-05 2e-05 2e-05 2e-05 2e-05 
2e-05 2e-05 2e-05 2e-05 2e-05 2e-05 2e-05 2e-05 2e-05 
2e-05 2e-05 2e-05 2e-05 2e-05 2e-05 2e-05 2e-05 2e-05 
2e-05 2e-05 2e-05 2e-05 7.5e-05 2e-05 2e-05 2e-05 2e-05 
2e-05 2e-05 2e-05 2e-05 2e-05 2e-05 2e-05 2e-05 7.5e-05 
2e-05 2e-05 2e-05 2e-05 2e-05 2e-05 2e-05 2e-05 2e-05 
2e-05 2e-05 2e-05 2e-05 2e-05 2e-05 2e-05 2e-05 7.5e-05 
2e-05 2e-05 2e-05 2e-05 2e-05 2e-05 2e-05 2e-05 2e-05 
2e-05 2e-05 2e-05 2e-05 2e-05 2e-05 2e-05 2e-05 2e-05 
2e-05 2e-05 2e-05 2e-05 2e-05 2e-05 2e-05 2e-05 2e-05 
2e-05 2e-05 2e-05 2e-05 2e-05 2e-05 2e-05 2e-05 2e-05 
2e-05 2e-05 2e-05 2e-05 2e-05 2e-05 2e-05 2e-05 2e-05 
2e-05 2e-05 2e-05 2e-05 2e-05 2e-05 2e-05 2e-05 2e-05 
2e-05 2e-05 2e-05 2e-05 2e-05 2e-05 2e-05 2e-05 2e-05 
2e-05 2e-05 2e-05 2e-05 2e-05 2e-05 2e-05 2e-05 2e-05 
2e-05 2e-05 2e-05 2e-05 2e-05 2e-05 2e-05 2e-05 2e-05 
2e-05 2e-05 2e-05 2e-05 2e-05 2e-05 2e-05 2e-05 2e-05 
2e-05 2e-05 2e-05 2e-05 2e-05 2e-05 2e-05 2e-05 2e-05 
2e-05 2e-05 2e-05 2e-05 2e-05 2e-05 2e-05 2e-05 2e-05 
2e-05 2e-05 2e-05 2e-05 2e-05 2e-05 2e-05 2e-05 2e-05 
2e-05 2e-05 2e-05 2e-05 2e-05 2e-05 2e-05 2e-05 2e-05 
2e-05 2e-05 2e-05 2e-05 2e-05 2e-05 2e-05 2e-05 2e-05 
2e-05 2e-05 2e-05 2e-05 2e-05 2e-05 2e-05 2e-05 2e-05 
2e-05 2e-05 2e-05 2e-05 2e-05 2e-05 2e-05 2e-05 2e-05 
2e-05 2e-05 2e-05 2e-05 2e-05 2e-05 2e-05 2e-05 2e-05 
2e-05 2e-05 2e-05 2e-05 2e-05 2e-05 7.5e-05 7.5e-05 2e-05 
2e-05 2e-05 2e-05 2e-05 2e-05 2e-05 2e-05 2e-05 2e-05 
2e-05 2e-05 2e-05 2e-05 2e-05 2e-05 2e-05 2e-05 2e-05 
2e-05 2e-05 2e-05 2e-05 2e-05 2e-05 2e-05 7.5e-05 2e-05 
7.5e-05 2e-05 2e-05 2e-05 7.5e-05 7.5e-05 2e-05 2e-05 2e-05 
2e-05 2e-05 7.5e-05 2e-05 2e-05 7.5e-05 2e-05 7.5e-05 7.5e-05 
2e-05 7.5e-05 7.5e-05 2e-05 2e-05 2e-05 0.00015 2e-05 2e-05 
2e-05 2e-05 2e-05 2e-05 0.0003 2e-05 2e-05 2e-05 2e-05 
2e-05 2e-05 2e-05 2e-05 2e-05 2e-05 2e-05 2e-05 2e-05 

omega 3 648 double
0 0 0 0 0 0 0 0 0 
0 0 0 0 0 0 0 0 0 
0 0 0 0 0 0 0 0 0 
0 0 0 0 0 0 0 0 0 
0 0 0 0 0 0 0 0 0 
0 0 0 0 0 0 0 0 0 
0 0 0 0 0 0 0 0 0 
0 0 0 0 0 0 0 0 0 
0 0 0 0 0 0 0 0 0 
0 0 0 0 0 0 0 0 0 
0 0 0 0 0 0 0 0 0 
0 0 0 0 0 0 0 0 0 
0 0 0 0 0 0 0 0 0 
0 0 0 0 0 0 0 0 0 
0 0 0 0 0 0 0 0 0 
0 0 0 0 0 0 0 0 0 
0 0 0 0 0 0 0 0 0 
0 0 0 0 0 0 0 0 0 
0 0 0 0 0 0 0 0 0 
0 0 0 0 0 0 0 0 0 
0 0 0 0 0 0 0 0 0 
0 0 0 0 0 0 0 0 0 
0 0 0 0 0 0 0 0 0 
0 0 0 0 0 0 0 0 0 
0 0 0 0 0 0 0 0 0 
0 0 0 0 0 0 0 0 0 
0 0 0 0 0 0 0 0 0 
0 0 0 0 0 0 0 0 0 
0 0 0 0 0 0 0 0 0 
0 0 0 0 0 0 0 0 0 
0 0 0 0 0 0 0 0 0 
0 0 0 0 0 0 0 0 0 
0 0 0 0 0 0 0 0 0 
0 0 0 0 0 0 0 0 0 
0 0 0 0 0 0 0 0 0 
0 0 0 0 0 0 0 0 0 
0 0 0 0 0 0 0 0 0 
0 0 0 0 0 0 0 0 0 
0 0 0 0 0 0 0 0 0 
0 0 0 0 0 0 0 0 0 
0 0 0 0 0 0 0 0 0 
0 0 0 0 0 0 0 0 0 
0 0 0 0 0 0 0 0 0 
0 0 0 0 0 0 0 0 0 
0 0 0 0 0 0 0 0 0 
0 0 0 0 0 0 0 0 0 
0 0 0 0 0 0 0 0 0 
0 0 0 0 0 0 0 0 0 
0 0 0 0 0 0 0 0 0 
0 0 0 0 0 0 0 0 0 
0 0 0 0 0 0 0 0 0 
0 0 0 0 0 0 0 0 0 
0 0 0 0 0 0 0 0 0 
0 0 0 0 0 0 0 0 0 
0 0 0 0 0 0 0 0 0 
0 0 0 0 0 0 0 0 0 
0 0 0 0 0 0 0 0 0 
0 0 0 0 0 0 0 0 0 
0 0 0 0 0 0 0 0 0 
0 0 0 0 0 0 0 0 0 
0 0 0 0 0 0 0 0 0 
0 0 0 0 0 0 0 0 0 
0 0 0 0 0 0 0 0 0 
0 0 0 0 0 0 0 0 0 
0 0 0 0 0 0 0 0 0 
0 0 0 0 0 0 0 0 0 
0 0 0 0 0 0 0 0 0 
0 0 0 0 0 0 0 0 0 
0 0 0 0 0 0 0 0 0 
0 0 0 0 0 0 0 0 0 
0 0 0 0 0 0 0 0 0 
0 0 0 0 0 0 0 0 0 
0 0 0 0 0 0 0 0 0 
0 0 0 0 0 0 0 0 0 
0 0 0 0 0 0 0 0 0 
0 0 0 0 0 0 0 0 0 
0 0 0 0 0 0 0 0 0 
0 0 0 0 0 0 0 0 0 
0 0 0 0 0 0 0 0 0 
0 0 0 0 0 0 0 0 0 
0 0 0 0 0 0 0 0 0 
0 0 0 0 0 0 0 0 0 
0 0 0 0 0 0 0 0 0 
0 0 0 0 0 0 0 0 0 
0 0 0 0 0 0 0 0 0 
0 0 0 0 0 0 0 0 0 
0 0 0 0 0 0 0 0 0 
0 0 0 0 0 0 0 0 0 
0 0 0 0 0 0 0 0 0 
0 0 0 0 0 0 0 0 0 
0 0 0 0 0 0 0 0 0 
0 0 0 0 0 0 0 0 0 
0 0 0 0 0 0 0 0 0 
0 0 0 0 0 0 0 0 0 
0 0 0 0 0 0 0 0 0 
0 0 0 0 0 0 0 0 0 
0 0 0 0 0 0 0 0 0 
0 0 0 0 0 0 0 0 0 
0 0 0 0 0 0 0 0 0 
0 0 0 0 0 0 0 0 0 
0 0 0 0 0 0 0 0 0 
0 0 0 0 0 0 0 0 0 
0 0 0 0 0 0 0 0 0 
0 0 0 0 0 0 0 0 0 
0 0 0 0 0 0 0 0 0 
0 0 0 0 0 0 0 0 0 
0 0 0 0 0 0 0 0 0 
0 0 0 0 0 0 0 0 0 
0 0 0 0 0 0 0 0 0 
0 0 0 0 0 0 0 0 0 
0 0 0 0 0 0 0 0 0 
0 0 0 0 0 0 0 0 0 
0 0 0 0 0 0 0 0 0 
0 0 0 0 0 0 0 0 0 
0 0 0 0 0 0 0 0 0 
0 0 0 0 0 0 0 0 0 
0 0 0 0 0 0 0 0 0 
0 0 0 0 0 0 0 0 0 
0 0 0 0 0 0 0 0 0 
0 0 0 0 0 0 0 0 0 
0 0 0 0 0 0 0 0 0 
0 0 0 0 0 0 0 0 0 
0 0 0 0 0 0 0 0 0 
0 0 0 0 0 0 0 0 0 
0 0 0 0 0 0 0 0 0 
0 0 0 0 0 0 0 0 0 
0 0 0 0 0 0 0 0 0 
0 0 0 0 0 0 0 0 0 
0 0 0 0 0 0 0 0 0 
0 0 0 0 0 0 0 0 0 
0 0 0 0 0 0 0 0 0 
0 0 0 0 0 0 0 0 0 
0 0 0 0 0 0 0 0 0 
0 0 0 0 0 0 0 0 0 
0 0 0 0 0 0 0 0 0 
0 0 0 0 0 0 0 0 0 
0 0 0 0 0 0 0 0 0 
0 0 0 0 0 0 0 0 0 
0 0 0 0 0 0 0 0 0 
0 0 0 0 0 0 0 0 0 
0 0 0 0 0 0 0 0 0 
0 0 0 0 0 0 0 0 0 
0 0 0 0 0 0 0 0 0 
0 0 0 0 0 0 0 0 0 
0 0 0 0 0 0 0 0 0 
0 0 0 0 0 0 0 0 0 
0 0 0 0 0 0 0 0 0 
0 0 0 0 0 0 0 0 0 
0 0 0 0 0 0 0 0 0 
0 0 0 0 0 0 0 0 0 
0 0 0 0 0 0 0 0 0 
0 0 0 0 0 0 0 0 0 
0 0 0 0 0 0 0 0 0 
0 0 0 0 0 0 0 0 0 
0 0 0 0 0 0 0 0 0 
0 0 0 0 0 0 0 0 0 
0 0 0 0 0 0 0 0 0 
0 0 0 0 0 0 0 0 0 
0 0 0 0 0 0 0 0 0 
0 0 0 0 0 0 0 0 0 
0 0 0 0 0 0 0 0 0 
0 0 0 0 0 0 0 0 0 
0 0 0 0 0 0 0 0 0 
0 0 0 0 0 0 0 0 0 
0 0 0 0 0 0 0 0 0 
0 0 0 0 0 0 0 0 0 
0 0 0 0 0 0 0 0 0 
0 0 0 0 0 0 0 0 0 
0 0 0 0 0 0 0 0 0 
0 0 0 0 0 0 0 0 0 
0 0 0 0 0 0 0 0 0 
0 0 0 0 0 0 0 0 0 
0 0 0 0 0 0 0 0 0 
0 0 0 0 0 0 0 0 0 
0 0 0 0 0 0 0 0 0 
0 0 0 0 0 0 0 0 0 
0 0 0 0 0 0 0 0 0 
0 0 0 0 0 0 0 0 0 
0 0 0 0 0 0 0 0 0 
0 0 0 0 0 0 0 0 0 
0 0 0 0 0 0 0 0 0 
0 0 0 0 0 0 0 0 0 
0 0 0 0 0 0 0 0 0 
0 0 0 0 0 0 0 0 0 
0 0 0 0 0 0 0 0 0 
0 0 0 0 0 0 0 0 0 
0 0 0 0 0 0 0 0 0 
0 0 0 0 0 0 0 0 0 
0 0 0 0 0 0 0 0 0 
0 0 0 0 0 0 0 0 0 
0 0 0 0 0 0 0 0 0 
0 0 0 0 0 0 0 0 0 
0 0 0 0 0 0 0 0 0 
0 0 0 0 0 0 0 0 0 
0 0 0 0 0 0 0 0 0 
0 0 0 0 0 0 0 0 0 
0 0 0 0 0 0 0 0 0 
0 0 0 0 0 0 0 0 0 
0 0 0 0 0 0 0 0 0 
0 0 0 0 0 0 0 0 0 
0 0 0 0 0 0 0 0 0 
0 0 0 0 0 0 0 0 0 
0 0 0 0 0 0 0 0 0 
0 0 0 0 0 0 0 0 0 
0 0 0 0 0 0 0 0 0 
0 0 0 0 0 0 0 0 0 
0 0 0 0 0 0 0 0 0 
0 0 0 0 0 0 0 0 0 
0 0 0 0 0 0 0 0 0 
0 0 0 0 0 0 0 0 0 
0 0 0 0 0 0 0 0 0 
0 0 0 0 0 0 0 0 0 
0 0 0 0 0 0 0 0 0 
0 0 0 0 0 0 0 0 0 
0 0 0 0 0 0 0 0 0 
0 0 0 0 0 0 0 0 0 

fx_mag_viz 1 648 double
0 0 0 0 0 0 0 0 0 
0 0 0 0 0 0 0 0 0 
0 0 0 0 0 0 0 0 0 
0 0 0 0 0 0 0 0 0 
0 0 0 0 0 0 0 0 0 
0 0 0 0 0 0 0 0 0 
0 0 0 0 0 0 0 0 0 
0 0 0 0 0 0 0 0 0 
0 0 0 0 0 0 0 0 0 
0 0 0 0 0 0 0 0 0 
0 0 0 0 0 0 0 0 0 
0 0 0 0 0 0 0 0 0 
0 0 0 0 0 0 0 0 0 
0 0 0 0 0 0 0 0 0 
0 0 0 0 0 0 0 0 0 
0 0 0 0 0 0 0 0 0 
0 0 0 0 0 0 0 0 0 
0 0 0 0 0 0 0 0 0 
0 0 0 0 0 0 0 0 0 
0 0 0 0 0 0 0 0 0 
0 0 0 0 0 0 0 0 0 
0 0 0 0 0 0 0 0 0 
0 0 0 0 0 0 0 0 0 
0 0 0 0 0 0 0 0 0 
0 0 0 0 0 0 0 0 0 
0 0 0 0 0 0 0 0 0 
0 0 0 0 0 0 0 0 0 
0 0 0 0 0 0 0 0 0 
0 0 0 0 0 0 0 0 0 
0 0 0 0 0 0 0 0 0 
0 0 0 0 0 0 0 0 0 
0 0 0 0 0 0 0 0 0 
0 0 0 0 0 0 0 0 0 
0 0 0 0 0 0 0 0 0 
0 0 0 0 0 0 0 0 0 
0 0 0 0 0 0 0 0 0 
0 0 0 0 0 0 0 0 0 
0 0 0 0 0 0 0 0 0 
0 0 0 0 0 0 0 0 0 
0 0 0 0 0 0 0 0 0 
0 0 0 0 0 0 0 0 0 
0 0 0 0 0 0 0 0 0 
0 0 0 0 0 0 0 0 0 
0 0 0 0 0 0 0 0 0 
0 0 0 0 0 0 0 0 0 
0 0 0 0 0 0 0 0 0 
0 0 0 0 0 0 0 0 0 
0 0 0 0 0 0 0 0 0 
0 0 0 0 0 0 0 0 0 
0 0 0 0 0 0 0 0 0 
0 0 0 0 0 0 0 0 0 
0 0 0 0 0 0 0 0 0 
0 0 0 0 0 0 0 0 0 
0 0 0 0 0 0 0 0 0 
0 0 0 0 0 0 0 0 0 
0 0 0 0 0 0 0 0 0 
0 0 0 0 0 0 0 0 0 
0 0 0 0 0 0 0 0 0 
0 0 0 0 0 0 0 0 0 
0 0 0 0 0 0 0 0 0 
0 0 0 0 0 0 0 0 0 
0 0 0 0 0 0 0 0 0 
0 0 0 0 0 0 0 0 0 
0 0 0 0 0 0 0 0 0 
0 0 0 0 0 0 0 0 0 
0 0 0 0 0 0 0 0 0 
0 0 0 0 0 0 0 0 0 
0 0 0 0 0 0 0 0 0 
0 0 0 0 0 0 0 0 0 
0 0 0 0 0 0 0 0 0 
0 0 0 0 0 0 0 0 0 
0 0 0 0 0 0 0 0 0 

fy_mag_viz 1 648 double
0 0 0 0 0 0 0 0 0 
0 0 0 0 0 0 0 0 0 
0 0 0 0 0 0 0 0 0 
0 0 0 0 0 0 0 0 0 
0 0 0 0 0 0 0 0 0 
0 0 0 0 0 0 0 0 0 
0 0 0 0 0 0 0 0 0 
0 0 0 0 0 0 0 0 0 
0 0 0 0 0 0 0 0 0 
0 0 0 0 0 0 0 0 0 
0 0 0 0 0 0 0 0 0 
0 0 0 0 0 0 0 0 0 
0 0 0 0 0 0 0 0 0 
0 0 0 0 0 0 0 0 0 
0 0 0 0 0 0 0 0 0 
0 0 0 0 0 0 0 0 0 
0 0 0 0 0 0 0 0 0 
0 0 0 0 0 0 0 0 0 
0 0 0 0 0 0 0 0 0 
0 0 0 0 0 0 0 0 0 
0 0 0 0 0 0 0 0 0 
0 0 0 0 0 0 0 0 0 
0 0 0 0 0 0 0 0 0 
0 0 0 0 0 0 0 0 0 
0 0 0 0 0 0 0 0 0 
0 0 0 0 0 0 0 0 0 
0 0 0 0 0 0 0 0 0 
0 0 0 0 0 0 0 0 0 
0 0 0 0 0 0 0 0 0 
0 0 0 0 0 0 0 0 0 
0 0 0 0 0 0 0 0 0 
0 0 0 0 0 0 0 0 0 
0 0 0 0 0 0 0 0 0 
0 0 0 0 0 0 0 0 0 
0 0 0 0 0 0 0 0 0 
0 0 0 0 0 0 0 0 0 
0 0 0 0 0 0 0 0 0 
0 0 0 0 0 0 0 0 0 
0 0 0 0 0 0 0 0 0 
0 0 0 0 0 0 0 0 0 
0 0 0 0 0 0 0 0 0 
0 0 0 0 0 0 0 0 0 
0 0 0 0 0 0 0 0 0 
0 0 0 0 0 0 0 0 0 
0 0 0 0 0 0 0 0 0 
0 0 0 0 0 0 0 0 0 
0 0 0 0 0 0 0 0 0 
0 0 0 0 0 0 0 0 0 
0 0 0 0 0 0 0 0 0 
0 0 0 0 0 0 0 0 0 
0 0 0 0 0 0 0 0 0 
0 0 0 0 0 0 0 0 0 
0 0 0 0 0 0 0 0 0 
0 0 0 0 0 0 0 0 0 
0 0 0 0 0 0 0 0 0 
0 0 0 0 0 0 0 0 0 
0 0 0 0 0 0 0 0 0 
0 0 0 0 0 0 0 0 0 
0 0 0 0 0 0 0 0 0 
0 0 0 0 0 0 0 0 0 
0 0 0 0 0 0 0 0 0 
0 0 0 0 0 0 0 0 0 
0 0 0 0 0 0 0 0 0 
0 0 0 0 0 0 0 0 0 
0 0 0 0 0 0 0 0 0 
0 0 0 0 0 0 0 0 0 
0 0 0 0 0 0 0 0 0 
0 0 0 0 0 0 0 0 0 
0 0 0 0 0 0 0 0 0 
0 0 0 0 0 0 0 0 0 
0 0 0 0 0 0 0 0 0 
0 0 0 0 0 0 0 0 0 

fz_mag_viz 1 648 double
0 0 0 0 0 0 0 0 0 
0 0 0 0 0 0 0 0 0 
0 0 0 0 0 0 0 0 0 
0 0 0 0 0 0 0 0 0 
0 0 0 0 0 0 0 0 0 
0 0 0 0 0 0 0 0 0 
0 0 0 0 0 0 0 0 0 
0 0 0 0 0 0 0 0 0 
0 0 0 0 0 0 0 0 0 
0 0 0 0 0 0 0 0 0 
0 0 0 0 0 0 0 0 0 
0 0 0 0 0 0 0 0 0 
0 0 0 0 0 0 0 0 0 
0 0 0 0 0 0 0 0 0 
0 0 0 0 0 0 0 0 0 
0 0 0 0 0 0 0 0 0 
0 0 0 0 0 0 0 0 0 
0 0 0 0 0 0 0 0 0 
0 0 0 0 0 0 0 0 0 
0 0 0 0 0 0 0 0 0 
0 0 0 0 0 0 0 0 0 
0 0 0 0 0 0 0 0 0 
0 0 0 0 0 0 0 0 0 
0 0 0 0 0 0 0 0 0 
0 0 0 0 0 0 0 0 0 
0 0 0 0 0 0 0 0 0 
0 0 0 0 0 0 0 0 0 
0 0 0 0 0 0 0 0 0 
0 0 0 0 0 0 0 0 0 
0 0 0 0 0 0 0 0 0 
0 0 0 0 0 0 0 0 0 
0 0 0 0 0 0 0 0 0 
0 0 0 0 0 0 0 0 0 
0 0 0 0 0 0 0 0 0 
0 0 0 0 0 0 0 0 0 
0 0 0 0 0 0 0 0 0 
0 0 0 0 0 0 0 0 0 
0 0 0 0 0 0 0 0 0 
0 0 0 0 0 0 0 0 0 
0 0 0 0 0 0 0 0 0 
0 0 0 0 0 0 0 0 0 
0 0 0 0 0 0 0 0 0 
0 0 0 0 0 0 0 0 0 
0 0 0 0 0 0 0 0 0 
0 0 0 0 0 0 0 0 0 
0 0 0 0 0 0 0 0 0 
0 0 0 0 0 0 0 0 0 
0 0 0 0 0 0 0 0 0 
0 0 0 0 0 0 0 0 0 
0 0 0 0 0 0 0 0 0 
0 0 0 0 0 0 0 0 0 
0 0 0 0 0 0 0 0 0 
0 0 0 0 0 0 0 0 0 
0 0 0 0 0 0 0 0 0 
0 0 0 0 0 0 0 0 0 
0 0 0 0 0 0 0 0 0 
0 0 0 0 0 0 0 0 0 
0 0 0 0 0 0 0 0 0 
0 0 0 0 0 0 0 0 0 
0 0 0 0 0 0 0 0 0 
0 0 0 0 0 0 0 0 0 
0 0 0 0 0 0 0 0 0 
0 0 0 0 0 0 0 0 0 
0 0 0 0 0 0 0 0 0 
0 0 0 0 0 0 0 0 0 
0 0 0 0 0 0 0 0 0 
0 0 0 0 0 0 0 0 0 
0 0 0 0 0 0 0 0 0 
0 0 0 0 0 0 0 0 0 
0 0 0 0 0 0 0 0 0 
0 0 0 0 0 0 0 0 0 
0 0 0 0 0 0 0 0 0 

B_magnitude 1 648 double
0 0 0 0 0 0 0 0 0 
0 0 0 0 0 0 0 0 0 
0 0 0 0 0 0 0 0 0 
0 0 0 0 0 0 0 0 0 
0 0 0 0 0 0 0 0 0 
0 0 0 0 0 0 0 0 0 
0 0 0 0 0 0 0 0 0 
0 0 0 0 0 0 0 0 0 
0 0 0 0 0 0 0 0 0 
0 0 0 0 0 0 0 0 0 
0 0 0 0 0 0 0 0 0 
0 0 0 0 0 0 0 0 0 
0 0 0 0 0 0 0 0 0 
0 0 0 0 0 0 0 0 0 
0 0 0 0 0 0 0 0 0 
0 0 0 0 0 0 0 0 0 
0 0 0 0 0 0 0 0 0 
0 0 0 0 0 0 0 0 0 
0 0 0 0 0 0 0 0 0 
0 0 0 0 0 0 0 0 0 
0 0 0 0 0 0 0 0 0 
0 0 0 0 0 0 0 0 0 
0 0 0 0 0 0 0 0 0 
0 0 0 0 0 0 0 0 0 
0 0 0 0 0 0 0 0 0 
0 0 0 0 0 0 0 0 0 
0 0 0 0 0 0 0 0 0 
0 0 0 0 0 0 0 0 0 
0 0 0 0 0 0 0 0 0 
0 0 0 0 0 0 0 0 0 
0 0 0 0 0 0 0 0 0 
0 0 0 0 0 0 0 0 0 
0 0 0 0 0 0 0 0 0 
0 0 0 0 0 0 0 0 0 
0 0 0 0 0 0 0 0 0 
0 0 0 0 0 0 0 0 0 
0 0 0 0 0 0 0 0 0 
0 0 0 0 0 0 0 0 0 
0 0 0 0 0 0 0 0 0 
0 0 0 0 0 0 0 0 0 
0 0 0 0 0 0 0 0 0 
0 0 0 0 0 0 0 0 0 
0 0 0 0 0 0 0 0 0 
0 0 0 0 0 0 0 0 0 
0 0 0 0 0 0 0 0 0 
0 0 0 0 0 0 0 0 0 
0 0 0 0 0 0 0 0 0 
0 0 0 0 0 0 0 0 0 
0 0 0 0 0 0 0 0 0 
0 0 0 0 0 0 0 0 0 
0 0 0 0 0 0 0 0 0 
0 0 0 0 0 0 0 0 0 
0 0 0 0 0 0 0 0 0 
0 0 0 0 0 0 0 0 0 
0 0 0 0 0 0 0 0 0 
0 0 0 0 0 0 0 0 0 
0 0 0 0 0 0 0 0 0 
0 0 0 0 0 0 0 0 0 
0 0 0 0 0 0 0 0 0 
0 0 0 0 0 0 0 0 0 
0 0 0 0 0 0 0 0 0 
0 0 0 0 0 0 0 0 0 
0 0 0 0 0 0 0 0 0 
0 0 0 0 0 0 0 0 0 
0 0 0 0 0 0 0 0 0 
0 0 0 0 0 0 0 0 0 
0 0 0 0 0 0 0 0 0 
0 0 0 0 0 0 0 0 0 
0 0 0 0 0 0 0 0 0 
0 0 0 0 0 0 0 0 0 
0 0 0 0 0 0 0 0 0 
0 0 0 0 0 0 0 0 0 

B_gradient_mag 1 648 double
0 0 0 0 0 0 0 0 0 
0 0 0 0 0 0 0 0 0 
0 0 0 0 0 0 0 0 0 
0 0 0 0 0 0 0 0 0 
0 0 0 0 0 0 0 0 0 
0 0 0 0 0 0 0 0 0 
0 0 0 0 0 0 0 0 0 
0 0 0 0 0 0 0 0 0 
0 0 0 0 0 0 0 0 0 
0 0 0 0 0 0 0 0 0 
0 0 0 0 0 0 0 0 0 
0 0 0 0 0 0 0 0 0 
0 0 0 0 0 0 0 0 0 
0 0 0 0 0 0 0 0 0 
0 0 0 0 0 0 0 0 0 
0 0 0 0 0 0 0 0 0 
0 0 0 0 0 0 0 0 0 
0 0 0 0 0 0 0 0 0 
0 0 0 0 0 0 0 0 0 
0 0 0 0 0 0 0 0 0 
0 0 0 0 0 0 0 0 0 
0 0 0 0 0 0 0 0 0 
0 0 0 0 0 0 0 0 0 
0 0 0 0 0 0 0 0 0 
0 0 0 0 0 0 0 0 0 
0 0 0 0 0 0 0 0 0 
0 0 0 0 0 0 0 0 0 
0 0 0 0 0 0 0 0 0 
0 0 0 0 0 0 0 0 0 
0 0 0 0 0 0 0 0 0 
0 0 0 0 0 0 0 0 0 
0 0 0 0 0 0 0 0 0 
0 0 0 0 0 0 0 0 0 
0 0 0 0 0 0 0 0 0 
0 0 0 0 0 0 0 0 0 
0 0 0 0 0 0 0 0 0 
0 0 0 0 0 0 0 0 0 
0 0 0 0 0 0 0 0 0 
0 0 0 0 0 0 0 0 0 
0 0 0 0 0 0 0 0 0 
0 0 0 0 0 0 0 0 0 
0 0 0 0 0 0 0 0 0 
0 0 0 0 0 0 0 0 0 
0 0 0 0 0 0 0 0 0 
0 0 0 0 0 0 0 0 0 
0 0 0 0 0 0 0 0 0 
0 0 0 0 0 0 0 0 0 
0 0 0 0 0 0 0 0 0 
0 0 0 0 0 0 0 0 0 
0 0 0 0 0 0 0 0 0 
0 0 0 0 0 0 0 0 0 
0 0 0 0 0 0 0 0 0 
0 0 0 0 0 0 0 0 0 
0 0 0 0 0 0 0 0 0 
0 0 0 0 0 0 0 0 0 
0 0 0 0 0 0 0 0 0 
0 0 0 0 0 0 0 0 0 
0 0 0 0 0 0 0 0 0 
0 0 0 0 0 0 0 0 0 
0 0 0 0 0 0 0 0 0 
0 0 0 0 0 0 0 0 0 
0 0 0 0 0 0 0 0 0 
0 0 0 0 0 0 0 0 0 
0 0 0 0 0 0 0 0 0 
0 0 0 0 0 0 0 0 0 
0 0 0 0 0 0 0 0 0 
0 0 0 0 0 0 0 0 0 
0 0 0 0 0 0 0 0 0 
0 0 0 0 0 0 0 0 0 
0 0 0 0 0 0 0 0 0 
0 0 0 0 0 0 0 0 0 
0 0 0 0 0 0 0 0 0 

