# vtk DataFile Version 5.1
Generated by LIGGGHTS
ASCII
DATASET POLYDATA
POINTS 648 float
0.000822496 -0.0363122 0.00132108 -0.0240024 -0.0280603 0.00136527 0.0362421 0.00170773 0.00115321 
0.0404406 0.00462082 0.00110115 0.0336082 0.013194 0.00141591 0.0388885 0.0193682 0.00115438 
-0.0375088 0.0393741 0.00140216 -0.0346971 -0.0446764 0.00137041 -0.00340304 -0.0448428 0.00220163 
0.0248068 -0.0428986 0.00121496 0.0418836 -0.0421436 0.00107043 0.0238162 -0.0409762 0.00105712 
-0.00670669 -0.0394183 0.00248649 0.040047 -0.0404588 0.0022963 -0.0262624 -0.032473 0.00243992 
0.03382 -0.0268981 0.00205261 -0.0338231 -0.0250135 0.00219757 0.0306875 -0.0259396 0.0011589 
0.00538025 -0.0241403 0.0016521 0.0363266 -0.0194176 0.00192029 -0.0204621 -0.0172006 0.00183272 
0.0198229 -0.0156851 0.00146762 0.0249316 -0.014475 0.0018957 -0.0222502 -0.00974669 0.00207687 
-0.0196799 -0.00931279 0.0016423 -0.00553214 -0.00871323 0.00230186 -0.0135858 -0.00672635 0.00158324 
-0.0416237 0.00110806 0.00149498 0.0147261 0.00139147 0.00253496 -0.037077 0.00611456 0.00229529 
-0.00723413 0.00605583 0.00157464 -0.0392616 0.00972366 0.00246353 -0.0101256 0.00978275 0.00181173 
0.0197977 0.00963841 0.00128094 0.0261916 0.0119357 0.00211098 -0.0429188 0.0135204 0.00230255 
0.00976298 0.0163696 0.00150206 0.0226738 0.0181095 0.00273206 0.0122157 0.0191756 0.0020649 
-0.0431379 0.0208085 0.00206856 -0.0349287 0.0230684 0.00167961 0.0146363 0.0223077 0.00263927 
-0.0114472 0.026715 0.00213443 -0.0409258 0.0305044 0.00236776 0.0238959 0.0383247 0.00108375 
-0.0312382 0.0393096 0.00227088 0.0399235 0.0434757 0.0025562 -0.044759 -0.0437614 0.0032159 
-0.027409 -0.0433703 0.00276851 -0.0248654 -0.0427111 0.00233355 0.0424299 -0.0409921 0.003051 
-0.018434 -0.0405477 0.00220293 0.0244803 -0.0401788 0.00312158 -0.0108246 -0.0388127 0.00260598 
-0.0370475 -0.0370945 0.00363744 0.0397687 -0.0374633 0.00223195 0.00879071 -0.0344865 0.00283175 
-0.0427235 -0.0332389 0.00307144 0.023158 -0.0340207 0.00282793 0.0244271 -0.0334586 0.00335856 
-0.0232422 -0.0321576 0.00392865 0.00802514 -0.031483 0.00223047 -0.0448384 -0.0296834 0.00351937 
-0.00580099 -0.0272788 0.00280364 0.032808 -0.025967 0.00294653 0.0102479 -0.024092 0.00318833 
-0.0225401 -0.0213878 0.00310371 0.00623721 -0.0211799 0.0039981 -0.0317771 -0.0175651 0.00287026 
0.0404767 -0.0183151 0.00401782 0.0268005 -0.0146468 0.00364867 -0.0329121 -0.0139828 0.00390784 
0.0176437 -0.0119747 0.00374668 -0.038829 -0.00978443 0.00365056 -0.0304645 -0.00701594 0.0033172 
-0.00747582 -0.00609419 0.0026675 -0.042786 -0.00359954 0.00345121 0.039455 -0.000236508 0.00353458 
-0.0170872 0.00564833 0.00321486 0.0011249 0.00615697 0.00345121 0.0228765 0.00606581 0.00397338 
0.0142017 0.0079404 0.00307099 0.0202046 0.00840095 0.00295516 -0.0408092 0.00981999 0.00336396 
0.0399323 0.0117688 0.0037579 -0.00279986 0.0127222 0.00324381 0.0128044 0.0127337 0.0028505 
0.014866 0.0127598 0.00329098 -0.00307286 0.0144526 0.0024433 0.0418335 0.0161761 0.00316861 
-0.0214239 0.0189608 0.00283789 0.00128112 0.0217131 0.00344577 -0.0421793 0.0225172 0.00339884 
0.0226957 0.0260881 0.0028571 0.00953871 0.0271324 0.00289329 -0.00435696 0.0325462 0.00331339 
0.00284552 0.0345861 0.00385966 0.0311732 0.0371467 0.00271419 -0.00973825 0.0391656 0.00327505 
0.0163992 0.0415262 0.00344445 0.00805094 0.0422278 0.00343368 0.0414821 -0.0410789 0.00424542 
-0.0439713 -0.0357399 0.00420234 0.0268369 -0.0315202 0.00426629 0.00577088 -0.0287415 0.00530368 
0.0436787 -0.0219137 0.00410606 -0.00827992 -0.020547 0.00368857 0.0336491 -0.0197505 0.0047609 
-0.0296942 -0.0196153 0.00348601 -0.0108877 -0.0188832 0.00504923 -0.0426154 -0.0165053 0.00529956 
0.0223879 -0.0163393 0.00443359 0.0403752 -0.0143085 0.00420155 0.0277003 -0.0107969 0.00417306 
0.0251729 -0.00985964 0.00425468 0.00523139 -0.00599236 0.00374604 -0.00783961 -0.000387029 0.00439828 
-0.00702036 -0.00121172 0.00457228 0.0407777 0.000744206 0.00467286 -0.00967086 0.00179773 0.0045493 
0.00417698 0.0024455 0.00492202 0.0305447 0.00486582 0.0051769 -0.0287984 0.00559412 0.00510423 
0.030759 0.00580352 0.00410374 0.0283387 0.00890506 0.00433328 -0.034865 0.0142961 0.00450016 
0.0287781 0.014071 0.00481204 0.00395304 0.0187088 0.00416564 -0.0153727 0.020636 0.00527774 
-0.0282566 0.021284 0.0051304 -0.0386663 0.0253433 0.0050804 -0.00739359 0.0259593 0.00434494 
-0.0267569 0.0263983 0.00495006 -0.0190887 0.0269029 0.00378428 -0.0357156 0.0282031 0.00415724 
-0.0376379 0.0294143 0.00376308 0.0191509 0.0299648 0.00437755 0.00372347 0.0304157 0.00387035 
0.0444958 0.0309554 0.00410599 -0.0245447 0.0378537 0.0044318 -0.0112537 0.0395394 0.00429524 
0.0221021 0.0401282 0.00531434 0.0251972 0.0393087 0.00520022 0.0222253 0.0407186 0.00411141 
-0.0205282 0.0432397 0.00423612 -0.0181988 0.0434549 0.00408877 0.0145521 -0.0432303 0.00502725 
0.0348044 -0.042095 0.0060069 -0.00674967 -0.0416523 0.00640914 -0.0334706 -0.0396012 0.00559095 
-0.00302782 -0.0385948 0.00577871 0.0156715 -0.0391733 0.00633154 0.00594186 -0.0351889 0.00624239 
-0.0266532 -0.0301716 0.00589532 -0.0105296 -0.0314142 0.00623537 -0.0240719 -0.0268296 0.00567645 
0.033456 -0.0256735 0.00587841 -0.0408326 -0.0234295 0.00539408 0.00548761 -0.0197918 0.00555244 
0.00156248 -0.0194187 0.00623718 0.0030191 -0.0179247 0.0053575 -0.0339565 -0.0167518 0.00563239 
-0.0269092 -0.0125643 0.00648138 0.00689113 -0.0107816 0.00628676 0.0286804 -0.00919085 0.00640104 
0.0313953 -0.00974065 0.00536286 0.0350526 -0.0102353 0.00585706 0.0406218 -0.0100941 0.00551507 
-0.0214415 -0.007536 0.00652938 -0.0198564 -0.00683511 0.0061776 0.0290986 -0.000251763 0.00516657 
-0.0260142 0.00017485 0.00639973 0.0188762 0.00181355 0.00609716 0.0292006 0.00433004 0.00588008 
-0.0426568 0.00723228 0.00614503 0.0212596 0.00979192 0.0063616 0.00861143 0.0123591 0.00513352 
8.23501e-07 0.0138406 0.00580108 0.0143092 0.0139794 0.00635166 0.0248423 0.0143007 0.00629743 
-0.0196462 0.0155185 0.00539999 0.0121458 0.0151918 0.00492913 -0.0360536 0.0173104 0.00570628 
0.0215224 0.0171285 0.00543925 0.0123926 0.0218243 0.00629237 -0.0313244 0.0314049 0.00565946 
0.0038092 0.0311583 0.00656913 0.01325 0.0319187 0.00661487 0.00317215 0.0343196 0.00581583 
-0.041477 0.0364172 0.00541865 0.0165329 0.0385374 0.0057757 0.0352379 0.0438995 0.00530404 
-0.0428902 -0.0449088 0.00685378 -0.0335565 -0.0442122 0.00706542 -0.0248652 -0.040212 0.00676956 
0.00798734 -0.0367051 0.00669904 -0.0168273 -0.0360331 0.00672912 -0.0376897 -0.0314333 0.00645443 
-0.0263426 -0.0292431 0.00699867 0.0233461 -0.0214624 0.00710472 0.039775 -0.0211058 0.00708041 
0.0394323 -0.021923 0.0064095 -0.0100897 -0.0180162 0.00785292 -0.00444012 -0.0151621 0.00777628 
-0.0388614 -0.0136303 0.00698809 -0.0117656 -0.0138394 0.0076589 0.0109664 -0.00760095 0.00787783 
-0.0129003 -0.00574839 0.00685014 0.00937085 -0.00418454 0.00678207 0.021323 -0.00444137 0.0074162 
-0.0179231 -0.00300678 0.00703021 -0.0141425 -0.00311887 0.00777108 0.0384376 0.000848974 0.00659432 
0.0323225 0.00436429 0.00650091 0.021602 0.00540593 0.00677182 0.0246705 0.0064451 0.00747794 
0.0250346 0.00641518 0.00605311 0.0340899 0.00882812 0.00734 0.0398091 0.011618 0.00751491 
-0.0310202 0.0131063 0.00717063 -0.00867948 0.0139924 0.00618799 0.00517921 0.0169249 0.0067206 
0.0090081 0.0191686 0.00684635 0.03506 0.0228899 0.00696194 -0.00782209 0.0241861 0.007797 
0.0307708 0.0242663 0.00728769 0.000162142 0.0251126 0.00748301 0.0167463 0.0251763 0.00685823 
-0.00563177 0.0268155 0.00674883 -0.0200898 0.0311527 0.00723234 0.00519606 0.0301696 0.00628624 
-0.0073504 0.0318329 0.0073175 0.00390562 0.0317225 0.00610079 0.0297434 0.0373158 0.00757737 
-0.0390027 0.0421086 0.00757003 -0.0308094 -0.0435702 0.0088133 -0.042922 -0.0404536 0.00850942 
0.0308099 -0.0378456 0.00802557 0.0333162 -0.0342631 0.00796258 0.0280204 -0.0311414 0.00854857 
-0.0430551 -0.0267583 0.00803772 0.000892701 -0.0263701 0.00831109 -0.0257955 -0.0157834 0.00814731 
-0.0186412 -0.0134353 0.0080472 -0.0112192 -0.0104501 0.00867375 0.00743742 -0.00926665 0.00864006 
0.013874 -0.00963069 0.00874193 0.0161928 -0.00760918 0.00776329 0.0131353 -0.00504642 0.00760717 
0.0180565 -0.00487531 0.00863062 -0.00896956 -0.00131708 0.00864175 0.0449494 0.00392273 0.008058 
0.0221269 0.00728552 0.00833757 -0.0214351 0.00957734 0.00854541 0.000954082 0.0152563 0.00837351 
-0.022709 0.0198803 0.00820624 -0.023041 0.0197144 0.00849507 0.0181332 0.0246356 0.00897537 
-0.0108954 0.0304 0.00754178 0.0364634 0.0310238 0.00841524 -0.0264781 0.032823 0.00846632 
0.0231674 0.0340949 0.00761249 0.0181024 -0.0433049 0.00944055 0.0131812 -0.0427533 0.00964887 
-0.0327621 -0.0121928 0.00973293 -0.00433253 -0.00676057 0.00951151 -0.0120059 -0.00345367 0.00883115 
0.00975646 -0.00313231 0.00962938 0.0116524 0.00206193 0.00931022 0.0441199 0.0136981 0.009046 
-0.0127911 0.0299546 0.00882449 0.0193546 0.0324404 0.00979987 -0.00585061 0.0388609 0.00983259 
0.0352701 0.0439749 0.0096785 0.0405446 0.0433429 0.00867214 0.00985621 -0.0367022 0.0104365 
0.0449741 -0.0303513 0.0103402 0.0323803 -0.0150629 0.0110123 0.0387156 -0.00624884 0.00996382 
-0.00841171 0.0143034 0.0111215 0.0311878 0.014057 0.0101973 0.0407412 0.0174253 0.0107767 
-0.0122989 0.0222019 0.0110976 0.00126512 0.0228658 0.0102191 0.026696 0.03017 0.0103275 
0.0166138 -0.0412108 0.012437 -0.0233761 -0.031813 0.0122073 -0.0220587 -0.0306349 0.0119466 
-0.0414327 -0.0290659 0.01196 0.0346338 -0.0290927 0.012523 0.00558373 -0.0242787 0.0115154 
-0.0127621 -0.0231756 0.0115996 0.035159 -0.023363 0.0118836 0.038292 -0.016257 0.0113455 
-0.00254943 -0.00825679 0.0115122 -0.0344646 -0.00725539 0.0118359 0.0180458 -0.00470109 0.0119061 
-0.0107529 -0.00365687 0.0120306 -0.00941413 -0.00330341 0.0124903 -0.0283489 -0.000417126 0.012333 
-0.0325416 0.00283857 0.0113616 0.00243665 0.00282786 0.0113632 -0.025141 0.00447188 0.01197 
0.0396593 0.013993 0.0124316 0.021223 0.0244832 0.0117246 0.0438582 0.0244724 0.0112833 
0.0395905 0.0272142 0.0118166 0.0372507 0.0318783 0.012351 -0.00196307 0.0366495 0.0120226 
-0.0309963 -0.0355024 0.013426 0.0240101 -0.0228809 0.0126809 -0.0147645 -0.0165889 0.013047 
0.0334462 -0.00930086 0.0130805 0.0140084 -6.89735e-05 0.0132661 -0.0105861 0.00898083 0.0132678 
0.0211953 0.00966092 0.0135104 0.0398418 0.0217469 0.0125845 -0.0148746 0.0223253 0.0135353 
0.0294278 0.0431452 0.0133333 0.00528787 0.0432844 0.0134482 -0.00396528 -0.0444182 0.0147201 
-0.0386911 -0.0311434 0.0145504 -0.00863888 -0.0237376 0.0141291 -0.00401126 -0.00720159 0.0146479 
0.0404774 -0.00688032 0.0144262 -0.009285 0.00693532 0.014095 -0.0365733 0.0119208 0.0147345 
0.00243185 0.0120975 0.0149324 0.018015 0.0183735 0.0147884 0.0362273 0.0220011 0.0147596 
-0.0267196 0.0236159 0.0141511 -0.0337286 0.0337045 0.0141455 0.00201585 0.0404036 0.0148615 
0.0195053 -0.043722 0.0155635 0.0155599 -0.0240909 0.0159004 0.0200271 -0.00425623 0.0163977 
-0.0408474 -0.00214648 0.0155329 0.0168839 -0.00210364 0.0155605 -0.0153419 -0.00108619 0.0157243 
0.0260144 0.00429017 0.0160355 -0.00598638 0.00689803 0.0162519 0.0191028 0.0315895 0.0153944 
0.00727395 0.0332762 0.0153614 -0.0136468 -0.0412372 0.0168345 -0.0161578 -0.0337243 0.016852 
0.0350196 -0.0250011 0.0175259 0.00179778 -0.0247441 0.0170835 -0.0210835 -0.0209207 0.0164893 
-0.0033641 -0.0204173 0.0166345 -0.00528066 -0.0121118 0.0175832 0.0242571 -0.0100823 0.0170558 
-0.0198668 -0.00211416 0.0176282 -0.0376932 -0.000132947 0.0164677 -0.0429246 0.00657681 0.0170869 
0.00533928 0.00728904 0.0173801 -0.0128609 0.0265935 0.0171555 -0.0425374 0.0333781 0.0166795 
0.00888594 0.0360502 0.0167634 -0.0133259 0.0414802 0.0177016 -0.0177803 -0.0340186 0.0188944 
0.0153133 -0.0285941 0.0187573 0.0347572 -0.0260666 0.0186424 0.0144468 -0.013247 0.0181268 
0.00664535 -0.00164817 0.0189324 0.0183943 0.00266245 0.0179205 -0.0231109 0.0157017 0.0187649 
0.00742845 0.0199749 0.018627 0.0278529 0.0342296 0.017823 0.0030545 0.0369981 0.0178374 
0.0416479 -0.0439733 0.0201025 0.0406519 -0.0427256 0.0203502 0.0077947 -0.0345433 0.0199563 
0.0164647 -0.0275391 0.0191723 0.0204492 -0.0194639 0.0197393 -0.0341597 -0.0122829 0.0198458 
-0.0253129 -0.0039775 0.0194857 -0.0233311 0.00384073 0.0202313 0.0332757 0.00539899 0.0199607 
-0.0287332 0.0215601 0.0201424 -0.0324762 0.0230005 0.0194242 0.00231692 -0.0294453 0.0211896 
-0.0279963 -0.0141356 0.0214557 -0.019893 0.00878872 0.0208 -0.00071691 0.0108932 0.0208811 
-0.0295899 0.0232577 0.0204929 0.0397191 0.0283771 0.0215573 0.0380057 0.0324307 0.0215283 
-0.0390775 0.0447256 0.0210618 -0.0273176 -0.0361067 0.0224617 -0.0346801 -0.0287009 0.0218896 
0.0115492 -0.0227248 0.0220505 0.0132043 -0.01541 0.0221381 0.0352883 -0.0103067 0.0225575 
0.0448793 -0.00396119 0.0223208 -0.0281455 -0.00127675 0.0218045 0.0189244 0.00254502 0.0222387 
-0.0408306 0.00999374 0.0226567 0.00474506 0.0103043 0.0220459 0.0234497 0.00978487 0.02224 
-0.00808524 0.0113378 0.0223631 -0.0350204 0.0121089 0.0224878 -0.0408838 0.0159645 0.0229393 
0.00367032 0.0371324 0.022064 -0.00647711 0.0391566 0.0225525 0.0171919 0.0449185 0.0226616 
-0.0195638 -0.0385913 0.0237959 0.0325128 -0.03812 0.0238105 0.0195647 -0.0366528 0.0234935 
0.0253763 -0.011051 0.0230851 0.0358407 0.00533501 0.023137 -0.0442311 0.00821601 0.0237532 
0.027557 0.009967 0.022999 -0.0122189 0.0175978 0.0230471 0.00264144 0.0247174 0.0241228 
0.0434247 0.0295768 0.0239232 0.0337272 0.0324898 0.0230789 0.0281745 0.039089 0.0241475 
0.0114086 0.0440135 0.0229793 0.0211706 0.0445491 0.0241679 0.00849583 -0.0405939 0.0245529 
-0.0164034 -0.0216001 0.0245705 -0.0328213 -0.0176588 0.0246033 -0.0408642 -0.0154151 0.024997 
-0.015814 -0.0152491 0.0247146 0.0375745 -0.0151367 0.0248731 -0.0261639 0.00337815 0.0251091 
-0.0137512 0.00384646 0.0243602 0.0324887 0.00836074 0.0254031 0.00757299 0.0192258 0.0247591 
0.0258603 0.0235991 0.0247366 0.0040127 0.0314243 0.0247138 -0.00883869 0.0381834 0.0252929 
-0.0389435 -0.0425966 0.0257377 -0.0169239 -0.0402939 0.0266987 -0.0207996 -0.0190456 0.0261533 
0.00886689 -0.0141191 0.0261287 -0.0253401 -0.0103599 0.0264183 -0.0211095 -0.00770044 0.0261299 
0.0420414 -0.00101026 0.0264363 -0.0131355 0.00164571 0.0257208 0.00789931 0.0136568 0.0261807 
0.012949 0.0143048 0.026111 0.0350116 0.0207306 0.0256431 -0.0436572 0.0238848 0.0268042 
-0.0407273 0.0358476 0.0267014 0.0170579 0.0421878 0.0260657 -0.00161929 -0.0353994 0.0280383 
0.0355384 -0.0354155 0.0274521 0.043014 -0.0343178 0.0270775 -0.0210092 -0.0320472 0.0273754 
0.023019 -0.0293484 0.0275933 0.0210005 -0.0239559 0.0277507 -0.0350278 -0.0224863 0.0280181 
0.032558 0.00153523 0.0272775 -0.027449 0.00511055 0.0280987 -0.0406381 0.00555966 0.0271018 
-0.0403489 0.00598291 0.0272116 -0.01547 0.00642247 0.0276862 -0.00443291 0.0160613 0.027275 
-0.0214233 0.0285543 0.0277597 -0.0289295 -0.0389067 0.0290458 -0.0179089 -0.0346335 0.0293376 
0.0403097 -0.0347888 0.0288342 -0.0150798 -0.00698339 0.0285572 0.00978397 0.00922321 0.0291235 
-0.0287818 0.014969 0.0283984 0.0440772 0.0154938 0.0291969 -0.0286532 0.0159811 0.0291939 
-0.0363159 0.0185996 0.0284278 0.00834461 0.0278725 0.0287864 -0.00750544 0.0361316 0.0284051 
-0.0317519 -0.0446953 0.0298058 -8.23525e-05 -0.034098 0.0295692 0.0346336 -0.0325969 0.0297831 
-0.00682403 -0.0314098 0.0299548 -0.0401314 -0.0280847 0.0304567 0.0134129 -0.0192809 0.0295453 
0.0296492 -0.015918 0.0302496 -0.00710141 -0.0133745 0.0296786 -0.0161548 0.0159009 0.0307593 
-0.00317984 0.0164631 0.029932 0.0256029 0.0175394 0.0295273 -0.0132251 0.0252506 0.0303448 
-0.00472634 0.0344449 0.029774 0.0156293 -0.0283842 0.0310032 0.0252581 -0.0163235 0.0320404 
0.0347312 -0.012978 0.0315196 0.0218314 -0.00971151 0.0318521 0.00127443 -0.000618905 0.0314719 
-0.0332593 0.000859011 0.0310209 -0.00831541 0.0129665 0.0313038 -0.0138035 0.0240512 0.0315802 
-0.0260391 0.0304395 0.0310438 -0.0359241 0.0337864 0.0310934 0.0132394 0.0345575 0.0315891 
0.0201641 -0.0426709 0.0327605 0.000425919 -0.0415728 0.0330676 -0.0234086 -0.038644 0.0330973 
0.010226 -0.0308634 0.0322576 0.0109547 -0.0235646 0.0323374 0.0272875 -0.0186725 0.0328816 
-0.0101373 -0.00698039 0.0331171 -0.040885 -0.00406647 0.0326296 0.00418285 0.0112423 0.0323173 
-0.0436896 0.0195853 0.0325028 -0.0190394 0.0446837 0.0320864 -0.0225361 -0.0441701 0.0342788 
-0.0349861 -0.0412827 0.0346439 0.0307351 -0.0355434 0.0338933 -0.0313057 -0.0141988 0.0333681 
-0.042331 -0.00792816 0.0337571 0.0127657 -0.00746761 0.0340545 -0.00720807 -0.00608605 0.0339261 
0.0386193 -0.00496685 0.0341847 -0.0395569 -0.00227866 0.0344215 0.0110904 0.00657535 0.0345943 
-0.0219587 0.0304934 0.0341765 -0.0379532 0.0399341 0.0344247 -0.00785852 0.041878 0.0346012 
0.0147823 -0.0446949 0.0349848 -0.0406141 -0.0405112 0.0359198 -0.00338111 -0.0363358 0.0353889 
0.027474 -0.0338615 0.0352281 -0.038621 -0.0229432 0.0347982 -0.0349081 0.00917553 0.0347972 
-0.0193355 0.018129 0.0358246 0.00546842 0.0177814 0.03589 -0.014478 0.0275162 0.035704 
0.0214431 0.0335886 0.0357085 -0.039126 0.0399637 0.035531 0.0430506 0.0422314 0.0349115 
-0.0136128 -0.00979682 0.0359791 0.0101693 0.00555192 0.0365301 -0.0394276 0.0109375 0.0369625 
-0.0406313 0.0295913 0.0372839 -0.00586029 -0.0338127 0.0381357 0.0129906 -0.00677597 0.0376664 
-0.0177429 -0.0346724 0.0394624 -0.0323128 -0.0219837 0.039128 0.0184681 -0.0172117 0.0395861 
0.0322358 -0.0130621 0.0394266 -0.000610522 -0.00103491 0.0394158 0.0392765 -0.0300093 0.039969 
-0.0139777 -0.0223984 0.042142 -0.0291427 -0.0219343 0.0422234 0.0282033 -0.0178095 0.0420581 
-0.0227164 -0.0141288 0.0414089 -0.0152062 0.0294088 0.0422045 0.0338942 -0.0410147 0.0435485 
-0.0396817 -0.0304797 0.0427194 -0.0432264 -0.0264101 0.0428784 0.0054016 -0.025334 0.0435218 
-0.00552594 0.00555795 0.043311 0.0293019 -0.00298432 0.0450688 -0.0405162 -0.0161033 0.0461529 
-0.0343844 -0.0078404 0.0453625 0.0275881 -0.00673863 0.0460024 0.00976854 0.0197772 0.0459334 
0.0433459 -0.0353282 0.0469932 -0.0160452 -0.0323821 0.0468728 0.0414517 -0.0114994 0.0474312 
0.00264867 -0.0338128 0.0502094 0.0218308 -0.0192565 0.0503245 -0.00229178 0.0020129 0.049131 
0.023953 0.00820576 0.0497794 0.0101031 -0.0273014 0.0514015 -0.032208 0.0306075 0.0512662 
-0.0422696 0.0340949 0.0515264 0.0262592 -0.0217201 0.0526296 -0.0183202 -0.0175475 0.0523938 
0.0277548 0.0042931 0.0528703 0.0133448 0.00646544 0.0522012 0.0354139 0.0312817 0.0527706 
0.0323804 -0.0132471 0.0530368 0.00153271 0.0201988 0.0540929 -0.00474481 -0.00600267 0.0547988 
0.0412685 -0.0295104 0.0558401 -0.00446216 -0.0255279 0.0560835 -0.0368667 0.0306348 0.0567418 
0.0262096 -0.0449372 0.0569676 -0.0393221 -0.0167834 0.0582249 0.0342493 -0.0115037 0.0576435 
0.012585 0.0155082 0.057293 0.0152528 0.033152 0.0570888 -0.0326334 -0.00963456 0.058777 
0.00314898 0.00491531 0.0585874 0.0223025 -0.0112244 0.0600197 -0.0160353 0.0448572 0.0602511 
-0.0207563 -0.0111167 0.0615384 0.0153641 0.0146287 0.0611862 -0.0269229 0.0267788 0.0612084 
-0.0213481 0.0319153 0.0616934 0.0339316 -0.041715 0.0627245 -0.0449336 -0.00957357 0.0631979 
0.00265626 0.00371614 0.0629609 0.0114764 0.0140289 0.062359 -0.0102477 0.0267602 0.0634561 
0.00513794 0.0433856 0.0634508 0.0164577 0.0353116 0.0658006 0.0439232 0.0371117 0.0656907 
-0.0329608 -0.0218045 0.0678665 0.0302919 -0.0148257 0.0677473 -0.0371624 0.011326 0.0682336 
-0.0328109 -0.0226975 0.0689364 -0.024842 -0.00884532 0.0688668 0.0323341 0.0191974 0.0689092 
0.0185094 -0.042363 0.0703144 -0.0336946 -0.0248459 0.0699819 -0.0281804 0.0418824 0.0705579 
-0.0440308 0.0448256 0.0706343 0.0341086 -0.0368686 0.0722622 0.0414834 -0.0181367 0.0713609 
-0.0420316 -0.0145538 0.0720216 0.0320014 0.00756294 0.071988 0.0379188 0.0120326 0.0724232 
-0.015788 -0.0282898 0.074648 0.0289145 -0.0340196 0.075323 -0.0386256 -0.00983966 0.0772682 
0.0154702 -0.00154679 0.0773213 -0.0144089 0.0201081 0.0773373 -0.0437633 0.0406561 0.0771162 
-0.0419519 -0.0259749 0.0786008 0.0104707 0.0313218 0.0796743 0.00357123 -0.00830953 0.0824415 
0.0414788 -0.00521487 0.0841516 0.00635633 0.000852437 0.0835009 -0.0197415 0.0344175 0.0834404 
-0.0385899 -0.0405251 0.0847036 -0.0356048 -0.000104637 0.0844928 -0.0296003 0.0277025 0.0859144 
0.00308146 0.0401468 0.0863932 -0.00521279 -0.0413279 0.0874264 -0.0170112 0.0231088 0.0880058 
0.0131273 0.040817 0.0876378 -0.0245993 0.0193658 0.088519 0.0419483 -0.0348097 0.089847 
-0.0081225 0.0151775 0.0899743 -0.0155539 0.0359545 0.0905442 0.0433204 -0.0141837 0.0915469 
0.0282359 -0.00877456 0.0911224 -0.0256005 0.0215871 0.0912054 -0.00757157 0.00454821 0.0940623 
0.0188903 -0.0308528 0.0980082 -0.0207679 -0.0256315 0.0994924 0.00643655 -0.000956063 0.0991553 
0.00741479 -0.0295782 0.100604 0.00347554 0.00338662 0.100229 -0.00254916 -0.00379952 0.102667 

VERTICES 649 648
OFFSETS vtktypeint64
0 1 2 3 4 5 6 7 8 
9 10 11 12 13 14 15 16 17 
18 19 20 21 22 23 24 25 26 
27 28 29 30 31 32 33 34 35 
36 37 38 39 40 41 42 43 44 
45 46 47 48 49 50 51 52 53 
54 55 56 57 58 59 60 61 62 
63 64 65 66 67 68 69 70 71 
72 73 74 75 76 77 78 79 80 
81 82 83 84 85 86 87 88 89 
90 91 92 93 94 95 96 97 98 
99 100 101 102 103 104 105 106 107 
108 109 110 111 112 113 114 115 116 
117 118 119 120 121 122 123 124 125 
126 127 128 129 130 131 132 133 134 
135 136 137 138 139 140 141 142 143 
144 145 146 147 148 149 150 151 152 
153 154 155 156 157 158 159 160 161 
162 163 164 165 166 167 168 169 170 
171 172 173 174 175 176 177 178 179 
180 181 182 183 184 185 186 187 188 
189 190 191 192 193 194 195 196 197 
198 199 200 201 202 203 204 205 206 
207 208 209 210 211 212 213 214 215 
216 217 218 219 220 221 222 223 224 
225 226 227 228 229 230 231 232 233 
234 235 236 237 238 239 240 241 242 
243 244 245 246 247 248 249 250 251 
252 253 254 255 256 257 258 259 260 
261 262 263 264 265 266 267 268 269 
270 271 272 273 274 275 276 277 278 
279 280 281 282 283 284 285 286 287 
288 289 290 291 292 293 294 295 296 
297 298 299 300 301 302 303 304 305 
306 307 308 309 310 311 312 313 314 
315 316 317 318 319 320 321 322 323 
324 325 326 327 328 329 330 331 332 
333 334 335 336 337 338 339 340 341 
342 343 344 345 346 347 348 349 350 
351 352 353 354 355 356 357 358 359 
360 361 362 363 364 365 366 367 368 
369 370 371 372 373 374 375 376 377 
378 379 380 381 382 383 384 385 386 
387 388 389 390 391 392 393 394 395 
396 397 398 399 400 401 402 403 404 
405 406 407 408 409 410 411 412 413 
414 415 416 417 418 419 420 421 422 
423 424 425 426 427 428 429 430 431 
432 433 434 435 436 437 438 439 440 
441 442 443 444 445 446 447 448 449 
450 451 452 453 454 455 456 457 458 
459 460 461 462 463 464 465 466 467 
468 469 470 471 472 473 474 475 476 
477 478 479 480 481 482 483 484 485 
486 487 488 489 490 491 492 493 494 
495 496 497 498 499 500 501 502 503 
504 505 506 507 508 509 510 511 512 
513 514 515 516 517 518 519 520 521 
522 523 524 525 526 527 528 529 530 
531 532 533 534 535 536 537 538 539 
540 541 542 543 544 545 546 547 548 
549 550 551 552 553 554 555 556 557 
558 559 560 561 562 563 564 565 566 
567 568 569 570 571 572 573 574 575 
576 577 578 579 580 581 582 583 584 
585 586 587 588 589 590 591 592 593 
594 595 596 597 598 599 600 601 602 
603 604 605 606 607 608 609 610 611 
612 613 614 615 616 617 618 619 620 
621 622 623 624 625 626 627 628 629 
630 631 632 633 634 635 636 637 638 
639 640 641 642 643 644 645 646 647 
648 
CONNECTIVITY vtktypeint64
0 1 2 3 4 5 6 7 8 
9 10 11 12 13 14 15 16 17 
18 19 20 21 22 23 24 25 26 
27 28 29 30 31 32 33 34 35 
36 37 38 39 40 41 42 43 44 
45 46 47 48 49 50 51 52 53 
54 55 56 57 58 59 60 61 62 
63 64 65 66 67 68 69 70 71 
72 73 74 75 76 77 78 79 80 
81 82 83 84 85 86 87 88 89 
90 91 92 93 94 95 96 97 98 
99 100 101 102 103 104 105 106 107 
108 109 110 111 112 113 114 115 116 
117 118 119 120 121 122 123 124 125 
126 127 128 129 130 131 132 133 134 
135 136 137 138 139 140 141 142 143 
144 145 146 147 148 149 150 151 152 
153 154 155 156 157 158 159 160 161 
162 163 164 165 166 167 168 169 170 
171 172 173 174 175 176 177 178 179 
180 181 182 183 184 185 186 187 188 
189 190 191 192 193 194 195 196 197 
198 199 200 201 202 203 204 205 206 
207 208 209 210 211 212 213 214 215 
216 217 218 219 220 221 222 223 224 
225 226 227 228 229 230 231 232 233 
234 235 236 237 238 239 240 241 242 
243 244 245 246 247 248 249 250 251 
252 253 254 255 256 257 258 259 260 
261 262 263 264 265 266 267 268 269 
270 271 272 273 274 275 276 277 278 
279 280 281 282 283 284 285 286 287 
288 289 290 291 292 293 294 295 296 
297 298 299 300 301 302 303 304 305 
306 307 308 309 310 311 312 313 314 
315 316 317 318 319 320 321 322 323 
324 325 326 327 328 329 330 331 332 
333 334 335 336 337 338 339 340 341 
342 343 344 345 346 347 348 349 350 
351 352 353 354 355 356 357 358 359 
360 361 362 363 364 365 366 367 368 
369 370 371 372 373 374 375 376 377 
378 379 380 381 382 383 384 385 386 
387 388 389 390 391 392 393 394 395 
396 397 398 399 400 401 402 403 404 
405 406 407 408 409 410 411 412 413 
414 415 416 417 418 419 420 421 422 
423 424 425 426 427 428 429 430 431 
432 433 434 435 436 437 438 439 440 
441 442 443 444 445 446 447 448 449 
450 451 452 453 454 455 456 457 458 
459 460 461 462 463 464 465 466 467 
468 469 470 471 472 473 474 475 476 
477 478 479 480 481 482 483 484 485 
486 487 488 489 490 491 492 493 494 
495 496 497 498 499 500 501 502 503 
504 505 506 507 508 509 510 511 512 
513 514 515 516 517 518 519 520 521 
522 523 524 525 526 527 528 529 530 
531 532 533 534 535 536 537 538 539 
540 541 542 543 544 545 546 547 548 
549 550 551 552 553 554 555 556 557 
558 559 560 561 562 563 564 565 566 
567 568 569 570 571 572 573 574 575 
576 577 578 579 580 581 582 583 584 
585 586 587 588 589 590 591 592 593 
594 595 596 597 598 599 600 601 602 
603 604 605 606 607 608 609 610 611 
612 613 614 615 616 617 618 619 620 
621 622 623 624 625 626 627 628 629 
630 631 632 633 634 635 636 637 638 
639 640 641 642 643 644 645 646 647 

POINT_DATA 648
FIELD FieldData 12
id 1 648 int
24 96 61 141 236 161 76 275 98 
390 218 429 314 508 303 183 415 121 
484 238 298 168 240 227 248 324 32 
75 90 495 486 261 288 255 446 384 
15 54 447 357 330 104 30 506 328 
318 351 463 188 113 271 35 326 34 
411 122 319 229 51 347 404 505 137 
409 267 223 64 167 439 355 290 500 
349 16 399 243 263 2 478 456 467 
424 112 4 432 60 378 21 202 40 
110 337 287 163 199 222 85 198 320 
412 91 207 22 5 331 317 174 470 
479 154 496 444 211 292 427 377 132 
66 196 36 175 458 407 454 129 297 
310 417 166 49 100 162 408 498 410 
451 321 201 327 437 155 435 386 62 
406 375 84 140 457 256 92 459 367 
304 185 13 190 282 28 440 289 73 
8 106 483 157 293 311 10 72 341 
83 186 418 450 214 401 322 150 491 
178 308 433 339 18 488 158 29 313 
233 246 475 164 366 87 115 226 477 
295 472 237 111 247 381 58 215 336 
383 370 125 57 385 465 216 396 353 
474 165 373 169 119 193 364 219 14 
189 9 195 280 187 81 253 148 362 
372 200 134 356 88 107 128 291 176 
59 231 428 127 278 515 11 151 86 
423 197 469 149 521 12 343 26 270 
251 346 414 146 6 257 20 208 63 
504 65 45 397 272 102 352 74 299 
17 395 392 431 394 268 52 239 250 
393 294 79 416 329 170 260 53 252 
171 142 205 334 244 56 363 78 206 
461 94 232 487 323 462 38 265 144 
420 279 325 108 342 89 333 493 42 
368 425 345 273 117 529 109 348 123 
93 71 105 360 371 217 379 213 481 
225 68 156 335 116 403 25 43 1 
405 204 301 426 266 455 286 361 350 
147 430 460 135 305 70 281 421 182 
31 471 489 445 448 380 285 212 126 
138 130 139 276 124 221 254 179 466 
476 82 354 449 376 3 50 542 77 
453 338 296 442 181 315 482 413 55 
210 359 436 340 153 316 480 7 520 
114 180 536 302 438 136 160 274 143 
374 194 519 300 145 443 507 332 559 
258 99 177 441 23 511 80 499 46 
41 33 191 309 434 159 344 47 307 
103 234 526 538 284 503 501 245 220 
209 312 402 69 522 497 48 358 228 
485 509 452 242 388 543 398 502 44 
422 490 468 473 118 131 387 120 553 
259 101 365 389 262 97 269 494 391 
203 591 173 283 192 516 39 567 464 
152 172 230 562 492 306 95 27 224 
133 382 528 419 249 277 241 549 67 
589 37 400 184 587 369 235 523 19 
264 546 601 524 571 580 518 576 551 
566 564 533 513 547 517 612 540 577 
525 527 532 545 592 572 563 615 514 
605 570 638 616 558 565 510 645 596 
550 573 539 613 512 623 530 561 557 
548 604 594 534 618 628 560 579 617 
593 599 614 585 622 637 583 597 554 
598 633 535 586 552 531 578 537 595 
541 569 607 635 581 555 639 626 603 
590 556 620 629 634 544 610 625 575 
574 611 608 647 630 600 648 568 609 
643 632 588 606 582 584 619 624 644 
602 646 631 636 627 621 640 641 642 

type 1 648 int
1 1 1 1 1 1 1 1 1 
1 1 1 1 1 1 1 1 1 
1 1 1 1 1 1 1 1 1 
1 1 1 1 1 1 1 1 1 
2 1 1 1 1 1 1 1 1 
1 1 1 1 1 1 1 1 1 
1 1 1 1 1 1 1 1 1 
1 1 1 1 1 1 1 1 1 
1 2 1 1 1 3 1 1 1 
1 1 2 1 1 1 1 1 1 
1 1 1 1 1 1 1 1 1 
1 1 1 1 2 1 1 1 1 
1 1 1 1 1 1 1 1 1 
1 1 1 1 1 1 1 1 1 
1 1 1 1 1 1 1 1 1 
1 1 1 1 1 1 1 1 1 
1 1 1 1 1 1 1 1 1 
1 1 2 1 1 1 1 1 1 
2 1 1 1 1 1 2 1 1 
1 1 1 1 1 1 1 1 1 
1 1 1 1 1 1 1 1 1 
1 1 1 1 1 1 1 1 1 
1 1 1 1 1 1 1 1 1 
1 1 1 1 1 1 1 1 1 
1 1 1 1 1 1 1 1 2 
1 2 1 1 1 1 1 1 1 
1 1 1 1 1 1 1 1 1 
1 1 1 1 1 1 2 1 1 
1 1 1 1 1 2 1 1 1 
1 1 1 1 2 1 1 1 1 
1 1 1 1 1 1 1 1 1 
1 1 1 1 1 1 1 1 1 
1 1 1 1 1 1 1 1 1 
1 1 1 1 1 1 1 1 1 
1 1 1 1 1 1 1 1 1 
1 1 1 1 1 1 1 1 1 
1 1 1 1 1 1 1 1 1 
1 1 1 1 1 1 1 1 1 
1 1 1 1 1 1 1 1 4 
1 1 1 1 1 1 1 1 1 
1 1 1 1 1 1 1 1 1 
1 1 1 1 1 1 1 1 1 
1 1 1 1 1 1 1 1 1 
1 1 1 1 1 2 1 1 1 
1 1 1 1 1 1 1 1 1 
1 1 1 1 1 1 1 2 1 
1 1 1 1 1 1 1 1 1 
1 1 1 1 1 1 1 1 1 
1 1 1 1 1 1 1 1 1 
1 1 1 1 1 1 1 1 1 
1 1 1 1 1 1 1 1 1 
1 1 1 1 1 1 1 1 1 
1 1 1 1 1 1 1 1 1 
1 1 1 1 1 1 1 1 1 
1 1 1 1 1 1 1 1 1 
1 1 1 1 1 2 1 1 1 
1 1 1 1 1 1 1 1 1 
1 1 1 1 1 1 1 1 1 
1 1 1 1 1 1 1 1 1 
1 1 1 1 1 1 1 1 1 
1 1 1 1 1 1 1 1 1 
1 1 1 1 1 1 1 1 1 
1 1 1 1 1 1 1 1 1 
1 1 1 1 2 1 1 1 1 
1 1 1 1 1 1 1 1 1 
1 1 1 1 1 1 1 1 1 
1 1 1 1 1 1 1 1 1 
1 1 1 1 1 1 1 1 1 
1 1 1 1 2 1 1 1 1 
1 1 1 1 1 1 1 1 1 
1 1 1 1 1 1 1 1 1 
1 1 1 1 1 1 1 1 1 

i 3 648 int
0 0 0 0 0 0 0 0 0 
0 0 0 0 0 0 0 0 0 
0 0 0 0 0 0 0 0 0 
0 0 0 0 0 0 0 0 0 
0 0 0 0 0 0 0 0 0 
0 0 0 0 0 0 0 0 0 
0 0 0 0 0 0 0 0 0 
0 0 0 0 0 0 0 0 0 
0 0 0 0 0 0 0 0 0 
0 0 0 0 0 0 0 0 0 
0 0 0 0 0 0 0 0 0 
0 0 0 0 0 0 0 0 0 
0 0 0 0 0 0 0 0 0 
0 0 0 0 0 0 0 0 0 
0 0 0 0 0 0 0 0 0 
0 0 0 0 0 0 0 0 0 
0 0 0 0 0 0 0 0 0 
0 0 0 0 0 0 0 0 0 
0 0 0 0 0 0 0 0 0 
0 0 0 0 0 0 0 0 0 
0 0 0 0 0 0 0 0 0 
0 0 0 0 0 0 0 0 0 
0 0 0 0 0 0 0 0 0 
0 0 0 0 0 0 0 0 0 
0 0 0 0 0 0 0 0 0 
0 0 0 0 0 0 0 0 0 
0 0 0 0 0 0 0 0 0 
0 0 0 0 0 0 0 0 0 
0 0 0 0 0 0 0 0 0 
0 0 0 0 0 0 0 0 0 
0 0 0 0 0 0 0 0 0 
0 0 0 0 0 0 0 0 0 
0 0 0 0 0 0 0 0 0 
0 0 0 0 0 0 0 0 0 
0 0 0 0 0 0 0 0 0 
0 0 0 0 0 0 0 0 0 
0 0 0 0 0 0 0 0 0 
0 0 0 0 0 0 0 0 0 
0 0 0 0 0 0 0 0 0 
0 0 0 0 0 0 0 0 0 
0 0 0 0 0 0 0 0 0 
0 0 0 0 0 0 0 0 0 
0 0 0 0 0 0 0 0 0 
0 0 0 0 0 0 0 0 0 
0 0 0 0 0 0 0 0 0 
0 0 0 0 0 0 0 0 0 
0 0 0 0 0 0 0 0 0 
0 0 0 0 0 0 0 0 0 
0 0 0 0 0 0 0 0 0 
0 0 0 0 0 0 0 0 0 
0 0 0 0 0 0 0 0 0 
0 0 0 0 0 0 0 0 0 
0 0 0 0 0 0 0 0 0 
0 0 0 0 0 0 0 0 0 
0 0 0 0 0 0 0 0 0 
0 0 0 0 0 0 0 0 0 
0 0 0 0 0 0 0 0 0 
0 0 0 0 0 0 0 0 0 
0 0 0 0 0 0 0 0 0 
0 0 0 0 0 0 0 0 0 
0 0 0 0 0 0 0 0 0 
0 0 0 0 0 0 0 0 0 
0 0 0 0 0 0 0 0 0 
0 0 0 0 0 0 0 0 0 
0 0 0 0 0 0 0 0 0 
0 0 0 0 0 0 0 0 0 
0 0 0 0 0 0 0 0 0 
0 0 0 0 0 0 0 0 0 
0 0 0 0 0 0 0 0 0 
0 0 0 0 0 0 0 0 0 
0 0 0 0 0 0 0 0 0 
0 0 0 0 0 0 0 0 0 
0 0 0 0 0 0 0 0 0 
0 0 0 0 0 0 0 0 0 
0 0 0 0 0 0 0 0 0 
0 0 0 0 0 0 0 0 0 
0 0 0 0 0 0 0 0 0 
0 0 0 0 0 0 0 0 0 
0 0 0 0 0 0 0 0 0 
0 0 0 0 0 0 0 0 0 
0 0 0 0 0 0 0 0 0 
0 0 0 0 0 0 0 0 0 
0 0 0 0 0 0 0 0 0 
0 0 0 0 0 0 0 0 0 
0 0 0 0 0 0 0 0 0 
0 0 0 0 0 0 0 0 0 
0 0 0 0 0 0 0 0 0 
0 0 0 0 0 0 0 0 0 
0 0 0 0 0 0 0 0 0 
0 0 0 0 0 0 0 0 0 
0 0 0 0 0 0 0 0 0 
0 0 0 0 0 0 0 0 0 
0 0 0 0 0 0 0 0 0 
0 0 0 0 0 0 0 0 0 
0 0 0 0 0 0 0 0 0 
0 0 0 0 0 0 0 0 0 
0 0 0 0 0 0 0 0 0 
0 0 0 0 0 0 0 0 0 
0 0 0 0 0 0 0 0 0 
0 0 0 0 0 0 0 0 0 
0 0 0 0 0 0 0 0 0 
0 0 0 0 0 0 0 0 0 
0 0 0 0 0 0 0 0 0 
0 0 0 0 0 0 0 0 0 
0 0 0 0 0 0 0 0 0 
0 0 0 0 0 0 0 0 0 
0 0 0 0 0 0 0 0 0 
0 0 0 0 0 0 0 0 0 
0 0 0 0 0 0 0 0 0 
0 0 0 0 0 0 0 0 0 
0 0 0 0 0 0 0 0 0 
0 0 0 0 0 0 0 0 0 
0 0 0 0 0 0 0 0 0 
0 0 0 0 0 0 0 0 0 
0 0 0 0 0 0 0 0 0 
0 0 0 0 0 0 0 0 0 
0 0 0 0 0 0 0 0 0 
0 0 0 0 0 0 0 0 0 
0 0 0 0 0 0 0 0 0 
0 0 0 0 0 0 0 0 0 
0 0 0 0 0 0 0 0 0 
0 0 0 0 0 0 0 0 0 
0 0 0 0 0 0 0 0 0 
0 0 0 0 0 0 0 0 0 
0 0 0 0 0 0 0 0 0 
0 0 0 0 0 0 0 0 0 
0 0 0 0 0 0 0 0 0 
0 0 0 0 0 0 0 0 0 
0 0 0 0 0 0 0 0 0 
0 0 0 0 0 0 0 0 0 
0 0 0 0 0 0 0 0 0 
0 0 0 0 0 0 0 0 0 
0 0 0 0 0 0 0 0 0 
0 0 0 0 0 0 0 0 0 
0 0 0 0 0 0 0 0 0 
0 0 0 0 0 0 0 0 0 
0 0 0 0 0 0 0 0 0 
0 0 0 0 0 0 0 0 0 
0 0 0 0 0 0 0 0 0 
0 0 0 0 0 0 0 0 0 
0 0 0 0 0 0 0 0 0 
0 0 0 0 0 0 0 0 0 
0 0 0 0 0 0 0 0 0 
0 0 0 0 0 0 0 0 0 
0 0 0 0 0 0 0 0 0 
0 0 0 0 0 0 0 0 0 
0 0 0 0 0 0 0 0 0 
0 0 0 0 0 0 0 0 0 
0 0 0 0 0 0 0 0 0 
0 0 0 0 0 0 0 0 0 
0 0 0 0 0 0 0 0 0 
0 0 0 0 0 0 0 0 0 
0 0 0 0 0 0 0 0 0 
0 0 0 0 0 0 0 0 0 
0 0 0 0 0 0 0 0 0 
0 0 0 0 0 0 0 0 0 
0 0 0 0 0 0 0 0 0 
0 0 0 0 0 0 0 0 0 
0 0 0 0 0 0 0 0 0 
0 0 0 0 0 0 0 0 0 
0 0 0 0 0 0 0 0 0 
0 0 0 0 0 0 0 0 0 
0 0 0 0 0 0 0 0 0 
0 0 0 0 0 0 0 0 0 
0 0 0 0 0 0 0 0 0 
0 0 0 0 0 0 0 0 0 
0 0 0 0 0 0 0 0 0 
0 0 0 0 0 0 0 0 0 
0 0 0 0 0 0 0 0 0 
0 0 0 0 0 0 0 0 0 
0 0 0 0 0 0 0 0 0 
0 0 0 0 0 0 0 0 0 
0 0 0 0 0 0 0 0 0 
0 0 0 0 0 0 0 0 0 
0 0 0 0 0 0 0 0 0 
0 0 0 0 0 0 0 0 0 
0 0 0 0 0 0 0 0 0 
0 0 0 0 0 0 0 0 0 
0 0 0 0 0 0 0 0 0 
0 0 0 0 0 0 0 0 0 
0 0 0 0 0 0 0 0 0 
0 0 0 0 0 0 0 0 0 
0 0 0 0 0 0 0 0 0 
0 0 0 0 0 0 0 0 0 
0 0 0 0 0 0 0 0 0 
0 0 0 0 0 0 0 0 0 
0 0 0 0 0 0 0 0 0 
0 0 0 0 0 0 0 0 0 
0 0 0 0 0 0 0 0 0 
0 0 0 0 0 0 0 0 0 
0 0 0 0 0 0 0 0 0 
0 0 0 0 0 0 0 0 0 
0 0 0 0 0 0 0 0 0 
0 0 0 0 0 0 0 0 0 
0 0 0 0 0 0 0 0 0 
0 0 0 0 0 0 0 0 0 
0 0 0 0 0 0 0 0 0 
0 0 0 0 0 0 0 0 0 
0 0 0 0 0 0 0 0 0 
0 0 0 0 0 0 0 0 0 
0 0 0 0 0 0 0 0 0 
0 0 0 0 0 0 0 0 0 
0 0 0 0 0 0 0 0 0 
0 0 0 0 0 0 0 0 0 
0 0 0 0 0 0 0 0 0 
0 0 0 0 0 0 0 0 0 
0 0 0 0 0 0 0 0 0 
0 0 0 0 0 0 0 0 0 
0 0 0 0 0 0 0 0 0 
0 0 0 0 0 0 0 0 0 
0 0 0 0 0 0 0 0 0 
0 0 0 0 0 0 0 0 0 
0 0 0 0 0 0 0 0 0 
0 0 0 0 0 0 0 0 0 
0 0 0 0 0 0 0 0 0 
0 0 0 0 0 0 0 0 0 

v 3 648 double
0 0 0.18762719793 0 0 0.23648357149 0 0 0.22857810664 
0 0 0.21287021697 0 0 0.23293483075 0 0 0.22978985738 
0 0 0.22296647004 0 0 -0.5811241875 0 0 0.21504467778 
0 0 -0.5811241875 0 0 0.18876790108 0 0 0.22823175081 
0 0 0.21262902456 0 0 0.15957339171 0 0 0.18586903286 
0 0 -0.5811241875 0 0 0.21508027993 0 0 -0.5811241875 
0 0 -0.5811241875 0 0 0.17835232251 0 0 0.22074946234 
0 0 0.19819335589 0 0 0.22682723559 0 0 0.18022997405 
0 0 0.22034948595 0 0 0.18932497832 0 0 0.2290744641 
0 0 -0.5811241875 0 0 0.2116492242 0 0 0.21568985711 
0 0 0.22397189267 0 0 0.17479378669 0 0 0.17981171245 
0 0 -0.5811241875 0 0 -0.5811241875 0 0 0.21999012922 
0 0 -0.5811241875 0 0 0.2242369558 0 0 -0.5811241875 
0 0 0.22503419577 0 0 0.22142308518 0 0 0.21737410205 
0 0 0.22427332218 0 0 0.15533654271 0 0 -0.5811241875 
0 0 0.18066550303 0 0 0.21137425693 0 0 0.1662222917 
0 0 0.20930336513 0 0 -0.5811241875 0 0 -0.5811241875 
0 0 -0.5811241875 0 0 0.21358039687 0 0 -0.5811241875 
0 0 0.21455085003 0 0 -0.5811241875 0 0 0.2085874339 
0 0 0.20671602016 0 0 0.16748349254 0 0 0.1600082256 
0 0 0.15325910183 0 0 -0.5453741875 0 0 0.16502267387 
0 0 0.21021553399 0 0 0.16775581895 0 0 -0.5811241875 
0 0 -0.5811241875 0 0 0.19640622914 0 0 0.1685018628 
0 0 0.16224431831 0 0 0.20302078997 0 0 0.20260299698 
0 0 0.20023049807 0 0 0.22739753975 0 0 0.20357497473 
0 0 -0.5811241875 0 0 0.20217609918 0 0 0.26481946505 
0 0 0.16236434119 0 0 0.15924003788 0 0 0.16254637369 
0 0 0.21147893011 0 0 0.2122247643 0 0 0.24348258077 
0 0 0.15477226175 0 0 0.17830871886 0 0 -0.5811241875 
0 0 0.21312589378 0 0 -0.5811241875 0 0 0.17773126951 
0 0 0.16689874834 0 0 0.20270560353 0 0 -0.5811241875 
0 0 0.1668537669 0 0 0.20870218855 0 0 0.21117645261 
0 0 0.15385912425 0 0 -0.5811241875 0 0 -0.5811241875 
0 0 0.16791748066 0 0 0.20249667665 0 0 0.17330888742 
0 0 0.20281916274 0 0 0.22248237614 0 0 0.14900299375 
0 0 0.15111007052 0 0 -0.5811241875 0 0 0.14340269885 
0 0 -0.5811241875 0 0 0.13581607291 0 0 0.18667799159 
0 0 0.14556762411 0 0 -0.5811241875 0 0 0.15202653709 
0 0 0.1949719905 0 0 -0.5811241875 0 0 0.14999971358 
0 0 0.15187267634 0 0 -0.5811241875 0 0 0.14944557675 
0 0 0.13742099062 0 0 0.13256586886 0 0 0.13417507228 
0 0 0.19510246489 0 0 -0.5811241875 0 0 0.14318217365 
0 0 0.13812677065 0 0 0.19452479497 0 0 0.13013476435 
0 0 0.13413502141 0 0 0.1843677025 0 0 0.1937179656 
0 0 0.18655494165 0 0 -0.5811241875 0 0 0.19473787469 
0 0 -0.5811241875 0 0 0.19205324157 0 0 -0.5811241875 
0 0 0.16180223968 0 0 -0.5811241875 0 0 0.19654306089 
0 0 0.19294852913 0 0 0.14089181787 0 0 -0.5811241875 
0 0 0.19538099012 0 0 -0.5811241875 0 0 -0.5811241875 
0 0 -0.5811241875 0 0 0.1734062434 0 0 0.17842190659 
0 0 0.1285870901 0 0 0.13051410335 0 0 0.1693711621 
0 0 0.12693168856 0 0 0.11212653574 0 0 0.20779021339 
0 0 0.11873411073 0 0 0.15017853119 0 0 -0.5811241875 
0 0 0.1721115145 0 0 0.14342394871 0 0 0.18129479235 
0 0 0.19687065003 0 0 0.1230917082 0 0 0.17373084243 
0 0 -0.5811241875 0 0 0.12281202922 0 0 -0.5811241875 
0 0 0.21114763689 0 0 0.11255225461 0 0 -0.5811241875 
0 0 0.16719109935 0 0 0.1712292598 0 0 0.12060055737 
0 0 0.11484894525 0 0 0.12032090805 0 0 -0.5811241875 
0 0 0.14562722004 0 0 0.11735519429 0 0 0.11208713282 
0 0 -0.5811241875 0 0 -0.5811241875 0 0 0.12258760836 
0 0 0.13073695755 0 0 0.11037532914 0 0 0.17742056504 
0 0 0.16559585659 0 0 0.16448253033 0 0 -0.5811241875 
0 0 0.18112265944 0 0 0.13838400974 0 0 -0.5811241875 
0 0 0.10662128012 0 0 0.15773137069 0 0 0.16437102514 
0 0 0.10074092962 0 0 -0.5811241875 0 0 -0.5811241875 
0 0 -0.5811241875 0 0 -0.5811241875 0 0 0.16049142495 
0 0 -0.5811241875 0 0 0.157353356 0 0 0.14770774848 
0 0 0.15916161714 0 0 0.14862649073 0 0 0.14864994202 
0 0 0.098410912348 0 0 0.11757982731 0 0 0.15853120902 
0 0 0.094214941931 0 0 0.14816821721 0 0 0.10267637249 
0 0 -0.5811241875 0 0 0.10021326408 0 0 0.15148789285 
0 0 -0.5811241875 0 0 0.1593895686 0 0 0.15954811871 
0 0 0.10831383014 0 0 -0.5811241875 0 0 0.16262301766 
0 0 0.16209854708 0 0 0.11753625156 0 0 0.1811813807 
0 0 0.15432864258 0 0 0.19370223163 0 0 0.10643938045 
0 0 0.17349910604 0 0 0.15518864709 0 0 -0.5811241875 
0 0 0.16418837824 0 0 -0.5811241875 0 0 0.11542832364 
0 0 0.12527536138 0 0 0.13323960083 0 0 0.13390749822 
0 0 0.14295487972 0 0 0.14450193824 0 0 0.13532864323 
0 0 -0.5811241875 0 0 0.13826639347 0 0 0.14159337676 
0 0 -0.5811241875 0 0 0.13324385446 0 0 0.13157820043 
0 0 0.14396252138 0 0 -0.5811241875 0 0 -0.5063741875 
0 0 0.16445575686 0 0 -0.5811241875 0 0 0.14212252364 
0 0 0.13909326915 0 0 0.13469907858 0 0 -0.5811241875 
0 0 0.14054880603 0 0 -0.4933741875 0 0 0.16718351316 
0 0 -0.5811241875 0 0 0.13664453854 0 0 0.1350068851 
0 0 -0.5811241875 0 0 -0.5811241875 0 0 -0.5811241875 
0 0 -0.5811241875 0 0 0.14730585562 0 0 -0.5811241875 
0 0 -0.5811241875 0 0 -0.5811241875 0 0 -0.5811241875 
0 0 -0.5486241875 0 0 -0.5811241875 0 0 -0.5811241875 
0 0 -0.5811241875 0 0 -0.5811241875 0 0 -0.5811241875 
0 0 -0.5811241875 0 0 -0.5811241875 0 0 -0.5811241875 
0 0 -0.5811241875 0 0 -0.5811241875 0 0 -0.5811241875 
0 0 -0.5811241875 0 0 -0.5811241875 0 0 -0.5811241875 
0 0 -0.5811241875 0 0 -0.5811241875 0 0 -0.5811241875 
0 0 -0.5811241875 0 0 -0.5811241875 0 0 -0.5811241875 
0 0 -0.5811241875 0 0 -0.5811241875 0 0 -0.5811241875 
0 0 -0.5811241875 0 0 -0.5811241875 0 0 -0.5811241875 
0 0 -0.5811241875 0 0 -0.5811241875 0 0 -0.5811241875 
0 0 -0.5811241875 0 0 -0.5811241875 0 0 -0.5811241875 
0 0 -0.5811241875 0 0 -0.5811241875 0 0 -0.5811241875 
0 0 -0.5811241875 0 0 -0.5811241875 0 0 -0.5811241875 
0 0 -0.5811241875 0 0 -0.5811241875 0 0 -0.5811241875 
0 0 -0.5811241875 0 0 -0.5811241875 0 0 -0.5811241875 
0 0 -0.5811241875 0 0 -0.5811241875 0 0 -0.5811241875 
0 0 -0.5811241875 0 0 -0.5811241875 0 0 -0.5811241875 
0 0 -0.5811241875 0 0 -0.5811241875 0 0 -0.5811241875 
0 0 -0.5811241875 0 0 -0.5811241875 0 0 -0.5811241875 
0 0 -0.5811241875 0 0 -0.5811241875 0 0 -0.4771241875 
0 0 -0.5811241875 0 0 -0.5811241875 0 0 -0.5811241875 
0 0 -0.5811241875 0 0 -0.5811241875 0 0 -0.5811241875 
0 0 -0.5811241875 0 0 -0.5811241875 0 0 -0.5811241875 
0 0 -0.5811241875 0 0 -0.5811241875 0 0 -0.5811241875 
0 0 -0.5811241875 0 0 -0.5811241875 0 0 -0.5811241875 
0 0 -0.5811241875 0 0 -0.5811241875 0 0 -0.5811241875 
0 0 -0.5811241875 0 0 -0.5811241875 0 0 -0.5811241875 
0 0 -0.5811241875 0 0 -0.5811241875 0 0 -0.5811241875 
0 0 -0.5811241875 0 0 -0.5811241875 0 0 -0.5811241875 
0 0 -0.5811241875 0 0 -0.5811241875 0 0 -0.5811241875 
0 0 -0.5811241875 0 0 -0.5811241875 0 0 -0.5811241875 
0 0 -0.5811241875 0 0 -0.5811241875 0 0 -0.5811241875 
0 0 -0.5811241875 0 0 -0.5811241875 0 0 -0.5811241875 
0 0 -0.5811241875 0 0 -0.5811241875 0 0 -0.5811241875 
0 0 -0.5811241875 0 0 -0.5811241875 0 0 -0.5811241875 
0 0 -0.5811241875 0 0 -0.5811241875 0 0 -0.5811241875 
0 0 -0.5811241875 0 0 -0.5811241875 0 0 -0.5811241875 
0 0 -0.5811241875 0 0 -0.5811241875 0 0 -0.5811241875 
0 0 -0.5811241875 0 0 -0.5811241875 0 0 -0.5811241875 
0 0 -0.5811241875 0 0 -0.5811241875 0 0 -0.5811241875 
0 0 -0.5811241875 0 0 -0.5811241875 0 0 -0.5811241875 
0 0 -0.5811241875 0 0 -0.4511241875 0 0 -0.5811241875 
0 0 -0.5811241875 0 0 -0.5811241875 0 0 -0.5811241875 
0 0 -0.5811241875 0 0 -0.5811241875 0 0 -0.5811241875 
0 0 -0.5811241875 0 0 -0.5811241875 0 0 -0.5811241875 
0 0 -0.5811241875 0 0 -0.5811241875 0 0 -0.5811241875 
0 0 -0.5811241875 0 0 -0.5811241875 0 0 -0.5811241875 
0 0 -0.5811241875 0 0 -0.5811241875 0 0 -0.4966241875 
0 0 -0.5811241875 0 0 -0.5811241875 0 0 -0.4608741875 
0 0 -0.5811241875 0 0 -0.5811241875 0 0 -0.5811241875 
0 0 -0.5811241875 0 0 -0.5811241875 0 0 -0.5811241875 
0 0 -0.5811241875 0 0 -0.5811241875 0 0 -0.4966241875 
0 0 -0.5811241875 0 0 -0.5811241875 0 0 -0.5811241875 
0 0 -0.5258741875 0 0 -0.5811241875 0 0 -0.4316241875 
0 0 -0.5811241875 0 0 -0.5811241875 0 0 -0.5811241875 
0 0 -0.5811241875 0 0 -0.5811241875 0 0 -0.5193741875 
0 0 -0.5811241875 0 0 -0.5811241875 0 0 -0.5811241875 
0 0 -0.5811241875 0 0 -0.5811241875 0 0 -0.5811241875 
0 0 -0.5811241875 0 0 -0.5811241875 0 0 -0.5811241875 
0 0 -0.5811241875 0 0 -0.5811241875 0 0 -0.5811241875 
0 0 -0.5811241875 0 0 -0.5811241875 0 0 -0.4803741875 
0 0 -0.4576241875 0 0 -0.5811241875 0 0 -0.5616241875 
0 0 -0.5681241875 0 0 -0.5811241875 0 0 -0.5811241875 
0 0 -0.5811241875 0 0 -0.5811241875 0 0 -0.5811241875 
0 0 -0.5811241875 0 0 -0.4933741875 0 0 -0.5811241875 
0 0 -0.5811241875 0 0 -0.5811241875 0 0 -0.5811241875 
0 0 -0.5811241875 0 0 -0.5193741875 0 0 -0.5811241875 
0 0 -0.5811241875 0 0 -0.5811241875 0 0 -0.4511241875 
0 0 -0.5811241875 0 0 -0.5681241875 0 0 -0.5811241875 
0 0 -0.5811241875 0 0 -0.5811241875 0 0 -0.5811241875 
0 0 -0.5811241875 0 0 -0.5811241875 0 0 -0.5811241875 
0 0 -0.5811241875 0 0 -0.5811241875 0 0 -0.4381241875 
0 0 -0.5811241875 0 0 -0.5811241875 0 0 -0.5811241875 
0 0 -0.5811241875 0 0 -0.5811241875 0 0 -0.5811241875 
0 0 -0.5811241875 0 0 -0.5811241875 0 0 -0.5811241875 
0 0 -0.5811241875 0 0 -0.3926241875 0 0 -0.5811241875 
0 0 -0.5811241875 0 0 -0.5811241875 0 0 -0.5031241875 
0 0 -0.5811241875 0 0 -0.4186241875 0 0 -0.5811241875 
0 0 -0.5811241875 0 0 -0.5811241875 0 0 -0.5811241875 
0 0 -0.4283741875 0 0 -0.5811241875 0 0 -0.5811241875 
0 0 -0.5811241875 0 0 -0.5811241875 0 0 -0.5811241875 
0 0 -0.5811241875 0 0 -0.5811241875 0 0 -0.4771241875 
0 0 -0.5811241875 0 0 -0.5811241875 0 0 -0.5811241875 
0 0 -0.5811241875 0 0 -0.4413741875 0 0 -0.5811241875 
0 0 -0.3926241875 0 0 -0.5811241875 0 0 -0.5811241875 
0 0 -0.5811241875 0 0 -0.3958741875 0 0 -0.5811241875 
0 0 -0.5811241875 0 0 -0.4901241875 0 0 -0.5811241875 
0 0 -0.5811241875 0 0 -0.4446241875 0 0 -0.3763741875 
0 0 -0.4901241875 0 0 -0.4121241875 0 0 -0.4023741875 
0 0 -0.5031241875 0 0 -0.4056241875 0 0 -0.4381241875 
0 0 -0.4186241875 0 0 -0.4218741875 0 0 -0.4641241875 
0 0 -0.5128741875 0 0 -0.4446241875 0 0 -0.5031241875 
0 0 -0.3601241875 0 0 -0.4543741875 0 0 -0.4056241875 
0 0 -0.4836241875 0 0 -0.4803741875 0 0 -0.4673741875 
0 0 -0.4478741875 0 0 -0.3893741875 0 0 -0.4121241875 
0 0 -0.4251241875 0 0 -0.3601241875 0 0 -0.5128741875 
0 0 -0.3731241875 0 0 -0.4121241875 0 0 -0.3406241875 
0 0 -0.3568741875 0 0 -0.4316241875 0 0 -0.4218741875 
0 0 -0.5193741875 0 0 -0.3373741875 0 0 -0.3828741875 
0 0 -0.4413741875 0 0 -0.4088741875 0 0 -0.4543741875 
0 0 -0.3601241875 0 0 -0.5128741875 0 0 -0.3503741875 
0 0 -0.4706241875 0 0 -0.4283741875 0 0 -0.4316241875 
0 0 -0.4413741875 0 0 -0.3731241875 0 0 -0.3861241875 
0 0 -0.4641241875 0 0 -0.3568741875 0 0 -0.3503741875 
0 0 -0.4283741875 0 0 -0.4023741875 0 0 -0.3568741875 
0 0 -0.3861241875 0 0 -0.3796241875 0 0 -0.3601241875 
0 0 -0.3991241875 0 0 -0.3536241875 0 0 -0.3438741875 
0 0 -0.3991241875 0 0 -0.3828741875 0 0 -0.4348741875 
0 0 -0.3828741875 0 0 -0.3471241875 0 0 -0.4608741875 
0 0 -0.3958741875 0 0 -0.4381241875 0 0 -0.4706241875 
0 0 -0.4023741875 0 0 -0.4608741875 0 0 -0.3861241875 
0 0 -0.4543741875 0 0 -0.4121241875 0 0 -0.3698741875 
0 0 -0.3438741875 0 0 -0.4023741875 0 0 -0.4348741875 
0 0 -0.3406241875 0 0 -0.3503741875 0 0 -0.3731241875 
0 0 -0.3926241875 0 0 -0.4348741875 0 0 -0.3536241875 
0 0 -0.3503741875 0 0 -0.3438741875 0 0 -0.4511241875 
0 0 -0.3666241875 0 0 -0.3503741875 0 0 -0.4088741875 
0 0 -0.4088741875 0 0 -0.3633741875 0 0 -0.3698741875 
0 0 -0.3373741875 0 0 -0.3503741875 0 0 -0.3763741875 
0 0 -0.3373741875 0 0 -0.4153741875 0 0 -0.3666241875 
0 0 -0.3373741875 0 0 -0.3471241875 0 0 -0.3958741875 
0 0 -0.3731241875 0 0 -0.3991241875 0 0 -0.3991241875 
0 0 -0.3536241875 0 0 -0.3503741875 0 0 -0.3373741875 
0 0 -0.3731241875 0 0 -0.3373741875 0 0 -0.3471241875 
0 0 -0.3438741875 0 0 -0.3503741875 0 0 -0.3536241875 
0 0 -0.3406241875 0 0 -0.3406241875 0 0 -0.3373741875 

f 3 648 double
0 0 -1.7425367252e-10 0 0 -1.7425367252e-10 0 0 -1.7425367252e-10 
0 0 -1.7425367252e-10 0 0 -1.7425367252e-10 0 0 -1.7425367252e-10 
0 0 -1.7425367252e-10 0 0 -1.7425367252e-10 0 0 -1.7425367252e-10 
0 0 -1.7425367252e-10 0 0 -1.7425367252e-10 0 0 -1.7425367252e-10 
0 0 -1.7425367252e-10 0 0 -1.7425367252e-10 0 0 -1.7425367252e-10 
0 0 -1.7425367252e-10 0 0 -1.7425367252e-10 0 0 -1.7425367252e-10 
0 0 -1.7425367252e-10 0 0 -1.7425367252e-10 0 0 -1.7425367252e-10 
0 0 -1.7425367252e-10 0 0 -1.7425367252e-10 0 0 -1.7425367252e-10 
0 0 -1.7425367252e-10 0 0 -1.7425367252e-10 0 0 -1.7425367252e-10 
0 0 -1.7425367252e-10 0 0 -1.7425367252e-10 0 0 -1.7425367252e-10 
0 0 -1.7425367252e-10 0 0 -1.7425367252e-10 0 0 -1.7425367252e-10 
0 0 -1.7425367252e-10 0 0 -1.7425367252e-10 0 0 -1.7425367252e-10 
0 0 -8.9019973083e-09 0 0 -1.7425367252e-10 0 0 -1.7425367252e-10 
0 0 -1.7425367252e-10 0 0 -1.7425367252e-10 0 0 -1.7425367252e-10 
0 0 -1.7425367252e-10 0 0 -1.7425367252e-10 0 0 -1.7425367252e-10 
0 0 -1.7425367252e-10 0 0 -1.7425367252e-10 0 0 -1.7425367252e-10 
0 0 -1.7425367252e-10 0 0 -1.7425367252e-10 0 0 -1.7425367252e-10 
0 0 -1.7425367252e-10 0 0 -1.7425367252e-10 0 0 -1.7425367252e-10 
0 0 -1.7425367252e-10 0 0 -1.7425367252e-10 0 0 -1.7425367252e-10 
0 0 -1.7425367252e-10 0 0 -1.7425367252e-10 0 0 -1.7425367252e-10 
0 0 -1.7425367252e-10 0 0 -1.7425367252e-10 0 0 -1.7425367252e-10 
0 0 -1.7425367252e-10 0 0 -1.7425367252e-10 0 0 -1.7425367252e-10 
0 0 -1.7425367252e-10 0 0 -1.7425367252e-10 0 0 -1.7425367252e-10 
0 0 -1.7425367252e-10 0 0 -1.7425367252e-10 0 0 -1.7425367252e-10 
0 0 -1.7425367252e-10 0 0 -8.9019973083e-09 0 0 -1.7425367252e-10 
0 0 -1.7425367252e-10 0 0 -1.7425367252e-10 0 0 -6.8918688838e-08 
0 0 -1.7425367252e-10 0 0 -1.7425367252e-10 0 0 -1.7425367252e-10 
0 0 -1.7425367252e-10 0 0 -1.7425367252e-10 0 0 -8.9019973083e-09 
0 0 -1.7425367252e-10 0 0 -1.7425367252e-10 0 0 -1.7425367252e-10 
0 0 -1.7425367252e-10 0 0 -1.7425367252e-10 0 0 -1.7425367252e-10 
0 0 -1.7425367252e-10 0 0 -1.7425367252e-10 0 0 -1.7425367252e-10 
0 0 -1.7425367252e-10 0 0 -1.7425367252e-10 0 0 -1.7425367252e-10 
0 0 -1.7425367252e-10 0 0 -1.7425367252e-10 0 0 -1.7425367252e-10 
0 0 -1.7425367252e-10 0 0 -1.7425367252e-10 0 0 -1.7425367252e-10 
0 0 -1.7425367252e-10 0 0 -8.9019973083e-09 0 0 -1.7425367252e-10 
0 0 -1.7425367252e-10 0 0 -1.7425367252e-10 0 0 -1.7425367252e-10 
0 0 -1.7425367252e-10 0 0 -1.7425367252e-10 0 0 -1.7425367252e-10 
0 0 -1.7425367252e-10 0 0 -1.7425367252e-10 0 0 -1.7425367252e-10 
0 0 -1.7425367252e-10 0 0 -1.7425367252e-10 0 0 -1.7425367252e-10 
0 0 -1.7425367252e-10 0 0 -1.7425367252e-10 0 0 -1.7425367252e-10 
0 0 -1.7425367252e-10 0 0 -1.7425367252e-10 0 0 -1.7425367252e-10 
0 0 -1.7425367252e-10 0 0 -1.7425367252e-10 0 0 -1.7425367252e-10 
0 0 -1.7425367252e-10 0 0 -1.7425367252e-10 0 0 -1.7425367252e-10 
0 0 -1.7425367252e-10 0 0 -1.7425367252e-10 0 0 -1.7425367252e-10 
0 0 -1.7425367252e-10 0 0 -1.7425367252e-10 0 0 -1.7425367252e-10 
0 0 -1.7425367252e-10 0 0 -1.7425367252e-10 0 0 -1.7425367252e-10 
0 0 -1.7425367252e-10 0 0 -1.7425367252e-10 0 0 -1.7425367252e-10 
0 0 -1.7425367252e-10 0 0 -1.7425367252e-10 0 0 -1.7425367252e-10 
0 0 -1.7425367252e-10 0 0 -1.7425367252e-10 0 0 -1.7425367252e-10 
0 0 -1.7425367252e-10 0 0 -1.7425367252e-10 0 0 -1.7425367252e-10 
0 0 -1.7425367252e-10 0 0 -1.7425367252e-10 0 0 -1.7425367252e-10 
0 0 -1.7425367252e-10 0 0 -1.7425367252e-10 0 0 -8.9019973083e-09 
0 0 -1.7425367252e-10 0 0 -1.7425367252e-10 0 0 -1.7425367252e-10 
0 0 -1.7425367252e-10 0 0 -1.7425367252e-10 0 0 -1.7425367252e-10 
0 0 -8.9019973083e-09 0 0 -1.7425367252e-10 0 0 -1.7425367252e-10 
0 0 -1.7425367252e-10 0 0 -1.7425367252e-10 0 0 -1.7425367252e-10 
0 0 -8.9019973083e-09 0 0 -1.7425367252e-10 0 0 -1.7425367252e-10 
0 0 -1.7425367252e-10 0 0 -1.7425367252e-10 0 0 -1.7425367252e-10 
0 0 -1.7425367252e-10 0 0 -1.7425367252e-10 0 0 -1.7425367252e-10 
0 0 -1.7425367252e-10 0 0 -1.7425367252e-10 0 0 -1.7425367252e-10 
0 0 -1.7425367252e-10 0 0 -1.7425367252e-10 0 0 -1.7425367252e-10 
0 0 -1.7425367252e-10 0 0 -1.7425367252e-10 0 0 -1.7425367252e-10 
0 0 -1.7425367252e-10 0 0 -1.7425367252e-10 0 0 -1.7425367252e-10 
0 0 -1.7425367252e-10 0 0 -1.7425367252e-10 0 0 -1.7425367252e-10 
0 0 -1.7425367252e-10 0 0 -1.7425367252e-10 0 0 -1.7425367252e-10 
0 0 -1.7425367252e-10 0 0 -1.7425367252e-10 0 0 -1.7425367252e-10 
0 0 -1.7425367252e-10 0 0 -1.7425367252e-10 0 0 -1.7425367252e-10 
0 0 -1.7425367252e-10 0 0 -1.7425367252e-10 0 0 -1.7425367252e-10 
0 0 -1.7425367252e-10 0 0 -1.7425367252e-10 0 0 -1.7425367252e-10 
0 0 -1.7425367252e-10 0 0 -1.7425367252e-10 0 0 -1.7425367252e-10 
0 0 -1.7425367252e-10 0 0 -1.7425367252e-10 0 0 -1.7425367252e-10 
0 0 -1.7425367252e-10 0 0 -1.7425367252e-10 0 0 -1.7425367252e-10 
0 0 -1.7425367252e-10 0 0 -1.7425367252e-10 0 0 -1.7425367252e-10 
0 0 -1.7425367252e-10 0 0 -1.7425367252e-10 0 0 -1.7425367252e-10 
0 0 -1.7425367252e-10 0 0 -1.7425367252e-10 0 0 -8.9019973083e-09 
0 0 -1.7425367252e-10 0 0 -8.9019973083e-09 0 0 -1.7425367252e-10 
0 0 -1.7425367252e-10 0 0 -1.7425367252e-10 0 0 -1.7425367252e-10 
0 0 -1.7425367252e-10 0 0 -1.7425367252e-10 0 0 -1.7425367252e-10 
0 0 -1.7425367252e-10 0 0 -1.7425367252e-10 0 0 -1.7425367252e-10 
0 0 -1.7425367252e-10 0 0 -1.7425367252e-10 0 0 -1.7425367252e-10 
0 0 -1.7425367252e-10 0 0 -1.7425367252e-10 0 0 -1.7425367252e-10 
0 0 -1.7425367252e-10 0 0 -1.7425367252e-10 0 0 -1.7425367252e-10 
0 0 -1.7425367252e-10 0 0 -1.7425367252e-10 0 0 -1.7425367252e-10 
0 0 -8.9019973083e-09 0 0 -1.7425367252e-10 0 0 -1.7425367252e-10 
0 0 -1.7425367252e-10 0 0 -1.7425367252e-10 0 0 -1.7425367252e-10 
0 0 -1.7425367252e-10 0 0 -1.7425367252e-10 0 0 -8.9019973083e-09 
0 0 -1.7425367252e-10 0 0 -1.7425367252e-10 0 0 -1.7425367252e-10 
0 0 -1.7425367252e-10 0 0 -1.7425367252e-10 0 0 -1.7425367252e-10 
0 0 -1.7425367252e-10 0 0 -8.9019973083e-09 0 0 -1.7425367252e-10 
0 0 -1.7425367252e-10 0 0 -1.7425367252e-10 0 0 -1.7425367252e-10 
0 0 -1.7425367252e-10 0 0 -1.7425367252e-10 0 0 -1.7425367252e-10 
0 0 -1.7425367252e-10 0 0 -1.7425367252e-10 0 0 -1.7425367252e-10 
0 0 -1.7425367252e-10 0 0 -1.7425367252e-10 0 0 -1.7425367252e-10 
0 0 -1.7425367252e-10 0 0 -1.7425367252e-10 0 0 -1.7425367252e-10 
0 0 -1.7425367252e-10 0 0 -1.7425367252e-10 0 0 -1.7425367252e-10 
0 0 -1.7425367252e-10 0 0 -1.7425367252e-10 0 0 -1.7425367252e-10 
0 0 -1.7425367252e-10 0 0 -1.7425367252e-10 0 0 -1.7425367252e-10 
0 0 -1.7425367252e-10 0 0 -1.7425367252e-10 0 0 -1.7425367252e-10 
0 0 -1.7425367252e-10 0 0 -1.7425367252e-10 0 0 -1.7425367252e-10 
0 0 -1.7425367252e-10 0 0 -1.7425367252e-10 0 0 -1.7425367252e-10 
0 0 -1.7425367252e-10 0 0 -1.7425367252e-10 0 0 -1.7425367252e-10 
0 0 -1.7425367252e-10 0 0 -1.7425367252e-10 0 0 -1.7425367252e-10 
0 0 -1.7425367252e-10 0 0 -1.7425367252e-10 0 0 -1.7425367252e-10 
0 0 -1.7425367252e-10 0 0 -1.7425367252e-10 0 0 -1.7425367252e-10 
0 0 -1.7425367252e-10 0 0 -1.7425367252e-10 0 0 -1.7425367252e-10 
0 0 -1.7425367252e-10 0 0 -1.7425367252e-10 0 0 -1.7425367252e-10 
0 0 -1.7425367252e-10 0 0 -1.7425367252e-10 0 0 -1.7425367252e-10 
0 0 -1.7425367252e-10 0 0 -1.7425367252e-10 0 0 -1.7425367252e-10 
0 0 -1.7425367252e-10 0 0 -1.7425367252e-10 0 0 -1.7425367252e-10 
0 0 -1.7425367252e-10 0 0 -1.7425367252e-10 0 0 -1.7425367252e-10 
0 0 -1.7425367252e-10 0 0 -1.7425367252e-10 0 0 -1.7425367252e-10 
0 0 -1.7425367252e-10 0 0 -1.7425367252e-10 0 0 -1.7425367252e-10 
0 0 -1.7425367252e-10 0 0 -1.7425367252e-10 0 0 -1.7425367252e-10 
0 0 -1.7425367252e-10 0 0 -1.7425367252e-10 0 0 -1.7425367252e-10 
0 0 -1.7425367252e-10 0 0 -1.7425367252e-10 0 0 -1.7425367252e-10 
0 0 -1.7425367252e-10 0 0 -1.7425367252e-10 0 0 -1.7425367252e-10 
0 0 -1.7425367252e-10 0 0 -1.7425367252e-10 0 0 -5.3297119368e-07 
0 0 -1.7425367252e-10 0 0 -1.7425367252e-10 0 0 -1.7425367252e-10 
0 0 -1.7425367252e-10 0 0 -1.7425367252e-10 0 0 -1.7425367252e-10 
0 0 -1.7425367252e-10 0 0 -1.7425367252e-10 0 0 -1.7425367252e-10 
0 0 -1.7425367252e-10 0 0 -1.7425367252e-10 0 0 -1.7425367252e-10 
0 0 -1.7425367252e-10 0 0 -1.7425367252e-10 0 0 -1.7425367252e-10 
0 0 -1.7425367252e-10 0 0 -1.7425367252e-10 0 0 -1.7425367252e-10 
0 0 -1.7425367252e-10 0 0 -1.7425367252e-10 0 0 -1.7425367252e-10 
0 0 -1.7425367252e-10 0 0 -1.7425367252e-10 0 0 -1.7425367252e-10 
0 0 -1.7425367252e-10 0 0 -1.7425367252e-10 0 0 -1.7425367252e-10 
0 0 -1.7425367252e-10 0 0 -1.7425367252e-10 0 0 -1.7425367252e-10 
0 0 -1.7425367252e-10 0 0 -1.7425367252e-10 0 0 -1.7425367252e-10 
0 0 -1.7425367252e-10 0 0 -1.7425367252e-10 0 0 -1.7425367252e-10 
0 0 -1.7425367252e-10 0 0 -1.7425367252e-10 0 0 -1.7425367252e-10 
0 0 -1.7425367252e-10 0 0 -1.7425367252e-10 0 0 -8.9019973083e-09 
0 0 -1.7425367252e-10 0 0 -1.7425367252e-10 0 0 -1.7425367252e-10 
0 0 -1.7425367252e-10 0 0 -1.7425367252e-10 0 0 -1.7425367252e-10 
0 0 -1.7425367252e-10 0 0 -1.7425367252e-10 0 0 -1.7425367252e-10 
0 0 -1.7425367252e-10 0 0 -1.7425367252e-10 0 0 -1.7425367252e-10 
0 0 -1.7425367252e-10 0 0 -1.7425367252e-10 0 0 -1.7425367252e-10 
0 0 -1.7425367252e-10 0 0 -1.7425367252e-10 0 0 -1.7425367252e-10 
0 0 -1.7425367252e-10 0 0 -8.9019973083e-09 0 0 -1.7425367252e-10 
0 0 -1.7425367252e-10 0 0 -1.7425367252e-10 0 0 -1.7425367252e-10 
0 0 -1.7425367252e-10 0 0 -1.7425367252e-10 0 0 -1.7425367252e-10 
0 0 -1.7425367252e-10 0 0 -1.7425367252e-10 0 0 -1.7425367252e-10 
0 0 -1.7425367252e-10 0 0 -1.7425367252e-10 0 0 -1.7425367252e-10 
0 0 -1.7425367252e-10 0 0 -1.7425367252e-10 0 0 -1.7425367252e-10 
0 0 -1.7425367252e-10 0 0 -1.7425367252e-10 0 0 -1.7425367252e-10 
0 0 -1.7425367252e-10 0 0 -1.7425367252e-10 0 0 -1.7425367252e-10 
0 0 -1.7425367252e-10 0 0 -1.7425367252e-10 0 0 -1.7425367252e-10 
0 0 -1.7425367252e-10 0 0 -1.7425367252e-10 0 0 -1.7425367252e-10 
0 0 -1.7425367252e-10 0 0 -1.7425367252e-10 0 0 -1.7425367252e-10 
0 0 -1.7425367252e-10 0 0 -1.7425367252e-10 0 0 -1.7425367252e-10 
0 0 -1.7425367252e-10 0 0 -1.7425367252e-10 0 0 -1.7425367252e-10 
0 0 -1.7425367252e-10 0 0 -1.7425367252e-10 0 0 -1.7425367252e-10 
0 0 -1.7425367252e-10 0 0 -1.7425367252e-10 0 0 -1.7425367252e-10 
0 0 -1.7425367252e-10 0 0 -1.7425367252e-10 0 0 -1.7425367252e-10 
0 0 -1.7425367252e-10 0 0 -1.7425367252e-10 0 0 -1.7425367252e-10 
0 0 -1.7425367252e-10 0 0 -1.7425367252e-10 0 0 -1.7425367252e-10 
0 0 -1.7425367252e-10 0 0 -1.7425367252e-10 0 0 -1.7425367252e-10 
0 0 -1.7425367252e-10 0 0 -1.7425367252e-10 0 0 -1.7425367252e-10 
0 0 -1.7425367252e-10 0 0 -1.7425367252e-10 0 0 -1.7425367252e-10 
0 0 -1.7425367252e-10 0 0 -1.7425367252e-10 0 0 -1.7425367252e-10 
0 0 -1.7425367252e-10 0 0 -1.7425367252e-10 0 0 -1.7425367252e-10 
0 0 -1.7425367252e-10 0 0 -1.7425367252e-10 0 0 -1.7425367252e-10 
0 0 -1.7425367252e-10 0 0 -1.7425367252e-10 0 0 -1.7425367252e-10 
0 0 -1.7425367252e-10 0 0 -1.7425367252e-10 0 0 -1.7425367252e-10 
0 0 -1.7425367252e-10 0 0 -1.7425367252e-10 0 0 -1.7425367252e-10 
0 0 -1.7425367252e-10 0 0 -1.7425367252e-10 0 0 -1.7425367252e-10 
0 0 -1.7425367252e-10 0 0 -1.7425367252e-10 0 0 -1.7425367252e-10 
0 0 -1.7425367252e-10 0 0 -1.7425367252e-10 0 0 -8.9019973083e-09 
0 0 -1.7425367252e-10 0 0 -1.7425367252e-10 0 0 -1.7425367252e-10 
0 0 -1.7425367252e-10 0 0 -1.7425367252e-10 0 0 -1.7425367252e-10 
0 0 -1.7425367252e-10 0 0 -1.7425367252e-10 0 0 -1.7425367252e-10 
0 0 -1.7425367252e-10 0 0 -1.7425367252e-10 0 0 -1.7425367252e-10 
0 0 -1.7425367252e-10 0 0 -1.7425367252e-10 0 0 -1.7425367252e-10 
0 0 -1.7425367252e-10 0 0 -1.7425367252e-10 0 0 -1.7425367252e-10 
0 0 -1.7425367252e-10 0 0 -1.7425367252e-10 0 0 -1.7425367252e-10 
0 0 -1.7425367252e-10 0 0 -1.7425367252e-10 0 0 -1.7425367252e-10 
0 0 -1.7425367252e-10 0 0 -1.7425367252e-10 0 0 -1.7425367252e-10 
0 0 -1.7425367252e-10 0 0 -1.7425367252e-10 0 0 -1.7425367252e-10 
0 0 -1.7425367252e-10 0 0 -1.7425367252e-10 0 0 -1.7425367252e-10 
0 0 -1.7425367252e-10 0 0 -1.7425367252e-10 0 0 -1.7425367252e-10 
0 0 -1.7425367252e-10 0 0 -1.7425367252e-10 0 0 -1.7425367252e-10 
0 0 -1.7425367252e-10 0 0 -1.7425367252e-10 0 0 -1.7425367252e-10 
0 0 -1.7425367252e-10 0 0 -1.7425367252e-10 0 0 -1.7425367252e-10 
0 0 -1.7425367252e-10 0 0 -1.7425367252e-10 0 0 -1.7425367252e-10 
0 0 -1.7425367252e-10 0 0 -1.7425367252e-10 0 0 -1.7425367252e-10 
0 0 -1.7425367252e-10 0 0 -1.7425367252e-10 0 0 -1.7425367252e-10 
0 0 -1.7425367252e-10 0 0 -1.7425367252e-10 0 0 -1.7425367252e-10 
0 0 -1.7425367252e-10 0 0 -1.7425367252e-10 0 0 -1.7425367252e-10 
0 0 -1.7425367252e-10 0 0 -1.7425367252e-10 0 0 -1.7425367252e-10 
0 0 -1.7425367252e-10 0 0 -1.7425367252e-10 0 0 -1.7425367252e-10 
0 0 -1.7425367252e-10 0 0 -1.7425367252e-10 0 0 -1.7425367252e-10 
0 0 -1.7425367252e-10 0 0 -8.9019973083e-09 0 0 -1.7425367252e-10 
0 0 -1.7425367252e-10 0 0 -1.7425367252e-10 0 0 -1.7425367252e-10 
0 0 -1.7425367252e-10 0 0 -1.7425367252e-10 0 0 -1.7425367252e-10 
0 0 -1.7425367252e-10 0 0 -1.7425367252e-10 0 0 -1.7425367252e-10 
0 0 -1.7425367252e-10 0 0 -1.7425367252e-10 0 0 -1.7425367252e-10 
0 0 -1.7425367252e-10 0 0 -1.7425367252e-10 0 0 -1.7425367252e-10 
0 0 -1.7425367252e-10 0 0 -1.7425367252e-10 0 0 -1.7425367252e-10 
0 0 -1.7425367252e-10 0 0 -1.7425367252e-10 0 0 -1.7425367252e-10 
0 0 -1.7425367252e-10 0 0 -1.7425367252e-10 0 0 -1.7425367252e-10 
0 0 -1.7425367252e-10 0 0 -1.7425367252e-10 0 0 -1.7425367252e-10 
0 0 -1.7425367252e-10 0 0 -1.7425367252e-10 0 0 -1.7425367252e-10 
0 0 -1.7425367252e-10 0 0 -1.7425367252e-10 0 0 -1.7425367252e-10 
0 0 -1.7425367252e-10 0 0 -1.7425367252e-10 0 0 -1.7425367252e-10 
0 0 -1.7425367252e-10 0 0 -1.7425367252e-10 0 0 -1.7425367252e-10 
0 0 -1.7425367252e-10 0 0 -1.7425367252e-10 0 0 -1.7425367252e-10 
0 0 -1.7425367252e-10 0 0 -8.9019973083e-09 0 0 -1.7425367252e-10 
0 0 -1.7425367252e-10 0 0 -1.7425367252e-10 0 0 -1.7425367252e-10 
0 0 -1.7425367252e-10 0 0 -1.7425367252e-10 0 0 -1.7425367252e-10 
0 0 -1.7425367252e-10 0 0 -1.7425367252e-10 0 0 -1.7425367252e-10 
0 0 -1.7425367252e-10 0 0 -1.7425367252e-10 0 0 -1.7425367252e-10 
0 0 -1.7425367252e-10 0 0 -1.7425367252e-10 0 0 -1.7425367252e-10 
0 0 -1.7425367252e-10 0 0 -1.7425367252e-10 0 0 -1.7425367252e-10 
0 0 -1.7425367252e-10 0 0 -1.7425367252e-10 0 0 -1.7425367252e-10 
0 0 -1.7425367252e-10 0 0 -1.7425367252e-10 0 0 -1.7425367252e-10 
0 0 -1.7425367252e-10 0 0 -1.7425367252e-10 0 0 -1.7425367252e-10 
0 0 -1.7425367252e-10 0 0 -1.7425367252e-10 0 0 -1.7425367252e-10 

radius 1 648 double
2e-05 2e-05 2e-05 2e-05 2e-05 2e-05 2e-05 2e-05 2e-05 
2e-05 2e-05 2e-05 2e-05 2e-05 2e-05 2e-05 2e-05 2e-05 
2e-05 2e-05 2e-05 2e-05 2e-05 2e-05 2e-05 2e-05 2e-05 
2e-05 2e-05 2e-05 2e-05 2e-05 2e-05 2e-05 2e-05 2e-05 
7.5e-05 2e-05 2e-05 2e-05 2e-05 2e-05 2e-05 2e-05 2e-05 
2e-05 2e-05 2e-05 2e-05 2e-05 2e-05 2e-05 2e-05 2e-05 
2e-05 2e-05 2e-05 2e-05 2e-05 2e-05 2e-05 2e-05 2e-05 
2e-05 2e-05 2e-05 2e-05 2e-05 2e-05 2e-05 2e-05 2e-05 
2e-05 7.5e-05 2e-05 2e-05 2e-05 0.00015 2e-05 2e-05 2e-05 
2e-05 2e-05 7.5e-05 2e-05 2e-05 2e-05 2e-05 2e-05 2e-05 
2e-05 2e-05 2e-05 2e-05 2e-05 2e-05 2e-05 2e-05 2e-05 
2e-05 2e-05 2e-05 2e-05 7.5e-05 2e-05 2e-05 2e-05 2e-05 
2e-05 2e-05 2e-05 2e-05 2e-05 2e-05 2e-05 2e-05 2e-05 
2e-05 2e-05 2e-05 2e-05 2e-05 2e-05 2e-05 2e-05 2e-05 
2e-05 2e-05 2e-05 2e-05 2e-05 2e-05 2e-05 2e-05 2e-05 
2e-05 2e-05 2e-05 2e-05 2e-05 2e-05 2e-05 2e-05 2e-05 
2e-05 2e-05 2e-05 2e-05 2e-05 2e-05 2e-05 2e-05 2e-05 
2e-05 2e-05 7.5e-05 2e-05 2e-05 2e-05 2e-05 2e-05 2e-05 
7.5e-05 2e-05 2e-05 2e-05 2e-05 2e-05 7.5e-05 2e-05 2e-05 
2e-05 2e-05 2e-05 2e-05 2e-05 2e-05 2e-05 2e-05 2e-05 
2e-05 2e-05 2e-05 2e-05 2e-05 2e-05 2e-05 2e-05 2e-05 
2e-05 2e-05 2e-05 2e-05 2e-05 2e-05 2e-05 2e-05 2e-05 
2e-05 2e-05 2e-05 2e-05 2e-05 2e-05 2e-05 2e-05 2e-05 
2e-05 2e-05 2e-05 2e-05 2e-05 2e-05 2e-05 2e-05 2e-05 
2e-05 2e-05 2e-05 2e-05 2e-05 2e-05 2e-05 2e-05 7.5e-05 
2e-05 7.5e-05 2e-05 2e-05 2e-05 2e-05 2e-05 2e-05 2e-05 
2e-05 2e-05 2e-05 2e-05 2e-05 2e-05 2e-05 2e-05 2e-05 
2e-05 2e-05 2e-05 2e-05 2e-05 2e-05 7.5e-05 2e-05 2e-05 
2e-05 2e-05 2e-05 2e-05 2e-05 7.5e-05 2e-05 2e-05 2e-05 
2e-05 2e-05 2e-05 2e-05 7.5e-05 2e-05 2e-05 2e-05 2e-05 
2e-05 2e-05 2e-05 2e-05 2e-05 2e-05 2e-05 2e-05 2e-05 
2e-05 2e-05 2e-05 2e-05 2e-05 2e-05 2e-05 2e-05 2e-05 
2e-05 2e-05 2e-05 2e-05 2e-05 2e-05 2e-05 2e-05 2e-05 
2e-05 2e-05 2e-05 2e-05 2e-05 2e-05 2e-05 2e-05 2e-05 
2e-05 2e-05 2e-05 2e-05 2e-05 2e-05 2e-05 2e-05 2e-05 
2e-05 2e-05 2e-05 2e-05 2e-05 2e-05 2e-05 2e-05 2e-05 
2e-05 2e-05 2e-05 2e-05 2e-05 2e-05 2e-05 2e-05 2e-05 
2e-05 2e-05 2e-05 2e-05 2e-05 2e-05 2e-05 2e-05 2e-05 
2e-05 2e-05 2e-05 2e-05 2e-05 2e-05 2e-05 2e-05 0.0003 
2e-05 2e-05 2e-05 2e-05 2e-05 2e-05 2e-05 2e-05 2e-05 
2e-05 2e-05 2e-05 2e-05 2e-05 2e-05 2e-05 2e-05 2e-05 
2e-05 2e-05 2e-05 2e-05 2e-05 2e-05 2e-05 2e-05 2e-05 
2e-05 2e-05 2e-05 2e-05 2e-05 2e-05 2e-05 2e-05 2e-05 
2e-05 2e-05 2e-05 2e-05 2e-05 7.5e-05 2e-05 2e-05 2e-05 
2e-05 2e-05 2e-05 2e-05 2e-05 2e-05 2e-05 2e-05 2e-05 
2e-05 2e-05 2e-05 2e-05 2e-05 2e-05 2e-05 7.5e-05 2e-05 
2e-05 2e-05 2e-05 2e-05 2e-05 2e-05 2e-05 2e-05 2e-05 
2e-05 2e-05 2e-05 2e-05 2e-05 2e-05 2e-05 2e-05 2e-05 
2e-05 2e-05 2e-05 2e-05 2e-05 2e-05 2e-05 2e-05 2e-05 
2e-05 2e-05 2e-05 2e-05 2e-05 2e-05 2e-05 2e-05 2e-05 
2e-05 2e-05 2e-05 2e-05 2e-05 2e-05 2e-05 2e-05 2e-05 
2e-05 2e-05 2e-05 2e-05 2e-05 2e-05 2e-05 2e-05 2e-05 
2e-05 2e-05 2e-05 2e-05 2e-05 2e-05 2e-05 2e-05 2e-05 
2e-05 2e-05 2e-05 2e-05 2e-05 2e-05 2e-05 2e-05 2e-05 
2e-05 2e-05 2e-05 2e-05 2e-05 2e-05 2e-05 2e-05 2e-05 
2e-05 2e-05 2e-05 2e-05 2e-05 7.5e-05 2e-05 2e-05 2e-05 
2e-05 2e-05 2e-05 2e-05 2e-05 2e-05 2e-05 2e-05 2e-05 
2e-05 2e-05 2e-05 2e-05 2e-05 2e-05 2e-05 2e-05 2e-05 
2e-05 2e-05 2e-05 2e-05 2e-05 2e-05 2e-05 2e-05 2e-05 
2e-05 2e-05 2e-05 2e-05 2e-05 2e-05 2e-05 2e-05 2e-05 
2e-05 2e-05 2e-05 2e-05 2e-05 2e-05 2e-05 2e-05 2e-05 
2e-05 2e-05 2e-05 2e-05 2e-05 2e-05 2e-05 2e-05 2e-05 
2e-05 2e-05 2e-05 2e-05 2e-05 2e-05 2e-05 2e-05 2e-05 
2e-05 2e-05 2e-05 2e-05 7.5e-05 2e-05 2e-05 2e-05 2e-05 
2e-05 2e-05 2e-05 2e-05 2e-05 2e-05 2e-05 2e-05 2e-05 
2e-05 2e-05 2e-05 2e-05 2e-05 2e-05 2e-05 2e-05 2e-05 
2e-05 2e-05 2e-05 2e-05 2e-05 2e-05 2e-05 2e-05 2e-05 
2e-05 2e-05 2e-05 2e-05 2e-05 2e-05 2e-05 2e-05 2e-05 
2e-05 2e-05 2e-05 2e-05 7.5e-05 2e-05 2e-05 2e-05 2e-05 
2e-05 2e-05 2e-05 2e-05 2e-05 2e-05 2e-05 2e-05 2e-05 
2e-05 2e-05 2e-05 2e-05 2e-05 2e-05 2e-05 2e-05 2e-05 
2e-05 2e-05 2e-05 2e-05 2e-05 2e-05 2e-05 2e-05 2e-05 

omega 3 648 double
0 0 0 0 0 0 0 0 0 
0 0 0 0 0 0 0 0 0 
0 0 0 0 0 0 0 0 0 
0 0 0 0 0 0 0 0 0 
0 0 0 0 0 0 0 0 0 
0 0 0 0 0 0 0 0 0 
0 0 0 0 0 0 0 0 0 
0 0 0 0 0 0 0 0 0 
0 0 0 0 0 0 0 0 0 
0 0 0 0 0 0 0 0 0 
0 0 0 0 0 0 0 0 0 
0 0 0 0 0 0 0 0 0 
0 0 0 0 0 0 0 0 0 
0 0 0 0 0 0 0 0 0 
0 0 0 0 0 0 0 0 0 
0 0 0 0 0 0 0 0 0 
0 0 0 0 0 0 0 0 0 
0 0 0 0 0 0 0 0 0 
0 0 0 0 0 0 0 0 0 
0 0 0 0 0 0 0 0 0 
0 0 0 0 0 0 0 0 0 
0 0 0 0 0 0 0 0 0 
0 0 0 0 0 0 0 0 0 
0 0 0 0 0 0 0 0 0 
0 0 0 0 0 0 0 0 0 
0 0 0 0 0 0 0 0 0 
0 0 0 0 0 0 0 0 0 
0 0 0 0 0 0 0 0 0 
0 0 0 0 0 0 0 0 0 
0 0 0 0 0 0 0 0 0 
0 0 0 0 0 0 0 0 0 
0 0 0 0 0 0 0 0 0 
0 0 0 0 0 0 0 0 0 
0 0 0 0 0 0 0 0 0 
0 0 0 0 0 0 0 0 0 
0 0 0 0 0 0 0 0 0 
0 0 0 0 0 0 0 0 0 
0 0 0 0 0 0 0 0 0 
0 0 0 0 0 0 0 0 0 
0 0 0 0 0 0 0 0 0 
0 0 0 0 0 0 0 0 0 
0 0 0 0 0 0 0 0 0 
0 0 0 0 0 0 0 0 0 
0 0 0 0 0 0 0 0 0 
0 0 0 0 0 0 0 0 0 
0 0 0 0 0 0 0 0 0 
0 0 0 0 0 0 0 0 0 
0 0 0 0 0 0 0 0 0 
0 0 0 0 0 0 0 0 0 
0 0 0 0 0 0 0 0 0 
0 0 0 0 0 0 0 0 0 
0 0 0 0 0 0 0 0 0 
0 0 0 0 0 0 0 0 0 
0 0 0 0 0 0 0 0 0 
0 0 0 0 0 0 0 0 0 
0 0 0 0 0 0 0 0 0 
0 0 0 0 0 0 0 0 0 
0 0 0 0 0 0 0 0 0 
0 0 0 0 0 0 0 0 0 
0 0 0 0 0 0 0 0 0 
0 0 0 0 0 0 0 0 0 
0 0 0 0 0 0 0 0 0 
0 0 0 0 0 0 0 0 0 
0 0 0 0 0 0 0 0 0 
0 0 0 0 0 0 0 0 0 
0 0 0 0 0 0 0 0 0 
0 0 0 0 0 0 0 0 0 
0 0 0 0 0 0 0 0 0 
0 0 0 0 0 0 0 0 0 
0 0 0 0 0 0 0 0 0 
0 0 0 0 0 0 0 0 0 
0 0 0 0 0 0 0 0 0 
0 0 0 0 0 0 0 0 0 
0 0 0 0 0 0 0 0 0 
0 0 0 0 0 0 0 0 0 
0 0 0 0 0 0 0 0 0 
0 0 0 0 0 0 0 0 0 
0 0 0 0 0 0 0 0 0 
0 0 0 0 0 0 0 0 0 
0 0 0 0 0 0 0 0 0 
0 0 0 0 0 0 0 0 0 
0 0 0 0 0 0 0 0 0 
0 0 0 0 0 0 0 0 0 
0 0 0 0 0 0 0 0 0 
0 0 0 0 0 0 0 0 0 
0 0 0 0 0 0 0 0 0 
0 0 0 0 0 0 0 0 0 
0 0 0 0 0 0 0 0 0 
0 0 0 0 0 0 0 0 0 
0 0 0 0 0 0 0 0 0 
0 0 0 0 0 0 0 0 0 
0 0 0 0 0 0 0 0 0 
0 0 0 0 0 0 0 0 0 
0 0 0 0 0 0 0 0 0 
0 0 0 0 0 0 0 0 0 
0 0 0 0 0 0 0 0 0 
0 0 0 0 0 0 0 0 0 
0 0 0 0 0 0 0 0 0 
0 0 0 0 0 0 0 0 0 
0 0 0 0 0 0 0 0 0 
0 0 0 0 0 0 0 0 0 
0 0 0 0 0 0 0 0 0 
0 0 0 0 0 0 0 0 0 
0 0 0 0 0 0 0 0 0 
0 0 0 0 0 0 0 0 0 
0 0 0 0 0 0 0 0 0 
0 0 0 0 0 0 0 0 0 
0 0 0 0 0 0 0 0 0 
0 0 0 0 0 0 0 0 0 
0 0 0 0 0 0 0 0 0 
0 0 0 0 0 0 0 0 0 
0 0 0 0 0 0 0 0 0 
0 0 0 0 0 0 0 0 0 
0 0 0 0 0 0 0 0 0 
0 0 0 0 0 0 0 0 0 
0 0 0 0 0 0 0 0 0 
0 0 0 0 0 0 0 0 0 
0 0 0 0 0 0 0 0 0 
0 0 0 0 0 0 0 0 0 
0 0 0 0 0 0 0 0 0 
0 0 0 0 0 0 0 0 0 
0 0 0 0 0 0 0 0 0 
0 0 0 0 0 0 0 0 0 
0 0 0 0 0 0 0 0 0 
0 0 0 0 0 0 0 0 0 
0 0 0 0 0 0 0 0 0 
0 0 0 0 0 0 0 0 0 
0 0 0 0 0 0 0 0 0 
0 0 0 0 0 0 0 0 0 
0 0 0 0 0 0 0 0 0 
0 0 0 0 0 0 0 0 0 
0 0 0 0 0 0 0 0 0 
0 0 0 0 0 0 0 0 0 
0 0 0 0 0 0 0 0 0 
0 0 0 0 0 0 0 0 0 
0 0 0 0 0 0 0 0 0 
0 0 0 0 0 0 0 0 0 
0 0 0 0 0 0 0 0 0 
0 0 0 0 0 0 0 0 0 
0 0 0 0 0 0 0 0 0 
0 0 0 0 0 0 0 0 0 
0 0 0 0 0 0 0 0 0 
0 0 0 0 0 0 0 0 0 
0 0 0 0 0 0 0 0 0 
0 0 0 0 0 0 0 0 0 
0 0 0 0 0 0 0 0 0 
0 0 0 0 0 0 0 0 0 
0 0 0 0 0 0 0 0 0 
0 0 0 0 0 0 0 0 0 
0 0 0 0 0 0 0 0 0 
0 0 0 0 0 0 0 0 0 
0 0 0 0 0 0 0 0 0 
0 0 0 0 0 0 0 0 0 
0 0 0 0 0 0 0 0 0 
0 0 0 0 0 0 0 0 0 
0 0 0 0 0 0 0 0 0 
0 0 0 0 0 0 0 0 0 
0 0 0 0 0 0 0 0 0 
0 0 0 0 0 0 0 0 0 
0 0 0 0 0 0 0 0 0 
0 0 0 0 0 0 0 0 0 
0 0 0 0 0 0 0 0 0 
0 0 0 0 0 0 0 0 0 
0 0 0 0 0 0 0 0 0 
0 0 0 0 0 0 0 0 0 
0 0 0 0 0 0 0 0 0 
0 0 0 0 0 0 0 0 0 
0 0 0 0 0 0 0 0 0 
0 0 0 0 0 0 0 0 0 
0 0 0 0 0 0 0 0 0 
0 0 0 0 0 0 0 0 0 
0 0 0 0 0 0 0 0 0 
0 0 0 0 0 0 0 0 0 
0 0 0 0 0 0 0 0 0 
0 0 0 0 0 0 0 0 0 
0 0 0 0 0 0 0 0 0 
0 0 0 0 0 0 0 0 0 
0 0 0 0 0 0 0 0 0 
0 0 0 0 0 0 0 0 0 
0 0 0 0 0 0 0 0 0 
0 0 0 0 0 0 0 0 0 
0 0 0 0 0 0 0 0 0 
0 0 0 0 0 0 0 0 0 
0 0 0 0 0 0 0 0 0 
0 0 0 0 0 0 0 0 0 
0 0 0 0 0 0 0 0 0 
0 0 0 0 0 0 0 0 0 
0 0 0 0 0 0 0 0 0 
0 0 0 0 0 0 0 0 0 
0 0 0 0 0 0 0 0 0 
0 0 0 0 0 0 0 0 0 
0 0 0 0 0 0 0 0 0 
0 0 0 0 0 0 0 0 0 
0 0 0 0 0 0 0 0 0 
0 0 0 0 0 0 0 0 0 
0 0 0 0 0 0 0 0 0 
0 0 0 0 0 0 0 0 0 
0 0 0 0 0 0 0 0 0 
0 0 0 0 0 0 0 0 0 
0 0 0 0 0 0 0 0 0 
0 0 0 0 0 0 0 0 0 
0 0 0 0 0 0 0 0 0 
0 0 0 0 0 0 0 0 0 
0 0 0 0 0 0 0 0 0 
0 0 0 0 0 0 0 0 0 
0 0 0 0 0 0 0 0 0 
0 0 0 0 0 0 0 0 0 
0 0 0 0 0 0 0 0 0 
0 0 0 0 0 0 0 0 0 
0 0 0 0 0 0 0 0 0 
0 0 0 0 0 0 0 0 0 
0 0 0 0 0 0 0 0 0 
0 0 0 0 0 0 0 0 0 
0 0 0 0 0 0 0 0 0 
0 0 0 0 0 0 0 0 0 
0 0 0 0 0 0 0 0 0 

fx_mag_viz 1 648 double
0 0 0 0 0 0 0 0 0 
0 0 0 0 0 0 0 0 0 
0 0 0 0 0 0 0 0 0 
0 0 0 0 0 0 0 0 0 
0 0 0 0 0 0 0 0 0 
0 0 0 0 0 0 0 0 0 
0 0 0 0 0 0 0 0 0 
0 0 0 0 0 0 0 0 0 
0 0 0 0 0 0 0 0 0 
0 0 0 0 0 0 0 0 0 
0 0 0 0 0 0 0 0 0 
0 0 0 0 0 0 0 0 0 
0 0 0 0 0 0 0 0 0 
0 0 0 0 0 0 0 0 0 
0 0 0 0 0 0 0 0 0 
0 0 0 0 0 0 0 0 0 
0 0 0 0 0 0 0 0 0 
0 0 0 0 0 0 0 0 0 
0 0 0 0 0 0 0 0 0 
0 0 0 0 0 0 0 0 0 
0 0 0 0 0 0 0 0 0 
0 0 0 0 0 0 0 0 0 
0 0 0 0 0 0 0 0 0 
0 0 0 0 0 0 0 0 0 
0 0 0 0 0 0 0 0 0 
0 0 0 0 0 0 0 0 0 
0 0 0 0 0 0 0 0 0 
0 0 0 0 0 0 0 0 0 
0 0 0 0 0 0 0 0 0 
0 0 0 0 0 0 0 0 0 
0 0 0 0 0 0 0 0 0 
0 0 0 0 0 0 0 0 0 
0 0 0 0 0 0 0 0 0 
0 0 0 0 0 0 0 0 0 
0 0 0 0 0 0 0 0 0 
0 0 0 0 0 0 0 0 0 
0 0 0 0 0 0 0 0 0 
0 0 0 0 0 0 0 0 0 
0 0 0 0 0 0 0 0 0 
0 0 0 0 0 0 0 0 0 
0 0 0 0 0 0 0 0 0 
0 0 0 0 0 0 0 0 0 
0 0 0 0 0 0 0 0 0 
0 0 0 0 0 0 0 0 0 
0 0 0 0 0 0 0 0 0 
0 0 0 0 0 0 0 0 0 
0 0 0 0 0 0 0 0 0 
0 0 0 0 0 0 0 0 0 
0 0 0 0 0 0 0 0 0 
0 0 0 0 0 0 0 0 0 
0 0 0 0 0 0 0 0 0 
0 0 0 0 0 0 0 0 0 
0 0 0 0 0 0 0 0 0 
0 0 0 0 0 0 0 0 0 
0 0 0 0 0 0 0 0 0 
0 0 0 0 0 0 0 0 0 
0 0 0 0 0 0 0 0 0 
0 0 0 0 0 0 0 0 0 
0 0 0 0 0 0 0 0 0 
0 0 0 0 0 0 0 0 0 
0 0 0 0 0 0 0 0 0 
0 0 0 0 0 0 0 0 0 
0 0 0 0 0 0 0 0 0 
0 0 0 0 0 0 0 0 0 
0 0 0 0 0 0 0 0 0 
0 0 0 0 0 0 0 0 0 
0 0 0 0 0 0 0 0 0 
0 0 0 0 0 0 0 0 0 
0 0 0 0 0 0 0 0 0 
0 0 0 0 0 0 0 0 0 
0 0 0 0 0 0 0 0 0 
0 0 0 0 0 0 0 0 0 

fy_mag_viz 1 648 double
0 0 0 0 0 0 0 0 0 
0 0 0 0 0 0 0 0 0 
0 0 0 0 0 0 0 0 0 
0 0 0 0 0 0 0 0 0 
0 0 0 0 0 0 0 0 0 
0 0 0 0 0 0 0 0 0 
0 0 0 0 0 0 0 0 0 
0 0 0 0 0 0 0 0 0 
0 0 0 0 0 0 0 0 0 
0 0 0 0 0 0 0 0 0 
0 0 0 0 0 0 0 0 0 
0 0 0 0 0 0 0 0 0 
0 0 0 0 0 0 0 0 0 
0 0 0 0 0 0 0 0 0 
0 0 0 0 0 0 0 0 0 
0 0 0 0 0 0 0 0 0 
0 0 0 0 0 0 0 0 0 
0 0 0 0 0 0 0 0 0 
0 0 0 0 0 0 0 0 0 
0 0 0 0 0 0 0 0 0 
0 0 0 0 0 0 0 0 0 
0 0 0 0 0 0 0 0 0 
0 0 0 0 0 0 0 0 0 
0 0 0 0 0 0 0 0 0 
0 0 0 0 0 0 0 0 0 
0 0 0 0 0 0 0 0 0 
0 0 0 0 0 0 0 0 0 
0 0 0 0 0 0 0 0 0 
0 0 0 0 0 0 0 0 0 
0 0 0 0 0 0 0 0 0 
0 0 0 0 0 0 0 0 0 
0 0 0 0 0 0 0 0 0 
0 0 0 0 0 0 0 0 0 
0 0 0 0 0 0 0 0 0 
0 0 0 0 0 0 0 0 0 
0 0 0 0 0 0 0 0 0 
0 0 0 0 0 0 0 0 0 
0 0 0 0 0 0 0 0 0 
0 0 0 0 0 0 0 0 0 
0 0 0 0 0 0 0 0 0 
0 0 0 0 0 0 0 0 0 
0 0 0 0 0 0 0 0 0 
0 0 0 0 0 0 0 0 0 
0 0 0 0 0 0 0 0 0 
0 0 0 0 0 0 0 0 0 
0 0 0 0 0 0 0 0 0 
0 0 0 0 0 0 0 0 0 
0 0 0 0 0 0 0 0 0 
0 0 0 0 0 0 0 0 0 
0 0 0 0 0 0 0 0 0 
0 0 0 0 0 0 0 0 0 
0 0 0 0 0 0 0 0 0 
0 0 0 0 0 0 0 0 0 
0 0 0 0 0 0 0 0 0 
0 0 0 0 0 0 0 0 0 
0 0 0 0 0 0 0 0 0 
0 0 0 0 0 0 0 0 0 
0 0 0 0 0 0 0 0 0 
0 0 0 0 0 0 0 0 0 
0 0 0 0 0 0 0 0 0 
0 0 0 0 0 0 0 0 0 
0 0 0 0 0 0 0 0 0 
0 0 0 0 0 0 0 0 0 
0 0 0 0 0 0 0 0 0 
0 0 0 0 0 0 0 0 0 
0 0 0 0 0 0 0 0 0 
0 0 0 0 0 0 0 0 0 
0 0 0 0 0 0 0 0 0 
0 0 0 0 0 0 0 0 0 
0 0 0 0 0 0 0 0 0 
0 0 0 0 0 0 0 0 0 
0 0 0 0 0 0 0 0 0 

fz_mag_viz 1 648 double
0 0 0 0 0 0 0 0 0 
0 0 0 0 0 0 0 0 0 
0 0 0 0 0 0 0 0 0 
0 0 0 0 0 0 0 0 0 
0 0 0 0 0 0 0 0 0 
0 0 0 0 0 0 0 0 0 
0 0 0 0 0 0 0 0 0 
0 0 0 0 0 0 0 0 0 
0 0 0 0 0 0 0 0 0 
0 0 0 0 0 0 0 0 0 
0 0 0 0 0 0 0 0 0 
0 0 0 0 0 0 0 0 0 
0 0 0 0 0 0 0 0 0 
0 0 0 0 0 0 0 0 0 
0 0 0 0 0 0 0 0 0 
0 0 0 0 0 0 0 0 0 
0 0 0 0 0 0 0 0 0 
0 0 0 0 0 0 0 0 0 
0 0 0 0 0 0 0 0 0 
0 0 0 0 0 0 0 0 0 
0 0 0 0 0 0 0 0 0 
0 0 0 0 0 0 0 0 0 
0 0 0 0 0 0 0 0 0 
0 0 0 0 0 0 0 0 0 
0 0 0 0 0 0 0 0 0 
0 0 0 0 0 0 0 0 0 
0 0 0 0 0 0 0 0 0 
0 0 0 0 0 0 0 0 0 
0 0 0 0 0 0 0 0 0 
0 0 0 0 0 0 0 0 0 
0 0 0 0 0 0 0 0 0 
0 0 0 0 0 0 0 0 0 
0 0 0 0 0 0 0 0 0 
0 0 0 0 0 0 0 0 0 
0 0 0 0 0 0 0 0 0 
0 0 0 0 0 0 0 0 0 
0 0 0 0 0 0 0 0 0 
0 0 0 0 0 0 0 0 0 
0 0 0 0 0 0 0 0 0 
0 0 0 0 0 0 0 0 0 
0 0 0 0 0 0 0 0 0 
0 0 0 0 0 0 0 0 0 
0 0 0 0 0 0 0 0 0 
0 0 0 0 0 0 0 0 0 
0 0 0 0 0 0 0 0 0 
0 0 0 0 0 0 0 0 0 
0 0 0 0 0 0 0 0 0 
0 0 0 0 0 0 0 0 0 
0 0 0 0 0 0 0 0 0 
0 0 0 0 0 0 0 0 0 
0 0 0 0 0 0 0 0 0 
0 0 0 0 0 0 0 0 0 
0 0 0 0 0 0 0 0 0 
0 0 0 0 0 0 0 0 0 
0 0 0 0 0 0 0 0 0 
0 0 0 0 0 0 0 0 0 
0 0 0 0 0 0 0 0 0 
0 0 0 0 0 0 0 0 0 
0 0 0 0 0 0 0 0 0 
0 0 0 0 0 0 0 0 0 
0 0 0 0 0 0 0 0 0 
0 0 0 0 0 0 0 0 0 
0 0 0 0 0 0 0 0 0 
0 0 0 0 0 0 0 0 0 
0 0 0 0 0 0 0 0 0 
0 0 0 0 0 0 0 0 0 
0 0 0 0 0 0 0 0 0 
0 0 0 0 0 0 0 0 0 
0 0 0 0 0 0 0 0 0 
0 0 0 0 0 0 0 0 0 
0 0 0 0 0 0 0 0 0 
0 0 0 0 0 0 0 0 0 

B_magnitude 1 648 double
0 0 0 0 0 0 0 0 0 
0 0 0 0 0 0 0 0 0 
0 0 0 0 0 0 0 0 0 
0 0 0 0 0 0 0 0 0 
0 0 0 0 0 0 0 0 0 
0 0 0 0 0 0 0 0 0 
0 0 0 0 0 0 0 0 0 
0 0 0 0 0 0 0 0 0 
0 0 0 0 0 0 0 0 0 
0 0 0 0 0 0 0 0 0 
0 0 0 0 0 0 0 0 0 
0 0 0 0 0 0 0 0 0 
0 0 0 0 0 0 0 0 0 
0 0 0 0 0 0 0 0 0 
0 0 0 0 0 0 0 0 0 
0 0 0 0 0 0 0 0 0 
0 0 0 0 0 0 0 0 0 
0 0 0 0 0 0 0 0 0 
0 0 0 0 0 0 0 0 0 
0 0 0 0 0 0 0 0 0 
0 0 0 0 0 0 0 0 0 
0 0 0 0 0 0 0 0 0 
0 0 0 0 0 0 0 0 0 
0 0 0 0 0 0 0 0 0 
0 0 0 0 0 0 0 0 0 
0 0 0 0 0 0 0 0 0 
0 0 0 0 0 0 0 0 0 
0 0 0 0 0 0 0 0 0 
0 0 0 0 0 0 0 0 0 
0 0 0 0 0 0 0 0 0 
0 0 0 0 0 0 0 0 0 
0 0 0 0 0 0 0 0 0 
0 0 0 0 0 0 0 0 0 
0 0 0 0 0 0 0 0 0 
0 0 0 0 0 0 0 0 0 
0 0 0 0 0 0 0 0 0 
0 0 0 0 0 0 0 0 0 
0 0 0 0 0 0 0 0 0 
0 0 0 0 0 0 0 0 0 
0 0 0 0 0 0 0 0 0 
0 0 0 0 0 0 0 0 0 
0 0 0 0 0 0 0 0 0 
0 0 0 0 0 0 0 0 0 
0 0 0 0 0 0 0 0 0 
0 0 0 0 0 0 0 0 0 
0 0 0 0 0 0 0 0 0 
0 0 0 0 0 0 0 0 0 
0 0 0 0 0 0 0 0 0 
0 0 0 0 0 0 0 0 0 
0 0 0 0 0 0 0 0 0 
0 0 0 0 0 0 0 0 0 
0 0 0 0 0 0 0 0 0 
0 0 0 0 0 0 0 0 0 
0 0 0 0 0 0 0 0 0 
0 0 0 0 0 0 0 0 0 
0 0 0 0 0 0 0 0 0 
0 0 0 0 0 0 0 0 0 
0 0 0 0 0 0 0 0 0 
0 0 0 0 0 0 0 0 0 
0 0 0 0 0 0 0 0 0 
0 0 0 0 0 0 0 0 0 
0 0 0 0 0 0 0 0 0 
0 0 0 0 0 0 0 0 0 
0 0 0 0 0 0 0 0 0 
0 0 0 0 0 0 0 0 0 
0 0 0 0 0 0 0 0 0 
0 0 0 0 0 0 0 0 0 
0 0 0 0 0 0 0 0 0 
0 0 0 0 0 0 0 0 0 
0 0 0 0 0 0 0 0 0 
0 0 0 0 0 0 0 0 0 
0 0 0 0 0 0 0 0 0 

B_gradient_mag 1 648 double
0 0 0 0 0 0 0 0 0 
0 0 0 0 0 0 0 0 0 
0 0 0 0 0 0 0 0 0 
0 0 0 0 0 0 0 0 0 
0 0 0 0 0 0 0 0 0 
0 0 0 0 0 0 0 0 0 
0 0 0 0 0 0 0 0 0 
0 0 0 0 0 0 0 0 0 
0 0 0 0 0 0 0 0 0 
0 0 0 0 0 0 0 0 0 
0 0 0 0 0 0 0 0 0 
0 0 0 0 0 0 0 0 0 
0 0 0 0 0 0 0 0 0 
0 0 0 0 0 0 0 0 0 
0 0 0 0 0 0 0 0 0 
0 0 0 0 0 0 0 0 0 
0 0 0 0 0 0 0 0 0 
0 0 0 0 0 0 0 0 0 
0 0 0 0 0 0 0 0 0 
0 0 0 0 0 0 0 0 0 
0 0 0 0 0 0 0 0 0 
0 0 0 0 0 0 0 0 0 
0 0 0 0 0 0 0 0 0 
0 0 0 0 0 0 0 0 0 
0 0 0 0 0 0 0 0 0 
0 0 0 0 0 0 0 0 0 
0 0 0 0 0 0 0 0 0 
0 0 0 0 0 0 0 0 0 
0 0 0 0 0 0 0 0 0 
0 0 0 0 0 0 0 0 0 
0 0 0 0 0 0 0 0 0 
0 0 0 0 0 0 0 0 0 
0 0 0 0 0 0 0 0 0 
0 0 0 0 0 0 0 0 0 
0 0 0 0 0 0 0 0 0 
0 0 0 0 0 0 0 0 0 
0 0 0 0 0 0 0 0 0 
0 0 0 0 0 0 0 0 0 
0 0 0 0 0 0 0 0 0 
0 0 0 0 0 0 0 0 0 
0 0 0 0 0 0 0 0 0 
0 0 0 0 0 0 0 0 0 
0 0 0 0 0 0 0 0 0 
0 0 0 0 0 0 0 0 0 
0 0 0 0 0 0 0 0 0 
0 0 0 0 0 0 0 0 0 
0 0 0 0 0 0 0 0 0 
0 0 0 0 0 0 0 0 0 
0 0 0 0 0 0 0 0 0 
0 0 0 0 0 0 0 0 0 
0 0 0 0 0 0 0 0 0 
0 0 0 0 0 0 0 0 0 
0 0 0 0 0 0 0 0 0 
0 0 0 0 0 0 0 0 0 
0 0 0 0 0 0 0 0 0 
0 0 0 0 0 0 0 0 0 
0 0 0 0 0 0 0 0 0 
0 0 0 0 0 0 0 0 0 
0 0 0 0 0 0 0 0 0 
0 0 0 0 0 0 0 0 0 
0 0 0 0 0 0 0 0 0 
0 0 0 0 0 0 0 0 0 
0 0 0 0 0 0 0 0 0 
0 0 0 0 0 0 0 0 0 
0 0 0 0 0 0 0 0 0 
0 0 0 0 0 0 0 0 0 
0 0 0 0 0 0 0 0 0 
0 0 0 0 0 0 0 0 0 
0 0 0 0 0 0 0 0 0 
0 0 0 0 0 0 0 0 0 
0 0 0 0 0 0 0 0 0 
0 0 0 0 0 0 0 0 0 

