# vtk DataFile Version 5.1
Generated by LIGGGHTS
ASCII
DATASET POLYDATA
POINTS 648 float
-0.0335565 -0.0442122 0.00119583 0.0363266 -0.0194176 0.00135508 -0.0222502 -0.00974669 0.00113312 
-0.00433253 -0.00676057 0.00126274 0.0131353 -0.00504642 0.00117996 -0.0392616 0.00972366 0.00138196 
-0.0101256 0.00978275 0.00123066 -0.023041 0.0197144 0.00128952 0.0307708 0.0242663 0.00140206 
-0.0200898 0.0311527 0.00129595 -0.0428902 -0.0449088 0.00196368 -0.044759 -0.0437614 0.00172916 
-0.0308094 -0.0435702 0.00209019 0.0418836 -0.0421436 0.00168997 0.0414821 -0.0410789 0.00132485 
-0.042922 -0.0404536 0.00236684 -0.0248652 -0.040212 0.00180221 0.040047 -0.0404588 0.00203603 
-0.00302782 -0.0385948 0.00223761 0.00798734 -0.0367051 0.00160066 0.0308099 -0.0378456 0.00181789 
0.000822496 -0.0363122 0.0016794 0.0333162 -0.0342631 0.00175761 0.023158 -0.0340207 0.00175804 
0.0244271 -0.0334586 0.00217547 -0.0232422 -0.0321576 0.00233617 -0.0105296 -0.0314142 0.00196756 
0.0280204 -0.0311414 0.00205207 -0.0448384 -0.0296834 0.00169665 0.00577088 -0.0287415 0.00206634 
0.000892701 -0.0263701 0.00221002 0.032808 -0.025967 0.00166272 -0.0408326 -0.0234295 0.0019771 
0.039775 -0.0211058 0.00122463 0.0436787 -0.0219137 0.00238769 0.0336491 -0.0197505 0.00218618 
-0.0317771 -0.0175651 0.00164124 -0.0100897 -0.0180162 0.00127853 0.0030191 -0.0179247 0.00248713 
0.0404767 -0.0183151 0.00174481 -0.0257955 -0.0157834 0.0020498 0.0223879 -0.0163393 0.00256233 
-0.00444012 -0.0151621 0.00166934 -0.0388614 -0.0136303 0.00109599 -0.0117656 -0.0138394 0.00171581 
0.0277003 -0.0107969 0.00235011 -0.0112192 -0.0104501 0.00212729 0.00743742 -0.00926665 0.00217167 
0.013874 -0.00963069 0.00170505 0.0350526 -0.0102353 0.00230665 -0.0198564 -0.00683511 0.00193995 
0.0109664 -0.00760095 0.00164026 -0.0129003 -0.00574839 0.0018701 0.021323 -0.00444137 0.00111154 
-0.0179231 -0.00300678 0.00138047 -0.0141425 -0.00311887 0.00170899 -0.00702036 -0.00121172 0.00229714 
-0.00783961 -0.000387029 0.00209495 0.0384376 0.000848974 0.00166626 -0.00967086 0.00179773 0.0020928 
0.00417698 0.0024455 0.00264688 0.0449494 0.00392273 0.00203558 0.0292006 0.00433004 0.00236055 
0.0305447 0.00486582 0.00222996 -0.0287984 0.00559412 0.00227874 -0.0170872 0.00564833 0.00187202 
0.0011249 0.00615697 0.00193269 0.021602 0.00540593 0.00240001 0.0228765 0.00606581 0.00170394 
0.0246705 0.0064451 0.00148329 0.0221269 0.00728552 0.00215361 0.0340899 0.00882812 0.0012319 
-0.0214351 0.00957734 0.00209409 0.0197977 0.00963841 0.00177942 0.0212596 0.00979192 0.00227585 
0.0399323 0.0117688 0.00205378 0.0398091 0.011618 0.00144311 -0.00279986 0.0127222 0.00146819 
-0.034865 0.0142961 0.00246213 -0.0310202 0.0131063 0.00216483 8.23501e-07 0.0138406 0.00237369 
0.0287781 0.014071 0.0023822 0.00517921 0.0169249 0.00135296 0.0418335 0.0161761 0.00126076 
-0.0360536 0.0173104 0.00224227 0.0215224 0.0171285 0.00235667 -0.0214239 0.0189608 0.00172783 
0.0090081 0.0191686 0.0013586 -0.022709 0.0198803 0.00199274 -0.0153727 0.020636 0.0021993 
-0.0282566 0.021284 0.00238879 0.0123926 0.0218243 0.00197184 0.03506 0.0228899 0.00226182 
0.0167463 0.0251763 0.00205339 0.0226957 0.0260881 0.001888 -0.0409258 0.0305044 0.00243717 
0.0038092 0.0311583 0.00188227 0.0364634 0.0310238 0.00225526 0.0444958 0.0309554 0.00172617 
0.01325 0.0319187 0.00167306 -0.0264781 0.032823 0.00208963 0.00284552 0.0345861 0.00207394 
0.0165329 0.0385374 0.00225005 0.0238959 0.0383247 0.00213001 -0.0312382 0.0393096 0.00103497 
0.0251972 0.0393087 0.00257513 0.0163992 0.0415262 0.00153706 -0.0390027 0.0421086 0.00234839 
-0.018434 -0.0405477 0.00259889 -0.0108246 -0.0388127 0.00283568 0.0156715 -0.0391733 0.00271972 
0.00594186 -0.0351889 0.00242007 -0.0262624 -0.032473 0.00239562 -0.0266532 -0.0301716 0.00274243 
0.033456 -0.0256735 0.00269977 -0.0225401 -0.0213878 0.00324471 -0.0108877 -0.0188832 0.00268609 
0.00156248 -0.0194187 0.00304241 0.00689113 -0.0107816 0.0028132 -0.00553214 -0.00871323 0.00304896 
-0.00747582 -0.00609419 0.00341995 0.00937085 -0.00418454 0.00280155 -0.0260142 0.00017485 0.00207818 
0.0188762 0.00181355 0.00270034 -0.0426568 0.00723228 0.00263513 0.0283387 0.00890506 0.00328136 
0.0143092 0.0139794 0.00275504 0.0248423 0.0143007 0.00259888 0.00372347 0.0304157 0.0032181 
-0.0073504 0.0318329 0.00230833 0.0297434 0.0373158 0.00288098 -0.00973825 0.0391656 0.00335915 
0.0222253 0.0407186 0.00328607 -0.00674967 -0.0416523 0.00351085 -0.0334706 -0.0396012 0.00384126 
0.0306875 -0.0259396 0.00400937 -0.0296942 -0.0196153 0.00439523 -0.0339565 -0.0167518 0.00454059 
0.0198229 -0.0156851 0.00424559 0.0286804 -0.00919085 0.00357709 0.0313953 -0.00974065 0.00395892 
0.0180565 -0.00487531 0.00368268 0.00861143 0.0123591 0.00431325 -0.00307286 0.0144526 0.0034781 
0.0121458 0.0151918 0.00359057 0.0181332 0.0246356 0.00465208 -0.0386663 0.0253433 0.00469229 
-0.00563177 0.0268155 0.00387181 -0.0127911 0.0299546 0.00432693 -0.0313244 0.0314049 0.00368046 
0.00390562 0.0317225 0.00456436 -0.041477 0.0364172 0.00428742 0.0348044 -0.042095 0.00562436 
-0.0168273 -0.0360331 0.00565587 -0.0430551 -0.0267583 0.0052066 -0.0426154 -0.0165053 0.0054405 
0.0290986 -0.000251763 0.00582681 -0.0267569 0.0263983 0.00506283 0.0191509 0.0299648 0.00574943 
0.0181024 -0.0433049 0.0063033 0.0449741 -0.0303513 0.00632032 0.00623721 -0.0211799 0.00636681 
0.0233461 -0.0214624 0.0067371 -0.00827992 -0.020547 0.0071445 0.0176437 -0.0119747 0.00699115 
0.0251729 -0.00985964 0.00629495 -0.00254943 -0.00825679 0.00663786 -0.0304645 -0.00701594 0.00732755 
0.0387156 -0.00624884 0.00692595 -0.042786 -0.00359954 0.00714122 -0.0120059 -0.00345367 0.00666601 
-0.00254916 -0.00379952 0.00723505 -0.0325416 0.00283857 0.00657351 0.00347554 0.00338662 0.00737866 
-0.025141 0.00447188 0.00716034 0.0404406 0.00462082 0.00724011 0.030759 0.00580352 0.00617389 
0.0211953 0.00966092 0.00731184 0.000954082 0.0152563 0.00733378 0.00395304 0.0187088 0.0061035 
0.00128112 0.0217131 0.00725704 -0.00782209 0.0241861 0.00667923 -0.00739359 0.0259593 0.00609804 
0.0395905 0.0272142 0.00679329 -0.0357156 0.0282031 0.00614391 -0.0108954 0.0304 0.00655656 
0.026696 0.03017 0.0066425 0.0231674 0.0340949 0.00666451 -0.0112537 0.0395394 0.00669528 
0.0221021 0.0401282 0.00689124 0.00805094 0.0422278 0.00719711 0.0294278 0.0431452 0.00742724 
-0.0205282 0.0432397 0.00637006 0.0405446 0.0433429 0.0072467 -0.027409 -0.0433703 0.00809067 
-0.0349861 -0.0412827 0.00856397 -0.00670669 -0.0394183 0.00857022 -0.0439713 -0.0357399 0.00803961 
0.00879071 -0.0344865 0.00798996 -0.0427235 -0.0332389 0.00780109 0.00802514 -0.031483 0.00870408 
0.0346336 -0.0325969 0.00798337 0.0188903 -0.0308528 0.00891434 0.00741479 -0.0295782 0.00866491 
0.0346338 -0.0290927 0.00782799 -0.00580099 -0.0272788 0.00833469 -0.0207679 -0.0256315 0.00890909 
0.0155599 -0.0240909 0.00825294 0.0268005 -0.0146468 0.00753212 -0.0329121 -0.0139828 0.00769561 
-0.0227164 -0.0141288 0.00895394 0.0404774 -0.00688032 0.0077013 -0.040885 -0.00406647 0.00829978 
-0.0281455 -0.00127675 0.00778631 0.00643655 -0.000956063 0.00933133 0.0147261 0.00139147 0.00839432 
0.032558 0.00153523 0.00765913 -0.0394276 0.0109375 0.0080396 -0.0365733 0.0119208 0.00778533 
0.00243185 0.0120975 0.00828831 0.0407412 0.0174253 0.00748433 0.018015 0.0183735 0.00823859 
0.00953871 0.0271324 0.00807778 -0.0337286 0.0337045 0.00795454 -0.0245447 0.0378537 0.00815885 
0.0399235 0.0434757 0.00835259 -0.00340304 -0.0448428 0.00883854 0.0244803 -0.0401788 0.00942317 
-0.00586029 -0.0338127 0.00915474 -0.0386911 -0.0311434 0.00980082 0.0164647 -0.0275391 0.00964476 
0.0101031 -0.0273014 0.0102267 -0.0338231 -0.0250135 0.00884264 -0.0204621 -0.0172006 0.00977603 
0.0433204 -0.0141837 0.0100655 -0.0269092 -0.0125643 0.00895645 -0.0196799 -0.00931279 0.00949402 
-0.00401126 -0.00720159 0.00912596 0.0275881 -0.00673863 0.0103042 0.0293019 -0.00298432 0.0102449 
-0.0408474 -0.00214648 0.010039 0.00664535 -0.00164817 0.00935548 -0.0376932 -0.000132947 0.0100272 
-0.00757157 0.00454821 0.0101442 -0.037077 0.00611456 0.00907995 0.0101693 0.00555192 0.00987681 
0.0142017 0.0079404 0.00889135 0.0202046 0.00840095 0.00894632 0.014866 0.0127598 0.0094885 
-0.0256005 0.0215871 0.0102215 -0.0349287 0.0230684 0.00977719 0.0146363 0.0223077 0.00980963 
-0.0267196 0.0236159 0.00899713 0.0258603 0.0235991 0.00902686 0.000162142 0.0251126 0.0092325 
-0.00435696 0.0325462 0.00906448 0.0372507 0.0318783 0.0096237 -0.0155539 0.0359545 0.0100036 
-0.00196307 0.0366495 0.00976465 -0.0375088 0.0393741 0.00985317 0.00308146 0.0401468 0.00946009 
-0.0133259 0.0414802 0.00892247 -0.0346971 -0.0446764 0.0105729 0.0416479 -0.0439733 0.0103884 
-0.0248654 -0.0427111 0.0108695 0.0248068 -0.0428986 0.0102691 -0.00521279 -0.0413279 0.0115017 
0.0238162 -0.0409762 0.0107139 0.0338942 -0.0410147 0.0103249 -0.0385899 -0.0405251 0.0115105 
-0.0370475 -0.0370945 0.0101613 0.0341086 -0.0368686 0.011208 0.0397687 -0.0374633 0.0109853 
-0.0273176 -0.0361067 0.0110872 0.0077947 -0.0345433 0.0104639 0.0419483 -0.0348097 0.0116767 
0.0433459 -0.0353282 0.0106376 0.027474 -0.0338615 0.0110787 -0.0160452 -0.0323821 0.0114965 
-0.0240719 -0.0268296 0.0106521 0.03382 -0.0268981 0.0110757 -0.00446216 -0.0255279 0.0114773 
-0.0405162 -0.0161033 0.010909 -0.015814 -0.0152491 0.0114375 0.0249316 -0.014475 0.0112308 
-0.0341597 -0.0122829 0.010979 0.0414788 -0.00521487 0.0117135 -0.0416237 0.00110806 0.0104484 
0.0362421 0.00170773 0.0108893 -0.00723413 0.00605583 0.0102559 0.00533928 0.00728904 0.0102053 
0.00474506 0.0103043 0.0106959 0.0261916 0.0119357 0.010835 -0.0429188 0.0135204 0.010072 
-0.0081225 0.0151775 0.0113354 -0.0245993 0.0193658 0.0116569 0.00757299 0.0192258 0.0113533 
0.0122157 0.0191756 0.0112934 0.0388885 0.0193682 0.0111679 -0.0431379 0.0208085 0.0109931 
-0.0421793 0.0225172 0.0111784 -0.0114472 0.026715 0.0108847 0.00834461 0.0278725 0.0105012 
0.0434247 0.0295768 0.0110451 -0.0197415 0.0344175 0.011891 0.0114086 0.0440135 0.0113257 
0.0171919 0.0449185 0.0111121 0.0211706 0.0445491 0.0113697 0.0145521 -0.0432303 0.0120057 
0.0339316 -0.041715 0.0130847 -0.0169239 -0.0402939 0.0119545 0.0195647 -0.0366528 0.012254 
-0.0376897 -0.0314333 0.0124489 0.0268369 -0.0315202 0.0126064 0.00231692 -0.0294453 0.0125188 
-0.0419519 -0.0259749 0.0131671 0.00538025 -0.0241403 0.0124628 0.00548761 -0.0197918 0.0125725 
-0.0328213 -0.0176588 0.0115548 0.0375745 -0.0151367 0.0115658 0.0403752 -0.0143085 0.0120971 
0.0406218 -0.0100941 0.0122867 0.0282359 -0.00877456 0.0123702 -0.0343844 -0.0078404 0.0127132 
-0.0214415 -0.007536 0.0122739 -0.0135858 -0.00672635 0.011433 0.00523139 -0.00599236 0.012217 
0.0407777 0.000744206 0.012352 0.00314898 0.00491531 0.0120798 0.0323225 0.00436429 0.0124045 
-0.0406381 0.00555966 0.0115298 0.0332757 0.00539899 0.0117684 0.00978397 0.00922321 0.0127362 
-0.0350204 0.0121089 0.0126269 0.0128044 0.0127337 0.0115511 0.00789931 0.0136568 0.0122937 
0.0114764 0.0140289 0.0121671 0.0336082 0.013194 0.0121497 -0.0196462 0.0155185 0.0120289 
-0.00443291 0.0160613 0.012087 0.0226738 0.0181095 0.011474 0.0362273 0.0220011 0.0116107 
-0.0295899 0.0232577 0.0124604 -0.0190887 0.0269029 0.0119404 -0.0296003 0.0277025 0.0127793 
-0.0376379 0.0294143 0.0119275 0.0104707 0.0313218 0.0126814 -0.0213481 0.0319153 0.0124631 
0.0152528 0.033152 0.0128499 0.0030545 0.0369981 0.0116454 0.0311732 0.0371467 0.0116932 
-0.0181988 0.0434549 0.0114771 0.0352379 0.0438995 0.0124481 -0.0160353 0.0448572 0.0122245 
0.0262096 -0.0449372 0.0140333 0.0131812 -0.0427533 0.0138348 0.0185094 -0.042363 0.0142964 
0.000425919 -0.0415728 0.0132081 0.0424299 -0.0409921 0.0139782 -0.00161929 -0.0353994 0.013012 
0.0403097 -0.0347888 0.0131878 -0.0263426 -0.0292431 0.0128408 -0.0401314 -0.0280847 0.0129443 
-0.0240024 -0.0280603 0.0129117 -0.015788 -0.0282898 0.0137734 0.0115492 -0.0227248 0.0128392 
-0.0164034 -0.0216001 0.012791 -0.0408642 -0.0154151 0.0128709 -0.0186412 -0.0134353 0.0139104 
-0.0327621 -0.0121928 0.0137348 0.0414517 -0.0114994 0.0142496 -0.038829 -0.00978443 0.0131163 
0.00357123 -0.00830953 0.0146929 0.0161928 -0.00760918 0.0131536 0.00975646 -0.00313231 0.0137102 
-0.00896956 -0.00131708 0.0133916 0.00635633 0.000852437 0.0137767 -0.00229178 0.0020129 0.0129856 
0.00265626 0.00371614 0.013184 0.0250346 0.00641518 0.0129492 0.0320014 0.00756294 0.0140826 
-0.00831541 0.0129665 0.0133031 0.0379188 0.0120326 0.0144584 -0.00867948 0.0139924 0.0129689 
0.0441199 0.0136981 0.0134083 0.00546842 0.0177814 0.0139295 0.0256029 0.0175394 0.0131185 
-0.0144089 0.0201081 0.0144671 0.00976854 0.0197772 0.0138642 0.0350116 0.0207306 0.0129282 
-0.0102477 0.0267602 0.0143411 -0.0219587 0.0304934 0.0141063 0.00519606 0.0301696 0.0131424 
0.00317215 0.0343196 0.0129459 0.0164577 0.0353116 0.0139934 -0.0407273 0.0358476 0.0140015 
-0.00883869 0.0381834 0.0130953 -0.00647711 0.0391566 0.0136512 0.0281745 0.039089 0.0131386 
0.0131273 0.040817 0.0135022 0.0352701 0.0439749 0.0138099 -0.0440308 0.0448256 0.013996 
0.0201641 -0.0426709 0.0147141 0.0166138 -0.0412108 0.0146289 -0.0406141 -0.0405112 0.0155017 
0.00985621 -0.0367022 0.0146902 -0.0309963 -0.0355024 0.0149095 0.0355384 -0.0354155 0.0153834 
0.00264867 -0.0338128 0.0149373 0.0289145 -0.0340196 0.0155827 -0.0414327 -0.0290659 0.0151021 
0.023019 -0.0293484 0.0142267 -0.00863888 -0.0237376 0.0152268 0.0102479 -0.024092 0.014837 
-0.0350278 -0.0224863 0.0151058 0.035159 -0.023363 0.0146473 -0.0323128 -0.0219837 0.0152748 
0.0414834 -0.0181367 0.0152193 0.0252581 -0.0163235 0.0143021 0.038292 -0.016257 0.0141742 
-0.0313057 -0.0141988 0.0149079 0.0342493 -0.0115037 0.014948 -0.042331 -0.00792816 0.0142387 
-0.0344646 -0.00725539 0.0143211 0.0129906 -0.00677597 0.0145196 0.0180458 -0.00470109 0.0143073 
-0.00941413 -0.00330341 0.0148025 -0.0395569 -0.00227866 0.0153043 0.0154702 -0.00154679 0.0154155 
-0.0356048 -0.000104637 0.0152391 -0.0283489 -0.000417126 0.0150415 -0.000610522 -0.00103491 0.015467 
0.0140084 -6.89735e-05 0.0149889 0.0116524 0.00206193 0.0152213 0.00243665 0.00282786 0.0141573 
-0.0349081 0.00917553 0.0149576 -0.00841171 0.0143034 0.0151108 0.0311878 0.014057 0.0145297 
0.0153641 0.0146287 0.0153336 0.0440772 0.0154938 0.0150557 0.0323341 0.0191974 0.0153809 
-0.0287332 0.0215601 0.0145829 -0.0122989 0.0222019 0.0140376 0.0398418 0.0217469 0.0145601 
-0.0170112 0.0231088 0.0159882 0.00126512 0.0228658 0.0150559 0.00264144 0.0247174 0.014309 
0.0438582 0.0244724 0.0141069 -0.0269229 0.0267788 0.014702 0.0214431 0.0335886 0.0143967 
-0.00472634 0.0344449 0.0145254 -0.00585061 0.0388609 0.0146413 -0.00396528 -0.0444182 0.0154295 
0.0195053 -0.043722 0.0159795 -0.0136468 -0.0412372 0.0160794 -0.0177429 -0.0346724 0.015825 
-0.0177803 -0.0340186 0.016418 -0.0161578 -0.0337243 0.0159077 -0.0233761 -0.031813 0.0165964 
-0.0220587 -0.0306349 0.0154314 0.0392765 -0.0300093 0.0167268 0.0153133 -0.0285941 0.0164072 
-0.0336946 -0.0248459 0.0163142 0.00179778 -0.0247441 0.0162078 0.00558373 -0.0242787 0.01578 
-0.0127621 -0.0231756 0.0156917 0.0240101 -0.0228809 0.0156957 -0.0329608 -0.0218045 0.0164577 
-0.0291427 -0.0219343 0.0166644 0.0262592 -0.0217201 0.0165305 0.0394323 -0.021923 0.0153366 
-0.0210835 -0.0209207 0.0157676 -0.0033641 -0.0204173 0.0157909 0.0184681 -0.0172117 0.0162524 
-0.0393221 -0.0167834 0.016532 -0.0147645 -0.0165889 0.0155601 -0.0420316 -0.0145538 0.0166184 
0.0323803 -0.0150629 0.0155338 0.0144468 -0.013247 0.0162366 -0.00528066 -0.0121118 0.0164826 
0.0322358 -0.0130621 0.0160046 -0.0207563 -0.0111167 0.016878 0.0223025 -0.0112244 0.0158418 
-0.0326334 -0.00963456 0.0165191 -0.0136128 -0.00979682 0.0154731 0.0334462 -0.00930086 0.0155534 
-0.024842 -0.00884532 0.0166403 -0.0211095 -0.00770044 0.0161054 0.0200271 -0.00425623 0.015859 
-0.0107529 -0.00365687 0.016051 -0.0198668 -0.00211416 0.0165469 0.0168839 -0.00210364 0.0154689 
-0.0153419 -0.00108619 0.0155187 0.0183943 0.00266245 0.0162048 0.0277548 0.0042931 0.0162649 
-0.0429246 0.00657681 0.0164634 0.0110904 0.00657535 0.0162923 -0.0105861 0.00898083 0.0155222 
-0.0408092 0.00981999 0.0165132 -0.0371624 0.011326 0.0159481 0.0396593 0.013993 0.0154048 
-0.0231109 0.0157017 0.0166672 -0.0193355 0.018129 0.01598 -0.0148746 0.0223253 0.0155802 
-0.0128609 0.0265935 0.0163155 -0.0368667 0.0306348 0.0164007 -0.032208 0.0306075 0.0158335 
0.0354139 0.0312817 0.0158081 0.0191028 0.0315895 0.0159703 0.0193546 0.0324404 0.0156395 
-0.0425374 0.0333781 0.0166429 0.00727395 0.0332762 0.0154468 0.00888594 0.0360502 0.0160619 
0.00201585 0.0404036 0.0163527 -0.0437633 0.0406561 0.0160574 0.00513794 0.0433856 0.0164611 
0.00528787 0.0432844 0.0156461 0.0406519 -0.0427256 0.0178649 0.0325128 -0.03812 0.0176779 
-8.23525e-05 -0.034098 0.0177434 0.0412685 -0.0295104 0.018119 -0.0346801 -0.0287009 0.0172094 
-0.0432264 -0.0264101 0.0176623 0.0054016 -0.025334 0.0174683 0.0347572 -0.0260666 0.0176121 
-0.0328109 -0.0226975 0.0179962 0.0109547 -0.0235646 0.0171117 -0.0183202 -0.0175475 0.0178371 
0.0132043 -0.01541 0.0172734 -0.0279963 -0.0141356 0.0171769 -0.0449336 -0.00957357 0.0175098 
-0.0386256 -0.00983966 0.0177972 -0.00474481 -0.00600267 0.0178622 -0.0253129 -0.0039775 0.0170264 
-0.0261639 0.00337815 0.0169702 -0.0233311 0.00384073 0.0176096 0.0260144 0.00429017 0.0170453 
-0.0403489 0.00598291 0.018022 -0.00552594 0.00555795 0.0169927 0.0358407 0.00533501 0.0175156 
-0.019893 0.00878872 0.0177883 0.0234497 0.00978487 0.0175397 -0.00071691 0.0108932 0.017155 
0.012585 0.0155082 0.0172642 -0.0408838 0.0159645 0.0174703 0.00153271 0.0201988 0.0172568 
0.00742845 0.0199749 0.017962 -0.0324762 0.0230005 0.0174021 0.0397191 0.0283771 0.0175534 
-0.0406313 0.0295913 0.0176406 -0.0422696 0.0340949 0.0178776 0.0278529 0.0342296 0.0171057 
0.00367032 0.0371324 0.017829 -0.039126 0.0399637 0.0171724 -0.0281804 0.0418824 0.017289 
-0.0390775 0.0447256 0.0170007 -0.0389435 -0.0425966 0.0181779 0.00849583 -0.0405939 0.0187186 
-0.0289295 -0.0389067 0.0189953 -0.0195638 -0.0385913 0.0183897 -0.0210092 -0.0320472 0.0187341 
-0.0396817 -0.0304797 0.0191425 0.0350196 -0.0250011 0.0187691 0.0210005 -0.0239559 0.0189404 
-0.0207996 -0.0190456 0.0184215 0.0134129 -0.0192809 0.0191754 0.0204492 -0.0194639 0.0188201 
0.0218308 -0.0192565 0.0190656 0.0282033 -0.0178095 0.0188897 0.0302919 -0.0148257 0.0184983 
-0.00710141 -0.0133745 0.0189861 0.00886689 -0.0141191 0.0190393 0.0323804 -0.0132471 0.0185377 
0.0253763 -0.011051 0.0186853 -0.0253401 -0.0103599 0.0183909 -0.0150798 -0.00698339 0.01812 
0.00127443 -0.000618905 0.0193161 0.0420414 -0.00101026 0.0186382 0.0189244 0.00254502 0.0185637 
-0.027449 0.00511055 0.0191263 -0.01547 0.00642247 0.0193366 -0.009285 0.00693532 0.0189884 
-0.00598638 0.00689803 0.0190386 0.0324887 0.00836074 0.0180583 -0.0408306 0.00999374 0.0183281 
0.027557 0.009967 0.0184804 -0.00808524 0.0113378 0.0181365 0.012949 0.0143048 0.0184098 
-0.0287818 0.014969 0.0187073 -0.0286532 0.0159811 0.0189033 -0.00317984 0.0164631 0.0190121 
0.00976298 0.0163696 0.0190788 -0.0363159 0.0185996 0.0187098 -0.0436572 0.0238848 0.0183591 
0.021223 0.0244832 0.0185876 -0.0214233 0.0285543 0.0187024 -0.0152062 0.0294088 0.0183725 
0.0040127 0.0314243 0.0182731 0.0337272 0.0324898 0.0184361 0.0380057 0.0324307 0.0183432 
-0.00750544 0.0361316 0.0193132 0.0439232 0.0371117 0.0190859 0.0170579 0.0421878 0.0190156 
-0.0317519 -0.0446953 0.0197169 -0.0234086 -0.038644 0.0203983 -0.00338111 -0.0363358 0.0199804 
0.0307351 -0.0355434 0.0197857 -0.0179089 -0.0346335 0.0198878 0.043014 -0.0343178 0.0204037 
0.010226 -0.0308634 0.0199962 0.0156293 -0.0283842 0.0196453 -0.038621 -0.0229432 0.0204167 
-0.0139777 -0.0223984 0.0195787 0.0296492 -0.015918 0.0194292 0.0347312 -0.012978 0.0195496 
0.0218314 -0.00971151 0.0197559 -0.0101373 -0.00698039 0.019661 -0.00720807 -0.00608605 0.0198698 
-0.0332593 0.000859011 0.0197195 0.023953 0.00820576 0.0202565 -0.0161548 0.0159009 0.019836 
-0.0436896 0.0195853 0.0196359 -0.0138035 0.0240512 0.0197098 -0.0132251 0.0252506 0.0197718 
-0.0379532 0.0399341 0.0203429 -0.00785852 0.041878 0.0206134 0.0430506 0.0422314 0.0205434 
0.039455 -0.000236508 0.0215699 -0.0131355 0.00164571 0.0209542 -0.0137512 0.00384646 0.0212028 
0.00418285 0.0112423 0.0208631 -0.0359241 0.0337864 0.0209689 0.0132394 0.0345575 0.0209765 
-0.0190394 0.0446837 0.0208914 0.0147823 -0.0446949 0.0221866 -0.00682403 -0.0314098 0.022328 
0.0386193 -0.00496685 0.0222877 0.0448793 -0.00396119 0.0226789 -0.0442311 0.00821601 0.0232017 
-0.014478 0.0275162 0.0226293 0.0272875 -0.0186725 0.0234566 0.0352883 -0.0103067 0.0241347 
-0.0122189 0.0175978 0.0241535 -0.0260391 0.0304395 0.0245409 -0.0225361 -0.0441701 0.0252992 
0.0127657 -0.00746761 0.024797 0.0133448 0.00646544 0.026071 0.0242571 -0.0100823 0.0372993 

VERTICES 649 648
OFFSETS vtktypeint64
0 1 2 3 4 5 6 7 8 
9 10 11 12 13 14 15 16 17 
18 19 20 21 22 23 24 25 26 
27 28 29 30 31 32 33 34 35 
36 37 38 39 40 41 42 43 44 
45 46 47 48 49 50 51 52 53 
54 55 56 57 58 59 60 61 62 
63 64 65 66 67 68 69 70 71 
72 73 74 75 76 77 78 79 80 
81 82 83 84 85 86 87 88 89 
90 91 92 93 94 95 96 97 98 
99 100 101 102 103 104 105 106 107 
108 109 110 111 112 113 114 115 116 
117 118 119 120 121 122 123 124 125 
126 127 128 129 130 131 132 133 134 
135 136 137 138 139 140 141 142 143 
144 145 146 147 148 149 150 151 152 
153 154 155 156 157 158 159 160 161 
162 163 164 165 166 167 168 169 170 
171 172 173 174 175 176 177 178 179 
180 181 182 183 184 185 186 187 188 
189 190 191 192 193 194 195 196 197 
198 199 200 201 202 203 204 205 206 
207 208 209 210 211 212 213 214 215 
216 217 218 219 220 221 222 223 224 
225 226 227 228 229 230 231 232 233 
234 235 236 237 238 239 240 241 242 
243 244 245 246 247 248 249 250 251 
252 253 254 255 256 257 258 259 260 
261 262 263 264 265 266 267 268 269 
270 271 272 273 274 275 276 277 278 
279 280 281 282 283 284 285 286 287 
288 289 290 291 292 293 294 295 296 
297 298 299 300 301 302 303 304 305 
306 307 308 309 310 311 312 313 314 
315 316 317 318 319 320 321 322 323 
324 325 326 327 328 329 330 331 332 
333 334 335 336 337 338 339 340 341 
342 343 344 345 346 347 348 349 350 
351 352 353 354 355 356 357 358 359 
360 361 362 363 364 365 366 367 368 
369 370 371 372 373 374 375 376 377 
378 379 380 381 382 383 384 385 386 
387 388 389 390 391 392 393 394 395 
396 397 398 399 400 401 402 403 404 
405 406 407 408 409 410 411 412 413 
414 415 416 417 418 419 420 421 422 
423 424 425 426 427 428 429 430 431 
432 433 434 435 436 437 438 439 440 
441 442 443 444 445 446 447 448 449 
450 451 452 453 454 455 456 457 458 
459 460 461 462 463 464 465 466 467 
468 469 470 471 472 473 474 475 476 
477 478 479 480 481 482 483 484 485 
486 487 488 489 490 491 492 493 494 
495 496 497 498 499 500 501 502 503 
504 505 506 507 508 509 510 511 512 
513 514 515 516 517 518 519 520 521 
522 523 524 525 526 527 528 529 530 
531 532 533 534 535 536 537 538 539 
540 541 542 543 544 545 546 547 548 
549 550 551 552 553 554 555 556 557 
558 559 560 561 562 563 564 565 566 
567 568 569 570 571 572 573 574 575 
576 577 578 579 580 581 582 583 584 
585 586 587 588 589 590 591 592 593 
594 595 596 597 598 599 600 601 602 
603 604 605 606 607 608 609 610 611 
612 613 614 615 616 617 618 619 620 
621 622 623 624 625 626 627 628 629 
630 631 632 633 634 635 636 637 638 
639 640 641 642 643 644 645 646 647 
648 
CONNECTIVITY vtktypeint64
0 1 2 3 4 5 6 7 8 
9 10 11 12 13 14 15 16 17 
18 19 20 21 22 23 24 25 26 
27 28 29 30 31 32 33 34 35 
36 37 38 39 40 41 42 43 44 
45 46 47 48 49 50 51 52 53 
54 55 56 57 58 59 60 61 62 
63 64 65 66 67 68 69 70 71 
72 73 74 75 76 77 78 79 80 
81 82 83 84 85 86 87 88 89 
90 91 92 93 94 95 96 97 98 
99 100 101 102 103 104 105 106 107 
108 109 110 111 112 113 114 115 116 
117 118 119 120 121 122 123 124 125 
126 127 128 129 130 131 132 133 134 
135 136 137 138 139 140 141 142 143 
144 145 146 147 148 149 150 151 152 
153 154 155 156 157 158 159 160 161 
162 163 164 165 166 167 168 169 170 
171 172 173 174 175 176 177 178 179 
180 181 182 183 184 185 186 187 188 
189 190 191 192 193 194 195 196 197 
198 199 200 201 202 203 204 205 206 
207 208 209 210 211 212 213 214 215 
216 217 218 219 220 221 222 223 224 
225 226 227 228 229 230 231 232 233 
234 235 236 237 238 239 240 241 242 
243 244 245 246 247 248 249 250 251 
252 253 254 255 256 257 258 259 260 
261 262 263 264 265 266 267 268 269 
270 271 272 273 274 275 276 277 278 
279 280 281 282 283 284 285 286 287 
288 289 290 291 292 293 294 295 296 
297 298 299 300 301 302 303 304 305 
306 307 308 309 310 311 312 313 314 
315 316 317 318 319 320 321 322 323 
324 325 326 327 328 329 330 331 332 
333 334 335 336 337 338 339 340 341 
342 343 344 345 346 347 348 349 350 
351 352 353 354 355 356 357 358 359 
360 361 362 363 364 365 366 367 368 
369 370 371 372 373 374 375 376 377 
378 379 380 381 382 383 384 385 386 
387 388 389 390 391 392 393 394 395 
396 397 398 399 400 401 402 403 404 
405 406 407 408 409 410 411 412 413 
414 415 416 417 418 419 420 421 422 
423 424 425 426 427 428 429 430 431 
432 433 434 435 436 437 438 439 440 
441 442 443 444 445 446 447 448 449 
450 451 452 453 454 455 456 457 458 
459 460 461 462 463 464 465 466 467 
468 469 470 471 472 473 474 475 476 
477 478 479 480 481 482 483 484 485 
486 487 488 489 490 491 492 493 494 
495 496 497 498 499 500 501 502 503 
504 505 506 507 508 509 510 511 512 
513 514 515 516 517 518 519 520 521 
522 523 524 525 526 527 528 529 530 
531 532 533 534 535 536 537 538 539 
540 541 542 543 544 545 546 547 548 
549 550 551 552 553 554 555 556 557 
558 559 560 561 562 563 564 565 566 
567 568 569 570 571 572 573 574 575 
576 577 578 579 580 581 582 583 584 
585 586 587 588 589 590 591 592 593 
594 595 596 597 598 599 600 601 602 
603 604 605 606 607 608 609 610 611 
612 613 614 615 616 617 618 619 620 
621 622 623 624 625 626 627 628 629 
630 631 632 633 634 635 636 637 638 
639 640 641 642 643 644 645 646 647 

POINT_DATA 648
FIELD FieldData 12
id 1 648 int
366 238 227 6 515 261 288 521 189 
187 164 463 200 218 207 134 87 508 
92 115 356 24 88 51 347 404 185 
107 137 331 291 267 282 237 317 470 
439 247 289 355 176 444 381 58 215 
292 231 428 127 293 72 336 383 125 
57 385 66 132 465 36 175 86 418 
458 407 478 456 396 467 353 423 165 
197 255 214 432 373 60 297 169 322 
310 193 40 433 339 110 364 149 166 
49 18 219 195 163 506 158 26 327 
29 270 85 246 328 318 386 412 372 
35 34 459 367 303 304 190 64 154 
440 106 324 243 370 83 186 450 129 
150 491 201 253 362 320 62 457 256 
121 479 73 168 483 157 11 401 202 
308 12 100 280 504 488 148 233 140 
226 128 496 341 408 321 346 352 167 
472 174 349 427 260 399 299 263 257 
642 334 641 56 141 454 420 469 417 
337 14 162 461 410 343 268 251 155 
435 91 108 406 272 188 562 314 22 
319 229 505 543 636 640 294 409 627 
71 290 500 612 368 567 542 621 90 
538 601 345 273 392 117 199 348 437 
351 98 326 571 333 445 645 415 298 
644 8 248 42 615 592 360 135 204 
631 495 546 424 112 21 646 330 104 
109 507 9 222 94 624 232 76 643 
361 275 31 113 390 632 429 577 648 
411 626 122 82 489 584 605 589 570 
13 183 604 572 374 240 380 647 75 
61 486 426 338 446 384 619 582 443 
447 161 357 287 30 509 114 600 302 
55 438 84 597 99 436 477 5 139 
574 484 28 274 194 211 311 602 563 
10 32 377 196 593 216 503 126 497 
181 378 46 633 236 178 220 54 529 
254 498 609 451 611 583 579 182 198 
375 475 614 534 414 635 591 271 159 
69 295 502 96 629 449 160 143 59 
146 638 16 608 278 20 151 630 565 
598 474 556 262 620 119 63 587 118 
625 514 33 535 419 81 313 552 309 
559 413 536 606 397 639 203 52 549 
102 487 344 616 634 393 103 493 223 
526 329 576 603 553 170 306 628 95 
53 580 252 142 382 610 568 205 564 
265 208 244 400 17 395 622 358 607 
138 431 279 588 394 520 206 637 235 
387 45 89 93 68 518 350 156 239 
250 533 147 581 116 79 416 323 578 
547 573 111 403 25 551 618 462 590 
74 460 43 566 585 599 617 264 38 
569 511 105 171 405 371 217 305 613 
301 528 144 4 595 363 70 184 325 
266 594 596 623 481 65 455 225 286 
123 575 586 342 471 359 388 548 354 
527 532 430 541 192 539 376 276 554 
544 557 285 519 212 379 501 545 153 
124 296 221 560 315 561 281 130 179 
524 550 421 482 523 555 476 258 136 
312 210 307 525 335 234 177 44 448 
558 517 537 490 441 530 340 23 522 
365 80 77 284 245 425 213 145 453 
480 442 41 48 228 473 15 485 191 
78 209 540 332 180 466 452 531 434 
242 173 67 492 402 47 283 120 37 
513 422 259 101 39 224 389 510 468 
152 97 131 249 277 19 2 499 300 
464 494 391 172 241 398 133 50 316 
369 516 3 7 269 230 27 512 1 

type 1 648 int
1 1 1 2 1 1 1 1 1 
1 1 1 1 1 1 1 1 1 
1 1 1 1 1 1 1 1 1 
1 1 1 1 1 1 1 1 1 
1 1 1 1 1 1 1 1 1 
1 1 1 1 1 1 1 1 1 
1 1 1 1 1 1 1 1 1 
1 1 1 1 1 1 1 1 1 
1 1 1 1 1 1 1 1 1 
1 1 1 1 1 1 1 1 1 
1 1 1 1 1 1 1 1 1 
1 1 1 1 1 1 1 1 1 
1 1 1 1 1 1 1 1 1 
1 1 1 1 1 1 1 1 1 
1 1 1 1 1 1 1 1 1 
1 1 1 1 1 1 2 1 1 
1 2 1 1 1 1 1 1 1 
1 1 1 1 1 1 1 1 1 
1 1 1 1 1 1 1 1 1 
1 1 1 1 1 1 1 1 1 
1 2 1 1 1 1 1 1 1 
1 1 1 1 1 1 1 1 1 
1 1 1 1 1 1 1 1 1 
1 1 1 1 1 1 1 1 1 
1 1 1 1 1 1 1 1 1 
1 1 1 1 1 1 1 1 1 
1 2 1 1 1 1 1 1 1 
1 1 1 1 1 1 1 1 1 
1 1 2 1 1 1 1 1 1 
1 1 1 1 1 1 1 1 1 
1 1 1 1 1 1 1 1 1 
2 1 1 1 1 1 1 1 1 
1 1 1 1 1 1 1 1 1 
1 1 1 1 1 1 1 1 1 
1 1 1 1 1 1 1 2 1 
1 1 1 1 1 1 1 1 1 
2 1 1 1 1 1 1 1 1 
1 1 1 1 1 1 1 1 1 
1 1 1 1 1 1 1 1 1 
1 1 1 1 1 1 1 1 1 
1 1 1 1 1 1 1 1 1 
1 1 2 1 1 1 1 1 1 
1 1 1 1 1 1 1 1 1 
1 1 1 1 1 1 1 1 1 
1 1 1 1 1 1 1 1 1 
1 1 1 1 2 1 1 1 1 
1 1 1 1 1 1 1 1 1 
1 1 1 1 1 1 1 1 1 
1 1 1 1 1 1 1 1 1 
1 1 1 1 1 1 1 1 1 
1 1 1 1 1 1 1 1 1 
1 1 1 1 1 1 1 1 1 
1 1 1 1 1 1 1 1 1 
1 1 1 1 1 1 1 1 1 
1 1 1 1 1 1 1 1 1 
1 1 1 2 1 1 1 1 1 
1 1 1 1 1 1 1 1 1 
1 1 1 1 1 1 1 1 1 
1 1 1 1 1 1 1 1 1 
1 1 1 1 1 1 1 1 1 
1 1 1 1 1 1 1 1 1 
1 1 1 1 1 1 1 1 1 
1 1 1 1 1 1 1 1 1 
1 1 1 1 1 1 1 1 1 
1 1 1 1 1 1 1 1 1 
1 1 1 1 1 1 2 1 1 
1 1 1 1 1 1 1 1 1 
1 1 1 1 1 1 1 1 1 
1 1 1 1 1 1 1 1 1 
1 1 1 1 1 1 3 1 1 
1 1 1 1 1 1 1 1 1 
1 2 2 2 1 1 1 2 4 

i 3 648 int
0 0 0 0 0 0 0 0 0 
0 0 0 0 0 0 0 0 0 
0 0 0 0 0 0 0 0 0 
0 0 0 0 0 0 0 0 0 
0 0 0 0 0 0 0 0 0 
0 0 0 0 0 0 0 0 0 
0 0 0 0 0 0 0 0 0 
0 0 0 0 0 0 0 0 0 
0 0 0 0 0 0 0 0 0 
0 0 0 0 0 0 0 0 0 
0 0 0 0 0 0 0 0 0 
0 0 0 0 0 0 0 0 0 
0 0 0 0 0 0 0 0 0 
0 0 0 0 0 0 0 0 0 
0 0 0 0 0 0 0 0 0 
0 0 0 0 0 0 0 0 0 
0 0 0 0 0 0 0 0 0 
0 0 0 0 0 0 0 0 0 
0 0 0 0 0 0 0 0 0 
0 0 0 0 0 0 0 0 0 
0 0 0 0 0 0 0 0 0 
0 0 0 0 0 0 0 0 0 
0 0 0 0 0 0 0 0 0 
0 0 0 0 0 0 0 0 0 
0 0 0 0 0 0 0 0 0 
0 0 0 0 0 0 0 0 0 
0 0 0 0 0 0 0 0 0 
0 0 0 0 0 0 0 0 0 
0 0 0 0 0 0 0 0 0 
0 0 0 0 0 0 0 0 0 
0 0 0 0 0 0 0 0 0 
0 0 0 0 0 0 0 0 0 
0 0 0 0 0 0 0 0 0 
0 0 0 0 0 0 0 0 0 
0 0 0 0 0 0 0 0 0 
0 0 0 0 0 0 0 0 0 
0 0 0 0 0 0 0 0 0 
0 0 0 0 0 0 0 0 0 
0 0 0 0 0 0 0 0 0 
0 0 0 0 0 0 0 0 0 
0 0 0 0 0 0 0 0 0 
0 0 0 0 0 0 0 0 0 
0 0 0 0 0 0 0 0 0 
0 0 0 0 0 0 0 0 0 
0 0 0 0 0 0 0 0 0 
0 0 0 0 0 0 0 0 0 
0 0 0 0 0 0 0 0 0 
0 0 0 0 0 0 0 0 0 
0 0 0 0 0 0 0 0 0 
0 0 0 0 0 0 0 0 0 
0 0 0 0 0 0 0 0 0 
0 0 0 0 0 0 0 0 0 
0 0 0 0 0 0 0 0 0 
0 0 0 0 0 0 0 0 0 
0 0 0 0 0 0 0 0 0 
0 0 0 0 0 0 0 0 0 
0 0 0 0 0 0 0 0 0 
0 0 0 0 0 0 0 0 0 
0 0 0 0 0 0 0 0 0 
0 0 0 0 0 0 0 0 0 
0 0 0 0 0 0 0 0 0 
0 0 0 0 0 0 0 0 0 
0 0 0 0 0 0 0 0 0 
0 0 0 0 0 0 0 0 0 
0 0 0 0 0 0 0 0 0 
0 0 0 0 0 0 0 0 0 
0 0 0 0 0 0 0 0 0 
0 0 0 0 0 0 0 0 0 
0 0 0 0 0 0 0 0 0 
0 0 0 0 0 0 0 0 0 
0 0 0 0 0 0 0 0 0 
0 0 0 0 0 0 0 0 0 
0 0 0 0 0 0 0 0 0 
0 0 0 0 0 0 0 0 0 
0 0 0 0 0 0 0 0 0 
0 0 0 0 0 0 0 0 0 
0 0 0 0 0 0 0 0 0 
0 0 0 0 0 0 0 0 0 
0 0 0 0 0 0 0 0 0 
0 0 0 0 0 0 0 0 0 
0 0 0 0 0 0 0 0 0 
0 0 0 0 0 0 0 0 0 
0 0 0 0 0 0 0 0 0 
0 0 0 0 0 0 0 0 0 
0 0 0 0 0 0 0 0 0 
0 0 0 0 0 0 0 0 0 
0 0 0 0 0 0 0 0 0 
0 0 0 0 0 0 0 0 0 
0 0 0 0 0 0 0 0 0 
0 0 0 0 0 0 0 0 0 
0 0 0 0 0 0 0 0 0 
0 0 0 0 0 0 0 0 0 
0 0 0 0 0 0 0 0 0 
0 0 0 0 0 0 0 0 0 
0 0 0 0 0 0 0 0 0 
0 0 0 0 0 0 0 0 0 
0 0 0 0 0 0 0 0 0 
0 0 0 0 0 0 0 0 0 
0 0 0 0 0 0 0 0 0 
0 0 0 0 0 0 0 0 0 
0 0 0 0 0 0 0 0 0 
0 0 0 0 0 0 0 0 0 
0 0 0 0 0 0 0 0 0 
0 0 0 0 0 0 0 0 0 
0 0 0 0 0 0 0 0 0 
0 0 0 0 0 0 0 0 0 
0 0 0 0 0 0 0 0 0 
0 0 0 0 0 0 0 0 0 
0 0 0 0 0 0 0 0 0 
0 0 0 0 0 0 0 0 0 
0 0 0 0 0 0 0 0 0 
0 0 0 0 0 0 0 0 0 
0 0 0 0 0 0 0 0 0 
0 0 0 0 0 0 0 0 0 
0 0 0 0 0 0 0 0 0 
0 0 0 0 0 0 0 0 0 
0 0 0 0 0 0 0 0 0 
0 0 0 0 0 0 0 0 0 
0 0 0 0 0 0 0 0 0 
0 0 0 0 0 0 0 0 0 
0 0 0 0 0 0 0 0 0 
0 0 0 0 0 0 0 0 0 
0 0 0 0 0 0 0 0 0 
0 0 0 0 0 0 0 0 0 
0 0 0 0 0 0 0 0 0 
0 0 0 0 0 0 0 0 0 
0 0 0 0 0 0 0 0 0 
0 0 0 0 0 0 0 0 0 
0 0 0 0 0 0 0 0 0 
0 0 0 0 0 0 0 0 0 
0 0 0 0 0 0 0 0 0 
0 0 0 0 0 0 0 0 0 
0 0 0 0 0 0 0 0 0 
0 0 0 0 0 0 0 0 0 
0 0 0 0 0 0 0 0 0 
0 0 0 0 0 0 0 0 0 
0 0 0 0 0 0 0 0 0 
0 0 0 0 0 0 0 0 0 
0 0 0 0 0 0 0 0 0 
0 0 0 0 0 0 0 0 0 
0 0 0 0 0 0 0 0 0 
0 0 0 0 0 0 0 0 0 
0 0 0 0 0 0 0 0 0 
0 0 0 0 0 0 0 0 0 
0 0 0 0 0 0 0 0 0 
0 0 0 0 0 0 0 0 0 
0 0 0 0 0 0 0 0 0 
0 0 0 0 0 0 0 0 0 
0 0 0 0 0 0 0 0 0 
0 0 0 0 0 0 0 0 0 
0 0 0 0 0 0 0 0 0 
0 0 0 0 0 0 0 0 0 
0 0 0 0 0 0 0 0 0 
0 0 0 0 0 0 0 0 0 
0 0 0 0 0 0 0 0 0 
0 0 0 0 0 0 0 0 0 
0 0 0 0 0 0 0 0 0 
0 0 0 0 0 0 0 0 0 
0 0 0 0 0 0 0 0 0 
0 0 0 0 0 0 0 0 0 
0 0 0 0 0 0 0 0 0 
0 0 0 0 0 0 0 0 0 
0 0 0 0 0 0 0 0 0 
0 0 0 0 0 0 0 0 0 
0 0 0 0 0 0 0 0 0 
0 0 0 0 0 0 0 0 0 
0 0 0 0 0 0 0 0 0 
0 0 0 0 0 0 0 0 0 
0 0 0 0 0 0 0 0 0 
0 0 0 0 0 0 0 0 0 
0 0 0 0 0 0 0 0 0 
0 0 0 0 0 0 0 0 0 
0 0 0 0 0 0 0 0 0 
0 0 0 0 0 0 0 0 0 
0 0 0 0 0 0 0 0 0 
0 0 0 0 0 0 0 0 0 
0 0 0 0 0 0 0 0 0 
0 0 0 0 0 0 0 0 0 
0 0 0 0 0 0 0 0 0 
0 0 0 0 0 0 0 0 0 
0 0 0 0 0 0 0 0 0 
0 0 0 0 0 0 0 0 0 
0 0 0 0 0 0 0 0 0 
0 0 0 0 0 0 0 0 0 
0 0 0 0 0 0 0 0 0 
0 0 0 0 0 0 0 0 0 
0 0 0 0 0 0 0 0 0 
0 0 0 0 0 0 0 0 0 
0 0 0 0 0 0 0 0 0 
0 0 0 0 0 0 0 0 0 
0 0 0 0 0 0 0 0 0 
0 0 0 0 0 0 0 0 0 
0 0 0 0 0 0 0 0 0 
0 0 0 0 0 0 0 0 0 
0 0 0 0 0 0 0 0 0 
0 0 0 0 0 0 0 0 0 
0 0 0 0 0 0 0 0 0 
0 0 0 0 0 0 0 0 0 
0 0 0 0 0 0 0 0 0 
0 0 0 0 0 0 0 0 0 
0 0 0 0 0 0 0 0 0 
0 0 0 0 0 0 0 0 0 
0 0 0 0 0 0 0 0 0 
0 0 0 0 0 0 0 0 0 
0 0 0 0 0 0 0 0 0 
0 0 0 0 0 0 0 0 0 
0 0 0 0 0 0 0 0 0 
0 0 0 0 0 0 0 0 0 
0 0 0 0 0 0 0 0 0 
0 0 0 0 0 0 0 0 0 
0 0 0 0 0 0 0 0 0 
0 0 0 0 0 0 0 0 0 
0 0 0 0 0 0 0 0 0 
0 0 0 0 0 0 0 0 0 
0 0 0 0 0 0 0 0 0 
0 0 0 0 0 0 0 0 0 

v 3 648 double
0 0 0.083071737005 0 0 0.069997243263 0 0 0.076496082436 
0 0 0.09486860933 0 0 0.064692282813 0 0 0.056557211282 
0 0 0.059797800765 0 0 0.058452288109 0 0 0.078118809025 
0 0 0.065578385839 0 0 -0.028884822145 0 0 0.049574852661 
0 0 0.03987299825 0 0 -0.18335709892 0 0 -0.19881611258 
0 0 0.050816917503 0 0 -0.20775397486 0 0 0.020574155535 
0 0 -0.0017121138842 0 0 -0.041892432753 0 0 0.050205516678 
0 0 -0.18449780207 0 0 0.052898624594 0 0 0.048452284314 
0 0 0.047870958046 0 0 0.038569930256 0 0 -0.02662002722 
0 0 0.041022244669 0 0 0.048149236347 0 0 0.034921288207 
0 0 0.058326057968 0 0 0.045882892257 0 0 0.036435187674 
0 0 -0.21163357505 0 0 0.036091138289 0 0 0.015718519723 
0 0 0.046635571598 0 0 -0.214771644 0 0 0.034845675416 
0 0 0.049027319843 0 0 0.062568954748 0 0 0.030037384483 
0 0 0.061909331282 0 0 0.083688353312 0 0 0.070582036347 
0 0 0.039003392513 0 0 0.039324246691 0 0 0.035149358241 
0 0 0.071936576038 0 0 -0.0085648196269 0 0 -0.027019748694 
0 0 0.072414850199 0 0 -0.039026218717 0 0 -0.21359379099 
0 0 -0.049317687611 0 0 0.070332851232 0 0 0.043571230502 
0 0 0.025055619003 0 0 -0.039588751138 0 0 0.025512177102 
0 0 0.017845710346 0 0 0.062267482375 0 0 -0.01049666255 
0 0 -0.00053330506032 0 0 0.0029393294047 0 0 0.03842329321 
0 0 0.033365281911 0 0 -0.029289773279 0 0 0.046296205407 
0 0 0.06282881859 0 0 0.060000329382 0 0 -0.2127354314 
0 0 0.040766759203 0 0 -0.18237145832 0 0 -0.0088654673972 
0 0 0.028501944655 0 0 -0.21257688129 0 0 -0.19381628114 
0 0 0.021048294285 0 0 -0.021139653927 0 0 0.045818549166 
0 0 0.010595741039 0 0 -0.20950198234 0 0 -0.19439373049 
0 0 -0.011509975169 0 0 0.0019142337099 0 0 0.042842239616 
0 0 -0.21002645292 0 0 0.05405955194 0 0 -0.0044878202116 
0 0 0.0060534040082 0 0 -0.028169741484 0 0 -0.0084813649483 
0 0 -0.027465297507 0 0 0.055264453592 0 0 0.024080445929 
0 0 -0.20652914341 0 0 0.055249254357 0 0 0.047289951151 
0 0 -0.20764246967 0 0 0.0402702379 0 0 0.028018301193 
0 0 0.018048431187 0 0 -0.18112015876 0 0 -0.19145949697 
0 0 0.028062521093 0 0 0.051782306793 0 0 0.012315536617 
0 0 -0.17745314994 0 0 -0.17582566064 0 0 0.020760381499 
0 0 -0.2027538379 0 0 -0.18625596714 0 0 0.0089296508557 
0 0 -0.0063427895465 0 0 -0.17329118286 0 0 0.016770183821 
0 0 -0.2000134855 0 0 0.007299038052 0 0 -0.18280002168 
0 0 -0.1731532845 0 0 0.0020036613997 0 0 -0.20493390065 
0 0 -0.2008957402 0 0 -0.011194090677 0 0 -0.17133751215 
0 0 -0.0032458258612 0 0 -0.014551205293 0 0 -0.17229311914 
0 0 -0.20793662176 0 0 0.0075536111776 0 0 -0.17253298683 
0 0 -0.17163904199 0 0 -0.1987187566 0 0 -0.19370309341 
0 0 -0.172796865 0 0 -0.16761537539 0 0 -0.19083020765 
0 0 -0.17393164411 0 0 -0.19839415757 0 0 -0.16678673018 
0 0 -0.20766924314 0 0 -0.16552796832 0 0 -0.17322572519 
0 0 -0.16908186408 0 0 -0.20494148684 0 0 -0.1877572975 
0 0 -0.19862589396 0 0 -0.15935740526 0 0 -0.19470443496 
0 0 -0.16295534487 0 0 -0.19100234056 0 0 -0.15828810589 
0 0 -0.15704428212 0 0 -0.15712464467 0 0 -0.18544700841 
0 0 -0.15865895726 0 0 -0.18557005835 0 0 -0.18007175843 
0 0 -0.14991722694 0 0 -0.14845872714 0 0 -0.17571877086 
0 0 -0.15152820104 0 0 -0.15506272613 0 0 -0.17189450193 
0 0 -0.1771530095 0 0 -0.14516426892 0 0 -0.16855002527 
0 0 -0.14620431626 0 0 -0.16994890082 0 0 -0.14917217749 
0 0 0.21320151278 0 0 -0.14570005477 0 0 0.17897742398 
0 0 -0.14197960842 0 0 -0.15925478303 0 0 -0.17702253511 
0 0 -0.13885789595 0 0 -0.14679822011 0 0 -0.17760020503 
0 0 -0.16941939647 0 0 -0.1909436193 0 0 -0.1784070344 
0 0 -0.14395897835 0 0 -0.17738712531 0 0 -0.15167557624 
0 0 -0.14696791378 0 0 -0.15107036244 0 0 -0.17558193911 
0 0 -0.17917647087 0 0 -0.16962832335 0 0 -0.13857997025 
0 0 -0.17674400988 0 0 -0.14673099558 0 0 -0.16282163487 
0 0 -0.082440027179 0 0 -0.15949597544 0 0 -0.16930583726 
0 0 -0.1635375661 0 0 -0.16540897984 0 0 -0.15037862579 
0 0 -0.098471949808 0 0 0.19384996973 0 0 0.22530439355 
0 0 -0.13793590776 0 0 -0.16190946601 0 0 0.19613238299 
0 0 -0.13053685288 0 0 -0.16910421003 0 0 -0.16952200302 
0 0 -0.052471955491 0 0 -0.13554819804 0 0 -0.086859832079 
0 0 -0.11496720647 0 0 0.19760056041 0 0 -0.1604757758 
0 0 -0.10579989953 0 0 -0.072535437888 0 0 -0.13465684851 
0 0 -0.13190192976 0 0 -0.14231513029 0 0 -0.13237235859 
0 0 -0.16342281145 0 0 -0.13476599259 0 0 -0.14933915407 
0 0 -0.16075074307 0 0 -0.15708032222 0 0 -0.15854460313 
0 0 -0.068751583468 0 0 -0.12518241745 0 0 -0.11836325602 
0 0 -0.0094160467128 0 0 -0.15704472007 0 0 -0.15137553766 
0 0 0.17249765905 0 0 -0.17525434997 0 0 -0.15177551405 
0 0 -0.1282935268 0 0 -0.030614278047 0 0 -0.040695366758 
0 0 -0.12240053055 0 0 -0.12020644677 0 0 -0.12091129083 
0 0 0.180567768 0 0 -0.15643514289 0 0 -0.072635048513 
0 0 -0.16064606989 0 0 -0.1599002357 0 0 -0.15899910622 
0 0 0.17307962169 0 0 -0.15070191482 0 0 -0.15475089795 
0 0 -0.12972225183 0 0 -0.1087707342 0 0 -0.17842276837 
0 0 -0.16094854739 0 0 -0.12965669601 0 0 0.14448196469 
0 0 -0.12952801615 0 0 -0.14915852996 0 0 0.12136118889 
0 0 -0.12435735962 0 0 -0.14374284492 0 0 -0.11307801315 
0 0 -0.14078902484 0 0 -0.14533735777 0 0 0.15576533454 
0 0 -0.14389324919 0 0 -0.047299268001 0 0 0.14872136663 
0 0 -0.15757414998 0 0 0.066459150457 0 0 -0.14045318077 
0 0 -0.10554654627 0 0 -0.11293904625 0 0 0.11894277323 
0 0 -0.028857675967 0 0 -0.059344299436 0 0 -0.032239850778 
0 0 -0.16433478661 0 0 -0.14036399177 0 0 0.0032124603496 
0 0 -0.038311099453 0 0 -0.099891348123 0 0 -0.14529776441 
0 0 -0.11052144194 0 0 0.14856564817 0 0 -0.14407563446 
0 0 -0.14354689336 0 0 -0.14815310733 0 0 -0.1185202082 
0 0 -0.10826222853 0 0 -0.14132296786 0 0 -0.15213487078 
0 0 0.16283441911 0 0 0.11179773284 0 0 -0.1002583969 
0 0 -0.13938469712 0 0 -0.14233514262 0 0 -0.14709080423 
0 0 -0.13758856329 0 0 -0.14785167782 0 0 -0.092896108065 
0 0 -0.10329193312 0 0 0.10846137585 0 0 -0.10343439189 
0 0 -0.10507901791 0 0 -0.10117992494 0 0 -0.13106065696 
0 0 0.035330475675 0 0 -0.093739709046 0 0 -0.097729298561 
0 0 -0.12655226256 0 0 -0.14964262386 0 0 -0.10038936967 
0 0 0.081194798146 0 0 -0.13496906924 0 0 -0.12758199868 
0 0 -0.099465886422 0 0 -0.098945678771 0 0 -0.1320958181 
0 0 -0.12893907411 0 0 0.16578292434 0 0 -0.030045929839 
0 0 -0.16097736311 0 0 -0.1430505359 0 0 -0.13236012013 
0 0 -0.13012583474 0 0 0.011512948852 0 0 -0.12667234087 
0 0 -0.093856449507 0 0 -0.10633588688 0 0 -0.085275083902 
0 0 -0.097556953682 0 0 -0.13688418312 0 0 -0.092833082801 
0 0 0.041013565512 0 0 -0.13919016925 0 0 -0.13030507242 
0 0 -0.092029933731 0 0 -0.1478880442 0 0 -0.11114625239 
0 0 -0.10190612047 0 0 -0.13352623381 0 0 0.1455401708 
0 0 -0.13362099092 0 0 0.11146916271 0 0 0.01967309606 
0 0 0.0083920566145 0 0 -0.11060138516 0 0 -0.13649245413 
0 0 -0.13506484143 0 0 -0.12858173209 0 0 0.02828755015 
0 0 -0.00031811732884 0 0 -0.11447666718 0 0 0.10105976474 
0 0 -0.051035867539 0 0 -0.12577333674 0 0 -0.085707210601 
0 0 -0.083332889428 0 0 -0.12380403963 0 0 -0.080640426614 
0 0 -0.13564142852 0 0 0.11119048616 0 0 -0.097233543364 
0 0 -0.093034271792 0 0 -0.091860030034 0 0 -0.11701958651 
0 0 -0.11479175063 0 0 0.011519168483 0 0 -0.14472746025 
0 0 0.15074327241 0 0 -0.12101148976 0 0 -0.11509293182 
0 0 -0.11834494869 0 0 0.16431195153 0 0 -0.017771327439 
0 0 0.037099931373 0 0 -0.12498903925 0 0 0.053864927595 
0 0 -0.078261535201 0 0 0.1063208262 0 0 -0.1246596747 
0 0 -0.11754410745 0 0 -0.039692482097 0 0 -0.082469805189 
0 0 0.13563354909 0 0 -0.037693932574 0 0 -0.090412743925 
0 0 0.020545665235 0 0 -0.068502801231 0 0 -0.12369651495 
0 0 -0.12542574664 0 0 0.031993994424 0 0 -0.082802367985 
0 0 -0.076440642541 0 0 -0.092154521568 0 0 -0.08200440739 
0 0 0.16165946253 0 0 -0.11453934712 0 0 0.1012671594 
0 0 -0.067705361674 0 0 -0.10566496139 0 0 -0.038045846362 
0 0 -0.10904230482 0 0 -0.10250609458 0 0 -0.074007698784 
0 0 0.020614989091 0 0 0.14445923907 0 0 -0.10429235652 
0 0 -0.079964364488 0 0 -0.099678781093 0 0 -0.12171151628 
0 0 -0.064624333562 0 0 -0.10659164539 0 0 -0.024140888182 
0 0 0.0969191842 0 0 -0.054392162673 0 0 -0.10981291854 
0 0 -0.065471360858 0 0 0.049931806193 0 0 -0.068528848693 
0 0 -0.10822621218 0 0 -0.032434824743 0 0 -0.10816349011 
0 0 -0.10474003223 0 0 -0.061223448932 0 0 0.13416876206 
0 0 0.12985259914 0 0 -0.1038910269 0 0 -0.02556325445 
0 0 -0.10241976886 0 0 -0.10863890913 0 0 -0.10986070025 
0 0 -0.06248688353 0 0 -0.10580208304 0 0 -0.11023338832 
0 0 0.066028627313 0 0 -0.072498727513 0 0 0.089857886533 
0 0 -0.091771366093 0 0 -0.11090714543 0 0 -0.10572303245 
0 0 0.17886717133 0 0 -0.10772871506 0 0 -0.079154683405 
0 0 -0.11024388158 0 0 0.064862926063 0 0 -0.06398862291 
0 0 -0.074320568862 0 0 -0.11037923818 0 0 -0.097598866658 
0 0 -0.093342096053 0 0 -0.090453277835 0 0 -0.037782317017 
0 0 -0.084859849707 0 0 -0.091267165951 0 0 -0.096727753115 
0 0 -0.10275402813 0 0 -0.024208844541 0 0 -0.085175150519 
0 0 0.085660755405 0 0 -0.089347961421 0 0 -0.10190739388 
0 0 -0.10216773487 0 0 -0.1001253368 0 0 0.078669751841 
0 0 -0.014914210931 0 0 0.023463731405 0 0 -0.11349589935 
0 0 -0.092639520801 0 0 -0.092252028416 0 0 -0.023245561947 
0 0 0.064264345346 0 0 -0.10008898542 0 0 0.10345276322 
0 0 -0.10401070858 0 0 -0.087226620114 0 0 -0.087037498698 
0 0 -0.021255970484 0 0 0.060293663172 0 0 0.05376254389 
0 0 0.066360885315 0 0 -0.057266889722 0 0 -0.10005879181 
0 0 0.079445737281 0 0 -0.067311749154 0 0 -0.092361965143 
0 0 -0.099654505986 0 0 -0.0866324031 0 0 -0.095841310253 
0 0 -0.095291912133 0 0 -0.08777621208 0 0 0.039990251535 
0 0 -0.088078352669 0 0 -0.042181441675 0 0 -0.099858925606 
0 0 -0.12864241923 0 0 0.083601423115 0 0 -0.10197815616 
0 0 -0.083858623194 0 0 -0.054641503673 0 0 -0.099081198331 
0 0 -0.088678857234 0 0 0.044302644905 0 0 0.022228342315 
0 0 0.039701765672 0 0 -0.093705758932 0 0 -0.10577873409 
0 0 -0.0879705178 0 0 -0.096319981 0 0 -0.090673818633 
0 0 -0.092852227945 0 0 0.10953402464 0 0 0.064922856701 
0 0 -0.098927368512 0 0 -0.074742289041 0 0 -0.06888634724 
0 0 -0.057100434047 0 0 0.035641600746 0 0 -0.075074680629 
0 0 -0.013872076449 0 0 -0.010893422357 0 0 -0.0793650221 
0 0 0.073101872585 0 0 -0.055077645983 0 0 0.019158358196 
0 0 -0.074261501178 0 0 -0.076085091432 0 0 0.056836765012 
0 0 0.10430633856 0 0 0.033504102815 0 0 -0.080667010342 
0 0 -0.062593043719 0 0 -0.076270546932 0 0 -0.087229098 
0 0 -0.059179114837 0 0 -0.010500608743 0 0 -0.071055718441 
0 0 -0.074246489687 0 0 -0.07269137772 0 0 -0.077313277242 
0 0 0.03764294258 0 0 -0.071678553039 0 0 0.027516868484 
0 0 -0.077645133389 0 0 -0.078894458334 0 0 -0.073959538101 
0 0 -0.029557234406 0 0 0.020610644145 0 0 -0.083482513613 
0 0 -0.071548854188 0 0 -0.03660073413 0 0 0.081141722134 
0 0 -0.077749707043 0 0 -0.062428748666 0 0 -0.061960047336 
0 0 -0.051330343532 0 0 -0.065202985182 0 0 -0.056157650471 
0 0 -0.0052016531347 0 0 -0.075807242507 0 0 -0.054282178178 
0 0 -0.060301130014 0 0 -0.049318621087 0 0 -0.071123513458 
0 0 0.028815587053 0 0 -0.012243529712 0 0 0.070834289637 
0 0 -0.050079089052 0 0 -0.05706648518 0 0 0.021789143017 
0 0 -0.065092946381 0 0 -0.05993033198 0 0 -0.047937224355 
0 0 -0.044545120489 0 0 -0.058576406728 0 0 -0.06742074379 
0 0 -0.052566299266 0 0 -0.052280810898 0 0 -0.08158436001 
0 0 -0.077025771643 0 0 -0.063730511049 0 0 -0.067799840433 
0 0 -0.066327414567 0 0 -0.069373830814 0 0 -0.060448907066 
0 0 -0.054219066412 0 0 -0.051527057306 0 0 -0.049414604018 
0 0 -0.10657573557 0 0 -0.054145576423 0 0 -0.059323029905 
0 0 -0.088211384258 0 0 -0.055545965969 0 0 -0.005591729024 
0 0 -0.063975939837 0 0 -0.066396792795 0 0 -0.069972024009 
0 0 -0.050923719592 0 0 0.065199684632 0 0 -0.057321435529 
0 0 -0.045812640349 0 0 -0.0350509973 0 0 -0.032510126298 
0 0 -0.036814009117 0 0 -0.045858665392 0 0 -0.047818802726 
0 0 -0.039100928087 0 0 -0.043698814647 0 0 -0.031281910233 
0 0 -0.0093895277622 0 0 -0.046465682049 0 0 -0.043147739353 
0 0 -0.041300145018 0 0 -0.039163175491 0 0 -0.03626734607 
0 0 -0.043251564527 0 0 0.013280942567 0 0 -0.043156902204 
0 0 -0.040599769855 0 0 -0.042129330054 0 0 -0.044381895715 
0 0 -0.032509446967 0 0 -0.030585527895 0 0 -0.030311885722 
0 0 -0.10730553495 0 0 -0.047754338859 0 0 -0.049333814122 
0 0 -0.034122286988 0 0 -0.036178582332 0 0 -0.03506489661 
0 0 -0.03446391918 0 0 -0.020746034921 0 0 -0.03117452226 
0 0 -0.021968654921 0 0 -0.046048826118 0 0 -0.040201596857 
0 0 -0.016575454502 0 0 -0.0083110951807 0 0 -0.038408407827 
0 0 -0.0372158538 0 0 -0.01650732405 0 0 -0.0046203389596 
0 0 -0.0080091405888 0 0 0.061804139916 0 0 0.012754954216 

f 3 648 double
0 0 -1.7425367252e-10 0 0 -1.7425367252e-10 0 0 -1.7425367252e-10 
0 0 -8.9019973083e-09 0 0 -1.7425367252e-10 0 0 -1.7425367252e-10 
0 0 -1.7425367252e-10 0 0 -1.7425367252e-10 0 0 -1.7425367252e-10 
0 0 -1.7425367252e-10 0 0 -1.7425367252e-10 0 0 -1.7425367252e-10 
0 0 -1.7425367252e-10 0 0 -1.7425367252e-10 0 0 -1.7425367252e-10 
0 0 -1.7425367252e-10 0 0 -1.7425367252e-10 0 0 -1.7425367252e-10 
0 0 -1.7425367252e-10 0 0 -1.7425367252e-10 0 0 -1.7425367252e-10 
0 0 -1.7425367252e-10 0 0 -1.7425367252e-10 0 0 -1.7425367252e-10 
0 0 -1.7425367252e-10 0 0 -1.7425367252e-10 0 0 -1.7425367252e-10 
0 0 -1.7425367252e-10 0 0 -1.7425367252e-10 0 0 -1.7425367252e-10 
0 0 -1.7425367252e-10 0 0 -1.7425367252e-10 0 0 -1.7425367252e-10 
0 0 -1.7425367252e-10 0 0 -1.7425367252e-10 0 0 -1.7425367252e-10 
0 0 -1.7425367252e-10 0 0 -1.7425367252e-10 0 0 -1.7425367252e-10 
0 0 -1.7425367252e-10 0 0 -1.7425367252e-10 0 0 -1.7425367252e-10 
0 0 -1.7425367252e-10 0 0 -1.7425367252e-10 0 0 -1.7425367252e-10 
0 0 -1.7425367252e-10 0 0 -1.7425367252e-10 0 0 -1.7425367252e-10 
0 0 -1.7425367252e-10 0 0 -1.7425367252e-10 0 0 -1.7425367252e-10 
0 0 -1.7425367252e-10 0 0 -1.7425367252e-10 0 0 -1.7425367252e-10 
0 0 -1.7425367252e-10 0 0 -1.7425367252e-10 0 0 -1.7425367252e-10 
0 0 -1.7425367252e-10 0 0 -1.7425367252e-10 0 0 -1.7425367252e-10 
0 0 -1.7425367252e-10 0 0 -1.7425367252e-10 0 0 -1.7425367252e-10 
0 0 -1.7425367252e-10 0 0 -1.7425367252e-10 0 0 -1.7425367252e-10 
0 0 -1.7425367252e-10 0 0 -1.7425367252e-10 0 0 -1.7425367252e-10 
0 0 -1.7425367252e-10 0 0 -1.7425367252e-10 0 0 -1.7425367252e-10 
0 0 -1.7425367252e-10 0 0 -1.7425367252e-10 0 0 -1.7425367252e-10 
0 0 -1.7425367252e-10 0 0 -1.7425367252e-10 0 0 -1.7425367252e-10 
0 0 -1.7425367252e-10 0 0 -1.7425367252e-10 0 0 -1.7425367252e-10 
0 0 -1.7425367252e-10 0 0 -1.7425367252e-10 0 0 -1.7425367252e-10 
0 0 -1.7425367252e-10 0 0 -1.7425367252e-10 0 0 -1.7425367252e-10 
0 0 -1.7425367252e-10 0 0 -1.7425367252e-10 0 0 -1.7425367252e-10 
0 0 -1.7425367252e-10 0 0 -1.7425367252e-10 0 0 -1.7425367252e-10 
0 0 -1.7425367252e-10 0 0 -1.7425367252e-10 0 0 -1.7425367252e-10 
0 0 -1.7425367252e-10 0 0 -1.7425367252e-10 0 0 -1.7425367252e-10 
0 0 -1.7425367252e-10 0 0 -1.7425367252e-10 0 0 -1.7425367252e-10 
0 0 -1.7425367252e-10 0 0 -1.7425367252e-10 0 0 -1.7425367252e-10 
0 0 -1.7425367252e-10 0 0 -1.7425367252e-10 0 0 -1.7425367252e-10 
0 0 -1.7425367252e-10 0 0 -1.7425367252e-10 0 0 -1.7425367252e-10 
0 0 -1.7425367252e-10 0 0 -1.7425367252e-10 0 0 -1.7425367252e-10 
0 0 -1.7425367252e-10 0 0 -1.7425367252e-10 0 0 -1.7425367252e-10 
0 0 -1.7425367252e-10 0 0 -1.7425367252e-10 0 0 -1.7425367252e-10 
0 0 -1.7425367252e-10 0 0 -1.7425367252e-10 0 0 -1.7425367252e-10 
0 0 -1.7425367252e-10 0 0 -1.7425367252e-10 0 0 -1.7425367252e-10 
0 0 -1.7425367252e-10 0 0 -1.7425367252e-10 0 0 -1.7425367252e-10 
0 0 -1.7425367252e-10 0 0 -1.7425367252e-10 0 0 -1.7425367252e-10 
0 0 -1.7425367252e-10 0 0 -1.7425367252e-10 0 0 -1.7425367252e-10 
0 0 -1.7425367252e-10 0 0 -1.7425367252e-10 0 0 -1.7425367252e-10 
0 0 -1.7425367252e-10 0 0 -1.7425367252e-10 0 0 -1.7425367252e-10 
0 0 -8.9019973083e-09 0 0 -1.7425367252e-10 0 0 -1.7425367252e-10 
0 0 -1.7425367252e-10 0 0 -8.9019973083e-09 0 0 -1.7425367252e-10 
0 0 -1.7425367252e-10 0 0 -1.7425367252e-10 0 0 -1.7425367252e-10 
0 0 -1.7425367252e-10 0 0 -1.7425367252e-10 0 0 -1.7425367252e-10 
0 0 -1.7425367252e-10 0 0 -1.7425367252e-10 0 0 -1.7425367252e-10 
0 0 -1.7425367252e-10 0 0 -1.7425367252e-10 0 0 -1.7425367252e-10 
0 0 -1.7425367252e-10 0 0 -1.7425367252e-10 0 0 -1.7425367252e-10 
0 0 -1.7425367252e-10 0 0 -1.7425367252e-10 0 0 -1.7425367252e-10 
0 0 -1.7425367252e-10 0 0 -1.7425367252e-10 0 0 -1.7425367252e-10 
0 0 -1.7425367252e-10 0 0 -1.7425367252e-10 0 0 -1.7425367252e-10 
0 0 -1.7425367252e-10 0 0 -1.7425367252e-10 0 0 -1.7425367252e-10 
0 0 -1.7425367252e-10 0 0 -1.7425367252e-10 0 0 -1.7425367252e-10 
0 0 -1.7425367252e-10 0 0 -1.7425367252e-10 0 0 -1.7425367252e-10 
0 0 -1.7425367252e-10 0 0 -8.9019973083e-09 0 0 -1.7425367252e-10 
0 0 -1.7425367252e-10 0 0 -1.7425367252e-10 0 0 -1.7425367252e-10 
0 0 -1.7425367252e-10 0 0 -1.7425367252e-10 0 0 -1.7425367252e-10 
0 0 -1.7425367252e-10 0 0 -1.7425367252e-10 0 0 -1.7425367252e-10 
0 0 -1.7425367252e-10 0 0 -1.7425367252e-10 0 0 -1.7425367252e-10 
0 0 -1.7425367252e-10 0 0 -1.7425367252e-10 0 0 -1.7425367252e-10 
0 0 -1.7425367252e-10 0 0 -1.7425367252e-10 0 0 -1.7425367252e-10 
0 0 -1.7425367252e-10 0 0 -1.7425367252e-10 0 0 -1.7425367252e-10 
0 0 -1.7425367252e-10 0 0 -1.7425367252e-10 0 0 -1.7425367252e-10 
0 0 -1.7425367252e-10 0 0 -1.7425367252e-10 0 0 -1.7425367252e-10 
0 0 -1.7425367252e-10 0 0 -1.7425367252e-10 0 0 -1.7425367252e-10 
0 0 -1.7425367252e-10 0 0 -1.7425367252e-10 0 0 -1.7425367252e-10 
0 0 -1.7425367252e-10 0 0 -1.7425367252e-10 0 0 -1.7425367252e-10 
0 0 -1.7425367252e-10 0 0 -1.7425367252e-10 0 0 -1.7425367252e-10 
0 0 -1.7425367252e-10 0 0 -1.7425367252e-10 0 0 -1.7425367252e-10 
0 0 -1.7425367252e-10 0 0 -1.7425367252e-10 0 0 -1.7425367252e-10 
0 0 -1.7425367252e-10 0 0 -1.7425367252e-10 0 0 -1.7425367252e-10 
0 0 -1.7425367252e-10 0 0 -1.7425367252e-10 0 0 -1.7425367252e-10 
0 0 -1.7425367252e-10 0 0 -8.9019973083e-09 0 0 -1.7425367252e-10 
0 0 -1.7425367252e-10 0 0 -1.7425367252e-10 0 0 -1.7425367252e-10 
0 0 -1.7425367252e-10 0 0 -1.7425367252e-10 0 0 -1.7425367252e-10 
0 0 -1.7425367252e-10 0 0 -1.7425367252e-10 0 0 -1.7425367252e-10 
0 0 -1.7425367252e-10 0 0 -1.7425367252e-10 0 0 -1.7425367252e-10 
0 0 -1.7425367252e-10 0 0 -1.7425367252e-10 0 0 -1.7425367252e-10 
0 0 -1.7425367252e-10 0 0 -1.7425367252e-10 0 0 -8.9019973083e-09 
0 0 -1.7425367252e-10 0 0 -1.7425367252e-10 0 0 -1.7425367252e-10 
0 0 -1.7425367252e-10 0 0 -1.7425367252e-10 0 0 -1.7425367252e-10 
0 0 -1.7425367252e-10 0 0 -1.7425367252e-10 0 0 -1.7425367252e-10 
0 0 -1.7425367252e-10 0 0 -1.7425367252e-10 0 0 -1.7425367252e-10 
0 0 -1.7425367252e-10 0 0 -1.7425367252e-10 0 0 -1.7425367252e-10 
0 0 -1.7425367252e-10 0 0 -1.7425367252e-10 0 0 -1.7425367252e-10 
0 0 -1.7425367252e-10 0 0 -1.7425367252e-10 0 0 -1.7425367252e-10 
0 0 -1.7425367252e-10 0 0 -1.7425367252e-10 0 0 -1.7425367252e-10 
0 0 -8.9019973083e-09 0 0 -1.7425367252e-10 0 0 -1.7425367252e-10 
0 0 -1.7425367252e-10 0 0 -1.7425367252e-10 0 0 -1.7425367252e-10 
0 0 -1.7425367252e-10 0 0 -1.7425367252e-10 0 0 -1.7425367252e-10 
0 0 -1.7425367252e-10 0 0 -1.7425367252e-10 0 0 -1.7425367252e-10 
0 0 -1.7425367252e-10 0 0 -1.7425367252e-10 0 0 -1.7425367252e-10 
0 0 -1.7425367252e-10 0 0 -1.7425367252e-10 0 0 -1.7425367252e-10 
0 0 -1.7425367252e-10 0 0 -1.7425367252e-10 0 0 -1.7425367252e-10 
0 0 -1.7425367252e-10 0 0 -1.7425367252e-10 0 0 -1.7425367252e-10 
0 0 -1.7425367252e-10 0 0 -1.7425367252e-10 0 0 -1.7425367252e-10 
0 0 -1.7425367252e-10 0 0 -1.7425367252e-10 0 0 -1.7425367252e-10 
0 0 -1.7425367252e-10 0 0 -1.7425367252e-10 0 0 -1.7425367252e-10 
0 0 -1.7425367252e-10 0 0 -8.9019973083e-09 0 0 -1.7425367252e-10 
0 0 -1.7425367252e-10 0 0 -1.7425367252e-10 0 0 -1.7425367252e-10 
0 0 -1.7425367252e-10 0 0 -1.7425367252e-10 0 0 -1.7425367252e-10 
0 0 -1.7425367252e-10 0 0 -1.7425367252e-10 0 0 -1.7425367252e-10 
0 0 -8.9019973083e-09 0 0 -1.7425367252e-10 0 0 -1.7425367252e-10 
0 0 -1.7425367252e-10 0 0 -1.7425367252e-10 0 0 -1.7425367252e-10 
0 0 -1.7425367252e-10 0 0 -1.7425367252e-10 0 0 -1.7425367252e-10 
0 0 -1.7425367252e-10 0 0 -1.7425367252e-10 0 0 -1.7425367252e-10 
0 0 -1.7425367252e-10 0 0 -1.7425367252e-10 0 0 -1.7425367252e-10 
0 0 -1.7425367252e-10 0 0 -1.7425367252e-10 0 0 -1.7425367252e-10 
0 0 -1.7425367252e-10 0 0 -1.7425367252e-10 0 0 -1.7425367252e-10 
0 0 -1.7425367252e-10 0 0 -1.7425367252e-10 0 0 -1.7425367252e-10 
0 0 -1.7425367252e-10 0 0 -1.7425367252e-10 0 0 -1.7425367252e-10 
0 0 -1.7425367252e-10 0 0 -1.7425367252e-10 0 0 -1.7425367252e-10 
0 0 -1.7425367252e-10 0 0 -1.7425367252e-10 0 0 -1.7425367252e-10 
0 0 -1.7425367252e-10 0 0 -1.7425367252e-10 0 0 -1.7425367252e-10 
0 0 -1.7425367252e-10 0 0 -1.7425367252e-10 0 0 -1.7425367252e-10 
0 0 -1.7425367252e-10 0 0 -1.7425367252e-10 0 0 -1.7425367252e-10 
0 0 -1.7425367252e-10 0 0 -1.7425367252e-10 0 0 -1.7425367252e-10 
0 0 -1.7425367252e-10 0 0 -1.7425367252e-10 0 0 -8.9019973083e-09 
0 0 -1.7425367252e-10 0 0 -1.7425367252e-10 0 0 -1.7425367252e-10 
0 0 -1.7425367252e-10 0 0 -1.7425367252e-10 0 0 -1.7425367252e-10 
0 0 -1.7425367252e-10 0 0 -1.7425367252e-10 0 0 -1.7425367252e-10 
0 0 -1.7425367252e-10 0 0 -1.7425367252e-10 0 0 -1.7425367252e-10 
0 0 -1.7425367252e-10 0 0 -1.7425367252e-10 0 0 -1.7425367252e-10 
0 0 -1.7425367252e-10 0 0 -1.7425367252e-10 0 0 -1.7425367252e-10 
0 0 -1.7425367252e-10 0 0 -1.7425367252e-10 0 0 -1.7425367252e-10 
0 0 -1.7425367252e-10 0 0 -1.7425367252e-10 0 0 -1.7425367252e-10 
0 0 -1.7425367252e-10 0 0 -1.7425367252e-10 0 0 -1.7425367252e-10 
0 0 -1.7425367252e-10 0 0 -1.7425367252e-10 0 0 -1.7425367252e-10 
0 0 -1.7425367252e-10 0 0 -1.7425367252e-10 0 0 -1.7425367252e-10 
0 0 -1.7425367252e-10 0 0 -1.7425367252e-10 0 0 -1.7425367252e-10 
0 0 -1.7425367252e-10 0 0 -8.9019973083e-09 0 0 -1.7425367252e-10 
0 0 -1.7425367252e-10 0 0 -1.7425367252e-10 0 0 -1.7425367252e-10 
0 0 -1.7425367252e-10 0 0 -1.7425367252e-10 0 0 -1.7425367252e-10 
0 0 -1.7425367252e-10 0 0 -1.7425367252e-10 0 0 -1.7425367252e-10 
0 0 -1.7425367252e-10 0 0 -1.7425367252e-10 0 0 -1.7425367252e-10 
0 0 -1.7425367252e-10 0 0 -1.7425367252e-10 0 0 -1.7425367252e-10 
0 0 -1.7425367252e-10 0 0 -1.7425367252e-10 0 0 -1.7425367252e-10 
0 0 -1.7425367252e-10 0 0 -1.7425367252e-10 0 0 -1.7425367252e-10 
0 0 -1.7425367252e-10 0 0 -1.7425367252e-10 0 0 -1.7425367252e-10 
0 0 -1.7425367252e-10 0 0 -1.7425367252e-10 0 0 -1.7425367252e-10 
0 0 -1.7425367252e-10 0 0 -1.7425367252e-10 0 0 -1.7425367252e-10 
0 0 -1.7425367252e-10 0 0 -1.7425367252e-10 0 0 -1.7425367252e-10 
0 0 -1.7425367252e-10 0 0 -1.7425367252e-10 0 0 -1.7425367252e-10 
0 0 -1.7425367252e-10 0 0 -1.7425367252e-10 0 0 -1.7425367252e-10 
0 0 -1.7425367252e-10 0 0 -1.7425367252e-10 0 0 -1.7425367252e-10 
0 0 -1.7425367252e-10 0 0 -1.7425367252e-10 0 0 -1.7425367252e-10 
0 0 -1.7425367252e-10 0 0 -1.7425367252e-10 0 0 -1.7425367252e-10 
0 0 -1.7425367252e-10 0 0 -1.7425367252e-10 0 0 -1.7425367252e-10 
0 0 -1.7425367252e-10 0 0 -1.7425367252e-10 0 0 -1.7425367252e-10 
0 0 -1.7425367252e-10 0 0 -1.7425367252e-10 0 0 -1.7425367252e-10 
0 0 -1.7425367252e-10 0 0 -1.7425367252e-10 0 0 -1.7425367252e-10 
0 0 -1.7425367252e-10 0 0 -1.7425367252e-10 0 0 -1.7425367252e-10 
0 0 -1.7425367252e-10 0 0 -1.7425367252e-10 0 0 -1.7425367252e-10 
0 0 -1.7425367252e-10 0 0 -1.7425367252e-10 0 0 -1.7425367252e-10 
0 0 -1.7425367252e-10 0 0 -1.7425367252e-10 0 0 -1.7425367252e-10 
0 0 -1.7425367252e-10 0 0 -1.7425367252e-10 0 0 -1.7425367252e-10 
0 0 -1.7425367252e-10 0 0 -1.7425367252e-10 0 0 -1.7425367252e-10 
0 0 -1.7425367252e-10 0 0 -1.7425367252e-10 0 0 -1.7425367252e-10 
0 0 -1.7425367252e-10 0 0 -1.7425367252e-10 0 0 -1.7425367252e-10 
0 0 -1.7425367252e-10 0 0 -1.7425367252e-10 0 0 -1.7425367252e-10 
0 0 -8.9019973083e-09 0 0 -1.7425367252e-10 0 0 -1.7425367252e-10 
0 0 -1.7425367252e-10 0 0 -1.7425367252e-10 0 0 -1.7425367252e-10 
0 0 -1.7425367252e-10 0 0 -1.7425367252e-10 0 0 -1.7425367252e-10 
0 0 -1.7425367252e-10 0 0 -1.7425367252e-10 0 0 -1.7425367252e-10 
0 0 -1.7425367252e-10 0 0 -1.7425367252e-10 0 0 -1.7425367252e-10 
0 0 -1.7425367252e-10 0 0 -1.7425367252e-10 0 0 -1.7425367252e-10 
0 0 -1.7425367252e-10 0 0 -1.7425367252e-10 0 0 -1.7425367252e-10 
0 0 -1.7425367252e-10 0 0 -1.7425367252e-10 0 0 -1.7425367252e-10 
0 0 -1.7425367252e-10 0 0 -1.7425367252e-10 0 0 -1.7425367252e-10 
0 0 -1.7425367252e-10 0 0 -1.7425367252e-10 0 0 -1.7425367252e-10 
0 0 -1.7425367252e-10 0 0 -1.7425367252e-10 0 0 -1.7425367252e-10 
0 0 -1.7425367252e-10 0 0 -1.7425367252e-10 0 0 -1.7425367252e-10 
0 0 -1.7425367252e-10 0 0 -1.7425367252e-10 0 0 -1.7425367252e-10 
0 0 -1.7425367252e-10 0 0 -1.7425367252e-10 0 0 -1.7425367252e-10 
0 0 -1.7425367252e-10 0 0 -1.7425367252e-10 0 0 -1.7425367252e-10 
0 0 -1.7425367252e-10 0 0 -1.7425367252e-10 0 0 -1.7425367252e-10 
0 0 -1.7425367252e-10 0 0 -1.7425367252e-10 0 0 -1.7425367252e-10 
0 0 -1.7425367252e-10 0 0 -1.7425367252e-10 0 0 -1.7425367252e-10 
0 0 -1.7425367252e-10 0 0 -1.7425367252e-10 0 0 -1.7425367252e-10 
0 0 -1.7425367252e-10 0 0 -1.7425367252e-10 0 0 -1.7425367252e-10 
0 0 -1.7425367252e-10 0 0 -1.7425367252e-10 0 0 -1.7425367252e-10 
0 0 -1.7425367252e-10 0 0 -1.7425367252e-10 0 0 -1.7425367252e-10 
0 0 -1.7425367252e-10 0 0 -1.7425367252e-10 0 0 -1.7425367252e-10 
0 0 -1.7425367252e-10 0 0 -1.7425367252e-10 0 0 -1.7425367252e-10 
0 0 -1.7425367252e-10 0 0 -1.7425367252e-10 0 0 -1.7425367252e-10 
0 0 -1.7425367252e-10 0 0 -1.7425367252e-10 0 0 -1.7425367252e-10 
0 0 -1.7425367252e-10 0 0 -1.7425367252e-10 0 0 -1.7425367252e-10 
0 0 -1.7425367252e-10 0 0 -1.7425367252e-10 0 0 -1.7425367252e-10 
0 0 -1.7425367252e-10 0 0 -1.7425367252e-10 0 0 -1.7425367252e-10 
0 0 -1.7425367252e-10 0 0 -1.7425367252e-10 0 0 -1.7425367252e-10 
0 0 -1.7425367252e-10 0 0 -1.7425367252e-10 0 0 -1.7425367252e-10 
0 0 -8.9019973083e-09 0 0 -1.7425367252e-10 0 0 -1.7425367252e-10 
0 0 -1.7425367252e-10 0 0 -1.7425367252e-10 0 0 -1.7425367252e-10 
0 0 -1.7425367252e-10 0 0 -1.7425367252e-10 0 0 -1.7425367252e-10 
0 0 -1.7425367252e-10 0 0 -1.7425367252e-10 0 0 -1.7425367252e-10 
0 0 -1.7425367252e-10 0 0 -1.7425367252e-10 0 0 -1.7425367252e-10 
0 0 -1.7425367252e-10 0 0 -1.7425367252e-10 0 0 -1.7425367252e-10 
0 0 -1.7425367252e-10 0 0 -1.7425367252e-10 0 0 -1.7425367252e-10 
0 0 -1.7425367252e-10 0 0 -1.7425367252e-10 0 0 -1.7425367252e-10 
0 0 -1.7425367252e-10 0 0 -1.7425367252e-10 0 0 -1.7425367252e-10 
0 0 -1.7425367252e-10 0 0 -1.7425367252e-10 0 0 -1.7425367252e-10 
0 0 -1.7425367252e-10 0 0 -1.7425367252e-10 0 0 -1.7425367252e-10 
0 0 -1.7425367252e-10 0 0 -1.7425367252e-10 0 0 -1.7425367252e-10 
0 0 -6.8918688838e-08 0 0 -1.7425367252e-10 0 0 -1.7425367252e-10 
0 0 -1.7425367252e-10 0 0 -1.7425367252e-10 0 0 -1.7425367252e-10 
0 0 -1.7425367252e-10 0 0 -1.7425367252e-10 0 0 -1.7425367252e-10 
0 0 -1.7425367252e-10 0 0 -1.7425367252e-10 0 0 -1.7425367252e-10 
0 0 -1.7425367252e-10 0 0 -8.9019973083e-09 0 0 -8.9019973083e-09 
0 0 -8.9019973083e-09 0 0 -1.7425367252e-10 0 0 -1.7425367252e-10 
0 0 -1.7425367252e-10 0 0 -8.9019973083e-09 0 0 -5.3297119368e-07 

radius 1 648 double
2e-05 2e-05 2e-05 7.5e-05 2e-05 2e-05 2e-05 2e-05 2e-05 
2e-05 2e-05 2e-05 2e-05 2e-05 2e-05 2e-05 2e-05 2e-05 
2e-05 2e-05 2e-05 2e-05 2e-05 2e-05 2e-05 2e-05 2e-05 
2e-05 2e-05 2e-05 2e-05 2e-05 2e-05 2e-05 2e-05 2e-05 
2e-05 2e-05 2e-05 2e-05 2e-05 2e-05 2e-05 2e-05 2e-05 
2e-05 2e-05 2e-05 2e-05 2e-05 2e-05 2e-05 2e-05 2e-05 
2e-05 2e-05 2e-05 2e-05 2e-05 2e-05 2e-05 2e-05 2e-05 
2e-05 2e-05 2e-05 2e-05 2e-05 2e-05 2e-05 2e-05 2e-05 
2e-05 2e-05 2e-05 2e-05 2e-05 2e-05 2e-05 2e-05 2e-05 
2e-05 2e-05 2e-05 2e-05 2e-05 2e-05 2e-05 2e-05 2e-05 
2e-05 2e-05 2e-05 2e-05 2e-05 2e-05 2e-05 2e-05 2e-05 
2e-05 2e-05 2e-05 2e-05 2e-05 2e-05 2e-05 2e-05 2e-05 
2e-05 2e-05 2e-05 2e-05 2e-05 2e-05 2e-05 2e-05 2e-05 
2e-05 2e-05 2e-05 2e-05 2e-05 2e-05 2e-05 2e-05 2e-05 
2e-05 2e-05 2e-05 2e-05 2e-05 2e-05 2e-05 2e-05 2e-05 
2e-05 2e-05 2e-05 2e-05 2e-05 2e-05 7.5e-05 2e-05 2e-05 
2e-05 7.5e-05 2e-05 2e-05 2e-05 2e-05 2e-05 2e-05 2e-05 
2e-05 2e-05 2e-05 2e-05 2e-05 2e-05 2e-05 2e-05 2e-05 
2e-05 2e-05 2e-05 2e-05 2e-05 2e-05 2e-05 2e-05 2e-05 
2e-05 2e-05 2e-05 2e-05 2e-05 2e-05 2e-05 2e-05 2e-05 
2e-05 7.5e-05 2e-05 2e-05 2e-05 2e-05 2e-05 2e-05 2e-05 
2e-05 2e-05 2e-05 2e-05 2e-05 2e-05 2e-05 2e-05 2e-05 
2e-05 2e-05 2e-05 2e-05 2e-05 2e-05 2e-05 2e-05 2e-05 
2e-05 2e-05 2e-05 2e-05 2e-05 2e-05 2e-05 2e-05 2e-05 
2e-05 2e-05 2e-05 2e-05 2e-05 2e-05 2e-05 2e-05 2e-05 
2e-05 2e-05 2e-05 2e-05 2e-05 2e-05 2e-05 2e-05 2e-05 
2e-05 7.5e-05 2e-05 2e-05 2e-05 2e-05 2e-05 2e-05 2e-05 
2e-05 2e-05 2e-05 2e-05 2e-05 2e-05 2e-05 2e-05 2e-05 
2e-05 2e-05 7.5e-05 2e-05 2e-05 2e-05 2e-05 2e-05 2e-05 
2e-05 2e-05 2e-05 2e-05 2e-05 2e-05 2e-05 2e-05 2e-05 
2e-05 2e-05 2e-05 2e-05 2e-05 2e-05 2e-05 2e-05 2e-05 
7.5e-05 2e-05 2e-05 2e-05 2e-05 2e-05 2e-05 2e-05 2e-05 
2e-05 2e-05 2e-05 2e-05 2e-05 2e-05 2e-05 2e-05 2e-05 
2e-05 2e-05 2e-05 2e-05 2e-05 2e-05 2e-05 2e-05 2e-05 
2e-05 2e-05 2e-05 2e-05 2e-05 2e-05 2e-05 7.5e-05 2e-05 
2e-05 2e-05 2e-05 2e-05 2e-05 2e-05 2e-05 2e-05 2e-05 
7.5e-05 2e-05 2e-05 2e-05 2e-05 2e-05 2e-05 2e-05 2e-05 
2e-05 2e-05 2e-05 2e-05 2e-05 2e-05 2e-05 2e-05 2e-05 
2e-05 2e-05 2e-05 2e-05 2e-05 2e-05 2e-05 2e-05 2e-05 
2e-05 2e-05 2e-05 2e-05 2e-05 2e-05 2e-05 2e-05 2e-05 
2e-05 2e-05 2e-05 2e-05 2e-05 2e-05 2e-05 2e-05 2e-05 
2e-05 2e-05 7.5e-05 2e-05 2e-05 2e-05 2e-05 2e-05 2e-05 
2e-05 2e-05 2e-05 2e-05 2e-05 2e-05 2e-05 2e-05 2e-05 
2e-05 2e-05 2e-05 2e-05 2e-05 2e-05 2e-05 2e-05 2e-05 
2e-05 2e-05 2e-05 2e-05 2e-05 2e-05 2e-05 2e-05 2e-05 
2e-05 2e-05 2e-05 2e-05 7.5e-05 2e-05 2e-05 2e-05 2e-05 
2e-05 2e-05 2e-05 2e-05 2e-05 2e-05 2e-05 2e-05 2e-05 
2e-05 2e-05 2e-05 2e-05 2e-05 2e-05 2e-05 2e-05 2e-05 
2e-05 2e-05 2e-05 2e-05 2e-05 2e-05 2e-05 2e-05 2e-05 
2e-05 2e-05 2e-05 2e-05 2e-05 2e-05 2e-05 2e-05 2e-05 
2e-05 2e-05 2e-05 2e-05 2e-05 2e-05 2e-05 2e-05 2e-05 
2e-05 2e-05 2e-05 2e-05 2e-05 2e-05 2e-05 2e-05 2e-05 
2e-05 2e-05 2e-05 2e-05 2e-05 2e-05 2e-05 2e-05 2e-05 
2e-05 2e-05 2e-05 2e-05 2e-05 2e-05 2e-05 2e-05 2e-05 
2e-05 2e-05 2e-05 2e-05 2e-05 2e-05 2e-05 2e-05 2e-05 
2e-05 2e-05 2e-05 7.5e-05 2e-05 2e-05 2e-05 2e-05 2e-05 
2e-05 2e-05 2e-05 2e-05 2e-05 2e-05 2e-05 2e-05 2e-05 
2e-05 2e-05 2e-05 2e-05 2e-05 2e-05 2e-05 2e-05 2e-05 
2e-05 2e-05 2e-05 2e-05 2e-05 2e-05 2e-05 2e-05 2e-05 
2e-05 2e-05 2e-05 2e-05 2e-05 2e-05 2e-05 2e-05 2e-05 
2e-05 2e-05 2e-05 2e-05 2e-05 2e-05 2e-05 2e-05 2e-05 
2e-05 2e-05 2e-05 2e-05 2e-05 2e-05 2e-05 2e-05 2e-05 
2e-05 2e-05 2e-05 2e-05 2e-05 2e-05 2e-05 2e-05 2e-05 
2e-05 2e-05 2e-05 2e-05 2e-05 2e-05 2e-05 2e-05 2e-05 
2e-05 2e-05 2e-05 2e-05 2e-05 2e-05 2e-05 2e-05 2e-05 
2e-05 2e-05 2e-05 2e-05 2e-05 2e-05 7.5e-05 2e-05 2e-05 
2e-05 2e-05 2e-05 2e-05 2e-05 2e-05 2e-05 2e-05 2e-05 
2e-05 2e-05 2e-05 2e-05 2e-05 2e-05 2e-05 2e-05 2e-05 
2e-05 2e-05 2e-05 2e-05 2e-05 2e-05 2e-05 2e-05 2e-05 
2e-05 2e-05 2e-05 2e-05 2e-05 2e-05 0.00015 2e-05 2e-05 
2e-05 2e-05 2e-05 2e-05 2e-05 2e-05 2e-05 2e-05 2e-05 
2e-05 7.5e-05 7.5e-05 7.5e-05 2e-05 2e-05 2e-05 7.5e-05 0.0003 

omega 3 648 double
0 0 0 0 0 0 0 0 0 
0 0 0 0 0 0 0 0 0 
0 0 0 0 0 0 0 0 0 
0 0 0 0 0 0 0 0 0 
0 0 0 0 0 0 0 0 0 
0 0 0 0 0 0 0 0 0 
0 0 0 0 0 0 0 0 0 
0 0 0 0 0 0 0 0 0 
0 0 0 0 0 0 0 0 0 
0 0 0 0 0 0 0 0 0 
0 0 0 0 0 0 0 0 0 
0 0 0 0 0 0 0 0 0 
0 0 0 0 0 0 0 0 0 
0 0 0 0 0 0 0 0 0 
0 0 0 0 0 0 0 0 0 
0 0 0 0 0 0 0 0 0 
0 0 0 0 0 0 0 0 0 
0 0 0 0 0 0 0 0 0 
0 0 0 0 0 0 0 0 0 
0 0 0 0 0 0 0 0 0 
0 0 0 0 0 0 0 0 0 
0 0 0 0 0 0 0 0 0 
0 0 0 0 0 0 0 0 0 
0 0 0 0 0 0 0 0 0 
0 0 0 0 0 0 0 0 0 
0 0 0 0 0 0 0 0 0 
0 0 0 0 0 0 0 0 0 
0 0 0 0 0 0 0 0 0 
0 0 0 0 0 0 0 0 0 
0 0 0 0 0 0 0 0 0 
0 0 0 0 0 0 0 0 0 
0 0 0 0 0 0 0 0 0 
0 0 0 0 0 0 0 0 0 
0 0 0 0 0 0 0 0 0 
0 0 0 0 0 0 0 0 0 
0 0 0 0 0 0 0 0 0 
0 0 0 0 0 0 0 0 0 
0 0 0 0 0 0 0 0 0 
0 0 0 0 0 0 0 0 0 
0 0 0 0 0 0 0 0 0 
0 0 0 0 0 0 0 0 0 
0 0 0 0 0 0 0 0 0 
0 0 0 0 0 0 0 0 0 
0 0 0 0 0 0 0 0 0 
0 0 0 0 0 0 0 0 0 
0 0 0 0 0 0 0 0 0 
0 0 0 0 0 0 0 0 0 
0 0 0 0 0 0 0 0 0 
0 0 0 0 0 0 0 0 0 
0 0 0 0 0 0 0 0 0 
0 0 0 0 0 0 0 0 0 
0 0 0 0 0 0 0 0 0 
0 0 0 0 0 0 0 0 0 
0 0 0 0 0 0 0 0 0 
0 0 0 0 0 0 0 0 0 
0 0 0 0 0 0 0 0 0 
0 0 0 0 0 0 0 0 0 
0 0 0 0 0 0 0 0 0 
0 0 0 0 0 0 0 0 0 
0 0 0 0 0 0 0 0 0 
0 0 0 0 0 0 0 0 0 
0 0 0 0 0 0 0 0 0 
0 0 0 0 0 0 0 0 0 
0 0 0 0 0 0 0 0 0 
0 0 0 0 0 0 0 0 0 
0 0 0 0 0 0 0 0 0 
0 0 0 0 0 0 0 0 0 
0 0 0 0 0 0 0 0 0 
0 0 0 0 0 0 0 0 0 
0 0 0 0 0 0 0 0 0 
0 0 0 0 0 0 0 0 0 
0 0 0 0 0 0 0 0 0 
0 0 0 0 0 0 0 0 0 
0 0 0 0 0 0 0 0 0 
0 0 0 0 0 0 0 0 0 
0 0 0 0 0 0 0 0 0 
0 0 0 0 0 0 0 0 0 
0 0 0 0 0 0 0 0 0 
0 0 0 0 0 0 0 0 0 
0 0 0 0 0 0 0 0 0 
0 0 0 0 0 0 0 0 0 
0 0 0 0 0 0 0 0 0 
0 0 0 0 0 0 0 0 0 
0 0 0 0 0 0 0 0 0 
0 0 0 0 0 0 0 0 0 
0 0 0 0 0 0 0 0 0 
0 0 0 0 0 0 0 0 0 
0 0 0 0 0 0 0 0 0 
0 0 0 0 0 0 0 0 0 
0 0 0 0 0 0 0 0 0 
0 0 0 0 0 0 0 0 0 
0 0 0 0 0 0 0 0 0 
0 0 0 0 0 0 0 0 0 
0 0 0 0 0 0 0 0 0 
0 0 0 0 0 0 0 0 0 
0 0 0 0 0 0 0 0 0 
0 0 0 0 0 0 0 0 0 
0 0 0 0 0 0 0 0 0 
0 0 0 0 0 0 0 0 0 
0 0 0 0 0 0 0 0 0 
0 0 0 0 0 0 0 0 0 
0 0 0 0 0 0 0 0 0 
0 0 0 0 0 0 0 0 0 
0 0 0 0 0 0 0 0 0 
0 0 0 0 0 0 0 0 0 
0 0 0 0 0 0 0 0 0 
0 0 0 0 0 0 0 0 0 
0 0 0 0 0 0 0 0 0 
0 0 0 0 0 0 0 0 0 
0 0 0 0 0 0 0 0 0 
0 0 0 0 0 0 0 0 0 
0 0 0 0 0 0 0 0 0 
0 0 0 0 0 0 0 0 0 
0 0 0 0 0 0 0 0 0 
0 0 0 0 0 0 0 0 0 
0 0 0 0 0 0 0 0 0 
0 0 0 0 0 0 0 0 0 
0 0 0 0 0 0 0 0 0 
0 0 0 0 0 0 0 0 0 
0 0 0 0 0 0 0 0 0 
0 0 0 0 0 0 0 0 0 
0 0 0 0 0 0 0 0 0 
0 0 0 0 0 0 0 0 0 
0 0 0 0 0 0 0 0 0 
0 0 0 0 0 0 0 0 0 
0 0 0 0 0 0 0 0 0 
0 0 0 0 0 0 0 0 0 
0 0 0 0 0 0 0 0 0 
0 0 0 0 0 0 0 0 0 
0 0 0 0 0 0 0 0 0 
0 0 0 0 0 0 0 0 0 
0 0 0 0 0 0 0 0 0 
0 0 0 0 0 0 0 0 0 
0 0 0 0 0 0 0 0 0 
0 0 0 0 0 0 0 0 0 
0 0 0 0 0 0 0 0 0 
0 0 0 0 0 0 0 0 0 
0 0 0 0 0 0 0 0 0 
0 0 0 0 0 0 0 0 0 
0 0 0 0 0 0 0 0 0 
0 0 0 0 0 0 0 0 0 
0 0 0 0 0 0 0 0 0 
0 0 0 0 0 0 0 0 0 
0 0 0 0 0 0 0 0 0 
0 0 0 0 0 0 0 0 0 
0 0 0 0 0 0 0 0 0 
0 0 0 0 0 0 0 0 0 
0 0 0 0 0 0 0 0 0 
0 0 0 0 0 0 0 0 0 
0 0 0 0 0 0 0 0 0 
0 0 0 0 0 0 0 0 0 
0 0 0 0 0 0 0 0 0 
0 0 0 0 0 0 0 0 0 
0 0 0 0 0 0 0 0 0 
0 0 0 0 0 0 0 0 0 
0 0 0 0 0 0 0 0 0 
0 0 0 0 0 0 0 0 0 
0 0 0 0 0 0 0 0 0 
0 0 0 0 0 0 0 0 0 
0 0 0 0 0 0 0 0 0 
0 0 0 0 0 0 0 0 0 
0 0 0 0 0 0 0 0 0 
0 0 0 0 0 0 0 0 0 
0 0 0 0 0 0 0 0 0 
0 0 0 0 0 0 0 0 0 
0 0 0 0 0 0 0 0 0 
0 0 0 0 0 0 0 0 0 
0 0 0 0 0 0 0 0 0 
0 0 0 0 0 0 0 0 0 
0 0 0 0 0 0 0 0 0 
0 0 0 0 0 0 0 0 0 
0 0 0 0 0 0 0 0 0 
0 0 0 0 0 0 0 0 0 
0 0 0 0 0 0 0 0 0 
0 0 0 0 0 0 0 0 0 
0 0 0 0 0 0 0 0 0 
0 0 0 0 0 0 0 0 0 
0 0 0 0 0 0 0 0 0 
0 0 0 0 0 0 0 0 0 
0 0 0 0 0 0 0 0 0 
0 0 0 0 0 0 0 0 0 
0 0 0 0 0 0 0 0 0 
0 0 0 0 0 0 0 0 0 
0 0 0 0 0 0 0 0 0 
0 0 0 0 0 0 0 0 0 
0 0 0 0 0 0 0 0 0 
0 0 0 0 0 0 0 0 0 
0 0 0 0 0 0 0 0 0 
0 0 0 0 0 0 0 0 0 
0 0 0 0 0 0 0 0 0 
0 0 0 0 0 0 0 0 0 
0 0 0 0 0 0 0 0 0 
0 0 0 0 0 0 0 0 0 
0 0 0 0 0 0 0 0 0 
0 0 0 0 0 0 0 0 0 
0 0 0 0 0 0 0 0 0 
0 0 0 0 0 0 0 0 0 
0 0 0 0 0 0 0 0 0 
0 0 0 0 0 0 0 0 0 
0 0 0 0 0 0 0 0 0 
0 0 0 0 0 0 0 0 0 
0 0 0 0 0 0 0 0 0 
0 0 0 0 0 0 0 0 0 
0 0 0 0 0 0 0 0 0 
0 0 0 0 0 0 0 0 0 
0 0 0 0 0 0 0 0 0 
0 0 0 0 0 0 0 0 0 
0 0 0 0 0 0 0 0 0 
0 0 0 0 0 0 0 0 0 
0 0 0 0 0 0 0 0 0 
0 0 0 0 0 0 0 0 0 
0 0 0 0 0 0 0 0 0 
0 0 0 0 0 0 0 0 0 
0 0 0 0 0 0 0 0 0 
0 0 0 0 0 0 0 0 0 
0 0 0 0 0 0 0 0 0 

fx_mag_viz 1 648 double
0 0 0 0 0 0 0 0 0 
0 0 0 0 0 0 0 0 0 
0 0 0 0 0 0 0 0 0 
0 0 0 0 0 0 0 0 0 
0 0 0 0 0 0 0 0 0 
0 0 0 0 0 0 0 0 0 
0 0 0 0 0 0 0 0 0 
0 0 0 0 0 0 0 0 0 
0 0 0 0 0 0 0 0 0 
0 0 0 0 0 0 0 0 0 
0 0 0 0 0 0 0 0 0 
0 0 0 0 0 0 0 0 0 
0 0 0 0 0 0 0 0 0 
0 0 0 0 0 0 0 0 0 
0 0 0 0 0 0 0 0 0 
0 0 0 0 0 0 0 0 0 
0 0 0 0 0 0 0 0 0 
0 0 0 0 0 0 0 0 0 
0 0 0 0 0 0 0 0 0 
0 0 0 0 0 0 0 0 0 
0 0 0 0 0 0 0 0 0 
0 0 0 0 0 0 0 0 0 
0 0 0 0 0 0 0 0 0 
0 0 0 0 0 0 0 0 0 
0 0 0 0 0 0 0 0 0 
0 0 0 0 0 0 0 0 0 
0 0 0 0 0 0 0 0 0 
0 0 0 0 0 0 0 0 0 
0 0 0 0 0 0 0 0 0 
0 0 0 0 0 0 0 0 0 
0 0 0 0 0 0 0 0 0 
0 0 0 0 0 0 0 0 0 
0 0 0 0 0 0 0 0 0 
0 0 0 0 0 0 0 0 0 
0 0 0 0 0 0 0 0 0 
0 0 0 0 0 0 0 0 0 
0 0 0 0 0 0 0 0 0 
0 0 0 0 0 0 0 0 0 
0 0 0 0 0 0 0 0 0 
0 0 0 0 0 0 0 0 0 
0 0 0 0 0 0 0 0 0 
0 0 0 0 0 0 0 0 0 
0 0 0 0 0 0 0 0 0 
0 0 0 0 0 0 0 0 0 
0 0 0 0 0 0 0 0 0 
0 0 0 0 0 0 0 0 0 
0 0 0 0 0 0 0 0 0 
0 0 0 0 0 0 0 0 0 
0 0 0 0 0 0 0 0 0 
0 0 0 0 0 0 0 0 0 
0 0 0 0 0 0 0 0 0 
0 0 0 0 0 0 0 0 0 
0 0 0 0 0 0 0 0 0 
0 0 0 0 0 0 0 0 0 
0 0 0 0 0 0 0 0 0 
0 0 0 0 0 0 0 0 0 
0 0 0 0 0 0 0 0 0 
0 0 0 0 0 0 0 0 0 
0 0 0 0 0 0 0 0 0 
0 0 0 0 0 0 0 0 0 
0 0 0 0 0 0 0 0 0 
0 0 0 0 0 0 0 0 0 
0 0 0 0 0 0 0 0 0 
0 0 0 0 0 0 0 0 0 
0 0 0 0 0 0 0 0 0 
0 0 0 0 0 0 0 0 0 
0 0 0 0 0 0 0 0 0 
0 0 0 0 0 0 0 0 0 
0 0 0 0 0 0 0 0 0 
0 0 0 0 0 0 0 0 0 
0 0 0 0 0 0 0 0 0 
0 0 0 0 0 0 0 0 0 

fy_mag_viz 1 648 double
0 0 0 0 0 0 0 0 0 
0 0 0 0 0 0 0 0 0 
0 0 0 0 0 0 0 0 0 
0 0 0 0 0 0 0 0 0 
0 0 0 0 0 0 0 0 0 
0 0 0 0 0 0 0 0 0 
0 0 0 0 0 0 0 0 0 
0 0 0 0 0 0 0 0 0 
0 0 0 0 0 0 0 0 0 
0 0 0 0 0 0 0 0 0 
0 0 0 0 0 0 0 0 0 
0 0 0 0 0 0 0 0 0 
0 0 0 0 0 0 0 0 0 
0 0 0 0 0 0 0 0 0 
0 0 0 0 0 0 0 0 0 
0 0 0 0 0 0 0 0 0 
0 0 0 0 0 0 0 0 0 
0 0 0 0 0 0 0 0 0 
0 0 0 0 0 0 0 0 0 
0 0 0 0 0 0 0 0 0 
0 0 0 0 0 0 0 0 0 
0 0 0 0 0 0 0 0 0 
0 0 0 0 0 0 0 0 0 
0 0 0 0 0 0 0 0 0 
0 0 0 0 0 0 0 0 0 
0 0 0 0 0 0 0 0 0 
0 0 0 0 0 0 0 0 0 
0 0 0 0 0 0 0 0 0 
0 0 0 0 0 0 0 0 0 
0 0 0 0 0 0 0 0 0 
0 0 0 0 0 0 0 0 0 
0 0 0 0 0 0 0 0 0 
0 0 0 0 0 0 0 0 0 
0 0 0 0 0 0 0 0 0 
0 0 0 0 0 0 0 0 0 
0 0 0 0 0 0 0 0 0 
0 0 0 0 0 0 0 0 0 
0 0 0 0 0 0 0 0 0 
0 0 0 0 0 0 0 0 0 
0 0 0 0 0 0 0 0 0 
0 0 0 0 0 0 0 0 0 
0 0 0 0 0 0 0 0 0 
0 0 0 0 0 0 0 0 0 
0 0 0 0 0 0 0 0 0 
0 0 0 0 0 0 0 0 0 
0 0 0 0 0 0 0 0 0 
0 0 0 0 0 0 0 0 0 
0 0 0 0 0 0 0 0 0 
0 0 0 0 0 0 0 0 0 
0 0 0 0 0 0 0 0 0 
0 0 0 0 0 0 0 0 0 
0 0 0 0 0 0 0 0 0 
0 0 0 0 0 0 0 0 0 
0 0 0 0 0 0 0 0 0 
0 0 0 0 0 0 0 0 0 
0 0 0 0 0 0 0 0 0 
0 0 0 0 0 0 0 0 0 
0 0 0 0 0 0 0 0 0 
0 0 0 0 0 0 0 0 0 
0 0 0 0 0 0 0 0 0 
0 0 0 0 0 0 0 0 0 
0 0 0 0 0 0 0 0 0 
0 0 0 0 0 0 0 0 0 
0 0 0 0 0 0 0 0 0 
0 0 0 0 0 0 0 0 0 
0 0 0 0 0 0 0 0 0 
0 0 0 0 0 0 0 0 0 
0 0 0 0 0 0 0 0 0 
0 0 0 0 0 0 0 0 0 
0 0 0 0 0 0 0 0 0 
0 0 0 0 0 0 0 0 0 
0 0 0 0 0 0 0 0 0 

fz_mag_viz 1 648 double
0 0 0 0 0 0 0 0 0 
0 0 0 0 0 0 0 0 0 
0 0 0 0 0 0 0 0 0 
0 0 0 0 0 0 0 0 0 
0 0 0 0 0 0 0 0 0 
0 0 0 0 0 0 0 0 0 
0 0 0 0 0 0 0 0 0 
0 0 0 0 0 0 0 0 0 
0 0 0 0 0 0 0 0 0 
0 0 0 0 0 0 0 0 0 
0 0 0 0 0 0 0 0 0 
0 0 0 0 0 0 0 0 0 
0 0 0 0 0 0 0 0 0 
0 0 0 0 0 0 0 0 0 
0 0 0 0 0 0 0 0 0 
0 0 0 0 0 0 0 0 0 
0 0 0 0 0 0 0 0 0 
0 0 0 0 0 0 0 0 0 
0 0 0 0 0 0 0 0 0 
0 0 0 0 0 0 0 0 0 
0 0 0 0 0 0 0 0 0 
0 0 0 0 0 0 0 0 0 
0 0 0 0 0 0 0 0 0 
0 0 0 0 0 0 0 0 0 
0 0 0 0 0 0 0 0 0 
0 0 0 0 0 0 0 0 0 
0 0 0 0 0 0 0 0 0 
0 0 0 0 0 0 0 0 0 
0 0 0 0 0 0 0 0 0 
0 0 0 0 0 0 0 0 0 
0 0 0 0 0 0 0 0 0 
0 0 0 0 0 0 0 0 0 
0 0 0 0 0 0 0 0 0 
0 0 0 0 0 0 0 0 0 
0 0 0 0 0 0 0 0 0 
0 0 0 0 0 0 0 0 0 
0 0 0 0 0 0 0 0 0 
0 0 0 0 0 0 0 0 0 
0 0 0 0 0 0 0 0 0 
0 0 0 0 0 0 0 0 0 
0 0 0 0 0 0 0 0 0 
0 0 0 0 0 0 0 0 0 
0 0 0 0 0 0 0 0 0 
0 0 0 0 0 0 0 0 0 
0 0 0 0 0 0 0 0 0 
0 0 0 0 0 0 0 0 0 
0 0 0 0 0 0 0 0 0 
0 0 0 0 0 0 0 0 0 
0 0 0 0 0 0 0 0 0 
0 0 0 0 0 0 0 0 0 
0 0 0 0 0 0 0 0 0 
0 0 0 0 0 0 0 0 0 
0 0 0 0 0 0 0 0 0 
0 0 0 0 0 0 0 0 0 
0 0 0 0 0 0 0 0 0 
0 0 0 0 0 0 0 0 0 
0 0 0 0 0 0 0 0 0 
0 0 0 0 0 0 0 0 0 
0 0 0 0 0 0 0 0 0 
0 0 0 0 0 0 0 0 0 
0 0 0 0 0 0 0 0 0 
0 0 0 0 0 0 0 0 0 
0 0 0 0 0 0 0 0 0 
0 0 0 0 0 0 0 0 0 
0 0 0 0 0 0 0 0 0 
0 0 0 0 0 0 0 0 0 
0 0 0 0 0 0 0 0 0 
0 0 0 0 0 0 0 0 0 
0 0 0 0 0 0 0 0 0 
0 0 0 0 0 0 0 0 0 
0 0 0 0 0 0 0 0 0 
0 0 0 0 0 0 0 0 0 

B_magnitude 1 648 double
0 0 0 0 0 0 0 0 0 
0 0 0 0 0 0 0 0 0 
0 0 0 0 0 0 0 0 0 
0 0 0 0 0 0 0 0 0 
0 0 0 0 0 0 0 0 0 
0 0 0 0 0 0 0 0 0 
0 0 0 0 0 0 0 0 0 
0 0 0 0 0 0 0 0 0 
0 0 0 0 0 0 0 0 0 
0 0 0 0 0 0 0 0 0 
0 0 0 0 0 0 0 0 0 
0 0 0 0 0 0 0 0 0 
0 0 0 0 0 0 0 0 0 
0 0 0 0 0 0 0 0 0 
0 0 0 0 0 0 0 0 0 
0 0 0 0 0 0 0 0 0 
0 0 0 0 0 0 0 0 0 
0 0 0 0 0 0 0 0 0 
0 0 0 0 0 0 0 0 0 
0 0 0 0 0 0 0 0 0 
0 0 0 0 0 0 0 0 0 
0 0 0 0 0 0 0 0 0 
0 0 0 0 0 0 0 0 0 
0 0 0 0 0 0 0 0 0 
0 0 0 0 0 0 0 0 0 
0 0 0 0 0 0 0 0 0 
0 0 0 0 0 0 0 0 0 
0 0 0 0 0 0 0 0 0 
0 0 0 0 0 0 0 0 0 
0 0 0 0 0 0 0 0 0 
0 0 0 0 0 0 0 0 0 
0 0 0 0 0 0 0 0 0 
0 0 0 0 0 0 0 0 0 
0 0 0 0 0 0 0 0 0 
0 0 0 0 0 0 0 0 0 
0 0 0 0 0 0 0 0 0 
0 0 0 0 0 0 0 0 0 
0 0 0 0 0 0 0 0 0 
0 0 0 0 0 0 0 0 0 
0 0 0 0 0 0 0 0 0 
0 0 0 0 0 0 0 0 0 
0 0 0 0 0 0 0 0 0 
0 0 0 0 0 0 0 0 0 
0 0 0 0 0 0 0 0 0 
0 0 0 0 0 0 0 0 0 
0 0 0 0 0 0 0 0 0 
0 0 0 0 0 0 0 0 0 
0 0 0 0 0 0 0 0 0 
0 0 0 0 0 0 0 0 0 
0 0 0 0 0 0 0 0 0 
0 0 0 0 0 0 0 0 0 
0 0 0 0 0 0 0 0 0 
0 0 0 0 0 0 0 0 0 
0 0 0 0 0 0 0 0 0 
0 0 0 0 0 0 0 0 0 
0 0 0 0 0 0 0 0 0 
0 0 0 0 0 0 0 0 0 
0 0 0 0 0 0 0 0 0 
0 0 0 0 0 0 0 0 0 
0 0 0 0 0 0 0 0 0 
0 0 0 0 0 0 0 0 0 
0 0 0 0 0 0 0 0 0 
0 0 0 0 0 0 0 0 0 
0 0 0 0 0 0 0 0 0 
0 0 0 0 0 0 0 0 0 
0 0 0 0 0 0 0 0 0 
0 0 0 0 0 0 0 0 0 
0 0 0 0 0 0 0 0 0 
0 0 0 0 0 0 0 0 0 
0 0 0 0 0 0 0 0 0 
0 0 0 0 0 0 0 0 0 
0 0 0 0 0 0 0 0 0 

B_gradient_mag 1 648 double
0 0 0 0 0 0 0 0 0 
0 0 0 0 0 0 0 0 0 
0 0 0 0 0 0 0 0 0 
0 0 0 0 0 0 0 0 0 
0 0 0 0 0 0 0 0 0 
0 0 0 0 0 0 0 0 0 
0 0 0 0 0 0 0 0 0 
0 0 0 0 0 0 0 0 0 
0 0 0 0 0 0 0 0 0 
0 0 0 0 0 0 0 0 0 
0 0 0 0 0 0 0 0 0 
0 0 0 0 0 0 0 0 0 
0 0 0 0 0 0 0 0 0 
0 0 0 0 0 0 0 0 0 
0 0 0 0 0 0 0 0 0 
0 0 0 0 0 0 0 0 0 
0 0 0 0 0 0 0 0 0 
0 0 0 0 0 0 0 0 0 
0 0 0 0 0 0 0 0 0 
0 0 0 0 0 0 0 0 0 
0 0 0 0 0 0 0 0 0 
0 0 0 0 0 0 0 0 0 
0 0 0 0 0 0 0 0 0 
0 0 0 0 0 0 0 0 0 
0 0 0 0 0 0 0 0 0 
0 0 0 0 0 0 0 0 0 
0 0 0 0 0 0 0 0 0 
0 0 0 0 0 0 0 0 0 
0 0 0 0 0 0 0 0 0 
0 0 0 0 0 0 0 0 0 
0 0 0 0 0 0 0 0 0 
0 0 0 0 0 0 0 0 0 
0 0 0 0 0 0 0 0 0 
0 0 0 0 0 0 0 0 0 
0 0 0 0 0 0 0 0 0 
0 0 0 0 0 0 0 0 0 
0 0 0 0 0 0 0 0 0 
0 0 0 0 0 0 0 0 0 
0 0 0 0 0 0 0 0 0 
0 0 0 0 0 0 0 0 0 
0 0 0 0 0 0 0 0 0 
0 0 0 0 0 0 0 0 0 
0 0 0 0 0 0 0 0 0 
0 0 0 0 0 0 0 0 0 
0 0 0 0 0 0 0 0 0 
0 0 0 0 0 0 0 0 0 
0 0 0 0 0 0 0 0 0 
0 0 0 0 0 0 0 0 0 
0 0 0 0 0 0 0 0 0 
0 0 0 0 0 0 0 0 0 
0 0 0 0 0 0 0 0 0 
0 0 0 0 0 0 0 0 0 
0 0 0 0 0 0 0 0 0 
0 0 0 0 0 0 0 0 0 
0 0 0 0 0 0 0 0 0 
0 0 0 0 0 0 0 0 0 
0 0 0 0 0 0 0 0 0 
0 0 0 0 0 0 0 0 0 
0 0 0 0 0 0 0 0 0 
0 0 0 0 0 0 0 0 0 
0 0 0 0 0 0 0 0 0 
0 0 0 0 0 0 0 0 0 
0 0 0 0 0 0 0 0 0 
0 0 0 0 0 0 0 0 0 
0 0 0 0 0 0 0 0 0 
0 0 0 0 0 0 0 0 0 
0 0 0 0 0 0 0 0 0 
0 0 0 0 0 0 0 0 0 
0 0 0 0 0 0 0 0 0 
0 0 0 0 0 0 0 0 0 
0 0 0 0 0 0 0 0 0 
0 0 0 0 0 0 0 0 0 

