# vtk DataFile Version 5.1
Generated by LIGGGHTS
ASCII
DATASET POLYDATA
POINTS 648 float
-0.0428902 -0.0449088 0.00102 -0.0346971 -0.0446764 0.00102 -0.0317519 -0.0446953 0.00115267 
-0.00340304 -0.0448428 0.00102 0.0262096 -0.0449372 0.00103666 -0.044759 -0.0437614 0.00102 
-0.0335565 -0.0442122 0.00102 -0.0308094 -0.0435702 0.00102 -0.027409 -0.0433703 0.00102 
0.0145521 -0.0432303 0.00102 0.0181024 -0.0433049 0.00102 0.0195053 -0.043722 0.00124921 
0.0416479 -0.0439733 0.00102 -0.0248654 -0.0427111 0.00102 0.0131812 -0.0427533 0.00102345 
0.0248068 -0.0428986 0.00102 0.0348044 -0.042095 0.00102 0.0418836 -0.0421436 0.00102 
0.0406519 -0.0427256 0.00118853 -0.0349861 -0.0412827 0.00102 -0.00674967 -0.0416523 0.00102 
0.000425919 -0.0415728 0.00102383 0.0238162 -0.0409762 0.00102115 0.0338942 -0.0410147 0.00103293 
0.0414821 -0.0410789 0.00102 0.0424299 -0.0409921 0.0010384 -0.042922 -0.0404536 0.00102 
-0.0406141 -0.0405112 0.00122023 -0.0334706 -0.0396012 0.00102 -0.0248652 -0.040212 0.00102 
-0.018434 -0.0405477 0.00102 -0.0169239 -0.0402939 0.00102 -0.00670669 -0.0394183 0.00102 
0.0244803 -0.0401788 0.00102 0.040047 -0.0404588 0.00102 -0.0289295 -0.0389067 0.00116484 
-0.0195638 -0.0385913 0.00102117 -0.0108246 -0.0388127 0.00102 -0.00302782 -0.0385948 0.00102 
0.0156715 -0.0391733 0.00102 0.0325128 -0.03812 0.00119061 -0.0370475 -0.0370945 0.00102 
0.00798734 -0.0367051 0.00102 0.00985621 -0.0367022 0.00121065 0.0308099 -0.0378456 0.00102 
0.0397687 -0.0374633 0.00102 -0.0439713 -0.0357399 0.00102 -0.0309963 -0.0355024 0.00105355 
-0.0273176 -0.0361067 0.00102 -0.0168273 -0.0360331 0.00102 -0.00161929 -0.0353994 0.00103695 
0.000822496 -0.0363122 0.00102 0.0195647 -0.0366528 0.00102198 -0.0177429 -0.0346724 0.00119911 
-8.23525e-05 -0.034098 0.00103466 0.00594186 -0.0351889 0.00102 0.0077947 -0.0345433 0.00102828 
0.00879071 -0.0344865 0.00102 0.0333162 -0.0342631 0.00102 0.0403097 -0.0347888 0.0010451 
0.0433459 -0.0353282 0.00102 -0.0427235 -0.0332389 0.00102 -0.0161578 -0.0337243 0.00106626 
-0.00586029 -0.0338127 0.00102 0.023158 -0.0340207 0.00102 0.0244271 -0.0334586 0.00102 
0.027474 -0.0338615 0.00102419 -0.0376897 -0.0314333 0.00102 -0.0262624 -0.032473 0.00102 
-0.0232422 -0.0321576 0.00102 -0.0160452 -0.0323821 0.00102 0.00802514 -0.031483 0.00102 
0.0346336 -0.0325969 0.00102 -0.0386911 -0.0311434 0.00102106 -0.0266532 -0.0301716 0.00102 
-0.0105296 -0.0314142 0.00102 0.0280204 -0.0311414 0.00102 0.0449741 -0.0303513 0.00102 
-0.0448384 -0.0296834 0.00102 -0.0414327 -0.0290659 0.00125917 -0.0263426 -0.0292431 0.00106435 
0.00231692 -0.0294453 0.00102 0.023019 -0.0293484 0.00124741 0.0346338 -0.0290927 0.00102 
0.0392765 -0.0300093 0.00120887 -0.0401314 -0.0280847 0.0010277 -0.0346801 -0.0287009 0.00123684 
-0.0240024 -0.0280603 0.00105694 0.00577088 -0.0287415 0.00102 0.0164647 -0.0275391 0.00102 
-0.0430551 -0.0267583 0.00102 -0.00580099 -0.0272788 0.00102 0.000892701 -0.0263701 0.00102 
0.0101031 -0.0273014 0.00102 0.03382 -0.0268981 0.00102073 -0.0338231 -0.0250135 0.00102 
-0.00446216 -0.0255279 0.00104181 0.0306875 -0.0259396 0.00102 0.033456 -0.0256735 0.00102 
0.032808 -0.025967 0.00102 0.0350196 -0.0250011 0.00102345 -0.00863888 -0.0237376 0.00102784 
0.00179778 -0.0247441 0.00102523 0.00538025 -0.0241403 0.00102081 0.0155599 -0.0240909 0.00102 
-0.0408326 -0.0234295 0.00102 -0.0350278 -0.0224863 0.0010351 -0.0127621 -0.0231756 0.00106251 
0.0115492 -0.0227248 0.00102 0.0109547 -0.0235646 0.00130056 0.0240101 -0.0228809 0.0010215 
0.035159 -0.023363 0.00116016 -0.0323128 -0.0219837 0.00127873 -0.0225401 -0.0213878 0.00102 
-0.0164034 -0.0216001 0.00109916 0.00623721 -0.0211799 0.00102 0.0233461 -0.0214624 0.00102 
0.039775 -0.0211058 0.00102 0.0436787 -0.0219137 0.00102 -0.00827992 -0.020547 0.00102 
0.00548761 -0.0197918 0.00107044 0.0336491 -0.0197505 0.00102 -0.0296942 -0.0196153 0.00102 
-0.0207996 -0.0190456 0.00123323 -0.0108877 -0.0188832 0.00102 0.00156248 -0.0194187 0.00102 
0.0134129 -0.0192809 0.0011014 0.0363266 -0.0194176 0.00102 -0.0328213 -0.0176588 0.00102247 
-0.0317771 -0.0175651 0.00102 -0.0204621 -0.0172006 0.00102 -0.0100897 -0.0180162 0.00102 
0.0030191 -0.0179247 0.00102 0.0404767 -0.0183151 0.00102 -0.0426154 -0.0165053 0.00102 
-0.0405162 -0.0161033 0.00102 -0.0339565 -0.0167518 0.00102 -0.0257955 -0.0157834 0.00102 
-0.0147645 -0.0165889 0.00108052 0.0223879 -0.0163393 0.00102 0.0296492 -0.015918 0.00110496 
0.038292 -0.016257 0.00102356 -0.0408642 -0.0154151 0.00105921 -0.015814 -0.0152491 0.00102 
-0.00444012 -0.0151621 0.00102 0.0132043 -0.01541 0.00130375 0.0198229 -0.0156851 0.00102 
0.0249316 -0.014475 0.00102 0.0268005 -0.0146468 0.00102 0.0375745 -0.0151367 0.00102 
-0.0388614 -0.0136303 0.00102 -0.0329121 -0.0139828 0.00102 -0.0313057 -0.0141988 0.00104617 
-0.0279963 -0.0141356 0.00130601 -0.0227164 -0.0141288 0.00102 -0.0186412 -0.0134353 0.00102635 
-0.0117656 -0.0138394 0.00102 0.0403752 -0.0143085 0.00102156 -0.0341597 -0.0122829 0.00102 
-0.0327621 -0.0121928 0.00125651 -0.0269092 -0.0125643 0.00116393 0.0176437 -0.0119747 0.00102 
0.00689113 -0.0107816 0.00102 0.0253763 -0.011051 0.00120628 0.0277003 -0.0107969 0.00102 
0.0414517 -0.0114994 0.0011565 -0.0253401 -0.0103599 0.00126698 -0.0222502 -0.00974669 0.00102 
-0.0196799 -0.00931279 0.00102 -0.0136128 -0.00979682 0.00116954 -0.0112192 -0.0104501 0.00102 
0.00743742 -0.00926665 0.00102 0.013874 -0.00963069 0.00102 0.0251729 -0.00985964 0.00102 
0.0286804 -0.00919085 0.00102 0.0313953 -0.00974065 0.00102 0.0350526 -0.0102353 0.00102 
0.0406218 -0.0100941 0.00106386 -0.042331 -0.00792816 0.00105301 -0.00553214 -0.00871323 0.00102 
-0.00254943 -0.00825679 0.00102 -0.0344646 -0.00725539 0.00102566 -0.0343844 -0.0078404 0.00124566 
-0.0304645 -0.00701594 0.00102 -0.0198564 -0.00683511 0.00102 -0.0135858 -0.00672635 0.00102043 
-0.00433253 -0.00676057 0.001075 -0.00401126 -0.00720159 0.00102 0.0109664 -0.00760095 0.00102 
0.0129906 -0.00677597 0.00130192 0.0161928 -0.00760918 0.00102 0.0275881 -0.00673863 0.00102 
0.0404774 -0.00688032 0.00102 -0.0129003 -0.00574839 0.00102 -0.00747582 -0.00609419 0.00102 
0.00523139 -0.00599236 0.00108351 0.0387156 -0.00624884 0.00102 -0.040885 -0.00406647 0.00102 
0.00937085 -0.00418454 0.00102 0.0131353 -0.00504642 0.00102 0.0180565 -0.00487531 0.00110122 
0.0180458 -0.00470109 0.00125889 0.021323 -0.00444137 0.00102 -0.042786 -0.00359954 0.00102 
-0.0179231 -0.00300678 0.00102 -0.0141425 -0.00311887 0.00102 -0.0120059 -0.00345367 0.00102 
0.00975646 -0.00313231 0.00102077 0.0293019 -0.00298432 0.00102327 -0.0408474 -0.00214648 0.00102 
-0.00896956 -0.00131708 0.00102 0.00664535 -0.00164817 0.00102 0.0168839 -0.00210364 0.00106008 
-0.0376932 -0.000132947 0.00102 -0.0281455 -0.00127675 0.00102 -0.0283489 -0.000417126 0.00125731 
-0.00783961 -0.000387029 0.00102 -0.00702036 -0.00121172 0.00102 -0.000610522 -0.00103491 0.00128288 
0.0140084 -6.89735e-05 0.00122544 0.0290986 -0.000251763 0.00102 -0.0416237 0.00110806 0.00102813 
-0.0260142 0.00017485 0.00102 0.0384376 0.000848974 0.00102 0.0407777 0.000744206 0.001048 
-0.00967086 0.00179773 0.00102 0.00417698 0.0024455 0.00102 0.0147261 0.00139147 0.00102 
0.0188762 0.00181355 0.00102 0.0189244 0.00254502 0.0010451 0.032558 0.00153523 0.00102 
0.0362421 0.00170773 0.00102074 -0.0325416 0.00283857 0.00102 -0.0261639 0.00337815 0.00121981 
0.00243665 0.00282786 0.00110814 0.0449494 0.00392273 0.00102 -0.025141 0.00447188 0.00102 
0.00314898 0.00491531 0.00118626 0.0260144 0.00429017 0.0011688 0.0292006 0.00433004 0.00102 
0.0305447 0.00486582 0.00102 0.0323225 0.00436429 0.00102 0.0404406 0.00462082 0.00102 
-0.0406381 0.00555966 0.00102224 -0.0403489 0.00598291 0.00127192 -0.037077 0.00611456 0.00102 
-0.0287984 0.00559412 0.00102 -0.0170872 0.00564833 0.00102 -0.00723413 0.00605583 0.00102 
0.0011249 0.00615697 0.00102 0.0101693 0.00555192 0.00102 0.021602 0.00540593 0.00102 
0.0228765 0.00606581 0.00102 0.0246705 0.0064451 0.00102 0.0250346 0.00641518 0.00105647 
0.030759 0.00580352 0.00102 0.0332757 0.00539899 0.00102002 0.0358407 0.00533501 0.00124678 
-0.0426568 0.00723228 0.00102 -0.009285 0.00693532 0.00108838 -0.00598638 0.00689803 0.00129924 
0.00533928 0.00728904 0.00102 0.0110904 0.00657535 0.00126449 0.0221269 0.00728552 0.00102 
0.0142017 0.0079404 0.00102 0.0202046 0.00840095 0.00102 0.0283387 0.00890506 0.00102 
0.0324887 0.00836074 0.00129555 0.0340899 0.00882812 0.00102 -0.0392616 0.00972366 0.00102 
-0.0214351 0.00957734 0.00102 -0.0101256 0.00978275 0.00102 0.00474506 0.0103043 0.0010278 
0.00978397 0.00922321 0.00102 0.0197977 0.00963841 0.00102 0.0212596 0.00979192 0.00102 
0.0211953 0.00966092 0.00102 0.0234497 0.00978487 0.00122502 0.027557 0.009967 0.00102722 
-0.0394276 0.0109375 0.00102 -0.00808524 0.0113378 0.00112737 -0.00071691 0.0108932 0.00130385 
0.0399323 0.0117688 0.00102 0.0398091 0.011618 0.00102 -0.0365733 0.0119208 0.00102 
-0.0350204 0.0121089 0.00102 -0.00831541 0.0129665 0.00106995 -0.00279986 0.0127222 0.00102 
0.00243185 0.0120975 0.00102 0.00861143 0.0123591 0.00102 0.0128044 0.0127337 0.00102 
0.014866 0.0127598 0.00102 0.0261916 0.0119357 0.00102118 -0.0429188 0.0135204 0.00102 
-0.034865 0.0142961 0.00102 -0.0310202 0.0131063 0.00102 -0.00867948 0.0139924 0.00106413 
8.23501e-07 0.0138406 0.00102 0.00789931 0.0136568 0.00102 0.0114764 0.0140289 0.00109005 
0.012949 0.0143048 0.00128425 0.0143092 0.0139794 0.00102 0.0248423 0.0143007 0.00102 
0.0287781 0.014071 0.00102 0.0311878 0.014057 0.00103298 0.0336082 0.013194 0.00102 
0.0441199 0.0136981 0.00102005 -0.0196462 0.0155185 0.00102 -0.00307286 0.0144526 0.00102 
0.000954082 0.0152563 0.00102 0.0121458 0.0151918 0.00102 0.0440772 0.0154938 0.00107681 
-0.0408838 0.0159645 0.00121437 -0.00443291 0.0160613 0.00104278 0.00517921 0.0169249 0.00102 
0.0418335 0.0161761 0.00102 -0.0360536 0.0173104 0.00102 -0.0193355 0.018129 0.0012627 
0.00546842 0.0177814 0.00111036 0.0215224 0.0171285 0.00102 0.0226738 0.0181095 0.00102 
0.0256029 0.0175394 0.0010562 0.0407412 0.0174253 0.00102 -0.0363159 0.0185996 0.00121188 
-0.0214239 0.0189608 0.00102 0.00395304 0.0187088 0.00102 0.00757299 0.0192258 0.00102 
0.0090081 0.0191686 0.00102 0.0122157 0.0191756 0.00102 0.018015 0.0183735 0.00102 
0.0388885 0.0193682 0.00102 -0.0431379 0.0208085 0.00102 -0.023041 0.0197144 0.00102 
-0.022709 0.0198803 0.00102 -0.0153727 0.020636 0.00102 0.00742845 0.0199749 0.00124414 
0.0350116 0.0207306 0.00102125 -0.0282566 0.021284 0.00102 -0.0122989 0.0222019 0.00102172 
0.00128112 0.0217131 0.00102 0.0123926 0.0218243 0.00102 0.0362273 0.0220011 0.00102522 
0.0398418 0.0217469 0.00102527 -0.0421793 0.0225172 0.00102032 -0.0349287 0.0230684 0.00102 
-0.0295899 0.0232577 0.00102 0.0146363 0.0223077 0.00102 0.03506 0.0228899 0.00102 
-0.0436572 0.0238848 0.00120894 -0.0267196 0.0236159 0.00102 -0.00782209 0.0241861 0.00117376 
0.0181332 0.0246356 0.00109753 0.021223 0.0244832 0.00123699 0.0258603 0.0235991 0.00102 
0.0307708 0.0242663 0.00102 0.0438582 0.0244724 0.00103559 -0.0386663 0.0253433 0.00102 
-0.0132251 0.0252506 0.00119471 -0.00739359 0.0259593 0.00102 0.000162142 0.0251126 0.00112787 
0.0167463 0.0251763 0.00102 0.0226957 0.0260881 0.00102 -0.0267569 0.0263983 0.00102 
-0.0190887 0.0269029 0.00104158 -0.0128609 0.0265935 0.00120021 -0.0114472 0.026715 0.00102009 
-0.0102477 0.0267602 0.0011906 -0.00563177 0.0268155 0.00102 0.00953871 0.0271324 0.00102 
0.0395905 0.0272142 0.00102 -0.0357156 0.0282031 0.00102 0.00834461 0.0278725 0.00102002 
0.0397191 0.0283771 0.00128304 -0.0406313 0.0295913 0.00109075 -0.0376379 0.0294143 0.00102515 
-0.0127911 0.0299546 0.00102 0.0191509 0.0299648 0.00102 0.0434247 0.0295768 0.00102388 
-0.0409258 0.0305044 0.00102 -0.0313244 0.0314049 0.00102 -0.0219587 0.0304934 0.0010262 
-0.0200898 0.0311527 0.00102 -0.0108954 0.0304 0.00102 0.00372347 0.0304157 0.00102 
0.0038092 0.0311583 0.00102 0.00519606 0.0301696 0.00102 0.0040127 0.0314243 0.00109989 
0.026696 0.03017 0.00102 0.0364634 0.0310238 0.00102 0.0444958 0.0309554 0.00102 
-0.0213481 0.0319153 0.00121813 -0.0073504 0.0318329 0.00102 -0.00435696 0.0325462 0.00102 
0.00390562 0.0317225 0.00102 0.01325 0.0319187 0.00102 0.0191028 0.0315895 0.00120028 
0.0372507 0.0318783 0.00102 0.0380057 0.0324307 0.00103169 -0.0337286 0.0337045 0.00102 
-0.0264781 0.032823 0.00102 0.00727395 0.0332762 0.00110275 0.0152528 0.033152 0.0011328 
0.0214431 0.0335886 0.0010499 0.00284552 0.0345861 0.00102 0.00317215 0.0343196 0.00102 
0.0231674 0.0340949 0.00102 -0.041477 0.0364172 0.00102 -0.0407273 0.0358476 0.00118572 
-0.0155539 0.0359545 0.00119632 -0.00750544 0.0361316 0.00113049 -0.00196307 0.0366495 0.00102 
0.00888594 0.0360502 0.00114994 -0.0245447 0.0378537 0.00102 0.0030545 0.0369981 0.00102663 
0.00367032 0.0371324 0.00118228 0.0297434 0.0373158 0.00102 0.0311732 0.0371467 0.00107646 
-0.00973825 0.0391656 0.00102 -0.00883869 0.0381834 0.00102 -0.00647711 0.0391566 0.00102047 
0.0165329 0.0385374 0.00102 0.0238959 0.0383247 0.00102 0.0281745 0.039089 0.0010344 
-0.0375088 0.0393741 0.00102 -0.0312382 0.0393096 0.00102 -0.0112537 0.0395394 0.00102 
0.0221021 0.0401282 0.00102 0.0251972 0.0393087 0.00102 -0.0133259 0.0414802 0.00102 
0.0163992 0.0415262 0.00102 0.0222253 0.0407186 0.00102 -0.0390027 0.0421086 0.00102 
0.00805094 0.0422278 0.00102 0.0294278 0.0431452 0.00102 -0.0205282 0.0432397 0.00102 
-0.0181988 0.0434549 0.00102 0.0114086 0.0440135 0.00102 0.0352701 0.0439749 0.00102085 
0.0352379 0.0438995 0.0010205 0.0405446 0.0433429 0.00102 0.0399235 0.0434757 0.00102 
-0.0160353 0.0448572 0.00112378 0.0171919 0.0449185 0.00102 0.0211706 0.0445491 0.00102 
-0.00396528 -0.0444182 0.00145195 -0.0389435 -0.0425966 0.00129374 0.0185094 -0.042363 0.0024674 
0.0201641 -0.0426709 0.00132302 -0.0136468 -0.0412372 0.00146637 0.0166138 -0.0412108 0.00136627 
0.0339316 -0.041715 0.00220681 0.00849583 -0.0405939 0.00143438 0.0341086 -0.0368686 0.00178951 
-0.00338111 -0.0363358 0.00196001 0.0307351 -0.0355434 0.00170341 0.0355384 -0.0354155 0.00135544 
-0.0179089 -0.0346335 0.00176463 0.0419483 -0.0348097 0.00248896 0.043014 -0.0343178 0.00143636 
-0.0177803 -0.0340186 0.00136135 0.00264867 -0.0338128 0.00245653 -0.0233761 -0.031813 0.00148396 
-0.0210092 -0.0320472 0.00153354 0.0268369 -0.0315202 0.00168273 -0.0396817 -0.0304797 0.00229805 
-0.0220587 -0.0306349 0.00145859 0.010226 -0.0308634 0.00185816 -0.015788 -0.0282898 0.00239338 
0.0153133 -0.0285941 0.00145241 -0.0240719 -0.0268296 0.00159376 0.0054016 -0.025334 0.00142818 
0.0347572 -0.0260666 0.00132566 0.00558373 -0.0242787 0.00147441 0.0102479 -0.024092 0.00146892 
0.0210005 -0.0239559 0.00169579 -0.038621 -0.0229432 0.00194621 -0.0291427 -0.0219343 0.00198701 
0.0262592 -0.0217201 0.00220529 0.0394323 -0.021923 0.00144978 -0.0210835 -0.0209207 0.0013397 
-0.0033641 -0.0204173 0.00146024 0.0204492 -0.0194639 0.00129752 0.0184681 -0.0172117 0.00150555 
0.0282033 -0.0178095 0.00203662 0.0252581 -0.0163235 0.00132401 -0.0420316 -0.0145538 0.00212233 
0.0323803 -0.0150629 0.00137694 -0.00710141 -0.0133745 0.00194304 0.00886689 -0.0141191 0.00167284 
0.0144468 -0.013247 0.00146537 -0.00528066 -0.0121118 0.00137596 0.0322358 -0.0130621 0.00127216 
0.0347312 -0.012978 0.00236096 0.0342493 -0.0115037 0.0024642 -0.0386256 -0.00983966 0.00171444 
-0.038829 -0.00978443 0.00175335 0.0334462 -0.00930086 0.0013028 -0.0211095 -0.00770044 0.00131416 
-0.0214415 -0.007536 0.00187807 -0.0150798 -0.00698339 0.00161164 -0.0253129 -0.0039775 0.00133692 
0.0200271 -0.00425623 0.00146932 -0.0107529 -0.00365687 0.00139202 -0.00941413 -0.00330341 0.00137723 
-0.0395569 -0.00227866 0.00136299 -0.0198668 -0.00211416 0.00131915 -0.0356048 -0.000104637 0.00236707 
-0.0153419 -0.00108619 0.00148652 0.00127443 -0.000618905 0.00233972 0.0420414 -0.00101026 0.00145387 
-0.0332593 0.000859011 0.00137589 -0.00229178 0.0020129 0.00137561 0.0116524 0.00206193 0.00130655 
-0.0233311 0.00384073 0.0014098 0.00265626 0.00371614 0.00241305 0.0183943 0.00266245 0.00137607 
-0.027449 0.00511055 0.00200432 -0.01547 0.00642247 0.0020244 -0.00552594 0.00555795 0.00225308 
0.0133448 0.00646544 0.00245925 -0.0429246 0.00657681 0.00134442 -0.019893 0.00878872 0.00131061 
-0.0105861 0.00898083 0.0014482 -0.0408306 0.00999374 0.00130563 -0.0408092 0.00981999 0.00135962 
-0.0349081 0.00917553 0.00134334 0.0379188 0.0120326 0.00240337 -0.00841171 0.0143034 0.0014606 
0.0396593 0.013993 0.00129666 -0.0287818 0.014969 0.00164239 -0.0231109 0.0157017 0.00134675 
-0.0286532 0.0159811 0.00177659 -0.0161548 0.0159009 0.00167498 -0.00317984 0.0164631 0.00189952 
-0.0436896 0.0195853 0.00247823 0.00976854 0.0197772 0.00130851 -0.0287332 0.0215601 0.00135801 
-0.0324762 0.0230005 0.00133682 -0.0148746 0.0223253 0.00132345 0.00126512 0.0228658 0.00139803 
0.00264144 0.0247174 0.00130559 -0.0214233 0.0285543 0.00205421 -0.0152062 0.0294088 0.00226677 
0.0104707 0.0313218 0.00233033 0.0193546 0.0324404 0.00131561 0.0337272 0.0324898 0.00132177 
-0.0425374 0.0333781 0.00130453 -0.0197415 0.0344175 0.00254412 -0.00472634 0.0344449 0.00140372 
0.0164577 0.0353116 0.00202835 0.0278529 0.0342296 0.00141032 -0.00585061 0.0388609 0.00133236 
-0.039126 0.0399637 0.0016811 0.00201585 0.0404036 0.00129487 -0.0437633 0.0406561 0.00187848 
0.0170579 0.0421878 0.00174258 0.00528787 0.0432844 0.00145475 -0.0440308 0.0448256 0.00253211 
-0.0390775 0.0447256 0.00138337 -0.0385899 -0.0405251 0.00295938 -0.0234086 -0.038644 0.00297391 
-0.00682403 -0.0314098 0.00379478 0.0412685 -0.0295104 0.0030647 0.0156293 -0.0283842 0.00280783 
-0.0432264 -0.0264101 0.00265554 -0.0419519 -0.0259749 0.00271133 -0.0336946 -0.0248459 0.00308587 
-0.0328109 -0.0226975 0.00305599 -0.0139777 -0.0223984 0.00330326 -0.0329608 -0.0218045 0.00284077 
0.0218308 -0.0192565 0.00385785 -0.0183202 -0.0175475 0.00269632 0.0414834 -0.0181367 0.00278952 
-0.0393221 -0.0167834 0.00351275 0.0302919 -0.0148257 0.00290033 0.0323804 -0.0132471 0.00335764 
-0.0207563 -0.0111167 0.00358483 0.0223025 -0.0112244 0.00350025 -0.0449336 -0.00957357 0.00361459 
-0.0326334 -0.00963456 0.00293952 0.0218314 -0.00971151 0.00268171 0.0242571 -0.0100823 0.00317306 
-0.024842 -0.00884532 0.00282557 -0.0101373 -0.00698039 0.00257868 -0.00720807 -0.00608605 0.00280201 
-0.00474481 -0.00600267 0.00285553 0.0386193 -0.00496685 0.00386267 0.0414788 -0.00521487 0.00312673 
0.0448793 -0.00396119 0.00353982 0.0154702 -0.00154679 0.00353184 -0.0131355 0.00164571 0.00290285 
-0.0137512 0.00384646 0.00292868 0.0277548 0.0042931 0.00341774 0.0320014 0.00756294 0.00317076 
0.023953 0.00820576 0.00311784 -0.0371624 0.011326 0.00319362 0.00418285 0.0112423 0.00315957 
0.012585 0.0155082 0.00362492 0.0153641 0.0146287 0.00302004 0.00976298 0.0163696 0.00258382 
-0.0245993 0.0193658 0.0027866 0.0323341 0.0191974 0.00270838 -0.0144089 0.0201081 0.0029189 
0.00153271 0.0201988 0.00354222 -0.0138035 0.0240512 0.0027135 -0.0269229 0.0267788 0.00272069 
-0.0296003 0.0277025 0.00349966 -0.0368667 0.0306348 0.00282845 -0.032208 0.0306075 0.00306022 
0.0354139 0.0312817 0.00329461 -0.0359241 0.0337864 0.00317734 -0.0422696 0.0340949 0.00296521 
0.0132394 0.0345575 0.00324962 0.0439232 0.0371117 0.00338831 -0.0379532 0.0399341 0.00309132 
0.00308146 0.0401468 0.00271321 -0.0281804 0.0418824 0.00309843 -0.00785852 0.041878 0.00316002 
0.0430506 0.0422314 0.0031863 0.00513794 0.0433856 0.00318961 -0.0190394 0.0446837 0.00328606 
0.0147823 -0.0446949 0.0039028 -0.0225361 -0.0441701 0.0043948 -0.00521279 -0.0413279 0.00456363 
0.0127657 -0.00746761 0.00440032 -0.0442311 0.00821601 0.00451346 -0.014478 0.0275162 0.0040263 
-0.0260391 0.0304395 0.00442282 0.0289145 -0.0340196 0.00605555 0.0272875 -0.0186725 0.00536149 
0.0352883 -0.0103067 0.00575697 0.039455 -0.000236508 0.00586699 0.00347554 0.00338662 0.00575618 
-0.0081225 0.0151775 0.00601612 -0.0122189 0.0175978 0.00570218 0.0433204 -0.0141837 0.00695918 
0.00357123 -0.00830953 0.00660478 -0.0256005 0.0215871 0.00724842 0.0282359 -0.00877456 0.00772618 
0.00635633 0.000852437 0.00879585 -0.00757157 0.00454821 0.00888586 0.0131273 0.040817 0.00791393 
0.0188903 -0.0308528 0.0106977 -0.0207679 -0.0256315 0.0112151 0.00643655 -0.000956063 0.0119735 
-0.00254916 -0.00379952 0.0134499 -0.0170112 0.0231088 0.0143405 0.00741479 -0.0295782 0.0176513 

VERTICES 649 648
OFFSETS vtktypeint64
0 1 2 3 4 5 6 7 8 
9 10 11 12 13 14 15 16 17 
18 19 20 21 22 23 24 25 26 
27 28 29 30 31 32 33 34 35 
36 37 38 39 40 41 42 43 44 
45 46 47 48 49 50 51 52 53 
54 55 56 57 58 59 60 61 62 
63 64 65 66 67 68 69 70 71 
72 73 74 75 76 77 78 79 80 
81 82 83 84 85 86 87 88 89 
90 91 92 93 94 95 96 97 98 
99 100 101 102 103 104 105 106 107 
108 109 110 111 112 113 114 115 116 
117 118 119 120 121 122 123 124 125 
126 127 128 129 130 131 132 133 134 
135 136 137 138 139 140 141 142 143 
144 145 146 147 148 149 150 151 152 
153 154 155 156 157 158 159 160 161 
162 163 164 165 166 167 168 169 170 
171 172 173 174 175 176 177 178 179 
180 181 182 183 184 185 186 187 188 
189 190 191 192 193 194 195 196 197 
198 199 200 201 202 203 204 205 206 
207 208 209 210 211 212 213 214 215 
216 217 218 219 220 221 222 223 224 
225 226 227 228 229 230 231 232 233 
234 235 236 237 238 239 240 241 242 
243 244 245 246 247 248 249 250 251 
252 253 254 255 256 257 258 259 260 
261 262 263 264 265 266 267 268 269 
270 271 272 273 274 275 276 277 278 
279 280 281 282 283 284 285 286 287 
288 289 290 291 292 293 294 295 296 
297 298 299 300 301 302 303 304 305 
306 307 308 309 310 311 312 313 314 
315 316 317 318 319 320 321 322 323 
324 325 326 327 328 329 330 331 332 
333 334 335 336 337 338 339 340 341 
342 343 344 345 346 347 348 349 350 
351 352 353 354 355 356 357 358 359 
360 361 362 363 364 365 366 367 368 
369 370 371 372 373 374 375 376 377 
378 379 380 381 382 383 384 385 386 
387 388 389 390 391 392 393 394 395 
396 397 398 399 400 401 402 403 404 
405 406 407 408 409 410 411 412 413 
414 415 416 417 418 419 420 421 422 
423 424 425 426 427 428 429 430 431 
432 433 434 435 436 437 438 439 440 
441 442 443 444 445 446 447 448 449 
450 451 452 453 454 455 456 457 458 
459 460 461 462 463 464 465 466 467 
468 469 470 471 472 473 474 475 476 
477 478 479 480 481 482 483 484 485 
486 487 488 489 490 491 492 493 494 
495 496 497 498 499 500 501 502 503 
504 505 506 507 508 509 510 511 512 
513 514 515 516 517 518 519 520 521 
522 523 524 525 526 527 528 529 530 
531 532 533 534 535 536 537 538 539 
540 541 542 543 544 545 546 547 548 
549 550 551 552 553 554 555 556 557 
558 559 560 561 562 563 564 565 566 
567 568 569 570 571 572 573 574 575 
576 577 578 579 580 581 582 583 584 
585 586 587 588 589 590 591 592 593 
594 595 596 597 598 599 600 601 602 
603 604 605 606 607 608 609 610 611 
612 613 614 615 616 617 618 619 620 
621 622 623 624 625 626 627 628 629 
630 631 632 633 634 635 636 637 638 
639 640 641 642 643 644 645 646 647 
648 
CONNECTIVITY vtktypeint64
0 1 2 3 4 5 6 7 8 
9 10 11 12 13 14 15 16 17 
18 19 20 21 22 23 24 25 26 
27 28 29 30 31 32 33 34 35 
36 37 38 39 40 41 42 43 44 
45 46 47 48 49 50 51 52 53 
54 55 56 57 58 59 60 61 62 
63 64 65 66 67 68 69 70 71 
72 73 74 75 76 77 78 79 80 
81 82 83 84 85 86 87 88 89 
90 91 92 93 94 95 96 97 98 
99 100 101 102 103 104 105 106 107 
108 109 110 111 112 113 114 115 116 
117 118 119 120 121 122 123 124 125 
126 127 128 129 130 131 132 133 134 
135 136 137 138 139 140 141 142 143 
144 145 146 147 148 149 150 151 152 
153 154 155 156 157 158 159 160 161 
162 163 164 165 166 167 168 169 170 
171 172 173 174 175 176 177 178 179 
180 181 182 183 184 185 186 187 188 
189 190 191 192 193 194 195 196 197 
198 199 200 201 202 203 204 205 206 
207 208 209 210 211 212 213 214 215 
216 217 218 219 220 221 222 223 224 
225 226 227 228 229 230 231 232 233 
234 235 236 237 238 239 240 241 242 
243 244 245 246 247 248 249 250 251 
252 253 254 255 256 257 258 259 260 
261 262 263 264 265 266 267 268 269 
270 271 272 273 274 275 276 277 278 
279 280 281 282 283 284 285 286 287 
288 289 290 291 292 293 294 295 296 
297 298 299 300 301 302 303 304 305 
306 307 308 309 310 311 312 313 314 
315 316 317 318 319 320 321 322 323 
324 325 326 327 328 329 330 331 332 
333 334 335 336 337 338 339 340 341 
342 343 344 345 346 347 348 349 350 
351 352 353 354 355 356 357 358 359 
360 361 362 363 364 365 366 367 368 
369 370 371 372 373 374 375 376 377 
378 379 380 381 382 383 384 385 386 
387 388 389 390 391 392 393 394 395 
396 397 398 399 400 401 402 403 404 
405 406 407 408 409 410 411 412 413 
414 415 416 417 418 419 420 421 422 
423 424 425 426 427 428 429 430 431 
432 433 434 435 436 437 438 439 440 
441 442 443 444 445 446 447 448 449 
450 451 452 453 454 455 456 457 458 
459 460 461 462 463 464 465 466 467 
468 469 470 471 472 473 474 475 476 
477 478 479 480 481 482 483 484 485 
486 487 488 489 490 491 492 493 494 
495 496 497 498 499 500 501 502 503 
504 505 506 507 508 509 510 511 512 
513 514 515 516 517 518 519 520 521 
522 523 524 525 526 527 528 529 530 
531 532 533 534 535 536 537 538 539 
540 541 542 543 544 545 546 547 548 
549 550 551 552 553 554 555 556 557 
558 559 560 561 562 563 564 565 566 
567 568 569 570 571 572 573 574 575 
576 577 578 579 580 581 582 583 584 
585 586 587 588 589 590 591 592 593 
594 595 596 597 598 599 600 601 602 
603 604 605 606 607 608 609 610 611 
612 613 614 615 616 617 618 619 620 
621 622 623 624 625 626 627 628 629 
630 631 632 633 634 635 636 637 638 
639 640 641 642 643 644 645 646 647 

POINT_DATA 648
FIELD FieldData 12
id 1 648 int
164 275 242 98 534 463 366 200 188 
84 346 93 31 113 414 390 140 218 
471 562 457 591 429 577 207 271 134 
549 256 87 35 99 314 326 508 312 
210 34 92 459 359 411 115 102 356 
122 22 487 82 226 159 24 436 518 
388 367 489 319 88 69 605 229 156 
571 51 347 589 477 303 404 570 505 
543 333 304 185 107 352 137 393 295 
139 103 294 533 502 354 96 331 445 
128 409 291 645 183 415 604 121 190 
267 335 493 116 484 71 282 526 416 
449 192 323 329 576 64 160 167 472 
237 317 174 28 470 479 177 154 440 
44 238 274 439 298 247 289 355 496 
572 73 176 462 444 422 170 143 374 
381 376 168 240 290 194 58 500 306 
276 612 59 215 211 380 146 8 349 
106 340 292 638 23 227 248 264 231 
428 127 427 483 157 293 311 95 324 
260 53 563 399 72 32 6 42 336 
580 278 615 368 383 243 377 299 567 
370 515 11 252 125 263 57 385 257 
20 592 360 151 135 371 204 542 205 
132 66 564 265 341 75 83 465 196 
36 175 90 186 77 538 61 334 519 
244 86 56 593 379 418 458 216 141 
503 501 495 407 478 486 456 546 396 
467 353 474 454 126 153 450 425 213 
426 528 423 424 112 129 145 165 261 
197 288 338 497 255 214 420 296 480 
601 442 221 432 373 345 181 262 60 
273 401 378 21 446 384 297 169 119 
322 46 633 41 150 491 310 395 236 
63 178 202 469 308 358 315 220 193 
40 433 184 587 339 54 118 392 485 
110 417 443 364 447 117 161 357 521 
149 166 281 33 49 431 337 18 529 
279 287 330 254 104 219 191 109 14 
12 78 507 189 206 100 131 162 9 
195 163 408 498 266 30 535 280 199 
461 410 509 179 524 451 504 321 114 
506 488 419 187 343 201 158 81 332 
268 26 327 583 253 222 148 29 481 
94 466 348 270 225 579 235 85 313 
251 233 309 624 452 232 286 437 182 
482 362 198 320 559 413 246 328 536 
76 318 155 435 386 361 412 62 372 
91 108 406 375 302 397 475 272 351 
614 55 438 89 258 635 203 68 52 
597 136 626 67 492 344 402 584 47 
350 616 239 307 5 525 250 283 629 
147 13 532 430 79 223 234 37 547 
573 111 403 25 448 551 517 553 590 
74 490 441 460 43 566 259 628 544 
16 38 511 10 522 285 105 171 142 
382 405 568 217 365 80 389 565 208 
212 598 305 284 245 545 512 301 124 
144 453 4 400 620 17 363 48 70 
228 468 473 152 514 138 130 325 394 
520 209 540 611 65 180 455 600 387 
552 421 45 523 123 575 434 342 639 
476 648 173 398 548 120 527 574 581 
541 513 578 558 539 603 618 537 530 
585 599 554 617 101 1 569 39 224 
557 133 647 50 610 499 300 613 556 
510 595 464 560 622 15 582 607 625 
561 97 637 609 594 596 623 494 550 
391 531 249 643 555 277 19 586 172 
241 230 632 27 316 369 269 634 516 
3 2 641 619 7 644 608 646 602 
630 631 606 636 627 621 642 588 640 

type 1 648 int
1 1 1 1 1 1 1 1 1 
1 1 1 1 1 1 1 1 1 
1 1 1 1 1 1 1 1 1 
1 1 1 1 1 1 1 1 1 
1 1 1 1 1 1 1 1 1 
1 1 1 1 1 1 1 1 1 
1 1 1 1 1 1 1 1 1 
1 1 1 1 1 1 1 1 1 
1 1 1 1 1 1 1 1 1 
1 1 1 1 1 1 1 1 1 
1 1 1 1 1 1 1 1 1 
1 1 1 1 1 1 1 1 1 
1 1 1 1 1 1 1 1 1 
1 1 1 1 1 1 1 1 1 
1 1 1 1 1 1 1 1 1 
1 1 1 1 1 1 1 1 1 
1 1 1 1 1 1 1 1 1 
1 1 1 1 1 1 1 2 1 
1 1 1 1 1 1 1 1 1 
1 1 1 1 1 1 1 1 1 
1 1 1 1 1 1 2 1 1 
1 1 1 1 1 1 1 1 1 
1 1 2 1 1 1 1 1 1 
1 1 1 1 1 1 1 1 1 
1 1 1 1 1 1 1 1 1 
1 1 1 1 1 1 1 1 1 
1 1 1 1 1 1 1 1 1 
1 1 1 1 1 1 1 1 1 
1 1 1 1 1 1 1 1 1 
1 1 1 1 1 1 1 1 1 
1 1 1 1 1 1 1 1 1 
1 1 1 1 1 1 1 1 1 
1 1 1 1 1 1 1 1 1 
1 1 1 1 1 1 1 1 1 
1 1 1 1 1 1 1 1 1 
1 1 1 1 1 1 1 1 1 
1 1 1 1 1 1 1 1 1 
1 1 1 1 1 1 1 1 1 
1 1 1 1 1 1 1 1 2 
2 1 1 1 1 1 1 1 2 
1 1 1 1 1 1 1 1 1 
1 1 1 1 1 1 1 1 1 
1 1 1 1 1 1 1 1 1 
1 1 1 1 1 1 1 1 1 
1 1 1 1 1 1 1 1 1 
1 1 1 1 1 1 1 1 1 
1 1 1 1 1 1 1 1 1 
1 1 1 1 1 1 1 1 1 
1 1 1 1 1 1 1 1 1 
1 1 1 1 1 1 1 1 1 
1 1 1 1 1 1 1 1 1 
1 1 1 1 2 1 1 1 1 
1 2 1 1 1 1 1 1 1 
1 1 1 1 1 1 1 1 1 
1 1 1 1 1 1 1 1 1 
2 1 1 2 1 1 1 1 1 
1 1 1 1 1 1 1 1 1 
1 1 1 1 1 1 2 1 1 
1 1 2 1 1 1 1 1 1 
1 1 1 1 1 1 1 1 1 
1 1 1 1 1 1 1 1 1 
1 1 1 1 1 1 1 1 1 
1 1 1 1 1 1 1 1 1 
1 1 1 1 1 1 1 1 1 
1 1 1 1 1 4 1 1 1 
1 1 1 1 1 1 1 1 1 
1 1 1 1 1 2 1 1 1 
1 1 1 1 1 1 1 1 1 
1 1 1 1 1 1 1 1 1 
1 1 1 1 1 1 1 2 2 
2 3 1 1 2 1 1 1 1 
1 1 1 1 1 1 1 1 1 

i 3 648 int
0 0 0 0 0 0 0 0 0 
0 0 0 0 0 0 0 0 0 
0 0 0 0 0 0 0 0 0 
0 0 0 0 0 0 0 0 0 
0 0 0 0 0 0 0 0 0 
0 0 0 0 0 0 0 0 0 
0 0 0 0 0 0 0 0 0 
0 0 0 0 0 0 0 0 0 
0 0 0 0 0 0 0 0 0 
0 0 0 0 0 0 0 0 0 
0 0 0 0 0 0 0 0 0 
0 0 0 0 0 0 0 0 0 
0 0 0 0 0 0 0 0 0 
0 0 0 0 0 0 0 0 0 
0 0 0 0 0 0 0 0 0 
0 0 0 0 0 0 0 0 0 
0 0 0 0 0 0 0 0 0 
0 0 0 0 0 0 0 0 0 
0 0 0 0 0 0 0 0 0 
0 0 0 0 0 0 0 0 0 
0 0 0 0 0 0 0 0 0 
0 0 0 0 0 0 0 0 0 
0 0 0 0 0 0 0 0 0 
0 0 0 0 0 0 0 0 0 
0 0 0 0 0 0 0 0 0 
0 0 0 0 0 0 0 0 0 
0 0 0 0 0 0 0 0 0 
0 0 0 0 0 0 0 0 0 
0 0 0 0 0 0 0 0 0 
0 0 0 0 0 0 0 0 0 
0 0 0 0 0 0 0 0 0 
0 0 0 0 0 0 0 0 0 
0 0 0 0 0 0 0 0 0 
0 0 0 0 0 0 0 0 0 
0 0 0 0 0 0 0 0 0 
0 0 0 0 0 0 0 0 0 
0 0 0 0 0 0 0 0 0 
0 0 0 0 0 0 0 0 0 
0 0 0 0 0 0 0 0 0 
0 0 0 0 0 0 0 0 0 
0 0 0 0 0 0 0 0 0 
0 0 0 0 0 0 0 0 0 
0 0 0 0 0 0 0 0 0 
0 0 0 0 0 0 0 0 0 
0 0 0 0 0 0 0 0 0 
0 0 0 0 0 0 0 0 0 
0 0 0 0 0 0 0 0 0 
0 0 0 0 0 0 0 0 0 
0 0 0 0 0 0 0 0 0 
0 0 0 0 0 0 0 0 0 
0 0 0 0 0 0 0 0 0 
0 0 0 0 0 0 0 0 0 
0 0 0 0 0 0 0 0 0 
0 0 0 0 0 0 0 0 0 
0 0 0 0 0 0 0 0 0 
0 0 0 0 0 0 0 0 0 
0 0 0 0 0 0 0 0 0 
0 0 0 0 0 0 0 0 0 
0 0 0 0 0 0 0 0 0 
0 0 0 0 0 0 0 0 0 
0 0 0 0 0 0 0 0 0 
0 0 0 0 0 0 0 0 0 
0 0 0 0 0 0 0 0 0 
0 0 0 0 0 0 0 0 0 
0 0 0 0 0 0 0 0 0 
0 0 0 0 0 0 0 0 0 
0 0 0 0 0 0 0 0 0 
0 0 0 0 0 0 0 0 0 
0 0 0 0 0 0 0 0 0 
0 0 0 0 0 0 0 0 0 
0 0 0 0 0 0 0 0 0 
0 0 0 0 0 0 0 0 0 
0 0 0 0 0 0 0 0 0 
0 0 0 0 0 0 0 0 0 
0 0 0 0 0 0 0 0 0 
0 0 0 0 0 0 0 0 0 
0 0 0 0 0 0 0 0 0 
0 0 0 0 0 0 0 0 0 
0 0 0 0 0 0 0 0 0 
0 0 0 0 0 0 0 0 0 
0 0 0 0 0 0 0 0 0 
0 0 0 0 0 0 0 0 0 
0 0 0 0 0 0 0 0 0 
0 0 0 0 0 0 0 0 0 
0 0 0 0 0 0 0 0 0 
0 0 0 0 0 0 0 0 0 
0 0 0 0 0 0 0 0 0 
0 0 0 0 0 0 0 0 0 
0 0 0 0 0 0 0 0 0 
0 0 0 0 0 0 0 0 0 
0 0 0 0 0 0 0 0 0 
0 0 0 0 0 0 0 0 0 
0 0 0 0 0 0 0 0 0 
0 0 0 0 0 0 0 0 0 
0 0 0 0 0 0 0 0 0 
0 0 0 0 0 0 0 0 0 
0 0 0 0 0 0 0 0 0 
0 0 0 0 0 0 0 0 0 
0 0 0 0 0 0 0 0 0 
0 0 0 0 0 0 0 0 0 
0 0 0 0 0 0 0 0 0 
0 0 0 0 0 0 0 0 0 
0 0 0 0 0 0 0 0 0 
0 0 0 0 0 0 0 0 0 
0 0 0 0 0 0 0 0 0 
0 0 0 0 0 0 0 0 0 
0 0 0 0 0 0 0 0 0 
0 0 0 0 0 0 0 0 0 
0 0 0 0 0 0 0 0 0 
0 0 0 0 0 0 0 0 0 
0 0 0 0 0 0 0 0 0 
0 0 0 0 0 0 0 0 0 
0 0 0 0 0 0 0 0 0 
0 0 0 0 0 0 0 0 0 
0 0 0 0 0 0 0 0 0 
0 0 0 0 0 0 0 0 0 
0 0 0 0 0 0 0 0 0 
0 0 0 0 0 0 0 0 0 
0 0 0 0 0 0 0 0 0 
0 0 0 0 0 0 0 0 0 
0 0 0 0 0 0 0 0 0 
0 0 0 0 0 0 0 0 0 
0 0 0 0 0 0 0 0 0 
0 0 0 0 0 0 0 0 0 
0 0 0 0 0 0 0 0 0 
0 0 0 0 0 0 0 0 0 
0 0 0 0 0 0 0 0 0 
0 0 0 0 0 0 0 0 0 
0 0 0 0 0 0 0 0 0 
0 0 0 0 0 0 0 0 0 
0 0 0 0 0 0 0 0 0 
0 0 0 0 0 0 0 0 0 
0 0 0 0 0 0 0 0 0 
0 0 0 0 0 0 0 0 0 
0 0 0 0 0 0 0 0 0 
0 0 0 0 0 0 0 0 0 
0 0 0 0 0 0 0 0 0 
0 0 0 0 0 0 0 0 0 
0 0 0 0 0 0 0 0 0 
0 0 0 0 0 0 0 0 0 
0 0 0 0 0 0 0 0 0 
0 0 0 0 0 0 0 0 0 
0 0 0 0 0 0 0 0 0 
0 0 0 0 0 0 0 0 0 
0 0 0 0 0 0 0 0 0 
0 0 0 0 0 0 0 0 0 
0 0 0 0 0 0 0 0 0 
0 0 0 0 0 0 0 0 0 
0 0 0 0 0 0 0 0 0 
0 0 0 0 0 0 0 0 0 
0 0 0 0 0 0 0 0 0 
0 0 0 0 0 0 0 0 0 
0 0 0 0 0 0 0 0 0 
0 0 0 0 0 0 0 0 0 
0 0 0 0 0 0 0 0 0 
0 0 0 0 0 0 0 0 0 
0 0 0 0 0 0 0 0 0 
0 0 0 0 0 0 0 0 0 
0 0 0 0 0 0 0 0 0 
0 0 0 0 0 0 0 0 0 
0 0 0 0 0 0 0 0 0 
0 0 0 0 0 0 0 0 0 
0 0 0 0 0 0 0 0 0 
0 0 0 0 0 0 0 0 0 
0 0 0 0 0 0 0 0 0 
0 0 0 0 0 0 0 0 0 
0 0 0 0 0 0 0 0 0 
0 0 0 0 0 0 0 0 0 
0 0 0 0 0 0 0 0 0 
0 0 0 0 0 0 0 0 0 
0 0 0 0 0 0 0 0 0 
0 0 0 0 0 0 0 0 0 
0 0 0 0 0 0 0 0 0 
0 0 0 0 0 0 0 0 0 
0 0 0 0 0 0 0 0 0 
0 0 0 0 0 0 0 0 0 
0 0 0 0 0 0 0 0 0 
0 0 0 0 0 0 0 0 0 
0 0 0 0 0 0 0 0 0 
0 0 0 0 0 0 0 0 0 
0 0 0 0 0 0 0 0 0 
0 0 0 0 0 0 0 0 0 
0 0 0 0 0 0 0 0 0 
0 0 0 0 0 0 0 0 0 
0 0 0 0 0 0 0 0 0 
0 0 0 0 0 0 0 0 0 
0 0 0 0 0 0 0 0 0 
0 0 0 0 0 0 0 0 0 
0 0 0 0 0 0 0 0 0 
0 0 0 0 0 0 0 0 0 
0 0 0 0 0 0 0 0 0 
0 0 0 0 0 0 0 0 0 
0 0 0 0 0 0 0 0 0 
0 0 0 0 0 0 0 0 0 
0 0 0 0 0 0 0 0 0 
0 0 0 0 0 0 0 0 0 
0 0 0 0 0 0 0 0 0 
0 0 0 0 0 0 0 0 0 
0 0 0 0 0 0 0 0 0 
0 0 0 0 0 0 0 0 0 
0 0 0 0 0 0 0 0 0 
0 0 0 0 0 0 0 0 0 
0 0 0 0 0 0 0 0 0 
0 0 0 0 0 0 0 0 0 
0 0 0 0 0 0 0 0 0 
0 0 0 0 0 0 0 0 0 
0 0 0 0 0 0 0 0 0 
0 0 0 0 0 0 0 0 0 
0 0 0 0 0 0 0 0 0 
0 0 0 0 0 0 0 0 0 
0 0 0 0 0 0 0 0 0 
0 0 0 0 0 0 0 0 0 
0 0 0 0 0 0 0 0 0 
0 0 0 0 0 0 0 0 0 
0 0 0 0 0 0 0 0 0 
0 0 0 0 0 0 0 0 0 

v 3 648 double
0 0 3.2413285931e-14 0 0 3.2413289883e-14 0 0 -0.082311781733 
0 0 -1.5605880046e-14 0 0 -0.083228013527 0 0 3.2413285929e-14 
0 0 8.0432447451e-14 0 0 3.2413290076e-14 0 0 3.2413289856e-14 
0 0 3.2413289922e-14 0 0 8.0432447445e-14 0 0 -0.018011078737 
0 0 8.0432447453e-14 0 0 8.0432447407e-14 0 0 -0.012680548278 
0 0 8.0432447423e-14 0 0 8.0432443483e-14 0 0 8.0432443462e-14 
0 0 0.024422456686 0 0 8.0432443484e-14 0 0 8.0432443502e-14 
0 0 -0.00081061750297 0 0 6.5216767754e-05 0 0 -0.010307033931 
0 0 -1.5605880166e-14 0 0 -0.011290230408 0 0 8.0432447366e-14 
0 0 -0.01127720064 0 0 8.0432443586e-14 0 0 -1.5605880071e-14 
0 0 8.0432443653e-14 0 0 8.0432443501e-14 0 0 8.0432447523e-14 
0 0 8.0432443558e-14 0 0 3.241328596e-14 0 0 0.023417970972 
0 0 -0.095459898595 0 0 8.0432443647e-14 0 0 3.2413286072e-14 
0 0 3.2413289944e-14 0 0 0.030647192058 0 0 3.2413289992e-14 
0 0 3.2413286006e-14 0 0 -0.022144171859 0 0 -1.5605879955e-14 
0 0 8.0432447447e-14 0 0 -1.5605879966e-14 0 0 -0.0040941157775 
0 0 3.241328992e-14 0 0 3.2413290075e-14 0 0 0.0096283939034 
0 0 3.2413286102e-14 0 0 -0.0044384419328 0 0 0.023092055554 
0 0 0.037747787646 0 0 8.0432447578e-14 0 0 0.0010963482672 
0 0 -1.560588001e-14 0 0 8.0432443439e-14 0 0 0.0083896526547 
0 0 -1.560588394e-14 0 0 -6.3625041662e-14 0 0 -0.027669310004 
0 0 8.043244362e-14 0 0 8.0432447536e-14 0 0 3.241329003e-14 
0 0 -0.001493956456 0 0 3.241329004e-14 0 0 3.2413289948e-14 
0 0 3.2413290061e-14 0 0 2.0482622534e-14 0 0 8.0432447391e-14 
0 0 8.0432443566e-14 0 0 -0.00088658004561 0 0 3.2413289938e-14 
0 0 8.0432447378e-14 0 0 8.0432447469e-14 0 0 3.2413289892e-14 
0 0 8.0432443568e-14 0 0 -0.018450404673 0 0 0.0075565179792 
0 0 -1.5605880029e-14 0 0 -0.017424385999 0 0 3.2413290012e-14 
0 0 0.018355459772 0 0 0.011609851293 0 0 -0.013231503433 
0 0 0.010339149792 0 0 8.0432443464e-14 0 0 8.043244351e-14 
0 0 3.2413286112e-14 0 0 3.2413290006e-14 0 0 3.2413289856e-14 
0 0 3.241328614e-14 0 0 -0.00073629549769 0 0 -6.3625037691e-14 
0 0 0.003751507683 0 0 8.0432443435e-14 0 0 3.2413289933e-14 
0 0 3.2413285961e-14 0 0 0.034776755207 0 0 0.012352397884 
0 0 0.0099478284288 0 0 0.0010890055686 0 0 8.0432447527e-14 
0 0 8.0432447432e-14 0 0 0.0089548232044 0 0 0.00035871223973 
0 0 3.2413289981e-14 0 0 0.0020210938642 0 0 0.012207567229 
0 0 -0.024937813056 0 0 -0.0023643880473 0 0 3.241328999e-14 
0 0 -0.033310509647 0 0 3.2413289859e-14 0 0 8.043244354e-14 
0 0 -1.5605880089e-14 0 0 8.0432447426e-14 0 0 3.2413289861e-14 
0 0 0.0051233083068 0 0 8.0432443599e-14 0 0 -1.5605879998e-14 
0 0 -0.091687026299 0 0 8.0432443456e-14 0 0 -1.5605880009e-14 
0 0 0.025737105506 0 0 3.2413289963e-14 0 0 -0.003103394273 
0 0 8.0432443441e-14 0 0 -1.5605880132e-14 0 0 3.2413290005e-14 
0 0 -1.5605879989e-14 0 0 3.2413286097e-14 0 0 3.2413289993e-14 
0 0 3.2413286103e-14 0 0 3.2413289869e-14 0 0 8.0432447375e-14 
0 0 -0.028876526823 0 0 8.0432443553e-14 0 0 -0.08398896641 
0 0 0.0027317908506 0 0 0.00067706357503 0 0 8.0432443617e-14 
0 0 3.2413289871e-14 0 0 0.024106249418 0 0 8.0432447444e-14 
0 0 8.0432447374e-14 0 0 -6.3625037551e-14 0 0 8.0432443571e-14 
0 0 3.241328991e-14 0 0 -6.3625037546e-14 0 0 0.0046030645471 
0 0 0.024231843292 0 0 3.2413286155e-14 0 0 -0.0011456225896 
0 0 -1.5605880133e-14 0 0 -0.00081306291407 0 0 8.0432443478e-14 
0 0 -0.026545104207 0 0 0.011853044464 0 0 8.0432443486e-14 
0 0 3.2413290023e-14 0 0 -0.092856048165 0 0 8.043244346e-14 
0 0 0.016338263586 0 0 0.010578718071 0 0 8.0432443472e-14 
0 0 3.2413289933e-14 0 0 -0.021189795485 0 0 3.2413289993e-14 
0 0 8.0432447411e-14 0 0 3.241328986e-14 0 0 8.0432447466e-14 
0 0 -1.5605879967e-14 0 0 8.0432443515e-14 0 0 8.0432443474e-14 
0 0 -0.0057781509462 0 0 -0.0046819774836 0 0 3.2413290061e-14 
0 0 8.0432447569e-14 0 0 0.0018947723094 0 0 -0.018889415204 
0 0 -6.3625037717e-14 0 0 8.0432443602e-14 0 0 0.0012667632508 
0 0 8.4050544615e-14 0 0 -1.5605880012e-14 0 0 -1.5605880027e-14 
0 0 0.0098573248469 0 0 8.0432494665e-14 0 0 -1.5605883972e-14 
0 0 8.0432443515e-14 0 0 3.2413285982e-14 0 0 8.043244364e-14 
0 0 0.00020825210914 0 0 8.043244362e-14 0 0 8.0432447427e-14 
0 0 8.0432447573e-14 0 0 8.0432443539e-14 0 0 0.00024856329272 
0 0 -0.021300548865 0 0 3.2413289846e-14 0 0 -1.5605880018e-14 
0 0 8.0432443644e-14 0 0 -1.5605880028e-14 0 0 -6.3625037734e-14 
0 0 0.00028874324802 0 0 -0.0022554429919 0 0 8.0432443608e-14 
0 0 8.0432447469e-14 0 0 8.0432443463e-14 0 0 0.0040151459784 
0 0 -1.5605880097e-14 0 0 8.0432443597e-14 0 0 -0.018697288258 
0 0 3.2413286008e-14 0 0 3.2413289914e-14 0 0 -0.00083882816763 
0 0 -0.020225562293 0 0 3.2413290042e-14 0 0 -0.0018291138685 
0 0 8.0432447404e-14 0 0 -1.560588404e-14 0 0 -0.0085587704757 
0 0 8.0432443503e-14 0 0 3.24132899e-14 0 0 3.2413290015e-14 
0 0 3.2413289968e-14 0 0 -0.095496456172 0 0 8.0432443482e-14 
0 0 0.0058065855231 0 0 8.0432443528e-14 0 0 0.021039027074 
0 0 -0.028368327559 0 0 -1.5605879994e-14 0 0 3.2413290066e-14 
0 0 -0.012120907973 0 0 -0.020249455901 0 0 8.0432443491e-14 
0 0 8.0432443537e-14 0 0 8.0432447581e-14 0 0 8.0432443641e-14 
0 0 -0.0031673993463 0 0 0.010249485642 0 0 3.2413290052e-14 
0 0 8.0432443498e-14 0 0 3.2413285952e-14 0 0 3.2413290046e-14 
0 0 8.0432443535e-14 0 0 8.0432447553e-14 0 0 8.0432443665e-14 
0 0 8.0432447559e-14 0 0 3.2413289844e-14 0 0 0.0094915182595 
0 0 8.0432447454e-14 0 0 -0.011892474966 0 0 0.027387778124 
0 0 8.0432447373e-14 0 0 0.037207035716 0 0 0.0085251026838 
0 0 3.2413289885e-14 0 0 -0.0040205490341 0 0 -1.5605880048e-14 
0 0 -6.3625037706e-14 0 0 8.0432447358e-14 0 0 3.2413285933e-14 
0 0 0.0043759152491 0 0 -1.5605880065e-14 0 0 8.0432443639e-14 
0 0 3.2413289894e-14 0 0 3.2413286133e-14 0 0 0.0020197684636 
0 0 3.241329006e-14 0 0 3.241328603e-14 0 0 3.2413286034e-14 
0 0 3.2413290022e-14 0 0 0.021396170434 0 0 -0.095522256799 
0 0 -1.5605884023e-14 0 0 0.034486323927 0 0 0.014052293925 
0 0 8.0432443489e-14 0 0 8.0432447365e-14 0 0 3.2413290005e-14 
0 0 8.0432443454e-14 0 0 -0.0019434699392 0 0 8.0432443515e-14 
0 0 8.0432443624e-14 0 0 8.0432443578e-14 0 0 -1.5605880142e-14 
0 0 3.2413289941e-14 0 0 -0.00012711722414 0 0 8.0432447533e-14 
0 0 8.0432443443e-14 0 0 3.2413285951e-14 0 0 -0.0016115398684 
0 0 3.2413290037e-14 0 0 8.0432443621e-14 0 0 -0.067363821419 
0 0 0.011164305531 0 0 8.0432447588e-14 0 0 8.043244739e-14 
0 0 8.0432443526e-14 0 0 -0.010473834073 0 0 8.0432447381e-14 
0 0 0.00062060348178 0 0 3.2413289923e-14 0 0 8.0432443646e-14 
0 0 8.0432447503e-14 0 0 -6.362503774e-14 0 0 -0.026304242519 
0 0 0.023647406011 0 0 -0.0087022058085 0 0 8.0432443436e-14 
0 0 8.0432447496e-14 0 0 8.043244366e-14 0 0 -0.011199031047 
0 0 -0.022981508707 0 0 8.0432443654e-14 0 0 8.0432447583e-14 
0 0 -0.0052079470986 0 0 8.0432443467e-14 0 0 0.025775614376 
0 0 8.0432443436e-14 0 0 3.2413290025e-14 0 0 8.0432443666e-14 
0 0 3.2413290061e-14 0 0 -1.5605880095e-14 0 0 8.0432447543e-14 
0 0 8.0432447472e-14 0 0 8.0432443564e-14 0 0 3.2413285938e-14 
0 0 8.0432447477e-14 0 0 -1.5605883967e-14 0 0 0.028364123711 
0 0 -0.0038287457237 0 0 8.043244349e-14 0 0 -0.032582036612 
0 0 -1.5605880059e-14 0 0 8.0432447524e-14 0 0 -0.0019060620148 
0 0 -0.00034432928918 0 0 -0.0047964995211 0 0 8.0432443459e-14 
0 0 3.2413289921e-14 0 0 -1.5605880135e-14 0 0 3.2413286037e-14 
0 0 -0.091732709776 0 0 8.0432447382e-14 0 0 -0.010116981979 
0 0 -0.0019859362094 0 0 0.021378508748 0 0 8.0432447499e-14 
0 0 -1.5605880188e-14 0 0 -0.0085900970749 0 0 3.2413289937e-14 
0 0 -0.081123075549 0 0 8.0432447571e-14 0 0 0.015979332128 
0 0 3.2413286009e-14 0 0 3.2413289873e-14 0 0 -6.3625037569e-14 
0 0 -0.0089355409068 0 0 -0.019458737872 0 0 -0.00048698770757 
0 0 -0.069298077804 0 0 3.241329005e-14 0 0 8.0432447478e-14 
0 0 8.0432447579e-14 0 0 8.0432443667e-14 0 0 0.00068199611968 
0 0 0.025151377142 0 0 0.026023676803 0 0 0.0030980182171 
0 0 8.0432443539e-14 0 0 3.2413290049e-14 0 0 0.0038011205641 
0 0 8.0432447534e-14 0 0 8.0432443664e-14 0 0 -0.0092068262698 
0 0 3.2413290066e-14 0 0 -6.3625037602e-14 0 0 3.2413285974e-14 
0 0 3.2413289863e-14 0 0 8.0432447491e-14 0 0 -0.094722620851 
0 0 -1.5605880153e-14 0 0 -1.5605880032e-14 0 0 8.0432447369e-14 
0 0 0.0047486654124 0 0 8.0432447474e-14 0 0 3.2413289972e-14 
0 0 8.0432447568e-14 0 0 -6.3625037731e-14 0 0 -0.023095759613 
0 0 3.2413289938e-14 0 0 0.038816305745 0 0 8.043244754e-14 
0 0 8.0432443508e-14 0 0 -0.030757064046 0 0 0.025114524652 
0 0 -0.0029829707358 0 0 3.2413285921e-14 0 0 8.0432447428e-14 
0 0 8.0432447538e-14 0 0 8.0432443667e-14 0 0 -0.022783678864 
0 0 0.072157467195 0 0 0.02665056155 0 0 3.2413289871e-14 
0 0 -0.02285482907 0 0 8.0432443615e-14 0 0 -0.00091902593268 
0 0 0.024689037804 0 0 3.2413289953e-14 0 0 -0.0056461465949 
0 0 8.0432443615e-14 0 0 3.2413286033e-14 0 0 -0.0010972939995 
0 0 8.0432447367e-14 0 0 3.2413285923e-14 0 0 -0.0096118442208 
0 0 -1.5605880156e-14 0 0 8.0432447546e-14 0 0 3.2413289965e-14 
0 0 8.0432447525e-14 0 0 8.04324474e-14 0 0 8.0432443473e-14 
0 0 8.0432443557e-14 0 0 8.0432443442e-14 0 0 3.241328594e-14 
0 0 -1.5605880037e-14 0 0 8.0432443544e-14 0 0 3.2413290002e-14 
0 0 8.0432443535e-14 0 0 -1.5605880127e-14 0 0 -0.0005477366073 
0 0 -0.0017771617919 0 0 -1.5605880188e-14 0 0 -1.560588017e-14 
0 0 0.019443224699 0 0 8.0432447378e-14 0 0 8.0432447416e-14 
0 0 -0.0073833792638 0 0 -0.092807485982 0 0 0.038691138493 
0 0 -0.0091241588563 0 0 0.0011377578592 0 0 -0.015227418483 
0 0 -0.053603098854 0 0 -0.089570922478 0 0 -0.044796799639 
0 0 -0.067233663987 0 0 -0.072647609321 0 0 -0.0041341348633 
0 0 -0.075784153289 0 0 0.057731438147 0 0 -0.078099454705 
0 0 0.0030358717444 0 0 -0.051977146253 0 0 0.0067936607832 
0 0 -0.0863364518 0 0 -0.015602097999 0 0 -0.051853548997 
0 0 -0.0086468699784 0 0 -0.071386912852 0 0 0.062608991796 
0 0 0.0067805200379 0 0 -0.026787051402 0 0 -0.071395775298 
0 0 0.0057910517343 0 0 -0.0046041900523 0 0 -0.011418288987 
0 0 -0.083384547627 0 0 -0.065181686363 0 0 -0.070768609379 
0 0 -0.045784214487 0 0 -0.012173054474 0 0 -0.0078183554287 
0 0 -0.0029191741125 0 0 -0.093868287123 0 0 -0.081229873471 
0 0 -0.059981392631 0 0 -0.0035466205653 0 0 0.075355282674 
0 0 -0.011017571078 0 0 -0.079159698488 0 0 -0.084398024825 
0 0 0.0049190137886 0 0 0.0084249288673 0 0 -0.083448174804 
0 0 -0.069931050306 0 0 -0.029179789393 0 0 0.087499609096 
0 0 -0.0092292802175 0 0 -0.013185484737 0 0 -0.014555088913 
0 0 -0.0062657649942 0 0 -0.084386225753 0 0 0.019379307717 
0 0 -0.00092799550109 0 0 0.0036769283302 0 0 -0.017535835411 
0 0 0.0079041768108 0 0 -0.016368601088 0 0 -0.24227240086 
0 0 0.00054453306847 0 0 -0.071682339497 0 0 -0.088344580763 
0 0 -0.07903667961 0 0 0.0051039404862 0 0 -0.017195150354 
0 0 0.0027941816772 0 0 -0.049325807624 0 0 0.0011146293926 
0 0 -0.079172033764 0 0 -0.07810318213 0 0 -0.064301011339 
0 0 0.11130964781 0 0 0.011885112702 0 0 -0.0050561934732 
0 0 -0.0082390643838 0 0 0.0063682341621 0 0 0.043167792952 
0 0 0.0015486498018 0 0 0.056115404192 0 0 -0.0087596191314 
0 0 -0.014605767997 0 0 -0.08465940651 0 0 0.0077416902197 
0 0 -0.081616237022 0 0 -0.075642982208 0 0 -0.079179250493 
0 0 -0.067208065257 0 0 -0.0030460418148 0 0 -0.016803032336 
0 0 0.022525939536 0 0 -0.01127510412 0 0 -0.015192384274 
0 0 -0.014372482054 0 0 -0.081538426381 0 0 -0.055627757736 
0 0 0.040476218927 0 0 -0.012640934121 0 0 0.018075522224 
0 0 -0.017078924092 0 0 0.029779849041 0 0 -0.0099029008359 
0 0 -0.053768731081 0 0 0.015833114421 0 0 -0.020753487388 
0 0 -0.082267012924 0 0 -0.013958999471 0 0 0.079995059611 
0 0 -0.083958727026 0 0 -0.0065849267651 0 0 0.037732994885 
0 0 0.017393878874 0 0 -0.22340363337 0 0 -0.056239202355 
0 0 -0.036543152729 0 0 -0.015145333472 0 0 -0.065457235454 
0 0 -0.059133885444 0 0 -0.0021096266177 0 0 0.046693044041 
0 0 0.035901658079 0 0 -0.040531612309 0 0 0.024775840718 
0 0 -0.0033244361379 0 0 -0.03618524322 0 0 0.052986712646 
0 0 0.01736210041 0 0 0.031723690025 0 0 -0.021058565709 
0 0 0.015710380965 0 0 -0.0025675170658 0 0 0.016370571402 
0 0 0.0076398551044 0 0 -0.065067068667 0 0 0.17073736434 
0 0 0.027695284398 0 0 -0.065393054215 0 0 -0.060813807493 
0 0 -0.021966301228 0 0 -0.029669104834 0 0 -0.22355935183 
0 0 -0.046939767837 0 0 -0.23795623795 0 0 -0.061433426197 
0 0 -0.061005176804 0 0 -0.016219206353 0 0 -0.019446451759 
0 0 -0.02278767498 0 0 0.04028661219 0 0 -0.051826301578 
0 0 -0.0091743674203 0 0 9.9852407351e-05 0 0 -0.095731019874 
0 0 0.044515403235 0 0 0.032692999407 0 0 -0.23649145091 
0 0 -0.020426550354 0 0 -0.065347698104 0 0 -0.011415037752 
0 0 -0.22658482921 0 0 -0.020523811958 0 0 -0.039042561174 
0 0 -0.021090972719 0 0 -0.052357310716 0 0 -0.031141343565 
0 0 -0.050915405953 0 0 0.040743555119 0 0 -0.053809418571 
0 0 0.037852502076 0 0 0.048089449903 0 0 -0.050838320106 
0 0 -0.050687143135 0 0 0.010690931677 0 0 -0.05053332525 
0 0 -0.028779914842 0 0 0.0093508516335 0 0 -0.21635966546 
0 0 0.0028263019654 0 0 -0.030103983302 0 0 -0.021917961665 
0 0 -0.0062973580187 0 0 -0.22766576093 0 0 0.0077071750331 
0 0 -0.010281264909 0 0 -0.061886596147 0 0 -0.19314757602 
0 0 -0.20929058089 0 0 -0.0098942607899 0 0 -0.19962734095 
0 0 -0.22138172759 0 0 -0.19904537831 0 0 -0.20634207566 
0 0 -0.20781304847 0 0 -0.191557232 0 0 -0.21046553747 
0 0 -0.17827503027 0 0 -0.17599261701 0 0 -0.17452443959 
0 0 -0.15892348722 0 0 -0.19325782868 0 0 -0.14682060645 

f 3 648 double
0 0 0 0 0 0 0 0 -1.7425367252e-10 
0 0 0 0 0 -1.7425367252e-10 0 0 0 
0 0 0 0 0 0 0 0 0 
0 0 0 0 0 0 0 0 -1.7425367252e-10 
0 0 0 0 0 0 0 0 -1.7425367252e-10 
0 0 0 0 0 0 0 0 0 
0 0 -1.7425367252e-10 0 0 0 0 0 0 
0 0 -1.7425367252e-10 0 0 -1.7425367252e-10 0 0 -1.7425367252e-10 
0 0 0 0 0 -1.7425367252e-10 0 0 0 
0 0 -1.7425367252e-10 0 0 0 0 0 0 
0 0 0 0 0 0 0 0 0 
0 0 0 0 0 0 0 0 -1.7425367252e-10 
0 0 -1.7425367252e-10 0 0 0 0 0 0 
0 0 0 0 0 -1.7425367252e-10 0 0 0 
0 0 0 0 0 -1.7425367252e-10 0 0 0 
0 0 0 0 0 0 0 0 -1.7425367252e-10 
0 0 0 0 0 0 0 0 -1.7425367252e-10 
0 0 0 0 0 -1.7425367252e-10 0 0 -1.7425367252e-10 
0 0 -1.7425367252e-10 0 0 0 0 0 -1.7425367252e-10 
0 0 0 0 0 0 0 0 -1.7425367252e-10 
0 0 0 0 0 0 0 0 -1.7425367252e-10 
0 0 0 0 0 0 0 0 0 
0 0 -1.7425367252e-10 0 0 0 0 0 0 
0 0 0 0 0 3.8311697251e-19 0 0 0 
0 0 0 0 0 -1.7425367252e-10 0 0 0 
0 0 0 0 0 0 0 0 0 
0 0 0 0 0 -1.7425367252e-10 0 0 -1.7425367252e-10 
0 0 0 0 0 -1.7425367252e-10 0 0 0 
0 0 -1.7425367252e-10 0 0 -1.7425367252e-10 0 0 -1.7425367252e-10 
0 0 -1.7425367252e-10 0 0 0 0 0 0 
0 0 0 0 0 0 0 0 0 
0 0 0 0 0 -1.7425367252e-10 0 0 0 
0 0 -1.7425367252e-10 0 0 0 0 0 0 
0 0 0 0 0 -1.7425367252e-10 0 0 -1.7425367252e-10 
0 0 -1.7425367252e-10 0 0 -1.7425367252e-10 0 0 0 
0 0 0 0 0 -1.7425367252e-10 0 0 -1.7425367252e-10 
0 0 0 0 0 -1.7425367252e-10 0 0 -1.7425367252e-10 
0 0 -1.7425367252e-10 0 0 -1.7425367252e-10 0 0 0 
0 0 -1.7425367252e-10 0 0 0 0 0 0 
0 0 0 0 0 0 0 0 0 
0 0 -1.7425367252e-10 0 0 0 0 0 0 
0 0 -1.7425367252e-10 0 0 0 0 0 0 
0 0 -1.7425367252e-10 0 0 0 0 0 -1.7425367252e-10 
0 0 0 0 0 0 0 0 0 
0 0 0 0 0 0 0 0 0 
0 0 0 0 0 0 0 0 0 
0 0 -1.7425367252e-10 0 0 0 0 0 -1.7425367252e-10 
0 0 -1.7425367252e-10 0 0 -1.7425367252e-10 0 0 0 
0 0 0 0 0 -1.7425367252e-10 0 0 0 
0 0 0 0 0 0 0 0 0 
0 0 0 0 0 0 0 0 -1.7425367252e-10 
0 0 -1.7425367252e-10 0 0 0 0 0 -1.7425367252e-10 
0 0 0 0 0 -1.7425367252e-10 0 0 0 
0 0 -1.7425367252e-10 0 0 -8.9019973083e-09 0 0 0 
0 0 0 0 0 -1.7425367252e-10 0 0 0 
0 0 -1.7425367252e-10 0 0 -1.7425367252e-10 0 0 0 
0 0 0 0 0 -1.7425367252e-10 0 0 0 
0 0 0 0 0 0 0 0 0 
0 0 0 0 0 0 0 0 0 
0 0 -1.7425367252e-10 0 0 -1.7425367252e-10 0 0 0 
0 0 0 0 0 -1.7425367252e-10 0 0 -1.7425367252e-10 
0 0 0 0 0 0 0 0 -1.7425367252e-10 
0 0 0 0 0 0 0 0 0 
0 0 -1.7425367252e-10 0 0 -3.1019272971e-25 0 0 0 
0 0 0 0 0 0 0 0 0 
0 0 -1.7425367252e-10 0 0 0 0 0 0 
0 0 0 0 0 0 0 0 -8.9019973083e-09 
0 0 -1.7425367252e-10 0 0 0 0 0 0 
0 0 0 0 0 0 0 0 0 
0 0 -1.7425367252e-10 0 0 -1.7425367252e-10 0 0 0 
0 0 0 0 0 0 0 0 -1.7425367252e-10 
0 0 0 0 0 0 0 0 -1.7425367252e-10 
0 0 0 0 0 0 0 0 -1.7425367252e-10 
0 0 -1.7425367252e-10 0 0 0 0 0 -1.7425367252e-10 
0 0 0 0 0 0 0 0 -1.7425367252e-10 
0 0 0 0 0 0 0 0 0 
0 0 0 0 0 -1.7425367252e-10 0 0 0 
0 0 -1.7425367252e-10 0 0 0 0 0 -1.7425367252e-10 
0 0 -1.7425367252e-10 0 0 0 0 0 0 
0 0 -1.7425367252e-10 0 0 -1.7425367252e-10 0 0 0 
0 0 0 0 0 0 0 0 0 
0 0 -1.7425367252e-10 0 0 -1.7425367252e-10 0 0 0 
0 0 0 0 0 0 0 0 0 
0 0 0 0 0 0 0 0 0 
0 0 0 0 0 0 0 0 -1.7425367252e-10 
0 0 0 0 0 -1.7425367252e-10 0 0 -1.7425367252e-10 
0 0 0 0 0 -1.7425367252e-10 0 0 -1.7425367252e-10 
0 0 0 0 0 -1.7425367252e-10 0 0 0 
0 0 0 0 0 0 0 0 0 
0 0 -1.7425367252e-10 0 0 0 0 0 0 
0 0 0 0 0 0 0 0 -1.7425367252e-10 
0 0 0 0 0 0 0 0 0 
0 0 0 0 0 -1.7425367252e-10 0 0 -1.7425367252e-10 
0 0 0 0 0 -1.7425367252e-10 0 0 -1.7425367252e-10 
0 0 0 0 0 0 0 0 0 
0 0 0 0 0 -1.7425367252e-10 0 0 0 
0 0 0 0 0 0 0 0 0 
0 0 0 0 0 -1.7425367252e-10 0 0 0 
0 0 0 0 0 0 0 0 -1.7425367252e-10 
0 0 0 0 0 0 0 0 -1.7425367252e-10 
0 0 -1.7425367252e-10 0 0 0 0 0 0 
0 0 0 0 0 -1.7425367252e-10 0 0 0 
0 0 -1.7425367252e-10 0 0 0 0 0 0 
0 0 0 0 0 0 0 0 -1.7425367252e-10 
0 0 -1.7425367252e-10 0 0 -1.7425367252e-10 0 0 0 
0 0 0 0 0 0 0 0 -1.7425367252e-10 
0 0 -1.7425367252e-10 0 0 0 0 0 0 
0 0 -1.7425367252e-10 0 0 0 0 0 -1.7425367252e-10 
0 0 0 0 0 0 0 0 0 
0 0 0 0 0 0 0 0 0 
0 0 0 0 0 0 0 0 0 
0 0 0 0 0 0 0 0 -1.7425367252e-10 
0 0 -1.7425367252e-10 0 0 0 0 0 -1.7425367252e-10 
0 0 0 0 0 0 0 0 -1.7425367252e-10 
0 0 -1.7425367252e-10 0 0 -1.7425367252e-10 0 0 0 
0 0 0 0 0 0 0 0 0 
0 0 -1.7425367252e-10 0 0 0 0 0 -8.9019973083e-09 
0 0 -8.9019973083e-09 0 0 -1.7425367252e-10 0 0 0 
0 0 0 0 0 -1.7425367252e-10 0 0 0 
0 0 -1.7425367252e-10 0 0 0 0 0 -8.9019973083e-09 
0 0 0 0 0 0 0 0 0 
0 0 -1.7425367252e-10 0 0 -1.7425367252e-10 0 0 -1.7425367252e-10 
0 0 -1.7425367252e-10 0 0 0 0 0 0 
0 0 0 0 0 0 0 0 -1.7425367252e-10 
0 0 -1.7425367252e-10 0 0 -1.7425367252e-10 0 0 -1.7425367252e-10 
0 0 0 0 0 0 0 0 -1.7425367252e-10 
0 0 0 0 0 0 0 0 -1.7425367252e-10 
0 0 0 0 0 0 0 0 0 
0 0 0 0 0 0 0 0 -1.7425367252e-10 
0 0 0 0 0 0 0 0 0 
0 0 -1.7425367252e-10 0 0 0 0 0 0 
0 0 0 0 0 0 0 0 -1.7425367252e-10 
0 0 0 0 0 -1.7425367252e-10 0 0 0 
0 0 0 0 0 -1.7425367252e-10 0 0 -1.7425367252e-10 
0 0 -1.7425367252e-10 0 0 0 0 0 0 
0 0 0 0 0 0 0 0 -1.7425367252e-10 
0 0 -1.7425367252e-10 0 0 -1.7425367252e-10 0 0 0 
0 0 -1.7425367252e-10 0 0 0 0 0 -1.7425367252e-10 
0 0 -1.7425367252e-10 0 0 0 0 0 -1.7425367252e-10 
0 0 0 0 0 0 0 0 -1.7425367252e-10 
0 0 0 0 0 0 0 0 -1.7425367252e-10 
0 0 0 0 0 0 0 0 0 
0 0 0 0 0 0 0 0 0 
0 0 0 0 0 0 0 0 0 
0 0 0 0 0 0 0 0 0 
0 0 0 0 0 0 0 0 -1.7425367252e-10 
0 0 -1.7425367252e-10 0 0 0 0 0 0 
0 0 -1.7425367252e-10 0 0 0 0 0 0 
0 0 -1.7425367252e-10 0 0 -1.7425367252e-10 0 0 -1.7425367252e-10 
0 0 -1.7425367252e-10 0 0 -1.7425367252e-10 0 0 -1.7425367252e-10 
0 0 -1.7425367252e-10 0 0 -1.7425367252e-10 0 0 -1.7425367252e-10 
0 0 -1.7425367252e-10 0 0 -1.7425367252e-10 0 0 -1.7425367252e-10 
0 0 -1.7425367252e-10 0 0 -1.7425367252e-10 0 0 -1.7425367252e-10 
0 0 -1.7425367252e-10 0 0 -1.7425367252e-10 0 0 -1.7425367252e-10 
0 0 -1.7425367252e-10 0 0 -8.9019973083e-09 0 0 -1.7425367252e-10 
0 0 -1.7425367252e-10 0 0 -1.7425367252e-10 0 0 -1.7425367252e-10 
0 0 -1.7425367252e-10 0 0 -8.9019973083e-09 0 0 -1.7425367252e-10 
0 0 -1.7425367252e-10 0 0 -1.7425367252e-10 0 0 -1.7425367252e-10 
0 0 -1.7425367252e-10 0 0 -1.7425367252e-10 0 0 -1.7425367252e-10 
0 0 -1.7425367252e-10 0 0 -1.7425367252e-10 0 0 -1.7425367252e-10 
0 0 -1.7425367252e-10 0 0 -1.7425367252e-10 0 0 -1.7425367252e-10 
0 0 -1.7425367252e-10 0 0 -1.7425367252e-10 0 0 -1.7425367252e-10 
0 0 -1.7425367252e-10 0 0 -1.7425367252e-10 0 0 -1.7425367252e-10 
0 0 -1.7425367252e-10 0 0 -1.7425367252e-10 0 0 -1.7425367252e-10 
0 0 -1.7425367252e-10 0 0 -1.7425367252e-10 0 0 -1.7425367252e-10 
0 0 -8.9019973083e-09 0 0 -1.7425367252e-10 0 0 -1.7425367252e-10 
0 0 -8.9019973083e-09 0 0 -1.7425367252e-10 0 0 -1.7425367252e-10 
0 0 -1.7425367252e-10 0 0 -1.7425367252e-10 0 0 -1.7425367252e-10 
0 0 -1.7425367252e-10 0 0 -1.7425367252e-10 0 0 -1.7425367252e-10 
0 0 -1.7425367252e-10 0 0 -1.7425367252e-10 0 0 -1.7425367252e-10 
0 0 -1.7425367252e-10 0 0 -1.7425367252e-10 0 0 -1.7425367252e-10 
0 0 -1.7425367252e-10 0 0 -1.7425367252e-10 0 0 -1.7425367252e-10 
0 0 -1.7425367252e-10 0 0 -1.7425367252e-10 0 0 -1.7425367252e-10 
0 0 -8.9019973083e-09 0 0 -1.7425367252e-10 0 0 -1.7425367252e-10 
0 0 -1.7425367252e-10 0 0 -1.7425367252e-10 0 0 -8.9019973083e-09 
0 0 -1.7425367252e-10 0 0 -1.7425367252e-10 0 0 -1.7425367252e-10 
0 0 -1.7425367252e-10 0 0 -1.7425367252e-10 0 0 -1.7425367252e-10 
0 0 -1.7425367252e-10 0 0 -1.7425367252e-10 0 0 -1.7425367252e-10 
0 0 -1.7425367252e-10 0 0 -1.7425367252e-10 0 0 -1.7425367252e-10 
0 0 -1.7425367252e-10 0 0 -1.7425367252e-10 0 0 -1.7425367252e-10 
0 0 -1.7425367252e-10 0 0 -1.7425367252e-10 0 0 -1.7425367252e-10 
0 0 -1.7425367252e-10 0 0 -1.7425367252e-10 0 0 -1.7425367252e-10 
0 0 -1.7425367252e-10 0 0 -1.7425367252e-10 0 0 -1.7425367252e-10 
0 0 -1.7425367252e-10 0 0 -1.7425367252e-10 0 0 -1.7425367252e-10 
0 0 -1.7425367252e-10 0 0 -1.7425367252e-10 0 0 -1.7425367252e-10 
0 0 -1.7425367252e-10 0 0 -1.7425367252e-10 0 0 -1.7425367252e-10 
0 0 -1.7425367252e-10 0 0 -1.7425367252e-10 0 0 -1.7425367252e-10 
0 0 -1.7425367252e-10 0 0 -1.7425367252e-10 0 0 -1.7425367252e-10 
0 0 -1.7425367252e-10 0 0 -1.7425367252e-10 0 0 -1.7425367252e-10 
0 0 -1.7425367252e-10 0 0 -1.7425367252e-10 0 0 -1.7425367252e-10 
0 0 -1.7425367252e-10 0 0 -1.7425367252e-10 0 0 -1.7425367252e-10 
0 0 -1.7425367252e-10 0 0 -1.7425367252e-10 0 0 -1.7425367252e-10 
0 0 -1.7425367252e-10 0 0 -1.7425367252e-10 0 0 -1.7425367252e-10 
0 0 -1.7425367252e-10 0 0 -1.7425367252e-10 0 0 -5.3297119368e-07 
0 0 -1.7425367252e-10 0 0 -1.7425367252e-10 0 0 -1.7425367252e-10 
0 0 -1.7425367252e-10 0 0 -1.7425367252e-10 0 0 -1.7425367252e-10 
0 0 -1.7425367252e-10 0 0 -1.7425367252e-10 0 0 -1.7425367252e-10 
0 0 -1.7425367252e-10 0 0 -1.7425367252e-10 0 0 -1.7425367252e-10 
0 0 -1.7425367252e-10 0 0 -1.7425367252e-10 0 0 -1.7425367252e-10 
0 0 -1.7425367252e-10 0 0 -1.7425367252e-10 0 0 -8.9019973083e-09 
0 0 -1.7425367252e-10 0 0 -1.7425367252e-10 0 0 -1.7425367252e-10 
0 0 -1.7425367252e-10 0 0 -1.7425367252e-10 0 0 -1.7425367252e-10 
0 0 -1.7425367252e-10 0 0 -1.7425367252e-10 0 0 -1.7425367252e-10 
0 0 -1.7425367252e-10 0 0 -1.7425367252e-10 0 0 -1.7425367252e-10 
0 0 -1.7425367252e-10 0 0 -1.7425367252e-10 0 0 -1.7425367252e-10 
0 0 -1.7425367252e-10 0 0 -1.7425367252e-10 0 0 -1.7425367252e-10 
0 0 -1.7425367252e-10 0 0 -1.7425367252e-10 0 0 -1.7425367252e-10 
0 0 -1.7425367252e-10 0 0 -1.7425367252e-10 0 0 -1.7425367252e-10 
0 0 -1.7425367252e-10 0 0 -1.7425367252e-10 0 0 -1.7425367252e-10 
0 0 -1.7425367252e-10 0 0 -8.9019973083e-09 0 0 -8.9019973083e-09 
0 0 -8.9019973083e-09 0 0 -6.8918688838e-08 0 0 -1.7425367252e-10 
0 0 -1.7425367252e-10 0 0 -8.9019973083e-09 0 0 -1.7425367252e-10 
0 0 -1.7425367252e-10 0 0 -1.7425367252e-10 0 0 -1.7425367252e-10 
0 0 -1.7425367252e-10 0 0 -1.7425367252e-10 0 0 -1.7425367252e-10 
0 0 -1.7425367252e-10 0 0 -1.7425367252e-10 0 0 -1.7425367252e-10 
0 0 -1.7425367252e-10 0 0 -1.7425367252e-10 0 0 -1.7425367252e-10 

radius 1 648 double
2e-05 2e-05 2e-05 2e-05 2e-05 2e-05 2e-05 2e-05 2e-05 
2e-05 2e-05 2e-05 2e-05 2e-05 2e-05 2e-05 2e-05 2e-05 
2e-05 2e-05 2e-05 2e-05 2e-05 2e-05 2e-05 2e-05 2e-05 
2e-05 2e-05 2e-05 2e-05 2e-05 2e-05 2e-05 2e-05 2e-05 
2e-05 2e-05 2e-05 2e-05 2e-05 2e-05 2e-05 2e-05 2e-05 
2e-05 2e-05 2e-05 2e-05 2e-05 2e-05 2e-05 2e-05 2e-05 
2e-05 2e-05 2e-05 2e-05 2e-05 2e-05 2e-05 2e-05 2e-05 
2e-05 2e-05 2e-05 2e-05 2e-05 2e-05 2e-05 2e-05 2e-05 
2e-05 2e-05 2e-05 2e-05 2e-05 2e-05 2e-05 2e-05 2e-05 
2e-05 2e-05 2e-05 2e-05 2e-05 2e-05 2e-05 2e-05 2e-05 
2e-05 2e-05 2e-05 2e-05 2e-05 2e-05 2e-05 2e-05 2e-05 
2e-05 2e-05 2e-05 2e-05 2e-05 2e-05 2e-05 2e-05 2e-05 
2e-05 2e-05 2e-05 2e-05 2e-05 2e-05 2e-05 2e-05 2e-05 
2e-05 2e-05 2e-05 2e-05 2e-05 2e-05 2e-05 2e-05 2e-05 
2e-05 2e-05 2e-05 2e-05 2e-05 2e-05 2e-05 2e-05 2e-05 
2e-05 2e-05 2e-05 2e-05 2e-05 2e-05 2e-05 2e-05 2e-05 
2e-05 2e-05 2e-05 2e-05 2e-05 2e-05 2e-05 2e-05 2e-05 
2e-05 2e-05 2e-05 2e-05 2e-05 2e-05 2e-05 7.5e-05 2e-05 
2e-05 2e-05 2e-05 2e-05 2e-05 2e-05 2e-05 2e-05 2e-05 
2e-05 2e-05 2e-05 2e-05 2e-05 2e-05 2e-05 2e-05 2e-05 
2e-05 2e-05 2e-05 2e-05 2e-05 2e-05 7.5e-05 2e-05 2e-05 
2e-05 2e-05 2e-05 2e-05 2e-05 2e-05 2e-05 2e-05 2e-05 
2e-05 2e-05 7.5e-05 2e-05 2e-05 2e-05 2e-05 2e-05 2e-05 
2e-05 2e-05 2e-05 2e-05 2e-05 2e-05 2e-05 2e-05 2e-05 
2e-05 2e-05 2e-05 2e-05 2e-05 2e-05 2e-05 2e-05 2e-05 
2e-05 2e-05 2e-05 2e-05 2e-05 2e-05 2e-05 2e-05 2e-05 
2e-05 2e-05 2e-05 2e-05 2e-05 2e-05 2e-05 2e-05 2e-05 
2e-05 2e-05 2e-05 2e-05 2e-05 2e-05 2e-05 2e-05 2e-05 
2e-05 2e-05 2e-05 2e-05 2e-05 2e-05 2e-05 2e-05 2e-05 
2e-05 2e-05 2e-05 2e-05 2e-05 2e-05 2e-05 2e-05 2e-05 
2e-05 2e-05 2e-05 2e-05 2e-05 2e-05 2e-05 2e-05 2e-05 
2e-05 2e-05 2e-05 2e-05 2e-05 2e-05 2e-05 2e-05 2e-05 
2e-05 2e-05 2e-05 2e-05 2e-05 2e-05 2e-05 2e-05 2e-05 
2e-05 2e-05 2e-05 2e-05 2e-05 2e-05 2e-05 2e-05 2e-05 
2e-05 2e-05 2e-05 2e-05 2e-05 2e-05 2e-05 2e-05 2e-05 
2e-05 2e-05 2e-05 2e-05 2e-05 2e-05 2e-05 2e-05 2e-05 
2e-05 2e-05 2e-05 2e-05 2e-05 2e-05 2e-05 2e-05 2e-05 
2e-05 2e-05 2e-05 2e-05 2e-05 2e-05 2e-05 2e-05 2e-05 
2e-05 2e-05 2e-05 2e-05 2e-05 2e-05 2e-05 2e-05 7.5e-05 
7.5e-05 2e-05 2e-05 2e-05 2e-05 2e-05 2e-05 2e-05 7.5e-05 
2e-05 2e-05 2e-05 2e-05 2e-05 2e-05 2e-05 2e-05 2e-05 
2e-05 2e-05 2e-05 2e-05 2e-05 2e-05 2e-05 2e-05 2e-05 
2e-05 2e-05 2e-05 2e-05 2e-05 2e-05 2e-05 2e-05 2e-05 
2e-05 2e-05 2e-05 2e-05 2e-05 2e-05 2e-05 2e-05 2e-05 
2e-05 2e-05 2e-05 2e-05 2e-05 2e-05 2e-05 2e-05 2e-05 
2e-05 2e-05 2e-05 2e-05 2e-05 2e-05 2e-05 2e-05 2e-05 
2e-05 2e-05 2e-05 2e-05 2e-05 2e-05 2e-05 2e-05 2e-05 
2e-05 2e-05 2e-05 2e-05 2e-05 2e-05 2e-05 2e-05 2e-05 
2e-05 2e-05 2e-05 2e-05 2e-05 2e-05 2e-05 2e-05 2e-05 
2e-05 2e-05 2e-05 2e-05 2e-05 2e-05 2e-05 2e-05 2e-05 
2e-05 2e-05 2e-05 2e-05 2e-05 2e-05 2e-05 2e-05 2e-05 
2e-05 2e-05 2e-05 2e-05 7.5e-05 2e-05 2e-05 2e-05 2e-05 
2e-05 7.5e-05 2e-05 2e-05 2e-05 2e-05 2e-05 2e-05 2e-05 
2e-05 2e-05 2e-05 2e-05 2e-05 2e-05 2e-05 2e-05 2e-05 
2e-05 2e-05 2e-05 2e-05 2e-05 2e-05 2e-05 2e-05 2e-05 
7.5e-05 2e-05 2e-05 7.5e-05 2e-05 2e-05 2e-05 2e-05 2e-05 
2e-05 2e-05 2e-05 2e-05 2e-05 2e-05 2e-05 2e-05 2e-05 
2e-05 2e-05 2e-05 2e-05 2e-05 2e-05 7.5e-05 2e-05 2e-05 
2e-05 2e-05 7.5e-05 2e-05 2e-05 2e-05 2e-05 2e-05 2e-05 
2e-05 2e-05 2e-05 2e-05 2e-05 2e-05 2e-05 2e-05 2e-05 
2e-05 2e-05 2e-05 2e-05 2e-05 2e-05 2e-05 2e-05 2e-05 
2e-05 2e-05 2e-05 2e-05 2e-05 2e-05 2e-05 2e-05 2e-05 
2e-05 2e-05 2e-05 2e-05 2e-05 2e-05 2e-05 2e-05 2e-05 
2e-05 2e-05 2e-05 2e-05 2e-05 2e-05 2e-05 2e-05 2e-05 
2e-05 2e-05 2e-05 2e-05 2e-05 0.0003 2e-05 2e-05 2e-05 
2e-05 2e-05 2e-05 2e-05 2e-05 2e-05 2e-05 2e-05 2e-05 
2e-05 2e-05 2e-05 2e-05 2e-05 7.5e-05 2e-05 2e-05 2e-05 
2e-05 2e-05 2e-05 2e-05 2e-05 2e-05 2e-05 2e-05 2e-05 
2e-05 2e-05 2e-05 2e-05 2e-05 2e-05 2e-05 2e-05 2e-05 
2e-05 2e-05 2e-05 2e-05 2e-05 2e-05 2e-05 7.5e-05 7.5e-05 
7.5e-05 0.00015 2e-05 2e-05 7.5e-05 2e-05 2e-05 2e-05 2e-05 
2e-05 2e-05 2e-05 2e-05 2e-05 2e-05 2e-05 2e-05 2e-05 

omega 3 648 double
0 0 0 0 0 0 0 0 0 
0 0 0 0 0 0 0 0 0 
0 0 0 0 0 0 0 0 0 
0 0 0 0 0 0 0 0 0 
0 0 0 0 0 0 0 0 0 
0 0 0 0 0 0 0 0 0 
0 0 0 0 0 0 0 0 0 
0 0 0 0 0 0 0 0 0 
0 0 0 0 0 0 0 0 0 
0 0 0 0 0 0 0 0 0 
0 0 0 0 0 0 0 0 0 
0 0 0 0 0 0 0 0 0 
0 0 0 0 0 0 0 0 0 
0 0 0 0 0 0 0 0 0 
0 0 0 0 0 0 0 0 0 
0 0 0 0 0 0 0 0 0 
0 0 0 0 0 0 0 0 0 
0 0 0 0 0 0 0 0 0 
0 0 0 0 0 0 0 0 0 
0 0 0 0 0 0 0 0 0 
0 0 0 0 0 0 0 0 0 
0 0 0 0 0 0 0 0 0 
0 0 0 0 0 0 0 0 0 
0 0 0 0 0 0 0 0 0 
0 0 0 0 0 0 0 0 0 
0 0 0 0 0 0 0 0 0 
0 0 0 0 0 0 0 0 0 
0 0 0 0 0 0 0 0 0 
0 0 0 0 0 0 0 0 0 
0 0 0 0 0 0 0 0 0 
0 0 0 0 0 0 0 0 0 
0 0 0 0 0 0 0 0 0 
0 0 0 0 0 0 0 0 0 
0 0 0 0 0 0 0 0 0 
0 0 0 0 0 0 0 0 0 
0 0 0 0 0 0 0 0 0 
0 0 0 0 0 0 0 0 0 
0 0 0 0 0 0 0 0 0 
0 0 0 0 0 0 0 0 0 
0 0 0 0 0 0 0 0 0 
0 0 0 0 0 0 0 0 0 
0 0 0 0 0 0 0 0 0 
0 0 0 0 0 0 0 0 0 
0 0 0 0 0 0 0 0 0 
0 0 0 0 0 0 0 0 0 
0 0 0 0 0 0 0 0 0 
0 0 0 0 0 0 0 0 0 
0 0 0 0 0 0 0 0 0 
0 0 0 0 0 0 0 0 0 
0 0 0 0 0 0 0 0 0 
0 0 0 0 0 0 0 0 0 
0 0 0 0 0 0 0 0 0 
0 0 0 0 0 0 0 0 0 
0 0 0 0 0 0 0 0 0 
0 0 0 0 0 0 0 0 0 
0 0 0 0 0 0 0 0 0 
0 0 0 0 0 0 0 0 0 
0 0 0 0 0 0 0 0 0 
0 0 0 0 0 0 0 0 0 
0 0 0 0 0 0 0 0 0 
0 0 0 0 0 0 0 0 0 
0 0 0 0 0 0 0 0 0 
0 0 0 0 0 0 0 0 0 
0 0 0 0 0 0 0 0 0 
0 0 0 0 0 0 0 0 0 
0 0 0 0 0 0 0 0 0 
0 0 0 0 0 0 0 0 0 
0 0 0 0 0 0 0 0 0 
0 0 0 0 0 0 0 0 0 
0 0 0 0 0 0 0 0 0 
0 0 0 0 0 0 0 0 0 
0 0 0 0 0 0 0 0 0 
0 0 0 0 0 0 0 0 0 
0 0 0 0 0 0 0 0 0 
0 0 0 0 0 0 0 0 0 
0 0 0 0 0 0 0 0 0 
0 0 0 0 0 0 0 0 0 
0 0 0 0 0 0 0 0 0 
0 0 0 0 0 0 0 0 0 
0 0 0 0 0 0 0 0 0 
0 0 0 0 0 0 0 0 0 
0 0 0 0 0 0 0 0 0 
0 0 0 0 0 0 0 0 0 
0 0 0 0 0 0 0 0 0 
0 0 0 0 0 0 0 0 0 
0 0 0 0 0 0 0 0 0 
0 0 0 0 0 0 0 0 0 
0 0 0 0 0 0 0 0 0 
0 0 0 0 0 0 0 0 0 
0 0 0 0 0 0 0 0 0 
0 0 0 0 0 0 0 0 0 
0 0 0 0 0 0 0 0 0 
0 0 0 0 0 0 0 0 0 
0 0 0 0 0 0 0 0 0 
0 0 0 0 0 0 0 0 0 
0 0 0 0 0 0 0 0 0 
0 0 0 0 0 0 0 0 0 
0 0 0 0 0 0 0 0 0 
0 0 0 0 0 0 0 0 0 
0 0 0 0 0 0 0 0 0 
0 0 0 0 0 0 0 0 0 
0 0 0 0 0 0 0 0 0 
0 0 0 0 0 0 0 0 0 
0 0 0 0 0 0 0 0 0 
0 0 0 0 0 0 0 0 0 
0 0 0 0 0 0 0 0 0 
0 0 0 0 0 0 0 0 0 
0 0 0 0 0 0 0 0 0 
0 0 0 0 0 0 0 0 0 
0 0 0 0 0 0 0 0 0 
0 0 0 0 0 0 0 0 0 
0 0 0 0 0 0 0 0 0 
0 0 0 0 0 0 0 0 0 
0 0 0 0 0 0 0 0 0 
0 0 0 0 0 0 0 0 0 
0 0 0 0 0 0 0 0 0 
0 0 0 0 0 0 0 0 0 
0 0 0 0 0 0 0 0 0 
0 0 0 0 0 0 0 0 0 
0 0 0 0 0 0 0 0 0 
0 0 0 0 0 0 0 0 0 
0 0 0 0 0 0 0 0 0 
0 0 0 0 0 0 0 0 0 
0 0 0 0 0 0 0 0 0 
0 0 0 0 0 0 0 0 0 
0 0 0 0 0 0 0 0 0 
0 0 0 0 0 0 0 0 0 
0 0 0 0 0 0 0 0 0 
0 0 0 0 0 0 0 0 0 
0 0 0 0 0 0 0 0 0 
0 0 0 0 0 0 0 0 0 
0 0 0 0 0 0 0 0 0 
0 0 0 0 0 0 0 0 0 
0 0 0 0 0 0 0 0 0 
0 0 0 0 0 0 0 0 0 
0 0 0 0 0 0 0 0 0 
0 0 0 0 0 0 0 0 0 
0 0 0 0 0 0 0 0 0 
0 0 0 0 0 0 0 0 0 
0 0 0 0 0 0 0 0 0 
0 0 0 0 0 0 0 0 0 
0 0 0 0 0 0 0 0 0 
0 0 0 0 0 0 0 0 0 
0 0 0 0 0 0 0 0 0 
0 0 0 0 0 0 0 0 0 
0 0 0 0 0 0 0 0 0 
0 0 0 0 0 0 0 0 0 
0 0 0 0 0 0 0 0 0 
0 0 0 0 0 0 0 0 0 
0 0 0 0 0 0 0 0 0 
0 0 0 0 0 0 0 0 0 
0 0 0 0 0 0 0 0 0 
0 0 0 0 0 0 0 0 0 
0 0 0 0 0 0 0 0 0 
0 0 0 0 0 0 0 0 0 
0 0 0 0 0 0 0 0 0 
0 0 0 0 0 0 0 0 0 
0 0 0 0 0 0 0 0 0 
0 0 0 0 0 0 0 0 0 
0 0 0 0 0 0 0 0 0 
0 0 0 0 0 0 0 0 0 
0 0 0 0 0 0 0 0 0 
0 0 0 0 0 0 0 0 0 
0 0 0 0 0 0 0 0 0 
0 0 0 0 0 0 0 0 0 
0 0 0 0 0 0 0 0 0 
0 0 0 0 0 0 0 0 0 
0 0 0 0 0 0 0 0 0 
0 0 0 0 0 0 0 0 0 
0 0 0 0 0 0 0 0 0 
0 0 0 0 0 0 0 0 0 
0 0 0 0 0 0 0 0 0 
0 0 0 0 0 0 0 0 0 
0 0 0 0 0 0 0 0 0 
0 0 0 0 0 0 0 0 0 
0 0 0 0 0 0 0 0 0 
0 0 0 0 0 0 0 0 0 
0 0 0 0 0 0 0 0 0 
0 0 0 0 0 0 0 0 0 
0 0 0 0 0 0 0 0 0 
0 0 0 0 0 0 0 0 0 
0 0 0 0 0 0 0 0 0 
0 0 0 0 0 0 0 0 0 
0 0 0 0 0 0 0 0 0 
0 0 0 0 0 0 0 0 0 
0 0 0 0 0 0 0 0 0 
0 0 0 0 0 0 0 0 0 
0 0 0 0 0 0 0 0 0 
0 0 0 0 0 0 0 0 0 
0 0 0 0 0 0 0 0 0 
0 0 0 0 0 0 0 0 0 
0 0 0 0 0 0 0 0 0 
0 0 0 0 0 0 0 0 0 
0 0 0 0 0 0 0 0 0 
0 0 0 0 0 0 0 0 0 
0 0 0 0 0 0 0 0 0 
0 0 0 0 0 0 0 0 0 
0 0 0 0 0 0 0 0 0 
0 0 0 0 0 0 0 0 0 
0 0 0 0 0 0 0 0 0 
0 0 0 0 0 0 0 0 0 
0 0 0 0 0 0 0 0 0 
0 0 0 0 0 0 0 0 0 
0 0 0 0 0 0 0 0 0 
0 0 0 0 0 0 0 0 0 
0 0 0 0 0 0 0 0 0 
0 0 0 0 0 0 0 0 0 
0 0 0 0 0 0 0 0 0 
0 0 0 0 0 0 0 0 0 
0 0 0 0 0 0 0 0 0 
0 0 0 0 0 0 0 0 0 
0 0 0 0 0 0 0 0 0 
0 0 0 0 0 0 0 0 0 
0 0 0 0 0 0 0 0 0 
0 0 0 0 0 0 0 0 0 
0 0 0 0 0 0 0 0 0 

fx_mag_viz 1 648 double
0 0 0 0 0 0 0 0 0 
0 0 0 0 0 0 0 0 0 
0 0 0 0 0 0 0 0 0 
0 0 0 0 0 0 0 0 0 
0 0 0 0 0 0 0 0 0 
0 0 0 0 0 0 0 0 0 
0 0 0 0 0 0 0 0 0 
0 0 0 0 0 0 0 0 0 
0 0 0 0 0 0 0 0 0 
0 0 0 0 0 0 0 0 0 
0 0 0 0 0 0 0 0 0 
0 0 0 0 0 0 0 0 0 
0 0 0 0 0 0 0 0 0 
0 0 0 0 0 0 0 0 0 
0 0 0 0 0 0 0 0 0 
0 0 0 0 0 0 0 0 0 
0 0 0 0 0 0 0 0 0 
0 0 0 0 0 0 0 0 0 
0 0 0 0 0 0 0 0 0 
0 0 0 0 0 0 0 0 0 
0 0 0 0 0 0 0 0 0 
0 0 0 0 0 0 0 0 0 
0 0 0 0 0 0 0 0 0 
0 0 0 0 0 0 0 0 0 
0 0 0 0 0 0 0 0 0 
0 0 0 0 0 0 0 0 0 
0 0 0 0 0 0 0 0 0 
0 0 0 0 0 0 0 0 0 
0 0 0 0 0 0 0 0 0 
0 0 0 0 0 0 0 0 0 
0 0 0 0 0 0 0 0 0 
0 0 0 0 0 0 0 0 0 
0 0 0 0 0 0 0 0 0 
0 0 0 0 0 0 0 0 0 
0 0 0 0 0 0 0 0 0 
0 0 0 0 0 0 0 0 0 
0 0 0 0 0 0 0 0 0 
0 0 0 0 0 0 0 0 0 
0 0 0 0 0 0 0 0 0 
0 0 0 0 0 0 0 0 0 
0 0 0 0 0 0 0 0 0 
0 0 0 0 0 0 0 0 0 
0 0 0 0 0 0 0 0 0 
0 0 0 0 0 0 0 0 0 
0 0 0 0 0 0 0 0 0 
0 0 0 0 0 0 0 0 0 
0 0 0 0 0 0 0 0 0 
0 0 0 0 0 0 0 0 0 
0 0 0 0 0 0 0 0 0 
0 0 0 0 0 0 0 0 0 
0 0 0 0 0 0 0 0 0 
0 0 0 0 0 0 0 0 0 
0 0 0 0 0 0 0 0 0 
0 0 0 0 0 0 0 0 0 
0 0 0 0 0 0 0 0 0 
0 0 0 0 0 0 0 0 0 
0 0 0 0 0 0 0 0 0 
0 0 0 0 0 0 0 0 0 
0 0 0 0 0 0 0 0 0 
0 0 0 0 0 0 0 0 0 
0 0 0 0 0 0 0 0 0 
0 0 0 0 0 0 0 0 0 
0 0 0 0 0 0 0 0 0 
0 0 0 0 0 0 0 0 0 
0 0 0 0 0 0 0 0 0 
0 0 0 0 0 0 0 0 0 
0 0 0 0 0 0 0 0 0 
0 0 0 0 0 0 0 0 0 
0 0 0 0 0 0 0 0 0 
0 0 0 0 0 0 0 0 0 
0 0 0 0 0 0 0 0 0 
0 0 0 0 0 0 0 0 0 

fy_mag_viz 1 648 double
0 0 0 0 0 0 0 0 0 
0 0 0 0 0 0 0 0 0 
0 0 0 0 0 0 0 0 0 
0 0 0 0 0 0 0 0 0 
0 0 0 0 0 0 0 0 0 
0 0 0 0 0 0 0 0 0 
0 0 0 0 0 0 0 0 0 
0 0 0 0 0 0 0 0 0 
0 0 0 0 0 0 0 0 0 
0 0 0 0 0 0 0 0 0 
0 0 0 0 0 0 0 0 0 
0 0 0 0 0 0 0 0 0 
0 0 0 0 0 0 0 0 0 
0 0 0 0 0 0 0 0 0 
0 0 0 0 0 0 0 0 0 
0 0 0 0 0 0 0 0 0 
0 0 0 0 0 0 0 0 0 
0 0 0 0 0 0 0 0 0 
0 0 0 0 0 0 0 0 0 
0 0 0 0 0 0 0 0 0 
0 0 0 0 0 0 0 0 0 
0 0 0 0 0 0 0 0 0 
0 0 0 0 0 0 0 0 0 
0 0 0 0 0 0 0 0 0 
0 0 0 0 0 0 0 0 0 
0 0 0 0 0 0 0 0 0 
0 0 0 0 0 0 0 0 0 
0 0 0 0 0 0 0 0 0 
0 0 0 0 0 0 0 0 0 
0 0 0 0 0 0 0 0 0 
0 0 0 0 0 0 0 0 0 
0 0 0 0 0 0 0 0 0 
0 0 0 0 0 0 0 0 0 
0 0 0 0 0 0 0 0 0 
0 0 0 0 0 0 0 0 0 
0 0 0 0 0 0 0 0 0 
0 0 0 0 0 0 0 0 0 
0 0 0 0 0 0 0 0 0 
0 0 0 0 0 0 0 0 0 
0 0 0 0 0 0 0 0 0 
0 0 0 0 0 0 0 0 0 
0 0 0 0 0 0 0 0 0 
0 0 0 0 0 0 0 0 0 
0 0 0 0 0 0 0 0 0 
0 0 0 0 0 0 0 0 0 
0 0 0 0 0 0 0 0 0 
0 0 0 0 0 0 0 0 0 
0 0 0 0 0 0 0 0 0 
0 0 0 0 0 0 0 0 0 
0 0 0 0 0 0 0 0 0 
0 0 0 0 0 0 0 0 0 
0 0 0 0 0 0 0 0 0 
0 0 0 0 0 0 0 0 0 
0 0 0 0 0 0 0 0 0 
0 0 0 0 0 0 0 0 0 
0 0 0 0 0 0 0 0 0 
0 0 0 0 0 0 0 0 0 
0 0 0 0 0 0 0 0 0 
0 0 0 0 0 0 0 0 0 
0 0 0 0 0 0 0 0 0 
0 0 0 0 0 0 0 0 0 
0 0 0 0 0 0 0 0 0 
0 0 0 0 0 0 0 0 0 
0 0 0 0 0 0 0 0 0 
0 0 0 0 0 0 0 0 0 
0 0 0 0 0 0 0 0 0 
0 0 0 0 0 0 0 0 0 
0 0 0 0 0 0 0 0 0 
0 0 0 0 0 0 0 0 0 
0 0 0 0 0 0 0 0 0 
0 0 0 0 0 0 0 0 0 
0 0 0 0 0 0 0 0 0 

fz_mag_viz 1 648 double
0 0 0 0 0 0 0 0 0 
0 0 0 0 0 0 0 0 0 
0 0 0 0 0 0 0 0 0 
0 0 0 0 0 0 0 0 0 
0 0 0 0 0 0 0 0 0 
0 0 0 0 0 0 0 0 0 
0 0 0 0 0 0 0 0 0 
0 0 0 0 0 0 0 0 0 
0 0 0 0 0 0 0 0 0 
0 0 0 0 0 0 0 0 0 
0 0 0 0 0 0 0 0 0 
0 0 0 0 0 0 0 0 0 
0 0 0 0 0 0 0 0 0 
0 0 0 0 0 0 0 0 0 
0 0 0 0 0 0 0 0 0 
0 0 0 0 0 0 0 0 0 
0 0 0 0 0 0 0 0 0 
0 0 0 0 0 0 0 0 0 
0 0 0 0 0 0 0 0 0 
0 0 0 0 0 0 0 0 0 
0 0 0 0 0 0 0 0 0 
0 0 0 0 0 0 0 0 0 
0 0 0 0 0 0 0 0 0 
0 0 0 0 0 0 0 0 0 
0 0 0 0 0 0 0 0 0 
0 0 0 0 0 0 0 0 0 
0 0 0 0 0 0 0 0 0 
0 0 0 0 0 0 0 0 0 
0 0 0 0 0 0 0 0 0 
0 0 0 0 0 0 0 0 0 
0 0 0 0 0 0 0 0 0 
0 0 0 0 0 0 0 0 0 
0 0 0 0 0 0 0 0 0 
0 0 0 0 0 0 0 0 0 
0 0 0 0 0 0 0 0 0 
0 0 0 0 0 0 0 0 0 
0 0 0 0 0 0 0 0 0 
0 0 0 0 0 0 0 0 0 
0 0 0 0 0 0 0 0 0 
0 0 0 0 0 0 0 0 0 
0 0 0 0 0 0 0 0 0 
0 0 0 0 0 0 0 0 0 
0 0 0 0 0 0 0 0 0 
0 0 0 0 0 0 0 0 0 
0 0 0 0 0 0 0 0 0 
0 0 0 0 0 0 0 0 0 
0 0 0 0 0 0 0 0 0 
0 0 0 0 0 0 0 0 0 
0 0 0 0 0 0 0 0 0 
0 0 0 0 0 0 0 0 0 
0 0 0 0 0 0 0 0 0 
0 0 0 0 0 0 0 0 0 
0 0 0 0 0 0 0 0 0 
0 0 0 0 0 0 0 0 0 
0 0 0 0 0 0 0 0 0 
0 0 0 0 0 0 0 0 0 
0 0 0 0 0 0 0 0 0 
0 0 0 0 0 0 0 0 0 
0 0 0 0 0 0 0 0 0 
0 0 0 0 0 0 0 0 0 
0 0 0 0 0 0 0 0 0 
0 0 0 0 0 0 0 0 0 
0 0 0 0 0 0 0 0 0 
0 0 0 0 0 0 0 0 0 
0 0 0 0 0 0 0 0 0 
0 0 0 0 0 0 0 0 0 
0 0 0 0 0 0 0 0 0 
0 0 0 0 0 0 0 0 0 
0 0 0 0 0 0 0 0 0 
0 0 0 0 0 0 0 0 0 
0 0 0 0 0 0 0 0 0 
0 0 0 0 0 0 0 0 0 

B_magnitude 1 648 double
0 0 0 0 0 0 0 0 0 
0 0 0 0 0 0 0 0 0 
0 0 0 0 0 0 0 0 0 
0 0 0 0 0 0 0 0 0 
0 0 0 0 0 0 0 0 0 
0 0 0 0 0 0 0 0 0 
0 0 0 0 0 0 0 0 0 
0 0 0 0 0 0 0 0 0 
0 0 0 0 0 0 0 0 0 
0 0 0 0 0 0 0 0 0 
0 0 0 0 0 0 0 0 0 
0 0 0 0 0 0 0 0 0 
0 0 0 0 0 0 0 0 0 
0 0 0 0 0 0 0 0 0 
0 0 0 0 0 0 0 0 0 
0 0 0 0 0 0 0 0 0 
0 0 0 0 0 0 0 0 0 
0 0 0 0 0 0 0 0 0 
0 0 0 0 0 0 0 0 0 
0 0 0 0 0 0 0 0 0 
0 0 0 0 0 0 0 0 0 
0 0 0 0 0 0 0 0 0 
0 0 0 0 0 0 0 0 0 
0 0 0 0 0 0 0 0 0 
0 0 0 0 0 0 0 0 0 
0 0 0 0 0 0 0 0 0 
0 0 0 0 0 0 0 0 0 
0 0 0 0 0 0 0 0 0 
0 0 0 0 0 0 0 0 0 
0 0 0 0 0 0 0 0 0 
0 0 0 0 0 0 0 0 0 
0 0 0 0 0 0 0 0 0 
0 0 0 0 0 0 0 0 0 
0 0 0 0 0 0 0 0 0 
0 0 0 0 0 0 0 0 0 
0 0 0 0 0 0 0 0 0 
0 0 0 0 0 0 0 0 0 
0 0 0 0 0 0 0 0 0 
0 0 0 0 0 0 0 0 0 
0 0 0 0 0 0 0 0 0 
0 0 0 0 0 0 0 0 0 
0 0 0 0 0 0 0 0 0 
0 0 0 0 0 0 0 0 0 
0 0 0 0 0 0 0 0 0 
0 0 0 0 0 0 0 0 0 
0 0 0 0 0 0 0 0 0 
0 0 0 0 0 0 0 0 0 
0 0 0 0 0 0 0 0 0 
0 0 0 0 0 0 0 0 0 
0 0 0 0 0 0 0 0 0 
0 0 0 0 0 0 0 0 0 
0 0 0 0 0 0 0 0 0 
0 0 0 0 0 0 0 0 0 
0 0 0 0 0 0 0 0 0 
0 0 0 0 0 0 0 0 0 
0 0 0 0 0 0 0 0 0 
0 0 0 0 0 0 0 0 0 
0 0 0 0 0 0 0 0 0 
0 0 0 0 0 0 0 0 0 
0 0 0 0 0 0 0 0 0 
0 0 0 0 0 0 0 0 0 
0 0 0 0 0 0 0 0 0 
0 0 0 0 0 0 0 0 0 
0 0 0 0 0 0 0 0 0 
0 0 0 0 0 0 0 0 0 
0 0 0 0 0 0 0 0 0 
0 0 0 0 0 0 0 0 0 
0 0 0 0 0 0 0 0 0 
0 0 0 0 0 0 0 0 0 
0 0 0 0 0 0 0 0 0 
0 0 0 0 0 0 0 0 0 
0 0 0 0 0 0 0 0 0 

B_gradient_mag 1 648 double
0 0 0 0 0 0 0 0 0 
0 0 0 0 0 0 0 0 0 
0 0 0 0 0 0 0 0 0 
0 0 0 0 0 0 0 0 0 
0 0 0 0 0 0 0 0 0 
0 0 0 0 0 0 0 0 0 
0 0 0 0 0 0 0 0 0 
0 0 0 0 0 0 0 0 0 
0 0 0 0 0 0 0 0 0 
0 0 0 0 0 0 0 0 0 
0 0 0 0 0 0 0 0 0 
0 0 0 0 0 0 0 0 0 
0 0 0 0 0 0 0 0 0 
0 0 0 0 0 0 0 0 0 
0 0 0 0 0 0 0 0 0 
0 0 0 0 0 0 0 0 0 
0 0 0 0 0 0 0 0 0 
0 0 0 0 0 0 0 0 0 
0 0 0 0 0 0 0 0 0 
0 0 0 0 0 0 0 0 0 
0 0 0 0 0 0 0 0 0 
0 0 0 0 0 0 0 0 0 
0 0 0 0 0 0 0 0 0 
0 0 0 0 0 0 0 0 0 
0 0 0 0 0 0 0 0 0 
0 0 0 0 0 0 0 0 0 
0 0 0 0 0 0 0 0 0 
0 0 0 0 0 0 0 0 0 
0 0 0 0 0 0 0 0 0 
0 0 0 0 0 0 0 0 0 
0 0 0 0 0 0 0 0 0 
0 0 0 0 0 0 0 0 0 
0 0 0 0 0 0 0 0 0 
0 0 0 0 0 0 0 0 0 
0 0 0 0 0 0 0 0 0 
0 0 0 0 0 0 0 0 0 
0 0 0 0 0 0 0 0 0 
0 0 0 0 0 0 0 0 0 
0 0 0 0 0 0 0 0 0 
0 0 0 0 0 0 0 0 0 
0 0 0 0 0 0 0 0 0 
0 0 0 0 0 0 0 0 0 
0 0 0 0 0 0 0 0 0 
0 0 0 0 0 0 0 0 0 
0 0 0 0 0 0 0 0 0 
0 0 0 0 0 0 0 0 0 
0 0 0 0 0 0 0 0 0 
0 0 0 0 0 0 0 0 0 
0 0 0 0 0 0 0 0 0 
0 0 0 0 0 0 0 0 0 
0 0 0 0 0 0 0 0 0 
0 0 0 0 0 0 0 0 0 
0 0 0 0 0 0 0 0 0 
0 0 0 0 0 0 0 0 0 
0 0 0 0 0 0 0 0 0 
0 0 0 0 0 0 0 0 0 
0 0 0 0 0 0 0 0 0 
0 0 0 0 0 0 0 0 0 
0 0 0 0 0 0 0 0 0 
0 0 0 0 0 0 0 0 0 
0 0 0 0 0 0 0 0 0 
0 0 0 0 0 0 0 0 0 
0 0 0 0 0 0 0 0 0 
0 0 0 0 0 0 0 0 0 
0 0 0 0 0 0 0 0 0 
0 0 0 0 0 0 0 0 0 
0 0 0 0 0 0 0 0 0 
0 0 0 0 0 0 0 0 0 
0 0 0 0 0 0 0 0 0 
0 0 0 0 0 0 0 0 0 
0 0 0 0 0 0 0 0 0 
0 0 0 0 0 0 0 0 0 

