# vtk DataFile Version 5.1
Generated by LIGGGHTS
ASCII
DATASET POLYDATA
POINTS 648 float
-0.0428902 -0.0449088 0.00102026 -0.0346971 -0.0446764 0.00149782 -0.0248654 -0.0427111 0.00135893 
0.0238162 -0.0409762 0.0015323 0.040047 -0.0404588 0.00115518 -0.00302782 -0.0385948 0.00117422 
0.00798734 -0.0367051 0.00102 0.0397687 -0.0374633 0.00131333 0.0346336 -0.0325969 0.00148014 
-0.0386911 -0.0311434 0.00148439 -0.0266532 -0.0301716 0.00115953 -0.0105296 -0.0314142 0.00104942 
0.0164647 -0.0275391 0.0013476 0.03382 -0.0268981 0.00132862 0.033456 -0.0256735 0.0012598 
0.0336491 -0.0197505 0.00117631 -0.0108877 -0.0188832 0.00105291 0.0249316 -0.014475 0.00132522 
0.00689113 -0.0107816 0.00116965 0.0350526 -0.0102353 0.0011272 -0.0214415 -0.007536 0.00145272 
-0.0198564 -0.00683511 0.00104685 -0.0135858 -0.00672635 0.00125502 -0.0129003 -0.00574839 0.00102339 
-0.040885 -0.00406647 0.00121861 0.00937085 -0.00418454 0.00122405 -0.0179231 -0.00300678 0.00102 
-0.0408474 -0.00214648 0.00129123 0.00664535 -0.00164817 0.00148645 -0.0376932 -0.000132947 0.00130914 
-0.00783961 -0.000387029 0.00108779 0.0384376 0.000848974 0.00102 -0.00967086 0.00179773 0.00108096 
0.00417698 0.0024455 0.00104966 0.0362421 0.00170773 0.00146069 0.0292006 0.00433004 0.00124499 
0.0305447 0.00486582 0.00119021 -0.0287984 0.00559412 0.00120232 0.021602 0.00540593 0.00108642 
-0.0426568 0.00723228 0.00124857 0.0212596 0.00979192 0.00118306 0.0399323 0.0117688 0.00103729 
0.0261916 0.0119357 0.00143591 -0.034865 0.0142961 0.00104611 -0.0310202 0.0131063 0.00102799 
0.0143092 0.0139794 0.00124786 0.0248423 0.0143007 0.00124736 0.0287781 0.014071 0.00119915 
-0.0360536 0.0173104 0.00112236 0.0215224 0.0171285 0.00121438 0.0226738 0.0181095 0.00129563 
0.0388885 0.0193682 0.0012972 -0.0431379 0.0208085 0.0014294 -0.0153727 0.020636 0.00116039 
-0.0282566 0.021284 0.0012137 0.0123926 0.0218243 0.0010493 0.03506 0.0228899 0.00115027 
0.0258603 0.0235991 0.0014209 0.0167463 0.0251763 0.00103885 -0.0114472 0.026715 0.00154538 
0.00284552 0.0345861 0.00103972 -0.00196307 0.0366495 0.00148677 0.0297434 0.0373158 0.00117394 
0.0165329 0.0385374 0.00113741 -0.0390027 0.0421086 0.00118477 -0.00340304 -0.0448428 0.00210085 
-0.044759 -0.0437614 0.00187125 -0.0308094 -0.0435702 0.00166957 -0.027409 -0.0433703 0.00253895 
0.0145521 -0.0432303 0.00167098 0.0181024 -0.0433049 0.0026606 0.0416479 -0.0439733 0.00109658 
0.0248068 -0.0428986 0.00162523 0.0348044 -0.042095 0.00242621 0.0418836 -0.0421436 0.00219916 
-0.0349861 -0.0412827 0.0010492 0.0414821 -0.0410789 0.00242262 -0.018434 -0.0405477 0.00241346 
-0.00670669 -0.0394183 0.00239001 0.0244803 -0.0401788 0.00199304 -0.0108246 -0.0388127 0.00249618 
0.0156715 -0.0391733 0.00119057 -0.0370475 -0.0370945 0.00194835 0.0308099 -0.0378456 0.00199656 
-0.0439713 -0.0357399 0.00263591 0.000822496 -0.0363122 0.00226668 0.0077947 -0.0345433 0.00118023 
0.00879071 -0.0344865 0.00256604 0.0333162 -0.0342631 0.00209248 -0.0427235 -0.0332389 0.00265324 
0.023158 -0.0340207 0.00183502 0.0244271 -0.0334586 0.00221874 -0.0262624 -0.032473 0.0025073 
-0.0232422 -0.0321576 0.00183997 0.00802514 -0.031483 0.00226236 0.0268369 -0.0315202 0.00119392 
0.0280204 -0.0311414 0.00169811 0.0449741 -0.0303513 0.00263277 -0.0448384 -0.0296834 0.00175605 
0.0346338 -0.0290927 0.0021694 0.00577088 -0.0287415 0.00135852 -0.0430551 -0.0267583 0.00239107 
-0.0240719 -0.0268296 0.00215971 -0.00580099 -0.0272788 0.00247546 -0.0338231 -0.0250135 0.00229109 
0.0306875 -0.0259396 0.00248478 0.032808 -0.025967 0.00159067 0.0155599 -0.0240909 0.00204751 
-0.0408326 -0.0234295 0.00135709 0.00623721 -0.0211799 0.00268318 0.0233461 -0.0214624 0.00229316 
0.0436787 -0.0219137 0.00174773 -0.00827992 -0.020547 0.00260822 -0.0317771 -0.0175651 0.00161285 
-0.0204621 -0.0172006 0.00180683 0.0030191 -0.0179247 0.00177493 0.0404767 -0.0183151 0.00185515 
0.0223879 -0.0163393 0.00157125 0.0268005 -0.0146468 0.002721 -0.0329121 -0.0139828 0.00272423 
0.0403752 -0.0143085 0.00170233 -0.0341597 -0.0122829 0.00183552 -0.0269092 -0.0125643 0.00281499 
0.0176437 -0.0119747 0.00261276 0.0277003 -0.0107969 0.00187906 -0.0196799 -0.00931279 0.00187514 
-0.0112192 -0.0104501 0.00167485 0.00743742 -0.00926665 0.00147708 0.0251729 -0.00985964 0.00261152 
0.0313953 -0.00974065 0.00252305 -0.00254943 -0.00825679 0.00258716 -0.0304645 -0.00701594 0.00278455 
-0.00401126 -0.00720159 0.00175317 0.0404774 -0.00688032 0.00224064 -0.00747582 -0.00609419 0.00259643 
0.0387156 -0.00624884 0.0023004 0.0131353 -0.00504642 0.00219886 -0.0120059 -0.00345367 0.0026127 
-0.0281455 -0.00127675 0.00178744 -0.00702036 -0.00121172 0.00209102 -0.0416237 0.00110806 0.00161881 
0.0147261 0.00139147 0.00219172 0.032558 0.00153523 0.00165327 -0.0325416 0.00283857 0.00224184 
-0.025141 0.00447188 0.00215143 0.0404406 0.00462082 0.00233146 -0.037077 0.00611456 0.00206444 
-0.0170872 0.00564833 0.00136732 -0.00723413 0.00605583 0.00175711 0.0011249 0.00615697 0.00113463 
0.0228765 0.00606581 0.00165587 0.0246705 0.0064451 0.00239411 0.00533928 0.00728904 0.00115981 
0.0142017 0.0079404 0.00233117 0.0202046 0.00840095 0.00230812 0.0283387 0.00890506 0.00247179 
-0.0392616 0.00972366 0.00192903 -0.0214351 0.00957734 0.00172531 -0.0101256 0.00978275 0.00196569 
0.00474506 0.0103043 0.00168344 0.0197977 0.00963841 0.00220549 0.0211953 0.00966092 0.00212454 
-0.0394276 0.0109375 0.0010993 -0.0365733 0.0119208 0.00220711 -0.00279986 0.0127222 0.00242466 
0.00243185 0.0120975 0.00206496 0.0128044 0.0127337 0.00106714 0.014866 0.0127598 0.00216183 
-0.0429188 0.0135204 0.00174808 8.23501e-07 0.0138406 0.00229792 0.0336082 0.013194 0.0013434 
-0.0196462 0.0155185 0.00173792 -0.00307286 0.0144526 0.00245056 0.000954082 0.0152563 0.00246682 
0.0407412 0.0174253 0.00215624 -0.0214239 0.0189608 0.00147943 0.0122157 0.0191756 0.00119986 
0.018015 0.0183735 0.0019288 -0.023041 0.0197144 0.00194651 -0.022709 0.0198803 0.00239495 
0.00128112 0.0217131 0.00260014 -0.0421793 0.0225172 0.00123362 -0.0349287 0.0230684 0.00180443 
0.0146363 0.0223077 0.00194903 -0.0267196 0.0236159 0.00169191 0.000162142 0.0251126 0.0028022 
0.0226957 0.0260881 0.00236009 -0.0190887 0.0269029 0.00146265 0.00953871 0.0271324 0.00228096 
0.0395905 0.0272142 0.00220896 -0.0357156 0.0282031 0.0026411 -0.0376379 0.0294143 0.00144422 
-0.0127911 0.0299546 0.00241691 -0.0409258 0.0305044 0.00110058 -0.0200898 0.0311527 0.00236624 
-0.0108954 0.0304 0.0026898 0.00372347 0.0304157 0.00241819 0.026696 0.03017 0.00259238 
0.0444958 0.0309554 0.00173574 -0.00435696 0.0325462 0.00231463 0.00390562 0.0317225 0.00247698 
0.0372507 0.0318783 0.00162085 -0.0337286 0.0337045 0.0020108 -0.0264781 0.032823 0.00169205 
0.0231674 0.0340949 0.00236894 -0.0245447 0.0378537 0.00218874 0.0311732 0.0371467 0.00104338 
-0.00973825 0.0391656 0.00238902 0.0238959 0.0383247 0.0023192 -0.0375088 0.0393741 0.00175947 
-0.0112537 0.0395394 0.00254007 0.0221021 0.0401282 0.00257574 0.0251972 0.0393087 0.0014695 
-0.0133259 0.0414802 0.00162008 0.0163992 0.0415262 0.00180719 0.0222253 0.0407186 0.00242655 
0.0294278 0.0431452 0.00214991 -0.0181988 0.0434549 0.0010566 0.0405446 0.0433429 0.00218977 
0.0399235 0.0434757 0.00246174 -0.0335565 -0.0442122 0.00328074 -0.00674967 -0.0416523 0.00273638 
-0.042922 -0.0404536 0.00258097 -0.0334706 -0.0396012 0.00277257 -0.0248652 -0.040212 0.00329884 
-0.0273176 -0.0361067 0.00223221 -0.0168273 -0.0360331 0.002794 0.00594186 -0.0351889 0.00334533 
-0.00586029 -0.0338127 0.0024339 -0.0376897 -0.0314333 0.00237559 -0.0263426 -0.0292431 0.00292689 
-0.0240024 -0.0280603 0.00231124 0.000892701 -0.0263701 0.00285968 0.00538025 -0.0241403 0.00190133 
-0.0225401 -0.0213878 0.00296425 0.039775 -0.0211058 0.00326261 0.00548761 -0.0197918 0.00243947 
-0.0296942 -0.0196153 0.0029857 0.00156248 -0.0194187 0.00342138 0.0363266 -0.0194176 0.00268167 
-0.0328213 -0.0176588 0.00305253 -0.0100897 -0.0180162 0.00332692 -0.0426154 -0.0165053 0.00319353 
-0.0339565 -0.0167518 0.00278014 -0.0257955 -0.0157834 0.00294555 -0.015814 -0.0152491 0.00291058 
-0.00444012 -0.0151621 0.00252683 0.0198229 -0.0156851 0.00302625 0.0375745 -0.0151367 0.00309372 
-0.0388614 -0.0136303 0.00321667 -0.0227164 -0.0141288 0.00317732 -0.0117656 -0.0138394 0.00307631 
-0.038829 -0.00978443 0.00198884 -0.0222502 -0.00974669 0.00283664 0.013874 -0.00963069 0.00314412 
0.0286804 -0.00919085 0.00334724 0.0406218 -0.0100941 0.00207499 -0.00553214 -0.00871323 0.00270006 
0.0109664 -0.00760095 0.00310707 0.00523139 -0.00599236 0.00180689 0.021323 -0.00444137 0.00263214 
-0.042786 -0.00359954 0.00278773 -0.0141425 -0.00311887 0.00305504 0.0290986 -0.000251763 0.00280066 
-0.0260142 0.00017485 0.00278704 0.0407777 0.000744206 0.00207145 0.0188762 0.00181355 0.00295386 
0.0449494 0.00392273 0.00291385 0.0323225 0.00436429 0.00232428 0.0101693 0.00555192 0.00293072 
0.0250346 0.00641518 0.00296657 0.030759 0.00580352 0.00298738 0.0332757 0.00539899 0.00286765 
0.0221269 0.00728552 0.00290038 0.0340899 0.00882812 0.00328491 0.0398091 0.011618 0.00332948 
0.00861143 0.0123591 0.00265352 -0.00867948 0.0139924 0.00300542 0.0121458 0.0151918 0.00298035 
0.00517921 0.0169249 0.00255184 0.0418335 0.0161761 0.00300445 0.00395304 0.0187088 0.00299995 
0.00757299 0.0192258 0.00280502 0.0090081 0.0191686 0.00326268 0.0362273 0.0220011 0.00243095 
-0.00782209 0.0241861 0.00352275 0.0181332 0.0246356 0.00393009 0.0307708 0.0242663 0.0031997 
-0.0386663 0.0253433 0.00319707 -0.00739359 0.0259593 0.00273509 -0.0267569 0.0263983 0.00316733 
-0.00563177 0.0268155 0.00344947 0.00834461 0.0278725 0.00237997 0.0191509 0.0299648 0.00306856 
0.0434247 0.0295768 0.00232094 -0.0313244 0.0314049 0.00277992 0.0038092 0.0311583 0.00259603 
0.0364634 0.0310238 0.00272647 -0.0073504 0.0318329 0.00270917 0.01325 0.0319187 0.00326563 
0.00317215 0.0343196 0.00293798 -0.041477 0.0364172 0.00272523 0.0030545 0.0369981 0.00249728 
-0.0312382 0.0393096 0.00289923 0.00805094 0.0422278 0.00285233 -0.0205282 0.0432397 0.00272512 
0.0114086 0.0440135 0.00259326 0.0352379 0.0438995 0.00225709 0.0171919 0.0449185 0.0022843 
0.0211706 0.0445491 0.00276805 0.0424299 -0.0409921 0.00395011 -0.0169239 -0.0402939 0.00378433 
0.0195647 -0.0366528 0.00385247 0.00231692 -0.0294453 0.00396292 0.0115492 -0.0227248 0.00446639 
-0.0186412 -0.0134353 0.00438998 -0.0327621 -0.0121928 0.00434359 -0.00433253 -0.00676057 0.00403187 
0.0161928 -0.00760918 0.00340165 0.0180565 -0.00487531 0.00415702 0.00975646 -0.00313231 0.00430153 
-0.00896956 -0.00131708 0.00379434 -0.0406381 0.00555966 0.00335285 -0.0350204 0.0121089 0.00423531 
0.00789931 0.0136568 0.00417612 0.0441199 0.0136981 0.00385751 -0.00443291 0.0160613 0.00401603 
-0.0295899 0.0232577 0.00381658 0.00519606 0.0301696 0.00323478 0.0352701 0.0439749 0.00443335 
0.0131812 -0.0427533 0.00446188 0.0166138 -0.0412108 0.00576711 0.0338942 -0.0410147 0.00484825 
0.00985621 -0.0367022 0.00563253 -0.00161929 -0.0353994 0.0053077 0.0403097 -0.0347888 0.00562124 
0.027474 -0.0338615 0.00490344 -0.0401314 -0.0280847 0.00553392 0.0102479 -0.024092 0.00504449 
0.035159 -0.023363 0.0057317 -0.0164034 -0.0216001 0.00466173 -0.0405162 -0.0161033 0.00595373 
0.038292 -0.016257 0.00507182 -0.0408642 -0.0154151 0.00480977 -0.0344646 -0.00725539 0.00531069 
0.0275881 -0.00673863 0.00579528 0.0180458 -0.00470109 0.00530061 0.0293019 -0.00298432 0.00515135 
0.00243665 0.00282786 0.00505215 0.00978397 0.00922321 0.00505702 0.0311878 0.014057 0.00540286 
0.0256029 0.0175394 0.00560196 0.0350116 0.0207306 0.00495098 -0.0122989 0.0222019 0.00487175 
0.0398418 0.0217469 0.00569494 0.0438582 0.0244724 0.00497947 -0.00647711 0.0391566 0.00557303 
-0.00585061 0.0388609 0.00550601 0.0281745 0.039089 0.00564907 -0.00396528 -0.0444182 0.00703554 
-0.0309963 -0.0355024 0.00623087 0.0433459 -0.0353282 0.00623062 -0.0160452 -0.0323821 0.00689336 
-0.0220587 -0.0306349 0.0067384 -0.0414327 -0.0290659 0.00631989 0.023019 -0.0293484 0.00685553 
0.0101031 -0.0273014 0.00694731 -0.00863888 -0.0237376 0.00671214 -0.0127621 -0.0231756 0.00703275 
0.0394323 -0.021923 0.00602057 -0.0147645 -0.0165889 0.00702173 0.0323803 -0.0150629 0.00676795 
0.0334462 -0.00930086 0.00701676 -0.00941413 -0.00330341 0.0059943 -0.0283489 -0.000417126 0.00628259 
0.0140084 -6.89735e-05 0.00631533 0.0116524 0.00206193 0.00618703 -0.0105861 0.00898083 0.00699713 
-0.0408092 0.00981999 0.00631865 -0.00831541 0.0129665 0.00603071 -0.00841171 0.0143034 0.00624101 
0.0396593 0.013993 0.00675677 -0.0287332 0.0215601 0.00652687 0.00126512 0.0228658 0.00607438 
0.00264144 0.0247174 0.00698474 0.0193546 0.0324404 0.00677109 -0.0407273 0.0358476 0.00646575 
-0.00883869 0.0381834 0.00592848 0.0195053 -0.043722 0.00783243 0.0201641 -0.0426709 0.00805396 
-0.0136468 -0.0412372 0.00809988 0.000425919 -0.0415728 0.00751481 0.0355384 -0.0354155 0.0083577 
-0.0161578 -0.0337243 0.00788098 -0.0233761 -0.031813 0.0082529 0.00179778 -0.0247441 0.00829241 
0.00558373 -0.0242787 0.00713617 0.0240101 -0.0228809 0.00715516 -0.0210835 -0.0209207 0.00766123 
-0.0033641 -0.0204173 0.00770705 0.0252581 -0.0163235 0.00841414 -0.0313057 -0.0141988 0.00837734 
-0.042331 -0.00792816 0.00753073 -0.0343844 -0.0078404 0.00823732 0.0200271 -0.00425623 0.00776879 
-0.0107529 -0.00365687 0.00753782 0.0168839 -0.00210364 0.00717681 -0.0153419 -0.00108619 0.00725854 
0.0183943 0.00266245 0.00838054 0.0440772 0.0154938 0.00811755 -0.0148746 0.0223253 0.00710026 
-0.0219587 0.0304934 0.00739984 0.0191028 0.0315895 0.00780208 0.00727395 0.0332762 0.00712698 
0.0214431 0.0335886 0.00795214 -0.00472634 0.0344449 0.00748153 0.00888594 0.0360502 0.00806961 
0.00201585 0.0404036 0.00823406 0.00528787 0.0432844 0.00717504 -0.0177803 -0.0340186 0.00876284 
0.0153133 -0.0285941 0.00873378 -0.00446216 -0.0255279 0.00893039 -0.0350278 -0.0224863 0.00862439 
0.0144468 -0.013247 0.00844418 -0.00528066 -0.0121118 0.00870119 -0.0136128 -0.00979682 0.00941841 
-0.0211095 -0.00770044 0.00946805 0.0129906 -0.00677597 0.00990517 -0.0253129 -0.0039775 0.00961448 
-0.0395569 -0.00227866 0.00902008 -0.0198668 -0.00211416 0.00878898 -0.00229178 0.0020129 0.00922166 
0.00314898 0.00491531 0.0100143 0.0260144 0.00429017 0.00925273 -0.0429246 0.00657681 0.00862165 
-0.0349081 0.00917553 0.00860012 -0.0231109 0.0157017 0.0090701 0.00546842 0.0177814 0.00889412 
0.00976854 0.0197772 0.00894467 -0.0128609 0.0265935 0.00843892 -0.0425374 0.0333781 0.00880732 
0.0278529 0.0342296 0.0095305 -0.0390775 0.0447256 0.00975792 0.0262096 -0.0449372 0.0112816 
0.0406519 -0.0427256 0.0107966 -0.0406141 -0.0405112 0.0105618 0.0325128 -0.03812 0.0109492 
-0.0177429 -0.0346724 0.0109004 -0.0346801 -0.0287009 0.0101218 0.0347572 -0.0260666 0.0102757 
-0.0323128 -0.0219837 0.0111414 0.0132043 -0.01541 0.010233 -0.0279963 -0.0141356 0.0100307 
-0.000610522 -0.00103491 0.0112511 -0.0261639 0.00337815 0.0106065 -0.0233311 0.00384073 0.0104526 
0.0358407 0.00533501 0.0106612 0.0110904 0.00657535 0.0111125 -0.019893 0.00878872 0.0107488 
0.0234497 0.00978487 0.0105904 -0.00071691 0.0108932 0.00993756 -0.0408838 0.0159645 0.0105797 
0.00976298 0.0163696 0.0101642 -0.0193355 0.018129 0.0100776 0.00742845 0.0199749 0.0107253 
-0.0324762 0.0230005 0.0100929 0.021223 0.0244832 0.010738 0.0397191 0.0283771 0.0105305 
-0.0213481 0.0319153 0.0108709 0.0152528 0.033152 0.0106034 0.00367032 0.0371324 0.0109459 
-0.0160353 0.0448572 0.0111319 -0.0389435 -0.0425966 0.0118238 0.0339316 -0.041715 0.0124006 
0.00849583 -0.0405939 0.0123916 -0.0195638 -0.0385913 0.0118747 0.0341086 -0.0368686 0.0123293 
-8.23525e-05 -0.034098 0.0116984 0.0350196 -0.0250011 0.011639 0.0109547 -0.0235646 0.0111839 
-0.0207996 -0.0190456 0.0121908 0.0204492 -0.0194639 0.0119617 0.0184681 -0.0172117 0.0121709 
0.0322358 -0.0130621 0.0120385 0.0253763 -0.011051 0.0121766 0.0414517 -0.0114994 0.0121844 
-0.0253401 -0.0103599 0.0121817 0.0189244 0.00254502 0.01192 0.00265626 0.00371614 0.0126026 
-0.0403489 0.00598291 0.0118564 -0.009285 0.00693532 0.0115232 -0.00598638 0.00689803 0.0118379 
0.0324887 0.00836074 0.0116287 -0.0408306 0.00999374 0.0116625 0.027557 0.009967 0.0119002 
-0.00808524 0.0113378 0.0113795 0.0114764 0.0140289 0.0118126 0.012949 0.0143048 0.0121705 
-0.0436572 0.0238848 0.0121851 0.0040127 0.0314243 0.0118292 0.0337272 0.0324898 0.0118519 
0.0380057 0.0324307 0.0115516 -0.039126 0.0399637 0.0123163 -0.0289295 -0.0389067 0.0132849 
0.00264867 -0.0338128 0.0133997 -0.0210092 -0.0320472 0.0127437 0.0392765 -0.0300093 0.0125895 
0.0210005 -0.0239559 0.0130588 -0.0291427 -0.0219343 0.0130661 0.0134129 -0.0192809 0.0135817 
-0.00710141 -0.0133745 0.0133483 0.00886689 -0.0141191 0.0129962 -0.0150798 -0.00698339 0.0126064 
0.039455 -0.000236508 0.012613 0.0420414 -0.00101026 0.0125075 -0.027449 0.00511055 0.0133442 
-0.01547 0.00642247 0.0135711 -0.00552594 0.00555795 0.0136504 -0.0287818 0.014969 0.0128293 
-0.0286532 0.0159811 0.0131815 -0.00317984 0.0164631 0.0134128 -0.0363159 0.0185996 0.0128361 
-0.0102477 0.0267602 0.0127995 -0.0214233 0.0285543 0.0127475 -0.0406313 0.0295913 0.0131931 
0.0164577 0.0353116 0.0131158 -0.00750544 0.0361316 0.0136264 0.00308146 0.0401468 0.0137658 
0.0170579 0.0421878 0.0129577 -0.0317519 -0.0446953 0.0143265 0.0307351 -0.0355434 0.0149172 
-0.0179089 -0.0346335 0.0144947 0.043014 -0.0343178 0.0148969 0.010226 -0.0308634 0.0149951 
0.0156293 -0.0283842 0.0143775 -0.0432264 -0.0264101 0.0141245 -0.0419519 -0.0259749 0.0151432 
0.0054016 -0.025334 0.0141032 0.0262592 -0.0217201 0.0151581 0.0296492 -0.015918 0.014001 
0.0347312 -0.012978 0.0143137 0.0342493 -0.0115037 0.0151108 0.0218314 -0.00971151 0.0146273 
-0.0101373 -0.00698039 0.0146563 -0.00720807 -0.00608605 0.015033 0.00127443 -0.000618905 0.0139992 
-0.0332593 0.000859011 0.0144776 0.00347554 0.00338662 0.0150261 0.0320014 0.00756294 0.0144735 
-0.0161548 0.0159009 0.0145996 -0.0436896 0.0195853 0.0145479 -0.0245993 0.0193658 0.0154079 
-0.0138035 0.0240512 0.0145331 -0.0132251 0.0252506 0.0144644 -0.032208 0.0306075 0.0143895 
0.0354139 0.0312817 0.0153775 -0.0197415 0.0344175 0.0154485 -0.0155539 0.0359545 0.0156503 
-0.0234086 -0.038644 0.0156321 -0.00338111 -0.0363358 0.0153615 0.0419483 -0.0348097 0.0158422 
-0.0396817 -0.0304797 0.0161076 -0.038621 -0.0229432 0.0158691 -0.0139777 -0.0223984 0.0163009 
-0.0183202 -0.0175475 0.016215 0.0282033 -0.0178095 0.0154463 0.0223025 -0.0112244 0.0162268 
-0.00254916 -0.00379952 0.0168675 -0.0131355 0.00164571 0.0154512 -0.0137512 0.00384646 0.0156082 
0.0277548 0.0042931 0.0158511 0.00418285 0.0112423 0.0161508 0.0153641 0.0146287 0.01643 
0.00153271 0.0201988 0.0161196 -0.0269229 0.0267788 0.0157308 -0.0152062 0.0294088 0.0153149 
-0.0368667 0.0306348 0.016237 0.0104707 0.0313218 0.0164133 -0.0359241 0.0337864 0.0161373 
-0.0422696 0.0340949 0.0163398 0.0132394 0.0345575 0.0162095 -0.0379532 0.0399341 0.0157241 
-0.00785852 0.041878 0.0161062 0.0430506 0.0422314 0.0160521 -0.0190394 0.0446837 0.0161592 
0.0185094 -0.042363 0.0174246 -0.00521279 -0.0413279 0.0178028 -0.0385899 -0.0405251 0.0174031 
0.0188903 -0.0308528 0.0174244 0.0412685 -0.0295104 0.017453 -0.015788 -0.0282898 0.0174892 
-0.0207679 -0.0256315 0.0175515 0.0414834 -0.0181367 0.0181074 -0.0393221 -0.0167834 0.0175261 
0.0323804 -0.0132471 0.0170682 0.0433204 -0.0141837 0.0173371 -0.0207563 -0.0111167 0.0176418 
-0.0449336 -0.00957357 0.0180731 -0.0326334 -0.00963456 0.0176348 -0.00474481 -0.00600267 0.0170722 
0.0414788 -0.00521487 0.0175971 0.0448793 -0.00396119 0.0172749 0.00643655 -0.000956063 0.0180589 
-0.00757157 0.00454821 0.0178838 -0.0371624 0.011326 0.0180637 0.0379188 0.0120326 0.0178917 
-0.0081225 0.0151775 0.0180465 0.012585 0.0155082 0.0167143 0.0323341 0.0191974 0.0178594 
-0.0256005 0.0215871 0.0175269 0.00513794 0.0433856 0.0174933 -0.0440308 0.0448256 0.0171363 
0.0147823 -0.0446949 0.0182501 -0.00682403 -0.0314098 0.0177867 0.00741479 -0.0295782 0.0189993 
-0.0336946 -0.0248459 0.0185493 -0.0329608 -0.0218045 0.0182873 0.0218308 -0.0192565 0.0180037 
-0.024842 -0.00884532 0.0185149 0.0282359 -0.00877456 0.0192524 0.0386193 -0.00496685 0.0182803 
-0.0442311 0.00821601 0.0181367 0.023953 0.00820576 0.0182936 -0.0144089 0.0201081 0.0196006 
-0.0296003 0.0277025 0.0184874 -0.014478 0.0275162 0.0189346 -0.0281804 0.0418824 0.019262 
-0.0328109 -0.0226975 0.0195028 0.0272875 -0.0186725 0.0202413 -0.0420316 -0.0145538 0.0198854 
0.0302919 -0.0148257 0.0198735 0.0352883 -0.0103067 0.0191737 0.00357123 -0.00830953 0.0207027 
0.0154702 -0.00154679 0.020464 -0.0356048 -0.000104637 0.0200373 0.00635633 0.000852437 0.0205736 
-0.0122189 0.0175978 0.0192617 0.0439232 0.0371117 0.0201342 -0.0437633 0.0406561 0.0196771 
0.0131273 0.040817 0.0201452 0.0289145 -0.0340196 0.0212281 -0.0386256 -0.00983966 0.0211137 
0.0127657 -0.00746761 0.0215992 -0.0260391 0.0304395 0.0208503 -0.0225361 -0.0441701 0.0222979 
-0.0170112 0.0231088 0.0236293 0.0133448 0.00646544 0.0269224 0.0242571 -0.0100823 0.0353058 

VERTICES 649 648
OFFSETS vtktypeint64
0 1 2 3 4 5 6 7 8 
9 10 11 12 13 14 15 16 17 
18 19 20 21 22 23 24 25 26 
27 28 29 30 31 32 33 34 35 
36 37 38 39 40 41 42 43 44 
45 46 47 48 49 50 51 52 53 
54 55 56 57 58 59 60 61 62 
63 64 65 66 67 68 69 70 71 
72 73 74 75 76 77 78 79 80 
81 82 83 84 85 86 87 88 89 
90 91 92 93 94 95 96 97 98 
99 100 101 102 103 104 105 106 107 
108 109 110 111 112 113 114 115 116 
117 118 119 120 121 122 123 124 125 
126 127 128 129 130 131 132 133 134 
135 136 137 138 139 140 141 142 143 
144 145 146 147 148 149 150 151 152 
153 154 155 156 157 158 159 160 161 
162 163 164 165 166 167 168 169 170 
171 172 173 174 175 176 177 178 179 
180 181 182 183 184 185 186 187 188 
189 190 191 192 193 194 195 196 197 
198 199 200 201 202 203 204 205 206 
207 208 209 210 211 212 213 214 215 
216 217 218 219 220 221 222 223 224 
225 226 227 228 229 230 231 232 233 
234 235 236 237 238 239 240 241 242 
243 244 245 246 247 248 249 250 251 
252 253 254 255 256 257 258 259 260 
261 262 263 264 265 266 267 268 269 
270 271 272 273 274 275 276 277 278 
279 280 281 282 283 284 285 286 287 
288 289 290 291 292 293 294 295 296 
297 298 299 300 301 302 303 304 305 
306 307 308 309 310 311 312 313 314 
315 316 317 318 319 320 321 322 323 
324 325 326 327 328 329 330 331 332 
333 334 335 336 337 338 339 340 341 
342 343 344 345 346 347 348 349 350 
351 352 353 354 355 356 357 358 359 
360 361 362 363 364 365 366 367 368 
369 370 371 372 373 374 375 376 377 
378 379 380 381 382 383 384 385 386 
387 388 389 390 391 392 393 394 395 
396 397 398 399 400 401 402 403 404 
405 406 407 408 409 410 411 412 413 
414 415 416 417 418 419 420 421 422 
423 424 425 426 427 428 429 430 431 
432 433 434 435 436 437 438 439 440 
441 442 443 444 445 446 447 448 449 
450 451 452 453 454 455 456 457 458 
459 460 461 462 463 464 465 466 467 
468 469 470 471 472 473 474 475 476 
477 478 479 480 481 482 483 484 485 
486 487 488 489 490 491 492 493 494 
495 496 497 498 499 500 501 502 503 
504 505 506 507 508 509 510 511 512 
513 514 515 516 517 518 519 520 521 
522 523 524 525 526 527 528 529 530 
531 532 533 534 535 536 537 538 539 
540 541 542 543 544 545 546 547 548 
549 550 551 552 553 554 555 556 557 
558 559 560 561 562 563 564 565 566 
567 568 569 570 571 572 573 574 575 
576 577 578 579 580 581 582 583 584 
585 586 587 588 589 590 591 592 593 
594 595 596 597 598 599 600 601 602 
603 604 605 606 607 608 609 610 611 
612 613 614 615 616 617 618 619 620 
621 622 623 624 625 626 627 628 629 
630 631 632 633 634 635 636 637 638 
639 640 641 642 643 644 645 646 647 
648 
CONNECTIVITY vtktypeint64
0 1 2 3 4 5 6 7 8 
9 10 11 12 13 14 15 16 17 
18 19 20 21 22 23 24 25 26 
27 28 29 30 31 32 33 34 35 
36 37 38 39 40 41 42 43 44 
45 46 47 48 49 50 51 52 53 
54 55 56 57 58 59 60 61 62 
63 64 65 66 67 68 69 70 71 
72 73 74 75 76 77 78 79 80 
81 82 83 84 85 86 87 88 89 
90 91 92 93 94 95 96 97 98 
99 100 101 102 103 104 105 106 107 
108 109 110 111 112 113 114 115 116 
117 118 119 120 121 122 123 124 125 
126 127 128 129 130 131 132 133 134 
135 136 137 138 139 140 141 142 143 
144 145 146 147 148 149 150 151 152 
153 154 155 156 157 158 159 160 161 
162 163 164 165 166 167 168 169 170 
171 172 173 174 175 176 177 178 179 
180 181 182 183 184 185 186 187 188 
189 190 191 192 193 194 195 196 197 
198 199 200 201 202 203 204 205 206 
207 208 209 210 211 212 213 214 215 
216 217 218 219 220 221 222 223 224 
225 226 227 228 229 230 231 232 233 
234 235 236 237 238 239 240 241 242 
243 244 245 246 247 248 249 250 251 
252 253 254 255 256 257 258 259 260 
261 262 263 264 265 266 267 268 269 
270 271 272 273 274 275 276 277 278 
279 280 281 282 283 284 285 286 287 
288 289 290 291 292 293 294 295 296 
297 298 299 300 301 302 303 304 305 
306 307 308 309 310 311 312 313 314 
315 316 317 318 319 320 321 322 323 
324 325 326 327 328 329 330 331 332 
333 334 335 336 337 338 339 340 341 
342 343 344 345 346 347 348 349 350 
351 352 353 354 355 356 357 358 359 
360 361 362 363 364 365 366 367 368 
369 370 371 372 373 374 375 376 377 
378 379 380 381 382 383 384 385 386 
387 388 389 390 391 392 393 394 395 
396 397 398 399 400 401 402 403 404 
405 406 407 408 409 410 411 412 413 
414 415 416 417 418 419 420 421 422 
423 424 425 426 427 428 429 430 431 
432 433 434 435 436 437 438 439 440 
441 442 443 444 445 446 447 448 449 
450 451 452 453 454 455 456 457 458 
459 460 461 462 463 464 465 466 467 
468 469 470 471 472 473 474 475 476 
477 478 479 480 481 482 483 484 485 
486 487 488 489 490 491 492 493 494 
495 496 497 498 499 500 501 502 503 
504 505 506 507 508 509 510 511 512 
513 514 515 516 517 518 519 520 521 
522 523 524 525 526 527 528 529 530 
531 532 533 534 535 536 537 538 539 
540 541 542 543 544 545 546 547 548 
549 550 551 552 553 554 555 556 557 
558 559 560 561 562 563 564 565 566 
567 568 569 570 571 572 573 574 575 
576 577 578 579 580 581 582 583 584 
585 586 587 588 589 590 591 592 593 
594 595 596 597 598 599 600 601 602 
603 604 605 606 607 608 609 610 611 
612 613 614 615 616 617 618 619 620 
621 622 623 624 625 626 627 628 629 
630 631 632 633 634 635 636 637 638 
639 640 641 642 643 644 645 646 647 

POINT_DATA 648
FIELD FieldData 12
id 1 648 int
164 275 113 429 508 92 115 122 543 
333 304 185 445 183 190 470 154 240 
106 293 10 72 32 383 567 370 57 
360 135 204 132 465 36 175 61 418 
458 407 396 450 214 432 446 297 169 
150 491 310 433 339 54 161 357 166 
49 18 219 507 195 30 85 232 362 
246 372 98 463 200 188 84 346 31 
390 140 218 562 207 35 314 326 34 
459 411 356 22 24 489 319 88 229 
51 347 303 404 505 5 107 352 137 
294 331 128 13 409 415 121 267 71 
282 167 472 317 174 439 298 289 355 
444 290 500 211 380 8 349 292 248 
231 428 427 157 260 399 42 368 243 
299 515 257 542 66 75 90 538 334 
56 141 495 478 486 456 467 353 426 
424 112 129 261 197 288 338 255 420 
601 345 60 273 378 21 384 322 236 
178 202 469 392 110 447 117 521 149 
337 287 330 104 109 9 163 498 199 
461 410 451 504 506 187 343 201 268 
327 222 148 94 348 270 251 437 198 
320 328 76 155 435 386 361 412 62 
108 375 272 351 366 457 134 256 87 
82 226 367 571 477 295 96 291 484 
64 237 28 479 440 238 274 247 496 
73 176 374 381 168 194 58 612 215 
16 227 127 483 311 324 336 377 125 
263 385 341 83 196 186 86 216 546 
474 454 126 423 165 373 401 119 308 
193 40 417 443 364 529 14 12 189 
100 162 408 280 509 321 114 488 158 
26 253 29 313 233 182 318 91 406 
302 475 55 438 271 99 436 139 449 
59 146 6 278 11 20 151 503 181 
46 63 220 254 81 397 414 52 577 
102 159 69 589 502 223 329 160 572 
170 143 53 615 252 592 244 497 395 
118 33 431 279 206 413 45 536 89 
487 605 570 250 393 103 645 493 416 
111 462 74 38 142 205 265 208 144 
4 262 17 363 138 394 520 65 309 
559 93 203 68 591 344 156 239 116 
79 323 403 25 553 306 95 563 105 
171 371 217 305 358 325 419 481 225 
235 387 286 123 342 350 147 604 526 
460 43 264 511 580 285 382 405 565 
593 379 301 400 70 587 514 266 455 
421 476 534 471 549 359 518 354 430 
576 376 276 564 519 212 153 528 124 
296 221 315 15 184 281 130 78 179 
583 579 482 614 258 597 136 210 626 
388 335 192 177 448 551 566 340 638 
23 77 598 501 425 213 145 453 480 
442 633 41 191 332 180 466 523 312 
616 307 533 234 547 44 490 441 522 
2 80 284 245 545 48 228 473 485 
535 209 524 552 452 643 434 242 492 
402 47 283 120 527 574 532 573 422 
259 628 101 39 224 365 389 641 556 
468 152 582 97 131 596 623 600 624 
173 67 584 525 37 513 539 517 599 
642 499 300 613 464 622 561 637 540 
594 611 494 550 391 249 277 19 172 
635 632 648 636 548 629 627 603 618 
530 644 585 554 617 557 647 50 621 
631 595 620 619 560 607 646 586 639 
241 398 640 581 578 558 569 602 133 
316 510 625 609 369 555 541 516 590 
537 3 608 610 568 630 7 531 575 
606 634 544 27 269 230 588 512 1 

type 1 648 int
1 1 1 1 1 1 1 1 1 
1 1 1 1 1 1 1 1 1 
1 1 2 1 1 1 1 1 1 
1 1 1 1 1 1 1 1 1 
1 1 1 1 1 1 1 1 1 
1 1 1 1 1 1 1 1 1 
1 1 1 1 1 1 1 1 1 
1 1 1 1 1 1 1 1 1 
1 1 1 1 1 1 1 1 1 
1 1 1 1 1 1 1 1 1 
1 1 1 1 1 2 1 1 1 
1 1 1 2 1 1 1 1 1 
1 1 1 1 1 1 1 1 1 
1 1 1 1 1 2 1 1 1 
1 1 1 1 1 1 1 1 1 
1 1 1 1 1 1 1 1 1 
1 1 1 1 1 1 1 1 1 
1 1 1 1 1 1 1 1 1 
1 1 1 1 1 1 1 1 1 
1 1 1 1 1 1 1 1 1 
1 1 1 1 1 2 1 1 1 
1 1 1 1 1 1 1 1 1 
1 1 1 1 1 1 1 1 1 
1 1 1 1 1 1 1 1 1 
1 1 1 1 1 1 1 1 1 
1 1 1 1 1 1 1 1 1 
1 1 1 1 1 1 1 1 1 
1 1 1 1 1 1 1 1 1 
2 1 1 1 1 1 1 1 1 
1 1 1 1 1 1 1 1 1 
1 1 1 1 1 1 1 1 1 
1 1 1 1 1 1 2 2 1 
1 1 1 1 1 1 1 1 1 
1 1 1 1 1 1 1 1 1 
1 1 1 1 1 1 1 1 1 
1 1 2 1 2 1 1 1 1 
1 1 1 1 1 1 1 1 1 
1 1 1 1 1 1 1 1 1 
1 1 1 1 1 1 1 1 1 
1 1 1 1 1 1 1 1 1 
1 1 1 1 1 1 1 1 1 
1 1 1 1 1 1 1 1 1 
2 1 1 1 1 1 1 1 1 
1 1 1 1 1 1 1 1 1 
1 1 1 1 1 1 1 1 1 
1 1 1 1 1 1 1 1 1 
1 1 1 1 1 1 1 1 1 
1 1 1 1 1 1 1 1 1 
1 1 1 1 1 1 1 1 1 
1 1 1 1 1 1 1 1 1 
1 1 1 1 1 1 1 1 1 
1 1 1 2 1 1 1 1 1 
1 1 1 1 1 1 1 1 1 
1 1 1 1 1 1 1 1 1 
1 1 1 1 1 1 1 1 1 
1 1 1 1 1 1 1 1 1 
1 1 1 1 1 1 1 1 1 
3 1 1 1 1 1 1 1 1 
1 1 1 1 1 1 1 1 1 
1 1 1 1 1 1 1 1 1 
1 1 1 1 1 1 1 1 1 
1 1 1 1 1 1 1 1 1 
1 1 1 1 1 1 1 1 1 
1 1 1 1 1 1 1 1 1 
1 1 1 1 1 1 1 1 1 
1 1 1 1 1 1 1 1 1 
1 1 1 1 1 1 1 1 1 
1 1 1 1 1 1 1 1 1 
1 1 1 1 1 1 1 1 1 
1 1 1 1 1 1 1 2 1 
1 2 1 1 1 1 2 1 1 
1 2 1 1 1 1 1 2 4 

i 3 648 int
0 0 0 0 0 0 0 0 0 
0 0 0 0 0 0 0 0 0 
0 0 0 0 0 0 0 0 0 
0 0 0 0 0 0 0 0 0 
0 0 0 0 0 0 0 0 0 
0 0 0 0 0 0 0 0 0 
0 0 0 0 0 0 0 0 0 
0 0 0 0 0 0 0 0 0 
0 0 0 0 0 0 0 0 0 
0 0 0 0 0 0 0 0 0 
0 0 0 0 0 0 0 0 0 
0 0 0 0 0 0 0 0 0 
0 0 0 0 0 0 0 0 0 
0 0 0 0 0 0 0 0 0 
0 0 0 0 0 0 0 0 0 
0 0 0 0 0 0 0 0 0 
0 0 0 0 0 0 0 0 0 
0 0 0 0 0 0 0 0 0 
0 0 0 0 0 0 0 0 0 
0 0 0 0 0 0 0 0 0 
0 0 0 0 0 0 0 0 0 
0 0 0 0 0 0 0 0 0 
0 0 0 0 0 0 0 0 0 
0 0 0 0 0 0 0 0 0 
0 0 0 0 0 0 0 0 0 
0 0 0 0 0 0 0 0 0 
0 0 0 0 0 0 0 0 0 
0 0 0 0 0 0 0 0 0 
0 0 0 0 0 0 0 0 0 
0 0 0 0 0 0 0 0 0 
0 0 0 0 0 0 0 0 0 
0 0 0 0 0 0 0 0 0 
0 0 0 0 0 0 0 0 0 
0 0 0 0 0 0 0 0 0 
0 0 0 0 0 0 0 0 0 
0 0 0 0 0 0 0 0 0 
0 0 0 0 0 0 0 0 0 
0 0 0 0 0 0 0 0 0 
0 0 0 0 0 0 0 0 0 
0 0 0 0 0 0 0 0 0 
0 0 0 0 0 0 0 0 0 
0 0 0 0 0 0 0 0 0 
0 0 0 0 0 0 0 0 0 
0 0 0 0 0 0 0 0 0 
0 0 0 0 0 0 0 0 0 
0 0 0 0 0 0 0 0 0 
0 0 0 0 0 0 0 0 0 
0 0 0 0 0 0 0 0 0 
0 0 0 0 0 0 0 0 0 
0 0 0 0 0 0 0 0 0 
0 0 0 0 0 0 0 0 0 
0 0 0 0 0 0 0 0 0 
0 0 0 0 0 0 0 0 0 
0 0 0 0 0 0 0 0 0 
0 0 0 0 0 0 0 0 0 
0 0 0 0 0 0 0 0 0 
0 0 0 0 0 0 0 0 0 
0 0 0 0 0 0 0 0 0 
0 0 0 0 0 0 0 0 0 
0 0 0 0 0 0 0 0 0 
0 0 0 0 0 0 0 0 0 
0 0 0 0 0 0 0 0 0 
0 0 0 0 0 0 0 0 0 
0 0 0 0 0 0 0 0 0 
0 0 0 0 0 0 0 0 0 
0 0 0 0 0 0 0 0 0 
0 0 0 0 0 0 0 0 0 
0 0 0 0 0 0 0 0 0 
0 0 0 0 0 0 0 0 0 
0 0 0 0 0 0 0 0 0 
0 0 0 0 0 0 0 0 0 
0 0 0 0 0 0 0 0 0 
0 0 0 0 0 0 0 0 0 
0 0 0 0 0 0 0 0 0 
0 0 0 0 0 0 0 0 0 
0 0 0 0 0 0 0 0 0 
0 0 0 0 0 0 0 0 0 
0 0 0 0 0 0 0 0 0 
0 0 0 0 0 0 0 0 0 
0 0 0 0 0 0 0 0 0 
0 0 0 0 0 0 0 0 0 
0 0 0 0 0 0 0 0 0 
0 0 0 0 0 0 0 0 0 
0 0 0 0 0 0 0 0 0 
0 0 0 0 0 0 0 0 0 
0 0 0 0 0 0 0 0 0 
0 0 0 0 0 0 0 0 0 
0 0 0 0 0 0 0 0 0 
0 0 0 0 0 0 0 0 0 
0 0 0 0 0 0 0 0 0 
0 0 0 0 0 0 0 0 0 
0 0 0 0 0 0 0 0 0 
0 0 0 0 0 0 0 0 0 
0 0 0 0 0 0 0 0 0 
0 0 0 0 0 0 0 0 0 
0 0 0 0 0 0 0 0 0 
0 0 0 0 0 0 0 0 0 
0 0 0 0 0 0 0 0 0 
0 0 0 0 0 0 0 0 0 
0 0 0 0 0 0 0 0 0 
0 0 0 0 0 0 0 0 0 
0 0 0 0 0 0 0 0 0 
0 0 0 0 0 0 0 0 0 
0 0 0 0 0 0 0 0 0 
0 0 0 0 0 0 0 0 0 
0 0 0 0 0 0 0 0 0 
0 0 0 0 0 0 0 0 0 
0 0 0 0 0 0 0 0 0 
0 0 0 0 0 0 0 0 0 
0 0 0 0 0 0 0 0 0 
0 0 0 0 0 0 0 0 0 
0 0 0 0 0 0 0 0 0 
0 0 0 0 0 0 0 0 0 
0 0 0 0 0 0 0 0 0 
0 0 0 0 0 0 0 0 0 
0 0 0 0 0 0 0 0 0 
0 0 0 0 0 0 0 0 0 
0 0 0 0 0 0 0 0 0 
0 0 0 0 0 0 0 0 0 
0 0 0 0 0 0 0 0 0 
0 0 0 0 0 0 0 0 0 
0 0 0 0 0 0 0 0 0 
0 0 0 0 0 0 0 0 0 
0 0 0 0 0 0 0 0 0 
0 0 0 0 0 0 0 0 0 
0 0 0 0 0 0 0 0 0 
0 0 0 0 0 0 0 0 0 
0 0 0 0 0 0 0 0 0 
0 0 0 0 0 0 0 0 0 
0 0 0 0 0 0 0 0 0 
0 0 0 0 0 0 0 0 0 
0 0 0 0 0 0 0 0 0 
0 0 0 0 0 0 0 0 0 
0 0 0 0 0 0 0 0 0 
0 0 0 0 0 0 0 0 0 
0 0 0 0 0 0 0 0 0 
0 0 0 0 0 0 0 0 0 
0 0 0 0 0 0 0 0 0 
0 0 0 0 0 0 0 0 0 
0 0 0 0 0 0 0 0 0 
0 0 0 0 0 0 0 0 0 
0 0 0 0 0 0 0 0 0 
0 0 0 0 0 0 0 0 0 
0 0 0 0 0 0 0 0 0 
0 0 0 0 0 0 0 0 0 
0 0 0 0 0 0 0 0 0 
0 0 0 0 0 0 0 0 0 
0 0 0 0 0 0 0 0 0 
0 0 0 0 0 0 0 0 0 
0 0 0 0 0 0 0 0 0 
0 0 0 0 0 0 0 0 0 
0 0 0 0 0 0 0 0 0 
0 0 0 0 0 0 0 0 0 
0 0 0 0 0 0 0 0 0 
0 0 0 0 0 0 0 0 0 
0 0 0 0 0 0 0 0 0 
0 0 0 0 0 0 0 0 0 
0 0 0 0 0 0 0 0 0 
0 0 0 0 0 0 0 0 0 
0 0 0 0 0 0 0 0 0 
0 0 0 0 0 0 0 0 0 
0 0 0 0 0 0 0 0 0 
0 0 0 0 0 0 0 0 0 
0 0 0 0 0 0 0 0 0 
0 0 0 0 0 0 0 0 0 
0 0 0 0 0 0 0 0 0 
0 0 0 0 0 0 0 0 0 
0 0 0 0 0 0 0 0 0 
0 0 0 0 0 0 0 0 0 
0 0 0 0 0 0 0 0 0 
0 0 0 0 0 0 0 0 0 
0 0 0 0 0 0 0 0 0 
0 0 0 0 0 0 0 0 0 
0 0 0 0 0 0 0 0 0 
0 0 0 0 0 0 0 0 0 
0 0 0 0 0 0 0 0 0 
0 0 0 0 0 0 0 0 0 
0 0 0 0 0 0 0 0 0 
0 0 0 0 0 0 0 0 0 
0 0 0 0 0 0 0 0 0 
0 0 0 0 0 0 0 0 0 
0 0 0 0 0 0 0 0 0 
0 0 0 0 0 0 0 0 0 
0 0 0 0 0 0 0 0 0 
0 0 0 0 0 0 0 0 0 
0 0 0 0 0 0 0 0 0 
0 0 0 0 0 0 0 0 0 
0 0 0 0 0 0 0 0 0 
0 0 0 0 0 0 0 0 0 
0 0 0 0 0 0 0 0 0 
0 0 0 0 0 0 0 0 0 
0 0 0 0 0 0 0 0 0 
0 0 0 0 0 0 0 0 0 
0 0 0 0 0 0 0 0 0 
0 0 0 0 0 0 0 0 0 
0 0 0 0 0 0 0 0 0 
0 0 0 0 0 0 0 0 0 
0 0 0 0 0 0 0 0 0 
0 0 0 0 0 0 0 0 0 
0 0 0 0 0 0 0 0 0 
0 0 0 0 0 0 0 0 0 
0 0 0 0 0 0 0 0 0 
0 0 0 0 0 0 0 0 0 
0 0 0 0 0 0 0 0 0 
0 0 0 0 0 0 0 0 0 
0 0 0 0 0 0 0 0 0 
0 0 0 0 0 0 0 0 0 
0 0 0 0 0 0 0 0 0 
0 0 0 0 0 0 0 0 0 
0 0 0 0 0 0 0 0 0 
0 0 0 0 0 0 0 0 0 
0 0 0 0 0 0 0 0 0 
0 0 0 0 0 0 0 0 0 
0 0 0 0 0 0 0 0 0 
0 0 0 0 0 0 0 0 0 
0 0 0 0 0 0 0 0 0 

v 3 648 double
0 0 -0.0082150953566 0 0 0.068041222153 0 0 0.071122875515 
0 0 0.081549294232 0 0 0.011081246862 0 0 -0.0089208797935 
0 0 -3.9824864964e-05 0 0 0.071173561869 0 0 0.051444857904 
0 0 0.077747876833 0 0 0.017788506487 0 0 -0.0019133525054 
0 0 0.066570636774 0 0 0.084633037503 0 0 0.0015363210803 
0 0 0.0094643919611 0 0 0.025786615811 0 0 0.07277889308 
0 0 0.018597282659 0 0 -0.014150284371 0 0 0.10726289638 
0 0 -0.0032733192003 0 0 0.087604151459 0 0 -0.00027272927087 
0 0 0.070227349749 0 0 0.012515726489 0 0 8.0432443644e-14 
0 0 0.068219295437 0 0 0.065961693397 0 0 0.080393749591 
0 0 0.019607827872 0 0 -1.560588404e-14 0 0 0.020294220393 
0 0 0.030924106861 0 0 0.08251340488 0 0 -0.0093033968929 
0 0 -0.0074034244369 0 0 -0.0027716990044 0 0 -0.02307640055 
0 0 -0.0044977740058 0 0 -0.012439016353 0 0 0.023994293861 
0 0 0.082608463401 0 0 0.026299637411 0 0 0.0076051109898 
0 0 0.0054264085815 0 0 -0.0074957963069 0 0 0.0097616400594 
0 0 -0.016848770084 0 0 -0.0012223230239 0 0 0.074175109674 
0 0 0.074240585369 0 0 0.070754701871 0 0 -0.012103419042 
0 0 0.0042312677884 0 0 -0.0021804682116 0 0 -0.013833343123 
0 0 0.072849330393 0 0 -0.0035099871333 0 0 0.081422606818 
0 0 0.023367036153 0 0 0.062309793623 0 0 0.024984992708 
0 0 0.013061070587 0 0 0.010227239459 0 0 0.050045980054 
0 0 -0.044675147339 0 0 -0.05437700175 0 0 0.054042975372 
0 0 -0.22531065696 0 0 0.03666135372 0 0 -0.20732801316 
0 0 0.067038293338 0 0 0.017301171126 0 0 -0.022521442358 
0 0 -0.17669002718 0 0 -0.021044104509 0 0 -0.011974570527 
0 0 0.05867249911 0 0 0.054625056047 0 0 -0.0084180798204 
0 0 -0.073489618501 0 0 0.073385204494 0 0 -0.044044483322 
0 0 0.053299474095 0 0 -0.021375405953 0 0 -0.20718904625 
0 0 0.052957983909 0 0 -0.041351375406 0 0 0.05228169229 
0 0 -0.045797715687 0 0 -0.046379041954 0 0 -0.012042476759 
0 0 -0.055680069744 0 0 0.063015035544 0 0 -0.24389262386 
0 0 -0.053227755331 0 0 0.036564689016 0 0 -0.046100763653 
0 0 0.049052086252 0 0 -0.059328711793 0 0 0.012179685241 
0 0 0.092288500818 0 0 0.05632595123 0 0 0.061407092086 
0 0 0.00089729202362 0 0 -0.048367107743 0 0 0.05960085035 
0 0 -0.057814812326 0 0 0.028594410211 0 0 0.028339609235 
0 0 -0.058158861711 0 0 0.045236896875 0 0 -0.047614428402 
0 0 0.057942810318 0 0 -0.059404324584 0 0 -0.045222680157 
0 0 -0.064212615517 0 0 0.048494670991 0 0 0.05107195726 
0 0 -0.2263458181 0 0 -0.20477144194 0 0 0.071914481106 
0 0 0.035230059059 0 0 -0.055246607487 0 0 0.055219064347 
0 0 -0.054925753309 0 0 -0.059100641759 0 0 0.025051876384 
0 0 0.0022111595221 0 0 0.041440915485 0 0 0.048045164688 
0 0 0.068332833008 0 0 0.052293009849 0 0 -0.0014263074052 
0 0 0.033803049969 0 0 -0.029557717187 0 0 0.040791374589 
0 0 0.047030484967 0 0 -0.050678769498 0 0 0.078075524216 
0 0 0.04412083778 0 0 0.044616715348 0 0 0.026672434677 
0 0 0.033196510555 0 0 0.033265282255 0 0 0.053548917641 
0 0 -0.05582670679 0 0 0.075768408036 0 0 -0.060884718089 
0 0 -0.047953794593 0 0 -0.03142118141 0 0 0.068507279888 
0 0 0.061468795331 0 0 0.062094598532 0 0 -0.0051102392971 
0 0 -0.037692788718 0 0 -0.053483240797 0 0 -0.034452199235 
0 0 -0.20251222853 0 0 -0.0218051568 0 0 0.036255219715 
0 0 -0.16678543789 0 0 0.053153501774 0 0 -0.020042966962 
0 0 0.06012089873 0 0 0.07705451452 0 0 0.067397307004 
0 0 0.060603940791 0 0 -0.048431450834 0 0 -0.23344016925 
0 0 -0.22455507243 0 0 -0.0042241526975 0 0 0.047468134184 
0 0 0.038529744499 0 0 -0.051407760384 0 0 0.07486610641 
0 0 0.049012391393 0 0 -0.035797711891 0 0 -0.04019044806 
0 0 0.039434317653 0 0 0.086719309035 0 0 0.058687928327 
0 0 0.066204889365 0 0 0.05490488118 0 0 0.074725187181 
0 0 -0.038985546408 0 0 -0.22777623381 0 0 0.041365602921 
0 0 0.029188245459 0 0 0.024265738163 0 0 -0.22787099092 
0 0 0.0040114775569 0 0 -0.070169554071 0 0 -0.028671614161 
0 0 0.040755507488 0 0 -0.0068667151798 0 0 0.040764724115 
0 0 -0.046960048849 0 0 0.064257354747 0 0 0.007107238906 
0 0 0.073218474822 0 0 0.04541505149 0 0 -0.0539797621 
0 0 0.030473446738 0 0 0.047620642619 0 0 -0.23074245413 
0 0 -0.0064468713863 0 0 -0.017298364737 0 0 0.059190727161 
0 0 0.027703048496 0 0 0.030002027606 0 0 -0.066187478907 
0 0 0.054041728153 0 0 -0.042467693208 0 0 -0.0060964355264 
0 0 0.039687290857 0 0 0.07670492809 0 0 0.033631293547 
0 0 0.05687868884 0 0 -0.011178262995 0 0 -0.00013346801813 
0 0 -0.043433082497 0 0 0.0036958345698 0 0 -0.0021247670272 
0 0 -0.19979654627 0 0 0.029496140435 0 0 0.0036969127274 
0 0 -0.16300158347 0 0 -0.22080226256 0 0 -0.21805403963 
0 0 -0.22989142852 0 0 -0.035923942032 0 0 -0.22921906924 
0 0 0.0051545654236 0 0 -0.007015233085 0 0 -0.22183199868 
0 0 0.017643118041 0 0 0.010533833199 0 0 -0.024252756737 
0 0 -0.19371588642 0 0 -0.0055295102857 0 0 0.030549424765 
0 0 0.009983347328 0 0 -0.031681045252 0 0 -0.19414134812 
0 0 -0.032340668718 0 0 0.015969931999 0 0 -0.19319567877 
0 0 -0.010561646689 0 0 -0.14672195549 0 0 -0.023667963653 
0 0 -0.23897746025 0 0 -0.017753917564 0 0 -0.022313423962 
0 0 0.01374976317 0 0 -0.22318907411 0 0 -0.0030595221867 
0 0 -0.021835149801 0 0 -0.22661012013 0 0 -0.018768100239 
0 0 0.04461816983 0 0 -0.023917148768 0 0 0.031361606165 
0 0 -0.0096246928932 0 0 -0.22437583474 0 0 -0.0017819544208 
0 0 -0.031982517625 0 0 -0.22092234087 0 0 -0.16688504851 
0 0 -0.21923903925 0 0 0.035521149136 0 0 -0.20058588688 
0 0 -0.034249670618 0 0 -0.0065806844973 0 0 -0.004288737024 
0 0 0.0088249063617 0 0 -0.2189096747 0 0 0.0092347227686 
0 0 -0.018683880699 0 0 -0.011158701107 0 0 0.034854119834 
0 0 -0.1945083969 0 0 -0.0060494436033 0 0 -0.20539625239 
0 0 0.051805579303 0 0 0.034852034834 0 0 -0.016131190975 
0 0 0.022233654956 0 0 0.026382909259 0 0 0.025714040791 
0 0 0.018655666698 0 0 -0.18714610807 0 0 0.031932523871 
0 0 -0.19754193312 0 0 0.0024938092504 0 0 -0.014534662786 
0 0 -0.039000745643 0 0 -0.009682270189 0 0 -0.0036822061403 
0 0 -0.21967574664 0 0 0.0065134382688 0 0 -0.20485138516 
0 0 -0.014609533024 0 0 0.04806098013 0 0 0.029662667267 
0 0 -0.19768439189 0 0 -0.22283173209 0 0 -0.19932901791 
0 0 -0.19542992494 0 0 -0.22002333674 0 0 -0.18798970905 
0 0 -0.19197929856 0 0 -0.19463936967 0 0 -0.19148354336 
0 0 -0.21126958651 0 0 -0.20904175063 0 0 0.00061860932942 
0 0 -0.21526148976 0 0 0.029654877284 0 0 -0.20934293182 
0 0 -0.21259494869 0 0 -0.18810644951 0 0 -0.19180695368 
0 0 -0.1870830828 0 0 -0.21179410745 0 0 -0.18627993373 
0 0 -0.19615612047 0 0 -0.21794651495 0 0 -0.20878934712 
0 0 -0.20872666718 0 0 -0.19991496139 0 0 -0.141549268 
0 0 -0.20329230482 0 0 -0.1799572106 0 0 -0.17758288943 
0 0 -0.15359429944 0 0 -0.17489042661 0 0 -0.21596151628 
0 0 -0.20084164539 0 0 -0.18728427179 0 0 -0.13256109945 
0 0 -0.20406291854 0 0 -0.18611003003 0 0 -0.20247621218 
0 0 -0.12486427805 0 0 -0.20241349011 0 0 -0.13494536676 
0 0 -0.20411070025 0 0 -0.1795250839 0 0 -0.20448338832 
0 0 -0.17671980519 0 0 -0.18466274392 0 0 -0.20515714543 
0 0 -0.19997303245 0 0 -0.20449388158 0 0 -0.18640452157 
0 0 -0.20462923818 0 0 -0.17625440739 0 0 -0.19184886666 
0 0 -0.19675609458 0 0 -0.12310767597 0 0 -0.12648985078 
0 0 -0.19700402813 0 0 -0.19854235652 0 0 -0.17421436449 
0 0 -0.10366604671 0 0 -0.19392878109 0 0 -0.19641773487 
0 0 -0.20774589935 0 0 -0.19433898542 0 0 -0.19826070858 
0 0 -0.19430879181 0 0 -0.19899003223 0 0 -0.1981410269 
0 0 -0.19666976886 0 0 -0.20288890913 0 0 -0.19410892561 
0 0 -0.22289241923 0 0 -0.1725115352 0 0 -0.20005208304 
0 0 -0.19622815616 0 0 -0.18602136609 0 0 -0.20197871506 
0 0 -0.17340468341 0 0 -0.20002873409 0 0 -0.17705236799 
0 0 -0.17069064254 0 0 -0.18759209605 0 0 -0.16195536167 
0 0 -0.18470327784 0 0 -0.14528586754 0 0 -0.16825769878 
0 0 -0.18551716595 0 0 -0.19097775312 0 0 -0.18359796142 
0 0 -0.19615739388 0 0 -0.1943753368 0 0 -0.1868895208 
0 0 -0.18650202842 0 0 -0.14864216267 0 0 -0.15972136086 
0 0 -0.16277884869 0 0 -0.12429592984 0 0 -0.18661196514 
0 0 -0.19390450599 0 0 -0.19009131025 0 0 -0.18954191213 
0 0 -0.18202621208 0 0 -0.16674872751 0 0 -0.19333119833 
0 0 -0.16275280123 0 0 -0.18795575893 0 0 -0.190569981 
0 0 -0.15823862291 0 0 -0.16857056886 0 0 -0.18492381863 
0 0 -0.18710222795 0 0 -0.19317736851 0 0 -0.17910984971 
0 0 -0.17942515052 0 0 -0.091037539651 0 0 -0.15887433356 
0 0 -0.18147662011 0 0 -0.1812874987 0 0 -0.15151688972 
0 0 -0.16156174915 0 0 -0.12668482474 0 0 -0.17491701034 
0 0 -0.15547344893 0 0 -0.1808824031 0 0 -0.11202132744 
0 0 -0.082737051148 0 0 -0.181479098 0 0 -0.18232835267 
0 0 -0.15673688353 0 0 -0.17810862319 0 0 -0.1339424821 
0 0 -0.13194393257 0 0 -0.18292885723 0 0 -0.1822205178 
0 0 -0.17773251361 0 0 -0.17199970704 0 0 -0.094568117329 
0 0 -0.16899228904 0 0 -0.13229584636 0 0 -0.16313634724 
0 0 -0.13203231702 0 0 -0.16932468063 0 0 -0.1736150221 
0 0 -0.11839088818 0 0 -0.16851150118 0 0 -0.17033509143 
0 0 -0.11981325445 0 0 -0.15684304372 0 0 -0.17052054693 
0 0 -0.16530571844 0 0 -0.13643144168 0 0 -0.16849648969 
0 0 -0.16694137772 0 0 -0.17156327724 0 0 -0.16592855304 
0 0 -0.20082573557 0 0 -0.14889150367 0 0 -0.17189513339 
0 0 -0.17314445833 0 0 -0.18246138426 0 0 -0.1682095381 
0 0 -0.07457690394 0 0 -0.085857943386 0 0 -0.16579885419 
0 0 -0.065962449851 0 0 -0.15667874867 0 0 -0.058919524325 
0 0 -0.15621004734 0 0 -0.15945298518 0 0 -0.027790849543 
0 0 -0.15135043405 0 0 -0.17005724251 0 0 -0.14932764598 
0 0 -0.15455113001 0 0 -0.16537351346 0 0 -0.11749556195 
0 0 -0.11550597048 0 0 -0.15934294638 0 0 -0.082730831517 
0 0 -0.15418033198 0 0 -0.16167074379 0 0 -0.057150068627 
0 0 -0.15342911484 0 0 -0.17583436001 0 0 -0.17127577164 
0 0 -0.15798051105 0 0 -0.16204984043 0 0 -0.16057741457 
0 0 -0.16362383081 0 0 -0.053236434488 0 0 -0.15469890707 
0 0 -0.15357302991 0 0 -0.15822593984 0 0 -0.1606467928 
0 0 -0.16422202401 0 0 -0.13085073413 0 0 -0.14558034353 
0 0 -0.073635010909 0 0 -0.15040765047 0 0 -0.11845884454 
0 0 -0.14853217818 0 0 -0.10916421093 0 0 -0.14356862109 
0 0 -0.14432908905 0 0 -0.15131648518 0 0 -0.14218722436 
0 0 -0.20155553495 0 0 -0.15282640673 0 0 -0.14681629927 
0 0 -0.1465308109 0 0 -0.10475060874 0 0 -0.14846906641 
0 0 -0.14577705731 0 0 -0.14366460402 0 0 -0.14839557642 
0 0 -0.073704334765 0 0 -0.14979596597 0 0 -0.12380723441 
0 0 -0.062256005576 0 0 -0.14517371959 0 0 0.027111188889 
0 0 -0.15157143553 0 0 -0.14006264035 0 0 -0.13106400912 
0 0 -0.14010866539 0 0 -0.14206880273 0 0 -0.13335092809 
0 0 -0.13794881465 0 0 -0.10812207645 0 0 -0.013055201854 
0 0 -0.10514342236 0 0 -0.070786268595 0 0 -0.14071568205 
0 0 -0.13739773935 0 0 -0.044318193807 0 0 -0.13555014502 
0 0 -0.13341317549 0 0 -0.13051734607 0 0 -0.13879512049 
0 0 -0.13750156453 0 0 0.084727423977 0 0 -0.040385072405 
0 0 -0.1374069022 0 0 -0.13484976986 0 0 0.017547732835 
0 0 -0.13637933005 0 0 -0.13863189572 0 0 -0.072021657685 
0 0 -0.054548234328 0 0 0.014211375854 0 0 0.050231964691 
0 0 -0.1293009973 0 0 -0.1267601263 0 0 0.024692773229 
0 0 -0.099451653135 0 0 -0.12553191023 0 0 -0.10363952776 
0 0 -0.075091641804 0 0 -0.10649352971 0 0 -0.04048745611 
0 0 0.11895151278 0 0 -0.14200433886 0 0 -0.14358381412 
0 0 -0.054259748465 0 0 -0.12837228699 0 0 -0.028221372687 
0 0 -0.066733131516 0 0 -0.029387073937 0 0 -0.099841729024 
0 0 -0.049947355095 0 0 0.017219162706 0 0 -0.13042858233 
0 0 -0.073639355855 0 0 -0.12931489661 0 0 -0.12675944697 
0 0 -0.1248355279 0 0 -0.12456188572 0 0 -0.12871391918 
0 0 0.0068097647388 0 0 0.061515334539 0 0 0.054471366631 
0 0 0.099599969732 0 0 -0.058608399255 0 0 0.01694048616 
0 0 0.10188238299 0 0 0.0026691841999 0 0 -0.029985654654 
0 0 -0.072460856983 0 0 0.078247659048 0 0 -0.033956336828 
0 0 -0.037413234988 0 0 -0.027889114685 0 0 -0.060745897185 
0 0 0.054315648166 0 0 -0.14029882612 0 0 0.10335056041 
0 0 0.086317767997 0 0 -0.010648576885 0 0 0.012070826199 
0 0 0.068584419107 0 0 -0.05660705742 0 0 -0.004392113467 
0 0 0.078829621687 0 0 -0.029327143299 0 0 0.0070171593959 
0 0 -0.11499603492 0 0 -0.12542452226 0 0 0.13105439355 
0 0 -0.0085892445955 0 0 -0.015580248159 0 0 -0.065434412947 
0 0 -0.01480426272 0 0 0.071532924343 0 0 -0.11621865492 
0 0 -0.13445159686 0 0 -0.080969057433 0 0 0.04138354909 
0 0 0.051290170795 0 0 -0.1108254545 0 0 -0.013108277866 
0 0 -0.021148127415 0 0 -0.10256109518 0 0 0.0092027632216 
0 0 -0.023415710363 0 0 -0.13265840783 0 0 0.056493272412 
0 0 0.039918762055 0 0 0.035602599137 0 0 0.070061951528 
0 0 -0.1314658538 0 0 -0.029050315368 0 0 0.015284024641 
0 0 0.067409462528 0 0 0.050209239072 0 0 0.01005633856 
0 0 -0.10225914059 0 0 -0.11075732405 0 0 -0.09887033896 
0 0 0.084617171325 0 0 -0.032445860084 0 0 -0.081495045784 

f 3 648 double
0 0 -1.7425367252e-10 0 0 -1.7425367252e-10 0 0 -1.7425367252e-10 
0 0 -1.7425367252e-10 0 0 -1.7425367252e-10 0 0 -1.7425367252e-10 
0 0 -1.7425367252e-10 0 0 -1.7425367252e-10 0 0 -1.7425367252e-10 
0 0 -1.7425367252e-10 0 0 -1.7425367252e-10 0 0 -1.7425367252e-10 
0 0 -1.7425367252e-10 0 0 -1.7425367252e-10 0 0 -1.7425367252e-10 
0 0 -1.7425367252e-10 0 0 -1.7425367252e-10 0 0 -1.7425367252e-10 
0 0 -1.7425367252e-10 0 0 -1.7425367252e-10 0 0 -8.9019973083e-09 
0 0 -1.7425367252e-10 0 0 -1.7425367252e-10 0 0 -1.7425367252e-10 
0 0 -1.7425367252e-10 0 0 -1.7425367252e-10 0 0 0 
0 0 -1.7425367252e-10 0 0 -1.7425367252e-10 0 0 -1.7425367252e-10 
0 0 -1.7425367252e-10 0 0 0 0 0 -1.7425367252e-10 
0 0 -1.7425367252e-10 0 0 -1.7425367252e-10 0 0 -1.7425367252e-10 
0 0 -1.7425367252e-10 0 0 -1.7425367252e-10 0 0 -1.7425367252e-10 
0 0 -1.7425367252e-10 0 0 -1.7425367252e-10 0 0 -1.7425367252e-10 
0 0 -1.7425367252e-10 0 0 -1.7425367252e-10 0 0 -1.7425367252e-10 
0 0 -1.7425367252e-10 0 0 -1.7425367252e-10 0 0 -1.7425367252e-10 
0 0 -1.7425367252e-10 0 0 -1.7425367252e-10 0 0 -1.7425367252e-10 
0 0 -1.7425367252e-10 0 0 -1.7425367252e-10 0 0 -1.7425367252e-10 
0 0 -1.7425367252e-10 0 0 -1.7425367252e-10 0 0 -1.7425367252e-10 
0 0 -1.7425367252e-10 0 0 -1.7425367252e-10 0 0 -1.7425367252e-10 
0 0 -1.7425367252e-10 0 0 -1.7425367252e-10 0 0 -1.7425367252e-10 
0 0 -1.7425367252e-10 0 0 -1.7425367252e-10 0 0 -1.7425367252e-10 
0 0 -1.7425367252e-10 0 0 -1.7425367252e-10 0 0 -1.7425367252e-10 
0 0 -1.7425367252e-10 0 0 -1.7425367252e-10 0 0 -1.7425367252e-10 
0 0 -1.7425367252e-10 0 0 -1.7425367252e-10 0 0 -1.7425367252e-10 
0 0 -1.7425367252e-10 0 0 -1.7425367252e-10 0 0 -1.7425367252e-10 
0 0 -1.7425367252e-10 0 0 -1.7425367252e-10 0 0 -1.7425367252e-10 
0 0 -1.7425367252e-10 0 0 -1.7425367252e-10 0 0 -1.7425367252e-10 
0 0 -1.7425367252e-10 0 0 -1.7425367252e-10 0 0 -1.7425367252e-10 
0 0 -1.7425367252e-10 0 0 -1.7425367252e-10 0 0 -1.7425367252e-10 
0 0 -1.7425367252e-10 0 0 -1.7425367252e-10 0 0 -1.7425367252e-10 
0 0 -1.7425367252e-10 0 0 -1.7425367252e-10 0 0 -8.9019973083e-09 
0 0 -1.7425367252e-10 0 0 -1.7425367252e-10 0 0 -1.7425367252e-10 
0 0 -1.7425367252e-10 0 0 -1.7425367252e-10 0 0 -1.7425367252e-10 
0 0 -8.9019973083e-09 0 0 -1.7425367252e-10 0 0 -1.7425367252e-10 
0 0 -1.7425367252e-10 0 0 -1.7425367252e-10 0 0 -1.7425367252e-10 
0 0 -1.7425367252e-10 0 0 -1.7425367252e-10 0 0 -1.7425367252e-10 
0 0 -1.7425367252e-10 0 0 -1.7425367252e-10 0 0 -1.7425367252e-10 
0 0 -1.7425367252e-10 0 0 -1.7425367252e-10 0 0 -1.7425367252e-10 
0 0 -1.7425367252e-10 0 0 -1.7425367252e-10 0 0 -1.7425367252e-10 
0 0 -1.7425367252e-10 0 0 -1.7425367252e-10 0 0 -8.9019973083e-09 
0 0 -1.7425367252e-10 0 0 -1.7425367252e-10 0 0 -1.7425367252e-10 
0 0 -1.7425367252e-10 0 0 -1.7425367252e-10 0 0 -1.7425367252e-10 
0 0 -1.7425367252e-10 0 0 -1.7425367252e-10 0 0 -1.7425367252e-10 
0 0 -1.7425367252e-10 0 0 -1.7425367252e-10 0 0 -1.7425367252e-10 
0 0 -1.7425367252e-10 0 0 -1.7425367252e-10 0 0 -1.7425367252e-10 
0 0 -1.7425367252e-10 0 0 -1.7425367252e-10 0 0 -1.7425367252e-10 
0 0 -1.7425367252e-10 0 0 -1.7425367252e-10 0 0 -1.7425367252e-10 
0 0 -1.7425367252e-10 0 0 -1.7425367252e-10 0 0 -1.7425367252e-10 
0 0 -1.7425367252e-10 0 0 -1.7425367252e-10 0 0 -1.7425367252e-10 
0 0 -1.7425367252e-10 0 0 -1.7425367252e-10 0 0 -1.7425367252e-10 
0 0 -1.7425367252e-10 0 0 -1.7425367252e-10 0 0 -1.7425367252e-10 
0 0 -1.7425367252e-10 0 0 -1.7425367252e-10 0 0 -1.7425367252e-10 
0 0 -1.7425367252e-10 0 0 -1.7425367252e-10 0 0 -1.7425367252e-10 
0 0 -1.7425367252e-10 0 0 -1.7425367252e-10 0 0 -1.7425367252e-10 
0 0 -1.7425367252e-10 0 0 -1.7425367252e-10 0 0 -1.7425367252e-10 
0 0 -1.7425367252e-10 0 0 -1.7425367252e-10 0 0 -1.7425367252e-10 
0 0 -1.7425367252e-10 0 0 -1.7425367252e-10 0 0 -1.7425367252e-10 
0 0 -1.7425367252e-10 0 0 -1.7425367252e-10 0 0 -1.7425367252e-10 
0 0 -1.7425367252e-10 0 0 -1.7425367252e-10 0 0 -1.7425367252e-10 
0 0 -1.7425367252e-10 0 0 -1.7425367252e-10 0 0 -1.7425367252e-10 
0 0 -1.7425367252e-10 0 0 -1.7425367252e-10 0 0 -8.9019973083e-09 
0 0 -1.7425367252e-10 0 0 -1.7425367252e-10 0 0 -1.7425367252e-10 
0 0 -1.7425367252e-10 0 0 -1.7425367252e-10 0 0 -1.7425367252e-10 
0 0 -1.7425367252e-10 0 0 -1.7425367252e-10 0 0 -1.7425367252e-10 
0 0 -1.7425367252e-10 0 0 -1.7425367252e-10 0 0 -1.7425367252e-10 
0 0 -1.7425367252e-10 0 0 -1.7425367252e-10 0 0 -1.7425367252e-10 
0 0 -1.7425367252e-10 0 0 -1.7425367252e-10 0 0 -1.7425367252e-10 
0 0 -1.7425367252e-10 0 0 -1.7425367252e-10 0 0 -1.7425367252e-10 
0 0 -1.7425367252e-10 0 0 -1.7425367252e-10 0 0 -1.7425367252e-10 
0 0 -1.7425367252e-10 0 0 -1.7425367252e-10 0 0 -1.7425367252e-10 
0 0 -1.7425367252e-10 0 0 -1.7425367252e-10 0 0 -1.7425367252e-10 
0 0 -1.7425367252e-10 0 0 -1.7425367252e-10 0 0 -1.7425367252e-10 
0 0 -1.7425367252e-10 0 0 -1.7425367252e-10 0 0 -1.7425367252e-10 
0 0 -1.7425367252e-10 0 0 -1.7425367252e-10 0 0 -1.7425367252e-10 
0 0 -1.7425367252e-10 0 0 -1.7425367252e-10 0 0 -1.7425367252e-10 
0 0 -1.7425367252e-10 0 0 -1.7425367252e-10 0 0 -1.7425367252e-10 
0 0 -1.7425367252e-10 0 0 -1.7425367252e-10 0 0 -1.7425367252e-10 
0 0 -1.7425367252e-10 0 0 -1.7425367252e-10 0 0 -1.7425367252e-10 
0 0 -1.7425367252e-10 0 0 -1.7425367252e-10 0 0 -1.7425367252e-10 
0 0 -1.7425367252e-10 0 0 -1.7425367252e-10 0 0 -1.7425367252e-10 
0 0 -1.7425367252e-10 0 0 -1.7425367252e-10 0 0 -1.7425367252e-10 
0 0 -1.7425367252e-10 0 0 -1.7425367252e-10 0 0 -1.7425367252e-10 
0 0 -1.7425367252e-10 0 0 -1.7425367252e-10 0 0 -1.7425367252e-10 
0 0 -8.9019973083e-09 0 0 -1.7425367252e-10 0 0 -1.7425367252e-10 
0 0 -1.7425367252e-10 0 0 -1.7425367252e-10 0 0 -1.7425367252e-10 
0 0 -1.7425367252e-10 0 0 -1.7425367252e-10 0 0 -1.7425367252e-10 
0 0 -1.7425367252e-10 0 0 -1.7425367252e-10 0 0 -1.7425367252e-10 
0 0 -1.7425367252e-10 0 0 -1.7425367252e-10 0 0 -1.7425367252e-10 
0 0 -1.7425367252e-10 0 0 -1.7425367252e-10 0 0 -1.7425367252e-10 
0 0 -1.7425367252e-10 0 0 -1.7425367252e-10 0 0 -1.7425367252e-10 
0 0 -1.7425367252e-10 0 0 -1.7425367252e-10 0 0 -1.7425367252e-10 
0 0 -1.7425367252e-10 0 0 -1.7425367252e-10 0 0 -1.7425367252e-10 
0 0 -1.7425367252e-10 0 0 -1.7425367252e-10 0 0 -1.7425367252e-10 
0 0 -1.7425367252e-10 0 0 -1.7425367252e-10 0 0 -1.7425367252e-10 
0 0 -8.9019973083e-09 0 0 -8.9019973083e-09 0 0 -1.7425367252e-10 
0 0 -1.7425367252e-10 0 0 -1.7425367252e-10 0 0 -1.7425367252e-10 
0 0 -1.7425367252e-10 0 0 -1.7425367252e-10 0 0 -1.7425367252e-10 
0 0 -1.7425367252e-10 0 0 -1.7425367252e-10 0 0 -1.7425367252e-10 
0 0 -1.7425367252e-10 0 0 -1.7425367252e-10 0 0 -1.7425367252e-10 
0 0 -1.7425367252e-10 0 0 -1.7425367252e-10 0 0 -1.7425367252e-10 
0 0 -1.7425367252e-10 0 0 -1.7425367252e-10 0 0 -1.7425367252e-10 
0 0 -1.7425367252e-10 0 0 -1.7425367252e-10 0 0 -1.7425367252e-10 
0 0 -1.7425367252e-10 0 0 -1.7425367252e-10 0 0 -1.7425367252e-10 
0 0 -1.7425367252e-10 0 0 -1.7425367252e-10 0 0 -1.7425367252e-10 
0 0 -1.7425367252e-10 0 0 -1.7425367252e-10 0 0 -8.9019973083e-09 
0 0 -1.7425367252e-10 0 0 -8.9019973083e-09 0 0 -1.7425367252e-10 
0 0 -1.7425367252e-10 0 0 -1.7425367252e-10 0 0 -1.7425367252e-10 
0 0 -1.7425367252e-10 0 0 -1.7425367252e-10 0 0 -1.7425367252e-10 
0 0 -1.7425367252e-10 0 0 -1.7425367252e-10 0 0 -1.7425367252e-10 
0 0 -1.7425367252e-10 0 0 -1.7425367252e-10 0 0 -1.7425367252e-10 
0 0 -1.7425367252e-10 0 0 -1.7425367252e-10 0 0 -1.7425367252e-10 
0 0 -1.7425367252e-10 0 0 -1.7425367252e-10 0 0 -1.7425367252e-10 
0 0 -1.7425367252e-10 0 0 -1.7425367252e-10 0 0 -1.7425367252e-10 
0 0 -1.7425367252e-10 0 0 -1.7425367252e-10 0 0 -1.7425367252e-10 
0 0 -1.7425367252e-10 0 0 -1.7425367252e-10 0 0 -1.7425367252e-10 
0 0 -1.7425367252e-10 0 0 -1.7425367252e-10 0 0 -1.7425367252e-10 
0 0 -1.7425367252e-10 0 0 -1.7425367252e-10 0 0 -1.7425367252e-10 
0 0 -1.7425367252e-10 0 0 -1.7425367252e-10 0 0 -1.7425367252e-10 
0 0 -1.7425367252e-10 0 0 -1.7425367252e-10 0 0 -1.7425367252e-10 
0 0 -1.7425367252e-10 0 0 -1.7425367252e-10 0 0 -1.7425367252e-10 
0 0 -1.7425367252e-10 0 0 -1.7425367252e-10 0 0 -1.7425367252e-10 
0 0 -1.7425367252e-10 0 0 -1.7425367252e-10 0 0 -1.7425367252e-10 
0 0 -1.7425367252e-10 0 0 -1.7425367252e-10 0 0 -1.7425367252e-10 
0 0 -1.7425367252e-10 0 0 -1.7425367252e-10 0 0 -1.7425367252e-10 
0 0 -1.7425367252e-10 0 0 -1.7425367252e-10 0 0 -1.7425367252e-10 
0 0 -8.9019973083e-09 0 0 -1.7425367252e-10 0 0 -1.7425367252e-10 
0 0 -1.7425367252e-10 0 0 -1.7425367252e-10 0 0 -1.7425367252e-10 
0 0 -1.7425367252e-10 0 0 -1.7425367252e-10 0 0 -1.7425367252e-10 
0 0 -1.7425367252e-10 0 0 -1.7425367252e-10 0 0 -1.7425367252e-10 
0 0 -1.7425367252e-10 0 0 -1.7425367252e-10 0 0 -1.7425367252e-10 
0 0 -1.7425367252e-10 0 0 -1.7425367252e-10 0 0 -1.7425367252e-10 
0 0 -1.7425367252e-10 0 0 -1.7425367252e-10 0 0 -1.7425367252e-10 
0 0 -1.7425367252e-10 0 0 -1.7425367252e-10 0 0 -1.7425367252e-10 
0 0 -1.7425367252e-10 0 0 -1.7425367252e-10 0 0 -1.7425367252e-10 
0 0 -1.7425367252e-10 0 0 -1.7425367252e-10 0 0 -1.7425367252e-10 
0 0 -1.7425367252e-10 0 0 -1.7425367252e-10 0 0 -1.7425367252e-10 
0 0 -1.7425367252e-10 0 0 -1.7425367252e-10 0 0 -1.7425367252e-10 
0 0 -1.7425367252e-10 0 0 -1.7425367252e-10 0 0 -1.7425367252e-10 
0 0 -1.7425367252e-10 0 0 -1.7425367252e-10 0 0 -1.7425367252e-10 
0 0 -1.7425367252e-10 0 0 -1.7425367252e-10 0 0 -1.7425367252e-10 
0 0 -1.7425367252e-10 0 0 -1.7425367252e-10 0 0 -1.7425367252e-10 
0 0 -1.7425367252e-10 0 0 -1.7425367252e-10 0 0 -1.7425367252e-10 
0 0 -1.7425367252e-10 0 0 -1.7425367252e-10 0 0 -1.7425367252e-10 
0 0 -1.7425367252e-10 0 0 -1.7425367252e-10 0 0 -1.7425367252e-10 
0 0 -1.7425367252e-10 0 0 -1.7425367252e-10 0 0 -1.7425367252e-10 
0 0 -1.7425367252e-10 0 0 -1.7425367252e-10 0 0 -1.7425367252e-10 
0 0 -1.7425367252e-10 0 0 -1.7425367252e-10 0 0 -1.7425367252e-10 
0 0 -1.7425367252e-10 0 0 -1.7425367252e-10 0 0 -1.7425367252e-10 
0 0 -1.7425367252e-10 0 0 -1.7425367252e-10 0 0 -1.7425367252e-10 
0 0 -1.7425367252e-10 0 0 -1.7425367252e-10 0 0 -1.7425367252e-10 
0 0 -1.7425367252e-10 0 0 -1.7425367252e-10 0 0 -1.7425367252e-10 
0 0 -1.7425367252e-10 0 0 -1.7425367252e-10 0 0 -1.7425367252e-10 
0 0 -1.7425367252e-10 0 0 -1.7425367252e-10 0 0 -1.7425367252e-10 
0 0 -8.9019973083e-09 0 0 -1.7425367252e-10 0 0 -1.7425367252e-10 
0 0 -1.7425367252e-10 0 0 -1.7425367252e-10 0 0 -1.7425367252e-10 
0 0 -1.7425367252e-10 0 0 -1.7425367252e-10 0 0 -1.7425367252e-10 
0 0 -1.7425367252e-10 0 0 -1.7425367252e-10 0 0 -1.7425367252e-10 
0 0 -1.7425367252e-10 0 0 -1.7425367252e-10 0 0 -1.7425367252e-10 
0 0 -1.7425367252e-10 0 0 -1.7425367252e-10 0 0 -1.7425367252e-10 
0 0 -1.7425367252e-10 0 0 -1.7425367252e-10 0 0 -1.7425367252e-10 
0 0 -1.7425367252e-10 0 0 -1.7425367252e-10 0 0 -1.7425367252e-10 
0 0 -1.7425367252e-10 0 0 -1.7425367252e-10 0 0 -1.7425367252e-10 
0 0 -1.7425367252e-10 0 0 -1.7425367252e-10 0 0 -1.7425367252e-10 
0 0 -1.7425367252e-10 0 0 -1.7425367252e-10 0 0 -1.7425367252e-10 
0 0 -1.7425367252e-10 0 0 -1.7425367252e-10 0 0 -1.7425367252e-10 
0 0 -1.7425367252e-10 0 0 -1.7425367252e-10 0 0 -1.7425367252e-10 
0 0 -1.7425367252e-10 0 0 -1.7425367252e-10 0 0 -1.7425367252e-10 
0 0 -1.7425367252e-10 0 0 -1.7425367252e-10 0 0 -1.7425367252e-10 
0 0 -1.7425367252e-10 0 0 -1.7425367252e-10 0 0 -1.7425367252e-10 
0 0 -1.7425367252e-10 0 0 -1.7425367252e-10 0 0 -1.7425367252e-10 
0 0 -6.8918688838e-08 0 0 -1.7425367252e-10 0 0 -1.7425367252e-10 
0 0 -1.7425367252e-10 0 0 -1.7425367252e-10 0 0 -1.7425367252e-10 
0 0 -1.7425367252e-10 0 0 -1.7425367252e-10 0 0 -1.7425367252e-10 
0 0 -1.7425367252e-10 0 0 -1.7425367252e-10 0 0 -1.7425367252e-10 
0 0 -1.7425367252e-10 0 0 -1.7425367252e-10 0 0 -1.7425367252e-10 
0 0 -1.7425367252e-10 0 0 -1.7425367252e-10 0 0 -1.7425367252e-10 
0 0 -1.7425367252e-10 0 0 -1.7425367252e-10 0 0 -1.7425367252e-10 
0 0 -1.7425367252e-10 0 0 -1.7425367252e-10 0 0 -1.7425367252e-10 
0 0 -1.7425367252e-10 0 0 -1.7425367252e-10 0 0 -1.7425367252e-10 
0 0 -1.7425367252e-10 0 0 -1.7425367252e-10 0 0 -1.7425367252e-10 
0 0 -1.7425367252e-10 0 0 -1.7425367252e-10 0 0 -1.7425367252e-10 
0 0 -1.7425367252e-10 0 0 -1.7425367252e-10 0 0 -1.7425367252e-10 
0 0 -1.7425367252e-10 0 0 -1.7425367252e-10 0 0 -1.7425367252e-10 
0 0 -1.7425367252e-10 0 0 -1.7425367252e-10 0 0 -1.7425367252e-10 
0 0 -1.7425367252e-10 0 0 -1.7425367252e-10 0 0 -1.7425367252e-10 
0 0 -1.7425367252e-10 0 0 -1.7425367252e-10 0 0 -1.7425367252e-10 
0 0 -1.7425367252e-10 0 0 -1.7425367252e-10 0 0 -1.7425367252e-10 
0 0 -1.7425367252e-10 0 0 -1.7425367252e-10 0 0 -1.7425367252e-10 
0 0 -1.7425367252e-10 0 0 -1.7425367252e-10 0 0 -1.7425367252e-10 
0 0 -1.7425367252e-10 0 0 -1.7425367252e-10 0 0 -1.7425367252e-10 
0 0 -1.7425367252e-10 0 0 -1.7425367252e-10 0 0 -1.7425367252e-10 
0 0 -1.7425367252e-10 0 0 -1.7425367252e-10 0 0 -1.7425367252e-10 
0 0 -1.7425367252e-10 0 0 -1.7425367252e-10 0 0 -1.7425367252e-10 
0 0 -1.7425367252e-10 0 0 -1.7425367252e-10 0 0 -1.7425367252e-10 
0 0 -1.7425367252e-10 0 0 -1.7425367252e-10 0 0 -1.7425367252e-10 
0 0 -1.7425367252e-10 0 0 -1.7425367252e-10 0 0 -1.7425367252e-10 
0 0 -1.7425367252e-10 0 0 -1.7425367252e-10 0 0 -1.7425367252e-10 
0 0 -1.7425367252e-10 0 0 -1.7425367252e-10 0 0 -1.7425367252e-10 
0 0 -1.7425367252e-10 0 0 -1.7425367252e-10 0 0 -1.7425367252e-10 
0 0 -1.7425367252e-10 0 0 -1.7425367252e-10 0 0 -1.7425367252e-10 
0 0 -1.7425367252e-10 0 0 -1.7425367252e-10 0 0 -1.7425367252e-10 
0 0 -1.7425367252e-10 0 0 -1.7425367252e-10 0 0 -1.7425367252e-10 
0 0 -1.7425367252e-10 0 0 -1.7425367252e-10 0 0 -1.7425367252e-10 
0 0 -1.7425367252e-10 0 0 -1.7425367252e-10 0 0 -1.7425367252e-10 
0 0 -1.7425367252e-10 0 0 -1.7425367252e-10 0 0 -1.7425367252e-10 
0 0 -1.7425367252e-10 0 0 -1.7425367252e-10 0 0 -1.7425367252e-10 
0 0 -1.7425367252e-10 0 0 -1.7425367252e-10 0 0 -1.7425367252e-10 
0 0 -1.7425367252e-10 0 0 -1.7425367252e-10 0 0 -1.7425367252e-10 
0 0 -1.7425367252e-10 0 0 -8.9019973083e-09 0 0 -1.7425367252e-10 
0 0 -1.7425367252e-10 0 0 -8.9019973083e-09 0 0 -1.7425367252e-10 
0 0 -1.7425367252e-10 0 0 -1.7425367252e-10 0 0 -1.7425367252e-10 
0 0 -8.9019973083e-09 0 0 -1.7425367252e-10 0 0 -1.7425367252e-10 
0 0 -1.7425367252e-10 0 0 -8.9019973083e-09 0 0 -1.7425367252e-10 
0 0 -1.7425367252e-10 0 0 -1.7425367252e-10 0 0 -1.7425367252e-10 
0 0 -1.7425367252e-10 0 0 -8.9019973083e-09 0 0 -5.3297119368e-07 

radius 1 648 double
2e-05 2e-05 2e-05 2e-05 2e-05 2e-05 2e-05 2e-05 2e-05 
2e-05 2e-05 2e-05 2e-05 2e-05 2e-05 2e-05 2e-05 2e-05 
2e-05 2e-05 7.5e-05 2e-05 2e-05 2e-05 2e-05 2e-05 2e-05 
2e-05 2e-05 2e-05 2e-05 2e-05 2e-05 2e-05 2e-05 2e-05 
2e-05 2e-05 2e-05 2e-05 2e-05 2e-05 2e-05 2e-05 2e-05 
2e-05 2e-05 2e-05 2e-05 2e-05 2e-05 2e-05 2e-05 2e-05 
2e-05 2e-05 2e-05 2e-05 2e-05 2e-05 2e-05 2e-05 2e-05 
2e-05 2e-05 2e-05 2e-05 2e-05 2e-05 2e-05 2e-05 2e-05 
2e-05 2e-05 2e-05 2e-05 2e-05 2e-05 2e-05 2e-05 2e-05 
2e-05 2e-05 2e-05 2e-05 2e-05 2e-05 2e-05 2e-05 2e-05 
2e-05 2e-05 2e-05 2e-05 2e-05 7.5e-05 2e-05 2e-05 2e-05 
2e-05 2e-05 2e-05 7.5e-05 2e-05 2e-05 2e-05 2e-05 2e-05 
2e-05 2e-05 2e-05 2e-05 2e-05 2e-05 2e-05 2e-05 2e-05 
2e-05 2e-05 2e-05 2e-05 2e-05 7.5e-05 2e-05 2e-05 2e-05 
2e-05 2e-05 2e-05 2e-05 2e-05 2e-05 2e-05 2e-05 2e-05 
2e-05 2e-05 2e-05 2e-05 2e-05 2e-05 2e-05 2e-05 2e-05 
2e-05 2e-05 2e-05 2e-05 2e-05 2e-05 2e-05 2e-05 2e-05 
2e-05 2e-05 2e-05 2e-05 2e-05 2e-05 2e-05 2e-05 2e-05 
2e-05 2e-05 2e-05 2e-05 2e-05 2e-05 2e-05 2e-05 2e-05 
2e-05 2e-05 2e-05 2e-05 2e-05 2e-05 2e-05 2e-05 2e-05 
2e-05 2e-05 2e-05 2e-05 2e-05 7.5e-05 2e-05 2e-05 2e-05 
2e-05 2e-05 2e-05 2e-05 2e-05 2e-05 2e-05 2e-05 2e-05 
2e-05 2e-05 2e-05 2e-05 2e-05 2e-05 2e-05 2e-05 2e-05 
2e-05 2e-05 2e-05 2e-05 2e-05 2e-05 2e-05 2e-05 2e-05 
2e-05 2e-05 2e-05 2e-05 2e-05 2e-05 2e-05 2e-05 2e-05 
2e-05 2e-05 2e-05 2e-05 2e-05 2e-05 2e-05 2e-05 2e-05 
2e-05 2e-05 2e-05 2e-05 2e-05 2e-05 2e-05 2e-05 2e-05 
2e-05 2e-05 2e-05 2e-05 2e-05 2e-05 2e-05 2e-05 2e-05 
7.5e-05 2e-05 2e-05 2e-05 2e-05 2e-05 2e-05 2e-05 2e-05 
2e-05 2e-05 2e-05 2e-05 2e-05 2e-05 2e-05 2e-05 2e-05 
2e-05 2e-05 2e-05 2e-05 2e-05 2e-05 2e-05 2e-05 2e-05 
2e-05 2e-05 2e-05 2e-05 2e-05 2e-05 7.5e-05 7.5e-05 2e-05 
2e-05 2e-05 2e-05 2e-05 2e-05 2e-05 2e-05 2e-05 2e-05 
2e-05 2e-05 2e-05 2e-05 2e-05 2e-05 2e-05 2e-05 2e-05 
2e-05 2e-05 2e-05 2e-05 2e-05 2e-05 2e-05 2e-05 2e-05 
2e-05 2e-05 7.5e-05 2e-05 7.5e-05 2e-05 2e-05 2e-05 2e-05 
2e-05 2e-05 2e-05 2e-05 2e-05 2e-05 2e-05 2e-05 2e-05 
2e-05 2e-05 2e-05 2e-05 2e-05 2e-05 2e-05 2e-05 2e-05 
2e-05 2e-05 2e-05 2e-05 2e-05 2e-05 2e-05 2e-05 2e-05 
2e-05 2e-05 2e-05 2e-05 2e-05 2e-05 2e-05 2e-05 2e-05 
2e-05 2e-05 2e-05 2e-05 2e-05 2e-05 2e-05 2e-05 2e-05 
2e-05 2e-05 2e-05 2e-05 2e-05 2e-05 2e-05 2e-05 2e-05 
7.5e-05 2e-05 2e-05 2e-05 2e-05 2e-05 2e-05 2e-05 2e-05 
2e-05 2e-05 2e-05 2e-05 2e-05 2e-05 2e-05 2e-05 2e-05 
2e-05 2e-05 2e-05 2e-05 2e-05 2e-05 2e-05 2e-05 2e-05 
2e-05 2e-05 2e-05 2e-05 2e-05 2e-05 2e-05 2e-05 2e-05 
2e-05 2e-05 2e-05 2e-05 2e-05 2e-05 2e-05 2e-05 2e-05 
2e-05 2e-05 2e-05 2e-05 2e-05 2e-05 2e-05 2e-05 2e-05 
2e-05 2e-05 2e-05 2e-05 2e-05 2e-05 2e-05 2e-05 2e-05 
2e-05 2e-05 2e-05 2e-05 2e-05 2e-05 2e-05 2e-05 2e-05 
2e-05 2e-05 2e-05 2e-05 2e-05 2e-05 2e-05 2e-05 2e-05 
2e-05 2e-05 2e-05 7.5e-05 2e-05 2e-05 2e-05 2e-05 2e-05 
2e-05 2e-05 2e-05 2e-05 2e-05 2e-05 2e-05 2e-05 2e-05 
2e-05 2e-05 2e-05 2e-05 2e-05 2e-05 2e-05 2e-05 2e-05 
2e-05 2e-05 2e-05 2e-05 2e-05 2e-05 2e-05 2e-05 2e-05 
2e-05 2e-05 2e-05 2e-05 2e-05 2e-05 2e-05 2e-05 2e-05 
2e-05 2e-05 2e-05 2e-05 2e-05 2e-05 2e-05 2e-05 2e-05 
0.00015 2e-05 2e-05 2e-05 2e-05 2e-05 2e-05 2e-05 2e-05 
2e-05 2e-05 2e-05 2e-05 2e-05 2e-05 2e-05 2e-05 2e-05 
2e-05 2e-05 2e-05 2e-05 2e-05 2e-05 2e-05 2e-05 2e-05 
2e-05 2e-05 2e-05 2e-05 2e-05 2e-05 2e-05 2e-05 2e-05 
2e-05 2e-05 2e-05 2e-05 2e-05 2e-05 2e-05 2e-05 2e-05 
2e-05 2e-05 2e-05 2e-05 2e-05 2e-05 2e-05 2e-05 2e-05 
2e-05 2e-05 2e-05 2e-05 2e-05 2e-05 2e-05 2e-05 2e-05 
2e-05 2e-05 2e-05 2e-05 2e-05 2e-05 2e-05 2e-05 2e-05 
2e-05 2e-05 2e-05 2e-05 2e-05 2e-05 2e-05 2e-05 2e-05 
2e-05 2e-05 2e-05 2e-05 2e-05 2e-05 2e-05 2e-05 2e-05 
2e-05 2e-05 2e-05 2e-05 2e-05 2e-05 2e-05 2e-05 2e-05 
2e-05 2e-05 2e-05 2e-05 2e-05 2e-05 2e-05 2e-05 2e-05 
2e-05 2e-05 2e-05 2e-05 2e-05 2e-05 2e-05 7.5e-05 2e-05 
2e-05 7.5e-05 2e-05 2e-05 2e-05 2e-05 7.5e-05 2e-05 2e-05 
2e-05 7.5e-05 2e-05 2e-05 2e-05 2e-05 2e-05 7.5e-05 0.0003 

omega 3 648 double
0 0 0 0 0 0 0 0 0 
0 0 0 0 0 0 0 0 0 
0 0 0 0 0 0 0 0 0 
0 0 0 0 0 0 0 0 0 
0 0 0 0 0 0 0 0 0 
0 0 0 0 0 0 0 0 0 
0 0 0 0 0 0 0 0 0 
0 0 0 0 0 0 0 0 0 
0 0 0 0 0 0 0 0 0 
0 0 0 0 0 0 0 0 0 
0 0 0 0 0 0 0 0 0 
0 0 0 0 0 0 0 0 0 
0 0 0 0 0 0 0 0 0 
0 0 0 0 0 0 0 0 0 
0 0 0 0 0 0 0 0 0 
0 0 0 0 0 0 0 0 0 
0 0 0 0 0 0 0 0 0 
0 0 0 0 0 0 0 0 0 
0 0 0 0 0 0 0 0 0 
0 0 0 0 0 0 0 0 0 
0 0 0 0 0 0 0 0 0 
0 0 0 0 0 0 0 0 0 
0 0 0 0 0 0 0 0 0 
0 0 0 0 0 0 0 0 0 
0 0 0 0 0 0 0 0 0 
0 0 0 0 0 0 0 0 0 
0 0 0 0 0 0 0 0 0 
0 0 0 0 0 0 0 0 0 
0 0 0 0 0 0 0 0 0 
0 0 0 0 0 0 0 0 0 
0 0 0 0 0 0 0 0 0 
0 0 0 0 0 0 0 0 0 
0 0 0 0 0 0 0 0 0 
0 0 0 0 0 0 0 0 0 
0 0 0 0 0 0 0 0 0 
0 0 0 0 0 0 0 0 0 
0 0 0 0 0 0 0 0 0 
0 0 0 0 0 0 0 0 0 
0 0 0 0 0 0 0 0 0 
0 0 0 0 0 0 0 0 0 
0 0 0 0 0 0 0 0 0 
0 0 0 0 0 0 0 0 0 
0 0 0 0 0 0 0 0 0 
0 0 0 0 0 0 0 0 0 
0 0 0 0 0 0 0 0 0 
0 0 0 0 0 0 0 0 0 
0 0 0 0 0 0 0 0 0 
0 0 0 0 0 0 0 0 0 
0 0 0 0 0 0 0 0 0 
0 0 0 0 0 0 0 0 0 
0 0 0 0 0 0 0 0 0 
0 0 0 0 0 0 0 0 0 
0 0 0 0 0 0 0 0 0 
0 0 0 0 0 0 0 0 0 
0 0 0 0 0 0 0 0 0 
0 0 0 0 0 0 0 0 0 
0 0 0 0 0 0 0 0 0 
0 0 0 0 0 0 0 0 0 
0 0 0 0 0 0 0 0 0 
0 0 0 0 0 0 0 0 0 
0 0 0 0 0 0 0 0 0 
0 0 0 0 0 0 0 0 0 
0 0 0 0 0 0 0 0 0 
0 0 0 0 0 0 0 0 0 
0 0 0 0 0 0 0 0 0 
0 0 0 0 0 0 0 0 0 
0 0 0 0 0 0 0 0 0 
0 0 0 0 0 0 0 0 0 
0 0 0 0 0 0 0 0 0 
0 0 0 0 0 0 0 0 0 
0 0 0 0 0 0 0 0 0 
0 0 0 0 0 0 0 0 0 
0 0 0 0 0 0 0 0 0 
0 0 0 0 0 0 0 0 0 
0 0 0 0 0 0 0 0 0 
0 0 0 0 0 0 0 0 0 
0 0 0 0 0 0 0 0 0 
0 0 0 0 0 0 0 0 0 
0 0 0 0 0 0 0 0 0 
0 0 0 0 0 0 0 0 0 
0 0 0 0 0 0 0 0 0 
0 0 0 0 0 0 0 0 0 
0 0 0 0 0 0 0 0 0 
0 0 0 0 0 0 0 0 0 
0 0 0 0 0 0 0 0 0 
0 0 0 0 0 0 0 0 0 
0 0 0 0 0 0 0 0 0 
0 0 0 0 0 0 0 0 0 
0 0 0 0 0 0 0 0 0 
0 0 0 0 0 0 0 0 0 
0 0 0 0 0 0 0 0 0 
0 0 0 0 0 0 0 0 0 
0 0 0 0 0 0 0 0 0 
0 0 0 0 0 0 0 0 0 
0 0 0 0 0 0 0 0 0 
0 0 0 0 0 0 0 0 0 
0 0 0 0 0 0 0 0 0 
0 0 0 0 0 0 0 0 0 
0 0 0 0 0 0 0 0 0 
0 0 0 0 0 0 0 0 0 
0 0 0 0 0 0 0 0 0 
0 0 0 0 0 0 0 0 0 
0 0 0 0 0 0 0 0 0 
0 0 0 0 0 0 0 0 0 
0 0 0 0 0 0 0 0 0 
0 0 0 0 0 0 0 0 0 
0 0 0 0 0 0 0 0 0 
0 0 0 0 0 0 0 0 0 
0 0 0 0 0 0 0 0 0 
0 0 0 0 0 0 0 0 0 
0 0 0 0 0 0 0 0 0 
0 0 0 0 0 0 0 0 0 
0 0 0 0 0 0 0 0 0 
0 0 0 0 0 0 0 0 0 
0 0 0 0 0 0 0 0 0 
0 0 0 0 0 0 0 0 0 
0 0 0 0 0 0 0 0 0 
0 0 0 0 0 0 0 0 0 
0 0 0 0 0 0 0 0 0 
0 0 0 0 0 0 0 0 0 
0 0 0 0 0 0 0 0 0 
0 0 0 0 0 0 0 0 0 
0 0 0 0 0 0 0 0 0 
0 0 0 0 0 0 0 0 0 
0 0 0 0 0 0 0 0 0 
0 0 0 0 0 0 0 0 0 
0 0 0 0 0 0 0 0 0 
0 0 0 0 0 0 0 0 0 
0 0 0 0 0 0 0 0 0 
0 0 0 0 0 0 0 0 0 
0 0 0 0 0 0 0 0 0 
0 0 0 0 0 0 0 0 0 
0 0 0 0 0 0 0 0 0 
0 0 0 0 0 0 0 0 0 
0 0 0 0 0 0 0 0 0 
0 0 0 0 0 0 0 0 0 
0 0 0 0 0 0 0 0 0 
0 0 0 0 0 0 0 0 0 
0 0 0 0 0 0 0 0 0 
0 0 0 0 0 0 0 0 0 
0 0 0 0 0 0 0 0 0 
0 0 0 0 0 0 0 0 0 
0 0 0 0 0 0 0 0 0 
0 0 0 0 0 0 0 0 0 
0 0 0 0 0 0 0 0 0 
0 0 0 0 0 0 0 0 0 
0 0 0 0 0 0 0 0 0 
0 0 0 0 0 0 0 0 0 
0 0 0 0 0 0 0 0 0 
0 0 0 0 0 0 0 0 0 
0 0 0 0 0 0 0 0 0 
0 0 0 0 0 0 0 0 0 
0 0 0 0 0 0 0 0 0 
0 0 0 0 0 0 0 0 0 
0 0 0 0 0 0 0 0 0 
0 0 0 0 0 0 0 0 0 
0 0 0 0 0 0 0 0 0 
0 0 0 0 0 0 0 0 0 
0 0 0 0 0 0 0 0 0 
0 0 0 0 0 0 0 0 0 
0 0 0 0 0 0 0 0 0 
0 0 0 0 0 0 0 0 0 
0 0 0 0 0 0 0 0 0 
0 0 0 0 0 0 0 0 0 
0 0 0 0 0 0 0 0 0 
0 0 0 0 0 0 0 0 0 
0 0 0 0 0 0 0 0 0 
0 0 0 0 0 0 0 0 0 
0 0 0 0 0 0 0 0 0 
0 0 0 0 0 0 0 0 0 
0 0 0 0 0 0 0 0 0 
0 0 0 0 0 0 0 0 0 
0 0 0 0 0 0 0 0 0 
0 0 0 0 0 0 0 0 0 
0 0 0 0 0 0 0 0 0 
0 0 0 0 0 0 0 0 0 
0 0 0 0 0 0 0 0 0 
0 0 0 0 0 0 0 0 0 
0 0 0 0 0 0 0 0 0 
0 0 0 0 0 0 0 0 0 
0 0 0 0 0 0 0 0 0 
0 0 0 0 0 0 0 0 0 
0 0 0 0 0 0 0 0 0 
0 0 0 0 0 0 0 0 0 
0 0 0 0 0 0 0 0 0 
0 0 0 0 0 0 0 0 0 
0 0 0 0 0 0 0 0 0 
0 0 0 0 0 0 0 0 0 
0 0 0 0 0 0 0 0 0 
0 0 0 0 0 0 0 0 0 
0 0 0 0 0 0 0 0 0 
0 0 0 0 0 0 0 0 0 
0 0 0 0 0 0 0 0 0 
0 0 0 0 0 0 0 0 0 
0 0 0 0 0 0 0 0 0 
0 0 0 0 0 0 0 0 0 
0 0 0 0 0 0 0 0 0 
0 0 0 0 0 0 0 0 0 
0 0 0 0 0 0 0 0 0 
0 0 0 0 0 0 0 0 0 
0 0 0 0 0 0 0 0 0 
0 0 0 0 0 0 0 0 0 
0 0 0 0 0 0 0 0 0 
0 0 0 0 0 0 0 0 0 
0 0 0 0 0 0 0 0 0 
0 0 0 0 0 0 0 0 0 
0 0 0 0 0 0 0 0 0 
0 0 0 0 0 0 0 0 0 
0 0 0 0 0 0 0 0 0 
0 0 0 0 0 0 0 0 0 
0 0 0 0 0 0 0 0 0 
0 0 0 0 0 0 0 0 0 
0 0 0 0 0 0 0 0 0 
0 0 0 0 0 0 0 0 0 
0 0 0 0 0 0 0 0 0 
0 0 0 0 0 0 0 0 0 

fx_mag_viz 1 648 double
0 0 0 0 0 0 0 0 0 
0 0 0 0 0 0 0 0 0 
0 0 0 0 0 0 0 0 0 
0 0 0 0 0 0 0 0 0 
0 0 0 0 0 0 0 0 0 
0 0 0 0 0 0 0 0 0 
0 0 0 0 0 0 0 0 0 
0 0 0 0 0 0 0 0 0 
0 0 0 0 0 0 0 0 0 
0 0 0 0 0 0 0 0 0 
0 0 0 0 0 0 0 0 0 
0 0 0 0 0 0 0 0 0 
0 0 0 0 0 0 0 0 0 
0 0 0 0 0 0 0 0 0 
0 0 0 0 0 0 0 0 0 
0 0 0 0 0 0 0 0 0 
0 0 0 0 0 0 0 0 0 
0 0 0 0 0 0 0 0 0 
0 0 0 0 0 0 0 0 0 
0 0 0 0 0 0 0 0 0 
0 0 0 0 0 0 0 0 0 
0 0 0 0 0 0 0 0 0 
0 0 0 0 0 0 0 0 0 
0 0 0 0 0 0 0 0 0 
0 0 0 0 0 0 0 0 0 
0 0 0 0 0 0 0 0 0 
0 0 0 0 0 0 0 0 0 
0 0 0 0 0 0 0 0 0 
0 0 0 0 0 0 0 0 0 
0 0 0 0 0 0 0 0 0 
0 0 0 0 0 0 0 0 0 
0 0 0 0 0 0 0 0 0 
0 0 0 0 0 0 0 0 0 
0 0 0 0 0 0 0 0 0 
0 0 0 0 0 0 0 0 0 
0 0 0 0 0 0 0 0 0 
0 0 0 0 0 0 0 0 0 
0 0 0 0 0 0 0 0 0 
0 0 0 0 0 0 0 0 0 
0 0 0 0 0 0 0 0 0 
0 0 0 0 0 0 0 0 0 
0 0 0 0 0 0 0 0 0 
0 0 0 0 0 0 0 0 0 
0 0 0 0 0 0 0 0 0 
0 0 0 0 0 0 0 0 0 
0 0 0 0 0 0 0 0 0 
0 0 0 0 0 0 0 0 0 
0 0 0 0 0 0 0 0 0 
0 0 0 0 0 0 0 0 0 
0 0 0 0 0 0 0 0 0 
0 0 0 0 0 0 0 0 0 
0 0 0 0 0 0 0 0 0 
0 0 0 0 0 0 0 0 0 
0 0 0 0 0 0 0 0 0 
0 0 0 0 0 0 0 0 0 
0 0 0 0 0 0 0 0 0 
0 0 0 0 0 0 0 0 0 
0 0 0 0 0 0 0 0 0 
0 0 0 0 0 0 0 0 0 
0 0 0 0 0 0 0 0 0 
0 0 0 0 0 0 0 0 0 
0 0 0 0 0 0 0 0 0 
0 0 0 0 0 0 0 0 0 
0 0 0 0 0 0 0 0 0 
0 0 0 0 0 0 0 0 0 
0 0 0 0 0 0 0 0 0 
0 0 0 0 0 0 0 0 0 
0 0 0 0 0 0 0 0 0 
0 0 0 0 0 0 0 0 0 
0 0 0 0 0 0 0 0 0 
0 0 0 0 0 0 0 0 0 
0 0 0 0 0 0 0 0 0 

fy_mag_viz 1 648 double
0 0 0 0 0 0 0 0 0 
0 0 0 0 0 0 0 0 0 
0 0 0 0 0 0 0 0 0 
0 0 0 0 0 0 0 0 0 
0 0 0 0 0 0 0 0 0 
0 0 0 0 0 0 0 0 0 
0 0 0 0 0 0 0 0 0 
0 0 0 0 0 0 0 0 0 
0 0 0 0 0 0 0 0 0 
0 0 0 0 0 0 0 0 0 
0 0 0 0 0 0 0 0 0 
0 0 0 0 0 0 0 0 0 
0 0 0 0 0 0 0 0 0 
0 0 0 0 0 0 0 0 0 
0 0 0 0 0 0 0 0 0 
0 0 0 0 0 0 0 0 0 
0 0 0 0 0 0 0 0 0 
0 0 0 0 0 0 0 0 0 
0 0 0 0 0 0 0 0 0 
0 0 0 0 0 0 0 0 0 
0 0 0 0 0 0 0 0 0 
0 0 0 0 0 0 0 0 0 
0 0 0 0 0 0 0 0 0 
0 0 0 0 0 0 0 0 0 
0 0 0 0 0 0 0 0 0 
0 0 0 0 0 0 0 0 0 
0 0 0 0 0 0 0 0 0 
0 0 0 0 0 0 0 0 0 
0 0 0 0 0 0 0 0 0 
0 0 0 0 0 0 0 0 0 
0 0 0 0 0 0 0 0 0 
0 0 0 0 0 0 0 0 0 
0 0 0 0 0 0 0 0 0 
0 0 0 0 0 0 0 0 0 
0 0 0 0 0 0 0 0 0 
0 0 0 0 0 0 0 0 0 
0 0 0 0 0 0 0 0 0 
0 0 0 0 0 0 0 0 0 
0 0 0 0 0 0 0 0 0 
0 0 0 0 0 0 0 0 0 
0 0 0 0 0 0 0 0 0 
0 0 0 0 0 0 0 0 0 
0 0 0 0 0 0 0 0 0 
0 0 0 0 0 0 0 0 0 
0 0 0 0 0 0 0 0 0 
0 0 0 0 0 0 0 0 0 
0 0 0 0 0 0 0 0 0 
0 0 0 0 0 0 0 0 0 
0 0 0 0 0 0 0 0 0 
0 0 0 0 0 0 0 0 0 
0 0 0 0 0 0 0 0 0 
0 0 0 0 0 0 0 0 0 
0 0 0 0 0 0 0 0 0 
0 0 0 0 0 0 0 0 0 
0 0 0 0 0 0 0 0 0 
0 0 0 0 0 0 0 0 0 
0 0 0 0 0 0 0 0 0 
0 0 0 0 0 0 0 0 0 
0 0 0 0 0 0 0 0 0 
0 0 0 0 0 0 0 0 0 
0 0 0 0 0 0 0 0 0 
0 0 0 0 0 0 0 0 0 
0 0 0 0 0 0 0 0 0 
0 0 0 0 0 0 0 0 0 
0 0 0 0 0 0 0 0 0 
0 0 0 0 0 0 0 0 0 
0 0 0 0 0 0 0 0 0 
0 0 0 0 0 0 0 0 0 
0 0 0 0 0 0 0 0 0 
0 0 0 0 0 0 0 0 0 
0 0 0 0 0 0 0 0 0 
0 0 0 0 0 0 0 0 0 

fz_mag_viz 1 648 double
0 0 0 0 0 0 0 0 0 
0 0 0 0 0 0 0 0 0 
0 0 0 0 0 0 0 0 0 
0 0 0 0 0 0 0 0 0 
0 0 0 0 0 0 0 0 0 
0 0 0 0 0 0 0 0 0 
0 0 0 0 0 0 0 0 0 
0 0 0 0 0 0 0 0 0 
0 0 0 0 0 0 0 0 0 
0 0 0 0 0 0 0 0 0 
0 0 0 0 0 0 0 0 0 
0 0 0 0 0 0 0 0 0 
0 0 0 0 0 0 0 0 0 
0 0 0 0 0 0 0 0 0 
0 0 0 0 0 0 0 0 0 
0 0 0 0 0 0 0 0 0 
0 0 0 0 0 0 0 0 0 
0 0 0 0 0 0 0 0 0 
0 0 0 0 0 0 0 0 0 
0 0 0 0 0 0 0 0 0 
0 0 0 0 0 0 0 0 0 
0 0 0 0 0 0 0 0 0 
0 0 0 0 0 0 0 0 0 
0 0 0 0 0 0 0 0 0 
0 0 0 0 0 0 0 0 0 
0 0 0 0 0 0 0 0 0 
0 0 0 0 0 0 0 0 0 
0 0 0 0 0 0 0 0 0 
0 0 0 0 0 0 0 0 0 
0 0 0 0 0 0 0 0 0 
0 0 0 0 0 0 0 0 0 
0 0 0 0 0 0 0 0 0 
0 0 0 0 0 0 0 0 0 
0 0 0 0 0 0 0 0 0 
0 0 0 0 0 0 0 0 0 
0 0 0 0 0 0 0 0 0 
0 0 0 0 0 0 0 0 0 
0 0 0 0 0 0 0 0 0 
0 0 0 0 0 0 0 0 0 
0 0 0 0 0 0 0 0 0 
0 0 0 0 0 0 0 0 0 
0 0 0 0 0 0 0 0 0 
0 0 0 0 0 0 0 0 0 
0 0 0 0 0 0 0 0 0 
0 0 0 0 0 0 0 0 0 
0 0 0 0 0 0 0 0 0 
0 0 0 0 0 0 0 0 0 
0 0 0 0 0 0 0 0 0 
0 0 0 0 0 0 0 0 0 
0 0 0 0 0 0 0 0 0 
0 0 0 0 0 0 0 0 0 
0 0 0 0 0 0 0 0 0 
0 0 0 0 0 0 0 0 0 
0 0 0 0 0 0 0 0 0 
0 0 0 0 0 0 0 0 0 
0 0 0 0 0 0 0 0 0 
0 0 0 0 0 0 0 0 0 
0 0 0 0 0 0 0 0 0 
0 0 0 0 0 0 0 0 0 
0 0 0 0 0 0 0 0 0 
0 0 0 0 0 0 0 0 0 
0 0 0 0 0 0 0 0 0 
0 0 0 0 0 0 0 0 0 
0 0 0 0 0 0 0 0 0 
0 0 0 0 0 0 0 0 0 
0 0 0 0 0 0 0 0 0 
0 0 0 0 0 0 0 0 0 
0 0 0 0 0 0 0 0 0 
0 0 0 0 0 0 0 0 0 
0 0 0 0 0 0 0 0 0 
0 0 0 0 0 0 0 0 0 
0 0 0 0 0 0 0 0 0 

B_magnitude 1 648 double
0 0 0 0 0 0 0 0 0 
0 0 0 0 0 0 0 0 0 
0 0 0 0 0 0 0 0 0 
0 0 0 0 0 0 0 0 0 
0 0 0 0 0 0 0 0 0 
0 0 0 0 0 0 0 0 0 
0 0 0 0 0 0 0 0 0 
0 0 0 0 0 0 0 0 0 
0 0 0 0 0 0 0 0 0 
0 0 0 0 0 0 0 0 0 
0 0 0 0 0 0 0 0 0 
0 0 0 0 0 0 0 0 0 
0 0 0 0 0 0 0 0 0 
0 0 0 0 0 0 0 0 0 
0 0 0 0 0 0 0 0 0 
0 0 0 0 0 0 0 0 0 
0 0 0 0 0 0 0 0 0 
0 0 0 0 0 0 0 0 0 
0 0 0 0 0 0 0 0 0 
0 0 0 0 0 0 0 0 0 
0 0 0 0 0 0 0 0 0 
0 0 0 0 0 0 0 0 0 
0 0 0 0 0 0 0 0 0 
0 0 0 0 0 0 0 0 0 
0 0 0 0 0 0 0 0 0 
0 0 0 0 0 0 0 0 0 
0 0 0 0 0 0 0 0 0 
0 0 0 0 0 0 0 0 0 
0 0 0 0 0 0 0 0 0 
0 0 0 0 0 0 0 0 0 
0 0 0 0 0 0 0 0 0 
0 0 0 0 0 0 0 0 0 
0 0 0 0 0 0 0 0 0 
0 0 0 0 0 0 0 0 0 
0 0 0 0 0 0 0 0 0 
0 0 0 0 0 0 0 0 0 
0 0 0 0 0 0 0 0 0 
0 0 0 0 0 0 0 0 0 
0 0 0 0 0 0 0 0 0 
0 0 0 0 0 0 0 0 0 
0 0 0 0 0 0 0 0 0 
0 0 0 0 0 0 0 0 0 
0 0 0 0 0 0 0 0 0 
0 0 0 0 0 0 0 0 0 
0 0 0 0 0 0 0 0 0 
0 0 0 0 0 0 0 0 0 
0 0 0 0 0 0 0 0 0 
0 0 0 0 0 0 0 0 0 
0 0 0 0 0 0 0 0 0 
0 0 0 0 0 0 0 0 0 
0 0 0 0 0 0 0 0 0 
0 0 0 0 0 0 0 0 0 
0 0 0 0 0 0 0 0 0 
0 0 0 0 0 0 0 0 0 
0 0 0 0 0 0 0 0 0 
0 0 0 0 0 0 0 0 0 
0 0 0 0 0 0 0 0 0 
0 0 0 0 0 0 0 0 0 
0 0 0 0 0 0 0 0 0 
0 0 0 0 0 0 0 0 0 
0 0 0 0 0 0 0 0 0 
0 0 0 0 0 0 0 0 0 
0 0 0 0 0 0 0 0 0 
0 0 0 0 0 0 0 0 0 
0 0 0 0 0 0 0 0 0 
0 0 0 0 0 0 0 0 0 
0 0 0 0 0 0 0 0 0 
0 0 0 0 0 0 0 0 0 
0 0 0 0 0 0 0 0 0 
0 0 0 0 0 0 0 0 0 
0 0 0 0 0 0 0 0 0 
0 0 0 0 0 0 0 0 0 

B_gradient_mag 1 648 double
0 0 0 0 0 0 0 0 0 
0 0 0 0 0 0 0 0 0 
0 0 0 0 0 0 0 0 0 
0 0 0 0 0 0 0 0 0 
0 0 0 0 0 0 0 0 0 
0 0 0 0 0 0 0 0 0 
0 0 0 0 0 0 0 0 0 
0 0 0 0 0 0 0 0 0 
0 0 0 0 0 0 0 0 0 
0 0 0 0 0 0 0 0 0 
0 0 0 0 0 0 0 0 0 
0 0 0 0 0 0 0 0 0 
0 0 0 0 0 0 0 0 0 
0 0 0 0 0 0 0 0 0 
0 0 0 0 0 0 0 0 0 
0 0 0 0 0 0 0 0 0 
0 0 0 0 0 0 0 0 0 
0 0 0 0 0 0 0 0 0 
0 0 0 0 0 0 0 0 0 
0 0 0 0 0 0 0 0 0 
0 0 0 0 0 0 0 0 0 
0 0 0 0 0 0 0 0 0 
0 0 0 0 0 0 0 0 0 
0 0 0 0 0 0 0 0 0 
0 0 0 0 0 0 0 0 0 
0 0 0 0 0 0 0 0 0 
0 0 0 0 0 0 0 0 0 
0 0 0 0 0 0 0 0 0 
0 0 0 0 0 0 0 0 0 
0 0 0 0 0 0 0 0 0 
0 0 0 0 0 0 0 0 0 
0 0 0 0 0 0 0 0 0 
0 0 0 0 0 0 0 0 0 
0 0 0 0 0 0 0 0 0 
0 0 0 0 0 0 0 0 0 
0 0 0 0 0 0 0 0 0 
0 0 0 0 0 0 0 0 0 
0 0 0 0 0 0 0 0 0 
0 0 0 0 0 0 0 0 0 
0 0 0 0 0 0 0 0 0 
0 0 0 0 0 0 0 0 0 
0 0 0 0 0 0 0 0 0 
0 0 0 0 0 0 0 0 0 
0 0 0 0 0 0 0 0 0 
0 0 0 0 0 0 0 0 0 
0 0 0 0 0 0 0 0 0 
0 0 0 0 0 0 0 0 0 
0 0 0 0 0 0 0 0 0 
0 0 0 0 0 0 0 0 0 
0 0 0 0 0 0 0 0 0 
0 0 0 0 0 0 0 0 0 
0 0 0 0 0 0 0 0 0 
0 0 0 0 0 0 0 0 0 
0 0 0 0 0 0 0 0 0 
0 0 0 0 0 0 0 0 0 
0 0 0 0 0 0 0 0 0 
0 0 0 0 0 0 0 0 0 
0 0 0 0 0 0 0 0 0 
0 0 0 0 0 0 0 0 0 
0 0 0 0 0 0 0 0 0 
0 0 0 0 0 0 0 0 0 
0 0 0 0 0 0 0 0 0 
0 0 0 0 0 0 0 0 0 
0 0 0 0 0 0 0 0 0 
0 0 0 0 0 0 0 0 0 
0 0 0 0 0 0 0 0 0 
0 0 0 0 0 0 0 0 0 
0 0 0 0 0 0 0 0 0 
0 0 0 0 0 0 0 0 0 
0 0 0 0 0 0 0 0 0 
0 0 0 0 0 0 0 0 0 
0 0 0 0 0 0 0 0 0 

