# vtk DataFile Version 5.1
Generated by LIGGGHTS
ASCII
DATASET POLYDATA
POINTS 648 float
-0.0428902 -0.0449088 0.00102 -0.044759 -0.0437614 0.00106639 -0.0308094 -0.0435702 0.00103188 
0.0418836 -0.0421436 0.00123984 -0.00674967 -0.0416523 0.00108506 0.0414821 -0.0410789 0.00129826 
-0.018434 -0.0405477 0.00119866 0.040047 -0.0404588 0.00102 -0.0108246 -0.0388127 0.00116836 
-0.00302782 -0.0385948 0.00102 0.0156715 -0.0391733 0.0010602 0.00798734 -0.0367051 0.00102 
0.0308099 -0.0378456 0.00125891 0.000822496 -0.0363122 0.00122157 0.0333162 -0.0342631 0.00119207 
0.023158 -0.0340207 0.00104857 0.0244271 -0.0334586 0.00121489 -0.0262624 -0.032473 0.00118703 
-0.0232422 -0.0321576 0.00108309 -0.0266532 -0.0301716 0.001026 -0.0105296 -0.0314142 0.00102 
0.0280204 -0.0311414 0.00103269 -0.0448384 -0.0296834 0.00102731 0.00577088 -0.0287415 0.00105182 
0.000892701 -0.0263701 0.00129994 0.0101031 -0.0273014 0.00115154 0.0306875 -0.0259396 0.00106945 
0.033456 -0.0256735 0.00102 0.032808 -0.025967 0.00104544 -0.0408326 -0.0234295 0.00102956 
-0.0350278 -0.0224863 0.00140051 0.0436787 -0.0219137 0.00106774 0.0336491 -0.0197505 0.00102 
-0.0108877 -0.0188832 0.00102747 0.0363266 -0.0194176 0.00124589 -0.0317771 -0.0175651 0.00104804 
0.0030191 -0.0179247 0.00121645 0.0404767 -0.0183151 0.00106704 -0.0257955 -0.0157834 0.00127642 
0.0223879 -0.0163393 0.00104051 0.0252581 -0.0163235 0.00138469 -0.0313057 -0.0141988 0.00148076 
-0.0117656 -0.0138394 0.00119809 0.00689113 -0.0107816 0.00102506 0.0277003 -0.0107969 0.00110175 
-0.0222502 -0.00974669 0.00119545 -0.0112192 -0.0104501 0.00103336 0.00743742 -0.00926665 0.00105469 
0.013874 -0.00963069 0.00117145 0.0313953 -0.00974065 0.00103589 0.0350526 -0.0102353 0.00102 
-0.00553214 -0.00871323 0.00105697 -0.0211095 -0.00770044 0.00117606 -0.0198564 -0.00683511 0.00102 
0.0109664 -0.00760095 0.00119568 -0.0129003 -0.00574839 0.00102 -0.00747582 -0.00609419 0.00106824 
-0.0253129 -0.0039775 0.00137074 0.00937085 -0.00418454 0.00102048 0.0131353 -0.00504642 0.00120364 
0.021323 -0.00444137 0.00122228 -0.0179231 -0.00300678 0.00102 -0.0141425 -0.00311887 0.00120853 
-0.0395569 -0.00227866 0.00127231 -0.00783961 -0.000387029 0.00102008 -0.00702036 -0.00121172 0.00118168 
-0.0260142 0.00017485 0.00111853 0.0384376 0.000848974 0.00102 -0.00967086 0.00179773 0.00102163 
0.00417698 0.0024455 0.00106697 0.0449494 0.00392273 0.00129709 0.0292006 0.00433004 0.00102 
0.0305447 0.00486582 0.00102 -0.0287984 0.00559412 0.00102 -0.0170872 0.00564833 0.00104129 
0.0011249 0.00615697 0.00102388 0.021602 0.00540593 0.00102 0.0228765 0.00606581 0.00104318 
0.0246705 0.0064451 0.00125364 -0.0426568 0.00723228 0.00102 0.0283387 0.00890506 0.00113798 
-0.0392616 0.00972366 0.00110623 -0.0349081 0.00917553 0.00144995 -0.0214351 0.00957734 0.00115655 
-0.0101256 0.00978275 0.00115337 0.0197977 0.00963841 0.00120742 0.0212596 0.00979192 0.00102 
-0.00071691 0.0108932 0.00119024 0.0399323 0.0117688 0.00102311 -0.00279986 0.0127222 0.00123276 
-0.034865 0.0142961 0.00102892 -0.0310202 0.0131063 0.00102 8.23501e-07 0.0138406 0.00124245 
0.0143092 0.0139794 0.00102 0.0248423 0.0143007 0.00102 0.0287781 0.014071 0.00102 
-0.00307286 0.0144526 0.00113807 0.00517921 0.0169249 0.00122777 0.0418335 0.0161761 0.00107468 
-0.0360536 0.0173104 0.00102 0.0215224 0.0171285 0.00102 -0.0214239 0.0189608 0.00105192 
-0.023041 0.0197144 0.00110518 -0.022709 0.0198803 0.0012742 -0.0153727 0.020636 0.00102 
-0.0282566 0.021284 0.00102 0.0123926 0.0218243 0.00102 0.03506 0.0228899 0.00102 
0.0307708 0.0242663 0.00108357 0.0167463 0.0251763 0.00102 0.0226957 0.0260881 0.0012666 
-0.0127911 0.0299546 0.00104558 -0.0409258 0.0305044 0.00103223 -0.0200898 0.0311527 0.00124204 
0.00372347 0.0304157 0.0011723 0.0038092 0.0311583 0.00122383 0.0364634 0.0310238 0.00130755 
0.0444958 0.0309554 0.00103128 -0.0073504 0.0318329 0.00114212 -0.0264781 0.032823 0.00102771 
0.00284552 0.0345861 0.00102108 0.0278529 0.0342296 0.0014357 0.0297434 0.0373158 0.00106372 
-0.00973825 0.0391656 0.001176 0.0165329 0.0385374 0.00102 0.0238959 0.0383247 0.00122269 
-0.0312382 0.0393096 0.00114982 0.0251972 0.0393087 0.00105263 0.0163992 0.0415262 0.00104279 
0.0222253 0.0407186 0.00116328 -0.0390027 0.0421086 0.00102 -0.0390775 0.0447256 0.00126414 
-0.0335565 -0.0442122 0.00113241 -0.00396528 -0.0444182 0.00237022 0.0195053 -0.043722 0.002028 
0.0131812 -0.0427533 0.0026536 0.0201641 -0.0426709 0.00169726 0.0348044 -0.042095 0.00155945 
0.0406519 -0.0427256 0.00154665 -0.0136468 -0.0412372 0.00199108 0.000425919 -0.0415728 0.00153033 
0.0338942 -0.0410147 0.00225882 -0.042922 -0.0404536 0.00132976 -0.0334706 -0.0396012 0.00129357 
-0.0248652 -0.040212 0.00155791 -0.0169239 -0.0402939 0.00254191 -0.0309963 -0.0355024 0.00237079 
-0.0168273 -0.0360331 0.00247602 -0.00161929 -0.0353994 0.00260714 0.0195647 -0.0366528 0.00261405 
0.0355384 -0.0354155 0.00168892 0.00594186 -0.0351889 0.00186638 0.0403097 -0.0347888 0.00251248 
0.0433459 -0.0353282 0.00159604 -0.0177803 -0.0340186 0.00171559 -0.0161578 -0.0337243 0.00194531 
-0.00586029 -0.0338127 0.00226045 0.027474 -0.0338615 0.00237378 -0.0233761 -0.031813 0.00203611 
-0.0160452 -0.0323821 0.00148182 0.0346336 -0.0325969 0.00214984 -0.0220587 -0.0306349 0.00249904 
-0.0414327 -0.0290659 0.00260309 0.00231692 -0.0294453 0.00256687 0.023019 -0.0293484 0.00222482 
-0.0401314 -0.0280847 0.0025448 -0.0346801 -0.0287009 0.00107412 0.0153133 -0.0285941 0.00172673 
-0.0430551 -0.0267583 0.00129384 0.0347572 -0.0260666 0.00109288 -0.00863888 -0.0237376 0.00226652 
0.00179778 -0.0247441 0.00178809 0.00558373 -0.0242787 0.00239616 -0.0127621 -0.0231756 0.00219523 
0.0115492 -0.0227248 0.00247634 0.0240101 -0.0228809 0.00215721 0.035159 -0.023363 0.00274097 
-0.0225401 -0.0213878 0.00155089 0.00623721 -0.0211799 0.00232461 0.0233461 -0.0214624 0.00192313 
0.039775 -0.0211058 0.00130161 -0.0210835 -0.0209207 0.00214278 -0.0033641 -0.0204173 0.00212368 
-0.0296942 -0.0196153 0.00213433 0.00156248 -0.0194187 0.00225009 -0.0100897 -0.0180162 0.00143278 
-0.0405162 -0.0161033 0.00175299 -0.0339565 -0.0167518 0.00158408 -0.0147645 -0.0165889 0.0022646 
0.038292 -0.016257 0.00260587 -0.015814 -0.0152491 0.00254372 -0.00444012 -0.0151621 0.00135071 
0.0132043 -0.01541 0.00102551 0.0198229 -0.0156851 0.00209958 0.0323803 -0.0150629 0.00250545 
0.0375745 -0.0151367 0.00254689 -0.0388614 -0.0136303 0.00109608 -0.0279963 -0.0141356 0.00113693 
-0.0227164 -0.0141288 0.00215695 0.0144468 -0.013247 0.00184832 -0.00528066 -0.0121118 0.00178332 
-0.0136128 -0.00979682 0.00104179 0.0251729 -0.00985964 0.00209354 0.0286804 -0.00919085 0.00232067 
0.0334462 -0.00930086 0.00239353 -0.042331 -0.00792816 0.0017373 -0.0344646 -0.00725539 0.00251118 
-0.0343844 -0.0078404 0.00102783 0.0275881 -0.00673863 0.00170675 0.0387156 -0.00624884 0.00217622 
0.0200271 -0.00425623 0.0021149 -0.0107529 -0.00365687 0.00233135 -0.00941413 -0.00330341 0.00266748 
0.0293019 -0.00298432 0.00214132 -0.0198668 -0.00211416 0.00164364 0.0168839 -0.00210364 0.00211447 
-0.0283489 -0.000417126 0.0026089 -0.0281455 -0.00127675 0.0022585 -0.0153419 -0.00108619 0.00232975 
0.0140084 -6.89735e-05 0.00257797 0.0116524 0.00206193 0.00267483 0.0188762 0.00181355 0.00122835 
0.032558 0.00153523 0.00201571 -0.0325416 0.00283857 0.00179678 -0.0261639 0.00337815 0.00190329 
-0.0233311 0.00384073 0.00113387 0.0183943 0.00266245 0.00188068 -0.025141 0.00447188 0.00199996 
0.0260144 0.00429017 0.00150889 0.0404406 0.00462082 0.00218308 0.0101693 0.00555192 0.00228593 
0.0358407 0.00533501 0.00157709 -0.0429246 0.00657681 0.00184447 0.0221269 0.00728552 0.00135771 
-0.019893 0.00878872 0.00152114 -0.0105861 0.00898083 0.00239649 0.0340899 0.00882812 0.00134346 
0.00978397 0.00922321 0.0023588 0.0211953 0.00966092 0.00211072 0.0234497 0.00978487 0.0014327 
-0.0394276 0.0109375 0.00212551 0.0398091 0.011618 0.00149117 -0.0350204 0.0121089 0.00255053 
-0.00831541 0.0129665 0.00219925 0.00861143 0.0123591 0.00140532 -0.00841171 0.0143034 0.0026854 
0.00789931 0.0136568 0.00245013 0.0311878 0.014057 0.00251754 0.0396593 0.013993 0.00248088 
-0.0231109 0.0157017 0.00160547 0.0121458 0.0151918 0.0017506 0.0440772 0.0154938 0.00167559 
-0.0408838 0.0159645 0.0014676 0.00976298 0.0163696 0.00174668 -0.0193355 0.018129 0.00173216 
0.00546842 0.0177814 0.0012214 0.0256029 0.0175394 0.00238684 0.0407412 0.0174253 0.00224476 
0.0090081 0.0191686 0.00134514 0.018015 0.0183735 0.00248904 0.00742845 0.0199749 0.00134471 
0.00976854 0.0197772 0.00136188 0.0350116 0.0207306 0.0024747 -0.0287332 0.0215601 0.00241206 
0.0398418 0.0217469 0.00243701 -0.0324762 0.0230005 0.00115912 -0.0295899 0.0232577 0.00257242 
-0.0148746 0.0223253 0.00237035 0.00126512 0.0228658 0.00269101 -0.0267196 0.0236159 0.00251731 
0.00264144 0.0247174 0.00218364 0.021223 0.0244832 0.00107144 0.0438582 0.0244724 0.00267637 
-0.00739359 0.0259593 0.00227701 -0.0128609 0.0265935 0.00178393 0.00953871 0.0271324 0.0024971 
0.0395905 0.0272142 0.00187712 -0.0357156 0.0282031 0.00208775 0.0397191 0.0283771 0.00131574 
-0.0313244 0.0314049 0.00124683 -0.0219587 0.0304934 0.00175979 0.00390562 0.0317225 0.0011515 
0.01325 0.0319187 0.00145462 0.0191028 0.0315895 0.00200275 0.0193546 0.0324404 0.00252614 
-0.0425374 0.0333781 0.0016519 -0.0337286 0.0337045 0.00240916 0.00727395 0.0332762 0.00216278 
0.0214431 0.0335886 0.0015757 -0.00472634 0.0344449 0.00196358 0.0231674 0.0340949 0.00209494 
-0.0407273 0.0358476 0.00233983 -0.041477 0.0364172 0.00137303 0.00888594 0.0360502 0.00190676 
0.00367032 0.0371324 0.00183965 -0.00883869 0.0381834 0.00212685 -0.00647711 0.0391566 0.00232631 
0.0281745 0.039089 0.00227302 -0.0112537 0.0395394 0.00214139 0.00201585 0.0404036 0.00191568 
0.0221021 0.0401282 0.00228052 -0.0133259 0.0414802 0.00240664 0.0294278 0.0431452 0.00229053 
-0.0205282 0.0432397 0.00241463 0.00528787 0.0432844 0.00234301 0.0352701 0.0439749 0.00266544 
0.0405446 0.0433429 0.00205786 0.0171919 0.0449185 0.00258967 0.0211706 0.0445491 0.00255448 
-0.0346971 -0.0446764 0.00291437 -0.00340304 -0.0448428 0.00270761 -0.027409 -0.0433703 0.00332557 
0.0145521 -0.0432303 0.00286088 0.0181024 -0.0433049 0.00266505 0.0416479 -0.0439733 0.00262779 
-0.0389435 -0.0425966 0.00312792 -0.0248654 -0.0427111 0.00291415 0.0248068 -0.0428986 0.00299664 
-0.0349861 -0.0412827 0.00275766 0.0166138 -0.0412108 0.00278966 0.0238162 -0.0409762 0.0035567 
0.0424299 -0.0409921 0.00280302 -0.0406141 -0.0405112 0.00296317 -0.00670669 -0.0394183 0.00338496 
0.0244803 -0.0401788 0.00280586 -0.0195638 -0.0385913 0.00305396 0.0325128 -0.03812 0.0019628 
-0.0370475 -0.0370945 0.00360537 0.00985621 -0.0367022 0.00281564 0.0397687 -0.0374633 0.00287083 
-0.0439713 -0.0357399 0.00338907 -0.0273176 -0.0361067 0.00277666 -0.0177429 -0.0346724 0.00331364 
-8.23525e-05 -0.034098 0.00324229 0.0077947 -0.0345433 0.00324122 0.00879071 -0.0344865 0.00330384 
-0.0427235 -0.0332389 0.0033606 -0.0376897 -0.0314333 0.00291178 0.00802514 -0.031483 0.00345272 
-0.0386911 -0.0311434 0.00333774 0.0449741 -0.0303513 0.00263287 -0.0263426 -0.0292431 0.00326973 
0.0346338 -0.0290927 0.00273143 -0.0240024 -0.0280603 0.00344541 0.0164647 -0.0275391 0.00269797 
-0.00580099 -0.0272788 0.00336481 0.03382 -0.0268981 0.0034918 -0.0338231 -0.0250135 0.0034091 
-0.00446216 -0.0255279 0.00318838 0.0350196 -0.0250011 0.00234115 0.00538025 -0.0241403 0.0030264 
0.0102479 -0.024092 0.00313075 0.0155599 -0.0240909 0.00308424 0.0109547 -0.0235646 0.00281889 
-0.0164034 -0.0216001 0.00283253 0.0394323 -0.021923 0.00277047 -0.00827992 -0.020547 0.00299856 
0.00548761 -0.0197918 0.00335999 0.0204492 -0.0194639 0.00287453 -0.0328213 -0.0176588 0.0029951 
-0.0204621 -0.0172006 0.00276894 -0.0426154 -0.0165053 0.00292294 -0.0408642 -0.0154151 0.00273807 
0.0249316 -0.014475 0.00295495 0.0268005 -0.0146468 0.00325795 -0.0329121 -0.0139828 0.00337716 
-0.0186412 -0.0134353 0.00274572 0.0403752 -0.0143085 0.00299531 -0.0341597 -0.0122829 0.00265614 
-0.0327621 -0.0121928 0.00311525 0.0176437 -0.0119747 0.0025528 -0.0196799 -0.00931279 0.00271469 
0.0406218 -0.0100941 0.0033751 -0.00254943 -0.00825679 0.00280669 -0.0304645 -0.00701594 0.00330127 
-0.0135858 -0.00672635 0.00355189 -0.00401126 -0.00720159 0.00318283 -0.00433253 -0.00676057 0.00241439 
0.0129906 -0.00677597 0.00255904 0.0161928 -0.00760918 0.00288017 0.0404774 -0.00688032 0.00294851 
0.00523139 -0.00599236 0.00342036 -0.040885 -0.00406647 0.00273353 0.0180458 -0.00470109 0.00290348 
-0.042786 -0.00359954 0.00315023 -0.0120059 -0.00345367 0.002803 0.00975646 -0.00313231 0.0027192 
-0.0408474 -0.00214648 0.00271578 -0.00896956 -0.00131708 0.00276183 0.00664535 -0.00164817 0.00280941 
-0.0376932 -0.000132947 0.00328154 0.0290986 -0.000251763 0.00256662 0.039455 -0.000236508 0.00189764 
-0.0416237 0.00110806 0.0034869 0.0407777 0.000744206 0.00340485 -0.00229178 0.0020129 0.00253539 
0.0147261 0.00139147 0.00253185 0.0189244 0.00254502 0.00299954 0.0362421 0.00170773 0.00352848 
0.00243665 0.00282786 0.00292557 0.0323225 0.00436429 0.00288478 -0.0406381 0.00555966 0.00291085 
-0.037077 0.00611456 0.00282883 -0.00723413 0.00605583 0.00352137 0.0250346 0.00641518 0.0032773 
0.030759 0.00580352 0.00294052 0.0332757 0.00539899 0.00314745 -0.009285 0.00693532 0.00196536 
-0.00598638 0.00689803 0.00248514 0.00533928 0.00728904 0.00259733 0.0110904 0.00657535 0.00332779 
0.0142017 0.0079404 0.00345196 0.0202046 0.00840095 0.00345706 0.0324887 0.00836074 0.00287422 
-0.0408092 0.00981999 0.00333667 -0.0408306 0.00999374 0.00272495 0.00474506 0.0103043 0.00316492 
0.027557 0.009967 0.00302889 -0.00808524 0.0113378 0.00237114 -0.0365733 0.0119208 0.0029537 
0.00243185 0.0120975 0.00312509 0.0128044 0.0127337 0.00288928 0.014866 0.0127598 0.00354939 
0.0261916 0.0119357 0.00350798 -0.0429188 0.0135204 0.00282994 -0.00867948 0.0139924 0.00327451 
0.0336082 0.013194 0.00294795 0.0441199 0.0136981 0.00271159 -0.0196462 0.0155185 0.00296523 
0.000954082 0.0152563 0.00295757 -0.00443291 0.0160613 0.00283973 0.0226738 0.0181095 0.00298819 
0.00395304 0.0187088 0.00292307 0.00757299 0.0192258 0.0026669 0.0122157 0.0191756 0.00292353 
0.0388885 0.0193682 0.00299272 -0.0431379 0.0208085 0.00296805 -0.0122989 0.0222019 0.00293382 
0.00128112 0.0217131 0.00272938 0.0362273 0.0220011 0.00315458 -0.0421793 0.0225172 0.00349068 
-0.0349287 0.0230684 0.00280007 0.0146363 0.0223077 0.00328293 0.0258603 0.0235991 0.00305381 
-0.0386663 0.0253433 0.00255227 -0.0267569 0.0263983 0.00267915 -0.0190887 0.0269029 0.00351153 
-0.0114472 0.026715 0.00356408 -0.00563177 0.0268155 0.00264366 0.00834461 0.0278725 0.00299885 
-0.0376379 0.0294143 0.00343863 0.0191509 0.0299648 0.00286021 0.0434247 0.0295768 0.00305529 
-0.0108954 0.0304 0.00287848 0.00519606 0.0301696 0.00279813 0.0040127 0.0314243 0.00306372 
0.026696 0.03017 0.00278148 -0.00435696 0.0325462 0.0035609 0.0337272 0.0324898 0.00297747 
0.0372507 0.0318783 0.00327037 0.0380057 0.0324307 0.00251626 0.00317215 0.0343196 0.00287571 
-0.00196307 0.0366495 0.0026454 -0.0245447 0.0378537 0.00268636 0.0030545 0.0369981 0.00315029 
0.0311732 0.0371467 0.00346476 -0.00585061 0.0388609 0.00282309 -0.0375088 0.0393741 0.00277774 
0.00805094 0.0422278 0.00336976 -0.0181988 0.0434549 0.00286301 0.0114086 0.0440135 0.00266774 
0.0352379 0.0438995 0.00288441 0.0399235 0.0434757 0.00337597 0.00849583 -0.0405939 0.00371686 
-0.0210092 -0.0320472 0.00433 0.0268369 -0.0315202 0.00423434 -0.0240719 -0.0268296 0.00466738 
-0.0323128 -0.0219837 0.00416845 -0.0207996 -0.0190456 0.00359071 0.00886689 -0.0141191 0.00454168 
-0.0269092 -0.0125643 0.00440583 0.0253763 -0.011051 0.00336089 -0.038829 -0.00978443 0.00411666 
-0.0253401 -0.0103599 0.0035983 -0.0214415 -0.007536 0.00463424 -0.0150798 -0.00698339 0.00456268 
0.0180565 -0.00487531 0.00384618 -0.000610522 -0.00103491 0.00421417 0.0420414 -0.00101026 0.00398502 
0.00314898 0.00491531 0.00464584 -0.0403489 0.00598291 0.00330678 0.012949 0.0143048 0.0035637 
-0.0287818 0.014969 0.00450292 -0.0363159 0.0185996 0.004513 -0.0436572 0.0238848 0.00362898 
-0.00782209 0.0241861 0.00420869 0.0181332 0.0246356 0.00385312 0.000162142 0.0251126 0.00451952 
-0.0214233 0.0285543 0.00436137 0.0170579 0.0421878 0.0044917 0.0262096 -0.0449372 0.00538073 
-0.0289295 -0.0389067 0.00508844 0.0392765 -0.0300093 0.00561352 0.0210005 -0.0239559 0.00472956 
0.0134129 -0.0192809 0.00547575 0.0184681 -0.0172117 0.00523831 -0.00710141 -0.0133745 0.00520817 
0.0322358 -0.0130621 0.00519542 -0.027449 0.00511055 0.00509213 -0.01547 0.00642247 0.00533188 
-0.0286532 0.0159811 0.00497625 -0.00317984 0.0164631 0.00530261 -0.0213481 0.0319153 0.00586964 
0.0152528 0.033152 0.00509451 -0.00750544 0.0361316 0.00544823 -0.039126 0.0399637 0.00478268 
-0.0317519 -0.0446953 0.00637841 -0.0179089 -0.0346335 0.00654453 0.043014 -0.0343178 0.00685853 
0.0156293 -0.0283842 0.00652453 -0.0291427 -0.0219343 0.00650838 0.0296492 -0.015918 0.00602344 
0.0347312 -0.012978 0.00648553 0.0414517 -0.0114994 0.00681625 0.0218314 -0.00971151 0.00688221 
-0.0101373 -0.00698039 0.00700735 0.00127443 -0.000618905 0.0061081 -0.0332593 0.000859011 0.00664475 
-0.00552594 0.00555795 0.00729129 -0.0161548 0.0159009 0.00677101 -0.0436896 0.0195853 0.00683431 
-0.0138035 0.0240512 0.00675069 -0.0132251 0.0252506 0.00658064 -0.0406313 0.0295913 0.00597642 
-0.0160353 0.0448572 0.0065183 0.0339316 -0.041715 0.00810396 -0.0234086 -0.038644 0.00816826 
-0.00338111 -0.0363358 0.008012 0.0307351 -0.0355434 0.00737402 0.00264867 -0.0338128 0.00844085 
0.010226 -0.0308634 0.00734897 -0.0432264 -0.0264101 0.00761369 0.0054016 -0.025334 0.00772648 
-0.00720807 -0.00608605 0.00751441 -0.0131355 0.00164571 0.00741569 -0.0137512 0.00384646 0.00750159 
0.00265626 0.00371614 0.00838553 0.0114764 0.0140289 0.00777169 -0.0102477 0.0267602 0.00783747 
0.0164577 0.0353116 0.00866899 -0.0379532 0.0399341 0.00837459 0.0341086 -0.0368686 0.00943344 
-0.038621 -0.0229432 0.00857489 0.0282033 -0.0178095 0.00900878 0.0448793 -0.00396119 0.0093161 
0.00418285 0.0112423 0.00872869 -0.0152062 0.0294088 0.00917676 -0.032208 0.0306075 0.00950321 
-0.0359241 0.0337864 0.00862266 0.0132394 0.0345575 0.00874497 -0.00785852 0.041878 0.00884325 
0.0430506 0.0422314 0.0088015 -0.0190394 0.0446837 0.00872179 -0.0396817 -0.0304797 0.00998694 
-0.00682403 -0.0314098 0.0104972 -0.0139777 -0.0223984 0.0099918 0.0262592 -0.0217201 0.0103274 
-0.0183202 -0.0175475 0.0111906 0.0320014 0.00756294 0.0110109 -0.0442311 0.00821601 0.0104411 
0.0354139 0.0312817 0.0112776 0.0147823 -0.0446949 0.01143 0.0323804 -0.0132471 0.0121621 
0.0342493 -0.0115037 0.0114712 0.0352883 -0.0103067 0.0115588 0.0386193 -0.00496685 0.0114051 
0.0277548 0.0042931 0.0117641 0.012585 0.0155082 0.0125216 -0.0122189 0.0175978 0.0117004 
0.00153271 0.0201988 0.0114713 -0.014478 0.0275162 0.0123022 -0.0368667 0.0306348 0.012344 
-0.0422696 0.0340949 0.0113807 0.0412685 -0.0295104 0.0131703 -0.0419519 -0.0259749 0.0129104 
0.0218308 -0.0192565 0.0134138 0.0223025 -0.0112244 0.0127595 -0.00474481 -0.00600267 0.0126933 
0.023953 0.00820576 0.0130046 0.0153641 0.0146287 0.0135148 -0.0269229 0.0267788 0.0127631 
0.00308146 0.0401468 0.0133405 0.0419483 -0.0348097 0.015308 0.0272875 -0.0186725 0.0139808 
-0.0393221 -0.0167834 0.0145315 -0.0207563 -0.0111167 0.0144684 -0.0449336 -0.00957357 0.0147442 
-0.0326334 -0.00963456 0.0147345 -0.0245993 0.0193658 0.0145522 -0.0260391 0.0304395 0.0142209 
-0.0197415 0.0344175 0.0144427 0.00513794 0.0433856 0.0145283 -0.0225361 -0.0441701 0.0162035 
0.0185094 -0.042363 0.0160857 -0.015788 -0.0282898 0.0166062 -0.0336946 -0.0248459 0.0165175 
-0.0329608 -0.0218045 0.0159408 0.0414834 -0.0181367 0.0165822 -0.024842 -0.00884532 0.0162034 
0.0127657 -0.00746761 0.0153522 -0.0371624 0.011326 0.0159392 0.0323341 0.0191974 0.0160165 
0.0104707 0.0313218 0.0155429 -0.0155539 0.0359545 0.0162654 -0.0440308 0.0448256 0.0158067 
-0.0328109 -0.0226975 0.0169059 0.0302919 -0.0148257 0.0171745 0.00347554 0.00338662 0.0171935 
0.0379188 0.0120326 0.0167896 0.0439232 0.0371117 0.0171816 -0.0281804 0.0418824 0.0170268 
-0.00521279 -0.0413279 0.0189257 -0.0385899 -0.0405251 0.018209 -0.0420316 -0.0145538 0.0186542 
0.0433204 -0.0141837 0.019213 0.0414788 -0.00521487 0.018396 -0.0081225 0.0151775 0.0194875 
-0.0256005 0.0215871 0.0194289 -0.0296003 0.0277025 0.0191501 -0.0437633 0.0406561 0.0187196 
0.0188903 -0.0308528 0.0202611 -0.0207679 -0.0256315 0.0204909 -0.0386256 -0.00983966 0.0199209 
-0.00254916 -0.00379952 0.020575 0.0154702 -0.00154679 0.0206151 -0.0356048 -0.000104637 0.0199941 
-0.00757157 0.00454821 0.0201228 -0.0144089 0.0201081 0.0198176 0.0289145 -0.0340196 0.0218422 
0.00357123 -0.00830953 0.0215996 0.0282359 -0.00877456 0.020826 0.00643655 -0.000956063 0.0210644 
0.00635633 0.000852437 0.022081 0.0131273 0.040817 0.0215333 0.00741479 -0.0295782 0.0232514 
0.0133448 0.00646544 0.023817 -0.0170112 0.0231088 0.0257917 0.0242571 -0.0100823 0.0299932 

VERTICES 649 648
OFFSETS vtktypeint64
0 1 2 3 4 5 6 7 8 
9 10 11 12 13 14 15 16 17 
18 19 20 21 22 23 24 25 26 
27 28 29 30 31 32 33 34 35 
36 37 38 39 40 41 42 43 44 
45 46 47 48 49 50 51 52 53 
54 55 56 57 58 59 60 61 62 
63 64 65 66 67 68 69 70 71 
72 73 74 75 76 77 78 79 80 
81 82 83 84 85 86 87 88 89 
90 91 92 93 94 95 96 97 98 
99 100 101 102 103 104 105 106 107 
108 109 110 111 112 113 114 115 116 
117 118 119 120 121 122 123 124 125 
126 127 128 129 130 131 132 133 134 
135 136 137 138 139 140 141 142 143 
144 145 146 147 148 149 150 151 152 
153 154 155 156 157 158 159 160 161 
162 163 164 165 166 167 168 169 170 
171 172 173 174 175 176 177 178 179 
180 181 182 183 184 185 186 187 188 
189 190 191 192 193 194 195 196 197 
198 199 200 201 202 203 204 205 206 
207 208 209 210 211 212 213 214 215 
216 217 218 219 220 221 222 223 224 
225 226 227 228 229 230 231 232 233 
234 235 236 237 238 239 240 241 242 
243 244 245 246 247 248 249 250 251 
252 253 254 255 256 257 258 259 260 
261 262 263 264 265 266 267 268 269 
270 271 272 273 274 275 276 277 278 
279 280 281 282 283 284 285 286 287 
288 289 290 291 292 293 294 295 296 
297 298 299 300 301 302 303 304 305 
306 307 308 309 310 311 312 313 314 
315 316 317 318 319 320 321 322 323 
324 325 326 327 328 329 330 331 332 
333 334 335 336 337 338 339 340 341 
342 343 344 345 346 347 348 349 350 
351 352 353 354 355 356 357 358 359 
360 361 362 363 364 365 366 367 368 
369 370 371 372 373 374 375 376 377 
378 379 380 381 382 383 384 385 386 
387 388 389 390 391 392 393 394 395 
396 397 398 399 400 401 402 403 404 
405 406 407 408 409 410 411 412 413 
414 415 416 417 418 419 420 421 422 
423 424 425 426 427 428 429 430 431 
432 433 434 435 436 437 438 439 440 
441 442 443 444 445 446 447 448 449 
450 451 452 453 454 455 456 457 458 
459 460 461 462 463 464 465 466 467 
468 469 470 471 472 473 474 475 476 
477 478 479 480 481 482 483 484 485 
486 487 488 489 490 491 492 493 494 
495 496 497 498 499 500 501 502 503 
504 505 506 507 508 509 510 511 512 
513 514 515 516 517 518 519 520 521 
522 523 524 525 526 527 528 529 530 
531 532 533 534 535 536 537 538 539 
540 541 542 543 544 545 546 547 548 
549 550 551 552 553 554 555 556 557 
558 559 560 561 562 563 564 565 566 
567 568 569 570 571 572 573 574 575 
576 577 578 579 580 581 582 583 584 
585 586 587 588 589 590 591 592 593 
594 595 596 597 598 599 600 601 602 
603 604 605 606 607 608 609 610 611 
612 613 614 615 616 617 618 619 620 
621 622 623 624 625 626 627 628 629 
630 631 632 633 634 635 636 637 638 
639 640 641 642 643 644 645 646 647 
648 
CONNECTIVITY vtktypeint64
0 1 2 3 4 5 6 7 8 
9 10 11 12 13 14 15 16 17 
18 19 20 21 22 23 24 25 26 
27 28 29 30 31 32 33 34 35 
36 37 38 39 40 41 42 43 44 
45 46 47 48 49 50 51 52 53 
54 55 56 57 58 59 60 61 62 
63 64 65 66 67 68 69 70 71 
72 73 74 75 76 77 78 79 80 
81 82 83 84 85 86 87 88 89 
90 91 92 93 94 95 96 97 98 
99 100 101 102 103 104 105 106 107 
108 109 110 111 112 113 114 115 116 
117 118 119 120 121 122 123 124 125 
126 127 128 129 130 131 132 133 134 
135 136 137 138 139 140 141 142 143 
144 145 146 147 148 149 150 151 152 
153 154 155 156 157 158 159 160 161 
162 163 164 165 166 167 168 169 170 
171 172 173 174 175 176 177 178 179 
180 181 182 183 184 185 186 187 188 
189 190 191 192 193 194 195 196 197 
198 199 200 201 202 203 204 205 206 
207 208 209 210 211 212 213 214 215 
216 217 218 219 220 221 222 223 224 
225 226 227 228 229 230 231 232 233 
234 235 236 237 238 239 240 241 242 
243 244 245 246 247 248 249 250 251 
252 253 254 255 256 257 258 259 260 
261 262 263 264 265 266 267 268 269 
270 271 272 273 274 275 276 277 278 
279 280 281 282 283 284 285 286 287 
288 289 290 291 292 293 294 295 296 
297 298 299 300 301 302 303 304 305 
306 307 308 309 310 311 312 313 314 
315 316 317 318 319 320 321 322 323 
324 325 326 327 328 329 330 331 332 
333 334 335 336 337 338 339 340 341 
342 343 344 345 346 347 348 349 350 
351 352 353 354 355 356 357 358 359 
360 361 362 363 364 365 366 367 368 
369 370 371 372 373 374 375 376 377 
378 379 380 381 382 383 384 385 386 
387 388 389 390 391 392 393 394 395 
396 397 398 399 400 401 402 403 404 
405 406 407 408 409 410 411 412 413 
414 415 416 417 418 419 420 421 422 
423 424 425 426 427 428 429 430 431 
432 433 434 435 436 437 438 439 440 
441 442 443 444 445 446 447 448 449 
450 451 452 453 454 455 456 457 458 
459 460 461 462 463 464 465 466 467 
468 469 470 471 472 473 474 475 476 
477 478 479 480 481 482 483 484 485 
486 487 488 489 490 491 492 493 494 
495 496 497 498 499 500 501 502 503 
504 505 506 507 508 509 510 511 512 
513 514 515 516 517 518 519 520 521 
522 523 524 525 526 527 528 529 530 
531 532 533 534 535 536 537 538 539 
540 541 542 543 544 545 546 547 548 
549 550 551 552 553 554 555 556 557 
558 559 560 561 562 563 564 565 566 
567 568 569 570 571 572 573 574 575 
576 577 578 579 580 581 582 583 584 
585 586 587 588 589 590 591 592 593 
594 595 596 597 598 599 600 601 602 
603 604 605 606 607 608 609 610 611 
612 613 614 615 616 617 618 619 620 
621 622 623 624 625 626 627 628 629 
630 631 632 633 634 635 636 637 638 
639 640 641 642 643 644 645 646 647 

POINT_DATA 648
FIELD FieldData 12
id 1 648 int
164 463 200 218 457 207 35 508 34 
92 459 115 356 24 88 51 347 303 
404 304 185 107 137 331 291 645 121 
190 267 282 526 317 470 154 238 439 
289 355 176 444 553 306 215 106 292 
227 231 428 127 157 293 324 511 72 
336 383 243 285 370 515 125 57 385 
382 132 66 83 465 36 175 86 418 
458 407 478 456 396 467 353 450 129 
261 400 197 288 255 214 221 432 60 
297 169 322 150 491 310 202 193 40 
433 339 110 521 149 166 49 18 219 
189 195 163 504 506 187 201 158 26 
327 253 270 85 421 362 320 246 328 
318 386 412 62 372 476 366 89 93 
414 203 140 471 68 591 577 134 256 
87 99 487 226 159 436 344 367 69 
605 350 156 571 589 239 570 543 250 
393 139 103 502 354 147 128 430 493 
116 79 416 449 323 329 64 167 472 
237 403 25 479 440 247 572 73 462 
170 374 381 376 168 74 194 58 276 
612 460 43 264 427 483 38 95 53 
563 615 299 105 171 142 592 405 371 
205 542 217 265 208 186 538 334 519 
212 305 56 379 141 546 153 301 423 
124 144 165 497 420 296 601 373 181 
262 401 17 46 395 363 70 308 358 
315 15 184 587 118 392 364 117 281 
514 33 138 279 130 254 325 394 109 
520 78 206 162 266 199 461 410 179 
488 419 148 29 481 65 455 348 225 
235 387 251 309 233 286 482 559 413 
536 155 123 435 361 108 406 342 397 
272 55 438 275 98 188 84 346 31 
258 113 390 562 52 429 271 549 314 
326 210 359 411 102 122 22 82 518 
388 489 319 229 477 505 333 352 295 
294 96 445 409 183 415 604 335 484 
223 71 192 160 111 174 28 448 274 
298 496 143 240 290 500 59 211 380 
146 349 248 311 260 399 32 42 6 
580 278 368 377 567 252 263 257 20 
360 151 135 204 341 2 75 196 565 
90 77 61 244 216 503 495 486 474 
454 126 425 213 426 528 424 112 145 
4 453 338 480 442 345 273 378 21 
446 384 119 236 63 178 469 220 54 
417 443 447 161 357 431 337 529 287 
330 104 507 100 408 498 30 280 509 
451 321 114 343 81 332 268 222 180 
94 466 313 232 437 182 198 45 76 
91 375 302 475 351 136 307 5 13 
576 177 441 8 340 16 23 10 522 
11 564 80 593 501 41 48 485 191 
14 12 9 209 434 534 312 533 234 
44 551 490 566 284 245 228 473 583 
579 452 523 242 402 47 120 547 422 
259 638 101 39 365 389 545 468 152 
97 131 524 614 597 173 67 492 616 
283 527 532 224 499 300 598 633 535 
552 249 626 37 517 50 464 540 596 
494 391 277 19 172 525 398 513 573 
539 556 316 623 241 530 628 3 133 
613 560 7 561 369 594 550 548 574 
558 599 557 510 622 637 643 584 516 
618 585 554 617 582 269 600 586 230 
635 629 581 578 603 569 27 595 607 
611 624 639 541 537 641 620 531 555 
632 648 590 644 647 619 646 609 575 
636 627 544 642 610 568 631 625 634 
608 602 621 630 606 640 512 588 1 

type 1 648 int
1 1 1 1 1 1 1 1 1 
1 1 1 1 1 1 1 1 1 
1 1 1 1 1 1 1 1 1 
1 1 1 1 1 1 1 1 1 
1 1 1 1 1 1 1 1 1 
1 1 1 1 1 1 1 1 1 
1 1 1 1 1 1 1 1 1 
1 1 1 1 1 1 1 1 1 
1 1 1 1 1 1 1 1 1 
1 1 1 1 1 1 1 1 1 
1 1 1 1 1 1 1 1 1 
1 1 1 1 1 1 1 1 1 
1 1 1 1 1 1 1 1 1 
1 1 1 1 1 1 1 1 1 
1 1 1 1 1 1 1 1 1 
1 1 1 1 1 1 1 1 1 
1 1 1 1 1 1 1 1 1 
1 1 1 1 1 1 1 1 1 
1 1 1 1 1 1 1 1 1 
1 1 1 1 1 1 1 1 1 
1 1 1 1 1 1 1 1 1 
1 1 1 1 1 1 1 1 1 
1 1 1 1 1 1 1 1 1 
1 1 1 1 1 1 1 1 1 
1 1 1 1 1 1 1 1 1 
1 1 1 1 1 1 1 1 1 
1 1 1 1 1 1 1 1 1 
1 1 1 1 1 1 1 1 1 
1 2 1 1 1 1 1 1 1 
1 1 1 1 1 1 1 1 1 
1 1 1 1 1 1 1 1 1 
1 1 1 1 1 1 1 1 1 
1 1 1 1 1 1 1 1 1 
1 1 1 1 1 1 1 1 1 
1 1 1 1 1 1 1 1 1 
1 1 1 1 1 1 1 1 1 
1 1 1 1 1 1 1 1 1 
1 1 1 1 1 1 1 1 1 
1 1 1 1 1 1 1 1 1 
1 1 1 1 1 1 1 1 1 
1 1 1 1 1 1 1 1 1 
1 1 1 1 1 1 1 1 2 
1 1 1 1 1 1 1 1 1 
1 1 1 1 1 3 1 1 1 
1 1 1 1 1 1 1 1 1 
1 1 1 1 1 1 1 1 1 
2 1 1 1 1 1 1 1 1 
1 1 1 1 1 1 1 1 1 
1 1 1 1 1 1 1 1 1 
1 1 1 1 1 1 1 1 1 
1 1 1 1 1 1 1 1 1 
1 1 1 1 1 1 1 1 1 
1 1 1 1 1 1 1 2 2 
1 1 1 2 1 2 1 2 1 
2 1 1 1 1 1 1 1 1 
2 2 2 1 1 1 1 1 1 
1 1 1 1 1 1 1 1 1 
1 1 1 1 1 1 1 1 1 
1 1 1 1 1 1 1 1 1 
1 1 1 1 1 1 1 1 1 
1 1 1 1 1 1 1 1 1 
1 1 1 1 1 1 1 1 1 
1 1 1 1 1 1 1 1 1 
1 1 1 1 1 1 1 2 1 
1 1 2 1 1 1 1 1 1 
1 1 1 1 1 1 1 1 2 
1 1 1 1 1 1 1 1 1 
1 1 1 1 1 1 1 1 1 
1 1 1 1 1 1 1 1 1 
1 1 1 1 1 1 1 1 1 
1 1 1 1 1 1 1 1 2 
1 1 1 1 1 1 2 1 4 

i 3 648 int
0 0 0 0 0 0 0 0 0 
0 0 0 0 0 0 0 0 0 
0 0 0 0 0 0 0 0 0 
0 0 0 0 0 0 0 0 0 
0 0 0 0 0 0 0 0 0 
0 0 0 0 0 0 0 0 0 
0 0 0 0 0 0 0 0 0 
0 0 0 0 0 0 0 0 0 
0 0 0 0 0 0 0 0 0 
0 0 0 0 0 0 0 0 0 
0 0 0 0 0 0 0 0 0 
0 0 0 0 0 0 0 0 0 
0 0 0 0 0 0 0 0 0 
0 0 0 0 0 0 0 0 0 
0 0 0 0 0 0 0 0 0 
0 0 0 0 0 0 0 0 0 
0 0 0 0 0 0 0 0 0 
0 0 0 0 0 0 0 0 0 
0 0 0 0 0 0 0 0 0 
0 0 0 0 0 0 0 0 0 
0 0 0 0 0 0 0 0 0 
0 0 0 0 0 0 0 0 0 
0 0 0 0 0 0 0 0 0 
0 0 0 0 0 0 0 0 0 
0 0 0 0 0 0 0 0 0 
0 0 0 0 0 0 0 0 0 
0 0 0 0 0 0 0 0 0 
0 0 0 0 0 0 0 0 0 
0 0 0 0 0 0 0 0 0 
0 0 0 0 0 0 0 0 0 
0 0 0 0 0 0 0 0 0 
0 0 0 0 0 0 0 0 0 
0 0 0 0 0 0 0 0 0 
0 0 0 0 0 0 0 0 0 
0 0 0 0 0 0 0 0 0 
0 0 0 0 0 0 0 0 0 
0 0 0 0 0 0 0 0 0 
0 0 0 0 0 0 0 0 0 
0 0 0 0 0 0 0 0 0 
0 0 0 0 0 0 0 0 0 
0 0 0 0 0 0 0 0 0 
0 0 0 0 0 0 0 0 0 
0 0 0 0 0 0 0 0 0 
0 0 0 0 0 0 0 0 0 
0 0 0 0 0 0 0 0 0 
0 0 0 0 0 0 0 0 0 
0 0 0 0 0 0 0 0 0 
0 0 0 0 0 0 0 0 0 
0 0 0 0 0 0 0 0 0 
0 0 0 0 0 0 0 0 0 
0 0 0 0 0 0 0 0 0 
0 0 0 0 0 0 0 0 0 
0 0 0 0 0 0 0 0 0 
0 0 0 0 0 0 0 0 0 
0 0 0 0 0 0 0 0 0 
0 0 0 0 0 0 0 0 0 
0 0 0 0 0 0 0 0 0 
0 0 0 0 0 0 0 0 0 
0 0 0 0 0 0 0 0 0 
0 0 0 0 0 0 0 0 0 
0 0 0 0 0 0 0 0 0 
0 0 0 0 0 0 0 0 0 
0 0 0 0 0 0 0 0 0 
0 0 0 0 0 0 0 0 0 
0 0 0 0 0 0 0 0 0 
0 0 0 0 0 0 0 0 0 
0 0 0 0 0 0 0 0 0 
0 0 0 0 0 0 0 0 0 
0 0 0 0 0 0 0 0 0 
0 0 0 0 0 0 0 0 0 
0 0 0 0 0 0 0 0 0 
0 0 0 0 0 0 0 0 0 
0 0 0 0 0 0 0 0 0 
0 0 0 0 0 0 0 0 0 
0 0 0 0 0 0 0 0 0 
0 0 0 0 0 0 0 0 0 
0 0 0 0 0 0 0 0 0 
0 0 0 0 0 0 0 0 0 
0 0 0 0 0 0 0 0 0 
0 0 0 0 0 0 0 0 0 
0 0 0 0 0 0 0 0 0 
0 0 0 0 0 0 0 0 0 
0 0 0 0 0 0 0 0 0 
0 0 0 0 0 0 0 0 0 
0 0 0 0 0 0 0 0 0 
0 0 0 0 0 0 0 0 0 
0 0 0 0 0 0 0 0 0 
0 0 0 0 0 0 0 0 0 
0 0 0 0 0 0 0 0 0 
0 0 0 0 0 0 0 0 0 
0 0 0 0 0 0 0 0 0 
0 0 0 0 0 0 0 0 0 
0 0 0 0 0 0 0 0 0 
0 0 0 0 0 0 0 0 0 
0 0 0 0 0 0 0 0 0 
0 0 0 0 0 0 0 0 0 
0 0 0 0 0 0 0 0 0 
0 0 0 0 0 0 0 0 0 
0 0 0 0 0 0 0 0 0 
0 0 0 0 0 0 0 0 0 
0 0 0 0 0 0 0 0 0 
0 0 0 0 0 0 0 0 0 
0 0 0 0 0 0 0 0 0 
0 0 0 0 0 0 0 0 0 
0 0 0 0 0 0 0 0 0 
0 0 0 0 0 0 0 0 0 
0 0 0 0 0 0 0 0 0 
0 0 0 0 0 0 0 0 0 
0 0 0 0 0 0 0 0 0 
0 0 0 0 0 0 0 0 0 
0 0 0 0 0 0 0 0 0 
0 0 0 0 0 0 0 0 0 
0 0 0 0 0 0 0 0 0 
0 0 0 0 0 0 0 0 0 
0 0 0 0 0 0 0 0 0 
0 0 0 0 0 0 0 0 0 
0 0 0 0 0 0 0 0 0 
0 0 0 0 0 0 0 0 0 
0 0 0 0 0 0 0 0 0 
0 0 0 0 0 0 0 0 0 
0 0 0 0 0 0 0 0 0 
0 0 0 0 0 0 0 0 0 
0 0 0 0 0 0 0 0 0 
0 0 0 0 0 0 0 0 0 
0 0 0 0 0 0 0 0 0 
0 0 0 0 0 0 0 0 0 
0 0 0 0 0 0 0 0 0 
0 0 0 0 0 0 0 0 0 
0 0 0 0 0 0 0 0 0 
0 0 0 0 0 0 0 0 0 
0 0 0 0 0 0 0 0 0 
0 0 0 0 0 0 0 0 0 
0 0 0 0 0 0 0 0 0 
0 0 0 0 0 0 0 0 0 
0 0 0 0 0 0 0 0 0 
0 0 0 0 0 0 0 0 0 
0 0 0 0 0 0 0 0 0 
0 0 0 0 0 0 0 0 0 
0 0 0 0 0 0 0 0 0 
0 0 0 0 0 0 0 0 0 
0 0 0 0 0 0 0 0 0 
0 0 0 0 0 0 0 0 0 
0 0 0 0 0 0 0 0 0 
0 0 0 0 0 0 0 0 0 
0 0 0 0 0 0 0 0 0 
0 0 0 0 0 0 0 0 0 
0 0 0 0 0 0 0 0 0 
0 0 0 0 0 0 0 0 0 
0 0 0 0 0 0 0 0 0 
0 0 0 0 0 0 0 0 0 
0 0 0 0 0 0 0 0 0 
0 0 0 0 0 0 0 0 0 
0 0 0 0 0 0 0 0 0 
0 0 0 0 0 0 0 0 0 
0 0 0 0 0 0 0 0 0 
0 0 0 0 0 0 0 0 0 
0 0 0 0 0 0 0 0 0 
0 0 0 0 0 0 0 0 0 
0 0 0 0 0 0 0 0 0 
0 0 0 0 0 0 0 0 0 
0 0 0 0 0 0 0 0 0 
0 0 0 0 0 0 0 0 0 
0 0 0 0 0 0 0 0 0 
0 0 0 0 0 0 0 0 0 
0 0 0 0 0 0 0 0 0 
0 0 0 0 0 0 0 0 0 
0 0 0 0 0 0 0 0 0 
0 0 0 0 0 0 0 0 0 
0 0 0 0 0 0 0 0 0 
0 0 0 0 0 0 0 0 0 
0 0 0 0 0 0 0 0 0 
0 0 0 0 0 0 0 0 0 
0 0 0 0 0 0 0 0 0 
0 0 0 0 0 0 0 0 0 
0 0 0 0 0 0 0 0 0 
0 0 0 0 0 0 0 0 0 
0 0 0 0 0 0 0 0 0 
0 0 0 0 0 0 0 0 0 
0 0 0 0 0 0 0 0 0 
0 0 0 0 0 0 0 0 0 
0 0 0 0 0 0 0 0 0 
0 0 0 0 0 0 0 0 0 
0 0 0 0 0 0 0 0 0 
0 0 0 0 0 0 0 0 0 
0 0 0 0 0 0 0 0 0 
0 0 0 0 0 0 0 0 0 
0 0 0 0 0 0 0 0 0 
0 0 0 0 0 0 0 0 0 
0 0 0 0 0 0 0 0 0 
0 0 0 0 0 0 0 0 0 
0 0 0 0 0 0 0 0 0 
0 0 0 0 0 0 0 0 0 
0 0 0 0 0 0 0 0 0 
0 0 0 0 0 0 0 0 0 
0 0 0 0 0 0 0 0 0 
0 0 0 0 0 0 0 0 0 
0 0 0 0 0 0 0 0 0 
0 0 0 0 0 0 0 0 0 
0 0 0 0 0 0 0 0 0 
0 0 0 0 0 0 0 0 0 
0 0 0 0 0 0 0 0 0 
0 0 0 0 0 0 0 0 0 
0 0 0 0 0 0 0 0 0 
0 0 0 0 0 0 0 0 0 
0 0 0 0 0 0 0 0 0 
0 0 0 0 0 0 0 0 0 
0 0 0 0 0 0 0 0 0 
0 0 0 0 0 0 0 0 0 
0 0 0 0 0 0 0 0 0 
0 0 0 0 0 0 0 0 0 
0 0 0 0 0 0 0 0 0 
0 0 0 0 0 0 0 0 0 
0 0 0 0 0 0 0 0 0 
0 0 0 0 0 0 0 0 0 
0 0 0 0 0 0 0 0 0 
0 0 0 0 0 0 0 0 0 

v 3 648 double
0 0 3.2413285931e-14 0 0 -0.022843801758 0 0 0.0086880778141 
0 0 -0.0028763096314 0 0 -0.073258468018 0 0 0.007574213868 
0 0 0.0089806165603 0 0 3.241328596e-14 0 0 0.014625961481 
0 0 3.2413286072e-14 0 0 -0.00085885377647 0 0 3.2413286006e-14 
0 0 -0.014319225415 0 0 -0.0016914892853 0 0 -0.014595426651 
0 0 -0.024080887231 0 0 -0.013276551647 0 0 0.011298073 
0 0 -0.02449301549 0 0 -0.00057525862668 0 0 8.0432447378e-14 
0 0 0.0087475209234 0 0 0.0092615783808 0 0 -0.0027422469095 
0 0 0.0072439306401 0 0 0.058497073363 0 0 0.023396503746 
0 0 3.2413289933e-14 0 0 -0.0012595417912 0 0 -0.0072759970493 
0 0 0.068644784079 0 0 -0.026331039926 0 0 8.0432443599e-14 
0 0 -0.009149760271 0 0 0.0083812262147 0 0 0.0037232597714 
0 0 -0.021800234999 0 0 -0.023125032107 0 0 0.011491807425 
0 0 0.0063507591707 0 0 0.081285003575 0 0 0.06586862391 
0 0 0.01895041189 0 0 0.0020449586436 0 0 -0.023397955607 
0 0 0.017745751961 0 0 0.0073234290723 0 0 0.0019006258546 
0 0 0.021492280709 0 0 0.025993975115 0 0 8.0432443474e-14 
0 0 0.025993576627 0 0 0.076379359978 0 0 8.0432443602e-14 
0 0 0.024422148593 0 0 3.2413285982e-14 0 0 0.025119825913 
0 0 0.090260078492 0 0 -0.00099611011294 0 0 -0.0082825785016 
0 0 0.010665975852 0 0 8.0432443644e-14 0 0 0.018855428144 
0 0 0.086867414387 0 0 8.7570372765e-06 0 0 -0.017298636302 
0 0 0.02204863861 0 0 -1.560588404e-14 0 0 -0.0034446609877 
0 0 0.0029641531134 0 0 0.011913122896 0 0 8.0432443491e-14 
0 0 8.0432443537e-14 0 0 8.0432443498e-14 0 0 -0.0043449829941 
0 0 0.0013274994658 0 0 8.0432443665e-14 0 0 0.0056977488404 
0 0 -0.002973316358 0 0 8.0432447373e-14 0 0 0.01584604241 
0 0 -0.019193469511 0 0 0.082897790981 0 0 -0.023359161871 
0 0 -0.016022546389 0 0 -0.0041084752697 0 0 3.2413286034e-14 
0 0 0.091170092756 0 0 -0.001686608111 0 0 0.0039035379311 
0 0 -0.0087075474099 0 0 3.2413285951e-14 0 0 -0.011633121141 
0 0 8.0432447588e-14 0 0 8.043244739e-14 0 0 8.0432443526e-14 
0 0 0.016759058108 0 0 0.0085479525641 0 0 0.026235665565 
0 0 8.043244366e-14 0 0 8.0432443654e-14 0 0 -0.00081714343326 
0 0 -0.018506435167 0 0 -0.0059526060935 0 0 -1.5605883967e-14 
0 0 8.043244349e-14 0 0 8.0432447524e-14 0 0 3.2413286037e-14 
0 0 0.027352639085 0 0 3.2413286009e-14 0 0 -0.0064209047848 
0 0 0.025114256904 0 0 -0.0077128132184 0 0 -0.0026944067638 
0 0 0.014139516025 0 0 0.015348829138 0 0 0.0026346549545 
0 0 0.0085817139445 0 0 0.020546078138 0 0 0.0085940863216 
0 0 -0.0029848980637 0 0 0.087077829163 0 0 -0.0024269180223 
0 0 0.013931995425 0 0 8.0432447367e-14 0 0 0.0026317711938 
0 0 0.021558034585 0 0 0.0047357546533 0 0 -0.024020860243 
0 0 0.014898154307 0 0 3.241328594e-14 0 0 0.089647957775 
0 0 -0.084303262995 0 0 0.065798787399 0 0 0.066379036268 
0 0 0.031553704831 0 0 0.074712299385 0 0 -0.055823828874 
0 0 -0.24211728904 0 0 0.074480258763 0 0 0.05763811424 
0 0 0.041213215195 0 0 -0.0013643505582 0 0 -0.06942916543 
0 0 -0.075249767027 0 0 0.023616097787 0 0 0.047623988441 
0 0 -0.043628859565 0 0 0.049207029953 0 0 0.0260804839 
0 0 0.077168538511 0 0 -0.069428087273 0 0 0.051584917223 
0 0 0.046240693734 0 0 0.080680954743 0 0 0.063160240582 
0 0 0.0040401184621 0 0 0.042204956998 0 0 0.076462339651 
0 0 0.054932223037 0 0 -0.021680142097 0 0 0.063406654221 
0 0 0.059598553849 0 0 0.025382570397 0 0 0.064882934618 
0 0 0.052617579802 0 0 0.08037954142 0 0 0.080089747288 
0 0 -0.060945314759 0 0 0.08857872645 0 0 0.052043468491 
0 0 0.063736505027 0 0 0.066862760126 0 0 0.052900821317 
0 0 0.028747353754 0 0 0.054221738027 0 0 0.05446141172 
0 0 -0.067970434576 0 0 -0.044530589789 0 0 -0.044785390765 
0 0 -0.080140233085 0 0 0.07073409377 0 0 0.070997129792 
0 0 -0.055481881959 0 0 -0.062591166801 0 0 -0.078654510286 
0 0 0.04210556015 0 0 -0.063141652672 0 0 0.057811740211 
0 0 0.038311081972 0 0 0.013828387826 0 0 0.0047657751004 
0 0 0.094989497115 0 0 -0.057155068002 0 0 0.063677494925 
0 0 0.015796687315 0 0 -0.083686646689 0 0 0.094013238994 
0 0 0.010843201465 0 0 0.077790362997 0 0 0.082098086398 
0 0 0.076254027281 0 0 -0.048073123616 0 0 -0.05937523683 
0 0 0.065164398905 0 0 0.057468821619 0 0 0.038221239915 
0 0 0.07633245863 0 0 0.040872852314 0 0 -0.039321950031 
0 0 0.072048219276 0 0 0.074439611233 0 0 0.056459621553 
0 0 0.045253820406 0 0 0.069960406237 0 0 0.054598542711 
0 0 0.059357471223 0 0 -0.026094515033 0 0 0.0703759239 
0 0 0.059160888219 0 0 0.058626384128 0 0 -0.074906954421 
0 0 -0.028508284652 0 0 -0.046452565323 0 0 -0.22996804372 
0 0 -0.24364554693 0 0 0.077768705134 0 0 -0.039928489445 
0 0 0.07215881797 0 0 -0.039859717745 0 0 0.0093788652149 
0 0 -0.23843071844 0 0 0.083663854533 0 0 0.013918684273 
0 0 -0.24162148969 0 0 0.06501772955 0 0 -0.079705684497 
0 0 0.03497493623 0 0 -0.036869780285 0 0 -0.24006637772 
0 0 -0.011340515082 0 0 -0.077413737024 0 0 0.028488599904 
0 0 0.046200031851 0 0 -0.064300093638 0 0 0.061346730498 
0 0 0.025235211526 0 0 0.03917725101 0 0 0.063247931316 
0 0 0.084177949678 0 0 -0.063890277231 0 0 0.067256000546 
0 0 -0.23905355304 0 0 0.10901898013 0 0 -0.22201650367 
0 0 -0.2070674821 0 0 0.045781832918 0 0 -0.034595255501 
0 0 -0.079174443603 0 0 -0.024112608607 0 0 -0.24502013339 
0 0 -0.20506893257 0 0 0.03664361827 0 0 0.060385076591 
0 0 0.041221986067 0 0 0.092827745285 0 0 0.023706832479 
0 0 0.066342610005 0 0 0.057730651023 0 0 -0.01822011882 
0 0 0.06627182432 0 0 0.095577601528 0 0 0.039629170106 
0 0 -0.046742090741 0 0 0.069064240849 0 0 -0.031759397079 
0 0 -0.043936754541 0 0 -0.048859261837 0 0 -0.2413345381 
0 0 -0.07063119075 0 0 0.055490104519 0 0 -0.066017761094 
0 0 -0.07680720614 0 0 0.063316797352 0 0 0.063882440943 
0 0 0.069670505421 0 0 -0.02770994851 0 0 0.056215447553 
0 0 0.061518142595 0 0 0.069385255807 0 0 -0.042651553262 
0 0 0.060364159238 0 0 -0.066611561731 0 0 0.066040857622 
0 0 -0.23892385419 0 0 0.04142454559 0 0 0.039003709627 
0 0 0.041465565291 0 0 -0.045421951504 0 0 0.069672101426 
0 0 -0.043122972394 0 0 -0.019083271847 0 0 -0.033437709143 
0 0 -0.043462332733 0 0 0.066559082256 0 0 0.031615019631 
0 0 -0.039493706453 0 0 0.0089162857132 0 0 0.012660322987 
0 0 -0.0050837778474 0 0 -0.023079019946 0 0 -0.019082024628 
0 0 0.0094557347961 0 0 -0.03646364628 0 0 -0.00022984857862 
0 0 -0.22980374867 0 0 -0.0020021244847 0 0 -0.0060867066619 
0 0 0.0023380698876 0 0 0.057499584592 0 0 0.0084242942317 
0 0 0.02902194946 0 0 -0.20542084636 0 0 -0.01445250089 
0 0 -0.018499943953 0 0 -0.23257798518 0 0 -0.23626134724 
0 0 0.0002602044935 0 0 0.055092435355 0 0 -0.0019514381315 
0 0 -0.019825525905 0 0 0.013217635838 0 0 -0.20515731702 
0 0 -0.22447543405 0 0 0.014295540535 0 0 -0.020167016091 
0 0 -0.02084330771 0 0 0.016844392794 0 0 -0.010109964456 
0 0 0.0046228768328 0 0 -0.036560310984 0 0 0.031936895247 
0 0 -0.024072913748 0 0 0.029344181673 0 0 -0.0065543632262 
0 0 -0.01679904877 0 0 0.011508037503 0 0 -0.011717907914 
0 0 -0.16416253965 0 0 -0.24318224251 0 0 0.01522269213 
0 0 0.054375436529 0 0 -0.01352414965 0 0 -0.22245264598 
0 0 0.045323284772 0 0 0.058070109614 0 0 -0.027888103125 
0 0 0.028928486961 0 0 -0.23849851346 0 0 0.02817052034 
0 0 -0.015182189682 0 0 -0.042575575235 0 0 0.044362836221 
0 0 -0.0003461069201 0 0 -0.024630329009 0 0 -0.02205304274 
0 0 0.033374273908 0 0 0.012883202212 0 0 0.0064633676864 
0 0 0.045552590548 0 0 -0.037894940941 0 0 -0.017905935653 
0 0 0.025590478215 0 0 -0.031684084515 0 0 -0.025079835312 
0 0 0.014479151459 0 0 -0.0047921669916 0 0 -0.072506390671 
0 0 -0.19980982474 0 0 0.026225808824 0 0 -0.020831990151 
0 0 0.023979207759 0 0 -0.0028976502506 0 0 0.053553696202 
0 0 -0.02850683017 0 0 -0.032333625411 0 0 0.031802395735 
0 0 -0.0049057045634 0 0 0.027096070692 0 0 -0.0071633066028 
0 0 0.0072687495911 0 0 -0.041763393835 0 0 -0.27468053495 
0 0 0.004950524216 0 0 0.026238965947 0 0 -0.18514632744 
0 0 -0.02900416222 0 0 -0.23479574379 0 0 0.0093884048796 
0 0 0.050065479676 0 0 0.015693299518 0 0 0.029993042626 
0 0 -0.019576082359 0 0 0.0026434080362 0 0 0.032463328394 
0 0 -0.037603850864 0 0 0.02959207616 0 0 -0.24895936001 
0 0 -0.24440077164 0 0 -0.0046177201117 0 0 -0.20955644168 
0 0 -0.011656204669 0 0 -0.011030401468 0 0 -0.23110551105 
0 0 0.07869846019 0 0 -0.23517484043 0 0 0.017431994142 
0 0 -0.23370241457 0 0 -0.23674883081 0 0 -0.019971498226 
0 0 -0.01300410127 0 0 0.0039295145198 0 0 -0.0057276929962 
0 0 0.0094834634008 0 0 -0.012521059209 0 0 0.032838070973 
0 0 0.0087652695547 0 0 0.026315615712 0 0 0.012509506603 
0 0 -0.025656865816 0 0 0.036554469635 0 0 0.001050109674 
0 0 -0.038270880166 0 0 0.016196946761 0 0 0.0017411064099 
0 0 0.0011155853687 0 0 -0.0023702981294 0 0 0.047449357431 
0 0 -0.033690682347 0 0 0.024609195402 0 0 0.013594309035 
0 0 -0.014437071673 0 0 -0.0069201106348 0 0 -0.00027566960708 
0 0 -0.050891345045 0 0 -0.047410959209 0 0 0.022865589953 
0 0 0.0082976068174 0 0 -0.054469333302 0 0 0.021323565053 
0 0 0.021002700138 0 0 -0.041192476129 0 0 0.021412667127 
0 0 -0.032369492512 0 0 0.02193569268 0 0 -0.23135093984 
0 0 -0.032360275885 0 0 -0.0088676452528 0 0 -0.2337717928 
0 0 9.3474822263e-05 0 0 -0.23734702401 0 0 0.021121897087 
0 0 -0.010815206377 0 0 -0.025504357381 0 0 0.025234885035 
0 0 0.017981228303 0 0 0.052906623255 0 0 -0.013934272839 
0 0 -0.02506401987 0 0 0.00357992809 0 0 0.013908075098 
0 0 0.01500453394 0 0 -0.016246311161 0 0 -0.22933504734 
0 0 -0.22353265047 0 0 0.034853431443 0 0 0.019163500818 
0 0 -0.19151588818 0 0 -0.22767613001 0 0 -0.22444148518 
0 0 -0.0012105188945 0 0 -0.23246794638 0 0 0.040336545626 
0 0 -0.22730533198 0 0 0.034137896382 0 0 -0.21531222436 
0 0 -0.043470122716 0 0 -0.19293825445 0 0 -0.22595140673 
0 0 -0.15586205115 0 0 -0.22655411484 0 0 -0.22782390707 
0 0 -0.22159406641 0 0 -0.22152057642 0 0 -0.22669802991 
0 0 -0.021319420697 0 0 -0.038272965166 0 0 0.0016001871804 
0 0 -0.22292096597 0 0 -0.22469643553 0 0 -0.16769311733 
0 0 -0.21870534353 0 0 -0.19158384454 0 0 -0.22165717818 
0 0 -0.21669362109 0 0 -0.19062056195 0 0 -0.21745408905 
0 0 -0.18863097048 0 0 -0.21994129927 0 0 -0.2196558109 
0 0 -0.21890205731 0 0 -0.21678960402 0 0 -0.14770190394 
0 0 -0.15898294339 0 0 -0.21829871959 0 0 -0.20397573413 
0 0 -0.21318764035 0 0 -0.21323366539 0 0 -0.21519380273 
0 0 -0.21107381465 0 0 -0.18228921093 0 0 -0.21384068205 
0 0 -0.21052273935 0 0 -0.15585583152 0 0 -0.20867514502 
0 0 -0.20653817549 0 0 -0.21192012049 0 0 -0.21062656453 
0 0 -0.17787560874 0 0 -0.21053190221 0 0 -0.20797476986 
0 0 -0.20950433005 0 0 -0.21175689572 0 0 -0.19693223441 
0 0 -0.13908744985 0 0 -0.13204452432 0 0 -0.2024259973 
0 0 -0.1998851263 0 0 -0.20418900912 0 0 -0.14676001091 
0 0 -0.20647592809 0 0 -0.18124707645 0 0 -0.17826842236 
0 0 -0.20364234607 0 0 -0.21512933886 0 0 -0.21670881412 
0 0 -0.13027506863 0 0 -0.12636143449 0 0 -0.14682933477 
0 0 -0.13538100558 0 0 -0.19988444697 0 0 -0.10091584954 
0 0 -0.19865691023 0 0 -0.17961852971 0 0 -0.21342382612 
0 0 -0.20149728699 0 0 -0.17296672902 0 0 -0.14514665769 
0 0 -0.20355358233 0 0 -0.20243989661 0 0 -0.1979605279 
0 0 -0.19768688572 0 0 -0.20183891918 0 0 -0.17257665314 
0 0 -0.19854952226 0 0 -0.17676452776 0 0 -0.1439112686 
0 0 -0.1482166418 0 0 -0.11351007241 0 0 -0.20757659686 
0 0 -0.12767323433 0 0 -0.18812103492 0 0 -0.14558585698 
0 0 -0.11744319381 0 0 -0.20578340783 0 0 -0.18934365492 
0 0 -0.12738474847 0 0 -0.12973205742 0 0 -0.2045908538 
0 0 -0.13985813152 0 0 -0.1839504545 0 0 -0.1230723551 
0 0 -0.14676435586 0 0 -0.13173339925 0 0 -0.086180201854 
0 0 -0.13855941295 0 0 -0.11361245611 0 0 -0.13387089719 
0 0 -0.15409405743 0 0 -0.10134637269 0 0 -0.10251207394 
0 0 -0.046013811111 0 0 -0.048432226771 0 0 -0.17568609518 
0 0 -0.10311065465 0 0 -0.10708133683 0 0 -0.11053823499 
0 0 -0.10101411469 0 0 -0.055577267165 0 0 -0.18388232405 
0 0 -0.058913624146 0 0 -0.1024521433 0 0 -0.17199533896 
0 0 -0.066315235261 0 0 -0.05618451384 0 0 -0.081714244596 
0 0 -0.08870524816 0 0 -0.0704558158 0 0 -0.08792926272 
0 0 -0.17538414059 0 0 -0.083773576885 0 0 -0.077517113467 
0 0 -0.055905837294 0 0 -0.022893035309 0 0 -0.066107840604 
0 0 -0.094273127415 0 0 -0.096540710364 0 0 0.011602423977 
0 0 -0.061054173801 0 0 -0.10217531537 0 0 -0.086233277866 
0 0 -0.011609665461 0 0 -0.018653633369 0 0 -0.063922236779 
0 0 0.005122659048 0 0 -0.018809351834 0 0 -0.0045405808934 
0 0 0.005704621687 0 0 -0.021834829205 0 0 -0.057840975359 
0 0 0.026474969732 0 0 0.028757382994 0 0 -0.06306866144 
0 0 0.045826512782 0 0 -0.033206237945 0 0 -0.037522400863 
0 0 0.013192767997 0 0 -0.03174145091 0 0 -0.022915760928 
0 0 -0.016631727588 0 0 -0.0015920756575 0 0 0.030225560411 
0 0 -0.0030630484722 0 0 -0.0057155374724 0 0 0.057929393546 
0 0 -0.10557086008 0 0 0.011492171325 0 0 -0.15462004578 

f 3 648 double
0 0 0 0 0 -1.7425367252e-10 0 0 -1.7425367252e-10 
0 0 -1.7425367252e-10 0 0 -1.7425367252e-10 0 0 -1.7425367252e-10 
0 0 -1.7425367252e-10 0 0 0 0 0 -1.7425367252e-10 
0 0 0 0 0 -1.7425367252e-10 0 0 0 
0 0 -1.7425367252e-10 0 0 -1.7425367252e-10 0 0 -1.7425367252e-10 
0 0 -1.7425367252e-10 0 0 -1.7425367252e-10 0 0 -1.7425367252e-10 
0 0 -1.7425367252e-10 0 0 -1.7425367252e-10 0 0 0 
0 0 -1.7425367252e-10 0 0 -1.7425367252e-10 0 0 -1.7425367252e-10 
0 0 -1.7425367252e-10 0 0 -1.7425367252e-10 0 0 -1.7425367252e-10 
0 0 0 0 0 -1.7425367252e-10 0 0 -1.7425367252e-10 
0 0 -1.7425367252e-10 0 0 -1.7425367252e-10 0 0 0 
0 0 -1.7425367252e-10 0 0 -1.7425367252e-10 0 0 -1.7425367252e-10 
0 0 -1.7425367252e-10 0 0 -1.7425367252e-10 0 0 -1.7425367252e-10 
0 0 -1.7425367252e-10 0 0 -1.7425367252e-10 0 0 -1.7425367252e-10 
0 0 -1.7425367252e-10 0 0 -1.7425367252e-10 0 0 -1.7425367252e-10 
0 0 -1.7425367252e-10 0 0 -1.7425367252e-10 0 0 -1.7425367252e-10 
0 0 -1.7425367252e-10 0 0 -1.7425367252e-10 0 0 0 
0 0 -1.7425367252e-10 0 0 -1.7425367252e-10 0 0 0 
0 0 -1.7425367252e-10 0 0 0 0 0 -1.7425367252e-10 
0 0 -1.7425367252e-10 0 0 -1.7425367252e-10 0 0 -1.7425367252e-10 
0 0 -1.7425367252e-10 0 0 0 0 0 -1.7425367252e-10 
0 0 -1.7425367252e-10 0 0 -1.7425367252e-10 0 0 -1.7425367252e-10 
0 0 -1.7425367252e-10 0 0 0 0 0 -1.7425367252e-10 
0 0 -1.7425367252e-10 0 0 -1.7425367252e-10 0 0 0 
0 0 0 0 0 0 0 0 -1.7425367252e-10 
0 0 -1.7425367252e-10 0 0 0 0 0 -1.7425367252e-10 
0 0 -1.7425367252e-10 0 0 0 0 0 -1.7425367252e-10 
0 0 -1.7425367252e-10 0 0 -1.7425367252e-10 0 0 -1.7425367252e-10 
0 0 -1.7425367252e-10 0 0 -1.7425367252e-10 0 0 0 
0 0 -1.7425367252e-10 0 0 -1.7425367252e-10 0 0 -1.7425367252e-10 
0 0 -1.7425367252e-10 0 0 0 0 0 -1.7425367252e-10 
0 0 0 0 0 0 0 0 0 
0 0 -1.7425367252e-10 0 0 -1.7425367252e-10 0 0 -1.7425367252e-10 
0 0 0 0 0 0 0 0 -1.7425367252e-10 
0 0 -1.7425367252e-10 0 0 -1.7425367252e-10 0 0 0 
0 0 0 0 0 0 0 0 0 
0 0 -1.7425367252e-10 0 0 0 0 0 -1.7425367252e-10 
0 0 -1.7425367252e-10 0 0 -1.7425367252e-10 0 0 -1.7425367252e-10 
0 0 -1.7425367252e-10 0 0 -1.7425367252e-10 0 0 -1.7425367252e-10 
0 0 -1.7425367252e-10 0 0 -1.7425367252e-10 0 0 -1.7425367252e-10 
0 0 -1.7425367252e-10 0 0 -1.7425367252e-10 0 0 -1.7425367252e-10 
0 0 -1.7425367252e-10 0 0 0 0 0 -1.7425367252e-10 
0 0 -1.7425367252e-10 0 0 -1.7425367252e-10 0 0 -1.7425367252e-10 
0 0 -1.7425367252e-10 0 0 0 0 0 -1.7425367252e-10 
0 0 -1.7425367252e-10 0 0 -1.7425367252e-10 0 0 -1.7425367252e-10 
0 0 -1.7425367252e-10 0 0 -1.7425367252e-10 0 0 -1.7425367252e-10 
0 0 -1.7425367252e-10 0 0 -1.7425367252e-10 0 0 -1.7425367252e-10 
0 0 -1.7425367252e-10 0 0 -1.7425367252e-10 0 0 -1.7425367252e-10 
0 0 -1.7425367252e-10 0 0 -1.7425367252e-10 0 0 -1.7425367252e-10 
0 0 -1.7425367252e-10 0 0 -1.7425367252e-10 0 0 -1.7425367252e-10 
0 0 -1.7425367252e-10 0 0 -1.7425367252e-10 0 0 -1.7425367252e-10 
0 0 -1.7425367252e-10 0 0 -1.7425367252e-10 0 0 -1.7425367252e-10 
0 0 -1.7425367252e-10 0 0 -1.7425367252e-10 0 0 -1.7425367252e-10 
0 0 -1.7425367252e-10 0 0 -1.7425367252e-10 0 0 -1.7425367252e-10 
0 0 -1.7425367252e-10 0 0 -1.7425367252e-10 0 0 -1.7425367252e-10 
0 0 -1.7425367252e-10 0 0 -1.7425367252e-10 0 0 -1.7425367252e-10 
0 0 -1.7425367252e-10 0 0 -1.7425367252e-10 0 0 -1.7425367252e-10 
0 0 -1.7425367252e-10 0 0 -1.7425367252e-10 0 0 -1.7425367252e-10 
0 0 -1.7425367252e-10 0 0 -1.7425367252e-10 0 0 -1.7425367252e-10 
0 0 -1.7425367252e-10 0 0 -1.7425367252e-10 0 0 -1.7425367252e-10 
0 0 -1.7425367252e-10 0 0 -1.7425367252e-10 0 0 -1.7425367252e-10 
0 0 -1.7425367252e-10 0 0 -1.7425367252e-10 0 0 -1.7425367252e-10 
0 0 -1.7425367252e-10 0 0 -1.7425367252e-10 0 0 -1.7425367252e-10 
0 0 -1.7425367252e-10 0 0 -1.7425367252e-10 0 0 -1.7425367252e-10 
0 0 -1.7425367252e-10 0 0 -1.7425367252e-10 0 0 -1.7425367252e-10 
0 0 -1.7425367252e-10 0 0 -1.7425367252e-10 0 0 -1.7425367252e-10 
0 0 -1.7425367252e-10 0 0 -1.7425367252e-10 0 0 -1.7425367252e-10 
0 0 -1.7425367252e-10 0 0 -1.7425367252e-10 0 0 -1.7425367252e-10 
0 0 -1.7425367252e-10 0 0 -1.7425367252e-10 0 0 -1.7425367252e-10 
0 0 -1.7425367252e-10 0 0 -1.7425367252e-10 0 0 -1.7425367252e-10 
0 0 -1.7425367252e-10 0 0 -1.7425367252e-10 0 0 -1.7425367252e-10 
0 0 -1.7425367252e-10 0 0 -1.7425367252e-10 0 0 -1.7425367252e-10 
0 0 -1.7425367252e-10 0 0 -1.7425367252e-10 0 0 -1.7425367252e-10 
0 0 -1.7425367252e-10 0 0 -1.7425367252e-10 0 0 -1.7425367252e-10 
0 0 -1.7425367252e-10 0 0 -1.7425367252e-10 0 0 -1.7425367252e-10 
0 0 -1.7425367252e-10 0 0 -1.7425367252e-10 0 0 -1.7425367252e-10 
0 0 -1.7425367252e-10 0 0 -1.7425367252e-10 0 0 -1.7425367252e-10 
0 0 -1.7425367252e-10 0 0 -1.7425367252e-10 0 0 -1.7425367252e-10 
0 0 -1.7425367252e-10 0 0 -1.7425367252e-10 0 0 -1.7425367252e-10 
0 0 -1.7425367252e-10 0 0 -1.7425367252e-10 0 0 -1.7425367252e-10 
0 0 -1.7425367252e-10 0 0 -1.7425367252e-10 0 0 -1.7425367252e-10 
0 0 -1.7425367252e-10 0 0 -1.7425367252e-10 0 0 -1.7425367252e-10 
0 0 -1.7425367252e-10 0 0 -1.7425367252e-10 0 0 -1.7425367252e-10 
0 0 -1.7425367252e-10 0 0 -1.7425367252e-10 0 0 -1.7425367252e-10 
0 0 -1.7425367252e-10 0 0 -8.9019973083e-09 0 0 -1.7425367252e-10 
0 0 -1.7425367252e-10 0 0 -1.7425367252e-10 0 0 -1.7425367252e-10 
0 0 -1.7425367252e-10 0 0 -1.7425367252e-10 0 0 -1.7425367252e-10 
0 0 -1.7425367252e-10 0 0 -1.7425367252e-10 0 0 -1.7425367252e-10 
0 0 -1.7425367252e-10 0 0 -1.7425367252e-10 0 0 -1.7425367252e-10 
0 0 -1.7425367252e-10 0 0 -1.7425367252e-10 0 0 -1.7425367252e-10 
0 0 -1.7425367252e-10 0 0 -1.7425367252e-10 0 0 -1.7425367252e-10 
0 0 -1.7425367252e-10 0 0 -1.7425367252e-10 0 0 -1.7425367252e-10 
0 0 -1.7425367252e-10 0 0 -1.7425367252e-10 0 0 -1.7425367252e-10 
0 0 -1.7425367252e-10 0 0 -1.7425367252e-10 0 0 -1.7425367252e-10 
0 0 -1.7425367252e-10 0 0 -1.7425367252e-10 0 0 -1.7425367252e-10 
0 0 -1.7425367252e-10 0 0 -1.7425367252e-10 0 0 -1.7425367252e-10 
0 0 -1.7425367252e-10 0 0 -1.7425367252e-10 0 0 -1.7425367252e-10 
0 0 -1.7425367252e-10 0 0 -1.7425367252e-10 0 0 -1.7425367252e-10 
0 0 -1.7425367252e-10 0 0 -1.7425367252e-10 0 0 -1.7425367252e-10 
0 0 -1.7425367252e-10 0 0 -1.7425367252e-10 0 0 -1.7425367252e-10 
0 0 -1.7425367252e-10 0 0 -1.7425367252e-10 0 0 -1.7425367252e-10 
0 0 -1.7425367252e-10 0 0 -1.7425367252e-10 0 0 -1.7425367252e-10 
0 0 -1.7425367252e-10 0 0 -1.7425367252e-10 0 0 -1.7425367252e-10 
0 0 -1.7425367252e-10 0 0 -1.7425367252e-10 0 0 -1.7425367252e-10 
0 0 -1.7425367252e-10 0 0 -1.7425367252e-10 0 0 -1.7425367252e-10 
0 0 -1.7425367252e-10 0 0 -1.7425367252e-10 0 0 -1.7425367252e-10 
0 0 -1.7425367252e-10 0 0 -1.7425367252e-10 0 0 -1.7425367252e-10 
0 0 -1.7425367252e-10 0 0 -1.7425367252e-10 0 0 -1.7425367252e-10 
0 0 -1.7425367252e-10 0 0 -1.7425367252e-10 0 0 -1.7425367252e-10 
0 0 -1.7425367252e-10 0 0 -1.7425367252e-10 0 0 -1.7425367252e-10 
0 0 -1.7425367252e-10 0 0 -1.7425367252e-10 0 0 -1.7425367252e-10 
0 0 -1.7425367252e-10 0 0 -1.7425367252e-10 0 0 -1.7425367252e-10 
0 0 -1.7425367252e-10 0 0 -1.7425367252e-10 0 0 -1.7425367252e-10 
0 0 -1.7425367252e-10 0 0 -1.7425367252e-10 0 0 -1.7425367252e-10 
0 0 -1.7425367252e-10 0 0 -1.7425367252e-10 0 0 -1.7425367252e-10 
0 0 -1.7425367252e-10 0 0 -1.7425367252e-10 0 0 -1.7425367252e-10 
0 0 -1.7425367252e-10 0 0 -1.7425367252e-10 0 0 -1.7425367252e-10 
0 0 -1.7425367252e-10 0 0 -1.7425367252e-10 0 0 -1.7425367252e-10 
0 0 -1.7425367252e-10 0 0 -1.7425367252e-10 0 0 -1.7425367252e-10 
0 0 -1.7425367252e-10 0 0 -1.7425367252e-10 0 0 -1.7425367252e-10 
0 0 -1.7425367252e-10 0 0 -1.7425367252e-10 0 0 -1.7425367252e-10 
0 0 -1.7425367252e-10 0 0 -1.7425367252e-10 0 0 -1.7425367252e-10 
0 0 -1.7425367252e-10 0 0 -1.7425367252e-10 0 0 -1.7425367252e-10 
0 0 -1.7425367252e-10 0 0 -1.7425367252e-10 0 0 -1.7425367252e-10 
0 0 -1.7425367252e-10 0 0 -1.7425367252e-10 0 0 -1.7425367252e-10 
0 0 -1.7425367252e-10 0 0 -1.7425367252e-10 0 0 -8.9019973083e-09 
0 0 -1.7425367252e-10 0 0 -1.7425367252e-10 0 0 -1.7425367252e-10 
0 0 -1.7425367252e-10 0 0 -1.7425367252e-10 0 0 -1.7425367252e-10 
0 0 -1.7425367252e-10 0 0 -1.7425367252e-10 0 0 -1.7425367252e-10 
0 0 -1.7425367252e-10 0 0 -1.7425367252e-10 0 0 -1.7425367252e-10 
0 0 -1.7425367252e-10 0 0 -1.7425367252e-10 0 0 -6.8918688838e-08 
0 0 -1.7425367252e-10 0 0 -1.7425367252e-10 0 0 -1.7425367252e-10 
0 0 -1.7425367252e-10 0 0 -1.7425367252e-10 0 0 -1.7425367252e-10 
0 0 -1.7425367252e-10 0 0 -1.7425367252e-10 0 0 -1.7425367252e-10 
0 0 -1.7425367252e-10 0 0 -1.7425367252e-10 0 0 -1.7425367252e-10 
0 0 -1.7425367252e-10 0 0 -1.7425367252e-10 0 0 -1.7425367252e-10 
0 0 -1.7425367252e-10 0 0 -1.7425367252e-10 0 0 -1.7425367252e-10 
0 0 -1.7425367252e-10 0 0 -1.7425367252e-10 0 0 -1.7425367252e-10 
0 0 -8.9019973083e-09 0 0 -1.7425367252e-10 0 0 -1.7425367252e-10 
0 0 -1.7425367252e-10 0 0 -1.7425367252e-10 0 0 -1.7425367252e-10 
0 0 -1.7425367252e-10 0 0 -1.7425367252e-10 0 0 -1.7425367252e-10 
0 0 -1.7425367252e-10 0 0 -1.7425367252e-10 0 0 -1.7425367252e-10 
0 0 -1.7425367252e-10 0 0 -1.7425367252e-10 0 0 -1.7425367252e-10 
0 0 -1.7425367252e-10 0 0 -1.7425367252e-10 0 0 -1.7425367252e-10 
0 0 -1.7425367252e-10 0 0 -1.7425367252e-10 0 0 -1.7425367252e-10 
0 0 -1.7425367252e-10 0 0 -1.7425367252e-10 0 0 -1.7425367252e-10 
0 0 -1.7425367252e-10 0 0 -1.7425367252e-10 0 0 -1.7425367252e-10 
0 0 -1.7425367252e-10 0 0 -1.7425367252e-10 0 0 -1.7425367252e-10 
0 0 -1.7425367252e-10 0 0 -1.7425367252e-10 0 0 -1.7425367252e-10 
0 0 -1.7425367252e-10 0 0 -1.7425367252e-10 0 0 -1.7425367252e-10 
0 0 -1.7425367252e-10 0 0 -1.7425367252e-10 0 0 -1.7425367252e-10 
0 0 -1.7425367252e-10 0 0 -1.7425367252e-10 0 0 -1.7425367252e-10 
0 0 -1.7425367252e-10 0 0 -1.7425367252e-10 0 0 -1.7425367252e-10 
0 0 -1.7425367252e-10 0 0 -1.7425367252e-10 0 0 -1.7425367252e-10 
0 0 -1.7425367252e-10 0 0 -1.7425367252e-10 0 0 -1.7425367252e-10 
0 0 -1.7425367252e-10 0 0 -1.7425367252e-10 0 0 -1.7425367252e-10 
0 0 -1.7425367252e-10 0 0 -1.7425367252e-10 0 0 -1.7425367252e-10 
0 0 -1.7425367252e-10 0 0 -1.7425367252e-10 0 0 -1.7425367252e-10 
0 0 -1.7425367252e-10 0 0 -8.9019973083e-09 0 0 -8.9019973083e-09 
0 0 -1.7425367252e-10 0 0 -1.7425367252e-10 0 0 -1.7425367252e-10 
0 0 -8.9019973083e-09 0 0 -1.7425367252e-10 0 0 -8.9019973083e-09 
0 0 -1.7425367252e-10 0 0 -8.9019973083e-09 0 0 -1.7425367252e-10 
0 0 -8.9019973083e-09 0 0 -1.7425367252e-10 0 0 -1.7425367252e-10 
0 0 -1.7425367252e-10 0 0 -1.7425367252e-10 0 0 -1.7425367252e-10 
0 0 -1.7425367252e-10 0 0 -1.7425367252e-10 0 0 -1.7425367252e-10 
0 0 -8.9019973083e-09 0 0 -8.9019973083e-09 0 0 -8.9019973083e-09 
0 0 -1.7425367252e-10 0 0 -1.7425367252e-10 0 0 -1.7425367252e-10 
0 0 -1.7425367252e-10 0 0 -1.7425367252e-10 0 0 -1.7425367252e-10 
0 0 -1.7425367252e-10 0 0 -1.7425367252e-10 0 0 -1.7425367252e-10 
0 0 -1.7425367252e-10 0 0 -1.7425367252e-10 0 0 -1.7425367252e-10 
0 0 -1.7425367252e-10 0 0 -1.7425367252e-10 0 0 -1.7425367252e-10 
0 0 -1.7425367252e-10 0 0 -1.7425367252e-10 0 0 -1.7425367252e-10 
0 0 -1.7425367252e-10 0 0 -1.7425367252e-10 0 0 -1.7425367252e-10 
0 0 -1.7425367252e-10 0 0 -1.7425367252e-10 0 0 -1.7425367252e-10 
0 0 -1.7425367252e-10 0 0 -1.7425367252e-10 0 0 -1.7425367252e-10 
0 0 -1.7425367252e-10 0 0 -1.7425367252e-10 0 0 -1.7425367252e-10 
0 0 -1.7425367252e-10 0 0 -1.7425367252e-10 0 0 -1.7425367252e-10 
0 0 -1.7425367252e-10 0 0 -1.7425367252e-10 0 0 -1.7425367252e-10 
0 0 -1.7425367252e-10 0 0 -1.7425367252e-10 0 0 -1.7425367252e-10 
0 0 -1.7425367252e-10 0 0 -1.7425367252e-10 0 0 -1.7425367252e-10 
0 0 -1.7425367252e-10 0 0 -1.7425367252e-10 0 0 -1.7425367252e-10 
0 0 -1.7425367252e-10 0 0 -1.7425367252e-10 0 0 -1.7425367252e-10 
0 0 -1.7425367252e-10 0 0 -1.7425367252e-10 0 0 -1.7425367252e-10 
0 0 -1.7425367252e-10 0 0 -1.7425367252e-10 0 0 -1.7425367252e-10 
0 0 -1.7425367252e-10 0 0 -1.7425367252e-10 0 0 -1.7425367252e-10 
0 0 -1.7425367252e-10 0 0 -1.7425367252e-10 0 0 -1.7425367252e-10 
0 0 -1.7425367252e-10 0 0 -1.7425367252e-10 0 0 -1.7425367252e-10 
0 0 -1.7425367252e-10 0 0 -1.7425367252e-10 0 0 -1.7425367252e-10 
0 0 -1.7425367252e-10 0 0 -1.7425367252e-10 0 0 -1.7425367252e-10 
0 0 -1.7425367252e-10 0 0 -1.7425367252e-10 0 0 -1.7425367252e-10 
0 0 -1.7425367252e-10 0 0 -1.7425367252e-10 0 0 -1.7425367252e-10 
0 0 -1.7425367252e-10 0 0 -8.9019973083e-09 0 0 -1.7425367252e-10 
0 0 -1.7425367252e-10 0 0 -1.7425367252e-10 0 0 -8.9019973083e-09 
0 0 -1.7425367252e-10 0 0 -1.7425367252e-10 0 0 -1.7425367252e-10 
0 0 -1.7425367252e-10 0 0 -1.7425367252e-10 0 0 -1.7425367252e-10 
0 0 -1.7425367252e-10 0 0 -1.7425367252e-10 0 0 -1.7425367252e-10 
0 0 -1.7425367252e-10 0 0 -1.7425367252e-10 0 0 -1.7425367252e-10 
0 0 -1.7425367252e-10 0 0 -1.7425367252e-10 0 0 -8.9019973083e-09 
0 0 -1.7425367252e-10 0 0 -1.7425367252e-10 0 0 -1.7425367252e-10 
0 0 -1.7425367252e-10 0 0 -1.7425367252e-10 0 0 -1.7425367252e-10 
0 0 -1.7425367252e-10 0 0 -1.7425367252e-10 0 0 -1.7425367252e-10 
0 0 -1.7425367252e-10 0 0 -1.7425367252e-10 0 0 -1.7425367252e-10 
0 0 -1.7425367252e-10 0 0 -1.7425367252e-10 0 0 -1.7425367252e-10 
0 0 -1.7425367252e-10 0 0 -1.7425367252e-10 0 0 -1.7425367252e-10 
0 0 -1.7425367252e-10 0 0 -1.7425367252e-10 0 0 -1.7425367252e-10 
0 0 -1.7425367252e-10 0 0 -1.7425367252e-10 0 0 -1.7425367252e-10 
0 0 -1.7425367252e-10 0 0 -1.7425367252e-10 0 0 -1.7425367252e-10 
0 0 -1.7425367252e-10 0 0 -1.7425367252e-10 0 0 -1.7425367252e-10 
0 0 -1.7425367252e-10 0 0 -1.7425367252e-10 0 0 -1.7425367252e-10 
0 0 -1.7425367252e-10 0 0 -1.7425367252e-10 0 0 -1.7425367252e-10 
0 0 -1.7425367252e-10 0 0 -1.7425367252e-10 0 0 -1.7425367252e-10 
0 0 -1.7425367252e-10 0 0 -1.7425367252e-10 0 0 -1.7425367252e-10 
0 0 -1.7425367252e-10 0 0 -1.7425367252e-10 0 0 -8.9019973083e-09 
0 0 -1.7425367252e-10 0 0 -1.7425367252e-10 0 0 -1.7425367252e-10 
0 0 -1.7425367252e-10 0 0 -1.7425367252e-10 0 0 -1.7425367252e-10 
0 0 -8.9019973083e-09 0 0 -1.7425367252e-10 0 0 -5.3297119368e-07 

radius 1 648 double
2e-05 2e-05 2e-05 2e-05 2e-05 2e-05 2e-05 2e-05 2e-05 
2e-05 2e-05 2e-05 2e-05 2e-05 2e-05 2e-05 2e-05 2e-05 
2e-05 2e-05 2e-05 2e-05 2e-05 2e-05 2e-05 2e-05 2e-05 
2e-05 2e-05 2e-05 2e-05 2e-05 2e-05 2e-05 2e-05 2e-05 
2e-05 2e-05 2e-05 2e-05 2e-05 2e-05 2e-05 2e-05 2e-05 
2e-05 2e-05 2e-05 2e-05 2e-05 2e-05 2e-05 2e-05 2e-05 
2e-05 2e-05 2e-05 2e-05 2e-05 2e-05 2e-05 2e-05 2e-05 
2e-05 2e-05 2e-05 2e-05 2e-05 2e-05 2e-05 2e-05 2e-05 
2e-05 2e-05 2e-05 2e-05 2e-05 2e-05 2e-05 2e-05 2e-05 
2e-05 2e-05 2e-05 2e-05 2e-05 2e-05 2e-05 2e-05 2e-05 
2e-05 2e-05 2e-05 2e-05 2e-05 2e-05 2e-05 2e-05 2e-05 
2e-05 2e-05 2e-05 2e-05 2e-05 2e-05 2e-05 2e-05 2e-05 
2e-05 2e-05 2e-05 2e-05 2e-05 2e-05 2e-05 2e-05 2e-05 
2e-05 2e-05 2e-05 2e-05 2e-05 2e-05 2e-05 2e-05 2e-05 
2e-05 2e-05 2e-05 2e-05 2e-05 2e-05 2e-05 2e-05 2e-05 
2e-05 2e-05 2e-05 2e-05 2e-05 2e-05 2e-05 2e-05 2e-05 
2e-05 2e-05 2e-05 2e-05 2e-05 2e-05 2e-05 2e-05 2e-05 
2e-05 2e-05 2e-05 2e-05 2e-05 2e-05 2e-05 2e-05 2e-05 
2e-05 2e-05 2e-05 2e-05 2e-05 2e-05 2e-05 2e-05 2e-05 
2e-05 2e-05 2e-05 2e-05 2e-05 2e-05 2e-05 2e-05 2e-05 
2e-05 2e-05 2e-05 2e-05 2e-05 2e-05 2e-05 2e-05 2e-05 
2e-05 2e-05 2e-05 2e-05 2e-05 2e-05 2e-05 2e-05 2e-05 
2e-05 2e-05 2e-05 2e-05 2e-05 2e-05 2e-05 2e-05 2e-05 
2e-05 2e-05 2e-05 2e-05 2e-05 2e-05 2e-05 2e-05 2e-05 
2e-05 2e-05 2e-05 2e-05 2e-05 2e-05 2e-05 2e-05 2e-05 
2e-05 2e-05 2e-05 2e-05 2e-05 2e-05 2e-05 2e-05 2e-05 
2e-05 2e-05 2e-05 2e-05 2e-05 2e-05 2e-05 2e-05 2e-05 
2e-05 2e-05 2e-05 2e-05 2e-05 2e-05 2e-05 2e-05 2e-05 
2e-05 7.5e-05 2e-05 2e-05 2e-05 2e-05 2e-05 2e-05 2e-05 
2e-05 2e-05 2e-05 2e-05 2e-05 2e-05 2e-05 2e-05 2e-05 
2e-05 2e-05 2e-05 2e-05 2e-05 2e-05 2e-05 2e-05 2e-05 
2e-05 2e-05 2e-05 2e-05 2e-05 2e-05 2e-05 2e-05 2e-05 
2e-05 2e-05 2e-05 2e-05 2e-05 2e-05 2e-05 2e-05 2e-05 
2e-05 2e-05 2e-05 2e-05 2e-05 2e-05 2e-05 2e-05 2e-05 
2e-05 2e-05 2e-05 2e-05 2e-05 2e-05 2e-05 2e-05 2e-05 
2e-05 2e-05 2e-05 2e-05 2e-05 2e-05 2e-05 2e-05 2e-05 
2e-05 2e-05 2e-05 2e-05 2e-05 2e-05 2e-05 2e-05 2e-05 
2e-05 2e-05 2e-05 2e-05 2e-05 2e-05 2e-05 2e-05 2e-05 
2e-05 2e-05 2e-05 2e-05 2e-05 2e-05 2e-05 2e-05 2e-05 
2e-05 2e-05 2e-05 2e-05 2e-05 2e-05 2e-05 2e-05 2e-05 
2e-05 2e-05 2e-05 2e-05 2e-05 2e-05 2e-05 2e-05 2e-05 
2e-05 2e-05 2e-05 2e-05 2e-05 2e-05 2e-05 2e-05 7.5e-05 
2e-05 2e-05 2e-05 2e-05 2e-05 2e-05 2e-05 2e-05 2e-05 
2e-05 2e-05 2e-05 2e-05 2e-05 0.00015 2e-05 2e-05 2e-05 
2e-05 2e-05 2e-05 2e-05 2e-05 2e-05 2e-05 2e-05 2e-05 
2e-05 2e-05 2e-05 2e-05 2e-05 2e-05 2e-05 2e-05 2e-05 
7.5e-05 2e-05 2e-05 2e-05 2e-05 2e-05 2e-05 2e-05 2e-05 
2e-05 2e-05 2e-05 2e-05 2e-05 2e-05 2e-05 2e-05 2e-05 
2e-05 2e-05 2e-05 2e-05 2e-05 2e-05 2e-05 2e-05 2e-05 
2e-05 2e-05 2e-05 2e-05 2e-05 2e-05 2e-05 2e-05 2e-05 
2e-05 2e-05 2e-05 2e-05 2e-05 2e-05 2e-05 2e-05 2e-05 
2e-05 2e-05 2e-05 2e-05 2e-05 2e-05 2e-05 2e-05 2e-05 
2e-05 2e-05 2e-05 2e-05 2e-05 2e-05 2e-05 7.5e-05 7.5e-05 
2e-05 2e-05 2e-05 7.5e-05 2e-05 7.5e-05 2e-05 7.5e-05 2e-05 
7.5e-05 2e-05 2e-05 2e-05 2e-05 2e-05 2e-05 2e-05 2e-05 
7.5e-05 7.5e-05 7.5e-05 2e-05 2e-05 2e-05 2e-05 2e-05 2e-05 
2e-05 2e-05 2e-05 2e-05 2e-05 2e-05 2e-05 2e-05 2e-05 
2e-05 2e-05 2e-05 2e-05 2e-05 2e-05 2e-05 2e-05 2e-05 
2e-05 2e-05 2e-05 2e-05 2e-05 2e-05 2e-05 2e-05 2e-05 
2e-05 2e-05 2e-05 2e-05 2e-05 2e-05 2e-05 2e-05 2e-05 
2e-05 2e-05 2e-05 2e-05 2e-05 2e-05 2e-05 2e-05 2e-05 
2e-05 2e-05 2e-05 2e-05 2e-05 2e-05 2e-05 2e-05 2e-05 
2e-05 2e-05 2e-05 2e-05 2e-05 2e-05 2e-05 2e-05 2e-05 
2e-05 2e-05 2e-05 2e-05 2e-05 2e-05 2e-05 7.5e-05 2e-05 
2e-05 2e-05 7.5e-05 2e-05 2e-05 2e-05 2e-05 2e-05 2e-05 
2e-05 2e-05 2e-05 2e-05 2e-05 2e-05 2e-05 2e-05 7.5e-05 
2e-05 2e-05 2e-05 2e-05 2e-05 2e-05 2e-05 2e-05 2e-05 
2e-05 2e-05 2e-05 2e-05 2e-05 2e-05 2e-05 2e-05 2e-05 
2e-05 2e-05 2e-05 2e-05 2e-05 2e-05 2e-05 2e-05 2e-05 
2e-05 2e-05 2e-05 2e-05 2e-05 2e-05 2e-05 2e-05 2e-05 
2e-05 2e-05 2e-05 2e-05 2e-05 2e-05 2e-05 2e-05 7.5e-05 
2e-05 2e-05 2e-05 2e-05 2e-05 2e-05 7.5e-05 2e-05 0.0003 

omega 3 648 double
0 0 0 0 0 0 0 0 0 
0 0 0 0 0 0 0 0 0 
0 0 0 0 0 0 0 0 0 
0 0 0 0 0 0 0 0 0 
0 0 0 0 0 0 0 0 0 
0 0 0 0 0 0 0 0 0 
0 0 0 0 0 0 0 0 0 
0 0 0 0 0 0 0 0 0 
0 0 0 0 0 0 0 0 0 
0 0 0 0 0 0 0 0 0 
0 0 0 0 0 0 0 0 0 
0 0 0 0 0 0 0 0 0 
0 0 0 0 0 0 0 0 0 
0 0 0 0 0 0 0 0 0 
0 0 0 0 0 0 0 0 0 
0 0 0 0 0 0 0 0 0 
0 0 0 0 0 0 0 0 0 
0 0 0 0 0 0 0 0 0 
0 0 0 0 0 0 0 0 0 
0 0 0 0 0 0 0 0 0 
0 0 0 0 0 0 0 0 0 
0 0 0 0 0 0 0 0 0 
0 0 0 0 0 0 0 0 0 
0 0 0 0 0 0 0 0 0 
0 0 0 0 0 0 0 0 0 
0 0 0 0 0 0 0 0 0 
0 0 0 0 0 0 0 0 0 
0 0 0 0 0 0 0 0 0 
0 0 0 0 0 0 0 0 0 
0 0 0 0 0 0 0 0 0 
0 0 0 0 0 0 0 0 0 
0 0 0 0 0 0 0 0 0 
0 0 0 0 0 0 0 0 0 
0 0 0 0 0 0 0 0 0 
0 0 0 0 0 0 0 0 0 
0 0 0 0 0 0 0 0 0 
0 0 0 0 0 0 0 0 0 
0 0 0 0 0 0 0 0 0 
0 0 0 0 0 0 0 0 0 
0 0 0 0 0 0 0 0 0 
0 0 0 0 0 0 0 0 0 
0 0 0 0 0 0 0 0 0 
0 0 0 0 0 0 0 0 0 
0 0 0 0 0 0 0 0 0 
0 0 0 0 0 0 0 0 0 
0 0 0 0 0 0 0 0 0 
0 0 0 0 0 0 0 0 0 
0 0 0 0 0 0 0 0 0 
0 0 0 0 0 0 0 0 0 
0 0 0 0 0 0 0 0 0 
0 0 0 0 0 0 0 0 0 
0 0 0 0 0 0 0 0 0 
0 0 0 0 0 0 0 0 0 
0 0 0 0 0 0 0 0 0 
0 0 0 0 0 0 0 0 0 
0 0 0 0 0 0 0 0 0 
0 0 0 0 0 0 0 0 0 
0 0 0 0 0 0 0 0 0 
0 0 0 0 0 0 0 0 0 
0 0 0 0 0 0 0 0 0 
0 0 0 0 0 0 0 0 0 
0 0 0 0 0 0 0 0 0 
0 0 0 0 0 0 0 0 0 
0 0 0 0 0 0 0 0 0 
0 0 0 0 0 0 0 0 0 
0 0 0 0 0 0 0 0 0 
0 0 0 0 0 0 0 0 0 
0 0 0 0 0 0 0 0 0 
0 0 0 0 0 0 0 0 0 
0 0 0 0 0 0 0 0 0 
0 0 0 0 0 0 0 0 0 
0 0 0 0 0 0 0 0 0 
0 0 0 0 0 0 0 0 0 
0 0 0 0 0 0 0 0 0 
0 0 0 0 0 0 0 0 0 
0 0 0 0 0 0 0 0 0 
0 0 0 0 0 0 0 0 0 
0 0 0 0 0 0 0 0 0 
0 0 0 0 0 0 0 0 0 
0 0 0 0 0 0 0 0 0 
0 0 0 0 0 0 0 0 0 
0 0 0 0 0 0 0 0 0 
0 0 0 0 0 0 0 0 0 
0 0 0 0 0 0 0 0 0 
0 0 0 0 0 0 0 0 0 
0 0 0 0 0 0 0 0 0 
0 0 0 0 0 0 0 0 0 
0 0 0 0 0 0 0 0 0 
0 0 0 0 0 0 0 0 0 
0 0 0 0 0 0 0 0 0 
0 0 0 0 0 0 0 0 0 
0 0 0 0 0 0 0 0 0 
0 0 0 0 0 0 0 0 0 
0 0 0 0 0 0 0 0 0 
0 0 0 0 0 0 0 0 0 
0 0 0 0 0 0 0 0 0 
0 0 0 0 0 0 0 0 0 
0 0 0 0 0 0 0 0 0 
0 0 0 0 0 0 0 0 0 
0 0 0 0 0 0 0 0 0 
0 0 0 0 0 0 0 0 0 
0 0 0 0 0 0 0 0 0 
0 0 0 0 0 0 0 0 0 
0 0 0 0 0 0 0 0 0 
0 0 0 0 0 0 0 0 0 
0 0 0 0 0 0 0 0 0 
0 0 0 0 0 0 0 0 0 
0 0 0 0 0 0 0 0 0 
0 0 0 0 0 0 0 0 0 
0 0 0 0 0 0 0 0 0 
0 0 0 0 0 0 0 0 0 
0 0 0 0 0 0 0 0 0 
0 0 0 0 0 0 0 0 0 
0 0 0 0 0 0 0 0 0 
0 0 0 0 0 0 0 0 0 
0 0 0 0 0 0 0 0 0 
0 0 0 0 0 0 0 0 0 
0 0 0 0 0 0 0 0 0 
0 0 0 0 0 0 0 0 0 
0 0 0 0 0 0 0 0 0 
0 0 0 0 0 0 0 0 0 
0 0 0 0 0 0 0 0 0 
0 0 0 0 0 0 0 0 0 
0 0 0 0 0 0 0 0 0 
0 0 0 0 0 0 0 0 0 
0 0 0 0 0 0 0 0 0 
0 0 0 0 0 0 0 0 0 
0 0 0 0 0 0 0 0 0 
0 0 0 0 0 0 0 0 0 
0 0 0 0 0 0 0 0 0 
0 0 0 0 0 0 0 0 0 
0 0 0 0 0 0 0 0 0 
0 0 0 0 0 0 0 0 0 
0 0 0 0 0 0 0 0 0 
0 0 0 0 0 0 0 0 0 
0 0 0 0 0 0 0 0 0 
0 0 0 0 0 0 0 0 0 
0 0 0 0 0 0 0 0 0 
0 0 0 0 0 0 0 0 0 
0 0 0 0 0 0 0 0 0 
0 0 0 0 0 0 0 0 0 
0 0 0 0 0 0 0 0 0 
0 0 0 0 0 0 0 0 0 
0 0 0 0 0 0 0 0 0 
0 0 0 0 0 0 0 0 0 
0 0 0 0 0 0 0 0 0 
0 0 0 0 0 0 0 0 0 
0 0 0 0 0 0 0 0 0 
0 0 0 0 0 0 0 0 0 
0 0 0 0 0 0 0 0 0 
0 0 0 0 0 0 0 0 0 
0 0 0 0 0 0 0 0 0 
0 0 0 0 0 0 0 0 0 
0 0 0 0 0 0 0 0 0 
0 0 0 0 0 0 0 0 0 
0 0 0 0 0 0 0 0 0 
0 0 0 0 0 0 0 0 0 
0 0 0 0 0 0 0 0 0 
0 0 0 0 0 0 0 0 0 
0 0 0 0 0 0 0 0 0 
0 0 0 0 0 0 0 0 0 
0 0 0 0 0 0 0 0 0 
0 0 0 0 0 0 0 0 0 
0 0 0 0 0 0 0 0 0 
0 0 0 0 0 0 0 0 0 
0 0 0 0 0 0 0 0 0 
0 0 0 0 0 0 0 0 0 
0 0 0 0 0 0 0 0 0 
0 0 0 0 0 0 0 0 0 
0 0 0 0 0 0 0 0 0 
0 0 0 0 0 0 0 0 0 
0 0 0 0 0 0 0 0 0 
0 0 0 0 0 0 0 0 0 
0 0 0 0 0 0 0 0 0 
0 0 0 0 0 0 0 0 0 
0 0 0 0 0 0 0 0 0 
0 0 0 0 0 0 0 0 0 
0 0 0 0 0 0 0 0 0 
0 0 0 0 0 0 0 0 0 
0 0 0 0 0 0 0 0 0 
0 0 0 0 0 0 0 0 0 
0 0 0 0 0 0 0 0 0 
0 0 0 0 0 0 0 0 0 
0 0 0 0 0 0 0 0 0 
0 0 0 0 0 0 0 0 0 
0 0 0 0 0 0 0 0 0 
0 0 0 0 0 0 0 0 0 
0 0 0 0 0 0 0 0 0 
0 0 0 0 0 0 0 0 0 
0 0 0 0 0 0 0 0 0 
0 0 0 0 0 0 0 0 0 
0 0 0 0 0 0 0 0 0 
0 0 0 0 0 0 0 0 0 
0 0 0 0 0 0 0 0 0 
0 0 0 0 0 0 0 0 0 
0 0 0 0 0 0 0 0 0 
0 0 0 0 0 0 0 0 0 
0 0 0 0 0 0 0 0 0 
0 0 0 0 0 0 0 0 0 
0 0 0 0 0 0 0 0 0 
0 0 0 0 0 0 0 0 0 
0 0 0 0 0 0 0 0 0 
0 0 0 0 0 0 0 0 0 
0 0 0 0 0 0 0 0 0 
0 0 0 0 0 0 0 0 0 
0 0 0 0 0 0 0 0 0 
0 0 0 0 0 0 0 0 0 
0 0 0 0 0 0 0 0 0 
0 0 0 0 0 0 0 0 0 
0 0 0 0 0 0 0 0 0 
0 0 0 0 0 0 0 0 0 
0 0 0 0 0 0 0 0 0 
0 0 0 0 0 0 0 0 0 
0 0 0 0 0 0 0 0 0 
0 0 0 0 0 0 0 0 0 
0 0 0 0 0 0 0 0 0 

fx_mag_viz 1 648 double
0 0 0 0 0 0 0 0 0 
0 0 0 0 0 0 0 0 0 
0 0 0 0 0 0 0 0 0 
0 0 0 0 0 0 0 0 0 
0 0 0 0 0 0 0 0 0 
0 0 0 0 0 0 0 0 0 
0 0 0 0 0 0 0 0 0 
0 0 0 0 0 0 0 0 0 
0 0 0 0 0 0 0 0 0 
0 0 0 0 0 0 0 0 0 
0 0 0 0 0 0 0 0 0 
0 0 0 0 0 0 0 0 0 
0 0 0 0 0 0 0 0 0 
0 0 0 0 0 0 0 0 0 
0 0 0 0 0 0 0 0 0 
0 0 0 0 0 0 0 0 0 
0 0 0 0 0 0 0 0 0 
0 0 0 0 0 0 0 0 0 
0 0 0 0 0 0 0 0 0 
0 0 0 0 0 0 0 0 0 
0 0 0 0 0 0 0 0 0 
0 0 0 0 0 0 0 0 0 
0 0 0 0 0 0 0 0 0 
0 0 0 0 0 0 0 0 0 
0 0 0 0 0 0 0 0 0 
0 0 0 0 0 0 0 0 0 
0 0 0 0 0 0 0 0 0 
0 0 0 0 0 0 0 0 0 
0 0 0 0 0 0 0 0 0 
0 0 0 0 0 0 0 0 0 
0 0 0 0 0 0 0 0 0 
0 0 0 0 0 0 0 0 0 
0 0 0 0 0 0 0 0 0 
0 0 0 0 0 0 0 0 0 
0 0 0 0 0 0 0 0 0 
0 0 0 0 0 0 0 0 0 
0 0 0 0 0 0 0 0 0 
0 0 0 0 0 0 0 0 0 
0 0 0 0 0 0 0 0 0 
0 0 0 0 0 0 0 0 0 
0 0 0 0 0 0 0 0 0 
0 0 0 0 0 0 0 0 0 
0 0 0 0 0 0 0 0 0 
0 0 0 0 0 0 0 0 0 
0 0 0 0 0 0 0 0 0 
0 0 0 0 0 0 0 0 0 
0 0 0 0 0 0 0 0 0 
0 0 0 0 0 0 0 0 0 
0 0 0 0 0 0 0 0 0 
0 0 0 0 0 0 0 0 0 
0 0 0 0 0 0 0 0 0 
0 0 0 0 0 0 0 0 0 
0 0 0 0 0 0 0 0 0 
0 0 0 0 0 0 0 0 0 
0 0 0 0 0 0 0 0 0 
0 0 0 0 0 0 0 0 0 
0 0 0 0 0 0 0 0 0 
0 0 0 0 0 0 0 0 0 
0 0 0 0 0 0 0 0 0 
0 0 0 0 0 0 0 0 0 
0 0 0 0 0 0 0 0 0 
0 0 0 0 0 0 0 0 0 
0 0 0 0 0 0 0 0 0 
0 0 0 0 0 0 0 0 0 
0 0 0 0 0 0 0 0 0 
0 0 0 0 0 0 0 0 0 
0 0 0 0 0 0 0 0 0 
0 0 0 0 0 0 0 0 0 
0 0 0 0 0 0 0 0 0 
0 0 0 0 0 0 0 0 0 
0 0 0 0 0 0 0 0 0 
0 0 0 0 0 0 0 0 0 

fy_mag_viz 1 648 double
0 0 0 0 0 0 0 0 0 
0 0 0 0 0 0 0 0 0 
0 0 0 0 0 0 0 0 0 
0 0 0 0 0 0 0 0 0 
0 0 0 0 0 0 0 0 0 
0 0 0 0 0 0 0 0 0 
0 0 0 0 0 0 0 0 0 
0 0 0 0 0 0 0 0 0 
0 0 0 0 0 0 0 0 0 
0 0 0 0 0 0 0 0 0 
0 0 0 0 0 0 0 0 0 
0 0 0 0 0 0 0 0 0 
0 0 0 0 0 0 0 0 0 
0 0 0 0 0 0 0 0 0 
0 0 0 0 0 0 0 0 0 
0 0 0 0 0 0 0 0 0 
0 0 0 0 0 0 0 0 0 
0 0 0 0 0 0 0 0 0 
0 0 0 0 0 0 0 0 0 
0 0 0 0 0 0 0 0 0 
0 0 0 0 0 0 0 0 0 
0 0 0 0 0 0 0 0 0 
0 0 0 0 0 0 0 0 0 
0 0 0 0 0 0 0 0 0 
0 0 0 0 0 0 0 0 0 
0 0 0 0 0 0 0 0 0 
0 0 0 0 0 0 0 0 0 
0 0 0 0 0 0 0 0 0 
0 0 0 0 0 0 0 0 0 
0 0 0 0 0 0 0 0 0 
0 0 0 0 0 0 0 0 0 
0 0 0 0 0 0 0 0 0 
0 0 0 0 0 0 0 0 0 
0 0 0 0 0 0 0 0 0 
0 0 0 0 0 0 0 0 0 
0 0 0 0 0 0 0 0 0 
0 0 0 0 0 0 0 0 0 
0 0 0 0 0 0 0 0 0 
0 0 0 0 0 0 0 0 0 
0 0 0 0 0 0 0 0 0 
0 0 0 0 0 0 0 0 0 
0 0 0 0 0 0 0 0 0 
0 0 0 0 0 0 0 0 0 
0 0 0 0 0 0 0 0 0 
0 0 0 0 0 0 0 0 0 
0 0 0 0 0 0 0 0 0 
0 0 0 0 0 0 0 0 0 
0 0 0 0 0 0 0 0 0 
0 0 0 0 0 0 0 0 0 
0 0 0 0 0 0 0 0 0 
0 0 0 0 0 0 0 0 0 
0 0 0 0 0 0 0 0 0 
0 0 0 0 0 0 0 0 0 
0 0 0 0 0 0 0 0 0 
0 0 0 0 0 0 0 0 0 
0 0 0 0 0 0 0 0 0 
0 0 0 0 0 0 0 0 0 
0 0 0 0 0 0 0 0 0 
0 0 0 0 0 0 0 0 0 
0 0 0 0 0 0 0 0 0 
0 0 0 0 0 0 0 0 0 
0 0 0 0 0 0 0 0 0 
0 0 0 0 0 0 0 0 0 
0 0 0 0 0 0 0 0 0 
0 0 0 0 0 0 0 0 0 
0 0 0 0 0 0 0 0 0 
0 0 0 0 0 0 0 0 0 
0 0 0 0 0 0 0 0 0 
0 0 0 0 0 0 0 0 0 
0 0 0 0 0 0 0 0 0 
0 0 0 0 0 0 0 0 0 
0 0 0 0 0 0 0 0 0 

fz_mag_viz 1 648 double
0 0 0 0 0 0 0 0 0 
0 0 0 0 0 0 0 0 0 
0 0 0 0 0 0 0 0 0 
0 0 0 0 0 0 0 0 0 
0 0 0 0 0 0 0 0 0 
0 0 0 0 0 0 0 0 0 
0 0 0 0 0 0 0 0 0 
0 0 0 0 0 0 0 0 0 
0 0 0 0 0 0 0 0 0 
0 0 0 0 0 0 0 0 0 
0 0 0 0 0 0 0 0 0 
0 0 0 0 0 0 0 0 0 
0 0 0 0 0 0 0 0 0 
0 0 0 0 0 0 0 0 0 
0 0 0 0 0 0 0 0 0 
0 0 0 0 0 0 0 0 0 
0 0 0 0 0 0 0 0 0 
0 0 0 0 0 0 0 0 0 
0 0 0 0 0 0 0 0 0 
0 0 0 0 0 0 0 0 0 
0 0 0 0 0 0 0 0 0 
0 0 0 0 0 0 0 0 0 
0 0 0 0 0 0 0 0 0 
0 0 0 0 0 0 0 0 0 
0 0 0 0 0 0 0 0 0 
0 0 0 0 0 0 0 0 0 
0 0 0 0 0 0 0 0 0 
0 0 0 0 0 0 0 0 0 
0 0 0 0 0 0 0 0 0 
0 0 0 0 0 0 0 0 0 
0 0 0 0 0 0 0 0 0 
0 0 0 0 0 0 0 0 0 
0 0 0 0 0 0 0 0 0 
0 0 0 0 0 0 0 0 0 
0 0 0 0 0 0 0 0 0 
0 0 0 0 0 0 0 0 0 
0 0 0 0 0 0 0 0 0 
0 0 0 0 0 0 0 0 0 
0 0 0 0 0 0 0 0 0 
0 0 0 0 0 0 0 0 0 
0 0 0 0 0 0 0 0 0 
0 0 0 0 0 0 0 0 0 
0 0 0 0 0 0 0 0 0 
0 0 0 0 0 0 0 0 0 
0 0 0 0 0 0 0 0 0 
0 0 0 0 0 0 0 0 0 
0 0 0 0 0 0 0 0 0 
0 0 0 0 0 0 0 0 0 
0 0 0 0 0 0 0 0 0 
0 0 0 0 0 0 0 0 0 
0 0 0 0 0 0 0 0 0 
0 0 0 0 0 0 0 0 0 
0 0 0 0 0 0 0 0 0 
0 0 0 0 0 0 0 0 0 
0 0 0 0 0 0 0 0 0 
0 0 0 0 0 0 0 0 0 
0 0 0 0 0 0 0 0 0 
0 0 0 0 0 0 0 0 0 
0 0 0 0 0 0 0 0 0 
0 0 0 0 0 0 0 0 0 
0 0 0 0 0 0 0 0 0 
0 0 0 0 0 0 0 0 0 
0 0 0 0 0 0 0 0 0 
0 0 0 0 0 0 0 0 0 
0 0 0 0 0 0 0 0 0 
0 0 0 0 0 0 0 0 0 
0 0 0 0 0 0 0 0 0 
0 0 0 0 0 0 0 0 0 
0 0 0 0 0 0 0 0 0 
0 0 0 0 0 0 0 0 0 
0 0 0 0 0 0 0 0 0 
0 0 0 0 0 0 0 0 0 

B_magnitude 1 648 double
0 0 0 0 0 0 0 0 0 
0 0 0 0 0 0 0 0 0 
0 0 0 0 0 0 0 0 0 
0 0 0 0 0 0 0 0 0 
0 0 0 0 0 0 0 0 0 
0 0 0 0 0 0 0 0 0 
0 0 0 0 0 0 0 0 0 
0 0 0 0 0 0 0 0 0 
0 0 0 0 0 0 0 0 0 
0 0 0 0 0 0 0 0 0 
0 0 0 0 0 0 0 0 0 
0 0 0 0 0 0 0 0 0 
0 0 0 0 0 0 0 0 0 
0 0 0 0 0 0 0 0 0 
0 0 0 0 0 0 0 0 0 
0 0 0 0 0 0 0 0 0 
0 0 0 0 0 0 0 0 0 
0 0 0 0 0 0 0 0 0 
0 0 0 0 0 0 0 0 0 
0 0 0 0 0 0 0 0 0 
0 0 0 0 0 0 0 0 0 
0 0 0 0 0 0 0 0 0 
0 0 0 0 0 0 0 0 0 
0 0 0 0 0 0 0 0 0 
0 0 0 0 0 0 0 0 0 
0 0 0 0 0 0 0 0 0 
0 0 0 0 0 0 0 0 0 
0 0 0 0 0 0 0 0 0 
0 0 0 0 0 0 0 0 0 
0 0 0 0 0 0 0 0 0 
0 0 0 0 0 0 0 0 0 
0 0 0 0 0 0 0 0 0 
0 0 0 0 0 0 0 0 0 
0 0 0 0 0 0 0 0 0 
0 0 0 0 0 0 0 0 0 
0 0 0 0 0 0 0 0 0 
0 0 0 0 0 0 0 0 0 
0 0 0 0 0 0 0 0 0 
0 0 0 0 0 0 0 0 0 
0 0 0 0 0 0 0 0 0 
0 0 0 0 0 0 0 0 0 
0 0 0 0 0 0 0 0 0 
0 0 0 0 0 0 0 0 0 
0 0 0 0 0 0 0 0 0 
0 0 0 0 0 0 0 0 0 
0 0 0 0 0 0 0 0 0 
0 0 0 0 0 0 0 0 0 
0 0 0 0 0 0 0 0 0 
0 0 0 0 0 0 0 0 0 
0 0 0 0 0 0 0 0 0 
0 0 0 0 0 0 0 0 0 
0 0 0 0 0 0 0 0 0 
0 0 0 0 0 0 0 0 0 
0 0 0 0 0 0 0 0 0 
0 0 0 0 0 0 0 0 0 
0 0 0 0 0 0 0 0 0 
0 0 0 0 0 0 0 0 0 
0 0 0 0 0 0 0 0 0 
0 0 0 0 0 0 0 0 0 
0 0 0 0 0 0 0 0 0 
0 0 0 0 0 0 0 0 0 
0 0 0 0 0 0 0 0 0 
0 0 0 0 0 0 0 0 0 
0 0 0 0 0 0 0 0 0 
0 0 0 0 0 0 0 0 0 
0 0 0 0 0 0 0 0 0 
0 0 0 0 0 0 0 0 0 
0 0 0 0 0 0 0 0 0 
0 0 0 0 0 0 0 0 0 
0 0 0 0 0 0 0 0 0 
0 0 0 0 0 0 0 0 0 
0 0 0 0 0 0 0 0 0 

B_gradient_mag 1 648 double
0 0 0 0 0 0 0 0 0 
0 0 0 0 0 0 0 0 0 
0 0 0 0 0 0 0 0 0 
0 0 0 0 0 0 0 0 0 
0 0 0 0 0 0 0 0 0 
0 0 0 0 0 0 0 0 0 
0 0 0 0 0 0 0 0 0 
0 0 0 0 0 0 0 0 0 
0 0 0 0 0 0 0 0 0 
0 0 0 0 0 0 0 0 0 
0 0 0 0 0 0 0 0 0 
0 0 0 0 0 0 0 0 0 
0 0 0 0 0 0 0 0 0 
0 0 0 0 0 0 0 0 0 
0 0 0 0 0 0 0 0 0 
0 0 0 0 0 0 0 0 0 
0 0 0 0 0 0 0 0 0 
0 0 0 0 0 0 0 0 0 
0 0 0 0 0 0 0 0 0 
0 0 0 0 0 0 0 0 0 
0 0 0 0 0 0 0 0 0 
0 0 0 0 0 0 0 0 0 
0 0 0 0 0 0 0 0 0 
0 0 0 0 0 0 0 0 0 
0 0 0 0 0 0 0 0 0 
0 0 0 0 0 0 0 0 0 
0 0 0 0 0 0 0 0 0 
0 0 0 0 0 0 0 0 0 
0 0 0 0 0 0 0 0 0 
0 0 0 0 0 0 0 0 0 
0 0 0 0 0 0 0 0 0 
0 0 0 0 0 0 0 0 0 
0 0 0 0 0 0 0 0 0 
0 0 0 0 0 0 0 0 0 
0 0 0 0 0 0 0 0 0 
0 0 0 0 0 0 0 0 0 
0 0 0 0 0 0 0 0 0 
0 0 0 0 0 0 0 0 0 
0 0 0 0 0 0 0 0 0 
0 0 0 0 0 0 0 0 0 
0 0 0 0 0 0 0 0 0 
0 0 0 0 0 0 0 0 0 
0 0 0 0 0 0 0 0 0 
0 0 0 0 0 0 0 0 0 
0 0 0 0 0 0 0 0 0 
0 0 0 0 0 0 0 0 0 
0 0 0 0 0 0 0 0 0 
0 0 0 0 0 0 0 0 0 
0 0 0 0 0 0 0 0 0 
0 0 0 0 0 0 0 0 0 
0 0 0 0 0 0 0 0 0 
0 0 0 0 0 0 0 0 0 
0 0 0 0 0 0 0 0 0 
0 0 0 0 0 0 0 0 0 
0 0 0 0 0 0 0 0 0 
0 0 0 0 0 0 0 0 0 
0 0 0 0 0 0 0 0 0 
0 0 0 0 0 0 0 0 0 
0 0 0 0 0 0 0 0 0 
0 0 0 0 0 0 0 0 0 
0 0 0 0 0 0 0 0 0 
0 0 0 0 0 0 0 0 0 
0 0 0 0 0 0 0 0 0 
0 0 0 0 0 0 0 0 0 
0 0 0 0 0 0 0 0 0 
0 0 0 0 0 0 0 0 0 
0 0 0 0 0 0 0 0 0 
0 0 0 0 0 0 0 0 0 
0 0 0 0 0 0 0 0 0 
0 0 0 0 0 0 0 0 0 
0 0 0 0 0 0 0 0 0 
0 0 0 0 0 0 0 0 0 

