# vtk DataFile Version 5.1
Generated by LIGGGHTS
ASCII
DATASET POLYDATA
POINTS 648 float
-0.0308094 -0.0435702 0.0118988 -0.0112192 -0.0104501 0.0122413 0.00743742 -0.00926665 0.0121387 
-0.00433253 -0.00676057 0.0119481 -0.0179231 -0.00300678 0.0118935 -0.042922 -0.0404536 0.01272 
0.0280204 -0.0311414 0.012778 0.013874 -0.00963069 0.0132214 -0.0129003 -0.00574839 0.013 
0.021602 0.00540593 0.0134708 -0.0214351 0.00957734 0.0127174 -0.0310202 0.0131063 0.0133174 
0.0364634 0.0310238 0.0132486 -0.0264781 0.032823 0.0129463 0.0297434 0.0373158 0.013039 
-0.0428902 -0.0449088 0.0140312 0.00798734 -0.0367051 0.0137586 0.0308099 -0.0378456 0.0148635 
0.000892701 -0.0263701 0.0136775 -0.0257955 -0.0157834 0.0144253 0.0384376 0.000848974 0.0143205 
0.0449494 0.00392273 0.0147 0.0221269 0.00728552 0.0136984 -0.022709 0.0198803 0.0141732 
0.0167463 0.0251763 0.0139958 -0.0390027 0.0421086 0.0141885 0.0333162 -0.0342631 0.0151721 
-0.00444012 -0.0151621 0.0159418 0.0109664 -0.00760095 0.0157792 0.00937085 -0.00418454 0.0155192 
0.0180565 -0.00487531 0.0156121 -0.0141425 -0.00311887 0.0159979 0.0123926 0.0218243 0.0161557 
0.03506 0.0228899 0.0150007 0.0181332 0.0246356 0.0150749 -0.0105296 -0.0314142 0.016526 
-0.0100897 -0.0180162 0.0166316 -0.0117656 -0.0138394 0.0163195 -0.0198564 -0.00683511 0.0167488 
0.0246705 0.0064451 0.0170308 -0.0426568 0.00723228 0.0170985 0.0212596 0.00979192 0.0170353 
0.0143092 0.0139794 0.0167498 0.0248423 0.0143007 0.0163337 -0.0335565 -0.0442122 0.0185961 
0.0156715 -0.0391733 0.018143 0.033456 -0.0256735 0.0183156 0.039775 -0.0211058 0.0187829 
0.00689113 -0.0107816 0.0175402 0.0350526 -0.0102353 0.0187864 0.021323 -0.00444137 0.0177939 
0.0292006 0.00433004 0.0184986 0.0340899 0.00882812 0.0180526 0.0398091 0.011618 0.0176385 
0.0307708 0.0242663 0.0177546 -0.0200898 0.0311527 0.0179664 -0.0073504 0.0318329 0.0184983 
-0.0248652 -0.040212 0.0198573 -0.00302782 -0.0385948 0.0195676 -0.0266532 -0.0301716 0.0190678 
-0.0388614 -0.0136303 0.0189057 0.00517921 0.0169249 0.0198468 -0.0360536 0.0173104 0.0192212 
0.0090081 0.0191686 0.0194919 -0.00782209 0.0241861 0.0188533 -0.00674967 -0.0416523 0.0213959 
-0.0260142 0.00017485 0.0209883 8.23501e-07 0.0138406 0.0209565 0.0215224 0.0171285 0.0207745 
-0.0153727 0.020636 0.0212128 0.000162142 0.0251126 0.0204192 -0.00563177 0.0268155 0.0205739 
0.0038092 0.0311583 0.0204486 0.01325 0.0319187 0.0202518 0.0165329 0.0385374 0.0204375 
0.00594186 -0.0351889 0.0215355 0.00577088 -0.0287415 0.0226122 -0.0408326 -0.0234295 0.0224411 
-0.0108877 -0.0188832 0.0223724 0.00156248 -0.0194187 0.0217342 0.0030191 -0.0179247 0.0220455 
0.0286804 -0.00919085 0.0214377 0.0188762 0.00181355 0.0220257 0.0305447 0.00486582 0.0217237 
-0.0287984 0.00559412 0.0220755 -0.0282566 0.021284 0.0219926 0.0251972 0.0393087 0.0223119 
-0.0334706 -0.0396012 0.0237468 0.0336491 -0.0197505 0.0238024 -0.0339565 -0.0167518 0.0238092 
-0.0269092 -0.0125643 0.0228583 -0.0214415 -0.007536 0.0235231 0.00417698 0.0024455 0.0228823 
0.0287781 0.014071 0.0232705 -0.0313244 0.0314049 0.0235155 -0.0240719 -0.0268296 0.0252535 
-0.0426154 -0.0165053 0.0249293 0.0223879 -0.0163393 0.0249367 -0.00702036 -0.00121172 0.0249181 
-0.00967086 0.00179773 0.0248346 -0.034865 0.0142961 0.0245782 -0.041477 0.0364172 0.0243336 
0.0221021 0.0401282 0.0252117 0.0436787 -0.0219137 0.0262664 0.0277003 -0.0107969 0.0261155 
-0.00783961 -0.000387029 0.0253196 -0.0386663 0.0253433 0.0253582 -0.0267569 0.0263983 0.0257962 
0.0414821 -0.0410789 0.0270106 -0.0232422 -0.0321576 0.0269237 0.0404767 -0.0183151 0.0271185 
0.0228765 0.00606581 0.027263 0.0399323 0.0117688 0.0275228 -0.00739359 0.0259593 0.027643 
0.0191509 0.0299648 0.0274921 0.0444958 0.0309554 0.0268398 0.00284552 0.0345861 0.0271655 
-0.0112537 0.0395394 0.0278806 0.040047 -0.0404588 0.0290208 -0.0439713 -0.0357399 0.0283479 
0.0244271 -0.0334586 0.0289866 0.0268369 -0.0315202 0.0290377 -0.0448384 -0.0296834 0.0287119 
0.00623721 -0.0211799 0.0286246 -0.0329121 -0.0139828 0.0290684 0.0251729 -0.00985964 0.0279208 
0.0011249 0.00615697 0.0286699 0.030759 0.00580352 0.028308 0.00395304 0.0187088 0.0281287 
-0.0357156 0.0282031 0.0281582 -0.0409258 0.0305044 0.0287037 0.0163992 0.0415262 0.0290519 
-0.0205282 0.0432397 0.0279836 -0.044759 -0.0437614 0.0296664 -0.0370475 -0.0370945 0.0300988 
0.0268005 -0.0146468 0.0297305 0.0176437 -0.0119747 0.0293942 -0.042786 -0.00359954 0.0302047 
-0.0170872 0.00564833 0.0295222 -0.00279986 0.0127222 0.0300139 0.0418335 0.0161761 0.0302094 
0.00128112 0.0217131 0.030234 0.00805094 0.0422278 0.0302587 0.0244803 -0.0401788 0.0313316 
-0.0427235 -0.0332389 0.0312932 0.023158 -0.0340207 0.0308878 0.032808 -0.025967 0.0305348 
-0.0317771 -0.0175651 0.0307908 -0.038829 -0.00978443 0.0305869 -0.0304645 -0.00701594 0.0305859 
0.0142017 0.0079404 0.031408 0.0202046 0.00840095 0.0317144 -0.0408092 0.00981999 0.0315915 
0.014866 0.0127598 0.0309032 -0.0214239 0.0189608 0.0308387 0.0226957 0.0260881 0.0307783 
0.00953871 0.0271324 0.0317927 -0.00435696 0.0325462 0.0307983 -0.027409 -0.0433703 0.0321236 
-0.00670669 -0.0394183 0.0329061 0.00879071 -0.0344865 0.031947 -0.0262624 -0.032473 0.0325211 
-0.00580099 -0.0272788 0.0320531 -0.00553214 -0.00871323 0.0329857 0.039455 -0.000236508 0.0318596 
0.0147261 0.00139147 0.0327652 -0.0392616 0.00972366 0.0322005 0.0226738 0.0181095 0.0325014 
0.0146363 0.0223077 0.0326051 -0.0312382 0.0393096 0.0329081 0.0399235 0.0434757 0.032706 
-0.00340304 -0.0448428 0.033671 -0.0338231 -0.0250135 0.0336819 0.0363266 -0.0194176 0.0339278 
-0.0222502 -0.00974669 0.0334813 -0.037077 0.00611456 0.0334415 -0.0101256 0.00978275 0.0342823 
-0.0429188 0.0135204 0.0334855 -0.0431379 0.0208085 0.0341304 -0.0114472 0.026715 0.0339589 
0.00802514 -0.031483 0.0355589 -0.0204621 -0.0172006 0.0346764 0.0198229 -0.0156851 0.0354804 
0.0249316 -0.014475 0.0345755 -0.0196799 -0.00931279 0.0351588 -0.0135858 -0.00672635 0.0353652 
-0.00723413 0.00605583 0.0353555 -0.0349287 0.0230684 0.0350713 0.0248068 -0.0428986 0.0369744 
0.0418836 -0.0421436 0.0366218 0.0238162 -0.0409762 0.0366825 0.000822496 -0.0363122 0.0358528 
-0.0240024 -0.0280603 0.0359345 0.0306875 -0.0259396 0.0369183 0.0362421 0.00170773 0.0364393 
0.0404406 0.00462082 0.0365558 0.0336082 0.013194 0.0357974 0.0388885 0.0193682 0.0364381 
0.0238959 0.0383247 0.0368432 -0.0375088 0.0393741 0.0357894 -0.0346971 -0.0446764 0.0371298 
-0.0248654 -0.0427111 0.038093 -0.018434 -0.0405477 0.0379624 0.0397687 -0.0374633 0.0379914 
0.03382 -0.0268981 0.0378121 0.00538025 -0.0241403 0.0374115 0.0131353 -0.00504642 0.0382836 
-0.0416237 0.00110806 0.0372544 0.0197977 0.00963841 0.0370404 0.0261916 0.0119357 0.0378704 
-0.00307286 0.0144526 0.0382027 0.00976298 0.0163696 0.0372615 0.0122157 0.0191756 0.0378243 
-0.023041 0.0197144 0.0382875 0.0424299 -0.0409921 0.0388104 -0.0108246 -0.0388127 0.0383654 
0.0102479 -0.024092 0.0389478 -0.0225401 -0.0213878 0.0388631 -0.00827992 -0.020547 0.039448 
-0.0296942 -0.0196153 0.0392455 -0.00747582 -0.00609419 0.0384269 0.00523139 -0.00599236 0.0395055 
0.0128044 0.0127337 0.0386099 -0.0421793 0.0225172 0.0391583 -0.0190887 0.0269029 0.0395437 
-0.0376379 0.0294143 0.0395225 0.0311732 0.0371467 0.0384736 -0.00973825 0.0391656 0.0390345 
0.0145521 -0.0432303 0.0407867 0.0403752 -0.0143085 0.039961 0.0407777 0.000744206 0.0404323 
0.0283387 0.00890506 0.0400927 0.00861143 0.0123591 0.040893 0.0121458 0.0151918 0.0406886 
0.00372347 0.0304157 0.0396298 -0.0245447 0.0378537 0.0401912 0.0222253 0.0407186 0.0398709 
-0.0181988 0.0434549 0.0398482 0.0348044 -0.042095 0.0417663 -0.0376897 -0.0314333 0.0422139 
0.0394323 -0.021923 0.0421689 0.00548761 -0.0197918 0.0413119 0.0313953 -0.00974065 0.0411223 
0.0406218 -0.0100941 0.0412745 0.0290986 -0.000251763 0.040926 0.0250346 0.00641518 0.0418126 
-0.00867948 0.0139924 0.0419474 -0.0196462 0.0155185 0.0411594 0.00519606 0.0301696 0.0420457 
0.00390562 0.0317225 0.0418602 0.00317215 0.0343196 0.0415753 0.0352379 0.0438995 0.0410635 
-0.0168273 -0.0360331 0.0424886 -0.0263426 -0.0292431 0.0427581 0.0233461 -0.0214624 0.0428642 
0.0323225 0.00436429 0.0422604 0.0362273 0.0220011 0.043447 -0.0127911 0.0299546 0.0423739 
-0.0108954 0.0304 0.0433012 0.0231674 0.0340949 0.0433719 -0.0430551 -0.0267583 0.0437972 
-0.0186412 -0.0134353 0.0438066 0.0161928 -0.00760918 0.0435227 -0.0120059 -0.00345367 0.0445906 
-0.00896956 -0.00131708 0.0444012 0.0441199 0.0136981 0.0448054 0.000954082 0.0152563 0.044133 
0.0405446 0.0433429 0.0444316 0.0181024 -0.0433049 0.0452 0.0131812 -0.0427533 0.0454083 
0.0449741 -0.0303513 0.0460996 -0.0327621 -0.0121928 0.0454924 0.0387156 -0.00624884 0.0457233 
0.00975646 -0.00313231 0.0453888 0.0116524 0.00206193 0.0450697 0.0311878 0.014057 0.0459567 
0.00126512 0.0228658 0.0459785 0.026696 0.03017 0.0460869 0.0193546 0.0324404 0.0455593 
-0.00585061 0.0388609 0.045592 0.0352701 0.0439749 0.0454379 0.00985621 -0.0367022 0.046196 
0.00558373 -0.0242787 0.0472748 -0.0127621 -0.0231756 0.047359 0.038292 -0.016257 0.047105 
0.0323803 -0.0150629 0.0467717 -0.00254943 -0.00825679 0.0472716 -0.0325416 0.00283857 0.047121 
0.00243665 0.00282786 0.0471226 -0.00841171 0.0143034 0.046881 0.0407412 0.0174253 0.0465361 
-0.0122989 0.0222019 0.0468571 0.0438582 0.0244724 0.0470428 0.0166138 -0.0412108 0.0481964 
-0.0233761 -0.031813 0.0479667 -0.0220587 -0.0306349 0.047706 -0.0414327 -0.0290659 0.0477195 
0.0346338 -0.0290927 0.0482824 0.0240101 -0.0228809 0.0484403 0.035159 -0.023363 0.0476431 
-0.0344646 -0.00725539 0.0475954 0.0180458 -0.00470109 0.0476656 -0.0107529 -0.00365687 0.0477901 
-0.00941413 -0.00330341 0.0482497 -0.0281455 -0.00127675 0.0487239 -0.0283489 -0.000417126 0.0480924 
-0.025141 0.00447188 0.0477294 0.0396593 0.013993 0.048191 0.0398418 0.0217469 0.0483439 
0.021223 0.0244832 0.047484 0.0395905 0.0272142 0.047576 0.0372507 0.0318783 0.0481104 
-0.00196307 0.0366495 0.047782 -0.0309963 -0.0355024 0.0491854 -0.00863888 -0.0237376 0.0498885 
-0.0147645 -0.0165889 0.0488065 0.0334462 -0.00930086 0.04884 0.0140084 -6.89735e-05 0.0490255 
-0.009285 0.00693532 0.0498544 -0.0105861 0.00898083 0.0490273 0.0211953 0.00966092 0.0492699 
-0.0148746 0.0223253 0.0492947 -0.0267196 0.0236159 0.0499105 -0.0337286 0.0337045 0.0499049 
0.0294278 0.0431452 0.0490928 0.00528787 0.0432844 0.0492076 -0.00396528 -0.0444182 0.0504796 
0.0195053 -0.043722 0.051323 -0.0386911 -0.0311434 0.0503099 -0.00401126 -0.00720159 0.0504074 
0.0404774 -0.00688032 0.0501857 -0.0408474 -0.00214648 0.0512924 0.0168839 -0.00210364 0.0513199 
-0.0365733 0.0119208 0.050494 0.00243185 0.0120975 0.0506919 0.018015 0.0183735 0.0505478 
0.0191028 0.0315895 0.0511538 0.00727395 0.0332762 0.0511209 -0.00883869 0.0381834 0.0508863 
0.00201585 0.0404036 0.050621 -0.0136468 -0.0412372 0.052594 -0.0161578 -0.0337243 0.0526115 
0.0155599 -0.0240909 0.0516598 -0.0210835 -0.0209207 0.0522487 -0.0033641 -0.0204173 0.0523939 
0.0200271 -0.00425623 0.0521571 -0.0376932 -0.000132947 0.0522271 -0.0153419 -0.00108619 0.0514838 
0.0260144 0.00429017 0.0517949 -0.00598638 0.00689803 0.0520113 -0.0425374 0.0333781 0.0524389 
0.00888594 0.0360502 0.0525229 0.0281745 0.039089 0.05173 0.0350196 -0.0250011 0.0532854 
0.00179778 -0.0247441 0.052843 0.0144468 -0.013247 0.0538863 -0.00528066 -0.0121118 0.0533426 
0.0242571 -0.0100823 0.0528153 -0.0198668 -0.00211416 0.0533877 0.0183943 0.00266245 0.05368 
-0.0429246 0.00657681 0.0528463 0.00533928 0.00728904 0.0531396 -0.0128609 0.0265935 0.052915 
0.0278529 0.0342296 0.0535824 0.0030545 0.0369981 0.0535969 -0.0133259 0.0414802 0.0534611 
-0.0177803 -0.0340186 0.0546538 0.0153133 -0.0285941 0.0545167 0.0164647 -0.0275391 0.0549317 
0.0347572 -0.0260666 0.0544018 0.00664535 -0.00164817 0.0546918 0.032558 0.00153523 0.0546389 
-0.0261639 0.00337815 0.0551226 -0.0231109 0.0157017 0.0545243 0.00742845 0.0199749 0.0543864 
-0.0324762 0.0230005 0.0551836 0.00264144 0.0247174 0.0541363 0.0416479 -0.0439733 0.0558619 
0.0406519 -0.0427256 0.0561097 0.000425919 -0.0415728 0.056009 0.0077947 -0.0345433 0.0557158 
0.0346336 -0.0325969 0.0567026 0.0204492 -0.0194639 0.0554988 -0.0341597 -0.0122829 0.0556052 
-0.0253129 -0.0039775 0.0552452 -0.0233311 0.00384073 0.0559907 0.0332757 0.00539899 0.0557202 
-0.0287332 0.0215601 0.0559018 -0.0295899 0.0232577 0.0562523 0.00231692 -0.0294453 0.0569491 
-0.0346801 -0.0287009 0.057649 -0.0350278 -0.0224863 0.0569266 0.0115492 -0.0227248 0.0578099 
-0.0279963 -0.0141356 0.0572151 -0.0211095 -0.00770044 0.0576904 -0.040885 -0.00406647 0.0573391 
-0.019893 0.00878872 0.0565594 0.00474506 0.0103043 0.0578053 -0.00071691 0.0108932 0.0566405 
0.0258603 0.0235991 0.0567391 0.0397191 0.0283771 0.0573167 0.0380057 0.0324307 0.0572878 
0.00367032 0.0371324 0.0578235 -0.0390775 0.0447256 0.0568213 -0.0273176 -0.0361067 0.0582211 
0.027474 -0.0338615 0.0581696 0.0252581 -0.0163235 0.0580759 0.0132043 -0.01541 0.0578975 
0.0253763 -0.011051 0.0588445 0.0352883 -0.0103067 0.0583169 -0.0150798 -0.00698339 0.0583496 
0.0448793 -0.00396119 0.0580803 0.0189244 0.00254502 0.0579981 0.0358407 0.00533501 0.0588965 
-0.0408306 0.00999374 0.0584162 0.0234497 0.00978487 0.0579995 0.027557 0.009967 0.0587584 
-0.0394276 0.0109375 0.0587989 -0.00808524 0.0113378 0.0581225 -0.0350204 0.0121089 0.0582473 
-0.0408838 0.0159645 0.0586988 -0.0122189 0.0175978 0.0588066 0.00546842 0.0177814 0.0590524 
0.0337272 0.0324898 0.0588384 -0.00647711 0.0391566 0.0583119 0.0114086 0.0440135 0.0587388 
0.0171919 0.0449185 0.0584211 -0.0349861 -0.0412827 0.0600164 0.00849583 -0.0405939 0.0603124 
-0.0195638 -0.0385913 0.0595554 0.0325128 -0.03812 0.05957 0.0195647 -0.0366528 0.0592529 
-0.0164034 -0.0216001 0.06033 -0.0328213 -0.0176588 0.0603628 -0.0137512 0.00384646 0.0601197 
-0.0442311 0.00821601 0.0595127 0.00834461 0.0278725 0.0603468 0.0434247 0.0295768 0.0596826 
0.0211706 0.0445491 0.0599273 -0.0389435 -0.0425966 0.0614972 -0.0408642 -0.0154151 0.0607564 
-0.015814 -0.0152491 0.0604741 0.0375745 -0.0151367 0.0606325 0.0129906 -0.00677597 0.0612709 
-0.0131355 0.00164571 0.0614802 -0.0406381 0.00555966 0.0615352 0.0324887 0.00836074 0.0611625 
0.00757299 0.0192258 0.0605185 0.0350116 0.0207306 0.0614026 0.0040127 0.0314243 0.0604733 
-0.0406141 -0.0405112 0.0621762 -0.0169239 -0.0402939 0.0624582 0.043014 -0.0343178 0.062837 
-0.00586029 -0.0338127 0.0624032 -0.0323128 -0.0219837 0.0629535 -0.0207996 -0.0190456 0.0619127 
-0.0227164 -0.0141288 0.0621404 0.00886689 -0.0141191 0.0618882 -0.0253401 -0.0103599 0.0621777 
0.0420414 -0.00101026 0.0621957 -0.0403489 0.00598291 0.0620871 0.0101693 0.00555192 0.0630075 
0.00789931 0.0136568 0.0619402 0.012949 0.0143048 0.0618705 -0.0436572 0.0238848 0.0625637 
-0.0407273 0.0358476 0.0624608 0.0170579 0.0421878 0.0618251 -0.00161929 -0.0353994 0.0637978 
0.0355384 -0.0354155 0.0632115 -0.0210092 -0.0320472 0.0631349 0.023019 -0.0293484 0.0633528 
0.0210005 -0.0239559 0.0635101 0.0272875 -0.0186725 0.063337 0.0322358 -0.0130621 0.064136 
-0.000610522 -0.00103491 0.0643463 -0.027449 0.00511055 0.0638581 -0.01547 0.00642247 0.0634457 
0.0110904 0.00657535 0.0632818 -0.0287818 0.014969 0.0641579 -0.00443291 0.0160613 0.0630344 
-0.0363159 0.0185996 0.0641873 -0.0214233 0.0285543 0.0635192 -0.00750544 0.0361316 0.0641645 
-0.0317519 -0.0446953 0.0655652 -0.0289295 -0.0389067 0.0648053 -0.0179089 -0.0346335 0.065097 
-8.23525e-05 -0.034098 0.0653286 0.0403097 -0.0347888 0.0645936 -0.0401314 -0.0280847 0.0653321 
0.0134129 -0.0192809 0.0653047 0.0184681 -0.0172117 0.0656216 -0.00710141 -0.0133745 0.065438 
0.00978397 0.00922321 0.0648829 0.0440772 0.0154938 0.0649564 -0.0286532 0.0159811 0.0649534 
0.0256029 0.0175394 0.0652867 -0.00472634 0.0344449 0.0655334 -0.039126 0.0399637 0.0651024 
-0.00682403 -0.0314098 0.0657143 0.0156293 -0.0283842 0.0667627 0.0296492 -0.015918 0.0660091 
0.0414517 -0.0114994 0.0668367 0.0275881 -0.00673863 0.0667339 -0.0332593 0.000859011 0.0667803 
-0.0161548 0.0159009 0.0665188 -0.00317984 0.0164631 0.0656915 -0.0132251 0.0252506 0.0661043 
-0.0406313 0.0295913 0.0668553 -0.0260391 0.0304395 0.0668033 -0.0359241 0.0337864 0.0668528 
0.0338942 -0.0410147 0.067374 0.010226 -0.0308634 0.068017 0.0392765 -0.0300093 0.0677724 
0.0109547 -0.0235646 0.0680968 0.0347312 -0.012978 0.067279 0.0218314 -0.00971151 0.0676115 
0.0293019 -0.00298432 0.0677893 0.00127443 -0.000618905 0.0672314 0.00418285 0.0112423 0.0680767 
-0.00831541 0.0129665 0.0670632 -0.0138035 0.0240512 0.0673397 0.0132394 0.0345575 0.0673486 
-0.0190394 0.0446837 0.0678458 0.0201641 -0.0426709 0.06852 -0.0234086 -0.038644 0.0688567 
0.0433459 -0.0353282 0.0686087 -0.0291427 -0.0219343 0.0687008 -0.0313057 -0.0141988 0.0691275 
-0.042331 -0.00792816 0.0695165 -0.0101373 -0.00698039 0.0688765 -0.0436896 0.0195853 0.0682623 
-0.0152062 0.0294088 0.0693449 0.0147823 -0.0446949 0.0707443 -0.0225361 -0.0441701 0.0700382 
0.0307351 -0.0355434 0.0696528 -0.0177429 -0.0346724 0.0699179 0.00264867 -0.0338128 0.0707199 
0.0101031 -0.0273014 0.0705859 -0.038621 -0.0229432 0.0705576 -0.0405162 -0.0161033 0.0704204 
-0.0343844 -0.0078404 0.0705139 0.0127657 -0.00746761 0.069814 -0.00720807 -0.00608605 0.0696855 
0.0386193 -0.00496685 0.0699442 -0.0395569 -0.00227866 0.070181 -0.00552594 0.00555795 0.0700094 
-0.0349081 0.00917553 0.0705567 -0.0219587 0.0304934 0.069936 -0.0379532 0.0399341 0.0701842 
-0.00785852 0.041878 0.0703606 0.0430506 0.0422314 0.0706709 -0.00338111 -0.0363358 0.0711484 
-0.0160452 -0.0323821 0.0711402 -0.0396817 -0.0304797 0.0718488 -0.0432264 -0.0264101 0.0717868 
0.0054016 -0.025334 0.0715463 -0.0136128 -0.00979682 0.0717385 -0.0193355 0.018129 0.071584 
-0.014478 0.0275162 0.0714635 0.0214431 0.0335886 0.071468 -0.0139777 -0.0223984 0.0732605 
0.0282033 -0.0178095 0.0725135 0.0277548 0.0042931 0.0736017 -0.032208 0.0306075 0.0735446 
0.0354139 0.0312817 0.072839 -0.00229178 0.0020129 0.0740615 0.0218308 -0.0192565 0.0759179 
0.0262592 -0.0217201 0.076676 0.00976854 0.0197772 0.0770519 -0.00446216 -0.0255279 0.0776989 
-0.0393221 -0.0167834 0.0787354 0.0342493 -0.0115037 0.077712 -0.0422696 0.0340949 0.0777828 
-0.0183202 -0.0175475 0.0795342 -0.0326334 -0.00963456 0.0792875 0.00153271 0.0201988 0.0794654 
-0.0368667 0.0306348 0.0792412 0.0323804 -0.0132471 0.0812822 -0.00474481 -0.00600267 0.0803923 
0.00314898 0.00491531 0.0810869 0.0153641 0.0146287 0.0814757 -0.0269229 0.0267788 0.0808348 
0.0152528 0.033152 0.0806932 -0.0160353 0.0448572 0.0809825 0.0412685 -0.0295104 0.0820965 
0.0223025 -0.0112244 0.0820771 0.023953 0.00820576 0.0813399 0.0114764 0.0140289 0.0822064 
0.012585 0.0155082 0.0826655 0.0133448 0.00646544 0.0833196 0.0262096 -0.0449372 0.084771 
0.0339316 -0.041715 0.0850029 -0.0207563 -0.0111167 0.0849219 0.00265626 0.00371614 0.0852393 
-0.0213481 0.0319153 0.0850768 0.00513794 0.0433856 0.0866133 -0.0449336 -0.00957357 0.0890123 
0.0185094 -0.042363 0.0899409 0.0323341 0.0191974 0.0903036 -0.0440308 0.0448256 0.0900398 
-0.0329608 -0.0218045 0.0914709 -0.0371624 0.011326 0.0907331 -0.0102477 0.0267602 0.0910385 
0.0164577 0.0353116 0.091836 0.0341086 -0.0368686 0.0923307 0.0414834 -0.0181367 0.0929764 
-0.024842 -0.00884532 0.0931342 0.0379188 0.0120326 0.0927127 -0.0336946 -0.0248459 0.0935863 
0.0439232 0.0371117 0.0939361 0.0289145 -0.0340196 0.0949495 -0.015788 -0.0282898 0.0947165 
-0.0420316 -0.0145538 0.0949631 0.0302919 -0.0148257 0.0953297 -0.0328109 -0.0226975 0.0960768 
-0.0281804 0.0418824 0.0963724 0.0320014 0.00756294 0.0978025 -0.0144089 0.0201081 0.0974057 
0.0154702 -0.00154679 0.0984948 0.0104707 0.0313218 0.100627 -0.0437633 0.0406561 0.101163 
-0.0419519 -0.0259749 0.102647 0.0414788 -0.00521487 0.103336 0.00635633 0.000852437 0.103569 
-0.0385899 -0.0405251 0.103888 -0.0386256 -0.00983966 0.104188 0.00357123 -0.00830953 0.103836 
-0.0197415 0.0344175 0.105277 0.00308146 0.0401468 0.105578 -0.00521279 -0.0413279 0.107274 
-0.0296003 0.0277025 0.107088 -0.0356048 -0.000104637 0.108981 0.0131273 0.040817 0.109253 
0.0433204 -0.0141837 0.110731 -0.0081225 0.0151775 0.110264 -0.0256005 0.0215871 0.11039 
-0.0170112 0.0231088 0.111168 -0.0155539 0.0359545 0.110613 0.0282359 -0.00877456 0.112738 
-0.0245993 0.0193658 0.111902 0.0419483 -0.0348097 0.11323 -0.00757157 0.00454821 0.11391 
0.0188903 -0.0308528 0.117635 0.00741479 -0.0295782 0.120009 -0.0207679 -0.0256315 0.119561 
0.00643655 -0.000956063 0.119445 0.00347554 0.00338662 0.119634 -0.00254916 -0.00379952 0.121851 

VERTICES 649 648
OFFSETS vtktypeint64
0 1 2 3 4 5 6 7 8 
9 10 11 12 13 14 15 16 17 
18 19 20 21 22 23 24 25 26 
27 28 29 30 31 32 33 34 35 
36 37 38 39 40 41 42 43 44 
45 46 47 48 49 50 51 52 53 
54 55 56 57 58 59 60 61 62 
63 64 65 66 67 68 69 70 71 
72 73 74 75 76 77 78 79 80 
81 82 83 84 85 86 87 88 89 
90 91 92 93 94 95 96 97 98 
99 100 101 102 103 104 105 106 107 
108 109 110 111 112 113 114 115 116 
117 118 119 120 121 122 123 124 125 
126 127 128 129 130 131 132 133 134 
135 136 137 138 139 140 141 142 143 
144 145 146 147 148 149 150 151 152 
153 154 155 156 157 158 159 160 161 
162 163 164 165 166 167 168 169 170 
171 172 173 174 175 176 177 178 179 
180 181 182 183 184 185 186 187 188 
189 190 191 192 193 194 195 196 197 
198 199 200 201 202 203 204 205 206 
207 208 209 210 211 212 213 214 215 
216 217 218 219 220 221 222 223 224 
225 226 227 228 229 230 231 232 233 
234 235 236 237 238 239 240 241 242 
243 244 245 246 247 248 249 250 251 
252 253 254 255 256 257 258 259 260 
261 262 263 264 265 266 267 268 269 
270 271 272 273 274 275 276 277 278 
279 280 281 282 283 284 285 286 287 
288 289 290 291 292 293 294 295 296 
297 298 299 300 301 302 303 304 305 
306 307 308 309 310 311 312 313 314 
315 316 317 318 319 320 321 322 323 
324 325 326 327 328 329 330 331 332 
333 334 335 336 337 338 339 340 341 
342 343 344 345 346 347 348 349 350 
351 352 353 354 355 356 357 358 359 
360 361 362 363 364 365 366 367 368 
369 370 371 372 373 374 375 376 377 
378 379 380 381 382 383 384 385 386 
387 388 389 390 391 392 393 394 395 
396 397 398 399 400 401 402 403 404 
405 406 407 408 409 410 411 412 413 
414 415 416 417 418 419 420 421 422 
423 424 425 426 427 428 429 430 431 
432 433 434 435 436 437 438 439 440 
441 442 443 444 445 446 447 448 449 
450 451 452 453 454 455 456 457 458 
459 460 461 462 463 464 465 466 467 
468 469 470 471 472 473 474 475 476 
477 478 479 480 481 482 483 484 485 
486 487 488 489 490 491 492 493 494 
495 496 497 498 499 500 501 502 503 
504 505 506 507 508 509 510 511 512 
513 514 515 516 517 518 519 520 521 
522 523 524 525 526 527 528 529 530 
531 532 533 534 535 536 537 538 539 
540 541 542 543 544 545 546 547 548 
549 550 551 552 553 554 555 556 557 
558 559 560 561 562 563 564 565 566 
567 568 569 570 571 572 573 574 575 
576 577 578 579 580 581 582 583 584 
585 586 587 588 589 590 591 592 593 
594 595 596 597 598 599 600 601 602 
603 604 605 606 607 608 609 610 611 
612 613 614 615 616 617 618 619 620 
621 622 623 624 625 626 627 628 629 
630 631 632 633 634 635 636 637 638 
639 640 641 642 643 644 645 646 647 
648 
CONNECTIVITY vtktypeint64
0 1 2 3 4 5 6 7 8 
9 10 11 12 13 14 15 16 17 
18 19 20 21 22 23 24 25 26 
27 28 29 30 31 32 33 34 35 
36 37 38 39 40 41 42 43 44 
45 46 47 48 49 50 51 52 53 
54 55 56 57 58 59 60 61 62 
63 64 65 66 67 68 69 70 71 
72 73 74 75 76 77 78 79 80 
81 82 83 84 85 86 87 88 89 
90 91 92 93 94 95 96 97 98 
99 100 101 102 103 104 105 106 107 
108 109 110 111 112 113 114 115 116 
117 118 119 120 121 122 123 124 125 
126 127 128 129 130 131 132 133 134 
135 136 137 138 139 140 141 142 143 
144 145 146 147 148 149 150 151 152 
153 154 155 156 157 158 159 160 161 
162 163 164 165 166 167 168 169 170 
171 172 173 174 175 176 177 178 179 
180 181 182 183 184 185 186 187 188 
189 190 191 192 193 194 195 196 197 
198 199 200 201 202 203 204 205 206 
207 208 209 210 211 212 213 214 215 
216 217 218 219 220 221 222 223 224 
225 226 227 228 229 230 231 232 233 
234 235 236 237 238 239 240 241 242 
243 244 245 246 247 248 249 250 251 
252 253 254 255 256 257 258 259 260 
261 262 263 264 265 266 267 268 269 
270 271 272 273 274 275 276 277 278 
279 280 281 282 283 284 285 286 287 
288 289 290 291 292 293 294 295 296 
297 298 299 300 301 302 303 304 305 
306 307 308 309 310 311 312 313 314 
315 316 317 318 319 320 321 322 323 
324 325 326 327 328 329 330 331 332 
333 334 335 336 337 338 339 340 341 
342 343 344 345 346 347 348 349 350 
351 352 353 354 355 356 357 358 359 
360 361 362 363 364 365 366 367 368 
369 370 371 372 373 374 375 376 377 
378 379 380 381 382 383 384 385 386 
387 388 389 390 391 392 393 394 395 
396 397 398 399 400 401 402 403 404 
405 406 407 408 409 410 411 412 413 
414 415 416 417 418 419 420 421 422 
423 424 425 426 427 428 429 430 431 
432 433 434 435 436 437 438 439 440 
441 442 443 444 445 446 447 448 449 
450 451 452 453 454 455 456 457 458 
459 460 461 462 463 464 465 466 467 
468 469 470 471 472 473 474 475 476 
477 478 479 480 481 482 483 484 485 
486 487 488 489 490 491 492 493 494 
495 496 497 498 499 500 501 502 503 
504 505 506 507 508 509 510 511 512 
513 514 515 516 517 518 519 520 521 
522 523 524 525 526 527 528 529 530 
531 532 533 534 535 536 537 538 539 
540 541 542 543 544 545 546 547 548 
549 550 551 552 553 554 555 556 557 
558 559 560 561 562 563 564 565 566 
567 568 569 570 571 572 573 574 575 
576 577 578 579 580 581 582 583 584 
585 586 587 588 589 590 591 592 593 
594 595 596 597 598 599 600 601 602 
603 604 605 606 607 608 609 610 611 
612 613 614 615 616 617 618 619 620 
621 622 623 624 625 626 627 628 629 
630 631 632 633 634 635 636 637 638 
639 640 641 642 643 644 645 646 647 

POINT_DATA 648
FIELD FieldData 12
id 1 648 int
200 231 428 6 57 134 107 127 383 
396 197 169 26 270 362 164 115 356 
291 176 465 86 423 149 195 372 88 
381 336 370 11 385 18 219 12 185 
247 215 72 353 450 214 150 491 366 
459 190 237 106 293 125 418 165 373 
189 187 253 87 92 304 58 193 433 
364 14 457 83 322 339 166 9 280 
158 29 246 367 331 282 154 440 289 
483 186 458 407 49 386 256 470 73 
8 10 175 310 488 13 496 444 66 
36 297 233 435 317 292 132 100 408 
207 404 355 467 432 162 321 327 85 
155 508 22 347 5 137 167 500 427 
456 454 417 410 506 412 406 463 411 
290 349 263 478 60 40 337 91 326 
229 51 267 439 16 399 424 112 4 
21 110 163 199 222 188 314 319 303 
409 324 2 90 261 54 104 318 351 
98 415 238 227 495 288 384 357 30 
505 298 168 240 248 32 486 330 390 
218 429 24 96 121 61 141 236 161 
328 76 275 113 35 122 183 484 515 
75 255 446 202 15 447 521 271 34 
223 64 174 479 243 377 378 287 498 
451 198 320 84 211 196 129 401 308 
201 437 62 375 140 477 111 28 157 
311 341 474 119 178 81 148 313 475 
226 295 472 216 529 504 343 251 128 
59 278 257 151 63 469 272 346 414 
352 146 299 20 208 395 394 268 65 
45 397 102 79 416 170 74 260 334 
244 17 392 431 206 52 239 250 393 
294 323 329 53 252 171 142 542 205 
56 363 279 78 461 94 232 487 493 
462 38 265 425 144 420 325 109 348 
108 342 89 93 333 42 368 360 371 
345 273 117 481 225 559 123 68 156 
71 403 25 105 204 217 379 213 455 
286 536 335 116 460 43 1 405 305 
301 426 266 421 182 361 350 147 445 
430 135 538 519 70 281 130 520 31 
471 591 489 543 448 380 285 212 126 
138 254 139 354 526 449 276 511 567 
124 338 221 507 179 466 482 476 82 
589 553 376 340 3 522 50 77 153 
453 296 480 601 442 181 315 7 587 
180 413 302 55 562 136 210 359 436 
160 274 300 316 509 114 438 258 143 
374 194 580 499 503 145 443 33 332 
549 99 47 571 576 177 612 441 23 
80 501 546 46 41 191 309 434 159 
344 307 103 234 516 566 564 284 245 
528 48 220 485 209 452 242 312 402 
388 69 502 44 551 490 497 358 228 
118 387 523 398 120 422 638 615 389 
468 473 131 524 269 494 577 283 533 
192 259 101 592 365 464 262 97 391 
172 203 173 605 547 306 95 39 152 
540 241 230 492 518 616 645 37 572 
563 27 224 133 382 545 400 419 249 
277 19 67 570 525 527 532 264 184 
369 235 513 517 613 596 623 565 558 
573 514 604 618 628 550 539 617 561 
594 530 557 593 622 637 579 614 548 
599 510 633 560 512 534 597 585 598 
583 586 554 635 607 639 578 595 535 
552 626 603 569 620 581 531 634 629 
590 537 541 555 556 625 610 611 575 
574 647 630 648 544 608 600 643 632 
609 568 606 644 619 646 588 624 602 
582 584 631 636 640 627 621 641 642 

type 1 648 int
1 1 1 2 1 1 1 1 1 
1 1 1 1 1 1 1 1 1 
1 1 1 1 1 1 1 1 1 
1 1 1 2 1 1 1 2 1 
1 1 1 1 1 1 1 1 1 
1 1 1 1 1 1 1 1 1 
1 1 1 1 1 1 1 1 1 
1 2 1 1 1 1 1 2 1 
1 1 1 1 1 1 1 1 1 
1 1 1 1 1 1 1 1 1 
2 2 1 1 1 2 1 1 1 
1 1 1 1 1 1 1 1 1 
1 1 1 1 1 1 1 1 1 
1 1 1 1 2 1 1 1 1 
1 1 1 1 1 1 1 1 1 
1 1 1 1 1 1 1 1 1 
1 1 1 1 2 1 1 1 2 
1 1 1 1 1 1 1 1 1 
1 1 3 1 1 1 1 1 1 
1 1 1 1 1 1 1 1 1 
1 1 1 1 1 1 1 1 1 
1 1 1 1 1 1 1 1 1 
1 1 1 1 1 1 1 1 1 
1 1 1 1 2 1 1 1 1 
1 1 1 1 1 1 1 1 1 
1 1 1 1 1 1 1 1 1 
1 1 1 1 1 1 1 1 1 
1 1 1 1 1 1 1 1 1 
1 1 1 1 1 1 1 1 1 
1 1 1 1 1 1 1 1 1 
1 1 1 1 1 1 1 1 1 
1 1 1 1 1 1 1 1 1 
1 1 1 1 1 1 1 1 1 
1 1 1 1 1 1 1 1 1 
1 1 1 1 1 1 1 1 1 
1 1 1 1 1 1 1 1 1 
1 1 1 1 1 1 1 1 1 
1 1 1 1 1 1 1 1 1 
1 1 1 1 1 1 1 1 1 
1 1 1 1 1 1 4 1 1 
1 1 1 1 1 1 1 1 1 
1 1 1 1 1 1 1 1 1 
1 1 1 1 1 1 1 1 1 
1 1 1 1 1 1 1 1 1 
1 1 1 1 1 1 1 1 1 
1 1 1 1 2 1 1 1 1 
1 1 1 1 1 1 1 2 1 
1 1 1 1 1 1 1 1 1 
1 1 1 1 1 1 1 1 1 
1 1 1 1 1 1 1 1 1 
1 1 1 1 1 1 1 1 1 
1 1 1 1 1 1 1 1 1 
1 1 1 1 2 1 1 1 1 
1 1 1 1 1 1 1 1 1 
1 1 1 1 1 1 1 1 1 
1 1 1 1 1 1 1 1 1 
1 1 1 1 1 1 1 1 1 
1 1 1 1 1 1 1 1 1 
1 1 1 1 1 1 1 1 1 
1 1 1 1 1 1 1 1 1 
1 1 1 1 1 1 1 1 1 
1 1 1 1 1 1 1 1 1 
1 1 1 1 1 1 1 1 1 
1 1 1 1 1 1 1 1 1 
1 1 1 1 1 1 1 1 1 
1 1 1 1 2 1 1 1 1 
1 1 1 1 1 1 1 1 1 
1 1 1 1 1 1 1 2 1 
1 1 1 1 1 1 1 1 1 
1 1 1 1 1 1 1 1 1 
1 1 1 1 1 1 1 1 1 
1 1 1 1 1 1 1 1 1 

i 3 648 int
0 0 0 0 0 0 0 0 0 
0 0 0 0 0 0 0 0 0 
0 0 0 0 0 0 0 0 0 
0 0 0 0 0 0 0 0 0 
0 0 0 0 0 0 0 0 0 
0 0 0 0 0 0 0 0 0 
0 0 0 0 0 0 0 0 0 
0 0 0 0 0 0 0 0 0 
0 0 0 0 0 0 0 0 0 
0 0 0 0 0 0 0 0 0 
0 0 0 0 0 0 0 0 0 
0 0 0 0 0 0 0 0 0 
0 0 0 0 0 0 0 0 0 
0 0 0 0 0 0 0 0 0 
0 0 0 0 0 0 0 0 0 
0 0 0 0 0 0 0 0 0 
0 0 0 0 0 0 0 0 0 
0 0 0 0 0 0 0 0 0 
0 0 0 0 0 0 0 0 0 
0 0 0 0 0 0 0 0 0 
0 0 0 0 0 0 0 0 0 
0 0 0 0 0 0 0 0 0 
0 0 0 0 0 0 0 0 0 
0 0 0 0 0 0 0 0 0 
0 0 0 0 0 0 0 0 0 
0 0 0 0 0 0 0 0 0 
0 0 0 0 0 0 0 0 0 
0 0 0 0 0 0 0 0 0 
0 0 0 0 0 0 0 0 0 
0 0 0 0 0 0 0 0 0 
0 0 0 0 0 0 0 0 0 
0 0 0 0 0 0 0 0 0 
0 0 0 0 0 0 0 0 0 
0 0 0 0 0 0 0 0 0 
0 0 0 0 0 0 0 0 0 
0 0 0 0 0 0 0 0 0 
0 0 0 0 0 0 0 0 0 
0 0 0 0 0 0 0 0 0 
0 0 0 0 0 0 0 0 0 
0 0 0 0 0 0 0 0 0 
0 0 0 0 0 0 0 0 0 
0 0 0 0 0 0 0 0 0 
0 0 0 0 0 0 0 0 0 
0 0 0 0 0 0 0 0 0 
0 0 0 0 0 0 0 0 0 
0 0 0 0 0 0 0 0 0 
0 0 0 0 0 0 0 0 0 
0 0 0 0 0 0 0 0 0 
0 0 0 0 0 0 0 0 0 
0 0 0 0 0 0 0 0 0 
0 0 0 0 0 0 0 0 0 
0 0 0 0 0 0 0 0 0 
0 0 0 0 0 0 0 0 0 
0 0 0 0 0 0 0 0 0 
0 0 0 0 0 0 0 0 0 
0 0 0 0 0 0 0 0 0 
0 0 0 0 0 0 0 0 0 
0 0 0 0 0 0 0 0 0 
0 0 0 0 0 0 0 0 0 
0 0 0 0 0 0 0 0 0 
0 0 0 0 0 0 0 0 0 
0 0 0 0 0 0 0 0 0 
0 0 0 0 0 0 0 0 0 
0 0 0 0 0 0 0 0 0 
0 0 0 0 0 0 0 0 0 
0 0 0 0 0 0 0 0 0 
0 0 0 0 0 0 0 0 0 
0 0 0 0 0 0 0 0 0 
0 0 0 0 0 0 0 0 0 
0 0 0 0 0 0 0 0 0 
0 0 0 0 0 0 0 0 0 
0 0 0 0 0 0 0 0 0 
0 0 0 0 0 0 0 0 0 
0 0 0 0 0 0 0 0 0 
0 0 0 0 0 0 0 0 0 
0 0 0 0 0 0 0 0 0 
0 0 0 0 0 0 0 0 0 
0 0 0 0 0 0 0 0 0 
0 0 0 0 0 0 0 0 0 
0 0 0 0 0 0 0 0 0 
0 0 0 0 0 0 0 0 0 
0 0 0 0 0 0 0 0 0 
0 0 0 0 0 0 0 0 0 
0 0 0 0 0 0 0 0 0 
0 0 0 0 0 0 0 0 0 
0 0 0 0 0 0 0 0 0 
0 0 0 0 0 0 0 0 0 
0 0 0 0 0 0 0 0 0 
0 0 0 0 0 0 0 0 0 
0 0 0 0 0 0 0 0 0 
0 0 0 0 0 0 0 0 0 
0 0 0 0 0 0 0 0 0 
0 0 0 0 0 0 0 0 0 
0 0 0 0 0 0 0 0 0 
0 0 0 0 0 0 0 0 0 
0 0 0 0 0 0 0 0 0 
0 0 0 0 0 0 0 0 0 
0 0 0 0 0 0 0 0 0 
0 0 0 0 0 0 0 0 0 
0 0 0 0 0 0 0 0 0 
0 0 0 0 0 0 0 0 0 
0 0 0 0 0 0 0 0 0 
0 0 0 0 0 0 0 0 0 
0 0 0 0 0 0 0 0 0 
0 0 0 0 0 0 0 0 0 
0 0 0 0 0 0 0 0 0 
0 0 0 0 0 0 0 0 0 
0 0 0 0 0 0 0 0 0 
0 0 0 0 0 0 0 0 0 
0 0 0 0 0 0 0 0 0 
0 0 0 0 0 0 0 0 0 
0 0 0 0 0 0 0 0 0 
0 0 0 0 0 0 0 0 0 
0 0 0 0 0 0 0 0 0 
0 0 0 0 0 0 0 0 0 
0 0 0 0 0 0 0 0 0 
0 0 0 0 0 0 0 0 0 
0 0 0 0 0 0 0 0 0 
0 0 0 0 0 0 0 0 0 
0 0 0 0 0 0 0 0 0 
0 0 0 0 0 0 0 0 0 
0 0 0 0 0 0 0 0 0 
0 0 0 0 0 0 0 0 0 
0 0 0 0 0 0 0 0 0 
0 0 0 0 0 0 0 0 0 
0 0 0 0 0 0 0 0 0 
0 0 0 0 0 0 0 0 0 
0 0 0 0 0 0 0 0 0 
0 0 0 0 0 0 0 0 0 
0 0 0 0 0 0 0 0 0 
0 0 0 0 0 0 0 0 0 
0 0 0 0 0 0 0 0 0 
0 0 0 0 0 0 0 0 0 
0 0 0 0 0 0 0 0 0 
0 0 0 0 0 0 0 0 0 
0 0 0 0 0 0 0 0 0 
0 0 0 0 0 0 0 0 0 
0 0 0 0 0 0 0 0 0 
0 0 0 0 0 0 0 0 0 
0 0 0 0 0 0 0 0 0 
0 0 0 0 0 0 0 0 0 
0 0 0 0 0 0 0 0 0 
0 0 0 0 0 0 0 0 0 
0 0 0 0 0 0 0 0 0 
0 0 0 0 0 0 0 0 0 
0 0 0 0 0 0 0 0 0 
0 0 0 0 0 0 0 0 0 
0 0 0 0 0 0 0 0 0 
0 0 0 0 0 0 0 0 0 
0 0 0 0 0 0 0 0 0 
0 0 0 0 0 0 0 0 0 
0 0 0 0 0 0 0 0 0 
0 0 0 0 0 0 0 0 0 
0 0 0 0 0 0 0 0 0 
0 0 0 0 0 0 0 0 0 
0 0 0 0 0 0 0 0 0 
0 0 0 0 0 0 0 0 0 
0 0 0 0 0 0 0 0 0 
0 0 0 0 0 0 0 0 0 
0 0 0 0 0 0 0 0 0 
0 0 0 0 0 0 0 0 0 
0 0 0 0 0 0 0 0 0 
0 0 0 0 0 0 0 0 0 
0 0 0 0 0 0 0 0 0 
0 0 0 0 0 0 0 0 0 
0 0 0 0 0 0 0 0 0 
0 0 0 0 0 0 0 0 0 
0 0 0 0 0 0 0 0 0 
0 0 0 0 0 0 0 0 0 
0 0 0 0 0 0 0 0 0 
0 0 0 0 0 0 0 0 0 
0 0 0 0 0 0 0 0 0 
0 0 0 0 0 0 0 0 0 
0 0 0 0 0 0 0 0 0 
0 0 0 0 0 0 0 0 0 
0 0 0 0 0 0 0 0 0 
0 0 0 0 0 0 0 0 0 
0 0 0 0 0 0 0 0 0 
0 0 0 0 0 0 0 0 0 
0 0 0 0 0 0 0 0 0 
0 0 0 0 0 0 0 0 0 
0 0 0 0 0 0 0 0 0 
0 0 0 0 0 0 0 0 0 
0 0 0 0 0 0 0 0 0 
0 0 0 0 0 0 0 0 0 
0 0 0 0 0 0 0 0 0 
0 0 0 0 0 0 0 0 0 
0 0 0 0 0 0 0 0 0 
0 0 0 0 0 0 0 0 0 
0 0 0 0 0 0 0 0 0 
0 0 0 0 0 0 0 0 0 
0 0 0 0 0 0 0 0 0 
0 0 0 0 0 0 0 0 0 
0 0 0 0 0 0 0 0 0 
0 0 0 0 0 0 0 0 0 
0 0 0 0 0 0 0 0 0 
0 0 0 0 0 0 0 0 0 
0 0 0 0 0 0 0 0 0 
0 0 0 0 0 0 0 0 0 
0 0 0 0 0 0 0 0 0 
0 0 0 0 0 0 0 0 0 
0 0 0 0 0 0 0 0 0 
0 0 0 0 0 0 0 0 0 
0 0 0 0 0 0 0 0 0 
0 0 0 0 0 0 0 0 0 
0 0 0 0 0 0 0 0 0 
0 0 0 0 0 0 0 0 0 
0 0 0 0 0 0 0 0 0 
0 0 0 0 0 0 0 0 0 
0 0 0 0 0 0 0 0 0 
0 0 0 0 0 0 0 0 0 
0 0 0 0 0 0 0 0 0 
0 0 0 0 0 0 0 0 0 
0 0 0 0 0 0 0 0 0 
0 0 0 0 0 0 0 0 0 
0 0 0 0 0 0 0 0 0 

v 3 648 double
0 0 -0.4706241875 0 0 -0.4706241875 0 0 -0.4706241875 
0 0 -0.4706241875 0 0 -0.4706241875 0 0 -0.4706241875 
0 0 -0.4706241875 0 0 -0.4706241875 0 0 -0.4706241875 
0 0 -0.4706241875 0 0 -0.4706241875 0 0 -0.4706241875 
0 0 -0.4706241875 0 0 -0.4706241875 0 0 -0.4706241875 
0 0 -0.4706241875 0 0 -0.4706241875 0 0 -0.4706241875 
0 0 -0.4706241875 0 0 -0.4706241875 0 0 -0.4706241875 
0 0 -0.4706241875 0 0 -0.4706241875 0 0 -0.4706241875 
0 0 -0.4706241875 0 0 -0.4706241875 0 0 -0.4706241875 
0 0 -0.4706241875 0 0 -0.4706241875 0 0 -0.4706241875 
0 0 -0.4706241875 0 0 -0.4706241875 0 0 -0.4706241875 
0 0 -0.4706241875 0 0 -0.4706241875 0 0 -0.4706241875 
0 0 -0.4706241875 0 0 -0.4706241875 0 0 -0.4706241875 
0 0 -0.4706241875 0 0 -0.4706241875 0 0 -0.4706241875 
0 0 -0.4706241875 0 0 -0.4706241875 0 0 -0.4706241875 
0 0 -0.4706241875 0 0 -0.4706241875 0 0 -0.4706241875 
0 0 -0.4706241875 0 0 -0.4706241875 0 0 -0.4706241875 
0 0 -0.4706241875 0 0 -0.4706241875 0 0 -0.4706241875 
0 0 -0.4706241875 0 0 -0.4706241875 0 0 -0.4706241875 
0 0 -0.4706241875 0 0 -0.4706241875 0 0 -0.4706241875 
0 0 -0.4706241875 0 0 -0.4706241875 0 0 -0.4706241875 
0 0 -0.4706241875 0 0 -0.4706241875 0 0 -0.4706241875 
0 0 -0.4706241875 0 0 -0.4706241875 0 0 -0.4706241875 
0 0 -0.4706241875 0 0 -0.4706241875 0 0 -0.4706241875 
0 0 -0.4706241875 0 0 -0.4706241875 0 0 -0.4706241875 
0 0 -0.4706241875 0 0 -0.4706241875 0 0 -0.4706241875 
0 0 -0.4706241875 0 0 -0.4706241875 0 0 -0.4706241875 
0 0 -0.4706241875 0 0 -0.4706241875 0 0 -0.4706241875 
0 0 -0.4706241875 0 0 -0.4706241875 0 0 -0.4706241875 
0 0 -0.4706241875 0 0 -0.4706241875 0 0 -0.4706241875 
0 0 -0.4706241875 0 0 -0.4706241875 0 0 -0.4706241875 
0 0 -0.4706241875 0 0 -0.4706241875 0 0 -0.4706241875 
0 0 -0.4706241875 0 0 -0.4706241875 0 0 -0.4706241875 
0 0 -0.4706241875 0 0 -0.4706241875 0 0 -0.4706241875 
0 0 -0.4706241875 0 0 -0.4706241875 0 0 -0.4706241875 
0 0 -0.4706241875 0 0 -0.4706241875 0 0 -0.4706241875 
0 0 -0.4706241875 0 0 -0.4706241875 0 0 -0.4706241875 
0 0 -0.4706241875 0 0 -0.4706241875 0 0 -0.4706241875 
0 0 -0.4706241875 0 0 -0.4706241875 0 0 -0.4706241875 
0 0 -0.4706241875 0 0 -0.4153741875 0 0 -0.4706241875 
0 0 -0.4706241875 0 0 -0.4706241875 0 0 -0.4706241875 
0 0 -0.4706241875 0 0 -0.4706241875 0 0 -0.4706241875 
0 0 -0.4706241875 0 0 -0.4706241875 0 0 -0.4706241875 
0 0 -0.4706241875 0 0 -0.4153741875 0 0 -0.4706241875 
0 0 -0.4706241875 0 0 -0.4706241875 0 0 -0.4706241875 
0 0 -0.4706241875 0 0 -0.4706241875 0 0 -0.4706241875 
0 0 -0.4706241875 0 0 -0.4706241875 0 0 -0.4706241875 
0 0 -0.4706241875 0 0 -0.4706241875 0 0 -0.4706241875 
0 0 -0.4706241875 0 0 -0.4706241875 0 0 -0.4706241875 
0 0 -0.4706241875 0 0 -0.4706241875 0 0 -0.4706241875 
0 0 -0.4706241875 0 0 -0.4706241875 0 0 -0.4706241875 
0 0 -0.4706241875 0 0 -0.4706241875 0 0 -0.4706241875 
0 0 -0.4706241875 0 0 -0.4706241875 0 0 -0.4706241875 
0 0 -0.4706241875 0 0 -0.4706241875 0 0 -0.4706241875 
0 0 -0.4706241875 0 0 -0.4706241875 0 0 -0.4706241875 
0 0 -0.4706241875 0 0 -0.4706241875 0 0 -0.4706241875 
0 0 -0.4706241875 0 0 -0.4706241875 0 0 -0.4706241875 
0 0 -0.4706241875 0 0 -0.4706241875 0 0 -0.4706241875 
0 0 -0.4706241875 0 0 -0.4706241875 0 0 -0.4706241875 
0 0 -0.4706241875 0 0 -0.4706241875 0 0 -0.4706241875 
0 0 -0.4348741875 0 0 -0.4706241875 0 0 -0.4706241875 
0 0 -0.4706241875 0 0 -0.4706241875 0 0 -0.4706241875 
0 0 -0.4706241875 0 0 -0.4706241875 0 0 -0.4706241875 
0 0 -0.4706241875 0 0 -0.4706241875 0 0 -0.4706241875 
0 0 -0.4706241875 0 0 -0.4706241875 0 0 -0.4706241875 
0 0 -0.4706241875 0 0 -0.4706241875 0 0 -0.4706241875 
0 0 -0.4706241875 0 0 -0.4706241875 0 0 -0.4706241875 
0 0 -0.4706241875 0 0 -0.4706241875 0 0 -0.4706241875 
0 0 -0.4706241875 0 0 -0.4706241875 0 0 -0.3958741875 
0 0 -0.4706241875 0 0 -0.4706241875 0 0 -0.4706241875 
0 0 -0.4706241875 0 0 -0.4706241875 0 0 -0.4706241875 
0 0 -0.3828741875 0 0 -0.4706241875 0 0 -0.4706241875 
0 0 -0.4706241875 0 0 -0.4706241875 0 0 -0.4706241875 
0 0 -0.4706241875 0 0 -0.4706241875 0 0 -0.4706241875 
0 0 -0.4706241875 0 0 -0.4706241875 0 0 -0.4706241875 
0 0 -0.4706241875 0 0 -0.4706241875 0 0 -0.4706241875 
0 0 -0.4706241875 0 0 -0.4706241875 0 0 -0.4706241875 
0 0 -0.4706241875 0 0 -0.4706241875 0 0 -0.4706241875 
0 0 -0.4706241875 0 0 -0.4706241875 0 0 -0.4706241875 
0 0 -0.4706241875 0 0 -0.4706241875 0 0 -0.4706241875 
0 0 -0.4706241875 0 0 -0.4706241875 0 0 -0.4706241875 
0 0 -0.4706241875 0 0 -0.4706241875 0 0 -0.4706241875 
0 0 -0.4706241875 0 0 -0.4706241875 0 0 -0.4706241875 
0 0 -0.4706241875 0 0 -0.4706241875 0 0 -0.4706241875 
0 0 -0.4706241875 0 0 -0.4706241875 0 0 -0.4706241875 
0 0 -0.4706241875 0 0 -0.3666241875 0 0 -0.4381241875 
0 0 -0.4706241875 0 0 -0.4706241875 0 0 -0.4706241875 
0 0 -0.4706241875 0 0 -0.4706241875 0 0 -0.4706241875 
0 0 -0.4706241875 0 0 -0.4706241875 0 0 -0.4706241875 
0 0 -0.4706241875 0 0 -0.4706241875 0 0 -0.4706241875 
0 0 -0.4706241875 0 0 -0.4706241875 0 0 -0.4706241875 
0 0 -0.4706241875 0 0 -0.4706241875 0 0 -0.4706241875 
0 0 -0.4706241875 0 0 -0.4706241875 0 0 -0.4706241875 
0 0 -0.4706241875 0 0 -0.4706241875 0 0 -0.4706241875 
0 0 -0.4706241875 0 0 -0.4706241875 0 0 -0.4706241875 
0 0 -0.4706241875 0 0 -0.4706241875 0 0 -0.4706241875 
0 0 -0.4706241875 0 0 -0.4706241875 0 0 -0.4706241875 
0 0 -0.4706241875 0 0 -0.4706241875 0 0 -0.4706241875 
0 0 -0.4706241875 0 0 -0.4706241875 0 0 -0.4706241875 
0 0 -0.4706241875 0 0 -0.4706241875 0 0 -0.4706241875 
0 0 -0.4706241875 0 0 -0.4706241875 0 0 -0.4706241875 
0 0 -0.4706241875 0 0 -0.3406241875 0 0 -0.4706241875 
0 0 -0.4706241875 0 0 -0.4706241875 0 0 -0.4706241875 
0 0 -0.4706241875 0 0 -0.4706241875 0 0 -0.4706241875 
0 0 -0.4706241875 0 0 -0.4706241875 0 0 -0.4706241875 
0 0 -0.4706241875 0 0 -0.4706241875 0 0 -0.4706241875 
0 0 -0.4706241875 0 0 -0.4706241875 0 0 -0.4706241875 
0 0 -0.4706241875 0 0 -0.4706241875 0 0 -0.4706241875 
0 0 -0.4706241875 0 0 -0.4706241875 0 0 -0.4706241875 
0 0 -0.4706241875 0 0 -0.4706241875 0 0 -0.4706241875 
0 0 -0.4706241875 0 0 -0.4706241875 0 0 -0.4706241875 
0 0 -0.4706241875 0 0 -0.4706241875 0 0 -0.4706241875 
0 0 -0.4706241875 0 0 -0.4706241875 0 0 -0.3211241875 
0 0 -0.4706241875 0 0 -0.4706241875 0 0 -0.4706241875 
0 0 -0.4706241875 0 0 -0.4706241875 0 0 -0.4706241875 
0 0 -0.4706241875 0 0 -0.4706241875 0 0 -0.4706241875 
0 0 -0.4706241875 0 0 -0.4706241875 0 0 -0.4706241875 
0 0 -0.4706241875 0 0 -0.3503741875 0 0 -0.4706241875 
0 0 -0.4706241875 0 0 -0.4706241875 0 0 -0.4706241875 
0 0 -0.4706241875 0 0 -0.4706241875 0 0 -0.4706241875 
0 0 -0.4706241875 0 0 -0.4706241875 0 0 -0.4706241875 
0 0 -0.4706241875 0 0 -0.4706241875 0 0 -0.4706241875 
0 0 -0.4706241875 0 0 -0.4706241875 0 0 -0.4706241875 
0 0 -0.4706241875 0 0 -0.4706241875 0 0 -0.3471241875 
0 0 -0.3861241875 0 0 -0.4706241875 0 0 -0.4706241875 
0 0 -0.4706241875 0 0 -0.3861241875 0 0 -0.4706241875 
0 0 -0.4706241875 0 0 -0.2821241875 0 0 -0.4706241875 
0 0 -0.3406241875 0 0 -0.4706241875 0 0 -0.4706241875 
0 0 -0.4706241875 0 0 -0.4706241875 0 0 -0.4706241875 
0 0 -0.4706241875 0 0 -0.4706241875 0 0 -0.4706241875 
0 0 -0.4706241875 0 0 -0.3698741875 0 0 -0.4706241875 
0 0 -0.4706241875 0 0 -0.4088741875 0 0 -0.3081241875 
0 0 -0.4706241875 0 0 -0.4706241875 0 0 -0.4706241875 
0 0 -0.4153741875 0 0 -0.4706241875 0 0 -0.4706241875 
0 0 -0.4706241875 0 0 -0.4706241875 0 0 -0.4706241875 
0 0 -0.2821241875 0 0 -0.3276241875 0 0 -0.4706241875 
0 0 -0.4706241875 0 0 -0.4706241875 0 0 -0.3828741875 
0 0 -0.4706241875 0 0 -0.4706241875 0 0 -0.4706241875 
0 0 -0.4706241875 0 0 -0.4706241875 0 0 -0.4706241875 
0 0 -0.2658741875 0 0 -0.4706241875 0 0 -0.4706241875 
0 0 -0.4706241875 0 0 -0.4706241875 0 0 -0.2853741875 
0 0 -0.4706241875 0 0 -0.4706241875 0 0 -0.4706241875 
0 0 -0.4706241875 0 0 -0.3178741875 0 0 -0.4706241875 
0 0 -0.4706241875 0 0 -0.4706241875 0 0 -0.4706241875 
0 0 -0.4706241875 0 0 -0.4706241875 0 0 -0.4706241875 
0 0 -0.4706241875 0 0 -0.4088741875 0 0 -0.4706241875 
0 0 -0.4706241875 0 0 -0.4706241875 0 0 -0.4706241875 
0 0 -0.4706241875 0 0 -0.4706241875 0 0 -0.2918741875 
0 0 -0.4706241875 0 0 -0.4511241875 0 0 -0.4706241875 
0 0 -0.4706241875 0 0 -0.4706241875 0 0 -0.4706241875 
0 0 -0.3308741875 0 0 -0.4706241875 0 0 -0.4706241875 
0 0 -0.3016241875 0 0 -0.2951241875 0 0 -0.4706241875 
0 0 -0.2496241875 0 0 -0.4706241875 0 0 -0.4706241875 
0 0 -0.4706241875 0 0 -0.4576241875 0 0 -0.3341241875 
0 0 -0.4706241875 0 0 -0.4706241875 0 0 -0.4706241875 
0 0 -0.4706241875 0 0 -0.4706241875 0 0 -0.4706241875 
0 0 -0.4706241875 0 0 -0.4706241875 0 0 -0.4706241875 
0 0 -0.4706241875 0 0 -0.3926241875 0 0 -0.3081241875 
0 0 -0.3113741875 0 0 -0.4706241875 0 0 -0.4706241875 
0 0 -0.3666241875 0 0 -0.4706241875 0 0 -0.4706241875 
0 0 -0.4706241875 0 0 -0.4706241875 0 0 -0.4706241875 
0 0 -0.4706241875 0 0 -0.4706241875 0 0 -0.4706241875 
0 0 -0.4706241875 0 0 -0.4706241875 0 0 -0.4576241875 
0 0 -0.4706241875 0 0 -0.3276241875 0 0 -0.4706241875 
0 0 -0.4706241875 0 0 -0.4706241875 0 0 -0.4706241875 
0 0 -0.4706241875 0 0 -0.4706241875 0 0 -0.3796241875 
0 0 -0.4706241875 0 0 -0.4706241875 0 0 -0.4706241875 
0 0 -0.2301241875 0 0 -0.2496241875 0 0 -0.4706241875 
0 0 -0.4706241875 0 0 -0.4706241875 0 0 -0.4706241875 
0 0 -0.3796241875 0 0 -0.4706241875 0 0 -0.4706241875 
0 0 -0.2951241875 0 0 -0.4706241875 0 0 -0.3536241875 
0 0 -0.4706241875 0 0 -0.4706241875 0 0 -0.4706241875 
0 0 -0.2788741875 0 0 -0.4706241875 0 0 -0.4706241875 
0 0 -0.4706241875 0 0 -0.4706241875 0 0 -0.4706241875 
0 0 -0.4706241875 0 0 -0.4706241875 0 0 -0.4706241875 
0 0 -0.2626241875 0 0 -0.3341241875 0 0 -0.4706241875 
0 0 -0.4706241875 0 0 -0.4706241875 0 0 -0.4706241875 
0 0 -0.3438741875 0 0 -0.4706241875 0 0 -0.4706241875 
0 0 -0.4706241875 0 0 -0.3926241875 0 0 -0.2463741875 
0 0 -0.2268741875 0 0 -0.4706241875 0 0 -0.3016241875 
0 0 -0.3146241875 0 0 -0.4706241875 0 0 -0.4706241875 
0 0 -0.4706241875 0 0 -0.4706241875 0 0 -0.3373741875 
0 0 -0.4706241875 0 0 -0.4706241875 0 0 -0.4706241875 
0 0 -0.4706241875 0 0 -0.4706241875 0 0 -0.4706241875 
0 0 -0.3016241875 0 0 -0.3731241875 0 0 -0.3698741875 
0 0 -0.3568741875 0 0 -0.4706241875 0 0 -0.4706241875 
0 0 -0.4706241875 0 0 -0.4706241875 0 0 -0.4023741875 
0 0 -0.3926241875 0 0 -0.2496241875 0 0 -0.2723741875 
0 0 -0.2398741875 0 0 -0.3113741875 0 0 -0.3211241875 
0 0 -0.2983741875 0 0 -0.4023741875 0 0 -0.2626241875 
0 0 -0.2463741875 0 0 -0.2398741875 0 0 -0.3308741875 
0 0 -0.3438741875 0 0 -0.2463741875 0 0 -0.3178741875 
0 0 -0.2756241875 0 0 -0.3601241875 0 0 -0.3211241875 
0 0 -0.2756241875 0 0 -0.2431241875 0 0 -0.2333741875 
0 0 -0.2918741875 0 0 -0.2496241875 0 0 -0.3308741875 
0 0 -0.2691241875 0 0 -0.4088741875 0 0 -0.2366241875 
0 0 -0.3178741875 0 0 -0.4023741875 0 0 -0.3536241875 
0 0 -0.2723741875 0 0 -0.2886241875 0 0 -0.2723741875 
0 0 -0.2886241875 0 0 -0.2853741875 0 0 -0.3243741875 
0 0 -0.2333741875 0 0 -0.2593741875 0 0 -0.2301241875 
0 0 -0.2918741875 0 0 -0.2756241875 0 0 -0.3503741875 
0 0 -0.3276241875 0 0 -0.2398741875 0 0 -0.2626241875 
0 0 -0.3016241875 0 0 -0.2431241875 0 0 -0.2918741875 
0 0 -0.3601241875 0 0 -0.2333741875 0 0 -0.2398741875 
0 0 -0.2821241875 0 0 -0.3503741875 0 0 -0.3438741875 
0 0 -0.3243741875 0 0 -0.3243741875 0 0 -0.2398741875 
0 0 -0.2561241875 0 0 -0.2528741875 0 0 -0.2983741875 
0 0 -0.2983741875 0 0 -0.2268741875 0 0 -0.2398741875 
0 0 -0.2268741875 0 0 -0.3406241875 0 0 -0.2593741875 
0 0 -0.2658741875 0 0 -0.2268741875 0 0 -0.2366241875 
0 0 -0.2561241875 0 0 -0.3048741875 0 0 -0.2626241875 
0 0 -0.2268741875 0 0 -0.2431241875 0 0 -0.2268741875 
0 0 -0.2853741875 0 0 -0.2398741875 0 0 -0.2626241875 
0 0 -0.2886241875 0 0 -0.2886241875 0 0 -0.2366241875 
0 0 -0.2333741875 0 0 -0.2301241875 0 0 -0.2398741875 
0 0 -0.2431241875 0 0 -0.2301241875 0 0 -0.2268741875 

f 3 648 double
0 0 -1.7425367252e-10 0 0 -1.7425367252e-10 0 0 -1.7425367252e-10 
0 0 -8.9019973083e-09 0 0 -1.7425367252e-10 0 0 -1.7425367252e-10 
0 0 -1.7425367252e-10 0 0 -1.7425367252e-10 0 0 -1.7425367252e-10 
0 0 -1.7425367252e-10 0 0 -1.7425367252e-10 0 0 -1.7425367252e-10 
0 0 -1.7425367252e-10 0 0 -1.7425367252e-10 0 0 -1.7425367252e-10 
0 0 -1.7425367252e-10 0 0 -1.7425367252e-10 0 0 -1.7425367252e-10 
0 0 -1.7425367252e-10 0 0 -1.7425367252e-10 0 0 -1.7425367252e-10 
0 0 -1.7425367252e-10 0 0 -1.7425367252e-10 0 0 -1.7425367252e-10 
0 0 -1.7425367252e-10 0 0 -1.7425367252e-10 0 0 -1.7425367252e-10 
0 0 -1.7425367252e-10 0 0 -1.7425367252e-10 0 0 -1.7425367252e-10 
0 0 -8.9019973083e-09 0 0 -1.7425367252e-10 0 0 -1.7425367252e-10 
0 0 -1.7425367252e-10 0 0 -8.9019973083e-09 0 0 -1.7425367252e-10 
0 0 -1.7425367252e-10 0 0 -1.7425367252e-10 0 0 -1.7425367252e-10 
0 0 -1.7425367252e-10 0 0 -1.7425367252e-10 0 0 -1.7425367252e-10 
0 0 -1.7425367252e-10 0 0 -1.7425367252e-10 0 0 -1.7425367252e-10 
0 0 -1.7425367252e-10 0 0 -1.7425367252e-10 0 0 -1.7425367252e-10 
0 0 -1.7425367252e-10 0 0 -1.7425367252e-10 0 0 -1.7425367252e-10 
0 0 -1.7425367252e-10 0 0 -1.7425367252e-10 0 0 -1.7425367252e-10 
0 0 -1.7425367252e-10 0 0 -1.7425367252e-10 0 0 -1.7425367252e-10 
0 0 -1.7425367252e-10 0 0 -1.7425367252e-10 0 0 -1.7425367252e-10 
0 0 -1.7425367252e-10 0 0 -1.7425367252e-10 0 0 -1.7425367252e-10 
0 0 -1.7425367252e-10 0 0 -8.9019973083e-09 0 0 -1.7425367252e-10 
0 0 -1.7425367252e-10 0 0 -1.7425367252e-10 0 0 -1.7425367252e-10 
0 0 -1.7425367252e-10 0 0 -8.9019973083e-09 0 0 -1.7425367252e-10 
0 0 -1.7425367252e-10 0 0 -1.7425367252e-10 0 0 -1.7425367252e-10 
0 0 -1.7425367252e-10 0 0 -1.7425367252e-10 0 0 -1.7425367252e-10 
0 0 -1.7425367252e-10 0 0 -1.7425367252e-10 0 0 -1.7425367252e-10 
0 0 -1.7425367252e-10 0 0 -1.7425367252e-10 0 0 -1.7425367252e-10 
0 0 -1.7425367252e-10 0 0 -1.7425367252e-10 0 0 -1.7425367252e-10 
0 0 -1.7425367252e-10 0 0 -1.7425367252e-10 0 0 -1.7425367252e-10 
0 0 -8.9019973083e-09 0 0 -8.9019973083e-09 0 0 -1.7425367252e-10 
0 0 -1.7425367252e-10 0 0 -1.7425367252e-10 0 0 -8.9019973083e-09 
0 0 -1.7425367252e-10 0 0 -1.7425367252e-10 0 0 -1.7425367252e-10 
0 0 -1.7425367252e-10 0 0 -1.7425367252e-10 0 0 -1.7425367252e-10 
0 0 -1.7425367252e-10 0 0 -1.7425367252e-10 0 0 -1.7425367252e-10 
0 0 -1.7425367252e-10 0 0 -1.7425367252e-10 0 0 -1.7425367252e-10 
0 0 -1.7425367252e-10 0 0 -1.7425367252e-10 0 0 -1.7425367252e-10 
0 0 -1.7425367252e-10 0 0 -1.7425367252e-10 0 0 -1.7425367252e-10 
0 0 -1.7425367252e-10 0 0 -1.7425367252e-10 0 0 -1.7425367252e-10 
0 0 -1.7425367252e-10 0 0 -1.7425367252e-10 0 0 -1.7425367252e-10 
0 0 -1.7425367252e-10 0 0 -8.9019973083e-09 0 0 -1.7425367252e-10 
0 0 -1.7425367252e-10 0 0 -1.7425367252e-10 0 0 -1.7425367252e-10 
0 0 -1.7425367252e-10 0 0 -1.7425367252e-10 0 0 -1.7425367252e-10 
0 0 -1.7425367252e-10 0 0 -1.7425367252e-10 0 0 -1.7425367252e-10 
0 0 -1.7425367252e-10 0 0 -1.7425367252e-10 0 0 -1.7425367252e-10 
0 0 -1.7425367252e-10 0 0 -1.7425367252e-10 0 0 -1.7425367252e-10 
0 0 -1.7425367252e-10 0 0 -1.7425367252e-10 0 0 -1.7425367252e-10 
0 0 -1.7425367252e-10 0 0 -1.7425367252e-10 0 0 -1.7425367252e-10 
0 0 -1.7425367252e-10 0 0 -1.7425367252e-10 0 0 -1.7425367252e-10 
0 0 -1.7425367252e-10 0 0 -8.9019973083e-09 0 0 -1.7425367252e-10 
0 0 -1.7425367252e-10 0 0 -1.7425367252e-10 0 0 -8.9019973083e-09 
0 0 -1.7425367252e-10 0 0 -1.7425367252e-10 0 0 -1.7425367252e-10 
0 0 -1.7425367252e-10 0 0 -1.7425367252e-10 0 0 -1.7425367252e-10 
0 0 -1.7425367252e-10 0 0 -1.7425367252e-10 0 0 -1.7425367252e-10 
0 0 -1.7425367252e-10 0 0 -1.7425367252e-10 0 0 -6.8918688838e-08 
0 0 -1.7425367252e-10 0 0 -1.7425367252e-10 0 0 -1.7425367252e-10 
0 0 -1.7425367252e-10 0 0 -1.7425367252e-10 0 0 -1.7425367252e-10 
0 0 -1.7425367252e-10 0 0 -1.7425367252e-10 0 0 -1.7425367252e-10 
0 0 -1.7425367252e-10 0 0 -1.7425367252e-10 0 0 -1.7425367252e-10 
0 0 -1.7425367252e-10 0 0 -1.7425367252e-10 0 0 -1.7425367252e-10 
0 0 -1.7425367252e-10 0 0 -1.7425367252e-10 0 0 -1.7425367252e-10 
0 0 -1.7425367252e-10 0 0 -1.7425367252e-10 0 0 -1.7425367252e-10 
0 0 -1.7425367252e-10 0 0 -1.7425367252e-10 0 0 -1.7425367252e-10 
0 0 -1.7425367252e-10 0 0 -1.7425367252e-10 0 0 -1.7425367252e-10 
0 0 -1.7425367252e-10 0 0 -1.7425367252e-10 0 0 -1.7425367252e-10 
0 0 -1.7425367252e-10 0 0 -1.7425367252e-10 0 0 -1.7425367252e-10 
0 0 -1.7425367252e-10 0 0 -1.7425367252e-10 0 0 -1.7425367252e-10 
0 0 -1.7425367252e-10 0 0 -1.7425367252e-10 0 0 -1.7425367252e-10 
0 0 -1.7425367252e-10 0 0 -1.7425367252e-10 0 0 -1.7425367252e-10 
0 0 -1.7425367252e-10 0 0 -1.7425367252e-10 0 0 -1.7425367252e-10 
0 0 -1.7425367252e-10 0 0 -8.9019973083e-09 0 0 -1.7425367252e-10 
0 0 -1.7425367252e-10 0 0 -1.7425367252e-10 0 0 -1.7425367252e-10 
0 0 -1.7425367252e-10 0 0 -1.7425367252e-10 0 0 -1.7425367252e-10 
0 0 -1.7425367252e-10 0 0 -1.7425367252e-10 0 0 -1.7425367252e-10 
0 0 -1.7425367252e-10 0 0 -1.7425367252e-10 0 0 -1.7425367252e-10 
0 0 -1.7425367252e-10 0 0 -1.7425367252e-10 0 0 -1.7425367252e-10 
0 0 -1.7425367252e-10 0 0 -1.7425367252e-10 0 0 -1.7425367252e-10 
0 0 -1.7425367252e-10 0 0 -1.7425367252e-10 0 0 -1.7425367252e-10 
0 0 -1.7425367252e-10 0 0 -1.7425367252e-10 0 0 -1.7425367252e-10 
0 0 -1.7425367252e-10 0 0 -1.7425367252e-10 0 0 -1.7425367252e-10 
0 0 -1.7425367252e-10 0 0 -1.7425367252e-10 0 0 -1.7425367252e-10 
0 0 -1.7425367252e-10 0 0 -1.7425367252e-10 0 0 -1.7425367252e-10 
0 0 -1.7425367252e-10 0 0 -1.7425367252e-10 0 0 -1.7425367252e-10 
0 0 -1.7425367252e-10 0 0 -1.7425367252e-10 0 0 -1.7425367252e-10 
0 0 -1.7425367252e-10 0 0 -1.7425367252e-10 0 0 -1.7425367252e-10 
0 0 -1.7425367252e-10 0 0 -1.7425367252e-10 0 0 -1.7425367252e-10 
0 0 -1.7425367252e-10 0 0 -1.7425367252e-10 0 0 -1.7425367252e-10 
0 0 -1.7425367252e-10 0 0 -1.7425367252e-10 0 0 -1.7425367252e-10 
0 0 -1.7425367252e-10 0 0 -1.7425367252e-10 0 0 -1.7425367252e-10 
0 0 -1.7425367252e-10 0 0 -1.7425367252e-10 0 0 -1.7425367252e-10 
0 0 -1.7425367252e-10 0 0 -1.7425367252e-10 0 0 -1.7425367252e-10 
0 0 -1.7425367252e-10 0 0 -1.7425367252e-10 0 0 -1.7425367252e-10 
0 0 -1.7425367252e-10 0 0 -1.7425367252e-10 0 0 -1.7425367252e-10 
0 0 -1.7425367252e-10 0 0 -1.7425367252e-10 0 0 -1.7425367252e-10 
0 0 -1.7425367252e-10 0 0 -1.7425367252e-10 0 0 -1.7425367252e-10 
0 0 -1.7425367252e-10 0 0 -1.7425367252e-10 0 0 -1.7425367252e-10 
0 0 -1.7425367252e-10 0 0 -1.7425367252e-10 0 0 -1.7425367252e-10 
0 0 -1.7425367252e-10 0 0 -1.7425367252e-10 0 0 -1.7425367252e-10 
0 0 -1.7425367252e-10 0 0 -1.7425367252e-10 0 0 -1.7425367252e-10 
0 0 -1.7425367252e-10 0 0 -1.7425367252e-10 0 0 -1.7425367252e-10 
0 0 -1.7425367252e-10 0 0 -1.7425367252e-10 0 0 -1.7425367252e-10 
0 0 -1.7425367252e-10 0 0 -1.7425367252e-10 0 0 -1.7425367252e-10 
0 0 -1.7425367252e-10 0 0 -1.7425367252e-10 0 0 -1.7425367252e-10 
0 0 -1.7425367252e-10 0 0 -1.7425367252e-10 0 0 -1.7425367252e-10 
0 0 -1.7425367252e-10 0 0 -1.7425367252e-10 0 0 -1.7425367252e-10 
0 0 -1.7425367252e-10 0 0 -1.7425367252e-10 0 0 -1.7425367252e-10 
0 0 -1.7425367252e-10 0 0 -1.7425367252e-10 0 0 -1.7425367252e-10 
0 0 -1.7425367252e-10 0 0 -1.7425367252e-10 0 0 -1.7425367252e-10 
0 0 -1.7425367252e-10 0 0 -1.7425367252e-10 0 0 -1.7425367252e-10 
0 0 -1.7425367252e-10 0 0 -1.7425367252e-10 0 0 -1.7425367252e-10 
0 0 -1.7425367252e-10 0 0 -1.7425367252e-10 0 0 -1.7425367252e-10 
0 0 -1.7425367252e-10 0 0 -1.7425367252e-10 0 0 -1.7425367252e-10 
0 0 -1.7425367252e-10 0 0 -1.7425367252e-10 0 0 -1.7425367252e-10 
0 0 -1.7425367252e-10 0 0 -1.7425367252e-10 0 0 -1.7425367252e-10 
0 0 -1.7425367252e-10 0 0 -1.7425367252e-10 0 0 -1.7425367252e-10 
0 0 -1.7425367252e-10 0 0 -1.7425367252e-10 0 0 -1.7425367252e-10 
0 0 -1.7425367252e-10 0 0 -1.7425367252e-10 0 0 -1.7425367252e-10 
0 0 -1.7425367252e-10 0 0 -1.7425367252e-10 0 0 -1.7425367252e-10 
0 0 -1.7425367252e-10 0 0 -1.7425367252e-10 0 0 -1.7425367252e-10 
0 0 -5.3297119368e-07 0 0 -1.7425367252e-10 0 0 -1.7425367252e-10 
0 0 -1.7425367252e-10 0 0 -1.7425367252e-10 0 0 -1.7425367252e-10 
0 0 -1.7425367252e-10 0 0 -1.7425367252e-10 0 0 -1.7425367252e-10 
0 0 -1.7425367252e-10 0 0 -1.7425367252e-10 0 0 -1.7425367252e-10 
0 0 -1.7425367252e-10 0 0 -1.7425367252e-10 0 0 -1.7425367252e-10 
0 0 -1.7425367252e-10 0 0 -1.7425367252e-10 0 0 -1.7425367252e-10 
0 0 -1.7425367252e-10 0 0 -1.7425367252e-10 0 0 -1.7425367252e-10 
0 0 -1.7425367252e-10 0 0 -1.7425367252e-10 0 0 -1.7425367252e-10 
0 0 -1.7425367252e-10 0 0 -1.7425367252e-10 0 0 -1.7425367252e-10 
0 0 -1.7425367252e-10 0 0 -1.7425367252e-10 0 0 -1.7425367252e-10 
0 0 -1.7425367252e-10 0 0 -1.7425367252e-10 0 0 -1.7425367252e-10 
0 0 -1.7425367252e-10 0 0 -1.7425367252e-10 0 0 -1.7425367252e-10 
0 0 -1.7425367252e-10 0 0 -1.7425367252e-10 0 0 -1.7425367252e-10 
0 0 -1.7425367252e-10 0 0 -1.7425367252e-10 0 0 -1.7425367252e-10 
0 0 -1.7425367252e-10 0 0 -1.7425367252e-10 0 0 -1.7425367252e-10 
0 0 -1.7425367252e-10 0 0 -1.7425367252e-10 0 0 -1.7425367252e-10 
0 0 -1.7425367252e-10 0 0 -1.7425367252e-10 0 0 -1.7425367252e-10 
0 0 -1.7425367252e-10 0 0 -8.9019973083e-09 0 0 -1.7425367252e-10 
0 0 -1.7425367252e-10 0 0 -1.7425367252e-10 0 0 -1.7425367252e-10 
0 0 -1.7425367252e-10 0 0 -1.7425367252e-10 0 0 -1.7425367252e-10 
0 0 -1.7425367252e-10 0 0 -1.7425367252e-10 0 0 -1.7425367252e-10 
0 0 -1.7425367252e-10 0 0 -8.9019973083e-09 0 0 -1.7425367252e-10 
0 0 -1.7425367252e-10 0 0 -1.7425367252e-10 0 0 -1.7425367252e-10 
0 0 -1.7425367252e-10 0 0 -1.7425367252e-10 0 0 -1.7425367252e-10 
0 0 -1.7425367252e-10 0 0 -1.7425367252e-10 0 0 -1.7425367252e-10 
0 0 -1.7425367252e-10 0 0 -1.7425367252e-10 0 0 -1.7425367252e-10 
0 0 -1.7425367252e-10 0 0 -1.7425367252e-10 0 0 -1.7425367252e-10 
0 0 -1.7425367252e-10 0 0 -1.7425367252e-10 0 0 -1.7425367252e-10 
0 0 -1.7425367252e-10 0 0 -1.7425367252e-10 0 0 -1.7425367252e-10 
0 0 -1.7425367252e-10 0 0 -1.7425367252e-10 0 0 -1.7425367252e-10 
0 0 -1.7425367252e-10 0 0 -1.7425367252e-10 0 0 -1.7425367252e-10 
0 0 -1.7425367252e-10 0 0 -1.7425367252e-10 0 0 -1.7425367252e-10 
0 0 -1.7425367252e-10 0 0 -1.7425367252e-10 0 0 -1.7425367252e-10 
0 0 -1.7425367252e-10 0 0 -1.7425367252e-10 0 0 -1.7425367252e-10 
0 0 -1.7425367252e-10 0 0 -1.7425367252e-10 0 0 -1.7425367252e-10 
0 0 -1.7425367252e-10 0 0 -1.7425367252e-10 0 0 -1.7425367252e-10 
0 0 -1.7425367252e-10 0 0 -1.7425367252e-10 0 0 -1.7425367252e-10 
0 0 -1.7425367252e-10 0 0 -1.7425367252e-10 0 0 -1.7425367252e-10 
0 0 -1.7425367252e-10 0 0 -8.9019973083e-09 0 0 -1.7425367252e-10 
0 0 -1.7425367252e-10 0 0 -1.7425367252e-10 0 0 -1.7425367252e-10 
0 0 -1.7425367252e-10 0 0 -1.7425367252e-10 0 0 -1.7425367252e-10 
0 0 -1.7425367252e-10 0 0 -1.7425367252e-10 0 0 -1.7425367252e-10 
0 0 -1.7425367252e-10 0 0 -1.7425367252e-10 0 0 -1.7425367252e-10 
0 0 -1.7425367252e-10 0 0 -1.7425367252e-10 0 0 -1.7425367252e-10 
0 0 -1.7425367252e-10 0 0 -1.7425367252e-10 0 0 -1.7425367252e-10 
0 0 -1.7425367252e-10 0 0 -1.7425367252e-10 0 0 -1.7425367252e-10 
0 0 -1.7425367252e-10 0 0 -1.7425367252e-10 0 0 -1.7425367252e-10 
0 0 -1.7425367252e-10 0 0 -1.7425367252e-10 0 0 -1.7425367252e-10 
0 0 -1.7425367252e-10 0 0 -1.7425367252e-10 0 0 -1.7425367252e-10 
0 0 -1.7425367252e-10 0 0 -1.7425367252e-10 0 0 -1.7425367252e-10 
0 0 -1.7425367252e-10 0 0 -1.7425367252e-10 0 0 -1.7425367252e-10 
0 0 -1.7425367252e-10 0 0 -1.7425367252e-10 0 0 -1.7425367252e-10 
0 0 -1.7425367252e-10 0 0 -1.7425367252e-10 0 0 -1.7425367252e-10 
0 0 -1.7425367252e-10 0 0 -1.7425367252e-10 0 0 -1.7425367252e-10 
0 0 -1.7425367252e-10 0 0 -1.7425367252e-10 0 0 -1.7425367252e-10 
0 0 -1.7425367252e-10 0 0 -1.7425367252e-10 0 0 -1.7425367252e-10 
0 0 -1.7425367252e-10 0 0 -1.7425367252e-10 0 0 -1.7425367252e-10 
0 0 -1.7425367252e-10 0 0 -1.7425367252e-10 0 0 -1.7425367252e-10 
0 0 -1.7425367252e-10 0 0 -1.7425367252e-10 0 0 -1.7425367252e-10 
0 0 -1.7425367252e-10 0 0 -1.7425367252e-10 0 0 -1.7425367252e-10 
0 0 -1.7425367252e-10 0 0 -1.7425367252e-10 0 0 -1.7425367252e-10 
0 0 -1.7425367252e-10 0 0 -1.7425367252e-10 0 0 -1.7425367252e-10 
0 0 -1.7425367252e-10 0 0 -1.7425367252e-10 0 0 -1.7425367252e-10 
0 0 -1.7425367252e-10 0 0 -1.7425367252e-10 0 0 -1.7425367252e-10 
0 0 -1.7425367252e-10 0 0 -1.7425367252e-10 0 0 -1.7425367252e-10 
0 0 -1.7425367252e-10 0 0 -1.7425367252e-10 0 0 -1.7425367252e-10 
0 0 -1.7425367252e-10 0 0 -1.7425367252e-10 0 0 -1.7425367252e-10 
0 0 -1.7425367252e-10 0 0 -1.7425367252e-10 0 0 -1.7425367252e-10 
0 0 -1.7425367252e-10 0 0 -1.7425367252e-10 0 0 -1.7425367252e-10 
0 0 -1.7425367252e-10 0 0 -1.7425367252e-10 0 0 -1.7425367252e-10 
0 0 -1.7425367252e-10 0 0 -1.7425367252e-10 0 0 -1.7425367252e-10 
0 0 -1.7425367252e-10 0 0 -1.7425367252e-10 0 0 -1.7425367252e-10 
0 0 -1.7425367252e-10 0 0 -1.7425367252e-10 0 0 -1.7425367252e-10 
0 0 -1.7425367252e-10 0 0 -1.7425367252e-10 0 0 -1.7425367252e-10 
0 0 -1.7425367252e-10 0 0 -1.7425367252e-10 0 0 -1.7425367252e-10 
0 0 -1.7425367252e-10 0 0 -1.7425367252e-10 0 0 -1.7425367252e-10 
0 0 -1.7425367252e-10 0 0 -1.7425367252e-10 0 0 -1.7425367252e-10 
0 0 -1.7425367252e-10 0 0 -8.9019973083e-09 0 0 -1.7425367252e-10 
0 0 -1.7425367252e-10 0 0 -1.7425367252e-10 0 0 -1.7425367252e-10 
0 0 -1.7425367252e-10 0 0 -1.7425367252e-10 0 0 -1.7425367252e-10 
0 0 -1.7425367252e-10 0 0 -1.7425367252e-10 0 0 -1.7425367252e-10 
0 0 -1.7425367252e-10 0 0 -1.7425367252e-10 0 0 -1.7425367252e-10 
0 0 -1.7425367252e-10 0 0 -1.7425367252e-10 0 0 -1.7425367252e-10 
0 0 -1.7425367252e-10 0 0 -1.7425367252e-10 0 0 -1.7425367252e-10 
0 0 -1.7425367252e-10 0 0 -8.9019973083e-09 0 0 -1.7425367252e-10 
0 0 -1.7425367252e-10 0 0 -1.7425367252e-10 0 0 -1.7425367252e-10 
0 0 -1.7425367252e-10 0 0 -1.7425367252e-10 0 0 -1.7425367252e-10 
0 0 -1.7425367252e-10 0 0 -1.7425367252e-10 0 0 -1.7425367252e-10 
0 0 -1.7425367252e-10 0 0 -1.7425367252e-10 0 0 -1.7425367252e-10 
0 0 -1.7425367252e-10 0 0 -1.7425367252e-10 0 0 -1.7425367252e-10 
0 0 -1.7425367252e-10 0 0 -1.7425367252e-10 0 0 -1.7425367252e-10 
0 0 -1.7425367252e-10 0 0 -1.7425367252e-10 0 0 -1.7425367252e-10 
0 0 -1.7425367252e-10 0 0 -1.7425367252e-10 0 0 -1.7425367252e-10 
0 0 -1.7425367252e-10 0 0 -1.7425367252e-10 0 0 -1.7425367252e-10 
0 0 -1.7425367252e-10 0 0 -1.7425367252e-10 0 0 -1.7425367252e-10 
0 0 -1.7425367252e-10 0 0 -1.7425367252e-10 0 0 -1.7425367252e-10 
0 0 -1.7425367252e-10 0 0 -1.7425367252e-10 0 0 -1.7425367252e-10 

radius 1 648 double
2e-05 2e-05 2e-05 7.5e-05 2e-05 2e-05 2e-05 2e-05 2e-05 
2e-05 2e-05 2e-05 2e-05 2e-05 2e-05 2e-05 2e-05 2e-05 
2e-05 2e-05 2e-05 2e-05 2e-05 2e-05 2e-05 2e-05 2e-05 
2e-05 2e-05 2e-05 7.5e-05 2e-05 2e-05 2e-05 7.5e-05 2e-05 
2e-05 2e-05 2e-05 2e-05 2e-05 2e-05 2e-05 2e-05 2e-05 
2e-05 2e-05 2e-05 2e-05 2e-05 2e-05 2e-05 2e-05 2e-05 
2e-05 2e-05 2e-05 2e-05 2e-05 2e-05 2e-05 2e-05 2e-05 
2e-05 7.5e-05 2e-05 2e-05 2e-05 2e-05 2e-05 7.5e-05 2e-05 
2e-05 2e-05 2e-05 2e-05 2e-05 2e-05 2e-05 2e-05 2e-05 
2e-05 2e-05 2e-05 2e-05 2e-05 2e-05 2e-05 2e-05 2e-05 
7.5e-05 7.5e-05 2e-05 2e-05 2e-05 7.5e-05 2e-05 2e-05 2e-05 
2e-05 2e-05 2e-05 2e-05 2e-05 2e-05 2e-05 2e-05 2e-05 
2e-05 2e-05 2e-05 2e-05 2e-05 2e-05 2e-05 2e-05 2e-05 
2e-05 2e-05 2e-05 2e-05 7.5e-05 2e-05 2e-05 2e-05 2e-05 
2e-05 2e-05 2e-05 2e-05 2e-05 2e-05 2e-05 2e-05 2e-05 
2e-05 2e-05 2e-05 2e-05 2e-05 2e-05 2e-05 2e-05 2e-05 
2e-05 2e-05 2e-05 2e-05 7.5e-05 2e-05 2e-05 2e-05 7.5e-05 
2e-05 2e-05 2e-05 2e-05 2e-05 2e-05 2e-05 2e-05 2e-05 
2e-05 2e-05 0.00015 2e-05 2e-05 2e-05 2e-05 2e-05 2e-05 
2e-05 2e-05 2e-05 2e-05 2e-05 2e-05 2e-05 2e-05 2e-05 
2e-05 2e-05 2e-05 2e-05 2e-05 2e-05 2e-05 2e-05 2e-05 
2e-05 2e-05 2e-05 2e-05 2e-05 2e-05 2e-05 2e-05 2e-05 
2e-05 2e-05 2e-05 2e-05 2e-05 2e-05 2e-05 2e-05 2e-05 
2e-05 2e-05 2e-05 2e-05 7.5e-05 2e-05 2e-05 2e-05 2e-05 
2e-05 2e-05 2e-05 2e-05 2e-05 2e-05 2e-05 2e-05 2e-05 
2e-05 2e-05 2e-05 2e-05 2e-05 2e-05 2e-05 2e-05 2e-05 
2e-05 2e-05 2e-05 2e-05 2e-05 2e-05 2e-05 2e-05 2e-05 
2e-05 2e-05 2e-05 2e-05 2e-05 2e-05 2e-05 2e-05 2e-05 
2e-05 2e-05 2e-05 2e-05 2e-05 2e-05 2e-05 2e-05 2e-05 
2e-05 2e-05 2e-05 2e-05 2e-05 2e-05 2e-05 2e-05 2e-05 
2e-05 2e-05 2e-05 2e-05 2e-05 2e-05 2e-05 2e-05 2e-05 
2e-05 2e-05 2e-05 2e-05 2e-05 2e-05 2e-05 2e-05 2e-05 
2e-05 2e-05 2e-05 2e-05 2e-05 2e-05 2e-05 2e-05 2e-05 
2e-05 2e-05 2e-05 2e-05 2e-05 2e-05 2e-05 2e-05 2e-05 
2e-05 2e-05 2e-05 2e-05 2e-05 2e-05 2e-05 2e-05 2e-05 
2e-05 2e-05 2e-05 2e-05 2e-05 2e-05 2e-05 2e-05 2e-05 
2e-05 2e-05 2e-05 2e-05 2e-05 2e-05 2e-05 2e-05 2e-05 
2e-05 2e-05 2e-05 2e-05 2e-05 2e-05 2e-05 2e-05 2e-05 
2e-05 2e-05 2e-05 2e-05 2e-05 2e-05 2e-05 2e-05 2e-05 
2e-05 2e-05 2e-05 2e-05 2e-05 2e-05 0.0003 2e-05 2e-05 
2e-05 2e-05 2e-05 2e-05 2e-05 2e-05 2e-05 2e-05 2e-05 
2e-05 2e-05 2e-05 2e-05 2e-05 2e-05 2e-05 2e-05 2e-05 
2e-05 2e-05 2e-05 2e-05 2e-05 2e-05 2e-05 2e-05 2e-05 
2e-05 2e-05 2e-05 2e-05 2e-05 2e-05 2e-05 2e-05 2e-05 
2e-05 2e-05 2e-05 2e-05 2e-05 2e-05 2e-05 2e-05 2e-05 
2e-05 2e-05 2e-05 2e-05 7.5e-05 2e-05 2e-05 2e-05 2e-05 
2e-05 2e-05 2e-05 2e-05 2e-05 2e-05 2e-05 7.5e-05 2e-05 
2e-05 2e-05 2e-05 2e-05 2e-05 2e-05 2e-05 2e-05 2e-05 
2e-05 2e-05 2e-05 2e-05 2e-05 2e-05 2e-05 2e-05 2e-05 
2e-05 2e-05 2e-05 2e-05 2e-05 2e-05 2e-05 2e-05 2e-05 
2e-05 2e-05 2e-05 2e-05 2e-05 2e-05 2e-05 2e-05 2e-05 
2e-05 2e-05 2e-05 2e-05 2e-05 2e-05 2e-05 2e-05 2e-05 
2e-05 2e-05 2e-05 2e-05 7.5e-05 2e-05 2e-05 2e-05 2e-05 
2e-05 2e-05 2e-05 2e-05 2e-05 2e-05 2e-05 2e-05 2e-05 
2e-05 2e-05 2e-05 2e-05 2e-05 2e-05 2e-05 2e-05 2e-05 
2e-05 2e-05 2e-05 2e-05 2e-05 2e-05 2e-05 2e-05 2e-05 
2e-05 2e-05 2e-05 2e-05 2e-05 2e-05 2e-05 2e-05 2e-05 
2e-05 2e-05 2e-05 2e-05 2e-05 2e-05 2e-05 2e-05 2e-05 
2e-05 2e-05 2e-05 2e-05 2e-05 2e-05 2e-05 2e-05 2e-05 
2e-05 2e-05 2e-05 2e-05 2e-05 2e-05 2e-05 2e-05 2e-05 
2e-05 2e-05 2e-05 2e-05 2e-05 2e-05 2e-05 2e-05 2e-05 
2e-05 2e-05 2e-05 2e-05 2e-05 2e-05 2e-05 2e-05 2e-05 
2e-05 2e-05 2e-05 2e-05 2e-05 2e-05 2e-05 2e-05 2e-05 
2e-05 2e-05 2e-05 2e-05 2e-05 2e-05 2e-05 2e-05 2e-05 
2e-05 2e-05 2e-05 2e-05 2e-05 2e-05 2e-05 2e-05 2e-05 
2e-05 2e-05 2e-05 2e-05 7.5e-05 2e-05 2e-05 2e-05 2e-05 
2e-05 2e-05 2e-05 2e-05 2e-05 2e-05 2e-05 2e-05 2e-05 
2e-05 2e-05 2e-05 2e-05 2e-05 2e-05 2e-05 7.5e-05 2e-05 
2e-05 2e-05 2e-05 2e-05 2e-05 2e-05 2e-05 2e-05 2e-05 
2e-05 2e-05 2e-05 2e-05 2e-05 2e-05 2e-05 2e-05 2e-05 
2e-05 2e-05 2e-05 2e-05 2e-05 2e-05 2e-05 2e-05 2e-05 
2e-05 2e-05 2e-05 2e-05 2e-05 2e-05 2e-05 2e-05 2e-05 

omega 3 648 double
0 0 0 0 0 0 0 0 0 
0 0 0 0 0 0 0 0 0 
0 0 0 0 0 0 0 0 0 
0 0 0 0 0 0 0 0 0 
0 0 0 0 0 0 0 0 0 
0 0 0 0 0 0 0 0 0 
0 0 0 0 0 0 0 0 0 
0 0 0 0 0 0 0 0 0 
0 0 0 0 0 0 0 0 0 
0 0 0 0 0 0 0 0 0 
0 0 0 0 0 0 0 0 0 
0 0 0 0 0 0 0 0 0 
0 0 0 0 0 0 0 0 0 
0 0 0 0 0 0 0 0 0 
0 0 0 0 0 0 0 0 0 
0 0 0 0 0 0 0 0 0 
0 0 0 0 0 0 0 0 0 
0 0 0 0 0 0 0 0 0 
0 0 0 0 0 0 0 0 0 
0 0 0 0 0 0 0 0 0 
0 0 0 0 0 0 0 0 0 
0 0 0 0 0 0 0 0 0 
0 0 0 0 0 0 0 0 0 
0 0 0 0 0 0 0 0 0 
0 0 0 0 0 0 0 0 0 
0 0 0 0 0 0 0 0 0 
0 0 0 0 0 0 0 0 0 
0 0 0 0 0 0 0 0 0 
0 0 0 0 0 0 0 0 0 
0 0 0 0 0 0 0 0 0 
0 0 0 0 0 0 0 0 0 
0 0 0 0 0 0 0 0 0 
0 0 0 0 0 0 0 0 0 
0 0 0 0 0 0 0 0 0 
0 0 0 0 0 0 0 0 0 
0 0 0 0 0 0 0 0 0 
0 0 0 0 0 0 0 0 0 
0 0 0 0 0 0 0 0 0 
0 0 0 0 0 0 0 0 0 
0 0 0 0 0 0 0 0 0 
0 0 0 0 0 0 0 0 0 
0 0 0 0 0 0 0 0 0 
0 0 0 0 0 0 0 0 0 
0 0 0 0 0 0 0 0 0 
0 0 0 0 0 0 0 0 0 
0 0 0 0 0 0 0 0 0 
0 0 0 0 0 0 0 0 0 
0 0 0 0 0 0 0 0 0 
0 0 0 0 0 0 0 0 0 
0 0 0 0 0 0 0 0 0 
0 0 0 0 0 0 0 0 0 
0 0 0 0 0 0 0 0 0 
0 0 0 0 0 0 0 0 0 
0 0 0 0 0 0 0 0 0 
0 0 0 0 0 0 0 0 0 
0 0 0 0 0 0 0 0 0 
0 0 0 0 0 0 0 0 0 
0 0 0 0 0 0 0 0 0 
0 0 0 0 0 0 0 0 0 
0 0 0 0 0 0 0 0 0 
0 0 0 0 0 0 0 0 0 
0 0 0 0 0 0 0 0 0 
0 0 0 0 0 0 0 0 0 
0 0 0 0 0 0 0 0 0 
0 0 0 0 0 0 0 0 0 
0 0 0 0 0 0 0 0 0 
0 0 0 0 0 0 0 0 0 
0 0 0 0 0 0 0 0 0 
0 0 0 0 0 0 0 0 0 
0 0 0 0 0 0 0 0 0 
0 0 0 0 0 0 0 0 0 
0 0 0 0 0 0 0 0 0 
0 0 0 0 0 0 0 0 0 
0 0 0 0 0 0 0 0 0 
0 0 0 0 0 0 0 0 0 
0 0 0 0 0 0 0 0 0 
0 0 0 0 0 0 0 0 0 
0 0 0 0 0 0 0 0 0 
0 0 0 0 0 0 0 0 0 
0 0 0 0 0 0 0 0 0 
0 0 0 0 0 0 0 0 0 
0 0 0 0 0 0 0 0 0 
0 0 0 0 0 0 0 0 0 
0 0 0 0 0 0 0 0 0 
0 0 0 0 0 0 0 0 0 
0 0 0 0 0 0 0 0 0 
0 0 0 0 0 0 0 0 0 
0 0 0 0 0 0 0 0 0 
0 0 0 0 0 0 0 0 0 
0 0 0 0 0 0 0 0 0 
0 0 0 0 0 0 0 0 0 
0 0 0 0 0 0 0 0 0 
0 0 0 0 0 0 0 0 0 
0 0 0 0 0 0 0 0 0 
0 0 0 0 0 0 0 0 0 
0 0 0 0 0 0 0 0 0 
0 0 0 0 0 0 0 0 0 
0 0 0 0 0 0 0 0 0 
0 0 0 0 0 0 0 0 0 
0 0 0 0 0 0 0 0 0 
0 0 0 0 0 0 0 0 0 
0 0 0 0 0 0 0 0 0 
0 0 0 0 0 0 0 0 0 
0 0 0 0 0 0 0 0 0 
0 0 0 0 0 0 0 0 0 
0 0 0 0 0 0 0 0 0 
0 0 0 0 0 0 0 0 0 
0 0 0 0 0 0 0 0 0 
0 0 0 0 0 0 0 0 0 
0 0 0 0 0 0 0 0 0 
0 0 0 0 0 0 0 0 0 
0 0 0 0 0 0 0 0 0 
0 0 0 0 0 0 0 0 0 
0 0 0 0 0 0 0 0 0 
0 0 0 0 0 0 0 0 0 
0 0 0 0 0 0 0 0 0 
0 0 0 0 0 0 0 0 0 
0 0 0 0 0 0 0 0 0 
0 0 0 0 0 0 0 0 0 
0 0 0 0 0 0 0 0 0 
0 0 0 0 0 0 0 0 0 
0 0 0 0 0 0 0 0 0 
0 0 0 0 0 0 0 0 0 
0 0 0 0 0 0 0 0 0 
0 0 0 0 0 0 0 0 0 
0 0 0 0 0 0 0 0 0 
0 0 0 0 0 0 0 0 0 
0 0 0 0 0 0 0 0 0 
0 0 0 0 0 0 0 0 0 
0 0 0 0 0 0 0 0 0 
0 0 0 0 0 0 0 0 0 
0 0 0 0 0 0 0 0 0 
0 0 0 0 0 0 0 0 0 
0 0 0 0 0 0 0 0 0 
0 0 0 0 0 0 0 0 0 
0 0 0 0 0 0 0 0 0 
0 0 0 0 0 0 0 0 0 
0 0 0 0 0 0 0 0 0 
0 0 0 0 0 0 0 0 0 
0 0 0 0 0 0 0 0 0 
0 0 0 0 0 0 0 0 0 
0 0 0 0 0 0 0 0 0 
0 0 0 0 0 0 0 0 0 
0 0 0 0 0 0 0 0 0 
0 0 0 0 0 0 0 0 0 
0 0 0 0 0 0 0 0 0 
0 0 0 0 0 0 0 0 0 
0 0 0 0 0 0 0 0 0 
0 0 0 0 0 0 0 0 0 
0 0 0 0 0 0 0 0 0 
0 0 0 0 0 0 0 0 0 
0 0 0 0 0 0 0 0 0 
0 0 0 0 0 0 0 0 0 
0 0 0 0 0 0 0 0 0 
0 0 0 0 0 0 0 0 0 
0 0 0 0 0 0 0 0 0 
0 0 0 0 0 0 0 0 0 
0 0 0 0 0 0 0 0 0 
0 0 0 0 0 0 0 0 0 
0 0 0 0 0 0 0 0 0 
0 0 0 0 0 0 0 0 0 
0 0 0 0 0 0 0 0 0 
0 0 0 0 0 0 0 0 0 
0 0 0 0 0 0 0 0 0 
0 0 0 0 0 0 0 0 0 
0 0 0 0 0 0 0 0 0 
0 0 0 0 0 0 0 0 0 
0 0 0 0 0 0 0 0 0 
0 0 0 0 0 0 0 0 0 
0 0 0 0 0 0 0 0 0 
0 0 0 0 0 0 0 0 0 
0 0 0 0 0 0 0 0 0 
0 0 0 0 0 0 0 0 0 
0 0 0 0 0 0 0 0 0 
0 0 0 0 0 0 0 0 0 
0 0 0 0 0 0 0 0 0 
0 0 0 0 0 0 0 0 0 
0 0 0 0 0 0 0 0 0 
0 0 0 0 0 0 0 0 0 
0 0 0 0 0 0 0 0 0 
0 0 0 0 0 0 0 0 0 
0 0 0 0 0 0 0 0 0 
0 0 0 0 0 0 0 0 0 
0 0 0 0 0 0 0 0 0 
0 0 0 0 0 0 0 0 0 
0 0 0 0 0 0 0 0 0 
0 0 0 0 0 0 0 0 0 
0 0 0 0 0 0 0 0 0 
0 0 0 0 0 0 0 0 0 
0 0 0 0 0 0 0 0 0 
0 0 0 0 0 0 0 0 0 
0 0 0 0 0 0 0 0 0 
0 0 0 0 0 0 0 0 0 
0 0 0 0 0 0 0 0 0 
0 0 0 0 0 0 0 0 0 
0 0 0 0 0 0 0 0 0 
0 0 0 0 0 0 0 0 0 
0 0 0 0 0 0 0 0 0 
0 0 0 0 0 0 0 0 0 
0 0 0 0 0 0 0 0 0 
0 0 0 0 0 0 0 0 0 
0 0 0 0 0 0 0 0 0 
0 0 0 0 0 0 0 0 0 
0 0 0 0 0 0 0 0 0 
0 0 0 0 0 0 0 0 0 
0 0 0 0 0 0 0 0 0 
0 0 0 0 0 0 0 0 0 
0 0 0 0 0 0 0 0 0 
0 0 0 0 0 0 0 0 0 
0 0 0 0 0 0 0 0 0 
0 0 0 0 0 0 0 0 0 
0 0 0 0 0 0 0 0 0 
0 0 0 0 0 0 0 0 0 
0 0 0 0 0 0 0 0 0 
0 0 0 0 0 0 0 0 0 
0 0 0 0 0 0 0 0 0 

fx_mag_viz 1 648 double
0 0 0 0 0 0 0 0 0 
0 0 0 0 0 0 0 0 0 
0 0 0 0 0 0 0 0 0 
0 0 0 0 0 0 0 0 0 
0 0 0 0 0 0 0 0 0 
0 0 0 0 0 0 0 0 0 
0 0 0 0 0 0 0 0 0 
0 0 0 0 0 0 0 0 0 
0 0 0 0 0 0 0 0 0 
0 0 0 0 0 0 0 0 0 
0 0 0 0 0 0 0 0 0 
0 0 0 0 0 0 0 0 0 
0 0 0 0 0 0 0 0 0 
0 0 0 0 0 0 0 0 0 
0 0 0 0 0 0 0 0 0 
0 0 0 0 0 0 0 0 0 
0 0 0 0 0 0 0 0 0 
0 0 0 0 0 0 0 0 0 
0 0 0 0 0 0 0 0 0 
0 0 0 0 0 0 0 0 0 
0 0 0 0 0 0 0 0 0 
0 0 0 0 0 0 0 0 0 
0 0 0 0 0 0 0 0 0 
0 0 0 0 0 0 0 0 0 
0 0 0 0 0 0 0 0 0 
0 0 0 0 0 0 0 0 0 
0 0 0 0 0 0 0 0 0 
0 0 0 0 0 0 0 0 0 
0 0 0 0 0 0 0 0 0 
0 0 0 0 0 0 0 0 0 
0 0 0 0 0 0 0 0 0 
0 0 0 0 0 0 0 0 0 
0 0 0 0 0 0 0 0 0 
0 0 0 0 0 0 0 0 0 
0 0 0 0 0 0 0 0 0 
0 0 0 0 0 0 0 0 0 
0 0 0 0 0 0 0 0 0 
0 0 0 0 0 0 0 0 0 
0 0 0 0 0 0 0 0 0 
0 0 0 0 0 0 0 0 0 
0 0 0 0 0 0 0 0 0 
0 0 0 0 0 0 0 0 0 
0 0 0 0 0 0 0 0 0 
0 0 0 0 0 0 0 0 0 
0 0 0 0 0 0 0 0 0 
0 0 0 0 0 0 0 0 0 
0 0 0 0 0 0 0 0 0 
0 0 0 0 0 0 0 0 0 
0 0 0 0 0 0 0 0 0 
0 0 0 0 0 0 0 0 0 
0 0 0 0 0 0 0 0 0 
0 0 0 0 0 0 0 0 0 
0 0 0 0 0 0 0 0 0 
0 0 0 0 0 0 0 0 0 
0 0 0 0 0 0 0 0 0 
0 0 0 0 0 0 0 0 0 
0 0 0 0 0 0 0 0 0 
0 0 0 0 0 0 0 0 0 
0 0 0 0 0 0 0 0 0 
0 0 0 0 0 0 0 0 0 
0 0 0 0 0 0 0 0 0 
0 0 0 0 0 0 0 0 0 
0 0 0 0 0 0 0 0 0 
0 0 0 0 0 0 0 0 0 
0 0 0 0 0 0 0 0 0 
0 0 0 0 0 0 0 0 0 
0 0 0 0 0 0 0 0 0 
0 0 0 0 0 0 0 0 0 
0 0 0 0 0 0 0 0 0 
0 0 0 0 0 0 0 0 0 
0 0 0 0 0 0 0 0 0 
0 0 0 0 0 0 0 0 0 

fy_mag_viz 1 648 double
0 0 0 0 0 0 0 0 0 
0 0 0 0 0 0 0 0 0 
0 0 0 0 0 0 0 0 0 
0 0 0 0 0 0 0 0 0 
0 0 0 0 0 0 0 0 0 
0 0 0 0 0 0 0 0 0 
0 0 0 0 0 0 0 0 0 
0 0 0 0 0 0 0 0 0 
0 0 0 0 0 0 0 0 0 
0 0 0 0 0 0 0 0 0 
0 0 0 0 0 0 0 0 0 
0 0 0 0 0 0 0 0 0 
0 0 0 0 0 0 0 0 0 
0 0 0 0 0 0 0 0 0 
0 0 0 0 0 0 0 0 0 
0 0 0 0 0 0 0 0 0 
0 0 0 0 0 0 0 0 0 
0 0 0 0 0 0 0 0 0 
0 0 0 0 0 0 0 0 0 
0 0 0 0 0 0 0 0 0 
0 0 0 0 0 0 0 0 0 
0 0 0 0 0 0 0 0 0 
0 0 0 0 0 0 0 0 0 
0 0 0 0 0 0 0 0 0 
0 0 0 0 0 0 0 0 0 
0 0 0 0 0 0 0 0 0 
0 0 0 0 0 0 0 0 0 
0 0 0 0 0 0 0 0 0 
0 0 0 0 0 0 0 0 0 
0 0 0 0 0 0 0 0 0 
0 0 0 0 0 0 0 0 0 
0 0 0 0 0 0 0 0 0 
0 0 0 0 0 0 0 0 0 
0 0 0 0 0 0 0 0 0 
0 0 0 0 0 0 0 0 0 
0 0 0 0 0 0 0 0 0 
0 0 0 0 0 0 0 0 0 
0 0 0 0 0 0 0 0 0 
0 0 0 0 0 0 0 0 0 
0 0 0 0 0 0 0 0 0 
0 0 0 0 0 0 0 0 0 
0 0 0 0 0 0 0 0 0 
0 0 0 0 0 0 0 0 0 
0 0 0 0 0 0 0 0 0 
0 0 0 0 0 0 0 0 0 
0 0 0 0 0 0 0 0 0 
0 0 0 0 0 0 0 0 0 
0 0 0 0 0 0 0 0 0 
0 0 0 0 0 0 0 0 0 
0 0 0 0 0 0 0 0 0 
0 0 0 0 0 0 0 0 0 
0 0 0 0 0 0 0 0 0 
0 0 0 0 0 0 0 0 0 
0 0 0 0 0 0 0 0 0 
0 0 0 0 0 0 0 0 0 
0 0 0 0 0 0 0 0 0 
0 0 0 0 0 0 0 0 0 
0 0 0 0 0 0 0 0 0 
0 0 0 0 0 0 0 0 0 
0 0 0 0 0 0 0 0 0 
0 0 0 0 0 0 0 0 0 
0 0 0 0 0 0 0 0 0 
0 0 0 0 0 0 0 0 0 
0 0 0 0 0 0 0 0 0 
0 0 0 0 0 0 0 0 0 
0 0 0 0 0 0 0 0 0 
0 0 0 0 0 0 0 0 0 
0 0 0 0 0 0 0 0 0 
0 0 0 0 0 0 0 0 0 
0 0 0 0 0 0 0 0 0 
0 0 0 0 0 0 0 0 0 
0 0 0 0 0 0 0 0 0 

fz_mag_viz 1 648 double
0 0 0 0 0 0 0 0 0 
0 0 0 0 0 0 0 0 0 
0 0 0 0 0 0 0 0 0 
0 0 0 0 0 0 0 0 0 
0 0 0 0 0 0 0 0 0 
0 0 0 0 0 0 0 0 0 
0 0 0 0 0 0 0 0 0 
0 0 0 0 0 0 0 0 0 
0 0 0 0 0 0 0 0 0 
0 0 0 0 0 0 0 0 0 
0 0 0 0 0 0 0 0 0 
0 0 0 0 0 0 0 0 0 
0 0 0 0 0 0 0 0 0 
0 0 0 0 0 0 0 0 0 
0 0 0 0 0 0 0 0 0 
0 0 0 0 0 0 0 0 0 
0 0 0 0 0 0 0 0 0 
0 0 0 0 0 0 0 0 0 
0 0 0 0 0 0 0 0 0 
0 0 0 0 0 0 0 0 0 
0 0 0 0 0 0 0 0 0 
0 0 0 0 0 0 0 0 0 
0 0 0 0 0 0 0 0 0 
0 0 0 0 0 0 0 0 0 
0 0 0 0 0 0 0 0 0 
0 0 0 0 0 0 0 0 0 
0 0 0 0 0 0 0 0 0 
0 0 0 0 0 0 0 0 0 
0 0 0 0 0 0 0 0 0 
0 0 0 0 0 0 0 0 0 
0 0 0 0 0 0 0 0 0 
0 0 0 0 0 0 0 0 0 
0 0 0 0 0 0 0 0 0 
0 0 0 0 0 0 0 0 0 
0 0 0 0 0 0 0 0 0 
0 0 0 0 0 0 0 0 0 
0 0 0 0 0 0 0 0 0 
0 0 0 0 0 0 0 0 0 
0 0 0 0 0 0 0 0 0 
0 0 0 0 0 0 0 0 0 
0 0 0 0 0 0 0 0 0 
0 0 0 0 0 0 0 0 0 
0 0 0 0 0 0 0 0 0 
0 0 0 0 0 0 0 0 0 
0 0 0 0 0 0 0 0 0 
0 0 0 0 0 0 0 0 0 
0 0 0 0 0 0 0 0 0 
0 0 0 0 0 0 0 0 0 
0 0 0 0 0 0 0 0 0 
0 0 0 0 0 0 0 0 0 
0 0 0 0 0 0 0 0 0 
0 0 0 0 0 0 0 0 0 
0 0 0 0 0 0 0 0 0 
0 0 0 0 0 0 0 0 0 
0 0 0 0 0 0 0 0 0 
0 0 0 0 0 0 0 0 0 
0 0 0 0 0 0 0 0 0 
0 0 0 0 0 0 0 0 0 
0 0 0 0 0 0 0 0 0 
0 0 0 0 0 0 0 0 0 
0 0 0 0 0 0 0 0 0 
0 0 0 0 0 0 0 0 0 
0 0 0 0 0 0 0 0 0 
0 0 0 0 0 0 0 0 0 
0 0 0 0 0 0 0 0 0 
0 0 0 0 0 0 0 0 0 
0 0 0 0 0 0 0 0 0 
0 0 0 0 0 0 0 0 0 
0 0 0 0 0 0 0 0 0 
0 0 0 0 0 0 0 0 0 
0 0 0 0 0 0 0 0 0 
0 0 0 0 0 0 0 0 0 

B_magnitude 1 648 double
0 0 0 0 0 0 0 0 0 
0 0 0 0 0 0 0 0 0 
0 0 0 0 0 0 0 0 0 
0 0 0 0 0 0 0 0 0 
0 0 0 0 0 0 0 0 0 
0 0 0 0 0 0 0 0 0 
0 0 0 0 0 0 0 0 0 
0 0 0 0 0 0 0 0 0 
0 0 0 0 0 0 0 0 0 
0 0 0 0 0 0 0 0 0 
0 0 0 0 0 0 0 0 0 
0 0 0 0 0 0 0 0 0 
0 0 0 0 0 0 0 0 0 
0 0 0 0 0 0 0 0 0 
0 0 0 0 0 0 0 0 0 
0 0 0 0 0 0 0 0 0 
0 0 0 0 0 0 0 0 0 
0 0 0 0 0 0 0 0 0 
0 0 0 0 0 0 0 0 0 
0 0 0 0 0 0 0 0 0 
0 0 0 0 0 0 0 0 0 
0 0 0 0 0 0 0 0 0 
0 0 0 0 0 0 0 0 0 
0 0 0 0 0 0 0 0 0 
0 0 0 0 0 0 0 0 0 
0 0 0 0 0 0 0 0 0 
0 0 0 0 0 0 0 0 0 
0 0 0 0 0 0 0 0 0 
0 0 0 0 0 0 0 0 0 
0 0 0 0 0 0 0 0 0 
0 0 0 0 0 0 0 0 0 
0 0 0 0 0 0 0 0 0 
0 0 0 0 0 0 0 0 0 
0 0 0 0 0 0 0 0 0 
0 0 0 0 0 0 0 0 0 
0 0 0 0 0 0 0 0 0 
0 0 0 0 0 0 0 0 0 
0 0 0 0 0 0 0 0 0 
0 0 0 0 0 0 0 0 0 
0 0 0 0 0 0 0 0 0 
0 0 0 0 0 0 0 0 0 
0 0 0 0 0 0 0 0 0 
0 0 0 0 0 0 0 0 0 
0 0 0 0 0 0 0 0 0 
0 0 0 0 0 0 0 0 0 
0 0 0 0 0 0 0 0 0 
0 0 0 0 0 0 0 0 0 
0 0 0 0 0 0 0 0 0 
0 0 0 0 0 0 0 0 0 
0 0 0 0 0 0 0 0 0 
0 0 0 0 0 0 0 0 0 
0 0 0 0 0 0 0 0 0 
0 0 0 0 0 0 0 0 0 
0 0 0 0 0 0 0 0 0 
0 0 0 0 0 0 0 0 0 
0 0 0 0 0 0 0 0 0 
0 0 0 0 0 0 0 0 0 
0 0 0 0 0 0 0 0 0 
0 0 0 0 0 0 0 0 0 
0 0 0 0 0 0 0 0 0 
0 0 0 0 0 0 0 0 0 
0 0 0 0 0 0 0 0 0 
0 0 0 0 0 0 0 0 0 
0 0 0 0 0 0 0 0 0 
0 0 0 0 0 0 0 0 0 
0 0 0 0 0 0 0 0 0 
0 0 0 0 0 0 0 0 0 
0 0 0 0 0 0 0 0 0 
0 0 0 0 0 0 0 0 0 
0 0 0 0 0 0 0 0 0 
0 0 0 0 0 0 0 0 0 
0 0 0 0 0 0 0 0 0 

B_gradient_mag 1 648 double
0 0 0 0 0 0 0 0 0 
0 0 0 0 0 0 0 0 0 
0 0 0 0 0 0 0 0 0 
0 0 0 0 0 0 0 0 0 
0 0 0 0 0 0 0 0 0 
0 0 0 0 0 0 0 0 0 
0 0 0 0 0 0 0 0 0 
0 0 0 0 0 0 0 0 0 
0 0 0 0 0 0 0 0 0 
0 0 0 0 0 0 0 0 0 
0 0 0 0 0 0 0 0 0 
0 0 0 0 0 0 0 0 0 
0 0 0 0 0 0 0 0 0 
0 0 0 0 0 0 0 0 0 
0 0 0 0 0 0 0 0 0 
0 0 0 0 0 0 0 0 0 
0 0 0 0 0 0 0 0 0 
0 0 0 0 0 0 0 0 0 
0 0 0 0 0 0 0 0 0 
0 0 0 0 0 0 0 0 0 
0 0 0 0 0 0 0 0 0 
0 0 0 0 0 0 0 0 0 
0 0 0 0 0 0 0 0 0 
0 0 0 0 0 0 0 0 0 
0 0 0 0 0 0 0 0 0 
0 0 0 0 0 0 0 0 0 
0 0 0 0 0 0 0 0 0 
0 0 0 0 0 0 0 0 0 
0 0 0 0 0 0 0 0 0 
0 0 0 0 0 0 0 0 0 
0 0 0 0 0 0 0 0 0 
0 0 0 0 0 0 0 0 0 
0 0 0 0 0 0 0 0 0 
0 0 0 0 0 0 0 0 0 
0 0 0 0 0 0 0 0 0 
0 0 0 0 0 0 0 0 0 
0 0 0 0 0 0 0 0 0 
0 0 0 0 0 0 0 0 0 
0 0 0 0 0 0 0 0 0 
0 0 0 0 0 0 0 0 0 
0 0 0 0 0 0 0 0 0 
0 0 0 0 0 0 0 0 0 
0 0 0 0 0 0 0 0 0 
0 0 0 0 0 0 0 0 0 
0 0 0 0 0 0 0 0 0 
0 0 0 0 0 0 0 0 0 
0 0 0 0 0 0 0 0 0 
0 0 0 0 0 0 0 0 0 
0 0 0 0 0 0 0 0 0 
0 0 0 0 0 0 0 0 0 
0 0 0 0 0 0 0 0 0 
0 0 0 0 0 0 0 0 0 
0 0 0 0 0 0 0 0 0 
0 0 0 0 0 0 0 0 0 
0 0 0 0 0 0 0 0 0 
0 0 0 0 0 0 0 0 0 
0 0 0 0 0 0 0 0 0 
0 0 0 0 0 0 0 0 0 
0 0 0 0 0 0 0 0 0 
0 0 0 0 0 0 0 0 0 
0 0 0 0 0 0 0 0 0 
0 0 0 0 0 0 0 0 0 
0 0 0 0 0 0 0 0 0 
0 0 0 0 0 0 0 0 0 
0 0 0 0 0 0 0 0 0 
0 0 0 0 0 0 0 0 0 
0 0 0 0 0 0 0 0 0 
0 0 0 0 0 0 0 0 0 
0 0 0 0 0 0 0 0 0 
0 0 0 0 0 0 0 0 0 
0 0 0 0 0 0 0 0 0 
0 0 0 0 0 0 0 0 0 

