# vtk DataFile Version 5.1
Generated by LIGGGHTS
ASCII
DATASET POLYDATA
POINTS 648 float
-0.0428902 -0.0449088 0.00102 -0.0346971 -0.0446764 0.00102001 -0.00340304 -0.0448428 0.00102 
-0.044759 -0.0437614 0.00102 -0.0335565 -0.0442122 0.00102 -0.0308094 -0.0435702 0.00102 
-0.027409 -0.0433703 0.00102015 -0.00396528 -0.0444182 0.00119196 0.0145521 -0.0432303 0.00102134 
0.0181024 -0.0433049 0.00102 0.0195053 -0.043722 0.00123366 0.0416479 -0.0439733 0.00102 
-0.0248654 -0.0427111 0.00102061 0.0131812 -0.0427533 0.00122074 0.0185094 -0.042363 0.0011477 
0.0201641 -0.0426709 0.00110306 0.0248068 -0.0428986 0.0010209 0.0348044 -0.042095 0.00102 
0.0418836 -0.0421436 0.00102 -0.0349861 -0.0412827 0.00102006 -0.0136468 -0.0412372 0.00104274 
-0.00674967 -0.0416523 0.00102 0.000425919 -0.0415728 0.00118337 0.0166138 -0.0412108 0.00128669 
0.0238162 -0.0409762 0.00102693 0.0338942 -0.0410147 0.00125114 0.0414821 -0.0410789 0.00102 
0.0424299 -0.0409921 0.00123678 -0.042922 -0.0404536 0.00102 -0.0406141 -0.0405112 0.00104979 
-0.0334706 -0.0396012 0.00102 -0.0248652 -0.040212 0.00102 -0.018434 -0.0405477 0.00102 
-0.0169239 -0.0402939 0.00104647 -0.00670669 -0.0394183 0.00102584 0.0244803 -0.0401788 0.00102 
0.040047 -0.0404588 0.00102 -0.0108246 -0.0388127 0.00102 -0.00302782 -0.0385948 0.00102 
0.0156715 -0.0391733 0.00102 -0.0370475 -0.0370945 0.00106762 0.00798734 -0.0367051 0.00102 
0.00985621 -0.0367022 0.00129016 0.0308099 -0.0378456 0.00102 0.0397687 -0.0374633 0.00102657 
-0.0439713 -0.0357399 0.00102517 -0.0309963 -0.0355024 0.0012788 -0.0273176 -0.0361067 0.00104363 
-0.0168273 -0.0360331 0.00102 0.000822496 -0.0363122 0.00102 0.0195647 -0.0366528 0.00104952 
0.0355384 -0.0354155 0.00102071 0.00594186 -0.0351889 0.00102 0.0077947 -0.0345433 0.00113119 
0.00879071 -0.0344865 0.00102605 0.0333162 -0.0342631 0.00102 0.0433459 -0.0353282 0.00104508 
-0.0427235 -0.0332389 0.00104798 -0.0161578 -0.0337243 0.00127284 -0.00586029 -0.0338127 0.00102 
0.023158 -0.0340207 0.00102 0.0244271 -0.0334586 0.00102 0.027474 -0.0338615 0.00117672 
-0.0376897 -0.0314333 0.00106237 -0.0262624 -0.032473 0.00102 -0.0232422 -0.0321576 0.00102 
-0.0160452 -0.0323821 0.00110033 0.00802514 -0.031483 0.00102204 0.0346336 -0.0325969 0.00102 
-0.0386911 -0.0311434 0.00104689 -0.0266532 -0.0301716 0.00102 -0.0220587 -0.0306349 0.00122766 
-0.0105296 -0.0314142 0.00102 0.0280204 -0.0311414 0.00102 0.0449741 -0.0303513 0.00102 
-0.0448384 -0.0296834 0.00102 -0.0414327 -0.0290659 0.00125372 0.00231692 -0.0294453 0.00105912 
0.023019 -0.0293484 0.00121835 0.0346338 -0.0290927 0.00102 -0.0346801 -0.0287009 0.00111135 
0.00577088 -0.0287415 0.00102 0.0164647 -0.0275391 0.00102 -0.0430551 -0.0267583 0.00102 
-0.00580099 -0.0272788 0.00102586 0.000892701 -0.0263701 0.00102 0.0101031 -0.0273014 0.00103247 
0.03382 -0.0268981 0.00105189 -0.0338231 -0.0250135 0.00108338 -0.00446216 -0.0255279 0.00119498 
0.0306875 -0.0259396 0.00102 0.033456 -0.0256735 0.00102 0.032808 -0.025967 0.00102 
0.00179778 -0.0247441 0.00127457 0.00538025 -0.0241403 0.00102638 0.00558373 -0.0242787 0.00115049 
0.0102479 -0.024092 0.00130173 0.0155599 -0.0240909 0.00102059 -0.0408326 -0.0234295 0.00102 
-0.0350278 -0.0224863 0.00125216 -0.0127621 -0.0231756 0.00128449 0.0115492 -0.0227248 0.00104458 
0.035159 -0.023363 0.00130392 -0.0225401 -0.0213878 0.00102 0.00623721 -0.0211799 0.00102 
0.0233461 -0.0214624 0.00102 0.039775 -0.0211058 0.00102 0.0394323 -0.021923 0.00129995 
0.0436787 -0.0219137 0.00102 -0.0210835 -0.0209207 0.00108971 -0.00827992 -0.020547 0.00102 
-0.0033641 -0.0204173 0.00109757 0.0336491 -0.0197505 0.00102 -0.0296942 -0.0196153 0.00102 
-0.0108877 -0.0188832 0.00102 0.00156248 -0.0194187 0.00102 0.0363266 -0.0194176 0.00102 
-0.0328213 -0.0176588 0.00114104 -0.0317771 -0.0175651 0.00102 -0.0204621 -0.0172006 0.0010206 
-0.0100897 -0.0180162 0.00102 0.0030191 -0.0179247 0.00102 0.0404767 -0.0183151 0.00102 
0.0414834 -0.0181367 0.00114101 -0.0426154 -0.0165053 0.00102 -0.0405162 -0.0161033 0.00103812 
-0.0339565 -0.0167518 0.00102 -0.0257955 -0.0157834 0.00102 -0.0147645 -0.0165889 0.00131487 
0.0223879 -0.0163393 0.00102 0.038292 -0.016257 0.00119548 -0.015814 -0.0152491 0.00102012 
-0.00444012 -0.0151621 0.00102 0.0198229 -0.0156851 0.00102 0.0249316 -0.014475 0.00102512 
0.0268005 -0.0146468 0.0010236 0.0323803 -0.0150629 0.00120053 0.0375745 -0.0151367 0.0010241 
-0.0388614 -0.0136303 0.00102 -0.0329121 -0.0139828 0.00104875 -0.0313057 -0.0141988 0.00126448 
-0.0227164 -0.0141288 0.00102 -0.0186412 -0.0134353 0.00114199 -0.0117656 -0.0138394 0.00102 
0.0403752 -0.0143085 0.00105309 -0.0341597 -0.0122829 0.00102007 0.0176437 -0.0119747 0.00102 
0.00689113 -0.0107816 0.00102 0.0277003 -0.0107969 0.00102 -0.0222502 -0.00974669 0.00102 
-0.0196799 -0.00931279 0.00102 -0.0136128 -0.00979682 0.00122709 -0.0112192 -0.0104501 0.00102 
0.00743742 -0.00926665 0.00102 0.013874 -0.00963069 0.00102 0.0251729 -0.00985964 0.00102 
0.0286804 -0.00919085 0.00102 0.0313953 -0.00974065 0.00102 0.0334462 -0.00930086 0.00117625 
0.0350526 -0.0102353 0.00102 -0.042331 -0.00792816 0.00124844 -0.00553214 -0.00871323 0.00102 
-0.00254943 -0.00825679 0.00102 -0.0343844 -0.0078404 0.0012503 -0.0344646 -0.00725539 0.00118556 
-0.0304645 -0.00701594 0.00102285 -0.0211095 -0.00770044 0.00121912 -0.0198564 -0.00683511 0.00102 
-0.0135858 -0.00672635 0.0010993 -0.00433253 -0.00676057 0.00107641 -0.00401126 -0.00720159 0.00107679 
0.0109664 -0.00760095 0.00102 0.0161928 -0.00760918 0.00102682 0.0275881 -0.00673863 0.00102322 
0.0404774 -0.00688032 0.00102 -0.0129003 -0.00574839 0.00102 -0.00747582 -0.00609419 0.00102 
0.0387156 -0.00624884 0.00102 -0.040885 -0.00406647 0.00102 0.00937085 -0.00418454 0.00102 
0.0131353 -0.00504642 0.00102 0.0180565 -0.00487531 0.0011914 0.0180458 -0.00470109 0.00131899 
0.0200271 -0.00425623 0.00106085 0.021323 -0.00444137 0.00102 -0.042786 -0.00359954 0.00102 
-0.0179231 -0.00300678 0.00102 -0.0141425 -0.00311887 0.00102 -0.0120059 -0.00345367 0.00102 
0.00975646 -0.00313231 0.00110567 0.0293019 -0.00298432 0.00116903 -0.0408474 -0.00214648 0.00102 
-0.0198668 -0.00211416 0.00126581 -0.00896956 -0.00131708 0.00103073 0.00664535 -0.00164817 0.00102 
-0.0376932 -0.000132947 0.00106586 -0.0281455 -0.00127675 0.00102 -0.0283489 -0.000417126 0.00125753 
-0.0153419 -0.00108619 0.00104418 -0.00783961 -0.000387029 0.00102 -0.00702036 -0.00121172 0.00102 
0.0140084 -6.89735e-05 0.00126082 0.0290986 -0.000251763 0.00102 -0.0416237 0.00110806 0.00105145 
-0.0260142 0.00017485 0.00102 0.0384376 0.000848974 0.00102 0.0407777 0.000744206 0.0012623 
-0.00967086 0.00179773 0.00102 0.00417698 0.0024455 0.00102 0.0116524 0.00206193 0.00127223 
0.0147261 0.00139147 0.00102 0.0188762 0.00181355 0.00102 0.032558 0.00153523 0.00102 
0.0362421 0.00170773 0.00118911 -0.0325416 0.00283857 0.00102 0.0449494 0.00392273 0.00102 
-0.025141 0.00447188 0.00102 0.00314898 0.00491531 0.00103523 0.0260144 0.00429017 0.00120473 
0.0292006 0.00433004 0.00102 0.0305447 0.00486582 0.00102 0.0323225 0.00436429 0.00105931 
0.0404406 0.00462082 0.00102 -0.0406381 0.00555966 0.00114586 -0.037077 0.00611456 0.00102 
-0.0287984 0.00559412 0.00102 -0.0170872 0.00564833 0.00102 -0.00723413 0.00605583 0.00106634 
0.0011249 0.00615697 0.00102 0.0101693 0.00555192 0.00102 0.021602 0.00540593 0.00102 
0.0228765 0.00606581 0.00102 0.0246705 0.0064451 0.00102 0.030759 0.00580352 0.00102 
0.0332757 0.00539899 0.00122678 -0.0426568 0.00723228 0.00102 0.00533928 0.00728904 0.00102 
0.0221269 0.00728552 0.00102 -0.019893 0.00878872 0.00107866 -0.0105861 0.00898083 0.00120789 
0.0142017 0.0079404 0.00108098 0.0202046 0.00840095 0.00102145 0.0283387 0.00890506 0.00102 
0.0340899 0.00882812 0.00102 -0.0392616 0.00972366 0.00102 -0.0214351 0.00957734 0.00102 
-0.0101256 0.00978275 0.00102 0.00474506 0.0103043 0.00114967 0.00978397 0.00922321 0.0010348 
0.0197977 0.00963841 0.00102 0.0212596 0.00979192 0.00102 0.0211953 0.00966092 0.00102 
-0.0394276 0.0109375 0.00102 0.0399323 0.0117688 0.00102 0.0398091 0.011618 0.00102 
-0.0365733 0.0119208 0.00102 -0.0350204 0.0121089 0.0010493 -0.00279986 0.0127222 0.00102 
0.00243185 0.0120975 0.00102 0.00861143 0.0123591 0.00102 0.0128044 0.0127337 0.00106144 
0.014866 0.0127598 0.00105035 0.0261916 0.0119357 0.00102442 -0.0429188 0.0135204 0.00102 
-0.034865 0.0142961 0.00102 -0.0310202 0.0131063 0.00102 -0.00841171 0.0143034 0.00123226 
8.23501e-07 0.0138406 0.00102 0.00789931 0.0136568 0.00105156 0.0143092 0.0139794 0.00102 
0.0248423 0.0143007 0.00102 0.0287781 0.014071 0.00102 0.0311878 0.014057 0.00123588 
0.0336082 0.013194 0.00103334 0.0396593 0.013993 0.00120278 0.0441199 0.0136981 0.00102609 
-0.0196462 0.0155185 0.00106542 -0.00307286 0.0144526 0.00102 0.000954082 0.0152563 0.00102 
0.0121458 0.0151918 0.00102 0.0440772 0.0154938 0.00125199 -0.00443291 0.0160613 0.00125071 
0.00517921 0.0169249 0.00102 0.0418335 0.0161761 0.00102 -0.0360536 0.0173104 0.00102 
-0.0193355 0.018129 0.00109046 0.00546842 0.0177814 0.00120912 0.0215224 0.0171285 0.00102 
0.0226738 0.0181095 0.00102517 0.0256029 0.0175394 0.00127212 0.0407412 0.0174253 0.00102 
-0.0245993 0.0193658 0.00133293 -0.0214239 0.0189608 0.00102 0.00395304 0.0187088 0.00102 
0.00757299 0.0192258 0.00104398 0.0090081 0.0191686 0.00102 0.0122157 0.0191756 0.00102654 
0.018015 0.0183735 0.00102 0.0388885 0.0193682 0.0010248 -0.0431379 0.0208085 0.00102059 
-0.023041 0.0197144 0.00102 -0.022709 0.0198803 0.00102 -0.0153727 0.020636 0.00102 
0.0350116 0.0207306 0.00111215 -0.0282566 0.021284 0.00102 -0.0287332 0.0215601 0.00131467 
0.00128112 0.0217131 0.00102 0.0123926 0.0218243 0.00102 0.0362273 0.0220011 0.00112913 
0.0398418 0.0217469 0.00118011 -0.0421793 0.0225172 0.00106263 -0.0349287 0.0230684 0.00102 
-0.0295899 0.0232577 0.00105922 -0.0148746 0.0223253 0.00115296 0.00126512 0.0228658 0.00131764 
0.0146363 0.0223077 0.00102463 0.03506 0.0228899 0.00102 -0.0267196 0.0236159 0.00102 
0.00264144 0.0247174 0.00120634 0.0181332 0.0246356 0.00118188 0.0258603 0.0235991 0.00106092 
0.0307708 0.0242663 0.00102 0.0438582 0.0244724 0.00126035 -0.0386663 0.0253433 0.00102 
-0.00739359 0.0259593 0.00102 0.0167463 0.0251763 0.00102 0.0226957 0.0260881 0.00102 
-0.0267569 0.0263983 0.00102 -0.0128609 0.0265935 0.00121795 -0.0114472 0.026715 0.00103949 
-0.00563177 0.0268155 0.00102 0.00953871 0.0271324 0.00102 0.0395905 0.0272142 0.00102 
-0.0357156 0.0282031 0.00102 0.00834461 0.0278725 0.00102469 -0.0376379 0.0294143 0.00118218 
-0.0127911 0.0299546 0.00102 0.0191509 0.0299648 0.00102 0.0434247 0.0295768 0.00118306 
-0.0409258 0.0305044 0.00102 -0.0313244 0.0314049 0.00102 -0.0219587 0.0304934 0.00122844 
-0.0200898 0.0311527 0.00102 -0.0108954 0.0304 0.00102 0.00372347 0.0304157 0.00102 
0.0038092 0.0311583 0.00102 0.00519606 0.0301696 0.0010583 0.026696 0.03017 0.00102 
0.0364634 0.0310238 0.00102 0.0444958 0.0309554 0.00102 -0.0073504 0.0318329 0.00102 
-0.00435696 0.0325462 0.00105522 0.00390562 0.0317225 0.00102 0.01325 0.0319187 0.00102 
0.0191028 0.0315895 0.00130167 0.0193546 0.0324404 0.00117654 0.0372507 0.0318783 0.00105343 
-0.0425374 0.0333781 0.00126754 -0.0337286 0.0337045 0.00102 -0.0264781 0.032823 0.00102 
0.0214431 0.0335886 0.00125024 -0.0197415 0.0344175 0.00142937 -0.00472634 0.0344449 0.00120167 
0.00284552 0.0345861 0.00102 0.00317215 0.0343196 0.00104874 0.0231674 0.0340949 0.00102 
-0.041477 0.0364172 0.00102 -0.0407273 0.0358476 0.00127993 -0.00196307 0.0366495 0.00102 
0.00888594 0.0360502 0.00124579 -0.0245447 0.0378537 0.00102 0.0030545 0.0369981 0.00114564 
0.0297434 0.0373158 0.00102 -0.00973825 0.0391656 0.00102 -0.00883869 0.0381834 0.00104803 
-0.00647711 0.0391566 0.00110368 0.0165329 0.0385374 0.00102 0.0238959 0.0383247 0.00102 
0.0281745 0.039089 0.00126441 -0.0375088 0.0393741 0.00102 -0.0312382 0.0393096 0.00102 
-0.0112537 0.0395394 0.00102 0.00201585 0.0404036 0.00118612 0.00308146 0.0401468 0.00141279 
0.0221021 0.0401282 0.00102 0.0251972 0.0393087 0.00102 -0.0133259 0.0414802 0.00102 
0.0163992 0.0415262 0.00102 0.0222253 0.0407186 0.00102 -0.0390027 0.0421086 0.00102 
0.00805094 0.0422278 0.00102016 0.0294278 0.0431452 0.00102 -0.0205282 0.0432397 0.00102 
-0.0181988 0.0434549 0.00102422 0.00528787 0.0432844 0.00117639 0.0114086 0.0440135 0.00106842 
0.0352701 0.0439749 0.00106016 0.0352379 0.0438995 0.00105382 0.0405446 0.0433429 0.00102 
0.0399235 0.0434757 0.00102236 -0.0440308 0.0448256 0.00123444 0.0171919 0.0449185 0.00102079 
0.0211706 0.0445491 0.00102066 0.0406519 -0.0427256 0.00242972 -0.0289295 -0.0389067 0.00225406 
0.0341086 -0.0368686 0.00239003 -0.00161929 -0.0353994 0.00135329 -0.0177429 -0.0346724 0.00226839 
0.0403097 -0.0347888 0.00131937 0.0419483 -0.0348097 0.00169969 -0.0177803 -0.0340186 0.00140591 
-0.0233761 -0.031813 0.00129192 0.0268369 -0.0315202 0.00161177 -0.0263426 -0.0292431 0.00143749 
0.0392765 -0.0300093 0.00202858 -0.0401314 -0.0280847 0.00132024 -0.0240024 -0.0280603 0.001467 
0.0153133 -0.0285941 0.00135616 -0.0240719 -0.0268296 0.00178005 -0.0419519 -0.0259749 0.00233003 
0.0347572 -0.0260666 0.00159668 -0.0336946 -0.0248459 0.00158212 -0.00863888 -0.0237376 0.00139045 
-0.0328109 -0.0226975 0.00180044 0.0109547 -0.0235646 0.00145385 0.0240101 -0.0228809 0.00138227 
-0.0329608 -0.0218045 0.00184111 -0.0323128 -0.0219837 0.00127854 -0.0164034 -0.0216001 0.00143549 
0.00548761 -0.0197918 0.00143104 0.0134129 -0.0192809 0.00238845 -0.0393221 -0.0167834 0.00268361 
0.0252581 -0.0163235 0.00113723 -0.0408642 -0.0154151 0.0013169 0.0132043 -0.01541 0.00218962 
0.0302919 -0.0148257 0.00174088 -0.0279963 -0.0141356 0.00220048 0.0144468 -0.013247 0.00124091 
-0.0327621 -0.0121928 0.00143723 -0.0269092 -0.0125643 0.00163982 -0.00528066 -0.0121118 0.00161961 
0.0414517 -0.0114994 0.00198154 -0.038829 -0.00978443 0.00153581 -0.0326334 -0.00963456 0.00233399 
-0.0253401 -0.0103599 0.00183491 0.0406218 -0.0100941 0.00130533 -0.024842 -0.00884532 0.00175876 
-0.0214415 -0.007536 0.00159237 0.0129906 -0.00677597 0.00175487 0.00523139 -0.00599236 0.00139025 
-0.0253129 -0.0039775 0.00204771 -0.0107529 -0.00365687 0.00137882 -0.00941413 -0.00330341 0.00135074 
-0.0395569 -0.00227866 0.00159984 0.0168839 -0.00210364 0.00130744 -0.000610522 -0.00103491 0.00133848 
-0.00229178 0.0020129 0.00140467 -0.0261639 0.00337815 0.00227779 -0.0233311 0.00384073 0.00124844 
0.00243665 0.00282786 0.0013308 0.0183943 0.00266245 0.00127104 -0.0403489 0.00598291 0.00182279 
0.0250346 0.00641518 0.00145184 0.0358407 0.00533501 0.00233831 -0.0429246 0.00657681 0.00184203 
-0.00598638 0.00689803 0.001728 0.0110904 0.00657535 0.00124501 0.0324887 0.00836074 0.00156712 
-0.0408306 0.00999374 0.00162456 -0.0349081 0.00917553 0.00136861 0.0234497 0.00978487 0.00229784 
-0.0371624 0.011326 0.00183722 -0.00071691 0.0108932 0.00196095 -0.00831541 0.0129665 0.00132445 
0.0379188 0.0120326 0.00188123 -0.00867948 0.0139924 0.00133199 0.0114764 0.0140289 0.0022096 
0.012949 0.0143048 0.0018118 -0.0231109 0.0157017 0.00165598 0.0153641 0.0146287 0.00258793 
-0.0408838 0.0159645 0.00236012 -0.0363159 0.0185996 0.00221968 0.0323341 0.0191974 0.00152663 
0.00742845 0.0199749 0.00237103 0.00976854 0.0197772 0.00119964 -0.0122989 0.0222019 0.00134129 
-0.0324762 0.0230005 0.00210056 -0.00782209 0.0241861 0.00124971 0.021223 0.0244832 0.00229612 
0.000162142 0.0251126 0.00167687 -0.0269229 0.0267788 0.00255342 -0.0190887 0.0269029 0.00127715 
-0.0102477 0.0267602 0.00235464 0.0397191 0.0283771 0.00223864 -0.0406313 0.0295913 0.00235084 
0.0104707 0.0313218 0.00116476 -0.0213481 0.0319153 0.00162782 0.0337272 0.0324898 0.00193441 
0.00727395 0.0332762 0.00138035 0.0152528 0.033152 0.00225676 0.0278529 0.0342296 0.00178491 
-0.00750544 0.0361316 0.00233589 0.00367032 0.0371324 0.0024311 0.0311732 0.0371467 0.00132645 
0.0439232 0.0371117 0.00202139 -0.00585061 0.0388609 0.00137988 -0.0281804 0.0418824 0.00156256 
0.00513794 0.0433856 0.00251391 -0.0390775 0.0447256 0.00187806 -0.0160353 0.0448572 0.00207023 
-0.0317519 -0.0446953 0.00261603 0.0262096 -0.0449372 0.00252109 -0.0225361 -0.0441701 0.00374992 
-0.0389435 -0.0425966 0.0029985 0.0339316 -0.041715 0.00300987 0.00849583 -0.0405939 0.0030647 
-0.0234086 -0.038644 0.0038376 -0.0195638 -0.0385913 0.00278694 0.0325128 -0.03812 0.0024743 
-0.00338111 -0.0363358 0.00307657 0.0307351 -0.0355434 0.00294449 -0.0179089 -0.0346335 0.00307786 
-8.23525e-05 -0.034098 0.00273617 0.043014 -0.0343178 0.00280284 0.00264867 -0.0338128 0.00322219 
-0.0210092 -0.0320472 0.00308947 -0.0396817 -0.0304797 0.00306086 0.010226 -0.0308634 0.00307024 
0.0412685 -0.0295104 0.00298323 -0.015788 -0.0282898 0.00219943 -0.0432264 -0.0264101 0.0035858 
0.0054016 -0.025334 0.00264047 0.0350196 -0.0250011 0.0028366 0.0210005 -0.0239559 0.00318382 
-0.038621 -0.0229432 0.00301557 -0.0139777 -0.0223984 0.00380568 -0.0291427 -0.0219343 0.00318487 
0.0262592 -0.0217201 0.00282851 -0.0207996 -0.0190456 0.00291222 0.0204492 -0.0194639 0.00302668 
0.0218308 -0.0192565 0.0035045 -0.0183202 -0.0175475 0.00309877 0.0184681 -0.0172117 0.00294402 
0.0282033 -0.0178095 0.00298638 0.0296492 -0.015918 0.0026069 -0.00710141 -0.0133745 0.0033339 
0.00886689 -0.0141191 0.00318418 0.0323804 -0.0132471 0.00341218 0.0322358 -0.0130621 0.00276165 
0.0347312 -0.012978 0.00353956 -0.0207563 -0.0111167 0.00279368 0.0223025 -0.0112244 0.00312949 
0.0253763 -0.011051 0.00291215 0.0342493 -0.0115037 0.00270552 -0.0449336 -0.00957357 0.00280825 
0.0218314 -0.00971151 0.00374844 -0.0150798 -0.00698339 0.00312271 -0.0101373 -0.00698039 0.00365291 
0.0127657 -0.00746761 0.0039055 -0.00720807 -0.00608605 0.00377091 -0.00474481 -0.00600267 0.00293094 
0.00127443 -0.000618905 0.0035586 0.0420414 -0.00101026 0.00305598 -0.0332593 0.000859011 0.00276393 
0.0189244 0.00254502 0.00281171 0.00265626 0.00371614 0.00311773 -0.027449 0.00511055 0.00339546 
0.0277548 0.0042931 0.00336097 -0.01547 0.00642247 0.00339096 -0.00552594 0.00555795 0.00330219 
-0.009285 0.00693532 0.00273141 0.0320014 0.00756294 0.00318821 0.023953 0.00820576 0.00321215 
-0.0408092 0.00981999 0.0028228 0.027557 0.009967 0.00279442 -0.00808524 0.0113378 0.00260901 
-0.0287818 0.014969 0.00315974 0.012585 0.0155082 0.00340611 -0.0286532 0.0159811 0.00322395 
-0.0161548 0.0159009 0.00298496 -0.00317984 0.0164631 0.00329083 -0.0436896 0.0195853 0.0035942 
0.00153271 0.0201988 0.00358222 -0.0436572 0.0238848 0.00288898 -0.0138035 0.0240512 0.00378669 
-0.0132251 0.0252506 0.00263073 -0.0214233 0.0285543 0.00349978 -0.0152062 0.0294088 0.00311639 
-0.0368667 0.0306348 0.00287068 -0.032208 0.0306075 0.00352839 0.0040127 0.0314243 0.00284869 
0.0354139 0.0312817 0.00334989 0.0380057 0.0324307 0.00280529 -0.0422696 0.0340949 0.00325165 
0.0164577 0.0353116 0.00283521 -0.039126 0.0399637 0.00314343 0.0170579 0.0421878 0.00324382 
0.0147823 -0.0446949 0.00413493 -0.00682403 -0.0314098 0.00420546 0.0156293 -0.0283842 0.00388354 
0.0272875 -0.0186725 0.00475441 -0.0420316 -0.0145538 0.00345044 0.0386193 -0.00496685 0.00411525 
0.0448793 -0.00396119 0.00418962 -0.0131355 0.00164571 0.00388601 -0.0137512 0.00384646 0.00390199 
0.0133448 0.00646544 0.00432341 -0.0442311 0.00821601 0.00477604 0.00418285 0.0112423 0.00392176 
0.00976298 0.0163696 0.00435582 -0.014478 0.0275162 0.0041006 -0.0260391 0.0304395 0.00413785 
-0.0359241 0.0337864 0.00395175 0.0132394 0.0345575 0.00399087 -0.0379532 0.0399341 0.00389912 
-0.0437633 0.0406561 0.00414213 -0.00785852 0.041878 0.00389949 0.0430506 0.0422314 0.00392229 
-0.0190394 0.0446837 0.00401852 -0.0386256 -0.00983966 0.00480502 0.0242571 -0.0100823 0.00544754 
0.0352883 -0.0103067 0.00556363 -0.0122189 0.0175978 0.00549994 -0.0155539 0.0359545 0.0052876 
0.039455 -0.000236508 0.00686057 -0.0385899 -0.0405251 0.00766785 0.0414788 -0.00521487 0.00783878 
0.0154702 -0.00154679 0.00857503 -0.0356048 -0.000104637 0.00750952 -0.0144089 0.0201081 0.00792839 
-0.0296003 0.0277025 0.0082813 -0.00521279 -0.0413279 0.00911009 0.00347554 0.00338662 0.00976876 
0.0289145 -0.0340196 0.010862 0.0433204 -0.0141837 0.0111208 0.00357123 -0.00830953 0.0112668 
-0.0081225 0.0151775 0.0104 0.0282359 -0.00877456 0.0120422 -0.0256005 0.0215871 0.0113967 
0.0131273 0.040817 0.0123248 0.00635633 0.000852437 0.0131457 -0.00757157 0.00454821 0.0128619 
0.0188903 -0.0308528 0.0143682 -0.0207679 -0.0256315 0.0148331 0.00643655 -0.000956063 0.0155578 
-0.00254916 -0.00379952 0.0166753 -0.0170112 0.0231088 0.0183556 0.00741479 -0.0295782 0.0205984 

VERTICES 649 648
OFFSETS vtktypeint64
0 1 2 3 4 5 6 7 8 
9 10 11 12 13 14 15 16 17 
18 19 20 21 22 23 24 25 26 
27 28 29 30 31 32 33 34 35 
36 37 38 39 40 41 42 43 44 
45 46 47 48 49 50 51 52 53 
54 55 56 57 58 59 60 61 62 
63 64 65 66 67 68 69 70 71 
72 73 74 75 76 77 78 79 80 
81 82 83 84 85 86 87 88 89 
90 91 92 93 94 95 96 97 98 
99 100 101 102 103 104 105 106 107 
108 109 110 111 112 113 114 115 116 
117 118 119 120 121 122 123 124 125 
126 127 128 129 130 131 132 133 134 
135 136 137 138 139 140 141 142 143 
144 145 146 147 148 149 150 151 152 
153 154 155 156 157 158 159 160 161 
162 163 164 165 166 167 168 169 170 
171 172 173 174 175 176 177 178 179 
180 181 182 183 184 185 186 187 188 
189 190 191 192 193 194 195 196 197 
198 199 200 201 202 203 204 205 206 
207 208 209 210 211 212 213 214 215 
216 217 218 219 220 221 222 223 224 
225 226 227 228 229 230 231 232 233 
234 235 236 237 238 239 240 241 242 
243 244 245 246 247 248 249 250 251 
252 253 254 255 256 257 258 259 260 
261 262 263 264 265 266 267 268 269 
270 271 272 273 274 275 276 277 278 
279 280 281 282 283 284 285 286 287 
288 289 290 291 292 293 294 295 296 
297 298 299 300 301 302 303 304 305 
306 307 308 309 310 311 312 313 314 
315 316 317 318 319 320 321 322 323 
324 325 326 327 328 329 330 331 332 
333 334 335 336 337 338 339 340 341 
342 343 344 345 346 347 348 349 350 
351 352 353 354 355 356 357 358 359 
360 361 362 363 364 365 366 367 368 
369 370 371 372 373 374 375 376 377 
378 379 380 381 382 383 384 385 386 
387 388 389 390 391 392 393 394 395 
396 397 398 399 400 401 402 403 404 
405 406 407 408 409 410 411 412 413 
414 415 416 417 418 419 420 421 422 
423 424 425 426 427 428 429 430 431 
432 433 434 435 436 437 438 439 440 
441 442 443 444 445 446 447 448 449 
450 451 452 453 454 455 456 457 458 
459 460 461 462 463 464 465 466 467 
468 469 470 471 472 473 474 475 476 
477 478 479 480 481 482 483 484 485 
486 487 488 489 490 491 492 493 494 
495 496 497 498 499 500 501 502 503 
504 505 506 507 508 509 510 511 512 
513 514 515 516 517 518 519 520 521 
522 523 524 525 526 527 528 529 530 
531 532 533 534 535 536 537 538 539 
540 541 542 543 544 545 546 547 548 
549 550 551 552 553 554 555 556 557 
558 559 560 561 562 563 564 565 566 
567 568 569 570 571 572 573 574 575 
576 577 578 579 580 581 582 583 584 
585 586 587 588 589 590 591 592 593 
594 595 596 597 598 599 600 601 602 
603 604 605 606 607 608 609 610 611 
612 613 614 615 616 617 618 619 620 
621 622 623 624 625 626 627 628 629 
630 631 632 633 634 635 636 637 638 
639 640 641 642 643 644 645 646 647 
648 
CONNECTIVITY vtktypeint64
0 1 2 3 4 5 6 7 8 
9 10 11 12 13 14 15 16 17 
18 19 20 21 22 23 24 25 26 
27 28 29 30 31 32 33 34 35 
36 37 38 39 40 41 42 43 44 
45 46 47 48 49 50 51 52 53 
54 55 56 57 58 59 60 61 62 
63 64 65 66 67 68 69 70 71 
72 73 74 75 76 77 78 79 80 
81 82 83 84 85 86 87 88 89 
90 91 92 93 94 95 96 97 98 
99 100 101 102 103 104 105 106 107 
108 109 110 111 112 113 114 115 116 
117 118 119 120 121 122 123 124 125 
126 127 128 129 130 131 132 133 134 
135 136 137 138 139 140 141 142 143 
144 145 146 147 148 149 150 151 152 
153 154 155 156 157 158 159 160 161 
162 163 164 165 166 167 168 169 170 
171 172 173 174 175 176 177 178 179 
180 181 182 183 184 185 186 187 188 
189 190 191 192 193 194 195 196 197 
198 199 200 201 202 203 204 205 206 
207 208 209 210 211 212 213 214 215 
216 217 218 219 220 221 222 223 224 
225 226 227 228 229 230 231 232 233 
234 235 236 237 238 239 240 241 242 
243 244 245 246 247 248 249 250 251 
252 253 254 255 256 257 258 259 260 
261 262 263 264 265 266 267 268 269 
270 271 272 273 274 275 276 277 278 
279 280 281 282 283 284 285 286 287 
288 289 290 291 292 293 294 295 296 
297 298 299 300 301 302 303 304 305 
306 307 308 309 310 311 312 313 314 
315 316 317 318 319 320 321 322 323 
324 325 326 327 328 329 330 331 332 
333 334 335 336 337 338 339 340 341 
342 343 344 345 346 347 348 349 350 
351 352 353 354 355 356 357 358 359 
360 361 362 363 364 365 366 367 368 
369 370 371 372 373 374 375 376 377 
378 379 380 381 382 383 384 385 386 
387 388 389 390 391 392 393 394 395 
396 397 398 399 400 401 402 403 404 
405 406 407 408 409 410 411 412 413 
414 415 416 417 418 419 420 421 422 
423 424 425 426 427 428 429 430 431 
432 433 434 435 436 437 438 439 440 
441 442 443 444 445 446 447 448 449 
450 451 452 453 454 455 456 457 458 
459 460 461 462 463 464 465 466 467 
468 469 470 471 472 473 474 475 476 
477 478 479 480 481 482 483 484 485 
486 487 488 489 490 491 492 493 494 
495 496 497 498 499 500 501 502 503 
504 505 506 507 508 509 510 511 512 
513 514 515 516 517 518 519 520 521 
522 523 524 525 526 527 528 529 530 
531 532 533 534 535 536 537 538 539 
540 541 542 543 544 545 546 547 548 
549 550 551 552 553 554 555 556 557 
558 559 560 561 562 563 564 565 566 
567 568 569 570 571 572 573 574 575 
576 577 578 579 580 581 582 583 584 
585 586 587 588 589 590 591 592 593 
594 595 596 597 598 599 600 601 602 
603 604 605 606 607 608 609 610 611 
612 613 614 615 616 617 618 619 620 
621 622 623 624 625 626 627 628 629 
630 631 632 633 634 635 636 637 638 
639 640 641 642 643 644 645 646 647 

POINT_DATA 648
FIELD FieldData 12
id 1 648 int
164 275 98 463 366 200 188 89 84 
346 93 31 113 414 635 203 390 140 
218 562 68 457 591 52 429 577 207 
271 134 549 256 87 35 99 314 326 
508 34 92 459 411 115 102 356 122 
22 487 82 226 24 436 344 367 489 
319 88 605 229 156 571 51 347 589 
477 303 404 570 505 543 333 304 250 
185 107 352 137 393 139 103 294 354 
331 445 128 409 291 645 183 415 604 
121 190 267 116 484 79 223 71 282 
526 416 449 329 64 167 472 237 111 
317 403 174 25 470 479 154 440 238 
274 439 298 247 289 355 603 496 572 
73 176 462 444 170 374 381 168 240 
290 74 194 58 500 306 612 59 215 
211 380 349 106 292 227 248 264 231 
428 127 427 483 157 38 293 95 324 
260 563 53 399 511 72 32 6 42 
336 278 615 368 383 243 299 567 370 
515 11 252 105 125 263 57 385 257 
20 592 360 405 151 135 204 542 205 
217 132 66 265 341 75 83 465 196 
36 175 208 90 186 538 61 334 86 
56 593 379 418 458 216 141 503 495 
407 478 486 456 546 396 467 353 454 
126 450 426 423 124 144 424 112 129 
165 261 197 288 338 497 255 214 420 
601 432 373 345 181 60 273 401 378 
21 446 384 297 169 17 322 46 150 
491 310 395 236 363 63 178 202 469 
308 358 220 193 40 433 184 587 339 
54 118 392 582 110 417 443 364 447 
117 161 357 521 149 166 33 49 138 
337 18 529 279 287 330 254 325 394 
104 219 109 520 12 507 189 206 100 
162 195 163 408 266 30 280 199 461 
410 509 451 504 321 114 506 488 419 
187 343 201 158 81 268 26 327 253 
222 148 29 481 65 94 455 348 270 
235 600 387 85 313 251 233 309 232 
286 437 182 362 320 559 413 246 328 
536 76 318 155 123 643 435 386 361 
412 62 372 91 108 406 375 342 302 
397 475 272 351 639 55 438 471 312 
626 159 518 69 584 350 239 5 295 
533 502 96 147 13 574 430 581 493 
541 192 323 578 576 160 28 44 618 
553 143 376 537 276 460 146 8 43 
638 16 617 23 311 569 10 580 377 
285 171 142 382 371 564 565 519 212 
244 305 501 474 153 301 213 528 145 
453 400 296 595 221 262 620 119 633 
41 70 622 315 485 607 281 514 431 
130 14 78 9 637 498 535 179 524 
611 583 180 225 579 421 452 482 198 
531 45 555 586 476 614 242 534 230 
258 597 136 173 210 359 67 492 402 
388 47 616 307 525 283 548 629 527 
532 335 234 37 513 547 573 177 448 
558 539 551 517 422 490 441 530 566 
259 585 599 340 628 554 101 522 39 
27 224 557 365 80 389 77 598 284 
613 245 545 425 556 510 4 480 442 
48 560 228 468 473 152 561 191 97 
131 209 540 594 596 332 623 466 550 
552 523 434 241 398 120 516 590 133 
50 499 300 512 316 464 15 369 269 
494 391 249 575 277 19 172 544 1 
3 7 624 2 648 647 610 568 625 
609 632 641 634 644 608 619 602 646 
606 630 631 636 627 621 642 588 640 

type 1 648 int
1 1 1 1 1 1 1 1 1 
1 1 1 1 1 1 1 1 1 
1 1 1 1 1 1 1 1 1 
1 1 1 1 1 1 1 1 1 
1 1 1 1 1 1 1 1 1 
1 1 1 1 1 1 1 1 1 
1 1 1 1 1 1 1 1 1 
1 1 1 1 1 1 1 1 1 
1 1 1 1 1 1 1 1 1 
1 1 1 1 1 1 1 1 1 
1 1 1 1 1 1 1 1 1 
1 1 1 1 1 1 1 1 1 
1 1 1 1 1 1 1 1 1 
1 1 1 1 1 1 1 1 1 
1 1 1 1 1 1 1 1 1 
1 1 1 1 1 1 1 1 1 
1 1 1 1 1 1 1 1 1 
1 1 1 1 1 1 1 1 1 
1 1 1 1 1 1 1 2 1 
1 1 1 1 1 1 1 1 1 
1 2 1 1 1 1 1 1 1 
1 1 1 1 1 1 1 1 1 
1 1 1 1 1 1 1 1 1 
1 1 1 1 1 1 1 1 1 
1 1 1 1 1 1 1 1 1 
1 1 1 1 1 1 1 1 1 
1 1 1 1 1 1 1 1 1 
1 1 1 1 1 1 1 1 1 
1 1 1 1 1 1 1 1 1 
1 1 1 1 1 1 1 1 1 
1 1 1 1 1 1 1 1 1 
1 1 1 1 1 1 1 1 1 
1 1 1 1 1 1 1 1 1 
1 1 1 1 1 1 1 1 1 
1 1 1 1 1 1 1 1 1 
1 1 1 1 2 1 1 1 1 
1 1 1 1 1 1 1 1 1 
1 1 1 1 1 1 1 1 1 
1 1 1 1 1 1 1 1 1 
1 1 1 1 1 1 1 1 1 
1 1 1 1 1 1 1 1 1 
1 1 1 1 1 1 1 1 1 
1 1 1 1 1 1 1 1 1 
1 1 1 1 1 1 1 1 1 
1 1 1 1 1 1 1 1 1 
1 1 1 1 1 1 1 2 1 
1 1 1 1 2 1 1 1 1 
1 1 1 1 1 1 1 1 1 
1 1 1 1 1 1 1 2 1 
1 2 1 1 1 1 2 1 1 
1 1 1 1 1 1 1 1 1 
1 1 1 1 1 1 1 1 1 
1 1 1 1 1 1 1 1 1 
1 1 1 1 1 1 1 1 1 
1 2 1 2 1 1 1 1 1 
1 1 1 1 1 1 1 1 1 
1 1 1 1 1 1 1 1 1 
1 1 1 1 1 1 1 1 1 
1 1 1 1 1 1 1 1 1 
1 1 1 1 1 1 1 1 1 
1 1 1 1 1 1 1 1 1 
1 1 1 1 1 1 1 1 1 
1 1 1 1 1 1 1 1 1 
1 1 1 1 1 1 2 1 1 
1 1 1 1 1 1 1 1 1 
1 1 1 1 1 1 1 1 1 
1 1 1 1 1 1 2 1 1 
1 1 1 2 1 1 2 1 1 
1 1 1 1 1 1 1 1 4 
2 2 1 3 1 1 1 1 1 
1 1 1 2 1 1 1 1 1 
1 1 1 1 1 1 1 1 1 

i 3 648 int
0 0 0 0 0 0 0 0 0 
0 0 0 0 0 0 0 0 0 
0 0 0 0 0 0 0 0 0 
0 0 0 0 0 0 0 0 0 
0 0 0 0 0 0 0 0 0 
0 0 0 0 0 0 0 0 0 
0 0 0 0 0 0 0 0 0 
0 0 0 0 0 0 0 0 0 
0 0 0 0 0 0 0 0 0 
0 0 0 0 0 0 0 0 0 
0 0 0 0 0 0 0 0 0 
0 0 0 0 0 0 0 0 0 
0 0 0 0 0 0 0 0 0 
0 0 0 0 0 0 0 0 0 
0 0 0 0 0 0 0 0 0 
0 0 0 0 0 0 0 0 0 
0 0 0 0 0 0 0 0 0 
0 0 0 0 0 0 0 0 0 
0 0 0 0 0 0 0 0 0 
0 0 0 0 0 0 0 0 0 
0 0 0 0 0 0 0 0 0 
0 0 0 0 0 0 0 0 0 
0 0 0 0 0 0 0 0 0 
0 0 0 0 0 0 0 0 0 
0 0 0 0 0 0 0 0 0 
0 0 0 0 0 0 0 0 0 
0 0 0 0 0 0 0 0 0 
0 0 0 0 0 0 0 0 0 
0 0 0 0 0 0 0 0 0 
0 0 0 0 0 0 0 0 0 
0 0 0 0 0 0 0 0 0 
0 0 0 0 0 0 0 0 0 
0 0 0 0 0 0 0 0 0 
0 0 0 0 0 0 0 0 0 
0 0 0 0 0 0 0 0 0 
0 0 0 0 0 0 0 0 0 
0 0 0 0 0 0 0 0 0 
0 0 0 0 0 0 0 0 0 
0 0 0 0 0 0 0 0 0 
0 0 0 0 0 0 0 0 0 
0 0 0 0 0 0 0 0 0 
0 0 0 0 0 0 0 0 0 
0 0 0 0 0 0 0 0 0 
0 0 0 0 0 0 0 0 0 
0 0 0 0 0 0 0 0 0 
0 0 0 0 0 0 0 0 0 
0 0 0 0 0 0 0 0 0 
0 0 0 0 0 0 0 0 0 
0 0 0 0 0 0 0 0 0 
0 0 0 0 0 0 0 0 0 
0 0 0 0 0 0 0 0 0 
0 0 0 0 0 0 0 0 0 
0 0 0 0 0 0 0 0 0 
0 0 0 0 0 0 0 0 0 
0 0 0 0 0 0 0 0 0 
0 0 0 0 0 0 0 0 0 
0 0 0 0 0 0 0 0 0 
0 0 0 0 0 0 0 0 0 
0 0 0 0 0 0 0 0 0 
0 0 0 0 0 0 0 0 0 
0 0 0 0 0 0 0 0 0 
0 0 0 0 0 0 0 0 0 
0 0 0 0 0 0 0 0 0 
0 0 0 0 0 0 0 0 0 
0 0 0 0 0 0 0 0 0 
0 0 0 0 0 0 0 0 0 
0 0 0 0 0 0 0 0 0 
0 0 0 0 0 0 0 0 0 
0 0 0 0 0 0 0 0 0 
0 0 0 0 0 0 0 0 0 
0 0 0 0 0 0 0 0 0 
0 0 0 0 0 0 0 0 0 
0 0 0 0 0 0 0 0 0 
0 0 0 0 0 0 0 0 0 
0 0 0 0 0 0 0 0 0 
0 0 0 0 0 0 0 0 0 
0 0 0 0 0 0 0 0 0 
0 0 0 0 0 0 0 0 0 
0 0 0 0 0 0 0 0 0 
0 0 0 0 0 0 0 0 0 
0 0 0 0 0 0 0 0 0 
0 0 0 0 0 0 0 0 0 
0 0 0 0 0 0 0 0 0 
0 0 0 0 0 0 0 0 0 
0 0 0 0 0 0 0 0 0 
0 0 0 0 0 0 0 0 0 
0 0 0 0 0 0 0 0 0 
0 0 0 0 0 0 0 0 0 
0 0 0 0 0 0 0 0 0 
0 0 0 0 0 0 0 0 0 
0 0 0 0 0 0 0 0 0 
0 0 0 0 0 0 0 0 0 
0 0 0 0 0 0 0 0 0 
0 0 0 0 0 0 0 0 0 
0 0 0 0 0 0 0 0 0 
0 0 0 0 0 0 0 0 0 
0 0 0 0 0 0 0 0 0 
0 0 0 0 0 0 0 0 0 
0 0 0 0 0 0 0 0 0 
0 0 0 0 0 0 0 0 0 
0 0 0 0 0 0 0 0 0 
0 0 0 0 0 0 0 0 0 
0 0 0 0 0 0 0 0 0 
0 0 0 0 0 0 0 0 0 
0 0 0 0 0 0 0 0 0 
0 0 0 0 0 0 0 0 0 
0 0 0 0 0 0 0 0 0 
0 0 0 0 0 0 0 0 0 
0 0 0 0 0 0 0 0 0 
0 0 0 0 0 0 0 0 0 
0 0 0 0 0 0 0 0 0 
0 0 0 0 0 0 0 0 0 
0 0 0 0 0 0 0 0 0 
0 0 0 0 0 0 0 0 0 
0 0 0 0 0 0 0 0 0 
0 0 0 0 0 0 0 0 0 
0 0 0 0 0 0 0 0 0 
0 0 0 0 0 0 0 0 0 
0 0 0 0 0 0 0 0 0 
0 0 0 0 0 0 0 0 0 
0 0 0 0 0 0 0 0 0 
0 0 0 0 0 0 0 0 0 
0 0 0 0 0 0 0 0 0 
0 0 0 0 0 0 0 0 0 
0 0 0 0 0 0 0 0 0 
0 0 0 0 0 0 0 0 0 
0 0 0 0 0 0 0 0 0 
0 0 0 0 0 0 0 0 0 
0 0 0 0 0 0 0 0 0 
0 0 0 0 0 0 0 0 0 
0 0 0 0 0 0 0 0 0 
0 0 0 0 0 0 0 0 0 
0 0 0 0 0 0 0 0 0 
0 0 0 0 0 0 0 0 0 
0 0 0 0 0 0 0 0 0 
0 0 0 0 0 0 0 0 0 
0 0 0 0 0 0 0 0 0 
0 0 0 0 0 0 0 0 0 
0 0 0 0 0 0 0 0 0 
0 0 0 0 0 0 0 0 0 
0 0 0 0 0 0 0 0 0 
0 0 0 0 0 0 0 0 0 
0 0 0 0 0 0 0 0 0 
0 0 0 0 0 0 0 0 0 
0 0 0 0 0 0 0 0 0 
0 0 0 0 0 0 0 0 0 
0 0 0 0 0 0 0 0 0 
0 0 0 0 0 0 0 0 0 
0 0 0 0 0 0 0 0 0 
0 0 0 0 0 0 0 0 0 
0 0 0 0 0 0 0 0 0 
0 0 0 0 0 0 0 0 0 
0 0 0 0 0 0 0 0 0 
0 0 0 0 0 0 0 0 0 
0 0 0 0 0 0 0 0 0 
0 0 0 0 0 0 0 0 0 
0 0 0 0 0 0 0 0 0 
0 0 0 0 0 0 0 0 0 
0 0 0 0 0 0 0 0 0 
0 0 0 0 0 0 0 0 0 
0 0 0 0 0 0 0 0 0 
0 0 0 0 0 0 0 0 0 
0 0 0 0 0 0 0 0 0 
0 0 0 0 0 0 0 0 0 
0 0 0 0 0 0 0 0 0 
0 0 0 0 0 0 0 0 0 
0 0 0 0 0 0 0 0 0 
0 0 0 0 0 0 0 0 0 
0 0 0 0 0 0 0 0 0 
0 0 0 0 0 0 0 0 0 
0 0 0 0 0 0 0 0 0 
0 0 0 0 0 0 0 0 0 
0 0 0 0 0 0 0 0 0 
0 0 0 0 0 0 0 0 0 
0 0 0 0 0 0 0 0 0 
0 0 0 0 0 0 0 0 0 
0 0 0 0 0 0 0 0 0 
0 0 0 0 0 0 0 0 0 
0 0 0 0 0 0 0 0 0 
0 0 0 0 0 0 0 0 0 
0 0 0 0 0 0 0 0 0 
0 0 0 0 0 0 0 0 0 
0 0 0 0 0 0 0 0 0 
0 0 0 0 0 0 0 0 0 
0 0 0 0 0 0 0 0 0 
0 0 0 0 0 0 0 0 0 
0 0 0 0 0 0 0 0 0 
0 0 0 0 0 0 0 0 0 
0 0 0 0 0 0 0 0 0 
0 0 0 0 0 0 0 0 0 
0 0 0 0 0 0 0 0 0 
0 0 0 0 0 0 0 0 0 
0 0 0 0 0 0 0 0 0 
0 0 0 0 0 0 0 0 0 
0 0 0 0 0 0 0 0 0 
0 0 0 0 0 0 0 0 0 
0 0 0 0 0 0 0 0 0 
0 0 0 0 0 0 0 0 0 
0 0 0 0 0 0 0 0 0 
0 0 0 0 0 0 0 0 0 
0 0 0 0 0 0 0 0 0 
0 0 0 0 0 0 0 0 0 
0 0 0 0 0 0 0 0 0 
0 0 0 0 0 0 0 0 0 
0 0 0 0 0 0 0 0 0 
0 0 0 0 0 0 0 0 0 
0 0 0 0 0 0 0 0 0 
0 0 0 0 0 0 0 0 0 
0 0 0 0 0 0 0 0 0 
0 0 0 0 0 0 0 0 0 
0 0 0 0 0 0 0 0 0 
0 0 0 0 0 0 0 0 0 
0 0 0 0 0 0 0 0 0 
0 0 0 0 0 0 0 0 0 
0 0 0 0 0 0 0 0 0 
0 0 0 0 0 0 0 0 0 

v 3 648 double
0 0 3.2413285931e-14 0 0 -0.0018158577653 0 0 -1.5605880046e-14 
0 0 3.2413285929e-14 0 0 8.0432447451e-14 0 0 3.2413290076e-14 
0 0 -0.0045790518687 0 0 0.029991620736 0 0 -0.011354494444 
0 0 8.0432447445e-14 0 0 0.019363921263 0 0 8.0432447453e-14 
0 0 -0.00084145998558 0 0 -0.022420801691 0 0 0.076066138493 
0 0 0.028250841144 0 0 0.00025562473344 0 0 8.0432443483e-14 
0 0 8.0432443462e-14 0 0 0.00037770302046 0 0 -0.092894741238 
0 0 8.0432443502e-14 0 0 -0.012794755079 0 0 0.022147581517 
0 0 0.012124092007 0 0 -0.017805228533 0 0 -1.5605880166e-14 
0 0 -0.022243128301 0 0 8.0432447366e-14 0 0 0.02609779936 
0 0 8.0432443586e-14 0 0 -1.5605880071e-14 0 0 8.0432443653e-14 
0 0 -0.0044449549655 0 0 -0.00062424862149 0 0 8.0432443558e-14 
0 0 3.241328596e-14 0 0 8.0432443647e-14 0 0 3.2413286072e-14 
0 0 3.2413289944e-14 0 0 0.0026668480944 0 0 3.2413286006e-14 
0 0 0.015230828141 0 0 -1.5605879955e-14 0 0 -0.012095496332 
0 0 -0.0026154806041 0 0 -0.0080456721268 0 0 -0.0076542360929 
0 0 3.2413290075e-14 0 0 3.2413286102e-14 0 0 -0.031622622698 
0 0 0.033240865137 0 0 8.0432447578e-14 0 0 -0.030754477519 
0 0 -0.002366012138 0 0 8.0432443439e-14 0 0 -0.00031448185134 
0 0 -0.010426463215 0 0 0.0097056899964 0 0 8.043244362e-14 
0 0 8.0432447536e-14 0 0 3.241329003e-14 0 0 -0.017797577973 
0 0 -0.00021401956504 0 0 3.2413289948e-14 0 0 3.2413290061e-14 
0 0 -0.01971849611 0 0 0.0037981052851 0 0 8.0432443566e-14 
0 0 0.010091586026 0 0 3.2413289938e-14 0 0 0.028728130022 
0 0 8.0432447378e-14 0 0 8.0432447469e-14 0 0 3.2413289892e-14 
0 0 8.0432443568e-14 0 0 0.018924595327 0 0 0.00064335791257 
0 0 0.019950614001 0 0 3.2413290012e-14 0 0 0.024143496567 
0 0 8.0432443464e-14 0 0 8.043244351e-14 0 0 3.2413286112e-14 
0 0 -0.0020351084449 0 0 3.2413289856e-14 0 0 0.0054122692708 
0 0 -0.031954346861 0 0 -0.00179088011 0 0 0.0070324997651 
0 0 8.0432443435e-14 0 0 3.2413289933e-14 0 0 3.2413285961e-14 
0 0 0.0069496486301 0 0 0.012593555665 0 0 0.032770809948 
0 0 0.025956711013 0 0 0.0013352307988 0 0 8.0432447432e-14 
0 0 0.0066776874458 0 0 -0.003576103939 0 0 0.008083663624 
0 0 0.012437186944 0 0 3.241328999e-14 0 0 3.2413289859e-14 
0 0 8.043244354e-14 0 0 -1.5605880089e-14 0 0 0.025201945526 
0 0 8.0432447426e-14 0 0 0.029556644571 0 0 3.2413289861e-14 
0 0 0.034455825887 0 0 8.0432443599e-14 0 0 -1.5605879998e-14 
0 0 8.0432443456e-14 0 0 -1.5605880009e-14 0 0 3.2413289963e-14 
0 0 -0.023508476499 0 0 8.0432443441e-14 0 0 -0.0013904854487 
0 0 3.2413290005e-14 0 0 -1.5605879989e-14 0 0 3.2413286097e-14 
0 0 0.090361712646 0 0 3.2413289993e-14 0 0 -0.0044514903861 
0 0 3.2413289869e-14 0 0 8.0432447375e-14 0 0 0.0084984731773 
0 0 8.0432443553e-14 0 0 -0.017858095251 0 0 0.0013383600887 
0 0 3.2413289871e-14 0 0 8.0432447444e-14 0 0 -0.0011987021 
0 0 0.0044194614815 0 0 0.026357428922 0 0 0.0014234963775 
0 0 3.241328991e-14 0 0 -0.010580297252 0 0 0.0032779206515 
0 0 3.2413286155e-14 0 0 -0.022187253957 0 0 -1.5605880133e-14 
0 0 0.0089189282139 0 0 0.00030050010247 0 0 8.0432443486e-14 
0 0 3.2413290023e-14 0 0 8.043244346e-14 0 0 8.0432443472e-14 
0 0 3.2413289933e-14 0 0 0.016185204515 0 0 3.2413289993e-14 
0 0 8.0432447411e-14 0 0 3.241328986e-14 0 0 8.0432447466e-14 
0 0 -1.5605879967e-14 0 0 8.0432443515e-14 0 0 0.024189515263 
0 0 8.0432443474e-14 0 0 -0.0067617582454 0 0 3.2413290061e-14 
0 0 8.0432447569e-14 0 0 0.018485584796 0 0 -0.019452013883 
0 0 0.0042873303598 0 0 0.022819911087 0 0 8.0432443602e-14 
0 0 -0.028400857227 0 0 0.0031265882323 0 0 -0.0037346674126 
0 0 -1.5605880027e-14 0 0 -0.029353095616 0 0 6.5617178481e-05 
0 0 8.0432443515e-14 0 0 3.2413285982e-14 0 0 8.043244364e-14 
0 0 8.043244362e-14 0 0 8.0432447427e-14 0 0 8.0432447573e-14 
0 0 8.0432443539e-14 0 0 0.007495189793 0 0 0.016074451135 
0 0 0.036447004499 0 0 3.2413289846e-14 0 0 -1.5540293764e-14 
0 0 8.0432443644e-14 0 0 -1.5605880028e-14 0 0 -6.3625037734e-14 
0 0 -0.024821322475 0 0 -0.018141704401 0 0 8.0432443608e-14 
0 0 0.021006398912 0 0 0.008943001299 0 0 8.0432443463e-14 
0 0 0.00013516933999 0 0 8.0432443597e-14 0 0 0.018677711742 
0 0 0.037919533068 0 0 3.2413286008e-14 0 0 3.2413289914e-14 
0 0 0.017149437707 0 0 3.2413290042e-14 0 0 -0.035665866261 
0 0 8.0432447404e-14 0 0 -1.560588404e-14 0 0 -0.016636815627 
0 0 8.0432443503e-14 0 0 3.24132899e-14 0 0 0.020179849646 
0 0 3.2413290015e-14 0 0 3.2413289968e-14 0 0 8.0432443482e-14 
0 0 -0.029509338928 0 0 8.0432443528e-14 0 0 -1.5605879994e-14 
0 0 3.2413290066e-14 0 0 0.025254092027 0 0 0.017125544099 
0 0 8.0432443491e-14 0 0 8.0432443537e-14 0 0 -0.0026570625424 
0 0 8.0432443641e-14 0 0 -0.022891229768 0 0 3.2413290052e-14 
0 0 8.0432443498e-14 0 0 3.2413285952e-14 0 0 0.0032747934202 
0 0 8.0432443535e-14 0 0 8.0432447553e-14 0 0 8.0432443665e-14 
0 0 8.0432447559e-14 0 0 3.2413289844e-14 0 0 8.0432447454e-14 
0 0 -0.017968967546 0 0 8.0432447373e-14 0 0 3.2413289885e-14 
0 0 -1.5605880048e-14 0 0 -0.081428334313 0 0 0.029135935616 
0 0 -0.00095418914407 0 0 -0.011545779165 0 0 3.2413285933e-14 
0 0 -1.5605880065e-14 0 0 8.0432443639e-14 0 0 3.2413289894e-14 
0 0 3.2413286133e-14 0 0 -0.029059749505 0 0 0.0088056798493 
0 0 3.241328603e-14 0 0 3.2413286034e-14 0 0 3.2413290022e-14 
0 0 -1.5605884023e-14 0 0 8.0432443489e-14 0 0 8.0432447365e-14 
0 0 3.2413290005e-14 0 0 0.0035704781257 0 0 8.0432443515e-14 
0 0 -1.5203217318e-08 0 0 8.0432443578e-14 0 0 -0.0057515427553 
0 0 -0.0059989154885 0 0 -0.033623679632 0 0 8.0432447533e-14 
0 0 8.0432443443e-14 0 0 3.2413285951e-14 0 0 0.028615380869 
0 0 3.2413290037e-14 0 0 -0.0044254332759 0 0 8.0432447588e-14 
0 0 8.043244739e-14 0 0 8.0432443526e-14 0 0 -0.016805617555 
0 0 -0.0085998462305 0 0 0.022769232003 0 0 0.011462343456 
0 0 -0.00097033473178 0 0 8.0432443646e-14 0 0 8.0432447503e-14 
0 0 -6.362503774e-14 0 0 0.011070757481 0 0 -0.014619628133 
0 0 8.0432443436e-14 0 0 8.0432447496e-14 0 0 8.043244366e-14 
0 0 0.026175968953 0 0 0.014393491293 0 0 8.0432443654e-14 
0 0 6.5909646052e-05 0 0 -0.010300787905 0 0 8.0432443467e-14 
0 0 0.081890403235 0 0 8.0432443436e-14 0 0 3.2413290025e-14 
0 0 -0.0062675107243 0 0 3.2413290061e-14 0 0 -0.00019525288532 
0 0 8.0432447543e-14 0 0 -0.0011858757664 0 0 -0.00072522781068 
0 0 3.2413285938e-14 0 0 8.0432447477e-14 0 0 -1.5605883967e-14 
0 0 -0.023567491559 0 0 8.043244349e-14 0 0 0.020571967664 
0 0 -1.5605880059e-14 0 0 8.0432447524e-14 0 0 -0.024779978572 
0 0 -0.017803989812 0 0 -0.03047071392 0 0 8.0432443459e-14 
0 0 -0.0011047867079 0 0 0.02609989588 0 0 0.022182615726 
0 0 0.00284504475 0 0 3.2413286037e-14 0 0 8.0432447382e-14 
0 0 0.023002517946 0 0 0.0067364958477 0 0 -0.0049572120705 
0 0 -1.5605880188e-14 0 0 -0.013365721812 0 0 3.2413289937e-14 
0 0 8.0432447571e-14 0 0 3.2413286009e-14 0 0 3.2413289873e-14 
0 0 -6.3625037569e-14 0 0 0.017916262128 0 0 0.0098409905006 
0 0 3.241329005e-14 0 0 8.0432447478e-14 0 0 8.0432447579e-14 
0 0 8.0432443667e-14 0 0 0.011648296956 0 0 -0.022853718154 
0 0 8.0432443539e-14 0 0 3.2413290049e-14 0 0 -0.026640526163 
0 0 8.0432447534e-14 0 0 8.0432443664e-14 0 0 -0.0099563671624 
0 0 3.2413290066e-14 0 0 5.8047050086e-07 0 0 3.2413285974e-14 
0 0 3.2413289863e-14 0 0 0.0030563106701 0 0 -1.5605880153e-14 
0 0 -1.5605880032e-14 0 0 8.0432447369e-14 0 0 8.0432447474e-14 
0 0 -0.0069027030252 0 0 8.0432447568e-14 0 0 -6.3625037731e-14 
0 0 0.014279240387 0 0 0.024734065879 0 0 -0.0065922132131 
0 0 0.020296075908 0 0 8.043244754e-14 0 0 8.0432443508e-14 
0 0 -0.003498325507 0 0 0.067154849041 0 0 0.027472099164 
0 0 3.2413285921e-14 0 0 0.005227564798 0 0 8.0432447538e-14 
0 0 8.0432443667e-14 0 0 0.014591321136 0 0 3.2413289871e-14 
0 0 0.01452017093 0 0 8.0432443615e-14 0 0 -0.023889542649 
0 0 3.2413289953e-14 0 0 8.0432443615e-14 0 0 -0.025664821325 
0 0 -0.023616435908 0 0 8.0432447367e-14 0 0 3.2413285923e-14 
0 0 -0.016921393436 0 0 -1.5605880156e-14 0 0 8.0432447546e-14 
0 0 3.2413289965e-14 0 0 0.023416000529 0 0 0.075227502076 
0 0 8.0432447525e-14 0 0 8.04324474e-14 0 0 8.0432443473e-14 
0 0 8.0432443557e-14 0 0 8.0432443442e-14 0 0 3.241328594e-14 
0 0 0.00010109508748 0 0 8.0432443544e-14 0 0 3.2413290002e-14 
0 0 -0.0016661403733 0 0 0.030790073235 0 0 -0.0018933910448 
0 0 -0.026876138125 0 0 0.0084834752206 0 0 -1.5605880188e-14 
0 0 0.0042188539675 0 0 0.075107994886 0 0 -0.00042876688084 
0 0 -0.00014450812799 0 0 -0.067948100505 0 0 -0.055060657886 
0 0 -0.0074217996388 0 0 0.0018682664778 0 0 -0.061439795229 
0 0 0.0021567124909 0 0 -0.21580722677 0 0 -0.086694045257 
0 0 -0.090912660349 0 0 0.021772902001 0 0 -0.0067084282025 
0 0 -0.053417531613 0 0 0.0047356616363 0 0 -0.0059381079958 
0 0 -0.087285252712 0 0 0.010587948598 0 0 0.035265373382 
0 0 -0.07879627355 0 0 0.084068044041 0 0 0.0016332954245 
0 0 0.073276658079 0 0 -0.072735670453 0 0 0.0027412256899 
0 0 0.062150840718 0 0 -0.068193843865 0 0 0.0040644903532 
0 0 -0.0089311186526 0 0 -0.051769485717 0 0 0.05473710041 
0 0 -0.086089996426 0 0 -0.0046854025385 0 0 -0.072385502886 
0 0 0.069098690025 0 0 -0.073361761006 0 0 -0.089584637003 
0 0 0.010829895793 0 0 -0.018018602475 0 0 -0.085276913602 
0 0 -0.044250723642 0 0 0.028145719782 0 0 0.045014855104 
0 0 -0.065962870484 0 0 -0.016150507208 0 0 0.065070284398 
0 0 0.031109235006 0 0 -0.069915877412 0 0 -0.014331205201 
0 0 -0.077114921508 0 0 -0.092935388767 0 0 0.019839164589 
0 0 -0.080507585614 0 0 -0.0013145925342 0 0 -0.067416297387 
0 0 -0.073210374926 0 0 -0.067924929713 0 0 -0.081075933879 
0 0 0.0090066724411 0 0 -0.089606294866 0 0 -0.067149390329 
0 0 -0.0054467210306 0 0 -0.068705155426 0 0 -0.083711145467 
0 0 -0.071615367884 0 0 -0.072652977738 0 0 -0.071590412752 
0 0 -0.071630452467 0 0 -0.084477209019 0 0 -0.069678244899 
0 0 0.07766161219 0 0 -0.076204907244 0 0 -0.010693900572 
0 0 -0.2284291738 0 0 -0.0095890984391 0 0 -0.029988821419 
0 0 -0.066362417228 0 0 -0.083197050322 0 0 0.037474852407 
0 0 -0.06892041866 0 0 -0.057911673444 0 0 0.070067999407 
0 0 -0.069323364446 0 0 -0.080564624766 0 0 0.0047929633881 
0 0 -0.074547254715 0 0 -0.039436213037 0 0 -0.071797398472 
0 0 -0.013638830664 0 0 0.025959962248 0 0 -0.017736464332 
0 0 -0.031923077804 0 0 -0.070717548786 0 0 -0.048371242668 
0 0 -0.22328083729 0 0 -0.052461513289 0 0 -0.067426543461 
0 0 0.006617935954 0 0 -0.049595897018 0 0 -0.080297170837 
0 0 -0.052630353543 0 0 -0.066760367557 0 0 -0.020705380946 
0 0 0.078118555119 0 0 0.016621512612 0 0 0.085464449903 
0 0 0.048065931677 0 0 -0.077727042225 0 0 -0.041740227165 
0 0 -0.044936781733 0 0 -0.045853013527 0 0 0.046725851634 
0 0 -0.055432485982 0 0 -0.016228098854 0 0 -0.052195922478 
0 0 -0.018864202355 0 0 -0.058084898594 0 0 -0.065802900361 
0 0 -0.029858663987 0 0 -0.035272609321 0 0 -0.038409153289 
0 0 -0.05753938597 0 0 -0.040724454705 0 0 -0.014602146253 
0 0 -0.0489614518 0 0 -0.014478548997 0 0 -0.034011912852 
0 0 0.022229666528 0 0 -0.22355951384 0 0 -0.021758885444 
0 0 -0.034020775297 0 0 -0.060744569912 0 0 -0.046009547627 
0 0 -0.027806686363 0 0 -0.0031566123088 0 0 -0.033393609378 
0 0 -0.008409214487 0 0 -0.054312026299 0 0 -0.056493287123 
0 0 0.034050563862 0 0 0.0011897567802 0 0 -0.043854873471 
0 0 -0.022606392631 0 0 -0.04661396641 0 0 -0.041784698488 
0 0 -0.047023024825 0 0 0.016316434291 0 0 -0.046073174804 
0 0 -0.032556050306 0 0 0.053085380965 0 0 0.034807482934 
0 0 -0.055481048165 0 0 0.0081952106068 0 0 0.053745571402 
0 0 -0.027692068666 0 0 -0.047011225753 0 0 -0.028018054215 
0 0 0.040201301965 0 0 -0.023438807493 0 0 0.015408698772 
0 0 -0.034307339497 0 0 -0.050969580763 0 0 -0.041661679609 
0 0 -0.058121456172 0 0 -0.011950807624 0 0 -0.041797033764 
0 0 0.021155793647 0 0 -0.04072818213 0 0 -0.026926011339 
0 0 -0.063390734209 0 0 0.017928548241 0 0 0.01458732502 
0 0 -0.08867653981 0 0 -0.058147256798 0 0 -0.062818551663 
0 0 -0.04728440651 0 0 0.02820063258 0 0 -0.044241237022 
0 0 -0.038267982207 0 0 -0.041804250493 0 0 -0.029833065256 
0 0 0.016948449646 0 0 -0.054357709775 0 0 -0.027972698104 
0 0 -0.043748075549 0 0 -0.044163426381 0 0 -0.018252757736 
0 0 0.016851188042 0 0 -0.0016675611743 0 0 -0.057347620851 
0 0 0.016284027281 0 0 -0.060228007268 0 0 0.0062336564348 
0 0 -0.016393731081 0 0 -0.044892012924 0 0 -0.046583727026 
0 0 0.0085950851578 0 0 0.00083184727107 0 0 -0.028082235454 
0 0 0.045082175033 0 0 -0.23129723678 0 0 0.0077058951664 
0 0 -0.0095647678368 0 0 -0.024058426197 0 0 -0.023630176804 
0 0 -0.27294586009 0 0 0.0072710166977 0 0 -0.014451301578 
0 0 -0.058356019874 0 0 0.015457038335 0 0 0.031077641981 
0 0 -0.014982310716 0 0 -0.013540405953 0 0 -0.016434418571 
0 0 -0.22521597536 0 0 -0.013463320106 0 0 -0.013312143135 
0 0 -0.01315832525 0 0 -0.23044366144 0 0 -0.32199504578 
0 0 0.027093735091 0 0 0.02748073921 0 0 -0.19026803531 
0 0 -0.024511596147 0 0 -0.18602863337 0 0 -0.18618435183 
0 0 -0.20058123795 0 0 -0.20489740086 0 0 -0.19911645091 
0 0 -0.18920982921 0 0 -0.17898466546 0 0 -0.15577257602 
0 0 -0.19029076093 0 0 -0.16225234095 0 0 -0.18400672759 
0 0 -0.17191558089 0 0 -0.16896707566 0 0 -0.16167037831 
0 0 -0.17309053747 0 0 -0.17043804847 0 0 -0.154182232 
0 0 -0.14090003027 0 0 -0.13861761701 0 0 -0.13714943959 
0 0 -0.12154848722 0 0 -0.15588282868 0 0 -0.10944560645 

f 3 648 double
0 0 0 0 0 -1.7425367252e-10 0 0 0 
0 0 0 0 0 0 0 0 0 
0 0 -1.7425367252e-10 0 0 -1.7425367252e-10 0 0 -1.7425367252e-10 
0 0 0 0 0 -1.7425367252e-10 0 0 0 
0 0 -1.7425367252e-10 0 0 -1.7425367252e-10 0 0 -1.7425367252e-10 
0 0 -1.7425367252e-10 0 0 -1.7425367252e-10 0 0 0 
0 0 0 0 0 -1.7425367252e-10 0 0 -1.7425367252e-10 
0 0 0 0 0 -1.7425367252e-10 0 0 -1.7425367252e-10 
0 0 -1.7425367252e-10 0 0 -1.7425367252e-10 0 0 0 
0 0 -1.7425367252e-10 0 0 0 0 0 -1.7425367252e-10 
0 0 0 0 0 0 0 0 0 
0 0 -1.7425367252e-10 0 0 -1.7425367252e-10 0 0 0 
0 0 0 0 0 0 0 0 0 
0 0 0 0 0 -1.7425367252e-10 0 0 0 
0 0 -1.7425367252e-10 0 0 0 0 0 -1.7425367252e-10 
0 0 -1.7425367252e-10 0 0 -1.7425367252e-10 0 0 -1.7425367252e-10 
0 0 0 0 0 0 0 0 -1.7425367252e-10 
0 0 -1.7425367252e-10 0 0 0 0 0 -1.7425367252e-10 
0 0 -1.7425367252e-10 0 0 0 0 0 -1.7425367252e-10 
0 0 -1.7425367252e-10 0 0 -1.7425367252e-10 0 0 0 
0 0 0 0 0 0 0 0 -1.7425367252e-10 
0 0 -1.7425367252e-10 0 0 0 0 0 0 
0 0 -1.7425367252e-10 0 0 -1.7425367252e-10 0 0 0 
0 0 -1.7425367252e-10 0 0 0 0 0 -1.7425367252e-10 
0 0 0 0 0 0 0 0 0 
0 0 0 0 0 -1.7425367252e-10 0 0 -1.7425367252e-10 
0 0 -1.7425367252e-10 0 0 0 0 0 -1.7425367252e-10 
0 0 0 0 0 0 0 0 0 
0 0 -1.7425367252e-10 0 0 0 0 0 -1.7425367252e-10 
0 0 -1.7425367252e-10 0 0 -1.7425367252e-10 0 0 -1.7425367252e-10 
0 0 0 0 0 0 0 0 0 
0 0 -1.7425367252e-10 0 0 -1.7425367252e-10 0 0 -1.7425367252e-10 
0 0 -1.7425367252e-10 0 0 -1.7425367252e-10 0 0 0 
0 0 -1.7425367252e-10 0 0 -1.7425367252e-10 0 0 -1.7425367252e-10 
0 0 -1.7425367252e-10 0 0 0 0 0 0 
0 0 0 0 0 0 0 0 -1.7425367252e-10 
0 0 0 0 0 -1.7425367252e-10 0 0 0 
0 0 -1.7425367252e-10 0 0 0 0 0 0 
0 0 0 0 0 0 0 0 0 
0 0 -1.7425367252e-10 0 0 0 0 0 -1.7425367252e-10 
0 0 0 0 0 0 0 0 0 
0 0 -1.7425367252e-10 0 0 0 0 0 -1.7425367252e-10 
0 0 0 0 0 0 0 0 -1.7425367252e-10 
0 0 0 0 0 -1.7425367252e-10 0 0 -1.7425367252e-10 
0 0 0 0 0 0 0 0 -1.7425367252e-10 
0 0 -1.7425367252e-10 0 0 -1.7425367252e-10 0 0 -1.7425367252e-10 
0 0 0 0 0 -1.7425367252e-10 0 0 -1.7425367252e-10 
0 0 0 0 0 -1.7425367252e-10 0 0 0 
0 0 -1.7425367252e-10 0 0 -1.7425367252e-10 0 0 0 
0 0 0 0 0 0 0 0 0 
0 0 0 0 0 -1.7425367252e-10 0 0 0 
0 0 0 0 0 0 0 0 0 
0 0 0 0 0 0 0 0 -1.7425367252e-10 
0 0 0 0 0 -1.7425367252e-10 0 0 0 
0 0 0 0 0 -1.7425367252e-10 0 0 -1.7425367252e-10 
0 0 -1.7425367252e-10 0 0 -1.7425367252e-10 0 0 0 
0 0 -1.7425367252e-10 0 0 -8.9019973083e-09 0 0 -1.7425367252e-10 
0 0 0 0 0 -1.7425367252e-10 0 0 -1.7425367252e-10 
0 0 0 0 0 0 0 0 0 
0 0 0 0 0 0 0 0 0 
0 0 0 0 0 -8.9019973083e-09 0 0 -1.7425367252e-10 
0 0 -1.7425367252e-10 0 0 0 0 0 -4.1914792602e-22 
0 0 0 0 0 0 0 0 0 
0 0 -1.7425367252e-10 0 0 -1.7425367252e-10 0 0 0 
0 0 -1.7425367252e-10 0 0 -1.7425367252e-10 0 0 0 
0 0 -1.7425367252e-10 0 0 0 0 0 -1.7425367252e-10 
0 0 -1.7425367252e-10 0 0 0 0 0 0 
0 0 -1.7425367252e-10 0 0 0 0 0 -1.7425367252e-10 
0 0 0 0 0 0 0 0 -1.7425367252e-10 
0 0 0 0 0 0 0 0 -1.7425367252e-10 
0 0 0 0 0 0 0 0 0 
0 0 -1.7425367252e-10 0 0 0 0 0 0 
0 0 0 0 0 -1.7425367252e-10 0 0 -1.7425367252e-10 
0 0 0 0 0 0 0 0 -1.7425367252e-10 
0 0 0 0 0 -1.7425367252e-10 0 0 0 
0 0 0 0 0 0 0 0 -1.7425367252e-10 
0 0 0 0 0 0 0 0 0 
0 0 0 0 0 0 0 0 0 
0 0 -1.7425367252e-10 0 0 0 0 0 0 
0 0 0 0 0 -1.7425367252e-10 0 0 -1.7425367252e-10 
0 0 -1.7425367252e-10 0 0 -1.7425367252e-10 0 0 0 
0 0 0 0 0 0 0 0 0 
0 0 0 0 0 -1.7425367252e-10 0 0 -1.7425367252e-10 
0 0 0 0 0 0 0 0 0 
0 0 0 0 0 0 0 0 0 
0 0 0 0 0 -1.7425367252e-10 0 0 0 
0 0 8.2459848059e-13 0 0 0 0 0 -1.7425367252e-10 
0 0 -1.7425367252e-10 0 0 -1.7425367252e-10 0 0 0 
0 0 0 0 0 0 0 0 -1.7425367252e-10 
0 0 0 0 0 -1.7425367252e-10 0 0 0 
0 0 0 0 0 0 0 0 -1.7425367252e-10 
0 0 -1.7425367252e-10 0 0 -1.7425367252e-10 0 0 -1.7425367252e-10 
0 0 -1.7425367252e-10 0 0 0 0 0 0 
0 0 0 0 0 -1.7425367252e-10 0 0 -1.7425367252e-10 
0 0 0 0 0 0 0 0 0 
0 0 -1.7425367252e-10 0 0 -1.7425367252e-10 0 0 0 
0 0 -1.7425367252e-10 0 0 -1.7425367252e-10 0 0 0 
0 0 -1.7425367252e-10 0 0 0 0 0 0 
0 0 -1.7425367252e-10 0 0 0 0 0 -1.7425367252e-10 
0 0 0 0 0 -1.7425367252e-10 0 0 -1.7425367252e-10 
0 0 0 0 0 0 0 0 0 
0 0 -1.7425367252e-10 0 0 0 0 0 -1.7425367252e-10 
0 0 0 0 0 0 0 0 -1.7425367252e-10 
0 0 -1.7425367252e-10 0 0 -1.7425367252e-10 0 0 0 
0 0 -1.7425367252e-10 0 0 -1.7425367252e-10 0 0 -1.7425367252e-10 
0 0 -1.7425367252e-10 0 0 0 0 0 0 
0 0 -1.7425367252e-10 0 0 -8.9019973083e-09 0 0 -1.7425367252e-10 
0 0 0 0 0 -1.7425367252e-10 0 0 0 
0 0 0 0 0 0 0 0 0 
0 0 0 0 0 -1.7425367252e-10 0 0 -1.7425367252e-10 
0 0 0 0 0 0 0 0 0 
0 0 0 0 0 -1.7425367252e-10 0 0 -1.7425367252e-10 
0 0 0 0 0 0 0 0 -1.7425367252e-10 
0 0 0 0 0 0 0 0 -1.7425367252e-10 
0 0 0 0 0 3.7215493287e-11 0 0 0 
0 0 0 0 0 -1.7425367252e-10 0 0 0 
0 0 0 0 0 0 0 0 0 
0 0 -1.7425367252e-10 0 0 0 0 0 0 
0 0 -1.7425367252e-10 0 0 -1.7425367252e-10 0 0 -1.7425367252e-10 
0 0 -1.7425367252e-10 0 0 0 0 0 0 
0 0 -1.7425367252e-10 0 0 -1.7425367252e-10 0 0 -1.7425367252e-10 
0 0 0 0 0 -1.7425367252e-10 0 0 0 
0 0 0 0 0 -1.7425367252e-10 0 0 0 
0 0 -1.7425367252e-10 0 0 0 0 0 -1.7425367252e-10 
0 0 0 0 0 0 0 0 -1.7425367252e-10 
0 0 -1.7425367252e-10 0 0 0 0 0 0 
0 0 -1.7425367252e-10 0 0 0 0 0 0 
0 0 0 0 0 -1.7425367252e-10 0 0 -1.7425367252e-10 
0 0 0 0 0 0 0 0 0 
0 0 0 0 0 0 0 0 0 
0 0 -1.7425367252e-10 0 0 0 0 0 0 
0 0 -1.7425367252e-10 0 0 -1.7425367252e-10 0 0 -1.7425367252e-10 
0 0 -1.7425367252e-10 0 0 -1.7425367252e-10 0 0 0 
0 0 -1.7425367252e-10 0 0 -1.7425367252e-10 0 0 -1.7425367252e-10 
0 0 -1.7425367252e-10 0 0 -1.7425367252e-10 0 0 -1.7425367252e-10 
0 0 -1.7425367252e-10 0 0 -1.7425367252e-10 0 0 -1.7425367252e-10 
0 0 -1.7425367252e-10 0 0 -1.7425367252e-10 0 0 -1.7425367252e-10 
0 0 -1.7425367252e-10 0 0 -8.9019973083e-09 0 0 -1.7425367252e-10 
0 0 -1.7425367252e-10 0 0 -1.7425367252e-10 0 0 -1.7425367252e-10 
0 0 -1.7425367252e-10 0 0 -8.9019973083e-09 0 0 -1.7425367252e-10 
0 0 -1.7425367252e-10 0 0 -1.7425367252e-10 0 0 -1.7425367252e-10 
0 0 -1.7425367252e-10 0 0 -1.7425367252e-10 0 0 -1.7425367252e-10 
0 0 -1.7425367252e-10 0 0 -1.7425367252e-10 0 0 -1.7425367252e-10 
0 0 -1.7425367252e-10 0 0 -1.7425367252e-10 0 0 -1.7425367252e-10 
0 0 -1.7425367252e-10 0 0 -1.7425367252e-10 0 0 -1.7425367252e-10 
0 0 -1.7425367252e-10 0 0 -1.7425367252e-10 0 0 -1.7425367252e-10 
0 0 -1.7425367252e-10 0 0 -8.9019973083e-09 0 0 -1.7425367252e-10 
0 0 -1.7425367252e-10 0 0 -8.9019973083e-09 0 0 -1.7425367252e-10 
0 0 -1.7425367252e-10 0 0 -1.7425367252e-10 0 0 -1.7425367252e-10 
0 0 -8.9019973083e-09 0 0 -1.7425367252e-10 0 0 -1.7425367252e-10 
0 0 -1.7425367252e-10 0 0 -1.7425367252e-10 0 0 -1.7425367252e-10 
0 0 -1.7425367252e-10 0 0 -1.7425367252e-10 0 0 -1.7425367252e-10 
0 0 -1.7425367252e-10 0 0 -1.7425367252e-10 0 0 -1.7425367252e-10 
0 0 -1.7425367252e-10 0 0 -1.7425367252e-10 0 0 -1.7425367252e-10 
0 0 -1.7425367252e-10 0 0 -1.7425367252e-10 0 0 -1.7425367252e-10 
0 0 -1.7425367252e-10 0 0 -1.7425367252e-10 0 0 -1.7425367252e-10 
0 0 -1.7425367252e-10 0 0 -1.7425367252e-10 0 0 -1.7425367252e-10 
0 0 -1.7425367252e-10 0 0 -1.7425367252e-10 0 0 -1.7425367252e-10 
0 0 -1.7425367252e-10 0 0 -1.7425367252e-10 0 0 -1.7425367252e-10 
0 0 -1.7425367252e-10 0 0 -1.7425367252e-10 0 0 -1.7425367252e-10 
0 0 -1.7425367252e-10 0 0 -1.7425367252e-10 0 0 -1.7425367252e-10 
0 0 -1.7425367252e-10 0 0 -1.7425367252e-10 0 0 -1.7425367252e-10 
0 0 -1.7425367252e-10 0 0 -8.9019973083e-09 0 0 -1.7425367252e-10 
0 0 -8.9019973083e-09 0 0 -1.7425367252e-10 0 0 -1.7425367252e-10 
0 0 -1.7425367252e-10 0 0 -1.7425367252e-10 0 0 -1.7425367252e-10 
0 0 -1.7425367252e-10 0 0 -1.7425367252e-10 0 0 -1.7425367252e-10 
0 0 -1.7425367252e-10 0 0 -1.7425367252e-10 0 0 -1.7425367252e-10 
0 0 -1.7425367252e-10 0 0 -1.7425367252e-10 0 0 -1.7425367252e-10 
0 0 -1.7425367252e-10 0 0 -1.7425367252e-10 0 0 -1.7425367252e-10 
0 0 -1.7425367252e-10 0 0 -1.7425367252e-10 0 0 -1.7425367252e-10 
0 0 -1.7425367252e-10 0 0 -1.7425367252e-10 0 0 -1.7425367252e-10 
0 0 -1.7425367252e-10 0 0 -1.7425367252e-10 0 0 -1.7425367252e-10 
0 0 -1.7425367252e-10 0 0 -1.7425367252e-10 0 0 -1.7425367252e-10 
0 0 -1.7425367252e-10 0 0 -1.7425367252e-10 0 0 -1.7425367252e-10 
0 0 -1.7425367252e-10 0 0 -1.7425367252e-10 0 0 -1.7425367252e-10 
0 0 -1.7425367252e-10 0 0 -1.7425367252e-10 0 0 -1.7425367252e-10 
0 0 -1.7425367252e-10 0 0 -1.7425367252e-10 0 0 -1.7425367252e-10 
0 0 -1.7425367252e-10 0 0 -1.7425367252e-10 0 0 -1.7425367252e-10 
0 0 -1.7425367252e-10 0 0 -1.7425367252e-10 0 0 -1.7425367252e-10 
0 0 -1.7425367252e-10 0 0 -1.7425367252e-10 0 0 -1.7425367252e-10 
0 0 -1.7425367252e-10 0 0 -1.7425367252e-10 0 0 -1.7425367252e-10 
0 0 -1.7425367252e-10 0 0 -1.7425367252e-10 0 0 -1.7425367252e-10 
0 0 -1.7425367252e-10 0 0 -1.7425367252e-10 0 0 -1.7425367252e-10 
0 0 -1.7425367252e-10 0 0 -1.7425367252e-10 0 0 -1.7425367252e-10 
0 0 -1.7425367252e-10 0 0 -1.7425367252e-10 0 0 -1.7425367252e-10 
0 0 -1.7425367252e-10 0 0 -1.7425367252e-10 0 0 -1.7425367252e-10 
0 0 -1.7425367252e-10 0 0 -1.7425367252e-10 0 0 -1.7425367252e-10 
0 0 -1.7425367252e-10 0 0 -1.7425367252e-10 0 0 -1.7425367252e-10 
0 0 -1.7425367252e-10 0 0 -1.7425367252e-10 0 0 -1.7425367252e-10 
0 0 -1.7425367252e-10 0 0 -1.7425367252e-10 0 0 -1.7425367252e-10 
0 0 -1.7425367252e-10 0 0 -1.7425367252e-10 0 0 -1.7425367252e-10 
0 0 -8.9019973083e-09 0 0 -1.7425367252e-10 0 0 -1.7425367252e-10 
0 0 -1.7425367252e-10 0 0 -1.7425367252e-10 0 0 -1.7425367252e-10 
0 0 -1.7425367252e-10 0 0 -1.7425367252e-10 0 0 -1.7425367252e-10 
0 0 -1.7425367252e-10 0 0 -1.7425367252e-10 0 0 -1.7425367252e-10 
0 0 -1.7425367252e-10 0 0 -1.7425367252e-10 0 0 -1.7425367252e-10 
0 0 -1.7425367252e-10 0 0 -1.7425367252e-10 0 0 -1.7425367252e-10 
0 0 -1.7425367252e-10 0 0 -1.7425367252e-10 0 0 -1.7425367252e-10 
0 0 -1.7425367252e-10 0 0 -1.7425367252e-10 0 0 -1.7425367252e-10 
0 0 -1.7425367252e-10 0 0 -1.7425367252e-10 0 0 -1.7425367252e-10 
0 0 -8.9019973083e-09 0 0 -1.7425367252e-10 0 0 -1.7425367252e-10 
0 0 -1.7425367252e-10 0 0 -1.7425367252e-10 0 0 -1.7425367252e-10 
0 0 -8.9019973083e-09 0 0 -1.7425367252e-10 0 0 -1.7425367252e-10 
0 0 -8.9019973083e-09 0 0 -1.7425367252e-10 0 0 -1.7425367252e-10 
0 0 -1.7425367252e-10 0 0 -1.7425367252e-10 0 0 -1.7425367252e-10 
0 0 -1.7425367252e-10 0 0 -1.7425367252e-10 0 0 -1.7425367252e-10 
0 0 -1.7425367252e-10 0 0 -1.7425367252e-10 0 0 -5.3297119368e-07 
0 0 -8.9019973083e-09 0 0 -8.9019973083e-09 0 0 -1.7425367252e-10 
0 0 -6.8918688838e-08 0 0 -1.7425367252e-10 0 0 -1.7425367252e-10 
0 0 -1.7425367252e-10 0 0 -1.7425367252e-10 0 0 -1.7425367252e-10 
0 0 -1.7425367252e-10 0 0 -1.7425367252e-10 0 0 -1.7425367252e-10 
0 0 -8.9019973083e-09 0 0 -1.7425367252e-10 0 0 -1.7425367252e-10 
0 0 -1.7425367252e-10 0 0 -1.7425367252e-10 0 0 -1.7425367252e-10 
0 0 -1.7425367252e-10 0 0 -1.7425367252e-10 0 0 -1.7425367252e-10 
0 0 -1.7425367252e-10 0 0 -1.7425367252e-10 0 0 -1.7425367252e-10 
0 0 -1.7425367252e-10 0 0 -1.7425367252e-10 0 0 -1.7425367252e-10 

radius 1 648 double
2e-05 2e-05 2e-05 2e-05 2e-05 2e-05 2e-05 2e-05 2e-05 
2e-05 2e-05 2e-05 2e-05 2e-05 2e-05 2e-05 2e-05 2e-05 
2e-05 2e-05 2e-05 2e-05 2e-05 2e-05 2e-05 2e-05 2e-05 
2e-05 2e-05 2e-05 2e-05 2e-05 2e-05 2e-05 2e-05 2e-05 
2e-05 2e-05 2e-05 2e-05 2e-05 2e-05 2e-05 2e-05 2e-05 
2e-05 2e-05 2e-05 2e-05 2e-05 2e-05 2e-05 2e-05 2e-05 
2e-05 2e-05 2e-05 2e-05 2e-05 2e-05 2e-05 2e-05 2e-05 
2e-05 2e-05 2e-05 2e-05 2e-05 2e-05 2e-05 2e-05 2e-05 
2e-05 2e-05 2e-05 2e-05 2e-05 2e-05 2e-05 2e-05 2e-05 
2e-05 2e-05 2e-05 2e-05 2e-05 2e-05 2e-05 2e-05 2e-05 
2e-05 2e-05 2e-05 2e-05 2e-05 2e-05 2e-05 2e-05 2e-05 
2e-05 2e-05 2e-05 2e-05 2e-05 2e-05 2e-05 2e-05 2e-05 
2e-05 2e-05 2e-05 2e-05 2e-05 2e-05 2e-05 2e-05 2e-05 
2e-05 2e-05 2e-05 2e-05 2e-05 2e-05 2e-05 2e-05 2e-05 
2e-05 2e-05 2e-05 2e-05 2e-05 2e-05 2e-05 2e-05 2e-05 
2e-05 2e-05 2e-05 2e-05 2e-05 2e-05 2e-05 2e-05 2e-05 
2e-05 2e-05 2e-05 2e-05 2e-05 2e-05 2e-05 2e-05 2e-05 
2e-05 2e-05 2e-05 2e-05 2e-05 2e-05 2e-05 2e-05 2e-05 
2e-05 2e-05 2e-05 2e-05 2e-05 2e-05 2e-05 7.5e-05 2e-05 
2e-05 2e-05 2e-05 2e-05 2e-05 2e-05 2e-05 2e-05 2e-05 
2e-05 7.5e-05 2e-05 2e-05 2e-05 2e-05 2e-05 2e-05 2e-05 
2e-05 2e-05 2e-05 2e-05 2e-05 2e-05 2e-05 2e-05 2e-05 
2e-05 2e-05 2e-05 2e-05 2e-05 2e-05 2e-05 2e-05 2e-05 
2e-05 2e-05 2e-05 2e-05 2e-05 2e-05 2e-05 2e-05 2e-05 
2e-05 2e-05 2e-05 2e-05 2e-05 2e-05 2e-05 2e-05 2e-05 
2e-05 2e-05 2e-05 2e-05 2e-05 2e-05 2e-05 2e-05 2e-05 
2e-05 2e-05 2e-05 2e-05 2e-05 2e-05 2e-05 2e-05 2e-05 
2e-05 2e-05 2e-05 2e-05 2e-05 2e-05 2e-05 2e-05 2e-05 
2e-05 2e-05 2e-05 2e-05 2e-05 2e-05 2e-05 2e-05 2e-05 
2e-05 2e-05 2e-05 2e-05 2e-05 2e-05 2e-05 2e-05 2e-05 
2e-05 2e-05 2e-05 2e-05 2e-05 2e-05 2e-05 2e-05 2e-05 
2e-05 2e-05 2e-05 2e-05 2e-05 2e-05 2e-05 2e-05 2e-05 
2e-05 2e-05 2e-05 2e-05 2e-05 2e-05 2e-05 2e-05 2e-05 
2e-05 2e-05 2e-05 2e-05 2e-05 2e-05 2e-05 2e-05 2e-05 
2e-05 2e-05 2e-05 2e-05 2e-05 2e-05 2e-05 2e-05 2e-05 
2e-05 2e-05 2e-05 2e-05 7.5e-05 2e-05 2e-05 2e-05 2e-05 
2e-05 2e-05 2e-05 2e-05 2e-05 2e-05 2e-05 2e-05 2e-05 
2e-05 2e-05 2e-05 2e-05 2e-05 2e-05 2e-05 2e-05 2e-05 
2e-05 2e-05 2e-05 2e-05 2e-05 2e-05 2e-05 2e-05 2e-05 
2e-05 2e-05 2e-05 2e-05 2e-05 2e-05 2e-05 2e-05 2e-05 
2e-05 2e-05 2e-05 2e-05 2e-05 2e-05 2e-05 2e-05 2e-05 
2e-05 2e-05 2e-05 2e-05 2e-05 2e-05 2e-05 2e-05 2e-05 
2e-05 2e-05 2e-05 2e-05 2e-05 2e-05 2e-05 2e-05 2e-05 
2e-05 2e-05 2e-05 2e-05 2e-05 2e-05 2e-05 2e-05 2e-05 
2e-05 2e-05 2e-05 2e-05 2e-05 2e-05 2e-05 2e-05 2e-05 
2e-05 2e-05 2e-05 2e-05 2e-05 2e-05 2e-05 7.5e-05 2e-05 
2e-05 2e-05 2e-05 2e-05 7.5e-05 2e-05 2e-05 2e-05 2e-05 
2e-05 2e-05 2e-05 2e-05 2e-05 2e-05 2e-05 2e-05 2e-05 
2e-05 2e-05 2e-05 2e-05 2e-05 2e-05 2e-05 7.5e-05 2e-05 
2e-05 7.5e-05 2e-05 2e-05 2e-05 2e-05 7.5e-05 2e-05 2e-05 
2e-05 2e-05 2e-05 2e-05 2e-05 2e-05 2e-05 2e-05 2e-05 
2e-05 2e-05 2e-05 2e-05 2e-05 2e-05 2e-05 2e-05 2e-05 
2e-05 2e-05 2e-05 2e-05 2e-05 2e-05 2e-05 2e-05 2e-05 
2e-05 2e-05 2e-05 2e-05 2e-05 2e-05 2e-05 2e-05 2e-05 
2e-05 7.5e-05 2e-05 7.5e-05 2e-05 2e-05 2e-05 2e-05 2e-05 
2e-05 2e-05 2e-05 2e-05 2e-05 2e-05 2e-05 2e-05 2e-05 
2e-05 2e-05 2e-05 2e-05 2e-05 2e-05 2e-05 2e-05 2e-05 
2e-05 2e-05 2e-05 2e-05 2e-05 2e-05 2e-05 2e-05 2e-05 
2e-05 2e-05 2e-05 2e-05 2e-05 2e-05 2e-05 2e-05 2e-05 
2e-05 2e-05 2e-05 2e-05 2e-05 2e-05 2e-05 2e-05 2e-05 
2e-05 2e-05 2e-05 2e-05 2e-05 2e-05 2e-05 2e-05 2e-05 
2e-05 2e-05 2e-05 2e-05 2e-05 2e-05 2e-05 2e-05 2e-05 
2e-05 2e-05 2e-05 2e-05 2e-05 2e-05 2e-05 2e-05 2e-05 
2e-05 2e-05 2e-05 2e-05 2e-05 2e-05 7.5e-05 2e-05 2e-05 
2e-05 2e-05 2e-05 2e-05 2e-05 2e-05 2e-05 2e-05 2e-05 
2e-05 2e-05 2e-05 2e-05 2e-05 2e-05 2e-05 2e-05 2e-05 
2e-05 2e-05 2e-05 2e-05 2e-05 2e-05 7.5e-05 2e-05 2e-05 
2e-05 2e-05 2e-05 7.5e-05 2e-05 2e-05 7.5e-05 2e-05 2e-05 
2e-05 2e-05 2e-05 2e-05 2e-05 2e-05 2e-05 2e-05 0.0003 
7.5e-05 7.5e-05 2e-05 0.00015 2e-05 2e-05 2e-05 2e-05 2e-05 
2e-05 2e-05 2e-05 7.5e-05 2e-05 2e-05 2e-05 2e-05 2e-05 
2e-05 2e-05 2e-05 2e-05 2e-05 2e-05 2e-05 2e-05 2e-05 

omega 3 648 double
0 0 0 0 0 0 0 0 0 
0 0 0 0 0 0 0 0 0 
0 0 0 0 0 0 0 0 0 
0 0 0 0 0 0 0 0 0 
0 0 0 0 0 0 0 0 0 
0 0 0 0 0 0 0 0 0 
0 0 0 0 0 0 0 0 0 
0 0 0 0 0 0 0 0 0 
0 0 0 0 0 0 0 0 0 
0 0 0 0 0 0 0 0 0 
0 0 0 0 0 0 0 0 0 
0 0 0 0 0 0 0 0 0 
0 0 0 0 0 0 0 0 0 
0 0 0 0 0 0 0 0 0 
0 0 0 0 0 0 0 0 0 
0 0 0 0 0 0 0 0 0 
0 0 0 0 0 0 0 0 0 
0 0 0 0 0 0 0 0 0 
0 0 0 0 0 0 0 0 0 
0 0 0 0 0 0 0 0 0 
0 0 0 0 0 0 0 0 0 
0 0 0 0 0 0 0 0 0 
0 0 0 0 0 0 0 0 0 
0 0 0 0 0 0 0 0 0 
0 0 0 0 0 0 0 0 0 
0 0 0 0 0 0 0 0 0 
0 0 0 0 0 0 0 0 0 
0 0 0 0 0 0 0 0 0 
0 0 0 0 0 0 0 0 0 
0 0 0 0 0 0 0 0 0 
0 0 0 0 0 0 0 0 0 
0 0 0 0 0 0 0 0 0 
0 0 0 0 0 0 0 0 0 
0 0 0 0 0 0 0 0 0 
0 0 0 0 0 0 0 0 0 
0 0 0 0 0 0 0 0 0 
0 0 0 0 0 0 0 0 0 
0 0 0 0 0 0 0 0 0 
0 0 0 0 0 0 0 0 0 
0 0 0 0 0 0 0 0 0 
0 0 0 0 0 0 0 0 0 
0 0 0 0 0 0 0 0 0 
0 0 0 0 0 0 0 0 0 
0 0 0 0 0 0 0 0 0 
0 0 0 0 0 0 0 0 0 
0 0 0 0 0 0 0 0 0 
0 0 0 0 0 0 0 0 0 
0 0 0 0 0 0 0 0 0 
0 0 0 0 0 0 0 0 0 
0 0 0 0 0 0 0 0 0 
0 0 0 0 0 0 0 0 0 
0 0 0 0 0 0 0 0 0 
0 0 0 0 0 0 0 0 0 
0 0 0 0 0 0 0 0 0 
0 0 0 0 0 0 0 0 0 
0 0 0 0 0 0 0 0 0 
0 0 0 0 0 0 0 0 0 
0 0 0 0 0 0 0 0 0 
0 0 0 0 0 0 0 0 0 
0 0 0 0 0 0 0 0 0 
0 0 0 0 0 0 0 0 0 
0 0 0 0 0 0 0 0 0 
0 0 0 0 0 0 0 0 0 
0 0 0 0 0 0 0 0 0 
0 0 0 0 0 0 0 0 0 
0 0 0 0 0 0 0 0 0 
0 0 0 0 0 0 0 0 0 
0 0 0 0 0 0 0 0 0 
0 0 0 0 0 0 0 0 0 
0 0 0 0 0 0 0 0 0 
0 0 0 0 0 0 0 0 0 
0 0 0 0 0 0 0 0 0 
0 0 0 0 0 0 0 0 0 
0 0 0 0 0 0 0 0 0 
0 0 0 0 0 0 0 0 0 
0 0 0 0 0 0 0 0 0 
0 0 0 0 0 0 0 0 0 
0 0 0 0 0 0 0 0 0 
0 0 0 0 0 0 0 0 0 
0 0 0 0 0 0 0 0 0 
0 0 0 0 0 0 0 0 0 
0 0 0 0 0 0 0 0 0 
0 0 0 0 0 0 0 0 0 
0 0 0 0 0 0 0 0 0 
0 0 0 0 0 0 0 0 0 
0 0 0 0 0 0 0 0 0 
0 0 0 0 0 0 0 0 0 
0 0 0 0 0 0 0 0 0 
0 0 0 0 0 0 0 0 0 
0 0 0 0 0 0 0 0 0 
0 0 0 0 0 0 0 0 0 
0 0 0 0 0 0 0 0 0 
0 0 0 0 0 0 0 0 0 
0 0 0 0 0 0 0 0 0 
0 0 0 0 0 0 0 0 0 
0 0 0 0 0 0 0 0 0 
0 0 0 0 0 0 0 0 0 
0 0 0 0 0 0 0 0 0 
0 0 0 0 0 0 0 0 0 
0 0 0 0 0 0 0 0 0 
0 0 0 0 0 0 0 0 0 
0 0 0 0 0 0 0 0 0 
0 0 0 0 0 0 0 0 0 
0 0 0 0 0 0 0 0 0 
0 0 0 0 0 0 0 0 0 
0 0 0 0 0 0 0 0 0 
0 0 0 0 0 0 0 0 0 
0 0 0 0 0 0 0 0 0 
0 0 0 0 0 0 0 0 0 
0 0 0 0 0 0 0 0 0 
0 0 0 0 0 0 0 0 0 
0 0 0 0 0 0 0 0 0 
0 0 0 0 0 0 0 0 0 
0 0 0 0 0 0 0 0 0 
0 0 0 0 0 0 0 0 0 
0 0 0 0 0 0 0 0 0 
0 0 0 0 0 0 0 0 0 
0 0 0 0 0 0 0 0 0 
0 0 0 0 0 0 0 0 0 
0 0 0 0 0 0 0 0 0 
0 0 0 0 0 0 0 0 0 
0 0 0 0 0 0 0 0 0 
0 0 0 0 0 0 0 0 0 
0 0 0 0 0 0 0 0 0 
0 0 0 0 0 0 0 0 0 
0 0 0 0 0 0 0 0 0 
0 0 0 0 0 0 0 0 0 
0 0 0 0 0 0 0 0 0 
0 0 0 0 0 0 0 0 0 
0 0 0 0 0 0 0 0 0 
0 0 0 0 0 0 0 0 0 
0 0 0 0 0 0 0 0 0 
0 0 0 0 0 0 0 0 0 
0 0 0 0 0 0 0 0 0 
0 0 0 0 0 0 0 0 0 
0 0 0 0 0 0 0 0 0 
0 0 0 0 0 0 0 0 0 
0 0 0 0 0 0 0 0 0 
0 0 0 0 0 0 0 0 0 
0 0 0 0 0 0 0 0 0 
0 0 0 0 0 0 0 0 0 
0 0 0 0 0 0 0 0 0 
0 0 0 0 0 0 0 0 0 
0 0 0 0 0 0 0 0 0 
0 0 0 0 0 0 0 0 0 
0 0 0 0 0 0 0 0 0 
0 0 0 0 0 0 0 0 0 
0 0 0 0 0 0 0 0 0 
0 0 0 0 0 0 0 0 0 
0 0 0 0 0 0 0 0 0 
0 0 0 0 0 0 0 0 0 
0 0 0 0 0 0 0 0 0 
0 0 0 0 0 0 0 0 0 
0 0 0 0 0 0 0 0 0 
0 0 0 0 0 0 0 0 0 
0 0 0 0 0 0 0 0 0 
0 0 0 0 0 0 0 0 0 
0 0 0 0 0 0 0 0 0 
0 0 0 0 0 0 0 0 0 
0 0 0 0 0 0 0 0 0 
0 0 0 0 0 0 0 0 0 
0 0 0 0 0 0 0 0 0 
0 0 0 0 0 0 0 0 0 
0 0 0 0 0 0 0 0 0 
0 0 0 0 0 0 0 0 0 
0 0 0 0 0 0 0 0 0 
0 0 0 0 0 0 0 0 0 
0 0 0 0 0 0 0 0 0 
0 0 0 0 0 0 0 0 0 
0 0 0 0 0 0 0 0 0 
0 0 0 0 0 0 0 0 0 
0 0 0 0 0 0 0 0 0 
0 0 0 0 0 0 0 0 0 
0 0 0 0 0 0 0 0 0 
0 0 0 0 0 0 0 0 0 
0 0 0 0 0 0 0 0 0 
0 0 0 0 0 0 0 0 0 
0 0 0 0 0 0 0 0 0 
0 0 0 0 0 0 0 0 0 
0 0 0 0 0 0 0 0 0 
0 0 0 0 0 0 0 0 0 
0 0 0 0 0 0 0 0 0 
0 0 0 0 0 0 0 0 0 
0 0 0 0 0 0 0 0 0 
0 0 0 0 0 0 0 0 0 
0 0 0 0 0 0 0 0 0 
0 0 0 0 0 0 0 0 0 
0 0 0 0 0 0 0 0 0 
0 0 0 0 0 0 0 0 0 
0 0 0 0 0 0 0 0 0 
0 0 0 0 0 0 0 0 0 
0 0 0 0 0 0 0 0 0 
0 0 0 0 0 0 0 0 0 
0 0 0 0 0 0 0 0 0 
0 0 0 0 0 0 0 0 0 
0 0 0 0 0 0 0 0 0 
0 0 0 0 0 0 0 0 0 
0 0 0 0 0 0 0 0 0 
0 0 0 0 0 0 0 0 0 
0 0 0 0 0 0 0 0 0 
0 0 0 0 0 0 0 0 0 
0 0 0 0 0 0 0 0 0 
0 0 0 0 0 0 0 0 0 
0 0 0 0 0 0 0 0 0 
0 0 0 0 0 0 0 0 0 
0 0 0 0 0 0 0 0 0 
0 0 0 0 0 0 0 0 0 
0 0 0 0 0 0 0 0 0 
0 0 0 0 0 0 0 0 0 
0 0 0 0 0 0 0 0 0 
0 0 0 0 0 0 0 0 0 
0 0 0 0 0 0 0 0 0 
0 0 0 0 0 0 0 0 0 
0 0 0 0 0 0 0 0 0 
0 0 0 0 0 0 0 0 0 
0 0 0 0 0 0 0 0 0 

fx_mag_viz 1 648 double
0 0 0 0 0 0 0 0 0 
0 0 0 0 0 0 0 0 0 
0 0 0 0 0 0 0 0 0 
0 0 0 0 0 0 0 0 0 
0 0 0 0 0 0 0 0 0 
0 0 0 0 0 0 0 0 0 
0 0 0 0 0 0 0 0 0 
0 0 0 0 0 0 0 0 0 
0 0 0 0 0 0 0 0 0 
0 0 0 0 0 0 0 0 0 
0 0 0 0 0 0 0 0 0 
0 0 0 0 0 0 0 0 0 
0 0 0 0 0 0 0 0 0 
0 0 0 0 0 0 0 0 0 
0 0 0 0 0 0 0 0 0 
0 0 0 0 0 0 0 0 0 
0 0 0 0 0 0 0 0 0 
0 0 0 0 0 0 0 0 0 
0 0 0 0 0 0 0 0 0 
0 0 0 0 0 0 0 0 0 
0 0 0 0 0 0 0 0 0 
0 0 0 0 0 0 0 0 0 
0 0 0 0 0 0 0 0 0 
0 0 0 0 0 0 0 0 0 
0 0 0 0 0 0 0 0 0 
0 0 0 0 0 0 0 0 0 
0 0 0 0 0 0 0 0 0 
0 0 0 0 0 0 0 0 0 
0 0 0 0 0 0 0 0 0 
0 0 0 0 0 0 0 0 0 
0 0 0 0 0 0 0 0 0 
0 0 0 0 0 0 0 0 0 
0 0 0 0 0 0 0 0 0 
0 0 0 0 0 0 0 0 0 
0 0 0 0 0 0 0 0 0 
0 0 0 0 0 0 0 0 0 
0 0 0 0 0 0 0 0 0 
0 0 0 0 0 0 0 0 0 
0 0 0 0 0 0 0 0 0 
0 0 0 0 0 0 0 0 0 
0 0 0 0 0 0 0 0 0 
0 0 0 0 0 0 0 0 0 
0 0 0 0 0 0 0 0 0 
0 0 0 0 0 0 0 0 0 
0 0 0 0 0 0 0 0 0 
0 0 0 0 0 0 0 0 0 
0 0 0 0 0 0 0 0 0 
0 0 0 0 0 0 0 0 0 
0 0 0 0 0 0 0 0 0 
0 0 0 0 0 0 0 0 0 
0 0 0 0 0 0 0 0 0 
0 0 0 0 0 0 0 0 0 
0 0 0 0 0 0 0 0 0 
0 0 0 0 0 0 0 0 0 
0 0 0 0 0 0 0 0 0 
0 0 0 0 0 0 0 0 0 
0 0 0 0 0 0 0 0 0 
0 0 0 0 0 0 0 0 0 
0 0 0 0 0 0 0 0 0 
0 0 0 0 0 0 0 0 0 
0 0 0 0 0 0 0 0 0 
0 0 0 0 0 0 0 0 0 
0 0 0 0 0 0 0 0 0 
0 0 0 0 0 0 0 0 0 
0 0 0 0 0 0 0 0 0 
0 0 0 0 0 0 0 0 0 
0 0 0 0 0 0 0 0 0 
0 0 0 0 0 0 0 0 0 
0 0 0 0 0 0 0 0 0 
0 0 0 0 0 0 0 0 0 
0 0 0 0 0 0 0 0 0 
0 0 0 0 0 0 0 0 0 

fy_mag_viz 1 648 double
0 0 0 0 0 0 0 0 0 
0 0 0 0 0 0 0 0 0 
0 0 0 0 0 0 0 0 0 
0 0 0 0 0 0 0 0 0 
0 0 0 0 0 0 0 0 0 
0 0 0 0 0 0 0 0 0 
0 0 0 0 0 0 0 0 0 
0 0 0 0 0 0 0 0 0 
0 0 0 0 0 0 0 0 0 
0 0 0 0 0 0 0 0 0 
0 0 0 0 0 0 0 0 0 
0 0 0 0 0 0 0 0 0 
0 0 0 0 0 0 0 0 0 
0 0 0 0 0 0 0 0 0 
0 0 0 0 0 0 0 0 0 
0 0 0 0 0 0 0 0 0 
0 0 0 0 0 0 0 0 0 
0 0 0 0 0 0 0 0 0 
0 0 0 0 0 0 0 0 0 
0 0 0 0 0 0 0 0 0 
0 0 0 0 0 0 0 0 0 
0 0 0 0 0 0 0 0 0 
0 0 0 0 0 0 0 0 0 
0 0 0 0 0 0 0 0 0 
0 0 0 0 0 0 0 0 0 
0 0 0 0 0 0 0 0 0 
0 0 0 0 0 0 0 0 0 
0 0 0 0 0 0 0 0 0 
0 0 0 0 0 0 0 0 0 
0 0 0 0 0 0 0 0 0 
0 0 0 0 0 0 0 0 0 
0 0 0 0 0 0 0 0 0 
0 0 0 0 0 0 0 0 0 
0 0 0 0 0 0 0 0 0 
0 0 0 0 0 0 0 0 0 
0 0 0 0 0 0 0 0 0 
0 0 0 0 0 0 0 0 0 
0 0 0 0 0 0 0 0 0 
0 0 0 0 0 0 0 0 0 
0 0 0 0 0 0 0 0 0 
0 0 0 0 0 0 0 0 0 
0 0 0 0 0 0 0 0 0 
0 0 0 0 0 0 0 0 0 
0 0 0 0 0 0 0 0 0 
0 0 0 0 0 0 0 0 0 
0 0 0 0 0 0 0 0 0 
0 0 0 0 0 0 0 0 0 
0 0 0 0 0 0 0 0 0 
0 0 0 0 0 0 0 0 0 
0 0 0 0 0 0 0 0 0 
0 0 0 0 0 0 0 0 0 
0 0 0 0 0 0 0 0 0 
0 0 0 0 0 0 0 0 0 
0 0 0 0 0 0 0 0 0 
0 0 0 0 0 0 0 0 0 
0 0 0 0 0 0 0 0 0 
0 0 0 0 0 0 0 0 0 
0 0 0 0 0 0 0 0 0 
0 0 0 0 0 0 0 0 0 
0 0 0 0 0 0 0 0 0 
0 0 0 0 0 0 0 0 0 
0 0 0 0 0 0 0 0 0 
0 0 0 0 0 0 0 0 0 
0 0 0 0 0 0 0 0 0 
0 0 0 0 0 0 0 0 0 
0 0 0 0 0 0 0 0 0 
0 0 0 0 0 0 0 0 0 
0 0 0 0 0 0 0 0 0 
0 0 0 0 0 0 0 0 0 
0 0 0 0 0 0 0 0 0 
0 0 0 0 0 0 0 0 0 
0 0 0 0 0 0 0 0 0 

fz_mag_viz 1 648 double
0 0 0 0 0 0 0 0 0 
0 0 0 0 0 0 0 0 0 
0 0 0 0 0 0 0 0 0 
0 0 0 0 0 0 0 0 0 
0 0 0 0 0 0 0 0 0 
0 0 0 0 0 0 0 0 0 
0 0 0 0 0 0 0 0 0 
0 0 0 0 0 0 0 0 0 
0 0 0 0 0 0 0 0 0 
0 0 0 0 0 0 0 0 0 
0 0 0 0 0 0 0 0 0 
0 0 0 0 0 0 0 0 0 
0 0 0 0 0 0 0 0 0 
0 0 0 0 0 0 0 0 0 
0 0 0 0 0 0 0 0 0 
0 0 0 0 0 0 0 0 0 
0 0 0 0 0 0 0 0 0 
0 0 0 0 0 0 0 0 0 
0 0 0 0 0 0 0 0 0 
0 0 0 0 0 0 0 0 0 
0 0 0 0 0 0 0 0 0 
0 0 0 0 0 0 0 0 0 
0 0 0 0 0 0 0 0 0 
0 0 0 0 0 0 0 0 0 
0 0 0 0 0 0 0 0 0 
0 0 0 0 0 0 0 0 0 
0 0 0 0 0 0 0 0 0 
0 0 0 0 0 0 0 0 0 
0 0 0 0 0 0 0 0 0 
0 0 0 0 0 0 0 0 0 
0 0 0 0 0 0 0 0 0 
0 0 0 0 0 0 0 0 0 
0 0 0 0 0 0 0 0 0 
0 0 0 0 0 0 0 0 0 
0 0 0 0 0 0 0 0 0 
0 0 0 0 0 0 0 0 0 
0 0 0 0 0 0 0 0 0 
0 0 0 0 0 0 0 0 0 
0 0 0 0 0 0 0 0 0 
0 0 0 0 0 0 0 0 0 
0 0 0 0 0 0 0 0 0 
0 0 0 0 0 0 0 0 0 
0 0 0 0 0 0 0 0 0 
0 0 0 0 0 0 0 0 0 
0 0 0 0 0 0 0 0 0 
0 0 0 0 0 0 0 0 0 
0 0 0 0 0 0 0 0 0 
0 0 0 0 0 0 0 0 0 
0 0 0 0 0 0 0 0 0 
0 0 0 0 0 0 0 0 0 
0 0 0 0 0 0 0 0 0 
0 0 0 0 0 0 0 0 0 
0 0 0 0 0 0 0 0 0 
0 0 0 0 0 0 0 0 0 
0 0 0 0 0 0 0 0 0 
0 0 0 0 0 0 0 0 0 
0 0 0 0 0 0 0 0 0 
0 0 0 0 0 0 0 0 0 
0 0 0 0 0 0 0 0 0 
0 0 0 0 0 0 0 0 0 
0 0 0 0 0 0 0 0 0 
0 0 0 0 0 0 0 0 0 
0 0 0 0 0 0 0 0 0 
0 0 0 0 0 0 0 0 0 
0 0 0 0 0 0 0 0 0 
0 0 0 0 0 0 0 0 0 
0 0 0 0 0 0 0 0 0 
0 0 0 0 0 0 0 0 0 
0 0 0 0 0 0 0 0 0 
0 0 0 0 0 0 0 0 0 
0 0 0 0 0 0 0 0 0 
0 0 0 0 0 0 0 0 0 

B_magnitude 1 648 double
0 0 0 0 0 0 0 0 0 
0 0 0 0 0 0 0 0 0 
0 0 0 0 0 0 0 0 0 
0 0 0 0 0 0 0 0 0 
0 0 0 0 0 0 0 0 0 
0 0 0 0 0 0 0 0 0 
0 0 0 0 0 0 0 0 0 
0 0 0 0 0 0 0 0 0 
0 0 0 0 0 0 0 0 0 
0 0 0 0 0 0 0 0 0 
0 0 0 0 0 0 0 0 0 
0 0 0 0 0 0 0 0 0 
0 0 0 0 0 0 0 0 0 
0 0 0 0 0 0 0 0 0 
0 0 0 0 0 0 0 0 0 
0 0 0 0 0 0 0 0 0 
0 0 0 0 0 0 0 0 0 
0 0 0 0 0 0 0 0 0 
0 0 0 0 0 0 0 0 0 
0 0 0 0 0 0 0 0 0 
0 0 0 0 0 0 0 0 0 
0 0 0 0 0 0 0 0 0 
0 0 0 0 0 0 0 0 0 
0 0 0 0 0 0 0 0 0 
0 0 0 0 0 0 0 0 0 
0 0 0 0 0 0 0 0 0 
0 0 0 0 0 0 0 0 0 
0 0 0 0 0 0 0 0 0 
0 0 0 0 0 0 0 0 0 
0 0 0 0 0 0 0 0 0 
0 0 0 0 0 0 0 0 0 
0 0 0 0 0 0 0 0 0 
0 0 0 0 0 0 0 0 0 
0 0 0 0 0 0 0 0 0 
0 0 0 0 0 0 0 0 0 
0 0 0 0 0 0 0 0 0 
0 0 0 0 0 0 0 0 0 
0 0 0 0 0 0 0 0 0 
0 0 0 0 0 0 0 0 0 
0 0 0 0 0 0 0 0 0 
0 0 0 0 0 0 0 0 0 
0 0 0 0 0 0 0 0 0 
0 0 0 0 0 0 0 0 0 
0 0 0 0 0 0 0 0 0 
0 0 0 0 0 0 0 0 0 
0 0 0 0 0 0 0 0 0 
0 0 0 0 0 0 0 0 0 
0 0 0 0 0 0 0 0 0 
0 0 0 0 0 0 0 0 0 
0 0 0 0 0 0 0 0 0 
0 0 0 0 0 0 0 0 0 
0 0 0 0 0 0 0 0 0 
0 0 0 0 0 0 0 0 0 
0 0 0 0 0 0 0 0 0 
0 0 0 0 0 0 0 0 0 
0 0 0 0 0 0 0 0 0 
0 0 0 0 0 0 0 0 0 
0 0 0 0 0 0 0 0 0 
0 0 0 0 0 0 0 0 0 
0 0 0 0 0 0 0 0 0 
0 0 0 0 0 0 0 0 0 
0 0 0 0 0 0 0 0 0 
0 0 0 0 0 0 0 0 0 
0 0 0 0 0 0 0 0 0 
0 0 0 0 0 0 0 0 0 
0 0 0 0 0 0 0 0 0 
0 0 0 0 0 0 0 0 0 
0 0 0 0 0 0 0 0 0 
0 0 0 0 0 0 0 0 0 
0 0 0 0 0 0 0 0 0 
0 0 0 0 0 0 0 0 0 
0 0 0 0 0 0 0 0 0 

B_gradient_mag 1 648 double
0 0 0 0 0 0 0 0 0 
0 0 0 0 0 0 0 0 0 
0 0 0 0 0 0 0 0 0 
0 0 0 0 0 0 0 0 0 
0 0 0 0 0 0 0 0 0 
0 0 0 0 0 0 0 0 0 
0 0 0 0 0 0 0 0 0 
0 0 0 0 0 0 0 0 0 
0 0 0 0 0 0 0 0 0 
0 0 0 0 0 0 0 0 0 
0 0 0 0 0 0 0 0 0 
0 0 0 0 0 0 0 0 0 
0 0 0 0 0 0 0 0 0 
0 0 0 0 0 0 0 0 0 
0 0 0 0 0 0 0 0 0 
0 0 0 0 0 0 0 0 0 
0 0 0 0 0 0 0 0 0 
0 0 0 0 0 0 0 0 0 
0 0 0 0 0 0 0 0 0 
0 0 0 0 0 0 0 0 0 
0 0 0 0 0 0 0 0 0 
0 0 0 0 0 0 0 0 0 
0 0 0 0 0 0 0 0 0 
0 0 0 0 0 0 0 0 0 
0 0 0 0 0 0 0 0 0 
0 0 0 0 0 0 0 0 0 
0 0 0 0 0 0 0 0 0 
0 0 0 0 0 0 0 0 0 
0 0 0 0 0 0 0 0 0 
0 0 0 0 0 0 0 0 0 
0 0 0 0 0 0 0 0 0 
0 0 0 0 0 0 0 0 0 
0 0 0 0 0 0 0 0 0 
0 0 0 0 0 0 0 0 0 
0 0 0 0 0 0 0 0 0 
0 0 0 0 0 0 0 0 0 
0 0 0 0 0 0 0 0 0 
0 0 0 0 0 0 0 0 0 
0 0 0 0 0 0 0 0 0 
0 0 0 0 0 0 0 0 0 
0 0 0 0 0 0 0 0 0 
0 0 0 0 0 0 0 0 0 
0 0 0 0 0 0 0 0 0 
0 0 0 0 0 0 0 0 0 
0 0 0 0 0 0 0 0 0 
0 0 0 0 0 0 0 0 0 
0 0 0 0 0 0 0 0 0 
0 0 0 0 0 0 0 0 0 
0 0 0 0 0 0 0 0 0 
0 0 0 0 0 0 0 0 0 
0 0 0 0 0 0 0 0 0 
0 0 0 0 0 0 0 0 0 
0 0 0 0 0 0 0 0 0 
0 0 0 0 0 0 0 0 0 
0 0 0 0 0 0 0 0 0 
0 0 0 0 0 0 0 0 0 
0 0 0 0 0 0 0 0 0 
0 0 0 0 0 0 0 0 0 
0 0 0 0 0 0 0 0 0 
0 0 0 0 0 0 0 0 0 
0 0 0 0 0 0 0 0 0 
0 0 0 0 0 0 0 0 0 
0 0 0 0 0 0 0 0 0 
0 0 0 0 0 0 0 0 0 
0 0 0 0 0 0 0 0 0 
0 0 0 0 0 0 0 0 0 
0 0 0 0 0 0 0 0 0 
0 0 0 0 0 0 0 0 0 
0 0 0 0 0 0 0 0 0 
0 0 0 0 0 0 0 0 0 
0 0 0 0 0 0 0 0 0 
0 0 0 0 0 0 0 0 0 

