# vtk DataFile Version 5.1
Generated by LIGGGHTS
ASCII
DATASET POLYDATA
POINTS 648 float
-0.0428902 -0.0449088 0.00102 -0.0317519 -0.0446953 0.0014921 0.0262096 -0.0449372 0.00146496 
-0.044759 -0.0437614 0.00102 -0.0335565 -0.0442122 0.00125747 -0.0308094 -0.0435702 0.00102 
0.0181024 -0.0433049 0.00105498 0.0348044 -0.042095 0.00121773 0.0418836 -0.0421436 0.00102472 
-0.00674967 -0.0416523 0.00115407 0.0414821 -0.0410789 0.00106215 -0.042922 -0.0404536 0.00106468 
-0.0334706 -0.0396012 0.001209 -0.018434 -0.0405477 0.00104534 0.040047 -0.0404588 0.00102 
-0.0108246 -0.0388127 0.00104559 -0.00302782 -0.0385948 0.00102 0.0156715 -0.0391733 0.00102 
0.00798734 -0.0367051 0.00102 0.0308099 -0.0378456 0.00102689 -0.0168273 -0.0360331 0.00117431 
0.000822496 -0.0363122 0.00102412 -0.0179089 -0.0346335 0.00147088 0.00594186 -0.0351889 0.00131863 
0.0333162 -0.0342631 0.00102 0.043014 -0.0343178 0.0013672 0.023158 -0.0340207 0.00102 
0.0244271 -0.0334586 0.00102052 -0.0262624 -0.032473 0.00105455 -0.0232422 -0.0321576 0.00102 
0.0346336 -0.0325969 0.00108142 -0.0266532 -0.0301716 0.00102 -0.0105296 -0.0314142 0.00102 
0.0280204 -0.0311414 0.00102 0.0449741 -0.0303513 0.00106564 -0.0448384 -0.0296834 0.00102 
0.0392765 -0.0300093 0.00153223 0.00577088 -0.0287415 0.00102 0.0156293 -0.0283842 0.00151237 
-0.0430551 -0.0267583 0.00117295 0.000892701 -0.0263701 0.00106248 0.0306875 -0.0259396 0.00106464 
0.033456 -0.0256735 0.00102 0.032808 -0.025967 0.00102 -0.0408326 -0.0234295 0.00102 
0.00623721 -0.0211799 0.00119685 0.0233461 -0.0214624 0.00123939 0.0436787 -0.0219137 0.00102 
0.0336491 -0.0197505 0.00102 -0.0296942 -0.0196153 0.00130908 -0.0108877 -0.0188832 0.00102 
0.00156248 -0.0194187 0.00133056 0.0363266 -0.0194176 0.0010558 -0.0317771 -0.0175651 0.00102 
0.0030191 -0.0179247 0.00102181 0.0404767 -0.0183151 0.00102 -0.0257955 -0.0157834 0.00104569 
0.0223879 -0.0163393 0.00102 -0.00444012 -0.0151621 0.00106319 0.0198229 -0.0156851 0.00127449 
-0.0117656 -0.0138394 0.00106434 0.0176437 -0.0119747 0.00110059 0.0347312 -0.012978 0.00149945 
0.00689113 -0.0107816 0.00102 0.0277003 -0.0107969 0.00102 -0.0222502 -0.00974669 0.00102677 
-0.0112192 -0.0104501 0.00102 0.00743742 -0.00926665 0.00102 0.013874 -0.00963069 0.00111141 
0.0218314 -0.00971151 0.00134841 0.0251729 -0.00985964 0.00126499 0.0286804 -0.00919085 0.00132905 
0.0313953 -0.00974065 0.0011064 0.0350526 -0.0102353 0.00102 -0.00553214 -0.00871323 0.00112747 
-0.0198564 -0.00683511 0.00102 -0.0101373 -0.00698039 0.00127699 0.0109664 -0.00760095 0.00122061 
-0.0129003 -0.00574839 0.00102 -0.00747582 -0.00609419 0.0011134 0.0387156 -0.00624884 0.00119917 
0.00937085 -0.00418454 0.00102 0.0131353 -0.00504642 0.00102034 0.021323 -0.00444137 0.00105705 
-0.0179231 -0.00300678 0.00102 -0.0141425 -0.00311887 0.00107202 -0.0281455 -0.00127675 0.0010871 
-0.00783961 -0.000387029 0.00102 -0.00702036 -0.00121172 0.00102001 0.0290986 -0.000251763 0.00113415 
-0.0332593 0.000859011 0.00139764 -0.0260142 0.00017485 0.00107462 0.0384376 0.000848974 0.00102 
-0.00967086 0.00179773 0.00102 0.00417698 0.0024455 0.00102 0.0147261 0.00139147 0.00102443 
0.0188762 0.00181355 0.00123653 0.032558 0.00153523 0.00115522 -0.0325416 0.00283857 0.00122468 
0.0449494 0.00392273 0.00103999 -0.025141 0.00447188 0.00125847 0.00314898 0.00491531 0.00149852 
0.0292006 0.00433004 0.00102 0.0305447 0.00486582 0.00102 0.0404406 0.00462082 0.00119125 
-0.0287984 0.00559412 0.00102 -0.0170872 0.00564833 0.00102 0.0011249 0.00615697 0.00102 
0.021602 0.00540593 0.00102 0.0228765 0.00606581 0.00102 0.0246705 0.0064451 0.00102015 
-0.0426568 0.00723228 0.00102 0.0221269 0.00728552 0.00107804 0.0283387 0.00890506 0.00104395 
-0.0392616 0.00972366 0.00102 -0.0214351 0.00957734 0.00102015 -0.0101256 0.00978275 0.00102 
0.0197977 0.00963841 0.00102036 0.0212596 0.00979192 0.00102 0.0211953 0.00966092 0.00118626 
0.0399323 0.0117688 0.00102 -0.00279986 0.0127222 0.00103468 0.00861143 0.0123591 0.00122677 
-0.034865 0.0142961 0.00102 -0.0310202 0.0131063 0.00102 8.23501e-07 0.0138406 0.0010224 
0.0143092 0.0139794 0.00102 0.0248423 0.0143007 0.00102 0.0287781 0.014071 0.00102 
-0.00307286 0.0144526 0.00104074 -0.0161548 0.0159009 0.00136754 0.00517921 0.0169249 0.00105778 
0.0418335 0.0161761 0.0011522 -0.0360536 0.0173104 0.00102 0.0215224 0.0171285 0.00102 
0.0407412 0.0174253 0.00115345 -0.0436896 0.0195853 0.0013526 -0.0214239 0.0189608 0.00102 
-0.023041 0.0197144 0.00102 -0.022709 0.0198803 0.00102406 -0.0153727 0.020636 0.00102 
-0.0282566 0.021284 0.00102 0.0123926 0.0218243 0.00102 0.03506 0.0228899 0.00102 
-0.0138035 0.0240512 0.00140742 0.0307708 0.0242663 0.00119348 -0.0386663 0.0253433 0.00119379 
-0.0132251 0.0252506 0.00141883 -0.00739359 0.0259593 0.00122747 0.0167463 0.0251763 0.00102 
0.0226957 0.0260881 0.00102521 -0.0267569 0.0263983 0.00116442 -0.00563177 0.0268155 0.00120084 
0.00953871 0.0271324 0.00106386 0.0395905 0.0272142 0.00122874 -0.0357156 0.0282031 0.0012401 
-0.0406313 0.0295913 0.00148106 -0.0127911 0.0299546 0.00109058 -0.0409258 0.0305044 0.00102 
-0.0313244 0.0314049 0.00121991 -0.0200898 0.0311527 0.00102187 0.00372347 0.0304157 0.00104813 
0.0038092 0.0311583 0.00103115 0.0364634 0.0310238 0.0010645 0.0444958 0.0309554 0.00102 
-0.0073504 0.0318329 0.00105465 0.00390562 0.0317225 0.00113338 -0.0337286 0.0337045 0.00105566 
-0.0264781 0.032823 0.00102 0.0152528 0.033152 0.00147761 0.00284552 0.0345861 0.00102 
0.0231674 0.0340949 0.00122079 -0.041477 0.0364172 0.00121486 0.0297434 0.0373158 0.00102 
-0.00973825 0.0391656 0.00104836 0.0165329 0.0385374 0.00102 0.0238959 0.0383247 0.00102415 
-0.0312382 0.0393096 0.00109169 -0.0112537 0.0395394 0.00123302 0.0221021 0.0401282 0.00120311 
0.0251972 0.0393087 0.00102 0.0163992 0.0415262 0.00102 0.0222253 0.0407186 0.00104881 
-0.0390027 0.0421086 0.00102 0.0294278 0.0431452 0.00113516 -0.0205282 0.0432397 0.00117479 
0.0405446 0.0433429 0.00124837 -0.0346971 -0.0446764 0.00208362 -0.00340304 -0.0448428 0.00135501 
-0.027409 -0.0433703 0.00208888 0.0145521 -0.0432303 0.00245178 0.0416479 -0.0439733 0.00193781 
-0.0389435 -0.0425966 0.00265126 -0.0248654 -0.0427111 0.00217277 0.0248068 -0.0428986 0.00213681 
-0.0349861 -0.0412827 0.00214216 0.000425919 -0.0415728 0.00251852 -0.0406141 -0.0405112 0.00219644 
-0.0248652 -0.040212 0.00141541 -0.00670669 -0.0394183 0.00228253 0.00849583 -0.0405939 0.00247795 
0.0244803 -0.0401788 0.00158605 -0.0289295 -0.0389067 0.0018793 -0.0234086 -0.038644 0.00161459 
-0.0195638 -0.0385913 0.00263597 0.0397687 -0.0374633 0.00213093 -0.0439713 -0.0357399 0.00213082 
-0.0273176 -0.0361067 0.00247666 -0.00338111 -0.0363358 0.00153202 0.0307351 -0.0355434 0.00110542 
-0.0177429 -0.0346724 0.00236568 -8.23525e-05 -0.034098 0.00254484 0.00879071 -0.0344865 0.00203568 
0.0433459 -0.0353282 0.00225371 -0.0427235 -0.0332389 0.00207283 -0.00586029 -0.0338127 0.0016943 
-0.0210092 -0.0320472 0.00226337 -0.0160452 -0.0323821 0.00239154 0.010226 -0.0308634 0.00113787 
0.0346338 -0.0290927 0.00135 -0.0346801 -0.0287009 0.00272181 0.0164647 -0.0275391 0.00182458 
-0.0432264 -0.0264101 0.00167421 -0.00580099 -0.0272788 0.00219433 0.0101031 -0.0273014 0.00216464 
-0.0338231 -0.0250135 0.00238597 -0.00446216 -0.0255279 0.00186752 0.0155599 -0.0240909 0.00200873 
0.0210005 -0.0239559 0.00213928 0.0109547 -0.0235646 0.00238704 -0.0323128 -0.0219837 0.00187564 
-0.0291427 -0.0219343 0.00120675 -0.0225401 -0.0213878 0.0012973 0.039775 -0.0211058 0.00141162 
-0.00827992 -0.020547 0.0015065 -0.0207996 -0.0190456 0.00248206 0.0134129 -0.0192809 0.00177015 
0.0204492 -0.0194639 0.00275793 -0.0204621 -0.0172006 0.00164535 -0.0100897 -0.0180162 0.00130269 
0.0184681 -0.0172117 0.00174004 -0.0426154 -0.0165053 0.00102525 -0.0405162 -0.0161033 0.00229073 
-0.0339565 -0.0167518 0.00135058 0.0296492 -0.015918 0.00160708 -0.015814 -0.0152491 0.00226143 
0.0249316 -0.014475 0.0022616 0.0268005 -0.0146468 0.00186035 0.0375745 -0.0151367 0.00232168 
-0.0388614 -0.0136303 0.00137752 -0.0329121 -0.0139828 0.00205431 -0.0227164 -0.0141288 0.00178809 
-0.00710141 -0.0133745 0.00197672 0.00886689 -0.0141191 0.00221463 -0.0341597 -0.0122829 0.00216027 
0.0322358 -0.0130621 0.00172182 0.0253763 -0.011051 0.0025685 0.0414517 -0.0114994 0.00161312 
-0.0253401 -0.0103599 0.00226691 -0.0196799 -0.00931279 0.0015121 -0.0136128 -0.00979682 0.00256984 
-0.00254943 -0.00825679 0.00120454 -0.0343844 -0.0078404 0.00255815 -0.0304645 -0.00701594 0.00189064 
-0.0211095 -0.00770044 0.00270775 -0.0150798 -0.00698339 0.00215229 -0.00433253 -0.00676057 0.00150299 
-0.00401126 -0.00720159 0.00236055 0.0129906 -0.00677597 0.0024794 0.0275881 -0.00673863 0.00220875 
0.0404774 -0.00688032 0.00166107 -0.00720807 -0.00608605 0.00105613 -0.040885 -0.00406647 0.00196618 
0.0180565 -0.00487531 0.00190223 -0.042786 -0.00359954 0.00164022 -0.0120059 -0.00345367 0.00118201 
-0.0408474 -0.00214648 0.0018902 0.00664535 -0.00164817 0.00191836 -0.000610522 -0.00103491 0.00187803 
0.00127443 -0.000618905 0.0016481 0.0420414 -0.00101026 0.00237848 -0.0131355 0.00164571 0.00121708 
-0.00229178 0.0020129 0.00237299 0.0189244 0.00254502 0.00266345 -0.0137512 0.00384646 0.00120137 
-0.027449 0.00511055 0.00203919 -0.0403489 0.00598291 0.00234259 -0.037077 0.00611456 0.00157781 
-0.01547 0.00642247 0.00195559 -0.00552594 0.00555795 0.00144958 0.0101693 0.00555192 0.00187461 
0.030759 0.00580352 0.00116669 -0.00598638 0.00689803 0.00257829 0.00533928 0.00728904 0.0017801 
0.0110904 0.00657535 0.00217208 -0.019893 0.00878872 0.00265511 0.0324887 0.00836074 0.00241557 
0.0340899 0.00882812 0.00132502 -0.0408306 0.00999374 0.00247596 0.027557 0.009967 0.00264806 
-0.0394276 0.0109375 0.00111332 -0.00808524 0.0113378 0.00280833 0.0398091 0.011618 0.00130385 
-0.0365733 0.0119208 0.00169122 0.00243185 0.0120975 0.00206466 0.0128044 0.0127337 0.00231992 
-0.0429188 0.0135204 0.00178352 0.00789931 0.0136568 0.00249864 0.012949 0.0143048 0.00227337 
-0.0287818 0.014969 0.00220954 0.000954082 0.0152563 0.00153021 0.0121458 0.0151918 0.00137258 
-0.0286532 0.0159811 0.00204856 -0.00317984 0.0164631 0.0019351 -0.0193355 0.018129 0.00252008 
0.00546842 0.0177814 0.00250486 0.0226738 0.0181095 0.00233534 -0.0363159 0.0185996 0.0020559 
0.00395304 0.0187088 0.0011299 0.00757299 0.0192258 0.0024533 0.0090081 0.0191686 0.00129405 
0.0122157 0.0191756 0.0022907 0.018015 0.0183735 0.00110646 0.0388885 0.0193682 0.00234176 
-0.0431379 0.0208085 0.002216 0.00976854 0.0197772 0.00271217 0.00128112 0.0217131 0.00106903 
-0.0349287 0.0230684 0.00169808 0.0146363 0.0223077 0.00239894 -0.0436572 0.0238848 0.0024622 
-0.0267196 0.0236159 0.00130562 0.0181332 0.0246356 0.00205989 0.0258603 0.0235991 0.0023625 
-0.0214233 0.0285543 0.00231863 0.0191509 0.0299648 0.00103308 -0.0108954 0.0304 0.00125645 
0.0040127 0.0314243 0.00264317 0.026696 0.03017 0.00115972 -0.0213481 0.0319153 0.00106072 
0.01325 0.0319187 0.00140903 0.0337272 0.0324898 0.00247473 0.0380057 0.0324307 0.00281291 
-0.00750544 0.0361316 0.00178129 -0.00196307 0.0366495 0.00164845 -0.0245447 0.0378537 0.00126342 
-0.039126 0.0399637 0.00201619 -0.0375088 0.0393741 0.00169033 -0.0133259 0.0414802 0.00116991 
0.00805094 0.0422278 0.00195959 0.0170579 0.0421878 0.00224176 -0.0181988 0.0434549 0.00228352 
0.0114086 0.0440135 0.00238776 0.0399235 0.0434757 0.00222151 -0.0160353 0.0448572 0.00180145 
0.0171919 0.0449185 0.00216493 0.0211706 0.0445491 0.00223831 -0.00396528 -0.0444182 0.00359508 
0.0195053 -0.043722 0.00326968 0.0131812 -0.0427533 0.00288534 0.0201641 -0.0426709 0.0031806 
0.0406519 -0.0427256 0.00300863 -0.0136468 -0.0412372 0.0034677 0.0166138 -0.0412108 0.00377384 
0.0238162 -0.0409762 0.00311769 0.0338942 -0.0410147 0.00277069 0.0424299 -0.0409921 0.00296135 
-0.0169239 -0.0402939 0.00254347 0.0325128 -0.03812 0.00289446 -0.0370475 -0.0370945 0.00292961 
0.00985621 -0.0367022 0.00373001 -0.0309963 -0.0355024 0.00306857 -0.00161929 -0.0353994 0.00335083 
0.0195647 -0.0366528 0.00268707 0.0355384 -0.0354155 0.00324349 0.0077947 -0.0345433 0.00297248 
0.0403097 -0.0347888 0.00332513 -0.0177803 -0.0340186 0.00337202 -0.0161578 -0.0337243 0.00309364 
0.027474 -0.0338615 0.00291441 -0.0376897 -0.0314333 0.00271695 -0.0233761 -0.031813 0.0035702 
0.00802514 -0.031483 0.00247622 -0.0386911 -0.0311434 0.00278849 -0.0220587 -0.0306349 0.00365452 
-0.0414327 -0.0290659 0.00364814 -0.0263426 -0.0292431 0.00351259 0.00231692 -0.0294453 0.00261965 
0.023019 -0.0293484 0.00342311 -0.0401314 -0.0280847 0.0033874 -0.0240024 -0.0280603 0.00361308 
0.0153133 -0.0285941 0.00336602 0.03382 -0.0268981 0.00314222 0.0054016 -0.025334 0.00187338 
0.0350196 -0.0250011 0.00288245 0.0347572 -0.0260666 0.00297835 -0.00863888 -0.0237376 0.00309247 
0.00179778 -0.0247441 0.00295314 0.00558373 -0.0242787 0.00365187 0.00538025 -0.0241403 0.00278454 
-0.038621 -0.0229432 0.00213053 -0.0350278 -0.0224863 0.0027079 -0.0127621 -0.0231756 0.00304604 
0.0115492 -0.0227248 0.00262671 0.0240101 -0.0228809 0.00304633 0.035159 -0.023363 0.00363704 
-0.0164034 -0.0216001 0.00346359 0.0394323 -0.021923 0.00377119 -0.0210835 -0.0209207 0.00351076 
-0.0033641 -0.0204173 0.00349929 0.00548761 -0.0197918 0.0035156 -0.0328213 -0.0176588 0.00312873 
-0.0147645 -0.0165889 0.00325783 0.0252581 -0.0163235 0.00305864 0.038292 -0.016257 0.00303358 
-0.0408642 -0.0154151 0.00334128 0.0132043 -0.01541 0.0030969 0.0323803 -0.0150629 0.00366878 
-0.0313057 -0.0141988 0.00270764 -0.0279963 -0.0141356 0.00318 -0.0186412 -0.0134353 0.00303026 
0.0144468 -0.013247 0.00342092 0.0403752 -0.0143085 0.00268562 -0.0327621 -0.0121928 0.00375296 
-0.0269092 -0.0125643 0.00368742 -0.00528066 -0.0121118 0.00348085 0.0334462 -0.00930086 0.00359999 
0.0406218 -0.0100941 0.00343391 -0.042331 -0.00792816 0.00272058 -0.0344646 -0.00725539 0.00293628 
-0.0135858 -0.00672635 0.00328847 0.0161928 -0.00760918 0.0029574 0.00523139 -0.00599236 0.00343244 
-0.0253129 -0.0039775 0.00330497 0.0180458 -0.00470109 0.00377322 0.0200271 -0.00425623 0.00352098 
0.0448793 -0.00396119 0.0024435 -0.0107529 -0.00365687 0.00380679 -0.00941413 -0.00330341 0.0036215 
0.00975646 -0.00313231 0.00295815 0.0293019 -0.00298432 0.00277037 -0.0395569 -0.00227866 0.00310815 
-0.0198668 -0.00211416 0.00298918 -0.00896956 -0.00131708 0.00286431 0.0168839 -0.00210364 0.00301451 
-0.0376932 -0.000132947 0.00280903 -0.0283489 -0.000417126 0.00364695 -0.0153419 -0.00108619 0.00368734 
0.0140084 -6.89735e-05 0.00361033 0.039455 -0.000236508 0.00422518 -0.0416237 0.00110806 0.00294715 
0.0407777 0.000744206 0.00348247 0.0116524 0.00206193 0.00369168 0.0362421 0.00170773 0.00311743 
-0.0261639 0.00337815 0.00285498 -0.0233311 0.00384073 0.00279881 0.00243665 0.00282786 0.00369416 
0.0183943 0.00266245 0.00345266 0.0260144 0.00429017 0.00291818 0.0323225 0.00436429 0.00265657 
-0.0406381 0.00555966 0.00309734 -0.00723413 0.00605583 0.00291472 0.0250346 0.00641518 0.00353542 
0.0332757 0.00539899 0.00332231 0.0358407 0.00533501 0.00297324 -0.0429246 0.00657681 0.00358741 
-0.009285 0.00693532 0.00297307 -0.0105861 0.00898083 0.0035987 0.0142017 0.0079404 0.00243062 
0.0202046 0.00840095 0.00245387 -0.0349081 0.00917553 0.00317067 0.00474506 0.0103043 0.00298713 
0.00978397 0.00922321 0.00268976 0.0234497 0.00978487 0.00300478 -0.00071691 0.0108932 0.00315086 
0.00418285 0.0112423 0.00220196 -0.0350204 0.0121089 0.00269339 -0.00831541 0.0129665 0.00285574 
0.014866 0.0127598 0.00269998 0.0261916 0.0119357 0.00309969 -0.00841171 0.0143034 0.00378115 
-0.00867948 0.0139924 0.0035435 0.0311878 0.014057 0.00297036 0.0336082 0.013194 0.00251883 
0.0396593 0.013993 0.00363176 0.0441199 0.0136981 0.00279143 -0.0231109 0.0157017 0.00336331 
-0.0196462 0.0155185 0.0026447 0.0440772 0.0154938 0.0029427 -0.0408838 0.0159645 0.00301098 
-0.00443291 0.0160613 0.00321649 0.0256029 0.0175394 0.0030312 0.00742845 0.0199749 0.00305171 
0.0350116 0.0207306 0.00285406 -0.0287332 0.0215601 0.00347991 -0.0122989 0.0222019 0.00362654 
0.0362273 0.0220011 0.00318494 0.0398418 0.0217469 0.00294913 -0.0421793 0.0225172 0.0032016 
-0.0324762 0.0230005 0.00316781 -0.0295899 0.0232577 0.0025766 -0.0148746 0.0223253 0.00361097 
0.00126512 0.0228658 0.00368189 -0.00782209 0.0241861 0.00290711 0.00264144 0.0247174 0.00342221 
0.021223 0.0244832 0.00315988 0.0438582 0.0244724 0.00314231 -0.0190887 0.0269029 0.00349132 
-0.0128609 0.0265935 0.00310348 -0.0114472 0.026715 0.0031214 -0.0102477 0.0267602 0.00289611 
0.00834461 0.0278725 0.00293393 0.0397191 0.0283771 0.00302249 -0.0376379 0.0294143 0.0033644 
0.0434247 0.0295768 0.00299294 -0.0219587 0.0304934 0.00268569 0.00519606 0.0301696 0.00275095 
-0.00435696 0.0325462 0.00262042 0.0191028 0.0315895 0.00315562 0.0193546 0.0324404 0.00369542 
0.0372507 0.0318783 0.00258977 -0.0425374 0.0333781 0.00298904 -0.0359241 0.0337864 0.0020363 
0.00727395 0.0332762 0.00310972 0.0214431 0.0335886 0.00267642 -0.00472634 0.0344449 0.00329244 
0.00317215 0.0343196 0.00280493 0.0132394 0.0345575 0.0021909 0.0278529 0.0342296 0.00327765 
-0.0407273 0.0358476 0.00340708 0.00888594 0.0360502 0.00313863 0.00367032 0.0371324 0.00292212 
0.0030545 0.0369981 0.00319879 0.0311732 0.0371467 0.0033029 -0.00883869 0.0381834 0.00264485 
-0.00647711 0.0391566 0.00277411 -0.00585061 0.0388609 0.00367407 0.0281745 0.039089 0.00279221 
-0.0379532 0.0399341 0.00189463 0.00201585 0.0404036 0.00325286 -0.00785852 0.041878 0.00241908 
0.0430506 0.0422314 0.00238527 0.00528787 0.0432844 0.00358991 0.0352701 0.0439749 0.00289897 
0.0352379 0.0438995 0.00263623 -0.0390775 0.0447256 0.00318061 -0.0190394 0.0446837 0.00218514 
0.0339316 -0.041715 0.00359135 0.00264867 -0.0338128 0.0035015 0.0268369 -0.0315202 0.00456177 
-0.0396817 -0.0304797 0.00429891 -0.00682403 -0.0314098 0.00405599 -0.0240719 -0.0268296 0.00453981 
0.0102479 -0.024092 0.00402432 -0.0139777 -0.0223984 0.00418231 0.0282033 -0.0178095 0.00311653 
-0.038829 -0.00978443 0.00460311 -0.0214415 -0.007536 0.00494092 0.00265626 0.00371614 0.00392424 
-0.0442311 0.00821601 0.00373805 -0.0408092 0.00981999 0.00493561 0.0114764 0.0140289 0.00342389 
0.00976298 0.0163696 0.00422491 0.000162142 0.0251126 0.00388261 -0.0152062 0.0294088 0.00347741 
0.0164577 0.0353116 0.00405962 0.0147823 -0.0446949 0.00529113 0.0341086 -0.0368686 0.00582357 
0.0262592 -0.0217201 0.00547071 0.0352883 -0.0103067 0.00490776 0.0386193 -0.00496685 0.00523082 
-0.0122189 0.0175978 0.00508398 -0.032208 0.0306075 0.00461064 -0.0183202 -0.0175475 0.00620901 
0.0320014 0.00756294 0.00703578 0.00153271 0.0201988 0.00673206 -0.014478 0.0275162 0.0062843 
0.0354139 0.0312817 0.00689173 -0.0422696 0.0340949 0.00644124 0.0272875 -0.0186725 0.00820255 
0.0323804 -0.0132471 0.00725683 0.0342493 -0.0115037 0.00738202 -0.00474481 -0.00600267 0.00812772 
0.0277548 0.0042931 0.00738662 0.023953 0.00820576 0.00785259 0.012585 0.0155082 0.00807611 
-0.0368667 0.0306348 0.00809163 -0.0260391 0.0304395 0.00820497 0.0412685 -0.0295104 0.00866668 
-0.0419519 -0.0259749 0.00972784 0.0218308 -0.0192565 0.00871228 0.0223025 -0.0112244 0.00878145 
-0.0269229 0.0267788 0.00910694 -0.0225361 -0.0441701 0.0105323 -0.0393221 -0.0167834 0.0108579 
-0.0207563 -0.0111167 0.0106798 -0.0449336 -0.00957357 0.0108552 -0.0326334 -0.00963456 0.0111218 
0.0127657 -0.00746761 0.00958279 0.0153641 0.0146287 0.00989241 0.00308146 0.0401468 0.0113228 
0.00513794 0.0433856 0.0108739 -0.0245993 0.0193658 0.0122572 -0.0197415 0.0344175 0.0120509 
0.0185094 -0.042363 0.0134793 0.0419483 -0.0348097 0.0132202 -0.0336946 -0.0248459 0.0134645 
-0.0328109 -0.0226975 0.0134886 -0.0329608 -0.0218045 0.0126851 0.0414834 -0.0181367 0.0138556 
0.0302919 -0.0148257 0.0136915 -0.024842 -0.00884532 0.0129702 -0.0371624 0.011326 0.0128265 
0.0323341 0.0191974 0.0130852 0.0104707 0.0313218 0.0132383 0.0439232 0.0371117 0.0135352 
-0.0440308 0.0448256 0.0132063 -0.015788 -0.0282898 0.0142936 0.0379188 0.0120326 0.0143357 
-0.0155539 0.0359545 0.0149182 -0.0281804 0.0418824 0.0138427 -0.0420316 -0.0145538 0.0161172 
-0.0437633 0.0406561 0.0163589 -0.00521279 -0.0413279 0.0179057 -0.0385899 -0.0405251 0.0169847 
-0.0386256 -0.00983966 0.0174086 0.0414788 -0.00521487 0.0171672 0.00347554 0.00338662 0.0168467 
-0.0296003 0.0277025 0.0178336 0.0433204 -0.0141837 0.0186782 0.0154702 -0.00154679 0.0189688 
-0.0356048 -0.000104637 0.0182227 -0.0081225 0.0151775 0.0186725 -0.0144089 0.0201081 0.0182138 
-0.0256005 0.0215871 0.018911 0.0289145 -0.0340196 0.0204943 0.0188903 -0.0308528 0.0203455 
-0.0207679 -0.0256315 0.0206416 0.00357123 -0.00830953 0.020434 0.0282359 -0.00877456 0.0200965 
-0.00757157 0.00454821 0.0198221 0.0133448 0.00646544 0.0200722 -0.00254916 -0.00379952 0.0212207 
0.00643655 -0.000956063 0.0212576 0.00635633 0.000852437 0.0213089 0.0131273 0.040817 0.0206843 
0.00741479 -0.0295782 0.0242481 0.0242571 -0.0100823 0.0248259 -0.0170112 0.0231088 0.0254417 

VERTICES 649 648
OFFSETS vtktypeint64
0 1 2 3 4 5 6 7 8 
9 10 11 12 13 14 15 16 17 
18 19 20 21 22 23 24 25 26 
27 28 29 30 31 32 33 34 35 
36 37 38 39 40 41 42 43 44 
45 46 47 48 49 50 51 52 53 
54 55 56 57 58 59 60 61 62 
63 64 65 66 67 68 69 70 71 
72 73 74 75 76 77 78 79 80 
81 82 83 84 85 86 87 88 89 
90 91 92 93 94 95 96 97 98 
99 100 101 102 103 104 105 106 107 
108 109 110 111 112 113 114 115 116 
117 118 119 120 121 122 123 124 125 
126 127 128 129 130 131 132 133 134 
135 136 137 138 139 140 141 142 143 
144 145 146 147 148 149 150 151 152 
153 154 155 156 157 158 159 160 161 
162 163 164 165 166 167 168 169 170 
171 172 173 174 175 176 177 178 179 
180 181 182 183 184 185 186 187 188 
189 190 191 192 193 194 195 196 197 
198 199 200 201 202 203 204 205 206 
207 208 209 210 211 212 213 214 215 
216 217 218 219 220 221 222 223 224 
225 226 227 228 229 230 231 232 233 
234 235 236 237 238 239 240 241 242 
243 244 245 246 247 248 249 250 251 
252 253 254 255 256 257 258 259 260 
261 262 263 264 265 266 267 268 269 
270 271 272 273 274 275 276 277 278 
279 280 281 282 283 284 285 286 287 
288 289 290 291 292 293 294 295 296 
297 298 299 300 301 302 303 304 305 
306 307 308 309 310 311 312 313 314 
315 316 317 318 319 320 321 322 323 
324 325 326 327 328 329 330 331 332 
333 334 335 336 337 338 339 340 341 
342 343 344 345 346 347 348 349 350 
351 352 353 354 355 356 357 358 359 
360 361 362 363 364 365 366 367 368 
369 370 371 372 373 374 375 376 377 
378 379 380 381 382 383 384 385 386 
387 388 389 390 391 392 393 394 395 
396 397 398 399 400 401 402 403 404 
405 406 407 408 409 410 411 412 413 
414 415 416 417 418 419 420 421 422 
423 424 425 426 427 428 429 430 431 
432 433 434 435 436 437 438 439 440 
441 442 443 444 445 446 447 448 449 
450 451 452 453 454 455 456 457 458 
459 460 461 462 463 464 465 466 467 
468 469 470 471 472 473 474 475 476 
477 478 479 480 481 482 483 484 485 
486 487 488 489 490 491 492 493 494 
495 496 497 498 499 500 501 502 503 
504 505 506 507 508 509 510 511 512 
513 514 515 516 517 518 519 520 521 
522 523 524 525 526 527 528 529 530 
531 532 533 534 535 536 537 538 539 
540 541 542 543 544 545 546 547 548 
549 550 551 552 553 554 555 556 557 
558 559 560 561 562 563 564 565 566 
567 568 569 570 571 572 573 574 575 
576 577 578 579 580 581 582 583 584 
585 586 587 588 589 590 591 592 593 
594 595 596 597 598 599 600 601 602 
603 604 605 606 607 608 609 610 611 
612 613 614 615 616 617 618 619 620 
621 622 623 624 625 626 627 628 629 
630 631 632 633 634 635 636 637 638 
639 640 641 642 643 644 645 646 647 
648 
CONNECTIVITY vtktypeint64
0 1 2 3 4 5 6 7 8 
9 10 11 12 13 14 15 16 17 
18 19 20 21 22 23 24 25 26 
27 28 29 30 31 32 33 34 35 
36 37 38 39 40 41 42 43 44 
45 46 47 48 49 50 51 52 53 
54 55 56 57 58 59 60 61 62 
63 64 65 66 67 68 69 70 71 
72 73 74 75 76 77 78 79 80 
81 82 83 84 85 86 87 88 89 
90 91 92 93 94 95 96 97 98 
99 100 101 102 103 104 105 106 107 
108 109 110 111 112 113 114 115 116 
117 118 119 120 121 122 123 124 125 
126 127 128 129 130 131 132 133 134 
135 136 137 138 139 140 141 142 143 
144 145 146 147 148 149 150 151 152 
153 154 155 156 157 158 159 160 161 
162 163 164 165 166 167 168 169 170 
171 172 173 174 175 176 177 178 179 
180 181 182 183 184 185 186 187 188 
189 190 191 192 193 194 195 196 197 
198 199 200 201 202 203 204 205 206 
207 208 209 210 211 212 213 214 215 
216 217 218 219 220 221 222 223 224 
225 226 227 228 229 230 231 232 233 
234 235 236 237 238 239 240 241 242 
243 244 245 246 247 248 249 250 251 
252 253 254 255 256 257 258 259 260 
261 262 263 264 265 266 267 268 269 
270 271 272 273 274 275 276 277 278 
279 280 281 282 283 284 285 286 287 
288 289 290 291 292 293 294 295 296 
297 298 299 300 301 302 303 304 305 
306 307 308 309 310 311 312 313 314 
315 316 317 318 319 320 321 322 323 
324 325 326 327 328 329 330 331 332 
333 334 335 336 337 338 339 340 341 
342 343 344 345 346 347 348 349 350 
351 352 353 354 355 356 357 358 359 
360 361 362 363 364 365 366 367 368 
369 370 371 372 373 374 375 376 377 
378 379 380 381 382 383 384 385 386 
387 388 389 390 391 392 393 394 395 
396 397 398 399 400 401 402 403 404 
405 406 407 408 409 410 411 412 413 
414 415 416 417 418 419 420 421 422 
423 424 425 426 427 428 429 430 431 
432 433 434 435 436 437 438 439 440 
441 442 443 444 445 446 447 448 449 
450 451 452 453 454 455 456 457 458 
459 460 461 462 463 464 465 466 467 
468 469 470 471 472 473 474 475 476 
477 478 479 480 481 482 483 484 485 
486 487 488 489 490 491 492 493 494 
495 496 497 498 499 500 501 502 503 
504 505 506 507 508 509 510 511 512 
513 514 515 516 517 518 519 520 521 
522 523 524 525 526 527 528 529 530 
531 532 533 534 535 536 537 538 539 
540 541 542 543 544 545 546 547 548 
549 550 551 552 553 554 555 556 557 
558 559 560 561 562 563 564 565 566 
567 568 569 570 571 572 573 574 575 
576 577 578 579 580 581 582 583 584 
585 586 587 588 589 590 591 592 593 
594 595 596 597 598 599 600 601 602 
603 604 605 606 607 608 609 610 611 
612 613 614 615 616 617 618 619 620 
621 622 623 624 625 626 627 628 629 
630 631 632 633 634 635 636 637 638 
639 640 641 642 643 644 645 646 647 

POINT_DATA 648
FIELD FieldData 12
id 1 648 int
164 242 534 463 366 200 346 140 218 
457 207 134 256 35 508 34 92 459 
115 356 226 24 402 367 88 47 51 
347 303 404 543 304 185 107 352 137 
533 331 120 128 291 121 190 267 282 
167 472 317 470 479 154 440 238 439 
289 355 176 444 381 168 215 349 259 
106 292 227 231 428 127 101 427 483 
157 293 324 72 39 336 383 243 299 
370 515 125 57 385 542 132 66 341 
389 83 465 36 175 90 186 538 334 
86 56 593 418 458 141 407 478 456 
396 467 353 450 423 129 261 197 288 
255 214 420 432 60 401 297 169 322 
150 491 310 202 468 193 40 433 339 
392 152 110 521 149 166 49 18 219 
97 189 100 131 162 195 163 408 280 
199 461 410 524 504 506 488 187 201 
158 26 327 253 148 348 270 579 85 
251 233 362 320 246 328 318 155 435 
386 412 62 372 108 406 272 275 98 
188 84 31 258 113 390 562 591 549 
87 314 136 326 312 173 210 122 22 
82 67 492 518 388 319 605 229 571 
307 570 283 294 354 445 527 409 645 
415 604 71 234 192 576 547 64 237 
174 177 44 448 298 247 551 496 572 
73 422 374 240 290 194 58 500 612 
490 441 380 566 340 638 23 248 264 
260 563 399 511 522 6 42 580 615 
368 224 567 11 263 257 360 135 564 
365 80 499 565 77 300 284 501 495 
245 545 546 454 213 426 528 124 145 
165 453 480 601 442 373 345 273 378 
384 46 41 48 469 308 228 473 184 
587 54 485 417 443 364 447 117 161 
357 514 337 330 104 191 109 12 507 
209 321 343 332 268 583 29 180 466 
452 232 437 523 76 361 91 434 375 
302 351 614 55 438 89 93 414 203 
471 68 52 429 577 271 99 359 411 
102 487 159 436 344 489 69 350 156 
589 477 239 505 333 250 393 295 139 
103 502 96 147 183 532 335 430 493 
116 79 484 37 526 416 449 323 329 
160 111 403 25 28 274 462 553 170 
143 376 74 306 276 59 460 211 146 
8 43 38 311 95 53 32 278 377 
285 252 105 50 171 142 20 592 382 
405 151 371 204 205 217 265 2 75 
196 208 61 519 212 244 305 379 216 
503 486 474 126 153 301 425 144 424 
112 400 338 497 296 221 464 181 262 
21 446 17 119 395 236 363 63 70 
178 358 315 220 118 281 33 138 431 
529 279 287 130 254 325 394 14 520 
78 206 498 266 30 535 509 179 451 
114 419 81 222 481 65 94 455 494 
225 235 387 313 391 421 309 286 482 
182 198 559 413 45 536 249 123 277 
19 342 397 475 476 172 597 616 5 
525 398 13 223 513 517 16 10 598 
316 4 633 15 9 540 552 241 626 
573 3 133 7 596 539 556 561 369 
623 550 516 530 628 557 613 510 560 
594 269 548 574 558 599 637 230 618 
585 554 617 27 622 643 586 582 600 
635 584 581 541 578 603 537 569 595 
607 611 531 639 629 620 624 555 590 
575 632 648 544 647 641 609 644 610 
568 619 625 646 634 636 627 608 602 
631 512 642 621 630 606 640 1 588 

type 1 648 int
1 1 1 1 1 1 1 1 1 
1 1 1 1 1 1 1 1 1 
1 1 1 1 1 1 1 1 1 
1 1 1 1 1 1 1 1 1 
1 1 1 1 1 1 1 1 1 
1 1 1 1 1 1 1 1 1 
1 1 1 1 1 1 1 1 1 
1 1 1 1 1 1 1 1 1 
1 1 1 1 1 1 1 1 1 
1 1 1 1 1 1 1 1 1 
1 1 1 1 1 1 1 1 1 
1 1 1 1 1 1 1 1 1 
1 1 1 1 1 1 1 1 1 
1 1 1 1 1 1 1 1 1 
1 1 1 1 1 1 1 1 1 
1 1 1 1 1 1 1 1 1 
1 1 1 1 1 1 1 1 1 
1 1 1 1 1 1 1 1 1 
1 1 1 1 1 1 1 1 1 
1 1 1 1 1 1 1 1 1 
1 1 1 1 1 1 1 1 1 
1 1 1 1 1 1 1 1 1 
1 1 1 1 1 1 1 1 1 
1 1 1 1 1 1 1 1 1 
1 1 1 1 1 1 1 1 1 
1 1 1 1 1 1 1 1 1 
1 1 1 1 1 1 1 1 1 
1 1 1 1 1 1 1 1 1 
1 1 1 1 1 1 1 1 1 
1 1 1 1 1 2 1 1 1 
1 1 1 2 1 1 1 1 1 
1 1 1 1 1 1 1 1 1 
1 1 1 1 1 1 1 1 1 
1 1 1 1 1 1 1 1 1 
1 1 1 1 1 1 1 1 1 
1 1 1 1 1 1 1 1 1 
1 1 1 1 1 1 1 2 1 
1 1 1 1 1 1 1 1 1 
1 1 1 1 1 1 1 1 1 
1 1 1 1 1 1 1 1 1 
1 1 1 1 1 1 1 1 1 
1 1 1 1 1 1 1 1 1 
1 1 1 1 1 1 1 1 1 
1 1 1 1 1 1 1 1 1 
1 1 1 1 1 1 1 1 1 
1 1 1 1 1 1 1 1 1 
1 1 1 1 1 1 1 1 1 
2 1 1 1 1 1 1 1 1 
1 1 1 1 1 1 1 1 1 
1 1 1 1 1 1 1 3 1 
1 1 1 1 1 1 1 1 1 
1 1 1 1 1 1 1 1 1 
1 1 1 1 1 1 1 1 1 
1 1 1 1 1 1 1 1 1 
1 1 1 1 1 1 1 1 1 
1 1 1 1 1 1 1 2 1 
1 1 1 1 1 1 1 1 1 
1 1 1 1 1 1 1 1 1 
1 1 1 1 1 1 1 1 1 
1 1 1 1 1 1 1 1 1 
1 1 1 1 1 1 1 1 2 
1 1 2 1 1 1 2 2 1 
1 2 1 2 2 1 1 1 1 
1 2 1 2 1 1 1 1 1 
1 1 2 1 1 1 1 1 1 
1 1 1 1 1 1 1 1 1 
1 1 1 1 1 1 1 1 1 
1 1 1 1 1 1 1 1 1 
1 1 1 1 1 1 1 1 1 
1 1 1 1 1 1 1 1 1 
1 1 1 1 2 1 1 1 1 
1 2 1 1 1 1 1 4 1 

i 3 648 int
0 0 0 0 0 0 0 0 0 
0 0 0 0 0 0 0 0 0 
0 0 0 0 0 0 0 0 0 
0 0 0 0 0 0 0 0 0 
0 0 0 0 0 0 0 0 0 
0 0 0 0 0 0 0 0 0 
0 0 0 0 0 0 0 0 0 
0 0 0 0 0 0 0 0 0 
0 0 0 0 0 0 0 0 0 
0 0 0 0 0 0 0 0 0 
0 0 0 0 0 0 0 0 0 
0 0 0 0 0 0 0 0 0 
0 0 0 0 0 0 0 0 0 
0 0 0 0 0 0 0 0 0 
0 0 0 0 0 0 0 0 0 
0 0 0 0 0 0 0 0 0 
0 0 0 0 0 0 0 0 0 
0 0 0 0 0 0 0 0 0 
0 0 0 0 0 0 0 0 0 
0 0 0 0 0 0 0 0 0 
0 0 0 0 0 0 0 0 0 
0 0 0 0 0 0 0 0 0 
0 0 0 0 0 0 0 0 0 
0 0 0 0 0 0 0 0 0 
0 0 0 0 0 0 0 0 0 
0 0 0 0 0 0 0 0 0 
0 0 0 0 0 0 0 0 0 
0 0 0 0 0 0 0 0 0 
0 0 0 0 0 0 0 0 0 
0 0 0 0 0 0 0 0 0 
0 0 0 0 0 0 0 0 0 
0 0 0 0 0 0 0 0 0 
0 0 0 0 0 0 0 0 0 
0 0 0 0 0 0 0 0 0 
0 0 0 0 0 0 0 0 0 
0 0 0 0 0 0 0 0 0 
0 0 0 0 0 0 0 0 0 
0 0 0 0 0 0 0 0 0 
0 0 0 0 0 0 0 0 0 
0 0 0 0 0 0 0 0 0 
0 0 0 0 0 0 0 0 0 
0 0 0 0 0 0 0 0 0 
0 0 0 0 0 0 0 0 0 
0 0 0 0 0 0 0 0 0 
0 0 0 0 0 0 0 0 0 
0 0 0 0 0 0 0 0 0 
0 0 0 0 0 0 0 0 0 
0 0 0 0 0 0 0 0 0 
0 0 0 0 0 0 0 0 0 
0 0 0 0 0 0 0 0 0 
0 0 0 0 0 0 0 0 0 
0 0 0 0 0 0 0 0 0 
0 0 0 0 0 0 0 0 0 
0 0 0 0 0 0 0 0 0 
0 0 0 0 0 0 0 0 0 
0 0 0 0 0 0 0 0 0 
0 0 0 0 0 0 0 0 0 
0 0 0 0 0 0 0 0 0 
0 0 0 0 0 0 0 0 0 
0 0 0 0 0 0 0 0 0 
0 0 0 0 0 0 0 0 0 
0 0 0 0 0 0 0 0 0 
0 0 0 0 0 0 0 0 0 
0 0 0 0 0 0 0 0 0 
0 0 0 0 0 0 0 0 0 
0 0 0 0 0 0 0 0 0 
0 0 0 0 0 0 0 0 0 
0 0 0 0 0 0 0 0 0 
0 0 0 0 0 0 0 0 0 
0 0 0 0 0 0 0 0 0 
0 0 0 0 0 0 0 0 0 
0 0 0 0 0 0 0 0 0 
0 0 0 0 0 0 0 0 0 
0 0 0 0 0 0 0 0 0 
0 0 0 0 0 0 0 0 0 
0 0 0 0 0 0 0 0 0 
0 0 0 0 0 0 0 0 0 
0 0 0 0 0 0 0 0 0 
0 0 0 0 0 0 0 0 0 
0 0 0 0 0 0 0 0 0 
0 0 0 0 0 0 0 0 0 
0 0 0 0 0 0 0 0 0 
0 0 0 0 0 0 0 0 0 
0 0 0 0 0 0 0 0 0 
0 0 0 0 0 0 0 0 0 
0 0 0 0 0 0 0 0 0 
0 0 0 0 0 0 0 0 0 
0 0 0 0 0 0 0 0 0 
0 0 0 0 0 0 0 0 0 
0 0 0 0 0 0 0 0 0 
0 0 0 0 0 0 0 0 0 
0 0 0 0 0 0 0 0 0 
0 0 0 0 0 0 0 0 0 
0 0 0 0 0 0 0 0 0 
0 0 0 0 0 0 0 0 0 
0 0 0 0 0 0 0 0 0 
0 0 0 0 0 0 0 0 0 
0 0 0 0 0 0 0 0 0 
0 0 0 0 0 0 0 0 0 
0 0 0 0 0 0 0 0 0 
0 0 0 0 0 0 0 0 0 
0 0 0 0 0 0 0 0 0 
0 0 0 0 0 0 0 0 0 
0 0 0 0 0 0 0 0 0 
0 0 0 0 0 0 0 0 0 
0 0 0 0 0 0 0 0 0 
0 0 0 0 0 0 0 0 0 
0 0 0 0 0 0 0 0 0 
0 0 0 0 0 0 0 0 0 
0 0 0 0 0 0 0 0 0 
0 0 0 0 0 0 0 0 0 
0 0 0 0 0 0 0 0 0 
0 0 0 0 0 0 0 0 0 
0 0 0 0 0 0 0 0 0 
0 0 0 0 0 0 0 0 0 
0 0 0 0 0 0 0 0 0 
0 0 0 0 0 0 0 0 0 
0 0 0 0 0 0 0 0 0 
0 0 0 0 0 0 0 0 0 
0 0 0 0 0 0 0 0 0 
0 0 0 0 0 0 0 0 0 
0 0 0 0 0 0 0 0 0 
0 0 0 0 0 0 0 0 0 
0 0 0 0 0 0 0 0 0 
0 0 0 0 0 0 0 0 0 
0 0 0 0 0 0 0 0 0 
0 0 0 0 0 0 0 0 0 
0 0 0 0 0 0 0 0 0 
0 0 0 0 0 0 0 0 0 
0 0 0 0 0 0 0 0 0 
0 0 0 0 0 0 0 0 0 
0 0 0 0 0 0 0 0 0 
0 0 0 0 0 0 0 0 0 
0 0 0 0 0 0 0 0 0 
0 0 0 0 0 0 0 0 0 
0 0 0 0 0 0 0 0 0 
0 0 0 0 0 0 0 0 0 
0 0 0 0 0 0 0 0 0 
0 0 0 0 0 0 0 0 0 
0 0 0 0 0 0 0 0 0 
0 0 0 0 0 0 0 0 0 
0 0 0 0 0 0 0 0 0 
0 0 0 0 0 0 0 0 0 
0 0 0 0 0 0 0 0 0 
0 0 0 0 0 0 0 0 0 
0 0 0 0 0 0 0 0 0 
0 0 0 0 0 0 0 0 0 
0 0 0 0 0 0 0 0 0 
0 0 0 0 0 0 0 0 0 
0 0 0 0 0 0 0 0 0 
0 0 0 0 0 0 0 0 0 
0 0 0 0 0 0 0 0 0 
0 0 0 0 0 0 0 0 0 
0 0 0 0 0 0 0 0 0 
0 0 0 0 0 0 0 0 0 
0 0 0 0 0 0 0 0 0 
0 0 0 0 0 0 0 0 0 
0 0 0 0 0 0 0 0 0 
0 0 0 0 0 0 0 0 0 
0 0 0 0 0 0 0 0 0 
0 0 0 0 0 0 0 0 0 
0 0 0 0 0 0 0 0 0 
0 0 0 0 0 0 0 0 0 
0 0 0 0 0 0 0 0 0 
0 0 0 0 0 0 0 0 0 
0 0 0 0 0 0 0 0 0 
0 0 0 0 0 0 0 0 0 
0 0 0 0 0 0 0 0 0 
0 0 0 0 0 0 0 0 0 
0 0 0 0 0 0 0 0 0 
0 0 0 0 0 0 0 0 0 
0 0 0 0 0 0 0 0 0 
0 0 0 0 0 0 0 0 0 
0 0 0 0 0 0 0 0 0 
0 0 0 0 0 0 0 0 0 
0 0 0 0 0 0 0 0 0 
0 0 0 0 0 0 0 0 0 
0 0 0 0 0 0 0 0 0 
0 0 0 0 0 0 0 0 0 
0 0 0 0 0 0 0 0 0 
0 0 0 0 0 0 0 0 0 
0 0 0 0 0 0 0 0 0 
0 0 0 0 0 0 0 0 0 
0 0 0 0 0 0 0 0 0 
0 0 0 0 0 0 0 0 0 
0 0 0 0 0 0 0 0 0 
0 0 0 0 0 0 0 0 0 
0 0 0 0 0 0 0 0 0 
0 0 0 0 0 0 0 0 0 
0 0 0 0 0 0 0 0 0 
0 0 0 0 0 0 0 0 0 
0 0 0 0 0 0 0 0 0 
0 0 0 0 0 0 0 0 0 
0 0 0 0 0 0 0 0 0 
0 0 0 0 0 0 0 0 0 
0 0 0 0 0 0 0 0 0 
0 0 0 0 0 0 0 0 0 
0 0 0 0 0 0 0 0 0 
0 0 0 0 0 0 0 0 0 
0 0 0 0 0 0 0 0 0 
0 0 0 0 0 0 0 0 0 
0 0 0 0 0 0 0 0 0 
0 0 0 0 0 0 0 0 0 
0 0 0 0 0 0 0 0 0 
0 0 0 0 0 0 0 0 0 
0 0 0 0 0 0 0 0 0 
0 0 0 0 0 0 0 0 0 
0 0 0 0 0 0 0 0 0 
0 0 0 0 0 0 0 0 0 
0 0 0 0 0 0 0 0 0 
0 0 0 0 0 0 0 0 0 
0 0 0 0 0 0 0 0 0 
0 0 0 0 0 0 0 0 0 
0 0 0 0 0 0 0 0 0 
0 0 0 0 0 0 0 0 0 
0 0 0 0 0 0 0 0 0 

v 3 648 double
0 0 3.2413285931e-14 0 0 0.075313218267 0 0 0.074396986473 
0 0 3.2413285929e-14 0 0 -0.013907092055 0 0 3.2413290076e-14 
0 0 0.029454928319 0 0 -0.0068865817665 0 0 0.0011029838621 
0 0 -0.018073149023 0 0 0.0037716677214 0 0 -0.00401610826 
0 0 -0.012996339253 0 0 -0.0028905717279 0 0 3.241328596e-14 
0 0 0.0037630035166 0 0 3.2413286072e-14 0 0 3.2413289944e-14 
0 0 3.2413286006e-14 0 0 -0.00067810070713 0 0 0.022367708245 
0 0 0.00012462655006 0 0 0.081840846711 0 0 0.0016674581168 
0 0 6.6009418441e-09 0 0 0.079525545295 0 0 8.0432447536e-14 
0 0 0.0011164483763 0 0 0.00070051083653 0 0 3.2413290061e-14 
0 0 0.020286414316 0 0 3.2413289938e-14 0 0 8.0432447378e-14 
0 0 8.0432447469e-14 0 0 0.027618340337 0 0 8.0432443568e-14 
0 0 0.066832468387 0 0 8.0432443464e-14 0 0 0.092167764546 
0 0 -0.013919734515 0 0 0.0033803567825 0 0 -0.023728496254 
0 0 3.2413289933e-14 0 0 3.2413285961e-14 0 0 8.0432447432e-14 
0 0 0.016144886331 0 0 0.0056958826336 0 0 8.0432447426e-14 
0 0 8.0432443599e-14 0 0 0.012273982316 0 0 8.0432443456e-14 
0 0 0.013968140736 0 0 0.00042654410459 0 0 8.0432443441e-14 
0 0 -0.0043918950853 0 0 3.2413286097e-14 0 0 0.0069034430968 
0 0 8.0432443553e-14 0 0 0.0030063543705 0 0 0.0078564946109 
0 0 -0.02817458811 0 0 0.024283494703 0 0 0.087693949694 
0 0 3.2413290023e-14 0 0 8.043244346e-14 0 0 -0.029379248039 
0 0 3.2413289993e-14 0 0 8.0432447411e-14 0 0 -0.025632719291 
0 0 0.092557931334 0 0 0.011407096041 0 0 0.018013033409 
0 0 -0.021131024885 0 0 8.0432443474e-14 0 0 -0.021131423373 
0 0 8.0432443602e-14 0 0 0.092231945785 0 0 -0.022702851407 
0 0 3.2413285982e-14 0 0 -0.022005174087 0 0 0.014592378369 
0 0 8.0432447573e-14 0 0 -0.0010757643519 0 0 0.0026031703263 
0 0 8.0432443644e-14 0 0 -0.028269571856 0 0 0.021364032568 
0 0 3.2413286008e-14 0 0 0.00064745352185 0 0 0.024837774134 
0 0 0.078588320391 0 0 -0.02507636139 0 0 -1.560588404e-14 
0 0 8.0432443503e-14 0 0 3.24132899e-14 0 0 0.027779680254 
0 0 -0.013125470397 0 0 0.012328694255 0 0 0.00066182703185 
0 0 0.0097034909699 0 0 0.012680574294 0 0 0.053119189589 
0 0 8.0432443491e-14 0 0 8.0432443537e-14 0 0 0.013460756273 
0 0 8.0432443498e-14 0 0 3.2413285952e-14 0 0 8.0432443535e-14 
0 0 8.0432443665e-14 0 0 8.0432447559e-14 0 0 -0.011173354383 
0 0 8.0432447373e-14 0 0 -0.033206315727 0 0 0.0033688061753 
0 0 8.0432443639e-14 0 0 -0.00013235538339 0 0 3.2413286133e-14 
0 0 0.00087454957189 0 0 3.2413286034e-14 0 0 0.012386209185 
0 0 8.0432443489e-14 0 0 -0.0068762756724 0 0 -0.010171405017 
0 0 8.0432443443e-14 0 0 3.2413285951e-14 0 0 -0.0033129634139 
0 0 8.0432447588e-14 0 0 8.043244739e-14 0 0 8.0432443526e-14 
0 0 0.005084978565 0 0 0.081982017793 0 0 -0.00012609835245 
0 0 -0.020889334435 0 0 8.043244366e-14 0 0 8.0432443654e-14 
0 0 0.017351811578 0 0 0.090416934744 0 0 8.0432443436e-14 
0 0 3.2413285938e-14 0 0 0.0023394159017 0 0 -1.5605883967e-14 
0 0 8.043244349e-14 0 0 8.0432447524e-14 0 0 3.2413286037e-14 
0 0 0.092277301896 0 0 -0.019772360915 0 0 0.020172182988 
0 0 0.076501924452 0 0 0.015641979098 0 0 3.2413286009e-14 
0 0 0.0013195962111 0 0 0.029411544418 0 0 0.021845739637 
0 0 0.025520964233 0 0 0.0039710197354 0 0 0.0086790323145 
0 0 0.071878757332 0 0 -0.022010743096 0 0 8.0432447534e-14 
0 0 -0.013316401751 0 0 0.0036059482178 0 0 0.0036088079392 
0 0 0.0091965615761 0 0 -0.0016540866959 0 0 8.0432447369e-14 
0 0 -0.026578921862 0 0 -0.017784304891 0 0 0.025980605537 
0 0 8.0432443508e-14 0 0 0.070654102983 0 0 3.2413285921e-14 
0 0 0.010894527837 0 0 -0.011378290216 0 0 3.2413289953e-14 
0 0 0.0035268165214 0 0 8.0432447367e-14 0 0 -0.0089779838547 
0 0 -0.025566965415 0 0 0.011884954206 0 0 0.016254131025 
0 0 8.04324474e-14 0 0 8.0432443557e-14 0 0 0.004819413451 
0 0 3.241328594e-14 0 0 0.019009467188 0 0 0.018868401649 
0 0 0.014477782155 0 0 -0.052208777847 0 0 -0.070204019946 
0 0 -0.066207024628 0 0 -0.037669265204 0 0 -0.047354848579 
0 0 0.064817514018 0 0 -0.049127124485 0 0 -0.053211706662 
0 0 -0.044786930112 0 0 0.01051311424 0 0 0.043082581097 
0 0 -0.00042788189701 0 0 -0.06157750089 0 0 0.068054077522 
0 0 -0.065624943953 0 0 0.065189342115 0 0 -0.2495509973 
0 0 0.062165101406 0 0 -0.049076438132 0 0 -0.066950525905 
0 0 -0.033907364162 0 0 -0.2470101263 0 0 0.08497739068 
0 0 0.058810204771 0 0 0.06271061403 0 0 -0.067292016091 
0 0 -0.00088430626606 0 0 -0.06796830771 0 0 -0.043084881538 
0 0 0.071288548201 0 0 0.0078072230365 0 0 0.086238087148 
0 0 -0.071197913748 0 0 0.033254541419 0 0 -0.053679363226 
0 0 -0.22837207645 0 0 -0.06392404877 0 0 0.011372073363 
0 0 -0.058842907914 0 0 0.037755966773 0 0 -0.06064914965 
0 0 0.074240452373 0 0 0.047514329547 0 0 0.052056156135 
0 0 0.086856390622 0 0 -0.004993431821 0 0 -0.0054972322965 
0 0 -0.075013103125 0 0 0.065937973701 0 0 0.068480514283 
0 0 0.063756712877 0 0 -0.062307189682 0 0 -0.007724436219 
0 0 0.076395126529 0 0 0.03239145323 0 0 -0.0050194398504 
0 0 -0.0011673474857 0 0 0.07363603359 0 0 -0.033296612174 
0 0 -0.04747110692 0 0 -0.071755329009 0 0 -0.031328312685 
0 0 -0.010098236711 0 0 -0.069178042741 0 0 -0.036281798535 
0 0 0.078465301512 0 0 0.073226975175 0 0 -0.040661632314 
0 0 0.074176825196 0 0 0.064768951836 0 0 -0.20298083152 
0 0 0.054287129516 0 0 -0.065030935653 0 0 0.029129027281 
0 0 -0.078809084515 0 0 0.029207458629 0 0 -0.072204835312 
0 0 0.029254359978 0 0 0.073238774248 0 0 0.021472072171 
0 0 -0.051917166992 0 0 0.050334122588 0 0 -0.0062521476858 
0 0 -0.067956990152 0 0 0.096811192507 0 0 -0.050022650251 
0 0 -0.090595122716 0 0 -0.07563183017 0 0 -0.079458625411 
0 0 -0.052030704563 0 0 -0.054288306603 0 0 0.052833702613 
0 0 0.085942660503 0 0 0.069280419237 0 0 0.096191573803 
0 0 0.047039625074 0 0 0.062128543828 0 0 0.096619823196 
0 0 0.078452966237 0 0 0.053100609671 0 0 -0.066701082359 
0 0 0.079521817871 0 0 -0.22500060874 0 0 -0.037746134785 
0 0 -0.084728850864 0 0 0.048634632116 0 0 -0.051742720112 
0 0 0.047597022262 0 0 0.038821665687 0 0 0.048659587248 
0 0 -0.0082290658937 0 0 0.048619547534 0 0 0.062102743202 
0 0 -0.058465515082 0 0 0.057431448337 0 0 -0.0066856230226 
0 0 -0.067096498226 0 0 -0.06012910127 0 0 -0.04319548548 
0 0 -0.059646059209 0 0 -0.021889788474 0 0 0.053887582772 
0 0 0.07296559349 0 0 -0.072781865816 0 0 0.00336562933 
0 0 0.076008762978 0 0 0.078445749508 0 0 0.037107944825 
0 0 0.03021183688 0 0 -0.046074890326 0 0 0.062338326556 
0 0 -0.085395880166 0 0 -0.030928053239 0 0 -0.0094085529462 
0 0 -0.04538389359 0 0 -0.071237608607 0 0 -0.046009414631 
0 0 -0.049495298129 0 0 0.039685375234 0 0 -0.080815682347 
0 0 -0.061562071673 0 0 -0.054045110635 0 0 0.065892290225 
0 0 -0.06534511882 0 0 -0.085397965167 0 0 -0.047400669607 
0 0 0.076086573619 0 0 0.03066768974 0 0 -0.079494492512 
0 0 0.062902379149 0 0 -0.079485275885 0 0 0.067788486711 
0 0 -0.0027480679321 0 0 0.052823456539 0 0 0.060021992732 
0 0 0.067619646457 0 0 -0.057940206377 0 0 -0.072629357381 
0 0 0.075357987076 0 0 -0.061059272839 0 0 -0.066208271847 
0 0 -0.07218901987 0 0 0.073666272975 0 0 -0.04354507191 
0 0 -0.033216924902 0 0 -0.063371311161 0 0 -0.18621244985 
0 0 -0.038208714287 0 0 -0.034464677013 0 0 0.018673787399 
0 0 0.019254036268 0 0 -0.015571295169 0 0 0.027587299384 
0 0 0.052301899495 0 0 0.027355258763 0 0 0.010374584592 
0 0 -0.038700705768 0 0 -0.0059117848055 0 0 -0.01810305054 
0 0 -0.023508902213 0 0 0.054447099639 0 0 -0.046864795507 
0 0 0.0079674353545 0 0 0.00049898844083 0 0 0.0020820299525 
0 0 -0.0210445161 0 0 0.030043538511 0 0 -0.032829459465 
0 0 0.0044599172227 0 0 0.033555954743 0 0 0.016035240582 
0 0 -0.0049200430019 0 0 -0.030280607206 0 0 0.029337339651 
0 0 -0.057234964456 0 0 -0.042502123167 0 0 0.016281654221 
0 0 0.012473553848 0 0 -0.015188104753 0 0 -0.021742429603 
0 0 0.017757934618 0 0 0.0054925798019 0 0 -0.017780818327 
0 0 0.032964747288 0 0 -0.035616962497 0 0 -0.22539342236 
0 0 0.059505430088 0 0 0.04145372645 0 0 0.0049184684913 
0 0 0.016611505027 0 0 0.019737760126 0 0 -0.03190230787 
0 0 -0.24578191023 0 0 0.021519784079 0 0 0.0057758213173 
0 0 -0.018377646246 0 0 0.0070967380268 0 0 0.0073364117197 
0 0 -0.0018017152283 0 0 0.010945109614 0 0 0.02360909377 
0 0 0.023872129792 0 0 -0.018196513039 0 0 -0.01895447966 
0 0 0.010686740211 0 0 0.034160003575 0 0 -0.0088139180275 
0 0 -0.002762163779 0 0 0.047864497115 0 0 0.016552494925 
0 0 0.01874362391 0 0 0.046888238994 0 0 -0.013750726092 
0 0 0.030665362997 0 0 -0.034241797788 0 0 -0.0015724094517 
0 0 -0.048335518895 0 0 0.034973086398 0 0 0.018039398905 
0 0 -0.021534521785 0 0 0.010343821618 0 0 -0.0089037600847 
0 0 -0.032645848541 0 0 -0.020899191176 0 0 -0.023145792241 
0 0 0.043135078492 0 0 0.0064286962017 0 0 0.024923219276 
0 0 -0.26054882612 0 0 0.027314611233 0 0 0.0093346215531 
0 0 -0.015322604265 0 0 -0.0018711795945 0 0 0.039742414386 
0 0 0.022835406237 0 0 -0.020028929308 0 0 0.0074735427113 
0 0 -0.039856250409 0 0 0.012232471223 0 0 0.0232509239 
0 0 0.012035888219 0 0 0.095738403854 0 0 -0.042174475784 
0 0 -0.020886034053 0 0 0.011501384128 0 0 -0.03773659512 
0 0 0.052325070287 0 0 0.039174066122 0 0 0.0029404796762 
0 0 0.030643705134 0 0 0.02503381797 0 0 -0.031431700482 
0 0 -0.017131957374 0 0 -0.044481591964 0 0 -0.014661671606 
0 0 -0.01753292384 0 0 0.051544844574 0 0 0.036538854533 
0 0 0.056859265792 0 0 0.01789272955 0 0 -0.058781204669 
0 0 -0.058155401468 0 0 0.035772790981 0 0 -0.029693005858 
0 0 -0.01215006377 0 0 0.050571755101 0 0 0.044045092756 
0 0 -0.24862228699 0 0 -0.018636400096 0 0 -0.0009249681489 
0 0 -0.052852692996 0 0 -0.037641536599 0 0 0.014221730498 
0 0 -0.014286929027 0 0 -0.0079477489905 0 0 -0.038359730445 
0 0 0.016122931315 0 0 -0.020809384288 0 0 0.037052949678 
0 0 -0.034615493397 0 0 0.020131000546 0 0 0.051329581341 
0 0 -0.010570530365 0 0 -0.0013431670816 0 0 0.050926635554 
0 0 -0.01048138173 0 0 0.013260076591 0 0 0.00032435743086 
0 0 -0.022515804598 0 0 -0.005903013933 0 0 -0.033530690965 
0 0 0.045702745285 0 0 -0.023418167521 0 0 0.019217610005 
0 0 0.010605651023 0 0 -0.068444420697 0 0 0.01914682432 
0 0 0.048452601528 0 0 -0.0074958298942 0 0 -0.024259410047 
0 0 0.021939240849 0 0 -0.038827393183 0 0 -0.19395433477 
0 0 -0.025801434947 0 0 0.049532451215 0 0 -0.026122299862 
0 0 -0.025712332873 0 0 0.0083651045186 0 0 -0.02518930732 
0 0 -0.055992645253 0 0 0.016191797352 0 0 0.016757440943 
0 0 -0.047031525178 0 0 0.022545505421 0 0 -0.25067858233 
0 0 0.009090447553 0 0 0.014393142595 0 0 0.022260255807 
0 0 -0.026003102913 0 0 -0.24956489661 0 0 0.039952829163 
0 0 0.013239159238 0 0 0.018915857622 0 0 0.053489632443 
0 0 -0.021890114965 0 0 -0.029143771697 0 0 -0.0057004544104 
0 0 -0.0081212903726 0 0 0.0057816232552 0 0 -0.0056594347091 
0 0 -0.24700944697 0 0 0.022547101426 0 0 -0.2450855279 
0 0 -0.24481188572 0 0 0.019434082256 0 0 -0.015509980369 
0 0 -0.03212046606 0 0 0.042522957775 0 0 -0.24896391918 
0 0 -0.17916952433 0 0 -0.19388501091 0 0 -0.012271568557 
0 0 -0.21970165314 0 0 -0.24567452226 0 0 -0.027961499182 
0 0 0.0072504365292 0 0 -0.22388952776 0 0 -0.22674352971 
0 0 -0.0067884543743 0 0 -0.012987103618 0 0 -0.17740006863 
0 0 -0.25470159686 0 0 0.03157346019 0 0 -0.17348643449 
0 0 0.061893980126 0 0 -0.04552481282 0 0 -0.22009172902 
0 0 -0.18250600558 0 0 -0.23524603492 0 0 -0.14804084954 
0 0 -0.1910362686 0 0 -0.25290840783 0 0 -0.23646865492 
0 0 -0.2517158538 0 0 -0.19227165769 0 0 -0.1953416418 
0 0 -0.16063507241 0 0 -0.18698313152 0 0 -0.2310754545 
0 0 -0.17479823433 0 0 -0.19388935586 0 0 -0.22281109518 
0 0 -0.19271085698 0 0 -0.16456819381 0 0 -0.18099589719 
0 0 -0.17450974847 0 0 -0.20121905743 0 0 -0.17685705742 
0 0 -0.1701973551 0 0 -0.23100732405 0 0 -0.17885839925 
0 0 -0.13330520185 0 0 -0.18568441295 0 0 -0.16073745611 
0 0 -0.14963707394 0 0 -0.21912033896 0 0 -0.15023565465 
0 0 -0.15420633683 0 0 -0.15766323499 0 0 -0.14813911469 
0 0 -0.22250914059 0 0 -0.14847137269 0 0 -0.093138811112 
0 0 -0.1495771433 0 0 -0.10270226716 0 0 -0.10603862415 
0 0 -0.11344023526 0 0 -0.095557226771 0 0 -0.1288392446 
0 0 -0.14139812742 0 0 -0.13583024816 0 0 -0.1175808158 
0 0 -0.14366571036 0 0 -0.13505426272 0 0 -0.13089857689 
0 0 -0.12464211347 0 0 -0.10303083729 0 0 -0.14930031537 
0 0 -0.1132328406 0 0 -0.10330951384 0 0 -0.1081791738 
0 0 -0.070018035309 0 0 -0.13335827787 0 0 -0.11104723678 
0 0 -0.10496597536 0 0 -0.058734665462 0 0 -0.065778633369 
0 0 -0.11019366144 0 0 -0.065934351834 0 0 -0.035522576023 
0 0 -0.068959829205 0 0 -0.042002340952 0 0 -0.080331237945 
0 0 -0.084647400863 0 0 -0.051665580893 0 0 -0.078866450911 
0 0 -0.041420378313 0 0 -0.070040760928 0 0 -0.020650030268 
0 0 -0.018367617006 0 0 -0.063756727588 0 0 -0.048717075658 
0 0 -0.033932232003 0 0 -0.15269586008 0 0 -0.0012984872181 
0 0 -0.016899439589 0 0 -0.050188048472 0 0 -0.052840537472 
0 0 0.010804393546 0 0 -0.20174504578 0 0 -0.035632828675 

f 3 648 double
0 0 0 0 0 -1.7425367252e-10 0 0 -1.7425367252e-10 
0 0 0 0 0 -1.7425367252e-10 0 0 0 
0 0 -1.7425367252e-10 0 0 -1.7425367252e-10 0 0 -1.7425367252e-10 
0 0 -1.7425367252e-10 0 0 -1.7425367252e-10 0 0 -1.7425367252e-10 
0 0 -1.7425367252e-10 0 0 -1.7425367252e-10 0 0 0 
0 0 -1.7425367252e-10 0 0 0 0 0 0 
0 0 0 0 0 -1.7425367252e-10 0 0 -1.7425367252e-10 
0 0 -1.7425367252e-10 0 0 -1.7425367252e-10 0 0 -1.7425367252e-10 
0 0 5.9642792401e-14 0 0 -1.7425367252e-10 0 0 0 
0 0 -1.7425367252e-10 0 0 -1.7425367252e-10 0 0 0 
0 0 -1.7425367252e-10 0 0 0 0 0 0 
0 0 0 0 0 -1.7425367252e-10 0 0 0 
0 0 -1.7425367252e-10 0 0 0 0 0 -1.7425367252e-10 
0 0 -1.7425367252e-10 0 0 -1.7425367252e-10 0 0 -1.7425367252e-10 
0 0 0 0 0 0 0 0 0 
0 0 -1.7425367252e-10 0 0 -1.7425367252e-10 0 0 0 
0 0 0 0 0 -1.7425367252e-10 0 0 0 
0 0 -1.7425367252e-10 0 0 -1.7425367252e-10 0 0 0 
0 0 -1.7425367252e-10 0 0 0 0 0 -1.7425367252e-10 
0 0 0 0 0 -1.7425367252e-10 0 0 -1.7425367252e-10 
0 0 -1.7425367252e-10 0 0 -1.7425367252e-10 0 0 -1.7425367252e-10 
0 0 0 0 0 0 0 0 -1.7425367252e-10 
0 0 0 0 0 0 0 0 -1.7425367252e-10 
0 0 -1.7425367252e-10 0 0 -1.7425367252e-10 0 0 -1.7425367252e-10 
0 0 -1.7425367252e-10 0 0 0 0 0 -1.7425367252e-10 
0 0 0 0 0 -1.7425367252e-10 0 0 -1.7425367252e-10 
0 0 0 0 0 -1.7425367252e-10 0 0 -1.7425367252e-10 
0 0 0 0 0 -1.7425367252e-10 0 0 -1.7425367252e-10 
0 0 0 0 0 -1.7425367252e-10 0 0 -1.7425367252e-10 
0 0 0 0 0 -1.7425367252e-10 0 0 -1.7425367252e-10 
0 0 -1.7425367252e-10 0 0 -1.7425367252e-10 0 0 0 
0 0 0 0 0 0 0 0 -1.7425367252e-10 
0 0 -1.7425367252e-10 0 0 -1.7425367252e-10 0 0 -1.7425367252e-10 
0 0 -1.7425367252e-10 0 0 -1.7425367252e-10 0 0 -1.7425367252e-10 
0 0 0 0 0 0 0 0 -1.7425367252e-10 
0 0 0 0 0 0 0 0 0 
0 0 0 0 0 0 0 0 -1.7425367252e-10 
0 0 0 0 0 -1.7425367252e-10 0 0 -1.7425367252e-10 
0 0 0 0 0 -1.7425367252e-10 0 0 0 
0 0 -1.7425367252e-10 0 0 0 0 0 -1.7425367252e-10 
0 0 0 0 0 -1.7425367252e-10 0 0 -1.7425367252e-10 
0 0 0 0 0 0 0 0 -1.7425367252e-10 
0 0 0 0 0 0 0 0 0 
0 0 -1.7425367252e-10 0 0 -1.7425367252e-10 0 0 -1.7425367252e-10 
0 0 -1.7425367252e-10 0 0 0 0 0 0 
0 0 -1.7425367252e-10 0 0 -1.7425367252e-10 0 0 0 
0 0 0 0 0 -1.7425367252e-10 0 0 0 
0 0 0 0 0 0 0 0 0 
0 0 -1.7425367252e-10 0 0 -1.7425367252e-10 0 0 -1.7425367252e-10 
0 0 -1.7425367252e-10 0 0 -1.7425367252e-10 0 0 0 
0 0 -1.7425367252e-10 0 0 -1.7425367252e-10 0 0 -1.7425367252e-10 
0 0 -1.7425367252e-10 0 0 -1.7425367252e-10 0 0 -1.7425367252e-10 
0 0 -1.7425367252e-10 0 0 -1.7425367252e-10 0 0 0 
0 0 -1.7425367252e-10 0 0 -1.7425367252e-10 0 0 -1.7425367252e-10 
0 0 -1.7425367252e-10 0 0 -1.7425367252e-10 0 0 0 
0 0 -1.7425367252e-10 0 0 -1.7425367252e-10 0 0 -1.7425367252e-10 
0 0 0 0 0 -1.7425367252e-10 0 0 0 
0 0 -1.7425367252e-10 0 0 -1.7425367252e-10 0 0 0 
0 0 -1.7425367252e-10 0 0 0 0 0 -1.7425367252e-10 
0 0 -1.7425367252e-10 0 0 -1.7425367252e-10 0 0 -1.7425367252e-10 
0 0 0 0 0 0 0 0 -1.7425367252e-10 
0 0 0 0 0 -1.7425367252e-10 0 0 -1.7425367252e-10 
0 0 -1.7425367252e-10 0 0 -1.7425367252e-10 0 0 -1.7425367252e-10 
0 0 -1.7425367252e-10 0 0 -1.7425367252e-10 0 0 -1.7425367252e-10 
0 0 -1.7425367252e-10 0 0 -1.7425367252e-10 0 0 -1.7425367252e-10 
0 0 -1.7425367252e-10 0 0 -1.7425367252e-10 0 0 -1.7425367252e-10 
0 0 -1.7425367252e-10 0 0 -1.7425367252e-10 0 0 -1.7425367252e-10 
0 0 -1.7425367252e-10 0 0 -1.7425367252e-10 0 0 -1.7425367252e-10 
0 0 -1.7425367252e-10 0 0 -1.7425367252e-10 0 0 -1.7425367252e-10 
0 0 -1.7425367252e-10 0 0 -1.7425367252e-10 0 0 -1.7425367252e-10 
0 0 -1.7425367252e-10 0 0 -1.7425367252e-10 0 0 -1.7425367252e-10 
0 0 -1.7425367252e-10 0 0 -1.7425367252e-10 0 0 -1.7425367252e-10 
0 0 -1.7425367252e-10 0 0 -1.7425367252e-10 0 0 -1.7425367252e-10 
0 0 -1.7425367252e-10 0 0 -1.7425367252e-10 0 0 -1.7425367252e-10 
0 0 -1.7425367252e-10 0 0 -1.7425367252e-10 0 0 -1.7425367252e-10 
0 0 -1.7425367252e-10 0 0 -1.7425367252e-10 0 0 -1.7425367252e-10 
0 0 -1.7425367252e-10 0 0 -1.7425367252e-10 0 0 -1.7425367252e-10 
0 0 -1.7425367252e-10 0 0 -1.7425367252e-10 0 0 -1.7425367252e-10 
0 0 -1.7425367252e-10 0 0 -1.7425367252e-10 0 0 -1.7425367252e-10 
0 0 -1.7425367252e-10 0 0 -1.7425367252e-10 0 0 -1.7425367252e-10 
0 0 -1.7425367252e-10 0 0 -1.7425367252e-10 0 0 -1.7425367252e-10 
0 0 -1.7425367252e-10 0 0 -1.7425367252e-10 0 0 -1.7425367252e-10 
0 0 -1.7425367252e-10 0 0 -1.7425367252e-10 0 0 -1.7425367252e-10 
0 0 -1.7425367252e-10 0 0 -1.7425367252e-10 0 0 -1.7425367252e-10 
0 0 -1.7425367252e-10 0 0 -1.7425367252e-10 0 0 -1.7425367252e-10 
0 0 -1.7425367252e-10 0 0 -1.7425367252e-10 0 0 -1.7425367252e-10 
0 0 -1.7425367252e-10 0 0 -1.7425367252e-10 0 0 -1.7425367252e-10 
0 0 -1.7425367252e-10 0 0 -1.7425367252e-10 0 0 -1.7425367252e-10 
0 0 -1.7425367252e-10 0 0 -1.7425367252e-10 0 0 -8.9019973083e-09 
0 0 -1.7425367252e-10 0 0 -1.7425367252e-10 0 0 -1.7425367252e-10 
0 0 -1.7425367252e-10 0 0 -1.7425367252e-10 0 0 -1.7425367252e-10 
0 0 -8.9019973083e-09 0 0 -1.7425367252e-10 0 0 -1.7425367252e-10 
0 0 -1.7425367252e-10 0 0 -1.7425367252e-10 0 0 -1.7425367252e-10 
0 0 -1.7425367252e-10 0 0 -1.7425367252e-10 0 0 -1.7425367252e-10 
0 0 -1.7425367252e-10 0 0 -1.7425367252e-10 0 0 -1.7425367252e-10 
0 0 -1.7425367252e-10 0 0 -1.7425367252e-10 0 0 -1.7425367252e-10 
0 0 -1.7425367252e-10 0 0 -1.7425367252e-10 0 0 -1.7425367252e-10 
0 0 -1.7425367252e-10 0 0 -1.7425367252e-10 0 0 -1.7425367252e-10 
0 0 -1.7425367252e-10 0 0 -1.7425367252e-10 0 0 -1.7425367252e-10 
0 0 -1.7425367252e-10 0 0 -1.7425367252e-10 0 0 -1.7425367252e-10 
0 0 -1.7425367252e-10 0 0 -1.7425367252e-10 0 0 -1.7425367252e-10 
0 0 -1.7425367252e-10 0 0 -1.7425367252e-10 0 0 -1.7425367252e-10 
0 0 -1.7425367252e-10 0 0 -1.7425367252e-10 0 0 -1.7425367252e-10 
0 0 -1.7425367252e-10 0 0 -1.7425367252e-10 0 0 -1.7425367252e-10 
0 0 -1.7425367252e-10 0 0 -1.7425367252e-10 0 0 -1.7425367252e-10 
0 0 -1.7425367252e-10 0 0 -1.7425367252e-10 0 0 -1.7425367252e-10 
0 0 -1.7425367252e-10 0 0 -1.7425367252e-10 0 0 -1.7425367252e-10 
0 0 -1.7425367252e-10 0 0 -1.7425367252e-10 0 0 -1.7425367252e-10 
0 0 -1.7425367252e-10 0 0 -1.7425367252e-10 0 0 -1.7425367252e-10 
0 0 -1.7425367252e-10 0 0 -1.7425367252e-10 0 0 -1.7425367252e-10 
0 0 -1.7425367252e-10 0 0 -8.9019973083e-09 0 0 -1.7425367252e-10 
0 0 -1.7425367252e-10 0 0 -1.7425367252e-10 0 0 -1.7425367252e-10 
0 0 -1.7425367252e-10 0 0 -1.7425367252e-10 0 0 -1.7425367252e-10 
0 0 -1.7425367252e-10 0 0 -1.7425367252e-10 0 0 -1.7425367252e-10 
0 0 -1.7425367252e-10 0 0 -1.7425367252e-10 0 0 -1.7425367252e-10 
0 0 -1.7425367252e-10 0 0 -1.7425367252e-10 0 0 -1.7425367252e-10 
0 0 -1.7425367252e-10 0 0 -1.7425367252e-10 0 0 -1.7425367252e-10 
0 0 -1.7425367252e-10 0 0 -1.7425367252e-10 0 0 -1.7425367252e-10 
0 0 -1.7425367252e-10 0 0 -1.7425367252e-10 0 0 -1.7425367252e-10 
0 0 -1.7425367252e-10 0 0 -1.7425367252e-10 0 0 -1.7425367252e-10 
0 0 -1.7425367252e-10 0 0 -1.7425367252e-10 0 0 -1.7425367252e-10 
0 0 -1.7425367252e-10 0 0 -1.7425367252e-10 0 0 -1.7425367252e-10 
0 0 -1.7425367252e-10 0 0 -1.7425367252e-10 0 0 -1.7425367252e-10 
0 0 -1.7425367252e-10 0 0 -1.7425367252e-10 0 0 -1.7425367252e-10 
0 0 -1.7425367252e-10 0 0 -1.7425367252e-10 0 0 -1.7425367252e-10 
0 0 -1.7425367252e-10 0 0 -1.7425367252e-10 0 0 -1.7425367252e-10 
0 0 -1.7425367252e-10 0 0 -1.7425367252e-10 0 0 -1.7425367252e-10 
0 0 -1.7425367252e-10 0 0 -1.7425367252e-10 0 0 -1.7425367252e-10 
0 0 -1.7425367252e-10 0 0 -1.7425367252e-10 0 0 -1.7425367252e-10 
0 0 -1.7425367252e-10 0 0 -1.7425367252e-10 0 0 -1.7425367252e-10 
0 0 -1.7425367252e-10 0 0 -1.7425367252e-10 0 0 -1.7425367252e-10 
0 0 -1.7425367252e-10 0 0 -1.7425367252e-10 0 0 -1.7425367252e-10 
0 0 -1.7425367252e-10 0 0 -1.7425367252e-10 0 0 -1.7425367252e-10 
0 0 -1.7425367252e-10 0 0 -1.7425367252e-10 0 0 -1.7425367252e-10 
0 0 -1.7425367252e-10 0 0 -1.7425367252e-10 0 0 -1.7425367252e-10 
0 0 -1.7425367252e-10 0 0 -1.7425367252e-10 0 0 -1.7425367252e-10 
0 0 -1.7425367252e-10 0 0 -1.7425367252e-10 0 0 -1.7425367252e-10 
0 0 -1.7425367252e-10 0 0 -1.7425367252e-10 0 0 -1.7425367252e-10 
0 0 -1.7425367252e-10 0 0 -1.7425367252e-10 0 0 -1.7425367252e-10 
0 0 -1.7425367252e-10 0 0 -1.7425367252e-10 0 0 -1.7425367252e-10 
0 0 -1.7425367252e-10 0 0 -1.7425367252e-10 0 0 -1.7425367252e-10 
0 0 -8.9019973083e-09 0 0 -1.7425367252e-10 0 0 -1.7425367252e-10 
0 0 -1.7425367252e-10 0 0 -1.7425367252e-10 0 0 -1.7425367252e-10 
0 0 -1.7425367252e-10 0 0 -1.7425367252e-10 0 0 -1.7425367252e-10 
0 0 -1.7425367252e-10 0 0 -1.7425367252e-10 0 0 -1.7425367252e-10 
0 0 -1.7425367252e-10 0 0 -1.7425367252e-10 0 0 -1.7425367252e-10 
0 0 -1.7425367252e-10 0 0 -1.7425367252e-10 0 0 -1.7425367252e-10 
0 0 -1.7425367252e-10 0 0 -1.7425367252e-10 0 0 -1.7425367252e-10 
0 0 -1.7425367252e-10 0 0 -1.7425367252e-10 0 0 -1.7425367252e-10 
0 0 -1.7425367252e-10 0 0 -6.8918688838e-08 0 0 -1.7425367252e-10 
0 0 -1.7425367252e-10 0 0 -1.7425367252e-10 0 0 -1.7425367252e-10 
0 0 -1.7425367252e-10 0 0 -1.7425367252e-10 0 0 -1.7425367252e-10 
0 0 -1.7425367252e-10 0 0 -1.7425367252e-10 0 0 -1.7425367252e-10 
0 0 -1.7425367252e-10 0 0 -1.7425367252e-10 0 0 -1.7425367252e-10 
0 0 -1.7425367252e-10 0 0 -1.7425367252e-10 0 0 -1.7425367252e-10 
0 0 -1.7425367252e-10 0 0 -1.7425367252e-10 0 0 -1.7425367252e-10 
0 0 -1.7425367252e-10 0 0 -1.7425367252e-10 0 0 -1.7425367252e-10 
0 0 -1.7425367252e-10 0 0 -1.7425367252e-10 0 0 -1.7425367252e-10 
0 0 -1.7425367252e-10 0 0 -1.7425367252e-10 0 0 -1.7425367252e-10 
0 0 -1.7425367252e-10 0 0 -1.7425367252e-10 0 0 -1.7425367252e-10 
0 0 -1.7425367252e-10 0 0 -1.7425367252e-10 0 0 -1.7425367252e-10 
0 0 -1.7425367252e-10 0 0 -1.7425367252e-10 0 0 -1.7425367252e-10 
0 0 -1.7425367252e-10 0 0 -1.7425367252e-10 0 0 -1.7425367252e-10 
0 0 -1.7425367252e-10 0 0 -1.7425367252e-10 0 0 -1.7425367252e-10 
0 0 -1.7425367252e-10 0 0 -1.7425367252e-10 0 0 -1.7425367252e-10 
0 0 -1.7425367252e-10 0 0 -1.7425367252e-10 0 0 -1.7425367252e-10 
0 0 -1.7425367252e-10 0 0 -1.7425367252e-10 0 0 -1.7425367252e-10 
0 0 -1.7425367252e-10 0 0 -8.9019973083e-09 0 0 -1.7425367252e-10 
0 0 -1.7425367252e-10 0 0 -1.7425367252e-10 0 0 -1.7425367252e-10 
0 0 -1.7425367252e-10 0 0 -1.7425367252e-10 0 0 -1.7425367252e-10 
0 0 -1.7425367252e-10 0 0 -1.7425367252e-10 0 0 -1.7425367252e-10 
0 0 -1.7425367252e-10 0 0 -1.7425367252e-10 0 0 -1.7425367252e-10 
0 0 -1.7425367252e-10 0 0 -1.7425367252e-10 0 0 -1.7425367252e-10 
0 0 -1.7425367252e-10 0 0 -1.7425367252e-10 0 0 -1.7425367252e-10 
0 0 -1.7425367252e-10 0 0 -1.7425367252e-10 0 0 -1.7425367252e-10 
0 0 -1.7425367252e-10 0 0 -1.7425367252e-10 0 0 -1.7425367252e-10 
0 0 -1.7425367252e-10 0 0 -1.7425367252e-10 0 0 -1.7425367252e-10 
0 0 -1.7425367252e-10 0 0 -1.7425367252e-10 0 0 -1.7425367252e-10 
0 0 -1.7425367252e-10 0 0 -1.7425367252e-10 0 0 -1.7425367252e-10 
0 0 -1.7425367252e-10 0 0 -1.7425367252e-10 0 0 -1.7425367252e-10 
0 0 -1.7425367252e-10 0 0 -1.7425367252e-10 0 0 -1.7425367252e-10 
0 0 -1.7425367252e-10 0 0 -1.7425367252e-10 0 0 -1.7425367252e-10 
0 0 -1.7425367252e-10 0 0 -1.7425367252e-10 0 0 -8.9019973083e-09 
0 0 -1.7425367252e-10 0 0 -1.7425367252e-10 0 0 -8.9019973083e-09 
0 0 -1.7425367252e-10 0 0 -1.7425367252e-10 0 0 -1.7425367252e-10 
0 0 -8.9019973083e-09 0 0 -8.9019973083e-09 0 0 -1.7425367252e-10 
0 0 -1.7425367252e-10 0 0 -8.9019973083e-09 0 0 -1.7425367252e-10 
0 0 -8.9019973083e-09 0 0 -8.9019973083e-09 0 0 -1.7425367252e-10 
0 0 -1.7425367252e-10 0 0 -1.7425367252e-10 0 0 -1.7425367252e-10 
0 0 -1.7425367252e-10 0 0 -8.9019973083e-09 0 0 -1.7425367252e-10 
0 0 -8.9019973083e-09 0 0 -1.7425367252e-10 0 0 -1.7425367252e-10 
0 0 -1.7425367252e-10 0 0 -1.7425367252e-10 0 0 -1.7425367252e-10 
0 0 -1.7425367252e-10 0 0 -1.7425367252e-10 0 0 -8.9019973083e-09 
0 0 -1.7425367252e-10 0 0 -1.7425367252e-10 0 0 -1.7425367252e-10 
0 0 -1.7425367252e-10 0 0 -1.7425367252e-10 0 0 -1.7425367252e-10 
0 0 -1.7425367252e-10 0 0 -1.7425367252e-10 0 0 -1.7425367252e-10 
0 0 -1.7425367252e-10 0 0 -1.7425367252e-10 0 0 -1.7425367252e-10 
0 0 -1.7425367252e-10 0 0 -1.7425367252e-10 0 0 -1.7425367252e-10 
0 0 -1.7425367252e-10 0 0 -1.7425367252e-10 0 0 -1.7425367252e-10 
0 0 -1.7425367252e-10 0 0 -1.7425367252e-10 0 0 -1.7425367252e-10 
0 0 -1.7425367252e-10 0 0 -1.7425367252e-10 0 0 -1.7425367252e-10 
0 0 -1.7425367252e-10 0 0 -1.7425367252e-10 0 0 -1.7425367252e-10 
0 0 -1.7425367252e-10 0 0 -1.7425367252e-10 0 0 -1.7425367252e-10 
0 0 -1.7425367252e-10 0 0 -1.7425367252e-10 0 0 -1.7425367252e-10 
0 0 -1.7425367252e-10 0 0 -1.7425367252e-10 0 0 -1.7425367252e-10 
0 0 -1.7425367252e-10 0 0 -1.7425367252e-10 0 0 -1.7425367252e-10 
0 0 -1.7425367252e-10 0 0 -1.7425367252e-10 0 0 -1.7425367252e-10 
0 0 -1.7425367252e-10 0 0 -1.7425367252e-10 0 0 -1.7425367252e-10 
0 0 -1.7425367252e-10 0 0 -1.7425367252e-10 0 0 -1.7425367252e-10 
0 0 -1.7425367252e-10 0 0 -1.7425367252e-10 0 0 -1.7425367252e-10 
0 0 -1.7425367252e-10 0 0 -1.7425367252e-10 0 0 -1.7425367252e-10 
0 0 -1.7425367252e-10 0 0 -8.9019973083e-09 0 0 -1.7425367252e-10 
0 0 -1.7425367252e-10 0 0 -1.7425367252e-10 0 0 -1.7425367252e-10 
0 0 -1.7425367252e-10 0 0 -8.9019973083e-09 0 0 -1.7425367252e-10 
0 0 -1.7425367252e-10 0 0 -1.7425367252e-10 0 0 -1.7425367252e-10 
0 0 -1.7425367252e-10 0 0 -5.3297119368e-07 0 0 -1.7425367252e-10 

radius 1 648 double
2e-05 2e-05 2e-05 2e-05 2e-05 2e-05 2e-05 2e-05 2e-05 
2e-05 2e-05 2e-05 2e-05 2e-05 2e-05 2e-05 2e-05 2e-05 
2e-05 2e-05 2e-05 2e-05 2e-05 2e-05 2e-05 2e-05 2e-05 
2e-05 2e-05 2e-05 2e-05 2e-05 2e-05 2e-05 2e-05 2e-05 
2e-05 2e-05 2e-05 2e-05 2e-05 2e-05 2e-05 2e-05 2e-05 
2e-05 2e-05 2e-05 2e-05 2e-05 2e-05 2e-05 2e-05 2e-05 
2e-05 2e-05 2e-05 2e-05 2e-05 2e-05 2e-05 2e-05 2e-05 
2e-05 2e-05 2e-05 2e-05 2e-05 2e-05 2e-05 2e-05 2e-05 
2e-05 2e-05 2e-05 2e-05 2e-05 2e-05 2e-05 2e-05 2e-05 
2e-05 2e-05 2e-05 2e-05 2e-05 2e-05 2e-05 2e-05 2e-05 
2e-05 2e-05 2e-05 2e-05 2e-05 2e-05 2e-05 2e-05 2e-05 
2e-05 2e-05 2e-05 2e-05 2e-05 2e-05 2e-05 2e-05 2e-05 
2e-05 2e-05 2e-05 2e-05 2e-05 2e-05 2e-05 2e-05 2e-05 
2e-05 2e-05 2e-05 2e-05 2e-05 2e-05 2e-05 2e-05 2e-05 
2e-05 2e-05 2e-05 2e-05 2e-05 2e-05 2e-05 2e-05 2e-05 
2e-05 2e-05 2e-05 2e-05 2e-05 2e-05 2e-05 2e-05 2e-05 
2e-05 2e-05 2e-05 2e-05 2e-05 2e-05 2e-05 2e-05 2e-05 
2e-05 2e-05 2e-05 2e-05 2e-05 2e-05 2e-05 2e-05 2e-05 
2e-05 2e-05 2e-05 2e-05 2e-05 2e-05 2e-05 2e-05 2e-05 
2e-05 2e-05 2e-05 2e-05 2e-05 2e-05 2e-05 2e-05 2e-05 
2e-05 2e-05 2e-05 2e-05 2e-05 2e-05 2e-05 2e-05 2e-05 
2e-05 2e-05 2e-05 2e-05 2e-05 2e-05 2e-05 2e-05 2e-05 
2e-05 2e-05 2e-05 2e-05 2e-05 2e-05 2e-05 2e-05 2e-05 
2e-05 2e-05 2e-05 2e-05 2e-05 2e-05 2e-05 2e-05 2e-05 
2e-05 2e-05 2e-05 2e-05 2e-05 2e-05 2e-05 2e-05 2e-05 
2e-05 2e-05 2e-05 2e-05 2e-05 2e-05 2e-05 2e-05 2e-05 
2e-05 2e-05 2e-05 2e-05 2e-05 2e-05 2e-05 2e-05 2e-05 
2e-05 2e-05 2e-05 2e-05 2e-05 2e-05 2e-05 2e-05 2e-05 
2e-05 2e-05 2e-05 2e-05 2e-05 2e-05 2e-05 2e-05 2e-05 
2e-05 2e-05 2e-05 2e-05 2e-05 7.5e-05 2e-05 2e-05 2e-05 
2e-05 2e-05 2e-05 7.5e-05 2e-05 2e-05 2e-05 2e-05 2e-05 
2e-05 2e-05 2e-05 2e-05 2e-05 2e-05 2e-05 2e-05 2e-05 
2e-05 2e-05 2e-05 2e-05 2e-05 2e-05 2e-05 2e-05 2e-05 
2e-05 2e-05 2e-05 2e-05 2e-05 2e-05 2e-05 2e-05 2e-05 
2e-05 2e-05 2e-05 2e-05 2e-05 2e-05 2e-05 2e-05 2e-05 
2e-05 2e-05 2e-05 2e-05 2e-05 2e-05 2e-05 2e-05 2e-05 
2e-05 2e-05 2e-05 2e-05 2e-05 2e-05 2e-05 7.5e-05 2e-05 
2e-05 2e-05 2e-05 2e-05 2e-05 2e-05 2e-05 2e-05 2e-05 
2e-05 2e-05 2e-05 2e-05 2e-05 2e-05 2e-05 2e-05 2e-05 
2e-05 2e-05 2e-05 2e-05 2e-05 2e-05 2e-05 2e-05 2e-05 
2e-05 2e-05 2e-05 2e-05 2e-05 2e-05 2e-05 2e-05 2e-05 
2e-05 2e-05 2e-05 2e-05 2e-05 2e-05 2e-05 2e-05 2e-05 
2e-05 2e-05 2e-05 2e-05 2e-05 2e-05 2e-05 2e-05 2e-05 
2e-05 2e-05 2e-05 2e-05 2e-05 2e-05 2e-05 2e-05 2e-05 
2e-05 2e-05 2e-05 2e-05 2e-05 2e-05 2e-05 2e-05 2e-05 
2e-05 2e-05 2e-05 2e-05 2e-05 2e-05 2e-05 2e-05 2e-05 
2e-05 2e-05 2e-05 2e-05 2e-05 2e-05 2e-05 2e-05 2e-05 
7.5e-05 2e-05 2e-05 2e-05 2e-05 2e-05 2e-05 2e-05 2e-05 
2e-05 2e-05 2e-05 2e-05 2e-05 2e-05 2e-05 2e-05 2e-05 
2e-05 2e-05 2e-05 2e-05 2e-05 2e-05 2e-05 0.00015 2e-05 
2e-05 2e-05 2e-05 2e-05 2e-05 2e-05 2e-05 2e-05 2e-05 
2e-05 2e-05 2e-05 2e-05 2e-05 2e-05 2e-05 2e-05 2e-05 
2e-05 2e-05 2e-05 2e-05 2e-05 2e-05 2e-05 2e-05 2e-05 
2e-05 2e-05 2e-05 2e-05 2e-05 2e-05 2e-05 2e-05 2e-05 
2e-05 2e-05 2e-05 2e-05 2e-05 2e-05 2e-05 2e-05 2e-05 
2e-05 2e-05 2e-05 2e-05 2e-05 2e-05 2e-05 7.5e-05 2e-05 
2e-05 2e-05 2e-05 2e-05 2e-05 2e-05 2e-05 2e-05 2e-05 
2e-05 2e-05 2e-05 2e-05 2e-05 2e-05 2e-05 2e-05 2e-05 
2e-05 2e-05 2e-05 2e-05 2e-05 2e-05 2e-05 2e-05 2e-05 
2e-05 2e-05 2e-05 2e-05 2e-05 2e-05 2e-05 2e-05 2e-05 
2e-05 2e-05 2e-05 2e-05 2e-05 2e-05 2e-05 2e-05 7.5e-05 
2e-05 2e-05 7.5e-05 2e-05 2e-05 2e-05 7.5e-05 7.5e-05 2e-05 
2e-05 7.5e-05 2e-05 7.5e-05 7.5e-05 2e-05 2e-05 2e-05 2e-05 
2e-05 7.5e-05 2e-05 7.5e-05 2e-05 2e-05 2e-05 2e-05 2e-05 
2e-05 2e-05 7.5e-05 2e-05 2e-05 2e-05 2e-05 2e-05 2e-05 
2e-05 2e-05 2e-05 2e-05 2e-05 2e-05 2e-05 2e-05 2e-05 
2e-05 2e-05 2e-05 2e-05 2e-05 2e-05 2e-05 2e-05 2e-05 
2e-05 2e-05 2e-05 2e-05 2e-05 2e-05 2e-05 2e-05 2e-05 
2e-05 2e-05 2e-05 2e-05 2e-05 2e-05 2e-05 2e-05 2e-05 
2e-05 2e-05 2e-05 2e-05 2e-05 2e-05 2e-05 2e-05 2e-05 
2e-05 2e-05 2e-05 2e-05 7.5e-05 2e-05 2e-05 2e-05 2e-05 
2e-05 7.5e-05 2e-05 2e-05 2e-05 2e-05 2e-05 0.0003 2e-05 

omega 3 648 double
0 0 0 0 0 0 0 0 0 
0 0 0 0 0 0 0 0 0 
0 0 0 0 0 0 0 0 0 
0 0 0 0 0 0 0 0 0 
0 0 0 0 0 0 0 0 0 
0 0 0 0 0 0 0 0 0 
0 0 0 0 0 0 0 0 0 
0 0 0 0 0 0 0 0 0 
0 0 0 0 0 0 0 0 0 
0 0 0 0 0 0 0 0 0 
0 0 0 0 0 0 0 0 0 
0 0 0 0 0 0 0 0 0 
0 0 0 0 0 0 0 0 0 
0 0 0 0 0 0 0 0 0 
0 0 0 0 0 0 0 0 0 
0 0 0 0 0 0 0 0 0 
0 0 0 0 0 0 0 0 0 
0 0 0 0 0 0 0 0 0 
0 0 0 0 0 0 0 0 0 
0 0 0 0 0 0 0 0 0 
0 0 0 0 0 0 0 0 0 
0 0 0 0 0 0 0 0 0 
0 0 0 0 0 0 0 0 0 
0 0 0 0 0 0 0 0 0 
0 0 0 0 0 0 0 0 0 
0 0 0 0 0 0 0 0 0 
0 0 0 0 0 0 0 0 0 
0 0 0 0 0 0 0 0 0 
0 0 0 0 0 0 0 0 0 
0 0 0 0 0 0 0 0 0 
0 0 0 0 0 0 0 0 0 
0 0 0 0 0 0 0 0 0 
0 0 0 0 0 0 0 0 0 
0 0 0 0 0 0 0 0 0 
0 0 0 0 0 0 0 0 0 
0 0 0 0 0 0 0 0 0 
0 0 0 0 0 0 0 0 0 
0 0 0 0 0 0 0 0 0 
0 0 0 0 0 0 0 0 0 
0 0 0 0 0 0 0 0 0 
0 0 0 0 0 0 0 0 0 
0 0 0 0 0 0 0 0 0 
0 0 0 0 0 0 0 0 0 
0 0 0 0 0 0 0 0 0 
0 0 0 0 0 0 0 0 0 
0 0 0 0 0 0 0 0 0 
0 0 0 0 0 0 0 0 0 
0 0 0 0 0 0 0 0 0 
0 0 0 0 0 0 0 0 0 
0 0 0 0 0 0 0 0 0 
0 0 0 0 0 0 0 0 0 
0 0 0 0 0 0 0 0 0 
0 0 0 0 0 0 0 0 0 
0 0 0 0 0 0 0 0 0 
0 0 0 0 0 0 0 0 0 
0 0 0 0 0 0 0 0 0 
0 0 0 0 0 0 0 0 0 
0 0 0 0 0 0 0 0 0 
0 0 0 0 0 0 0 0 0 
0 0 0 0 0 0 0 0 0 
0 0 0 0 0 0 0 0 0 
0 0 0 0 0 0 0 0 0 
0 0 0 0 0 0 0 0 0 
0 0 0 0 0 0 0 0 0 
0 0 0 0 0 0 0 0 0 
0 0 0 0 0 0 0 0 0 
0 0 0 0 0 0 0 0 0 
0 0 0 0 0 0 0 0 0 
0 0 0 0 0 0 0 0 0 
0 0 0 0 0 0 0 0 0 
0 0 0 0 0 0 0 0 0 
0 0 0 0 0 0 0 0 0 
0 0 0 0 0 0 0 0 0 
0 0 0 0 0 0 0 0 0 
0 0 0 0 0 0 0 0 0 
0 0 0 0 0 0 0 0 0 
0 0 0 0 0 0 0 0 0 
0 0 0 0 0 0 0 0 0 
0 0 0 0 0 0 0 0 0 
0 0 0 0 0 0 0 0 0 
0 0 0 0 0 0 0 0 0 
0 0 0 0 0 0 0 0 0 
0 0 0 0 0 0 0 0 0 
0 0 0 0 0 0 0 0 0 
0 0 0 0 0 0 0 0 0 
0 0 0 0 0 0 0 0 0 
0 0 0 0 0 0 0 0 0 
0 0 0 0 0 0 0 0 0 
0 0 0 0 0 0 0 0 0 
0 0 0 0 0 0 0 0 0 
0 0 0 0 0 0 0 0 0 
0 0 0 0 0 0 0 0 0 
0 0 0 0 0 0 0 0 0 
0 0 0 0 0 0 0 0 0 
0 0 0 0 0 0 0 0 0 
0 0 0 0 0 0 0 0 0 
0 0 0 0 0 0 0 0 0 
0 0 0 0 0 0 0 0 0 
0 0 0 0 0 0 0 0 0 
0 0 0 0 0 0 0 0 0 
0 0 0 0 0 0 0 0 0 
0 0 0 0 0 0 0 0 0 
0 0 0 0 0 0 0 0 0 
0 0 0 0 0 0 0 0 0 
0 0 0 0 0 0 0 0 0 
0 0 0 0 0 0 0 0 0 
0 0 0 0 0 0 0 0 0 
0 0 0 0 0 0 0 0 0 
0 0 0 0 0 0 0 0 0 
0 0 0 0 0 0 0 0 0 
0 0 0 0 0 0 0 0 0 
0 0 0 0 0 0 0 0 0 
0 0 0 0 0 0 0 0 0 
0 0 0 0 0 0 0 0 0 
0 0 0 0 0 0 0 0 0 
0 0 0 0 0 0 0 0 0 
0 0 0 0 0 0 0 0 0 
0 0 0 0 0 0 0 0 0 
0 0 0 0 0 0 0 0 0 
0 0 0 0 0 0 0 0 0 
0 0 0 0 0 0 0 0 0 
0 0 0 0 0 0 0 0 0 
0 0 0 0 0 0 0 0 0 
0 0 0 0 0 0 0 0 0 
0 0 0 0 0 0 0 0 0 
0 0 0 0 0 0 0 0 0 
0 0 0 0 0 0 0 0 0 
0 0 0 0 0 0 0 0 0 
0 0 0 0 0 0 0 0 0 
0 0 0 0 0 0 0 0 0 
0 0 0 0 0 0 0 0 0 
0 0 0 0 0 0 0 0 0 
0 0 0 0 0 0 0 0 0 
0 0 0 0 0 0 0 0 0 
0 0 0 0 0 0 0 0 0 
0 0 0 0 0 0 0 0 0 
0 0 0 0 0 0 0 0 0 
0 0 0 0 0 0 0 0 0 
0 0 0 0 0 0 0 0 0 
0 0 0 0 0 0 0 0 0 
0 0 0 0 0 0 0 0 0 
0 0 0 0 0 0 0 0 0 
0 0 0 0 0 0 0 0 0 
0 0 0 0 0 0 0 0 0 
0 0 0 0 0 0 0 0 0 
0 0 0 0 0 0 0 0 0 
0 0 0 0 0 0 0 0 0 
0 0 0 0 0 0 0 0 0 
0 0 0 0 0 0 0 0 0 
0 0 0 0 0 0 0 0 0 
0 0 0 0 0 0 0 0 0 
0 0 0 0 0 0 0 0 0 
0 0 0 0 0 0 0 0 0 
0 0 0 0 0 0 0 0 0 
0 0 0 0 0 0 0 0 0 
0 0 0 0 0 0 0 0 0 
0 0 0 0 0 0 0 0 0 
0 0 0 0 0 0 0 0 0 
0 0 0 0 0 0 0 0 0 
0 0 0 0 0 0 0 0 0 
0 0 0 0 0 0 0 0 0 
0 0 0 0 0 0 0 0 0 
0 0 0 0 0 0 0 0 0 
0 0 0 0 0 0 0 0 0 
0 0 0 0 0 0 0 0 0 
0 0 0 0 0 0 0 0 0 
0 0 0 0 0 0 0 0 0 
0 0 0 0 0 0 0 0 0 
0 0 0 0 0 0 0 0 0 
0 0 0 0 0 0 0 0 0 
0 0 0 0 0 0 0 0 0 
0 0 0 0 0 0 0 0 0 
0 0 0 0 0 0 0 0 0 
0 0 0 0 0 0 0 0 0 
0 0 0 0 0 0 0 0 0 
0 0 0 0 0 0 0 0 0 
0 0 0 0 0 0 0 0 0 
0 0 0 0 0 0 0 0 0 
0 0 0 0 0 0 0 0 0 
0 0 0 0 0 0 0 0 0 
0 0 0 0 0 0 0 0 0 
0 0 0 0 0 0 0 0 0 
0 0 0 0 0 0 0 0 0 
0 0 0 0 0 0 0 0 0 
0 0 0 0 0 0 0 0 0 
0 0 0 0 0 0 0 0 0 
0 0 0 0 0 0 0 0 0 
0 0 0 0 0 0 0 0 0 
0 0 0 0 0 0 0 0 0 
0 0 0 0 0 0 0 0 0 
0 0 0 0 0 0 0 0 0 
0 0 0 0 0 0 0 0 0 
0 0 0 0 0 0 0 0 0 
0 0 0 0 0 0 0 0 0 
0 0 0 0 0 0 0 0 0 
0 0 0 0 0 0 0 0 0 
0 0 0 0 0 0 0 0 0 
0 0 0 0 0 0 0 0 0 
0 0 0 0 0 0 0 0 0 
0 0 0 0 0 0 0 0 0 
0 0 0 0 0 0 0 0 0 
0 0 0 0 0 0 0 0 0 
0 0 0 0 0 0 0 0 0 
0 0 0 0 0 0 0 0 0 
0 0 0 0 0 0 0 0 0 
0 0 0 0 0 0 0 0 0 
0 0 0 0 0 0 0 0 0 
0 0 0 0 0 0 0 0 0 
0 0 0 0 0 0 0 0 0 
0 0 0 0 0 0 0 0 0 
0 0 0 0 0 0 0 0 0 
0 0 0 0 0 0 0 0 0 
0 0 0 0 0 0 0 0 0 
0 0 0 0 0 0 0 0 0 
0 0 0 0 0 0 0 0 0 
0 0 0 0 0 0 0 0 0 

fx_mag_viz 1 648 double
0 0 0 0 0 0 0 0 0 
0 0 0 0 0 0 0 0 0 
0 0 0 0 0 0 0 0 0 
0 0 0 0 0 0 0 0 0 
0 0 0 0 0 0 0 0 0 
0 0 0 0 0 0 0 0 0 
0 0 0 0 0 0 0 0 0 
0 0 0 0 0 0 0 0 0 
0 0 0 0 0 0 0 0 0 
0 0 0 0 0 0 0 0 0 
0 0 0 0 0 0 0 0 0 
0 0 0 0 0 0 0 0 0 
0 0 0 0 0 0 0 0 0 
0 0 0 0 0 0 0 0 0 
0 0 0 0 0 0 0 0 0 
0 0 0 0 0 0 0 0 0 
0 0 0 0 0 0 0 0 0 
0 0 0 0 0 0 0 0 0 
0 0 0 0 0 0 0 0 0 
0 0 0 0 0 0 0 0 0 
0 0 0 0 0 0 0 0 0 
0 0 0 0 0 0 0 0 0 
0 0 0 0 0 0 0 0 0 
0 0 0 0 0 0 0 0 0 
0 0 0 0 0 0 0 0 0 
0 0 0 0 0 0 0 0 0 
0 0 0 0 0 0 0 0 0 
0 0 0 0 0 0 0 0 0 
0 0 0 0 0 0 0 0 0 
0 0 0 0 0 0 0 0 0 
0 0 0 0 0 0 0 0 0 
0 0 0 0 0 0 0 0 0 
0 0 0 0 0 0 0 0 0 
0 0 0 0 0 0 0 0 0 
0 0 0 0 0 0 0 0 0 
0 0 0 0 0 0 0 0 0 
0 0 0 0 0 0 0 0 0 
0 0 0 0 0 0 0 0 0 
0 0 0 0 0 0 0 0 0 
0 0 0 0 0 0 0 0 0 
0 0 0 0 0 0 0 0 0 
0 0 0 0 0 0 0 0 0 
0 0 0 0 0 0 0 0 0 
0 0 0 0 0 0 0 0 0 
0 0 0 0 0 0 0 0 0 
0 0 0 0 0 0 0 0 0 
0 0 0 0 0 0 0 0 0 
0 0 0 0 0 0 0 0 0 
0 0 0 0 0 0 0 0 0 
0 0 0 0 0 0 0 0 0 
0 0 0 0 0 0 0 0 0 
0 0 0 0 0 0 0 0 0 
0 0 0 0 0 0 0 0 0 
0 0 0 0 0 0 0 0 0 
0 0 0 0 0 0 0 0 0 
0 0 0 0 0 0 0 0 0 
0 0 0 0 0 0 0 0 0 
0 0 0 0 0 0 0 0 0 
0 0 0 0 0 0 0 0 0 
0 0 0 0 0 0 0 0 0 
0 0 0 0 0 0 0 0 0 
0 0 0 0 0 0 0 0 0 
0 0 0 0 0 0 0 0 0 
0 0 0 0 0 0 0 0 0 
0 0 0 0 0 0 0 0 0 
0 0 0 0 0 0 0 0 0 
0 0 0 0 0 0 0 0 0 
0 0 0 0 0 0 0 0 0 
0 0 0 0 0 0 0 0 0 
0 0 0 0 0 0 0 0 0 
0 0 0 0 0 0 0 0 0 
0 0 0 0 0 0 0 0 0 

fy_mag_viz 1 648 double
0 0 0 0 0 0 0 0 0 
0 0 0 0 0 0 0 0 0 
0 0 0 0 0 0 0 0 0 
0 0 0 0 0 0 0 0 0 
0 0 0 0 0 0 0 0 0 
0 0 0 0 0 0 0 0 0 
0 0 0 0 0 0 0 0 0 
0 0 0 0 0 0 0 0 0 
0 0 0 0 0 0 0 0 0 
0 0 0 0 0 0 0 0 0 
0 0 0 0 0 0 0 0 0 
0 0 0 0 0 0 0 0 0 
0 0 0 0 0 0 0 0 0 
0 0 0 0 0 0 0 0 0 
0 0 0 0 0 0 0 0 0 
0 0 0 0 0 0 0 0 0 
0 0 0 0 0 0 0 0 0 
0 0 0 0 0 0 0 0 0 
0 0 0 0 0 0 0 0 0 
0 0 0 0 0 0 0 0 0 
0 0 0 0 0 0 0 0 0 
0 0 0 0 0 0 0 0 0 
0 0 0 0 0 0 0 0 0 
0 0 0 0 0 0 0 0 0 
0 0 0 0 0 0 0 0 0 
0 0 0 0 0 0 0 0 0 
0 0 0 0 0 0 0 0 0 
0 0 0 0 0 0 0 0 0 
0 0 0 0 0 0 0 0 0 
0 0 0 0 0 0 0 0 0 
0 0 0 0 0 0 0 0 0 
0 0 0 0 0 0 0 0 0 
0 0 0 0 0 0 0 0 0 
0 0 0 0 0 0 0 0 0 
0 0 0 0 0 0 0 0 0 
0 0 0 0 0 0 0 0 0 
0 0 0 0 0 0 0 0 0 
0 0 0 0 0 0 0 0 0 
0 0 0 0 0 0 0 0 0 
0 0 0 0 0 0 0 0 0 
0 0 0 0 0 0 0 0 0 
0 0 0 0 0 0 0 0 0 
0 0 0 0 0 0 0 0 0 
0 0 0 0 0 0 0 0 0 
0 0 0 0 0 0 0 0 0 
0 0 0 0 0 0 0 0 0 
0 0 0 0 0 0 0 0 0 
0 0 0 0 0 0 0 0 0 
0 0 0 0 0 0 0 0 0 
0 0 0 0 0 0 0 0 0 
0 0 0 0 0 0 0 0 0 
0 0 0 0 0 0 0 0 0 
0 0 0 0 0 0 0 0 0 
0 0 0 0 0 0 0 0 0 
0 0 0 0 0 0 0 0 0 
0 0 0 0 0 0 0 0 0 
0 0 0 0 0 0 0 0 0 
0 0 0 0 0 0 0 0 0 
0 0 0 0 0 0 0 0 0 
0 0 0 0 0 0 0 0 0 
0 0 0 0 0 0 0 0 0 
0 0 0 0 0 0 0 0 0 
0 0 0 0 0 0 0 0 0 
0 0 0 0 0 0 0 0 0 
0 0 0 0 0 0 0 0 0 
0 0 0 0 0 0 0 0 0 
0 0 0 0 0 0 0 0 0 
0 0 0 0 0 0 0 0 0 
0 0 0 0 0 0 0 0 0 
0 0 0 0 0 0 0 0 0 
0 0 0 0 0 0 0 0 0 
0 0 0 0 0 0 0 0 0 

fz_mag_viz 1 648 double
0 0 0 0 0 0 0 0 0 
0 0 0 0 0 0 0 0 0 
0 0 0 0 0 0 0 0 0 
0 0 0 0 0 0 0 0 0 
0 0 0 0 0 0 0 0 0 
0 0 0 0 0 0 0 0 0 
0 0 0 0 0 0 0 0 0 
0 0 0 0 0 0 0 0 0 
0 0 0 0 0 0 0 0 0 
0 0 0 0 0 0 0 0 0 
0 0 0 0 0 0 0 0 0 
0 0 0 0 0 0 0 0 0 
0 0 0 0 0 0 0 0 0 
0 0 0 0 0 0 0 0 0 
0 0 0 0 0 0 0 0 0 
0 0 0 0 0 0 0 0 0 
0 0 0 0 0 0 0 0 0 
0 0 0 0 0 0 0 0 0 
0 0 0 0 0 0 0 0 0 
0 0 0 0 0 0 0 0 0 
0 0 0 0 0 0 0 0 0 
0 0 0 0 0 0 0 0 0 
0 0 0 0 0 0 0 0 0 
0 0 0 0 0 0 0 0 0 
0 0 0 0 0 0 0 0 0 
0 0 0 0 0 0 0 0 0 
0 0 0 0 0 0 0 0 0 
0 0 0 0 0 0 0 0 0 
0 0 0 0 0 0 0 0 0 
0 0 0 0 0 0 0 0 0 
0 0 0 0 0 0 0 0 0 
0 0 0 0 0 0 0 0 0 
0 0 0 0 0 0 0 0 0 
0 0 0 0 0 0 0 0 0 
0 0 0 0 0 0 0 0 0 
0 0 0 0 0 0 0 0 0 
0 0 0 0 0 0 0 0 0 
0 0 0 0 0 0 0 0 0 
0 0 0 0 0 0 0 0 0 
0 0 0 0 0 0 0 0 0 
0 0 0 0 0 0 0 0 0 
0 0 0 0 0 0 0 0 0 
0 0 0 0 0 0 0 0 0 
0 0 0 0 0 0 0 0 0 
0 0 0 0 0 0 0 0 0 
0 0 0 0 0 0 0 0 0 
0 0 0 0 0 0 0 0 0 
0 0 0 0 0 0 0 0 0 
0 0 0 0 0 0 0 0 0 
0 0 0 0 0 0 0 0 0 
0 0 0 0 0 0 0 0 0 
0 0 0 0 0 0 0 0 0 
0 0 0 0 0 0 0 0 0 
0 0 0 0 0 0 0 0 0 
0 0 0 0 0 0 0 0 0 
0 0 0 0 0 0 0 0 0 
0 0 0 0 0 0 0 0 0 
0 0 0 0 0 0 0 0 0 
0 0 0 0 0 0 0 0 0 
0 0 0 0 0 0 0 0 0 
0 0 0 0 0 0 0 0 0 
0 0 0 0 0 0 0 0 0 
0 0 0 0 0 0 0 0 0 
0 0 0 0 0 0 0 0 0 
0 0 0 0 0 0 0 0 0 
0 0 0 0 0 0 0 0 0 
0 0 0 0 0 0 0 0 0 
0 0 0 0 0 0 0 0 0 
0 0 0 0 0 0 0 0 0 
0 0 0 0 0 0 0 0 0 
0 0 0 0 0 0 0 0 0 
0 0 0 0 0 0 0 0 0 

B_magnitude 1 648 double
0 0 0 0 0 0 0 0 0 
0 0 0 0 0 0 0 0 0 
0 0 0 0 0 0 0 0 0 
0 0 0 0 0 0 0 0 0 
0 0 0 0 0 0 0 0 0 
0 0 0 0 0 0 0 0 0 
0 0 0 0 0 0 0 0 0 
0 0 0 0 0 0 0 0 0 
0 0 0 0 0 0 0 0 0 
0 0 0 0 0 0 0 0 0 
0 0 0 0 0 0 0 0 0 
0 0 0 0 0 0 0 0 0 
0 0 0 0 0 0 0 0 0 
0 0 0 0 0 0 0 0 0 
0 0 0 0 0 0 0 0 0 
0 0 0 0 0 0 0 0 0 
0 0 0 0 0 0 0 0 0 
0 0 0 0 0 0 0 0 0 
0 0 0 0 0 0 0 0 0 
0 0 0 0 0 0 0 0 0 
0 0 0 0 0 0 0 0 0 
0 0 0 0 0 0 0 0 0 
0 0 0 0 0 0 0 0 0 
0 0 0 0 0 0 0 0 0 
0 0 0 0 0 0 0 0 0 
0 0 0 0 0 0 0 0 0 
0 0 0 0 0 0 0 0 0 
0 0 0 0 0 0 0 0 0 
0 0 0 0 0 0 0 0 0 
0 0 0 0 0 0 0 0 0 
0 0 0 0 0 0 0 0 0 
0 0 0 0 0 0 0 0 0 
0 0 0 0 0 0 0 0 0 
0 0 0 0 0 0 0 0 0 
0 0 0 0 0 0 0 0 0 
0 0 0 0 0 0 0 0 0 
0 0 0 0 0 0 0 0 0 
0 0 0 0 0 0 0 0 0 
0 0 0 0 0 0 0 0 0 
0 0 0 0 0 0 0 0 0 
0 0 0 0 0 0 0 0 0 
0 0 0 0 0 0 0 0 0 
0 0 0 0 0 0 0 0 0 
0 0 0 0 0 0 0 0 0 
0 0 0 0 0 0 0 0 0 
0 0 0 0 0 0 0 0 0 
0 0 0 0 0 0 0 0 0 
0 0 0 0 0 0 0 0 0 
0 0 0 0 0 0 0 0 0 
0 0 0 0 0 0 0 0 0 
0 0 0 0 0 0 0 0 0 
0 0 0 0 0 0 0 0 0 
0 0 0 0 0 0 0 0 0 
0 0 0 0 0 0 0 0 0 
0 0 0 0 0 0 0 0 0 
0 0 0 0 0 0 0 0 0 
0 0 0 0 0 0 0 0 0 
0 0 0 0 0 0 0 0 0 
0 0 0 0 0 0 0 0 0 
0 0 0 0 0 0 0 0 0 
0 0 0 0 0 0 0 0 0 
0 0 0 0 0 0 0 0 0 
0 0 0 0 0 0 0 0 0 
0 0 0 0 0 0 0 0 0 
0 0 0 0 0 0 0 0 0 
0 0 0 0 0 0 0 0 0 
0 0 0 0 0 0 0 0 0 
0 0 0 0 0 0 0 0 0 
0 0 0 0 0 0 0 0 0 
0 0 0 0 0 0 0 0 0 
0 0 0 0 0 0 0 0 0 
0 0 0 0 0 0 0 0 0 

B_gradient_mag 1 648 double
0 0 0 0 0 0 0 0 0 
0 0 0 0 0 0 0 0 0 
0 0 0 0 0 0 0 0 0 
0 0 0 0 0 0 0 0 0 
0 0 0 0 0 0 0 0 0 
0 0 0 0 0 0 0 0 0 
0 0 0 0 0 0 0 0 0 
0 0 0 0 0 0 0 0 0 
0 0 0 0 0 0 0 0 0 
0 0 0 0 0 0 0 0 0 
0 0 0 0 0 0 0 0 0 
0 0 0 0 0 0 0 0 0 
0 0 0 0 0 0 0 0 0 
0 0 0 0 0 0 0 0 0 
0 0 0 0 0 0 0 0 0 
0 0 0 0 0 0 0 0 0 
0 0 0 0 0 0 0 0 0 
0 0 0 0 0 0 0 0 0 
0 0 0 0 0 0 0 0 0 
0 0 0 0 0 0 0 0 0 
0 0 0 0 0 0 0 0 0 
0 0 0 0 0 0 0 0 0 
0 0 0 0 0 0 0 0 0 
0 0 0 0 0 0 0 0 0 
0 0 0 0 0 0 0 0 0 
0 0 0 0 0 0 0 0 0 
0 0 0 0 0 0 0 0 0 
0 0 0 0 0 0 0 0 0 
0 0 0 0 0 0 0 0 0 
0 0 0 0 0 0 0 0 0 
0 0 0 0 0 0 0 0 0 
0 0 0 0 0 0 0 0 0 
0 0 0 0 0 0 0 0 0 
0 0 0 0 0 0 0 0 0 
0 0 0 0 0 0 0 0 0 
0 0 0 0 0 0 0 0 0 
0 0 0 0 0 0 0 0 0 
0 0 0 0 0 0 0 0 0 
0 0 0 0 0 0 0 0 0 
0 0 0 0 0 0 0 0 0 
0 0 0 0 0 0 0 0 0 
0 0 0 0 0 0 0 0 0 
0 0 0 0 0 0 0 0 0 
0 0 0 0 0 0 0 0 0 
0 0 0 0 0 0 0 0 0 
0 0 0 0 0 0 0 0 0 
0 0 0 0 0 0 0 0 0 
0 0 0 0 0 0 0 0 0 
0 0 0 0 0 0 0 0 0 
0 0 0 0 0 0 0 0 0 
0 0 0 0 0 0 0 0 0 
0 0 0 0 0 0 0 0 0 
0 0 0 0 0 0 0 0 0 
0 0 0 0 0 0 0 0 0 
0 0 0 0 0 0 0 0 0 
0 0 0 0 0 0 0 0 0 
0 0 0 0 0 0 0 0 0 
0 0 0 0 0 0 0 0 0 
0 0 0 0 0 0 0 0 0 
0 0 0 0 0 0 0 0 0 
0 0 0 0 0 0 0 0 0 
0 0 0 0 0 0 0 0 0 
0 0 0 0 0 0 0 0 0 
0 0 0 0 0 0 0 0 0 
0 0 0 0 0 0 0 0 0 
0 0 0 0 0 0 0 0 0 
0 0 0 0 0 0 0 0 0 
0 0 0 0 0 0 0 0 0 
0 0 0 0 0 0 0 0 0 
0 0 0 0 0 0 0 0 0 
0 0 0 0 0 0 0 0 0 
0 0 0 0 0 0 0 0 0 

