# vtk DataFile Version 5.1
Generated by LIGGGHTS
ASCII
DATASET POLYDATA
POINTS 648 float
-0.0179231 -0.00300678 0.00103744 0.00798734 -0.0367051 0.00169582 0.0289145 -0.0340196 0.00225661 
-0.015788 -0.0282898 0.00267636 0.00357123 -0.00830953 0.00119863 -0.0129003 -0.00574839 0.00146946 
0.0154702 -0.00154679 0.00277889 0.0384376 0.000848974 0.00190464 0.021602 0.00540593 0.00168312 
-0.0144089 0.0201081 0.00173237 0.0104707 0.0313218 0.00156562 -0.0197415 0.0344175 0.00114456 
-0.0428902 -0.0449088 0.00280318 0.0185094 -0.042363 0.00387805 0.0341086 -0.0368686 0.00310788 
-0.0105296 -0.0314142 0.00307662 -0.0198564 -0.00683511 0.00308782 -0.0356048 -0.000104637 0.0028917 
-0.0426568 0.00723228 0.00342731 0.0379188 0.0120326 0.00368758 -0.0310202 0.0131063 0.00339422 
0.0248423 0.0143007 0.00313229 -0.0245993 0.0193658 0.00253763 0.0123926 0.0218243 0.00284992 
-0.0170112 0.0231088 0.00255089 0.0167463 0.0251763 0.00277816 -0.0440308 0.0448256 0.0035638 
0.0419483 -0.0348097 0.00386567 -0.0419519 -0.0259749 0.00407977 0.033456 -0.0256735 0.00379009 
0.0414834 -0.0181367 0.00507842 0.00689113 -0.0107816 0.00490437 0.0350526 -0.0102353 0.00442936 
0.00937085 -0.00418454 0.00450675 0.0292006 0.00433004 0.00409411 0.0212596 0.00979192 0.00453034 
0.0143092 0.0139794 0.00403995 -0.0360536 0.0173104 0.00424223 -0.0153727 0.020636 0.00503632 
0.03506 0.0228899 0.00467956 0.0297434 0.0373158 0.00495351 -0.0437633 0.0406561 0.00507128 
-0.00302782 -0.0385948 0.00528657 0.0156715 -0.0391733 0.00615157 -0.0266532 -0.0301716 0.005135 
-0.0108877 -0.0188832 0.00572818 -0.0420316 -0.0145538 0.00603977 0.00635633 0.000852437 0.00541707 
0.00417698 0.0024455 0.00586097 0.0305447 0.00486582 0.00532932 -0.0287984 0.00559412 0.00551734 
-0.034865 0.0142961 0.00637242 0.0114764 0.0140289 0.00577188 0.0287781 0.014071 0.00586532 
0.0215224 0.0171285 0.00529539 0.0323341 0.0191974 0.00571313 -0.0282566 0.021284 0.00553702 
-0.0296003 0.0277025 0.00519799 -0.0409258 0.0305044 0.00620903 0.0131273 0.040817 0.0058684 
0.0339316 -0.041715 0.00707027 0.040047 -0.0404588 0.00682394 -0.0232422 -0.0321576 0.00743338 
0.0101031 -0.0273014 0.00721025 -0.00446216 -0.0255279 0.00761477 -0.0336946 -0.0248459 0.00692766 
-0.0329608 -0.0218045 0.00753949 0.0436787 -0.0219137 0.00726264 0.0336491 -0.0197505 0.00666888 
0.0030191 -0.0179247 0.00726893 0.0223879 -0.0163393 0.00669229 0.0277003 -0.0107969 0.0074781 
-0.0386256 -0.00983966 0.00716133 -0.024842 -0.00884532 0.00767015 -0.00783961 -0.000387029 0.00737499 
-0.00967086 0.00179773 0.00743623 0.00265626 0.00371614 0.00705104 0.00314898 0.00491531 0.00766114 
0.0320014 0.00756294 0.00682635 -0.0371624 0.011326 0.00669947 0.0399323 0.0117688 0.00750776 
0.0153641 0.0146287 0.0072624 -0.0269229 0.0267788 0.0067089 -0.0213481 0.0319153 0.00749772 
0.00284552 0.0345861 0.00746159 0.0165329 0.0385374 0.00687066 0.0251972 0.0393087 0.00670144 
-0.0390027 0.0421086 0.00654139 -0.0160353 0.0448572 0.00668192 -0.044759 -0.0437614 0.00882066 
-0.042922 -0.0404536 0.00887919 0.0433459 -0.0353282 0.00892376 0.023158 -0.0340207 0.00863701 
0.0244271 -0.0334586 0.00795664 -0.0448384 -0.0296834 0.00892979 0.00577088 -0.0287415 0.00811891 
0.032808 -0.025967 0.00879973 -0.0408326 -0.0234295 0.00839976 -0.0317771 -0.0175651 0.00884431 
0.0404767 -0.0183151 0.00897815 -0.0393221 -0.0167834 0.00857902 -0.0227164 -0.0141288 0.00882225 
-0.0207563 -0.0111167 0.00919102 0.0223025 -0.0112244 0.0085924 0.0342493 -0.0115037 0.00795527 
-0.0326334 -0.00963456 0.00842564 -0.0112192 -0.0104501 0.008936 0.00743742 -0.00926665 0.00863248 
0.0275881 -0.00673863 0.00870801 0.0131353 -0.00504642 0.00885291 0.0414788 -0.00521487 0.00817371 
-0.00702036 -0.00121172 0.0078524 -0.0170872 0.00564833 0.00819463 0.0011249 0.00615697 0.00792485 
0.0228765 0.00606581 0.00898264 8.23501e-07 0.0138406 0.00806944 -0.0214239 0.0189608 0.00855224 
-0.023041 0.0197144 0.0085127 0.0226957 0.0260881 0.00856416 0.0444958 0.0309554 0.00899471 
0.0152528 0.033152 0.00864036 0.0164577 0.0353116 0.00820251 -0.0281804 0.0418824 0.00820522 
0.00513794 0.0433856 0.00846392 0.0262096 -0.0449372 0.0104073 -0.0308094 -0.0435702 0.00907487 
0.0418836 -0.0421436 0.0103276 0.0338942 -0.0410147 0.00984659 -0.0385899 -0.0405251 0.00872578 
0.0308099 -0.0378456 0.00986101 0.0333162 -0.0342631 0.0100486 -0.00586029 -0.0338127 0.0101138 
0.00264867 -0.0338128 0.00990881 -0.0160452 -0.0323821 0.0100093 0.0280204 -0.0311414 0.00914856 
0.000892701 -0.0263701 0.009387 -0.0328109 -0.0226975 0.00945104 0.0363266 -0.0194176 0.00949012 
-0.0405162 -0.0161033 0.00982856 -0.0257955 -0.0157834 0.00976219 0.0302919 -0.0148257 0.0101051 
0.0414517 -0.0114994 0.00983049 -0.0449336 -0.00957357 0.0100544 -0.0222502 -0.00974669 0.00995087 
0.0282359 -0.00877456 0.00935303 0.0293019 -0.00298432 0.00932421 0.0449494 0.00392273 0.0097586 
0.0277548 0.0042931 0.00993825 0.0221269 0.00728552 0.00954743 -0.0392616 0.00972366 0.00945687 
-0.0214351 0.00957734 0.00904341 -0.0101256 0.00978275 0.00961798 -0.0394276 0.0109375 0.00925217 
-0.022709 0.0198803 0.0096519 -0.0102477 0.0267602 0.00931721 -0.0368667 0.0306348 0.00978509 
0.0354139 0.0312817 0.00950076 0.0364634 0.0310238 0.0092284 -0.0264781 0.032823 0.00901419 
-0.0312382 0.0393096 0.0102154 0.0163992 0.0415262 0.00932383 -0.0335565 -0.0442122 0.0112947 
-0.0349861 -0.0412827 0.0104401 -0.00521279 -0.0413279 0.00986905 0.0414821 -0.0410789 0.0109982 
-0.018434 -0.0405477 0.0108409 -0.0108246 -0.0388127 0.0109687 0.000822496 -0.0363122 0.0103934 
0.027474 -0.0338615 0.0114074 -0.0262624 -0.032473 0.0112275 0.0346336 -0.0325969 0.0109337 
-0.0225401 -0.0213878 0.0112079 0.0262592 -0.0217201 0.0113111 -0.00444012 -0.0151621 0.0103817 
-0.0388614 -0.0136303 0.011449 -0.0117656 -0.0138394 0.0104131 0.013874 -0.00963069 0.0107406 
0.0313953 -0.00974065 0.0114863 -0.0343844 -0.0078404 0.011079 0.0109664 -0.00760095 0.0106359 
-0.00747582 -0.00609419 0.0113739 -0.040885 -0.00406647 0.0104721 -0.0141425 -0.00311887 0.0104511 
-0.00229178 0.0020129 0.010529 0.032558 0.00153523 0.0111004 0.0101693 0.00555192 0.011096 
0.0246705 0.0064451 0.0106957 0.0283387 0.00890506 0.0111137 0.0197977 0.00963841 0.010351 
-0.00279986 0.0127222 0.0108066 -0.00307286 0.0144526 0.0114369 0.012585 0.0155082 0.0110948 
0.0121458 0.0151918 0.0112717 0.0418335 0.0161761 0.0106378 0.00153271 0.0201988 0.0117659 
0.0307708 0.0242663 0.0109657 -0.0127911 0.0299546 0.0113566 -0.032208 0.0306075 0.0106969 
-0.0200898 0.0311527 0.0110497 0.00372347 0.0304157 0.0111144 0.0439232 0.0371117 0.0110702 
-0.00973825 0.0391656 0.0112715 0.0238959 0.0383247 0.0106177 0.00308146 0.0401468 0.0104153 
0.0222253 0.0407186 0.0111386 0.0181024 -0.0433049 0.0127004 0.0348044 -0.042095 0.0125823 
0.000425919 -0.0415728 0.0129802 -0.0248652 -0.040212 0.0120744 -0.0168273 -0.0360331 0.0125305 
0.00594186 -0.0351889 0.0123573 0.0449741 -0.0303513 0.0126197 0.0412685 -0.0295104 0.0120837 
-0.0430551 -0.0267583 0.0120866 0.0306875 -0.0259396 0.0119394 0.039775 -0.0211058 0.0117568 
-0.0296942 -0.0196153 0.0119781 0.00156248 -0.0194187 0.012796 -0.0183202 -0.0175475 0.0129062 
-0.0100897 -0.0180162 0.0120209 0.0198229 -0.0156851 0.0122517 -0.00553214 -0.00871323 0.0116493 
-0.00254943 -0.00825679 0.0127166 -0.00433253 -0.00676057 0.0120518 0.0129906 -0.00677597 0.0130455 
-0.00474481 -0.00600267 0.0119701 0.021323 -0.00444137 0.011775 -0.0281455 -0.00127675 0.0118418 
0.0290986 -0.000251763 0.0128097 -0.0260142 0.00017485 0.0121614 0.0188762 0.00181355 0.012513 
-0.0325416 0.00283857 0.0126881 0.0340899 0.00882812 0.0118379 0.0211953 0.00966092 0.012968 
0.0398091 0.011618 0.0120385 0.00861143 0.0123591 0.0117563 -0.0081225 0.0151775 0.011364 
0.00517921 0.0169249 0.0117423 0.00546842 0.0177814 0.0129416 0.0090081 0.0191686 0.0117831 
0.00976854 0.0197772 0.0127423 0.0258603 0.0235991 0.0126672 0.0395905 0.0272142 0.0127912 
0.0038092 0.0311583 0.0120724 0.026696 0.03017 0.012842 -0.0073504 0.0318329 0.0125928 
0.00390562 0.0317225 0.0118351 0.01325 0.0319187 0.0119378 -0.0422696 0.0340949 0.0128494 
-0.00674967 -0.0416523 0.0131777 -0.0334706 -0.0396012 0.0131721 0.0346338 -0.0290927 0.0134224 
0.0164647 -0.0275391 0.0139278 0.0155599 -0.0240909 0.0133516 -0.0323128 -0.0219837 0.0132449 
-0.0291427 -0.0219343 0.0140163 0.0233461 -0.0214624 0.0132422 -0.00827992 -0.020547 0.0138864 
0.0218308 -0.0192565 0.0134877 0.0184681 -0.0172117 0.0141626 -0.0426154 -0.0165053 0.0142181 
-0.0339565 -0.0167518 0.0136789 0.0252581 -0.0163235 0.0142991 0.0323804 -0.0132471 0.0134305 
0.0322358 -0.0130621 0.0137814 0.0286804 -0.00919085 0.0132222 -0.00401126 -0.00720159 0.0140743 
0.0404774 -0.00688032 0.0131357 0.0387156 -0.00624884 0.0130743 0.0180565 -0.00487531 0.0139492 
-0.0120059 -0.00345367 0.0130132 0.00664535 -0.00164817 0.013762 -0.000610522 -0.00103491 0.0135324 
-0.025141 0.00447188 0.0130257 0.0404406 0.00462082 0.0142629 -0.0406381 0.00555966 0.0141708 
-0.00552594 0.00555795 0.0140489 0.00474506 0.0103043 0.0143022 -0.0365733 0.0119208 0.01316 
0.00243185 0.0120975 0.0134784 0.000954082 0.0152563 0.0135219 0.0407412 0.0174253 0.0133721 
0.018015 0.0183735 0.0134602 -0.0267196 0.0236159 0.0140412 -0.0386663 0.0253433 0.0136247 
-0.0267569 0.0263983 0.0138487 -0.00563177 0.0268155 0.0135324 0.00834461 0.0278725 0.0130779 
0.0191509 0.0299648 0.0141669 -0.0313244 0.0314049 0.0130783 -0.0108954 0.0304 0.0130715 
-0.0337286 0.0337045 0.0133365 0.0231674 0.0340949 0.0131389 -0.041477 0.0364172 0.0134373 
-0.0155539 0.0359545 0.0124603 -0.0133259 0.0414802 0.0136071 0.0294278 0.0431452 0.0130648 
0.0405446 0.0433429 0.0134304 -0.027409 -0.0433703 0.0153524 0.0416479 -0.0439733 0.0143173 
0.0201641 -0.0426709 0.0156031 -0.0406141 -0.0405112 0.0144035 -0.0169239 -0.0402939 0.0145877 
-0.0273176 -0.0361067 0.0145115 -0.00161929 -0.0353994 0.015107 0.0195647 -0.0366528 0.0151546 
-0.0177429 -0.0346724 0.0147091 0.0077947 -0.0345433 0.0143835 0.00879071 -0.0344865 0.0152997 
0.0403097 -0.0347888 0.0151238 -0.0427235 -0.0332389 0.0152362 0.00802514 -0.031483 0.0151321 
-0.0386911 -0.0311434 0.0145407 0.00231692 -0.0294453 0.0155975 0.0392765 -0.0300093 0.0147015 
-0.0401314 -0.0280847 0.0146999 -0.0432264 -0.0264101 0.0149444 -0.00580099 -0.0272788 0.0155353 
0.0054016 -0.025334 0.0145509 -0.0164034 -0.0216001 0.015377 0.00623721 -0.0211799 0.0144927 
-0.0328213 -0.0176588 0.0145717 -0.0408642 -0.0154151 0.0153782 -0.015814 -0.0152491 0.0144829 
0.0268005 -0.0146468 0.0152148 0.0375745 -0.0151367 0.0145479 -0.0329121 -0.0139828 0.0154063 
-0.0313057 -0.0141988 0.0156472 -0.0341597 -0.0122829 0.0147366 0.0176437 -0.0119747 0.0148608 
0.0251729 -0.00985964 0.0145169 -0.042331 -0.00792816 0.0151828 -0.0304645 -0.00701594 0.0149731 
-0.042786 -0.00359954 0.0148805 -0.0408474 -0.00214648 0.0145925 -0.0376932 -0.000132947 0.0144809 
0.0147261 0.00139147 0.0154989 0.030759 0.00580352 0.0143871 0.0332757 0.00539899 0.0152456 
0.00533928 0.00728904 0.0144988 0.0110904 0.00657535 0.0154711 0.023953 0.00820576 0.0157194 
-0.0349081 0.00917553 0.0154969 0.00978397 0.00922321 0.0148023 -0.0350204 0.0121089 0.0155159 
-0.00831541 0.0129665 0.0148993 0.00789931 0.0136568 0.0148662 -0.00443291 0.0160613 0.0146057 
0.0256029 0.0175394 0.0149966 0.00395304 0.0187088 0.0143554 0.00757299 0.0192258 0.0144233 
0.0350116 0.0207306 0.0153385 0.00128112 0.0217131 0.0149608 0.0362273 0.0220011 0.0154102 
0.0181332 0.0246356 0.0147359 -0.00739359 0.0259593 0.014404 0.00953871 0.0271324 0.0153798 
-0.0357156 0.0282031 0.0143815 -0.0152062 0.0294088 0.0150999 0.0434247 0.0295768 0.0143184 
-0.0219587 0.0304934 0.0150486 0.0372507 0.0318783 0.0146634 0.0214431 0.0335886 0.0150367 
-0.00196307 0.0366495 0.0147957 -0.0245447 0.0378537 0.0145173 0.0030545 0.0369981 0.0154084 
-0.00883869 0.0381834 0.0145695 0.0281745 0.039089 0.0149856 -0.0112537 0.0395394 0.014812 
0.0221021 0.0401282 0.0152488 0.00805094 0.0422278 0.0149149 -0.0205282 0.0432397 0.0145646 
0.0114086 0.0440135 0.0146085 0.0399235 0.0434757 0.0154756 0.0171919 0.0449185 0.0145051 
0.0211706 0.0445491 0.0145015 -0.0346971 -0.0446764 0.0165564 -0.00340304 -0.0448428 0.0157156 
-0.0248654 -0.0427111 0.0166551 0.0248068 -0.0428986 0.0163594 0.0238162 -0.0409762 0.0167074 
-0.00670669 -0.0394183 0.0156091 0.0244803 -0.0401788 0.0163983 0.0397687 -0.0374633 0.0167483 
-0.0439713 -0.0357399 0.0157358 0.0355384 -0.0354155 0.0166946 -0.0396817 -0.0304797 0.0158437 
0.023019 -0.0293484 0.015937 0.03382 -0.0268981 0.0168328 -0.0338231 -0.0250135 0.0157173 
-0.0350278 -0.0224863 0.0157884 -0.0139777 -0.0223984 0.0165605 0.0115492 -0.0227248 0.0157065 
-0.0204621 -0.0172006 0.0162709 0.0282033 -0.0178095 0.0160627 0.0433204 -0.0141837 0.015569 
-0.0196799 -0.00931279 0.0160157 -0.0136128 -0.00979682 0.0156627 -0.0395569 -0.00227866 0.0157589 
-0.0416237 0.00110806 0.0164541 0.0362421 0.00170773 0.0168596 -0.037077 0.00611456 0.0159138 
-0.00723413 0.00605583 0.0165348 0.0142017 0.0079404 0.0160073 0.0202046 0.00840095 0.0160123 
0.014866 0.0127598 0.0164941 0.0261916 0.0119357 0.0166564 -0.0429188 0.0135204 0.0166177 
0.0440772 0.0154938 0.0162658 -0.0193355 0.018129 0.0159937 -0.0256005 0.0215871 0.0152275 
-0.0421793 0.0225172 0.0167495 -0.0349287 0.0230684 0.0162269 -0.0295899 0.0232577 0.0156408 
0.0146363 0.0223077 0.0165306 -0.00782209 0.0241861 0.0158251 0.00264144 0.0247174 0.015965 
-0.0406313 0.0295913 0.0159737 -0.00435696 0.0325462 0.0162007 -0.00472634 0.0344449 0.0158575 
-0.0407273 0.0358476 0.015902 -0.00647711 0.0391566 0.0161783 -0.039126 0.0399637 0.0159773 
-0.0375088 0.0393741 0.0161995 -0.0181988 0.0434549 0.0168791 0.0145521 -0.0432303 0.0171395 
0.0131812 -0.0427533 0.0178574 0.0166138 -0.0412108 0.0180612 -0.0370475 -0.0370945 0.0170714 
-0.0309963 -0.0355024 0.0181301 -8.23525e-05 -0.034098 0.0179219 -0.0376897 -0.0314333 0.0172806 
-0.0263426 -0.0292431 0.0174883 -0.0240719 -0.0268296 0.0180152 0.00538025 -0.0241403 0.0178584 
0.0109547 -0.0235646 0.0171546 0.035159 -0.023363 0.0181416 0.00548761 -0.0197918 0.0174732 
0.038292 -0.016257 0.0178844 0.0249316 -0.014475 0.0173185 -0.0186412 -0.0134353 0.0181034 
0.0403752 -0.0143085 0.0173002 -0.0327621 -0.0121928 0.0177785 -0.0269092 -0.0125643 0.0170512 
0.0406218 -0.0100941 0.0172783 -0.0344646 -0.00725539 0.0179249 -0.0211095 -0.00770044 0.016968 
-0.0150798 -0.00698339 0.0176845 -0.0135858 -0.00672635 0.0173701 0.0161928 -0.00760918 0.017614 
0.00523139 -0.00599236 0.0174378 0.0180458 -0.00470109 0.017907 -0.00941413 -0.00330341 0.0181727 
0.00975646 -0.00313231 0.0177741 -0.00896956 -0.00131708 0.0176734 0.0140084 -6.89735e-05 0.0182037 
0.0407777 0.000744206 0.0174231 -0.0261639 0.00337815 0.0175166 0.00243665 0.00282786 0.0178707 
-0.00757157 0.00454821 0.0165049 0.0323225 0.00436429 0.0172443 0.0133448 0.00646544 0.0182828 
0.0250346 0.00641518 0.0176761 0.0128044 0.0127337 0.017075 -0.00867948 0.0139924 0.0176738 
0.0336082 0.013194 0.0178281 0.0441199 0.0136981 0.0176365 -0.0196462 0.0155185 0.017112 
0.0226738 0.0181095 0.0177352 0.0122157 0.0191756 0.0169848 0.0388885 0.0193682 0.0170571 
-0.0431379 0.0208085 0.0172008 -0.0287332 0.0215601 0.0170842 -0.0122989 0.0222019 0.0178211 
0.0398418 0.0217469 0.0179963 0.0438582 0.0244724 0.0178459 0.000162142 0.0251126 0.0175395 
-0.0190887 0.0269029 0.0172394 -0.0114472 0.026715 0.0171435 -0.0376379 0.0294143 0.0172328 
0.00519606 0.0301696 0.0177828 0.00317215 0.0343196 0.0177021 0.0311732 0.0371467 0.0171909 
0.0352701 0.0439749 0.0178367 0.0352379 0.0438995 0.0174157 -0.0317519 -0.0446953 0.0191391 
-0.00396528 -0.0444182 0.0183213 0.0195053 -0.043722 0.0185861 -0.0389435 -0.0425966 0.0187133 
0.0406519 -0.0427256 0.0192253 -0.0136468 -0.0412372 0.0184925 0.0424299 -0.0409921 0.0187577 
0.00849583 -0.0405939 0.0192226 -0.0289295 -0.0389067 0.0187871 -0.0234086 -0.038644 0.0190994 
-0.0195638 -0.0385913 0.019111 0.0325128 -0.03812 0.018646 0.00985621 -0.0367022 0.0183488 
-0.00338111 -0.0363358 0.0185112 0.0307351 -0.0355434 0.0186049 -0.0179089 -0.0346335 0.019313 
-0.0177803 -0.0340186 0.0184563 -0.0161578 -0.0337243 0.0183753 -0.0233761 -0.031813 0.0194298 
-0.0210092 -0.0320472 0.0188493 0.0268369 -0.0315202 0.0189852 -0.0220587 -0.0306349 0.0186686 
0.010226 -0.0308634 0.0189686 -0.0414327 -0.0290659 0.0184424 -0.0346801 -0.0287009 0.0185921 
-0.0240024 -0.0280603 0.0183524 0.0153133 -0.0285941 0.0184666 0.0156293 -0.0283842 0.0189258 
0.0347572 -0.0260666 0.0192823 -0.00863888 -0.0237376 0.0182579 0.00179778 -0.0247441 0.0185468 
0.00558373 -0.0242787 0.0189605 0.0102479 -0.024092 0.0193444 0.0210005 -0.0239559 0.01893 
-0.038621 -0.0229432 0.0188653 -0.0127621 -0.0231756 0.0188897 0.0240101 -0.0228809 0.0187568 
0.0394323 -0.021923 0.0192935 -0.0210835 -0.0209207 0.0183271 -0.0033641 -0.0204173 0.0183245 
-0.0207996 -0.0190456 0.0188144 0.0134129 -0.0192809 0.0188324 -0.0147645 -0.0165889 0.0186188 
0.0296492 -0.015918 0.0188951 0.0132043 -0.01541 0.0186016 0.0323803 -0.0150629 0.0188552 
-0.0279963 -0.0141356 0.0186273 -0.00710141 -0.0133745 0.0186941 0.00886689 -0.0141191 0.0192155 
0.0144468 -0.013247 0.0184334 -0.00528066 -0.0121118 0.0186668 0.0347312 -0.012978 0.0187931 
0.0253763 -0.011051 0.0193992 -0.038829 -0.00978443 0.0191657 -0.0253401 -0.0103599 0.018759 
0.0218314 -0.00971151 0.0188757 0.0334462 -0.00930086 0.01861 -0.0214415 -0.007536 0.019412 
-0.0101373 -0.00698039 0.0186376 -0.00720807 -0.00608605 0.0186524 -0.0253129 -0.0039775 0.0187838 
0.0200271 -0.00425623 0.0184 -0.0107529 -0.00365687 0.0190806 -0.0198668 -0.00211416 0.018704 
0.0168839 -0.00210364 0.0182429 -0.0283489 -0.000417126 0.0183549 -0.0153419 -0.00108619 0.018256 
0.00127443 -0.000618905 0.0186533 0.0420414 -0.00101026 0.0189155 -0.0332593 0.000859011 0.01897 
0.0116524 0.00206193 0.0188528 0.0189244 0.00254502 0.0194336 -0.0233311 0.00384073 0.0190724 
0.0183943 0.00266245 0.0184385 -0.027449 0.00511055 0.0190009 0.0260144 0.00429017 0.0192423 
-0.0403489 0.00598291 0.0183397 -0.01547 0.00642247 0.0191921 0.0358407 0.00533501 0.0186291 
-0.0429246 0.00657681 0.0187174 -0.019893 0.00878872 0.0191155 -0.0105861 0.00898083 0.0185654 
0.0324887 0.00836074 0.0186809 -0.0408306 0.00999374 0.0192234 0.0234497 0.00978487 0.0187627 
0.027557 0.009967 0.019277 -0.00808524 0.0113378 0.0191372 -0.00071691 0.0108932 0.0186877 
0.00418285 0.0112423 0.019502 -0.00841171 0.0143034 0.0185522 0.012949 0.0143048 0.0188125 
0.0311878 0.014057 0.018268 0.0396593 0.013993 0.01859 -0.0287818 0.014969 0.0186927 
-0.0231109 0.0157017 0.0186384 -0.0408838 0.0159645 0.0186255 -0.0286532 0.0159811 0.0187084 
-0.0161548 0.0159009 0.0190802 -0.00317984 0.0164631 0.0186756 -0.0436896 0.0195853 0.0187088 
-0.0363159 0.0185996 0.0186902 0.00742845 0.0199749 0.0195169 -0.0324762 0.0230005 0.0190407 
-0.0148746 0.0223253 0.0185713 0.00126512 0.0228658 0.0186264 -0.0436572 0.0238848 0.0186864 
-0.0138035 0.0240512 0.0188852 -0.0132251 0.0252506 0.0190981 -0.0128609 0.0265935 0.0186097 
-0.0214233 0.0285543 0.0187767 0.0397191 0.0283771 0.0188614 0.0040127 0.0314243 0.0189121 
0.0191028 0.0315895 0.0186012 0.0193546 0.0324404 0.0190794 0.0337272 0.0324898 0.0192374 
0.0380057 0.0324307 0.019384 -0.0425374 0.0333781 0.0188896 0.00727395 0.0332762 0.0182529 
0.0278529 0.0342296 0.0190518 -0.00750544 0.0361316 0.0190778 0.00888594 0.0360502 0.0184898 
0.00367032 0.0371324 0.0189755 -0.00585061 0.0388609 0.0183893 -0.0379532 0.0399341 0.0188737 
0.00201585 0.0404036 0.0189265 -0.00785852 0.041878 0.0190153 0.0170579 0.0421878 0.0192088 
0.0430506 0.0422314 0.018927 0.00528787 0.0432844 0.0186269 -0.0390775 0.0447256 0.0185626 
-0.0190394 0.0446837 0.0195532 0.0147823 -0.0446949 0.0199293 0.043014 -0.0343178 0.0199602 
-0.00682403 -0.0314098 0.0207694 0.0350196 -0.0250011 0.0202009 0.0204492 -0.0194639 0.019938 
0.0272875 -0.0186725 0.0203662 0.0386193 -0.00496685 0.0201123 -0.0131355 0.00164571 0.0205064 
-0.0137512 0.00384646 0.0208608 -0.009285 0.00693532 0.0208072 -0.00598638 0.00689803 0.020552 
-0.014478 0.0275162 0.0200925 -0.0359241 0.0337864 0.0197455 0.0132394 0.0345575 0.0196785 
-0.0225361 -0.0441701 0.0219614 0.0188903 -0.0308528 0.0209773 -0.0207679 -0.0256315 0.0214085 
0.0127657 -0.00746761 0.0216863 0.0448793 -0.00396119 0.0221169 0.00643655 -0.000956063 0.0205449 
-0.0408092 0.00981999 0.0214849 0.021223 0.0244832 0.0208504 -0.0260391 0.0304395 0.0219996 
0.0352883 -0.0103067 0.0230607 -0.0442311 0.00821601 0.0222479 0.00976298 0.0163696 0.0225721 
-0.0122189 0.0175978 0.0229996 0.00741479 -0.0295782 0.0240995 0.00347554 0.00338662 0.0237244 
0.039455 -0.000236508 0.0251121 -0.00254916 -0.00379952 0.0266891 0.0242571 -0.0100823 0.0327974 

VERTICES 649 648
OFFSETS vtktypeint64
0 1 2 3 4 5 6 7 8 
9 10 11 12 13 14 15 16 17 
18 19 20 21 22 23 24 25 26 
27 28 29 30 31 32 33 34 35 
36 37 38 39 40 41 42 43 44 
45 46 47 48 49 50 51 52 53 
54 55 56 57 58 59 60 61 62 
63 64 65 66 67 68 69 70 71 
72 73 74 75 76 77 78 79 80 
81 82 83 84 85 86 87 88 89 
90 91 92 93 94 95 96 97 98 
99 100 101 102 103 104 105 106 107 
108 109 110 111 112 113 114 115 116 
117 118 119 120 121 122 123 124 125 
126 127 128 129 130 131 132 133 134 
135 136 137 138 139 140 141 142 143 
144 145 146 147 148 149 150 151 152 
153 154 155 156 157 158 159 160 161 
162 163 164 165 166 167 168 169 170 
171 172 173 174 175 176 177 178 179 
180 181 182 183 184 185 186 187 188 
189 190 191 192 193 194 195 196 197 
198 199 200 201 202 203 204 205 206 
207 208 209 210 211 212 213 214 215 
216 217 218 219 220 221 222 223 224 
225 226 227 228 229 230 231 232 233 
234 235 236 237 238 239 240 241 242 
243 244 245 246 247 248 249 250 251 
252 253 254 255 256 257 258 259 260 
261 262 263 264 265 266 267 268 269 
270 271 272 273 274 275 276 277 278 
279 280 281 282 283 284 285 286 287 
288 289 290 291 292 293 294 295 296 
297 298 299 300 301 302 303 304 305 
306 307 308 309 310 311 312 313 314 
315 316 317 318 319 320 321 322 323 
324 325 326 327 328 329 330 331 332 
333 334 335 336 337 338 339 340 341 
342 343 344 345 346 347 348 349 350 
351 352 353 354 355 356 357 358 359 
360 361 362 363 364 365 366 367 368 
369 370 371 372 373 374 375 376 377 
378 379 380 381 382 383 384 385 386 
387 388 389 390 391 392 393 394 395 
396 397 398 399 400 401 402 403 404 
405 406 407 408 409 410 411 412 413 
414 415 416 417 418 419 420 421 422 
423 424 425 426 427 428 429 430 431 
432 433 434 435 436 437 438 439 440 
441 442 443 444 445 446 447 448 449 
450 451 452 453 454 455 456 457 458 
459 460 461 462 463 464 465 466 467 
468 469 470 471 472 473 474 475 476 
477 478 479 480 481 482 483 484 485 
486 487 488 489 490 491 492 493 494 
495 496 497 498 499 500 501 502 503 
504 505 506 507 508 509 510 511 512 
513 514 515 516 517 518 519 520 521 
522 523 524 525 526 527 528 529 530 
531 532 533 534 535 536 537 538 539 
540 541 542 543 544 545 546 547 548 
549 550 551 552 553 554 555 556 557 
558 559 560 561 562 563 564 565 566 
567 568 569 570 571 572 573 574 575 
576 577 578 579 580 581 582 583 584 
585 586 587 588 589 590 591 592 593 
594 595 596 597 598 599 600 601 602 
603 604 605 606 607 608 609 610 611 
612 613 614 615 616 617 618 619 620 
621 622 623 624 625 626 627 628 629 
630 631 632 633 634 635 636 637 638 
639 640 641 642 643 644 645 646 647 
648 
CONNECTIVITY vtktypeint64
0 1 2 3 4 5 6 7 8 
9 10 11 12 13 14 15 16 17 
18 19 20 21 22 23 24 25 26 
27 28 29 30 31 32 33 34 35 
36 37 38 39 40 41 42 43 44 
45 46 47 48 49 50 51 52 53 
54 55 56 57 58 59 60 61 62 
63 64 65 66 67 68 69 70 71 
72 73 74 75 76 77 78 79 80 
81 82 83 84 85 86 87 88 89 
90 91 92 93 94 95 96 97 98 
99 100 101 102 103 104 105 106 107 
108 109 110 111 112 113 114 115 116 
117 118 119 120 121 122 123 124 125 
126 127 128 129 130 131 132 133 134 
135 136 137 138 139 140 141 142 143 
144 145 146 147 148 149 150 151 152 
153 154 155 156 157 158 159 160 161 
162 163 164 165 166 167 168 169 170 
171 172 173 174 175 176 177 178 179 
180 181 182 183 184 185 186 187 188 
189 190 191 192 193 194 195 196 197 
198 199 200 201 202 203 204 205 206 
207 208 209 210 211 212 213 214 215 
216 217 218 219 220 221 222 223 224 
225 226 227 228 229 230 231 232 233 
234 235 236 237 238 239 240 241 242 
243 244 245 246 247 248 249 250 251 
252 253 254 255 256 257 258 259 260 
261 262 263 264 265 266 267 268 269 
270 271 272 273 274 275 276 277 278 
279 280 281 282 283 284 285 286 287 
288 289 290 291 292 293 294 295 296 
297 298 299 300 301 302 303 304 305 
306 307 308 309 310 311 312 313 314 
315 316 317 318 319 320 321 322 323 
324 325 326 327 328 329 330 331 332 
333 334 335 336 337 338 339 340 341 
342 343 344 345 346 347 348 349 350 
351 352 353 354 355 356 357 358 359 
360 361 362 363 364 365 366 367 368 
369 370 371 372 373 374 375 376 377 
378 379 380 381 382 383 384 385 386 
387 388 389 390 391 392 393 394 395 
396 397 398 399 400 401 402 403 404 
405 406 407 408 409 410 411 412 413 
414 415 416 417 418 419 420 421 422 
423 424 425 426 427 428 429 430 431 
432 433 434 435 436 437 438 439 440 
441 442 443 444 445 446 447 448 449 
450 451 452 453 454 455 456 457 458 
459 460 461 462 463 464 465 466 467 
468 469 470 471 472 473 474 475 476 
477 478 479 480 481 482 483 484 485 
486 487 488 489 490 491 492 493 494 
495 496 497 498 499 500 501 502 503 
504 505 506 507 508 509 510 511 512 
513 514 515 516 517 518 519 520 521 
522 523 524 525 526 527 528 529 530 
531 532 533 534 535 536 537 538 539 
540 541 542 543 544 545 546 547 548 
549 550 551 552 553 554 555 556 557 
558 559 560 561 562 563 564 565 566 
567 568 569 570 571 572 573 574 575 
576 577 578 579 580 581 582 583 584 
585 586 587 588 589 590 591 592 593 
594 595 596 597 598 599 600 601 602 
603 604 605 606 607 608 609 610 611 
612 613 614 615 616 617 618 619 620 
621 622 623 624 625 626 627 628 629 
630 631 632 633 634 635 636 637 638 
639 640 641 642 643 644 645 646 647 

POINT_DATA 648
FIELD FieldData 12
id 1 648 int
57 115 634 629 608 383 610 465 396 
625 611 600 164 635 626 185 72 568 
450 620 169 491 582 18 588 195 639 
584 574 190 603 106 293 370 418 214 
150 433 166 219 362 575 92 459 304 
154 590 630 175 458 407 297 633 310 
339 607 49 609 506 606 597 508 404 
645 604 581 578 317 470 289 444 292 
544 569 132 36 598 593 556 595 432 
622 637 583 85 246 386 372 614 463 
134 605 51 347 137 331 267 282 439 
355 618 612 585 599 628 617 231 428 
615 515 647 66 478 456 467 322 110 
521 163 327 579 552 555 586 534 200 
218 577 648 356 88 571 616 570 107 
291 541 238 572 176 537 638 554 227 
602 592 86 613 423 261 197 288 601 
149 535 594 623 26 270 318 412 366 
562 632 207 35 34 24 589 303 543 
64 573 381 58 215 127 157 563 336 
243 567 385 565 538 546 353 129 255 
60 202 560 308 40 561 189 504 596 
187 201 531 320 328 643 62 346 140 
591 87 226 367 352 548 128 121 237 
479 440 539 247 168 324 260 6 580 
557 125 542 341 83 186 334 165 420 
373 401 619 193 587 364 514 507 461 
158 268 253 148 29 550 457 256 294 
445 71 576 547 472 174 558 551 496 
73 553 530 566 483 42 368 299 11 
257 135 564 56 141 503 545 338 345 
273 469 392 117 109 100 408 280 509 
321 488 343 348 251 233 624 361 108 
272 188 31 203 549 99 82 159 436 
518 489 319 69 229 505 333 139 533 
502 527 409 532 160 167 274 143 374 
290 194 500 306 380 349 427 95 399 
263 360 204 90 454 126 426 528 510 
400 497 181 262 46 220 118 417 443 
33 337 529 12 162 199 410 540 114 
419 94 235 232 437 182 559 536 155 
435 91 406 302 351 55 438 275 98 
113 390 429 314 326 122 22 344 525 
103 183 415 526 513 449 298 517 644 
248 264 382 75 61 495 486 424 112 
21 446 384 358 184 646 287 330 254 
104 14 520 524 222 387 309 413 523 
76 375 84 414 52 411 487 388 477 
295 13 484 192 329 28 170 240 59 
211 146 8 311 53 511 522 32 278 
377 252 142 20 151 265 196 519 244 
631 216 512 474 378 119 236 63 178 
54 447 161 357 138 431 279 206 9 
498 30 451 81 313 198 397 475 242 
89 93 258 471 68 271 136 312 173 
210 359 102 67 492 402 350 156 239 
307 5 250 283 393 354 96 147 120 
430 493 116 79 223 234 37 416 323 
111 403 25 177 44 462 422 376 74 
276 490 441 460 43 259 340 16 23 
101 38 10 39 224 285 105 171 405 
371 205 217 365 80 389 208 77 212 
305 284 379 501 245 153 301 124 144 
145 453 296 480 442 221 464 17 41 
395 363 48 70 315 228 468 473 152 
485 281 130 325 394 191 97 131 266 
209 179 332 481 65 180 466 455 225 
421 452 286 482 45 249 123 277 434 
19 342 476 172 241 47 398 335 448 
516 133 499 300 425 213 369 494 391 
230 636 627 27 50 621 4 78 269 
3 316 15 7 640 641 2 642 1 

type 1 648 int
1 1 2 1 1 1 1 1 1 
1 1 1 1 1 1 1 1 1 
1 1 1 1 1 1 1 1 1 
1 1 1 1 1 1 1 1 1 
1 1 1 1 1 1 1 1 1 
1 1 1 1 1 1 1 1 1 
1 1 1 1 1 1 1 1 1 
1 1 1 1 1 1 1 1 1 
1 1 1 1 1 1 1 1 1 
1 1 1 1 1 1 1 1 1 
1 1 1 1 1 1 1 1 1 
1 1 1 1 1 1 1 1 1 
1 1 1 1 1 1 1 1 1 
1 1 1 1 1 1 1 1 1 
1 1 1 1 1 1 1 1 1 
1 1 1 1 1 1 1 1 1 
1 1 1 1 1 1 1 1 1 
1 1 1 1 1 1 1 1 1 
1 1 1 1 1 1 1 1 1 
1 1 1 1 1 1 1 1 1 
1 1 1 1 1 1 1 1 1 
1 1 1 1 1 1 1 1 1 
1 1 1 1 1 1 1 1 1 
1 1 1 1 1 1 1 1 1 
1 1 1 1 1 1 1 2 1 
1 1 1 1 1 1 1 1 1 
1 1 1 1 1 1 1 1 1 
1 1 1 1 1 1 1 1 1 
1 1 1 1 1 1 1 1 1 
1 1 1 1 1 1 1 1 2 
1 1 1 1 1 1 1 1 1 
1 1 1 1 1 1 1 1 1 
1 1 1 1 1 1 1 1 1 
1 1 1 1 1 1 1 1 1 
1 1 1 1 1 1 1 1 1 
1 1 1 1 1 1 1 1 1 
1 1 1 1 1 1 1 1 1 
1 1 1 1 1 1 1 1 1 
1 1 1 1 1 1 1 1 1 
1 1 1 2 1 1 1 1 1 
1 1 1 1 1 1 1 1 1 
1 1 1 1 1 1 1 1 1 
1 1 1 1 1 1 1 1 1 
1 1 1 1 1 1 1 1 1 
1 1 1 1 1 1 1 1 1 
1 1 1 1 1 1 1 1 1 
1 2 1 1 1 1 1 1 1 
1 1 1 1 1 1 1 1 1 
1 2 1 1 1 1 1 1 1 
1 1 2 1 1 1 1 1 1 
1 1 1 1 1 1 1 1 1 
1 1 2 1 1 1 1 1 1 
1 1 1 1 1 1 1 1 2 
1 1 1 1 1 1 1 1 1 
1 1 1 1 1 1 1 1 1 
1 1 1 1 1 1 1 1 1 
1 2 1 1 1 1 1 1 1 
1 1 1 1 1 1 1 1 1 
1 1 1 1 1 1 1 1 1 
1 1 1 1 1 1 1 2 1 
1 1 2 1 1 1 1 1 1 
1 1 1 1 1 1 1 1 1 
1 1 1 1 1 1 1 1 1 
1 1 1 1 1 1 1 1 1 
1 1 1 1 1 1 1 1 1 
1 1 1 1 1 1 1 1 1 
1 1 1 1 1 1 1 1 1 
1 1 1 1 1 1 1 1 1 
1 1 1 1 1 1 1 1 1 
2 1 1 1 1 1 1 1 1 
1 1 1 1 1 1 2 1 1 
2 1 2 2 1 1 3 1 4 

i 3 648 int
0 0 0 0 0 0 0 0 0 
0 0 0 0 0 0 0 0 0 
0 0 0 0 0 0 0 0 0 
0 0 0 0 0 0 0 0 0 
0 0 0 0 0 0 0 0 0 
0 0 0 0 0 0 0 0 0 
0 0 0 0 0 0 0 0 0 
0 0 0 0 0 0 0 0 0 
0 0 0 0 0 0 0 0 0 
0 0 0 0 0 0 0 0 0 
0 0 0 0 0 0 0 0 0 
0 0 0 0 0 0 0 0 0 
0 0 0 0 0 0 0 0 0 
0 0 0 0 0 0 0 0 0 
0 0 0 0 0 0 0 0 0 
0 0 0 0 0 0 0 0 0 
0 0 0 0 0 0 0 0 0 
0 0 0 0 0 0 0 0 0 
0 0 0 0 0 0 0 0 0 
0 0 0 0 0 0 0 0 0 
0 0 0 0 0 0 0 0 0 
0 0 0 0 0 0 0 0 0 
0 0 0 0 0 0 0 0 0 
0 0 0 0 0 0 0 0 0 
0 0 0 0 0 0 0 0 0 
0 0 0 0 0 0 0 0 0 
0 0 0 0 0 0 0 0 0 
0 0 0 0 0 0 0 0 0 
0 0 0 0 0 0 0 0 0 
0 0 0 0 0 0 0 0 0 
0 0 0 0 0 0 0 0 0 
0 0 0 0 0 0 0 0 0 
0 0 0 0 0 0 0 0 0 
0 0 0 0 0 0 0 0 0 
0 0 0 0 0 0 0 0 0 
0 0 0 0 0 0 0 0 0 
0 0 0 0 0 0 0 0 0 
0 0 0 0 0 0 0 0 0 
0 0 0 0 0 0 0 0 0 
0 0 0 0 0 0 0 0 0 
0 0 0 0 0 0 0 0 0 
0 0 0 0 0 0 0 0 0 
0 0 0 0 0 0 0 0 0 
0 0 0 0 0 0 0 0 0 
0 0 0 0 0 0 0 0 0 
0 0 0 0 0 0 0 0 0 
0 0 0 0 0 0 0 0 0 
0 0 0 0 0 0 0 0 0 
0 0 0 0 0 0 0 0 0 
0 0 0 0 0 0 0 0 0 
0 0 0 0 0 0 0 0 0 
0 0 0 0 0 0 0 0 0 
0 0 0 0 0 0 0 0 0 
0 0 0 0 0 0 0 0 0 
0 0 0 0 0 0 0 0 0 
0 0 0 0 0 0 0 0 0 
0 0 0 0 0 0 0 0 0 
0 0 0 0 0 0 0 0 0 
0 0 0 0 0 0 0 0 0 
0 0 0 0 0 0 0 0 0 
0 0 0 0 0 0 0 0 0 
0 0 0 0 0 0 0 0 0 
0 0 0 0 0 0 0 0 0 
0 0 0 0 0 0 0 0 0 
0 0 0 0 0 0 0 0 0 
0 0 0 0 0 0 0 0 0 
0 0 0 0 0 0 0 0 0 
0 0 0 0 0 0 0 0 0 
0 0 0 0 0 0 0 0 0 
0 0 0 0 0 0 0 0 0 
0 0 0 0 0 0 0 0 0 
0 0 0 0 0 0 0 0 0 
0 0 0 0 0 0 0 0 0 
0 0 0 0 0 0 0 0 0 
0 0 0 0 0 0 0 0 0 
0 0 0 0 0 0 0 0 0 
0 0 0 0 0 0 0 0 0 
0 0 0 0 0 0 0 0 0 
0 0 0 0 0 0 0 0 0 
0 0 0 0 0 0 0 0 0 
0 0 0 0 0 0 0 0 0 
0 0 0 0 0 0 0 0 0 
0 0 0 0 0 0 0 0 0 
0 0 0 0 0 0 0 0 0 
0 0 0 0 0 0 0 0 0 
0 0 0 0 0 0 0 0 0 
0 0 0 0 0 0 0 0 0 
0 0 0 0 0 0 0 0 0 
0 0 0 0 0 0 0 0 0 
0 0 0 0 0 0 0 0 0 
0 0 0 0 0 0 0 0 0 
0 0 0 0 0 0 0 0 0 
0 0 0 0 0 0 0 0 0 
0 0 0 0 0 0 0 0 0 
0 0 0 0 0 0 0 0 0 
0 0 0 0 0 0 0 0 0 
0 0 0 0 0 0 0 0 0 
0 0 0 0 0 0 0 0 0 
0 0 0 0 0 0 0 0 0 
0 0 0 0 0 0 0 0 0 
0 0 0 0 0 0 0 0 0 
0 0 0 0 0 0 0 0 0 
0 0 0 0 0 0 0 0 0 
0 0 0 0 0 0 0 0 0 
0 0 0 0 0 0 0 0 0 
0 0 0 0 0 0 0 0 0 
0 0 0 0 0 0 0 0 0 
0 0 0 0 0 0 0 0 0 
0 0 0 0 0 0 0 0 0 
0 0 0 0 0 0 0 0 0 
0 0 0 0 0 0 0 0 0 
0 0 0 0 0 0 0 0 0 
0 0 0 0 0 0 0 0 0 
0 0 0 0 0 0 0 0 0 
0 0 0 0 0 0 0 0 0 
0 0 0 0 0 0 0 0 0 
0 0 0 0 0 0 0 0 0 
0 0 0 0 0 0 0 0 0 
0 0 0 0 0 0 0 0 0 
0 0 0 0 0 0 0 0 0 
0 0 0 0 0 0 0 0 0 
0 0 0 0 0 0 0 0 0 
0 0 0 0 0 0 0 0 0 
0 0 0 0 0 0 0 0 0 
0 0 0 0 0 0 0 0 0 
0 0 0 0 0 0 0 0 0 
0 0 0 0 0 0 0 0 0 
0 0 0 0 0 0 0 0 0 
0 0 0 0 0 0 0 0 0 
0 0 0 0 0 0 0 0 0 
0 0 0 0 0 0 0 0 0 
0 0 0 0 0 0 0 0 0 
0 0 0 0 0 0 0 0 0 
0 0 0 0 0 0 0 0 0 
0 0 0 0 0 0 0 0 0 
0 0 0 0 0 0 0 0 0 
0 0 0 0 0 0 0 0 0 
0 0 0 0 0 0 0 0 0 
0 0 0 0 0 0 0 0 0 
0 0 0 0 0 0 0 0 0 
0 0 0 0 0 0 0 0 0 
0 0 0 0 0 0 0 0 0 
0 0 0 0 0 0 0 0 0 
0 0 0 0 0 0 0 0 0 
0 0 0 0 0 0 0 0 0 
0 0 0 0 0 0 0 0 0 
0 0 0 0 0 0 0 0 0 
0 0 0 0 0 0 0 0 0 
0 0 0 0 0 0 0 0 0 
0 0 0 0 0 0 0 0 0 
0 0 0 0 0 0 0 0 0 
0 0 0 0 0 0 0 0 0 
0 0 0 0 0 0 0 0 0 
0 0 0 0 0 0 0 0 0 
0 0 0 0 0 0 0 0 0 
0 0 0 0 0 0 0 0 0 
0 0 0 0 0 0 0 0 0 
0 0 0 0 0 0 0 0 0 
0 0 0 0 0 0 0 0 0 
0 0 0 0 0 0 0 0 0 
0 0 0 0 0 0 0 0 0 
0 0 0 0 0 0 0 0 0 
0 0 0 0 0 0 0 0 0 
0 0 0 0 0 0 0 0 0 
0 0 0 0 0 0 0 0 0 
0 0 0 0 0 0 0 0 0 
0 0 0 0 0 0 0 0 0 
0 0 0 0 0 0 0 0 0 
0 0 0 0 0 0 0 0 0 
0 0 0 0 0 0 0 0 0 
0 0 0 0 0 0 0 0 0 
0 0 0 0 0 0 0 0 0 
0 0 0 0 0 0 0 0 0 
0 0 0 0 0 0 0 0 0 
0 0 0 0 0 0 0 0 0 
0 0 0 0 0 0 0 0 0 
0 0 0 0 0 0 0 0 0 
0 0 0 0 0 0 0 0 0 
0 0 0 0 0 0 0 0 0 
0 0 0 0 0 0 0 0 0 
0 0 0 0 0 0 0 0 0 
0 0 0 0 0 0 0 0 0 
0 0 0 0 0 0 0 0 0 
0 0 0 0 0 0 0 0 0 
0 0 0 0 0 0 0 0 0 
0 0 0 0 0 0 0 0 0 
0 0 0 0 0 0 0 0 0 
0 0 0 0 0 0 0 0 0 
0 0 0 0 0 0 0 0 0 
0 0 0 0 0 0 0 0 0 
0 0 0 0 0 0 0 0 0 
0 0 0 0 0 0 0 0 0 
0 0 0 0 0 0 0 0 0 
0 0 0 0 0 0 0 0 0 
0 0 0 0 0 0 0 0 0 
0 0 0 0 0 0 0 0 0 
0 0 0 0 0 0 0 0 0 
0 0 0 0 0 0 0 0 0 
0 0 0 0 0 0 0 0 0 
0 0 0 0 0 0 0 0 0 
0 0 0 0 0 0 0 0 0 
0 0 0 0 0 0 0 0 0 
0 0 0 0 0 0 0 0 0 
0 0 0 0 0 0 0 0 0 
0 0 0 0 0 0 0 0 0 
0 0 0 0 0 0 0 0 0 
0 0 0 0 0 0 0 0 0 
0 0 0 0 0 0 0 0 0 
0 0 0 0 0 0 0 0 0 
0 0 0 0 0 0 0 0 0 
0 0 0 0 0 0 0 0 0 
0 0 0 0 0 0 0 0 0 
0 0 0 0 0 0 0 0 0 
0 0 0 0 0 0 0 0 0 
0 0 0 0 0 0 0 0 0 
0 0 0 0 0 0 0 0 0 

v 3 648 double
0 0 0.059557312389 0 0 -0.16250907038 0 0 0.25333423907 
0 0 0.22006548616 0 0 -0.63312418749 0 0 -0.16483908765 
0 0 0.24304376206 0 0 -0.16057362751 0 0 -0.16303673592 
0 0 0.24450854909 0 0 0.22034416271 0 0 -0.63962418749 
0 0 -0.15662871988 0 0 0.20993476474 0 0 0.17533415046 
0 0 -0.15112346426 0 0 -0.15069774539 0 0 0.23872759914 
0 0 -0.14840105475 0 0 0.2151958262 0 0 -0.15493616986 
0 0 -0.15116286718 0 0 -0.66237418749 0 0 -0.15287467086 
0 0 -0.65912418749 0 0 -0.15681061955 0 0 0.2101421594 
0 0 -0.66237418749 0 0 0.19006979815 0 0 -0.14451588927 
0 0 0.2057941842 0 0 -0.1401582918 0 0 -0.14043797078 
0 0 -0.14567017269 0 0 -0.14264944263 0 0 -0.14292909195 
0 0 -0.14589480571 0 0 -0.14066239164 0 0 -0.13311523565 
0 0 -0.14571374844 0 0 -0.14782167636 0 0 0.21840902464 
0 0 -0.1346629099 0 0 -0.13273589665 0 0 -0.13631831144 
0 0 -0.12743392709 0 0 0.21232776322 0 0 -0.61362418749 
0 0 -0.12582900938 0 0 -0.13068413114 0 0 -0.12907492772 
0 0 -0.12006782635 0 0 0.14988856551 0 0 -0.12512322935 
0 0 -0.13251304245 0 0 0.19873288653 0 0 -0.12911497859 
0 0 -0.62987418749 0 0 -0.10791345729 0 0 -0.63637418749 
0 0 0.14420547568 0 0 -0.1036766083 0 0 -0.10999089817 
0 0 0.099458953287 0 0 0.11208746035 0 0 0.1945357554 
0 0 0.18754475184 0 0 -0.11213992948 0 0 -0.11984730115 
0 0 -0.11982605129 0 0 -0.11768237589 0 0 -0.11122346291 
0 0 0.21318133856 0 0 0.18832073728 0 0 -0.11325028642 
0 0 -0.11380442325 0 0 0.14597493137 0 0 0.12038794885 
0 0 0.1627399276 0 0 0.19247642312 0 0 -0.10847773825 
0 0 0.17490362731 0 0 0.17373792606 0 0 0.12854809606 
0 0 -0.10939087575 0 0 -0.12486599026 0 0 -0.12235818213 
0 0 -0.13797463862 0 0 0.13716255015 0 0 -0.097027708302 
0 0 -0.12934250178 0 0 0.080017324033 0 0 -0.095766507465 
0 0 -0.1032417744 0 0 -0.098227326129 0 0 -0.11424700625 
0 0 -0.095494181054 0 0 -0.11307146881 0 0 -0.094748137202 
0 0 -0.10100568169 0 0 0.17313934535 0 0 0.056403044509 
0 0 0.16916866317 0 0 0.16263754389 0 0 0.15880680619 
0 0 0.17523588532 0 0 -0.13000614554 0 0 -0.13167179957 
0 0 0.078260721953 0 0 -0.068781124883 0 0 -0.60062418749 
0 0 -0.11137732366 0 0 -0.10088565881 0 0 -0.10400996212 
0 0 -0.10070362631 0 0 -0.11762277996 0 0 -0.096351251662 
0 0 -0.068704067839 0 0 -0.096396233105 0 0 -0.10144776032 
0 0 0.11726705661 0 0 0.14086899442 0 0 0.19001672213 
0 0 0.1737978567 0 0 0.10855688267 0 0 -0.13001039917 
0 0 -0.074482098916 0 0 0.061575731999 0 0 -0.60062418749 
0 0 -0.12029512028 0 0 -0.11874806176 0 0 0.040123416532 
0 0 0.12948998909 0 0 0.076635149222 0 0 -0.12792135678 
0 0 -0.12498360654 0 0 0.18197687259 0 0 -0.084897677486 
0 0 0.070563900547 0 0 -0.12165662324 0 0 0.17970928964 
0 0 0.12039416848 0 0 0.16571176501 0 0 -0.083020025948 
0 0 -0.63637418749 0 0 0.068179633242 0 0 -0.12112747637 
0 0 0.14886525154 0 0 -0.12415673085 0 0 -0.088456213315 
0 0 -0.12855092142 0 0 -0.08343828755 0 0 0.036339562113 
0 0 -0.12270119397 0 0 0.12942066524 0 0 0.15317764491 
0 0 0.14857676567 0 0 -0.12660546146 0 0 -0.1282431149 
0 0 -0.082584496967 0 0 -0.095332519339 0 0 -0.10551862931 
0 0 0.026434972821 0 0 -0.61037418749 0 0 -0.089941112578 
0 0 -0.068578149944 0 0 -0.066950660639 0 0 -0.075622802067 
0 0 0.049530700564 0 0 -0.07738096714 0 0 0.010403050192 
0 0 -0.06441618286 0 0 0.13233873141 0 0 -0.11554225152 
0 0 -0.10408838286 0 0 -0.11462350927 0 0 -0.11928747862 
0 0 -0.057911730177 0 0 0.078829070161 0 0 -0.11460005798 
0 0 -0.064278284499 0 0 0.022015167921 0 0 -0.11508178279 
0 0 0.091103672562 0 0 0.0030751004678 0 0 0.036239951487 
0 0 -0.11176210715 0 0 -0.062462512154 0 0 -0.073496458317 
0 0 -0.084941281144 0 0 -0.064350725187 0 0 0.14651794258 
0 0 -0.060206864079 0 0 -0.085518730487 0 0 0.13639186848 
0 0 -0.10892135742 0 0 -0.050482405264 0 0 0.13110334232 
0 0 -0.10806135291 0 0 -0.063418119141 0 0 0.17407468463 
0 0 -0.063657986825 0 0 -0.072245158756 0 0 -0.60062418749 
0 0 -0.062764041986 0 0 -0.041042226942 0 0 -0.049413105893 
0 0 0.057839132461 0 0 -0.098878974862 0 0 -0.048169282121 
0 0 -0.093878837905 0 0 -0.039583727136 0 0 0.14451660075 
0 0 -0.048249644665 0 0 -0.063921864997 0 0 -0.10275857505 
0 0 -0.05874037539 0 0 -0.091138485502 0 0 0.1280333582 
0 0 -0.105896644 0 0 -0.065056644113 0 0 -0.073925021679 
0 0 -0.03628926892 0 0 -0.11594414438 0 0 0.076440175257 
0 0 0.14237910281 0 0 -0.10471879099 0 0 -0.0060922064659 
0 0 -0.049783957257 0 0 -0.096058900646 0 0 -0.092020740198 
0 0 -0.03682505477 0 0 -0.1038604314 0 0 -0.029982895952 
0 0 -0.10370188129 0 0 -0.056652968323 0 0 -0.61687418749 
0 0 -0.10062698234 0 0 0.069182517903 0 0 -0.10115145292 
0 0 0.071181067426 0 0 0.00010426580401 0 0 -0.035083978354 
0 0 -0.097654143407 0 0 -0.038092913785 0 0 -0.099061621757 
0 0 -0.054080344869 0 0 -0.098767469672 0 0 0.12948564415 
0 0 -0.089843756597 0 0 -0.084828093409 0 0 -0.029060907761 
0 0 -0.009488256021 0 0 -0.021661852875 0 0 0.084734111818 
0 0 0.093960789069 0 0 -0.04265320104 0 0 -0.046187726126 
0 0 0.13769058705 0 0 0.085629438053 0 0 -0.076572008413 
0 0 -0.081955207651 0 0 0.054482837327 0 0 0.13066414302 
0 0 0.087619029516 0 0 -0.089519157566 0 0 -0.019418526804 
0 0 -0.026673198035 0 0 -0.037329316258 0 0 -0.098794243136 
0 0 -0.04029717749 0 0 -0.011331446769 0 0 0.08331174555 
0 0 -0.033104608418 0 0 -0.05037978303 0 0 0.015018550493 
0 0 0.098374391257 0 0 0.00061277147333 0 0 -0.025781848512 
0 0 -0.023026929762 0 0 -0.037923220108 0 0 -0.033440130292 
0 0 -0.023497358591 0 0 -0.020847251827 0 0 -0.078882297498 
0 0 -0.076695058348 0 0 -0.089750893962 0 0 0.015978891935 
0 0 -0.071196758431 0 0 -0.085829434962 0 0 -0.042800576242 
0 0 -0.025890992594 0 0 -0.042195362436 0 0 -0.082127340556 
0 0 -0.61362418749 0 0 -0.015482359615 0 0 -0.029704970249 
0 0 -0.037855995575 0 0 -0.053946634868 0 0 -0.0042030131545 
0 0 0.041169638326 0 0 0.070829153638 0 0 0.015135290954 
0 0 0.00332845373 0 0 0.023167789399 0 0 0.011145701439 
0 0 0.071092682983 0 0 -0.0040640462491 0 0 -0.054662566096 
0 0 0.025542110573 0 0 -0.05653397984 0 0 -0.041503625788 
0 0 -0.016307417449 0 0 0.0084856303308 0 0 0.084666155459 
0 0 0.028234573386 0 0 0.095002923551 0 0 -0.05303446601 
0 0 0.097981577644 0 0 0.015840728209 0 0 -0.066843770859 
0 0 0.0094091135784 0 0 0.017014969966 0 0 0.0089836518772 
0 0 -0.060229210032 0 0 0.0099293212294 0 0 -0.060647003016 
0 0 0.043403639142 0 0 -0.0016464419417 0 0 -0.063019501934 
0 0 -0.068278009497 0 0 0.040346151307 0 0 -0.05967502527 
0 0 -0.061073900821 0 0 -0.013525530546 0 0 -0.012036290826 
0 0 -0.051600775799 0 0 -0.068147535111 0 0 0.0025391131222 
0 0 -0.0096452082032 0 0 0.066693558325 0 0 0.12215594257 
0 0 0.04638811647 0 0 0.023599916098 0 0 0.011318046318 
0 0 0.030613464799 0 0 0.016041917199 0 0 0.01684506627 
0 0 0.026405194811 0 0 -0.068725205032 0 0 0.008616603102 
0 0 0.018462256075 0 0 -0.060544396467 0 0 -0.0022712523936 
0 0 -0.096066486836 0 0 -0.069532034399 0 0 -0.054547811447 
0 0 -0.068512125312 0 0 0.10328327098 0 0 0.005583066881 
0 0 0.040372198769 0 0 -0.020781696006 0 0 0.04488637709 
0 0 -0.020653016146 0 0 -0.040464154073 0 0 -0.0017263851608 
0 0 0.032434357459 0 0 0.02687059261 0 0 -0.06670693911 
0 0 -0.070301470873 0 0 -0.06075332335 0 0 -0.067869009881 
0 0 0.0054406081149 0 0 -0.051875743066 0 0 0.003795982088 
0 0 0.0076950750601 0 0 -0.03486784492 0 0 -0.04820532222 
0 0 -0.031914024838 0 0 -0.036462357771 0 0 -0.035018249186 
0 0 -0.050620975438 0 0 -0.049669603131 0 0 -0.031578180773 
0 0 -0.060430837262 0 0 0.034867301216 0 0 0.10367334687 
0 0 0.028910635512 0 0 -0.031488991768 0 0 -0.048169720066 
0 0 0.044250666438 0 0 0.099485472238 0 0 0.011641456636 
0 0 -0.042500537657 0 0 0.096631470288 0 0 -0.60062418749 
0 0 -0.04290051405 0 0 0.051608110278 0 0 0.047651551068 
0 0 -0.035200634458 0 0 -0.034671893364 0 0 -0.047560142894 
0 0 -0.03927810733 0 0 -0.051771069893 0 0 -0.051025235701 
0 0 -0.050124106224 0 0 -0.032447967861 0 0 -0.043259870781 
0 0 0.036376272487 0 0 0.054233496327 0 0 -0.60062418749 
0 0 -0.028713563287 0 0 -0.041826914824 0 0 0.0069688795336 
0 0 -0.045875897951 0 0 -0.082068619304 0 0 0.029720316595 
0 0 0.079317765594 0 0 -0.052073547394 0 0 0.034554431138 
0 0 0.026072632015 0 0 0.016720478432 0 0 0.07227426587 
0 0 -0.040283529956 0 0 -0.02618984143 0 0 -0.022185656959 
0 0 -0.0056016671776 0 0 0.0032100386081 0 0 -0.048699149975 
0 0 0.0063689054207 0 0 0.051774565953 0 0 -0.017677262555 
0 0 -0.014929039633 0 0 -0.055459786611 0 0 -0.026094069236 
0 0 0.053797354017 0 0 0.0022833546137 0 0 -0.018706998679 
0 0 -0.00093791853494 0 0 -0.03642276441 0 0 -0.0081445865076 
0 0 -0.023220818096 0 0 -0.0059167506256 0 0 -0.06637934997 
0 0 -0.020064074109 0 0 0.00064878782051 0 0 0.041563250846 
0 0 0.060937775645 0 0 -0.034175535899 0 0 -0.012136489758 
0 0 -0.02348512013 0 0 0.00071150988775 0 0 0.0041349677708 
0 0 -0.0062179318224 0 0 -0.0094699486864 0 0 0.0064552311424 
0 0 -0.021250834741 0 0 0.046281956281 0 0 -0.00098570025023 
0 0 -0.61037418749 0 0 -0.017797340866 0 0 0.17067913992 
0 0 -0.016114039245 0 0 -0.028009183123 0 0 -0.0157846747 
0 0 -0.030315169254 0 0 -0.0086691074492 0 0 -0.021430072425 
0 0 -0.039013044197 0 0 -0.030509697116 0 0 -0.033460142622 
0 0 -0.038215804232 0 0 0.017103633907 0 0 -0.002032145425 
0 0 0.0031519675502 0 0 -0.0013688815769 0 0 -0.069547768368 
0 0 -0.024651233811 0 0 -0.038976677823 0 0 -0.024745990923 
0 0 -0.014821514949 0 0 -0.01655074664 0 0 -0.027617454133 
0 0 -0.0056643471183 0 0 -0.019706732093 0 0 0.063062359652 
0 0 0.011276133342 0 0 0.015532903947 0 0 0.046446251334 
0 0 0.034132710959 0 0 0.018421722165 0 0 -0.016898336741 
0 0 0.046914952664 0 0 0.057544656469 0 0 0.0738240027 
0 0 0.043672014818 0 0 0.03998865276 0 0 -0.0001673048222 
0 0 0.076364873702 0 0 0.072060990883 0 0 0.063016334608 
0 0 0.024015150294 0 0 0.017607834049 0 0 0.012147246885 
0 0 0.052717349529 0 0 -0.040767623863 0 0 0.0061209718713 
0 0 0.069774071913 0 0 0.0045826434799 0 0 0.033800319371 
0 0 -0.026766428516 0 0 0.023699849481 0 0 0.065176185353 
0 0 0.0295099779 0 0 0.0091962189077 0 0 0.019527038579 
0 0 0.0069676061251 0 0 -0.012836516283 0 0 0.054592821822 
0 0 0.077593089768 0 0 0.0067072651305 0 0 0.0087496632041 
0 0 -0.0046208993478 0 0 0.016235479199 0 0 0.016622971584 
0 0 0.048573869986 0 0 0.059556378913 0 0 0.0087860145768 
0 0 0.062409317951 0 0 0.034613498822 0 0 0.0048642914155 
0 0 0.032789908569 0 0 0.058795910948 0 0 0.05180851482 
0 0 0.021648379886 0 0 0.021837501302 0 0 0.065727260647 
0 0 0.043782053619 0 0 -0.035852460248 0 0 0.04894466802 
0 0 0.067574854982 0 0 0.0088162081924 0 0 -0.052102363113 
0 0 0.06971182451 0 0 0.07260765393 0 0 0.028207989658 
0 0 0.016513034858 0 0 0.0092204940143 0 0 0.0222425969 
0 0 0.013033689747 0 0 0.0049839731039 0 0 0.013583087867 
0 0 0.064329879511 0 0 0.050298593272 0 0 0.065623435473 
0 0 0.00023609087226 0 0 0.04145425621 0 0 0.032604453068 
0 0 0.02109878792 0 0 0.056308700734 0 0 0.021645902 
0 0 0.049695885163 0 0 0.056594189102 0 0 0.037819281559 
0 0 0.020796647332 0 0 0.034628510313 0 0 0.0090160743946 
0 0 0.045144488951 0 0 0.041075159567 0 0 0.03618362228 
0 0 0.042547585433 0 0 0.039501169186 0 0 0.031561722759 
0 0 0.074752713012 0 0 0.0030729169616 0 0 0.048426092934 
0 0 -0.001358388319 0 0 0.0068968438446 0 0 0.054655933588 
0 0 0.025016376806 0 0 0.037196446961 0 0 0.057347942694 
0 0 0.065718097796 0 0 0.059460395982 0 0 0.068275230145 
0 0 0.054729423577 0 0 0.031229866611 0 0 0.029980541666 
0 0 0.0097938016688 0 0 0.0011462849365 0 0 0.049551970095 
0 0 0.066745669947 0 0 0.064493104285 0 0 0.020196142767 
0 0 0.053329034031 0 0 0.0349154619 0 0 0.044899060163 
0 0 0.015169241068 0 0 0.0030962659104 0 0 0.042478207205 
0 0 0.038902975991 0 0 0.0209044822 0 0 0.012555019 
0 0 0.025392486388 0 0 0.057951280409 0 0 0.018201181367 
0 0 0.037326145812 0 0 -0.0015042381766 0 0 0.076365553033 
0 0 0.016022772055 0 0 0.078289472105 0 0 0.051553564471 
0 0 0.078563114278 0 0 0.0099476314878 0 0 0.031125292957 
0 0 0.07441108082 0 0 0.088128965079 0 0 0.061056197274 
0 0 0.077700477741 0 0 0.033067757493 0 0 0.037751486542 
0 0 0.10056390482 0 0 0.086906345079 0 0 0.061120661141 
0 0 0.059541185878 0 0 0.02729063999 0 0 0.031849228357 
0 0 0.092299545498 0 0 0.072696417668 0 0 0.07381010339 
0 0 0.10425466104 0 0 -0.60712418749 0 0 -0.61362418749 
0 0 0.10086585941 0 0 0.062826173882 0 0 -0.61687418749 
0 0 -0.01976741923 0 0 0.020663615742 0 0 0.09236767595 
0 0 0.070466592173 0 0 0.068673403143 0 0 0.0022992644256 
0 0 0.0716591462 0 0 -0.60387418749 0 0 -0.60387418749 
0 0 0.001569465046 0 0 -0.60062418749 0 0 0.12162995422 

f 3 648 double
0 0 -1.7425367252e-10 0 0 -1.7425367252e-10 0 0 -8.9019973083e-09 
0 0 -1.7425367252e-10 0 0 -1.7425367252e-10 0 0 -1.7425367252e-10 
0 0 -1.7425367252e-10 0 0 -1.7425367252e-10 0 0 -1.7425367252e-10 
0 0 -1.7425367252e-10 0 0 -1.7425367252e-10 0 0 -1.7425367252e-10 
0 0 -1.7425367252e-10 0 0 -1.7425367252e-10 0 0 -1.7425367252e-10 
0 0 -1.7425367252e-10 0 0 -1.7425367252e-10 0 0 -1.7425367252e-10 
0 0 -1.7425367252e-10 0 0 -1.7425367252e-10 0 0 -1.7425367252e-10 
0 0 -1.7425367252e-10 0 0 -1.7425367252e-10 0 0 -1.7425367252e-10 
0 0 -1.7425367252e-10 0 0 -1.7425367252e-10 0 0 -1.7425367252e-10 
0 0 -1.7425367252e-10 0 0 -1.7425367252e-10 0 0 -1.7425367252e-10 
0 0 -1.7425367252e-10 0 0 -1.7425367252e-10 0 0 -1.7425367252e-10 
0 0 -1.7425367252e-10 0 0 -1.7425367252e-10 0 0 -1.7425367252e-10 
0 0 -1.7425367252e-10 0 0 -1.7425367252e-10 0 0 -1.7425367252e-10 
0 0 -1.7425367252e-10 0 0 -1.7425367252e-10 0 0 -1.7425367252e-10 
0 0 -1.7425367252e-10 0 0 -1.7425367252e-10 0 0 -1.7425367252e-10 
0 0 -1.7425367252e-10 0 0 -1.7425367252e-10 0 0 -1.7425367252e-10 
0 0 -1.7425367252e-10 0 0 -1.7425367252e-10 0 0 -1.7425367252e-10 
0 0 -1.7425367252e-10 0 0 -1.7425367252e-10 0 0 -1.7425367252e-10 
0 0 -1.7425367252e-10 0 0 -1.7425367252e-10 0 0 -1.7425367252e-10 
0 0 -1.7425367252e-10 0 0 -1.7425367252e-10 0 0 -1.7425367252e-10 
0 0 -1.7425367252e-10 0 0 -1.7425367252e-10 0 0 -1.7425367252e-10 
0 0 -1.7425367252e-10 0 0 -1.7425367252e-10 0 0 -1.7425367252e-10 
0 0 -1.7425367252e-10 0 0 -1.7425367252e-10 0 0 -1.7425367252e-10 
0 0 -1.7425367252e-10 0 0 -1.7425367252e-10 0 0 -1.7425367252e-10 
0 0 -1.7425367252e-10 0 0 -1.7425367252e-10 0 0 -1.7425367252e-10 
0 0 -1.7425367252e-10 0 0 -1.7425367252e-10 0 0 -1.7425367252e-10 
0 0 -1.7425367252e-10 0 0 -1.7425367252e-10 0 0 -1.7425367252e-10 
0 0 -1.7425367252e-10 0 0 -1.7425367252e-10 0 0 -1.7425367252e-10 
0 0 -1.7425367252e-10 0 0 -1.7425367252e-10 0 0 -1.7425367252e-10 
0 0 -1.7425367252e-10 0 0 -1.7425367252e-10 0 0 -1.7425367252e-10 
0 0 -1.7425367252e-10 0 0 -1.7425367252e-10 0 0 -1.7425367252e-10 
0 0 -1.7425367252e-10 0 0 -1.7425367252e-10 0 0 -1.7425367252e-10 
0 0 -1.7425367252e-10 0 0 -1.7425367252e-10 0 0 -1.7425367252e-10 
0 0 -1.7425367252e-10 0 0 -1.7425367252e-10 0 0 -1.7425367252e-10 
0 0 -1.7425367252e-10 0 0 -1.7425367252e-10 0 0 -1.7425367252e-10 
0 0 -1.7425367252e-10 0 0 -1.7425367252e-10 0 0 -1.7425367252e-10 
0 0 -1.7425367252e-10 0 0 -1.7425367252e-10 0 0 -1.7425367252e-10 
0 0 -1.7425367252e-10 0 0 -1.7425367252e-10 0 0 -1.7425367252e-10 
0 0 -1.7425367252e-10 0 0 -1.7425367252e-10 0 0 -1.7425367252e-10 
0 0 -1.7425367252e-10 0 0 -1.7425367252e-10 0 0 -1.7425367252e-10 
0 0 -1.7425367252e-10 0 0 -1.7425367252e-10 0 0 -1.7425367252e-10 
0 0 -1.7425367252e-10 0 0 -1.7425367252e-10 0 0 -1.7425367252e-10 
0 0 -1.7425367252e-10 0 0 -1.7425367252e-10 0 0 -1.7425367252e-10 
0 0 -1.7425367252e-10 0 0 -1.7425367252e-10 0 0 -1.7425367252e-10 
0 0 -1.7425367252e-10 0 0 -1.7425367252e-10 0 0 -1.7425367252e-10 
0 0 -1.7425367252e-10 0 0 -1.7425367252e-10 0 0 -1.7425367252e-10 
0 0 -1.7425367252e-10 0 0 -1.7425367252e-10 0 0 -1.7425367252e-10 
0 0 -1.7425367252e-10 0 0 -1.7425367252e-10 0 0 -1.7425367252e-10 
0 0 -1.7425367252e-10 0 0 -1.7425367252e-10 0 0 -1.7425367252e-10 
0 0 -1.7425367252e-10 0 0 -1.7425367252e-10 0 0 -1.7425367252e-10 
0 0 -1.7425367252e-10 0 0 -1.7425367252e-10 0 0 -1.7425367252e-10 
0 0 -1.7425367252e-10 0 0 -1.7425367252e-10 0 0 -1.7425367252e-10 
0 0 -1.7425367252e-10 0 0 -1.7425367252e-10 0 0 -1.7425367252e-10 
0 0 -1.7425367252e-10 0 0 -1.7425367252e-10 0 0 -1.7425367252e-10 
0 0 -1.7425367252e-10 0 0 -1.7425367252e-10 0 0 -1.7425367252e-10 
0 0 -1.7425367252e-10 0 0 -1.7425367252e-10 0 0 -1.7425367252e-10 
0 0 -1.7425367252e-10 0 0 -1.7425367252e-10 0 0 -1.7425367252e-10 
0 0 -1.7425367252e-10 0 0 -1.7425367252e-10 0 0 -1.7425367252e-10 
0 0 -1.7425367252e-10 0 0 -1.7425367252e-10 0 0 -1.7425367252e-10 
0 0 -1.7425367252e-10 0 0 -1.7425367252e-10 0 0 -1.7425367252e-10 
0 0 -1.7425367252e-10 0 0 -1.7425367252e-10 0 0 -1.7425367252e-10 
0 0 -1.7425367252e-10 0 0 -1.7425367252e-10 0 0 -1.7425367252e-10 
0 0 -1.7425367252e-10 0 0 -1.7425367252e-10 0 0 -1.7425367252e-10 
0 0 -1.7425367252e-10 0 0 -1.7425367252e-10 0 0 -1.7425367252e-10 
0 0 -1.7425367252e-10 0 0 -1.7425367252e-10 0 0 -1.7425367252e-10 
0 0 -1.7425367252e-10 0 0 -1.7425367252e-10 0 0 -1.7425367252e-10 
0 0 -1.7425367252e-10 0 0 -1.7425367252e-10 0 0 -1.7425367252e-10 
0 0 -1.7425367252e-10 0 0 -1.7425367252e-10 0 0 -1.7425367252e-10 
0 0 -1.7425367252e-10 0 0 -1.7425367252e-10 0 0 -1.7425367252e-10 
0 0 -1.7425367252e-10 0 0 -1.7425367252e-10 0 0 -1.7425367252e-10 
0 0 -1.7425367252e-10 0 0 -1.7425367252e-10 0 0 -1.7425367252e-10 
0 0 -1.7425367252e-10 0 0 -1.7425367252e-10 0 0 -1.7425367252e-10 
0 0 -1.7425367252e-10 0 0 -1.7425367252e-10 0 0 -1.7425367252e-10 
0 0 -1.7425367252e-10 0 0 -1.7425367252e-10 0 0 -1.7425367252e-10 
0 0 -1.7425367252e-10 0 0 -8.9019973083e-09 0 0 -1.7425367252e-10 
0 0 -1.7425367252e-10 0 0 -1.7425367252e-10 0 0 -1.7425367252e-10 
0 0 -1.7425367252e-10 0 0 -1.7425367252e-10 0 0 -1.7425367252e-10 
0 0 -1.7425367252e-10 0 0 -1.7425367252e-10 0 0 -1.7425367252e-10 
0 0 -1.7425367252e-10 0 0 -1.7425367252e-10 0 0 -1.7425367252e-10 
0 0 -1.7425367252e-10 0 0 -1.7425367252e-10 0 0 -1.7425367252e-10 
0 0 -1.7425367252e-10 0 0 -1.7425367252e-10 0 0 -1.7425367252e-10 
0 0 -1.7425367252e-10 0 0 -1.7425367252e-10 0 0 -1.7425367252e-10 
0 0 -1.7425367252e-10 0 0 -1.7425367252e-10 0 0 -1.7425367252e-10 
0 0 -1.7425367252e-10 0 0 -1.7425367252e-10 0 0 -1.7425367252e-10 
0 0 -1.7425367252e-10 0 0 -1.7425367252e-10 0 0 -1.7425367252e-10 
0 0 -1.7425367252e-10 0 0 -1.7425367252e-10 0 0 -1.7425367252e-10 
0 0 -1.7425367252e-10 0 0 -1.7425367252e-10 0 0 -1.7425367252e-10 
0 0 -1.7425367252e-10 0 0 -1.7425367252e-10 0 0 -1.7425367252e-10 
0 0 -1.7425367252e-10 0 0 -1.7425367252e-10 0 0 -1.7425367252e-10 
0 0 -1.7425367252e-10 0 0 -1.7425367252e-10 0 0 -8.9019973083e-09 
0 0 -1.7425367252e-10 0 0 -1.7425367252e-10 0 0 -1.7425367252e-10 
0 0 -1.7425367252e-10 0 0 -1.7425367252e-10 0 0 -1.7425367252e-10 
0 0 -1.7425367252e-10 0 0 -1.7425367252e-10 0 0 -1.7425367252e-10 
0 0 -1.7425367252e-10 0 0 -1.7425367252e-10 0 0 -1.7425367252e-10 
0 0 -1.7425367252e-10 0 0 -1.7425367252e-10 0 0 -1.7425367252e-10 
0 0 -1.7425367252e-10 0 0 -1.7425367252e-10 0 0 -1.7425367252e-10 
0 0 -1.7425367252e-10 0 0 -1.7425367252e-10 0 0 -1.7425367252e-10 
0 0 -1.7425367252e-10 0 0 -1.7425367252e-10 0 0 -1.7425367252e-10 
0 0 -1.7425367252e-10 0 0 -1.7425367252e-10 0 0 -1.7425367252e-10 
0 0 -1.7425367252e-10 0 0 -1.7425367252e-10 0 0 -1.7425367252e-10 
0 0 -1.7425367252e-10 0 0 -1.7425367252e-10 0 0 -1.7425367252e-10 
0 0 -1.7425367252e-10 0 0 -1.7425367252e-10 0 0 -1.7425367252e-10 
0 0 -1.7425367252e-10 0 0 -1.7425367252e-10 0 0 -1.7425367252e-10 
0 0 -1.7425367252e-10 0 0 -1.7425367252e-10 0 0 -1.7425367252e-10 
0 0 -1.7425367252e-10 0 0 -1.7425367252e-10 0 0 -1.7425367252e-10 
0 0 -1.7425367252e-10 0 0 -1.7425367252e-10 0 0 -1.7425367252e-10 
0 0 -1.7425367252e-10 0 0 -1.7425367252e-10 0 0 -1.7425367252e-10 
0 0 -1.7425367252e-10 0 0 -1.7425367252e-10 0 0 -1.7425367252e-10 
0 0 -1.7425367252e-10 0 0 -1.7425367252e-10 0 0 -1.7425367252e-10 
0 0 -1.7425367252e-10 0 0 -1.7425367252e-10 0 0 -1.7425367252e-10 
0 0 -1.7425367252e-10 0 0 -1.7425367252e-10 0 0 -1.7425367252e-10 
0 0 -1.7425367252e-10 0 0 -1.7425367252e-10 0 0 -1.7425367252e-10 
0 0 -1.7425367252e-10 0 0 -1.7425367252e-10 0 0 -1.7425367252e-10 
0 0 -1.7425367252e-10 0 0 -1.7425367252e-10 0 0 -1.7425367252e-10 
0 0 -1.7425367252e-10 0 0 -1.7425367252e-10 0 0 -1.7425367252e-10 
0 0 -1.7425367252e-10 0 0 -1.7425367252e-10 0 0 -1.7425367252e-10 
0 0 -1.7425367252e-10 0 0 -1.7425367252e-10 0 0 -1.7425367252e-10 
0 0 -1.7425367252e-10 0 0 -1.7425367252e-10 0 0 -1.7425367252e-10 
0 0 -8.9019973083e-09 0 0 -1.7425367252e-10 0 0 -1.7425367252e-10 
0 0 -1.7425367252e-10 0 0 -1.7425367252e-10 0 0 -1.7425367252e-10 
0 0 -1.7425367252e-10 0 0 -1.7425367252e-10 0 0 -1.7425367252e-10 
0 0 -1.7425367252e-10 0 0 -1.7425367252e-10 0 0 -1.7425367252e-10 
0 0 -1.7425367252e-10 0 0 -1.7425367252e-10 0 0 -1.7425367252e-10 
0 0 -1.7425367252e-10 0 0 -1.7425367252e-10 0 0 -1.7425367252e-10 
0 0 -1.7425367252e-10 0 0 -1.7425367252e-10 0 0 -1.7425367252e-10 
0 0 -1.7425367252e-10 0 0 -1.7425367252e-10 0 0 -1.7425367252e-10 
0 0 -1.7425367252e-10 0 0 -1.7425367252e-10 0 0 -1.7425367252e-10 
0 0 -1.7425367252e-10 0 0 -1.7425367252e-10 0 0 -1.7425367252e-10 
0 0 -1.7425367252e-10 0 0 -1.7425367252e-10 0 0 -1.7425367252e-10 
0 0 -1.7425367252e-10 0 0 -1.7425367252e-10 0 0 -1.7425367252e-10 
0 0 -1.7425367252e-10 0 0 -1.7425367252e-10 0 0 -1.7425367252e-10 
0 0 -1.7425367252e-10 0 0 -1.7425367252e-10 0 0 -1.7425367252e-10 
0 0 -1.7425367252e-10 0 0 -1.7425367252e-10 0 0 -1.7425367252e-10 
0 0 -1.7425367252e-10 0 0 -1.7425367252e-10 0 0 -1.7425367252e-10 
0 0 -1.7425367252e-10 0 0 -1.7425367252e-10 0 0 -1.7425367252e-10 
0 0 -1.7425367252e-10 0 0 -1.7425367252e-10 0 0 -1.7425367252e-10 
0 0 -1.7425367252e-10 0 0 -1.7425367252e-10 0 0 -1.7425367252e-10 
0 0 -1.7425367252e-10 0 0 -1.7425367252e-10 0 0 -1.7425367252e-10 
0 0 -1.7425367252e-10 0 0 -8.9019973083e-09 0 0 -1.7425367252e-10 
0 0 -1.7425367252e-10 0 0 -1.7425367252e-10 0 0 -1.7425367252e-10 
0 0 -1.7425367252e-10 0 0 -1.7425367252e-10 0 0 -1.7425367252e-10 
0 0 -1.7425367252e-10 0 0 -1.7425367252e-10 0 0 -1.7425367252e-10 
0 0 -1.7425367252e-10 0 0 -1.7425367252e-10 0 0 -1.7425367252e-10 
0 0 -1.7425367252e-10 0 0 -1.7425367252e-10 0 0 -1.7425367252e-10 
0 0 -1.7425367252e-10 0 0 -8.9019973083e-09 0 0 -1.7425367252e-10 
0 0 -1.7425367252e-10 0 0 -1.7425367252e-10 0 0 -1.7425367252e-10 
0 0 -1.7425367252e-10 0 0 -1.7425367252e-10 0 0 -1.7425367252e-10 
0 0 -1.7425367252e-10 0 0 -1.7425367252e-10 0 0 -8.9019973083e-09 
0 0 -1.7425367252e-10 0 0 -1.7425367252e-10 0 0 -1.7425367252e-10 
0 0 -1.7425367252e-10 0 0 -1.7425367252e-10 0 0 -1.7425367252e-10 
0 0 -1.7425367252e-10 0 0 -1.7425367252e-10 0 0 -1.7425367252e-10 
0 0 -1.7425367252e-10 0 0 -1.7425367252e-10 0 0 -1.7425367252e-10 
0 0 -1.7425367252e-10 0 0 -1.7425367252e-10 0 0 -1.7425367252e-10 
0 0 -1.7425367252e-10 0 0 -1.7425367252e-10 0 0 -8.9019973083e-09 
0 0 -1.7425367252e-10 0 0 -1.7425367252e-10 0 0 -1.7425367252e-10 
0 0 -1.7425367252e-10 0 0 -1.7425367252e-10 0 0 -1.7425367252e-10 
0 0 -1.7425367252e-10 0 0 -1.7425367252e-10 0 0 -1.7425367252e-10 
0 0 -1.7425367252e-10 0 0 -1.7425367252e-10 0 0 -1.7425367252e-10 
0 0 -1.7425367252e-10 0 0 -1.7425367252e-10 0 0 -8.9019973083e-09 
0 0 -1.7425367252e-10 0 0 -1.7425367252e-10 0 0 -1.7425367252e-10 
0 0 -1.7425367252e-10 0 0 -1.7425367252e-10 0 0 -1.7425367252e-10 
0 0 -1.7425367252e-10 0 0 -1.7425367252e-10 0 0 -1.7425367252e-10 
0 0 -1.7425367252e-10 0 0 -1.7425367252e-10 0 0 -1.7425367252e-10 
0 0 -1.7425367252e-10 0 0 -1.7425367252e-10 0 0 -1.7425367252e-10 
0 0 -1.7425367252e-10 0 0 -1.7425367252e-10 0 0 -1.7425367252e-10 
0 0 -1.7425367252e-10 0 0 -1.7425367252e-10 0 0 -1.7425367252e-10 
0 0 -1.7425367252e-10 0 0 -1.7425367252e-10 0 0 -1.7425367252e-10 
0 0 -1.7425367252e-10 0 0 -1.7425367252e-10 0 0 -1.7425367252e-10 
0 0 -1.7425367252e-10 0 0 -8.9019973083e-09 0 0 -1.7425367252e-10 
0 0 -1.7425367252e-10 0 0 -1.7425367252e-10 0 0 -1.7425367252e-10 
0 0 -1.7425367252e-10 0 0 -1.7425367252e-10 0 0 -1.7425367252e-10 
0 0 -1.7425367252e-10 0 0 -1.7425367252e-10 0 0 -1.7425367252e-10 
0 0 -1.7425367252e-10 0 0 -1.7425367252e-10 0 0 -1.7425367252e-10 
0 0 -1.7425367252e-10 0 0 -1.7425367252e-10 0 0 -1.7425367252e-10 
0 0 -1.7425367252e-10 0 0 -1.7425367252e-10 0 0 -1.7425367252e-10 
0 0 -1.7425367252e-10 0 0 -1.7425367252e-10 0 0 -1.7425367252e-10 
0 0 -1.7425367252e-10 0 0 -1.7425367252e-10 0 0 -1.7425367252e-10 
0 0 -1.7425367252e-10 0 0 -1.7425367252e-10 0 0 -1.7425367252e-10 
0 0 -1.7425367252e-10 0 0 -1.7425367252e-10 0 0 -1.7425367252e-10 
0 0 -1.7425367252e-10 0 0 -8.9019973083e-09 0 0 -1.7425367252e-10 
0 0 -1.7425367252e-10 0 0 -1.7425367252e-10 0 0 -8.9019973083e-09 
0 0 -1.7425367252e-10 0 0 -1.7425367252e-10 0 0 -1.7425367252e-10 
0 0 -1.7425367252e-10 0 0 -1.7425367252e-10 0 0 -1.7425367252e-10 
0 0 -1.7425367252e-10 0 0 -1.7425367252e-10 0 0 -1.7425367252e-10 
0 0 -1.7425367252e-10 0 0 -1.7425367252e-10 0 0 -1.7425367252e-10 
0 0 -1.7425367252e-10 0 0 -1.7425367252e-10 0 0 -1.7425367252e-10 
0 0 -1.7425367252e-10 0 0 -1.7425367252e-10 0 0 -1.7425367252e-10 
0 0 -1.7425367252e-10 0 0 -1.7425367252e-10 0 0 -1.7425367252e-10 
0 0 -1.7425367252e-10 0 0 -1.7425367252e-10 0 0 -1.7425367252e-10 
0 0 -1.7425367252e-10 0 0 -1.7425367252e-10 0 0 -1.7425367252e-10 
0 0 -1.7425367252e-10 0 0 -1.7425367252e-10 0 0 -1.7425367252e-10 
0 0 -1.7425367252e-10 0 0 -1.7425367252e-10 0 0 -1.7425367252e-10 
0 0 -1.7425367252e-10 0 0 -1.7425367252e-10 0 0 -1.7425367252e-10 
0 0 -1.7425367252e-10 0 0 -1.7425367252e-10 0 0 -1.7425367252e-10 
0 0 -1.7425367252e-10 0 0 -1.7425367252e-10 0 0 -1.7425367252e-10 
0 0 -1.7425367252e-10 0 0 -1.7425367252e-10 0 0 -1.7425367252e-10 
0 0 -1.7425367252e-10 0 0 -1.7425367252e-10 0 0 -1.7425367252e-10 
0 0 -1.7425367252e-10 0 0 -1.7425367252e-10 0 0 -1.7425367252e-10 
0 0 -1.7425367252e-10 0 0 -1.7425367252e-10 0 0 -1.7425367252e-10 
0 0 -1.7425367252e-10 0 0 -1.7425367252e-10 0 0 -1.7425367252e-10 
0 0 -1.7425367252e-10 0 0 -1.7425367252e-10 0 0 -1.7425367252e-10 
0 0 -1.7425367252e-10 0 0 -1.7425367252e-10 0 0 -1.7425367252e-10 
0 0 -1.7425367252e-10 0 0 -1.7425367252e-10 0 0 -1.7425367252e-10 
0 0 -1.7425367252e-10 0 0 -1.7425367252e-10 0 0 -1.7425367252e-10 
0 0 -1.7425367252e-10 0 0 -1.7425367252e-10 0 0 -1.7425367252e-10 
0 0 -1.7425367252e-10 0 0 -1.7425367252e-10 0 0 -1.7425367252e-10 
0 0 -1.7425367252e-10 0 0 -1.7425367252e-10 0 0 -1.7425367252e-10 
0 0 -8.9019973083e-09 0 0 -1.7425367252e-10 0 0 -1.7425367252e-10 
0 0 -1.7425367252e-10 0 0 -1.7425367252e-10 0 0 -1.7425367252e-10 
0 0 -1.7425367252e-10 0 0 -1.7425367252e-10 0 0 -1.7425367252e-10 
0 0 -1.7425367252e-10 0 0 -1.7425367252e-10 0 0 -1.7425367252e-10 
0 0 -1.7425367252e-10 0 0 -1.7425367252e-10 0 0 -1.7425367252e-10 
0 0 -8.9019973083e-09 0 0 -1.7425367252e-10 0 0 -1.7425367252e-10 
0 0 -8.9019973083e-09 0 0 -1.7425367252e-10 0 0 -8.9019973083e-09 
0 0 -8.9019973083e-09 0 0 -1.7425367252e-10 0 0 -1.7425367252e-10 
0 0 -6.8918688838e-08 0 0 -1.7425367252e-10 0 0 -5.3297119368e-07 

radius 1 648 double
2e-05 2e-05 7.5e-05 2e-05 2e-05 2e-05 2e-05 2e-05 2e-05 
2e-05 2e-05 2e-05 2e-05 2e-05 2e-05 2e-05 2e-05 2e-05 
2e-05 2e-05 2e-05 2e-05 2e-05 2e-05 2e-05 2e-05 2e-05 
2e-05 2e-05 2e-05 2e-05 2e-05 2e-05 2e-05 2e-05 2e-05 
2e-05 2e-05 2e-05 2e-05 2e-05 2e-05 2e-05 2e-05 2e-05 
2e-05 2e-05 2e-05 2e-05 2e-05 2e-05 2e-05 2e-05 2e-05 
2e-05 2e-05 2e-05 2e-05 2e-05 2e-05 2e-05 2e-05 2e-05 
2e-05 2e-05 2e-05 2e-05 2e-05 2e-05 2e-05 2e-05 2e-05 
2e-05 2e-05 2e-05 2e-05 2e-05 2e-05 2e-05 2e-05 2e-05 
2e-05 2e-05 2e-05 2e-05 2e-05 2e-05 2e-05 2e-05 2e-05 
2e-05 2e-05 2e-05 2e-05 2e-05 2e-05 2e-05 2e-05 2e-05 
2e-05 2e-05 2e-05 2e-05 2e-05 2e-05 2e-05 2e-05 2e-05 
2e-05 2e-05 2e-05 2e-05 2e-05 2e-05 2e-05 2e-05 2e-05 
2e-05 2e-05 2e-05 2e-05 2e-05 2e-05 2e-05 2e-05 2e-05 
2e-05 2e-05 2e-05 2e-05 2e-05 2e-05 2e-05 2e-05 2e-05 
2e-05 2e-05 2e-05 2e-05 2e-05 2e-05 2e-05 2e-05 2e-05 
2e-05 2e-05 2e-05 2e-05 2e-05 2e-05 2e-05 2e-05 2e-05 
2e-05 2e-05 2e-05 2e-05 2e-05 2e-05 2e-05 2e-05 2e-05 
2e-05 2e-05 2e-05 2e-05 2e-05 2e-05 2e-05 2e-05 2e-05 
2e-05 2e-05 2e-05 2e-05 2e-05 2e-05 2e-05 2e-05 2e-05 
2e-05 2e-05 2e-05 2e-05 2e-05 2e-05 2e-05 2e-05 2e-05 
2e-05 2e-05 2e-05 2e-05 2e-05 2e-05 2e-05 2e-05 2e-05 
2e-05 2e-05 2e-05 2e-05 2e-05 2e-05 2e-05 2e-05 2e-05 
2e-05 2e-05 2e-05 2e-05 2e-05 2e-05 2e-05 2e-05 2e-05 
2e-05 2e-05 2e-05 2e-05 2e-05 2e-05 2e-05 7.5e-05 2e-05 
2e-05 2e-05 2e-05 2e-05 2e-05 2e-05 2e-05 2e-05 2e-05 
2e-05 2e-05 2e-05 2e-05 2e-05 2e-05 2e-05 2e-05 2e-05 
2e-05 2e-05 2e-05 2e-05 2e-05 2e-05 2e-05 2e-05 2e-05 
2e-05 2e-05 2e-05 2e-05 2e-05 2e-05 2e-05 2e-05 2e-05 
2e-05 2e-05 2e-05 2e-05 2e-05 2e-05 2e-05 2e-05 7.5e-05 
2e-05 2e-05 2e-05 2e-05 2e-05 2e-05 2e-05 2e-05 2e-05 
2e-05 2e-05 2e-05 2e-05 2e-05 2e-05 2e-05 2e-05 2e-05 
2e-05 2e-05 2e-05 2e-05 2e-05 2e-05 2e-05 2e-05 2e-05 
2e-05 2e-05 2e-05 2e-05 2e-05 2e-05 2e-05 2e-05 2e-05 
2e-05 2e-05 2e-05 2e-05 2e-05 2e-05 2e-05 2e-05 2e-05 
2e-05 2e-05 2e-05 2e-05 2e-05 2e-05 2e-05 2e-05 2e-05 
2e-05 2e-05 2e-05 2e-05 2e-05 2e-05 2e-05 2e-05 2e-05 
2e-05 2e-05 2e-05 2e-05 2e-05 2e-05 2e-05 2e-05 2e-05 
2e-05 2e-05 2e-05 2e-05 2e-05 2e-05 2e-05 2e-05 2e-05 
2e-05 2e-05 2e-05 7.5e-05 2e-05 2e-05 2e-05 2e-05 2e-05 
2e-05 2e-05 2e-05 2e-05 2e-05 2e-05 2e-05 2e-05 2e-05 
2e-05 2e-05 2e-05 2e-05 2e-05 2e-05 2e-05 2e-05 2e-05 
2e-05 2e-05 2e-05 2e-05 2e-05 2e-05 2e-05 2e-05 2e-05 
2e-05 2e-05 2e-05 2e-05 2e-05 2e-05 2e-05 2e-05 2e-05 
2e-05 2e-05 2e-05 2e-05 2e-05 2e-05 2e-05 2e-05 2e-05 
2e-05 2e-05 2e-05 2e-05 2e-05 2e-05 2e-05 2e-05 2e-05 
2e-05 7.5e-05 2e-05 2e-05 2e-05 2e-05 2e-05 2e-05 2e-05 
2e-05 2e-05 2e-05 2e-05 2e-05 2e-05 2e-05 2e-05 2e-05 
2e-05 7.5e-05 2e-05 2e-05 2e-05 2e-05 2e-05 2e-05 2e-05 
2e-05 2e-05 7.5e-05 2e-05 2e-05 2e-05 2e-05 2e-05 2e-05 
2e-05 2e-05 2e-05 2e-05 2e-05 2e-05 2e-05 2e-05 2e-05 
2e-05 2e-05 7.5e-05 2e-05 2e-05 2e-05 2e-05 2e-05 2e-05 
2e-05 2e-05 2e-05 2e-05 2e-05 2e-05 2e-05 2e-05 7.5e-05 
2e-05 2e-05 2e-05 2e-05 2e-05 2e-05 2e-05 2e-05 2e-05 
2e-05 2e-05 2e-05 2e-05 2e-05 2e-05 2e-05 2e-05 2e-05 
2e-05 2e-05 2e-05 2e-05 2e-05 2e-05 2e-05 2e-05 2e-05 
2e-05 7.5e-05 2e-05 2e-05 2e-05 2e-05 2e-05 2e-05 2e-05 
2e-05 2e-05 2e-05 2e-05 2e-05 2e-05 2e-05 2e-05 2e-05 
2e-05 2e-05 2e-05 2e-05 2e-05 2e-05 2e-05 2e-05 2e-05 
2e-05 2e-05 2e-05 2e-05 2e-05 2e-05 2e-05 7.5e-05 2e-05 
2e-05 2e-05 7.5e-05 2e-05 2e-05 2e-05 2e-05 2e-05 2e-05 
2e-05 2e-05 2e-05 2e-05 2e-05 2e-05 2e-05 2e-05 2e-05 
2e-05 2e-05 2e-05 2e-05 2e-05 2e-05 2e-05 2e-05 2e-05 
2e-05 2e-05 2e-05 2e-05 2e-05 2e-05 2e-05 2e-05 2e-05 
2e-05 2e-05 2e-05 2e-05 2e-05 2e-05 2e-05 2e-05 2e-05 
2e-05 2e-05 2e-05 2e-05 2e-05 2e-05 2e-05 2e-05 2e-05 
2e-05 2e-05 2e-05 2e-05 2e-05 2e-05 2e-05 2e-05 2e-05 
2e-05 2e-05 2e-05 2e-05 2e-05 2e-05 2e-05 2e-05 2e-05 
2e-05 2e-05 2e-05 2e-05 2e-05 2e-05 2e-05 2e-05 2e-05 
7.5e-05 2e-05 2e-05 2e-05 2e-05 2e-05 2e-05 2e-05 2e-05 
2e-05 2e-05 2e-05 2e-05 2e-05 2e-05 7.5e-05 2e-05 2e-05 
7.5e-05 2e-05 7.5e-05 7.5e-05 2e-05 2e-05 0.00015 2e-05 0.0003 

omega 3 648 double
0 0 0 0 0 0 0 0 0 
0 0 0 0 0 0 0 0 0 
0 0 0 0 0 0 0 0 0 
0 0 0 0 0 0 0 0 0 
0 0 0 0 0 0 0 0 0 
0 0 0 0 0 0 0 0 0 
0 0 0 0 0 0 0 0 0 
0 0 0 0 0 0 0 0 0 
0 0 0 0 0 0 0 0 0 
0 0 0 0 0 0 0 0 0 
0 0 0 0 0 0 0 0 0 
0 0 0 0 0 0 0 0 0 
0 0 0 0 0 0 0 0 0 
0 0 0 0 0 0 0 0 0 
0 0 0 0 0 0 0 0 0 
0 0 0 0 0 0 0 0 0 
0 0 0 0 0 0 0 0 0 
0 0 0 0 0 0 0 0 0 
0 0 0 0 0 0 0 0 0 
0 0 0 0 0 0 0 0 0 
0 0 0 0 0 0 0 0 0 
0 0 0 0 0 0 0 0 0 
0 0 0 0 0 0 0 0 0 
0 0 0 0 0 0 0 0 0 
0 0 0 0 0 0 0 0 0 
0 0 0 0 0 0 0 0 0 
0 0 0 0 0 0 0 0 0 
0 0 0 0 0 0 0 0 0 
0 0 0 0 0 0 0 0 0 
0 0 0 0 0 0 0 0 0 
0 0 0 0 0 0 0 0 0 
0 0 0 0 0 0 0 0 0 
0 0 0 0 0 0 0 0 0 
0 0 0 0 0 0 0 0 0 
0 0 0 0 0 0 0 0 0 
0 0 0 0 0 0 0 0 0 
0 0 0 0 0 0 0 0 0 
0 0 0 0 0 0 0 0 0 
0 0 0 0 0 0 0 0 0 
0 0 0 0 0 0 0 0 0 
0 0 0 0 0 0 0 0 0 
0 0 0 0 0 0 0 0 0 
0 0 0 0 0 0 0 0 0 
0 0 0 0 0 0 0 0 0 
0 0 0 0 0 0 0 0 0 
0 0 0 0 0 0 0 0 0 
0 0 0 0 0 0 0 0 0 
0 0 0 0 0 0 0 0 0 
0 0 0 0 0 0 0 0 0 
0 0 0 0 0 0 0 0 0 
0 0 0 0 0 0 0 0 0 
0 0 0 0 0 0 0 0 0 
0 0 0 0 0 0 0 0 0 
0 0 0 0 0 0 0 0 0 
0 0 0 0 0 0 0 0 0 
0 0 0 0 0 0 0 0 0 
0 0 0 0 0 0 0 0 0 
0 0 0 0 0 0 0 0 0 
0 0 0 0 0 0 0 0 0 
0 0 0 0 0 0 0 0 0 
0 0 0 0 0 0 0 0 0 
0 0 0 0 0 0 0 0 0 
0 0 0 0 0 0 0 0 0 
0 0 0 0 0 0 0 0 0 
0 0 0 0 0 0 0 0 0 
0 0 0 0 0 0 0 0 0 
0 0 0 0 0 0 0 0 0 
0 0 0 0 0 0 0 0 0 
0 0 0 0 0 0 0 0 0 
0 0 0 0 0 0 0 0 0 
0 0 0 0 0 0 0 0 0 
0 0 0 0 0 0 0 0 0 
0 0 0 0 0 0 0 0 0 
0 0 0 0 0 0 0 0 0 
0 0 0 0 0 0 0 0 0 
0 0 0 0 0 0 0 0 0 
0 0 0 0 0 0 0 0 0 
0 0 0 0 0 0 0 0 0 
0 0 0 0 0 0 0 0 0 
0 0 0 0 0 0 0 0 0 
0 0 0 0 0 0 0 0 0 
0 0 0 0 0 0 0 0 0 
0 0 0 0 0 0 0 0 0 
0 0 0 0 0 0 0 0 0 
0 0 0 0 0 0 0 0 0 
0 0 0 0 0 0 0 0 0 
0 0 0 0 0 0 0 0 0 
0 0 0 0 0 0 0 0 0 
0 0 0 0 0 0 0 0 0 
0 0 0 0 0 0 0 0 0 
0 0 0 0 0 0 0 0 0 
0 0 0 0 0 0 0 0 0 
0 0 0 0 0 0 0 0 0 
0 0 0 0 0 0 0 0 0 
0 0 0 0 0 0 0 0 0 
0 0 0 0 0 0 0 0 0 
0 0 0 0 0 0 0 0 0 
0 0 0 0 0 0 0 0 0 
0 0 0 0 0 0 0 0 0 
0 0 0 0 0 0 0 0 0 
0 0 0 0 0 0 0 0 0 
0 0 0 0 0 0 0 0 0 
0 0 0 0 0 0 0 0 0 
0 0 0 0 0 0 0 0 0 
0 0 0 0 0 0 0 0 0 
0 0 0 0 0 0 0 0 0 
0 0 0 0 0 0 0 0 0 
0 0 0 0 0 0 0 0 0 
0 0 0 0 0 0 0 0 0 
0 0 0 0 0 0 0 0 0 
0 0 0 0 0 0 0 0 0 
0 0 0 0 0 0 0 0 0 
0 0 0 0 0 0 0 0 0 
0 0 0 0 0 0 0 0 0 
0 0 0 0 0 0 0 0 0 
0 0 0 0 0 0 0 0 0 
0 0 0 0 0 0 0 0 0 
0 0 0 0 0 0 0 0 0 
0 0 0 0 0 0 0 0 0 
0 0 0 0 0 0 0 0 0 
0 0 0 0 0 0 0 0 0 
0 0 0 0 0 0 0 0 0 
0 0 0 0 0 0 0 0 0 
0 0 0 0 0 0 0 0 0 
0 0 0 0 0 0 0 0 0 
0 0 0 0 0 0 0 0 0 
0 0 0 0 0 0 0 0 0 
0 0 0 0 0 0 0 0 0 
0 0 0 0 0 0 0 0 0 
0 0 0 0 0 0 0 0 0 
0 0 0 0 0 0 0 0 0 
0 0 0 0 0 0 0 0 0 
0 0 0 0 0 0 0 0 0 
0 0 0 0 0 0 0 0 0 
0 0 0 0 0 0 0 0 0 
0 0 0 0 0 0 0 0 0 
0 0 0 0 0 0 0 0 0 
0 0 0 0 0 0 0 0 0 
0 0 0 0 0 0 0 0 0 
0 0 0 0 0 0 0 0 0 
0 0 0 0 0 0 0 0 0 
0 0 0 0 0 0 0 0 0 
0 0 0 0 0 0 0 0 0 
0 0 0 0 0 0 0 0 0 
0 0 0 0 0 0 0 0 0 
0 0 0 0 0 0 0 0 0 
0 0 0 0 0 0 0 0 0 
0 0 0 0 0 0 0 0 0 
0 0 0 0 0 0 0 0 0 
0 0 0 0 0 0 0 0 0 
0 0 0 0 0 0 0 0 0 
0 0 0 0 0 0 0 0 0 
0 0 0 0 0 0 0 0 0 
0 0 0 0 0 0 0 0 0 
0 0 0 0 0 0 0 0 0 
0 0 0 0 0 0 0 0 0 
0 0 0 0 0 0 0 0 0 
0 0 0 0 0 0 0 0 0 
0 0 0 0 0 0 0 0 0 
0 0 0 0 0 0 0 0 0 
0 0 0 0 0 0 0 0 0 
0 0 0 0 0 0 0 0 0 
0 0 0 0 0 0 0 0 0 
0 0 0 0 0 0 0 0 0 
0 0 0 0 0 0 0 0 0 
0 0 0 0 0 0 0 0 0 
0 0 0 0 0 0 0 0 0 
0 0 0 0 0 0 0 0 0 
0 0 0 0 0 0 0 0 0 
0 0 0 0 0 0 0 0 0 
0 0 0 0 0 0 0 0 0 
0 0 0 0 0 0 0 0 0 
0 0 0 0 0 0 0 0 0 
0 0 0 0 0 0 0 0 0 
0 0 0 0 0 0 0 0 0 
0 0 0 0 0 0 0 0 0 
0 0 0 0 0 0 0 0 0 
0 0 0 0 0 0 0 0 0 
0 0 0 0 0 0 0 0 0 
0 0 0 0 0 0 0 0 0 
0 0 0 0 0 0 0 0 0 
0 0 0 0 0 0 0 0 0 
0 0 0 0 0 0 0 0 0 
0 0 0 0 0 0 0 0 0 
0 0 0 0 0 0 0 0 0 
0 0 0 0 0 0 0 0 0 
0 0 0 0 0 0 0 0 0 
0 0 0 0 0 0 0 0 0 
0 0 0 0 0 0 0 0 0 
0 0 0 0 0 0 0 0 0 
0 0 0 0 0 0 0 0 0 
0 0 0 0 0 0 0 0 0 
0 0 0 0 0 0 0 0 0 
0 0 0 0 0 0 0 0 0 
0 0 0 0 0 0 0 0 0 
0 0 0 0 0 0 0 0 0 
0 0 0 0 0 0 0 0 0 
0 0 0 0 0 0 0 0 0 
0 0 0 0 0 0 0 0 0 
0 0 0 0 0 0 0 0 0 
0 0 0 0 0 0 0 0 0 
0 0 0 0 0 0 0 0 0 
0 0 0 0 0 0 0 0 0 
0 0 0 0 0 0 0 0 0 
0 0 0 0 0 0 0 0 0 
0 0 0 0 0 0 0 0 0 
0 0 0 0 0 0 0 0 0 
0 0 0 0 0 0 0 0 0 
0 0 0 0 0 0 0 0 0 
0 0 0 0 0 0 0 0 0 
0 0 0 0 0 0 0 0 0 
0 0 0 0 0 0 0 0 0 
0 0 0 0 0 0 0 0 0 
0 0 0 0 0 0 0 0 0 
0 0 0 0 0 0 0 0 0 
0 0 0 0 0 0 0 0 0 

fx_mag_viz 1 648 double
0 0 0 0 0 0 0 0 0 
0 0 0 0 0 0 0 0 0 
0 0 0 0 0 0 0 0 0 
0 0 0 0 0 0 0 0 0 
0 0 0 0 0 0 0 0 0 
0 0 0 0 0 0 0 0 0 
0 0 0 0 0 0 0 0 0 
0 0 0 0 0 0 0 0 0 
0 0 0 0 0 0 0 0 0 
0 0 0 0 0 0 0 0 0 
0 0 0 0 0 0 0 0 0 
0 0 0 0 0 0 0 0 0 
0 0 0 0 0 0 0 0 0 
0 0 0 0 0 0 0 0 0 
0 0 0 0 0 0 0 0 0 
0 0 0 0 0 0 0 0 0 
0 0 0 0 0 0 0 0 0 
0 0 0 0 0 0 0 0 0 
0 0 0 0 0 0 0 0 0 
0 0 0 0 0 0 0 0 0 
0 0 0 0 0 0 0 0 0 
0 0 0 0 0 0 0 0 0 
0 0 0 0 0 0 0 0 0 
0 0 0 0 0 0 0 0 0 
0 0 0 0 0 0 0 0 0 
0 0 0 0 0 0 0 0 0 
0 0 0 0 0 0 0 0 0 
0 0 0 0 0 0 0 0 0 
0 0 0 0 0 0 0 0 0 
0 0 0 0 0 0 0 0 0 
0 0 0 0 0 0 0 0 0 
0 0 0 0 0 0 0 0 0 
0 0 0 0 0 0 0 0 0 
0 0 0 0 0 0 0 0 0 
0 0 0 0 0 0 0 0 0 
0 0 0 0 0 0 0 0 0 
0 0 0 0 0 0 0 0 0 
0 0 0 0 0 0 0 0 0 
0 0 0 0 0 0 0 0 0 
0 0 0 0 0 0 0 0 0 
0 0 0 0 0 0 0 0 0 
0 0 0 0 0 0 0 0 0 
0 0 0 0 0 0 0 0 0 
0 0 0 0 0 0 0 0 0 
0 0 0 0 0 0 0 0 0 
0 0 0 0 0 0 0 0 0 
0 0 0 0 0 0 0 0 0 
0 0 0 0 0 0 0 0 0 
0 0 0 0 0 0 0 0 0 
0 0 0 0 0 0 0 0 0 
0 0 0 0 0 0 0 0 0 
0 0 0 0 0 0 0 0 0 
0 0 0 0 0 0 0 0 0 
0 0 0 0 0 0 0 0 0 
0 0 0 0 0 0 0 0 0 
0 0 0 0 0 0 0 0 0 
0 0 0 0 0 0 0 0 0 
0 0 0 0 0 0 0 0 0 
0 0 0 0 0 0 0 0 0 
0 0 0 0 0 0 0 0 0 
0 0 0 0 0 0 0 0 0 
0 0 0 0 0 0 0 0 0 
0 0 0 0 0 0 0 0 0 
0 0 0 0 0 0 0 0 0 
0 0 0 0 0 0 0 0 0 
0 0 0 0 0 0 0 0 0 
0 0 0 0 0 0 0 0 0 
0 0 0 0 0 0 0 0 0 
0 0 0 0 0 0 0 0 0 
0 0 0 0 0 0 0 0 0 
0 0 0 0 0 0 0 0 0 
0 0 0 0 0 0 0 0 0 

fy_mag_viz 1 648 double
0 0 0 0 0 0 0 0 0 
0 0 0 0 0 0 0 0 0 
0 0 0 0 0 0 0 0 0 
0 0 0 0 0 0 0 0 0 
0 0 0 0 0 0 0 0 0 
0 0 0 0 0 0 0 0 0 
0 0 0 0 0 0 0 0 0 
0 0 0 0 0 0 0 0 0 
0 0 0 0 0 0 0 0 0 
0 0 0 0 0 0 0 0 0 
0 0 0 0 0 0 0 0 0 
0 0 0 0 0 0 0 0 0 
0 0 0 0 0 0 0 0 0 
0 0 0 0 0 0 0 0 0 
0 0 0 0 0 0 0 0 0 
0 0 0 0 0 0 0 0 0 
0 0 0 0 0 0 0 0 0 
0 0 0 0 0 0 0 0 0 
0 0 0 0 0 0 0 0 0 
0 0 0 0 0 0 0 0 0 
0 0 0 0 0 0 0 0 0 
0 0 0 0 0 0 0 0 0 
0 0 0 0 0 0 0 0 0 
0 0 0 0 0 0 0 0 0 
0 0 0 0 0 0 0 0 0 
0 0 0 0 0 0 0 0 0 
0 0 0 0 0 0 0 0 0 
0 0 0 0 0 0 0 0 0 
0 0 0 0 0 0 0 0 0 
0 0 0 0 0 0 0 0 0 
0 0 0 0 0 0 0 0 0 
0 0 0 0 0 0 0 0 0 
0 0 0 0 0 0 0 0 0 
0 0 0 0 0 0 0 0 0 
0 0 0 0 0 0 0 0 0 
0 0 0 0 0 0 0 0 0 
0 0 0 0 0 0 0 0 0 
0 0 0 0 0 0 0 0 0 
0 0 0 0 0 0 0 0 0 
0 0 0 0 0 0 0 0 0 
0 0 0 0 0 0 0 0 0 
0 0 0 0 0 0 0 0 0 
0 0 0 0 0 0 0 0 0 
0 0 0 0 0 0 0 0 0 
0 0 0 0 0 0 0 0 0 
0 0 0 0 0 0 0 0 0 
0 0 0 0 0 0 0 0 0 
0 0 0 0 0 0 0 0 0 
0 0 0 0 0 0 0 0 0 
0 0 0 0 0 0 0 0 0 
0 0 0 0 0 0 0 0 0 
0 0 0 0 0 0 0 0 0 
0 0 0 0 0 0 0 0 0 
0 0 0 0 0 0 0 0 0 
0 0 0 0 0 0 0 0 0 
0 0 0 0 0 0 0 0 0 
0 0 0 0 0 0 0 0 0 
0 0 0 0 0 0 0 0 0 
0 0 0 0 0 0 0 0 0 
0 0 0 0 0 0 0 0 0 
0 0 0 0 0 0 0 0 0 
0 0 0 0 0 0 0 0 0 
0 0 0 0 0 0 0 0 0 
0 0 0 0 0 0 0 0 0 
0 0 0 0 0 0 0 0 0 
0 0 0 0 0 0 0 0 0 
0 0 0 0 0 0 0 0 0 
0 0 0 0 0 0 0 0 0 
0 0 0 0 0 0 0 0 0 
0 0 0 0 0 0 0 0 0 
0 0 0 0 0 0 0 0 0 
0 0 0 0 0 0 0 0 0 

fz_mag_viz 1 648 double
0 0 0 0 0 0 0 0 0 
0 0 0 0 0 0 0 0 0 
0 0 0 0 0 0 0 0 0 
0 0 0 0 0 0 0 0 0 
0 0 0 0 0 0 0 0 0 
0 0 0 0 0 0 0 0 0 
0 0 0 0 0 0 0 0 0 
0 0 0 0 0 0 0 0 0 
0 0 0 0 0 0 0 0 0 
0 0 0 0 0 0 0 0 0 
0 0 0 0 0 0 0 0 0 
0 0 0 0 0 0 0 0 0 
0 0 0 0 0 0 0 0 0 
0 0 0 0 0 0 0 0 0 
0 0 0 0 0 0 0 0 0 
0 0 0 0 0 0 0 0 0 
0 0 0 0 0 0 0 0 0 
0 0 0 0 0 0 0 0 0 
0 0 0 0 0 0 0 0 0 
0 0 0 0 0 0 0 0 0 
0 0 0 0 0 0 0 0 0 
0 0 0 0 0 0 0 0 0 
0 0 0 0 0 0 0 0 0 
0 0 0 0 0 0 0 0 0 
0 0 0 0 0 0 0 0 0 
0 0 0 0 0 0 0 0 0 
0 0 0 0 0 0 0 0 0 
0 0 0 0 0 0 0 0 0 
0 0 0 0 0 0 0 0 0 
0 0 0 0 0 0 0 0 0 
0 0 0 0 0 0 0 0 0 
0 0 0 0 0 0 0 0 0 
0 0 0 0 0 0 0 0 0 
0 0 0 0 0 0 0 0 0 
0 0 0 0 0 0 0 0 0 
0 0 0 0 0 0 0 0 0 
0 0 0 0 0 0 0 0 0 
0 0 0 0 0 0 0 0 0 
0 0 0 0 0 0 0 0 0 
0 0 0 0 0 0 0 0 0 
0 0 0 0 0 0 0 0 0 
0 0 0 0 0 0 0 0 0 
0 0 0 0 0 0 0 0 0 
0 0 0 0 0 0 0 0 0 
0 0 0 0 0 0 0 0 0 
0 0 0 0 0 0 0 0 0 
0 0 0 0 0 0 0 0 0 
0 0 0 0 0 0 0 0 0 
0 0 0 0 0 0 0 0 0 
0 0 0 0 0 0 0 0 0 
0 0 0 0 0 0 0 0 0 
0 0 0 0 0 0 0 0 0 
0 0 0 0 0 0 0 0 0 
0 0 0 0 0 0 0 0 0 
0 0 0 0 0 0 0 0 0 
0 0 0 0 0 0 0 0 0 
0 0 0 0 0 0 0 0 0 
0 0 0 0 0 0 0 0 0 
0 0 0 0 0 0 0 0 0 
0 0 0 0 0 0 0 0 0 
0 0 0 0 0 0 0 0 0 
0 0 0 0 0 0 0 0 0 
0 0 0 0 0 0 0 0 0 
0 0 0 0 0 0 0 0 0 
0 0 0 0 0 0 0 0 0 
0 0 0 0 0 0 0 0 0 
0 0 0 0 0 0 0 0 0 
0 0 0 0 0 0 0 0 0 
0 0 0 0 0 0 0 0 0 
0 0 0 0 0 0 0 0 0 
0 0 0 0 0 0 0 0 0 
0 0 0 0 0 0 0 0 0 

B_magnitude 1 648 double
0 0 0 0 0 0 0 0 0 
0 0 0 0 0 0 0 0 0 
0 0 0 0 0 0 0 0 0 
0 0 0 0 0 0 0 0 0 
0 0 0 0 0 0 0 0 0 
0 0 0 0 0 0 0 0 0 
0 0 0 0 0 0 0 0 0 
0 0 0 0 0 0 0 0 0 
0 0 0 0 0 0 0 0 0 
0 0 0 0 0 0 0 0 0 
0 0 0 0 0 0 0 0 0 
0 0 0 0 0 0 0 0 0 
0 0 0 0 0 0 0 0 0 
0 0 0 0 0 0 0 0 0 
0 0 0 0 0 0 0 0 0 
0 0 0 0 0 0 0 0 0 
0 0 0 0 0 0 0 0 0 
0 0 0 0 0 0 0 0 0 
0 0 0 0 0 0 0 0 0 
0 0 0 0 0 0 0 0 0 
0 0 0 0 0 0 0 0 0 
0 0 0 0 0 0 0 0 0 
0 0 0 0 0 0 0 0 0 
0 0 0 0 0 0 0 0 0 
0 0 0 0 0 0 0 0 0 
0 0 0 0 0 0 0 0 0 
0 0 0 0 0 0 0 0 0 
0 0 0 0 0 0 0 0 0 
0 0 0 0 0 0 0 0 0 
0 0 0 0 0 0 0 0 0 
0 0 0 0 0 0 0 0 0 
0 0 0 0 0 0 0 0 0 
0 0 0 0 0 0 0 0 0 
0 0 0 0 0 0 0 0 0 
0 0 0 0 0 0 0 0 0 
0 0 0 0 0 0 0 0 0 
0 0 0 0 0 0 0 0 0 
0 0 0 0 0 0 0 0 0 
0 0 0 0 0 0 0 0 0 
0 0 0 0 0 0 0 0 0 
0 0 0 0 0 0 0 0 0 
0 0 0 0 0 0 0 0 0 
0 0 0 0 0 0 0 0 0 
0 0 0 0 0 0 0 0 0 
0 0 0 0 0 0 0 0 0 
0 0 0 0 0 0 0 0 0 
0 0 0 0 0 0 0 0 0 
0 0 0 0 0 0 0 0 0 
0 0 0 0 0 0 0 0 0 
0 0 0 0 0 0 0 0 0 
0 0 0 0 0 0 0 0 0 
0 0 0 0 0 0 0 0 0 
0 0 0 0 0 0 0 0 0 
0 0 0 0 0 0 0 0 0 
0 0 0 0 0 0 0 0 0 
0 0 0 0 0 0 0 0 0 
0 0 0 0 0 0 0 0 0 
0 0 0 0 0 0 0 0 0 
0 0 0 0 0 0 0 0 0 
0 0 0 0 0 0 0 0 0 
0 0 0 0 0 0 0 0 0 
0 0 0 0 0 0 0 0 0 
0 0 0 0 0 0 0 0 0 
0 0 0 0 0 0 0 0 0 
0 0 0 0 0 0 0 0 0 
0 0 0 0 0 0 0 0 0 
0 0 0 0 0 0 0 0 0 
0 0 0 0 0 0 0 0 0 
0 0 0 0 0 0 0 0 0 
0 0 0 0 0 0 0 0 0 
0 0 0 0 0 0 0 0 0 
0 0 0 0 0 0 0 0 0 

B_gradient_mag 1 648 double
0 0 0 0 0 0 0 0 0 
0 0 0 0 0 0 0 0 0 
0 0 0 0 0 0 0 0 0 
0 0 0 0 0 0 0 0 0 
0 0 0 0 0 0 0 0 0 
0 0 0 0 0 0 0 0 0 
0 0 0 0 0 0 0 0 0 
0 0 0 0 0 0 0 0 0 
0 0 0 0 0 0 0 0 0 
0 0 0 0 0 0 0 0 0 
0 0 0 0 0 0 0 0 0 
0 0 0 0 0 0 0 0 0 
0 0 0 0 0 0 0 0 0 
0 0 0 0 0 0 0 0 0 
0 0 0 0 0 0 0 0 0 
0 0 0 0 0 0 0 0 0 
0 0 0 0 0 0 0 0 0 
0 0 0 0 0 0 0 0 0 
0 0 0 0 0 0 0 0 0 
0 0 0 0 0 0 0 0 0 
0 0 0 0 0 0 0 0 0 
0 0 0 0 0 0 0 0 0 
0 0 0 0 0 0 0 0 0 
0 0 0 0 0 0 0 0 0 
0 0 0 0 0 0 0 0 0 
0 0 0 0 0 0 0 0 0 
0 0 0 0 0 0 0 0 0 
0 0 0 0 0 0 0 0 0 
0 0 0 0 0 0 0 0 0 
0 0 0 0 0 0 0 0 0 
0 0 0 0 0 0 0 0 0 
0 0 0 0 0 0 0 0 0 
0 0 0 0 0 0 0 0 0 
0 0 0 0 0 0 0 0 0 
0 0 0 0 0 0 0 0 0 
0 0 0 0 0 0 0 0 0 
0 0 0 0 0 0 0 0 0 
0 0 0 0 0 0 0 0 0 
0 0 0 0 0 0 0 0 0 
0 0 0 0 0 0 0 0 0 
0 0 0 0 0 0 0 0 0 
0 0 0 0 0 0 0 0 0 
0 0 0 0 0 0 0 0 0 
0 0 0 0 0 0 0 0 0 
0 0 0 0 0 0 0 0 0 
0 0 0 0 0 0 0 0 0 
0 0 0 0 0 0 0 0 0 
0 0 0 0 0 0 0 0 0 
0 0 0 0 0 0 0 0 0 
0 0 0 0 0 0 0 0 0 
0 0 0 0 0 0 0 0 0 
0 0 0 0 0 0 0 0 0 
0 0 0 0 0 0 0 0 0 
0 0 0 0 0 0 0 0 0 
0 0 0 0 0 0 0 0 0 
0 0 0 0 0 0 0 0 0 
0 0 0 0 0 0 0 0 0 
0 0 0 0 0 0 0 0 0 
0 0 0 0 0 0 0 0 0 
0 0 0 0 0 0 0 0 0 
0 0 0 0 0 0 0 0 0 
0 0 0 0 0 0 0 0 0 
0 0 0 0 0 0 0 0 0 
0 0 0 0 0 0 0 0 0 
0 0 0 0 0 0 0 0 0 
0 0 0 0 0 0 0 0 0 
0 0 0 0 0 0 0 0 0 
0 0 0 0 0 0 0 0 0 
0 0 0 0 0 0 0 0 0 
0 0 0 0 0 0 0 0 0 
0 0 0 0 0 0 0 0 0 
0 0 0 0 0 0 0 0 0 

