# vtk DataFile Version 5.1
Generated by LIGGGHTS
ASCII
DATASET POLYDATA
POINTS 648 float
-0.0428902 -0.0449088 0.00102 -0.00340304 -0.0448428 0.00106119 -0.044759 -0.0437614 0.00102 
-0.0335565 -0.0442122 0.00118884 -0.0308094 -0.0435702 0.00102 0.0181024 -0.0433049 0.0011598 
0.0348044 -0.042095 0.00117718 0.0418836 -0.0421436 0.00102072 -0.00674967 -0.0416523 0.00106878 
0.0414821 -0.0410789 0.00106424 -0.042922 -0.0404536 0.00103561 -0.0334706 -0.0396012 0.00114402 
-0.018434 -0.0405477 0.00102078 0.040047 -0.0404588 0.00102 -0.0234086 -0.038644 0.00117685 
-0.0108246 -0.0388127 0.00104764 -0.00302782 -0.0385948 0.00102 0.0156715 -0.0391733 0.00102 
0.00798734 -0.0367051 0.00102 0.0308099 -0.0378456 0.00102088 -0.0168273 -0.0360331 0.00125078 
-0.00338111 -0.0363358 0.00118543 0.000822496 -0.0363122 0.00102016 0.0333162 -0.0342631 0.00102 
0.023158 -0.0340207 0.00102 0.0244271 -0.0334586 0.00102 -0.0262624 -0.032473 0.00104435 
-0.0232422 -0.0321576 0.00102 0.0346336 -0.0325969 0.00114956 -0.0266532 -0.0301716 0.00102 
-0.0105296 -0.0314142 0.00102 0.0280204 -0.0311414 0.00102 0.0449741 -0.0303513 0.00116312 
-0.0448384 -0.0296834 0.00102 0.0346338 -0.0290927 0.00105221 0.00577088 -0.0287415 0.00102 
-0.0432264 -0.0264101 0.00112768 -0.0430551 -0.0267583 0.00110427 0.000892701 -0.0263701 0.00106301 
0.0054016 -0.025334 0.00104067 0.0306875 -0.0259396 0.00103768 0.033456 -0.0256735 0.00102 
0.032808 -0.025967 0.00102 -0.0408326 -0.0234295 0.00102 -0.038621 -0.0229432 0.0011344 
-0.0225401 -0.0213878 0.00126433 0.00623721 -0.0211799 0.00124843 0.0233461 -0.0214624 0.00124918 
0.0436787 -0.0219137 0.00102 -0.00827992 -0.020547 0.00119344 0.0336491 -0.0197505 0.00102 
-0.0108877 -0.0188832 0.00102 0.0363266 -0.0194176 0.0010445 -0.0317771 -0.0175651 0.00102 
-0.0100897 -0.0180162 0.00125879 0.0030191 -0.0179247 0.00102003 0.0404767 -0.0183151 0.00102 
-0.0426154 -0.0165053 0.00114181 -0.0257955 -0.0157834 0.0010603 0.0223879 -0.0163393 0.00102 
-0.00444012 -0.0151621 0.00106222 0.0198229 -0.0156851 0.00129291 -0.0117656 -0.0138394 0.00104514 
0.0176437 -0.0119747 0.00118472 0.00689113 -0.0107816 0.00102 0.0277003 -0.0107969 0.00102 
0.0414517 -0.0114994 0.00109784 -0.0222502 -0.00974669 0.00104918 -0.0196799 -0.00931279 0.00123898 
-0.0112192 -0.0104501 0.00102 0.00743742 -0.00926665 0.00102 0.013874 -0.00963069 0.00102802 
0.0251729 -0.00985964 0.00129762 0.0313953 -0.00974065 0.0010238 0.0350526 -0.0102353 0.00102 
-0.00553214 -0.00871323 0.00102995 -0.00254943 -0.00825679 0.00106877 -0.0198564 -0.00683511 0.00102 
0.0109664 -0.00760095 0.0011168 -0.0129003 -0.00574839 0.00102 -0.00747582 -0.00609419 0.00102261 
0.0387156 -0.00624884 0.00124454 0.00937085 -0.00418454 0.00102 0.0131353 -0.00504642 0.00102 
0.021323 -0.00444137 0.00105446 -0.0179231 -0.00300678 0.00102 -0.0141425 -0.00311887 0.0010438 
-0.0120059 -0.00345367 0.00108644 -0.0281455 -0.00127675 0.00115956 -0.00783961 -0.000387029 0.00102 
-0.00702036 -0.00121172 0.00102 0.0290986 -0.000251763 0.0012205 -0.0260142 0.00017485 0.00103928 
0.0384376 0.000848974 0.00102 -0.00967086 0.00179773 0.00102 0.00417698 0.0024455 0.00102 
0.0147261 0.00139147 0.00112255 0.0188762 0.00181355 0.00117103 0.032558 0.00153523 0.00119154 
-0.0325416 0.00283857 0.00121432 0.0449494 0.00392273 0.0010658 -0.025141 0.00447188 0.0012962 
0.0292006 0.00433004 0.00102 0.0305447 0.00486582 0.00102 0.0404406 0.00462082 0.0012321 
-0.0287984 0.00559412 0.00102 -0.0170872 0.00564833 0.00102 -0.00552594 0.00555795 0.00120577 
0.0011249 0.00615697 0.00102 0.021602 0.00540593 0.00102 0.0228765 0.00606581 0.00102 
0.0246705 0.0064451 0.00102475 0.030759 0.00580352 0.00108777 -0.0426568 0.00723228 0.00102 
0.0221269 0.00728552 0.00104695 0.0283387 0.00890506 0.00104442 0.0340899 0.00882812 0.0012791 
-0.0392616 0.00972366 0.00102 -0.0214351 0.00957734 0.00102 -0.0101256 0.00978275 0.00102 
0.0197977 0.00963841 0.00102 0.0212596 0.00979192 0.00102 0.0211953 0.00966092 0.00122281 
-0.0394276 0.0109375 0.00107245 0.00418285 0.0112423 0.00119447 0.0399323 0.0117688 0.00102 
0.0398091 0.011618 0.00126411 -0.00279986 0.0127222 0.00102409 0.00861143 0.0123591 0.00117309 
-0.034865 0.0142961 0.00102 -0.0310202 0.0131063 0.00102 8.23501e-07 0.0138406 0.00102 
0.0143092 0.0139794 0.00102 0.0248423 0.0143007 0.00102 0.0287781 0.014071 0.00102 
-0.00307286 0.0144526 0.00104808 0.000954082 0.0152563 0.00122608 0.00517921 0.0169249 0.00104428 
0.0418335 0.0161761 0.00105564 -0.0360536 0.0173104 0.00102 0.0215224 0.0171285 0.00102 
0.0407412 0.0174253 0.00120986 -0.0214239 0.0189608 0.00102 0.00395304 0.0187088 0.00109918 
0.0090081 0.0191686 0.00124341 0.018015 0.0183735 0.00108971 -0.023041 0.0197144 0.00102 
-0.022709 0.0198803 0.00102041 -0.0153727 0.020636 0.00102 -0.0282566 0.021284 0.00102 
0.00128112 0.0217131 0.00112835 0.0123926 0.0218243 0.00102 0.03506 0.0228899 0.00102 
-0.0267196 0.0236159 0.00103124 0.0307708 0.0242663 0.00110139 -0.0386663 0.0253433 0.00126148 
-0.00739359 0.0259593 0.00127704 0.0167463 0.0251763 0.00102 0.0226957 0.0260881 0.00102063 
-0.0267569 0.0263983 0.00126907 -0.00563177 0.0268155 0.00127522 0.00953871 0.0271324 0.00115295 
0.0395905 0.0272142 0.00123163 -0.0357156 0.0282031 0.00126181 -0.0127911 0.0299546 0.00102981 
0.0191509 0.0299648 0.00114275 -0.0409258 0.0305044 0.00102 -0.0313244 0.0314049 0.00115365 
-0.0200898 0.0311527 0.00102329 -0.0108954 0.0304 0.00105805 0.00372347 0.0304157 0.00104956 
0.0038092 0.0311583 0.00105494 0.026696 0.03017 0.00108513 0.0364634 0.0310238 0.00104488 
0.0444958 0.0309554 0.00102 -0.0073504 0.0318329 0.00104533 0.00390562 0.0317225 0.00104925 
-0.0359241 0.0337864 0.00102058 -0.0337286 0.0337045 0.00114658 -0.0264781 0.032823 0.00102 
0.00284552 0.0345861 0.00102 0.0132394 0.0345575 0.00117964 0.0231674 0.0340949 0.00125137 
-0.041477 0.0364172 0.00115634 -0.0245447 0.0378537 0.00104115 0.0297434 0.0373158 0.00102 
-0.00973825 0.0391656 0.00104946 0.0165329 0.0385374 0.00102 0.0238959 0.0383247 0.00102269 
-0.0379532 0.0399341 0.00106828 -0.0312382 0.0393096 0.0010336 -0.0112537 0.0395394 0.00126755 
0.0221021 0.0401282 0.00125513 0.0251972 0.0393087 0.00102 -0.0133259 0.0414802 0.00106446 
0.0163992 0.0415262 0.00102 0.0222253 0.0407186 0.00105509 -0.0390027 0.0421086 0.00102 
0.0294278 0.0431452 0.0011982 -0.0205282 0.0432397 0.00123727 0.0405446 0.0433429 0.00129328 
-0.0190394 0.0446837 0.00117629 -0.0160353 0.0448572 0.0010436 -0.0346971 -0.0446764 0.00186179 
-0.0317519 -0.0446953 0.00178035 0.0262096 -0.0449372 0.00174955 -0.027409 -0.0433703 0.00181105 
0.0145521 -0.0432303 0.0022881 0.0416479 -0.0439733 0.00173539 -0.0248654 -0.0427111 0.00196327 
0.0248068 -0.0428986 0.00191096 -0.0349861 -0.0412827 0.00195001 0.000425919 -0.0415728 0.00254757 
-0.0406141 -0.0405112 0.00235577 -0.0248652 -0.040212 0.00140069 -0.0169239 -0.0402939 0.00243643 
-0.00670669 -0.0394183 0.00202322 0.0244803 -0.0401788 0.00131055 -0.0289295 -0.0389067 0.00212706 
0.0397687 -0.0374633 0.00192162 -0.0439713 -0.0357399 0.00185001 -0.0273176 -0.0361067 0.00232803 
0.0195647 -0.0366528 0.00258989 0.0307351 -0.0355434 0.00143233 -0.0179089 -0.0346335 0.00178525 
-0.0177429 -0.0346724 0.00258792 0.00594186 -0.0351889 0.0013123 0.00879071 -0.0344865 0.00175351 
0.043014 -0.0343178 0.0016723 0.0433459 -0.0353282 0.00223717 -0.0427235 -0.0332389 0.00178796 
-0.00586029 -0.0338127 0.00150896 -0.0376897 -0.0314333 0.00258283 -0.0210092 -0.0320472 0.00253552 
-0.0160452 -0.0323821 0.00240977 0.00802514 -0.031483 0.00223428 0.010226 -0.0308634 0.00146983 
0.00231692 -0.0294453 0.00251968 0.0392765 -0.0300093 0.00178656 0.0156293 -0.0283842 0.00186804 
0.0164647 -0.0275391 0.00159686 -0.00580099 -0.0272788 0.00192563 0.0101031 -0.0273014 0.00219713 
-0.0338231 -0.0250135 0.0021376 -0.00446216 -0.0255279 0.00200554 0.0155599 -0.0240909 0.00175313 
0.0210005 -0.0239559 0.00242324 0.0109547 -0.0235646 0.00256409 0.0115492 -0.0227248 0.0025402 
-0.0323128 -0.0219837 0.00207086 -0.0291427 -0.0219343 0.00154117 0.039775 -0.0211058 0.00137663 
-0.0296942 -0.0196153 0.00134517 0.00156248 -0.0194187 0.00137343 0.0134129 -0.0192809 0.00203107 
-0.0204621 -0.0172006 0.00138312 0.0184681 -0.0172117 0.00203262 0.0282033 -0.0178095 0.00219655 
-0.0405162 -0.0161033 0.00225766 -0.0339565 -0.0167518 0.00133291 0.0296492 -0.015918 0.00188863 
-0.015814 -0.0152491 0.00211524 0.0249316 -0.014475 0.00205872 0.0268005 -0.0146468 0.00156033 
0.0375745 -0.0151367 0.00218337 -0.0388614 -0.0136303 0.00132412 -0.0329121 -0.0139828 0.0017646 
-0.0227164 -0.0141288 0.00162997 -0.00710141 -0.0133745 0.00227758 0.00886689 -0.0141191 0.00249454 
0.0403752 -0.0143085 0.00253565 -0.0341597 -0.0122829 0.00198462 0.0322358 -0.0130621 0.00200553 
0.0347312 -0.012978 0.00183723 -0.0253401 -0.0103599 0.00247106 0.0218314 -0.00971151 0.00170564 
0.0286804 -0.00919085 0.0013881 -0.0304645 -0.00701594 0.00158882 -0.0150798 -0.00698339 0.00243225 
-0.0101373 -0.00698039 0.00163292 -0.00433253 -0.00676057 0.00157588 -0.00401126 -0.00720159 0.00213988 
0.0275881 -0.00673863 0.00217075 0.0404774 -0.00688032 0.00137624 -0.00720807 -0.00608605 0.00143038 
-0.040885 -0.00406647 0.00175309 0.0180565 -0.00487531 0.00152685 0.0448793 -0.00396119 0.00138831 
-0.042786 -0.00359954 0.0013247 -0.0408474 -0.00214648 0.00166908 0.00664535 -0.00164817 0.00168821 
-0.000610522 -0.00103491 0.00207637 0.00127443 -0.000618905 0.00197887 -0.0332593 0.000859011 0.00169899 
-0.0131355 0.00164571 0.00158885 -0.00229178 0.0020129 0.00254815 -0.0137512 0.00384646 0.00157485 
-0.027449 0.00511055 0.00234 0.00314898 0.00491531 0.00169799 0.0323225 0.00436429 0.00251785 
-0.0403489 0.00598291 0.00254199 -0.037077 0.00611456 0.001298 -0.01547 0.00642247 0.00226068 
0.0101693 0.00555192 0.00171062 0.00533928 0.00728904 0.00156013 0.0110904 0.00657535 0.00234947 
0.0142017 0.0079404 0.00218249 0.0202046 0.00840095 0.00220824 0.0324887 0.00836074 0.0025972 
-0.0365733 0.0119208 0.00140983 0.00243185 0.0120975 0.00181114 0.0128044 0.0127337 0.00213414 
0.014866 0.0127598 0.00247557 -0.0429188 0.0135204 0.00153194 0.00789931 0.0136568 0.00239808 
0.012949 0.0143048 0.00247592 0.0336082 0.013194 0.00235239 -0.0287818 0.014969 0.0024884 
-0.0196462 0.0155185 0.00249323 0.0121458 0.0151918 0.00137305 -0.0286532 0.0159811 0.00233959 
-0.0161548 0.0159009 0.00168247 -0.00317984 0.0164631 0.00223588 0.0226738 0.0181095 0.00213804 
-0.0436896 0.0195853 0.00170127 -0.0363159 0.0185996 0.00229225 0.00757299 0.0192258 0.00231658 
0.0122157 0.0191756 0.00209617 0.0388885 0.0193682 0.00214472 -0.0431379 0.0208085 0.00200502 
-0.0349287 0.0230684 0.00143884 -0.0295899 0.0232577 0.00246993 0.0146363 0.0223077 0.00216976 
-0.0138035 0.0240512 0.00176352 0.0181332 0.0246356 0.0017053 0.0258603 0.0235991 0.0021599 
-0.0132251 0.0252506 0.00171184 -0.0102477 0.0267602 0.00210729 -0.0406313 0.0295913 0.00175558 
-0.0213481 0.0319153 0.00131888 -0.00435696 0.0325462 0.00238345 0.01325 0.0319187 0.00138504 
0.0372507 0.0318783 0.00238864 0.0152528 0.033152 0.00174722 -0.00750544 0.0361316 0.00203877 
-0.00196307 0.0366495 0.00140369 -0.039126 0.0399637 0.00230462 -0.0375088 0.0393741 0.0014331 
-0.00785852 0.041878 0.00142574 0.00805094 0.0422278 0.00165784 0.0170579 0.0421878 0.00252343 
0.0430506 0.0422314 0.00139302 -0.0181988 0.0434549 0.00209634 0.0114086 0.0440135 0.00224189 
0.0352379 0.0438995 0.00249475 0.0399235 0.0434757 0.00195503 0.0171919 0.0449185 0.0019991 
0.0211706 0.0445491 0.00208746 -0.00396528 -0.0444182 0.00365677 0.0195053 -0.043722 0.0033337 
-0.0389435 -0.0425966 0.00289753 0.0131812 -0.0427533 0.00281006 0.0201641 -0.0426709 0.00327795 
0.0406519 -0.0427256 0.00320483 -0.0136468 -0.0412372 0.00356412 0.0166138 -0.0412108 0.00380234 
0.0238162 -0.0409762 0.00294989 0.0338942 -0.0410147 0.00273405 0.0339316 -0.041715 0.00286167 
0.0424299 -0.0409921 0.00287594 0.00849583 -0.0405939 0.00273717 -0.0195638 -0.0385913 0.00287163 
0.0325128 -0.03812 0.00309925 -0.0370475 -0.0370945 0.00272915 0.00985621 -0.0367022 0.00374888 
-0.0309963 -0.0355024 0.00305757 -0.00161929 -0.0353994 0.00334616 0.0355384 -0.0354155 0.00335067 
-8.23525e-05 -0.034098 0.00278268 0.0077947 -0.0345433 0.00282816 0.0403097 -0.0347888 0.00332997 
-0.0177803 -0.0340186 0.00349325 -0.0161578 -0.0337243 0.00314479 0.00264867 -0.0338128 0.00271296 
0.027474 -0.0338615 0.00288173 -0.0233761 -0.031813 0.00367455 -0.0396817 -0.0304797 0.0034071 
-0.0386911 -0.0311434 0.00260548 -0.0220587 -0.0306349 0.00370664 -0.00682403 -0.0314098 0.00306029 
-0.0414327 -0.0290659 0.00368503 -0.0263426 -0.0292431 0.00343884 0.023019 -0.0293484 0.00348114 
-0.0401314 -0.0280847 0.00339637 -0.0346801 -0.0287009 0.00284183 -0.0240024 -0.0280603 0.00352895 
0.0153133 -0.0285941 0.00348488 0.03382 -0.0268981 0.00298675 0.0350196 -0.0250011 0.00310747 
0.0347572 -0.0260666 0.00313117 -0.00863888 -0.0237376 0.00309914 0.00179778 -0.0247441 0.00300659 
0.00558373 -0.0242787 0.00371782 0.00538025 -0.0241403 0.00264393 -0.0350278 -0.0224863 0.00278098 
-0.0139777 -0.0223984 0.00327375 -0.0127621 -0.0231756 0.00305614 0.0240101 -0.0228809 0.00306171 
0.035159 -0.023363 0.00365338 -0.0164034 -0.0216001 0.00344339 0.0394323 -0.021923 0.00380197 
-0.0210835 -0.0209207 0.00359219 -0.0033641 -0.0204173 0.00358178 0.00548761 -0.0197918 0.00342982 
-0.0207996 -0.0190456 0.00273281 0.0204492 -0.0194639 0.00299996 -0.0328213 -0.0176588 0.00303992 
-0.0147645 -0.0165889 0.00328758 0.0252581 -0.0163235 0.00318228 0.038292 -0.016257 0.00298533 
-0.0408642 -0.0154151 0.00331723 0.0132043 -0.01541 0.00327535 0.0323803 -0.0150629 0.00372199 
-0.0313057 -0.0141988 0.00276962 -0.0279963 -0.0141356 0.00335455 -0.0186412 -0.0134353 0.00296226 
0.0144468 -0.013247 0.00353059 -0.0327621 -0.0121928 0.00373367 -0.0269092 -0.0125643 0.00348107 
-0.00528066 -0.0121118 0.00360774 0.0253763 -0.011051 0.00281458 -0.0136128 -0.00979682 0.00267336 
0.0334462 -0.00930086 0.00365915 0.0406218 -0.0100941 0.00333477 -0.042331 -0.00792816 0.00274896 
-0.0343844 -0.0078404 0.00266198 -0.0344646 -0.00725539 0.00288767 -0.0211095 -0.00770044 0.00281177 
-0.0135858 -0.00672635 0.00314489 0.0129906 -0.00677597 0.00266774 0.0161928 -0.00760918 0.00286081 
0.00523139 -0.00599236 0.00332686 -0.0253129 -0.0039775 0.00346451 0.0180458 -0.00470109 0.00378594 
0.0200271 -0.00425623 0.00360767 -0.0107529 -0.00365687 0.00390305 -0.00941413 -0.00330341 0.00364583 
0.00975646 -0.00313231 0.00288386 0.0293019 -0.00298432 0.00274989 -0.0395569 -0.00227866 0.00325412 
-0.0198668 -0.00211416 0.00306752 -0.00896956 -0.00131708 0.00277119 0.0168839 -0.00210364 0.00303141 
-0.0376932 -0.000132947 0.0026366 -0.0283489 -0.000417126 0.00368288 -0.0153419 -0.00108619 0.00376735 
0.0140084 -6.89735e-05 0.00364547 0.0420414 -0.00101026 0.0026426 -0.0416237 0.00110806 0.00276545 
0.0407777 0.000744206 0.00338592 0.0116524 0.00206193 0.00372469 0.0189244 0.00254502 0.00289896 
0.0362421 0.00170773 0.00295348 -0.0261639 0.00337815 0.00305128 -0.0233311 0.00384073 0.0029425 
0.00243665 0.00282786 0.00369292 0.00265626 0.00371614 0.00320164 0.0183943 0.00266245 0.00356223 
0.0260144 0.00429017 0.00300532 -0.0406381 0.00555966 0.00301581 -0.00723413 0.00605583 0.00272379 
0.0250346 0.00641518 0.00346378 0.0332757 0.00539899 0.00323917 0.0358407 0.00533501 0.00316642 
-0.0429246 0.00657681 0.00372056 -0.009285 0.00693532 0.00318751 -0.00598638 0.00689803 0.00275983 
-0.0442311 0.00821601 0.00270624 -0.019893 0.00878872 0.0027974 -0.0105861 0.00898083 0.00365727 
-0.0408306 0.00999374 0.00265744 -0.0349081 0.00917553 0.00330076 0.00474506 0.0103043 0.00285536 
0.00978397 0.00922321 0.00262816 0.0234497 0.00978487 0.00319407 0.027557 0.009967 0.00288347 
-0.00808524 0.0113378 0.00302506 -0.00071691 0.0108932 0.00331404 -0.0350204 0.0121089 0.00260584 
-0.00831541 0.0129665 0.00283904 0.0261916 0.0119357 0.00293612 -0.00841171 0.0143034 0.00382503 
-0.00867948 0.0139924 0.00347336 0.0114764 0.0140289 0.00271695 0.0311878 0.014057 0.00292557 
0.0396593 0.013993 0.00368325 0.0441199 0.0136981 0.00269519 -0.0231109 0.0157017 0.00349853 
0.0440772 0.0154938 0.00301022 -0.0408838 0.0159645 0.0032033 -0.00443291 0.0160613 0.00316121 
-0.0193355 0.018129 0.00265551 0.00546842 0.0177814 0.00261271 0.0256029 0.0175394 0.00301282 
0.00742845 0.0199749 0.00324242 0.00976854 0.0197772 0.00285791 0.0350116 0.0207306 0.00279913 
-0.0287332 0.0215601 0.00351995 -0.0122989 0.0222019 0.00361484 0.0362273 0.0220011 0.00308187 
0.0398418 0.0217469 0.00291252 -0.0421793 0.0225172 0.00305448 -0.0324762 0.0230005 0.00333762 
-0.0148746 0.0223253 0.00367484 0.00126512 0.0228658 0.00371131 -0.0436572 0.0238848 0.00271277 
-0.00782209 0.0241861 0.00262033 0.00264144 0.0247174 0.00348579 0.021223 0.0244832 0.00334069 
0.0438582 0.0244724 0.00309932 0.000162142 0.0251126 0.00368751 -0.0190887 0.0269029 0.00338128 
-0.0128609 0.0265935 0.00317824 -0.0114472 0.026715 0.00295309 -0.0214233 0.0285543 0.00260997 
0.00834461 0.0278725 0.00281772 0.0397191 0.0283771 0.00320762 -0.0376379 0.0294143 0.00324691 
-0.0152062 0.0294088 0.00258404 0.0434247 0.0295768 0.00287709 -0.032208 0.0306075 0.00382856 
-0.0219587 0.0304934 0.00270615 0.0040127 0.0314243 0.00288178 0.00519606 0.0301696 0.00263719 
0.0191028 0.0315895 0.00320739 0.0193546 0.0324404 0.00374945 0.0337272 0.0324898 0.00267302 
0.0380057 0.0324307 0.00304 -0.0425374 0.0333781 0.00306622 0.00727395 0.0332762 0.00313308 
0.0214431 0.0335886 0.00272099 -0.00472634 0.0344449 0.00336849 0.00317215 0.0343196 0.00268792 
0.0164577 0.0353116 0.0033166 0.0278529 0.0342296 0.00342446 -0.0407273 0.0358476 0.00344703 
0.00888594 0.0360502 0.0032013 0.00367032 0.0371324 0.00312308 0.0030545 0.0369981 0.00309823 
0.0311732 0.0371467 0.00317333 -0.00883869 0.0381834 0.00260905 -0.00647711 0.0391566 0.00272862 
-0.00585061 0.0388609 0.00368419 0.0281745 0.039089 0.00275657 0.00201585 0.0404036 0.00333005 
0.00528787 0.0432844 0.00365465 0.0352701 0.0439749 0.00282393 -0.0390775 0.0447256 0.00333771 
0.0147823 -0.0446949 0.00433715 0.0268369 -0.0315202 0.00449969 -0.0240719 -0.0268296 0.00441496 
0.0102479 -0.024092 0.00404032 0.0262592 -0.0217201 0.00469356 -0.038829 -0.00978443 0.00456295 
0.0352883 -0.0103067 0.00388313 -0.0214415 -0.007536 0.00487598 0.0386193 -0.00496685 0.00427195 
0.039455 -0.000236508 0.00459513 -0.0408092 0.00981999 0.00504891 0.00976298 0.0163696 0.00445949 
-0.0122189 0.0175978 0.00406412 0.0341086 -0.0368686 0.0052184 -0.0183202 -0.0175475 0.00541464 
0.0323804 -0.0132471 0.00647299 0.0320014 0.00756294 0.00638024 0.00153271 0.0201988 0.00597113 
-0.014478 0.0275162 0.005347 0.0354139 0.0312817 0.00617954 -0.0422696 0.0340949 0.00565268 
0.0272875 -0.0186725 0.00729831 0.0342493 -0.0115037 0.00671074 -0.00474481 -0.00600267 0.00739074 
0.0277548 0.0042931 0.00667559 0.023953 0.00820576 0.00703472 0.012585 0.0155082 0.00735568 
-0.0368667 0.0306348 0.00739784 -0.0260391 0.0304395 0.00726794 0.0412685 -0.0295104 0.00793825 
0.0218308 -0.0192565 0.00795654 0.0223025 -0.0112244 0.0081255 0.0127657 -0.00746761 0.00867975 
-0.0269229 0.0267788 0.00849539 -0.0225361 -0.0441701 0.0096428 -0.0419519 -0.0259749 0.00918162 
-0.0393221 -0.0167834 0.010244 -0.0207563 -0.0111167 0.0100499 -0.0449336 -0.00957357 0.0102116 
0.0153641 0.0146287 0.00928552 0.00513794 0.0433856 0.0102626 -0.0326334 -0.00963456 0.0105162 
-0.0197415 0.0344175 0.0116137 0.00308146 0.0401468 0.0109372 0.0419483 -0.0348097 0.0128249 
-0.0336946 -0.0248459 0.0129361 -0.0328109 -0.0226975 0.01291 -0.0329608 -0.0218045 0.0121288 
-0.024842 -0.00884532 0.012417 -0.0371624 0.011326 0.0122899 -0.0245993 0.0193658 0.0118334 
0.0323341 0.0191974 0.0125736 0.0104707 0.0313218 0.0128132 0.0439232 0.0371117 0.012925 
-0.0440308 0.0448256 0.0127403 0.0185094 -0.042363 0.0130125 -0.015788 -0.0282898 0.0138673 
0.0414834 -0.0181367 0.0133723 0.0302919 -0.0148257 0.0131038 0.0379188 0.0120326 0.01389 
-0.0281804 0.0418824 0.0132963 -0.0155539 0.0359545 0.0146251 -0.0385899 -0.0405251 0.0167086 
-0.0420316 -0.0145538 0.01566 0.0414788 -0.00521487 0.0168904 0.00347554 0.00338662 0.0166916 
-0.0437633 0.0406561 0.015926 -0.00521279 -0.0413279 0.0176578 -0.0386256 -0.00983966 0.0169548 
-0.0356048 -0.000104637 0.0178711 -0.0144089 0.0201081 0.0178853 -0.0296003 0.0277025 0.0175447 
0.0433204 -0.0141837 0.0184972 0.0154702 -0.00154679 0.0186345 0.0133448 0.00646544 0.0194484 
-0.0081225 0.0151775 0.0184528 -0.0256005 0.0215871 0.0187323 0.0289145 -0.0340196 0.0202012 
0.0188903 -0.0308528 0.0202499 -0.0207679 -0.0256315 0.0205551 0.00357123 -0.00830953 0.020166 
0.0282359 -0.00877456 0.0198887 -0.00757157 0.00454821 0.0196734 0.0131273 0.040817 0.0204599 
-0.00254916 -0.00379952 0.0212025 0.00643655 -0.000956063 0.021177 0.00635633 0.000852437 0.0210952 
0.00741479 -0.0295782 0.0242783 0.0242571 -0.0100823 0.0240059 -0.0170112 0.0231088 0.0252861 

VERTICES 649 648
OFFSETS vtktypeint64
0 1 2 3 4 5 6 7 8 
9 10 11 12 13 14 15 16 17 
18 19 20 21 22 23 24 25 26 
27 28 29 30 31 32 33 34 35 
36 37 38 39 40 41 42 43 44 
45 46 47 48 49 50 51 52 53 
54 55 56 57 58 59 60 61 62 
63 64 65 66 67 68 69 70 71 
72 73 74 75 76 77 78 79 80 
81 82 83 84 85 86 87 88 89 
90 91 92 93 94 95 96 97 98 
99 100 101 102 103 104 105 106 107 
108 109 110 111 112 113 114 115 116 
117 118 119 120 121 122 123 124 125 
126 127 128 129 130 131 132 133 134 
135 136 137 138 139 140 141 142 143 
144 145 146 147 148 149 150 151 152 
153 154 155 156 157 158 159 160 161 
162 163 164 165 166 167 168 169 170 
171 172 173 174 175 176 177 178 179 
180 181 182 183 184 185 186 187 188 
189 190 191 192 193 194 195 196 197 
198 199 200 201 202 203 204 205 206 
207 208 209 210 211 212 213 214 215 
216 217 218 219 220 221 222 223 224 
225 226 227 228 229 230 231 232 233 
234 235 236 237 238 239 240 241 242 
243 244 245 246 247 248 249 250 251 
252 253 254 255 256 257 258 259 260 
261 262 263 264 265 266 267 268 269 
270 271 272 273 274 275 276 277 278 
279 280 281 282 283 284 285 286 287 
288 289 290 291 292 293 294 295 296 
297 298 299 300 301 302 303 304 305 
306 307 308 309 310 311 312 313 314 
315 316 317 318 319 320 321 322 323 
324 325 326 327 328 329 330 331 332 
333 334 335 336 337 338 339 340 341 
342 343 344 345 346 347 348 349 350 
351 352 353 354 355 356 357 358 359 
360 361 362 363 364 365 366 367 368 
369 370 371 372 373 374 375 376 377 
378 379 380 381 382 383 384 385 386 
387 388 389 390 391 392 393 394 395 
396 397 398 399 400 401 402 403 404 
405 406 407 408 409 410 411 412 413 
414 415 416 417 418 419 420 421 422 
423 424 425 426 427 428 429 430 431 
432 433 434 435 436 437 438 439 440 
441 442 443 444 445 446 447 448 449 
450 451 452 453 454 455 456 457 458 
459 460 461 462 463 464 465 466 467 
468 469 470 471 472 473 474 475 476 
477 478 479 480 481 482 483 484 485 
486 487 488 489 490 491 492 493 494 
495 496 497 498 499 500 501 502 503 
504 505 506 507 508 509 510 511 512 
513 514 515 516 517 518 519 520 521 
522 523 524 525 526 527 528 529 530 
531 532 533 534 535 536 537 538 539 
540 541 542 543 544 545 546 547 548 
549 550 551 552 553 554 555 556 557 
558 559 560 561 562 563 564 565 566 
567 568 569 570 571 572 573 574 575 
576 577 578 579 580 581 582 583 584 
585 586 587 588 589 590 591 592 593 
594 595 596 597 598 599 600 601 602 
603 604 605 606 607 608 609 610 611 
612 613 614 615 616 617 618 619 620 
621 622 623 624 625 626 627 628 629 
630 631 632 633 634 635 636 637 638 
639 640 641 642 643 644 645 646 647 
648 
CONNECTIVITY vtktypeint64
0 1 2 3 4 5 6 7 8 
9 10 11 12 13 14 15 16 17 
18 19 20 21 22 23 24 25 26 
27 28 29 30 31 32 33 34 35 
36 37 38 39 40 41 42 43 44 
45 46 47 48 49 50 51 52 53 
54 55 56 57 58 59 60 61 62 
63 64 65 66 67 68 69 70 71 
72 73 74 75 76 77 78 79 80 
81 82 83 84 85 86 87 88 89 
90 91 92 93 94 95 96 97 98 
99 100 101 102 103 104 105 106 107 
108 109 110 111 112 113 114 115 116 
117 118 119 120 121 122 123 124 125 
126 127 128 129 130 131 132 133 134 
135 136 137 138 139 140 141 142 143 
144 145 146 147 148 149 150 151 152 
153 154 155 156 157 158 159 160 161 
162 163 164 165 166 167 168 169 170 
171 172 173 174 175 176 177 178 179 
180 181 182 183 184 185 186 187 188 
189 190 191 192 193 194 195 196 197 
198 199 200 201 202 203 204 205 206 
207 208 209 210 211 212 213 214 215 
216 217 218 219 220 221 222 223 224 
225 226 227 228 229 230 231 232 233 
234 235 236 237 238 239 240 241 242 
243 244 245 246 247 248 249 250 251 
252 253 254 255 256 257 258 259 260 
261 262 263 264 265 266 267 268 269 
270 271 272 273 274 275 276 277 278 
279 280 281 282 283 284 285 286 287 
288 289 290 291 292 293 294 295 296 
297 298 299 300 301 302 303 304 305 
306 307 308 309 310 311 312 313 314 
315 316 317 318 319 320 321 322 323 
324 325 326 327 328 329 330 331 332 
333 334 335 336 337 338 339 340 341 
342 343 344 345 346 347 348 349 350 
351 352 353 354 355 356 357 358 359 
360 361 362 363 364 365 366 367 368 
369 370 371 372 373 374 375 376 377 
378 379 380 381 382 383 384 385 386 
387 388 389 390 391 392 393 394 395 
396 397 398 399 400 401 402 403 404 
405 406 407 408 409 410 411 412 413 
414 415 416 417 418 419 420 421 422 
423 424 425 426 427 428 429 430 431 
432 433 434 435 436 437 438 439 440 
441 442 443 444 445 446 447 448 449 
450 451 452 453 454 455 456 457 458 
459 460 461 462 463 464 465 466 467 
468 469 470 471 472 473 474 475 476 
477 478 479 480 481 482 483 484 485 
486 487 488 489 490 491 492 493 494 
495 496 497 498 499 500 501 502 503 
504 505 506 507 508 509 510 511 512 
513 514 515 516 517 518 519 520 521 
522 523 524 525 526 527 528 529 530 
531 532 533 534 535 536 537 538 539 
540 541 542 543 544 545 546 547 548 
549 550 551 552 553 554 555 556 557 
558 559 560 561 562 563 564 565 566 
567 568 569 570 571 572 573 574 575 
576 577 578 579 580 581 582 583 584 
585 586 587 588 589 590 591 592 593 
594 595 596 597 598 599 600 601 602 
603 604 605 606 607 608 609 610 611 
612 613 614 615 616 617 618 619 620 
621 622 623 624 625 626 627 628 629 
630 631 632 633 634 635 636 637 638 
639 640 641 642 643 644 645 646 647 

POINT_DATA 648
FIELD FieldData 12
id 1 648 int
164 98 463 366 200 346 140 218 457 
207 134 256 35 508 173 34 92 459 
115 356 226 67 24 88 51 347 303 
404 543 304 185 107 352 137 294 331 
527 128 291 532 121 190 267 282 37 
64 167 472 317 174 470 154 238 439 
247 289 355 496 176 444 381 168 215 
349 106 292 638 227 248 231 428 127 
427 157 293 324 260 72 336 383 243 
299 370 515 125 57 385 257 542 132 
66 341 83 465 36 175 90 186 538 
334 86 56 418 458 141 407 478 545 
456 396 467 353 454 450 423 129 165 
261 197 288 255 214 420 601 464 432 
373 60 401 297 169 322 150 491 310 
202 469 193 40 433 339 392 110 417 
364 117 521 149 166 49 337 18 219 
109 189 100 162 195 163 408 280 199 
461 410 504 321 506 488 187 343 201 
158 268 26 327 253 148 494 348 270 
85 391 251 233 437 362 320 246 328 
249 318 155 435 386 361 412 62 372 
108 406 272 172 614 275 242 534 188 
84 31 113 390 562 591 549 87 99 
314 326 312 122 22 82 436 492 402 
518 367 319 47 605 229 571 477 307 
570 505 283 139 533 120 445 409 645 
415 604 71 234 192 449 576 547 237 
479 440 44 298 551 517 572 73 422 
374 240 290 194 58 500 612 490 441 
211 380 566 259 23 101 483 399 522 
39 6 42 615 368 224 567 11 50 
263 360 135 564 365 389 499 565 300 
284 593 216 501 495 245 546 426 528 
424 112 145 345 273 378 21 384 46 
41 236 48 178 308 228 468 473 54 
152 485 443 447 161 357 330 254 104 
97 12 507 131 535 524 583 222 29 
94 579 452 232 523 76 277 91 434 
19 375 302 475 351 55 438 89 93 
258 414 203 471 68 52 429 577 597 
271 136 210 359 411 102 487 159 344 
388 489 69 350 156 616 589 239 525 
333 250 398 393 295 103 502 354 96 
147 183 335 430 493 116 79 484 526 
513 416 323 329 160 111 403 25 28 
177 448 274 462 553 170 143 376 74 
306 276 59 460 146 8 43 340 264 
38 311 95 563 53 511 32 580 278 
377 285 252 105 171 142 20 592 382 
405 151 371 204 205 217 265 80 75 
196 208 77 61 519 212 244 598 305 
379 503 486 474 126 153 301 425 213 
316 124 144 453 400 338 497 296 480 
442 221 181 262 446 17 119 633 395 
363 63 70 358 315 220 184 587 118 
281 514 33 138 431 529 279 287 130 
325 394 191 14 520 78 206 9 498 
266 30 209 509 179 451 540 114 596 
419 332 81 481 65 180 466 455 225 
235 387 313 552 421 309 286 482 182 
198 559 413 45 536 123 342 397 476 
241 5 13 223 573 16 3 10 133 
2 4 15 7 626 539 530 556 561 
369 623 550 516 628 557 613 510 560 
594 269 548 558 599 27 637 230 574 
618 585 554 622 586 617 600 643 584 
581 541 578 569 595 582 607 611 531 
639 635 629 603 537 620 555 624 648 
590 647 641 575 632 544 568 625 609 
644 610 512 619 646 634 636 627 608 
602 631 606 642 621 630 640 1 588 

type 1 648 int
1 1 1 1 1 1 1 1 1 
1 1 1 1 1 1 1 1 1 
1 1 1 1 1 1 1 1 1 
1 1 1 1 1 1 1 1 1 
1 1 1 1 1 1 1 1 1 
1 1 1 1 1 1 1 1 1 
1 1 1 1 1 1 1 1 1 
1 1 1 1 1 1 1 1 1 
1 1 1 1 1 1 1 1 1 
1 1 1 1 1 1 1 1 1 
1 1 1 1 1 1 1 1 1 
1 1 1 1 1 1 1 1 1 
1 1 1 1 1 1 1 1 1 
1 1 1 1 1 1 1 1 1 
1 1 1 1 1 1 1 1 1 
1 1 1 1 1 1 1 1 1 
1 1 1 1 1 1 1 1 1 
1 1 1 1 1 1 1 1 1 
1 1 1 1 1 1 1 1 1 
1 1 1 1 1 1 1 1 1 
1 1 1 1 1 1 1 1 1 
1 1 1 1 1 1 1 1 1 
1 1 1 1 1 1 1 1 1 
1 1 1 1 1 1 1 1 1 
1 1 1 1 1 1 1 1 1 
1 1 1 1 1 1 1 1 1 
1 1 1 1 1 1 1 1 1 
1 1 1 1 1 1 1 1 1 
1 1 1 1 1 1 1 1 1 
1 1 1 1 1 1 1 1 1 
1 1 1 1 1 1 1 1 1 
1 2 1 1 1 1 1 2 1 
1 1 1 1 1 1 1 1 1 
1 1 1 1 1 1 1 1 1 
1 1 1 1 1 1 1 1 1 
1 1 1 1 1 1 1 1 1 
1 1 1 1 1 1 1 1 1 
1 2 1 1 1 1 1 1 1 
1 1 1 1 1 1 1 1 1 
1 1 1 1 1 1 1 1 1 
1 1 1 1 1 1 1 1 1 
1 1 1 1 1 1 1 1 1 
1 1 1 1 1 1 1 1 1 
1 1 1 1 1 1 1 1 1 
1 1 1 1 1 1 1 1 1 
1 1 1 1 1 1 1 1 1 
1 1 1 1 1 1 1 1 1 
1 1 1 1 1 2 1 1 1 
1 1 1 1 1 1 1 1 1 
1 1 1 1 1 1 1 1 1 
1 1 1 1 1 1 1 1 1 
1 1 1 1 1 1 1 1 1 
1 1 1 1 1 1 1 1 1 
1 1 1 1 1 1 1 1 1 
1 1 1 1 1 1 1 1 1 
1 1 1 1 1 1 1 1 1 
1 1 1 1 1 1 1 1 1 
1 1 1 2 1 1 1 2 1 
1 1 1 1 1 1 1 1 1 
1 1 1 1 1 1 1 1 1 
1 1 1 1 1 1 1 1 1 
1 1 1 1 1 1 1 1 1 
1 2 2 1 1 2 2 2 1 
3 2 2 2 1 1 1 1 1 
1 1 1 2 1 1 1 1 1 
1 1 1 1 1 1 1 1 1 
1 1 1 1 1 1 1 1 1 
1 1 1 1 1 1 1 1 1 
1 1 1 1 1 1 1 1 1 
1 1 1 1 1 1 1 1 1 
1 1 2 1 1 2 1 1 1 
1 1 1 1 1 1 1 4 1 

i 3 648 int
0 0 0 0 0 0 0 0 0 
0 0 0 0 0 0 0 0 0 
0 0 0 0 0 0 0 0 0 
0 0 0 0 0 0 0 0 0 
0 0 0 0 0 0 0 0 0 
0 0 0 0 0 0 0 0 0 
0 0 0 0 0 0 0 0 0 
0 0 0 0 0 0 0 0 0 
0 0 0 0 0 0 0 0 0 
0 0 0 0 0 0 0 0 0 
0 0 0 0 0 0 0 0 0 
0 0 0 0 0 0 0 0 0 
0 0 0 0 0 0 0 0 0 
0 0 0 0 0 0 0 0 0 
0 0 0 0 0 0 0 0 0 
0 0 0 0 0 0 0 0 0 
0 0 0 0 0 0 0 0 0 
0 0 0 0 0 0 0 0 0 
0 0 0 0 0 0 0 0 0 
0 0 0 0 0 0 0 0 0 
0 0 0 0 0 0 0 0 0 
0 0 0 0 0 0 0 0 0 
0 0 0 0 0 0 0 0 0 
0 0 0 0 0 0 0 0 0 
0 0 0 0 0 0 0 0 0 
0 0 0 0 0 0 0 0 0 
0 0 0 0 0 0 0 0 0 
0 0 0 0 0 0 0 0 0 
0 0 0 0 0 0 0 0 0 
0 0 0 0 0 0 0 0 0 
0 0 0 0 0 0 0 0 0 
0 0 0 0 0 0 0 0 0 
0 0 0 0 0 0 0 0 0 
0 0 0 0 0 0 0 0 0 
0 0 0 0 0 0 0 0 0 
0 0 0 0 0 0 0 0 0 
0 0 0 0 0 0 0 0 0 
0 0 0 0 0 0 0 0 0 
0 0 0 0 0 0 0 0 0 
0 0 0 0 0 0 0 0 0 
0 0 0 0 0 0 0 0 0 
0 0 0 0 0 0 0 0 0 
0 0 0 0 0 0 0 0 0 
0 0 0 0 0 0 0 0 0 
0 0 0 0 0 0 0 0 0 
0 0 0 0 0 0 0 0 0 
0 0 0 0 0 0 0 0 0 
0 0 0 0 0 0 0 0 0 
0 0 0 0 0 0 0 0 0 
0 0 0 0 0 0 0 0 0 
0 0 0 0 0 0 0 0 0 
0 0 0 0 0 0 0 0 0 
0 0 0 0 0 0 0 0 0 
0 0 0 0 0 0 0 0 0 
0 0 0 0 0 0 0 0 0 
0 0 0 0 0 0 0 0 0 
0 0 0 0 0 0 0 0 0 
0 0 0 0 0 0 0 0 0 
0 0 0 0 0 0 0 0 0 
0 0 0 0 0 0 0 0 0 
0 0 0 0 0 0 0 0 0 
0 0 0 0 0 0 0 0 0 
0 0 0 0 0 0 0 0 0 
0 0 0 0 0 0 0 0 0 
0 0 0 0 0 0 0 0 0 
0 0 0 0 0 0 0 0 0 
0 0 0 0 0 0 0 0 0 
0 0 0 0 0 0 0 0 0 
0 0 0 0 0 0 0 0 0 
0 0 0 0 0 0 0 0 0 
0 0 0 0 0 0 0 0 0 
0 0 0 0 0 0 0 0 0 
0 0 0 0 0 0 0 0 0 
0 0 0 0 0 0 0 0 0 
0 0 0 0 0 0 0 0 0 
0 0 0 0 0 0 0 0 0 
0 0 0 0 0 0 0 0 0 
0 0 0 0 0 0 0 0 0 
0 0 0 0 0 0 0 0 0 
0 0 0 0 0 0 0 0 0 
0 0 0 0 0 0 0 0 0 
0 0 0 0 0 0 0 0 0 
0 0 0 0 0 0 0 0 0 
0 0 0 0 0 0 0 0 0 
0 0 0 0 0 0 0 0 0 
0 0 0 0 0 0 0 0 0 
0 0 0 0 0 0 0 0 0 
0 0 0 0 0 0 0 0 0 
0 0 0 0 0 0 0 0 0 
0 0 0 0 0 0 0 0 0 
0 0 0 0 0 0 0 0 0 
0 0 0 0 0 0 0 0 0 
0 0 0 0 0 0 0 0 0 
0 0 0 0 0 0 0 0 0 
0 0 0 0 0 0 0 0 0 
0 0 0 0 0 0 0 0 0 
0 0 0 0 0 0 0 0 0 
0 0 0 0 0 0 0 0 0 
0 0 0 0 0 0 0 0 0 
0 0 0 0 0 0 0 0 0 
0 0 0 0 0 0 0 0 0 
0 0 0 0 0 0 0 0 0 
0 0 0 0 0 0 0 0 0 
0 0 0 0 0 0 0 0 0 
0 0 0 0 0 0 0 0 0 
0 0 0 0 0 0 0 0 0 
0 0 0 0 0 0 0 0 0 
0 0 0 0 0 0 0 0 0 
0 0 0 0 0 0 0 0 0 
0 0 0 0 0 0 0 0 0 
0 0 0 0 0 0 0 0 0 
0 0 0 0 0 0 0 0 0 
0 0 0 0 0 0 0 0 0 
0 0 0 0 0 0 0 0 0 
0 0 0 0 0 0 0 0 0 
0 0 0 0 0 0 0 0 0 
0 0 0 0 0 0 0 0 0 
0 0 0 0 0 0 0 0 0 
0 0 0 0 0 0 0 0 0 
0 0 0 0 0 0 0 0 0 
0 0 0 0 0 0 0 0 0 
0 0 0 0 0 0 0 0 0 
0 0 0 0 0 0 0 0 0 
0 0 0 0 0 0 0 0 0 
0 0 0 0 0 0 0 0 0 
0 0 0 0 0 0 0 0 0 
0 0 0 0 0 0 0 0 0 
0 0 0 0 0 0 0 0 0 
0 0 0 0 0 0 0 0 0 
0 0 0 0 0 0 0 0 0 
0 0 0 0 0 0 0 0 0 
0 0 0 0 0 0 0 0 0 
0 0 0 0 0 0 0 0 0 
0 0 0 0 0 0 0 0 0 
0 0 0 0 0 0 0 0 0 
0 0 0 0 0 0 0 0 0 
0 0 0 0 0 0 0 0 0 
0 0 0 0 0 0 0 0 0 
0 0 0 0 0 0 0 0 0 
0 0 0 0 0 0 0 0 0 
0 0 0 0 0 0 0 0 0 
0 0 0 0 0 0 0 0 0 
0 0 0 0 0 0 0 0 0 
0 0 0 0 0 0 0 0 0 
0 0 0 0 0 0 0 0 0 
0 0 0 0 0 0 0 0 0 
0 0 0 0 0 0 0 0 0 
0 0 0 0 0 0 0 0 0 
0 0 0 0 0 0 0 0 0 
0 0 0 0 0 0 0 0 0 
0 0 0 0 0 0 0 0 0 
0 0 0 0 0 0 0 0 0 
0 0 0 0 0 0 0 0 0 
0 0 0 0 0 0 0 0 0 
0 0 0 0 0 0 0 0 0 
0 0 0 0 0 0 0 0 0 
0 0 0 0 0 0 0 0 0 
0 0 0 0 0 0 0 0 0 
0 0 0 0 0 0 0 0 0 
0 0 0 0 0 0 0 0 0 
0 0 0 0 0 0 0 0 0 
0 0 0 0 0 0 0 0 0 
0 0 0 0 0 0 0 0 0 
0 0 0 0 0 0 0 0 0 
0 0 0 0 0 0 0 0 0 
0 0 0 0 0 0 0 0 0 
0 0 0 0 0 0 0 0 0 
0 0 0 0 0 0 0 0 0 
0 0 0 0 0 0 0 0 0 
0 0 0 0 0 0 0 0 0 
0 0 0 0 0 0 0 0 0 
0 0 0 0 0 0 0 0 0 
0 0 0 0 0 0 0 0 0 
0 0 0 0 0 0 0 0 0 
0 0 0 0 0 0 0 0 0 
0 0 0 0 0 0 0 0 0 
0 0 0 0 0 0 0 0 0 
0 0 0 0 0 0 0 0 0 
0 0 0 0 0 0 0 0 0 
0 0 0 0 0 0 0 0 0 
0 0 0 0 0 0 0 0 0 
0 0 0 0 0 0 0 0 0 
0 0 0 0 0 0 0 0 0 
0 0 0 0 0 0 0 0 0 
0 0 0 0 0 0 0 0 0 
0 0 0 0 0 0 0 0 0 
0 0 0 0 0 0 0 0 0 
0 0 0 0 0 0 0 0 0 
0 0 0 0 0 0 0 0 0 
0 0 0 0 0 0 0 0 0 
0 0 0 0 0 0 0 0 0 
0 0 0 0 0 0 0 0 0 
0 0 0 0 0 0 0 0 0 
0 0 0 0 0 0 0 0 0 
0 0 0 0 0 0 0 0 0 
0 0 0 0 0 0 0 0 0 
0 0 0 0 0 0 0 0 0 
0 0 0 0 0 0 0 0 0 
0 0 0 0 0 0 0 0 0 
0 0 0 0 0 0 0 0 0 
0 0 0 0 0 0 0 0 0 
0 0 0 0 0 0 0 0 0 
0 0 0 0 0 0 0 0 0 
0 0 0 0 0 0 0 0 0 
0 0 0 0 0 0 0 0 0 
0 0 0 0 0 0 0 0 0 
0 0 0 0 0 0 0 0 0 
0 0 0 0 0 0 0 0 0 
0 0 0 0 0 0 0 0 0 
0 0 0 0 0 0 0 0 0 
0 0 0 0 0 0 0 0 0 
0 0 0 0 0 0 0 0 0 
0 0 0 0 0 0 0 0 0 
0 0 0 0 0 0 0 0 0 
0 0 0 0 0 0 0 0 0 
0 0 0 0 0 0 0 0 0 

v 3 648 double
0 0 3.2413285931e-14 0 0 -0.076704019946 0 0 3.2413285929e-14 
0 0 -0.020407092055 0 0 3.2413290076e-14 0 0 0.022954928319 
0 0 -0.013386581766 0 0 0.00023897350515 0 0 -0.024573149023 
0 0 -0.0027283322786 0 0 -0.01051610826 0 0 -0.019496339253 
0 0 -0.0093905717279 0 0 3.241328596e-14 0 0 0.094885797645 
0 0 -0.0027369964834 0 0 3.2413286072e-14 0 0 3.2413289944e-14 
0 0 3.2413286006e-14 0 0 -0.00058712763579 0 0 0.015867708245 
0 0 0.083891336013 0 0 -0.0012506547639 0 0 8.0432443439e-14 
0 0 8.0432447536e-14 0 0 3.2413354151e-14 0 0 -0.0057994891635 
0 0 3.2413290061e-14 0 0 0.013786414316 0 0 3.2413289938e-14 
0 0 8.0432447378e-14 0 0 8.0432447469e-14 0 0 0.021118340337 
0 0 8.0432443568e-14 0 0 -0.077697913748 0 0 8.0432443464e-14 
0 0 0.091991114556 0 0 -0.020419734515 0 0 -0.0031196432175 
0 0 0.079729224703 0 0 0.0061705849531 0 0 3.2413289933e-14 
0 0 3.2413285961e-14 0 0 8.0432447432e-14 0 0 -0.25228191023 
0 0 -0.011493431821 0 0 0.0096448863312 0 0 -0.00080411736644 
0 0 8.0432447426e-14 0 0 -0.081513103125 0 0 8.0432443599e-14 
0 0 8.0432443456e-14 0 0 -0.0060734558954 0 0 8.0432443441e-14 
0 0 -0.014224436219 0 0 -4.7543106567e-05 0 0 3.2413286097e-14 
0 0 0.02589145323 0 0 0.00040344309684 0 0 8.0432443553e-14 
0 0 -0.0034936456295 0 0 0.0013564946109 0 0 0.008106948387 
0 0 0.017783494703 0 0 3.2413290023e-14 0 0 8.043244346e-14 
0 0 0.069499276359 0 0 0.0046974196375 0 0 -0.071530935653 
0 0 3.2413289993e-14 0 0 8.0432447411e-14 0 0 0.0099844213513 
0 0 0.0049070960408 0 0 0.0092182392175 0 0 8.0432443474e-14 
0 0 -0.027631423373 0 0 0.027212146057 0 0 8.0432443602e-14 
0 0 -0.029202851407 0 0 3.2413285982e-14 0 0 0.0097989951692 
0 0 0.0080923783686 0 0 8.0432447573e-14 0 0 8.0432443539e-14 
0 0 -0.0038968296737 0 0 8.0432443644e-14 0 0 0.0088073810777 
0 0 0.031680225473 0 0 0.014864032568 0 0 3.2413286008e-14 
0 0 3.2413289914e-14 0 0 0.018337774134 0 0 0.0083100306433 
0 0 -1.560588404e-14 0 0 8.0432443503e-14 0 0 3.24132899e-14 
0 0 0.021279680254 0 0 -0.019625470397 0 0 0.0058286942552 
0 0 -0.0058381729681 0 0 0.0032034909699 0 0 0.0061805742944 
0 0 8.0432443491e-14 0 0 8.0432443537e-14 0 0 0.0069607562729 
0 0 8.0432443498e-14 0 0 3.2413285952e-14 0 0 0.086823988661 
0 0 8.0432443535e-14 0 0 8.0432443665e-14 0 0 8.0432447559e-14 
0 0 -0.0020371668761 0 0 0.027736902097 0 0 8.0432447373e-14 
0 0 0.0097745923846 0 0 -0.0031311938247 0 0 -0.014729065894 
0 0 8.0432443639e-14 0 0 3.2413289894e-14 0 0 3.2413286133e-14 
0 0 3.241328603e-14 0 0 3.2413286034e-14 0 0 0.005886209185 
0 0 0.019605601599 0 0 -0.25512228699 0 0 8.0432443489e-14 
0 0 -0.013185623023 0 0 3.3498958851e-05 0 0 -0.016671405017 
0 0 8.0432443443e-14 0 0 3.2413285951e-14 0 0 6.8040464495e-07 
0 0 8.0432447588e-14 0 0 8.043244739e-14 0 0 8.0432443526e-14 
0 0 -0.001415021435 0 0 -0.079281865816 0 0 -0.0066260983524 
0 0 -0.027389334435 0 0 8.043244366e-14 0 0 8.0432443654e-14 
0 0 0.010851811578 0 0 8.0432443436e-14 0 0 0.02688250189 
0 0 -0.015908552946 0 0 0.022664448983 0 0 3.2413285938e-14 
0 0 -0.0041605840983 0 0 -1.5605883967e-14 0 0 8.043244349e-14 
0 0 0.02920525852 0 0 8.0432447524e-14 0 0 3.2413286037e-14 
0 0 -0.07184511882 0 0 -0.026272360915 0 0 0.013672182988 
0 0 0.009141979098 0 0 3.2413286009e-14 0 0 0.00079176647675 
0 0 0.022911544418 0 0 0.015345739637 0 0 0.019020964233 
0 0 -0.0025289802646 0 0 0.0021790323145 0 0 0.0080734719017 
0 0 0.02416768974 0 0 8.0432447534e-14 0 0 -0.019816401751 
0 0 -0.0028940517822 0 0 0.033559075546 0 0 -0.0028911920608 
0 0 0.0026965615761 0 0 0.026902128256 0 0 -0.0081540866959 
0 0 8.0432447369e-14 0 0 0.007035579649 0 0 -0.024284304891 
0 0 -0.25717858233 0 0 0.019480605537 0 0 8.0432443508e-14 
0 0 3.2413285921e-14 0 0 -0.25606489661 0 0 0.0043945278374 
0 0 -0.017878290216 0 0 0.027258761761 0 0 3.2413289953e-14 
0 0 -0.0029731834786 0 0 8.0432447367e-14 0 0 -0.0021215418529 
0 0 0.097315581429 0 0 0.0085707541534 0 0 0.0053849542062 
0 0 0.0097541310255 0 0 8.04324474e-14 0 0 0.02341130696 
0 0 8.0432443557e-14 0 0 -0.001680586549 0 0 3.241328594e-14 
0 0 0.012509467188 0 0 0.012368401649 0 0 0.0079777821548 
0 0 -0.25546391918 0 0 -0.19271244985 0 0 -0.058708777847 
0 0 0.068813218267 0 0 0.067896986473 0 0 -0.072707024628 
0 0 -0.044169265204 0 0 -0.053854848579 0 0 -0.055627124485 
0 0 -0.059711706662 0 0 -0.051286930112 0 0 0.0040131142402 
0 0 0.036582581097 0 0 -0.006927881897 0 0 -0.030008902213 
0 0 -0.06807750089 0 0 -0.072124943953 0 0 0.058689342115 
0 0 -0.055576438132 0 0 -0.073450525905 0 0 -0.040407364162 
0 0 -0.0275445161 0 0 0.07847739068 0 0 0.075340846711 
0 0 0.052310204771 0 0 -0.0048325418832 0 0 -0.073792016091 
0 0 0.073025545295 0 0 -0.0073843062661 0 0 -0.07446830771 
0 0 -0.049584881538 0 0 -0.036780607206 0 0 0.064788548201 
0 0 0.0013072230365 0 0 -0.063734964456 0 0 0.079738087148 
0 0 -0.028242429603 0 0 0.060332468387 0 0 0.085667764546 
0 0 -0.060179363226 0 0 -0.07042404877 0 0 0.0048720733628 
0 0 -0.065342907915 0 0 0.031255966773 0 0 -0.06714914965 
0 0 0.067740452373 0 0 0.041014329547 0 0 -0.024877646246 
0 0 0.045556156135 0 0 0.080356390622 0 0 -0.011997232297 
0 0 0.0057739823165 0 0 0.007468140736 0 0 0.061980514283 
0 0 -0.068807189682 0 0 0.069895126529 0 0 -0.23324352971 
0 0 -0.01151943985 0 0 -0.0076673474857 0 0 0.06713603359 
0 0 -0.039796612174 0 0 -0.05397110692 0 0 -0.078255329009 
0 0 -0.037828312685 0 0 -0.016598236711 0 0 -0.075678042741 
0 0 -0.042781798535 0 0 0.071965301512 0 0 0.066726975175 
0 0 -0.040741797788 0 0 -0.047161632314 0 0 0.067676825196 
0 0 0.081193949694 0 0 0.047787129516 0 0 0.086057931334 
0 0 0.011513033409 0 0 -0.078704835312 0 0 0.066738774248 
0 0 0.085731945785 0 0 0.014972072171 0 0 -0.058417166992 
0 0 -0.012752147686 0 0 -0.074456990152 0 0 0.090311192507 
0 0 -0.056522650251 0 0 -0.097095122716 0 0 -0.26704882612 
0 0 -0.08213183017 0 0 -0.058530704563 0 0 -0.060788306603 
0 0 0.046333702613 0 0 0.079442660503 0 0 0.072088320391 
0 0 0.089691573803 0 0 0.040539625074 0 0 0.090119823196 
0 0 0.071952966237 0 0 0.046619189589 0 0 -0.037931700482 
0 0 0.046600609671 0 0 -0.073201082359 0 0 0.073021817871 
0 0 -0.044246134785 0 0 -0.058242720112 0 0 0.041097022262 
0 0 -0.065281204669 0 0 -0.064655401468 0 0 0.042159587248 
0 0 -0.073596498226 0 0 -0.06662910127 0 0 -0.04969548548 
0 0 -0.059352692996 0 0 -0.066146059209 0 0 -0.028389788474 
0 0 0.047387582772 0 0 -0.044859730445 0 0 0.06646559349 
0 0 -0.041115493397 0 0 -0.00313437067 0 0 0.069508762978 
0 0 0.075482017793 0 0 0.071945749508 0 0 -0.052574890326 
0 0 0.083916934744 0 0 0.055838326556 0 0 -0.037428053239 
0 0 -0.05188389359 0 0 -0.052509414631 0 0 -0.055995298129 
0 0 -0.068062071673 0 0 -0.029918167521 0 0 -0.060545110635 
0 0 0.085777301896 0 0 -0.091897965167 0 0 -0.053900669607 
0 0 0.070001924452 0 0 -0.20045433477 0 0 0.065378757332 
0 0 0.061288486711 0 0 -0.062492645253 0 0 -0.0092480679321 
0 0 -0.053531525178 0 0 0.064154102983 0 0 0.061119646457 
0 0 -0.064440206377 0 0 0.068857987076 0 0 -0.067559272839 
0 0 -0.2515855279 0 0 -0.07868901987 0 0 0.067166272975 
0 0 -0.25131188572 0 0 -0.05004507191 0 0 -0.039716924902 
0 0 -0.03862046606 0 0 -0.069871311161 0 0 -0.044708714287 
0 0 -0.040964677013 0 0 0.012173787399 0 0 0.012754036268 
0 0 0.058317514018 0 0 -0.022071295169 0 0 0.021087299384 
0 0 0.045801899495 0 0 0.020855258763 0 0 0.0038745845919 
0 0 -0.045200705768 0 0 -0.012411784806 0 0 -0.18566952433 
0 0 -0.02460305054 0 0 0.061554077522 0 0 0.055665101406 
0 0 0.047947099639 0 0 -0.053364795507 0 0 0.0014674353545 
0 0 -0.0060010115592 0 0 -0.0044179700475 0 0 0.023543538511 
0 0 0.05621061403 0 0 -0.039329459465 0 0 -0.0020400827773 
0 0 0.027055954743 0 0 0.0095352405819 0 0 -0.20038501091 
0 0 -0.011420043002 0 0 0.022837339651 0 0 -0.22620165314 
0 0 -0.049002123167 0 0 0.0097816542206 0 0 -0.25217452226 
0 0 0.0059735538484 0 0 -0.021688104753 0 0 0.011257934618 
0 0 -0.0010074201981 0 0 0.026754541419 0 0 -0.024280818327 
0 0 0.026464747288 0 0 -0.042116962497 0 0 0.053005430088 
0 0 0.03495372645 0 0 -0.0015815315087 0 0 0.010111505027 
0 0 0.013237760126 0 0 -0.03840230787 0 0 0.015019784079 
0 0 -0.23038952776 0 0 -0.00072417868274 0 0 0.00059673802682 
0 0 0.00083641171967 0 0 -0.0083017152283 0 0 0.0044451096139 
0 0 0.01710909377 0 0 0.017372129792 0 0 -0.024696513039 
0 0 0.059437973701 0 0 0.057256712877 0 0 -0.02545447966 
0 0 0.0041867402113 0 0 0.027660003575 0 0 -0.015313918028 
0 0 -0.009262163779 0 0 0.041364497115 0 0 0.010052494925 
0 0 0.01224362391 0 0 0.040388238994 0 0 -0.020250726092 
0 0 0.024165362997 0 0 -0.0080724094517 0 0 -0.054835518895 
0 0 0.028473086398 0 0 0.058268951836 0 0 0.022629027281 
0 0 0.011539398905 0 0 -0.028034521785 0 0 0.0038438216184 
0 0 0.022707458629 0 0 -0.015403760085 0 0 0.022754359978 
0 0 -0.039145848541 0 0 0.043834122588 0 0 -0.027399191176 
0 0 -0.029645792241 0 0 0.036635078492 0 0 -7.1303798261e-05 
0 0 0.018423219276 0 0 0.020814611233 0 0 0.0028346215531 
0 0 -0.021822604265 0 0 -0.0083711795945 0 0 0.033242414386 
0 0 0.016335406237 0 0 -0.026528929308 0 0 0.00097354271127 
0 0 -0.046356250409 0 0 0.0057324712227 0 0 0.0167509239 
0 0 0.005535888219 0 0 0.062780419237 0 0 -0.048674475784 
0 0 -0.027386034053 0 0 0.005001384128 0 0 0.055628543828 
0 0 -0.04423659512 0 0 0.045825070287 0 0 0.032674066122 
0 0 -0.0035595203238 0 0 -0.18390006863 0 0 0.024143705134 
0 0 0.01853381797 0 0 -0.023631957374 0 0 -0.050981591964 
0 0 -0.021161671606 0 0 -0.02403292384 0 0 0.045044844574 
0 0 0.030038854533 0 0 0.050359265792 0 0 0.042134632116 
0 0 -0.26120159686 0 0 0.032321665687 0 0 0.01139272955 
0 0 0.042119547534 0 0 0.029272790981 0 0 -0.036193005858 
0 0 -0.01865006377 0 0 0.044071755101 0 0 0.055602743202 
0 0 0.050931448337 0 0 0.037545092756 0 0 -0.025136400096 
0 0 -0.0074249681489 0 0 -0.044141536599 0 0 0.0077217304978 
0 0 -0.020786929027 0 0 -0.17998643449 0 0 -0.01444774899 
0 0 0.0096229313155 0 0 -0.027309384288 0 0 0.030552949678 
0 0 0.013631000546 0 0 0.044829581341 0 0 -0.017070530365 
0 0 0.030607944825 0 0 0.02371183688 0 0 -0.0078431670816 
0 0 0.044426635554 0 0 0.033185375234 0 0 -0.01698138173 
0 0 0.0067600765908 0 0 -0.0061756425691 0 0 -0.029015804598 
0 0 -0.012403013933 0 0 -0.040030690965 0 0 0.039202745285 
0 0 0.012717610005 0 0 0.0041056510233 0 0 0.059392290225 
0 0 -0.074944420698 0 0 0.01264682432 0 0 0.041952601528 
0 0 -0.013995829894 0 0 -0.05202481282 0 0 -0.030759410047 
0 0 0.015439240849 0 0 -0.045327393183 0 0 0.069586573619 
0 0 -0.032301434947 0 0 0.043032451215 0 0 -0.032622299862 
0 0 -0.22659172902 0 0 -0.032212332873 0 0 -0.19877165769 
0 0 0.0018651045186 0 0 0.056402379149 0 0 -0.03168930732 
0 0 0.0096917973522 0 0 0.010257440943 0 0 0.046323456539 
0 0 0.053521992732 0 0 0.016045505421 0 0 0.002590447553 
0 0 0.0078931425946 0 0 0.015760255807 0 0 -0.032503102913 
0 0 -0.18900600558 0 0 0.033452829163 0 0 0.0067391592377 
0 0 0.012415857622 0 0 0.046989632443 0 0 -0.028390114965 
0 0 -0.035643771697 0 0 -0.01220045441 0 0 -0.014621290373 
0 0 -0.00071837674476 0 0 -0.012159434709 0 0 0.016047101426 
0 0 0.012934082256 0 0 -0.022009980369 0 0 0.036022957775 
0 0 -0.24174603492 0 0 -0.018771568557 0 0 -0.034461499182 
0 0 0.00075043652924 0 0 -0.1975362686 0 0 -0.013288454374 
0 0 -0.25940840783 0 0 -0.019487103618 0 0 -0.24296865492 
0 0 0.089238403854 0 0 0.02507346019 0 0 0.055393980126 
0 0 -0.2582158538 0 0 -0.15454084954 0 0 -0.2018416418 
0 0 -0.19921085698 0 0 -0.16713507241 0 0 -0.19348313152 
0 0 -0.2375754545 0 0 -0.18129823433 0 0 -0.20038935586 
0 0 -0.22931109518 0 0 -0.17106819381 0 0 -0.18749589719 
0 0 -0.18100974847 0 0 -0.20771905743 0 0 -0.18335705742 
0 0 -0.1766973551 0 0 -0.23750732405 0 0 -0.18535839925 
0 0 -0.19218441295 0 0 -0.16723745611 0 0 -0.22900914059 
0 0 -0.15613707394 0 0 -0.22562033896 0 0 -0.13980520185 
0 0 -0.15673565465 0 0 -0.16070633683 0 0 -0.16416323499 
0 0 -0.15497137269 0 0 -0.1560771433 0 0 -0.15463911469 
0 0 -0.11253862415 0 0 -0.099638811112 0 0 -0.10205722677 
0 0 -0.1353392446 0 0 -0.14789812742 0 0 -0.14233024816 
0 0 -0.14155426272 0 0 -0.13739857689 0 0 -0.10920226716 
0 0 -0.13114211347 0 0 -0.10953083729 0 0 -0.15580031537 
0 0 -0.1197328406 0 0 -0.11994023526 0 0 -0.10980951384 
0 0 -0.1240808158 0 0 -0.15016571036 0 0 -0.1146791738 
0 0 -0.13985827787 0 0 -0.076518035309 0 0 -0.072278633369 
0 0 -0.11754723678 0 0 -0.072434351834 0 0 -0.042022576023 
0 0 -0.11146597536 0 0 -0.065234665462 0 0 -0.11669366144 
0 0 -0.091147400863 0 0 -0.085366450911 0 0 -0.075459829205 
0 0 -0.048502340952 0 0 -0.086831237945 0 0 -0.15919586008 
0 0 -0.058165580894 0 0 -0.047920378313 0 0 -0.076540760928 
0 0 -0.027150030268 0 0 -0.024867617006 0 0 -0.070256727588 
0 0 -0.055217075658 0 0 -0.040432232003 0 0 -0.059340537472 
0 0 -0.0077984872181 0 0 -0.023399439589 0 0 -0.056688048472 
0 0 0.0043043935458 0 0 -0.20824504578 0 0 -0.042132828675 

f 3 648 double
0 0 0 0 0 -1.7425367252e-10 0 0 0 
0 0 -1.7425367252e-10 0 0 0 0 0 -1.7425367252e-10 
0 0 -1.7425367252e-10 0 0 -1.7425367252e-10 0 0 -1.7425367252e-10 
0 0 -1.7425367252e-10 0 0 -1.7425367252e-10 0 0 -1.7425367252e-10 
0 0 -1.7425367252e-10 0 0 0 0 0 -1.7425367252e-10 
0 0 -1.7425367252e-10 0 0 0 0 0 0 
0 0 0 0 0 -1.7425367252e-10 0 0 -1.7425367252e-10 
0 0 -1.7425367252e-10 0 0 -1.7425367252e-10 0 0 0 
0 0 0 0 0 -4.1359030628e-25 0 0 -1.7425367252e-10 
0 0 0 0 0 -1.7425367252e-10 0 0 0 
0 0 0 0 0 0 0 0 -1.7425367252e-10 
0 0 0 0 0 -1.7425367252e-10 0 0 0 
0 0 -1.7425367252e-10 0 0 -1.7425367252e-10 0 0 -1.7425367252e-10 
0 0 -1.7425367252e-10 0 0 -1.7425367252e-10 0 0 0 
0 0 0 0 0 0 0 0 -1.7425367252e-10 
0 0 -1.7425367252e-10 0 0 -1.7425367252e-10 0 0 -1.7425367252e-10 
0 0 0 0 0 -1.7425367252e-10 0 0 0 
0 0 0 0 0 -1.7425367252e-10 0 0 0 
0 0 -1.7425367252e-10 0 0 -1.7425367252e-10 0 0 0 
0 0 -1.7425367252e-10 0 0 -1.7425367252e-10 0 0 0 
0 0 -1.7425367252e-10 0 0 -1.7425367252e-10 0 0 -1.7425367252e-10 
0 0 -1.7425367252e-10 0 0 0 0 0 0 
0 0 -1.7425367252e-10 0 0 -1.7425367252e-10 0 0 -1.7425367252e-10 
0 0 0 0 0 0 0 0 -1.7425367252e-10 
0 0 -1.7425367252e-10 0 0 -1.7425367252e-10 0 0 0 
0 0 -1.7425367252e-10 0 0 -1.7425367252e-10 0 0 0 
0 0 -1.7425367252e-10 0 0 0 0 0 -1.7425367252e-10 
0 0 -1.7425367252e-10 0 0 0 0 0 0 
0 0 -1.7425367252e-10 0 0 0 0 0 -1.7425367252e-10 
0 0 -1.7425367252e-10 0 0 -1.7425367252e-10 0 0 0 
0 0 0 0 0 -1.7425367252e-10 0 0 -1.7425367252e-10 
0 0 0 0 0 0 0 0 0 
0 0 -1.7425367252e-10 0 0 -1.7425367252e-10 0 0 -1.7425367252e-10 
0 0 -1.7425367252e-10 0 0 -1.7425367252e-10 0 0 -1.7425367252e-10 
0 0 0 0 0 0 0 0 -1.7425367252e-10 
0 0 0 0 0 0 0 0 -1.7425367252e-10 
0 0 0 0 0 0 0 0 0 
0 0 -1.7425367252e-10 0 0 -1.7425367252e-10 0 0 0 
0 0 -1.7425367252e-10 0 0 -1.7425367252e-10 0 0 -1.7425367252e-10 
0 0 0 0 0 0 0 0 0 
0 0 0 0 0 0 0 0 -1.7425367252e-10 
0 0 -1.7425367252e-10 0 0 -1.7425367252e-10 0 0 0 
0 0 -1.7425367252e-10 0 0 -1.7425367252e-10 0 0 -1.7425367252e-10 
0 0 0 0 0 0 0 0 -5.9310234986e-11 
0 0 0 0 0 0 0 0 0 
0 0 -1.7425367252e-10 0 0 -1.7425367252e-10 0 0 -1.7425367252e-10 
0 0 -1.7425367252e-10 0 0 0 0 0 0 
0 0 -1.7425367252e-10 0 0 0 0 0 -1.7425367252e-10 
0 0 -1.7425367252e-10 0 0 -1.7425367252e-10 0 0 0 
0 0 -1.7425367252e-10 0 0 0 0 0 0 
0 0 -1.7425367252e-10 0 0 0 0 0 0 
0 0 -1.7425367252e-10 0 0 -1.7425367252e-10 0 0 -1.7425367252e-10 
0 0 -1.7425367252e-10 0 0 0 0 0 -1.7425367252e-10 
0 0 -1.7425367252e-10 0 0 -1.7425367252e-10 0 0 -1.7425367252e-10 
0 0 -1.7425367252e-10 0 0 -1.7425367252e-10 0 0 -1.7425367252e-10 
0 0 -1.7425367252e-10 0 0 0 0 0 -1.7425367252e-10 
0 0 -1.7425367252e-10 0 0 -1.7425367252e-10 0 0 -1.7425367252e-10 
0 0 -1.7425367252e-10 0 0 -1.7425367252e-10 0 0 -1.7425367252e-10 
0 0 0 0 0 -1.7425367252e-10 0 0 -1.7425367252e-10 
0 0 -1.7425367252e-10 0 0 -1.7425367252e-10 0 0 0 
0 0 0 0 0 -1.7425367252e-10 0 0 -1.7425367252e-10 
0 0 -1.7425367252e-10 0 0 -1.7425367252e-10 0 0 0 
0 0 -1.7425367252e-10 0 0 0 0 0 -1.7425367252e-10 
0 0 -1.7425367252e-10 0 0 -1.7425367252e-10 0 0 -1.7425367252e-10 
0 0 -1.7425367252e-10 0 0 0 0 0 -1.7425367252e-10 
0 0 0 0 0 -1.7425367252e-10 0 0 0 
0 0 -1.7425367252e-10 0 0 -1.7425367252e-10 0 0 -1.7425367252e-10 
0 0 -1.7425367252e-10 0 0 -1.7425367252e-10 0 0 -1.7425367252e-10 
0 0 -1.7425367252e-10 0 0 -1.7425367252e-10 0 0 -1.7425367252e-10 
0 0 -1.7425367252e-10 0 0 -1.7425367252e-10 0 0 -1.7425367252e-10 
0 0 -1.7425367252e-10 0 0 -1.7425367252e-10 0 0 -1.7425367252e-10 
0 0 -1.7425367252e-10 0 0 -1.7425367252e-10 0 0 -1.7425367252e-10 
0 0 -1.7425367252e-10 0 0 -1.7425367252e-10 0 0 -1.7425367252e-10 
0 0 -1.7425367252e-10 0 0 -1.7425367252e-10 0 0 -1.7425367252e-10 
0 0 -1.7425367252e-10 0 0 -1.7425367252e-10 0 0 -1.7425367252e-10 
0 0 -1.7425367252e-10 0 0 -1.7425367252e-10 0 0 -1.7425367252e-10 
0 0 -1.7425367252e-10 0 0 -1.7425367252e-10 0 0 -1.7425367252e-10 
0 0 -1.7425367252e-10 0 0 -1.7425367252e-10 0 0 -1.7425367252e-10 
0 0 -1.7425367252e-10 0 0 -1.7425367252e-10 0 0 -1.7425367252e-10 
0 0 -1.7425367252e-10 0 0 -1.7425367252e-10 0 0 -1.7425367252e-10 
0 0 -1.7425367252e-10 0 0 -1.7425367252e-10 0 0 -1.7425367252e-10 
0 0 -1.7425367252e-10 0 0 -1.7425367252e-10 0 0 -1.7425367252e-10 
0 0 -1.7425367252e-10 0 0 -1.7425367252e-10 0 0 -1.7425367252e-10 
0 0 -1.7425367252e-10 0 0 -1.7425367252e-10 0 0 -1.7425367252e-10 
0 0 -1.7425367252e-10 0 0 -1.7425367252e-10 0 0 -1.7425367252e-10 
0 0 -1.7425367252e-10 0 0 -1.7425367252e-10 0 0 -1.7425367252e-10 
0 0 -1.7425367252e-10 0 0 -1.7425367252e-10 0 0 -1.7425367252e-10 
0 0 -1.7425367252e-10 0 0 -1.7425367252e-10 0 0 -1.7425367252e-10 
0 0 -1.7425367252e-10 0 0 -1.7425367252e-10 0 0 -1.7425367252e-10 
0 0 -1.7425367252e-10 0 0 -1.7425367252e-10 0 0 -1.7425367252e-10 
0 0 -1.7425367252e-10 0 0 -1.7425367252e-10 0 0 -1.7425367252e-10 
0 0 -1.7425367252e-10 0 0 -1.7425367252e-10 0 0 -1.7425367252e-10 
0 0 -1.7425367252e-10 0 0 -1.7425367252e-10 0 0 -1.7425367252e-10 
0 0 -1.7425367252e-10 0 0 -8.9019973083e-09 0 0 -1.7425367252e-10 
0 0 -1.7425367252e-10 0 0 -1.7425367252e-10 0 0 -1.7425367252e-10 
0 0 -1.7425367252e-10 0 0 -8.9019973083e-09 0 0 -1.7425367252e-10 
0 0 -1.7425367252e-10 0 0 -1.7425367252e-10 0 0 -1.7425367252e-10 
0 0 -1.7425367252e-10 0 0 -1.7425367252e-10 0 0 -1.7425367252e-10 
0 0 -1.7425367252e-10 0 0 -1.7425367252e-10 0 0 -1.7425367252e-10 
0 0 -1.7425367252e-10 0 0 -1.7425367252e-10 0 0 -1.7425367252e-10 
0 0 -1.7425367252e-10 0 0 -1.7425367252e-10 0 0 -1.7425367252e-10 
0 0 -1.7425367252e-10 0 0 -1.7425367252e-10 0 0 -1.7425367252e-10 
0 0 -1.7425367252e-10 0 0 -1.7425367252e-10 0 0 -1.7425367252e-10 
0 0 -1.7425367252e-10 0 0 -1.7425367252e-10 0 0 -1.7425367252e-10 
0 0 -1.7425367252e-10 0 0 -1.7425367252e-10 0 0 -1.7425367252e-10 
0 0 -1.7425367252e-10 0 0 -1.7425367252e-10 0 0 -1.7425367252e-10 
0 0 -1.7425367252e-10 0 0 -1.7425367252e-10 0 0 -1.7425367252e-10 
0 0 -1.7425367252e-10 0 0 -1.7425367252e-10 0 0 -1.7425367252e-10 
0 0 -1.7425367252e-10 0 0 -1.7425367252e-10 0 0 -1.7425367252e-10 
0 0 -1.7425367252e-10 0 0 -1.7425367252e-10 0 0 -1.7425367252e-10 
0 0 -1.7425367252e-10 0 0 -1.7425367252e-10 0 0 -1.7425367252e-10 
0 0 -1.7425367252e-10 0 0 -8.9019973083e-09 0 0 -1.7425367252e-10 
0 0 -1.7425367252e-10 0 0 -1.7425367252e-10 0 0 -1.7425367252e-10 
0 0 -1.7425367252e-10 0 0 -1.7425367252e-10 0 0 -1.7425367252e-10 
0 0 -1.7425367252e-10 0 0 -1.7425367252e-10 0 0 -1.7425367252e-10 
0 0 -1.7425367252e-10 0 0 -1.7425367252e-10 0 0 -1.7425367252e-10 
0 0 -1.7425367252e-10 0 0 -1.7425367252e-10 0 0 -1.7425367252e-10 
0 0 -1.7425367252e-10 0 0 -1.7425367252e-10 0 0 -1.7425367252e-10 
0 0 -1.7425367252e-10 0 0 -1.7425367252e-10 0 0 -1.7425367252e-10 
0 0 -1.7425367252e-10 0 0 -1.7425367252e-10 0 0 -1.7425367252e-10 
0 0 -1.7425367252e-10 0 0 -1.7425367252e-10 0 0 -1.7425367252e-10 
0 0 -1.7425367252e-10 0 0 -1.7425367252e-10 0 0 -1.7425367252e-10 
0 0 -1.7425367252e-10 0 0 -1.7425367252e-10 0 0 -1.7425367252e-10 
0 0 -1.7425367252e-10 0 0 -1.7425367252e-10 0 0 -1.7425367252e-10 
0 0 -1.7425367252e-10 0 0 -1.7425367252e-10 0 0 -1.7425367252e-10 
0 0 -1.7425367252e-10 0 0 -1.7425367252e-10 0 0 -1.7425367252e-10 
0 0 -1.7425367252e-10 0 0 -1.7425367252e-10 0 0 -1.7425367252e-10 
0 0 -1.7425367252e-10 0 0 -1.7425367252e-10 0 0 -1.7425367252e-10 
0 0 -1.7425367252e-10 0 0 -1.7425367252e-10 0 0 -1.7425367252e-10 
0 0 -1.7425367252e-10 0 0 -1.7425367252e-10 0 0 -1.7425367252e-10 
0 0 -1.7425367252e-10 0 0 -1.7425367252e-10 0 0 -1.7425367252e-10 
0 0 -1.7425367252e-10 0 0 -1.7425367252e-10 0 0 -1.7425367252e-10 
0 0 -1.7425367252e-10 0 0 -1.7425367252e-10 0 0 -1.7425367252e-10 
0 0 -1.7425367252e-10 0 0 -1.7425367252e-10 0 0 -1.7425367252e-10 
0 0 -1.7425367252e-10 0 0 -1.7425367252e-10 0 0 -1.7425367252e-10 
0 0 -1.7425367252e-10 0 0 -1.7425367252e-10 0 0 -1.7425367252e-10 
0 0 -1.7425367252e-10 0 0 -1.7425367252e-10 0 0 -1.7425367252e-10 
0 0 -1.7425367252e-10 0 0 -1.7425367252e-10 0 0 -1.7425367252e-10 
0 0 -1.7425367252e-10 0 0 -1.7425367252e-10 0 0 -1.7425367252e-10 
0 0 -1.7425367252e-10 0 0 -1.7425367252e-10 0 0 -1.7425367252e-10 
0 0 -1.7425367252e-10 0 0 -1.7425367252e-10 0 0 -1.7425367252e-10 
0 0 -1.7425367252e-10 0 0 -1.7425367252e-10 0 0 -1.7425367252e-10 
0 0 -1.7425367252e-10 0 0 -1.7425367252e-10 0 0 -8.9019973083e-09 
0 0 -1.7425367252e-10 0 0 -1.7425367252e-10 0 0 -1.7425367252e-10 
0 0 -1.7425367252e-10 0 0 -1.7425367252e-10 0 0 -1.7425367252e-10 
0 0 -1.7425367252e-10 0 0 -1.7425367252e-10 0 0 -1.7425367252e-10 
0 0 -1.7425367252e-10 0 0 -1.7425367252e-10 0 0 -1.7425367252e-10 
0 0 -1.7425367252e-10 0 0 -1.7425367252e-10 0 0 -1.7425367252e-10 
0 0 -1.7425367252e-10 0 0 -1.7425367252e-10 0 0 -1.7425367252e-10 
0 0 -1.7425367252e-10 0 0 -1.7425367252e-10 0 0 -1.7425367252e-10 
0 0 -1.7425367252e-10 0 0 -1.7425367252e-10 0 0 -1.7425367252e-10 
0 0 -1.7425367252e-10 0 0 -1.7425367252e-10 0 0 -1.7425367252e-10 
0 0 -1.7425367252e-10 0 0 -1.7425367252e-10 0 0 -1.7425367252e-10 
0 0 -1.7425367252e-10 0 0 -1.7425367252e-10 0 0 -1.7425367252e-10 
0 0 -1.7425367252e-10 0 0 -1.7425367252e-10 0 0 -1.7425367252e-10 
0 0 -1.7425367252e-10 0 0 -1.7425367252e-10 0 0 -1.7425367252e-10 
0 0 -1.7425367252e-10 0 0 -1.7425367252e-10 0 0 -1.7425367252e-10 
0 0 -1.7425367252e-10 0 0 -1.7425367252e-10 0 0 -1.7425367252e-10 
0 0 -1.7425367252e-10 0 0 -1.7425367252e-10 0 0 -1.7425367252e-10 
0 0 -1.7425367252e-10 0 0 -1.7425367252e-10 0 0 -1.7425367252e-10 
0 0 -1.7425367252e-10 0 0 -1.7425367252e-10 0 0 -1.7425367252e-10 
0 0 -1.7425367252e-10 0 0 -1.7425367252e-10 0 0 -1.7425367252e-10 
0 0 -1.7425367252e-10 0 0 -1.7425367252e-10 0 0 -1.7425367252e-10 
0 0 -1.7425367252e-10 0 0 -1.7425367252e-10 0 0 -1.7425367252e-10 
0 0 -1.7425367252e-10 0 0 -1.7425367252e-10 0 0 -1.7425367252e-10 
0 0 -1.7425367252e-10 0 0 -1.7425367252e-10 0 0 -1.7425367252e-10 
0 0 -1.7425367252e-10 0 0 -1.7425367252e-10 0 0 -1.7425367252e-10 
0 0 -1.7425367252e-10 0 0 -1.7425367252e-10 0 0 -1.7425367252e-10 
0 0 -1.7425367252e-10 0 0 -1.7425367252e-10 0 0 -1.7425367252e-10 
0 0 -1.7425367252e-10 0 0 -1.7425367252e-10 0 0 -1.7425367252e-10 
0 0 -1.7425367252e-10 0 0 -1.7425367252e-10 0 0 -1.7425367252e-10 
0 0 -1.7425367252e-10 0 0 -1.7425367252e-10 0 0 -1.7425367252e-10 
0 0 -8.9019973083e-09 0 0 -1.7425367252e-10 0 0 -1.7425367252e-10 
0 0 -1.7425367252e-10 0 0 -8.9019973083e-09 0 0 -1.7425367252e-10 
0 0 -1.7425367252e-10 0 0 -1.7425367252e-10 0 0 -1.7425367252e-10 
0 0 -1.7425367252e-10 0 0 -1.7425367252e-10 0 0 -1.7425367252e-10 
0 0 -1.7425367252e-10 0 0 -1.7425367252e-10 0 0 -1.7425367252e-10 
0 0 -1.7425367252e-10 0 0 -1.7425367252e-10 0 0 -1.7425367252e-10 
0 0 -1.7425367252e-10 0 0 -1.7425367252e-10 0 0 -1.7425367252e-10 
0 0 -1.7425367252e-10 0 0 -1.7425367252e-10 0 0 -1.7425367252e-10 
0 0 -1.7425367252e-10 0 0 -1.7425367252e-10 0 0 -1.7425367252e-10 
0 0 -1.7425367252e-10 0 0 -1.7425367252e-10 0 0 -1.7425367252e-10 
0 0 -1.7425367252e-10 0 0 -1.7425367252e-10 0 0 -1.7425367252e-10 
0 0 -1.7425367252e-10 0 0 -1.7425367252e-10 0 0 -1.7425367252e-10 
0 0 -1.7425367252e-10 0 0 -1.7425367252e-10 0 0 -1.7425367252e-10 
0 0 -1.7425367252e-10 0 0 -1.7425367252e-10 0 0 -1.7425367252e-10 
0 0 -1.7425367252e-10 0 0 -8.9019973083e-09 0 0 -8.9019973083e-09 
0 0 -1.7425367252e-10 0 0 -1.7425367252e-10 0 0 -8.9019973083e-09 
0 0 -8.9019973083e-09 0 0 -8.9019973083e-09 0 0 -1.7425367252e-10 
0 0 -6.8918688838e-08 0 0 -8.9019973083e-09 0 0 -8.9019973083e-09 
0 0 -8.9019973083e-09 0 0 -1.7425367252e-10 0 0 -1.7425367252e-10 
0 0 -1.7425367252e-10 0 0 -1.7425367252e-10 0 0 -1.7425367252e-10 
0 0 -1.7425367252e-10 0 0 -1.7425367252e-10 0 0 -1.7425367252e-10 
0 0 -8.9019973083e-09 0 0 -1.7425367252e-10 0 0 -1.7425367252e-10 
0 0 -1.7425367252e-10 0 0 -1.7425367252e-10 0 0 -1.7425367252e-10 
0 0 -1.7425367252e-10 0 0 -1.7425367252e-10 0 0 -1.7425367252e-10 
0 0 -1.7425367252e-10 0 0 -1.7425367252e-10 0 0 -1.7425367252e-10 
0 0 -1.7425367252e-10 0 0 -1.7425367252e-10 0 0 -1.7425367252e-10 
0 0 -1.7425367252e-10 0 0 -1.7425367252e-10 0 0 -1.7425367252e-10 
0 0 -1.7425367252e-10 0 0 -1.7425367252e-10 0 0 -1.7425367252e-10 
0 0 -1.7425367252e-10 0 0 -1.7425367252e-10 0 0 -1.7425367252e-10 
0 0 -1.7425367252e-10 0 0 -1.7425367252e-10 0 0 -1.7425367252e-10 
0 0 -1.7425367252e-10 0 0 -1.7425367252e-10 0 0 -1.7425367252e-10 
0 0 -1.7425367252e-10 0 0 -1.7425367252e-10 0 0 -1.7425367252e-10 
0 0 -1.7425367252e-10 0 0 -1.7425367252e-10 0 0 -1.7425367252e-10 
0 0 -1.7425367252e-10 0 0 -1.7425367252e-10 0 0 -1.7425367252e-10 
0 0 -1.7425367252e-10 0 0 -1.7425367252e-10 0 0 -1.7425367252e-10 
0 0 -1.7425367252e-10 0 0 -1.7425367252e-10 0 0 -1.7425367252e-10 
0 0 -1.7425367252e-10 0 0 -1.7425367252e-10 0 0 -1.7425367252e-10 
0 0 -1.7425367252e-10 0 0 -1.7425367252e-10 0 0 -1.7425367252e-10 
0 0 -1.7425367252e-10 0 0 -1.7425367252e-10 0 0 -8.9019973083e-09 
0 0 -1.7425367252e-10 0 0 -1.7425367252e-10 0 0 -8.9019973083e-09 
0 0 -1.7425367252e-10 0 0 -1.7425367252e-10 0 0 -1.7425367252e-10 
0 0 -1.7425367252e-10 0 0 -1.7425367252e-10 0 0 -1.7425367252e-10 
0 0 -1.7425367252e-10 0 0 -1.7425367252e-10 0 0 -1.7425367252e-10 
0 0 -1.7425367252e-10 0 0 -5.3297119368e-07 0 0 -1.7425367252e-10 

radius 1 648 double
2e-05 2e-05 2e-05 2e-05 2e-05 2e-05 2e-05 2e-05 2e-05 
2e-05 2e-05 2e-05 2e-05 2e-05 2e-05 2e-05 2e-05 2e-05 
2e-05 2e-05 2e-05 2e-05 2e-05 2e-05 2e-05 2e-05 2e-05 
2e-05 2e-05 2e-05 2e-05 2e-05 2e-05 2e-05 2e-05 2e-05 
2e-05 2e-05 2e-05 2e-05 2e-05 2e-05 2e-05 2e-05 2e-05 
2e-05 2e-05 2e-05 2e-05 2e-05 2e-05 2e-05 2e-05 2e-05 
2e-05 2e-05 2e-05 2e-05 2e-05 2e-05 2e-05 2e-05 2e-05 
2e-05 2e-05 2e-05 2e-05 2e-05 2e-05 2e-05 2e-05 2e-05 
2e-05 2e-05 2e-05 2e-05 2e-05 2e-05 2e-05 2e-05 2e-05 
2e-05 2e-05 2e-05 2e-05 2e-05 2e-05 2e-05 2e-05 2e-05 
2e-05 2e-05 2e-05 2e-05 2e-05 2e-05 2e-05 2e-05 2e-05 
2e-05 2e-05 2e-05 2e-05 2e-05 2e-05 2e-05 2e-05 2e-05 
2e-05 2e-05 2e-05 2e-05 2e-05 2e-05 2e-05 2e-05 2e-05 
2e-05 2e-05 2e-05 2e-05 2e-05 2e-05 2e-05 2e-05 2e-05 
2e-05 2e-05 2e-05 2e-05 2e-05 2e-05 2e-05 2e-05 2e-05 
2e-05 2e-05 2e-05 2e-05 2e-05 2e-05 2e-05 2e-05 2e-05 
2e-05 2e-05 2e-05 2e-05 2e-05 2e-05 2e-05 2e-05 2e-05 
2e-05 2e-05 2e-05 2e-05 2e-05 2e-05 2e-05 2e-05 2e-05 
2e-05 2e-05 2e-05 2e-05 2e-05 2e-05 2e-05 2e-05 2e-05 
2e-05 2e-05 2e-05 2e-05 2e-05 2e-05 2e-05 2e-05 2e-05 
2e-05 2e-05 2e-05 2e-05 2e-05 2e-05 2e-05 2e-05 2e-05 
2e-05 2e-05 2e-05 2e-05 2e-05 2e-05 2e-05 2e-05 2e-05 
2e-05 2e-05 2e-05 2e-05 2e-05 2e-05 2e-05 2e-05 2e-05 
2e-05 2e-05 2e-05 2e-05 2e-05 2e-05 2e-05 2e-05 2e-05 
2e-05 2e-05 2e-05 2e-05 2e-05 2e-05 2e-05 2e-05 2e-05 
2e-05 2e-05 2e-05 2e-05 2e-05 2e-05 2e-05 2e-05 2e-05 
2e-05 2e-05 2e-05 2e-05 2e-05 2e-05 2e-05 2e-05 2e-05 
2e-05 2e-05 2e-05 2e-05 2e-05 2e-05 2e-05 2e-05 2e-05 
2e-05 2e-05 2e-05 2e-05 2e-05 2e-05 2e-05 2e-05 2e-05 
2e-05 2e-05 2e-05 2e-05 2e-05 2e-05 2e-05 2e-05 2e-05 
2e-05 2e-05 2e-05 2e-05 2e-05 2e-05 2e-05 2e-05 2e-05 
2e-05 7.5e-05 2e-05 2e-05 2e-05 2e-05 2e-05 7.5e-05 2e-05 
2e-05 2e-05 2e-05 2e-05 2e-05 2e-05 2e-05 2e-05 2e-05 
2e-05 2e-05 2e-05 2e-05 2e-05 2e-05 2e-05 2e-05 2e-05 
2e-05 2e-05 2e-05 2e-05 2e-05 2e-05 2e-05 2e-05 2e-05 
2e-05 2e-05 2e-05 2e-05 2e-05 2e-05 2e-05 2e-05 2e-05 
2e-05 2e-05 2e-05 2e-05 2e-05 2e-05 2e-05 2e-05 2e-05 
2e-05 7.5e-05 2e-05 2e-05 2e-05 2e-05 2e-05 2e-05 2e-05 
2e-05 2e-05 2e-05 2e-05 2e-05 2e-05 2e-05 2e-05 2e-05 
2e-05 2e-05 2e-05 2e-05 2e-05 2e-05 2e-05 2e-05 2e-05 
2e-05 2e-05 2e-05 2e-05 2e-05 2e-05 2e-05 2e-05 2e-05 
2e-05 2e-05 2e-05 2e-05 2e-05 2e-05 2e-05 2e-05 2e-05 
2e-05 2e-05 2e-05 2e-05 2e-05 2e-05 2e-05 2e-05 2e-05 
2e-05 2e-05 2e-05 2e-05 2e-05 2e-05 2e-05 2e-05 2e-05 
2e-05 2e-05 2e-05 2e-05 2e-05 2e-05 2e-05 2e-05 2e-05 
2e-05 2e-05 2e-05 2e-05 2e-05 2e-05 2e-05 2e-05 2e-05 
2e-05 2e-05 2e-05 2e-05 2e-05 2e-05 2e-05 2e-05 2e-05 
2e-05 2e-05 2e-05 2e-05 2e-05 7.5e-05 2e-05 2e-05 2e-05 
2e-05 2e-05 2e-05 2e-05 2e-05 2e-05 2e-05 2e-05 2e-05 
2e-05 2e-05 2e-05 2e-05 2e-05 2e-05 2e-05 2e-05 2e-05 
2e-05 2e-05 2e-05 2e-05 2e-05 2e-05 2e-05 2e-05 2e-05 
2e-05 2e-05 2e-05 2e-05 2e-05 2e-05 2e-05 2e-05 2e-05 
2e-05 2e-05 2e-05 2e-05 2e-05 2e-05 2e-05 2e-05 2e-05 
2e-05 2e-05 2e-05 2e-05 2e-05 2e-05 2e-05 2e-05 2e-05 
2e-05 2e-05 2e-05 2e-05 2e-05 2e-05 2e-05 2e-05 2e-05 
2e-05 2e-05 2e-05 2e-05 2e-05 2e-05 2e-05 2e-05 2e-05 
2e-05 2e-05 2e-05 2e-05 2e-05 2e-05 2e-05 2e-05 2e-05 
2e-05 2e-05 2e-05 7.5e-05 2e-05 2e-05 2e-05 7.5e-05 2e-05 
2e-05 2e-05 2e-05 2e-05 2e-05 2e-05 2e-05 2e-05 2e-05 
2e-05 2e-05 2e-05 2e-05 2e-05 2e-05 2e-05 2e-05 2e-05 
2e-05 2e-05 2e-05 2e-05 2e-05 2e-05 2e-05 2e-05 2e-05 
2e-05 2e-05 2e-05 2e-05 2e-05 2e-05 2e-05 2e-05 2e-05 
2e-05 7.5e-05 7.5e-05 2e-05 2e-05 7.5e-05 7.5e-05 7.5e-05 2e-05 
0.00015 7.5e-05 7.5e-05 7.5e-05 2e-05 2e-05 2e-05 2e-05 2e-05 
2e-05 2e-05 2e-05 7.5e-05 2e-05 2e-05 2e-05 2e-05 2e-05 
2e-05 2e-05 2e-05 2e-05 2e-05 2e-05 2e-05 2e-05 2e-05 
2e-05 2e-05 2e-05 2e-05 2e-05 2e-05 2e-05 2e-05 2e-05 
2e-05 2e-05 2e-05 2e-05 2e-05 2e-05 2e-05 2e-05 2e-05 
2e-05 2e-05 2e-05 2e-05 2e-05 2e-05 2e-05 2e-05 2e-05 
2e-05 2e-05 2e-05 2e-05 2e-05 2e-05 2e-05 2e-05 2e-05 
2e-05 2e-05 7.5e-05 2e-05 2e-05 7.5e-05 2e-05 2e-05 2e-05 
2e-05 2e-05 2e-05 2e-05 2e-05 2e-05 2e-05 0.0003 2e-05 

omega 3 648 double
0 0 0 0 0 0 0 0 0 
0 0 0 0 0 0 0 0 0 
0 0 0 0 0 0 0 0 0 
0 0 0 0 0 0 0 0 0 
0 0 0 0 0 0 0 0 0 
0 0 0 0 0 0 0 0 0 
0 0 0 0 0 0 0 0 0 
0 0 0 0 0 0 0 0 0 
0 0 0 0 0 0 0 0 0 
0 0 0 0 0 0 0 0 0 
0 0 0 0 0 0 0 0 0 
0 0 0 0 0 0 0 0 0 
0 0 0 0 0 0 0 0 0 
0 0 0 0 0 0 0 0 0 
0 0 0 0 0 0 0 0 0 
0 0 0 0 0 0 0 0 0 
0 0 0 0 0 0 0 0 0 
0 0 0 0 0 0 0 0 0 
0 0 0 0 0 0 0 0 0 
0 0 0 0 0 0 0 0 0 
0 0 0 0 0 0 0 0 0 
0 0 0 0 0 0 0 0 0 
0 0 0 0 0 0 0 0 0 
0 0 0 0 0 0 0 0 0 
0 0 0 0 0 0 0 0 0 
0 0 0 0 0 0 0 0 0 
0 0 0 0 0 0 0 0 0 
0 0 0 0 0 0 0 0 0 
0 0 0 0 0 0 0 0 0 
0 0 0 0 0 0 0 0 0 
0 0 0 0 0 0 0 0 0 
0 0 0 0 0 0 0 0 0 
0 0 0 0 0 0 0 0 0 
0 0 0 0 0 0 0 0 0 
0 0 0 0 0 0 0 0 0 
0 0 0 0 0 0 0 0 0 
0 0 0 0 0 0 0 0 0 
0 0 0 0 0 0 0 0 0 
0 0 0 0 0 0 0 0 0 
0 0 0 0 0 0 0 0 0 
0 0 0 0 0 0 0 0 0 
0 0 0 0 0 0 0 0 0 
0 0 0 0 0 0 0 0 0 
0 0 0 0 0 0 0 0 0 
0 0 0 0 0 0 0 0 0 
0 0 0 0 0 0 0 0 0 
0 0 0 0 0 0 0 0 0 
0 0 0 0 0 0 0 0 0 
0 0 0 0 0 0 0 0 0 
0 0 0 0 0 0 0 0 0 
0 0 0 0 0 0 0 0 0 
0 0 0 0 0 0 0 0 0 
0 0 0 0 0 0 0 0 0 
0 0 0 0 0 0 0 0 0 
0 0 0 0 0 0 0 0 0 
0 0 0 0 0 0 0 0 0 
0 0 0 0 0 0 0 0 0 
0 0 0 0 0 0 0 0 0 
0 0 0 0 0 0 0 0 0 
0 0 0 0 0 0 0 0 0 
0 0 0 0 0 0 0 0 0 
0 0 0 0 0 0 0 0 0 
0 0 0 0 0 0 0 0 0 
0 0 0 0 0 0 0 0 0 
0 0 0 0 0 0 0 0 0 
0 0 0 0 0 0 0 0 0 
0 0 0 0 0 0 0 0 0 
0 0 0 0 0 0 0 0 0 
0 0 0 0 0 0 0 0 0 
0 0 0 0 0 0 0 0 0 
0 0 0 0 0 0 0 0 0 
0 0 0 0 0 0 0 0 0 
0 0 0 0 0 0 0 0 0 
0 0 0 0 0 0 0 0 0 
0 0 0 0 0 0 0 0 0 
0 0 0 0 0 0 0 0 0 
0 0 0 0 0 0 0 0 0 
0 0 0 0 0 0 0 0 0 
0 0 0 0 0 0 0 0 0 
0 0 0 0 0 0 0 0 0 
0 0 0 0 0 0 0 0 0 
0 0 0 0 0 0 0 0 0 
0 0 0 0 0 0 0 0 0 
0 0 0 0 0 0 0 0 0 
0 0 0 0 0 0 0 0 0 
0 0 0 0 0 0 0 0 0 
0 0 0 0 0 0 0 0 0 
0 0 0 0 0 0 0 0 0 
0 0 0 0 0 0 0 0 0 
0 0 0 0 0 0 0 0 0 
0 0 0 0 0 0 0 0 0 
0 0 0 0 0 0 0 0 0 
0 0 0 0 0 0 0 0 0 
0 0 0 0 0 0 0 0 0 
0 0 0 0 0 0 0 0 0 
0 0 0 0 0 0 0 0 0 
0 0 0 0 0 0 0 0 0 
0 0 0 0 0 0 0 0 0 
0 0 0 0 0 0 0 0 0 
0 0 0 0 0 0 0 0 0 
0 0 0 0 0 0 0 0 0 
0 0 0 0 0 0 0 0 0 
0 0 0 0 0 0 0 0 0 
0 0 0 0 0 0 0 0 0 
0 0 0 0 0 0 0 0 0 
0 0 0 0 0 0 0 0 0 
0 0 0 0 0 0 0 0 0 
0 0 0 0 0 0 0 0 0 
0 0 0 0 0 0 0 0 0 
0 0 0 0 0 0 0 0 0 
0 0 0 0 0 0 0 0 0 
0 0 0 0 0 0 0 0 0 
0 0 0 0 0 0 0 0 0 
0 0 0 0 0 0 0 0 0 
0 0 0 0 0 0 0 0 0 
0 0 0 0 0 0 0 0 0 
0 0 0 0 0 0 0 0 0 
0 0 0 0 0 0 0 0 0 
0 0 0 0 0 0 0 0 0 
0 0 0 0 0 0 0 0 0 
0 0 0 0 0 0 0 0 0 
0 0 0 0 0 0 0 0 0 
0 0 0 0 0 0 0 0 0 
0 0 0 0 0 0 0 0 0 
0 0 0 0 0 0 0 0 0 
0 0 0 0 0 0 0 0 0 
0 0 0 0 0 0 0 0 0 
0 0 0 0 0 0 0 0 0 
0 0 0 0 0 0 0 0 0 
0 0 0 0 0 0 0 0 0 
0 0 0 0 0 0 0 0 0 
0 0 0 0 0 0 0 0 0 
0 0 0 0 0 0 0 0 0 
0 0 0 0 0 0 0 0 0 
0 0 0 0 0 0 0 0 0 
0 0 0 0 0 0 0 0 0 
0 0 0 0 0 0 0 0 0 
0 0 0 0 0 0 0 0 0 
0 0 0 0 0 0 0 0 0 
0 0 0 0 0 0 0 0 0 
0 0 0 0 0 0 0 0 0 
0 0 0 0 0 0 0 0 0 
0 0 0 0 0 0 0 0 0 
0 0 0 0 0 0 0 0 0 
0 0 0 0 0 0 0 0 0 
0 0 0 0 0 0 0 0 0 
0 0 0 0 0 0 0 0 0 
0 0 0 0 0 0 0 0 0 
0 0 0 0 0 0 0 0 0 
0 0 0 0 0 0 0 0 0 
0 0 0 0 0 0 0 0 0 
0 0 0 0 0 0 0 0 0 
0 0 0 0 0 0 0 0 0 
0 0 0 0 0 0 0 0 0 
0 0 0 0 0 0 0 0 0 
0 0 0 0 0 0 0 0 0 
0 0 0 0 0 0 0 0 0 
0 0 0 0 0 0 0 0 0 
0 0 0 0 0 0 0 0 0 
0 0 0 0 0 0 0 0 0 
0 0 0 0 0 0 0 0 0 
0 0 0 0 0 0 0 0 0 
0 0 0 0 0 0 0 0 0 
0 0 0 0 0 0 0 0 0 
0 0 0 0 0 0 0 0 0 
0 0 0 0 0 0 0 0 0 
0 0 0 0 0 0 0 0 0 
0 0 0 0 0 0 0 0 0 
0 0 0 0 0 0 0 0 0 
0 0 0 0 0 0 0 0 0 
0 0 0 0 0 0 0 0 0 
0 0 0 0 0 0 0 0 0 
0 0 0 0 0 0 0 0 0 
0 0 0 0 0 0 0 0 0 
0 0 0 0 0 0 0 0 0 
0 0 0 0 0 0 0 0 0 
0 0 0 0 0 0 0 0 0 
0 0 0 0 0 0 0 0 0 
0 0 0 0 0 0 0 0 0 
0 0 0 0 0 0 0 0 0 
0 0 0 0 0 0 0 0 0 
0 0 0 0 0 0 0 0 0 
0 0 0 0 0 0 0 0 0 
0 0 0 0 0 0 0 0 0 
0 0 0 0 0 0 0 0 0 
0 0 0 0 0 0 0 0 0 
0 0 0 0 0 0 0 0 0 
0 0 0 0 0 0 0 0 0 
0 0 0 0 0 0 0 0 0 
0 0 0 0 0 0 0 0 0 
0 0 0 0 0 0 0 0 0 
0 0 0 0 0 0 0 0 0 
0 0 0 0 0 0 0 0 0 
0 0 0 0 0 0 0 0 0 
0 0 0 0 0 0 0 0 0 
0 0 0 0 0 0 0 0 0 
0 0 0 0 0 0 0 0 0 
0 0 0 0 0 0 0 0 0 
0 0 0 0 0 0 0 0 0 
0 0 0 0 0 0 0 0 0 
0 0 0 0 0 0 0 0 0 
0 0 0 0 0 0 0 0 0 
0 0 0 0 0 0 0 0 0 
0 0 0 0 0 0 0 0 0 
0 0 0 0 0 0 0 0 0 
0 0 0 0 0 0 0 0 0 
0 0 0 0 0 0 0 0 0 
0 0 0 0 0 0 0 0 0 
0 0 0 0 0 0 0 0 0 
0 0 0 0 0 0 0 0 0 
0 0 0 0 0 0 0 0 0 
0 0 0 0 0 0 0 0 0 
0 0 0 0 0 0 0 0 0 
0 0 0 0 0 0 0 0 0 
0 0 0 0 0 0 0 0 0 
0 0 0 0 0 0 0 0 0 

fx_mag_viz 1 648 double
0 0 0 0 0 0 0 0 0 
0 0 0 0 0 0 0 0 0 
0 0 0 0 0 0 0 0 0 
0 0 0 0 0 0 0 0 0 
0 0 0 0 0 0 0 0 0 
0 0 0 0 0 0 0 0 0 
0 0 0 0 0 0 0 0 0 
0 0 0 0 0 0 0 0 0 
0 0 0 0 0 0 0 0 0 
0 0 0 0 0 0 0 0 0 
0 0 0 0 0 0 0 0 0 
0 0 0 0 0 0 0 0 0 
0 0 0 0 0 0 0 0 0 
0 0 0 0 0 0 0 0 0 
0 0 0 0 0 0 0 0 0 
0 0 0 0 0 0 0 0 0 
0 0 0 0 0 0 0 0 0 
0 0 0 0 0 0 0 0 0 
0 0 0 0 0 0 0 0 0 
0 0 0 0 0 0 0 0 0 
0 0 0 0 0 0 0 0 0 
0 0 0 0 0 0 0 0 0 
0 0 0 0 0 0 0 0 0 
0 0 0 0 0 0 0 0 0 
0 0 0 0 0 0 0 0 0 
0 0 0 0 0 0 0 0 0 
0 0 0 0 0 0 0 0 0 
0 0 0 0 0 0 0 0 0 
0 0 0 0 0 0 0 0 0 
0 0 0 0 0 0 0 0 0 
0 0 0 0 0 0 0 0 0 
0 0 0 0 0 0 0 0 0 
0 0 0 0 0 0 0 0 0 
0 0 0 0 0 0 0 0 0 
0 0 0 0 0 0 0 0 0 
0 0 0 0 0 0 0 0 0 
0 0 0 0 0 0 0 0 0 
0 0 0 0 0 0 0 0 0 
0 0 0 0 0 0 0 0 0 
0 0 0 0 0 0 0 0 0 
0 0 0 0 0 0 0 0 0 
0 0 0 0 0 0 0 0 0 
0 0 0 0 0 0 0 0 0 
0 0 0 0 0 0 0 0 0 
0 0 0 0 0 0 0 0 0 
0 0 0 0 0 0 0 0 0 
0 0 0 0 0 0 0 0 0 
0 0 0 0 0 0 0 0 0 
0 0 0 0 0 0 0 0 0 
0 0 0 0 0 0 0 0 0 
0 0 0 0 0 0 0 0 0 
0 0 0 0 0 0 0 0 0 
0 0 0 0 0 0 0 0 0 
0 0 0 0 0 0 0 0 0 
0 0 0 0 0 0 0 0 0 
0 0 0 0 0 0 0 0 0 
0 0 0 0 0 0 0 0 0 
0 0 0 0 0 0 0 0 0 
0 0 0 0 0 0 0 0 0 
0 0 0 0 0 0 0 0 0 
0 0 0 0 0 0 0 0 0 
0 0 0 0 0 0 0 0 0 
0 0 0 0 0 0 0 0 0 
0 0 0 0 0 0 0 0 0 
0 0 0 0 0 0 0 0 0 
0 0 0 0 0 0 0 0 0 
0 0 0 0 0 0 0 0 0 
0 0 0 0 0 0 0 0 0 
0 0 0 0 0 0 0 0 0 
0 0 0 0 0 0 0 0 0 
0 0 0 0 0 0 0 0 0 
0 0 0 0 0 0 0 0 0 

fy_mag_viz 1 648 double
0 0 0 0 0 0 0 0 0 
0 0 0 0 0 0 0 0 0 
0 0 0 0 0 0 0 0 0 
0 0 0 0 0 0 0 0 0 
0 0 0 0 0 0 0 0 0 
0 0 0 0 0 0 0 0 0 
0 0 0 0 0 0 0 0 0 
0 0 0 0 0 0 0 0 0 
0 0 0 0 0 0 0 0 0 
0 0 0 0 0 0 0 0 0 
0 0 0 0 0 0 0 0 0 
0 0 0 0 0 0 0 0 0 
0 0 0 0 0 0 0 0 0 
0 0 0 0 0 0 0 0 0 
0 0 0 0 0 0 0 0 0 
0 0 0 0 0 0 0 0 0 
0 0 0 0 0 0 0 0 0 
0 0 0 0 0 0 0 0 0 
0 0 0 0 0 0 0 0 0 
0 0 0 0 0 0 0 0 0 
0 0 0 0 0 0 0 0 0 
0 0 0 0 0 0 0 0 0 
0 0 0 0 0 0 0 0 0 
0 0 0 0 0 0 0 0 0 
0 0 0 0 0 0 0 0 0 
0 0 0 0 0 0 0 0 0 
0 0 0 0 0 0 0 0 0 
0 0 0 0 0 0 0 0 0 
0 0 0 0 0 0 0 0 0 
0 0 0 0 0 0 0 0 0 
0 0 0 0 0 0 0 0 0 
0 0 0 0 0 0 0 0 0 
0 0 0 0 0 0 0 0 0 
0 0 0 0 0 0 0 0 0 
0 0 0 0 0 0 0 0 0 
0 0 0 0 0 0 0 0 0 
0 0 0 0 0 0 0 0 0 
0 0 0 0 0 0 0 0 0 
0 0 0 0 0 0 0 0 0 
0 0 0 0 0 0 0 0 0 
0 0 0 0 0 0 0 0 0 
0 0 0 0 0 0 0 0 0 
0 0 0 0 0 0 0 0 0 
0 0 0 0 0 0 0 0 0 
0 0 0 0 0 0 0 0 0 
0 0 0 0 0 0 0 0 0 
0 0 0 0 0 0 0 0 0 
0 0 0 0 0 0 0 0 0 
0 0 0 0 0 0 0 0 0 
0 0 0 0 0 0 0 0 0 
0 0 0 0 0 0 0 0 0 
0 0 0 0 0 0 0 0 0 
0 0 0 0 0 0 0 0 0 
0 0 0 0 0 0 0 0 0 
0 0 0 0 0 0 0 0 0 
0 0 0 0 0 0 0 0 0 
0 0 0 0 0 0 0 0 0 
0 0 0 0 0 0 0 0 0 
0 0 0 0 0 0 0 0 0 
0 0 0 0 0 0 0 0 0 
0 0 0 0 0 0 0 0 0 
0 0 0 0 0 0 0 0 0 
0 0 0 0 0 0 0 0 0 
0 0 0 0 0 0 0 0 0 
0 0 0 0 0 0 0 0 0 
0 0 0 0 0 0 0 0 0 
0 0 0 0 0 0 0 0 0 
0 0 0 0 0 0 0 0 0 
0 0 0 0 0 0 0 0 0 
0 0 0 0 0 0 0 0 0 
0 0 0 0 0 0 0 0 0 
0 0 0 0 0 0 0 0 0 

fz_mag_viz 1 648 double
0 0 0 0 0 0 0 0 0 
0 0 0 0 0 0 0 0 0 
0 0 0 0 0 0 0 0 0 
0 0 0 0 0 0 0 0 0 
0 0 0 0 0 0 0 0 0 
0 0 0 0 0 0 0 0 0 
0 0 0 0 0 0 0 0 0 
0 0 0 0 0 0 0 0 0 
0 0 0 0 0 0 0 0 0 
0 0 0 0 0 0 0 0 0 
0 0 0 0 0 0 0 0 0 
0 0 0 0 0 0 0 0 0 
0 0 0 0 0 0 0 0 0 
0 0 0 0 0 0 0 0 0 
0 0 0 0 0 0 0 0 0 
0 0 0 0 0 0 0 0 0 
0 0 0 0 0 0 0 0 0 
0 0 0 0 0 0 0 0 0 
0 0 0 0 0 0 0 0 0 
0 0 0 0 0 0 0 0 0 
0 0 0 0 0 0 0 0 0 
0 0 0 0 0 0 0 0 0 
0 0 0 0 0 0 0 0 0 
0 0 0 0 0 0 0 0 0 
0 0 0 0 0 0 0 0 0 
0 0 0 0 0 0 0 0 0 
0 0 0 0 0 0 0 0 0 
0 0 0 0 0 0 0 0 0 
0 0 0 0 0 0 0 0 0 
0 0 0 0 0 0 0 0 0 
0 0 0 0 0 0 0 0 0 
0 0 0 0 0 0 0 0 0 
0 0 0 0 0 0 0 0 0 
0 0 0 0 0 0 0 0 0 
0 0 0 0 0 0 0 0 0 
0 0 0 0 0 0 0 0 0 
0 0 0 0 0 0 0 0 0 
0 0 0 0 0 0 0 0 0 
0 0 0 0 0 0 0 0 0 
0 0 0 0 0 0 0 0 0 
0 0 0 0 0 0 0 0 0 
0 0 0 0 0 0 0 0 0 
0 0 0 0 0 0 0 0 0 
0 0 0 0 0 0 0 0 0 
0 0 0 0 0 0 0 0 0 
0 0 0 0 0 0 0 0 0 
0 0 0 0 0 0 0 0 0 
0 0 0 0 0 0 0 0 0 
0 0 0 0 0 0 0 0 0 
0 0 0 0 0 0 0 0 0 
0 0 0 0 0 0 0 0 0 
0 0 0 0 0 0 0 0 0 
0 0 0 0 0 0 0 0 0 
0 0 0 0 0 0 0 0 0 
0 0 0 0 0 0 0 0 0 
0 0 0 0 0 0 0 0 0 
0 0 0 0 0 0 0 0 0 
0 0 0 0 0 0 0 0 0 
0 0 0 0 0 0 0 0 0 
0 0 0 0 0 0 0 0 0 
0 0 0 0 0 0 0 0 0 
0 0 0 0 0 0 0 0 0 
0 0 0 0 0 0 0 0 0 
0 0 0 0 0 0 0 0 0 
0 0 0 0 0 0 0 0 0 
0 0 0 0 0 0 0 0 0 
0 0 0 0 0 0 0 0 0 
0 0 0 0 0 0 0 0 0 
0 0 0 0 0 0 0 0 0 
0 0 0 0 0 0 0 0 0 
0 0 0 0 0 0 0 0 0 
0 0 0 0 0 0 0 0 0 

B_magnitude 1 648 double
0 0 0 0 0 0 0 0 0 
0 0 0 0 0 0 0 0 0 
0 0 0 0 0 0 0 0 0 
0 0 0 0 0 0 0 0 0 
0 0 0 0 0 0 0 0 0 
0 0 0 0 0 0 0 0 0 
0 0 0 0 0 0 0 0 0 
0 0 0 0 0 0 0 0 0 
0 0 0 0 0 0 0 0 0 
0 0 0 0 0 0 0 0 0 
0 0 0 0 0 0 0 0 0 
0 0 0 0 0 0 0 0 0 
0 0 0 0 0 0 0 0 0 
0 0 0 0 0 0 0 0 0 
0 0 0 0 0 0 0 0 0 
0 0 0 0 0 0 0 0 0 
0 0 0 0 0 0 0 0 0 
0 0 0 0 0 0 0 0 0 
0 0 0 0 0 0 0 0 0 
0 0 0 0 0 0 0 0 0 
0 0 0 0 0 0 0 0 0 
0 0 0 0 0 0 0 0 0 
0 0 0 0 0 0 0 0 0 
0 0 0 0 0 0 0 0 0 
0 0 0 0 0 0 0 0 0 
0 0 0 0 0 0 0 0 0 
0 0 0 0 0 0 0 0 0 
0 0 0 0 0 0 0 0 0 
0 0 0 0 0 0 0 0 0 
0 0 0 0 0 0 0 0 0 
0 0 0 0 0 0 0 0 0 
0 0 0 0 0 0 0 0 0 
0 0 0 0 0 0 0 0 0 
0 0 0 0 0 0 0 0 0 
0 0 0 0 0 0 0 0 0 
0 0 0 0 0 0 0 0 0 
0 0 0 0 0 0 0 0 0 
0 0 0 0 0 0 0 0 0 
0 0 0 0 0 0 0 0 0 
0 0 0 0 0 0 0 0 0 
0 0 0 0 0 0 0 0 0 
0 0 0 0 0 0 0 0 0 
0 0 0 0 0 0 0 0 0 
0 0 0 0 0 0 0 0 0 
0 0 0 0 0 0 0 0 0 
0 0 0 0 0 0 0 0 0 
0 0 0 0 0 0 0 0 0 
0 0 0 0 0 0 0 0 0 
0 0 0 0 0 0 0 0 0 
0 0 0 0 0 0 0 0 0 
0 0 0 0 0 0 0 0 0 
0 0 0 0 0 0 0 0 0 
0 0 0 0 0 0 0 0 0 
0 0 0 0 0 0 0 0 0 
0 0 0 0 0 0 0 0 0 
0 0 0 0 0 0 0 0 0 
0 0 0 0 0 0 0 0 0 
0 0 0 0 0 0 0 0 0 
0 0 0 0 0 0 0 0 0 
0 0 0 0 0 0 0 0 0 
0 0 0 0 0 0 0 0 0 
0 0 0 0 0 0 0 0 0 
0 0 0 0 0 0 0 0 0 
0 0 0 0 0 0 0 0 0 
0 0 0 0 0 0 0 0 0 
0 0 0 0 0 0 0 0 0 
0 0 0 0 0 0 0 0 0 
0 0 0 0 0 0 0 0 0 
0 0 0 0 0 0 0 0 0 
0 0 0 0 0 0 0 0 0 
0 0 0 0 0 0 0 0 0 
0 0 0 0 0 0 0 0 0 

B_gradient_mag 1 648 double
0 0 0 0 0 0 0 0 0 
0 0 0 0 0 0 0 0 0 
0 0 0 0 0 0 0 0 0 
0 0 0 0 0 0 0 0 0 
0 0 0 0 0 0 0 0 0 
0 0 0 0 0 0 0 0 0 
0 0 0 0 0 0 0 0 0 
0 0 0 0 0 0 0 0 0 
0 0 0 0 0 0 0 0 0 
0 0 0 0 0 0 0 0 0 
0 0 0 0 0 0 0 0 0 
0 0 0 0 0 0 0 0 0 
0 0 0 0 0 0 0 0 0 
0 0 0 0 0 0 0 0 0 
0 0 0 0 0 0 0 0 0 
0 0 0 0 0 0 0 0 0 
0 0 0 0 0 0 0 0 0 
0 0 0 0 0 0 0 0 0 
0 0 0 0 0 0 0 0 0 
0 0 0 0 0 0 0 0 0 
0 0 0 0 0 0 0 0 0 
0 0 0 0 0 0 0 0 0 
0 0 0 0 0 0 0 0 0 
0 0 0 0 0 0 0 0 0 
0 0 0 0 0 0 0 0 0 
0 0 0 0 0 0 0 0 0 
0 0 0 0 0 0 0 0 0 
0 0 0 0 0 0 0 0 0 
0 0 0 0 0 0 0 0 0 
0 0 0 0 0 0 0 0 0 
0 0 0 0 0 0 0 0 0 
0 0 0 0 0 0 0 0 0 
0 0 0 0 0 0 0 0 0 
0 0 0 0 0 0 0 0 0 
0 0 0 0 0 0 0 0 0 
0 0 0 0 0 0 0 0 0 
0 0 0 0 0 0 0 0 0 
0 0 0 0 0 0 0 0 0 
0 0 0 0 0 0 0 0 0 
0 0 0 0 0 0 0 0 0 
0 0 0 0 0 0 0 0 0 
0 0 0 0 0 0 0 0 0 
0 0 0 0 0 0 0 0 0 
0 0 0 0 0 0 0 0 0 
0 0 0 0 0 0 0 0 0 
0 0 0 0 0 0 0 0 0 
0 0 0 0 0 0 0 0 0 
0 0 0 0 0 0 0 0 0 
0 0 0 0 0 0 0 0 0 
0 0 0 0 0 0 0 0 0 
0 0 0 0 0 0 0 0 0 
0 0 0 0 0 0 0 0 0 
0 0 0 0 0 0 0 0 0 
0 0 0 0 0 0 0 0 0 
0 0 0 0 0 0 0 0 0 
0 0 0 0 0 0 0 0 0 
0 0 0 0 0 0 0 0 0 
0 0 0 0 0 0 0 0 0 
0 0 0 0 0 0 0 0 0 
0 0 0 0 0 0 0 0 0 
0 0 0 0 0 0 0 0 0 
0 0 0 0 0 0 0 0 0 
0 0 0 0 0 0 0 0 0 
0 0 0 0 0 0 0 0 0 
0 0 0 0 0 0 0 0 0 
0 0 0 0 0 0 0 0 0 
0 0 0 0 0 0 0 0 0 
0 0 0 0 0 0 0 0 0 
0 0 0 0 0 0 0 0 0 
0 0 0 0 0 0 0 0 0 
0 0 0 0 0 0 0 0 0 
0 0 0 0 0 0 0 0 0 

