# vtk DataFile Version 5.1
Generated by LIGGGHTS
ASCII
DATASET POLYDATA
POINTS 648 float
-0.0105296 -0.0314142 0.00148382 0.00689113 -0.0107816 0.00116239 -0.0198564 -0.00683511 0.00141158 
0.0246705 0.0064451 0.0013881 -0.0426568 0.00723228 0.00130092 0.0212596 0.00979192 0.00133144 
0.0143092 0.0139794 0.00142233 -0.0428902 -0.0449088 0.00228941 -0.0335565 -0.0442122 0.00165559 
0.0156715 -0.0391733 0.00120255 0.00798734 -0.0367051 0.0023346 0.0308099 -0.0378456 0.00222585 
0.0333162 -0.0342631 0.00211027 0.000892701 -0.0263701 0.00267078 0.033456 -0.0256735 0.00137517 
0.039775 -0.0211058 0.00184243 -0.0100897 -0.0180162 0.00156366 -0.0257955 -0.0157834 0.00239388 
-0.00444012 -0.0151621 0.00181496 -0.0117656 -0.0138394 0.00166635 0.0350526 -0.0102353 0.00184594 
0.0109664 -0.00760095 0.00188448 -0.0129003 -0.00574839 0.00256492 0.00937085 -0.00418454 0.00184511 
0.0180565 -0.00487531 0.00209988 0.021323 -0.00444137 0.00108689 -0.0141425 -0.00311887 0.00179411 
0.0384376 0.000848974 0.00216407 0.0449494 0.00392273 0.00228658 0.0292006 0.00433004 0.0015581 
0.021602 0.00540593 0.00242532 0.0221269 0.00728552 0.00266915 0.0340899 0.00882812 0.00111211 
0.0398091 0.011618 0.00115102 -0.0310202 0.0131063 0.00254871 0.0248423 0.0143007 0.00154722 
-0.022709 0.0198803 0.00248833 0.0123926 0.0218243 0.00160036 0.03506 0.0228899 0.00202646 
-0.00782209 0.0241861 0.00191278 0.0181332 0.0246356 0.00235188 0.0307708 0.0242663 0.00110126 
0.0167463 0.0251763 0.00230004 -0.0200898 0.0311527 0.00102596 0.0364634 0.0310238 0.00283007 
-0.0073504 0.0318329 0.00155779 0.0297434 0.0373158 0.00271356 -0.0390027 0.0421086 0.00237142 
-0.0308094 -0.0435702 0.00334391 -0.042922 -0.0404536 0.00301732 -0.0248652 -0.040212 0.00291687 
-0.00302782 -0.0385948 0.00262715 -0.0266532 -0.0301716 0.00212732 0.0280204 -0.0311414 0.00300814 
-0.0388614 -0.0136303 0.0019652 -0.0112192 -0.0104501 0.0032042 0.00743742 -0.00926665 0.00322715 
0.013874 -0.00963069 0.00290796 -0.00433253 -0.00676057 0.00356386 -0.0179231 -0.00300678 0.00288765 
-0.0214351 0.00957734 0.00302639 0.00517921 0.0169249 0.00290632 -0.0360536 0.0173104 0.00228077 
0.0090081 0.0191686 0.00255146 -0.0264781 0.032823 0.00293684 -0.00674967 -0.0416523 0.0044554 
0.0286804 -0.00919085 0.00449724 -0.0260142 0.00017485 0.00404779 8.23501e-07 0.0138406 0.00401604 
0.0215224 0.0171285 0.00383403 -0.0153727 0.020636 0.00427237 0.000162142 0.0251126 0.00347874 
-0.00563177 0.0268155 0.0036334 0.0038092 0.0311583 0.00350809 0.01325 0.0319187 0.00331135 
0.0165329 0.0385374 0.00349704 0.00594186 -0.0351889 0.00459502 0.00577088 -0.0287415 0.0056717 
-0.0408326 -0.0234295 0.00550059 -0.0108877 -0.0188832 0.00543191 0.00156248 -0.0194187 0.00479368 
0.0030191 -0.0179247 0.00510498 0.0188762 0.00181355 0.00508527 0.0305447 0.00486582 0.00478324 
-0.0287984 0.00559412 0.00513499 -0.0282566 0.021284 0.00505215 0.0251972 0.0393087 0.00537148 
-0.0334706 -0.0396012 0.0068063 0.0336491 -0.0197505 0.00686194 -0.0339565 -0.0167518 0.00686875 
-0.0269092 -0.0125643 0.00591787 -0.0214415 -0.007536 0.00658259 0.00417698 0.0024455 0.00594183 
0.0287781 0.014071 0.00633002 -0.0313244 0.0314049 0.00657504 -0.0240719 -0.0268296 0.00831298 
-0.0426154 -0.0165053 0.00798882 0.0223879 -0.0163393 0.00799622 -0.00702036 -0.00121172 0.00797759 
-0.00783961 -0.000387029 0.00837909 -0.00967086 0.00179773 0.00789408 -0.034865 0.0142961 0.00763776 
-0.0386663 0.0253433 0.00841769 -0.041477 0.0364172 0.00739308 0.0221021 0.0401282 0.00827123 
0.0436787 -0.0219137 0.00932592 0.0277003 -0.0107969 0.00917504 -0.0267569 0.0263983 0.0088557 
0.0414821 -0.0410789 0.0100702 -0.0232422 -0.0321576 0.00998324 0.0404767 -0.0183151 0.010178 
0.0251729 -0.00985964 0.0109803 0.0228765 0.00606581 0.0103225 0.0399323 0.0117688 0.0105823 
-0.00739359 0.0259593 0.0107025 0.0191509 0.0299648 0.0105516 0.0444958 0.0309554 0.0098993 
0.00284552 0.0345861 0.010225 -0.0112537 0.0395394 0.0109401 -0.0205282 0.0432397 0.0110432 
-0.0439713 -0.0357399 0.0114074 0.0244271 -0.0334586 0.0120461 0.0268369 -0.0315202 0.0120973 
-0.0448384 -0.0296834 0.0117714 0.00623721 -0.0211799 0.0116841 -0.0329121 -0.0139828 0.012128 
0.0011249 0.00615697 0.0117295 0.030759 0.00580352 0.0113675 0.00395304 0.0187088 0.0111883 
-0.0357156 0.0282031 0.0112178 0.0163992 0.0415262 0.0121115 -0.044759 -0.0437614 0.0127259 
-0.0370475 -0.0370945 0.0131584 0.032808 -0.025967 0.0135943 0.0268005 -0.0146468 0.01279 
0.0176437 -0.0119747 0.0124537 -0.038829 -0.00978443 0.0136465 -0.0304645 -0.00701594 0.0136454 
-0.042786 -0.00359954 0.0132643 -0.0170872 0.00564833 0.0125818 -0.00279986 0.0127222 0.0130735 
0.0418335 0.0161761 0.0132689 0.00128112 0.0217131 0.0132936 -0.0409258 0.0305044 0.0136418 
0.00805094 0.0422278 0.0133182 0.0244803 -0.0401788 0.0143911 0.040047 -0.0404588 0.0139588 
-0.0427235 -0.0332389 0.0143527 0.023158 -0.0340207 0.0139473 -0.0317771 -0.0175651 0.0138503 
0.039455 -0.000236508 0.0149191 0.0142017 0.0079404 0.0144675 0.0202046 0.00840095 0.0147739 
-0.0408092 0.00981999 0.014651 0.014866 0.0127598 0.0139628 -0.0214239 0.0189608 0.0138982 
0.0226957 0.0260881 0.0138379 0.00953871 0.0271324 0.0148522 -0.00435696 0.0325462 0.0138578 
-0.027409 -0.0433703 0.0151831 -0.00670669 -0.0394183 0.0159656 0.00879071 -0.0344865 0.0150065 
-0.0262624 -0.032473 0.0155806 -0.00580099 -0.0272788 0.0151126 -0.00553214 -0.00871323 0.0160452 
0.0147261 0.00139147 0.0158248 -0.0392616 0.00972366 0.0152601 0.0226738 0.0181095 0.015561 
0.0146363 0.0223077 0.0156646 -0.0312382 0.0393096 0.0159676 0.0399235 0.0434757 0.0157655 
-0.00340304 -0.0448428 0.0167305 -0.0338231 -0.0250135 0.0167414 0.0363266 -0.0194176 0.0169873 
-0.0222502 -0.00974669 0.0165409 -0.037077 0.00611456 0.016501 -0.0101256 0.00978275 0.0173418 
-0.0429188 0.0135204 0.016545 -0.0431379 0.0208085 0.0171899 -0.0114472 0.026715 0.0170185 
-0.0204621 -0.0172006 0.0177359 0.0198229 -0.0156851 0.0185399 0.0249316 -0.014475 0.017635 
-0.0196799 -0.00931279 0.0182184 -0.0135858 -0.00672635 0.0184248 -0.00723413 0.00605583 0.018415 
0.0336082 0.013194 0.0188569 -0.0349287 0.0230684 0.0181309 -0.0375088 0.0393741 0.0188489 
0.0248068 -0.0428986 0.0200339 0.0418836 -0.0421436 0.0196814 0.0238162 -0.0409762 0.0197421 
0.000822496 -0.0363122 0.0189123 0.00802514 -0.031483 0.0198339 -0.0240024 -0.0280603 0.018994 
0.0306875 -0.0259396 0.0199779 0.0362421 0.00170773 0.0194988 0.0404406 0.00462082 0.0196154 
0.0197977 0.00963841 0.0200999 0.0388885 0.0193682 0.0194976 0.0238959 0.0383247 0.0199027 
-0.0346971 -0.0446764 0.0201894 -0.0248654 -0.0427111 0.0211525 -0.018434 -0.0405477 0.0210219 
-0.0108246 -0.0388127 0.021425 0.0397687 -0.0374633 0.0210509 0.03382 -0.0268981 0.0208716 
0.00538025 -0.0241403 0.0204711 -0.0416237 0.00110806 0.0203139 0.0261916 0.0119357 0.02093 
-0.00307286 0.0144526 0.0212623 0.00976298 0.0163696 0.020321 0.0122157 0.0191756 0.0208839 
0.0424299 -0.0409921 0.02187 0.0102479 -0.024092 0.0220073 -0.0225401 -0.0213878 0.0219227 
-0.00827992 -0.020547 0.0225075 -0.0296942 -0.0196153 0.022305 -0.00747582 -0.00609419 0.0214865 
0.00523139 -0.00599236 0.022565 0.0128044 0.0127337 0.0216695 -0.0421793 0.0225172 0.0222178 
-0.0190887 0.0269029 0.0226032 -0.0376379 0.0294143 0.0225821 0.00372347 0.0304157 0.0226893 
0.0311732 0.0371467 0.0215332 -0.00973825 0.0391656 0.022094 0.0145521 -0.0432303 0.0238462 
0.0403752 -0.0143085 0.0230205 0.0131353 -0.00504642 0.0238846 0.0290986 -0.000251763 0.0239855 
0.0407777 0.000744206 0.0234918 0.0283387 0.00890506 0.0231523 0.00861143 0.0123591 0.0239525 
0.0121458 0.0151918 0.0237481 -0.0245447 0.0378537 0.0232508 0.0222253 0.0407186 0.0229304 
-0.0181988 0.0434549 0.0229077 0.0348044 -0.042095 0.0248259 -0.0376897 -0.0314333 0.0252734 
0.0394323 -0.021923 0.0252285 0.00548761 -0.0197918 0.0243714 0.0313953 -0.00974065 0.0241818 
0.0406218 -0.0100941 0.024334 0.0323225 0.00436429 0.0253199 0.0250346 0.00641518 0.0248721 
-0.00867948 0.0139924 0.025007 -0.0196462 0.0155185 0.024219 -0.023041 0.0197144 0.0243305 
0.00519606 0.0301696 0.0251052 0.00390562 0.0317225 0.0249198 0.00317215 0.0343196 0.0246348 
0.0352379 0.0438995 0.024123 -0.0168273 -0.0360331 0.0255481 -0.0263426 -0.0292431 0.0258176 
0.0233461 -0.0214624 0.0259237 0.0161928 -0.00760918 0.0265823 -0.0127911 0.0299546 0.0265385 
-0.0108954 0.0304 0.0263608 0.0231674 0.0340949 0.0264315 -0.0430551 -0.0267583 0.0268567 
-0.0186412 -0.0134353 0.0268662 -0.0120059 -0.00345367 0.0276501 -0.00896956 -0.00131708 0.0274607 
0.0441199 0.0136981 0.027865 0.000954082 0.0152563 0.0271925 0.0405446 0.0433429 0.0274911 
0.0181024 -0.0433049 0.0282595 0.0131812 -0.0427533 0.0284678 0.00985621 -0.0367022 0.0292555 
0.0449741 -0.0303513 0.0291592 -0.0327621 -0.0121928 0.0285519 0.0387156 -0.00624884 0.0287828 
0.00975646 -0.00313231 0.0284484 0.0116524 0.00206193 0.0281292 0.0311878 0.014057 0.0290162 
0.00126512 0.0228658 0.029038 0.026696 0.03017 0.0291464 0.0193546 0.0324404 0.0286188 
-0.00585061 0.0388609 0.0286516 0.0352701 0.0439749 0.0284975 0.00558373 -0.0242787 0.0303344 
-0.0127621 -0.0231756 0.0304185 0.038292 -0.016257 0.0301645 0.0323803 -0.0150629 0.0298312 
-0.00254943 -0.00825679 0.0303311 -0.0325416 0.00283857 0.0301806 0.00243665 0.00282786 0.0301821 
-0.00841171 0.0143034 0.0299405 0.0407412 0.0174253 0.0295956 -0.0122989 0.0222019 0.0299166 
0.0362273 0.0220011 0.0300425 0.021223 0.0244832 0.0305435 0.0438582 0.0244724 0.0301023 
0.0166138 -0.0412108 0.0312559 -0.0233761 -0.031813 0.0310262 -0.0220587 -0.0306349 0.0307656 
-0.0414327 -0.0290659 0.030779 0.0346338 -0.0290927 0.0313419 0.0240101 -0.0228809 0.0314998 
0.035159 -0.023363 0.0307026 -0.0147645 -0.0165889 0.031866 -0.0344646 -0.00725539 0.0306549 
0.0180458 -0.00470109 0.0307251 -0.0107529 -0.00365687 0.0308496 -0.00941413 -0.00330341 0.0313092 
-0.0283489 -0.000417126 0.0311519 -0.025141 0.00447188 0.0307889 0.0396593 0.013993 0.0312505 
0.0398418 0.0217469 0.0314035 0.0395905 0.0272142 0.0306356 0.0372507 0.0318783 0.0311699 
-0.00196307 0.0366495 0.0308415 -0.0309963 -0.0355024 0.0322449 -0.00863888 -0.0237376 0.032948 
0.0334462 -0.00930086 0.0318995 0.0140084 -6.89735e-05 0.032085 -0.009285 0.00693532 0.032914 
-0.0105861 0.00898083 0.0320868 0.0211953 0.00966092 0.0323294 -0.0148746 0.0223253 0.0323543 
-0.0267196 0.0236159 0.03297 -0.0337286 0.0337045 0.0329644 0.0294278 0.0431452 0.0321523 
0.00528787 0.0432844 0.0322672 -0.00396528 -0.0444182 0.0335391 0.0195053 -0.043722 0.0343825 
-0.0386911 -0.0311434 0.0333694 -0.00401126 -0.00720159 0.0334669 0.0404774 -0.00688032 0.0332452 
-0.0408474 -0.00214648 0.0343519 0.0168839 -0.00210364 0.0343795 -0.0365733 0.0119208 0.0335535 
0.00243185 0.0120975 0.0337514 0.018015 0.0183735 0.0336073 0.0191028 0.0315895 0.0342134 
0.00727395 0.0332762 0.0341804 0.00201585 0.0404036 0.0336805 -0.0136468 -0.0412372 0.0356535 
-0.0161578 -0.0337243 0.035671 0.0155599 -0.0240909 0.0347194 -0.0210835 -0.0209207 0.0353083 
-0.0033641 -0.0204173 0.0354534 0.0200271 -0.00425623 0.0352166 -0.0376932 -0.000132947 0.0352866 
-0.0153419 -0.00108619 0.0345433 0.0260144 0.00429017 0.0348545 -0.00598638 0.00689803 0.0350708 
-0.0425374 0.0333781 0.0354984 0.00888594 0.0360502 0.0355824 0.0350196 -0.0250011 0.0363449 
0.00179778 -0.0247441 0.0359025 0.0144468 -0.013247 0.0369458 -0.00528066 -0.0121118 0.0364021 
0.0242571 -0.0100823 0.0358748 -0.0198668 -0.00211416 0.0364472 -0.0281455 -0.00127675 0.0362035 
0.0183943 0.00266245 0.0367395 -0.0429246 0.00657681 0.0359058 0.00533928 0.00728904 0.0361991 
-0.0128609 0.0265935 0.0359745 0.0278529 0.0342296 0.036642 0.0030545 0.0369981 0.0366564 
-0.0133259 0.0414802 0.0365206 -0.0177803 -0.0340186 0.0377133 0.0153133 -0.0285941 0.0375763 
0.0164647 -0.0275391 0.0379913 0.0347572 -0.0260666 0.0374614 -0.0253129 -0.0039775 0.0383047 
0.00664535 -0.00164817 0.0377514 -0.0231109 0.0157017 0.0375839 0.00742845 0.0199749 0.037446 
-0.0324762 0.0230005 0.0382432 0.0416479 -0.0439733 0.0389214 0.0406519 -0.0427256 0.0391692 
0.0077947 -0.0345433 0.0387753 0.0204492 -0.0194639 0.0385583 -0.0341597 -0.0122829 0.0386648 
-0.0233311 0.00384073 0.0390503 0.0332757 0.00539899 0.0387797 -0.019893 0.00878872 0.039619 
-0.0287332 0.0215601 0.0389613 -0.0295899 0.0232577 0.0393119 -0.00883869 0.0381834 0.0390289 
0.0281745 0.039089 0.038878 0.00231692 -0.0294453 0.0400086 -0.0346801 -0.0287009 0.0407085 
0.0115492 -0.0227248 0.0408695 0.0132043 -0.01541 0.040957 -0.0279963 -0.0141356 0.0402747 
-0.0261639 0.00337815 0.0410551 0.00474506 0.0103043 0.0408649 -0.00071691 0.0108932 0.0397 
0.00264144 0.0247174 0.0400688 0.0397191 0.0283771 0.0403763 0.0380057 0.0324307 0.0403473 
0.00367032 0.0371324 0.040883 -0.0390775 0.0447256 0.0398808 -0.0273176 -0.0361067 0.0412807 
0.0253763 -0.011051 0.041904 0.0352883 -0.0103067 0.0413765 0.0448793 -0.00396119 0.0411398 
0.0189244 0.00254502 0.0410576 0.032558 0.00153523 0.0418974 0.0358407 0.00533501 0.041956 
-0.0408306 0.00999374 0.0414757 0.0234497 0.00978487 0.041059 0.027557 0.009967 0.0418179 
-0.00808524 0.0113378 0.041182 -0.0350204 0.0121089 0.0413068 -0.0408838 0.0159645 0.0417583 
-0.0122189 0.0175978 0.0418661 0.0258603 0.0235991 0.0416771 0.0337272 0.0324898 0.0418979 
-0.00647711 0.0391566 0.0413715 0.0114086 0.0440135 0.0417983 0.0171919 0.0449185 0.0414806 
0.00849583 -0.0405939 0.0433719 -0.0195638 -0.0385913 0.0426149 0.0325128 -0.03812 0.0426295 
0.0195647 -0.0366528 0.0423124 -0.0350278 -0.0224863 0.0434116 -0.0164034 -0.0216001 0.0433895 
-0.0328213 -0.0176588 0.0434223 -0.015814 -0.0152491 0.0435336 -0.0211095 -0.00770044 0.0428494 
-0.0137512 0.00384646 0.0431792 -0.0442311 0.00821601 0.0425722 0.00757299 0.0192258 0.0435781 
0.0434247 0.0295768 0.0427421 0.0040127 0.0314243 0.0435328 0.0211706 0.0445491 0.0429869 
-0.0389435 -0.0425966 0.0445567 0.0346336 -0.0325969 0.0441821 -0.0408642 -0.0154151 0.0438159 
0.0375745 -0.0151367 0.0436921 -0.0150798 -0.00698339 0.0443927 -0.0131355 0.00164571 0.0445398 
0.0324887 0.00836074 0.044222 0.0350116 0.0207306 0.0444621 0.000425919 -0.0415728 0.0454775 
-0.0169239 -0.0402939 0.0455177 0.043014 -0.0343178 0.0458965 -0.0207996 -0.0190456 0.0449722 
0.0252581 -0.0163235 0.0459974 0.00886689 -0.0141191 0.0449477 -0.0253401 -0.0103599 0.0452372 
-0.040885 -0.00406647 0.0459236 0.0420414 -0.00101026 0.0452553 -0.0406381 0.00555966 0.0452578 
-0.0403489 0.00598291 0.0455886 0.00789931 0.0136568 0.0449997 0.012949 0.0143048 0.04493 
-0.00443291 0.0160613 0.046094 -0.0436572 0.0238848 0.0456232 0.00834461 0.0278725 0.0455058 
-0.0407273 0.0358476 0.0455204 0.0170579 0.0421878 0.0448846 -0.00161929 -0.0353994 0.0468573 
0.0355384 -0.0354155 0.046271 0.027474 -0.0338615 0.0476381 -0.0210092 -0.0320472 0.0461944 
0.023019 -0.0293484 0.0464123 0.0210005 -0.0239559 0.0465696 -0.027449 0.00511055 0.0469176 
-0.01547 0.00642247 0.0465052 -0.0287818 0.014969 0.0472174 -0.0363159 0.0185996 0.0472468 
-0.0214233 0.0285543 0.0465787 -0.00750544 0.0361316 0.047224 -0.0317519 -0.0446953 0.0486248 
-0.0349861 -0.0412827 0.0482694 -0.0289295 -0.0389067 0.0478648 -0.0179089 -0.0346335 0.0481566 
-8.23525e-05 -0.034098 0.0483881 0.0403097 -0.0347888 0.0476531 -0.00682403 -0.0314098 0.0487738 
0.0134129 -0.0192809 0.0483642 -0.00710141 -0.0133745 0.0484975 0.00978397 0.00922321 0.0479425 
-0.0394276 0.0109375 0.04882 0.0440772 0.0154938 0.0480159 -0.0286532 0.0159811 0.0480129 
-0.00317984 0.0164631 0.048751 0.00546842 0.0177814 0.0484105 0.0256029 0.0175394 0.0483463 
-0.00472634 0.0344449 0.0485929 -0.0406141 -0.0405112 0.0499872 -0.0401314 -0.0280847 0.0488337 
0.0156293 -0.0283842 0.0498222 0.0272875 -0.0186725 0.0490486 0.0296492 -0.015918 0.0490686 
-0.0332593 0.000859011 0.0498398 0.0110904 0.00657535 0.0498773 -0.0161548 0.0159009 0.0495783 
-0.0132251 0.0252506 0.0491638 -0.0260391 0.0304395 0.0498628 -0.0359241 0.0337864 0.0499123 
-0.00586029 -0.0338127 0.0512087 0.010226 -0.0308634 0.0510765 0.0109547 -0.0235646 0.0511564 
0.0347312 -0.012978 0.0503385 0.0218314 -0.00971151 0.050671 0.0129906 -0.00677597 0.0504079 
0.00127443 -0.000618905 0.0502909 0.0101693 0.00555192 0.0507081 0.00418285 0.0112423 0.0511363 
-0.00831541 0.0129665 0.0501227 -0.0436896 0.0195853 0.0513218 -0.0138035 0.0240512 0.0503992 
0.0132394 0.0345575 0.0504081 -0.039126 0.0399637 0.051256 -0.0190394 0.0446837 0.0509053 
0.0201641 -0.0426709 0.0515795 -0.0234086 -0.038644 0.0519162 -0.0323128 -0.0219837 0.05198 
-0.0313057 -0.0141988 0.052187 -0.0227164 -0.0141288 0.0527139 0.0322358 -0.0130621 0.0527205 
-0.042331 -0.00792816 0.052576 -0.0101373 -0.00698039 0.0519361 -0.000610522 -0.00103491 0.0528203 
0.0147823 -0.0446949 0.0538038 -0.0225361 -0.0441701 0.0530978 0.0307351 -0.0355434 0.0527123 
-0.038621 -0.0229432 0.0536172 0.0184681 -0.0172117 0.0535431 0.0127657 -0.00746761 0.0528735 
-0.00720807 -0.00608605 0.0527451 0.0386193 -0.00496685 0.0530037 -0.0395569 -0.00227866 0.0532405 
-0.0349081 0.00917553 0.0536162 -0.0406313 0.0295913 0.0530088 -0.0219587 0.0304934 0.0529955 
-0.0379532 0.0399341 0.0532437 -0.00785852 0.041878 0.0534201 0.0430506 0.0422314 0.0537305 
-0.00338111 -0.0363358 0.0542079 0.0392765 -0.0300093 0.0548099 -0.0136128 -0.00979682 0.0547981 
-0.0193355 0.018129 0.0546436 -0.014478 0.0275162 0.054523 0.0214431 0.0335886 0.0545275 
0.0338942 -0.0410147 0.0564005 -0.0177429 -0.0346724 0.0556294 -0.0291427 -0.0219343 0.0564013 
-0.0152062 0.0294088 0.0567139 0.0414517 -0.0114994 0.0580732 0.0275881 -0.00673863 0.0573074 
0.0293019 -0.00298432 0.0573683 -0.00552594 0.00555795 0.0575994 0.0433459 -0.0353282 0.0587402 
-0.0396817 -0.0304797 0.0582233 -0.0432264 -0.0264101 0.0582719 0.0054016 -0.025334 0.0584733 
-0.0139777 -0.0223984 0.0586405 0.0282033 -0.0178095 0.0582251 -0.0405162 -0.0161033 0.0592259 
-0.0343844 -0.0078404 0.0588775 -0.0160452 -0.0323821 0.0599457 0.00264867 -0.0338128 0.0614039 
0.0101031 -0.0273014 0.0619329 -0.00229178 0.0020129 0.0625355 0.00976854 0.0197772 0.0624319 
0.0218308 -0.0192565 0.0640604 0.0277548 0.0042931 0.0641752 -0.032208 0.0306075 0.0633447 
0.0354139 0.0312817 0.063744 0.0262592 -0.0217201 0.065592 -0.0422696 0.0340949 0.0655939 
-0.0183202 -0.0175475 0.0669032 0.023953 0.00820576 0.0664989 -0.00446216 -0.0255279 0.0678305 
0.0323804 -0.0132471 0.0680988 0.00153271 0.0201988 0.0677184 -0.0393221 -0.0167834 0.0694194 
0.0342493 -0.0115037 0.068617 -0.00474481 -0.00600267 0.0685348 0.0133448 0.00646544 0.0686997 
-0.0368667 0.0306348 0.0689307 0.0412685 -0.0295104 0.0699076 -0.0326334 -0.00963456 0.0699715 
0.00314898 0.00491531 0.0707764 0.012585 0.0155082 0.0709185 0.0152528 0.033152 0.0698302 
0.0262096 -0.0449372 0.0718085 0.0223025 -0.0112244 0.0719876 0.0153641 0.0146287 0.0722702 
-0.0269229 0.0267788 0.0719609 -0.0160353 0.0448572 0.071556 0.0114764 0.0140289 0.073222 
0.0339316 -0.041715 0.0748029 -0.0207563 -0.0111167 0.0741694 0.00265626 0.00371614 0.0750393 
-0.0213481 0.0319153 0.0743244 0.00513794 0.0433856 0.0759713 -0.0449336 -0.00957357 0.0770444 
-0.0102477 0.0267602 0.0781865 0.0164577 0.0353116 0.0797575 0.0185094 -0.042363 0.0810669 
-0.0329608 -0.0218045 0.080608 -0.0371624 0.011326 0.0804226 0.0323341 0.0191974 0.0805456 
0.0439232 0.0371117 0.0807527 -0.0440308 0.0448256 0.0812763 -0.0336946 -0.0248459 0.0827234 
0.0302919 -0.0148257 0.0824778 -0.024842 -0.00884532 0.0819397 0.0341086 -0.0368686 0.0832357 
-0.0328109 -0.0226975 0.0834458 0.0414834 -0.0181367 0.0831079 0.0379188 0.0120326 0.0835072 
-0.0420316 -0.0145538 0.0844316 -0.0281804 0.0418824 0.0844044 0.0289145 -0.0340196 0.0860755 
-0.015788 -0.0282898 0.0856215 0.0320014 0.00756294 0.0858345 0.0154702 -0.00154679 0.0888473 
-0.0144089 0.0201081 0.0883108 -0.0437633 0.0406561 0.0900786 -0.0419519 -0.0259749 0.0915633 
-0.0386256 -0.00983966 0.0916672 0.0104707 0.0313218 0.0910898 0.00357123 -0.00830953 0.094078 
0.00635633 0.000852437 0.0944744 -0.0385899 -0.0405251 0.0952351 0.0414788 -0.00521487 0.094683 
-0.0197415 0.0344175 0.0952979 0.00308146 0.0401468 0.0969246 -0.00521279 -0.0413279 0.0982894 
-0.0356048 -0.000104637 0.0976762 -0.0296003 0.0277025 0.0974403 0.0131273 0.040817 0.0993847 
-0.0081225 0.0151775 0.101058 -0.0170112 0.0231088 0.100526 0.0433204 -0.0141837 0.102078 
-0.0245993 0.0193658 0.10115 -0.0256005 0.0215871 0.101737 -0.0155539 0.0359545 0.101518 
0.0419483 -0.0348097 0.102478 0.0282359 -0.00877456 0.102869 -0.00757157 0.00454821 0.104925 
0.0188903 -0.0308528 0.108761 0.00741479 -0.0295782 0.111246 -0.0207679 -0.0256315 0.110466 
0.00643655 -0.000956063 0.110239 0.00347554 0.00338662 0.110871 -0.00254916 -0.00379952 0.113198 

VERTICES 649 648
OFFSETS vtktypeint64
0 1 2 3 4 5 6 7 8 
9 10 11 12 13 14 15 16 17 
18 19 20 21 22 23 24 25 26 
27 28 29 30 31 32 33 34 35 
36 37 38 39 40 41 42 43 44 
45 46 47 48 49 50 51 52 53 
54 55 56 57 58 59 60 61 62 
63 64 65 66 67 68 69 70 71 
72 73 74 75 76 77 78 79 80 
81 82 83 84 85 86 87 88 89 
90 91 92 93 94 95 96 97 98 
99 100 101 102 103 104 105 106 107 
108 109 110 111 112 113 114 115 116 
117 118 119 120 121 122 123 124 125 
126 127 128 129 130 131 132 133 134 
135 136 137 138 139 140 141 142 143 
144 145 146 147 148 149 150 151 152 
153 154 155 156 157 158 159 160 161 
162 163 164 165 166 167 168 169 170 
171 172 173 174 175 176 177 178 179 
180 181 182 183 184 185 186 187 188 
189 190 191 192 193 194 195 196 197 
198 199 200 201 202 203 204 205 206 
207 208 209 210 211 212 213 214 215 
216 217 218 219 220 221 222 223 224 
225 226 227 228 229 230 231 232 233 
234 235 236 237 238 239 240 241 242 
243 244 245 246 247 248 249 250 251 
252 253 254 255 256 257 258 259 260 
261 262 263 264 265 266 267 268 269 
270 271 272 273 274 275 276 277 278 
279 280 281 282 283 284 285 286 287 
288 289 290 291 292 293 294 295 296 
297 298 299 300 301 302 303 304 305 
306 307 308 309 310 311 312 313 314 
315 316 317 318 319 320 321 322 323 
324 325 326 327 328 329 330 331 332 
333 334 335 336 337 338 339 340 341 
342 343 344 345 346 347 348 349 350 
351 352 353 354 355 356 357 358 359 
360 361 362 363 364 365 366 367 368 
369 370 371 372 373 374 375 376 377 
378 379 380 381 382 383 384 385 386 
387 388 389 390 391 392 393 394 395 
396 397 398 399 400 401 402 403 404 
405 406 407 408 409 410 411 412 413 
414 415 416 417 418 419 420 421 422 
423 424 425 426 427 428 429 430 431 
432 433 434 435 436 437 438 439 440 
441 442 443 444 445 446 447 448 449 
450 451 452 453 454 455 456 457 458 
459 460 461 462 463 464 465 466 467 
468 469 470 471 472 473 474 475 476 
477 478 479 480 481 482 483 484 485 
486 487 488 489 490 491 492 493 494 
495 496 497 498 499 500 501 502 503 
504 505 506 507 508 509 510 511 512 
513 514 515 516 517 518 519 520 521 
522 523 524 525 526 527 528 529 530 
531 532 533 534 535 536 537 538 539 
540 541 542 543 544 545 546 547 548 
549 550 551 552 553 554 555 556 557 
558 559 560 561 562 563 564 565 566 
567 568 569 570 571 572 573 574 575 
576 577 578 579 580 581 582 583 584 
585 586 587 588 589 590 591 592 593 
594 595 596 597 598 599 600 601 602 
603 604 605 606 607 608 609 610 611 
612 613 614 615 616 617 618 619 620 
621 622 623 624 625 626 627 628 629 
630 631 632 633 634 635 636 637 638 
639 640 641 642 643 644 645 646 647 
648 
CONNECTIVITY vtktypeint64
0 1 2 3 4 5 6 7 8 
9 10 11 12 13 14 15 16 17 
18 19 20 21 22 23 24 25 26 
27 28 29 30 31 32 33 34 35 
36 37 38 39 40 41 42 43 44 
45 46 47 48 49 50 51 52 53 
54 55 56 57 58 59 60 61 62 
63 64 65 66 67 68 69 70 71 
72 73 74 75 76 77 78 79 80 
81 82 83 84 85 86 87 88 89 
90 91 92 93 94 95 96 97 98 
99 100 101 102 103 104 105 106 107 
108 109 110 111 112 113 114 115 116 
117 118 119 120 121 122 123 124 125 
126 127 128 129 130 131 132 133 134 
135 136 137 138 139 140 141 142 143 
144 145 146 147 148 149 150 151 152 
153 154 155 156 157 158 159 160 161 
162 163 164 165 166 167 168 169 170 
171 172 173 174 175 176 177 178 179 
180 181 182 183 184 185 186 187 188 
189 190 191 192 193 194 195 196 197 
198 199 200 201 202 203 204 205 206 
207 208 209 210 211 212 213 214 215 
216 217 218 219 220 221 222 223 224 
225 226 227 228 229 230 231 232 233 
234 235 236 237 238 239 240 241 242 
243 244 245 246 247 248 249 250 251 
252 253 254 255 256 257 258 259 260 
261 262 263 264 265 266 267 268 269 
270 271 272 273 274 275 276 277 278 
279 280 281 282 283 284 285 286 287 
288 289 290 291 292 293 294 295 296 
297 298 299 300 301 302 303 304 305 
306 307 308 309 310 311 312 313 314 
315 316 317 318 319 320 321 322 323 
324 325 326 327 328 329 330 331 332 
333 334 335 336 337 338 339 340 341 
342 343 344 345 346 347 348 349 350 
351 352 353 354 355 356 357 358 359 
360 361 362 363 364 365 366 367 368 
369 370 371 372 373 374 375 376 377 
378 379 380 381 382 383 384 385 386 
387 388 389 390 391 392 393 394 395 
396 397 398 399 400 401 402 403 404 
405 406 407 408 409 410 411 412 413 
414 415 416 417 418 419 420 421 422 
423 424 425 426 427 428 429 430 431 
432 433 434 435 436 437 438 439 440 
441 442 443 444 445 446 447 448 449 
450 451 452 453 454 455 456 457 458 
459 460 461 462 463 464 465 466 467 
468 469 470 471 472 473 474 475 476 
477 478 479 480 481 482 483 484 485 
486 487 488 489 490 491 492 493 494 
495 496 497 498 499 500 501 502 503 
504 505 506 507 508 509 510 511 512 
513 514 515 516 517 518 519 520 521 
522 523 524 525 526 527 528 529 530 
531 532 533 534 535 536 537 538 539 
540 541 542 543 544 545 546 547 548 
549 550 551 552 553 554 555 556 557 
558 559 560 561 562 563 564 565 566 
567 568 569 570 571 572 573 574 575 
576 577 578 579 580 581 582 583 584 
585 586 587 588 589 590 591 592 593 
594 595 596 597 598 599 600 601 602 
603 604 605 606 607 608 609 610 611 
612 613 614 615 616 617 618 619 620 
621 622 623 624 625 626 627 628 629 
630 631 632 633 634 635 636 637 638 
639 640 641 642 643 644 645 646 647 

POINT_DATA 648
FIELD FieldData 12
id 1 648 int
185 106 72 353 450 214 150 164 366 
459 115 356 88 291 190 237 247 176 
381 215 293 336 383 370 11 125 385 
465 86 418 396 423 165 373 169 491 
149 18 219 14 12 189 195 187 26 
253 362 372 200 134 87 92 304 107 
58 231 428 127 6 57 197 193 433 
364 270 457 483 83 322 339 166 9 
280 158 29 246 367 331 282 154 440 
289 186 458 407 49 386 256 470 73 
8 10 175 310 488 13 496 444 66 
132 36 297 100 233 435 317 292 408 
207 404 355 427 467 432 162 321 327 
85 155 406 22 347 5 137 167 500 
456 454 417 410 412 463 411 267 290 
349 16 399 263 478 60 40 337 506 
91 326 508 229 51 439 2 424 112 
4 21 110 163 199 222 188 314 319 
303 409 324 90 261 54 104 318 351 
98 415 238 227 495 288 384 357 30 
298 168 240 248 32 486 236 330 76 
390 218 429 24 505 96 121 61 141 
255 161 328 275 113 35 34 122 183 
484 75 446 202 15 447 271 223 64 
174 479 243 377 378 287 498 451 201 
198 320 84 211 515 341 196 129 401 
308 437 62 375 140 477 111 28 157 
311 216 474 119 178 521 81 148 313 
475 226 295 472 278 504 343 251 128 
59 257 151 63 469 272 346 414 102 
352 146 299 20 208 395 394 268 65 
45 397 79 416 170 74 260 334 244 
17 392 431 529 78 206 52 239 250 
393 294 323 329 462 53 252 171 142 
205 56 363 279 461 94 232 487 493 
38 265 425 144 420 325 109 348 108 
342 89 93 333 42 368 360 371 345 
273 117 481 225 123 68 156 71 403 
25 105 204 217 379 213 455 286 335 
116 460 43 1 405 542 305 301 426 
266 421 182 361 350 147 445 430 285 
135 70 281 130 31 471 489 448 380 
212 126 124 138 254 559 536 139 354 
449 376 276 519 338 221 520 179 466 
482 476 82 340 3 50 77 538 153 
453 296 480 442 181 315 7 507 180 
413 302 55 136 210 359 436 526 160 
274 374 511 300 316 443 114 332 438 
258 543 143 194 522 499 145 33 591 
99 47 177 553 441 23 567 80 503 
501 46 41 220 191 509 309 434 159 
344 589 307 103 234 284 245 48 485 
209 452 242 562 312 402 388 69 398 
44 490 497 601 358 228 473 587 118 
387 549 502 120 516 422 389 528 468 
131 269 494 571 283 192 259 101 580 
365 546 464 262 152 97 391 523 172 
203 173 576 306 612 566 95 39 564 
241 230 492 37 551 27 224 133 382 
400 524 419 249 277 19 67 533 264 
184 369 235 577 518 547 540 638 615 
592 545 605 525 527 532 513 517 572 
563 570 616 645 565 514 558 613 596 
623 573 550 539 510 604 530 561 618 
628 557 512 594 548 617 593 560 579 
534 599 622 637 614 633 597 585 598 
583 586 554 535 552 635 578 595 607 
531 639 581 537 569 626 541 603 620 
590 555 634 629 556 610 625 575 574 
544 611 608 630 648 647 600 643 632 
568 609 606 619 588 644 582 646 624 
584 602 631 636 640 627 621 641 642 

type 1 648 int
1 1 1 1 1 1 1 1 1 
1 1 1 1 1 1 1 1 1 
1 1 1 1 1 1 2 1 1 
1 1 1 1 1 1 1 1 1 
1 1 1 2 2 1 1 1 1 
1 1 1 1 1 1 1 1 1 
1 1 1 1 2 1 1 1 1 
1 1 1 1 1 1 1 1 2 
1 1 1 1 1 1 1 1 1 
1 1 1 1 1 1 1 1 1 
2 2 1 1 1 2 1 1 1 
1 1 1 1 1 1 1 1 1 
1 1 1 1 1 1 1 1 1 
1 1 1 1 1 2 1 1 1 
1 1 1 1 1 1 1 1 1 
1 2 1 1 1 1 1 1 1 
1 1 1 1 1 1 3 1 1 
2 1 1 1 1 1 1 1 1 
1 1 1 1 1 1 1 1 1 
1 1 1 1 1 1 1 1 1 
1 1 1 1 1 1 1 1 1 
1 1 1 1 1 1 1 1 1 
1 1 1 1 1 1 1 1 1 
1 1 1 1 2 1 1 1 1 
1 1 1 1 1 1 1 1 1 
1 1 1 1 1 1 1 1 1 
1 1 1 1 1 1 1 1 1 
1 1 1 1 1 1 1 1 1 
1 1 1 1 1 1 1 1 1 
1 1 1 1 1 1 1 1 1 
1 1 1 1 1 1 1 1 1 
1 1 1 1 1 1 1 1 1 
1 1 1 1 1 1 1 1 1 
1 1 1 1 1 1 1 1 1 
1 1 1 1 1 1 1 1 1 
1 1 1 1 1 1 1 1 1 
1 1 1 1 1 1 1 1 1 
1 1 1 1 1 1 1 1 1 
1 1 1 1 1 1 1 1 1 
1 1 1 4 1 1 1 1 1 
1 1 1 1 1 1 1 1 1 
1 1 1 1 1 1 1 1 1 
1 1 1 1 1 1 1 1 1 
1 1 1 1 1 1 1 1 1 
1 1 1 1 2 1 1 1 1 
1 1 1 1 1 1 2 1 1 
1 1 1 1 1 1 1 1 1 
1 1 1 1 1 1 1 1 1 
1 1 1 1 1 1 1 1 1 
1 1 1 1 1 1 1 1 1 
1 1 1 1 1 1 1 1 1 
1 1 1 1 1 1 1 1 1 
1 1 1 1 1 1 1 1 1 
1 1 1 1 1 1 1 1 1 
1 1 1 1 2 1 1 1 1 
1 1 1 1 1 1 1 1 1 
1 1 1 1 1 1 1 1 1 
1 1 1 1 1 1 1 1 1 
1 1 1 1 1 1 1 1 1 
1 1 1 1 1 1 1 1 1 
1 1 1 1 1 1 1 1 1 
1 1 1 1 1 1 1 1 1 
1 1 1 1 1 1 1 1 1 
1 1 1 1 1 1 1 1 1 
1 1 2 1 1 1 1 1 1 
1 1 1 1 1 1 1 1 1 
1 1 1 1 1 1 1 1 1 
1 1 1 1 1 1 1 1 1 
1 1 2 1 1 1 1 1 1 
1 1 1 1 1 1 1 1 1 
1 1 1 1 1 1 1 1 1 
1 1 1 1 1 1 1 1 1 

i 3 648 int
0 0 0 0 0 0 0 0 0 
0 0 0 0 0 0 0 0 0 
0 0 0 0 0 0 0 0 0 
0 0 0 0 0 0 0 0 0 
0 0 0 0 0 0 0 0 0 
0 0 0 0 0 0 0 0 0 
0 0 0 0 0 0 0 0 0 
0 0 0 0 0 0 0 0 0 
0 0 0 0 0 0 0 0 0 
0 0 0 0 0 0 0 0 0 
0 0 0 0 0 0 0 0 0 
0 0 0 0 0 0 0 0 0 
0 0 0 0 0 0 0 0 0 
0 0 0 0 0 0 0 0 0 
0 0 0 0 0 0 0 0 0 
0 0 0 0 0 0 0 0 0 
0 0 0 0 0 0 0 0 0 
0 0 0 0 0 0 0 0 0 
0 0 0 0 0 0 0 0 0 
0 0 0 0 0 0 0 0 0 
0 0 0 0 0 0 0 0 0 
0 0 0 0 0 0 0 0 0 
0 0 0 0 0 0 0 0 0 
0 0 0 0 0 0 0 0 0 
0 0 0 0 0 0 0 0 0 
0 0 0 0 0 0 0 0 0 
0 0 0 0 0 0 0 0 0 
0 0 0 0 0 0 0 0 0 
0 0 0 0 0 0 0 0 0 
0 0 0 0 0 0 0 0 0 
0 0 0 0 0 0 0 0 0 
0 0 0 0 0 0 0 0 0 
0 0 0 0 0 0 0 0 0 
0 0 0 0 0 0 0 0 0 
0 0 0 0 0 0 0 0 0 
0 0 0 0 0 0 0 0 0 
0 0 0 0 0 0 0 0 0 
0 0 0 0 0 0 0 0 0 
0 0 0 0 0 0 0 0 0 
0 0 0 0 0 0 0 0 0 
0 0 0 0 0 0 0 0 0 
0 0 0 0 0 0 0 0 0 
0 0 0 0 0 0 0 0 0 
0 0 0 0 0 0 0 0 0 
0 0 0 0 0 0 0 0 0 
0 0 0 0 0 0 0 0 0 
0 0 0 0 0 0 0 0 0 
0 0 0 0 0 0 0 0 0 
0 0 0 0 0 0 0 0 0 
0 0 0 0 0 0 0 0 0 
0 0 0 0 0 0 0 0 0 
0 0 0 0 0 0 0 0 0 
0 0 0 0 0 0 0 0 0 
0 0 0 0 0 0 0 0 0 
0 0 0 0 0 0 0 0 0 
0 0 0 0 0 0 0 0 0 
0 0 0 0 0 0 0 0 0 
0 0 0 0 0 0 0 0 0 
0 0 0 0 0 0 0 0 0 
0 0 0 0 0 0 0 0 0 
0 0 0 0 0 0 0 0 0 
0 0 0 0 0 0 0 0 0 
0 0 0 0 0 0 0 0 0 
0 0 0 0 0 0 0 0 0 
0 0 0 0 0 0 0 0 0 
0 0 0 0 0 0 0 0 0 
0 0 0 0 0 0 0 0 0 
0 0 0 0 0 0 0 0 0 
0 0 0 0 0 0 0 0 0 
0 0 0 0 0 0 0 0 0 
0 0 0 0 0 0 0 0 0 
0 0 0 0 0 0 0 0 0 
0 0 0 0 0 0 0 0 0 
0 0 0 0 0 0 0 0 0 
0 0 0 0 0 0 0 0 0 
0 0 0 0 0 0 0 0 0 
0 0 0 0 0 0 0 0 0 
0 0 0 0 0 0 0 0 0 
0 0 0 0 0 0 0 0 0 
0 0 0 0 0 0 0 0 0 
0 0 0 0 0 0 0 0 0 
0 0 0 0 0 0 0 0 0 
0 0 0 0 0 0 0 0 0 
0 0 0 0 0 0 0 0 0 
0 0 0 0 0 0 0 0 0 
0 0 0 0 0 0 0 0 0 
0 0 0 0 0 0 0 0 0 
0 0 0 0 0 0 0 0 0 
0 0 0 0 0 0 0 0 0 
0 0 0 0 0 0 0 0 0 
0 0 0 0 0 0 0 0 0 
0 0 0 0 0 0 0 0 0 
0 0 0 0 0 0 0 0 0 
0 0 0 0 0 0 0 0 0 
0 0 0 0 0 0 0 0 0 
0 0 0 0 0 0 0 0 0 
0 0 0 0 0 0 0 0 0 
0 0 0 0 0 0 0 0 0 
0 0 0 0 0 0 0 0 0 
0 0 0 0 0 0 0 0 0 
0 0 0 0 0 0 0 0 0 
0 0 0 0 0 0 0 0 0 
0 0 0 0 0 0 0 0 0 
0 0 0 0 0 0 0 0 0 
0 0 0 0 0 0 0 0 0 
0 0 0 0 0 0 0 0 0 
0 0 0 0 0 0 0 0 0 
0 0 0 0 0 0 0 0 0 
0 0 0 0 0 0 0 0 0 
0 0 0 0 0 0 0 0 0 
0 0 0 0 0 0 0 0 0 
0 0 0 0 0 0 0 0 0 
0 0 0 0 0 0 0 0 0 
0 0 0 0 0 0 0 0 0 
0 0 0 0 0 0 0 0 0 
0 0 0 0 0 0 0 0 0 
0 0 0 0 0 0 0 0 0 
0 0 0 0 0 0 0 0 0 
0 0 0 0 0 0 0 0 0 
0 0 0 0 0 0 0 0 0 
0 0 0 0 0 0 0 0 0 
0 0 0 0 0 0 0 0 0 
0 0 0 0 0 0 0 0 0 
0 0 0 0 0 0 0 0 0 
0 0 0 0 0 0 0 0 0 
0 0 0 0 0 0 0 0 0 
0 0 0 0 0 0 0 0 0 
0 0 0 0 0 0 0 0 0 
0 0 0 0 0 0 0 0 0 
0 0 0 0 0 0 0 0 0 
0 0 0 0 0 0 0 0 0 
0 0 0 0 0 0 0 0 0 
0 0 0 0 0 0 0 0 0 
0 0 0 0 0 0 0 0 0 
0 0 0 0 0 0 0 0 0 
0 0 0 0 0 0 0 0 0 
0 0 0 0 0 0 0 0 0 
0 0 0 0 0 0 0 0 0 
0 0 0 0 0 0 0 0 0 
0 0 0 0 0 0 0 0 0 
0 0 0 0 0 0 0 0 0 
0 0 0 0 0 0 0 0 0 
0 0 0 0 0 0 0 0 0 
0 0 0 0 0 0 0 0 0 
0 0 0 0 0 0 0 0 0 
0 0 0 0 0 0 0 0 0 
0 0 0 0 0 0 0 0 0 
0 0 0 0 0 0 0 0 0 
0 0 0 0 0 0 0 0 0 
0 0 0 0 0 0 0 0 0 
0 0 0 0 0 0 0 0 0 
0 0 0 0 0 0 0 0 0 
0 0 0 0 0 0 0 0 0 
0 0 0 0 0 0 0 0 0 
0 0 0 0 0 0 0 0 0 
0 0 0 0 0 0 0 0 0 
0 0 0 0 0 0 0 0 0 
0 0 0 0 0 0 0 0 0 
0 0 0 0 0 0 0 0 0 
0 0 0 0 0 0 0 0 0 
0 0 0 0 0 0 0 0 0 
0 0 0 0 0 0 0 0 0 
0 0 0 0 0 0 0 0 0 
0 0 0 0 0 0 0 0 0 
0 0 0 0 0 0 0 0 0 
0 0 0 0 0 0 0 0 0 
0 0 0 0 0 0 0 0 0 
0 0 0 0 0 0 0 0 0 
0 0 0 0 0 0 0 0 0 
0 0 0 0 0 0 0 0 0 
0 0 0 0 0 0 0 0 0 
0 0 0 0 0 0 0 0 0 
0 0 0 0 0 0 0 0 0 
0 0 0 0 0 0 0 0 0 
0 0 0 0 0 0 0 0 0 
0 0 0 0 0 0 0 0 0 
0 0 0 0 0 0 0 0 0 
0 0 0 0 0 0 0 0 0 
0 0 0 0 0 0 0 0 0 
0 0 0 0 0 0 0 0 0 
0 0 0 0 0 0 0 0 0 
0 0 0 0 0 0 0 0 0 
0 0 0 0 0 0 0 0 0 
0 0 0 0 0 0 0 0 0 
0 0 0 0 0 0 0 0 0 
0 0 0 0 0 0 0 0 0 
0 0 0 0 0 0 0 0 0 
0 0 0 0 0 0 0 0 0 
0 0 0 0 0 0 0 0 0 
0 0 0 0 0 0 0 0 0 
0 0 0 0 0 0 0 0 0 
0 0 0 0 0 0 0 0 0 
0 0 0 0 0 0 0 0 0 
0 0 0 0 0 0 0 0 0 
0 0 0 0 0 0 0 0 0 
0 0 0 0 0 0 0 0 0 
0 0 0 0 0 0 0 0 0 
0 0 0 0 0 0 0 0 0 
0 0 0 0 0 0 0 0 0 
0 0 0 0 0 0 0 0 0 
0 0 0 0 0 0 0 0 0 
0 0 0 0 0 0 0 0 0 
0 0 0 0 0 0 0 0 0 
0 0 0 0 0 0 0 0 0 
0 0 0 0 0 0 0 0 0 
0 0 0 0 0 0 0 0 0 
0 0 0 0 0 0 0 0 0 
0 0 0 0 0 0 0 0 0 
0 0 0 0 0 0 0 0 0 
0 0 0 0 0 0 0 0 0 
0 0 0 0 0 0 0 0 0 
0 0 0 0 0 0 0 0 0 
0 0 0 0 0 0 0 0 0 
0 0 0 0 0 0 0 0 0 
0 0 0 0 0 0 0 0 0 
0 0 0 0 0 0 0 0 0 

v 3 648 double
0 0 0.16737653574 0 0 0.1783417082 0 0 0.16780225461 
0 0 0.20673789285 0 0 0.17009894525 0 0 0.17557090805 
0 0 0.17260519429 0 0 0.16187128012 0 0 -0.5258741875 
0 0 -0.5258741875 0 0 0.15599092962 0 0 0.19820487972 
0 0 0.19975193824 0 0 0.19351639347 0 0 -0.5258741875 
0 0 -0.5258741875 0 0 0.212603356 0 0 0.19684337676 
0 0 0.20295774848 0 0 0.20387649073 0 0 -0.5258741875 
0 0 0.20389994202 0 0 0.15366091235 0 0 0.17282982731 
0 0 0.21970575687 0 0 0.21378120902 0 0 0.20341821721 
0 0 0.15792637249 0 0 0.19737252364 0 0 -0.5258741875 
0 0 0.15546326408 0 0 0.19434326915 0 0 -0.5258741875 
0 0 0.21479811871 0 0 0.16356383014 0 0 0.16733713282 
0 0 0.19579880603 0 0 0.16562532914 0 0 0.17278625156 
0 0 -0.5258741875 0 0 0.22243351316 0 0 0.20957864258 
0 0 0.16168938045 0 0 -0.5258741875 0 0 0.19189453854 
0 0 -0.5258741875 0 0 0.17067832364 0 0 0.18052536138 
0 0 0.18848960083 0 0 0.18915749822 0 0 -0.5258741875 
0 0 -0.5258741875 0 0 -0.5258741875 0 0 0.19057864323 
0 0 -0.5258741875 0 0 0.18849385446 0 0 0.18682820043 
0 0 0.19921252138 0 0 0.20255585562 0 0 0.14946494193 
0 0 0.18994907858 0 0 -0.5258741875 0 0 -0.5258741875 
0 0 -0.5258741875 0 0 0.1902568851 0 0 -0.5258741875 
0 0 -0.5258741875 0 0 -0.5258741875 0 0 -0.5258741875 
0 0 -0.5258741875 0 0 -0.5258741875 0 0 -0.5258741875 
0 0 -0.5258741875 0 0 -0.5258741875 0 0 -0.5258741875 
0 0 -0.5258741875 0 0 -0.5258741875 0 0 -0.5258741875 
0 0 -0.5258741875 0 0 -0.5258741875 0 0 -0.5258741875 
0 0 -0.5258741875 0 0 -0.5258741875 0 0 -0.5258741875 
0 0 -0.5258741875 0 0 -0.5258741875 0 0 -0.5258741875 
0 0 -0.5258741875 0 0 -0.5258741875 0 0 -0.5258741875 
0 0 -0.5258741875 0 0 -0.5258741875 0 0 -0.5258741875 
0 0 -0.5258741875 0 0 -0.5258741875 0 0 -0.5258741875 
0 0 -0.5258741875 0 0 -0.5258741875 0 0 -0.5258741875 
0 0 -0.5258741875 0 0 -0.5258741875 0 0 -0.5258741875 
0 0 -0.5258741875 0 0 -0.5258741875 0 0 -0.5258741875 
0 0 -0.5258741875 0 0 -0.5258741875 0 0 -0.5258741875 
0 0 -0.5258741875 0 0 -0.5258741875 0 0 -0.5258741875 
0 0 -0.5258741875 0 0 -0.5258741875 0 0 -0.5258741875 
0 0 -0.5258741875 0 0 -0.5258741875 0 0 -0.5258741875 
0 0 -0.5258741875 0 0 -0.5258741875 0 0 -0.5258741875 
0 0 -0.5258741875 0 0 -0.5258741875 0 0 -0.5258741875 
0 0 -0.5258741875 0 0 -0.5258741875 0 0 -0.5258741875 
0 0 -0.5258741875 0 0 -0.5258741875 0 0 -0.5258741875 
0 0 -0.5258741875 0 0 -0.5258741875 0 0 -0.5258741875 
0 0 -0.5258741875 0 0 -0.5258741875 0 0 -0.5258741875 
0 0 -0.5258741875 0 0 -0.5258741875 0 0 -0.5258741875 
0 0 -0.5258741875 0 0 -0.5258741875 0 0 -0.5258741875 
0 0 -0.5258741875 0 0 -0.5258741875 0 0 -0.4706241875 
0 0 -0.5258741875 0 0 -0.5258741875 0 0 -0.4706241875 
0 0 -0.5258741875 0 0 -0.5258741875 0 0 -0.5258741875 
0 0 -0.5258741875 0 0 -0.5258741875 0 0 -0.5258741875 
0 0 -0.5258741875 0 0 -0.5258741875 0 0 -0.5258741875 
0 0 -0.5258741875 0 0 -0.5258741875 0 0 -0.5258741875 
0 0 -0.5258741875 0 0 -0.5258741875 0 0 -0.5258741875 
0 0 -0.5258741875 0 0 -0.5258741875 0 0 -0.5258741875 
0 0 -0.5258741875 0 0 -0.5258741875 0 0 -0.5258741875 
0 0 -0.5258741875 0 0 -0.5258741875 0 0 -0.5258741875 
0 0 -0.5258741875 0 0 -0.5258741875 0 0 -0.5258741875 
0 0 -0.5258741875 0 0 -0.5258741875 0 0 -0.5258741875 
0 0 -0.5258741875 0 0 -0.5258741875 0 0 -0.5258741875 
0 0 -0.5258741875 0 0 -0.5258741875 0 0 -0.5258741875 
0 0 -0.5258741875 0 0 -0.5258741875 0 0 -0.5258741875 
0 0 -0.5258741875 0 0 -0.5258741875 0 0 -0.5258741875 
0 0 -0.5258741875 0 0 -0.5258741875 0 0 -0.5258741875 
0 0 -0.5258741875 0 0 -0.4901241875 0 0 -0.5258741875 
0 0 -0.5258741875 0 0 -0.5258741875 0 0 -0.5258741875 
0 0 -0.5258741875 0 0 -0.5258741875 0 0 -0.5258741875 
0 0 -0.5258741875 0 0 -0.5258741875 0 0 -0.5258741875 
0 0 -0.5258741875 0 0 -0.5258741875 0 0 -0.5258741875 
0 0 -0.5258741875 0 0 -0.5258741875 0 0 -0.5258741875 
0 0 -0.5258741875 0 0 -0.5258741875 0 0 -0.5258741875 
0 0 -0.5258741875 0 0 -0.5258741875 0 0 -0.5258741875 
0 0 -0.5258741875 0 0 -0.5258741875 0 0 -0.5258741875 
0 0 -0.5258741875 0 0 -0.5258741875 0 0 -0.5258741875 
0 0 -0.5258741875 0 0 -0.5258741875 0 0 -0.5258741875 
0 0 -0.5258741875 0 0 -0.5258741875 0 0 -0.5258741875 
0 0 -0.5258741875 0 0 -0.4511241875 0 0 -0.5258741875 
0 0 -0.5258741875 0 0 -0.5258741875 0 0 -0.5258741875 
0 0 -0.5258741875 0 0 -0.5258741875 0 0 -0.5258741875 
0 0 -0.5258741875 0 0 -0.5258741875 0 0 -0.5258741875 
0 0 -0.5258741875 0 0 -0.5258741875 0 0 -0.5258741875 
0 0 -0.5258741875 0 0 -0.5258741875 0 0 -0.5258741875 
0 0 -0.5258741875 0 0 -0.5258741875 0 0 -0.4381241875 
0 0 -0.5258741875 0 0 -0.5258741875 0 0 -0.5258741875 
0 0 -0.5258741875 0 0 -0.5258741875 0 0 -0.5258741875 
0 0 -0.5258741875 0 0 -0.5258741875 0 0 -0.4933741875 
0 0 -0.5258741875 0 0 -0.5258741875 0 0 -0.5258741875 
0 0 -0.5258741875 0 0 -0.5258741875 0 0 -0.5258741875 
0 0 -0.5258741875 0 0 -0.5258741875 0 0 -0.5258741875 
0 0 -0.5258741875 0 0 -0.5258741875 0 0 -0.5258741875 
0 0 -0.5258741875 0 0 -0.5258741875 0 0 -0.5258741875 
0 0 -0.5258741875 0 0 -0.5258741875 0 0 -0.5258741875 
0 0 -0.5258741875 0 0 -0.5258741875 0 0 -0.5258741875 
0 0 -0.5258741875 0 0 -0.5258741875 0 0 -0.5258741875 
0 0 -0.5258741875 0 0 -0.5258741875 0 0 -0.5258741875 
0 0 -0.5258741875 0 0 -0.5258741875 0 0 -0.5258741875 
0 0 -0.5258741875 0 0 -0.5258741875 0 0 -0.5258741875 
0 0 -0.4218741875 0 0 -0.5258741875 0 0 -0.5258741875 
0 0 -0.5258741875 0 0 -0.5258741875 0 0 -0.5258741875 
0 0 -0.5258741875 0 0 -0.5258741875 0 0 -0.5258741875 
0 0 -0.5258741875 0 0 -0.5258741875 0 0 -0.5258741875 
0 0 -0.5258741875 0 0 -0.5258741875 0 0 -0.5258741875 
0 0 -0.5258741875 0 0 -0.5258741875 0 0 -0.5258741875 
0 0 -0.5258741875 0 0 -0.5258741875 0 0 -0.5258741875 
0 0 -0.5258741875 0 0 -0.5258741875 0 0 -0.5258741875 
0 0 -0.5258741875 0 0 -0.5258741875 0 0 -0.5258741875 
0 0 -0.5258741875 0 0 -0.5258741875 0 0 -0.5258741875 
0 0 -0.5258741875 0 0 -0.5258741875 0 0 -0.5258741875 
0 0 -0.5258741875 0 0 -0.5258741875 0 0 -0.5258741875 
0 0 -0.5258741875 0 0 -0.5258741875 0 0 -0.5258741875 
0 0 -0.5258741875 0 0 -0.5258741875 0 0 -0.5258741875 
0 0 -0.5258741875 0 0 -0.5258741875 0 0 -0.5258741875 
0 0 -0.5258741875 0 0 -0.5258741875 0 0 -0.5258741875 
0 0 -0.5258741875 0 0 -0.5258741875 0 0 -0.5258741875 
0 0 -0.5258741875 0 0 -0.5258741875 0 0 -0.5258741875 
0 0 -0.5258741875 0 0 -0.5258741875 0 0 -0.5258741875 
0 0 -0.5258741875 0 0 -0.5258741875 0 0 -0.5258741875 
0 0 -0.5258741875 0 0 -0.5258741875 0 0 -0.5258741875 
0 0 -0.5258741875 0 0 -0.5258741875 0 0 -0.3958741875 
0 0 -0.5258741875 0 0 -0.5258741875 0 0 -0.5258741875 
0 0 -0.5258741875 0 0 -0.5258741875 0 0 -0.5258741875 
0 0 -0.5258741875 0 0 -0.5258741875 0 0 -0.5258741875 
0 0 -0.5258741875 0 0 -0.5258741875 0 0 -0.5258741875 
0 0 -0.5258741875 0 0 -0.5258741875 0 0 -0.5258741875 
0 0 -0.5258741875 0 0 -0.5258741875 0 0 -0.5258741875 
0 0 -0.5258741875 0 0 -0.5258741875 0 0 -0.5258741875 
0 0 -0.5258741875 0 0 -0.5258741875 0 0 -0.5258741875 
0 0 -0.5258741875 0 0 -0.5258741875 0 0 -0.3763741875 
0 0 -0.4056241875 0 0 -0.5258741875 0 0 -0.5258741875 
0 0 -0.5258741875 0 0 -0.5258741875 0 0 -0.5258741875 
0 0 -0.4413741875 0 0 -0.5258741875 0 0 -0.5258741875 
0 0 -0.4413741875 0 0 -0.5258741875 0 0 -0.5258741875 
0 0 -0.5258741875 0 0 -0.5258741875 0 0 -0.5258741875 
0 0 -0.5258741875 0 0 -0.5258741875 0 0 -0.5258741875 
0 0 -0.5258741875 0 0 -0.4023741875 0 0 -0.5258741875 
0 0 -0.5258741875 0 0 -0.5258741875 0 0 -0.5258741875 
0 0 -0.5258741875 0 0 -0.5258741875 0 0 -0.5258741875 
0 0 -0.5258741875 0 0 -0.4706241875 0 0 -0.5258741875 
0 0 -0.5258741875 0 0 -0.5258741875 0 0 -0.5258741875 
0 0 -0.5258741875 0 0 -0.5258741875 0 0 -0.5258741875 
0 0 -0.5258741875 0 0 -0.4251241875 0 0 -0.5258741875 
0 0 -0.5258741875 0 0 -0.5258741875 0 0 -0.4641241875 
0 0 -0.5258741875 0 0 -0.5258741875 0 0 -0.5258741875 
0 0 -0.5258741875 0 0 -0.5258741875 0 0 -0.5258741875 
0 0 -0.5258741875 0 0 -0.3958741875 0 0 -0.5258741875 
0 0 -0.5258741875 0 0 -0.4381241875 0 0 -0.5258741875 
0 0 -0.5258741875 0 0 -0.5258741875 0 0 -0.3373741875 
0 0 -0.5258741875 0 0 -0.5258741875 0 0 -0.5258741875 
0 0 -0.3828741875 0 0 -0.5258741875 0 0 -0.5258741875 
0 0 -0.3633741875 0 0 -0.5258741875 0 0 -0.5063741875 
0 0 -0.5128741875 0 0 -0.5258741875 0 0 -0.5258741875 
0 0 -0.5258741875 0 0 -0.5258741875 0 0 -0.4641241875 
0 0 -0.5258741875 0 0 -0.5258741875 0 0 -0.5258741875 
0 0 -0.5258741875 0 0 -0.3373741875 0 0 -0.5258741875 
0 0 -0.5258741875 0 0 -0.5258741875 0 0 -0.5258741875 
0 0 -0.5258741875 0 0 -0.5258741875 0 0 -0.5258741875 
0 0 -0.5258741875 0 0 -0.5258741875 0 0 -0.5258741875 
0 0 -0.3731241875 0 0 -0.5258741875 0 0 -0.5258741875 
0 0 -0.5258741875 0 0 -0.5258741875 0 0 -0.5258741875 
0 0 -0.5258741875 0 0 -0.5258741875 0 0 -0.5258741875 
0 0 -0.3211241875 0 0 -0.5258741875 0 0 -0.5258741875 
0 0 -0.5258741875 0 0 -0.3406241875 0 0 -0.5258741875 
0 0 -0.5258741875 0 0 -0.3861241875 0 0 -0.5128741875 
0 0 -0.5258741875 0 0 -0.4478741875 0 0 -0.5258741875 
0 0 -0.5258741875 0 0 -0.4218741875 0 0 -0.5258741875 
0 0 -0.5258741875 0 0 -0.5258741875 0 0 -0.5258741875 
0 0 -0.3568741875 0 0 -0.5258741875 0 0 -0.5258741875 
0 0 -0.5258741875 0 0 -0.5258741875 0 0 -0.3471241875 
0 0 -0.5258741875 0 0 -0.3893741875 0 0 -0.5258741875 
0 0 -0.5258741875 0 0 -0.5258741875 0 0 -0.5258741875 
0 0 -0.5258741875 0 0 -0.4348741875 0 0 -0.5258741875 
0 0 -0.5258741875 0 0 -0.5258741875 0 0 -0.3503741875 
0 0 -0.5258741875 0 0 -0.3048741875 0 0 -0.3633741875 
0 0 -0.5258741875 0 0 -0.5258741875 0 0 -0.3666241875 
0 0 -0.5258741875 0 0 -0.5258741875 0 0 -0.5258741875 
0 0 -0.5258741875 0 0 -0.3828741875 0 0 -0.5258741875 
0 0 -0.5258741875 0 0 -0.5258741875 0 0 -0.5258741875 
0 0 -0.5258741875 0 0 -0.4348741875 0 0 -0.5258741875 
0 0 -0.5258741875 0 0 -0.5258741875 0 0 -0.5258741875 
0 0 -0.5258741875 0 0 -0.4088741875 0 0 -0.5258741875 
0 0 -0.5258741875 0 0 -0.5258741875 0 0 -0.5258741875 
0 0 -0.3503741875 0 0 -0.4478741875 0 0 -0.3893741875 
0 0 -0.3991241875 0 0 -0.2853741875 0 0 -0.3048741875 
0 0 -0.3341241875 0 0 -0.3926241875 0 0 -0.3178741875 
0 0 -0.4283741875 0 0 -0.4251241875 0 0 -0.4121241875 
0 0 -0.4576241875 0 0 -0.4478741875 0 0 -0.3568741875 
0 0 -0.3698741875 0 0 -0.3568741875 0 0 -0.3016241875 
0 0 -0.2821241875 0 0 -0.3666241875 0 0 -0.4576241875 
0 0 -0.3763741875 0 0 -0.3048741875 0 0 -0.3276241875 
0 0 -0.2951241875 0 0 -0.3536241875 0 0 -0.3861241875 
0 0 -0.3991241875 0 0 -0.4641241875 0 0 -0.3178741875 
0 0 -0.4153741875 0 0 -0.3731241875 0 0 -0.3016241875 
0 0 -0.2951241875 0 0 -0.3763741875 0 0 -0.4576241875 
0 0 -0.3308741875 0 0 -0.3861241875 0 0 -0.3016241875 
0 0 -0.3308741875 0 0 -0.3731241875 0 0 -0.3471241875 
0 0 -0.4088741875 0 0 -0.3243741875 0 0 -0.2983741875 
0 0 -0.2886241875 0 0 -0.3048741875 0 0 -0.2918741875 
0 0 -0.3276241875 0 0 -0.3438741875 0 0 -0.3276241875 
0 0 -0.3438741875 0 0 -0.3406241875 0 0 -0.3796241875 
0 0 -0.4056241875 0 0 -0.3828741875 0 0 -0.2886241875 
0 0 -0.3471241875 0 0 -0.3308741875 0 0 -0.3146241875 
0 0 -0.4153741875 0 0 -0.2853741875 0 0 -0.3471241875 
0 0 -0.4056241875 0 0 -0.3568741875 0 0 -0.2951241875 
0 0 -0.3991241875 0 0 -0.3178741875 0 0 -0.2983741875 
0 0 -0.3373741875 0 0 -0.3796241875 0 0 -0.2886241875 
0 0 -0.2951241875 0 0 -0.3796241875 0 0 -0.3113741875 
0 0 -0.2951241875 0 0 -0.3536241875 0 0 -0.3536241875 
0 0 -0.3958741875 0 0 -0.3081241875 0 0 -0.3146241875 
0 0 -0.2951241875 0 0 -0.2821241875 0 0 -0.2821241875 
0 0 -0.3211241875 0 0 -0.2821241875 0 0 -0.2918741875 
0 0 -0.3601241875 0 0 -0.3113741875 0 0 -0.3178741875 
0 0 -0.2983741875 0 0 -0.3406241875 0 0 -0.2821241875 
0 0 -0.3438741875 0 0 -0.2821241875 0 0 -0.2951241875 
0 0 -0.3438741875 0 0 -0.3178741875 0 0 -0.2918741875 
0 0 -0.2886241875 0 0 -0.2853741875 0 0 -0.2951241875 
0 0 -0.2983741875 0 0 -0.2853741875 0 0 -0.2821241875 

f 3 648 double
0 0 -1.7425367252e-10 0 0 -1.7425367252e-10 0 0 -1.7425367252e-10 
0 0 -1.7425367252e-10 0 0 -1.7425367252e-10 0 0 -1.7425367252e-10 
0 0 -1.7425367252e-10 0 0 -1.7425367252e-10 0 0 -1.7425367252e-10 
0 0 -1.7425367252e-10 0 0 -1.7425367252e-10 0 0 -1.7425367252e-10 
0 0 -1.7425367252e-10 0 0 -1.7425367252e-10 0 0 -1.7425367252e-10 
0 0 -1.7425367252e-10 0 0 -1.7425367252e-10 0 0 -1.7425367252e-10 
0 0 -1.7425367252e-10 0 0 -1.7425367252e-10 0 0 -1.7425367252e-10 
0 0 -1.7425367252e-10 0 0 -1.7425367252e-10 0 0 -1.7425367252e-10 
0 0 -8.9019973083e-09 0 0 -1.7425367252e-10 0 0 -1.7425367252e-10 
0 0 -1.7425367252e-10 0 0 -1.7425367252e-10 0 0 -1.7425367252e-10 
0 0 -1.7425367252e-10 0 0 -1.7425367252e-10 0 0 -1.7425367252e-10 
0 0 -1.7425367252e-10 0 0 -1.7425367252e-10 0 0 -1.7425367252e-10 
0 0 -1.7425367252e-10 0 0 -1.7425367252e-10 0 0 -1.7425367252e-10 
0 0 -8.9019973083e-09 0 0 -8.9019973083e-09 0 0 -1.7425367252e-10 
0 0 -1.7425367252e-10 0 0 -1.7425367252e-10 0 0 -1.7425367252e-10 
0 0 -1.7425367252e-10 0 0 -1.7425367252e-10 0 0 -1.7425367252e-10 
0 0 -1.7425367252e-10 0 0 -1.7425367252e-10 0 0 -1.7425367252e-10 
0 0 -1.7425367252e-10 0 0 -1.7425367252e-10 0 0 -1.7425367252e-10 
0 0 -1.7425367252e-10 0 0 -1.7425367252e-10 0 0 -1.7425367252e-10 
0 0 -1.7425367252e-10 0 0 -8.9019973083e-09 0 0 -1.7425367252e-10 
0 0 -1.7425367252e-10 0 0 -1.7425367252e-10 0 0 -1.7425367252e-10 
0 0 -1.7425367252e-10 0 0 -1.7425367252e-10 0 0 -1.7425367252e-10 
0 0 -1.7425367252e-10 0 0 -1.7425367252e-10 0 0 -1.7425367252e-10 
0 0 -1.7425367252e-10 0 0 -1.7425367252e-10 0 0 -8.9019973083e-09 
0 0 -1.7425367252e-10 0 0 -1.7425367252e-10 0 0 -1.7425367252e-10 
0 0 -1.7425367252e-10 0 0 -1.7425367252e-10 0 0 -1.7425367252e-10 
0 0 -1.7425367252e-10 0 0 -1.7425367252e-10 0 0 -1.7425367252e-10 
0 0 -1.7425367252e-10 0 0 -1.7425367252e-10 0 0 -1.7425367252e-10 
0 0 -1.7425367252e-10 0 0 -1.7425367252e-10 0 0 -1.7425367252e-10 
0 0 -1.7425367252e-10 0 0 -1.7425367252e-10 0 0 -1.7425367252e-10 
0 0 -8.9019973083e-09 0 0 -8.9019973083e-09 0 0 -1.7425367252e-10 
0 0 -1.7425367252e-10 0 0 -1.7425367252e-10 0 0 -8.9019973083e-09 
0 0 -1.7425367252e-10 0 0 -1.7425367252e-10 0 0 -1.7425367252e-10 
0 0 -1.7425367252e-10 0 0 -1.7425367252e-10 0 0 -1.7425367252e-10 
0 0 -1.7425367252e-10 0 0 -1.7425367252e-10 0 0 -1.7425367252e-10 
0 0 -1.7425367252e-10 0 0 -1.7425367252e-10 0 0 -1.7425367252e-10 
0 0 -1.7425367252e-10 0 0 -1.7425367252e-10 0 0 -1.7425367252e-10 
0 0 -1.7425367252e-10 0 0 -1.7425367252e-10 0 0 -1.7425367252e-10 
0 0 -1.7425367252e-10 0 0 -1.7425367252e-10 0 0 -1.7425367252e-10 
0 0 -1.7425367252e-10 0 0 -1.7425367252e-10 0 0 -1.7425367252e-10 
0 0 -1.7425367252e-10 0 0 -1.7425367252e-10 0 0 -8.9019973083e-09 
0 0 -1.7425367252e-10 0 0 -1.7425367252e-10 0 0 -1.7425367252e-10 
0 0 -1.7425367252e-10 0 0 -1.7425367252e-10 0 0 -1.7425367252e-10 
0 0 -1.7425367252e-10 0 0 -1.7425367252e-10 0 0 -1.7425367252e-10 
0 0 -1.7425367252e-10 0 0 -1.7425367252e-10 0 0 -1.7425367252e-10 
0 0 -1.7425367252e-10 0 0 -8.9019973083e-09 0 0 -1.7425367252e-10 
0 0 -1.7425367252e-10 0 0 -1.7425367252e-10 0 0 -1.7425367252e-10 
0 0 -1.7425367252e-10 0 0 -1.7425367252e-10 0 0 -1.7425367252e-10 
0 0 -1.7425367252e-10 0 0 -1.7425367252e-10 0 0 -1.7425367252e-10 
0 0 -1.7425367252e-10 0 0 -1.7425367252e-10 0 0 -1.7425367252e-10 
0 0 -6.8918688838e-08 0 0 -1.7425367252e-10 0 0 -1.7425367252e-10 
0 0 -8.9019973083e-09 0 0 -1.7425367252e-10 0 0 -1.7425367252e-10 
0 0 -1.7425367252e-10 0 0 -1.7425367252e-10 0 0 -1.7425367252e-10 
0 0 -1.7425367252e-10 0 0 -1.7425367252e-10 0 0 -1.7425367252e-10 
0 0 -1.7425367252e-10 0 0 -1.7425367252e-10 0 0 -1.7425367252e-10 
0 0 -1.7425367252e-10 0 0 -1.7425367252e-10 0 0 -1.7425367252e-10 
0 0 -1.7425367252e-10 0 0 -1.7425367252e-10 0 0 -1.7425367252e-10 
0 0 -1.7425367252e-10 0 0 -1.7425367252e-10 0 0 -1.7425367252e-10 
0 0 -1.7425367252e-10 0 0 -1.7425367252e-10 0 0 -1.7425367252e-10 
0 0 -1.7425367252e-10 0 0 -1.7425367252e-10 0 0 -1.7425367252e-10 
0 0 -1.7425367252e-10 0 0 -1.7425367252e-10 0 0 -1.7425367252e-10 
0 0 -1.7425367252e-10 0 0 -1.7425367252e-10 0 0 -1.7425367252e-10 
0 0 -1.7425367252e-10 0 0 -1.7425367252e-10 0 0 -1.7425367252e-10 
0 0 -1.7425367252e-10 0 0 -1.7425367252e-10 0 0 -1.7425367252e-10 
0 0 -1.7425367252e-10 0 0 -1.7425367252e-10 0 0 -1.7425367252e-10 
0 0 -1.7425367252e-10 0 0 -1.7425367252e-10 0 0 -1.7425367252e-10 
0 0 -1.7425367252e-10 0 0 -1.7425367252e-10 0 0 -1.7425367252e-10 
0 0 -1.7425367252e-10 0 0 -1.7425367252e-10 0 0 -1.7425367252e-10 
0 0 -1.7425367252e-10 0 0 -1.7425367252e-10 0 0 -1.7425367252e-10 
0 0 -1.7425367252e-10 0 0 -1.7425367252e-10 0 0 -1.7425367252e-10 
0 0 -1.7425367252e-10 0 0 -8.9019973083e-09 0 0 -1.7425367252e-10 
0 0 -1.7425367252e-10 0 0 -1.7425367252e-10 0 0 -1.7425367252e-10 
0 0 -1.7425367252e-10 0 0 -1.7425367252e-10 0 0 -1.7425367252e-10 
0 0 -1.7425367252e-10 0 0 -1.7425367252e-10 0 0 -1.7425367252e-10 
0 0 -1.7425367252e-10 0 0 -1.7425367252e-10 0 0 -1.7425367252e-10 
0 0 -1.7425367252e-10 0 0 -1.7425367252e-10 0 0 -1.7425367252e-10 
0 0 -1.7425367252e-10 0 0 -1.7425367252e-10 0 0 -1.7425367252e-10 
0 0 -1.7425367252e-10 0 0 -1.7425367252e-10 0 0 -1.7425367252e-10 
0 0 -1.7425367252e-10 0 0 -1.7425367252e-10 0 0 -1.7425367252e-10 
0 0 -1.7425367252e-10 0 0 -1.7425367252e-10 0 0 -1.7425367252e-10 
0 0 -1.7425367252e-10 0 0 -1.7425367252e-10 0 0 -1.7425367252e-10 
0 0 -1.7425367252e-10 0 0 -1.7425367252e-10 0 0 -1.7425367252e-10 
0 0 -1.7425367252e-10 0 0 -1.7425367252e-10 0 0 -1.7425367252e-10 
0 0 -1.7425367252e-10 0 0 -1.7425367252e-10 0 0 -1.7425367252e-10 
0 0 -1.7425367252e-10 0 0 -1.7425367252e-10 0 0 -1.7425367252e-10 
0 0 -1.7425367252e-10 0 0 -1.7425367252e-10 0 0 -1.7425367252e-10 
0 0 -1.7425367252e-10 0 0 -1.7425367252e-10 0 0 -1.7425367252e-10 
0 0 -1.7425367252e-10 0 0 -1.7425367252e-10 0 0 -1.7425367252e-10 
0 0 -1.7425367252e-10 0 0 -1.7425367252e-10 0 0 -1.7425367252e-10 
0 0 -1.7425367252e-10 0 0 -1.7425367252e-10 0 0 -1.7425367252e-10 
0 0 -1.7425367252e-10 0 0 -1.7425367252e-10 0 0 -1.7425367252e-10 
0 0 -1.7425367252e-10 0 0 -1.7425367252e-10 0 0 -1.7425367252e-10 
0 0 -1.7425367252e-10 0 0 -1.7425367252e-10 0 0 -1.7425367252e-10 
0 0 -1.7425367252e-10 0 0 -1.7425367252e-10 0 0 -1.7425367252e-10 
0 0 -1.7425367252e-10 0 0 -1.7425367252e-10 0 0 -1.7425367252e-10 
0 0 -1.7425367252e-10 0 0 -1.7425367252e-10 0 0 -1.7425367252e-10 
0 0 -1.7425367252e-10 0 0 -1.7425367252e-10 0 0 -1.7425367252e-10 
0 0 -1.7425367252e-10 0 0 -1.7425367252e-10 0 0 -1.7425367252e-10 
0 0 -1.7425367252e-10 0 0 -1.7425367252e-10 0 0 -1.7425367252e-10 
0 0 -1.7425367252e-10 0 0 -1.7425367252e-10 0 0 -1.7425367252e-10 
0 0 -1.7425367252e-10 0 0 -1.7425367252e-10 0 0 -1.7425367252e-10 
0 0 -1.7425367252e-10 0 0 -1.7425367252e-10 0 0 -1.7425367252e-10 
0 0 -1.7425367252e-10 0 0 -1.7425367252e-10 0 0 -1.7425367252e-10 
0 0 -1.7425367252e-10 0 0 -1.7425367252e-10 0 0 -1.7425367252e-10 
0 0 -1.7425367252e-10 0 0 -1.7425367252e-10 0 0 -1.7425367252e-10 
0 0 -1.7425367252e-10 0 0 -1.7425367252e-10 0 0 -1.7425367252e-10 
0 0 -1.7425367252e-10 0 0 -1.7425367252e-10 0 0 -1.7425367252e-10 
0 0 -1.7425367252e-10 0 0 -1.7425367252e-10 0 0 -1.7425367252e-10 
0 0 -1.7425367252e-10 0 0 -1.7425367252e-10 0 0 -1.7425367252e-10 
0 0 -1.7425367252e-10 0 0 -1.7425367252e-10 0 0 -1.7425367252e-10 
0 0 -1.7425367252e-10 0 0 -1.7425367252e-10 0 0 -1.7425367252e-10 
0 0 -1.7425367252e-10 0 0 -1.7425367252e-10 0 0 -1.7425367252e-10 
0 0 -1.7425367252e-10 0 0 -1.7425367252e-10 0 0 -1.7425367252e-10 
0 0 -1.7425367252e-10 0 0 -1.7425367252e-10 0 0 -1.7425367252e-10 
0 0 -1.7425367252e-10 0 0 -1.7425367252e-10 0 0 -1.7425367252e-10 
0 0 -1.7425367252e-10 0 0 -1.7425367252e-10 0 0 -1.7425367252e-10 
0 0 -1.7425367252e-10 0 0 -1.7425367252e-10 0 0 -1.7425367252e-10 
0 0 -1.7425367252e-10 0 0 -1.7425367252e-10 0 0 -1.7425367252e-10 
0 0 -5.3297119368e-07 0 0 -1.7425367252e-10 0 0 -1.7425367252e-10 
0 0 -1.7425367252e-10 0 0 -1.7425367252e-10 0 0 -1.7425367252e-10 
0 0 -1.7425367252e-10 0 0 -1.7425367252e-10 0 0 -1.7425367252e-10 
0 0 -1.7425367252e-10 0 0 -1.7425367252e-10 0 0 -1.7425367252e-10 
0 0 -1.7425367252e-10 0 0 -1.7425367252e-10 0 0 -1.7425367252e-10 
0 0 -1.7425367252e-10 0 0 -1.7425367252e-10 0 0 -1.7425367252e-10 
0 0 -1.7425367252e-10 0 0 -1.7425367252e-10 0 0 -1.7425367252e-10 
0 0 -1.7425367252e-10 0 0 -1.7425367252e-10 0 0 -1.7425367252e-10 
0 0 -1.7425367252e-10 0 0 -1.7425367252e-10 0 0 -1.7425367252e-10 
0 0 -1.7425367252e-10 0 0 -1.7425367252e-10 0 0 -1.7425367252e-10 
0 0 -1.7425367252e-10 0 0 -1.7425367252e-10 0 0 -1.7425367252e-10 
0 0 -1.7425367252e-10 0 0 -1.7425367252e-10 0 0 -1.7425367252e-10 
0 0 -1.7425367252e-10 0 0 -1.7425367252e-10 0 0 -1.7425367252e-10 
0 0 -1.7425367252e-10 0 0 -1.7425367252e-10 0 0 -1.7425367252e-10 
0 0 -1.7425367252e-10 0 0 -1.7425367252e-10 0 0 -1.7425367252e-10 
0 0 -1.7425367252e-10 0 0 -8.9019973083e-09 0 0 -1.7425367252e-10 
0 0 -1.7425367252e-10 0 0 -1.7425367252e-10 0 0 -1.7425367252e-10 
0 0 -1.7425367252e-10 0 0 -1.7425367252e-10 0 0 -1.7425367252e-10 
0 0 -1.7425367252e-10 0 0 -1.7425367252e-10 0 0 -1.7425367252e-10 
0 0 -8.9019973083e-09 0 0 -1.7425367252e-10 0 0 -1.7425367252e-10 
0 0 -1.7425367252e-10 0 0 -1.7425367252e-10 0 0 -1.7425367252e-10 
0 0 -1.7425367252e-10 0 0 -1.7425367252e-10 0 0 -1.7425367252e-10 
0 0 -1.7425367252e-10 0 0 -1.7425367252e-10 0 0 -1.7425367252e-10 
0 0 -1.7425367252e-10 0 0 -1.7425367252e-10 0 0 -1.7425367252e-10 
0 0 -1.7425367252e-10 0 0 -1.7425367252e-10 0 0 -1.7425367252e-10 
0 0 -1.7425367252e-10 0 0 -1.7425367252e-10 0 0 -1.7425367252e-10 
0 0 -1.7425367252e-10 0 0 -1.7425367252e-10 0 0 -1.7425367252e-10 
0 0 -1.7425367252e-10 0 0 -1.7425367252e-10 0 0 -1.7425367252e-10 
0 0 -1.7425367252e-10 0 0 -1.7425367252e-10 0 0 -1.7425367252e-10 
0 0 -1.7425367252e-10 0 0 -1.7425367252e-10 0 0 -1.7425367252e-10 
0 0 -1.7425367252e-10 0 0 -1.7425367252e-10 0 0 -1.7425367252e-10 
0 0 -1.7425367252e-10 0 0 -1.7425367252e-10 0 0 -1.7425367252e-10 
0 0 -1.7425367252e-10 0 0 -1.7425367252e-10 0 0 -1.7425367252e-10 
0 0 -1.7425367252e-10 0 0 -1.7425367252e-10 0 0 -1.7425367252e-10 
0 0 -1.7425367252e-10 0 0 -1.7425367252e-10 0 0 -1.7425367252e-10 
0 0 -1.7425367252e-10 0 0 -1.7425367252e-10 0 0 -1.7425367252e-10 
0 0 -1.7425367252e-10 0 0 -1.7425367252e-10 0 0 -1.7425367252e-10 
0 0 -1.7425367252e-10 0 0 -1.7425367252e-10 0 0 -1.7425367252e-10 
0 0 -1.7425367252e-10 0 0 -1.7425367252e-10 0 0 -1.7425367252e-10 
0 0 -1.7425367252e-10 0 0 -1.7425367252e-10 0 0 -1.7425367252e-10 
0 0 -1.7425367252e-10 0 0 -1.7425367252e-10 0 0 -1.7425367252e-10 
0 0 -1.7425367252e-10 0 0 -1.7425367252e-10 0 0 -1.7425367252e-10 
0 0 -1.7425367252e-10 0 0 -1.7425367252e-10 0 0 -1.7425367252e-10 
0 0 -1.7425367252e-10 0 0 -1.7425367252e-10 0 0 -1.7425367252e-10 
0 0 -1.7425367252e-10 0 0 -1.7425367252e-10 0 0 -1.7425367252e-10 
0 0 -1.7425367252e-10 0 0 -8.9019973083e-09 0 0 -1.7425367252e-10 
0 0 -1.7425367252e-10 0 0 -1.7425367252e-10 0 0 -1.7425367252e-10 
0 0 -1.7425367252e-10 0 0 -1.7425367252e-10 0 0 -1.7425367252e-10 
0 0 -1.7425367252e-10 0 0 -1.7425367252e-10 0 0 -1.7425367252e-10 
0 0 -1.7425367252e-10 0 0 -1.7425367252e-10 0 0 -1.7425367252e-10 
0 0 -1.7425367252e-10 0 0 -1.7425367252e-10 0 0 -1.7425367252e-10 
0 0 -1.7425367252e-10 0 0 -1.7425367252e-10 0 0 -1.7425367252e-10 
0 0 -1.7425367252e-10 0 0 -1.7425367252e-10 0 0 -1.7425367252e-10 
0 0 -1.7425367252e-10 0 0 -1.7425367252e-10 0 0 -1.7425367252e-10 
0 0 -1.7425367252e-10 0 0 -1.7425367252e-10 0 0 -1.7425367252e-10 
0 0 -1.7425367252e-10 0 0 -1.7425367252e-10 0 0 -1.7425367252e-10 
0 0 -1.7425367252e-10 0 0 -1.7425367252e-10 0 0 -1.7425367252e-10 
0 0 -1.7425367252e-10 0 0 -1.7425367252e-10 0 0 -1.7425367252e-10 
0 0 -1.7425367252e-10 0 0 -1.7425367252e-10 0 0 -1.7425367252e-10 
0 0 -1.7425367252e-10 0 0 -1.7425367252e-10 0 0 -1.7425367252e-10 
0 0 -1.7425367252e-10 0 0 -1.7425367252e-10 0 0 -1.7425367252e-10 
0 0 -1.7425367252e-10 0 0 -1.7425367252e-10 0 0 -1.7425367252e-10 
0 0 -1.7425367252e-10 0 0 -1.7425367252e-10 0 0 -1.7425367252e-10 
0 0 -1.7425367252e-10 0 0 -1.7425367252e-10 0 0 -1.7425367252e-10 
0 0 -1.7425367252e-10 0 0 -1.7425367252e-10 0 0 -1.7425367252e-10 
0 0 -1.7425367252e-10 0 0 -1.7425367252e-10 0 0 -1.7425367252e-10 
0 0 -1.7425367252e-10 0 0 -1.7425367252e-10 0 0 -1.7425367252e-10 
0 0 -1.7425367252e-10 0 0 -1.7425367252e-10 0 0 -1.7425367252e-10 
0 0 -1.7425367252e-10 0 0 -1.7425367252e-10 0 0 -1.7425367252e-10 
0 0 -1.7425367252e-10 0 0 -1.7425367252e-10 0 0 -1.7425367252e-10 
0 0 -1.7425367252e-10 0 0 -1.7425367252e-10 0 0 -1.7425367252e-10 
0 0 -1.7425367252e-10 0 0 -1.7425367252e-10 0 0 -1.7425367252e-10 
0 0 -1.7425367252e-10 0 0 -1.7425367252e-10 0 0 -1.7425367252e-10 
0 0 -1.7425367252e-10 0 0 -1.7425367252e-10 0 0 -1.7425367252e-10 
0 0 -1.7425367252e-10 0 0 -1.7425367252e-10 0 0 -8.9019973083e-09 
0 0 -1.7425367252e-10 0 0 -1.7425367252e-10 0 0 -1.7425367252e-10 
0 0 -1.7425367252e-10 0 0 -1.7425367252e-10 0 0 -1.7425367252e-10 
0 0 -1.7425367252e-10 0 0 -1.7425367252e-10 0 0 -1.7425367252e-10 
0 0 -1.7425367252e-10 0 0 -1.7425367252e-10 0 0 -1.7425367252e-10 
0 0 -1.7425367252e-10 0 0 -1.7425367252e-10 0 0 -1.7425367252e-10 
0 0 -1.7425367252e-10 0 0 -1.7425367252e-10 0 0 -1.7425367252e-10 
0 0 -1.7425367252e-10 0 0 -1.7425367252e-10 0 0 -1.7425367252e-10 
0 0 -1.7425367252e-10 0 0 -1.7425367252e-10 0 0 -1.7425367252e-10 
0 0 -1.7425367252e-10 0 0 -1.7425367252e-10 0 0 -1.7425367252e-10 
0 0 -1.7425367252e-10 0 0 -1.7425367252e-10 0 0 -1.7425367252e-10 
0 0 -1.7425367252e-10 0 0 -1.7425367252e-10 0 0 -1.7425367252e-10 
0 0 -1.7425367252e-10 0 0 -1.7425367252e-10 0 0 -8.9019973083e-09 
0 0 -1.7425367252e-10 0 0 -1.7425367252e-10 0 0 -1.7425367252e-10 
0 0 -1.7425367252e-10 0 0 -1.7425367252e-10 0 0 -1.7425367252e-10 
0 0 -1.7425367252e-10 0 0 -1.7425367252e-10 0 0 -1.7425367252e-10 
0 0 -1.7425367252e-10 0 0 -1.7425367252e-10 0 0 -1.7425367252e-10 
0 0 -1.7425367252e-10 0 0 -1.7425367252e-10 0 0 -1.7425367252e-10 
0 0 -1.7425367252e-10 0 0 -1.7425367252e-10 0 0 -1.7425367252e-10 
0 0 -1.7425367252e-10 0 0 -1.7425367252e-10 0 0 -1.7425367252e-10 
0 0 -1.7425367252e-10 0 0 -1.7425367252e-10 0 0 -1.7425367252e-10 
0 0 -1.7425367252e-10 0 0 -1.7425367252e-10 0 0 -1.7425367252e-10 
0 0 -1.7425367252e-10 0 0 -1.7425367252e-10 0 0 -1.7425367252e-10 
0 0 -1.7425367252e-10 0 0 -1.7425367252e-10 0 0 -1.7425367252e-10 

radius 1 648 double
2e-05 2e-05 2e-05 2e-05 2e-05 2e-05 2e-05 2e-05 2e-05 
2e-05 2e-05 2e-05 2e-05 2e-05 2e-05 2e-05 2e-05 2e-05 
2e-05 2e-05 2e-05 2e-05 2e-05 2e-05 7.5e-05 2e-05 2e-05 
2e-05 2e-05 2e-05 2e-05 2e-05 2e-05 2e-05 2e-05 2e-05 
2e-05 2e-05 2e-05 7.5e-05 7.5e-05 2e-05 2e-05 2e-05 2e-05 
2e-05 2e-05 2e-05 2e-05 2e-05 2e-05 2e-05 2e-05 2e-05 
2e-05 2e-05 2e-05 2e-05 7.5e-05 2e-05 2e-05 2e-05 2e-05 
2e-05 2e-05 2e-05 2e-05 2e-05 2e-05 2e-05 2e-05 7.5e-05 
2e-05 2e-05 2e-05 2e-05 2e-05 2e-05 2e-05 2e-05 2e-05 
2e-05 2e-05 2e-05 2e-05 2e-05 2e-05 2e-05 2e-05 2e-05 
7.5e-05 7.5e-05 2e-05 2e-05 2e-05 7.5e-05 2e-05 2e-05 2e-05 
2e-05 2e-05 2e-05 2e-05 2e-05 2e-05 2e-05 2e-05 2e-05 
2e-05 2e-05 2e-05 2e-05 2e-05 2e-05 2e-05 2e-05 2e-05 
2e-05 2e-05 2e-05 2e-05 2e-05 7.5e-05 2e-05 2e-05 2e-05 
2e-05 2e-05 2e-05 2e-05 2e-05 2e-05 2e-05 2e-05 2e-05 
2e-05 7.5e-05 2e-05 2e-05 2e-05 2e-05 2e-05 2e-05 2e-05 
2e-05 2e-05 2e-05 2e-05 2e-05 2e-05 0.00015 2e-05 2e-05 
7.5e-05 2e-05 2e-05 2e-05 2e-05 2e-05 2e-05 2e-05 2e-05 
2e-05 2e-05 2e-05 2e-05 2e-05 2e-05 2e-05 2e-05 2e-05 
2e-05 2e-05 2e-05 2e-05 2e-05 2e-05 2e-05 2e-05 2e-05 
2e-05 2e-05 2e-05 2e-05 2e-05 2e-05 2e-05 2e-05 2e-05 
2e-05 2e-05 2e-05 2e-05 2e-05 2e-05 2e-05 2e-05 2e-05 
2e-05 2e-05 2e-05 2e-05 2e-05 2e-05 2e-05 2e-05 2e-05 
2e-05 2e-05 2e-05 2e-05 7.5e-05 2e-05 2e-05 2e-05 2e-05 
2e-05 2e-05 2e-05 2e-05 2e-05 2e-05 2e-05 2e-05 2e-05 
2e-05 2e-05 2e-05 2e-05 2e-05 2e-05 2e-05 2e-05 2e-05 
2e-05 2e-05 2e-05 2e-05 2e-05 2e-05 2e-05 2e-05 2e-05 
2e-05 2e-05 2e-05 2e-05 2e-05 2e-05 2e-05 2e-05 2e-05 
2e-05 2e-05 2e-05 2e-05 2e-05 2e-05 2e-05 2e-05 2e-05 
2e-05 2e-05 2e-05 2e-05 2e-05 2e-05 2e-05 2e-05 2e-05 
2e-05 2e-05 2e-05 2e-05 2e-05 2e-05 2e-05 2e-05 2e-05 
2e-05 2e-05 2e-05 2e-05 2e-05 2e-05 2e-05 2e-05 2e-05 
2e-05 2e-05 2e-05 2e-05 2e-05 2e-05 2e-05 2e-05 2e-05 
2e-05 2e-05 2e-05 2e-05 2e-05 2e-05 2e-05 2e-05 2e-05 
2e-05 2e-05 2e-05 2e-05 2e-05 2e-05 2e-05 2e-05 2e-05 
2e-05 2e-05 2e-05 2e-05 2e-05 2e-05 2e-05 2e-05 2e-05 
2e-05 2e-05 2e-05 2e-05 2e-05 2e-05 2e-05 2e-05 2e-05 
2e-05 2e-05 2e-05 2e-05 2e-05 2e-05 2e-05 2e-05 2e-05 
2e-05 2e-05 2e-05 2e-05 2e-05 2e-05 2e-05 2e-05 2e-05 
2e-05 2e-05 2e-05 0.0003 2e-05 2e-05 2e-05 2e-05 2e-05 
2e-05 2e-05 2e-05 2e-05 2e-05 2e-05 2e-05 2e-05 2e-05 
2e-05 2e-05 2e-05 2e-05 2e-05 2e-05 2e-05 2e-05 2e-05 
2e-05 2e-05 2e-05 2e-05 2e-05 2e-05 2e-05 2e-05 2e-05 
2e-05 2e-05 2e-05 2e-05 2e-05 2e-05 2e-05 2e-05 2e-05 
2e-05 2e-05 2e-05 2e-05 7.5e-05 2e-05 2e-05 2e-05 2e-05 
2e-05 2e-05 2e-05 2e-05 2e-05 2e-05 7.5e-05 2e-05 2e-05 
2e-05 2e-05 2e-05 2e-05 2e-05 2e-05 2e-05 2e-05 2e-05 
2e-05 2e-05 2e-05 2e-05 2e-05 2e-05 2e-05 2e-05 2e-05 
2e-05 2e-05 2e-05 2e-05 2e-05 2e-05 2e-05 2e-05 2e-05 
2e-05 2e-05 2e-05 2e-05 2e-05 2e-05 2e-05 2e-05 2e-05 
2e-05 2e-05 2e-05 2e-05 2e-05 2e-05 2e-05 2e-05 2e-05 
2e-05 2e-05 2e-05 2e-05 2e-05 2e-05 2e-05 2e-05 2e-05 
2e-05 2e-05 2e-05 2e-05 2e-05 2e-05 2e-05 2e-05 2e-05 
2e-05 2e-05 2e-05 2e-05 2e-05 2e-05 2e-05 2e-05 2e-05 
2e-05 2e-05 2e-05 2e-05 7.5e-05 2e-05 2e-05 2e-05 2e-05 
2e-05 2e-05 2e-05 2e-05 2e-05 2e-05 2e-05 2e-05 2e-05 
2e-05 2e-05 2e-05 2e-05 2e-05 2e-05 2e-05 2e-05 2e-05 
2e-05 2e-05 2e-05 2e-05 2e-05 2e-05 2e-05 2e-05 2e-05 
2e-05 2e-05 2e-05 2e-05 2e-05 2e-05 2e-05 2e-05 2e-05 
2e-05 2e-05 2e-05 2e-05 2e-05 2e-05 2e-05 2e-05 2e-05 
2e-05 2e-05 2e-05 2e-05 2e-05 2e-05 2e-05 2e-05 2e-05 
2e-05 2e-05 2e-05 2e-05 2e-05 2e-05 2e-05 2e-05 2e-05 
2e-05 2e-05 2e-05 2e-05 2e-05 2e-05 2e-05 2e-05 2e-05 
2e-05 2e-05 2e-05 2e-05 2e-05 2e-05 2e-05 2e-05 2e-05 
2e-05 2e-05 7.5e-05 2e-05 2e-05 2e-05 2e-05 2e-05 2e-05 
2e-05 2e-05 2e-05 2e-05 2e-05 2e-05 2e-05 2e-05 2e-05 
2e-05 2e-05 2e-05 2e-05 2e-05 2e-05 2e-05 2e-05 2e-05 
2e-05 2e-05 2e-05 2e-05 2e-05 2e-05 2e-05 2e-05 2e-05 
2e-05 2e-05 7.5e-05 2e-05 2e-05 2e-05 2e-05 2e-05 2e-05 
2e-05 2e-05 2e-05 2e-05 2e-05 2e-05 2e-05 2e-05 2e-05 
2e-05 2e-05 2e-05 2e-05 2e-05 2e-05 2e-05 2e-05 2e-05 
2e-05 2e-05 2e-05 2e-05 2e-05 2e-05 2e-05 2e-05 2e-05 

omega 3 648 double
0 0 0 0 0 0 0 0 0 
0 0 0 0 0 0 0 0 0 
0 0 0 0 0 0 0 0 0 
0 0 0 0 0 0 0 0 0 
0 0 0 0 0 0 0 0 0 
0 0 0 0 0 0 0 0 0 
0 0 0 0 0 0 0 0 0 
0 0 0 0 0 0 0 0 0 
0 0 0 0 0 0 0 0 0 
0 0 0 0 0 0 0 0 0 
0 0 0 0 0 0 0 0 0 
0 0 0 0 0 0 0 0 0 
0 0 0 0 0 0 0 0 0 
0 0 0 0 0 0 0 0 0 
0 0 0 0 0 0 0 0 0 
0 0 0 0 0 0 0 0 0 
0 0 0 0 0 0 0 0 0 
0 0 0 0 0 0 0 0 0 
0 0 0 0 0 0 0 0 0 
0 0 0 0 0 0 0 0 0 
0 0 0 0 0 0 0 0 0 
0 0 0 0 0 0 0 0 0 
0 0 0 0 0 0 0 0 0 
0 0 0 0 0 0 0 0 0 
0 0 0 0 0 0 0 0 0 
0 0 0 0 0 0 0 0 0 
0 0 0 0 0 0 0 0 0 
0 0 0 0 0 0 0 0 0 
0 0 0 0 0 0 0 0 0 
0 0 0 0 0 0 0 0 0 
0 0 0 0 0 0 0 0 0 
0 0 0 0 0 0 0 0 0 
0 0 0 0 0 0 0 0 0 
0 0 0 0 0 0 0 0 0 
0 0 0 0 0 0 0 0 0 
0 0 0 0 0 0 0 0 0 
0 0 0 0 0 0 0 0 0 
0 0 0 0 0 0 0 0 0 
0 0 0 0 0 0 0 0 0 
0 0 0 0 0 0 0 0 0 
0 0 0 0 0 0 0 0 0 
0 0 0 0 0 0 0 0 0 
0 0 0 0 0 0 0 0 0 
0 0 0 0 0 0 0 0 0 
0 0 0 0 0 0 0 0 0 
0 0 0 0 0 0 0 0 0 
0 0 0 0 0 0 0 0 0 
0 0 0 0 0 0 0 0 0 
0 0 0 0 0 0 0 0 0 
0 0 0 0 0 0 0 0 0 
0 0 0 0 0 0 0 0 0 
0 0 0 0 0 0 0 0 0 
0 0 0 0 0 0 0 0 0 
0 0 0 0 0 0 0 0 0 
0 0 0 0 0 0 0 0 0 
0 0 0 0 0 0 0 0 0 
0 0 0 0 0 0 0 0 0 
0 0 0 0 0 0 0 0 0 
0 0 0 0 0 0 0 0 0 
0 0 0 0 0 0 0 0 0 
0 0 0 0 0 0 0 0 0 
0 0 0 0 0 0 0 0 0 
0 0 0 0 0 0 0 0 0 
0 0 0 0 0 0 0 0 0 
0 0 0 0 0 0 0 0 0 
0 0 0 0 0 0 0 0 0 
0 0 0 0 0 0 0 0 0 
0 0 0 0 0 0 0 0 0 
0 0 0 0 0 0 0 0 0 
0 0 0 0 0 0 0 0 0 
0 0 0 0 0 0 0 0 0 
0 0 0 0 0 0 0 0 0 
0 0 0 0 0 0 0 0 0 
0 0 0 0 0 0 0 0 0 
0 0 0 0 0 0 0 0 0 
0 0 0 0 0 0 0 0 0 
0 0 0 0 0 0 0 0 0 
0 0 0 0 0 0 0 0 0 
0 0 0 0 0 0 0 0 0 
0 0 0 0 0 0 0 0 0 
0 0 0 0 0 0 0 0 0 
0 0 0 0 0 0 0 0 0 
0 0 0 0 0 0 0 0 0 
0 0 0 0 0 0 0 0 0 
0 0 0 0 0 0 0 0 0 
0 0 0 0 0 0 0 0 0 
0 0 0 0 0 0 0 0 0 
0 0 0 0 0 0 0 0 0 
0 0 0 0 0 0 0 0 0 
0 0 0 0 0 0 0 0 0 
0 0 0 0 0 0 0 0 0 
0 0 0 0 0 0 0 0 0 
0 0 0 0 0 0 0 0 0 
0 0 0 0 0 0 0 0 0 
0 0 0 0 0 0 0 0 0 
0 0 0 0 0 0 0 0 0 
0 0 0 0 0 0 0 0 0 
0 0 0 0 0 0 0 0 0 
0 0 0 0 0 0 0 0 0 
0 0 0 0 0 0 0 0 0 
0 0 0 0 0 0 0 0 0 
0 0 0 0 0 0 0 0 0 
0 0 0 0 0 0 0 0 0 
0 0 0 0 0 0 0 0 0 
0 0 0 0 0 0 0 0 0 
0 0 0 0 0 0 0 0 0 
0 0 0 0 0 0 0 0 0 
0 0 0 0 0 0 0 0 0 
0 0 0 0 0 0 0 0 0 
0 0 0 0 0 0 0 0 0 
0 0 0 0 0 0 0 0 0 
0 0 0 0 0 0 0 0 0 
0 0 0 0 0 0 0 0 0 
0 0 0 0 0 0 0 0 0 
0 0 0 0 0 0 0 0 0 
0 0 0 0 0 0 0 0 0 
0 0 0 0 0 0 0 0 0 
0 0 0 0 0 0 0 0 0 
0 0 0 0 0 0 0 0 0 
0 0 0 0 0 0 0 0 0 
0 0 0 0 0 0 0 0 0 
0 0 0 0 0 0 0 0 0 
0 0 0 0 0 0 0 0 0 
0 0 0 0 0 0 0 0 0 
0 0 0 0 0 0 0 0 0 
0 0 0 0 0 0 0 0 0 
0 0 0 0 0 0 0 0 0 
0 0 0 0 0 0 0 0 0 
0 0 0 0 0 0 0 0 0 
0 0 0 0 0 0 0 0 0 
0 0 0 0 0 0 0 0 0 
0 0 0 0 0 0 0 0 0 
0 0 0 0 0 0 0 0 0 
0 0 0 0 0 0 0 0 0 
0 0 0 0 0 0 0 0 0 
0 0 0 0 0 0 0 0 0 
0 0 0 0 0 0 0 0 0 
0 0 0 0 0 0 0 0 0 
0 0 0 0 0 0 0 0 0 
0 0 0 0 0 0 0 0 0 
0 0 0 0 0 0 0 0 0 
0 0 0 0 0 0 0 0 0 
0 0 0 0 0 0 0 0 0 
0 0 0 0 0 0 0 0 0 
0 0 0 0 0 0 0 0 0 
0 0 0 0 0 0 0 0 0 
0 0 0 0 0 0 0 0 0 
0 0 0 0 0 0 0 0 0 
0 0 0 0 0 0 0 0 0 
0 0 0 0 0 0 0 0 0 
0 0 0 0 0 0 0 0 0 
0 0 0 0 0 0 0 0 0 
0 0 0 0 0 0 0 0 0 
0 0 0 0 0 0 0 0 0 
0 0 0 0 0 0 0 0 0 
0 0 0 0 0 0 0 0 0 
0 0 0 0 0 0 0 0 0 
0 0 0 0 0 0 0 0 0 
0 0 0 0 0 0 0 0 0 
0 0 0 0 0 0 0 0 0 
0 0 0 0 0 0 0 0 0 
0 0 0 0 0 0 0 0 0 
0 0 0 0 0 0 0 0 0 
0 0 0 0 0 0 0 0 0 
0 0 0 0 0 0 0 0 0 
0 0 0 0 0 0 0 0 0 
0 0 0 0 0 0 0 0 0 
0 0 0 0 0 0 0 0 0 
0 0 0 0 0 0 0 0 0 
0 0 0 0 0 0 0 0 0 
0 0 0 0 0 0 0 0 0 
0 0 0 0 0 0 0 0 0 
0 0 0 0 0 0 0 0 0 
0 0 0 0 0 0 0 0 0 
0 0 0 0 0 0 0 0 0 
0 0 0 0 0 0 0 0 0 
0 0 0 0 0 0 0 0 0 
0 0 0 0 0 0 0 0 0 
0 0 0 0 0 0 0 0 0 
0 0 0 0 0 0 0 0 0 
0 0 0 0 0 0 0 0 0 
0 0 0 0 0 0 0 0 0 
0 0 0 0 0 0 0 0 0 
0 0 0 0 0 0 0 0 0 
0 0 0 0 0 0 0 0 0 
0 0 0 0 0 0 0 0 0 
0 0 0 0 0 0 0 0 0 
0 0 0 0 0 0 0 0 0 
0 0 0 0 0 0 0 0 0 
0 0 0 0 0 0 0 0 0 
0 0 0 0 0 0 0 0 0 
0 0 0 0 0 0 0 0 0 
0 0 0 0 0 0 0 0 0 
0 0 0 0 0 0 0 0 0 
0 0 0 0 0 0 0 0 0 
0 0 0 0 0 0 0 0 0 
0 0 0 0 0 0 0 0 0 
0 0 0 0 0 0 0 0 0 
0 0 0 0 0 0 0 0 0 
0 0 0 0 0 0 0 0 0 
0 0 0 0 0 0 0 0 0 
0 0 0 0 0 0 0 0 0 
0 0 0 0 0 0 0 0 0 
0 0 0 0 0 0 0 0 0 
0 0 0 0 0 0 0 0 0 
0 0 0 0 0 0 0 0 0 
0 0 0 0 0 0 0 0 0 
0 0 0 0 0 0 0 0 0 
0 0 0 0 0 0 0 0 0 
0 0 0 0 0 0 0 0 0 
0 0 0 0 0 0 0 0 0 
0 0 0 0 0 0 0 0 0 
0 0 0 0 0 0 0 0 0 
0 0 0 0 0 0 0 0 0 
0 0 0 0 0 0 0 0 0 
0 0 0 0 0 0 0 0 0 

fx_mag_viz 1 648 double
0 0 0 0 0 0 0 0 0 
0 0 0 0 0 0 0 0 0 
0 0 0 0 0 0 0 0 0 
0 0 0 0 0 0 0 0 0 
0 0 0 0 0 0 0 0 0 
0 0 0 0 0 0 0 0 0 
0 0 0 0 0 0 0 0 0 
0 0 0 0 0 0 0 0 0 
0 0 0 0 0 0 0 0 0 
0 0 0 0 0 0 0 0 0 
0 0 0 0 0 0 0 0 0 
0 0 0 0 0 0 0 0 0 
0 0 0 0 0 0 0 0 0 
0 0 0 0 0 0 0 0 0 
0 0 0 0 0 0 0 0 0 
0 0 0 0 0 0 0 0 0 
0 0 0 0 0 0 0 0 0 
0 0 0 0 0 0 0 0 0 
0 0 0 0 0 0 0 0 0 
0 0 0 0 0 0 0 0 0 
0 0 0 0 0 0 0 0 0 
0 0 0 0 0 0 0 0 0 
0 0 0 0 0 0 0 0 0 
0 0 0 0 0 0 0 0 0 
0 0 0 0 0 0 0 0 0 
0 0 0 0 0 0 0 0 0 
0 0 0 0 0 0 0 0 0 
0 0 0 0 0 0 0 0 0 
0 0 0 0 0 0 0 0 0 
0 0 0 0 0 0 0 0 0 
0 0 0 0 0 0 0 0 0 
0 0 0 0 0 0 0 0 0 
0 0 0 0 0 0 0 0 0 
0 0 0 0 0 0 0 0 0 
0 0 0 0 0 0 0 0 0 
0 0 0 0 0 0 0 0 0 
0 0 0 0 0 0 0 0 0 
0 0 0 0 0 0 0 0 0 
0 0 0 0 0 0 0 0 0 
0 0 0 0 0 0 0 0 0 
0 0 0 0 0 0 0 0 0 
0 0 0 0 0 0 0 0 0 
0 0 0 0 0 0 0 0 0 
0 0 0 0 0 0 0 0 0 
0 0 0 0 0 0 0 0 0 
0 0 0 0 0 0 0 0 0 
0 0 0 0 0 0 0 0 0 
0 0 0 0 0 0 0 0 0 
0 0 0 0 0 0 0 0 0 
0 0 0 0 0 0 0 0 0 
0 0 0 0 0 0 0 0 0 
0 0 0 0 0 0 0 0 0 
0 0 0 0 0 0 0 0 0 
0 0 0 0 0 0 0 0 0 
0 0 0 0 0 0 0 0 0 
0 0 0 0 0 0 0 0 0 
0 0 0 0 0 0 0 0 0 
0 0 0 0 0 0 0 0 0 
0 0 0 0 0 0 0 0 0 
0 0 0 0 0 0 0 0 0 
0 0 0 0 0 0 0 0 0 
0 0 0 0 0 0 0 0 0 
0 0 0 0 0 0 0 0 0 
0 0 0 0 0 0 0 0 0 
0 0 0 0 0 0 0 0 0 
0 0 0 0 0 0 0 0 0 
0 0 0 0 0 0 0 0 0 
0 0 0 0 0 0 0 0 0 
0 0 0 0 0 0 0 0 0 
0 0 0 0 0 0 0 0 0 
0 0 0 0 0 0 0 0 0 
0 0 0 0 0 0 0 0 0 

fy_mag_viz 1 648 double
0 0 0 0 0 0 0 0 0 
0 0 0 0 0 0 0 0 0 
0 0 0 0 0 0 0 0 0 
0 0 0 0 0 0 0 0 0 
0 0 0 0 0 0 0 0 0 
0 0 0 0 0 0 0 0 0 
0 0 0 0 0 0 0 0 0 
0 0 0 0 0 0 0 0 0 
0 0 0 0 0 0 0 0 0 
0 0 0 0 0 0 0 0 0 
0 0 0 0 0 0 0 0 0 
0 0 0 0 0 0 0 0 0 
0 0 0 0 0 0 0 0 0 
0 0 0 0 0 0 0 0 0 
0 0 0 0 0 0 0 0 0 
0 0 0 0 0 0 0 0 0 
0 0 0 0 0 0 0 0 0 
0 0 0 0 0 0 0 0 0 
0 0 0 0 0 0 0 0 0 
0 0 0 0 0 0 0 0 0 
0 0 0 0 0 0 0 0 0 
0 0 0 0 0 0 0 0 0 
0 0 0 0 0 0 0 0 0 
0 0 0 0 0 0 0 0 0 
0 0 0 0 0 0 0 0 0 
0 0 0 0 0 0 0 0 0 
0 0 0 0 0 0 0 0 0 
0 0 0 0 0 0 0 0 0 
0 0 0 0 0 0 0 0 0 
0 0 0 0 0 0 0 0 0 
0 0 0 0 0 0 0 0 0 
0 0 0 0 0 0 0 0 0 
0 0 0 0 0 0 0 0 0 
0 0 0 0 0 0 0 0 0 
0 0 0 0 0 0 0 0 0 
0 0 0 0 0 0 0 0 0 
0 0 0 0 0 0 0 0 0 
0 0 0 0 0 0 0 0 0 
0 0 0 0 0 0 0 0 0 
0 0 0 0 0 0 0 0 0 
0 0 0 0 0 0 0 0 0 
0 0 0 0 0 0 0 0 0 
0 0 0 0 0 0 0 0 0 
0 0 0 0 0 0 0 0 0 
0 0 0 0 0 0 0 0 0 
0 0 0 0 0 0 0 0 0 
0 0 0 0 0 0 0 0 0 
0 0 0 0 0 0 0 0 0 
0 0 0 0 0 0 0 0 0 
0 0 0 0 0 0 0 0 0 
0 0 0 0 0 0 0 0 0 
0 0 0 0 0 0 0 0 0 
0 0 0 0 0 0 0 0 0 
0 0 0 0 0 0 0 0 0 
0 0 0 0 0 0 0 0 0 
0 0 0 0 0 0 0 0 0 
0 0 0 0 0 0 0 0 0 
0 0 0 0 0 0 0 0 0 
0 0 0 0 0 0 0 0 0 
0 0 0 0 0 0 0 0 0 
0 0 0 0 0 0 0 0 0 
0 0 0 0 0 0 0 0 0 
0 0 0 0 0 0 0 0 0 
0 0 0 0 0 0 0 0 0 
0 0 0 0 0 0 0 0 0 
0 0 0 0 0 0 0 0 0 
0 0 0 0 0 0 0 0 0 
0 0 0 0 0 0 0 0 0 
0 0 0 0 0 0 0 0 0 
0 0 0 0 0 0 0 0 0 
0 0 0 0 0 0 0 0 0 
0 0 0 0 0 0 0 0 0 

fz_mag_viz 1 648 double
0 0 0 0 0 0 0 0 0 
0 0 0 0 0 0 0 0 0 
0 0 0 0 0 0 0 0 0 
0 0 0 0 0 0 0 0 0 
0 0 0 0 0 0 0 0 0 
0 0 0 0 0 0 0 0 0 
0 0 0 0 0 0 0 0 0 
0 0 0 0 0 0 0 0 0 
0 0 0 0 0 0 0 0 0 
0 0 0 0 0 0 0 0 0 
0 0 0 0 0 0 0 0 0 
0 0 0 0 0 0 0 0 0 
0 0 0 0 0 0 0 0 0 
0 0 0 0 0 0 0 0 0 
0 0 0 0 0 0 0 0 0 
0 0 0 0 0 0 0 0 0 
0 0 0 0 0 0 0 0 0 
0 0 0 0 0 0 0 0 0 
0 0 0 0 0 0 0 0 0 
0 0 0 0 0 0 0 0 0 
0 0 0 0 0 0 0 0 0 
0 0 0 0 0 0 0 0 0 
0 0 0 0 0 0 0 0 0 
0 0 0 0 0 0 0 0 0 
0 0 0 0 0 0 0 0 0 
0 0 0 0 0 0 0 0 0 
0 0 0 0 0 0 0 0 0 
0 0 0 0 0 0 0 0 0 
0 0 0 0 0 0 0 0 0 
0 0 0 0 0 0 0 0 0 
0 0 0 0 0 0 0 0 0 
0 0 0 0 0 0 0 0 0 
0 0 0 0 0 0 0 0 0 
0 0 0 0 0 0 0 0 0 
0 0 0 0 0 0 0 0 0 
0 0 0 0 0 0 0 0 0 
0 0 0 0 0 0 0 0 0 
0 0 0 0 0 0 0 0 0 
0 0 0 0 0 0 0 0 0 
0 0 0 0 0 0 0 0 0 
0 0 0 0 0 0 0 0 0 
0 0 0 0 0 0 0 0 0 
0 0 0 0 0 0 0 0 0 
0 0 0 0 0 0 0 0 0 
0 0 0 0 0 0 0 0 0 
0 0 0 0 0 0 0 0 0 
0 0 0 0 0 0 0 0 0 
0 0 0 0 0 0 0 0 0 
0 0 0 0 0 0 0 0 0 
0 0 0 0 0 0 0 0 0 
0 0 0 0 0 0 0 0 0 
0 0 0 0 0 0 0 0 0 
0 0 0 0 0 0 0 0 0 
0 0 0 0 0 0 0 0 0 
0 0 0 0 0 0 0 0 0 
0 0 0 0 0 0 0 0 0 
0 0 0 0 0 0 0 0 0 
0 0 0 0 0 0 0 0 0 
0 0 0 0 0 0 0 0 0 
0 0 0 0 0 0 0 0 0 
0 0 0 0 0 0 0 0 0 
0 0 0 0 0 0 0 0 0 
0 0 0 0 0 0 0 0 0 
0 0 0 0 0 0 0 0 0 
0 0 0 0 0 0 0 0 0 
0 0 0 0 0 0 0 0 0 
0 0 0 0 0 0 0 0 0 
0 0 0 0 0 0 0 0 0 
0 0 0 0 0 0 0 0 0 
0 0 0 0 0 0 0 0 0 
0 0 0 0 0 0 0 0 0 
0 0 0 0 0 0 0 0 0 

B_magnitude 1 648 double
0 0 0 0 0 0 0 0 0 
0 0 0 0 0 0 0 0 0 
0 0 0 0 0 0 0 0 0 
0 0 0 0 0 0 0 0 0 
0 0 0 0 0 0 0 0 0 
0 0 0 0 0 0 0 0 0 
0 0 0 0 0 0 0 0 0 
0 0 0 0 0 0 0 0 0 
0 0 0 0 0 0 0 0 0 
0 0 0 0 0 0 0 0 0 
0 0 0 0 0 0 0 0 0 
0 0 0 0 0 0 0 0 0 
0 0 0 0 0 0 0 0 0 
0 0 0 0 0 0 0 0 0 
0 0 0 0 0 0 0 0 0 
0 0 0 0 0 0 0 0 0 
0 0 0 0 0 0 0 0 0 
0 0 0 0 0 0 0 0 0 
0 0 0 0 0 0 0 0 0 
0 0 0 0 0 0 0 0 0 
0 0 0 0 0 0 0 0 0 
0 0 0 0 0 0 0 0 0 
0 0 0 0 0 0 0 0 0 
0 0 0 0 0 0 0 0 0 
0 0 0 0 0 0 0 0 0 
0 0 0 0 0 0 0 0 0 
0 0 0 0 0 0 0 0 0 
0 0 0 0 0 0 0 0 0 
0 0 0 0 0 0 0 0 0 
0 0 0 0 0 0 0 0 0 
0 0 0 0 0 0 0 0 0 
0 0 0 0 0 0 0 0 0 
0 0 0 0 0 0 0 0 0 
0 0 0 0 0 0 0 0 0 
0 0 0 0 0 0 0 0 0 
0 0 0 0 0 0 0 0 0 
0 0 0 0 0 0 0 0 0 
0 0 0 0 0 0 0 0 0 
0 0 0 0 0 0 0 0 0 
0 0 0 0 0 0 0 0 0 
0 0 0 0 0 0 0 0 0 
0 0 0 0 0 0 0 0 0 
0 0 0 0 0 0 0 0 0 
0 0 0 0 0 0 0 0 0 
0 0 0 0 0 0 0 0 0 
0 0 0 0 0 0 0 0 0 
0 0 0 0 0 0 0 0 0 
0 0 0 0 0 0 0 0 0 
0 0 0 0 0 0 0 0 0 
0 0 0 0 0 0 0 0 0 
0 0 0 0 0 0 0 0 0 
0 0 0 0 0 0 0 0 0 
0 0 0 0 0 0 0 0 0 
0 0 0 0 0 0 0 0 0 
0 0 0 0 0 0 0 0 0 
0 0 0 0 0 0 0 0 0 
0 0 0 0 0 0 0 0 0 
0 0 0 0 0 0 0 0 0 
0 0 0 0 0 0 0 0 0 
0 0 0 0 0 0 0 0 0 
0 0 0 0 0 0 0 0 0 
0 0 0 0 0 0 0 0 0 
0 0 0 0 0 0 0 0 0 
0 0 0 0 0 0 0 0 0 
0 0 0 0 0 0 0 0 0 
0 0 0 0 0 0 0 0 0 
0 0 0 0 0 0 0 0 0 
0 0 0 0 0 0 0 0 0 
0 0 0 0 0 0 0 0 0 
0 0 0 0 0 0 0 0 0 
0 0 0 0 0 0 0 0 0 
0 0 0 0 0 0 0 0 0 

B_gradient_mag 1 648 double
0 0 0 0 0 0 0 0 0 
0 0 0 0 0 0 0 0 0 
0 0 0 0 0 0 0 0 0 
0 0 0 0 0 0 0 0 0 
0 0 0 0 0 0 0 0 0 
0 0 0 0 0 0 0 0 0 
0 0 0 0 0 0 0 0 0 
0 0 0 0 0 0 0 0 0 
0 0 0 0 0 0 0 0 0 
0 0 0 0 0 0 0 0 0 
0 0 0 0 0 0 0 0 0 
0 0 0 0 0 0 0 0 0 
0 0 0 0 0 0 0 0 0 
0 0 0 0 0 0 0 0 0 
0 0 0 0 0 0 0 0 0 
0 0 0 0 0 0 0 0 0 
0 0 0 0 0 0 0 0 0 
0 0 0 0 0 0 0 0 0 
0 0 0 0 0 0 0 0 0 
0 0 0 0 0 0 0 0 0 
0 0 0 0 0 0 0 0 0 
0 0 0 0 0 0 0 0 0 
0 0 0 0 0 0 0 0 0 
0 0 0 0 0 0 0 0 0 
0 0 0 0 0 0 0 0 0 
0 0 0 0 0 0 0 0 0 
0 0 0 0 0 0 0 0 0 
0 0 0 0 0 0 0 0 0 
0 0 0 0 0 0 0 0 0 
0 0 0 0 0 0 0 0 0 
0 0 0 0 0 0 0 0 0 
0 0 0 0 0 0 0 0 0 
0 0 0 0 0 0 0 0 0 
0 0 0 0 0 0 0 0 0 
0 0 0 0 0 0 0 0 0 
0 0 0 0 0 0 0 0 0 
0 0 0 0 0 0 0 0 0 
0 0 0 0 0 0 0 0 0 
0 0 0 0 0 0 0 0 0 
0 0 0 0 0 0 0 0 0 
0 0 0 0 0 0 0 0 0 
0 0 0 0 0 0 0 0 0 
0 0 0 0 0 0 0 0 0 
0 0 0 0 0 0 0 0 0 
0 0 0 0 0 0 0 0 0 
0 0 0 0 0 0 0 0 0 
0 0 0 0 0 0 0 0 0 
0 0 0 0 0 0 0 0 0 
0 0 0 0 0 0 0 0 0 
0 0 0 0 0 0 0 0 0 
0 0 0 0 0 0 0 0 0 
0 0 0 0 0 0 0 0 0 
0 0 0 0 0 0 0 0 0 
0 0 0 0 0 0 0 0 0 
0 0 0 0 0 0 0 0 0 
0 0 0 0 0 0 0 0 0 
0 0 0 0 0 0 0 0 0 
0 0 0 0 0 0 0 0 0 
0 0 0 0 0 0 0 0 0 
0 0 0 0 0 0 0 0 0 
0 0 0 0 0 0 0 0 0 
0 0 0 0 0 0 0 0 0 
0 0 0 0 0 0 0 0 0 
0 0 0 0 0 0 0 0 0 
0 0 0 0 0 0 0 0 0 
0 0 0 0 0 0 0 0 0 
0 0 0 0 0 0 0 0 0 
0 0 0 0 0 0 0 0 0 
0 0 0 0 0 0 0 0 0 
0 0 0 0 0 0 0 0 0 
0 0 0 0 0 0 0 0 0 
0 0 0 0 0 0 0 0 0 

