# vtk DataFile Version 5.1
Generated by LIGGGHTS
ASCII
DATASET POLYDATA
POINTS 648 float
-0.0195638 -0.0385913 0.00120264 0.0325128 -0.03812 0.00119438 0.0195647 -0.0366528 0.00127951 
0.0253763 -0.011051 0.00147722 0.0358407 0.00533501 0.00144648 -0.0442311 0.00821601 0.00123935 
0.027557 0.009967 0.00150815 -0.0408838 0.0159645 0.00152009 0.0337272 0.0324898 0.00147712 
0.0114086 0.0440135 0.00144086 0.0416479 -0.0439733 0.00234544 0.0406519 -0.0427256 0.00249988 
0.00849583 -0.0405939 0.00129697 -0.0273176 -0.0361067 0.00160574 0.0077947 -0.0345433 0.00239449 
0.00231692 -0.0294453 0.00205231 -0.0346801 -0.0287009 0.00190786 0.0164647 -0.0275391 0.00261133 
0.0115492 -0.0227248 0.00176998 -0.0164034 -0.0216001 0.00131457 0.0204492 -0.0194639 0.00276385 
-0.0328213 -0.0176588 0.00134735 -0.0408642 -0.0154151 0.001741 -0.015814 -0.0152491 0.00145867 
0.0132043 -0.01541 0.00181656 0.0375745 -0.0151367 0.00161713 -0.0279963 -0.0141356 0.00206836 
-0.0341597 -0.0122829 0.0024478 0.0352883 -0.0103067 0.00182986 -0.0253129 -0.0039775 0.002793 
0.0448793 -0.00396119 0.00183346 0.00664535 -0.00164817 0.0026741 0.0189244 0.00254502 0.00180024 
-0.0233311 0.00384073 0.00253641 -0.0137512 0.00384646 0.00110427 0.0332757 0.00539899 0.00243772 
-0.019893 0.00878872 0.0023286 -0.0408306 0.00999374 0.0016371 0.00474506 0.0103043 0.00173317 
0.0234497 0.00978487 0.00178296 -0.00808524 0.0113378 0.00174605 -0.00071691 0.0108932 0.00228101 
-0.0350204 0.0121089 0.00161943 -0.0122189 0.0175978 0.00162089 0.00757299 0.0192258 0.00150312 
-0.0287332 0.0215601 0.00247038 -0.0324762 0.0230005 0.0028301 -0.0295899 0.0232577 0.00228364 
0.0397191 0.0283771 0.00203885 0.0434247 0.0295768 0.00113307 0.0040127 0.0314243 0.00145786 
0.0380057 0.0324307 0.00206703 0.00367032 0.0371324 0.00185401 -0.00647711 0.0391566 0.00161194 
-0.0390775 0.0447256 0.00221004 0.0171919 0.0449185 0.00154141 0.0211706 0.0445491 0.00105429 
-0.0389435 -0.0425966 0.00248177 -0.0136468 -0.0412372 0.00371518 -0.0177803 -0.0340186 0.00298538 
-0.0161578 -0.0337243 0.00369894 -0.0386911 -0.0311434 0.00406985 0.0153133 -0.0285941 0.00303483 
0.0347572 -0.0260666 0.00313004 0.0350196 -0.0250011 0.00360748 0.00179778 -0.0247441 0.00363249 
0.0155599 -0.0240909 0.00354466 -0.0210835 -0.0209207 0.0038209 -0.0033641 -0.0204173 0.00377024 
-0.0207996 -0.0190456 0.0028973 0.00886689 -0.0141191 0.00287277 0.0144468 -0.013247 0.00325604 
-0.00528066 -0.0121118 0.00346596 -0.0253401 -0.0103599 0.00316229 -0.00401126 -0.00720159 0.00398921 
0.0404774 -0.00688032 0.00395019 0.0200271 -0.00425623 0.00385936 -0.0408474 -0.00214648 0.00377671 
-0.0198668 -0.00211416 0.00345289 0.0168839 -0.00210364 0.00413373 -0.0376932 -0.000132947 0.00348044 
-0.0153419 -0.00108619 0.00407867 0.0420414 -0.00101026 0.00318031 -0.0131355 0.00164571 0.00246481 
0.0183943 0.00266245 0.00332925 0.0260144 0.00429017 0.00406522 -0.0429246 0.00657681 0.0036456 
-0.00598638 0.00689803 0.00410971 0.00533928 0.00728904 0.00320182 0.0324887 0.00836074 0.00214709 
-0.0365733 0.0119208 0.00386398 0.00243185 0.0120975 0.00384077 0.00789931 0.0136568 0.00292477 
0.012949 0.0143048 0.00285508 -0.0231109 0.0157017 0.00304334 0.018015 0.0183735 0.0038809 
0.00742845 0.0199749 0.00315138 0.0350116 0.0207306 0.00238715 0.0362273 0.0220011 0.0031988 
-0.0128609 0.0265935 0.00361239 -0.0425374 0.0333781 0.00380442 -0.0337286 0.0337045 0.00405403 
0.0278529 0.0342296 0.00341008 0.00888594 0.0360502 0.00373982 0.0030545 0.0369981 0.00312946 
-0.0133259 0.0414802 0.00303391 0.0170579 0.0421878 0.00280971 -0.00396528 -0.0444182 0.00443009 
0.0181024 -0.0433049 0.00529668 0.0195053 -0.043722 0.00416705 0.0166138 -0.0412108 0.00517013 
-0.0169239 -0.0402939 0.00344275 -0.0309963 -0.0355024 0.00484733 0.0355384 -0.0354155 0.00419609 
0.043014 -0.0343178 0.00382155 -0.0233761 -0.031813 0.00543054 -0.0210092 -0.0320472 0.00411948 
-0.0220587 -0.0306349 0.00541659 0.0449741 -0.0303513 0.00503513 -0.0414327 -0.0290659 0.00538112 
0.023019 -0.0293484 0.00433735 0.0346338 -0.0290927 0.00453293 -0.00863888 -0.0237376 0.00462459 
0.0210005 -0.0239559 0.00449469 0.0240101 -0.0228809 0.00517881 0.035159 -0.023363 0.00536546 
-0.0147645 -0.0165889 0.00503633 0.0242571 -0.0100823 0.00522226 0.0334462 -0.00930086 0.00502384 
-0.00254943 -0.00825679 0.00472342 -0.0344646 -0.00725539 0.00535146 0.0387156 -0.00624884 0.00521016 
0.0131353 -0.00504642 0.00488877 0.0180458 -0.00470109 0.00532576 -0.00941413 -0.00330341 0.00516701 
-0.0283489 -0.000417126 0.00524389 -0.0281455 -0.00127675 0.00348852 0.0140084 -6.89735e-05 0.00491029 
-0.0325416 0.00283857 0.00476141 -0.025141 0.00447188 0.00463763 -0.0403489 0.00598291 0.00444967 
-0.01547 0.00642247 0.00443024 -0.009285 0.00693532 0.00493016 -0.0105861 0.00898083 0.00495444 
0.0211953 0.00966092 0.00419289 0.0396593 0.013993 0.00524177 -0.00443291 0.0160613 0.00401901 
0.0407412 0.0174253 0.00502571 -0.023041 0.0197144 0.004539 0.0398418 0.0217469 0.00511241 
-0.0148746 0.0223253 0.00486392 -0.0436572 0.0238848 0.00354824 -0.0267196 0.0236159 0.00413326 
0.00264144 0.0247174 0.00407786 0.0258603 0.0235991 0.00358014 0.0395905 0.0272142 0.00464864 
-0.0127911 0.0299546 0.00512338 0.026696 0.03017 0.00507256 0.0191028 0.0315895 0.00422726 
0.0372507 0.0318783 0.00474731 0.00727395 0.0332762 0.00420309 -0.0407273 0.0358476 0.00344542 
-0.00196307 0.0366495 0.00486369 0.00201585 0.0404036 0.00444671 0.0294278 0.0431452 0.0042552 
0.00528787 0.0432844 0.0049004 0.0131812 -0.0427533 0.00605901 0.0348044 -0.042095 0.00621657 
-0.0289295 -0.0389067 0.00578986 0.00985621 -0.0367022 0.0058765 -0.0168273 -0.0360331 0.00601052 
-0.00161929 -0.0353994 0.00478236 0.0403097 -0.0347888 0.00557819 -0.0430551 -0.0267583 0.0055766 
0.00558373 -0.0242787 0.00560355 -0.0127621 -0.0231756 0.00556496 0.0233461 -0.0214624 0.00603817 
0.038292 -0.016257 0.00550767 0.0323803 -0.0150629 0.00575905 -0.0186412 -0.0134353 0.0066203 
-0.0327621 -0.0121928 0.00601917 0.0313953 -0.00974065 0.00617437 -0.0211095 -0.00770044 0.00522044 
0.0161928 -0.00760918 0.00662595 -0.0120059 -0.00345367 0.00551708 -0.0107529 -0.00365687 0.00544423 
0.00975646 -0.00313231 0.0060521 -0.00896956 -0.00131708 0.00635467 0.0290986 -0.000251763 0.00648986 
0.0116524 0.00206193 0.00633056 -0.0261639 0.00337815 0.00506418 0.00243665 0.00282786 0.0054999 
-0.027449 0.00511055 0.00484269 -0.0406381 0.00555966 0.00458681 0.0283387 0.00890506 0.00636602 
0.00861143 0.0123591 0.00628828 -0.00841171 0.0143034 0.00567817 0.0311878 0.014057 0.00594341 
0.0441199 0.0136981 0.00621843 -0.0287818 0.014969 0.00514245 0.000954082 0.0152563 0.00573142 
0.0121458 0.0151918 0.0062444 -0.0363159 0.0185996 0.00517184 -0.0122989 0.0222019 0.00558006 
0.00126512 0.0228658 0.00599127 0.021223 0.0244832 0.00579511 0.0438582 0.0244724 0.00552264 
-0.0214233 0.0285543 0.00450378 -0.0108954 0.0304 0.00588579 0.00372347 0.0304157 0.00648527 
0.00390562 0.0317225 0.00604802 0.0193546 0.0324404 0.00620243 0.0231674 0.0340949 0.00587814 
-0.00750544 0.0361316 0.00514909 -0.00585061 0.0388609 0.00608287 0.0281745 0.039089 0.00546105 
0.0222253 0.0407186 0.00642831 0.0352701 0.0439749 0.00604608 0.0405446 0.0433429 0.00563151 
-0.0317519 -0.0446953 0.00654983 0.0145521 -0.0432303 0.00739752 0.0418836 -0.0421436 0.00707036 
-0.018434 -0.0405477 0.00685163 0.040047 -0.0404588 0.00718684 -0.0108246 -0.0388127 0.00677757 
0.000822496 -0.0363122 0.00727767 -0.0179089 -0.0346335 0.00608163 -8.23525e-05 -0.034098 0.00631319 
-0.0376897 -0.0314333 0.00697954 0.00802514 -0.031483 0.00778558 -0.00682403 -0.0314098 0.00669886 
-0.0263426 -0.0292431 0.00684654 0.0306875 -0.0259396 0.00737276 -0.0225401 -0.0213878 0.00670251 
0.0394323 -0.021923 0.00737349 -0.00827992 -0.020547 0.00712066 0.00548761 -0.0197918 0.00729983 
-0.0296942 -0.0196153 0.00676895 0.0134129 -0.0192809 0.00628929 0.0363266 -0.0194176 0.00752443 
0.0296492 -0.015918 0.00699368 0.0198229 -0.0156851 0.00782572 -0.00710141 -0.0133745 0.0064226 
0.0403752 -0.0143085 0.00768662 -0.0222502 -0.00974669 0.00775236 0.0406218 -0.0100941 0.00727326 
-0.00747582 -0.00609419 0.00685142 0.00523139 -0.00599236 0.00785699 0.0407777 0.000744206 0.00756522 
0.0323225 0.00436429 0.00695813 0.0250346 0.00641518 0.00718128 -0.0101256 0.00978275 0.00747132 
0.00978397 0.00922321 0.00586751 0.0197977 0.00963841 0.00697156 -0.00867948 0.0139924 0.00713812 
-0.0196462 0.0155185 0.00727632 -0.00307286 0.0144526 0.0069234 0.0440772 0.0154938 0.00594096 
-0.0286532 0.0159811 0.00593797 -0.00317984 0.0164631 0.00667607 0.0256029 0.0175394 0.00627133 
-0.0421793 0.0225172 0.00781696 -0.0132251 0.0252506 0.00708888 -0.0190887 0.0269029 0.00780312 
-0.0376379 0.0294143 0.00780828 -0.0409258 0.0305044 0.0070973 0.00519606 0.0301696 0.00712765 
-0.00472634 0.0344449 0.006518 0.00317215 0.0343196 0.00726143 -0.0245447 0.0378537 0.00704181 
-0.00973825 0.0391656 0.00667214 0.0238959 0.0383247 0.00708315 -0.0181988 0.0434549 0.00763363 
0.0352379 0.0438995 0.00736638 -0.0346971 -0.0446764 0.00838698 -0.00340304 -0.0448428 0.00920007 
-0.044759 -0.0437614 0.0083591 -0.0248654 -0.0427111 0.0081194 0.0248068 -0.0428986 0.00838774 
0.0238162 -0.0409762 0.00855667 0.0424299 -0.0409921 0.00836011 0.0397687 -0.0374633 0.00817103 
0.023158 -0.0340207 0.00801905 0.0244271 -0.0334586 0.00826562 -0.0262624 -0.032473 0.00832969 
-0.0232422 -0.0321576 0.00857925 -0.0448384 -0.0296834 0.00861698 -0.0401314 -0.0280847 0.00769472 
-0.0240024 -0.0280603 0.0091784 0.0156293 -0.0283842 0.00774728 0.03382 -0.0268981 0.00824441 
-0.0338231 -0.0250135 0.00919737 0.032808 -0.025967 0.00814801 0.00538025 -0.0241403 0.00860107 
0.0102479 -0.024092 0.0084431 0.0436787 -0.0219137 0.00867499 0.0336491 -0.0197505 0.00903695 
-0.0108877 -0.0188832 0.00903699 -0.0317771 -0.0175651 0.00810008 -0.0204621 -0.0172006 0.00904795 
0.0404767 -0.0183151 0.00900986 0.0223879 -0.0163393 0.00879191 0.0347312 -0.012978 0.0082636 
0.0277003 -0.0107969 0.00877681 -0.0196799 -0.00931279 0.00884233 -0.00553214 -0.00871323 0.00832296 
-0.0135858 -0.00672635 0.00911482 -0.00783961 -0.000387029 0.00892502 -0.00702036 -0.00121172 0.00917019 
0.00127443 -0.000618905 0.00821596 -0.0416237 0.00110806 0.00832599 -0.0332593 0.000859011 0.00776489 
-0.00967086 0.00179773 0.00905498 0.00417698 0.0024455 0.00897077 0.0362421 0.00170773 0.00866593 
0.0305447 0.00486582 0.00904115 0.0404406 0.00462082 0.00801697 -0.0287984 0.00559412 0.00902963 
-0.0170872 0.00564833 0.00821145 -0.00723413 0.00605583 0.00891233 0.0011249 0.00615697 0.00832908 
0.0228765 0.00606581 0.00897689 -0.0392616 0.00972366 0.00793244 0.0399323 0.0117688 0.008466 
-0.00831541 0.0129665 0.00804781 -0.00279986 0.0127222 0.00884629 0.0128044 0.0127337 0.00805515 
0.0261916 0.0119357 0.00818691 -0.034865 0.0142961 0.00876783 0.0287781 0.014071 0.0088876 
0.0336082 0.013194 0.00909419 -0.0161548 0.0159009 0.00750334 0.0418335 0.0161761 0.00874915 
-0.0214239 0.0189608 0.00800679 0.0122157 0.0191756 0.00827505 0.0388885 0.0193682 0.00871315 
-0.0153727 0.020636 0.00904961 -0.0282566 0.021284 0.00905428 -0.0349287 0.0230684 0.00892044 
-0.0138035 0.0240512 0.00832425 0.0226957 0.0260881 0.00802429 0.00834461 0.0278725 0.0078769 
-0.0260391 0.0304395 0.00778785 0.0444958 0.0309554 0.00908123 -0.0359241 0.0337864 0.00783741 
0.00284552 0.0345861 0.00853306 0.0132394 0.0345575 0.00833314 0.0311732 0.0371467 0.00812244 
-0.00883869 0.0381834 0.00771792 -0.0375088 0.0393741 0.00870163 -0.0312382 0.0393096 0.00796292 
0.0163992 0.0415262 0.00865206 -0.0428902 -0.0449088 0.00973214 -0.027409 -0.0433703 0.00954879 
0.0201641 -0.0426709 0.00950454 0.0414821 -0.0410789 0.00965791 -0.00670669 -0.0394183 0.00939314 
0.0244803 -0.0401788 0.0100644 -0.00302782 -0.0385948 0.00949177 0.0156715 -0.0391733 0.0101178 
0.00798734 -0.0367051 0.00935395 0.00879071 -0.0344865 0.00958482 -0.0427235 -0.0332389 0.0097534 
-0.0266532 -0.0301716 0.00954547 -0.0105296 -0.0314142 0.00932293 0.010226 -0.0308634 0.00900159 
0.00577088 -0.0287415 0.00979254 -0.00580099 -0.0272788 0.00961858 0.033456 -0.0256735 0.00921706 
-0.0408326 -0.0234295 0.00992762 -0.0350278 -0.0224863 0.00859068 0.0109547 -0.0235646 0.00908142 
0.00623721 -0.0211799 0.0102883 0.0030191 -0.0179247 0.00963436 0.0249316 -0.014475 0.00934189 
0.0268005 -0.0146468 0.0101902 -0.0329121 -0.0139828 0.0104335 0.0176437 -0.0119747 0.0101822 
0.00689113 -0.0107816 0.009791 0.0218314 -0.00971151 0.0085961 0.0251729 -0.00985964 0.0104904 
0.0350526 -0.0102353 0.00935067 -0.0304645 -0.00701594 0.0098798 -0.0198564 -0.00683511 0.00928134 
-0.0150798 -0.00698339 0.00863571 -0.0129003 -0.00574839 0.00941651 0.00937085 -0.00418454 0.0100769 
-0.042786 -0.00359954 0.00996065 -0.0179231 -0.00300678 0.00943713 0.0384376 0.000848974 0.00932277 
0.0147261 0.00139147 0.00940438 0.032558 0.00153523 0.00871448 0.0292006 0.00433004 0.00928965 
-0.037077 0.00611456 0.00931825 0.021602 0.00540593 0.00940668 0.030759 0.00580352 0.0103444 
-0.0426568 0.00723228 0.00933604 0.0142017 0.0079404 0.00993394 0.0202046 0.00840095 0.00984645 
0.0212596 0.00979192 0.00976055 0.00418285 0.0112423 0.00906132 0.014866 0.0127598 0.0102165 
-0.0429188 0.0135204 0.00948892 -0.0310202 0.0131063 0.0101133 8.23501e-07 0.0138406 0.0101617 
0.0143092 0.0139794 0.00963791 0.0248423 0.0143007 0.00938349 0.00976298 0.0163696 0.00979398 
-0.0360536 0.0173104 0.00919136 0.0215224 0.0171285 0.009234 0.0226738 0.0181095 0.0100798 
-0.0436896 0.0195853 0.00924686 0.00395304 0.0187088 0.0103843 -0.0431379 0.0208085 0.00944661 
0.00128112 0.0217131 0.00997533 0.0123926 0.0218243 0.00931338 0.0146363 0.0223077 0.00972624 
0.03506 0.0228899 0.0102551 -0.00739359 0.0259593 0.010533 0.0167463 0.0251763 0.00972968 
-0.0114472 0.026715 0.00948356 0.00953871 0.0271324 0.00965072 -0.0357156 0.0282031 0.010384 
0.0191509 0.0299648 0.0105023 -0.00435696 0.0325462 0.0101648 0.0165329 0.0385374 0.00986105 
0.0251972 0.0393087 0.00938086 0.00805094 0.0422278 0.00995531 -0.0205282 0.0432397 0.0104873 
0.0399235 0.0434757 0.00941517 -0.0190394 0.0446837 0.00883039 -0.00674967 -0.0416523 0.0118253 
-0.0334706 -0.0396012 0.0111977 -0.0234086 -0.038644 0.00984129 -0.0370475 -0.0370945 0.0106171 
-0.0439713 -0.0357399 0.0107362 0.0307351 -0.0355434 0.0106374 0.00594186 -0.0351889 0.0115052 
0.0268369 -0.0315202 0.0115474 0.00156248 -0.0194187 0.0116042 -0.0426154 -0.0165053 0.0112201 
-0.0339565 -0.0167518 0.0113483 -0.0313057 -0.0141988 0.0101121 -0.038829 -0.00978443 0.0111184 
0.0286804 -0.00919085 0.0118296 -0.042331 -0.00792816 0.0105011 -0.0101373 -0.00698039 0.00986112 
0.0127657 -0.00746761 0.0107986 -0.00720807 -0.00608605 0.0106701 0.0386193 -0.00496685 0.0109287 
-0.0260142 0.00017485 0.0115797 0.0188762 0.00181355 0.0114306 -0.0408092 0.00981999 0.0114431 
0.00517921 0.0169249 0.011727 -0.0386663 0.0253433 0.0109131 -0.0267569 0.0263983 0.0108659 
-0.0313244 0.0314049 0.0112282 -0.0219587 0.0304934 0.0109206 0.0038092 0.0311583 0.0116885 
0.01325 0.0319187 0.011692 -0.041477 0.0364172 0.0111281 0.0297434 0.0373158 0.0107904 
-0.0112537 0.0395394 0.0105906 0.0221021 0.0401282 0.0114731 -0.0390027 0.0421086 0.0111572 
0.0147823 -0.0446949 0.0117289 -0.0335565 -0.0442122 0.011886 -0.0308094 -0.0435702 0.0127032 
-0.0225361 -0.0441701 0.0110228 -0.042922 -0.0404536 0.0124247 -0.0248652 -0.040212 0.0118424 
0.0308099 -0.0378456 0.0122846 -0.00338111 -0.0363358 0.012133 0.0333162 -0.0342631 0.0122804 
0.0346336 -0.0325969 0.0114672 0.0280204 -0.0311414 0.0125178 -0.0240719 -0.0268296 0.0123992 
0.000892701 -0.0263701 0.012392 -0.038621 -0.0229432 0.0115422 0.039775 -0.0211058 0.0120058 
-0.0100897 -0.0180162 0.0126591 -0.0257955 -0.0157834 0.0123546 -0.00444012 -0.0151621 0.0122159 
-0.0388614 -0.0136303 0.011863 -0.0117656 -0.0138394 0.0121335 -0.0269092 -0.0125643 0.0127892 
-0.0112192 -0.0104501 0.0125638 0.00743742 -0.00926665 0.0124668 0.013874 -0.00963069 0.0130393 
0.0109664 -0.00760095 0.0123533 0.021323 -0.00444137 0.0122671 -0.0141425 -0.00311887 0.0122282 
-0.0395569 -0.00227866 0.0111655 0.039455 -0.000236508 0.0124245 0.0449494 0.00392273 0.0122854 
0.0246705 0.0064451 0.0120612 0.0221269 0.00728552 0.0124499 0.0340899 0.00882812 0.0122236 
-0.0349081 0.00917553 0.0115412 -0.0214351 0.00957734 0.0124907 0.0398091 0.011618 0.0124045 
0.0090081 0.0191686 0.0118328 -0.022709 0.0198803 0.0123738 0.0307708 0.0242663 0.0119789 
-0.00563177 0.0268155 0.0121685 -0.0200898 0.0311527 0.0119563 0.0364634 0.0310238 0.0124345 
-0.0073504 0.0318329 0.0123834 -0.0264781 0.032823 0.0124233 -0.0379532 0.0399341 0.0111688 
-0.00785852 0.041878 0.0113452 0.0430506 0.0422314 0.0116555 0.0272875 -0.0186725 0.0125896 
-0.0136128 -0.00979682 0.0127231 -0.0214415 -0.007536 0.0133797 -0.00433253 -0.00676057 0.0139359 
0.0180565 -0.00487531 0.0137067 -0.0193355 0.018129 0.0125686 -0.00782209 0.0241861 0.0135086 
0.0181332 0.0246356 0.0141551 0.000162142 0.0251126 0.0136704 -0.014478 0.0275162 0.012448 
0.0214431 0.0335886 0.0124526 0.0252581 -0.0163235 0.0142185 -0.040885 -0.00406647 0.0155486 
0.0110904 0.00657535 0.0152903 -0.039126 0.0399637 0.015733 -0.0349861 -0.0412827 0.0171924 
0.000425919 -0.0415728 0.0169746 -0.0406313 0.0295913 0.0174859 -0.0406141 -0.0405112 0.0179743 
0.0101693 0.00555192 0.0184611 -0.0177429 -0.0346724 0.0191704 0.027474 -0.0338615 0.0191351 
0.00546842 0.0177814 0.0196735 -0.00586029 -0.0338127 0.0213018 0.0392765 -0.0300093 0.021159 
-0.0139777 -0.0223984 0.0214796 0.0129906 -0.00677597 0.021203 -0.0394276 0.0109375 0.021487 
-0.0323128 -0.0219837 0.0225411 0.0184681 -0.0172117 0.0217642 0.0282033 -0.0178095 0.0217661 
0.0322358 -0.0130621 0.0223456 -0.000610522 -0.00103491 0.0222114 -0.0396817 -0.0304797 0.0231684 
-0.0432264 -0.0264101 0.0234509 -0.0291427 -0.0219343 0.0241544 -0.0152062 0.0294088 0.023765 
0.0054016 -0.025334 0.0245883 -0.00552594 0.00555795 0.0251185 0.00976854 0.0197772 0.025271 
-0.0227164 -0.0141288 0.026551 0.0338942 -0.0410147 0.0269616 -0.0343844 -0.0078404 0.0280345 
-0.0405162 -0.0161033 0.0293189 0.0293019 -0.00298432 0.0290994 0.023953 0.00820576 0.0288699 
-0.0160452 -0.0323821 0.0300388 0.0433459 -0.0353282 0.0316413 0.0275881 -0.00673863 0.0311445 
-0.00229178 0.0020129 0.0319265 0.0133448 0.00646544 0.0315387 0.0218308 -0.0192565 0.0327495 
0.0414517 -0.0114994 0.0333143 -0.0183202 -0.0175475 0.0339543 0.0323804 -0.0132471 0.0339798 
-0.0422696 0.0340949 0.0335809 0.00264867 -0.0338128 0.035475 -0.032208 0.0306075 0.0355437 
0.0262592 -0.0217201 0.0359191 0.00153271 0.0201988 0.0366415 0.0262096 -0.0449372 0.0381576 
0.0412685 -0.0295104 0.0378946 0.0101031 -0.0273014 0.037408 -0.00474481 -0.00600267 0.0372238 
0.0277548 0.0042931 0.0380123 0.0354139 0.0312817 0.0382831 -0.00446216 -0.0255279 0.0407315 
0.012585 0.0155082 0.0398416 -0.0368667 0.0306348 0.0408958 0.0152528 0.033152 0.0406253 
-0.0393221 -0.0167834 0.0434905 0.0342493 -0.0115037 0.0431561 0.00314898 0.00491531 0.0427415 
0.0223025 -0.0112244 0.0444207 -0.0326334 -0.00963456 0.0440426 -0.0102477 0.0267602 0.0447696 
-0.0207563 -0.0111167 0.0451985 -0.0449336 -0.00957357 0.0454994 -0.0213481 0.0319153 0.0453534 
-0.0160353 0.0448572 0.0453931 0.0339316 -0.041715 0.047002 0.00265626 0.00371614 0.0472384 
0.0153641 0.0146287 0.0465753 -0.0269229 0.0267788 0.0469679 0.0439232 0.0371117 0.0466337 
0.00513794 0.0433856 0.0472344 0.0114764 0.0140289 0.047995 0.0164577 0.0353116 0.0479786 
0.0302919 -0.0148257 0.0490608 -0.0328109 -0.0226975 0.0504969 -0.0329608 -0.0218045 0.051403 
-0.024842 -0.00884532 0.0520328 -0.0371624 0.011326 0.0523876 -0.0336946 -0.0248459 0.0535184 
0.0323341 0.0191974 0.0536807 -0.0281804 0.0418824 0.0528595 0.0320014 0.00756294 0.0542896 
0.0185094 -0.042363 0.0560739 0.0414834 -0.0181367 0.056009 -0.0420316 -0.0145538 0.0559286 
-0.0440308 0.0448256 0.0565174 0.0341086 -0.0368686 0.0577748 0.0379188 0.0120326 0.0578123 
-0.0386256 -0.00983966 0.0589523 -0.015788 -0.0282898 0.0601606 -0.0437633 0.0406561 0.0604057 
0.0289145 -0.0340196 0.0610826 -0.0419519 -0.0259749 0.0618903 0.0154702 -0.00154679 0.0622163 
-0.0144089 0.0201081 0.0628498 0.0104707 0.0313218 0.0646928 0.00357123 -0.00830953 0.067213 
-0.0356048 -0.000104637 0.0675353 -0.0197415 0.0344175 0.067965 0.00635633 0.000852437 0.0690135 
-0.0385899 -0.0405251 0.0707102 0.0414788 -0.00521487 0.0701581 -0.0296003 0.0277025 0.0708094 
-0.0245993 0.0193658 0.072179 -0.0170112 0.0231088 0.0717893 0.00308146 0.0401468 0.0723997 
0.0131273 0.040817 0.0722858 -0.00521279 -0.0413279 0.0730624 0.0419483 -0.0348097 0.0735071 
0.0282359 -0.00877456 0.0757704 -0.0081225 0.0151775 0.0753634 -0.0155539 0.0359545 0.0760567 
0.0433204 -0.0141837 0.0775534 -0.0256005 0.0215871 0.0772119 -0.00757157 0.00454821 0.0796983 
0.0188903 -0.0308528 0.0837677 -0.0207679 -0.0256315 0.0850049 0.00643655 -0.000956063 0.0845443 
0.00741479 -0.0295782 0.0864869 0.00347554 0.00338662 0.0861118 -0.00254916 -0.00379952 0.0886735 

VERTICES 649 648
OFFSETS vtktypeint64
0 1 2 3 4 5 6 7 8 
9 10 11 12 13 14 15 16 17 
18 19 20 21 22 23 24 25 26 
27 28 29 30 31 32 33 34 35 
36 37 38 39 40 41 42 43 44 
45 46 47 48 49 50 51 52 53 
54 55 56 57 58 59 60 61 62 
63 64 65 66 67 68 69 70 71 
72 73 74 75 76 77 78 79 80 
81 82 83 84 85 86 87 88 89 
90 91 92 93 94 95 96 97 98 
99 100 101 102 103 104 105 106 107 
108 109 110 111 112 113 114 115 116 
117 118 119 120 121 122 123 124 125 
126 127 128 129 130 131 132 133 134 
135 136 137 138 139 140 141 142 143 
144 145 146 147 148 149 150 151 152 
153 154 155 156 157 158 159 160 161 
162 163 164 165 166 167 168 169 170 
171 172 173 174 175 176 177 178 179 
180 181 182 183 184 185 186 187 188 
189 190 191 192 193 194 195 196 197 
198 199 200 201 202 203 204 205 206 
207 208 209 210 211 212 213 214 215 
216 217 218 219 220 221 222 223 224 
225 226 227 228 229 230 231 232 233 
234 235 236 237 238 239 240 241 242 
243 244 245 246 247 248 249 250 251 
252 253 254 255 256 257 258 259 260 
261 262 263 264 265 266 267 268 269 
270 271 272 273 274 275 276 277 278 
279 280 281 282 283 284 285 286 287 
288 289 290 291 292 293 294 295 296 
297 298 299 300 301 302 303 304 305 
306 307 308 309 310 311 312 313 314 
315 316 317 318 319 320 321 322 323 
324 325 326 327 328 329 330 331 332 
333 334 335 336 337 338 339 340 341 
342 343 344 345 346 347 348 349 350 
351 352 353 354 355 356 357 358 359 
360 361 362 363 364 365 366 367 368 
369 370 371 372 373 374 375 376 377 
378 379 380 381 382 383 384 385 386 
387 388 389 390 391 392 393 394 395 
396 397 398 399 400 401 402 403 404 
405 406 407 408 409 410 411 412 413 
414 415 416 417 418 419 420 421 422 
423 424 425 426 427 428 429 430 431 
432 433 434 435 436 437 438 439 440 
441 442 443 444 445 446 447 448 449 
450 451 452 453 454 455 456 457 458 
459 460 461 462 463 464 465 466 467 
468 469 470 471 472 473 474 475 476 
477 478 479 480 481 482 483 484 485 
486 487 488 489 490 491 492 493 494 
495 496 497 498 499 500 501 502 503 
504 505 506 507 508 509 510 511 512 
513 514 515 516 517 518 519 520 521 
522 523 524 525 526 527 528 529 530 
531 532 533 534 535 536 537 538 539 
540 541 542 543 544 545 546 547 548 
549 550 551 552 553 554 555 556 557 
558 559 560 561 562 563 564 565 566 
567 568 569 570 571 572 573 574 575 
576 577 578 579 580 581 582 583 584 
585 586 587 588 589 590 591 592 593 
594 595 596 597 598 599 600 601 602 
603 604 605 606 607 608 609 610 611 
612 613 614 615 616 617 618 619 620 
621 622 623 624 625 626 627 628 629 
630 631 632 633 634 635 636 637 638 
639 640 641 642 643 644 645 646 647 
648 
CONNECTIVITY vtktypeint64
0 1 2 3 4 5 6 7 8 
9 10 11 12 13 14 15 16 17 
18 19 20 21 22 23 24 25 26 
27 28 29 30 31 32 33 34 35 
36 37 38 39 40 41 42 43 44 
45 46 47 48 49 50 51 52 53 
54 55 56 57 58 59 60 61 62 
63 64 65 66 67 68 69 70 71 
72 73 74 75 76 77 78 79 80 
81 82 83 84 85 86 87 88 89 
90 91 92 93 94 95 96 97 98 
99 100 101 102 103 104 105 106 107 
108 109 110 111 112 113 114 115 116 
117 118 119 120 121 122 123 124 125 
126 127 128 129 130 131 132 133 134 
135 136 137 138 139 140 141 142 143 
144 145 146 147 148 149 150 151 152 
153 154 155 156 157 158 159 160 161 
162 163 164 165 166 167 168 169 170 
171 172 173 174 175 176 177 178 179 
180 181 182 183 184 185 186 187 188 
189 190 191 192 193 194 195 196 197 
198 199 200 201 202 203 204 205 206 
207 208 209 210 211 212 213 214 215 
216 217 218 219 220 221 222 223 224 
225 226 227 228 229 230 231 232 233 
234 235 236 237 238 239 240 241 242 
243 244 245 246 247 248 249 250 251 
252 253 254 255 256 257 258 259 260 
261 262 263 264 265 266 267 268 269 
270 271 272 273 274 275 276 277 278 
279 280 281 282 283 284 285 286 287 
288 289 290 291 292 293 294 295 296 
297 298 299 300 301 302 303 304 305 
306 307 308 309 310 311 312 313 314 
315 316 317 318 319 320 321 322 323 
324 325 326 327 328 329 330 331 332 
333 334 335 336 337 338 339 340 341 
342 343 344 345 346 347 348 349 350 
351 352 353 354 355 356 357 358 359 
360 361 362 363 364 365 366 367 368 
369 370 371 372 373 374 375 376 377 
378 379 380 381 382 383 384 385 386 
387 388 389 390 391 392 393 394 395 
396 397 398 399 400 401 402 403 404 
405 406 407 408 409 410 411 412 413 
414 415 416 417 418 419 420 421 422 
423 424 425 426 427 428 429 430 431 
432 433 434 435 436 437 438 439 440 
441 442 443 444 445 446 447 448 449 
450 451 452 453 454 455 456 457 458 
459 460 461 462 463 464 465 466 467 
468 469 470 471 472 473 474 475 476 
477 478 479 480 481 482 483 484 485 
486 487 488 489 490 491 492 493 494 
495 496 497 498 499 500 501 502 503 
504 505 506 507 508 509 510 511 512 
513 514 515 516 517 518 519 520 521 
522 523 524 525 526 527 528 529 530 
531 532 533 534 535 536 537 538 539 
540 541 542 543 544 545 546 547 548 
549 550 551 552 553 554 555 556 557 
558 559 560 561 562 563 564 565 566 
567 568 569 570 571 572 573 574 575 
576 577 578 579 580 581 582 583 584 
585 586 587 588 589 590 591 592 593 
594 595 596 597 598 599 600 601 602 
603 604 605 606 607 608 609 610 611 
612 613 614 615 616 617 618 619 620 
621 622 623 624 625 626 627 628 629 
630 631 632 633 634 635 636 637 638 
639 640 641 642 643 644 645 646 647 

POINT_DATA 648
FIELD FieldData 12
id 1 648 int
210 359 436 340 153 316 480 315 180 
302 31 471 136 82 489 139 354 445 
449 160 448 274 143 374 376 194 276 
380 3 285 50 135 77 212 300 126 
124 453 338 296 442 221 181 7 443 
138 130 254 179 114 332 466 482 413 
476 55 438 258 68 350 156 333 147 
430 335 116 71 403 25 177 441 460 
43 23 42 368 105 360 405 371 204 
217 80 499 305 379 301 213 426 145 
345 273 46 41 70 117 281 33 529 
266 455 348 421 286 182 361 434 89 
346 93 52 99 487 344 47 239 307 
250 352 393 103 294 493 234 323 329 
462 1 38 260 53 299 515 252 142 
205 542 265 334 56 501 245 425 144 
420 363 220 392 521 279 325 191 109 
520 507 461 504 268 481 94 225 309 
232 123 108 342 414 140 312 102 226 
159 69 128 79 416 472 170 74 59 
146 157 511 278 257 171 20 151 341 
208 519 244 284 503 129 401 17 395 
63 48 469 308 485 431 394 78 206 
209 343 201 148 65 251 452 45 536 
62 397 272 242 84 218 35 508 34 
24 402 388 477 505 398 295 121 64 
111 174 28 479 44 238 422 168 490 
211 227 311 243 377 196 216 474 288 
497 255 119 178 202 358 228 473 118 
287 131 498 451 506 81 387 313 437 
320 328 375 475 275 98 463 113 390 
429 271 122 51 347 303 404 137 502 
96 120 183 415 267 484 223 317 470 
154 439 298 355 444 259 292 248 324 
32 132 66 365 75 389 36 175 61 
458 141 407 478 486 456 467 261 432 
262 60 378 446 297 310 236 468 40 
110 447 161 166 49 330 97 163 509 
269 327 494 85 391 198 559 76 318 
412 164 188 203 207 314 326 92 459 
115 319 229 304 185 283 331 409 190 
282 526 192 167 289 240 290 500 349 
106 101 427 293 399 72 522 383 370 
263 57 465 90 538 418 495 396 454 
450 424 112 214 464 21 384 169 322 
150 491 15 433 339 54 152 417 357 
337 18 104 219 162 195 30 199 410 
321 222 246 386 91 406 351 172 457 
256 173 411 22 492 367 5 440 496 
73 306 16 483 95 39 27 224 133 
83 186 4 193 100 408 488 419 158 
29 233 362 155 435 372 241 366 200 
230 134 87 356 67 88 543 107 13 
291 37 237 247 176 381 58 215 8 
231 428 127 336 125 385 382 2 86 
353 423 165 400 197 373 364 149 189 
280 187 26 253 270 249 277 19 516 
264 10 6 11 184 14 12 9 369 
235 553 567 528 523 562 591 524 549 
546 518 589 587 571 533 513 580 601 
576 551 517 566 564 525 527 547 540 
532 545 514 612 577 563 572 592 510 
570 605 615 565 512 558 638 539 530 
550 616 596 573 561 534 548 645 557 
613 623 604 560 594 579 618 628 593 
599 617 535 585 554 583 614 597 598 
622 637 531 586 633 552 537 541 578 
569 595 581 607 555 556 635 603 590 
639 626 620 544 629 575 634 574 610 
625 611 608 568 600 630 648 647 609 
582 588 643 606 632 584 602 619 624 
644 646 631 636 627 621 640 641 642 

type 1 648 int
1 1 1 1 1 1 1 1 1 
1 1 1 1 1 1 1 1 1 
1 1 1 1 1 1 1 1 1 
1 2 1 1 1 1 1 1 1 
1 1 1 1 1 1 1 2 1 
1 1 1 1 1 1 1 1 1 
1 1 1 1 1 1 1 1 1 
1 1 1 1 1 1 1 1 1 
1 1 1 1 1 1 1 1 1 
1 1 1 1 1 1 1 1 1 
1 1 1 1 1 1 1 1 1 
1 1 1 1 1 1 1 1 1 
1 1 1 1 1 1 1 1 1 
1 1 1 1 1 1 1 1 1 
1 4 1 1 1 1 1 1 1 
1 1 1 1 1 1 1 1 1 
1 1 1 1 1 1 1 1 1 
1 1 1 1 1 1 1 1 1 
1 1 1 1 1 1 1 1 1 
1 1 1 1 1 1 1 1 1 
1 1 1 1 1 1 1 1 1 
1 1 1 1 1 1 1 1 1 
1 1 1 1 1 1 1 1 1 
1 1 1 1 1 1 1 1 1 
1 1 1 1 1 1 1 1 1 
1 1 1 1 1 1 1 1 1 
1 1 1 1 1 1 1 1 1 
1 1 1 1 1 1 1 1 1 
1 1 1 1 1 1 1 1 1 
1 1 1 1 1 1 1 1 1 
1 1 1 1 1 1 1 1 1 
1 1 1 1 1 1 1 1 1 
1 1 1 1 1 1 1 1 1 
1 1 1 1 1 1 1 1 1 
1 1 1 1 1 1 1 1 1 
1 1 1 1 1 1 1 1 1 
1 1 1 1 1 1 1 1 1 
1 1 1 1 1 1 1 1 1 
1 1 1 1 1 1 1 1 1 
1 1 1 1 1 1 1 1 1 
1 1 1 1 1 1 1 1 1 
1 1 1 1 1 1 1 1 1 
1 1 1 1 1 1 1 1 1 
1 1 1 1 1 1 1 1 1 
1 1 1 1 1 1 1 1 1 
1 1 2 1 1 1 1 1 1 
1 1 1 1 1 1 1 1 1 
1 1 1 1 1 1 1 1 1 
1 1 1 1 1 1 2 1 1 
1 1 2 1 1 1 1 1 1 
1 1 2 1 1 1 1 1 1 
1 1 1 1 1 1 1 1 1 
1 1 1 1 1 1 1 1 2 
1 1 1 1 1 1 1 1 2 
1 1 1 1 1 1 1 3 1 
1 1 1 1 1 1 1 1 1 
1 1 1 1 1 1 1 1 2 
1 2 2 2 1 2 2 2 1 
1 1 1 1 1 1 1 1 1 
1 1 1 1 1 1 1 1 1 
1 1 1 1 1 1 1 1 1 
1 1 1 1 1 1 1 1 1 
1 1 1 1 2 1 1 1 1 
1 1 1 1 1 1 1 1 1 
1 1 1 1 1 1 1 1 1 
1 1 1 1 1 1 1 1 1 
1 1 1 1 1 1 1 1 1 
1 1 1 1 1 1 1 1 1 
1 1 1 1 1 1 2 1 1 
1 1 1 1 1 1 1 1 1 
1 1 1 1 1 1 1 1 1 
1 1 1 1 1 1 1 1 1 

i 3 648 int
0 0 0 0 0 0 0 0 0 
0 0 0 0 0 0 0 0 0 
0 0 0 0 0 0 0 0 0 
0 0 0 0 0 0 0 0 0 
0 0 0 0 0 0 0 0 0 
0 0 0 0 0 0 0 0 0 
0 0 0 0 0 0 0 0 0 
0 0 0 0 0 0 0 0 0 
0 0 0 0 0 0 0 0 0 
0 0 0 0 0 0 0 0 0 
0 0 0 0 0 0 0 0 0 
0 0 0 0 0 0 0 0 0 
0 0 0 0 0 0 0 0 0 
0 0 0 0 0 0 0 0 0 
0 0 0 0 0 0 0 0 0 
0 0 0 0 0 0 0 0 0 
0 0 0 0 0 0 0 0 0 
0 0 0 0 0 0 0 0 0 
0 0 0 0 0 0 0 0 0 
0 0 0 0 0 0 0 0 0 
0 0 0 0 0 0 0 0 0 
0 0 0 0 0 0 0 0 0 
0 0 0 0 0 0 0 0 0 
0 0 0 0 0 0 0 0 0 
0 0 0 0 0 0 0 0 0 
0 0 0 0 0 0 0 0 0 
0 0 0 0 0 0 0 0 0 
0 0 0 0 0 0 0 0 0 
0 0 0 0 0 0 0 0 0 
0 0 0 0 0 0 0 0 0 
0 0 0 0 0 0 0 0 0 
0 0 0 0 0 0 0 0 0 
0 0 0 0 0 0 0 0 0 
0 0 0 0 0 0 0 0 0 
0 0 0 0 0 0 0 0 0 
0 0 0 0 0 0 0 0 0 
0 0 0 0 0 0 0 0 0 
0 0 0 0 0 0 0 0 0 
0 0 0 0 0 0 0 0 0 
0 0 0 0 0 0 0 0 0 
0 0 0 0 0 0 0 0 0 
0 0 0 0 0 0 0 0 0 
0 0 0 0 0 0 0 0 0 
0 0 0 0 0 0 0 0 0 
0 0 0 0 0 0 0 0 0 
0 0 0 0 0 0 0 0 0 
0 0 0 0 0 0 0 0 0 
0 0 0 0 0 0 0 0 0 
0 0 0 0 0 0 0 0 0 
0 0 0 0 0 0 0 0 0 
0 0 0 0 0 0 0 0 0 
0 0 0 0 0 0 0 0 0 
0 0 0 0 0 0 0 0 0 
0 0 0 0 0 0 0 0 0 
0 0 0 0 0 0 0 0 0 
0 0 0 0 0 0 0 0 0 
0 0 0 0 0 0 0 0 0 
0 0 0 0 0 0 0 0 0 
0 0 0 0 0 0 0 0 0 
0 0 0 0 0 0 0 0 0 
0 0 0 0 0 0 0 0 0 
0 0 0 0 0 0 0 0 0 
0 0 0 0 0 0 0 0 0 
0 0 0 0 0 0 0 0 0 
0 0 0 0 0 0 0 0 0 
0 0 0 0 0 0 0 0 0 
0 0 0 0 0 0 0 0 0 
0 0 0 0 0 0 0 0 0 
0 0 0 0 0 0 0 0 0 
0 0 0 0 0 0 0 0 0 
0 0 0 0 0 0 0 0 0 
0 0 0 0 0 0 0 0 0 
0 0 0 0 0 0 0 0 0 
0 0 0 0 0 0 0 0 0 
0 0 0 0 0 0 0 0 0 
0 0 0 0 0 0 0 0 0 
0 0 0 0 0 0 0 0 0 
0 0 0 0 0 0 0 0 0 
0 0 0 0 0 0 0 0 0 
0 0 0 0 0 0 0 0 0 
0 0 0 0 0 0 0 0 0 
0 0 0 0 0 0 0 0 0 
0 0 0 0 0 0 0 0 0 
0 0 0 0 0 0 0 0 0 
0 0 0 0 0 0 0 0 0 
0 0 0 0 0 0 0 0 0 
0 0 0 0 0 0 0 0 0 
0 0 0 0 0 0 0 0 0 
0 0 0 0 0 0 0 0 0 
0 0 0 0 0 0 0 0 0 
0 0 0 0 0 0 0 0 0 
0 0 0 0 0 0 0 0 0 
0 0 0 0 0 0 0 0 0 
0 0 0 0 0 0 0 0 0 
0 0 0 0 0 0 0 0 0 
0 0 0 0 0 0 0 0 0 
0 0 0 0 0 0 0 0 0 
0 0 0 0 0 0 0 0 0 
0 0 0 0 0 0 0 0 0 
0 0 0 0 0 0 0 0 0 
0 0 0 0 0 0 0 0 0 
0 0 0 0 0 0 0 0 0 
0 0 0 0 0 0 0 0 0 
0 0 0 0 0 0 0 0 0 
0 0 0 0 0 0 0 0 0 
0 0 0 0 0 0 0 0 0 
0 0 0 0 0 0 0 0 0 
0 0 0 0 0 0 0 0 0 
0 0 0 0 0 0 0 0 0 
0 0 0 0 0 0 0 0 0 
0 0 0 0 0 0 0 0 0 
0 0 0 0 0 0 0 0 0 
0 0 0 0 0 0 0 0 0 
0 0 0 0 0 0 0 0 0 
0 0 0 0 0 0 0 0 0 
0 0 0 0 0 0 0 0 0 
0 0 0 0 0 0 0 0 0 
0 0 0 0 0 0 0 0 0 
0 0 0 0 0 0 0 0 0 
0 0 0 0 0 0 0 0 0 
0 0 0 0 0 0 0 0 0 
0 0 0 0 0 0 0 0 0 
0 0 0 0 0 0 0 0 0 
0 0 0 0 0 0 0 0 0 
0 0 0 0 0 0 0 0 0 
0 0 0 0 0 0 0 0 0 
0 0 0 0 0 0 0 0 0 
0 0 0 0 0 0 0 0 0 
0 0 0 0 0 0 0 0 0 
0 0 0 0 0 0 0 0 0 
0 0 0 0 0 0 0 0 0 
0 0 0 0 0 0 0 0 0 
0 0 0 0 0 0 0 0 0 
0 0 0 0 0 0 0 0 0 
0 0 0 0 0 0 0 0 0 
0 0 0 0 0 0 0 0 0 
0 0 0 0 0 0 0 0 0 
0 0 0 0 0 0 0 0 0 
0 0 0 0 0 0 0 0 0 
0 0 0 0 0 0 0 0 0 
0 0 0 0 0 0 0 0 0 
0 0 0 0 0 0 0 0 0 
0 0 0 0 0 0 0 0 0 
0 0 0 0 0 0 0 0 0 
0 0 0 0 0 0 0 0 0 
0 0 0 0 0 0 0 0 0 
0 0 0 0 0 0 0 0 0 
0 0 0 0 0 0 0 0 0 
0 0 0 0 0 0 0 0 0 
0 0 0 0 0 0 0 0 0 
0 0 0 0 0 0 0 0 0 
0 0 0 0 0 0 0 0 0 
0 0 0 0 0 0 0 0 0 
0 0 0 0 0 0 0 0 0 
0 0 0 0 0 0 0 0 0 
0 0 0 0 0 0 0 0 0 
0 0 0 0 0 0 0 0 0 
0 0 0 0 0 0 0 0 0 
0 0 0 0 0 0 0 0 0 
0 0 0 0 0 0 0 0 0 
0 0 0 0 0 0 0 0 0 
0 0 0 0 0 0 0 0 0 
0 0 0 0 0 0 0 0 0 
0 0 0 0 0 0 0 0 0 
0 0 0 0 0 0 0 0 0 
0 0 0 0 0 0 0 0 0 
0 0 0 0 0 0 0 0 0 
0 0 0 0 0 0 0 0 0 
0 0 0 0 0 0 0 0 0 
0 0 0 0 0 0 0 0 0 
0 0 0 0 0 0 0 0 0 
0 0 0 0 0 0 0 0 0 
0 0 0 0 0 0 0 0 0 
0 0 0 0 0 0 0 0 0 
0 0 0 0 0 0 0 0 0 
0 0 0 0 0 0 0 0 0 
0 0 0 0 0 0 0 0 0 
0 0 0 0 0 0 0 0 0 
0 0 0 0 0 0 0 0 0 
0 0 0 0 0 0 0 0 0 
0 0 0 0 0 0 0 0 0 
0 0 0 0 0 0 0 0 0 
0 0 0 0 0 0 0 0 0 
0 0 0 0 0 0 0 0 0 
0 0 0 0 0 0 0 0 0 
0 0 0 0 0 0 0 0 0 
0 0 0 0 0 0 0 0 0 
0 0 0 0 0 0 0 0 0 
0 0 0 0 0 0 0 0 0 
0 0 0 0 0 0 0 0 0 
0 0 0 0 0 0 0 0 0 
0 0 0 0 0 0 0 0 0 
0 0 0 0 0 0 0 0 0 
0 0 0 0 0 0 0 0 0 
0 0 0 0 0 0 0 0 0 
0 0 0 0 0 0 0 0 0 
0 0 0 0 0 0 0 0 0 
0 0 0 0 0 0 0 0 0 
0 0 0 0 0 0 0 0 0 
0 0 0 0 0 0 0 0 0 
0 0 0 0 0 0 0 0 0 
0 0 0 0 0 0 0 0 0 
0 0 0 0 0 0 0 0 0 
0 0 0 0 0 0 0 0 0 
0 0 0 0 0 0 0 0 0 
0 0 0 0 0 0 0 0 0 
0 0 0 0 0 0 0 0 0 
0 0 0 0 0 0 0 0 0 
0 0 0 0 0 0 0 0 0 
0 0 0 0 0 0 0 0 0 
0 0 0 0 0 0 0 0 0 
0 0 0 0 0 0 0 0 0 
0 0 0 0 0 0 0 0 0 
0 0 0 0 0 0 0 0 0 
0 0 0 0 0 0 0 0 0 
0 0 0 0 0 0 0 0 0 

v 3 648 double
0 0 0.24517201482 0 0 0.24148865276 0 0 0.21264570144 
0 0 0.24528205362 0 0 0.23931928156 0 0 0.27017340314 
0 0 0.24404758543 0 0 0.23869644696 0 0 0.24397820721 
0 0 0.20694060812 0 0 0.19729698685 0 0 0.23563271096 
0 0 -0.64287418749 0 0 0.20482845373 0 0 0.19743595375 
0 0 0.20998563033 0 0 0.23530031937 0 0 0.19201174398 
0 0 0.21314145664 0 0 -0.64287418749 0 0 0.23925148654 
0 0 -0.64287418749 0 0 -0.64287418749 0 0 -0.64287418749 
0 0 0.23611349882 0 0 -0.64287418749 0 0 0.23428990857 
0 0 0.19985355806 0 0 0.27196659217 0 0 0.22970798966 
0 0 0.26432617388 0 0 0.19016855323 0 0 0.24295425621 
0 0 0.23410445307 0 0 -0.64287418749 0 0 0.20403911312 
0 0 0.23612851031 0 0 0.24257515957 0 0 0.20211277147 
0 0 0.23768362228 0 0 0.24100116919 0 0 0.23306172276 
0 0 0.21281804632 0 0 0.2731591462 0 0 -0.64287418749 
0 0 0.21860363391 0 0 0.23148054167 0 0 0.20846887953 
0 0 0.2364154619 0 0 0.20708306688 0 0 -0.64287418749 
0 0 0.24040297599 0 0 0.23882614581 0 0 0.21822047843 
0 0 0.23262529296 0 0 0.20529598209 0 0 0.20919507506 
0 0 -0.64287418749 0 0 0.21992172217 0 0 0.22551515029 
0 0 0.21910783405 0 0 0.18519258255 0 0 0.22519984948 
0 0 0.2310099779 0 0 0.23456775749 0 0 0.22102703858 
0 0 0.17983814713 0 0 0.2177354792 0 0 0.21812297158 
0 0 -0.64287418749 0 0 -0.64287418749 0 0 0.22314837989 
0 0 0.2233375013 0 0 -0.64287418749 0 0 0.1820814732 
0 0 0.17482680197 0 0 0.21801303486 0 0 0.18797446945 
0 0 0.2237425969 0 0 0.21453368975 0 0 0.18946370917 
0 0 0.21508308787 0 0 -0.64287418749 0 0 -0.64287418749 
0 0 0.22259878792 0 0 0.223145902 0 0 0.22229664733 
0 0 0.23334922836 0 0 0.1918547918 0 0 -0.64287418749 
0 0 0.17571815149 0 0 0.17847307024 0 0 -0.64287418749 
0 0 -0.64287418749 0 0 0.22651637681 0 0 0.17800264141 
0 0 0.23272986661 0 0 -0.64287418749 0 0 0.19922874761 
0 0 0.22169614277 0 0 0.2224044822 0 0 0.17560900741 
0 0 0.22689248639 0 0 0.21970118137 0 0 0.19977361484 
0 0 0.18601764039 0 0 -0.64287418749 0 0 0.21277613334 
0 0 0.16045777306 0 0 0.21703290395 0 0 0.20471003861 
0 0 -0.64287418749 0 0 0.20786890542 0 0 -0.64287418749 
0 0 -0.64287418749 0 0 0.21364724689 0 0 -0.64287418749 
0 0 0.20762097187 0 0 0.16191627286 0 0 0.20608264348 
0 0 -0.64287418749 0 0 0.17243909224 0 0 0.21069621891 
0 0 -0.64287418749 0 0 0.2102496632 0 0 0.20378335461 
0 0 0.21028601458 0 0 0.32312995422 0 0 0.21031620819 
0 0 0.16521073108 0 0 0.20214878782 0 0 0.16417068374 
0 0 0.13271887512 0 0 0.20221150989 0 0 0.20563496777 
0 0 0.2064839731 0 0 -0.5128741875 0 0 0.20795523114 
0 0 0.16467494523 0 0 0.16839539158 0 0 -0.62987418749 
0 0 -0.64287418749 0 0 0.22879063999 0 0 0.2105160744 
0 0 0.17151710405 0 0 0.20839684385 0 0 -0.64287418749 
0 0 0.16805986971 0 0 0.13279593216 0 0 0.20465196755 
0 0 0.21129380167 0 0 -0.64287418749 0 0 0.18065274817 
0 0 -0.5583741875 0 0 -0.5876241875 0 0 0.16641602165 
0 0 0.15101759474 0 0 0.16340708622 0 0 0.21666924107 
0 0 0.18071830399 0 0 0.214055019 0 0 -0.64287418749 
0 0 0.18084698385 0 0 0.21752277206 0 0 0.17179502975 
0 0 0.21144763149 0 0 0.19589833282 0 0 0.15208689411 
0 0 -0.64287418749 0 0 0.20133269518 0 0 0.15333071788 
0 0 -0.64287418749 0 0 -0.64287418749 0 0 0.15325035534 
0 0 0.20846760613 0 0 0.20820726513 0 0 0.15884679896 
0 0 0.20056208147 0 0 0.20636429142 0 0 0.19335541349 
0 0 0.19558324937 0 0 0.14358826982 0 0 -0.5811241875 
0 0 0.18936351024 0 0 0.16120282251 0 0 0.21072049401 
0 0 0.19528206818 0 0 0.19203005131 0 0 0.15171604274 
0 0 0.20173609087 0 0 -0.5583741875 0 0 0.20051429975 
0 0 -0.64287418749 0 0 -0.62337418749 0 0 0.13903748785 
0 0 0.14484703168 0 0 0.20457291696 0 0 0.20014161168 
0 0 0.19283089255 0 0 -0.64287418749 0 0 0.16357677989 
0 0 0.14129313592 0 0 -0.64287418749 0 0 0.19946785458 
0 0 0.20264628494 0 0 0.22216361574 0 0 0.20013111842 
0 0 -0.64287418749 0 0 0.15869942376 0 0 0.13808188086 
0 0 0.14741965513 0 0 0.20459626591 0 0 0.15930463756 
0 0 -0.64287418749 0 0 0.19999576182 0 0 -0.5226241875 
0 0 0.13873595801 0 0 0.19583565288 0 0 0.16364400443 
0 0 -0.64287418749 0 0 0.17931434304 0 0 0.12701790108 
0 0 0.13292185006 0 0 0.097823391705 0 0 0.13454933936 
0 0 0.12587719793 0 0 -0.64287418749 0 0 -0.64287418749 
0 0 0.18382273744 0 0 0.15999637421 0 0 -0.64287418749 
0 0 0.18657096037 0 0 0.137578135 0 0 0.13708381714 
0 0 0.19687910065 0 0 0.15531227387 0 0 0.18279300132 
0 0 0.14275962461 0 0 -0.64287418749 0 0 0.11660232251 
0 0 -0.64287418749 0 0 0.13644335589 0 0 -0.64287418749 
0 0 0.1782791819 0 0 0.11847997405 0 0 0.18143592589 
0 0 0.1372217155 0 0 0.17801487987 0 0 0.18024916526 
0 0 0.18370265913 0 0 0.18538596076 0 0 0.11806171245 
0 0 -0.64287418749 0 0 0.12800354168 0 0 0.1857153253 
0 0 0.18006992758 0 0 0.13714927481 0 0 -0.64287418749 
0 0 -0.64287418749 0 0 -0.64287418749 0 0 -0.64287418749 
0 0 0.17278643671 0 0 -0.64287418749 0 0 0.17684876619 
0 0 0.17675400908 0 0 0.093586542713 0 0 0.18667848505 
0 0 -0.64287418749 0 0 0.18494925336 0 0 0.16103584593 
0 0 0.13784201317 0 0 0.12925484124 0 0 0.17531015857 
0 0 0.18179326791 0 0 0.16663215508 0 0 0.15329467778 
0 0 0.1044722917 0 0 0.16958597516 0 0 0.16503764223 
0 0 0.16648175081 0 0 0.18460166326 0 0 0.16992181923 
0 0 0.10573349254 0 0 0.098258225601 0 0 0.12411903286 
0 0 0.091509101829 0 0 0.10327267387 0 0 -0.62987418749 
0 0 0.17473357148 0 0 -0.64287418749 0 0 0.17001100823 
0 0 0.15333027993 0 0 0.10600581895 0 0 0.17540593076 
0 0 0.18866348372 0 0 0.089360070519 0 0 0.081652698849 
0 0 0.074066072907 0 0 0.1067518628 0 0 0.15899946234 
0 0 0.10049431831 0 0 0.083817624109 0 0 -0.64287418749 
0 0 0.090276537094 0 0 0.15859948595 0 0 0.12757497832 
0 0 0.1673244641 0 0 0.088249713581 0 0 0.090122676344 
0 0 -0.64287418749 0 0 0.16629936554 0 0 -0.64287418749 
0 0 0.08769557675 0 0 0.075670990619 0 0 0.16682810664 
0 0 0.070815868858 0 0 0.15112021697 0 0 0.072425072281 
0 0 0.10061434119 0 0 0.16222189267 0 0 0.097490037878 
0 0 0.10079637369 0 0 0.11304378669 0 0 0.093022261747 
0 0 -0.64287418749 0 0 0.11655871886 0 0 0.17349081688 
0 0 0.16905203214 0 0 0.081432173654 0 0 0.076376770652 
0 0 0.17118483075 0 0 -0.64287418749 0 0 0.11598126951 
0 0 0.10514874834 0 0 0.17099030288 0 0 0.16803985738 
0 0 0.06838476435 0 0 0.072385021413 0 0 0.15967308518 
0 0 -0.64287418749 0 0 0.1051037669 0 0 -0.5811241875 
0 0 -0.64287418749 0 0 0.10005223968 0 0 -0.64287418749 
0 0 0.092109124251 0 0 -0.64287418749 0 0 0.17388254587 
0 0 -0.4933741875 0 0 0.16121647004 0 0 0.11891550303 
0 0 0.10616748066 0 0 0.044871280117 0 0 0.14755336513 
0 0 -0.64287418749 0 0 0.11155888742 0 0 0.15087902456 
0 0 0.15183039687 0 0 0.066837090103 0 0 0.068764103353 
0 0 0.038990929619 0 0 0.1468374339 0 0 0.14496602016 
0 0 0.065181688561 0 0 0.050376535737 0 0 -0.64287418749 
0 0 0.087252993751 0 0 0.14846553399 0 0 0.056984110731 
0 0 0.088428531192 0 0 -0.5421241875 0 0 -0.64287418749 
0 0 0.13465622914 0 0 0.081673948709 0 0 0.16507723559 
0 0 0.14127078997 0 0 0.14085299698 0 0 0.13848049807 
0 0 0.061341708202 0 0 -0.64287418749 0 0 0.1332219905 
0 0 0.061062029224 0 0 0.14182497473 0 0 0.050802254613 
0 0 -0.5551241875 0 0 0.036660912348 0 0 0.055829827309 
0 0 0.14042609918 0 0 0.03246494193 0 0 0.040926372491 
0 0 0.1498992242 0 0 -0.5193741875 0 0 0.058850557368 
0 0 0.15393985711 0 0 0.038463264077 0 0 0.13335246489 
0 0 0.053098945253 0 0 0.14972893011 0 0 0.1504747643 
0 0 0.058570908054 0 0 -0.64287418749 0 0 0.15137589378 
0 0 0.15824012922 0 0 0.046563830138 0 0 0.08387722004 
0 0 0.055605194288 0 0 0.050337132815 0 0 0.20379926443 
0 0 0.06083760836 0 0 0.068986957549 0 0 0.1624869558 
0 0 -0.64287418749 0 0 0.13277479497 0 0 0.16328419577 
0 0 0.14095560353 0 0 0.048625329143 0 0 0.15562410205 
0 0 0.055786251559 0 0 0.1319679656 0 0 0.044689380452 
0 0 0.16252332218 0 0 0.14695218855 0 0 0.13298787469 
0 0 0.13030324157 0 0 0.14942645261 0 0 0.076634009742 
0 0 0.07914181787 0 0 0.14074667665 0 0 0.13363099012 
0 0 0.14962425693 0 0 -0.64287418749 0 0 0.1116562434 
0 0 0.11667190659 0 0 -0.64287418749 0 0 0.15280085003 
0 0 0.14106916274 0 0 -0.64287418749 0 0 0.1076211621 
0 0 0.16073237614 0 0 0.1103615145 0 0 0.12492799159 
0 0 0.11954479235 0 0 -0.64287418749 0 0 0.16564753975 
0 0 0.11198084243 0 0 -0.64287418749 0 0 -0.64287418749 
0 0 -0.64287418749 0 0 -0.64287418749 0 0 -0.64287418749 
0 0 0.10544109935 0 0 0.1094792598 0 0 0.18173258077 
0 0 0.10087301766 0 0 0.1226177025 0 0 0.12480494165 
0 0 0.11567056504 0 0 -0.64287418749 0 0 0.10384585659 
0 0 0.10273253033 0 0 0.11937265944 0 0 0.053678323639 
0 0 0.13479306089 0 0 0.13119852913 0 0 0.063525361377 
0 0 -0.64287418749 0 0 0.095981370692 0 0 0.07148960083 
0 0 -0.64287418749 0 0 0.072157498223 0 0 0.10262102514 
0 0 0.081204879721 0 0 -0.64287418749 0 0 0.08275193824 
0 0 -0.5128741875 0 0 0.073578643225 0 0 0.14604021339 
0 0 0.076516393465 0 0 -0.64287418749 0 0 0.098741424949 
0 0 0.095603355996 0 0 0.079843376759 0 0 0.085957748483 
0 0 0.097411617136 0 0 0.08687649073 0 0 0.13512065003 
0 0 0.071493854464 0 0 0.069828200432 0 0 0.082212521382 
0 0 0.086899942016 0 0 0.096781209015 0 0 0.08641821721 
0 0 -0.64287418749 0 0 0.20306946505 0 0 0.080372523635 
0 0 0.089737892851 0 0 0.077343269148 0 0 0.097639568596 
0 0 -0.64287418749 0 0 0.072949078579 0 0 0.097798118708 
0 0 0.10034854708 0 0 0.078798806034 0 0 0.092578642577 
0 0 0.11174910604 0 0 0.093438647095 0 0 0.07489453854 
0 0 0.10243837824 0 0 0.073256885097 0 0 -0.64287418749 
0 0 -0.64287418749 0 0 -0.64287418749 0 0 -0.5648741875 
0 0 -0.64287418749 0 0 0.14939763689 0 0 0.085555855619 
0 0 0.10270575686 0 0 -0.64287418749 0 0 0.1194313807 
0 0 0.10543351316 0 0 0.13195223163 0 0 -0.64287418749 
0 0 -0.64287418749 0 0 -0.4998741875 0 0 -0.4803741875 
0 0 -0.5388741875 0 0 -0.5518741875 0 0 -0.4901241875 
0 0 -0.4543741875 0 0 -0.5518741875 0 0 -0.5031241875 
0 0 -0.5063741875 0 0 -0.5648741875 0 0 -0.4543741875 
0 0 -0.4576241875 0 0 -0.4738741875 0 0 -0.5258741875 
0 0 -0.5746241875 0 0 -0.4641241875 0 0 -0.4381241875 
0 0 -0.4673741875 0 0 -0.4998741875 0 0 -0.5648741875 
0 0 -0.4803741875 0 0 -0.4836241875 0 0 -0.5453741875 
0 0 -0.5421241875 0 0 -0.5063741875 0 0 -0.5161241875 
0 0 -0.5291241875 0 0 -0.5096241875 0 0 -0.5746241875 
0 0 -0.4218741875 0 0 -0.4673741875 0 0 -0.4868741875 
0 0 -0.4738741875 0 0 -0.4511241875 0 0 -0.5811241875 
0 0 -0.4738741875 0 0 -0.4348741875 0 0 -0.4218741875 
0 0 -0.4836241875 0 0 -0.5746241875 0 0 -0.4933741875 
0 0 -0.4023741875 0 0 -0.5161241875 0 0 -0.5323741875 
0 0 -0.5031241875 0 0 -0.4186241875 0 0 -0.4446241875 
0 0 -0.4706241875 0 0 -0.4901241875 0 0 -0.5258741875 
0 0 -0.5031241875 0 0 -0.3991241875 0 0 -0.4933741875 
0 0 -0.4218741875 0 0 -0.4121241875 0 0 -0.4348741875 
0 0 -0.4901241875 0 0 -0.4478741875 0 0 -0.4641241875 
0 0 -0.4186241875 0 0 -0.4121241875 0 0 -0.4478741875 
0 0 -0.4413741875 0 0 -0.4186241875 0 0 -0.5226241875 
0 0 -0.4608741875 0 0 -0.4966241875 0 0 -0.4608741875 
0 0 -0.4218741875 0 0 -0.4446241875 0 0 -0.4446241875 
0 0 -0.4153741875 0 0 -0.4056241875 0 0 -0.5323741875 
0 0 -0.4576241875 0 0 -0.4088741875 0 0 -0.4998741875 
0 0 -0.5226241875 0 0 -0.5161241875 0 0 -0.4641241875 
0 0 -0.4738741875 0 0 -0.4478741875 0 0 -0.4641241875 
0 0 -0.4316241875 0 0 -0.4966241875 0 0 -0.4966241875 
0 0 -0.4056241875 0 0 -0.4348741875 0 0 -0.4543741875 
0 0 -0.4023741875 0 0 -0.4121241875 0 0 -0.4153741875 
0 0 -0.5128741875 0 0 -0.4121241875 0 0 -0.4706241875 
0 0 -0.4056241875 0 0 -0.4706241875 0 0 -0.4283741875 
0 0 -0.4121241875 0 0 -0.4251241875 0 0 -0.4316241875 
0 0 -0.4771241875 0 0 -0.4381241875 0 0 -0.4121241875 
0 0 -0.3991241875 0 0 -0.3991241875 0 0 -0.4283741875 
0 0 -0.4608741875 0 0 -0.4576241875 0 0 -0.3991241875 
0 0 -0.4348741875 0 0 -0.4088741875 0 0 -0.4608741875 
0 0 -0.4348741875 0 0 -0.4153741875 0 0 -0.4121241875 
0 0 -0.3991241875 0 0 -0.3991241875 0 0 -0.4088741875 
0 0 -0.4056241875 0 0 -0.4121241875 0 0 -0.4153741875 
0 0 -0.4023741875 0 0 -0.4023741875 0 0 -0.3991241875 

f 3 648 double
0 0 -1.7425367252e-10 0 0 -1.7425367252e-10 0 0 -1.7425367252e-10 
0 0 -1.7425367252e-10 0 0 -1.7425367252e-10 0 0 -1.7425367252e-10 
0 0 -1.7425367252e-10 0 0 -1.7425367252e-10 0 0 -1.7425367252e-10 
0 0 -1.7425367252e-10 0 0 -1.7425367252e-10 0 0 -1.7425367252e-10 
0 0 -1.7425367252e-10 0 0 -1.7425367252e-10 0 0 -1.7425367252e-10 
0 0 -1.7425367252e-10 0 0 -1.7425367252e-10 0 0 -1.7425367252e-10 
0 0 -1.7425367252e-10 0 0 -1.7425367252e-10 0 0 -1.7425367252e-10 
0 0 -1.7425367252e-10 0 0 -1.7425367252e-10 0 0 -1.7425367252e-10 
0 0 -1.7425367252e-10 0 0 -1.7425367252e-10 0 0 -1.7425367252e-10 
0 0 -1.7425367252e-10 0 0 -8.9019973083e-09 0 0 -1.7425367252e-10 
0 0 -1.7425367252e-10 0 0 -1.7425367252e-10 0 0 -1.7425367252e-10 
0 0 -1.7425367252e-10 0 0 -1.7425367252e-10 0 0 -1.7425367252e-10 
0 0 -1.7425367252e-10 0 0 -1.7425367252e-10 0 0 -1.7425367252e-10 
0 0 -1.7425367252e-10 0 0 -1.7425367252e-10 0 0 -1.7425367252e-10 
0 0 -1.7425367252e-10 0 0 -8.9019973083e-09 0 0 -1.7425367252e-10 
0 0 -1.7425367252e-10 0 0 -1.7425367252e-10 0 0 -1.7425367252e-10 
0 0 -1.7425367252e-10 0 0 -1.7425367252e-10 0 0 -1.7425367252e-10 
0 0 -1.7425367252e-10 0 0 -1.7425367252e-10 0 0 -1.7425367252e-10 
0 0 -1.7425367252e-10 0 0 -1.7425367252e-10 0 0 -1.7425367252e-10 
0 0 -1.7425367252e-10 0 0 -1.7425367252e-10 0 0 -1.7425367252e-10 
0 0 -1.7425367252e-10 0 0 -1.7425367252e-10 0 0 -1.7425367252e-10 
0 0 -1.7425367252e-10 0 0 -1.7425367252e-10 0 0 -1.7425367252e-10 
0 0 -1.7425367252e-10 0 0 -1.7425367252e-10 0 0 -1.7425367252e-10 
0 0 -1.7425367252e-10 0 0 -1.7425367252e-10 0 0 -1.7425367252e-10 
0 0 -1.7425367252e-10 0 0 -1.7425367252e-10 0 0 -1.7425367252e-10 
0 0 -1.7425367252e-10 0 0 -1.7425367252e-10 0 0 -1.7425367252e-10 
0 0 -1.7425367252e-10 0 0 -1.7425367252e-10 0 0 -1.7425367252e-10 
0 0 -1.7425367252e-10 0 0 -1.7425367252e-10 0 0 -1.7425367252e-10 
0 0 -1.7425367252e-10 0 0 -1.7425367252e-10 0 0 -1.7425367252e-10 
0 0 -1.7425367252e-10 0 0 -1.7425367252e-10 0 0 -1.7425367252e-10 
0 0 -1.7425367252e-10 0 0 -1.7425367252e-10 0 0 -1.7425367252e-10 
0 0 -1.7425367252e-10 0 0 -1.7425367252e-10 0 0 -1.7425367252e-10 
0 0 -1.7425367252e-10 0 0 -1.7425367252e-10 0 0 -1.7425367252e-10 
0 0 -1.7425367252e-10 0 0 -1.7425367252e-10 0 0 -1.7425367252e-10 
0 0 -1.7425367252e-10 0 0 -1.7425367252e-10 0 0 -1.7425367252e-10 
0 0 -1.7425367252e-10 0 0 -1.7425367252e-10 0 0 -1.7425367252e-10 
0 0 -1.7425367252e-10 0 0 -1.7425367252e-10 0 0 -1.7425367252e-10 
0 0 -1.7425367252e-10 0 0 -1.7425367252e-10 0 0 -1.7425367252e-10 
0 0 -1.7425367252e-10 0 0 -1.7425367252e-10 0 0 -1.7425367252e-10 
0 0 -1.7425367252e-10 0 0 -1.7425367252e-10 0 0 -1.7425367252e-10 
0 0 -1.7425367252e-10 0 0 -1.7425367252e-10 0 0 -1.7425367252e-10 
0 0 -1.7425367252e-10 0 0 -1.7425367252e-10 0 0 -1.7425367252e-10 
0 0 -1.7425367252e-10 0 0 -5.3297119368e-07 0 0 -1.7425367252e-10 
0 0 -1.7425367252e-10 0 0 -1.7425367252e-10 0 0 -1.7425367252e-10 
0 0 -1.7425367252e-10 0 0 -1.7425367252e-10 0 0 -1.7425367252e-10 
0 0 -1.7425367252e-10 0 0 -1.7425367252e-10 0 0 -1.7425367252e-10 
0 0 -1.7425367252e-10 0 0 -1.7425367252e-10 0 0 -1.7425367252e-10 
0 0 -1.7425367252e-10 0 0 -1.7425367252e-10 0 0 -1.7425367252e-10 
0 0 -1.7425367252e-10 0 0 -1.7425367252e-10 0 0 -1.7425367252e-10 
0 0 -1.7425367252e-10 0 0 -1.7425367252e-10 0 0 -1.7425367252e-10 
0 0 -1.7425367252e-10 0 0 -1.7425367252e-10 0 0 -1.7425367252e-10 
0 0 -1.7425367252e-10 0 0 -1.7425367252e-10 0 0 -1.7425367252e-10 
0 0 -1.7425367252e-10 0 0 -1.7425367252e-10 0 0 -1.7425367252e-10 
0 0 -1.7425367252e-10 0 0 -1.7425367252e-10 0 0 -1.7425367252e-10 
0 0 -1.7425367252e-10 0 0 -1.7425367252e-10 0 0 -1.7425367252e-10 
0 0 -1.7425367252e-10 0 0 -1.7425367252e-10 0 0 -1.7425367252e-10 
0 0 -1.7425367252e-10 0 0 -1.7425367252e-10 0 0 -1.7425367252e-10 
0 0 -1.7425367252e-10 0 0 -1.7425367252e-10 0 0 -1.7425367252e-10 
0 0 -1.7425367252e-10 0 0 -1.7425367252e-10 0 0 -1.7425367252e-10 
0 0 -1.7425367252e-10 0 0 -1.7425367252e-10 0 0 -1.7425367252e-10 
0 0 -1.7425367252e-10 0 0 -1.7425367252e-10 0 0 -1.7425367252e-10 
0 0 -1.7425367252e-10 0 0 -1.7425367252e-10 0 0 -1.7425367252e-10 
0 0 -1.7425367252e-10 0 0 -1.7425367252e-10 0 0 -1.7425367252e-10 
0 0 -1.7425367252e-10 0 0 -1.7425367252e-10 0 0 -1.7425367252e-10 
0 0 -1.7425367252e-10 0 0 -1.7425367252e-10 0 0 -1.7425367252e-10 
0 0 -1.7425367252e-10 0 0 -1.7425367252e-10 0 0 -1.7425367252e-10 
0 0 -1.7425367252e-10 0 0 -1.7425367252e-10 0 0 -1.7425367252e-10 
0 0 -1.7425367252e-10 0 0 -1.7425367252e-10 0 0 -1.7425367252e-10 
0 0 -1.7425367252e-10 0 0 -1.7425367252e-10 0 0 -1.7425367252e-10 
0 0 -1.7425367252e-10 0 0 -1.7425367252e-10 0 0 -1.7425367252e-10 
0 0 -1.7425367252e-10 0 0 -1.7425367252e-10 0 0 -1.7425367252e-10 
0 0 -1.7425367252e-10 0 0 -1.7425367252e-10 0 0 -1.7425367252e-10 
0 0 -1.7425367252e-10 0 0 -1.7425367252e-10 0 0 -1.7425367252e-10 
0 0 -1.7425367252e-10 0 0 -1.7425367252e-10 0 0 -1.7425367252e-10 
0 0 -1.7425367252e-10 0 0 -1.7425367252e-10 0 0 -1.7425367252e-10 
0 0 -1.7425367252e-10 0 0 -1.7425367252e-10 0 0 -1.7425367252e-10 
0 0 -1.7425367252e-10 0 0 -1.7425367252e-10 0 0 -1.7425367252e-10 
0 0 -1.7425367252e-10 0 0 -1.7425367252e-10 0 0 -1.7425367252e-10 
0 0 -1.7425367252e-10 0 0 -1.7425367252e-10 0 0 -1.7425367252e-10 
0 0 -1.7425367252e-10 0 0 -1.7425367252e-10 0 0 -1.7425367252e-10 
0 0 -1.7425367252e-10 0 0 -1.7425367252e-10 0 0 -1.7425367252e-10 
0 0 -1.7425367252e-10 0 0 -1.7425367252e-10 0 0 -1.7425367252e-10 
0 0 -1.7425367252e-10 0 0 -1.7425367252e-10 0 0 -1.7425367252e-10 
0 0 -1.7425367252e-10 0 0 -1.7425367252e-10 0 0 -1.7425367252e-10 
0 0 -1.7425367252e-10 0 0 -1.7425367252e-10 0 0 -1.7425367252e-10 
0 0 -1.7425367252e-10 0 0 -1.7425367252e-10 0 0 -1.7425367252e-10 
0 0 -1.7425367252e-10 0 0 -1.7425367252e-10 0 0 -1.7425367252e-10 
0 0 -1.7425367252e-10 0 0 -1.7425367252e-10 0 0 -1.7425367252e-10 
0 0 -1.7425367252e-10 0 0 -1.7425367252e-10 0 0 -1.7425367252e-10 
0 0 -1.7425367252e-10 0 0 -1.7425367252e-10 0 0 -1.7425367252e-10 
0 0 -1.7425367252e-10 0 0 -1.7425367252e-10 0 0 -1.7425367252e-10 
0 0 -1.7425367252e-10 0 0 -1.7425367252e-10 0 0 -1.7425367252e-10 
0 0 -1.7425367252e-10 0 0 -1.7425367252e-10 0 0 -1.7425367252e-10 
0 0 -1.7425367252e-10 0 0 -1.7425367252e-10 0 0 -1.7425367252e-10 
0 0 -1.7425367252e-10 0 0 -1.7425367252e-10 0 0 -1.7425367252e-10 
0 0 -1.7425367252e-10 0 0 -1.7425367252e-10 0 0 -1.7425367252e-10 
0 0 -1.7425367252e-10 0 0 -1.7425367252e-10 0 0 -1.7425367252e-10 
0 0 -1.7425367252e-10 0 0 -1.7425367252e-10 0 0 -1.7425367252e-10 
0 0 -1.7425367252e-10 0 0 -1.7425367252e-10 0 0 -1.7425367252e-10 
0 0 -1.7425367252e-10 0 0 -1.7425367252e-10 0 0 -1.7425367252e-10 
0 0 -1.7425367252e-10 0 0 -1.7425367252e-10 0 0 -1.7425367252e-10 
0 0 -1.7425367252e-10 0 0 -1.7425367252e-10 0 0 -1.7425367252e-10 
0 0 -1.7425367252e-10 0 0 -1.7425367252e-10 0 0 -1.7425367252e-10 
0 0 -1.7425367252e-10 0 0 -1.7425367252e-10 0 0 -1.7425367252e-10 
0 0 -1.7425367252e-10 0 0 -1.7425367252e-10 0 0 -1.7425367252e-10 
0 0 -1.7425367252e-10 0 0 -1.7425367252e-10 0 0 -1.7425367252e-10 
0 0 -1.7425367252e-10 0 0 -1.7425367252e-10 0 0 -1.7425367252e-10 
0 0 -1.7425367252e-10 0 0 -1.7425367252e-10 0 0 -1.7425367252e-10 
0 0 -1.7425367252e-10 0 0 -1.7425367252e-10 0 0 -1.7425367252e-10 
0 0 -1.7425367252e-10 0 0 -1.7425367252e-10 0 0 -1.7425367252e-10 
0 0 -1.7425367252e-10 0 0 -1.7425367252e-10 0 0 -1.7425367252e-10 
0 0 -1.7425367252e-10 0 0 -1.7425367252e-10 0 0 -1.7425367252e-10 
0 0 -1.7425367252e-10 0 0 -1.7425367252e-10 0 0 -1.7425367252e-10 
0 0 -1.7425367252e-10 0 0 -1.7425367252e-10 0 0 -1.7425367252e-10 
0 0 -1.7425367252e-10 0 0 -1.7425367252e-10 0 0 -1.7425367252e-10 
0 0 -1.7425367252e-10 0 0 -1.7425367252e-10 0 0 -1.7425367252e-10 
0 0 -1.7425367252e-10 0 0 -1.7425367252e-10 0 0 -1.7425367252e-10 
0 0 -1.7425367252e-10 0 0 -1.7425367252e-10 0 0 -1.7425367252e-10 
0 0 -1.7425367252e-10 0 0 -1.7425367252e-10 0 0 -1.7425367252e-10 
0 0 -1.7425367252e-10 0 0 -1.7425367252e-10 0 0 -1.7425367252e-10 
0 0 -1.7425367252e-10 0 0 -1.7425367252e-10 0 0 -1.7425367252e-10 
0 0 -1.7425367252e-10 0 0 -1.7425367252e-10 0 0 -1.7425367252e-10 
0 0 -1.7425367252e-10 0 0 -1.7425367252e-10 0 0 -1.7425367252e-10 
0 0 -1.7425367252e-10 0 0 -1.7425367252e-10 0 0 -1.7425367252e-10 
0 0 -1.7425367252e-10 0 0 -1.7425367252e-10 0 0 -1.7425367252e-10 
0 0 -1.7425367252e-10 0 0 -1.7425367252e-10 0 0 -1.7425367252e-10 
0 0 -1.7425367252e-10 0 0 -1.7425367252e-10 0 0 -1.7425367252e-10 
0 0 -1.7425367252e-10 0 0 -1.7425367252e-10 0 0 -1.7425367252e-10 
0 0 -1.7425367252e-10 0 0 -1.7425367252e-10 0 0 -1.7425367252e-10 
0 0 -1.7425367252e-10 0 0 -1.7425367252e-10 0 0 -1.7425367252e-10 
0 0 -1.7425367252e-10 0 0 -1.7425367252e-10 0 0 -1.7425367252e-10 
0 0 -1.7425367252e-10 0 0 -1.7425367252e-10 0 0 -1.7425367252e-10 
0 0 -1.7425367252e-10 0 0 -1.7425367252e-10 0 0 -1.7425367252e-10 
0 0 -1.7425367252e-10 0 0 -1.7425367252e-10 0 0 -1.7425367252e-10 
0 0 -1.7425367252e-10 0 0 -1.7425367252e-10 0 0 -1.7425367252e-10 
0 0 -1.7425367252e-10 0 0 -1.7425367252e-10 0 0 -8.9019973083e-09 
0 0 -1.7425367252e-10 0 0 -1.7425367252e-10 0 0 -1.7425367252e-10 
0 0 -1.7425367252e-10 0 0 -1.7425367252e-10 0 0 -1.7425367252e-10 
0 0 -1.7425367252e-10 0 0 -1.7425367252e-10 0 0 -1.7425367252e-10 
0 0 -1.7425367252e-10 0 0 -1.7425367252e-10 0 0 -1.7425367252e-10 
0 0 -1.7425367252e-10 0 0 -1.7425367252e-10 0 0 -1.7425367252e-10 
0 0 -1.7425367252e-10 0 0 -1.7425367252e-10 0 0 -1.7425367252e-10 
0 0 -1.7425367252e-10 0 0 -1.7425367252e-10 0 0 -1.7425367252e-10 
0 0 -1.7425367252e-10 0 0 -1.7425367252e-10 0 0 -1.7425367252e-10 
0 0 -1.7425367252e-10 0 0 -1.7425367252e-10 0 0 -1.7425367252e-10 
0 0 -1.7425367252e-10 0 0 -1.7425367252e-10 0 0 -1.7425367252e-10 
0 0 -8.9019973083e-09 0 0 -1.7425367252e-10 0 0 -1.7425367252e-10 
0 0 -1.7425367252e-10 0 0 -1.7425367252e-10 0 0 -8.9019973083e-09 
0 0 -1.7425367252e-10 0 0 -1.7425367252e-10 0 0 -1.7425367252e-10 
0 0 -1.7425367252e-10 0 0 -1.7425367252e-10 0 0 -1.7425367252e-10 
0 0 -1.7425367252e-10 0 0 -1.7425367252e-10 0 0 -8.9019973083e-09 
0 0 -1.7425367252e-10 0 0 -1.7425367252e-10 0 0 -1.7425367252e-10 
0 0 -1.7425367252e-10 0 0 -1.7425367252e-10 0 0 -1.7425367252e-10 
0 0 -1.7425367252e-10 0 0 -1.7425367252e-10 0 0 -1.7425367252e-10 
0 0 -1.7425367252e-10 0 0 -1.7425367252e-10 0 0 -1.7425367252e-10 
0 0 -1.7425367252e-10 0 0 -1.7425367252e-10 0 0 -1.7425367252e-10 
0 0 -1.7425367252e-10 0 0 -1.7425367252e-10 0 0 -1.7425367252e-10 
0 0 -1.7425367252e-10 0 0 -1.7425367252e-10 0 0 -1.7425367252e-10 
0 0 -1.7425367252e-10 0 0 -1.7425367252e-10 0 0 -8.9019973083e-09 
0 0 -1.7425367252e-10 0 0 -1.7425367252e-10 0 0 -1.7425367252e-10 
0 0 -1.7425367252e-10 0 0 -1.7425367252e-10 0 0 -1.7425367252e-10 
0 0 -1.7425367252e-10 0 0 -1.7425367252e-10 0 0 -8.9019973083e-09 
0 0 -1.7425367252e-10 0 0 -1.7425367252e-10 0 0 -1.7425367252e-10 
0 0 -1.7425367252e-10 0 0 -1.7425367252e-10 0 0 -1.7425367252e-10 
0 0 -1.7425367252e-10 0 0 -6.8918688838e-08 0 0 -1.7425367252e-10 
0 0 -1.7425367252e-10 0 0 -1.7425367252e-10 0 0 -1.7425367252e-10 
0 0 -1.7425367252e-10 0 0 -1.7425367252e-10 0 0 -1.7425367252e-10 
0 0 -1.7425367252e-10 0 0 -1.7425367252e-10 0 0 -1.7425367252e-10 
0 0 -1.7425367252e-10 0 0 -1.7425367252e-10 0 0 -1.7425367252e-10 
0 0 -1.7425367252e-10 0 0 -1.7425367252e-10 0 0 -1.7425367252e-10 
0 0 -1.7425367252e-10 0 0 -1.7425367252e-10 0 0 -8.9019973083e-09 
0 0 -1.7425367252e-10 0 0 -8.9019973083e-09 0 0 -8.9019973083e-09 
0 0 -8.9019973083e-09 0 0 -1.7425367252e-10 0 0 -8.9019973083e-09 
0 0 -8.9019973083e-09 0 0 -8.9019973083e-09 0 0 -1.7425367252e-10 
0 0 -1.7425367252e-10 0 0 -1.7425367252e-10 0 0 -1.7425367252e-10 
0 0 -1.7425367252e-10 0 0 -1.7425367252e-10 0 0 -1.7425367252e-10 
0 0 -1.7425367252e-10 0 0 -1.7425367252e-10 0 0 -1.7425367252e-10 
0 0 -1.7425367252e-10 0 0 -1.7425367252e-10 0 0 -1.7425367252e-10 
0 0 -1.7425367252e-10 0 0 -1.7425367252e-10 0 0 -1.7425367252e-10 
0 0 -1.7425367252e-10 0 0 -1.7425367252e-10 0 0 -1.7425367252e-10 
0 0 -1.7425367252e-10 0 0 -1.7425367252e-10 0 0 -1.7425367252e-10 
0 0 -1.7425367252e-10 0 0 -1.7425367252e-10 0 0 -1.7425367252e-10 
0 0 -1.7425367252e-10 0 0 -1.7425367252e-10 0 0 -1.7425367252e-10 
0 0 -1.7425367252e-10 0 0 -1.7425367252e-10 0 0 -1.7425367252e-10 
0 0 -1.7425367252e-10 0 0 -1.7425367252e-10 0 0 -1.7425367252e-10 
0 0 -1.7425367252e-10 0 0 -1.7425367252e-10 0 0 -1.7425367252e-10 
0 0 -1.7425367252e-10 0 0 -1.7425367252e-10 0 0 -1.7425367252e-10 
0 0 -1.7425367252e-10 0 0 -8.9019973083e-09 0 0 -1.7425367252e-10 
0 0 -1.7425367252e-10 0 0 -1.7425367252e-10 0 0 -1.7425367252e-10 
0 0 -1.7425367252e-10 0 0 -1.7425367252e-10 0 0 -1.7425367252e-10 
0 0 -1.7425367252e-10 0 0 -1.7425367252e-10 0 0 -1.7425367252e-10 
0 0 -1.7425367252e-10 0 0 -1.7425367252e-10 0 0 -1.7425367252e-10 
0 0 -1.7425367252e-10 0 0 -1.7425367252e-10 0 0 -1.7425367252e-10 
0 0 -1.7425367252e-10 0 0 -1.7425367252e-10 0 0 -1.7425367252e-10 
0 0 -1.7425367252e-10 0 0 -1.7425367252e-10 0 0 -1.7425367252e-10 
0 0 -1.7425367252e-10 0 0 -1.7425367252e-10 0 0 -1.7425367252e-10 
0 0 -1.7425367252e-10 0 0 -1.7425367252e-10 0 0 -1.7425367252e-10 
0 0 -1.7425367252e-10 0 0 -1.7425367252e-10 0 0 -1.7425367252e-10 
0 0 -1.7425367252e-10 0 0 -1.7425367252e-10 0 0 -1.7425367252e-10 
0 0 -1.7425367252e-10 0 0 -1.7425367252e-10 0 0 -1.7425367252e-10 
0 0 -1.7425367252e-10 0 0 -1.7425367252e-10 0 0 -1.7425367252e-10 
0 0 -1.7425367252e-10 0 0 -1.7425367252e-10 0 0 -1.7425367252e-10 
0 0 -1.7425367252e-10 0 0 -1.7425367252e-10 0 0 -1.7425367252e-10 
0 0 -1.7425367252e-10 0 0 -1.7425367252e-10 0 0 -1.7425367252e-10 
0 0 -1.7425367252e-10 0 0 -1.7425367252e-10 0 0 -1.7425367252e-10 
0 0 -1.7425367252e-10 0 0 -1.7425367252e-10 0 0 -1.7425367252e-10 
0 0 -8.9019973083e-09 0 0 -1.7425367252e-10 0 0 -1.7425367252e-10 
0 0 -1.7425367252e-10 0 0 -1.7425367252e-10 0 0 -1.7425367252e-10 
0 0 -1.7425367252e-10 0 0 -1.7425367252e-10 0 0 -1.7425367252e-10 
0 0 -1.7425367252e-10 0 0 -1.7425367252e-10 0 0 -1.7425367252e-10 
0 0 -1.7425367252e-10 0 0 -1.7425367252e-10 0 0 -1.7425367252e-10 
0 0 -1.7425367252e-10 0 0 -1.7425367252e-10 0 0 -1.7425367252e-10 
0 0 -1.7425367252e-10 0 0 -1.7425367252e-10 0 0 -1.7425367252e-10 
0 0 -1.7425367252e-10 0 0 -1.7425367252e-10 0 0 -1.7425367252e-10 
0 0 -1.7425367252e-10 0 0 -1.7425367252e-10 0 0 -1.7425367252e-10 
0 0 -1.7425367252e-10 0 0 -1.7425367252e-10 0 0 -1.7425367252e-10 

radius 1 648 double
2e-05 2e-05 2e-05 2e-05 2e-05 2e-05 2e-05 2e-05 2e-05 
2e-05 2e-05 2e-05 2e-05 2e-05 2e-05 2e-05 2e-05 2e-05 
2e-05 2e-05 2e-05 2e-05 2e-05 2e-05 2e-05 2e-05 2e-05 
2e-05 7.5e-05 2e-05 2e-05 2e-05 2e-05 2e-05 2e-05 2e-05 
2e-05 2e-05 2e-05 2e-05 2e-05 2e-05 2e-05 7.5e-05 2e-05 
2e-05 2e-05 2e-05 2e-05 2e-05 2e-05 2e-05 2e-05 2e-05 
2e-05 2e-05 2e-05 2e-05 2e-05 2e-05 2e-05 2e-05 2e-05 
2e-05 2e-05 2e-05 2e-05 2e-05 2e-05 2e-05 2e-05 2e-05 
2e-05 2e-05 2e-05 2e-05 2e-05 2e-05 2e-05 2e-05 2e-05 
2e-05 2e-05 2e-05 2e-05 2e-05 2e-05 2e-05 2e-05 2e-05 
2e-05 2e-05 2e-05 2e-05 2e-05 2e-05 2e-05 2e-05 2e-05 
2e-05 2e-05 2e-05 2e-05 2e-05 2e-05 2e-05 2e-05 2e-05 
2e-05 2e-05 2e-05 2e-05 2e-05 2e-05 2e-05 2e-05 2e-05 
2e-05 2e-05 2e-05 2e-05 2e-05 2e-05 2e-05 2e-05 2e-05 
2e-05 0.0003 2e-05 2e-05 2e-05 2e-05 2e-05 2e-05 2e-05 
2e-05 2e-05 2e-05 2e-05 2e-05 2e-05 2e-05 2e-05 2e-05 
2e-05 2e-05 2e-05 2e-05 2e-05 2e-05 2e-05 2e-05 2e-05 
2e-05 2e-05 2e-05 2e-05 2e-05 2e-05 2e-05 2e-05 2e-05 
2e-05 2e-05 2e-05 2e-05 2e-05 2e-05 2e-05 2e-05 2e-05 
2e-05 2e-05 2e-05 2e-05 2e-05 2e-05 2e-05 2e-05 2e-05 
2e-05 2e-05 2e-05 2e-05 2e-05 2e-05 2e-05 2e-05 2e-05 
2e-05 2e-05 2e-05 2e-05 2e-05 2e-05 2e-05 2e-05 2e-05 
2e-05 2e-05 2e-05 2e-05 2e-05 2e-05 2e-05 2e-05 2e-05 
2e-05 2e-05 2e-05 2e-05 2e-05 2e-05 2e-05 2e-05 2e-05 
2e-05 2e-05 2e-05 2e-05 2e-05 2e-05 2e-05 2e-05 2e-05 
2e-05 2e-05 2e-05 2e-05 2e-05 2e-05 2e-05 2e-05 2e-05 
2e-05 2e-05 2e-05 2e-05 2e-05 2e-05 2e-05 2e-05 2e-05 
2e-05 2e-05 2e-05 2e-05 2e-05 2e-05 2e-05 2e-05 2e-05 
2e-05 2e-05 2e-05 2e-05 2e-05 2e-05 2e-05 2e-05 2e-05 
2e-05 2e-05 2e-05 2e-05 2e-05 2e-05 2e-05 2e-05 2e-05 
2e-05 2e-05 2e-05 2e-05 2e-05 2e-05 2e-05 2e-05 2e-05 
2e-05 2e-05 2e-05 2e-05 2e-05 2e-05 2e-05 2e-05 2e-05 
2e-05 2e-05 2e-05 2e-05 2e-05 2e-05 2e-05 2e-05 2e-05 
2e-05 2e-05 2e-05 2e-05 2e-05 2e-05 2e-05 2e-05 2e-05 
2e-05 2e-05 2e-05 2e-05 2e-05 2e-05 2e-05 2e-05 2e-05 
2e-05 2e-05 2e-05 2e-05 2e-05 2e-05 2e-05 2e-05 2e-05 
2e-05 2e-05 2e-05 2e-05 2e-05 2e-05 2e-05 2e-05 2e-05 
2e-05 2e-05 2e-05 2e-05 2e-05 2e-05 2e-05 2e-05 2e-05 
2e-05 2e-05 2e-05 2e-05 2e-05 2e-05 2e-05 2e-05 2e-05 
2e-05 2e-05 2e-05 2e-05 2e-05 2e-05 2e-05 2e-05 2e-05 
2e-05 2e-05 2e-05 2e-05 2e-05 2e-05 2e-05 2e-05 2e-05 
2e-05 2e-05 2e-05 2e-05 2e-05 2e-05 2e-05 2e-05 2e-05 
2e-05 2e-05 2e-05 2e-05 2e-05 2e-05 2e-05 2e-05 2e-05 
2e-05 2e-05 2e-05 2e-05 2e-05 2e-05 2e-05 2e-05 2e-05 
2e-05 2e-05 2e-05 2e-05 2e-05 2e-05 2e-05 2e-05 2e-05 
2e-05 2e-05 7.5e-05 2e-05 2e-05 2e-05 2e-05 2e-05 2e-05 
2e-05 2e-05 2e-05 2e-05 2e-05 2e-05 2e-05 2e-05 2e-05 
2e-05 2e-05 2e-05 2e-05 2e-05 2e-05 2e-05 2e-05 2e-05 
2e-05 2e-05 2e-05 2e-05 2e-05 2e-05 7.5e-05 2e-05 2e-05 
2e-05 2e-05 7.5e-05 2e-05 2e-05 2e-05 2e-05 2e-05 2e-05 
2e-05 2e-05 7.5e-05 2e-05 2e-05 2e-05 2e-05 2e-05 2e-05 
2e-05 2e-05 2e-05 2e-05 2e-05 2e-05 2e-05 2e-05 2e-05 
2e-05 2e-05 2e-05 2e-05 2e-05 2e-05 2e-05 2e-05 7.5e-05 
2e-05 2e-05 2e-05 2e-05 2e-05 2e-05 2e-05 2e-05 7.5e-05 
2e-05 2e-05 2e-05 2e-05 2e-05 2e-05 2e-05 0.00015 2e-05 
2e-05 2e-05 2e-05 2e-05 2e-05 2e-05 2e-05 2e-05 2e-05 
2e-05 2e-05 2e-05 2e-05 2e-05 2e-05 2e-05 2e-05 7.5e-05 
2e-05 7.5e-05 7.5e-05 7.5e-05 2e-05 7.5e-05 7.5e-05 7.5e-05 2e-05 
2e-05 2e-05 2e-05 2e-05 2e-05 2e-05 2e-05 2e-05 2e-05 
2e-05 2e-05 2e-05 2e-05 2e-05 2e-05 2e-05 2e-05 2e-05 
2e-05 2e-05 2e-05 2e-05 2e-05 2e-05 2e-05 2e-05 2e-05 
2e-05 2e-05 2e-05 2e-05 2e-05 2e-05 2e-05 2e-05 2e-05 
2e-05 2e-05 2e-05 2e-05 7.5e-05 2e-05 2e-05 2e-05 2e-05 
2e-05 2e-05 2e-05 2e-05 2e-05 2e-05 2e-05 2e-05 2e-05 
2e-05 2e-05 2e-05 2e-05 2e-05 2e-05 2e-05 2e-05 2e-05 
2e-05 2e-05 2e-05 2e-05 2e-05 2e-05 2e-05 2e-05 2e-05 
2e-05 2e-05 2e-05 2e-05 2e-05 2e-05 2e-05 2e-05 2e-05 
2e-05 2e-05 2e-05 2e-05 2e-05 2e-05 2e-05 2e-05 2e-05 
2e-05 2e-05 2e-05 2e-05 2e-05 2e-05 7.5e-05 2e-05 2e-05 
2e-05 2e-05 2e-05 2e-05 2e-05 2e-05 2e-05 2e-05 2e-05 
2e-05 2e-05 2e-05 2e-05 2e-05 2e-05 2e-05 2e-05 2e-05 
2e-05 2e-05 2e-05 2e-05 2e-05 2e-05 2e-05 2e-05 2e-05 

omega 3 648 double
0 0 0 0 0 0 0 0 0 
0 0 0 0 0 0 0 0 0 
0 0 0 0 0 0 0 0 0 
0 0 0 0 0 0 0 0 0 
0 0 0 0 0 0 0 0 0 
0 0 0 0 0 0 0 0 0 
0 0 0 0 0 0 0 0 0 
0 0 0 0 0 0 0 0 0 
0 0 0 0 0 0 0 0 0 
0 0 0 0 0 0 0 0 0 
0 0 0 0 0 0 0 0 0 
0 0 0 0 0 0 0 0 0 
0 0 0 0 0 0 0 0 0 
0 0 0 0 0 0 0 0 0 
0 0 0 0 0 0 0 0 0 
0 0 0 0 0 0 0 0 0 
0 0 0 0 0 0 0 0 0 
0 0 0 0 0 0 0 0 0 
0 0 0 0 0 0 0 0 0 
0 0 0 0 0 0 0 0 0 
0 0 0 0 0 0 0 0 0 
0 0 0 0 0 0 0 0 0 
0 0 0 0 0 0 0 0 0 
0 0 0 0 0 0 0 0 0 
0 0 0 0 0 0 0 0 0 
0 0 0 0 0 0 0 0 0 
0 0 0 0 0 0 0 0 0 
0 0 0 0 0 0 0 0 0 
0 0 0 0 0 0 0 0 0 
0 0 0 0 0 0 0 0 0 
0 0 0 0 0 0 0 0 0 
0 0 0 0 0 0 0 0 0 
0 0 0 0 0 0 0 0 0 
0 0 0 0 0 0 0 0 0 
0 0 0 0 0 0 0 0 0 
0 0 0 0 0 0 0 0 0 
0 0 0 0 0 0 0 0 0 
0 0 0 0 0 0 0 0 0 
0 0 0 0 0 0 0 0 0 
0 0 0 0 0 0 0 0 0 
0 0 0 0 0 0 0 0 0 
0 0 0 0 0 0 0 0 0 
0 0 0 0 0 0 0 0 0 
0 0 0 0 0 0 0 0 0 
0 0 0 0 0 0 0 0 0 
0 0 0 0 0 0 0 0 0 
0 0 0 0 0 0 0 0 0 
0 0 0 0 0 0 0 0 0 
0 0 0 0 0 0 0 0 0 
0 0 0 0 0 0 0 0 0 
0 0 0 0 0 0 0 0 0 
0 0 0 0 0 0 0 0 0 
0 0 0 0 0 0 0 0 0 
0 0 0 0 0 0 0 0 0 
0 0 0 0 0 0 0 0 0 
0 0 0 0 0 0 0 0 0 
0 0 0 0 0 0 0 0 0 
0 0 0 0 0 0 0 0 0 
0 0 0 0 0 0 0 0 0 
0 0 0 0 0 0 0 0 0 
0 0 0 0 0 0 0 0 0 
0 0 0 0 0 0 0 0 0 
0 0 0 0 0 0 0 0 0 
0 0 0 0 0 0 0 0 0 
0 0 0 0 0 0 0 0 0 
0 0 0 0 0 0 0 0 0 
0 0 0 0 0 0 0 0 0 
0 0 0 0 0 0 0 0 0 
0 0 0 0 0 0 0 0 0 
0 0 0 0 0 0 0 0 0 
0 0 0 0 0 0 0 0 0 
0 0 0 0 0 0 0 0 0 
0 0 0 0 0 0 0 0 0 
0 0 0 0 0 0 0 0 0 
0 0 0 0 0 0 0 0 0 
0 0 0 0 0 0 0 0 0 
0 0 0 0 0 0 0 0 0 
0 0 0 0 0 0 0 0 0 
0 0 0 0 0 0 0 0 0 
0 0 0 0 0 0 0 0 0 
0 0 0 0 0 0 0 0 0 
0 0 0 0 0 0 0 0 0 
0 0 0 0 0 0 0 0 0 
0 0 0 0 0 0 0 0 0 
0 0 0 0 0 0 0 0 0 
0 0 0 0 0 0 0 0 0 
0 0 0 0 0 0 0 0 0 
0 0 0 0 0 0 0 0 0 
0 0 0 0 0 0 0 0 0 
0 0 0 0 0 0 0 0 0 
0 0 0 0 0 0 0 0 0 
0 0 0 0 0 0 0 0 0 
0 0 0 0 0 0 0 0 0 
0 0 0 0 0 0 0 0 0 
0 0 0 0 0 0 0 0 0 
0 0 0 0 0 0 0 0 0 
0 0 0 0 0 0 0 0 0 
0 0 0 0 0 0 0 0 0 
0 0 0 0 0 0 0 0 0 
0 0 0 0 0 0 0 0 0 
0 0 0 0 0 0 0 0 0 
0 0 0 0 0 0 0 0 0 
0 0 0 0 0 0 0 0 0 
0 0 0 0 0 0 0 0 0 
0 0 0 0 0 0 0 0 0 
0 0 0 0 0 0 0 0 0 
0 0 0 0 0 0 0 0 0 
0 0 0 0 0 0 0 0 0 
0 0 0 0 0 0 0 0 0 
0 0 0 0 0 0 0 0 0 
0 0 0 0 0 0 0 0 0 
0 0 0 0 0 0 0 0 0 
0 0 0 0 0 0 0 0 0 
0 0 0 0 0 0 0 0 0 
0 0 0 0 0 0 0 0 0 
0 0 0 0 0 0 0 0 0 
0 0 0 0 0 0 0 0 0 
0 0 0 0 0 0 0 0 0 
0 0 0 0 0 0 0 0 0 
0 0 0 0 0 0 0 0 0 
0 0 0 0 0 0 0 0 0 
0 0 0 0 0 0 0 0 0 
0 0 0 0 0 0 0 0 0 
0 0 0 0 0 0 0 0 0 
0 0 0 0 0 0 0 0 0 
0 0 0 0 0 0 0 0 0 
0 0 0 0 0 0 0 0 0 
0 0 0 0 0 0 0 0 0 
0 0 0 0 0 0 0 0 0 
0 0 0 0 0 0 0 0 0 
0 0 0 0 0 0 0 0 0 
0 0 0 0 0 0 0 0 0 
0 0 0 0 0 0 0 0 0 
0 0 0 0 0 0 0 0 0 
0 0 0 0 0 0 0 0 0 
0 0 0 0 0 0 0 0 0 
0 0 0 0 0 0 0 0 0 
0 0 0 0 0 0 0 0 0 
0 0 0 0 0 0 0 0 0 
0 0 0 0 0 0 0 0 0 
0 0 0 0 0 0 0 0 0 
0 0 0 0 0 0 0 0 0 
0 0 0 0 0 0 0 0 0 
0 0 0 0 0 0 0 0 0 
0 0 0 0 0 0 0 0 0 
0 0 0 0 0 0 0 0 0 
0 0 0 0 0 0 0 0 0 
0 0 0 0 0 0 0 0 0 
0 0 0 0 0 0 0 0 0 
0 0 0 0 0 0 0 0 0 
0 0 0 0 0 0 0 0 0 
0 0 0 0 0 0 0 0 0 
0 0 0 0 0 0 0 0 0 
0 0 0 0 0 0 0 0 0 
0 0 0 0 0 0 0 0 0 
0 0 0 0 0 0 0 0 0 
0 0 0 0 0 0 0 0 0 
0 0 0 0 0 0 0 0 0 
0 0 0 0 0 0 0 0 0 
0 0 0 0 0 0 0 0 0 
0 0 0 0 0 0 0 0 0 
0 0 0 0 0 0 0 0 0 
0 0 0 0 0 0 0 0 0 
0 0 0 0 0 0 0 0 0 
0 0 0 0 0 0 0 0 0 
0 0 0 0 0 0 0 0 0 
0 0 0 0 0 0 0 0 0 
0 0 0 0 0 0 0 0 0 
0 0 0 0 0 0 0 0 0 
0 0 0 0 0 0 0 0 0 
0 0 0 0 0 0 0 0 0 
0 0 0 0 0 0 0 0 0 
0 0 0 0 0 0 0 0 0 
0 0 0 0 0 0 0 0 0 
0 0 0 0 0 0 0 0 0 
0 0 0 0 0 0 0 0 0 
0 0 0 0 0 0 0 0 0 
0 0 0 0 0 0 0 0 0 
0 0 0 0 0 0 0 0 0 
0 0 0 0 0 0 0 0 0 
0 0 0 0 0 0 0 0 0 
0 0 0 0 0 0 0 0 0 
0 0 0 0 0 0 0 0 0 
0 0 0 0 0 0 0 0 0 
0 0 0 0 0 0 0 0 0 
0 0 0 0 0 0 0 0 0 
0 0 0 0 0 0 0 0 0 
0 0 0 0 0 0 0 0 0 
0 0 0 0 0 0 0 0 0 
0 0 0 0 0 0 0 0 0 
0 0 0 0 0 0 0 0 0 
0 0 0 0 0 0 0 0 0 
0 0 0 0 0 0 0 0 0 
0 0 0 0 0 0 0 0 0 
0 0 0 0 0 0 0 0 0 
0 0 0 0 0 0 0 0 0 
0 0 0 0 0 0 0 0 0 
0 0 0 0 0 0 0 0 0 
0 0 0 0 0 0 0 0 0 
0 0 0 0 0 0 0 0 0 
0 0 0 0 0 0 0 0 0 
0 0 0 0 0 0 0 0 0 
0 0 0 0 0 0 0 0 0 
0 0 0 0 0 0 0 0 0 
0 0 0 0 0 0 0 0 0 
0 0 0 0 0 0 0 0 0 
0 0 0 0 0 0 0 0 0 
0 0 0 0 0 0 0 0 0 
0 0 0 0 0 0 0 0 0 
0 0 0 0 0 0 0 0 0 
0 0 0 0 0 0 0 0 0 
0 0 0 0 0 0 0 0 0 
0 0 0 0 0 0 0 0 0 
0 0 0 0 0 0 0 0 0 
0 0 0 0 0 0 0 0 0 
0 0 0 0 0 0 0 0 0 

fx_mag_viz 1 648 double
0 0 0 0 0 0 0 0 0 
0 0 0 0 0 0 0 0 0 
0 0 0 0 0 0 0 0 0 
0 0 0 0 0 0 0 0 0 
0 0 0 0 0 0 0 0 0 
0 0 0 0 0 0 0 0 0 
0 0 0 0 0 0 0 0 0 
0 0 0 0 0 0 0 0 0 
0 0 0 0 0 0 0 0 0 
0 0 0 0 0 0 0 0 0 
0 0 0 0 0 0 0 0 0 
0 0 0 0 0 0 0 0 0 
0 0 0 0 0 0 0 0 0 
0 0 0 0 0 0 0 0 0 
0 0 0 0 0 0 0 0 0 
0 0 0 0 0 0 0 0 0 
0 0 0 0 0 0 0 0 0 
0 0 0 0 0 0 0 0 0 
0 0 0 0 0 0 0 0 0 
0 0 0 0 0 0 0 0 0 
0 0 0 0 0 0 0 0 0 
0 0 0 0 0 0 0 0 0 
0 0 0 0 0 0 0 0 0 
0 0 0 0 0 0 0 0 0 
0 0 0 0 0 0 0 0 0 
0 0 0 0 0 0 0 0 0 
0 0 0 0 0 0 0 0 0 
0 0 0 0 0 0 0 0 0 
0 0 0 0 0 0 0 0 0 
0 0 0 0 0 0 0 0 0 
0 0 0 0 0 0 0 0 0 
0 0 0 0 0 0 0 0 0 
0 0 0 0 0 0 0 0 0 
0 0 0 0 0 0 0 0 0 
0 0 0 0 0 0 0 0 0 
0 0 0 0 0 0 0 0 0 
0 0 0 0 0 0 0 0 0 
0 0 0 0 0 0 0 0 0 
0 0 0 0 0 0 0 0 0 
0 0 0 0 0 0 0 0 0 
0 0 0 0 0 0 0 0 0 
0 0 0 0 0 0 0 0 0 
0 0 0 0 0 0 0 0 0 
0 0 0 0 0 0 0 0 0 
0 0 0 0 0 0 0 0 0 
0 0 0 0 0 0 0 0 0 
0 0 0 0 0 0 0 0 0 
0 0 0 0 0 0 0 0 0 
0 0 0 0 0 0 0 0 0 
0 0 0 0 0 0 0 0 0 
0 0 0 0 0 0 0 0 0 
0 0 0 0 0 0 0 0 0 
0 0 0 0 0 0 0 0 0 
0 0 0 0 0 0 0 0 0 
0 0 0 0 0 0 0 0 0 
0 0 0 0 0 0 0 0 0 
0 0 0 0 0 0 0 0 0 
0 0 0 0 0 0 0 0 0 
0 0 0 0 0 0 0 0 0 
0 0 0 0 0 0 0 0 0 
0 0 0 0 0 0 0 0 0 
0 0 0 0 0 0 0 0 0 
0 0 0 0 0 0 0 0 0 
0 0 0 0 0 0 0 0 0 
0 0 0 0 0 0 0 0 0 
0 0 0 0 0 0 0 0 0 
0 0 0 0 0 0 0 0 0 
0 0 0 0 0 0 0 0 0 
0 0 0 0 0 0 0 0 0 
0 0 0 0 0 0 0 0 0 
0 0 0 0 0 0 0 0 0 
0 0 0 0 0 0 0 0 0 

fy_mag_viz 1 648 double
0 0 0 0 0 0 0 0 0 
0 0 0 0 0 0 0 0 0 
0 0 0 0 0 0 0 0 0 
0 0 0 0 0 0 0 0 0 
0 0 0 0 0 0 0 0 0 
0 0 0 0 0 0 0 0 0 
0 0 0 0 0 0 0 0 0 
0 0 0 0 0 0 0 0 0 
0 0 0 0 0 0 0 0 0 
0 0 0 0 0 0 0 0 0 
0 0 0 0 0 0 0 0 0 
0 0 0 0 0 0 0 0 0 
0 0 0 0 0 0 0 0 0 
0 0 0 0 0 0 0 0 0 
0 0 0 0 0 0 0 0 0 
0 0 0 0 0 0 0 0 0 
0 0 0 0 0 0 0 0 0 
0 0 0 0 0 0 0 0 0 
0 0 0 0 0 0 0 0 0 
0 0 0 0 0 0 0 0 0 
0 0 0 0 0 0 0 0 0 
0 0 0 0 0 0 0 0 0 
0 0 0 0 0 0 0 0 0 
0 0 0 0 0 0 0 0 0 
0 0 0 0 0 0 0 0 0 
0 0 0 0 0 0 0 0 0 
0 0 0 0 0 0 0 0 0 
0 0 0 0 0 0 0 0 0 
0 0 0 0 0 0 0 0 0 
0 0 0 0 0 0 0 0 0 
0 0 0 0 0 0 0 0 0 
0 0 0 0 0 0 0 0 0 
0 0 0 0 0 0 0 0 0 
0 0 0 0 0 0 0 0 0 
0 0 0 0 0 0 0 0 0 
0 0 0 0 0 0 0 0 0 
0 0 0 0 0 0 0 0 0 
0 0 0 0 0 0 0 0 0 
0 0 0 0 0 0 0 0 0 
0 0 0 0 0 0 0 0 0 
0 0 0 0 0 0 0 0 0 
0 0 0 0 0 0 0 0 0 
0 0 0 0 0 0 0 0 0 
0 0 0 0 0 0 0 0 0 
0 0 0 0 0 0 0 0 0 
0 0 0 0 0 0 0 0 0 
0 0 0 0 0 0 0 0 0 
0 0 0 0 0 0 0 0 0 
0 0 0 0 0 0 0 0 0 
0 0 0 0 0 0 0 0 0 
0 0 0 0 0 0 0 0 0 
0 0 0 0 0 0 0 0 0 
0 0 0 0 0 0 0 0 0 
0 0 0 0 0 0 0 0 0 
0 0 0 0 0 0 0 0 0 
0 0 0 0 0 0 0 0 0 
0 0 0 0 0 0 0 0 0 
0 0 0 0 0 0 0 0 0 
0 0 0 0 0 0 0 0 0 
0 0 0 0 0 0 0 0 0 
0 0 0 0 0 0 0 0 0 
0 0 0 0 0 0 0 0 0 
0 0 0 0 0 0 0 0 0 
0 0 0 0 0 0 0 0 0 
0 0 0 0 0 0 0 0 0 
0 0 0 0 0 0 0 0 0 
0 0 0 0 0 0 0 0 0 
0 0 0 0 0 0 0 0 0 
0 0 0 0 0 0 0 0 0 
0 0 0 0 0 0 0 0 0 
0 0 0 0 0 0 0 0 0 
0 0 0 0 0 0 0 0 0 

fz_mag_viz 1 648 double
0 0 0 0 0 0 0 0 0 
0 0 0 0 0 0 0 0 0 
0 0 0 0 0 0 0 0 0 
0 0 0 0 0 0 0 0 0 
0 0 0 0 0 0 0 0 0 
0 0 0 0 0 0 0 0 0 
0 0 0 0 0 0 0 0 0 
0 0 0 0 0 0 0 0 0 
0 0 0 0 0 0 0 0 0 
0 0 0 0 0 0 0 0 0 
0 0 0 0 0 0 0 0 0 
0 0 0 0 0 0 0 0 0 
0 0 0 0 0 0 0 0 0 
0 0 0 0 0 0 0 0 0 
0 0 0 0 0 0 0 0 0 
0 0 0 0 0 0 0 0 0 
0 0 0 0 0 0 0 0 0 
0 0 0 0 0 0 0 0 0 
0 0 0 0 0 0 0 0 0 
0 0 0 0 0 0 0 0 0 
0 0 0 0 0 0 0 0 0 
0 0 0 0 0 0 0 0 0 
0 0 0 0 0 0 0 0 0 
0 0 0 0 0 0 0 0 0 
0 0 0 0 0 0 0 0 0 
0 0 0 0 0 0 0 0 0 
0 0 0 0 0 0 0 0 0 
0 0 0 0 0 0 0 0 0 
0 0 0 0 0 0 0 0 0 
0 0 0 0 0 0 0 0 0 
0 0 0 0 0 0 0 0 0 
0 0 0 0 0 0 0 0 0 
0 0 0 0 0 0 0 0 0 
0 0 0 0 0 0 0 0 0 
0 0 0 0 0 0 0 0 0 
0 0 0 0 0 0 0 0 0 
0 0 0 0 0 0 0 0 0 
0 0 0 0 0 0 0 0 0 
0 0 0 0 0 0 0 0 0 
0 0 0 0 0 0 0 0 0 
0 0 0 0 0 0 0 0 0 
0 0 0 0 0 0 0 0 0 
0 0 0 0 0 0 0 0 0 
0 0 0 0 0 0 0 0 0 
0 0 0 0 0 0 0 0 0 
0 0 0 0 0 0 0 0 0 
0 0 0 0 0 0 0 0 0 
0 0 0 0 0 0 0 0 0 
0 0 0 0 0 0 0 0 0 
0 0 0 0 0 0 0 0 0 
0 0 0 0 0 0 0 0 0 
0 0 0 0 0 0 0 0 0 
0 0 0 0 0 0 0 0 0 
0 0 0 0 0 0 0 0 0 
0 0 0 0 0 0 0 0 0 
0 0 0 0 0 0 0 0 0 
0 0 0 0 0 0 0 0 0 
0 0 0 0 0 0 0 0 0 
0 0 0 0 0 0 0 0 0 
0 0 0 0 0 0 0 0 0 
0 0 0 0 0 0 0 0 0 
0 0 0 0 0 0 0 0 0 
0 0 0 0 0 0 0 0 0 
0 0 0 0 0 0 0 0 0 
0 0 0 0 0 0 0 0 0 
0 0 0 0 0 0 0 0 0 
0 0 0 0 0 0 0 0 0 
0 0 0 0 0 0 0 0 0 
0 0 0 0 0 0 0 0 0 
0 0 0 0 0 0 0 0 0 
0 0 0 0 0 0 0 0 0 
0 0 0 0 0 0 0 0 0 

B_magnitude 1 648 double
0 0 0 0 0 0 0 0 0 
0 0 0 0 0 0 0 0 0 
0 0 0 0 0 0 0 0 0 
0 0 0 0 0 0 0 0 0 
0 0 0 0 0 0 0 0 0 
0 0 0 0 0 0 0 0 0 
0 0 0 0 0 0 0 0 0 
0 0 0 0 0 0 0 0 0 
0 0 0 0 0 0 0 0 0 
0 0 0 0 0 0 0 0 0 
0 0 0 0 0 0 0 0 0 
0 0 0 0 0 0 0 0 0 
0 0 0 0 0 0 0 0 0 
0 0 0 0 0 0 0 0 0 
0 0 0 0 0 0 0 0 0 
0 0 0 0 0 0 0 0 0 
0 0 0 0 0 0 0 0 0 
0 0 0 0 0 0 0 0 0 
0 0 0 0 0 0 0 0 0 
0 0 0 0 0 0 0 0 0 
0 0 0 0 0 0 0 0 0 
0 0 0 0 0 0 0 0 0 
0 0 0 0 0 0 0 0 0 
0 0 0 0 0 0 0 0 0 
0 0 0 0 0 0 0 0 0 
0 0 0 0 0 0 0 0 0 
0 0 0 0 0 0 0 0 0 
0 0 0 0 0 0 0 0 0 
0 0 0 0 0 0 0 0 0 
0 0 0 0 0 0 0 0 0 
0 0 0 0 0 0 0 0 0 
0 0 0 0 0 0 0 0 0 
0 0 0 0 0 0 0 0 0 
0 0 0 0 0 0 0 0 0 
0 0 0 0 0 0 0 0 0 
0 0 0 0 0 0 0 0 0 
0 0 0 0 0 0 0 0 0 
0 0 0 0 0 0 0 0 0 
0 0 0 0 0 0 0 0 0 
0 0 0 0 0 0 0 0 0 
0 0 0 0 0 0 0 0 0 
0 0 0 0 0 0 0 0 0 
0 0 0 0 0 0 0 0 0 
0 0 0 0 0 0 0 0 0 
0 0 0 0 0 0 0 0 0 
0 0 0 0 0 0 0 0 0 
0 0 0 0 0 0 0 0 0 
0 0 0 0 0 0 0 0 0 
0 0 0 0 0 0 0 0 0 
0 0 0 0 0 0 0 0 0 
0 0 0 0 0 0 0 0 0 
0 0 0 0 0 0 0 0 0 
0 0 0 0 0 0 0 0 0 
0 0 0 0 0 0 0 0 0 
0 0 0 0 0 0 0 0 0 
0 0 0 0 0 0 0 0 0 
0 0 0 0 0 0 0 0 0 
0 0 0 0 0 0 0 0 0 
0 0 0 0 0 0 0 0 0 
0 0 0 0 0 0 0 0 0 
0 0 0 0 0 0 0 0 0 
0 0 0 0 0 0 0 0 0 
0 0 0 0 0 0 0 0 0 
0 0 0 0 0 0 0 0 0 
0 0 0 0 0 0 0 0 0 
0 0 0 0 0 0 0 0 0 
0 0 0 0 0 0 0 0 0 
0 0 0 0 0 0 0 0 0 
0 0 0 0 0 0 0 0 0 
0 0 0 0 0 0 0 0 0 
0 0 0 0 0 0 0 0 0 
0 0 0 0 0 0 0 0 0 

B_gradient_mag 1 648 double
0 0 0 0 0 0 0 0 0 
0 0 0 0 0 0 0 0 0 
0 0 0 0 0 0 0 0 0 
0 0 0 0 0 0 0 0 0 
0 0 0 0 0 0 0 0 0 
0 0 0 0 0 0 0 0 0 
0 0 0 0 0 0 0 0 0 
0 0 0 0 0 0 0 0 0 
0 0 0 0 0 0 0 0 0 
0 0 0 0 0 0 0 0 0 
0 0 0 0 0 0 0 0 0 
0 0 0 0 0 0 0 0 0 
0 0 0 0 0 0 0 0 0 
0 0 0 0 0 0 0 0 0 
0 0 0 0 0 0 0 0 0 
0 0 0 0 0 0 0 0 0 
0 0 0 0 0 0 0 0 0 
0 0 0 0 0 0 0 0 0 
0 0 0 0 0 0 0 0 0 
0 0 0 0 0 0 0 0 0 
0 0 0 0 0 0 0 0 0 
0 0 0 0 0 0 0 0 0 
0 0 0 0 0 0 0 0 0 
0 0 0 0 0 0 0 0 0 
0 0 0 0 0 0 0 0 0 
0 0 0 0 0 0 0 0 0 
0 0 0 0 0 0 0 0 0 
0 0 0 0 0 0 0 0 0 
0 0 0 0 0 0 0 0 0 
0 0 0 0 0 0 0 0 0 
0 0 0 0 0 0 0 0 0 
0 0 0 0 0 0 0 0 0 
0 0 0 0 0 0 0 0 0 
0 0 0 0 0 0 0 0 0 
0 0 0 0 0 0 0 0 0 
0 0 0 0 0 0 0 0 0 
0 0 0 0 0 0 0 0 0 
0 0 0 0 0 0 0 0 0 
0 0 0 0 0 0 0 0 0 
0 0 0 0 0 0 0 0 0 
0 0 0 0 0 0 0 0 0 
0 0 0 0 0 0 0 0 0 
0 0 0 0 0 0 0 0 0 
0 0 0 0 0 0 0 0 0 
0 0 0 0 0 0 0 0 0 
0 0 0 0 0 0 0 0 0 
0 0 0 0 0 0 0 0 0 
0 0 0 0 0 0 0 0 0 
0 0 0 0 0 0 0 0 0 
0 0 0 0 0 0 0 0 0 
0 0 0 0 0 0 0 0 0 
0 0 0 0 0 0 0 0 0 
0 0 0 0 0 0 0 0 0 
0 0 0 0 0 0 0 0 0 
0 0 0 0 0 0 0 0 0 
0 0 0 0 0 0 0 0 0 
0 0 0 0 0 0 0 0 0 
0 0 0 0 0 0 0 0 0 
0 0 0 0 0 0 0 0 0 
0 0 0 0 0 0 0 0 0 
0 0 0 0 0 0 0 0 0 
0 0 0 0 0 0 0 0 0 
0 0 0 0 0 0 0 0 0 
0 0 0 0 0 0 0 0 0 
0 0 0 0 0 0 0 0 0 
0 0 0 0 0 0 0 0 0 
0 0 0 0 0 0 0 0 0 
0 0 0 0 0 0 0 0 0 
0 0 0 0 0 0 0 0 0 
0 0 0 0 0 0 0 0 0 
0 0 0 0 0 0 0 0 0 
0 0 0 0 0 0 0 0 0 

