# vtk DataFile Version 5.1
Generated by LIGGGHTS
ASCII
DATASET POLYDATA
POINTS 648 float
-0.0308094 -0.0435702 0.0590885 -0.00433253 -0.00676057 0.0591378 -0.0179231 -0.00300678 0.0590832 
-0.042922 -0.0404536 0.0599097 0.0280204 -0.0311414 0.0599677 -0.0112192 -0.0104501 0.059431 
0.00743742 -0.00926665 0.0593285 0.013874 -0.00963069 0.0604111 -0.0129003 -0.00574839 0.0601897 
-0.0214351 0.00957734 0.0599071 -0.0310202 0.0131063 0.0605071 0.0364634 0.0310238 0.0604383 
-0.0264781 0.032823 0.060136 0.0297434 0.0373158 0.0602287 -0.0428902 -0.0449088 0.0612209 
0.00798734 -0.0367051 0.0609483 0.000892701 -0.0263701 0.0608673 -0.0257955 -0.0157834 0.061615 
0.0384376 0.000848974 0.0615103 0.0449494 0.00392273 0.0618897 0.021602 0.00540593 0.0606605 
0.0221269 0.00728552 0.0608881 -0.022709 0.0198803 0.0613629 0.0167463 0.0251763 0.0611855 
-0.0390027 0.0421086 0.0613782 0.0308099 -0.0378456 0.0620532 0.0333162 -0.0342631 0.0623618 
-0.00444012 -0.0151621 0.0631315 0.0109664 -0.00760095 0.0629689 0.00937085 -0.00418454 0.0627089 
0.0180565 -0.00487531 0.0628018 -0.0141425 -0.00311887 0.0631876 0.03506 0.0228899 0.0621904 
0.0181332 0.0246356 0.0622646 -0.0105296 -0.0314142 0.0637157 -0.0100897 -0.0180162 0.0638213 
-0.0117656 -0.0138394 0.0635092 -0.0198564 -0.00683511 0.0639385 0.0246705 0.0064451 0.0642205 
-0.0426568 0.00723228 0.0642882 0.0212596 0.00979192 0.064225 0.0143092 0.0139794 0.0639395 
0.0248423 0.0143007 0.0635234 0.0123926 0.0218243 0.0633454 -0.0335565 -0.0442122 0.0657858 
0.0156715 -0.0391733 0.0653327 0.033456 -0.0256735 0.0655053 0.00689113 -0.0107816 0.0647299 
0.021323 -0.00444137 0.0649836 0.0292006 0.00433004 0.0656883 0.0340899 0.00882812 0.0652423 
0.0398091 0.011618 0.0648282 0.0307708 0.0242663 0.0649444 -0.0200898 0.0311527 0.0651561 
-0.0073504 0.0318329 0.065688 -0.0248652 -0.040212 0.067047 -0.00302782 -0.0385948 0.0667573 
-0.0266532 -0.0301716 0.0662575 0.039775 -0.0211058 0.0659726 -0.0388614 -0.0136303 0.0660954 
0.0350526 -0.0102353 0.0659761 0.00517921 0.0169249 0.0670365 -0.0360536 0.0173104 0.066411 
0.0090081 0.0191686 0.0666816 -0.00782209 0.0241861 0.066043 -0.0260142 0.00017485 0.068178 
8.23501e-07 0.0138406 0.0681462 0.0215224 0.0171285 0.0679642 -0.0153727 0.020636 0.0684026 
0.000162142 0.0251126 0.0676089 -0.00563177 0.0268155 0.0677636 0.0038092 0.0311583 0.0676383 
0.01325 0.0319187 0.0674415 0.0165329 0.0385374 0.0676272 -0.00674967 -0.0416523 0.0685856 
0.040047 -0.0404588 0.0690832 0.00594186 -0.0351889 0.0687252 -0.0408326 -0.0234295 0.0696308 
-0.0108877 -0.0188832 0.0695621 0.00156248 -0.0194187 0.0689239 0.0030191 -0.0179247 0.0692352 
0.0286804 -0.00919085 0.0686274 0.0188762 0.00181355 0.0692155 0.0305447 0.00486582 0.0689134 
-0.0287984 0.00559412 0.0692652 -0.0282566 0.021284 0.0691823 -0.0409258 0.0305044 0.0687662 
0.0251972 0.0393087 0.0695017 -0.0334706 -0.0396012 0.0709365 0.00577088 -0.0287415 0.0698019 
0.0336491 -0.0197505 0.0709921 -0.0339565 -0.0167518 0.0709989 -0.0269092 -0.0125643 0.070048 
-0.0214415 -0.007536 0.0707128 0.00417698 0.0024455 0.070072 0.0287781 0.014071 0.0704602 
-0.0313244 0.0314049 0.0707052 -0.0426154 -0.0165053 0.072119 0.0223879 -0.0163393 0.0721264 
-0.00702036 -0.00121172 0.0721078 -0.00967086 0.00179773 0.0720243 -0.034865 0.0142961 0.0717679 
-0.041477 0.0364172 0.0715233 -0.0240719 -0.0268296 0.0724432 0.0436787 -0.0219137 0.0734561 
0.0277003 -0.0107969 0.0733052 -0.00783961 -0.000387029 0.0725093 -0.0386663 0.0253433 0.0725479 
-0.0267569 0.0263983 0.0729859 0.0221021 0.0401282 0.0724014 0.0414821 -0.0410789 0.0742003 
-0.0232422 -0.0321576 0.0741134 0.0404767 -0.0183151 0.0743082 0.0228765 0.00606581 0.0744527 
0.0399323 0.0117688 0.0747125 -0.023041 0.0197144 0.0741575 -0.00739359 0.0259593 0.0748327 
0.0191509 0.0299648 0.0746818 0.0444958 0.0309554 0.0740295 0.00284552 0.0345861 0.0743552 
-0.0439713 -0.0357399 0.0755376 0.0244271 -0.0334586 0.0761763 -0.0448384 -0.0296834 0.0759016 
0.00623721 -0.0211799 0.0758143 0.0251729 -0.00985964 0.0751105 0.0131353 -0.00504642 0.0758306 
0.0011249 0.00615697 0.0758596 0.030759 0.00580352 0.0754977 0.00395304 0.0187088 0.0753184 
-0.0357156 0.0282031 0.0753479 -0.0112537 0.0395394 0.0750703 -0.0205282 0.0432397 0.0751733 
-0.044759 -0.0437614 0.0768561 -0.0370475 -0.0370945 0.0772885 0.0268369 -0.0315202 0.0762274 
0.0268005 -0.0146468 0.0769202 -0.0329121 -0.0139828 0.0762581 0.0176437 -0.0119747 0.0765839 
-0.042786 -0.00359954 0.0773944 -0.0170872 0.00564833 0.0767119 -0.00279986 0.0127222 0.0772036 
0.0418335 0.0161761 0.0773991 0.00128112 0.0217131 0.0774237 0.0362273 0.0220011 0.0772207 
0.0163992 0.0415262 0.0762416 0.00805094 0.0422278 0.0774484 0.000425919 -0.0415728 0.0788822 
0.0244803 -0.0401788 0.0785213 -0.0427235 -0.0332389 0.0784829 0.023158 -0.0340207 0.0780775 
0.00802514 -0.031483 0.0781369 0.032808 -0.025967 0.0777245 -0.0317771 -0.0175651 0.0779805 
-0.038829 -0.00978443 0.0777766 -0.0304645 -0.00701594 0.0777756 0.0142017 0.0079404 0.0785977 
-0.0408092 0.00981999 0.0787812 0.014866 0.0127598 0.0780929 -0.0214239 0.0189608 0.0780284 
0.0226957 0.0260881 0.077968 -0.00435696 0.0325462 0.077988 -0.00883869 0.0381834 0.0787905 
-0.027409 -0.0433703 0.0793133 -0.00670669 -0.0394183 0.0800958 0.00879071 -0.0344865 0.0791367 
-0.0262624 -0.032473 0.0797108 -0.00580099 -0.0272788 0.0792428 -0.0281455 -0.00127675 0.0791436 
0.039455 -0.000236508 0.0790493 0.0147261 0.00139147 0.079955 0.0202046 0.00840095 0.0789041 
-0.0392616 0.00972366 0.0793903 -0.0394276 0.0109375 0.0795759 0.0226738 0.0181095 0.0796911 
0.0146363 0.0223077 0.0797948 0.00953871 0.0271324 0.0789824 -0.0312382 0.0393096 0.0800978 
0.0399235 0.0434757 0.0798957 -0.00340304 -0.0448428 0.0808607 0.027474 -0.0338615 0.0810428 
-0.0338231 -0.0250135 0.0808716 0.0363266 -0.0194176 0.0811175 -0.0227164 -0.0141288 0.0808211 
-0.0222502 -0.00974669 0.080671 -0.00553214 -0.00871323 0.0801754 -0.037077 0.00611456 0.0806312 
-0.0429188 0.0135204 0.0806752 -0.0431379 0.0208085 0.0813201 -0.0114472 0.026715 0.0811486 
-0.0204621 -0.0172006 0.0818661 0.0198229 -0.0156851 0.0826701 0.0249316 -0.014475 0.0817652 
0.0414517 -0.0114994 0.0830019 -0.0196799 -0.00931279 0.0823486 -0.0135858 -0.00672635 0.0825549 
-0.00723413 0.00605583 0.0825452 -0.0101256 0.00978275 0.081472 0.00546842 0.0177814 0.0823449 
-0.0349287 0.0230684 0.082261 0.0418836 -0.0421436 0.0838116 0.0238162 -0.0409762 0.0838722 
0.000822496 -0.0363122 0.0830425 -0.0240024 -0.0280603 0.0831242 -0.040885 -0.00406647 0.0835663 
0.0362421 0.00170773 0.083629 0.0404406 0.00462082 0.0837455 0.0336082 0.013194 0.0829871 
0.0388885 0.0193682 0.0836278 0.0281745 0.039089 0.0834074 -0.0375088 0.0393741 0.0829791 
-0.0346971 -0.0446764 0.0843196 -0.0248654 -0.0427111 0.0852827 0.0248068 -0.0428986 0.0841641 
-0.018434 -0.0405477 0.0851521 0.0397687 -0.0374633 0.0851811 0.03382 -0.0268981 0.0850018 
0.0306875 -0.0259396 0.084108 0.00538025 -0.0241403 0.0846013 0.0129906 -0.00677597 0.0854018 
0.0275881 -0.00673863 0.0854146 -0.0416237 0.00110806 0.0844441 0.0197977 0.00963841 0.0842301 
0.0261916 0.0119357 0.0850601 0.00976298 0.0163696 0.0844512 0.0122157 0.0191756 0.085014 
-0.0127911 0.0299546 0.0853711 0.0238959 0.0383247 0.0840329 0.0424299 -0.0409921 0.0860002 
-0.0108246 -0.0388127 0.0855551 0.0101031 -0.0273014 0.0863319 0.0102479 -0.024092 0.0861375 
-0.0225401 -0.0213878 0.0860529 -0.0296942 -0.0196153 0.0864352 0.0252581 -0.0163235 0.0868186 
-0.00747582 -0.00609419 0.0856167 0.032558 0.00153523 0.0858971 0.0128044 0.0127337 0.0857997 
-0.00307286 0.0144526 0.0853925 -0.0421793 0.0225172 0.086348 0.0311732 0.0371467 0.0856633 
-0.00973825 0.0391656 0.0862242 -0.0349861 -0.0412827 0.0875013 -0.00586029 -0.0338127 0.0877919 
0.0346336 -0.0325969 0.0871223 -0.0323128 -0.0219837 0.0875037 -0.00827992 -0.020547 0.0866377 
0.0403752 -0.0143085 0.0871507 0.00523139 -0.00599236 0.0866952 0.0407777 0.000744206 0.087622 
0.0283387 0.00890506 0.0872824 0.0121458 0.0151918 0.0878783 -0.0190887 0.0269029 0.0867334 
-0.0376379 0.0294143 0.0867122 0.00372347 0.0304157 0.0868195 -0.0245447 0.0378537 0.0873809 
0.0222253 0.0407186 0.0870606 -0.0181988 0.0434549 0.0870379 0.0145521 -0.0432303 0.0879764 
0.0348044 -0.042095 0.0889561 0.0433459 -0.0353282 0.0889664 0.00264867 -0.0338128 0.0889813 
0.00548761 -0.0197918 0.0885016 0.0313953 -0.00974065 0.088312 0.0406218 -0.0100941 0.0884642 
0.0290986 -0.000251763 0.0881157 0.0250346 0.00641518 0.0890023 0.00861143 0.0123591 0.0880827 
-0.00867948 0.0139924 0.0891371 -0.0196462 0.0155185 0.0883491 0.00390562 0.0317225 0.0890499 
0.00317215 0.0343196 0.088765 0.0352379 0.0438995 0.0882532 -0.0168273 -0.0360331 0.0896783 
-0.0376897 -0.0314333 0.0894036 -0.0263426 -0.0292431 0.0899478 0.0233461 -0.0214624 0.0900539 
0.0394323 -0.021923 0.0893587 0.0322358 -0.0130621 0.0903632 0.0293019 -0.00298432 0.0902432 
0.0323225 0.00436429 0.0894501 0.00264144 0.0247174 0.0904255 -0.0108954 0.0304 0.0904909 
0.00519606 0.0301696 0.0892354 0.0354139 0.0312817 0.090262 0.0338942 -0.0410147 0.0919242 
-0.0406141 -0.0405112 0.0913382 -0.0430551 -0.0267583 0.0909869 -0.0350278 -0.0224863 0.0911196 
-0.0186412 -0.0134353 0.0909963 0.0161928 -0.00760918 0.0907124 -0.0120059 -0.00345367 0.0917803 
-0.00896956 -0.00131708 0.0915909 -0.000610522 -0.00103491 0.0909927 -0.0261639 0.00337815 0.0914118 
0.000954082 0.0152563 0.0913227 0.0231674 0.0340949 0.0905616 0.0405446 0.0433429 0.0916213 
0.0181024 -0.0433049 0.0923897 0.0131812 -0.0427533 0.092598 -0.0327621 -0.0121928 0.0926821 
0.0387156 -0.00624884 0.092913 0.00975646 -0.00313231 0.0925785 0.0116524 0.00206193 0.0922594 
0.0277548 0.0042931 0.0922824 0.0101693 0.00555192 0.0925887 0.0441199 0.0136981 0.0919951 
0.0193546 0.0324404 0.092749 -0.00585061 0.0388609 0.0927817 0.0352701 0.0439749 0.0926277 
0.00985621 -0.0367022 0.0933857 0.0449741 -0.0303513 0.0932893 0.0184681 -0.0172117 0.0943643 
0.038292 -0.016257 0.0942947 0.0323803 -0.0150629 0.0939614 -0.0150798 -0.00698339 0.0942196 
-0.0325416 0.00283857 0.0943108 0.00243665 0.00282786 0.0943123 -0.00841171 0.0143034 0.0940707 
0.0311878 0.014057 0.0931464 0.0407412 0.0174253 0.0937258 -0.0122989 0.0222019 0.0940468 
0.00126512 0.0228658 0.0931682 0.0438582 0.0244724 0.0942325 0.026696 0.03017 0.0932766 
0.0166138 -0.0412108 0.0953861 -0.0233761 -0.031813 0.0951564 -0.0220587 -0.0306349 0.0948958 
-0.0414327 -0.0290659 0.0949092 0.0346338 -0.0290927 0.0954721 0.00558373 -0.0242787 0.0944645 
-0.0127621 -0.0231756 0.0945487 0.0240101 -0.0228809 0.09563 0.035159 -0.023363 0.0948328 
-0.0405162 -0.0161033 0.0958091 0.0342493 -0.0115037 0.0951349 -0.00254943 -0.00825679 0.0944613 
-0.0344646 -0.00725539 0.0947851 0.0180458 -0.00470109 0.0948553 -0.0107529 -0.00365687 0.0949798 
-0.00941413 -0.00330341 0.0954394 -0.0283489 -0.000417126 0.0952821 -0.025141 0.00447188 0.0949191 
0.0396593 0.013993 0.0953807 0.0398418 0.0217469 0.0955336 0.021223 0.0244832 0.0946737 
0.0395905 0.0272142 0.0947657 -0.032208 0.0306075 0.0951601 0.0372507 0.0318783 0.0953001 
-0.00196307 0.0366495 0.0949717 -0.0309963 -0.0355024 0.0963751 -0.0160452 -0.0323821 0.0965289 
-0.0393221 -0.0167834 0.0969968 -0.0147645 -0.0165889 0.0959962 0.0334462 -0.00930086 0.0960297 
-0.0211095 -0.00770044 0.0969143 0.0140084 -6.89735e-05 0.0962152 0.0110904 0.00657535 0.0970555 
-0.0105861 0.00898083 0.096217 0.0211953 0.00966092 0.0964596 -0.0148746 0.0223253 0.0964844 
0.0258603 0.0235991 0.0968015 -0.0269229 0.0267788 0.0974193 0.0294278 0.0431452 0.0962825 
0.00528787 0.0432844 0.0963973 -0.00396528 -0.0444182 0.0976693 -0.0386911 -0.0311434 0.0974996 
-0.00446216 -0.0255279 0.0980567 -0.00863888 -0.0237376 0.0970782 -0.0291427 -0.0219343 0.098282 
-0.0326334 -0.00963456 0.0975489 -0.0343844 -0.0078404 0.0975797 -0.00401126 -0.00720159 0.0975971 
0.0404774 -0.00688032 0.0973754 -0.009285 0.00693532 0.0970441 -0.0365733 0.0119208 0.0976837 
0.00243185 0.0120975 0.0978816 0.018015 0.0183735 0.0977375 -0.0267196 0.0236159 0.0971002 
-0.0337286 0.0337045 0.0970946 0.00727395 0.0332762 0.0983106 0.00201585 0.0404036 0.0978107 
0.0195053 -0.043722 0.0985127 0.0392765 -0.0300093 0.0998691 0.0155599 -0.0240909 0.0988495 
-0.0210835 -0.0209207 0.0994384 -0.0033641 -0.0204173 0.0995836 0.0200271 -0.00425623 0.0993468 
-0.0408474 -0.00214648 0.0984821 0.0168839 -0.00210364 0.0985096 -0.0376932 -0.000132947 0.0994168 
-0.0153419 -0.00108619 0.0986735 0.0260144 0.00429017 0.0989846 -0.00598638 0.00689803 0.099201 
0.0114764 0.0140289 0.0992101 0.0153641 0.0146287 0.0993179 0.00834461 0.0278725 0.0995708 
0.0191028 0.0315895 0.0983435 -0.0425374 0.0333781 0.0996286 -0.0160353 0.0448572 0.0996632 
-0.0136468 -0.0412372 0.0997837 -0.0161578 -0.0337243 0.0998012 0.0350196 -0.0250011 0.100475 
0.00179778 -0.0247441 0.100033 0.0272875 -0.0186725 0.100465 -0.00528066 -0.0121118 0.100532 
0.0242571 -0.0100823 0.100005 -0.0198668 -0.00211416 0.100577 -0.00229178 0.0020129 0.100708 
0.0183943 0.00266245 0.10087 -0.00552594 0.00555795 0.10001 -0.0429246 0.00657681 0.100036 
0.00533928 0.00728904 0.100329 -0.0128609 0.0265935 0.100105 -0.0152062 0.0294088 0.100184 
-0.0368667 0.0306348 0.101276 0.0278529 0.0342296 0.100772 0.00888594 0.0360502 0.0997126 
0.0030545 0.0369981 0.100787 -0.039126 0.0399637 0.100553 -0.0133259 0.0414802 0.100651 
-0.0177803 -0.0340186 0.101844 0.0153133 -0.0285941 0.101706 0.0164647 -0.0275391 0.102121 
0.0347572 -0.0260666 0.101592 0.0262592 -0.0217201 0.101645 0.0144468 -0.013247 0.101076 
0.00664535 -0.00164817 0.101882 -0.0231109 0.0157017 0.101714 0.00742845 0.0199749 0.101576 
-0.0406313 0.0295913 0.102306 0.0416479 -0.0439733 0.103052 0.0406519 -0.0427256 0.103299 
0.0077947 -0.0345433 0.102905 0.0204492 -0.0194639 0.102688 0.0218308 -0.0192565 0.103822 
-0.0341597 -0.0122829 0.102795 0.0223025 -0.0112244 0.103273 -0.0253129 -0.0039775 0.102435 
-0.0233311 0.00384073 0.10318 0.00314898 0.00491531 0.103122 0.0332757 0.00539899 0.10291 
-0.0287332 0.0215601 0.103092 -0.0324762 0.0230005 0.102373 -0.0295899 0.0232577 0.103442 
0.00231692 -0.0294453 0.104139 0.0054016 -0.025334 0.104062 -0.0279963 -0.0141356 0.104405 
-0.019893 0.00878872 0.103749 -0.00071691 0.0108932 0.10383 0.0397191 0.0283771 0.104506 
0.0380057 0.0324307 0.104477 0.0152528 0.033152 0.104824 -0.0390775 0.0447256 0.104011 
0.0185094 -0.042363 0.106525 -0.0273176 -0.0361067 0.105411 -0.0346801 -0.0287009 0.104839 
-0.0432264 -0.0264101 0.10598 0.0115492 -0.0227248 0.105 0.0132043 -0.01541 0.105087 
0.0253763 -0.011051 0.106034 0.0352883 -0.0103067 0.105507 0.0448793 -0.00396119 0.10527 
0.0189244 0.00254502 0.105188 0.0358407 0.00533501 0.106086 -0.0408306 0.00999374 0.105606 
0.00474506 0.0103043 0.104995 0.0234497 0.00978487 0.105189 0.027557 0.009967 0.105948 
-0.00808524 0.0113378 0.105312 -0.0350204 0.0121089 0.105437 -0.0408838 0.0159645 0.105889 
-0.0122189 0.0175978 0.105996 0.0337272 0.0324898 0.106028 0.00367032 0.0371324 0.105013 
-0.00647711 0.0391566 0.105502 0.0114086 0.0440135 0.105928 -0.0440308 0.0448256 0.106205 
0.0171919 0.0449185 0.105611 0.0339316 -0.041715 0.106618 -0.0195638 -0.0385913 0.106745 
0.0325128 -0.03812 0.10676 0.0195647 -0.0366528 0.106443 -0.0177429 -0.0346724 0.107046 
-0.0396817 -0.0304797 0.106461 -0.0137512 0.00384646 0.107309 0.00265626 0.00371614 0.106855 
-0.0406381 0.00555966 0.106209 -0.0442311 0.00821601 0.106702 0.00153271 0.0201988 0.10695 
0.0434247 0.0295768 0.106872 -0.0422696 0.0340949 0.106945 0.0211706 0.0445491 0.107117 
-0.0389435 -0.0425966 0.108687 0.00849583 -0.0405939 0.107502 -0.0164034 -0.0216001 0.10752 
-0.0328213 -0.0176588 0.107552 -0.0408642 -0.0154151 0.107946 -0.015814 -0.0152491 0.107664 
0.0375745 -0.0151367 0.107822 -0.0207563 -0.0111167 0.108634 -0.00474481 -0.00600267 0.108296 
-0.0131355 0.00164571 0.10867 -0.0403489 0.00598291 0.1076 0.0324887 0.00836074 0.108352 
0.00757299 0.0192258 0.107708 0.0350116 0.0207306 0.108592 0.0040127 0.0314243 0.107663 
-0.0213481 0.0319153 0.108789 -0.0169239 -0.0402939 0.109648 0.0341086 -0.0368686 0.109754 
0.043014 -0.0343178 0.110027 -0.0207996 -0.0190456 0.109102 0.0282033 -0.0178095 0.109641 
0.00886689 -0.0141191 0.109078 -0.0253401 -0.0103599 0.109367 0.0420414 -0.00101026 0.109385 
0.00789931 0.0136568 0.10913 0.012949 0.0143048 0.10906 0.012585 0.0155082 0.11015 
0.0323341 0.0191974 0.110242 -0.0436572 0.0238848 0.109753 -0.0407273 0.0358476 0.109651 
0.0170579 0.0421878 0.109015 0.00513794 0.0433856 0.109906 -0.00161929 -0.0353994 0.110987 
0.0355384 -0.0354155 0.110401 0.0289145 -0.0340196 0.111534 -0.0210092 -0.0320472 0.110325 
0.023019 -0.0293484 0.110542 0.0412685 -0.0295104 0.111259 -0.0401314 -0.0280847 0.110845 
0.0210005 -0.0239559 0.1107 -0.0183202 -0.0175475 0.110373 -0.027449 0.00511055 0.111048 
-0.01547 0.00642247 0.110635 0.0379188 0.0120326 0.110555 -0.00443291 0.0160613 0.110224 
-0.0214233 0.0285543 0.110709 -0.0289295 -0.0389067 0.111995 -0.0179089 -0.0346335 0.112287 
-8.23525e-05 -0.034098 0.112518 0.0403097 -0.0347888 0.111783 -0.015788 -0.0282898 0.112139 
-0.0139777 -0.0223984 0.111646 0.0134129 -0.0192809 0.112494 -0.00710141 -0.0133745 0.112628 
0.00978397 0.00922321 0.112073 -0.0371624 0.011326 0.112768 -0.0287818 0.014969 0.111348 
0.0440772 0.0154938 0.112146 -0.0286532 0.0159811 0.112143 0.0256029 0.0175394 0.112476 
-0.0363159 0.0185996 0.111377 -0.00750544 0.0361316 0.111354 -0.0317519 -0.0446953 0.112755 
-0.00682403 -0.0314098 0.112904 0.0414834 -0.0181367 0.113334 0.0296492 -0.015918 0.113199 
-0.0161548 0.0159009 0.113708 -0.00317984 0.0164631 0.112881 -0.0132251 0.0252506 0.113294 
-0.00472634 0.0344449 0.112723 0.010226 -0.0308634 0.115207 0.0156293 -0.0283842 0.113952 
-0.0329608 -0.0218045 0.115602 0.0323804 -0.0132471 0.114217 0.0347312 -0.012978 0.114469 
0.0218314 -0.00971151 0.114801 0.00127443 -0.000618905 0.114421 -0.0332593 0.000859011 0.11397 
-0.00831541 0.0129665 0.114253 -0.0144089 0.0201081 0.114829 -0.0138035 0.0240512 0.114529 
-0.0260391 0.0304395 0.113993 -0.0359241 0.0337864 0.114043 0.0132394 0.0345575 0.114538 
-0.0190394 0.0446837 0.115036 0.0201641 -0.0426709 0.11571 -0.0234086 -0.038644 0.116046 
0.0109547 -0.0235646 0.115287 -0.0313057 -0.0141988 0.116317 -0.0101373 -0.00698039 0.116066 
0.00418285 0.0112423 0.115266 -0.0436896 0.0195853 0.115452 0.00976854 0.0197772 0.115437 
0.0262096 -0.0449372 0.116868 -0.0225361 -0.0441701 0.117228 0.0307351 -0.0355434 0.116842 
-0.0336946 -0.0248459 0.117717 -0.038621 -0.0229432 0.117747 -0.0420316 -0.0145538 0.117836 
-0.0449336 -0.00957357 0.117336 -0.042331 -0.00792816 0.116706 0.0127657 -0.00746761 0.117004 
-0.00720807 -0.00608605 0.116875 0.0386193 -0.00496685 0.117134 -0.0395569 -0.00227866 0.117371 
0.0154702 -0.00154679 0.118014 -0.0349081 0.00917553 0.117746 -0.0219587 0.0304934 0.117126 
-0.0379532 0.0399341 0.117374 -0.00785852 0.041878 0.11755 0.0147823 -0.0446949 0.117934 
-0.0385899 -0.0405251 0.119634 -0.00338111 -0.0363358 0.118338 -0.0136128 -0.00979682 0.118928 
-0.024842 -0.00884532 0.118523 0.0414788 -0.00521487 0.119082 -0.0193355 0.018129 0.118774 
-0.014478 0.0275162 0.118653 0.0214431 0.0335886 0.118658 0.0430506 0.0422314 0.117861 
0.023953 0.00820576 0.120564 0.0104707 0.0313218 0.119727 0.0164577 0.0353116 0.120579 
0.00635633 0.000852437 0.120992 0.0133448 0.00646544 0.121705 0.00308146 0.0401468 0.121324 
-0.0102477 0.0267602 0.122716 -0.00521279 -0.0413279 0.124278 0.00357123 -0.00830953 0.123774 
-0.0256005 0.0215871 0.126136 -0.0197415 0.0344175 0.126054 -0.0281804 0.0418824 0.124696 
-0.0328109 -0.0226975 0.126916 0.0302919 -0.0148257 0.127007 0.0433204 -0.0141837 0.126477 
0.0320014 0.00756294 0.126126 -0.0296003 0.0277025 0.126607 0.0439232 0.0371117 0.126871 
-0.0437633 0.0406561 0.126132 -0.0419519 -0.0259749 0.127617 -0.0081225 0.0151775 0.128106 
-0.0155539 0.0359545 0.128036 0.0131273 0.040817 0.129611 -0.00757157 0.00454821 0.130913 
0.0282359 -0.00877456 0.133096 0.0188903 -0.0308528 0.134219 -0.0386256 -0.00983966 0.134607 
-0.0356048 -0.000104637 0.134789 -0.0170112 0.0231088 0.134461 0.00741479 -0.0295782 0.136174 
0.00347554 0.00338662 0.135799 -0.0245993 0.0193658 0.135614 0.0419483 -0.0348097 0.136942 
-0.0207679 -0.0256315 0.136984 -0.00254916 -0.00379952 0.137597 0.00643655 -0.000956063 0.137287 

VERTICES 649 648
OFFSETS vtktypeint64
0 1 2 3 4 5 6 7 8 
9 10 11 12 13 14 15 16 17 
18 19 20 21 22 23 24 25 26 
27 28 29 30 31 32 33 34 35 
36 37 38 39 40 41 42 43 44 
45 46 47 48 49 50 51 52 53 
54 55 56 57 58 59 60 61 62 
63 64 65 66 67 68 69 70 71 
72 73 74 75 76 77 78 79 80 
81 82 83 84 85 86 87 88 89 
90 91 92 93 94 95 96 97 98 
99 100 101 102 103 104 105 106 107 
108 109 110 111 112 113 114 115 116 
117 118 119 120 121 122 123 124 125 
126 127 128 129 130 131 132 133 134 
135 136 137 138 139 140 141 142 143 
144 145 146 147 148 149 150 151 152 
153 154 155 156 157 158 159 160 161 
162 163 164 165 166 167 168 169 170 
171 172 173 174 175 176 177 178 179 
180 181 182 183 184 185 186 187 188 
189 190 191 192 193 194 195 196 197 
198 199 200 201 202 203 204 205 206 
207 208 209 210 211 212 213 214 215 
216 217 218 219 220 221 222 223 224 
225 226 227 228 229 230 231 232 233 
234 235 236 237 238 239 240 241 242 
243 244 245 246 247 248 249 250 251 
252 253 254 255 256 257 258 259 260 
261 262 263 264 265 266 267 268 269 
270 271 272 273 274 275 276 277 278 
279 280 281 282 283 284 285 286 287 
288 289 290 291 292 293 294 295 296 
297 298 299 300 301 302 303 304 305 
306 307 308 309 310 311 312 313 314 
315 316 317 318 319 320 321 322 323 
324 325 326 327 328 329 330 331 332 
333 334 335 336 337 338 339 340 341 
342 343 344 345 346 347 348 349 350 
351 352 353 354 355 356 357 358 359 
360 361 362 363 364 365 366 367 368 
369 370 371 372 373 374 375 376 377 
378 379 380 381 382 383 384 385 386 
387 388 389 390 391 392 393 394 395 
396 397 398 399 400 401 402 403 404 
405 406 407 408 409 410 411 412 413 
414 415 416 417 418 419 420 421 422 
423 424 425 426 427 428 429 430 431 
432 433 434 435 436 437 438 439 440 
441 442 443 444 445 446 447 448 449 
450 451 452 453 454 455 456 457 458 
459 460 461 462 463 464 465 466 467 
468 469 470 471 472 473 474 475 476 
477 478 479 480 481 482 483 484 485 
486 487 488 489 490 491 492 493 494 
495 496 497 498 499 500 501 502 503 
504 505 506 507 508 509 510 511 512 
513 514 515 516 517 518 519 520 521 
522 523 524 525 526 527 528 529 530 
531 532 533 534 535 536 537 538 539 
540 541 542 543 544 545 546 547 548 
549 550 551 552 553 554 555 556 557 
558 559 560 561 562 563 564 565 566 
567 568 569 570 571 572 573 574 575 
576 577 578 579 580 581 582 583 584 
585 586 587 588 589 590 591 592 593 
594 595 596 597 598 599 600 601 602 
603 604 605 606 607 608 609 610 611 
612 613 614 615 616 617 618 619 620 
621 622 623 624 625 626 627 628 629 
630 631 632 633 634 635 636 637 638 
639 640 641 642 643 644 645 646 647 
648 
CONNECTIVITY vtktypeint64
0 1 2 3 4 5 6 7 8 
9 10 11 12 13 14 15 16 17 
18 19 20 21 22 23 24 25 26 
27 28 29 30 31 32 33 34 35 
36 37 38 39 40 41 42 43 44 
45 46 47 48 49 50 51 52 53 
54 55 56 57 58 59 60 61 62 
63 64 65 66 67 68 69 70 71 
72 73 74 75 76 77 78 79 80 
81 82 83 84 85 86 87 88 89 
90 91 92 93 94 95 96 97 98 
99 100 101 102 103 104 105 106 107 
108 109 110 111 112 113 114 115 116 
117 118 119 120 121 122 123 124 125 
126 127 128 129 130 131 132 133 134 
135 136 137 138 139 140 141 142 143 
144 145 146 147 148 149 150 151 152 
153 154 155 156 157 158 159 160 161 
162 163 164 165 166 167 168 169 170 
171 172 173 174 175 176 177 178 179 
180 181 182 183 184 185 186 187 188 
189 190 191 192 193 194 195 196 197 
198 199 200 201 202 203 204 205 206 
207 208 209 210 211 212 213 214 215 
216 217 218 219 220 221 222 223 224 
225 226 227 228 229 230 231 232 233 
234 235 236 237 238 239 240 241 242 
243 244 245 246 247 248 249 250 251 
252 253 254 255 256 257 258 259 260 
261 262 263 264 265 266 267 268 269 
270 271 272 273 274 275 276 277 278 
279 280 281 282 283 284 285 286 287 
288 289 290 291 292 293 294 295 296 
297 298 299 300 301 302 303 304 305 
306 307 308 309 310 311 312 313 314 
315 316 317 318 319 320 321 322 323 
324 325 326 327 328 329 330 331 332 
333 334 335 336 337 338 339 340 341 
342 343 344 345 346 347 348 349 350 
351 352 353 354 355 356 357 358 359 
360 361 362 363 364 365 366 367 368 
369 370 371 372 373 374 375 376 377 
378 379 380 381 382 383 384 385 386 
387 388 389 390 391 392 393 394 395 
396 397 398 399 400 401 402 403 404 
405 406 407 408 409 410 411 412 413 
414 415 416 417 418 419 420 421 422 
423 424 425 426 427 428 429 430 431 
432 433 434 435 436 437 438 439 440 
441 442 443 444 445 446 447 448 449 
450 451 452 453 454 455 456 457 458 
459 460 461 462 463 464 465 466 467 
468 469 470 471 472 473 474 475 476 
477 478 479 480 481 482 483 484 485 
486 487 488 489 490 491 492 493 494 
495 496 497 498 499 500 501 502 503 
504 505 506 507 508 509 510 511 512 
513 514 515 516 517 518 519 520 521 
522 523 524 525 526 527 528 529 530 
531 532 533 534 535 536 537 538 539 
540 541 542 543 544 545 546 547 548 
549 550 551 552 553 554 555 556 557 
558 559 560 561 562 563 564 565 566 
567 568 569 570 571 572 573 574 575 
576 577 578 579 580 581 582 583 584 
585 586 587 588 589 590 591 592 593 
594 595 596 597 598 599 600 601 602 
603 604 605 606 607 608 609 610 611 
612 613 614 615 616 617 618 619 620 
621 622 623 624 625 626 627 628 629 
630 631 632 633 634 635 636 637 638 
639 640 641 642 643 644 645 646 647 

POINT_DATA 648
FIELD FieldData 12
id 1 648 int
200 6 57 134 107 231 428 127 383 
197 169 26 270 362 164 115 291 176 
465 86 396 423 149 195 372 356 88 
381 336 370 11 385 219 12 185 247 
215 72 353 450 214 150 491 18 366 
459 190 106 125 418 165 373 189 187 
253 87 92 304 237 58 293 193 433 
364 14 83 322 339 166 9 280 158 
29 246 457 508 367 282 154 440 289 
483 186 458 407 49 506 386 256 331 
470 73 8 10 175 310 488 496 444 
66 36 297 233 13 317 292 132 100 
408 435 207 404 355 467 432 521 162 
321 327 85 22 347 137 167 427 515 
456 454 417 410 155 406 463 411 5 
290 500 349 263 478 60 40 337 529 
412 91 591 326 229 51 505 267 439 
16 399 424 4 21 110 163 222 559 
188 314 319 303 409 542 2 90 112 
261 601 54 104 199 318 351 98 589 
415 238 612 227 324 495 384 357 30 
298 168 240 638 248 32 486 288 587 
330 218 429 24 96 567 61 141 236 
161 536 76 275 113 390 35 122 183 
121 484 580 615 75 255 446 15 447 
504 328 271 34 645 223 64 479 553 
243 538 378 202 287 198 320 562 571 
543 576 174 211 377 196 129 308 498 
451 201 437 62 375 84 140 605 616 
28 157 311 341 474 401 119 178 148 
313 475 226 477 295 472 111 566 592 
216 520 343 81 623 577 549 128 526 
59 278 257 151 564 519 469 251 272 
346 414 146 299 20 208 613 546 63 
65 45 397 102 352 551 170 74 522 
334 244 17 395 392 431 394 206 268 
52 239 250 393 294 79 416 323 329 
572 628 260 53 252 171 142 205 56 
363 279 78 461 596 94 232 487 570 
618 462 38 511 265 528 144 420 325 
507 637 108 342 89 333 604 493 547 
617 563 42 368 425 345 273 117 109 
348 225 123 93 533 71 403 25 105 
360 371 204 217 379 213 633 622 509 
481 455 614 68 156 335 116 516 43 
1 405 565 305 545 301 426 266 540 
594 421 286 182 523 361 350 147 445 
430 573 460 135 70 281 524 31 471 
489 448 558 380 599 285 212 593 126 
138 130 254 139 532 276 124 221 179 
466 579 476 635 82 354 527 449 376 
340 3 50 77 153 453 338 296 480 
442 181 315 7 180 482 413 302 639 
55 597 210 359 436 518 525 300 598 
503 316 561 114 550 438 258 136 160 
274 143 374 194 585 557 499 501 145 
443 33 332 583 99 626 47 177 517 
441 23 80 46 41 560 607 191 309 
434 586 159 344 634 307 103 548 502 
234 539 284 245 620 220 209 312 402 
388 69 629 513 44 490 497 595 48 
358 228 118 485 452 242 398 603 422 
468 473 131 387 283 120 578 530 259 
101 365 389 262 625 97 269 494 391 
172 203 173 192 306 39 464 152 514 
534 230 492 581 37 590 554 95 27 
224 133 382 610 400 419 249 277 241 
648 67 264 569 647 184 369 235 19 
510 611 552 630 512 643 535 632 608 
646 600 555 541 537 644 556 609 531 
575 574 619 624 606 631 602 636 544 
568 588 640 641 582 584 627 642 621 

type 1 648 int
1 2 1 1 1 1 1 1 1 
1 1 1 1 1 1 1 1 1 
1 1 1 1 1 1 1 1 1 
1 1 1 2 1 1 2 1 1 
1 1 1 1 1 1 1 1 1 
1 1 1 1 1 1 1 1 1 
1 1 1 1 1 1 1 1 1 
1 2 1 1 1 1 2 1 1 
1 1 1 1 1 1 1 1 1 
1 1 1 1 1 1 1 1 1 
1 1 2 2 1 1 1 1 1 
1 1 1 1 2 1 1 1 1 
1 1 1 1 1 1 1 1 1 
1 1 1 1 1 1 1 1 1 
1 1 1 1 1 1 1 1 2 
1 1 1 1 1 1 1 1 1 
1 1 1 1 1 1 1 1 1 
2 1 1 2 1 1 1 1 1 
1 1 1 1 1 1 3 1 1 
1 1 1 1 1 1 1 1 1 
1 1 1 1 1 1 1 1 1 
1 1 1 1 1 1 1 1 1 
1 1 1 1 1 1 1 1 1 
1 1 1 1 1 1 1 1 1 
1 1 1 1 1 1 1 2 1 
1 1 1 1 1 1 1 1 1 
1 1 1 1 1 1 1 1 1 
1 1 1 1 1 1 1 1 1 
1 1 1 1 1 1 1 1 1 
1 1 1 1 1 1 1 1 1 
1 1 1 1 1 1 1 1 1 
1 1 1 1 1 1 1 1 1 
1 1 1 1 1 1 1 1 1 
1 1 1 1 1 1 1 1 1 
1 1 1 1 1 1 1 1 1 
1 1 1 1 1 1 1 1 1 
1 1 1 1 1 1 1 1 1 
1 1 1 1 1 1 1 1 1 
1 1 1 1 1 1 1 1 1 
1 1 1 1 1 1 1 1 1 
1 1 1 1 1 1 1 1 1 
1 1 1 1 1 1 1 1 1 
1 1 1 1 1 1 1 1 1 
1 1 1 1 1 1 1 1 1 
1 1 1 1 1 1 1 2 1 
4 1 1 1 1 1 1 1 1 
1 1 1 1 1 1 1 1 1 
1 1 1 1 1 1 1 1 1 
1 1 1 1 1 1 1 1 1 
1 1 1 1 1 1 1 1 1 
1 1 1 1 1 1 1 1 1 
1 2 1 1 1 1 1 1 1 
1 1 1 2 1 1 1 1 1 
1 1 1 1 1 1 1 1 1 
1 1 1 1 1 1 1 1 1 
1 1 1 1 1 1 1 1 1 
1 1 1 1 1 1 1 1 1 
1 1 1 1 1 1 1 1 1 
1 1 1 1 2 1 1 1 1 
1 1 1 1 1 1 1 1 1 
1 1 1 1 1 1 1 1 1 
1 1 1 1 1 1 1 1 1 
1 1 1 1 1 1 1 1 1 
1 1 1 1 1 1 1 1 1 
1 1 1 1 1 1 1 1 1 
1 1 1 1 1 1 1 1 1 
1 1 1 1 1 1 1 1 1 
1 1 1 1 1 1 1 1 1 
1 1 1 1 2 1 1 1 1 
1 1 1 1 1 1 1 1 1 
1 1 1 1 1 1 1 1 1 
1 1 1 1 1 1 1 1 1 

i 3 648 int
0 0 0 0 0 0 0 0 0 
0 0 0 0 0 0 0 0 0 
0 0 0 0 0 0 0 0 0 
0 0 0 0 0 0 0 0 0 
0 0 0 0 0 0 0 0 0 
0 0 0 0 0 0 0 0 0 
0 0 0 0 0 0 0 0 0 
0 0 0 0 0 0 0 0 0 
0 0 0 0 0 0 0 0 0 
0 0 0 0 0 0 0 0 0 
0 0 0 0 0 0 0 0 0 
0 0 0 0 0 0 0 0 0 
0 0 0 0 0 0 0 0 0 
0 0 0 0 0 0 0 0 0 
0 0 0 0 0 0 0 0 0 
0 0 0 0 0 0 0 0 0 
0 0 0 0 0 0 0 0 0 
0 0 0 0 0 0 0 0 0 
0 0 0 0 0 0 0 0 0 
0 0 0 0 0 0 0 0 0 
0 0 0 0 0 0 0 0 0 
0 0 0 0 0 0 0 0 0 
0 0 0 0 0 0 0 0 0 
0 0 0 0 0 0 0 0 0 
0 0 0 0 0 0 0 0 0 
0 0 0 0 0 0 0 0 0 
0 0 0 0 0 0 0 0 0 
0 0 0 0 0 0 0 0 0 
0 0 0 0 0 0 0 0 0 
0 0 0 0 0 0 0 0 0 
0 0 0 0 0 0 0 0 0 
0 0 0 0 0 0 0 0 0 
0 0 0 0 0 0 0 0 0 
0 0 0 0 0 0 0 0 0 
0 0 0 0 0 0 0 0 0 
0 0 0 0 0 0 0 0 0 
0 0 0 0 0 0 0 0 0 
0 0 0 0 0 0 0 0 0 
0 0 0 0 0 0 0 0 0 
0 0 0 0 0 0 0 0 0 
0 0 0 0 0 0 0 0 0 
0 0 0 0 0 0 0 0 0 
0 0 0 0 0 0 0 0 0 
0 0 0 0 0 0 0 0 0 
0 0 0 0 0 0 0 0 0 
0 0 0 0 0 0 0 0 0 
0 0 0 0 0 0 0 0 0 
0 0 0 0 0 0 0 0 0 
0 0 0 0 0 0 0 0 0 
0 0 0 0 0 0 0 0 0 
0 0 0 0 0 0 0 0 0 
0 0 0 0 0 0 0 0 0 
0 0 0 0 0 0 0 0 0 
0 0 0 0 0 0 0 0 0 
0 0 0 0 0 0 0 0 0 
0 0 0 0 0 0 0 0 0 
0 0 0 0 0 0 0 0 0 
0 0 0 0 0 0 0 0 0 
0 0 0 0 0 0 0 0 0 
0 0 0 0 0 0 0 0 0 
0 0 0 0 0 0 0 0 0 
0 0 0 0 0 0 0 0 0 
0 0 0 0 0 0 0 0 0 
0 0 0 0 0 0 0 0 0 
0 0 0 0 0 0 0 0 0 
0 0 0 0 0 0 0 0 0 
0 0 0 0 0 0 0 0 0 
0 0 0 0 0 0 0 0 0 
0 0 0 0 0 0 0 0 0 
0 0 0 0 0 0 0 0 0 
0 0 0 0 0 0 0 0 0 
0 0 0 0 0 0 0 0 0 
0 0 0 0 0 0 0 0 0 
0 0 0 0 0 0 0 0 0 
0 0 0 0 0 0 0 0 0 
0 0 0 0 0 0 0 0 0 
0 0 0 0 0 0 0 0 0 
0 0 0 0 0 0 0 0 0 
0 0 0 0 0 0 0 0 0 
0 0 0 0 0 0 0 0 0 
0 0 0 0 0 0 0 0 0 
0 0 0 0 0 0 0 0 0 
0 0 0 0 0 0 0 0 0 
0 0 0 0 0 0 0 0 0 
0 0 0 0 0 0 0 0 0 
0 0 0 0 0 0 0 0 0 
0 0 0 0 0 0 0 0 0 
0 0 0 0 0 0 0 0 0 
0 0 0 0 0 0 0 0 0 
0 0 0 0 0 0 0 0 0 
0 0 0 0 0 0 0 0 0 
0 0 0 0 0 0 0 0 0 
0 0 0 0 0 0 0 0 0 
0 0 0 0 0 0 0 0 0 
0 0 0 0 0 0 0 0 0 
0 0 0 0 0 0 0 0 0 
0 0 0 0 0 0 0 0 0 
0 0 0 0 0 0 0 0 0 
0 0 0 0 0 0 0 0 0 
0 0 0 0 0 0 0 0 0 
0 0 0 0 0 0 0 0 0 
0 0 0 0 0 0 0 0 0 
0 0 0 0 0 0 0 0 0 
0 0 0 0 0 0 0 0 0 
0 0 0 0 0 0 0 0 0 
0 0 0 0 0 0 0 0 0 
0 0 0 0 0 0 0 0 0 
0 0 0 0 0 0 0 0 0 
0 0 0 0 0 0 0 0 0 
0 0 0 0 0 0 0 0 0 
0 0 0 0 0 0 0 0 0 
0 0 0 0 0 0 0 0 0 
0 0 0 0 0 0 0 0 0 
0 0 0 0 0 0 0 0 0 
0 0 0 0 0 0 0 0 0 
0 0 0 0 0 0 0 0 0 
0 0 0 0 0 0 0 0 0 
0 0 0 0 0 0 0 0 0 
0 0 0 0 0 0 0 0 0 
0 0 0 0 0 0 0 0 0 
0 0 0 0 0 0 0 0 0 
0 0 0 0 0 0 0 0 0 
0 0 0 0 0 0 0 0 0 
0 0 0 0 0 0 0 0 0 
0 0 0 0 0 0 0 0 0 
0 0 0 0 0 0 0 0 0 
0 0 0 0 0 0 0 0 0 
0 0 0 0 0 0 0 0 0 
0 0 0 0 0 0 0 0 0 
0 0 0 0 0 0 0 0 0 
0 0 0 0 0 0 0 0 0 
0 0 0 0 0 0 0 0 0 
0 0 0 0 0 0 0 0 0 
0 0 0 0 0 0 0 0 0 
0 0 0 0 0 0 0 0 0 
0 0 0 0 0 0 0 0 0 
0 0 0 0 0 0 0 0 0 
0 0 0 0 0 0 0 0 0 
0 0 0 0 0 0 0 0 0 
0 0 0 0 0 0 0 0 0 
0 0 0 0 0 0 0 0 0 
0 0 0 0 0 0 0 0 0 
0 0 0 0 0 0 0 0 0 
0 0 0 0 0 0 0 0 0 
0 0 0 0 0 0 0 0 0 
0 0 0 0 0 0 0 0 0 
0 0 0 0 0 0 0 0 0 
0 0 0 0 0 0 0 0 0 
0 0 0 0 0 0 0 0 0 
0 0 0 0 0 0 0 0 0 
0 0 0 0 0 0 0 0 0 
0 0 0 0 0 0 0 0 0 
0 0 0 0 0 0 0 0 0 
0 0 0 0 0 0 0 0 0 
0 0 0 0 0 0 0 0 0 
0 0 0 0 0 0 0 0 0 
0 0 0 0 0 0 0 0 0 
0 0 0 0 0 0 0 0 0 
0 0 0 0 0 0 0 0 0 
0 0 0 0 0 0 0 0 0 
0 0 0 0 0 0 0 0 0 
0 0 0 0 0 0 0 0 0 
0 0 0 0 0 0 0 0 0 
0 0 0 0 0 0 0 0 0 
0 0 0 0 0 0 0 0 0 
0 0 0 0 0 0 0 0 0 
0 0 0 0 0 0 0 0 0 
0 0 0 0 0 0 0 0 0 
0 0 0 0 0 0 0 0 0 
0 0 0 0 0 0 0 0 0 
0 0 0 0 0 0 0 0 0 
0 0 0 0 0 0 0 0 0 
0 0 0 0 0 0 0 0 0 
0 0 0 0 0 0 0 0 0 
0 0 0 0 0 0 0 0 0 
0 0 0 0 0 0 0 0 0 
0 0 0 0 0 0 0 0 0 
0 0 0 0 0 0 0 0 0 
0 0 0 0 0 0 0 0 0 
0 0 0 0 0 0 0 0 0 
0 0 0 0 0 0 0 0 0 
0 0 0 0 0 0 0 0 0 
0 0 0 0 0 0 0 0 0 
0 0 0 0 0 0 0 0 0 
0 0 0 0 0 0 0 0 0 
0 0 0 0 0 0 0 0 0 
0 0 0 0 0 0 0 0 0 
0 0 0 0 0 0 0 0 0 
0 0 0 0 0 0 0 0 0 
0 0 0 0 0 0 0 0 0 
0 0 0 0 0 0 0 0 0 
0 0 0 0 0 0 0 0 0 
0 0 0 0 0 0 0 0 0 
0 0 0 0 0 0 0 0 0 
0 0 0 0 0 0 0 0 0 
0 0 0 0 0 0 0 0 0 
0 0 0 0 0 0 0 0 0 
0 0 0 0 0 0 0 0 0 
0 0 0 0 0 0 0 0 0 
0 0 0 0 0 0 0 0 0 
0 0 0 0 0 0 0 0 0 
0 0 0 0 0 0 0 0 0 
0 0 0 0 0 0 0 0 0 
0 0 0 0 0 0 0 0 0 
0 0 0 0 0 0 0 0 0 
0 0 0 0 0 0 0 0 0 
0 0 0 0 0 0 0 0 0 
0 0 0 0 0 0 0 0 0 
0 0 0 0 0 0 0 0 0 
0 0 0 0 0 0 0 0 0 
0 0 0 0 0 0 0 0 0 
0 0 0 0 0 0 0 0 0 
0 0 0 0 0 0 0 0 0 
0 0 0 0 0 0 0 0 0 
0 0 0 0 0 0 0 0 0 
0 0 0 0 0 0 0 0 0 

v 3 648 double
0 0 -0.2609991875 0 0 -0.2609991875 0 0 -0.2609991875 
0 0 -0.2609991875 0 0 -0.2609991875 0 0 -0.2609991875 
0 0 -0.2609991875 0 0 -0.2609991875 0 0 -0.2609991875 
0 0 -0.2609991875 0 0 -0.2609991875 0 0 -0.2609991875 
0 0 -0.2609991875 0 0 -0.2609991875 0 0 -0.2609991875 
0 0 -0.2609991875 0 0 -0.2609991875 0 0 -0.2609991875 
0 0 -0.2609991875 0 0 -0.2609991875 0 0 -0.2609991875 
0 0 -0.2609991875 0 0 -0.2609991875 0 0 -0.2609991875 
0 0 -0.2609991875 0 0 -0.2609991875 0 0 -0.2609991875 
0 0 -0.2609991875 0 0 -0.2609991875 0 0 -0.2609991875 
0 0 -0.2609991875 0 0 -0.2609991875 0 0 -0.2609991875 
0 0 -0.2609991875 0 0 -0.2609991875 0 0 -0.2609991875 
0 0 -0.2609991875 0 0 -0.2609991875 0 0 -0.2609991875 
0 0 -0.2609991875 0 0 -0.2609991875 0 0 -0.2609991875 
0 0 -0.2609991875 0 0 -0.2609991875 0 0 -0.2609991875 
0 0 -0.2609991875 0 0 -0.2609991875 0 0 -0.2609991875 
0 0 -0.2609991875 0 0 -0.2609991875 0 0 -0.2609991875 
0 0 -0.2609991875 0 0 -0.2609991875 0 0 -0.2609991875 
0 0 -0.2609991875 0 0 -0.2609991875 0 0 -0.2609991875 
0 0 -0.2609991875 0 0 -0.2609991875 0 0 -0.2609991875 
0 0 -0.2609991875 0 0 -0.2609991875 0 0 -0.2609991875 
0 0 -0.2609991875 0 0 -0.2609991875 0 0 -0.2609991875 
0 0 -0.2609991875 0 0 -0.2609991875 0 0 -0.2609991875 
0 0 -0.2609991875 0 0 -0.2609991875 0 0 -0.2609991875 
0 0 -0.2609991875 0 0 -0.2609991875 0 0 -0.2609991875 
0 0 -0.2057491875 0 0 -0.2609991875 0 0 -0.2609991875 
0 0 -0.2609991875 0 0 -0.2609991875 0 0 -0.2609991875 
0 0 -0.2609991875 0 0 -0.2609991875 0 0 -0.2609991875 
0 0 -0.2609991875 0 0 -0.2609991875 0 0 -0.2057491875 
0 0 -0.2609991875 0 0 -0.2609991875 0 0 -0.2609991875 
0 0 -0.2609991875 0 0 -0.2609991875 0 0 -0.2609991875 
0 0 -0.2609991875 0 0 -0.2609991875 0 0 -0.2609991875 
0 0 -0.2609991875 0 0 -0.2609991875 0 0 -0.2609991875 
0 0 -0.2609991875 0 0 -0.2609991875 0 0 -0.2609991875 
0 0 -0.2609991875 0 0 -0.2609991875 0 0 -0.2609991875 
0 0 -0.2609991875 0 0 -0.2609991875 0 0 -0.2609991875 
0 0 -0.2609991875 0 0 -0.2609991875 0 0 -0.2609991875 
0 0 -0.2609991875 0 0 -0.2609991875 0 0 -0.2609991875 
0 0 -0.2609991875 0 0 -0.1732491875 0 0 -0.2609991875 
0 0 -0.2609991875 0 0 -0.2609991875 0 0 -0.2609991875 
0 0 -0.2609991875 0 0 -0.2609991875 0 0 -0.2609991875 
0 0 -0.2609991875 0 0 -0.2609991875 0 0 -0.1862491875 
0 0 -0.2609991875 0 0 -0.2609991875 0 0 -0.2609991875 
0 0 -0.2609991875 0 0 -0.2609991875 0 0 -0.2609991875 
0 0 -0.2609991875 0 0 -0.2609991875 0 0 -0.2609991875 
0 0 -0.2609991875 0 0 -0.2609991875 0 0 -0.2609991875 
0 0 -0.2609991875 0 0 -0.2609991875 0 0 -0.2609991875 
0 0 -0.2609991875 0 0 -0.2609991875 0 0 -0.1569991875 
0 0 -0.2609991875 0 0 -0.2609991875 0 0 -0.0724991875 
0 0 -0.2609991875 0 0 -0.2609991875 0 0 -0.2609991875 
0 0 -0.2252491875 0 0 -0.2609991875 0 0 -0.2609991875 
0 0 -0.2609991875 0 0 -0.2609991875 0 0 -0.2609991875 
0 0 -0.2609991875 0 0 -0.2609991875 0 0 -0.2609991875 
0 0 -0.2609991875 0 0 -0.2609991875 0 0 -0.1114991875 
0 0 -0.2609991875 0 0 -0.2609991875 0 0 -0.2609991875 
0 0 -0.2609991875 0 0 -0.2609991875 0 0 -0.1309991875 
0 0 -0.2609991875 0 0 -0.2609991875 0 0 -0.2609991875 
0 0 -0.2609991875 0 0 -0.0562491875 0 0 -0.2609991875 
0 0 -0.2609991875 0 0 -0.2609991875 0 0 -0.2609991875 
0 0 -0.2609991875 0 0 -0.2609991875 0 0 -0.0724991875 
0 0 -0.2609991875 0 0 -0.2609991875 0 0 -0.0399991875 
0 0 -0.2609991875 0 0 -0.2609991875 0 0 -0.2609991875 
0 0 -0.2609991875 0 0 -0.2609991875 0 0 -0.2609991875 
0 0 -0.2609991875 0 0 -0.2609991875 0 0 -0.2609991875 
0 0 -0.0204991875 0 0 -0.2609991875 0 0 -0.2609991875 
0 0 -0.2609991875 0 0 -0.2609991875 0 0 -0.0757491875 
0 0 -0.2609991875 0 0 -0.2609991875 0 0 -0.2609991875 
0 0 -0.2609991875 0 0 -0.2609991875 0 0 -0.0984991875 
0 0 -0.2609991875 0 0 -0.2609991875 0 0 -0.2609991875 
0 0 -0.2609991875 0 0 -0.1407491875 0 0 -0.2609991875 
0 0 -0.2609991875 0 0 -0.2609991875 0 0 -0.2609991875 
0 0 -0.2609991875 0 0 -0.2609991875 0 0 -0.2609991875 
0 0 -0.2609991875 0 0 -0.2609991875 0 0 -0.0822491875 
0 0 -0.0399991875 0 0 -0.2609991875 0 0 -0.2609991875 
0 0 -0.2609991875 0 0 -0.2609991875 0 0 -0.2609991875 
0 0 -0.2284991875 0 0 -0.2609991875 0 0 -0.2609991875 
0 0 -0.2609991875 0 0 -0.0172491875 0 0 -0.2609991875 
0 0 -0.2609991875 0 0 -0.2609991875 0 0 -0.1179991875 
0 0 -0.2609991875 0 0 -0.1374991875 0 0 -0.2609991875 
0 0 -0.2609991875 0 0 -0.2609991875 0 0 -0.2609991875 
0 0 -0.2609991875 0 0 -0.1082491875 0 0 -0.0919991875 
0 0 -0.1309991875 0 0 -0.0854991875 0 0 -0.2609991875 
0 0 -0.2609991875 0 0 -0.2609991875 0 0 -0.2609991875 
0 0 -0.2609991875 0 0 -0.2609991875 0 0 -0.2609991875 
0 0 -0.2609991875 0 0 -0.2609991875 0 0 -0.2609991875 
0 0 -0.2609991875 0 0 -0.2609991875 0 0 -0.2609991875 
0 0 -0.2609991875 0 0 -0.0529991875 0 0 -0.0367491875 
0 0 -0.2609991875 0 0 -0.2609991875 0 0 -0.2609991875 
0 0 -0.2609991875 0 0 -0.2609991875 0 0 -0.2609991875 
0 0 -0.2609991875 0 0 -0.2609991875 0 0 -0.2609991875 
0 0 -0.2609991875 0 0 -0.2609991875 0 0 -0.2609991875 
0 0 -0.2609991875 0 0 -0.2609991875 0 0 -0.2609991875 
0 0 -0.2609991875 0 0 -0.0984991875 0 0 -0.0692491875 
0 0 -0.2609991875 0 0 -0.1764991875 0 0 -0.2609991875 
0 0 -0.2609991875 0 0 -0.0302491875 0 0 -0.0854991875 
0 0 -0.1212491875 0 0 -0.2609991875 0 0 -0.1602491875 
0 0 -0.2609991875 0 0 -0.2609991875 0 0 -0.2609991875 
0 0 -0.2609991875 0 0 -0.1017491875 0 0 -0.1764991875 
0 0 -0.2609991875 0 0 -0.2609991875 0 0 -0.2609991875 
0 0 -0.2609991875 0 0 -0.2609991875 0 0 -0.2609991875 
0 0 -0.2609991875 0 0 -0.2609991875 0 0 -0.2609991875 
0 0 -0.0399991875 0 0 -0.1244991875 0 0 -0.2609991875 
0 0 -0.2609991875 0 0 -0.2609991875 0 0 -0.2609991875 
0 0 -0.2609991875 0 0 -0.2609991875 0 0 -0.1179991875 
0 0 -0.2609991875 0 0 -0.2609991875 0 0 -0.1732491875 
0 0 -0.2609991875 0 0 -0.2609991875 0 0 -0.2609991875 
0 0 -0.2609991875 0 0 -0.2609991875 0 0 -0.2609991875 
0 0 -0.2609991875 0 0 -0.2609991875 0 0 -0.2609991875 
0 0 -0.2609991875 0 0 -0.2609991875 0 0 -0.2609991875 
0 0 -0.2609991875 0 0 -0.2609991875 0 0 -0.2609991875 
0 0 -0.2609991875 0 0 -0.2609991875 0 0 -0.2609991875 
0 0 -0.0919991875 0 0 -0.0302491875 0 0 -0.2609991875 
0 0 -0.2609991875 0 0 -0.2609991875 0 0 -0.2609991875 
0 0 -0.2609991875 0 0 -0.2609991875 0 0 -0.2609991875 
0 0 -0.2609991875 0 0 -0.2609991875 0 0 -0.2609991875 
0 0 -0.2609991875 0 0 -0.0627491875 0 0 -0.2609991875 
0 0 -0.2609991875 0 0 -0.2609991875 0 0 -0.0919991875 
0 0 -0.0367491875 0 0 -0.2609991875 0 0 -0.2609991875 
0 0 -0.1992491875 0 0 -0.2609991875 0 0 -0.1569991875 
0 0 -0.2609991875 0 0 -0.2609991875 0 0 -0.2609991875 
0 0 -0.2057491875 0 0 -0.0237491875 0 0 -0.2609991875 
0 0 -0.2609991875 0 0 -0.2609991875 0 0 -0.2609991875 
0 0 -0.0529991875 0 0 -0.2609991875 0 0 -0.1244991875 
0 0 -0.0367491875 0 0 -0.1049991875 0 0 -0.2609991875 
0 0 -0.2609991875 0 0 -0.2609991875 0 0 -0.2609991875 
0 0 -0.2609991875 0 0 -0.2609991875 0 0 -0.2609991875 
0 0 -0.2609991875 0 0 -0.2609991875 0 0 -0.2609991875 
0 0 -0.2609991875 0 0 -0.1439991875 0 0 -0.2609991875 
0 0 -0.2609991875 0 0 -0.2609991875 0 0 -0.2609991875 
0 0 -0.2609991875 0 0 -0.2609991875 0 0 -0.2609991875 
0 0 -0.2609991875 0 0 -0.2609991875 0 0 -0.2609991875 
0 0 -0.0269991875 0 0 -0.0334991875 0 0 -0.1992491875 
0 0 -0.2609991875 0 0 -0.2609991875 0 0 -0.0399991875 
0 0 -0.2609991875 0 0 -0.2609991875 0 0 -0.2609991875 
0 0 -0.2609991875 0 0 -0.1829991875 0 0 -0.2609991875 
0 0 -0.2609991875 0 0 -0.2609991875 0 0 -0.1017491875 
0 0 -0.2609991875 0 0 -0.1277491875 0 0 -0.2609991875 
0 0 -0.2609991875 0 0 -0.2609991875 0 0 -0.1342491875 
0 0 -0.0659991875 0 0 -0.2609991875 0 0 -0.2609991875 
0 0 -0.2609991875 0 0 -0.1699991875 0 0 -0.2609991875 
0 0 -0.2609991875 0 0 -0.2609991875 0 0 -0.2609991875 
0 0 -0.2609991875 0 0 -0.0887491875 0 0 -0.2609991875 
0 0 -0.2609991875 0 0 -0.2609991875 0 0 -0.2609991875 
0 0 -0.1699991875 0 0 -0.2609991875 0 0 -0.2609991875 
0 0 -0.2609991875 0 0 -0.2609991875 0 0 -0.1114991875 
0 0 -0.2609991875 0 0 -0.0594991875 0 0 -0.2609991875 
0 0 -0.2609991875 0 0 -0.0659991875 0 0 -0.2609991875 
0 0 -0.2609991875 0 0 -0.2609991875 0 0 -0.2609991875 
0 0 -0.2609991875 0 0 -0.1472491875 0 0 -0.2609991875 
0 0 -0.2609991875 0 0 -0.2609991875 0 0 -0.2609991875 
0 0 -0.2609991875 0 0 -0.0822491875 0 0 -0.2609991875 
0 0 -0.0237491875 0 0 -0.2609991875 0 0 -0.2609991875 
0 0 -0.1602491875 0 0 -0.2609991875 0 0 -0.2609991875 
0 0 -0.2609991875 0 0 -0.2609991875 0 0 -0.2609991875 
0 0 -0.2609991875 0 0 -0.2609991875 0 0 -0.2609991875 
0 0 -0.2609991875 0 0 -0.2609991875 0 0 -0.2609991875 
0 0 -0.2609991875 0 0 -0.2609991875 0 0 -0.2609991875 
0 0 -0.2609991875 0 0 -0.2609991875 0 0 -0.2609991875 
0 0 -0.2609991875 0 0 -0.2609991875 0 0 -0.0204991875 
0 0 -0.2609991875 0 0 -0.0627491875 0 0 -0.2609991875 
0 0 -0.2609991875 0 0 -0.2609991875 0 0 -0.1829991875 
0 0 -0.1634991875 0 0 -0.2609991875 0 0 -0.0627491875 
0 0 -0.2414991875 0 0 -0.2609991875 0 0 -0.1082491875 
0 0 -0.2609991875 0 0 -0.1212491875 0 0 -0.2609991875 
0 0 -0.2609991875 0 0 -0.2609991875 0 0 -0.2609991875 
0 0 -0.2609991875 0 0 -0.2609991875 0 0 -0.2609991875 
0 0 -0.2609991875 0 0 -0.0789991875 0 0 -0.1114991875 
0 0 -0.2609991875 0 0 -0.2479991875 0 0 -0.2609991875 
0 0 -0.2609991875 0 0 -0.2609991875 0 0 -0.2609991875 
0 0 -0.0789991875 0 0 -0.2609991875 0 0 -0.0302491875 
0 0 -0.2609991875 0 0 -0.2609991875 0 0 -0.1829991875 
0 0 -0.2609991875 0 0 -0.2609991875 0 0 -0.2609991875 
0 0 -0.2609991875 0 0 -0.2609991875 0 0 -0.1082491875 
0 0 -0.0497491875 0 0 -0.2609991875 0 0 -0.2609991875 
0 0 -0.2609991875 0 0 -0.0757491875 0 0 -0.2609991875 
0 0 -0.2609991875 0 0 -0.0237491875 0 0 -0.2609991875 
0 0 -0.2609991875 0 0 -0.1212491875 0 0 -0.2479991875 
0 0 -0.2609991875 0 0 -0.1342491875 0 0 -0.2609991875 
0 0 -0.2609991875 0 0 -0.0334991875 0 0 -0.2609991875 
0 0 -0.2609991875 0 0 -0.2609991875 0 0 -0.2609991875 
0 0 -0.2609991875 0 0 -0.2609991875 0 0 -0.0302491875 
0 0 -0.1927491875 0 0 -0.2609991875 0 0 -0.2609991875 
0 0 -0.2609991875 0 0 -0.0659991875 0 0 -0.2609991875 
0 0 -0.2609991875 0 0 -0.2609991875 0 0 -0.2609991875 
0 0 -0.2609991875 0 0 -0.2609991875 0 0 -0.2609991875 
0 0 -0.2609991875 0 0 -0.0529991875 0 0 -0.2609991875 
0 0 -0.2609991875 0 0 -0.2609991875 0 0 -0.2609991875 
0 0 -0.2609991875 0 0 -0.2609991875 0 0 -0.2609991875 
0 0 -0.0822491875 0 0 -0.1504991875 0 0 -0.2609991875 
0 0 -0.2609991875 0 0 -0.2609991875 0 0 -0.2609991875 
0 0 -0.2609991875 0 0 -0.0302491875 0 0 -0.2609991875 
0 0 -0.2609991875 0 0 -0.2609991875 0 0 -0.2609991875 
0 0 -0.2609991875 0 0 -0.2609991875 0 0 -0.2609991875 
0 0 -0.2609991875 0 0 -0.2609991875 0 0 -0.2609991875 
0 0 -0.2609991875 0 0 -0.2609991875 0 0 -0.1927491875 
0 0 -0.1439991875 0 0 -0.2609991875 0 0 -0.2609991875 
0 0 -0.0822491875 0 0 -0.2609991875 0 0 -0.0724991875 
0 0 -0.1147491875 0 0 -0.2609991875 0 0 -0.2609991875 
0 0 -0.2609991875 0 0 -0.2609991875 0 0 -0.2609991875 
0 0 -0.0464991875 0 0 -0.2609991875 0 0 -0.2609991875 
0 0 -0.2609991875 0 0 -0.2609991875 0 0 -0.2609991875 
0 0 -0.0172491875 0 0 -0.2609991875 0 0 -0.2609991875 
0 0 -0.0919991875 0 0 -0.0172491875 0 0 -0.2609991875 
0 0 -0.2609991875 0 0 -0.2609991875 0 0 -0.2609991875 
0 0 -0.1992491875 0 0 -0.0432491875 0 0 -0.1179991875 
0 0 -0.0302491875 0 0 -0.1927491875 0 0 -0.0172491875 
0 0 -0.1407491875 0 0 -0.0269991875 0 0 -0.0497491875 
0 0 -0.0172491875 0 0 -0.0562491875 0 0 -0.1147491875 
0 0 -0.1342491875 0 0 -0.1407491875 0 0 -0.0172491875 
0 0 -0.1147491875 0 0 -0.0464991875 0 0 -0.1504991875 
0 0 -0.0887491875 0 0 -0.0887491875 0 0 -0.0334991875 
0 0 -0.0302491875 0 0 -0.0529991875 0 0 -0.0269991875 
0 0 -0.0529991875 0 0 -0.0237491875 0 0 -0.1309991875 
0 0 -0.0952491875 0 0 -0.0757491875 0 0 -0.0204991875 
0 0 -0.0204991875 0 0 -0.0789991875 0 0 -0.0789991875 
0 0 -0.0302491875 0 0 -0.0172491875 0 0 -0.0334991875 

f 3 648 double
0 0 -1.7425367252e-10 0 0 -8.9019973083e-09 0 0 -1.7425367252e-10 
0 0 -1.7425367252e-10 0 0 -1.7425367252e-10 0 0 -1.7425367252e-10 
0 0 -1.7425367252e-10 0 0 -1.7425367252e-10 0 0 -1.7425367252e-10 
0 0 -1.7425367252e-10 0 0 -1.7425367252e-10 0 0 -1.7425367252e-10 
0 0 -1.7425367252e-10 0 0 -1.7425367252e-10 0 0 -1.7425367252e-10 
0 0 -1.7425367252e-10 0 0 -1.7425367252e-10 0 0 -1.7425367252e-10 
0 0 -1.7425367252e-10 0 0 -1.7425367252e-10 0 0 -1.7425367252e-10 
0 0 -1.7425367252e-10 0 0 -1.7425367252e-10 0 0 -1.7425367252e-10 
0 0 -1.7425367252e-10 0 0 -1.7425367252e-10 0 0 -1.7425367252e-10 
0 0 -1.7425367252e-10 0 0 -1.7425367252e-10 0 0 -1.7425367252e-10 
0 0 -8.9019973083e-09 0 0 -1.7425367252e-10 0 0 -1.7425367252e-10 
0 0 -8.9019973083e-09 0 0 -1.7425367252e-10 0 0 -1.7425367252e-10 
0 0 -1.7425367252e-10 0 0 -1.7425367252e-10 0 0 -1.7425367252e-10 
0 0 -1.7425367252e-10 0 0 -1.7425367252e-10 0 0 -1.7425367252e-10 
0 0 -1.7425367252e-10 0 0 -1.7425367252e-10 0 0 -1.7425367252e-10 
0 0 -1.7425367252e-10 0 0 -1.7425367252e-10 0 0 -1.7425367252e-10 
0 0 -1.7425367252e-10 0 0 -1.7425367252e-10 0 0 -1.7425367252e-10 
0 0 -1.7425367252e-10 0 0 -1.7425367252e-10 0 0 -1.7425367252e-10 
0 0 -1.7425367252e-10 0 0 -1.7425367252e-10 0 0 -1.7425367252e-10 
0 0 -1.7425367252e-10 0 0 -1.7425367252e-10 0 0 -1.7425367252e-10 
0 0 -1.7425367252e-10 0 0 -1.7425367252e-10 0 0 -1.7425367252e-10 
0 0 -1.7425367252e-10 0 0 -8.9019973083e-09 0 0 -1.7425367252e-10 
0 0 -1.7425367252e-10 0 0 -1.7425367252e-10 0 0 -1.7425367252e-10 
0 0 -8.9019973083e-09 0 0 -1.7425367252e-10 0 0 -1.7425367252e-10 
0 0 -1.7425367252e-10 0 0 -1.7425367252e-10 0 0 -1.7425367252e-10 
0 0 -1.7425367252e-10 0 0 -1.7425367252e-10 0 0 -1.7425367252e-10 
0 0 -1.7425367252e-10 0 0 -1.7425367252e-10 0 0 -1.7425367252e-10 
0 0 -1.7425367252e-10 0 0 -1.7425367252e-10 0 0 -1.7425367252e-10 
0 0 -1.7425367252e-10 0 0 -1.7425367252e-10 0 0 -1.7425367252e-10 
0 0 -1.7425367252e-10 0 0 -1.7425367252e-10 0 0 -1.7425367252e-10 
0 0 -1.7425367252e-10 0 0 -1.7425367252e-10 0 0 -8.9019973083e-09 
0 0 -8.9019973083e-09 0 0 -1.7425367252e-10 0 0 -1.7425367252e-10 
0 0 -1.7425367252e-10 0 0 -1.7425367252e-10 0 0 -1.7425367252e-10 
0 0 -1.7425367252e-10 0 0 -1.7425367252e-10 0 0 -1.7425367252e-10 
0 0 -1.7425367252e-10 0 0 -8.9019973083e-09 0 0 -1.7425367252e-10 
0 0 -1.7425367252e-10 0 0 -1.7425367252e-10 0 0 -1.7425367252e-10 
0 0 -1.7425367252e-10 0 0 -1.7425367252e-10 0 0 -1.7425367252e-10 
0 0 -1.7425367252e-10 0 0 -1.7425367252e-10 0 0 -1.7425367252e-10 
0 0 -1.7425367252e-10 0 0 -1.7425367252e-10 0 0 -1.7425367252e-10 
0 0 -1.7425367252e-10 0 0 -1.7425367252e-10 0 0 -1.7425367252e-10 
0 0 -1.7425367252e-10 0 0 -1.7425367252e-10 0 0 -1.7425367252e-10 
0 0 -1.7425367252e-10 0 0 -1.7425367252e-10 0 0 -1.7425367252e-10 
0 0 -1.7425367252e-10 0 0 -1.7425367252e-10 0 0 -1.7425367252e-10 
0 0 -1.7425367252e-10 0 0 -1.7425367252e-10 0 0 -1.7425367252e-10 
0 0 -1.7425367252e-10 0 0 -1.7425367252e-10 0 0 -8.9019973083e-09 
0 0 -1.7425367252e-10 0 0 -1.7425367252e-10 0 0 -1.7425367252e-10 
0 0 -1.7425367252e-10 0 0 -1.7425367252e-10 0 0 -1.7425367252e-10 
0 0 -1.7425367252e-10 0 0 -1.7425367252e-10 0 0 -1.7425367252e-10 
0 0 -1.7425367252e-10 0 0 -1.7425367252e-10 0 0 -1.7425367252e-10 
0 0 -1.7425367252e-10 0 0 -1.7425367252e-10 0 0 -1.7425367252e-10 
0 0 -1.7425367252e-10 0 0 -1.7425367252e-10 0 0 -1.7425367252e-10 
0 0 -8.9019973083e-09 0 0 -1.7425367252e-10 0 0 -1.7425367252e-10 
0 0 -8.9019973083e-09 0 0 -1.7425367252e-10 0 0 -1.7425367252e-10 
0 0 -1.7425367252e-10 0 0 -1.7425367252e-10 0 0 -1.7425367252e-10 
0 0 -1.7425367252e-10 0 0 -1.7425367252e-10 0 0 -1.7425367252e-10 
0 0 -1.7425367252e-10 0 0 -1.7425367252e-10 0 0 -1.7425367252e-10 
0 0 -6.8918688838e-08 0 0 -1.7425367252e-10 0 0 -1.7425367252e-10 
0 0 -1.7425367252e-10 0 0 -1.7425367252e-10 0 0 -1.7425367252e-10 
0 0 -1.7425367252e-10 0 0 -1.7425367252e-10 0 0 -1.7425367252e-10 
0 0 -1.7425367252e-10 0 0 -1.7425367252e-10 0 0 -1.7425367252e-10 
0 0 -1.7425367252e-10 0 0 -1.7425367252e-10 0 0 -1.7425367252e-10 
0 0 -1.7425367252e-10 0 0 -1.7425367252e-10 0 0 -1.7425367252e-10 
0 0 -1.7425367252e-10 0 0 -1.7425367252e-10 0 0 -1.7425367252e-10 
0 0 -1.7425367252e-10 0 0 -1.7425367252e-10 0 0 -1.7425367252e-10 
0 0 -1.7425367252e-10 0 0 -1.7425367252e-10 0 0 -1.7425367252e-10 
0 0 -1.7425367252e-10 0 0 -1.7425367252e-10 0 0 -1.7425367252e-10 
0 0 -1.7425367252e-10 0 0 -1.7425367252e-10 0 0 -1.7425367252e-10 
0 0 -1.7425367252e-10 0 0 -1.7425367252e-10 0 0 -1.7425367252e-10 
0 0 -1.7425367252e-10 0 0 -1.7425367252e-10 0 0 -1.7425367252e-10 
0 0 -1.7425367252e-10 0 0 -1.7425367252e-10 0 0 -1.7425367252e-10 
0 0 -1.7425367252e-10 0 0 -1.7425367252e-10 0 0 -1.7425367252e-10 
0 0 -1.7425367252e-10 0 0 -1.7425367252e-10 0 0 -1.7425367252e-10 
0 0 -1.7425367252e-10 0 0 -1.7425367252e-10 0 0 -1.7425367252e-10 
0 0 -1.7425367252e-10 0 0 -1.7425367252e-10 0 0 -1.7425367252e-10 
0 0 -1.7425367252e-10 0 0 -8.9019973083e-09 0 0 -1.7425367252e-10 
0 0 -1.7425367252e-10 0 0 -1.7425367252e-10 0 0 -1.7425367252e-10 
0 0 -1.7425367252e-10 0 0 -1.7425367252e-10 0 0 -1.7425367252e-10 
0 0 -1.7425367252e-10 0 0 -1.7425367252e-10 0 0 -1.7425367252e-10 
0 0 -1.7425367252e-10 0 0 -1.7425367252e-10 0 0 -1.7425367252e-10 
0 0 -1.7425367252e-10 0 0 -1.7425367252e-10 0 0 -1.7425367252e-10 
0 0 -1.7425367252e-10 0 0 -1.7425367252e-10 0 0 -1.7425367252e-10 
0 0 -1.7425367252e-10 0 0 -1.7425367252e-10 0 0 -1.7425367252e-10 
0 0 -1.7425367252e-10 0 0 -1.7425367252e-10 0 0 -1.7425367252e-10 
0 0 -1.7425367252e-10 0 0 -1.7425367252e-10 0 0 -1.7425367252e-10 
0 0 -1.7425367252e-10 0 0 -1.7425367252e-10 0 0 -1.7425367252e-10 
0 0 -1.7425367252e-10 0 0 -1.7425367252e-10 0 0 -1.7425367252e-10 
0 0 -1.7425367252e-10 0 0 -1.7425367252e-10 0 0 -1.7425367252e-10 
0 0 -1.7425367252e-10 0 0 -1.7425367252e-10 0 0 -1.7425367252e-10 
0 0 -1.7425367252e-10 0 0 -1.7425367252e-10 0 0 -1.7425367252e-10 
0 0 -1.7425367252e-10 0 0 -1.7425367252e-10 0 0 -1.7425367252e-10 
0 0 -1.7425367252e-10 0 0 -1.7425367252e-10 0 0 -1.7425367252e-10 
0 0 -1.7425367252e-10 0 0 -1.7425367252e-10 0 0 -1.7425367252e-10 
0 0 -1.7425367252e-10 0 0 -1.7425367252e-10 0 0 -1.7425367252e-10 
0 0 -1.7425367252e-10 0 0 -1.7425367252e-10 0 0 -1.7425367252e-10 
0 0 -1.7425367252e-10 0 0 -1.7425367252e-10 0 0 -1.7425367252e-10 
0 0 -1.7425367252e-10 0 0 -1.7425367252e-10 0 0 -1.7425367252e-10 
0 0 -1.7425367252e-10 0 0 -1.7425367252e-10 0 0 -1.7425367252e-10 
0 0 -1.7425367252e-10 0 0 -1.7425367252e-10 0 0 -1.7425367252e-10 
0 0 -1.7425367252e-10 0 0 -1.7425367252e-10 0 0 -1.7425367252e-10 
0 0 -1.7425367252e-10 0 0 -1.7425367252e-10 0 0 -1.7425367252e-10 
0 0 -1.7425367252e-10 0 0 -1.7425367252e-10 0 0 -1.7425367252e-10 
0 0 -1.7425367252e-10 0 0 -1.7425367252e-10 0 0 -1.7425367252e-10 
0 0 -1.7425367252e-10 0 0 -1.7425367252e-10 0 0 -1.7425367252e-10 
0 0 -1.7425367252e-10 0 0 -1.7425367252e-10 0 0 -1.7425367252e-10 
0 0 -1.7425367252e-10 0 0 -1.7425367252e-10 0 0 -1.7425367252e-10 
0 0 -1.7425367252e-10 0 0 -1.7425367252e-10 0 0 -1.7425367252e-10 
0 0 -1.7425367252e-10 0 0 -1.7425367252e-10 0 0 -1.7425367252e-10 
0 0 -1.7425367252e-10 0 0 -1.7425367252e-10 0 0 -1.7425367252e-10 
0 0 -1.7425367252e-10 0 0 -1.7425367252e-10 0 0 -1.7425367252e-10 
0 0 -1.7425367252e-10 0 0 -1.7425367252e-10 0 0 -1.7425367252e-10 
0 0 -1.7425367252e-10 0 0 -1.7425367252e-10 0 0 -1.7425367252e-10 
0 0 -1.7425367252e-10 0 0 -1.7425367252e-10 0 0 -1.7425367252e-10 
0 0 -1.7425367252e-10 0 0 -1.7425367252e-10 0 0 -1.7425367252e-10 
0 0 -1.7425367252e-10 0 0 -1.7425367252e-10 0 0 -1.7425367252e-10 
0 0 -1.7425367252e-10 0 0 -1.7425367252e-10 0 0 -1.7425367252e-10 
0 0 -1.7425367252e-10 0 0 -1.7425367252e-10 0 0 -1.7425367252e-10 
0 0 -1.7425367252e-10 0 0 -1.7425367252e-10 0 0 -1.7425367252e-10 
0 0 -1.7425367252e-10 0 0 -1.7425367252e-10 0 0 -1.7425367252e-10 
0 0 -1.7425367252e-10 0 0 -1.7425367252e-10 0 0 -1.7425367252e-10 
0 0 -1.7425367252e-10 0 0 -1.7425367252e-10 0 0 -1.7425367252e-10 
0 0 -1.7425367252e-10 0 0 -1.7425367252e-10 0 0 -1.7425367252e-10 
0 0 -1.7425367252e-10 0 0 -1.7425367252e-10 0 0 -1.7425367252e-10 
0 0 -1.7425367252e-10 0 0 -1.7425367252e-10 0 0 -1.7425367252e-10 
0 0 -1.7425367252e-10 0 0 -1.7425367252e-10 0 0 -1.7425367252e-10 
0 0 -1.7425367252e-10 0 0 -1.7425367252e-10 0 0 -1.7425367252e-10 
0 0 -1.7425367252e-10 0 0 -1.7425367252e-10 0 0 -1.7425367252e-10 
0 0 -1.7425367252e-10 0 0 -1.7425367252e-10 0 0 -1.7425367252e-10 
0 0 -1.7425367252e-10 0 0 -1.7425367252e-10 0 0 -1.7425367252e-10 
0 0 -1.7425367252e-10 0 0 -1.7425367252e-10 0 0 -1.7425367252e-10 
0 0 -1.7425367252e-10 0 0 -1.7425367252e-10 0 0 -1.7425367252e-10 
0 0 -1.7425367252e-10 0 0 -1.7425367252e-10 0 0 -1.7425367252e-10 
0 0 -1.7425367252e-10 0 0 -1.7425367252e-10 0 0 -1.7425367252e-10 
0 0 -1.7425367252e-10 0 0 -1.7425367252e-10 0 0 -1.7425367252e-10 
0 0 -1.7425367252e-10 0 0 -1.7425367252e-10 0 0 -1.7425367252e-10 
0 0 -1.7425367252e-10 0 0 -8.9019973083e-09 0 0 -1.7425367252e-10 
0 0 -5.3297119368e-07 0 0 -1.7425367252e-10 0 0 -1.7425367252e-10 
0 0 -1.7425367252e-10 0 0 -1.7425367252e-10 0 0 -1.7425367252e-10 
0 0 -1.7425367252e-10 0 0 -1.7425367252e-10 0 0 -1.7425367252e-10 
0 0 -1.7425367252e-10 0 0 -1.7425367252e-10 0 0 -1.7425367252e-10 
0 0 -1.7425367252e-10 0 0 -1.7425367252e-10 0 0 -1.7425367252e-10 
0 0 -1.7425367252e-10 0 0 -1.7425367252e-10 0 0 -1.7425367252e-10 
0 0 -1.7425367252e-10 0 0 -1.7425367252e-10 0 0 -1.7425367252e-10 
0 0 -1.7425367252e-10 0 0 -1.7425367252e-10 0 0 -1.7425367252e-10 
0 0 -1.7425367252e-10 0 0 -1.7425367252e-10 0 0 -1.7425367252e-10 
0 0 -1.7425367252e-10 0 0 -1.7425367252e-10 0 0 -1.7425367252e-10 
0 0 -1.7425367252e-10 0 0 -1.7425367252e-10 0 0 -1.7425367252e-10 
0 0 -1.7425367252e-10 0 0 -1.7425367252e-10 0 0 -1.7425367252e-10 
0 0 -1.7425367252e-10 0 0 -1.7425367252e-10 0 0 -1.7425367252e-10 
0 0 -1.7425367252e-10 0 0 -1.7425367252e-10 0 0 -1.7425367252e-10 
0 0 -1.7425367252e-10 0 0 -1.7425367252e-10 0 0 -1.7425367252e-10 
0 0 -1.7425367252e-10 0 0 -1.7425367252e-10 0 0 -1.7425367252e-10 
0 0 -1.7425367252e-10 0 0 -1.7425367252e-10 0 0 -1.7425367252e-10 
0 0 -1.7425367252e-10 0 0 -1.7425367252e-10 0 0 -1.7425367252e-10 
0 0 -1.7425367252e-10 0 0 -8.9019973083e-09 0 0 -1.7425367252e-10 
0 0 -1.7425367252e-10 0 0 -1.7425367252e-10 0 0 -1.7425367252e-10 
0 0 -1.7425367252e-10 0 0 -1.7425367252e-10 0 0 -1.7425367252e-10 
0 0 -1.7425367252e-10 0 0 -1.7425367252e-10 0 0 -1.7425367252e-10 
0 0 -8.9019973083e-09 0 0 -1.7425367252e-10 0 0 -1.7425367252e-10 
0 0 -1.7425367252e-10 0 0 -1.7425367252e-10 0 0 -1.7425367252e-10 
0 0 -1.7425367252e-10 0 0 -1.7425367252e-10 0 0 -1.7425367252e-10 
0 0 -1.7425367252e-10 0 0 -1.7425367252e-10 0 0 -1.7425367252e-10 
0 0 -1.7425367252e-10 0 0 -1.7425367252e-10 0 0 -1.7425367252e-10 
0 0 -1.7425367252e-10 0 0 -1.7425367252e-10 0 0 -1.7425367252e-10 
0 0 -1.7425367252e-10 0 0 -1.7425367252e-10 0 0 -1.7425367252e-10 
0 0 -1.7425367252e-10 0 0 -1.7425367252e-10 0 0 -1.7425367252e-10 
0 0 -1.7425367252e-10 0 0 -1.7425367252e-10 0 0 -1.7425367252e-10 
0 0 -1.7425367252e-10 0 0 -1.7425367252e-10 0 0 -1.7425367252e-10 
0 0 -1.7425367252e-10 0 0 -1.7425367252e-10 0 0 -1.7425367252e-10 
0 0 -1.7425367252e-10 0 0 -1.7425367252e-10 0 0 -1.7425367252e-10 
0 0 -1.7425367252e-10 0 0 -1.7425367252e-10 0 0 -1.7425367252e-10 
0 0 -1.7425367252e-10 0 0 -1.7425367252e-10 0 0 -1.7425367252e-10 
0 0 -1.7425367252e-10 0 0 -1.7425367252e-10 0 0 -1.7425367252e-10 
0 0 -1.7425367252e-10 0 0 -1.7425367252e-10 0 0 -1.7425367252e-10 
0 0 -1.7425367252e-10 0 0 -1.7425367252e-10 0 0 -1.7425367252e-10 
0 0 -1.7425367252e-10 0 0 -1.7425367252e-10 0 0 -1.7425367252e-10 
0 0 -1.7425367252e-10 0 0 -8.9019973083e-09 0 0 -1.7425367252e-10 
0 0 -1.7425367252e-10 0 0 -1.7425367252e-10 0 0 -1.7425367252e-10 
0 0 -1.7425367252e-10 0 0 -1.7425367252e-10 0 0 -1.7425367252e-10 
0 0 -1.7425367252e-10 0 0 -1.7425367252e-10 0 0 -1.7425367252e-10 
0 0 -1.7425367252e-10 0 0 -1.7425367252e-10 0 0 -1.7425367252e-10 
0 0 -1.7425367252e-10 0 0 -1.7425367252e-10 0 0 -1.7425367252e-10 
0 0 -1.7425367252e-10 0 0 -1.7425367252e-10 0 0 -1.7425367252e-10 
0 0 -1.7425367252e-10 0 0 -1.7425367252e-10 0 0 -1.7425367252e-10 
0 0 -1.7425367252e-10 0 0 -1.7425367252e-10 0 0 -1.7425367252e-10 
0 0 -1.7425367252e-10 0 0 -1.7425367252e-10 0 0 -1.7425367252e-10 
0 0 -1.7425367252e-10 0 0 -1.7425367252e-10 0 0 -1.7425367252e-10 
0 0 -1.7425367252e-10 0 0 -1.7425367252e-10 0 0 -1.7425367252e-10 
0 0 -1.7425367252e-10 0 0 -1.7425367252e-10 0 0 -1.7425367252e-10 
0 0 -1.7425367252e-10 0 0 -1.7425367252e-10 0 0 -1.7425367252e-10 
0 0 -1.7425367252e-10 0 0 -1.7425367252e-10 0 0 -1.7425367252e-10 
0 0 -1.7425367252e-10 0 0 -1.7425367252e-10 0 0 -1.7425367252e-10 
0 0 -1.7425367252e-10 0 0 -1.7425367252e-10 0 0 -1.7425367252e-10 
0 0 -1.7425367252e-10 0 0 -1.7425367252e-10 0 0 -1.7425367252e-10 
0 0 -1.7425367252e-10 0 0 -1.7425367252e-10 0 0 -1.7425367252e-10 
0 0 -1.7425367252e-10 0 0 -1.7425367252e-10 0 0 -1.7425367252e-10 
0 0 -1.7425367252e-10 0 0 -1.7425367252e-10 0 0 -1.7425367252e-10 
0 0 -1.7425367252e-10 0 0 -1.7425367252e-10 0 0 -1.7425367252e-10 
0 0 -1.7425367252e-10 0 0 -1.7425367252e-10 0 0 -1.7425367252e-10 
0 0 -1.7425367252e-10 0 0 -1.7425367252e-10 0 0 -1.7425367252e-10 
0 0 -1.7425367252e-10 0 0 -1.7425367252e-10 0 0 -1.7425367252e-10 
0 0 -1.7425367252e-10 0 0 -1.7425367252e-10 0 0 -1.7425367252e-10 
0 0 -1.7425367252e-10 0 0 -1.7425367252e-10 0 0 -1.7425367252e-10 
0 0 -1.7425367252e-10 0 0 -1.7425367252e-10 0 0 -1.7425367252e-10 
0 0 -1.7425367252e-10 0 0 -1.7425367252e-10 0 0 -1.7425367252e-10 
0 0 -1.7425367252e-10 0 0 -1.7425367252e-10 0 0 -1.7425367252e-10 
0 0 -1.7425367252e-10 0 0 -8.9019973083e-09 0 0 -1.7425367252e-10 
0 0 -1.7425367252e-10 0 0 -1.7425367252e-10 0 0 -1.7425367252e-10 
0 0 -1.7425367252e-10 0 0 -1.7425367252e-10 0 0 -1.7425367252e-10 
0 0 -1.7425367252e-10 0 0 -1.7425367252e-10 0 0 -1.7425367252e-10 
0 0 -1.7425367252e-10 0 0 -1.7425367252e-10 0 0 -1.7425367252e-10 
0 0 -1.7425367252e-10 0 0 -1.7425367252e-10 0 0 -1.7425367252e-10 
0 0 -1.7425367252e-10 0 0 -1.7425367252e-10 0 0 -1.7425367252e-10 
0 0 -1.7425367252e-10 0 0 -1.7425367252e-10 0 0 -1.7425367252e-10 
0 0 -1.7425367252e-10 0 0 -1.7425367252e-10 0 0 -1.7425367252e-10 
0 0 -1.7425367252e-10 0 0 -1.7425367252e-10 0 0 -1.7425367252e-10 
0 0 -1.7425367252e-10 0 0 -1.7425367252e-10 0 0 -1.7425367252e-10 

radius 1 648 double
2e-05 7.5e-05 2e-05 2e-05 2e-05 2e-05 2e-05 2e-05 2e-05 
2e-05 2e-05 2e-05 2e-05 2e-05 2e-05 2e-05 2e-05 2e-05 
2e-05 2e-05 2e-05 2e-05 2e-05 2e-05 2e-05 2e-05 2e-05 
2e-05 2e-05 2e-05 7.5e-05 2e-05 2e-05 7.5e-05 2e-05 2e-05 
2e-05 2e-05 2e-05 2e-05 2e-05 2e-05 2e-05 2e-05 2e-05 
2e-05 2e-05 2e-05 2e-05 2e-05 2e-05 2e-05 2e-05 2e-05 
2e-05 2e-05 2e-05 2e-05 2e-05 2e-05 2e-05 2e-05 2e-05 
2e-05 7.5e-05 2e-05 2e-05 2e-05 2e-05 7.5e-05 2e-05 2e-05 
2e-05 2e-05 2e-05 2e-05 2e-05 2e-05 2e-05 2e-05 2e-05 
2e-05 2e-05 2e-05 2e-05 2e-05 2e-05 2e-05 2e-05 2e-05 
2e-05 2e-05 7.5e-05 7.5e-05 2e-05 2e-05 2e-05 2e-05 2e-05 
2e-05 2e-05 2e-05 2e-05 7.5e-05 2e-05 2e-05 2e-05 2e-05 
2e-05 2e-05 2e-05 2e-05 2e-05 2e-05 2e-05 2e-05 2e-05 
2e-05 2e-05 2e-05 2e-05 2e-05 2e-05 2e-05 2e-05 2e-05 
2e-05 2e-05 2e-05 2e-05 2e-05 2e-05 2e-05 2e-05 7.5e-05 
2e-05 2e-05 2e-05 2e-05 2e-05 2e-05 2e-05 2e-05 2e-05 
2e-05 2e-05 2e-05 2e-05 2e-05 2e-05 2e-05 2e-05 2e-05 
7.5e-05 2e-05 2e-05 7.5e-05 2e-05 2e-05 2e-05 2e-05 2e-05 
2e-05 2e-05 2e-05 2e-05 2e-05 2e-05 0.00015 2e-05 2e-05 
2e-05 2e-05 2e-05 2e-05 2e-05 2e-05 2e-05 2e-05 2e-05 
2e-05 2e-05 2e-05 2e-05 2e-05 2e-05 2e-05 2e-05 2e-05 
2e-05 2e-05 2e-05 2e-05 2e-05 2e-05 2e-05 2e-05 2e-05 
2e-05 2e-05 2e-05 2e-05 2e-05 2e-05 2e-05 2e-05 2e-05 
2e-05 2e-05 2e-05 2e-05 2e-05 2e-05 2e-05 2e-05 2e-05 
2e-05 2e-05 2e-05 2e-05 2e-05 2e-05 2e-05 7.5e-05 2e-05 
2e-05 2e-05 2e-05 2e-05 2e-05 2e-05 2e-05 2e-05 2e-05 
2e-05 2e-05 2e-05 2e-05 2e-05 2e-05 2e-05 2e-05 2e-05 
2e-05 2e-05 2e-05 2e-05 2e-05 2e-05 2e-05 2e-05 2e-05 
2e-05 2e-05 2e-05 2e-05 2e-05 2e-05 2e-05 2e-05 2e-05 
2e-05 2e-05 2e-05 2e-05 2e-05 2e-05 2e-05 2e-05 2e-05 
2e-05 2e-05 2e-05 2e-05 2e-05 2e-05 2e-05 2e-05 2e-05 
2e-05 2e-05 2e-05 2e-05 2e-05 2e-05 2e-05 2e-05 2e-05 
2e-05 2e-05 2e-05 2e-05 2e-05 2e-05 2e-05 2e-05 2e-05 
2e-05 2e-05 2e-05 2e-05 2e-05 2e-05 2e-05 2e-05 2e-05 
2e-05 2e-05 2e-05 2e-05 2e-05 2e-05 2e-05 2e-05 2e-05 
2e-05 2e-05 2e-05 2e-05 2e-05 2e-05 2e-05 2e-05 2e-05 
2e-05 2e-05 2e-05 2e-05 2e-05 2e-05 2e-05 2e-05 2e-05 
2e-05 2e-05 2e-05 2e-05 2e-05 2e-05 2e-05 2e-05 2e-05 
2e-05 2e-05 2e-05 2e-05 2e-05 2e-05 2e-05 2e-05 2e-05 
2e-05 2e-05 2e-05 2e-05 2e-05 2e-05 2e-05 2e-05 2e-05 
2e-05 2e-05 2e-05 2e-05 2e-05 2e-05 2e-05 2e-05 2e-05 
2e-05 2e-05 2e-05 2e-05 2e-05 2e-05 2e-05 2e-05 2e-05 
2e-05 2e-05 2e-05 2e-05 2e-05 2e-05 2e-05 2e-05 2e-05 
2e-05 2e-05 2e-05 2e-05 2e-05 2e-05 2e-05 2e-05 2e-05 
2e-05 2e-05 2e-05 2e-05 2e-05 2e-05 2e-05 7.5e-05 2e-05 
0.0003 2e-05 2e-05 2e-05 2e-05 2e-05 2e-05 2e-05 2e-05 
2e-05 2e-05 2e-05 2e-05 2e-05 2e-05 2e-05 2e-05 2e-05 
2e-05 2e-05 2e-05 2e-05 2e-05 2e-05 2e-05 2e-05 2e-05 
2e-05 2e-05 2e-05 2e-05 2e-05 2e-05 2e-05 2e-05 2e-05 
2e-05 2e-05 2e-05 2e-05 2e-05 2e-05 2e-05 2e-05 2e-05 
2e-05 2e-05 2e-05 2e-05 2e-05 2e-05 2e-05 2e-05 2e-05 
2e-05 7.5e-05 2e-05 2e-05 2e-05 2e-05 2e-05 2e-05 2e-05 
2e-05 2e-05 2e-05 7.5e-05 2e-05 2e-05 2e-05 2e-05 2e-05 
2e-05 2e-05 2e-05 2e-05 2e-05 2e-05 2e-05 2e-05 2e-05 
2e-05 2e-05 2e-05 2e-05 2e-05 2e-05 2e-05 2e-05 2e-05 
2e-05 2e-05 2e-05 2e-05 2e-05 2e-05 2e-05 2e-05 2e-05 
2e-05 2e-05 2e-05 2e-05 2e-05 2e-05 2e-05 2e-05 2e-05 
2e-05 2e-05 2e-05 2e-05 2e-05 2e-05 2e-05 2e-05 2e-05 
2e-05 2e-05 2e-05 2e-05 7.5e-05 2e-05 2e-05 2e-05 2e-05 
2e-05 2e-05 2e-05 2e-05 2e-05 2e-05 2e-05 2e-05 2e-05 
2e-05 2e-05 2e-05 2e-05 2e-05 2e-05 2e-05 2e-05 2e-05 
2e-05 2e-05 2e-05 2e-05 2e-05 2e-05 2e-05 2e-05 2e-05 
2e-05 2e-05 2e-05 2e-05 2e-05 2e-05 2e-05 2e-05 2e-05 
2e-05 2e-05 2e-05 2e-05 2e-05 2e-05 2e-05 2e-05 2e-05 
2e-05 2e-05 2e-05 2e-05 2e-05 2e-05 2e-05 2e-05 2e-05 
2e-05 2e-05 2e-05 2e-05 2e-05 2e-05 2e-05 2e-05 2e-05 
2e-05 2e-05 2e-05 2e-05 2e-05 2e-05 2e-05 2e-05 2e-05 
2e-05 2e-05 2e-05 2e-05 2e-05 2e-05 2e-05 2e-05 2e-05 
2e-05 2e-05 2e-05 2e-05 7.5e-05 2e-05 2e-05 2e-05 2e-05 
2e-05 2e-05 2e-05 2e-05 2e-05 2e-05 2e-05 2e-05 2e-05 
2e-05 2e-05 2e-05 2e-05 2e-05 2e-05 2e-05 2e-05 2e-05 
2e-05 2e-05 2e-05 2e-05 2e-05 2e-05 2e-05 2e-05 2e-05 

omega 3 648 double
0 0 0 0 0 0 0 0 0 
0 0 0 0 0 0 0 0 0 
0 0 0 0 0 0 0 0 0 
0 0 0 0 0 0 0 0 0 
0 0 0 0 0 0 0 0 0 
0 0 0 0 0 0 0 0 0 
0 0 0 0 0 0 0 0 0 
0 0 0 0 0 0 0 0 0 
0 0 0 0 0 0 0 0 0 
0 0 0 0 0 0 0 0 0 
0 0 0 0 0 0 0 0 0 
0 0 0 0 0 0 0 0 0 
0 0 0 0 0 0 0 0 0 
0 0 0 0 0 0 0 0 0 
0 0 0 0 0 0 0 0 0 
0 0 0 0 0 0 0 0 0 
0 0 0 0 0 0 0 0 0 
0 0 0 0 0 0 0 0 0 
0 0 0 0 0 0 0 0 0 
0 0 0 0 0 0 0 0 0 
0 0 0 0 0 0 0 0 0 
0 0 0 0 0 0 0 0 0 
0 0 0 0 0 0 0 0 0 
0 0 0 0 0 0 0 0 0 
0 0 0 0 0 0 0 0 0 
0 0 0 0 0 0 0 0 0 
0 0 0 0 0 0 0 0 0 
0 0 0 0 0 0 0 0 0 
0 0 0 0 0 0 0 0 0 
0 0 0 0 0 0 0 0 0 
0 0 0 0 0 0 0 0 0 
0 0 0 0 0 0 0 0 0 
0 0 0 0 0 0 0 0 0 
0 0 0 0 0 0 0 0 0 
0 0 0 0 0 0 0 0 0 
0 0 0 0 0 0 0 0 0 
0 0 0 0 0 0 0 0 0 
0 0 0 0 0 0 0 0 0 
0 0 0 0 0 0 0 0 0 
0 0 0 0 0 0 0 0 0 
0 0 0 0 0 0 0 0 0 
0 0 0 0 0 0 0 0 0 
0 0 0 0 0 0 0 0 0 
0 0 0 0 0 0 0 0 0 
0 0 0 0 0 0 0 0 0 
0 0 0 0 0 0 0 0 0 
0 0 0 0 0 0 0 0 0 
0 0 0 0 0 0 0 0 0 
0 0 0 0 0 0 0 0 0 
0 0 0 0 0 0 0 0 0 
0 0 0 0 0 0 0 0 0 
0 0 0 0 0 0 0 0 0 
0 0 0 0 0 0 0 0 0 
0 0 0 0 0 0 0 0 0 
0 0 0 0 0 0 0 0 0 
0 0 0 0 0 0 0 0 0 
0 0 0 0 0 0 0 0 0 
0 0 0 0 0 0 0 0 0 
0 0 0 0 0 0 0 0 0 
0 0 0 0 0 0 0 0 0 
0 0 0 0 0 0 0 0 0 
0 0 0 0 0 0 0 0 0 
0 0 0 0 0 0 0 0 0 
0 0 0 0 0 0 0 0 0 
0 0 0 0 0 0 0 0 0 
0 0 0 0 0 0 0 0 0 
0 0 0 0 0 0 0 0 0 
0 0 0 0 0 0 0 0 0 
0 0 0 0 0 0 0 0 0 
0 0 0 0 0 0 0 0 0 
0 0 0 0 0 0 0 0 0 
0 0 0 0 0 0 0 0 0 
0 0 0 0 0 0 0 0 0 
0 0 0 0 0 0 0 0 0 
0 0 0 0 0 0 0 0 0 
0 0 0 0 0 0 0 0 0 
0 0 0 0 0 0 0 0 0 
0 0 0 0 0 0 0 0 0 
0 0 0 0 0 0 0 0 0 
0 0 0 0 0 0 0 0 0 
0 0 0 0 0 0 0 0 0 
0 0 0 0 0 0 0 0 0 
0 0 0 0 0 0 0 0 0 
0 0 0 0 0 0 0 0 0 
0 0 0 0 0 0 0 0 0 
0 0 0 0 0 0 0 0 0 
0 0 0 0 0 0 0 0 0 
0 0 0 0 0 0 0 0 0 
0 0 0 0 0 0 0 0 0 
0 0 0 0 0 0 0 0 0 
0 0 0 0 0 0 0 0 0 
0 0 0 0 0 0 0 0 0 
0 0 0 0 0 0 0 0 0 
0 0 0 0 0 0 0 0 0 
0 0 0 0 0 0 0 0 0 
0 0 0 0 0 0 0 0 0 
0 0 0 0 0 0 0 0 0 
0 0 0 0 0 0 0 0 0 
0 0 0 0 0 0 0 0 0 
0 0 0 0 0 0 0 0 0 
0 0 0 0 0 0 0 0 0 
0 0 0 0 0 0 0 0 0 
0 0 0 0 0 0 0 0 0 
0 0 0 0 0 0 0 0 0 
0 0 0 0 0 0 0 0 0 
0 0 0 0 0 0 0 0 0 
0 0 0 0 0 0 0 0 0 
0 0 0 0 0 0 0 0 0 
0 0 0 0 0 0 0 0 0 
0 0 0 0 0 0 0 0 0 
0 0 0 0 0 0 0 0 0 
0 0 0 0 0 0 0 0 0 
0 0 0 0 0 0 0 0 0 
0 0 0 0 0 0 0 0 0 
0 0 0 0 0 0 0 0 0 
0 0 0 0 0 0 0 0 0 
0 0 0 0 0 0 0 0 0 
0 0 0 0 0 0 0 0 0 
0 0 0 0 0 0 0 0 0 
0 0 0 0 0 0 0 0 0 
0 0 0 0 0 0 0 0 0 
0 0 0 0 0 0 0 0 0 
0 0 0 0 0 0 0 0 0 
0 0 0 0 0 0 0 0 0 
0 0 0 0 0 0 0 0 0 
0 0 0 0 0 0 0 0 0 
0 0 0 0 0 0 0 0 0 
0 0 0 0 0 0 0 0 0 
0 0 0 0 0 0 0 0 0 
0 0 0 0 0 0 0 0 0 
0 0 0 0 0 0 0 0 0 
0 0 0 0 0 0 0 0 0 
0 0 0 0 0 0 0 0 0 
0 0 0 0 0 0 0 0 0 
0 0 0 0 0 0 0 0 0 
0 0 0 0 0 0 0 0 0 
0 0 0 0 0 0 0 0 0 
0 0 0 0 0 0 0 0 0 
0 0 0 0 0 0 0 0 0 
0 0 0 0 0 0 0 0 0 
0 0 0 0 0 0 0 0 0 
0 0 0 0 0 0 0 0 0 
0 0 0 0 0 0 0 0 0 
0 0 0 0 0 0 0 0 0 
0 0 0 0 0 0 0 0 0 
0 0 0 0 0 0 0 0 0 
0 0 0 0 0 0 0 0 0 
0 0 0 0 0 0 0 0 0 
0 0 0 0 0 0 0 0 0 
0 0 0 0 0 0 0 0 0 
0 0 0 0 0 0 0 0 0 
0 0 0 0 0 0 0 0 0 
0 0 0 0 0 0 0 0 0 
0 0 0 0 0 0 0 0 0 
0 0 0 0 0 0 0 0 0 
0 0 0 0 0 0 0 0 0 
0 0 0 0 0 0 0 0 0 
0 0 0 0 0 0 0 0 0 
0 0 0 0 0 0 0 0 0 
0 0 0 0 0 0 0 0 0 
0 0 0 0 0 0 0 0 0 
0 0 0 0 0 0 0 0 0 
0 0 0 0 0 0 0 0 0 
0 0 0 0 0 0 0 0 0 
0 0 0 0 0 0 0 0 0 
0 0 0 0 0 0 0 0 0 
0 0 0 0 0 0 0 0 0 
0 0 0 0 0 0 0 0 0 
0 0 0 0 0 0 0 0 0 
0 0 0 0 0 0 0 0 0 
0 0 0 0 0 0 0 0 0 
0 0 0 0 0 0 0 0 0 
0 0 0 0 0 0 0 0 0 
0 0 0 0 0 0 0 0 0 
0 0 0 0 0 0 0 0 0 
0 0 0 0 0 0 0 0 0 
0 0 0 0 0 0 0 0 0 
0 0 0 0 0 0 0 0 0 
0 0 0 0 0 0 0 0 0 
0 0 0 0 0 0 0 0 0 
0 0 0 0 0 0 0 0 0 
0 0 0 0 0 0 0 0 0 
0 0 0 0 0 0 0 0 0 
0 0 0 0 0 0 0 0 0 
0 0 0 0 0 0 0 0 0 
0 0 0 0 0 0 0 0 0 
0 0 0 0 0 0 0 0 0 
0 0 0 0 0 0 0 0 0 
0 0 0 0 0 0 0 0 0 
0 0 0 0 0 0 0 0 0 
0 0 0 0 0 0 0 0 0 
0 0 0 0 0 0 0 0 0 
0 0 0 0 0 0 0 0 0 
0 0 0 0 0 0 0 0 0 
0 0 0 0 0 0 0 0 0 
0 0 0 0 0 0 0 0 0 
0 0 0 0 0 0 0 0 0 
0 0 0 0 0 0 0 0 0 
0 0 0 0 0 0 0 0 0 
0 0 0 0 0 0 0 0 0 
0 0 0 0 0 0 0 0 0 
0 0 0 0 0 0 0 0 0 
0 0 0 0 0 0 0 0 0 
0 0 0 0 0 0 0 0 0 
0 0 0 0 0 0 0 0 0 
0 0 0 0 0 0 0 0 0 
0 0 0 0 0 0 0 0 0 
0 0 0 0 0 0 0 0 0 
0 0 0 0 0 0 0 0 0 
0 0 0 0 0 0 0 0 0 
0 0 0 0 0 0 0 0 0 
0 0 0 0 0 0 0 0 0 
0 0 0 0 0 0 0 0 0 
0 0 0 0 0 0 0 0 0 
0 0 0 0 0 0 0 0 0 
0 0 0 0 0 0 0 0 0 

fx_mag_viz 1 648 double
0 0 0 0 0 0 0 0 0 
0 0 0 0 0 0 0 0 0 
0 0 0 0 0 0 0 0 0 
0 0 0 0 0 0 0 0 0 
0 0 0 0 0 0 0 0 0 
0 0 0 0 0 0 0 0 0 
0 0 0 0 0 0 0 0 0 
0 0 0 0 0 0 0 0 0 
0 0 0 0 0 0 0 0 0 
0 0 0 0 0 0 0 0 0 
0 0 0 0 0 0 0 0 0 
0 0 0 0 0 0 0 0 0 
0 0 0 0 0 0 0 0 0 
0 0 0 0 0 0 0 0 0 
0 0 0 0 0 0 0 0 0 
0 0 0 0 0 0 0 0 0 
0 0 0 0 0 0 0 0 0 
0 0 0 0 0 0 0 0 0 
0 0 0 0 0 0 0 0 0 
0 0 0 0 0 0 0 0 0 
0 0 0 0 0 0 0 0 0 
0 0 0 0 0 0 0 0 0 
0 0 0 0 0 0 0 0 0 
0 0 0 0 0 0 0 0 0 
0 0 0 0 0 0 0 0 0 
0 0 0 0 0 0 0 0 0 
0 0 0 0 0 0 0 0 0 
0 0 0 0 0 0 0 0 0 
0 0 0 0 0 0 0 0 0 
0 0 0 0 0 0 0 0 0 
0 0 0 0 0 0 0 0 0 
0 0 0 0 0 0 0 0 0 
0 0 0 0 0 0 0 0 0 
0 0 0 0 0 0 0 0 0 
0 0 0 0 0 0 0 0 0 
0 0 0 0 0 0 0 0 0 
0 0 0 0 0 0 0 0 0 
0 0 0 0 0 0 0 0 0 
0 0 0 0 0 0 0 0 0 
0 0 0 0 0 0 0 0 0 
0 0 0 0 0 0 0 0 0 
0 0 0 0 0 0 0 0 0 
0 0 0 0 0 0 0 0 0 
0 0 0 0 0 0 0 0 0 
0 0 0 0 0 0 0 0 0 
0 0 0 0 0 0 0 0 0 
0 0 0 0 0 0 0 0 0 
0 0 0 0 0 0 0 0 0 
0 0 0 0 0 0 0 0 0 
0 0 0 0 0 0 0 0 0 
0 0 0 0 0 0 0 0 0 
0 0 0 0 0 0 0 0 0 
0 0 0 0 0 0 0 0 0 
0 0 0 0 0 0 0 0 0 
0 0 0 0 0 0 0 0 0 
0 0 0 0 0 0 0 0 0 
0 0 0 0 0 0 0 0 0 
0 0 0 0 0 0 0 0 0 
0 0 0 0 0 0 0 0 0 
0 0 0 0 0 0 0 0 0 
0 0 0 0 0 0 0 0 0 
0 0 0 0 0 0 0 0 0 
0 0 0 0 0 0 0 0 0 
0 0 0 0 0 0 0 0 0 
0 0 0 0 0 0 0 0 0 
0 0 0 0 0 0 0 0 0 
0 0 0 0 0 0 0 0 0 
0 0 0 0 0 0 0 0 0 
0 0 0 0 0 0 0 0 0 
0 0 0 0 0 0 0 0 0 
0 0 0 0 0 0 0 0 0 
0 0 0 0 0 0 0 0 0 

fy_mag_viz 1 648 double
0 0 0 0 0 0 0 0 0 
0 0 0 0 0 0 0 0 0 
0 0 0 0 0 0 0 0 0 
0 0 0 0 0 0 0 0 0 
0 0 0 0 0 0 0 0 0 
0 0 0 0 0 0 0 0 0 
0 0 0 0 0 0 0 0 0 
0 0 0 0 0 0 0 0 0 
0 0 0 0 0 0 0 0 0 
0 0 0 0 0 0 0 0 0 
0 0 0 0 0 0 0 0 0 
0 0 0 0 0 0 0 0 0 
0 0 0 0 0 0 0 0 0 
0 0 0 0 0 0 0 0 0 
0 0 0 0 0 0 0 0 0 
0 0 0 0 0 0 0 0 0 
0 0 0 0 0 0 0 0 0 
0 0 0 0 0 0 0 0 0 
0 0 0 0 0 0 0 0 0 
0 0 0 0 0 0 0 0 0 
0 0 0 0 0 0 0 0 0 
0 0 0 0 0 0 0 0 0 
0 0 0 0 0 0 0 0 0 
0 0 0 0 0 0 0 0 0 
0 0 0 0 0 0 0 0 0 
0 0 0 0 0 0 0 0 0 
0 0 0 0 0 0 0 0 0 
0 0 0 0 0 0 0 0 0 
0 0 0 0 0 0 0 0 0 
0 0 0 0 0 0 0 0 0 
0 0 0 0 0 0 0 0 0 
0 0 0 0 0 0 0 0 0 
0 0 0 0 0 0 0 0 0 
0 0 0 0 0 0 0 0 0 
0 0 0 0 0 0 0 0 0 
0 0 0 0 0 0 0 0 0 
0 0 0 0 0 0 0 0 0 
0 0 0 0 0 0 0 0 0 
0 0 0 0 0 0 0 0 0 
0 0 0 0 0 0 0 0 0 
0 0 0 0 0 0 0 0 0 
0 0 0 0 0 0 0 0 0 
0 0 0 0 0 0 0 0 0 
0 0 0 0 0 0 0 0 0 
0 0 0 0 0 0 0 0 0 
0 0 0 0 0 0 0 0 0 
0 0 0 0 0 0 0 0 0 
0 0 0 0 0 0 0 0 0 
0 0 0 0 0 0 0 0 0 
0 0 0 0 0 0 0 0 0 
0 0 0 0 0 0 0 0 0 
0 0 0 0 0 0 0 0 0 
0 0 0 0 0 0 0 0 0 
0 0 0 0 0 0 0 0 0 
0 0 0 0 0 0 0 0 0 
0 0 0 0 0 0 0 0 0 
0 0 0 0 0 0 0 0 0 
0 0 0 0 0 0 0 0 0 
0 0 0 0 0 0 0 0 0 
0 0 0 0 0 0 0 0 0 
0 0 0 0 0 0 0 0 0 
0 0 0 0 0 0 0 0 0 
0 0 0 0 0 0 0 0 0 
0 0 0 0 0 0 0 0 0 
0 0 0 0 0 0 0 0 0 
0 0 0 0 0 0 0 0 0 
0 0 0 0 0 0 0 0 0 
0 0 0 0 0 0 0 0 0 
0 0 0 0 0 0 0 0 0 
0 0 0 0 0 0 0 0 0 
0 0 0 0 0 0 0 0 0 
0 0 0 0 0 0 0 0 0 

fz_mag_viz 1 648 double
0 0 0 0 0 0 0 0 0 
0 0 0 0 0 0 0 0 0 
0 0 0 0 0 0 0 0 0 
0 0 0 0 0 0 0 0 0 
0 0 0 0 0 0 0 0 0 
0 0 0 0 0 0 0 0 0 
0 0 0 0 0 0 0 0 0 
0 0 0 0 0 0 0 0 0 
0 0 0 0 0 0 0 0 0 
0 0 0 0 0 0 0 0 0 
0 0 0 0 0 0 0 0 0 
0 0 0 0 0 0 0 0 0 
0 0 0 0 0 0 0 0 0 
0 0 0 0 0 0 0 0 0 
0 0 0 0 0 0 0 0 0 
0 0 0 0 0 0 0 0 0 
0 0 0 0 0 0 0 0 0 
0 0 0 0 0 0 0 0 0 
0 0 0 0 0 0 0 0 0 
0 0 0 0 0 0 0 0 0 
0 0 0 0 0 0 0 0 0 
0 0 0 0 0 0 0 0 0 
0 0 0 0 0 0 0 0 0 
0 0 0 0 0 0 0 0 0 
0 0 0 0 0 0 0 0 0 
0 0 0 0 0 0 0 0 0 
0 0 0 0 0 0 0 0 0 
0 0 0 0 0 0 0 0 0 
0 0 0 0 0 0 0 0 0 
0 0 0 0 0 0 0 0 0 
0 0 0 0 0 0 0 0 0 
0 0 0 0 0 0 0 0 0 
0 0 0 0 0 0 0 0 0 
0 0 0 0 0 0 0 0 0 
0 0 0 0 0 0 0 0 0 
0 0 0 0 0 0 0 0 0 
0 0 0 0 0 0 0 0 0 
0 0 0 0 0 0 0 0 0 
0 0 0 0 0 0 0 0 0 
0 0 0 0 0 0 0 0 0 
0 0 0 0 0 0 0 0 0 
0 0 0 0 0 0 0 0 0 
0 0 0 0 0 0 0 0 0 
0 0 0 0 0 0 0 0 0 
0 0 0 0 0 0 0 0 0 
0 0 0 0 0 0 0 0 0 
0 0 0 0 0 0 0 0 0 
0 0 0 0 0 0 0 0 0 
0 0 0 0 0 0 0 0 0 
0 0 0 0 0 0 0 0 0 
0 0 0 0 0 0 0 0 0 
0 0 0 0 0 0 0 0 0 
0 0 0 0 0 0 0 0 0 
0 0 0 0 0 0 0 0 0 
0 0 0 0 0 0 0 0 0 
0 0 0 0 0 0 0 0 0 
0 0 0 0 0 0 0 0 0 
0 0 0 0 0 0 0 0 0 
0 0 0 0 0 0 0 0 0 
0 0 0 0 0 0 0 0 0 
0 0 0 0 0 0 0 0 0 
0 0 0 0 0 0 0 0 0 
0 0 0 0 0 0 0 0 0 
0 0 0 0 0 0 0 0 0 
0 0 0 0 0 0 0 0 0 
0 0 0 0 0 0 0 0 0 
0 0 0 0 0 0 0 0 0 
0 0 0 0 0 0 0 0 0 
0 0 0 0 0 0 0 0 0 
0 0 0 0 0 0 0 0 0 
0 0 0 0 0 0 0 0 0 
0 0 0 0 0 0 0 0 0 

B_magnitude 1 648 double
0 0 0 0 0 0 0 0 0 
0 0 0 0 0 0 0 0 0 
0 0 0 0 0 0 0 0 0 
0 0 0 0 0 0 0 0 0 
0 0 0 0 0 0 0 0 0 
0 0 0 0 0 0 0 0 0 
0 0 0 0 0 0 0 0 0 
0 0 0 0 0 0 0 0 0 
0 0 0 0 0 0 0 0 0 
0 0 0 0 0 0 0 0 0 
0 0 0 0 0 0 0 0 0 
0 0 0 0 0 0 0 0 0 
0 0 0 0 0 0 0 0 0 
0 0 0 0 0 0 0 0 0 
0 0 0 0 0 0 0 0 0 
0 0 0 0 0 0 0 0 0 
0 0 0 0 0 0 0 0 0 
0 0 0 0 0 0 0 0 0 
0 0 0 0 0 0 0 0 0 
0 0 0 0 0 0 0 0 0 
0 0 0 0 0 0 0 0 0 
0 0 0 0 0 0 0 0 0 
0 0 0 0 0 0 0 0 0 
0 0 0 0 0 0 0 0 0 
0 0 0 0 0 0 0 0 0 
0 0 0 0 0 0 0 0 0 
0 0 0 0 0 0 0 0 0 
0 0 0 0 0 0 0 0 0 
0 0 0 0 0 0 0 0 0 
0 0 0 0 0 0 0 0 0 
0 0 0 0 0 0 0 0 0 
0 0 0 0 0 0 0 0 0 
0 0 0 0 0 0 0 0 0 
0 0 0 0 0 0 0 0 0 
0 0 0 0 0 0 0 0 0 
0 0 0 0 0 0 0 0 0 
0 0 0 0 0 0 0 0 0 
0 0 0 0 0 0 0 0 0 
0 0 0 0 0 0 0 0 0 
0 0 0 0 0 0 0 0 0 
0 0 0 0 0 0 0 0 0 
0 0 0 0 0 0 0 0 0 
0 0 0 0 0 0 0 0 0 
0 0 0 0 0 0 0 0 0 
0 0 0 0 0 0 0 0 0 
0 0 0 0 0 0 0 0 0 
0 0 0 0 0 0 0 0 0 
0 0 0 0 0 0 0 0 0 
0 0 0 0 0 0 0 0 0 
0 0 0 0 0 0 0 0 0 
0 0 0 0 0 0 0 0 0 
0 0 0 0 0 0 0 0 0 
0 0 0 0 0 0 0 0 0 
0 0 0 0 0 0 0 0 0 
0 0 0 0 0 0 0 0 0 
0 0 0 0 0 0 0 0 0 
0 0 0 0 0 0 0 0 0 
0 0 0 0 0 0 0 0 0 
0 0 0 0 0 0 0 0 0 
0 0 0 0 0 0 0 0 0 
0 0 0 0 0 0 0 0 0 
0 0 0 0 0 0 0 0 0 
0 0 0 0 0 0 0 0 0 
0 0 0 0 0 0 0 0 0 
0 0 0 0 0 0 0 0 0 
0 0 0 0 0 0 0 0 0 
0 0 0 0 0 0 0 0 0 
0 0 0 0 0 0 0 0 0 
0 0 0 0 0 0 0 0 0 
0 0 0 0 0 0 0 0 0 
0 0 0 0 0 0 0 0 0 
0 0 0 0 0 0 0 0 0 

B_gradient_mag 1 648 double
0 0 0 0 0 0 0 0 0 
0 0 0 0 0 0 0 0 0 
0 0 0 0 0 0 0 0 0 
0 0 0 0 0 0 0 0 0 
0 0 0 0 0 0 0 0 0 
0 0 0 0 0 0 0 0 0 
0 0 0 0 0 0 0 0 0 
0 0 0 0 0 0 0 0 0 
0 0 0 0 0 0 0 0 0 
0 0 0 0 0 0 0 0 0 
0 0 0 0 0 0 0 0 0 
0 0 0 0 0 0 0 0 0 
0 0 0 0 0 0 0 0 0 
0 0 0 0 0 0 0 0 0 
0 0 0 0 0 0 0 0 0 
0 0 0 0 0 0 0 0 0 
0 0 0 0 0 0 0 0 0 
0 0 0 0 0 0 0 0 0 
0 0 0 0 0 0 0 0 0 
0 0 0 0 0 0 0 0 0 
0 0 0 0 0 0 0 0 0 
0 0 0 0 0 0 0 0 0 
0 0 0 0 0 0 0 0 0 
0 0 0 0 0 0 0 0 0 
0 0 0 0 0 0 0 0 0 
0 0 0 0 0 0 0 0 0 
0 0 0 0 0 0 0 0 0 
0 0 0 0 0 0 0 0 0 
0 0 0 0 0 0 0 0 0 
0 0 0 0 0 0 0 0 0 
0 0 0 0 0 0 0 0 0 
0 0 0 0 0 0 0 0 0 
0 0 0 0 0 0 0 0 0 
0 0 0 0 0 0 0 0 0 
0 0 0 0 0 0 0 0 0 
0 0 0 0 0 0 0 0 0 
0 0 0 0 0 0 0 0 0 
0 0 0 0 0 0 0 0 0 
0 0 0 0 0 0 0 0 0 
0 0 0 0 0 0 0 0 0 
0 0 0 0 0 0 0 0 0 
0 0 0 0 0 0 0 0 0 
0 0 0 0 0 0 0 0 0 
0 0 0 0 0 0 0 0 0 
0 0 0 0 0 0 0 0 0 
0 0 0 0 0 0 0 0 0 
0 0 0 0 0 0 0 0 0 
0 0 0 0 0 0 0 0 0 
0 0 0 0 0 0 0 0 0 
0 0 0 0 0 0 0 0 0 
0 0 0 0 0 0 0 0 0 
0 0 0 0 0 0 0 0 0 
0 0 0 0 0 0 0 0 0 
0 0 0 0 0 0 0 0 0 
0 0 0 0 0 0 0 0 0 
0 0 0 0 0 0 0 0 0 
0 0 0 0 0 0 0 0 0 
0 0 0 0 0 0 0 0 0 
0 0 0 0 0 0 0 0 0 
0 0 0 0 0 0 0 0 0 
0 0 0 0 0 0 0 0 0 
0 0 0 0 0 0 0 0 0 
0 0 0 0 0 0 0 0 0 
0 0 0 0 0 0 0 0 0 
0 0 0 0 0 0 0 0 0 
0 0 0 0 0 0 0 0 0 
0 0 0 0 0 0 0 0 0 
0 0 0 0 0 0 0 0 0 
0 0 0 0 0 0 0 0 0 
0 0 0 0 0 0 0 0 0 
0 0 0 0 0 0 0 0 0 
0 0 0 0 0 0 0 0 0 

