# vtk DataFile Version 5.1
Generated by LIGGGHTS
ASCII
DATASET POLYDATA
POINTS 648 float
-0.0428902 -0.0449088 0.00102 -0.0346971 -0.0446764 0.00102 -0.00340304 -0.0448428 0.00102 
0.0262096 -0.0449372 0.00130821 -0.044759 -0.0437614 0.00102 -0.0335565 -0.0442122 0.00102 
-0.0308094 -0.0435702 0.00102 -0.027409 -0.0433703 0.00102 -0.00396528 -0.0444182 0.0010558 
0.0145521 -0.0432303 0.00102 0.0181024 -0.0433049 0.00102 0.0195053 -0.043722 0.00105998 
0.0416479 -0.0439733 0.00102 -0.0248654 -0.0427111 0.00102 0.0131812 -0.0427533 0.00102 
0.0201641 -0.0426709 0.00105483 0.0248068 -0.0428986 0.00102 0.0348044 -0.042095 0.00102 
0.0418836 -0.0421436 0.00102 -0.0349861 -0.0412827 0.00102 -0.0136468 -0.0412372 0.0012236 
-0.00674967 -0.0416523 0.00102 -0.00521279 -0.0413279 0.00122164 0.000425919 -0.0415728 0.00102 
0.0166138 -0.0412108 0.00106786 0.0238162 -0.0409762 0.00102 0.0338942 -0.0410147 0.00102 
0.0339316 -0.041715 0.00103696 0.0414821 -0.0410789 0.00102 0.0424299 -0.0409921 0.00102 
-0.042922 -0.0404536 0.00102 -0.0406141 -0.0405112 0.00105892 -0.0334706 -0.0396012 0.00102 
-0.0248652 -0.040212 0.00102 -0.018434 -0.0405477 0.00102 -0.0169239 -0.0402939 0.00102 
-0.00670669 -0.0394183 0.00102 0.0244803 -0.0401788 0.00102 0.040047 -0.0404588 0.00102 
-0.0108246 -0.0388127 0.00102 -0.00302782 -0.0385948 0.00102 0.0156715 -0.0391733 0.00102 
-0.0370475 -0.0370945 0.00102 0.00798734 -0.0367051 0.00102 0.00985621 -0.0367022 0.00106328 
0.0308099 -0.0378456 0.00102 0.0341086 -0.0368686 0.00111574 0.0397687 -0.0374633 0.00102 
-0.0439713 -0.0357399 0.00102 -0.0309963 -0.0355024 0.00102 -0.0273176 -0.0361067 0.00102 
-0.0168273 -0.0360331 0.00102 -0.00338111 -0.0363358 0.00117371 -0.00161929 -0.0353994 0.00102459 
0.000822496 -0.0363122 0.00102 0.0195647 -0.0366528 0.00102 0.0307351 -0.0355434 0.0012868 
0.0355384 -0.0354155 0.00102076 -0.0179089 -0.0346335 0.00129016 0.00594186 -0.0351889 0.00102 
0.0077947 -0.0345433 0.00102 0.00879071 -0.0344865 0.00102 0.0333162 -0.0342631 0.00102 
0.0403097 -0.0347888 0.00102286 0.043014 -0.0343178 0.00129662 0.0433459 -0.0353282 0.00102 
-0.0427235 -0.0332389 0.00102 -0.0177803 -0.0340186 0.00115274 -0.0161578 -0.0337243 0.00102611 
-0.00586029 -0.0338127 0.00102 0.023158 -0.0340207 0.00102 0.0244271 -0.0334586 0.00102 
0.027474 -0.0338615 0.00102 -0.0376897 -0.0314333 0.00102 -0.0262624 -0.032473 0.00102 
-0.0232422 -0.0321576 0.00102 -0.0160452 -0.0323821 0.00102 0.00802514 -0.031483 0.00102 
0.0268369 -0.0315202 0.00113865 0.0346336 -0.0325969 0.00102 -0.0396817 -0.0304797 0.00110143 
-0.0386911 -0.0311434 0.00102 -0.0266532 -0.0301716 0.00102 -0.0220587 -0.0306349 0.0010397 
-0.0105296 -0.0314142 0.00102 0.010226 -0.0308634 0.00121847 0.0280204 -0.0311414 0.00102 
0.0449741 -0.0303513 0.00102 -0.0448384 -0.0296834 0.00102 -0.0414327 -0.0290659 0.00107238 
-0.0263426 -0.0292431 0.00102748 0.00231692 -0.0294453 0.00102 0.023019 -0.0293484 0.00106792 
0.0346338 -0.0290927 0.00102 0.0392765 -0.0300093 0.00127601 -0.0401314 -0.0280847 0.00102721 
-0.0346801 -0.0287009 0.0010543 -0.0240024 -0.0280603 0.00103012 0.00577088 -0.0287415 0.00102 
0.0164647 -0.0275391 0.00102 -0.0430551 -0.0267583 0.00102 -0.0240719 -0.0268296 0.00115358 
-0.00580099 -0.0272788 0.00102 0.000892701 -0.0263701 0.00102 0.0101031 -0.0273014 0.00102 
0.03382 -0.0268981 0.00102 -0.0338231 -0.0250135 0.00102 -0.00446216 -0.0255279 0.00102 
0.0054016 -0.025334 0.00127444 0.0306875 -0.0259396 0.00102 0.033456 -0.0256735 0.00102 
0.032808 -0.025967 0.00102 0.0347572 -0.0260666 0.00116664 -0.00863888 -0.0237376 0.00102723 
0.00179778 -0.0247441 0.00102028 0.00538025 -0.0241403 0.00102 0.00558373 -0.0242787 0.00112828 
0.0102479 -0.024092 0.00102719 0.0155599 -0.0240909 0.00102 0.0210005 -0.0239559 0.00133807 
-0.0408326 -0.0234295 0.00102 -0.038621 -0.0229432 0.00119586 -0.0350278 -0.0224863 0.0010202 
-0.0127621 -0.0231756 0.00102 0.0115492 -0.0227248 0.00102 0.0109547 -0.0235646 0.00107369 
0.0240101 -0.0228809 0.00102709 0.035159 -0.023363 0.00105156 -0.0323128 -0.0219837 0.00103619 
-0.0291427 -0.0219343 0.00118348 -0.0225401 -0.0213878 0.00102 -0.0164034 -0.0216001 0.00104232 
0.00623721 -0.0211799 0.00102 0.0233461 -0.0214624 0.00102 0.0262592 -0.0217201 0.00111792 
0.039775 -0.0211058 0.00102 0.0394323 -0.021923 0.00103788 0.0436787 -0.0219137 0.00102 
-0.0210835 -0.0209207 0.00104624 -0.00827992 -0.020547 0.00102 -0.0033641 -0.0204173 0.00114445 
0.00548761 -0.0197918 0.00102046 0.0336491 -0.0197505 0.00102 -0.0296942 -0.0196153 0.00102 
-0.0108877 -0.0188832 0.00102 0.00156248 -0.0194187 0.00102 0.0363266 -0.0194176 0.00102 
-0.0328213 -0.0176588 0.00102 -0.0317771 -0.0175651 0.00102 -0.0204621 -0.0172006 0.00102 
-0.0100897 -0.0180162 0.00102 0.0030191 -0.0179247 0.00102 0.0282033 -0.0178095 0.00112249 
0.0404767 -0.0183151 0.00102 -0.0426154 -0.0165053 0.00102 -0.0405162 -0.0161033 0.00102 
-0.0339565 -0.0167518 0.00102 -0.0257955 -0.0157834 0.00102 -0.0147645 -0.0165889 0.00102512 
0.0223879 -0.0163393 0.00102 0.0252581 -0.0163235 0.00102839 0.038292 -0.016257 0.00102 
-0.0408642 -0.0154151 0.00102 -0.015814 -0.0152491 0.00102 -0.00444012 -0.0151621 0.00102 
0.0198229 -0.0156851 0.00102 0.0249316 -0.014475 0.00102 0.0268005 -0.0146468 0.00102 
0.0323803 -0.0150629 0.00104932 0.0375745 -0.0151367 0.00102 -0.0388614 -0.0136303 0.00102 
-0.0329121 -0.0139828 0.00102 -0.0313057 -0.0141988 0.00102 -0.0227164 -0.0141288 0.00102 
-0.0186412 -0.0134353 0.00102 -0.0117656 -0.0138394 0.00102 -0.00710141 -0.0133745 0.00122985 
0.00886689 -0.0141191 0.00129218 0.0403752 -0.0143085 0.00102 -0.0341597 -0.0122829 0.00102 
-0.0327621 -0.0121928 0.00109013 -0.0269092 -0.0125643 0.00111403 0.0176437 -0.0119747 0.00102 
0.0322358 -0.0130621 0.00131339 0.0347312 -0.012978 0.00108919 0.00689113 -0.0107816 0.00102 
0.0277003 -0.0107969 0.00102 0.0414517 -0.0114994 0.00118734 -0.0253401 -0.0103599 0.00119414 
-0.0222502 -0.00974669 0.00102 -0.0196799 -0.00931279 0.00102 -0.0136128 -0.00979682 0.00104633 
-0.0112192 -0.0104501 0.00102 0.00743742 -0.00926665 0.00102 0.013874 -0.00963069 0.00102 
0.0251729 -0.00985964 0.00102 0.0286804 -0.00919085 0.00102 0.0313953 -0.00974065 0.00102 
0.0334462 -0.00930086 0.00106698 0.0350526 -0.0102353 0.00102 0.0406218 -0.0100941 0.00102 
-0.042331 -0.00792816 0.00102 -0.00553214 -0.00871323 0.00102 -0.00254943 -0.00825679 0.00102 
-0.0344646 -0.00725539 0.00102 -0.0343844 -0.0078404 0.00107017 -0.0304645 -0.00701594 0.00102 
-0.0211095 -0.00770044 0.00106958 -0.0198564 -0.00683511 0.00102 -0.0150798 -0.00698339 0.00129737 
-0.0135858 -0.00672635 0.00102 -0.00433253 -0.00676057 0.001075 -0.00401126 -0.00720159 0.00102 
0.0109664 -0.00760095 0.00102 0.0129906 -0.00677597 0.00121611 0.0161928 -0.00760918 0.00102 
0.0275881 -0.00673863 0.00102 0.0404774 -0.00688032 0.00102 -0.0129003 -0.00574839 0.00102 
-0.00747582 -0.00609419 0.00102 0.00523139 -0.00599236 0.00102044 0.0387156 -0.00624884 0.00102 
-0.040885 -0.00406647 0.00102 0.00937085 -0.00418454 0.00102 0.0131353 -0.00504642 0.00102 
0.0180565 -0.00487531 0.001075 0.0180458 -0.00470109 0.00107444 0.0200271 -0.00425623 0.00118937 
0.021323 -0.00444137 0.00102 -0.042786 -0.00359954 0.00102 -0.0179231 -0.00300678 0.00102 
-0.0141425 -0.00311887 0.00102 -0.0120059 -0.00345367 0.00102 -0.0107529 -0.00365687 0.00119496 
-0.00941413 -0.00330341 0.00107578 0.00975646 -0.00313231 0.00102 0.0293019 -0.00298432 0.00102 
-0.0408474 -0.00214648 0.00102 -0.0395569 -0.00227866 0.00124202 -0.0198668 -0.00211416 0.00107323 
-0.00896956 -0.00131708 0.00102 0.00664535 -0.00164817 0.00102 0.0168839 -0.00210364 0.00102023 
-0.0376932 -0.000132947 0.00102 -0.0281455 -0.00127675 0.00102 -0.0283489 -0.000417126 0.00107107 
-0.0153419 -0.00108619 0.00123307 -0.00783961 -0.000387029 0.00102 -0.00702036 -0.00121172 0.00102 
-0.000610522 -0.00103491 0.00102522 0.00127443 -0.000618905 0.00109611 0.0140084 -6.89735e-05 0.00105776 
0.0290986 -0.000251763 0.00102 -0.0416237 0.00110806 0.00102 -0.0332593 0.000859011 0.00129739 
-0.0260142 0.00017485 0.00102 0.0384376 0.000848974 0.00102 0.0407777 0.000744206 0.00102 
-0.00967086 0.00179773 0.00102 -0.00229178 0.0020129 0.00120423 0.00417698 0.0024455 0.00102 
0.0116524 0.00206193 0.00107611 0.0147261 0.00139147 0.00102 0.0188762 0.00181355 0.00102 
0.032558 0.00153523 0.00102 0.0362421 0.00170773 0.00102 -0.0325416 0.00283857 0.00102 
-0.0233311 0.00384073 0.00119684 0.00243665 0.00282786 0.0010222 0.0183943 0.00266245 0.00113288 
0.0449494 0.00392273 0.00102 -0.027449 0.00511055 0.00122047 -0.025141 0.00447188 0.00102 
0.00314898 0.00491531 0.00104089 0.0260144 0.00429017 0.00104603 0.0292006 0.00433004 0.00102 
0.0305447 0.00486582 0.00102 0.0323225 0.00436429 0.00102 0.0404406 0.00462082 0.00102 
-0.0406381 0.00555966 0.00102 -0.0403489 0.00598291 0.00119316 -0.037077 0.00611456 0.00102 
-0.0287984 0.00559412 0.00102 -0.0170872 0.00564833 0.00102 -0.01547 0.00642247 0.00124148 
-0.00723413 0.00605583 0.00102 -0.00552594 0.00555795 0.00108206 0.0011249 0.00615697 0.00102 
0.0101693 0.00555192 0.00102 0.021602 0.00540593 0.00102 0.0228765 0.00606581 0.00102 
0.0246705 0.0064451 0.00102 0.0250346 0.00641518 0.00103097 0.030759 0.00580352 0.00102 
0.0332757 0.00539899 0.00102 -0.0426568 0.00723228 0.00102 -0.00598638 0.00689803 0.00118944 
0.00533928 0.00728904 0.00102 0.0110904 0.00657535 0.00104685 0.0221269 0.00728552 0.00102 
-0.019893 0.00878872 0.00103908 -0.0105861 0.00898083 0.00103665 0.0142017 0.0079404 0.00102 
0.0202046 0.00840095 0.00102 0.0283387 0.00890506 0.00102 0.0324887 0.00836074 0.00111107 
0.0340899 0.00882812 0.00102 -0.0408306 0.00999374 0.00115701 -0.0392616 0.00972366 0.00102 
-0.0349081 0.00917553 0.00110796 -0.0214351 0.00957734 0.00102 -0.0101256 0.00978275 0.00102 
0.00474506 0.0103043 0.00102 0.00978397 0.00922321 0.00102 0.0197977 0.00963841 0.00102 
0.0212596 0.00979192 0.00102 0.0211953 0.00966092 0.00102 -0.0394276 0.0109375 0.00102 
0.0399323 0.0117688 0.00102 0.0398091 0.011618 0.00102 -0.0365733 0.0119208 0.00102 
-0.0350204 0.0121089 0.00102 -0.00831541 0.0129665 0.00102 -0.00279986 0.0127222 0.00102 
0.00243185 0.0120975 0.00102 0.00861143 0.0123591 0.00102 0.0128044 0.0127337 0.00102 
0.014866 0.0127598 0.00102 0.0261916 0.0119357 0.00102 -0.0429188 0.0135204 0.00102 
-0.034865 0.0142961 0.00102 -0.0310202 0.0131063 0.00102 -0.00867948 0.0139924 0.00102 
-0.00841171 0.0143034 0.00103967 8.23501e-07 0.0138406 0.00102 0.00789931 0.0136568 0.00102 
0.0114764 0.0140289 0.00124213 0.012949 0.0143048 0.00122196 0.0143092 0.0139794 0.00102 
0.0248423 0.0143007 0.00102 0.0287781 0.014071 0.00102 0.0311878 0.014057 0.00102 
0.0336082 0.013194 0.00102 0.0396593 0.013993 0.00106997 0.0441199 0.0136981 0.00102 
-0.0287818 0.014969 0.00135123 -0.0231109 0.0157017 0.00122285 -0.0196462 0.0155185 0.00102 
-0.00307286 0.0144526 0.00102 0.000954082 0.0152563 0.00102 0.0121458 0.0151918 0.00102 
0.0440772 0.0154938 0.00102439 -0.0286532 0.0159811 0.00127266 -0.0161548 0.0159009 0.00125557 
-0.00443291 0.0160613 0.00102 -0.00317984 0.0164631 0.00124355 0.00517921 0.0169249 0.00102 
0.00976298 0.0163696 0.00126558 0.0418335 0.0161761 0.00102 -0.0360536 0.0173104 0.00102 
-0.0193355 0.018129 0.00105644 0.00546842 0.0177814 0.00102416 0.0215224 0.0171285 0.00102 
0.0226738 0.0181095 0.00102 0.0256029 0.0175394 0.00102 0.0407412 0.0174253 0.00102 
-0.0436896 0.0195853 0.00102497 -0.0214239 0.0189608 0.00102 0.00395304 0.0187088 0.00102 
0.00757299 0.0192258 0.00102 0.0090081 0.0191686 0.00102 0.0122157 0.0191756 0.00102 
0.018015 0.0183735 0.00102 0.0388885 0.0193682 0.00102 -0.0431379 0.0208085 0.00102 
-0.023041 0.0197144 0.00102 -0.022709 0.0198803 0.00102 -0.0153727 0.020636 0.00102 
0.00976854 0.0197772 0.00103058 0.0350116 0.0207306 0.00102 -0.0282566 0.021284 0.00102 
-0.0287332 0.0215601 0.00107264 -0.0122989 0.0222019 0.00102649 0.00128112 0.0217131 0.00102 
0.0123926 0.0218243 0.00102 0.0362273 0.0220011 0.00102 0.0398418 0.0217469 0.00102 
-0.0421793 0.0225172 0.00102 -0.0349287 0.0230684 0.00102 -0.0295899 0.0232577 0.00102 
-0.0148746 0.0223253 0.00105714 0.00126512 0.0228658 0.00106499 0.0146363 0.0223077 0.00102 
0.03506 0.0228899 0.00102 -0.0267196 0.0236159 0.00102 -0.00782209 0.0241861 0.00107592 
0.00264144 0.0247174 0.00107028 0.0181332 0.0246356 0.001075 0.0258603 0.0235991 0.00102 
0.0307708 0.0242663 0.00102 0.0438582 0.0244724 0.00102 -0.0386663 0.0253433 0.00102 
-0.00739359 0.0259593 0.00102 0.000162142 0.0251126 0.00115224 0.0167463 0.0251763 0.00102 
0.0226957 0.0260881 0.00102 -0.0267569 0.0263983 0.00102 -0.0190887 0.0269029 0.00102 
-0.0128609 0.0265935 0.00105747 -0.0114472 0.026715 0.00102 -0.0102477 0.0267602 0.00124667 
-0.00563177 0.0268155 0.00102 0.00953871 0.0271324 0.00102 0.0395905 0.0272142 0.00102 
-0.0357156 0.0282031 0.00102 -0.0214233 0.0285543 0.00121841 0.00834461 0.0278725 0.00102 
-0.0406313 0.0295913 0.00129593 -0.0376379 0.0294143 0.00102 -0.0152062 0.0294088 0.00102722 
-0.0127911 0.0299546 0.00102 0.0191509 0.0299648 0.00102 0.0434247 0.0295768 0.00102 
-0.0409258 0.0305044 0.00102 -0.0313244 0.0314049 0.00102 -0.0219587 0.0304934 0.00102 
-0.0200898 0.0311527 0.00102 -0.0108954 0.0304 0.00102 0.00372347 0.0304157 0.00102 
0.0038092 0.0311583 0.00102 0.00519606 0.0301696 0.00102 0.026696 0.03017 0.00102 
0.0364634 0.0310238 0.00102 0.0444958 0.0309554 0.00102 -0.0213481 0.0319153 0.00104035 
-0.0073504 0.0318329 0.00102 -0.00435696 0.0325462 0.00102 0.00390562 0.0317225 0.00102 
0.01325 0.0319187 0.00102 0.0191028 0.0315895 0.00105446 0.0193546 0.0324404 0.00106582 
0.0372507 0.0318783 0.00102 -0.0425374 0.0333781 0.00106829 -0.0337286 0.0337045 0.00102 
-0.0264781 0.032823 0.00102 0.00727395 0.0332762 0.00103376 0.0214431 0.0335886 0.00102 
-0.00472634 0.0344449 0.00103829 0.00284552 0.0345861 0.00102 0.00317215 0.0343196 0.00102 
0.0164577 0.0353116 0.00109278 0.0231674 0.0340949 0.00102 -0.041477 0.0364172 0.00102 
-0.0407273 0.0358476 0.00104533 -0.00196307 0.0366495 0.00102 0.00888594 0.0360502 0.00103942 
-0.0245447 0.0378537 0.00102 0.0030545 0.0369981 0.00102 0.0297434 0.0373158 0.00102 
0.0311732 0.0371467 0.00102 -0.00973825 0.0391656 0.00102 -0.00883869 0.0381834 0.00102 
-0.00647711 0.0391566 0.00102 -0.00585061 0.0388609 0.00108149 0.0165329 0.0385374 0.00102 
0.0238959 0.0383247 0.00102 0.0281745 0.039089 0.00102 -0.039126 0.0399637 0.00132463 
-0.0375088 0.0393741 0.00102 -0.0312382 0.0393096 0.00102 -0.0112537 0.0395394 0.00102 
0.00201585 0.0404036 0.00106631 0.0221021 0.0401282 0.00102 0.0251972 0.0393087 0.00102 
-0.0133259 0.0414802 0.00102 0.0163992 0.0415262 0.00102 0.0222253 0.0407186 0.00102 
-0.0390027 0.0421086 0.00102 0.00805094 0.0422278 0.00102 0.0170579 0.0421878 0.00128163 
0.0294278 0.0431452 0.00102 -0.0205282 0.0432397 0.00102 -0.0181988 0.0434549 0.00102 
0.00528787 0.0432844 0.00107297 0.0114086 0.0440135 0.00102 0.0352701 0.0439749 0.00102 
0.0352379 0.0438995 0.00102 0.0405446 0.0433429 0.00102 0.0399235 0.0434757 0.00102 
-0.0160353 0.0448572 0.0012105 0.0171919 0.0449185 0.00102 0.0211706 0.0445491 0.00102 
-0.0317519 -0.0446953 0.0013324 -0.0389435 -0.0425966 0.0014345 0.0406519 -0.0427256 0.00136489 
-0.0385899 -0.0405251 0.00186584 0.00849583 -0.0405939 0.00135127 -0.0289295 -0.0389067 0.00132311 
-0.0234086 -0.038644 0.00169836 -0.0195638 -0.0385913 0.00145407 0.0325128 -0.03812 0.00147901 
-0.0177429 -0.0346724 0.00135151 -8.23525e-05 -0.034098 0.00145087 0.00264867 -0.0338128 0.00125769 
0.0289145 -0.0340196 0.00169432 -0.0233761 -0.031813 0.001343 -0.0210092 -0.0320472 0.00134341 
0.0153133 -0.0285941 0.00131121 0.0156293 -0.0283842 0.00136635 -0.0432264 -0.0264101 0.00132788 
-0.0419519 -0.0259749 0.0024101 0.0350196 -0.0250011 0.00138618 -0.0139777 -0.0223984 0.00231044 
-0.0207996 -0.0190456 0.00134932 0.0134129 -0.0192809 0.00130141 0.0204492 -0.0194639 0.00140312 
-0.0183202 -0.0175475 0.00178174 0.0184681 -0.0172117 0.00135482 0.0296492 -0.015918 0.00133048 
0.0132043 -0.01541 0.00147441 -0.0279963 -0.0141356 0.00147893 0.0144468 -0.013247 0.00129066 
-0.00528066 -0.0121118 0.00126436 0.0253763 -0.011051 0.00144261 0.0342493 -0.0115037 0.00167571 
-0.038829 -0.00978443 0.00132398 0.0218314 -0.00971151 0.00124726 -0.0214415 -0.007536 0.00150203 
-0.0101373 -0.00698039 0.00113836 -0.00720807 -0.00608605 0.00144411 -0.00474481 -0.00600267 0.00219688 
-0.0253129 -0.0039775 0.0014225 0.0414788 -0.00521487 0.00178728 0.0448793 -0.00396119 0.00243166 
0.0154702 -0.00154679 0.00174429 -0.0356048 -0.000104637 0.00212164 0.0420414 -0.00101026 0.00139346 
-0.0131355 0.00164571 0.0015338 0.0189244 0.00254502 0.00145414 -0.0261639 0.00337815 0.00133526 
-0.0137512 0.00384646 0.00156734 0.00265626 0.00371614 0.00126193 0.00347554 0.00338662 0.00201627 
0.0358407 0.00533501 0.00147651 -0.0429246 0.00657681 0.0012951 -0.009285 0.00693532 0.00149486 
0.023953 0.00820576 0.00244442 -0.0408092 0.00981999 0.00187339 0.0234497 0.00978487 0.0013469 
0.027557 0.009967 0.00137348 -0.00808524 0.0113378 0.00148488 -0.00071691 0.0108932 0.00129354 
0.00418285 0.0112423 0.00196344 -0.0081225 0.0151775 0.00198564 -0.0408838 0.0159645 0.00137678 
-0.0363159 0.0185996 0.00141259 -0.0144089 0.0201081 0.00191504 0.00742845 0.0199749 0.00149144 
-0.0324762 0.0230005 0.00147904 -0.0436572 0.0238848 0.00139104 -0.0138035 0.0240512 0.00127399 
0.021223 0.0244832 0.00135855 -0.0132251 0.0252506 0.00138098 -0.0269229 0.0267788 0.00225197 
-0.0296003 0.0277025 0.00159863 0.0397191 0.0283771 0.00147252 -0.0368667 0.0306348 0.00219577 
-0.032208 0.0306075 0.0020942 0.0040127 0.0314243 0.00144881 0.0337272 0.0324898 0.00138388 
0.0380057 0.0324307 0.00146713 -0.0359241 0.0337864 0.00197166 0.0152528 0.033152 0.00132161 
-0.0422696 0.0340949 0.00214142 0.0132394 0.0345575 0.0020699 0.0278529 0.0342296 0.00143206 
-0.0155539 0.0359545 0.00223191 -0.00750544 0.0361316 0.00134695 0.00367032 0.0371324 0.00136343 
-0.0379532 0.0399341 0.0018595 -0.00785852 0.041878 0.00198168 0.0430506 0.0422314 0.00201068 
-0.0390775 0.0447256 0.00143321 -0.0190394 0.0446837 0.00211321 0.0147823 -0.0446949 0.00312152 
0.0185094 -0.042363 0.0029006 0.0419483 -0.0348097 0.00326487 -0.00682403 -0.0314098 0.00287375 
0.0412685 -0.0295104 0.00252884 -0.015788 -0.0282898 0.00325709 -0.0336946 -0.0248459 0.0036631 
-0.0328109 -0.0226975 0.00343897 -0.0329608 -0.0218045 0.00302348 0.0218308 -0.0192565 0.00353476 
0.0414834 -0.0181367 0.00348003 -0.0393221 -0.0167834 0.00356202 -0.0420316 -0.0145538 0.00321548 
0.0302919 -0.0148257 0.00320811 0.0323804 -0.0132471 0.00271534 0.0433204 -0.0141837 0.00310264 
-0.0207563 -0.0111167 0.00360437 0.0223025 -0.0112244 0.00319078 -0.0449336 -0.00957357 0.00364601 
-0.0386256 -0.00983966 0.00302619 -0.0326334 -0.00963456 0.00281379 -0.024842 -0.00884532 0.00306083 
0.00357123 -0.00830953 0.00235666 0.0386193 -0.00496685 0.00306538 0.0277548 0.0042931 0.00286255 
0.0320014 0.00756294 0.00255747 -0.0442311 0.00821601 0.00370834 -0.0371624 0.011326 0.00365553 
0.0379188 0.0120326 0.0031502 0.012585 0.0155082 0.00319653 0.0153641 0.0146287 0.00275859 
-0.0245993 0.0193658 0.00332462 0.0323341 0.0191974 0.0030336 0.00153271 0.0201988 0.0029113 
-0.014478 0.0275162 0.00336852 0.0104707 0.0313218 0.00279565 0.0354139 0.0312817 0.00265172 
-0.0197415 0.0344175 0.00281691 0.0439232 0.0371117 0.00385844 0.00308146 0.0401468 0.00313131 
-0.0437633 0.0406561 0.00305514 -0.0281804 0.0418824 0.00370079 0.00513794 0.0433856 0.0031188 
-0.0440308 0.0448256 0.00294805 -0.0225361 -0.0441701 0.00429987 0.0282359 -0.00877456 0.00374877 
0.0127657 -0.00746761 0.00418794 0.039455 -0.000236508 0.00448979 0.0133448 0.00646544 0.00419957 
-0.0256005 0.0215871 0.00340236 -0.0260391 0.0304395 0.00404622 0.0131273 0.040817 0.0038623 
0.0272875 -0.0186725 0.00523697 0.0242571 -0.0100823 0.00598308 0.0352883 -0.0103067 0.00530866 
0.00635633 0.000852437 0.00479197 -0.00757157 0.00454821 0.00517458 -0.0122189 0.0175978 0.00526083 
0.0188903 -0.0308528 0.00722547 -0.0207679 -0.0256315 0.00778397 0.00643655 -0.000956063 0.00856886 
-0.00254916 -0.00379952 0.010326 -0.0170112 0.0231088 0.0105986 0.00741479 -0.0295782 0.0147453 

VERTICES 649 648
OFFSETS vtktypeint64
0 1 2 3 4 5 6 7 8 
9 10 11 12 13 14 15 16 17 
18 19 20 21 22 23 24 25 26 
27 28 29 30 31 32 33 34 35 
36 37 38 39 40 41 42 43 44 
45 46 47 48 49 50 51 52 53 
54 55 56 57 58 59 60 61 62 
63 64 65 66 67 68 69 70 71 
72 73 74 75 76 77 78 79 80 
81 82 83 84 85 86 87 88 89 
90 91 92 93 94 95 96 97 98 
99 100 101 102 103 104 105 106 107 
108 109 110 111 112 113 114 115 116 
117 118 119 120 121 122 123 124 125 
126 127 128 129 130 131 132 133 134 
135 136 137 138 139 140 141 142 143 
144 145 146 147 148 149 150 151 152 
153 154 155 156 157 158 159 160 161 
162 163 164 165 166 167 168 169 170 
171 172 173 174 175 176 177 178 179 
180 181 182 183 184 185 186 187 188 
189 190 191 192 193 194 195 196 197 
198 199 200 201 202 203 204 205 206 
207 208 209 210 211 212 213 214 215 
216 217 218 219 220 221 222 223 224 
225 226 227 228 229 230 231 232 233 
234 235 236 237 238 239 240 241 242 
243 244 245 246 247 248 249 250 251 
252 253 254 255 256 257 258 259 260 
261 262 263 264 265 266 267 268 269 
270 271 272 273 274 275 276 277 278 
279 280 281 282 283 284 285 286 287 
288 289 290 291 292 293 294 295 296 
297 298 299 300 301 302 303 304 305 
306 307 308 309 310 311 312 313 314 
315 316 317 318 319 320 321 322 323 
324 325 326 327 328 329 330 331 332 
333 334 335 336 337 338 339 340 341 
342 343 344 345 346 347 348 349 350 
351 352 353 354 355 356 357 358 359 
360 361 362 363 364 365 366 367 368 
369 370 371 372 373 374 375 376 377 
378 379 380 381 382 383 384 385 386 
387 388 389 390 391 392 393 394 395 
396 397 398 399 400 401 402 403 404 
405 406 407 408 409 410 411 412 413 
414 415 416 417 418 419 420 421 422 
423 424 425 426 427 428 429 430 431 
432 433 434 435 436 437 438 439 440 
441 442 443 444 445 446 447 448 449 
450 451 452 453 454 455 456 457 458 
459 460 461 462 463 464 465 466 467 
468 469 470 471 472 473 474 475 476 
477 478 479 480 481 482 483 484 485 
486 487 488 489 490 491 492 493 494 
495 496 497 498 499 500 501 502 503 
504 505 506 507 508 509 510 511 512 
513 514 515 516 517 518 519 520 521 
522 523 524 525 526 527 528 529 530 
531 532 533 534 535 536 537 538 539 
540 541 542 543 544 545 546 547 548 
549 550 551 552 553 554 555 556 557 
558 559 560 561 562 563 564 565 566 
567 568 569 570 571 572 573 574 575 
576 577 578 579 580 581 582 583 584 
585 586 587 588 589 590 591 592 593 
594 595 596 597 598 599 600 601 602 
603 604 605 606 607 608 609 610 611 
612 613 614 615 616 617 618 619 620 
621 622 623 624 625 626 627 628 629 
630 631 632 633 634 635 636 637 638 
639 640 641 642 643 644 645 646 647 
648 
CONNECTIVITY vtktypeint64
0 1 2 3 4 5 6 7 8 
9 10 11 12 13 14 15 16 17 
18 19 20 21 22 23 24 25 26 
27 28 29 30 31 32 33 34 35 
36 37 38 39 40 41 42 43 44 
45 46 47 48 49 50 51 52 53 
54 55 56 57 58 59 60 61 62 
63 64 65 66 67 68 69 70 71 
72 73 74 75 76 77 78 79 80 
81 82 83 84 85 86 87 88 89 
90 91 92 93 94 95 96 97 98 
99 100 101 102 103 104 105 106 107 
108 109 110 111 112 113 114 115 116 
117 118 119 120 121 122 123 124 125 
126 127 128 129 130 131 132 133 134 
135 136 137 138 139 140 141 142 143 
144 145 146 147 148 149 150 151 152 
153 154 155 156 157 158 159 160 161 
162 163 164 165 166 167 168 169 170 
171 172 173 174 175 176 177 178 179 
180 181 182 183 184 185 186 187 188 
189 190 191 192 193 194 195 196 197 
198 199 200 201 202 203 204 205 206 
207 208 209 210 211 212 213 214 215 
216 217 218 219 220 221 222 223 224 
225 226 227 228 229 230 231 232 233 
234 235 236 237 238 239 240 241 242 
243 244 245 246 247 248 249 250 251 
252 253 254 255 256 257 258 259 260 
261 262 263 264 265 266 267 268 269 
270 271 272 273 274 275 276 277 278 
279 280 281 282 283 284 285 286 287 
288 289 290 291 292 293 294 295 296 
297 298 299 300 301 302 303 304 305 
306 307 308 309 310 311 312 313 314 
315 316 317 318 319 320 321 322 323 
324 325 326 327 328 329 330 331 332 
333 334 335 336 337 338 339 340 341 
342 343 344 345 346 347 348 349 350 
351 352 353 354 355 356 357 358 359 
360 361 362 363 364 365 366 367 368 
369 370 371 372 373 374 375 376 377 
378 379 380 381 382 383 384 385 386 
387 388 389 390 391 392 393 394 395 
396 397 398 399 400 401 402 403 404 
405 406 407 408 409 410 411 412 413 
414 415 416 417 418 419 420 421 422 
423 424 425 426 427 428 429 430 431 
432 433 434 435 436 437 438 439 440 
441 442 443 444 445 446 447 448 449 
450 451 452 453 454 455 456 457 458 
459 460 461 462 463 464 465 466 467 
468 469 470 471 472 473 474 475 476 
477 478 479 480 481 482 483 484 485 
486 487 488 489 490 491 492 493 494 
495 496 497 498 499 500 501 502 503 
504 505 506 507 508 509 510 511 512 
513 514 515 516 517 518 519 520 521 
522 523 524 525 526 527 528 529 530 
531 532 533 534 535 536 537 538 539 
540 541 542 543 544 545 546 547 548 
549 550 551 552 553 554 555 556 557 
558 559 560 561 562 563 564 565 566 
567 568 569 570 571 572 573 574 575 
576 577 578 579 580 581 582 583 584 
585 586 587 588 589 590 591 592 593 
594 595 596 597 598 599 600 601 602 
603 604 605 606 607 608 609 610 611 
612 613 614 615 616 617 618 619 620 
621 622 623 624 625 626 627 628 629 
630 631 632 633 634 635 636 637 638 
639 640 641 642 643 644 645 646 647 

POINT_DATA 648
FIELD FieldData 12
id 1 648 int
164 275 98 534 463 366 200 188 89 
84 346 93 31 113 414 203 390 140 
218 562 68 457 632 591 52 429 577 
597 207 271 134 549 256 87 35 99 
314 326 508 34 92 459 411 115 102 
356 626 122 22 487 82 226 67 159 
24 436 492 344 402 367 489 319 88 
69 47 605 229 350 156 571 51 347 
589 477 303 404 570 505 5 543 525 
333 304 250 185 283 107 352 137 393 
295 139 103 294 533 502 354 96 331 
445 128 13 409 291 645 183 415 604 
532 121 190 267 430 493 116 484 79 
223 71 234 282 37 526 416 449 192 
323 329 576 547 64 160 167 472 573 
237 111 317 403 174 25 28 470 479 
154 440 238 274 439 298 247 289 517 
355 496 572 73 176 462 444 553 170 
143 374 381 168 240 290 74 194 58 
500 306 612 59 215 490 441 211 380 
146 8 349 566 259 106 292 638 23 
227 248 264 231 428 127 427 483 157 
38 293 311 95 324 260 53 563 399 
511 72 522 32 6 42 336 580 278 
615 368 383 243 377 299 567 370 515 
11 252 105 125 263 57 385 257 171 
142 20 592 360 382 405 151 135 371 
204 542 205 217 132 66 564 365 265 
341 75 389 83 465 196 36 565 175 
208 90 186 538 61 334 212 244 305 
86 284 56 593 379 418 458 216 141 
503 501 495 407 478 245 486 545 456 
546 396 467 353 474 454 126 450 213 
426 528 423 124 144 424 112 129 145 
165 453 261 400 197 288 338 497 255 
214 420 601 432 373 345 181 262 60 
273 401 378 21 446 384 297 169 119 
17 322 46 633 41 150 491 310 395 
236 363 63 48 70 178 202 469 308 
358 228 468 220 473 193 15 40 433 
184 587 339 54 118 392 152 110 417 
443 364 447 117 161 357 521 149 166 
514 33 49 138 431 337 18 529 279 
287 330 254 325 394 104 219 109 14 
520 12 507 189 206 100 162 9 195 
163 408 498 266 30 535 280 199 461 
410 209 509 524 451 540 504 321 114 
506 488 419 187 343 201 158 81 268 
26 327 583 253 222 148 29 481 65 
94 455 348 270 225 235 387 85 313 
552 251 233 309 232 286 437 182 362 
198 320 559 413 45 246 328 536 523 
76 318 155 123 435 386 361 412 62 
372 91 434 108 406 375 342 302 397 
475 272 351 614 55 438 242 258 471 
648 136 312 173 210 359 518 388 616 
634 239 307 147 120 527 574 335 513 
177 44 448 539 551 422 376 276 460 
43 340 628 16 101 10 39 224 557 
285 647 50 610 568 80 499 77 519 
300 598 641 153 301 425 510 4 296 
480 442 221 464 619 315 485 625 281 
130 191 97 78 131 637 609 179 594 
596 332 180 466 494 579 550 391 421 
624 452 482 249 277 19 476 172 241 
635 584 398 548 629 581 541 578 558 
603 618 590 537 530 644 585 599 554 
544 617 569 608 133 613 556 316 595 
620 560 622 582 607 561 369 611 623 
600 531 643 575 555 586 639 230 602 
27 2 512 646 269 606 516 1 3 
630 631 7 636 627 621 642 588 640 

type 1 648 int
1 1 1 1 1 1 1 1 1 
1 1 1 1 1 1 1 1 1 
1 1 1 1 1 1 1 1 1 
1 1 1 1 1 1 1 1 1 
1 1 1 1 1 1 1 1 1 
1 1 1 1 1 1 1 1 1 
1 1 1 1 1 1 1 1 1 
1 1 1 1 1 1 1 1 1 
1 1 1 1 1 1 2 1 1 
1 1 1 1 1 1 1 1 1 
1 1 1 1 1 1 1 1 1 
1 1 2 1 1 1 1 1 1 
1 1 1 1 1 1 1 1 1 
1 1 1 1 1 1 1 1 1 
1 1 1 1 1 1 1 1 1 
1 1 1 1 1 1 1 1 1 
1 1 1 1 1 1 1 1 1 
1 1 1 1 1 1 1 1 1 
1 1 1 1 1 1 1 1 1 
1 1 1 1 1 1 1 1 1 
1 2 1 1 1 1 1 1 1 
1 1 1 1 1 1 1 1 1 
1 1 1 1 1 1 1 1 1 
1 1 1 1 2 1 1 1 1 
1 1 1 1 1 1 1 1 1 
2 1 1 1 1 1 1 1 1 
1 1 1 1 1 1 1 1 1 
1 1 1 1 1 1 1 1 1 
1 1 1 1 1 1 1 1 1 
1 1 1 1 1 1 1 1 1 
1 1 1 1 1 1 1 1 1 
1 1 1 1 1 1 1 1 1 
1 1 1 1 1 1 1 1 1 
1 1 1 1 1 1 1 1 1 
1 1 1 1 1 1 1 1 1 
1 1 1 1 1 1 1 1 1 
1 1 1 1 1 1 1 1 1 
1 1 1 1 1 1 1 1 1 
1 1 1 1 1 1 1 1 1 
1 1 1 1 1 1 2 1 1 
1 1 1 1 1 1 1 1 1 
1 1 1 1 1 1 1 1 1 
1 1 1 1 1 1 1 1 1 
1 1 1 1 1 1 1 1 2 
1 2 1 1 1 1 1 2 1 
1 1 1 1 1 1 1 1 1 
1 1 1 1 1 1 1 1 1 
1 1 1 1 1 1 1 1 1 
1 1 1 1 1 1 1 1 1 
1 1 1 1 1 1 1 1 1 
1 1 1 1 1 1 1 1 1 
1 1 1 1 1 1 1 1 1 
1 1 1 1 1 1 1 1 1 
1 1 1 1 1 1 1 1 1 
1 1 1 1 1 1 1 1 1 
1 1 1 1 1 1 1 1 1 
2 1 1 1 1 1 1 1 1 
1 1 1 1 1 1 1 1 1 
1 1 1 2 1 2 1 1 1 
1 1 1 1 1 1 1 1 1 
1 1 1 1 1 1 1 2 1 
1 1 1 1 1 1 1 1 1 
1 1 1 1 1 1 1 1 1 
1 1 1 1 1 1 1 1 1 
1 1 1 1 1 1 1 1 1 
1 1 1 1 1 1 1 1 1 
1 1 1 1 1 1 1 1 1 
1 1 1 1 1 1 1 1 1 
1 1 1 1 1 1 1 1 1 
1 1 1 1 1 1 1 1 1 
1 3 2 1 1 1 2 4 2 
1 1 2 1 1 1 1 1 1 

i 3 648 int
0 0 0 0 0 0 0 0 0 
0 0 0 0 0 0 0 0 0 
0 0 0 0 0 0 0 0 0 
0 0 0 0 0 0 0 0 0 
0 0 0 0 0 0 0 0 0 
0 0 0 0 0 0 0 0 0 
0 0 0 0 0 0 0 0 0 
0 0 0 0 0 0 0 0 0 
0 0 0 0 0 0 0 0 0 
0 0 0 0 0 0 0 0 0 
0 0 0 0 0 0 0 0 0 
0 0 0 0 0 0 0 0 0 
0 0 0 0 0 0 0 0 0 
0 0 0 0 0 0 0 0 0 
0 0 0 0 0 0 0 0 0 
0 0 0 0 0 0 0 0 0 
0 0 0 0 0 0 0 0 0 
0 0 0 0 0 0 0 0 0 
0 0 0 0 0 0 0 0 0 
0 0 0 0 0 0 0 0 0 
0 0 0 0 0 0 0 0 0 
0 0 0 0 0 0 0 0 0 
0 0 0 0 0 0 0 0 0 
0 0 0 0 0 0 0 0 0 
0 0 0 0 0 0 0 0 0 
0 0 0 0 0 0 0 0 0 
0 0 0 0 0 0 0 0 0 
0 0 0 0 0 0 0 0 0 
0 0 0 0 0 0 0 0 0 
0 0 0 0 0 0 0 0 0 
0 0 0 0 0 0 0 0 0 
0 0 0 0 0 0 0 0 0 
0 0 0 0 0 0 0 0 0 
0 0 0 0 0 0 0 0 0 
0 0 0 0 0 0 0 0 0 
0 0 0 0 0 0 0 0 0 
0 0 0 0 0 0 0 0 0 
0 0 0 0 0 0 0 0 0 
0 0 0 0 0 0 0 0 0 
0 0 0 0 0 0 0 0 0 
0 0 0 0 0 0 0 0 0 
0 0 0 0 0 0 0 0 0 
0 0 0 0 0 0 0 0 0 
0 0 0 0 0 0 0 0 0 
0 0 0 0 0 0 0 0 0 
0 0 0 0 0 0 0 0 0 
0 0 0 0 0 0 0 0 0 
0 0 0 0 0 0 0 0 0 
0 0 0 0 0 0 0 0 0 
0 0 0 0 0 0 0 0 0 
0 0 0 0 0 0 0 0 0 
0 0 0 0 0 0 0 0 0 
0 0 0 0 0 0 0 0 0 
0 0 0 0 0 0 0 0 0 
0 0 0 0 0 0 0 0 0 
0 0 0 0 0 0 0 0 0 
0 0 0 0 0 0 0 0 0 
0 0 0 0 0 0 0 0 0 
0 0 0 0 0 0 0 0 0 
0 0 0 0 0 0 0 0 0 
0 0 0 0 0 0 0 0 0 
0 0 0 0 0 0 0 0 0 
0 0 0 0 0 0 0 0 0 
0 0 0 0 0 0 0 0 0 
0 0 0 0 0 0 0 0 0 
0 0 0 0 0 0 0 0 0 
0 0 0 0 0 0 0 0 0 
0 0 0 0 0 0 0 0 0 
0 0 0 0 0 0 0 0 0 
0 0 0 0 0 0 0 0 0 
0 0 0 0 0 0 0 0 0 
0 0 0 0 0 0 0 0 0 
0 0 0 0 0 0 0 0 0 
0 0 0 0 0 0 0 0 0 
0 0 0 0 0 0 0 0 0 
0 0 0 0 0 0 0 0 0 
0 0 0 0 0 0 0 0 0 
0 0 0 0 0 0 0 0 0 
0 0 0 0 0 0 0 0 0 
0 0 0 0 0 0 0 0 0 
0 0 0 0 0 0 0 0 0 
0 0 0 0 0 0 0 0 0 
0 0 0 0 0 0 0 0 0 
0 0 0 0 0 0 0 0 0 
0 0 0 0 0 0 0 0 0 
0 0 0 0 0 0 0 0 0 
0 0 0 0 0 0 0 0 0 
0 0 0 0 0 0 0 0 0 
0 0 0 0 0 0 0 0 0 
0 0 0 0 0 0 0 0 0 
0 0 0 0 0 0 0 0 0 
0 0 0 0 0 0 0 0 0 
0 0 0 0 0 0 0 0 0 
0 0 0 0 0 0 0 0 0 
0 0 0 0 0 0 0 0 0 
0 0 0 0 0 0 0 0 0 
0 0 0 0 0 0 0 0 0 
0 0 0 0 0 0 0 0 0 
0 0 0 0 0 0 0 0 0 
0 0 0 0 0 0 0 0 0 
0 0 0 0 0 0 0 0 0 
0 0 0 0 0 0 0 0 0 
0 0 0 0 0 0 0 0 0 
0 0 0 0 0 0 0 0 0 
0 0 0 0 0 0 0 0 0 
0 0 0 0 0 0 0 0 0 
0 0 0 0 0 0 0 0 0 
0 0 0 0 0 0 0 0 0 
0 0 0 0 0 0 0 0 0 
0 0 0 0 0 0 0 0 0 
0 0 0 0 0 0 0 0 0 
0 0 0 0 0 0 0 0 0 
0 0 0 0 0 0 0 0 0 
0 0 0 0 0 0 0 0 0 
0 0 0 0 0 0 0 0 0 
0 0 0 0 0 0 0 0 0 
0 0 0 0 0 0 0 0 0 
0 0 0 0 0 0 0 0 0 
0 0 0 0 0 0 0 0 0 
0 0 0 0 0 0 0 0 0 
0 0 0 0 0 0 0 0 0 
0 0 0 0 0 0 0 0 0 
0 0 0 0 0 0 0 0 0 
0 0 0 0 0 0 0 0 0 
0 0 0 0 0 0 0 0 0 
0 0 0 0 0 0 0 0 0 
0 0 0 0 0 0 0 0 0 
0 0 0 0 0 0 0 0 0 
0 0 0 0 0 0 0 0 0 
0 0 0 0 0 0 0 0 0 
0 0 0 0 0 0 0 0 0 
0 0 0 0 0 0 0 0 0 
0 0 0 0 0 0 0 0 0 
0 0 0 0 0 0 0 0 0 
0 0 0 0 0 0 0 0 0 
0 0 0 0 0 0 0 0 0 
0 0 0 0 0 0 0 0 0 
0 0 0 0 0 0 0 0 0 
0 0 0 0 0 0 0 0 0 
0 0 0 0 0 0 0 0 0 
0 0 0 0 0 0 0 0 0 
0 0 0 0 0 0 0 0 0 
0 0 0 0 0 0 0 0 0 
0 0 0 0 0 0 0 0 0 
0 0 0 0 0 0 0 0 0 
0 0 0 0 0 0 0 0 0 
0 0 0 0 0 0 0 0 0 
0 0 0 0 0 0 0 0 0 
0 0 0 0 0 0 0 0 0 
0 0 0 0 0 0 0 0 0 
0 0 0 0 0 0 0 0 0 
0 0 0 0 0 0 0 0 0 
0 0 0 0 0 0 0 0 0 
0 0 0 0 0 0 0 0 0 
0 0 0 0 0 0 0 0 0 
0 0 0 0 0 0 0 0 0 
0 0 0 0 0 0 0 0 0 
0 0 0 0 0 0 0 0 0 
0 0 0 0 0 0 0 0 0 
0 0 0 0 0 0 0 0 0 
0 0 0 0 0 0 0 0 0 
0 0 0 0 0 0 0 0 0 
0 0 0 0 0 0 0 0 0 
0 0 0 0 0 0 0 0 0 
0 0 0 0 0 0 0 0 0 
0 0 0 0 0 0 0 0 0 
0 0 0 0 0 0 0 0 0 
0 0 0 0 0 0 0 0 0 
0 0 0 0 0 0 0 0 0 
0 0 0 0 0 0 0 0 0 
0 0 0 0 0 0 0 0 0 
0 0 0 0 0 0 0 0 0 
0 0 0 0 0 0 0 0 0 
0 0 0 0 0 0 0 0 0 
0 0 0 0 0 0 0 0 0 
0 0 0 0 0 0 0 0 0 
0 0 0 0 0 0 0 0 0 
0 0 0 0 0 0 0 0 0 
0 0 0 0 0 0 0 0 0 
0 0 0 0 0 0 0 0 0 
0 0 0 0 0 0 0 0 0 
0 0 0 0 0 0 0 0 0 
0 0 0 0 0 0 0 0 0 
0 0 0 0 0 0 0 0 0 
0 0 0 0 0 0 0 0 0 
0 0 0 0 0 0 0 0 0 
0 0 0 0 0 0 0 0 0 
0 0 0 0 0 0 0 0 0 
0 0 0 0 0 0 0 0 0 
0 0 0 0 0 0 0 0 0 
0 0 0 0 0 0 0 0 0 
0 0 0 0 0 0 0 0 0 
0 0 0 0 0 0 0 0 0 
0 0 0 0 0 0 0 0 0 
0 0 0 0 0 0 0 0 0 
0 0 0 0 0 0 0 0 0 
0 0 0 0 0 0 0 0 0 
0 0 0 0 0 0 0 0 0 
0 0 0 0 0 0 0 0 0 
0 0 0 0 0 0 0 0 0 
0 0 0 0 0 0 0 0 0 
0 0 0 0 0 0 0 0 0 
0 0 0 0 0 0 0 0 0 
0 0 0 0 0 0 0 0 0 
0 0 0 0 0 0 0 0 0 
0 0 0 0 0 0 0 0 0 
0 0 0 0 0 0 0 0 0 
0 0 0 0 0 0 0 0 0 
0 0 0 0 0 0 0 0 0 
0 0 0 0 0 0 0 0 0 
0 0 0 0 0 0 0 0 0 
0 0 0 0 0 0 0 0 0 
0 0 0 0 0 0 0 0 0 
0 0 0 0 0 0 0 0 0 
0 0 0 0 0 0 0 0 0 
0 0 0 0 0 0 0 0 0 

v 3 648 double
0 0 3.2413285931e-14 0 0 3.2413289883e-14 0 0 -1.5605880046e-14 
0 0 0.0017406519023 0 0 3.2413285929e-14 0 0 8.0432447451e-14 
0 0 3.2413290076e-14 0 0 3.2413289856e-14 0 0 -0.036633379264 
0 0 3.2413289922e-14 0 0 8.0432447445e-14 0 0 -0.0028070928309 
0 0 8.0432447453e-14 0 0 8.0432447407e-14 0 0 3.2413290034e-14 
0 0 0.0071260140222 0 0 8.0432447423e-14 0 0 8.0432443483e-14 
0 0 8.0432443462e-14 0 0 8.0432443484e-14 0 0 -0.028112242141 
0 0 8.0432443502e-14 0 0 0.078102298206 0 0 3.2413286069e-14 
0 0 0.0063899815474 0 0 -1.5605880184e-14 0 0 3.2413289858e-14 
0 0 0.03391247773 0 0 -1.5605880166e-14 0 0 -1.5605879983e-14 
0 0 8.0432447366e-14 0 0 -0.0013002740928 0 0 8.0432443586e-14 
0 0 -1.5605880071e-14 0 0 8.0432443653e-14 0 0 8.0432443501e-14 
0 0 8.0432447523e-14 0 0 8.0432443558e-14 0 0 3.241328596e-14 
0 0 8.0432443647e-14 0 0 3.2413286072e-14 0 0 3.2413289944e-14 
0 0 3.2413289992e-14 0 0 3.2413286006e-14 0 0 -0.0051390394294 
0 0 -1.5605879955e-14 0 0 0.019110826185 0 0 8.0432447447e-14 
0 0 -1.5605879966e-14 0 0 3.241329004e-14 0 0 3.241328992e-14 
0 0 3.2413290075e-14 0 0 0.021752566918 0 0 -0.0027233227047 
0 0 3.2413286102e-14 0 0 -1.5605880187e-14 0 0 0.020707009227 
0 0 0.012887246501 0 0 0.022584757988 0 0 8.0432447578e-14 
0 0 -6.3625037542e-14 0 0 -1.560588001e-14 0 0 8.0432443439e-14 
0 0 -0.0037127971509 0 0 0.010890748591 0 0 -1.560588394e-14 
0 0 -6.3625041662e-14 0 0 -0.026214128256 0 0 0.00055702127017 
0 0 8.043244362e-14 0 0 8.0432447536e-14 0 0 3.241329003e-14 
0 0 8.043244348e-14 0 0 3.241329004e-14 0 0 3.2413289948e-14 
0 0 3.2413290061e-14 0 0 8.0432443556e-14 0 0 8.0432447391e-14 
0 0 -0.044852097999 0 0 8.0432443566e-14 0 0 -0.081103548997 
0 0 -6.3625037751e-14 0 0 3.2413289938e-14 0 0 -0.037896869978 
0 0 8.0432447378e-14 0 0 0.020350532891 0 0 8.0432447469e-14 
0 0 3.2413289892e-14 0 0 8.0432443568e-14 0 0 -0.001155772135 
0 0 -0.0021234421123 0 0 -1.5605880029e-14 0 0 -0.0017658047583 
0 0 3.2413290012e-14 0 0 -0.010894540228 0 0 -0.00013965809078 
0 0 -0.0020503710697 0 0 0.0023771216987 0 0 8.0432443464e-14 
0 0 8.043244351e-14 0 0 3.2413286112e-14 0 0 0.014836964144 
0 0 3.2413290006e-14 0 0 3.2413289856e-14 0 0 3.241328614e-14 
0 0 8.0432447413e-14 0 0 -6.3625037691e-14 0 0 8.0432443659e-14 
0 0 0.0099412308358 0 0 8.0432443435e-14 0 0 3.2413289933e-14 
0 0 3.2413285961e-14 0 0 -0.023458948266 0 0 0.0015541354972 
0 0 -0.004206006676 0 0 -1.5605880115e-14 0 0 -0.033854190052 
0 0 0.014418511357 0 0 8.0432447527e-14 0 0 0.021967692623 
0 0 8.0432447432e-14 0 0 0.026376336095 0 0 -0.0044177145669 
0 0 8.0432447405e-14 0 0 3.2413289981e-14 0 0 -0.027228906136 
0 0 0.00018481933282 0 0 -0.008273248445 0 0 0.0092446647163 
0 0 0.02245411048 0 0 3.241328999e-14 0 0 -0.011370148978 
0 0 3.2413289859e-14 0 0 8.043244354e-14 0 0 -0.075034214487 
0 0 -1.5605880089e-14 0 0 0.012754554272 0 0 8.0432447426e-14 
0 0 0.0090306656711 0 0 3.2413289861e-14 0 0 -0.032169174113 
0 0 -0.0050878879575 0 0 8.0432443599e-14 0 0 -1.5605879998e-14 
0 0 8.0432443456e-14 0 0 -1.5605880009e-14 0 0 3.2413289963e-14 
0 0 8.0432443578e-14 0 0 8.0432443441e-14 0 0 -1.5605880132e-14 
0 0 3.2413290005e-14 0 0 -1.5605879989e-14 0 0 0.024037628477 
0 0 3.2413286097e-14 0 0 3.2413289993e-14 0 0 3.2413286103e-14 
0 0 3.2413289869e-14 0 0 8.0432447375e-14 0 0 0.0021212850875 
0 0 8.0432443553e-14 0 0 0.011277017377 0 0 8.0432447562e-14 
0 0 8.0432447456e-14 0 0 8.0432443617e-14 0 0 3.2413289871e-14 
0 0 8.0432447444e-14 0 0 8.0432447374e-14 0 0 -6.3625037551e-14 
0 0 0.0084618795359 0 0 8.0432443571e-14 0 0 3.241328991e-14 
0 0 -6.3625037546e-14 0 0 9.2216861562e-12 0 0 3.2413286155e-14 
0 0 3.2413289957e-14 0 0 -1.5605880133e-14 0 0 0.022024454634 
0 0 0.016548373837 0 0 -6.3625041469e-14 0 0 8.0432443478e-14 
0 0 -0.0021496944551 0 0 -0.017396955536 0 0 8.0432443486e-14 
0 0 0.0072545076941 0 0 0.035960408319 0 0 3.2413290023e-14 
0 0 8.043244346e-14 0 0 -0.012911736414 0 0 -0.018671281929 
0 0 8.0432443472e-14 0 0 3.2413289933e-14 0 0 -0.0077683531629 
0 0 3.2413289993e-14 0 0 8.0432447411e-14 0 0 3.241328986e-14 
0 0 8.0432447466e-14 0 0 -1.5605879967e-14 0 0 8.0432443515e-14 
0 0 0.0034728411607 0 0 8.0432443474e-14 0 0 -1.560587999e-14 
0 0 8.0432447535e-14 0 0 3.2413290061e-14 0 0 8.0432447569e-14 
0 0 3.2413289861e-14 0 0 -0.0021577468875 0 0 -6.3625037717e-14 
0 0 0.0035686178362 0 0 8.0432443602e-14 0 0 0.015065633712 
0 0 3.2413289991e-14 0 0 8.4050544615e-14 0 0 -1.5605880012e-14 
0 0 -1.5605880027e-14 0 0 -0.019392675153 0 0 8.0432447417e-14 
0 0 -1.5605883972e-14 0 0 8.0432443515e-14 0 0 3.2413285982e-14 
0 0 8.043244364e-14 0 0 -0.0017224133523 0 0 8.043244362e-14 
0 0 8.0432447427e-14 0 0 8.0432447573e-14 0 0 8.0432443539e-14 
0 0 2.3807204852e-14 0 0 -0.0020110418225 0 0 -0.030177995501 
0 0 3.2413289846e-14 0 0 -1.5605880018e-14 0 0 8.0432443644e-14 
0 0 -1.5605880028e-14 0 0 -6.3625037734e-14 0 0 -0.02557307167 
0 0 0.0064981524562 0 0 8.0432443443e-14 0 0 8.0432443475e-14 
0 0 8.0432443608e-14 0 0 -0.021345823189 0 0 0.0031304556446 
0 0 8.0432447469e-14 0 0 8.0432443463e-14 0 0 -0.0016810128074 
0 0 -1.5605880097e-14 0 0 8.0432443597e-14 0 0 -0.0014866850792 
0 0 -0.028705466932 0 0 3.2413286008e-14 0 0 3.2413289914e-14 
0 0 0.0097604433302 0 0 0.030409793299 0 0 -0.0046383625134 
0 0 3.2413290042e-14 0 0 -6.3625041613e-14 0 0 0.0091588235615 
0 0 8.0432447404e-14 0 0 -1.560588404e-14 0 0 -1.5605880059e-14 
0 0 8.0432443503e-14 0 0 -0.024146059514 0 0 3.24132899e-14 
0 0 0.002294043416 0 0 3.2413290015e-14 0 0 3.2413289968e-14 
0 0 8.0432443482e-14 0 0 -6.3625041444e-14 0 0 8.0432443528e-14 
0 0 -0.026455818323 0 0 0.0037983029247 0 0 -0.028135370607 
0 0 -1.5605879994e-14 0 0 0.023761738374 0 0 3.2413290066e-14 
0 0 -0.0053288051958 0 0 -0.0076366081483 0 0 8.0432443491e-14 
0 0 8.0432443537e-14 0 0 8.0432447581e-14 0 0 8.0432443641e-14 
0 0 8.0432443594e-14 0 0 -0.019000514358 0 0 3.2413290052e-14 
0 0 8.0432443498e-14 0 0 3.2413285952e-14 0 0 0.0287537212 
0 0 3.2413290046e-14 0 0 0.028848397971 0 0 8.0432443535e-14 
0 0 8.0432447553e-14 0 0 8.0432443665e-14 0 0 8.0432447559e-14 
0 0 3.2413289844e-14 0 0 0.00071424805249 0 0 8.0432447454e-14 
0 0 3.2413289945e-14 0 0 8.0432447373e-14 0 0 -0.020724897316 
0 0 3.2413289885e-14 0 0 0.0067301317787 0 0 -1.5605880048e-14 
0 0 0.0082788629367 0 0 -0.037489064384 0 0 -6.3625037706e-14 
0 0 8.0432447358e-14 0 0 3.2413285933e-14 0 0 -0.024874084751 
0 0 -1.5605880065e-14 0 0 -0.022881765838 0 0 8.0432443639e-14 
0 0 -0.027701350198 0 0 3.2413289894e-14 0 0 3.2413286133e-14 
0 0 -1.5605880057e-14 0 0 3.241329006e-14 0 0 3.241328603e-14 
0 0 3.2413286034e-14 0 0 3.2413290022e-14 0 0 -1.5605884023e-14 
0 0 8.0432443489e-14 0 0 8.0432447365e-14 0 0 3.2413290005e-14 
0 0 8.0432443454e-14 0 0 3.2413290001e-14 0 0 8.0432443515e-14 
0 0 8.0432443624e-14 0 0 8.0432443578e-14 0 0 -1.5605880142e-14 
0 0 3.2413289941e-14 0 0 3.2413289953e-14 0 0 8.0432447533e-14 
0 0 8.0432443443e-14 0 0 3.2413285951e-14 0 0 3.2413289924e-14 
0 0 -0.038009619131 0 0 3.2413290037e-14 0 0 8.0432443621e-14 
0 0 -0.00069196295157 0 0 -0.018085694469 0 0 8.0432447588e-14 
0 0 8.043244739e-14 0 0 8.0432443526e-14 0 0 -1.5605879986e-14 
0 0 8.0432447381e-14 0 0 0.002498227191 0 0 -1.5605880068e-14 
0 0 0.020828604399 0 0 -0.02150830978 0 0 3.2413289923e-14 
0 0 8.0432443646e-14 0 0 8.0432447503e-14 0 0 -6.362503774e-14 
0 0 0.0022359264355 0 0 0.019058991142 0 0 0.015375796284 
0 0 3.2413290079e-14 0 0 0.021767435848 0 0 8.0432443436e-14 
0 0 0.045703491952 0 0 8.0432447496e-14 0 0 8.043244366e-14 
0 0 0.00070555461613 0 0 0.0021810667735 0 0 8.0432443654e-14 
0 0 8.0432447583e-14 0 0 3.2413289899e-14 0 0 8.0432443467e-14 
0 0 0.033796212197 0 0 8.0432443436e-14 0 0 3.2413290025e-14 
0 0 8.0432443666e-14 0 0 3.2413290061e-14 0 0 -1.5605880095e-14 
0 0 8.0432447543e-14 0 0 8.0432447472e-14 0 0 8.0432443564e-14 
0 0 3.2413285938e-14 0 0 8.0432447477e-14 0 0 -1.5605883967e-14 
0 0 0.010634624427 0 0 8.0432447518e-14 0 0 8.043244349e-14 
0 0 0.0051928356359 0 0 -0.00072419313257 0 0 -1.5605880059e-14 
0 0 8.0432447524e-14 0 0 8.0432447502e-14 0 0 8.0432447466e-14 
0 0 -1.5605880017e-14 0 0 8.0432443459e-14 0 0 3.2413289921e-14 
0 0 0.0048750046586 0 0 0.0086260524105 0 0 -1.5605880135e-14 
0 0 3.2413286037e-14 0 0 8.0432447382e-14 0 0 0.0037172392894 
0 0 0.0032720841842 0 0 6.3969434033e-14 0 0 8.0432447499e-14 
0 0 -1.5605880188e-14 0 0 8.0432443669e-14 0 0 3.2413289937e-14 
0 0 8.0432447571e-14 0 0 -0.013270667872 0 0 3.2413286009e-14 
0 0 3.2413289873e-14 0 0 -6.3625037569e-14 0 0 3.2413289963e-14 
0 0 -0.0053696788864 0 0 3.2413289974e-14 0 0 0.0018576357264 
0 0 3.241329005e-14 0 0 8.0432447478e-14 0 0 8.0432447579e-14 
0 0 8.0432443667e-14 0 0 0.024686390883 0 0 3.2413290042e-14 
0 0 -0.0032263231965 0 0 3.2413289974e-14 0 0 0.035351767571 
0 0 8.0432443539e-14 0 0 3.2413290049e-14 0 0 -6.3625037625e-14 
0 0 8.0432447534e-14 0 0 8.0432443664e-14 0 0 8.0432447509e-14 
0 0 3.2413290066e-14 0 0 -6.3625037602e-14 0 0 3.2413285974e-14 
0 0 3.2413289863e-14 0 0 8.0432447491e-14 0 0 -1.5605880153e-14 
0 0 -1.5605880032e-14 0 0 8.0432447369e-14 0 0 -0.024501334588 
0 0 8.0432447474e-14 0 0 3.2413289972e-14 0 0 8.0432447568e-14 
0 0 -6.3625037731e-14 0 0 -0.0064710957448 0 0 0.004659970224 
0 0 3.2413289938e-14 0 0 0.001141080171 0 0 8.043244754e-14 
0 0 8.0432443508e-14 0 0 -0.011679744906 0 0 8.0432447463e-14 
0 0 0.010836791279 0 0 3.2413285921e-14 0 0 8.0432447428e-14 
0 0 0.024225344612 0 0 8.0432447538e-14 0 0 8.0432443667e-14 
0 0 -0.0076377266204 0 0 3.2413289871e-14 0 0 -0.0092002491374 
0 0 8.0432443615e-14 0 0 -1.5605880077e-14 0 0 3.2413289953e-14 
0 0 -6.3625037658e-14 0 0 8.0432443615e-14 0 0 3.2413286033e-14 
0 0 8.0432447549e-14 0 0 0.0023674027175 0 0 8.0432447367e-14 
0 0 3.2413285923e-14 0 0 8.0432447452e-14 0 0 0.020443662153 
0 0 -1.5605880156e-14 0 0 8.0432447546e-14 0 0 3.2413289965e-14 
0 0 0.0022679500295 0 0 8.0432447525e-14 0 0 8.04324474e-14 
0 0 8.0432443473e-14 0 0 8.0432443557e-14 0 0 8.0432443442e-14 
0 0 3.241328594e-14 0 0 -1.5605880037e-14 0 0 0.018021809638 
0 0 8.0432443544e-14 0 0 3.2413290002e-14 0 0 8.0432443535e-14 
0 0 -0.035834926765 0 0 -1.5605880127e-14 0 0 3.2413289962e-14 
0 0 -6.3625041556e-14 0 0 -1.5605880188e-14 0 0 -1.560588017e-14 
0 0 -0.0098067753007 0 0 8.0432447378e-14 0 0 8.0432447416e-14 
0 0 0.0057112985315 0 0 0.015138534623 0 0 -0.0048275433142 
0 0 0.080591771142 0 0 0.013447655002 0 0 -0.0058320290284 
0 0 -0.085489202355 0 0 0.0095304441085 0 0 0.0013971920585 
0 0 -0.006157944446 0 0 0.0084977876459 0 0 -0.081227146253 
0 0 -0.25691576093 0 0 -0.022456339217 0 0 0.016166530991 
0 0 -0.022469479962 0 0 -0.094707235454 0 0 -0.088383885444 
0 0 -0.031359626618 0 0 0.005526755207 0 0 -0.069781612309 
0 0 0.0081898278758 0 0 -0.0035128944936 0 0 0.013080762982 
0 0 -0.06543524322 0 0 0.017118976366 0 0 0.0044672847123 
0 0 -0.0051437505825 0 0 -0.0050181567078 0 0 -0.024330986211 
0 0 -0.020825071133 0 0 0.013360023737 0 0 -0.058429789393 
0 0 -0.038479280218 0 0 -0.094317068667 0 0 -0.035515764994 
0 0 -0.094643054215 0 0 -0.090063807493 0 0 -0.051216301228 
0 0 -0.0098706922826 0 0 0.079258969159 0 0 -0.076189767837 
0 0 0.086596411466 0 0 0.077703579229 0 0 0.017314021082 
0 0 -0.090683426197 0 0 0.010078100023 0 0 -0.0082109729258 
0 0 -0.090255176804 0 0 -0.078575807624 0 0 -0.22239757602 
0 0 -0.001862221876 0 0 -0.017364887298 0 0 0.0079570357162 
0 0 -0.05203767498 0 0 0.013917792952 0 0 -0.0078538295657 
0 0 0.0051692382547 0 0 0.0052363239272 0 0 -0.015197706075 
0 0 -0.081076301578 0 0 -0.23854058089 0 0 -0.0056025939888 
0 0 -0.0034743856241 0 0 0.079694671816 0 0 -0.00088587628945 
0 0 -0.0067240604645 0 0 0.010258256562 0 0 -0.094597698104 
0 0 -0.007871491252 0 0 0.009819574897 0 0 -0.040665037752 
0 0 0.071619425009 0 0 -0.0040986228578 0 0 -0.049773811958 
0 0 -0.068292561174 0 0 0.011055318372 0 0 -0.011174477776 
0 0 0.0095663057449 0 0 -0.081607310716 0 0 -0.0041354753482 
0 0 -0.060391343565 0 0 -0.080165405953 0 0 -0.013416885579 
0 0 0.042907467195 0 0 -0.0025994384503 0 0 -0.0045609621963 
0 0 -0.083059418571 0 0 -0.080088320106 0 0 -0.079937143135 
0 0 -0.011856121126 0 0 -0.07978332525 0 0 -0.058029914842 
0 0 0.0094411384927 0 0 0.028481438147 0 0 -0.065793152729 
0 0 -0.044395333472 0 0 0.033358991795 0 0 0.017443044041 
0 0 0.006651658079 0 0 -0.0044741592822 0 0 -0.032574436138 
0 0 0.023736712646 0 0 -0.01188789959 0 0 0.046105282674 
0 0 0.002473690025 0 0 -0.050308565709 0 0 -0.22887734095 
0 0 -0.013539619035 0 0 -0.031817517066 0 0 -0.012879428598 
0 0 0.058249609096 0 0 -0.021610144896 0 0 -0.0015547156018 
0 0 -0.25063172759 0 0 -0.058919104834 0 0 -0.045469206353 
0 0 -0.048696451759 0 0 -0.059353983302 0 0 0.01103661219 
0 0 0.026865404192 0 0 -0.03842436742 0 0 -0.029150147593 
0 0 0.015265403235 0 0 0.0034429994067 0 0 -0.049676550355 
0 0 -0.051167961665 0 0 0.011226218927 0 0 -0.050340972719 
0 0 0.00052984904071 0 0 0.011493555119 0 0 0.0086025020756 
0 0 0.050745059611 0 0 0.018839449903 0 0 -0.018559068323 
0 0 0.0084829948854 0 0 -0.019899148367 0 0 -0.23559207566 
0 0 -0.026423698035 0 0 -0.091136596147 0 0 0.082059647813 
0 0 -0.22829537831 0 0 -0.035547358019 0 0 -0.23971553747 
0 0 -0.021542824967 0 0 0.14148736434 0 0 -0.039531264909 
0 0 -0.23706304847 0 0 -0.220807232 0 0 -0.03914426079 
0 0 -0.20752503027 0 0 -0.20524261701 0 0 -0.20377443959 
0 0 -0.18817348722 0 0 -0.22250782868 0 0 -0.17607060645 

f 3 648 double
0 0 0 0 0 0 0 0 0 
0 0 -1.7425367252e-10 0 0 0 0 0 0 
0 0 0 0 0 0 0 0 -1.7425367252e-10 
0 0 0 0 0 0 0 0 -1.7425367252e-10 
0 0 0 0 0 0 0 0 0 
0 0 -1.7425367252e-10 0 0 0 0 0 0 
0 0 0 0 0 0 0 0 -1.7425367252e-10 
0 0 0 0 0 -1.7425367252e-10 0 0 0 
0 0 -1.7425367252e-10 0 0 0 0 0 0 
0 0 -1.7425367252e-10 0 0 0 0 0 0 
0 0 0 0 0 -1.7425367252e-10 0 0 0 
0 0 0 0 0 0 0 0 0 
0 0 0 0 0 0 0 0 0 
0 0 0 0 0 0 0 0 0 
0 0 0 0 0 0 0 0 -1.7425367252e-10 
0 0 0 0 0 -1.7425367252e-10 0 0 0 
0 0 0 0 0 0 0 0 0 
0 0 0 0 0 -1.7425367252e-10 0 0 -1.7425367252e-10 
0 0 0 0 0 0 0 0 -1.7425367252e-10 
0 0 -1.7425367252e-10 0 0 -1.7425367252e-10 0 0 0 
0 0 0 0 0 0 0 0 0 
0 0 -1.7425367252e-10 0 0 -1.7425367252e-10 0 0 0 
0 0 0 0 0 -1.7425367252e-10 0 0 -1.7425367252e-10 
0 0 0 0 0 0 0 0 0 
0 0 0 0 0 0 0 0 0 
0 0 0 0 0 0 0 0 0 
0 0 -8.9019973083e-09 0 0 0 0 0 -1.7425367252e-10 
0 0 0 0 0 0 0 0 -1.7425367252e-10 
0 0 0 0 0 -1.7425367252e-10 0 0 0 
0 0 0 0 0 0 0 0 -1.7425367252e-10 
0 0 -1.7425367252e-10 0 0 0 0 0 -1.7425367252e-10 
0 0 0 0 0 -1.7425367252e-10 0 0 -1.7425367252e-10 
0 0 -1.7425367252e-10 0 0 -1.7425367252e-10 0 0 0 
0 0 0 0 0 0 0 0 -8.9019973083e-09 
0 0 0 0 0 0 0 0 0 
0 0 0 0 0 0 0 0 0 
0 0 -1.7425367252e-10 0 0 0 0 0 0 
0 0 0 0 0 -1.7425367252e-10 0 0 -1.7425367252e-10 
0 0 -1.7425367252e-10 0 0 0 0 0 -1.7425367252e-10 
0 0 -1.7425367252e-10 0 0 0 0 0 -1.7425367252e-10 
0 0 0 0 0 -1.7425367252e-10 0 0 -1.7425367252e-10 
0 0 0 0 0 0 0 0 -1.7425367252e-10 
0 0 -1.7425367252e-10 0 0 -1.7425367252e-10 0 0 -1.7425367252e-10 
0 0 -1.7425367252e-10 0 0 0 0 0 -1.7425367252e-10 
0 0 0 0 0 0 0 0 -1.7425367252e-10 
0 0 0 0 0 -1.7425367252e-10 0 0 0 
0 0 -1.7425367252e-10 0 0 0 0 0 -1.7425367252e-10 
0 0 -1.7425367252e-10 0 0 0 0 0 0 
0 0 0 0 0 0 0 0 0 
0 0 0 0 0 0 0 0 0 
0 0 0 0 0 0 0 0 -1.7425367252e-10 
0 0 0 0 0 0 0 0 0 
0 0 0 0 0 0 0 0 -1.7425367252e-10 
0 0 0 0 0 -1.7425367252e-10 0 0 0 
0 0 0 0 0 0 0 0 0 
0 0 0 0 0 0 0 0 0 
0 0 -1.7425367252e-10 0 0 0 0 0 0 
0 0 0 0 0 -3.4789155773e-17 0 0 0 
0 0 0 0 0 0 0 0 -1.7425367252e-10 
0 0 -1.7425367252e-10 0 0 0 0 0 0 
0 0 -1.7425367252e-10 0 0 -8.9019973083e-09 0 0 0 
0 0 -1.7425367252e-10 0 0 -1.7425367252e-10 0 0 0 
0 0 0 0 0 -1.7425367252e-10 0 0 -1.7425367252e-10 
0 0 0 0 0 0 0 0 -1.7425367252e-10 
0 0 0 0 0 0 0 0 0 
0 0 0 0 0 0 0 0 0 
0 0 -1.7425367252e-10 0 0 0 0 0 0 
0 0 0 0 0 0 0 0 0 
0 0 0 0 0 -1.7425367252e-10 0 0 0 
0 0 -1.7425367252e-10 0 0 0 0 0 -1.7425367252e-10 
0 0 0 0 0 0 0 0 0 
0 0 0 0 0 -1.7425367252e-10 0 0 0 
0 0 0 0 0 0 0 0 0 
0 0 0 0 0 -1.7425367252e-10 0 0 0 
0 0 0 0 0 0 0 0 0 
0 0 -3.3087224502e-24 0 0 -1.7425367252e-10 0 0 -1.7425367252e-10 
0 0 0 0 0 0 0 0 0 
0 0 0 0 0 0 0 0 -1.7425367252e-10 
0 0 -1.7425367252e-10 0 0 0 0 0 0 
0 0 0 0 0 -1.7425367252e-10 0 0 -1.7425367252e-10 
0 0 0 0 0 0 0 0 -1.7425367252e-10 
0 0 0 0 0 0 0 0 -1.7425367252e-10 
0 0 -1.7425367252e-10 0 0 0 0 0 0 
0 0 -1.7425367252e-10 0 0 -1.7425367252e-10 0 0 -1.7425367252e-10 
0 0 0 0 0 0 0 0 -1.7425367252e-10 
0 0 0 0 0 0 0 0 0 
0 0 0 0 0 -1.7425367252e-10 0 0 0 
0 0 -1.7425367252e-10 0 0 0 0 0 0 
0 0 0 0 0 0 0 0 0 
0 0 -1.7425367252e-10 0 0 -1.7425367252e-10 0 0 -1.7425367252e-10 
0 0 0 0 0 -1.7425367252e-10 0 0 0 
0 0 -1.7425367252e-10 0 0 -1.7425367252e-10 0 0 0 
0 0 0 0 0 0 0 0 0 
0 0 0 0 0 -1.7425367252e-10 0 0 0 
0 0 0 0 0 0 0 0 -1.7425367252e-10 
0 0 0 0 0 -1.7425367252e-10 0 0 0 
0 0 0 0 0 0 0 0 0 
0 0 0 0 0 -1.7425367252e-10 0 0 0 
0 0 0 0 0 0 0 0 -1.7425367252e-10 
0 0 0 0 0 -1.7425367252e-10 0 0 0 
0 0 -1.7425367252e-10 0 0 -1.7425367252e-10 0 0 0 
0 0 0 0 0 0 0 0 -1.7425367252e-10 
0 0 0 0 0 -1.7425367252e-10 0 0 0 
0 0 -1.7425367252e-10 0 0 0 0 0 0 
0 0 0 0 0 0 0 0 0 
0 0 0 0 0 0 0 0 0 
0 0 0 0 0 0 0 0 0 
0 0 0 0 0 0 0 0 0 
0 0 0 0 0 0 0 0 0 
0 0 0 0 0 0 0 0 0 
0 0 0 0 0 0 0 0 0 
0 0 -1.7425367252e-10 0 0 0 0 0 0 
0 0 -1.7425367252e-10 0 0 -1.7425367252e-10 0 0 0 
0 0 0 0 0 0 0 0 0 
0 0 0 0 0 -1.7425367252e-10 0 0 0 
0 0 -1.7425367252e-10 0 0 -1.7425367252e-10 0 0 0 
0 0 0 0 0 0 0 0 0 
0 0 -1.7425367252e-10 0 0 -1.7425367252e-10 0 0 -1.7425367252e-10 
0 0 0 0 0 -1.7425367252e-10 0 0 0 
0 0 -8.9019973083e-09 0 0 0 0 0 0 
0 0 -1.7425367252e-10 0 0 -1.7425367252e-10 0 0 0 
0 0 0 0 0 0 0 0 0 
0 0 -1.7425367252e-10 0 0 0 0 0 0 
0 0 0 0 0 0 0 0 0 
0 0 0 0 0 0 0 0 0 
0 0 0 0 0 0 0 0 0 
0 0 -1.7425367252e-10 0 0 0 0 0 0 
0 0 -1.7425367252e-10 0 0 -1.7425367252e-10 0 0 0 
0 0 0 0 0 0 0 0 0 
0 0 0 0 0 0 0 0 0 
0 0 -1.7425367252e-10 0 0 -1.7425367252e-10 0 0 0 
0 0 0 0 0 0 0 0 -8.9019973083e-09 
0 0 -1.7425367252e-10 0 0 0 0 0 0 
0 0 0 0 0 0 0 0 0 
0 0 0 0 0 -8.9019973083e-09 0 0 0 
0 0 0 0 0 0 0 0 0 
0 0 -1.7425367252e-10 0 0 0 0 0 -1.7425367252e-10 
0 0 0 0 0 0 0 0 0 
0 0 0 0 0 -1.7425367252e-10 0 0 0 
0 0 -1.7425367252e-10 0 0 0 0 0 -1.7425367252e-10 
0 0 0 0 0 0 0 0 0 
0 0 0 0 0 0 0 0 0 
0 0 0 0 0 0 0 0 0 
0 0 0 0 0 0 0 0 0 
0 0 0 0 0 0 0 0 -1.7425367252e-10 
0 0 0 0 0 0 0 0 0 
0 0 0 0 0 -1.7425367252e-10 0 0 -1.7425367252e-10 
0 0 0 0 0 -1.7425367252e-10 0 0 0 
0 0 0 0 0 -1.7425367252e-10 0 0 0 
0 0 -1.7425367252e-10 0 0 0 0 0 0 
0 0 -1.7425367252e-10 0 0 0 0 0 0 
0 0 -1.7425367252e-10 0 0 0 0 0 -1.7425367252e-10 
0 0 0 0 0 0 0 0 0 
0 0 0 0 0 0 0 0 0 
0 0 0 0 0 -1.7425367252e-10 0 0 0 
0 0 0 0 0 0 0 0 -1.7425367252e-10 
0 0 0 0 0 0 0 0 0 
0 0 -1.7425367252e-10 0 0 0 0 0 0 
0 0 0 0 0 0 0 0 0 
0 0 0 0 0 0 0 0 -1.7425367252e-10 
0 0 0 0 0 0 0 0 0 
0 0 -1.7425367252e-10 0 0 0 0 0 0 
0 0 0 0 0 0 0 0 0 
0 0 -1.7425367252e-10 0 0 0 0 0 0 
0 0 -1.7425367252e-10 0 0 -1.7425367252e-10 0 0 -1.7425367252e-10 
0 0 -1.7425367252e-10 0 0 -1.7425367252e-10 0 0 -1.7425367252e-10 
0 0 -1.7425367252e-10 0 0 -1.7425367252e-10 0 0 -1.7425367252e-10 
0 0 -1.7425367252e-10 0 0 -1.7425367252e-10 0 0 -1.7425367252e-10 
0 0 -8.9019973083e-09 0 0 -1.7425367252e-10 0 0 -1.7425367252e-10 
0 0 -1.7425367252e-10 0 0 -1.7425367252e-10 0 0 -1.7425367252e-10 
0 0 -1.7425367252e-10 0 0 -1.7425367252e-10 0 0 -1.7425367252e-10 
0 0 -1.7425367252e-10 0 0 -1.7425367252e-10 0 0 -1.7425367252e-10 
0 0 -1.7425367252e-10 0 0 -1.7425367252e-10 0 0 -1.7425367252e-10 
0 0 -1.7425367252e-10 0 0 -1.7425367252e-10 0 0 -1.7425367252e-10 
0 0 -1.7425367252e-10 0 0 -1.7425367252e-10 0 0 -1.7425367252e-10 
0 0 -8.9019973083e-09 0 0 -1.7425367252e-10 0 0 -8.9019973083e-09 
0 0 -1.7425367252e-10 0 0 -1.7425367252e-10 0 0 -1.7425367252e-10 
0 0 -1.7425367252e-10 0 0 -1.7425367252e-10 0 0 -1.7425367252e-10 
0 0 -1.7425367252e-10 0 0 -1.7425367252e-10 0 0 -1.7425367252e-10 
0 0 -1.7425367252e-10 0 0 -1.7425367252e-10 0 0 -1.7425367252e-10 
0 0 -1.7425367252e-10 0 0 -1.7425367252e-10 0 0 -1.7425367252e-10 
0 0 -1.7425367252e-10 0 0 -1.7425367252e-10 0 0 -1.7425367252e-10 
0 0 -1.7425367252e-10 0 0 -8.9019973083e-09 0 0 -1.7425367252e-10 
0 0 -1.7425367252e-10 0 0 -1.7425367252e-10 0 0 -1.7425367252e-10 
0 0 -1.7425367252e-10 0 0 -1.7425367252e-10 0 0 -1.7425367252e-10 
0 0 -1.7425367252e-10 0 0 -1.7425367252e-10 0 0 -1.7425367252e-10 
0 0 -1.7425367252e-10 0 0 -1.7425367252e-10 0 0 -1.7425367252e-10 
0 0 -1.7425367252e-10 0 0 -1.7425367252e-10 0 0 -1.7425367252e-10 
0 0 -1.7425367252e-10 0 0 -1.7425367252e-10 0 0 -1.7425367252e-10 
0 0 -1.7425367252e-10 0 0 -1.7425367252e-10 0 0 -1.7425367252e-10 
0 0 -1.7425367252e-10 0 0 -1.7425367252e-10 0 0 -1.7425367252e-10 
0 0 -1.7425367252e-10 0 0 -1.7425367252e-10 0 0 -1.7425367252e-10 
0 0 -1.7425367252e-10 0 0 -1.7425367252e-10 0 0 -1.7425367252e-10 
0 0 -1.7425367252e-10 0 0 -1.7425367252e-10 0 0 -1.7425367252e-10 
0 0 -1.7425367252e-10 0 0 -1.7425367252e-10 0 0 -1.7425367252e-10 
0 0 -1.7425367252e-10 0 0 -1.7425367252e-10 0 0 -1.7425367252e-10 
0 0 -1.7425367252e-10 0 0 -1.7425367252e-10 0 0 -1.7425367252e-10 
0 0 -1.7425367252e-10 0 0 -1.7425367252e-10 0 0 -1.7425367252e-10 
0 0 -1.7425367252e-10 0 0 -1.7425367252e-10 0 0 -1.7425367252e-10 
0 0 -1.7425367252e-10 0 0 -1.7425367252e-10 0 0 -1.7425367252e-10 
0 0 -1.7425367252e-10 0 0 -1.7425367252e-10 0 0 -1.7425367252e-10 
0 0 -1.7425367252e-10 0 0 -1.7425367252e-10 0 0 -1.7425367252e-10 
0 0 -1.7425367252e-10 0 0 -1.7425367252e-10 0 0 -1.7425367252e-10 
0 0 -1.7425367252e-10 0 0 -1.7425367252e-10 0 0 -1.7425367252e-10 
0 0 -1.7425367252e-10 0 0 -1.7425367252e-10 0 0 -1.7425367252e-10 
0 0 -1.7425367252e-10 0 0 -1.7425367252e-10 0 0 -1.7425367252e-10 
0 0 -1.7425367252e-10 0 0 -1.7425367252e-10 0 0 -1.7425367252e-10 
0 0 -1.7425367252e-10 0 0 -1.7425367252e-10 0 0 -1.7425367252e-10 
0 0 -1.7425367252e-10 0 0 -1.7425367252e-10 0 0 -1.7425367252e-10 
0 0 -1.7425367252e-10 0 0 -1.7425367252e-10 0 0 -1.7425367252e-10 
0 0 -1.7425367252e-10 0 0 -6.8918688838e-08 0 0 -8.9019973083e-09 
0 0 -1.7425367252e-10 0 0 -1.7425367252e-10 0 0 -1.7425367252e-10 
0 0 -8.9019973083e-09 0 0 -5.3297119368e-07 0 0 -8.9019973083e-09 
0 0 -1.7425367252e-10 0 0 -1.7425367252e-10 0 0 -8.9019973083e-09 
0 0 -1.7425367252e-10 0 0 -1.7425367252e-10 0 0 -1.7425367252e-10 
0 0 -1.7425367252e-10 0 0 -1.7425367252e-10 0 0 -1.7425367252e-10 

radius 1 648 double
2e-05 2e-05 2e-05 2e-05 2e-05 2e-05 2e-05 2e-05 2e-05 
2e-05 2e-05 2e-05 2e-05 2e-05 2e-05 2e-05 2e-05 2e-05 
2e-05 2e-05 2e-05 2e-05 2e-05 2e-05 2e-05 2e-05 2e-05 
2e-05 2e-05 2e-05 2e-05 2e-05 2e-05 2e-05 2e-05 2e-05 
2e-05 2e-05 2e-05 2e-05 2e-05 2e-05 2e-05 2e-05 2e-05 
2e-05 2e-05 2e-05 2e-05 2e-05 2e-05 2e-05 2e-05 2e-05 
2e-05 2e-05 2e-05 2e-05 2e-05 2e-05 2e-05 2e-05 2e-05 
2e-05 2e-05 2e-05 2e-05 2e-05 2e-05 2e-05 2e-05 2e-05 
2e-05 2e-05 2e-05 2e-05 2e-05 2e-05 7.5e-05 2e-05 2e-05 
2e-05 2e-05 2e-05 2e-05 2e-05 2e-05 2e-05 2e-05 2e-05 
2e-05 2e-05 2e-05 2e-05 2e-05 2e-05 2e-05 2e-05 2e-05 
2e-05 2e-05 7.5e-05 2e-05 2e-05 2e-05 2e-05 2e-05 2e-05 
2e-05 2e-05 2e-05 2e-05 2e-05 2e-05 2e-05 2e-05 2e-05 
2e-05 2e-05 2e-05 2e-05 2e-05 2e-05 2e-05 2e-05 2e-05 
2e-05 2e-05 2e-05 2e-05 2e-05 2e-05 2e-05 2e-05 2e-05 
2e-05 2e-05 2e-05 2e-05 2e-05 2e-05 2e-05 2e-05 2e-05 
2e-05 2e-05 2e-05 2e-05 2e-05 2e-05 2e-05 2e-05 2e-05 
2e-05 2e-05 2e-05 2e-05 2e-05 2e-05 2e-05 2e-05 2e-05 
2e-05 2e-05 2e-05 2e-05 2e-05 2e-05 2e-05 2e-05 2e-05 
2e-05 2e-05 2e-05 2e-05 2e-05 2e-05 2e-05 2e-05 2e-05 
2e-05 7.5e-05 2e-05 2e-05 2e-05 2e-05 2e-05 2e-05 2e-05 
2e-05 2e-05 2e-05 2e-05 2e-05 2e-05 2e-05 2e-05 2e-05 
2e-05 2e-05 2e-05 2e-05 2e-05 2e-05 2e-05 2e-05 2e-05 
2e-05 2e-05 2e-05 2e-05 7.5e-05 2e-05 2e-05 2e-05 2e-05 
2e-05 2e-05 2e-05 2e-05 2e-05 2e-05 2e-05 2e-05 2e-05 
7.5e-05 2e-05 2e-05 2e-05 2e-05 2e-05 2e-05 2e-05 2e-05 
2e-05 2e-05 2e-05 2e-05 2e-05 2e-05 2e-05 2e-05 2e-05 
2e-05 2e-05 2e-05 2e-05 2e-05 2e-05 2e-05 2e-05 2e-05 
2e-05 2e-05 2e-05 2e-05 2e-05 2e-05 2e-05 2e-05 2e-05 
2e-05 2e-05 2e-05 2e-05 2e-05 2e-05 2e-05 2e-05 2e-05 
2e-05 2e-05 2e-05 2e-05 2e-05 2e-05 2e-05 2e-05 2e-05 
2e-05 2e-05 2e-05 2e-05 2e-05 2e-05 2e-05 2e-05 2e-05 
2e-05 2e-05 2e-05 2e-05 2e-05 2e-05 2e-05 2e-05 2e-05 
2e-05 2e-05 2e-05 2e-05 2e-05 2e-05 2e-05 2e-05 2e-05 
2e-05 2e-05 2e-05 2e-05 2e-05 2e-05 2e-05 2e-05 2e-05 
2e-05 2e-05 2e-05 2e-05 2e-05 2e-05 2e-05 2e-05 2e-05 
2e-05 2e-05 2e-05 2e-05 2e-05 2e-05 2e-05 2e-05 2e-05 
2e-05 2e-05 2e-05 2e-05 2e-05 2e-05 2e-05 2e-05 2e-05 
2e-05 2e-05 2e-05 2e-05 2e-05 2e-05 2e-05 2e-05 2e-05 
2e-05 2e-05 2e-05 2e-05 2e-05 2e-05 7.5e-05 2e-05 2e-05 
2e-05 2e-05 2e-05 2e-05 2e-05 2e-05 2e-05 2e-05 2e-05 
2e-05 2e-05 2e-05 2e-05 2e-05 2e-05 2e-05 2e-05 2e-05 
2e-05 2e-05 2e-05 2e-05 2e-05 2e-05 2e-05 2e-05 2e-05 
2e-05 2e-05 2e-05 2e-05 2e-05 2e-05 2e-05 2e-05 7.5e-05 
2e-05 7.5e-05 2e-05 2e-05 2e-05 2e-05 2e-05 7.5e-05 2e-05 
2e-05 2e-05 2e-05 2e-05 2e-05 2e-05 2e-05 2e-05 2e-05 
2e-05 2e-05 2e-05 2e-05 2e-05 2e-05 2e-05 2e-05 2e-05 
2e-05 2e-05 2e-05 2e-05 2e-05 2e-05 2e-05 2e-05 2e-05 
2e-05 2e-05 2e-05 2e-05 2e-05 2e-05 2e-05 2e-05 2e-05 
2e-05 2e-05 2e-05 2e-05 2e-05 2e-05 2e-05 2e-05 2e-05 
2e-05 2e-05 2e-05 2e-05 2e-05 2e-05 2e-05 2e-05 2e-05 
2e-05 2e-05 2e-05 2e-05 2e-05 2e-05 2e-05 2e-05 2e-05 
2e-05 2e-05 2e-05 2e-05 2e-05 2e-05 2e-05 2e-05 2e-05 
2e-05 2e-05 2e-05 2e-05 2e-05 2e-05 2e-05 2e-05 2e-05 
2e-05 2e-05 2e-05 2e-05 2e-05 2e-05 2e-05 2e-05 2e-05 
2e-05 2e-05 2e-05 2e-05 2e-05 2e-05 2e-05 2e-05 2e-05 
7.5e-05 2e-05 2e-05 2e-05 2e-05 2e-05 2e-05 2e-05 2e-05 
2e-05 2e-05 2e-05 2e-05 2e-05 2e-05 2e-05 2e-05 2e-05 
2e-05 2e-05 2e-05 7.5e-05 2e-05 7.5e-05 2e-05 2e-05 2e-05 
2e-05 2e-05 2e-05 2e-05 2e-05 2e-05 2e-05 2e-05 2e-05 
2e-05 2e-05 2e-05 2e-05 2e-05 2e-05 2e-05 7.5e-05 2e-05 
2e-05 2e-05 2e-05 2e-05 2e-05 2e-05 2e-05 2e-05 2e-05 
2e-05 2e-05 2e-05 2e-05 2e-05 2e-05 2e-05 2e-05 2e-05 
2e-05 2e-05 2e-05 2e-05 2e-05 2e-05 2e-05 2e-05 2e-05 
2e-05 2e-05 2e-05 2e-05 2e-05 2e-05 2e-05 2e-05 2e-05 
2e-05 2e-05 2e-05 2e-05 2e-05 2e-05 2e-05 2e-05 2e-05 
2e-05 2e-05 2e-05 2e-05 2e-05 2e-05 2e-05 2e-05 2e-05 
2e-05 2e-05 2e-05 2e-05 2e-05 2e-05 2e-05 2e-05 2e-05 
2e-05 2e-05 2e-05 2e-05 2e-05 2e-05 2e-05 2e-05 2e-05 
2e-05 2e-05 2e-05 2e-05 2e-05 2e-05 2e-05 2e-05 2e-05 
2e-05 0.00015 7.5e-05 2e-05 2e-05 2e-05 7.5e-05 0.0003 7.5e-05 
2e-05 2e-05 7.5e-05 2e-05 2e-05 2e-05 2e-05 2e-05 2e-05 

omega 3 648 double
0 0 0 0 0 0 0 0 0 
0 0 0 0 0 0 0 0 0 
0 0 0 0 0 0 0 0 0 
0 0 0 0 0 0 0 0 0 
0 0 0 0 0 0 0 0 0 
0 0 0 0 0 0 0 0 0 
0 0 0 0 0 0 0 0 0 
0 0 0 0 0 0 0 0 0 
0 0 0 0 0 0 0 0 0 
0 0 0 0 0 0 0 0 0 
0 0 0 0 0 0 0 0 0 
0 0 0 0 0 0 0 0 0 
0 0 0 0 0 0 0 0 0 
0 0 0 0 0 0 0 0 0 
0 0 0 0 0 0 0 0 0 
0 0 0 0 0 0 0 0 0 
0 0 0 0 0 0 0 0 0 
0 0 0 0 0 0 0 0 0 
0 0 0 0 0 0 0 0 0 
0 0 0 0 0 0 0 0 0 
0 0 0 0 0 0 0 0 0 
0 0 0 0 0 0 0 0 0 
0 0 0 0 0 0 0 0 0 
0 0 0 0 0 0 0 0 0 
0 0 0 0 0 0 0 0 0 
0 0 0 0 0 0 0 0 0 
0 0 0 0 0 0 0 0 0 
0 0 0 0 0 0 0 0 0 
0 0 0 0 0 0 0 0 0 
0 0 0 0 0 0 0 0 0 
0 0 0 0 0 0 0 0 0 
0 0 0 0 0 0 0 0 0 
0 0 0 0 0 0 0 0 0 
0 0 0 0 0 0 0 0 0 
0 0 0 0 0 0 0 0 0 
0 0 0 0 0 0 0 0 0 
0 0 0 0 0 0 0 0 0 
0 0 0 0 0 0 0 0 0 
0 0 0 0 0 0 0 0 0 
0 0 0 0 0 0 0 0 0 
0 0 0 0 0 0 0 0 0 
0 0 0 0 0 0 0 0 0 
0 0 0 0 0 0 0 0 0 
0 0 0 0 0 0 0 0 0 
0 0 0 0 0 0 0 0 0 
0 0 0 0 0 0 0 0 0 
0 0 0 0 0 0 0 0 0 
0 0 0 0 0 0 0 0 0 
0 0 0 0 0 0 0 0 0 
0 0 0 0 0 0 0 0 0 
0 0 0 0 0 0 0 0 0 
0 0 0 0 0 0 0 0 0 
0 0 0 0 0 0 0 0 0 
0 0 0 0 0 0 0 0 0 
0 0 0 0 0 0 0 0 0 
0 0 0 0 0 0 0 0 0 
0 0 0 0 0 0 0 0 0 
0 0 0 0 0 0 0 0 0 
0 0 0 0 0 0 0 0 0 
0 0 0 0 0 0 0 0 0 
0 0 0 0 0 0 0 0 0 
0 0 0 0 0 0 0 0 0 
0 0 0 0 0 0 0 0 0 
0 0 0 0 0 0 0 0 0 
0 0 0 0 0 0 0 0 0 
0 0 0 0 0 0 0 0 0 
0 0 0 0 0 0 0 0 0 
0 0 0 0 0 0 0 0 0 
0 0 0 0 0 0 0 0 0 
0 0 0 0 0 0 0 0 0 
0 0 0 0 0 0 0 0 0 
0 0 0 0 0 0 0 0 0 
0 0 0 0 0 0 0 0 0 
0 0 0 0 0 0 0 0 0 
0 0 0 0 0 0 0 0 0 
0 0 0 0 0 0 0 0 0 
0 0 0 0 0 0 0 0 0 
0 0 0 0 0 0 0 0 0 
0 0 0 0 0 0 0 0 0 
0 0 0 0 0 0 0 0 0 
0 0 0 0 0 0 0 0 0 
0 0 0 0 0 0 0 0 0 
0 0 0 0 0 0 0 0 0 
0 0 0 0 0 0 0 0 0 
0 0 0 0 0 0 0 0 0 
0 0 0 0 0 0 0 0 0 
0 0 0 0 0 0 0 0 0 
0 0 0 0 0 0 0 0 0 
0 0 0 0 0 0 0 0 0 
0 0 0 0 0 0 0 0 0 
0 0 0 0 0 0 0 0 0 
0 0 0 0 0 0 0 0 0 
0 0 0 0 0 0 0 0 0 
0 0 0 0 0 0 0 0 0 
0 0 0 0 0 0 0 0 0 
0 0 0 0 0 0 0 0 0 
0 0 0 0 0 0 0 0 0 
0 0 0 0 0 0 0 0 0 
0 0 0 0 0 0 0 0 0 
0 0 0 0 0 0 0 0 0 
0 0 0 0 0 0 0 0 0 
0 0 0 0 0 0 0 0 0 
0 0 0 0 0 0 0 0 0 
0 0 0 0 0 0 0 0 0 
0 0 0 0 0 0 0 0 0 
0 0 0 0 0 0 0 0 0 
0 0 0 0 0 0 0 0 0 
0 0 0 0 0 0 0 0 0 
0 0 0 0 0 0 0 0 0 
0 0 0 0 0 0 0 0 0 
0 0 0 0 0 0 0 0 0 
0 0 0 0 0 0 0 0 0 
0 0 0 0 0 0 0 0 0 
0 0 0 0 0 0 0 0 0 
0 0 0 0 0 0 0 0 0 
0 0 0 0 0 0 0 0 0 
0 0 0 0 0 0 0 0 0 
0 0 0 0 0 0 0 0 0 
0 0 0 0 0 0 0 0 0 
0 0 0 0 0 0 0 0 0 
0 0 0 0 0 0 0 0 0 
0 0 0 0 0 0 0 0 0 
0 0 0 0 0 0 0 0 0 
0 0 0 0 0 0 0 0 0 
0 0 0 0 0 0 0 0 0 
0 0 0 0 0 0 0 0 0 
0 0 0 0 0 0 0 0 0 
0 0 0 0 0 0 0 0 0 
0 0 0 0 0 0 0 0 0 
0 0 0 0 0 0 0 0 0 
0 0 0 0 0 0 0 0 0 
0 0 0 0 0 0 0 0 0 
0 0 0 0 0 0 0 0 0 
0 0 0 0 0 0 0 0 0 
0 0 0 0 0 0 0 0 0 
0 0 0 0 0 0 0 0 0 
0 0 0 0 0 0 0 0 0 
0 0 0 0 0 0 0 0 0 
0 0 0 0 0 0 0 0 0 
0 0 0 0 0 0 0 0 0 
0 0 0 0 0 0 0 0 0 
0 0 0 0 0 0 0 0 0 
0 0 0 0 0 0 0 0 0 
0 0 0 0 0 0 0 0 0 
0 0 0 0 0 0 0 0 0 
0 0 0 0 0 0 0 0 0 
0 0 0 0 0 0 0 0 0 
0 0 0 0 0 0 0 0 0 
0 0 0 0 0 0 0 0 0 
0 0 0 0 0 0 0 0 0 
0 0 0 0 0 0 0 0 0 
0 0 0 0 0 0 0 0 0 
0 0 0 0 0 0 0 0 0 
0 0 0 0 0 0 0 0 0 
0 0 0 0 0 0 0 0 0 
0 0 0 0 0 0 0 0 0 
0 0 0 0 0 0 0 0 0 
0 0 0 0 0 0 0 0 0 
0 0 0 0 0 0 0 0 0 
0 0 0 0 0 0 0 0 0 
0 0 0 0 0 0 0 0 0 
0 0 0 0 0 0 0 0 0 
0 0 0 0 0 0 0 0 0 
0 0 0 0 0 0 0 0 0 
0 0 0 0 0 0 0 0 0 
0 0 0 0 0 0 0 0 0 
0 0 0 0 0 0 0 0 0 
0 0 0 0 0 0 0 0 0 
0 0 0 0 0 0 0 0 0 
0 0 0 0 0 0 0 0 0 
0 0 0 0 0 0 0 0 0 
0 0 0 0 0 0 0 0 0 
0 0 0 0 0 0 0 0 0 
0 0 0 0 0 0 0 0 0 
0 0 0 0 0 0 0 0 0 
0 0 0 0 0 0 0 0 0 
0 0 0 0 0 0 0 0 0 
0 0 0 0 0 0 0 0 0 
0 0 0 0 0 0 0 0 0 
0 0 0 0 0 0 0 0 0 
0 0 0 0 0 0 0 0 0 
0 0 0 0 0 0 0 0 0 
0 0 0 0 0 0 0 0 0 
0 0 0 0 0 0 0 0 0 
0 0 0 0 0 0 0 0 0 
0 0 0 0 0 0 0 0 0 
0 0 0 0 0 0 0 0 0 
0 0 0 0 0 0 0 0 0 
0 0 0 0 0 0 0 0 0 
0 0 0 0 0 0 0 0 0 
0 0 0 0 0 0 0 0 0 
0 0 0 0 0 0 0 0 0 
0 0 0 0 0 0 0 0 0 
0 0 0 0 0 0 0 0 0 
0 0 0 0 0 0 0 0 0 
0 0 0 0 0 0 0 0 0 
0 0 0 0 0 0 0 0 0 
0 0 0 0 0 0 0 0 0 
0 0 0 0 0 0 0 0 0 
0 0 0 0 0 0 0 0 0 
0 0 0 0 0 0 0 0 0 
0 0 0 0 0 0 0 0 0 
0 0 0 0 0 0 0 0 0 
0 0 0 0 0 0 0 0 0 
0 0 0 0 0 0 0 0 0 
0 0 0 0 0 0 0 0 0 
0 0 0 0 0 0 0 0 0 
0 0 0 0 0 0 0 0 0 
0 0 0 0 0 0 0 0 0 
0 0 0 0 0 0 0 0 0 
0 0 0 0 0 0 0 0 0 
0 0 0 0 0 0 0 0 0 
0 0 0 0 0 0 0 0 0 
0 0 0 0 0 0 0 0 0 
0 0 0 0 0 0 0 0 0 
0 0 0 0 0 0 0 0 0 

fx_mag_viz 1 648 double
0 0 0 0 0 0 0 0 0 
0 0 0 0 0 0 0 0 0 
0 0 0 0 0 0 0 0 0 
0 0 0 0 0 0 0 0 0 
0 0 0 0 0 0 0 0 0 
0 0 0 0 0 0 0 0 0 
0 0 0 0 0 0 0 0 0 
0 0 0 0 0 0 0 0 0 
0 0 0 0 0 0 0 0 0 
0 0 0 0 0 0 0 0 0 
0 0 0 0 0 0 0 0 0 
0 0 0 0 0 0 0 0 0 
0 0 0 0 0 0 0 0 0 
0 0 0 0 0 0 0 0 0 
0 0 0 0 0 0 0 0 0 
0 0 0 0 0 0 0 0 0 
0 0 0 0 0 0 0 0 0 
0 0 0 0 0 0 0 0 0 
0 0 0 0 0 0 0 0 0 
0 0 0 0 0 0 0 0 0 
0 0 0 0 0 0 0 0 0 
0 0 0 0 0 0 0 0 0 
0 0 0 0 0 0 0 0 0 
0 0 0 0 0 0 0 0 0 
0 0 0 0 0 0 0 0 0 
0 0 0 0 0 0 0 0 0 
0 0 0 0 0 0 0 0 0 
0 0 0 0 0 0 0 0 0 
0 0 0 0 0 0 0 0 0 
0 0 0 0 0 0 0 0 0 
0 0 0 0 0 0 0 0 0 
0 0 0 0 0 0 0 0 0 
0 0 0 0 0 0 0 0 0 
0 0 0 0 0 0 0 0 0 
0 0 0 0 0 0 0 0 0 
0 0 0 0 0 0 0 0 0 
0 0 0 0 0 0 0 0 0 
0 0 0 0 0 0 0 0 0 
0 0 0 0 0 0 0 0 0 
0 0 0 0 0 0 0 0 0 
0 0 0 0 0 0 0 0 0 
0 0 0 0 0 0 0 0 0 
0 0 0 0 0 0 0 0 0 
0 0 0 0 0 0 0 0 0 
0 0 0 0 0 0 0 0 0 
0 0 0 0 0 0 0 0 0 
0 0 0 0 0 0 0 0 0 
0 0 0 0 0 0 0 0 0 
0 0 0 0 0 0 0 0 0 
0 0 0 0 0 0 0 0 0 
0 0 0 0 0 0 0 0 0 
0 0 0 0 0 0 0 0 0 
0 0 0 0 0 0 0 0 0 
0 0 0 0 0 0 0 0 0 
0 0 0 0 0 0 0 0 0 
0 0 0 0 0 0 0 0 0 
0 0 0 0 0 0 0 0 0 
0 0 0 0 0 0 0 0 0 
0 0 0 0 0 0 0 0 0 
0 0 0 0 0 0 0 0 0 
0 0 0 0 0 0 0 0 0 
0 0 0 0 0 0 0 0 0 
0 0 0 0 0 0 0 0 0 
0 0 0 0 0 0 0 0 0 
0 0 0 0 0 0 0 0 0 
0 0 0 0 0 0 0 0 0 
0 0 0 0 0 0 0 0 0 
0 0 0 0 0 0 0 0 0 
0 0 0 0 0 0 0 0 0 
0 0 0 0 0 0 0 0 0 
0 0 0 0 0 0 0 0 0 
0 0 0 0 0 0 0 0 0 

fy_mag_viz 1 648 double
0 0 0 0 0 0 0 0 0 
0 0 0 0 0 0 0 0 0 
0 0 0 0 0 0 0 0 0 
0 0 0 0 0 0 0 0 0 
0 0 0 0 0 0 0 0 0 
0 0 0 0 0 0 0 0 0 
0 0 0 0 0 0 0 0 0 
0 0 0 0 0 0 0 0 0 
0 0 0 0 0 0 0 0 0 
0 0 0 0 0 0 0 0 0 
0 0 0 0 0 0 0 0 0 
0 0 0 0 0 0 0 0 0 
0 0 0 0 0 0 0 0 0 
0 0 0 0 0 0 0 0 0 
0 0 0 0 0 0 0 0 0 
0 0 0 0 0 0 0 0 0 
0 0 0 0 0 0 0 0 0 
0 0 0 0 0 0 0 0 0 
0 0 0 0 0 0 0 0 0 
0 0 0 0 0 0 0 0 0 
0 0 0 0 0 0 0 0 0 
0 0 0 0 0 0 0 0 0 
0 0 0 0 0 0 0 0 0 
0 0 0 0 0 0 0 0 0 
0 0 0 0 0 0 0 0 0 
0 0 0 0 0 0 0 0 0 
0 0 0 0 0 0 0 0 0 
0 0 0 0 0 0 0 0 0 
0 0 0 0 0 0 0 0 0 
0 0 0 0 0 0 0 0 0 
0 0 0 0 0 0 0 0 0 
0 0 0 0 0 0 0 0 0 
0 0 0 0 0 0 0 0 0 
0 0 0 0 0 0 0 0 0 
0 0 0 0 0 0 0 0 0 
0 0 0 0 0 0 0 0 0 
0 0 0 0 0 0 0 0 0 
0 0 0 0 0 0 0 0 0 
0 0 0 0 0 0 0 0 0 
0 0 0 0 0 0 0 0 0 
0 0 0 0 0 0 0 0 0 
0 0 0 0 0 0 0 0 0 
0 0 0 0 0 0 0 0 0 
0 0 0 0 0 0 0 0 0 
0 0 0 0 0 0 0 0 0 
0 0 0 0 0 0 0 0 0 
0 0 0 0 0 0 0 0 0 
0 0 0 0 0 0 0 0 0 
0 0 0 0 0 0 0 0 0 
0 0 0 0 0 0 0 0 0 
0 0 0 0 0 0 0 0 0 
0 0 0 0 0 0 0 0 0 
0 0 0 0 0 0 0 0 0 
0 0 0 0 0 0 0 0 0 
0 0 0 0 0 0 0 0 0 
0 0 0 0 0 0 0 0 0 
0 0 0 0 0 0 0 0 0 
0 0 0 0 0 0 0 0 0 
0 0 0 0 0 0 0 0 0 
0 0 0 0 0 0 0 0 0 
0 0 0 0 0 0 0 0 0 
0 0 0 0 0 0 0 0 0 
0 0 0 0 0 0 0 0 0 
0 0 0 0 0 0 0 0 0 
0 0 0 0 0 0 0 0 0 
0 0 0 0 0 0 0 0 0 
0 0 0 0 0 0 0 0 0 
0 0 0 0 0 0 0 0 0 
0 0 0 0 0 0 0 0 0 
0 0 0 0 0 0 0 0 0 
0 0 0 0 0 0 0 0 0 
0 0 0 0 0 0 0 0 0 

fz_mag_viz 1 648 double
0 0 0 0 0 0 0 0 0 
0 0 0 0 0 0 0 0 0 
0 0 0 0 0 0 0 0 0 
0 0 0 0 0 0 0 0 0 
0 0 0 0 0 0 0 0 0 
0 0 0 0 0 0 0 0 0 
0 0 0 0 0 0 0 0 0 
0 0 0 0 0 0 0 0 0 
0 0 0 0 0 0 0 0 0 
0 0 0 0 0 0 0 0 0 
0 0 0 0 0 0 0 0 0 
0 0 0 0 0 0 0 0 0 
0 0 0 0 0 0 0 0 0 
0 0 0 0 0 0 0 0 0 
0 0 0 0 0 0 0 0 0 
0 0 0 0 0 0 0 0 0 
0 0 0 0 0 0 0 0 0 
0 0 0 0 0 0 0 0 0 
0 0 0 0 0 0 0 0 0 
0 0 0 0 0 0 0 0 0 
0 0 0 0 0 0 0 0 0 
0 0 0 0 0 0 0 0 0 
0 0 0 0 0 0 0 0 0 
0 0 0 0 0 0 0 0 0 
0 0 0 0 0 0 0 0 0 
0 0 0 0 0 0 0 0 0 
0 0 0 0 0 0 0 0 0 
0 0 0 0 0 0 0 0 0 
0 0 0 0 0 0 0 0 0 
0 0 0 0 0 0 0 0 0 
0 0 0 0 0 0 0 0 0 
0 0 0 0 0 0 0 0 0 
0 0 0 0 0 0 0 0 0 
0 0 0 0 0 0 0 0 0 
0 0 0 0 0 0 0 0 0 
0 0 0 0 0 0 0 0 0 
0 0 0 0 0 0 0 0 0 
0 0 0 0 0 0 0 0 0 
0 0 0 0 0 0 0 0 0 
0 0 0 0 0 0 0 0 0 
0 0 0 0 0 0 0 0 0 
0 0 0 0 0 0 0 0 0 
0 0 0 0 0 0 0 0 0 
0 0 0 0 0 0 0 0 0 
0 0 0 0 0 0 0 0 0 
0 0 0 0 0 0 0 0 0 
0 0 0 0 0 0 0 0 0 
0 0 0 0 0 0 0 0 0 
0 0 0 0 0 0 0 0 0 
0 0 0 0 0 0 0 0 0 
0 0 0 0 0 0 0 0 0 
0 0 0 0 0 0 0 0 0 
0 0 0 0 0 0 0 0 0 
0 0 0 0 0 0 0 0 0 
0 0 0 0 0 0 0 0 0 
0 0 0 0 0 0 0 0 0 
0 0 0 0 0 0 0 0 0 
0 0 0 0 0 0 0 0 0 
0 0 0 0 0 0 0 0 0 
0 0 0 0 0 0 0 0 0 
0 0 0 0 0 0 0 0 0 
0 0 0 0 0 0 0 0 0 
0 0 0 0 0 0 0 0 0 
0 0 0 0 0 0 0 0 0 
0 0 0 0 0 0 0 0 0 
0 0 0 0 0 0 0 0 0 
0 0 0 0 0 0 0 0 0 
0 0 0 0 0 0 0 0 0 
0 0 0 0 0 0 0 0 0 
0 0 0 0 0 0 0 0 0 
0 0 0 0 0 0 0 0 0 
0 0 0 0 0 0 0 0 0 

B_magnitude 1 648 double
0 0 0 0 0 0 0 0 0 
0 0 0 0 0 0 0 0 0 
0 0 0 0 0 0 0 0 0 
0 0 0 0 0 0 0 0 0 
0 0 0 0 0 0 0 0 0 
0 0 0 0 0 0 0 0 0 
0 0 0 0 0 0 0 0 0 
0 0 0 0 0 0 0 0 0 
0 0 0 0 0 0 0 0 0 
0 0 0 0 0 0 0 0 0 
0 0 0 0 0 0 0 0 0 
0 0 0 0 0 0 0 0 0 
0 0 0 0 0 0 0 0 0 
0 0 0 0 0 0 0 0 0 
0 0 0 0 0 0 0 0 0 
0 0 0 0 0 0 0 0 0 
0 0 0 0 0 0 0 0 0 
0 0 0 0 0 0 0 0 0 
0 0 0 0 0 0 0 0 0 
0 0 0 0 0 0 0 0 0 
0 0 0 0 0 0 0 0 0 
0 0 0 0 0 0 0 0 0 
0 0 0 0 0 0 0 0 0 
0 0 0 0 0 0 0 0 0 
0 0 0 0 0 0 0 0 0 
0 0 0 0 0 0 0 0 0 
0 0 0 0 0 0 0 0 0 
0 0 0 0 0 0 0 0 0 
0 0 0 0 0 0 0 0 0 
0 0 0 0 0 0 0 0 0 
0 0 0 0 0 0 0 0 0 
0 0 0 0 0 0 0 0 0 
0 0 0 0 0 0 0 0 0 
0 0 0 0 0 0 0 0 0 
0 0 0 0 0 0 0 0 0 
0 0 0 0 0 0 0 0 0 
0 0 0 0 0 0 0 0 0 
0 0 0 0 0 0 0 0 0 
0 0 0 0 0 0 0 0 0 
0 0 0 0 0 0 0 0 0 
0 0 0 0 0 0 0 0 0 
0 0 0 0 0 0 0 0 0 
0 0 0 0 0 0 0 0 0 
0 0 0 0 0 0 0 0 0 
0 0 0 0 0 0 0 0 0 
0 0 0 0 0 0 0 0 0 
0 0 0 0 0 0 0 0 0 
0 0 0 0 0 0 0 0 0 
0 0 0 0 0 0 0 0 0 
0 0 0 0 0 0 0 0 0 
0 0 0 0 0 0 0 0 0 
0 0 0 0 0 0 0 0 0 
0 0 0 0 0 0 0 0 0 
0 0 0 0 0 0 0 0 0 
0 0 0 0 0 0 0 0 0 
0 0 0 0 0 0 0 0 0 
0 0 0 0 0 0 0 0 0 
0 0 0 0 0 0 0 0 0 
0 0 0 0 0 0 0 0 0 
0 0 0 0 0 0 0 0 0 
0 0 0 0 0 0 0 0 0 
0 0 0 0 0 0 0 0 0 
0 0 0 0 0 0 0 0 0 
0 0 0 0 0 0 0 0 0 
0 0 0 0 0 0 0 0 0 
0 0 0 0 0 0 0 0 0 
0 0 0 0 0 0 0 0 0 
0 0 0 0 0 0 0 0 0 
0 0 0 0 0 0 0 0 0 
0 0 0 0 0 0 0 0 0 
0 0 0 0 0 0 0 0 0 
0 0 0 0 0 0 0 0 0 

B_gradient_mag 1 648 double
0 0 0 0 0 0 0 0 0 
0 0 0 0 0 0 0 0 0 
0 0 0 0 0 0 0 0 0 
0 0 0 0 0 0 0 0 0 
0 0 0 0 0 0 0 0 0 
0 0 0 0 0 0 0 0 0 
0 0 0 0 0 0 0 0 0 
0 0 0 0 0 0 0 0 0 
0 0 0 0 0 0 0 0 0 
0 0 0 0 0 0 0 0 0 
0 0 0 0 0 0 0 0 0 
0 0 0 0 0 0 0 0 0 
0 0 0 0 0 0 0 0 0 
0 0 0 0 0 0 0 0 0 
0 0 0 0 0 0 0 0 0 
0 0 0 0 0 0 0 0 0 
0 0 0 0 0 0 0 0 0 
0 0 0 0 0 0 0 0 0 
0 0 0 0 0 0 0 0 0 
0 0 0 0 0 0 0 0 0 
0 0 0 0 0 0 0 0 0 
0 0 0 0 0 0 0 0 0 
0 0 0 0 0 0 0 0 0 
0 0 0 0 0 0 0 0 0 
0 0 0 0 0 0 0 0 0 
0 0 0 0 0 0 0 0 0 
0 0 0 0 0 0 0 0 0 
0 0 0 0 0 0 0 0 0 
0 0 0 0 0 0 0 0 0 
0 0 0 0 0 0 0 0 0 
0 0 0 0 0 0 0 0 0 
0 0 0 0 0 0 0 0 0 
0 0 0 0 0 0 0 0 0 
0 0 0 0 0 0 0 0 0 
0 0 0 0 0 0 0 0 0 
0 0 0 0 0 0 0 0 0 
0 0 0 0 0 0 0 0 0 
0 0 0 0 0 0 0 0 0 
0 0 0 0 0 0 0 0 0 
0 0 0 0 0 0 0 0 0 
0 0 0 0 0 0 0 0 0 
0 0 0 0 0 0 0 0 0 
0 0 0 0 0 0 0 0 0 
0 0 0 0 0 0 0 0 0 
0 0 0 0 0 0 0 0 0 
0 0 0 0 0 0 0 0 0 
0 0 0 0 0 0 0 0 0 
0 0 0 0 0 0 0 0 0 
0 0 0 0 0 0 0 0 0 
0 0 0 0 0 0 0 0 0 
0 0 0 0 0 0 0 0 0 
0 0 0 0 0 0 0 0 0 
0 0 0 0 0 0 0 0 0 
0 0 0 0 0 0 0 0 0 
0 0 0 0 0 0 0 0 0 
0 0 0 0 0 0 0 0 0 
0 0 0 0 0 0 0 0 0 
0 0 0 0 0 0 0 0 0 
0 0 0 0 0 0 0 0 0 
0 0 0 0 0 0 0 0 0 
0 0 0 0 0 0 0 0 0 
0 0 0 0 0 0 0 0 0 
0 0 0 0 0 0 0 0 0 
0 0 0 0 0 0 0 0 0 
0 0 0 0 0 0 0 0 0 
0 0 0 0 0 0 0 0 0 
0 0 0 0 0 0 0 0 0 
0 0 0 0 0 0 0 0 0 
0 0 0 0 0 0 0 0 0 
0 0 0 0 0 0 0 0 0 
0 0 0 0 0 0 0 0 0 
0 0 0 0 0 0 0 0 0 

