# vtk DataFile Version 5.1
Generated by LIGGGHTS
ASCII
DATASET POLYDATA
POINTS 648 float
-0.0428902 -0.0449088 0.00102 -0.00340304 -0.0448428 0.00114057 -0.044759 -0.0437614 0.00102 
-0.0335565 -0.0442122 0.00106649 -0.0308094 -0.0435702 0.00102 0.0181024 -0.0433049 0.00125427 
0.0348044 -0.042095 0.00108994 0.0418836 -0.0421436 0.00102 -0.00674967 -0.0416523 0.00104363 
0.0414821 -0.0410789 0.00103029 -0.042922 -0.0404536 0.0010263 -0.0334706 -0.0396012 0.00102622 
-0.018434 -0.0405477 0.00102014 0.0244803 -0.0401788 0.0010514 0.040047 -0.0404588 0.00102 
-0.0108246 -0.0388127 0.00102212 -0.00302782 -0.0385948 0.00102 0.0156715 -0.0391733 0.00102 
0.00798734 -0.0367051 0.00102 0.0308099 -0.0378456 0.00102 -0.0168273 -0.0360331 0.00130981 
0.000822496 -0.0363122 0.00102 0.00594186 -0.0351889 0.00126782 0.0333162 -0.0342631 0.00102 
0.023158 -0.0340207 0.00102 0.0244271 -0.0334586 0.00102 -0.0262624 -0.032473 0.00102527 
-0.0232422 -0.0321576 0.00102 0.0346336 -0.0325969 0.00119818 -0.0266532 -0.0301716 0.00102 
-0.0105296 -0.0314142 0.00102 0.0280204 -0.0311414 0.00102 0.0449741 -0.0303513 0.0012484 
-0.0448384 -0.0296834 0.00102 0.0346338 -0.0290927 0.00113716 0.00577088 -0.0287415 0.00102 
-0.0430551 -0.0267583 0.00103203 0.000892701 -0.0263701 0.0010271 0.0306875 -0.0259396 0.00104822 
0.033456 -0.0256735 0.00102 0.032808 -0.025967 0.00102 -0.0408326 -0.0234295 0.00102 
-0.038621 -0.0229432 0.0013902 -0.0225401 -0.0213878 0.00118655 0.00623721 -0.0211799 0.00127634 
0.0233461 -0.0214624 0.00122484 0.0436787 -0.0219137 0.00102 -0.00827992 -0.020547 0.00110216 
0.0336491 -0.0197505 0.00102 -0.0108877 -0.0188832 0.00102 0.0363266 -0.0194176 0.00102543 
-0.0317771 -0.0175651 0.00102 -0.0204621 -0.0172006 0.0010203 -0.0100897 -0.0180162 0.00116736 
0.0030191 -0.0179247 0.00102 0.0404767 -0.0183151 0.00102 -0.0426154 -0.0165053 0.00125096 
-0.0339565 -0.0167518 0.00127426 -0.0257955 -0.0157834 0.00104201 0.0223879 -0.0163393 0.00102 
-0.00444012 -0.0151621 0.00102444 0.0198229 -0.0156851 0.00127938 0.0268005 -0.0146468 0.00114874 
-0.0388614 -0.0136303 0.00122082 -0.0117656 -0.0138394 0.00106537 0.0176437 -0.0119747 0.00125333 
0.00689113 -0.0107816 0.00102 0.0277003 -0.0107969 0.00102 -0.0222502 -0.00974669 0.00105235 
-0.0196799 -0.00931279 0.00107429 -0.0112192 -0.0104501 0.00102 0.00743742 -0.00926665 0.00102 
0.013874 -0.00963069 0.00105763 0.0313953 -0.00974065 0.00104958 0.0350526 -0.0102353 0.00102 
-0.00553214 -0.00871323 0.00105519 -0.00254943 -0.00825679 0.00118452 -0.0304645 -0.00701594 0.00117499 
-0.0198564 -0.00683511 0.00102 0.0109664 -0.00760095 0.00104332 0.0404774 -0.00688032 0.00103313 
-0.0129003 -0.00574839 0.00102 -0.00747582 -0.00609419 0.00105129 0.0387156 -0.00624884 0.00126469 
0.00937085 -0.00418454 0.00102 0.0131353 -0.00504642 0.00102 0.0180565 -0.00487531 0.00109771 
0.021323 -0.00444137 0.00102183 0.0448793 -0.00396119 0.00137852 -0.042786 -0.00359954 0.00106388 
-0.0179231 -0.00300678 0.00102 -0.0141425 -0.00311887 0.00106753 -0.0120059 -0.00345367 0.00122453 
-0.0281455 -0.00127675 0.00121357 -0.00783961 -0.000387029 0.00102 -0.00702036 -0.00121172 0.00102 
0.0290986 -0.000251763 0.00129187 -0.0260142 0.00017485 0.00106051 0.0384376 0.000848974 0.00102 
-0.00967086 0.00179773 0.00102 0.00417698 0.0024455 0.00102 0.0147261 0.00139147 0.00120863 
0.0188762 0.00181355 0.00105259 0.032558 0.00153523 0.00120037 -0.0325416 0.00283857 0.00116482 
0.0449494 0.00392273 0.00106151 0.0292006 0.00433004 0.00102 0.0305447 0.00486582 0.00102 
0.0404406 0.00462082 0.00124659 -0.037077 0.00611456 0.00105938 -0.0287984 0.00559412 0.00102 
-0.0170872 0.00564833 0.00102 0.0011249 0.00615697 0.00102 0.021602 0.00540593 0.00102 
0.0228765 0.00606581 0.00102 0.0246705 0.0064451 0.00102 0.030759 0.00580352 0.00120614 
-0.0426568 0.00723228 0.00102 0.0221269 0.00728552 0.00107551 0.0283387 0.00890506 0.00102293 
0.0340899 0.00882812 0.00118514 -0.0392616 0.00972366 0.00102 -0.0214351 0.00957734 0.00102 
-0.0101256 0.00978275 0.00102 0.0197977 0.00963841 0.00102 0.0212596 0.00979192 0.00102 
0.0211953 0.00966092 0.00123193 -0.0394276 0.0109375 0.00115017 0.0399323 0.0117688 0.00102 
0.0398091 0.011618 0.00117787 -0.0365733 0.0119208 0.00102154 -0.00279986 0.0127222 0.00102 
0.00861143 0.0123591 0.00106942 -0.0429188 0.0135204 0.00118089 -0.034865 0.0142961 0.00102 
-0.0310202 0.0131063 0.00102 8.23501e-07 0.0138406 0.00102 0.0143092 0.0139794 0.00102 
0.0248423 0.0143007 0.00102 0.0287781 0.014071 0.00102 -0.00307286 0.0144526 0.00102069 
0.000954082 0.0152563 0.00108915 0.00517921 0.0169249 0.00102515 0.0418335 0.0161761 0.00104846 
-0.0360536 0.0173104 0.00102 0.0215224 0.0171285 0.00102 0.0407412 0.0174253 0.0012438 
-0.0214239 0.0189608 0.00102 0.00395304 0.0187088 0.00121328 0.0090081 0.0191686 0.00114356 
0.018015 0.0183735 0.00118272 -0.023041 0.0197144 0.00102 -0.022709 0.0198803 0.00102 
-0.0153727 0.020636 0.00102 -0.0282566 0.021284 0.00102 0.00128112 0.0217131 0.00125406 
0.0123926 0.0218243 0.00102 -0.0349287 0.0230684 0.00107821 0.03506 0.0228899 0.00102 
-0.0267196 0.0236159 0.00114019 0.0307708 0.0242663 0.00104238 -0.0386663 0.0253433 0.00130953 
-0.00739359 0.0259593 0.00130243 0.0167463 0.0251763 0.00102 0.0226957 0.0260881 0.00102 
0.00953871 0.0271324 0.00122774 0.0395905 0.0272142 0.00119867 -0.0357156 0.0282031 0.0012524 
-0.0127911 0.0299546 0.00104986 0.0191509 0.0299648 0.00124327 -0.0409258 0.0305044 0.00102 
-0.0313244 0.0314049 0.00103425 -0.0200898 0.0311527 0.00102 -0.0108954 0.0304 0.00120553 
0.00372347 0.0304157 0.00102164 0.0038092 0.0311583 0.00104811 0.026696 0.03017 0.00119933 
0.0364634 0.0310238 0.00102675 0.0444958 0.0309554 0.00102 -0.0073504 0.0318329 0.0010602 
0.00390562 0.0317225 0.00104709 -0.0337286 0.0337045 0.00122367 -0.0264781 0.032823 0.00102 
0.00284552 0.0345861 0.00102 0.0231674 0.0340949 0.00125303 -0.041477 0.0364172 0.00104664 
-0.00196307 0.0366495 0.00106117 -0.0245447 0.0378537 0.00115713 0.0297434 0.0373158 0.00102 
-0.00973825 0.0391656 0.00102191 0.0165329 0.0385374 0.00102 0.0238959 0.0383247 0.00102 
-0.0375088 0.0393741 0.00107499 -0.0312382 0.0393096 0.00105614 -0.0112537 0.0395394 0.00127417 
0.0221021 0.0401282 0.00128359 0.0251972 0.0393087 0.00102 -0.0133259 0.0414802 0.00116121 
-0.00785852 0.041878 0.00134179 0.0163992 0.0415262 0.00102 0.0222253 0.0407186 0.00102637 
-0.0390027 0.0421086 0.00102 0.0294278 0.0431452 0.00124044 0.0430506 0.0422314 0.00135477 
-0.0205282 0.0432397 0.00127879 -0.0160353 0.0448572 0.00135053 -0.0346971 -0.0446764 0.00154793 
-0.0317519 -0.0446953 0.00210411 0.0262096 -0.0449372 0.00206872 -0.027409 -0.0433703 0.0014272 
0.0145521 -0.0432303 0.00204694 0.0416479 -0.0439733 0.0014458 -0.0248654 -0.0427111 0.00166482 
0.0248068 -0.0428986 0.00159209 -0.0349861 -0.0412827 0.00167326 0.000425919 -0.0415728 0.00254733 
0.0339316 -0.041715 0.00191301 -0.0406141 -0.0405112 0.00251837 -0.0248652 -0.040212 0.00134574 
-0.0169239 -0.0402939 0.00226608 -0.00670669 -0.0394183 0.00166252 -0.0289295 -0.0389067 0.00240019 
-0.0234086 -0.038644 0.00163096 -0.0370475 -0.0370945 0.00244201 0.0397687 -0.0374633 0.00162343 
-0.0439713 -0.0357399 0.00146245 -0.0273176 -0.0361067 0.00210568 -0.00338111 -0.0363358 0.00158458 
0.0195647 -0.0366528 0.00243186 0.0307351 -0.0355434 0.0018044 -0.0179089 -0.0346335 0.00214164 
0.00879071 -0.0344865 0.00136424 0.043014 -0.0343178 0.00201712 0.0433459 -0.0353282 0.00217994 
-0.0427235 -0.0332389 0.0013953 -0.00586029 -0.0338127 0.00124072 0.00264867 -0.0338128 0.00169072 
-0.0376897 -0.0314333 0.00237861 -0.0160452 -0.0323821 0.00239599 0.00802514 -0.031483 0.00189529 
-0.0396817 -0.0304797 0.00225578 -0.0386911 -0.0311434 0.00234015 -0.00682403 -0.0314098 0.00177911 
0.010226 -0.0308634 0.0018482 0.00231692 -0.0294453 0.00235816 0.0392765 -0.0300093 0.00206791 
0.0156293 -0.0283842 0.00227607 0.0164647 -0.0275391 0.00127565 -0.0432264 -0.0264101 0.00156732 
-0.00580099 -0.0272788 0.0015532 0.0101031 -0.0273014 0.00220117 -0.0338231 -0.0250135 0.00179057 
-0.00446216 -0.0255279 0.00214151 0.0054016 -0.025334 0.00141901 0.00538025 -0.0241403 0.00243161 
0.0155599 -0.0240909 0.00139707 -0.0139777 -0.0223984 0.00210149 0.0115492 -0.0227248 0.00239549 
-0.0323128 -0.0219837 0.00227833 -0.0291427 -0.0219343 0.00192264 0.039775 -0.0211058 0.00129633 
-0.0296942 -0.0196153 0.00135373 0.00156248 -0.0194187 0.00139046 0.0134129 -0.0192809 0.00232066 
0.0184681 -0.0172117 0.00236178 0.0282033 -0.0178095 0.00102298 -0.0405162 -0.0161033 0.00217975 
0.0296492 -0.015918 0.00220399 -0.015814 -0.0152491 0.00189595 0.0249316 -0.014475 0.00176855 
0.0375745 -0.0151367 0.00197391 -0.0329121 -0.0139828 0.00136589 -0.0227164 -0.0141288 0.00139574 
-0.00710141 -0.0133745 0.0026171 0.0403752 -0.0143085 0.00231163 -0.0341597 -0.0122829 0.0017285 
0.0322358 -0.0130621 0.0023236 0.0347312 -0.012978 0.00222289 0.0414517 -0.0114994 0.00142503 
0.0218314 -0.00971151 0.00211562 0.0251729 -0.00985964 0.00130184 0.0286804 -0.00919085 0.00142535 
-0.0101373 -0.00698039 0.00204127 -0.00433253 -0.00676057 0.00163043 -0.00401126 -0.00720159 0.00182748 
0.0275881 -0.00673863 0.00208667 -0.00720807 -0.00608605 0.00186162 -0.040885 -0.00406647 0.00145017 
-0.0408474 -0.00214648 0.00135612 0.00664535 -0.00164817 0.00136396 -0.0376932 -0.000132947 0.00238451 
-0.000610522 -0.00103491 0.00228772 0.00127443 -0.000618905 0.00235577 -0.0416237 0.00110806 0.00250177 
-0.0332593 0.000859011 0.00203912 -0.0131355 0.00164571 0.00201699 -0.0137512 0.00384646 0.00200514 
0.00265626 0.00371614 0.00226182 -0.027449 0.00511055 0.00267946 -0.025141 0.00447188 0.00130679 
0.00314898 0.00491531 0.00191078 0.0323225 0.00436429 0.00230787 -0.01547 0.00642247 0.00260548 
-0.00723413 0.00605583 0.00244857 -0.00552594 0.00555795 0.00161957 0.0101693 0.00555192 0.00146908 
0.00533928 0.00728904 0.00124861 0.0110904 0.00657535 0.00253464 -0.0442311 0.00821601 0.00137992 
0.0142017 0.0079404 0.00183577 0.0202046 0.00840095 0.00186466 0.00978397 0.00922321 0.0025146 
0.00418285 0.0112423 0.00142828 -0.0350204 0.0121089 0.00245985 0.00243185 0.0120975 0.00145769 
0.0128044 0.0127337 0.00186535 0.014866 0.0127598 0.00215849 0.00789931 0.0136568 0.00223582 
0.0114764 0.0140289 0.0017967 0.0336082 0.013194 0.00210778 0.0441199 0.0136981 0.00253833 
-0.0196462 0.0155185 0.00226734 0.0121458 0.0151918 0.00133706 -0.0286532 0.0159811 0.00266682 
-0.0161548 0.0159009 0.00203957 -0.00317984 0.0164631 0.0025753 0.0226738 0.0181095 0.00185485 
-0.0436896 0.0195853 0.00210054 -0.0363159 0.0185996 0.00255113 0.00757299 0.0192258 0.00210913 
0.0122157 0.0191756 0.00181644 0.0388885 0.0193682 0.00186186 -0.0431379 0.0208085 0.00170473 
-0.0295899 0.0232577 0.00230003 0.0146363 0.0223077 0.00184672 -0.0138035 0.0240512 0.0021721 
-0.00782209 0.0241861 0.0022253 0.0181332 0.0246356 0.0012255 0.0258603 0.0235991 0.00187009 
-0.0132251 0.0252506 0.00204154 -0.0267569 0.0263983 0.00136331 -0.0102477 0.0267602 0.00108471 
-0.00563177 0.0268155 0.00133164 -0.0406313 0.0295913 0.00206216 -0.0152062 0.0294088 0.00143077 
0.00519606 0.0301696 0.00245844 -0.0213481 0.0319153 0.00160501 -0.00435696 0.0325462 0.00205068 
0.01325 0.0319187 0.00131849 0.0372507 0.0318783 0.00210067 -0.0359241 0.0337864 0.00149278 
0.0152528 0.033152 0.00204768 0.00317215 0.0343196 0.00250509 0.0132394 0.0345575 0.00143818 
-0.00750544 0.0361316 0.00232405 -0.00883869 0.0381834 0.00252773 -0.039126 0.0399637 0.0026286 
-0.0379532 0.0399341 0.00153455 0.00805094 0.0422278 0.00124408 -0.0181988 0.0434549 0.0018258 
0.0114086 0.0440135 0.002023 0.0352379 0.0438995 0.00228134 0.0405446 0.0433429 0.00131286 
0.0399235 0.0434757 0.00158536 -0.0190394 0.0446837 0.001441 0.0171919 0.0449185 0.00175524 
0.0211706 0.0445491 0.00186232 0.0147823 -0.0446949 0.00310811 -0.00396528 -0.0444182 0.00369733 
0.0195053 -0.043722 0.00337716 -0.0389435 -0.0425966 0.0031688 0.0131812 -0.0427533 0.00267939 
0.0201641 -0.0426709 0.00336307 0.0406519 -0.0427256 0.00341353 -0.0136468 -0.0412372 0.00364808 
0.0166138 -0.0412108 0.0038014 0.0238162 -0.0409762 0.00270358 0.0338942 -0.0410147 0.00265168 
0.0424299 -0.0409921 0.00273261 0.00849583 -0.0405939 0.00302462 -0.0195638 -0.0385913 0.00312965 
0.0325128 -0.03812 0.00331867 0.00985621 -0.0367022 0.0037359 -0.0309963 -0.0355024 0.00300725 
-0.00161929 -0.0353994 0.00330376 0.0355384 -0.0354155 0.00344807 -0.0177429 -0.0346724 0.00282916 
-8.23525e-05 -0.034098 0.00304342 0.0077947 -0.0345433 0.0026112 0.0403097 -0.0347888 0.00329945 
-0.0177803 -0.0340186 0.00360821 -0.0161578 -0.0337243 0.00317215 0.027474 -0.0338615 0.00280432 
-0.0233761 -0.031813 0.00376843 -0.0210092 -0.0320472 0.00283915 -0.0220587 -0.0306349 0.00373524 
-0.0414327 -0.0290659 0.00369459 -0.0263426 -0.0292431 0.00331009 0.023019 -0.0293484 0.00351712 
-0.0401314 -0.0280847 0.00337102 -0.0346801 -0.0287009 0.00295529 -0.0240024 -0.0280603 0.00338724 
0.0153133 -0.0285941 0.00359689 0.03382 -0.0268981 0.00275585 0.0350196 -0.0250011 0.00335218 
0.0347572 -0.0260666 0.00328562 -0.00863888 -0.0237376 0.00307092 0.00179778 -0.0247441 0.00303683 
0.00558373 -0.0242787 0.00376369 0.0210005 -0.0239559 0.00274163 -0.0350278 -0.0224863 0.00283576 
-0.0127621 -0.0231756 0.00303221 0.0109547 -0.0235646 0.00274885 0.0240101 -0.0228809 0.00304438 
0.035159 -0.023363 0.00363725 -0.0164034 -0.0216001 0.00338156 0.0394323 -0.021923 0.00380388 
-0.0210835 -0.0209207 0.00365743 -0.0033641 -0.0204173 0.00364832 0.00548761 -0.0197918 0.00328602 
-0.0207996 -0.0190456 0.00300969 0.0204492 -0.0194639 0.00326593 -0.0328213 -0.0176588 0.00289233 
-0.0147645 -0.0165889 0.0032882 0.0252581 -0.0163235 0.00330027 0.038292 -0.016257 0.00288844 
-0.0408642 -0.0154151 0.00325061 0.0132043 -0.01541 0.00346187 0.0323803 -0.0150629 0.00375194 
-0.0313057 -0.0141988 0.00281052 -0.0279963 -0.0141356 0.00353618 -0.0186412 -0.0134353 0.00284069 
0.00886689 -0.0141191 0.00280786 0.0144468 -0.013247 0.0036311 -0.0327621 -0.0121928 0.003673 
-0.0269092 -0.0125643 0.00318658 -0.00528066 -0.0121118 0.0037298 0.0253763 -0.011051 0.00308561 
-0.0253401 -0.0103599 0.00268969 -0.0136128 -0.00979682 0.00276619 0.0334462 -0.00930086 0.00369653 
0.0352883 -0.0103067 0.00256577 0.0406218 -0.0100941 0.00317429 -0.042331 -0.00792816 0.00274786 
-0.0343844 -0.0078404 0.00275521 -0.0344646 -0.00725539 0.00279033 -0.0211095 -0.00770044 0.00290523 
-0.0150798 -0.00698339 0.00274563 -0.0135858 -0.00672635 0.00292885 0.0129906 -0.00677597 0.00286659 
0.0161928 -0.00760918 0.0027035 0.00523139 -0.00599236 0.00315832 -0.0253129 -0.0039775 0.00362737 
0.0180458 -0.00470109 0.00376527 0.0200271 -0.00425623 0.00367948 0.0386193 -0.00496685 0.00303679 
-0.00941413 -0.00330341 0.0036397 0.00975646 -0.00313231 0.00275444 0.0293019 -0.00298432 0.00268772 
-0.0395569 -0.00227866 0.00340002 -0.0198668 -0.00211416 0.00312889 -0.00896956 -0.00131708 0.00261824 
0.0168839 -0.00210364 0.00301596 -0.0283489 -0.000417126 0.00369123 -0.0153419 -0.00108619 0.00383079 
0.0140084 -6.89735e-05 0.00365284 0.0420414 -0.00101026 0.00293619 0.0407777 0.000744206 0.00322868 
-0.00229178 0.0020129 0.00273053 0.0116524 0.00206193 0.00372938 0.0189244 0.00254502 0.00315679 
0.0362421 0.00170773 0.00271199 -0.0261639 0.00337815 0.0032601 -0.0233311 0.00384073 0.00308556 
0.00243665 0.00282786 0.00365481 0.0183943 0.00266245 0.00366264 0.0260144 0.00429017 0.00307768 
-0.0406381 0.00555966 0.00287734 -0.0403489 0.00598291 0.00275468 0.0250346 0.00641518 0.00333766 
0.0332757 0.00539899 0.0030987 0.0358407 0.00533501 0.00337133 -0.0429246 0.00657681 0.00385045 
-0.009285 0.00693532 0.00341899 -0.00598638 0.00689803 0.00295019 -0.019893 0.00878872 0.00293869 
-0.0105861 0.00898083 0.00369392 0.0324887 0.00836074 0.00278769 -0.0408306 0.00999374 0.00284772 
-0.0349081 0.00917553 0.00342681 0.00474506 0.0103043 0.00265408 0.0234497 0.00978487 0.00339411 
0.027557 0.009967 0.00314118 -0.00808524 0.0113378 0.0032594 -0.00071691 0.0108932 0.00348145 
-0.00831541 0.0129665 0.0027816 0.0261916 0.0119357 0.0026951 -0.00841171 0.0143034 0.00384333 
-0.00867948 0.0139924 0.00334911 0.012949 0.0143048 0.00269255 0.0311878 0.014057 0.00283302 
0.0396593 0.013993 0.00371106 -0.0287818 0.014969 0.00280041 -0.0231109 0.0157017 0.00363098 
0.0440772 0.0154938 0.00305807 -0.0408838 0.0159645 0.00340714 -0.00443291 0.0160613 0.00305555 
-0.0193355 0.018129 0.00278824 -0.0122189 0.0175978 0.00275272 0.00546842 0.0177814 0.00271095 
0.0256029 0.0175394 0.00295329 0.00742845 0.0199749 0.00344424 0.00976854 0.0197772 0.00300353 
0.0350116 0.0207306 0.00269391 -0.0287332 0.0215601 0.00353344 -0.0122989 0.0222019 0.00356365 
0.0362273 0.0220011 0.00291648 0.0398418 0.0217469 0.00283019 -0.0421793 0.0225172 0.00283401 
-0.0324762 0.0230005 0.00351332 -0.0148746 0.0223253 0.00371812 0.00126512 0.0228658 0.00371152 
-0.0436572 0.0238848 0.00298942 0.00264144 0.0247174 0.00352872 0.021223 0.0244832 0.00353014 
0.0438582 0.0244724 0.00300903 0.000162142 0.0251126 0.00340708 -0.0190887 0.0269029 0.00320717 
-0.0128609 0.0265935 0.00323512 -0.0114472 0.026715 0.00270614 -0.0214233 0.0285543 0.00293759 
0.00834461 0.0278725 0.0026359 0.0397191 0.0283771 0.00340247 -0.0376379 0.0294143 0.00306349 
0.0434247 0.0295768 0.00269572 -0.032208 0.0306075 0.00281439 -0.0219587 0.0304934 0.00269516 
0.0040127 0.0314243 0.00314348 0.0191028 0.0315895 0.00323554 0.0193546 0.0324404 0.00378042 
0.0337272 0.0324898 0.00288432 0.0380057 0.0324307 0.0032873 -0.0425374 0.0333781 0.00312613 
0.00727395 0.0332762 0.00312572 0.0214431 0.0335886 0.00274014 -0.00472634 0.0344449 0.00342697 
0.0164577 0.0353116 0.00235126 0.0278529 0.0342296 0.00357141 -0.0407273 0.0358476 0.00346042 
0.00888594 0.0360502 0.00324306 0.00367032 0.0371324 0.00333771 0.0030545 0.0369981 0.00293597 
0.0311732 0.0371467 0.00297479 -0.00647711 0.0391566 0.0026352 -0.00585061 0.0388609 0.00366029 
0.0281745 0.039089 0.00267546 0.00201585 0.0404036 0.00338997 0.0170579 0.0421878 0.00283895 
0.00528787 0.0432844 0.00369901 0.0352701 0.0439749 0.00269356 -0.0390775 0.0447256 0.00349751 
0.0341086 -0.0368686 0.00442539 0.0268369 -0.0315202 0.00438552 -0.0240719 -0.0268296 0.00422234 
0.0102479 -0.024092 0.00402376 0.0262592 -0.0217201 0.00368557 -0.0183202 -0.0175475 0.00438512 
-0.038829 -0.00978443 0.0044762 -0.0214415 -0.007536 0.00475823 -0.0107529 -0.00365687 0.00398681 
0.039455 -0.000236508 0.00502101 -0.0408092 0.00981999 0.00515396 0.00976298 0.0163696 0.00471615 
-0.014478 0.0275162 0.00413881 -0.0422696 0.0340949 0.00463042 0.0272875 -0.0186725 0.00613144 
0.0323804 -0.0132471 0.00545662 0.0342493 -0.0115037 0.00583509 0.0277548 0.0042931 0.00575022 
0.0320014 0.00756294 0.00552425 0.023953 0.00820576 0.00597581 0.00153271 0.0201988 0.0049834 
-0.0260391 0.0304395 0.00606009 0.0354139 0.0312817 0.00525273 0.0412685 -0.0295104 0.00699114 
0.0218308 -0.0192565 0.00697531 0.0223025 -0.0112244 0.007269 -0.00474481 -0.00600267 0.00643294 
0.012585 0.0155082 0.00641858 -0.0368667 0.0306348 0.00649404 -0.0225361 -0.0441701 0.00849439 
-0.0419519 -0.0259749 0.00846228 0.0127657 -0.00746761 0.0075144 0.0153641 0.0146287 0.00849035 
-0.0269229 0.0267788 0.00769439 -0.0393221 -0.0167834 0.00944001 -0.0207563 -0.0111167 0.0092261 
-0.0449336 -0.00957357 0.00937046 -0.0326334 -0.00963456 0.0097227 0.00513794 0.0433856 0.00946187 
-0.0329608 -0.0218045 0.0113968 -0.0245993 0.0193658 0.011267 -0.0197415 0.0344175 0.0110307 
0.00308146 0.0401468 0.0104187 0.0185094 -0.042363 0.0123925 0.0419483 -0.0348097 0.0122943 
-0.0336946 -0.0248459 0.0122391 -0.0328109 -0.0226975 0.0121502 0.0414834 -0.0181367 0.0127316 
0.0302919 -0.0148257 0.0123327 -0.024842 -0.00884532 0.0116889 -0.0371624 0.011326 0.0115826 
0.0323341 0.0191974 0.0118976 0.0104707 0.0313218 0.0122452 0.0439232 0.0371117 0.0121257 
-0.0281804 0.0418824 0.0125767 -0.0440308 0.0448256 0.0121214 -0.015788 -0.0282898 0.013298 
0.0379188 0.0120326 0.0132963 -0.0420316 -0.0145538 0.0150519 -0.0155539 0.0359545 0.0142222 
-0.0437633 0.0406561 0.0153484 -0.0385899 -0.0405251 0.0163269 -0.0386256 -0.00983966 0.016351 
0.0414788 -0.00521487 0.0165079 0.00347554 0.00338662 0.0164612 -0.00521279 -0.0413279 0.0173113 
-0.0356048 -0.000104637 0.017395 -0.0144089 0.0201081 0.0174381 -0.0296003 0.0277025 0.0171471 
0.0433204 -0.0141837 0.0182344 0.0154702 -0.00154679 0.01818 0.0133448 0.00646544 0.0186321 
-0.0081225 0.0151775 0.0181417 -0.0256005 0.0215871 0.0184724 0.0289145 -0.0340196 0.0197981 
0.0188903 -0.0308528 0.0200939 -0.0207679 -0.0256315 0.0204104 0.00357123 -0.00830953 0.0197944 
0.0282359 -0.00877456 0.0195923 -0.00757157 0.00454821 0.0194509 0.0131273 0.040817 0.0201429 
-0.00254916 -0.00379952 0.0211432 0.00643655 -0.000956063 0.0210397 0.00635633 0.000852437 0.0207914 
0.0242571 -0.0100823 0.0229444 0.00741479 -0.0295782 0.0242795 -0.0170112 0.0231088 0.0250552 

VERTICES 649 648
OFFSETS vtktypeint64
0 1 2 3 4 5 6 7 8 
9 10 11 12 13 14 15 16 17 
18 19 20 21 22 23 24 25 26 
27 28 29 30 31 32 33 34 35 
36 37 38 39 40 41 42 43 44 
45 46 47 48 49 50 51 52 53 
54 55 56 57 58 59 60 61 62 
63 64 65 66 67 68 69 70 71 
72 73 74 75 76 77 78 79 80 
81 82 83 84 85 86 87 88 89 
90 91 92 93 94 95 96 97 98 
99 100 101 102 103 104 105 106 107 
108 109 110 111 112 113 114 115 116 
117 118 119 120 121 122 123 124 125 
126 127 128 129 130 131 132 133 134 
135 136 137 138 139 140 141 142 143 
144 145 146 147 148 149 150 151 152 
153 154 155 156 157 158 159 160 161 
162 163 164 165 166 167 168 169 170 
171 172 173 174 175 176 177 178 179 
180 181 182 183 184 185 186 187 188 
189 190 191 192 193 194 195 196 197 
198 199 200 201 202 203 204 205 206 
207 208 209 210 211 212 213 214 215 
216 217 218 219 220 221 222 223 224 
225 226 227 228 229 230 231 232 233 
234 235 236 237 238 239 240 241 242 
243 244 245 246 247 248 249 250 251 
252 253 254 255 256 257 258 259 260 
261 262 263 264 265 266 267 268 269 
270 271 272 273 274 275 276 277 278 
279 280 281 282 283 284 285 286 287 
288 289 290 291 292 293 294 295 296 
297 298 299 300 301 302 303 304 305 
306 307 308 309 310 311 312 313 314 
315 316 317 318 319 320 321 322 323 
324 325 326 327 328 329 330 331 332 
333 334 335 336 337 338 339 340 341 
342 343 344 345 346 347 348 349 350 
351 352 353 354 355 356 357 358 359 
360 361 362 363 364 365 366 367 368 
369 370 371 372 373 374 375 376 377 
378 379 380 381 382 383 384 385 386 
387 388 389 390 391 392 393 394 395 
396 397 398 399 400 401 402 403 404 
405 406 407 408 409 410 411 412 413 
414 415 416 417 418 419 420 421 422 
423 424 425 426 427 428 429 430 431 
432 433 434 435 436 437 438 439 440 
441 442 443 444 445 446 447 448 449 
450 451 452 453 454 455 456 457 458 
459 460 461 462 463 464 465 466 467 
468 469 470 471 472 473 474 475 476 
477 478 479 480 481 482 483 484 485 
486 487 488 489 490 491 492 493 494 
495 496 497 498 499 500 501 502 503 
504 505 506 507 508 509 510 511 512 
513 514 515 516 517 518 519 520 521 
522 523 524 525 526 527 528 529 530 
531 532 533 534 535 536 537 538 539 
540 541 542 543 544 545 546 547 548 
549 550 551 552 553 554 555 556 557 
558 559 560 561 562 563 564 565 566 
567 568 569 570 571 572 573 574 575 
576 577 578 579 580 581 582 583 584 
585 586 587 588 589 590 591 592 593 
594 595 596 597 598 599 600 601 602 
603 604 605 606 607 608 609 610 611 
612 613 614 615 616 617 618 619 620 
621 622 623 624 625 626 627 628 629 
630 631 632 633 634 635 636 637 638 
639 640 641 642 643 644 645 646 647 
648 
CONNECTIVITY vtktypeint64
0 1 2 3 4 5 6 7 8 
9 10 11 12 13 14 15 16 17 
18 19 20 21 22 23 24 25 26 
27 28 29 30 31 32 33 34 35 
36 37 38 39 40 41 42 43 44 
45 46 47 48 49 50 51 52 53 
54 55 56 57 58 59 60 61 62 
63 64 65 66 67 68 69 70 71 
72 73 74 75 76 77 78 79 80 
81 82 83 84 85 86 87 88 89 
90 91 92 93 94 95 96 97 98 
99 100 101 102 103 104 105 106 107 
108 109 110 111 112 113 114 115 116 
117 118 119 120 121 122 123 124 125 
126 127 128 129 130 131 132 133 134 
135 136 137 138 139 140 141 142 143 
144 145 146 147 148 149 150 151 152 
153 154 155 156 157 158 159 160 161 
162 163 164 165 166 167 168 169 170 
171 172 173 174 175 176 177 178 179 
180 181 182 183 184 185 186 187 188 
189 190 191 192 193 194 195 196 197 
198 199 200 201 202 203 204 205 206 
207 208 209 210 211 212 213 214 215 
216 217 218 219 220 221 222 223 224 
225 226 227 228 229 230 231 232 233 
234 235 236 237 238 239 240 241 242 
243 244 245 246 247 248 249 250 251 
252 253 254 255 256 257 258 259 260 
261 262 263 264 265 266 267 268 269 
270 271 272 273 274 275 276 277 278 
279 280 281 282 283 284 285 286 287 
288 289 290 291 292 293 294 295 296 
297 298 299 300 301 302 303 304 305 
306 307 308 309 310 311 312 313 314 
315 316 317 318 319 320 321 322 323 
324 325 326 327 328 329 330 331 332 
333 334 335 336 337 338 339 340 341 
342 343 344 345 346 347 348 349 350 
351 352 353 354 355 356 357 358 359 
360 361 362 363 364 365 366 367 368 
369 370 371 372 373 374 375 376 377 
378 379 380 381 382 383 384 385 386 
387 388 389 390 391 392 393 394 395 
396 397 398 399 400 401 402 403 404 
405 406 407 408 409 410 411 412 413 
414 415 416 417 418 419 420 421 422 
423 424 425 426 427 428 429 430 431 
432 433 434 435 436 437 438 439 440 
441 442 443 444 445 446 447 448 449 
450 451 452 453 454 455 456 457 458 
459 460 461 462 463 464 465 466 467 
468 469 470 471 472 473 474 475 476 
477 478 479 480 481 482 483 484 485 
486 487 488 489 490 491 492 493 494 
495 496 497 498 499 500 501 502 503 
504 505 506 507 508 509 510 511 512 
513 514 515 516 517 518 519 520 521 
522 523 524 525 526 527 528 529 530 
531 532 533 534 535 536 537 538 539 
540 541 542 543 544 545 546 547 548 
549 550 551 552 553 554 555 556 557 
558 559 560 561 562 563 564 565 566 
567 568 569 570 571 572 573 574 575 
576 577 578 579 580 581 582 583 584 
585 586 587 588 589 590 591 592 593 
594 595 596 597 598 599 600 601 602 
603 604 605 606 607 608 609 610 611 
612 613 614 615 616 617 618 619 620 
621 622 623 624 625 626 627 628 629 
630 631 632 633 634 635 636 637 638 
639 640 641 642 643 644 645 646 647 

POINT_DATA 648
FIELD FieldData 12
id 1 648 int
164 98 463 366 200 346 140 218 457 
207 134 256 35 326 508 34 92 459 
115 356 226 24 367 88 51 347 303 
404 543 304 185 107 352 137 294 331 
128 291 121 190 267 282 37 64 167 
472 317 174 470 154 238 439 298 247 
289 355 496 73 176 444 381 168 290 
58 215 349 106 292 227 248 231 428 
127 157 293 324 260 399 72 336 368 
383 243 299 370 515 11 125 50 263 
57 385 257 542 132 66 341 83 465 
36 175 90 186 538 334 86 418 458 
141 495 407 478 456 396 467 353 454 
450 423 129 165 261 197 288 255 214 
420 601 432 373 345 60 401 384 297 
169 322 150 491 310 202 469 193 40 
433 339 392 110 417 364 117 521 149 
166 49 337 18 330 219 109 189 100 
162 195 163 199 461 410 504 321 506 
488 187 343 201 158 268 26 327 253 
148 348 270 85 251 233 232 437 362 
320 246 328 76 318 155 435 386 361 
277 412 62 372 108 19 406 614 275 
242 534 188 84 31 113 390 562 591 
597 549 87 99 314 312 173 411 122 
22 82 67 436 492 402 319 47 605 
229 571 616 477 570 505 525 333 398 
283 139 533 120 445 527 409 645 415 
604 532 484 71 513 449 576 547 237 
479 440 44 551 517 572 422 374 240 
194 500 612 490 211 380 566 259 638 
101 427 483 39 6 42 615 224 567 
360 135 204 564 365 75 389 499 300 
598 284 56 593 216 245 486 545 546 
426 528 316 424 112 497 464 181 273 
378 21 46 633 236 63 178 308 228 
468 473 54 152 485 443 447 161 357 
254 104 97 14 12 507 131 408 535 
280 524 540 81 583 222 29 94 494 
579 313 391 452 559 523 249 91 375 
302 475 272 351 172 55 438 241 89 
93 258 414 203 471 68 52 429 577 
271 136 210 359 102 487 159 344 518 
388 489 69 350 156 589 239 307 250 
393 295 103 502 354 96 147 183 335 
430 493 116 79 234 526 416 192 323 
329 160 111 403 25 28 177 448 274 
462 553 170 143 376 74 306 276 59 
441 460 146 8 43 340 23 264 38 
3 311 95 563 53 511 522 32 580 
278 377 285 252 105 133 142 20 592 
382 405 151 371 205 217 265 80 196 
565 208 77 61 519 212 244 305 379 
503 501 474 126 153 301 425 213 124 
144 145 453 400 338 296 480 442 221 
262 446 17 119 41 395 363 48 70 
358 315 220 184 7 587 118 281 514 
33 138 431 529 279 287 130 325 394 
191 520 78 206 9 498 266 30 209 
509 179 451 114 596 419 332 481 65 
180 466 455 225 235 387 552 421 309 
286 482 182 198 413 45 536 123 434 
342 397 476 626 5 13 223 573 539 
16 10 171 2 4 15 369 550 516 
530 628 613 556 510 561 269 623 548 
558 599 557 560 594 230 574 27 622 
637 618 585 554 617 586 578 582 600 
643 635 584 581 541 603 537 569 595 
607 611 531 555 639 629 620 590 624 
575 648 544 647 641 632 568 625 609 
644 610 512 619 646 634 636 627 608 
602 631 606 642 621 630 1 640 588 

type 1 648 int
1 1 1 1 1 1 1 1 1 
1 1 1 1 1 1 1 1 1 
1 1 1 1 1 1 1 1 1 
1 1 1 1 1 1 1 1 1 
1 1 1 1 1 1 1 1 1 
1 1 1 1 1 1 1 1 1 
1 1 1 1 1 1 1 1 1 
1 1 1 1 1 1 1 1 1 
1 1 1 1 1 1 1 1 1 
1 1 1 1 1 2 1 1 1 
1 1 1 1 1 1 1 1 1 
1 1 1 1 1 1 1 1 1 
1 1 1 1 1 1 1 1 1 
1 1 1 1 1 1 1 1 1 
1 1 1 1 1 1 1 1 1 
1 1 1 1 1 1 1 1 1 
1 1 1 1 1 1 1 1 1 
1 1 1 1 1 1 1 1 1 
1 1 1 1 1 1 1 1 1 
1 1 1 1 1 1 1 1 1 
1 1 1 1 1 1 1 1 1 
1 1 1 1 1 1 1 1 1 
1 1 1 1 1 1 1 1 1 
1 1 1 1 1 1 1 1 1 
1 1 1 1 1 1 1 1 1 
1 1 1 1 1 1 1 1 1 
1 1 1 1 1 1 1 1 1 
1 1 1 1 1 1 1 1 1 
1 1 1 1 1 1 1 1 1 
1 1 1 1 1 1 1 1 1 
1 1 1 1 1 1 1 1 1 
1 1 1 1 2 1 1 1 1 
1 1 1 1 1 1 1 1 1 
1 1 1 1 1 1 1 1 1 
1 1 1 1 1 1 1 1 1 
1 1 1 1 1 1 1 1 1 
1 1 1 1 1 1 1 1 1 
1 1 1 2 2 1 1 1 1 
1 1 1 1 1 1 1 1 1 
1 1 1 1 1 1 1 1 1 
1 1 1 1 1 1 1 1 1 
1 1 1 1 1 1 1 1 1 
1 1 1 1 1 1 1 1 1 
1 1 1 1 1 1 1 1 1 
1 1 1 1 1 1 1 1 1 
1 1 1 1 1 1 1 1 1 
1 1 1 1 1 1 1 1 1 
1 1 1 1 1 1 1 1 1 
1 1 1 2 1 1 1 1 1 
2 1 1 1 1 1 1 1 1 
1 1 1 1 1 1 1 1 1 
1 1 1 1 1 1 1 1 1 
1 1 1 1 1 1 1 1 1 
1 1 1 1 1 1 1 1 1 
1 1 1 1 1 1 1 1 1 
1 1 1 1 1 1 1 1 1 
1 1 1 1 2 1 1 1 1 
1 1 1 1 1 1 1 1 1 
1 1 1 1 2 1 1 1 1 
1 1 1 1 1 1 1 1 1 
1 1 1 1 1 1 1 1 1 
1 1 1 1 1 1 1 1 1 
1 1 1 1 2 2 1 1 1 
2 2 1 3 2 2 1 1 2 
1 1 1 1 1 1 1 1 1 
1 1 1 1 1 1 1 1 1 
1 1 1 1 1 1 1 1 1 
1 1 1 1 1 1 1 1 1 
1 1 1 1 1 1 1 1 1 
1 1 1 1 1 1 1 1 1 
1 1 2 1 1 2 1 1 1 
1 1 1 1 1 1 4 1 1 

i 3 648 int
0 0 0 0 0 0 0 0 0 
0 0 0 0 0 0 0 0 0 
0 0 0 0 0 0 0 0 0 
0 0 0 0 0 0 0 0 0 
0 0 0 0 0 0 0 0 0 
0 0 0 0 0 0 0 0 0 
0 0 0 0 0 0 0 0 0 
0 0 0 0 0 0 0 0 0 
0 0 0 0 0 0 0 0 0 
0 0 0 0 0 0 0 0 0 
0 0 0 0 0 0 0 0 0 
0 0 0 0 0 0 0 0 0 
0 0 0 0 0 0 0 0 0 
0 0 0 0 0 0 0 0 0 
0 0 0 0 0 0 0 0 0 
0 0 0 0 0 0 0 0 0 
0 0 0 0 0 0 0 0 0 
0 0 0 0 0 0 0 0 0 
0 0 0 0 0 0 0 0 0 
0 0 0 0 0 0 0 0 0 
0 0 0 0 0 0 0 0 0 
0 0 0 0 0 0 0 0 0 
0 0 0 0 0 0 0 0 0 
0 0 0 0 0 0 0 0 0 
0 0 0 0 0 0 0 0 0 
0 0 0 0 0 0 0 0 0 
0 0 0 0 0 0 0 0 0 
0 0 0 0 0 0 0 0 0 
0 0 0 0 0 0 0 0 0 
0 0 0 0 0 0 0 0 0 
0 0 0 0 0 0 0 0 0 
0 0 0 0 0 0 0 0 0 
0 0 0 0 0 0 0 0 0 
0 0 0 0 0 0 0 0 0 
0 0 0 0 0 0 0 0 0 
0 0 0 0 0 0 0 0 0 
0 0 0 0 0 0 0 0 0 
0 0 0 0 0 0 0 0 0 
0 0 0 0 0 0 0 0 0 
0 0 0 0 0 0 0 0 0 
0 0 0 0 0 0 0 0 0 
0 0 0 0 0 0 0 0 0 
0 0 0 0 0 0 0 0 0 
0 0 0 0 0 0 0 0 0 
0 0 0 0 0 0 0 0 0 
0 0 0 0 0 0 0 0 0 
0 0 0 0 0 0 0 0 0 
0 0 0 0 0 0 0 0 0 
0 0 0 0 0 0 0 0 0 
0 0 0 0 0 0 0 0 0 
0 0 0 0 0 0 0 0 0 
0 0 0 0 0 0 0 0 0 
0 0 0 0 0 0 0 0 0 
0 0 0 0 0 0 0 0 0 
0 0 0 0 0 0 0 0 0 
0 0 0 0 0 0 0 0 0 
0 0 0 0 0 0 0 0 0 
0 0 0 0 0 0 0 0 0 
0 0 0 0 0 0 0 0 0 
0 0 0 0 0 0 0 0 0 
0 0 0 0 0 0 0 0 0 
0 0 0 0 0 0 0 0 0 
0 0 0 0 0 0 0 0 0 
0 0 0 0 0 0 0 0 0 
0 0 0 0 0 0 0 0 0 
0 0 0 0 0 0 0 0 0 
0 0 0 0 0 0 0 0 0 
0 0 0 0 0 0 0 0 0 
0 0 0 0 0 0 0 0 0 
0 0 0 0 0 0 0 0 0 
0 0 0 0 0 0 0 0 0 
0 0 0 0 0 0 0 0 0 
0 0 0 0 0 0 0 0 0 
0 0 0 0 0 0 0 0 0 
0 0 0 0 0 0 0 0 0 
0 0 0 0 0 0 0 0 0 
0 0 0 0 0 0 0 0 0 
0 0 0 0 0 0 0 0 0 
0 0 0 0 0 0 0 0 0 
0 0 0 0 0 0 0 0 0 
0 0 0 0 0 0 0 0 0 
0 0 0 0 0 0 0 0 0 
0 0 0 0 0 0 0 0 0 
0 0 0 0 0 0 0 0 0 
0 0 0 0 0 0 0 0 0 
0 0 0 0 0 0 0 0 0 
0 0 0 0 0 0 0 0 0 
0 0 0 0 0 0 0 0 0 
0 0 0 0 0 0 0 0 0 
0 0 0 0 0 0 0 0 0 
0 0 0 0 0 0 0 0 0 
0 0 0 0 0 0 0 0 0 
0 0 0 0 0 0 0 0 0 
0 0 0 0 0 0 0 0 0 
0 0 0 0 0 0 0 0 0 
0 0 0 0 0 0 0 0 0 
0 0 0 0 0 0 0 0 0 
0 0 0 0 0 0 0 0 0 
0 0 0 0 0 0 0 0 0 
0 0 0 0 0 0 0 0 0 
0 0 0 0 0 0 0 0 0 
0 0 0 0 0 0 0 0 0 
0 0 0 0 0 0 0 0 0 
0 0 0 0 0 0 0 0 0 
0 0 0 0 0 0 0 0 0 
0 0 0 0 0 0 0 0 0 
0 0 0 0 0 0 0 0 0 
0 0 0 0 0 0 0 0 0 
0 0 0 0 0 0 0 0 0 
0 0 0 0 0 0 0 0 0 
0 0 0 0 0 0 0 0 0 
0 0 0 0 0 0 0 0 0 
0 0 0 0 0 0 0 0 0 
0 0 0 0 0 0 0 0 0 
0 0 0 0 0 0 0 0 0 
0 0 0 0 0 0 0 0 0 
0 0 0 0 0 0 0 0 0 
0 0 0 0 0 0 0 0 0 
0 0 0 0 0 0 0 0 0 
0 0 0 0 0 0 0 0 0 
0 0 0 0 0 0 0 0 0 
0 0 0 0 0 0 0 0 0 
0 0 0 0 0 0 0 0 0 
0 0 0 0 0 0 0 0 0 
0 0 0 0 0 0 0 0 0 
0 0 0 0 0 0 0 0 0 
0 0 0 0 0 0 0 0 0 
0 0 0 0 0 0 0 0 0 
0 0 0 0 0 0 0 0 0 
0 0 0 0 0 0 0 0 0 
0 0 0 0 0 0 0 0 0 
0 0 0 0 0 0 0 0 0 
0 0 0 0 0 0 0 0 0 
0 0 0 0 0 0 0 0 0 
0 0 0 0 0 0 0 0 0 
0 0 0 0 0 0 0 0 0 
0 0 0 0 0 0 0 0 0 
0 0 0 0 0 0 0 0 0 
0 0 0 0 0 0 0 0 0 
0 0 0 0 0 0 0 0 0 
0 0 0 0 0 0 0 0 0 
0 0 0 0 0 0 0 0 0 
0 0 0 0 0 0 0 0 0 
0 0 0 0 0 0 0 0 0 
0 0 0 0 0 0 0 0 0 
0 0 0 0 0 0 0 0 0 
0 0 0 0 0 0 0 0 0 
0 0 0 0 0 0 0 0 0 
0 0 0 0 0 0 0 0 0 
0 0 0 0 0 0 0 0 0 
0 0 0 0 0 0 0 0 0 
0 0 0 0 0 0 0 0 0 
0 0 0 0 0 0 0 0 0 
0 0 0 0 0 0 0 0 0 
0 0 0 0 0 0 0 0 0 
0 0 0 0 0 0 0 0 0 
0 0 0 0 0 0 0 0 0 
0 0 0 0 0 0 0 0 0 
0 0 0 0 0 0 0 0 0 
0 0 0 0 0 0 0 0 0 
0 0 0 0 0 0 0 0 0 
0 0 0 0 0 0 0 0 0 
0 0 0 0 0 0 0 0 0 
0 0 0 0 0 0 0 0 0 
0 0 0 0 0 0 0 0 0 
0 0 0 0 0 0 0 0 0 
0 0 0 0 0 0 0 0 0 
0 0 0 0 0 0 0 0 0 
0 0 0 0 0 0 0 0 0 
0 0 0 0 0 0 0 0 0 
0 0 0 0 0 0 0 0 0 
0 0 0 0 0 0 0 0 0 
0 0 0 0 0 0 0 0 0 
0 0 0 0 0 0 0 0 0 
0 0 0 0 0 0 0 0 0 
0 0 0 0 0 0 0 0 0 
0 0 0 0 0 0 0 0 0 
0 0 0 0 0 0 0 0 0 
0 0 0 0 0 0 0 0 0 
0 0 0 0 0 0 0 0 0 
0 0 0 0 0 0 0 0 0 
0 0 0 0 0 0 0 0 0 
0 0 0 0 0 0 0 0 0 
0 0 0 0 0 0 0 0 0 
0 0 0 0 0 0 0 0 0 
0 0 0 0 0 0 0 0 0 
0 0 0 0 0 0 0 0 0 
0 0 0 0 0 0 0 0 0 
0 0 0 0 0 0 0 0 0 
0 0 0 0 0 0 0 0 0 
0 0 0 0 0 0 0 0 0 
0 0 0 0 0 0 0 0 0 
0 0 0 0 0 0 0 0 0 
0 0 0 0 0 0 0 0 0 
0 0 0 0 0 0 0 0 0 
0 0 0 0 0 0 0 0 0 
0 0 0 0 0 0 0 0 0 
0 0 0 0 0 0 0 0 0 
0 0 0 0 0 0 0 0 0 
0 0 0 0 0 0 0 0 0 
0 0 0 0 0 0 0 0 0 
0 0 0 0 0 0 0 0 0 
0 0 0 0 0 0 0 0 0 
0 0 0 0 0 0 0 0 0 
0 0 0 0 0 0 0 0 0 
0 0 0 0 0 0 0 0 0 
0 0 0 0 0 0 0 0 0 
0 0 0 0 0 0 0 0 0 
0 0 0 0 0 0 0 0 0 
0 0 0 0 0 0 0 0 0 
0 0 0 0 0 0 0 0 0 
0 0 0 0 0 0 0 0 0 
0 0 0 0 0 0 0 0 0 
0 0 0 0 0 0 0 0 0 
0 0 0 0 0 0 0 0 0 
0 0 0 0 0 0 0 0 0 

v 3 648 double
0 0 3.2413285931e-14 0 0 0.023416172315 0 0 3.2413285929e-14 
0 0 -0.028532092055 0 0 3.2413290076e-14 0 0 0.014829928319 
0 0 -0.021511581766 0 0 8.0432443462e-14 0 0 0.0050318580733 
0 0 -0.010853332279 0 0 -0.0012320364754 0 0 -0.027621339253 
0 0 0.0013574702201 0 0 0.026804178918 0 0 3.241328596e-14 
0 0 0.0030244671056 0 0 3.2413286072e-14 0 0 3.2413289944e-14 
0 0 3.2413286006e-14 0 0 -1.5605879955e-14 0 0 0.0077427082449 
0 0 3.2413286102e-14 0 0 -0.012957541883 0 0 8.0432443439e-14 
0 0 8.0432447536e-14 0 0 3.241329003e-14 0 0 0.00096175925281 
0 0 3.2413290061e-14 0 0 0.0056614143162 0 0 3.2413289938e-14 
0 0 8.0432447378e-14 0 0 8.0432447469e-14 0 0 0.012993340337 
0 0 8.0432443568e-14 0 0 0.021857416596 0 0 8.0432443464e-14 
0 0 0.0075823878082 0 0 -0.011244643217 0 0 -0.0019544150469 
0 0 3.2413289933e-14 0 0 3.2413285961e-14 0 0 8.0432447432e-14 
0 0 0.077818313637 0 0 -0.019618431821 0 0 0.0015198863312 
0 0 -0.0089291173664 0 0 8.0432447426e-14 0 0 0.025881440954 
0 0 8.0432443599e-14 0 0 8.0432443456e-14 0 0 0.00091395125153 
0 0 8.0432443441e-14 0 0 0.033187438018 0 0 -0.022349436219 
0 0 -1.5605879989e-14 0 0 3.2413286097e-14 0 0 0.01776645323 
0 0 -0.015792347486 0 0 -0.0077215569032 0 0 8.0432443553e-14 
0 0 -0.01161864563 0 0 -0.0067685053891 0 0 -0.086380329009 
0 0 -0.024723236711 0 0 -1.8051612976e-05 0 0 0.0096584947029 
0 0 3.2413290023e-14 0 0 8.043244346e-14 0 0 -0.0034275803625 
0 0 0.025076211849 0 0 3.2413289993e-14 0 0 8.0432447411e-14 
0 0 0.0018594213513 0 0 0.0010932392175 0 0 8.0432443474e-14 
0 0 0.0038264867723 0 0 0.019087146057 0 0 -0.086829835312 
0 0 8.0432443602e-14 0 0 0.010467429588 0 0 0.029811009054 
0 0 3.2413285982e-14 0 0 0.0016739951692 0 0 -3.2621631393e-05 
0 0 8.0432447573e-14 0 0 8.0432443539e-14 0 0 0.045716627651 
0 0 0.0037221461492 0 0 0.096060232163 0 0 0.029968914218 
0 0 8.0432443644e-14 0 0 0.00068238107767 0 0 0.023555225473 
0 0 0.0067390325678 0 0 3.2413286008e-14 0 0 3.2413289914e-14 
0 0 0.010212774134 0 0 0.00018503064332 0 0 -1.560588404e-14 
0 0 8.0432443503e-14 0 0 3.24132899e-14 0 0 0.013154680254 
0 0 -0.027750470397 0 0 -0.0022963057448 0 0 -0.013963172968 
0 0 -0.0049215090301 0 0 8.0432443491e-14 0 0 8.0432443537e-14 
0 0 -0.0011642437271 0 0 0.028230801889 0 0 8.0432443498e-14 
0 0 3.2413285952e-14 0 0 8.0432443535e-14 0 0 8.0432443665e-14 
0 0 8.0432447559e-14 0 0 -2.2921864804e-05 0 0 0.019611902097 
0 0 8.0432447373e-14 0 0 0.0016495923846 0 0 0.0017536710779 
0 0 -0.022854065894 0 0 8.0432443639e-14 0 0 3.2413289894e-14 
0 0 3.2413286133e-14 0 0 3.241328603e-14 0 0 3.2413286034e-14 
0 0 -0.002238790815 0 0 0.011480601599 0 0 8.0432443489e-14 
0 0 -0.021310623023 0 0 -0.081721498226 0 0 1.3593017341e-05 
0 0 -0.024796405017 0 0 -0.074271059209 0 0 8.0432443443e-14 
0 0 3.2413285951e-14 0 0 3.2413290037e-14 0 0 8.0432447588e-14 
0 0 8.043244739e-14 0 0 8.0432443526e-14 0 0 -0.009540021435 
0 0 0.026114950463 0 0 0.00046574375925 0 0 0.0045802372296 
0 0 8.043244366e-14 0 0 8.0432443654e-14 0 0 0.0027268115776 
0 0 8.0432443436e-14 0 0 0.01875750189 0 0 -0.024033552946 
0 0 0.014539448983 0 0 3.2413285938e-14 0 0 8.0432447477e-14 
0 0 -1.5605883967e-14 0 0 8.043244349e-14 0 0 0.02108025852 
0 0 8.0432447524e-14 0 0 -0.076187071673 0 0 3.2413286037e-14 
0 0 0.020918574965 0 0 0.0086965056365 0 0 0.0055471829883 
0 0 0.001016979098 0 0 3.2413286009e-14 0 0 3.2413289873e-14 
0 0 0.010895964233 0 0 -0.010653980265 0 0 -0.0059459676855 
0 0 -5.152809825e-05 0 0 0.01604268974 0 0 8.0432447534e-14 
0 0 -0.027941401751 0 0 8.6323965181e-12 0 0 0.025434075546 
0 0 0.0030189441036 0 0 -0.0054284384239 0 0 0.018777128256 
0 0 0.00059798277733 0 0 8.0432447369e-14 0 0 -0.001089420351 
0 0 0.0039564518811 0 0 0.011355605537 0 0 8.0432443508e-14 
0 0 3.2413285921e-14 0 0 -0.0037304721626 0 0 -0.026003290216 
0 0 -0.072565206377 0 0 0.019133761761 0 0 3.2413289953e-14 
0 0 0.003206170749 0 0 8.0432447367e-14 0 0 3.2413285923e-14 
0 0 -0.075684272839 0 0 0.00044575415344 0 0 -0.0027400457938 
0 0 0.0016291310255 0 0 8.04324474e-14 0 0 0.01528630696 
0 0 0.092161679894 0 0 8.0432443557e-14 0 0 -0.009805586549 
0 0 3.241328594e-14 0 0 0.0043844671883 0 0 0.092312856865 
0 0 0.004243401649 0 0 0.063884772835 0 0 -0.066833777847 
0 0 0.060688218267 0 0 0.059771986473 0 0 -0.080832024628 
0 0 -0.052294265204 0 0 -0.061979848579 0 0 -0.063752124485 
0 0 -0.067836706662 0 0 -0.059411930112 0 0 -0.0041118857598 
0 0 -0.19379452433 0 0 0.028457581097 0 0 -0.015052881897 
0 0 -0.038133902213 0 0 -0.07620250089 0 0 0.050564342115 
0 0 0.086760797645 0 0 -0.061489795507 0 0 -0.063701438132 
0 0 -0.081575525905 0 0 -0.048532364162 0 0 0.075766336013 
0 0 -0.0356695161 0 0 0.07035239068 0 0 0.067215846711 
0 0 -0.081917016091 0 0 0.064900545295 0 0 -0.015509306266 
0 0 -0.08259330771 0 0 -0.057709881538 0 0 -0.20851001091 
0 0 -0.044905607206 0 0 -0.0068177769635 0 0 -0.071859964456 
0 0 -0.23432665314 0 0 -0.057127123167 0 0 -0.26029952226 
0 0 0.071613087148 0 0 -0.036367429603 0 0 0.052207468387 
0 0 0.077542764546 0 0 -0.068304363226 0 0 0.083866114556 
0 0 -0.078549048771 0 0 -0.0032529266372 0 0 -0.073467907915 
0 0 0.023130966773 0 0 0.071604224703 0 0 -0.04652730787 
0 0 -0.07527414965 0 0 -0.23851452776 0 0 -0.033002646246 
0 0 0.037431156135 0 0 0.072231390622 0 0 -0.020122232297 
0 0 -0.0023510176835 0 0 -0.00065685926399 0 0 0.053855514283 
0 0 0.061770126529 0 0 0.083018607369 0 0 -0.01964443985 
0 0 0.05901103359 0 0 -0.047921612174 0 0 -0.06209610692 
0 0 -0.045953312685 0 0 -0.083803042741 0 0 -0.050906798535 
0 0 0.063840301512 0 0 -0.048866797788 0 0 -0.055286632314 
0 0 0.059551825196 0 0 0.073068949694 0 0 0.061374276359 
0 0 0.077932931334 0 0 -0.0032179039592 0 0 0.0033880334091 
0 0 0.077606945785 0 0 0.0068470721708 0 0 -0.066542166992 
0 0 -0.020877147686 0 0 0.082186192507 0 0 -0.064647650251 
0 0 -0.066655704563 0 0 -0.068913306603 0 0 -0.054481250409 
0 0 0.038208702613 0 0 0.071317660503 0 0 -0.056799475784 
0 0 0.063963320391 0 0 0.081566573803 0 0 0.081994823196 
0 0 -0.19202506863 0 0 0.063827966236 0 0 -0.0019444257056 
0 0 0.038494189589 0 0 -0.046056700482 0 0 0.064896817871 
0 0 -0.059106591964 0 0 0.078698988661 0 0 -0.052371134785 
0 0 -0.066367720112 0 0 0.032972022262 0 0 -0.26932659686 
0 0 -0.073406204669 0 0 -0.072780401468 0 0 -0.02677506377 
0 0 0.091173698422 0 0 -0.033261400096 0 0 -0.07475410127 
0 0 -0.05782048548 0 0 -0.067477692996 0 0 -0.036514788474 
0 0 -0.18811143449 0 0 -0.052984730445 0 0 -0.035434384288 
0 0 -0.049240493397 0 0 -0.01125937067 0 0 0.061383762978 
0 0 0.067357017793 0 0 0.063820749508 0 0 -0.060699890326 
0 0 0.075791934744 0 0 0.047713326556 0 0 -0.045553053239 
0 0 -0.06000889359 0 0 -0.060634414631 0 0 -0.064120298129 
0 0 -0.038043167521 0 0 -0.068670110635 0 0 0.077652301896 
0 0 -0.083069420698 0 0 -0.10002296517 0 0 -0.062025669607 
0 0 0.061876924452 0 0 0.014786544418 0 0 -0.20857933477 
0 0 0.0072207396374 0 0 0.057253757332 0 0 -0.23471672902 
0 0 -0.03981430732 0 0 0.053163486711 0 0 -0.070617645253 
0 0 -0.017373067932 0 0 -0.061656525178 0 0 0.090642689285 
0 0 0.056029102982 0 0 -0.040628102913 0 0 0.092084594047 
0 0 0.052994646457 0 0 -0.02032545441 0 0 0.060732987076 
0 0 0.089190581429 0 0 -0.08681401987 0 0 -0.05817007191 
0 0 -0.047841924902 0 0 -0.04674546606 0 0 -0.00014721784521 
0 0 -0.077996311161 0 0 0.09246667475 0 0 -0.052833714287 
0 0 -0.049089677013 0 0 -0.24987103492 0 0 0.0040487873986 
0 0 0.004629036268 0 0 0.050192514018 0 0 -0.030196295169 
0 0 0.012962299384 0 0 0.037676899495 0 0 0.012730258763 
0 0 -0.0042504154081 0 0 -0.053325705768 0 0 -0.020536784805 
0 0 -0.03272805054 0 0 0.053429077522 0 0 0.047540101406 
0 0 0.039822099639 0 0 -0.0066575646455 0 0 -0.014126011559 
0 0 -0.012542970047 0 0 0.015418538511 0 0 0.044185204771 
0 0 0.04808561403 0 0 -0.047454459465 0 0 -0.010165082777 
0 0 0.018930954743 0 0 0.0014102405819 0 0 -0.019545043002 
0 0 0.014712339651 0 0 0.0566635482 0 0 0.0016566542206 
0 0 -0.0021514461516 0 0 -0.029813104753 0 0 0.0031329346177 
0 0 -0.0091324201981 0 0 0.018629541419 0 0 -0.032405818327 
0 0 0.018339747288 0 0 -0.050241962497 0 0 0.044880430088 
0 0 0.02682872645 0 0 -0.0097065315087 0 0 0.0019865050273 
0 0 0.0051127601257 0 0 0.059615452373 0 0 0.0068947840789 
0 0 -0.0088491786827 0 0 0.032889329547 0 0 -0.0075282619732 
0 0 -0.0072885882803 0 0 -0.016426715228 0 0 -0.0036798903861 
0 0 0.00898409377 0 0 0.0092471297923 0 0 -0.032821513039 
0 0 0.051312973701 0 0 0.049131712877 0 0 -0.03357947966 
0 0 -0.0039382597887 0 0 0.019535003575 0 0 -0.023438918028 
0 0 -0.017387163779 0 0 0.033239497115 0 0 0.0019274949248 
0 0 0.00411862391 0 0 0.032263238994 0 0 -0.028375726092 
0 0 0.058601975175 0 0 0.016040362997 0 0 -0.016197409452 
0 0 -0.062960518895 0 0 0.020348086398 0 0 0.050143951836 
0 0 0.039662129516 0 0 0.014504027281 0 0 0.0034143989051 
0 0 -0.26753340783 0 0 -0.036159521785 0 0 -0.0042811783816 
0 0 0.014582458629 0 0 -0.023528760085 0 0 0.014629359978 
0 0 0.058613774248 0 0 -0.047270848541 0 0 0.035709122588 
0 0 -0.035524191176 0 0 -0.037770792241 0 0 0.028510078492 
0 0 -0.0081963037983 0 0 0.010298219276 0 0 -0.25109365492 
0 0 -0.0052903784469 0 0 -0.029947604265 0 0 -0.016496179594 
0 0 0.025117414386 0 0 0.0082104062366 0 0 -0.034653929308 
0 0 -0.0071514572887 0 0 -0.0023925287773 0 0 0.0086259238997 
0 0 -0.002589111781 0 0 0.054655419237 0 0 -0.035511034053 
0 0 0.032414625074 0 0 -0.003123615872 0 0 0.047503543828 
0 0 -0.05236159512 0 0 0.037700070287 0 0 0.024549066122 
0 0 -0.011684520324 0 0 0.016018705134 0 0 0.01040881797 
0 0 -0.031756957374 0 0 0.038475609671 0 0 -0.029286671606 
0 0 -0.03215792384 0 0 0.036919844574 0 0 0.021913854533 
0 0 0.042234265792 0 0 0.034009632116 0 0 0.024196665687 
0 0 0.0032677295499 0 0 0.034034587248 0 0 0.033994547534 
0 0 0.021147790981 0 0 -0.044318005858 0 0 0.035946755101 
0 0 0.047477743202 0 0 0.042806448337 0 0 0.029420092756 
0 0 -0.015549968149 0 0 -0.052266536599 0 0 -0.00040326950219 
0 0 -0.028911929027 0 0 0.039262582772 0 0 -0.02257274899 
0 0 0.0014979313155 0 0 0.05834059349 0 0 0.022427949678 
0 0 0.0055060005457 0 0 0.036704581341 0 0 -0.025195530365 
0 0 0.022482944825 0 0 -0.2663408538 0 0 0.01558683688 
0 0 -0.015968167082 0 0 0.036301635554 0 0 0.025060375234 
0 0 -0.02510638173 0 0 -0.0013649234092 0 0 -0.014300642569 
0 0 -0.037140804598 0 0 -0.020528013933 0 0 -0.048155690966 
0 0 0.031077745285 0 0 0.0045926100045 0 0 -0.0040193489767 
0 0 0.051267290225 0 0 0.0045218243199 0 0 0.033827601528 
0 0 -0.022120829894 0 0 -0.06014981282 0 0 -0.038884410047 
0 0 0.0073142408487 0 0 -0.053452393183 0 0 0.061461573619 
0 0 -0.040426434948 0 0 0.034907451215 0 0 -0.040747299862 
0 0 -0.040337332873 0 0 -0.20689665769 0 0 -0.0062598954814 
0 0 0.048277379149 0 0 0.0015667973522 0 0 0.0021324409431 
0 0 0.038198456539 0 0 0.045396992732 0 0 0.0079205054214 
0 0 -0.005534552447 0 0 -0.00023185740539 0 0 0.0076352558066 
0 0 -0.19713100558 0 0 0.025327829163 0 0 -0.0013858407623 
0 0 0.0042908576222 0 0 0.038864632443 0 0 -0.036515114965 
0 0 -0.043768771697 0 0 -0.022746290373 0 0 -0.0088433767448 
0 0 -0.020284434709 0 0 0.0079221014259 0 0 0.059041272975 
0 0 0.0048090822564 0 0 -0.030134980369 0 0 0.027897957775 
0 0 -0.16266584954 0 0 -0.026896568557 0 0 -0.042586499182 
0 0 -0.0073745634708 0 0 -0.2056612686 0 0 -0.2099666418 
0 0 -0.021413454374 0 0 -0.027612103618 0 0 0.012689611233 
0 0 0.081113403854 0 0 0.01694846019 0 0 0.047268980126 
0 0 -0.2457004545 0 0 -0.20851435586 0 0 -0.23743609518 
0 0 -0.20733585698 0 0 -0.17919319381 0 0 -0.18913474847 
0 0 -0.17526007241 0 0 -0.21584405743 0 0 -0.20160813152 
0 0 -0.24563232405 0 0 -0.18942323433 0 0 -0.19348339926 
0 0 -0.20030941295 0 0 -0.17536245611 0 0 -0.19562089719 
0 0 -0.19148205742 0 0 -0.1848223551 0 0 -0.23374533896 
0 0 -0.14793020185 0 0 -0.23713414059 0 0 -0.16309637269 
0 0 -0.16426207394 0 0 -0.16486065465 0 0 -0.16883133683 
0 0 -0.17228823499 0 0 -0.16276411469 0 0 -0.1642021433 
0 0 -0.15045524816 0 0 -0.11732726716 0 0 -0.12066362415 
0 0 -0.10776381111 0 0 -0.12806523526 0 0 -0.11018222677 
0 0 -0.1434642446 0 0 -0.15602312742 0 0 -0.1322058158 
0 0 -0.15829071036 0 0 -0.14967926272 0 0 -0.14552357689 
0 0 -0.13926711347 0 0 -0.11765583729 0 0 -0.16392531537 
0 0 -0.14798327787 0 0 -0.1278578406 0 0 -0.11793451384 
0 0 -0.1228041738 0 0 -0.12567223678 0 0 -0.084643035309 
0 0 -0.11959097536 0 0 -0.080403633369 0 0 -0.12481866144 
0 0 -0.080559351834 0 0 -0.050147576023 0 0 -0.073359665462 
0 0 -0.099272400863 0 0 -0.093491450911 0 0 -0.083584829205 
0 0 -0.056627340952 0 0 -0.094956237945 0 0 -0.16732086008 
0 0 -0.066290580894 0 0 -0.056045378313 0 0 -0.084665760928 
0 0 -0.035275030268 0 0 -0.032992617006 0 0 -0.078381727588 
0 0 -0.063342075658 0 0 -0.048557232003 0 0 -0.067465537472 
0 0 -0.015923487218 0 0 -0.031524439589 0 0 -0.064813048472 
0 0 -0.21637004578 0 0 -0.0038206064542 0 0 -0.050257828675 

f 3 648 double
0 0 0 0 0 -1.7425367252e-10 0 0 0 
0 0 -1.7425367252e-10 0 0 0 0 0 -1.7425367252e-10 
0 0 -1.7425367252e-10 0 0 0 0 0 -1.7425367252e-10 
0 0 -1.7425367252e-10 0 0 -1.7425367252e-10 0 0 -1.7425367252e-10 
0 0 -1.7425367252e-10 0 0 -1.7425367252e-10 0 0 0 
0 0 -1.7425367252e-10 0 0 0 0 0 0 
0 0 0 0 0 0 0 0 -1.7425367252e-10 
0 0 0 0 0 -1.7425367252e-10 0 0 0 
0 0 0 0 0 0 0 0 -1.7425367252e-10 
0 0 0 0 0 -1.7425367252e-10 0 0 0 
0 0 0 0 0 0 0 0 -1.7425367252e-10 
0 0 0 0 0 -1.7425367252e-10 0 0 0 
0 0 -1.7425367252e-10 0 0 -1.7425367252e-10 0 0 -1.7425367252e-10 
0 0 0 0 0 0 0 0 0 
0 0 -1.7425367252e-10 0 0 -1.7425367252e-10 0 0 -1.7425367252e-10 
0 0 -1.7425367252e-10 0 0 0 0 0 -1.7425367252e-10 
0 0 0 0 0 0 0 0 -1.7425367252e-10 
0 0 0 0 0 -1.7425367252e-10 0 0 -1.7425367252e-10 
0 0 0 0 0 0 0 0 -1.7425367252e-10 
0 0 -1.7425367252e-10 0 0 -1.7425367252e-10 0 0 0 
0 0 -1.7425367252e-10 0 0 -1.7425367252e-10 0 0 -1.7425367252e-10 
0 0 -1.7425367252e-10 0 0 -1.7425367252e-10 0 0 -1.7425367252e-10 
0 0 0 0 0 0 0 0 -1.7425367252e-10 
0 0 -1.7425367252e-10 0 0 0 0 0 0 
0 0 -1.7425367252e-10 0 0 -1.7425367252e-10 0 0 0 
0 0 -1.7425367252e-10 0 0 -1.7425367252e-10 0 0 -1.7425367252e-10 
0 0 0 0 0 -1.7425367252e-10 0 0 -1.7425367252e-10 
0 0 0 0 0 -1.7425367252e-10 0 0 -1.7425367252e-10 
0 0 0 0 0 0 0 0 -8.9019973083e-09 
0 0 -1.7425367252e-10 0 0 -1.7425367252e-10 0 0 -1.7425367252e-10 
0 0 0 0 0 -1.7425367252e-10 0 0 -1.7425367252e-10 
0 0 -1.7425367252e-10 0 0 0 0 0 0 
0 0 -1.7425367252e-10 0 0 -1.7425367252e-10 0 0 0 
0 0 0 0 0 0 0 0 -1.7425367252e-10 
0 0 -1.7425367252e-10 0 0 -1.7425367252e-10 0 0 -1.7425367252e-10 
0 0 -1.7425367252e-10 0 0 0 0 0 0 
0 0 -1.7425367252e-10 0 0 -1.7425367252e-10 0 0 0 
0 0 0 0 0 0 0 0 0 
0 0 0 0 0 -1.7425367252e-10 0 0 -1.7425367252e-10 
0 0 0 0 0 -1.7425367252e-10 0 0 -1.7425367252e-10 
0 0 -1.7425367252e-10 0 0 0 0 0 0 
0 0 0 0 0 0 0 0 0 
0 0 -1.7425367252e-10 0 0 -1.7425367252e-10 0 0 0 
0 0 -1.7425367252e-10 0 0 -1.7425367252e-10 0 0 4.679486807e-10 
0 0 -1.7425367252e-10 0 0 -1.7425367252e-10 0 0 0 
0 0 0 0 0 0 0 0 0 
0 0 0 0 0 0 0 0 -1.7425367252e-10 
0 0 -1.7425367252e-10 0 0 -1.7425367252e-10 0 0 -1.7425367252e-10 
0 0 0 0 0 0 0 0 -1.7425367252e-10 
0 0 0 0 0 -1.7425367252e-10 0 0 -1.7425367252e-10 
0 0 -1.7425367252e-10 0 0 0 0 0 0 
0 0 0 0 0 0 0 0 -1.7425367252e-10 
0 0 0 0 0 -1.7425367252e-10 0 0 0 
0 0 -1.7425367252e-10 0 0 -1.7425367252e-10 0 0 -1.7425367252e-10 
0 0 -1.7425367252e-10 0 0 0 0 0 0 
0 0 -1.7425367252e-10 0 0 -1.7425367252e-10 0 0 -1.7425367252e-10 
0 0 -1.7425367252e-10 0 0 -1.7425367252e-10 0 0 0 
0 0 -1.7425367252e-10 0 0 -1.1050321644e-16 0 0 -1.7425367252e-10 
0 0 -1.7425367252e-10 0 0 -1.7425367252e-10 0 0 -1.7425367252e-10 
0 0 -1.7425367252e-10 0 0 0 0 0 -1.7425367252e-10 
0 0 -1.7425367252e-10 0 0 -1.7425367252e-10 0 0 0 
0 0 0 0 0 -1.7425367252e-10 0 0 -1.7425367252e-10 
0 0 -1.7425367252e-10 0 0 -1.7425367252e-10 0 0 0 
0 0 -1.7425367252e-10 0 0 0 0 0 0 
0 0 -1.7425367252e-10 0 0 -1.7425367252e-10 0 0 -1.7425367252e-10 
0 0 -1.7425367252e-10 0 0 0 0 0 -1.7425367252e-10 
0 0 -1.7425367252e-10 0 0 0 0 0 -1.7425367252e-10 
0 0 0 0 0 -1.7425367252e-10 0 0 -1.7425367252e-10 
0 0 -1.7425367252e-10 0 0 -1.7425367252e-10 0 0 -1.7425367252e-10 
0 0 -1.7425367252e-10 0 0 -1.7425367252e-10 0 0 -1.7425367252e-10 
0 0 -1.7425367252e-10 0 0 -1.7425367252e-10 0 0 -1.7425367252e-10 
0 0 -1.7425367252e-10 0 0 -1.7425367252e-10 0 0 -1.7425367252e-10 
0 0 -1.7425367252e-10 0 0 -1.7425367252e-10 0 0 -1.7425367252e-10 
0 0 -1.7425367252e-10 0 0 -1.7425367252e-10 0 0 -1.7425367252e-10 
0 0 -1.7425367252e-10 0 0 -1.7425367252e-10 0 0 -1.7425367252e-10 
0 0 -1.7425367252e-10 0 0 -1.7425367252e-10 0 0 -1.7425367252e-10 
0 0 -1.7425367252e-10 0 0 -1.7425367252e-10 0 0 -1.7425367252e-10 
0 0 -1.7425367252e-10 0 0 -1.7425367252e-10 0 0 -1.7425367252e-10 
0 0 -1.7425367252e-10 0 0 -1.7425367252e-10 0 0 -1.7425367252e-10 
0 0 -1.7425367252e-10 0 0 -1.7425367252e-10 0 0 -1.7425367252e-10 
0 0 -1.7425367252e-10 0 0 -1.7425367252e-10 0 0 -1.7425367252e-10 
0 0 -1.7425367252e-10 0 0 -1.7425367252e-10 0 0 -1.7425367252e-10 
0 0 -1.7425367252e-10 0 0 -1.7425367252e-10 0 0 -1.7425367252e-10 
0 0 -1.7425367252e-10 0 0 -1.7425367252e-10 0 0 -1.7425367252e-10 
0 0 -1.7425367252e-10 0 0 -1.7425367252e-10 0 0 -1.7425367252e-10 
0 0 -1.7425367252e-10 0 0 -1.7425367252e-10 0 0 -1.7425367252e-10 
0 0 -1.7425367252e-10 0 0 -1.7425367252e-10 0 0 -1.7425367252e-10 
0 0 -1.7425367252e-10 0 0 -1.7425367252e-10 0 0 -1.7425367252e-10 
0 0 -1.7425367252e-10 0 0 -1.7425367252e-10 0 0 -1.7425367252e-10 
0 0 -1.7425367252e-10 0 0 -1.7425367252e-10 0 0 -1.7425367252e-10 
0 0 -1.7425367252e-10 0 0 -1.7425367252e-10 0 0 -1.7425367252e-10 
0 0 -1.7425367252e-10 0 0 -1.7425367252e-10 0 0 -1.7425367252e-10 
0 0 -1.7425367252e-10 0 0 -1.7425367252e-10 0 0 -1.7425367252e-10 
0 0 -1.7425367252e-10 0 0 -1.7425367252e-10 0 0 -1.7425367252e-10 
0 0 -1.7425367252e-10 0 0 -8.9019973083e-09 0 0 -1.7425367252e-10 
0 0 -1.7425367252e-10 0 0 -1.7425367252e-10 0 0 -1.7425367252e-10 
0 0 -1.7425367252e-10 0 0 -1.7425367252e-10 0 0 -1.7425367252e-10 
0 0 -1.7425367252e-10 0 0 -1.7425367252e-10 0 0 -1.7425367252e-10 
0 0 -1.7425367252e-10 0 0 -1.7425367252e-10 0 0 -1.7425367252e-10 
0 0 -1.7425367252e-10 0 0 -1.7425367252e-10 0 0 -1.7425367252e-10 
0 0 -1.7425367252e-10 0 0 -1.7425367252e-10 0 0 -1.7425367252e-10 
0 0 -1.7425367252e-10 0 0 -1.7425367252e-10 0 0 -1.7425367252e-10 
0 0 -1.7425367252e-10 0 0 -1.7425367252e-10 0 0 -1.7425367252e-10 
0 0 -1.7425367252e-10 0 0 -1.7425367252e-10 0 0 -1.7425367252e-10 
0 0 -1.7425367252e-10 0 0 -1.7425367252e-10 0 0 -1.7425367252e-10 
0 0 -1.7425367252e-10 0 0 -1.7425367252e-10 0 0 -1.7425367252e-10 
0 0 -1.7425367252e-10 0 0 -1.7425367252e-10 0 0 -1.7425367252e-10 
0 0 -1.7425367252e-10 0 0 -1.7425367252e-10 0 0 -1.7425367252e-10 
0 0 -1.7425367252e-10 0 0 -1.7425367252e-10 0 0 -1.7425367252e-10 
0 0 -1.7425367252e-10 0 0 -1.7425367252e-10 0 0 -1.7425367252e-10 
0 0 -1.7425367252e-10 0 0 -1.7425367252e-10 0 0 -1.7425367252e-10 
0 0 -1.7425367252e-10 0 0 -1.7425367252e-10 0 0 -1.7425367252e-10 
0 0 -8.9019973083e-09 0 0 -8.9019973083e-09 0 0 -1.7425367252e-10 
0 0 -1.7425367252e-10 0 0 -1.7425367252e-10 0 0 -1.7425367252e-10 
0 0 -1.7425367252e-10 0 0 -1.7425367252e-10 0 0 -1.7425367252e-10 
0 0 -1.7425367252e-10 0 0 -1.7425367252e-10 0 0 -1.7425367252e-10 
0 0 -1.7425367252e-10 0 0 -1.7425367252e-10 0 0 -1.7425367252e-10 
0 0 -1.7425367252e-10 0 0 -1.7425367252e-10 0 0 -1.7425367252e-10 
0 0 -1.7425367252e-10 0 0 -1.7425367252e-10 0 0 -1.7425367252e-10 
0 0 -1.7425367252e-10 0 0 -1.7425367252e-10 0 0 -1.7425367252e-10 
0 0 -1.7425367252e-10 0 0 -1.7425367252e-10 0 0 -1.7425367252e-10 
0 0 -1.7425367252e-10 0 0 -1.7425367252e-10 0 0 -1.7425367252e-10 
0 0 -1.7425367252e-10 0 0 -1.7425367252e-10 0 0 -1.7425367252e-10 
0 0 -1.7425367252e-10 0 0 -1.7425367252e-10 0 0 -1.7425367252e-10 
0 0 -1.7425367252e-10 0 0 -1.7425367252e-10 0 0 -1.7425367252e-10 
0 0 -1.7425367252e-10 0 0 -1.7425367252e-10 0 0 -1.7425367252e-10 
0 0 -1.7425367252e-10 0 0 -1.7425367252e-10 0 0 -1.7425367252e-10 
0 0 -1.7425367252e-10 0 0 -1.7425367252e-10 0 0 -1.7425367252e-10 
0 0 -1.7425367252e-10 0 0 -1.7425367252e-10 0 0 -1.7425367252e-10 
0 0 -1.7425367252e-10 0 0 -1.7425367252e-10 0 0 -1.7425367252e-10 
0 0 -1.7425367252e-10 0 0 -1.7425367252e-10 0 0 -1.7425367252e-10 
0 0 -1.7425367252e-10 0 0 -1.7425367252e-10 0 0 -1.7425367252e-10 
0 0 -1.7425367252e-10 0 0 -1.7425367252e-10 0 0 -1.7425367252e-10 
0 0 -1.7425367252e-10 0 0 -1.7425367252e-10 0 0 -1.7425367252e-10 
0 0 -1.7425367252e-10 0 0 -1.7425367252e-10 0 0 -1.7425367252e-10 
0 0 -1.7425367252e-10 0 0 -1.7425367252e-10 0 0 -1.7425367252e-10 
0 0 -1.7425367252e-10 0 0 -1.7425367252e-10 0 0 -1.7425367252e-10 
0 0 -1.7425367252e-10 0 0 -1.7425367252e-10 0 0 -1.7425367252e-10 
0 0 -1.7425367252e-10 0 0 -1.7425367252e-10 0 0 -1.7425367252e-10 
0 0 -1.7425367252e-10 0 0 -1.7425367252e-10 0 0 -1.7425367252e-10 
0 0 -1.7425367252e-10 0 0 -1.7425367252e-10 0 0 -1.7425367252e-10 
0 0 -1.7425367252e-10 0 0 -1.7425367252e-10 0 0 -1.7425367252e-10 
0 0 -1.7425367252e-10 0 0 -1.7425367252e-10 0 0 -1.7425367252e-10 
0 0 -1.7425367252e-10 0 0 -1.7425367252e-10 0 0 -1.7425367252e-10 
0 0 -1.7425367252e-10 0 0 -1.7425367252e-10 0 0 -1.7425367252e-10 
0 0 -8.9019973083e-09 0 0 -1.7425367252e-10 0 0 -1.7425367252e-10 
0 0 -1.7425367252e-10 0 0 -1.7425367252e-10 0 0 -1.7425367252e-10 
0 0 -8.9019973083e-09 0 0 -1.7425367252e-10 0 0 -1.7425367252e-10 
0 0 -1.7425367252e-10 0 0 -1.7425367252e-10 0 0 -1.7425367252e-10 
0 0 -1.7425367252e-10 0 0 -1.7425367252e-10 0 0 -1.7425367252e-10 
0 0 -1.7425367252e-10 0 0 -1.7425367252e-10 0 0 -1.7425367252e-10 
0 0 -1.7425367252e-10 0 0 -1.7425367252e-10 0 0 -1.7425367252e-10 
0 0 -1.7425367252e-10 0 0 -1.7425367252e-10 0 0 -1.7425367252e-10 
0 0 -1.7425367252e-10 0 0 -1.7425367252e-10 0 0 -1.7425367252e-10 
0 0 -1.7425367252e-10 0 0 -1.7425367252e-10 0 0 -1.7425367252e-10 
0 0 -1.7425367252e-10 0 0 -1.7425367252e-10 0 0 -1.7425367252e-10 
0 0 -1.7425367252e-10 0 0 -1.7425367252e-10 0 0 -1.7425367252e-10 
0 0 -1.7425367252e-10 0 0 -1.7425367252e-10 0 0 -1.7425367252e-10 
0 0 -1.7425367252e-10 0 0 -1.7425367252e-10 0 0 -1.7425367252e-10 
0 0 -1.7425367252e-10 0 0 -1.7425367252e-10 0 0 -1.7425367252e-10 
0 0 -1.7425367252e-10 0 0 -1.7425367252e-10 0 0 -1.7425367252e-10 
0 0 -1.7425367252e-10 0 0 -1.7425367252e-10 0 0 -1.7425367252e-10 
0 0 -1.7425367252e-10 0 0 -1.7425367252e-10 0 0 -1.7425367252e-10 
0 0 -1.7425367252e-10 0 0 -1.7425367252e-10 0 0 -1.7425367252e-10 
0 0 -1.7425367252e-10 0 0 -1.7425367252e-10 0 0 -1.7425367252e-10 
0 0 -1.7425367252e-10 0 0 -1.7425367252e-10 0 0 -1.7425367252e-10 
0 0 -1.7425367252e-10 0 0 -1.7425367252e-10 0 0 -1.7425367252e-10 
0 0 -1.7425367252e-10 0 0 -1.7425367252e-10 0 0 -1.7425367252e-10 
0 0 -1.7425367252e-10 0 0 -1.7425367252e-10 0 0 -1.7425367252e-10 
0 0 -1.7425367252e-10 0 0 -8.9019973083e-09 0 0 -1.7425367252e-10 
0 0 -1.7425367252e-10 0 0 -1.7425367252e-10 0 0 -1.7425367252e-10 
0 0 -1.7425367252e-10 0 0 -1.7425367252e-10 0 0 -1.7425367252e-10 
0 0 -1.7425367252e-10 0 0 -1.7425367252e-10 0 0 -1.7425367252e-10 
0 0 -1.7425367252e-10 0 0 -1.7425367252e-10 0 0 -1.7425367252e-10 
0 0 -1.7425367252e-10 0 0 -1.7425367252e-10 0 0 -1.7425367252e-10 
0 0 -1.7425367252e-10 0 0 -8.9019973083e-09 0 0 -1.7425367252e-10 
0 0 -1.7425367252e-10 0 0 -1.7425367252e-10 0 0 -1.7425367252e-10 
0 0 -1.7425367252e-10 0 0 -1.7425367252e-10 0 0 -1.7425367252e-10 
0 0 -1.7425367252e-10 0 0 -1.7425367252e-10 0 0 -1.7425367252e-10 
0 0 -1.7425367252e-10 0 0 -1.7425367252e-10 0 0 -1.7425367252e-10 
0 0 -1.7425367252e-10 0 0 -1.7425367252e-10 0 0 -1.7425367252e-10 
0 0 -1.7425367252e-10 0 0 -1.7425367252e-10 0 0 -1.7425367252e-10 
0 0 -1.7425367252e-10 0 0 -1.7425367252e-10 0 0 -1.7425367252e-10 
0 0 -1.7425367252e-10 0 0 -1.7425367252e-10 0 0 -1.7425367252e-10 
0 0 -1.7425367252e-10 0 0 -1.7425367252e-10 0 0 -1.7425367252e-10 
0 0 -1.7425367252e-10 0 0 -1.7425367252e-10 0 0 -1.7425367252e-10 
0 0 -1.7425367252e-10 0 0 -1.7425367252e-10 0 0 -1.7425367252e-10 
0 0 -1.7425367252e-10 0 0 -8.9019973083e-09 0 0 -8.9019973083e-09 
0 0 -1.7425367252e-10 0 0 -1.7425367252e-10 0 0 -1.7425367252e-10 
0 0 -8.9019973083e-09 0 0 -8.9019973083e-09 0 0 -1.7425367252e-10 
0 0 -6.8918688838e-08 0 0 -8.9019973083e-09 0 0 -8.9019973083e-09 
0 0 -1.7425367252e-10 0 0 -1.7425367252e-10 0 0 -8.9019973083e-09 
0 0 -1.7425367252e-10 0 0 -1.7425367252e-10 0 0 -1.7425367252e-10 
0 0 -1.7425367252e-10 0 0 -1.7425367252e-10 0 0 -1.7425367252e-10 
0 0 -1.7425367252e-10 0 0 -1.7425367252e-10 0 0 -1.7425367252e-10 
0 0 -1.7425367252e-10 0 0 -1.7425367252e-10 0 0 -1.7425367252e-10 
0 0 -1.7425367252e-10 0 0 -1.7425367252e-10 0 0 -1.7425367252e-10 
0 0 -1.7425367252e-10 0 0 -1.7425367252e-10 0 0 -1.7425367252e-10 
0 0 -1.7425367252e-10 0 0 -1.7425367252e-10 0 0 -1.7425367252e-10 
0 0 -1.7425367252e-10 0 0 -1.7425367252e-10 0 0 -1.7425367252e-10 
0 0 -1.7425367252e-10 0 0 -1.7425367252e-10 0 0 -1.7425367252e-10 
0 0 -1.7425367252e-10 0 0 -1.7425367252e-10 0 0 -1.7425367252e-10 
0 0 -1.7425367252e-10 0 0 -1.7425367252e-10 0 0 -1.7425367252e-10 
0 0 -1.7425367252e-10 0 0 -1.7425367252e-10 0 0 -1.7425367252e-10 
0 0 -1.7425367252e-10 0 0 -1.7425367252e-10 0 0 -1.7425367252e-10 
0 0 -1.7425367252e-10 0 0 -1.7425367252e-10 0 0 -1.7425367252e-10 
0 0 -1.7425367252e-10 0 0 -1.7425367252e-10 0 0 -1.7425367252e-10 
0 0 -1.7425367252e-10 0 0 -1.7425367252e-10 0 0 -1.7425367252e-10 
0 0 -1.7425367252e-10 0 0 -1.7425367252e-10 0 0 -1.7425367252e-10 
0 0 -1.7425367252e-10 0 0 -1.7425367252e-10 0 0 -1.7425367252e-10 
0 0 -1.7425367252e-10 0 0 -1.7425367252e-10 0 0 -8.9019973083e-09 
0 0 -1.7425367252e-10 0 0 -1.7425367252e-10 0 0 -8.9019973083e-09 
0 0 -1.7425367252e-10 0 0 -1.7425367252e-10 0 0 -1.7425367252e-10 
0 0 -1.7425367252e-10 0 0 -1.7425367252e-10 0 0 -1.7425367252e-10 
0 0 -1.7425367252e-10 0 0 -1.7425367252e-10 0 0 -1.7425367252e-10 
0 0 -5.3297119368e-07 0 0 -1.7425367252e-10 0 0 -1.7425367252e-10 

radius 1 648 double
2e-05 2e-05 2e-05 2e-05 2e-05 2e-05 2e-05 2e-05 2e-05 
2e-05 2e-05 2e-05 2e-05 2e-05 2e-05 2e-05 2e-05 2e-05 
2e-05 2e-05 2e-05 2e-05 2e-05 2e-05 2e-05 2e-05 2e-05 
2e-05 2e-05 2e-05 2e-05 2e-05 2e-05 2e-05 2e-05 2e-05 
2e-05 2e-05 2e-05 2e-05 2e-05 2e-05 2e-05 2e-05 2e-05 
2e-05 2e-05 2e-05 2e-05 2e-05 2e-05 2e-05 2e-05 2e-05 
2e-05 2e-05 2e-05 2e-05 2e-05 2e-05 2e-05 2e-05 2e-05 
2e-05 2e-05 2e-05 2e-05 2e-05 2e-05 2e-05 2e-05 2e-05 
2e-05 2e-05 2e-05 2e-05 2e-05 2e-05 2e-05 2e-05 2e-05 
2e-05 2e-05 2e-05 2e-05 2e-05 7.5e-05 2e-05 2e-05 2e-05 
2e-05 2e-05 2e-05 2e-05 2e-05 2e-05 2e-05 2e-05 2e-05 
2e-05 2e-05 2e-05 2e-05 2e-05 2e-05 2e-05 2e-05 2e-05 
2e-05 2e-05 2e-05 2e-05 2e-05 2e-05 2e-05 2e-05 2e-05 
2e-05 2e-05 2e-05 2e-05 2e-05 2e-05 2e-05 2e-05 2e-05 
2e-05 2e-05 2e-05 2e-05 2e-05 2e-05 2e-05 2e-05 2e-05 
2e-05 2e-05 2e-05 2e-05 2e-05 2e-05 2e-05 2e-05 2e-05 
2e-05 2e-05 2e-05 2e-05 2e-05 2e-05 2e-05 2e-05 2e-05 
2e-05 2e-05 2e-05 2e-05 2e-05 2e-05 2e-05 2e-05 2e-05 
2e-05 2e-05 2e-05 2e-05 2e-05 2e-05 2e-05 2e-05 2e-05 
2e-05 2e-05 2e-05 2e-05 2e-05 2e-05 2e-05 2e-05 2e-05 
2e-05 2e-05 2e-05 2e-05 2e-05 2e-05 2e-05 2e-05 2e-05 
2e-05 2e-05 2e-05 2e-05 2e-05 2e-05 2e-05 2e-05 2e-05 
2e-05 2e-05 2e-05 2e-05 2e-05 2e-05 2e-05 2e-05 2e-05 
2e-05 2e-05 2e-05 2e-05 2e-05 2e-05 2e-05 2e-05 2e-05 
2e-05 2e-05 2e-05 2e-05 2e-05 2e-05 2e-05 2e-05 2e-05 
2e-05 2e-05 2e-05 2e-05 2e-05 2e-05 2e-05 2e-05 2e-05 
2e-05 2e-05 2e-05 2e-05 2e-05 2e-05 2e-05 2e-05 2e-05 
2e-05 2e-05 2e-05 2e-05 2e-05 2e-05 2e-05 2e-05 2e-05 
2e-05 2e-05 2e-05 2e-05 2e-05 2e-05 2e-05 2e-05 2e-05 
2e-05 2e-05 2e-05 2e-05 2e-05 2e-05 2e-05 2e-05 2e-05 
2e-05 2e-05 2e-05 2e-05 2e-05 2e-05 2e-05 2e-05 2e-05 
2e-05 2e-05 2e-05 2e-05 7.5e-05 2e-05 2e-05 2e-05 2e-05 
2e-05 2e-05 2e-05 2e-05 2e-05 2e-05 2e-05 2e-05 2e-05 
2e-05 2e-05 2e-05 2e-05 2e-05 2e-05 2e-05 2e-05 2e-05 
2e-05 2e-05 2e-05 2e-05 2e-05 2e-05 2e-05 2e-05 2e-05 
2e-05 2e-05 2e-05 2e-05 2e-05 2e-05 2e-05 2e-05 2e-05 
2e-05 2e-05 2e-05 2e-05 2e-05 2e-05 2e-05 2e-05 2e-05 
2e-05 2e-05 2e-05 7.5e-05 7.5e-05 2e-05 2e-05 2e-05 2e-05 
2e-05 2e-05 2e-05 2e-05 2e-05 2e-05 2e-05 2e-05 2e-05 
2e-05 2e-05 2e-05 2e-05 2e-05 2e-05 2e-05 2e-05 2e-05 
2e-05 2e-05 2e-05 2e-05 2e-05 2e-05 2e-05 2e-05 2e-05 
2e-05 2e-05 2e-05 2e-05 2e-05 2e-05 2e-05 2e-05 2e-05 
2e-05 2e-05 2e-05 2e-05 2e-05 2e-05 2e-05 2e-05 2e-05 
2e-05 2e-05 2e-05 2e-05 2e-05 2e-05 2e-05 2e-05 2e-05 
2e-05 2e-05 2e-05 2e-05 2e-05 2e-05 2e-05 2e-05 2e-05 
2e-05 2e-05 2e-05 2e-05 2e-05 2e-05 2e-05 2e-05 2e-05 
2e-05 2e-05 2e-05 2e-05 2e-05 2e-05 2e-05 2e-05 2e-05 
2e-05 2e-05 2e-05 2e-05 2e-05 2e-05 2e-05 2e-05 2e-05 
2e-05 2e-05 2e-05 7.5e-05 2e-05 2e-05 2e-05 2e-05 2e-05 
7.5e-05 2e-05 2e-05 2e-05 2e-05 2e-05 2e-05 2e-05 2e-05 
2e-05 2e-05 2e-05 2e-05 2e-05 2e-05 2e-05 2e-05 2e-05 
2e-05 2e-05 2e-05 2e-05 2e-05 2e-05 2e-05 2e-05 2e-05 
2e-05 2e-05 2e-05 2e-05 2e-05 2e-05 2e-05 2e-05 2e-05 
2e-05 2e-05 2e-05 2e-05 2e-05 2e-05 2e-05 2e-05 2e-05 
2e-05 2e-05 2e-05 2e-05 2e-05 2e-05 2e-05 2e-05 2e-05 
2e-05 2e-05 2e-05 2e-05 2e-05 2e-05 2e-05 2e-05 2e-05 
2e-05 2e-05 2e-05 2e-05 7.5e-05 2e-05 2e-05 2e-05 2e-05 
2e-05 2e-05 2e-05 2e-05 2e-05 2e-05 2e-05 2e-05 2e-05 
2e-05 2e-05 2e-05 2e-05 7.5e-05 2e-05 2e-05 2e-05 2e-05 
2e-05 2e-05 2e-05 2e-05 2e-05 2e-05 2e-05 2e-05 2e-05 
2e-05 2e-05 2e-05 2e-05 2e-05 2e-05 2e-05 2e-05 2e-05 
2e-05 2e-05 2e-05 2e-05 2e-05 2e-05 2e-05 2e-05 2e-05 
2e-05 2e-05 2e-05 2e-05 7.5e-05 7.5e-05 2e-05 2e-05 2e-05 
7.5e-05 7.5e-05 2e-05 0.00015 7.5e-05 7.5e-05 2e-05 2e-05 7.5e-05 
2e-05 2e-05 2e-05 2e-05 2e-05 2e-05 2e-05 2e-05 2e-05 
2e-05 2e-05 2e-05 2e-05 2e-05 2e-05 2e-05 2e-05 2e-05 
2e-05 2e-05 2e-05 2e-05 2e-05 2e-05 2e-05 2e-05 2e-05 
2e-05 2e-05 2e-05 2e-05 2e-05 2e-05 2e-05 2e-05 2e-05 
2e-05 2e-05 2e-05 2e-05 2e-05 2e-05 2e-05 2e-05 2e-05 
2e-05 2e-05 2e-05 2e-05 2e-05 2e-05 2e-05 2e-05 2e-05 
2e-05 2e-05 7.5e-05 2e-05 2e-05 7.5e-05 2e-05 2e-05 2e-05 
2e-05 2e-05 2e-05 2e-05 2e-05 2e-05 0.0003 2e-05 2e-05 

omega 3 648 double
0 0 0 0 0 0 0 0 0 
0 0 0 0 0 0 0 0 0 
0 0 0 0 0 0 0 0 0 
0 0 0 0 0 0 0 0 0 
0 0 0 0 0 0 0 0 0 
0 0 0 0 0 0 0 0 0 
0 0 0 0 0 0 0 0 0 
0 0 0 0 0 0 0 0 0 
0 0 0 0 0 0 0 0 0 
0 0 0 0 0 0 0 0 0 
0 0 0 0 0 0 0 0 0 
0 0 0 0 0 0 0 0 0 
0 0 0 0 0 0 0 0 0 
0 0 0 0 0 0 0 0 0 
0 0 0 0 0 0 0 0 0 
0 0 0 0 0 0 0 0 0 
0 0 0 0 0 0 0 0 0 
0 0 0 0 0 0 0 0 0 
0 0 0 0 0 0 0 0 0 
0 0 0 0 0 0 0 0 0 
0 0 0 0 0 0 0 0 0 
0 0 0 0 0 0 0 0 0 
0 0 0 0 0 0 0 0 0 
0 0 0 0 0 0 0 0 0 
0 0 0 0 0 0 0 0 0 
0 0 0 0 0 0 0 0 0 
0 0 0 0 0 0 0 0 0 
0 0 0 0 0 0 0 0 0 
0 0 0 0 0 0 0 0 0 
0 0 0 0 0 0 0 0 0 
0 0 0 0 0 0 0 0 0 
0 0 0 0 0 0 0 0 0 
0 0 0 0 0 0 0 0 0 
0 0 0 0 0 0 0 0 0 
0 0 0 0 0 0 0 0 0 
0 0 0 0 0 0 0 0 0 
0 0 0 0 0 0 0 0 0 
0 0 0 0 0 0 0 0 0 
0 0 0 0 0 0 0 0 0 
0 0 0 0 0 0 0 0 0 
0 0 0 0 0 0 0 0 0 
0 0 0 0 0 0 0 0 0 
0 0 0 0 0 0 0 0 0 
0 0 0 0 0 0 0 0 0 
0 0 0 0 0 0 0 0 0 
0 0 0 0 0 0 0 0 0 
0 0 0 0 0 0 0 0 0 
0 0 0 0 0 0 0 0 0 
0 0 0 0 0 0 0 0 0 
0 0 0 0 0 0 0 0 0 
0 0 0 0 0 0 0 0 0 
0 0 0 0 0 0 0 0 0 
0 0 0 0 0 0 0 0 0 
0 0 0 0 0 0 0 0 0 
0 0 0 0 0 0 0 0 0 
0 0 0 0 0 0 0 0 0 
0 0 0 0 0 0 0 0 0 
0 0 0 0 0 0 0 0 0 
0 0 0 0 0 0 0 0 0 
0 0 0 0 0 0 0 0 0 
0 0 0 0 0 0 0 0 0 
0 0 0 0 0 0 0 0 0 
0 0 0 0 0 0 0 0 0 
0 0 0 0 0 0 0 0 0 
0 0 0 0 0 0 0 0 0 
0 0 0 0 0 0 0 0 0 
0 0 0 0 0 0 0 0 0 
0 0 0 0 0 0 0 0 0 
0 0 0 0 0 0 0 0 0 
0 0 0 0 0 0 0 0 0 
0 0 0 0 0 0 0 0 0 
0 0 0 0 0 0 0 0 0 
0 0 0 0 0 0 0 0 0 
0 0 0 0 0 0 0 0 0 
0 0 0 0 0 0 0 0 0 
0 0 0 0 0 0 0 0 0 
0 0 0 0 0 0 0 0 0 
0 0 0 0 0 0 0 0 0 
0 0 0 0 0 0 0 0 0 
0 0 0 0 0 0 0 0 0 
0 0 0 0 0 0 0 0 0 
0 0 0 0 0 0 0 0 0 
0 0 0 0 0 0 0 0 0 
0 0 0 0 0 0 0 0 0 
0 0 0 0 0 0 0 0 0 
0 0 0 0 0 0 0 0 0 
0 0 0 0 0 0 0 0 0 
0 0 0 0 0 0 0 0 0 
0 0 0 0 0 0 0 0 0 
0 0 0 0 0 0 0 0 0 
0 0 0 0 0 0 0 0 0 
0 0 0 0 0 0 0 0 0 
0 0 0 0 0 0 0 0 0 
0 0 0 0 0 0 0 0 0 
0 0 0 0 0 0 0 0 0 
0 0 0 0 0 0 0 0 0 
0 0 0 0 0 0 0 0 0 
0 0 0 0 0 0 0 0 0 
0 0 0 0 0 0 0 0 0 
0 0 0 0 0 0 0 0 0 
0 0 0 0 0 0 0 0 0 
0 0 0 0 0 0 0 0 0 
0 0 0 0 0 0 0 0 0 
0 0 0 0 0 0 0 0 0 
0 0 0 0 0 0 0 0 0 
0 0 0 0 0 0 0 0 0 
0 0 0 0 0 0 0 0 0 
0 0 0 0 0 0 0 0 0 
0 0 0 0 0 0 0 0 0 
0 0 0 0 0 0 0 0 0 
0 0 0 0 0 0 0 0 0 
0 0 0 0 0 0 0 0 0 
0 0 0 0 0 0 0 0 0 
0 0 0 0 0 0 0 0 0 
0 0 0 0 0 0 0 0 0 
0 0 0 0 0 0 0 0 0 
0 0 0 0 0 0 0 0 0 
0 0 0 0 0 0 0 0 0 
0 0 0 0 0 0 0 0 0 
0 0 0 0 0 0 0 0 0 
0 0 0 0 0 0 0 0 0 
0 0 0 0 0 0 0 0 0 
0 0 0 0 0 0 0 0 0 
0 0 0 0 0 0 0 0 0 
0 0 0 0 0 0 0 0 0 
0 0 0 0 0 0 0 0 0 
0 0 0 0 0 0 0 0 0 
0 0 0 0 0 0 0 0 0 
0 0 0 0 0 0 0 0 0 
0 0 0 0 0 0 0 0 0 
0 0 0 0 0 0 0 0 0 
0 0 0 0 0 0 0 0 0 
0 0 0 0 0 0 0 0 0 
0 0 0 0 0 0 0 0 0 
0 0 0 0 0 0 0 0 0 
0 0 0 0 0 0 0 0 0 
0 0 0 0 0 0 0 0 0 
0 0 0 0 0 0 0 0 0 
0 0 0 0 0 0 0 0 0 
0 0 0 0 0 0 0 0 0 
0 0 0 0 0 0 0 0 0 
0 0 0 0 0 0 0 0 0 
0 0 0 0 0 0 0 0 0 
0 0 0 0 0 0 0 0 0 
0 0 0 0 0 0 0 0 0 
0 0 0 0 0 0 0 0 0 
0 0 0 0 0 0 0 0 0 
0 0 0 0 0 0 0 0 0 
0 0 0 0 0 0 0 0 0 
0 0 0 0 0 0 0 0 0 
0 0 0 0 0 0 0 0 0 
0 0 0 0 0 0 0 0 0 
0 0 0 0 0 0 0 0 0 
0 0 0 0 0 0 0 0 0 
0 0 0 0 0 0 0 0 0 
0 0 0 0 0 0 0 0 0 
0 0 0 0 0 0 0 0 0 
0 0 0 0 0 0 0 0 0 
0 0 0 0 0 0 0 0 0 
0 0 0 0 0 0 0 0 0 
0 0 0 0 0 0 0 0 0 
0 0 0 0 0 0 0 0 0 
0 0 0 0 0 0 0 0 0 
0 0 0 0 0 0 0 0 0 
0 0 0 0 0 0 0 0 0 
0 0 0 0 0 0 0 0 0 
0 0 0 0 0 0 0 0 0 
0 0 0 0 0 0 0 0 0 
0 0 0 0 0 0 0 0 0 
0 0 0 0 0 0 0 0 0 
0 0 0 0 0 0 0 0 0 
0 0 0 0 0 0 0 0 0 
0 0 0 0 0 0 0 0 0 
0 0 0 0 0 0 0 0 0 
0 0 0 0 0 0 0 0 0 
0 0 0 0 0 0 0 0 0 
0 0 0 0 0 0 0 0 0 
0 0 0 0 0 0 0 0 0 
0 0 0 0 0 0 0 0 0 
0 0 0 0 0 0 0 0 0 
0 0 0 0 0 0 0 0 0 
0 0 0 0 0 0 0 0 0 
0 0 0 0 0 0 0 0 0 
0 0 0 0 0 0 0 0 0 
0 0 0 0 0 0 0 0 0 
0 0 0 0 0 0 0 0 0 
0 0 0 0 0 0 0 0 0 
0 0 0 0 0 0 0 0 0 
0 0 0 0 0 0 0 0 0 
0 0 0 0 0 0 0 0 0 
0 0 0 0 0 0 0 0 0 
0 0 0 0 0 0 0 0 0 
0 0 0 0 0 0 0 0 0 
0 0 0 0 0 0 0 0 0 
0 0 0 0 0 0 0 0 0 
0 0 0 0 0 0 0 0 0 
0 0 0 0 0 0 0 0 0 
0 0 0 0 0 0 0 0 0 
0 0 0 0 0 0 0 0 0 
0 0 0 0 0 0 0 0 0 
0 0 0 0 0 0 0 0 0 
0 0 0 0 0 0 0 0 0 
0 0 0 0 0 0 0 0 0 
0 0 0 0 0 0 0 0 0 
0 0 0 0 0 0 0 0 0 
0 0 0 0 0 0 0 0 0 
0 0 0 0 0 0 0 0 0 
0 0 0 0 0 0 0 0 0 
0 0 0 0 0 0 0 0 0 
0 0 0 0 0 0 0 0 0 
0 0 0 0 0 0 0 0 0 
0 0 0 0 0 0 0 0 0 
0 0 0 0 0 0 0 0 0 
0 0 0 0 0 0 0 0 0 
0 0 0 0 0 0 0 0 0 
0 0 0 0 0 0 0 0 0 

fx_mag_viz 1 648 double
0 0 0 0 0 0 0 0 0 
0 0 0 0 0 0 0 0 0 
0 0 0 0 0 0 0 0 0 
0 0 0 0 0 0 0 0 0 
0 0 0 0 0 0 0 0 0 
0 0 0 0 0 0 0 0 0 
0 0 0 0 0 0 0 0 0 
0 0 0 0 0 0 0 0 0 
0 0 0 0 0 0 0 0 0 
0 0 0 0 0 0 0 0 0 
0 0 0 0 0 0 0 0 0 
0 0 0 0 0 0 0 0 0 
0 0 0 0 0 0 0 0 0 
0 0 0 0 0 0 0 0 0 
0 0 0 0 0 0 0 0 0 
0 0 0 0 0 0 0 0 0 
0 0 0 0 0 0 0 0 0 
0 0 0 0 0 0 0 0 0 
0 0 0 0 0 0 0 0 0 
0 0 0 0 0 0 0 0 0 
0 0 0 0 0 0 0 0 0 
0 0 0 0 0 0 0 0 0 
0 0 0 0 0 0 0 0 0 
0 0 0 0 0 0 0 0 0 
0 0 0 0 0 0 0 0 0 
0 0 0 0 0 0 0 0 0 
0 0 0 0 0 0 0 0 0 
0 0 0 0 0 0 0 0 0 
0 0 0 0 0 0 0 0 0 
0 0 0 0 0 0 0 0 0 
0 0 0 0 0 0 0 0 0 
0 0 0 0 0 0 0 0 0 
0 0 0 0 0 0 0 0 0 
0 0 0 0 0 0 0 0 0 
0 0 0 0 0 0 0 0 0 
0 0 0 0 0 0 0 0 0 
0 0 0 0 0 0 0 0 0 
0 0 0 0 0 0 0 0 0 
0 0 0 0 0 0 0 0 0 
0 0 0 0 0 0 0 0 0 
0 0 0 0 0 0 0 0 0 
0 0 0 0 0 0 0 0 0 
0 0 0 0 0 0 0 0 0 
0 0 0 0 0 0 0 0 0 
0 0 0 0 0 0 0 0 0 
0 0 0 0 0 0 0 0 0 
0 0 0 0 0 0 0 0 0 
0 0 0 0 0 0 0 0 0 
0 0 0 0 0 0 0 0 0 
0 0 0 0 0 0 0 0 0 
0 0 0 0 0 0 0 0 0 
0 0 0 0 0 0 0 0 0 
0 0 0 0 0 0 0 0 0 
0 0 0 0 0 0 0 0 0 
0 0 0 0 0 0 0 0 0 
0 0 0 0 0 0 0 0 0 
0 0 0 0 0 0 0 0 0 
0 0 0 0 0 0 0 0 0 
0 0 0 0 0 0 0 0 0 
0 0 0 0 0 0 0 0 0 
0 0 0 0 0 0 0 0 0 
0 0 0 0 0 0 0 0 0 
0 0 0 0 0 0 0 0 0 
0 0 0 0 0 0 0 0 0 
0 0 0 0 0 0 0 0 0 
0 0 0 0 0 0 0 0 0 
0 0 0 0 0 0 0 0 0 
0 0 0 0 0 0 0 0 0 
0 0 0 0 0 0 0 0 0 
0 0 0 0 0 0 0 0 0 
0 0 0 0 0 0 0 0 0 
0 0 0 0 0 0 0 0 0 

fy_mag_viz 1 648 double
0 0 0 0 0 0 0 0 0 
0 0 0 0 0 0 0 0 0 
0 0 0 0 0 0 0 0 0 
0 0 0 0 0 0 0 0 0 
0 0 0 0 0 0 0 0 0 
0 0 0 0 0 0 0 0 0 
0 0 0 0 0 0 0 0 0 
0 0 0 0 0 0 0 0 0 
0 0 0 0 0 0 0 0 0 
0 0 0 0 0 0 0 0 0 
0 0 0 0 0 0 0 0 0 
0 0 0 0 0 0 0 0 0 
0 0 0 0 0 0 0 0 0 
0 0 0 0 0 0 0 0 0 
0 0 0 0 0 0 0 0 0 
0 0 0 0 0 0 0 0 0 
0 0 0 0 0 0 0 0 0 
0 0 0 0 0 0 0 0 0 
0 0 0 0 0 0 0 0 0 
0 0 0 0 0 0 0 0 0 
0 0 0 0 0 0 0 0 0 
0 0 0 0 0 0 0 0 0 
0 0 0 0 0 0 0 0 0 
0 0 0 0 0 0 0 0 0 
0 0 0 0 0 0 0 0 0 
0 0 0 0 0 0 0 0 0 
0 0 0 0 0 0 0 0 0 
0 0 0 0 0 0 0 0 0 
0 0 0 0 0 0 0 0 0 
0 0 0 0 0 0 0 0 0 
0 0 0 0 0 0 0 0 0 
0 0 0 0 0 0 0 0 0 
0 0 0 0 0 0 0 0 0 
0 0 0 0 0 0 0 0 0 
0 0 0 0 0 0 0 0 0 
0 0 0 0 0 0 0 0 0 
0 0 0 0 0 0 0 0 0 
0 0 0 0 0 0 0 0 0 
0 0 0 0 0 0 0 0 0 
0 0 0 0 0 0 0 0 0 
0 0 0 0 0 0 0 0 0 
0 0 0 0 0 0 0 0 0 
0 0 0 0 0 0 0 0 0 
0 0 0 0 0 0 0 0 0 
0 0 0 0 0 0 0 0 0 
0 0 0 0 0 0 0 0 0 
0 0 0 0 0 0 0 0 0 
0 0 0 0 0 0 0 0 0 
0 0 0 0 0 0 0 0 0 
0 0 0 0 0 0 0 0 0 
0 0 0 0 0 0 0 0 0 
0 0 0 0 0 0 0 0 0 
0 0 0 0 0 0 0 0 0 
0 0 0 0 0 0 0 0 0 
0 0 0 0 0 0 0 0 0 
0 0 0 0 0 0 0 0 0 
0 0 0 0 0 0 0 0 0 
0 0 0 0 0 0 0 0 0 
0 0 0 0 0 0 0 0 0 
0 0 0 0 0 0 0 0 0 
0 0 0 0 0 0 0 0 0 
0 0 0 0 0 0 0 0 0 
0 0 0 0 0 0 0 0 0 
0 0 0 0 0 0 0 0 0 
0 0 0 0 0 0 0 0 0 
0 0 0 0 0 0 0 0 0 
0 0 0 0 0 0 0 0 0 
0 0 0 0 0 0 0 0 0 
0 0 0 0 0 0 0 0 0 
0 0 0 0 0 0 0 0 0 
0 0 0 0 0 0 0 0 0 
0 0 0 0 0 0 0 0 0 

fz_mag_viz 1 648 double
0 0 0 0 0 0 0 0 0 
0 0 0 0 0 0 0 0 0 
0 0 0 0 0 0 0 0 0 
0 0 0 0 0 0 0 0 0 
0 0 0 0 0 0 0 0 0 
0 0 0 0 0 0 0 0 0 
0 0 0 0 0 0 0 0 0 
0 0 0 0 0 0 0 0 0 
0 0 0 0 0 0 0 0 0 
0 0 0 0 0 0 0 0 0 
0 0 0 0 0 0 0 0 0 
0 0 0 0 0 0 0 0 0 
0 0 0 0 0 0 0 0 0 
0 0 0 0 0 0 0 0 0 
0 0 0 0 0 0 0 0 0 
0 0 0 0 0 0 0 0 0 
0 0 0 0 0 0 0 0 0 
0 0 0 0 0 0 0 0 0 
0 0 0 0 0 0 0 0 0 
0 0 0 0 0 0 0 0 0 
0 0 0 0 0 0 0 0 0 
0 0 0 0 0 0 0 0 0 
0 0 0 0 0 0 0 0 0 
0 0 0 0 0 0 0 0 0 
0 0 0 0 0 0 0 0 0 
0 0 0 0 0 0 0 0 0 
0 0 0 0 0 0 0 0 0 
0 0 0 0 0 0 0 0 0 
0 0 0 0 0 0 0 0 0 
0 0 0 0 0 0 0 0 0 
0 0 0 0 0 0 0 0 0 
0 0 0 0 0 0 0 0 0 
0 0 0 0 0 0 0 0 0 
0 0 0 0 0 0 0 0 0 
0 0 0 0 0 0 0 0 0 
0 0 0 0 0 0 0 0 0 
0 0 0 0 0 0 0 0 0 
0 0 0 0 0 0 0 0 0 
0 0 0 0 0 0 0 0 0 
0 0 0 0 0 0 0 0 0 
0 0 0 0 0 0 0 0 0 
0 0 0 0 0 0 0 0 0 
0 0 0 0 0 0 0 0 0 
0 0 0 0 0 0 0 0 0 
0 0 0 0 0 0 0 0 0 
0 0 0 0 0 0 0 0 0 
0 0 0 0 0 0 0 0 0 
0 0 0 0 0 0 0 0 0 
0 0 0 0 0 0 0 0 0 
0 0 0 0 0 0 0 0 0 
0 0 0 0 0 0 0 0 0 
0 0 0 0 0 0 0 0 0 
0 0 0 0 0 0 0 0 0 
0 0 0 0 0 0 0 0 0 
0 0 0 0 0 0 0 0 0 
0 0 0 0 0 0 0 0 0 
0 0 0 0 0 0 0 0 0 
0 0 0 0 0 0 0 0 0 
0 0 0 0 0 0 0 0 0 
0 0 0 0 0 0 0 0 0 
0 0 0 0 0 0 0 0 0 
0 0 0 0 0 0 0 0 0 
0 0 0 0 0 0 0 0 0 
0 0 0 0 0 0 0 0 0 
0 0 0 0 0 0 0 0 0 
0 0 0 0 0 0 0 0 0 
0 0 0 0 0 0 0 0 0 
0 0 0 0 0 0 0 0 0 
0 0 0 0 0 0 0 0 0 
0 0 0 0 0 0 0 0 0 
0 0 0 0 0 0 0 0 0 
0 0 0 0 0 0 0 0 0 

B_magnitude 1 648 double
0 0 0 0 0 0 0 0 0 
0 0 0 0 0 0 0 0 0 
0 0 0 0 0 0 0 0 0 
0 0 0 0 0 0 0 0 0 
0 0 0 0 0 0 0 0 0 
0 0 0 0 0 0 0 0 0 
0 0 0 0 0 0 0 0 0 
0 0 0 0 0 0 0 0 0 
0 0 0 0 0 0 0 0 0 
0 0 0 0 0 0 0 0 0 
0 0 0 0 0 0 0 0 0 
0 0 0 0 0 0 0 0 0 
0 0 0 0 0 0 0 0 0 
0 0 0 0 0 0 0 0 0 
0 0 0 0 0 0 0 0 0 
0 0 0 0 0 0 0 0 0 
0 0 0 0 0 0 0 0 0 
0 0 0 0 0 0 0 0 0 
0 0 0 0 0 0 0 0 0 
0 0 0 0 0 0 0 0 0 
0 0 0 0 0 0 0 0 0 
0 0 0 0 0 0 0 0 0 
0 0 0 0 0 0 0 0 0 
0 0 0 0 0 0 0 0 0 
0 0 0 0 0 0 0 0 0 
0 0 0 0 0 0 0 0 0 
0 0 0 0 0 0 0 0 0 
0 0 0 0 0 0 0 0 0 
0 0 0 0 0 0 0 0 0 
0 0 0 0 0 0 0 0 0 
0 0 0 0 0 0 0 0 0 
0 0 0 0 0 0 0 0 0 
0 0 0 0 0 0 0 0 0 
0 0 0 0 0 0 0 0 0 
0 0 0 0 0 0 0 0 0 
0 0 0 0 0 0 0 0 0 
0 0 0 0 0 0 0 0 0 
0 0 0 0 0 0 0 0 0 
0 0 0 0 0 0 0 0 0 
0 0 0 0 0 0 0 0 0 
0 0 0 0 0 0 0 0 0 
0 0 0 0 0 0 0 0 0 
0 0 0 0 0 0 0 0 0 
0 0 0 0 0 0 0 0 0 
0 0 0 0 0 0 0 0 0 
0 0 0 0 0 0 0 0 0 
0 0 0 0 0 0 0 0 0 
0 0 0 0 0 0 0 0 0 
0 0 0 0 0 0 0 0 0 
0 0 0 0 0 0 0 0 0 
0 0 0 0 0 0 0 0 0 
0 0 0 0 0 0 0 0 0 
0 0 0 0 0 0 0 0 0 
0 0 0 0 0 0 0 0 0 
0 0 0 0 0 0 0 0 0 
0 0 0 0 0 0 0 0 0 
0 0 0 0 0 0 0 0 0 
0 0 0 0 0 0 0 0 0 
0 0 0 0 0 0 0 0 0 
0 0 0 0 0 0 0 0 0 
0 0 0 0 0 0 0 0 0 
0 0 0 0 0 0 0 0 0 
0 0 0 0 0 0 0 0 0 
0 0 0 0 0 0 0 0 0 
0 0 0 0 0 0 0 0 0 
0 0 0 0 0 0 0 0 0 
0 0 0 0 0 0 0 0 0 
0 0 0 0 0 0 0 0 0 
0 0 0 0 0 0 0 0 0 
0 0 0 0 0 0 0 0 0 
0 0 0 0 0 0 0 0 0 
0 0 0 0 0 0 0 0 0 

B_gradient_mag 1 648 double
0 0 0 0 0 0 0 0 0 
0 0 0 0 0 0 0 0 0 
0 0 0 0 0 0 0 0 0 
0 0 0 0 0 0 0 0 0 
0 0 0 0 0 0 0 0 0 
0 0 0 0 0 0 0 0 0 
0 0 0 0 0 0 0 0 0 
0 0 0 0 0 0 0 0 0 
0 0 0 0 0 0 0 0 0 
0 0 0 0 0 0 0 0 0 
0 0 0 0 0 0 0 0 0 
0 0 0 0 0 0 0 0 0 
0 0 0 0 0 0 0 0 0 
0 0 0 0 0 0 0 0 0 
0 0 0 0 0 0 0 0 0 
0 0 0 0 0 0 0 0 0 
0 0 0 0 0 0 0 0 0 
0 0 0 0 0 0 0 0 0 
0 0 0 0 0 0 0 0 0 
0 0 0 0 0 0 0 0 0 
0 0 0 0 0 0 0 0 0 
0 0 0 0 0 0 0 0 0 
0 0 0 0 0 0 0 0 0 
0 0 0 0 0 0 0 0 0 
0 0 0 0 0 0 0 0 0 
0 0 0 0 0 0 0 0 0 
0 0 0 0 0 0 0 0 0 
0 0 0 0 0 0 0 0 0 
0 0 0 0 0 0 0 0 0 
0 0 0 0 0 0 0 0 0 
0 0 0 0 0 0 0 0 0 
0 0 0 0 0 0 0 0 0 
0 0 0 0 0 0 0 0 0 
0 0 0 0 0 0 0 0 0 
0 0 0 0 0 0 0 0 0 
0 0 0 0 0 0 0 0 0 
0 0 0 0 0 0 0 0 0 
0 0 0 0 0 0 0 0 0 
0 0 0 0 0 0 0 0 0 
0 0 0 0 0 0 0 0 0 
0 0 0 0 0 0 0 0 0 
0 0 0 0 0 0 0 0 0 
0 0 0 0 0 0 0 0 0 
0 0 0 0 0 0 0 0 0 
0 0 0 0 0 0 0 0 0 
0 0 0 0 0 0 0 0 0 
0 0 0 0 0 0 0 0 0 
0 0 0 0 0 0 0 0 0 
0 0 0 0 0 0 0 0 0 
0 0 0 0 0 0 0 0 0 
0 0 0 0 0 0 0 0 0 
0 0 0 0 0 0 0 0 0 
0 0 0 0 0 0 0 0 0 
0 0 0 0 0 0 0 0 0 
0 0 0 0 0 0 0 0 0 
0 0 0 0 0 0 0 0 0 
0 0 0 0 0 0 0 0 0 
0 0 0 0 0 0 0 0 0 
0 0 0 0 0 0 0 0 0 
0 0 0 0 0 0 0 0 0 
0 0 0 0 0 0 0 0 0 
0 0 0 0 0 0 0 0 0 
0 0 0 0 0 0 0 0 0 
0 0 0 0 0 0 0 0 0 
0 0 0 0 0 0 0 0 0 
0 0 0 0 0 0 0 0 0 
0 0 0 0 0 0 0 0 0 
0 0 0 0 0 0 0 0 0 
0 0 0 0 0 0 0 0 0 
0 0 0 0 0 0 0 0 0 
0 0 0 0 0 0 0 0 0 
0 0 0 0 0 0 0 0 0 

