# vtk DataFile Version 5.1
Generated by LIGGGHTS
ASCII
DATASET POLYDATA
POINTS 648 float
-0.00670669 -0.0394183 0.00118147 -0.0262624 -0.032473 0.00129545 -0.0222502 -0.00974669 0.0011794 
-0.00553214 -0.00871323 0.00113666 0.0147261 0.00139147 0.00123582 -0.037077 0.00611456 0.00113957 
-0.0429188 0.0135204 0.00118354 -0.0312382 0.0393096 0.00115764 0.0399235 0.0434757 0.00125871 
-0.00340304 -0.0448428 0.00136907 -0.044759 -0.0437614 0.00218932 -0.027409 -0.0433703 0.00148344 
0.0244803 -0.0401788 0.00181084 0.040047 -0.0404588 0.00130961 -0.0370475 -0.0370945 0.00232088 
0.00879071 -0.0344865 0.00155097 -0.0427235 -0.0332389 0.00180189 0.023158 -0.0340207 0.00179378 
0.0244271 -0.0334586 0.00236926 -0.0448384 -0.0296834 0.00249998 -0.00580099 -0.0272788 0.0015131 
-0.0338231 -0.0250135 0.00137994 0.032808 -0.025967 0.00191075 0.0363266 -0.0194176 0.00162585 
-0.0317771 -0.0175651 0.00182999 -0.0204621 -0.0172006 0.00237443 0.0249316 -0.014475 0.00227352 
0.0268005 -0.0146468 0.00240129 0.0176437 -0.0119747 0.00251605 -0.038829 -0.00978443 0.00225692 
-0.0304645 -0.00701594 0.0020665 -0.042786 -0.00359954 0.0022089 0.039455 -0.000236508 0.00191641 
-0.0170872 0.00564833 0.00221142 0.0011249 0.00615697 0.00246652 0.0142017 0.0079404 0.00177286 
0.0202046 0.00840095 0.00165256 -0.0408092 0.00981999 0.00187382 -0.0392616 0.00972366 0.00138552 
-0.0101256 0.00978275 0.00198032 -0.00279986 0.0127222 0.00214471 0.014866 0.0127598 0.00198297 
0.0418335 0.0161761 0.00207297 0.0226738 0.0181095 0.00135739 -0.0214239 0.0189608 0.00180725 
-0.0431379 0.0208085 0.00182844 0.00128112 0.0217131 0.00220028 0.0146363 0.0223077 0.00130578 
0.0226957 0.0260881 0.00182672 -0.0114472 0.026715 0.00165699 0.00953871 0.0271324 0.00161182 
-0.0409258 0.0305044 0.00140649 -0.00435696 0.0325462 0.00201708 0.0163992 0.0415262 0.00240769 
0.00805094 0.0422278 0.00218945 0.0414821 -0.0410789 0.00317632 -0.0439713 -0.0357399 0.00295617 
0.000822496 -0.0363122 0.00355084 -0.0232422 -0.0321576 0.00297985 0.0268369 -0.0315202 0.00290215 
-0.0240024 -0.0280603 0.00363253 0.00623721 -0.0211799 0.00279041 0.0436787 -0.0219137 0.00317015 
0.0336491 -0.0197505 0.00387123 0.0404767 -0.0183151 0.00301511 0.0223879 -0.0163393 0.00353093 
0.0198229 -0.0156851 0.00317847 -0.0329121 -0.0139828 0.00266297 0.0277003 -0.0107969 0.00323165 
-0.0196799 -0.00931279 0.0028569 0.0251729 -0.00985964 0.0030556 -0.0135858 -0.00672635 0.00306328 
-0.00783961 -0.000387029 0.00346904 -0.00702036 -0.00121172 0.00363179 -0.00967086 0.00179773 0.00362337 
-0.00723413 0.00605583 0.00305352 0.0228765 0.00606581 0.00296885 0.030759 0.00580352 0.00290388 
0.0399323 0.0117688 0.00280002 -0.034865 0.0142961 0.00361181 0.0336082 0.013194 0.00349543 
0.00395304 0.0187088 0.00296924 -0.0349287 0.0230684 0.00276938 -0.00739359 0.0259593 0.00315338 
-0.0267569 0.0263983 0.00380148 -0.0357156 0.0282031 0.00295957 0.0191509 0.0299648 0.00319598 
0.0444958 0.0309554 0.00310593 0.00284552 0.0345861 0.00290726 -0.0375088 0.0393741 0.00348746 
-0.0112537 0.0395394 0.00308673 -0.0205282 0.0432397 0.00303459 -0.0346971 -0.0446764 0.0048279 
0.0248068 -0.0428986 0.00467246 0.0418836 -0.0421436 0.0043199 0.0238162 -0.0409762 0.00438058 
-0.0334706 -0.0396012 0.00449117 -0.00302782 -0.0385948 0.00497793 0.00594186 -0.0351889 0.00519691 
-0.0266532 -0.0301716 0.00510448 0.00577088 -0.0287415 0.00438041 -0.0240719 -0.0268296 0.00440046 
0.0306875 -0.0259396 0.00461639 0.033456 -0.0256735 0.00513676 0.00538025 -0.0241403 0.0051096 
-0.0408326 -0.0234295 0.00446376 -0.0108877 -0.0188832 0.00420508 0.00156248 -0.0194187 0.00517526 
0.0030191 -0.0179247 0.00446771 -0.0426154 -0.0165053 0.00415024 -0.0339565 -0.0167518 0.00451537 
0.0350526 -0.0102353 0.00509094 -0.0416237 0.00110806 0.00495247 0.00417698 0.0024455 0.00406824 
0.0188762 0.00181355 0.00504053 0.0362421 0.00170773 0.00413732 0.0292006 0.00433004 0.00512722 
0.0305447 0.00486582 0.00435226 0.0404406 0.00462082 0.00425388 -0.0287984 0.00559412 0.00426993 
0.0197977 0.00963841 0.00473844 8.23501e-07 0.0138406 0.00489807 0.0287781 0.014071 0.00395403 
0.00976298 0.0163696 0.00495956 -0.0360536 0.0173104 0.00494151 0.0215224 0.0171285 0.00462558 
0.0388885 0.0193682 0.00413615 -0.0153727 0.020636 0.00446768 -0.0282566 0.021284 0.00429634 
-0.0386663 0.0253433 0.00394494 -0.0313244 0.0314049 0.00456569 -0.041477 0.0364172 0.00430266 
0.0165329 0.0385374 0.00491615 0.0238959 0.0383247 0.00454124 0.0221021 0.0401282 0.0041274 
0.0251972 0.0393087 0.00432562 -0.0428902 -0.0449088 0.0061848 -0.0335565 -0.0442122 0.00608978 
-0.0248654 -0.0427111 0.00579105 -0.00674967 -0.0416523 0.00533945 -0.0248652 -0.040212 0.00575408 
-0.018434 -0.0405477 0.00566042 -0.0108246 -0.0388127 0.00606348 0.0156715 -0.0391733 0.0055192 
0.00798734 -0.0367051 0.00606535 0.0397687 -0.0374633 0.00568945 0.00802514 -0.031483 0.00547346 
-0.0105296 -0.0314142 0.00553336 0.03382 -0.0268981 0.0055101 0.039775 -0.0211058 0.00608821 
-0.0388614 -0.0136303 0.00600387 -0.0269092 -0.0125643 0.00527091 0.00689113 -0.0107816 0.00551896 
0.0286804 -0.00919085 0.0053294 -0.0214415 -0.007536 0.00523324 -0.0198564 -0.00683511 0.00547304 
-0.0129003 -0.00574839 0.00623043 -0.00747582 -0.00609419 0.006125 0.00937085 -0.00418454 0.00604734 
0.021323 -0.00444137 0.00643576 -0.0179231 -0.00300678 0.00643567 -0.0260142 0.00017485 0.00536733 
0.0384376 0.000848974 0.00594901 0.021602 0.00540593 0.00614129 -0.0426568 0.00723228 0.00542669 
0.0340899 0.00882812 0.00635441 0.0212596 0.00979192 0.00561043 0.0128044 0.0127337 0.006308 
0.0261916 0.0119357 0.00556847 -0.0310202 0.0131063 0.0064915 0.0143092 0.0139794 0.00561828 
0.0248423 0.0143007 0.00559566 -0.00307286 0.0144526 0.00590079 0.00517921 0.0169249 0.00571561 
0.0090081 0.0191686 0.00584451 0.0122157 0.0191756 0.00552239 0.0123926 0.0218243 0.00560087 
0.03506 0.0228899 0.00622747 0.0307708 0.0242663 0.00633247 0.000162142 0.0251126 0.00629154 
0.0167463 0.0251763 0.00619035 -0.00563177 0.0268155 0.00567859 -0.0200898 0.0311527 0.00627196 
0.0038092 0.0311583 0.0055463 -0.0073504 0.0318329 0.00630312 0.01325 0.0319187 0.00559873 
0.0311732 0.0371467 0.00617169 0.0424299 -0.0409921 0.00650849 -0.042922 -0.0404536 0.00767673 
0.0308099 -0.0378456 0.00713859 0.0333162 -0.0342631 0.00706632 0.0280204 -0.0311414 0.00770735 
0.000892701 -0.0263701 0.00745224 0.0102479 -0.024092 0.00664583 -0.0225401 -0.0213878 0.0065612 
-0.00827992 -0.020547 0.00714607 -0.0296942 -0.0196153 0.00694351 -0.0100897 -0.0180162 0.00687955 
-0.0257955 -0.0157834 0.0072685 -0.00444012 -0.0151621 0.00686078 -0.0117656 -0.0138394 0.00673789 
0.0403752 -0.0143085 0.00765905 0.0109664 -0.00760095 0.00695668 0.00523139 -0.00599236 0.00720353 
0.0180565 -0.00487531 0.00761464 -0.0141425 -0.00311887 0.00685282 0.0449494 0.00392273 0.00717601 
0.0246705 0.0064451 0.00653976 0.0221269 0.00728552 0.00747376 0.0283387 0.00890506 0.00779077 
-0.0214351 0.00957734 0.00770796 0.0398091 0.011618 0.00652837 -0.022709 0.0198803 0.0073337 
-0.0421793 0.0225172 0.00685634 -0.00782209 0.0241861 0.00668066 -0.0190887 0.0269029 0.00724177 
-0.0376379 0.0294143 0.00722057 0.00372347 0.0304157 0.00732785 0.0364634 0.0310238 0.00756612 
-0.0264781 0.032823 0.00762703 0.0297434 0.0373158 0.00685555 -0.00973825 0.0391656 0.00673255 
0.0222253 0.0407186 0.00756891 -0.0390027 0.0421086 0.00678913 -0.0181988 0.0434549 0.00754626 
-0.0308094 -0.0435702 0.00798462 0.0145521 -0.0432303 0.00848474 0.00548761 -0.0197918 0.00900994 
-0.0112192 -0.0104501 0.00784503 0.00743742 -0.00926665 0.00782134 0.013874 -0.00963069 0.00784891 
0.0313953 -0.00974065 0.00882036 0.0406218 -0.0100941 0.00897257 -0.00433253 -0.00676057 0.00859842 
0.0290986 -0.000251763 0.00862407 0.0407777 0.000744206 0.00813036 0.00861143 0.0123591 0.00859102 
-0.0196462 0.0155185 0.00885748 0.0121458 0.0151918 0.00838663 0.0181332 0.0246356 0.00794302 
-0.0245447 0.0378537 0.00788929 0.0352379 0.0438995 0.00876154 0.0348044 -0.042095 0.0094644 
-0.0168273 -0.0360331 0.0101866 -0.0376897 -0.0314333 0.00991193 0.0394323 -0.021923 0.009867 
0.0323225 0.00436429 0.00995841 0.0250346 0.00641518 0.0095106 -0.00867948 0.0139924 0.00964548 
0.00519606 0.0301696 0.00974374 0.00390562 0.0317225 0.00955828 0.00317215 0.0343196 0.00927332 
-0.0263426 -0.0292431 0.0104562 -0.0430551 -0.0267583 0.0114952 0.0233461 -0.0214624 0.0105622 
-0.0186412 -0.0134353 0.0115047 0.0161928 -0.00760918 0.0112208 0.0131353 -0.00504642 0.0106162 
-0.023041 0.0197144 0.0114261 -0.0108954 0.0304 0.0109993 0.0231674 0.0340949 0.01107 
0.0181024 -0.0433049 0.012898 -0.0120059 -0.00345367 0.0122886 -0.00896956 -0.00131708 0.0120992 
0.0116524 0.00206193 0.0127677 0.0441199 0.0136981 0.0125035 0.000954082 0.0152563 0.011831 
-0.0127911 0.0299546 0.012087 0.0405446 0.0433429 0.0121296 0.0131812 -0.0427533 0.0131064 
0.00985621 -0.0367022 0.013894 0.0449741 -0.0303513 0.0137977 -0.0327621 -0.0121928 0.0131904 
0.0387156 -0.00624884 0.0134213 0.00975646 -0.00313231 0.0130869 0.0311878 0.014057 0.0136548 
0.0407412 0.0174253 0.0142342 0.00126512 0.0228658 0.0136766 0.026696 0.03017 0.013785 
0.0193546 0.0324404 0.0132574 -0.00585061 0.0388609 0.0132901 0.0352701 0.0439749 0.013136 
-0.0220587 -0.0306349 0.0154041 -0.0414327 -0.0290659 0.0154175 0.00558373 -0.0242787 0.0149729 
-0.0127621 -0.0231756 0.015057 0.035159 -0.023363 0.0153411 0.038292 -0.016257 0.014803 
0.0323803 -0.0150629 0.0144698 -0.00254943 -0.00825679 0.0149697 -0.0344646 -0.00725539 0.0152934 
0.0180458 -0.00470109 0.0153636 -0.0107529 -0.00365687 0.0154881 -0.0325416 0.00283857 0.0148191 
0.00243665 0.00282786 0.0148207 -0.025141 0.00447188 0.0154275 -0.00841171 0.0143034 0.014579 
-0.0122989 0.0222019 0.0145551 0.021223 0.0244832 0.0151821 0.0438582 0.0244724 0.0147408 
0.0395905 0.0272142 0.0152741 -0.00196307 0.0366495 0.0154801 0.0166138 -0.0412108 0.0158945 
-0.0309963 -0.0355024 0.0168835 -0.0233761 -0.031813 0.0156648 0.0346338 -0.0290927 0.0159805 
0.0240101 -0.0228809 0.0161384 -0.0147645 -0.0165889 0.0165045 0.0334462 -0.00930086 0.016538 
-0.00941413 -0.00330341 0.0159478 -0.0283489 -0.000417126 0.0157905 0.0140084 -6.89735e-05 0.0167235 
-0.0105861 0.00898083 0.0167253 0.0396593 0.013993 0.015889 0.0398418 0.0217469 0.016042 
0.0372507 0.0318783 0.0158085 0.0294278 0.0431452 0.0167908 0.00528787 0.0432844 0.0169057 
-0.00396528 -0.0444182 0.0181776 -0.0386911 -0.0311434 0.0180079 -0.00863888 -0.0237376 0.0175866 
-0.00401126 -0.00720159 0.0181054 0.0404774 -0.00688032 0.0178837 -0.009285 0.00693532 0.0175525 
0.0211953 0.00966092 0.0169679 -0.0365733 0.0119208 0.018192 0.0362273 0.0220011 0.0175931 
-0.0148746 0.0223253 0.0169928 -0.0267196 0.0236159 0.0176086 -0.0337286 0.0337045 0.017603 
0.0195053 -0.043722 0.019021 0.0155599 -0.0240909 0.0193579 -0.0408474 -0.00214648 0.0189904 
0.0168839 -0.00210364 0.019018 -0.0153419 -0.00108619 0.0191818 0.0260144 0.00429017 0.019493 
0.00243185 0.0120975 0.0183899 0.018015 0.0183735 0.0182459 0.0191028 0.0315895 0.0188519 
0.00727395 0.0332762 0.0188189 0.00201585 0.0404036 0.018319 -0.0136468 -0.0412372 0.020292 
-0.0161578 -0.0337243 0.0203095 0.00179778 -0.0247441 0.020541 -0.0210835 -0.0209207 0.0199468 
-0.0033641 -0.0204173 0.020092 0.0242571 -0.0100823 0.0205133 0.0200271 -0.00425623 0.0198552 
-0.0376932 -0.000132947 0.0199252 -0.0429246 0.00657681 0.0205443 -0.00598638 0.00689803 0.0197094 
-0.0128609 0.0265935 0.020613 -0.0425374 0.0333781 0.020137 0.00888594 0.0360502 0.0202209 
0.0350196 -0.0250011 0.0209834 0.0347572 -0.0260666 0.0220999 0.0144468 -0.013247 0.0215843 
-0.00528066 -0.0121118 0.0210406 -0.0198668 -0.00211416 0.0210857 0.0183943 0.00266245 0.021378 
0.00533928 0.00728904 0.0208376 0.00742845 0.0199749 0.0220845 0.0278529 0.0342296 0.0212805 
0.0030545 0.0369981 0.0212949 -0.0133259 0.0414802 0.0211591 -0.0177803 -0.0340186 0.0223519 
0.0153133 -0.0285941 0.0222148 0.0164647 -0.0275391 0.0226298 0.0204492 -0.0194639 0.0231968 
-0.0341597 -0.0122829 0.0233033 -0.0253129 -0.0039775 0.0229432 0.00664535 -0.00164817 0.0223899 
-0.0231109 0.0157017 0.0222224 -0.0324762 0.0230005 0.0228817 0.0416479 -0.0439733 0.02356 
0.0406519 -0.0427256 0.0238077 0.0077947 -0.0345433 0.0234138 0.00231692 -0.0294453 0.0246471 
-0.0281455 -0.00127675 0.024482 -0.0233311 0.00384073 0.0236888 0.0332757 0.00539899 0.0234182 
-0.019893 0.00878872 0.0242575 -0.00071691 0.0108932 0.0243386 -0.0287332 0.0215601 0.0235999 
-0.0295899 0.0232577 0.0239504 -0.0390775 0.0447256 0.0245193 -0.0273176 -0.0361067 0.0259192 
-0.0346801 -0.0287009 0.0253471 0.0115492 -0.0227248 0.025508 0.0132043 -0.01541 0.0255956 
-0.0279963 -0.0141356 0.0249132 0.0448793 -0.00396119 0.0257783 0.0189244 0.00254502 0.0256962 
0.00474506 0.0103043 0.0255034 0.0234497 0.00978487 0.0256975 -0.00808524 0.0113378 0.0258206 
-0.0350204 0.0121089 0.0259453 0.0397191 0.0283771 0.0250148 0.0380057 0.0324307 0.0249858 
0.00367032 0.0371324 0.0255215 -0.00647711 0.0391566 0.02601 -0.0195638 -0.0385913 0.0272534 
0.0325128 -0.03812 0.027268 0.0195647 -0.0366528 0.026951 0.0253763 -0.011051 0.0265425 
0.0352883 -0.0103067 0.026015 0.0358407 0.00533501 0.0265945 -0.0442311 0.00821601 0.0272107 
-0.0408306 0.00999374 0.0261142 0.027557 0.009967 0.0264565 -0.0408838 0.0159645 0.0263968 
-0.0122189 0.0175978 0.0265046 0.00264144 0.0247174 0.0270733 0.0337272 0.0324898 0.0265364 
0.0281745 0.039089 0.0268835 0.0114086 0.0440135 0.0264368 0.0171919 0.0449185 0.0261191 
0.00849583 -0.0405939 0.0280104 -0.0164034 -0.0216001 0.028028 -0.0328213 -0.0176588 0.0280608 
-0.0408642 -0.0154151 0.0284545 -0.015814 -0.0152491 0.0281721 0.0375745 -0.0151367 0.0283306 
-0.0261639 0.00337815 0.0280596 -0.0137512 0.00384646 0.0278177 0.00757299 0.0192258 0.0282166 
0.0258603 0.0235991 0.0278626 0.0434247 0.0295768 0.0273806 0.0040127 0.0314243 0.0281713 
-0.00883869 0.0381834 0.0278534 0.0211706 0.0445491 0.0276254 -0.0389435 -0.0425966 0.0291952 
-0.0207996 -0.0190456 0.0296108 0.00886689 -0.0141191 0.0295862 -0.0253401 -0.0103599 0.0298758 
-0.0211095 -0.00770044 0.0292169 0.0420414 -0.00101026 0.0298938 -0.0131355 0.00164571 0.0291783 
0.0324887 0.00836074 0.0288606 0.00789931 0.0136568 0.0296382 0.012949 0.0143048 0.0295685 
0.0350116 0.0207306 0.0291006 0.0170579 0.0421878 0.0295232 -0.0169239 -0.0402939 0.0301562 
0.0355384 -0.0354155 0.0309096 0.043014 -0.0343178 0.030535 -0.0210092 -0.0320472 0.0308329 
0.023019 -0.0293484 0.0310508 0.0210005 -0.0239559 0.0312082 -0.0350278 -0.0224863 0.0308711 
0.032558 0.00153523 0.0299939 -0.0406381 0.00555966 0.0304423 -0.0403489 0.00598291 0.0305911 
-0.01547 0.00642247 0.0311437 -0.00443291 0.0160613 0.0307325 -0.0436572 0.0238848 0.0302617 
-0.0407273 0.0358476 0.0301589 -0.0289295 -0.0389067 0.0325033 -0.00161929 -0.0353994 0.0314958 
0.0403097 -0.0347888 0.0322917 0.0346336 -0.0325969 0.0324606 -0.0150798 -0.00698339 0.0314882 
-0.027449 0.00511055 0.0315562 -0.0287818 0.014969 0.0318559 -0.0363159 0.0185996 0.0318853 
-0.0214233 0.0285543 0.0312172 0.00834461 0.0278725 0.0318734 -0.00750544 0.0361316 0.0318626 
-0.0317519 -0.0446953 0.0332633 -0.0179089 -0.0346335 0.0327951 -8.23525e-05 -0.034098 0.0330267 
-0.00682403 -0.0314098 0.0334123 0.0134129 -0.0192809 0.0330028 0.0296492 -0.015918 0.0337071 
-0.00710141 -0.0133745 0.0331361 0.00978397 0.00922321 0.032581 0.0440772 0.0154938 0.0326544 
-0.0286532 0.0159811 0.0326514 -0.00317984 0.0164631 0.0333895 0.0256029 0.0175394 0.0329848 
-0.0132251 0.0252506 0.0338023 -0.00472634 0.0344449 0.0332315 -0.0401314 -0.0280847 0.0338362 
0.0156293 -0.0283842 0.0344607 0.0252581 -0.0163235 0.0346399 0.0347312 -0.012978 0.0349771 
-0.040885 -0.00406647 0.0351121 0.00127443 -0.000618905 0.0349294 -0.0332593 0.000859011 0.0344784 
-0.00831541 0.0129665 0.0347613 -0.0161548 0.0159009 0.0342168 -0.0138035 0.0240512 0.0350377 
-0.0260391 0.0304395 0.0345013 -0.0359241 0.0337864 0.0345509 0.0132394 0.0345575 0.0350466 
0.0201641 -0.0426709 0.036218 0.000425919 -0.0415728 0.0353941 0.010226 -0.0308634 0.0357151 
0.0109547 -0.0235646 0.0357949 0.0272875 -0.0186725 0.0358711 0.0218314 -0.00971151 0.0353096 
0.00418285 0.0112423 0.0357748 -0.0436896 0.0195853 0.0359603 -0.0190394 0.0446837 0.0355439 
-0.0349861 -0.0412827 0.0371849 -0.0234086 -0.038644 0.0365548 0.0307351 -0.0355434 0.0373508 
0.027474 -0.0338615 0.0375546 -0.0313057 -0.0141988 0.0368256 -0.042331 -0.00792816 0.0372146 
-0.0101373 -0.00698039 0.0365746 0.0127657 -0.00746761 0.037512 -0.00720807 -0.00608605 0.0373836 
0.0386193 -0.00496685 0.0376422 0.0110904 0.00657535 0.0374278 -0.0219587 0.0304934 0.037634 
0.0147823 -0.0446949 0.0384423 -0.0225361 -0.0441701 0.0377363 -0.0406141 -0.0405112 0.0385388 
-0.00338111 -0.0363358 0.0388464 -0.038621 -0.0229432 0.0382557 -0.0395569 -0.00227866 0.037879 
-0.0349081 0.00917553 0.0382547 0.00546842 0.0177814 0.038236 -0.039126 0.0399637 0.0384425 
-0.0379532 0.0399341 0.0378822 -0.00785852 0.041878 0.0380587 0.0430506 0.0422314 0.038369 
-0.0136128 -0.00979682 0.0394366 0.0129906 -0.00677597 0.0400514 0.0101693 0.00555192 0.0391686 
-0.0394276 0.0109375 0.0391915 -0.0193355 0.018129 0.0392821 -0.014478 0.0275162 0.0391615 
-0.0406313 0.0295913 0.0401954 0.0214431 0.0335886 0.039166 -0.00586029 -0.0338127 0.0405792 
-0.0323128 -0.0219837 0.0415325 -0.0177429 -0.0346724 0.0424519 0.0392765 -0.0300093 0.0427244 
0.0184681 -0.0172117 0.0421856 0.0322358 -0.0130621 0.0419091 -0.000610522 -0.00103491 0.0419178 
-0.0227164 -0.0141288 0.0435404 -0.0139777 -0.0223984 0.04519 -0.0291427 -0.0219343 0.0448619 
0.0282033 -0.0178095 0.0450476 -0.0152062 0.0294088 0.0449015 0.0338942 -0.0410147 0.045953 
-0.0396817 -0.0304797 0.0455919 -0.0432264 -0.0264101 0.0457314 0.0054016 -0.025334 0.0462968 
-0.00552594 0.00555795 0.045969 -0.0343844 -0.0078404 0.047884 0.0293019 -0.00298432 0.0473758 
0.0433459 -0.0353282 0.0492027 -0.0160452 -0.0323821 0.0493163 -0.0405162 -0.0161033 0.0485964 
0.0275881 -0.00673863 0.0481339 0.00976854 0.0197772 0.0489814 0.0414517 -0.0114994 0.0494457 
-0.00229178 0.0020129 0.051633 0.00264867 -0.0338128 0.0523214 0.0218308 -0.0192565 0.052885 
0.023953 0.00820576 0.0528664 0.0101031 -0.0273014 0.0533964 -0.032208 0.0306075 0.0535342 
-0.0422696 0.0340949 0.0541454 0.0262592 -0.0217201 0.0550536 -0.0183202 -0.0175475 0.0550908 
0.0323804 -0.0132471 0.0558313 0.0277548 0.0042931 0.0550018 0.0133448 0.00646544 0.0552492 
0.0354139 0.0312817 0.0548436 0.00153271 0.0201988 0.0566339 0.0412685 -0.0295104 0.0584591 
-0.00446216 -0.0255279 0.058293 -0.00474481 -0.00600267 0.0573593 0.0262096 -0.0449372 0.0597231 
0.0342493 -0.0115037 0.0597165 0.012585 0.0155082 0.059834 -0.0368667 0.0306348 0.0590293 
0.0152528 0.033152 0.0594738 -0.0393221 -0.0167834 0.0603369 -0.0326334 -0.00963456 0.060889 
0.00314898 0.00491531 0.0608749 0.0223025 -0.0112244 0.0622682 -0.0160353 0.0448572 0.0623826 
0.0153641 0.0146287 0.0632787 -0.0269229 0.0267788 0.0632424 0.0339316 -0.041715 0.0649925 
-0.0207563 -0.0111167 0.0639039 0.0114764 0.0140289 0.0644125 -0.0213481 0.0319153 0.0640589 
-0.0449336 -0.00957357 0.0657779 0.00265626 0.00371614 0.0652288 -0.0102477 0.0267602 0.0661921 
0.00513794 0.0433856 0.0657968 0.0164577 0.0353116 0.0684001 0.0439232 0.0371117 0.0684852 
-0.0329608 -0.0218045 0.0702515 0.0302919 -0.0148257 0.0704833 -0.024842 -0.00884532 0.0713103 
-0.0371624 0.011326 0.0705211 0.0323341 0.0191974 0.0710992 0.0185094 -0.042363 0.0723484 
-0.0336946 -0.0248459 0.0723669 -0.0328109 -0.0226975 0.0716334 -0.0440308 0.0448256 0.0726488 
0.0414834 -0.0181367 0.0735704 -0.0281804 0.0418824 0.0731379 0.0341086 -0.0368686 0.0743352 
-0.0420316 -0.0145538 0.0743481 0.0320014 0.00756294 0.074568 0.0379188 0.0120326 0.0745157 
-0.015788 -0.0282898 0.076721 0.0289145 -0.0340196 0.077357 -0.0386256 -0.00983966 0.0799457 
0.0154702 -0.00154679 0.0794918 -0.0144089 0.0201081 0.0794103 -0.0437633 0.0406561 0.0795402 
-0.0419519 -0.0259749 0.0810248 0.0104707 0.0313218 0.0818253 0.00357123 -0.00830953 0.0846315 
0.00635633 0.000852437 0.0855739 -0.0197415 0.0344175 0.0856694 -0.0385899 -0.0405251 0.0866986 
0.0414788 -0.00521487 0.0861466 -0.0356048 -0.000104637 0.0869558 -0.0296003 0.0277025 0.0880849 
0.00308146 0.0401468 0.0883882 -0.00521279 -0.0413279 0.0894799 -0.0245993 0.0193658 0.0908845 
-0.0170112 0.0231088 0.0903518 0.0131273 0.040817 0.0898473 0.0419483 -0.0348097 0.0922125 
-0.0081225 0.0151775 0.0920668 0.0433204 -0.0141837 0.0935418 0.0282359 -0.00877456 0.0933319 
-0.0256005 0.0215871 0.0932004 -0.0155539 0.0359545 0.0926172 -0.00757157 0.00454821 0.0961158 
0.0188903 -0.0308528 0.100042 0.00643655 -0.000956063 0.101248 0.00741479 -0.0295782 0.102618 
-0.0207679 -0.0256315 0.101565 0.00347554 0.00338662 0.102243 -0.00254916 -0.00379952 0.104662 

VERTICES 649 648
OFFSETS vtktypeint64
0 1 2 3 4 5 6 7 8 
9 10 11 12 13 14 15 16 17 
18 19 20 21 22 23 24 25 26 
27 28 29 30 31 32 33 34 35 
36 37 38 39 40 41 42 43 44 
45 46 47 48 49 50 51 52 53 
54 55 56 57 58 59 60 61 62 
63 64 65 66 67 68 69 70 71 
72 73 74 75 76 77 78 79 80 
81 82 83 84 85 86 87 88 89 
90 91 92 93 94 95 96 97 98 
99 100 101 102 103 104 105 106 107 
108 109 110 111 112 113 114 115 116 
117 118 119 120 121 122 123 124 125 
126 127 128 129 130 131 132 133 134 
135 136 137 138 139 140 141 142 143 
144 145 146 147 148 149 150 151 152 
153 154 155 156 157 158 159 160 161 
162 163 164 165 166 167 168 169 170 
171 172 173 174 175 176 177 178 179 
180 181 182 183 184 185 186 187 188 
189 190 191 192 193 194 195 196 197 
198 199 200 201 202 203 204 205 206 
207 208 209 210 211 212 213 214 215 
216 217 218 219 220 221 222 223 224 
225 226 227 228 229 230 231 232 233 
234 235 236 237 238 239 240 241 242 
243 244 245 246 247 248 249 250 251 
252 253 254 255 256 257 258 259 260 
261 262 263 264 265 266 267 268 269 
270 271 272 273 274 275 276 277 278 
279 280 281 282 283 284 285 286 287 
288 289 290 291 292 293 294 295 296 
297 298 299 300 301 302 303 304 305 
306 307 308 309 310 311 312 313 314 
315 316 317 318 319 320 321 322 323 
324 325 326 327 328 329 330 331 332 
333 334 335 336 337 338 339 340 341 
342 343 344 345 346 347 348 349 350 
351 352 353 354 355 356 357 358 359 
360 361 362 363 364 365 366 367 368 
369 370 371 372 373 374 375 376 377 
378 379 380 381 382 383 384 385 386 
387 388 389 390 391 392 393 394 395 
396 397 398 399 400 401 402 403 404 
405 406 407 408 409 410 411 412 413 
414 415 416 417 418 419 420 421 422 
423 424 425 426 427 428 429 430 431 
432 433 434 435 436 437 438 439 440 
441 442 443 444 445 446 447 448 449 
450 451 452 453 454 455 456 457 458 
459 460 461 462 463 464 465 466 467 
468 469 470 471 472 473 474 475 476 
477 478 479 480 481 482 483 484 485 
486 487 488 489 490 491 492 493 494 
495 496 497 498 499 500 501 502 503 
504 505 506 507 508 509 510 511 512 
513 514 515 516 517 518 519 520 521 
522 523 524 525 526 527 528 529 530 
531 532 533 534 535 536 537 538 539 
540 541 542 543 544 545 546 547 548 
549 550 551 552 553 554 555 556 557 
558 559 560 561 562 563 564 565 566 
567 568 569 570 571 572 573 574 575 
576 577 578 579 580 581 582 583 584 
585 586 587 588 589 590 591 592 593 
594 595 596 597 598 599 600 601 602 
603 604 605 606 607 608 609 610 611 
612 613 614 615 616 617 618 619 620 
621 622 623 624 625 626 627 628 629 
630 631 632 633 634 635 636 637 638 
639 640 641 642 643 644 645 646 647 
648 
CONNECTIVITY vtktypeint64
0 1 2 3 4 5 6 7 8 
9 10 11 12 13 14 15 16 17 
18 19 20 21 22 23 24 25 26 
27 28 29 30 31 32 33 34 35 
36 37 38 39 40 41 42 43 44 
45 46 47 48 49 50 51 52 53 
54 55 56 57 58 59 60 61 62 
63 64 65 66 67 68 69 70 71 
72 73 74 75 76 77 78 79 80 
81 82 83 84 85 86 87 88 89 
90 91 92 93 94 95 96 97 98 
99 100 101 102 103 104 105 106 107 
108 109 110 111 112 113 114 115 116 
117 118 119 120 121 122 123 124 125 
126 127 128 129 130 131 132 133 134 
135 136 137 138 139 140 141 142 143 
144 145 146 147 148 149 150 151 152 
153 154 155 156 157 158 159 160 161 
162 163 164 165 166 167 168 169 170 
171 172 173 174 175 176 177 178 179 
180 181 182 183 184 185 186 187 188 
189 190 191 192 193 194 195 196 197 
198 199 200 201 202 203 204 205 206 
207 208 209 210 211 212 213 214 215 
216 217 218 219 220 221 222 223 224 
225 226 227 228 229 230 231 232 233 
234 235 236 237 238 239 240 241 242 
243 244 245 246 247 248 249 250 251 
252 253 254 255 256 257 258 259 260 
261 262 263 264 265 266 267 268 269 
270 271 272 273 274 275 276 277 278 
279 280 281 282 283 284 285 286 287 
288 289 290 291 292 293 294 295 296 
297 298 299 300 301 302 303 304 305 
306 307 308 309 310 311 312 313 314 
315 316 317 318 319 320 321 322 323 
324 325 326 327 328 329 330 331 332 
333 334 335 336 337 338 339 340 341 
342 343 344 345 346 347 348 349 350 
351 352 353 354 355 356 357 358 359 
360 361 362 363 364 365 366 367 368 
369 370 371 372 373 374 375 376 377 
378 379 380 381 382 383 384 385 386 
387 388 389 390 391 392 393 394 395 
396 397 398 399 400 401 402 403 404 
405 406 407 408 409 410 411 412 413 
414 415 416 417 418 419 420 421 422 
423 424 425 426 427 428 429 430 431 
432 433 434 435 436 437 438 439 440 
441 442 443 444 445 446 447 448 449 
450 451 452 453 454 455 456 457 458 
459 460 461 462 463 464 465 466 467 
468 469 470 471 472 473 474 475 476 
477 478 479 480 481 482 483 484 485 
486 487 488 489 490 491 492 493 494 
495 496 497 498 499 500 501 502 503 
504 505 506 507 508 509 510 511 512 
513 514 515 516 517 518 519 520 521 
522 523 524 525 526 527 528 529 530 
531 532 533 534 535 536 537 538 539 
540 541 542 543 544 545 546 547 548 
549 550 551 552 553 554 555 556 557 
558 559 560 561 562 563 564 565 566 
567 568 569 570 571 572 573 574 575 
576 577 578 579 580 581 582 583 584 
585 586 587 588 589 590 591 592 593 
594 595 596 597 598 599 600 601 602 
603 604 605 606 607 608 609 610 611 
612 613 614 615 616 617 618 619 620 
621 622 623 624 625 626 627 628 629 
630 631 632 633 634 635 636 637 638 
639 640 641 642 643 644 645 646 647 

POINT_DATA 648
FIELD FieldData 12
id 1 648 int
314 303 227 324 90 495 384 318 351 
98 463 188 326 508 411 319 229 51 
347 137 409 415 267 238 439 298 240 
290 349 16 399 263 2 478 456 424 
112 4 261 288 60 21 40 54 110 
357 337 104 163 30 199 506 222 412 
91 207 22 24 404 5 96 167 317 
470 355 444 168 500 292 248 427 32 
132 66 36 486 467 454 432 297 236 
417 330 162 408 410 321 327 85 76 
155 406 275 390 218 429 256 92 367 
304 331 13 121 190 484 282 154 440 
289 496 73 293 75 175 186 61 418 
458 141 407 255 322 310 15 433 339 
161 166 49 100 488 233 246 328 435 
386 164 366 113 457 87 35 34 459 
115 122 505 185 183 237 58 8 106 
483 10 72 383 243 370 125 57 83 
465 396 450 165 214 378 446 169 150 
491 202 193 364 447 18 219 189 9 
195 280 187 158 253 29 198 271 134 
356 88 107 291 223 64 174 479 247 
176 381 215 211 336 377 11 385 86 
353 423 129 197 373 149 287 14 498 
451 201 26 270 362 320 62 372 375 
200 84 28 231 428 127 157 311 6 
341 196 401 178 308 12 437 475 140 
226 477 111 216 474 119 81 148 313 
295 128 472 59 278 515 521 343 251 
346 257 151 208 63 469 504 272 414 
102 352 146 299 20 395 392 394 268 
65 45 397 250 393 79 416 329 170 
74 260 53 252 171 334 244 56 17 
431 78 206 461 232 52 487 239 294 
323 462 38 142 205 265 144 363 279 
94 108 342 89 333 493 42 368 425 
420 345 529 325 109 348 93 71 360 
371 217 379 273 117 481 225 123 68 
156 116 403 25 1 105 204 301 213 
266 455 286 335 430 460 43 405 305 
426 281 421 182 361 350 147 445 448 
380 285 135 70 130 31 471 489 139 
542 212 126 124 221 138 254 476 82 
354 449 376 276 50 77 338 296 442 
181 179 466 482 413 210 359 436 340 
3 153 316 453 480 315 7 520 180 
536 302 55 136 160 274 143 374 194 
519 300 443 507 114 332 559 438 258 
177 441 23 511 80 499 145 46 41 
33 434 99 344 47 307 103 234 526 
538 503 501 245 220 191 309 312 159 
69 543 522 284 48 485 209 509 452 
242 402 388 398 44 422 490 497 358 
228 473 118 131 387 502 120 553 259 
567 365 389 262 468 97 269 494 391 
203 591 283 192 516 101 464 152 172 
562 173 492 589 306 95 39 27 224 
133 528 419 241 230 549 67 37 382 
400 587 523 249 277 19 264 580 546 
601 184 369 524 235 571 576 518 533 
551 566 564 612 513 547 517 540 577 
525 527 532 545 563 592 605 570 572 
615 514 638 565 616 558 510 645 596 
550 573 539 530 613 512 623 561 548 
604 557 534 628 560 594 579 618 617 
593 599 614 622 637 597 585 633 583 
554 598 535 586 552 531 578 537 569 
595 607 635 581 541 639 603 555 626 
590 556 620 629 634 544 610 625 575 
574 611 608 630 600 648 647 568 609 
643 632 582 588 606 584 619 644 602 
646 624 631 636 621 640 627 641 642 

type 1 648 int
1 1 1 1 1 1 1 1 1 
1 1 1 1 1 1 1 1 1 
1 1 1 1 1 1 1 1 1 
1 1 2 1 1 3 1 1 1 
1 2 1 1 1 1 1 1 1 
1 1 1 1 1 1 1 1 1 
1 1 1 1 1 2 1 1 1 
1 1 1 1 1 1 1 1 1 
1 1 1 1 1 1 1 1 1 
1 1 1 1 1 1 1 1 1 
1 1 1 1 1 1 1 1 1 
1 1 2 1 1 1 1 1 1 
1 1 1 1 1 1 1 1 1 
1 1 1 1 1 1 2 1 1 
1 1 1 1 1 1 1 1 1 
1 1 1 1 1 1 1 1 1 
1 1 1 1 1 1 1 2 1 
1 2 1 1 1 1 1 1 1 
1 1 1 1 1 1 1 1 1 
1 1 1 1 1 1 1 1 2 
1 1 1 1 1 1 1 1 1 
1 1 1 1 1 1 1 1 1 
1 1 1 1 1 1 2 1 1 
1 1 1 1 1 1 1 2 1 
1 1 1 1 1 1 1 1 1 
1 1 1 1 1 1 1 1 2 
1 1 1 1 1 2 1 1 1 
1 1 1 1 1 1 1 1 1 
1 1 1 1 1 1 1 1 1 
1 1 1 1 1 1 1 1 1 
1 1 1 1 1 1 1 1 1 
1 1 1 1 1 1 1 1 1 
1 1 1 1 1 1 1 1 1 
1 1 1 1 1 1 1 1 1 
1 1 1 1 1 1 1 1 1 
1 1 1 1 1 1 1 1 1 
1 1 1 1 1 1 1 1 1 
1 1 1 1 1 1 1 1 1 
1 1 1 1 4 1 1 1 1 
1 1 1 1 1 1 1 1 1 
1 1 1 1 1 1 1 1 1 
1 1 1 1 1 1 1 1 1 
1 1 1 1 1 1 1 1 1 
1 1 1 1 1 1 1 1 1 
1 1 1 1 1 1 1 1 1 
2 1 1 1 1 1 2 1 1 
1 1 1 1 1 1 1 1 1 
1 1 1 1 1 1 1 1 1 
1 1 1 1 1 1 1 1 1 
1 1 1 1 1 1 1 1 1 
1 1 1 1 1 1 1 1 1 
1 1 1 1 1 1 1 1 1 
1 1 1 1 1 1 1 1 1 
1 1 1 1 1 1 1 1 1 
1 1 1 1 1 1 1 1 1 
1 1 1 1 2 1 1 1 1 
1 1 1 1 1 1 1 1 1 
1 1 1 1 1 1 1 1 1 
1 1 1 1 1 1 1 1 1 
1 1 1 1 1 1 1 1 1 
1 1 1 1 1 1 1 1 1 
1 1 1 1 1 1 1 1 1 
1 1 1 1 1 1 1 1 1 
1 1 1 1 1 2 1 1 1 
1 1 1 1 1 1 1 1 1 
1 1 1 1 1 1 1 1 1 
1 1 1 1 1 1 1 1 1 
1 1 1 1 1 1 1 1 1 
1 1 1 1 2 1 1 1 1 
1 1 1 1 1 1 1 1 1 
1 1 1 1 1 1 1 1 1 
1 1 1 1 1 1 1 1 1 

i 3 648 int
0 0 0 0 0 0 0 0 0 
0 0 0 0 0 0 0 0 0 
0 0 0 0 0 0 0 0 0 
0 0 0 0 0 0 0 0 0 
0 0 0 0 0 0 0 0 0 
0 0 0 0 0 0 0 0 0 
0 0 0 0 0 0 0 0 0 
0 0 0 0 0 0 0 0 0 
0 0 0 0 0 0 0 0 0 
0 0 0 0 0 0 0 0 0 
0 0 0 0 0 0 0 0 0 
0 0 0 0 0 0 0 0 0 
0 0 0 0 0 0 0 0 0 
0 0 0 0 0 0 0 0 0 
0 0 0 0 0 0 0 0 0 
0 0 0 0 0 0 0 0 0 
0 0 0 0 0 0 0 0 0 
0 0 0 0 0 0 0 0 0 
0 0 0 0 0 0 0 0 0 
0 0 0 0 0 0 0 0 0 
0 0 0 0 0 0 0 0 0 
0 0 0 0 0 0 0 0 0 
0 0 0 0 0 0 0 0 0 
0 0 0 0 0 0 0 0 0 
0 0 0 0 0 0 0 0 0 
0 0 0 0 0 0 0 0 0 
0 0 0 0 0 0 0 0 0 
0 0 0 0 0 0 0 0 0 
0 0 0 0 0 0 0 0 0 
0 0 0 0 0 0 0 0 0 
0 0 0 0 0 0 0 0 0 
0 0 0 0 0 0 0 0 0 
0 0 0 0 0 0 0 0 0 
0 0 0 0 0 0 0 0 0 
0 0 0 0 0 0 0 0 0 
0 0 0 0 0 0 0 0 0 
0 0 0 0 0 0 0 0 0 
0 0 0 0 0 0 0 0 0 
0 0 0 0 0 0 0 0 0 
0 0 0 0 0 0 0 0 0 
0 0 0 0 0 0 0 0 0 
0 0 0 0 0 0 0 0 0 
0 0 0 0 0 0 0 0 0 
0 0 0 0 0 0 0 0 0 
0 0 0 0 0 0 0 0 0 
0 0 0 0 0 0 0 0 0 
0 0 0 0 0 0 0 0 0 
0 0 0 0 0 0 0 0 0 
0 0 0 0 0 0 0 0 0 
0 0 0 0 0 0 0 0 0 
0 0 0 0 0 0 0 0 0 
0 0 0 0 0 0 0 0 0 
0 0 0 0 0 0 0 0 0 
0 0 0 0 0 0 0 0 0 
0 0 0 0 0 0 0 0 0 
0 0 0 0 0 0 0 0 0 
0 0 0 0 0 0 0 0 0 
0 0 0 0 0 0 0 0 0 
0 0 0 0 0 0 0 0 0 
0 0 0 0 0 0 0 0 0 
0 0 0 0 0 0 0 0 0 
0 0 0 0 0 0 0 0 0 
0 0 0 0 0 0 0 0 0 
0 0 0 0 0 0 0 0 0 
0 0 0 0 0 0 0 0 0 
0 0 0 0 0 0 0 0 0 
0 0 0 0 0 0 0 0 0 
0 0 0 0 0 0 0 0 0 
0 0 0 0 0 0 0 0 0 
0 0 0 0 0 0 0 0 0 
0 0 0 0 0 0 0 0 0 
0 0 0 0 0 0 0 0 0 
0 0 0 0 0 0 0 0 0 
0 0 0 0 0 0 0 0 0 
0 0 0 0 0 0 0 0 0 
0 0 0 0 0 0 0 0 0 
0 0 0 0 0 0 0 0 0 
0 0 0 0 0 0 0 0 0 
0 0 0 0 0 0 0 0 0 
0 0 0 0 0 0 0 0 0 
0 0 0 0 0 0 0 0 0 
0 0 0 0 0 0 0 0 0 
0 0 0 0 0 0 0 0 0 
0 0 0 0 0 0 0 0 0 
0 0 0 0 0 0 0 0 0 
0 0 0 0 0 0 0 0 0 
0 0 0 0 0 0 0 0 0 
0 0 0 0 0 0 0 0 0 
0 0 0 0 0 0 0 0 0 
0 0 0 0 0 0 0 0 0 
0 0 0 0 0 0 0 0 0 
0 0 0 0 0 0 0 0 0 
0 0 0 0 0 0 0 0 0 
0 0 0 0 0 0 0 0 0 
0 0 0 0 0 0 0 0 0 
0 0 0 0 0 0 0 0 0 
0 0 0 0 0 0 0 0 0 
0 0 0 0 0 0 0 0 0 
0 0 0 0 0 0 0 0 0 
0 0 0 0 0 0 0 0 0 
0 0 0 0 0 0 0 0 0 
0 0 0 0 0 0 0 0 0 
0 0 0 0 0 0 0 0 0 
0 0 0 0 0 0 0 0 0 
0 0 0 0 0 0 0 0 0 
0 0 0 0 0 0 0 0 0 
0 0 0 0 0 0 0 0 0 
0 0 0 0 0 0 0 0 0 
0 0 0 0 0 0 0 0 0 
0 0 0 0 0 0 0 0 0 
0 0 0 0 0 0 0 0 0 
0 0 0 0 0 0 0 0 0 
0 0 0 0 0 0 0 0 0 
0 0 0 0 0 0 0 0 0 
0 0 0 0 0 0 0 0 0 
0 0 0 0 0 0 0 0 0 
0 0 0 0 0 0 0 0 0 
0 0 0 0 0 0 0 0 0 
0 0 0 0 0 0 0 0 0 
0 0 0 0 0 0 0 0 0 
0 0 0 0 0 0 0 0 0 
0 0 0 0 0 0 0 0 0 
0 0 0 0 0 0 0 0 0 
0 0 0 0 0 0 0 0 0 
0 0 0 0 0 0 0 0 0 
0 0 0 0 0 0 0 0 0 
0 0 0 0 0 0 0 0 0 
0 0 0 0 0 0 0 0 0 
0 0 0 0 0 0 0 0 0 
0 0 0 0 0 0 0 0 0 
0 0 0 0 0 0 0 0 0 
0 0 0 0 0 0 0 0 0 
0 0 0 0 0 0 0 0 0 
0 0 0 0 0 0 0 0 0 
0 0 0 0 0 0 0 0 0 
0 0 0 0 0 0 0 0 0 
0 0 0 0 0 0 0 0 0 
0 0 0 0 0 0 0 0 0 
0 0 0 0 0 0 0 0 0 
0 0 0 0 0 0 0 0 0 
0 0 0 0 0 0 0 0 0 
0 0 0 0 0 0 0 0 0 
0 0 0 0 0 0 0 0 0 
0 0 0 0 0 0 0 0 0 
0 0 0 0 0 0 0 0 0 
0 0 0 0 0 0 0 0 0 
0 0 0 0 0 0 0 0 0 
0 0 0 0 0 0 0 0 0 
0 0 0 0 0 0 0 0 0 
0 0 0 0 0 0 0 0 0 
0 0 0 0 0 0 0 0 0 
0 0 0 0 0 0 0 0 0 
0 0 0 0 0 0 0 0 0 
0 0 0 0 0 0 0 0 0 
0 0 0 0 0 0 0 0 0 
0 0 0 0 0 0 0 0 0 
0 0 0 0 0 0 0 0 0 
0 0 0 0 0 0 0 0 0 
0 0 0 0 0 0 0 0 0 
0 0 0 0 0 0 0 0 0 
0 0 0 0 0 0 0 0 0 
0 0 0 0 0 0 0 0 0 
0 0 0 0 0 0 0 0 0 
0 0 0 0 0 0 0 0 0 
0 0 0 0 0 0 0 0 0 
0 0 0 0 0 0 0 0 0 
0 0 0 0 0 0 0 0 0 
0 0 0 0 0 0 0 0 0 
0 0 0 0 0 0 0 0 0 
0 0 0 0 0 0 0 0 0 
0 0 0 0 0 0 0 0 0 
0 0 0 0 0 0 0 0 0 
0 0 0 0 0 0 0 0 0 
0 0 0 0 0 0 0 0 0 
0 0 0 0 0 0 0 0 0 
0 0 0 0 0 0 0 0 0 
0 0 0 0 0 0 0 0 0 
0 0 0 0 0 0 0 0 0 
0 0 0 0 0 0 0 0 0 
0 0 0 0 0 0 0 0 0 
0 0 0 0 0 0 0 0 0 
0 0 0 0 0 0 0 0 0 
0 0 0 0 0 0 0 0 0 
0 0 0 0 0 0 0 0 0 
0 0 0 0 0 0 0 0 0 
0 0 0 0 0 0 0 0 0 
0 0 0 0 0 0 0 0 0 
0 0 0 0 0 0 0 0 0 
0 0 0 0 0 0 0 0 0 
0 0 0 0 0 0 0 0 0 
0 0 0 0 0 0 0 0 0 
0 0 0 0 0 0 0 0 0 
0 0 0 0 0 0 0 0 0 
0 0 0 0 0 0 0 0 0 
0 0 0 0 0 0 0 0 0 
0 0 0 0 0 0 0 0 0 
0 0 0 0 0 0 0 0 0 
0 0 0 0 0 0 0 0 0 
0 0 0 0 0 0 0 0 0 
0 0 0 0 0 0 0 0 0 
0 0 0 0 0 0 0 0 0 
0 0 0 0 0 0 0 0 0 
0 0 0 0 0 0 0 0 0 
0 0 0 0 0 0 0 0 0 
0 0 0 0 0 0 0 0 0 
0 0 0 0 0 0 0 0 0 
0 0 0 0 0 0 0 0 0 
0 0 0 0 0 0 0 0 0 
0 0 0 0 0 0 0 0 0 
0 0 0 0 0 0 0 0 0 
0 0 0 0 0 0 0 0 0 
0 0 0 0 0 0 0 0 0 
0 0 0 0 0 0 0 0 0 
0 0 0 0 0 0 0 0 0 
0 0 0 0 0 0 0 0 0 
0 0 0 0 0 0 0 0 0 

v 3 648 double
0 0 0.22237902456 0 0 0.19561903286 0 0 -0.5713741875 
0 0 0.19907497832 0 0 0.2213992242 0 0 -0.5713741875 
0 0 -0.5713741875 0 0 0.19041550303 0 0 0.22112425694 
0 0 -0.5713741875 0 0 0.1759722917 0 0 0.21905336513 
0 0 0.22333039687 0 0 0.16932339171 0 0 0.22430085003 
0 0 0.2183374339 0 0 0.21646602016 0 0 0.17723349254 
0 0 0.1697582256 0 0 0.17477267387 0 0 0.21996553399 
0 0 -0.5713741875 0 0 0.17750581895 0 0 -0.5713741875 
0 0 0.1782518628 0 0 -0.5713741875 0 0 -0.5713741875 
0 0 0.21277078997 0 0 0.20998049807 0 0 0.23714753975 
0 0 0.21332497473 0 0 0.21192609918 0 0 0.27456946505 
0 0 0.17211434119 0 0 0.16899003788 0 0 0.22122893011 
0 0 0.2219747643 0 0 0.25323258077 0 0 0.18454378669 
0 0 -0.5713741875 0 0 0.18805871886 0 0 0.22287589378 
0 0 0.18748126951 0 0 0.2339869558 0 0 0.17664874834 
0 0 -0.5713741875 0 0 0.21245560353 0 0 0.22712410205 
0 0 0.1766037669 0 0 -0.5713741875 0 0 0.21845218855 
0 0 0.16508654271 0 0 0.22092645261 0 0 0.17766748066 
0 0 0.21224667665 0 0 0.18305888742 0 0 0.21256916274 
0 0 -0.5713741875 0 0 0.16300910183 0 0 0.23223237614 
0 0 -0.5713741875 0 0 0.20615622914 0 0 0.16086007052 
0 0 0.15315269885 0 0 0.17199431831 0 0 0.15531762411 
0 0 -0.5713741875 0 0 0.21235299698 0 0 0.16177653709 
0 0 -0.5713741875 0 0 0.2047219905 0 0 -0.5713741875 
0 0 0.15974971358 0 0 0.16162267634 0 0 0.15919557675 
0 0 -0.5713741875 0 0 0.17229637369 0 0 0.20485246489 
0 0 0.16452226175 0 0 0.15293217365 0 0 -0.5713741875 
0 0 0.20427479497 0 0 -0.5713741875 0 0 0.2034679656 
0 0 0.19630494165 0 0 0.20448787469 0 0 0.20180324157 
0 0 0.17155223968 0 0 0.16360912425 0 0 -0.5713741875 
0 0 0.20629306089 0 0 0.20513099012 0 0 -0.5713741875 
0 0 -0.5713741875 0 0 -0.5713741875 0 0 -0.5713741875 
0 0 0.18817190659 0 0 0.1383370901 0 0 0.1791211621 
0 0 0.13668168856 0 0 0.15875299375 0 0 0.21754021339 
0 0 -0.5713741875 0 0 0.12848411073 0 0 -0.5713741875 
0 0 0.15992853119 0 0 0.14556607291 0 0 0.1818615145 
0 0 0.15317394871 0 0 0.19642799159 0 0 0.19104479235 
0 0 0.13256202922 0 0 -0.5713741875 0 0 0.14717099062 
0 0 0.1809792598 0 0 -0.5713741875 0 0 0.13035055737 
0 0 0.14231586886 0 0 -0.5713741875 0 0 0.14392507228 
0 0 -0.5713741875 0 0 0.15537722004 0 0 0.14787677065 
0 0 -0.5713741875 0 0 0.13233760836 0 0 0.14048695755 
0 0 -0.5713741875 0 0 0.13988476435 0 0 0.14388502141 
0 0 0.1941177025 0 0 0.18717056504 0 0 0.19087265944 
0 0 0.14813400974 0 0 -0.5713741875 0 0 0.20269852913 
0 0 0.15064181787 0 0 0.11637128012 0 0 0.16748137069 
0 0 -0.5713741875 0 0 0.1831562434 0 0 0.17412102514 
0 0 -0.5713741875 0 0 -0.5713741875 0 0 0.14026410335 
0 0 0.11049092962 0 0 -0.5713741875 0 0 -0.5356241875 
0 0 0.12187653574 0 0 -0.5713741875 0 0 0.17024142495 
0 0 0.16891161714 0 0 0.20662065003 0 0 0.1328417082 
0 0 0.18348084244 0 0 0.22089763689 0 0 0.12230225461 
0 0 0.10816091235 0 0 -0.5713741875 0 0 0.12732982731 
0 0 0.16828120902 0 0 0.10396494193 0 0 0.17694109935 
0 0 0.11242637249 0 0 0.10996326408 0 0 0.12459894525 
0 0 0.1691395686 0 0 0.13007090805 0 0 -0.5713741875 
0 0 -0.5713741875 0 0 0.11806383014 0 0 0.12710519429 
0 0 0.12183713282 0 0 -0.5713741875 0 0 0.17237301766 
0 0 0.17184854708 0 0 -0.5713741875 0 0 0.12012532914 
0 0 0.12728625156 0 0 0.16407864258 0 0 0.20345223163 
0 0 0.11618938045 0 0 0.18324910604 0 0 0.16493864709 
0 0 0.17534585659 0 0 0.17393837824 0 0 0.17423253033 
0 0 -0.5713741875 0 0 -0.5713741875 0 0 0.14365749822 
0 0 0.15270487972 0 0 0.15425193824 0 0 0.14507864323 
0 0 0.14801639347 0 0 -0.5713741875 0 0 -0.5713741875 
0 0 -0.5713741875 0 0 -0.5713741875 0 0 0.167103356 
0 0 0.15134337676 0 0 0.15745774848 0 0 0.15837649073 
0 0 -0.5713741875 0 0 0.15839994202 0 0 -0.5713741875 
0 0 0.17420575687 0 0 0.15791821721 0 0 0.15187252364 
0 0 0.16123789285 0 0 0.14884326915 0 0 -0.5713741875 
0 0 0.14444907858 0 0 0.16929811871 0 0 0.15029880603 
0 0 -0.5713741875 0 0 0.1909313807 0 0 -0.5713741875 
0 0 -0.5713741875 0 0 -0.5713741875 0 0 0.14639453854 
0 0 0.1447568851 0 0 0.12517832364 0 0 -0.5713741875 
0 0 -0.5713741875 0 0 0.13502536138 0 0 -0.5713741875 
0 0 0.14298960083 0 0 -0.5713741875 0 0 -0.5713741875 
0 0 0.14299385446 0 0 0.14132820043 0 0 0.15371252138 
0 0 -0.5713741875 0 0 -0.5713741875 0 0 0.15705585562 
0 0 -0.5713741875 0 0 -0.5713741875 0 0 -0.5713741875 
0 0 -0.5713741875 0 0 -0.5713741875 0 0 0.17693351316 
0 0 -0.5713741875 0 0 -0.5713741875 0 0 -0.5713741875 
0 0 -0.5713741875 0 0 -0.5713741875 0 0 -0.5713741875 
0 0 -0.5713741875 0 0 -0.5713741875 0 0 -0.5713741875 
0 0 -0.5713741875 0 0 -0.5713741875 0 0 -0.5713741875 
0 0 -0.5713741875 0 0 -0.5713741875 0 0 -0.5713741875 
0 0 -0.5713741875 0 0 -0.5713741875 0 0 -0.4966241875 
0 0 -0.4836241875 0 0 -0.5713741875 0 0 -0.5713741875 
0 0 -0.5713741875 0 0 -0.5713741875 0 0 -0.5713741875 
0 0 -0.5713741875 0 0 -0.5713741875 0 0 -0.5713741875 
0 0 -0.5388741875 0 0 -0.5713741875 0 0 -0.5713741875 
0 0 -0.5713741875 0 0 -0.5713741875 0 0 -0.5713741875 
0 0 -0.5713741875 0 0 -0.5713741875 0 0 -0.5713741875 
0 0 -0.5713741875 0 0 -0.5713741875 0 0 -0.5713741875 
0 0 -0.5713741875 0 0 -0.5713741875 0 0 -0.5713741875 
0 0 -0.5713741875 0 0 -0.5713741875 0 0 -0.5713741875 
0 0 -0.5713741875 0 0 -0.5713741875 0 0 -0.5713741875 
0 0 -0.5713741875 0 0 -0.5713741875 0 0 -0.5713741875 
0 0 -0.5713741875 0 0 -0.5713741875 0 0 -0.5713741875 
0 0 -0.5713741875 0 0 -0.5713741875 0 0 -0.5713741875 
0 0 -0.5713741875 0 0 -0.5713741875 0 0 -0.5713741875 
0 0 -0.5713741875 0 0 -0.5713741875 0 0 -0.5713741875 
0 0 -0.5713741875 0 0 -0.5713741875 0 0 -0.5713741875 
0 0 -0.5713741875 0 0 -0.5713741875 0 0 -0.5713741875 
0 0 -0.5713741875 0 0 -0.5713741875 0 0 -0.5713741875 
0 0 -0.5713741875 0 0 -0.5713741875 0 0 -0.5713741875 
0 0 -0.5713741875 0 0 -0.5713741875 0 0 -0.5713741875 
0 0 -0.5713741875 0 0 -0.5713741875 0 0 -0.5713741875 
0 0 -0.5713741875 0 0 -0.5713741875 0 0 -0.5713741875 
0 0 -0.5713741875 0 0 -0.5713741875 0 0 -0.4673741875 
0 0 -0.5713741875 0 0 -0.5713741875 0 0 -0.5713741875 
0 0 -0.5713741875 0 0 -0.5713741875 0 0 -0.5713741875 
0 0 -0.5713741875 0 0 -0.5713741875 0 0 -0.5713741875 
0 0 -0.5713741875 0 0 -0.5713741875 0 0 -0.5713741875 
0 0 -0.5713741875 0 0 -0.5713741875 0 0 -0.5713741875 
0 0 -0.5713741875 0 0 -0.5713741875 0 0 -0.5713741875 
0 0 -0.5713741875 0 0 -0.5713741875 0 0 -0.5713741875 
0 0 -0.5713741875 0 0 -0.5713741875 0 0 -0.5713741875 
0 0 -0.5713741875 0 0 -0.5713741875 0 0 -0.5713741875 
0 0 -0.5713741875 0 0 -0.5713741875 0 0 -0.5713741875 
0 0 -0.5713741875 0 0 -0.5713741875 0 0 -0.5713741875 
0 0 -0.5713741875 0 0 -0.5713741875 0 0 -0.5713741875 
0 0 -0.5713741875 0 0 -0.5713741875 0 0 -0.5713741875 
0 0 -0.5713741875 0 0 -0.5713741875 0 0 -0.5713741875 
0 0 -0.5713741875 0 0 -0.5713741875 0 0 -0.5713741875 
0 0 -0.5713741875 0 0 -0.5713741875 0 0 -0.5713741875 
0 0 -0.5713741875 0 0 -0.5713741875 0 0 -0.5713741875 
0 0 -0.4413741875 0 0 -0.5713741875 0 0 -0.5713741875 
0 0 -0.5713741875 0 0 -0.5713741875 0 0 -0.5713741875 
0 0 -0.5713741875 0 0 -0.5713741875 0 0 -0.5713741875 
0 0 -0.5713741875 0 0 -0.5713741875 0 0 -0.5713741875 
0 0 -0.5713741875 0 0 -0.5713741875 0 0 -0.5713741875 
0 0 -0.5713741875 0 0 -0.5713741875 0 0 -0.5713741875 
0 0 -0.5713741875 0 0 -0.5713741875 0 0 -0.5713741875 
0 0 -0.5713741875 0 0 -0.5713741875 0 0 -0.5713741875 
0 0 -0.5713741875 0 0 -0.5713741875 0 0 -0.5713741875 
0 0 -0.5713741875 0 0 -0.5713741875 0 0 -0.5713741875 
0 0 -0.5713741875 0 0 -0.5713741875 0 0 -0.5713741875 
0 0 -0.5713741875 0 0 -0.4868741875 0 0 -0.5713741875 
0 0 -0.4511241875 0 0 -0.5713741875 0 0 -0.5713741875 
0 0 -0.5713741875 0 0 -0.5713741875 0 0 -0.5713741875 
0 0 -0.5713741875 0 0 -0.5713741875 0 0 -0.5713741875 
0 0 -0.4868741875 0 0 -0.5713741875 0 0 -0.5713741875 
0 0 -0.5161241875 0 0 -0.5713741875 0 0 -0.5713741875 
0 0 -0.4218741875 0 0 -0.5713741875 0 0 -0.5713741875 
0 0 -0.5713741875 0 0 -0.5713741875 0 0 -0.5713741875 
0 0 -0.5096241875 0 0 -0.5713741875 0 0 -0.5713741875 
0 0 -0.5713741875 0 0 -0.5713741875 0 0 -0.5713741875 
0 0 -0.5713741875 0 0 -0.5713741875 0 0 -0.5713741875 
0 0 -0.5713741875 0 0 -0.5713741875 0 0 -0.5713741875 
0 0 -0.5713741875 0 0 -0.5713741875 0 0 -0.4706241875 
0 0 -0.4478741875 0 0 -0.5518741875 0 0 -0.5583741875 
0 0 -0.5713741875 0 0 -0.5713741875 0 0 -0.5713741875 
0 0 -0.5713741875 0 0 -0.5713741875 0 0 -0.5713741875 
0 0 -0.5713741875 0 0 -0.4413741875 0 0 -0.4836241875 
0 0 -0.5713741875 0 0 -0.5713741875 0 0 -0.5713741875 
0 0 -0.5713741875 0 0 -0.5096241875 0 0 -0.5713741875 
0 0 -0.5713741875 0 0 -0.5713741875 0 0 -0.5713741875 
0 0 -0.5713741875 0 0 -0.5713741875 0 0 -0.5713741875 
0 0 -0.5713741875 0 0 -0.5713741875 0 0 -0.5713741875 
0 0 -0.5713741875 0 0 -0.5713741875 0 0 -0.5713741875 
0 0 -0.5713741875 0 0 -0.5713741875 0 0 -0.5583741875 
0 0 -0.5713741875 0 0 -0.4283741875 0 0 -0.5713741875 
0 0 -0.4088741875 0 0 -0.5713741875 0 0 -0.5713741875 
0 0 -0.5713741875 0 0 -0.5713741875 0 0 -0.5713741875 
0 0 -0.5713741875 0 0 -0.5713741875 0 0 -0.5713741875 
0 0 -0.5713741875 0 0 -0.3828741875 0 0 -0.5713741875 
0 0 -0.5713741875 0 0 -0.4933741875 0 0 -0.5713741875 
0 0 -0.5713741875 0 0 -0.5713741875 0 0 -0.5713741875 
0 0 -0.4186241875 0 0 -0.5713741875 0 0 -0.5713741875 
0 0 -0.3828741875 0 0 -0.5713741875 0 0 -0.5713741875 
0 0 -0.5713741875 0 0 -0.5713741875 0 0 -0.5713741875 
0 0 -0.5713741875 0 0 -0.4673741875 0 0 -0.5713741875 
0 0 -0.5713741875 0 0 -0.5713741875 0 0 -0.4316241875 
0 0 -0.5713741875 0 0 -0.5713741875 0 0 -0.5713741875 
0 0 -0.5713741875 0 0 -0.3861241875 0 0 -0.4803741875 
0 0 -0.5713741875 0 0 -0.5713741875 0 0 -0.5713741875 
0 0 -0.5713741875 0 0 -0.3926241875 0 0 -0.4348741875 
0 0 -0.3666241875 0 0 -0.5713741875 0 0 -0.5713741875 
0 0 -0.4803741875 0 0 -0.5713741875 0 0 -0.4023741875 
0 0 -0.3958741875 0 0 -0.4933741875 0 0 -0.4543741875 
0 0 -0.4283741875 0 0 -0.4088741875 0 0 -0.4121241875 
0 0 -0.3503741875 0 0 -0.5031241875 0 0 -0.4348741875 
0 0 -0.4933741875 0 0 -0.4446241875 0 0 -0.3958741875 
0 0 -0.4738741875 0 0 -0.4706241875 0 0 -0.4576241875 
0 0 -0.4381241875 0 0 -0.4153741875 0 0 -0.3796241875 
0 0 -0.3633741875 0 0 -0.4023741875 0 0 -0.4023741875 
0 0 -0.3503741875 0 0 -0.5031241875 0 0 -0.3308741875 
0 0 -0.4121241875 0 0 -0.3471241875 0 0 -0.4218741875 
0 0 -0.5096241875 0 0 -0.3276241875 0 0 -0.3731241875 
0 0 -0.4316241875 0 0 -0.3991241875 0 0 -0.4446241875 
0 0 -0.4608741875 0 0 -0.3503741875 0 0 -0.5031241875 
0 0 -0.3406241875 0 0 -0.4186241875 0 0 -0.4316241875 
0 0 -0.3633741875 0 0 -0.4218741875 0 0 -0.4543741875 
0 0 -0.3406241875 0 0 -0.4186241875 0 0 -0.3763741875 
0 0 -0.3926241875 0 0 -0.3471241875 0 0 -0.3471241875 
0 0 -0.3763741875 0 0 -0.3698741875 0 0 -0.3503741875 
0 0 -0.3438741875 0 0 -0.3341241875 0 0 -0.3731241875 
0 0 -0.3893741875 0 0 -0.3373741875 0 0 -0.3893741875 
0 0 -0.4251241875 0 0 -0.3731241875 0 0 -0.4511241875 
0 0 -0.3861241875 0 0 -0.4283741875 0 0 -0.4608741875 
0 0 -0.3926241875 0 0 -0.4511241875 0 0 -0.4023741875 
0 0 -0.3763741875 0 0 -0.3601241875 0 0 -0.3341241875 
0 0 -0.3926241875 0 0 -0.4446241875 0 0 -0.3308741875 
0 0 -0.3633741875 0 0 -0.4251241875 0 0 -0.3406241875 
0 0 -0.3828741875 0 0 -0.4251241875 0 0 -0.3438741875 
0 0 -0.3406241875 0 0 -0.3341241875 0 0 -0.4413741875 
0 0 -0.3568741875 0 0 -0.3406241875 0 0 -0.3991241875 
0 0 -0.3991241875 0 0 -0.3536241875 0 0 -0.3601241875 
0 0 -0.3406241875 0 0 -0.3666241875 0 0 -0.3276241875 
0 0 -0.3276241875 0 0 -0.4056241875 0 0 -0.3568741875 
0 0 -0.3276241875 0 0 -0.3373741875 0 0 -0.3893741875 
0 0 -0.3861241875 0 0 -0.3633741875 0 0 -0.3893741875 
0 0 -0.3438741875 0 0 -0.3276241875 0 0 -0.3633741875 
0 0 -0.3276241875 0 0 -0.3406241875 0 0 -0.3373741875 
0 0 -0.3341241875 0 0 -0.3438741875 0 0 -0.3308741875 
0 0 -0.3406241875 0 0 -0.3308741875 0 0 -0.3276241875 

f 3 648 double
0 0 -1.7425367252e-10 0 0 -1.7425367252e-10 0 0 -1.7425367252e-10 
0 0 -1.7425367252e-10 0 0 -1.7425367252e-10 0 0 -1.7425367252e-10 
0 0 -1.7425367252e-10 0 0 -1.7425367252e-10 0 0 -1.7425367252e-10 
0 0 -1.7425367252e-10 0 0 -1.7425367252e-10 0 0 -1.7425367252e-10 
0 0 -1.7425367252e-10 0 0 -1.7425367252e-10 0 0 -1.7425367252e-10 
0 0 -1.7425367252e-10 0 0 -1.7425367252e-10 0 0 -1.7425367252e-10 
0 0 -1.7425367252e-10 0 0 -1.7425367252e-10 0 0 -1.7425367252e-10 
0 0 -1.7425367252e-10 0 0 -1.7425367252e-10 0 0 -1.7425367252e-10 
0 0 -1.7425367252e-10 0 0 -1.7425367252e-10 0 0 -1.7425367252e-10 
0 0 -1.7425367252e-10 0 0 -1.7425367252e-10 0 0 -8.9019973083e-09 
0 0 -1.7425367252e-10 0 0 -1.7425367252e-10 0 0 -6.8918688838e-08 
0 0 -1.7425367252e-10 0 0 -1.7425367252e-10 0 0 -1.7425367252e-10 
0 0 -1.7425367252e-10 0 0 -8.9019973083e-09 0 0 -1.7425367252e-10 
0 0 -1.7425367252e-10 0 0 -1.7425367252e-10 0 0 -1.7425367252e-10 
0 0 -1.7425367252e-10 0 0 -1.7425367252e-10 0 0 -1.7425367252e-10 
0 0 -1.7425367252e-10 0 0 -1.7425367252e-10 0 0 -1.7425367252e-10 
0 0 -1.7425367252e-10 0 0 -1.7425367252e-10 0 0 -1.7425367252e-10 
0 0 -1.7425367252e-10 0 0 -1.7425367252e-10 0 0 -1.7425367252e-10 
0 0 -1.7425367252e-10 0 0 -1.7425367252e-10 0 0 -1.7425367252e-10 
0 0 -1.7425367252e-10 0 0 -1.7425367252e-10 0 0 -8.9019973083e-09 
0 0 -1.7425367252e-10 0 0 -1.7425367252e-10 0 0 -1.7425367252e-10 
0 0 -1.7425367252e-10 0 0 -1.7425367252e-10 0 0 -1.7425367252e-10 
0 0 -1.7425367252e-10 0 0 -1.7425367252e-10 0 0 -1.7425367252e-10 
0 0 -1.7425367252e-10 0 0 -1.7425367252e-10 0 0 -1.7425367252e-10 
0 0 -1.7425367252e-10 0 0 -1.7425367252e-10 0 0 -1.7425367252e-10 
0 0 -1.7425367252e-10 0 0 -1.7425367252e-10 0 0 -1.7425367252e-10 
0 0 -1.7425367252e-10 0 0 -1.7425367252e-10 0 0 -1.7425367252e-10 
0 0 -1.7425367252e-10 0 0 -1.7425367252e-10 0 0 -1.7425367252e-10 
0 0 -1.7425367252e-10 0 0 -1.7425367252e-10 0 0 -1.7425367252e-10 
0 0 -1.7425367252e-10 0 0 -1.7425367252e-10 0 0 -1.7425367252e-10 
0 0 -1.7425367252e-10 0 0 -1.7425367252e-10 0 0 -1.7425367252e-10 
0 0 -1.7425367252e-10 0 0 -1.7425367252e-10 0 0 -1.7425367252e-10 
0 0 -1.7425367252e-10 0 0 -1.7425367252e-10 0 0 -1.7425367252e-10 
0 0 -1.7425367252e-10 0 0 -1.7425367252e-10 0 0 -8.9019973083e-09 
0 0 -1.7425367252e-10 0 0 -1.7425367252e-10 0 0 -1.7425367252e-10 
0 0 -1.7425367252e-10 0 0 -1.7425367252e-10 0 0 -1.7425367252e-10 
0 0 -1.7425367252e-10 0 0 -1.7425367252e-10 0 0 -1.7425367252e-10 
0 0 -1.7425367252e-10 0 0 -1.7425367252e-10 0 0 -1.7425367252e-10 
0 0 -1.7425367252e-10 0 0 -1.7425367252e-10 0 0 -1.7425367252e-10 
0 0 -1.7425367252e-10 0 0 -1.7425367252e-10 0 0 -1.7425367252e-10 
0 0 -1.7425367252e-10 0 0 -1.7425367252e-10 0 0 -1.7425367252e-10 
0 0 -8.9019973083e-09 0 0 -1.7425367252e-10 0 0 -1.7425367252e-10 
0 0 -1.7425367252e-10 0 0 -1.7425367252e-10 0 0 -1.7425367252e-10 
0 0 -1.7425367252e-10 0 0 -1.7425367252e-10 0 0 -1.7425367252e-10 
0 0 -1.7425367252e-10 0 0 -1.7425367252e-10 0 0 -1.7425367252e-10 
0 0 -1.7425367252e-10 0 0 -1.7425367252e-10 0 0 -1.7425367252e-10 
0 0 -1.7425367252e-10 0 0 -1.7425367252e-10 0 0 -1.7425367252e-10 
0 0 -1.7425367252e-10 0 0 -1.7425367252e-10 0 0 -1.7425367252e-10 
0 0 -1.7425367252e-10 0 0 -1.7425367252e-10 0 0 -1.7425367252e-10 
0 0 -1.7425367252e-10 0 0 -1.7425367252e-10 0 0 -1.7425367252e-10 
0 0 -1.7425367252e-10 0 0 -8.9019973083e-09 0 0 -1.7425367252e-10 
0 0 -1.7425367252e-10 0 0 -8.9019973083e-09 0 0 -1.7425367252e-10 
0 0 -1.7425367252e-10 0 0 -1.7425367252e-10 0 0 -1.7425367252e-10 
0 0 -1.7425367252e-10 0 0 -1.7425367252e-10 0 0 -1.7425367252e-10 
0 0 -1.7425367252e-10 0 0 -1.7425367252e-10 0 0 -1.7425367252e-10 
0 0 -1.7425367252e-10 0 0 -1.7425367252e-10 0 0 -1.7425367252e-10 
0 0 -1.7425367252e-10 0 0 -1.7425367252e-10 0 0 -1.7425367252e-10 
0 0 -1.7425367252e-10 0 0 -1.7425367252e-10 0 0 -1.7425367252e-10 
0 0 -1.7425367252e-10 0 0 -1.7425367252e-10 0 0 -1.7425367252e-10 
0 0 -1.7425367252e-10 0 0 -1.7425367252e-10 0 0 -8.9019973083e-09 
0 0 -1.7425367252e-10 0 0 -1.7425367252e-10 0 0 -1.7425367252e-10 
0 0 -1.7425367252e-10 0 0 -1.7425367252e-10 0 0 -1.7425367252e-10 
0 0 -1.7425367252e-10 0 0 -1.7425367252e-10 0 0 -1.7425367252e-10 
0 0 -1.7425367252e-10 0 0 -1.7425367252e-10 0 0 -1.7425367252e-10 
0 0 -1.7425367252e-10 0 0 -1.7425367252e-10 0 0 -1.7425367252e-10 
0 0 -1.7425367252e-10 0 0 -1.7425367252e-10 0 0 -1.7425367252e-10 
0 0 -1.7425367252e-10 0 0 -1.7425367252e-10 0 0 -1.7425367252e-10 
0 0 -1.7425367252e-10 0 0 -1.7425367252e-10 0 0 -1.7425367252e-10 
0 0 -8.9019973083e-09 0 0 -1.7425367252e-10 0 0 -1.7425367252e-10 
0 0 -1.7425367252e-10 0 0 -1.7425367252e-10 0 0 -1.7425367252e-10 
0 0 -1.7425367252e-10 0 0 -1.7425367252e-10 0 0 -1.7425367252e-10 
0 0 -1.7425367252e-10 0 0 -8.9019973083e-09 0 0 -1.7425367252e-10 
0 0 -1.7425367252e-10 0 0 -1.7425367252e-10 0 0 -1.7425367252e-10 
0 0 -1.7425367252e-10 0 0 -1.7425367252e-10 0 0 -1.7425367252e-10 
0 0 -1.7425367252e-10 0 0 -1.7425367252e-10 0 0 -1.7425367252e-10 
0 0 -1.7425367252e-10 0 0 -1.7425367252e-10 0 0 -1.7425367252e-10 
0 0 -1.7425367252e-10 0 0 -1.7425367252e-10 0 0 -1.7425367252e-10 
0 0 -1.7425367252e-10 0 0 -1.7425367252e-10 0 0 -8.9019973083e-09 
0 0 -1.7425367252e-10 0 0 -1.7425367252e-10 0 0 -1.7425367252e-10 
0 0 -1.7425367252e-10 0 0 -1.7425367252e-10 0 0 -8.9019973083e-09 
0 0 -1.7425367252e-10 0 0 -1.7425367252e-10 0 0 -1.7425367252e-10 
0 0 -1.7425367252e-10 0 0 -1.7425367252e-10 0 0 -1.7425367252e-10 
0 0 -1.7425367252e-10 0 0 -1.7425367252e-10 0 0 -1.7425367252e-10 
0 0 -1.7425367252e-10 0 0 -1.7425367252e-10 0 0 -1.7425367252e-10 
0 0 -1.7425367252e-10 0 0 -1.7425367252e-10 0 0 -1.7425367252e-10 
0 0 -1.7425367252e-10 0 0 -1.7425367252e-10 0 0 -1.7425367252e-10 
0 0 -1.7425367252e-10 0 0 -1.7425367252e-10 0 0 -1.7425367252e-10 
0 0 -1.7425367252e-10 0 0 -1.7425367252e-10 0 0 -1.7425367252e-10 
0 0 -1.7425367252e-10 0 0 -1.7425367252e-10 0 0 -1.7425367252e-10 
0 0 -1.7425367252e-10 0 0 -1.7425367252e-10 0 0 -1.7425367252e-10 
0 0 -1.7425367252e-10 0 0 -1.7425367252e-10 0 0 -1.7425367252e-10 
0 0 -1.7425367252e-10 0 0 -1.7425367252e-10 0 0 -1.7425367252e-10 
0 0 -1.7425367252e-10 0 0 -1.7425367252e-10 0 0 -1.7425367252e-10 
0 0 -1.7425367252e-10 0 0 -1.7425367252e-10 0 0 -1.7425367252e-10 
0 0 -1.7425367252e-10 0 0 -1.7425367252e-10 0 0 -1.7425367252e-10 
0 0 -1.7425367252e-10 0 0 -1.7425367252e-10 0 0 -1.7425367252e-10 
0 0 -1.7425367252e-10 0 0 -1.7425367252e-10 0 0 -1.7425367252e-10 
0 0 -1.7425367252e-10 0 0 -1.7425367252e-10 0 0 -1.7425367252e-10 
0 0 -1.7425367252e-10 0 0 -1.7425367252e-10 0 0 -1.7425367252e-10 
0 0 -1.7425367252e-10 0 0 -1.7425367252e-10 0 0 -1.7425367252e-10 
0 0 -1.7425367252e-10 0 0 -1.7425367252e-10 0 0 -1.7425367252e-10 
0 0 -1.7425367252e-10 0 0 -1.7425367252e-10 0 0 -1.7425367252e-10 
0 0 -1.7425367252e-10 0 0 -1.7425367252e-10 0 0 -1.7425367252e-10 
0 0 -1.7425367252e-10 0 0 -1.7425367252e-10 0 0 -1.7425367252e-10 
0 0 -1.7425367252e-10 0 0 -1.7425367252e-10 0 0 -1.7425367252e-10 
0 0 -1.7425367252e-10 0 0 -1.7425367252e-10 0 0 -1.7425367252e-10 
0 0 -1.7425367252e-10 0 0 -1.7425367252e-10 0 0 -1.7425367252e-10 
0 0 -1.7425367252e-10 0 0 -1.7425367252e-10 0 0 -1.7425367252e-10 
0 0 -1.7425367252e-10 0 0 -1.7425367252e-10 0 0 -1.7425367252e-10 
0 0 -1.7425367252e-10 0 0 -1.7425367252e-10 0 0 -1.7425367252e-10 
0 0 -1.7425367252e-10 0 0 -1.7425367252e-10 0 0 -1.7425367252e-10 
0 0 -1.7425367252e-10 0 0 -1.7425367252e-10 0 0 -1.7425367252e-10 
0 0 -1.7425367252e-10 0 0 -1.7425367252e-10 0 0 -1.7425367252e-10 
0 0 -1.7425367252e-10 0 0 -1.7425367252e-10 0 0 -1.7425367252e-10 
0 0 -1.7425367252e-10 0 0 -1.7425367252e-10 0 0 -1.7425367252e-10 
0 0 -1.7425367252e-10 0 0 -5.3297119368e-07 0 0 -1.7425367252e-10 
0 0 -1.7425367252e-10 0 0 -1.7425367252e-10 0 0 -1.7425367252e-10 
0 0 -1.7425367252e-10 0 0 -1.7425367252e-10 0 0 -1.7425367252e-10 
0 0 -1.7425367252e-10 0 0 -1.7425367252e-10 0 0 -1.7425367252e-10 
0 0 -1.7425367252e-10 0 0 -1.7425367252e-10 0 0 -1.7425367252e-10 
0 0 -1.7425367252e-10 0 0 -1.7425367252e-10 0 0 -1.7425367252e-10 
0 0 -1.7425367252e-10 0 0 -1.7425367252e-10 0 0 -1.7425367252e-10 
0 0 -1.7425367252e-10 0 0 -1.7425367252e-10 0 0 -1.7425367252e-10 
0 0 -1.7425367252e-10 0 0 -1.7425367252e-10 0 0 -1.7425367252e-10 
0 0 -1.7425367252e-10 0 0 -1.7425367252e-10 0 0 -1.7425367252e-10 
0 0 -1.7425367252e-10 0 0 -1.7425367252e-10 0 0 -1.7425367252e-10 
0 0 -1.7425367252e-10 0 0 -1.7425367252e-10 0 0 -1.7425367252e-10 
0 0 -1.7425367252e-10 0 0 -1.7425367252e-10 0 0 -1.7425367252e-10 
0 0 -1.7425367252e-10 0 0 -1.7425367252e-10 0 0 -1.7425367252e-10 
0 0 -1.7425367252e-10 0 0 -1.7425367252e-10 0 0 -1.7425367252e-10 
0 0 -1.7425367252e-10 0 0 -1.7425367252e-10 0 0 -1.7425367252e-10 
0 0 -1.7425367252e-10 0 0 -1.7425367252e-10 0 0 -1.7425367252e-10 
0 0 -1.7425367252e-10 0 0 -1.7425367252e-10 0 0 -1.7425367252e-10 
0 0 -1.7425367252e-10 0 0 -1.7425367252e-10 0 0 -1.7425367252e-10 
0 0 -1.7425367252e-10 0 0 -1.7425367252e-10 0 0 -1.7425367252e-10 
0 0 -8.9019973083e-09 0 0 -1.7425367252e-10 0 0 -1.7425367252e-10 
0 0 -1.7425367252e-10 0 0 -1.7425367252e-10 0 0 -1.7425367252e-10 
0 0 -8.9019973083e-09 0 0 -1.7425367252e-10 0 0 -1.7425367252e-10 
0 0 -1.7425367252e-10 0 0 -1.7425367252e-10 0 0 -1.7425367252e-10 
0 0 -1.7425367252e-10 0 0 -1.7425367252e-10 0 0 -1.7425367252e-10 
0 0 -1.7425367252e-10 0 0 -1.7425367252e-10 0 0 -1.7425367252e-10 
0 0 -1.7425367252e-10 0 0 -1.7425367252e-10 0 0 -1.7425367252e-10 
0 0 -1.7425367252e-10 0 0 -1.7425367252e-10 0 0 -1.7425367252e-10 
0 0 -1.7425367252e-10 0 0 -1.7425367252e-10 0 0 -1.7425367252e-10 
0 0 -1.7425367252e-10 0 0 -1.7425367252e-10 0 0 -1.7425367252e-10 
0 0 -1.7425367252e-10 0 0 -1.7425367252e-10 0 0 -1.7425367252e-10 
0 0 -1.7425367252e-10 0 0 -1.7425367252e-10 0 0 -1.7425367252e-10 
0 0 -1.7425367252e-10 0 0 -1.7425367252e-10 0 0 -1.7425367252e-10 
0 0 -1.7425367252e-10 0 0 -1.7425367252e-10 0 0 -1.7425367252e-10 
0 0 -1.7425367252e-10 0 0 -1.7425367252e-10 0 0 -1.7425367252e-10 
0 0 -1.7425367252e-10 0 0 -1.7425367252e-10 0 0 -1.7425367252e-10 
0 0 -1.7425367252e-10 0 0 -1.7425367252e-10 0 0 -1.7425367252e-10 
0 0 -1.7425367252e-10 0 0 -1.7425367252e-10 0 0 -1.7425367252e-10 
0 0 -1.7425367252e-10 0 0 -1.7425367252e-10 0 0 -1.7425367252e-10 
0 0 -1.7425367252e-10 0 0 -1.7425367252e-10 0 0 -1.7425367252e-10 
0 0 -1.7425367252e-10 0 0 -1.7425367252e-10 0 0 -1.7425367252e-10 
0 0 -1.7425367252e-10 0 0 -1.7425367252e-10 0 0 -1.7425367252e-10 
0 0 -1.7425367252e-10 0 0 -1.7425367252e-10 0 0 -1.7425367252e-10 
0 0 -1.7425367252e-10 0 0 -1.7425367252e-10 0 0 -1.7425367252e-10 
0 0 -1.7425367252e-10 0 0 -1.7425367252e-10 0 0 -1.7425367252e-10 
0 0 -1.7425367252e-10 0 0 -1.7425367252e-10 0 0 -1.7425367252e-10 
0 0 -1.7425367252e-10 0 0 -1.7425367252e-10 0 0 -1.7425367252e-10 
0 0 -1.7425367252e-10 0 0 -1.7425367252e-10 0 0 -1.7425367252e-10 
0 0 -1.7425367252e-10 0 0 -1.7425367252e-10 0 0 -1.7425367252e-10 
0 0 -1.7425367252e-10 0 0 -1.7425367252e-10 0 0 -1.7425367252e-10 
0 0 -1.7425367252e-10 0 0 -1.7425367252e-10 0 0 -1.7425367252e-10 
0 0 -1.7425367252e-10 0 0 -8.9019973083e-09 0 0 -1.7425367252e-10 
0 0 -1.7425367252e-10 0 0 -1.7425367252e-10 0 0 -1.7425367252e-10 
0 0 -1.7425367252e-10 0 0 -1.7425367252e-10 0 0 -1.7425367252e-10 
0 0 -1.7425367252e-10 0 0 -1.7425367252e-10 0 0 -1.7425367252e-10 
0 0 -1.7425367252e-10 0 0 -1.7425367252e-10 0 0 -1.7425367252e-10 
0 0 -1.7425367252e-10 0 0 -1.7425367252e-10 0 0 -1.7425367252e-10 
0 0 -1.7425367252e-10 0 0 -1.7425367252e-10 0 0 -1.7425367252e-10 
0 0 -1.7425367252e-10 0 0 -1.7425367252e-10 0 0 -1.7425367252e-10 
0 0 -1.7425367252e-10 0 0 -1.7425367252e-10 0 0 -1.7425367252e-10 
0 0 -1.7425367252e-10 0 0 -1.7425367252e-10 0 0 -1.7425367252e-10 
0 0 -1.7425367252e-10 0 0 -1.7425367252e-10 0 0 -1.7425367252e-10 
0 0 -1.7425367252e-10 0 0 -1.7425367252e-10 0 0 -1.7425367252e-10 
0 0 -1.7425367252e-10 0 0 -1.7425367252e-10 0 0 -1.7425367252e-10 
0 0 -1.7425367252e-10 0 0 -1.7425367252e-10 0 0 -1.7425367252e-10 
0 0 -1.7425367252e-10 0 0 -1.7425367252e-10 0 0 -1.7425367252e-10 
0 0 -1.7425367252e-10 0 0 -1.7425367252e-10 0 0 -1.7425367252e-10 
0 0 -1.7425367252e-10 0 0 -1.7425367252e-10 0 0 -1.7425367252e-10 
0 0 -1.7425367252e-10 0 0 -1.7425367252e-10 0 0 -1.7425367252e-10 
0 0 -1.7425367252e-10 0 0 -1.7425367252e-10 0 0 -1.7425367252e-10 
0 0 -1.7425367252e-10 0 0 -1.7425367252e-10 0 0 -1.7425367252e-10 
0 0 -1.7425367252e-10 0 0 -1.7425367252e-10 0 0 -1.7425367252e-10 
0 0 -1.7425367252e-10 0 0 -1.7425367252e-10 0 0 -1.7425367252e-10 
0 0 -1.7425367252e-10 0 0 -1.7425367252e-10 0 0 -1.7425367252e-10 
0 0 -1.7425367252e-10 0 0 -1.7425367252e-10 0 0 -1.7425367252e-10 
0 0 -1.7425367252e-10 0 0 -1.7425367252e-10 0 0 -8.9019973083e-09 
0 0 -1.7425367252e-10 0 0 -1.7425367252e-10 0 0 -1.7425367252e-10 
0 0 -1.7425367252e-10 0 0 -1.7425367252e-10 0 0 -1.7425367252e-10 
0 0 -1.7425367252e-10 0 0 -1.7425367252e-10 0 0 -1.7425367252e-10 
0 0 -1.7425367252e-10 0 0 -1.7425367252e-10 0 0 -1.7425367252e-10 
0 0 -1.7425367252e-10 0 0 -1.7425367252e-10 0 0 -1.7425367252e-10 
0 0 -1.7425367252e-10 0 0 -1.7425367252e-10 0 0 -1.7425367252e-10 
0 0 -1.7425367252e-10 0 0 -1.7425367252e-10 0 0 -1.7425367252e-10 
0 0 -1.7425367252e-10 0 0 -1.7425367252e-10 0 0 -1.7425367252e-10 
0 0 -1.7425367252e-10 0 0 -1.7425367252e-10 0 0 -1.7425367252e-10 
0 0 -1.7425367252e-10 0 0 -1.7425367252e-10 0 0 -1.7425367252e-10 
0 0 -1.7425367252e-10 0 0 -1.7425367252e-10 0 0 -1.7425367252e-10 
0 0 -1.7425367252e-10 0 0 -1.7425367252e-10 0 0 -1.7425367252e-10 
0 0 -1.7425367252e-10 0 0 -1.7425367252e-10 0 0 -1.7425367252e-10 
0 0 -1.7425367252e-10 0 0 -1.7425367252e-10 0 0 -1.7425367252e-10 
0 0 -1.7425367252e-10 0 0 -8.9019973083e-09 0 0 -1.7425367252e-10 
0 0 -1.7425367252e-10 0 0 -1.7425367252e-10 0 0 -1.7425367252e-10 
0 0 -1.7425367252e-10 0 0 -1.7425367252e-10 0 0 -1.7425367252e-10 
0 0 -1.7425367252e-10 0 0 -1.7425367252e-10 0 0 -1.7425367252e-10 
0 0 -1.7425367252e-10 0 0 -1.7425367252e-10 0 0 -1.7425367252e-10 
0 0 -1.7425367252e-10 0 0 -1.7425367252e-10 0 0 -1.7425367252e-10 
0 0 -1.7425367252e-10 0 0 -1.7425367252e-10 0 0 -1.7425367252e-10 
0 0 -1.7425367252e-10 0 0 -1.7425367252e-10 0 0 -1.7425367252e-10 
0 0 -1.7425367252e-10 0 0 -1.7425367252e-10 0 0 -1.7425367252e-10 
0 0 -1.7425367252e-10 0 0 -1.7425367252e-10 0 0 -1.7425367252e-10 
0 0 -1.7425367252e-10 0 0 -1.7425367252e-10 0 0 -1.7425367252e-10 

radius 1 648 double
2e-05 2e-05 2e-05 2e-05 2e-05 2e-05 2e-05 2e-05 2e-05 
2e-05 2e-05 2e-05 2e-05 2e-05 2e-05 2e-05 2e-05 2e-05 
2e-05 2e-05 2e-05 2e-05 2e-05 2e-05 2e-05 2e-05 2e-05 
2e-05 2e-05 7.5e-05 2e-05 2e-05 0.00015 2e-05 2e-05 2e-05 
2e-05 7.5e-05 2e-05 2e-05 2e-05 2e-05 2e-05 2e-05 2e-05 
2e-05 2e-05 2e-05 2e-05 2e-05 2e-05 2e-05 2e-05 2e-05 
2e-05 2e-05 2e-05 2e-05 2e-05 7.5e-05 2e-05 2e-05 2e-05 
2e-05 2e-05 2e-05 2e-05 2e-05 2e-05 2e-05 2e-05 2e-05 
2e-05 2e-05 2e-05 2e-05 2e-05 2e-05 2e-05 2e-05 2e-05 
2e-05 2e-05 2e-05 2e-05 2e-05 2e-05 2e-05 2e-05 2e-05 
2e-05 2e-05 2e-05 2e-05 2e-05 2e-05 2e-05 2e-05 2e-05 
2e-05 2e-05 7.5e-05 2e-05 2e-05 2e-05 2e-05 2e-05 2e-05 
2e-05 2e-05 2e-05 2e-05 2e-05 2e-05 2e-05 2e-05 2e-05 
2e-05 2e-05 2e-05 2e-05 2e-05 2e-05 7.5e-05 2e-05 2e-05 
2e-05 2e-05 2e-05 2e-05 2e-05 2e-05 2e-05 2e-05 2e-05 
2e-05 2e-05 2e-05 2e-05 2e-05 2e-05 2e-05 2e-05 2e-05 
2e-05 2e-05 2e-05 2e-05 2e-05 2e-05 2e-05 7.5e-05 2e-05 
2e-05 7.5e-05 2e-05 2e-05 2e-05 2e-05 2e-05 2e-05 2e-05 
2e-05 2e-05 2e-05 2e-05 2e-05 2e-05 2e-05 2e-05 2e-05 
2e-05 2e-05 2e-05 2e-05 2e-05 2e-05 2e-05 2e-05 7.5e-05 
2e-05 2e-05 2e-05 2e-05 2e-05 2e-05 2e-05 2e-05 2e-05 
2e-05 2e-05 2e-05 2e-05 2e-05 2e-05 2e-05 2e-05 2e-05 
2e-05 2e-05 2e-05 2e-05 2e-05 2e-05 7.5e-05 2e-05 2e-05 
2e-05 2e-05 2e-05 2e-05 2e-05 2e-05 2e-05 7.5e-05 2e-05 
2e-05 2e-05 2e-05 2e-05 2e-05 2e-05 2e-05 2e-05 2e-05 
2e-05 2e-05 2e-05 2e-05 2e-05 2e-05 2e-05 2e-05 7.5e-05 
2e-05 2e-05 2e-05 2e-05 2e-05 7.5e-05 2e-05 2e-05 2e-05 
2e-05 2e-05 2e-05 2e-05 2e-05 2e-05 2e-05 2e-05 2e-05 
2e-05 2e-05 2e-05 2e-05 2e-05 2e-05 2e-05 2e-05 2e-05 
2e-05 2e-05 2e-05 2e-05 2e-05 2e-05 2e-05 2e-05 2e-05 
2e-05 2e-05 2e-05 2e-05 2e-05 2e-05 2e-05 2e-05 2e-05 
2e-05 2e-05 2e-05 2e-05 2e-05 2e-05 2e-05 2e-05 2e-05 
2e-05 2e-05 2e-05 2e-05 2e-05 2e-05 2e-05 2e-05 2e-05 
2e-05 2e-05 2e-05 2e-05 2e-05 2e-05 2e-05 2e-05 2e-05 
2e-05 2e-05 2e-05 2e-05 2e-05 2e-05 2e-05 2e-05 2e-05 
2e-05 2e-05 2e-05 2e-05 2e-05 2e-05 2e-05 2e-05 2e-05 
2e-05 2e-05 2e-05 2e-05 2e-05 2e-05 2e-05 2e-05 2e-05 
2e-05 2e-05 2e-05 2e-05 2e-05 2e-05 2e-05 2e-05 2e-05 
2e-05 2e-05 2e-05 2e-05 0.0003 2e-05 2e-05 2e-05 2e-05 
2e-05 2e-05 2e-05 2e-05 2e-05 2e-05 2e-05 2e-05 2e-05 
2e-05 2e-05 2e-05 2e-05 2e-05 2e-05 2e-05 2e-05 2e-05 
2e-05 2e-05 2e-05 2e-05 2e-05 2e-05 2e-05 2e-05 2e-05 
2e-05 2e-05 2e-05 2e-05 2e-05 2e-05 2e-05 2e-05 2e-05 
2e-05 2e-05 2e-05 2e-05 2e-05 2e-05 2e-05 2e-05 2e-05 
2e-05 2e-05 2e-05 2e-05 2e-05 2e-05 2e-05 2e-05 2e-05 
7.5e-05 2e-05 2e-05 2e-05 2e-05 2e-05 7.5e-05 2e-05 2e-05 
2e-05 2e-05 2e-05 2e-05 2e-05 2e-05 2e-05 2e-05 2e-05 
2e-05 2e-05 2e-05 2e-05 2e-05 2e-05 2e-05 2e-05 2e-05 
2e-05 2e-05 2e-05 2e-05 2e-05 2e-05 2e-05 2e-05 2e-05 
2e-05 2e-05 2e-05 2e-05 2e-05 2e-05 2e-05 2e-05 2e-05 
2e-05 2e-05 2e-05 2e-05 2e-05 2e-05 2e-05 2e-05 2e-05 
2e-05 2e-05 2e-05 2e-05 2e-05 2e-05 2e-05 2e-05 2e-05 
2e-05 2e-05 2e-05 2e-05 2e-05 2e-05 2e-05 2e-05 2e-05 
2e-05 2e-05 2e-05 2e-05 2e-05 2e-05 2e-05 2e-05 2e-05 
2e-05 2e-05 2e-05 2e-05 2e-05 2e-05 2e-05 2e-05 2e-05 
2e-05 2e-05 2e-05 2e-05 7.5e-05 2e-05 2e-05 2e-05 2e-05 
2e-05 2e-05 2e-05 2e-05 2e-05 2e-05 2e-05 2e-05 2e-05 
2e-05 2e-05 2e-05 2e-05 2e-05 2e-05 2e-05 2e-05 2e-05 
2e-05 2e-05 2e-05 2e-05 2e-05 2e-05 2e-05 2e-05 2e-05 
2e-05 2e-05 2e-05 2e-05 2e-05 2e-05 2e-05 2e-05 2e-05 
2e-05 2e-05 2e-05 2e-05 2e-05 2e-05 2e-05 2e-05 2e-05 
2e-05 2e-05 2e-05 2e-05 2e-05 2e-05 2e-05 2e-05 2e-05 
2e-05 2e-05 2e-05 2e-05 2e-05 2e-05 2e-05 2e-05 2e-05 
2e-05 2e-05 2e-05 2e-05 2e-05 7.5e-05 2e-05 2e-05 2e-05 
2e-05 2e-05 2e-05 2e-05 2e-05 2e-05 2e-05 2e-05 2e-05 
2e-05 2e-05 2e-05 2e-05 2e-05 2e-05 2e-05 2e-05 2e-05 
2e-05 2e-05 2e-05 2e-05 2e-05 2e-05 2e-05 2e-05 2e-05 
2e-05 2e-05 2e-05 2e-05 2e-05 2e-05 2e-05 2e-05 2e-05 
2e-05 2e-05 2e-05 2e-05 7.5e-05 2e-05 2e-05 2e-05 2e-05 
2e-05 2e-05 2e-05 2e-05 2e-05 2e-05 2e-05 2e-05 2e-05 
2e-05 2e-05 2e-05 2e-05 2e-05 2e-05 2e-05 2e-05 2e-05 
2e-05 2e-05 2e-05 2e-05 2e-05 2e-05 2e-05 2e-05 2e-05 

omega 3 648 double
0 0 0 0 0 0 0 0 0 
0 0 0 0 0 0 0 0 0 
0 0 0 0 0 0 0 0 0 
0 0 0 0 0 0 0 0 0 
0 0 0 0 0 0 0 0 0 
0 0 0 0 0 0 0 0 0 
0 0 0 0 0 0 0 0 0 
0 0 0 0 0 0 0 0 0 
0 0 0 0 0 0 0 0 0 
0 0 0 0 0 0 0 0 0 
0 0 0 0 0 0 0 0 0 
0 0 0 0 0 0 0 0 0 
0 0 0 0 0 0 0 0 0 
0 0 0 0 0 0 0 0 0 
0 0 0 0 0 0 0 0 0 
0 0 0 0 0 0 0 0 0 
0 0 0 0 0 0 0 0 0 
0 0 0 0 0 0 0 0 0 
0 0 0 0 0 0 0 0 0 
0 0 0 0 0 0 0 0 0 
0 0 0 0 0 0 0 0 0 
0 0 0 0 0 0 0 0 0 
0 0 0 0 0 0 0 0 0 
0 0 0 0 0 0 0 0 0 
0 0 0 0 0 0 0 0 0 
0 0 0 0 0 0 0 0 0 
0 0 0 0 0 0 0 0 0 
0 0 0 0 0 0 0 0 0 
0 0 0 0 0 0 0 0 0 
0 0 0 0 0 0 0 0 0 
0 0 0 0 0 0 0 0 0 
0 0 0 0 0 0 0 0 0 
0 0 0 0 0 0 0 0 0 
0 0 0 0 0 0 0 0 0 
0 0 0 0 0 0 0 0 0 
0 0 0 0 0 0 0 0 0 
0 0 0 0 0 0 0 0 0 
0 0 0 0 0 0 0 0 0 
0 0 0 0 0 0 0 0 0 
0 0 0 0 0 0 0 0 0 
0 0 0 0 0 0 0 0 0 
0 0 0 0 0 0 0 0 0 
0 0 0 0 0 0 0 0 0 
0 0 0 0 0 0 0 0 0 
0 0 0 0 0 0 0 0 0 
0 0 0 0 0 0 0 0 0 
0 0 0 0 0 0 0 0 0 
0 0 0 0 0 0 0 0 0 
0 0 0 0 0 0 0 0 0 
0 0 0 0 0 0 0 0 0 
0 0 0 0 0 0 0 0 0 
0 0 0 0 0 0 0 0 0 
0 0 0 0 0 0 0 0 0 
0 0 0 0 0 0 0 0 0 
0 0 0 0 0 0 0 0 0 
0 0 0 0 0 0 0 0 0 
0 0 0 0 0 0 0 0 0 
0 0 0 0 0 0 0 0 0 
0 0 0 0 0 0 0 0 0 
0 0 0 0 0 0 0 0 0 
0 0 0 0 0 0 0 0 0 
0 0 0 0 0 0 0 0 0 
0 0 0 0 0 0 0 0 0 
0 0 0 0 0 0 0 0 0 
0 0 0 0 0 0 0 0 0 
0 0 0 0 0 0 0 0 0 
0 0 0 0 0 0 0 0 0 
0 0 0 0 0 0 0 0 0 
0 0 0 0 0 0 0 0 0 
0 0 0 0 0 0 0 0 0 
0 0 0 0 0 0 0 0 0 
0 0 0 0 0 0 0 0 0 
0 0 0 0 0 0 0 0 0 
0 0 0 0 0 0 0 0 0 
0 0 0 0 0 0 0 0 0 
0 0 0 0 0 0 0 0 0 
0 0 0 0 0 0 0 0 0 
0 0 0 0 0 0 0 0 0 
0 0 0 0 0 0 0 0 0 
0 0 0 0 0 0 0 0 0 
0 0 0 0 0 0 0 0 0 
0 0 0 0 0 0 0 0 0 
0 0 0 0 0 0 0 0 0 
0 0 0 0 0 0 0 0 0 
0 0 0 0 0 0 0 0 0 
0 0 0 0 0 0 0 0 0 
0 0 0 0 0 0 0 0 0 
0 0 0 0 0 0 0 0 0 
0 0 0 0 0 0 0 0 0 
0 0 0 0 0 0 0 0 0 
0 0 0 0 0 0 0 0 0 
0 0 0 0 0 0 0 0 0 
0 0 0 0 0 0 0 0 0 
0 0 0 0 0 0 0 0 0 
0 0 0 0 0 0 0 0 0 
0 0 0 0 0 0 0 0 0 
0 0 0 0 0 0 0 0 0 
0 0 0 0 0 0 0 0 0 
0 0 0 0 0 0 0 0 0 
0 0 0 0 0 0 0 0 0 
0 0 0 0 0 0 0 0 0 
0 0 0 0 0 0 0 0 0 
0 0 0 0 0 0 0 0 0 
0 0 0 0 0 0 0 0 0 
0 0 0 0 0 0 0 0 0 
0 0 0 0 0 0 0 0 0 
0 0 0 0 0 0 0 0 0 
0 0 0 0 0 0 0 0 0 
0 0 0 0 0 0 0 0 0 
0 0 0 0 0 0 0 0 0 
0 0 0 0 0 0 0 0 0 
0 0 0 0 0 0 0 0 0 
0 0 0 0 0 0 0 0 0 
0 0 0 0 0 0 0 0 0 
0 0 0 0 0 0 0 0 0 
0 0 0 0 0 0 0 0 0 
0 0 0 0 0 0 0 0 0 
0 0 0 0 0 0 0 0 0 
0 0 0 0 0 0 0 0 0 
0 0 0 0 0 0 0 0 0 
0 0 0 0 0 0 0 0 0 
0 0 0 0 0 0 0 0 0 
0 0 0 0 0 0 0 0 0 
0 0 0 0 0 0 0 0 0 
0 0 0 0 0 0 0 0 0 
0 0 0 0 0 0 0 0 0 
0 0 0 0 0 0 0 0 0 
0 0 0 0 0 0 0 0 0 
0 0 0 0 0 0 0 0 0 
0 0 0 0 0 0 0 0 0 
0 0 0 0 0 0 0 0 0 
0 0 0 0 0 0 0 0 0 
0 0 0 0 0 0 0 0 0 
0 0 0 0 0 0 0 0 0 
0 0 0 0 0 0 0 0 0 
0 0 0 0 0 0 0 0 0 
0 0 0 0 0 0 0 0 0 
0 0 0 0 0 0 0 0 0 
0 0 0 0 0 0 0 0 0 
0 0 0 0 0 0 0 0 0 
0 0 0 0 0 0 0 0 0 
0 0 0 0 0 0 0 0 0 
0 0 0 0 0 0 0 0 0 
0 0 0 0 0 0 0 0 0 
0 0 0 0 0 0 0 0 0 
0 0 0 0 0 0 0 0 0 
0 0 0 0 0 0 0 0 0 
0 0 0 0 0 0 0 0 0 
0 0 0 0 0 0 0 0 0 
0 0 0 0 0 0 0 0 0 
0 0 0 0 0 0 0 0 0 
0 0 0 0 0 0 0 0 0 
0 0 0 0 0 0 0 0 0 
0 0 0 0 0 0 0 0 0 
0 0 0 0 0 0 0 0 0 
0 0 0 0 0 0 0 0 0 
0 0 0 0 0 0 0 0 0 
0 0 0 0 0 0 0 0 0 
0 0 0 0 0 0 0 0 0 
0 0 0 0 0 0 0 0 0 
0 0 0 0 0 0 0 0 0 
0 0 0 0 0 0 0 0 0 
0 0 0 0 0 0 0 0 0 
0 0 0 0 0 0 0 0 0 
0 0 0 0 0 0 0 0 0 
0 0 0 0 0 0 0 0 0 
0 0 0 0 0 0 0 0 0 
0 0 0 0 0 0 0 0 0 
0 0 0 0 0 0 0 0 0 
0 0 0 0 0 0 0 0 0 
0 0 0 0 0 0 0 0 0 
0 0 0 0 0 0 0 0 0 
0 0 0 0 0 0 0 0 0 
0 0 0 0 0 0 0 0 0 
0 0 0 0 0 0 0 0 0 
0 0 0 0 0 0 0 0 0 
0 0 0 0 0 0 0 0 0 
0 0 0 0 0 0 0 0 0 
0 0 0 0 0 0 0 0 0 
0 0 0 0 0 0 0 0 0 
0 0 0 0 0 0 0 0 0 
0 0 0 0 0 0 0 0 0 
0 0 0 0 0 0 0 0 0 
0 0 0 0 0 0 0 0 0 
0 0 0 0 0 0 0 0 0 
0 0 0 0 0 0 0 0 0 
0 0 0 0 0 0 0 0 0 
0 0 0 0 0 0 0 0 0 
0 0 0 0 0 0 0 0 0 
0 0 0 0 0 0 0 0 0 
0 0 0 0 0 0 0 0 0 
0 0 0 0 0 0 0 0 0 
0 0 0 0 0 0 0 0 0 
0 0 0 0 0 0 0 0 0 
0 0 0 0 0 0 0 0 0 
0 0 0 0 0 0 0 0 0 
0 0 0 0 0 0 0 0 0 
0 0 0 0 0 0 0 0 0 
0 0 0 0 0 0 0 0 0 
0 0 0 0 0 0 0 0 0 
0 0 0 0 0 0 0 0 0 
0 0 0 0 0 0 0 0 0 
0 0 0 0 0 0 0 0 0 
0 0 0 0 0 0 0 0 0 
0 0 0 0 0 0 0 0 0 
0 0 0 0 0 0 0 0 0 
0 0 0 0 0 0 0 0 0 
0 0 0 0 0 0 0 0 0 
0 0 0 0 0 0 0 0 0 
0 0 0 0 0 0 0 0 0 
0 0 0 0 0 0 0 0 0 
0 0 0 0 0 0 0 0 0 
0 0 0 0 0 0 0 0 0 
0 0 0 0 0 0 0 0 0 
0 0 0 0 0 0 0 0 0 
0 0 0 0 0 0 0 0 0 

fx_mag_viz 1 648 double
0 0 0 0 0 0 0 0 0 
0 0 0 0 0 0 0 0 0 
0 0 0 0 0 0 0 0 0 
0 0 0 0 0 0 0 0 0 
0 0 0 0 0 0 0 0 0 
0 0 0 0 0 0 0 0 0 
0 0 0 0 0 0 0 0 0 
0 0 0 0 0 0 0 0 0 
0 0 0 0 0 0 0 0 0 
0 0 0 0 0 0 0 0 0 
0 0 0 0 0 0 0 0 0 
0 0 0 0 0 0 0 0 0 
0 0 0 0 0 0 0 0 0 
0 0 0 0 0 0 0 0 0 
0 0 0 0 0 0 0 0 0 
0 0 0 0 0 0 0 0 0 
0 0 0 0 0 0 0 0 0 
0 0 0 0 0 0 0 0 0 
0 0 0 0 0 0 0 0 0 
0 0 0 0 0 0 0 0 0 
0 0 0 0 0 0 0 0 0 
0 0 0 0 0 0 0 0 0 
0 0 0 0 0 0 0 0 0 
0 0 0 0 0 0 0 0 0 
0 0 0 0 0 0 0 0 0 
0 0 0 0 0 0 0 0 0 
0 0 0 0 0 0 0 0 0 
0 0 0 0 0 0 0 0 0 
0 0 0 0 0 0 0 0 0 
0 0 0 0 0 0 0 0 0 
0 0 0 0 0 0 0 0 0 
0 0 0 0 0 0 0 0 0 
0 0 0 0 0 0 0 0 0 
0 0 0 0 0 0 0 0 0 
0 0 0 0 0 0 0 0 0 
0 0 0 0 0 0 0 0 0 
0 0 0 0 0 0 0 0 0 
0 0 0 0 0 0 0 0 0 
0 0 0 0 0 0 0 0 0 
0 0 0 0 0 0 0 0 0 
0 0 0 0 0 0 0 0 0 
0 0 0 0 0 0 0 0 0 
0 0 0 0 0 0 0 0 0 
0 0 0 0 0 0 0 0 0 
0 0 0 0 0 0 0 0 0 
0 0 0 0 0 0 0 0 0 
0 0 0 0 0 0 0 0 0 
0 0 0 0 0 0 0 0 0 
0 0 0 0 0 0 0 0 0 
0 0 0 0 0 0 0 0 0 
0 0 0 0 0 0 0 0 0 
0 0 0 0 0 0 0 0 0 
0 0 0 0 0 0 0 0 0 
0 0 0 0 0 0 0 0 0 
0 0 0 0 0 0 0 0 0 
0 0 0 0 0 0 0 0 0 
0 0 0 0 0 0 0 0 0 
0 0 0 0 0 0 0 0 0 
0 0 0 0 0 0 0 0 0 
0 0 0 0 0 0 0 0 0 
0 0 0 0 0 0 0 0 0 
0 0 0 0 0 0 0 0 0 
0 0 0 0 0 0 0 0 0 
0 0 0 0 0 0 0 0 0 
0 0 0 0 0 0 0 0 0 
0 0 0 0 0 0 0 0 0 
0 0 0 0 0 0 0 0 0 
0 0 0 0 0 0 0 0 0 
0 0 0 0 0 0 0 0 0 
0 0 0 0 0 0 0 0 0 
0 0 0 0 0 0 0 0 0 
0 0 0 0 0 0 0 0 0 

fy_mag_viz 1 648 double
0 0 0 0 0 0 0 0 0 
0 0 0 0 0 0 0 0 0 
0 0 0 0 0 0 0 0 0 
0 0 0 0 0 0 0 0 0 
0 0 0 0 0 0 0 0 0 
0 0 0 0 0 0 0 0 0 
0 0 0 0 0 0 0 0 0 
0 0 0 0 0 0 0 0 0 
0 0 0 0 0 0 0 0 0 
0 0 0 0 0 0 0 0 0 
0 0 0 0 0 0 0 0 0 
0 0 0 0 0 0 0 0 0 
0 0 0 0 0 0 0 0 0 
0 0 0 0 0 0 0 0 0 
0 0 0 0 0 0 0 0 0 
0 0 0 0 0 0 0 0 0 
0 0 0 0 0 0 0 0 0 
0 0 0 0 0 0 0 0 0 
0 0 0 0 0 0 0 0 0 
0 0 0 0 0 0 0 0 0 
0 0 0 0 0 0 0 0 0 
0 0 0 0 0 0 0 0 0 
0 0 0 0 0 0 0 0 0 
0 0 0 0 0 0 0 0 0 
0 0 0 0 0 0 0 0 0 
0 0 0 0 0 0 0 0 0 
0 0 0 0 0 0 0 0 0 
0 0 0 0 0 0 0 0 0 
0 0 0 0 0 0 0 0 0 
0 0 0 0 0 0 0 0 0 
0 0 0 0 0 0 0 0 0 
0 0 0 0 0 0 0 0 0 
0 0 0 0 0 0 0 0 0 
0 0 0 0 0 0 0 0 0 
0 0 0 0 0 0 0 0 0 
0 0 0 0 0 0 0 0 0 
0 0 0 0 0 0 0 0 0 
0 0 0 0 0 0 0 0 0 
0 0 0 0 0 0 0 0 0 
0 0 0 0 0 0 0 0 0 
0 0 0 0 0 0 0 0 0 
0 0 0 0 0 0 0 0 0 
0 0 0 0 0 0 0 0 0 
0 0 0 0 0 0 0 0 0 
0 0 0 0 0 0 0 0 0 
0 0 0 0 0 0 0 0 0 
0 0 0 0 0 0 0 0 0 
0 0 0 0 0 0 0 0 0 
0 0 0 0 0 0 0 0 0 
0 0 0 0 0 0 0 0 0 
0 0 0 0 0 0 0 0 0 
0 0 0 0 0 0 0 0 0 
0 0 0 0 0 0 0 0 0 
0 0 0 0 0 0 0 0 0 
0 0 0 0 0 0 0 0 0 
0 0 0 0 0 0 0 0 0 
0 0 0 0 0 0 0 0 0 
0 0 0 0 0 0 0 0 0 
0 0 0 0 0 0 0 0 0 
0 0 0 0 0 0 0 0 0 
0 0 0 0 0 0 0 0 0 
0 0 0 0 0 0 0 0 0 
0 0 0 0 0 0 0 0 0 
0 0 0 0 0 0 0 0 0 
0 0 0 0 0 0 0 0 0 
0 0 0 0 0 0 0 0 0 
0 0 0 0 0 0 0 0 0 
0 0 0 0 0 0 0 0 0 
0 0 0 0 0 0 0 0 0 
0 0 0 0 0 0 0 0 0 
0 0 0 0 0 0 0 0 0 
0 0 0 0 0 0 0 0 0 

fz_mag_viz 1 648 double
0 0 0 0 0 0 0 0 0 
0 0 0 0 0 0 0 0 0 
0 0 0 0 0 0 0 0 0 
0 0 0 0 0 0 0 0 0 
0 0 0 0 0 0 0 0 0 
0 0 0 0 0 0 0 0 0 
0 0 0 0 0 0 0 0 0 
0 0 0 0 0 0 0 0 0 
0 0 0 0 0 0 0 0 0 
0 0 0 0 0 0 0 0 0 
0 0 0 0 0 0 0 0 0 
0 0 0 0 0 0 0 0 0 
0 0 0 0 0 0 0 0 0 
0 0 0 0 0 0 0 0 0 
0 0 0 0 0 0 0 0 0 
0 0 0 0 0 0 0 0 0 
0 0 0 0 0 0 0 0 0 
0 0 0 0 0 0 0 0 0 
0 0 0 0 0 0 0 0 0 
0 0 0 0 0 0 0 0 0 
0 0 0 0 0 0 0 0 0 
0 0 0 0 0 0 0 0 0 
0 0 0 0 0 0 0 0 0 
0 0 0 0 0 0 0 0 0 
0 0 0 0 0 0 0 0 0 
0 0 0 0 0 0 0 0 0 
0 0 0 0 0 0 0 0 0 
0 0 0 0 0 0 0 0 0 
0 0 0 0 0 0 0 0 0 
0 0 0 0 0 0 0 0 0 
0 0 0 0 0 0 0 0 0 
0 0 0 0 0 0 0 0 0 
0 0 0 0 0 0 0 0 0 
0 0 0 0 0 0 0 0 0 
0 0 0 0 0 0 0 0 0 
0 0 0 0 0 0 0 0 0 
0 0 0 0 0 0 0 0 0 
0 0 0 0 0 0 0 0 0 
0 0 0 0 0 0 0 0 0 
0 0 0 0 0 0 0 0 0 
0 0 0 0 0 0 0 0 0 
0 0 0 0 0 0 0 0 0 
0 0 0 0 0 0 0 0 0 
0 0 0 0 0 0 0 0 0 
0 0 0 0 0 0 0 0 0 
0 0 0 0 0 0 0 0 0 
0 0 0 0 0 0 0 0 0 
0 0 0 0 0 0 0 0 0 
0 0 0 0 0 0 0 0 0 
0 0 0 0 0 0 0 0 0 
0 0 0 0 0 0 0 0 0 
0 0 0 0 0 0 0 0 0 
0 0 0 0 0 0 0 0 0 
0 0 0 0 0 0 0 0 0 
0 0 0 0 0 0 0 0 0 
0 0 0 0 0 0 0 0 0 
0 0 0 0 0 0 0 0 0 
0 0 0 0 0 0 0 0 0 
0 0 0 0 0 0 0 0 0 
0 0 0 0 0 0 0 0 0 
0 0 0 0 0 0 0 0 0 
0 0 0 0 0 0 0 0 0 
0 0 0 0 0 0 0 0 0 
0 0 0 0 0 0 0 0 0 
0 0 0 0 0 0 0 0 0 
0 0 0 0 0 0 0 0 0 
0 0 0 0 0 0 0 0 0 
0 0 0 0 0 0 0 0 0 
0 0 0 0 0 0 0 0 0 
0 0 0 0 0 0 0 0 0 
0 0 0 0 0 0 0 0 0 
0 0 0 0 0 0 0 0 0 

B_magnitude 1 648 double
0 0 0 0 0 0 0 0 0 
0 0 0 0 0 0 0 0 0 
0 0 0 0 0 0 0 0 0 
0 0 0 0 0 0 0 0 0 
0 0 0 0 0 0 0 0 0 
0 0 0 0 0 0 0 0 0 
0 0 0 0 0 0 0 0 0 
0 0 0 0 0 0 0 0 0 
0 0 0 0 0 0 0 0 0 
0 0 0 0 0 0 0 0 0 
0 0 0 0 0 0 0 0 0 
0 0 0 0 0 0 0 0 0 
0 0 0 0 0 0 0 0 0 
0 0 0 0 0 0 0 0 0 
0 0 0 0 0 0 0 0 0 
0 0 0 0 0 0 0 0 0 
0 0 0 0 0 0 0 0 0 
0 0 0 0 0 0 0 0 0 
0 0 0 0 0 0 0 0 0 
0 0 0 0 0 0 0 0 0 
0 0 0 0 0 0 0 0 0 
0 0 0 0 0 0 0 0 0 
0 0 0 0 0 0 0 0 0 
0 0 0 0 0 0 0 0 0 
0 0 0 0 0 0 0 0 0 
0 0 0 0 0 0 0 0 0 
0 0 0 0 0 0 0 0 0 
0 0 0 0 0 0 0 0 0 
0 0 0 0 0 0 0 0 0 
0 0 0 0 0 0 0 0 0 
0 0 0 0 0 0 0 0 0 
0 0 0 0 0 0 0 0 0 
0 0 0 0 0 0 0 0 0 
0 0 0 0 0 0 0 0 0 
0 0 0 0 0 0 0 0 0 
0 0 0 0 0 0 0 0 0 
0 0 0 0 0 0 0 0 0 
0 0 0 0 0 0 0 0 0 
0 0 0 0 0 0 0 0 0 
0 0 0 0 0 0 0 0 0 
0 0 0 0 0 0 0 0 0 
0 0 0 0 0 0 0 0 0 
0 0 0 0 0 0 0 0 0 
0 0 0 0 0 0 0 0 0 
0 0 0 0 0 0 0 0 0 
0 0 0 0 0 0 0 0 0 
0 0 0 0 0 0 0 0 0 
0 0 0 0 0 0 0 0 0 
0 0 0 0 0 0 0 0 0 
0 0 0 0 0 0 0 0 0 
0 0 0 0 0 0 0 0 0 
0 0 0 0 0 0 0 0 0 
0 0 0 0 0 0 0 0 0 
0 0 0 0 0 0 0 0 0 
0 0 0 0 0 0 0 0 0 
0 0 0 0 0 0 0 0 0 
0 0 0 0 0 0 0 0 0 
0 0 0 0 0 0 0 0 0 
0 0 0 0 0 0 0 0 0 
0 0 0 0 0 0 0 0 0 
0 0 0 0 0 0 0 0 0 
0 0 0 0 0 0 0 0 0 
0 0 0 0 0 0 0 0 0 
0 0 0 0 0 0 0 0 0 
0 0 0 0 0 0 0 0 0 
0 0 0 0 0 0 0 0 0 
0 0 0 0 0 0 0 0 0 
0 0 0 0 0 0 0 0 0 
0 0 0 0 0 0 0 0 0 
0 0 0 0 0 0 0 0 0 
0 0 0 0 0 0 0 0 0 
0 0 0 0 0 0 0 0 0 

B_gradient_mag 1 648 double
0 0 0 0 0 0 0 0 0 
0 0 0 0 0 0 0 0 0 
0 0 0 0 0 0 0 0 0 
0 0 0 0 0 0 0 0 0 
0 0 0 0 0 0 0 0 0 
0 0 0 0 0 0 0 0 0 
0 0 0 0 0 0 0 0 0 
0 0 0 0 0 0 0 0 0 
0 0 0 0 0 0 0 0 0 
0 0 0 0 0 0 0 0 0 
0 0 0 0 0 0 0 0 0 
0 0 0 0 0 0 0 0 0 
0 0 0 0 0 0 0 0 0 
0 0 0 0 0 0 0 0 0 
0 0 0 0 0 0 0 0 0 
0 0 0 0 0 0 0 0 0 
0 0 0 0 0 0 0 0 0 
0 0 0 0 0 0 0 0 0 
0 0 0 0 0 0 0 0 0 
0 0 0 0 0 0 0 0 0 
0 0 0 0 0 0 0 0 0 
0 0 0 0 0 0 0 0 0 
0 0 0 0 0 0 0 0 0 
0 0 0 0 0 0 0 0 0 
0 0 0 0 0 0 0 0 0 
0 0 0 0 0 0 0 0 0 
0 0 0 0 0 0 0 0 0 
0 0 0 0 0 0 0 0 0 
0 0 0 0 0 0 0 0 0 
0 0 0 0 0 0 0 0 0 
0 0 0 0 0 0 0 0 0 
0 0 0 0 0 0 0 0 0 
0 0 0 0 0 0 0 0 0 
0 0 0 0 0 0 0 0 0 
0 0 0 0 0 0 0 0 0 
0 0 0 0 0 0 0 0 0 
0 0 0 0 0 0 0 0 0 
0 0 0 0 0 0 0 0 0 
0 0 0 0 0 0 0 0 0 
0 0 0 0 0 0 0 0 0 
0 0 0 0 0 0 0 0 0 
0 0 0 0 0 0 0 0 0 
0 0 0 0 0 0 0 0 0 
0 0 0 0 0 0 0 0 0 
0 0 0 0 0 0 0 0 0 
0 0 0 0 0 0 0 0 0 
0 0 0 0 0 0 0 0 0 
0 0 0 0 0 0 0 0 0 
0 0 0 0 0 0 0 0 0 
0 0 0 0 0 0 0 0 0 
0 0 0 0 0 0 0 0 0 
0 0 0 0 0 0 0 0 0 
0 0 0 0 0 0 0 0 0 
0 0 0 0 0 0 0 0 0 
0 0 0 0 0 0 0 0 0 
0 0 0 0 0 0 0 0 0 
0 0 0 0 0 0 0 0 0 
0 0 0 0 0 0 0 0 0 
0 0 0 0 0 0 0 0 0 
0 0 0 0 0 0 0 0 0 
0 0 0 0 0 0 0 0 0 
0 0 0 0 0 0 0 0 0 
0 0 0 0 0 0 0 0 0 
0 0 0 0 0 0 0 0 0 
0 0 0 0 0 0 0 0 0 
0 0 0 0 0 0 0 0 0 
0 0 0 0 0 0 0 0 0 
0 0 0 0 0 0 0 0 0 
0 0 0 0 0 0 0 0 0 
0 0 0 0 0 0 0 0 0 
0 0 0 0 0 0 0 0 0 
0 0 0 0 0 0 0 0 0 

