# vtk DataFile Version 5.1
Generated by LIGGGHTS
ASCII
DATASET POLYDATA
POINTS 608 float
-0.0308094 -0.0435702 0.0659741 -0.00433253 -0.00676057 0.0660235 -0.0179231 -0.00300678 0.0659689 
-0.042922 -0.0404536 0.0667953 0.0280204 -0.0311414 0.0668534 -0.0112192 -0.0104501 0.0663166 
0.00743742 -0.00926665 0.0662141 0.013874 -0.00963069 0.0672967 -0.0129003 -0.00574839 0.0670754 
-0.0214351 0.00957734 0.0667927 -0.0310202 0.0131063 0.0673928 0.0364634 0.0310238 0.0673239 
-0.0264781 0.032823 0.0670217 0.0297434 0.0373158 0.0671144 -0.0428902 -0.0449088 0.0681066 
0.00798734 -0.0367051 0.067834 0.000892701 -0.0263701 0.0677529 -0.0257955 -0.0157834 0.0685007 
0.0384376 0.000848974 0.0683959 0.021602 0.00540593 0.0675462 0.0221269 0.00728552 0.0677738 
-0.022709 0.0198803 0.0682486 0.0167463 0.0251763 0.0680712 -0.0390027 0.0421086 0.0682639 
0.0308099 -0.0378456 0.0689389 0.0333162 -0.0342631 0.0692475 -0.00444012 -0.0151621 0.0700172 
0.0109664 -0.00760095 0.0698546 0.00937085 -0.00418454 0.0695946 0.0180565 -0.00487531 0.0696874 
0.0449494 0.00392273 0.0687754 0.03506 0.0228899 0.0690761 0.0181332 0.0246356 0.0691503 
-0.0105296 -0.0314142 0.0706014 -0.0100897 -0.0180162 0.0707069 -0.0117656 -0.0138394 0.0703949 
-0.0198564 -0.00683511 0.0708242 -0.0141425 -0.00311887 0.0700733 0.0246705 0.0064451 0.0711062 
-0.0426568 0.00723228 0.0711739 0.0212596 0.00979192 0.0711107 0.0143092 0.0139794 0.0708252 
0.0248423 0.0143007 0.0704091 0.0123926 0.0218243 0.0702311 0.0156715 -0.0391733 0.0722184 
0.033456 -0.0256735 0.072391 0.00689113 -0.0107816 0.0716156 0.021323 -0.00444137 0.0718693 
0.0292006 0.00433004 0.0725739 0.0340899 0.00882812 0.072128 0.0398091 0.011618 0.0717138 
0.0307708 0.0242663 0.07183 -0.0200898 0.0311527 0.0720418 -0.0073504 0.0318329 0.0725736 
-0.0335565 -0.0442122 0.0726714 -0.0248652 -0.040212 0.0739327 -0.00302782 -0.0385948 0.073643 
-0.0266532 -0.0301716 0.0731432 0.039775 -0.0211058 0.0728583 -0.0388614 -0.0136303 0.072981 
0.0350526 -0.0102353 0.0728618 0.00517921 0.0169249 0.0739222 -0.0360536 0.0173104 0.0732966 
0.0090081 0.0191686 0.0735673 -0.00782209 0.0241861 0.0729286 0.040047 -0.0404588 0.0743667 
-0.0260142 0.00017485 0.0750636 8.23501e-07 0.0138406 0.0750319 0.0215224 0.0171285 0.0748499 
0.000162142 0.0251126 0.0744946 -0.00563177 0.0268155 0.0746492 -0.0409258 0.0305044 0.0740496 
0.0038092 0.0311583 0.0745239 0.01325 0.0319187 0.0743272 0.0165329 0.0385374 0.0745129 
-0.00674967 -0.0416523 0.0754712 0.00594186 -0.0351889 0.0756109 -0.0408326 -0.0234295 0.0765164 
-0.0108877 -0.0188832 0.0764477 0.00156248 -0.0194187 0.0758095 0.0030191 -0.0179247 0.0761208 
0.0286804 -0.00919085 0.0755131 0.0188762 0.00181355 0.0761011 0.0305447 0.00486582 0.0757991 
-0.0287984 0.00559412 0.0761508 -0.0153727 0.020636 0.0752882 -0.0282566 0.021284 0.076068 
0.0251972 0.0393087 0.0763873 -0.0334706 -0.0396012 0.0778221 0.00577088 -0.0287415 0.0766875 
-0.0269092 -0.0125643 0.0769337 -0.0214415 -0.007536 0.0775984 0.00417698 0.0024455 0.0769577 
0.0287781 0.014071 0.0773459 -0.0313244 0.0314049 0.0775909 0.0336491 -0.0197505 0.0778778 
-0.0426154 -0.0165053 0.0790047 -0.0339565 -0.0167518 0.0778846 0.0223879 -0.0163393 0.0790121 
-0.00702036 -0.00121172 0.0789934 -0.00967086 0.00179773 0.0789099 -0.034865 0.0142961 0.0786536 
-0.023041 0.0197144 0.0784984 -0.041477 0.0364172 0.0784089 0.000425919 -0.0415728 0.0803014 
-0.0240719 -0.0268296 0.0793288 0.0436787 -0.0219137 0.0803418 0.0277003 -0.0107969 0.0801909 
-0.00783961 -0.000387029 0.0793949 -0.0394276 0.0109375 0.0805238 -0.0386663 0.0253433 0.0794335 
-0.0267569 0.0263983 0.0798715 0.0221021 0.0401282 0.0792871 0.0414821 -0.0410789 0.081086 
-0.0232422 -0.0321576 0.0809991 0.0404767 -0.0183151 0.0811939 0.0131353 -0.00504642 0.0805485 
0.0228765 0.00606581 0.0813384 0.0399323 0.0117688 0.0815982 0.0362273 0.0220011 0.0810904 
-0.00739359 0.0259593 0.0817183 0.0191509 0.0299648 0.0815675 0.0444958 0.0309554 0.0809151 
0.00284552 0.0345861 0.0812408 -0.00883869 0.0381834 0.0813407 -0.0439713 -0.0357399 0.0824233 
0.027474 -0.0338615 0.0824619 -0.0448384 -0.0296834 0.0827873 0.00623721 -0.0211799 0.0826999 
0.0251729 -0.00985964 0.0819962 -0.0281455 -0.00127675 0.0822593 0.0011249 0.00615697 0.0827453 
0.030759 0.00580352 0.0823833 0.00395304 0.0187088 0.0822041 -0.0357156 0.0282031 0.0822336 
-0.0112537 0.0395394 0.081956 -0.0205282 0.0432397 0.082059 -0.044759 -0.0437614 0.0837418 
-0.0370475 -0.0370945 0.0841742 0.0244271 -0.0334586 0.083062 0.00802514 -0.031483 0.0839858 
0.0268369 -0.0315202 0.0831131 0.0268005 -0.0146468 0.0838059 -0.0329121 -0.0139828 0.0831438 
0.0176437 -0.0119747 0.0834696 -0.042786 -0.00359954 0.0842801 -0.0170872 0.00564833 0.0835976 
-0.00279986 0.0127222 0.0840893 0.0418335 0.0161761 0.0842847 0.00546842 0.0177814 0.0838583 
0.00128112 0.0217131 0.0843094 0.0163992 0.0415262 0.0831273 0.00805094 0.0422278 0.0843341 
0.0244803 -0.0401788 0.0854069 -0.0427235 -0.0332389 0.0853686 0.023158 -0.0340207 0.0849632 
0.032808 -0.025967 0.0846101 -0.0317771 -0.0175651 0.0848662 -0.038829 -0.00978443 0.0846623 
-0.0304645 -0.00701594 0.0846612 -0.040885 -0.00406647 0.0857394 0.0142017 0.0079404 0.0854833 
0.014866 0.0127598 0.0849786 -0.0214239 0.0189608 0.0849141 0.0226957 0.0260881 0.0848537 
-0.00435696 0.0325462 0.0848737 -0.027409 -0.0433703 0.0861989 0.00879071 -0.0344865 0.0860224 
-0.0262624 -0.032473 0.0865965 -0.00580099 -0.0272788 0.0861285 0.0129906 -0.00677597 0.0871037 
0.039455 -0.000236508 0.0859349 0.0147261 0.00139147 0.0868406 0.0202046 0.00840095 0.0857897 
-0.0408092 0.00981999 0.0856669 -0.0392616 0.00972366 0.0862759 0.0226738 0.0181095 0.0865768 
0.0146363 0.0223077 0.0866804 0.00953871 0.0271324 0.085868 0.0281745 0.039089 0.0868058 
0.0399235 0.0434757 0.0867814 -0.00340304 -0.0448428 0.0877464 -0.00670669 -0.0394183 0.0869815 
-0.0338231 -0.0250135 0.0877573 0.0363266 -0.0194176 0.0880032 -0.0222502 -0.00974669 0.0875567 
-0.00553214 -0.00871323 0.087061 -0.037077 0.00611456 0.0875169 -0.0429188 0.0135204 0.0875609 
-0.0431379 0.0208085 0.0882058 -0.0114472 0.026715 0.0880343 -0.0312382 0.0393096 0.0869834 
-0.0323128 -0.0219837 0.0892998 -0.0204621 -0.0172006 0.0887517 0.0252581 -0.0163235 0.0895572 
0.0249316 -0.014475 0.0886508 -0.0196799 -0.00931279 0.0892342 -0.0135858 -0.00672635 0.0894406 
0.032558 0.00153523 0.0892013 -0.00723413 0.00605583 0.0894308 -0.0101256 0.00978275 0.0883576 
-0.0349287 0.0230684 0.0891467 0.0418836 -0.0421436 0.0906972 -0.0349861 -0.0412827 0.0899572 
0.0238162 -0.0409762 0.0907579 0.000822496 -0.0363122 0.0899282 0.0433459 -0.0353282 0.08982 
-0.00586029 -0.0338127 0.0897766 0.0346336 -0.0325969 0.090238 -0.0240024 -0.0280603 0.0900099 
0.0198229 -0.0156851 0.0895558 0.0362421 0.00170773 0.0905146 0.0404406 0.00462082 0.0906312 
0.0336082 0.013194 0.0898728 0.0388885 0.0193682 0.0905135 -0.0375088 0.0393741 0.0898648 
-0.0346971 -0.0446764 0.0912052 0.0248068 -0.0428986 0.0910498 -0.018434 -0.0405477 0.0920377 
0.0397687 -0.0374633 0.0920668 0.03382 -0.0268981 0.0918874 0.0306875 -0.0259396 0.0909937 
0.00538025 -0.0241403 0.0914869 0.0293019 -0.00298432 0.0915682 -0.0416237 0.00110806 0.0913298 
0.0197977 0.00963841 0.0911158 0.0261916 0.0119357 0.0919458 0.00976298 0.0163696 0.0913369 
0.0122157 0.0191756 0.0918997 -0.0127911 0.0299546 0.0913143 0.0238959 0.0383247 0.0909186 
-0.0248654 -0.0427111 0.0921684 0.0424299 -0.0409921 0.0928858 -0.0108246 -0.0388127 0.0924408 
0.0102479 -0.024092 0.0930231 -0.0225401 -0.0213878 0.0929385 -0.0296942 -0.0196153 0.0933208 
0.0322358 -0.0130621 0.0925364 -0.00747582 -0.00609419 0.0925023 -0.000610522 -0.00103491 0.0932601 
0.0128044 0.0127337 0.0926853 -0.00307286 0.0144526 0.0922781 -0.0421793 0.0225172 0.0932337 
0.0311732 0.0371467 0.092549 -0.00973825 0.0391656 0.0931099 0.0338942 -0.0410147 0.0937204 
-0.0406141 -0.0405112 0.0941711 -0.00827992 -0.020547 0.0935234 0.0403752 -0.0143085 0.0940364 
0.00523139 -0.00599236 0.0935808 0.0407777 0.000744206 0.0945077 0.0283387 0.00890506 0.0941681 
-0.0190887 0.0269029 0.0936191 -0.0376379 0.0294143 0.0935979 0.00372347 0.0304157 0.0937052 
-0.0245447 0.0378537 0.0942666 0.0222253 0.0407186 0.0939462 -0.0181988 0.0434549 0.0939236 
0.0145521 -0.0432303 0.0948621 0.0348044 -0.042095 0.0958417 -0.0350278 -0.0224863 0.0950835 
0.00548761 -0.0197918 0.0953873 0.0313953 -0.00974065 0.0951977 0.0406218 -0.0100941 0.0953499 
0.0290986 -0.000251763 0.0950014 -0.0261639 0.00337815 0.095847 0.0101693 0.00555192 0.0955159 
0.0250346 0.00641518 0.0958879 0.00861143 0.0123591 0.0949683 -0.00867948 0.0139924 0.0960228 
-0.0196462 0.0155185 0.0952348 0.0121458 0.0151918 0.0947639 0.00264144 0.0247174 0.0948606 
0.00390562 0.0317225 0.0959356 0.00317215 0.0343196 0.0956506 0.0352379 0.0438995 0.0951389 
-0.0168273 -0.0360331 0.0965639 -0.0376897 -0.0314333 0.0962893 -0.0263426 -0.0292431 0.0968335 
0.0233461 -0.0214624 0.0969395 0.0394323 -0.021923 0.0962443 0.0184681 -0.0172117 0.097103 
0.0323225 0.00436429 0.0963357 -0.032208 0.0306075 0.0962965 0.00519606 0.0301696 0.0961211 
-0.0160452 -0.0323821 0.0985136 -0.0430551 -0.0267583 0.0978725 -0.0405162 -0.0161033 0.0977937 
-0.0186412 -0.0134353 0.097882 -0.0150798 -0.00698339 0.0985605 0.0161928 -0.00760918 0.0975981 
-0.00896956 -0.00131708 0.0984766 0.000954082 0.0152563 0.0982083 -0.0108954 0.0304 0.0973766 
0.0231674 0.0340949 0.0974473 0.0405446 0.0433429 0.098507 0.0181024 -0.0433049 0.0992754 
0.0131812 -0.0427533 0.0994837 -0.00446216 -0.0255279 0.0989103 -0.0327621 -0.0121928 0.0995677 
-0.0343844 -0.0078404 0.0999413 0.0387156 -0.00624884 0.0997986 -0.0120059 -0.00345367 0.098666 
0.00975646 -0.00313231 0.0994642 0.0116524 0.00206193 0.099145 0.0441199 0.0136981 0.0988808 
0.0193546 0.0324404 0.0996347 -0.00585061 0.0388609 0.0996674 0.0352701 0.0439749 0.0995133 
0.00985621 -0.0367022 0.100271 0.0449741 -0.0303513 0.100175 -0.0291427 -0.0219343 0.101209 
0.038292 -0.016257 0.10118 0.0323803 -0.0150629 0.100847 -0.0325416 0.00283857 0.101196 
0.00243665 0.00282786 0.101198 0.0110904 0.00657535 0.100925 -0.00841171 0.0143034 0.100956 
0.0311878 0.014057 0.100032 0.0407412 0.0174253 0.100611 -0.0122989 0.0222019 0.100932 
0.00126512 0.0228658 0.100054 0.0438582 0.0244724 0.101118 0.026696 0.03017 0.100162 
0.0166138 -0.0412108 0.102272 -0.0233761 -0.031813 0.102042 -0.0220587 -0.0306349 0.101781 
-0.0414327 -0.0290659 0.101795 0.0346338 -0.0290927 0.102358 0.00558373 -0.0242787 0.10135 
-0.0127621 -0.0231756 0.101434 0.0240101 -0.0228809 0.102516 0.035159 -0.023363 0.101718 
-0.00254943 -0.00825679 0.101347 -0.0344646 -0.00725539 0.101671 -0.0211095 -0.00770044 0.102009 
0.0180458 -0.00470109 0.101741 -0.0107529 -0.00365687 0.101865 -0.00941413 -0.00330341 0.102325 
-0.0283489 -0.000417126 0.102168 -0.025141 0.00447188 0.101805 0.0396593 0.013993 0.102266 
0.0398418 0.0217469 0.102419 0.021223 0.0244832 0.101559 0.0258603 0.0235991 0.102085 
0.0395905 0.0272142 0.101651 -0.0368667 0.0306348 0.102507 0.0372507 0.0318783 0.102186 
-0.00196307 0.0366495 0.101857 -0.0309963 -0.0355024 0.103261 0.0392765 -0.0300093 0.103362 
0.0262592 -0.0217201 0.103536 -0.0147645 -0.0165889 0.102882 0.0334462 -0.00930086 0.102915 
0.0140084 -6.89735e-05 0.103101 -0.00229178 0.0020129 0.102975 -0.00552594 0.00555795 0.103031 
-0.0105861 0.00898083 0.103103 0.0211953 0.00966092 0.103345 -0.0148746 0.0223253 0.10337 
-0.0152062 0.0294088 0.103394 0.0294278 0.0431452 0.103168 0.00528787 0.0432844 0.103283 
-0.00396528 -0.0444182 0.104555 -0.0386911 -0.0311434 0.104385 -0.00863888 -0.0237376 0.103964 
0.0272875 -0.0186725 0.105088 0.0223025 -0.0112244 0.104315 -0.00401126 -0.00720159 0.104483 
0.0404774 -0.00688032 0.104261 0.00314898 0.00491531 0.104352 -0.009285 0.00693532 0.10393 
-0.0365733 0.0119208 0.104569 0.00243185 0.0120975 0.104767 0.018015 0.0183735 0.104623 
-0.0267196 0.0236159 0.103986 0.00834461 0.0278725 0.104666 -0.0337286 0.0337045 0.10398 
-0.039126 0.0399637 0.1048 0.00201585 0.0404036 0.104696 0.0195053 -0.043722 0.105398 
0.0155599 -0.0240909 0.105735 -0.0210835 -0.0209207 0.106324 0.0218308 -0.0192565 0.106372 
0.0200271 -0.00425623 0.106232 -0.0408474 -0.00214648 0.105368 0.0168839 -0.00210364 0.105395 
-0.0376932 -0.000132947 0.106302 -0.0153419 -0.00108619 0.105559 0.0260144 0.00429017 0.10587 
-0.00598638 0.00689803 0.106087 0.0191028 0.0315895 0.105229 0.00727395 0.0332762 0.105196 
0.0152528 0.033152 0.106526 -0.0136468 -0.0412372 0.106669 0.0339316 -0.041715 0.107755 
-0.0161578 -0.0337243 0.106687 0.0054016 -0.025334 0.107649 0.0350196 -0.0250011 0.107361 
0.00179778 -0.0247441 0.106918 -0.0033641 -0.0204173 0.106469 -0.00528066 -0.0121118 0.107418 
0.0242571 -0.0100823 0.106891 -0.0198668 -0.00211416 0.107463 -0.0429246 0.00657681 0.106922 
0.00533928 0.00728904 0.107215 -0.0128609 0.0265935 0.10699 -0.0406313 0.0295913 0.106553 
-0.0425374 0.0333781 0.106514 0.0278529 0.0342296 0.107658 0.00888594 0.0360502 0.106598 
0.0030545 0.0369981 0.107672 -0.0133259 0.0414802 0.107536 -0.0177803 -0.0340186 0.108729 
0.0153133 -0.0285941 0.108592 0.0164647 -0.0275391 0.109007 0.0347572 -0.0260666 0.108477 
0.0144468 -0.013247 0.107962 0.00664535 -0.00164817 0.108767 0.00265626 0.00371614 0.107991 
0.0183943 0.00266245 0.107755 -0.0231109 0.0157017 0.1086 0.00742845 0.0199749 0.108462 
0.0416479 -0.0439733 0.109937 0.0406519 -0.0427256 0.110185 0.0077947 -0.0345433 0.109791 
-0.0432264 -0.0264101 0.109944 0.0204492 -0.0194639 0.109574 -0.0341597 -0.0122829 0.109681 
-0.0207563 -0.0111167 0.110241 -0.0253129 -0.0039775 0.109321 -0.0233311 0.00384073 0.110066 
0.0332757 0.00539899 0.109796 0.00153271 0.0201988 0.109406 -0.0287332 0.0215601 0.109977 
-0.0324762 0.0230005 0.109259 -0.0295899 0.0232577 0.110328 -0.0213481 0.0319153 0.110396 
-0.0422696 0.0340949 0.109778 -0.0177429 -0.0346724 0.111669 -0.0396817 -0.0304797 0.110519 
0.00231692 -0.0294453 0.111024 -0.0279963 -0.0141356 0.111291 -0.00474481 -0.00600267 0.110847 
-0.019893 0.00878872 0.110635 -0.00071691 0.0108932 0.110716 0.0323341 0.0191974 0.111001 
0.0397191 0.0283771 0.111392 0.0380057 0.0324307 0.111363 0.00513794 0.0433856 0.111419 
-0.0390775 0.0447256 0.110897 -0.0273176 -0.0361067 0.112297 -0.0346801 -0.0287009 0.111724 
0.0115492 -0.0227248 0.111885 0.0132043 -0.01541 0.111973 0.0253763 -0.011051 0.11292 
0.0352883 -0.0103067 0.112392 0.0448793 -0.00396119 0.112156 0.0189244 0.00254502 0.112073 
-0.0406381 0.00555966 0.11253 -0.0408306 0.00999374 0.112492 0.00474506 0.0103043 0.111881 
0.0234497 0.00978487 0.112075 0.027557 0.009967 0.112834 -0.00808524 0.0113378 0.112198 
-0.0350204 0.0121089 0.112323 0.012585 0.0155082 0.112606 -0.0408838 0.0159645 0.112774 
-0.0122189 0.0175978 0.112882 0.0337272 0.0324898 0.112914 0.00367032 0.0371324 0.111899 
-0.00647711 0.0391566 0.112387 0.0114086 0.0440135 0.112814 0.0171919 0.0449185 0.112496 
-0.0195638 -0.0385913 0.113631 0.0325128 -0.03812 0.113645 0.0195647 -0.0366528 0.113328 
0.0412685 -0.0295104 0.114091 -0.0183202 -0.0175475 0.113583 0.0282033 -0.0178095 0.114265 
0.0414834 -0.0181367 0.114188 -0.0137512 0.00384646 0.114195 -0.0403489 0.00598291 0.114108 
0.0358407 0.00533501 0.112972 -0.0442311 0.00821601 0.113588 -0.0371624 0.011326 0.113998 
0.0434247 0.0295768 0.113758 0.0211706 0.0445491 0.114003 0.00849583 -0.0405939 0.114388 
-0.0164034 -0.0216001 0.114405 -0.0328213 -0.0176588 0.114438 -0.0408642 -0.0154151 0.114832 
-0.015814 -0.0152491 0.114549 0.0375745 -0.0151367 0.114708 -0.0131355 0.00164571 0.115556 
0.0324887 0.00836074 0.115238 0.00757299 0.0192258 0.114594 0.0350116 0.0207306 0.115478 
0.0040127 0.0314243 0.114549 -0.0389435 -0.0425966 0.115573 -0.0169239 -0.0402939 0.116534 
-0.0139777 -0.0223984 0.116552 -0.0207996 -0.0190456 0.115988 0.00886689 -0.0141191 0.115964 
-0.0253401 -0.0103599 0.116253 0.0420414 -0.00101026 0.116271 0.00789931 0.0136568 0.116016 
0.012949 0.0143048 0.115946 -0.0436572 0.0238848 0.116639 -0.0407273 0.0358476 0.116536 
0.0170579 0.0421878 0.1159 -0.00161929 -0.0353994 0.117873 0.0355384 -0.0354155 0.117287 
0.043014 -0.0343178 0.116912 -0.0210092 -0.0320472 0.11721 0.023019 -0.0293484 0.117428 
-0.0401314 -0.0280847 0.117354 0.0210005 -0.0239559 0.117585 -0.0329608 -0.0218045 0.117304 
0.0323804 -0.0132471 0.117899 -0.027449 0.00511055 0.117933 -0.01547 0.00642247 0.117521 
-0.00443291 0.0160613 0.11711 -0.0214233 0.0285543 0.117595 -0.0289295 -0.0389067 0.118881 
-0.0179089 -0.0346335 0.119172 -8.23525e-05 -0.034098 0.119404 0.0403097 -0.0347888 0.118669 
-0.0336946 -0.0248459 0.119419 0.0134129 -0.0192809 0.11938 -0.0420316 -0.0145538 0.119255 
0.00978397 0.00922321 0.118958 -0.0287818 0.014969 0.118233 0.0440772 0.0154938 0.119032 
-0.0286532 0.0159811 0.119029 0.0256029 0.0175394 0.119362 -0.0363159 0.0185996 0.118263 
-0.00750544 0.0361316 0.11824 -0.0317519 -0.0446953 0.119641 0.0262096 -0.0449372 0.12036 
-0.00682403 -0.0314098 0.11979 0.0296492 -0.015918 0.120084 -0.00710141 -0.0133745 0.119513 
-0.0449336 -0.00957357 0.11998 -0.024842 -0.00884532 0.120508 -0.0161548 0.0159009 0.120594 
-0.00317984 0.0164631 0.119767 0.00976854 0.0197772 0.120344 -0.0132251 0.0252506 0.12018 
-0.00472634 0.0344449 0.119609 0.0156293 -0.0283842 0.120838 0.0347312 -0.012978 0.121354 
0.0218314 -0.00971151 0.121687 0.00127443 -0.000618905 0.121307 -0.0332593 0.000859011 0.120856 
-0.00831541 0.0129665 0.121139 -0.0138035 0.0240512 0.121415 -0.0260391 0.0304395 0.120879 
-0.0359241 0.0337864 0.120928 0.0132394 0.0345575 0.121424 -0.0190394 0.0446837 0.121921 
0.0201641 -0.0426709 0.122595 -0.0234086 -0.038644 0.122932 0.010226 -0.0308634 0.122092 
0.0109547 -0.0235646 0.122172 -0.0313057 -0.0141988 0.123203 -0.0101373 -0.00698039 0.122952 
0.00418285 0.0112423 0.122152 -0.0436896 0.0195853 0.122338 0.0164577 0.0353116 0.123317 
-0.0225361 -0.0441701 0.124114 0.0307351 -0.0355434 0.123728 -0.038621 -0.0229432 0.124633 
-0.042331 -0.00792816 0.123592 0.00357123 -0.00830953 0.124534 0.0127657 -0.00746761 0.123889 
-0.00720807 -0.00608605 0.123761 0.0386193 -0.00496685 0.12402 -0.0395569 -0.00227866 0.124256 
-0.0349081 0.00917553 0.124632 -0.0219587 0.0304934 0.124011 -0.0379532 0.0399341 0.12426 
-0.00785852 0.041878 0.124436 0.0147823 -0.0446949 0.12482 -0.00338111 -0.0363358 0.125224 
-0.0136128 -0.00979682 0.125814 0.023953 0.00820576 0.125659 -0.0193355 0.018129 0.125659 
-0.014478 0.0275162 0.125539 0.0214431 0.0335886 0.125543 0.0430506 0.0422314 0.124746 
0.0133448 0.00646544 0.126612 -0.0102477 0.0267602 0.126114 -0.0197415 0.0344175 0.127002 
-0.0281804 0.0418824 0.12734 -0.0437633 0.0406561 0.128022 -0.0419519 -0.0259749 0.129507 
0.0320014 0.00756294 0.12877 -0.0328109 -0.0226975 0.130126 0.0302919 -0.0148257 0.130406 
0.0439232 0.0371117 0.130553 0.0131273 0.040817 0.130465 0.0282359 -0.00877456 0.133949 
-0.0170112 0.0231088 0.135974 -0.0386256 -0.00983966 0.137723 -0.0356048 -0.000104637 0.136868 
-0.0245993 0.0193658 0.137222 0.0419483 -0.0348097 0.13855 
VERTICES 609 608
OFFSETS vtktypeint64
0 1 2 3 4 5 6 7 8 
9 10 11 12 13 14 15 16 17 
18 19 20 21 22 23 24 25 26 
27 28 29 30 31 32 33 34 35 
36 37 38 39 40 41 42 43 44 
45 46 47 48 49 50 51 52 53 
54 55 56 57 58 59 60 61 62 
63 64 65 66 67 68 69 70 71 
72 73 74 75 76 77 78 79 80 
81 82 83 84 85 86 87 88 89 
90 91 92 93 94 95 96 97 98 
99 100 101 102 103 104 105 106 107 
108 109 110 111 112 113 114 115 116 
117 118 119 120 121 122 123 124 125 
126 127 128 129 130 131 132 133 134 
135 136 137 138 139 140 141 142 143 
144 145 146 147 148 149 150 151 152 
153 154 155 156 157 158 159 160 161 
162 163 164 165 166 167 168 169 170 
171 172 173 174 175 176 177 178 179 
180 181 182 183 184 185 186 187 188 
189 190 191 192 193 194 195 196 197 
198 199 200 201 202 203 204 205 206 
207 208 209 210 211 212 213 214 215 
216 217 218 219 220 221 222 223 224 
225 226 227 228 229 230 231 232 233 
234 235 236 237 238 239 240 241 242 
243 244 245 246 247 248 249 250 251 
252 253 254 255 256 257 258 259 260 
261 262 263 264 265 266 267 268 269 
270 271 272 273 274 275 276 277 278 
279 280 281 282 283 284 285 286 287 
288 289 290 291 292 293 294 295 296 
297 298 299 300 301 302 303 304 305 
306 307 308 309 310 311 312 313 314 
315 316 317 318 319 320 321 322 323 
324 325 326 327 328 329 330 331 332 
333 334 335 336 337 338 339 340 341 
342 343 344 345 346 347 348 349 350 
351 352 353 354 355 356 357 358 359 
360 361 362 363 364 365 366 367 368 
369 370 371 372 373 374 375 376 377 
378 379 380 381 382 383 384 385 386 
387 388 389 390 391 392 393 394 395 
396 397 398 399 400 401 402 403 404 
405 406 407 408 409 410 411 412 413 
414 415 416 417 418 419 420 421 422 
423 424 425 426 427 428 429 430 431 
432 433 434 435 436 437 438 439 440 
441 442 443 444 445 446 447 448 449 
450 451 452 453 454 455 456 457 458 
459 460 461 462 463 464 465 466 467 
468 469 470 471 472 473 474 475 476 
477 478 479 480 481 482 483 484 485 
486 487 488 489 490 491 492 493 494 
495 496 497 498 499 500 501 502 503 
504 505 506 507 508 509 510 511 512 
513 514 515 516 517 518 519 520 521 
522 523 524 525 526 527 528 529 530 
531 532 533 534 535 536 537 538 539 
540 541 542 543 544 545 546 547 548 
549 550 551 552 553 554 555 556 557 
558 559 560 561 562 563 564 565 566 
567 568 569 570 571 572 573 574 575 
576 577 578 579 580 581 582 583 584 
585 586 587 588 589 590 591 592 593 
594 595 596 597 598 599 600 601 602 
603 604 605 606 607 608 
CONNECTIVITY vtktypeint64
0 1 2 3 4 5 6 7 8 
9 10 11 12 13 14 15 16 17 
18 19 20 21 22 23 24 25 26 
27 28 29 30 31 32 33 34 35 
36 37 38 39 40 41 42 43 44 
45 46 47 48 49 50 51 52 53 
54 55 56 57 58 59 60 61 62 
63 64 65 66 67 68 69 70 71 
72 73 74 75 76 77 78 79 80 
81 82 83 84 85 86 87 88 89 
90 91 92 93 94 95 96 97 98 
99 100 101 102 103 104 105 106 107 
108 109 110 111 112 113 114 115 116 
117 118 119 120 121 122 123 124 125 
126 127 128 129 130 131 132 133 134 
135 136 137 138 139 140 141 142 143 
144 145 146 147 148 149 150 151 152 
153 154 155 156 157 158 159 160 161 
162 163 164 165 166 167 168 169 170 
171 172 173 174 175 176 177 178 179 
180 181 182 183 184 185 186 187 188 
189 190 191 192 193 194 195 196 197 
198 199 200 201 202 203 204 205 206 
207 208 209 210 211 212 213 214 215 
216 217 218 219 220 221 222 223 224 
225 226 227 228 229 230 231 232 233 
234 235 236 237 238 239 240 241 242 
243 244 245 246 247 248 249 250 251 
252 253 254 255 256 257 258 259 260 
261 262 263 264 265 266 267 268 269 
270 271 272 273 274 275 276 277 278 
279 280 281 282 283 284 285 286 287 
288 289 290 291 292 293 294 295 296 
297 298 299 300 301 302 303 304 305 
306 307 308 309 310 311 312 313 314 
315 316 317 318 319 320 321 322 323 
324 325 326 327 328 329 330 331 332 
333 334 335 336 337 338 339 340 341 
342 343 344 345 346 347 348 349 350 
351 352 353 354 355 356 357 358 359 
360 361 362 363 364 365 366 367 368 
369 370 371 372 373 374 375 376 377 
378 379 380 381 382 383 384 385 386 
387 388 389 390 391 392 393 394 395 
396 397 398 399 400 401 402 403 404 
405 406 407 408 409 410 411 412 413 
414 415 416 417 418 419 420 421 422 
423 424 425 426 427 428 429 430 431 
432 433 434 435 436 437 438 439 440 
441 442 443 444 445 446 447 448 449 
450 451 452 453 454 455 456 457 458 
459 460 461 462 463 464 465 466 467 
468 469 470 471 472 473 474 475 476 
477 478 479 480 481 482 483 484 485 
486 487 488 489 490 491 492 493 494 
495 496 497 498 499 500 501 502 503 
504 505 506 507 508 509 510 511 512 
513 514 515 516 517 518 519 520 521 
522 523 524 525 526 527 528 529 530 
531 532 533 534 535 536 537 538 539 
540 541 542 543 544 545 546 547 548 
549 550 551 552 553 554 555 556 557 
558 559 560 561 562 563 564 565 566 
567 568 569 570 571 572 573 574 575 
576 577 578 579 580 581 582 583 584 
585 586 587 588 589 590 591 592 593 
594 595 596 597 598 599 600 601 602 
603 604 605 606 607 
POINT_DATA 608
FIELD FieldData 12
id 1 608 int
200 6 57 134 107 231 428 127 383 
197 169 26 270 362 164 115 291 176 
465 396 423 149 195 372 356 88 381 
336 370 11 86 219 12 185 247 215 
72 385 353 450 214 150 491 18 459 
190 106 125 418 165 373 189 187 253 
366 87 92 304 237 58 293 193 433 
364 14 508 83 322 339 9 280 506 
158 29 246 457 367 282 154 440 289 
483 186 458 407 166 49 386 256 331 
8 10 175 310 488 470 496 73 444 
66 36 297 521 233 591 13 317 292 
132 601 100 408 435 207 404 355 515 
467 432 529 162 321 327 85 559 22 
589 137 167 427 542 456 454 417 410 
155 406 463 411 347 505 5 290 500 
349 263 478 60 40 587 337 412 91 
326 229 51 267 439 16 399 567 424 
21 110 163 222 188 319 303 409 580 
2 90 112 4 261 54 104 199 536 
351 98 314 415 238 227 324 495 384 
357 30 318 576 298 553 240 248 32 
538 486 288 330 218 562 429 24 605 
571 543 96 168 61 141 236 161 76 
275 390 35 122 183 121 484 592 75 
255 446 15 447 504 328 113 271 34 
223 64 479 566 243 564 378 202 287 
198 320 577 549 174 211 377 196 129 
498 451 201 437 62 375 84 140 526 
28 157 311 341 519 546 474 401 119 
178 308 520 148 313 475 226 477 295 
472 111 551 216 596 81 570 128 572 
59 522 278 151 469 343 251 272 346 
414 604 146 563 299 257 20 208 63 
65 45 397 102 352 547 170 74 334 
244 528 17 395 392 431 394 206 268 
52 239 250 393 294 79 416 323 329 
260 53 511 252 171 142 205 56 363 
279 78 507 461 594 94 232 487 533 
573 462 38 265 565 545 144 420 325 
540 108 342 89 333 493 516 599 42 
368 593 425 345 273 117 109 509 348 
523 123 93 71 403 558 105 360 371 
204 217 379 213 481 225 579 68 597 
156 532 335 116 25 43 1 405 301 
426 266 524 455 421 286 182 361 350 
147 445 430 460 135 598 305 70 281 
31 471 489 527 448 380 585 285 212 
126 561 138 130 254 583 550 518 525 
139 276 557 124 221 607 179 466 586 
476 82 354 449 376 340 3 50 77 
503 453 338 296 480 442 181 560 315 
7 180 482 413 302 55 210 359 436 
548 539 517 603 300 501 153 316 595 
114 438 136 160 274 143 374 194 499 
145 443 33 332 258 99 513 177 441 
23 80 46 41 191 309 434 159 344 
47 307 103 502 234 578 530 284 245 
220 209 312 402 388 69 581 44 590 
497 48 358 228 118 485 452 242 534 
398 422 490 554 569 468 473 514 131 
387 120 259 101 365 389 262 97 269 
494 391 172 203 173 283 192 306 39 
464 152 552 230 492 37 95 608 27 
224 133 382 400 419 249 277 241 67 
264 510 184 369 235 19 512 535 600 
555 575 574 556 541 537 531 606 602 
588 544 568 582 584 
type 1 608 int
1 2 1 1 1 1 1 1 1 
1 1 1 1 1 1 1 1 1 
1 1 1 1 1 1 1 1 1 
1 1 2 1 1 2 1 1 1 
1 1 1 1 1 1 1 1 1 
1 1 1 1 1 1 1 1 1 
1 1 1 1 1 1 1 1 1 
1 2 1 1 1 1 2 1 1 
1 1 1 1 1 1 1 1 1 
1 1 1 1 1 1 1 1 1 
2 2 1 1 1 1 1 1 1 
1 1 1 1 1 1 2 1 1 
1 1 1 1 1 1 1 1 1 
1 1 1 1 1 1 1 1 1 
1 1 1 1 1 1 1 1 1 
1 1 1 1 1 1 2 1 1 
1 1 1 1 1 1 1 1 1 
1 1 1 1 1 2 1 1 1 
1 1 1 1 1 1 1 1 1 
3 1 1 2 1 1 1 1 1 
1 1 1 1 1 1 1 1 1 
1 1 1 1 1 1 1 1 1 
1 1 1 1 1 1 1 1 1 
1 1 1 1 1 1 1 1 1 
1 1 1 1 1 1 1 1 1 
1 1 2 1 1 1 1 1 1 
1 1 1 1 1 1 1 1 1 
1 1 1 1 1 1 1 1 1 
1 1 1 1 1 1 1 1 1 
1 1 1 1 1 1 1 1 1 
1 1 1 1 1 1 1 1 1 
1 1 1 1 1 1 1 1 1 
1 1 1 1 1 1 1 1 1 
1 1 1 1 1 1 1 1 1 
1 1 1 1 1 1 1 1 1 
1 1 1 1 1 1 1 1 1 
1 1 1 1 1 1 1 1 1 
1 1 1 1 1 1 1 1 1 
1 1 1 1 1 1 1 1 1 
1 1 1 1 1 1 1 1 1 
1 1 1 1 1 1 2 1 1 
1 1 1 1 1 1 1 1 1 
1 1 1 1 1 1 1 1 1 
1 1 1 1 1 1 1 1 1 
1 1 1 1 1 1 4 1 1 
1 1 1 1 1 1 1 1 1 
1 1 1 1 1 1 1 1 1 
1 1 1 1 1 1 1 1 1 
1 1 1 1 1 1 1 1 1 
1 1 1 1 1 1 1 1 1 
1 1 1 1 1 1 2 1 1 
1 1 1 1 1 1 1 1 1 
2 1 1 1 1 1 1 1 1 
1 1 1 1 1 1 1 1 1 
1 1 1 1 1 1 1 1 1 
1 1 1 1 1 1 1 1 1 
1 1 1 1 1 1 1 1 1 
1 1 1 1 1 1 1 1 1 
1 1 1 1 1 1 1 1 1 
1 1 1 1 1 1 1 1 1 
1 1 1 1 1 1 1 1 1 
1 1 1 1 1 1 1 1 1 
1 1 1 1 1 1 1 1 1 
1 1 1 1 1 1 1 1 1 
1 1 1 1 1 1 1 1 1 
1 1 1 1 1 1 2 1 1 
1 1 1 1 1 1 1 1 1 
1 1 1 1 1 
i 3 608 int
0 0 0 0 0 0 0 0 0 
0 0 0 0 0 0 0 0 0 
0 0 0 0 0 0 0 0 0 
0 0 0 0 0 0 0 0 0 
0 0 0 0 0 0 0 0 0 
0 0 0 0 0 0 0 0 0 
0 0 0 0 0 0 0 0 0 
0 0 0 0 0 0 0 0 0 
0 0 0 0 0 0 0 0 0 
0 0 0 0 0 0 0 0 0 
0 0 0 0 0 0 0 0 0 
0 0 0 0 0 0 0 0 0 
0 0 0 0 0 0 0 0 0 
0 0 0 0 0 0 0 0 0 
0 0 0 0 0 0 0 0 0 
0 0 0 0 0 0 0 0 0 
0 0 0 0 0 0 0 0 0 
0 0 0 0 0 0 0 0 0 
0 0 0 0 0 0 0 0 0 
0 0 0 0 0 0 0 0 0 
0 0 0 0 0 0 0 0 0 
0 0 0 0 0 0 0 0 0 
0 0 0 0 0 0 0 0 0 
0 0 0 0 0 0 0 0 0 
0 0 0 0 0 0 0 0 0 
0 0 0 0 0 0 0 0 0 
0 0 0 0 0 0 0 0 0 
0 0 0 0 0 0 0 0 0 
0 0 0 0 0 0 0 0 0 
0 0 0 0 0 0 0 0 0 
0 0 0 0 0 0 0 0 0 
0 0 0 0 0 0 0 0 0 
0 0 0 0 0 0 0 0 0 
0 0 0 0 0 0 0 0 0 
0 0 0 0 0 0 0 0 0 
0 0 0 0 0 0 0 0 0 
0 0 0 0 0 0 0 0 0 
0 0 0 0 0 0 0 0 0 
0 0 0 0 0 0 0 0 0 
0 0 0 0 0 0 0 0 0 
0 0 0 0 0 0 0 0 0 
0 0 0 0 0 0 0 0 0 
0 0 0 0 0 0 0 0 0 
0 0 0 0 0 0 0 0 0 
0 0 0 0 0 0 0 0 0 
0 0 0 0 0 0 0 0 0 
0 0 0 0 0 0 0 0 0 
0 0 0 0 0 0 0 0 0 
0 0 0 0 0 0 0 0 0 
0 0 0 0 0 0 0 0 0 
0 0 0 0 0 0 0 0 0 
0 0 0 0 0 0 0 0 0 
0 0 0 0 0 0 0 0 0 
0 0 0 0 0 0 0 0 0 
0 0 0 0 0 0 0 0 0 
0 0 0 0 0 0 0 0 0 
0 0 0 0 0 0 0 0 0 
0 0 0 0 0 0 0 0 0 
0 0 0 0 0 0 0 0 0 
0 0 0 0 0 0 0 0 0 
0 0 0 0 0 0 0 0 0 
0 0 0 0 0 0 0 0 0 
0 0 0 0 0 0 0 0 0 
0 0 0 0 0 0 0 0 0 
0 0 0 0 0 0 0 0 0 
0 0 0 0 0 0 0 0 0 
0 0 0 0 0 0 0 0 0 
0 0 0 0 0 0 0 0 0 
0 0 0 0 0 0 0 0 0 
0 0 0 0 0 0 0 0 0 
0 0 0 0 0 0 0 0 0 
0 0 0 0 0 0 0 0 0 
0 0 0 0 0 0 0 0 0 
0 0 0 0 0 0 0 0 0 
0 0 0 0 0 0 0 0 0 
0 0 0 0 0 0 0 0 0 
0 0 0 0 0 0 0 0 0 
0 0 0 0 0 0 0 0 0 
0 0 0 0 0 0 0 0 0 
0 0 0 0 0 0 0 0 0 
0 0 0 0 0 0 0 0 0 
0 0 0 0 0 0 0 0 0 
0 0 0 0 0 0 0 0 0 
0 0 0 0 0 0 0 0 0 
0 0 0 0 0 0 0 0 0 
0 0 0 0 0 0 0 0 0 
0 0 0 0 0 0 0 0 0 
0 0 0 0 0 0 0 0 0 
0 0 0 0 0 0 0 0 0 
0 0 0 0 0 0 0 0 0 
0 0 0 0 0 0 0 0 0 
0 0 0 0 0 0 0 0 0 
0 0 0 0 0 0 0 0 0 
0 0 0 0 0 0 0 0 0 
0 0 0 0 0 0 0 0 0 
0 0 0 0 0 0 0 0 0 
0 0 0 0 0 0 0 0 0 
0 0 0 0 0 0 0 0 0 
0 0 0 0 0 0 0 0 0 
0 0 0 0 0 0 0 0 0 
0 0 0 0 0 0 0 0 0 
0 0 0 0 0 0 0 0 0 
0 0 0 0 0 0 0 0 0 
0 0 0 0 0 0 0 0 0 
0 0 0 0 0 0 0 0 0 
0 0 0 0 0 0 0 0 0 
0 0 0 0 0 0 0 0 0 
0 0 0 0 0 0 0 0 0 
0 0 0 0 0 0 0 0 0 
0 0 0 0 0 0 0 0 0 
0 0 0 0 0 0 0 0 0 
0 0 0 0 0 0 0 0 0 
0 0 0 0 0 0 0 0 0 
0 0 0 0 0 0 0 0 0 
0 0 0 0 0 0 0 0 0 
0 0 0 0 0 0 0 0 0 
0 0 0 0 0 0 0 0 0 
0 0 0 0 0 0 0 0 0 
0 0 0 0 0 0 0 0 0 
0 0 0 0 0 0 0 0 0 
0 0 0 0 0 0 0 0 0 
0 0 0 0 0 0 0 0 0 
0 0 0 0 0 0 0 0 0 
0 0 0 0 0 0 0 0 0 
0 0 0 0 0 0 0 0 0 
0 0 0 0 0 0 0 0 0 
0 0 0 0 0 0 0 0 0 
0 0 0 0 0 0 0 0 0 
0 0 0 0 0 0 0 0 0 
0 0 0 0 0 0 0 0 0 
0 0 0 0 0 0 0 0 0 
0 0 0 0 0 0 0 0 0 
0 0 0 0 0 0 0 0 0 
0 0 0 0 0 0 0 0 0 
0 0 0 0 0 0 0 0 0 
0 0 0 0 0 0 0 0 0 
0 0 0 0 0 0 0 0 0 
0 0 0 0 0 0 0 0 0 
0 0 0 0 0 0 0 0 0 
0 0 0 0 0 0 0 0 0 
0 0 0 0 0 0 0 0 0 
0 0 0 0 0 0 0 0 0 
0 0 0 0 0 0 0 0 0 
0 0 0 0 0 0 0 0 0 
0 0 0 0 0 0 0 0 0 
0 0 0 0 0 0 0 0 0 
0 0 0 0 0 0 0 0 0 
0 0 0 0 0 0 0 0 0 
0 0 0 0 0 0 0 0 0 
0 0 0 0 0 0 0 0 0 
0 0 0 0 0 0 0 0 0 
0 0 0 0 0 0 0 0 0 
0 0 0 0 0 0 0 0 0 
0 0 0 0 0 0 0 0 0 
0 0 0 0 0 0 0 0 0 
0 0 0 0 0 0 0 0 0 
0 0 0 0 0 0 0 0 0 
0 0 0 0 0 0 0 0 0 
0 0 0 0 0 0 0 0 0 
0 0 0 0 0 0 0 0 0 
0 0 0 0 0 0 0 0 0 
0 0 0 0 0 0 0 0 0 
0 0 0 0 0 0 0 0 0 
0 0 0 0 0 0 0 0 0 
0 0 0 0 0 0 0 0 0 
0 0 0 0 0 0 0 0 0 
0 0 0 0 0 0 0 0 0 
0 0 0 0 0 0 0 0 0 
0 0 0 0 0 0 0 0 0 
0 0 0 0 0 0 0 0 0 
0 0 0 0 0 0 0 0 0 
0 0 0 0 0 0 0 0 0 
0 0 0 0 0 0 0 0 0 
0 0 0 0 0 0 0 0 0 
0 0 0 0 0 0 0 0 0 
0 0 0 0 0 0 0 0 0 
0 0 0 0 0 0 0 0 0 
0 0 0 0 0 0 0 0 0 
0 0 0 0 0 0 0 0 0 
0 0 0 0 0 0 0 0 0 
0 0 0 0 0 0 0 0 0 
0 0 0 0 0 0 0 0 0 
0 0 0 0 0 0 0 0 0 
0 0 0 0 0 0 0 0 0 
0 0 0 0 0 0 0 0 0 
0 0 0 0 0 0 0 0 0 
0 0 0 0 0 0 0 0 0 
0 0 0 0 0 0 0 0 0 
0 0 0 0 0 0 0 0 0 
0 0 0 0 0 0 0 0 0 
0 0 0 0 0 0 0 0 0 
0 0 0 0 0 0 0 0 0 
0 0 0 0 0 0 0 0 0 
0 0 0 0 0 0 0 0 0 
0 0 0 0 0 0 0 0 0 
0 0 0 0 0 0 0 0 0 
0 0 0 0 0 0 0 0 0 
0 0 0 0 0 0 0 0 0 
0 0 0 0 0 0 0 0 0 
0 0 0 0 0 0 0 0 0 
0 0 0 0 0 0 0 0 0 
0 0 0 0 0 0 0 0 0 
0 0 0 0 0 0 
v 3 608 double
0 0 -0.2138741875 0 0 -0.2138741875 0 0 -0.2138741875 
0 0 -0.2138741875 0 0 -0.2138741875 0 0 -0.2138741875 
0 0 -0.2138741875 0 0 -0.2138741875 0 0 -0.2138741875 
0 0 -0.2138741875 0 0 -0.2138741875 0 0 -0.2138741875 
0 0 -0.2138741875 0 0 -0.2138741875 0 0 -0.2138741875 
0 0 -0.2138741875 0 0 -0.2138741875 0 0 -0.2138741875 
0 0 -0.2138741875 0 0 -0.2138741875 0 0 -0.2138741875 
0 0 -0.2138741875 0 0 -0.2138741875 0 0 -0.2138741875 
0 0 -0.2138741875 0 0 -0.2138741875 0 0 -0.2138741875 
0 0 -0.2138741875 0 0 -0.2138741875 0 0 -0.2138741875 
0 0 -0.2138741875 0 0 -0.2138741875 0 0 -0.2138741875 
0 0 -0.2138741875 0 0 -0.2138741875 0 0 -0.2138741875 
0 0 -0.2138741875 0 0 -0.2138741875 0 0 -0.2138741875 
0 0 -0.2138741875 0 0 -0.2138741875 0 0 -0.2138741875 
0 0 -0.2138741875 0 0 -0.2138741875 0 0 -0.2138741875 
0 0 -0.2138741875 0 0 -0.2138741875 0 0 -0.2138741875 
0 0 -0.2138741875 0 0 -0.2138741875 0 0 -0.2138741875 
0 0 -0.2138741875 0 0 -0.2138741875 0 0 -0.2138741875 
0 0 -0.2138741875 0 0 -0.2138741875 0 0 -0.2138741875 
0 0 -0.2138741875 0 0 -0.2138741875 0 0 -0.2138741875 
0 0 -0.2138741875 0 0 -0.2138741875 0 0 -0.2138741875 
0 0 -0.2138741875 0 0 -0.2138741875 0 0 -0.1586241875 
0 0 -0.2138741875 0 0 -0.2138741875 0 0 -0.2138741875 
0 0 -0.2138741875 0 0 -0.2138741875 0 0 -0.1586241875 
0 0 -0.2138741875 0 0 -0.2138741875 0 0 -0.2138741875 
0 0 -0.2138741875 0 0 -0.2138741875 0 0 -0.2138741875 
0 0 -0.2138741875 0 0 -0.2138741875 0 0 -0.2138741875 
0 0 -0.2138741875 0 0 -0.2138741875 0 0 -0.2138741875 
0 0 -0.2138741875 0 0 -0.2138741875 0 0 -0.2138741875 
0 0 -0.2138741875 0 0 -0.2138741875 0 0 -0.2138741875 
0 0 -0.2138741875 0 0 -0.2138741875 0 0 -0.2138741875 
0 0 -0.2138741875 0 0 -0.2138741875 0 0 -0.2138741875 
0 0 -0.2138741875 0 0 -0.2138741875 0 0 -0.2138741875 
0 0 -0.2138741875 0 0 -0.2138741875 0 0 -0.2138741875 
0 0 -0.1261241875 0 0 -0.2138741875 0 0 -0.0253741875 
0 0 -0.2138741875 0 0 -0.2138741875 0 0 -0.2138741875 
0 0 -0.2138741875 0 0 -0.0091241875 0 0 -0.2138741875 
0 0 -0.2138741875 0 0 -0.2138741875 0 0 -0.2138741875 
0 0 -0.2138741875 0 0 -0.2138741875 0 0 -0.1391241875 
0 0 -0.2138741875 0 0 -0.2138741875 0 0 -0.1098741875 
0 0 -0.2138741875 0 0 -0.2138741875 0 0 -0.2138741875 
0 0 -0.2138741875 0 0 -0.0643741875 0 0 -0.2138741875 
0 0 -0.0253741875 0 0 -0.2138741875 0 0 -0.2138741875 
0 0 -0.2138741875 0 0 -0.0838741875 0 0 -0.2138741875 
0 0 -0.2138741875 0 0 -0.2138741875 0 0 -0.2138741875 
0 0 -0.2138741875 0 0 -0.2138741875 0 0 -0.2138741875 
0 0 -0.2138741875 0 0 -0.2138741875 0 0 -0.1781241875 
0 0 -0.2138741875 0 0 -0.2138741875 0 0 -0.2138741875 
0 0 -0.2138741875 0 0 -0.2138741875 0 0 -0.2138741875 
0 0 -0.2138741875 0 0 -0.2138741875 0 0 -0.0286241875 
0 0 -0.2138741875 0 0 -0.2138741875 0 0 -0.2138741875 
0 0 -0.2138741875 0 0 -0.2138741875 0 0 -0.2138741875 
0 0 -0.2138741875 0 0 -0.2138741875 0 0 -0.2138741875 
0 0 -0.2138741875 0 0 -0.0513741875 0 0 -0.2138741875 
0 0 -0.2138741875 0 0 -0.2138741875 0 0 -0.2138741875 
0 0 -0.2138741875 0 0 -0.2138741875 0 0 -0.2138741875 
0 0 -0.2138741875 0 0 -0.2138741875 0 0 -0.0351241875 
0 0 -0.2138741875 0 0 -0.2138741875 0 0 -0.2138741875 
0 0 -0.2138741875 0 0 -0.2138741875 0 0 -0.2138741875 
0 0 -0.2138741875 0 0 -0.2138741875 0 0 -0.0936241875 
0 0 -0.2138741875 0 0 -0.2138741875 0 0 -0.2138741875 
0 0 -0.2138741875 0 0 -0.2138741875 0 0 -0.2138741875 
0 0 -0.2138741875 0 0 -0.2138741875 0 0 -0.2138741875 
0 0 -0.2138741875 0 0 -0.2138741875 0 0 -0.2138741875 
0 0 -0.0383741875 0 0 -0.2138741875 0 0 -0.0708741875 
0 0 -0.2138741875 0 0 -0.2138741875 0 0 -0.2138741875 
0 0 -0.0903741875 0 0 -0.2138741875 0 0 -0.2138741875 
0 0 -0.2138741875 0 0 -0.2138741875 0 0 -0.0611241875 
0 0 -0.2138741875 0 0 -0.2138741875 0 0 -0.0058741875 
0 0 -0.0448741875 0 0 -0.0838741875 0 0 -0.2138741875 
0 0 -0.2138741875 0 0 -0.2138741875 0 0 -0.2138741875 
0 0 -0.2138741875 0 0 -0.2138741875 0 0 -0.2138741875 
0 0 -0.2138741875 0 0 -0.2138741875 0 0 -0.2138741875 
0 0 -0.2138741875 0 0 -0.2138741875 0 0 -0.2138741875 
0 0 -0.2138741875 0 0 -0.0221241875 0 0 -0.2138741875 
0 0 -0.2138741875 0 0 -0.2138741875 0 0 -0.2138741875 
0 0 -0.2138741875 0 0 -0.1813741875 0 0 -0.2138741875 
0 0 -0.2138741875 0 0 -0.2138741875 0 0 -0.2138741875 
0 0 -0.2138741875 0 0 -0.2138741875 0 0 -0.2138741875 
0 0 -0.0513741875 0 0 -0.2138741875 0 0 -0.0546241875 
0 0 -0.2138741875 0 0 -0.2138741875 0 0 -0.2138741875 
0 0 -0.2138741875 0 0 -0.2138741875 0 0 -0.0383741875 
0 0 -0.0741241875 0 0 -0.2138741875 0 0 -0.2138741875 
0 0 -0.2138741875 0 0 -0.2138741875 0 0 -0.2138741875 
0 0 -0.2138741875 0 0 -0.2138741875 0 0 -0.2138741875 
0 0 -0.2138741875 0 0 -0.2138741875 0 0 -0.2138741875 
0 0 -0.2138741875 0 0 -0.2138741875 0 0 -0.1131241875 
0 0 -0.2138741875 0 0 -0.2138741875 0 0 -0.2138741875 
0 0 -0.2138741875 0 0 -0.1293741875 0 0 -0.0773741875 
0 0 -0.2138741875 0 0 -0.2138741875 0 0 -0.2138741875 
0 0 -0.2138741875 0 0 -0.2138741875 0 0 -0.1293741875 
0 0 -0.2138741875 0 0 -0.2138741875 0 0 -0.2138741875 
0 0 -0.2138741875 0 0 -0.2138741875 0 0 -0.2138741875 
0 0 -0.2138741875 0 0 -0.2138741875 0 0 -0.0708741875 
0 0 -0.2138741875 0 0 -0.0156241875 0 0 -0.2138741875 
0 0 -0.0448741875 0 0 -0.2138741875 0 0 -0.0448741875 
0 0 -0.2138741875 0 0 -0.1261241875 0 0 -0.2138741875 
0 0 -0.2138741875 0 0 -0.2138741875 0 0 -0.2138741875 
0 0 -0.2138741875 0 0 -0.2138741875 0 0 -0.2138741875 
0 0 -0.2138741875 0 0 -0.0058741875 0 0 -0.2138741875 
0 0 -0.0578741875 0 0 -0.2138741875 0 0 -0.2138741875 
0 0 -0.2138741875 0 0 -0.2138741875 0 0 -0.2138741875 
0 0 -0.2138741875 0 0 -0.2138741875 0 0 -0.2138741875 
0 0 -0.2138741875 0 0 -0.2138741875 0 0 -0.0773741875 
0 0 -0.2138741875 0 0 -0.2138741875 0 0 -0.2138741875 
0 0 -0.2138741875 0 0 -0.1098741875 0 0 -0.2138741875 
0 0 -0.2138741875 0 0 -0.2138741875 0 0 -0.2138741875 
0 0 -0.2138741875 0 0 -0.2138741875 0 0 -0.2138741875 
0 0 -0.2138741875 0 0 -0.2138741875 0 0 -0.2138741875 
0 0 -0.2138741875 0 0 -0.2138741875 0 0 -0.2138741875 
0 0 -0.2138741875 0 0 -0.2138741875 0 0 -0.2138741875 
0 0 -0.2138741875 0 0 -0.2138741875 0 0 -0.1521241875 
0 0 -0.2138741875 0 0 -0.2138741875 0 0 -0.2138741875 
0 0 -0.2138741875 0 0 -0.2138741875 0 0 -0.2138741875 
0 0 -0.2138741875 0 0 -0.2138741875 0 0 -0.1586241875 
0 0 -0.2138741875 0 0 -0.0188741875 0 0 -0.2138741875 
0 0 -0.2138741875 0 0 -0.2138741875 0 0 -0.0968741875 
0 0 -0.0416241875 0 0 -0.2138741875 0 0 -0.2138741875 
0 0 -0.2138741875 0 0 -0.0546241875 0 0 -0.0806241875 
0 0 -0.2138741875 0 0 -0.2138741875 0 0 -0.2138741875 
0 0 -0.0871241875 0 0 -0.2138741875 0 0 -0.2138741875 
0 0 -0.2138741875 0 0 -0.2138741875 0 0 -0.2138741875 
0 0 -0.1358741875 0 0 -0.0123741875 0 0 -0.2138741875 
0 0 -0.2138741875 0 0 -0.0188741875 0 0 -0.2138741875 
0 0 -0.2138741875 0 0 -0.2138741875 0 0 -0.2138741875 
0 0 -0.2138741875 0 0 -0.1521241875 0 0 -0.2138741875 
0 0 -0.1228741875 0 0 -0.2138741875 0 0 -0.2138741875 
0 0 -0.2138741875 0 0 -0.2138741875 0 0 -0.0643741875 
0 0 -0.2138741875 0 0 -0.2138741875 0 0 -0.2138741875 
0 0 -0.2138741875 0 0 -0.2138741875 0 0 -0.2138741875 
0 0 -0.2138741875 0 0 -0.2138741875 0 0 -0.2138741875 
0 0 -0.0351241875 0 0 -0.2138741875 0 0 -0.0156241875 
0 0 -0.2138741875 0 0 -0.1001241875 0 0 -0.2138741875 
0 0 -0.2138741875 0 0 -0.2138741875 0 0 -0.2138741875 
0 0 -0.2138741875 0 0 -0.2138741875 0 0 -0.2138741875 
0 0 -0.2138741875 0 0 -0.2138741875 0 0 -0.1228741875 
0 0 -0.2138741875 0 0 -0.2138741875 0 0 -0.2138741875 
0 0 -0.2138741875 0 0 -0.2138741875 0 0 -0.2138741875 
0 0 -0.2138741875 0 0 -0.2138741875 0 0 -0.2138741875 
0 0 -0.2138741875 0 0 -0.2138741875 0 0 -0.0156241875 
0 0 -0.2138741875 0 0 -0.2138741875 0 0 -0.2138741875 
0 0 -0.2138741875 0 0 -0.2138741875 0 0 -0.2138741875 
0 0 -0.1131241875 0 0 -0.2138741875 0 0 -0.2138741875 
0 0 -0.0318741875 0 0 -0.2138741875 0 0 -0.2138741875 
0 0 -0.2138741875 0 0 -0.0611241875 0 0 -0.2138741875 
0 0 -0.2138741875 0 0 -0.2138741875 0 0 -0.0318741875 
0 0 -0.0741241875 0 0 -0.1358741875 0 0 -0.1163741875 
0 0 -0.2138741875 0 0 -0.2138741875 0 0 -0.0643741875 
0 0 -0.2138741875 0 0 -0.2138741875 0 0 -0.0026241875 
0 0 -0.2138741875 0 0 -0.2138741875 0 0 -0.0286241875 
0 0 -0.2138741875 0 0 -0.2138741875 0 0 -0.2138741875 
0 0 -0.2138741875 0 0 -0.2138741875 0 0 -0.2138741875 
0 0 -0.2138741875 0 0 -0.2138741875 0 0 -0.2138741875 
0 0 -0.1943741875 0 0 -0.2138741875 0 0 -0.2138741875 
0 0 -0.2138741875 0 0 -0.2138741875 0 0 -0.2138741875 
0 0 -0.2138741875 0 0 -0.0611241875 0 0 -0.2138741875 
0 0 -0.2138741875 0 0 -0.2138741875 0 0 -0.2138741875 
0 0 -0.2138741875 0 0 -0.2138741875 0 0 -0.2138741875 
0 0 -0.2138741875 0 0 -0.2138741875 0 0 -0.2138741875 
0 0 -0.0741241875 0 0 -0.0871241875 0 0 -0.1358741875 
0 0 -0.0058741875 0 0 -0.2138741875 0 0 -0.2008741875 
0 0 -0.2138741875 0 0 -0.2138741875 0 0 -0.0188741875 
0 0 -0.2138741875 0 0 -0.2138741875 0 0 -0.2138741875 
0 0 -0.2138741875 0 0 -0.2138741875 0 0 -0.2138741875 
0 0 -0.2138741875 0 0 -0.2138741875 0 0 -0.2138741875 
0 0 -0.2138741875 0 0 -0.2138741875 0 0 -0.2138741875 
0 0 -0.2138741875 0 0 -0.2138741875 0 0 -0.2138741875 
0 0 -0.1456241875 0 0 -0.2138741875 0 0 -0.2138741875 
0 0 -0.2138741875 0 0 -0.2138741875 0 0 -0.2138741875 
0 0 -0.2138741875 0 0 -0.2138741875 0 0 -0.2138741875 
0 0 -0.2138741875 0 0 -0.2138741875 0 0 -0.2138741875 
0 0 -0.2138741875 0 0 -0.2138741875 0 0 -0.2138741875 
0 0 -0.2008741875 0 0 -0.2138741875 0 0 -0.0351241875 
0 0 -0.1033741875 0 0 -0.2138741875 0 0 -0.2138741875 
0 0 -0.2138741875 0 0 -0.2138741875 0 0 -0.2138741875 
0 0 -0.2138741875 0 0 -0.2138741875 0 0 -0.2138741875 
0 0 -0.0351241875 0 0 -0.2138741875 0 0 -0.0253741875 
0 0 -0.2138741875 0 0 -0.2138741875 0 0 -0.2138741875 
0 0 -0.2138741875 0 0 -0.2138741875 0 0 -0.2138741875 
0 0 -0.2138741875 0 0 -0.2138741875 0 0 -0.0968741875 
0 0 -0.2138741875 0 0 -0.2138741875 0 0 -0.2138741875 
0 0 -0.0676241875 0 0 -0.0448741875 0 0 -0.2138741875 
0 0 -0.2138741875 0 0 -0.1456241875 0 0 -0.2138741875 
0 0 -0.2138741875 0 0 -0.2138741875 0 0 -0.2138741875 
0 0 -0.2138741875 0 0 -0.2138741875 0 0 -0.2138741875 
0 0 -0.2138741875 0 0 -0.2138741875 0 0 -0.2138741875 
0 0 -0.2138741875 0 0 -0.2138741875 0 0 -0.2138741875 
0 0 -0.2138741875 0 0 -0.2138741875 0 0 -0.2138741875 
0 0 -0.2138741875 0 0 -0.2138741875 0 0 -0.2138741875 
0 0 -0.2138741875 0 0 -0.2138741875 0 0 -0.0708741875 
0 0 -0.2138741875 0 0 -0.2138741875 0 0 -0.2138741875 
0 0 -0.2138741875 0 0 -0.0026241875 0 0 -0.2138741875 
0 0 -0.2138741875 0 0 -0.2138741875 0 0 -0.2138741875 
0 0 -0.2138741875 0 0 -0.2138741875 0 0 -0.2138741875 
0 0 -0.2138741875 0 0 -0.2138741875 0 0 -0.2138741875 
0 0 -0.2138741875 0 0 -0.1521241875 0 0 -0.2138741875 
0 0 -0.2138741875 0 0 -0.2138741875 0 0 -0.2138741875 
0 0 -0.1456241875 0 0 -0.0936241875 0 0 -0.0091241875 
0 0 -0.0676241875 0 0 -0.0416241875 0 0 -0.0416241875 
0 0 -0.0676241875 0 0 -0.0871241875 0 0 -0.0936241875 
0 0 -0.1033741875 0 0 -0.0058741875 0 0 -0.0058741875 
0 0 -0.0286241875 0 0 -0.0838741875 0 0 -0.0481241875 
0 0 -0.0318741875 0 0 -0.0318741875 
f 3 608 double
0 0 -1.7425367252e-10 0 0 -8.9019973083e-09 0 0 -1.7425367252e-10 
0 0 -1.7425367252e-10 0 0 -1.7425367252e-10 0 0 -1.7425367252e-10 
0 0 -1.7425367252e-10 0 0 -1.7425367252e-10 0 0 -1.7425367252e-10 
0 0 -1.7425367252e-10 0 0 -1.7425367252e-10 0 0 -1.7425367252e-10 
0 0 -1.7425367252e-10 0 0 -1.7425367252e-10 0 0 -1.7425367252e-10 
0 0 -1.7425367252e-10 0 0 -1.7425367252e-10 0 0 -1.7425367252e-10 
0 0 -1.7425367252e-10 0 0 -1.7425367252e-10 0 0 -1.7425367252e-10 
0 0 -1.7425367252e-10 0 0 -1.7425367252e-10 0 0 -1.7425367252e-10 
0 0 -1.7425367252e-10 0 0 -1.7425367252e-10 0 0 -1.7425367252e-10 
0 0 -1.7425367252e-10 0 0 -1.7425367252e-10 0 0 -8.9019973083e-09 
0 0 -1.7425367252e-10 0 0 -1.7425367252e-10 0 0 -8.9019973083e-09 
0 0 -1.7425367252e-10 0 0 -1.7425367252e-10 0 0 -1.7425367252e-10 
0 0 -1.7425367252e-10 0 0 -1.7425367252e-10 0 0 -1.7425367252e-10 
0 0 -1.7425367252e-10 0 0 -1.7425367252e-10 0 0 -1.7425367252e-10 
0 0 -1.7425367252e-10 0 0 -1.7425367252e-10 0 0 -1.7425367252e-10 
0 0 -1.7425367252e-10 0 0 -1.7425367252e-10 0 0 -1.7425367252e-10 
0 0 -1.7425367252e-10 0 0 -1.7425367252e-10 0 0 -1.7425367252e-10 
0 0 -1.7425367252e-10 0 0 -1.7425367252e-10 0 0 -1.7425367252e-10 
0 0 -1.7425367252e-10 0 0 -1.7425367252e-10 0 0 -1.7425367252e-10 
0 0 -1.7425367252e-10 0 0 -1.7425367252e-10 0 0 -1.7425367252e-10 
0 0 -1.7425367252e-10 0 0 -1.7425367252e-10 0 0 -1.7425367252e-10 
0 0 -1.7425367252e-10 0 0 -8.9019973083e-09 0 0 -1.7425367252e-10 
0 0 -1.7425367252e-10 0 0 -1.7425367252e-10 0 0 -1.7425367252e-10 
0 0 -8.9019973083e-09 0 0 -1.7425367252e-10 0 0 -1.7425367252e-10 
0 0 -1.7425367252e-10 0 0 -1.7425367252e-10 0 0 -1.7425367252e-10 
0 0 -1.7425367252e-10 0 0 -1.7425367252e-10 0 0 -1.7425367252e-10 
0 0 -1.7425367252e-10 0 0 -1.7425367252e-10 0 0 -1.7425367252e-10 
0 0 -1.7425367252e-10 0 0 -1.7425367252e-10 0 0 -1.7425367252e-10 
0 0 -1.7425367252e-10 0 0 -1.7425367252e-10 0 0 -1.7425367252e-10 
0 0 -1.7425367252e-10 0 0 -1.7425367252e-10 0 0 -1.7425367252e-10 
0 0 -8.9019973083e-09 0 0 -8.9019973083e-09 0 0 -1.7425367252e-10 
0 0 -1.7425367252e-10 0 0 -1.7425367252e-10 0 0 -1.7425367252e-10 
0 0 -1.7425367252e-10 0 0 -1.7425367252e-10 0 0 -1.7425367252e-10 
0 0 -1.7425367252e-10 0 0 -1.7425367252e-10 0 0 -1.7425367252e-10 
0 0 -1.7425367252e-10 0 0 -1.7425367252e-10 0 0 -1.7425367252e-10 
0 0 -8.9019973083e-09 0 0 -1.7425367252e-10 0 0 -1.7425367252e-10 
0 0 -1.7425367252e-10 0 0 -1.7425367252e-10 0 0 -1.7425367252e-10 
0 0 -1.7425367252e-10 0 0 -1.7425367252e-10 0 0 -1.7425367252e-10 
0 0 -1.7425367252e-10 0 0 -1.7425367252e-10 0 0 -1.7425367252e-10 
0 0 -1.7425367252e-10 0 0 -1.7425367252e-10 0 0 -1.7425367252e-10 
0 0 -1.7425367252e-10 0 0 -1.7425367252e-10 0 0 -1.7425367252e-10 
0 0 -1.7425367252e-10 0 0 -1.7425367252e-10 0 0 -1.7425367252e-10 
0 0 -1.7425367252e-10 0 0 -1.7425367252e-10 0 0 -1.7425367252e-10 
0 0 -1.7425367252e-10 0 0 -1.7425367252e-10 0 0 -1.7425367252e-10 
0 0 -1.7425367252e-10 0 0 -1.7425367252e-10 0 0 -1.7425367252e-10 
0 0 -1.7425367252e-10 0 0 -1.7425367252e-10 0 0 -1.7425367252e-10 
0 0 -1.7425367252e-10 0 0 -1.7425367252e-10 0 0 -1.7425367252e-10 
0 0 -8.9019973083e-09 0 0 -1.7425367252e-10 0 0 -1.7425367252e-10 
0 0 -1.7425367252e-10 0 0 -1.7425367252e-10 0 0 -1.7425367252e-10 
0 0 -1.7425367252e-10 0 0 -1.7425367252e-10 0 0 -1.7425367252e-10 
0 0 -1.7425367252e-10 0 0 -1.7425367252e-10 0 0 -1.7425367252e-10 
0 0 -1.7425367252e-10 0 0 -1.7425367252e-10 0 0 -1.7425367252e-10 
0 0 -1.7425367252e-10 0 0 -1.7425367252e-10 0 0 -8.9019973083e-09 
0 0 -1.7425367252e-10 0 0 -1.7425367252e-10 0 0 -1.7425367252e-10 
0 0 -1.7425367252e-10 0 0 -1.7425367252e-10 0 0 -1.7425367252e-10 
0 0 -1.7425367252e-10 0 0 -1.7425367252e-10 0 0 -1.7425367252e-10 
0 0 -1.7425367252e-10 0 0 -1.7425367252e-10 0 0 -1.7425367252e-10 
0 0 -6.8918688838e-08 0 0 -1.7425367252e-10 0 0 -1.7425367252e-10 
0 0 -8.9019973083e-09 0 0 -1.7425367252e-10 0 0 -1.7425367252e-10 
0 0 -1.7425367252e-10 0 0 -1.7425367252e-10 0 0 -1.7425367252e-10 
0 0 -1.7425367252e-10 0 0 -1.7425367252e-10 0 0 -1.7425367252e-10 
0 0 -1.7425367252e-10 0 0 -1.7425367252e-10 0 0 -1.7425367252e-10 
0 0 -1.7425367252e-10 0 0 -1.7425367252e-10 0 0 -1.7425367252e-10 
0 0 -1.7425367252e-10 0 0 -1.7425367252e-10 0 0 -1.7425367252e-10 
0 0 -1.7425367252e-10 0 0 -1.7425367252e-10 0 0 -1.7425367252e-10 
0 0 -1.7425367252e-10 0 0 -1.7425367252e-10 0 0 -1.7425367252e-10 
0 0 -1.7425367252e-10 0 0 -1.7425367252e-10 0 0 -1.7425367252e-10 
0 0 -1.7425367252e-10 0 0 -1.7425367252e-10 0 0 -1.7425367252e-10 
0 0 -1.7425367252e-10 0 0 -1.7425367252e-10 0 0 -1.7425367252e-10 
0 0 -1.7425367252e-10 0 0 -1.7425367252e-10 0 0 -1.7425367252e-10 
0 0 -1.7425367252e-10 0 0 -1.7425367252e-10 0 0 -1.7425367252e-10 
0 0 -1.7425367252e-10 0 0 -1.7425367252e-10 0 0 -1.7425367252e-10 
0 0 -1.7425367252e-10 0 0 -1.7425367252e-10 0 0 -1.7425367252e-10 
0 0 -1.7425367252e-10 0 0 -1.7425367252e-10 0 0 -1.7425367252e-10 
0 0 -1.7425367252e-10 0 0 -1.7425367252e-10 0 0 -1.7425367252e-10 
0 0 -1.7425367252e-10 0 0 -1.7425367252e-10 0 0 -8.9019973083e-09 
0 0 -1.7425367252e-10 0 0 -1.7425367252e-10 0 0 -1.7425367252e-10 
0 0 -1.7425367252e-10 0 0 -1.7425367252e-10 0 0 -1.7425367252e-10 
0 0 -1.7425367252e-10 0 0 -1.7425367252e-10 0 0 -1.7425367252e-10 
0 0 -1.7425367252e-10 0 0 -1.7425367252e-10 0 0 -1.7425367252e-10 
0 0 -1.7425367252e-10 0 0 -1.7425367252e-10 0 0 -1.7425367252e-10 
0 0 -1.7425367252e-10 0 0 -1.7425367252e-10 0 0 -1.7425367252e-10 
0 0 -1.7425367252e-10 0 0 -1.7425367252e-10 0 0 -1.7425367252e-10 
0 0 -1.7425367252e-10 0 0 -1.7425367252e-10 0 0 -1.7425367252e-10 
0 0 -1.7425367252e-10 0 0 -1.7425367252e-10 0 0 -1.7425367252e-10 
0 0 -1.7425367252e-10 0 0 -1.7425367252e-10 0 0 -1.7425367252e-10 
0 0 -1.7425367252e-10 0 0 -1.7425367252e-10 0 0 -1.7425367252e-10 
0 0 -1.7425367252e-10 0 0 -1.7425367252e-10 0 0 -1.7425367252e-10 
0 0 -1.7425367252e-10 0 0 -1.7425367252e-10 0 0 -1.7425367252e-10 
0 0 -1.7425367252e-10 0 0 -1.7425367252e-10 0 0 -1.7425367252e-10 
0 0 -1.7425367252e-10 0 0 -1.7425367252e-10 0 0 -1.7425367252e-10 
0 0 -1.7425367252e-10 0 0 -1.7425367252e-10 0 0 -1.7425367252e-10 
0 0 -1.7425367252e-10 0 0 -1.7425367252e-10 0 0 -1.7425367252e-10 
0 0 -1.7425367252e-10 0 0 -1.7425367252e-10 0 0 -1.7425367252e-10 
0 0 -1.7425367252e-10 0 0 -1.7425367252e-10 0 0 -1.7425367252e-10 
0 0 -1.7425367252e-10 0 0 -1.7425367252e-10 0 0 -1.7425367252e-10 
0 0 -1.7425367252e-10 0 0 -1.7425367252e-10 0 0 -1.7425367252e-10 
0 0 -1.7425367252e-10 0 0 -1.7425367252e-10 0 0 -1.7425367252e-10 
0 0 -1.7425367252e-10 0 0 -1.7425367252e-10 0 0 -1.7425367252e-10 
0 0 -1.7425367252e-10 0 0 -1.7425367252e-10 0 0 -1.7425367252e-10 
0 0 -1.7425367252e-10 0 0 -1.7425367252e-10 0 0 -1.7425367252e-10 
0 0 -1.7425367252e-10 0 0 -1.7425367252e-10 0 0 -1.7425367252e-10 
0 0 -1.7425367252e-10 0 0 -1.7425367252e-10 0 0 -1.7425367252e-10 
0 0 -1.7425367252e-10 0 0 -1.7425367252e-10 0 0 -1.7425367252e-10 
0 0 -1.7425367252e-10 0 0 -1.7425367252e-10 0 0 -1.7425367252e-10 
0 0 -1.7425367252e-10 0 0 -1.7425367252e-10 0 0 -1.7425367252e-10 
0 0 -1.7425367252e-10 0 0 -1.7425367252e-10 0 0 -1.7425367252e-10 
0 0 -1.7425367252e-10 0 0 -1.7425367252e-10 0 0 -1.7425367252e-10 
0 0 -1.7425367252e-10 0 0 -1.7425367252e-10 0 0 -1.7425367252e-10 
0 0 -1.7425367252e-10 0 0 -1.7425367252e-10 0 0 -1.7425367252e-10 
0 0 -1.7425367252e-10 0 0 -1.7425367252e-10 0 0 -1.7425367252e-10 
0 0 -1.7425367252e-10 0 0 -1.7425367252e-10 0 0 -1.7425367252e-10 
0 0 -1.7425367252e-10 0 0 -1.7425367252e-10 0 0 -1.7425367252e-10 
0 0 -1.7425367252e-10 0 0 -1.7425367252e-10 0 0 -1.7425367252e-10 
0 0 -1.7425367252e-10 0 0 -1.7425367252e-10 0 0 -1.7425367252e-10 
0 0 -1.7425367252e-10 0 0 -1.7425367252e-10 0 0 -1.7425367252e-10 
0 0 -1.7425367252e-10 0 0 -1.7425367252e-10 0 0 -1.7425367252e-10 
0 0 -1.7425367252e-10 0 0 -1.7425367252e-10 0 0 -1.7425367252e-10 
0 0 -1.7425367252e-10 0 0 -1.7425367252e-10 0 0 -1.7425367252e-10 
0 0 -1.7425367252e-10 0 0 -1.7425367252e-10 0 0 -1.7425367252e-10 
0 0 -1.7425367252e-10 0 0 -1.7425367252e-10 0 0 -1.7425367252e-10 
0 0 -1.7425367252e-10 0 0 -1.7425367252e-10 0 0 -1.7425367252e-10 
0 0 -8.9019973083e-09 0 0 -1.7425367252e-10 0 0 -1.7425367252e-10 
0 0 -1.7425367252e-10 0 0 -1.7425367252e-10 0 0 -1.7425367252e-10 
0 0 -1.7425367252e-10 0 0 -1.7425367252e-10 0 0 -1.7425367252e-10 
0 0 -1.7425367252e-10 0 0 -1.7425367252e-10 0 0 -1.7425367252e-10 
0 0 -1.7425367252e-10 0 0 -1.7425367252e-10 0 0 -1.7425367252e-10 
0 0 -1.7425367252e-10 0 0 -1.7425367252e-10 0 0 -1.7425367252e-10 
0 0 -1.7425367252e-10 0 0 -1.7425367252e-10 0 0 -1.7425367252e-10 
0 0 -1.7425367252e-10 0 0 -1.7425367252e-10 0 0 -1.7425367252e-10 
0 0 -1.7425367252e-10 0 0 -1.7425367252e-10 0 0 -1.7425367252e-10 
0 0 -1.7425367252e-10 0 0 -1.7425367252e-10 0 0 -1.7425367252e-10 
0 0 -1.7425367252e-10 0 0 -1.7425367252e-10 0 0 -1.7425367252e-10 
0 0 -1.7425367252e-10 0 0 -1.7425367252e-10 0 0 -1.7425367252e-10 
0 0 -5.3297119368e-07 0 0 -1.7425367252e-10 0 0 -1.7425367252e-10 
0 0 -1.7425367252e-10 0 0 -1.7425367252e-10 0 0 -1.7425367252e-10 
0 0 -1.7425367252e-10 0 0 -1.7425367252e-10 0 0 -1.7425367252e-10 
0 0 -1.7425367252e-10 0 0 -1.7425367252e-10 0 0 -1.7425367252e-10 
0 0 -1.7425367252e-10 0 0 -1.7425367252e-10 0 0 -1.7425367252e-10 
0 0 -1.7425367252e-10 0 0 -1.7425367252e-10 0 0 -1.7425367252e-10 
0 0 -1.7425367252e-10 0 0 -1.7425367252e-10 0 0 -1.7425367252e-10 
0 0 -1.7425367252e-10 0 0 -1.7425367252e-10 0 0 -1.7425367252e-10 
0 0 -1.7425367252e-10 0 0 -1.7425367252e-10 0 0 -1.7425367252e-10 
0 0 -1.7425367252e-10 0 0 -1.7425367252e-10 0 0 -1.7425367252e-10 
0 0 -1.7425367252e-10 0 0 -1.7425367252e-10 0 0 -1.7425367252e-10 
0 0 -1.7425367252e-10 0 0 -1.7425367252e-10 0 0 -1.7425367252e-10 
0 0 -1.7425367252e-10 0 0 -1.7425367252e-10 0 0 -1.7425367252e-10 
0 0 -1.7425367252e-10 0 0 -1.7425367252e-10 0 0 -1.7425367252e-10 
0 0 -1.7425367252e-10 0 0 -1.7425367252e-10 0 0 -1.7425367252e-10 
0 0 -1.7425367252e-10 0 0 -1.7425367252e-10 0 0 -1.7425367252e-10 
0 0 -1.7425367252e-10 0 0 -1.7425367252e-10 0 0 -1.7425367252e-10 
0 0 -1.7425367252e-10 0 0 -1.7425367252e-10 0 0 -1.7425367252e-10 
0 0 -8.9019973083e-09 0 0 -1.7425367252e-10 0 0 -1.7425367252e-10 
0 0 -1.7425367252e-10 0 0 -1.7425367252e-10 0 0 -1.7425367252e-10 
0 0 -1.7425367252e-10 0 0 -1.7425367252e-10 0 0 -1.7425367252e-10 
0 0 -1.7425367252e-10 0 0 -1.7425367252e-10 0 0 -1.7425367252e-10 
0 0 -8.9019973083e-09 0 0 -1.7425367252e-10 0 0 -1.7425367252e-10 
0 0 -1.7425367252e-10 0 0 -1.7425367252e-10 0 0 -1.7425367252e-10 
0 0 -1.7425367252e-10 0 0 -1.7425367252e-10 0 0 -1.7425367252e-10 
0 0 -1.7425367252e-10 0 0 -1.7425367252e-10 0 0 -1.7425367252e-10 
0 0 -1.7425367252e-10 0 0 -1.7425367252e-10 0 0 -1.7425367252e-10 
0 0 -1.7425367252e-10 0 0 -1.7425367252e-10 0 0 -1.7425367252e-10 
0 0 -1.7425367252e-10 0 0 -1.7425367252e-10 0 0 -1.7425367252e-10 
0 0 -1.7425367252e-10 0 0 -1.7425367252e-10 0 0 -1.7425367252e-10 
0 0 -1.7425367252e-10 0 0 -1.7425367252e-10 0 0 -1.7425367252e-10 
0 0 -1.7425367252e-10 0 0 -1.7425367252e-10 0 0 -1.7425367252e-10 
0 0 -1.7425367252e-10 0 0 -1.7425367252e-10 0 0 -1.7425367252e-10 
0 0 -1.7425367252e-10 0 0 -1.7425367252e-10 0 0 -1.7425367252e-10 
0 0 -1.7425367252e-10 0 0 -1.7425367252e-10 0 0 -1.7425367252e-10 
0 0 -1.7425367252e-10 0 0 -1.7425367252e-10 0 0 -1.7425367252e-10 
0 0 -1.7425367252e-10 0 0 -1.7425367252e-10 0 0 -1.7425367252e-10 
0 0 -1.7425367252e-10 0 0 -1.7425367252e-10 0 0 -1.7425367252e-10 
0 0 -1.7425367252e-10 0 0 -1.7425367252e-10 0 0 -1.7425367252e-10 
0 0 -1.7425367252e-10 0 0 -1.7425367252e-10 0 0 -1.7425367252e-10 
0 0 -1.7425367252e-10 0 0 -1.7425367252e-10 0 0 -1.7425367252e-10 
0 0 -1.7425367252e-10 0 0 -1.7425367252e-10 0 0 -1.7425367252e-10 
0 0 -1.7425367252e-10 0 0 -1.7425367252e-10 0 0 -1.7425367252e-10 
0 0 -1.7425367252e-10 0 0 -1.7425367252e-10 0 0 -1.7425367252e-10 
0 0 -1.7425367252e-10 0 0 -1.7425367252e-10 0 0 -1.7425367252e-10 
0 0 -1.7425367252e-10 0 0 -1.7425367252e-10 0 0 -1.7425367252e-10 
0 0 -1.7425367252e-10 0 0 -1.7425367252e-10 0 0 -1.7425367252e-10 
0 0 -1.7425367252e-10 0 0 -1.7425367252e-10 0 0 -1.7425367252e-10 
0 0 -1.7425367252e-10 0 0 -1.7425367252e-10 0 0 -1.7425367252e-10 
0 0 -1.7425367252e-10 0 0 -1.7425367252e-10 0 0 -1.7425367252e-10 
0 0 -1.7425367252e-10 0 0 -1.7425367252e-10 0 0 -1.7425367252e-10 
0 0 -1.7425367252e-10 0 0 -1.7425367252e-10 0 0 -1.7425367252e-10 
0 0 -1.7425367252e-10 0 0 -1.7425367252e-10 0 0 -1.7425367252e-10 
0 0 -1.7425367252e-10 0 0 -1.7425367252e-10 0 0 -1.7425367252e-10 
0 0 -1.7425367252e-10 0 0 -1.7425367252e-10 0 0 -1.7425367252e-10 
0 0 -1.7425367252e-10 0 0 -1.7425367252e-10 0 0 -1.7425367252e-10 
0 0 -1.7425367252e-10 0 0 -1.7425367252e-10 0 0 -1.7425367252e-10 
0 0 -1.7425367252e-10 0 0 -1.7425367252e-10 0 0 -1.7425367252e-10 
0 0 -1.7425367252e-10 0 0 -1.7425367252e-10 0 0 -1.7425367252e-10 
0 0 -1.7425367252e-10 0 0 -1.7425367252e-10 0 0 -1.7425367252e-10 
0 0 -1.7425367252e-10 0 0 -1.7425367252e-10 0 0 -1.7425367252e-10 
0 0 -1.7425367252e-10 0 0 -1.7425367252e-10 0 0 -1.7425367252e-10 
0 0 -1.7425367252e-10 0 0 -1.7425367252e-10 0 0 -1.7425367252e-10 
0 0 -8.9019973083e-09 0 0 -1.7425367252e-10 0 0 -1.7425367252e-10 
0 0 -1.7425367252e-10 0 0 -1.7425367252e-10 0 0 -1.7425367252e-10 
0 0 -1.7425367252e-10 0 0 -1.7425367252e-10 0 0 -1.7425367252e-10 
0 0 -1.7425367252e-10 0 0 -1.7425367252e-10 0 0 -1.7425367252e-10 
0 0 -1.7425367252e-10 0 0 -1.7425367252e-10 0 0 -1.7425367252e-10 
0 0 -1.7425367252e-10 0 0 -1.7425367252e-10 
radius 1 608 double
2e-05 7.5e-05 2e-05 2e-05 2e-05 2e-05 2e-05 2e-05 2e-05 
2e-05 2e-05 2e-05 2e-05 2e-05 2e-05 2e-05 2e-05 2e-05 
2e-05 2e-05 2e-05 2e-05 2e-05 2e-05 2e-05 2e-05 2e-05 
2e-05 2e-05 7.5e-05 2e-05 2e-05 7.5e-05 2e-05 2e-05 2e-05 
2e-05 2e-05 2e-05 2e-05 2e-05 2e-05 2e-05 2e-05 2e-05 
2e-05 2e-05 2e-05 2e-05 2e-05 2e-05 2e-05 2e-05 2e-05 
2e-05 2e-05 2e-05 2e-05 2e-05 2e-05 2e-05 2e-05 2e-05 
2e-05 7.5e-05 2e-05 2e-05 2e-05 2e-05 7.5e-05 2e-05 2e-05 
2e-05 2e-05 2e-05 2e-05 2e-05 2e-05 2e-05 2e-05 2e-05 
2e-05 2e-05 2e-05 2e-05 2e-05 2e-05 2e-05 2e-05 2e-05 
7.5e-05 7.5e-05 2e-05 2e-05 2e-05 2e-05 2e-05 2e-05 2e-05 
2e-05 2e-05 2e-05 2e-05 2e-05 2e-05 7.5e-05 2e-05 2e-05 
2e-05 2e-05 2e-05 2e-05 2e-05 2e-05 2e-05 2e-05 2e-05 
2e-05 2e-05 2e-05 2e-05 2e-05 2e-05 2e-05 2e-05 2e-05 
2e-05 2e-05 2e-05 2e-05 2e-05 2e-05 2e-05 2e-05 2e-05 
2e-05 2e-05 2e-05 2e-05 2e-05 2e-05 7.5e-05 2e-05 2e-05 
2e-05 2e-05 2e-05 2e-05 2e-05 2e-05 2e-05 2e-05 2e-05 
2e-05 2e-05 2e-05 2e-05 2e-05 7.5e-05 2e-05 2e-05 2e-05 
2e-05 2e-05 2e-05 2e-05 2e-05 2e-05 2e-05 2e-05 2e-05 
0.00015 2e-05 2e-05 7.5e-05 2e-05 2e-05 2e-05 2e-05 2e-05 
2e-05 2e-05 2e-05 2e-05 2e-05 2e-05 2e-05 2e-05 2e-05 
2e-05 2e-05 2e-05 2e-05 2e-05 2e-05 2e-05 2e-05 2e-05 
2e-05 2e-05 2e-05 2e-05 2e-05 2e-05 2e-05 2e-05 2e-05 
2e-05 2e-05 2e-05 2e-05 2e-05 2e-05 2e-05 2e-05 2e-05 
2e-05 2e-05 2e-05 2e-05 2e-05 2e-05 2e-05 2e-05 2e-05 
2e-05 2e-05 7.5e-05 2e-05 2e-05 2e-05 2e-05 2e-05 2e-05 
2e-05 2e-05 2e-05 2e-05 2e-05 2e-05 2e-05 2e-05 2e-05 
2e-05 2e-05 2e-05 2e-05 2e-05 2e-05 2e-05 2e-05 2e-05 
2e-05 2e-05 2e-05 2e-05 2e-05 2e-05 2e-05 2e-05 2e-05 
2e-05 2e-05 2e-05 2e-05 2e-05 2e-05 2e-05 2e-05 2e-05 
2e-05 2e-05 2e-05 2e-05 2e-05 2e-05 2e-05 2e-05 2e-05 
2e-05 2e-05 2e-05 2e-05 2e-05 2e-05 2e-05 2e-05 2e-05 
2e-05 2e-05 2e-05 2e-05 2e-05 2e-05 2e-05 2e-05 2e-05 
2e-05 2e-05 2e-05 2e-05 2e-05 2e-05 2e-05 2e-05 2e-05 
2e-05 2e-05 2e-05 2e-05 2e-05 2e-05 2e-05 2e-05 2e-05 
2e-05 2e-05 2e-05 2e-05 2e-05 2e-05 2e-05 2e-05 2e-05 
2e-05 2e-05 2e-05 2e-05 2e-05 2e-05 2e-05 2e-05 2e-05 
2e-05 2e-05 2e-05 2e-05 2e-05 2e-05 2e-05 2e-05 2e-05 
2e-05 2e-05 2e-05 2e-05 2e-05 2e-05 2e-05 2e-05 2e-05 
2e-05 2e-05 2e-05 2e-05 2e-05 2e-05 2e-05 2e-05 2e-05 
2e-05 2e-05 2e-05 2e-05 2e-05 2e-05 7.5e-05 2e-05 2e-05 
2e-05 2e-05 2e-05 2e-05 2e-05 2e-05 2e-05 2e-05 2e-05 
2e-05 2e-05 2e-05 2e-05 2e-05 2e-05 2e-05 2e-05 2e-05 
2e-05 2e-05 2e-05 2e-05 2e-05 2e-05 2e-05 2e-05 2e-05 
2e-05 2e-05 2e-05 2e-05 2e-05 2e-05 0.0003 2e-05 2e-05 
2e-05 2e-05 2e-05 2e-05 2e-05 2e-05 2e-05 2e-05 2e-05 
2e-05 2e-05 2e-05 2e-05 2e-05 2e-05 2e-05 2e-05 2e-05 
2e-05 2e-05 2e-05 2e-05 2e-05 2e-05 2e-05 2e-05 2e-05 
2e-05 2e-05 2e-05 2e-05 2e-05 2e-05 2e-05 2e-05 2e-05 
2e-05 2e-05 2e-05 2e-05 2e-05 2e-05 2e-05 2e-05 2e-05 
2e-05 2e-05 2e-05 2e-05 2e-05 2e-05 7.5e-05 2e-05 2e-05 
2e-05 2e-05 2e-05 2e-05 2e-05 2e-05 2e-05 2e-05 2e-05 
7.5e-05 2e-05 2e-05 2e-05 2e-05 2e-05 2e-05 2e-05 2e-05 
2e-05 2e-05 2e-05 2e-05 2e-05 2e-05 2e-05 2e-05 2e-05 
2e-05 2e-05 2e-05 2e-05 2e-05 2e-05 2e-05 2e-05 2e-05 
2e-05 2e-05 2e-05 2e-05 2e-05 2e-05 2e-05 2e-05 2e-05 
2e-05 2e-05 2e-05 2e-05 2e-05 2e-05 2e-05 2e-05 2e-05 
2e-05 2e-05 2e-05 2e-05 2e-05 2e-05 2e-05 2e-05 2e-05 
2e-05 2e-05 2e-05 2e-05 2e-05 2e-05 2e-05 2e-05 2e-05 
2e-05 2e-05 2e-05 2e-05 2e-05 2e-05 2e-05 2e-05 2e-05 
2e-05 2e-05 2e-05 2e-05 2e-05 2e-05 2e-05 2e-05 2e-05 
2e-05 2e-05 2e-05 2e-05 2e-05 2e-05 2e-05 2e-05 2e-05 
2e-05 2e-05 2e-05 2e-05 2e-05 2e-05 2e-05 2e-05 2e-05 
2e-05 2e-05 2e-05 2e-05 2e-05 2e-05 2e-05 2e-05 2e-05 
2e-05 2e-05 2e-05 2e-05 2e-05 2e-05 2e-05 2e-05 2e-05 
2e-05 2e-05 2e-05 2e-05 2e-05 2e-05 7.5e-05 2e-05 2e-05 
2e-05 2e-05 2e-05 2e-05 2e-05 2e-05 2e-05 2e-05 2e-05 
2e-05 2e-05 2e-05 2e-05 2e-05 
omega 3 608 double
0 0 0 0 0 0 0 0 0 
0 0 0 0 0 0 0 0 0 
0 0 0 0 0 0 0 0 0 
0 0 0 0 0 0 0 0 0 
0 0 0 0 0 0 0 0 0 
0 0 0 0 0 0 0 0 0 
0 0 0 0 0 0 0 0 0 
0 0 0 0 0 0 0 0 0 
0 0 0 0 0 0 0 0 0 
0 0 0 0 0 0 0 0 0 
0 0 0 0 0 0 0 0 0 
0 0 0 0 0 0 0 0 0 
0 0 0 0 0 0 0 0 0 
0 0 0 0 0 0 0 0 0 
0 0 0 0 0 0 0 0 0 
0 0 0 0 0 0 0 0 0 
0 0 0 0 0 0 0 0 0 
0 0 0 0 0 0 0 0 0 
0 0 0 0 0 0 0 0 0 
0 0 0 0 0 0 0 0 0 
0 0 0 0 0 0 0 0 0 
0 0 0 0 0 0 0 0 0 
0 0 0 0 0 0 0 0 0 
0 0 0 0 0 0 0 0 0 
0 0 0 0 0 0 0 0 0 
0 0 0 0 0 0 0 0 0 
0 0 0 0 0 0 0 0 0 
0 0 0 0 0 0 0 0 0 
0 0 0 0 0 0 0 0 0 
0 0 0 0 0 0 0 0 0 
0 0 0 0 0 0 0 0 0 
0 0 0 0 0 0 0 0 0 
0 0 0 0 0 0 0 0 0 
0 0 0 0 0 0 0 0 0 
0 0 0 0 0 0 0 0 0 
0 0 0 0 0 0 0 0 0 
0 0 0 0 0 0 0 0 0 
0 0 0 0 0 0 0 0 0 
0 0 0 0 0 0 0 0 0 
0 0 0 0 0 0 0 0 0 
0 0 0 0 0 0 0 0 0 
0 0 0 0 0 0 0 0 0 
0 0 0 0 0 0 0 0 0 
0 0 0 0 0 0 0 0 0 
0 0 0 0 0 0 0 0 0 
0 0 0 0 0 0 0 0 0 
0 0 0 0 0 0 0 0 0 
0 0 0 0 0 0 0 0 0 
0 0 0 0 0 0 0 0 0 
0 0 0 0 0 0 0 0 0 
0 0 0 0 0 0 0 0 0 
0 0 0 0 0 0 0 0 0 
0 0 0 0 0 0 0 0 0 
0 0 0 0 0 0 0 0 0 
0 0 0 0 0 0 0 0 0 
0 0 0 0 0 0 0 0 0 
0 0 0 0 0 0 0 0 0 
0 0 0 0 0 0 0 0 0 
0 0 0 0 0 0 0 0 0 
0 0 0 0 0 0 0 0 0 
0 0 0 0 0 0 0 0 0 
0 0 0 0 0 0 0 0 0 
0 0 0 0 0 0 0 0 0 
0 0 0 0 0 0 0 0 0 
0 0 0 0 0 0 0 0 0 
0 0 0 0 0 0 0 0 0 
0 0 0 0 0 0 0 0 0 
0 0 0 0 0 0 0 0 0 
0 0 0 0 0 0 0 0 0 
0 0 0 0 0 0 0 0 0 
0 0 0 0 0 0 0 0 0 
0 0 0 0 0 0 0 0 0 
0 0 0 0 0 0 0 0 0 
0 0 0 0 0 0 0 0 0 
0 0 0 0 0 0 0 0 0 
0 0 0 0 0 0 0 0 0 
0 0 0 0 0 0 0 0 0 
0 0 0 0 0 0 0 0 0 
0 0 0 0 0 0 0 0 0 
0 0 0 0 0 0 0 0 0 
0 0 0 0 0 0 0 0 0 
0 0 0 0 0 0 0 0 0 
0 0 0 0 0 0 0 0 0 
0 0 0 0 0 0 0 0 0 
0 0 0 0 0 0 0 0 0 
0 0 0 0 0 0 0 0 0 
0 0 0 0 0 0 0 0 0 
0 0 0 0 0 0 0 0 0 
0 0 0 0 0 0 0 0 0 
0 0 0 0 0 0 0 0 0 
0 0 0 0 0 0 0 0 0 
0 0 0 0 0 0 0 0 0 
0 0 0 0 0 0 0 0 0 
0 0 0 0 0 0 0 0 0 
0 0 0 0 0 0 0 0 0 
0 0 0 0 0 0 0 0 0 
0 0 0 0 0 0 0 0 0 
0 0 0 0 0 0 0 0 0 
0 0 0 0 0 0 0 0 0 
0 0 0 0 0 0 0 0 0 
0 0 0 0 0 0 0 0 0 
0 0 0 0 0 0 0 0 0 
0 0 0 0 0 0 0 0 0 
0 0 0 0 0 0 0 0 0 
0 0 0 0 0 0 0 0 0 
0 0 0 0 0 0 0 0 0 
0 0 0 0 0 0 0 0 0 
0 0 0 0 0 0 0 0 0 
0 0 0 0 0 0 0 0 0 
0 0 0 0 0 0 0 0 0 
0 0 0 0 0 0 0 0 0 
0 0 0 0 0 0 0 0 0 
0 0 0 0 0 0 0 0 0 
0 0 0 0 0 0 0 0 0 
0 0 0 0 0 0 0 0 0 
0 0 0 0 0 0 0 0 0 
0 0 0 0 0 0 0 0 0 
0 0 0 0 0 0 0 0 0 
0 0 0 0 0 0 0 0 0 
0 0 0 0 0 0 0 0 0 
0 0 0 0 0 0 0 0 0 
0 0 0 0 0 0 0 0 0 
0 0 0 0 0 0 0 0 0 
0 0 0 0 0 0 0 0 0 
0 0 0 0 0 0 0 0 0 
0 0 0 0 0 0 0 0 0 
0 0 0 0 0 0 0 0 0 
0 0 0 0 0 0 0 0 0 
0 0 0 0 0 0 0 0 0 
0 0 0 0 0 0 0 0 0 
0 0 0 0 0 0 0 0 0 
0 0 0 0 0 0 0 0 0 
0 0 0 0 0 0 0 0 0 
0 0 0 0 0 0 0 0 0 
0 0 0 0 0 0 0 0 0 
0 0 0 0 0 0 0 0 0 
0 0 0 0 0 0 0 0 0 
0 0 0 0 0 0 0 0 0 
0 0 0 0 0 0 0 0 0 
0 0 0 0 0 0 0 0 0 
0 0 0 0 0 0 0 0 0 
0 0 0 0 0 0 0 0 0 
0 0 0 0 0 0 0 0 0 
0 0 0 0 0 0 0 0 0 
0 0 0 0 0 0 0 0 0 
0 0 0 0 0 0 0 0 0 
0 0 0 0 0 0 0 0 0 
0 0 0 0 0 0 0 0 0 
0 0 0 0 0 0 0 0 0 
0 0 0 0 0 0 0 0 0 
0 0 0 0 0 0 0 0 0 
0 0 0 0 0 0 0 0 0 
0 0 0 0 0 0 0 0 0 
0 0 0 0 0 0 0 0 0 
0 0 0 0 0 0 0 0 0 
0 0 0 0 0 0 0 0 0 
0 0 0 0 0 0 0 0 0 
0 0 0 0 0 0 0 0 0 
0 0 0 0 0 0 0 0 0 
0 0 0 0 0 0 0 0 0 
0 0 0 0 0 0 0 0 0 
0 0 0 0 0 0 0 0 0 
0 0 0 0 0 0 0 0 0 
0 0 0 0 0 0 0 0 0 
0 0 0 0 0 0 0 0 0 
0 0 0 0 0 0 0 0 0 
0 0 0 0 0 0 0 0 0 
0 0 0 0 0 0 0 0 0 
0 0 0 0 0 0 0 0 0 
0 0 0 0 0 0 0 0 0 
0 0 0 0 0 0 0 0 0 
0 0 0 0 0 0 0 0 0 
0 0 0 0 0 0 0 0 0 
0 0 0 0 0 0 0 0 0 
0 0 0 0 0 0 0 0 0 
0 0 0 0 0 0 0 0 0 
0 0 0 0 0 0 0 0 0 
0 0 0 0 0 0 0 0 0 
0 0 0 0 0 0 0 0 0 
0 0 0 0 0 0 0 0 0 
0 0 0 0 0 0 0 0 0 
0 0 0 0 0 0 0 0 0 
0 0 0 0 0 0 0 0 0 
0 0 0 0 0 0 0 0 0 
0 0 0 0 0 0 0 0 0 
0 0 0 0 0 0 0 0 0 
0 0 0 0 0 0 0 0 0 
0 0 0 0 0 0 0 0 0 
0 0 0 0 0 0 0 0 0 
0 0 0 0 0 0 0 0 0 
0 0 0 0 0 0 0 0 0 
0 0 0 0 0 0 0 0 0 
0 0 0 0 0 0 0 0 0 
0 0 0 0 0 0 0 0 0 
0 0 0 0 0 0 0 0 0 
0 0 0 0 0 0 0 0 0 
0 0 0 0 0 0 0 0 0 
0 0 0 0 0 0 0 0 0 
0 0 0 0 0 0 0 0 0 
0 0 0 0 0 0 0 0 0 
0 0 0 0 0 0 0 0 0 
0 0 0 0 0 0 0 0 0 
0 0 0 0 0 0 
fx_mag_viz 1 608 double
0 0 0 0 0 0 0 0 0 
0 0 0 0 0 0 0 0 0 
0 0 0 0 0 0 0 0 0 
0 0 0 0 0 0 0 0 0 
0 0 0 0 0 0 0 0 0 
0 0 0 0 0 0 0 0 0 
0 0 0 0 0 0 0 0 0 
0 0 0 0 0 0 0 0 0 
0 0 0 0 0 0 0 0 0 
0 0 0 0 0 0 0 0 0 
0 0 0 0 0 0 0 0 0 
0 0 0 0 0 0 0 0 0 
0 0 0 0 0 0 0 0 0 
0 0 0 0 0 0 0 0 0 
0 0 0 0 0 0 0 0 0 
0 0 0 0 0 0 0 0 0 
0 0 0 0 0 0 0 0 0 
0 0 0 0 0 0 0 0 0 
0 0 0 0 0 0 0 0 0 
0 0 0 0 0 0 0 0 0 
0 0 0 0 0 0 0 0 0 
0 0 0 0 0 0 0 0 0 
0 0 0 0 0 0 0 0 0 
0 0 0 0 0 0 0 0 0 
0 0 0 0 0 0 0 0 0 
0 0 0 0 0 0 0 0 0 
0 0 0 0 0 0 0 0 0 
0 0 0 0 0 0 0 0 0 
0 0 0 0 0 0 0 0 0 
0 0 0 0 0 0 0 0 0 
0 0 0 0 0 0 0 0 0 
0 0 0 0 0 0 0 0 0 
0 0 0 0 0 0 0 0 0 
0 0 0 0 0 0 0 0 0 
0 0 0 0 0 0 0 0 0 
0 0 0 0 0 0 0 0 0 
0 0 0 0 0 0 0 0 0 
0 0 0 0 0 0 0 0 0 
0 0 0 0 0 0 0 0 0 
0 0 0 0 0 0 0 0 0 
0 0 0 0 0 0 0 0 0 
0 0 0 0 0 0 0 0 0 
0 0 0 0 0 0 0 0 0 
0 0 0 0 0 0 0 0 0 
0 0 0 0 0 0 0 0 0 
0 0 0 0 0 0 0 0 0 
0 0 0 0 0 0 0 0 0 
0 0 0 0 0 0 0 0 0 
0 0 0 0 0 0 0 0 0 
0 0 0 0 0 0 0 0 0 
0 0 0 0 0 0 0 0 0 
0 0 0 0 0 0 0 0 0 
0 0 0 0 0 0 0 0 0 
0 0 0 0 0 0 0 0 0 
0 0 0 0 0 0 0 0 0 
0 0 0 0 0 0 0 0 0 
0 0 0 0 0 0 0 0 0 
0 0 0 0 0 0 0 0 0 
0 0 0 0 0 0 0 0 0 
0 0 0 0 0 0 0 0 0 
0 0 0 0 0 0 0 0 0 
0 0 0 0 0 0 0 0 0 
0 0 0 0 0 0 0 0 0 
0 0 0 0 0 0 0 0 0 
0 0 0 0 0 0 0 0 0 
0 0 0 0 0 0 0 0 0 
0 0 0 0 0 0 0 0 0 
0 0 0 0 0 
fy_mag_viz 1 608 double
0 0 0 0 0 0 0 0 0 
0 0 0 0 0 0 0 0 0 
0 0 0 0 0 0 0 0 0 
0 0 0 0 0 0 0 0 0 
0 0 0 0 0 0 0 0 0 
0 0 0 0 0 0 0 0 0 
0 0 0 0 0 0 0 0 0 
0 0 0 0 0 0 0 0 0 
0 0 0 0 0 0 0 0 0 
0 0 0 0 0 0 0 0 0 
0 0 0 0 0 0 0 0 0 
0 0 0 0 0 0 0 0 0 
0 0 0 0 0 0 0 0 0 
0 0 0 0 0 0 0 0 0 
0 0 0 0 0 0 0 0 0 
0 0 0 0 0 0 0 0 0 
0 0 0 0 0 0 0 0 0 
0 0 0 0 0 0 0 0 0 
0 0 0 0 0 0 0 0 0 
0 0 0 0 0 0 0 0 0 
0 0 0 0 0 0 0 0 0 
0 0 0 0 0 0 0 0 0 
0 0 0 0 0 0 0 0 0 
0 0 0 0 0 0 0 0 0 
0 0 0 0 0 0 0 0 0 
0 0 0 0 0 0 0 0 0 
0 0 0 0 0 0 0 0 0 
0 0 0 0 0 0 0 0 0 
0 0 0 0 0 0 0 0 0 
0 0 0 0 0 0 0 0 0 
0 0 0 0 0 0 0 0 0 
0 0 0 0 0 0 0 0 0 
0 0 0 0 0 0 0 0 0 
0 0 0 0 0 0 0 0 0 
0 0 0 0 0 0 0 0 0 
0 0 0 0 0 0 0 0 0 
0 0 0 0 0 0 0 0 0 
0 0 0 0 0 0 0 0 0 
0 0 0 0 0 0 0 0 0 
0 0 0 0 0 0 0 0 0 
0 0 0 0 0 0 0 0 0 
0 0 0 0 0 0 0 0 0 
0 0 0 0 0 0 0 0 0 
0 0 0 0 0 0 0 0 0 
0 0 0 0 0 0 0 0 0 
0 0 0 0 0 0 0 0 0 
0 0 0 0 0 0 0 0 0 
0 0 0 0 0 0 0 0 0 
0 0 0 0 0 0 0 0 0 
0 0 0 0 0 0 0 0 0 
0 0 0 0 0 0 0 0 0 
0 0 0 0 0 0 0 0 0 
0 0 0 0 0 0 0 0 0 
0 0 0 0 0 0 0 0 0 
0 0 0 0 0 0 0 0 0 
0 0 0 0 0 0 0 0 0 
0 0 0 0 0 0 0 0 0 
0 0 0 0 0 0 0 0 0 
0 0 0 0 0 0 0 0 0 
0 0 0 0 0 0 0 0 0 
0 0 0 0 0 0 0 0 0 
0 0 0 0 0 0 0 0 0 
0 0 0 0 0 0 0 0 0 
0 0 0 0 0 0 0 0 0 
0 0 0 0 0 0 0 0 0 
0 0 0 0 0 0 0 0 0 
0 0 0 0 0 0 0 0 0 
0 0 0 0 0 
fz_mag_viz 1 608 double
0 0 0 0 0 0 0 0 0 
0 0 0 0 0 0 0 0 0 
0 0 0 0 0 0 0 0 0 
0 0 0 0 0 0 0 0 0 
0 0 0 0 0 0 0 0 0 
0 0 0 0 0 0 0 0 0 
0 0 0 0 0 0 0 0 0 
0 0 0 0 0 0 0 0 0 
0 0 0 0 0 0 0 0 0 
0 0 0 0 0 0 0 0 0 
0 0 0 0 0 0 0 0 0 
0 0 0 0 0 0 0 0 0 
0 0 0 0 0 0 0 0 0 
0 0 0 0 0 0 0 0 0 
0 0 0 0 0 0 0 0 0 
0 0 0 0 0 0 0 0 0 
0 0 0 0 0 0 0 0 0 
0 0 0 0 0 0 0 0 0 
0 0 0 0 0 0 0 0 0 
0 0 0 0 0 0 0 0 0 
0 0 0 0 0 0 0 0 0 
0 0 0 0 0 0 0 0 0 
0 0 0 0 0 0 0 0 0 
0 0 0 0 0 0 0 0 0 
0 0 0 0 0 0 0 0 0 
0 0 0 0 0 0 0 0 0 
0 0 0 0 0 0 0 0 0 
0 0 0 0 0 0 0 0 0 
0 0 0 0 0 0 0 0 0 
0 0 0 0 0 0 0 0 0 
0 0 0 0 0 0 0 0 0 
0 0 0 0 0 0 0 0 0 
0 0 0 0 0 0 0 0 0 
0 0 0 0 0 0 0 0 0 
0 0 0 0 0 0 0 0 0 
0 0 0 0 0 0 0 0 0 
0 0 0 0 0 0 0 0 0 
0 0 0 0 0 0 0 0 0 
0 0 0 0 0 0 0 0 0 
0 0 0 0 0 0 0 0 0 
0 0 0 0 0 0 0 0 0 
0 0 0 0 0 0 0 0 0 
0 0 0 0 0 0 0 0 0 
0 0 0 0 0 0 0 0 0 
0 0 0 0 0 0 0 0 0 
0 0 0 0 0 0 0 0 0 
0 0 0 0 0 0 0 0 0 
0 0 0 0 0 0 0 0 0 
0 0 0 0 0 0 0 0 0 
0 0 0 0 0 0 0 0 0 
0 0 0 0 0 0 0 0 0 
0 0 0 0 0 0 0 0 0 
0 0 0 0 0 0 0 0 0 
0 0 0 0 0 0 0 0 0 
0 0 0 0 0 0 0 0 0 
0 0 0 0 0 0 0 0 0 
0 0 0 0 0 0 0 0 0 
0 0 0 0 0 0 0 0 0 
0 0 0 0 0 0 0 0 0 
0 0 0 0 0 0 0 0 0 
0 0 0 0 0 0 0 0 0 
0 0 0 0 0 0 0 0 0 
0 0 0 0 0 0 0 0 0 
0 0 0 0 0 0 0 0 0 
0 0 0 0 0 0 0 0 0 
0 0 0 0 0 0 0 0 0 
0 0 0 0 0 0 0 0 0 
0 0 0 0 0 
B_magnitude 1 608 double
0 0 0 0 0 0 0 0 0 
0 0 0 0 0 0 0 0 0 
0 0 0 0 0 0 0 0 0 
0 0 0 0 0 0 0 0 0 
0 0 0 0 0 0 0 0 0 
0 0 0 0 0 0 0 0 0 
0 0 0 0 0 0 0 0 0 
0 0 0 0 0 0 0 0 0 
0 0 0 0 0 0 0 0 0 
0 0 0 0 0 0 0 0 0 
0 0 0 0 0 0 0 0 0 
0 0 0 0 0 0 0 0 0 
0 0 0 0 0 0 0 0 0 
0 0 0 0 0 0 0 0 0 
0 0 0 0 0 0 0 0 0 
0 0 0 0 0 0 0 0 0 
0 0 0 0 0 0 0 0 0 
0 0 0 0 0 0 0 0 0 
0 0 0 0 0 0 0 0 0 
0 0 0 0 0 0 0 0 0 
0 0 0 0 0 0 0 0 0 
0 0 0 0 0 0 0 0 0 
0 0 0 0 0 0 0 0 0 
0 0 0 0 0 0 0 0 0 
0 0 0 0 0 0 0 0 0 
0 0 0 0 0 0 0 0 0 
0 0 0 0 0 0 0 0 0 
0 0 0 0 0 0 0 0 0 
0 0 0 0 0 0 0 0 0 
0 0 0 0 0 0 0 0 0 
0 0 0 0 0 0 0 0 0 
0 0 0 0 0 0 0 0 0 
0 0 0 0 0 0 0 0 0 
0 0 0 0 0 0 0 0 0 
0 0 0 0 0 0 0 0 0 
0 0 0 0 0 0 0 0 0 
0 0 0 0 0 0 0 0 0 
0 0 0 0 0 0 0 0 0 
0 0 0 0 0 0 0 0 0 
0 0 0 0 0 0 0 0 0 
0 0 0 0 0 0 0 0 0 
0 0 0 0 0 0 0 0 0 
0 0 0 0 0 0 0 0 0 
0 0 0 0 0 0 0 0 0 
0 0 0 0 0 0 0 0 0 
0 0 0 0 0 0 0 0 0 
0 0 0 0 0 0 0 0 0 
0 0 0 0 0 0 0 0 0 
0 0 0 0 0 0 0 0 0 
0 0 0 0 0 0 0 0 0 
0 0 0 0 0 0 0 0 0 
0 0 0 0 0 0 0 0 0 
0 0 0 0 0 0 0 0 0 
0 0 0 0 0 0 0 0 0 
0 0 0 0 0 0 0 0 0 
0 0 0 0 0 0 0 0 0 
0 0 0 0 0 0 0 0 0 
0 0 0 0 0 0 0 0 0 
0 0 0 0 0 0 0 0 0 
0 0 0 0 0 0 0 0 0 
0 0 0 0 0 0 0 0 0 
0 0 0 0 0 0 0 0 0 
0 0 0 0 0 0 0 0 0 
0 0 0 0 0 0 0 0 0 
0 0 0 0 0 0 0 0 0 
0 0 0 0 0 0 0 0 0 
0 0 0 0 0 0 0 0 0 
0 0 0 0 0 
B_gradient_mag 1 608 double
0 0 0 0 0 0 0 0 0 
0 0 0 0 0 0 0 0 0 
0 0 0 0 0 0 0 0 0 
0 0 0 0 0 0 0 0 0 
0 0 0 0 0 0 0 0 0 
0 0 0 0 0 0 0 0 0 
0 0 0 0 0 0 0 0 0 
0 0 0 0 0 0 0 0 0 
0 0 0 0 0 0 0 0 0 
0 0 0 0 0 0 0 0 0 
0 0 0 0 0 0 0 0 0 
0 0 0 0 0 0 0 0 0 
0 0 0 0 0 0 0 0 0 
0 0 0 0 0 0 0 0 0 
0 0 0 0 0 0 0 0 0 
0 0 0 0 0 0 0 0 0 
0 0 0 0 0 0 0 0 0 
0 0 0 0 0 0 0 0 0 
0 0 0 0 0 0 0 0 0 
0 0 0 0 0 0 0 0 0 
0 0 0 0 0 0 0 0 0 
0 0 0 0 0 0 0 0 0 
0 0 0 0 0 0 0 0 0 
0 0 0 0 0 0 0 0 0 
0 0 0 0 0 0 0 0 0 
0 0 0 0 0 0 0 0 0 
0 0 0 0 0 0 0 0 0 
0 0 0 0 0 0 0 0 0 
0 0 0 0 0 0 0 0 0 
0 0 0 0 0 0 0 0 0 
0 0 0 0 0 0 0 0 0 
0 0 0 0 0 0 0 0 0 
0 0 0 0 0 0 0 0 0 
0 0 0 0 0 0 0 0 0 
0 0 0 0 0 0 0 0 0 
0 0 0 0 0 0 0 0 0 
0 0 0 0 0 0 0 0 0 
0 0 0 0 0 0 0 0 0 
0 0 0 0 0 0 0 0 0 
0 0 0 0 0 0 0 0 0 
0 0 0 0 0 0 0 0 0 
0 0 0 0 0 0 0 0 0 
0 0 0 0 0 0 0 0 0 
0 0 0 0 0 0 0 0 0 
0 0 0 0 0 0 0 0 0 
0 0 0 0 0 0 0 0 0 
0 0 0 0 0 0 0 0 0 
0 0 0 0 0 0 0 0 0 
0 0 0 0 0 0 0 0 0 
0 0 0 0 0 0 0 0 0 
0 0 0 0 0 0 0 0 0 
0 0 0 0 0 0 0 0 0 
0 0 0 0 0 0 0 0 0 
0 0 0 0 0 0 0 0 0 
0 0 0 0 0 0 0 0 0 
0 0 0 0 0 0 0 0 0 
0 0 0 0 0 0 0 0 0 
0 0 0 0 0 0 0 0 0 
0 0 0 0 0 0 0 0 0 
0 0 0 0 0 0 0 0 0 
0 0 0 0 0 0 0 0 0 
0 0 0 0 0 0 0 0 0 
0 0 0 0 0 0 0 0 0 
0 0 0 0 0 0 0 0 0 
0 0 0 0 0 0 0 0 0 
0 0 0 0 0 0 0 0 0 
0 0 0 0 0 0 0 0 0 
0 0 0 0 0 
