# vtk DataFile Version 5.1
Generated by LIGGGHTS
ASCII
DATASET POLYDATA
POINTS 648 float
0.0350526 -0.0102353 0.0011105 0.00937085 -0.00418454 0.00114039 0.0292006 0.00433004 0.00124941 
0.0212596 0.00979192 0.00109293 0.0143092 0.0139794 0.00132485 -0.0360536 0.0173104 0.00117571 
0.03506 0.0228899 0.001062 0.0297434 0.0373158 0.0011238 -0.0428902 -0.0449088 0.00166161 
-0.00302782 -0.0385948 0.00175951 0.00798734 -0.0367051 0.00187093 -0.0266532 -0.0301716 0.00156987 
-0.0105296 -0.0314142 0.00156584 0.033456 -0.0256735 0.00140585 -0.0108877 -0.0188832 0.00236739 
0.0433204 -0.0141837 0.00132482 0.00689113 -0.0107816 0.00125091 -0.0198564 -0.00683511 0.00155582 
-0.0129003 -0.00574839 0.00201425 -0.0179231 -0.00300678 0.00197745 0.0384376 0.000848974 0.00183516 
-0.00757157 0.00454821 0.00203649 0.0305447 0.00486582 0.00189377 -0.0287984 0.00559412 0.0021188 
0.021602 0.00540593 0.00211576 -0.0426568 0.00723228 0.00155467 -0.0310202 0.0131063 0.00152198 
0.0248423 0.0143007 0.00166613 -0.0081225 0.0151775 0.00259764 0.0215224 0.0171285 0.00181777 
-0.0153727 0.020636 0.00154486 -0.0282566 0.021284 0.00213757 -0.0256005 0.0215871 0.001033 
0.0123926 0.0218243 0.0016383 0.0167463 0.0251763 0.00168886 -0.0155539 0.0359545 0.00207336 
0.00308146 0.0401468 0.0025472 -0.00521279 -0.0413279 0.00307501 -0.0385899 -0.0405251 0.00339376 
0.0156715 -0.0391733 0.00266883 0.0336491 -0.0197505 0.00348258 0.0223879 -0.0163393 0.00355579 
0.0282359 -0.00877456 0.00350275 0.0414788 -0.00521487 0.00360362 0.00417698 0.0024455 0.00253709 
-0.034865 0.0142961 0.00318105 0.0287781 0.014071 0.00255768 -0.0409258 0.0305044 0.00329721 
0.0165329 0.0385374 0.00356893 0.0251972 0.0393087 0.00345739 -0.0390027 0.0421086 0.00293816 
0.040047 -0.0404588 0.00400957 0.0419483 -0.0348097 0.00487025 -0.0232422 -0.0321576 0.00447377 
0.00577088 -0.0287415 0.00506142 0.0436787 -0.0219137 0.00425361 0.0030191 -0.0179247 0.00408312 
0.0277003 -0.0107969 0.00449015 -0.00783961 -0.000387029 0.00434042 -0.00702036 -0.00121172 0.00486091 
0.00635633 0.000852437 0.004974 -0.00967086 0.00179773 0.00438892 0.0399323 0.0117688 0.00458296 
8.23501e-07 0.0138406 0.00493431 -0.0245993 0.0193658 0.00516478 -0.0296003 0.0277025 0.00480251 
0.00284552 0.0345861 0.00451579 0.0131273 0.040817 0.00481621 -0.044759 -0.0437614 0.00615921 
-0.0308094 -0.0435702 0.00565482 -0.042922 -0.0404536 0.0054745 0.023158 -0.0340207 0.00600457 
0.0244271 -0.0334586 0.00515227 0.0280204 -0.0311414 0.00577655 -0.0448384 -0.0296834 0.00624075 
0.000892701 -0.0263701 0.00608256 0.032808 -0.025967 0.00617355 -0.0408326 -0.0234295 0.0053693 
-0.0317771 -0.0175651 0.00623529 0.0404767 -0.0183151 0.00622521 -0.0112192 -0.0104501 0.00551605 
0.00743742 -0.00926665 0.00517422 0.00357123 -0.00830953 0.00648718 0.00643655 -0.000956063 0.00592703 
-0.0170872 0.00564833 0.00544445 0.0011249 0.00615697 0.0051028 0.0228765 0.00606581 0.00623664 
0.0221269 0.00728552 0.00626202 -0.0214351 0.00957734 0.00565692 -0.0214239 0.0189608 0.00590635 
-0.0170112 0.0231088 0.00654505 0.0226957 0.0260881 0.00591723 0.0104707 0.0313218 0.00620372 
0.0364634 0.0310238 0.00588666 0.0444958 0.0309554 0.0062316 -0.0264781 0.032823 0.00563478 
-0.0197415 0.0344175 0.0055457 0.0308099 -0.0378456 0.00666441 0.0341086 -0.0368686 0.00671076 
0.0333162 -0.0342631 0.00688763 0.0289145 -0.0340196 0.00765349 0.0188903 -0.0308528 0.00658366 
-0.015788 -0.0282898 0.00730806 -0.0207679 -0.0256315 0.00686532 0.0363266 -0.0194176 0.00710766 
-0.0257955 -0.0157834 0.00653427 -0.00444012 -0.0151621 0.0072944 -0.0117656 -0.0138394 0.00734699 
-0.0222502 -0.00974669 0.0076116 0.013874 -0.00963069 0.00756718 0.0109664 -0.00760095 0.00757026 
0.0131353 -0.00504642 0.00684113 -0.0141425 -0.00311887 0.00737438 0.0154702 -0.00154679 0.00793908 
-0.0356048 -0.000104637 0.00795262 0.0449494 0.00392273 0.00654285 -0.0392616 0.00972366 0.00699257 
-0.0101256 0.00978275 0.00726908 -0.023041 0.0197144 0.00650269 -0.022709 0.0198803 0.00639996 
-0.0144089 0.0201081 0.00692625 0.0163992 0.0415262 0.00670137 -0.0335565 -0.0442122 0.00843791 
0.0185094 -0.042363 0.00827674 0.0418836 -0.0421436 0.00818468 0.0414821 -0.0410789 0.00849976 
-0.018434 -0.0405477 0.00883382 -0.0108246 -0.0388127 0.00899901 0.000822496 -0.0363122 0.0082243 
0.0101031 -0.0273014 0.00906799 -0.0419519 -0.0259749 0.00802156 0.039775 -0.0211058 0.00896351 
-0.0388614 -0.0136303 0.00862518 -0.00433253 -0.00676057 0.00895528 0.021323 -0.00444137 0.00893666 
0.0246705 0.0064451 0.00769539 0.0197977 0.00963841 0.00823076 -0.00279986 0.0127222 0.00842311 
0.0379188 0.0120326 0.00820728 0.0114764 0.0140289 0.0087895 0.0418335 0.0161761 0.00824108 
0.0307708 0.0242663 0.00803068 -0.0200898 0.0311527 0.00813443 0.0238959 0.0383247 0.0085263 
-0.0312382 0.0393096 0.00788619 -0.0440308 0.0448256 0.00796725 0.0339316 -0.041715 0.00995719 
-0.0248652 -0.040212 0.00937039 0.00594186 -0.0351889 0.00976824 0.0433459 -0.0353282 0.0103343 
-0.0262624 -0.032473 0.00901788 0.00741479 -0.0295782 0.00978053 -0.00446216 -0.0255279 0.00976297 
0.0306875 -0.0259396 0.0100394 -0.0225401 -0.0213878 0.00929652 -0.0296942 -0.0196153 0.0101973 
0.00156248 -0.0194187 0.01027 -0.0100897 -0.0180162 0.00915548 0.0414834 -0.0181367 0.00938187 
-0.0420316 -0.0145538 0.0104935 -0.0227164 -0.0141288 0.00968971 0.0313953 -0.00974065 0.00972454 
-0.00553214 -0.00871323 0.00951916 0.0275881 -0.00673863 0.0100782 -0.00747582 -0.00609419 0.0094657 
-0.0260142 0.00017485 0.00952227 0.0188762 0.00181355 0.00996676 0.00265626 0.00371614 0.00997865 
0.00347554 0.00338662 0.00940545 0.00314898 0.00491531 0.0100003 0.0320014 0.00756294 0.0101396 
0.0283387 0.00890506 0.00924722 0.0340899 0.00882812 0.00901925 -0.0394276 0.0109375 0.00965816 
0.0398091 0.011618 0.0092235 0.00861143 0.0123591 0.0100235 -0.00307286 0.0144526 0.00952704 
0.0121458 0.0151918 0.00945718 0.00517921 0.0169249 0.00899804 0.0090081 0.0191686 0.00902677 
0.0323341 0.0191974 0.00985417 -0.0269229 0.0267788 0.0102751 -0.0127911 0.0299546 0.00976565 
0.00372347 0.0304157 0.009226 0.0038092 0.0311583 0.00939655 -0.0213481 0.0319153 0.0100245 
-0.0073504 0.0318329 0.00988454 0.00390562 0.0317225 0.0101614 0.01325 0.0319187 0.00923633 
-0.00973825 0.0391656 0.0093776 -0.0437633 0.0406561 0.00966487 0.0222253 0.0407186 0.00926519 
-0.0160353 0.0448572 0.00940684 0.0181024 -0.0433049 0.0113267 0.0348044 -0.042095 0.011016 
-0.0349861 -0.0412827 0.0106183 -0.00674967 -0.0416523 0.0106815 0.0338942 -0.0410147 0.010833 
-0.0334706 -0.0396012 0.0107912 -0.0168273 -0.0360331 0.0109928 -0.00586029 -0.0338127 0.0106068 
-0.0160452 -0.0323821 0.0113421 0.0346336 -0.0325969 0.0107431 0.0449741 -0.0303513 0.0112795 
-0.0430551 -0.0267583 0.0105471 -0.0336946 -0.0248459 0.0109722 -0.0329608 -0.0218045 0.0114232 
-0.0405162 -0.0161033 0.0110217 -0.0339565 -0.0167518 0.0113641 0.0198229 -0.0156851 0.0103256 
0.0342493 -0.0115037 0.011178 -0.0386256 -0.00983966 0.0116347 0.0286804 -0.00919085 0.0107334 
-0.024842 -0.00884532 0.0115717 -0.00254943 -0.00825679 0.0114521 -0.040885 -0.00406647 0.0105486 
0.0180565 -0.00487531 0.0112471 0.0293019 -0.00298432 0.0104625 -0.0281455 -0.00127675 0.0112719 
0.0290986 -0.000251763 0.0112348 0.032558 0.00153523 0.0107413 -0.0325416 0.00283857 0.0114113 
0.0101693 0.00555192 0.0114997 -0.0371624 0.011326 0.0106966 0.0153641 0.0146287 0.0108554 
-0.0386663 0.0253433 0.0113806 -0.00563177 0.0268155 0.0110384 0.0395905 0.0272142 0.0115545 
-0.0313244 0.0314049 0.0106745 0.026696 0.03017 0.0115361 0.0152528 0.033152 0.0109077 
0.0164577 0.0353116 0.0110127 -0.041477 0.0364172 0.0111185 0.0262096 -0.0449372 0.0124743 
0.00264867 -0.0338128 0.0124573 0.027474 -0.0338615 0.0121168 0.0346338 -0.0290927 0.0123242 
0.0155599 -0.0240909 0.0124236 0.00623721 -0.0211799 0.0125254 0.0233461 -0.0214624 0.0118313 
-0.00827992 -0.020547 0.0123943 -0.0426154 -0.0165053 0.0120272 -0.0393221 -0.0167834 0.0121314 
-0.0207563 -0.0111167 0.0126521 0.0223025 -0.0112244 0.0119032 0.0414517 -0.0114994 0.0121697 
-0.0326334 -0.00963456 0.0120263 0.0251729 -0.00985964 0.0125167 -0.0343844 -0.0078404 0.0124623 
0.0404774 -0.00688032 0.0120924 0.0387156 -0.00624884 0.0117859 -0.0120059 -0.00345367 0.0116566 
-0.00254916 -0.00379952 0.0124449 -0.00229178 0.0020129 0.0121946 -0.025141 0.00447188 0.0118344 
0.0277548 0.0042931 0.0129323 0.0404406 0.00462082 0.0126743 0.030759 0.00580352 0.0123899 
0.0211953 0.00966092 0.0118486 -0.0365733 0.0119208 0.0121372 0.00243185 0.0120975 0.012519 
0.000954082 0.0152563 0.0122199 0.0407412 0.0174253 0.0121732 0.00395304 0.0187088 0.0123449 
0.018015 0.0183735 0.01249 0.0181332 0.0246356 0.0120965 0.0258603 0.0235991 0.0122398 
-0.00739359 0.0259593 0.012375 -0.0267569 0.0263983 0.0116549 -0.0102477 0.0267602 0.0118641 
-0.0357156 0.0282031 0.0123759 0.0191509 0.0299648 0.0120996 -0.0368667 0.0306348 0.0128784 
-0.0108954 0.0304 0.0116573 0.0354139 0.0312817 0.0124882 -0.0337286 0.0337045 0.0123112 
0.0231674 0.0340949 0.0117386 -0.0112537 0.0395394 0.0128479 -0.0281804 0.0418824 0.0121458 
-0.0133259 0.0414802 0.0128212 0.0294278 0.0431452 0.0119518 -0.0205282 0.0432397 0.0125738 
0.00513794 0.0433856 0.0120315 0.0405446 0.0433429 0.0121299 -0.00340304 -0.0448428 0.0141771 
-0.027409 -0.0433703 0.0136818 0.0416479 -0.0439733 0.0137908 0.000425919 -0.0415728 0.0138807 
-0.00670669 -0.0394183 0.014015 -0.0439713 -0.0357399 0.0139161 -0.0273176 -0.0361067 0.0141582 
0.0077947 -0.0345433 0.0138603 0.00879071 -0.0344865 0.0136126 -0.0427235 -0.0332389 0.0135061 
0.00802514 -0.031483 0.0137477 -0.0386911 -0.0311434 0.0137358 0.0164647 -0.0275391 0.0132797 
-0.00580099 -0.0272788 0.0138857 -0.0338231 -0.0250135 0.0141796 -0.0328109 -0.0226975 0.0132067 
0.0262592 -0.0217201 0.0139251 -0.015814 -0.0152491 0.0142598 0.0268005 -0.0146468 0.0133997 
0.0302919 -0.0148257 0.0138086 -0.0329121 -0.0139828 0.0135816 -0.0341597 -0.0122829 0.014269 
0.0176437 -0.0119747 0.0129815 -0.0449336 -0.00957357 0.013436 -0.0304645 -0.00701594 0.0131708 
-0.00401126 -0.00720159 0.0131979 -0.042786 -0.00359954 0.013046 -0.0408474 -0.00214648 0.0138516 
0.00664535 -0.00164817 0.0130716 -0.0376932 -0.000132947 0.0137743 0.0147261 0.00139147 0.0138823 
-0.0406381 0.00555966 0.0140865 0.00533928 0.00728904 0.0138472 0.00474506 0.0103043 0.0138864 
0.012585 0.0155082 0.0140349 0.00546842 0.0177814 0.014103 0.00757299 0.0192258 0.0141916 
0.00976854 0.0197772 0.0139497 0.00128112 0.0217131 0.0131385 -0.0267196 0.0236159 0.0131319 
-0.00782209 0.0241861 0.0135077 0.00953871 0.0271324 0.0136954 0.00834461 0.0278725 0.0130156 
0.0434247 0.0295768 0.014017 -0.032208 0.0306075 0.0132825 0.0372507 0.0318783 0.0137556 
-0.00196307 0.0366495 0.0138909 -0.0245447 0.0378537 0.0131568 0.0221021 0.0401282 0.013202 
0.00805094 0.0422278 0.0130878 0.0399235 0.0434757 0.0138526 0.0171919 0.0449185 0.0141626 
0.0211706 0.0445491 0.0142486 -0.0346971 -0.0446764 0.0153246 -0.0248654 -0.0427111 0.0154912 
0.0248068 -0.0428986 0.015091 0.0238162 -0.0409762 0.0154722 -0.0406141 -0.0405112 0.0156027 
-0.0169239 -0.0402939 0.014506 0.0244803 -0.0401788 0.0148261 -0.0370475 -0.0370945 0.0155215 
-0.00161929 -0.0353994 0.0152101 0.0195647 -0.0366528 0.0149811 0.0403097 -0.0347888 0.0152814 
0.00231692 -0.0294453 0.0153629 0.0412685 -0.0295104 0.0149778 -0.0401314 -0.0280847 0.0149195 
0.0115492 -0.0227248 0.0155445 -0.0323128 -0.0219837 0.014764 -0.0164034 -0.0216001 0.0153115 
-0.0328213 -0.0176588 0.0143583 -0.0204621 -0.0172006 0.0148636 -0.0183202 -0.0175475 0.0154211 
0.0252581 -0.0163235 0.0151224 -0.0408642 -0.0154151 0.0153397 0.0375745 -0.0151367 0.0143464 
-0.0269092 -0.0125643 0.0150946 0.0322358 -0.0130621 0.0153669 -0.0196799 -0.00931279 0.0145991 
0.0129906 -0.00677597 0.0143738 -0.00474481 -0.00600267 0.014815 -0.000610522 -0.00103491 0.0150188 
-0.0416237 0.00110806 0.0152147 -0.037077 0.00611456 0.0143901 -0.00723413 0.00605583 0.0152016 
0.0332757 0.00539899 0.0148742 0.0142017 0.0079404 0.0143868 0.0202046 0.00840095 0.0144089 
0.00978397 0.00922321 0.0149153 -0.0350204 0.0121089 0.0153464 -0.00831541 0.0129665 0.0151736 
0.014866 0.0127598 0.0149115 0.0261916 0.0119357 0.0154802 -0.0429188 0.0135204 0.0151929 
0.00789931 0.0136568 0.0148053 -0.00443291 0.0160613 0.0145633 0.0256029 0.0175394 0.0151741 
0.00153271 0.0201988 0.0144731 0.0350116 0.0207306 0.0153333 0.0362273 0.0220011 0.0149281 
-0.0349287 0.0230684 0.0148351 -0.0295899 0.0232577 0.0153713 0.0146363 0.0223077 0.0150457 
0.000162142 0.0251126 0.0155101 -0.0219587 0.0304934 0.0155474 -0.00435696 0.0325462 0.0145732 
-0.0422696 0.0340949 0.0153978 0.0030545 0.0369981 0.0149389 0.0439232 0.0371117 0.0146441 
-0.00883869 0.0381834 0.0148857 0.0281745 0.039089 0.0151738 -0.0375088 0.0393741 0.0148431 
0.0114086 0.0440135 0.0143038 0.0145521 -0.0432303 0.0161994 0.0201641 -0.0426709 0.0161202 
0.0397687 -0.0374633 0.0155922 -0.0177429 -0.0346724 0.0159144 -0.0376897 -0.0314333 0.0164442 
-0.0263426 -0.0292431 0.0167152 0.023019 -0.0293484 0.0161721 0.0392765 -0.0300093 0.016219 
-0.0432264 -0.0264101 0.0166997 -0.0240719 -0.0268296 0.0163098 0.03382 -0.0268981 0.0156787 
0.0054016 -0.025334 0.0163746 0.00538025 -0.0241403 0.0168284 -0.0350278 -0.0224863 0.0163763 
-0.0291427 -0.0219343 0.0157476 0.00548761 -0.0197918 0.0166131 0.0218308 -0.0192565 0.0162247 
0.0184681 -0.0172117 0.0157022 0.0249316 -0.014475 0.0160509 -0.0313057 -0.0141988 0.0162157 
0.0323804 -0.0132471 0.0160059 0.0403752 -0.0143085 0.0163363 -0.0136128 -0.00979682 0.0164199 
0.0406218 -0.0100941 0.016387 -0.042331 -0.00792816 0.0156809 -0.0135858 -0.00672635 0.0161542 
0.00523139 -0.00599236 0.0164679 -0.0395569 -0.00227866 0.0164251 0.0407777 0.000744206 0.0165045 
0.0362421 0.00170773 0.0156323 0.0323225 0.00436429 0.0164051 -0.00552594 0.00555795 0.0158817 
0.0110904 0.00657535 0.0165753 -0.0349081 0.00917553 0.016134 0.0128044 0.0127337 0.016001 
0.0336082 0.013194 0.016701 -0.0196462 0.0155185 0.0161893 0.0440772 0.0154938 0.0166727 
-0.0193355 0.018129 0.0168113 0.0226738 0.0181095 0.0164081 0.0122157 0.0191756 0.0158533 
0.0388885 0.0193682 0.0158577 -0.0431379 0.0208085 0.0158921 -0.0421793 0.0225172 0.0156593 
0.00264144 0.0247174 0.0162188 -0.0190887 0.0269029 0.0162426 -0.0114472 0.026715 0.0158172 
-0.0376379 0.0294143 0.0162338 0.0214431 0.0335886 0.0156392 -0.00472634 0.0344449 0.0162225 
-0.0407273 0.0358476 0.0160718 0.0311732 0.0371467 0.0161259 -0.00647711 0.0391566 0.016133 
-0.0181988 0.0434549 0.0158469 0.0352379 0.0438995 0.0165327 -0.00396528 -0.0444182 0.0181509 
0.0131812 -0.0427533 0.0172988 0.0166138 -0.0412108 0.0177052 0.0424299 -0.0409921 0.0179392 
0.00985621 -0.0367022 0.0179151 -0.0309963 -0.0355024 0.0178467 0.0355384 -0.0354155 0.0170667 
0.0268369 -0.0315202 0.0176177 -0.0396817 -0.0304797 0.0177984 -0.0414327 -0.0290659 0.018118 
-0.0240024 -0.0280603 0.0173069 -0.00863888 -0.0237376 0.0180396 0.0109547 -0.0235646 0.0179621 
0.035159 -0.023363 0.0177643 0.0282033 -0.0178095 0.0178554 0.038292 -0.016257 0.017433 
-0.0186412 -0.0134353 0.0174862 -0.0327621 -0.0121928 0.0172126 -0.038829 -0.00978443 0.0179113 
-0.0344646 -0.00725539 0.01751 -0.0211095 -0.00770044 0.0174941 -0.0214415 -0.007536 0.0177839 
0.0161928 -0.00760918 0.0169051 0.0180458 -0.00470109 0.0174935 -0.00941413 -0.00330341 0.017838 
0.00975646 -0.00313231 0.0172013 -0.00896956 -0.00131708 0.0170258 0.0168839 -0.00210364 0.0181129 
-0.0283489 -0.000417126 0.0180397 -0.0153419 -0.00108619 0.0181386 0.0140084 -6.89735e-05 0.0179224 
-0.0261639 0.00337815 0.0181513 0.00243665 0.00282786 0.0174182 0.0250346 0.00641518 0.0168757 
0.023953 0.00820576 0.0180991 -0.00867948 0.0139924 0.016881 0.0311878 0.014057 0.0178069 
0.0441199 0.0136981 0.0170073 -0.0287332 0.0215601 0.0170478 -0.0122989 0.0222019 0.0173445 
0.0398418 0.0217469 0.0176389 0.0438582 0.0244724 0.0173846 -0.0406313 0.0295913 0.0173681 
-0.0152062 0.0294088 0.0170456 0.00519606 0.0301696 0.0170121 0.00727395 0.0332762 0.0181119 
0.00317215 0.0343196 0.0168917 -0.00585061 0.0388609 0.0179249 -0.039126 0.0399637 0.0172098 
0.0352701 0.0439749 0.0172766 0.0195053 -0.043722 0.0185136 -0.0389435 -0.0425966 0.0193518 
-0.0136468 -0.0412372 0.0184864 0.0325128 -0.03812 0.0191359 -8.23525e-05 -0.034098 0.0186829 
-0.0177803 -0.0340186 0.0185788 -0.0161578 -0.0337243 0.0183505 -0.0233761 -0.031813 0.0192794 
-0.0220587 -0.0306349 0.0183796 -0.0346801 -0.0287009 0.0189397 0.0153133 -0.0285941 0.0185819 
0.00179778 -0.0247441 0.0185662 0.00558373 -0.0242787 0.018691 0.0102479 -0.024092 0.0186193 
-0.0139777 -0.0223984 0.0184189 -0.0127621 -0.0231756 0.0186141 0.0240101 -0.0228809 0.0185282 
0.0394323 -0.021923 0.0187574 -0.0210835 -0.0209207 0.0182707 -0.0033641 -0.0204173 0.018277 
-0.0207996 -0.0190456 0.0195018 -0.0147645 -0.0165889 0.0183911 0.0132043 -0.01541 0.0189679 
0.0323803 -0.0150629 0.0185373 -0.0279963 -0.0141356 0.0189517 0.0144468 -0.013247 0.0185015 
-0.00528066 -0.0121118 0.0187393 -0.0253401 -0.0103599 0.0194549 0.0334462 -0.00930086 0.018383 
-0.0150798 -0.00698339 0.0186563 -0.0253129 -0.0039775 0.0190028 0.0200271 -0.00425623 0.01835 
-0.0107529 -0.00365687 0.0188628 -0.0198668 -0.00211416 0.0187857 0.0116524 0.00206193 0.0184285 
-0.0233311 0.00384073 0.0193925 0.0183943 0.00266245 0.018494 0.0260144 0.00429017 0.0193104 
-0.0403489 0.00598291 0.0190529 0.0358407 0.00533501 0.0190691 -0.0429246 0.00657681 0.0187659 
-0.019893 0.00878872 0.0194822 -0.0105861 0.00898083 0.018343 0.0324887 0.00836074 0.0192894 
0.0234497 0.00978487 0.0191651 -0.00071691 0.0108932 0.0189838 -0.00841171 0.0143034 0.0181931 
0.012949 0.0143048 0.0194965 0.0396593 0.013993 0.0183188 -0.0287818 0.014969 0.0195199 
-0.0231109 0.0157017 0.0187839 -0.0408838 0.0159645 0.0190512 -0.0363159 0.0185996 0.0195192 
-0.0324762 0.0230005 0.0193004 -0.0148746 0.0223253 0.0183668 0.00126512 0.0228658 0.018223 
-0.0436572 0.0238848 0.0193963 -0.0128609 0.0265935 0.0186444 0.0397191 0.0283771 0.0192346 
0.0040127 0.0314243 0.019515 0.0191028 0.0315895 0.0185203 0.0193546 0.0324404 0.0187208 
-0.0425374 0.0333781 0.0189406 0.0278529 0.0342296 0.019206 0.00888594 0.0360502 0.0184786 
0.00367032 0.0371324 0.0194041 0.00201585 0.0404036 0.0188652 0.00528787 0.0432844 0.0184259 
-0.0390775 0.0447256 0.0188486 -0.0317519 -0.0446953 0.0201597 0.0406519 -0.0427256 0.0195806 
0.00849583 -0.0405939 0.0198718 -0.0289295 -0.0389067 0.0196808 -0.0234086 -0.038644 0.0203676 
-0.0195638 -0.0385913 0.0196856 -0.00338111 -0.0363358 0.0198378 0.0307351 -0.0355434 0.0198325 
-0.0179089 -0.0346335 0.0203326 -0.0210092 -0.0320472 0.019632 0.010226 -0.0308634 0.0201436 
0.0156293 -0.0283842 0.0199951 0.0347572 -0.0260666 0.0195312 0.0350196 -0.0250011 0.0205316 
0.0210005 -0.0239559 0.0197559 -0.038621 -0.0229432 0.0202201 0.0134129 -0.0192809 0.0197724 
0.0204492 -0.0194639 0.0203765 0.0296492 -0.015918 0.0199007 -0.00710141 -0.0133745 0.0196166 
0.00886689 -0.0141191 0.0199773 0.0347312 -0.012978 0.0198751 0.0253763 -0.011051 0.0199764 
0.0218314 -0.00971151 0.0200001 -0.0101373 -0.00698039 0.0198111 -0.00720807 -0.00608605 0.0198925 
0.00127443 -0.000618905 0.019703 0.0420414 -0.00101026 0.0196426 -0.0332593 0.000859011 0.0200495 
0.0189244 0.00254502 0.0199572 -0.027449 0.00511055 0.0198662 -0.01547 0.00642247 0.020064 
-0.0408306 0.00999374 0.0197383 -0.0408092 0.00981999 0.0206004 0.027557 0.009967 0.0198258 
-0.00808524 0.0113378 0.0196159 0.00418285 0.0112423 0.0207915 -0.0286532 0.0159811 0.0195975 
-0.0161548 0.0159009 0.0201619 -0.00317984 0.0164631 0.0196134 -0.0436896 0.0195853 0.0198493 
0.00742845 0.0199749 0.0198054 -0.0138035 0.0240512 0.0199905 -0.0132251 0.0252506 0.0201516 
-0.0214233 0.0285543 0.0195734 0.0337272 0.0324898 0.0197846 0.0380057 0.0324307 0.019849 
-0.00750544 0.0361316 0.0199808 -0.0379532 0.0399341 0.0202003 -0.00785852 0.041878 0.0203861 
0.0170579 0.0421878 0.0199648 0.0430506 0.0422314 0.0203042 -0.0190394 0.0446837 0.0208348 
0.0147823 -0.0446949 0.0215264 0.043014 -0.0343178 0.0209347 -0.00682403 -0.0314098 0.0221267 
0.0386193 -0.00496685 0.0216813 -0.0131355 0.00164571 0.0214824 -0.0137512 0.00384646 0.0218005 
0.0133448 0.00646544 0.0217786 -0.009285 0.00693532 0.0210051 -0.00598638 0.00689803 0.0208547 
0.021223 0.0244832 0.0208959 -0.014478 0.0275162 0.0217856 -0.0359241 0.0337864 0.0209877 
0.0132394 0.0345575 0.0209463 0.0272875 -0.0186725 0.0222493 0.0448793 -0.00396119 0.0231321 
-0.0442311 0.00821601 0.0233975 0.00976298 0.0163696 0.0221952 -0.0225361 -0.0441701 0.0239295 
0.0352883 -0.0103067 0.0242516 0.0127657 -0.00746761 0.0235764 -0.0122189 0.0175978 0.024218 
-0.0260391 0.0304395 0.0236943 0.039455 -0.000236508 0.0247184 0.0242571 -0.0100823 0.035165 

VERTICES 649 648
OFFSETS vtktypeint64
0 1 2 3 4 5 6 7 8 
9 10 11 12 13 14 15 16 17 
18 19 20 21 22 23 24 25 26 
27 28 29 30 31 32 33 34 35 
36 37 38 39 40 41 42 43 44 
45 46 47 48 49 50 51 52 53 
54 55 56 57 58 59 60 61 62 
63 64 65 66 67 68 69 70 71 
72 73 74 75 76 77 78 79 80 
81 82 83 84 85 86 87 88 89 
90 91 92 93 94 95 96 97 98 
99 100 101 102 103 104 105 106 107 
108 109 110 111 112 113 114 115 116 
117 118 119 120 121 122 123 124 125 
126 127 128 129 130 131 132 133 134 
135 136 137 138 139 140 141 142 143 
144 145 146 147 148 149 150 151 152 
153 154 155 156 157 158 159 160 161 
162 163 164 165 166 167 168 169 170 
171 172 173 174 175 176 177 178 179 
180 181 182 183 184 185 186 187 188 
189 190 191 192 193 194 195 196 197 
198 199 200 201 202 203 204 205 206 
207 208 209 210 211 212 213 214 215 
216 217 218 219 220 221 222 223 224 
225 226 227 228 229 230 231 232 233 
234 235 236 237 238 239 240 241 242 
243 244 245 246 247 248 249 250 251 
252 253 254 255 256 257 258 259 260 
261 262 263 264 265 266 267 268 269 
270 271 272 273 274 275 276 277 278 
279 280 281 282 283 284 285 286 287 
288 289 290 291 292 293 294 295 296 
297 298 299 300 301 302 303 304 305 
306 307 308 309 310 311 312 313 314 
315 316 317 318 319 320 321 322 323 
324 325 326 327 328 329 330 331 332 
333 334 335 336 337 338 339 340 341 
342 343 344 345 346 347 348 349 350 
351 352 353 354 355 356 357 358 359 
360 361 362 363 364 365 366 367 368 
369 370 371 372 373 374 375 376 377 
378 379 380 381 382 383 384 385 386 
387 388 389 390 391 392 393 394 395 
396 397 398 399 400 401 402 403 404 
405 406 407 408 409 410 411 412 413 
414 415 416 417 418 419 420 421 422 
423 424 425 426 427 428 429 430 431 
432 433 434 435 436 437 438 439 440 
441 442 443 444 445 446 447 448 449 
450 451 452 453 454 455 456 457 458 
459 460 461 462 463 464 465 466 467 
468 469 470 471 472 473 474 475 476 
477 478 479 480 481 482 483 484 485 
486 487 488 489 490 491 492 493 494 
495 496 497 498 499 500 501 502 503 
504 505 506 507 508 509 510 511 512 
513 514 515 516 517 518 519 520 521 
522 523 524 525 526 527 528 529 530 
531 532 533 534 535 536 537 538 539 
540 541 542 543 544 545 546 547 548 
549 550 551 552 553 554 555 556 557 
558 559 560 561 562 563 564 565 566 
567 568 569 570 571 572 573 574 575 
576 577 578 579 580 581 582 583 584 
585 586 587 588 589 590 591 592 593 
594 595 596 597 598 599 600 601 602 
603 604 605 606 607 608 609 610 611 
612 613 614 615 616 617 618 619 620 
621 622 623 624 625 626 627 628 629 
630 631 632 633 634 635 636 637 638 
639 640 641 642 643 644 645 646 647 
648 
CONNECTIVITY vtktypeint64
0 1 2 3 4 5 6 7 8 
9 10 11 12 13 14 15 16 17 
18 19 20 21 22 23 24 25 26 
27 28 29 30 31 32 33 34 35 
36 37 38 39 40 41 42 43 44 
45 46 47 48 49 50 51 52 53 
54 55 56 57 58 59 60 61 62 
63 64 65 66 67 68 69 70 71 
72 73 74 75 76 77 78 79 80 
81 82 83 84 85 86 87 88 89 
90 91 92 93 94 95 96 97 98 
99 100 101 102 103 104 105 106 107 
108 109 110 111 112 113 114 115 116 
117 118 119 120 121 122 123 124 125 
126 127 128 129 130 131 132 133 134 
135 136 137 138 139 140 141 142 143 
144 145 146 147 148 149 150 151 152 
153 154 155 156 157 158 159 160 161 
162 163 164 165 166 167 168 169 170 
171 172 173 174 175 176 177 178 179 
180 181 182 183 184 185 186 187 188 
189 190 191 192 193 194 195 196 197 
198 199 200 201 202 203 204 205 206 
207 208 209 210 211 212 213 214 215 
216 217 218 219 220 221 222 223 224 
225 226 227 228 229 230 231 232 233 
234 235 236 237 238 239 240 241 242 
243 244 245 246 247 248 249 250 251 
252 253 254 255 256 257 258 259 260 
261 262 263 264 265 266 267 268 269 
270 271 272 273 274 275 276 277 278 
279 280 281 282 283 284 285 286 287 
288 289 290 291 292 293 294 295 296 
297 298 299 300 301 302 303 304 305 
306 307 308 309 310 311 312 313 314 
315 316 317 318 319 320 321 322 323 
324 325 326 327 328 329 330 331 332 
333 334 335 336 337 338 339 340 341 
342 343 344 345 346 347 348 349 350 
351 352 353 354 355 356 357 358 359 
360 361 362 363 364 365 366 367 368 
369 370 371 372 373 374 375 376 377 
378 379 380 381 382 383 384 385 386 
387 388 389 390 391 392 393 394 395 
396 397 398 399 400 401 402 403 404 
405 406 407 408 409 410 411 412 413 
414 415 416 417 418 419 420 421 422 
423 424 425 426 427 428 429 430 431 
432 433 434 435 436 437 438 439 440 
441 442 443 444 445 446 447 448 449 
450 451 452 453 454 455 456 457 458 
459 460 461 462 463 464 465 466 467 
468 469 470 471 472 473 474 475 476 
477 478 479 480 481 482 483 484 485 
486 487 488 489 490 491 492 493 494 
495 496 497 498 499 500 501 502 503 
504 505 506 507 508 509 510 511 512 
513 514 515 516 517 518 519 520 521 
522 523 524 525 526 527 528 529 530 
531 532 533 534 535 536 537 538 539 
540 541 542 543 544 545 546 547 548 
549 550 551 552 553 554 555 556 557 
558 559 560 561 562 563 564 565 566 
567 568 569 570 571 572 573 574 575 
576 577 578 579 580 581 582 583 584 
585 586 587 588 589 590 591 592 593 
594 595 596 597 598 599 600 601 602 
603 604 605 606 607 608 609 610 611 
612 613 614 615 616 617 618 619 620 
621 622 623 624 625 626 627 628 629 
630 631 632 633 634 635 636 637 638 
639 640 641 642 643 644 645 646 647 

POINT_DATA 648
FIELD FieldData 12
id 1 648 int
293 370 418 214 150 433 219 362 164 
92 115 304 185 190 154 644 106 72 
383 57 465 631 458 407 396 450 169 
491 619 339 166 49 646 18 195 624 
643 632 648 459 470 444 602 647 175 
297 310 506 246 386 372 508 584 404 
331 317 289 292 132 66 630 36 432 
322 582 609 85 606 463 200 134 51 
347 107 137 291 267 282 439 355 231 
428 608 621 478 456 467 423 197 110 
588 163 611 26 327 270 600 356 626 
88 634 636 629 627 238 176 381 215 
227 127 336 515 385 610 568 86 261 
288 521 149 625 412 366 635 218 207 
35 34 24 645 574 237 58 6 125 
353 255 60 620 633 40 189 187 328 
318 639 597 87 367 605 303 640 604 
121 64 479 440 247 603 590 612 157 
324 615 243 83 186 598 641 593 556 
129 165 601 373 401 202 308 193 364 
607 637 504 201 158 583 253 148 29 
320 575 62 614 346 140 562 457 577 
256 226 571 570 543 352 128 581 578 
572 73 168 628 544 483 569 260 567 
11 592 542 341 538 334 546 595 622 
100 280 461 488 268 579 552 233 534 
616 589 294 71 167 472 174 496 618 
585 599 638 617 427 563 368 299 257 
642 565 56 613 141 454 420 345 273 
469 392 417 117 12 507 162 408 535 
410 321 594 343 623 348 251 155 555 
361 108 406 586 272 98 188 31 591 
314 22 82 489 319 229 505 333 445 
409 415 541 573 374 290 537 500 380 
349 554 399 42 263 360 135 204 90 
503 426 338 560 587 443 514 337 109 
14 199 509 114 596 94 232 437 435 
91 351 55 438 275 113 390 429 549 
99 326 411 159 436 69 139 548 502 
449 576 160 274 298 539 553 143 194 
8 566 248 580 557 564 75 495 486 
126 424 112 497 181 262 21 446 384 
46 220 118 561 33 529 330 254 104 
9 419 222 550 182 531 559 536 76 
302 84 203 122 518 477 295 103 533 
527 13 183 532 484 526 547 28 558 
551 240 306 530 211 264 311 95 32 
377 382 196 61 216 545 528 400 378 
236 178 358 184 54 447 161 357 287 
520 498 30 451 235 387 309 198 413 
375 475 89 414 52 271 102 487 344 
5 525 393 96 493 192 329 517 170 
59 146 16 53 511 10 278 252 142 
20 151 371 205 217 265 519 244 474 
510 119 395 63 138 431 279 206 524 
540 81 225 313 45 523 397 93 258 
68 359 388 350 156 239 250 354 147 
116 79 223 513 416 323 111 403 25 
177 462 376 74 276 460 43 23 38 
522 285 105 171 405 208 212 305 379 
501 153 301 124 144 145 296 221 17 
41 363 48 70 315 485 130 325 394 
191 266 179 332 481 65 455 421 286 
482 123 342 476 242 471 136 312 173 
210 67 492 402 307 283 120 430 335 
234 37 44 448 422 490 441 259 340 
101 39 224 365 80 389 77 284 245 
453 4 480 442 464 228 468 473 152 
281 97 131 209 180 466 452 249 277 
434 19 172 241 47 398 133 499 300 
512 425 213 78 369 494 391 516 50 
316 15 230 3 27 7 269 2 1 

type 1 648 int
1 1 1 1 1 1 1 1 1 
1 1 1 1 1 1 1 1 1 
1 1 1 1 1 1 1 1 1 
1 1 1 1 1 1 1 1 1 
1 1 1 1 1 1 1 1 1 
1 1 1 1 1 1 1 1 1 
1 1 1 1 1 1 1 1 1 
1 1 1 1 1 1 1 1 1 
1 1 1 1 1 1 1 1 1 
1 1 1 1 1 1 1 1 1 
1 1 1 1 1 1 1 1 1 
1 2 1 1 1 1 1 1 1 
1 1 1 1 1 1 1 1 1 
1 1 1 1 1 1 1 1 1 
1 1 1 1 1 1 1 2 1 
1 1 1 1 1 1 1 1 1 
1 1 1 1 1 1 1 1 1 
1 1 1 1 1 1 1 1 1 
1 1 1 1 1 1 1 1 1 
1 1 1 1 1 1 1 1 1 
1 1 1 1 1 1 1 1 1 
1 1 1 1 1 1 1 1 1 
1 1 1 1 1 1 1 1 1 
1 1 1 1 1 1 1 1 1 
2 1 1 1 1 1 1 1 1 
1 1 1 1 1 1 1 1 1 
1 1 1 1 1 1 1 1 1 
1 1 1 1 1 1 1 1 1 
1 1 1 1 1 1 1 1 1 
1 1 1 1 2 1 1 1 1 
1 1 1 1 1 1 1 1 1 
1 1 1 1 1 1 1 1 1 
1 1 1 1 1 1 1 1 1 
1 1 1 1 1 1 1 1 1 
1 1 1 1 1 1 1 1 1 
1 1 1 1 1 1 1 1 1 
2 1 1 1 1 1 1 1 1 
1 1 1 1 1 1 1 1 1 
1 1 1 1 1 1 1 1 1 
1 1 1 1 1 1 1 1 1 
2 1 1 1 1 1 1 1 1 
1 1 1 1 1 1 1 1 1 
1 1 1 1 1 1 1 1 1 
2 1 1 1 1 1 1 1 1 
1 1 1 1 1 1 1 1 1 
1 2 1 1 1 1 1 1 1 
1 1 1 1 1 1 1 1 1 
1 1 1 1 1 1 1 1 1 
1 1 1 1 1 1 1 1 1 
1 1 1 1 1 1 1 1 1 
1 1 1 1 1 1 1 1 1 
2 1 1 1 1 1 1 1 1 
1 1 2 1 1 2 1 1 1 
1 1 1 1 1 1 1 1 1 
1 1 1 1 1 1 1 1 1 
1 1 1 1 1 1 1 1 1 
1 1 1 1 1 1 1 1 1 
1 1 1 1 1 1 1 1 1 
1 1 1 1 1 1 1 1 1 
1 1 1 1 1 1 1 1 1 
1 1 1 1 1 1 1 1 1 
1 1 1 1 1 1 1 1 1 
1 1 1 1 1 1 1 1 1 
1 1 1 1 1 1 1 1 1 
1 1 1 1 1 1 1 1 1 
1 1 1 1 1 1 1 1 1 
1 1 1 1 1 1 1 1 1 
1 2 1 1 1 1 1 1 1 
1 1 1 1 1 1 1 1 1 
1 1 1 1 1 1 1 1 1 
2 1 1 1 1 1 1 2 1 
1 2 1 2 1 2 1 3 4 

i 3 648 int
0 0 0 0 0 0 0 0 0 
0 0 0 0 0 0 0 0 0 
0 0 0 0 0 0 0 0 0 
0 0 0 0 0 0 0 0 0 
0 0 0 0 0 0 0 0 0 
0 0 0 0 0 0 0 0 0 
0 0 0 0 0 0 0 0 0 
0 0 0 0 0 0 0 0 0 
0 0 0 0 0 0 0 0 0 
0 0 0 0 0 0 0 0 0 
0 0 0 0 0 0 0 0 0 
0 0 0 0 0 0 0 0 0 
0 0 0 0 0 0 0 0 0 
0 0 0 0 0 0 0 0 0 
0 0 0 0 0 0 0 0 0 
0 0 0 0 0 0 0 0 0 
0 0 0 0 0 0 0 0 0 
0 0 0 0 0 0 0 0 0 
0 0 0 0 0 0 0 0 0 
0 0 0 0 0 0 0 0 0 
0 0 0 0 0 0 0 0 0 
0 0 0 0 0 0 0 0 0 
0 0 0 0 0 0 0 0 0 
0 0 0 0 0 0 0 0 0 
0 0 0 0 0 0 0 0 0 
0 0 0 0 0 0 0 0 0 
0 0 0 0 0 0 0 0 0 
0 0 0 0 0 0 0 0 0 
0 0 0 0 0 0 0 0 0 
0 0 0 0 0 0 0 0 0 
0 0 0 0 0 0 0 0 0 
0 0 0 0 0 0 0 0 0 
0 0 0 0 0 0 0 0 0 
0 0 0 0 0 0 0 0 0 
0 0 0 0 0 0 0 0 0 
0 0 0 0 0 0 0 0 0 
0 0 0 0 0 0 0 0 0 
0 0 0 0 0 0 0 0 0 
0 0 0 0 0 0 0 0 0 
0 0 0 0 0 0 0 0 0 
0 0 0 0 0 0 0 0 0 
0 0 0 0 0 0 0 0 0 
0 0 0 0 0 0 0 0 0 
0 0 0 0 0 0 0 0 0 
0 0 0 0 0 0 0 0 0 
0 0 0 0 0 0 0 0 0 
0 0 0 0 0 0 0 0 0 
0 0 0 0 0 0 0 0 0 
0 0 0 0 0 0 0 0 0 
0 0 0 0 0 0 0 0 0 
0 0 0 0 0 0 0 0 0 
0 0 0 0 0 0 0 0 0 
0 0 0 0 0 0 0 0 0 
0 0 0 0 0 0 0 0 0 
0 0 0 0 0 0 0 0 0 
0 0 0 0 0 0 0 0 0 
0 0 0 0 0 0 0 0 0 
0 0 0 0 0 0 0 0 0 
0 0 0 0 0 0 0 0 0 
0 0 0 0 0 0 0 0 0 
0 0 0 0 0 0 0 0 0 
0 0 0 0 0 0 0 0 0 
0 0 0 0 0 0 0 0 0 
0 0 0 0 0 0 0 0 0 
0 0 0 0 0 0 0 0 0 
0 0 0 0 0 0 0 0 0 
0 0 0 0 0 0 0 0 0 
0 0 0 0 0 0 0 0 0 
0 0 0 0 0 0 0 0 0 
0 0 0 0 0 0 0 0 0 
0 0 0 0 0 0 0 0 0 
0 0 0 0 0 0 0 0 0 
0 0 0 0 0 0 0 0 0 
0 0 0 0 0 0 0 0 0 
0 0 0 0 0 0 0 0 0 
0 0 0 0 0 0 0 0 0 
0 0 0 0 0 0 0 0 0 
0 0 0 0 0 0 0 0 0 
0 0 0 0 0 0 0 0 0 
0 0 0 0 0 0 0 0 0 
0 0 0 0 0 0 0 0 0 
0 0 0 0 0 0 0 0 0 
0 0 0 0 0 0 0 0 0 
0 0 0 0 0 0 0 0 0 
0 0 0 0 0 0 0 0 0 
0 0 0 0 0 0 0 0 0 
0 0 0 0 0 0 0 0 0 
0 0 0 0 0 0 0 0 0 
0 0 0 0 0 0 0 0 0 
0 0 0 0 0 0 0 0 0 
0 0 0 0 0 0 0 0 0 
0 0 0 0 0 0 0 0 0 
0 0 0 0 0 0 0 0 0 
0 0 0 0 0 0 0 0 0 
0 0 0 0 0 0 0 0 0 
0 0 0 0 0 0 0 0 0 
0 0 0 0 0 0 0 0 0 
0 0 0 0 0 0 0 0 0 
0 0 0 0 0 0 0 0 0 
0 0 0 0 0 0 0 0 0 
0 0 0 0 0 0 0 0 0 
0 0 0 0 0 0 0 0 0 
0 0 0 0 0 0 0 0 0 
0 0 0 0 0 0 0 0 0 
0 0 0 0 0 0 0 0 0 
0 0 0 0 0 0 0 0 0 
0 0 0 0 0 0 0 0 0 
0 0 0 0 0 0 0 0 0 
0 0 0 0 0 0 0 0 0 
0 0 0 0 0 0 0 0 0 
0 0 0 0 0 0 0 0 0 
0 0 0 0 0 0 0 0 0 
0 0 0 0 0 0 0 0 0 
0 0 0 0 0 0 0 0 0 
0 0 0 0 0 0 0 0 0 
0 0 0 0 0 0 0 0 0 
0 0 0 0 0 0 0 0 0 
0 0 0 0 0 0 0 0 0 
0 0 0 0 0 0 0 0 0 
0 0 0 0 0 0 0 0 0 
0 0 0 0 0 0 0 0 0 
0 0 0 0 0 0 0 0 0 
0 0 0 0 0 0 0 0 0 
0 0 0 0 0 0 0 0 0 
0 0 0 0 0 0 0 0 0 
0 0 0 0 0 0 0 0 0 
0 0 0 0 0 0 0 0 0 
0 0 0 0 0 0 0 0 0 
0 0 0 0 0 0 0 0 0 
0 0 0 0 0 0 0 0 0 
0 0 0 0 0 0 0 0 0 
0 0 0 0 0 0 0 0 0 
0 0 0 0 0 0 0 0 0 
0 0 0 0 0 0 0 0 0 
0 0 0 0 0 0 0 0 0 
0 0 0 0 0 0 0 0 0 
0 0 0 0 0 0 0 0 0 
0 0 0 0 0 0 0 0 0 
0 0 0 0 0 0 0 0 0 
0 0 0 0 0 0 0 0 0 
0 0 0 0 0 0 0 0 0 
0 0 0 0 0 0 0 0 0 
0 0 0 0 0 0 0 0 0 
0 0 0 0 0 0 0 0 0 
0 0 0 0 0 0 0 0 0 
0 0 0 0 0 0 0 0 0 
0 0 0 0 0 0 0 0 0 
0 0 0 0 0 0 0 0 0 
0 0 0 0 0 0 0 0 0 
0 0 0 0 0 0 0 0 0 
0 0 0 0 0 0 0 0 0 
0 0 0 0 0 0 0 0 0 
0 0 0 0 0 0 0 0 0 
0 0 0 0 0 0 0 0 0 
0 0 0 0 0 0 0 0 0 
0 0 0 0 0 0 0 0 0 
0 0 0 0 0 0 0 0 0 
0 0 0 0 0 0 0 0 0 
0 0 0 0 0 0 0 0 0 
0 0 0 0 0 0 0 0 0 
0 0 0 0 0 0 0 0 0 
0 0 0 0 0 0 0 0 0 
0 0 0 0 0 0 0 0 0 
0 0 0 0 0 0 0 0 0 
0 0 0 0 0 0 0 0 0 
0 0 0 0 0 0 0 0 0 
0 0 0 0 0 0 0 0 0 
0 0 0 0 0 0 0 0 0 
0 0 0 0 0 0 0 0 0 
0 0 0 0 0 0 0 0 0 
0 0 0 0 0 0 0 0 0 
0 0 0 0 0 0 0 0 0 
0 0 0 0 0 0 0 0 0 
0 0 0 0 0 0 0 0 0 
0 0 0 0 0 0 0 0 0 
0 0 0 0 0 0 0 0 0 
0 0 0 0 0 0 0 0 0 
0 0 0 0 0 0 0 0 0 
0 0 0 0 0 0 0 0 0 
0 0 0 0 0 0 0 0 0 
0 0 0 0 0 0 0 0 0 
0 0 0 0 0 0 0 0 0 
0 0 0 0 0 0 0 0 0 
0 0 0 0 0 0 0 0 0 
0 0 0 0 0 0 0 0 0 
0 0 0 0 0 0 0 0 0 
0 0 0 0 0 0 0 0 0 
0 0 0 0 0 0 0 0 0 
0 0 0 0 0 0 0 0 0 
0 0 0 0 0 0 0 0 0 
0 0 0 0 0 0 0 0 0 
0 0 0 0 0 0 0 0 0 
0 0 0 0 0 0 0 0 0 
0 0 0 0 0 0 0 0 0 
0 0 0 0 0 0 0 0 0 
0 0 0 0 0 0 0 0 0 
0 0 0 0 0 0 0 0 0 
0 0 0 0 0 0 0 0 0 
0 0 0 0 0 0 0 0 0 
0 0 0 0 0 0 0 0 0 
0 0 0 0 0 0 0 0 0 
0 0 0 0 0 0 0 0 0 
0 0 0 0 0 0 0 0 0 
0 0 0 0 0 0 0 0 0 
0 0 0 0 0 0 0 0 0 
0 0 0 0 0 0 0 0 0 
0 0 0 0 0 0 0 0 0 
0 0 0 0 0 0 0 0 0 
0 0 0 0 0 0 0 0 0 
0 0 0 0 0 0 0 0 0 
0 0 0 0 0 0 0 0 0 
0 0 0 0 0 0 0 0 0 
0 0 0 0 0 0 0 0 0 
0 0 0 0 0 0 0 0 0 
0 0 0 0 0 0 0 0 0 
0 0 0 0 0 0 0 0 0 

v 3 648 double
0 0 0.062935180373 0 0 0.0735036614 0 0 0.06100333745 
0 0 0.062634532603 0 0 0.068254174139 0 0 0.059990024831 
0 0 0.063018635052 0 0 -0.18519667636 0 0 0.042615177855 
0 0 -0.1720379099 0 0 0.029607567247 0 0 -0.17369331144 
0 0 0.04487997278 0 0 0.065157210454 0 0 -0.16480892709 
0 0 -0.63799918749 0 0 -0.1775332918 0 0 0.044480251306 
0 0 0.032473781283 0 0 0.022182312389 0 0 0.031911248862 
0 0 -0.64774918749 0 0 -0.16805913114 0 0 -0.16644992772 
0 0 0.042210226721 0 0 0.060305909324 0 0 0.050360346073 
0 0 0.056948794707 0 0 0.23433441911 0 0 -0.16988804245 
0 0 -0.17049023565 0 0 -0.16648997859 0 0 0.24457962169 
0 0 0.043330258516 0 0 0.044034702493 0 0 0.21598196469 
0 0 0.19286118889 0 0 0.22726533454 0 0 0.22022136663 
0 0 -0.17011089665 0 0 -0.15722230115 0 0 -0.15505737589 
0 0 0.23728292434 0 0 0.22006564817 0 0 -0.16320400938 
0 0 -0.15744282635 0 0 -0.16249822935 0 0 -0.14528845729 
0 0 -0.16224099026 0 0 -0.15973318213 0 0 -0.17534963862 
0 0 -0.1410516083 0 0 0.19044277323 0 0 -0.14736589817 
0 0 -0.15162200625 0 0 -0.14951492948 0 0 -0.15720105129 
0 0 -0.14859846291 0 0 -0.15062528642 0 0 -0.14875232366 
0 0 0.23581195153 0 0 -0.15117942325 0 0 -0.14585273825 
0 0 -0.15499777996 0 0 0.18329773284 0 0 0.2170401708 
0 0 -0.14676587575 0 0 0.23315946253 0 0 -0.1344027083 
0 0 -0.16738539917 0 0 -0.16671750178 0 0 -0.13314150747 
0 0 -0.1406167744 0 0 -0.16529635678 0 0 -0.13560232613 
0 0 -0.16235860654 0 0 -0.13286918105 0 0 -0.15044646881 
0 0 -0.1321231372 0 0 -0.13838068169 0 0 -0.16738114554 
0 0 -0.16904679957 0 0 0.22224327241 0 0 -0.65424918749 
0 0 -0.13826065881 0 0 -0.14138496212 0 0 -0.13807862631 
0 0 -0.16153173085 0 0 -0.16592592142 0 0 -0.13372625166 
0 0 0.25036717133 0 0 -0.1337712331 0 0 0.18296916271 
0 0 -0.16398046146 0 0 -0.13882276032 0 0 -0.1656181149 
0 0 0.17996137585 0 0 -0.15767012028 0 0 0.13795915046 
0 0 -0.15612306176 0 0 0.21595923907 0 0 -0.64449918749 
0 0 0.18269048616 0 0 -0.65099918749 0 0 -0.12227267749 
0 0 -0.15903162324 0 0 -0.15291725152 0 0 -0.15199850927 
0 0 -0.12039502595 0 0 -0.15666247862 0 0 -0.15197505798 
0 0 -0.10615612488 0 0 -0.15245678279 0 0 0.20566876206 
0 0 0.20135259914 0 0 -0.15850247637 0 0 -0.12583121331 
0 0 -0.12081328755 0 0 -0.10607906784 0 0 -0.16007619397 
0 0 0.20713354909 0 0 -0.13270751934 0 0 -0.14289362931 
0 0 0.17255976474 0 0 -0.11185709892 0 0 -0.12731611258 
0 0 -0.10595314994 0 0 -0.10432566064 0 0 -0.11299780207 
0 0 0.062083953287 0 0 0.15269479815 0 0 -0.14013357505 
0 0 -0.14146338286 0 0 -0.15331914438 0 0 -0.14209379099 
0 0 -0.14913710715 0 0 -0.11087145832 0 0 -0.12231628114 
0 0 0.1778208262 0 0 0.11251356551 0 0 -0.12289373049 
0 0 -0.14629635742 0 0 -0.14543635291 0 0 -0.10962015876 
0 0 -0.11995949697 0 0 0.1727671594 0 0 0.10683047568 
0 0 -0.13625397486 0 0 -0.1312538379 0 0 0.042642324033 
0 0 -0.11475596714 0 0 -0.64124918749 0 0 0.07471246035 
0 0 -0.101296865 0 0 -0.10179118286 0 0 -0.09611537539 
0 0 -0.1285134855 0 0 -0.143271644 0 0 0.1684191842 
0 0 0.17495276322 0 0 0.019028044509 0 0 -0.095286730177 
0 0 -0.11130002168 0 0 0.040885721953 0 0 -0.1016532845 
0 0 -0.13343390065 0 0 -0.1293957402 0 0 0.10859993137 
0 0 -0.64124918749 0 0 0.083012948853 0 0 0.1253649276 
0 0 -0.099837512154 0 0 -0.1412354314 0 0 -0.0010354378874 
0 0 -0.14107688129 0 0 -0.094027968323 0 0 -0.10172572519 
0 0 -0.097581864079 0 0 -0.13800198234 0 0 -0.13852645292 
0 0 0.16135788653 0 0 0.13636292606 0 0 -0.087857405264 
0 0 -0.10079311914 0 0 -0.13502914341 0 0 0.09117309606 
0 0 -0.13643662176 0 0 -0.09145534487 0 0 -0.13614246967 
0 0 -0.10103298683 0 0 0.18103402464 0 0 -0.10013904199 
0 0 0.09978755015 0 0 -0.078417226942 0 0 -0.086788105893 
0 0 -0.010940027179 0 0 -0.1272187566 0 0 0.024200731999 
0 0 -0.12220309341 0 0 -0.085544282121 0 0 0.0027484165319 
0 0 0.039260149222 0 0 -0.026971949808 0 0 -0.076958727136 
0 0 -0.085624644665 0 0 0.1571607554 0 0 0.15016975184 
0 0 0.033188900547 0 0 -0.11933020765 0 0 -0.10243164411 
0 0 0.12143180619 0 0 0.17580633856 0 0 -0.12689415757 
0 0 0.15094573728 0 0 -0.07366426892 0 0 -0.015359832079 
0 0 -0.13616924314 0 0 0.030804633242 0 0 -0.043467206466 
0 0 -0.087158957257 0 0 -0.034299899532 0 0 -0.07420005477 
0 0 -0.001135048513 0 0 0.15510142312 0 0 0.13752862731 
0 0 -0.1162572975 0 0 -0.12712589396 0 0 -0.072458978354 
0 0 -0.12320443496 0 0 -0.075467913785 0 0 0.079892056615 
0 0 0.10349399442 0 0 -0.11950234056 0 0 0.071181882671 
0 0 0.092114989091 0 0 0.012155700564 0 0 -0.066435907761 
0 0 -0.059036852875 0 0 -0.10421877086 0 0 -0.08002820104 
0 0 -0.083562726126 0 0 -0.11394700841 0 0 0.13576434535 
0 0 0.13179366317 0 0 0.12526254389 0 0 0.083019168483 
0 0 0.13786088532 0 0 -0.1056530095 0 0 0.041454070161 
0 0 -0.064048198036 0 0 -0.074704316258 0 0 -0.07767217749 
0 0 -0.63799918749 0 0 0.053728672562 0 0 -0.070479608418 
0 0 0.11149025154 0 0 -0.08775478303 0 0 -0.10552253511 
0 0 -0.067357895952 0 0 -0.063156848512 0 0 -0.060401929762 
0 0 -0.075298220108 0 0 -0.070815130292 0 0 -0.10610020503 
0 0 -0.060872358591 0 0 -0.13344148684 0 0 -0.037270734196 
0 0 -0.1069070344 0 0 -0.11407005835 0 0 0.092045665235 
0 0 -0.10588712531 0 0 -0.10857175843 0 0 0.11580264491 
0 0 -0.080175576243 0 0 0.11120176567 0 0 -0.063265992594 
0 0 -0.079570362436 0 0 -0.10408193911 0 0 0.15264172213 
0 0 -0.052857359615 0 0 -0.067079970249 0 0 -0.10524400988 
0 0 0.1364228567 0 0 -0.075230995575 0 0 -0.08558032222 
0 0 -0.091321634868 0 0 -0.041578013155 0 0 0.020464132461 
0 0 -0.087995975438 0 0 -0.097805837262 0 0 -0.03404654627 
0 0 -0.041439046249 0 0 -0.092037566096 0 0 -0.093908979841 
0 0 -0.078878625788 0 0 -0.053682417449 0 0 -0.046863256021 
0 0 -0.09040946601 0 0 -0.085544720066 0 0 0.14460187259 
0 0 0.094963731405 0 0 -0.028391348123 0 0 -0.097604210032 
0 0 0.14233428964 0 0 -0.098022003016 0 0 -0.039021441942 
0 0 -0.10039450193 0 0 0.12833676501 0 0 -0.09705002527 
0 0 -0.056793526804 0 0 -0.098448900821 0 0 -0.050900530546 
0 0 -0.048706446769 0 0 -0.049411290826 0 0 -0.088975775799 
0 0 -0.022356449507 0 0 -0.047020208203 0 0 -0.036762228527 
0 0 0.10914294258 0 0 0.031807517903 0 0 -0.028758396898 
0 0 0.033806067426 0 0 -0.097919396467 0 0 -0.058222251827 
0 0 -0.1194436193 0 0 -0.091922811447 0 0 -0.021396108065 
0 0 -0.031791933119 0 0 0.093728342315 0 0 -0.058156696006 
0 0 -0.058028016146 0 0 -0.077839154074 0 0 -0.10767647087 
0 0 -0.09812832335 0 0 -0.089250743066 0 0 -0.033579017912 
0 0 -0.02967992494 0 0 -0.07224284492 0 0 -0.069289024839 
0 0 -0.073837357771 0 0 -0.072393249187 0 0 0.033454153638 
0 0 -0.022239709046 0 0 -0.087044603132 0 0 -0.086074149975 
0 0 -0.014207210601 0 0 -0.026229298561 0 0 -0.011832889427 
0 0 -0.028889369669 0 0 0.10714160075 0 0 -0.0091404266136 
0 0 -0.025733543364 0 0 0.047359111818 0 0 -0.021534271791 
0 0 -0.027965886422 0 0 -0.079875537657 0 0 0.090658358196 
0 0 0.017107837327 0 0 -0.020360030034 0 0 -0.027445678771 
0 0 -0.10375434997 0 0 0.050244029516 0 0 -0.08027551405 
0 0 0.039065175257 0 0 0.10500410281 0 0 0.04593674555 
0 0 -0.072575634458 0 0 -0.084935142895 0 0 -0.07665310733 
0 0 -0.034835886878 0 0 -0.089146069893 0 0 -0.088400235701 
0 0 -0.013775083902 0 0 -0.026056953682 0 0 -0.0067615352013 
0 0 -0.087499106225 0 0 -0.069822967861 0 0 -0.080634870782 
0 0 -0.021333082801 0 0 -0.02052993373 0 0 -0.010969805189 
0 0 0.099016868484 0 0 -0.018912743925 0 0 -0.039646252394 
0 0 -0.079201914824 0 0 -0.030406120466 0 0 -0.083250897951 
0 0 -0.10692276837 0 0 0.0029971987687 0 0 -0.089448547394 
0 0 0.092110644145 0 0 -0.039101385161 0 0 0.13669968463 
0 0 -0.0049406425408 0 0 -0.01050440739 0 0 -0.077658529956 
0 0 -0.031934391885 0 0 -0.059560656959 0 0 0.003794638326 
0 0 -0.068953180773 0 0 0.033717682983 0 0 -0.055052262556 
0 0 -0.052304039634 0 0 -0.0084643644882 0 0 0.047291155459 
0 0 0.057627923551 0 0 -0.092834786611 0 0 -0.068863991768 
0 0 0.060606577644 0 0 -0.063469069236 0 0 0.0068756664383 
0 0 0.056585789069 0 0 -0.056081998679 0 0 0.10031558705 
0 0 0.048254438053 0 0 -0.07379776441 0 0 0.0060286391417 
0 0 0.093289143017 0 0 -0.060595818096 0 0 0.014233110278 
0 0 -0.057439074109 0 0 0.0029711513071 0 0 -0.071550535899 
0 0 -0.06086012013 0 0 0.010276551068 0 0 -0.058625834741 
0 0 -0.072046893364 0 0 -0.055172340866 0 0 0.060999391257 
0 0 0.029318558325 0 0 0.0090131164696 0 0 -0.065384183123 
0 0 -0.067690169254 0 0 -0.058805072425 0 0 -0.00099872751307 
0 0 0.016858496327 0 0 -0.076388044197 0 0 -0.067884697116 
0 0 -0.070835142622 0 0 -0.075590804232 0 0 -0.066088563287 
0 0 -0.0076546834047 0 0 -0.062026233811 0 0 -0.076351677823 
0 0 -0.062120990923 0 0 0.0075113770903 0 0 -0.0028205688617 
0 0 -0.011302367985 0 0 -0.064992454133 0 0 -0.020654521568 
0 0 -0.06356484143 0 0 -0.057081732093 0 0 -0.026098866658 
0 0 -0.042976667178 0 0 -0.034164961392 0 0 -0.054273336741 
0 0 -0.037542304822 0 0 -0.031006094579 0 0 -0.0025076987835 
0 0 -0.078142623863 0 0 0.066298346865 0 0 -0.03279235652 
0 0 -0.064141428516 0 0 -0.028178781092 0 0 0.016422354017 
0 0 -0.035091645386 0 0 0.059256470288 0 0 -0.038312918535 
0 0 -0.045519586508 0 0 -0.043291750626 0 0 -0.073227460248 
0 0 -0.036726212179 0 0 0.004188250846 0 0 -0.089477363114 
0 0 -0.049511489759 0 0 -0.036663490112 0 0 -0.033240032229 
0 0 -0.043592931822 0 0 -0.046844948686 0 0 -0.024341310253 
0 0 -0.032391026896 0 0 -0.023791912133 0 0 -0.030919768858 
0 0 0.0089069562808 0 0 -0.03836070025 0 0 -0.053489039245 
0 0 0.084780942567 0 0 -0.0531596747 0 0 -0.038733388319 
0 0 -0.046044107449 0 0 -0.020271366093 0 0 -0.039407145425 
0 0 -0.03422303245 0 0 -0.038743881577 0 0 0.041942765594 
0 0 0.065908270976 0 0 -0.052196514949 0 0 -0.024819981 
0 0 -0.05392574664 0 0 -0.038879238177 0 0 0.03489926587 
0 0 -0.043039347118 0 0 -0.021842096053 0 0 0.0090712513344 
0 0 -0.018953277835 0 0 0.0026136527599 0 0 0.014399565953 
0 0 -0.013359849706 0 0 -0.019767165951 0 0 -0.025227753115 
0 0 -0.031254028129 0 0 -0.0035746806293 0 0 -0.013675150519 
0 0 -0.017847961421 0 0 -0.030407393875 0 0 -0.050211516283 
0 0 0.062110472238 0 0 -0.030667734869 0 0 -0.028625336796 
0 0 -0.041995899348 0 0 -0.021139520801 0 0 -0.020752028416 
0 0 0.011198869986 0 0 -0.028588985423 0 0 -0.002761501178 
0 0 -0.032510708584 0 0 -0.0045850914314 0 0 -0.015726620114 
0 0 -0.015537498698 0 0 0.01156966802 0 0 -0.028558791808 
0 0 0.023562775645 0 0 -0.0091670103423 0 0 -0.020861965142 
0 0 -0.028154505986 0 0 -0.0151324031 0 0 -0.037138909128 
0 0 -0.0047705469316 0 0 -0.01627621208 0 0 -0.015729098 
0 0 0.012320885163 0 0 0.00044428155893 0 0 -0.016578352668 
0 0 -0.0027464896873 0 0 -0.028358925605 0 0 0.0077694889508 
0 0 -0.0011913777196 0 0 -0.0058132772414 0 0 -0.034302083038 
0 0 0.011051092934 0 0 -0.030478156155 0 0 0.017280933588 
0 0 -0.012358623194 0 0 -0.00017855303933 0 0 0.017354423577 
0 0 -0.0073944583336 0 0 -0.027581198331 0 0 -0.036228715063 
0 0 0.012176970095 0 0 -0.017178857234 0 0 -0.0024595381004 
0 0 0.0075240601631 0 0 -0.022205758932 0 0 -0.03427873409 
0 0 -0.0164705178 0 0 -0.011982513612 0 0 -0.019173818633 
0 0 -4.8854187921e-05 0 0 -0.021352227945 0 0 -0.027427368512 
0 0 -0.0062497070426 0 0 0.025687359651 0 0 -0.0032422890407 
0 0 0.0095399526641 0 0 0.020169656469 0 0 0.0364490027 
0 0 0.0062970148179 0 0 0.038989873702 0 0 0.034685990883 
0 0 0.025641334608 0 0 0.015342349529 0 0 0.032399071913 
0 0 0.027801185353 0 0 -0.0078650221002 0 0 -0.0043072425066 
0 0 0.017217821822 0 0 0.040218089767 0 0 0.022181378913 
0 0 0.00037648654165 0 0 0.025034317951 0 0 0.021420910948 
0 0 0.01443351482 0 0 0.028352260647 0 0 0.0064070536194 
0 0 0.030199854982 0 0 0.032336824509 0 0 0.03523265393 
0 0 0.026954879511 0 0 0.012923593272 0 0 0.028248435473 
0 0 0.0040792562101 0 0 0.018933700734 0 0 0.019219189102 
0 0 0.0037001595671 0 0 -0.05714241923 0 0 0.0051725854326 
0 0 0.0021261691857 0 0 0.037377713012 0 0 0.019972942694 
0 0 0.028343097796 0 0 0.022085395982 0 0 0.030900230145 
0 0 -0.0061451333893 0 0 0.029370669946 0 0 0.027118104285 
0 0 0.015954034031 0 0 0.005103207205 0 0 0.0015279759907 
0 0 0.020576280408 0 0 0.038990553033 0 0 0.040914472105 
0 0 0.014178564471 0 0 0.041188114278 0 0 0.03703608082 
0 0 0.050753965079 0 0 0.023681197274 0 0 0.04032547774 
0 0 0.049531345079 0 0 0.023745661141 0 0 0.022166185878 
0 0 0.13330413992 0 0 -0.01008436001 0 0 -0.0055257716433 
0 0 -0.016711384258 0 0 0.054924545498 0 0 0.035321417668 
0 0 0.03643510339 0 0 0.063188904819 0 0 0.025451173882 
0 0 0.031298403143 0 0 -0.035075735574 0 0 0.066879661041 
0 0 0.033091592173 0 0 0.063490859411 0 0 0.0342841462 
0 0 0.05499267595 0 0 -0.035805534954 0 0 0.084254954216 

f 3 648 double
0 0 -1.7425367252e-10 0 0 -1.7425367252e-10 0 0 -1.7425367252e-10 
0 0 -1.7425367252e-10 0 0 -1.7425367252e-10 0 0 -1.7425367252e-10 
0 0 -1.7425367252e-10 0 0 -1.7425367252e-10 0 0 -1.7425367252e-10 
0 0 -1.7425367252e-10 0 0 -1.7425367252e-10 0 0 -1.7425367252e-10 
0 0 -1.7425367252e-10 0 0 -1.7425367252e-10 0 0 -1.7425367252e-10 
0 0 -1.7425367252e-10 0 0 -1.7425367252e-10 0 0 -1.7425367252e-10 
0 0 -1.7425367252e-10 0 0 -1.7425367252e-10 0 0 -1.7425367252e-10 
0 0 -1.7425367252e-10 0 0 -1.7425367252e-10 0 0 -1.7425367252e-10 
0 0 -1.7425367252e-10 0 0 -1.7425367252e-10 0 0 -1.7425367252e-10 
0 0 -1.7425367252e-10 0 0 -1.7425367252e-10 0 0 -1.7425367252e-10 
0 0 -1.7425367252e-10 0 0 -1.7425367252e-10 0 0 -1.7425367252e-10 
0 0 -1.7425367252e-10 0 0 -1.7425367252e-10 0 0 -1.7425367252e-10 
0 0 -1.7425367252e-10 0 0 -1.7425367252e-10 0 0 -1.7425367252e-10 
0 0 -1.7425367252e-10 0 0 -1.7425367252e-10 0 0 -1.7425367252e-10 
0 0 -1.7425367252e-10 0 0 -1.7425367252e-10 0 0 -1.7425367252e-10 
0 0 -1.7425367252e-10 0 0 -1.7425367252e-10 0 0 -1.7425367252e-10 
0 0 -1.7425367252e-10 0 0 -1.7425367252e-10 0 0 -1.7425367252e-10 
0 0 -1.7425367252e-10 0 0 -1.7425367252e-10 0 0 -1.7425367252e-10 
0 0 -1.7425367252e-10 0 0 -1.7425367252e-10 0 0 -1.7425367252e-10 
0 0 -1.7425367252e-10 0 0 -1.7425367252e-10 0 0 -1.7425367252e-10 
0 0 -1.7425367252e-10 0 0 -1.7425367252e-10 0 0 -1.7425367252e-10 
0 0 -1.7425367252e-10 0 0 -1.7425367252e-10 0 0 -1.7425367252e-10 
0 0 -1.7425367252e-10 0 0 -1.7425367252e-10 0 0 -1.7425367252e-10 
0 0 -1.7425367252e-10 0 0 -1.7425367252e-10 0 0 -1.7425367252e-10 
0 0 -1.7425367252e-10 0 0 -1.7425367252e-10 0 0 -1.7425367252e-10 
0 0 -1.7425367252e-10 0 0 -1.7425367252e-10 0 0 -1.7425367252e-10 
0 0 -1.7425367252e-10 0 0 -1.7425367252e-10 0 0 -1.7425367252e-10 
0 0 -1.7425367252e-10 0 0 -1.7425367252e-10 0 0 -1.7425367252e-10 
0 0 -1.7425367252e-10 0 0 -1.7425367252e-10 0 0 -1.7425367252e-10 
0 0 -1.7425367252e-10 0 0 -1.7425367252e-10 0 0 -1.7425367252e-10 
0 0 -1.7425367252e-10 0 0 -1.7425367252e-10 0 0 -1.7425367252e-10 
0 0 -1.7425367252e-10 0 0 -1.7425367252e-10 0 0 -1.7425367252e-10 
0 0 -1.7425367252e-10 0 0 -1.7425367252e-10 0 0 -1.7425367252e-10 
0 0 -1.7425367252e-10 0 0 -8.9019973083e-09 0 0 -1.7425367252e-10 
0 0 -1.7425367252e-10 0 0 -1.7425367252e-10 0 0 -1.7425367252e-10 
0 0 -1.7425367252e-10 0 0 -1.7425367252e-10 0 0 -1.7425367252e-10 
0 0 -1.7425367252e-10 0 0 -1.7425367252e-10 0 0 -1.7425367252e-10 
0 0 -1.7425367252e-10 0 0 -1.7425367252e-10 0 0 -1.7425367252e-10 
0 0 -1.7425367252e-10 0 0 -1.7425367252e-10 0 0 -1.7425367252e-10 
0 0 -1.7425367252e-10 0 0 -1.7425367252e-10 0 0 -1.7425367252e-10 
0 0 -1.7425367252e-10 0 0 -1.7425367252e-10 0 0 -1.7425367252e-10 
0 0 -1.7425367252e-10 0 0 -1.7425367252e-10 0 0 -1.7425367252e-10 
0 0 -1.7425367252e-10 0 0 -1.7425367252e-10 0 0 -1.7425367252e-10 
0 0 -1.7425367252e-10 0 0 -1.7425367252e-10 0 0 -1.7425367252e-10 
0 0 -1.7425367252e-10 0 0 -8.9019973083e-09 0 0 -1.7425367252e-10 
0 0 -1.7425367252e-10 0 0 -1.7425367252e-10 0 0 -1.7425367252e-10 
0 0 -1.7425367252e-10 0 0 -1.7425367252e-10 0 0 -1.7425367252e-10 
0 0 -1.7425367252e-10 0 0 -1.7425367252e-10 0 0 -1.7425367252e-10 
0 0 -1.7425367252e-10 0 0 -1.7425367252e-10 0 0 -1.7425367252e-10 
0 0 -1.7425367252e-10 0 0 -1.7425367252e-10 0 0 -1.7425367252e-10 
0 0 -1.7425367252e-10 0 0 -1.7425367252e-10 0 0 -1.7425367252e-10 
0 0 -1.7425367252e-10 0 0 -1.7425367252e-10 0 0 -1.7425367252e-10 
0 0 -1.7425367252e-10 0 0 -1.7425367252e-10 0 0 -1.7425367252e-10 
0 0 -1.7425367252e-10 0 0 -1.7425367252e-10 0 0 -1.7425367252e-10 
0 0 -1.7425367252e-10 0 0 -1.7425367252e-10 0 0 -1.7425367252e-10 
0 0 -1.7425367252e-10 0 0 -1.7425367252e-10 0 0 -1.7425367252e-10 
0 0 -1.7425367252e-10 0 0 -1.7425367252e-10 0 0 -1.7425367252e-10 
0 0 -1.7425367252e-10 0 0 -1.7425367252e-10 0 0 -1.7425367252e-10 
0 0 -1.7425367252e-10 0 0 -1.7425367252e-10 0 0 -1.7425367252e-10 
0 0 -1.7425367252e-10 0 0 -1.7425367252e-10 0 0 -1.7425367252e-10 
0 0 -1.7425367252e-10 0 0 -1.7425367252e-10 0 0 -1.7425367252e-10 
0 0 -1.7425367252e-10 0 0 -1.7425367252e-10 0 0 -1.7425367252e-10 
0 0 -1.7425367252e-10 0 0 -1.7425367252e-10 0 0 -1.7425367252e-10 
0 0 -1.7425367252e-10 0 0 -1.7425367252e-10 0 0 -1.7425367252e-10 
0 0 -1.7425367252e-10 0 0 -1.7425367252e-10 0 0 -1.7425367252e-10 
0 0 -1.7425367252e-10 0 0 -1.7425367252e-10 0 0 -1.7425367252e-10 
0 0 -1.7425367252e-10 0 0 -1.7425367252e-10 0 0 -1.7425367252e-10 
0 0 -1.7425367252e-10 0 0 -1.7425367252e-10 0 0 -1.7425367252e-10 
0 0 -1.7425367252e-10 0 0 -1.7425367252e-10 0 0 -1.7425367252e-10 
0 0 -1.7425367252e-10 0 0 -1.7425367252e-10 0 0 -1.7425367252e-10 
0 0 -1.7425367252e-10 0 0 -1.7425367252e-10 0 0 -1.7425367252e-10 
0 0 -1.7425367252e-10 0 0 -1.7425367252e-10 0 0 -1.7425367252e-10 
0 0 -8.9019973083e-09 0 0 -1.7425367252e-10 0 0 -1.7425367252e-10 
0 0 -1.7425367252e-10 0 0 -1.7425367252e-10 0 0 -1.7425367252e-10 
0 0 -1.7425367252e-10 0 0 -1.7425367252e-10 0 0 -1.7425367252e-10 
0 0 -1.7425367252e-10 0 0 -1.7425367252e-10 0 0 -1.7425367252e-10 
0 0 -1.7425367252e-10 0 0 -1.7425367252e-10 0 0 -1.7425367252e-10 
0 0 -1.7425367252e-10 0 0 -1.7425367252e-10 0 0 -1.7425367252e-10 
0 0 -1.7425367252e-10 0 0 -1.7425367252e-10 0 0 -1.7425367252e-10 
0 0 -1.7425367252e-10 0 0 -1.7425367252e-10 0 0 -1.7425367252e-10 
0 0 -1.7425367252e-10 0 0 -1.7425367252e-10 0 0 -1.7425367252e-10 
0 0 -1.7425367252e-10 0 0 -1.7425367252e-10 0 0 -1.7425367252e-10 
0 0 -1.7425367252e-10 0 0 -1.7425367252e-10 0 0 -1.7425367252e-10 
0 0 -1.7425367252e-10 0 0 -1.7425367252e-10 0 0 -1.7425367252e-10 
0 0 -1.7425367252e-10 0 0 -1.7425367252e-10 0 0 -1.7425367252e-10 
0 0 -1.7425367252e-10 0 0 -1.7425367252e-10 0 0 -1.7425367252e-10 
0 0 -1.7425367252e-10 0 0 -1.7425367252e-10 0 0 -1.7425367252e-10 
0 0 -1.7425367252e-10 0 0 -1.7425367252e-10 0 0 -1.7425367252e-10 
0 0 -1.7425367252e-10 0 0 -8.9019973083e-09 0 0 -1.7425367252e-10 
0 0 -1.7425367252e-10 0 0 -1.7425367252e-10 0 0 -1.7425367252e-10 
0 0 -1.7425367252e-10 0 0 -1.7425367252e-10 0 0 -1.7425367252e-10 
0 0 -1.7425367252e-10 0 0 -1.7425367252e-10 0 0 -1.7425367252e-10 
0 0 -1.7425367252e-10 0 0 -1.7425367252e-10 0 0 -1.7425367252e-10 
0 0 -1.7425367252e-10 0 0 -1.7425367252e-10 0 0 -1.7425367252e-10 
0 0 -1.7425367252e-10 0 0 -1.7425367252e-10 0 0 -1.7425367252e-10 
0 0 -1.7425367252e-10 0 0 -1.7425367252e-10 0 0 -1.7425367252e-10 
0 0 -1.7425367252e-10 0 0 -1.7425367252e-10 0 0 -1.7425367252e-10 
0 0 -1.7425367252e-10 0 0 -1.7425367252e-10 0 0 -1.7425367252e-10 
0 0 -1.7425367252e-10 0 0 -1.7425367252e-10 0 0 -1.7425367252e-10 
0 0 -1.7425367252e-10 0 0 -1.7425367252e-10 0 0 -1.7425367252e-10 
0 0 -1.7425367252e-10 0 0 -1.7425367252e-10 0 0 -1.7425367252e-10 
0 0 -1.7425367252e-10 0 0 -1.7425367252e-10 0 0 -1.7425367252e-10 
0 0 -1.7425367252e-10 0 0 -1.7425367252e-10 0 0 -1.7425367252e-10 
0 0 -1.7425367252e-10 0 0 -1.7425367252e-10 0 0 -1.7425367252e-10 
0 0 -1.7425367252e-10 0 0 -1.7425367252e-10 0 0 -1.7425367252e-10 
0 0 -1.7425367252e-10 0 0 -1.7425367252e-10 0 0 -1.7425367252e-10 
0 0 -1.7425367252e-10 0 0 -1.7425367252e-10 0 0 -1.7425367252e-10 
0 0 -1.7425367252e-10 0 0 -1.7425367252e-10 0 0 -1.7425367252e-10 
0 0 -8.9019973083e-09 0 0 -1.7425367252e-10 0 0 -1.7425367252e-10 
0 0 -1.7425367252e-10 0 0 -1.7425367252e-10 0 0 -1.7425367252e-10 
0 0 -1.7425367252e-10 0 0 -1.7425367252e-10 0 0 -1.7425367252e-10 
0 0 -1.7425367252e-10 0 0 -1.7425367252e-10 0 0 -1.7425367252e-10 
0 0 -1.7425367252e-10 0 0 -1.7425367252e-10 0 0 -1.7425367252e-10 
0 0 -1.7425367252e-10 0 0 -1.7425367252e-10 0 0 -1.7425367252e-10 
0 0 -1.7425367252e-10 0 0 -1.7425367252e-10 0 0 -1.7425367252e-10 
0 0 -1.7425367252e-10 0 0 -1.7425367252e-10 0 0 -1.7425367252e-10 
0 0 -1.7425367252e-10 0 0 -1.7425367252e-10 0 0 -1.7425367252e-10 
0 0 -1.7425367252e-10 0 0 -1.7425367252e-10 0 0 -1.7425367252e-10 
0 0 -1.7425367252e-10 0 0 -1.7425367252e-10 0 0 -1.7425367252e-10 
0 0 -1.7425367252e-10 0 0 -1.7425367252e-10 0 0 -1.7425367252e-10 
0 0 -8.9019973083e-09 0 0 -1.7425367252e-10 0 0 -1.7425367252e-10 
0 0 -1.7425367252e-10 0 0 -1.7425367252e-10 0 0 -1.7425367252e-10 
0 0 -1.7425367252e-10 0 0 -1.7425367252e-10 0 0 -1.7425367252e-10 
0 0 -1.7425367252e-10 0 0 -1.7425367252e-10 0 0 -1.7425367252e-10 
0 0 -1.7425367252e-10 0 0 -1.7425367252e-10 0 0 -1.7425367252e-10 
0 0 -1.7425367252e-10 0 0 -1.7425367252e-10 0 0 -1.7425367252e-10 
0 0 -1.7425367252e-10 0 0 -1.7425367252e-10 0 0 -1.7425367252e-10 
0 0 -1.7425367252e-10 0 0 -1.7425367252e-10 0 0 -1.7425367252e-10 
0 0 -1.7425367252e-10 0 0 -1.7425367252e-10 0 0 -1.7425367252e-10 
0 0 -8.9019973083e-09 0 0 -1.7425367252e-10 0 0 -1.7425367252e-10 
0 0 -1.7425367252e-10 0 0 -1.7425367252e-10 0 0 -1.7425367252e-10 
0 0 -1.7425367252e-10 0 0 -1.7425367252e-10 0 0 -1.7425367252e-10 
0 0 -1.7425367252e-10 0 0 -1.7425367252e-10 0 0 -1.7425367252e-10 
0 0 -1.7425367252e-10 0 0 -1.7425367252e-10 0 0 -1.7425367252e-10 
0 0 -1.7425367252e-10 0 0 -1.7425367252e-10 0 0 -1.7425367252e-10 
0 0 -1.7425367252e-10 0 0 -8.9019973083e-09 0 0 -1.7425367252e-10 
0 0 -1.7425367252e-10 0 0 -1.7425367252e-10 0 0 -1.7425367252e-10 
0 0 -1.7425367252e-10 0 0 -1.7425367252e-10 0 0 -1.7425367252e-10 
0 0 -1.7425367252e-10 0 0 -1.7425367252e-10 0 0 -1.7425367252e-10 
0 0 -1.7425367252e-10 0 0 -1.7425367252e-10 0 0 -1.7425367252e-10 
0 0 -1.7425367252e-10 0 0 -1.7425367252e-10 0 0 -1.7425367252e-10 
0 0 -1.7425367252e-10 0 0 -1.7425367252e-10 0 0 -1.7425367252e-10 
0 0 -1.7425367252e-10 0 0 -1.7425367252e-10 0 0 -1.7425367252e-10 
0 0 -1.7425367252e-10 0 0 -1.7425367252e-10 0 0 -1.7425367252e-10 
0 0 -1.7425367252e-10 0 0 -1.7425367252e-10 0 0 -1.7425367252e-10 
0 0 -1.7425367252e-10 0 0 -1.7425367252e-10 0 0 -1.7425367252e-10 
0 0 -1.7425367252e-10 0 0 -1.7425367252e-10 0 0 -1.7425367252e-10 
0 0 -1.7425367252e-10 0 0 -1.7425367252e-10 0 0 -1.7425367252e-10 
0 0 -1.7425367252e-10 0 0 -1.7425367252e-10 0 0 -1.7425367252e-10 
0 0 -1.7425367252e-10 0 0 -1.7425367252e-10 0 0 -1.7425367252e-10 
0 0 -1.7425367252e-10 0 0 -1.7425367252e-10 0 0 -1.7425367252e-10 
0 0 -1.7425367252e-10 0 0 -1.7425367252e-10 0 0 -1.7425367252e-10 
0 0 -1.7425367252e-10 0 0 -1.7425367252e-10 0 0 -1.7425367252e-10 
0 0 -8.9019973083e-09 0 0 -1.7425367252e-10 0 0 -1.7425367252e-10 
0 0 -1.7425367252e-10 0 0 -1.7425367252e-10 0 0 -1.7425367252e-10 
0 0 -1.7425367252e-10 0 0 -1.7425367252e-10 0 0 -1.7425367252e-10 
0 0 -1.7425367252e-10 0 0 -1.7425367252e-10 0 0 -8.9019973083e-09 
0 0 -1.7425367252e-10 0 0 -1.7425367252e-10 0 0 -8.9019973083e-09 
0 0 -1.7425367252e-10 0 0 -1.7425367252e-10 0 0 -1.7425367252e-10 
0 0 -1.7425367252e-10 0 0 -1.7425367252e-10 0 0 -1.7425367252e-10 
0 0 -1.7425367252e-10 0 0 -1.7425367252e-10 0 0 -1.7425367252e-10 
0 0 -1.7425367252e-10 0 0 -1.7425367252e-10 0 0 -1.7425367252e-10 
0 0 -1.7425367252e-10 0 0 -1.7425367252e-10 0 0 -1.7425367252e-10 
0 0 -1.7425367252e-10 0 0 -1.7425367252e-10 0 0 -1.7425367252e-10 
0 0 -1.7425367252e-10 0 0 -1.7425367252e-10 0 0 -1.7425367252e-10 
0 0 -1.7425367252e-10 0 0 -1.7425367252e-10 0 0 -1.7425367252e-10 
0 0 -1.7425367252e-10 0 0 -1.7425367252e-10 0 0 -1.7425367252e-10 
0 0 -1.7425367252e-10 0 0 -1.7425367252e-10 0 0 -1.7425367252e-10 
0 0 -1.7425367252e-10 0 0 -1.7425367252e-10 0 0 -1.7425367252e-10 
0 0 -1.7425367252e-10 0 0 -1.7425367252e-10 0 0 -1.7425367252e-10 
0 0 -1.7425367252e-10 0 0 -1.7425367252e-10 0 0 -1.7425367252e-10 
0 0 -1.7425367252e-10 0 0 -1.7425367252e-10 0 0 -1.7425367252e-10 
0 0 -1.7425367252e-10 0 0 -1.7425367252e-10 0 0 -1.7425367252e-10 
0 0 -1.7425367252e-10 0 0 -1.7425367252e-10 0 0 -1.7425367252e-10 
0 0 -1.7425367252e-10 0 0 -1.7425367252e-10 0 0 -1.7425367252e-10 
0 0 -1.7425367252e-10 0 0 -1.7425367252e-10 0 0 -1.7425367252e-10 
0 0 -1.7425367252e-10 0 0 -1.7425367252e-10 0 0 -1.7425367252e-10 
0 0 -1.7425367252e-10 0 0 -1.7425367252e-10 0 0 -1.7425367252e-10 
0 0 -1.7425367252e-10 0 0 -1.7425367252e-10 0 0 -1.7425367252e-10 
0 0 -1.7425367252e-10 0 0 -1.7425367252e-10 0 0 -1.7425367252e-10 
0 0 -1.7425367252e-10 0 0 -1.7425367252e-10 0 0 -1.7425367252e-10 
0 0 -1.7425367252e-10 0 0 -1.7425367252e-10 0 0 -1.7425367252e-10 
0 0 -1.7425367252e-10 0 0 -1.7425367252e-10 0 0 -1.7425367252e-10 
0 0 -1.7425367252e-10 0 0 -1.7425367252e-10 0 0 -1.7425367252e-10 
0 0 -1.7425367252e-10 0 0 -1.7425367252e-10 0 0 -1.7425367252e-10 
0 0 -1.7425367252e-10 0 0 -1.7425367252e-10 0 0 -1.7425367252e-10 
0 0 -1.7425367252e-10 0 0 -1.7425367252e-10 0 0 -1.7425367252e-10 
0 0 -1.7425367252e-10 0 0 -1.7425367252e-10 0 0 -1.7425367252e-10 
0 0 -1.7425367252e-10 0 0 -1.7425367252e-10 0 0 -1.7425367252e-10 
0 0 -1.7425367252e-10 0 0 -1.7425367252e-10 0 0 -1.7425367252e-10 
0 0 -1.7425367252e-10 0 0 -1.7425367252e-10 0 0 -1.7425367252e-10 
0 0 -1.7425367252e-10 0 0 -1.7425367252e-10 0 0 -1.7425367252e-10 
0 0 -1.7425367252e-10 0 0 -1.7425367252e-10 0 0 -1.7425367252e-10 
0 0 -1.7425367252e-10 0 0 -1.7425367252e-10 0 0 -1.7425367252e-10 
0 0 -1.7425367252e-10 0 0 -1.7425367252e-10 0 0 -1.7425367252e-10 
0 0 -1.7425367252e-10 0 0 -1.7425367252e-10 0 0 -1.7425367252e-10 
0 0 -1.7425367252e-10 0 0 -1.7425367252e-10 0 0 -1.7425367252e-10 
0 0 -1.7425367252e-10 0 0 -1.7425367252e-10 0 0 -1.7425367252e-10 
0 0 -1.7425367252e-10 0 0 -1.7425367252e-10 0 0 -1.7425367252e-10 
0 0 -1.7425367252e-10 0 0 -1.7425367252e-10 0 0 -1.7425367252e-10 
0 0 -1.7425367252e-10 0 0 -1.7425367252e-10 0 0 -1.7425367252e-10 
0 0 -1.7425367252e-10 0 0 -8.9019973083e-09 0 0 -1.7425367252e-10 
0 0 -1.7425367252e-10 0 0 -1.7425367252e-10 0 0 -1.7425367252e-10 
0 0 -1.7425367252e-10 0 0 -1.7425367252e-10 0 0 -1.7425367252e-10 
0 0 -1.7425367252e-10 0 0 -1.7425367252e-10 0 0 -1.7425367252e-10 
0 0 -1.7425367252e-10 0 0 -1.7425367252e-10 0 0 -1.7425367252e-10 
0 0 -1.7425367252e-10 0 0 -1.7425367252e-10 0 0 -1.7425367252e-10 
0 0 -1.7425367252e-10 0 0 -1.7425367252e-10 0 0 -1.7425367252e-10 
0 0 -1.7425367252e-10 0 0 -1.7425367252e-10 0 0 -1.7425367252e-10 
0 0 -1.7425367252e-10 0 0 -1.7425367252e-10 0 0 -1.7425367252e-10 
0 0 -8.9019973083e-09 0 0 -1.7425367252e-10 0 0 -1.7425367252e-10 
0 0 -1.7425367252e-10 0 0 -1.7425367252e-10 0 0 -1.7425367252e-10 
0 0 -1.7425367252e-10 0 0 -8.9019973083e-09 0 0 -1.7425367252e-10 
0 0 -1.7425367252e-10 0 0 -8.9019973083e-09 0 0 -1.7425367252e-10 
0 0 -8.9019973083e-09 0 0 -1.7425367252e-10 0 0 -8.9019973083e-09 
0 0 -1.7425367252e-10 0 0 -6.8918688838e-08 0 0 -5.3297119368e-07 

radius 1 648 double
2e-05 2e-05 2e-05 2e-05 2e-05 2e-05 2e-05 2e-05 2e-05 
2e-05 2e-05 2e-05 2e-05 2e-05 2e-05 2e-05 2e-05 2e-05 
2e-05 2e-05 2e-05 2e-05 2e-05 2e-05 2e-05 2e-05 2e-05 
2e-05 2e-05 2e-05 2e-05 2e-05 2e-05 2e-05 2e-05 2e-05 
2e-05 2e-05 2e-05 2e-05 2e-05 2e-05 2e-05 2e-05 2e-05 
2e-05 2e-05 2e-05 2e-05 2e-05 2e-05 2e-05 2e-05 2e-05 
2e-05 2e-05 2e-05 2e-05 2e-05 2e-05 2e-05 2e-05 2e-05 
2e-05 2e-05 2e-05 2e-05 2e-05 2e-05 2e-05 2e-05 2e-05 
2e-05 2e-05 2e-05 2e-05 2e-05 2e-05 2e-05 2e-05 2e-05 
2e-05 2e-05 2e-05 2e-05 2e-05 2e-05 2e-05 2e-05 2e-05 
2e-05 2e-05 2e-05 2e-05 2e-05 2e-05 2e-05 2e-05 2e-05 
2e-05 7.5e-05 2e-05 2e-05 2e-05 2e-05 2e-05 2e-05 2e-05 
2e-05 2e-05 2e-05 2e-05 2e-05 2e-05 2e-05 2e-05 2e-05 
2e-05 2e-05 2e-05 2e-05 2e-05 2e-05 2e-05 2e-05 2e-05 
2e-05 2e-05 2e-05 2e-05 2e-05 2e-05 2e-05 7.5e-05 2e-05 
2e-05 2e-05 2e-05 2e-05 2e-05 2e-05 2e-05 2e-05 2e-05 
2e-05 2e-05 2e-05 2e-05 2e-05 2e-05 2e-05 2e-05 2e-05 
2e-05 2e-05 2e-05 2e-05 2e-05 2e-05 2e-05 2e-05 2e-05 
2e-05 2e-05 2e-05 2e-05 2e-05 2e-05 2e-05 2e-05 2e-05 
2e-05 2e-05 2e-05 2e-05 2e-05 2e-05 2e-05 2e-05 2e-05 
2e-05 2e-05 2e-05 2e-05 2e-05 2e-05 2e-05 2e-05 2e-05 
2e-05 2e-05 2e-05 2e-05 2e-05 2e-05 2e-05 2e-05 2e-05 
2e-05 2e-05 2e-05 2e-05 2e-05 2e-05 2e-05 2e-05 2e-05 
2e-05 2e-05 2e-05 2e-05 2e-05 2e-05 2e-05 2e-05 2e-05 
7.5e-05 2e-05 2e-05 2e-05 2e-05 2e-05 2e-05 2e-05 2e-05 
2e-05 2e-05 2e-05 2e-05 2e-05 2e-05 2e-05 2e-05 2e-05 
2e-05 2e-05 2e-05 2e-05 2e-05 2e-05 2e-05 2e-05 2e-05 
2e-05 2e-05 2e-05 2e-05 2e-05 2e-05 2e-05 2e-05 2e-05 
2e-05 2e-05 2e-05 2e-05 2e-05 2e-05 2e-05 2e-05 2e-05 
2e-05 2e-05 2e-05 2e-05 7.5e-05 2e-05 2e-05 2e-05 2e-05 
2e-05 2e-05 2e-05 2e-05 2e-05 2e-05 2e-05 2e-05 2e-05 
2e-05 2e-05 2e-05 2e-05 2e-05 2e-05 2e-05 2e-05 2e-05 
2e-05 2e-05 2e-05 2e-05 2e-05 2e-05 2e-05 2e-05 2e-05 
2e-05 2e-05 2e-05 2e-05 2e-05 2e-05 2e-05 2e-05 2e-05 
2e-05 2e-05 2e-05 2e-05 2e-05 2e-05 2e-05 2e-05 2e-05 
2e-05 2e-05 2e-05 2e-05 2e-05 2e-05 2e-05 2e-05 2e-05 
7.5e-05 2e-05 2e-05 2e-05 2e-05 2e-05 2e-05 2e-05 2e-05 
2e-05 2e-05 2e-05 2e-05 2e-05 2e-05 2e-05 2e-05 2e-05 
2e-05 2e-05 2e-05 2e-05 2e-05 2e-05 2e-05 2e-05 2e-05 
2e-05 2e-05 2e-05 2e-05 2e-05 2e-05 2e-05 2e-05 2e-05 
7.5e-05 2e-05 2e-05 2e-05 2e-05 2e-05 2e-05 2e-05 2e-05 
2e-05 2e-05 2e-05 2e-05 2e-05 2e-05 2e-05 2e-05 2e-05 
2e-05 2e-05 2e-05 2e-05 2e-05 2e-05 2e-05 2e-05 2e-05 
7.5e-05 2e-05 2e-05 2e-05 2e-05 2e-05 2e-05 2e-05 2e-05 
2e-05 2e-05 2e-05 2e-05 2e-05 2e-05 2e-05 2e-05 2e-05 
2e-05 7.5e-05 2e-05 2e-05 2e-05 2e-05 2e-05 2e-05 2e-05 
2e-05 2e-05 2e-05 2e-05 2e-05 2e-05 2e-05 2e-05 2e-05 
2e-05 2e-05 2e-05 2e-05 2e-05 2e-05 2e-05 2e-05 2e-05 
2e-05 2e-05 2e-05 2e-05 2e-05 2e-05 2e-05 2e-05 2e-05 
2e-05 2e-05 2e-05 2e-05 2e-05 2e-05 2e-05 2e-05 2e-05 
2e-05 2e-05 2e-05 2e-05 2e-05 2e-05 2e-05 2e-05 2e-05 
7.5e-05 2e-05 2e-05 2e-05 2e-05 2e-05 2e-05 2e-05 2e-05 
2e-05 2e-05 7.5e-05 2e-05 2e-05 7.5e-05 2e-05 2e-05 2e-05 
2e-05 2e-05 2e-05 2e-05 2e-05 2e-05 2e-05 2e-05 2e-05 
2e-05 2e-05 2e-05 2e-05 2e-05 2e-05 2e-05 2e-05 2e-05 
2e-05 2e-05 2e-05 2e-05 2e-05 2e-05 2e-05 2e-05 2e-05 
2e-05 2e-05 2e-05 2e-05 2e-05 2e-05 2e-05 2e-05 2e-05 
2e-05 2e-05 2e-05 2e-05 2e-05 2e-05 2e-05 2e-05 2e-05 
2e-05 2e-05 2e-05 2e-05 2e-05 2e-05 2e-05 2e-05 2e-05 
2e-05 2e-05 2e-05 2e-05 2e-05 2e-05 2e-05 2e-05 2e-05 
2e-05 2e-05 2e-05 2e-05 2e-05 2e-05 2e-05 2e-05 2e-05 
2e-05 2e-05 2e-05 2e-05 2e-05 2e-05 2e-05 2e-05 2e-05 
2e-05 2e-05 2e-05 2e-05 2e-05 2e-05 2e-05 2e-05 2e-05 
2e-05 2e-05 2e-05 2e-05 2e-05 2e-05 2e-05 2e-05 2e-05 
2e-05 2e-05 2e-05 2e-05 2e-05 2e-05 2e-05 2e-05 2e-05 
2e-05 2e-05 2e-05 2e-05 2e-05 2e-05 2e-05 2e-05 2e-05 
2e-05 2e-05 2e-05 2e-05 2e-05 2e-05 2e-05 2e-05 2e-05 
2e-05 7.5e-05 2e-05 2e-05 2e-05 2e-05 2e-05 2e-05 2e-05 
2e-05 2e-05 2e-05 2e-05 2e-05 2e-05 2e-05 2e-05 2e-05 
2e-05 2e-05 2e-05 2e-05 2e-05 2e-05 2e-05 2e-05 2e-05 
7.5e-05 2e-05 2e-05 2e-05 2e-05 2e-05 2e-05 7.5e-05 2e-05 
2e-05 7.5e-05 2e-05 7.5e-05 2e-05 7.5e-05 2e-05 0.00015 0.0003 

omega 3 648 double
0 0 0 0 0 0 0 0 0 
0 0 0 0 0 0 0 0 0 
0 0 0 0 0 0 0 0 0 
0 0 0 0 0 0 0 0 0 
0 0 0 0 0 0 0 0 0 
0 0 0 0 0 0 0 0 0 
0 0 0 0 0 0 0 0 0 
0 0 0 0 0 0 0 0 0 
0 0 0 0 0 0 0 0 0 
0 0 0 0 0 0 0 0 0 
0 0 0 0 0 0 0 0 0 
0 0 0 0 0 0 0 0 0 
0 0 0 0 0 0 0 0 0 
0 0 0 0 0 0 0 0 0 
0 0 0 0 0 0 0 0 0 
0 0 0 0 0 0 0 0 0 
0 0 0 0 0 0 0 0 0 
0 0 0 0 0 0 0 0 0 
0 0 0 0 0 0 0 0 0 
0 0 0 0 0 0 0 0 0 
0 0 0 0 0 0 0 0 0 
0 0 0 0 0 0 0 0 0 
0 0 0 0 0 0 0 0 0 
0 0 0 0 0 0 0 0 0 
0 0 0 0 0 0 0 0 0 
0 0 0 0 0 0 0 0 0 
0 0 0 0 0 0 0 0 0 
0 0 0 0 0 0 0 0 0 
0 0 0 0 0 0 0 0 0 
0 0 0 0 0 0 0 0 0 
0 0 0 0 0 0 0 0 0 
0 0 0 0 0 0 0 0 0 
0 0 0 0 0 0 0 0 0 
0 0 0 0 0 0 0 0 0 
0 0 0 0 0 0 0 0 0 
0 0 0 0 0 0 0 0 0 
0 0 0 0 0 0 0 0 0 
0 0 0 0 0 0 0 0 0 
0 0 0 0 0 0 0 0 0 
0 0 0 0 0 0 0 0 0 
0 0 0 0 0 0 0 0 0 
0 0 0 0 0 0 0 0 0 
0 0 0 0 0 0 0 0 0 
0 0 0 0 0 0 0 0 0 
0 0 0 0 0 0 0 0 0 
0 0 0 0 0 0 0 0 0 
0 0 0 0 0 0 0 0 0 
0 0 0 0 0 0 0 0 0 
0 0 0 0 0 0 0 0 0 
0 0 0 0 0 0 0 0 0 
0 0 0 0 0 0 0 0 0 
0 0 0 0 0 0 0 0 0 
0 0 0 0 0 0 0 0 0 
0 0 0 0 0 0 0 0 0 
0 0 0 0 0 0 0 0 0 
0 0 0 0 0 0 0 0 0 
0 0 0 0 0 0 0 0 0 
0 0 0 0 0 0 0 0 0 
0 0 0 0 0 0 0 0 0 
0 0 0 0 0 0 0 0 0 
0 0 0 0 0 0 0 0 0 
0 0 0 0 0 0 0 0 0 
0 0 0 0 0 0 0 0 0 
0 0 0 0 0 0 0 0 0 
0 0 0 0 0 0 0 0 0 
0 0 0 0 0 0 0 0 0 
0 0 0 0 0 0 0 0 0 
0 0 0 0 0 0 0 0 0 
0 0 0 0 0 0 0 0 0 
0 0 0 0 0 0 0 0 0 
0 0 0 0 0 0 0 0 0 
0 0 0 0 0 0 0 0 0 
0 0 0 0 0 0 0 0 0 
0 0 0 0 0 0 0 0 0 
0 0 0 0 0 0 0 0 0 
0 0 0 0 0 0 0 0 0 
0 0 0 0 0 0 0 0 0 
0 0 0 0 0 0 0 0 0 
0 0 0 0 0 0 0 0 0 
0 0 0 0 0 0 0 0 0 
0 0 0 0 0 0 0 0 0 
0 0 0 0 0 0 0 0 0 
0 0 0 0 0 0 0 0 0 
0 0 0 0 0 0 0 0 0 
0 0 0 0 0 0 0 0 0 
0 0 0 0 0 0 0 0 0 
0 0 0 0 0 0 0 0 0 
0 0 0 0 0 0 0 0 0 
0 0 0 0 0 0 0 0 0 
0 0 0 0 0 0 0 0 0 
0 0 0 0 0 0 0 0 0 
0 0 0 0 0 0 0 0 0 
0 0 0 0 0 0 0 0 0 
0 0 0 0 0 0 0 0 0 
0 0 0 0 0 0 0 0 0 
0 0 0 0 0 0 0 0 0 
0 0 0 0 0 0 0 0 0 
0 0 0 0 0 0 0 0 0 
0 0 0 0 0 0 0 0 0 
0 0 0 0 0 0 0 0 0 
0 0 0 0 0 0 0 0 0 
0 0 0 0 0 0 0 0 0 
0 0 0 0 0 0 0 0 0 
0 0 0 0 0 0 0 0 0 
0 0 0 0 0 0 0 0 0 
0 0 0 0 0 0 0 0 0 
0 0 0 0 0 0 0 0 0 
0 0 0 0 0 0 0 0 0 
0 0 0 0 0 0 0 0 0 
0 0 0 0 0 0 0 0 0 
0 0 0 0 0 0 0 0 0 
0 0 0 0 0 0 0 0 0 
0 0 0 0 0 0 0 0 0 
0 0 0 0 0 0 0 0 0 
0 0 0 0 0 0 0 0 0 
0 0 0 0 0 0 0 0 0 
0 0 0 0 0 0 0 0 0 
0 0 0 0 0 0 0 0 0 
0 0 0 0 0 0 0 0 0 
0 0 0 0 0 0 0 0 0 
0 0 0 0 0 0 0 0 0 
0 0 0 0 0 0 0 0 0 
0 0 0 0 0 0 0 0 0 
0 0 0 0 0 0 0 0 0 
0 0 0 0 0 0 0 0 0 
0 0 0 0 0 0 0 0 0 
0 0 0 0 0 0 0 0 0 
0 0 0 0 0 0 0 0 0 
0 0 0 0 0 0 0 0 0 
0 0 0 0 0 0 0 0 0 
0 0 0 0 0 0 0 0 0 
0 0 0 0 0 0 0 0 0 
0 0 0 0 0 0 0 0 0 
0 0 0 0 0 0 0 0 0 
0 0 0 0 0 0 0 0 0 
0 0 0 0 0 0 0 0 0 
0 0 0 0 0 0 0 0 0 
0 0 0 0 0 0 0 0 0 
0 0 0 0 0 0 0 0 0 
0 0 0 0 0 0 0 0 0 
0 0 0 0 0 0 0 0 0 
0 0 0 0 0 0 0 0 0 
0 0 0 0 0 0 0 0 0 
0 0 0 0 0 0 0 0 0 
0 0 0 0 0 0 0 0 0 
0 0 0 0 0 0 0 0 0 
0 0 0 0 0 0 0 0 0 
0 0 0 0 0 0 0 0 0 
0 0 0 0 0 0 0 0 0 
0 0 0 0 0 0 0 0 0 
0 0 0 0 0 0 0 0 0 
0 0 0 0 0 0 0 0 0 
0 0 0 0 0 0 0 0 0 
0 0 0 0 0 0 0 0 0 
0 0 0 0 0 0 0 0 0 
0 0 0 0 0 0 0 0 0 
0 0 0 0 0 0 0 0 0 
0 0 0 0 0 0 0 0 0 
0 0 0 0 0 0 0 0 0 
0 0 0 0 0 0 0 0 0 
0 0 0 0 0 0 0 0 0 
0 0 0 0 0 0 0 0 0 
0 0 0 0 0 0 0 0 0 
0 0 0 0 0 0 0 0 0 
0 0 0 0 0 0 0 0 0 
0 0 0 0 0 0 0 0 0 
0 0 0 0 0 0 0 0 0 
0 0 0 0 0 0 0 0 0 
0 0 0 0 0 0 0 0 0 
0 0 0 0 0 0 0 0 0 
0 0 0 0 0 0 0 0 0 
0 0 0 0 0 0 0 0 0 
0 0 0 0 0 0 0 0 0 
0 0 0 0 0 0 0 0 0 
0 0 0 0 0 0 0 0 0 
0 0 0 0 0 0 0 0 0 
0 0 0 0 0 0 0 0 0 
0 0 0 0 0 0 0 0 0 
0 0 0 0 0 0 0 0 0 
0 0 0 0 0 0 0 0 0 
0 0 0 0 0 0 0 0 0 
0 0 0 0 0 0 0 0 0 
0 0 0 0 0 0 0 0 0 
0 0 0 0 0 0 0 0 0 
0 0 0 0 0 0 0 0 0 
0 0 0 0 0 0 0 0 0 
0 0 0 0 0 0 0 0 0 
0 0 0 0 0 0 0 0 0 
0 0 0 0 0 0 0 0 0 
0 0 0 0 0 0 0 0 0 
0 0 0 0 0 0 0 0 0 
0 0 0 0 0 0 0 0 0 
0 0 0 0 0 0 0 0 0 
0 0 0 0 0 0 0 0 0 
0 0 0 0 0 0 0 0 0 
0 0 0 0 0 0 0 0 0 
0 0 0 0 0 0 0 0 0 
0 0 0 0 0 0 0 0 0 
0 0 0 0 0 0 0 0 0 
0 0 0 0 0 0 0 0 0 
0 0 0 0 0 0 0 0 0 
0 0 0 0 0 0 0 0 0 
0 0 0 0 0 0 0 0 0 
0 0 0 0 0 0 0 0 0 
0 0 0 0 0 0 0 0 0 
0 0 0 0 0 0 0 0 0 
0 0 0 0 0 0 0 0 0 
0 0 0 0 0 0 0 0 0 
0 0 0 0 0 0 0 0 0 
0 0 0 0 0 0 0 0 0 
0 0 0 0 0 0 0 0 0 
0 0 0 0 0 0 0 0 0 
0 0 0 0 0 0 0 0 0 
0 0 0 0 0 0 0 0 0 
0 0 0 0 0 0 0 0 0 
0 0 0 0 0 0 0 0 0 

fx_mag_viz 1 648 double
0 0 0 0 0 0 0 0 0 
0 0 0 0 0 0 0 0 0 
0 0 0 0 0 0 0 0 0 
0 0 0 0 0 0 0 0 0 
0 0 0 0 0 0 0 0 0 
0 0 0 0 0 0 0 0 0 
0 0 0 0 0 0 0 0 0 
0 0 0 0 0 0 0 0 0 
0 0 0 0 0 0 0 0 0 
0 0 0 0 0 0 0 0 0 
0 0 0 0 0 0 0 0 0 
0 0 0 0 0 0 0 0 0 
0 0 0 0 0 0 0 0 0 
0 0 0 0 0 0 0 0 0 
0 0 0 0 0 0 0 0 0 
0 0 0 0 0 0 0 0 0 
0 0 0 0 0 0 0 0 0 
0 0 0 0 0 0 0 0 0 
0 0 0 0 0 0 0 0 0 
0 0 0 0 0 0 0 0 0 
0 0 0 0 0 0 0 0 0 
0 0 0 0 0 0 0 0 0 
0 0 0 0 0 0 0 0 0 
0 0 0 0 0 0 0 0 0 
0 0 0 0 0 0 0 0 0 
0 0 0 0 0 0 0 0 0 
0 0 0 0 0 0 0 0 0 
0 0 0 0 0 0 0 0 0 
0 0 0 0 0 0 0 0 0 
0 0 0 0 0 0 0 0 0 
0 0 0 0 0 0 0 0 0 
0 0 0 0 0 0 0 0 0 
0 0 0 0 0 0 0 0 0 
0 0 0 0 0 0 0 0 0 
0 0 0 0 0 0 0 0 0 
0 0 0 0 0 0 0 0 0 
0 0 0 0 0 0 0 0 0 
0 0 0 0 0 0 0 0 0 
0 0 0 0 0 0 0 0 0 
0 0 0 0 0 0 0 0 0 
0 0 0 0 0 0 0 0 0 
0 0 0 0 0 0 0 0 0 
0 0 0 0 0 0 0 0 0 
0 0 0 0 0 0 0 0 0 
0 0 0 0 0 0 0 0 0 
0 0 0 0 0 0 0 0 0 
0 0 0 0 0 0 0 0 0 
0 0 0 0 0 0 0 0 0 
0 0 0 0 0 0 0 0 0 
0 0 0 0 0 0 0 0 0 
0 0 0 0 0 0 0 0 0 
0 0 0 0 0 0 0 0 0 
0 0 0 0 0 0 0 0 0 
0 0 0 0 0 0 0 0 0 
0 0 0 0 0 0 0 0 0 
0 0 0 0 0 0 0 0 0 
0 0 0 0 0 0 0 0 0 
0 0 0 0 0 0 0 0 0 
0 0 0 0 0 0 0 0 0 
0 0 0 0 0 0 0 0 0 
0 0 0 0 0 0 0 0 0 
0 0 0 0 0 0 0 0 0 
0 0 0 0 0 0 0 0 0 
0 0 0 0 0 0 0 0 0 
0 0 0 0 0 0 0 0 0 
0 0 0 0 0 0 0 0 0 
0 0 0 0 0 0 0 0 0 
0 0 0 0 0 0 0 0 0 
0 0 0 0 0 0 0 0 0 
0 0 0 0 0 0 0 0 0 
0 0 0 0 0 0 0 0 0 
0 0 0 0 0 0 0 0 0 

fy_mag_viz 1 648 double
0 0 0 0 0 0 0 0 0 
0 0 0 0 0 0 0 0 0 
0 0 0 0 0 0 0 0 0 
0 0 0 0 0 0 0 0 0 
0 0 0 0 0 0 0 0 0 
0 0 0 0 0 0 0 0 0 
0 0 0 0 0 0 0 0 0 
0 0 0 0 0 0 0 0 0 
0 0 0 0 0 0 0 0 0 
0 0 0 0 0 0 0 0 0 
0 0 0 0 0 0 0 0 0 
0 0 0 0 0 0 0 0 0 
0 0 0 0 0 0 0 0 0 
0 0 0 0 0 0 0 0 0 
0 0 0 0 0 0 0 0 0 
0 0 0 0 0 0 0 0 0 
0 0 0 0 0 0 0 0 0 
0 0 0 0 0 0 0 0 0 
0 0 0 0 0 0 0 0 0 
0 0 0 0 0 0 0 0 0 
0 0 0 0 0 0 0 0 0 
0 0 0 0 0 0 0 0 0 
0 0 0 0 0 0 0 0 0 
0 0 0 0 0 0 0 0 0 
0 0 0 0 0 0 0 0 0 
0 0 0 0 0 0 0 0 0 
0 0 0 0 0 0 0 0 0 
0 0 0 0 0 0 0 0 0 
0 0 0 0 0 0 0 0 0 
0 0 0 0 0 0 0 0 0 
0 0 0 0 0 0 0 0 0 
0 0 0 0 0 0 0 0 0 
0 0 0 0 0 0 0 0 0 
0 0 0 0 0 0 0 0 0 
0 0 0 0 0 0 0 0 0 
0 0 0 0 0 0 0 0 0 
0 0 0 0 0 0 0 0 0 
0 0 0 0 0 0 0 0 0 
0 0 0 0 0 0 0 0 0 
0 0 0 0 0 0 0 0 0 
0 0 0 0 0 0 0 0 0 
0 0 0 0 0 0 0 0 0 
0 0 0 0 0 0 0 0 0 
0 0 0 0 0 0 0 0 0 
0 0 0 0 0 0 0 0 0 
0 0 0 0 0 0 0 0 0 
0 0 0 0 0 0 0 0 0 
0 0 0 0 0 0 0 0 0 
0 0 0 0 0 0 0 0 0 
0 0 0 0 0 0 0 0 0 
0 0 0 0 0 0 0 0 0 
0 0 0 0 0 0 0 0 0 
0 0 0 0 0 0 0 0 0 
0 0 0 0 0 0 0 0 0 
0 0 0 0 0 0 0 0 0 
0 0 0 0 0 0 0 0 0 
0 0 0 0 0 0 0 0 0 
0 0 0 0 0 0 0 0 0 
0 0 0 0 0 0 0 0 0 
0 0 0 0 0 0 0 0 0 
0 0 0 0 0 0 0 0 0 
0 0 0 0 0 0 0 0 0 
0 0 0 0 0 0 0 0 0 
0 0 0 0 0 0 0 0 0 
0 0 0 0 0 0 0 0 0 
0 0 0 0 0 0 0 0 0 
0 0 0 0 0 0 0 0 0 
0 0 0 0 0 0 0 0 0 
0 0 0 0 0 0 0 0 0 
0 0 0 0 0 0 0 0 0 
0 0 0 0 0 0 0 0 0 
0 0 0 0 0 0 0 0 0 

fz_mag_viz 1 648 double
0 0 0 0 0 0 0 0 0 
0 0 0 0 0 0 0 0 0 
0 0 0 0 0 0 0 0 0 
0 0 0 0 0 0 0 0 0 
0 0 0 0 0 0 0 0 0 
0 0 0 0 0 0 0 0 0 
0 0 0 0 0 0 0 0 0 
0 0 0 0 0 0 0 0 0 
0 0 0 0 0 0 0 0 0 
0 0 0 0 0 0 0 0 0 
0 0 0 0 0 0 0 0 0 
0 0 0 0 0 0 0 0 0 
0 0 0 0 0 0 0 0 0 
0 0 0 0 0 0 0 0 0 
0 0 0 0 0 0 0 0 0 
0 0 0 0 0 0 0 0 0 
0 0 0 0 0 0 0 0 0 
0 0 0 0 0 0 0 0 0 
0 0 0 0 0 0 0 0 0 
0 0 0 0 0 0 0 0 0 
0 0 0 0 0 0 0 0 0 
0 0 0 0 0 0 0 0 0 
0 0 0 0 0 0 0 0 0 
0 0 0 0 0 0 0 0 0 
0 0 0 0 0 0 0 0 0 
0 0 0 0 0 0 0 0 0 
0 0 0 0 0 0 0 0 0 
0 0 0 0 0 0 0 0 0 
0 0 0 0 0 0 0 0 0 
0 0 0 0 0 0 0 0 0 
0 0 0 0 0 0 0 0 0 
0 0 0 0 0 0 0 0 0 
0 0 0 0 0 0 0 0 0 
0 0 0 0 0 0 0 0 0 
0 0 0 0 0 0 0 0 0 
0 0 0 0 0 0 0 0 0 
0 0 0 0 0 0 0 0 0 
0 0 0 0 0 0 0 0 0 
0 0 0 0 0 0 0 0 0 
0 0 0 0 0 0 0 0 0 
0 0 0 0 0 0 0 0 0 
0 0 0 0 0 0 0 0 0 
0 0 0 0 0 0 0 0 0 
0 0 0 0 0 0 0 0 0 
0 0 0 0 0 0 0 0 0 
0 0 0 0 0 0 0 0 0 
0 0 0 0 0 0 0 0 0 
0 0 0 0 0 0 0 0 0 
0 0 0 0 0 0 0 0 0 
0 0 0 0 0 0 0 0 0 
0 0 0 0 0 0 0 0 0 
0 0 0 0 0 0 0 0 0 
0 0 0 0 0 0 0 0 0 
0 0 0 0 0 0 0 0 0 
0 0 0 0 0 0 0 0 0 
0 0 0 0 0 0 0 0 0 
0 0 0 0 0 0 0 0 0 
0 0 0 0 0 0 0 0 0 
0 0 0 0 0 0 0 0 0 
0 0 0 0 0 0 0 0 0 
0 0 0 0 0 0 0 0 0 
0 0 0 0 0 0 0 0 0 
0 0 0 0 0 0 0 0 0 
0 0 0 0 0 0 0 0 0 
0 0 0 0 0 0 0 0 0 
0 0 0 0 0 0 0 0 0 
0 0 0 0 0 0 0 0 0 
0 0 0 0 0 0 0 0 0 
0 0 0 0 0 0 0 0 0 
0 0 0 0 0 0 0 0 0 
0 0 0 0 0 0 0 0 0 
0 0 0 0 0 0 0 0 0 

B_magnitude 1 648 double
0 0 0 0 0 0 0 0 0 
0 0 0 0 0 0 0 0 0 
0 0 0 0 0 0 0 0 0 
0 0 0 0 0 0 0 0 0 
0 0 0 0 0 0 0 0 0 
0 0 0 0 0 0 0 0 0 
0 0 0 0 0 0 0 0 0 
0 0 0 0 0 0 0 0 0 
0 0 0 0 0 0 0 0 0 
0 0 0 0 0 0 0 0 0 
0 0 0 0 0 0 0 0 0 
0 0 0 0 0 0 0 0 0 
0 0 0 0 0 0 0 0 0 
0 0 0 0 0 0 0 0 0 
0 0 0 0 0 0 0 0 0 
0 0 0 0 0 0 0 0 0 
0 0 0 0 0 0 0 0 0 
0 0 0 0 0 0 0 0 0 
0 0 0 0 0 0 0 0 0 
0 0 0 0 0 0 0 0 0 
0 0 0 0 0 0 0 0 0 
0 0 0 0 0 0 0 0 0 
0 0 0 0 0 0 0 0 0 
0 0 0 0 0 0 0 0 0 
0 0 0 0 0 0 0 0 0 
0 0 0 0 0 0 0 0 0 
0 0 0 0 0 0 0 0 0 
0 0 0 0 0 0 0 0 0 
0 0 0 0 0 0 0 0 0 
0 0 0 0 0 0 0 0 0 
0 0 0 0 0 0 0 0 0 
0 0 0 0 0 0 0 0 0 
0 0 0 0 0 0 0 0 0 
0 0 0 0 0 0 0 0 0 
0 0 0 0 0 0 0 0 0 
0 0 0 0 0 0 0 0 0 
0 0 0 0 0 0 0 0 0 
0 0 0 0 0 0 0 0 0 
0 0 0 0 0 0 0 0 0 
0 0 0 0 0 0 0 0 0 
0 0 0 0 0 0 0 0 0 
0 0 0 0 0 0 0 0 0 
0 0 0 0 0 0 0 0 0 
0 0 0 0 0 0 0 0 0 
0 0 0 0 0 0 0 0 0 
0 0 0 0 0 0 0 0 0 
0 0 0 0 0 0 0 0 0 
0 0 0 0 0 0 0 0 0 
0 0 0 0 0 0 0 0 0 
0 0 0 0 0 0 0 0 0 
0 0 0 0 0 0 0 0 0 
0 0 0 0 0 0 0 0 0 
0 0 0 0 0 0 0 0 0 
0 0 0 0 0 0 0 0 0 
0 0 0 0 0 0 0 0 0 
0 0 0 0 0 0 0 0 0 
0 0 0 0 0 0 0 0 0 
0 0 0 0 0 0 0 0 0 
0 0 0 0 0 0 0 0 0 
0 0 0 0 0 0 0 0 0 
0 0 0 0 0 0 0 0 0 
0 0 0 0 0 0 0 0 0 
0 0 0 0 0 0 0 0 0 
0 0 0 0 0 0 0 0 0 
0 0 0 0 0 0 0 0 0 
0 0 0 0 0 0 0 0 0 
0 0 0 0 0 0 0 0 0 
0 0 0 0 0 0 0 0 0 
0 0 0 0 0 0 0 0 0 
0 0 0 0 0 0 0 0 0 
0 0 0 0 0 0 0 0 0 
0 0 0 0 0 0 0 0 0 

B_gradient_mag 1 648 double
0 0 0 0 0 0 0 0 0 
0 0 0 0 0 0 0 0 0 
0 0 0 0 0 0 0 0 0 
0 0 0 0 0 0 0 0 0 
0 0 0 0 0 0 0 0 0 
0 0 0 0 0 0 0 0 0 
0 0 0 0 0 0 0 0 0 
0 0 0 0 0 0 0 0 0 
0 0 0 0 0 0 0 0 0 
0 0 0 0 0 0 0 0 0 
0 0 0 0 0 0 0 0 0 
0 0 0 0 0 0 0 0 0 
0 0 0 0 0 0 0 0 0 
0 0 0 0 0 0 0 0 0 
0 0 0 0 0 0 0 0 0 
0 0 0 0 0 0 0 0 0 
0 0 0 0 0 0 0 0 0 
0 0 0 0 0 0 0 0 0 
0 0 0 0 0 0 0 0 0 
0 0 0 0 0 0 0 0 0 
0 0 0 0 0 0 0 0 0 
0 0 0 0 0 0 0 0 0 
0 0 0 0 0 0 0 0 0 
0 0 0 0 0 0 0 0 0 
0 0 0 0 0 0 0 0 0 
0 0 0 0 0 0 0 0 0 
0 0 0 0 0 0 0 0 0 
0 0 0 0 0 0 0 0 0 
0 0 0 0 0 0 0 0 0 
0 0 0 0 0 0 0 0 0 
0 0 0 0 0 0 0 0 0 
0 0 0 0 0 0 0 0 0 
0 0 0 0 0 0 0 0 0 
0 0 0 0 0 0 0 0 0 
0 0 0 0 0 0 0 0 0 
0 0 0 0 0 0 0 0 0 
0 0 0 0 0 0 0 0 0 
0 0 0 0 0 0 0 0 0 
0 0 0 0 0 0 0 0 0 
0 0 0 0 0 0 0 0 0 
0 0 0 0 0 0 0 0 0 
0 0 0 0 0 0 0 0 0 
0 0 0 0 0 0 0 0 0 
0 0 0 0 0 0 0 0 0 
0 0 0 0 0 0 0 0 0 
0 0 0 0 0 0 0 0 0 
0 0 0 0 0 0 0 0 0 
0 0 0 0 0 0 0 0 0 
0 0 0 0 0 0 0 0 0 
0 0 0 0 0 0 0 0 0 
0 0 0 0 0 0 0 0 0 
0 0 0 0 0 0 0 0 0 
0 0 0 0 0 0 0 0 0 
0 0 0 0 0 0 0 0 0 
0 0 0 0 0 0 0 0 0 
0 0 0 0 0 0 0 0 0 
0 0 0 0 0 0 0 0 0 
0 0 0 0 0 0 0 0 0 
0 0 0 0 0 0 0 0 0 
0 0 0 0 0 0 0 0 0 
0 0 0 0 0 0 0 0 0 
0 0 0 0 0 0 0 0 0 
0 0 0 0 0 0 0 0 0 
0 0 0 0 0 0 0 0 0 
0 0 0 0 0 0 0 0 0 
0 0 0 0 0 0 0 0 0 
0 0 0 0 0 0 0 0 0 
0 0 0 0 0 0 0 0 0 
0 0 0 0 0 0 0 0 0 
0 0 0 0 0 0 0 0 0 
0 0 0 0 0 0 0 0 0 
0 0 0 0 0 0 0 0 0 

