# vtk DataFile Version 5.1
Generated by LIGGGHTS
ASCII
DATASET POLYDATA
POINTS 648 float
-0.0428902 -0.0449088 0.00115564 0.0384376 0.000848974 0.001283 0.0123926 0.0218243 0.00123993 
0.0167463 0.0251763 0.0011288 0.00798734 -0.0367051 0.00134872 0.0419483 -0.0348097 0.00225718 
-0.0105296 -0.0314142 0.00148414 0.033456 -0.0256735 0.00226368 -0.0198564 -0.00683511 0.00149959 
-0.0129003 -0.00574839 0.00145478 0.0414788 -0.00521487 0.00208621 -0.0179231 -0.00300678 0.00155176 
0.00635633 0.000852437 0.00177113 0.021602 0.00540593 0.00142972 -0.0426568 0.00723228 0.00186205 
-0.0310202 0.0131063 0.00176361 0.0143092 0.0139794 0.00249975 0.0248423 0.0143007 0.00153942 
-0.0245993 0.0193658 0.00264459 -0.0296003 0.0277025 0.00184367 0.0131273 0.040817 0.00164782 
-0.00521279 -0.0413279 0.00368406 -0.0385899 -0.0405251 0.00263829 -0.00302782 -0.0385948 0.00385869 
-0.0266532 -0.0301716 0.00369057 0.00689113 -0.0107816 0.00342153 0.0350526 -0.0102353 0.00294373 
0.00357123 -0.00830953 0.00346071 0.0282359 -0.00877456 0.00290803 0.00937085 -0.00418454 0.0029688 
0.0292006 0.00433004 0.00258637 0.0212596 0.00979192 0.0030198 -0.0360536 0.0173104 0.00275435 
-0.0153727 0.020636 0.00362392 -0.0170112 0.0231088 0.00315297 0.03506 0.0228899 0.00314117 
0.0104707 0.0313218 0.00368781 -0.0197415 0.0344175 0.00306889 0.0297434 0.0373158 0.00339404 
0.0156715 -0.0391733 0.00474296 0.0341086 -0.0368686 0.00477997 0.0289145 -0.0340196 0.00470871 
-0.015788 -0.0282898 0.00479577 -0.0108877 -0.0188832 0.00437259 0.0154702 -0.00154679 0.00512808 
-0.0356048 -0.000104637 0.00519773 0.00417698 0.0024455 0.00452143 0.0305447 0.00486582 0.00394123 
-0.0287984 0.00559412 0.00414534 -0.034865 0.0142961 0.00509049 0.0287781 0.014071 0.00453284 
0.0215224 0.0171285 0.00388901 -0.0144089 0.0201081 0.00409621 -0.0282566 0.021284 0.00416462 
-0.0409258 0.0305044 0.00504865 0.00308146 0.0401468 0.00432782 -0.0390027 0.0421086 0.0050804 
0.0185094 -0.042363 0.00589615 0.040047 -0.0404588 0.00570592 -0.0232422 -0.0321576 0.00625222 
-0.0419519 -0.0259749 0.00589921 0.0436787 -0.0219137 0.00605999 0.0336491 -0.0197505 0.00538916 
0.0030191 -0.0179247 0.00598942 0.0223879 -0.0163393 0.00543422 0.0277003 -0.0107969 0.00628462 
-0.00783961 -0.000387029 0.00616123 -0.00967086 0.00179773 0.00621694 0.0399323 0.0117688 0.00634173 
0.0379188 0.0120326 0.00575829 -0.0081225 0.0151775 0.00511396 0.00284552 0.0345861 0.00628643 
-0.0155539 0.0359545 0.0062428 0.0165329 0.0385374 0.00554075 0.0251972 0.0393087 0.00539661 
-0.0440308 0.0448256 0.00558397 -0.044759 -0.0437614 0.00776913 -0.0308094 -0.0435702 0.00769351 
-0.042922 -0.0404536 0.00750451 0.023158 -0.0340207 0.00759809 0.0244271 -0.0334586 0.00684298 
0.00577088 -0.0287415 0.00689519 0.032808 -0.025967 0.00776353 -0.0408326 -0.0234295 0.00718779 
0.0414834 -0.0181367 0.00705511 -0.0112192 -0.0104501 0.00755469 0.00743742 -0.00926665 0.00723451 
-0.00702036 -0.00121172 0.00665738 -0.0170872 0.00564833 0.00710452 0.0011249 0.00615697 0.0068035 
-0.0214351 0.00957734 0.00767665 8.23501e-07 0.0138406 0.00681196 0.0114764 0.0140289 0.00718952 
-0.0214239 0.0189608 0.00750747 0.0323341 0.0191974 0.00761921 -0.023041 0.0197144 0.00774441 
0.0226957 0.0260881 0.00751894 -0.0264781 0.032823 0.00765051 -0.0437633 0.0406561 0.00717412 
0.0339316 -0.041715 0.00843108 0.0308099 -0.0378456 0.00857681 0.0333162 -0.0342631 0.00877992 
0.0280204 -0.0311414 0.00778809 -0.0448384 -0.0296834 0.00786627 0.000892701 -0.0263701 0.00805591 
0.0101031 -0.0273014 0.00812359 -0.00446216 -0.0255279 0.00865439 -0.0336946 -0.0248459 0.00879177 
0.0363266 -0.0194176 0.00855989 -0.0317771 -0.0175651 0.00781558 0.0404767 -0.0183151 0.00788685 
-0.0257955 -0.0157834 0.00846437 -0.0420316 -0.0145538 0.0080818 -0.0222502 -0.00974669 0.00903942 
0.0131353 -0.00504642 0.00808385 0.00265626 0.00371614 0.00842954 0.0449494 0.00392273 0.00846607 
0.00314898 0.00491531 0.00878377 0.0228765 0.00606581 0.00789435 0.0221269 0.00728552 0.00822462 
0.0320014 0.00756294 0.0083725 -0.0392616 0.00972366 0.00849106 -0.0101256 0.00978275 0.00870234 
-0.0371624 0.011326 0.00854299 0.0153641 0.0146287 0.00893018 -0.022709 0.0198803 0.00834364 
-0.0269229 0.0267788 0.00836503 0.0364634 0.0310238 0.0078811 0.0444958 0.0309554 0.00789898 
-0.0213481 0.0319153 0.00870195 0.0163992 0.0415262 0.00828926 -0.0160353 0.0448572 0.00797229 
-0.0335565 -0.0442122 0.0101582 0.0418836 -0.0421436 0.00950151 0.0338942 -0.0410147 0.0103811 
0.0414821 -0.0410789 0.0100176 -0.018434 -0.0405477 0.0100739 -0.0108246 -0.0388127 0.0102179 
0.000822496 -0.0363122 0.00955596 0.0433459 -0.0353282 0.00964269 -0.0262624 -0.032473 0.0103724 
-0.0329608 -0.0218045 0.00933368 -0.0393221 -0.0167834 0.0102292 -0.00444012 -0.0151621 0.00914501 
-0.0388614 -0.0136303 0.0103269 -0.0227164 -0.0141288 0.00930503 -0.0117656 -0.0138394 0.00918566 
0.0433204 -0.0141837 0.00948149 0.0223025 -0.0112244 0.0101375 0.0342493 -0.0115037 0.00946209 
-0.0386256 -0.00983966 0.00921189 -0.0326334 -0.00963456 0.0100968 0.013874 -0.00963069 0.00946648 
-0.024842 -0.00884532 0.00947211 0.0109664 -0.00760095 0.00940862 0.0275881 -0.00673863 0.00940936 
-0.0141425 -0.00311887 0.00921901 0.0293019 -0.00298432 0.00992475 0.0246705 0.0064451 0.00949686 
0.0197977 0.00963841 0.00953478 -0.0394276 0.0109375 0.00953431 -0.00279986 0.0127222 0.00987591 
0.0418335 0.0161761 0.00970139 -0.0256005 0.0215871 0.00914002 0.0307708 0.0242663 0.00979521 
-0.0200898 0.0311527 0.00988779 0.0152528 0.033152 0.00973178 0.0164577 0.0353116 0.00952995 
0.0238959 0.0383247 0.00981405 -0.0312382 0.0393096 0.00930835 -0.0281804 0.0418824 0.0100241 
0.00513794 0.0433856 0.0101206 0.0262096 -0.0449372 0.0114116 -0.0349861 -0.0412827 0.0106232 
-0.0248652 -0.040212 0.0110044 0.00594186 -0.0351889 0.0113372 -0.00586029 -0.0338127 0.0104338 
0.00264867 -0.0338128 0.0111225 -0.0160452 -0.0323821 0.0106944 0.0346336 -0.0325969 0.0109565 
-0.0430551 -0.0267583 0.0115229 0.0306875 -0.0259396 0.011219 -0.0328109 -0.0226975 0.0111896 
-0.0225401 -0.0213878 0.0104825 0.039775 -0.0211058 0.0106479 -0.0296942 -0.0196153 0.0113095 
-0.0100897 -0.0180162 0.0108807 -0.0405162 -0.0161033 0.0104529 0.0198229 -0.0156851 0.0115199 
-0.0207563 -0.0111167 0.0108015 0.0414517 -0.0114994 0.0109532 -0.0449336 -0.00957357 0.0116303 
0.0313953 -0.00974065 0.010826 -0.00553214 -0.00871323 0.0108288 -0.00433253 -0.00676057 0.0108111 
-0.00747582 -0.00609419 0.0106499 -0.040885 -0.00406647 0.010611 0.021323 -0.00444137 0.0106466 
-0.0281455 -0.00127675 0.0116996 -0.0260142 0.00017485 0.0111196 -0.00229178 0.0020129 0.0113588 
0.0188762 0.00181355 0.0115116 0.032558 0.00153523 0.0110499 -0.00757157 0.00454821 0.0103199 
0.0277548 0.0042931 0.0113457 0.0101693 0.00555192 0.0113772 0.0283387 0.00890506 0.0104078 
0.0340899 0.00882812 0.010718 0.0398091 0.011618 0.0109202 0.00861143 0.0123591 0.0111085 
-0.00307286 0.0144526 0.0107122 0.0121458 0.0151918 0.0105884 0.00517921 0.0169249 0.0106548 
0.0090081 0.0191686 0.0106903 -0.0102477 0.0267602 0.0105302 -0.0127911 0.0299546 0.0107705 
-0.0368667 0.0306348 0.0112356 0.00372347 0.0304157 0.010399 0.0038092 0.0311583 0.0110146 
0.0354139 0.0312817 0.0109053 -0.0073504 0.0318329 0.0115209 0.00390562 0.0317225 0.011213 
0.01325 0.0319187 0.0108689 -0.00973825 0.0391656 0.0105537 0.0222253 0.0407186 0.0104297 
0.0181024 -0.0433049 0.0122088 0.0348044 -0.042095 0.012007 -0.00674967 -0.0416523 0.012198 
-0.0334706 -0.0396012 0.0122425 -0.0168273 -0.0360331 0.0119676 0.027474 -0.0338615 0.0118215 
0.0449741 -0.0303513 0.0121427 0.0233461 -0.0214624 0.0127344 0.0262592 -0.0217201 0.0125532 
0.00156248 -0.0194187 0.0118034 -0.0339565 -0.0167518 0.0127781 0.0302919 -0.0148257 0.011821 
0.0286804 -0.00919085 0.0122457 -0.00254943 -0.00825679 0.0122724 -0.0343844 -0.0078404 0.011786 
0.0404774 -0.00688032 0.0127877 0.0387156 -0.00624884 0.0126198 0.0180565 -0.00487531 0.01288 
-0.0120059 -0.00345367 0.012529 0.0290986 -0.000251763 0.0122306 -0.0325416 0.00283857 0.0122386 
-0.025141 0.00447188 0.0126134 0.0211953 0.00966092 0.0125869 -0.0365733 0.0119208 0.012821 
0.012585 0.0155082 0.0124788 0.0407412 0.0174253 0.0129565 0.0258603 0.0235991 0.012587 
-0.0386663 0.0253433 0.0127546 -0.00563177 0.0268155 0.0125537 0.0395905 0.0272142 0.0123591 
-0.032208 0.0306075 0.0119267 -0.0313244 0.0314049 0.0121388 -0.0108954 0.0304 0.0125623 
0.026696 0.03017 0.0123799 -0.0337286 0.0337045 0.0129964 0.0231674 0.0340949 0.0126357 
-0.041477 0.0364172 0.0125347 0.0439232 0.0371117 0.0127297 0.0294278 0.0431452 0.0126865 
0.0405446 0.0433429 0.0129706 0.0416479 -0.0439733 0.014194 0.000425919 -0.0415728 0.0134774 
0.0077947 -0.0345433 0.0142617 -0.0386911 -0.0311434 0.0142964 0.0346338 -0.0290927 0.0130505 
0.0412685 -0.0295104 0.0134476 0.0164647 -0.0275391 0.0137517 0.0155599 -0.0240909 0.0130537 
-0.0323128 -0.0219837 0.014011 0.00623721 -0.0211799 0.013743 -0.00827992 -0.020547 0.0133433 
-0.0183202 -0.0175475 0.0141053 -0.0426154 -0.0165053 0.0133712 0.0176437 -0.0119747 0.0141493 
0.0251729 -0.00985964 0.0137529 -0.00401126 -0.00720159 0.0137989 0.0129906 -0.00677597 0.0137286 
-0.00474481 -0.00600267 0.0133126 -0.042786 -0.00359954 0.0141885 0.00664535 -0.00164817 0.0135674 
-0.0376932 -0.000132947 0.0142793 -0.000610522 -0.00103491 0.0142843 0.0404406 0.00462082 0.0136778 
-0.0406381 0.00555966 0.0142398 0.030759 0.00580352 0.0136244 0.00474506 0.0103043 0.014227 
0.00243185 0.0120975 0.0131669 0.000954082 0.0152563 0.0130615 0.00546842 0.0177814 0.0135522 
0.00395304 0.0187088 0.0135869 0.018015 0.0183735 0.013144 0.00153271 0.0201988 0.0130486 
0.00976854 0.0197772 0.0133729 0.00128112 0.0217131 0.0142741 -0.0267196 0.0236159 0.0137515 
0.0181332 0.0246356 0.0136939 -0.00739359 0.0259593 0.0136274 -0.0267569 0.0263983 0.0130005 
-0.0357156 0.0282031 0.0136152 0.00834461 0.0278725 0.0131565 0.0191509 0.0299648 0.0133737 
0.0434247 0.0295768 0.014293 -0.0422696 0.0340949 0.014063 -0.0245447 0.0378537 0.0140314 
-0.0112537 0.0395394 0.0140636 -0.0133259 0.0414802 0.013371 0.00805094 0.0422278 0.0142261 
-0.0205282 0.0432397 0.0138047 -0.00340304 -0.0448428 0.0151523 -0.027409 -0.0433703 0.0147317 
-0.0406141 -0.0405112 0.0150305 -0.0169239 -0.0402939 0.0146578 -0.00670669 -0.0394183 0.0150217 
-0.0439713 -0.0357399 0.0150502 -0.0273176 -0.0361067 0.0144635 -0.00161929 -0.0353994 0.0152575 
0.0195647 -0.0366528 0.0151848 -0.0177429 -0.0346724 0.0153388 0.00879071 -0.0344865 0.0146718 
0.0403097 -0.0347888 0.015298 -0.0427235 -0.0332389 0.0145896 0.00802514 -0.031483 0.0146358 
0.0188903 -0.0308528 0.0148248 0.00231692 -0.0294453 0.0156011 0.0392765 -0.0300093 0.0154669 
-0.0401314 -0.0280847 0.014901 -0.00580099 -0.0272788 0.0149237 -0.0338231 -0.0250135 0.0151544 
-0.0207679 -0.0256315 0.015191 0.0054016 -0.025334 0.0154494 -0.0291427 -0.0219343 0.0148747 
-0.0164034 -0.0216001 0.0154541 0.0218308 -0.0192565 0.0147833 -0.0328213 -0.0176588 0.0145845 
0.0184681 -0.0172117 0.0149376 0.0252581 -0.0163235 0.0147627 -0.0408642 -0.0154151 0.0154671 
-0.015814 -0.0152491 0.0144915 0.0268005 -0.0146468 0.0145312 0.0375745 -0.0151367 0.0145659 
-0.0329121 -0.0139828 0.0147186 0.0323804 -0.0132471 0.0146559 -0.0341597 -0.0122829 0.0146389 
0.0322358 -0.0130621 0.0145764 -0.0196799 -0.00931279 0.0155054 -0.042331 -0.00792816 0.015505 
-0.0304645 -0.00701594 0.0142951 -0.0408474 -0.00214648 0.014376 0.00643655 -0.000956063 0.014295 
0.0147261 0.00139147 0.0149016 -0.037077 0.00611456 0.0153569 -0.00552594 0.00555795 0.0149514 
0.0332757 0.00539899 0.0151897 0.00533928 0.00728904 0.0143211 0.0142017 0.0079404 0.0154084 
0.0202046 0.00840095 0.0154208 0.00978397 0.00922321 0.0149571 -0.0350204 0.0121089 0.0155478 
-0.00831541 0.0129665 0.0151242 0.00789931 0.0136568 0.0149454 -0.00443291 0.0160613 0.0146929 
0.0256029 0.0175394 0.0151794 0.00757299 0.0192258 0.0144282 0.0350116 0.0207306 0.0154419 
0.0362273 0.0220011 0.0153062 -0.00782209 0.0241861 0.0149232 0.00953871 0.0271324 0.0147531 
-0.0219587 0.0304934 0.0153711 0.0372507 0.0318783 0.0143743 0.0214431 0.0335886 0.0154043 
-0.00196307 0.0366495 0.0145079 0.0030545 0.0369981 0.0153099 -0.00883869 0.0381834 0.0148126 
0.0281745 0.039089 0.015173 0.0221021 0.0401282 0.0144645 0.0114086 0.0440135 0.0145817 
0.0399235 0.0434757 0.0148756 0.0171919 0.0449185 0.0144618 0.0211706 0.0445491 0.0144972 
-0.0346971 -0.0446764 0.0161264 0.0145521 -0.0432303 0.0168364 -0.0248654 -0.0427111 0.0162547 
0.0201641 -0.0426709 0.0159335 0.0248068 -0.0428986 0.0159135 0.0238162 -0.0409762 0.016276 
0.0244803 -0.0401788 0.0158204 -0.0370475 -0.0370945 0.0165032 0.0397687 -0.0374633 0.0163513 
-0.0396817 -0.0304797 0.0167992 0.023019 -0.0293484 0.0161449 -0.0432264 -0.0264101 0.0158132 
0.03382 -0.0268981 0.0164366 -0.0350278 -0.0224863 0.0161496 0.0115492 -0.0227248 0.0157417 
-0.0204621 -0.0172006 0.0157646 0.0249316 -0.014475 0.016873 -0.0313057 -0.0141988 0.016 
-0.0269092 -0.0125643 0.0163061 -0.0136128 -0.00979682 0.0160975 -0.0395569 -0.00227866 0.0161542 
-0.0416237 0.00110806 0.0160209 0.0362421 0.00170773 0.0164316 -0.00723413 0.00605583 0.0160608 
0.0110904 0.00657535 0.0160568 0.023953 0.00820576 0.0168597 -0.0349081 0.00917553 0.0158796 
0.0128044 0.0127337 0.0167137 0.014866 0.0127598 0.0159116 0.0261916 0.0119357 0.0162506 
-0.0429188 0.0135204 0.0161039 -0.0196462 0.0155185 0.0168164 0.0440772 0.0154938 0.0165483 
-0.0193355 0.018129 0.0164548 0.0122157 0.0191756 0.0165985 0.0388885 0.0193682 0.0166412 
-0.0431379 0.0208085 0.0167374 -0.0421793 0.0225172 0.0163811 -0.0349287 0.0230684 0.0157274 
-0.0295899 0.0232577 0.0156292 0.0146363 0.0223077 0.0159906 0.00264144 0.0247174 0.016181 
0.000162142 0.0251126 0.0167628 -0.0114472 0.026715 0.0166724 -0.0406313 0.0295913 0.0166856 
-0.0152062 0.0294088 0.0160514 -0.00435696 0.0325462 0.0155987 -0.00472634 0.0344449 0.0161218 
-0.0407273 0.0358476 0.0160815 0.0311732 0.0371467 0.0168335 -0.00647711 0.0391566 0.0162642 
-0.039126 0.0399637 0.0166188 -0.0375088 0.0393741 0.0157154 -0.0181988 0.0434549 0.0165359 
0.0131812 -0.0427533 0.0177201 0.0166138 -0.0412108 0.018012 -0.0309963 -0.0355024 0.0181125 
0.0355384 -0.0354155 0.016962 -0.0376897 -0.0314333 0.0170225 -0.0263426 -0.0292431 0.0172578 
0.00741479 -0.0295782 0.0179795 -0.0240024 -0.0280603 0.0180034 -0.0240719 -0.0268296 0.0173794 
0.00538025 -0.0241403 0.0175162 -0.0139777 -0.0223984 0.0174741 0.0109547 -0.0235646 0.0176113 
0.035159 -0.023363 0.0180832 0.00548761 -0.0197918 0.0172048 0.0282033 -0.0178095 0.0169477 
0.038292 -0.016257 0.0177937 -0.0186412 -0.0134353 0.0179407 0.0403752 -0.0143085 0.0169868 
-0.0327621 -0.0121928 0.0176381 0.0406218 -0.0100941 0.0169964 -0.0344646 -0.00725539 0.0178501 
-0.0211095 -0.00770044 0.0173023 -0.0150798 -0.00698339 0.0182126 -0.0135858 -0.00672635 0.016947 
0.0161928 -0.00760918 0.0174114 0.00523139 -0.00599236 0.0171217 0.0180458 -0.00470109 0.0178329 
-0.00941413 -0.00330341 0.0181328 0.00975646 -0.00313231 0.0176306 -0.00896956 -0.00131708 0.0174975 
0.0140084 -6.89735e-05 0.018187 0.0407777 0.000744206 0.0171294 -0.0261639 0.00337815 0.0178982 
0.00243665 0.00282786 0.0177796 0.00347554 0.00338662 0.0176044 0.0323225 0.00436429 0.016985 
0.0250346 0.00641518 0.0174337 -0.00867948 0.0139924 0.0174347 0.0311878 0.014057 0.0181731 
0.0336082 0.013194 0.0174437 0.0441199 0.0136981 0.0174685 0.0226738 0.0181095 0.0172638 
-0.0287332 0.0215601 0.017174 -0.0122989 0.0222019 0.0177195 0.0398418 0.0217469 0.0179465 
0.0438582 0.0244724 0.017751 -0.0190887 0.0269029 0.0169116 -0.0376379 0.0294143 0.0169041 
0.00519606 0.0301696 0.0175533 0.00317215 0.0343196 0.0174554 0.0352701 0.0439749 0.0176988 
0.0352379 0.0438995 0.0171374 -0.00396528 -0.0444182 0.0183528 0.0195053 -0.043722 0.0186602 
-0.0389435 -0.0425966 0.0190965 0.0406519 -0.0427256 0.0194854 -0.0136468 -0.0412372 0.0185954 
0.0424299 -0.0409921 0.0185075 -0.0289295 -0.0389067 0.0192813 -0.0195638 -0.0385913 0.0194664 
0.0325128 -0.03812 0.0189646 0.00985621 -0.0367022 0.0182658 -0.00338111 -0.0363358 0.0191936 
0.0307351 -0.0355434 0.0192443 -8.23525e-05 -0.034098 0.0183584 -0.0177803 -0.0340186 0.0186152 
-0.0161578 -0.0337243 0.0184701 -0.0233761 -0.031813 0.01947 -0.0210092 -0.0320472 0.0192952 
0.0268369 -0.0315202 0.0184963 -0.0220587 -0.0306349 0.0186486 -0.0414327 -0.0290659 0.0184069 
-0.0346801 -0.0287009 0.0188489 0.0153133 -0.0285941 0.0186224 0.0156293 -0.0283842 0.0194963 
0.0347572 -0.0260666 0.0194961 -0.00863888 -0.0237376 0.0182686 0.00179778 -0.0247441 0.0186609 
0.00558373 -0.0242787 0.018949 0.0102479 -0.024092 0.0191348 0.0210005 -0.0239559 0.0193947 
-0.0127621 -0.0231756 0.0188755 0.0240101 -0.0228809 0.018763 0.0394323 -0.021923 0.019166 
-0.0210835 -0.0209207 0.0184082 -0.0033641 -0.0204173 0.0184095 -0.0207996 -0.0190456 0.0192189 
0.0134129 -0.0192809 0.0193467 -0.0147645 -0.0165889 0.0186254 0.0296492 -0.015918 0.0194379 
0.0132043 -0.01541 0.0188665 0.0323803 -0.0150629 0.0188226 -0.0279963 -0.0141356 0.018874 
-0.00710141 -0.0133745 0.0192008 0.0144468 -0.013247 0.0185687 -0.00528066 -0.0121118 0.0188039 
0.0347312 -0.012978 0.0193692 -0.038829 -0.00978443 0.0187259 -0.0253401 -0.0103599 0.0191671 
0.0218314 -0.00971151 0.0194702 0.0334462 -0.00930086 0.018617 -0.0214415 -0.007536 0.0188098 
-0.0101373 -0.00698039 0.0192535 -0.00720807 -0.00608605 0.0192972 -0.0253129 -0.0039775 0.0189846 
0.0200271 -0.00425623 0.0184839 -0.0107529 -0.00365687 0.0190915 -0.0198668 -0.00211416 0.0188451 
0.0168839 -0.00210364 0.018292 -0.0283489 -0.000417126 0.0183235 -0.0153419 -0.00108619 0.0183105 
0.00127443 -0.000618905 0.0192153 0.0420414 -0.00101026 0.0193372 0.0116524 0.00206193 0.0187739 
-0.0233311 0.00384073 0.0193172 0.0183943 0.00266245 0.0185682 -0.027449 0.00511055 0.0194827 
0.0260144 0.00429017 0.0193775 -0.0403489 0.00598291 0.0187554 0.0358407 0.00533501 0.018926 
-0.0429246 0.00657681 0.0188441 -0.019893 0.00878872 0.0193806 -0.0105861 0.00898083 0.0185743 
0.0324887 0.00836074 0.0190511 0.0234497 0.00978487 0.0190433 -0.00808524 0.0113378 0.019451 
-0.00071691 0.0108932 0.018922 -0.00841171 0.0143034 0.0185017 0.012949 0.0143048 0.0192155 
0.0396593 0.013993 0.0185777 -0.0287818 0.014969 0.019158 -0.0231109 0.0157017 0.0188073 
-0.0408838 0.0159645 0.0189162 -0.0286532 0.0159811 0.0192006 -0.00317984 0.0164631 0.0191889 
-0.0436896 0.0195853 0.0193103 -0.0363159 0.0185996 0.0191563 -0.0324762 0.0230005 0.0192592 
-0.0148746 0.0223253 0.018588 0.00126512 0.0228658 0.0185566 -0.0436572 0.0238848 0.0191007 
-0.0138035 0.0240512 0.0194714 -0.0128609 0.0265935 0.0187304 -0.0214233 0.0285543 0.0192287 
0.0397191 0.0283771 0.0191293 0.0040127 0.0314243 0.0192799 0.0191028 0.0315895 0.0186717 
0.0193546 0.0324404 0.0190291 -0.0425374 0.0333781 0.0190174 0.00727395 0.0332762 0.0182972 
0.0278529 0.0342296 0.0192244 0.00888594 0.0360502 0.0185905 0.00367032 0.0371324 0.0192675 
-0.00585061 0.0388609 0.0182931 0.00201585 0.0404036 0.0190055 0.00528787 0.0432844 0.0186451 
-0.0390775 0.0447256 0.0187926 -0.0317519 -0.0446953 0.0196884 0.0147823 -0.0446949 0.0207293 
0.00849583 -0.0405939 0.0196105 -0.0234086 -0.038644 0.0197564 -0.0179089 -0.0346335 0.0198619 
0.043014 -0.0343178 0.0204895 0.010226 -0.0308634 0.0195851 0.0350196 -0.0250011 0.0204503 
-0.038621 -0.0229432 0.01956 0.0204492 -0.0194639 0.0202343 0.00886689 -0.0141191 0.0196523 
0.0253763 -0.011051 0.0197558 -0.00254916 -0.00379952 0.0206016 -0.0332593 0.000859011 0.019545 
0.0189244 0.00254502 0.0197669 -0.01547 0.00642247 0.0196768 0.0133448 0.00646544 0.0199084 
-0.00598638 0.00689803 0.0207893 -0.0408306 0.00999374 0.0195529 0.027557 0.009967 0.0196213 
0.00418285 0.0112423 0.0201683 -0.0161548 0.0159009 0.0196561 0.00742845 0.0199749 0.0197479 
-0.0132251 0.0252506 0.0196617 0.0337272 0.0324898 0.019581 0.0380057 0.0324307 0.0196918 
-0.0359241 0.0337864 0.0203912 0.0132394 0.0345575 0.0203354 -0.00750544 0.0361316 0.019576 
-0.0379532 0.0399341 0.0195561 -0.00785852 0.041878 0.0197169 0.0170579 0.0421878 0.0196431 
0.0430506 0.0422314 0.0196314 -0.0190394 0.0446837 0.020216 -0.00682403 -0.0314098 0.0214652 
0.0272875 -0.0186725 0.0212905 0.0386193 -0.00496685 0.0209001 -0.0131355 0.00164571 0.0210364 
-0.0137512 0.00384646 0.021375 -0.009285 0.00693532 0.0209989 -0.0408092 0.00981999 0.021206 
0.021223 0.0244832 0.0209758 -0.014478 0.0275162 0.0209343 -0.0225361 -0.0441701 0.0229227 
0.0127657 -0.00746761 0.0226137 0.0448793 -0.00396119 0.0226639 -0.0442311 0.00821601 0.0228533 
0.00976298 0.0163696 0.0225138 -0.0260391 0.0304395 0.022842 0.0352883 -0.0103067 0.0236841 
-0.0122189 0.0175978 0.023635 0.039455 -0.000236508 0.0250465 0.0242571 -0.0100823 0.0339324 

VERTICES 649 648
OFFSETS vtktypeint64
0 1 2 3 4 5 6 7 8 
9 10 11 12 13 14 15 16 17 
18 19 20 21 22 23 24 25 26 
27 28 29 30 31 32 33 34 35 
36 37 38 39 40 41 42 43 44 
45 46 47 48 49 50 51 52 53 
54 55 56 57 58 59 60 61 62 
63 64 65 66 67 68 69 70 71 
72 73 74 75 76 77 78 79 80 
81 82 83 84 85 86 87 88 89 
90 91 92 93 94 95 96 97 98 
99 100 101 102 103 104 105 106 107 
108 109 110 111 112 113 114 115 116 
117 118 119 120 121 122 123 124 125 
126 127 128 129 130 131 132 133 134 
135 136 137 138 139 140 141 142 143 
144 145 146 147 148 149 150 151 152 
153 154 155 156 157 158 159 160 161 
162 163 164 165 166 167 168 169 170 
171 172 173 174 175 176 177 178 179 
180 181 182 183 184 185 186 187 188 
189 190 191 192 193 194 195 196 197 
198 199 200 201 202 203 204 205 206 
207 208 209 210 211 212 213 214 215 
216 217 218 219 220 221 222 223 224 
225 226 227 228 229 230 231 232 233 
234 235 236 237 238 239 240 241 242 
243 244 245 246 247 248 249 250 251 
252 253 254 255 256 257 258 259 260 
261 262 263 264 265 266 267 268 269 
270 271 272 273 274 275 276 277 278 
279 280 281 282 283 284 285 286 287 
288 289 290 291 292 293 294 295 296 
297 298 299 300 301 302 303 304 305 
306 307 308 309 310 311 312 313 314 
315 316 317 318 319 320 321 322 323 
324 325 326 327 328 329 330 331 332 
333 334 335 336 337 338 339 340 341 
342 343 344 345 346 347 348 349 350 
351 352 353 354 355 356 357 358 359 
360 361 362 363 364 365 366 367 368 
369 370 371 372 373 374 375 376 377 
378 379 380 381 382 383 384 385 386 
387 388 389 390 391 392 393 394 395 
396 397 398 399 400 401 402 403 404 
405 406 407 408 409 410 411 412 413 
414 415 416 417 418 419 420 421 422 
423 424 425 426 427 428 429 430 431 
432 433 434 435 436 437 438 439 440 
441 442 443 444 445 446 447 448 449 
450 451 452 453 454 455 456 457 458 
459 460 461 462 463 464 465 466 467 
468 469 470 471 472 473 474 475 476 
477 478 479 480 481 482 483 484 485 
486 487 488 489 490 491 492 493 494 
495 496 497 498 499 500 501 502 503 
504 505 506 507 508 509 510 511 512 
513 514 515 516 517 518 519 520 521 
522 523 524 525 526 527 528 529 530 
531 532 533 534 535 536 537 538 539 
540 541 542 543 544 545 546 547 548 
549 550 551 552 553 554 555 556 557 
558 559 560 561 562 563 564 565 566 
567 568 569 570 571 572 573 574 575 
576 577 578 579 580 581 582 583 584 
585 586 587 588 589 590 591 592 593 
594 595 596 597 598 599 600 601 602 
603 604 605 606 607 608 609 610 611 
612 613 614 615 616 617 618 619 620 
621 622 623 624 625 626 627 628 629 
630 631 632 633 634 635 636 637 638 
639 640 641 642 643 644 645 646 647 
648 
CONNECTIVITY vtktypeint64
0 1 2 3 4 5 6 7 8 
9 10 11 12 13 14 15 16 17 
18 19 20 21 22 23 24 25 26 
27 28 29 30 31 32 33 34 35 
36 37 38 39 40 41 42 43 44 
45 46 47 48 49 50 51 52 53 
54 55 56 57 58 59 60 61 62 
63 64 65 66 67 68 69 70 71 
72 73 74 75 76 77 78 79 80 
81 82 83 84 85 86 87 88 89 
90 91 92 93 94 95 96 97 98 
99 100 101 102 103 104 105 106 107 
108 109 110 111 112 113 114 115 116 
117 118 119 120 121 122 123 124 125 
126 127 128 129 130 131 132 133 134 
135 136 137 138 139 140 141 142 143 
144 145 146 147 148 149 150 151 152 
153 154 155 156 157 158 159 160 161 
162 163 164 165 166 167 168 169 170 
171 172 173 174 175 176 177 178 179 
180 181 182 183 184 185 186 187 188 
189 190 191 192 193 194 195 196 197 
198 199 200 201 202 203 204 205 206 
207 208 209 210 211 212 213 214 215 
216 217 218 219 220 221 222 223 224 
225 226 227 228 229 230 231 232 233 
234 235 236 237 238 239 240 241 242 
243 244 245 246 247 248 249 250 251 
252 253 254 255 256 257 258 259 260 
261 262 263 264 265 266 267 268 269 
270 271 272 273 274 275 276 277 278 
279 280 281 282 283 284 285 286 287 
288 289 290 291 292 293 294 295 296 
297 298 299 300 301 302 303 304 305 
306 307 308 309 310 311 312 313 314 
315 316 317 318 319 320 321 322 323 
324 325 326 327 328 329 330 331 332 
333 334 335 336 337 338 339 340 341 
342 343 344 345 346 347 348 349 350 
351 352 353 354 355 356 357 358 359 
360 361 362 363 364 365 366 367 368 
369 370 371 372 373 374 375 376 377 
378 379 380 381 382 383 384 385 386 
387 388 389 390 391 392 393 394 395 
396 397 398 399 400 401 402 403 404 
405 406 407 408 409 410 411 412 413 
414 415 416 417 418 419 420 421 422 
423 424 425 426 427 428 429 430 431 
432 433 434 435 436 437 438 439 440 
441 442 443 444 445 446 447 448 449 
450 451 452 453 454 455 456 457 458 
459 460 461 462 463 464 465 466 467 
468 469 470 471 472 473 474 475 476 
477 478 479 480 481 482 483 484 485 
486 487 488 489 490 491 492 493 494 
495 496 497 498 499 500 501 502 503 
504 505 506 507 508 509 510 511 512 
513 514 515 516 517 518 519 520 521 
522 523 524 525 526 527 528 529 530 
531 532 533 534 535 536 537 538 539 
540 541 542 543 544 545 546 547 548 
549 550 551 552 553 554 555 556 557 
558 559 560 561 562 563 564 565 566 
567 568 569 570 571 572 573 574 575 
576 577 578 579 580 581 582 583 584 
585 586 587 588 589 590 591 592 593 
594 595 596 597 598 599 600 601 602 
603 604 605 606 607 608 609 610 611 
612 613 614 615 616 617 618 619 620 
621 622 623 624 625 626 627 628 629 
630 631 632 633 634 635 636 637 638 
639 640 641 642 643 644 645 646 647 

POINT_DATA 648
FIELD FieldData 12
id 1 648 int
164 465 18 195 115 584 185 190 72 
383 647 57 630 396 450 169 150 491 
582 609 606 632 648 92 304 106 293 
608 602 370 418 214 433 166 588 219 
611 600 362 459 626 634 629 154 610 
568 175 458 407 297 310 339 625 49 
506 643 372 635 508 404 574 317 470 
289 444 292 132 36 432 620 619 85 
624 246 386 639 463 200 134 51 347 
331 267 282 603 231 428 66 478 456 
197 322 633 110 607 521 163 270 575 
597 356 88 107 137 291 645 604 581 
238 439 355 176 590 227 515 598 86 
593 467 423 556 261 288 595 622 149 
637 26 327 583 412 614 366 218 577 
207 35 34 24 605 303 578 618 381 
58 612 215 644 599 628 544 617 127 
569 336 615 385 592 353 255 601 60 
40 646 189 187 579 552 328 318 555 
586 534 562 87 367 571 616 570 543 
128 121 541 64 237 479 247 572 168 
585 638 554 157 324 6 243 567 125 
542 83 565 186 538 631 613 546 129 
165 373 401 202 308 193 364 535 504 
594 201 158 623 253 148 29 320 62 
346 140 457 256 226 589 352 472 573 
440 73 537 483 260 563 368 299 11 
257 341 334 56 420 345 560 392 507 
100 280 461 596 488 343 268 348 251 
233 531 108 272 31 591 489 333 294 
548 445 71 576 167 174 539 496 349 
427 42 580 557 263 135 204 564 141 
503 454 338 273 469 587 417 117 561 
514 337 109 12 162 408 410 509 321 
114 550 437 155 361 91 406 98 188 
549 99 314 22 82 159 436 518 319 
69 229 505 636 139 533 502 409 415 
627 532 547 160 558 274 551 553 143 
374 290 194 500 530 380 566 248 95 
399 360 621 90 495 545 126 426 424 
112 497 181 262 46 220 118 443 33 
529 14 199 419 94 235 232 182 559 
536 435 302 351 55 438 275 84 113 
203 390 429 326 411 122 525 103 527 
183 526 449 298 240 306 8 264 382 
75 61 486 528 510 400 378 21 446 
384 178 358 184 447 161 357 287 330 
254 104 520 9 30 524 540 222 387 
309 198 413 523 76 375 414 52 487 
344 477 295 640 96 13 484 513 192 
329 28 517 170 59 211 146 311 53 
511 522 32 278 377 252 142 20 151 
265 196 519 244 641 216 474 119 395 
236 63 54 138 431 279 206 498 451 
81 313 397 475 89 93 258 471 68 
271 312 210 359 102 67 492 388 350 
156 239 307 5 250 393 354 147 120 
430 493 116 79 223 234 416 323 111 
403 25 177 44 462 422 376 74 276 
490 460 43 259 16 23 101 38 10 
39 224 285 105 171 405 371 205 217 
365 80 208 212 305 284 379 501 153 
301 124 144 145 296 442 221 17 41 
363 48 70 315 228 473 152 485 130 
325 394 191 97 266 209 179 332 481 
65 455 225 421 286 482 45 123 342 
476 242 241 136 173 402 47 283 335 
37 448 441 340 642 389 77 245 512 
213 453 480 464 468 281 131 180 466 
494 391 452 249 277 434 19 172 398 
516 133 499 300 425 4 78 369 230 
27 50 316 15 269 3 7 2 1 

type 1 648 int
1 1 1 1 1 1 1 1 1 
1 1 1 1 1 1 1 1 1 
1 1 1 1 1 1 1 1 1 
1 1 1 1 1 1 1 1 1 
1 1 1 1 1 2 1 1 1 
1 1 1 1 1 1 1 1 1 
1 1 1 1 1 1 1 1 1 
1 1 1 1 1 1 1 1 1 
1 1 1 1 1 1 1 1 1 
1 1 1 1 1 1 1 1 1 
1 1 1 1 1 1 1 1 1 
1 1 1 1 1 1 1 1 1 
1 1 1 1 1 1 1 1 1 
1 1 1 1 1 1 1 1 1 
1 1 1 1 1 1 1 1 1 
1 1 1 1 1 1 1 1 1 
1 1 1 1 1 1 1 1 1 
1 1 1 1 1 1 1 1 1 
1 1 1 1 1 1 1 1 1 
1 1 1 1 1 1 1 1 1 
1 1 1 1 1 1 1 1 1 
1 1 1 1 1 2 1 1 1 
1 1 1 1 1 1 1 1 1 
1 1 1 1 1 1 1 1 1 
1 1 1 1 1 1 1 1 1 
1 1 1 1 1 1 1 1 1 
1 1 1 1 1 1 1 1 2 
1 1 1 1 1 1 1 1 1 
1 1 1 1 1 1 1 1 1 
1 1 1 1 1 1 1 1 1 
1 1 1 1 1 1 1 1 1 
1 1 1 1 1 1 1 1 1 
1 1 1 1 1 1 1 1 1 
1 1 1 2 1 1 1 1 1 
1 1 1 1 1 1 1 1 1 
1 1 1 1 1 1 1 1 1 
1 1 1 1 1 1 1 1 1 
1 1 1 1 1 1 1 1 1 
1 1 1 1 1 1 1 1 1 
1 1 1 1 1 1 1 1 1 
1 1 1 1 1 1 1 1 1 
1 2 1 1 1 1 1 1 1 
1 1 1 1 1 1 1 1 1 
1 1 1 1 1 1 1 1 1 
1 1 1 1 1 1 2 1 1 
1 1 1 1 1 1 1 1 1 
1 1 1 1 1 1 1 1 1 
1 1 1 2 1 1 1 1 1 
1 1 1 1 1 1 1 1 1 
1 1 1 1 1 2 1 1 1 
1 1 1 1 1 1 1 1 1 
1 1 1 1 1 1 1 1 1 
1 1 1 1 1 1 1 1 1 
1 1 1 1 1 1 1 1 1 
1 1 1 1 1 1 1 1 1 
1 1 1 1 1 1 1 1 1 
1 1 1 2 1 1 1 1 1 
1 1 1 1 1 1 1 1 1 
1 1 1 1 1 1 1 1 1 
1 1 1 1 2 1 1 1 2 
1 1 1 1 1 1 1 1 1 
1 1 1 1 1 1 1 1 1 
1 1 1 1 1 1 1 1 1 
1 1 1 1 1 1 1 1 1 
1 1 1 1 1 1 1 1 1 
1 1 1 1 1 1 1 1 1 
1 1 1 1 1 1 1 1 1 
1 1 1 1 1 1 1 1 2 
1 1 1 1 1 1 1 1 1 
1 1 1 1 1 1 1 1 1 
2 1 1 1 1 2 1 1 1 
1 1 1 2 1 2 2 3 4 

i 3 648 int
0 0 0 0 0 0 0 0 0 
0 0 0 0 0 0 0 0 0 
0 0 0 0 0 0 0 0 0 
0 0 0 0 0 0 0 0 0 
0 0 0 0 0 0 0 0 0 
0 0 0 0 0 0 0 0 0 
0 0 0 0 0 0 0 0 0 
0 0 0 0 0 0 0 0 0 
0 0 0 0 0 0 0 0 0 
0 0 0 0 0 0 0 0 0 
0 0 0 0 0 0 0 0 0 
0 0 0 0 0 0 0 0 0 
0 0 0 0 0 0 0 0 0 
0 0 0 0 0 0 0 0 0 
0 0 0 0 0 0 0 0 0 
0 0 0 0 0 0 0 0 0 
0 0 0 0 0 0 0 0 0 
0 0 0 0 0 0 0 0 0 
0 0 0 0 0 0 0 0 0 
0 0 0 0 0 0 0 0 0 
0 0 0 0 0 0 0 0 0 
0 0 0 0 0 0 0 0 0 
0 0 0 0 0 0 0 0 0 
0 0 0 0 0 0 0 0 0 
0 0 0 0 0 0 0 0 0 
0 0 0 0 0 0 0 0 0 
0 0 0 0 0 0 0 0 0 
0 0 0 0 0 0 0 0 0 
0 0 0 0 0 0 0 0 0 
0 0 0 0 0 0 0 0 0 
0 0 0 0 0 0 0 0 0 
0 0 0 0 0 0 0 0 0 
0 0 0 0 0 0 0 0 0 
0 0 0 0 0 0 0 0 0 
0 0 0 0 0 0 0 0 0 
0 0 0 0 0 0 0 0 0 
0 0 0 0 0 0 0 0 0 
0 0 0 0 0 0 0 0 0 
0 0 0 0 0 0 0 0 0 
0 0 0 0 0 0 0 0 0 
0 0 0 0 0 0 0 0 0 
0 0 0 0 0 0 0 0 0 
0 0 0 0 0 0 0 0 0 
0 0 0 0 0 0 0 0 0 
0 0 0 0 0 0 0 0 0 
0 0 0 0 0 0 0 0 0 
0 0 0 0 0 0 0 0 0 
0 0 0 0 0 0 0 0 0 
0 0 0 0 0 0 0 0 0 
0 0 0 0 0 0 0 0 0 
0 0 0 0 0 0 0 0 0 
0 0 0 0 0 0 0 0 0 
0 0 0 0 0 0 0 0 0 
0 0 0 0 0 0 0 0 0 
0 0 0 0 0 0 0 0 0 
0 0 0 0 0 0 0 0 0 
0 0 0 0 0 0 0 0 0 
0 0 0 0 0 0 0 0 0 
0 0 0 0 0 0 0 0 0 
0 0 0 0 0 0 0 0 0 
0 0 0 0 0 0 0 0 0 
0 0 0 0 0 0 0 0 0 
0 0 0 0 0 0 0 0 0 
0 0 0 0 0 0 0 0 0 
0 0 0 0 0 0 0 0 0 
0 0 0 0 0 0 0 0 0 
0 0 0 0 0 0 0 0 0 
0 0 0 0 0 0 0 0 0 
0 0 0 0 0 0 0 0 0 
0 0 0 0 0 0 0 0 0 
0 0 0 0 0 0 0 0 0 
0 0 0 0 0 0 0 0 0 
0 0 0 0 0 0 0 0 0 
0 0 0 0 0 0 0 0 0 
0 0 0 0 0 0 0 0 0 
0 0 0 0 0 0 0 0 0 
0 0 0 0 0 0 0 0 0 
0 0 0 0 0 0 0 0 0 
0 0 0 0 0 0 0 0 0 
0 0 0 0 0 0 0 0 0 
0 0 0 0 0 0 0 0 0 
0 0 0 0 0 0 0 0 0 
0 0 0 0 0 0 0 0 0 
0 0 0 0 0 0 0 0 0 
0 0 0 0 0 0 0 0 0 
0 0 0 0 0 0 0 0 0 
0 0 0 0 0 0 0 0 0 
0 0 0 0 0 0 0 0 0 
0 0 0 0 0 0 0 0 0 
0 0 0 0 0 0 0 0 0 
0 0 0 0 0 0 0 0 0 
0 0 0 0 0 0 0 0 0 
0 0 0 0 0 0 0 0 0 
0 0 0 0 0 0 0 0 0 
0 0 0 0 0 0 0 0 0 
0 0 0 0 0 0 0 0 0 
0 0 0 0 0 0 0 0 0 
0 0 0 0 0 0 0 0 0 
0 0 0 0 0 0 0 0 0 
0 0 0 0 0 0 0 0 0 
0 0 0 0 0 0 0 0 0 
0 0 0 0 0 0 0 0 0 
0 0 0 0 0 0 0 0 0 
0 0 0 0 0 0 0 0 0 
0 0 0 0 0 0 0 0 0 
0 0 0 0 0 0 0 0 0 
0 0 0 0 0 0 0 0 0 
0 0 0 0 0 0 0 0 0 
0 0 0 0 0 0 0 0 0 
0 0 0 0 0 0 0 0 0 
0 0 0 0 0 0 0 0 0 
0 0 0 0 0 0 0 0 0 
0 0 0 0 0 0 0 0 0 
0 0 0 0 0 0 0 0 0 
0 0 0 0 0 0 0 0 0 
0 0 0 0 0 0 0 0 0 
0 0 0 0 0 0 0 0 0 
0 0 0 0 0 0 0 0 0 
0 0 0 0 0 0 0 0 0 
0 0 0 0 0 0 0 0 0 
0 0 0 0 0 0 0 0 0 
0 0 0 0 0 0 0 0 0 
0 0 0 0 0 0 0 0 0 
0 0 0 0 0 0 0 0 0 
0 0 0 0 0 0 0 0 0 
0 0 0 0 0 0 0 0 0 
0 0 0 0 0 0 0 0 0 
0 0 0 0 0 0 0 0 0 
0 0 0 0 0 0 0 0 0 
0 0 0 0 0 0 0 0 0 
0 0 0 0 0 0 0 0 0 
0 0 0 0 0 0 0 0 0 
0 0 0 0 0 0 0 0 0 
0 0 0 0 0 0 0 0 0 
0 0 0 0 0 0 0 0 0 
0 0 0 0 0 0 0 0 0 
0 0 0 0 0 0 0 0 0 
0 0 0 0 0 0 0 0 0 
0 0 0 0 0 0 0 0 0 
0 0 0 0 0 0 0 0 0 
0 0 0 0 0 0 0 0 0 
0 0 0 0 0 0 0 0 0 
0 0 0 0 0 0 0 0 0 
0 0 0 0 0 0 0 0 0 
0 0 0 0 0 0 0 0 0 
0 0 0 0 0 0 0 0 0 
0 0 0 0 0 0 0 0 0 
0 0 0 0 0 0 0 0 0 
0 0 0 0 0 0 0 0 0 
0 0 0 0 0 0 0 0 0 
0 0 0 0 0 0 0 0 0 
0 0 0 0 0 0 0 0 0 
0 0 0 0 0 0 0 0 0 
0 0 0 0 0 0 0 0 0 
0 0 0 0 0 0 0 0 0 
0 0 0 0 0 0 0 0 0 
0 0 0 0 0 0 0 0 0 
0 0 0 0 0 0 0 0 0 
0 0 0 0 0 0 0 0 0 
0 0 0 0 0 0 0 0 0 
0 0 0 0 0 0 0 0 0 
0 0 0 0 0 0 0 0 0 
0 0 0 0 0 0 0 0 0 
0 0 0 0 0 0 0 0 0 
0 0 0 0 0 0 0 0 0 
0 0 0 0 0 0 0 0 0 
0 0 0 0 0 0 0 0 0 
0 0 0 0 0 0 0 0 0 
0 0 0 0 0 0 0 0 0 
0 0 0 0 0 0 0 0 0 
0 0 0 0 0 0 0 0 0 
0 0 0 0 0 0 0 0 0 
0 0 0 0 0 0 0 0 0 
0 0 0 0 0 0 0 0 0 
0 0 0 0 0 0 0 0 0 
0 0 0 0 0 0 0 0 0 
0 0 0 0 0 0 0 0 0 
0 0 0 0 0 0 0 0 0 
0 0 0 0 0 0 0 0 0 
0 0 0 0 0 0 0 0 0 
0 0 0 0 0 0 0 0 0 
0 0 0 0 0 0 0 0 0 
0 0 0 0 0 0 0 0 0 
0 0 0 0 0 0 0 0 0 
0 0 0 0 0 0 0 0 0 
0 0 0 0 0 0 0 0 0 
0 0 0 0 0 0 0 0 0 
0 0 0 0 0 0 0 0 0 
0 0 0 0 0 0 0 0 0 
0 0 0 0 0 0 0 0 0 
0 0 0 0 0 0 0 0 0 
0 0 0 0 0 0 0 0 0 
0 0 0 0 0 0 0 0 0 
0 0 0 0 0 0 0 0 0 
0 0 0 0 0 0 0 0 0 
0 0 0 0 0 0 0 0 0 
0 0 0 0 0 0 0 0 0 
0 0 0 0 0 0 0 0 0 
0 0 0 0 0 0 0 0 0 
0 0 0 0 0 0 0 0 0 
0 0 0 0 0 0 0 0 0 
0 0 0 0 0 0 0 0 0 
0 0 0 0 0 0 0 0 0 
0 0 0 0 0 0 0 0 0 
0 0 0 0 0 0 0 0 0 
0 0 0 0 0 0 0 0 0 
0 0 0 0 0 0 0 0 0 
0 0 0 0 0 0 0 0 0 
0 0 0 0 0 0 0 0 0 
0 0 0 0 0 0 0 0 0 
0 0 0 0 0 0 0 0 0 
0 0 0 0 0 0 0 0 0 
0 0 0 0 0 0 0 0 0 
0 0 0 0 0 0 0 0 0 
0 0 0 0 0 0 0 0 0 
0 0 0 0 0 0 0 0 0 

v 3 648 double
0 0 -0.17287871988 0 0 0.053036248862 0 0 -0.16912467086 
0 0 -0.17306061955 0 0 0.050732567247 0 0 0.21156777323 
0 0 -0.16737346426 0 0 -0.16076588927 0 0 -0.16694774539 
0 0 0.053598781283 0 0 -0.61687418749 0 0 0.043307312389 
0 0 0.25693695153 0 0 0.063335226722 0 0 -0.16465105475 
0 0 -0.17118616986 0 0 -0.16214480571 0 0 -0.16741286718 
0 0 0.20442273284 0 0 0.2381651708 0 0 0.25428446253 
0 0 -0.62662418749 0 0 -0.61687418749 0 0 -0.1509129099 
0 0 -0.15256831144 0 0 -0.1564082918 0 0 -0.15668797078 
0 0 0.24336827241 0 0 -0.65262418749 0 0 -0.16192017269 
0 0 -0.15889944263 0 0 -0.15917909195 0 0 -0.15691239164 
0 0 -0.14936523565 0 0 0.27149217133 0 0 -0.16196374844 
0 0 0.20409416271 0 0 0.20108637585 0 0 -0.16407167636 
0 0 -0.14898589665 0 0 0.15908415046 0 0 0.23708423907 
0 0 0.20381548616 0 0 -0.14368392709 0 0 0.22679376206 
0 0 0.22247759914 0 0 -0.14207900938 0 0 -0.14693413114 
0 0 -0.14532492772 0 0 -0.13631782635 0 0 -0.14137322935 
0 0 -0.14876304245 0 0 0.22825854909 0 0 -0.14536497859 
0 0 -0.12416345729 0 0 -0.61687418749 0 0 -0.15422463862 
0 0 0.19368476474 0 0 -0.1199266083 0 0 -0.12624089817 
0 0 0.17381979815 0 0 -0.12838992948 0 0 -0.13609730115 
0 0 -0.13607605129 0 0 -0.13393237589 0 0 -0.12747346291 
0 0 -0.12950028642 0 0 -0.13005442325 0 0 -0.12472773825 
0 0 0.1989458262 0 0 -0.63312418749 0 0 -0.12564087575 
0 0 -0.62987418749 0 0 -0.14111599026 0 0 -0.13860818213 
0 0 0.1938921594 0 0 -0.1132777083 0 0 -0.14626039917 
0 0 -0.14559250178 0 0 -0.11201650746 0 0 -0.1194917744 
0 0 -0.13049700625 0 0 -0.11174418105 0 0 -0.12932146881 
0 0 0.1895441842 0 0 -0.14625614554 0 0 -0.14792179957 
0 0 -0.12762732366 0 0 -0.11713565881 0 0 -0.12025996212 
0 0 -0.14480092142 0 0 -0.13387277996 0 0 0.13363856551 
0 0 -0.11260125166 0 0 0.18248288653 0 0 -0.084954067839 
0 0 -0.1126462331 0 0 -0.1444931149 0 0 0.20215902464 
0 0 0.12795547568 0 0 -0.13654512028 0 0 -0.13499806176 
0 0 -0.14417135678 0 0 -0.11447732613 0 0 -0.14123360654 
0 0 0.083208953287 0 0 0.09583746035 0 0 0.1782857554 
0 0 -0.10114767749 0 0 -0.1109981372 0 0 -0.11725568169 
0 0 -0.13790662324 0 0 0.19607776322 0 0 -0.099270025948 
0 0 -0.085031124883 0 0 0.12972493137 0 0 -0.13737747637 
0 0 0.10413794885 0 0 -0.11695362631 0 0 -0.14040673085 
0 0 0.1464899276 0 0 -0.10470621331 0 0 -0.09968828755 
0 0 0.17622642312 0 0 0.15865362731 0 0 -0.13895119397 
0 0 0.15748792606 0 0 -0.14285546146 0 0 -0.11769776032 
0 0 0.11229809606 0 0 -0.11158251934 0 0 0.12091255015 
0 0 -0.12176862931 0 0 -0.090732098916 0 0 0.045325731999 
0 0 -0.10619111258 0 0 -0.084828149944 0 0 -0.083200660639 
0 0 -0.091872802067 0 0 0.063767324033 0 0 -0.09363096714 
0 0 0.17129475184 0 0 0.15688934535 0 0 -0.13179225152 
0 0 -0.12033838286 0 0 0.040153044509 0 0 -0.13087350927 
0 0 -0.61687418749 0 0 0.14638754389 0 0 0.14255680619 
0 0 0.19693133856 0 0 0.15898588532 0 0 -0.13553747862 
0 0 0.17207073728 0 0 -0.13085005798 0 0 0.062010721953 
0 0 -0.13133178279 0 0 0.051929633242 0 0 -0.12801210715 
0 0 -0.089746458317 0 0 0.020089562113 0 0 -0.10119128114 
0 0 -0.10176873049 0 0 -0.61687418749 0 0 -0.12517135742 
0 0 -0.12431135291 0 0 0.10101705661 0 0 0.12461899442 
0 0 -0.088495158756 0 0 -0.098834496967 0 0 0.17376672213 
0 0 0.1575478567 0 0 0.092306882671 0 0 0.010184972821 
0 0 -0.11512897486 0 0 -0.1101288379 0 0 0.023873416532 
0 0 0.11323998909 0 0 0.060385149222 0 0 -0.005846949808 
0 0 -0.064499644665 0 0 -0.080171864998 0 0 0.16572687259 
0 0 -0.08066618286 0 0 -0.11900857505 0 0 -0.07499037539 
0 0 -0.122146644 0 0 0.054313900547 0 0 -0.081306644113 
0 0 0.15291866317 0 0 0.10414416848 0 0 0.14946176501 
0 0 -0.074161730177 0 0 -0.090175021679 0 0 -0.13219414438 
0 0 -0.080528284499 0 0 0.0057651679208 0 0 -0.12096879099 
0 0 -0.022342206466 0 0 -0.11230890065 0 0 0.074853672562 
0 0 -0.1082707402 0 0 -0.013174899532 0 0 -0.62662418749 
0 0 0.13261525154 0 0 0.019989951487 0 0 -0.078712512154 
0 0 -0.1201104314 0 0 -0.11995188129 0 0 -0.072902968323 
0 0 -0.080600725187 0 0 -0.076456864079 0 0 -0.11687698234 
0 0 -0.11740145292 0 0 0.11317066524 0 0 -0.066732405264 
0 0 0.13692764491 0 0 -0.079668119141 0 0 -0.11390414341 
0 0 0.13232676567 0 0 -0.11531162176 0 0 -0.07033034487 
0 0 -0.11501746967 0 0 -0.079907986826 0 0 -0.079014041986 
0 0 -0.057292226942 0 0 -0.065663105893 0 0 -0.1060937566 
0 0 -0.10107809341 0 0 -0.064419282121 0 0 0.033280700564 
0 0 -0.055833727136 0 0 -0.05890320104 0 0 0.11608873141 
0 0 -0.1073884855 0 0 -0.098205207651 0 0 0.16345928964 
0 0 -0.10576915757 0 0 -0.05253926892 0 0 0.062579070161 
0 0 -0.042923198035 0 0 -0.053579316258 0 0 -0.11504424314 
0 0 -0.05654717749 0 0 -0.066033957257 0 0 -0.05307505477 
0 0 -0.049354608418 0 0 -0.046232895952 0 0 -0.042031848512 
0 0 0.13026794258 0 0 -0.049690130292 0 0 -0.016145734196 
0 0 -0.095132297498 0 0 -0.10600089396 0 0 -0.051333978354 
0 0 0.11485334232 0 0 -0.10207943496 0 0 -0.059050576243 
0 0 -0.054342913785 0 0 -0.042140992594 0 0 -0.058445362436 
0 0 -0.098377340556 0 0 0.15782468463 0 0 -0.045954970249 
0 0 -0.054105995575 0 0 -0.020453013155 0 0 0.041589132461 
0 0 -0.020314046249 0 0 -0.032557417449 0 0 -0.045310907761 
0 0 0.12826660075 0 0 -0.025738256021 0 0 -0.037911852875 
0 0 0.068484111818 0 0 -0.083093770859 0 0 -0.062437726126 
0 0 0.1117833582 0 0 -0.092822008413 0 0 -0.079269501934 
0 0 -0.084528009497 0 0 -0.035668526804 0 0 0.060190175257 
0 0 0.12612910281 0 0 -0.077323900821 0 0 -0.027581446769 
0 0 -0.028286290826 0 0 0.06706174555 0 0 -0.06662978303 
0 0 -0.001231449507 0 0 -0.084397535111 0 0 -0.015637228527 
0 0 -0.039276929762 0 0 -0.054173220108 0 0 0.052932517903 
0 0 -0.084975205032 0 0 -0.039747358591 0 0 0.12014186848 
0 0 0.054931067426 0 0 -0.076794396467 0 0 -0.037097251827 
0 0 -0.11231648684 0 0 -0.085782034399 0 0 -0.092945058348 
0 0 -0.084762125312 0 0 -0.00027110806521 0 0 -0.087446758431 
0 0 -0.010666933119 0 0 0.11323564415 0 0 -0.056714154073 
0 0 -0.08295693911 0 0 -0.031732359615 0 0 -0.07700332335 
0 0 -0.084119009881 0 0 -0.06445532222 0 0 -0.070196634868 
0 0 0.054579153638 0 0 -0.001114709046 0 0 -0.066870975438 
0 0 -0.076680837262 0 0 -0.01292154627 0 0 0.0069177893989 
0 0 -0.0051042985606 0 0 0.054842682983 0 0 -0.070912566096 
0 0 0.0092921105726 0 0 -0.072783979841 0 0 -0.057753625788 
0 0 -0.62337418749 0 0 -0.0077643696692 0 0 0.068416155459 
0 0 0.011984573386 0 0 -0.06928446601 0 0 -0.064419720066 
0 0 -0.62987418749 0 0 0.081731577644 0 0 0.077710789069 
0 0 -0.0004092717914 0 0 0.12144058705 0 0 -0.0068408864216 
0 0 0.069379438053 0 0 0.038232837327 0 0 0.00076496996644 
0 0 -0.0072663481228 0 0 -0.076479210032 0 0 -0.0063206787706 
0 0 -0.076897003016 0 0 0.11441414302 0 0 -0.017896441942 
0 0 0.071369029516 0 0 -0.05915051405 0 0 0.024096151307 
0 0 -0.07592502527 0 0 -0.029775530546 0 0 -0.63312418749 
0 0 -0.067850775799 0 0 -0.063810142894 0 0 0.082124391257 
0 0 -0.013710886878 0 0 -0.025895208203 0 0 -0.068021069893 
0 0 -0.067275235701 0 0 0.0073499160984 0 0 -0.0049319536819 
0 0 0.014363464799 0 0 -0.00020808280107 0 0 0.00059506626965 
0 0 0.010155194812 0 0 -0.007633396898 0 0 0.0022122560755 
0 0 -0.018521252394 0 0 -0.098318619304 0 0 -0.070797811447 
0 0 0.024122198769 0 0 -0.037031696006 0 0 0.02863637709 
0 0 -0.036903016146 0 0 -0.017976385161 0 0 0.016184357459 
0 0 0.01062059261 0 0 -0.086551470873 0 0 -0.010809391885 
0 0 -0.068125743066 0 0 -0.012454017912 0 0 -0.0085549249399 
0 0 -0.05111784492 0 0 -0.038435656959 0 0 -0.048164024838 
0 0 0.024919638326 0 0 -0.052712357771 0 0 -0.051268249186 
0 0 -0.065919603132 0 0 -0.064949149975 0 0 -0.047828180773 
0 0 0.087423346865 0 0 0.012660635512 0 0 0.078752923551 
0 0 -0.047738991768 0 0 0.028000666438 0 0 -0.0046085433637 
0 0 -0.058750537657 0 0 -0.05267276441 0 0 0.027153639142 
0 0 -0.08262934997 0 0 0.035358110278 0 0 0.031401551068 
0 0 -0.051450634458 0 0 -0.050921893364 0 0 -0.05552810733 
0 0 0.050443558325 0 0 0.10590594257 0 0 0.03013811647 
0 0 -0.044259183123 0 0 -0.066374106224 0 0 -0.048697967861 
0 0 -0.059509870782 0 0 -0.037680072425 0 0 0.020126272487 
0 0 0.037983496327 0 0 -0.046759697116 0 0 -0.049710142622 
0 0 -0.054465804232 0 0 -0.044963563287 0 0 -0.058076914824 
0 0 -0.0092811204664 0 0 -0.062125897951 0 0 0.013470316595 
0 0 -0.085797768369 0 0 -0.055226677823 0 0 0.063067765594 
0 0 0.087033270976 0 0 -0.068323547394 0 0 0.018304431138 
0 0 0.0098226320148 0 0 -0.043867454133 0 0 0.0004704784317 
0 0 0.05602426587 0 0 -0.056533529956 0 0 -0.04243984143 
0 0 -0.021851667178 0 0 -0.013039961392 0 0 -0.0098810945793 
0 0 0.018617301216 0 0 -0.033927262555 0 0 -0.031179039633 
0 0 -0.62012418749 0 0 -0.043016428516 0 0 -0.071709786611 
0 0 -0.042344069236 0 0 0.083235472238 0 0 0.037547354017 
0 0 -0.013966645386 0 0 -0.034956998679 0 0 0.080381470288 
0 0 -0.017187918535 0 0 -0.024394586508 0 0 -0.039470818096 
0 0 -0.022166750626 0 0 -0.036314074109 0 0 -0.015601212179 
0 0 0.025313250846 0 0 0.044687775645 0 0 -0.050425535899 
0 0 -0.028386489758 0 0 -0.03973512013 0 0 -0.015538490112 
0 0 -0.012115032229 0 0 -0.022467931822 0 0 -0.025719948686 
0 0 -0.0097947688576 0 0 -0.037500834741 0 0 0.030031956281 
0 0 -0.01723570025 0 0 -0.62012418749 0 0 -0.034047340866 
0 0 -0.032364039245 0 0 -0.0320346747 0 0 -0.017608388319 
0 0 -0.046565169254 0 0 -0.024919107449 0 0 -0.055263044197 
0 0 0.00085363390679 0 0 -0.018282145425 0 0 -0.01309803245 
0 0 -0.017618881577 0 0 -0.040901233811 0 0 -0.040995990923 
0 0 -0.031071514949 0 0 -0.03280074664 0 0 -0.021914347118 
0 0 -0.035956732093 0 0 -0.004973866658 0 0 -0.00071709605313 
0 0 0.030196251334 0 0 0.017882710959 0 0 0.0021717221647 
0 0 -0.033148336741 0 0 0.041294656469 0 0 0.027422014818 
0 0 0.02373865276 0 0 -0.016417304822 0 0 0.060114873702 
0 0 0.055810990883 0 0 0.035524565953 0 0 0.0077651502936 
0 0 0.0013578340494 0 0 -0.0041027531151 0 0 0.036467349529 
0 0 -0.057017623863 0 0 -0.010129028129 0 0 -0.01166735652 
0 0 0.017550319371 0 0 0.0074498494813 0 0 0.048926185353 
0 0 0.0132599779 0 0 -0.0070537810923 0 0 0.0032770385788 
0 0 -0.0092823938749 0 0 -0.029086516283 0 0 0.038342821822 
0 0 -0.0095427348695 0 0 -0.0075003367959 0 0 -0.020870899348 
0 0 -1.4520801003e-05 0 0 0.0003729715838 0 0 0.032323869986 
0 0 0.043306378913 0 0 -0.0074639854232 0 0 0.046159317951 
0 0 0.018363498822 0 0 -0.011385708584 0 0 0.016539908569 
0 0 0.042545910948 0 0 0.0053983798862 0 0 0.0055875013021 
0 0 0.049477260647 0 0 -0.052102460248 0 0 0.03269466802 
0 0 0.051324854982 0 0 -0.0074337918076 0 0 -0.068352363114 
0 0 0.05346182451 0 0 0.05635765393 0 0 0.011957989658 
0 0 0.00026303485762 0 0 -0.0070295059857 0 0 0.0059925968998 
0 0 -0.0032163102526 0 0 -0.011266026896 0 0 -0.0026669121325 
0 0 0.048079879511 0 0 0.034048593272 0 0 -0.016013909128 
0 0 0.016354453068 0 0 0.0048487879199 0 0 0.040058700734 
0 0 0.0053959020004 0 0 0.033445885163 0 0 0.021569281559 
0 0 0.0045466473316 0 0 0.018378510313 0 0 -0.0072339256054 
0 0 0.028894488951 0 0 0.01993362228 0 0 0.023251169186 
0 0 0.015311722759 0 0 -0.013177083038 0 0 0.032176092934 
0 0 -0.0093531561554 0 0 0.038405933588 0 0 0.0087663768063 
0 0 0.020946446961 0 0 0.041097942694 0 0 0.043210395982 
0 0 0.052025230145 0 0 0.038479423577 0 0 0.013730541666 
0 0 -0.0064561983312 0 0 -0.015103715063 0 0 0.033301970095 
0 0 0.050495669946 0 0 0.0039461427665 0 0 0.037079034031 
0 0 0.0186654619 0 0 0.028649060163 0 0 -0.0010807589317 
0 0 -0.01315373409 0 0 0.0046544822002 0 0 -0.0036949809995 
0 0 0.0091424863875 0 0 0.0019511813673 0 0 0.021076145812 
0 0 -0.017754238177 0 0 -0.00022722794508 0 0 -0.0063023685122 
0 0 0.014875292957 0 0 0.046812359652 0 0 0.071878965079 
0 0 0.030664952664 0 0 0.0575740027 0 0 0.046766334608 
0 0 0.044806197274 0 0 0.053524071913 0 0 0.016817757493 
0 0 0.061343089768 0 0 0.021501486542 0 0 0.03555851482 
0 0 0.027532053619 0 0 -0.61687418749 0 0 0.049373435473 
0 0 0.02520425621 0 0 0.040344189102 0 0 0.15442913992 
0 0 0.015599228357 0 0 0.024825159567 0 0 0.026297585433 
0 0 0.058502713012 0 0 0.049468097796 0 0 0.014979866611 
0 0 0.048243104285 0 0 0.026228207205 0 0 0.022652975991 
0 0 0.056446417668 0 0 0.05756010339 0 0 0.041701280408 
0 0 0.060115553033 0 0 0.062039472105 0 0 0.035303564471 
0 0 0.062313114278 0 0 0.05816108082 0 0 0.061450477741 
0 0 0.084313904819 0 0 0.070656345079 0 0 0.044870661141 
0 0 0.043291185878 0 0 0.01104063999 0 0 -0.03601741923 
0 0 0.0044136157423 0 0 0.076049545498 0 0 0.088004661041 
0 0 0.084615859411 0 0 0.046576173882 0 0 0.052423403143 
0 0 -0.013950735574 0 0 0.07611767595 0 0 0.054216592173 
0 0 0.0554091462 0 0 -0.014680534954 0 0 0.10537995422 

f 3 648 double
0 0 -1.7425367252e-10 0 0 -1.7425367252e-10 0 0 -1.7425367252e-10 
0 0 -1.7425367252e-10 0 0 -1.7425367252e-10 0 0 -1.7425367252e-10 
0 0 -1.7425367252e-10 0 0 -1.7425367252e-10 0 0 -1.7425367252e-10 
0 0 -1.7425367252e-10 0 0 -1.7425367252e-10 0 0 -1.7425367252e-10 
0 0 -1.7425367252e-10 0 0 -1.7425367252e-10 0 0 -1.7425367252e-10 
0 0 -1.7425367252e-10 0 0 -1.7425367252e-10 0 0 -1.7425367252e-10 
0 0 -1.7425367252e-10 0 0 -1.7425367252e-10 0 0 -1.7425367252e-10 
0 0 -1.7425367252e-10 0 0 -1.7425367252e-10 0 0 -1.7425367252e-10 
0 0 -1.7425367252e-10 0 0 -1.7425367252e-10 0 0 -1.7425367252e-10 
0 0 -1.7425367252e-10 0 0 -1.7425367252e-10 0 0 -1.7425367252e-10 
0 0 -1.7425367252e-10 0 0 -1.7425367252e-10 0 0 -1.7425367252e-10 
0 0 -1.7425367252e-10 0 0 -1.7425367252e-10 0 0 -1.7425367252e-10 
0 0 -1.7425367252e-10 0 0 -1.7425367252e-10 0 0 -1.7425367252e-10 
0 0 -1.7425367252e-10 0 0 -1.7425367252e-10 0 0 -8.9019973083e-09 
0 0 -1.7425367252e-10 0 0 -1.7425367252e-10 0 0 -1.7425367252e-10 
0 0 -1.7425367252e-10 0 0 -1.7425367252e-10 0 0 -1.7425367252e-10 
0 0 -1.7425367252e-10 0 0 -1.7425367252e-10 0 0 -1.7425367252e-10 
0 0 -1.7425367252e-10 0 0 -1.7425367252e-10 0 0 -1.7425367252e-10 
0 0 -1.7425367252e-10 0 0 -1.7425367252e-10 0 0 -1.7425367252e-10 
0 0 -1.7425367252e-10 0 0 -1.7425367252e-10 0 0 -1.7425367252e-10 
0 0 -1.7425367252e-10 0 0 -1.7425367252e-10 0 0 -1.7425367252e-10 
0 0 -1.7425367252e-10 0 0 -1.7425367252e-10 0 0 -1.7425367252e-10 
0 0 -1.7425367252e-10 0 0 -1.7425367252e-10 0 0 -1.7425367252e-10 
0 0 -1.7425367252e-10 0 0 -1.7425367252e-10 0 0 -1.7425367252e-10 
0 0 -1.7425367252e-10 0 0 -1.7425367252e-10 0 0 -1.7425367252e-10 
0 0 -1.7425367252e-10 0 0 -1.7425367252e-10 0 0 -1.7425367252e-10 
0 0 -1.7425367252e-10 0 0 -1.7425367252e-10 0 0 -1.7425367252e-10 
0 0 -1.7425367252e-10 0 0 -1.7425367252e-10 0 0 -1.7425367252e-10 
0 0 -1.7425367252e-10 0 0 -1.7425367252e-10 0 0 -1.7425367252e-10 
0 0 -1.7425367252e-10 0 0 -1.7425367252e-10 0 0 -1.7425367252e-10 
0 0 -1.7425367252e-10 0 0 -1.7425367252e-10 0 0 -1.7425367252e-10 
0 0 -1.7425367252e-10 0 0 -1.7425367252e-10 0 0 -1.7425367252e-10 
0 0 -1.7425367252e-10 0 0 -1.7425367252e-10 0 0 -1.7425367252e-10 
0 0 -1.7425367252e-10 0 0 -1.7425367252e-10 0 0 -1.7425367252e-10 
0 0 -1.7425367252e-10 0 0 -1.7425367252e-10 0 0 -1.7425367252e-10 
0 0 -1.7425367252e-10 0 0 -1.7425367252e-10 0 0 -1.7425367252e-10 
0 0 -1.7425367252e-10 0 0 -1.7425367252e-10 0 0 -1.7425367252e-10 
0 0 -1.7425367252e-10 0 0 -1.7425367252e-10 0 0 -1.7425367252e-10 
0 0 -1.7425367252e-10 0 0 -1.7425367252e-10 0 0 -1.7425367252e-10 
0 0 -1.7425367252e-10 0 0 -1.7425367252e-10 0 0 -1.7425367252e-10 
0 0 -1.7425367252e-10 0 0 -1.7425367252e-10 0 0 -1.7425367252e-10 
0 0 -1.7425367252e-10 0 0 -1.7425367252e-10 0 0 -1.7425367252e-10 
0 0 -1.7425367252e-10 0 0 -1.7425367252e-10 0 0 -1.7425367252e-10 
0 0 -1.7425367252e-10 0 0 -1.7425367252e-10 0 0 -1.7425367252e-10 
0 0 -1.7425367252e-10 0 0 -1.7425367252e-10 0 0 -1.7425367252e-10 
0 0 -1.7425367252e-10 0 0 -1.7425367252e-10 0 0 -1.7425367252e-10 
0 0 -1.7425367252e-10 0 0 -1.7425367252e-10 0 0 -1.7425367252e-10 
0 0 -1.7425367252e-10 0 0 -1.7425367252e-10 0 0 -1.7425367252e-10 
0 0 -1.7425367252e-10 0 0 -1.7425367252e-10 0 0 -1.7425367252e-10 
0 0 -1.7425367252e-10 0 0 -1.7425367252e-10 0 0 -1.7425367252e-10 
0 0 -1.7425367252e-10 0 0 -1.7425367252e-10 0 0 -1.7425367252e-10 
0 0 -1.7425367252e-10 0 0 -1.7425367252e-10 0 0 -1.7425367252e-10 
0 0 -1.7425367252e-10 0 0 -1.7425367252e-10 0 0 -1.7425367252e-10 
0 0 -1.7425367252e-10 0 0 -1.7425367252e-10 0 0 -1.7425367252e-10 
0 0 -1.7425367252e-10 0 0 -1.7425367252e-10 0 0 -1.7425367252e-10 
0 0 -1.7425367252e-10 0 0 -1.7425367252e-10 0 0 -1.7425367252e-10 
0 0 -1.7425367252e-10 0 0 -1.7425367252e-10 0 0 -1.7425367252e-10 
0 0 -1.7425367252e-10 0 0 -1.7425367252e-10 0 0 -1.7425367252e-10 
0 0 -1.7425367252e-10 0 0 -1.7425367252e-10 0 0 -1.7425367252e-10 
0 0 -1.7425367252e-10 0 0 -1.7425367252e-10 0 0 -1.7425367252e-10 
0 0 -1.7425367252e-10 0 0 -1.7425367252e-10 0 0 -1.7425367252e-10 
0 0 -1.7425367252e-10 0 0 -1.7425367252e-10 0 0 -1.7425367252e-10 
0 0 -1.7425367252e-10 0 0 -1.7425367252e-10 0 0 -1.7425367252e-10 
0 0 -1.7425367252e-10 0 0 -1.7425367252e-10 0 0 -1.7425367252e-10 
0 0 -1.7425367252e-10 0 0 -1.7425367252e-10 0 0 -8.9019973083e-09 
0 0 -1.7425367252e-10 0 0 -1.7425367252e-10 0 0 -1.7425367252e-10 
0 0 -1.7425367252e-10 0 0 -1.7425367252e-10 0 0 -1.7425367252e-10 
0 0 -1.7425367252e-10 0 0 -1.7425367252e-10 0 0 -1.7425367252e-10 
0 0 -1.7425367252e-10 0 0 -1.7425367252e-10 0 0 -1.7425367252e-10 
0 0 -1.7425367252e-10 0 0 -1.7425367252e-10 0 0 -1.7425367252e-10 
0 0 -1.7425367252e-10 0 0 -1.7425367252e-10 0 0 -1.7425367252e-10 
0 0 -1.7425367252e-10 0 0 -1.7425367252e-10 0 0 -1.7425367252e-10 
0 0 -1.7425367252e-10 0 0 -1.7425367252e-10 0 0 -1.7425367252e-10 
0 0 -1.7425367252e-10 0 0 -1.7425367252e-10 0 0 -1.7425367252e-10 
0 0 -1.7425367252e-10 0 0 -1.7425367252e-10 0 0 -1.7425367252e-10 
0 0 -1.7425367252e-10 0 0 -1.7425367252e-10 0 0 -1.7425367252e-10 
0 0 -1.7425367252e-10 0 0 -1.7425367252e-10 0 0 -1.7425367252e-10 
0 0 -1.7425367252e-10 0 0 -1.7425367252e-10 0 0 -1.7425367252e-10 
0 0 -1.7425367252e-10 0 0 -1.7425367252e-10 0 0 -1.7425367252e-10 
0 0 -1.7425367252e-10 0 0 -1.7425367252e-10 0 0 -1.7425367252e-10 
0 0 -1.7425367252e-10 0 0 -1.7425367252e-10 0 0 -8.9019973083e-09 
0 0 -1.7425367252e-10 0 0 -1.7425367252e-10 0 0 -1.7425367252e-10 
0 0 -1.7425367252e-10 0 0 -1.7425367252e-10 0 0 -1.7425367252e-10 
0 0 -1.7425367252e-10 0 0 -1.7425367252e-10 0 0 -1.7425367252e-10 
0 0 -1.7425367252e-10 0 0 -1.7425367252e-10 0 0 -1.7425367252e-10 
0 0 -1.7425367252e-10 0 0 -1.7425367252e-10 0 0 -1.7425367252e-10 
0 0 -1.7425367252e-10 0 0 -1.7425367252e-10 0 0 -1.7425367252e-10 
0 0 -1.7425367252e-10 0 0 -1.7425367252e-10 0 0 -1.7425367252e-10 
0 0 -1.7425367252e-10 0 0 -1.7425367252e-10 0 0 -1.7425367252e-10 
0 0 -1.7425367252e-10 0 0 -1.7425367252e-10 0 0 -1.7425367252e-10 
0 0 -1.7425367252e-10 0 0 -1.7425367252e-10 0 0 -1.7425367252e-10 
0 0 -1.7425367252e-10 0 0 -1.7425367252e-10 0 0 -1.7425367252e-10 
0 0 -1.7425367252e-10 0 0 -1.7425367252e-10 0 0 -1.7425367252e-10 
0 0 -1.7425367252e-10 0 0 -1.7425367252e-10 0 0 -1.7425367252e-10 
0 0 -1.7425367252e-10 0 0 -1.7425367252e-10 0 0 -1.7425367252e-10 
0 0 -1.7425367252e-10 0 0 -1.7425367252e-10 0 0 -1.7425367252e-10 
0 0 -1.7425367252e-10 0 0 -1.7425367252e-10 0 0 -1.7425367252e-10 
0 0 -1.7425367252e-10 0 0 -1.7425367252e-10 0 0 -1.7425367252e-10 
0 0 -1.7425367252e-10 0 0 -1.7425367252e-10 0 0 -1.7425367252e-10 
0 0 -1.7425367252e-10 0 0 -1.7425367252e-10 0 0 -1.7425367252e-10 
0 0 -8.9019973083e-09 0 0 -1.7425367252e-10 0 0 -1.7425367252e-10 
0 0 -1.7425367252e-10 0 0 -1.7425367252e-10 0 0 -1.7425367252e-10 
0 0 -1.7425367252e-10 0 0 -1.7425367252e-10 0 0 -1.7425367252e-10 
0 0 -1.7425367252e-10 0 0 -1.7425367252e-10 0 0 -1.7425367252e-10 
0 0 -1.7425367252e-10 0 0 -1.7425367252e-10 0 0 -1.7425367252e-10 
0 0 -1.7425367252e-10 0 0 -1.7425367252e-10 0 0 -1.7425367252e-10 
0 0 -1.7425367252e-10 0 0 -1.7425367252e-10 0 0 -1.7425367252e-10 
0 0 -1.7425367252e-10 0 0 -1.7425367252e-10 0 0 -1.7425367252e-10 
0 0 -1.7425367252e-10 0 0 -1.7425367252e-10 0 0 -1.7425367252e-10 
0 0 -1.7425367252e-10 0 0 -1.7425367252e-10 0 0 -1.7425367252e-10 
0 0 -1.7425367252e-10 0 0 -1.7425367252e-10 0 0 -1.7425367252e-10 
0 0 -1.7425367252e-10 0 0 -1.7425367252e-10 0 0 -1.7425367252e-10 
0 0 -1.7425367252e-10 0 0 -1.7425367252e-10 0 0 -1.7425367252e-10 
0 0 -1.7425367252e-10 0 0 -1.7425367252e-10 0 0 -1.7425367252e-10 
0 0 -1.7425367252e-10 0 0 -1.7425367252e-10 0 0 -1.7425367252e-10 
0 0 -1.7425367252e-10 0 0 -1.7425367252e-10 0 0 -1.7425367252e-10 
0 0 -1.7425367252e-10 0 0 -1.7425367252e-10 0 0 -1.7425367252e-10 
0 0 -1.7425367252e-10 0 0 -1.7425367252e-10 0 0 -1.7425367252e-10 
0 0 -1.7425367252e-10 0 0 -1.7425367252e-10 0 0 -1.7425367252e-10 
0 0 -1.7425367252e-10 0 0 -1.7425367252e-10 0 0 -1.7425367252e-10 
0 0 -1.7425367252e-10 0 0 -1.7425367252e-10 0 0 -1.7425367252e-10 
0 0 -1.7425367252e-10 0 0 -1.7425367252e-10 0 0 -1.7425367252e-10 
0 0 -1.7425367252e-10 0 0 -1.7425367252e-10 0 0 -1.7425367252e-10 
0 0 -1.7425367252e-10 0 0 -8.9019973083e-09 0 0 -1.7425367252e-10 
0 0 -1.7425367252e-10 0 0 -1.7425367252e-10 0 0 -1.7425367252e-10 
0 0 -1.7425367252e-10 0 0 -1.7425367252e-10 0 0 -1.7425367252e-10 
0 0 -1.7425367252e-10 0 0 -1.7425367252e-10 0 0 -1.7425367252e-10 
0 0 -1.7425367252e-10 0 0 -1.7425367252e-10 0 0 -1.7425367252e-10 
0 0 -1.7425367252e-10 0 0 -1.7425367252e-10 0 0 -1.7425367252e-10 
0 0 -1.7425367252e-10 0 0 -1.7425367252e-10 0 0 -1.7425367252e-10 
0 0 -1.7425367252e-10 0 0 -1.7425367252e-10 0 0 -1.7425367252e-10 
0 0 -1.7425367252e-10 0 0 -1.7425367252e-10 0 0 -1.7425367252e-10 
0 0 -1.7425367252e-10 0 0 -1.7425367252e-10 0 0 -1.7425367252e-10 
0 0 -1.7425367252e-10 0 0 -1.7425367252e-10 0 0 -1.7425367252e-10 
0 0 -8.9019973083e-09 0 0 -1.7425367252e-10 0 0 -1.7425367252e-10 
0 0 -1.7425367252e-10 0 0 -1.7425367252e-10 0 0 -1.7425367252e-10 
0 0 -1.7425367252e-10 0 0 -1.7425367252e-10 0 0 -1.7425367252e-10 
0 0 -1.7425367252e-10 0 0 -1.7425367252e-10 0 0 -1.7425367252e-10 
0 0 -1.7425367252e-10 0 0 -1.7425367252e-10 0 0 -1.7425367252e-10 
0 0 -1.7425367252e-10 0 0 -1.7425367252e-10 0 0 -1.7425367252e-10 
0 0 -1.7425367252e-10 0 0 -1.7425367252e-10 0 0 -1.7425367252e-10 
0 0 -1.7425367252e-10 0 0 -1.7425367252e-10 0 0 -1.7425367252e-10 
0 0 -8.9019973083e-09 0 0 -1.7425367252e-10 0 0 -1.7425367252e-10 
0 0 -1.7425367252e-10 0 0 -1.7425367252e-10 0 0 -1.7425367252e-10 
0 0 -1.7425367252e-10 0 0 -1.7425367252e-10 0 0 -1.7425367252e-10 
0 0 -1.7425367252e-10 0 0 -1.7425367252e-10 0 0 -1.7425367252e-10 
0 0 -1.7425367252e-10 0 0 -1.7425367252e-10 0 0 -1.7425367252e-10 
0 0 -1.7425367252e-10 0 0 -1.7425367252e-10 0 0 -1.7425367252e-10 
0 0 -1.7425367252e-10 0 0 -1.7425367252e-10 0 0 -8.9019973083e-09 
0 0 -1.7425367252e-10 0 0 -1.7425367252e-10 0 0 -1.7425367252e-10 
0 0 -1.7425367252e-10 0 0 -1.7425367252e-10 0 0 -1.7425367252e-10 
0 0 -1.7425367252e-10 0 0 -1.7425367252e-10 0 0 -1.7425367252e-10 
0 0 -1.7425367252e-10 0 0 -1.7425367252e-10 0 0 -1.7425367252e-10 
0 0 -1.7425367252e-10 0 0 -1.7425367252e-10 0 0 -1.7425367252e-10 
0 0 -1.7425367252e-10 0 0 -1.7425367252e-10 0 0 -1.7425367252e-10 
0 0 -1.7425367252e-10 0 0 -1.7425367252e-10 0 0 -1.7425367252e-10 
0 0 -1.7425367252e-10 0 0 -1.7425367252e-10 0 0 -1.7425367252e-10 
0 0 -1.7425367252e-10 0 0 -1.7425367252e-10 0 0 -1.7425367252e-10 
0 0 -1.7425367252e-10 0 0 -1.7425367252e-10 0 0 -1.7425367252e-10 
0 0 -1.7425367252e-10 0 0 -1.7425367252e-10 0 0 -1.7425367252e-10 
0 0 -1.7425367252e-10 0 0 -1.7425367252e-10 0 0 -1.7425367252e-10 
0 0 -1.7425367252e-10 0 0 -1.7425367252e-10 0 0 -1.7425367252e-10 
0 0 -1.7425367252e-10 0 0 -1.7425367252e-10 0 0 -1.7425367252e-10 
0 0 -1.7425367252e-10 0 0 -1.7425367252e-10 0 0 -1.7425367252e-10 
0 0 -1.7425367252e-10 0 0 -1.7425367252e-10 0 0 -1.7425367252e-10 
0 0 -1.7425367252e-10 0 0 -1.7425367252e-10 0 0 -1.7425367252e-10 
0 0 -1.7425367252e-10 0 0 -1.7425367252e-10 0 0 -1.7425367252e-10 
0 0 -1.7425367252e-10 0 0 -1.7425367252e-10 0 0 -1.7425367252e-10 
0 0 -1.7425367252e-10 0 0 -1.7425367252e-10 0 0 -1.7425367252e-10 
0 0 -8.9019973083e-09 0 0 -1.7425367252e-10 0 0 -1.7425367252e-10 
0 0 -1.7425367252e-10 0 0 -1.7425367252e-10 0 0 -1.7425367252e-10 
0 0 -1.7425367252e-10 0 0 -1.7425367252e-10 0 0 -1.7425367252e-10 
0 0 -1.7425367252e-10 0 0 -1.7425367252e-10 0 0 -1.7425367252e-10 
0 0 -1.7425367252e-10 0 0 -1.7425367252e-10 0 0 -1.7425367252e-10 
0 0 -1.7425367252e-10 0 0 -1.7425367252e-10 0 0 -1.7425367252e-10 
0 0 -1.7425367252e-10 0 0 -1.7425367252e-10 0 0 -1.7425367252e-10 
0 0 -1.7425367252e-10 0 0 -1.7425367252e-10 0 0 -1.7425367252e-10 
0 0 -1.7425367252e-10 0 0 -1.7425367252e-10 0 0 -1.7425367252e-10 
0 0 -1.7425367252e-10 0 0 -8.9019973083e-09 0 0 -1.7425367252e-10 
0 0 -1.7425367252e-10 0 0 -1.7425367252e-10 0 0 -8.9019973083e-09 
0 0 -1.7425367252e-10 0 0 -1.7425367252e-10 0 0 -1.7425367252e-10 
0 0 -1.7425367252e-10 0 0 -1.7425367252e-10 0 0 -1.7425367252e-10 
0 0 -1.7425367252e-10 0 0 -1.7425367252e-10 0 0 -1.7425367252e-10 
0 0 -1.7425367252e-10 0 0 -1.7425367252e-10 0 0 -1.7425367252e-10 
0 0 -1.7425367252e-10 0 0 -1.7425367252e-10 0 0 -1.7425367252e-10 
0 0 -1.7425367252e-10 0 0 -1.7425367252e-10 0 0 -1.7425367252e-10 
0 0 -1.7425367252e-10 0 0 -1.7425367252e-10 0 0 -1.7425367252e-10 
0 0 -1.7425367252e-10 0 0 -1.7425367252e-10 0 0 -1.7425367252e-10 
0 0 -1.7425367252e-10 0 0 -1.7425367252e-10 0 0 -1.7425367252e-10 
0 0 -1.7425367252e-10 0 0 -1.7425367252e-10 0 0 -1.7425367252e-10 
0 0 -1.7425367252e-10 0 0 -1.7425367252e-10 0 0 -1.7425367252e-10 
0 0 -1.7425367252e-10 0 0 -1.7425367252e-10 0 0 -1.7425367252e-10 
0 0 -1.7425367252e-10 0 0 -1.7425367252e-10 0 0 -1.7425367252e-10 
0 0 -1.7425367252e-10 0 0 -1.7425367252e-10 0 0 -1.7425367252e-10 
0 0 -1.7425367252e-10 0 0 -1.7425367252e-10 0 0 -1.7425367252e-10 
0 0 -1.7425367252e-10 0 0 -1.7425367252e-10 0 0 -1.7425367252e-10 
0 0 -1.7425367252e-10 0 0 -1.7425367252e-10 0 0 -1.7425367252e-10 
0 0 -1.7425367252e-10 0 0 -1.7425367252e-10 0 0 -1.7425367252e-10 
0 0 -1.7425367252e-10 0 0 -1.7425367252e-10 0 0 -1.7425367252e-10 
0 0 -1.7425367252e-10 0 0 -1.7425367252e-10 0 0 -1.7425367252e-10 
0 0 -1.7425367252e-10 0 0 -1.7425367252e-10 0 0 -1.7425367252e-10 
0 0 -1.7425367252e-10 0 0 -1.7425367252e-10 0 0 -1.7425367252e-10 
0 0 -1.7425367252e-10 0 0 -1.7425367252e-10 0 0 -1.7425367252e-10 
0 0 -1.7425367252e-10 0 0 -1.7425367252e-10 0 0 -8.9019973083e-09 
0 0 -1.7425367252e-10 0 0 -1.7425367252e-10 0 0 -1.7425367252e-10 
0 0 -1.7425367252e-10 0 0 -1.7425367252e-10 0 0 -1.7425367252e-10 
0 0 -1.7425367252e-10 0 0 -1.7425367252e-10 0 0 -1.7425367252e-10 
0 0 -1.7425367252e-10 0 0 -1.7425367252e-10 0 0 -1.7425367252e-10 
0 0 -1.7425367252e-10 0 0 -1.7425367252e-10 0 0 -1.7425367252e-10 
0 0 -1.7425367252e-10 0 0 -1.7425367252e-10 0 0 -1.7425367252e-10 
0 0 -8.9019973083e-09 0 0 -1.7425367252e-10 0 0 -1.7425367252e-10 
0 0 -1.7425367252e-10 0 0 -1.7425367252e-10 0 0 -8.9019973083e-09 
0 0 -1.7425367252e-10 0 0 -1.7425367252e-10 0 0 -1.7425367252e-10 
0 0 -1.7425367252e-10 0 0 -1.7425367252e-10 0 0 -1.7425367252e-10 
0 0 -8.9019973083e-09 0 0 -1.7425367252e-10 0 0 -8.9019973083e-09 
0 0 -8.9019973083e-09 0 0 -6.8918688838e-08 0 0 -5.3297119368e-07 

radius 1 648 double
2e-05 2e-05 2e-05 2e-05 2e-05 2e-05 2e-05 2e-05 2e-05 
2e-05 2e-05 2e-05 2e-05 2e-05 2e-05 2e-05 2e-05 2e-05 
2e-05 2e-05 2e-05 2e-05 2e-05 2e-05 2e-05 2e-05 2e-05 
2e-05 2e-05 2e-05 2e-05 2e-05 2e-05 2e-05 2e-05 2e-05 
2e-05 2e-05 2e-05 2e-05 2e-05 7.5e-05 2e-05 2e-05 2e-05 
2e-05 2e-05 2e-05 2e-05 2e-05 2e-05 2e-05 2e-05 2e-05 
2e-05 2e-05 2e-05 2e-05 2e-05 2e-05 2e-05 2e-05 2e-05 
2e-05 2e-05 2e-05 2e-05 2e-05 2e-05 2e-05 2e-05 2e-05 
2e-05 2e-05 2e-05 2e-05 2e-05 2e-05 2e-05 2e-05 2e-05 
2e-05 2e-05 2e-05 2e-05 2e-05 2e-05 2e-05 2e-05 2e-05 
2e-05 2e-05 2e-05 2e-05 2e-05 2e-05 2e-05 2e-05 2e-05 
2e-05 2e-05 2e-05 2e-05 2e-05 2e-05 2e-05 2e-05 2e-05 
2e-05 2e-05 2e-05 2e-05 2e-05 2e-05 2e-05 2e-05 2e-05 
2e-05 2e-05 2e-05 2e-05 2e-05 2e-05 2e-05 2e-05 2e-05 
2e-05 2e-05 2e-05 2e-05 2e-05 2e-05 2e-05 2e-05 2e-05 
2e-05 2e-05 2e-05 2e-05 2e-05 2e-05 2e-05 2e-05 2e-05 
2e-05 2e-05 2e-05 2e-05 2e-05 2e-05 2e-05 2e-05 2e-05 
2e-05 2e-05 2e-05 2e-05 2e-05 2e-05 2e-05 2e-05 2e-05 
2e-05 2e-05 2e-05 2e-05 2e-05 2e-05 2e-05 2e-05 2e-05 
2e-05 2e-05 2e-05 2e-05 2e-05 2e-05 2e-05 2e-05 2e-05 
2e-05 2e-05 2e-05 2e-05 2e-05 2e-05 2e-05 2e-05 2e-05 
2e-05 2e-05 2e-05 2e-05 2e-05 7.5e-05 2e-05 2e-05 2e-05 
2e-05 2e-05 2e-05 2e-05 2e-05 2e-05 2e-05 2e-05 2e-05 
2e-05 2e-05 2e-05 2e-05 2e-05 2e-05 2e-05 2e-05 2e-05 
2e-05 2e-05 2e-05 2e-05 2e-05 2e-05 2e-05 2e-05 2e-05 
2e-05 2e-05 2e-05 2e-05 2e-05 2e-05 2e-05 2e-05 2e-05 
2e-05 2e-05 2e-05 2e-05 2e-05 2e-05 2e-05 2e-05 7.5e-05 
2e-05 2e-05 2e-05 2e-05 2e-05 2e-05 2e-05 2e-05 2e-05 
2e-05 2e-05 2e-05 2e-05 2e-05 2e-05 2e-05 2e-05 2e-05 
2e-05 2e-05 2e-05 2e-05 2e-05 2e-05 2e-05 2e-05 2e-05 
2e-05 2e-05 2e-05 2e-05 2e-05 2e-05 2e-05 2e-05 2e-05 
2e-05 2e-05 2e-05 2e-05 2e-05 2e-05 2e-05 2e-05 2e-05 
2e-05 2e-05 2e-05 2e-05 2e-05 2e-05 2e-05 2e-05 2e-05 
2e-05 2e-05 2e-05 7.5e-05 2e-05 2e-05 2e-05 2e-05 2e-05 
2e-05 2e-05 2e-05 2e-05 2e-05 2e-05 2e-05 2e-05 2e-05 
2e-05 2e-05 2e-05 2e-05 2e-05 2e-05 2e-05 2e-05 2e-05 
2e-05 2e-05 2e-05 2e-05 2e-05 2e-05 2e-05 2e-05 2e-05 
2e-05 2e-05 2e-05 2e-05 2e-05 2e-05 2e-05 2e-05 2e-05 
2e-05 2e-05 2e-05 2e-05 2e-05 2e-05 2e-05 2e-05 2e-05 
2e-05 2e-05 2e-05 2e-05 2e-05 2e-05 2e-05 2e-05 2e-05 
2e-05 2e-05 2e-05 2e-05 2e-05 2e-05 2e-05 2e-05 2e-05 
2e-05 7.5e-05 2e-05 2e-05 2e-05 2e-05 2e-05 2e-05 2e-05 
2e-05 2e-05 2e-05 2e-05 2e-05 2e-05 2e-05 2e-05 2e-05 
2e-05 2e-05 2e-05 2e-05 2e-05 2e-05 2e-05 2e-05 2e-05 
2e-05 2e-05 2e-05 2e-05 2e-05 2e-05 7.5e-05 2e-05 2e-05 
2e-05 2e-05 2e-05 2e-05 2e-05 2e-05 2e-05 2e-05 2e-05 
2e-05 2e-05 2e-05 2e-05 2e-05 2e-05 2e-05 2e-05 2e-05 
2e-05 2e-05 2e-05 7.5e-05 2e-05 2e-05 2e-05 2e-05 2e-05 
2e-05 2e-05 2e-05 2e-05 2e-05 2e-05 2e-05 2e-05 2e-05 
2e-05 2e-05 2e-05 2e-05 2e-05 7.5e-05 2e-05 2e-05 2e-05 
2e-05 2e-05 2e-05 2e-05 2e-05 2e-05 2e-05 2e-05 2e-05 
2e-05 2e-05 2e-05 2e-05 2e-05 2e-05 2e-05 2e-05 2e-05 
2e-05 2e-05 2e-05 2e-05 2e-05 2e-05 2e-05 2e-05 2e-05 
2e-05 2e-05 2e-05 2e-05 2e-05 2e-05 2e-05 2e-05 2e-05 
2e-05 2e-05 2e-05 2e-05 2e-05 2e-05 2e-05 2e-05 2e-05 
2e-05 2e-05 2e-05 2e-05 2e-05 2e-05 2e-05 2e-05 2e-05 
2e-05 2e-05 2e-05 7.5e-05 2e-05 2e-05 2e-05 2e-05 2e-05 
2e-05 2e-05 2e-05 2e-05 2e-05 2e-05 2e-05 2e-05 2e-05 
2e-05 2e-05 2e-05 2e-05 2e-05 2e-05 2e-05 2e-05 2e-05 
2e-05 2e-05 2e-05 2e-05 7.5e-05 2e-05 2e-05 2e-05 7.5e-05 
2e-05 2e-05 2e-05 2e-05 2e-05 2e-05 2e-05 2e-05 2e-05 
2e-05 2e-05 2e-05 2e-05 2e-05 2e-05 2e-05 2e-05 2e-05 
2e-05 2e-05 2e-05 2e-05 2e-05 2e-05 2e-05 2e-05 2e-05 
2e-05 2e-05 2e-05 2e-05 2e-05 2e-05 2e-05 2e-05 2e-05 
2e-05 2e-05 2e-05 2e-05 2e-05 2e-05 2e-05 2e-05 2e-05 
2e-05 2e-05 2e-05 2e-05 2e-05 2e-05 2e-05 2e-05 2e-05 
2e-05 2e-05 2e-05 2e-05 2e-05 2e-05 2e-05 2e-05 2e-05 
2e-05 2e-05 2e-05 2e-05 2e-05 2e-05 2e-05 2e-05 7.5e-05 
2e-05 2e-05 2e-05 2e-05 2e-05 2e-05 2e-05 2e-05 2e-05 
2e-05 2e-05 2e-05 2e-05 2e-05 2e-05 2e-05 2e-05 2e-05 
7.5e-05 2e-05 2e-05 2e-05 2e-05 7.5e-05 2e-05 2e-05 2e-05 
2e-05 2e-05 2e-05 7.5e-05 2e-05 7.5e-05 7.5e-05 0.00015 0.0003 

omega 3 648 double
0 0 0 0 0 0 0 0 0 
0 0 0 0 0 0 0 0 0 
0 0 0 0 0 0 0 0 0 
0 0 0 0 0 0 0 0 0 
0 0 0 0 0 0 0 0 0 
0 0 0 0 0 0 0 0 0 
0 0 0 0 0 0 0 0 0 
0 0 0 0 0 0 0 0 0 
0 0 0 0 0 0 0 0 0 
0 0 0 0 0 0 0 0 0 
0 0 0 0 0 0 0 0 0 
0 0 0 0 0 0 0 0 0 
0 0 0 0 0 0 0 0 0 
0 0 0 0 0 0 0 0 0 
0 0 0 0 0 0 0 0 0 
0 0 0 0 0 0 0 0 0 
0 0 0 0 0 0 0 0 0 
0 0 0 0 0 0 0 0 0 
0 0 0 0 0 0 0 0 0 
0 0 0 0 0 0 0 0 0 
0 0 0 0 0 0 0 0 0 
0 0 0 0 0 0 0 0 0 
0 0 0 0 0 0 0 0 0 
0 0 0 0 0 0 0 0 0 
0 0 0 0 0 0 0 0 0 
0 0 0 0 0 0 0 0 0 
0 0 0 0 0 0 0 0 0 
0 0 0 0 0 0 0 0 0 
0 0 0 0 0 0 0 0 0 
0 0 0 0 0 0 0 0 0 
0 0 0 0 0 0 0 0 0 
0 0 0 0 0 0 0 0 0 
0 0 0 0 0 0 0 0 0 
0 0 0 0 0 0 0 0 0 
0 0 0 0 0 0 0 0 0 
0 0 0 0 0 0 0 0 0 
0 0 0 0 0 0 0 0 0 
0 0 0 0 0 0 0 0 0 
0 0 0 0 0 0 0 0 0 
0 0 0 0 0 0 0 0 0 
0 0 0 0 0 0 0 0 0 
0 0 0 0 0 0 0 0 0 
0 0 0 0 0 0 0 0 0 
0 0 0 0 0 0 0 0 0 
0 0 0 0 0 0 0 0 0 
0 0 0 0 0 0 0 0 0 
0 0 0 0 0 0 0 0 0 
0 0 0 0 0 0 0 0 0 
0 0 0 0 0 0 0 0 0 
0 0 0 0 0 0 0 0 0 
0 0 0 0 0 0 0 0 0 
0 0 0 0 0 0 0 0 0 
0 0 0 0 0 0 0 0 0 
0 0 0 0 0 0 0 0 0 
0 0 0 0 0 0 0 0 0 
0 0 0 0 0 0 0 0 0 
0 0 0 0 0 0 0 0 0 
0 0 0 0 0 0 0 0 0 
0 0 0 0 0 0 0 0 0 
0 0 0 0 0 0 0 0 0 
0 0 0 0 0 0 0 0 0 
0 0 0 0 0 0 0 0 0 
0 0 0 0 0 0 0 0 0 
0 0 0 0 0 0 0 0 0 
0 0 0 0 0 0 0 0 0 
0 0 0 0 0 0 0 0 0 
0 0 0 0 0 0 0 0 0 
0 0 0 0 0 0 0 0 0 
0 0 0 0 0 0 0 0 0 
0 0 0 0 0 0 0 0 0 
0 0 0 0 0 0 0 0 0 
0 0 0 0 0 0 0 0 0 
0 0 0 0 0 0 0 0 0 
0 0 0 0 0 0 0 0 0 
0 0 0 0 0 0 0 0 0 
0 0 0 0 0 0 0 0 0 
0 0 0 0 0 0 0 0 0 
0 0 0 0 0 0 0 0 0 
0 0 0 0 0 0 0 0 0 
0 0 0 0 0 0 0 0 0 
0 0 0 0 0 0 0 0 0 
0 0 0 0 0 0 0 0 0 
0 0 0 0 0 0 0 0 0 
0 0 0 0 0 0 0 0 0 
0 0 0 0 0 0 0 0 0 
0 0 0 0 0 0 0 0 0 
0 0 0 0 0 0 0 0 0 
0 0 0 0 0 0 0 0 0 
0 0 0 0 0 0 0 0 0 
0 0 0 0 0 0 0 0 0 
0 0 0 0 0 0 0 0 0 
0 0 0 0 0 0 0 0 0 
0 0 0 0 0 0 0 0 0 
0 0 0 0 0 0 0 0 0 
0 0 0 0 0 0 0 0 0 
0 0 0 0 0 0 0 0 0 
0 0 0 0 0 0 0 0 0 
0 0 0 0 0 0 0 0 0 
0 0 0 0 0 0 0 0 0 
0 0 0 0 0 0 0 0 0 
0 0 0 0 0 0 0 0 0 
0 0 0 0 0 0 0 0 0 
0 0 0 0 0 0 0 0 0 
0 0 0 0 0 0 0 0 0 
0 0 0 0 0 0 0 0 0 
0 0 0 0 0 0 0 0 0 
0 0 0 0 0 0 0 0 0 
0 0 0 0 0 0 0 0 0 
0 0 0 0 0 0 0 0 0 
0 0 0 0 0 0 0 0 0 
0 0 0 0 0 0 0 0 0 
0 0 0 0 0 0 0 0 0 
0 0 0 0 0 0 0 0 0 
0 0 0 0 0 0 0 0 0 
0 0 0 0 0 0 0 0 0 
0 0 0 0 0 0 0 0 0 
0 0 0 0 0 0 0 0 0 
0 0 0 0 0 0 0 0 0 
0 0 0 0 0 0 0 0 0 
0 0 0 0 0 0 0 0 0 
0 0 0 0 0 0 0 0 0 
0 0 0 0 0 0 0 0 0 
0 0 0 0 0 0 0 0 0 
0 0 0 0 0 0 0 0 0 
0 0 0 0 0 0 0 0 0 
0 0 0 0 0 0 0 0 0 
0 0 0 0 0 0 0 0 0 
0 0 0 0 0 0 0 0 0 
0 0 0 0 0 0 0 0 0 
0 0 0 0 0 0 0 0 0 
0 0 0 0 0 0 0 0 0 
0 0 0 0 0 0 0 0 0 
0 0 0 0 0 0 0 0 0 
0 0 0 0 0 0 0 0 0 
0 0 0 0 0 0 0 0 0 
0 0 0 0 0 0 0 0 0 
0 0 0 0 0 0 0 0 0 
0 0 0 0 0 0 0 0 0 
0 0 0 0 0 0 0 0 0 
0 0 0 0 0 0 0 0 0 
0 0 0 0 0 0 0 0 0 
0 0 0 0 0 0 0 0 0 
0 0 0 0 0 0 0 0 0 
0 0 0 0 0 0 0 0 0 
0 0 0 0 0 0 0 0 0 
0 0 0 0 0 0 0 0 0 
0 0 0 0 0 0 0 0 0 
0 0 0 0 0 0 0 0 0 
0 0 0 0 0 0 0 0 0 
0 0 0 0 0 0 0 0 0 
0 0 0 0 0 0 0 0 0 
0 0 0 0 0 0 0 0 0 
0 0 0 0 0 0 0 0 0 
0 0 0 0 0 0 0 0 0 
0 0 0 0 0 0 0 0 0 
0 0 0 0 0 0 0 0 0 
0 0 0 0 0 0 0 0 0 
0 0 0 0 0 0 0 0 0 
0 0 0 0 0 0 0 0 0 
0 0 0 0 0 0 0 0 0 
0 0 0 0 0 0 0 0 0 
0 0 0 0 0 0 0 0 0 
0 0 0 0 0 0 0 0 0 
0 0 0 0 0 0 0 0 0 
0 0 0 0 0 0 0 0 0 
0 0 0 0 0 0 0 0 0 
0 0 0 0 0 0 0 0 0 
0 0 0 0 0 0 0 0 0 
0 0 0 0 0 0 0 0 0 
0 0 0 0 0 0 0 0 0 
0 0 0 0 0 0 0 0 0 
0 0 0 0 0 0 0 0 0 
0 0 0 0 0 0 0 0 0 
0 0 0 0 0 0 0 0 0 
0 0 0 0 0 0 0 0 0 
0 0 0 0 0 0 0 0 0 
0 0 0 0 0 0 0 0 0 
0 0 0 0 0 0 0 0 0 
0 0 0 0 0 0 0 0 0 
0 0 0 0 0 0 0 0 0 
0 0 0 0 0 0 0 0 0 
0 0 0 0 0 0 0 0 0 
0 0 0 0 0 0 0 0 0 
0 0 0 0 0 0 0 0 0 
0 0 0 0 0 0 0 0 0 
0 0 0 0 0 0 0 0 0 
0 0 0 0 0 0 0 0 0 
0 0 0 0 0 0 0 0 0 
0 0 0 0 0 0 0 0 0 
0 0 0 0 0 0 0 0 0 
0 0 0 0 0 0 0 0 0 
0 0 0 0 0 0 0 0 0 
0 0 0 0 0 0 0 0 0 
0 0 0 0 0 0 0 0 0 
0 0 0 0 0 0 0 0 0 
0 0 0 0 0 0 0 0 0 
0 0 0 0 0 0 0 0 0 
0 0 0 0 0 0 0 0 0 
0 0 0 0 0 0 0 0 0 
0 0 0 0 0 0 0 0 0 
0 0 0 0 0 0 0 0 0 
0 0 0 0 0 0 0 0 0 
0 0 0 0 0 0 0 0 0 
0 0 0 0 0 0 0 0 0 
0 0 0 0 0 0 0 0 0 
0 0 0 0 0 0 0 0 0 
0 0 0 0 0 0 0 0 0 
0 0 0 0 0 0 0 0 0 
0 0 0 0 0 0 0 0 0 
0 0 0 0 0 0 0 0 0 
0 0 0 0 0 0 0 0 0 
0 0 0 0 0 0 0 0 0 
0 0 0 0 0 0 0 0 0 
0 0 0 0 0 0 0 0 0 
0 0 0 0 0 0 0 0 0 
0 0 0 0 0 0 0 0 0 

fx_mag_viz 1 648 double
0 0 0 0 0 0 0 0 0 
0 0 0 0 0 0 0 0 0 
0 0 0 0 0 0 0 0 0 
0 0 0 0 0 0 0 0 0 
0 0 0 0 0 0 0 0 0 
0 0 0 0 0 0 0 0 0 
0 0 0 0 0 0 0 0 0 
0 0 0 0 0 0 0 0 0 
0 0 0 0 0 0 0 0 0 
0 0 0 0 0 0 0 0 0 
0 0 0 0 0 0 0 0 0 
0 0 0 0 0 0 0 0 0 
0 0 0 0 0 0 0 0 0 
0 0 0 0 0 0 0 0 0 
0 0 0 0 0 0 0 0 0 
0 0 0 0 0 0 0 0 0 
0 0 0 0 0 0 0 0 0 
0 0 0 0 0 0 0 0 0 
0 0 0 0 0 0 0 0 0 
0 0 0 0 0 0 0 0 0 
0 0 0 0 0 0 0 0 0 
0 0 0 0 0 0 0 0 0 
0 0 0 0 0 0 0 0 0 
0 0 0 0 0 0 0 0 0 
0 0 0 0 0 0 0 0 0 
0 0 0 0 0 0 0 0 0 
0 0 0 0 0 0 0 0 0 
0 0 0 0 0 0 0 0 0 
0 0 0 0 0 0 0 0 0 
0 0 0 0 0 0 0 0 0 
0 0 0 0 0 0 0 0 0 
0 0 0 0 0 0 0 0 0 
0 0 0 0 0 0 0 0 0 
0 0 0 0 0 0 0 0 0 
0 0 0 0 0 0 0 0 0 
0 0 0 0 0 0 0 0 0 
0 0 0 0 0 0 0 0 0 
0 0 0 0 0 0 0 0 0 
0 0 0 0 0 0 0 0 0 
0 0 0 0 0 0 0 0 0 
0 0 0 0 0 0 0 0 0 
0 0 0 0 0 0 0 0 0 
0 0 0 0 0 0 0 0 0 
0 0 0 0 0 0 0 0 0 
0 0 0 0 0 0 0 0 0 
0 0 0 0 0 0 0 0 0 
0 0 0 0 0 0 0 0 0 
0 0 0 0 0 0 0 0 0 
0 0 0 0 0 0 0 0 0 
0 0 0 0 0 0 0 0 0 
0 0 0 0 0 0 0 0 0 
0 0 0 0 0 0 0 0 0 
0 0 0 0 0 0 0 0 0 
0 0 0 0 0 0 0 0 0 
0 0 0 0 0 0 0 0 0 
0 0 0 0 0 0 0 0 0 
0 0 0 0 0 0 0 0 0 
0 0 0 0 0 0 0 0 0 
0 0 0 0 0 0 0 0 0 
0 0 0 0 0 0 0 0 0 
0 0 0 0 0 0 0 0 0 
0 0 0 0 0 0 0 0 0 
0 0 0 0 0 0 0 0 0 
0 0 0 0 0 0 0 0 0 
0 0 0 0 0 0 0 0 0 
0 0 0 0 0 0 0 0 0 
0 0 0 0 0 0 0 0 0 
0 0 0 0 0 0 0 0 0 
0 0 0 0 0 0 0 0 0 
0 0 0 0 0 0 0 0 0 
0 0 0 0 0 0 0 0 0 
0 0 0 0 0 0 0 0 0 

fy_mag_viz 1 648 double
0 0 0 0 0 0 0 0 0 
0 0 0 0 0 0 0 0 0 
0 0 0 0 0 0 0 0 0 
0 0 0 0 0 0 0 0 0 
0 0 0 0 0 0 0 0 0 
0 0 0 0 0 0 0 0 0 
0 0 0 0 0 0 0 0 0 
0 0 0 0 0 0 0 0 0 
0 0 0 0 0 0 0 0 0 
0 0 0 0 0 0 0 0 0 
0 0 0 0 0 0 0 0 0 
0 0 0 0 0 0 0 0 0 
0 0 0 0 0 0 0 0 0 
0 0 0 0 0 0 0 0 0 
0 0 0 0 0 0 0 0 0 
0 0 0 0 0 0 0 0 0 
0 0 0 0 0 0 0 0 0 
0 0 0 0 0 0 0 0 0 
0 0 0 0 0 0 0 0 0 
0 0 0 0 0 0 0 0 0 
0 0 0 0 0 0 0 0 0 
0 0 0 0 0 0 0 0 0 
0 0 0 0 0 0 0 0 0 
0 0 0 0 0 0 0 0 0 
0 0 0 0 0 0 0 0 0 
0 0 0 0 0 0 0 0 0 
0 0 0 0 0 0 0 0 0 
0 0 0 0 0 0 0 0 0 
0 0 0 0 0 0 0 0 0 
0 0 0 0 0 0 0 0 0 
0 0 0 0 0 0 0 0 0 
0 0 0 0 0 0 0 0 0 
0 0 0 0 0 0 0 0 0 
0 0 0 0 0 0 0 0 0 
0 0 0 0 0 0 0 0 0 
0 0 0 0 0 0 0 0 0 
0 0 0 0 0 0 0 0 0 
0 0 0 0 0 0 0 0 0 
0 0 0 0 0 0 0 0 0 
0 0 0 0 0 0 0 0 0 
0 0 0 0 0 0 0 0 0 
0 0 0 0 0 0 0 0 0 
0 0 0 0 0 0 0 0 0 
0 0 0 0 0 0 0 0 0 
0 0 0 0 0 0 0 0 0 
0 0 0 0 0 0 0 0 0 
0 0 0 0 0 0 0 0 0 
0 0 0 0 0 0 0 0 0 
0 0 0 0 0 0 0 0 0 
0 0 0 0 0 0 0 0 0 
0 0 0 0 0 0 0 0 0 
0 0 0 0 0 0 0 0 0 
0 0 0 0 0 0 0 0 0 
0 0 0 0 0 0 0 0 0 
0 0 0 0 0 0 0 0 0 
0 0 0 0 0 0 0 0 0 
0 0 0 0 0 0 0 0 0 
0 0 0 0 0 0 0 0 0 
0 0 0 0 0 0 0 0 0 
0 0 0 0 0 0 0 0 0 
0 0 0 0 0 0 0 0 0 
0 0 0 0 0 0 0 0 0 
0 0 0 0 0 0 0 0 0 
0 0 0 0 0 0 0 0 0 
0 0 0 0 0 0 0 0 0 
0 0 0 0 0 0 0 0 0 
0 0 0 0 0 0 0 0 0 
0 0 0 0 0 0 0 0 0 
0 0 0 0 0 0 0 0 0 
0 0 0 0 0 0 0 0 0 
0 0 0 0 0 0 0 0 0 
0 0 0 0 0 0 0 0 0 

fz_mag_viz 1 648 double
0 0 0 0 0 0 0 0 0 
0 0 0 0 0 0 0 0 0 
0 0 0 0 0 0 0 0 0 
0 0 0 0 0 0 0 0 0 
0 0 0 0 0 0 0 0 0 
0 0 0 0 0 0 0 0 0 
0 0 0 0 0 0 0 0 0 
0 0 0 0 0 0 0 0 0 
0 0 0 0 0 0 0 0 0 
0 0 0 0 0 0 0 0 0 
0 0 0 0 0 0 0 0 0 
0 0 0 0 0 0 0 0 0 
0 0 0 0 0 0 0 0 0 
0 0 0 0 0 0 0 0 0 
0 0 0 0 0 0 0 0 0 
0 0 0 0 0 0 0 0 0 
0 0 0 0 0 0 0 0 0 
0 0 0 0 0 0 0 0 0 
0 0 0 0 0 0 0 0 0 
0 0 0 0 0 0 0 0 0 
0 0 0 0 0 0 0 0 0 
0 0 0 0 0 0 0 0 0 
0 0 0 0 0 0 0 0 0 
0 0 0 0 0 0 0 0 0 
0 0 0 0 0 0 0 0 0 
0 0 0 0 0 0 0 0 0 
0 0 0 0 0 0 0 0 0 
0 0 0 0 0 0 0 0 0 
0 0 0 0 0 0 0 0 0 
0 0 0 0 0 0 0 0 0 
0 0 0 0 0 0 0 0 0 
0 0 0 0 0 0 0 0 0 
0 0 0 0 0 0 0 0 0 
0 0 0 0 0 0 0 0 0 
0 0 0 0 0 0 0 0 0 
0 0 0 0 0 0 0 0 0 
0 0 0 0 0 0 0 0 0 
0 0 0 0 0 0 0 0 0 
0 0 0 0 0 0 0 0 0 
0 0 0 0 0 0 0 0 0 
0 0 0 0 0 0 0 0 0 
0 0 0 0 0 0 0 0 0 
0 0 0 0 0 0 0 0 0 
0 0 0 0 0 0 0 0 0 
0 0 0 0 0 0 0 0 0 
0 0 0 0 0 0 0 0 0 
0 0 0 0 0 0 0 0 0 
0 0 0 0 0 0 0 0 0 
0 0 0 0 0 0 0 0 0 
0 0 0 0 0 0 0 0 0 
0 0 0 0 0 0 0 0 0 
0 0 0 0 0 0 0 0 0 
0 0 0 0 0 0 0 0 0 
0 0 0 0 0 0 0 0 0 
0 0 0 0 0 0 0 0 0 
0 0 0 0 0 0 0 0 0 
0 0 0 0 0 0 0 0 0 
0 0 0 0 0 0 0 0 0 
0 0 0 0 0 0 0 0 0 
0 0 0 0 0 0 0 0 0 
0 0 0 0 0 0 0 0 0 
0 0 0 0 0 0 0 0 0 
0 0 0 0 0 0 0 0 0 
0 0 0 0 0 0 0 0 0 
0 0 0 0 0 0 0 0 0 
0 0 0 0 0 0 0 0 0 
0 0 0 0 0 0 0 0 0 
0 0 0 0 0 0 0 0 0 
0 0 0 0 0 0 0 0 0 
0 0 0 0 0 0 0 0 0 
0 0 0 0 0 0 0 0 0 
0 0 0 0 0 0 0 0 0 

B_magnitude 1 648 double
0 0 0 0 0 0 0 0 0 
0 0 0 0 0 0 0 0 0 
0 0 0 0 0 0 0 0 0 
0 0 0 0 0 0 0 0 0 
0 0 0 0 0 0 0 0 0 
0 0 0 0 0 0 0 0 0 
0 0 0 0 0 0 0 0 0 
0 0 0 0 0 0 0 0 0 
0 0 0 0 0 0 0 0 0 
0 0 0 0 0 0 0 0 0 
0 0 0 0 0 0 0 0 0 
0 0 0 0 0 0 0 0 0 
0 0 0 0 0 0 0 0 0 
0 0 0 0 0 0 0 0 0 
0 0 0 0 0 0 0 0 0 
0 0 0 0 0 0 0 0 0 
0 0 0 0 0 0 0 0 0 
0 0 0 0 0 0 0 0 0 
0 0 0 0 0 0 0 0 0 
0 0 0 0 0 0 0 0 0 
0 0 0 0 0 0 0 0 0 
0 0 0 0 0 0 0 0 0 
0 0 0 0 0 0 0 0 0 
0 0 0 0 0 0 0 0 0 
0 0 0 0 0 0 0 0 0 
0 0 0 0 0 0 0 0 0 
0 0 0 0 0 0 0 0 0 
0 0 0 0 0 0 0 0 0 
0 0 0 0 0 0 0 0 0 
0 0 0 0 0 0 0 0 0 
0 0 0 0 0 0 0 0 0 
0 0 0 0 0 0 0 0 0 
0 0 0 0 0 0 0 0 0 
0 0 0 0 0 0 0 0 0 
0 0 0 0 0 0 0 0 0 
0 0 0 0 0 0 0 0 0 
0 0 0 0 0 0 0 0 0 
0 0 0 0 0 0 0 0 0 
0 0 0 0 0 0 0 0 0 
0 0 0 0 0 0 0 0 0 
0 0 0 0 0 0 0 0 0 
0 0 0 0 0 0 0 0 0 
0 0 0 0 0 0 0 0 0 
0 0 0 0 0 0 0 0 0 
0 0 0 0 0 0 0 0 0 
0 0 0 0 0 0 0 0 0 
0 0 0 0 0 0 0 0 0 
0 0 0 0 0 0 0 0 0 
0 0 0 0 0 0 0 0 0 
0 0 0 0 0 0 0 0 0 
0 0 0 0 0 0 0 0 0 
0 0 0 0 0 0 0 0 0 
0 0 0 0 0 0 0 0 0 
0 0 0 0 0 0 0 0 0 
0 0 0 0 0 0 0 0 0 
0 0 0 0 0 0 0 0 0 
0 0 0 0 0 0 0 0 0 
0 0 0 0 0 0 0 0 0 
0 0 0 0 0 0 0 0 0 
0 0 0 0 0 0 0 0 0 
0 0 0 0 0 0 0 0 0 
0 0 0 0 0 0 0 0 0 
0 0 0 0 0 0 0 0 0 
0 0 0 0 0 0 0 0 0 
0 0 0 0 0 0 0 0 0 
0 0 0 0 0 0 0 0 0 
0 0 0 0 0 0 0 0 0 
0 0 0 0 0 0 0 0 0 
0 0 0 0 0 0 0 0 0 
0 0 0 0 0 0 0 0 0 
0 0 0 0 0 0 0 0 0 
0 0 0 0 0 0 0 0 0 

B_gradient_mag 1 648 double
0 0 0 0 0 0 0 0 0 
0 0 0 0 0 0 0 0 0 
0 0 0 0 0 0 0 0 0 
0 0 0 0 0 0 0 0 0 
0 0 0 0 0 0 0 0 0 
0 0 0 0 0 0 0 0 0 
0 0 0 0 0 0 0 0 0 
0 0 0 0 0 0 0 0 0 
0 0 0 0 0 0 0 0 0 
0 0 0 0 0 0 0 0 0 
0 0 0 0 0 0 0 0 0 
0 0 0 0 0 0 0 0 0 
0 0 0 0 0 0 0 0 0 
0 0 0 0 0 0 0 0 0 
0 0 0 0 0 0 0 0 0 
0 0 0 0 0 0 0 0 0 
0 0 0 0 0 0 0 0 0 
0 0 0 0 0 0 0 0 0 
0 0 0 0 0 0 0 0 0 
0 0 0 0 0 0 0 0 0 
0 0 0 0 0 0 0 0 0 
0 0 0 0 0 0 0 0 0 
0 0 0 0 0 0 0 0 0 
0 0 0 0 0 0 0 0 0 
0 0 0 0 0 0 0 0 0 
0 0 0 0 0 0 0 0 0 
0 0 0 0 0 0 0 0 0 
0 0 0 0 0 0 0 0 0 
0 0 0 0 0 0 0 0 0 
0 0 0 0 0 0 0 0 0 
0 0 0 0 0 0 0 0 0 
0 0 0 0 0 0 0 0 0 
0 0 0 0 0 0 0 0 0 
0 0 0 0 0 0 0 0 0 
0 0 0 0 0 0 0 0 0 
0 0 0 0 0 0 0 0 0 
0 0 0 0 0 0 0 0 0 
0 0 0 0 0 0 0 0 0 
0 0 0 0 0 0 0 0 0 
0 0 0 0 0 0 0 0 0 
0 0 0 0 0 0 0 0 0 
0 0 0 0 0 0 0 0 0 
0 0 0 0 0 0 0 0 0 
0 0 0 0 0 0 0 0 0 
0 0 0 0 0 0 0 0 0 
0 0 0 0 0 0 0 0 0 
0 0 0 0 0 0 0 0 0 
0 0 0 0 0 0 0 0 0 
0 0 0 0 0 0 0 0 0 
0 0 0 0 0 0 0 0 0 
0 0 0 0 0 0 0 0 0 
0 0 0 0 0 0 0 0 0 
0 0 0 0 0 0 0 0 0 
0 0 0 0 0 0 0 0 0 
0 0 0 0 0 0 0 0 0 
0 0 0 0 0 0 0 0 0 
0 0 0 0 0 0 0 0 0 
0 0 0 0 0 0 0 0 0 
0 0 0 0 0 0 0 0 0 
0 0 0 0 0 0 0 0 0 
0 0 0 0 0 0 0 0 0 
0 0 0 0 0 0 0 0 0 
0 0 0 0 0 0 0 0 0 
0 0 0 0 0 0 0 0 0 
0 0 0 0 0 0 0 0 0 
0 0 0 0 0 0 0 0 0 
0 0 0 0 0 0 0 0 0 
0 0 0 0 0 0 0 0 0 
0 0 0 0 0 0 0 0 0 
0 0 0 0 0 0 0 0 0 
0 0 0 0 0 0 0 0 0 
0 0 0 0 0 0 0 0 0 

