# vtk DataFile Version 5.1
Generated by LIGGGHTS
ASCII
DATASET POLYDATA
POINTS 610 float
-0.0308094 -0.0435702 0.0655431 -0.0112192 -0.0104501 0.0658856 0.00743742 -0.00926665 0.0657831 
-0.00433253 -0.00676057 0.0655925 -0.0179231 -0.00300678 0.0655379 -0.042922 -0.0404536 0.0663643 
0.00798734 -0.0367051 0.067403 0.0280204 -0.0311414 0.0664224 0.000892701 -0.0263701 0.0673219 
0.013874 -0.00963069 0.0668657 -0.0129003 -0.00574839 0.0666444 0.021602 0.00540593 0.0671152 
0.0221269 0.00728552 0.0673428 -0.0214351 0.00957734 0.0663617 -0.0310202 0.0131063 0.0669618 
0.0364634 0.0310238 0.0668929 -0.0264781 0.032823 0.0665907 0.0297434 0.0373158 0.0666834 
-0.0428902 -0.0449088 0.0676756 0.0308099 -0.0378456 0.0685079 -0.0257955 -0.0157834 0.0680697 
0.0384376 0.000848974 0.0679649 0.0449494 0.00392273 0.0683444 -0.022709 0.0198803 0.0678176 
0.03506 0.0228899 0.0686451 0.0181332 0.0246356 0.0687193 0.0167463 0.0251763 0.0676402 
-0.0390027 0.0421086 0.0678329 0.0333162 -0.0342631 0.0688165 -0.00444012 -0.0151621 0.0695862 
-0.0117656 -0.0138394 0.0699639 0.0109664 -0.00760095 0.0694236 0.00937085 -0.00418454 0.0691636 
0.0180565 -0.00487531 0.0692564 -0.0141425 -0.00311887 0.0696423 0.0248423 0.0143007 0.0699781 
0.0123926 0.0218243 0.0698001 -0.0105296 -0.0314142 0.0701704 -0.0100897 -0.0180162 0.070276 
0.00689113 -0.0107816 0.0711846 -0.0198564 -0.00683511 0.0703932 0.0246705 0.0064451 0.0706752 
-0.0426568 0.00723228 0.0707429 0.0212596 0.00979192 0.0706797 0.0398091 0.011618 0.0712828 
0.0143092 0.0139794 0.0703942 -0.0335565 -0.0442122 0.0722404 0.0156715 -0.0391733 0.0717874 
0.033456 -0.0256735 0.07196 0.039775 -0.0211058 0.0724273 -0.0388614 -0.0136303 0.07255 
0.0350526 -0.0102353 0.0724308 0.021323 -0.00444137 0.0714383 0.0292006 0.00433004 0.0721429 
0.0340899 0.00882812 0.071697 -0.00782209 0.0241861 0.0724976 0.0307708 0.0242663 0.071399 
-0.0200898 0.0311527 0.0716108 -0.0073504 0.0318329 0.0721426 -0.0248652 -0.040212 0.0735017 
-0.00302782 -0.0385948 0.073212 -0.0266532 -0.0301716 0.0727122 0.00517921 0.0169249 0.0734912 
-0.0360536 0.0173104 0.0728656 0.0090081 0.0191686 0.0731363 -0.0409258 0.0305044 0.0737291 
0.01325 0.0319187 0.0738962 -0.00674967 -0.0416523 0.0750402 0.040047 -0.0404588 0.0740461 
0.00594186 -0.0351889 0.0751799 0.0286804 -0.00919085 0.0750821 -0.0260142 0.00017485 0.0746326 
8.23501e-07 0.0138406 0.0746009 0.0215224 0.0171285 0.0744189 -0.0153727 0.020636 0.0748572 
0.000162142 0.0251126 0.0740636 -0.00563177 0.0268155 0.0742182 0.0038092 0.0311583 0.0740929 
0.0165329 0.0385374 0.0740819 0.00577088 -0.0287415 0.0762565 -0.0408326 -0.0234295 0.0760854 
-0.0108877 -0.0188832 0.0760168 0.00156248 -0.0194187 0.0753785 0.0030191 -0.0179247 0.0756898 
-0.0269092 -0.0125643 0.0765027 0.00417698 0.0024455 0.0765267 0.0188762 0.00181355 0.0756701 
0.0305447 0.00486582 0.0753681 -0.0287984 0.00559412 0.0757198 -0.0282566 0.021284 0.075637 
0.0251972 0.0393087 0.0759563 -0.0334706 -0.0396012 0.0773911 0.0336491 -0.0197505 0.0774468 
-0.0339565 -0.0167518 0.0774536 -0.0214415 -0.007536 0.0771674 0.0287781 0.014071 0.0769149 
-0.0313244 0.0314049 0.0771599 -0.0240719 -0.0268296 0.0788978 -0.0426154 -0.0165053 0.0785737 
0.0223879 -0.0163393 0.0785811 -0.00702036 -0.00121172 0.0785624 -0.00783961 -0.000387029 0.0789639 
-0.00967086 0.00179773 0.0784789 -0.034865 0.0142961 0.0782226 -0.023041 0.0197144 0.0782429 
-0.0386663 0.0253433 0.0790025 -0.041477 0.0364172 0.0779779 0.0221021 0.0401282 0.0788561 
0.000425919 -0.0415728 0.0802474 0.0436787 -0.0219137 0.0799108 0.0277003 -0.0107969 0.0797599 
0.0131353 -0.00504642 0.080267 -0.0394276 0.0109375 0.0805023 -0.0267569 0.0263983 0.0794405 
0.0414821 -0.0410789 0.080655 -0.0232422 -0.0321576 0.0805681 0.0404767 -0.0183151 0.0807629 
0.0251729 -0.00985964 0.0815652 0.0228765 0.00606581 0.0809074 0.0399323 0.0117688 0.0811672 
0.0362273 0.0220011 0.0808674 -0.00739359 0.0259593 0.0812873 0.0191509 0.0299648 0.0811365 
0.0444958 0.0309554 0.0804841 0.00284552 0.0345861 0.0808098 -0.00883869 0.0381834 0.0812087 
-0.0112537 0.0395394 0.081525 -0.0205282 0.0432397 0.081628 -0.0439713 -0.0357399 0.0819923 
0.0244271 -0.0334586 0.082631 0.027474 -0.0338615 0.0824079 0.0268369 -0.0315202 0.0826821 
-0.0448384 -0.0296834 0.0823563 0.00623721 -0.0211799 0.082269 -0.0329121 -0.0139828 0.0827128 
-0.0281455 -0.00127675 0.0820883 0.0011249 0.00615697 0.0823143 0.030759 0.00580352 0.0819523 
0.00395304 0.0187088 0.0817731 -0.0357156 0.0282031 0.0818026 0.0163992 0.0415262 0.0826963 
-0.044759 -0.0437614 0.0833108 -0.0370475 -0.0370945 0.0837432 0.00802514 -0.031483 0.0836263 
0.032808 -0.025967 0.0841791 0.0268005 -0.0146468 0.0833749 0.0176437 -0.0119747 0.0830386 
-0.038829 -0.00978443 0.0842313 -0.0304645 -0.00701594 0.0842302 -0.042786 -0.00359954 0.0838491 
-0.0170872 0.00564833 0.0831666 -0.00279986 0.0127222 0.0836583 0.0418335 0.0161761 0.0838537 
0.00546842 0.0177814 0.0837978 0.00128112 0.0217131 0.0838784 0.00805094 0.0422278 0.0839031 
0.0244803 -0.0401788 0.0849759 0.00879071 -0.0344865 0.0855914 -0.0427235 -0.0332389 0.0849376 
0.023158 -0.0340207 0.0845322 -0.0317771 -0.0175651 0.0844352 -0.040885 -0.00406647 0.0856334 
0.039455 -0.000236508 0.0855039 0.0142017 0.0079404 0.0850523 0.0202046 0.00840095 0.0853587 
-0.0408092 0.00981999 0.0852358 0.014866 0.0127598 0.0845476 -0.0214239 0.0189608 0.0844831 
0.0226957 0.0260881 0.0844227 0.00953871 0.0271324 0.0854371 -0.00435696 0.0325462 0.0844427 
-0.027409 -0.0433703 0.0857679 -0.00670669 -0.0394183 0.0865505 -0.0262624 -0.032473 0.0861655 
-0.00580099 -0.0272788 0.0856975 -0.00553214 -0.00871323 0.08663 0.0129906 -0.00677597 0.0870303 
0.0147261 0.00139147 0.0864096 -0.0392616 0.00972366 0.0858449 0.0226738 0.0181095 0.0861458 
0.0146363 0.0223077 0.0862494 0.0281745 0.039089 0.0866153 -0.0312382 0.0393096 0.0865524 
0.0399235 0.0434757 0.0863504 -0.00340304 -0.0448428 0.0873154 -0.0338231 -0.0250135 0.0873263 
0.0363266 -0.0194176 0.0875722 0.0249316 -0.014475 0.0882198 -0.0222502 -0.00974669 0.0871257 
-0.037077 0.00611456 0.0870859 -0.0101256 0.00978275 0.0879266 -0.0429188 0.0135204 0.0871299 
-0.0431379 0.0208085 0.0877748 -0.0114472 0.026715 0.0876033 0.000822496 -0.0363122 0.0894972 
-0.00586029 -0.0338127 0.0896836 -0.0323128 -0.0219837 0.0892198 -0.0204621 -0.0172006 0.0883207 
0.0252581 -0.0163235 0.0894122 0.0198229 -0.0156851 0.0891248 -0.0196799 -0.00931279 0.0888032 
-0.0135858 -0.00672635 0.0890096 0.032558 0.00153523 0.0890173 -0.00723413 0.00605583 0.0889998 
0.0336082 0.013194 0.0894418 -0.0349287 0.0230684 0.0887157 -0.0375088 0.0393741 0.0894338 
-0.0346971 -0.0446764 0.0907742 0.0248068 -0.0428986 0.0906188 0.0418836 -0.0421436 0.0902662 
-0.0349861 -0.0412827 0.0898317 0.0238162 -0.0409762 0.0903269 0.0433459 -0.0353282 0.089805 
0.0346336 -0.0325969 0.090067 -0.0240024 -0.0280603 0.0895789 0.0306875 -0.0259396 0.0905627 
0.0362421 0.00170773 0.0900836 0.0404406 0.00462082 0.0902002 0.0197977 0.00963841 0.0906848 
0.0388885 0.0193682 0.0900825 0.0238959 0.0383247 0.0904876 -0.0248654 -0.0427111 0.0917374 
-0.018434 -0.0405477 0.0916067 -0.0108246 -0.0388127 0.0920098 0.0397687 -0.0374633 0.0916358 
0.03382 -0.0268981 0.0914564 0.00538025 -0.0241403 0.0910559 -0.00747582 -0.00609419 0.0920713 
0.0293019 -0.00298432 0.0915207 -0.0416237 0.00110806 0.0908988 0.0261916 0.0119357 0.0915148 
-0.00307286 0.0144526 0.0918471 0.00976298 0.0163696 0.0909059 0.0122157 0.0191756 0.0914687 
-0.0127911 0.0299546 0.0909483 0.0311732 0.0371467 0.092118 0.0424299 -0.0409921 0.0924548 
0.0102479 -0.024092 0.0925921 -0.0225401 -0.0213878 0.0925075 -0.00827992 -0.020547 0.0930924 
-0.0296942 -0.0196153 0.0928898 0.0322358 -0.0130621 0.0924304 0.00523139 -0.00599236 0.0931499 
-0.000610522 -0.00103491 0.0931477 0.0128044 0.0127337 0.0922543 -0.0421793 0.0225172 0.0928027 
-0.0190887 0.0269029 0.0931881 -0.0376379 0.0294143 0.0931669 0.00372347 0.0304157 0.0932742 
-0.00973825 0.0391656 0.0926789 0.0145521 -0.0432303 0.0944311 0.0338942 -0.0410147 0.0936403 
-0.0406141 -0.0405112 0.0940196 0.0403752 -0.0143085 0.0936054 0.0290986 -0.000251763 0.0945704 
0.0407777 0.000744206 0.0940767 0.0283387 0.00890506 0.0937371 0.00861143 0.0123591 0.0945373 
0.0121458 0.0151918 0.0943329 0.00264144 0.0247174 0.0945986 -0.0245447 0.0378537 0.0938356 
0.0222253 0.0407186 0.0935152 -0.0181988 0.0434549 0.0934926 0.0352379 0.0438995 0.0947079 
0.0348044 -0.042095 0.0954107 -0.0376897 -0.0314333 0.0958583 -0.0350278 -0.0224863 0.094854 
0.0394323 -0.021923 0.0958133 0.00548761 -0.0197918 0.0949563 0.0313953 -0.00974065 0.0947667 
0.0406218 -0.0100941 0.0949189 -0.0261639 0.00337815 0.095585 0.0323225 0.00436429 0.0959047 
0.0101693 0.00555192 0.0953579 0.0250346 0.00641518 0.0954569 -0.00867948 0.0139924 0.0955918 
-0.0196462 0.0155185 0.0948038 0.00519606 0.0301696 0.0956901 0.00390562 0.0317225 0.0955046 
0.00317215 0.0343196 0.0952196 -0.0168273 -0.0360331 0.0961329 -0.0263426 -0.0292431 0.0964025 
0.0233461 -0.0214624 0.0965085 0.0184681 -0.0172117 0.096958 0.0161928 -0.00760918 0.0971671 
-0.032208 0.0306075 0.096262 -0.0108954 0.0304 0.0969456 0.0231674 0.0340949 0.0970163 
-0.0160452 -0.0323821 0.0984206 -0.0430551 -0.0267583 0.0974415 -0.0405162 -0.0161033 0.0977007 
-0.0186412 -0.0134353 0.097451 -0.0150798 -0.00698339 0.098305 -0.0120059 -0.00345367 0.098235 
-0.00896956 -0.00131708 0.0980456 0.0441199 0.0136981 0.0984498 0.000954082 0.0152563 0.0977773 
0.0405446 0.0433429 0.098076 0.0181024 -0.0433049 0.0988444 0.0131812 -0.0427533 0.0990527 
0.00985621 -0.0367022 0.0998403 0.0449741 -0.0303513 0.099744 -0.00446216 -0.0255279 0.0988953 
-0.0327621 -0.0121928 0.0991367 -0.0343844 -0.0078404 0.0998223 0.0387156 -0.00624884 0.0993676 
0.00975646 -0.00313231 0.0990332 0.0116524 0.00206193 0.098714 0.0311878 0.014057 0.0996011 
0.00126512 0.0228658 0.0996229 0.026696 0.03017 0.0997313 0.0193546 0.0324404 0.0992037 
-0.00585061 0.0388609 0.0992364 0.0352701 0.0439749 0.0990823 0.00558373 -0.0242787 0.100919 
-0.0127621 -0.0231756 0.101003 -0.0291427 -0.0219343 0.101051 0.038292 -0.016257 0.100749 
0.0323803 -0.0150629 0.100416 -0.00254943 -0.00825679 0.100916 -0.0344646 -0.00725539 0.10124 
-0.0325416 0.00283857 0.100765 0.00243665 0.00282786 0.100767 0.0110904 0.00657535 0.100702 
-0.00841171 0.0143034 0.100525 0.0407412 0.0174253 0.10018 -0.0122989 0.0222019 0.100501 
0.021223 0.0244832 0.101128 0.0438582 0.0244724 0.100687 0.0395905 0.0272142 0.10122 
0.0166138 -0.0412108 0.101841 -0.0233761 -0.031813 0.101611 -0.0220587 -0.0306349 0.10135 
-0.0414327 -0.0290659 0.101364 0.0346338 -0.0290927 0.101927 0.0240101 -0.0228809 0.102085 
0.035159 -0.023363 0.101287 -0.0147645 -0.0165889 0.102451 0.0334462 -0.00930086 0.102484 
-0.0211095 -0.00770044 0.101702 0.0180458 -0.00470109 0.10131 -0.0107529 -0.00365687 0.101434 
-0.00941413 -0.00330341 0.101894 -0.0283489 -0.000417126 0.101737 -0.025141 0.00447188 0.101374 
0.0396593 0.013993 0.101835 0.0398418 0.0217469 0.101988 0.0258603 0.0235991 0.101764 
-0.0368667 0.0306348 0.102466 0.0372507 0.0318783 0.101755 -0.00196307 0.0366495 0.101426 
-0.0309963 -0.0355024 0.10283 0.0392765 -0.0300093 0.103165 -0.00863888 -0.0237376 0.103533 
0.0262592 -0.0217201 0.103449 0.0404774 -0.00688032 0.10383 0.0140084 -6.89735e-05 0.10267 
-0.00229178 0.0020129 0.102863 -0.00552594 0.00555795 0.102867 -0.009285 0.00693532 0.103499 
-0.0105861 0.00898083 0.102672 0.0211953 0.00966092 0.102914 -0.0148746 0.0223253 0.102939 
-0.0267196 0.0236159 0.103555 -0.0152062 0.0294088 0.103216 -0.0337286 0.0337045 0.103549 
0.0294278 0.0431452 0.102737 0.00528787 0.0432844 0.102852 -0.00396528 -0.0444182 0.104124 
0.0195053 -0.043722 0.104967 -0.0386911 -0.0311434 0.103954 0.0272875 -0.0186725 0.104813 
0.0223025 -0.0112244 0.104287 -0.00401126 -0.00720159 0.104052 -0.0408474 -0.00214648 0.104937 
0.0168839 -0.00210364 0.104964 -0.0153419 -0.00108619 0.105128 0.00314898 0.00491531 0.104311 
-0.0365733 0.0119208 0.104138 0.00243185 0.0120975 0.104336 0.018015 0.0183735 0.104192 
0.00834461 0.0278725 0.104358 0.0191028 0.0315895 0.104798 0.00727395 0.0332762 0.104765 
-0.039126 0.0399637 0.104551 0.00201585 0.0404036 0.104265 -0.0136468 -0.0412372 0.106238 
-0.0161578 -0.0337243 0.106256 0.0155599 -0.0240909 0.105304 -0.0210835 -0.0209207 0.105893 
-0.0033641 -0.0204173 0.106038 0.0218308 -0.0192565 0.10624 0.0200271 -0.00425623 0.105801 
-0.0376932 -0.000132947 0.105871 0.0260144 0.00429017 0.105439 -0.00598638 0.00689803 0.105656 
-0.0406313 0.0295913 0.106304 -0.0425374 0.0333781 0.106083 0.0152528 0.033152 0.106453 
0.00888594 0.0360502 0.106167 0.0339316 -0.041715 0.10772 0.0054016 -0.025334 0.107446 
0.0350196 -0.0250011 0.10693 0.00179778 -0.0247441 0.106487 0.0144468 -0.013247 0.107531 
-0.00528066 -0.0121118 0.106987 0.0242571 -0.0100823 0.10646 -0.0198668 -0.00211416 0.107032 
0.0183943 0.00266245 0.107324 -0.0429246 0.00657681 0.106491 0.00533928 0.00728904 0.106784 
-0.0128609 0.0265935 0.106559 0.0278529 0.0342296 0.107227 0.0030545 0.0369981 0.107241 
-0.0133259 0.0414802 0.107105 -0.0177803 -0.0340186 0.108298 0.0153133 -0.0285941 0.108161 
0.0164647 -0.0275391 0.108576 0.0347572 -0.0260666 0.108046 -0.0253129 -0.0039775 0.10889 
0.00664535 -0.00164817 0.108336 0.00265626 0.00371614 0.107957 -0.0231109 0.0157017 0.108169 
0.00742845 0.0199749 0.108031 -0.0324762 0.0230005 0.108828 0.0416479 -0.0439733 0.109506 
0.0406519 -0.0427256 0.109754 0.0077947 -0.0345433 0.10936 -0.0396817 -0.0304797 0.110283 
-0.0432264 -0.0264101 0.109714 0.0204492 -0.0194639 0.109143 -0.0341597 -0.0122829 0.10925 
-0.0207563 -0.0111167 0.110174 -0.0233311 0.00384073 0.109635 0.0332757 0.00539899 0.109365 
-0.019893 0.00878872 0.110204 -0.00071691 0.0108932 0.110285 0.00153271 0.0201988 0.109281 
-0.0287332 0.0215601 0.109546 -0.0295899 0.0232577 0.109897 -0.0213481 0.0319153 0.110329 
-0.0422696 0.0340949 0.109626 -0.0177429 -0.0346724 0.111394 0.00231692 -0.0294453 0.110593 
-0.0346801 -0.0287009 0.111293 0.0115492 -0.0227248 0.111454 0.0132043 -0.01541 0.111542 
-0.0279963 -0.0141356 0.11086 -0.00474481 -0.00600267 0.110715 0.0189244 0.00254502 0.111642 
0.00474506 0.0103043 0.11145 0.0234497 0.00978487 0.111644 0.0323341 0.0191974 0.110993 
0.0397191 0.0283771 0.110961 0.0380057 0.0324307 0.110932 0.00367032 0.0371324 0.111468 
0.00513794 0.0433856 0.111359 -0.0390775 0.0447256 0.110466 -0.0273176 -0.0361067 0.111866 
0.0195647 -0.0366528 0.112897 0.0253763 -0.011051 0.112489 0.0352883 -0.0103067 0.111961 
0.0448793 -0.00396119 0.111725 -0.0406381 0.00555966 0.112138 0.0358407 0.00533501 0.112541 
-0.0408306 0.00999374 0.112061 0.027557 0.009967 0.112403 -0.00808524 0.0113378 0.111767 
-0.0350204 0.0121089 0.111892 0.012585 0.0155082 0.112481 -0.0408838 0.0159645 0.112343 
-0.0122189 0.0175978 0.112451 0.0337272 0.0324898 0.112483 -0.00647711 0.0391566 0.111956 
0.0114086 0.0440135 0.112383 0.0171919 0.0449185 0.112065 0.00849583 -0.0405939 0.113957 
-0.0195638 -0.0385913 0.1132 0.0325128 -0.03812 0.113214 0.0412685 -0.0295104 0.11394 
-0.0164034 -0.0216001 0.113974 -0.0328213 -0.0176588 0.114007 -0.0183202 -0.0175475 0.113406 
0.0282033 -0.0178095 0.11399 0.0414834 -0.0181367 0.114173 -0.015814 -0.0152491 0.114118 
-0.0137512 0.00384646 0.113764 -0.0403489 0.00598291 0.113703 -0.0442311 0.00821601 0.113157 
-0.0371624 0.011326 0.113957 0.00757299 0.0192258 0.114163 0.0434247 0.0295768 0.113327 
0.0040127 0.0314243 0.114118 0.0211706 0.0445491 0.113572 -0.0389435 -0.0425966 0.115142 
-0.0408642 -0.0154151 0.114401 0.0375745 -0.0151367 0.114277 0.00886689 -0.0141191 0.115533 
-0.0131355 0.00164571 0.115125 0.0324887 0.00836074 0.114807 0.012949 0.0143048 0.115515 
0.0350116 0.0207306 0.115047 0.0170579 0.0421878 0.115469 -0.0169239 -0.0402939 0.116103 
0.0355384 -0.0354155 0.116856 0.043014 -0.0343178 0.116481 -0.0210092 -0.0320472 0.116779 
-0.0139777 -0.0223984 0.116258 -0.0207996 -0.0190456 0.115557 -0.0253401 -0.0103599 0.115822 
0.0420414 -0.00101026 0.11584 0.00789931 0.0136568 0.115585 -0.00443291 0.0160613 0.116679 
-0.0436572 0.0238848 0.116208 -0.0407273 0.0358476 0.116105 -0.00161929 -0.0353994 0.117442 
0.023019 -0.0293484 0.116997 -0.0401314 -0.0280847 0.116949 0.0210005 -0.0239559 0.117154 
-0.0329608 -0.0218045 0.11723 0.0323804 -0.0132471 0.117689 -0.027449 0.00511055 0.117502 
-0.01547 0.00642247 0.11709 -0.0287818 0.014969 0.117802 -0.0363159 0.0185996 0.117832 
-0.0214233 0.0285543 0.117164 -0.00750544 0.0361316 0.117809 -0.0317519 -0.0446953 0.11921 
-0.0289295 -0.0389067 0.11845 -0.0179089 -0.0346335 0.118741 -8.23525e-05 -0.034098 0.118973 
0.0403097 -0.0347888 0.118238 -0.00682403 -0.0314098 0.119359 -0.0336946 -0.0248459 0.119346 
0.0134129 -0.0192809 0.118949 -0.0420316 -0.0145538 0.119201 -0.00710141 -0.0133745 0.119082 
0.0154702 -0.00154679 0.118677 0.00978397 0.00922321 0.118527 0.0440772 0.0154938 0.118601 
-0.0286532 0.0159811 0.118598 -0.00317984 0.0164631 0.119336 0.0256029 0.0175394 0.118931 
-0.00472634 0.0344449 0.119178 0.0262096 -0.0449372 0.120163 0.0156293 -0.0283842 0.120407 
0.0296492 -0.015918 0.119653 -0.0449336 -0.00957357 0.119842 -0.024842 -0.00884532 0.120415 
-0.0332593 0.000859011 0.120425 -0.00831541 0.0129665 0.120708 -0.0161548 0.0159009 0.120163 
0.00976854 0.0197772 0.120049 -0.0132251 0.0252506 0.119749 -0.0260391 0.0304395 0.120448 
-0.0359241 0.0337864 0.120497 0.010226 -0.0308634 0.121661 0.0109547 -0.0235646 0.121741 
0.0347312 -0.012978 0.120923 0.0218314 -0.00971151 0.121256 0.00127443 -0.000618905 0.120876 
0.00418285 0.0112423 0.121721 -0.0436896 0.0195853 0.121907 -0.0138035 0.0240512 0.120984 
0.0132394 0.0345575 0.120993 -0.0190394 0.0446837 0.12149 0.0201641 -0.0426709 0.122164 
-0.0234086 -0.038644 0.122501 0.0307351 -0.0355434 0.123297 -0.0313057 -0.0141988 0.122772 
-0.042331 -0.00792816 0.123161 -0.0101373 -0.00698039 0.122521 -0.00720807 -0.00608605 0.12333 
0.0164577 0.0353116 0.123172 0.0147823 -0.0446949 0.124389 -0.0225361 -0.0441701 0.123683 
-0.038621 -0.0229432 0.124202 0.00357123 -0.00830953 0.124525 0.0127657 -0.00746761 0.123458 
0.0386193 -0.00496685 0.123589 -0.0395569 -0.00227866 0.123825 -0.0349081 0.00917553 0.124201 
-0.0219587 0.0304934 0.12358 -0.0379532 0.0399341 0.123829 -0.00785852 0.041878 0.124005 
0.0430506 0.0422314 0.124315 -0.00338111 -0.0363358 0.124793 -0.0136128 -0.00979682 0.125383 
0.023953 0.00820576 0.125351 -0.0193355 0.018129 0.125228 -0.0102477 0.0267602 0.125924 
-0.014478 0.0275162 0.125108 0.0214431 0.0335886 0.125112 0.0133448 0.00646544 0.126317 
-0.0296003 0.0277025 0.12727 -0.0197415 0.0344175 0.12698 -0.0281804 0.0418824 0.127202 
0.0320014 0.00756294 0.128632 -0.0437633 0.0406561 0.127936 -0.0419519 -0.0259749 0.129421 
-0.0328109 -0.0226975 0.129948 0.0302919 -0.0148257 0.130215 0.0439232 0.0371117 0.130343 
0.0131273 0.040817 0.13045 0.0282359 -0.00877456 0.133934 -0.0170112 0.0231088 0.135914 
-0.0386256 -0.00983966 0.137552 -0.0356048 -0.000104637 0.136769 -0.0245993 0.0193658 0.137155 
0.0419483 -0.0348097 0.138483 
VERTICES 611 610
OFFSETS vtktypeint64
0 1 2 3 4 5 6 7 8 
9 10 11 12 13 14 15 16 17 
18 19 20 21 22 23 24 25 26 
27 28 29 30 31 32 33 34 35 
36 37 38 39 40 41 42 43 44 
45 46 47 48 49 50 51 52 53 
54 55 56 57 58 59 60 61 62 
63 64 65 66 67 68 69 70 71 
72 73 74 75 76 77 78 79 80 
81 82 83 84 85 86 87 88 89 
90 91 92 93 94 95 96 97 98 
99 100 101 102 103 104 105 106 107 
108 109 110 111 112 113 114 115 116 
117 118 119 120 121 122 123 124 125 
126 127 128 129 130 131 132 133 134 
135 136 137 138 139 140 141 142 143 
144 145 146 147 148 149 150 151 152 
153 154 155 156 157 158 159 160 161 
162 163 164 165 166 167 168 169 170 
171 172 173 174 175 176 177 178 179 
180 181 182 183 184 185 186 187 188 
189 190 191 192 193 194 195 196 197 
198 199 200 201 202 203 204 205 206 
207 208 209 210 211 212 213 214 215 
216 217 218 219 220 221 222 223 224 
225 226 227 228 229 230 231 232 233 
234 235 236 237 238 239 240 241 242 
243 244 245 246 247 248 249 250 251 
252 253 254 255 256 257 258 259 260 
261 262 263 264 265 266 267 268 269 
270 271 272 273 274 275 276 277 278 
279 280 281 282 283 284 285 286 287 
288 289 290 291 292 293 294 295 296 
297 298 299 300 301 302 303 304 305 
306 307 308 309 310 311 312 313 314 
315 316 317 318 319 320 321 322 323 
324 325 326 327 328 329 330 331 332 
333 334 335 336 337 338 339 340 341 
342 343 344 345 346 347 348 349 350 
351 352 353 354 355 356 357 358 359 
360 361 362 363 364 365 366 367 368 
369 370 371 372 373 374 375 376 377 
378 379 380 381 382 383 384 385 386 
387 388 389 390 391 392 393 394 395 
396 397 398 399 400 401 402 403 404 
405 406 407 408 409 410 411 412 413 
414 415 416 417 418 419 420 421 422 
423 424 425 426 427 428 429 430 431 
432 433 434 435 436 437 438 439 440 
441 442 443 444 445 446 447 448 449 
450 451 452 453 454 455 456 457 458 
459 460 461 462 463 464 465 466 467 
468 469 470 471 472 473 474 475 476 
477 478 479 480 481 482 483 484 485 
486 487 488 489 490 491 492 493 494 
495 496 497 498 499 500 501 502 503 
504 505 506 507 508 509 510 511 512 
513 514 515 516 517 518 519 520 521 
522 523 524 525 526 527 528 529 530 
531 532 533 534 535 536 537 538 539 
540 541 542 543 544 545 546 547 548 
549 550 551 552 553 554 555 556 557 
558 559 560 561 562 563 564 565 566 
567 568 569 570 571 572 573 574 575 
576 577 578 579 580 581 582 583 584 
585 586 587 588 589 590 591 592 593 
594 595 596 597 598 599 600 601 602 
603 604 605 606 607 608 609 610 
CONNECTIVITY vtktypeint64
0 1 2 3 4 5 6 7 8 
9 10 11 12 13 14 15 16 17 
18 19 20 21 22 23 24 25 26 
27 28 29 30 31 32 33 34 35 
36 37 38 39 40 41 42 43 44 
45 46 47 48 49 50 51 52 53 
54 55 56 57 58 59 60 61 62 
63 64 65 66 67 68 69 70 71 
72 73 74 75 76 77 78 79 80 
81 82 83 84 85 86 87 88 89 
90 91 92 93 94 95 96 97 98 
99 100 101 102 103 104 105 106 107 
108 109 110 111 112 113 114 115 116 
117 118 119 120 121 122 123 124 125 
126 127 128 129 130 131 132 133 134 
135 136 137 138 139 140 141 142 143 
144 145 146 147 148 149 150 151 152 
153 154 155 156 157 158 159 160 161 
162 163 164 165 166 167 168 169 170 
171 172 173 174 175 176 177 178 179 
180 181 182 183 184 185 186 187 188 
189 190 191 192 193 194 195 196 197 
198 199 200 201 202 203 204 205 206 
207 208 209 210 211 212 213 214 215 
216 217 218 219 220 221 222 223 224 
225 226 227 228 229 230 231 232 233 
234 235 236 237 238 239 240 241 242 
243 244 245 246 247 248 249 250 251 
252 253 254 255 256 257 258 259 260 
261 262 263 264 265 266 267 268 269 
270 271 272 273 274 275 276 277 278 
279 280 281 282 283 284 285 286 287 
288 289 290 291 292 293 294 295 296 
297 298 299 300 301 302 303 304 305 
306 307 308 309 310 311 312 313 314 
315 316 317 318 319 320 321 322 323 
324 325 326 327 328 329 330 331 332 
333 334 335 336 337 338 339 340 341 
342 343 344 345 346 347 348 349 350 
351 352 353 354 355 356 357 358 359 
360 361 362 363 364 365 366 367 368 
369 370 371 372 373 374 375 376 377 
378 379 380 381 382 383 384 385 386 
387 388 389 390 391 392 393 394 395 
396 397 398 399 400 401 402 403 404 
405 406 407 408 409 410 411 412 413 
414 415 416 417 418 419 420 421 422 
423 424 425 426 427 428 429 430 431 
432 433 434 435 436 437 438 439 440 
441 442 443 444 445 446 447 448 449 
450 451 452 453 454 455 456 457 458 
459 460 461 462 463 464 465 466 467 
468 469 470 471 472 473 474 475 476 
477 478 479 480 481 482 483 484 485 
486 487 488 489 490 491 492 493 494 
495 496 497 498 499 500 501 502 503 
504 505 506 507 508 509 510 511 512 
513 514 515 516 517 518 519 520 521 
522 523 524 525 526 527 528 529 530 
531 532 533 534 535 536 537 538 539 
540 541 542 543 544 545 546 547 548 
549 550 551 552 553 554 555 556 557 
558 559 560 561 562 563 564 565 566 
567 568 569 570 571 572 573 574 575 
576 577 578 579 580 581 582 583 584 
585 586 587 588 589 590 591 592 593 
594 595 596 597 598 599 600 601 602 
603 604 605 606 607 608 609 
POINT_DATA 610
FIELD FieldData 12
id 1 610 int
200 231 428 6 57 134 115 107 291 
127 383 396 423 197 169 26 270 362 
164 356 176 465 86 149 219 12 195 
372 88 381 215 336 370 11 385 491 
18 185 247 106 72 353 450 214 373 
150 366 459 190 237 58 293 125 418 
165 14 189 187 253 87 92 304 193 
433 364 506 29 457 508 367 483 83 
322 339 166 9 280 158 246 331 282 
154 440 289 8 175 186 458 407 49 
386 256 470 73 10 310 488 13 496 
444 66 132 36 297 521 100 233 435 
591 317 292 515 601 408 207 404 355 
427 467 432 529 162 321 327 85 559 
155 406 22 347 589 5 137 167 500 
542 456 454 417 410 412 463 411 505 
267 290 349 16 399 263 478 60 40 
587 337 91 326 319 229 51 439 567 
2 424 112 4 21 110 163 199 222 
188 314 303 409 324 580 90 261 54 
104 536 318 351 98 415 238 240 227 
495 288 384 357 30 24 571 576 298 
553 168 248 32 538 486 236 330 76 
275 390 218 562 429 605 543 96 121 
61 141 255 161 328 113 35 34 122 
183 484 243 592 75 446 202 15 447 
504 198 271 223 64 174 479 566 377 
564 378 287 498 451 201 320 84 577 
549 211 341 196 129 401 308 520 437 
62 375 475 140 477 526 111 28 157 
311 519 216 546 474 119 178 81 148 
313 226 295 472 551 278 596 343 251 
570 128 572 59 522 257 151 63 469 
272 346 414 102 352 604 146 563 299 
20 208 395 394 268 65 45 397 79 
416 547 170 74 260 53 334 244 528 
17 392 431 78 206 461 52 239 250 
393 294 323 329 462 38 511 252 171 
142 205 56 363 279 507 594 94 232 
487 533 493 573 368 265 565 545 425 
144 420 325 109 540 348 108 342 89 
93 333 516 599 42 360 371 217 593 
345 273 117 509 481 225 523 123 68 
156 71 403 25 558 105 204 379 213 
524 455 579 286 597 532 335 116 460 
43 1 405 305 301 426 266 421 182 
361 350 147 445 430 285 135 598 70 
281 130 31 471 489 525 527 448 380 
585 212 126 124 221 561 138 254 583 
550 518 139 354 449 376 276 557 77 
338 296 607 179 466 482 586 476 82 
436 340 3 50 503 153 453 480 442 
181 560 315 7 180 413 302 55 136 
210 359 548 160 274 539 517 603 374 
300 501 316 595 443 114 332 438 258 
143 194 441 499 145 41 33 434 99 
344 47 307 513 177 23 80 46 220 
191 309 159 103 502 234 578 530 284 
245 48 485 209 452 242 312 402 388 
69 398 581 44 590 490 610 497 358 
228 473 118 387 534 120 422 554 569 
389 262 468 514 131 269 494 283 192 
259 101 365 464 152 97 391 172 203 
173 492 306 95 39 224 552 241 230 
37 608 27 133 382 400 419 249 277 
19 67 264 510 184 535 369 235 512 
609 600 555 556 575 574 541 537 531 
606 602 588 544 568 582 584 
type 1 610 int
1 1 1 2 1 1 1 1 1 
1 1 1 1 1 1 1 1 1 
1 1 1 1 1 1 1 2 1 
1 1 1 1 1 1 2 1 1 
1 1 1 1 1 1 1 1 1 
1 1 1 1 1 1 1 1 1 
1 2 1 1 1 1 1 1 1 
1 1 1 1 1 1 1 1 1 
1 1 1 2 1 1 1 1 1 
1 1 1 2 1 1 1 1 1 
1 1 1 1 2 1 1 2 1 
1 1 1 1 1 1 1 1 1 
1 1 1 1 1 1 1 1 1 
1 1 1 1 1 1 1 1 1 
1 1 1 1 1 2 1 1 1 
1 1 1 1 1 1 1 1 1 
1 1 1 2 1 1 1 1 1 
1 1 1 1 1 1 1 1 1 
3 1 1 2 1 1 1 1 1 
1 1 1 1 1 1 1 1 1 
1 1 1 1 1 1 1 1 1 
1 1 1 1 1 1 1 1 1 
1 1 1 1 1 1 1 1 1 
1 1 1 1 1 1 1 1 1 
1 1 1 1 1 1 1 1 1 
1 1 1 1 1 1 1 2 1 
1 1 1 1 1 1 1 1 1 
1 1 1 1 1 1 1 1 1 
1 1 1 1 1 1 1 1 1 
1 1 1 1 1 1 1 1 1 
1 1 1 1 1 1 1 1 1 
1 1 1 1 1 1 1 1 1 
1 1 1 1 1 1 1 1 1 
1 1 1 1 1 1 1 1 1 
1 1 1 1 1 1 1 1 1 
1 1 1 1 1 1 1 1 1 
1 1 1 1 1 1 1 1 1 
1 1 1 1 1 1 1 1 1 
1 1 1 1 1 1 1 1 1 
1 1 1 1 1 1 1 1 1 
1 1 1 1 1 1 1 1 1 
1 1 2 1 1 1 1 1 1 
1 1 1 1 1 1 1 1 1 
1 1 1 1 1 1 1 1 1 
1 1 1 1 1 1 1 1 1 
1 4 1 1 1 1 1 1 1 
1 1 1 1 1 1 1 1 1 
1 1 1 1 1 1 1 1 1 
1 1 1 1 1 1 1 1 1 
1 1 1 1 1 1 1 1 1 
1 1 1 1 1 1 1 1 1 
1 1 2 1 1 1 1 1 1 
1 1 1 2 1 1 1 1 1 
1 1 1 1 1 1 1 1 1 
1 1 1 1 1 1 1 1 1 
1 1 1 1 1 1 1 1 1 
1 1 1 1 1 1 1 1 1 
1 1 1 1 1 1 1 1 1 
1 1 1 1 1 1 1 1 1 
1 1 1 1 1 1 1 1 1 
1 1 1 1 1 1 1 1 1 
1 1 1 1 1 1 1 1 1 
1 1 1 1 1 1 1 1 1 
1 1 1 1 1 1 1 1 1 
1 1 1 1 1 1 1 1 1 
1 1 1 1 1 1 1 1 2 
1 1 1 1 1 1 1 1 1 
1 1 1 1 1 1 1 
i 3 610 int
0 0 0 0 0 0 0 0 0 
0 0 0 0 0 0 0 0 0 
0 0 0 0 0 0 0 0 0 
0 0 0 0 0 0 0 0 0 
0 0 0 0 0 0 0 0 0 
0 0 0 0 0 0 0 0 0 
0 0 0 0 0 0 0 0 0 
0 0 0 0 0 0 0 0 0 
0 0 0 0 0 0 0 0 0 
0 0 0 0 0 0 0 0 0 
0 0 0 0 0 0 0 0 0 
0 0 0 0 0 0 0 0 0 
0 0 0 0 0 0 0 0 0 
0 0 0 0 0 0 0 0 0 
0 0 0 0 0 0 0 0 0 
0 0 0 0 0 0 0 0 0 
0 0 0 0 0 0 0 0 0 
0 0 0 0 0 0 0 0 0 
0 0 0 0 0 0 0 0 0 
0 0 0 0 0 0 0 0 0 
0 0 0 0 0 0 0 0 0 
0 0 0 0 0 0 0 0 0 
0 0 0 0 0 0 0 0 0 
0 0 0 0 0 0 0 0 0 
0 0 0 0 0 0 0 0 0 
0 0 0 0 0 0 0 0 0 
0 0 0 0 0 0 0 0 0 
0 0 0 0 0 0 0 0 0 
0 0 0 0 0 0 0 0 0 
0 0 0 0 0 0 0 0 0 
0 0 0 0 0 0 0 0 0 
0 0 0 0 0 0 0 0 0 
0 0 0 0 0 0 0 0 0 
0 0 0 0 0 0 0 0 0 
0 0 0 0 0 0 0 0 0 
0 0 0 0 0 0 0 0 0 
0 0 0 0 0 0 0 0 0 
0 0 0 0 0 0 0 0 0 
0 0 0 0 0 0 0 0 0 
0 0 0 0 0 0 0 0 0 
0 0 0 0 0 0 0 0 0 
0 0 0 0 0 0 0 0 0 
0 0 0 0 0 0 0 0 0 
0 0 0 0 0 0 0 0 0 
0 0 0 0 0 0 0 0 0 
0 0 0 0 0 0 0 0 0 
0 0 0 0 0 0 0 0 0 
0 0 0 0 0 0 0 0 0 
0 0 0 0 0 0 0 0 0 
0 0 0 0 0 0 0 0 0 
0 0 0 0 0 0 0 0 0 
0 0 0 0 0 0 0 0 0 
0 0 0 0 0 0 0 0 0 
0 0 0 0 0 0 0 0 0 
0 0 0 0 0 0 0 0 0 
0 0 0 0 0 0 0 0 0 
0 0 0 0 0 0 0 0 0 
0 0 0 0 0 0 0 0 0 
0 0 0 0 0 0 0 0 0 
0 0 0 0 0 0 0 0 0 
0 0 0 0 0 0 0 0 0 
0 0 0 0 0 0 0 0 0 
0 0 0 0 0 0 0 0 0 
0 0 0 0 0 0 0 0 0 
0 0 0 0 0 0 0 0 0 
0 0 0 0 0 0 0 0 0 
0 0 0 0 0 0 0 0 0 
0 0 0 0 0 0 0 0 0 
0 0 0 0 0 0 0 0 0 
0 0 0 0 0 0 0 0 0 
0 0 0 0 0 0 0 0 0 
0 0 0 0 0 0 0 0 0 
0 0 0 0 0 0 0 0 0 
0 0 0 0 0 0 0 0 0 
0 0 0 0 0 0 0 0 0 
0 0 0 0 0 0 0 0 0 
0 0 0 0 0 0 0 0 0 
0 0 0 0 0 0 0 0 0 
0 0 0 0 0 0 0 0 0 
0 0 0 0 0 0 0 0 0 
0 0 0 0 0 0 0 0 0 
0 0 0 0 0 0 0 0 0 
0 0 0 0 0 0 0 0 0 
0 0 0 0 0 0 0 0 0 
0 0 0 0 0 0 0 0 0 
0 0 0 0 0 0 0 0 0 
0 0 0 0 0 0 0 0 0 
0 0 0 0 0 0 0 0 0 
0 0 0 0 0 0 0 0 0 
0 0 0 0 0 0 0 0 0 
0 0 0 0 0 0 0 0 0 
0 0 0 0 0 0 0 0 0 
0 0 0 0 0 0 0 0 0 
0 0 0 0 0 0 0 0 0 
0 0 0 0 0 0 0 0 0 
0 0 0 0 0 0 0 0 0 
0 0 0 0 0 0 0 0 0 
0 0 0 0 0 0 0 0 0 
0 0 0 0 0 0 0 0 0 
0 0 0 0 0 0 0 0 0 
0 0 0 0 0 0 0 0 0 
0 0 0 0 0 0 0 0 0 
0 0 0 0 0 0 0 0 0 
0 0 0 0 0 0 0 0 0 
0 0 0 0 0 0 0 0 0 
0 0 0 0 0 0 0 0 0 
0 0 0 0 0 0 0 0 0 
0 0 0 0 0 0 0 0 0 
0 0 0 0 0 0 0 0 0 
0 0 0 0 0 0 0 0 0 
0 0 0 0 0 0 0 0 0 
0 0 0 0 0 0 0 0 0 
0 0 0 0 0 0 0 0 0 
0 0 0 0 0 0 0 0 0 
0 0 0 0 0 0 0 0 0 
0 0 0 0 0 0 0 0 0 
0 0 0 0 0 0 0 0 0 
0 0 0 0 0 0 0 0 0 
0 0 0 0 0 0 0 0 0 
0 0 0 0 0 0 0 0 0 
0 0 0 0 0 0 0 0 0 
0 0 0 0 0 0 0 0 0 
0 0 0 0 0 0 0 0 0 
0 0 0 0 0 0 0 0 0 
0 0 0 0 0 0 0 0 0 
0 0 0 0 0 0 0 0 0 
0 0 0 0 0 0 0 0 0 
0 0 0 0 0 0 0 0 0 
0 0 0 0 0 0 0 0 0 
0 0 0 0 0 0 0 0 0 
0 0 0 0 0 0 0 0 0 
0 0 0 0 0 0 0 0 0 
0 0 0 0 0 0 0 0 0 
0 0 0 0 0 0 0 0 0 
0 0 0 0 0 0 0 0 0 
0 0 0 0 0 0 0 0 0 
0 0 0 0 0 0 0 0 0 
0 0 0 0 0 0 0 0 0 
0 0 0 0 0 0 0 0 0 
0 0 0 0 0 0 0 0 0 
0 0 0 0 0 0 0 0 0 
0 0 0 0 0 0 0 0 0 
0 0 0 0 0 0 0 0 0 
0 0 0 0 0 0 0 0 0 
0 0 0 0 0 0 0 0 0 
0 0 0 0 0 0 0 0 0 
0 0 0 0 0 0 0 0 0 
0 0 0 0 0 0 0 0 0 
0 0 0 0 0 0 0 0 0 
0 0 0 0 0 0 0 0 0 
0 0 0 0 0 0 0 0 0 
0 0 0 0 0 0 0 0 0 
0 0 0 0 0 0 0 0 0 
0 0 0 0 0 0 0 0 0 
0 0 0 0 0 0 0 0 0 
0 0 0 0 0 0 0 0 0 
0 0 0 0 0 0 0 0 0 
0 0 0 0 0 0 0 0 0 
0 0 0 0 0 0 0 0 0 
0 0 0 0 0 0 0 0 0 
0 0 0 0 0 0 0 0 0 
0 0 0 0 0 0 0 0 0 
0 0 0 0 0 0 0 0 0 
0 0 0 0 0 0 0 0 0 
0 0 0 0 0 0 0 0 0 
0 0 0 0 0 0 0 0 0 
0 0 0 0 0 0 0 0 0 
0 0 0 0 0 0 0 0 0 
0 0 0 0 0 0 0 0 0 
0 0 0 0 0 0 0 0 0 
0 0 0 0 0 0 0 0 0 
0 0 0 0 0 0 0 0 0 
0 0 0 0 0 0 0 0 0 
0 0 0 0 0 0 0 0 0 
0 0 0 0 0 0 0 0 0 
0 0 0 0 0 0 0 0 0 
0 0 0 0 0 0 0 0 0 
0 0 0 0 0 0 0 0 0 
0 0 0 0 0 0 0 0 0 
0 0 0 0 0 0 0 0 0 
0 0 0 0 0 0 0 0 0 
0 0 0 0 0 0 0 0 0 
0 0 0 0 0 0 0 0 0 
0 0 0 0 0 0 0 0 0 
0 0 0 0 0 0 0 0 0 
0 0 0 0 0 0 0 0 0 
0 0 0 0 0 0 0 0 0 
0 0 0 0 0 0 0 0 0 
0 0 0 0 0 0 0 0 0 
0 0 0 0 0 0 0 0 0 
0 0 0 0 0 0 0 0 0 
0 0 0 0 0 0 0 0 0 
0 0 0 0 0 0 0 0 0 
0 0 0 0 0 0 0 0 0 
0 0 0 0 0 0 0 0 0 
0 0 0 0 0 0 0 0 0 
0 0 0 0 0 0 0 0 0 
0 0 0 0 0 0 0 0 0 
0 0 0 0 0 0 0 0 0 
0 0 0 0 0 0 0 0 0 
0 0 0 0 0 0 0 0 0 
0 0 0 0 0 0 0 0 0 
0 0 0 0 0 0 0 0 0 
0 0 0 
v 3 610 double
0 0 -0.2171241875 0 0 -0.2171241875 0 0 -0.2171241875 
0 0 -0.2171241875 0 0 -0.2171241875 0 0 -0.2171241875 
0 0 -0.2171241875 0 0 -0.2171241875 0 0 -0.2171241875 
0 0 -0.2171241875 0 0 -0.2171241875 0 0 -0.2171241875 
0 0 -0.2171241875 0 0 -0.2171241875 0 0 -0.2171241875 
0 0 -0.2171241875 0 0 -0.2171241875 0 0 -0.2171241875 
0 0 -0.2171241875 0 0 -0.2171241875 0 0 -0.2171241875 
0 0 -0.2171241875 0 0 -0.2171241875 0 0 -0.2171241875 
0 0 -0.2171241875 0 0 -0.2171241875 0 0 -0.2171241875 
0 0 -0.2171241875 0 0 -0.2171241875 0 0 -0.2171241875 
0 0 -0.2171241875 0 0 -0.2171241875 0 0 -0.2171241875 
0 0 -0.2171241875 0 0 -0.2171241875 0 0 -0.2171241875 
0 0 -0.2171241875 0 0 -0.2171241875 0 0 -0.2171241875 
0 0 -0.2171241875 0 0 -0.2171241875 0 0 -0.2171241875 
0 0 -0.2171241875 0 0 -0.2171241875 0 0 -0.2171241875 
0 0 -0.2171241875 0 0 -0.2171241875 0 0 -0.2171241875 
0 0 -0.2171241875 0 0 -0.2171241875 0 0 -0.2171241875 
0 0 -0.2171241875 0 0 -0.2171241875 0 0 -0.2171241875 
0 0 -0.2171241875 0 0 -0.2171241875 0 0 -0.2171241875 
0 0 -0.2171241875 0 0 -0.2171241875 0 0 -0.2171241875 
0 0 -0.2171241875 0 0 -0.2171241875 0 0 -0.2171241875 
0 0 -0.2171241875 0 0 -0.2171241875 0 0 -0.1618741875 
0 0 -0.2171241875 0 0 -0.2171241875 0 0 -0.1618741875 
0 0 -0.2171241875 0 0 -0.2171241875 0 0 -0.2171241875 
0 0 -0.2171241875 0 0 -0.2171241875 0 0 -0.2171241875 
0 0 -0.2171241875 0 0 -0.2171241875 0 0 -0.2171241875 
0 0 -0.2171241875 0 0 -0.2171241875 0 0 -0.2171241875 
0 0 -0.2171241875 0 0 -0.2171241875 0 0 -0.2171241875 
0 0 -0.2171241875 0 0 -0.2171241875 0 0 -0.2171241875 
0 0 -0.2171241875 0 0 -0.2171241875 0 0 -0.2171241875 
0 0 -0.2171241875 0 0 -0.2171241875 0 0 -0.2171241875 
0 0 -0.2171241875 0 0 -0.2171241875 0 0 -0.2171241875 
0 0 -0.2171241875 0 0 -0.2171241875 0 0 -0.2171241875 
0 0 -0.2171241875 0 0 -0.2171241875 0 0 -0.2171241875 
0 0 -0.2171241875 0 0 -0.2171241875 0 0 -0.1293741875 
0 0 -0.2171241875 0 0 -0.2171241875 0 0 -0.2171241875 
0 0 -0.0286241875 0 0 -0.2171241875 0 0 -0.2171241875 
0 0 -0.1423741875 0 0 -0.0123741875 0 0 -0.2171241875 
0 0 -0.2171241875 0 0 -0.2171241875 0 0 -0.2171241875 
0 0 -0.2171241875 0 0 -0.2171241875 0 0 -0.2171241875 
0 0 -0.1131241875 0 0 -0.2171241875 0 0 -0.2171241875 
0 0 -0.2171241875 0 0 -0.2171241875 0 0 -0.0676241875 
0 0 -0.2171241875 0 0 -0.2171241875 0 0 -0.2171241875 
0 0 -0.2171241875 0 0 -0.0286241875 0 0 -0.2171241875 
0 0 -0.2171241875 0 0 -0.2171241875 0 0 -0.2171241875 
0 0 -0.0871241875 0 0 -0.2171241875 0 0 -0.2171241875 
0 0 -0.2171241875 0 0 -0.2171241875 0 0 -0.2171241875 
0 0 -0.2171241875 0 0 -0.2171241875 0 0 -0.1813741875 
0 0 -0.2171241875 0 0 -0.2171241875 0 0 -0.2171241875 
0 0 -0.2171241875 0 0 -0.2171241875 0 0 -0.2171241875 
0 0 -0.2171241875 0 0 -0.2171241875 0 0 -0.2171241875 
0 0 -0.0318741875 0 0 -0.2171241875 0 0 -0.2171241875 
0 0 -0.2171241875 0 0 -0.2171241875 0 0 -0.2171241875 
0 0 -0.2171241875 0 0 -0.2171241875 0 0 -0.0546241875 
0 0 -0.2171241875 0 0 -0.2171241875 0 0 -0.2171241875 
0 0 -0.2171241875 0 0 -0.2171241875 0 0 -0.2171241875 
0 0 -0.2171241875 0 0 -0.2171241875 0 0 -0.2171241875 
0 0 -0.2171241875 0 0 -0.2171241875 0 0 -0.2171241875 
0 0 -0.2171241875 0 0 -0.2171241875 0 0 -0.0383741875 
0 0 -0.2171241875 0 0 -0.2171241875 0 0 -0.2171241875 
0 0 -0.2171241875 0 0 -0.0968741875 0 0 -0.2171241875 
0 0 -0.2171241875 0 0 -0.2171241875 0 0 -0.2171241875 
0 0 -0.2171241875 0 0 -0.2171241875 0 0 -0.2171241875 
0 0 -0.2171241875 0 0 -0.2171241875 0 0 -0.2171241875 
0 0 -0.2171241875 0 0 -0.2171241875 0 0 -0.2171241875 
0 0 -0.0481241875 0 0 -0.0416241875 0 0 -0.2171241875 
0 0 -0.0741241875 0 0 -0.2171241875 0 0 -0.2171241875 
0 0 -0.2171241875 0 0 -0.0936241875 0 0 -0.2171241875 
0 0 -0.2171241875 0 0 -0.2171241875 0 0 -0.2171241875 
0 0 -0.2171241875 0 0 -0.2171241875 0 0 -0.2171241875 
0 0 -0.0643741875 0 0 -0.2171241875 0 0 -0.0091241875 
0 0 -0.0871241875 0 0 -0.2171241875 0 0 -0.2171241875 
0 0 -0.2171241875 0 0 -0.2171241875 0 0 -0.2171241875 
0 0 -0.2171241875 0 0 -0.2171241875 0 0 -0.2171241875 
0 0 -0.2171241875 0 0 -0.2171241875 0 0 -0.2171241875 
0 0 -0.2171241875 0 0 -0.2171241875 0 0 -0.2171241875 
0 0 -0.0253741875 0 0 -0.2171241875 0 0 -0.2171241875 
0 0 -0.2171241875 0 0 -0.2171241875 0 0 -0.2171241875 
0 0 -0.1846241875 0 0 -0.2171241875 0 0 -0.2171241875 
0 0 -0.2171241875 0 0 -0.2171241875 0 0 -0.2171241875 
0 0 -0.2171241875 0 0 -0.0546241875 0 0 -0.2171241875 
0 0 -0.0578741875 0 0 -0.2171241875 0 0 -0.2171241875 
0 0 -0.2171241875 0 0 -0.2171241875 0 0 -0.2171241875 
0 0 -0.2171241875 0 0 -0.2171241875 0 0 -0.0416241875 
0 0 -0.0773741875 0 0 -0.2171241875 0 0 -0.2171241875 
0 0 -0.2171241875 0 0 -0.2171241875 0 0 -0.2171241875 
0 0 -0.2171241875 0 0 -0.1326241875 0 0 -0.2171241875 
0 0 -0.2171241875 0 0 -0.2171241875 0 0 -0.2171241875 
0 0 -0.2171241875 0 0 -0.2171241875 0 0 -0.1163741875 
0 0 -0.2171241875 0 0 -0.2171241875 0 0 -0.2171241875 
0 0 -0.2171241875 0 0 -0.1326241875 0 0 -0.2171241875 
0 0 -0.0806241875 0 0 -0.2171241875 0 0 -0.2171241875 
0 0 -0.2171241875 0 0 -0.2171241875 0 0 -0.2171241875 
0 0 -0.2171241875 0 0 -0.2171241875 0 0 -0.2171241875 
0 0 -0.2171241875 0 0 -0.0741241875 0 0 -0.2171241875 
0 0 -0.0188741875 0 0 -0.2171241875 0 0 -0.2171241875 
0 0 -0.0481241875 0 0 -0.2171241875 0 0 -0.0481241875 
0 0 -0.2171241875 0 0 -0.1293741875 0 0 -0.2171241875 
0 0 -0.2171241875 0 0 -0.2171241875 0 0 -0.2171241875 
0 0 -0.2171241875 0 0 -0.2171241875 0 0 -0.2171241875 
0 0 -0.2171241875 0 0 -0.2171241875 0 0 -0.0091241875 
0 0 -0.2171241875 0 0 -0.0611241875 0 0 -0.2171241875 
0 0 -0.2171241875 0 0 -0.2171241875 0 0 -0.2171241875 
0 0 -0.2171241875 0 0 -0.2171241875 0 0 -0.2171241875 
0 0 -0.2171241875 0 0 -0.2171241875 0 0 -0.2171241875 
0 0 -0.2171241875 0 0 -0.0806241875 0 0 -0.2171241875 
0 0 -0.2171241875 0 0 -0.2171241875 0 0 -0.2171241875 
0 0 -0.2171241875 0 0 -0.2171241875 0 0 -0.1131241875 
0 0 -0.2171241875 0 0 -0.2171241875 0 0 -0.2171241875 
0 0 -0.2171241875 0 0 -0.2171241875 0 0 -0.2171241875 
0 0 -0.2171241875 0 0 -0.2171241875 0 0 -0.2171241875 
0 0 -0.2171241875 0 0 -0.2171241875 0 0 -0.2171241875 
0 0 -0.2171241875 0 0 -0.2171241875 0 0 -0.2171241875 
0 0 -0.1553741875 0 0 -0.2171241875 0 0 -0.2171241875 
0 0 -0.2171241875 0 0 -0.2171241875 0 0 -0.2171241875 
0 0 -0.2171241875 0 0 -0.2171241875 0 0 -0.1618741875 
0 0 -0.0221241875 0 0 -0.2171241875 0 0 -0.2171241875 
0 0 -0.2171241875 0 0 -0.1001241875 0 0 -0.2171241875 
0 0 -0.0448741875 0 0 -0.2171241875 0 0 -0.2171241875 
0 0 -0.0578741875 0 0 -0.0838741875 0 0 -0.2171241875 
0 0 -0.2171241875 0 0 -0.2171241875 0 0 -0.2171241875 
0 0 -0.2171241875 0 0 -0.0903741875 0 0 -0.2171241875 
0 0 -0.2171241875 0 0 -0.2171241875 0 0 -0.2171241875 
0 0 -0.2171241875 0 0 -0.2171241875 0 0 -0.1391241875 
0 0 -0.0156241875 0 0 -0.2171241875 0 0 -0.2171241875 
0 0 -0.2171241875 0 0 -0.2171241875 0 0 -0.0221241875 
0 0 -0.2171241875 0 0 -0.2171241875 0 0 -0.2171241875 
0 0 -0.1553741875 0 0 -0.2171241875 0 0 -0.2171241875 
0 0 -0.1261241875 0 0 -0.2171241875 0 0 -0.2171241875 
0 0 -0.2171241875 0 0 -0.2171241875 0 0 -0.2171241875 
0 0 -0.2171241875 0 0 -0.0676241875 0 0 -0.2171241875 
0 0 -0.2171241875 0 0 -0.2171241875 0 0 -0.2171241875 
0 0 -0.1261241875 0 0 -0.2171241875 0 0 -0.0383741875 
0 0 -0.2171241875 0 0 -0.0188741875 0 0 -0.1033741875 
0 0 -0.2171241875 0 0 -0.2171241875 0 0 -0.2171241875 
0 0 -0.2171241875 0 0 -0.2171241875 0 0 -0.2171241875 
0 0 -0.2171241875 0 0 -0.2171241875 0 0 -0.2171241875 
0 0 -0.2171241875 0 0 -0.2171241875 0 0 -0.2171241875 
0 0 -0.2171241875 0 0 -0.2171241875 0 0 -0.2171241875 
0 0 -0.2171241875 0 0 -0.2171241875 0 0 -0.2171241875 
0 0 -0.2171241875 0 0 -0.0188741875 0 0 -0.2171241875 
0 0 -0.2171241875 0 0 -0.2171241875 0 0 -0.2171241875 
0 0 -0.2171241875 0 0 -0.2171241875 0 0 -0.1196241875 
0 0 -0.1163741875 0 0 -0.2171241875 0 0 -0.2171241875 
0 0 -0.0351241875 0 0 -0.2171241875 0 0 -0.2171241875 
0 0 -0.2171241875 0 0 -0.2171241875 0 0 -0.0643741875 
0 0 -0.2171241875 0 0 -0.2171241875 0 0 -0.0351241875 
0 0 -0.0773741875 0 0 -0.1391241875 0 0 -0.2171241875 
0 0 -0.2171241875 0 0 -0.2171241875 0 0 -0.2171241875 
0 0 -0.2171241875 0 0 -0.0676241875 0 0 -0.2171241875 
0 0 -0.2171241875 0 0 -0.2171241875 0 0 -0.0058741875 
0 0 -0.2171241875 0 0 -0.2171241875 0 0 -0.2171241875 
0 0 -0.0318741875 0 0 -0.2171241875 0 0 -0.2171241875 
0 0 -0.2171241875 0 0 -0.2171241875 0 0 -0.2171241875 
0 0 -0.2171241875 0 0 -0.1976241875 0 0 -0.2171241875 
0 0 -0.2171241875 0 0 -0.2171241875 0 0 -0.2171241875 
0 0 -0.2171241875 0 0 -0.0643741875 0 0 -0.2171241875 
0 0 -0.2171241875 0 0 -0.2171241875 0 0 -0.2171241875 
0 0 -0.2171241875 0 0 -0.2171241875 0 0 -0.2171241875 
0 0 -0.2171241875 0 0 -0.2171241875 0 0 -0.0773741875 
0 0 -0.2171241875 0 0 -0.2171241875 0 0 -0.0903741875 
0 0 -0.1391241875 0 0 -0.0091241875 0 0 -0.2171241875 
0 0 -0.2171241875 0 0 -0.2041241875 0 0 -0.2171241875 
0 0 -0.0221241875 0 0 -0.2171241875 0 0 -0.2171241875 
0 0 -0.2171241875 0 0 -0.2171241875 0 0 -0.2171241875 
0 0 -0.2171241875 0 0 -0.2171241875 0 0 -0.2171241875 
0 0 -0.2171241875 0 0 -0.2171241875 0 0 -0.2171241875 
0 0 -0.2171241875 0 0 -0.2171241875 0 0 -0.2171241875 
0 0 -0.2171241875 0 0 -0.2171241875 0 0 -0.2171241875 
0 0 -0.1488741875 0 0 -0.2171241875 0 0 -0.2171241875 
0 0 -0.2171241875 0 0 -0.2171241875 0 0 -0.2171241875 
0 0 -0.2171241875 0 0 -0.2171241875 0 0 -0.2171241875 
0 0 -0.2171241875 0 0 -0.2041241875 0 0 -0.2171241875 
0 0 -0.0383741875 0 0 -0.1066241875 0 0 -0.2171241875 
0 0 -0.2171241875 0 0 -0.2171241875 0 0 -0.2171241875 
0 0 -0.2171241875 0 0 -0.2171241875 0 0 -0.2171241875 
0 0 -0.2171241875 0 0 -0.2171241875 0 0 -0.2171241875 
0 0 -0.2171241875 0 0 -0.2171241875 0 0 -0.0383741875 
0 0 -0.2171241875 0 0 -0.0286241875 0 0 -0.2171241875 
0 0 -0.0026241875 0 0 -0.2171241875 0 0 -0.2171241875 
0 0 -0.2171241875 0 0 -0.2171241875 0 0 -0.2171241875 
0 0 -0.2171241875 0 0 -0.1001241875 0 0 -0.2171241875 
0 0 -0.2171241875 0 0 -0.0708741875 0 0 -0.0481241875 
0 0 -0.2171241875 0 0 -0.2171241875 0 0 -0.2171241875 
0 0 -0.1488741875 0 0 -0.2171241875 0 0 -0.2171241875 
0 0 -0.2171241875 0 0 -0.2171241875 0 0 -0.2171241875 
0 0 -0.2171241875 0 0 -0.2171241875 0 0 -0.2171241875 
0 0 -0.2171241875 0 0 -0.2171241875 0 0 -0.2171241875 
0 0 -0.2171241875 0 0 -0.2171241875 0 0 -0.2171241875 
0 0 -0.2171241875 0 0 -0.2171241875 0 0 -0.2171241875 
0 0 -0.2171241875 0 0 -0.2171241875 0 0 -0.2171241875 
0 0 -0.0741241875 0 0 -0.2171241875 0 0 -0.2171241875 
0 0 -0.2171241875 0 0 -0.0058741875 0 0 -0.2171241875 
0 0 -0.2171241875 0 0 -0.2171241875 0 0 -0.2171241875 
0 0 -0.2171241875 0 0 -0.2171241875 0 0 -0.2171241875 
0 0 -0.2171241875 0 0 -0.2171241875 0 0 -0.2171241875 
0 0 -0.1553741875 0 0 -0.2171241875 0 0 -0.0968741875 
0 0 -0.2171241875 0 0 -0.2171241875 0 0 -0.1488741875 
0 0 -0.0026241875 0 0 -0.0123741875 0 0 -0.0708741875 
0 0 -0.0708741875 0 0 -0.0448741875 0 0 -0.0448741875 
0 0 -0.0903741875 0 0 -0.0968741875 0 0 -0.1066241875 
0 0 -0.0091241875 0 0 -0.0091241875 0 0 -0.0318741875 
0 0 -0.0871241875 0 0 -0.0513741875 0 0 -0.0351241875 
0 0 -0.0351241875 
f 3 610 double
0 0 -1.7425367252e-10 0 0 -1.7425367252e-10 0 0 -1.7425367252e-10 
0 0 -8.9019973083e-09 0 0 -1.7425367252e-10 0 0 -1.7425367252e-10 
0 0 -1.7425367252e-10 0 0 -1.7425367252e-10 0 0 -1.7425367252e-10 
0 0 -1.7425367252e-10 0 0 -1.7425367252e-10 0 0 -1.7425367252e-10 
0 0 -1.7425367252e-10 0 0 -1.7425367252e-10 0 0 -1.7425367252e-10 
0 0 -1.7425367252e-10 0 0 -1.7425367252e-10 0 0 -1.7425367252e-10 
0 0 -1.7425367252e-10 0 0 -1.7425367252e-10 0 0 -1.7425367252e-10 
0 0 -1.7425367252e-10 0 0 -1.7425367252e-10 0 0 -1.7425367252e-10 
0 0 -1.7425367252e-10 0 0 -8.9019973083e-09 0 0 -1.7425367252e-10 
0 0 -1.7425367252e-10 0 0 -1.7425367252e-10 0 0 -1.7425367252e-10 
0 0 -1.7425367252e-10 0 0 -1.7425367252e-10 0 0 -1.7425367252e-10 
0 0 -8.9019973083e-09 0 0 -1.7425367252e-10 0 0 -1.7425367252e-10 
0 0 -1.7425367252e-10 0 0 -1.7425367252e-10 0 0 -1.7425367252e-10 
0 0 -1.7425367252e-10 0 0 -1.7425367252e-10 0 0 -1.7425367252e-10 
0 0 -1.7425367252e-10 0 0 -1.7425367252e-10 0 0 -1.7425367252e-10 
0 0 -1.7425367252e-10 0 0 -1.7425367252e-10 0 0 -1.7425367252e-10 
0 0 -1.7425367252e-10 0 0 -1.7425367252e-10 0 0 -1.7425367252e-10 
0 0 -1.7425367252e-10 0 0 -1.7425367252e-10 0 0 -1.7425367252e-10 
0 0 -1.7425367252e-10 0 0 -8.9019973083e-09 0 0 -1.7425367252e-10 
0 0 -1.7425367252e-10 0 0 -1.7425367252e-10 0 0 -1.7425367252e-10 
0 0 -1.7425367252e-10 0 0 -1.7425367252e-10 0 0 -1.7425367252e-10 
0 0 -1.7425367252e-10 0 0 -1.7425367252e-10 0 0 -1.7425367252e-10 
0 0 -1.7425367252e-10 0 0 -1.7425367252e-10 0 0 -1.7425367252e-10 
0 0 -1.7425367252e-10 0 0 -1.7425367252e-10 0 0 -1.7425367252e-10 
0 0 -1.7425367252e-10 0 0 -1.7425367252e-10 0 0 -1.7425367252e-10 
0 0 -8.9019973083e-09 0 0 -1.7425367252e-10 0 0 -1.7425367252e-10 
0 0 -1.7425367252e-10 0 0 -1.7425367252e-10 0 0 -1.7425367252e-10 
0 0 -1.7425367252e-10 0 0 -1.7425367252e-10 0 0 -1.7425367252e-10 
0 0 -8.9019973083e-09 0 0 -1.7425367252e-10 0 0 -1.7425367252e-10 
0 0 -1.7425367252e-10 0 0 -1.7425367252e-10 0 0 -1.7425367252e-10 
0 0 -1.7425367252e-10 0 0 -1.7425367252e-10 0 0 -1.7425367252e-10 
0 0 -1.7425367252e-10 0 0 -8.9019973083e-09 0 0 -1.7425367252e-10 
0 0 -1.7425367252e-10 0 0 -8.9019973083e-09 0 0 -1.7425367252e-10 
0 0 -1.7425367252e-10 0 0 -1.7425367252e-10 0 0 -1.7425367252e-10 
0 0 -1.7425367252e-10 0 0 -1.7425367252e-10 0 0 -1.7425367252e-10 
0 0 -1.7425367252e-10 0 0 -1.7425367252e-10 0 0 -1.7425367252e-10 
0 0 -1.7425367252e-10 0 0 -1.7425367252e-10 0 0 -1.7425367252e-10 
0 0 -1.7425367252e-10 0 0 -1.7425367252e-10 0 0 -1.7425367252e-10 
0 0 -1.7425367252e-10 0 0 -1.7425367252e-10 0 0 -1.7425367252e-10 
0 0 -1.7425367252e-10 0 0 -1.7425367252e-10 0 0 -1.7425367252e-10 
0 0 -1.7425367252e-10 0 0 -1.7425367252e-10 0 0 -1.7425367252e-10 
0 0 -1.7425367252e-10 0 0 -1.7425367252e-10 0 0 -1.7425367252e-10 
0 0 -1.7425367252e-10 0 0 -1.7425367252e-10 0 0 -1.7425367252e-10 
0 0 -1.7425367252e-10 0 0 -1.7425367252e-10 0 0 -8.9019973083e-09 
0 0 -1.7425367252e-10 0 0 -1.7425367252e-10 0 0 -1.7425367252e-10 
0 0 -1.7425367252e-10 0 0 -1.7425367252e-10 0 0 -1.7425367252e-10 
0 0 -1.7425367252e-10 0 0 -1.7425367252e-10 0 0 -1.7425367252e-10 
0 0 -1.7425367252e-10 0 0 -1.7425367252e-10 0 0 -1.7425367252e-10 
0 0 -1.7425367252e-10 0 0 -1.7425367252e-10 0 0 -1.7425367252e-10 
0 0 -8.9019973083e-09 0 0 -1.7425367252e-10 0 0 -1.7425367252e-10 
0 0 -1.7425367252e-10 0 0 -1.7425367252e-10 0 0 -1.7425367252e-10 
0 0 -1.7425367252e-10 0 0 -1.7425367252e-10 0 0 -1.7425367252e-10 
0 0 -1.7425367252e-10 0 0 -1.7425367252e-10 0 0 -1.7425367252e-10 
0 0 -1.7425367252e-10 0 0 -1.7425367252e-10 0 0 -1.7425367252e-10 
0 0 -6.8918688838e-08 0 0 -1.7425367252e-10 0 0 -1.7425367252e-10 
0 0 -8.9019973083e-09 0 0 -1.7425367252e-10 0 0 -1.7425367252e-10 
0 0 -1.7425367252e-10 0 0 -1.7425367252e-10 0 0 -1.7425367252e-10 
0 0 -1.7425367252e-10 0 0 -1.7425367252e-10 0 0 -1.7425367252e-10 
0 0 -1.7425367252e-10 0 0 -1.7425367252e-10 0 0 -1.7425367252e-10 
0 0 -1.7425367252e-10 0 0 -1.7425367252e-10 0 0 -1.7425367252e-10 
0 0 -1.7425367252e-10 0 0 -1.7425367252e-10 0 0 -1.7425367252e-10 
0 0 -1.7425367252e-10 0 0 -1.7425367252e-10 0 0 -1.7425367252e-10 
0 0 -1.7425367252e-10 0 0 -1.7425367252e-10 0 0 -1.7425367252e-10 
0 0 -1.7425367252e-10 0 0 -1.7425367252e-10 0 0 -1.7425367252e-10 
0 0 -1.7425367252e-10 0 0 -1.7425367252e-10 0 0 -1.7425367252e-10 
0 0 -1.7425367252e-10 0 0 -1.7425367252e-10 0 0 -1.7425367252e-10 
0 0 -1.7425367252e-10 0 0 -1.7425367252e-10 0 0 -1.7425367252e-10 
0 0 -1.7425367252e-10 0 0 -1.7425367252e-10 0 0 -1.7425367252e-10 
0 0 -1.7425367252e-10 0 0 -1.7425367252e-10 0 0 -1.7425367252e-10 
0 0 -1.7425367252e-10 0 0 -1.7425367252e-10 0 0 -1.7425367252e-10 
0 0 -1.7425367252e-10 0 0 -1.7425367252e-10 0 0 -1.7425367252e-10 
0 0 -1.7425367252e-10 0 0 -1.7425367252e-10 0 0 -1.7425367252e-10 
0 0 -1.7425367252e-10 0 0 -1.7425367252e-10 0 0 -1.7425367252e-10 
0 0 -1.7425367252e-10 0 0 -1.7425367252e-10 0 0 -1.7425367252e-10 
0 0 -1.7425367252e-10 0 0 -1.7425367252e-10 0 0 -1.7425367252e-10 
0 0 -1.7425367252e-10 0 0 -1.7425367252e-10 0 0 -1.7425367252e-10 
0 0 -1.7425367252e-10 0 0 -1.7425367252e-10 0 0 -1.7425367252e-10 
0 0 -1.7425367252e-10 0 0 -8.9019973083e-09 0 0 -1.7425367252e-10 
0 0 -1.7425367252e-10 0 0 -1.7425367252e-10 0 0 -1.7425367252e-10 
0 0 -1.7425367252e-10 0 0 -1.7425367252e-10 0 0 -1.7425367252e-10 
0 0 -1.7425367252e-10 0 0 -1.7425367252e-10 0 0 -1.7425367252e-10 
0 0 -1.7425367252e-10 0 0 -1.7425367252e-10 0 0 -1.7425367252e-10 
0 0 -1.7425367252e-10 0 0 -1.7425367252e-10 0 0 -1.7425367252e-10 
0 0 -1.7425367252e-10 0 0 -1.7425367252e-10 0 0 -1.7425367252e-10 
0 0 -1.7425367252e-10 0 0 -1.7425367252e-10 0 0 -1.7425367252e-10 
0 0 -1.7425367252e-10 0 0 -1.7425367252e-10 0 0 -1.7425367252e-10 
0 0 -1.7425367252e-10 0 0 -1.7425367252e-10 0 0 -1.7425367252e-10 
0 0 -1.7425367252e-10 0 0 -1.7425367252e-10 0 0 -1.7425367252e-10 
0 0 -1.7425367252e-10 0 0 -1.7425367252e-10 0 0 -1.7425367252e-10 
0 0 -1.7425367252e-10 0 0 -1.7425367252e-10 0 0 -1.7425367252e-10 
0 0 -1.7425367252e-10 0 0 -1.7425367252e-10 0 0 -1.7425367252e-10 
0 0 -1.7425367252e-10 0 0 -1.7425367252e-10 0 0 -1.7425367252e-10 
0 0 -1.7425367252e-10 0 0 -1.7425367252e-10 0 0 -1.7425367252e-10 
0 0 -1.7425367252e-10 0 0 -1.7425367252e-10 0 0 -1.7425367252e-10 
0 0 -1.7425367252e-10 0 0 -1.7425367252e-10 0 0 -1.7425367252e-10 
0 0 -1.7425367252e-10 0 0 -1.7425367252e-10 0 0 -1.7425367252e-10 
0 0 -1.7425367252e-10 0 0 -1.7425367252e-10 0 0 -1.7425367252e-10 
0 0 -1.7425367252e-10 0 0 -1.7425367252e-10 0 0 -1.7425367252e-10 
0 0 -1.7425367252e-10 0 0 -1.7425367252e-10 0 0 -1.7425367252e-10 
0 0 -1.7425367252e-10 0 0 -1.7425367252e-10 0 0 -1.7425367252e-10 
0 0 -1.7425367252e-10 0 0 -1.7425367252e-10 0 0 -1.7425367252e-10 
0 0 -1.7425367252e-10 0 0 -1.7425367252e-10 0 0 -1.7425367252e-10 
0 0 -1.7425367252e-10 0 0 -1.7425367252e-10 0 0 -1.7425367252e-10 
0 0 -1.7425367252e-10 0 0 -1.7425367252e-10 0 0 -1.7425367252e-10 
0 0 -1.7425367252e-10 0 0 -1.7425367252e-10 0 0 -1.7425367252e-10 
0 0 -1.7425367252e-10 0 0 -1.7425367252e-10 0 0 -1.7425367252e-10 
0 0 -1.7425367252e-10 0 0 -1.7425367252e-10 0 0 -1.7425367252e-10 
0 0 -1.7425367252e-10 0 0 -1.7425367252e-10 0 0 -1.7425367252e-10 
0 0 -1.7425367252e-10 0 0 -1.7425367252e-10 0 0 -1.7425367252e-10 
0 0 -1.7425367252e-10 0 0 -1.7425367252e-10 0 0 -1.7425367252e-10 
0 0 -1.7425367252e-10 0 0 -1.7425367252e-10 0 0 -1.7425367252e-10 
0 0 -1.7425367252e-10 0 0 -1.7425367252e-10 0 0 -1.7425367252e-10 
0 0 -1.7425367252e-10 0 0 -1.7425367252e-10 0 0 -1.7425367252e-10 
0 0 -1.7425367252e-10 0 0 -1.7425367252e-10 0 0 -1.7425367252e-10 
0 0 -1.7425367252e-10 0 0 -1.7425367252e-10 0 0 -1.7425367252e-10 
0 0 -1.7425367252e-10 0 0 -1.7425367252e-10 0 0 -1.7425367252e-10 
0 0 -1.7425367252e-10 0 0 -1.7425367252e-10 0 0 -1.7425367252e-10 
0 0 -1.7425367252e-10 0 0 -1.7425367252e-10 0 0 -1.7425367252e-10 
0 0 -1.7425367252e-10 0 0 -1.7425367252e-10 0 0 -1.7425367252e-10 
0 0 -1.7425367252e-10 0 0 -1.7425367252e-10 0 0 -1.7425367252e-10 
0 0 -1.7425367252e-10 0 0 -1.7425367252e-10 0 0 -1.7425367252e-10 
0 0 -1.7425367252e-10 0 0 -1.7425367252e-10 0 0 -1.7425367252e-10 
0 0 -1.7425367252e-10 0 0 -1.7425367252e-10 0 0 -1.7425367252e-10 
0 0 -1.7425367252e-10 0 0 -1.7425367252e-10 0 0 -8.9019973083e-09 
0 0 -1.7425367252e-10 0 0 -1.7425367252e-10 0 0 -1.7425367252e-10 
0 0 -1.7425367252e-10 0 0 -1.7425367252e-10 0 0 -1.7425367252e-10 
0 0 -1.7425367252e-10 0 0 -1.7425367252e-10 0 0 -1.7425367252e-10 
0 0 -1.7425367252e-10 0 0 -1.7425367252e-10 0 0 -1.7425367252e-10 
0 0 -1.7425367252e-10 0 0 -1.7425367252e-10 0 0 -1.7425367252e-10 
0 0 -1.7425367252e-10 0 0 -1.7425367252e-10 0 0 -1.7425367252e-10 
0 0 -1.7425367252e-10 0 0 -1.7425367252e-10 0 0 -1.7425367252e-10 
0 0 -1.7425367252e-10 0 0 -1.7425367252e-10 0 0 -1.7425367252e-10 
0 0 -1.7425367252e-10 0 0 -1.7425367252e-10 0 0 -1.7425367252e-10 
0 0 -1.7425367252e-10 0 0 -1.7425367252e-10 0 0 -1.7425367252e-10 
0 0 -1.7425367252e-10 0 0 -1.7425367252e-10 0 0 -1.7425367252e-10 
0 0 -1.7425367252e-10 0 0 -5.3297119368e-07 0 0 -1.7425367252e-10 
0 0 -1.7425367252e-10 0 0 -1.7425367252e-10 0 0 -1.7425367252e-10 
0 0 -1.7425367252e-10 0 0 -1.7425367252e-10 0 0 -1.7425367252e-10 
0 0 -1.7425367252e-10 0 0 -1.7425367252e-10 0 0 -1.7425367252e-10 
0 0 -1.7425367252e-10 0 0 -1.7425367252e-10 0 0 -1.7425367252e-10 
0 0 -1.7425367252e-10 0 0 -1.7425367252e-10 0 0 -1.7425367252e-10 
0 0 -1.7425367252e-10 0 0 -1.7425367252e-10 0 0 -1.7425367252e-10 
0 0 -1.7425367252e-10 0 0 -1.7425367252e-10 0 0 -1.7425367252e-10 
0 0 -1.7425367252e-10 0 0 -1.7425367252e-10 0 0 -1.7425367252e-10 
0 0 -1.7425367252e-10 0 0 -1.7425367252e-10 0 0 -1.7425367252e-10 
0 0 -1.7425367252e-10 0 0 -1.7425367252e-10 0 0 -1.7425367252e-10 
0 0 -1.7425367252e-10 0 0 -1.7425367252e-10 0 0 -1.7425367252e-10 
0 0 -1.7425367252e-10 0 0 -1.7425367252e-10 0 0 -1.7425367252e-10 
0 0 -1.7425367252e-10 0 0 -1.7425367252e-10 0 0 -1.7425367252e-10 
0 0 -1.7425367252e-10 0 0 -1.7425367252e-10 0 0 -1.7425367252e-10 
0 0 -1.7425367252e-10 0 0 -1.7425367252e-10 0 0 -1.7425367252e-10 
0 0 -1.7425367252e-10 0 0 -1.7425367252e-10 0 0 -1.7425367252e-10 
0 0 -1.7425367252e-10 0 0 -1.7425367252e-10 0 0 -1.7425367252e-10 
0 0 -1.7425367252e-10 0 0 -1.7425367252e-10 0 0 -8.9019973083e-09 
0 0 -1.7425367252e-10 0 0 -1.7425367252e-10 0 0 -1.7425367252e-10 
0 0 -1.7425367252e-10 0 0 -1.7425367252e-10 0 0 -1.7425367252e-10 
0 0 -1.7425367252e-10 0 0 -1.7425367252e-10 0 0 -1.7425367252e-10 
0 0 -8.9019973083e-09 0 0 -1.7425367252e-10 0 0 -1.7425367252e-10 
0 0 -1.7425367252e-10 0 0 -1.7425367252e-10 0 0 -1.7425367252e-10 
0 0 -1.7425367252e-10 0 0 -1.7425367252e-10 0 0 -1.7425367252e-10 
0 0 -1.7425367252e-10 0 0 -1.7425367252e-10 0 0 -1.7425367252e-10 
0 0 -1.7425367252e-10 0 0 -1.7425367252e-10 0 0 -1.7425367252e-10 
0 0 -1.7425367252e-10 0 0 -1.7425367252e-10 0 0 -1.7425367252e-10 
0 0 -1.7425367252e-10 0 0 -1.7425367252e-10 0 0 -1.7425367252e-10 
0 0 -1.7425367252e-10 0 0 -1.7425367252e-10 0 0 -1.7425367252e-10 
0 0 -1.7425367252e-10 0 0 -1.7425367252e-10 0 0 -1.7425367252e-10 
0 0 -1.7425367252e-10 0 0 -1.7425367252e-10 0 0 -1.7425367252e-10 
0 0 -1.7425367252e-10 0 0 -1.7425367252e-10 0 0 -1.7425367252e-10 
0 0 -1.7425367252e-10 0 0 -1.7425367252e-10 0 0 -1.7425367252e-10 
0 0 -1.7425367252e-10 0 0 -1.7425367252e-10 0 0 -1.7425367252e-10 
0 0 -1.7425367252e-10 0 0 -1.7425367252e-10 0 0 -1.7425367252e-10 
0 0 -1.7425367252e-10 0 0 -1.7425367252e-10 0 0 -1.7425367252e-10 
0 0 -1.7425367252e-10 0 0 -1.7425367252e-10 0 0 -1.7425367252e-10 
0 0 -1.7425367252e-10 0 0 -1.7425367252e-10 0 0 -1.7425367252e-10 
0 0 -1.7425367252e-10 0 0 -1.7425367252e-10 0 0 -1.7425367252e-10 
0 0 -1.7425367252e-10 0 0 -1.7425367252e-10 0 0 -1.7425367252e-10 
0 0 -1.7425367252e-10 0 0 -1.7425367252e-10 0 0 -1.7425367252e-10 
0 0 -1.7425367252e-10 0 0 -1.7425367252e-10 0 0 -1.7425367252e-10 
0 0 -1.7425367252e-10 0 0 -1.7425367252e-10 0 0 -1.7425367252e-10 
0 0 -1.7425367252e-10 0 0 -1.7425367252e-10 0 0 -1.7425367252e-10 
0 0 -1.7425367252e-10 0 0 -1.7425367252e-10 0 0 -1.7425367252e-10 
0 0 -1.7425367252e-10 0 0 -1.7425367252e-10 0 0 -1.7425367252e-10 
0 0 -1.7425367252e-10 0 0 -1.7425367252e-10 0 0 -1.7425367252e-10 
0 0 -1.7425367252e-10 0 0 -1.7425367252e-10 0 0 -1.7425367252e-10 
0 0 -1.7425367252e-10 0 0 -1.7425367252e-10 0 0 -1.7425367252e-10 
0 0 -1.7425367252e-10 0 0 -1.7425367252e-10 0 0 -1.7425367252e-10 
0 0 -1.7425367252e-10 0 0 -1.7425367252e-10 0 0 -1.7425367252e-10 
0 0 -1.7425367252e-10 0 0 -1.7425367252e-10 0 0 -1.7425367252e-10 
0 0 -1.7425367252e-10 0 0 -1.7425367252e-10 0 0 -1.7425367252e-10 
0 0 -1.7425367252e-10 0 0 -1.7425367252e-10 0 0 -1.7425367252e-10 
0 0 -1.7425367252e-10 0 0 -1.7425367252e-10 0 0 -1.7425367252e-10 
0 0 -1.7425367252e-10 0 0 -1.7425367252e-10 0 0 -1.7425367252e-10 
0 0 -1.7425367252e-10 0 0 -1.7425367252e-10 0 0 -1.7425367252e-10 
0 0 -1.7425367252e-10 0 0 -1.7425367252e-10 0 0 -1.7425367252e-10 
0 0 -1.7425367252e-10 0 0 -1.7425367252e-10 0 0 -1.7425367252e-10 
0 0 -1.7425367252e-10 0 0 -1.7425367252e-10 0 0 -1.7425367252e-10 
0 0 -1.7425367252e-10 0 0 -1.7425367252e-10 0 0 -1.7425367252e-10 
0 0 -1.7425367252e-10 0 0 -1.7425367252e-10 0 0 -8.9019973083e-09 
0 0 -1.7425367252e-10 0 0 -1.7425367252e-10 0 0 -1.7425367252e-10 
0 0 -1.7425367252e-10 0 0 -1.7425367252e-10 0 0 -1.7425367252e-10 
0 0 -1.7425367252e-10 0 0 -1.7425367252e-10 0 0 -1.7425367252e-10 
0 0 -1.7425367252e-10 0 0 -1.7425367252e-10 0 0 -1.7425367252e-10 
0 0 -1.7425367252e-10 0 0 -1.7425367252e-10 0 0 -1.7425367252e-10 
0 0 -1.7425367252e-10 
radius 1 610 double
2e-05 2e-05 2e-05 7.5e-05 2e-05 2e-05 2e-05 2e-05 2e-05 
2e-05 2e-05 2e-05 2e-05 2e-05 2e-05 2e-05 2e-05 2e-05 
2e-05 2e-05 2e-05 2e-05 2e-05 2e-05 2e-05 7.5e-05 2e-05 
2e-05 2e-05 2e-05 2e-05 2e-05 2e-05 7.5e-05 2e-05 2e-05 
2e-05 2e-05 2e-05 2e-05 2e-05 2e-05 2e-05 2e-05 2e-05 
2e-05 2e-05 2e-05 2e-05 2e-05 2e-05 2e-05 2e-05 2e-05 
2e-05 7.5e-05 2e-05 2e-05 2e-05 2e-05 2e-05 2e-05 2e-05 
2e-05 2e-05 2e-05 2e-05 2e-05 2e-05 2e-05 2e-05 2e-05 
2e-05 2e-05 2e-05 7.5e-05 2e-05 2e-05 2e-05 2e-05 2e-05 
2e-05 2e-05 2e-05 7.5e-05 2e-05 2e-05 2e-05 2e-05 2e-05 
2e-05 2e-05 2e-05 2e-05 7.5e-05 2e-05 2e-05 7.5e-05 2e-05 
2e-05 2e-05 2e-05 2e-05 2e-05 2e-05 2e-05 2e-05 2e-05 
2e-05 2e-05 2e-05 2e-05 2e-05 2e-05 2e-05 2e-05 2e-05 
2e-05 2e-05 2e-05 2e-05 2e-05 2e-05 2e-05 2e-05 2e-05 
2e-05 2e-05 2e-05 2e-05 2e-05 7.5e-05 2e-05 2e-05 2e-05 
2e-05 2e-05 2e-05 2e-05 2e-05 2e-05 2e-05 2e-05 2e-05 
2e-05 2e-05 2e-05 7.5e-05 2e-05 2e-05 2e-05 2e-05 2e-05 
2e-05 2e-05 2e-05 2e-05 2e-05 2e-05 2e-05 2e-05 2e-05 
0.00015 2e-05 2e-05 7.5e-05 2e-05 2e-05 2e-05 2e-05 2e-05 
2e-05 2e-05 2e-05 2e-05 2e-05 2e-05 2e-05 2e-05 2e-05 
2e-05 2e-05 2e-05 2e-05 2e-05 2e-05 2e-05 2e-05 2e-05 
2e-05 2e-05 2e-05 2e-05 2e-05 2e-05 2e-05 2e-05 2e-05 
2e-05 2e-05 2e-05 2e-05 2e-05 2e-05 2e-05 2e-05 2e-05 
2e-05 2e-05 2e-05 2e-05 2e-05 2e-05 2e-05 2e-05 2e-05 
2e-05 2e-05 2e-05 2e-05 2e-05 2e-05 2e-05 2e-05 2e-05 
2e-05 2e-05 2e-05 2e-05 2e-05 2e-05 2e-05 7.5e-05 2e-05 
2e-05 2e-05 2e-05 2e-05 2e-05 2e-05 2e-05 2e-05 2e-05 
2e-05 2e-05 2e-05 2e-05 2e-05 2e-05 2e-05 2e-05 2e-05 
2e-05 2e-05 2e-05 2e-05 2e-05 2e-05 2e-05 2e-05 2e-05 
2e-05 2e-05 2e-05 2e-05 2e-05 2e-05 2e-05 2e-05 2e-05 
2e-05 2e-05 2e-05 2e-05 2e-05 2e-05 2e-05 2e-05 2e-05 
2e-05 2e-05 2e-05 2e-05 2e-05 2e-05 2e-05 2e-05 2e-05 
2e-05 2e-05 2e-05 2e-05 2e-05 2e-05 2e-05 2e-05 2e-05 
2e-05 2e-05 2e-05 2e-05 2e-05 2e-05 2e-05 2e-05 2e-05 
2e-05 2e-05 2e-05 2e-05 2e-05 2e-05 2e-05 2e-05 2e-05 
2e-05 2e-05 2e-05 2e-05 2e-05 2e-05 2e-05 2e-05 2e-05 
2e-05 2e-05 2e-05 2e-05 2e-05 2e-05 2e-05 2e-05 2e-05 
2e-05 2e-05 2e-05 2e-05 2e-05 2e-05 2e-05 2e-05 2e-05 
2e-05 2e-05 2e-05 2e-05 2e-05 2e-05 2e-05 2e-05 2e-05 
2e-05 2e-05 2e-05 2e-05 2e-05 2e-05 2e-05 2e-05 2e-05 
2e-05 2e-05 2e-05 2e-05 2e-05 2e-05 2e-05 2e-05 2e-05 
2e-05 2e-05 7.5e-05 2e-05 2e-05 2e-05 2e-05 2e-05 2e-05 
2e-05 2e-05 2e-05 2e-05 2e-05 2e-05 2e-05 2e-05 2e-05 
2e-05 2e-05 2e-05 2e-05 2e-05 2e-05 2e-05 2e-05 2e-05 
2e-05 2e-05 2e-05 2e-05 2e-05 2e-05 2e-05 2e-05 2e-05 
2e-05 0.0003 2e-05 2e-05 2e-05 2e-05 2e-05 2e-05 2e-05 
2e-05 2e-05 2e-05 2e-05 2e-05 2e-05 2e-05 2e-05 2e-05 
2e-05 2e-05 2e-05 2e-05 2e-05 2e-05 2e-05 2e-05 2e-05 
2e-05 2e-05 2e-05 2e-05 2e-05 2e-05 2e-05 2e-05 2e-05 
2e-05 2e-05 2e-05 2e-05 2e-05 2e-05 2e-05 2e-05 2e-05 
2e-05 2e-05 2e-05 2e-05 2e-05 2e-05 2e-05 2e-05 2e-05 
2e-05 2e-05 7.5e-05 2e-05 2e-05 2e-05 2e-05 2e-05 2e-05 
2e-05 2e-05 2e-05 7.5e-05 2e-05 2e-05 2e-05 2e-05 2e-05 
2e-05 2e-05 2e-05 2e-05 2e-05 2e-05 2e-05 2e-05 2e-05 
2e-05 2e-05 2e-05 2e-05 2e-05 2e-05 2e-05 2e-05 2e-05 
2e-05 2e-05 2e-05 2e-05 2e-05 2e-05 2e-05 2e-05 2e-05 
2e-05 2e-05 2e-05 2e-05 2e-05 2e-05 2e-05 2e-05 2e-05 
2e-05 2e-05 2e-05 2e-05 2e-05 2e-05 2e-05 2e-05 2e-05 
2e-05 2e-05 2e-05 2e-05 2e-05 2e-05 2e-05 2e-05 2e-05 
2e-05 2e-05 2e-05 2e-05 2e-05 2e-05 2e-05 2e-05 2e-05 
2e-05 2e-05 2e-05 2e-05 2e-05 2e-05 2e-05 2e-05 2e-05 
2e-05 2e-05 2e-05 2e-05 2e-05 2e-05 2e-05 2e-05 2e-05 
2e-05 2e-05 2e-05 2e-05 2e-05 2e-05 2e-05 2e-05 2e-05 
2e-05 2e-05 2e-05 2e-05 2e-05 2e-05 2e-05 2e-05 2e-05 
2e-05 2e-05 2e-05 2e-05 2e-05 2e-05 2e-05 2e-05 2e-05 
2e-05 2e-05 2e-05 2e-05 2e-05 2e-05 2e-05 2e-05 7.5e-05 
2e-05 2e-05 2e-05 2e-05 2e-05 2e-05 2e-05 2e-05 2e-05 
2e-05 2e-05 2e-05 2e-05 2e-05 2e-05 2e-05 
omega 3 610 double
0 0 0 0 0 0 0 0 0 
0 0 0 0 0 0 0 0 0 
0 0 0 0 0 0 0 0 0 
0 0 0 0 0 0 0 0 0 
0 0 0 0 0 0 0 0 0 
0 0 0 0 0 0 0 0 0 
0 0 0 0 0 0 0 0 0 
0 0 0 0 0 0 0 0 0 
0 0 0 0 0 0 0 0 0 
0 0 0 0 0 0 0 0 0 
0 0 0 0 0 0 0 0 0 
0 0 0 0 0 0 0 0 0 
0 0 0 0 0 0 0 0 0 
0 0 0 0 0 0 0 0 0 
0 0 0 0 0 0 0 0 0 
0 0 0 0 0 0 0 0 0 
0 0 0 0 0 0 0 0 0 
0 0 0 0 0 0 0 0 0 
0 0 0 0 0 0 0 0 0 
0 0 0 0 0 0 0 0 0 
0 0 0 0 0 0 0 0 0 
0 0 0 0 0 0 0 0 0 
0 0 0 0 0 0 0 0 0 
0 0 0 0 0 0 0 0 0 
0 0 0 0 0 0 0 0 0 
0 0 0 0 0 0 0 0 0 
0 0 0 0 0 0 0 0 0 
0 0 0 0 0 0 0 0 0 
0 0 0 0 0 0 0 0 0 
0 0 0 0 0 0 0 0 0 
0 0 0 0 0 0 0 0 0 
0 0 0 0 0 0 0 0 0 
0 0 0 0 0 0 0 0 0 
0 0 0 0 0 0 0 0 0 
0 0 0 0 0 0 0 0 0 
0 0 0 0 0 0 0 0 0 
0 0 0 0 0 0 0 0 0 
0 0 0 0 0 0 0 0 0 
0 0 0 0 0 0 0 0 0 
0 0 0 0 0 0 0 0 0 
0 0 0 0 0 0 0 0 0 
0 0 0 0 0 0 0 0 0 
0 0 0 0 0 0 0 0 0 
0 0 0 0 0 0 0 0 0 
0 0 0 0 0 0 0 0 0 
0 0 0 0 0 0 0 0 0 
0 0 0 0 0 0 0 0 0 
0 0 0 0 0 0 0 0 0 
0 0 0 0 0 0 0 0 0 
0 0 0 0 0 0 0 0 0 
0 0 0 0 0 0 0 0 0 
0 0 0 0 0 0 0 0 0 
0 0 0 0 0 0 0 0 0 
0 0 0 0 0 0 0 0 0 
0 0 0 0 0 0 0 0 0 
0 0 0 0 0 0 0 0 0 
0 0 0 0 0 0 0 0 0 
0 0 0 0 0 0 0 0 0 
0 0 0 0 0 0 0 0 0 
0 0 0 0 0 0 0 0 0 
0 0 0 0 0 0 0 0 0 
0 0 0 0 0 0 0 0 0 
0 0 0 0 0 0 0 0 0 
0 0 0 0 0 0 0 0 0 
0 0 0 0 0 0 0 0 0 
0 0 0 0 0 0 0 0 0 
0 0 0 0 0 0 0 0 0 
0 0 0 0 0 0 0 0 0 
0 0 0 0 0 0 0 0 0 
0 0 0 0 0 0 0 0 0 
0 0 0 0 0 0 0 0 0 
0 0 0 0 0 0 0 0 0 
0 0 0 0 0 0 0 0 0 
0 0 0 0 0 0 0 0 0 
0 0 0 0 0 0 0 0 0 
0 0 0 0 0 0 0 0 0 
0 0 0 0 0 0 0 0 0 
0 0 0 0 0 0 0 0 0 
0 0 0 0 0 0 0 0 0 
0 0 0 0 0 0 0 0 0 
0 0 0 0 0 0 0 0 0 
0 0 0 0 0 0 0 0 0 
0 0 0 0 0 0 0 0 0 
0 0 0 0 0 0 0 0 0 
0 0 0 0 0 0 0 0 0 
0 0 0 0 0 0 0 0 0 
0 0 0 0 0 0 0 0 0 
0 0 0 0 0 0 0 0 0 
0 0 0 0 0 0 0 0 0 
0 0 0 0 0 0 0 0 0 
0 0 0 0 0 0 0 0 0 
0 0 0 0 0 0 0 0 0 
0 0 0 0 0 0 0 0 0 
0 0 0 0 0 0 0 0 0 
0 0 0 0 0 0 0 0 0 
0 0 0 0 0 0 0 0 0 
0 0 0 0 0 0 0 0 0 
0 0 0 0 0 0 0 0 0 
0 0 0 0 0 0 0 0 0 
0 0 0 0 0 0 0 0 0 
0 0 0 0 0 0 0 0 0 
0 0 0 0 0 0 0 0 0 
0 0 0 0 0 0 0 0 0 
0 0 0 0 0 0 0 0 0 
0 0 0 0 0 0 0 0 0 
0 0 0 0 0 0 0 0 0 
0 0 0 0 0 0 0 0 0 
0 0 0 0 0 0 0 0 0 
0 0 0 0 0 0 0 0 0 
0 0 0 0 0 0 0 0 0 
0 0 0 0 0 0 0 0 0 
0 0 0 0 0 0 0 0 0 
0 0 0 0 0 0 0 0 0 
0 0 0 0 0 0 0 0 0 
0 0 0 0 0 0 0 0 0 
0 0 0 0 0 0 0 0 0 
0 0 0 0 0 0 0 0 0 
0 0 0 0 0 0 0 0 0 
0 0 0 0 0 0 0 0 0 
0 0 0 0 0 0 0 0 0 
0 0 0 0 0 0 0 0 0 
0 0 0 0 0 0 0 0 0 
0 0 0 0 0 0 0 0 0 
0 0 0 0 0 0 0 0 0 
0 0 0 0 0 0 0 0 0 
0 0 0 0 0 0 0 0 0 
0 0 0 0 0 0 0 0 0 
0 0 0 0 0 0 0 0 0 
0 0 0 0 0 0 0 0 0 
0 0 0 0 0 0 0 0 0 
0 0 0 0 0 0 0 0 0 
0 0 0 0 0 0 0 0 0 
0 0 0 0 0 0 0 0 0 
0 0 0 0 0 0 0 0 0 
0 0 0 0 0 0 0 0 0 
0 0 0 0 0 0 0 0 0 
0 0 0 0 0 0 0 0 0 
0 0 0 0 0 0 0 0 0 
0 0 0 0 0 0 0 0 0 
0 0 0 0 0 0 0 0 0 
0 0 0 0 0 0 0 0 0 
0 0 0 0 0 0 0 0 0 
0 0 0 0 0 0 0 0 0 
0 0 0 0 0 0 0 0 0 
0 0 0 0 0 0 0 0 0 
0 0 0 0 0 0 0 0 0 
0 0 0 0 0 0 0 0 0 
0 0 0 0 0 0 0 0 0 
0 0 0 0 0 0 0 0 0 
0 0 0 0 0 0 0 0 0 
0 0 0 0 0 0 0 0 0 
0 0 0 0 0 0 0 0 0 
0 0 0 0 0 0 0 0 0 
0 0 0 0 0 0 0 0 0 
0 0 0 0 0 0 0 0 0 
0 0 0 0 0 0 0 0 0 
0 0 0 0 0 0 0 0 0 
0 0 0 0 0 0 0 0 0 
0 0 0 0 0 0 0 0 0 
0 0 0 0 0 0 0 0 0 
0 0 0 0 0 0 0 0 0 
0 0 0 0 0 0 0 0 0 
0 0 0 0 0 0 0 0 0 
0 0 0 0 0 0 0 0 0 
0 0 0 0 0 0 0 0 0 
0 0 0 0 0 0 0 0 0 
0 0 0 0 0 0 0 0 0 
0 0 0 0 0 0 0 0 0 
0 0 0 0 0 0 0 0 0 
0 0 0 0 0 0 0 0 0 
0 0 0 0 0 0 0 0 0 
0 0 0 0 0 0 0 0 0 
0 0 0 0 0 0 0 0 0 
0 0 0 0 0 0 0 0 0 
0 0 0 0 0 0 0 0 0 
0 0 0 0 0 0 0 0 0 
0 0 0 0 0 0 0 0 0 
0 0 0 0 0 0 0 0 0 
0 0 0 0 0 0 0 0 0 
0 0 0 0 0 0 0 0 0 
0 0 0 0 0 0 0 0 0 
0 0 0 0 0 0 0 0 0 
0 0 0 0 0 0 0 0 0 
0 0 0 0 0 0 0 0 0 
0 0 0 0 0 0 0 0 0 
0 0 0 0 0 0 0 0 0 
0 0 0 0 0 0 0 0 0 
0 0 0 0 0 0 0 0 0 
0 0 0 0 0 0 0 0 0 
0 0 0 0 0 0 0 0 0 
0 0 0 0 0 0 0 0 0 
0 0 0 0 0 0 0 0 0 
0 0 0 0 0 0 0 0 0 
0 0 0 0 0 0 0 0 0 
0 0 0 0 0 0 0 0 0 
0 0 0 0 0 0 0 0 0 
0 0 0 0 0 0 0 0 0 
0 0 0 0 0 0 0 0 0 
0 0 0 0 0 0 0 0 0 
0 0 0 0 0 0 0 0 0 
0 0 0 0 0 0 0 0 0 
0 0 0 0 0 0 0 0 0 
0 0 0 0 0 0 0 0 0 
0 0 0 
fx_mag_viz 1 610 double
0 0 0 0 0 0 0 0 0 
0 0 0 0 0 0 0 0 0 
0 0 0 0 0 0 0 0 0 
0 0 0 0 0 0 0 0 0 
0 0 0 0 0 0 0 0 0 
0 0 0 0 0 0 0 0 0 
0 0 0 0 0 0 0 0 0 
0 0 0 0 0 0 0 0 0 
0 0 0 0 0 0 0 0 0 
0 0 0 0 0 0 0 0 0 
0 0 0 0 0 0 0 0 0 
0 0 0 0 0 0 0 0 0 
0 0 0 0 0 0 0 0 0 
0 0 0 0 0 0 0 0 0 
0 0 0 0 0 0 0 0 0 
0 0 0 0 0 0 0 0 0 
0 0 0 0 0 0 0 0 0 
0 0 0 0 0 0 0 0 0 
0 0 0 0 0 0 0 0 0 
0 0 0 0 0 0 0 0 0 
0 0 0 0 0 0 0 0 0 
0 0 0 0 0 0 0 0 0 
0 0 0 0 0 0 0 0 0 
0 0 0 0 0 0 0 0 0 
0 0 0 0 0 0 0 0 0 
0 0 0 0 0 0 0 0 0 
0 0 0 0 0 0 0 0 0 
0 0 0 0 0 0 0 0 0 
0 0 0 0 0 0 0 0 0 
0 0 0 0 0 0 0 0 0 
0 0 0 0 0 0 0 0 0 
0 0 0 0 0 0 0 0 0 
0 0 0 0 0 0 0 0 0 
0 0 0 0 0 0 0 0 0 
0 0 0 0 0 0 0 0 0 
0 0 0 0 0 0 0 0 0 
0 0 0 0 0 0 0 0 0 
0 0 0 0 0 0 0 0 0 
0 0 0 0 0 0 0 0 0 
0 0 0 0 0 0 0 0 0 
0 0 0 0 0 0 0 0 0 
0 0 0 0 0 0 0 0 0 
0 0 0 0 0 0 0 0 0 
0 0 0 0 0 0 0 0 0 
0 0 0 0 0 0 0 0 0 
0 0 0 0 0 0 0 0 0 
0 0 0 0 0 0 0 0 0 
0 0 0 0 0 0 0 0 0 
0 0 0 0 0 0 0 0 0 
0 0 0 0 0 0 0 0 0 
0 0 0 0 0 0 0 0 0 
0 0 0 0 0 0 0 0 0 
0 0 0 0 0 0 0 0 0 
0 0 0 0 0 0 0 0 0 
0 0 0 0 0 0 0 0 0 
0 0 0 0 0 0 0 0 0 
0 0 0 0 0 0 0 0 0 
0 0 0 0 0 0 0 0 0 
0 0 0 0 0 0 0 0 0 
0 0 0 0 0 0 0 0 0 
0 0 0 0 0 0 0 0 0 
0 0 0 0 0 0 0 0 0 
0 0 0 0 0 0 0 0 0 
0 0 0 0 0 0 0 0 0 
0 0 0 0 0 0 0 0 0 
0 0 0 0 0 0 0 0 0 
0 0 0 0 0 0 0 0 0 
0 0 0 0 0 0 0 
fy_mag_viz 1 610 double
0 0 0 0 0 0 0 0 0 
0 0 0 0 0 0 0 0 0 
0 0 0 0 0 0 0 0 0 
0 0 0 0 0 0 0 0 0 
0 0 0 0 0 0 0 0 0 
0 0 0 0 0 0 0 0 0 
0 0 0 0 0 0 0 0 0 
0 0 0 0 0 0 0 0 0 
0 0 0 0 0 0 0 0 0 
0 0 0 0 0 0 0 0 0 
0 0 0 0 0 0 0 0 0 
0 0 0 0 0 0 0 0 0 
0 0 0 0 0 0 0 0 0 
0 0 0 0 0 0 0 0 0 
0 0 0 0 0 0 0 0 0 
0 0 0 0 0 0 0 0 0 
0 0 0 0 0 0 0 0 0 
0 0 0 0 0 0 0 0 0 
0 0 0 0 0 0 0 0 0 
0 0 0 0 0 0 0 0 0 
0 0 0 0 0 0 0 0 0 
0 0 0 0 0 0 0 0 0 
0 0 0 0 0 0 0 0 0 
0 0 0 0 0 0 0 0 0 
0 0 0 0 0 0 0 0 0 
0 0 0 0 0 0 0 0 0 
0 0 0 0 0 0 0 0 0 
0 0 0 0 0 0 0 0 0 
0 0 0 0 0 0 0 0 0 
0 0 0 0 0 0 0 0 0 
0 0 0 0 0 0 0 0 0 
0 0 0 0 0 0 0 0 0 
0 0 0 0 0 0 0 0 0 
0 0 0 0 0 0 0 0 0 
0 0 0 0 0 0 0 0 0 
0 0 0 0 0 0 0 0 0 
0 0 0 0 0 0 0 0 0 
0 0 0 0 0 0 0 0 0 
0 0 0 0 0 0 0 0 0 
0 0 0 0 0 0 0 0 0 
0 0 0 0 0 0 0 0 0 
0 0 0 0 0 0 0 0 0 
0 0 0 0 0 0 0 0 0 
0 0 0 0 0 0 0 0 0 
0 0 0 0 0 0 0 0 0 
0 0 0 0 0 0 0 0 0 
0 0 0 0 0 0 0 0 0 
0 0 0 0 0 0 0 0 0 
0 0 0 0 0 0 0 0 0 
0 0 0 0 0 0 0 0 0 
0 0 0 0 0 0 0 0 0 
0 0 0 0 0 0 0 0 0 
0 0 0 0 0 0 0 0 0 
0 0 0 0 0 0 0 0 0 
0 0 0 0 0 0 0 0 0 
0 0 0 0 0 0 0 0 0 
0 0 0 0 0 0 0 0 0 
0 0 0 0 0 0 0 0 0 
0 0 0 0 0 0 0 0 0 
0 0 0 0 0 0 0 0 0 
0 0 0 0 0 0 0 0 0 
0 0 0 0 0 0 0 0 0 
0 0 0 0 0 0 0 0 0 
0 0 0 0 0 0 0 0 0 
0 0 0 0 0 0 0 0 0 
0 0 0 0 0 0 0 0 0 
0 0 0 0 0 0 0 0 0 
0 0 0 0 0 0 0 
fz_mag_viz 1 610 double
0 0 0 0 0 0 0 0 0 
0 0 0 0 0 0 0 0 0 
0 0 0 0 0 0 0 0 0 
0 0 0 0 0 0 0 0 0 
0 0 0 0 0 0 0 0 0 
0 0 0 0 0 0 0 0 0 
0 0 0 0 0 0 0 0 0 
0 0 0 0 0 0 0 0 0 
0 0 0 0 0 0 0 0 0 
0 0 0 0 0 0 0 0 0 
0 0 0 0 0 0 0 0 0 
0 0 0 0 0 0 0 0 0 
0 0 0 0 0 0 0 0 0 
0 0 0 0 0 0 0 0 0 
0 0 0 0 0 0 0 0 0 
0 0 0 0 0 0 0 0 0 
0 0 0 0 0 0 0 0 0 
0 0 0 0 0 0 0 0 0 
0 0 0 0 0 0 0 0 0 
0 0 0 0 0 0 0 0 0 
0 0 0 0 0 0 0 0 0 
0 0 0 0 0 0 0 0 0 
0 0 0 0 0 0 0 0 0 
0 0 0 0 0 0 0 0 0 
0 0 0 0 0 0 0 0 0 
0 0 0 0 0 0 0 0 0 
0 0 0 0 0 0 0 0 0 
0 0 0 0 0 0 0 0 0 
0 0 0 0 0 0 0 0 0 
0 0 0 0 0 0 0 0 0 
0 0 0 0 0 0 0 0 0 
0 0 0 0 0 0 0 0 0 
0 0 0 0 0 0 0 0 0 
0 0 0 0 0 0 0 0 0 
0 0 0 0 0 0 0 0 0 
0 0 0 0 0 0 0 0 0 
0 0 0 0 0 0 0 0 0 
0 0 0 0 0 0 0 0 0 
0 0 0 0 0 0 0 0 0 
0 0 0 0 0 0 0 0 0 
0 0 0 0 0 0 0 0 0 
0 0 0 0 0 0 0 0 0 
0 0 0 0 0 0 0 0 0 
0 0 0 0 0 0 0 0 0 
0 0 0 0 0 0 0 0 0 
0 0 0 0 0 0 0 0 0 
0 0 0 0 0 0 0 0 0 
0 0 0 0 0 0 0 0 0 
0 0 0 0 0 0 0 0 0 
0 0 0 0 0 0 0 0 0 
0 0 0 0 0 0 0 0 0 
0 0 0 0 0 0 0 0 0 
0 0 0 0 0 0 0 0 0 
0 0 0 0 0 0 0 0 0 
0 0 0 0 0 0 0 0 0 
0 0 0 0 0 0 0 0 0 
0 0 0 0 0 0 0 0 0 
0 0 0 0 0 0 0 0 0 
0 0 0 0 0 0 0 0 0 
0 0 0 0 0 0 0 0 0 
0 0 0 0 0 0 0 0 0 
0 0 0 0 0 0 0 0 0 
0 0 0 0 0 0 0 0 0 
0 0 0 0 0 0 0 0 0 
0 0 0 0 0 0 0 0 0 
0 0 0 0 0 0 0 0 0 
0 0 0 0 0 0 0 0 0 
0 0 0 0 0 0 0 
B_magnitude 1 610 double
0 0 0 0 0 0 0 0 0 
0 0 0 0 0 0 0 0 0 
0 0 0 0 0 0 0 0 0 
0 0 0 0 0 0 0 0 0 
0 0 0 0 0 0 0 0 0 
0 0 0 0 0 0 0 0 0 
0 0 0 0 0 0 0 0 0 
0 0 0 0 0 0 0 0 0 
0 0 0 0 0 0 0 0 0 
0 0 0 0 0 0 0 0 0 
0 0 0 0 0 0 0 0 0 
0 0 0 0 0 0 0 0 0 
0 0 0 0 0 0 0 0 0 
0 0 0 0 0 0 0 0 0 
0 0 0 0 0 0 0 0 0 
0 0 0 0 0 0 0 0 0 
0 0 0 0 0 0 0 0 0 
0 0 0 0 0 0 0 0 0 
0 0 0 0 0 0 0 0 0 
0 0 0 0 0 0 0 0 0 
0 0 0 0 0 0 0 0 0 
0 0 0 0 0 0 0 0 0 
0 0 0 0 0 0 0 0 0 
0 0 0 0 0 0 0 0 0 
0 0 0 0 0 0 0 0 0 
0 0 0 0 0 0 0 0 0 
0 0 0 0 0 0 0 0 0 
0 0 0 0 0 0 0 0 0 
0 0 0 0 0 0 0 0 0 
0 0 0 0 0 0 0 0 0 
0 0 0 0 0 0 0 0 0 
0 0 0 0 0 0 0 0 0 
0 0 0 0 0 0 0 0 0 
0 0 0 0 0 0 0 0 0 
0 0 0 0 0 0 0 0 0 
0 0 0 0 0 0 0 0 0 
0 0 0 0 0 0 0 0 0 
0 0 0 0 0 0 0 0 0 
0 0 0 0 0 0 0 0 0 
0 0 0 0 0 0 0 0 0 
0 0 0 0 0 0 0 0 0 
0 0 0 0 0 0 0 0 0 
0 0 0 0 0 0 0 0 0 
0 0 0 0 0 0 0 0 0 
0 0 0 0 0 0 0 0 0 
0 0 0 0 0 0 0 0 0 
0 0 0 0 0 0 0 0 0 
0 0 0 0 0 0 0 0 0 
0 0 0 0 0 0 0 0 0 
0 0 0 0 0 0 0 0 0 
0 0 0 0 0 0 0 0 0 
0 0 0 0 0 0 0 0 0 
0 0 0 0 0 0 0 0 0 
0 0 0 0 0 0 0 0 0 
0 0 0 0 0 0 0 0 0 
0 0 0 0 0 0 0 0 0 
0 0 0 0 0 0 0 0 0 
0 0 0 0 0 0 0 0 0 
0 0 0 0 0 0 0 0 0 
0 0 0 0 0 0 0 0 0 
0 0 0 0 0 0 0 0 0 
0 0 0 0 0 0 0 0 0 
0 0 0 0 0 0 0 0 0 
0 0 0 0 0 0 0 0 0 
0 0 0 0 0 0 0 0 0 
0 0 0 0 0 0 0 0 0 
0 0 0 0 0 0 0 0 0 
0 0 0 0 0 0 0 
B_gradient_mag 1 610 double
0 0 0 0 0 0 0 0 0 
0 0 0 0 0 0 0 0 0 
0 0 0 0 0 0 0 0 0 
0 0 0 0 0 0 0 0 0 
0 0 0 0 0 0 0 0 0 
0 0 0 0 0 0 0 0 0 
0 0 0 0 0 0 0 0 0 
0 0 0 0 0 0 0 0 0 
0 0 0 0 0 0 0 0 0 
0 0 0 0 0 0 0 0 0 
0 0 0 0 0 0 0 0 0 
0 0 0 0 0 0 0 0 0 
0 0 0 0 0 0 0 0 0 
0 0 0 0 0 0 0 0 0 
0 0 0 0 0 0 0 0 0 
0 0 0 0 0 0 0 0 0 
0 0 0 0 0 0 0 0 0 
0 0 0 0 0 0 0 0 0 
0 0 0 0 0 0 0 0 0 
0 0 0 0 0 0 0 0 0 
0 0 0 0 0 0 0 0 0 
0 0 0 0 0 0 0 0 0 
0 0 0 0 0 0 0 0 0 
0 0 0 0 0 0 0 0 0 
0 0 0 0 0 0 0 0 0 
0 0 0 0 0 0 0 0 0 
0 0 0 0 0 0 0 0 0 
0 0 0 0 0 0 0 0 0 
0 0 0 0 0 0 0 0 0 
0 0 0 0 0 0 0 0 0 
0 0 0 0 0 0 0 0 0 
0 0 0 0 0 0 0 0 0 
0 0 0 0 0 0 0 0 0 
0 0 0 0 0 0 0 0 0 
0 0 0 0 0 0 0 0 0 
0 0 0 0 0 0 0 0 0 
0 0 0 0 0 0 0 0 0 
0 0 0 0 0 0 0 0 0 
0 0 0 0 0 0 0 0 0 
0 0 0 0 0 0 0 0 0 
0 0 0 0 0 0 0 0 0 
0 0 0 0 0 0 0 0 0 
0 0 0 0 0 0 0 0 0 
0 0 0 0 0 0 0 0 0 
0 0 0 0 0 0 0 0 0 
0 0 0 0 0 0 0 0 0 
0 0 0 0 0 0 0 0 0 
0 0 0 0 0 0 0 0 0 
0 0 0 0 0 0 0 0 0 
0 0 0 0 0 0 0 0 0 
0 0 0 0 0 0 0 0 0 
0 0 0 0 0 0 0 0 0 
0 0 0 0 0 0 0 0 0 
0 0 0 0 0 0 0 0 0 
0 0 0 0 0 0 0 0 0 
0 0 0 0 0 0 0 0 0 
0 0 0 0 0 0 0 0 0 
0 0 0 0 0 0 0 0 0 
0 0 0 0 0 0 0 0 0 
0 0 0 0 0 0 0 0 0 
0 0 0 0 0 0 0 0 0 
0 0 0 0 0 0 0 0 0 
0 0 0 0 0 0 0 0 0 
0 0 0 0 0 0 0 0 0 
0 0 0 0 0 0 0 0 0 
0 0 0 0 0 0 0 0 0 
0 0 0 0 0 0 0 0 0 
0 0 0 0 0 0 0 
