# vtk DataFile Version 5.1
Generated by LIGGGHTS
ASCII
DATASET POLYDATA
POINTS 648 float
-0.0428902 -0.0449088 0.00102 -0.0346971 -0.0446764 0.00104095 -0.00340304 -0.0448428 0.00102078 
-0.044759 -0.0437614 0.00102 -0.0335565 -0.0442122 0.00102 -0.0308094 -0.0435702 0.00102 
-0.027409 -0.0433703 0.00105878 0.0145521 -0.0432303 0.00105363 0.0181024 -0.0433049 0.00102 
0.0416479 -0.0439733 0.00102484 -0.0248654 -0.0427111 0.00104571 0.0248068 -0.0428986 0.00105052 
0.0348044 -0.042095 0.00102 0.0418836 -0.0421436 0.00102 -0.0349861 -0.0412827 0.00104431 
-0.00674967 -0.0416523 0.00102 0.000425919 -0.0415728 0.00123007 0.0166138 -0.0412108 0.00110981 
0.0238162 -0.0409762 0.0012631 0.0414821 -0.0410789 0.00102 -0.042922 -0.0404536 0.00102 
-0.0334706 -0.0396012 0.00102 -0.0248652 -0.040212 0.00102 -0.018434 -0.0405477 0.00102 
-0.0169239 -0.0402939 0.00104471 -0.00670669 -0.0394183 0.00106144 0.0244803 -0.0401788 0.00102057 
0.040047 -0.0404588 0.00102 -0.0108246 -0.0388127 0.00102 -0.00302782 -0.0385948 0.00102 
0.0156715 -0.0391733 0.00102 -0.0370475 -0.0370945 0.00113256 0.00798734 -0.0367051 0.00102 
0.00985621 -0.0367022 0.0010566 0.0308099 -0.0378456 0.00102 0.0397687 -0.0374633 0.00106627 
-0.0439713 -0.0357399 0.00106436 -0.0309963 -0.0355024 0.001278 -0.0273176 -0.0361067 0.00103893 
-0.0168273 -0.0360331 0.00102 -0.00161929 -0.0353994 0.00125335 0.000822496 -0.0363122 0.00102 
0.00594186 -0.0351889 0.00102 0.00879071 -0.0344865 0.00106641 0.0333162 -0.0342631 0.00102 
0.0403097 -0.0347888 0.00121655 0.0433459 -0.0353282 0.00110805 -0.0427235 -0.0332389 0.001071 
-0.0161578 -0.0337243 0.00109453 -0.00586029 -0.0338127 0.00102 0.023158 -0.0340207 0.00102 
0.0244271 -0.0334586 0.00102 0.027474 -0.0338615 0.00127344 -0.0376897 -0.0314333 0.00109129 
-0.0262624 -0.032473 0.00102 -0.0232422 -0.0321576 0.00102 -0.0160452 -0.0323821 0.00121627 
0.00802514 -0.031483 0.00105753 0.0268369 -0.0315202 0.00131279 0.0346336 -0.0325969 0.00102 
-0.0386911 -0.0311434 0.00125046 -0.0266532 -0.0301716 0.00102 -0.0105296 -0.0314142 0.00102 
0.0280204 -0.0311414 0.00102 0.0449741 -0.0303513 0.00102 -0.0448384 -0.0296834 0.00102 
-0.0414327 -0.0290659 0.00111844 0.00231692 -0.0294453 0.00110665 0.0346338 -0.0290927 0.00102 
-0.0401314 -0.0280847 0.00119164 0.00577088 -0.0287415 0.00102 0.0164647 -0.0275391 0.0010206 
-0.0430551 -0.0267583 0.00102 -0.00580099 -0.0272788 0.00106485 0.000892701 -0.0263701 0.00102 
0.0101031 -0.0273014 0.00114504 -0.0338231 -0.0250135 0.00102004 -0.00446216 -0.0255279 0.0010434 
0.0306875 -0.0259396 0.00102 0.033456 -0.0256735 0.00102 0.032808 -0.025967 0.00102 
-0.00863888 -0.0237376 0.00129286 0.00179778 -0.0247441 0.00112382 0.0155599 -0.0240909 0.00105403 
-0.0408326 -0.0234295 0.00102 -0.0350278 -0.0224863 0.00110413 -0.0127621 -0.0231756 0.001239 
0.0115492 -0.0227248 0.00120046 0.0240101 -0.0228809 0.00127361 0.035159 -0.023363 0.0010983 
-0.0329608 -0.0218045 0.00113835 -0.0225401 -0.0213878 0.00102 -0.0164034 -0.0216001 0.0013136 
0.00623721 -0.0211799 0.00102 0.0233461 -0.0214624 0.00102 0.039775 -0.0211058 0.00102 
0.0436787 -0.0219137 0.00102 -0.00827992 -0.020547 0.00102082 0.0336491 -0.0197505 0.00102 
-0.0296942 -0.0196153 0.00102 -0.0108877 -0.0188832 0.00102 0.00156248 -0.0194187 0.00102 
0.0363266 -0.0194176 0.00102 -0.0317771 -0.0175651 0.00102 -0.0204621 -0.0172006 0.00104004 
-0.0100897 -0.0180162 0.00102 0.0030191 -0.0179247 0.00102 0.0404767 -0.0183151 0.00102 
-0.0426154 -0.0165053 0.00102 -0.0405162 -0.0161033 0.00105993 -0.0339565 -0.0167518 0.00102 
-0.0257955 -0.0157834 0.00102 -0.0147645 -0.0165889 0.00114863 0.0223879 -0.0163393 0.00102 
0.038292 -0.016257 0.00129281 -0.0408642 -0.0154151 0.00128251 -0.015814 -0.0152491 0.0010498 
-0.00444012 -0.0151621 0.00102 0.0198229 -0.0156851 0.00102 0.0249316 -0.014475 0.00105929 
0.0268005 -0.0146468 0.00108063 0.0375745 -0.0151367 0.00104885 -0.0388614 -0.0136303 0.00102 
-0.0329121 -0.0139828 0.0010733 -0.0313057 -0.0141988 0.00115046 -0.0227164 -0.0141288 0.00102 
-0.0186412 -0.0134353 0.00128261 -0.0117656 -0.0138394 0.00102 0.0403752 -0.0143085 0.00122157 
-0.0341597 -0.0122829 0.00104496 -0.0327621 -0.0121928 0.00124768 0.0176437 -0.0119747 0.00102 
0.00689113 -0.0107816 0.00102 0.0277003 -0.0107969 0.00102 -0.038829 -0.00978443 0.00117311 
-0.0222502 -0.00974669 0.00102 -0.0196799 -0.00931279 0.00102011 -0.0136128 -0.00979682 0.0011061 
-0.0112192 -0.0104501 0.00102 0.00743742 -0.00926665 0.00102 0.013874 -0.00963069 0.00102 
0.0251729 -0.00985964 0.00102 0.0286804 -0.00919085 0.00102 0.0313953 -0.00974065 0.00102 
0.0350526 -0.0102353 0.00102 -0.042331 -0.00792816 0.0012348 -0.00553214 -0.00871323 0.00102 
-0.00254943 -0.00825679 0.00102 -0.0343844 -0.0078404 0.00109943 -0.0304645 -0.00701594 0.00107617 
-0.0214415 -0.007536 0.00120002 -0.0198564 -0.00683511 0.00102 -0.00433253 -0.00676057 0.00108214 
-0.00401126 -0.00720159 0.00103289 0.0109664 -0.00760095 0.00102 0.0161928 -0.00760918 0.0012391 
0.0275881 -0.00673863 0.00103415 0.0404774 -0.00688032 0.00102368 -0.0129003 -0.00574839 0.00102 
-0.00747582 -0.00609419 0.00102 0.0387156 -0.00624884 0.00102 -0.040885 -0.00406647 0.00102025 
0.00937085 -0.00418454 0.00102 0.0131353 -0.00504642 0.00102 0.0180565 -0.00487531 0.00115431 
0.0180458 -0.00470109 0.001077 0.021323 -0.00444137 0.00102 -0.042786 -0.00359954 0.00102463 
-0.0179231 -0.00300678 0.00102 -0.0141425 -0.00311887 0.00102 -0.0120059 -0.00345367 0.00102775 
-0.00941413 -0.00330341 0.0010711 0.00975646 -0.00313231 0.00127263 0.0293019 -0.00298432 0.0012692 
-0.0408474 -0.00214648 0.00102347 -0.0198668 -0.00211416 0.00112265 -0.00896956 -0.00131708 0.00121601 
0.00664535 -0.00164817 0.00102426 0.0168839 -0.00210364 0.00123934 -0.0376932 -0.000132947 0.00109403 
-0.0281455 -0.00127675 0.00102 -0.0283489 -0.000417126 0.00110183 -0.00783961 -0.000387029 0.00102 
-0.00702036 -0.00121172 0.00102 0.0140084 -6.89735e-05 0.00105262 0.0290986 -0.000251763 0.00102 
-0.0260142 0.00017485 0.00102 0.0384376 0.000848974 0.00102 -0.00967086 0.00179773 0.00102 
0.00417698 0.0024455 0.00102 0.0116524 0.00206193 0.00109977 0.0147261 0.00139147 0.00102 
0.0188762 0.00181355 0.00102 0.032558 0.00153523 0.00102 -0.0325416 0.00283857 0.00102 
0.00243665 0.00282786 0.00115948 0.0449494 0.00392273 0.00102 -0.025141 0.00447188 0.00102 
0.0292006 0.00433004 0.00102 0.0305447 0.00486582 0.00102 0.0323225 0.00436429 0.00105392 
0.0404406 0.00462082 0.00102 -0.037077 0.00611456 0.00102 -0.0287984 0.00559412 0.00102 
-0.0170872 0.00564833 0.00102 -0.00723413 0.00605583 0.00114209 0.0011249 0.00615697 0.00102 
0.0101693 0.00555192 0.00102017 0.021602 0.00540593 0.00102 0.0228765 0.00606581 0.00102 
0.0246705 0.0064451 0.00102 0.030759 0.00580352 0.00102011 -0.0426568 0.00723228 0.00102 
0.00533928 0.00728904 0.00102072 0.0221269 0.00728552 0.00102 0.0142017 0.0079404 0.00104638 
0.0202046 0.00840095 0.00105566 0.0283387 0.00890506 0.00102 0.0340899 0.00882812 0.00102 
-0.0392616 0.00972366 0.00102 -0.0214351 0.00957734 0.00102 -0.0101256 0.00978275 0.00102 
0.00978397 0.00922321 0.00119653 0.0197977 0.00963841 0.00102 0.0212596 0.00979192 0.00102 
0.0211953 0.00966092 0.00102 -0.0394276 0.0109375 0.00102 0.0399323 0.0117688 0.00102 
0.0398091 0.011618 0.00102 -0.0365733 0.0119208 0.00102596 -0.0350204 0.0121089 0.00115488 
-0.00279986 0.0127222 0.00102 0.00243185 0.0120975 0.00103578 0.00861143 0.0123591 0.00102 
0.0128044 0.0127337 0.00103771 0.014866 0.0127598 0.00102909 -0.0429188 0.0135204 0.00102643 
-0.034865 0.0142961 0.00102 -0.0310202 0.0131063 0.00102 8.23501e-07 0.0138406 0.00102 
0.00789931 0.0136568 0.00103242 0.0143092 0.0139794 0.00102 0.0248423 0.0143007 0.00102 
0.0287781 0.014071 0.00102 0.0336082 0.013194 0.00103809 0.0441199 0.0136981 0.00123859 
-0.0196462 0.0155185 0.00107504 -0.00307286 0.0144526 0.00102 0.000954082 0.0152563 0.00102022 
0.0121458 0.0151918 0.00102 0.0440772 0.0154938 0.00106003 0.00517921 0.0169249 0.00102 
0.0418335 0.0161761 0.00102 -0.0360536 0.0173104 0.00102 0.00546842 0.0177814 0.00111042 
0.0215224 0.0171285 0.00102 0.0226738 0.0181095 0.00105607 0.0256029 0.0175394 0.00129388 
0.0407412 0.0174253 0.00102 -0.0214239 0.0189608 0.00102 0.00395304 0.0187088 0.00102 
0.00757299 0.0192258 0.00102541 0.0090081 0.0191686 0.00102 0.0122157 0.0191756 0.00106217 
0.018015 0.0183735 0.00102 0.0388885 0.0193682 0.00105838 -0.0431379 0.0208085 0.00104831 
-0.023041 0.0197144 0.00102 -0.022709 0.0198803 0.00102 -0.0153727 0.020636 0.00102 
0.0350116 0.0207306 0.00126657 -0.0282566 0.021284 0.00102 -0.0287332 0.0215601 0.0010277 
-0.0122989 0.0222019 0.00121211 0.00128112 0.0217131 0.00102756 0.0123926 0.0218243 0.00102 
0.0398418 0.0217469 0.0012769 -0.0349287 0.0230684 0.00102422 -0.0295899 0.0232577 0.0010812 
0.00126512 0.0228658 0.00103265 0.0146363 0.0223077 0.00106464 0.03506 0.0228899 0.00102 
-0.0267196 0.0236159 0.00102 0.0181332 0.0246356 0.0011586 0.0258603 0.0235991 0.00102924 
0.0307708 0.0242663 0.00102 -0.0386663 0.0253433 0.00102 -0.00739359 0.0259593 0.00102 
0.0167463 0.0251763 0.00102 0.0226957 0.0260881 0.00102 -0.0267569 0.0263983 0.00102573 
-0.0114472 0.026715 0.00123271 -0.00563177 0.0268155 0.00102 0.00953871 0.0271324 0.00102 
0.0395905 0.0272142 0.00102 -0.0357156 0.0282031 0.00102 0.00834461 0.0278725 0.00124467 
-0.0127911 0.0299546 0.00102 0.0191509 0.0299648 0.00102 -0.0409258 0.0305044 0.00102 
-0.0313244 0.0314049 0.00102 -0.0219587 0.0304934 0.00124675 -0.0200898 0.0311527 0.00102 
-0.0108954 0.0304 0.00102365 0.00372347 0.0304157 0.00102 0.0038092 0.0311583 0.00102 
0.00519606 0.0301696 0.00113897 0.026696 0.03017 0.00102 0.0364634 0.0310238 0.00102 
0.0444958 0.0309554 0.00102 -0.0073504 0.0318329 0.00102 -0.00435696 0.0325462 0.001043 
0.00390562 0.0317225 0.00102 0.01325 0.0319187 0.00102 0.0191028 0.0315895 0.00107763 
0.0372507 0.0318783 0.0010381 -0.0425374 0.0333781 0.00110395 -0.0337286 0.0337045 0.00102 
-0.0264781 0.032823 0.00102 0.00727395 0.0332762 0.00123292 0.0214431 0.0335886 0.00120397 
0.00284552 0.0345861 0.00102 0.00317215 0.0343196 0.0011796 0.0231674 0.0340949 0.00102 
-0.041477 0.0364172 0.00102 -0.0407273 0.0358476 0.00105277 -0.00196307 0.0366495 0.00102042 
0.00888594 0.0360502 0.00102125 -0.0245447 0.0378537 0.00102 0.0297434 0.0373158 0.00102 
0.0439232 0.0371117 0.00115896 -0.00973825 0.0391656 0.00102 -0.00883869 0.0381834 0.00122343 
-0.00647711 0.0391566 0.00125859 -0.00585061 0.0388609 0.00113241 0.0165329 0.0385374 0.00102 
0.0238959 0.0383247 0.00102 -0.0375088 0.0393741 0.00102525 -0.0312382 0.0393096 0.00102 
-0.0112537 0.0395394 0.00102 0.0221021 0.0401282 0.00102 0.0251972 0.0393087 0.00102 
-0.0133259 0.0414802 0.00102 0.0163992 0.0415262 0.00102 0.0222253 0.0407186 0.00102 
-0.0390027 0.0421086 0.00102 0.00805094 0.0422278 0.0010373 0.0294278 0.0431452 0.00102 
-0.0205282 0.0432397 0.00102 -0.0181988 0.0434549 0.0010561 0.0114086 0.0440135 0.00105196 
0.0352701 0.0439749 0.00124767 0.0352379 0.0438995 0.00121645 0.0405446 0.0433429 0.00102 
0.0399235 0.0434757 0.00107161 0.0171919 0.0449185 0.00104757 0.0211706 0.0445491 0.00104774 
-0.00396528 -0.0444182 0.0014622 0.0195053 -0.043722 0.00117394 0.0131812 -0.0427533 0.00136369 
0.0201641 -0.0426709 0.00161819 -0.0136468 -0.0412372 0.00189044 0.0338942 -0.0410147 0.00134794 
0.0424299 -0.0409921 0.00137796 -0.0406141 -0.0405112 0.00162572 0.0341086 -0.0368686 0.00238299 
0.0195647 -0.0366528 0.00128449 0.0355384 -0.0354155 0.00183828 0.0077947 -0.0345433 0.00135749 
-0.0177803 -0.0340186 0.0021916 -0.0233761 -0.031813 0.00211979 -0.0220587 -0.0306349 0.00136854 
-0.0263426 -0.0292431 0.00142333 0.023019 -0.0293484 0.00123162 0.0392765 -0.0300093 0.00248151 
-0.0346801 -0.0287009 0.0015221 -0.0240024 -0.0280603 0.00144513 0.0153133 -0.0285941 0.00214776 
-0.0240719 -0.0268296 0.00159292 0.03382 -0.0268981 0.00129018 -0.0419519 -0.0259749 0.00189613 
0.0347572 -0.0260666 0.00230339 -0.0336946 -0.0248459 0.00189075 0.00538025 -0.0241403 0.00127518 
0.00558373 -0.0242787 0.00158708 0.0102479 -0.024092 0.00116035 -0.0328109 -0.0226975 0.00111115 
0.0109547 -0.0235646 0.00209995 -0.0323128 -0.0219837 0.00187923 0.0394323 -0.021923 0.00114368 
-0.0210835 -0.0209207 0.00169374 -0.0033641 -0.0204173 0.0016991 0.00548761 -0.0197918 0.00143911 
-0.0328213 -0.0176588 0.00129487 -0.0393221 -0.0167834 0.00205499 0.0252581 -0.0163235 0.00191688 
0.0302919 -0.0148257 0.00116886 0.0323803 -0.0150629 0.00140014 0.0144468 -0.013247 0.00205551 
-0.0269092 -0.0125643 0.00173876 -0.00528066 -0.0121118 0.00239113 -0.0207563 -0.0111167 0.00218158 
0.0342493 -0.0115037 0.00254232 0.0414517 -0.0114994 0.0023428 -0.0449336 -0.00957357 0.00218955 
-0.0326334 -0.00963456 0.00180259 -0.0253401 -0.0103599 0.00241329 0.0334462 -0.00930086 0.00142651 
0.0406218 -0.0100941 0.00138559 -0.024842 -0.00884532 0.00102681 -0.0344646 -0.00725539 0.00129883 
-0.0211095 -0.00770044 0.00125203 -0.0135858 -0.00672635 0.00130205 0.0129906 -0.00677597 0.00237278 
0.00523139 -0.00599236 0.00145231 0.0200271 -0.00425623 0.00178807 -0.0107529 -0.00365687 0.00222693 
-0.0395569 -0.00227866 0.00232367 -0.0153419 -0.00108619 0.0018474 -0.000610522 -0.00103491 0.00193139 
-0.0416237 0.00110806 0.00132686 0.0407777 0.000744206 0.00134742 -0.00229178 0.0020129 0.00205552 
0.0362421 0.00170773 0.00140295 -0.0233311 0.00384073 0.00197795 0.0183943 0.00266245 0.00208586 
0.00314898 0.00491531 0.00157014 0.0260144 0.00429017 0.00119235 -0.0406381 0.00555966 0.00129352 
-0.0403489 0.00598291 0.00241303 0.0250346 0.00641518 0.00142506 0.0332757 0.00539899 0.00132522 
-0.00598638 0.00689803 0.00236291 0.0110904 0.00657535 0.00189029 -0.019893 0.00878872 0.0018117 
-0.0105861 0.00898083 0.00141583 0.0324887 0.00836074 0.00220178 -0.0408306 0.00999374 0.00225961 
-0.0349081 0.00917553 0.00213213 0.00474506 0.0103043 0.00135902 -0.0371624 0.011326 0.00112096 
-0.00831541 0.0129665 0.00135013 0.0261916 0.0119357 0.0012794 -0.00867948 0.0139924 0.00134663 
-0.00841171 0.0143034 0.00136334 0.0114764 0.0140289 0.00242824 0.012949 0.0143048 0.00239417 
0.0311878 0.014057 0.00132269 0.0396593 0.013993 0.00133563 -0.0231109 0.0157017 0.0024067 
0.0153641 0.0146287 0.00213193 -0.00443291 0.0160613 0.00131566 -0.0193355 0.018129 0.00156699 
0.0323341 0.0191974 0.00178007 0.00976854 0.0197772 0.00192404 0.0362273 0.0220011 0.00129568 
-0.0421793 0.0225172 0.00128609 -0.0148746 0.0223253 0.0015129 -0.00782209 0.0241861 0.00156283 
0.00264144 0.0247174 0.0013196 0.0438582 0.0244724 0.00131276 0.000162142 0.0251126 0.00173201 
-0.0269229 0.0267788 0.00221257 -0.0190887 0.0269029 0.00137327 -0.0128609 0.0265935 0.0011796 
-0.0376379 0.0294143 0.00132947 0.0434247 0.0295768 0.00136821 -0.0368667 0.0306348 0.00262092 
-0.0213481 0.0319153 0.00207118 0.0193546 0.0324404 0.0014399 -0.0197415 0.0344175 0.00193643 
-0.00472634 0.0344449 0.0013891 0.0030545 0.0369981 0.00130329 0.0311732 0.0371467 0.00145225 
0.0281745 0.039089 0.00135238 0.00201585 0.0404036 0.00136787 0.00308146 0.0401468 0.00203388 
-0.0281804 0.0418824 0.0019798 0.00513794 0.0433856 0.001952 0.00528787 0.0432844 0.00150569 
-0.0160353 0.0448572 0.00240638 -0.0317519 -0.0446953 0.00298415 0.0262096 -0.0449372 0.00289837 
-0.0225361 -0.0441701 0.00320141 -0.0389435 -0.0425966 0.00347158 0.0185094 -0.042363 0.00289108 
0.0406519 -0.0427256 0.00302795 0.0339316 -0.041715 0.0030909 0.00849583 -0.0405939 0.00350541 
-0.0289295 -0.0389067 0.00272342 -0.0195638 -0.0385913 0.00328654 0.0325128 -0.03812 0.00305108 
-0.00338111 -0.0363358 0.00329391 0.0307351 -0.0355434 0.00321597 -0.0179089 -0.0346335 0.0033807 
-0.0177429 -0.0346724 0.00280154 -8.23525e-05 -0.034098 0.00323031 0.043014 -0.0343178 0.00312883 
0.00264867 -0.0338128 0.00328696 -0.0210092 -0.0320472 0.00349784 -0.0396817 -0.0304797 0.0031244 
0.010226 -0.0308634 0.00332911 0.0412685 -0.0295104 0.00267969 -0.0432264 -0.0264101 0.00372214 
0.0054016 -0.025334 0.00289943 0.0350196 -0.0250011 0.00336279 0.0210005 -0.0239559 0.00356267 
-0.038621 -0.0229432 0.00321239 -0.0139777 -0.0223984 0.00375599 -0.0291427 -0.0219343 0.00343756 
0.0262592 -0.0217201 0.00283135 -0.0207996 -0.0190456 0.00337409 0.0134129 -0.0192809 0.0028249 
0.0204492 -0.0194639 0.00351036 0.0218308 -0.0192565 0.00308274 -0.0183202 -0.0175475 0.00300562 
0.0184681 -0.0172117 0.00330132 0.0282033 -0.0178095 0.00313119 0.0414834 -0.0181367 0.00300248 
0.0296492 -0.015918 0.00299179 0.0132043 -0.01541 0.00283222 -0.0279963 -0.0141356 0.00285285 
-0.00710141 -0.0133745 0.0036705 0.00886689 -0.0141191 0.00357316 0.0323804 -0.0132471 0.00316776 
0.0322358 -0.0130621 0.00314114 0.0347312 -0.012978 0.00378387 0.0223025 -0.0112244 0.00270016 
0.0253763 -0.011051 0.00338571 -0.0150798 -0.00698339 0.00351157 -0.0101373 -0.00698039 0.00385184 
0.0127657 -0.00746761 0.00342224 -0.00474481 -0.00600267 0.0026956 -0.0253129 -0.0039775 0.00273761 
0.00127443 -0.000618905 0.00382043 0.0420414 -0.00101026 0.00348443 -0.0332593 0.000859011 0.00309929 
0.0189244 0.00254502 0.00331167 -0.0261639 0.00337815 0.00287579 0.00265626 0.00371614 0.00315599 
-0.027449 0.00511055 0.00373218 0.0277548 0.0042931 0.00306816 -0.01547 0.00642247 0.00371699 
-0.00552594 0.00555795 0.0034902 0.0358407 0.00533501 0.00294411 -0.0429246 0.00657681 0.0025979 
-0.009285 0.00693532 0.00328406 0.0320014 0.00756294 0.00292768 0.023953 0.00820576 0.00298502 
-0.0408092 0.00981999 0.00362831 0.0234497 0.00978487 0.00291337 0.027557 0.009967 0.00329464 
-0.00808524 0.0113378 0.00315594 -0.00071691 0.0108932 0.00264175 -0.0287818 0.014969 0.00355133 
0.012585 0.0155082 0.00304286 -0.0408838 0.0159645 0.00296808 -0.0286532 0.0159811 0.00358512 
-0.0161548 0.0159009 0.00328639 -0.00317984 0.0164631 0.00362763 -0.0436896 0.0195853 0.00381128 
-0.0363159 0.0185996 0.00271755 -0.0245993 0.0193658 0.00235623 0.00153271 0.0201988 0.00333149 
0.00742845 0.0199749 0.00298302 -0.0324762 0.0230005 0.00276479 -0.0436572 0.0238848 0.00335131 
0.021223 0.0244832 0.00293284 -0.0132251 0.0252506 0.00298696 -0.0102477 0.0267602 0.00259262 
-0.014478 0.0275162 0.00386478 0.0397191 0.0283771 0.00286457 -0.0406313 0.0295913 0.0027533 
-0.0152062 0.0294088 0.00321767 -0.032208 0.0306075 0.00346381 -0.0260391 0.0304395 0.00374582 
0.0040127 0.0314243 0.00334092 0.0104707 0.0313218 0.00331632 0.0354139 0.0312817 0.0031058 
0.0337272 0.0324898 0.00252743 0.0380057 0.0324307 0.00332632 0.0152528 0.033152 0.00267147 
-0.0422696 0.0340949 0.00310807 0.0164577 0.0353116 0.0029179 0.0278529 0.0342296 0.00250663 
-0.00750544 0.0361316 0.00278095 0.00367032 0.0371324 0.00301745 -0.039126 0.0399637 0.0035111 
0.0170579 0.0421878 0.0036284 -0.0440308 0.0448256 0.00263137 -0.0390775 0.0447256 0.00257408 
0.0147823 -0.0446949 0.00396773 -0.0234086 -0.038644 0.00394499 0.0419483 -0.0348097 0.00377651 
-0.00682403 -0.0314098 0.00411589 -0.015788 -0.0282898 0.00435377 0.0156293 -0.0283842 0.00408311 
0.0272875 -0.0186725 0.00422234 0.0218314 -0.00971151 0.00394411 0.0352883 -0.0103067 0.00521144 
-0.00720807 -0.00608605 0.00392405 0.0386193 -0.00496685 0.00395694 0.0448793 -0.00396119 0.00420402 
-0.0131355 0.00164571 0.00404534 -0.0137512 0.00384646 0.00405704 -0.0442311 0.00821601 0.00462208 
0.00418285 0.0112423 0.00398502 0.0379188 0.0120326 0.00408427 0.00976298 0.0163696 0.00485813 
-0.0122189 0.0175978 0.00514388 -0.0138035 0.0240512 0.00398516 -0.0214233 0.0285543 0.00386017 
-0.0359241 0.0337864 0.00402032 0.0132394 0.0345575 0.00404502 -0.0379532 0.0399341 0.00398222 
-0.00785852 0.041878 0.00395287 0.0430506 0.0422314 0.00397416 -0.0190394 0.0446837 0.00406885 
-0.0420316 -0.0145538 0.00568216 -0.0386256 -0.00983966 0.00702821 0.039455 -0.000236508 0.00702444 
0.0133448 0.00646544 0.00697162 -0.0155539 0.0359545 0.00710903 -0.0437633 0.0406561 0.00631304 
-0.0385899 -0.0405251 0.00944689 0.0242571 -0.0100823 0.00858624 0.0414788 -0.00521487 0.00961937 
-0.0356048 -0.000104637 0.00947725 -0.0144089 0.0201081 0.00983831 -0.00521279 -0.0413279 0.0108187 
0.0154702 -0.00154679 0.0104996 0.00347554 0.00338662 0.0112452 -0.0296003 0.0277025 0.0100921 
0.0289145 -0.0340196 0.0126837 0.0433204 -0.0141837 0.0126621 -0.0081225 0.0151775 0.0120379 
0.00357123 -0.00830953 0.0130256 0.0282359 -0.00877456 0.0136507 -0.0256005 0.0215871 0.0129321 
0.0131273 0.040817 0.0139745 0.00635633 0.000852437 0.0147689 -0.00757157 0.00454821 0.0143224 
0.0188903 -0.0308528 0.0156959 -0.0207679 -0.0256315 0.016138 -0.00254916 -0.00379952 0.0178096 
0.00643655 -0.000956063 0.016848 -0.0170112 0.0231088 0.0198332 0.00741479 -0.0295782 0.0216116 

VERTICES 649 648
OFFSETS vtktypeint64
0 1 2 3 4 5 6 7 8 
9 10 11 12 13 14 15 16 17 
18 19 20 21 22 23 24 25 26 
27 28 29 30 31 32 33 34 35 
36 37 38 39 40 41 42 43 44 
45 46 47 48 49 50 51 52 53 
54 55 56 57 58 59 60 61 62 
63 64 65 66 67 68 69 70 71 
72 73 74 75 76 77 78 79 80 
81 82 83 84 85 86 87 88 89 
90 91 92 93 94 95 96 97 98 
99 100 101 102 103 104 105 106 107 
108 109 110 111 112 113 114 115 116 
117 118 119 120 121 122 123 124 125 
126 127 128 129 130 131 132 133 134 
135 136 137 138 139 140 141 142 143 
144 145 146 147 148 149 150 151 152 
153 154 155 156 157 158 159 160 161 
162 163 164 165 166 167 168 169 170 
171 172 173 174 175 176 177 178 179 
180 181 182 183 184 185 186 187 188 
189 190 191 192 193 194 195 196 197 
198 199 200 201 202 203 204 205 206 
207 208 209 210 211 212 213 214 215 
216 217 218 219 220 221 222 223 224 
225 226 227 228 229 230 231 232 233 
234 235 236 237 238 239 240 241 242 
243 244 245 246 247 248 249 250 251 
252 253 254 255 256 257 258 259 260 
261 262 263 264 265 266 267 268 269 
270 271 272 273 274 275 276 277 278 
279 280 281 282 283 284 285 286 287 
288 289 290 291 292 293 294 295 296 
297 298 299 300 301 302 303 304 305 
306 307 308 309 310 311 312 313 314 
315 316 317 318 319 320 321 322 323 
324 325 326 327 328 329 330 331 332 
333 334 335 336 337 338 339 340 341 
342 343 344 345 346 347 348 349 350 
351 352 353 354 355 356 357 358 359 
360 361 362 363 364 365 366 367 368 
369 370 371 372 373 374 375 376 377 
378 379 380 381 382 383 384 385 386 
387 388 389 390 391 392 393 394 395 
396 397 398 399 400 401 402 403 404 
405 406 407 408 409 410 411 412 413 
414 415 416 417 418 419 420 421 422 
423 424 425 426 427 428 429 430 431 
432 433 434 435 436 437 438 439 440 
441 442 443 444 445 446 447 448 449 
450 451 452 453 454 455 456 457 458 
459 460 461 462 463 464 465 466 467 
468 469 470 471 472 473 474 475 476 
477 478 479 480 481 482 483 484 485 
486 487 488 489 490 491 492 493 494 
495 496 497 498 499 500 501 502 503 
504 505 506 507 508 509 510 511 512 
513 514 515 516 517 518 519 520 521 
522 523 524 525 526 527 528 529 530 
531 532 533 534 535 536 537 538 539 
540 541 542 543 544 545 546 547 548 
549 550 551 552 553 554 555 556 557 
558 559 560 561 562 563 564 565 566 
567 568 569 570 571 572 573 574 575 
576 577 578 579 580 581 582 583 584 
585 586 587 588 589 590 591 592 593 
594 595 596 597 598 599 600 601 602 
603 604 605 606 607 608 609 610 611 
612 613 614 615 616 617 618 619 620 
621 622 623 624 625 626 627 628 629 
630 631 632 633 634 635 636 637 638 
639 640 641 642 643 644 645 646 647 
648 
CONNECTIVITY vtktypeint64
0 1 2 3 4 5 6 7 8 
9 10 11 12 13 14 15 16 17 
18 19 20 21 22 23 24 25 26 
27 28 29 30 31 32 33 34 35 
36 37 38 39 40 41 42 43 44 
45 46 47 48 49 50 51 52 53 
54 55 56 57 58 59 60 61 62 
63 64 65 66 67 68 69 70 71 
72 73 74 75 76 77 78 79 80 
81 82 83 84 85 86 87 88 89 
90 91 92 93 94 95 96 97 98 
99 100 101 102 103 104 105 106 107 
108 109 110 111 112 113 114 115 116 
117 118 119 120 121 122 123 124 125 
126 127 128 129 130 131 132 133 134 
135 136 137 138 139 140 141 142 143 
144 145 146 147 148 149 150 151 152 
153 154 155 156 157 158 159 160 161 
162 163 164 165 166 167 168 169 170 
171 172 173 174 175 176 177 178 179 
180 181 182 183 184 185 186 187 188 
189 190 191 192 193 194 195 196 197 
198 199 200 201 202 203 204 205 206 
207 208 209 210 211 212 213 214 215 
216 217 218 219 220 221 222 223 224 
225 226 227 228 229 230 231 232 233 
234 235 236 237 238 239 240 241 242 
243 244 245 246 247 248 249 250 251 
252 253 254 255 256 257 258 259 260 
261 262 263 264 265 266 267 268 269 
270 271 272 273 274 275 276 277 278 
279 280 281 282 283 284 285 286 287 
288 289 290 291 292 293 294 295 296 
297 298 299 300 301 302 303 304 305 
306 307 308 309 310 311 312 313 314 
315 316 317 318 319 320 321 322 323 
324 325 326 327 328 329 330 331 332 
333 334 335 336 337 338 339 340 341 
342 343 344 345 346 347 348 349 350 
351 352 353 354 355 356 357 358 359 
360 361 362 363 364 365 366 367 368 
369 370 371 372 373 374 375 376 377 
378 379 380 381 382 383 384 385 386 
387 388 389 390 391 392 393 394 395 
396 397 398 399 400 401 402 403 404 
405 406 407 408 409 410 411 412 413 
414 415 416 417 418 419 420 421 422 
423 424 425 426 427 428 429 430 431 
432 433 434 435 436 437 438 439 440 
441 442 443 444 445 446 447 448 449 
450 451 452 453 454 455 456 457 458 
459 460 461 462 463 464 465 466 467 
468 469 470 471 472 473 474 475 476 
477 478 479 480 481 482 483 484 485 
486 487 488 489 490 491 492 493 494 
495 496 497 498 499 500 501 502 503 
504 505 506 507 508 509 510 511 512 
513 514 515 516 517 518 519 520 521 
522 523 524 525 526 527 528 529 530 
531 532 533 534 535 536 537 538 539 
540 541 542 543 544 545 546 547 548 
549 550 551 552 553 554 555 556 557 
558 559 560 561 562 563 564 565 566 
567 568 569 570 571 572 573 574 575 
576 577 578 579 580 581 582 583 584 
585 586 587 588 589 590 591 592 593 
594 595 596 597 598 599 600 601 602 
603 604 605 606 607 608 609 610 611 
612 613 614 615 616 617 618 619 620 
621 622 623 624 625 626 627 628 629 
630 631 632 633 634 635 636 637 638 
639 640 641 642 643 644 645 646 647 

POINT_DATA 648
FIELD FieldData 12
id 1 648 int
164 275 98 463 366 200 188 84 346 
31 113 390 140 218 562 457 591 52 
429 207 134 256 87 35 99 314 326 
508 34 92 459 411 115 102 356 122 
22 487 82 226 159 24 367 319 88 
69 605 229 156 571 51 347 589 477 
303 404 570 505 5 543 333 304 185 
107 352 137 393 139 294 502 331 445 
128 409 291 645 415 604 121 190 267 
493 116 71 282 526 416 449 323 329 
578 64 160 167 472 237 317 174 470 
479 154 440 238 439 298 247 289 355 
496 572 73 176 462 444 170 143 374 
381 168 240 290 194 58 500 306 612 
59 215 211 380 146 349 106 292 16 
227 248 264 231 428 127 427 483 157 
293 95 324 260 563 399 10 72 6 
42 336 278 615 368 383 243 299 567 
370 515 11 252 125 263 57 385 257 
142 20 592 360 405 151 135 371 204 
542 205 132 66 265 341 83 465 36 
175 208 90 186 538 334 244 86 56 
418 458 216 141 495 407 478 486 456 
546 396 467 353 454 450 426 423 424 
112 129 165 261 197 288 497 255 214 
420 601 432 373 345 181 60 273 401 
378 21 384 297 169 322 46 150 491 
310 236 63 178 202 469 308 358 193 
40 433 587 339 54 118 392 110 417 
443 364 447 117 161 357 521 149 166 
33 49 138 431 337 18 279 330 254 
394 104 219 109 12 507 189 100 162 
195 163 408 30 280 199 461 410 509 
504 321 506 488 419 187 343 201 158 
81 268 26 327 253 222 148 29 481 
94 455 348 270 225 235 85 313 251 
233 309 232 286 437 362 531 320 559 
413 45 246 328 76 318 155 435 386 
361 412 62 372 91 108 406 375 302 
397 475 272 351 55 438 89 93 414 
203 68 577 271 549 626 436 344 489 
350 239 250 295 103 533 354 96 147 
13 183 574 430 581 484 79 223 541 
192 576 111 403 25 28 274 618 553 
537 74 460 8 43 585 628 638 554 
617 23 38 311 569 53 511 32 580 
377 105 171 382 217 564 75 196 565 
61 212 305 593 379 503 501 474 126 
213 528 124 144 145 453 400 338 595 
262 446 119 17 633 41 395 363 70 
622 220 184 607 514 529 287 325 14 
520 206 9 637 498 266 451 114 594 
583 65 600 387 182 198 536 123 643 
555 586 342 614 242 534 230 258 635 
471 597 136 312 210 359 67 492 402 
518 388 47 616 307 525 283 548 527 
532 335 234 37 513 547 573 177 44 
448 558 539 551 517 603 422 376 276 
490 441 530 566 259 599 340 522 39 
27 557 285 365 80 389 77 519 598 
284 613 245 545 153 301 425 556 510 
4 296 480 442 221 48 560 315 228 
468 473 152 485 582 561 281 130 191 
78 131 535 369 179 524 540 596 269 
332 611 623 180 466 579 550 552 421 
452 482 523 434 639 476 241 173 584 
398 629 120 516 101 3 224 133 50 
499 300 316 464 620 15 7 97 209 
494 391 249 277 19 172 590 544 2 
512 624 575 648 1 647 568 625 632 
610 641 609 634 644 619 608 602 646 
606 630 631 636 627 642 621 588 640 

type 1 648 int
1 1 1 1 1 1 1 1 1 
1 1 1 1 1 1 1 1 1 
1 1 1 1 1 1 1 1 1 
1 1 1 1 1 1 1 1 1 
1 1 1 1 1 1 1 1 1 
1 1 1 1 1 1 1 1 1 
1 1 1 1 2 1 1 1 1 
1 1 1 1 1 1 1 1 1 
1 1 1 1 1 1 1 1 1 
1 1 1 1 1 1 1 1 1 
1 1 1 1 1 1 1 1 1 
1 1 1 1 1 1 1 1 1 
1 1 1 1 1 1 1 1 1 
1 1 1 1 1 1 1 1 1 
1 1 1 1 1 1 1 1 2 
1 1 1 1 1 1 1 1 1 
1 1 1 1 1 1 2 1 2 
1 1 1 1 1 1 1 1 1 
1 1 2 1 1 1 1 1 1 
1 1 1 1 1 1 1 1 1 
1 1 1 1 1 1 1 1 1 
1 1 1 1 1 1 1 1 1 
1 1 1 1 1 1 1 1 1 
1 1 1 1 1 1 1 1 1 
1 1 1 1 1 1 1 1 1 
1 1 1 1 1 1 1 1 1 
1 1 1 1 1 1 1 1 1 
1 1 1 1 1 1 1 1 1 
1 1 1 1 1 1 1 1 1 
1 1 1 1 1 1 1 1 1 
1 1 1 1 1 1 1 1 1 
1 1 1 1 2 1 1 1 1 
1 1 1 1 1 1 1 1 1 
1 1 1 1 1 1 1 1 1 
1 1 1 1 1 1 1 1 1 
1 1 1 1 1 1 1 1 1 
1 1 1 1 1 1 1 1 1 
1 1 1 1 1 1 1 1 1 
1 1 1 1 1 1 1 1 1 
1 1 1 1 1 1 1 1 1 
1 1 1 1 1 1 1 1 1 
1 1 1 1 1 1 1 1 1 
2 1 1 1 1 1 1 1 1 
1 1 1 1 1 1 1 1 1 
1 1 1 2 1 1 1 1 1 
1 1 1 1 1 1 1 1 1 
1 1 1 1 1 1 1 1 1 
1 1 1 1 1 1 1 1 1 
1 1 1 1 1 1 1 1 1 
1 1 1 1 1 1 1 1 1 
1 1 1 1 1 1 1 1 2 
1 1 2 1 1 1 1 1 1 
1 1 1 1 1 1 1 1 1 
1 1 1 1 1 1 1 1 1 
1 1 1 1 1 1 1 1 1 
1 1 1 1 1 1 1 1 1 
1 1 1 1 1 1 1 1 1 
1 1 1 1 1 1 1 1 1 
1 1 1 1 1 1 1 1 1 
1 1 1 1 1 1 1 1 1 
1 1 1 1 1 1 1 1 1 
2 1 1 1 1 1 1 1 1 
1 1 1 1 1 1 1 1 1 
1 1 1 1 1 1 1 1 1 
1 1 1 1 1 1 1 1 1 
1 1 1 1 1 1 1 1 1 
1 1 1 2 1 2 1 1 1 
1 1 1 1 1 2 2 1 1 
1 1 1 1 1 1 1 1 3 
2 1 1 1 4 1 1 1 1 
1 1 1 2 1 1 1 1 1 
1 1 1 1 1 1 1 1 1 

i 3 648 int
0 0 0 0 0 0 0 0 0 
0 0 0 0 0 0 0 0 0 
0 0 0 0 0 0 0 0 0 
0 0 0 0 0 0 0 0 0 
0 0 0 0 0 0 0 0 0 
0 0 0 0 0 0 0 0 0 
0 0 0 0 0 0 0 0 0 
0 0 0 0 0 0 0 0 0 
0 0 0 0 0 0 0 0 0 
0 0 0 0 0 0 0 0 0 
0 0 0 0 0 0 0 0 0 
0 0 0 0 0 0 0 0 0 
0 0 0 0 0 0 0 0 0 
0 0 0 0 0 0 0 0 0 
0 0 0 0 0 0 0 0 0 
0 0 0 0 0 0 0 0 0 
0 0 0 0 0 0 0 0 0 
0 0 0 0 0 0 0 0 0 
0 0 0 0 0 0 0 0 0 
0 0 0 0 0 0 0 0 0 
0 0 0 0 0 0 0 0 0 
0 0 0 0 0 0 0 0 0 
0 0 0 0 0 0 0 0 0 
0 0 0 0 0 0 0 0 0 
0 0 0 0 0 0 0 0 0 
0 0 0 0 0 0 0 0 0 
0 0 0 0 0 0 0 0 0 
0 0 0 0 0 0 0 0 0 
0 0 0 0 0 0 0 0 0 
0 0 0 0 0 0 0 0 0 
0 0 0 0 0 0 0 0 0 
0 0 0 0 0 0 0 0 0 
0 0 0 0 0 0 0 0 0 
0 0 0 0 0 0 0 0 0 
0 0 0 0 0 0 0 0 0 
0 0 0 0 0 0 0 0 0 
0 0 0 0 0 0 0 0 0 
0 0 0 0 0 0 0 0 0 
0 0 0 0 0 0 0 0 0 
0 0 0 0 0 0 0 0 0 
0 0 0 0 0 0 0 0 0 
0 0 0 0 0 0 0 0 0 
0 0 0 0 0 0 0 0 0 
0 0 0 0 0 0 0 0 0 
0 0 0 0 0 0 0 0 0 
0 0 0 0 0 0 0 0 0 
0 0 0 0 0 0 0 0 0 
0 0 0 0 0 0 0 0 0 
0 0 0 0 0 0 0 0 0 
0 0 0 0 0 0 0 0 0 
0 0 0 0 0 0 0 0 0 
0 0 0 0 0 0 0 0 0 
0 0 0 0 0 0 0 0 0 
0 0 0 0 0 0 0 0 0 
0 0 0 0 0 0 0 0 0 
0 0 0 0 0 0 0 0 0 
0 0 0 0 0 0 0 0 0 
0 0 0 0 0 0 0 0 0 
0 0 0 0 0 0 0 0 0 
0 0 0 0 0 0 0 0 0 
0 0 0 0 0 0 0 0 0 
0 0 0 0 0 0 0 0 0 
0 0 0 0 0 0 0 0 0 
0 0 0 0 0 0 0 0 0 
0 0 0 0 0 0 0 0 0 
0 0 0 0 0 0 0 0 0 
0 0 0 0 0 0 0 0 0 
0 0 0 0 0 0 0 0 0 
0 0 0 0 0 0 0 0 0 
0 0 0 0 0 0 0 0 0 
0 0 0 0 0 0 0 0 0 
0 0 0 0 0 0 0 0 0 
0 0 0 0 0 0 0 0 0 
0 0 0 0 0 0 0 0 0 
0 0 0 0 0 0 0 0 0 
0 0 0 0 0 0 0 0 0 
0 0 0 0 0 0 0 0 0 
0 0 0 0 0 0 0 0 0 
0 0 0 0 0 0 0 0 0 
0 0 0 0 0 0 0 0 0 
0 0 0 0 0 0 0 0 0 
0 0 0 0 0 0 0 0 0 
0 0 0 0 0 0 0 0 0 
0 0 0 0 0 0 0 0 0 
0 0 0 0 0 0 0 0 0 
0 0 0 0 0 0 0 0 0 
0 0 0 0 0 0 0 0 0 
0 0 0 0 0 0 0 0 0 
0 0 0 0 0 0 0 0 0 
0 0 0 0 0 0 0 0 0 
0 0 0 0 0 0 0 0 0 
0 0 0 0 0 0 0 0 0 
0 0 0 0 0 0 0 0 0 
0 0 0 0 0 0 0 0 0 
0 0 0 0 0 0 0 0 0 
0 0 0 0 0 0 0 0 0 
0 0 0 0 0 0 0 0 0 
0 0 0 0 0 0 0 0 0 
0 0 0 0 0 0 0 0 0 
0 0 0 0 0 0 0 0 0 
0 0 0 0 0 0 0 0 0 
0 0 0 0 0 0 0 0 0 
0 0 0 0 0 0 0 0 0 
0 0 0 0 0 0 0 0 0 
0 0 0 0 0 0 0 0 0 
0 0 0 0 0 0 0 0 0 
0 0 0 0 0 0 0 0 0 
0 0 0 0 0 0 0 0 0 
0 0 0 0 0 0 0 0 0 
0 0 0 0 0 0 0 0 0 
0 0 0 0 0 0 0 0 0 
0 0 0 0 0 0 0 0 0 
0 0 0 0 0 0 0 0 0 
0 0 0 0 0 0 0 0 0 
0 0 0 0 0 0 0 0 0 
0 0 0 0 0 0 0 0 0 
0 0 0 0 0 0 0 0 0 
0 0 0 0 0 0 0 0 0 
0 0 0 0 0 0 0 0 0 
0 0 0 0 0 0 0 0 0 
0 0 0 0 0 0 0 0 0 
0 0 0 0 0 0 0 0 0 
0 0 0 0 0 0 0 0 0 
0 0 0 0 0 0 0 0 0 
0 0 0 0 0 0 0 0 0 
0 0 0 0 0 0 0 0 0 
0 0 0 0 0 0 0 0 0 
0 0 0 0 0 0 0 0 0 
0 0 0 0 0 0 0 0 0 
0 0 0 0 0 0 0 0 0 
0 0 0 0 0 0 0 0 0 
0 0 0 0 0 0 0 0 0 
0 0 0 0 0 0 0 0 0 
0 0 0 0 0 0 0 0 0 
0 0 0 0 0 0 0 0 0 
0 0 0 0 0 0 0 0 0 
0 0 0 0 0 0 0 0 0 
0 0 0 0 0 0 0 0 0 
0 0 0 0 0 0 0 0 0 
0 0 0 0 0 0 0 0 0 
0 0 0 0 0 0 0 0 0 
0 0 0 0 0 0 0 0 0 
0 0 0 0 0 0 0 0 0 
0 0 0 0 0 0 0 0 0 
0 0 0 0 0 0 0 0 0 
0 0 0 0 0 0 0 0 0 
0 0 0 0 0 0 0 0 0 
0 0 0 0 0 0 0 0 0 
0 0 0 0 0 0 0 0 0 
0 0 0 0 0 0 0 0 0 
0 0 0 0 0 0 0 0 0 
0 0 0 0 0 0 0 0 0 
0 0 0 0 0 0 0 0 0 
0 0 0 0 0 0 0 0 0 
0 0 0 0 0 0 0 0 0 
0 0 0 0 0 0 0 0 0 
0 0 0 0 0 0 0 0 0 
0 0 0 0 0 0 0 0 0 
0 0 0 0 0 0 0 0 0 
0 0 0 0 0 0 0 0 0 
0 0 0 0 0 0 0 0 0 
0 0 0 0 0 0 0 0 0 
0 0 0 0 0 0 0 0 0 
0 0 0 0 0 0 0 0 0 
0 0 0 0 0 0 0 0 0 
0 0 0 0 0 0 0 0 0 
0 0 0 0 0 0 0 0 0 
0 0 0 0 0 0 0 0 0 
0 0 0 0 0 0 0 0 0 
0 0 0 0 0 0 0 0 0 
0 0 0 0 0 0 0 0 0 
0 0 0 0 0 0 0 0 0 
0 0 0 0 0 0 0 0 0 
0 0 0 0 0 0 0 0 0 
0 0 0 0 0 0 0 0 0 
0 0 0 0 0 0 0 0 0 
0 0 0 0 0 0 0 0 0 
0 0 0 0 0 0 0 0 0 
0 0 0 0 0 0 0 0 0 
0 0 0 0 0 0 0 0 0 
0 0 0 0 0 0 0 0 0 
0 0 0 0 0 0 0 0 0 
0 0 0 0 0 0 0 0 0 
0 0 0 0 0 0 0 0 0 
0 0 0 0 0 0 0 0 0 
0 0 0 0 0 0 0 0 0 
0 0 0 0 0 0 0 0 0 
0 0 0 0 0 0 0 0 0 
0 0 0 0 0 0 0 0 0 
0 0 0 0 0 0 0 0 0 
0 0 0 0 0 0 0 0 0 
0 0 0 0 0 0 0 0 0 
0 0 0 0 0 0 0 0 0 
0 0 0 0 0 0 0 0 0 
0 0 0 0 0 0 0 0 0 
0 0 0 0 0 0 0 0 0 
0 0 0 0 0 0 0 0 0 
0 0 0 0 0 0 0 0 0 
0 0 0 0 0 0 0 0 0 
0 0 0 0 0 0 0 0 0 
0 0 0 0 0 0 0 0 0 
0 0 0 0 0 0 0 0 0 
0 0 0 0 0 0 0 0 0 
0 0 0 0 0 0 0 0 0 
0 0 0 0 0 0 0 0 0 
0 0 0 0 0 0 0 0 0 
0 0 0 0 0 0 0 0 0 
0 0 0 0 0 0 0 0 0 
0 0 0 0 0 0 0 0 0 
0 0 0 0 0 0 0 0 0 
0 0 0 0 0 0 0 0 0 
0 0 0 0 0 0 0 0 0 
0 0 0 0 0 0 0 0 0 
0 0 0 0 0 0 0 0 0 
0 0 0 0 0 0 0 0 0 
0 0 0 0 0 0 0 0 0 

v 3 648 double
0 0 3.2413285931e-14 0 0 -0.0081910145696 0 0 0.001090859777 
0 0 3.2413285929e-14 0 0 8.0432447451e-14 0 0 3.2413290076e-14 
0 0 -0.0054601438374 0 0 0.0048955055563 0 0 8.0432447445e-14 
0 0 0.0014513161628 0 0 -0.0055944567618 0 0 -0.0063426730789 
0 0 8.0432443483e-14 0 0 8.0432443462e-14 0 0 -0.0055171578602 
0 0 8.0432443502e-14 0 0 0.0034552449211 0 0 -0.093625415408 
0 0 -0.018080399664 0 0 -1.5605880166e-14 0 0 8.0432447366e-14 
0 0 8.0432443586e-14 0 0 -1.5605880071e-14 0 0 8.0432443653e-14 
0 0 -0.025901378657 0 0 -0.0004031536617 0 0 -0.00085674157851 
0 0 3.241328596e-14 0 0 8.0432443647e-14 0 0 3.2413286072e-14 
0 0 3.2413289944e-14 0 0 -0.0265041128 0 0 3.2413286006e-14 
0 0 0.031480828141 0 0 -1.5605879955e-14 0 0 0.0041545036678 
0 0 -0.0038534728118 0 0 0.0082043278732 0 0 0.0085957639071 
0 0 3.2413290075e-14 0 0 0.018118266478 0 0 3.2413286102e-14 
0 0 8.0432447578e-14 0 0 -0.0041103962898 0 0 8.0432443439e-14 
0 0 0.018406712491 0 0 -0.017328807479 0 0 0.005823536785 
0 0 0.025955689996 0 0 8.043244362e-14 0 0 8.0432447536e-14 
0 0 3.241329003e-14 0 0 -0.0015475779732 0 0 -0.024892197127 
0 0 3.2413289948e-14 0 0 3.2413290061e-14 0 0 -0.0034684961095 
0 0 0.0037715542749 0 0 0.038022902001 0 0 8.0432443566e-14 
0 0 -0.023502825605 0 0 3.2413289938e-14 0 0 8.0432447378e-14 
0 0 8.0432447469e-14 0 0 3.2413289892e-14 0 0 8.0432443568e-14 
0 0 -0.091526446152 0 0 -0.022417762695 0 0 3.2413290012e-14 
0 0 0.020985661636 0 0 8.0432443464e-14 0 0 0.00044551089552 
0 0 3.2413286112e-14 0 0 -0.0030751215902 0 0 3.2413289856e-14 
0 0 -0.0086403296406 0 0 0.01445911989 0 0 0.023282499765 
0 0 8.0432443435e-14 0 0 3.2413289933e-14 0 0 3.2413285961e-14 
0 0 0.017883295424 0 0 0.02319964863 0 0 -0.0064490260294 
0 0 8.0432447432e-14 0 0 0.022927687446 0 0 0.012673896061 
0 0 -0.017767702066 0 0 0.01899122569 0 0 0.028687186944 
0 0 0.078400840718 0 0 3.241328999e-14 0 0 0.020314490353 
0 0 3.2413289859e-14 0 0 8.043244354e-14 0 0 -1.5605880089e-14 
0 0 8.0432447426e-14 0 0 -0.00032863696011 0 0 8.0432443599e-14 
0 0 -1.5605879998e-14 0 0 8.0432443456e-14 0 0 -1.5605880009e-14 
0 0 3.2413289963e-14 0 0 8.0432443441e-14 0 0 -0.010068304625 
0 0 3.2413290005e-14 0 0 -1.5605879989e-14 0 0 3.2413286097e-14 
0 0 -1.2489803323e-07 0 0 -0.020817482364 0 0 3.2413289869e-14 
0 0 8.0432447375e-14 0 0 0.024748473177 0 0 8.0432443553e-14 
0 0 -0.0016080952511 0 0 0.011564597461 0 0 -0.001438624062 
0 0 3.2413289871e-14 0 0 8.0432447444e-14 0 0 -0.00052976960111 
0 0 0.00099328637047 0 0 0.0034574986494 0 0 3.241328991e-14 
0 0 0.0056697027477 0 0 0.019527920651 0 0 3.2413286155e-14 
0 0 -0.0059372539566 0 0 -1.5605880133e-14 0 0 -0.022800387303 
0 0 -0.0053354155946 0 0 0.027079895793 0 0 8.0432443486e-14 
0 0 3.2413290023e-14 0 0 8.043244346e-14 0 0 0.044395719783 
0 0 8.0432443472e-14 0 0 0.00039697032509 0 0 -0.074870972719 
0 0 3.2413289993e-14 0 0 8.0432447411e-14 0 0 3.241328986e-14 
0 0 8.0432447466e-14 0 0 -1.5605879967e-14 0 0 8.0432443515e-14 
0 0 8.0432443474e-14 0 0 0.0094882417546 0 0 3.2413290061e-14 
0 0 8.0432447569e-14 0 0 -0.074792541371 0 0 0.0016500666454 
0 0 0.047359235006 0 0 8.0432443602e-14 0 0 0.0070153781376 
0 0 0.012515332587 0 0 -1.5605880027e-14 0 0 -0.013103095616 
0 0 0.0047708476819 0 0 -0.0026562914494 0 0 3.2413285982e-14 
0 0 8.043244364e-14 0 0 8.043244362e-14 0 0 -0.011351167756 
0 0 8.0432447573e-14 0 0 8.0432443539e-14 0 0 -0.043658372349 
0 0 0.032324451135 0 0 3.2413289846e-14 0 0 0.0032988291145 
0 0 8.0432443644e-14 0 0 -1.5605880028e-14 0 0 0.0012783291269 
0 0 0.036089164589 0 0 -0.0085713224748 0 0 -0.0018917044009 
0 0 -0.0017581387358 0 0 -0.081164593764 0 0 -0.014792828188 
0 0 -0.0008712237076 0 0 0.014935407466 0 0 -0.026821536136 
0 0 8.0432443597e-14 0 0 -0.091767528777 0 0 3.2413286008e-14 
0 0 3.2413289914e-14 0 0 -0.091964111781 0 0 3.2413290042e-14 
0 0 8.0432447404e-14 0 0 -1.560588404e-14 0 0 8.0432443503e-14 
0 0 3.24132899e-14 0 0 -0.092498615872 0 0 3.2413290015e-14 
0 0 3.2413289968e-14 0 0 8.0432443482e-14 0 0 8.0432443528e-14 
0 0 0.025256672441 0 0 -1.5605879994e-14 0 0 3.2413290066e-14 
0 0 8.0432443491e-14 0 0 8.0432443537e-14 0 0 -0.027018449089 
0 0 8.0432443641e-14 0 0 0.0018392712739 0 0 8.0432443498e-14 
0 0 3.2413285952e-14 0 0 -0.025729416337 0 0 8.0432443535e-14 
0 0 -0.0037774310491 0 0 8.0432443665e-14 0 0 8.0432447559e-14 
0 0 3.2413289844e-14 0 0 -0.00025935352726 0 0 8.0432447373e-14 
0 0 -0.0040852387681 0 0 -1.5605880048e-14 0 0 -0.035966693627 
0 0 0.0047042208348 0 0 3.2413285933e-14 0 0 -1.5605880065e-14 
0 0 8.0432443639e-14 0 0 3.2413289894e-14 0 0 3.2413286133e-14 
0 0 -0.013822453247 0 0 3.241328603e-14 0 0 3.2413286034e-14 
0 0 3.2413290022e-14 0 0 -1.5605884023e-14 0 0 8.0432443489e-14 
0 0 8.0432447365e-14 0 0 -0.00021162161385 0 0 -0.018572719999 
0 0 8.0432443515e-14 0 0 -0.0083500459965 0 0 8.0432443578e-14 
0 0 0.010498457245 0 0 0.010251084512 0 0 0.0010189694218 
0 0 8.0432443443e-14 0 0 3.2413285951e-14 0 0 3.2413290037e-14 
0 0 -0.026211647349 0 0 8.0432447588e-14 0 0 8.043244739e-14 
0 0 8.0432443526e-14 0 0 0.0076501537695 0 0 -0.0153586276 
0 0 -0.02751863517 0 0 8.0432443646e-14 0 0 -0.0044628335333 
0 0 -6.362503774e-14 0 0 0.027320757481 0 0 8.0432443436e-14 
0 0 8.0432447496e-14 0 0 8.043244366e-14 0 0 -0.073788163121 
0 0 8.0432443654e-14 0 0 0.0012949293301 0 0 0.0059492120946 
0 0 8.0432443467e-14 0 0 8.0432443436e-14 0 0 3.2413290025e-14 
0 0 0.0099824892757 0 0 3.2413290061e-14 0 0 -0.00028677597466 
0 0 8.0432447543e-14 0 0 -0.00024793745936 0 0 -0.0046029874396 
0 0 3.2413285938e-14 0 0 8.0432447477e-14 0 0 -1.5605883967e-14 
0 0 -0.0073174915592 0 0 8.043244349e-14 0 0 0.036821967664 
0 0 0.021042963388 0 0 -0.0013743890743 0 0 8.0432447524e-14 
0 0 -0.0015539898116 0 0 -0.0016152784935 0 0 -0.0243688308 
0 0 -0.093394348977 0 0 0.0020512657443 0 0 3.2413286037e-14 
0 0 8.0432447382e-14 0 0 -0.04189845104 0 0 0.01129278793 
0 0 -1.5605880188e-14 0 0 3.2413289937e-14 0 0 8.0432447571e-14 
0 0 3.2413286009e-14 0 0 3.2413289873e-14 0 0 -0.0037841453335 
0 0 -0.019043613609 0 0 3.241329005e-14 0 0 8.0432447478e-14 
0 0 8.0432447579e-14 0 0 8.0432443667e-14 0 0 -0.015604708444 
0 0 8.0432443539e-14 0 0 3.2413290049e-14 0 0 8.0432447534e-14 
0 0 8.0432443664e-14 0 0 0.0062936328376 0 0 3.2413290066e-14 
0 0 0.0040491093839 0 0 3.2413285974e-14 0 0 3.2413289863e-14 
0 0 -0.02116664855 0 0 2.4440491322e-13 0 0 -1.5605880032e-14 
0 0 8.0432447369e-14 0 0 8.0432447474e-14 0 0 0.0093472969748 
0 0 8.0432447568e-14 0 0 -6.3625037731e-14 0 0 0.030529240387 
0 0 0.0096577867869 0 0 -0.081454494579 0 0 8.043244754e-14 
0 0 8.0432443508e-14 0 0 0.022867935954 0 0 0.012751674493 
0 0 3.2413285921e-14 0 0 -0.019517358743 0 0 8.0432447538e-14 
0 0 8.0432443667e-14 0 0 0.030841321136 0 0 0.0013683033571 
0 0 -0.085084142378 0 0 8.0432443615e-14 0 0 3.2413289953e-14 
0 0 0.09436855512 0 0 8.0432443615e-14 0 0 -0.009414821325 
0 0 -0.0073664359083 0 0 0.032871512612 0 0 8.0432447367e-14 
0 0 3.2413285923e-14 0 0 -0.0013478459973 0 0 8.0432447546e-14 
0 0 3.2413289965e-14 0 0 8.0432447525e-14 0 0 8.04324474e-14 
0 0 8.0432443473e-14 0 0 8.0432443557e-14 0 0 8.0432443442e-14 
0 0 3.241328594e-14 0 0 -0.0089192717573 0 0 8.0432443544e-14 
0 0 3.2413290002e-14 0 0 -0.00033361798252 0 0 -0.030530414803 
0 0 -0.010626138126 0 0 -0.022800535814 0 0 -1.5605880188e-14 
0 0 0.0022595458654 0 0 -0.0056137083615 0 0 -0.0027488668215 
0 0 -0.085326212602 0 0 -0.084745963732 0 0 -0.0061708016907 
0 0 -0.076412700616 0 0 -0.076644741237 0 0 -0.0015552285329 
0 0 -0.0059931283014 0 0 -0.060917418903 0 0 0.0088282003612 
0 0 -0.015372622698 0 0 -0.073956461489 0 0 -0.014504477519 
0 0 -0.070444045257 0 0 -0.074662660349 0 0 -0.08771834578 
0 0 0.0095415717975 0 0 -0.086242065382 0 0 -0.037167531613 
0 0 -0.070745458581 0 0 0.010311892004 0 0 -0.071035252712 
0 0 0.026837948598 0 0 -0.015704346861 0 0 0.051515373382 
0 0 -0.06254627355 0 0 -0.2328392446 0 0 -0.01913957692 
0 0 -0.084262239874 0 0 -0.096749563471 0 0 -0.24539812742 
0 0 -0.056485670453 0 0 -0.051943843865 0 0 -0.093054890386 
0 0 -0.08039090623 0 0 -0.080127870208 0 0 0.0073188813474 
0 0 -0.0072584764987 0 0 0.07098710041 0 0 -0.069839996426 
0 0 -0.24766571036 0 0 -0.087447505075 0 0 -0.073334637003 
0 0 -0.0017686024746 0 0 -0.069026913602 0 0 0.069335380965 
0 0 0.024445210607 0 0 -0.028000723641 0 0 0.069995571402 
0 0 0.061264855104 0 0 -0.049712870484 0 0 -0.085960601095 
0 0 9.9492792072e-05 0 0 0.081320284398 0 0 -0.0032020138828 
0 0 -0.074745640022 0 0 -0.012150857227 0 0 -0.053665877412 
0 0 0.0019187947986 0 0 -0.079076780724 0 0 -0.076685388767 
0 0 -0.064257585614 0 0 -0.0807490761 0 0 -0.051166297387 
0 0 -0.019415866261 0 0 -0.00038681562663 0 0 -0.056960374926 
0 0 -0.013259338928 0 0 -0.064825933879 0 0 -0.073356294866 
0 0 -0.050880810411 0 0 -0.07896618203 0 0 -0.0066412297679 
0 0 -0.050899390329 0 0 0.010803278969 0 0 -0.0017189675463 
0 0 -0.055365367884 0 0 -0.056402977738 0 0 -0.065178334313 
0 0 -0.08610727045 0 0 -0.055340412752 0 0 -0.055380452466 
0 0 -0.068227209019 0 0 -0.012809749505 0 0 -0.23489857689 
0 0 0.0055560994284 0 0 -0.017373679632 0 0 0.0066609015609 
0 0 -0.089778269502 0 0 -0.013738821419 0 0 -0.050112417228 
0 0 -0.00055561755477 0 0 -0.087877068685 0 0 -0.066947050322 
0 0 0.053724852407 0 0 0.0016303718669 0 0 -0.066892055175 
0 0 -0.22864211347 0 0 -0.064314624766 0 0 -0.0085299785724 
0 0 -0.01422071392 0 0 -0.084782389996 0 0 -0.023186213037 
0 0 -0.08485317568 0 0 0.0028842781875 0 0 0.0026111693358 
0 0 0.042209962248 0 0 -0.0014864643322 0 0 -0.082060759151 
0 0 -0.0066037181539 0 0 -0.010390526163 0 0 0.033101188042 
0 0 -0.036211513289 0 0 -0.087242559057 0 0 -0.21003862415 
0 0 -0.081739744194 0 0 -0.0076395426491 0 0 -0.0044553809462 
0 0 -0.00067139343617 0 0 -0.081452898574 0 0 -0.19713881111 
0 0 -0.23735827787 0 0 0.064315931677 0 0 -0.084565917744 
0 0 -0.025490227165 0 0 -0.028686781733 0 0 -0.029603013527 
0 0 0.062975851634 0 0 -0.039182485982 0 0 -0.21744023526 
0 0 -0.051698100505 0 0 2.1901145901e-05 0 0 -0.035945922478 
0 0 -0.038810657886 0 0 -0.041834898594 0 0 -0.049552900361 
0 0 -0.013608663987 0 0 -0.019022609321 0 0 -0.022159153289 
0 0 -0.045189795229 0 0 -0.04128938597 0 0 -0.024474454705 
0 0 0.0016478537471 0 0 -0.0327114518 0 0 0.0017714510032 
0 0 -0.017761912852 0 0 0.038479666528 0 0 -0.0055088854437 
0 0 -0.017770775297 0 0 -0.044494569912 0 0 -0.029759547627 
0 0 -0.011556686363 0 0 0.013093387691 0 0 -0.017143609379 
0 0 0.007840785513 0 0 -0.038062026299 0 0 -0.035519485717 
0 0 -0.040243287123 0 0 0.050300563862 0 0 0.01743975678 
0 0 -0.027604873471 0 0 -0.0063563926307 0 0 -0.2215808158 
0 0 -0.03036396641 0 0 -0.056135502886 0 0 -0.057111761006 
0 0 -0.025534698488 0 0 -0.030773024825 0 0 0.032566434291 
0 0 -0.029823174804 0 0 -0.016306050306 0 0 0.051057482934 
0 0 -0.039231048164 0 0 -0.030761225753 0 0 -0.011768054215 
0 0 0.056451301966 0 0 0.031658698772 0 0 -0.060864921508 
0 0 -0.018057339497 0 0 -0.034719580763 0 0 -0.025411679609 
0 0 -0.041871456172 0 0 -0.051674929713 0 0 0.0042991923761 
0 0 -0.025547033764 0 0 0.037405793647 0 0 -0.02447818213 
0 0 -0.010676011339 0 0 -0.052455155426 0 0 -0.067461145467 
0 0 -0.047140734209 0 0 0.034178548241 0 0 0.03083732502 
0 0 -0.07242653981 0 0 -0.053428244899 0 0 -0.041897256798 
0 0 -0.046568551663 0 0 -0.059954907244 0 0 -0.03103440651 
0 0 0.04445063258 0 0 -0.052670418659 0 0 -0.027991237022 
0 0 -0.022017982207 0 0 -0.025554250493 0 0 -0.013583065256 
0 0 -0.041661673444 0 0 -0.20670226717 0 0 0.033198449646 
0 0 -0.053073364446 0 0 -0.058297254715 0 0 -0.038107709775 
0 0 -0.055547398472 0 0 -0.027498075549 0 0 -0.015673077804 
0 0 0.031707038335 0 0 -0.054467548785 0 0 -0.032121242668 
0 0 -0.0020027577361 0 0 0.014582438826 0 0 0.047327641981 
0 0 -0.041097620851 0 0 -0.20703083729 0 0 0.032534027281 
0 0 -0.051176543461 0 0 -0.043978007268 0 0 -0.033345897018 
0 0 0.022483656435 0 0 -0.00014373108063 0 0 -0.064047170837 
0 0 -0.036380353543 0 0 -0.050510367557 0 0 -0.028642012924 
0 0 -0.030333727025 0 0 -0.2172328406 0 0 -0.061477042225 
0 0 0.024845085158 0 0 -0.0026142023551 0 0 -0.19955722677 
0 0 0.017081847271 0 0 -0.20730951384 0 0 -0.011832235454 
0 0 0.061332175033 0 0 -0.011442068667 0 0 0.043343735091 
0 0 -0.0071888074931 0 0 0.023955895166 0 0 0.0066852321632 
0 0 -0.0078084261973 0 0 -0.0073801768043 0 0 0.023521016698 
0 0 0.001798698422 0 0 -0.2121791738 0 0 -0.042106019874 
0 0 0.04373073921 0 0 -0.011722698104 0 0 -0.027913426381 
0 0 0.0012676892843 0 0 0.0027095940467 0 0 -0.00018441857088 
0 0 0.0027866798941 0 0 0.0029378568652 0 0 0.00309167475 
0 0 -0.21504723678 0 0 -0.21419366144 0 0 -0.0082615961466 
0 0 -0.25669586008 0 0 -0.17401803531 0 0 -0.20896597536 
0 0 -0.16977863337 0 0 -0.30574504578 0 0 -0.16993435183 
0 0 -0.18864740086 0 0 -0.18286645091 0 0 -0.16273466546 
0 0 -0.18433123795 0 0 -0.13952257602 0 0 -0.17295982921 
0 0 -0.17404076093 0 0 -0.14600234095 0 0 -0.15566558089 
0 0 -0.16775672759 0 0 -0.15271707566 0 0 -0.14542037831 
0 0 -0.15684053747 0 0 -0.15418804847 0 0 -0.137932232 
0 0 -0.12465003027 0 0 -0.12236761701 0 0 -0.10529848722 
0 0 -0.12089943959 0 0 -0.13963282868 0 0 -0.093195606454 

f 3 648 double
0 0 0 0 0 -1.7425367252e-10 0 0 -1.7425367252e-10 
0 0 0 0 0 0 0 0 0 
0 0 -1.7425367252e-10 0 0 -1.7425367252e-10 0 0 0 
0 0 -1.7425367252e-10 0 0 -1.7425367252e-10 0 0 -1.7425367252e-10 
0 0 0 0 0 0 0 0 -1.7425367252e-10 
0 0 0 0 0 -1.7425367252e-10 0 0 -1.7425367252e-10 
0 0 -1.7425367252e-10 0 0 0 0 0 0 
0 0 0 0 0 0 0 0 0 
0 0 -1.7425367252e-10 0 0 -1.7425367252e-10 0 0 -1.7425367252e-10 
0 0 0 0 0 0 0 0 0 
0 0 0 0 0 -1.7425367252e-10 0 0 0 
0 0 -1.7425367252e-10 0 0 0 0 0 -1.7425367252e-10 
0 0 -1.7425367252e-10 0 0 -1.7425367252e-10 0 0 -1.7425367252e-10 
0 0 0 0 0 -1.7425367252e-10 0 0 0 
0 0 0 0 0 -1.7425367252e-10 0 0 0 
0 0 -1.7425367252e-10 0 0 -1.7425367252e-10 0 0 -1.7425367252e-10 
0 0 -1.7425367252e-10 0 0 0 0 0 0 
0 0 0 0 0 -1.7425367252e-10 0 0 -1.7425367252e-10 
0 0 0 0 0 0 0 0 -1.7425367252e-10 
0 0 -1.7425367252e-10 0 0 -8.9019973083e-09 0 0 0 
0 0 -1.7425367252e-10 0 0 0 0 0 0 
0 0 0 0 0 0 0 0 0 
0 0 -1.7425367252e-10 0 0 -1.7425367252e-10 0 0 0 
0 0 -1.7425367252e-10 0 0 0 0 0 -1.7425367252e-10 
0 0 0 0 0 -1.7425367252e-10 0 0 0 
0 0 -1.7425367252e-10 0 0 -1.7425367252e-10 0 0 -1.7425367252e-10 
0 0 0 0 0 0 0 0 0 
0 0 -1.7425367252e-10 0 0 -1.7425367252e-10 0 0 -1.7425367252e-10 
0 0 0 0 0 -1.7425367252e-10 0 0 -1.7425367252e-10 
0 0 -1.7425367252e-10 0 0 -1.7425367252e-10 0 0 -1.7425367252e-10 
0 0 -1.7425367252e-10 0 0 0 0 0 -1.7425367252e-10 
0 0 0 0 0 0 0 0 0 
0 0 0 0 0 -1.7425367252e-10 0 0 0 
0 0 0 0 0 0 0 0 0 
0 0 0 0 0 0 0 0 -1.7425367252e-10 
0 0 0 0 0 0 0 0 0 
0 0 -6.6584973997e-13 0 0 -1.7425367252e-10 0 0 0 
0 0 0 0 0 -1.7425367252e-10 0 0 0 
0 0 -1.7425367252e-10 0 0 -1.7425367252e-10 0 0 -1.7425367252e-10 
0 0 0 0 0 0 0 0 -1.7425367252e-10 
0 0 -1.7425367252e-10 0 0 -1.7425367252e-10 0 0 0 
0 0 -1.7425367252e-10 0 0 -1.7425367252e-10 0 0 0 
0 0 -1.7425367252e-10 0 0 0 0 0 -1.7425367252e-10 
0 0 -1.7425367252e-10 0 0 -1.7425367252e-10 0 0 0 
0 0 0 0 0 0 0 0 -8.9019973083e-09 
0 0 0 0 0 -1.7425367252e-10 0 0 -1.7425367252e-10 
0 0 0 0 0 0 0 0 0 
0 0 0 0 0 0 0 0 0 
0 0 0 0 0 -1.7425367252e-10 0 0 0 
0 0 0 0 0 -1.7425367252e-10 0 0 -1.7425367252e-10 
0 0 -8.9019973083e-09 0 0 0 0 0 -8.9019973083e-09 
0 0 -1.7425367252e-10 0 0 0 0 0 -1.7425367252e-10 
0 0 -1.7425367252e-10 0 0 -1.7425367252e-10 0 0 0 
0 0 0 0 0 0 0 0 -1.7425367252e-10 
0 0 0 0 0 0 0 0 -8.9019973083e-09 
0 0 -1.7425367252e-10 0 0 0 0 0 -1.7425367252e-10 
0 0 0 0 0 0 0 0 -1.7425367252e-10 
0 0 -1.7425367252e-10 0 0 -1.7425367252e-10 0 0 -1.7425367252e-10 
0 0 -1.7425367252e-10 0 0 -1.7425367252e-10 0 0 -1.7425367252e-10 
0 0 -1.7425367252e-10 0 0 -1.7425367252e-10 0 0 -1.7425367252e-10 
0 0 0 0 0 -1.7425367252e-10 0 0 0 
0 0 0 0 0 -1.7425367252e-10 0 0 0 
0 0 0 0 0 0 0 0 0 
0 0 0 0 0 -1.7425367252e-10 0 0 0 
0 0 0 0 0 0 0 0 0 
0 0 -1.7425367252e-10 0 0 0 0 0 0 
0 0 0 0 0 0 0 0 -1.7425367252e-10 
0 0 0 0 0 -1.5906684834e-08 0 0 0 
0 0 0 0 0 -1.7425367252e-10 0 0 0 
0 0 -1.7425367252e-10 0 0 0 0 0 0 
0 0 0 0 0 -1.7425367252e-10 0 0 0 
0 0 -1.7425367252e-10 0 0 0 0 0 -1.7425367252e-10 
0 0 -1.7425367252e-10 0 0 0 0 0 0 
0 0 0 0 0 0 0 0 0 
0 0 -1.7425367252e-10 0 0 0 0 0 0 
0 0 0 0 0 0 0 0 0 
0 0 0 0 0 -1.7425367252e-10 0 0 -1.7425367252e-10 
0 0 0 0 0 -1.7425367252e-10 0 0 0 
0 0 -1.7425367252e-10 0 0 -1.7425367252e-10 0 0 -1.7425367252e-10 
0 0 0 0 0 0 0 0 0 
0 0 -1.7425367252e-10 0 0 0 0 0 0 
0 0 0 0 0 -1.7425367252e-10 0 0 -1.7425367252e-10 
0 0 -1.7425367252e-10 0 0 0 0 0 -1.7425367252e-10 
0 0 0 0 0 -1.7425367252e-10 0 0 0 
0 0 0 0 0 0 0 0 -1.7425367252e-10 
0 0 0 0 0 -1.7425367252e-10 0 0 -1.7425367252e-10 
0 0 0 0 0 0 0 0 0 
0 0 -1.7425367252e-10 0 0 0 0 0 -1.7425367252e-10 
0 0 0 0 0 -1.7425367252e-10 0 0 -1.7425367252e-10 
0 0 0 0 0 0 0 0 0 
0 0 -1.7425367252e-10 0 0 0 0 0 -1.7425367252e-10 
0 0 -1.7425367252e-10 0 0 -1.7425367252e-10 0 0 0 
0 0 -1.7425367252e-10 0 0 -1.7425367252e-10 0 0 -1.7425367252e-10 
0 0 -1.7425367252e-10 0 0 -1.7425367252e-10 0 0 0 
0 0 0 0 0 -8.9019973083e-09 0 0 -1.7425367252e-10 
0 0 0 0 0 0 0 0 0 
0 0 0 0 0 0 0 0 -1.7425367252e-10 
0 0 -1.7425367252e-10 0 0 0 0 0 0 
0 0 0 0 0 0 0 0 -1.7425367252e-10 
0 0 0 0 0 0 0 0 0 
0 0 0 0 0 -1.7425367252e-10 0 0 0 
0 0 -1.7425367252e-10 0 0 0 0 0 0 
0 0 -1.7425367252e-10 0 0 5.396437291e-18 0 0 0 
0 0 0 0 0 0 0 0 -1.7425367252e-10 
0 0 0 0 0 0 0 0 -1.7425367252e-10 
0 0 -1.7425367252e-10 0 0 -1.7425367252e-10 0 0 0 
0 0 0 0 0 -1.7425367252e-10 0 0 -1.7425367252e-10 
0 0 0 0 0 -1.7425367252e-10 0 0 0 
0 0 0 0 0 -1.7425367252e-10 0 0 -1.7425367252e-10 
0 0 -1.7425367252e-10 0 0 0 0 0 0 
0 0 -1.7425367252e-10 0 0 0 0 0 -1.7425367252e-10 
0 0 -1.7425367252e-10 0 0 -1.7425367252e-10 0 0 0 
0 0 0 0 0 -1.7425367252e-10 0 0 0 
0 0 0 0 0 0 0 0 0 
0 0 0 0 0 0 0 0 0 
0 0 0 0 0 -1.7425367252e-10 0 0 0 
0 0 0 0 0 -1.7425367252e-10 0 0 -1.7425367252e-10 
0 0 -1.7425367252e-10 0 0 -1.7425367252e-10 0 0 0 
0 0 -1.7425367252e-10 0 0 -1.7425367252e-10 0 0 -1.7425367252e-10 
0 0 -1.7425367252e-10 0 0 -1.7425367252e-10 0 0 -1.7425367252e-10 
0 0 -1.7425367252e-10 0 0 -1.7425367252e-10 0 0 -1.7425367252e-10 
0 0 -1.7425367252e-10 0 0 -1.7425367252e-10 0 0 -1.7425367252e-10 
0 0 -1.7425367252e-10 0 0 -1.7425367252e-10 0 0 -1.7425367252e-10 
0 0 -1.7425367252e-10 0 0 -1.7425367252e-10 0 0 -1.7425367252e-10 
0 0 -1.7425367252e-10 0 0 -1.7425367252e-10 0 0 -1.7425367252e-10 
0 0 -1.7425367252e-10 0 0 -1.7425367252e-10 0 0 -1.7425367252e-10 
0 0 -8.9019973083e-09 0 0 -1.7425367252e-10 0 0 -1.7425367252e-10 
0 0 -1.7425367252e-10 0 0 -1.7425367252e-10 0 0 -1.7425367252e-10 
0 0 -1.7425367252e-10 0 0 -1.7425367252e-10 0 0 -1.7425367252e-10 
0 0 -1.7425367252e-10 0 0 -1.7425367252e-10 0 0 -1.7425367252e-10 
0 0 -1.7425367252e-10 0 0 -1.7425367252e-10 0 0 -1.7425367252e-10 
0 0 -1.7425367252e-10 0 0 -1.7425367252e-10 0 0 -1.7425367252e-10 
0 0 -1.7425367252e-10 0 0 -1.7425367252e-10 0 0 -1.7425367252e-10 
0 0 -8.9019973083e-09 0 0 -1.7425367252e-10 0 0 -1.7425367252e-10 
0 0 -1.7425367252e-10 0 0 -1.7425367252e-10 0 0 -1.7425367252e-10 
0 0 -1.7425367252e-10 0 0 -1.7425367252e-10 0 0 -1.7425367252e-10 
0 0 -1.7425367252e-10 0 0 -1.7425367252e-10 0 0 -1.7425367252e-10 
0 0 -1.7425367252e-10 0 0 -1.7425367252e-10 0 0 -1.7425367252e-10 
0 0 -1.7425367252e-10 0 0 -1.7425367252e-10 0 0 -1.7425367252e-10 
0 0 -1.7425367252e-10 0 0 -1.7425367252e-10 0 0 -1.7425367252e-10 
0 0 -1.7425367252e-10 0 0 -1.7425367252e-10 0 0 -1.7425367252e-10 
0 0 -1.7425367252e-10 0 0 -1.7425367252e-10 0 0 -1.7425367252e-10 
0 0 -1.7425367252e-10 0 0 -1.7425367252e-10 0 0 -1.7425367252e-10 
0 0 -1.7425367252e-10 0 0 -1.7425367252e-10 0 0 -1.7425367252e-10 
0 0 -1.7425367252e-10 0 0 -1.7425367252e-10 0 0 -1.7425367252e-10 
0 0 -1.7425367252e-10 0 0 -1.7425367252e-10 0 0 -1.7425367252e-10 
0 0 -1.7425367252e-10 0 0 -1.7425367252e-10 0 0 -1.7425367252e-10 
0 0 -1.7425367252e-10 0 0 -1.7425367252e-10 0 0 -1.7425367252e-10 
0 0 -1.7425367252e-10 0 0 -1.7425367252e-10 0 0 -1.7425367252e-10 
0 0 -1.7425367252e-10 0 0 -1.7425367252e-10 0 0 -1.7425367252e-10 
0 0 -1.7425367252e-10 0 0 -1.7425367252e-10 0 0 -1.7425367252e-10 
0 0 -1.7425367252e-10 0 0 -1.7425367252e-10 0 0 -1.7425367252e-10 
0 0 -1.7425367252e-10 0 0 -1.7425367252e-10 0 0 -8.9019973083e-09 
0 0 -1.7425367252e-10 0 0 -1.7425367252e-10 0 0 -8.9019973083e-09 
0 0 -1.7425367252e-10 0 0 -1.7425367252e-10 0 0 -1.7425367252e-10 
0 0 -1.7425367252e-10 0 0 -1.7425367252e-10 0 0 -1.7425367252e-10 
0 0 -1.7425367252e-10 0 0 -1.7425367252e-10 0 0 -1.7425367252e-10 
0 0 -1.7425367252e-10 0 0 -1.7425367252e-10 0 0 -1.7425367252e-10 
0 0 -1.7425367252e-10 0 0 -1.7425367252e-10 0 0 -1.7425367252e-10 
0 0 -1.7425367252e-10 0 0 -1.7425367252e-10 0 0 -1.7425367252e-10 
0 0 -1.7425367252e-10 0 0 -1.7425367252e-10 0 0 -1.7425367252e-10 
0 0 -1.7425367252e-10 0 0 -1.7425367252e-10 0 0 -1.7425367252e-10 
0 0 -1.7425367252e-10 0 0 -1.7425367252e-10 0 0 -1.7425367252e-10 
0 0 -1.7425367252e-10 0 0 -1.7425367252e-10 0 0 -1.7425367252e-10 
0 0 -1.7425367252e-10 0 0 -1.7425367252e-10 0 0 -1.7425367252e-10 
0 0 -1.7425367252e-10 0 0 -1.7425367252e-10 0 0 -1.7425367252e-10 
0 0 -1.7425367252e-10 0 0 -1.7425367252e-10 0 0 -1.7425367252e-10 
0 0 -1.7425367252e-10 0 0 -1.7425367252e-10 0 0 -1.7425367252e-10 
0 0 -1.7425367252e-10 0 0 -1.7425367252e-10 0 0 -1.7425367252e-10 
0 0 -1.7425367252e-10 0 0 -1.7425367252e-10 0 0 -1.7425367252e-10 
0 0 -1.7425367252e-10 0 0 -1.7425367252e-10 0 0 -1.7425367252e-10 
0 0 -1.7425367252e-10 0 0 -1.7425367252e-10 0 0 -1.7425367252e-10 
0 0 -1.7425367252e-10 0 0 -1.7425367252e-10 0 0 -1.7425367252e-10 
0 0 -1.7425367252e-10 0 0 -1.7425367252e-10 0 0 -1.7425367252e-10 
0 0 -1.7425367252e-10 0 0 -1.7425367252e-10 0 0 -1.7425367252e-10 
0 0 -1.7425367252e-10 0 0 -1.7425367252e-10 0 0 -1.7425367252e-10 
0 0 -1.7425367252e-10 0 0 -1.7425367252e-10 0 0 -1.7425367252e-10 
0 0 -1.7425367252e-10 0 0 -1.7425367252e-10 0 0 -1.7425367252e-10 
0 0 -1.7425367252e-10 0 0 -1.7425367252e-10 0 0 -1.7425367252e-10 
0 0 -1.7425367252e-10 0 0 -1.7425367252e-10 0 0 -1.7425367252e-10 
0 0 -1.7425367252e-10 0 0 -1.7425367252e-10 0 0 -1.7425367252e-10 
0 0 -1.7425367252e-10 0 0 -1.7425367252e-10 0 0 -1.7425367252e-10 
0 0 -1.7425367252e-10 0 0 -1.7425367252e-10 0 0 -1.7425367252e-10 
0 0 -8.9019973083e-09 0 0 -1.7425367252e-10 0 0 -1.7425367252e-10 
0 0 -1.7425367252e-10 0 0 -1.7425367252e-10 0 0 -1.7425367252e-10 
0 0 -1.7425367252e-10 0 0 -1.7425367252e-10 0 0 -1.7425367252e-10 
0 0 -1.7425367252e-10 0 0 -1.7425367252e-10 0 0 -1.7425367252e-10 
0 0 -1.7425367252e-10 0 0 -1.7425367252e-10 0 0 -1.7425367252e-10 
0 0 -1.7425367252e-10 0 0 -1.7425367252e-10 0 0 -1.7425367252e-10 
0 0 -1.7425367252e-10 0 0 -1.7425367252e-10 0 0 -1.7425367252e-10 
0 0 -1.7425367252e-10 0 0 -1.7425367252e-10 0 0 -1.7425367252e-10 
0 0 -1.7425367252e-10 0 0 -1.7425367252e-10 0 0 -1.7425367252e-10 
0 0 -1.7425367252e-10 0 0 -1.7425367252e-10 0 0 -1.7425367252e-10 
0 0 -1.7425367252e-10 0 0 -1.7425367252e-10 0 0 -1.7425367252e-10 
0 0 -1.7425367252e-10 0 0 -1.7425367252e-10 0 0 -1.7425367252e-10 
0 0 -1.7425367252e-10 0 0 -1.7425367252e-10 0 0 -1.7425367252e-10 
0 0 -1.7425367252e-10 0 0 -1.7425367252e-10 0 0 -1.7425367252e-10 
0 0 -1.7425367252e-10 0 0 -1.7425367252e-10 0 0 -1.7425367252e-10 
0 0 -1.7425367252e-10 0 0 -1.7425367252e-10 0 0 -1.7425367252e-10 
0 0 -8.9019973083e-09 0 0 -1.7425367252e-10 0 0 -8.9019973083e-09 
0 0 -1.7425367252e-10 0 0 -1.7425367252e-10 0 0 -1.7425367252e-10 
0 0 -1.7425367252e-10 0 0 -1.7425367252e-10 0 0 -1.7425367252e-10 
0 0 -1.7425367252e-10 0 0 -1.7425367252e-10 0 0 -8.9019973083e-09 
0 0 -8.9019973083e-09 0 0 -1.7425367252e-10 0 0 -1.7425367252e-10 
0 0 -1.7425367252e-10 0 0 -1.7425367252e-10 0 0 -1.7425367252e-10 
0 0 -1.7425367252e-10 0 0 -1.7425367252e-10 0 0 -1.7425367252e-10 
0 0 -1.7425367252e-10 0 0 -1.7425367252e-10 0 0 -6.8918688838e-08 
0 0 -8.9019973083e-09 0 0 -1.7425367252e-10 0 0 -1.7425367252e-10 
0 0 -1.7425367252e-10 0 0 -5.3297119368e-07 0 0 -1.7425367252e-10 
0 0 -1.7425367252e-10 0 0 -1.7425367252e-10 0 0 -1.7425367252e-10 
0 0 -1.7425367252e-10 0 0 -1.7425367252e-10 0 0 -1.7425367252e-10 
0 0 -8.9019973083e-09 0 0 -1.7425367252e-10 0 0 -1.7425367252e-10 
0 0 -1.7425367252e-10 0 0 -1.7425367252e-10 0 0 -1.7425367252e-10 
0 0 -1.7425367252e-10 0 0 -1.7425367252e-10 0 0 -1.7425367252e-10 
0 0 -1.7425367252e-10 0 0 -1.7425367252e-10 0 0 -1.7425367252e-10 
0 0 -1.7425367252e-10 0 0 -1.7425367252e-10 0 0 -1.7425367252e-10 

radius 1 648 double
2e-05 2e-05 2e-05 2e-05 2e-05 2e-05 2e-05 2e-05 2e-05 
2e-05 2e-05 2e-05 2e-05 2e-05 2e-05 2e-05 2e-05 2e-05 
2e-05 2e-05 2e-05 2e-05 2e-05 2e-05 2e-05 2e-05 2e-05 
2e-05 2e-05 2e-05 2e-05 2e-05 2e-05 2e-05 2e-05 2e-05 
2e-05 2e-05 2e-05 2e-05 2e-05 2e-05 2e-05 2e-05 2e-05 
2e-05 2e-05 2e-05 2e-05 2e-05 2e-05 2e-05 2e-05 2e-05 
2e-05 2e-05 2e-05 2e-05 7.5e-05 2e-05 2e-05 2e-05 2e-05 
2e-05 2e-05 2e-05 2e-05 2e-05 2e-05 2e-05 2e-05 2e-05 
2e-05 2e-05 2e-05 2e-05 2e-05 2e-05 2e-05 2e-05 2e-05 
2e-05 2e-05 2e-05 2e-05 2e-05 2e-05 2e-05 2e-05 2e-05 
2e-05 2e-05 2e-05 2e-05 2e-05 2e-05 2e-05 2e-05 2e-05 
2e-05 2e-05 2e-05 2e-05 2e-05 2e-05 2e-05 2e-05 2e-05 
2e-05 2e-05 2e-05 2e-05 2e-05 2e-05 2e-05 2e-05 2e-05 
2e-05 2e-05 2e-05 2e-05 2e-05 2e-05 2e-05 2e-05 2e-05 
2e-05 2e-05 2e-05 2e-05 2e-05 2e-05 2e-05 2e-05 7.5e-05 
2e-05 2e-05 2e-05 2e-05 2e-05 2e-05 2e-05 2e-05 2e-05 
2e-05 2e-05 2e-05 2e-05 2e-05 2e-05 7.5e-05 2e-05 7.5e-05 
2e-05 2e-05 2e-05 2e-05 2e-05 2e-05 2e-05 2e-05 2e-05 
2e-05 2e-05 7.5e-05 2e-05 2e-05 2e-05 2e-05 2e-05 2e-05 
2e-05 2e-05 2e-05 2e-05 2e-05 2e-05 2e-05 2e-05 2e-05 
2e-05 2e-05 2e-05 2e-05 2e-05 2e-05 2e-05 2e-05 2e-05 
2e-05 2e-05 2e-05 2e-05 2e-05 2e-05 2e-05 2e-05 2e-05 
2e-05 2e-05 2e-05 2e-05 2e-05 2e-05 2e-05 2e-05 2e-05 
2e-05 2e-05 2e-05 2e-05 2e-05 2e-05 2e-05 2e-05 2e-05 
2e-05 2e-05 2e-05 2e-05 2e-05 2e-05 2e-05 2e-05 2e-05 
2e-05 2e-05 2e-05 2e-05 2e-05 2e-05 2e-05 2e-05 2e-05 
2e-05 2e-05 2e-05 2e-05 2e-05 2e-05 2e-05 2e-05 2e-05 
2e-05 2e-05 2e-05 2e-05 2e-05 2e-05 2e-05 2e-05 2e-05 
2e-05 2e-05 2e-05 2e-05 2e-05 2e-05 2e-05 2e-05 2e-05 
2e-05 2e-05 2e-05 2e-05 2e-05 2e-05 2e-05 2e-05 2e-05 
2e-05 2e-05 2e-05 2e-05 2e-05 2e-05 2e-05 2e-05 2e-05 
2e-05 2e-05 2e-05 2e-05 7.5e-05 2e-05 2e-05 2e-05 2e-05 
2e-05 2e-05 2e-05 2e-05 2e-05 2e-05 2e-05 2e-05 2e-05 
2e-05 2e-05 2e-05 2e-05 2e-05 2e-05 2e-05 2e-05 2e-05 
2e-05 2e-05 2e-05 2e-05 2e-05 2e-05 2e-05 2e-05 2e-05 
2e-05 2e-05 2e-05 2e-05 2e-05 2e-05 2e-05 2e-05 2e-05 
2e-05 2e-05 2e-05 2e-05 2e-05 2e-05 2e-05 2e-05 2e-05 
2e-05 2e-05 2e-05 2e-05 2e-05 2e-05 2e-05 2e-05 2e-05 
2e-05 2e-05 2e-05 2e-05 2e-05 2e-05 2e-05 2e-05 2e-05 
2e-05 2e-05 2e-05 2e-05 2e-05 2e-05 2e-05 2e-05 2e-05 
2e-05 2e-05 2e-05 2e-05 2e-05 2e-05 2e-05 2e-05 2e-05 
2e-05 2e-05 2e-05 2e-05 2e-05 2e-05 2e-05 2e-05 2e-05 
7.5e-05 2e-05 2e-05 2e-05 2e-05 2e-05 2e-05 2e-05 2e-05 
2e-05 2e-05 2e-05 2e-05 2e-05 2e-05 2e-05 2e-05 2e-05 
2e-05 2e-05 2e-05 7.5e-05 2e-05 2e-05 2e-05 2e-05 2e-05 
2e-05 2e-05 2e-05 2e-05 2e-05 2e-05 2e-05 2e-05 2e-05 
2e-05 2e-05 2e-05 2e-05 2e-05 2e-05 2e-05 2e-05 2e-05 
2e-05 2e-05 2e-05 2e-05 2e-05 2e-05 2e-05 2e-05 2e-05 
2e-05 2e-05 2e-05 2e-05 2e-05 2e-05 2e-05 2e-05 2e-05 
2e-05 2e-05 2e-05 2e-05 2e-05 2e-05 2e-05 2e-05 2e-05 
2e-05 2e-05 2e-05 2e-05 2e-05 2e-05 2e-05 2e-05 7.5e-05 
2e-05 2e-05 7.5e-05 2e-05 2e-05 2e-05 2e-05 2e-05 2e-05 
2e-05 2e-05 2e-05 2e-05 2e-05 2e-05 2e-05 2e-05 2e-05 
2e-05 2e-05 2e-05 2e-05 2e-05 2e-05 2e-05 2e-05 2e-05 
2e-05 2e-05 2e-05 2e-05 2e-05 2e-05 2e-05 2e-05 2e-05 
2e-05 2e-05 2e-05 2e-05 2e-05 2e-05 2e-05 2e-05 2e-05 
2e-05 2e-05 2e-05 2e-05 2e-05 2e-05 2e-05 2e-05 2e-05 
2e-05 2e-05 2e-05 2e-05 2e-05 2e-05 2e-05 2e-05 2e-05 
2e-05 2e-05 2e-05 2e-05 2e-05 2e-05 2e-05 2e-05 2e-05 
2e-05 2e-05 2e-05 2e-05 2e-05 2e-05 2e-05 2e-05 2e-05 
2e-05 2e-05 2e-05 2e-05 2e-05 2e-05 2e-05 2e-05 2e-05 
7.5e-05 2e-05 2e-05 2e-05 2e-05 2e-05 2e-05 2e-05 2e-05 
2e-05 2e-05 2e-05 2e-05 2e-05 2e-05 2e-05 2e-05 2e-05 
2e-05 2e-05 2e-05 2e-05 2e-05 2e-05 2e-05 2e-05 2e-05 
2e-05 2e-05 2e-05 2e-05 2e-05 2e-05 2e-05 2e-05 2e-05 
2e-05 2e-05 2e-05 2e-05 2e-05 2e-05 2e-05 2e-05 2e-05 
2e-05 2e-05 2e-05 7.5e-05 2e-05 7.5e-05 2e-05 2e-05 2e-05 
2e-05 2e-05 2e-05 2e-05 2e-05 7.5e-05 7.5e-05 2e-05 2e-05 
2e-05 2e-05 2e-05 2e-05 2e-05 2e-05 2e-05 2e-05 0.00015 
7.5e-05 2e-05 2e-05 2e-05 0.0003 2e-05 2e-05 2e-05 2e-05 
2e-05 2e-05 2e-05 7.5e-05 2e-05 2e-05 2e-05 2e-05 2e-05 
2e-05 2e-05 2e-05 2e-05 2e-05 2e-05 2e-05 2e-05 2e-05 

omega 3 648 double
0 0 0 0 0 0 0 0 0 
0 0 0 0 0 0 0 0 0 
0 0 0 0 0 0 0 0 0 
0 0 0 0 0 0 0 0 0 
0 0 0 0 0 0 0 0 0 
0 0 0 0 0 0 0 0 0 
0 0 0 0 0 0 0 0 0 
0 0 0 0 0 0 0 0 0 
0 0 0 0 0 0 0 0 0 
0 0 0 0 0 0 0 0 0 
0 0 0 0 0 0 0 0 0 
0 0 0 0 0 0 0 0 0 
0 0 0 0 0 0 0 0 0 
0 0 0 0 0 0 0 0 0 
0 0 0 0 0 0 0 0 0 
0 0 0 0 0 0 0 0 0 
0 0 0 0 0 0 0 0 0 
0 0 0 0 0 0 0 0 0 
0 0 0 0 0 0 0 0 0 
0 0 0 0 0 0 0 0 0 
0 0 0 0 0 0 0 0 0 
0 0 0 0 0 0 0 0 0 
0 0 0 0 0 0 0 0 0 
0 0 0 0 0 0 0 0 0 
0 0 0 0 0 0 0 0 0 
0 0 0 0 0 0 0 0 0 
0 0 0 0 0 0 0 0 0 
0 0 0 0 0 0 0 0 0 
0 0 0 0 0 0 0 0 0 
0 0 0 0 0 0 0 0 0 
0 0 0 0 0 0 0 0 0 
0 0 0 0 0 0 0 0 0 
0 0 0 0 0 0 0 0 0 
0 0 0 0 0 0 0 0 0 
0 0 0 0 0 0 0 0 0 
0 0 0 0 0 0 0 0 0 
0 0 0 0 0 0 0 0 0 
0 0 0 0 0 0 0 0 0 
0 0 0 0 0 0 0 0 0 
0 0 0 0 0 0 0 0 0 
0 0 0 0 0 0 0 0 0 
0 0 0 0 0 0 0 0 0 
0 0 0 0 0 0 0 0 0 
0 0 0 0 0 0 0 0 0 
0 0 0 0 0 0 0 0 0 
0 0 0 0 0 0 0 0 0 
0 0 0 0 0 0 0 0 0 
0 0 0 0 0 0 0 0 0 
0 0 0 0 0 0 0 0 0 
0 0 0 0 0 0 0 0 0 
0 0 0 0 0 0 0 0 0 
0 0 0 0 0 0 0 0 0 
0 0 0 0 0 0 0 0 0 
0 0 0 0 0 0 0 0 0 
0 0 0 0 0 0 0 0 0 
0 0 0 0 0 0 0 0 0 
0 0 0 0 0 0 0 0 0 
0 0 0 0 0 0 0 0 0 
0 0 0 0 0 0 0 0 0 
0 0 0 0 0 0 0 0 0 
0 0 0 0 0 0 0 0 0 
0 0 0 0 0 0 0 0 0 
0 0 0 0 0 0 0 0 0 
0 0 0 0 0 0 0 0 0 
0 0 0 0 0 0 0 0 0 
0 0 0 0 0 0 0 0 0 
0 0 0 0 0 0 0 0 0 
0 0 0 0 0 0 0 0 0 
0 0 0 0 0 0 0 0 0 
0 0 0 0 0 0 0 0 0 
0 0 0 0 0 0 0 0 0 
0 0 0 0 0 0 0 0 0 
0 0 0 0 0 0 0 0 0 
0 0 0 0 0 0 0 0 0 
0 0 0 0 0 0 0 0 0 
0 0 0 0 0 0 0 0 0 
0 0 0 0 0 0 0 0 0 
0 0 0 0 0 0 0 0 0 
0 0 0 0 0 0 0 0 0 
0 0 0 0 0 0 0 0 0 
0 0 0 0 0 0 0 0 0 
0 0 0 0 0 0 0 0 0 
0 0 0 0 0 0 0 0 0 
0 0 0 0 0 0 0 0 0 
0 0 0 0 0 0 0 0 0 
0 0 0 0 0 0 0 0 0 
0 0 0 0 0 0 0 0 0 
0 0 0 0 0 0 0 0 0 
0 0 0 0 0 0 0 0 0 
0 0 0 0 0 0 0 0 0 
0 0 0 0 0 0 0 0 0 
0 0 0 0 0 0 0 0 0 
0 0 0 0 0 0 0 0 0 
0 0 0 0 0 0 0 0 0 
0 0 0 0 0 0 0 0 0 
0 0 0 0 0 0 0 0 0 
0 0 0 0 0 0 0 0 0 
0 0 0 0 0 0 0 0 0 
0 0 0 0 0 0 0 0 0 
0 0 0 0 0 0 0 0 0 
0 0 0 0 0 0 0 0 0 
0 0 0 0 0 0 0 0 0 
0 0 0 0 0 0 0 0 0 
0 0 0 0 0 0 0 0 0 
0 0 0 0 0 0 0 0 0 
0 0 0 0 0 0 0 0 0 
0 0 0 0 0 0 0 0 0 
0 0 0 0 0 0 0 0 0 
0 0 0 0 0 0 0 0 0 
0 0 0 0 0 0 0 0 0 
0 0 0 0 0 0 0 0 0 
0 0 0 0 0 0 0 0 0 
0 0 0 0 0 0 0 0 0 
0 0 0 0 0 0 0 0 0 
0 0 0 0 0 0 0 0 0 
0 0 0 0 0 0 0 0 0 
0 0 0 0 0 0 0 0 0 
0 0 0 0 0 0 0 0 0 
0 0 0 0 0 0 0 0 0 
0 0 0 0 0 0 0 0 0 
0 0 0 0 0 0 0 0 0 
0 0 0 0 0 0 0 0 0 
0 0 0 0 0 0 0 0 0 
0 0 0 0 0 0 0 0 0 
0 0 0 0 0 0 0 0 0 
0 0 0 0 0 0 0 0 0 
0 0 0 0 0 0 0 0 0 
0 0 0 0 0 0 0 0 0 
0 0 0 0 0 0 0 0 0 
0 0 0 0 0 0 0 0 0 
0 0 0 0 0 0 0 0 0 
0 0 0 0 0 0 0 0 0 
0 0 0 0 0 0 0 0 0 
0 0 0 0 0 0 0 0 0 
0 0 0 0 0 0 0 0 0 
0 0 0 0 0 0 0 0 0 
0 0 0 0 0 0 0 0 0 
0 0 0 0 0 0 0 0 0 
0 0 0 0 0 0 0 0 0 
0 0 0 0 0 0 0 0 0 
0 0 0 0 0 0 0 0 0 
0 0 0 0 0 0 0 0 0 
0 0 0 0 0 0 0 0 0 
0 0 0 0 0 0 0 0 0 
0 0 0 0 0 0 0 0 0 
0 0 0 0 0 0 0 0 0 
0 0 0 0 0 0 0 0 0 
0 0 0 0 0 0 0 0 0 
0 0 0 0 0 0 0 0 0 
0 0 0 0 0 0 0 0 0 
0 0 0 0 0 0 0 0 0 
0 0 0 0 0 0 0 0 0 
0 0 0 0 0 0 0 0 0 
0 0 0 0 0 0 0 0 0 
0 0 0 0 0 0 0 0 0 
0 0 0 0 0 0 0 0 0 
0 0 0 0 0 0 0 0 0 
0 0 0 0 0 0 0 0 0 
0 0 0 0 0 0 0 0 0 
0 0 0 0 0 0 0 0 0 
0 0 0 0 0 0 0 0 0 
0 0 0 0 0 0 0 0 0 
0 0 0 0 0 0 0 0 0 
0 0 0 0 0 0 0 0 0 
0 0 0 0 0 0 0 0 0 
0 0 0 0 0 0 0 0 0 
0 0 0 0 0 0 0 0 0 
0 0 0 0 0 0 0 0 0 
0 0 0 0 0 0 0 0 0 
0 0 0 0 0 0 0 0 0 
0 0 0 0 0 0 0 0 0 
0 0 0 0 0 0 0 0 0 
0 0 0 0 0 0 0 0 0 
0 0 0 0 0 0 0 0 0 
0 0 0 0 0 0 0 0 0 
0 0 0 0 0 0 0 0 0 
0 0 0 0 0 0 0 0 0 
0 0 0 0 0 0 0 0 0 
0 0 0 0 0 0 0 0 0 
0 0 0 0 0 0 0 0 0 
0 0 0 0 0 0 0 0 0 
0 0 0 0 0 0 0 0 0 
0 0 0 0 0 0 0 0 0 
0 0 0 0 0 0 0 0 0 
0 0 0 0 0 0 0 0 0 
0 0 0 0 0 0 0 0 0 
0 0 0 0 0 0 0 0 0 
0 0 0 0 0 0 0 0 0 
0 0 0 0 0 0 0 0 0 
0 0 0 0 0 0 0 0 0 
0 0 0 0 0 0 0 0 0 
0 0 0 0 0 0 0 0 0 
0 0 0 0 0 0 0 0 0 
0 0 0 0 0 0 0 0 0 
0 0 0 0 0 0 0 0 0 
0 0 0 0 0 0 0 0 0 
0 0 0 0 0 0 0 0 0 
0 0 0 0 0 0 0 0 0 
0 0 0 0 0 0 0 0 0 
0 0 0 0 0 0 0 0 0 
0 0 0 0 0 0 0 0 0 
0 0 0 0 0 0 0 0 0 
0 0 0 0 0 0 0 0 0 
0 0 0 0 0 0 0 0 0 
0 0 0 0 0 0 0 0 0 
0 0 0 0 0 0 0 0 0 
0 0 0 0 0 0 0 0 0 
0 0 0 0 0 0 0 0 0 
0 0 0 0 0 0 0 0 0 
0 0 0 0 0 0 0 0 0 
0 0 0 0 0 0 0 0 0 
0 0 0 0 0 0 0 0 0 
0 0 0 0 0 0 0 0 0 
0 0 0 0 0 0 0 0 0 
0 0 0 0 0 0 0 0 0 
0 0 0 0 0 0 0 0 0 

fx_mag_viz 1 648 double
0 0 0 0 0 0 0 0 0 
0 0 0 0 0 0 0 0 0 
0 0 0 0 0 0 0 0 0 
0 0 0 0 0 0 0 0 0 
0 0 0 0 0 0 0 0 0 
0 0 0 0 0 0 0 0 0 
0 0 0 0 0 0 0 0 0 
0 0 0 0 0 0 0 0 0 
0 0 0 0 0 0 0 0 0 
0 0 0 0 0 0 0 0 0 
0 0 0 0 0 0 0 0 0 
0 0 0 0 0 0 0 0 0 
0 0 0 0 0 0 0 0 0 
0 0 0 0 0 0 0 0 0 
0 0 0 0 0 0 0 0 0 
0 0 0 0 0 0 0 0 0 
0 0 0 0 0 0 0 0 0 
0 0 0 0 0 0 0 0 0 
0 0 0 0 0 0 0 0 0 
0 0 0 0 0 0 0 0 0 
0 0 0 0 0 0 0 0 0 
0 0 0 0 0 0 0 0 0 
0 0 0 0 0 0 0 0 0 
0 0 0 0 0 0 0 0 0 
0 0 0 0 0 0 0 0 0 
0 0 0 0 0 0 0 0 0 
0 0 0 0 0 0 0 0 0 
0 0 0 0 0 0 0 0 0 
0 0 0 0 0 0 0 0 0 
0 0 0 0 0 0 0 0 0 
0 0 0 0 0 0 0 0 0 
0 0 0 0 0 0 0 0 0 
0 0 0 0 0 0 0 0 0 
0 0 0 0 0 0 0 0 0 
0 0 0 0 0 0 0 0 0 
0 0 0 0 0 0 0 0 0 
0 0 0 0 0 0 0 0 0 
0 0 0 0 0 0 0 0 0 
0 0 0 0 0 0 0 0 0 
0 0 0 0 0 0 0 0 0 
0 0 0 0 0 0 0 0 0 
0 0 0 0 0 0 0 0 0 
0 0 0 0 0 0 0 0 0 
0 0 0 0 0 0 0 0 0 
0 0 0 0 0 0 0 0 0 
0 0 0 0 0 0 0 0 0 
0 0 0 0 0 0 0 0 0 
0 0 0 0 0 0 0 0 0 
0 0 0 0 0 0 0 0 0 
0 0 0 0 0 0 0 0 0 
0 0 0 0 0 0 0 0 0 
0 0 0 0 0 0 0 0 0 
0 0 0 0 0 0 0 0 0 
0 0 0 0 0 0 0 0 0 
0 0 0 0 0 0 0 0 0 
0 0 0 0 0 0 0 0 0 
0 0 0 0 0 0 0 0 0 
0 0 0 0 0 0 0 0 0 
0 0 0 0 0 0 0 0 0 
0 0 0 0 0 0 0 0 0 
0 0 0 0 0 0 0 0 0 
0 0 0 0 0 0 0 0 0 
0 0 0 0 0 0 0 0 0 
0 0 0 0 0 0 0 0 0 
0 0 0 0 0 0 0 0 0 
0 0 0 0 0 0 0 0 0 
0 0 0 0 0 0 0 0 0 
0 0 0 0 0 0 0 0 0 
0 0 0 0 0 0 0 0 0 
0 0 0 0 0 0 0 0 0 
0 0 0 0 0 0 0 0 0 
0 0 0 0 0 0 0 0 0 

fy_mag_viz 1 648 double
0 0 0 0 0 0 0 0 0 
0 0 0 0 0 0 0 0 0 
0 0 0 0 0 0 0 0 0 
0 0 0 0 0 0 0 0 0 
0 0 0 0 0 0 0 0 0 
0 0 0 0 0 0 0 0 0 
0 0 0 0 0 0 0 0 0 
0 0 0 0 0 0 0 0 0 
0 0 0 0 0 0 0 0 0 
0 0 0 0 0 0 0 0 0 
0 0 0 0 0 0 0 0 0 
0 0 0 0 0 0 0 0 0 
0 0 0 0 0 0 0 0 0 
0 0 0 0 0 0 0 0 0 
0 0 0 0 0 0 0 0 0 
0 0 0 0 0 0 0 0 0 
0 0 0 0 0 0 0 0 0 
0 0 0 0 0 0 0 0 0 
0 0 0 0 0 0 0 0 0 
0 0 0 0 0 0 0 0 0 
0 0 0 0 0 0 0 0 0 
0 0 0 0 0 0 0 0 0 
0 0 0 0 0 0 0 0 0 
0 0 0 0 0 0 0 0 0 
0 0 0 0 0 0 0 0 0 
0 0 0 0 0 0 0 0 0 
0 0 0 0 0 0 0 0 0 
0 0 0 0 0 0 0 0 0 
0 0 0 0 0 0 0 0 0 
0 0 0 0 0 0 0 0 0 
0 0 0 0 0 0 0 0 0 
0 0 0 0 0 0 0 0 0 
0 0 0 0 0 0 0 0 0 
0 0 0 0 0 0 0 0 0 
0 0 0 0 0 0 0 0 0 
0 0 0 0 0 0 0 0 0 
0 0 0 0 0 0 0 0 0 
0 0 0 0 0 0 0 0 0 
0 0 0 0 0 0 0 0 0 
0 0 0 0 0 0 0 0 0 
0 0 0 0 0 0 0 0 0 
0 0 0 0 0 0 0 0 0 
0 0 0 0 0 0 0 0 0 
0 0 0 0 0 0 0 0 0 
0 0 0 0 0 0 0 0 0 
0 0 0 0 0 0 0 0 0 
0 0 0 0 0 0 0 0 0 
0 0 0 0 0 0 0 0 0 
0 0 0 0 0 0 0 0 0 
0 0 0 0 0 0 0 0 0 
0 0 0 0 0 0 0 0 0 
0 0 0 0 0 0 0 0 0 
0 0 0 0 0 0 0 0 0 
0 0 0 0 0 0 0 0 0 
0 0 0 0 0 0 0 0 0 
0 0 0 0 0 0 0 0 0 
0 0 0 0 0 0 0 0 0 
0 0 0 0 0 0 0 0 0 
0 0 0 0 0 0 0 0 0 
0 0 0 0 0 0 0 0 0 
0 0 0 0 0 0 0 0 0 
0 0 0 0 0 0 0 0 0 
0 0 0 0 0 0 0 0 0 
0 0 0 0 0 0 0 0 0 
0 0 0 0 0 0 0 0 0 
0 0 0 0 0 0 0 0 0 
0 0 0 0 0 0 0 0 0 
0 0 0 0 0 0 0 0 0 
0 0 0 0 0 0 0 0 0 
0 0 0 0 0 0 0 0 0 
0 0 0 0 0 0 0 0 0 
0 0 0 0 0 0 0 0 0 

fz_mag_viz 1 648 double
0 0 0 0 0 0 0 0 0 
0 0 0 0 0 0 0 0 0 
0 0 0 0 0 0 0 0 0 
0 0 0 0 0 0 0 0 0 
0 0 0 0 0 0 0 0 0 
0 0 0 0 0 0 0 0 0 
0 0 0 0 0 0 0 0 0 
0 0 0 0 0 0 0 0 0 
0 0 0 0 0 0 0 0 0 
0 0 0 0 0 0 0 0 0 
0 0 0 0 0 0 0 0 0 
0 0 0 0 0 0 0 0 0 
0 0 0 0 0 0 0 0 0 
0 0 0 0 0 0 0 0 0 
0 0 0 0 0 0 0 0 0 
0 0 0 0 0 0 0 0 0 
0 0 0 0 0 0 0 0 0 
0 0 0 0 0 0 0 0 0 
0 0 0 0 0 0 0 0 0 
0 0 0 0 0 0 0 0 0 
0 0 0 0 0 0 0 0 0 
0 0 0 0 0 0 0 0 0 
0 0 0 0 0 0 0 0 0 
0 0 0 0 0 0 0 0 0 
0 0 0 0 0 0 0 0 0 
0 0 0 0 0 0 0 0 0 
0 0 0 0 0 0 0 0 0 
0 0 0 0 0 0 0 0 0 
0 0 0 0 0 0 0 0 0 
0 0 0 0 0 0 0 0 0 
0 0 0 0 0 0 0 0 0 
0 0 0 0 0 0 0 0 0 
0 0 0 0 0 0 0 0 0 
0 0 0 0 0 0 0 0 0 
0 0 0 0 0 0 0 0 0 
0 0 0 0 0 0 0 0 0 
0 0 0 0 0 0 0 0 0 
0 0 0 0 0 0 0 0 0 
0 0 0 0 0 0 0 0 0 
0 0 0 0 0 0 0 0 0 
0 0 0 0 0 0 0 0 0 
0 0 0 0 0 0 0 0 0 
0 0 0 0 0 0 0 0 0 
0 0 0 0 0 0 0 0 0 
0 0 0 0 0 0 0 0 0 
0 0 0 0 0 0 0 0 0 
0 0 0 0 0 0 0 0 0 
0 0 0 0 0 0 0 0 0 
0 0 0 0 0 0 0 0 0 
0 0 0 0 0 0 0 0 0 
0 0 0 0 0 0 0 0 0 
0 0 0 0 0 0 0 0 0 
0 0 0 0 0 0 0 0 0 
0 0 0 0 0 0 0 0 0 
0 0 0 0 0 0 0 0 0 
0 0 0 0 0 0 0 0 0 
0 0 0 0 0 0 0 0 0 
0 0 0 0 0 0 0 0 0 
0 0 0 0 0 0 0 0 0 
0 0 0 0 0 0 0 0 0 
0 0 0 0 0 0 0 0 0 
0 0 0 0 0 0 0 0 0 
0 0 0 0 0 0 0 0 0 
0 0 0 0 0 0 0 0 0 
0 0 0 0 0 0 0 0 0 
0 0 0 0 0 0 0 0 0 
0 0 0 0 0 0 0 0 0 
0 0 0 0 0 0 0 0 0 
0 0 0 0 0 0 0 0 0 
0 0 0 0 0 0 0 0 0 
0 0 0 0 0 0 0 0 0 
0 0 0 0 0 0 0 0 0 

B_magnitude 1 648 double
0 0 0 0 0 0 0 0 0 
0 0 0 0 0 0 0 0 0 
0 0 0 0 0 0 0 0 0 
0 0 0 0 0 0 0 0 0 
0 0 0 0 0 0 0 0 0 
0 0 0 0 0 0 0 0 0 
0 0 0 0 0 0 0 0 0 
0 0 0 0 0 0 0 0 0 
0 0 0 0 0 0 0 0 0 
0 0 0 0 0 0 0 0 0 
0 0 0 0 0 0 0 0 0 
0 0 0 0 0 0 0 0 0 
0 0 0 0 0 0 0 0 0 
0 0 0 0 0 0 0 0 0 
0 0 0 0 0 0 0 0 0 
0 0 0 0 0 0 0 0 0 
0 0 0 0 0 0 0 0 0 
0 0 0 0 0 0 0 0 0 
0 0 0 0 0 0 0 0 0 
0 0 0 0 0 0 0 0 0 
0 0 0 0 0 0 0 0 0 
0 0 0 0 0 0 0 0 0 
0 0 0 0 0 0 0 0 0 
0 0 0 0 0 0 0 0 0 
0 0 0 0 0 0 0 0 0 
0 0 0 0 0 0 0 0 0 
0 0 0 0 0 0 0 0 0 
0 0 0 0 0 0 0 0 0 
0 0 0 0 0 0 0 0 0 
0 0 0 0 0 0 0 0 0 
0 0 0 0 0 0 0 0 0 
0 0 0 0 0 0 0 0 0 
0 0 0 0 0 0 0 0 0 
0 0 0 0 0 0 0 0 0 
0 0 0 0 0 0 0 0 0 
0 0 0 0 0 0 0 0 0 
0 0 0 0 0 0 0 0 0 
0 0 0 0 0 0 0 0 0 
0 0 0 0 0 0 0 0 0 
0 0 0 0 0 0 0 0 0 
0 0 0 0 0 0 0 0 0 
0 0 0 0 0 0 0 0 0 
0 0 0 0 0 0 0 0 0 
0 0 0 0 0 0 0 0 0 
0 0 0 0 0 0 0 0 0 
0 0 0 0 0 0 0 0 0 
0 0 0 0 0 0 0 0 0 
0 0 0 0 0 0 0 0 0 
0 0 0 0 0 0 0 0 0 
0 0 0 0 0 0 0 0 0 
0 0 0 0 0 0 0 0 0 
0 0 0 0 0 0 0 0 0 
0 0 0 0 0 0 0 0 0 
0 0 0 0 0 0 0 0 0 
0 0 0 0 0 0 0 0 0 
0 0 0 0 0 0 0 0 0 
0 0 0 0 0 0 0 0 0 
0 0 0 0 0 0 0 0 0 
0 0 0 0 0 0 0 0 0 
0 0 0 0 0 0 0 0 0 
0 0 0 0 0 0 0 0 0 
0 0 0 0 0 0 0 0 0 
0 0 0 0 0 0 0 0 0 
0 0 0 0 0 0 0 0 0 
0 0 0 0 0 0 0 0 0 
0 0 0 0 0 0 0 0 0 
0 0 0 0 0 0 0 0 0 
0 0 0 0 0 0 0 0 0 
0 0 0 0 0 0 0 0 0 
0 0 0 0 0 0 0 0 0 
0 0 0 0 0 0 0 0 0 
0 0 0 0 0 0 0 0 0 

B_gradient_mag 1 648 double
0 0 0 0 0 0 0 0 0 
0 0 0 0 0 0 0 0 0 
0 0 0 0 0 0 0 0 0 
0 0 0 0 0 0 0 0 0 
0 0 0 0 0 0 0 0 0 
0 0 0 0 0 0 0 0 0 
0 0 0 0 0 0 0 0 0 
0 0 0 0 0 0 0 0 0 
0 0 0 0 0 0 0 0 0 
0 0 0 0 0 0 0 0 0 
0 0 0 0 0 0 0 0 0 
0 0 0 0 0 0 0 0 0 
0 0 0 0 0 0 0 0 0 
0 0 0 0 0 0 0 0 0 
0 0 0 0 0 0 0 0 0 
0 0 0 0 0 0 0 0 0 
0 0 0 0 0 0 0 0 0 
0 0 0 0 0 0 0 0 0 
0 0 0 0 0 0 0 0 0 
0 0 0 0 0 0 0 0 0 
0 0 0 0 0 0 0 0 0 
0 0 0 0 0 0 0 0 0 
0 0 0 0 0 0 0 0 0 
0 0 0 0 0 0 0 0 0 
0 0 0 0 0 0 0 0 0 
0 0 0 0 0 0 0 0 0 
0 0 0 0 0 0 0 0 0 
0 0 0 0 0 0 0 0 0 
0 0 0 0 0 0 0 0 0 
0 0 0 0 0 0 0 0 0 
0 0 0 0 0 0 0 0 0 
0 0 0 0 0 0 0 0 0 
0 0 0 0 0 0 0 0 0 
0 0 0 0 0 0 0 0 0 
0 0 0 0 0 0 0 0 0 
0 0 0 0 0 0 0 0 0 
0 0 0 0 0 0 0 0 0 
0 0 0 0 0 0 0 0 0 
0 0 0 0 0 0 0 0 0 
0 0 0 0 0 0 0 0 0 
0 0 0 0 0 0 0 0 0 
0 0 0 0 0 0 0 0 0 
0 0 0 0 0 0 0 0 0 
0 0 0 0 0 0 0 0 0 
0 0 0 0 0 0 0 0 0 
0 0 0 0 0 0 0 0 0 
0 0 0 0 0 0 0 0 0 
0 0 0 0 0 0 0 0 0 
0 0 0 0 0 0 0 0 0 
0 0 0 0 0 0 0 0 0 
0 0 0 0 0 0 0 0 0 
0 0 0 0 0 0 0 0 0 
0 0 0 0 0 0 0 0 0 
0 0 0 0 0 0 0 0 0 
0 0 0 0 0 0 0 0 0 
0 0 0 0 0 0 0 0 0 
0 0 0 0 0 0 0 0 0 
0 0 0 0 0 0 0 0 0 
0 0 0 0 0 0 0 0 0 
0 0 0 0 0 0 0 0 0 
0 0 0 0 0 0 0 0 0 
0 0 0 0 0 0 0 0 0 
0 0 0 0 0 0 0 0 0 
0 0 0 0 0 0 0 0 0 
0 0 0 0 0 0 0 0 0 
0 0 0 0 0 0 0 0 0 
0 0 0 0 0 0 0 0 0 
0 0 0 0 0 0 0 0 0 
0 0 0 0 0 0 0 0 0 
0 0 0 0 0 0 0 0 0 
0 0 0 0 0 0 0 0 0 
0 0 0 0 0 0 0 0 0 

