# vtk DataFile Version 5.1
Generated by LIGGGHTS
ASCII
DATASET POLYDATA
POINTS 648 float
-0.0308094 -0.0435702 0.0479973 -0.0112192 -0.0104501 0.0483397 0.00743742 -0.00926665 0.0482372 
-0.00433253 -0.00676057 0.0480466 -0.0179231 -0.00300678 0.047992 -0.042922 -0.0404536 0.0488185 
0.00798734 -0.0367051 0.0498571 0.0280204 -0.0311414 0.0488765 0.000892701 -0.0263701 0.049776 
0.013874 -0.00963069 0.0493198 -0.0129003 -0.00574839 0.0490985 0.021602 0.00540593 0.0495693 
0.0221269 0.00728552 0.0497969 -0.0214351 0.00957734 0.0488159 -0.0310202 0.0131063 0.0494159 
0.0167463 0.0251763 0.0500943 0.0364634 0.0310238 0.0493471 -0.0264781 0.032823 0.0490448 
0.0297434 0.0373158 0.0491375 -0.0428902 -0.0449088 0.0501297 0.0308099 -0.0378456 0.050962 
0.0333162 -0.0342631 0.0512706 -0.0257955 -0.0157834 0.0505238 0.0384376 0.000848974 0.050419 
0.0449494 0.00392273 0.0507985 -0.022709 0.0198803 0.0502717 0.03506 0.0228899 0.0510992 
0.0181332 0.0246356 0.0511734 -0.0390027 0.0421086 0.050287 -0.0105296 -0.0314142 0.0526245 
-0.00444012 -0.0151621 0.0520403 -0.0117656 -0.0138394 0.052418 0.0109664 -0.00760095 0.0518777 
0.00937085 -0.00418454 0.0516177 0.0180565 -0.00487531 0.0517106 -0.0141425 -0.00311887 0.0520964 
0.0248423 0.0143007 0.0524322 0.0123926 0.0218243 0.0522542 -0.0100897 -0.0180162 0.0527301 
0.00689113 -0.0107816 0.0536387 -0.0198564 -0.00683511 0.0528473 0.021323 -0.00444137 0.0538924 
0.0246705 0.0064451 0.0531293 -0.0426568 0.00723228 0.053197 0.0212596 0.00979192 0.0531338 
0.0398091 0.011618 0.0537369 0.0143092 0.0139794 0.0528483 0.0307708 0.0242663 0.0538531 
-0.0335565 -0.0442122 0.0546946 0.0156715 -0.0391733 0.0542415 -0.0266532 -0.0301716 0.0551663 
0.033456 -0.0256735 0.0544141 0.039775 -0.0211058 0.0548814 -0.0388614 -0.0136303 0.0550042 
0.0350526 -0.0102353 0.0548849 0.0292006 0.00433004 0.0545971 0.0340899 0.00882812 0.0541511 
-0.00782209 0.0241861 0.0549517 -0.0200898 0.0311527 0.0540649 -0.0073504 0.0318329 0.0545968 
-0.0248652 -0.040212 0.0559558 -0.00302782 -0.0385948 0.0556661 0.00517921 0.0169249 0.0559453 
-0.0360536 0.0173104 0.0553197 0.0090081 0.0191686 0.0555904 0.000162142 0.0251126 0.0565177 
0.0038092 0.0311583 0.056547 0.01325 0.0319187 0.0563503 0.0165329 0.0385374 0.056536 
-0.00674967 -0.0416523 0.0574944 0.00594186 -0.0351889 0.057634 0.00156248 -0.0194187 0.0578326 
0.0286804 -0.00919085 0.0575362 -0.0260142 0.00017485 0.0570868 0.0305447 0.00486582 0.0578222 
8.23501e-07 0.0138406 0.057055 0.0215224 0.0171285 0.056873 -0.0153727 0.020636 0.0573113 
-0.00563177 0.0268155 0.0566724 0.00577088 -0.0287415 0.0587107 -0.0408326 -0.0234295 0.0585395 
-0.0108877 -0.0188832 0.0584709 0.0030191 -0.0179247 0.0581439 -0.0269092 -0.0125643 0.0589568 
0.00417698 0.0024455 0.0589808 0.0188762 0.00181355 0.0581242 -0.0287984 0.00559412 0.0581739 
-0.0282566 0.021284 0.0580911 0.0251972 0.0393087 0.0584104 -0.0334706 -0.0396012 0.0598453 
0.040047 -0.0404588 0.0600915 0.0336491 -0.0197505 0.0599009 -0.0339565 -0.0167518 0.0599077 
-0.0214415 -0.007536 0.0596216 0.0287781 0.014071 0.059369 -0.0409258 0.0305044 0.0597745 
-0.0313244 0.0314049 0.059614 -0.041477 0.0364172 0.060432 -0.0240719 -0.0268296 0.0613519 
-0.0426154 -0.0165053 0.0610278 0.0223879 -0.0163393 0.0610352 -0.00702036 -0.00121172 0.0610165 
-0.00783961 -0.000387029 0.061418 -0.00967086 0.00179773 0.060933 -0.034865 0.0142961 0.0606767 
-0.0386663 0.0253433 0.0614567 0.0221021 0.0401282 0.0613102 0.0414821 -0.0410789 0.0631091 
-0.0232422 -0.0321576 0.0630222 0.0436787 -0.0219137 0.0623649 0.0277003 -0.0107969 0.062214 
-0.0267569 0.0263983 0.0618947 0.0444958 0.0309554 0.0629383 0.0404767 -0.0183151 0.063217 
0.0251729 -0.00985964 0.0640193 0.0228765 0.00606581 0.0633615 0.030759 0.00580352 0.0644064 
0.0399323 0.0117688 0.0636213 0.00395304 0.0187088 0.0642272 -0.00739359 0.0259593 0.0637414 
-0.0357156 0.0282031 0.0642567 0.0191509 0.0299648 0.0635906 0.00284552 0.0345861 0.063264 
-0.0112537 0.0395394 0.0639791 -0.0205282 0.0432397 0.0640821 -0.0439713 -0.0357399 0.0644464 
0.0244271 -0.0334586 0.0650851 0.0268369 -0.0315202 0.0651362 -0.0448384 -0.0296834 0.0648104 
0.00623721 -0.0211799 0.0647231 -0.0329121 -0.0139828 0.0651669 0.0176437 -0.0119747 0.0654927 
-0.0170872 0.00564833 0.0656207 0.0011249 0.00615697 0.0647684 0.0163992 0.0415262 0.0651504 
-0.044759 -0.0437614 0.0657649 -0.0370475 -0.0370945 0.0661973 0.023158 -0.0340207 0.0669863 
0.032808 -0.025967 0.0666333 -0.0317771 -0.0175651 0.0668893 0.0268005 -0.0146468 0.065829 
-0.038829 -0.00978443 0.0666854 -0.0304645 -0.00701594 0.0666844 -0.042786 -0.00359954 0.0663032 
-0.00279986 0.0127222 0.0661124 0.014866 0.0127598 0.0670017 0.0418335 0.0161761 0.0663079 
-0.0214239 0.0189608 0.0669372 -0.023041 0.0197144 0.0664008 0.00128112 0.0217131 0.0663325 
0.0226957 0.0260881 0.0668768 -0.00435696 0.0325462 0.0668968 0.00805094 0.0422278 0.0663572 
-0.027409 -0.0433703 0.068222 0.0244803 -0.0401788 0.0674301 0.00879071 -0.0344865 0.0680455 
-0.0427235 -0.0332389 0.0673917 -0.00580099 -0.0272788 0.0681516 0.0131353 -0.00504642 0.0675799 
0.039455 -0.000236508 0.067958 0.0142017 0.0079404 0.0675065 0.0202046 0.00840095 0.0678129 
-0.0408092 0.00981999 0.06769 -0.0392616 0.00972366 0.068299 0.00953871 0.0271324 0.0678912 
-0.00670669 -0.0394183 0.0690046 -0.0262624 -0.032473 0.0686196 0.00802514 -0.031483 0.0684041 
-0.0222502 -0.00974669 0.0695798 -0.00553214 -0.00871323 0.0690842 0.0147261 0.00139147 0.0688637 
-0.037077 0.00611456 0.06954 -0.0429188 0.0135204 0.069584 0.0226738 0.0181095 0.0685999 
0.0146363 0.0223077 0.0687036 -0.0312382 0.0393096 0.0690066 0.0399235 0.0434757 0.0688045 
-0.00340304 -0.0448428 0.0697695 -0.0338231 -0.0250135 0.0697804 0.0363266 -0.0194176 0.0700263 
-0.0204621 -0.0172006 0.0707749 0.0249316 -0.014475 0.070674 -0.0101256 0.00978275 0.0703808 
-0.0431379 0.0208085 0.0702289 0.0362273 0.0220011 0.0700815 -0.0114472 0.026715 0.0700574 
0.000822496 -0.0363122 0.0719513 -0.0240024 -0.0280603 0.072033 0.0198229 -0.0156851 0.0715789 
-0.0196799 -0.00931279 0.0712573 -0.0135858 -0.00672635 0.0714637 -0.00723413 0.00605583 0.071454 
0.0336082 0.013194 0.0718959 -0.0349287 0.0230684 0.0711698 -0.0375088 0.0393741 0.0718879 
-0.0346971 -0.0446764 0.0732283 0.0248068 -0.0428986 0.0730729 0.0418836 -0.0421436 0.0727203 
0.0238162 -0.0409762 0.072781 0.0306875 -0.0259396 0.0730168 0.00538025 -0.0241403 0.07351 
-0.0281455 -0.00127675 0.0729924 -0.0416237 0.00110806 0.0733529 0.0362421 0.00170773 0.0725378 
0.0404406 0.00462082 0.0726543 0.0197977 0.00963841 0.0731389 0.00976298 0.0163696 0.07336 
0.0388885 0.0193682 0.0725366 -0.00883869 0.0381834 0.0733803 0.0238959 0.0383247 0.0729417 
-0.0248654 -0.0427111 0.0741915 0.000425919 -0.0415728 0.074954 -0.018434 -0.0405477 0.0740609 
-0.0108246 -0.0388127 0.0744639 0.0397687 -0.0374633 0.0740899 0.03382 -0.0268981 0.0739105 
-0.00747582 -0.00609419 0.0745254 0.0128044 0.0127337 0.0747084 0.0261916 0.0119357 0.0739689 
-0.00307286 0.0144526 0.0743012 0.0122157 0.0191756 0.0739228 0.0311732 0.0371467 0.0745721 
0.0424299 -0.0409921 0.0749089 0.0102479 -0.024092 0.0750463 -0.0225401 -0.0213878 0.0749616 
-0.00827992 -0.020547 0.0755465 -0.0296942 -0.0196153 0.075344 0.0403752 -0.0143085 0.0760595 
0.00523139 -0.00599236 0.075604 -0.0394276 0.0109375 0.0762652 -0.0421793 0.0225172 0.0752568 
-0.0190887 0.0269029 0.0756422 -0.0376379 0.0294143 0.075621 -0.0127911 0.0299546 0.0755149 
0.00372347 0.0304157 0.0757283 -0.00973825 0.0391656 0.075133 0.0222253 0.0407186 0.0759693 
-0.0181988 0.0434549 0.0759467 0.0145521 -0.0432303 0.0768852 0.027474 -0.0338615 0.0771145 
0.00548761 -0.0197918 0.0774104 0.0313953 -0.00974065 0.0772208 0.0406218 -0.0100941 0.077373 
0.0290986 -0.000251763 0.0770245 0.0407777 0.000744206 0.0765308 0.0283387 0.00890506 0.0761912 
0.00861143 0.0123591 0.0769915 -0.0196462 0.0155185 0.0772579 0.0121458 0.0151918 0.0767871 
-0.0245447 0.0378537 0.0762897 0.0281745 0.039089 0.0768857 0.0352379 0.0438995 0.077162 
0.0348044 -0.042095 0.0778648 -0.0168273 -0.0360331 0.078587 -0.0376897 -0.0314333 0.0783124 
0.0394323 -0.021923 0.0782674 -0.0227164 -0.0141288 0.0781279 -0.040885 -0.00406647 0.07865 
0.0323225 0.00436429 0.0783588 0.0250346 0.00641518 0.077911 -0.00867948 0.0139924 0.0780459 
0.00546842 0.0177814 0.0782932 0.00519606 0.0301696 0.0781442 0.00390562 0.0317225 0.0779587 
0.00317215 0.0343196 0.0776738 -0.0263426 -0.0292431 0.0788566 -0.0430551 -0.0267583 0.0798957 
0.0233461 -0.0214624 0.0789626 -0.0186412 -0.0134353 0.0799051 0.0161928 -0.00760918 0.0796212 
0.032558 0.00153523 0.0794989 -0.0108954 0.0304 0.0793997 0.0231674 0.0340949 0.0794704 
0.0181024 -0.0433049 0.0812985 0.0346336 -0.0325969 0.0809711 0.0252581 -0.0163235 0.0811614 
0.0414517 -0.0114994 0.0810497 0.0129906 -0.00677597 0.0811031 -0.0120059 -0.00345367 0.0806891 
-0.00896956 -0.00131708 0.0804997 0.0116524 0.00206193 0.0811682 0.0441199 0.0136981 0.0809039 
0.000954082 0.0152563 0.0802314 0.0405446 0.0433429 0.0805301 0.0131812 -0.0427533 0.0815068 
-0.0349861 -0.0412827 0.0822146 0.00985621 -0.0367022 0.0822944 0.0449741 -0.0303513 0.0821981 
-0.0327621 -0.0121928 0.0815909 0.0275881 -0.00673863 0.0827214 0.0387156 -0.00624884 0.0818218 
0.00975646 -0.00313231 0.0814873 0.0311878 0.014057 0.0820552 0.00126512 0.0228658 0.082077 
0.00264144 0.0247174 0.0825453 0.026696 0.03017 0.0821854 0.0193546 0.0324404 0.0816578 
-0.00585061 0.0388609 0.0816905 0.0352701 0.0439749 0.0815364 -0.00586029 -0.0338127 0.0831227 
-0.0220587 -0.0306349 0.0838045 -0.0414327 -0.0290659 0.0838179 0.00558373 -0.0242787 0.0833733 
-0.0350278 -0.0224863 0.0838568 -0.0127621 -0.0231756 0.0834575 0.035159 -0.023363 0.0837415 
-0.0323128 -0.0219837 0.0830815 0.038292 -0.016257 0.0832034 0.0323803 -0.0150629 0.0828702 
-0.00254943 -0.00825679 0.0833701 -0.0344646 -0.00725539 0.0836938 0.0180458 -0.00470109 0.0837641 
-0.0107529 -0.00365687 0.0838885 -0.0325416 0.00283857 0.0832195 -0.0261639 0.00337815 0.0835316 
0.00243665 0.00282786 0.0832211 -0.025141 0.00447188 0.0838279 -0.00841171 0.0143034 0.0829794 
0.0407412 0.0174253 0.0826346 -0.0122989 0.0222019 0.0829556 0.021223 0.0244832 0.0835825 
0.0438582 0.0244724 0.0831413 0.0395905 0.0272142 0.0836745 -0.00196307 0.0366495 0.0838805 
0.0166138 -0.0412108 0.0842949 -0.0233761 -0.031813 0.0840652 0.0346338 -0.0290927 0.0843809 
0.0101031 -0.0273014 0.0845031 0.0240101 -0.0228809 0.0845388 -0.0147645 -0.0165889 0.084905 
0.0322358 -0.0130621 0.085447 0.0334462 -0.00930086 0.0849385 -0.00941413 -0.00330341 0.0843482 
-0.0283489 -0.000417126 0.0841909 0.0140084 -6.89735e-05 0.085124 -0.0105861 0.00898083 0.0851258 
0.0396593 0.013993 0.0842895 0.0398418 0.0217469 0.0844424 0.0372507 0.0318783 0.0842089 
0.0294278 0.0431452 0.0851913 -0.0406141 -0.0405112 0.0855574 -0.0309963 -0.0355024 0.0852839 
0.0433459 -0.0353282 0.0857792 0.00264867 -0.0338128 0.0864116 -0.0386911 -0.0311434 0.0864084 
-0.00863888 -0.0237376 0.085987 -0.0150798 -0.00698339 0.0864629 -0.00401126 -0.00720159 0.0865059 
0.0404774 -0.00688032 0.0862842 0.0293019 -0.00298432 0.0864385 -0.000610522 -0.00103491 0.085953 
0.0101693 0.00555192 0.0866845 -0.009285 0.00693532 0.0859529 0.0211953 0.00966092 0.0853684 
-0.0148746 0.0223253 0.0853932 -0.0267196 0.0236159 0.086009 -0.0337286 0.0337045 0.0860034 
0.00528787 0.0432844 0.0853061 -0.00396528 -0.0444182 0.086578 0.0195053 -0.043722 0.0874214 
0.0338942 -0.0410147 0.087502 0.0155599 -0.0240909 0.0877583 -0.0408474 -0.00214648 0.0873909 
0.0168839 -0.00210364 0.0874184 -0.0153419 -0.00108619 0.0875823 -0.0365733 0.0119208 0.0865925 
0.00243185 0.0120975 0.0867904 0.018015 0.0183735 0.0866463 0.0258603 0.0235991 0.0878098 
0.0354139 0.0312817 0.0879392 0.0191028 0.0315895 0.0872523 0.00727395 0.0332762 0.0872194 
0.00201585 0.0404036 0.0867195 -0.0136468 -0.0412372 0.0886925 -0.0161578 -0.0337243 0.08871 
0.00179778 -0.0247441 0.0889415 -0.0210835 -0.0209207 0.0883472 -0.0033641 -0.0204173 0.0884924 
0.0184681 -0.0172117 0.0887071 0.0242571 -0.0100823 0.0889138 -0.0211095 -0.00770044 0.0881696 
0.0200271 -0.00425623 0.0882556 -0.0376932 -0.000132947 0.0883256 0.0260144 0.00429017 0.0878934 
-0.0429246 0.00657681 0.0889448 -0.00598638 0.00689803 0.0881098 -0.0128609 0.0265935 0.0890135 
-0.0425374 0.0333781 0.0885374 0.00888594 0.0360502 0.0886214 0.0350196 -0.0250011 0.0893839 
0.0144468 -0.013247 0.0899848 -0.00528066 -0.0121118 0.0894411 -0.0198668 -0.00211416 0.0894861 
0.0183943 0.00266245 0.0897785 0.0277548 0.0042931 0.0895892 0.00533928 0.00728904 0.0892381 
0.0110904 0.00657535 0.0899162 0.0278529 0.0342296 0.0896809 0.0030545 0.0369981 0.0896954 
-0.0133259 0.0414802 0.0895595 -0.0177803 -0.0340186 0.0907523 -0.0160452 -0.0323821 0.0918597 
0.0153133 -0.0285941 0.0906152 0.0164647 -0.0275391 0.0910302 0.0347572 -0.0260666 0.0905003 
0.0204492 -0.0194639 0.0915973 -0.0405162 -0.0161033 0.0911398 -0.0341597 -0.0122829 0.0917037 
-0.0253129 -0.0039775 0.0913437 0.00664535 -0.00164817 0.0907903 -0.0231109 0.0157017 0.0906228 
0.00742845 0.0199749 0.0904849 -0.0324762 0.0230005 0.0912821 0.00834461 0.0278725 0.090826 
-0.032208 0.0306075 0.0916024 0.0416479 -0.0439733 0.0919604 0.0406519 -0.0427256 0.0922082 
0.0077947 -0.0345433 0.0918143 0.0392765 -0.0300093 0.0932239 -0.0291427 -0.0219343 0.0923778 
0.0272875 -0.0186725 0.0923375 0.0342493 -0.0115037 0.0928122 -0.0343844 -0.0078404 0.0924164 
-0.0233311 0.00384073 0.0920892 0.0332757 0.00539899 0.0918187 -0.019893 0.00878872 0.0926579 
-0.00071691 0.0108932 0.092739 -0.0287332 0.0215601 0.0920003 -0.0295899 0.0232577 0.0923508 
-0.039126 0.0399637 0.0929199 -0.0390775 0.0447256 0.0929198 -0.0273176 -0.0361067 0.0943196 
0.00231692 -0.0294453 0.0930476 -0.0346801 -0.0287009 0.0937475 0.0115492 -0.0227248 0.0939084 
-0.0393221 -0.0167834 0.0944271 0.0132043 -0.01541 0.093996 -0.0279963 -0.0141356 0.0933136 
0.0448793 -0.00396119 0.0941788 0.0189244 0.00254502 0.0940966 -0.00552594 0.00555795 0.0939821 
0.00474506 0.0103043 0.0939038 0.0234497 0.00978487 0.0940979 -0.00808524 0.0113378 0.094221 
0.0397191 0.0283771 0.0934152 -0.0152062 0.0294088 0.0939091 0.0380057 0.0324307 0.0933862 
0.00367032 0.0371324 0.093922 0.0195647 -0.0366528 0.0953514 -0.00446216 -0.0255279 0.0948694 
0.0253763 -0.011051 0.094943 -0.0326334 -0.00963456 0.0949792 0.0352883 -0.0103067 0.0944154 
-0.00229178 0.0020129 0.0956682 0.0358407 0.00533501 0.0949949 -0.0442311 0.00821601 0.0956111 
-0.0408306 0.00999374 0.0945147 0.027557 0.009967 0.0948569 -0.0350204 0.0121089 0.0943458 
-0.0408838 0.0159645 0.0947973 -0.0122189 0.0175978 0.0949051 -0.0269229 0.0267788 0.0953436 
-0.0406313 0.0295913 0.0946728 0.0337272 0.0324898 0.0949369 -0.00647711 0.0391566 0.0944104 
0.0114086 0.0440135 0.0948373 0.0171919 0.0449185 0.0945196 0.00849583 -0.0405939 0.0964109 
-0.0195638 -0.0385913 0.0956539 0.0325128 -0.03812 0.0956685 -0.0164034 -0.0216001 0.0964285 
0.0262592 -0.0217201 0.0970997 -0.0328213 -0.0176588 0.0964613 -0.0408642 -0.0154151 0.0968549 
-0.015814 -0.0152491 0.0965726 0.0375745 -0.0151367 0.096731 -0.0137512 0.00384646 0.0962182 
-0.0406381 0.00555966 0.0958592 0.0114764 0.0140289 0.0970109 0.0153641 0.0146287 0.0968717 
0.00757299 0.0192258 0.096617 0.0434247 0.0295768 0.0957811 0.0040127 0.0314243 0.0965718 
-0.0160353 0.0448572 0.09697 0.0211706 0.0445491 0.0960258 -0.0389435 -0.0425966 0.0975957 
0.0054016 -0.025334 0.0972935 -0.0207996 -0.0190456 0.0980112 0.0218308 -0.0192565 0.0984119 
0.00886689 -0.0141191 0.0979867 -0.0131355 0.00164571 0.0975787 -0.0403489 0.00598291 0.0970026 
0.0324887 0.00836074 0.097261 0.00789931 0.0136568 0.0980387 0.012949 0.0143048 0.097969 
0.0350116 0.0207306 0.097501 -0.0368667 0.0306348 0.0975947 0.0170579 0.0421878 0.0979236 
-0.0169239 -0.0402939 0.0985566 0.0355384 -0.0354155 0.09931 -0.0177429 -0.0346724 0.0989183 
0.043014 -0.0343178 0.0989355 -0.0210092 -0.0320472 0.0992334 -0.0396817 -0.0304797 0.0990748 
0.023019 -0.0293484 0.0994513 -0.0432264 -0.0264101 0.0987171 0.0223025 -0.0112244 0.0998391 
-0.0253401 -0.0103599 0.0982762 0.0420414 -0.00101026 0.0982942 0.00314898 0.00491531 0.0994404 
-0.01547 0.00642247 0.0995441 -0.00443291 0.0160613 0.0991329 -0.0436572 0.0238848 0.0986621 
-0.0407273 0.0358476 0.0985593 -0.00161929 -0.0353994 0.0998963 0.0403097 -0.0347888 0.100692 
-0.0401314 -0.0280847 0.100248 0.0210005 -0.0239559 0.0996086 -0.027449 0.00511055 0.0999566 
-0.0287818 0.014969 0.100256 -0.0363159 0.0185996 0.100286 -0.0214233 0.0285543 0.0996177 
0.0152528 0.033152 0.100525 -0.00750544 0.0361316 0.100263 -0.0317519 -0.0446953 0.101664 
-0.0289295 -0.0389067 0.100904 -0.0179089 -0.0346335 0.101196 -8.23525e-05 -0.034098 0.101427 
-0.00682403 -0.0314098 0.101813 0.0134129 -0.0192809 0.101403 0.0282033 -0.0178095 0.101514 
0.0296492 -0.015918 0.102108 -0.00710141 -0.0133745 0.101536 0.00978397 0.00922321 0.100981 
0.0440772 0.0154938 0.101055 -0.0286532 0.0159811 0.101052 -0.00317984 0.0164631 0.10179 
0.0256029 0.0175394 0.101385 0.00153271 0.0201988 0.101664 -0.0422696 0.0340949 0.101164 
-0.00472634 0.0344449 0.101632 0.0339316 -0.041715 0.103061 0.0156293 -0.0283842 0.102861 
-0.0139777 -0.0223984 0.103148 0.0347312 -0.012978 0.103377 -0.00474481 -0.00600267 0.102886 
0.00127443 -0.000618905 0.10333 -0.0332593 0.000859011 0.102879 0.00265626 0.00371614 0.103297 
-0.00831541 0.0129665 0.103162 -0.0161548 0.0159009 0.102617 -0.0138035 0.0240512 0.103438 
-0.0132251 0.0252506 0.102203 -0.0260391 0.0304395 0.102902 -0.0359241 0.0337864 0.102951 
0.0132394 0.0345575 0.103447 0.0185094 -0.042363 0.10445 0.0201641 -0.0426709 0.104618 
0.010226 -0.0308634 0.104115 0.0109547 -0.0235646 0.104195 -0.0183202 -0.0175475 0.104098 
-0.0207563 -0.0111167 0.104458 0.0218314 -0.00971151 0.10371 0.00418285 0.0112423 0.104175 
0.012585 0.0155082 0.104864 -0.0436896 0.0195853 0.104361 -0.0213481 0.0319153 0.104613 
-0.0440308 0.0448256 0.104253 -0.0190394 0.0446837 0.103944 -0.0234086 -0.038644 0.104955 
0.0307351 -0.0355434 0.105751 0.0412685 -0.0295104 0.105478 -0.0313057 -0.0141988 0.105226 
-0.042331 -0.00792816 0.105615 -0.0101373 -0.00698039 0.104975 0.0127657 -0.00746761 0.105912 
-0.00720807 -0.00608605 0.105784 0.0386193 -0.00496685 0.106043 -0.0219587 0.0304934 0.106034 
0.00513794 0.0433856 0.105854 0.0147823 -0.0446949 0.106843 -0.0225361 -0.0441701 0.106137 
0.0341086 -0.0368686 0.107431 -0.00338111 -0.0363358 0.107247 -0.038621 -0.0229432 0.106656 
0.0323804 -0.0132471 0.107325 -0.0395569 -0.00227866 0.106279 -0.0349081 0.00917553 0.106655 
0.0323341 0.0191974 0.107178 0.00976854 0.0197772 0.10694 -0.0379532 0.0399341 0.106283 
-0.00785852 0.041878 0.106459 0.0430506 0.0422314 0.106769 -0.0136128 -0.00979682 0.107837 
0.0379188 0.0120326 0.108109 -0.0193355 0.018129 0.107683 -0.014478 0.0275162 0.107562 
0.0214431 0.0335886 0.107566 0.0289145 -0.0340196 0.109458 -0.015788 -0.0282898 0.109817 
0.0414834 -0.0181367 0.110147 -0.0371624 0.011326 0.109087 0.0262096 -0.0449372 0.110222 
-0.0329608 -0.0218045 0.111303 -0.0449336 -0.00957357 0.111802 0.023953 0.00820576 0.111819 
-0.0144089 0.0201081 0.112506 -0.0336946 -0.0248459 0.113419 -0.0420316 -0.0145538 0.113908 
-0.024842 -0.00884532 0.113854 0.0133448 0.00646544 0.113207 0.0154702 -0.00154679 0.115074 
0.0164577 0.0353116 0.114922 -0.0102477 0.0267602 0.116194 -0.0385899 -0.0405251 0.117805 
0.0414788 -0.00521487 0.117253 0.0104707 0.0313218 0.11691 0.00635633 0.000852437 0.11867 
0.00308146 0.0401468 0.119495 -0.0281804 0.0418824 0.119162 0.0302919 -0.0148257 0.120485 
0.00357123 -0.00830953 0.120711 0.0320014 0.00756294 0.120592 0.0439232 0.0371117 0.119979 
-0.00521279 -0.0413279 0.122078 -0.0328109 -0.0226975 0.120641 -0.0437633 0.0406561 0.121586 
-0.0419519 -0.0259749 0.123071 -0.0197415 0.0344175 0.122743 0.0433204 -0.0141837 0.124649 
-0.0256005 0.0215871 0.124307 -0.0296003 0.0277025 0.123667 -0.0081225 0.0151775 0.12566 
-0.0155539 0.0359545 0.125713 0.0131273 0.040817 0.126424 -0.0386256 -0.00983966 0.128456 
-0.00757157 0.00454821 0.128714 0.0282359 -0.00877456 0.129908 -0.0356048 -0.000104637 0.129996 
-0.0170112 0.0231088 0.130409 0.0188903 -0.0308528 0.132143 -0.0245993 0.0193658 0.131439 
0.0419483 -0.0348097 0.132767 0.00741479 -0.0295782 0.134222 -0.0207679 -0.0256315 0.134661 
0.00643655 -0.000956063 0.134841 0.00347554 0.00338662 0.133847 -0.00254916 -0.00379952 0.135769 

VERTICES 649 648
OFFSETS vtktypeint64
0 1 2 3 4 5 6 7 8 
9 10 11 12 13 14 15 16 17 
18 19 20 21 22 23 24 25 26 
27 28 29 30 31 32 33 34 35 
36 37 38 39 40 41 42 43 44 
45 46 47 48 49 50 51 52 53 
54 55 56 57 58 59 60 61 62 
63 64 65 66 67 68 69 70 71 
72 73 74 75 76 77 78 79 80 
81 82 83 84 85 86 87 88 89 
90 91 92 93 94 95 96 97 98 
99 100 101 102 103 104 105 106 107 
108 109 110 111 112 113 114 115 116 
117 118 119 120 121 122 123 124 125 
126 127 128 129 130 131 132 133 134 
135 136 137 138 139 140 141 142 143 
144 145 146 147 148 149 150 151 152 
153 154 155 156 157 158 159 160 161 
162 163 164 165 166 167 168 169 170 
171 172 173 174 175 176 177 178 179 
180 181 182 183 184 185 186 187 188 
189 190 191 192 193 194 195 196 197 
198 199 200 201 202 203 204 205 206 
207 208 209 210 211 212 213 214 215 
216 217 218 219 220 221 222 223 224 
225 226 227 228 229 230 231 232 233 
234 235 236 237 238 239 240 241 242 
243 244 245 246 247 248 249 250 251 
252 253 254 255 256 257 258 259 260 
261 262 263 264 265 266 267 268 269 
270 271 272 273 274 275 276 277 278 
279 280 281 282 283 284 285 286 287 
288 289 290 291 292 293 294 295 296 
297 298 299 300 301 302 303 304 305 
306 307 308 309 310 311 312 313 314 
315 316 317 318 319 320 321 322 323 
324 325 326 327 328 329 330 331 332 
333 334 335 336 337 338 339 340 341 
342 343 344 345 346 347 348 349 350 
351 352 353 354 355 356 357 358 359 
360 361 362 363 364 365 366 367 368 
369 370 371 372 373 374 375 376 377 
378 379 380 381 382 383 384 385 386 
387 388 389 390 391 392 393 394 395 
396 397 398 399 400 401 402 403 404 
405 406 407 408 409 410 411 412 413 
414 415 416 417 418 419 420 421 422 
423 424 425 426 427 428 429 430 431 
432 433 434 435 436 437 438 439 440 
441 442 443 444 445 446 447 448 449 
450 451 452 453 454 455 456 457 458 
459 460 461 462 463 464 465 466 467 
468 469 470 471 472 473 474 475 476 
477 478 479 480 481 482 483 484 485 
486 487 488 489 490 491 492 493 494 
495 496 497 498 499 500 501 502 503 
504 505 506 507 508 509 510 511 512 
513 514 515 516 517 518 519 520 521 
522 523 524 525 526 527 528 529 530 
531 532 533 534 535 536 537 538 539 
540 541 542 543 544 545 546 547 548 
549 550 551 552 553 554 555 556 557 
558 559 560 561 562 563 564 565 566 
567 568 569 570 571 572 573 574 575 
576 577 578 579 580 581 582 583 584 
585 586 587 588 589 590 591 592 593 
594 595 596 597 598 599 600 601 602 
603 604 605 606 607 608 609 610 611 
612 613 614 615 616 617 618 619 620 
621 622 623 624 625 626 627 628 629 
630 631 632 633 634 635 636 637 638 
639 640 641 642 643 644 645 646 647 
648 
CONNECTIVITY vtktypeint64
0 1 2 3 4 5 6 7 8 
9 10 11 12 13 14 15 16 17 
18 19 20 21 22 23 24 25 26 
27 28 29 30 31 32 33 34 35 
36 37 38 39 40 41 42 43 44 
45 46 47 48 49 50 51 52 53 
54 55 56 57 58 59 60 61 62 
63 64 65 66 67 68 69 70 71 
72 73 74 75 76 77 78 79 80 
81 82 83 84 85 86 87 88 89 
90 91 92 93 94 95 96 97 98 
99 100 101 102 103 104 105 106 107 
108 109 110 111 112 113 114 115 116 
117 118 119 120 121 122 123 124 125 
126 127 128 129 130 131 132 133 134 
135 136 137 138 139 140 141 142 143 
144 145 146 147 148 149 150 151 152 
153 154 155 156 157 158 159 160 161 
162 163 164 165 166 167 168 169 170 
171 172 173 174 175 176 177 178 179 
180 181 182 183 184 185 186 187 188 
189 190 191 192 193 194 195 196 197 
198 199 200 201 202 203 204 205 206 
207 208 209 210 211 212 213 214 215 
216 217 218 219 220 221 222 223 224 
225 226 227 228 229 230 231 232 233 
234 235 236 237 238 239 240 241 242 
243 244 245 246 247 248 249 250 251 
252 253 254 255 256 257 258 259 260 
261 262 263 264 265 266 267 268 269 
270 271 272 273 274 275 276 277 278 
279 280 281 282 283 284 285 286 287 
288 289 290 291 292 293 294 295 296 
297 298 299 300 301 302 303 304 305 
306 307 308 309 310 311 312 313 314 
315 316 317 318 319 320 321 322 323 
324 325 326 327 328 329 330 331 332 
333 334 335 336 337 338 339 340 341 
342 343 344 345 346 347 348 349 350 
351 352 353 354 355 356 357 358 359 
360 361 362 363 364 365 366 367 368 
369 370 371 372 373 374 375 376 377 
378 379 380 381 382 383 384 385 386 
387 388 389 390 391 392 393 394 395 
396 397 398 399 400 401 402 403 404 
405 406 407 408 409 410 411 412 413 
414 415 416 417 418 419 420 421 422 
423 424 425 426 427 428 429 430 431 
432 433 434 435 436 437 438 439 440 
441 442 443 444 445 446 447 448 449 
450 451 452 453 454 455 456 457 458 
459 460 461 462 463 464 465 466 467 
468 469 470 471 472 473 474 475 476 
477 478 479 480 481 482 483 484 485 
486 487 488 489 490 491 492 493 494 
495 496 497 498 499 500 501 502 503 
504 505 506 507 508 509 510 511 512 
513 514 515 516 517 518 519 520 521 
522 523 524 525 526 527 528 529 530 
531 532 533 534 535 536 537 538 539 
540 541 542 543 544 545 546 547 548 
549 550 551 552 553 554 555 556 557 
558 559 560 561 562 563 564 565 566 
567 568 569 570 571 572 573 574 575 
576 577 578 579 580 581 582 583 584 
585 586 587 588 589 590 591 592 593 
594 595 596 597 598 599 600 601 602 
603 604 605 606 607 608 609 610 611 
612 613 614 615 616 617 618 619 620 
621 622 623 624 625 626 627 628 629 
630 631 632 633 634 635 636 637 638 
639 640 641 642 643 644 645 646 647 

POINT_DATA 648
FIELD FieldData 12
id 1 648 int
200 231 428 6 57 134 115 107 291 
127 383 396 423 197 169 195 26 270 
362 164 356 88 176 465 86 149 219 
12 372 185 381 215 336 370 11 385 
491 18 247 106 72 125 353 450 214 
373 150 189 366 459 304 190 237 58 
293 418 165 14 187 253 87 92 193 
433 364 9 158 29 246 457 367 440 
483 83 458 322 339 166 280 331 282 
154 289 8 175 186 407 49 386 256 
508 470 73 10 310 506 488 233 13 
496 444 66 132 36 297 100 435 207 
404 317 292 408 327 355 427 467 454 
432 417 162 410 321 85 155 406 22 
347 5 137 167 500 349 478 456 412 
463 411 51 267 439 290 16 399 263 
60 21 40 110 521 337 163 222 91 
188 326 319 229 409 515 2 424 112 
4 261 199 314 303 505 227 324 90 
495 384 54 104 318 351 98 415 238 
298 240 288 357 529 30 24 96 168 
248 32 486 236 330 76 275 390 218 
429 121 484 542 75 61 141 255 15 
161 559 328 113 591 35 34 122 183 
243 378 446 202 447 198 271 223 64 
174 479 211 377 601 287 498 451 504 
201 320 62 375 84 589 28 157 311 
341 196 129 401 178 308 437 536 475 
140 226 477 111 612 567 216 474 119 
587 81 148 313 295 128 472 59 278 
538 343 251 346 543 553 638 580 257 
151 208 63 469 272 414 562 102 352 
146 615 299 20 395 394 520 268 65 
45 397 571 250 393 79 526 416 329 
576 170 74 260 53 252 171 334 519 
244 56 17 392 431 78 206 461 232 
52 239 294 645 323 462 566 38 142 
205 265 144 363 279 94 108 549 487 
605 616 333 493 522 42 368 592 564 
546 425 420 325 109 348 342 89 93 
577 71 360 371 217 345 273 117 507 
623 481 225 123 68 156 116 403 25 
551 1 511 105 204 379 301 213 266 
455 286 335 460 43 405 305 613 426 
528 421 182 361 350 570 147 445 430 
448 572 380 285 135 70 281 130 509 
596 31 471 489 533 547 516 628 563 
212 126 124 221 138 254 523 476 82 
139 354 449 618 376 276 50 77 545 
338 296 442 179 540 466 482 436 604 
340 617 3 565 153 316 453 480 181 
315 7 637 524 180 413 302 55 136 
210 359 160 573 274 143 374 194 300 
503 633 622 443 114 332 614 438 258 
532 177 558 441 499 501 145 46 41 
33 594 434 99 344 518 47 307 525 
103 527 599 23 80 593 245 220 191 
309 159 69 502 234 284 48 485 209 
579 452 242 312 402 388 398 44 517 
422 490 497 358 228 473 118 561 550 
387 597 120 513 259 557 365 389 598 
262 468 97 131 269 494 391 635 203 
283 192 539 585 101 464 560 152 583 
639 172 173 492 548 306 95 39 27 
224 133 419 586 241 230 626 67 37 
530 382 400 607 514 249 277 19 264 
620 184 369 235 634 629 603 595 534 
578 554 510 625 581 590 569 512 610 
552 535 648 647 611 630 643 555 537 
608 556 531 632 541 575 574 600 644 
646 609 619 624 606 544 631 602 568 
588 636 582 584 640 627 621 641 642 

type 1 648 int
1 1 1 2 1 1 1 1 1 
1 1 1 1 1 1 1 1 1 
1 1 1 1 1 1 1 1 1 
2 1 1 1 1 1 1 2 1 
1 1 1 1 1 1 1 1 1 
1 1 1 1 1 1 1 1 1 
1 1 1 2 1 1 1 1 1 
1 1 2 1 1 1 1 1 1 
1 1 1 1 1 1 1 1 1 
1 1 2 1 1 1 1 1 1 
1 1 1 2 1 1 1 1 2 
1 1 1 1 1 1 1 1 1 
1 1 1 1 1 1 1 1 1 
1 1 1 1 1 1 1 1 1 
1 2 1 1 1 1 1 1 1 
1 1 1 1 1 1 2 1 1 
1 1 1 1 1 1 1 1 1 
1 1 1 1 1 1 3 1 1 
2 1 1 1 1 1 1 1 1 
1 1 1 1 1 1 1 1 1 
1 1 1 1 1 1 1 1 1 
1 1 1 1 1 1 1 1 1 
1 1 1 1 1 1 1 1 2 
1 1 1 1 1 1 1 1 1 
1 1 1 1 1 1 1 1 1 
1 1 1 1 1 1 1 1 1 
1 1 1 1 1 1 1 1 1 
1 1 1 1 1 1 1 1 1 
1 1 1 1 1 1 1 1 1 
1 1 1 1 1 1 1 1 1 
1 1 1 1 1 1 1 1 1 
1 1 1 1 1 1 1 1 1 
1 1 1 1 1 1 1 1 1 
1 1 1 1 1 1 1 1 1 
1 1 1 1 1 1 1 1 1 
1 1 1 1 1 1 1 1 1 
1 1 1 1 1 1 1 1 1 
1 1 1 1 1 1 1 1 1 
1 1 1 1 1 1 1 1 1 
1 1 1 1 1 1 1 1 1 
1 1 1 1 1 1 1 1 1 
1 1 1 1 1 1 1 1 1 
1 4 1 1 1 1 1 1 1 
1 1 1 1 1 1 1 1 1 
1 1 1 1 1 1 1 1 1 
1 1 1 1 1 1 1 1 1 
1 1 1 1 1 1 2 1 1 
1 1 1 1 1 1 1 1 1 
1 1 1 1 1 1 1 1 1 
1 1 1 1 1 1 1 1 1 
1 1 2 1 1 1 1 1 1 
1 2 1 1 1 1 1 1 1 
1 1 1 1 1 1 1 1 1 
1 1 1 1 1 1 1 1 1 
1 1 1 1 1 1 1 1 1 
1 1 1 1 1 1 1 1 1 
1 1 1 1 1 1 1 1 1 
1 1 1 1 1 1 1 1 1 
1 1 1 1 1 1 1 1 1 
1 1 1 1 1 1 1 1 1 
1 1 1 1 1 1 1 1 1 
1 1 1 1 1 1 1 1 1 
1 1 1 1 1 1 1 1 1 
1 1 1 1 1 1 1 1 1 
1 1 1 1 1 1 1 1 1 
1 1 1 1 1 1 1 1 1 
1 1 1 1 2 1 1 1 1 
1 1 1 1 1 1 1 2 1 
1 1 1 1 1 1 1 1 1 
1 1 1 1 1 1 1 1 1 
1 1 1 1 1 1 1 1 1 
1 1 1 1 1 1 1 1 1 

i 3 648 int
0 0 0 0 0 0 0 0 0 
0 0 0 0 0 0 0 0 0 
0 0 0 0 0 0 0 0 0 
0 0 0 0 0 0 0 0 0 
0 0 0 0 0 0 0 0 0 
0 0 0 0 0 0 0 0 0 
0 0 0 0 0 0 0 0 0 
0 0 0 0 0 0 0 0 0 
0 0 0 0 0 0 0 0 0 
0 0 0 0 0 0 0 0 0 
0 0 0 0 0 0 0 0 0 
0 0 0 0 0 0 0 0 0 
0 0 0 0 0 0 0 0 0 
0 0 0 0 0 0 0 0 0 
0 0 0 0 0 0 0 0 0 
0 0 0 0 0 0 0 0 0 
0 0 0 0 0 0 0 0 0 
0 0 0 0 0 0 0 0 0 
0 0 0 0 0 0 0 0 0 
0 0 0 0 0 0 0 0 0 
0 0 0 0 0 0 0 0 0 
0 0 0 0 0 0 0 0 0 
0 0 0 0 0 0 0 0 0 
0 0 0 0 0 0 0 0 0 
0 0 0 0 0 0 0 0 0 
0 0 0 0 0 0 0 0 0 
0 0 0 0 0 0 0 0 0 
0 0 0 0 0 0 0 0 0 
0 0 0 0 0 0 0 0 0 
0 0 0 0 0 0 0 0 0 
0 0 0 0 0 0 0 0 0 
0 0 0 0 0 0 0 0 0 
0 0 0 0 0 0 0 0 0 
0 0 0 0 0 0 0 0 0 
0 0 0 0 0 0 0 0 0 
0 0 0 0 0 0 0 0 0 
0 0 0 0 0 0 0 0 0 
0 0 0 0 0 0 0 0 0 
0 0 0 0 0 0 0 0 0 
0 0 0 0 0 0 0 0 0 
0 0 0 0 0 0 0 0 0 
0 0 0 0 0 0 0 0 0 
0 0 0 0 0 0 0 0 0 
0 0 0 0 0 0 0 0 0 
0 0 0 0 0 0 0 0 0 
0 0 0 0 0 0 0 0 0 
0 0 0 0 0 0 0 0 0 
0 0 0 0 0 0 0 0 0 
0 0 0 0 0 0 0 0 0 
0 0 0 0 0 0 0 0 0 
0 0 0 0 0 0 0 0 0 
0 0 0 0 0 0 0 0 0 
0 0 0 0 0 0 0 0 0 
0 0 0 0 0 0 0 0 0 
0 0 0 0 0 0 0 0 0 
0 0 0 0 0 0 0 0 0 
0 0 0 0 0 0 0 0 0 
0 0 0 0 0 0 0 0 0 
0 0 0 0 0 0 0 0 0 
0 0 0 0 0 0 0 0 0 
0 0 0 0 0 0 0 0 0 
0 0 0 0 0 0 0 0 0 
0 0 0 0 0 0 0 0 0 
0 0 0 0 0 0 0 0 0 
0 0 0 0 0 0 0 0 0 
0 0 0 0 0 0 0 0 0 
0 0 0 0 0 0 0 0 0 
0 0 0 0 0 0 0 0 0 
0 0 0 0 0 0 0 0 0 
0 0 0 0 0 0 0 0 0 
0 0 0 0 0 0 0 0 0 
0 0 0 0 0 0 0 0 0 
0 0 0 0 0 0 0 0 0 
0 0 0 0 0 0 0 0 0 
0 0 0 0 0 0 0 0 0 
0 0 0 0 0 0 0 0 0 
0 0 0 0 0 0 0 0 0 
0 0 0 0 0 0 0 0 0 
0 0 0 0 0 0 0 0 0 
0 0 0 0 0 0 0 0 0 
0 0 0 0 0 0 0 0 0 
0 0 0 0 0 0 0 0 0 
0 0 0 0 0 0 0 0 0 
0 0 0 0 0 0 0 0 0 
0 0 0 0 0 0 0 0 0 
0 0 0 0 0 0 0 0 0 
0 0 0 0 0 0 0 0 0 
0 0 0 0 0 0 0 0 0 
0 0 0 0 0 0 0 0 0 
0 0 0 0 0 0 0 0 0 
0 0 0 0 0 0 0 0 0 
0 0 0 0 0 0 0 0 0 
0 0 0 0 0 0 0 0 0 
0 0 0 0 0 0 0 0 0 
0 0 0 0 0 0 0 0 0 
0 0 0 0 0 0 0 0 0 
0 0 0 0 0 0 0 0 0 
0 0 0 0 0 0 0 0 0 
0 0 0 0 0 0 0 0 0 
0 0 0 0 0 0 0 0 0 
0 0 0 0 0 0 0 0 0 
0 0 0 0 0 0 0 0 0 
0 0 0 0 0 0 0 0 0 
0 0 0 0 0 0 0 0 0 
0 0 0 0 0 0 0 0 0 
0 0 0 0 0 0 0 0 0 
0 0 0 0 0 0 0 0 0 
0 0 0 0 0 0 0 0 0 
0 0 0 0 0 0 0 0 0 
0 0 0 0 0 0 0 0 0 
0 0 0 0 0 0 0 0 0 
0 0 0 0 0 0 0 0 0 
0 0 0 0 0 0 0 0 0 
0 0 0 0 0 0 0 0 0 
0 0 0 0 0 0 0 0 0 
0 0 0 0 0 0 0 0 0 
0 0 0 0 0 0 0 0 0 
0 0 0 0 0 0 0 0 0 
0 0 0 0 0 0 0 0 0 
0 0 0 0 0 0 0 0 0 
0 0 0 0 0 0 0 0 0 
0 0 0 0 0 0 0 0 0 
0 0 0 0 0 0 0 0 0 
0 0 0 0 0 0 0 0 0 
0 0 0 0 0 0 0 0 0 
0 0 0 0 0 0 0 0 0 
0 0 0 0 0 0 0 0 0 
0 0 0 0 0 0 0 0 0 
0 0 0 0 0 0 0 0 0 
0 0 0 0 0 0 0 0 0 
0 0 0 0 0 0 0 0 0 
0 0 0 0 0 0 0 0 0 
0 0 0 0 0 0 0 0 0 
0 0 0 0 0 0 0 0 0 
0 0 0 0 0 0 0 0 0 
0 0 0 0 0 0 0 0 0 
0 0 0 0 0 0 0 0 0 
0 0 0 0 0 0 0 0 0 
0 0 0 0 0 0 0 0 0 
0 0 0 0 0 0 0 0 0 
0 0 0 0 0 0 0 0 0 
0 0 0 0 0 0 0 0 0 
0 0 0 0 0 0 0 0 0 
0 0 0 0 0 0 0 0 0 
0 0 0 0 0 0 0 0 0 
0 0 0 0 0 0 0 0 0 
0 0 0 0 0 0 0 0 0 
0 0 0 0 0 0 0 0 0 
0 0 0 0 0 0 0 0 0 
0 0 0 0 0 0 0 0 0 
0 0 0 0 0 0 0 0 0 
0 0 0 0 0 0 0 0 0 
0 0 0 0 0 0 0 0 0 
0 0 0 0 0 0 0 0 0 
0 0 0 0 0 0 0 0 0 
0 0 0 0 0 0 0 0 0 
0 0 0 0 0 0 0 0 0 
0 0 0 0 0 0 0 0 0 
0 0 0 0 0 0 0 0 0 
0 0 0 0 0 0 0 0 0 
0 0 0 0 0 0 0 0 0 
0 0 0 0 0 0 0 0 0 
0 0 0 0 0 0 0 0 0 
0 0 0 0 0 0 0 0 0 
0 0 0 0 0 0 0 0 0 
0 0 0 0 0 0 0 0 0 
0 0 0 0 0 0 0 0 0 
0 0 0 0 0 0 0 0 0 
0 0 0 0 0 0 0 0 0 
0 0 0 0 0 0 0 0 0 
0 0 0 0 0 0 0 0 0 
0 0 0 0 0 0 0 0 0 
0 0 0 0 0 0 0 0 0 
0 0 0 0 0 0 0 0 0 
0 0 0 0 0 0 0 0 0 
0 0 0 0 0 0 0 0 0 
0 0 0 0 0 0 0 0 0 
0 0 0 0 0 0 0 0 0 
0 0 0 0 0 0 0 0 0 
0 0 0 0 0 0 0 0 0 
0 0 0 0 0 0 0 0 0 
0 0 0 0 0 0 0 0 0 
0 0 0 0 0 0 0 0 0 
0 0 0 0 0 0 0 0 0 
0 0 0 0 0 0 0 0 0 
0 0 0 0 0 0 0 0 0 
0 0 0 0 0 0 0 0 0 
0 0 0 0 0 0 0 0 0 
0 0 0 0 0 0 0 0 0 
0 0 0 0 0 0 0 0 0 
0 0 0 0 0 0 0 0 0 
0 0 0 0 0 0 0 0 0 
0 0 0 0 0 0 0 0 0 
0 0 0 0 0 0 0 0 0 
0 0 0 0 0 0 0 0 0 
0 0 0 0 0 0 0 0 0 
0 0 0 0 0 0 0 0 0 
0 0 0 0 0 0 0 0 0 
0 0 0 0 0 0 0 0 0 
0 0 0 0 0 0 0 0 0 
0 0 0 0 0 0 0 0 0 
0 0 0 0 0 0 0 0 0 
0 0 0 0 0 0 0 0 0 
0 0 0 0 0 0 0 0 0 
0 0 0 0 0 0 0 0 0 
0 0 0 0 0 0 0 0 0 
0 0 0 0 0 0 0 0 0 
0 0 0 0 0 0 0 0 0 
0 0 0 0 0 0 0 0 0 
0 0 0 0 0 0 0 0 0 
0 0 0 0 0 0 0 0 0 
0 0 0 0 0 0 0 0 0 
0 0 0 0 0 0 0 0 0 
0 0 0 0 0 0 0 0 0 
0 0 0 0 0 0 0 0 0 
0 0 0 0 0 0 0 0 0 

v 3 648 double
0 0 -0.3227491875 0 0 -0.3227491875 0 0 -0.3227491875 
0 0 -0.3227491875 0 0 -0.3227491875 0 0 -0.3227491875 
0 0 -0.3227491875 0 0 -0.3227491875 0 0 -0.3227491875 
0 0 -0.3227491875 0 0 -0.3227491875 0 0 -0.3227491875 
0 0 -0.3227491875 0 0 -0.3227491875 0 0 -0.3227491875 
0 0 -0.3227491875 0 0 -0.3227491875 0 0 -0.3227491875 
0 0 -0.3227491875 0 0 -0.3227491875 0 0 -0.3227491875 
0 0 -0.3227491875 0 0 -0.3227491875 0 0 -0.3227491875 
0 0 -0.3227491875 0 0 -0.3227491875 0 0 -0.3227491875 
0 0 -0.3227491875 0 0 -0.3227491875 0 0 -0.3227491875 
0 0 -0.3227491875 0 0 -0.3227491875 0 0 -0.3227491875 
0 0 -0.3227491875 0 0 -0.3227491875 0 0 -0.3227491875 
0 0 -0.3227491875 0 0 -0.3227491875 0 0 -0.3227491875 
0 0 -0.3227491875 0 0 -0.3227491875 0 0 -0.3227491875 
0 0 -0.3227491875 0 0 -0.3227491875 0 0 -0.3227491875 
0 0 -0.3227491875 0 0 -0.3227491875 0 0 -0.3227491875 
0 0 -0.3227491875 0 0 -0.3227491875 0 0 -0.3227491875 
0 0 -0.3227491875 0 0 -0.3227491875 0 0 -0.3227491875 
0 0 -0.3227491875 0 0 -0.3227491875 0 0 -0.3227491875 
0 0 -0.3227491875 0 0 -0.3227491875 0 0 -0.3227491875 
0 0 -0.3227491875 0 0 -0.3227491875 0 0 -0.3227491875 
0 0 -0.3227491875 0 0 -0.3227491875 0 0 -0.3227491875 
0 0 -0.3227491875 0 0 -0.3227491875 0 0 -0.3227491875 
0 0 -0.3227491875 0 0 -0.3227491875 0 0 -0.3227491875 
0 0 -0.3227491875 0 0 -0.3227491875 0 0 -0.3227491875 
0 0 -0.3227491875 0 0 -0.3227491875 0 0 -0.3227491875 
0 0 -0.3227491875 0 0 -0.3227491875 0 0 -0.3227491875 
0 0 -0.3227491875 0 0 -0.3227491875 0 0 -0.3227491875 
0 0 -0.3227491875 0 0 -0.3227491875 0 0 -0.3227491875 
0 0 -0.3227491875 0 0 -0.3227491875 0 0 -0.3227491875 
0 0 -0.2674991875 0 0 -0.3227491875 0 0 -0.3227491875 
0 0 -0.3227491875 0 0 -0.3227491875 0 0 -0.2674991875 
0 0 -0.3227491875 0 0 -0.3227491875 0 0 -0.3227491875 
0 0 -0.3227491875 0 0 -0.3227491875 0 0 -0.3227491875 
0 0 -0.3227491875 0 0 -0.3227491875 0 0 -0.3227491875 
0 0 -0.3227491875 0 0 -0.3227491875 0 0 -0.3227491875 
0 0 -0.3227491875 0 0 -0.3227491875 0 0 -0.3227491875 
0 0 -0.3227491875 0 0 -0.3227491875 0 0 -0.3227491875 
0 0 -0.3227491875 0 0 -0.3227491875 0 0 -0.3227491875 
0 0 -0.3227491875 0 0 -0.3227491875 0 0 -0.3227491875 
0 0 -0.3227491875 0 0 -0.3227491875 0 0 -0.3227491875 
0 0 -0.3227491875 0 0 -0.3227491875 0 0 -0.3227491875 
0 0 -0.3227491875 0 0 -0.3227491875 0 0 -0.3227491875 
0 0 -0.3227491875 0 0 -0.3227491875 0 0 -0.3227491875 
0 0 -0.3227491875 0 0 -0.3227491875 0 0 -0.3227491875 
0 0 -0.3227491875 0 0 -0.3227491875 0 0 -0.3227491875 
0 0 -0.3227491875 0 0 -0.3227491875 0 0 -0.3227491875 
0 0 -0.3227491875 0 0 -0.3227491875 0 0 -0.3227491875 
0 0 -0.3227491875 0 0 -0.3227491875 0 0 -0.3227491875 
0 0 -0.3227491875 0 0 -0.2349991875 0 0 -0.3227491875 
0 0 -0.3227491875 0 0 -0.3227491875 0 0 -0.3227491875 
0 0 -0.3227491875 0 0 -0.3227491875 0 0 -0.3227491875 
0 0 -0.3227491875 0 0 -0.3227491875 0 0 -0.2479991875 
0 0 -0.3227491875 0 0 -0.3227491875 0 0 -0.3227491875 
0 0 -0.3227491875 0 0 -0.3227491875 0 0 -0.3227491875 
0 0 -0.3227491875 0 0 -0.3227491875 0 0 -0.2869991875 
0 0 -0.3227491875 0 0 -0.3227491875 0 0 -0.3227491875 
0 0 -0.3227491875 0 0 -0.3227491875 0 0 -0.3227491875 
0 0 -0.3227491875 0 0 -0.3227491875 0 0 -0.3227491875 
0 0 -0.3227491875 0 0 -0.3227491875 0 0 -0.3227491875 
0 0 -0.3227491875 0 0 -0.3227491875 0 0 -0.3227491875 
0 0 -0.3227491875 0 0 -0.2187491875 0 0 -0.3227491875 
0 0 -0.3227491875 0 0 -0.3227491875 0 0 -0.3227491875 
0 0 -0.3227491875 0 0 -0.3227491875 0 0 -0.3227491875 
0 0 -0.3227491875 0 0 -0.3227491875 0 0 -0.3227491875 
0 0 -0.3227491875 0 0 -0.3227491875 0 0 -0.3227491875 
0 0 -0.3227491875 0 0 -0.3227491875 0 0 -0.3227491875 
0 0 -0.1927491875 0 0 -0.3227491875 0 0 -0.3227491875 
0 0 -0.3227491875 0 0 -0.3227491875 0 0 -0.3227491875 
0 0 -0.3227491875 0 0 -0.1732491875 0 0 -0.3227491875 
0 0 -0.3227491875 0 0 -0.1342491875 0 0 -0.3227491875 
0 0 -0.3227491875 0 0 -0.3227491875 0 0 -0.3227491875 
0 0 -0.3227491875 0 0 -0.3227491875 0 0 -0.3227491875 
0 0 -0.3227491875 0 0 -0.3227491875 0 0 -0.3227491875 
0 0 -0.3227491875 0 0 -0.3227491875 0 0 -0.3227491875 
0 0 -0.3227491875 0 0 -0.3227491875 0 0 -0.3227491875 
0 0 -0.3227491875 0 0 -0.1179991875 0 0 -0.3227491875 
0 0 -0.3227491875 0 0 -0.3227491875 0 0 -0.2902491875 
0 0 -0.3227491875 0 0 -0.3227491875 0 0 -0.3227491875 
0 0 -0.3227491875 0 0 -0.3227491875 0 0 -0.1342491875 
0 0 -0.3227491875 0 0 -0.3227491875 0 0 -0.3227491875 
0 0 -0.3227491875 0 0 -0.3227491875 0 0 -0.3227491875 
0 0 -0.3227491875 0 0 -0.3227491875 0 0 -0.3227491875 
0 0 -0.3227491875 0 0 -0.2024991875 0 0 -0.3227491875 
0 0 -0.3227491875 0 0 -0.3227491875 0 0 -0.3227491875 
0 0 -0.3227491875 0 0 -0.1017491875 0 0 -0.1602491875 
0 0 -0.3227491875 0 0 -0.3227491875 0 0 -0.3227491875 
0 0 -0.1374991875 0 0 -0.3227491875 0 0 -0.3227491875 
0 0 -0.3227491875 0 0 -0.3227491875 0 0 -0.3227491875 
0 0 -0.3227491875 0 0 -0.3227491875 0 0 -0.3227491875 
0 0 -0.1992491875 0 0 -0.3227491875 0 0 -0.3227491875 
0 0 -0.3227491875 0 0 -0.1927491875 0 0 -0.1797491875 
0 0 -0.0822491875 0 0 -0.1439991875 0 0 -0.3227491875 
0 0 -0.3227491875 0 0 -0.3227491875 0 0 -0.3227491875 
0 0 -0.3227491875 0 0 -0.3227491875 0 0 -0.3227491875 
0 0 -0.1699991875 0 0 -0.3227491875 0 0 -0.3227491875 
0 0 -0.3227491875 0 0 -0.1017491875 0 0 -0.3227491875 
0 0 -0.3227491875 0 0 -0.3227491875 0 0 -0.3227491875 
0 0 -0.2382491875 0 0 -0.3227491875 0 0 -0.3227491875 
0 0 -0.3227491875 0 0 -0.3227491875 0 0 -0.1537491875 
0 0 -0.3227491875 0 0 -0.3227491875 0 0 -0.3227491875 
0 0 -0.2219991875 0 0 -0.3227491875 0 0 -0.3227491875 
0 0 -0.1472491875 0 0 -0.3227491875 0 0 -0.3227491875 
0 0 -0.3227491875 0 0 -0.3227491875 0 0 -0.3227491875 
0 0 -0.3227491875 0 0 -0.3227491875 0 0 -0.2382491875 
0 0 -0.3227491875 0 0 -0.3227491875 0 0 -0.3227491875 
0 0 -0.3227491875 0 0 -0.3227491875 0 0 -0.3227491875 
0 0 -0.3227491875 0 0 -0.3227491875 0 0 -0.3227491875 
0 0 -0.3227491875 0 0 -0.3227491875 0 0 -0.3227491875 
0 0 -0.0789991875 0 0 -0.3227491875 0 0 -0.3227491875 
0 0 -0.1602491875 0 0 -0.3227491875 0 0 -0.3227491875 
0 0 -0.3227491875 0 0 -0.3227491875 0 0 -0.3227491875 
0 0 -0.3227491875 0 0 -0.3227491875 0 0 -0.3227491875 
0 0 -0.3227491875 0 0 -0.1829991875 0 0 -0.3227491875 
0 0 -0.1147491875 0 0 -0.0984991875 0 0 -0.3227491875 
0 0 -0.3227491875 0 0 -0.2349991875 0 0 -0.3227491875 
0 0 -0.3227491875 0 0 -0.1309991875 0 0 -0.1634991875 
0 0 -0.1862491875 0 0 -0.3227491875 0 0 -0.3227491875 
0 0 -0.3227491875 0 0 -0.3227491875 0 0 -0.3227491875 
0 0 -0.3227491875 0 0 -0.3227491875 0 0 -0.3227491875 
0 0 -0.1472491875 0 0 -0.3227491875 0 0 -0.3227491875 
0 0 -0.3227491875 0 0 -0.3227491875 0 0 -0.3227491875 
0 0 -0.3227491875 0 0 -0.3227491875 0 0 -0.2674991875 
0 0 -0.0919991875 0 0 -0.3227491875 0 0 -0.3227491875 
0 0 -0.3227491875 0 0 -0.3227491875 0 0 -0.3227491875 
0 0 -0.3227491875 0 0 -0.3227491875 0 0 -0.3227491875 
0 0 -0.1797491875 0 0 -0.3227491875 0 0 -0.2609991875 
0 0 -0.3227491875 0 0 -0.3227491875 0 0 -0.3227491875 
0 0 -0.3227491875 0 0 -0.3227491875 0 0 -0.3227491875 
0 0 -0.3227491875 0 0 -0.3227491875 0 0 -0.3227491875 
0 0 -0.3227491875 0 0 -0.3227491875 0 0 -0.3227491875 
0 0 -0.3227491875 0 0 -0.1017491875 0 0 -0.3227491875 
0 0 -0.2187491875 0 0 -0.3227491875 0 0 -0.3227491875 
0 0 -0.3227491875 0 0 -0.3227491875 0 0 -0.1537491875 
0 0 -0.3227491875 0 0 -0.3227491875 0 0 -0.3227491875 
0 0 -0.3227491875 0 0 -0.1537491875 0 0 -0.3227491875 
0 0 -0.3227491875 0 0 -0.3227491875 0 0 -0.3227491875 
0 0 -0.3227491875 0 0 -0.3227491875 0 0 -0.2609991875 
0 0 -0.1244991875 0 0 -0.3227491875 0 0 -0.3227491875 
0 0 -0.3227491875 0 0 -0.2057491875 0 0 -0.1862491875 
0 0 -0.2447491875 0 0 -0.0919991875 0 0 -0.1667491875 
0 0 -0.3227491875 0 0 -0.3227491875 0 0 -0.3227491875 
0 0 -0.3227491875 0 0 -0.3227491875 0 0 -0.3227491875 
0 0 -0.2317491875 0 0 -0.3227491875 0 0 -0.3227491875 
0 0 -0.3227491875 0 0 -0.3227491875 0 0 -0.3227491875 
0 0 -0.0984991875 0 0 -0.3227491875 0 0 -0.3227491875 
0 0 -0.3227491875 0 0 -0.3227491875 0 0 -0.1894991875 
0 0 -0.3227491875 0 0 -0.3227491875 0 0 -0.3227491875 
0 0 -0.3227491875 0 0 -0.1959991875 0 0 -0.3227491875 
0 0 -0.3227491875 0 0 -0.3227491875 0 0 -0.1147491875 
0 0 -0.3227491875 0 0 -0.0984991875 0 0 -0.3227491875 
0 0 -0.1634991875 0 0 -0.3227491875 0 0 -0.3227491875 
0 0 -0.3227491875 0 0 -0.3227491875 0 0 -0.3227491875 
0 0 -0.3227491875 0 0 -0.3227491875 0 0 -0.0854991875 
0 0 -0.2317491875 0 0 -0.3227491875 0 0 -0.3227491875 
0 0 -0.3227491875 0 0 -0.3227491875 0 0 -0.3227491875 
0 0 -0.3227491875 0 0 -0.3227491875 0 0 -0.3227491875 
0 0 -0.1504991875 0 0 -0.3227491875 0 0 -0.3227491875 
0 0 -0.3227491875 0 0 -0.3227491875 0 0 -0.3227491875 
0 0 -0.3032491875 0 0 -0.0887491875 0 0 -0.0952491875 
0 0 -0.3227491875 0 0 -0.3227491875 0 0 -0.3227491875 
0 0 -0.1017491875 0 0 -0.3227491875 0 0 -0.3227491875 
0 0 -0.2089991875 0 0 -0.3227491875 0 0 -0.1732491875 
0 0 -0.3227491875 0 0 -0.3227491875 0 0 -0.3097491875 
0 0 -0.3227491875 0 0 -0.3227491875 0 0 -0.3227491875 
0 0 -0.3227491875 0 0 -0.1277491875 0 0 -0.3227491875 
0 0 -0.3227491875 0 0 -0.3227491875 0 0 -0.2447491875 
0 0 -0.3227491875 0 0 -0.3227491875 0 0 -0.2252491875 
0 0 -0.3227491875 0 0 -0.2219991875 0 0 -0.1212491875 
0 0 -0.3227491875 0 0 -0.3227491875 0 0 -0.1277491875 
0 0 -0.3227491875 0 0 -0.3227491875 0 0 -0.3227491875 
0 0 -0.3227491875 0 0 -0.3227491875 0 0 -0.3227491875 
0 0 -0.3097491875 0 0 -0.3227491875 0 0 -0.3227491875 
0 0 -0.3227491875 0 0 -0.3227491875 0 0 -0.3227491875 
0 0 -0.1439991875 0 0 -0.3227491875 0 0 -0.3227491875 
0 0 -0.3227491875 0 0 -0.3227491875 0 0 -0.3227491875 
0 0 -0.3227491875 0 0 -0.3227491875 0 0 -0.2447491875 
0 0 -0.3227491875 0 0 -0.3227491875 0 0 -0.3227491875 
0 0 -0.3227491875 0 0 -0.3227491875 0 0 -0.3227491875 
0 0 -0.3227491875 0 0 -0.1699991875 0 0 -0.1829991875 
0 0 -0.3227491875 0 0 -0.1244991875 0 0 -0.3227491875 
0 0 -0.2544991875 0 0 -0.3227491875 0 0 -0.1732491875 
0 0 -0.3227491875 0 0 -0.3227491875 0 0 -0.1244991875 
0 0 -0.3227491875 0 0 -0.3227491875 0 0 -0.3227491875 
0 0 -0.3227491875 0 0 -0.3227491875 0 0 -0.3227491875 
0 0 -0.3227491875 0 0 -0.0854991875 0 0 -0.3227491875 
0 0 -0.3227491875 0 0 -0.3227491875 0 0 -0.1959991875 
0 0 -0.1407491875 0 0 -0.3227491875 0 0 -0.3227491875 
0 0 -0.1699991875 0 0 -0.3227491875 0 0 -0.1407491875 
0 0 -0.0822491875 0 0 -0.3227491875 0 0 -0.3227491875 
0 0 -0.3227491875 0 0 -0.1829991875 0 0 -0.3227491875 
0 0 -0.3227491875 0 0 -0.3227491875 0 0 -0.3227491875 
0 0 -0.3227491875 0 0 -0.3227491875 0 0 -0.3227491875 
0 0 -0.1374991875 0 0 -0.3227491875 0 0 -0.3227491875 
0 0 -0.0919991875 0 0 -0.3227491875 0 0 -0.3227491875 
0 0 -0.2122491875 0 0 -0.3227491875 0 0 -0.3227491875 
0 0 -0.1114991875 0 0 -0.2544991875 0 0 -0.3227491875 
0 0 -0.3227491875 0 0 -0.3227491875 0 0 -0.3227491875 
0 0 -0.0952491875 0 0 -0.3227491875 0 0 -0.3227491875 
0 0 -0.3227491875 0 0 -0.0854991875 0 0 -0.0919991875 
0 0 -0.1147491875 0 0 -0.1277491875 0 0 -0.2057491875 
0 0 -0.1439991875 0 0 -0.1764991875 0 0 -0.2609991875 
0 0 -0.0919991875 0 0 -0.1439991875 0 0 -0.1342491875 
0 0 -0.1537491875 0 0 -0.2544991875 0 0 -0.1082491875 
0 0 -0.1797491875 0 0 -0.2024991875 0 0 -0.0789991875 
0 0 -0.0789991875 0 0 -0.1049991875 0 0 -0.0919991875 
0 0 -0.0789991875 0 0 -0.1764991875 0 0 -0.2024991875 
0 0 -0.1114991875 0 0 -0.1764991875 0 0 -0.2122491875 
0 0 -0.0887491875 0 0 -0.1959991875 0 0 -0.1504991875 
0 0 -0.1504991875 0 0 -0.1179991875 0 0 -0.0789991875 
0 0 -0.0789991875 0 0 -0.1082491875 0 0 -0.0952491875 
0 0 -0.0919991875 0 0 -0.1147491875 0 0 -0.1927491875 
0 0 -0.0887491875 0 0 -0.1147491875 0 0 -0.1569991875 
0 0 -0.1374991875 0 0 -0.0854991875 0 0 -0.1407491875 
0 0 -0.1407491875 0 0 -0.0822491875 0 0 -0.0919991875 
0 0 -0.0952491875 0 0 -0.0822491875 0 0 -0.0789991875 

f 3 648 double
0 0 -1.7425367252e-10 0 0 -1.7425367252e-10 0 0 -1.7425367252e-10 
0 0 -8.9019973083e-09 0 0 -1.7425367252e-10 0 0 -1.7425367252e-10 
0 0 -1.7425367252e-10 0 0 -1.7425367252e-10 0 0 -1.7425367252e-10 
0 0 -1.7425367252e-10 0 0 -1.7425367252e-10 0 0 -1.7425367252e-10 
0 0 -1.7425367252e-10 0 0 -1.7425367252e-10 0 0 -1.7425367252e-10 
0 0 -1.7425367252e-10 0 0 -1.7425367252e-10 0 0 -1.7425367252e-10 
0 0 -1.7425367252e-10 0 0 -1.7425367252e-10 0 0 -1.7425367252e-10 
0 0 -1.7425367252e-10 0 0 -1.7425367252e-10 0 0 -1.7425367252e-10 
0 0 -1.7425367252e-10 0 0 -1.7425367252e-10 0 0 -1.7425367252e-10 
0 0 -8.9019973083e-09 0 0 -1.7425367252e-10 0 0 -1.7425367252e-10 
0 0 -1.7425367252e-10 0 0 -1.7425367252e-10 0 0 -1.7425367252e-10 
0 0 -1.7425367252e-10 0 0 -8.9019973083e-09 0 0 -1.7425367252e-10 
0 0 -1.7425367252e-10 0 0 -1.7425367252e-10 0 0 -1.7425367252e-10 
0 0 -1.7425367252e-10 0 0 -1.7425367252e-10 0 0 -1.7425367252e-10 
0 0 -1.7425367252e-10 0 0 -1.7425367252e-10 0 0 -1.7425367252e-10 
0 0 -1.7425367252e-10 0 0 -1.7425367252e-10 0 0 -1.7425367252e-10 
0 0 -1.7425367252e-10 0 0 -1.7425367252e-10 0 0 -1.7425367252e-10 
0 0 -1.7425367252e-10 0 0 -1.7425367252e-10 0 0 -1.7425367252e-10 
0 0 -1.7425367252e-10 0 0 -1.7425367252e-10 0 0 -1.7425367252e-10 
0 0 -8.9019973083e-09 0 0 -1.7425367252e-10 0 0 -1.7425367252e-10 
0 0 -1.7425367252e-10 0 0 -1.7425367252e-10 0 0 -1.7425367252e-10 
0 0 -1.7425367252e-10 0 0 -1.7425367252e-10 0 0 -8.9019973083e-09 
0 0 -1.7425367252e-10 0 0 -1.7425367252e-10 0 0 -1.7425367252e-10 
0 0 -1.7425367252e-10 0 0 -1.7425367252e-10 0 0 -1.7425367252e-10 
0 0 -1.7425367252e-10 0 0 -1.7425367252e-10 0 0 -1.7425367252e-10 
0 0 -1.7425367252e-10 0 0 -1.7425367252e-10 0 0 -1.7425367252e-10 
0 0 -1.7425367252e-10 0 0 -1.7425367252e-10 0 0 -1.7425367252e-10 
0 0 -1.7425367252e-10 0 0 -1.7425367252e-10 0 0 -8.9019973083e-09 
0 0 -1.7425367252e-10 0 0 -1.7425367252e-10 0 0 -1.7425367252e-10 
0 0 -1.7425367252e-10 0 0 -1.7425367252e-10 0 0 -1.7425367252e-10 
0 0 -1.7425367252e-10 0 0 -1.7425367252e-10 0 0 -1.7425367252e-10 
0 0 -8.9019973083e-09 0 0 -1.7425367252e-10 0 0 -1.7425367252e-10 
0 0 -1.7425367252e-10 0 0 -1.7425367252e-10 0 0 -8.9019973083e-09 
0 0 -1.7425367252e-10 0 0 -1.7425367252e-10 0 0 -1.7425367252e-10 
0 0 -1.7425367252e-10 0 0 -1.7425367252e-10 0 0 -1.7425367252e-10 
0 0 -1.7425367252e-10 0 0 -1.7425367252e-10 0 0 -1.7425367252e-10 
0 0 -1.7425367252e-10 0 0 -1.7425367252e-10 0 0 -1.7425367252e-10 
0 0 -1.7425367252e-10 0 0 -1.7425367252e-10 0 0 -1.7425367252e-10 
0 0 -1.7425367252e-10 0 0 -1.7425367252e-10 0 0 -1.7425367252e-10 
0 0 -1.7425367252e-10 0 0 -1.7425367252e-10 0 0 -1.7425367252e-10 
0 0 -1.7425367252e-10 0 0 -1.7425367252e-10 0 0 -1.7425367252e-10 
0 0 -1.7425367252e-10 0 0 -1.7425367252e-10 0 0 -1.7425367252e-10 
0 0 -1.7425367252e-10 0 0 -8.9019973083e-09 0 0 -1.7425367252e-10 
0 0 -1.7425367252e-10 0 0 -1.7425367252e-10 0 0 -1.7425367252e-10 
0 0 -1.7425367252e-10 0 0 -1.7425367252e-10 0 0 -1.7425367252e-10 
0 0 -1.7425367252e-10 0 0 -1.7425367252e-10 0 0 -1.7425367252e-10 
0 0 -1.7425367252e-10 0 0 -1.7425367252e-10 0 0 -1.7425367252e-10 
0 0 -8.9019973083e-09 0 0 -1.7425367252e-10 0 0 -1.7425367252e-10 
0 0 -1.7425367252e-10 0 0 -1.7425367252e-10 0 0 -1.7425367252e-10 
0 0 -1.7425367252e-10 0 0 -1.7425367252e-10 0 0 -1.7425367252e-10 
0 0 -1.7425367252e-10 0 0 -1.7425367252e-10 0 0 -1.7425367252e-10 
0 0 -1.7425367252e-10 0 0 -1.7425367252e-10 0 0 -1.7425367252e-10 
0 0 -1.7425367252e-10 0 0 -1.7425367252e-10 0 0 -1.7425367252e-10 
0 0 -6.8918688838e-08 0 0 -1.7425367252e-10 0 0 -1.7425367252e-10 
0 0 -8.9019973083e-09 0 0 -1.7425367252e-10 0 0 -1.7425367252e-10 
0 0 -1.7425367252e-10 0 0 -1.7425367252e-10 0 0 -1.7425367252e-10 
0 0 -1.7425367252e-10 0 0 -1.7425367252e-10 0 0 -1.7425367252e-10 
0 0 -1.7425367252e-10 0 0 -1.7425367252e-10 0 0 -1.7425367252e-10 
0 0 -1.7425367252e-10 0 0 -1.7425367252e-10 0 0 -1.7425367252e-10 
0 0 -1.7425367252e-10 0 0 -1.7425367252e-10 0 0 -1.7425367252e-10 
0 0 -1.7425367252e-10 0 0 -1.7425367252e-10 0 0 -1.7425367252e-10 
0 0 -1.7425367252e-10 0 0 -1.7425367252e-10 0 0 -1.7425367252e-10 
0 0 -1.7425367252e-10 0 0 -1.7425367252e-10 0 0 -1.7425367252e-10 
0 0 -1.7425367252e-10 0 0 -1.7425367252e-10 0 0 -1.7425367252e-10 
0 0 -1.7425367252e-10 0 0 -1.7425367252e-10 0 0 -1.7425367252e-10 
0 0 -1.7425367252e-10 0 0 -1.7425367252e-10 0 0 -1.7425367252e-10 
0 0 -1.7425367252e-10 0 0 -1.7425367252e-10 0 0 -1.7425367252e-10 
0 0 -1.7425367252e-10 0 0 -1.7425367252e-10 0 0 -1.7425367252e-10 
0 0 -1.7425367252e-10 0 0 -1.7425367252e-10 0 0 -8.9019973083e-09 
0 0 -1.7425367252e-10 0 0 -1.7425367252e-10 0 0 -1.7425367252e-10 
0 0 -1.7425367252e-10 0 0 -1.7425367252e-10 0 0 -1.7425367252e-10 
0 0 -1.7425367252e-10 0 0 -1.7425367252e-10 0 0 -1.7425367252e-10 
0 0 -1.7425367252e-10 0 0 -1.7425367252e-10 0 0 -1.7425367252e-10 
0 0 -1.7425367252e-10 0 0 -1.7425367252e-10 0 0 -1.7425367252e-10 
0 0 -1.7425367252e-10 0 0 -1.7425367252e-10 0 0 -1.7425367252e-10 
0 0 -1.7425367252e-10 0 0 -1.7425367252e-10 0 0 -1.7425367252e-10 
0 0 -1.7425367252e-10 0 0 -1.7425367252e-10 0 0 -1.7425367252e-10 
0 0 -1.7425367252e-10 0 0 -1.7425367252e-10 0 0 -1.7425367252e-10 
0 0 -1.7425367252e-10 0 0 -1.7425367252e-10 0 0 -1.7425367252e-10 
0 0 -1.7425367252e-10 0 0 -1.7425367252e-10 0 0 -1.7425367252e-10 
0 0 -1.7425367252e-10 0 0 -1.7425367252e-10 0 0 -1.7425367252e-10 
0 0 -1.7425367252e-10 0 0 -1.7425367252e-10 0 0 -1.7425367252e-10 
0 0 -1.7425367252e-10 0 0 -1.7425367252e-10 0 0 -1.7425367252e-10 
0 0 -1.7425367252e-10 0 0 -1.7425367252e-10 0 0 -1.7425367252e-10 
0 0 -1.7425367252e-10 0 0 -1.7425367252e-10 0 0 -1.7425367252e-10 
0 0 -1.7425367252e-10 0 0 -1.7425367252e-10 0 0 -1.7425367252e-10 
0 0 -1.7425367252e-10 0 0 -1.7425367252e-10 0 0 -1.7425367252e-10 
0 0 -1.7425367252e-10 0 0 -1.7425367252e-10 0 0 -1.7425367252e-10 
0 0 -1.7425367252e-10 0 0 -1.7425367252e-10 0 0 -1.7425367252e-10 
0 0 -1.7425367252e-10 0 0 -1.7425367252e-10 0 0 -1.7425367252e-10 
0 0 -1.7425367252e-10 0 0 -1.7425367252e-10 0 0 -1.7425367252e-10 
0 0 -1.7425367252e-10 0 0 -1.7425367252e-10 0 0 -1.7425367252e-10 
0 0 -1.7425367252e-10 0 0 -1.7425367252e-10 0 0 -1.7425367252e-10 
0 0 -1.7425367252e-10 0 0 -1.7425367252e-10 0 0 -1.7425367252e-10 
0 0 -1.7425367252e-10 0 0 -1.7425367252e-10 0 0 -1.7425367252e-10 
0 0 -1.7425367252e-10 0 0 -1.7425367252e-10 0 0 -1.7425367252e-10 
0 0 -1.7425367252e-10 0 0 -1.7425367252e-10 0 0 -1.7425367252e-10 
0 0 -1.7425367252e-10 0 0 -1.7425367252e-10 0 0 -1.7425367252e-10 
0 0 -1.7425367252e-10 0 0 -1.7425367252e-10 0 0 -1.7425367252e-10 
0 0 -1.7425367252e-10 0 0 -1.7425367252e-10 0 0 -1.7425367252e-10 
0 0 -1.7425367252e-10 0 0 -1.7425367252e-10 0 0 -1.7425367252e-10 
0 0 -1.7425367252e-10 0 0 -1.7425367252e-10 0 0 -1.7425367252e-10 
0 0 -1.7425367252e-10 0 0 -1.7425367252e-10 0 0 -1.7425367252e-10 
0 0 -1.7425367252e-10 0 0 -1.7425367252e-10 0 0 -1.7425367252e-10 
0 0 -1.7425367252e-10 0 0 -1.7425367252e-10 0 0 -1.7425367252e-10 
0 0 -1.7425367252e-10 0 0 -1.7425367252e-10 0 0 -1.7425367252e-10 
0 0 -1.7425367252e-10 0 0 -1.7425367252e-10 0 0 -1.7425367252e-10 
0 0 -1.7425367252e-10 0 0 -1.7425367252e-10 0 0 -1.7425367252e-10 
0 0 -1.7425367252e-10 0 0 -1.7425367252e-10 0 0 -1.7425367252e-10 
0 0 -1.7425367252e-10 0 0 -1.7425367252e-10 0 0 -1.7425367252e-10 
0 0 -1.7425367252e-10 0 0 -1.7425367252e-10 0 0 -1.7425367252e-10 
0 0 -1.7425367252e-10 0 0 -1.7425367252e-10 0 0 -1.7425367252e-10 
0 0 -1.7425367252e-10 0 0 -1.7425367252e-10 0 0 -1.7425367252e-10 
0 0 -1.7425367252e-10 0 0 -1.7425367252e-10 0 0 -1.7425367252e-10 
0 0 -1.7425367252e-10 0 0 -1.7425367252e-10 0 0 -1.7425367252e-10 
0 0 -1.7425367252e-10 0 0 -1.7425367252e-10 0 0 -1.7425367252e-10 
0 0 -1.7425367252e-10 0 0 -1.7425367252e-10 0 0 -1.7425367252e-10 
0 0 -1.7425367252e-10 0 0 -1.7425367252e-10 0 0 -1.7425367252e-10 
0 0 -1.7425367252e-10 0 0 -1.7425367252e-10 0 0 -1.7425367252e-10 
0 0 -1.7425367252e-10 0 0 -1.7425367252e-10 0 0 -1.7425367252e-10 
0 0 -1.7425367252e-10 0 0 -1.7425367252e-10 0 0 -1.7425367252e-10 
0 0 -1.7425367252e-10 0 0 -1.7425367252e-10 0 0 -1.7425367252e-10 
0 0 -1.7425367252e-10 0 0 -1.7425367252e-10 0 0 -1.7425367252e-10 
0 0 -1.7425367252e-10 0 0 -1.7425367252e-10 0 0 -1.7425367252e-10 
0 0 -1.7425367252e-10 0 0 -1.7425367252e-10 0 0 -1.7425367252e-10 
0 0 -1.7425367252e-10 0 0 -1.7425367252e-10 0 0 -1.7425367252e-10 
0 0 -1.7425367252e-10 0 0 -5.3297119368e-07 0 0 -1.7425367252e-10 
0 0 -1.7425367252e-10 0 0 -1.7425367252e-10 0 0 -1.7425367252e-10 
0 0 -1.7425367252e-10 0 0 -1.7425367252e-10 0 0 -1.7425367252e-10 
0 0 -1.7425367252e-10 0 0 -1.7425367252e-10 0 0 -1.7425367252e-10 
0 0 -1.7425367252e-10 0 0 -1.7425367252e-10 0 0 -1.7425367252e-10 
0 0 -1.7425367252e-10 0 0 -1.7425367252e-10 0 0 -1.7425367252e-10 
0 0 -1.7425367252e-10 0 0 -1.7425367252e-10 0 0 -1.7425367252e-10 
0 0 -1.7425367252e-10 0 0 -1.7425367252e-10 0 0 -1.7425367252e-10 
0 0 -1.7425367252e-10 0 0 -1.7425367252e-10 0 0 -1.7425367252e-10 
0 0 -1.7425367252e-10 0 0 -1.7425367252e-10 0 0 -1.7425367252e-10 
0 0 -1.7425367252e-10 0 0 -1.7425367252e-10 0 0 -1.7425367252e-10 
0 0 -1.7425367252e-10 0 0 -1.7425367252e-10 0 0 -1.7425367252e-10 
0 0 -1.7425367252e-10 0 0 -1.7425367252e-10 0 0 -1.7425367252e-10 
0 0 -1.7425367252e-10 0 0 -1.7425367252e-10 0 0 -1.7425367252e-10 
0 0 -8.9019973083e-09 0 0 -1.7425367252e-10 0 0 -1.7425367252e-10 
0 0 -1.7425367252e-10 0 0 -1.7425367252e-10 0 0 -1.7425367252e-10 
0 0 -1.7425367252e-10 0 0 -1.7425367252e-10 0 0 -1.7425367252e-10 
0 0 -1.7425367252e-10 0 0 -1.7425367252e-10 0 0 -1.7425367252e-10 
0 0 -1.7425367252e-10 0 0 -1.7425367252e-10 0 0 -1.7425367252e-10 
0 0 -1.7425367252e-10 0 0 -1.7425367252e-10 0 0 -1.7425367252e-10 
0 0 -1.7425367252e-10 0 0 -1.7425367252e-10 0 0 -1.7425367252e-10 
0 0 -1.7425367252e-10 0 0 -1.7425367252e-10 0 0 -1.7425367252e-10 
0 0 -1.7425367252e-10 0 0 -1.7425367252e-10 0 0 -1.7425367252e-10 
0 0 -1.7425367252e-10 0 0 -1.7425367252e-10 0 0 -1.7425367252e-10 
0 0 -1.7425367252e-10 0 0 -1.7425367252e-10 0 0 -8.9019973083e-09 
0 0 -1.7425367252e-10 0 0 -1.7425367252e-10 0 0 -1.7425367252e-10 
0 0 -1.7425367252e-10 0 0 -1.7425367252e-10 0 0 -1.7425367252e-10 
0 0 -1.7425367252e-10 0 0 -8.9019973083e-09 0 0 -1.7425367252e-10 
0 0 -1.7425367252e-10 0 0 -1.7425367252e-10 0 0 -1.7425367252e-10 
0 0 -1.7425367252e-10 0 0 -1.7425367252e-10 0 0 -1.7425367252e-10 
0 0 -1.7425367252e-10 0 0 -1.7425367252e-10 0 0 -1.7425367252e-10 
0 0 -1.7425367252e-10 0 0 -1.7425367252e-10 0 0 -1.7425367252e-10 
0 0 -1.7425367252e-10 0 0 -1.7425367252e-10 0 0 -1.7425367252e-10 
0 0 -1.7425367252e-10 0 0 -1.7425367252e-10 0 0 -1.7425367252e-10 
0 0 -1.7425367252e-10 0 0 -1.7425367252e-10 0 0 -1.7425367252e-10 
0 0 -1.7425367252e-10 0 0 -1.7425367252e-10 0 0 -1.7425367252e-10 
0 0 -1.7425367252e-10 0 0 -1.7425367252e-10 0 0 -1.7425367252e-10 
0 0 -1.7425367252e-10 0 0 -1.7425367252e-10 0 0 -1.7425367252e-10 
0 0 -1.7425367252e-10 0 0 -1.7425367252e-10 0 0 -1.7425367252e-10 
0 0 -1.7425367252e-10 0 0 -1.7425367252e-10 0 0 -1.7425367252e-10 
0 0 -1.7425367252e-10 0 0 -1.7425367252e-10 0 0 -1.7425367252e-10 
0 0 -1.7425367252e-10 0 0 -1.7425367252e-10 0 0 -1.7425367252e-10 
0 0 -1.7425367252e-10 0 0 -1.7425367252e-10 0 0 -1.7425367252e-10 
0 0 -1.7425367252e-10 0 0 -1.7425367252e-10 0 0 -1.7425367252e-10 
0 0 -1.7425367252e-10 0 0 -1.7425367252e-10 0 0 -1.7425367252e-10 
0 0 -1.7425367252e-10 0 0 -1.7425367252e-10 0 0 -1.7425367252e-10 
0 0 -1.7425367252e-10 0 0 -1.7425367252e-10 0 0 -1.7425367252e-10 
0 0 -1.7425367252e-10 0 0 -1.7425367252e-10 0 0 -1.7425367252e-10 
0 0 -1.7425367252e-10 0 0 -1.7425367252e-10 0 0 -1.7425367252e-10 
0 0 -1.7425367252e-10 0 0 -1.7425367252e-10 0 0 -1.7425367252e-10 
0 0 -1.7425367252e-10 0 0 -1.7425367252e-10 0 0 -1.7425367252e-10 
0 0 -1.7425367252e-10 0 0 -1.7425367252e-10 0 0 -1.7425367252e-10 
0 0 -1.7425367252e-10 0 0 -1.7425367252e-10 0 0 -1.7425367252e-10 
0 0 -1.7425367252e-10 0 0 -1.7425367252e-10 0 0 -1.7425367252e-10 
0 0 -1.7425367252e-10 0 0 -1.7425367252e-10 0 0 -1.7425367252e-10 
0 0 -1.7425367252e-10 0 0 -1.7425367252e-10 0 0 -1.7425367252e-10 
0 0 -1.7425367252e-10 0 0 -1.7425367252e-10 0 0 -1.7425367252e-10 
0 0 -1.7425367252e-10 0 0 -1.7425367252e-10 0 0 -1.7425367252e-10 
0 0 -1.7425367252e-10 0 0 -1.7425367252e-10 0 0 -1.7425367252e-10 
0 0 -1.7425367252e-10 0 0 -1.7425367252e-10 0 0 -1.7425367252e-10 
0 0 -1.7425367252e-10 0 0 -1.7425367252e-10 0 0 -1.7425367252e-10 
0 0 -1.7425367252e-10 0 0 -1.7425367252e-10 0 0 -1.7425367252e-10 
0 0 -1.7425367252e-10 0 0 -1.7425367252e-10 0 0 -1.7425367252e-10 
0 0 -1.7425367252e-10 0 0 -1.7425367252e-10 0 0 -1.7425367252e-10 
0 0 -1.7425367252e-10 0 0 -1.7425367252e-10 0 0 -1.7425367252e-10 
0 0 -1.7425367252e-10 0 0 -1.7425367252e-10 0 0 -1.7425367252e-10 
0 0 -1.7425367252e-10 0 0 -1.7425367252e-10 0 0 -1.7425367252e-10 
0 0 -1.7425367252e-10 0 0 -1.7425367252e-10 0 0 -1.7425367252e-10 
0 0 -1.7425367252e-10 0 0 -1.7425367252e-10 0 0 -1.7425367252e-10 
0 0 -1.7425367252e-10 0 0 -1.7425367252e-10 0 0 -1.7425367252e-10 
0 0 -1.7425367252e-10 0 0 -1.7425367252e-10 0 0 -1.7425367252e-10 
0 0 -1.7425367252e-10 0 0 -1.7425367252e-10 0 0 -1.7425367252e-10 
0 0 -1.7425367252e-10 0 0 -1.7425367252e-10 0 0 -1.7425367252e-10 
0 0 -1.7425367252e-10 0 0 -8.9019973083e-09 0 0 -1.7425367252e-10 
0 0 -1.7425367252e-10 0 0 -1.7425367252e-10 0 0 -1.7425367252e-10 
0 0 -1.7425367252e-10 0 0 -1.7425367252e-10 0 0 -1.7425367252e-10 
0 0 -1.7425367252e-10 0 0 -1.7425367252e-10 0 0 -1.7425367252e-10 
0 0 -1.7425367252e-10 0 0 -8.9019973083e-09 0 0 -1.7425367252e-10 
0 0 -1.7425367252e-10 0 0 -1.7425367252e-10 0 0 -1.7425367252e-10 
0 0 -1.7425367252e-10 0 0 -1.7425367252e-10 0 0 -1.7425367252e-10 
0 0 -1.7425367252e-10 0 0 -1.7425367252e-10 0 0 -1.7425367252e-10 
0 0 -1.7425367252e-10 0 0 -1.7425367252e-10 0 0 -1.7425367252e-10 
0 0 -1.7425367252e-10 0 0 -1.7425367252e-10 0 0 -1.7425367252e-10 
0 0 -1.7425367252e-10 0 0 -1.7425367252e-10 0 0 -1.7425367252e-10 
0 0 -1.7425367252e-10 0 0 -1.7425367252e-10 0 0 -1.7425367252e-10 
0 0 -1.7425367252e-10 0 0 -1.7425367252e-10 0 0 -1.7425367252e-10 
0 0 -1.7425367252e-10 0 0 -1.7425367252e-10 0 0 -1.7425367252e-10 
0 0 -1.7425367252e-10 0 0 -1.7425367252e-10 0 0 -1.7425367252e-10 
0 0 -1.7425367252e-10 0 0 -1.7425367252e-10 0 0 -1.7425367252e-10 
0 0 -1.7425367252e-10 0 0 -1.7425367252e-10 0 0 -1.7425367252e-10 

radius 1 648 double
2e-05 2e-05 2e-05 7.5e-05 2e-05 2e-05 2e-05 2e-05 2e-05 
2e-05 2e-05 2e-05 2e-05 2e-05 2e-05 2e-05 2e-05 2e-05 
2e-05 2e-05 2e-05 2e-05 2e-05 2e-05 2e-05 2e-05 2e-05 
7.5e-05 2e-05 2e-05 2e-05 2e-05 2e-05 2e-05 7.5e-05 2e-05 
2e-05 2e-05 2e-05 2e-05 2e-05 2e-05 2e-05 2e-05 2e-05 
2e-05 2e-05 2e-05 2e-05 2e-05 2e-05 2e-05 2e-05 2e-05 
2e-05 2e-05 2e-05 7.5e-05 2e-05 2e-05 2e-05 2e-05 2e-05 
2e-05 2e-05 7.5e-05 2e-05 2e-05 2e-05 2e-05 2e-05 2e-05 
2e-05 2e-05 2e-05 2e-05 2e-05 2e-05 2e-05 2e-05 2e-05 
2e-05 2e-05 7.5e-05 2e-05 2e-05 2e-05 2e-05 2e-05 2e-05 
2e-05 2e-05 2e-05 7.5e-05 2e-05 2e-05 2e-05 2e-05 7.5e-05 
2e-05 2e-05 2e-05 2e-05 2e-05 2e-05 2e-05 2e-05 2e-05 
2e-05 2e-05 2e-05 2e-05 2e-05 2e-05 2e-05 2e-05 2e-05 
2e-05 2e-05 2e-05 2e-05 2e-05 2e-05 2e-05 2e-05 2e-05 
2e-05 7.5e-05 2e-05 2e-05 2e-05 2e-05 2e-05 2e-05 2e-05 
2e-05 2e-05 2e-05 2e-05 2e-05 2e-05 7.5e-05 2e-05 2e-05 
2e-05 2e-05 2e-05 2e-05 2e-05 2e-05 2e-05 2e-05 2e-05 
2e-05 2e-05 2e-05 2e-05 2e-05 2e-05 0.00015 2e-05 2e-05 
7.5e-05 2e-05 2e-05 2e-05 2e-05 2e-05 2e-05 2e-05 2e-05 
2e-05 2e-05 2e-05 2e-05 2e-05 2e-05 2e-05 2e-05 2e-05 
2e-05 2e-05 2e-05 2e-05 2e-05 2e-05 2e-05 2e-05 2e-05 
2e-05 2e-05 2e-05 2e-05 2e-05 2e-05 2e-05 2e-05 2e-05 
2e-05 2e-05 2e-05 2e-05 2e-05 2e-05 2e-05 2e-05 7.5e-05 
2e-05 2e-05 2e-05 2e-05 2e-05 2e-05 2e-05 2e-05 2e-05 
2e-05 2e-05 2e-05 2e-05 2e-05 2e-05 2e-05 2e-05 2e-05 
2e-05 2e-05 2e-05 2e-05 2e-05 2e-05 2e-05 2e-05 2e-05 
2e-05 2e-05 2e-05 2e-05 2e-05 2e-05 2e-05 2e-05 2e-05 
2e-05 2e-05 2e-05 2e-05 2e-05 2e-05 2e-05 2e-05 2e-05 
2e-05 2e-05 2e-05 2e-05 2e-05 2e-05 2e-05 2e-05 2e-05 
2e-05 2e-05 2e-05 2e-05 2e-05 2e-05 2e-05 2e-05 2e-05 
2e-05 2e-05 2e-05 2e-05 2e-05 2e-05 2e-05 2e-05 2e-05 
2e-05 2e-05 2e-05 2e-05 2e-05 2e-05 2e-05 2e-05 2e-05 
2e-05 2e-05 2e-05 2e-05 2e-05 2e-05 2e-05 2e-05 2e-05 
2e-05 2e-05 2e-05 2e-05 2e-05 2e-05 2e-05 2e-05 2e-05 
2e-05 2e-05 2e-05 2e-05 2e-05 2e-05 2e-05 2e-05 2e-05 
2e-05 2e-05 2e-05 2e-05 2e-05 2e-05 2e-05 2e-05 2e-05 
2e-05 2e-05 2e-05 2e-05 2e-05 2e-05 2e-05 2e-05 2e-05 
2e-05 2e-05 2e-05 2e-05 2e-05 2e-05 2e-05 2e-05 2e-05 
2e-05 2e-05 2e-05 2e-05 2e-05 2e-05 2e-05 2e-05 2e-05 
2e-05 2e-05 2e-05 2e-05 2e-05 2e-05 2e-05 2e-05 2e-05 
2e-05 2e-05 2e-05 2e-05 2e-05 2e-05 2e-05 2e-05 2e-05 
2e-05 2e-05 2e-05 2e-05 2e-05 2e-05 2e-05 2e-05 2e-05 
2e-05 0.0003 2e-05 2e-05 2e-05 2e-05 2e-05 2e-05 2e-05 
2e-05 2e-05 2e-05 2e-05 2e-05 2e-05 2e-05 2e-05 2e-05 
2e-05 2e-05 2e-05 2e-05 2e-05 2e-05 2e-05 2e-05 2e-05 
2e-05 2e-05 2e-05 2e-05 2e-05 2e-05 2e-05 2e-05 2e-05 
2e-05 2e-05 2e-05 2e-05 2e-05 2e-05 7.5e-05 2e-05 2e-05 
2e-05 2e-05 2e-05 2e-05 2e-05 2e-05 2e-05 2e-05 2e-05 
2e-05 2e-05 2e-05 2e-05 2e-05 2e-05 2e-05 2e-05 2e-05 
2e-05 2e-05 2e-05 2e-05 2e-05 2e-05 2e-05 2e-05 2e-05 
2e-05 2e-05 7.5e-05 2e-05 2e-05 2e-05 2e-05 2e-05 2e-05 
2e-05 7.5e-05 2e-05 2e-05 2e-05 2e-05 2e-05 2e-05 2e-05 
2e-05 2e-05 2e-05 2e-05 2e-05 2e-05 2e-05 2e-05 2e-05 
2e-05 2e-05 2e-05 2e-05 2e-05 2e-05 2e-05 2e-05 2e-05 
2e-05 2e-05 2e-05 2e-05 2e-05 2e-05 2e-05 2e-05 2e-05 
2e-05 2e-05 2e-05 2e-05 2e-05 2e-05 2e-05 2e-05 2e-05 
2e-05 2e-05 2e-05 2e-05 2e-05 2e-05 2e-05 2e-05 2e-05 
2e-05 2e-05 2e-05 2e-05 2e-05 2e-05 2e-05 2e-05 2e-05 
2e-05 2e-05 2e-05 2e-05 2e-05 2e-05 2e-05 2e-05 2e-05 
2e-05 2e-05 2e-05 2e-05 2e-05 2e-05 2e-05 2e-05 2e-05 
2e-05 2e-05 2e-05 2e-05 2e-05 2e-05 2e-05 2e-05 2e-05 
2e-05 2e-05 2e-05 2e-05 2e-05 2e-05 2e-05 2e-05 2e-05 
2e-05 2e-05 2e-05 2e-05 2e-05 2e-05 2e-05 2e-05 2e-05 
2e-05 2e-05 2e-05 2e-05 2e-05 2e-05 2e-05 2e-05 2e-05 
2e-05 2e-05 2e-05 2e-05 2e-05 2e-05 2e-05 2e-05 2e-05 
2e-05 2e-05 2e-05 2e-05 2e-05 2e-05 2e-05 2e-05 2e-05 
2e-05 2e-05 2e-05 2e-05 7.5e-05 2e-05 2e-05 2e-05 2e-05 
2e-05 2e-05 2e-05 2e-05 2e-05 2e-05 2e-05 7.5e-05 2e-05 
2e-05 2e-05 2e-05 2e-05 2e-05 2e-05 2e-05 2e-05 2e-05 
2e-05 2e-05 2e-05 2e-05 2e-05 2e-05 2e-05 2e-05 2e-05 
2e-05 2e-05 2e-05 2e-05 2e-05 2e-05 2e-05 2e-05 2e-05 
2e-05 2e-05 2e-05 2e-05 2e-05 2e-05 2e-05 2e-05 2e-05 

omega 3 648 double
0 0 0 0 0 0 0 0 0 
0 0 0 0 0 0 0 0 0 
0 0 0 0 0 0 0 0 0 
0 0 0 0 0 0 0 0 0 
0 0 0 0 0 0 0 0 0 
0 0 0 0 0 0 0 0 0 
0 0 0 0 0 0 0 0 0 
0 0 0 0 0 0 0 0 0 
0 0 0 0 0 0 0 0 0 
0 0 0 0 0 0 0 0 0 
0 0 0 0 0 0 0 0 0 
0 0 0 0 0 0 0 0 0 
0 0 0 0 0 0 0 0 0 
0 0 0 0 0 0 0 0 0 
0 0 0 0 0 0 0 0 0 
0 0 0 0 0 0 0 0 0 
0 0 0 0 0 0 0 0 0 
0 0 0 0 0 0 0 0 0 
0 0 0 0 0 0 0 0 0 
0 0 0 0 0 0 0 0 0 
0 0 0 0 0 0 0 0 0 
0 0 0 0 0 0 0 0 0 
0 0 0 0 0 0 0 0 0 
0 0 0 0 0 0 0 0 0 
0 0 0 0 0 0 0 0 0 
0 0 0 0 0 0 0 0 0 
0 0 0 0 0 0 0 0 0 
0 0 0 0 0 0 0 0 0 
0 0 0 0 0 0 0 0 0 
0 0 0 0 0 0 0 0 0 
0 0 0 0 0 0 0 0 0 
0 0 0 0 0 0 0 0 0 
0 0 0 0 0 0 0 0 0 
0 0 0 0 0 0 0 0 0 
0 0 0 0 0 0 0 0 0 
0 0 0 0 0 0 0 0 0 
0 0 0 0 0 0 0 0 0 
0 0 0 0 0 0 0 0 0 
0 0 0 0 0 0 0 0 0 
0 0 0 0 0 0 0 0 0 
0 0 0 0 0 0 0 0 0 
0 0 0 0 0 0 0 0 0 
0 0 0 0 0 0 0 0 0 
0 0 0 0 0 0 0 0 0 
0 0 0 0 0 0 0 0 0 
0 0 0 0 0 0 0 0 0 
0 0 0 0 0 0 0 0 0 
0 0 0 0 0 0 0 0 0 
0 0 0 0 0 0 0 0 0 
0 0 0 0 0 0 0 0 0 
0 0 0 0 0 0 0 0 0 
0 0 0 0 0 0 0 0 0 
0 0 0 0 0 0 0 0 0 
0 0 0 0 0 0 0 0 0 
0 0 0 0 0 0 0 0 0 
0 0 0 0 0 0 0 0 0 
0 0 0 0 0 0 0 0 0 
0 0 0 0 0 0 0 0 0 
0 0 0 0 0 0 0 0 0 
0 0 0 0 0 0 0 0 0 
0 0 0 0 0 0 0 0 0 
0 0 0 0 0 0 0 0 0 
0 0 0 0 0 0 0 0 0 
0 0 0 0 0 0 0 0 0 
0 0 0 0 0 0 0 0 0 
0 0 0 0 0 0 0 0 0 
0 0 0 0 0 0 0 0 0 
0 0 0 0 0 0 0 0 0 
0 0 0 0 0 0 0 0 0 
0 0 0 0 0 0 0 0 0 
0 0 0 0 0 0 0 0 0 
0 0 0 0 0 0 0 0 0 
0 0 0 0 0 0 0 0 0 
0 0 0 0 0 0 0 0 0 
0 0 0 0 0 0 0 0 0 
0 0 0 0 0 0 0 0 0 
0 0 0 0 0 0 0 0 0 
0 0 0 0 0 0 0 0 0 
0 0 0 0 0 0 0 0 0 
0 0 0 0 0 0 0 0 0 
0 0 0 0 0 0 0 0 0 
0 0 0 0 0 0 0 0 0 
0 0 0 0 0 0 0 0 0 
0 0 0 0 0 0 0 0 0 
0 0 0 0 0 0 0 0 0 
0 0 0 0 0 0 0 0 0 
0 0 0 0 0 0 0 0 0 
0 0 0 0 0 0 0 0 0 
0 0 0 0 0 0 0 0 0 
0 0 0 0 0 0 0 0 0 
0 0 0 0 0 0 0 0 0 
0 0 0 0 0 0 0 0 0 
0 0 0 0 0 0 0 0 0 
0 0 0 0 0 0 0 0 0 
0 0 0 0 0 0 0 0 0 
0 0 0 0 0 0 0 0 0 
0 0 0 0 0 0 0 0 0 
0 0 0 0 0 0 0 0 0 
0 0 0 0 0 0 0 0 0 
0 0 0 0 0 0 0 0 0 
0 0 0 0 0 0 0 0 0 
0 0 0 0 0 0 0 0 0 
0 0 0 0 0 0 0 0 0 
0 0 0 0 0 0 0 0 0 
0 0 0 0 0 0 0 0 0 
0 0 0 0 0 0 0 0 0 
0 0 0 0 0 0 0 0 0 
0 0 0 0 0 0 0 0 0 
0 0 0 0 0 0 0 0 0 
0 0 0 0 0 0 0 0 0 
0 0 0 0 0 0 0 0 0 
0 0 0 0 0 0 0 0 0 
0 0 0 0 0 0 0 0 0 
0 0 0 0 0 0 0 0 0 
0 0 0 0 0 0 0 0 0 
0 0 0 0 0 0 0 0 0 
0 0 0 0 0 0 0 0 0 
0 0 0 0 0 0 0 0 0 
0 0 0 0 0 0 0 0 0 
0 0 0 0 0 0 0 0 0 
0 0 0 0 0 0 0 0 0 
0 0 0 0 0 0 0 0 0 
0 0 0 0 0 0 0 0 0 
0 0 0 0 0 0 0 0 0 
0 0 0 0 0 0 0 0 0 
0 0 0 0 0 0 0 0 0 
0 0 0 0 0 0 0 0 0 
0 0 0 0 0 0 0 0 0 
0 0 0 0 0 0 0 0 0 
0 0 0 0 0 0 0 0 0 
0 0 0 0 0 0 0 0 0 
0 0 0 0 0 0 0 0 0 
0 0 0 0 0 0 0 0 0 
0 0 0 0 0 0 0 0 0 
0 0 0 0 0 0 0 0 0 
0 0 0 0 0 0 0 0 0 
0 0 0 0 0 0 0 0 0 
0 0 0 0 0 0 0 0 0 
0 0 0 0 0 0 0 0 0 
0 0 0 0 0 0 0 0 0 
0 0 0 0 0 0 0 0 0 
0 0 0 0 0 0 0 0 0 
0 0 0 0 0 0 0 0 0 
0 0 0 0 0 0 0 0 0 
0 0 0 0 0 0 0 0 0 
0 0 0 0 0 0 0 0 0 
0 0 0 0 0 0 0 0 0 
0 0 0 0 0 0 0 0 0 
0 0 0 0 0 0 0 0 0 
0 0 0 0 0 0 0 0 0 
0 0 0 0 0 0 0 0 0 
0 0 0 0 0 0 0 0 0 
0 0 0 0 0 0 0 0 0 
0 0 0 0 0 0 0 0 0 
0 0 0 0 0 0 0 0 0 
0 0 0 0 0 0 0 0 0 
0 0 0 0 0 0 0 0 0 
0 0 0 0 0 0 0 0 0 
0 0 0 0 0 0 0 0 0 
0 0 0 0 0 0 0 0 0 
0 0 0 0 0 0 0 0 0 
0 0 0 0 0 0 0 0 0 
0 0 0 0 0 0 0 0 0 
0 0 0 0 0 0 0 0 0 
0 0 0 0 0 0 0 0 0 
0 0 0 0 0 0 0 0 0 
0 0 0 0 0 0 0 0 0 
0 0 0 0 0 0 0 0 0 
0 0 0 0 0 0 0 0 0 
0 0 0 0 0 0 0 0 0 
0 0 0 0 0 0 0 0 0 
0 0 0 0 0 0 0 0 0 
0 0 0 0 0 0 0 0 0 
0 0 0 0 0 0 0 0 0 
0 0 0 0 0 0 0 0 0 
0 0 0 0 0 0 0 0 0 
0 0 0 0 0 0 0 0 0 
0 0 0 0 0 0 0 0 0 
0 0 0 0 0 0 0 0 0 
0 0 0 0 0 0 0 0 0 
0 0 0 0 0 0 0 0 0 
0 0 0 0 0 0 0 0 0 
0 0 0 0 0 0 0 0 0 
0 0 0 0 0 0 0 0 0 
0 0 0 0 0 0 0 0 0 
0 0 0 0 0 0 0 0 0 
0 0 0 0 0 0 0 0 0 
0 0 0 0 0 0 0 0 0 
0 0 0 0 0 0 0 0 0 
0 0 0 0 0 0 0 0 0 
0 0 0 0 0 0 0 0 0 
0 0 0 0 0 0 0 0 0 
0 0 0 0 0 0 0 0 0 
0 0 0 0 0 0 0 0 0 
0 0 0 0 0 0 0 0 0 
0 0 0 0 0 0 0 0 0 
0 0 0 0 0 0 0 0 0 
0 0 0 0 0 0 0 0 0 
0 0 0 0 0 0 0 0 0 
0 0 0 0 0 0 0 0 0 
0 0 0 0 0 0 0 0 0 
0 0 0 0 0 0 0 0 0 
0 0 0 0 0 0 0 0 0 
0 0 0 0 0 0 0 0 0 
0 0 0 0 0 0 0 0 0 
0 0 0 0 0 0 0 0 0 
0 0 0 0 0 0 0 0 0 
0 0 0 0 0 0 0 0 0 
0 0 0 0 0 0 0 0 0 
0 0 0 0 0 0 0 0 0 
0 0 0 0 0 0 0 0 0 
0 0 0 0 0 0 0 0 0 
0 0 0 0 0 0 0 0 0 
0 0 0 0 0 0 0 0 0 
0 0 0 0 0 0 0 0 0 
0 0 0 0 0 0 0 0 0 

fx_mag_viz 1 648 double
0 0 0 0 0 0 0 0 0 
0 0 0 0 0 0 0 0 0 
0 0 0 0 0 0 0 0 0 
0 0 0 0 0 0 0 0 0 
0 0 0 0 0 0 0 0 0 
0 0 0 0 0 0 0 0 0 
0 0 0 0 0 0 0 0 0 
0 0 0 0 0 0 0 0 0 
0 0 0 0 0 0 0 0 0 
0 0 0 0 0 0 0 0 0 
0 0 0 0 0 0 0 0 0 
0 0 0 0 0 0 0 0 0 
0 0 0 0 0 0 0 0 0 
0 0 0 0 0 0 0 0 0 
0 0 0 0 0 0 0 0 0 
0 0 0 0 0 0 0 0 0 
0 0 0 0 0 0 0 0 0 
0 0 0 0 0 0 0 0 0 
0 0 0 0 0 0 0 0 0 
0 0 0 0 0 0 0 0 0 
0 0 0 0 0 0 0 0 0 
0 0 0 0 0 0 0 0 0 
0 0 0 0 0 0 0 0 0 
0 0 0 0 0 0 0 0 0 
0 0 0 0 0 0 0 0 0 
0 0 0 0 0 0 0 0 0 
0 0 0 0 0 0 0 0 0 
0 0 0 0 0 0 0 0 0 
0 0 0 0 0 0 0 0 0 
0 0 0 0 0 0 0 0 0 
0 0 0 0 0 0 0 0 0 
0 0 0 0 0 0 0 0 0 
0 0 0 0 0 0 0 0 0 
0 0 0 0 0 0 0 0 0 
0 0 0 0 0 0 0 0 0 
0 0 0 0 0 0 0 0 0 
0 0 0 0 0 0 0 0 0 
0 0 0 0 0 0 0 0 0 
0 0 0 0 0 0 0 0 0 
0 0 0 0 0 0 0 0 0 
0 0 0 0 0 0 0 0 0 
0 0 0 0 0 0 0 0 0 
0 0 0 0 0 0 0 0 0 
0 0 0 0 0 0 0 0 0 
0 0 0 0 0 0 0 0 0 
0 0 0 0 0 0 0 0 0 
0 0 0 0 0 0 0 0 0 
0 0 0 0 0 0 0 0 0 
0 0 0 0 0 0 0 0 0 
0 0 0 0 0 0 0 0 0 
0 0 0 0 0 0 0 0 0 
0 0 0 0 0 0 0 0 0 
0 0 0 0 0 0 0 0 0 
0 0 0 0 0 0 0 0 0 
0 0 0 0 0 0 0 0 0 
0 0 0 0 0 0 0 0 0 
0 0 0 0 0 0 0 0 0 
0 0 0 0 0 0 0 0 0 
0 0 0 0 0 0 0 0 0 
0 0 0 0 0 0 0 0 0 
0 0 0 0 0 0 0 0 0 
0 0 0 0 0 0 0 0 0 
0 0 0 0 0 0 0 0 0 
0 0 0 0 0 0 0 0 0 
0 0 0 0 0 0 0 0 0 
0 0 0 0 0 0 0 0 0 
0 0 0 0 0 0 0 0 0 
0 0 0 0 0 0 0 0 0 
0 0 0 0 0 0 0 0 0 
0 0 0 0 0 0 0 0 0 
0 0 0 0 0 0 0 0 0 
0 0 0 0 0 0 0 0 0 

fy_mag_viz 1 648 double
0 0 0 0 0 0 0 0 0 
0 0 0 0 0 0 0 0 0 
0 0 0 0 0 0 0 0 0 
0 0 0 0 0 0 0 0 0 
0 0 0 0 0 0 0 0 0 
0 0 0 0 0 0 0 0 0 
0 0 0 0 0 0 0 0 0 
0 0 0 0 0 0 0 0 0 
0 0 0 0 0 0 0 0 0 
0 0 0 0 0 0 0 0 0 
0 0 0 0 0 0 0 0 0 
0 0 0 0 0 0 0 0 0 
0 0 0 0 0 0 0 0 0 
0 0 0 0 0 0 0 0 0 
0 0 0 0 0 0 0 0 0 
0 0 0 0 0 0 0 0 0 
0 0 0 0 0 0 0 0 0 
0 0 0 0 0 0 0 0 0 
0 0 0 0 0 0 0 0 0 
0 0 0 0 0 0 0 0 0 
0 0 0 0 0 0 0 0 0 
0 0 0 0 0 0 0 0 0 
0 0 0 0 0 0 0 0 0 
0 0 0 0 0 0 0 0 0 
0 0 0 0 0 0 0 0 0 
0 0 0 0 0 0 0 0 0 
0 0 0 0 0 0 0 0 0 
0 0 0 0 0 0 0 0 0 
0 0 0 0 0 0 0 0 0 
0 0 0 0 0 0 0 0 0 
0 0 0 0 0 0 0 0 0 
0 0 0 0 0 0 0 0 0 
0 0 0 0 0 0 0 0 0 
0 0 0 0 0 0 0 0 0 
0 0 0 0 0 0 0 0 0 
0 0 0 0 0 0 0 0 0 
0 0 0 0 0 0 0 0 0 
0 0 0 0 0 0 0 0 0 
0 0 0 0 0 0 0 0 0 
0 0 0 0 0 0 0 0 0 
0 0 0 0 0 0 0 0 0 
0 0 0 0 0 0 0 0 0 
0 0 0 0 0 0 0 0 0 
0 0 0 0 0 0 0 0 0 
0 0 0 0 0 0 0 0 0 
0 0 0 0 0 0 0 0 0 
0 0 0 0 0 0 0 0 0 
0 0 0 0 0 0 0 0 0 
0 0 0 0 0 0 0 0 0 
0 0 0 0 0 0 0 0 0 
0 0 0 0 0 0 0 0 0 
0 0 0 0 0 0 0 0 0 
0 0 0 0 0 0 0 0 0 
0 0 0 0 0 0 0 0 0 
0 0 0 0 0 0 0 0 0 
0 0 0 0 0 0 0 0 0 
0 0 0 0 0 0 0 0 0 
0 0 0 0 0 0 0 0 0 
0 0 0 0 0 0 0 0 0 
0 0 0 0 0 0 0 0 0 
0 0 0 0 0 0 0 0 0 
0 0 0 0 0 0 0 0 0 
0 0 0 0 0 0 0 0 0 
0 0 0 0 0 0 0 0 0 
0 0 0 0 0 0 0 0 0 
0 0 0 0 0 0 0 0 0 
0 0 0 0 0 0 0 0 0 
0 0 0 0 0 0 0 0 0 
0 0 0 0 0 0 0 0 0 
0 0 0 0 0 0 0 0 0 
0 0 0 0 0 0 0 0 0 
0 0 0 0 0 0 0 0 0 

fz_mag_viz 1 648 double
0 0 0 0 0 0 0 0 0 
0 0 0 0 0 0 0 0 0 
0 0 0 0 0 0 0 0 0 
0 0 0 0 0 0 0 0 0 
0 0 0 0 0 0 0 0 0 
0 0 0 0 0 0 0 0 0 
0 0 0 0 0 0 0 0 0 
0 0 0 0 0 0 0 0 0 
0 0 0 0 0 0 0 0 0 
0 0 0 0 0 0 0 0 0 
0 0 0 0 0 0 0 0 0 
0 0 0 0 0 0 0 0 0 
0 0 0 0 0 0 0 0 0 
0 0 0 0 0 0 0 0 0 
0 0 0 0 0 0 0 0 0 
0 0 0 0 0 0 0 0 0 
0 0 0 0 0 0 0 0 0 
0 0 0 0 0 0 0 0 0 
0 0 0 0 0 0 0 0 0 
0 0 0 0 0 0 0 0 0 
0 0 0 0 0 0 0 0 0 
0 0 0 0 0 0 0 0 0 
0 0 0 0 0 0 0 0 0 
0 0 0 0 0 0 0 0 0 
0 0 0 0 0 0 0 0 0 
0 0 0 0 0 0 0 0 0 
0 0 0 0 0 0 0 0 0 
0 0 0 0 0 0 0 0 0 
0 0 0 0 0 0 0 0 0 
0 0 0 0 0 0 0 0 0 
0 0 0 0 0 0 0 0 0 
0 0 0 0 0 0 0 0 0 
0 0 0 0 0 0 0 0 0 
0 0 0 0 0 0 0 0 0 
0 0 0 0 0 0 0 0 0 
0 0 0 0 0 0 0 0 0 
0 0 0 0 0 0 0 0 0 
0 0 0 0 0 0 0 0 0 
0 0 0 0 0 0 0 0 0 
0 0 0 0 0 0 0 0 0 
0 0 0 0 0 0 0 0 0 
0 0 0 0 0 0 0 0 0 
0 0 0 0 0 0 0 0 0 
0 0 0 0 0 0 0 0 0 
0 0 0 0 0 0 0 0 0 
0 0 0 0 0 0 0 0 0 
0 0 0 0 0 0 0 0 0 
0 0 0 0 0 0 0 0 0 
0 0 0 0 0 0 0 0 0 
0 0 0 0 0 0 0 0 0 
0 0 0 0 0 0 0 0 0 
0 0 0 0 0 0 0 0 0 
0 0 0 0 0 0 0 0 0 
0 0 0 0 0 0 0 0 0 
0 0 0 0 0 0 0 0 0 
0 0 0 0 0 0 0 0 0 
0 0 0 0 0 0 0 0 0 
0 0 0 0 0 0 0 0 0 
0 0 0 0 0 0 0 0 0 
0 0 0 0 0 0 0 0 0 
0 0 0 0 0 0 0 0 0 
0 0 0 0 0 0 0 0 0 
0 0 0 0 0 0 0 0 0 
0 0 0 0 0 0 0 0 0 
0 0 0 0 0 0 0 0 0 
0 0 0 0 0 0 0 0 0 
0 0 0 0 0 0 0 0 0 
0 0 0 0 0 0 0 0 0 
0 0 0 0 0 0 0 0 0 
0 0 0 0 0 0 0 0 0 
0 0 0 0 0 0 0 0 0 
0 0 0 0 0 0 0 0 0 

B_magnitude 1 648 double
0 0 0 0 0 0 0 0 0 
0 0 0 0 0 0 0 0 0 
0 0 0 0 0 0 0 0 0 
0 0 0 0 0 0 0 0 0 
0 0 0 0 0 0 0 0 0 
0 0 0 0 0 0 0 0 0 
0 0 0 0 0 0 0 0 0 
0 0 0 0 0 0 0 0 0 
0 0 0 0 0 0 0 0 0 
0 0 0 0 0 0 0 0 0 
0 0 0 0 0 0 0 0 0 
0 0 0 0 0 0 0 0 0 
0 0 0 0 0 0 0 0 0 
0 0 0 0 0 0 0 0 0 
0 0 0 0 0 0 0 0 0 
0 0 0 0 0 0 0 0 0 
0 0 0 0 0 0 0 0 0 
0 0 0 0 0 0 0 0 0 
0 0 0 0 0 0 0 0 0 
0 0 0 0 0 0 0 0 0 
0 0 0 0 0 0 0 0 0 
0 0 0 0 0 0 0 0 0 
0 0 0 0 0 0 0 0 0 
0 0 0 0 0 0 0 0 0 
0 0 0 0 0 0 0 0 0 
0 0 0 0 0 0 0 0 0 
0 0 0 0 0 0 0 0 0 
0 0 0 0 0 0 0 0 0 
0 0 0 0 0 0 0 0 0 
0 0 0 0 0 0 0 0 0 
0 0 0 0 0 0 0 0 0 
0 0 0 0 0 0 0 0 0 
0 0 0 0 0 0 0 0 0 
0 0 0 0 0 0 0 0 0 
0 0 0 0 0 0 0 0 0 
0 0 0 0 0 0 0 0 0 
0 0 0 0 0 0 0 0 0 
0 0 0 0 0 0 0 0 0 
0 0 0 0 0 0 0 0 0 
0 0 0 0 0 0 0 0 0 
0 0 0 0 0 0 0 0 0 
0 0 0 0 0 0 0 0 0 
0 0 0 0 0 0 0 0 0 
0 0 0 0 0 0 0 0 0 
0 0 0 0 0 0 0 0 0 
0 0 0 0 0 0 0 0 0 
0 0 0 0 0 0 0 0 0 
0 0 0 0 0 0 0 0 0 
0 0 0 0 0 0 0 0 0 
0 0 0 0 0 0 0 0 0 
0 0 0 0 0 0 0 0 0 
0 0 0 0 0 0 0 0 0 
0 0 0 0 0 0 0 0 0 
0 0 0 0 0 0 0 0 0 
0 0 0 0 0 0 0 0 0 
0 0 0 0 0 0 0 0 0 
0 0 0 0 0 0 0 0 0 
0 0 0 0 0 0 0 0 0 
0 0 0 0 0 0 0 0 0 
0 0 0 0 0 0 0 0 0 
0 0 0 0 0 0 0 0 0 
0 0 0 0 0 0 0 0 0 
0 0 0 0 0 0 0 0 0 
0 0 0 0 0 0 0 0 0 
0 0 0 0 0 0 0 0 0 
0 0 0 0 0 0 0 0 0 
0 0 0 0 0 0 0 0 0 
0 0 0 0 0 0 0 0 0 
0 0 0 0 0 0 0 0 0 
0 0 0 0 0 0 0 0 0 
0 0 0 0 0 0 0 0 0 
0 0 0 0 0 0 0 0 0 

B_gradient_mag 1 648 double
0 0 0 0 0 0 0 0 0 
0 0 0 0 0 0 0 0 0 
0 0 0 0 0 0 0 0 0 
0 0 0 0 0 0 0 0 0 
0 0 0 0 0 0 0 0 0 
0 0 0 0 0 0 0 0 0 
0 0 0 0 0 0 0 0 0 
0 0 0 0 0 0 0 0 0 
0 0 0 0 0 0 0 0 0 
0 0 0 0 0 0 0 0 0 
0 0 0 0 0 0 0 0 0 
0 0 0 0 0 0 0 0 0 
0 0 0 0 0 0 0 0 0 
0 0 0 0 0 0 0 0 0 
0 0 0 0 0 0 0 0 0 
0 0 0 0 0 0 0 0 0 
0 0 0 0 0 0 0 0 0 
0 0 0 0 0 0 0 0 0 
0 0 0 0 0 0 0 0 0 
0 0 0 0 0 0 0 0 0 
0 0 0 0 0 0 0 0 0 
0 0 0 0 0 0 0 0 0 
0 0 0 0 0 0 0 0 0 
0 0 0 0 0 0 0 0 0 
0 0 0 0 0 0 0 0 0 
0 0 0 0 0 0 0 0 0 
0 0 0 0 0 0 0 0 0 
0 0 0 0 0 0 0 0 0 
0 0 0 0 0 0 0 0 0 
0 0 0 0 0 0 0 0 0 
0 0 0 0 0 0 0 0 0 
0 0 0 0 0 0 0 0 0 
0 0 0 0 0 0 0 0 0 
0 0 0 0 0 0 0 0 0 
0 0 0 0 0 0 0 0 0 
0 0 0 0 0 0 0 0 0 
0 0 0 0 0 0 0 0 0 
0 0 0 0 0 0 0 0 0 
0 0 0 0 0 0 0 0 0 
0 0 0 0 0 0 0 0 0 
0 0 0 0 0 0 0 0 0 
0 0 0 0 0 0 0 0 0 
0 0 0 0 0 0 0 0 0 
0 0 0 0 0 0 0 0 0 
0 0 0 0 0 0 0 0 0 
0 0 0 0 0 0 0 0 0 
0 0 0 0 0 0 0 0 0 
0 0 0 0 0 0 0 0 0 
0 0 0 0 0 0 0 0 0 
0 0 0 0 0 0 0 0 0 
0 0 0 0 0 0 0 0 0 
0 0 0 0 0 0 0 0 0 
0 0 0 0 0 0 0 0 0 
0 0 0 0 0 0 0 0 0 
0 0 0 0 0 0 0 0 0 
0 0 0 0 0 0 0 0 0 
0 0 0 0 0 0 0 0 0 
0 0 0 0 0 0 0 0 0 
0 0 0 0 0 0 0 0 0 
0 0 0 0 0 0 0 0 0 
0 0 0 0 0 0 0 0 0 
0 0 0 0 0 0 0 0 0 
0 0 0 0 0 0 0 0 0 
0 0 0 0 0 0 0 0 0 
0 0 0 0 0 0 0 0 0 
0 0 0 0 0 0 0 0 0 
0 0 0 0 0 0 0 0 0 
0 0 0 0 0 0 0 0 0 
0 0 0 0 0 0 0 0 0 
0 0 0 0 0 0 0 0 0 
0 0 0 0 0 0 0 0 0 
0 0 0 0 0 0 0 0 0 

