# vtk DataFile Version 5.1
Generated by LIGGGHTS
ASCII
DATASET POLYDATA
POINTS 648 float
0.0201641 -0.0426709 0.00146227 -0.0234086 -0.038644 0.0013993 -0.0350278 -0.0224863 0.00131173 
-0.0313057 -0.0141988 0.00126289 -0.042331 -0.00792816 0.00113173 -0.0150798 -0.00698339 0.00138898 
-0.0101373 -0.00698039 0.00138569 0.032558 0.00153523 0.00111192 -0.00883869 0.0381834 0.00138084 
-0.0317519 -0.0446953 0.00261195 0.0147823 -0.0446949 0.00190293 -0.0225361 -0.0441701 0.00119689 
0.0307351 -0.0355434 0.00109695 -0.0179089 -0.0346335 0.00279091 -8.23525e-05 -0.034098 0.00262513 
0.0403097 -0.0347888 0.00268639 -0.00682403 -0.0314098 0.00264674 0.010226 -0.0308634 0.00170994 
-0.0401314 -0.0280847 0.00196903 0.0156293 -0.0283842 0.00216832 -0.038621 -0.0229432 0.00171631 
0.0109547 -0.0235646 0.00163736 0.0134129 -0.0192809 0.00268746 0.0296492 -0.015918 0.00243917 
-0.00710141 -0.0133745 0.00263205 0.0347312 -0.012978 0.00197556 0.0218314 -0.00971151 0.00185676 
0.0127657 -0.00746761 0.00103861 -0.00720807 -0.00608605 0.00108481 0.0386193 -0.00496685 0.00110282 
-0.0395569 -0.00227866 0.00133962 0.00127443 -0.000618905 0.001988 -0.0332593 0.000859011 0.00216375 
-0.0349081 0.00917553 0.00171532 0.00978397 0.00922321 0.00257664 0.00418285 0.0112423 0.00170062 
-0.00831541 0.0129665 0.00190916 0.0440772 0.0154938 0.0026475 -0.0161548 0.0159009 0.0022636 
-0.00317984 0.0164631 0.0025411 0.0256029 0.0175394 0.00246514 -0.0436896 0.0195853 0.00161346 
-0.0138035 0.0240512 0.00195659 -0.0132251 0.0252506 0.002415 0.00834461 0.0278725 0.00168291 
-0.0260391 0.0304395 0.00227822 -0.0219587 0.0304934 0.00109465 -0.0359241 0.0337864 0.0021683 
-0.00472634 0.0344449 0.0024378 0.0132394 0.0345575 0.00197989 0.0281745 0.039089 0.00240335 
-0.0379532 0.0399341 0.00134283 -0.00785852 0.041878 0.00151928 0.0430506 0.0422314 0.00182961 
-0.0190394 0.0446837 0.00178903 -0.0389435 -0.0425966 0.00399735 -0.0169239 -0.0402939 0.00328467 
-0.0289295 -0.0389067 0.00286142 -0.00338111 -0.0363358 0.00230705 -0.00161929 -0.0353994 0.00292844 
0.0355384 -0.0354155 0.00324075 0.043014 -0.0343178 0.00365179 -0.0210092 -0.0320472 0.0034498 
0.023019 -0.0293484 0.00313244 0.0210005 -0.0239559 0.0033261 -0.0164034 -0.0216001 0.003997 
-0.0207996 -0.0190456 0.00386654 -0.0328213 -0.0176588 0.0038928 -0.0408642 -0.0154151 0.00387027 
-0.015814 -0.0152491 0.00385041 0.0375745 -0.0151367 0.00381226 0.00886689 -0.0141191 0.00391505 
-0.0253401 -0.0103599 0.00377067 -0.0136128 -0.00979682 0.00289719 -0.0211095 -0.00770044 0.00278425 
-0.0281455 -0.00127675 0.00285254 0.0420414 -0.00101026 0.00377965 -0.0261639 0.00337815 0.00281856 
-0.027449 0.00511055 0.00320994 -0.0406381 0.00555966 0.00288051 -0.0403489 0.00598291 0.00326957 
-0.01547 0.00642247 0.00337004 0.00789931 0.0136568 0.00346431 0.012949 0.0143048 0.00388076 
-0.0287818 0.014969 0.00308185 -0.0286532 0.0159811 0.00280411 -0.00443291 0.0160613 0.00311628 
-0.0193355 0.018129 0.00274271 -0.0363159 0.0185996 0.00307143 0.00757299 0.0192258 0.00383073 
0.0350116 0.0207306 0.00367281 -0.0436572 0.0238848 0.00363191 0.00264144 0.0247174 0.00307219 
0.0258603 0.0235991 0.00300251 -0.0214233 0.0285543 0.00331051 -0.014478 0.0275162 0.00262212 
0.0214431 0.0335886 0.00262665 -0.0407273 0.0358476 0.00340675 -0.00750544 0.0361316 0.00310776 
0.0170579 0.0421878 0.00393619 0.0211706 0.0445491 0.0040094 0.0416479 -0.0439733 0.00512208 
0.00849583 -0.0405939 0.00445553 -0.0195638 -0.0385913 0.00469741 0.0325128 -0.03812 0.0046339 
-0.0273176 -0.0361067 0.00449535 0.0195647 -0.0366528 0.00428638 0.0077947 -0.0345433 0.00517322 
0.0346336 -0.0325969 0.00359125 0.00231692 -0.0294453 0.00501928 -0.0346801 -0.0287009 0.00525455 
0.0164647 -0.0275391 0.00530869 0.0115492 -0.0227248 0.00478429 0.0272875 -0.0186725 0.0039337 
0.0132043 -0.01541 0.00517545 -0.0341597 -0.0122829 0.00526279 0.0253763 -0.011051 0.00497364 
-0.0131355 0.00164571 0.00419096 0.0189244 0.00254502 0.00526174 -0.0137512 0.00384646 0.00471754 
0.0332757 0.00539899 0.00531549 0.0358407 0.00533501 0.00485345 -0.0442311 0.00821601 0.00510914 
0.0324887 0.00836074 0.00410684 -0.0408306 0.00999374 0.00509292 0.00474506 0.0103043 0.00458205 
0.0234497 0.00978487 0.0051654 0.027557 0.009967 0.00498605 -0.00808524 0.0113378 0.00517825 
-0.0350204 0.0121089 0.00462889 -0.0408838 0.0159645 0.00491773 -0.0295899 0.0232577 0.00522786 
0.0434247 0.0295768 0.0040565 0.0040127 0.0314243 0.00436482 0.0337272 0.0324898 0.00495398 
0.00367032 0.0371324 0.00525359 -0.00647711 0.0391566 0.00470244 0.0114086 0.0440135 0.00436216 
0.0171919 0.0449185 0.00443804 0.0406519 -0.0427256 0.00585156 -0.0177803 -0.0340186 0.0061853 
0.0153133 -0.0285941 0.00623001 0.0347572 -0.0260666 0.00641238 0.0155599 -0.0240909 0.00605942 
0.0204492 -0.0194639 0.00616981 -0.0279963 -0.0141356 0.0053999 0.0144468 -0.013247 0.00642046 
-0.00528066 -0.0121118 0.00663321 0.0352883 -0.0103067 0.00572655 -0.00401126 -0.00720159 0.00653762 
0.0404774 -0.00688032 0.00638978 -0.0253129 -0.0039775 0.00605581 0.0448793 -0.00396119 0.00561554 
-0.0408474 -0.00214648 0.00641352 -0.0198668 -0.00211416 0.00662622 0.00664535 -0.00164817 0.00534382 
-0.0376932 -0.000132947 0.00613958 -0.0233311 0.00384073 0.00586517 0.0183943 0.00266245 0.00648542 
0.00533928 0.00728904 0.00589683 -0.019893 0.00878872 0.00568772 0.0211953 0.00966092 0.00658283 
-0.00071691 0.0108932 0.00559412 -0.0365733 0.0119208 0.00631694 0.00243185 0.0120975 0.00633505 
-0.0231109 0.0157017 0.00625827 -0.0122189 0.0175978 0.00553546 0.018015 0.0183735 0.00636812 
-0.023041 0.0197144 0.00634813 0.00742845 0.0199749 0.00645952 -0.0287332 0.0215601 0.00556662 
0.0362273 0.0220011 0.00600442 -0.0324762 0.0230005 0.0061195 0.0397191 0.0283771 0.00540227 
0.0380057 0.0324307 0.00549026 -0.0337286 0.0337045 0.00650535 0.0278529 0.0342296 0.00663066 
0.0030545 0.0369981 0.00594325 -0.0133259 0.0414802 0.00564136 -0.0390775 0.0447256 0.0055166 
-0.00396528 -0.0444182 0.00743892 0.0181024 -0.0433049 0.00752073 0.0195053 -0.043722 0.00723973 
-0.0136468 -0.0412372 0.0068312 -0.0309963 -0.0355024 0.00778255 -0.0161578 -0.0337243 0.00680274 
-0.0386911 -0.0311434 0.00666492 0.0449741 -0.0303513 0.00728106 0.0346338 -0.0290927 0.00693671 
-0.0430551 -0.0267583 0.00769254 0.0350196 -0.0250011 0.00694318 -0.00863888 -0.0237376 0.00760222 
0.00179778 -0.0247441 0.00676509 -0.0210835 -0.0209207 0.00690412 -0.0033641 -0.0204173 0.00685927 
0.0252581 -0.0163235 0.00653753 -0.00254943 -0.00825679 0.00701877 0.0387156 -0.00624884 0.00748991 
0.0131353 -0.00504642 0.00669674 0.0200271 -0.00425623 0.00694674 -0.0120059 -0.00345367 0.00775231 
0.0168839 -0.00210364 0.00716892 -0.0153419 -0.00108619 0.0071221 0.0140084 -6.89735e-05 0.00784681 
-0.0325416 0.00283857 0.00704872 -0.025141 0.00447188 0.00698075 0.0260144 0.00429017 0.00722959 
-0.0429246 0.00657681 0.00679724 -0.00598638 0.00689803 0.00742714 0.0110904 0.00657535 0.00702442 
-0.0105861 0.00898083 0.00792937 0.0407412 0.0174253 0.00736379 -0.0148746 0.0223253 0.00785051 
-0.0267196 0.0236159 0.00666024 -0.0128609 0.0265935 0.00675502 0.0395905 0.0272142 0.00696207 
-0.0127911 0.0299546 0.00720583 0.026696 0.03017 0.00734086 0.0191028 0.0315895 0.00729448 
0.0372507 0.0318783 0.00727528 -0.0425374 0.0333781 0.00695767 0.00727395 0.0332762 0.00723111 
-0.00196307 0.0366495 0.00739358 0.00888594 0.0360502 0.00685253 -0.039126 0.0399637 0.00727209 
0.00201585 0.0404036 0.00752674 0.0294278 0.0431452 0.00664931 0.00528787 0.0432844 0.0078893 
0.0405446 0.0433429 0.00790336 0.0131812 -0.0427533 0.00881467 0.0348044 -0.042095 0.00831506 
0.0418836 -0.0421436 0.00879282 0.0166138 -0.0412108 0.00805796 -0.018434 -0.0405477 0.00866264 
0.040047 -0.0404588 0.00847138 -0.0108246 -0.0388127 0.008613 0.00985621 -0.0367022 0.00871368 
-0.0168273 -0.0360331 0.00812766 0.000822496 -0.0363122 0.00898301 -0.0233761 -0.031813 0.00845244 
-0.0220587 -0.0306349 0.0083481 -0.0414327 -0.0290659 0.00828955 0.00558373 -0.0242787 0.00854775 
-0.0127621 -0.0231756 0.00850525 0.0240101 -0.0228809 0.00814974 0.035159 -0.023363 0.0082394 
-0.0225401 -0.0213878 0.00857595 0.0233461 -0.0214624 0.00823806 -0.0296942 -0.0196153 0.00872753 
0.0363266 -0.0194176 0.00909065 -0.0147645 -0.0165889 0.0080078 0.038292 -0.016257 0.00833329 
0.0323803 -0.0150629 0.00867171 -0.0327621 -0.0121928 0.00877011 0.0313953 -0.00974065 0.00814539 
0.0334462 -0.00930086 0.00799577 -0.0344646 -0.00725539 0.00820088 -0.00747582 -0.00609419 0.00872693 
-0.040885 -0.00406647 0.00816022 0.0180458 -0.00470109 0.00817612 -0.0107529 -0.00365687 0.00842223 
-0.00941413 -0.00330341 0.00806872 0.00975646 -0.00313231 0.00879852 -0.00896956 -0.00131708 0.00905231 
-0.0283489 -0.000417126 0.00815834 0.0290986 -0.000251763 0.00858279 0.0116524 0.00206193 0.00917379 
0.00243665 0.00282786 0.0083248 -0.009285 0.00693532 0.00817921 0.0283387 0.00890506 0.00826877 
-0.0101256 0.00978275 0.00905944 0.0197977 0.00963841 0.0087088 0.00861143 0.0123591 0.00827817 
-0.00841171 0.0143034 0.00856395 0.0311878 0.014057 0.00876273 0.0396593 0.013993 0.00818491 
0.0441199 0.0136981 0.00892809 -0.00307286 0.0144526 0.00879783 0.000954082 0.0152563 0.00800226 
0.0121458 0.0151918 0.00818098 -0.0122989 0.0222019 0.00838927 0.0398418 0.0217469 0.00799938 
0.00126512 0.0228658 0.00884815 0.021223 0.0244832 0.00894475 0.0438582 0.0244724 0.00834179 
-0.0409258 0.0305044 0.00831829 -0.0108954 0.0304 0.00808347 0.00372347 0.0304157 0.00837369 
0.00390562 0.0317225 0.0080765 0.0193546 0.0324404 0.00908856 0.0231674 0.0340949 0.0080849 
-0.00973825 0.0391656 0.00855695 -0.00585061 0.0388609 0.0089 0.0238959 0.0383247 0.00883916 
0.0222253 0.0407186 0.00832654 0.0352701 0.0439749 0.00880081 -0.0428902 -0.0449088 0.0102224 
-0.044759 -0.0437614 0.00974337 0.0145521 -0.0432303 0.00990442 -0.0248654 -0.0427111 0.0104804 
-0.0349861 -0.0412827 0.00965777 0.000425919 -0.0415728 0.00997616 -0.00302782 -0.0385948 0.0103115 
0.00798734 -0.0367051 0.009756 0.023158 -0.0340207 0.00942224 0.0244271 -0.0334586 0.00955668 
-0.0376897 -0.0314333 0.00955407 -0.0262624 -0.032473 0.0100087 -0.0232422 -0.0321576 0.00976907 
0.00802514 -0.031483 0.0100027 -0.0266532 -0.0301716 0.0103404 -0.0105296 -0.0314142 0.00989577 
-0.0448384 -0.0296834 0.00998326 -0.0263426 -0.0292431 0.00946229 0.0306875 -0.0259396 0.00925362 
0.032808 -0.025967 0.00955528 0.033456 -0.0256735 0.00988901 0.0394323 -0.021923 0.0101439 
0.0436787 -0.0219137 0.00983258 -0.00827992 -0.020547 0.00926754 0.00548761 -0.0197918 0.00985891 
0.0336491 -0.0197505 0.0100789 -0.0108877 -0.0188832 0.00996517 -0.0317771 -0.0175651 0.00951854 
0.0404767 -0.0183151 0.0103345 0.0223879 -0.0163393 0.00986636 0.0198229 -0.0156851 0.00968956 
-0.0186412 -0.0134353 0.00933782 0.0403752 -0.0143085 0.010178 0.0277003 -0.0107969 0.00994815 
-0.0222502 -0.00974669 0.00934674 0.0242571 -0.0100823 0.00988639 0.0350526 -0.0102353 0.0100838 
0.0406218 -0.0100941 0.00981198 -0.00553214 -0.00871323 0.0100538 -0.0198564 -0.00683511 0.00986056 
0.0161928 -0.00760918 0.00928359 -0.0129003 -0.00574839 0.00978361 0.00523139 -0.00599236 0.0103444 
-0.0179231 -0.00300678 0.00974129 -0.00783961 -0.000387029 0.010066 -0.00702036 -0.00121172 0.0103392 
0.0384376 0.000848974 0.00975385 0.0407777 0.000744206 0.0100861 -0.00967086 0.00179773 0.0101876 
0.00417698 0.0024455 0.00992302 0.0292006 0.00433004 0.00998959 0.0305447 0.00486582 0.00992058 
0.0323225 0.00436429 0.00953085 0.0404406 0.00462082 0.010101 -0.0287984 0.00559412 0.0099332 
-0.0170872 0.00564833 0.00953785 0.0011249 0.00615697 0.00960862 0.021602 0.00540593 0.00980081 
0.0228765 0.00606581 0.010306 0.0250346 0.00641518 0.00977926 -0.0426568 0.00723228 0.00994971 
-0.0392616 0.00972366 0.00944529 0.0399323 0.0117688 0.00967852 -0.00279986 0.0127222 0.0104119 
0.0128044 0.0127337 0.0104747 -0.034865 0.0142961 0.0098065 -0.00867948 0.0139924 0.00974104 
0.0143092 0.0139794 0.0102892 0.0248423 0.0143007 0.00995573 0.0287781 0.014071 0.00985044 
-0.0196462 0.0155185 0.00979455 0.0418335 0.0161761 0.0103061 -0.0360536 0.0173104 0.00992111 
0.0215224 0.0171285 0.010086 -0.0214239 0.0189608 0.00940121 -0.0153727 0.020636 0.00989257 
-0.0282566 0.021284 0.00995724 0.0123926 0.0218243 0.00985995 -0.0421793 0.0225172 0.0102259 
0.0167463 0.0251763 0.0102172 0.0226957 0.0260881 0.00941803 -0.0190887 0.0269029 0.010273 
-0.0406313 0.0295913 0.00902496 -0.0376379 0.0294143 0.0102768 0.00519606 0.0301696 0.00974501 
0.0444958 0.0309554 0.0103992 0.00317215 0.0343196 0.00985286 0.00284552 0.0345861 0.00973188 
-0.0245447 0.0378537 0.00927454 -0.0312382 0.0393096 0.00956384 0.0251972 0.0393087 0.0103852 
0.0163992 0.0415262 0.0100618 -0.0181988 0.0434549 0.0100805 0.0352379 0.0438995 0.00991047 
-0.0346971 -0.0446764 0.0107036 -0.00340304 -0.0448428 0.0113167 -0.027409 -0.0433703 0.0115793 
0.0248068 -0.0428986 0.0106805 0.0238162 -0.0409762 0.0108711 0.0414821 -0.0410789 0.0111485 
0.0424299 -0.0409921 0.0109463 -0.0406141 -0.0405112 0.0102446 -0.00670669 -0.0394183 0.0114735 
0.0156715 -0.0391733 0.0109665 0.0397687 -0.0374633 0.010537 -0.0177429 -0.0346724 0.0105145 
0.00879071 -0.0344865 0.0116046 -0.0427235 -0.0332389 0.0117451 -0.0240024 -0.0280603 0.0116166 
0.00577088 -0.0287415 0.0109185 -0.00580099 -0.0272788 0.0116628 0.03382 -0.0268981 0.0106118 
-0.0338231 -0.0250135 0.0113145 0.00538025 -0.0241403 0.0110493 0.0102479 -0.024092 0.0110902 
-0.0408326 -0.0234295 0.0110712 -0.0204621 -0.0172006 0.0112501 0.0030191 -0.0179247 0.0106767 
0.0249316 -0.014475 0.0116352 0.00689113 -0.0107816 0.0105283 -0.0196799 -0.00931279 0.0110385 
-0.0135858 -0.00672635 0.0114419 0.00937085 -0.00418454 0.0107315 -0.0416237 0.00110806 0.0106377 
0.0147261 0.00139147 0.0114701 0.0362421 0.00170773 0.0109855 -0.037077 0.00611456 0.0114445 
-0.00723413 0.00605583 0.0111628 0.0101693 0.00555192 0.0106827 0.0212596 0.00979192 0.0104563 
0.0261916 0.0119357 0.0105399 -0.0429188 0.0135204 0.0116797 -0.0310202 0.0131063 0.010629 
8.23501e-07 0.0138406 0.011237 0.0336082 0.013194 0.0114791 0.0122157 0.0191756 0.0106571 
0.0388885 0.0193682 0.0110509 -0.0431379 0.0208085 0.0117131 -0.0349287 0.0230684 0.0111327 
0.03506 0.0228899 0.010909 -0.0114472 0.026715 0.0117386 0.00953871 0.0271324 0.0116722 
0.0297434 0.0373158 0.0114128 0.0311732 0.0371467 0.0105479 0.0165329 0.0385374 0.0108277 
-0.0375088 0.0393741 0.0109371 0.0399235 0.0434757 0.0114767 -0.0334706 -0.0396012 0.012765 
0.0244803 -0.0401788 0.012159 -0.0370475 -0.0370945 0.0127263 -0.0439713 -0.0357399 0.0126694 
0.00594186 -0.0351889 0.0129367 0.027474 -0.0338615 0.0121367 0.00623721 -0.0211799 0.0121253 
0.00156248 -0.0194187 0.0130768 -0.0426154 -0.0165053 0.0129112 -0.0339565 -0.0167518 0.0129587 
0.0268005 -0.0146468 0.0121265 -0.0329121 -0.0139828 0.0123635 0.0176437 -0.0119747 0.0120766 
0.0251729 -0.00985964 0.0123059 -0.0304645 -0.00701594 0.0118244 -0.042786 -0.00359954 0.0118842 
-0.0260142 0.00017485 0.0129785 0.0188762 0.00181355 0.01289 0.030759 0.00580352 0.0121619 
0.0142017 0.0079404 0.0119971 0.0202046 0.00840095 0.0119208 0.014866 0.0127598 0.0123043 
0.00517921 0.0169249 0.0130573 0.00976298 0.0163696 0.0126682 0.0226738 0.0181095 0.0123343 
0.00395304 0.0187088 0.0121931 0.00128112 0.0217131 0.0119068 0.0146363 0.0223077 0.0118778 
-0.0386663 0.0253433 0.0125696 -0.00739359 0.0259593 0.0123297 -0.0267569 0.0263983 0.0125552 
-0.0357156 0.0282031 0.012196 0.0191509 0.0299648 0.0122741 -0.0313244 0.0314049 0.0127804 
0.0038092 0.0311583 0.0130634 -0.00435696 0.0325462 0.0122234 0.01325 0.0319187 0.0130501 
-0.041477 0.0364172 0.0127358 -0.0112537 0.0395394 0.0124297 -0.0390027 0.0421086 0.0119273 
0.00805094 0.0422278 0.0118837 -0.0205282 0.0432397 0.012309 -0.0335565 -0.0442122 0.0131429 
-0.0308094 -0.0435702 0.0135927 -0.00674967 -0.0416523 0.0133174 -0.042922 -0.0404536 0.0133242 
-0.0248652 -0.040212 0.0131989 0.0308099 -0.0378456 0.0133199 0.0333162 -0.0342631 0.0133389 
0.0268369 -0.0315202 0.0137755 0.0280204 -0.0311414 0.0134387 0.0392765 -0.0300093 0.0130881 
0.000892701 -0.0263701 0.0133569 -0.0139777 -0.0223984 0.0126774 0.039775 -0.0211058 0.0133041 
-0.0100897 -0.0180162 0.0139103 0.0282033 -0.0178095 0.0131102 -0.0257955 -0.0157834 0.0133694 
-0.00444012 -0.0151621 0.0133225 -0.0388614 -0.0136303 0.0131413 -0.0117656 -0.0138394 0.0132538 
-0.038829 -0.00978443 0.0134203 -0.0112192 -0.0104501 0.0134534 0.00743742 -0.00926665 0.0133314 
0.013874 -0.00963069 0.0140896 0.0286804 -0.00919085 0.0133265 0.0109664 -0.00760095 0.013474 
0.021323 -0.00444137 0.013536 -0.0141425 -0.00311887 0.0133417 0.0449494 0.00392273 0.0133082 
0.0246705 0.0064451 0.0132245 0.0221269 0.00728552 0.0134272 0.0340899 0.00882812 0.0135053 
-0.0408092 0.00981999 0.0139862 -0.0214351 0.00957734 0.0134021 0.0398091 0.011618 0.0136886 
0.00546842 0.0177814 0.0126264 0.0090081 0.0191686 0.0131553 -0.022709 0.0198803 0.013373 
0.0307708 0.0242663 0.0131848 -0.00563177 0.0268155 0.013662 -0.0200898 0.0311527 0.013175 
0.0364634 0.0310238 0.0133751 -0.0073504 0.0318329 0.0137372 -0.0264781 0.032823 0.0133394 
0.0221021 0.0401282 0.0132583 -0.00586029 -0.0338127 0.0140108 -0.0396817 -0.0304797 0.014805 
-0.0432264 -0.0264101 0.0151362 -0.0240719 -0.0268296 0.014407 0.0184681 -0.0172117 0.0140833 
-0.0269092 -0.0125643 0.0146332 0.0322358 -0.0130621 0.0149572 -0.0214415 -0.007536 0.0154379 
-0.00433253 -0.00676057 0.0150364 0.0129906 -0.00677597 0.0140583 0.0180565 -0.00487531 0.0150645 
-0.000610522 -0.00103491 0.0147742 0.039455 -0.000236508 0.0152877 -0.0394276 0.0109375 0.0147323 
-0.00782209 0.0241861 0.0151173 0.0181332 0.0246356 0.0155538 0.000162142 0.0251126 0.0154669 
0.0054016 -0.025334 0.0164687 -0.0323128 -0.0219837 0.0153476 -0.0291427 -0.0219343 0.016376 
-0.0152062 0.0294088 0.0158403 -0.00552594 0.00555795 0.0172913 0.00976854 0.0197772 0.0164688 
0.0338942 -0.0410147 0.0197681 -0.0227164 -0.0141288 0.02004 0.023953 0.00820576 0.0199703 
-0.0343844 -0.0078404 0.0205486 -0.0160452 -0.0323821 0.0227479 -0.0405162 -0.0161033 0.022028 
0.0293019 -0.00298432 0.0221497 0.0133448 0.00646544 0.0227365 0.0433459 -0.0353282 0.0249353 
0.0218308 -0.0192565 0.0251661 0.0275881 -0.00673863 0.0246335 -0.00229178 0.0020129 0.0244894 
-0.0183202 -0.0175475 0.0260296 0.0323804 -0.0132471 0.0258114 -0.0422696 0.0340949 0.0258512 
0.0414517 -0.0114994 0.0270958 0.00264867 -0.0338128 0.0290128 0.0262592 -0.0217201 0.0286769 
0.00153271 0.0201988 0.0291068 -0.032208 0.0306075 0.0286915 0.0262096 -0.0449372 0.0300867 
0.0412685 -0.0295104 0.030165 -0.00474481 -0.00600267 0.0296404 0.0101031 -0.0273014 0.0312383 
0.0277548 0.0042931 0.0315014 0.0354139 0.0312817 0.0319184 0.012585 0.0155082 0.0323069 
-0.00446216 -0.0255279 0.0340256 -0.0368667 0.0306348 0.0339949 0.0152528 0.033152 0.0334806 
0.00314898 0.00491531 0.0358405 -0.0393221 -0.0167834 0.0370283 0.0342493 -0.0115037 0.0367914 
-0.0102477 0.0267602 0.0367474 -0.0207563 -0.0111167 0.0381025 0.0223025 -0.0112244 0.0376173 
-0.0449336 -0.00957357 0.0378673 -0.0326334 -0.00963456 0.0375804 -0.0213481 0.0319153 0.0382575 
0.0439232 0.0371117 0.0384653 -0.0160353 0.0448572 0.0388822 0.0339316 -0.041715 0.0401498 
0.0302919 -0.0148257 0.0410387 0.00265626 0.00371614 0.0403862 0.0153641 0.0146287 0.0401618 
-0.0269229 0.0267788 0.0407007 0.0164577 0.0353116 0.0402977 0.00513794 0.0433856 0.0401872 
0.0114764 0.0140289 0.0416791 -0.0328109 -0.0226975 0.0425722 -0.0329608 -0.0218045 0.0442584 
-0.024842 -0.00884532 0.0447419 -0.0336946 -0.0248459 0.0463738 -0.0371624 0.011326 0.0454867 
-0.0281804 0.0418824 0.0452273 0.0320014 0.00756294 0.0466574 0.0323341 0.0191974 0.0470235 
-0.0420316 -0.0145538 0.0489302 0.0185094 -0.042363 0.0498068 0.0414834 -0.0181367 0.0493031 
-0.0440308 0.0448256 0.0502989 0.0341086 -0.0368686 0.0514101 -0.0386256 -0.00983966 0.0510763 
0.0379188 0.0120326 0.0513989 -0.015788 -0.0282898 0.0537959 -0.0437633 0.0406561 0.0531635 
0.0289145 -0.0340196 0.0548154 -0.0419519 -0.0259749 0.0546482 0.0154702 -0.00154679 0.0556079 
-0.0144089 0.0201081 0.0564852 0.0104707 0.0313218 0.0581332 0.00357123 -0.00830953 0.0605559 
-0.0356048 -0.000104637 0.0601956 -0.0197415 0.0344175 0.0612103 0.00635633 0.000852437 0.0626488 
-0.0385899 -0.0405251 0.0645405 0.0414788 -0.00521487 0.0639884 -0.0296003 0.0277025 0.064201 
-0.0245993 0.0193658 0.0650831 -0.0170112 0.0231088 0.0647421 0.0131273 0.040817 0.0655799 
-0.00521279 -0.0413279 0.0667465 0.0419483 -0.0348097 0.0664111 0.00308146 0.0401468 0.06623 
0.0282359 -0.00877456 0.0690645 -0.0081225 0.0151775 0.0689499 -0.0155539 0.0359545 0.069692 
-0.0256005 0.0215871 0.0710422 0.0433204 -0.0141837 0.0713837 -0.00757157 0.00454821 0.0733824 
0.0188903 -0.0308528 0.0775006 -0.0207679 -0.0256315 0.0786402 0.00643655 -0.000956063 0.0781309 
0.00741479 -0.0295782 0.0802684 0.00347554 0.00338662 0.0798933 -0.00254916 -0.00379952 0.0825038 

VERTICES 649 648
OFFSETS vtktypeint64
0 1 2 3 4 5 6 7 8 
9 10 11 12 13 14 15 16 17 
18 19 20 21 22 23 24 25 26 
27 28 29 30 31 32 33 34 35 
36 37 38 39 40 41 42 43 44 
45 46 47 48 49 50 51 52 53 
54 55 56 57 58 59 60 61 62 
63 64 65 66 67 68 69 70 71 
72 73 74 75 76 77 78 79 80 
81 82 83 84 85 86 87 88 89 
90 91 92 93 94 95 96 97 98 
99 100 101 102 103 104 105 106 107 
108 109 110 111 112 113 114 115 116 
117 118 119 120 121 122 123 124 125 
126 127 128 129 130 131 132 133 134 
135 136 137 138 139 140 141 142 143 
144 145 146 147 148 149 150 151 152 
153 154 155 156 157 158 159 160 161 
162 163 164 165 166 167 168 169 170 
171 172 173 174 175 176 177 178 179 
180 181 182 183 184 185 186 187 188 
189 190 191 192 193 194 195 196 197 
198 199 200 201 202 203 204 205 206 
207 208 209 210 211 212 213 214 215 
216 217 218 219 220 221 222 223 224 
225 226 227 228 229 230 231 232 233 
234 235 236 237 238 239 240 241 242 
243 244 245 246 247 248 249 250 251 
252 253 254 255 256 257 258 259 260 
261 262 263 264 265 266 267 268 269 
270 271 272 273 274 275 276 277 278 
279 280 281 282 283 284 285 286 287 
288 289 290 291 292 293 294 295 296 
297 298 299 300 301 302 303 304 305 
306 307 308 309 310 311 312 313 314 
315 316 317 318 319 320 321 322 323 
324 325 326 327 328 329 330 331 332 
333 334 335 336 337 338 339 340 341 
342 343 344 345 346 347 348 349 350 
351 352 353 354 355 356 357 358 359 
360 361 362 363 364 365 366 367 368 
369 370 371 372 373 374 375 376 377 
378 379 380 381 382 383 384 385 386 
387 388 389 390 391 392 393 394 395 
396 397 398 399 400 401 402 403 404 
405 406 407 408 409 410 411 412 413 
414 415 416 417 418 419 420 421 422 
423 424 425 426 427 428 429 430 431 
432 433 434 435 436 437 438 439 440 
441 442 443 444 445 446 447 448 449 
450 451 452 453 454 455 456 457 458 
459 460 461 462 463 464 465 466 467 
468 469 470 471 472 473 474 475 476 
477 478 479 480 481 482 483 484 485 
486 487 488 489 490 491 492 493 494 
495 496 497 498 499 500 501 502 503 
504 505 506 507 508 509 510 511 512 
513 514 515 516 517 518 519 520 521 
522 523 524 525 526 527 528 529 530 
531 532 533 534 535 536 537 538 539 
540 541 542 543 544 545 546 547 548 
549 550 551 552 553 554 555 556 557 
558 559 560 561 562 563 564 565 566 
567 568 569 570 571 572 573 574 575 
576 577 578 579 580 581 582 583 584 
585 586 587 588 589 590 591 592 593 
594 595 596 597 598 599 600 601 602 
603 604 605 606 607 608 609 610 611 
612 613 614 615 616 617 618 619 620 
621 622 623 624 625 626 627 628 629 
630 631 632 633 634 635 636 637 638 
639 640 641 642 643 644 645 646 647 
648 
CONNECTIVITY vtktypeint64
0 1 2 3 4 5 6 7 8 
9 10 11 12 13 14 15 16 17 
18 19 20 21 22 23 24 25 26 
27 28 29 30 31 32 33 34 35 
36 37 38 39 40 41 42 43 44 
45 46 47 48 49 50 51 52 53 
54 55 56 57 58 59 60 61 62 
63 64 65 66 67 68 69 70 71 
72 73 74 75 76 77 78 79 80 
81 82 83 84 85 86 87 88 89 
90 91 92 93 94 95 96 97 98 
99 100 101 102 103 104 105 106 107 
108 109 110 111 112 113 114 115 116 
117 118 119 120 121 122 123 124 125 
126 127 128 129 130 131 132 133 134 
135 136 137 138 139 140 141 142 143 
144 145 146 147 148 149 150 151 152 
153 154 155 156 157 158 159 160 161 
162 163 164 165 166 167 168 169 170 
171 172 173 174 175 176 177 178 179 
180 181 182 183 184 185 186 187 188 
189 190 191 192 193 194 195 196 197 
198 199 200 201 202 203 204 205 206 
207 208 209 210 211 212 213 214 215 
216 217 218 219 220 221 222 223 224 
225 226 227 228 229 230 231 232 233 
234 235 236 237 238 239 240 241 242 
243 244 245 246 247 248 249 250 251 
252 253 254 255 256 257 258 259 260 
261 262 263 264 265 266 267 268 269 
270 271 272 273 274 275 276 277 278 
279 280 281 282 283 284 285 286 287 
288 289 290 291 292 293 294 295 296 
297 298 299 300 301 302 303 304 305 
306 307 308 309 310 311 312 313 314 
315 316 317 318 319 320 321 322 323 
324 325 326 327 328 329 330 331 332 
333 334 335 336 337 338 339 340 341 
342 343 344 345 346 347 348 349 350 
351 352 353 354 355 356 357 358 359 
360 361 362 363 364 365 366 367 368 
369 370 371 372 373 374 375 376 377 
378 379 380 381 382 383 384 385 386 
387 388 389 390 391 392 393 394 395 
396 397 398 399 400 401 402 403 404 
405 406 407 408 409 410 411 412 413 
414 415 416 417 418 419 420 421 422 
423 424 425 426 427 428 429 430 431 
432 433 434 435 436 437 438 439 440 
441 442 443 444 445 446 447 448 449 
450 451 452 453 454 455 456 457 458 
459 460 461 462 463 464 465 466 467 
468 469 470 471 472 473 474 475 476 
477 478 479 480 481 482 483 484 485 
486 487 488 489 490 491 492 493 494 
495 496 497 498 499 500 501 502 503 
504 505 506 507 508 509 510 511 512 
513 514 515 516 517 518 519 520 521 
522 523 524 525 526 527 528 529 530 
531 532 533 534 535 536 537 538 539 
540 541 542 543 544 545 546 547 548 
549 550 551 552 553 554 555 556 557 
558 559 560 561 562 563 564 565 566 
567 568 569 570 571 572 573 574 575 
576 577 578 579 580 581 582 583 584 
585 586 587 588 589 590 591 592 593 
594 595 596 597 598 599 600 601 602 
603 604 605 606 607 608 609 610 611 
612 613 614 615 616 617 618 619 620 
621 622 623 624 625 626 627 628 629 
630 631 632 633 634 635 636 637 638 
639 640 641 642 643 644 645 646 647 

POINT_DATA 648
FIELD FieldData 12
id 1 648 int
203 173 526 306 95 522 39 538 559 
242 241 230 492 402 388 69 398 283 
502 120 37 192 44 422 490 259 101 
27 224 133 382 365 389 400 497 464 
262 358 468 473 118 152 97 131 509 
269 419 494 387 391 536 249 277 19 
172 258 99 312 67 159 344 47 307 
103 234 160 177 274 143 374 194 441 
23 264 511 542 80 519 284 503 501 
245 46 41 48 228 220 184 485 443 
33 191 520 507 209 369 235 309 452 
434 438 31 136 210 359 82 436 489 
543 139 354 445 449 516 376 380 340 
499 77 300 126 153 316 145 453 338 
296 480 442 181 315 254 114 332 180 
482 413 302 55 471 350 147 430 71 
448 276 460 43 3 42 368 285 50 
360 405 135 204 212 305 426 124 420 
221 345 273 70 7 117 521 281 138 
529 130 179 466 348 421 182 361 476 
89 346 93 68 487 156 333 352 294 
128 335 493 116 403 25 553 260 299 
515 105 257 371 217 265 334 56 379 
301 213 528 144 392 325 109 266 461 
504 268 481 94 455 225 232 286 523 
123 108 342 272 414 140 218 52 35 
508 34 102 226 24 239 250 393 79 
416 323 329 64 472 479 238 462 170 
74 146 157 38 53 243 567 252 171 
142 20 151 205 341 208 244 425 129 
288 255 401 17 395 363 63 202 469 
308 431 279 394 78 206 506 343 201 
148 65 251 320 45 328 62 397 164 
463 84 113 562 591 92 115 51 347 
477 303 404 505 304 185 137 295 121 
267 190 111 317 174 28 470 154 439 
355 444 168 59 211 292 227 1 293 
311 324 72 278 383 377 57 132 66 
465 196 36 175 418 458 216 141 407 
478 456 396 467 474 450 261 432 60 
378 297 119 150 491 310 178 40 433 
339 110 166 49 18 287 195 163 498 
524 451 81 327 313 85 437 318 386 
412 375 475 275 98 188 390 429 207 
271 549 314 459 122 518 319 229 96 
331 409 183 415 484 223 282 298 289 
240 106 248 32 370 75 90 61 495 
486 546 214 446 384 169 322 236 447 
161 357 330 219 30 199 362 198 246 
76 351 256 326 411 22 367 589 167 
440 496 73 290 500 349 427 399 263 
83 186 454 424 112 21 193 15 54 
417 337 104 100 162 408 410 321 488 
158 222 29 233 155 372 91 406 366 
200 457 134 87 356 88 5 107 533 
291 513 237 247 517 176 381 58 215 
16 231 428 127 483 336 125 385 86 
353 423 165 4 197 373 587 364 149 
189 280 187 26 253 270 435 571 525 
527 13 551 8 566 10 6 580 11 
564 2 601 14 12 9 532 576 547 
540 545 514 577 612 510 563 570 572 
592 512 605 558 615 565 539 530 550 
638 616 573 561 596 534 548 557 645 
613 623 560 604 594 579 593 618 628 
535 585 599 554 617 583 531 614 597 
537 598 622 637 552 586 633 541 578 
569 581 595 555 556 607 590 635 603 
639 626 544 620 629 575 634 574 610 
625 611 608 568 600 630 648 647 609 
582 588 606 632 584 643 602 619 624 
646 644 631 636 627 621 640 641 642 

type 1 648 int
1 1 1 1 1 1 1 1 1 
1 1 1 1 1 1 1 1 1 
1 1 1 1 1 1 1 1 1 
1 1 1 1 1 1 1 1 1 
1 1 1 1 1 1 1 1 1 
1 1 1 1 1 1 1 1 1 
1 1 1 1 1 1 1 1 1 
1 1 1 1 1 1 1 1 1 
1 1 1 1 1 1 1 1 1 
1 1 1 1 1 1 1 1 1 
1 1 1 1 1 1 1 1 1 
1 1 1 1 1 1 1 1 1 
1 1 1 1 1 2 1 1 1 
1 1 1 1 1 1 1 1 1 
1 1 1 1 1 1 1 1 1 
1 1 1 1 1 1 1 1 1 
1 1 1 1 2 1 1 1 1 
1 1 1 1 1 1 1 1 1 
1 1 1 1 2 1 1 1 1 
1 1 1 1 1 1 1 1 1 
1 1 1 1 1 1 1 1 1 
1 1 1 1 1 1 1 1 1 
1 1 1 1 1 1 1 1 1 
1 1 1 1 1 1 1 1 1 
1 1 1 1 1 1 1 1 1 
1 1 1 1 1 1 1 1 1 
1 1 1 1 1 1 1 1 1 
1 1 1 1 1 1 1 1 1 
1 1 1 1 1 1 1 1 1 
1 1 1 1 1 1 1 1 1 
1 1 1 1 1 1 1 1 1 
1 1 1 1 1 1 1 1 1 
1 1 1 1 1 1 1 1 1 
1 1 1 1 1 1 1 1 1 
1 1 1 1 1 1 1 1 1 
1 1 1 1 1 1 1 1 1 
1 1 1 1 1 1 1 4 1 
1 1 1 1 1 1 1 1 1 
1 1 1 1 1 1 1 1 1 
1 1 1 1 1 1 1 1 1 
1 1 1 1 1 1 1 1 1 
1 1 1 1 1 1 1 1 1 
1 1 1 1 1 1 1 1 1 
1 1 1 1 1 1 1 1 1 
1 1 1 1 1 1 1 1 1 
1 1 1 1 1 1 1 1 1 
1 1 1 1 1 1 1 1 1 
1 1 1 1 1 1 1 1 1 
1 1 1 1 1 1 1 1 1 
1 1 1 1 1 1 1 1 1 
1 1 1 1 1 1 1 1 1 
1 1 1 1 1 1 1 2 1 
1 1 1 1 1 1 1 1 1 
1 1 1 1 1 1 1 1 1 
1 1 1 1 1 1 2 1 1 
1 1 1 1 1 1 1 1 1 
2 1 1 1 1 1 1 1 1 
1 1 1 2 1 1 1 1 1 
1 1 1 1 1 1 1 1 1 
1 2 1 2 1 2 2 1 2 
1 3 1 2 2 2 1 1 1 
1 1 1 1 1 1 1 1 1 
1 2 1 1 1 1 1 1 1 
1 1 1 1 1 1 1 1 1 
1 1 1 1 1 1 1 1 1 
1 1 1 1 1 1 1 1 1 
1 1 1 1 1 1 1 1 1 
1 1 1 1 1 1 1 1 1 
1 1 1 1 1 1 2 1 1 
1 1 1 1 1 1 1 1 1 
1 1 1 1 1 1 1 1 1 
1 1 1 1 1 1 1 1 1 

i 3 648 int
0 0 0 0 0 0 0 0 0 
0 0 0 0 0 0 0 0 0 
0 0 0 0 0 0 0 0 0 
0 0 0 0 0 0 0 0 0 
0 0 0 0 0 0 0 0 0 
0 0 0 0 0 0 0 0 0 
0 0 0 0 0 0 0 0 0 
0 0 0 0 0 0 0 0 0 
0 0 0 0 0 0 0 0 0 
0 0 0 0 0 0 0 0 0 
0 0 0 0 0 0 0 0 0 
0 0 0 0 0 0 0 0 0 
0 0 0 0 0 0 0 0 0 
0 0 0 0 0 0 0 0 0 
0 0 0 0 0 0 0 0 0 
0 0 0 0 0 0 0 0 0 
0 0 0 0 0 0 0 0 0 
0 0 0 0 0 0 0 0 0 
0 0 0 0 0 0 0 0 0 
0 0 0 0 0 0 0 0 0 
0 0 0 0 0 0 0 0 0 
0 0 0 0 0 0 0 0 0 
0 0 0 0 0 0 0 0 0 
0 0 0 0 0 0 0 0 0 
0 0 0 0 0 0 0 0 0 
0 0 0 0 0 0 0 0 0 
0 0 0 0 0 0 0 0 0 
0 0 0 0 0 0 0 0 0 
0 0 0 0 0 0 0 0 0 
0 0 0 0 0 0 0 0 0 
0 0 0 0 0 0 0 0 0 
0 0 0 0 0 0 0 0 0 
0 0 0 0 0 0 0 0 0 
0 0 0 0 0 0 0 0 0 
0 0 0 0 0 0 0 0 0 
0 0 0 0 0 0 0 0 0 
0 0 0 0 0 0 0 0 0 
0 0 0 0 0 0 0 0 0 
0 0 0 0 0 0 0 0 0 
0 0 0 0 0 0 0 0 0 
0 0 0 0 0 0 0 0 0 
0 0 0 0 0 0 0 0 0 
0 0 0 0 0 0 0 0 0 
0 0 0 0 0 0 0 0 0 
0 0 0 0 0 0 0 0 0 
0 0 0 0 0 0 0 0 0 
0 0 0 0 0 0 0 0 0 
0 0 0 0 0 0 0 0 0 
0 0 0 0 0 0 0 0 0 
0 0 0 0 0 0 0 0 0 
0 0 0 0 0 0 0 0 0 
0 0 0 0 0 0 0 0 0 
0 0 0 0 0 0 0 0 0 
0 0 0 0 0 0 0 0 0 
0 0 0 0 0 0 0 0 0 
0 0 0 0 0 0 0 0 0 
0 0 0 0 0 0 0 0 0 
0 0 0 0 0 0 0 0 0 
0 0 0 0 0 0 0 0 0 
0 0 0 0 0 0 0 0 0 
0 0 0 0 0 0 0 0 0 
0 0 0 0 0 0 0 0 0 
0 0 0 0 0 0 0 0 0 
0 0 0 0 0 0 0 0 0 
0 0 0 0 0 0 0 0 0 
0 0 0 0 0 0 0 0 0 
0 0 0 0 0 0 0 0 0 
0 0 0 0 0 0 0 0 0 
0 0 0 0 0 0 0 0 0 
0 0 0 0 0 0 0 0 0 
0 0 0 0 0 0 0 0 0 
0 0 0 0 0 0 0 0 0 
0 0 0 0 0 0 0 0 0 
0 0 0 0 0 0 0 0 0 
0 0 0 0 0 0 0 0 0 
0 0 0 0 0 0 0 0 0 
0 0 0 0 0 0 0 0 0 
0 0 0 0 0 0 0 0 0 
0 0 0 0 0 0 0 0 0 
0 0 0 0 0 0 0 0 0 
0 0 0 0 0 0 0 0 0 
0 0 0 0 0 0 0 0 0 
0 0 0 0 0 0 0 0 0 
0 0 0 0 0 0 0 0 0 
0 0 0 0 0 0 0 0 0 
0 0 0 0 0 0 0 0 0 
0 0 0 0 0 0 0 0 0 
0 0 0 0 0 0 0 0 0 
0 0 0 0 0 0 0 0 0 
0 0 0 0 0 0 0 0 0 
0 0 0 0 0 0 0 0 0 
0 0 0 0 0 0 0 0 0 
0 0 0 0 0 0 0 0 0 
0 0 0 0 0 0 0 0 0 
0 0 0 0 0 0 0 0 0 
0 0 0 0 0 0 0 0 0 
0 0 0 0 0 0 0 0 0 
0 0 0 0 0 0 0 0 0 
0 0 0 0 0 0 0 0 0 
0 0 0 0 0 0 0 0 0 
0 0 0 0 0 0 0 0 0 
0 0 0 0 0 0 0 0 0 
0 0 0 0 0 0 0 0 0 
0 0 0 0 0 0 0 0 0 
0 0 0 0 0 0 0 0 0 
0 0 0 0 0 0 0 0 0 
0 0 0 0 0 0 0 0 0 
0 0 0 0 0 0 0 0 0 
0 0 0 0 0 0 0 0 0 
0 0 0 0 0 0 0 0 0 
0 0 0 0 0 0 0 0 0 
0 0 0 0 0 0 0 0 0 
0 0 0 0 0 0 0 0 0 
0 0 0 0 0 0 0 0 0 
0 0 0 0 0 0 0 0 0 
0 0 0 0 0 0 0 0 0 
0 0 0 0 0 0 0 0 0 
0 0 0 0 0 0 0 0 0 
0 0 0 0 0 0 0 0 0 
0 0 0 0 0 0 0 0 0 
0 0 0 0 0 0 0 0 0 
0 0 0 0 0 0 0 0 0 
0 0 0 0 0 0 0 0 0 
0 0 0 0 0 0 0 0 0 
0 0 0 0 0 0 0 0 0 
0 0 0 0 0 0 0 0 0 
0 0 0 0 0 0 0 0 0 
0 0 0 0 0 0 0 0 0 
0 0 0 0 0 0 0 0 0 
0 0 0 0 0 0 0 0 0 
0 0 0 0 0 0 0 0 0 
0 0 0 0 0 0 0 0 0 
0 0 0 0 0 0 0 0 0 
0 0 0 0 0 0 0 0 0 
0 0 0 0 0 0 0 0 0 
0 0 0 0 0 0 0 0 0 
0 0 0 0 0 0 0 0 0 
0 0 0 0 0 0 0 0 0 
0 0 0 0 0 0 0 0 0 
0 0 0 0 0 0 0 0 0 
0 0 0 0 0 0 0 0 0 
0 0 0 0 0 0 0 0 0 
0 0 0 0 0 0 0 0 0 
0 0 0 0 0 0 0 0 0 
0 0 0 0 0 0 0 0 0 
0 0 0 0 0 0 0 0 0 
0 0 0 0 0 0 0 0 0 
0 0 0 0 0 0 0 0 0 
0 0 0 0 0 0 0 0 0 
0 0 0 0 0 0 0 0 0 
0 0 0 0 0 0 0 0 0 
0 0 0 0 0 0 0 0 0 
0 0 0 0 0 0 0 0 0 
0 0 0 0 0 0 0 0 0 
0 0 0 0 0 0 0 0 0 
0 0 0 0 0 0 0 0 0 
0 0 0 0 0 0 0 0 0 
0 0 0 0 0 0 0 0 0 
0 0 0 0 0 0 0 0 0 
0 0 0 0 0 0 0 0 0 
0 0 0 0 0 0 0 0 0 
0 0 0 0 0 0 0 0 0 
0 0 0 0 0 0 0 0 0 
0 0 0 0 0 0 0 0 0 
0 0 0 0 0 0 0 0 0 
0 0 0 0 0 0 0 0 0 
0 0 0 0 0 0 0 0 0 
0 0 0 0 0 0 0 0 0 
0 0 0 0 0 0 0 0 0 
0 0 0 0 0 0 0 0 0 
0 0 0 0 0 0 0 0 0 
0 0 0 0 0 0 0 0 0 
0 0 0 0 0 0 0 0 0 
0 0 0 0 0 0 0 0 0 
0 0 0 0 0 0 0 0 0 
0 0 0 0 0 0 0 0 0 
0 0 0 0 0 0 0 0 0 
0 0 0 0 0 0 0 0 0 
0 0 0 0 0 0 0 0 0 
0 0 0 0 0 0 0 0 0 
0 0 0 0 0 0 0 0 0 
0 0 0 0 0 0 0 0 0 
0 0 0 0 0 0 0 0 0 
0 0 0 0 0 0 0 0 0 
0 0 0 0 0 0 0 0 0 
0 0 0 0 0 0 0 0 0 
0 0 0 0 0 0 0 0 0 
0 0 0 0 0 0 0 0 0 
0 0 0 0 0 0 0 0 0 
0 0 0 0 0 0 0 0 0 
0 0 0 0 0 0 0 0 0 
0 0 0 0 0 0 0 0 0 
0 0 0 0 0 0 0 0 0 
0 0 0 0 0 0 0 0 0 
0 0 0 0 0 0 0 0 0 
0 0 0 0 0 0 0 0 0 
0 0 0 0 0 0 0 0 0 
0 0 0 0 0 0 0 0 0 
0 0 0 0 0 0 0 0 0 
0 0 0 0 0 0 0 0 0 
0 0 0 0 0 0 0 0 0 
0 0 0 0 0 0 0 0 0 
0 0 0 0 0 0 0 0 0 
0 0 0 0 0 0 0 0 0 
0 0 0 0 0 0 0 0 0 
0 0 0 0 0 0 0 0 0 
0 0 0 0 0 0 0 0 0 
0 0 0 0 0 0 0 0 0 
0 0 0 0 0 0 0 0 0 
0 0 0 0 0 0 0 0 0 
0 0 0 0 0 0 0 0 0 
0 0 0 0 0 0 0 0 0 
0 0 0 0 0 0 0 0 0 
0 0 0 0 0 0 0 0 0 
0 0 0 0 0 0 0 0 0 
0 0 0 0 0 0 0 0 0 

v 3 648 double
0 0 0.21829463833 0 0 0.2509490027 0 0 0.22137566644 
0 0 0.22052863914 0 0 0.21747115131 0 0 0.23806277565 
0 0 0.24683682451 0 0 0.18020010047 0 0 0.20955935746 
0 0 0.24018735965 0 0 -0.66724918749 0 0 -0.66724918749 
0 0 0.24918599088 0 0 0.24014133461 0 0 0.22889956595 
0 0 0.20266711057 0 0 0.25482547774 0 0 0.24689907191 
0 0 0.20535957339 0 0 0.24230118535 0 0 -0.66724918749 
0 0 0.23092235402 0 0 0.23668137891 0 0 0.23953431795 
0 0 0.23592091095 0 0 0.24285226065 0 0 0.24469985498 
0 0 0.27799085941 0 0 0.24973265393 0 0 -0.66724918749 
0 0 -0.66724918749 0 0 0.24145487951 0 0 0.24274843547 
0 0 -0.66724918749 0 0 0.2007249161 0 0 0.25187771301 
0 0 0.2077384648 0 0 0.21350127249 0 0 0.2428430978 
0 0 0.23658539598 0 0 0.20353019481 0 0 0.24540023015 
0 0 0.24387066995 0 0 0.24161810429 0 0 0.19310389194 
0 0 0.26949267595 0 0 -0.66724918749 0 0 0.24982141767 
0 0 0.21167943114 0 0 0.25093510339 0 0 0.20399559261 
0 0 -0.66724918749 0 0 -0.66724918749 0 0 -0.66724918749 
0 0 0.25153608082 0 0 0.22357125134 0 0 0.19226029095 
0 0 0.23466965647 0 0 -0.66724918749 0 0 0.2002927894 
0 0 0.21199230122 0 0 0.23818119727 0 0 0.22984234953 
0 0 0.20603563551 0 0 0.23171782182 0 0 0.19296572821 
0 0 0.22569886999 0 0 0.18653411358 0 0 0.19413996997 
0 0 0.18610865188 0 0 0.18705432123 0 0 0.22893351482 
0 0 0.22606966802 0 0 -0.66724918749 0 0 0.21868825085 
0 0 0.17103279353 0 0 0.22742359327 0 0 0.22340695628 
0 0 0.23343370073 0 0 0.19214355049 0 0 0.22682088516 
0 0 0.2337191891 0 0 0.1931669172 0 0 0.22555109293 
0 0 0.23178093359 0 0 0.2344729427 0 0 0.19397006627 
0 0 -0.66724918749 0 0 0.23185442358 0 0 0.1857416031 
0 0 0.19558725608 0 0 0.2266769701 0 0 0.2068453166 
0 0 0.1772292658 0 0 0.23045403403 0 0 -0.66724918749 
0 0 -0.66724918749 0 0 0.20319763202 0 0 0.23507628041 
0 0 0.22867856447 0 0 0.18482007506 0 0 0.17292198685 
0 0 0.22403995266 0 0 0.22079701482 0 0 0.21711365276 
0 0 0.18045345373 0 0 0.18827070144 0 0 0.17306095375 
0 0 -0.5372491875 0 0 0.18561063033 0 0 0.21092531937 
0 0 0.16763674398 0 0 0.18876645664 0 0 -0.5892491875 
0 0 0.21173849882 0 0 0.17547855806 0 0 0.22090705362 
0 0 0.23824566114 0 0 0.21857925621 0 0 0.23666618588 
0 0 0.17966411312 0 0 0.21494428156 0 0 0.24579840314 
0 0 0.22226948895 0 0 0.21820015957 0 0 0.17773777147 
0 0 0.21330862228 0 0 0.21967258543 0 0 0.21662616919 
0 0 0.18844304632 0 0 0.21432144696 0 0 0.18409387953 
0 0 0.18270806688 0 0 0.22202406016 0 0 0.21960320721 
0 0 0.21445114581 0 0 0.19384547843 0 0 0.18256560812 
0 0 0.18092098209 0 0 0.21125771096 0 0 0.20114015029 
0 0 0.20082484948 0 0 0.2066349779 0 0 0.15546314713 
0 0 0.21487648654 0 0 0.20991490857 0 0 0.19877337989 
0 0 0.1989625013 0 0 0.24759159217 0 0 0.1577064732 
0 0 0.15045180196 0 0 0.20533298966 0 0 0.23995117388 
0 0 0.16359946945 0 0 0.1993675969 0 0 0.16579355323 
0 0 0.16508870917 0 0 0.20972945307 0 0 0.19822378792 
0 0 0.1674797918 0 0 0.21175351031 0 0 0.14714210405 
0 0 0.20868672276 0 0 0.15134315149 0 0 0.15409807024 
0 0 0.20214137681 0 0 0.2487841462 0 0 0.15362764141 
0 0 0.10842093216 0 0 0.20835486661 0 0 0.19422863391 
0 0 0.17485374761 0 0 0.20710554167 0 0 0.2120404619 
0 0 0.21602797599 0 0 0.15123400741 0 0 0.20251748639 
0 0 0.17539861484 0 0 0.16164264039 0 0 0.20825029296 
0 0 0.18840113334 0 0 0.13608277306 0 0 0.19265790395 
0 0 0.19554672217 0 0 0.18349390542 0 0 0.19473283405 
0 0 0.16081758255 0 0 0.13754127286 0 0 0.14806409224 
0 0 0.12887535534 0 0 0.21019275749 0 0 0.18632121891 
0 0 0.19665203858 0 0 0.1933604792 0 0 0.19374797158 
0 0 -0.5242491875 0 0 0.14083573108 0 0 0.13979568374 
0 0 0.10834387512 0 0 0.19363803486 0 0 0.13682782251 
0 0 0.19015868975 0 0 0.19070808787 0 0 0.18358023114 
0 0 0.14029994523 0 0 0.14402039158 0 0 0.198770902 
0 0 0.19792164733 0 0 0.20897422836 0 0 -0.5632491875 
0 0 0.1861410744 0 0 0.14368486971 0 0 0.18691880167 
0 0 0.15627774817 0 0 0.19732114277 0 0 0.14204102165 
0 0 0.12664259474 0 0 0.13903208622 0 0 0.19229424107 
0 0 0.15634330399 0 0 0.1980294822 0 0 0.189680019 
0 0 0.15647198385 0 0 0.19532618137 0 0 -0.5762491875 
0 0 0.19314777206 0 0 0.14742002975 0 0 0.18707263149 
0 0 0.13926900443 0 0 0.17152333282 0 0 0.12771189411 
0 0 0.10264290108 0 0 0.18033503861 0 0 0.10854685006 
0 0 0.073448391705 0 0 0.11017433936 0 0 0.17695769518 
0 0 0.12895571788 0 0 0.10150219793 0 0 0.18927224689 
0 0 0.18324597187 0 0 0.18170764348 0 0 0.18409260613 
0 0 0.18383226513 0 0 0.1858746632 0 0 0.17940835461 
0 0 0.11270881714 0 0 0.13447179896 0 0 0.11838462461 
0 0 0.092227322515 0 0 0.18591101458 0 0 0.17618708147 
0 0 0.18198929142 0 0 0.17120824937 0 0 0.11921326982 
0 0 0.18594120819 0 0 0.17777378782 0 0 0.1128467155 
0 0 -0.5047491875 0 0 0.17783650989 0 0 0.18634549401 
0 0 0.18125996777 0 0 0.17090706818 0 0 0.16765505131 
0 0 0.1821089731 0 0 0.12734104274 0 0 0.17736109087 
0 0 0.17613929975 0 0 0.20441563999 0 0 0.11466248785 
0 0 0.09368671245 0 0 0.10362854168 0 0 0.12047203168 
0 0 0.18019791696 0 0 0.17576661168 0 0 0.18402184385 
0 0 0.16845589255 0 0 0.11277427481 0 0 0.13920177989 
0 0 0.11691813592 0 0 0.17509285458 0 0 0.18027696755 
0 0 0.17827128494 0 0 0.19778861574 0 0 0.17575611842 
0 0 0.069211542713 0 0 0.13432442376 0 0 0.11370688086 
0 0 0.12304465513 0 0 0.18022126591 0 0 0.13492963756 
0 0 0.11346701317 0 0 0.17562076182 0 0 0.10487984124 
0 0 0.11436095801 0 0 0.17146065288 0 0 0.020496280117 
0 0 0.080097291698 0 0 0.15493934304 0 0 0.14521097516 
0 0 -0.5144991875 0 0 -0.4787491875 0 0 0.042462090103 
0 0 0.014615929619 0 0 0.081358492535 0 0 0.073883225601 
0 0 0.15944773744 0 0 0.09974403286 0 0 0.067134101829 
0 0 0.13562137421 0 0 0.040806688561 0 0 0.026001535737 
0 0 0.078897673871 0 0 0.16219596037 0 0 0.113203135 
0 0 0.081630818946 0 0 0.032609110731 0 0 0.17250410065 
0 0 0.064985070519 0 0 0.13093727387 0 0 0.15841800132 
0 0 0.057277698849 0 0 0.049691072907 0 0 0.082376862799 
0 0 0.076119318307 0 0 0.059442624109 0 0 0.11206835589 
0 0 0.16898041349 0 0 0.1539041819 0 0 0.065901537094 
0 0 0.094104974053 0 0 0.29875495422 0 0 0.036687029223 
0 0 0.15706092589 0 0 0.10319997832 0 0 0.026427254613 
0 0 0.16498851024 0 0 0.012285912348 0 0 0.15363987987 
0 0 0.0080899419304 0 0 0.063874713581 0 0 0.065747676344 
0 0 0.016551372491 0 0 0.15587416526 0 0 0.063320576749 
0 0 0.051295990619 0 0 0.034475557368 0 0 0.046440868858 
0 0 0.15932765913 0 0 0.12674521697 0 0 0.04805007228 
0 0 0.076239341194 0 0 0.073115037878 0 0 0.014088264077 
0 0 0.076421373693 0 0 0.16101096076 0 0 0.028723945253 
0 0 0.088668786686 0 0 0.068647261746 0 0 0.092183718857 
0 0 0.14911581688 0 0 0.057057173654 0 0 0.1613403253 
0 0 0.031230194288 0 0 0.025962132815 0 0 0.052001770652 
0 0 0.15569492758 0 0 0.091606269514 0 0 0.03646260836 
0 0 0.044611957549 0 0 0.080773748338 0 0 0.04400976435 
0 0 0.048010021412 0 0 0.024250329143 0 0 0.14841143671 
0 0 0.020314380452 0 0 0.080728766896 0 0 0.15247376619 
0 0 -0.5762491875 0 0 0.15237900908 0 0 0.16230348505 
0 0 0.075677239683 0 0 0.16057425336 0 0 0.067734124251 
0 0 0.13666084593 0 0 0.094540503033 0 0 0.05476681787 
0 0 0.081792480661 0 0 0.15093515857 0 0 0.15741826791 
0 0 0.14225715508 0 0 0.12891967778 0 0 0.12317836513 
0 0 0.14066264223 0 0 0.14210675081 0 0 0.087183887422 
0 0 0.16022666326 0 0 -0.5274991875 0 0 0.12650402456 
0 0 0.044389103353 0 0 0.14554681923 0 0 -0.5892491875 
0 0 0.1224624339 0 0 0.12059102016 0 0 0.15035857148 
0 0 0.06287799375 0 0 0.12409053399 0 0 0.14563600823 
0 0 0.12895527993 0 0 0.15103093076 0 0 0.16428848372 
0 0 0.064053531192 0 0 0.13462446234 0 0 0.057298948708 
0 0 0.14070223559 0 0 0.036966708202 0 0 0.13422448595 
0 0 0.1429494641 0 0 0.031454827308 0 0 0.14192436554 
0 0 0.1255242242 0 0 0.14245310664 0 0 0.12956485711 
0 0 0.13784689267 0 0 -0.5307491875 0 0 0.034195908054 
0 0 0.14467703214 0 0 0.13386512922 0 0 0.022188830138 
0 0 0.05950222004 0 0 0.14680983075 0 0 0.14661530288 
0 0 0.14366485738 0 0 0.13890919577 0 0 0.13529808518 
0 0 0.031411251559 0 0 0.13814832218 0 0 0.12257718855 
0 0 0.029303323639 0 0 0.14950754587 0 0 0.052259009742 
0 0 0.13684147004 0 0 0.12524925693 0 0 0.092296906591 
0 0 0.12745539687 0 0 0.12842585003 0 0 0.11669416274 
0 0 0.083246162096 0 0 -0.4787491875 0 0 0.11028122914 
0 0 0.085986514499 0 0 0.10055299159 0 0 0.095169792349 
0 0 0.11689578997 0 0 0.11647799698 0 0 0.11410549807 
0 0 0.1088469905 0 0 0.11744997473 0 0 0.11605109918 
0 0 0.081066099354 0 0 0.085104259803 0 0 0.10897746489 
0 0 0.12535393011 0 0 0.1260997643 0 0 0.12700089378 
0 0 0.076498017659 0 0 0.17942426443 0 0 0.1381119558 
0 0 0.10839979497 0 0 0.11658060353 0 0 0.13124910205 
0 0 0.098242702503 0 0 0.1075929656 0 0 0.10042994165 
0 0 0.10861287469 0 0 0.10592824157 0 0 0.091295565038 
0 0 0.079470856594 0 0 0.12505145261 0 0 0.078357530329 
0 0 0.094997659444 0 0 0.11041806089 0 0 0.039150361377 
0 0 0.11637167665 0 0 0.10925599012 0 0 0.071606370692 
0 0 0.04711460083 0 0 0.087281243403 0 0 0.047782498223 
0 0 0.078246025138 0 0 0.056829879721 0 0 0.05837693824 
0 0 0.13635737614 0 0 0.049203643225 0 0 -0.5502491875 
0 0 0.052141393465 0 0 -0.5989991875 0 0 0.074366424948 
0 0 0.071228355996 0 0 -0.5892491875 0 0 0.055468376759 
0 0 0.061582748483 0 0 0.073036617136 0 0 0.06250149073 
0 0 0.14127253975 0 0 0.047118854464 0 0 0.045453200432 
0 0 0.057837521382 0 0 0.087605842435 0 0 0.062524942016 
0 0 0.072406209015 0 0 0.06204321721 0 0 0.055997523635 
0 0 0.065362892851 0 0 0.052968269148 0 0 0.073264568596 
0 0 0.15735758077 0 0 0.048574078578 0 0 0.073423118708 
0 0 -0.4819991875 0 0 0.075973547081 0 0 0.054423806034 
0 0 0.068203642577 0 0 0.087374106039 0 0 0.069063647094 
0 0 0.05051953854 0 0 0.078063378244 0 0 0.048881885097 
0 0 0.10682352913 0 0 -0.4982491875 0 0 -0.5697491875 
0 0 -0.5664991875 0 0 0.12166521339 0 0 -0.5242491875 
0 0 0.11074565003 0 0 -0.5047491875 0 0 0.12502263689 
0 0 0.061180855619 0 0 -0.4884991875 0 0 0.078330756865 
0 0 -0.5079991875 0 0 0.17869446505 0 0 -0.4624991875 
0 0 0.095056380697 0 0 0.081058513165 0 0 0.10757723163 
0 0 -0.5534991875 0 0 -0.4917491875 0 0 -0.5307491875 
0 0 -0.5404991875 0 0 -0.5339991875 0 0 -0.5989991875 
0 0 -0.4917491875 0 0 -0.4462491875 0 0 -0.60549918749 
0 0 -0.5112491875 0 0 -0.4982491875 0 0 -0.4982491875 
0 0 -0.4754991875 0 0 -0.5989991875 0 0 -0.4592491875 
0 0 -0.5177491875 0 0 -0.4462491875 0 0 -0.5079991875 
0 0 -0.5404991875 0 0 -0.5567491875 0 0 -0.5274991875 
0 0 -0.4267491875 0 0 -0.4429991875 0 0 -0.4949991875 
0 0 -0.5144991875 0 0 -0.4689991875 0 0 -0.5502491875 
0 0 -0.5274991875 0 0 -0.5177491875 0 0 -0.4234991875 
0 0 -0.4462491875 0 0 -0.4364991875 0 0 -0.5144991875 
0 0 -0.4592491875 0 0 -0.4722491875 0 0 -0.4884991875 
0 0 -0.4722491875 0 0 -0.4429991875 0 0 -0.4364991875 
0 0 -0.5469991875 0 0 -0.4852491875 0 0 -0.4657491875 
0 0 -0.5209991875 0 0 -0.4429991875 0 0 -0.4852491875 
0 0 -0.5567491875 0 0 -0.4462491875 0 0 -0.4689991875 
0 0 -0.5469991875 0 0 -0.4689991875 0 0 -0.4397491875 
0 0 -0.4299991875 0 0 -0.5242491875 0 0 -0.4819991875 
0 0 -0.4332491875 0 0 -0.5404991875 0 0 -0.4884991875 
0 0 -0.4982491875 0 0 -0.4884991875 0 0 -0.4722491875 
0 0 -0.5209991875 0 0 -0.5209991875 0 0 -0.4559991875 
0 0 -0.4787491875 0 0 -0.4299991875 0 0 -0.4592491875 
0 0 -0.4267491875 0 0 -0.4364991875 0 0 -0.5372491875 
0 0 -0.4397491875 0 0 -0.4364991875 0 0 -0.4949991875 
0 0 -0.4299991875 0 0 -0.4949991875 0 0 -0.4527491875 
0 0 -0.4364991875 0 0 -0.4494991875 0 0 -0.4559991875 
0 0 -0.5014991875 0 0 -0.4624991875 0 0 -0.4364991875 
0 0 -0.4234991875 0 0 -0.4234991875 0 0 -0.4527491875 
0 0 -0.4852491875 0 0 -0.4819991875 0 0 -0.4592491875 
0 0 -0.4332491875 0 0 -0.4852491875 0 0 -0.4234991875 
0 0 -0.4592491875 0 0 -0.4397491875 0 0 -0.4364991875 
0 0 -0.4234991875 0 0 -0.4234991875 0 0 -0.4332491875 
0 0 -0.4299991875 0 0 -0.4364991875 0 0 -0.4397491875 
0 0 -0.4267491875 0 0 -0.4267491875 0 0 -0.4234991875 

f 3 648 double
0 0 -1.7425367252e-10 0 0 -1.7425367252e-10 0 0 -1.7425367252e-10 
0 0 -1.7425367252e-10 0 0 -1.7425367252e-10 0 0 -1.7425367252e-10 
0 0 -1.7425367252e-10 0 0 -1.7425367252e-10 0 0 -1.7425367252e-10 
0 0 -1.7425367252e-10 0 0 -1.7425367252e-10 0 0 -1.7425367252e-10 
0 0 -1.7425367252e-10 0 0 -1.7425367252e-10 0 0 -1.7425367252e-10 
0 0 -1.7425367252e-10 0 0 -1.7425367252e-10 0 0 -1.7425367252e-10 
0 0 -1.7425367252e-10 0 0 -1.7425367252e-10 0 0 -1.7425367252e-10 
0 0 -1.7425367252e-10 0 0 -1.7425367252e-10 0 0 -1.7425367252e-10 
0 0 -1.7425367252e-10 0 0 -1.7425367252e-10 0 0 -1.7425367252e-10 
0 0 -1.7425367252e-10 0 0 -1.7425367252e-10 0 0 -1.7425367252e-10 
0 0 -1.7425367252e-10 0 0 -1.7425367252e-10 0 0 -1.7425367252e-10 
0 0 -1.7425367252e-10 0 0 -1.7425367252e-10 0 0 -1.7425367252e-10 
0 0 -1.7425367252e-10 0 0 -1.7425367252e-10 0 0 -1.7425367252e-10 
0 0 -1.7425367252e-10 0 0 -1.7425367252e-10 0 0 -1.7425367252e-10 
0 0 -1.7425367252e-10 0 0 -1.7425367252e-10 0 0 -1.7425367252e-10 
0 0 -1.7425367252e-10 0 0 -1.7425367252e-10 0 0 -1.7425367252e-10 
0 0 -1.7425367252e-10 0 0 -1.7425367252e-10 0 0 -1.7425367252e-10 
0 0 -1.7425367252e-10 0 0 -1.7425367252e-10 0 0 -1.7425367252e-10 
0 0 -1.7425367252e-10 0 0 -1.7425367252e-10 0 0 -1.7425367252e-10 
0 0 -1.7425367252e-10 0 0 -1.7425367252e-10 0 0 -1.7425367252e-10 
0 0 -1.7425367252e-10 0 0 -1.7425367252e-10 0 0 -1.7425367252e-10 
0 0 -1.7425367252e-10 0 0 -1.7425367252e-10 0 0 -1.7425367252e-10 
0 0 -1.7425367252e-10 0 0 -1.7425367252e-10 0 0 -1.7425367252e-10 
0 0 -1.7425367252e-10 0 0 -1.7425367252e-10 0 0 -1.7425367252e-10 
0 0 -1.7425367252e-10 0 0 -1.7425367252e-10 0 0 -1.7425367252e-10 
0 0 -1.7425367252e-10 0 0 -1.7425367252e-10 0 0 -1.7425367252e-10 
0 0 -1.7425367252e-10 0 0 -1.7425367252e-10 0 0 -1.7425367252e-10 
0 0 -1.7425367252e-10 0 0 -1.7425367252e-10 0 0 -1.7425367252e-10 
0 0 -1.7425367252e-10 0 0 -1.7425367252e-10 0 0 -1.7425367252e-10 
0 0 -1.7425367252e-10 0 0 -1.7425367252e-10 0 0 -1.7425367252e-10 
0 0 -1.7425367252e-10 0 0 -1.7425367252e-10 0 0 -1.7425367252e-10 
0 0 -1.7425367252e-10 0 0 -1.7425367252e-10 0 0 -1.7425367252e-10 
0 0 -1.7425367252e-10 0 0 -1.7425367252e-10 0 0 -1.7425367252e-10 
0 0 -1.7425367252e-10 0 0 -1.7425367252e-10 0 0 -1.7425367252e-10 
0 0 -1.7425367252e-10 0 0 -1.7425367252e-10 0 0 -1.7425367252e-10 
0 0 -1.7425367252e-10 0 0 -1.7425367252e-10 0 0 -1.7425367252e-10 
0 0 -1.7425367252e-10 0 0 -1.7425367252e-10 0 0 -1.7425367252e-10 
0 0 -1.7425367252e-10 0 0 -1.7425367252e-10 0 0 -8.9019973083e-09 
0 0 -1.7425367252e-10 0 0 -1.7425367252e-10 0 0 -1.7425367252e-10 
0 0 -1.7425367252e-10 0 0 -1.7425367252e-10 0 0 -1.7425367252e-10 
0 0 -1.7425367252e-10 0 0 -1.7425367252e-10 0 0 -1.7425367252e-10 
0 0 -1.7425367252e-10 0 0 -1.7425367252e-10 0 0 -1.7425367252e-10 
0 0 -1.7425367252e-10 0 0 -1.7425367252e-10 0 0 -1.7425367252e-10 
0 0 -1.7425367252e-10 0 0 -1.7425367252e-10 0 0 -1.7425367252e-10 
0 0 -1.7425367252e-10 0 0 -1.7425367252e-10 0 0 -1.7425367252e-10 
0 0 -1.7425367252e-10 0 0 -1.7425367252e-10 0 0 -1.7425367252e-10 
0 0 -1.7425367252e-10 0 0 -1.7425367252e-10 0 0 -1.7425367252e-10 
0 0 -1.7425367252e-10 0 0 -1.7425367252e-10 0 0 -1.7425367252e-10 
0 0 -1.7425367252e-10 0 0 -1.7425367252e-10 0 0 -1.7425367252e-10 
0 0 -1.7425367252e-10 0 0 -8.9019973083e-09 0 0 -1.7425367252e-10 
0 0 -1.7425367252e-10 0 0 -1.7425367252e-10 0 0 -1.7425367252e-10 
0 0 -1.7425367252e-10 0 0 -1.7425367252e-10 0 0 -1.7425367252e-10 
0 0 -1.7425367252e-10 0 0 -1.7425367252e-10 0 0 -1.7425367252e-10 
0 0 -1.7425367252e-10 0 0 -1.7425367252e-10 0 0 -1.7425367252e-10 
0 0 -1.7425367252e-10 0 0 -1.7425367252e-10 0 0 -1.7425367252e-10 
0 0 -1.7425367252e-10 0 0 -8.9019973083e-09 0 0 -1.7425367252e-10 
0 0 -1.7425367252e-10 0 0 -1.7425367252e-10 0 0 -1.7425367252e-10 
0 0 -1.7425367252e-10 0 0 -1.7425367252e-10 0 0 -1.7425367252e-10 
0 0 -1.7425367252e-10 0 0 -1.7425367252e-10 0 0 -1.7425367252e-10 
0 0 -1.7425367252e-10 0 0 -1.7425367252e-10 0 0 -1.7425367252e-10 
0 0 -1.7425367252e-10 0 0 -1.7425367252e-10 0 0 -1.7425367252e-10 
0 0 -1.7425367252e-10 0 0 -1.7425367252e-10 0 0 -1.7425367252e-10 
0 0 -1.7425367252e-10 0 0 -1.7425367252e-10 0 0 -1.7425367252e-10 
0 0 -1.7425367252e-10 0 0 -1.7425367252e-10 0 0 -1.7425367252e-10 
0 0 -1.7425367252e-10 0 0 -1.7425367252e-10 0 0 -1.7425367252e-10 
0 0 -1.7425367252e-10 0 0 -1.7425367252e-10 0 0 -1.7425367252e-10 
0 0 -1.7425367252e-10 0 0 -1.7425367252e-10 0 0 -1.7425367252e-10 
0 0 -1.7425367252e-10 0 0 -1.7425367252e-10 0 0 -1.7425367252e-10 
0 0 -1.7425367252e-10 0 0 -1.7425367252e-10 0 0 -1.7425367252e-10 
0 0 -1.7425367252e-10 0 0 -1.7425367252e-10 0 0 -1.7425367252e-10 
0 0 -1.7425367252e-10 0 0 -1.7425367252e-10 0 0 -1.7425367252e-10 
0 0 -1.7425367252e-10 0 0 -1.7425367252e-10 0 0 -1.7425367252e-10 
0 0 -1.7425367252e-10 0 0 -1.7425367252e-10 0 0 -1.7425367252e-10 
0 0 -1.7425367252e-10 0 0 -1.7425367252e-10 0 0 -1.7425367252e-10 
0 0 -1.7425367252e-10 0 0 -1.7425367252e-10 0 0 -1.7425367252e-10 
0 0 -1.7425367252e-10 0 0 -1.7425367252e-10 0 0 -1.7425367252e-10 
0 0 -1.7425367252e-10 0 0 -1.7425367252e-10 0 0 -1.7425367252e-10 
0 0 -1.7425367252e-10 0 0 -1.7425367252e-10 0 0 -1.7425367252e-10 
0 0 -1.7425367252e-10 0 0 -1.7425367252e-10 0 0 -1.7425367252e-10 
0 0 -1.7425367252e-10 0 0 -1.7425367252e-10 0 0 -1.7425367252e-10 
0 0 -1.7425367252e-10 0 0 -1.7425367252e-10 0 0 -1.7425367252e-10 
0 0 -1.7425367252e-10 0 0 -1.7425367252e-10 0 0 -1.7425367252e-10 
0 0 -1.7425367252e-10 0 0 -1.7425367252e-10 0 0 -1.7425367252e-10 
0 0 -1.7425367252e-10 0 0 -1.7425367252e-10 0 0 -1.7425367252e-10 
0 0 -1.7425367252e-10 0 0 -1.7425367252e-10 0 0 -1.7425367252e-10 
0 0 -1.7425367252e-10 0 0 -1.7425367252e-10 0 0 -1.7425367252e-10 
0 0 -1.7425367252e-10 0 0 -1.7425367252e-10 0 0 -1.7425367252e-10 
0 0 -1.7425367252e-10 0 0 -1.7425367252e-10 0 0 -1.7425367252e-10 
0 0 -1.7425367252e-10 0 0 -1.7425367252e-10 0 0 -1.7425367252e-10 
0 0 -1.7425367252e-10 0 0 -1.7425367252e-10 0 0 -1.7425367252e-10 
0 0 -1.7425367252e-10 0 0 -1.7425367252e-10 0 0 -1.7425367252e-10 
0 0 -1.7425367252e-10 0 0 -1.7425367252e-10 0 0 -1.7425367252e-10 
0 0 -1.7425367252e-10 0 0 -1.7425367252e-10 0 0 -1.7425367252e-10 
0 0 -1.7425367252e-10 0 0 -1.7425367252e-10 0 0 -1.7425367252e-10 
0 0 -1.7425367252e-10 0 0 -1.7425367252e-10 0 0 -1.7425367252e-10 
0 0 -1.7425367252e-10 0 0 -1.7425367252e-10 0 0 -1.7425367252e-10 
0 0 -1.7425367252e-10 0 0 -1.7425367252e-10 0 0 -1.7425367252e-10 
0 0 -1.7425367252e-10 0 0 -1.7425367252e-10 0 0 -1.7425367252e-10 
0 0 -1.7425367252e-10 0 0 -1.7425367252e-10 0 0 -1.7425367252e-10 
0 0 -1.7425367252e-10 0 0 -1.7425367252e-10 0 0 -1.7425367252e-10 
0 0 -1.7425367252e-10 0 0 -1.7425367252e-10 0 0 -1.7425367252e-10 
0 0 -1.7425367252e-10 0 0 -1.7425367252e-10 0 0 -1.7425367252e-10 
0 0 -1.7425367252e-10 0 0 -1.7425367252e-10 0 0 -1.7425367252e-10 
0 0 -1.7425367252e-10 0 0 -1.7425367252e-10 0 0 -1.7425367252e-10 
0 0 -1.7425367252e-10 0 0 -1.7425367252e-10 0 0 -1.7425367252e-10 
0 0 -1.7425367252e-10 0 0 -1.7425367252e-10 0 0 -1.7425367252e-10 
0 0 -1.7425367252e-10 0 0 -1.7425367252e-10 0 0 -1.7425367252e-10 
0 0 -1.7425367252e-10 0 0 -1.7425367252e-10 0 0 -1.7425367252e-10 
0 0 -1.7425367252e-10 0 0 -1.7425367252e-10 0 0 -1.7425367252e-10 
0 0 -1.7425367252e-10 0 0 -1.7425367252e-10 0 0 -1.7425367252e-10 
0 0 -1.7425367252e-10 0 0 -5.3297119368e-07 0 0 -1.7425367252e-10 
0 0 -1.7425367252e-10 0 0 -1.7425367252e-10 0 0 -1.7425367252e-10 
0 0 -1.7425367252e-10 0 0 -1.7425367252e-10 0 0 -1.7425367252e-10 
0 0 -1.7425367252e-10 0 0 -1.7425367252e-10 0 0 -1.7425367252e-10 
0 0 -1.7425367252e-10 0 0 -1.7425367252e-10 0 0 -1.7425367252e-10 
0 0 -1.7425367252e-10 0 0 -1.7425367252e-10 0 0 -1.7425367252e-10 
0 0 -1.7425367252e-10 0 0 -1.7425367252e-10 0 0 -1.7425367252e-10 
0 0 -1.7425367252e-10 0 0 -1.7425367252e-10 0 0 -1.7425367252e-10 
0 0 -1.7425367252e-10 0 0 -1.7425367252e-10 0 0 -1.7425367252e-10 
0 0 -1.7425367252e-10 0 0 -1.7425367252e-10 0 0 -1.7425367252e-10 
0 0 -1.7425367252e-10 0 0 -1.7425367252e-10 0 0 -1.7425367252e-10 
0 0 -1.7425367252e-10 0 0 -1.7425367252e-10 0 0 -1.7425367252e-10 
0 0 -1.7425367252e-10 0 0 -1.7425367252e-10 0 0 -1.7425367252e-10 
0 0 -1.7425367252e-10 0 0 -1.7425367252e-10 0 0 -1.7425367252e-10 
0 0 -1.7425367252e-10 0 0 -1.7425367252e-10 0 0 -1.7425367252e-10 
0 0 -1.7425367252e-10 0 0 -1.7425367252e-10 0 0 -1.7425367252e-10 
0 0 -1.7425367252e-10 0 0 -1.7425367252e-10 0 0 -1.7425367252e-10 
0 0 -1.7425367252e-10 0 0 -1.7425367252e-10 0 0 -1.7425367252e-10 
0 0 -1.7425367252e-10 0 0 -1.7425367252e-10 0 0 -1.7425367252e-10 
0 0 -1.7425367252e-10 0 0 -1.7425367252e-10 0 0 -1.7425367252e-10 
0 0 -1.7425367252e-10 0 0 -1.7425367252e-10 0 0 -1.7425367252e-10 
0 0 -1.7425367252e-10 0 0 -1.7425367252e-10 0 0 -1.7425367252e-10 
0 0 -1.7425367252e-10 0 0 -1.7425367252e-10 0 0 -1.7425367252e-10 
0 0 -1.7425367252e-10 0 0 -1.7425367252e-10 0 0 -1.7425367252e-10 
0 0 -1.7425367252e-10 0 0 -1.7425367252e-10 0 0 -1.7425367252e-10 
0 0 -1.7425367252e-10 0 0 -1.7425367252e-10 0 0 -1.7425367252e-10 
0 0 -1.7425367252e-10 0 0 -1.7425367252e-10 0 0 -1.7425367252e-10 
0 0 -1.7425367252e-10 0 0 -1.7425367252e-10 0 0 -1.7425367252e-10 
0 0 -1.7425367252e-10 0 0 -1.7425367252e-10 0 0 -1.7425367252e-10 
0 0 -1.7425367252e-10 0 0 -1.7425367252e-10 0 0 -1.7425367252e-10 
0 0 -1.7425367252e-10 0 0 -1.7425367252e-10 0 0 -1.7425367252e-10 
0 0 -1.7425367252e-10 0 0 -1.7425367252e-10 0 0 -1.7425367252e-10 
0 0 -1.7425367252e-10 0 0 -1.7425367252e-10 0 0 -1.7425367252e-10 
0 0 -1.7425367252e-10 0 0 -1.7425367252e-10 0 0 -1.7425367252e-10 
0 0 -1.7425367252e-10 0 0 -1.7425367252e-10 0 0 -1.7425367252e-10 
0 0 -1.7425367252e-10 0 0 -1.7425367252e-10 0 0 -1.7425367252e-10 
0 0 -1.7425367252e-10 0 0 -1.7425367252e-10 0 0 -1.7425367252e-10 
0 0 -1.7425367252e-10 0 0 -1.7425367252e-10 0 0 -1.7425367252e-10 
0 0 -1.7425367252e-10 0 0 -1.7425367252e-10 0 0 -1.7425367252e-10 
0 0 -1.7425367252e-10 0 0 -1.7425367252e-10 0 0 -1.7425367252e-10 
0 0 -1.7425367252e-10 0 0 -1.7425367252e-10 0 0 -1.7425367252e-10 
0 0 -1.7425367252e-10 0 0 -1.7425367252e-10 0 0 -1.7425367252e-10 
0 0 -1.7425367252e-10 0 0 -1.7425367252e-10 0 0 -1.7425367252e-10 
0 0 -1.7425367252e-10 0 0 -1.7425367252e-10 0 0 -1.7425367252e-10 
0 0 -1.7425367252e-10 0 0 -1.7425367252e-10 0 0 -1.7425367252e-10 
0 0 -1.7425367252e-10 0 0 -8.9019973083e-09 0 0 -1.7425367252e-10 
0 0 -1.7425367252e-10 0 0 -1.7425367252e-10 0 0 -1.7425367252e-10 
0 0 -1.7425367252e-10 0 0 -1.7425367252e-10 0 0 -1.7425367252e-10 
0 0 -1.7425367252e-10 0 0 -1.7425367252e-10 0 0 -1.7425367252e-10 
0 0 -1.7425367252e-10 0 0 -1.7425367252e-10 0 0 -1.7425367252e-10 
0 0 -1.7425367252e-10 0 0 -1.7425367252e-10 0 0 -1.7425367252e-10 
0 0 -1.7425367252e-10 0 0 -1.7425367252e-10 0 0 -1.7425367252e-10 
0 0 -1.7425367252e-10 0 0 -1.7425367252e-10 0 0 -1.7425367252e-10 
0 0 -1.7425367252e-10 0 0 -1.7425367252e-10 0 0 -1.7425367252e-10 
0 0 -8.9019973083e-09 0 0 -1.7425367252e-10 0 0 -1.7425367252e-10 
0 0 -1.7425367252e-10 0 0 -1.7425367252e-10 0 0 -1.7425367252e-10 
0 0 -1.7425367252e-10 0 0 -1.7425367252e-10 0 0 -1.7425367252e-10 
0 0 -1.7425367252e-10 0 0 -1.7425367252e-10 0 0 -1.7425367252e-10 
0 0 -8.9019973083e-09 0 0 -1.7425367252e-10 0 0 -1.7425367252e-10 
0 0 -1.7425367252e-10 0 0 -1.7425367252e-10 0 0 -1.7425367252e-10 
0 0 -1.7425367252e-10 0 0 -1.7425367252e-10 0 0 -1.7425367252e-10 
0 0 -1.7425367252e-10 0 0 -1.7425367252e-10 0 0 -1.7425367252e-10 
0 0 -8.9019973083e-09 0 0 -1.7425367252e-10 0 0 -1.7425367252e-10 
0 0 -1.7425367252e-10 0 0 -1.7425367252e-10 0 0 -1.7425367252e-10 
0 0 -1.7425367252e-10 0 0 -1.7425367252e-10 0 0 -1.7425367252e-10 
0 0 -1.7425367252e-10 0 0 -1.7425367252e-10 0 0 -1.7425367252e-10 
0 0 -1.7425367252e-10 0 0 -1.7425367252e-10 0 0 -1.7425367252e-10 
0 0 -1.7425367252e-10 0 0 -8.9019973083e-09 0 0 -1.7425367252e-10 
0 0 -8.9019973083e-09 0 0 -1.7425367252e-10 0 0 -8.9019973083e-09 
0 0 -8.9019973083e-09 0 0 -1.7425367252e-10 0 0 -8.9019973083e-09 
0 0 -1.7425367252e-10 0 0 -6.8918688838e-08 0 0 -1.7425367252e-10 
0 0 -8.9019973083e-09 0 0 -8.9019973083e-09 0 0 -8.9019973083e-09 
0 0 -1.7425367252e-10 0 0 -1.7425367252e-10 0 0 -1.7425367252e-10 
0 0 -1.7425367252e-10 0 0 -1.7425367252e-10 0 0 -1.7425367252e-10 
0 0 -1.7425367252e-10 0 0 -1.7425367252e-10 0 0 -1.7425367252e-10 
0 0 -1.7425367252e-10 0 0 -1.7425367252e-10 0 0 -1.7425367252e-10 
0 0 -1.7425367252e-10 0 0 -8.9019973083e-09 0 0 -1.7425367252e-10 
0 0 -1.7425367252e-10 0 0 -1.7425367252e-10 0 0 -1.7425367252e-10 
0 0 -1.7425367252e-10 0 0 -1.7425367252e-10 0 0 -1.7425367252e-10 
0 0 -1.7425367252e-10 0 0 -1.7425367252e-10 0 0 -1.7425367252e-10 
0 0 -1.7425367252e-10 0 0 -1.7425367252e-10 0 0 -1.7425367252e-10 
0 0 -1.7425367252e-10 0 0 -1.7425367252e-10 0 0 -1.7425367252e-10 
0 0 -1.7425367252e-10 0 0 -1.7425367252e-10 0 0 -1.7425367252e-10 
0 0 -1.7425367252e-10 0 0 -1.7425367252e-10 0 0 -1.7425367252e-10 
0 0 -1.7425367252e-10 0 0 -1.7425367252e-10 0 0 -1.7425367252e-10 
0 0 -1.7425367252e-10 0 0 -1.7425367252e-10 0 0 -1.7425367252e-10 
0 0 -1.7425367252e-10 0 0 -1.7425367252e-10 0 0 -1.7425367252e-10 
0 0 -1.7425367252e-10 0 0 -1.7425367252e-10 0 0 -1.7425367252e-10 
0 0 -1.7425367252e-10 0 0 -1.7425367252e-10 0 0 -1.7425367252e-10 
0 0 -1.7425367252e-10 0 0 -1.7425367252e-10 0 0 -1.7425367252e-10 
0 0 -1.7425367252e-10 0 0 -1.7425367252e-10 0 0 -1.7425367252e-10 
0 0 -1.7425367252e-10 0 0 -1.7425367252e-10 0 0 -1.7425367252e-10 
0 0 -1.7425367252e-10 0 0 -1.7425367252e-10 0 0 -1.7425367252e-10 
0 0 -1.7425367252e-10 0 0 -1.7425367252e-10 0 0 -1.7425367252e-10 
0 0 -1.7425367252e-10 0 0 -1.7425367252e-10 0 0 -1.7425367252e-10 
0 0 -1.7425367252e-10 0 0 -1.7425367252e-10 0 0 -1.7425367252e-10 
0 0 -8.9019973083e-09 0 0 -1.7425367252e-10 0 0 -1.7425367252e-10 
0 0 -1.7425367252e-10 0 0 -1.7425367252e-10 0 0 -1.7425367252e-10 
0 0 -1.7425367252e-10 0 0 -1.7425367252e-10 0 0 -1.7425367252e-10 
0 0 -1.7425367252e-10 0 0 -1.7425367252e-10 0 0 -1.7425367252e-10 
0 0 -1.7425367252e-10 0 0 -1.7425367252e-10 0 0 -1.7425367252e-10 
0 0 -1.7425367252e-10 0 0 -1.7425367252e-10 0 0 -1.7425367252e-10 
0 0 -1.7425367252e-10 0 0 -1.7425367252e-10 0 0 -1.7425367252e-10 
0 0 -1.7425367252e-10 0 0 -1.7425367252e-10 0 0 -1.7425367252e-10 
0 0 -1.7425367252e-10 0 0 -1.7425367252e-10 0 0 -1.7425367252e-10 
0 0 -1.7425367252e-10 0 0 -1.7425367252e-10 0 0 -1.7425367252e-10 

radius 1 648 double
2e-05 2e-05 2e-05 2e-05 2e-05 2e-05 2e-05 2e-05 2e-05 
2e-05 2e-05 2e-05 2e-05 2e-05 2e-05 2e-05 2e-05 2e-05 
2e-05 2e-05 2e-05 2e-05 2e-05 2e-05 2e-05 2e-05 2e-05 
2e-05 2e-05 2e-05 2e-05 2e-05 2e-05 2e-05 2e-05 2e-05 
2e-05 2e-05 2e-05 2e-05 2e-05 2e-05 2e-05 2e-05 2e-05 
2e-05 2e-05 2e-05 2e-05 2e-05 2e-05 2e-05 2e-05 2e-05 
2e-05 2e-05 2e-05 2e-05 2e-05 2e-05 2e-05 2e-05 2e-05 
2e-05 2e-05 2e-05 2e-05 2e-05 2e-05 2e-05 2e-05 2e-05 
2e-05 2e-05 2e-05 2e-05 2e-05 2e-05 2e-05 2e-05 2e-05 
2e-05 2e-05 2e-05 2e-05 2e-05 2e-05 2e-05 2e-05 2e-05 
2e-05 2e-05 2e-05 2e-05 2e-05 2e-05 2e-05 2e-05 2e-05 
2e-05 2e-05 2e-05 2e-05 2e-05 2e-05 2e-05 2e-05 2e-05 
2e-05 2e-05 2e-05 2e-05 2e-05 7.5e-05 2e-05 2e-05 2e-05 
2e-05 2e-05 2e-05 2e-05 2e-05 2e-05 2e-05 2e-05 2e-05 
2e-05 2e-05 2e-05 2e-05 2e-05 2e-05 2e-05 2e-05 2e-05 
2e-05 2e-05 2e-05 2e-05 2e-05 2e-05 2e-05 2e-05 2e-05 
2e-05 2e-05 2e-05 2e-05 7.5e-05 2e-05 2e-05 2e-05 2e-05 
2e-05 2e-05 2e-05 2e-05 2e-05 2e-05 2e-05 2e-05 2e-05 
2e-05 2e-05 2e-05 2e-05 7.5e-05 2e-05 2e-05 2e-05 2e-05 
2e-05 2e-05 2e-05 2e-05 2e-05 2e-05 2e-05 2e-05 2e-05 
2e-05 2e-05 2e-05 2e-05 2e-05 2e-05 2e-05 2e-05 2e-05 
2e-05 2e-05 2e-05 2e-05 2e-05 2e-05 2e-05 2e-05 2e-05 
2e-05 2e-05 2e-05 2e-05 2e-05 2e-05 2e-05 2e-05 2e-05 
2e-05 2e-05 2e-05 2e-05 2e-05 2e-05 2e-05 2e-05 2e-05 
2e-05 2e-05 2e-05 2e-05 2e-05 2e-05 2e-05 2e-05 2e-05 
2e-05 2e-05 2e-05 2e-05 2e-05 2e-05 2e-05 2e-05 2e-05 
2e-05 2e-05 2e-05 2e-05 2e-05 2e-05 2e-05 2e-05 2e-05 
2e-05 2e-05 2e-05 2e-05 2e-05 2e-05 2e-05 2e-05 2e-05 
2e-05 2e-05 2e-05 2e-05 2e-05 2e-05 2e-05 2e-05 2e-05 
2e-05 2e-05 2e-05 2e-05 2e-05 2e-05 2e-05 2e-05 2e-05 
2e-05 2e-05 2e-05 2e-05 2e-05 2e-05 2e-05 2e-05 2e-05 
2e-05 2e-05 2e-05 2e-05 2e-05 2e-05 2e-05 2e-05 2e-05 
2e-05 2e-05 2e-05 2e-05 2e-05 2e-05 2e-05 2e-05 2e-05 
2e-05 2e-05 2e-05 2e-05 2e-05 2e-05 2e-05 2e-05 2e-05 
2e-05 2e-05 2e-05 2e-05 2e-05 2e-05 2e-05 2e-05 2e-05 
2e-05 2e-05 2e-05 2e-05 2e-05 2e-05 2e-05 2e-05 2e-05 
2e-05 2e-05 2e-05 2e-05 2e-05 2e-05 2e-05 0.0003 2e-05 
2e-05 2e-05 2e-05 2e-05 2e-05 2e-05 2e-05 2e-05 2e-05 
2e-05 2e-05 2e-05 2e-05 2e-05 2e-05 2e-05 2e-05 2e-05 
2e-05 2e-05 2e-05 2e-05 2e-05 2e-05 2e-05 2e-05 2e-05 
2e-05 2e-05 2e-05 2e-05 2e-05 2e-05 2e-05 2e-05 2e-05 
2e-05 2e-05 2e-05 2e-05 2e-05 2e-05 2e-05 2e-05 2e-05 
2e-05 2e-05 2e-05 2e-05 2e-05 2e-05 2e-05 2e-05 2e-05 
2e-05 2e-05 2e-05 2e-05 2e-05 2e-05 2e-05 2e-05 2e-05 
2e-05 2e-05 2e-05 2e-05 2e-05 2e-05 2e-05 2e-05 2e-05 
2e-05 2e-05 2e-05 2e-05 2e-05 2e-05 2e-05 2e-05 2e-05 
2e-05 2e-05 2e-05 2e-05 2e-05 2e-05 2e-05 2e-05 2e-05 
2e-05 2e-05 2e-05 2e-05 2e-05 2e-05 2e-05 2e-05 2e-05 
2e-05 2e-05 2e-05 2e-05 2e-05 2e-05 2e-05 2e-05 2e-05 
2e-05 2e-05 2e-05 2e-05 2e-05 2e-05 2e-05 2e-05 2e-05 
2e-05 2e-05 2e-05 2e-05 2e-05 2e-05 2e-05 2e-05 2e-05 
2e-05 2e-05 2e-05 2e-05 2e-05 2e-05 2e-05 7.5e-05 2e-05 
2e-05 2e-05 2e-05 2e-05 2e-05 2e-05 2e-05 2e-05 2e-05 
2e-05 2e-05 2e-05 2e-05 2e-05 2e-05 2e-05 2e-05 2e-05 
2e-05 2e-05 2e-05 2e-05 2e-05 2e-05 7.5e-05 2e-05 2e-05 
2e-05 2e-05 2e-05 2e-05 2e-05 2e-05 2e-05 2e-05 2e-05 
7.5e-05 2e-05 2e-05 2e-05 2e-05 2e-05 2e-05 2e-05 2e-05 
2e-05 2e-05 2e-05 7.5e-05 2e-05 2e-05 2e-05 2e-05 2e-05 
2e-05 2e-05 2e-05 2e-05 2e-05 2e-05 2e-05 2e-05 2e-05 
2e-05 7.5e-05 2e-05 7.5e-05 2e-05 7.5e-05 7.5e-05 2e-05 7.5e-05 
2e-05 0.00015 2e-05 7.5e-05 7.5e-05 7.5e-05 2e-05 2e-05 2e-05 
2e-05 2e-05 2e-05 2e-05 2e-05 2e-05 2e-05 2e-05 2e-05 
2e-05 7.5e-05 2e-05 2e-05 2e-05 2e-05 2e-05 2e-05 2e-05 
2e-05 2e-05 2e-05 2e-05 2e-05 2e-05 2e-05 2e-05 2e-05 
2e-05 2e-05 2e-05 2e-05 2e-05 2e-05 2e-05 2e-05 2e-05 
2e-05 2e-05 2e-05 2e-05 2e-05 2e-05 2e-05 2e-05 2e-05 
2e-05 2e-05 2e-05 2e-05 2e-05 2e-05 2e-05 2e-05 2e-05 
2e-05 2e-05 2e-05 2e-05 2e-05 2e-05 2e-05 2e-05 2e-05 
2e-05 2e-05 2e-05 2e-05 2e-05 2e-05 7.5e-05 2e-05 2e-05 
2e-05 2e-05 2e-05 2e-05 2e-05 2e-05 2e-05 2e-05 2e-05 
2e-05 2e-05 2e-05 2e-05 2e-05 2e-05 2e-05 2e-05 2e-05 
2e-05 2e-05 2e-05 2e-05 2e-05 2e-05 2e-05 2e-05 2e-05 

omega 3 648 double
0 0 0 0 0 0 0 0 0 
0 0 0 0 0 0 0 0 0 
0 0 0 0 0 0 0 0 0 
0 0 0 0 0 0 0 0 0 
0 0 0 0 0 0 0 0 0 
0 0 0 0 0 0 0 0 0 
0 0 0 0 0 0 0 0 0 
0 0 0 0 0 0 0 0 0 
0 0 0 0 0 0 0 0 0 
0 0 0 0 0 0 0 0 0 
0 0 0 0 0 0 0 0 0 
0 0 0 0 0 0 0 0 0 
0 0 0 0 0 0 0 0 0 
0 0 0 0 0 0 0 0 0 
0 0 0 0 0 0 0 0 0 
0 0 0 0 0 0 0 0 0 
0 0 0 0 0 0 0 0 0 
0 0 0 0 0 0 0 0 0 
0 0 0 0 0 0 0 0 0 
0 0 0 0 0 0 0 0 0 
0 0 0 0 0 0 0 0 0 
0 0 0 0 0 0 0 0 0 
0 0 0 0 0 0 0 0 0 
0 0 0 0 0 0 0 0 0 
0 0 0 0 0 0 0 0 0 
0 0 0 0 0 0 0 0 0 
0 0 0 0 0 0 0 0 0 
0 0 0 0 0 0 0 0 0 
0 0 0 0 0 0 0 0 0 
0 0 0 0 0 0 0 0 0 
0 0 0 0 0 0 0 0 0 
0 0 0 0 0 0 0 0 0 
0 0 0 0 0 0 0 0 0 
0 0 0 0 0 0 0 0 0 
0 0 0 0 0 0 0 0 0 
0 0 0 0 0 0 0 0 0 
0 0 0 0 0 0 0 0 0 
0 0 0 0 0 0 0 0 0 
0 0 0 0 0 0 0 0 0 
0 0 0 0 0 0 0 0 0 
0 0 0 0 0 0 0 0 0 
0 0 0 0 0 0 0 0 0 
0 0 0 0 0 0 0 0 0 
0 0 0 0 0 0 0 0 0 
0 0 0 0 0 0 0 0 0 
0 0 0 0 0 0 0 0 0 
0 0 0 0 0 0 0 0 0 
0 0 0 0 0 0 0 0 0 
0 0 0 0 0 0 0 0 0 
0 0 0 0 0 0 0 0 0 
0 0 0 0 0 0 0 0 0 
0 0 0 0 0 0 0 0 0 
0 0 0 0 0 0 0 0 0 
0 0 0 0 0 0 0 0 0 
0 0 0 0 0 0 0 0 0 
0 0 0 0 0 0 0 0 0 
0 0 0 0 0 0 0 0 0 
0 0 0 0 0 0 0 0 0 
0 0 0 0 0 0 0 0 0 
0 0 0 0 0 0 0 0 0 
0 0 0 0 0 0 0 0 0 
0 0 0 0 0 0 0 0 0 
0 0 0 0 0 0 0 0 0 
0 0 0 0 0 0 0 0 0 
0 0 0 0 0 0 0 0 0 
0 0 0 0 0 0 0 0 0 
0 0 0 0 0 0 0 0 0 
0 0 0 0 0 0 0 0 0 
0 0 0 0 0 0 0 0 0 
0 0 0 0 0 0 0 0 0 
0 0 0 0 0 0 0 0 0 
0 0 0 0 0 0 0 0 0 
0 0 0 0 0 0 0 0 0 
0 0 0 0 0 0 0 0 0 
0 0 0 0 0 0 0 0 0 
0 0 0 0 0 0 0 0 0 
0 0 0 0 0 0 0 0 0 
0 0 0 0 0 0 0 0 0 
0 0 0 0 0 0 0 0 0 
0 0 0 0 0 0 0 0 0 
0 0 0 0 0 0 0 0 0 
0 0 0 0 0 0 0 0 0 
0 0 0 0 0 0 0 0 0 
0 0 0 0 0 0 0 0 0 
0 0 0 0 0 0 0 0 0 
0 0 0 0 0 0 0 0 0 
0 0 0 0 0 0 0 0 0 
0 0 0 0 0 0 0 0 0 
0 0 0 0 0 0 0 0 0 
0 0 0 0 0 0 0 0 0 
0 0 0 0 0 0 0 0 0 
0 0 0 0 0 0 0 0 0 
0 0 0 0 0 0 0 0 0 
0 0 0 0 0 0 0 0 0 
0 0 0 0 0 0 0 0 0 
0 0 0 0 0 0 0 0 0 
0 0 0 0 0 0 0 0 0 
0 0 0 0 0 0 0 0 0 
0 0 0 0 0 0 0 0 0 
0 0 0 0 0 0 0 0 0 
0 0 0 0 0 0 0 0 0 
0 0 0 0 0 0 0 0 0 
0 0 0 0 0 0 0 0 0 
0 0 0 0 0 0 0 0 0 
0 0 0 0 0 0 0 0 0 
0 0 0 0 0 0 0 0 0 
0 0 0 0 0 0 0 0 0 
0 0 0 0 0 0 0 0 0 
0 0 0 0 0 0 0 0 0 
0 0 0 0 0 0 0 0 0 
0 0 0 0 0 0 0 0 0 
0 0 0 0 0 0 0 0 0 
0 0 0 0 0 0 0 0 0 
0 0 0 0 0 0 0 0 0 
0 0 0 0 0 0 0 0 0 
0 0 0 0 0 0 0 0 0 
0 0 0 0 0 0 0 0 0 
0 0 0 0 0 0 0 0 0 
0 0 0 0 0 0 0 0 0 
0 0 0 0 0 0 0 0 0 
0 0 0 0 0 0 0 0 0 
0 0 0 0 0 0 0 0 0 
0 0 0 0 0 0 0 0 0 
0 0 0 0 0 0 0 0 0 
0 0 0 0 0 0 0 0 0 
0 0 0 0 0 0 0 0 0 
0 0 0 0 0 0 0 0 0 
0 0 0 0 0 0 0 0 0 
0 0 0 0 0 0 0 0 0 
0 0 0 0 0 0 0 0 0 
0 0 0 0 0 0 0 0 0 
0 0 0 0 0 0 0 0 0 
0 0 0 0 0 0 0 0 0 
0 0 0 0 0 0 0 0 0 
0 0 0 0 0 0 0 0 0 
0 0 0 0 0 0 0 0 0 
0 0 0 0 0 0 0 0 0 
0 0 0 0 0 0 0 0 0 
0 0 0 0 0 0 0 0 0 
0 0 0 0 0 0 0 0 0 
0 0 0 0 0 0 0 0 0 
0 0 0 0 0 0 0 0 0 
0 0 0 0 0 0 0 0 0 
0 0 0 0 0 0 0 0 0 
0 0 0 0 0 0 0 0 0 
0 0 0 0 0 0 0 0 0 
0 0 0 0 0 0 0 0 0 
0 0 0 0 0 0 0 0 0 
0 0 0 0 0 0 0 0 0 
0 0 0 0 0 0 0 0 0 
0 0 0 0 0 0 0 0 0 
0 0 0 0 0 0 0 0 0 
0 0 0 0 0 0 0 0 0 
0 0 0 0 0 0 0 0 0 
0 0 0 0 0 0 0 0 0 
0 0 0 0 0 0 0 0 0 
0 0 0 0 0 0 0 0 0 
0 0 0 0 0 0 0 0 0 
0 0 0 0 0 0 0 0 0 
0 0 0 0 0 0 0 0 0 
0 0 0 0 0 0 0 0 0 
0 0 0 0 0 0 0 0 0 
0 0 0 0 0 0 0 0 0 
0 0 0 0 0 0 0 0 0 
0 0 0 0 0 0 0 0 0 
0 0 0 0 0 0 0 0 0 
0 0 0 0 0 0 0 0 0 
0 0 0 0 0 0 0 0 0 
0 0 0 0 0 0 0 0 0 
0 0 0 0 0 0 0 0 0 
0 0 0 0 0 0 0 0 0 
0 0 0 0 0 0 0 0 0 
0 0 0 0 0 0 0 0 0 
0 0 0 0 0 0 0 0 0 
0 0 0 0 0 0 0 0 0 
0 0 0 0 0 0 0 0 0 
0 0 0 0 0 0 0 0 0 
0 0 0 0 0 0 0 0 0 
0 0 0 0 0 0 0 0 0 
0 0 0 0 0 0 0 0 0 
0 0 0 0 0 0 0 0 0 
0 0 0 0 0 0 0 0 0 
0 0 0 0 0 0 0 0 0 
0 0 0 0 0 0 0 0 0 
0 0 0 0 0 0 0 0 0 
0 0 0 0 0 0 0 0 0 
0 0 0 0 0 0 0 0 0 
0 0 0 0 0 0 0 0 0 
0 0 0 0 0 0 0 0 0 
0 0 0 0 0 0 0 0 0 
0 0 0 0 0 0 0 0 0 
0 0 0 0 0 0 0 0 0 
0 0 0 0 0 0 0 0 0 
0 0 0 0 0 0 0 0 0 
0 0 0 0 0 0 0 0 0 
0 0 0 0 0 0 0 0 0 
0 0 0 0 0 0 0 0 0 
0 0 0 0 0 0 0 0 0 
0 0 0 0 0 0 0 0 0 
0 0 0 0 0 0 0 0 0 
0 0 0 0 0 0 0 0 0 
0 0 0 0 0 0 0 0 0 
0 0 0 0 0 0 0 0 0 
0 0 0 0 0 0 0 0 0 
0 0 0 0 0 0 0 0 0 
0 0 0 0 0 0 0 0 0 
0 0 0 0 0 0 0 0 0 
0 0 0 0 0 0 0 0 0 
0 0 0 0 0 0 0 0 0 
0 0 0 0 0 0 0 0 0 
0 0 0 0 0 0 0 0 0 
0 0 0 0 0 0 0 0 0 
0 0 0 0 0 0 0 0 0 
0 0 0 0 0 0 0 0 0 
0 0 0 0 0 0 0 0 0 
0 0 0 0 0 0 0 0 0 

fx_mag_viz 1 648 double
0 0 0 0 0 0 0 0 0 
0 0 0 0 0 0 0 0 0 
0 0 0 0 0 0 0 0 0 
0 0 0 0 0 0 0 0 0 
0 0 0 0 0 0 0 0 0 
0 0 0 0 0 0 0 0 0 
0 0 0 0 0 0 0 0 0 
0 0 0 0 0 0 0 0 0 
0 0 0 0 0 0 0 0 0 
0 0 0 0 0 0 0 0 0 
0 0 0 0 0 0 0 0 0 
0 0 0 0 0 0 0 0 0 
0 0 0 0 0 0 0 0 0 
0 0 0 0 0 0 0 0 0 
0 0 0 0 0 0 0 0 0 
0 0 0 0 0 0 0 0 0 
0 0 0 0 0 0 0 0 0 
0 0 0 0 0 0 0 0 0 
0 0 0 0 0 0 0 0 0 
0 0 0 0 0 0 0 0 0 
0 0 0 0 0 0 0 0 0 
0 0 0 0 0 0 0 0 0 
0 0 0 0 0 0 0 0 0 
0 0 0 0 0 0 0 0 0 
0 0 0 0 0 0 0 0 0 
0 0 0 0 0 0 0 0 0 
0 0 0 0 0 0 0 0 0 
0 0 0 0 0 0 0 0 0 
0 0 0 0 0 0 0 0 0 
0 0 0 0 0 0 0 0 0 
0 0 0 0 0 0 0 0 0 
0 0 0 0 0 0 0 0 0 
0 0 0 0 0 0 0 0 0 
0 0 0 0 0 0 0 0 0 
0 0 0 0 0 0 0 0 0 
0 0 0 0 0 0 0 0 0 
0 0 0 0 0 0 0 0 0 
0 0 0 0 0 0 0 0 0 
0 0 0 0 0 0 0 0 0 
0 0 0 0 0 0 0 0 0 
0 0 0 0 0 0 0 0 0 
0 0 0 0 0 0 0 0 0 
0 0 0 0 0 0 0 0 0 
0 0 0 0 0 0 0 0 0 
0 0 0 0 0 0 0 0 0 
0 0 0 0 0 0 0 0 0 
0 0 0 0 0 0 0 0 0 
0 0 0 0 0 0 0 0 0 
0 0 0 0 0 0 0 0 0 
0 0 0 0 0 0 0 0 0 
0 0 0 0 0 0 0 0 0 
0 0 0 0 0 0 0 0 0 
0 0 0 0 0 0 0 0 0 
0 0 0 0 0 0 0 0 0 
0 0 0 0 0 0 0 0 0 
0 0 0 0 0 0 0 0 0 
0 0 0 0 0 0 0 0 0 
0 0 0 0 0 0 0 0 0 
0 0 0 0 0 0 0 0 0 
0 0 0 0 0 0 0 0 0 
0 0 0 0 0 0 0 0 0 
0 0 0 0 0 0 0 0 0 
0 0 0 0 0 0 0 0 0 
0 0 0 0 0 0 0 0 0 
0 0 0 0 0 0 0 0 0 
0 0 0 0 0 0 0 0 0 
0 0 0 0 0 0 0 0 0 
0 0 0 0 0 0 0 0 0 
0 0 0 0 0 0 0 0 0 
0 0 0 0 0 0 0 0 0 
0 0 0 0 0 0 0 0 0 
0 0 0 0 0 0 0 0 0 

fy_mag_viz 1 648 double
0 0 0 0 0 0 0 0 0 
0 0 0 0 0 0 0 0 0 
0 0 0 0 0 0 0 0 0 
0 0 0 0 0 0 0 0 0 
0 0 0 0 0 0 0 0 0 
0 0 0 0 0 0 0 0 0 
0 0 0 0 0 0 0 0 0 
0 0 0 0 0 0 0 0 0 
0 0 0 0 0 0 0 0 0 
0 0 0 0 0 0 0 0 0 
0 0 0 0 0 0 0 0 0 
0 0 0 0 0 0 0 0 0 
0 0 0 0 0 0 0 0 0 
0 0 0 0 0 0 0 0 0 
0 0 0 0 0 0 0 0 0 
0 0 0 0 0 0 0 0 0 
0 0 0 0 0 0 0 0 0 
0 0 0 0 0 0 0 0 0 
0 0 0 0 0 0 0 0 0 
0 0 0 0 0 0 0 0 0 
0 0 0 0 0 0 0 0 0 
0 0 0 0 0 0 0 0 0 
0 0 0 0 0 0 0 0 0 
0 0 0 0 0 0 0 0 0 
0 0 0 0 0 0 0 0 0 
0 0 0 0 0 0 0 0 0 
0 0 0 0 0 0 0 0 0 
0 0 0 0 0 0 0 0 0 
0 0 0 0 0 0 0 0 0 
0 0 0 0 0 0 0 0 0 
0 0 0 0 0 0 0 0 0 
0 0 0 0 0 0 0 0 0 
0 0 0 0 0 0 0 0 0 
0 0 0 0 0 0 0 0 0 
0 0 0 0 0 0 0 0 0 
0 0 0 0 0 0 0 0 0 
0 0 0 0 0 0 0 0 0 
0 0 0 0 0 0 0 0 0 
0 0 0 0 0 0 0 0 0 
0 0 0 0 0 0 0 0 0 
0 0 0 0 0 0 0 0 0 
0 0 0 0 0 0 0 0 0 
0 0 0 0 0 0 0 0 0 
0 0 0 0 0 0 0 0 0 
0 0 0 0 0 0 0 0 0 
0 0 0 0 0 0 0 0 0 
0 0 0 0 0 0 0 0 0 
0 0 0 0 0 0 0 0 0 
0 0 0 0 0 0 0 0 0 
0 0 0 0 0 0 0 0 0 
0 0 0 0 0 0 0 0 0 
0 0 0 0 0 0 0 0 0 
0 0 0 0 0 0 0 0 0 
0 0 0 0 0 0 0 0 0 
0 0 0 0 0 0 0 0 0 
0 0 0 0 0 0 0 0 0 
0 0 0 0 0 0 0 0 0 
0 0 0 0 0 0 0 0 0 
0 0 0 0 0 0 0 0 0 
0 0 0 0 0 0 0 0 0 
0 0 0 0 0 0 0 0 0 
0 0 0 0 0 0 0 0 0 
0 0 0 0 0 0 0 0 0 
0 0 0 0 0 0 0 0 0 
0 0 0 0 0 0 0 0 0 
0 0 0 0 0 0 0 0 0 
0 0 0 0 0 0 0 0 0 
0 0 0 0 0 0 0 0 0 
0 0 0 0 0 0 0 0 0 
0 0 0 0 0 0 0 0 0 
0 0 0 0 0 0 0 0 0 
0 0 0 0 0 0 0 0 0 

fz_mag_viz 1 648 double
0 0 0 0 0 0 0 0 0 
0 0 0 0 0 0 0 0 0 
0 0 0 0 0 0 0 0 0 
0 0 0 0 0 0 0 0 0 
0 0 0 0 0 0 0 0 0 
0 0 0 0 0 0 0 0 0 
0 0 0 0 0 0 0 0 0 
0 0 0 0 0 0 0 0 0 
0 0 0 0 0 0 0 0 0 
0 0 0 0 0 0 0 0 0 
0 0 0 0 0 0 0 0 0 
0 0 0 0 0 0 0 0 0 
0 0 0 0 0 0 0 0 0 
0 0 0 0 0 0 0 0 0 
0 0 0 0 0 0 0 0 0 
0 0 0 0 0 0 0 0 0 
0 0 0 0 0 0 0 0 0 
0 0 0 0 0 0 0 0 0 
0 0 0 0 0 0 0 0 0 
0 0 0 0 0 0 0 0 0 
0 0 0 0 0 0 0 0 0 
0 0 0 0 0 0 0 0 0 
0 0 0 0 0 0 0 0 0 
0 0 0 0 0 0 0 0 0 
0 0 0 0 0 0 0 0 0 
0 0 0 0 0 0 0 0 0 
0 0 0 0 0 0 0 0 0 
0 0 0 0 0 0 0 0 0 
0 0 0 0 0 0 0 0 0 
0 0 0 0 0 0 0 0 0 
0 0 0 0 0 0 0 0 0 
0 0 0 0 0 0 0 0 0 
0 0 0 0 0 0 0 0 0 
0 0 0 0 0 0 0 0 0 
0 0 0 0 0 0 0 0 0 
0 0 0 0 0 0 0 0 0 
0 0 0 0 0 0 0 0 0 
0 0 0 0 0 0 0 0 0 
0 0 0 0 0 0 0 0 0 
0 0 0 0 0 0 0 0 0 
0 0 0 0 0 0 0 0 0 
0 0 0 0 0 0 0 0 0 
0 0 0 0 0 0 0 0 0 
0 0 0 0 0 0 0 0 0 
0 0 0 0 0 0 0 0 0 
0 0 0 0 0 0 0 0 0 
0 0 0 0 0 0 0 0 0 
0 0 0 0 0 0 0 0 0 
0 0 0 0 0 0 0 0 0 
0 0 0 0 0 0 0 0 0 
0 0 0 0 0 0 0 0 0 
0 0 0 0 0 0 0 0 0 
0 0 0 0 0 0 0 0 0 
0 0 0 0 0 0 0 0 0 
0 0 0 0 0 0 0 0 0 
0 0 0 0 0 0 0 0 0 
0 0 0 0 0 0 0 0 0 
0 0 0 0 0 0 0 0 0 
0 0 0 0 0 0 0 0 0 
0 0 0 0 0 0 0 0 0 
0 0 0 0 0 0 0 0 0 
0 0 0 0 0 0 0 0 0 
0 0 0 0 0 0 0 0 0 
0 0 0 0 0 0 0 0 0 
0 0 0 0 0 0 0 0 0 
0 0 0 0 0 0 0 0 0 
0 0 0 0 0 0 0 0 0 
0 0 0 0 0 0 0 0 0 
0 0 0 0 0 0 0 0 0 
0 0 0 0 0 0 0 0 0 
0 0 0 0 0 0 0 0 0 
0 0 0 0 0 0 0 0 0 

B_magnitude 1 648 double
0 0 0 0 0 0 0 0 0 
0 0 0 0 0 0 0 0 0 
0 0 0 0 0 0 0 0 0 
0 0 0 0 0 0 0 0 0 
0 0 0 0 0 0 0 0 0 
0 0 0 0 0 0 0 0 0 
0 0 0 0 0 0 0 0 0 
0 0 0 0 0 0 0 0 0 
0 0 0 0 0 0 0 0 0 
0 0 0 0 0 0 0 0 0 
0 0 0 0 0 0 0 0 0 
0 0 0 0 0 0 0 0 0 
0 0 0 0 0 0 0 0 0 
0 0 0 0 0 0 0 0 0 
0 0 0 0 0 0 0 0 0 
0 0 0 0 0 0 0 0 0 
0 0 0 0 0 0 0 0 0 
0 0 0 0 0 0 0 0 0 
0 0 0 0 0 0 0 0 0 
0 0 0 0 0 0 0 0 0 
0 0 0 0 0 0 0 0 0 
0 0 0 0 0 0 0 0 0 
0 0 0 0 0 0 0 0 0 
0 0 0 0 0 0 0 0 0 
0 0 0 0 0 0 0 0 0 
0 0 0 0 0 0 0 0 0 
0 0 0 0 0 0 0 0 0 
0 0 0 0 0 0 0 0 0 
0 0 0 0 0 0 0 0 0 
0 0 0 0 0 0 0 0 0 
0 0 0 0 0 0 0 0 0 
0 0 0 0 0 0 0 0 0 
0 0 0 0 0 0 0 0 0 
0 0 0 0 0 0 0 0 0 
0 0 0 0 0 0 0 0 0 
0 0 0 0 0 0 0 0 0 
0 0 0 0 0 0 0 0 0 
0 0 0 0 0 0 0 0 0 
0 0 0 0 0 0 0 0 0 
0 0 0 0 0 0 0 0 0 
0 0 0 0 0 0 0 0 0 
0 0 0 0 0 0 0 0 0 
0 0 0 0 0 0 0 0 0 
0 0 0 0 0 0 0 0 0 
0 0 0 0 0 0 0 0 0 
0 0 0 0 0 0 0 0 0 
0 0 0 0 0 0 0 0 0 
0 0 0 0 0 0 0 0 0 
0 0 0 0 0 0 0 0 0 
0 0 0 0 0 0 0 0 0 
0 0 0 0 0 0 0 0 0 
0 0 0 0 0 0 0 0 0 
0 0 0 0 0 0 0 0 0 
0 0 0 0 0 0 0 0 0 
0 0 0 0 0 0 0 0 0 
0 0 0 0 0 0 0 0 0 
0 0 0 0 0 0 0 0 0 
0 0 0 0 0 0 0 0 0 
0 0 0 0 0 0 0 0 0 
0 0 0 0 0 0 0 0 0 
0 0 0 0 0 0 0 0 0 
0 0 0 0 0 0 0 0 0 
0 0 0 0 0 0 0 0 0 
0 0 0 0 0 0 0 0 0 
0 0 0 0 0 0 0 0 0 
0 0 0 0 0 0 0 0 0 
0 0 0 0 0 0 0 0 0 
0 0 0 0 0 0 0 0 0 
0 0 0 0 0 0 0 0 0 
0 0 0 0 0 0 0 0 0 
0 0 0 0 0 0 0 0 0 
0 0 0 0 0 0 0 0 0 

B_gradient_mag 1 648 double
0 0 0 0 0 0 0 0 0 
0 0 0 0 0 0 0 0 0 
0 0 0 0 0 0 0 0 0 
0 0 0 0 0 0 0 0 0 
0 0 0 0 0 0 0 0 0 
0 0 0 0 0 0 0 0 0 
0 0 0 0 0 0 0 0 0 
0 0 0 0 0 0 0 0 0 
0 0 0 0 0 0 0 0 0 
0 0 0 0 0 0 0 0 0 
0 0 0 0 0 0 0 0 0 
0 0 0 0 0 0 0 0 0 
0 0 0 0 0 0 0 0 0 
0 0 0 0 0 0 0 0 0 
0 0 0 0 0 0 0 0 0 
0 0 0 0 0 0 0 0 0 
0 0 0 0 0 0 0 0 0 
0 0 0 0 0 0 0 0 0 
0 0 0 0 0 0 0 0 0 
0 0 0 0 0 0 0 0 0 
0 0 0 0 0 0 0 0 0 
0 0 0 0 0 0 0 0 0 
0 0 0 0 0 0 0 0 0 
0 0 0 0 0 0 0 0 0 
0 0 0 0 0 0 0 0 0 
0 0 0 0 0 0 0 0 0 
0 0 0 0 0 0 0 0 0 
0 0 0 0 0 0 0 0 0 
0 0 0 0 0 0 0 0 0 
0 0 0 0 0 0 0 0 0 
0 0 0 0 0 0 0 0 0 
0 0 0 0 0 0 0 0 0 
0 0 0 0 0 0 0 0 0 
0 0 0 0 0 0 0 0 0 
0 0 0 0 0 0 0 0 0 
0 0 0 0 0 0 0 0 0 
0 0 0 0 0 0 0 0 0 
0 0 0 0 0 0 0 0 0 
0 0 0 0 0 0 0 0 0 
0 0 0 0 0 0 0 0 0 
0 0 0 0 0 0 0 0 0 
0 0 0 0 0 0 0 0 0 
0 0 0 0 0 0 0 0 0 
0 0 0 0 0 0 0 0 0 
0 0 0 0 0 0 0 0 0 
0 0 0 0 0 0 0 0 0 
0 0 0 0 0 0 0 0 0 
0 0 0 0 0 0 0 0 0 
0 0 0 0 0 0 0 0 0 
0 0 0 0 0 0 0 0 0 
0 0 0 0 0 0 0 0 0 
0 0 0 0 0 0 0 0 0 
0 0 0 0 0 0 0 0 0 
0 0 0 0 0 0 0 0 0 
0 0 0 0 0 0 0 0 0 
0 0 0 0 0 0 0 0 0 
0 0 0 0 0 0 0 0 0 
0 0 0 0 0 0 0 0 0 
0 0 0 0 0 0 0 0 0 
0 0 0 0 0 0 0 0 0 
0 0 0 0 0 0 0 0 0 
0 0 0 0 0 0 0 0 0 
0 0 0 0 0 0 0 0 0 
0 0 0 0 0 0 0 0 0 
0 0 0 0 0 0 0 0 0 
0 0 0 0 0 0 0 0 0 
0 0 0 0 0 0 0 0 0 
0 0 0 0 0 0 0 0 0 
0 0 0 0 0 0 0 0 0 
0 0 0 0 0 0 0 0 0 
0 0 0 0 0 0 0 0 0 
0 0 0 0 0 0 0 0 0 

