# vtk DataFile Version 5.1
Generated by LIGGGHTS
ASCII
DATASET POLYDATA
POINTS 648 float
-0.0428902 -0.0449088 0.00102 -0.044759 -0.0437614 0.00102062 -0.0308094 -0.0435702 0.00102001 
0.0348044 -0.042095 0.0012139 0.0418836 -0.0421436 0.00105037 -0.00674967 -0.0416523 0.00125092 
0.0414821 -0.0410789 0.00112475 -0.042922 -0.0404536 0.00103501 -0.0334706 -0.0396012 0.00126016 
-0.018434 -0.0405477 0.00105327 0.040047 -0.0404588 0.00102 -0.0289295 -0.0389067 0.00122679 
-0.0108246 -0.0388127 0.00113587 -0.00302782 -0.0385948 0.00102 0.0156715 -0.0391733 0.00102 
0.00798734 -0.0367051 0.00102 0.0308099 -0.0378456 0.00106357 0.000822496 -0.0363122 0.00104904 
0.00594186 -0.0351889 0.00123781 0.0333162 -0.0342631 0.00102802 0.023158 -0.0340207 0.00102066 
0.0244271 -0.0334586 0.00104974 -0.0262624 -0.032473 0.00108799 -0.0232422 -0.0321576 0.00102602 
-0.0266532 -0.0301716 0.00102 -0.0105296 -0.0314142 0.00102 0.0280204 -0.0311414 0.00102009 
-0.0448384 -0.0296834 0.00102 0.00577088 -0.0287415 0.00102 -0.0430551 -0.0267583 0.00123242 
0.000892701 -0.0263701 0.00111982 0.0306875 -0.0259396 0.00121238 0.033456 -0.0256735 0.00102 
0.032808 -0.025967 0.00102 0.0210005 -0.0239559 0.0014053 -0.0408326 -0.0234295 0.00102 
-0.0323128 -0.0219837 0.00134132 -0.0225401 -0.0213878 0.00127643 0.0233461 -0.0214624 0.00112232 
0.0436787 -0.0219137 0.00102057 0.0336491 -0.0197505 0.00102 -0.0296942 -0.0196153 0.0011328 
-0.0108877 -0.0188832 0.00102 0.00156248 -0.0194187 0.00113903 0.0363266 -0.0194176 0.00108851 
-0.0317771 -0.0175651 0.00102 -0.0100897 -0.0180162 0.0013064 0.0030191 -0.0179247 0.00105347 
0.0404767 -0.0183151 0.00102003 -0.0339565 -0.0167518 0.00129527 -0.0257955 -0.0157834 0.00118125 
0.0223879 -0.0163393 0.00102 -0.00444012 -0.0151621 0.00112102 0.0198229 -0.0156851 0.00113797 
-0.0117656 -0.0138394 0.0012521 -0.00710141 -0.0133745 0.00120472 0.00886689 -0.0141191 0.00148978 
0.00689113 -0.0107816 0.00102 0.0277003 -0.0107969 0.00102548 -0.0222502 -0.00974669 0.00122537 
-0.0112192 -0.0104501 0.00102 0.00743742 -0.00926665 0.00102 0.013874 -0.00963069 0.0012763 
0.0251729 -0.00985964 0.00109652 0.0286804 -0.00919085 0.00110112 0.0313953 -0.00974065 0.00123077 
0.0350526 -0.0102353 0.00102 -0.00553214 -0.00871323 0.00125184 -0.0198564 -0.00683511 0.00102 
-0.0150798 -0.00698339 0.00142733 -0.00433253 -0.00676057 0.00124393 -0.0129003 -0.00574839 0.00102 
-0.00747582 -0.00609419 0.00124564 0.0387156 -0.00624884 0.00106478 0.00937085 -0.00418454 0.00102 
0.0131353 -0.00504642 0.00103926 0.021323 -0.00444137 0.0011106 -0.0179231 -0.00300678 0.00102 
-0.0141425 -0.00311887 0.00126064 -0.00783961 -0.000387029 0.00102 -0.00702036 -0.00121172 0.00103318 
-0.000610522 -0.00103491 0.00133672 -0.0260142 0.00017485 0.0012345 0.0384376 0.000848974 0.00102 
-0.00967086 0.00179773 0.00102 0.00417698 0.0024455 0.00102 0.0188762 0.00181355 0.00128884 
0.032558 0.00153523 0.00112055 -0.0325416 0.00283857 0.00115291 0.0449494 0.00392273 0.00121035 
-0.027449 0.00511055 0.0012673 -0.025141 0.00447188 0.00107854 0.0292006 0.00433004 0.00102 
0.0305447 0.00486582 0.00102 0.0404406 0.00462082 0.00106089 -0.0287984 0.00559412 0.00102 
-0.0170872 0.00564833 0.00102 -0.01547 0.00642247 0.00117408 0.0011249 0.00615697 0.00102 
0.021602 0.00540593 0.00102 0.0228765 0.00606581 0.00102 0.0246705 0.0064451 0.0010549 
-0.0426568 0.00723228 0.00102 0.0283387 0.00890506 0.0011299 -0.0392616 0.00972366 0.00102046 
-0.0214351 0.00957734 0.00102229 -0.0101256 0.00978275 0.00102381 0.0197977 0.00963841 0.00104503 
0.0212596 0.00979192 0.00102 0.0211953 0.00966092 0.00104832 0.0399323 0.0117688 0.00102 
0.0398091 0.011618 0.00129821 -0.00279986 0.0127222 0.00103076 0.00861143 0.0123591 0.0012525 
-0.034865 0.0142961 0.00102 -0.0310202 0.0131063 0.00102 8.23501e-07 0.0138406 0.00105176 
0.0143092 0.0139794 0.00102 0.0248423 0.0143007 0.00102 0.0287781 0.014071 0.00102 
-0.0287818 0.014969 0.00148703 -0.00307286 0.0144526 0.00114825 0.0121458 0.0151918 0.00127648 
-0.0286532 0.0159811 0.00129866 0.00517921 0.0169249 0.00107373 0.0418335 0.0161761 0.00127439 
-0.0360536 0.0173104 0.00102 0.0215224 0.0171285 0.00102 -0.0363159 0.0185996 0.00142904 
-0.0214239 0.0189608 0.00102 0.0090081 0.0191686 0.00131291 -0.023041 0.0197144 0.00102371 
-0.022709 0.0198803 0.00105531 -0.0153727 0.020636 0.00102 -0.0282566 0.021284 0.00102 
0.0123926 0.0218243 0.00102 0.03506 0.0228899 0.00102 -0.00739359 0.0259593 0.00102088 
0.0167463 0.0251763 0.00102 0.0226957 0.0260881 0.00105528 0.0395905 0.0272142 0.00112719 
-0.0357156 0.0282031 0.00109617 -0.0127911 0.0299546 0.00122286 -0.0409258 0.0305044 0.00102 
-0.0313244 0.0314049 0.00127395 -0.0200898 0.0311527 0.00105486 0.00372347 0.0304157 0.00113009 
0.0038092 0.0311583 0.00120581 0.0364634 0.0310238 0.00103524 0.0444958 0.0309554 0.00102002 
-0.0073504 0.0318329 0.00122805 0.00390562 0.0317225 0.00122763 -0.0264781 0.032823 0.00102 
0.00284552 0.0345861 0.00102 0.0231674 0.0340949 0.00105693 -0.041477 0.0364172 0.00125145 
0.0297434 0.0373158 0.00102 -0.00973825 0.0391656 0.00112964 0.0165329 0.0385374 0.00102 
0.0238959 0.0383247 0.00103914 -0.039126 0.0399637 0.00127215 -0.0312382 0.0393096 0.00125598 
-0.0112537 0.0395394 0.00106024 0.0221021 0.0401282 0.00109306 0.0251972 0.0393087 0.00102 
0.0163992 0.0415262 0.00102001 0.0222253 0.0407186 0.00113624 -0.0390027 0.0421086 0.00102 
0.0170579 0.0421878 0.00151295 0.0405446 0.0433429 0.00105226 -0.0346971 -0.0446764 0.00248769 
-0.0317519 -0.0446953 0.00178965 -0.00340304 -0.0448428 0.00192103 0.0262096 -0.0449372 0.00170187 
-0.0335565 -0.0442122 0.00131682 0.0181024 -0.0433049 0.00161077 0.0416479 -0.0439733 0.00229819 
-0.0389435 -0.0425966 0.00200209 0.0406519 -0.0427256 0.0024721 -0.0349861 -0.0412827 0.00247942 
0.000425919 -0.0415728 0.00235809 -0.0406141 -0.0405112 0.00174288 -0.0248652 -0.040212 0.00135344 
0.00849583 -0.0405939 0.00179965 0.0244803 -0.0401788 0.00211086 -0.0195638 -0.0385913 0.00201067 
0.0325128 -0.03812 0.00233863 0.0397687 -0.0374633 0.0025068 -0.0168273 -0.0360331 0.00127844 
-0.0177429 -0.0346724 0.00177058 -8.23525e-05 -0.034098 0.00191463 0.0433459 -0.0353282 0.00219585 
-0.00586029 -0.0338127 0.00201625 -0.0210092 -0.0320472 0.00155596 -0.0160452 -0.0323821 0.00225546 
0.0346336 -0.0325969 0.00139124 0.0449741 -0.0303513 0.00157666 0.0346338 -0.0290927 0.00192497 
0.0392765 -0.0300093 0.00145684 -0.0346801 -0.0287009 0.00235671 0.0164647 -0.0275391 0.00224188 
0.0101031 -0.0273014 0.00199648 -0.00446216 -0.0255279 0.0014619 0.0350196 -0.0250011 0.00228109 
0.0347572 -0.0260666 0.00253946 -0.0350278 -0.0224863 0.00244841 0.0109547 -0.0235646 0.0018936 
0.00623721 -0.0211799 0.001109 0.039775 -0.0211058 0.00139528 -0.00827992 -0.020547 0.0021158 
-0.0207996 -0.0190456 0.00182281 0.0134129 -0.0192809 0.00108801 0.0204492 -0.0194639 0.00211831 
-0.0204621 -0.0172006 0.0021403 0.0184681 -0.0172117 0.00110089 -0.0426154 -0.0165053 0.00174643 
-0.0405162 -0.0161033 0.0022701 0.0252581 -0.0163235 0.00268539 0.0296492 -0.015918 0.00142162 
-0.015814 -0.0152491 0.00249529 0.0132043 -0.01541 0.0026003 0.0268005 -0.0146468 0.00244034 
0.0375745 -0.0151367 0.00253782 -0.0388614 -0.0136303 0.00140259 -0.0313057 -0.0141988 0.00247314 
-0.0279963 -0.0141356 0.00269219 -0.0227164 -0.0141288 0.00204882 -0.0341597 -0.0122829 0.00246041 
0.0176437 -0.0119747 0.0014699 0.0322358 -0.0130621 0.0010978 0.0253763 -0.011051 0.00191977 
-0.0253401 -0.0103599 0.00171252 -0.0196799 -0.00931279 0.00203157 -0.0136128 -0.00979682 0.00224187 
-0.042331 -0.00792816 0.00256168 -0.00254943 -0.00825679 0.00184801 -0.0343844 -0.0078404 0.00222947 
-0.0211095 -0.00770044 0.00237865 0.0109664 -0.00760095 0.00135912 0.0129906 -0.00677597 0.00196058 
0.0275881 -0.00673863 0.00219921 0.0404774 -0.00688032 0.00220687 -0.040885 -0.00406647 0.00235057 
-0.042786 -0.00359954 0.0022551 -0.0120059 -0.00345367 0.00183133 -0.0408474 -0.00214648 0.00229267 
-0.0395569 -0.00227866 0.00268466 0.00664535 -0.00164817 0.00234114 -0.0281455 -0.00127675 0.00141161 
0.00127443 -0.000618905 0.0015447 0.0290986 -0.000251763 0.00140635 0.0420414 -0.00101026 0.00168915 
-0.00229178 0.0020129 0.00188382 0.0147261 0.00139147 0.00162676 0.0189244 0.00254502 0.00203848 
-0.0261639 0.00337815 0.00231825 -0.0233311 0.00384073 0.00238043 0.00314898 0.00491531 0.0012036 
0.0260144 0.00429017 0.00262707 -0.0403489 0.00598291 0.00179887 -0.037077 0.00611456 0.0021123 
0.0101693 0.00555192 0.00214851 0.030759 0.00580352 0.00186344 0.0358407 0.00533501 0.00244353 
-0.009285 0.00693532 0.00239552 -0.00598638 0.00689803 0.00207477 0.00533928 0.00728904 0.00217997 
0.0110904 0.00657535 0.00167789 0.0221269 0.00728552 0.00131109 -0.019893 0.00878872 0.0022399 
0.0324887 0.00836074 0.00191182 0.0340899 0.00882812 0.00133327 -0.0408306 0.00999374 0.00197257 
0.0234497 0.00978487 0.00248382 0.027557 0.009967 0.00202333 -0.0394276 0.0109375 0.0015737 
-0.00808524 0.0113378 0.00222563 -0.00071691 0.0108932 0.00268864 -0.0365733 0.0119208 0.00222927 
-0.0429188 0.0135204 0.00225452 0.012949 0.0143048 0.00172257 0.000954082 0.0152563 0.00211943 
0.0440772 0.0154938 0.00269571 -0.0408838 0.0159645 0.0024832 -0.00317984 0.0164631 0.00116327 
-0.0193355 0.018129 0.0021203 0.00546842 0.0177814 0.00216714 0.0407412 0.0174253 0.00122786 
0.00395304 0.0187088 0.00183265 0.018015 0.0183735 0.00168179 0.00742845 0.0199749 0.00252756 
0.00976854 0.0197772 0.00228919 0.00128112 0.0217131 0.00173056 -0.0349287 0.0230684 0.00218633 
-0.0324762 0.0230005 0.00269067 -0.0436572 0.0238848 0.00180336 -0.0267196 0.0236159 0.00182791 
0.021223 0.0244832 0.00265799 0.0307708 0.0242663 0.00130562 -0.0386663 0.0253433 0.00120944 
-0.0267569 0.0263983 0.00140593 -0.00563177 0.0268155 0.00122927 0.00953871 0.0271324 0.00153691 
-0.0214233 0.0285543 0.00156803 0.0397191 0.0283771 0.00251089 -0.0406313 0.0295913 0.00171278 
0.0191509 0.0299648 0.00171136 -0.0219587 0.0304934 0.00254459 -0.0108954 0.0304 0.00190609 
0.0040127 0.0314243 0.00201123 0.026696 0.03017 0.00180928 0.01325 0.0319187 0.00136795 
0.0337272 0.0324898 0.0019335 0.0380057 0.0324307 0.0022069 -0.0337286 0.0337045 0.00152996 
0.0152528 0.033152 0.00158985 0.0214431 0.0335886 0.00248107 -0.00750544 0.0361316 0.0011069 
-0.00196307 0.0366495 0.0021041 -0.0245447 0.0378537 0.00185127 0.00367032 0.0371324 0.0023749 
-0.00883869 0.0381834 0.00263034 -0.0375088 0.0393741 0.00217405 -0.0133259 0.0414802 0.00169998 
0.0294278 0.0431452 0.00129677 -0.0205282 0.0432397 0.00122038 -0.0390775 0.0447256 0.00273209 
0.0171919 0.0449185 0.002443 0.0211706 0.0445491 0.00248268 -0.027409 -0.0433703 0.00261893 
-0.00396528 -0.0444182 0.0033612 0.0145521 -0.0432303 0.00272499 0.0195053 -0.043722 0.00303058 
-0.0248654 -0.0427111 0.00254911 0.0131812 -0.0427533 0.00295967 0.0201641 -0.0426709 0.0028665 
0.0248068 -0.0428986 0.0025499 -0.0136468 -0.0412372 0.00315569 0.0166138 -0.0412108 0.00361466 
0.0238162 -0.0409762 0.00340019 0.0338942 -0.0410147 0.00275809 0.0424299 -0.0409921 0.00305846 
-0.0169239 -0.0402939 0.00268924 -0.00670669 -0.0394183 0.00277091 -0.0370475 -0.0370945 0.00328558 
0.00985621 -0.0367022 0.00359249 -0.0439713 -0.0357399 0.00266756 -0.0309963 -0.0355024 0.00299827 
-0.0273176 -0.0361067 0.00271602 -0.00161929 -0.0353994 0.00326628 0.0195647 -0.0366528 0.00281066 
0.0307351 -0.0355434 0.00296524 0.0355384 -0.0354155 0.00290729 -0.0179089 -0.0346335 0.00195485 
0.0077947 -0.0345433 0.00320214 0.00879071 -0.0344865 0.0025755 0.0403097 -0.0347888 0.00321918 
0.043014 -0.0343178 0.00222966 -0.0427235 -0.0332389 0.00261873 -0.0177803 -0.0340186 0.00300421 
-0.0161578 -0.0337243 0.00288352 0.027474 -0.0338615 0.00289288 -0.0376897 -0.0314333 0.00292366 
-0.0233761 -0.031813 0.00324035 0.00802514 -0.031483 0.00292552 -0.0386911 -0.0311434 0.00310519 
-0.0220587 -0.0306349 0.00344217 0.010226 -0.0308634 0.00289445 -0.0414327 -0.0290659 0.00347006 
-0.0263426 -0.0292431 0.00358347 0.00231692 -0.0294453 0.00274952 0.023019 -0.0293484 0.00319747 
-0.0401314 -0.0280847 0.00327216 -0.0240024 -0.0280603 0.00370729 0.0153133 -0.0285941 0.00300352 
0.0156293 -0.0283842 0.00197806 -0.00580099 -0.0272788 0.00270383 0.03382 -0.0268981 0.00339696 
-0.0338231 -0.0250135 0.00284974 -0.00863888 -0.0237376 0.00298239 0.00179778 -0.0247441 0.00273782 
0.00558373 -0.0242787 0.00340841 0.00538025 -0.0241403 0.00300585 0.0102479 -0.024092 0.00389326 
0.0155599 -0.0240909 0.00248876 -0.0127621 -0.0231756 0.00292824 0.0115492 -0.0227248 0.00272629 
0.0240101 -0.0228809 0.00291664 0.035159 -0.023363 0.0035052 -0.0291427 -0.0219343 0.0025376 
-0.0164034 -0.0216001 0.003414 0.0394323 -0.021923 0.00360687 -0.0210835 -0.0209207 0.00323246 
-0.0033641 -0.0204173 0.00321863 0.00548761 -0.0197918 0.00361356 -0.0328213 -0.0176588 0.00323351 
-0.0147645 -0.0165889 0.00309584 0.038292 -0.016257 0.00304709 -0.0408642 -0.0154151 0.00330032 
0.0249316 -0.014475 0.00262303 0.0323803 -0.0150629 0.003454 -0.0329121 -0.0139828 0.0026111 
-0.0186412 -0.0134353 0.0030882 0.0144468 -0.013247 0.00307912 0.0403752 -0.0143085 0.00292798 
-0.0327621 -0.0121928 0.0037013 -0.00528066 -0.0121118 0.00310028 0.0347312 -0.012978 0.00195007 
0.0414517 -0.0114994 0.00337413 0.0218314 -0.00971151 0.00238371 0.0334462 -0.00930086 0.00337182 
0.0406218 -0.0100941 0.00356191 -0.0344646 -0.00725539 0.0029506 -0.0304645 -0.00701594 0.00247467 
-0.0135858 -0.00672635 0.00351647 -0.0101373 -0.00698039 0.00255158 -0.00401126 -0.00720159 0.00276199 
0.0161928 -0.00760918 0.00307968 -0.00720807 -0.00608605 0.00311656 0.00523139 -0.00599236 0.00357494 
-0.0253129 -0.0039775 0.00285094 0.0180458 -0.00470109 0.00364955 0.0180565 -0.00487531 0.00265177 
0.0200271 -0.00425623 0.00323086 -0.0107529 -0.00365687 0.00349515 -0.00941413 -0.00330341 0.00347167 
0.00975646 -0.00313231 0.00303024 0.0293019 -0.00298432 0.0027214 -0.0198668 -0.00211416 0.00271785 
-0.00896956 -0.00131708 0.00297876 0.0168839 -0.00210364 0.00288144 -0.0376932 -0.000132947 0.00310192 
-0.0283489 -0.000417126 0.00347105 -0.0153419 -0.00108619 0.00341227 0.0140084 -6.89735e-05 0.00343619 
0.039455 -0.000236508 0.00329772 -0.0416237 0.00110806 0.00326091 -0.0332593 0.000859011 0.00210722 
0.0407777 0.000744206 0.00360463 -0.0131355 0.00164571 0.0027881 0.0116524 0.00206193 0.00352236 
0.0362421 0.00170773 0.00339125 -0.0137512 0.00384646 0.00284241 0.00243665 0.00282786 0.00360188 
0.0183943 0.00266245 0.00311105 0.0323225 0.00436429 0.00287365 -0.0406381 0.00555966 0.00318571 
-0.00723413 0.00605583 0.00324924 0.0250346 0.00641518 0.00360157 0.0332757 0.00539899 0.00341429 
-0.0429246 0.00657681 0.00319275 -0.0105861 0.00898083 0.00337185 0.0142017 0.0079404 0.00289383 
0.0202046 0.00840095 0.00291145 -0.0349081 0.00917553 0.0027829 0.00474506 0.0103043 0.00318856 
0.00978397 0.00922321 0.0027333 -0.0350204 0.0121089 0.0027953 -0.00831541 0.0129665 0.00279825 
0.00243185 0.0120975 0.00254001 0.0128044 0.0127337 0.00264287 0.014866 0.0127598 0.00310984 
0.0261916 0.0119357 0.00337265 -0.00841171 0.0143034 0.00358734 -0.00867948 0.0139924 0.00360627 
0.00789931 0.0136568 0.00262983 0.0311878 0.014057 0.00297608 0.0336082 0.013194 0.00279826 
0.0396593 0.013993 0.00342084 0.0441199 0.0136981 0.0029129 -0.0231109 0.0157017 0.00296403 
-0.0196462 0.0155185 0.00289042 -0.0161548 0.0159009 0.00223537 -0.00443291 0.0160613 0.00324582 
0.00976298 0.0163696 0.00360206 0.0226738 0.0181095 0.0026842 0.0256029 0.0175394 0.00297747 
-0.0436896 0.0195853 0.00234982 0.00757299 0.0192258 0.00266584 0.0122157 0.0191756 0.00263335 
0.0388885 0.0193682 0.00269003 -0.0431379 0.0208085 0.00259564 0.0350116 0.0207306 0.00288258 
-0.0287332 0.0215601 0.00329476 -0.0122989 0.0222019 0.00355781 0.0362273 0.0220011 0.00332177 
0.0398418 0.0217469 0.00293645 -0.0421793 0.0225172 0.00343757 -0.0295899 0.0232577 0.00272155 
-0.0148746 0.0223253 0.0033722 0.00126512 0.0228658 0.00352062 0.0146363 0.0223077 0.00281953 
-0.0138035 0.0240512 0.0022356 -0.00782209 0.0241861 0.0034573 0.00264144 0.0247174 0.00318407 
0.0181332 0.0246356 0.00276266 0.0258603 0.0235991 0.0027233 0.0438582 0.0244724 0.00314396 
-0.0132251 0.0252506 0.0020205 -0.0190887 0.0269029 0.00364384 -0.0128609 0.0265935 0.00284022 
-0.0114472 0.026715 0.00340504 0.00834461 0.0278725 0.00310033 -0.0376379 0.0294143 0.00353369 
0.0434247 0.0295768 0.00315854 0.00519606 0.0301696 0.00291184 -0.0213481 0.0319153 0.0025906 
-0.00435696 0.0325462 0.00305855 0.0191028 0.0315895 0.00294408 0.0193546 0.0324404 0.00347879 
0.0372507 0.0318783 0.00294724 -0.0425374 0.0333781 0.00272031 0.00727395 0.0332762 0.00296209 
-0.00472634 0.0344449 0.00302629 0.00317215 0.0343196 0.00297314 0.0278529 0.0342296 0.00285226 
-0.0407273 0.0358476 0.00322211 0.00888594 0.0360502 0.00290258 0.0030545 0.0369981 0.00332999 
0.0311732 0.0371467 0.00349938 -0.00647711 0.0391566 0.00278138 -0.00585061 0.0388609 0.00355622 
0.0281745 0.039089 0.00277733 0.00201585 0.0404036 0.00298412 0.00805094 0.0422278 0.00254348 
-0.0181988 0.0434549 0.00260961 0.00528787 0.0432844 0.00334919 0.0114086 0.0440135 0.0026209 
0.0352701 0.0439749 0.00297274 0.0352379 0.0438995 0.00285951 0.0399235 0.0434757 0.00272604 
-0.0160353 0.0448572 0.00341155 -0.0234086 -0.038644 0.00379474 -0.00338111 -0.0363358 0.0036893 
0.0268369 -0.0315202 0.0046064 -0.0432264 -0.0264101 0.00366375 -0.0240719 -0.0268296 0.00472565 
0.0054016 -0.025334 0.00383611 -0.038621 -0.0229432 0.00427675 -0.0269092 -0.0125643 0.00405662 
-0.038829 -0.00978443 0.00459839 -0.0214415 -0.007536 0.004992 -0.00552594 0.00555795 0.00340877 
-0.0408092 0.00981999 0.00458564 0.00418285 0.0112423 0.00437375 0.000162142 0.0251126 0.00422652 
-0.0102477 0.0267602 0.00457588 -0.0359241 0.0337864 0.00422659 0.0132394 0.0345575 0.00437117 
-0.0379532 0.0399341 0.0040519 -0.00785852 0.041878 0.00455904 0.0430506 0.0422314 0.00452276 
-0.0190394 0.0446837 0.00436001 0.0339316 -0.041715 0.00513807 0.00264867 -0.0338128 0.00518065 
0.0282033 -0.0178095 0.00509141 0.0448793 -0.00396119 0.00472263 0.00265626 0.00371614 0.00545502 
0.0114764 0.0140289 0.00491946 -0.0152062 0.0294088 0.00539242 0.0164577 0.0353116 0.00563637 
0.0341086 -0.0368686 0.00709012 -0.0396817 -0.0304797 0.00621041 -0.00682403 -0.0314098 0.00620125 
-0.0139777 -0.0223984 0.00613151 0.0262592 -0.0217201 0.00712422 0.0352883 -0.0103067 0.00711812 
-0.0442311 0.00821601 0.00596455 -0.032208 0.0306075 0.00627528 0.0147823 -0.0446949 0.00734254 
-0.0183202 -0.0175475 0.00790127 0.0386193 -0.00496685 0.00729323 0.0320014 0.00756294 0.00841569 
-0.0122189 0.0175978 0.00728361 0.00153271 0.0201988 0.00834909 -0.014478 0.0275162 0.00829817 
0.0354139 0.0312817 0.0083991 -0.0422696 0.0340949 0.00812043 0.0323804 -0.0132471 0.00892542 
0.0342493 -0.0115037 0.00879732 -0.00474481 -0.00600267 0.00969087 0.0277548 0.0042931 0.0088914 
0.023953 0.00820576 0.00959775 0.012585 0.0155082 0.00960201 -0.0368667 0.0306348 0.0095576 
0.0412685 -0.0295104 0.0102106 -0.0419519 -0.0259749 0.0108618 0.0218308 -0.0192565 0.0103176 
0.0272875 -0.0186725 0.010142 0.0223025 -0.0112244 0.0101623 0.0153641 0.0146287 0.0111628 
-0.0269229 0.0267788 0.0103879 -0.0260391 0.0304395 0.0102182 -0.0225361 -0.0441701 0.0124386 
-0.0393221 -0.0167834 0.0121442 -0.0207563 -0.0111167 0.0120018 -0.0449336 -0.00957357 0.0122084 
-0.0326334 -0.00963456 0.0123892 0.0127657 -0.00746761 0.0115196 0.00308146 0.0401468 0.0120952 
0.00513794 0.0433856 0.0121543 0.0419483 -0.0348097 0.0140144 -0.0329608 -0.0218045 0.0138417 
-0.0371624 0.011326 0.0139387 -0.0245993 0.0193658 0.0131157 -0.0197415 0.0344175 0.0129394 
0.0185094 -0.042363 0.0144344 -0.015788 -0.0282898 0.0151576 -0.0336946 -0.0248459 0.0145582 
-0.0328109 -0.0226975 0.0146954 0.0414834 -0.0181367 0.0148481 0.0302919 -0.0148257 0.0149186 
-0.024842 -0.00884532 0.0141198 0.0379188 0.0120326 0.0152435 0.0323341 0.0191974 0.0141411 
0.0104707 0.0313218 0.0140998 0.0439232 0.0371117 0.0148131 -0.0281804 0.0418824 0.0149771 
-0.0440308 0.0448256 0.0141596 -0.0155539 0.0359545 0.0154825 -0.0385899 -0.0405251 0.0175109 
-0.0420316 -0.0145538 0.0170508 0.0414788 -0.00521487 0.0176948 0.00347554 0.00338662 0.0171006 
-0.0437633 0.0406561 0.0172377 -0.00521279 -0.0413279 0.0183685 0.0433204 -0.0141837 0.0189904 
-0.0386256 -0.00983966 0.0183345 -0.0356048 -0.000104637 0.0189187 -0.0081225 0.0151775 0.0190717 
-0.0144089 0.0201081 0.0188577 -0.0256005 0.0215871 0.019218 -0.0296003 0.0277025 0.0183884 
0.0188903 -0.0308528 0.0204656 -0.0207679 -0.0256315 0.0207411 0.0282359 -0.00877456 0.0204692 
0.0154702 -0.00154679 0.019626 -0.00757157 0.00454821 0.0200617 0.0289145 -0.0340196 0.0210589 
0.00357123 -0.00830953 0.020942 -0.00254916 -0.00379952 0.0211665 0.00643655 -0.000956063 0.0213439 
0.00635633 0.000852437 0.0216948 0.0133448 0.00646544 0.0213806 0.0131273 0.040817 0.021094 
0.00741479 -0.0295782 0.024085 -0.0170112 0.0231088 0.0256966 0.0242571 -0.0100823 0.0265758 

VERTICES 649 648
OFFSETS vtktypeint64
0 1 2 3 4 5 6 7 8 
9 10 11 12 13 14 15 16 17 
18 19 20 21 22 23 24 25 26 
27 28 29 30 31 32 33 34 35 
36 37 38 39 40 41 42 43 44 
45 46 47 48 49 50 51 52 53 
54 55 56 57 58 59 60 61 62 
63 64 65 66 67 68 69 70 71 
72 73 74 75 76 77 78 79 80 
81 82 83 84 85 86 87 88 89 
90 91 92 93 94 95 96 97 98 
99 100 101 102 103 104 105 106 107 
108 109 110 111 112 113 114 115 116 
117 118 119 120 121 122 123 124 125 
126 127 128 129 130 131 132 133 134 
135 136 137 138 139 140 141 142 143 
144 145 146 147 148 149 150 151 152 
153 154 155 156 157 158 159 160 161 
162 163 164 165 166 167 168 169 170 
171 172 173 174 175 176 177 178 179 
180 181 182 183 184 185 186 187 188 
189 190 191 192 193 194 195 196 197 
198 199 200 201 202 203 204 205 206 
207 208 209 210 211 212 213 214 215 
216 217 218 219 220 221 222 223 224 
225 226 227 228 229 230 231 232 233 
234 235 236 237 238 239 240 241 242 
243 244 245 246 247 248 249 250 251 
252 253 254 255 256 257 258 259 260 
261 262 263 264 265 266 267 268 269 
270 271 272 273 274 275 276 277 278 
279 280 281 282 283 284 285 286 287 
288 289 290 291 292 293 294 295 296 
297 298 299 300 301 302 303 304 305 
306 307 308 309 310 311 312 313 314 
315 316 317 318 319 320 321 322 323 
324 325 326 327 328 329 330 331 332 
333 334 335 336 337 338 339 340 341 
342 343 344 345 346 347 348 349 350 
351 352 353 354 355 356 357 358 359 
360 361 362 363 364 365 366 367 368 
369 370 371 372 373 374 375 376 377 
378 379 380 381 382 383 384 385 386 
387 388 389 390 391 392 393 394 395 
396 397 398 399 400 401 402 403 404 
405 406 407 408 409 410 411 412 413 
414 415 416 417 418 419 420 421 422 
423 424 425 426 427 428 429 430 431 
432 433 434 435 436 437 438 439 440 
441 442 443 444 445 446 447 448 449 
450 451 452 453 454 455 456 457 458 
459 460 461 462 463 464 465 466 467 
468 469 470 471 472 473 474 475 476 
477 478 479 480 481 482 483 484 485 
486 487 488 489 490 491 492 493 494 
495 496 497 498 499 500 501 502 503 
504 505 506 507 508 509 510 511 512 
513 514 515 516 517 518 519 520 521 
522 523 524 525 526 527 528 529 530 
531 532 533 534 535 536 537 538 539 
540 541 542 543 544 545 546 547 548 
549 550 551 552 553 554 555 556 557 
558 559 560 561 562 563 564 565 566 
567 568 569 570 571 572 573 574 575 
576 577 578 579 580 581 582 583 584 
585 586 587 588 589 590 591 592 593 
594 595 596 597 598 599 600 601 602 
603 604 605 606 607 608 609 610 611 
612 613 614 615 616 617 618 619 620 
621 622 623 624 625 626 627 628 629 
630 631 632 633 634 635 636 637 638 
639 640 641 642 643 644 645 646 647 
648 
CONNECTIVITY vtktypeint64
0 1 2 3 4 5 6 7 8 
9 10 11 12 13 14 15 16 17 
18 19 20 21 22 23 24 25 26 
27 28 29 30 31 32 33 34 35 
36 37 38 39 40 41 42 43 44 
45 46 47 48 49 50 51 52 53 
54 55 56 57 58 59 60 61 62 
63 64 65 66 67 68 69 70 71 
72 73 74 75 76 77 78 79 80 
81 82 83 84 85 86 87 88 89 
90 91 92 93 94 95 96 97 98 
99 100 101 102 103 104 105 106 107 
108 109 110 111 112 113 114 115 116 
117 118 119 120 121 122 123 124 125 
126 127 128 129 130 131 132 133 134 
135 136 137 138 139 140 141 142 143 
144 145 146 147 148 149 150 151 152 
153 154 155 156 157 158 159 160 161 
162 163 164 165 166 167 168 169 170 
171 172 173 174 175 176 177 178 179 
180 181 182 183 184 185 186 187 188 
189 190 191 192 193 194 195 196 197 
198 199 200 201 202 203 204 205 206 
207 208 209 210 211 212 213 214 215 
216 217 218 219 220 221 222 223 224 
225 226 227 228 229 230 231 232 233 
234 235 236 237 238 239 240 241 242 
243 244 245 246 247 248 249 250 251 
252 253 254 255 256 257 258 259 260 
261 262 263 264 265 266 267 268 269 
270 271 272 273 274 275 276 277 278 
279 280 281 282 283 284 285 286 287 
288 289 290 291 292 293 294 295 296 
297 298 299 300 301 302 303 304 305 
306 307 308 309 310 311 312 313 314 
315 316 317 318 319 320 321 322 323 
324 325 326 327 328 329 330 331 332 
333 334 335 336 337 338 339 340 341 
342 343 344 345 346 347 348 349 350 
351 352 353 354 355 356 357 358 359 
360 361 362 363 364 365 366 367 368 
369 370 371 372 373 374 375 376 377 
378 379 380 381 382 383 384 385 386 
387 388 389 390 391 392 393 394 395 
396 397 398 399 400 401 402 403 404 
405 406 407 408 409 410 411 412 413 
414 415 416 417 418 419 420 421 422 
423 424 425 426 427 428 429 430 431 
432 433 434 435 436 437 438 439 440 
441 442 443 444 445 446 447 448 449 
450 451 452 453 454 455 456 457 458 
459 460 461 462 463 464 465 466 467 
468 469 470 471 472 473 474 475 476 
477 478 479 480 481 482 483 484 485 
486 487 488 489 490 491 492 493 494 
495 496 497 498 499 500 501 502 503 
504 505 506 507 508 509 510 511 512 
513 514 515 516 517 518 519 520 521 
522 523 524 525 526 527 528 529 530 
531 532 533 534 535 536 537 538 539 
540 541 542 543 544 545 546 547 548 
549 550 551 552 553 554 555 556 557 
558 559 560 561 562 563 564 565 566 
567 568 569 570 571 572 573 574 575 
576 577 578 579 580 581 582 583 584 
585 586 587 588 589 590 591 592 593 
594 595 596 597 598 599 600 601 602 
603 604 605 606 607 608 609 610 611 
612 613 614 615 616 617 618 619 620 
621 622 623 624 625 626 627 628 629 
630 631 632 633 634 635 636 637 638 
639 640 641 642 643 644 645 646 647 

POINT_DATA 648
FIELD FieldData 12
id 1 648 int
164 463 200 140 218 457 207 134 256 
35 508 312 34 92 459 115 356 24 
367 88 51 347 303 404 304 185 107 
137 331 128 291 121 190 267 234 282 
576 64 472 317 470 479 154 440 238 
439 247 289 355 73 176 444 381 168 
215 490 441 106 292 227 231 428 127 
427 483 157 293 324 72 522 6 383 
243 299 370 515 125 57 385 132 66 
564 83 465 36 175 186 538 334 86 
284 56 418 458 141 407 478 245 456 
396 467 353 450 129 261 197 288 255 
214 420 432 373 60 401 297 169 322 
150 491 310 48 202 308 228 193 40 
433 339 485 110 364 521 149 166 49 
18 219 162 195 163 461 410 504 506 
488 187 201 158 26 327 253 148 270 
85 251 233 362 320 246 328 523 318 
155 435 386 412 62 372 434 272 275 
242 98 534 366 346 31 258 471 562 
591 549 87 136 326 210 359 122 226 
518 388 605 571 307 570 543 352 294 
533 354 445 645 604 335 430 526 192 
167 237 174 177 44 448 298 551 496 
572 553 422 374 376 290 194 58 306 
276 612 380 349 566 340 23 248 264 
95 260 563 511 336 580 615 368 567 
263 257 360 382 135 542 365 341 80 
565 90 77 519 212 593 379 501 495 
546 454 153 425 213 426 528 423 124 
145 165 453 296 480 601 442 221 345 
384 41 469 358 315 473 184 587 392 
417 117 281 514 337 330 130 191 109 
78 189 100 408 280 199 209 179 524 
321 419 343 332 268 29 180 466 348 
579 235 452 232 437 482 559 76 361 
108 406 476 55 438 188 89 84 93 
113 414 203 390 68 52 429 577 271 
99 314 411 102 22 487 82 159 436 
492 344 402 489 319 69 47 229 350 
156 589 477 239 505 333 250 283 393 
295 139 103 502 96 147 120 409 183 
415 493 116 79 484 223 71 416 449 
323 329 547 160 111 403 25 28 274 
462 170 143 240 74 500 59 460 211 
146 43 259 638 101 38 311 53 399 
32 39 42 278 224 377 285 252 11 
105 171 142 20 592 405 151 371 204 
205 217 265 2 75 389 196 499 208 
61 300 244 305 216 503 486 474 126 
301 144 424 112 400 338 497 181 262 
273 378 21 446 17 119 46 395 236 
363 63 70 178 468 220 15 54 118 
152 443 447 161 357 33 138 431 529 
279 287 254 325 394 104 97 14 520 
12 507 206 131 498 266 30 509 451 
114 81 583 222 481 65 94 455 225 
387 313 421 309 286 182 198 413 45 
536 123 91 375 342 302 397 475 351 
614 173 67 5 527 13 532 37 8 
16 10 545 4 464 9 535 494 391 
249 277 19 172 597 616 517 50 598 
633 540 552 626 525 398 513 573 3 
316 596 241 539 133 556 7 561 369 
623 550 530 628 557 613 510 560 594 
548 574 558 516 599 622 637 269 230 
618 585 554 617 27 643 586 584 578 
595 582 600 635 629 581 541 603 537 
569 620 607 611 531 555 639 624 648 
590 647 641 575 632 644 544 568 619 
625 646 609 636 627 602 610 631 634 
608 642 621 630 512 606 640 588 1 

type 1 648 int
1 1 1 1 1 1 1 1 1 
1 1 1 1 1 1 1 1 1 
1 1 1 1 1 1 1 1 1 
1 1 1 1 1 1 1 1 1 
1 1 1 1 1 1 1 1 1 
1 1 1 1 1 1 1 1 1 
1 1 1 1 1 1 1 1 1 
1 1 1 1 1 1 1 2 1 
1 1 1 1 1 1 1 1 1 
1 1 1 1 1 1 1 1 1 
1 1 1 1 1 1 1 1 1 
1 1 1 1 1 1 1 1 1 
1 1 1 1 1 1 1 1 1 
1 1 1 1 1 1 1 1 1 
1 1 1 1 1 1 1 1 1 
1 1 1 1 1 1 1 1 1 
1 1 1 1 1 1 1 1 1 
1 1 1 1 1 1 1 1 1 
1 1 1 1 1 1 1 1 1 
1 1 1 1 1 1 1 1 1 
1 1 1 1 1 1 1 1 1 
1 1 1 1 1 1 1 1 1 
1 1 1 1 1 1 1 1 1 
1 1 1 1 1 1 1 1 1 
1 1 1 1 1 1 1 1 1 
1 1 1 1 1 1 1 1 1 
1 1 1 1 1 1 1 1 1 
1 1 1 1 1 1 1 1 1 
1 1 1 1 1 1 1 1 1 
1 1 1 1 1 1 1 1 1 
1 1 1 1 1 1 1 1 1 
1 1 1 1 1 1 1 1 1 
1 1 1 1 1 1 1 1 1 
1 1 1 1 1 1 1 1 1 
1 1 1 1 1 1 1 1 1 
1 1 1 1 1 1 1 1 1 
1 1 1 1 1 1 1 1 1 
1 1 1 1 1 1 1 1 1 
1 1 1 1 1 1 1 1 1 
1 1 1 1 1 1 1 1 1 
1 1 1 1 1 1 1 1 1 
1 1 1 1 1 1 1 1 1 
1 1 1 1 1 1 1 1 1 
1 1 1 1 1 1 1 1 1 
1 1 1 1 1 1 1 1 1 
1 1 1 1 1 1 1 1 1 
1 1 1 1 1 1 1 1 2 
1 1 1 1 1 1 1 1 1 
1 1 1 3 1 1 1 1 1 
1 1 1 1 1 1 1 1 1 
1 1 1 1 1 1 1 1 1 
1 1 1 1 1 1 1 1 1 
1 1 1 1 1 1 2 1 1 
1 1 1 1 1 1 1 1 1 
1 1 1 1 1 1 1 2 1 
2 1 1 1 1 1 1 1 1 
1 1 1 1 1 1 1 1 1 
1 1 1 1 1 1 1 1 1 
1 1 1 1 1 1 1 1 1 
1 1 1 2 1 2 1 1 2 
2 2 1 2 1 2 1 1 1 
1 1 1 1 1 1 1 1 1 
1 1 1 1 1 1 1 1 2 
1 1 1 1 1 1 2 1 1 
1 1 1 1 1 1 1 1 1 
1 1 1 2 1 1 1 1 1 
1 1 1 1 1 1 1 1 1 
1 1 1 1 1 1 1 1 1 
1 1 1 1 1 1 1 1 1 
1 1 1 1 1 1 1 1 1 
1 1 1 1 1 1 1 1 2 
1 1 1 1 2 1 1 1 4 

i 3 648 int
0 0 0 0 0 0 0 0 0 
0 0 0 0 0 0 0 0 0 
0 0 0 0 0 0 0 0 0 
0 0 0 0 0 0 0 0 0 
0 0 0 0 0 0 0 0 0 
0 0 0 0 0 0 0 0 0 
0 0 0 0 0 0 0 0 0 
0 0 0 0 0 0 0 0 0 
0 0 0 0 0 0 0 0 0 
0 0 0 0 0 0 0 0 0 
0 0 0 0 0 0 0 0 0 
0 0 0 0 0 0 0 0 0 
0 0 0 0 0 0 0 0 0 
0 0 0 0 0 0 0 0 0 
0 0 0 0 0 0 0 0 0 
0 0 0 0 0 0 0 0 0 
0 0 0 0 0 0 0 0 0 
0 0 0 0 0 0 0 0 0 
0 0 0 0 0 0 0 0 0 
0 0 0 0 0 0 0 0 0 
0 0 0 0 0 0 0 0 0 
0 0 0 0 0 0 0 0 0 
0 0 0 0 0 0 0 0 0 
0 0 0 0 0 0 0 0 0 
0 0 0 0 0 0 0 0 0 
0 0 0 0 0 0 0 0 0 
0 0 0 0 0 0 0 0 0 
0 0 0 0 0 0 0 0 0 
0 0 0 0 0 0 0 0 0 
0 0 0 0 0 0 0 0 0 
0 0 0 0 0 0 0 0 0 
0 0 0 0 0 0 0 0 0 
0 0 0 0 0 0 0 0 0 
0 0 0 0 0 0 0 0 0 
0 0 0 0 0 0 0 0 0 
0 0 0 0 0 0 0 0 0 
0 0 0 0 0 0 0 0 0 
0 0 0 0 0 0 0 0 0 
0 0 0 0 0 0 0 0 0 
0 0 0 0 0 0 0 0 0 
0 0 0 0 0 0 0 0 0 
0 0 0 0 0 0 0 0 0 
0 0 0 0 0 0 0 0 0 
0 0 0 0 0 0 0 0 0 
0 0 0 0 0 0 0 0 0 
0 0 0 0 0 0 0 0 0 
0 0 0 0 0 0 0 0 0 
0 0 0 0 0 0 0 0 0 
0 0 0 0 0 0 0 0 0 
0 0 0 0 0 0 0 0 0 
0 0 0 0 0 0 0 0 0 
0 0 0 0 0 0 0 0 0 
0 0 0 0 0 0 0 0 0 
0 0 0 0 0 0 0 0 0 
0 0 0 0 0 0 0 0 0 
0 0 0 0 0 0 0 0 0 
0 0 0 0 0 0 0 0 0 
0 0 0 0 0 0 0 0 0 
0 0 0 0 0 0 0 0 0 
0 0 0 0 0 0 0 0 0 
0 0 0 0 0 0 0 0 0 
0 0 0 0 0 0 0 0 0 
0 0 0 0 0 0 0 0 0 
0 0 0 0 0 0 0 0 0 
0 0 0 0 0 0 0 0 0 
0 0 0 0 0 0 0 0 0 
0 0 0 0 0 0 0 0 0 
0 0 0 0 0 0 0 0 0 
0 0 0 0 0 0 0 0 0 
0 0 0 0 0 0 0 0 0 
0 0 0 0 0 0 0 0 0 
0 0 0 0 0 0 0 0 0 
0 0 0 0 0 0 0 0 0 
0 0 0 0 0 0 0 0 0 
0 0 0 0 0 0 0 0 0 
0 0 0 0 0 0 0 0 0 
0 0 0 0 0 0 0 0 0 
0 0 0 0 0 0 0 0 0 
0 0 0 0 0 0 0 0 0 
0 0 0 0 0 0 0 0 0 
0 0 0 0 0 0 0 0 0 
0 0 0 0 0 0 0 0 0 
0 0 0 0 0 0 0 0 0 
0 0 0 0 0 0 0 0 0 
0 0 0 0 0 0 0 0 0 
0 0 0 0 0 0 0 0 0 
0 0 0 0 0 0 0 0 0 
0 0 0 0 0 0 0 0 0 
0 0 0 0 0 0 0 0 0 
0 0 0 0 0 0 0 0 0 
0 0 0 0 0 0 0 0 0 
0 0 0 0 0 0 0 0 0 
0 0 0 0 0 0 0 0 0 
0 0 0 0 0 0 0 0 0 
0 0 0 0 0 0 0 0 0 
0 0 0 0 0 0 0 0 0 
0 0 0 0 0 0 0 0 0 
0 0 0 0 0 0 0 0 0 
0 0 0 0 0 0 0 0 0 
0 0 0 0 0 0 0 0 0 
0 0 0 0 0 0 0 0 0 
0 0 0 0 0 0 0 0 0 
0 0 0 0 0 0 0 0 0 
0 0 0 0 0 0 0 0 0 
0 0 0 0 0 0 0 0 0 
0 0 0 0 0 0 0 0 0 
0 0 0 0 0 0 0 0 0 
0 0 0 0 0 0 0 0 0 
0 0 0 0 0 0 0 0 0 
0 0 0 0 0 0 0 0 0 
0 0 0 0 0 0 0 0 0 
0 0 0 0 0 0 0 0 0 
0 0 0 0 0 0 0 0 0 
0 0 0 0 0 0 0 0 0 
0 0 0 0 0 0 0 0 0 
0 0 0 0 0 0 0 0 0 
0 0 0 0 0 0 0 0 0 
0 0 0 0 0 0 0 0 0 
0 0 0 0 0 0 0 0 0 
0 0 0 0 0 0 0 0 0 
0 0 0 0 0 0 0 0 0 
0 0 0 0 0 0 0 0 0 
0 0 0 0 0 0 0 0 0 
0 0 0 0 0 0 0 0 0 
0 0 0 0 0 0 0 0 0 
0 0 0 0 0 0 0 0 0 
0 0 0 0 0 0 0 0 0 
0 0 0 0 0 0 0 0 0 
0 0 0 0 0 0 0 0 0 
0 0 0 0 0 0 0 0 0 
0 0 0 0 0 0 0 0 0 
0 0 0 0 0 0 0 0 0 
0 0 0 0 0 0 0 0 0 
0 0 0 0 0 0 0 0 0 
0 0 0 0 0 0 0 0 0 
0 0 0 0 0 0 0 0 0 
0 0 0 0 0 0 0 0 0 
0 0 0 0 0 0 0 0 0 
0 0 0 0 0 0 0 0 0 
0 0 0 0 0 0 0 0 0 
0 0 0 0 0 0 0 0 0 
0 0 0 0 0 0 0 0 0 
0 0 0 0 0 0 0 0 0 
0 0 0 0 0 0 0 0 0 
0 0 0 0 0 0 0 0 0 
0 0 0 0 0 0 0 0 0 
0 0 0 0 0 0 0 0 0 
0 0 0 0 0 0 0 0 0 
0 0 0 0 0 0 0 0 0 
0 0 0 0 0 0 0 0 0 
0 0 0 0 0 0 0 0 0 
0 0 0 0 0 0 0 0 0 
0 0 0 0 0 0 0 0 0 
0 0 0 0 0 0 0 0 0 
0 0 0 0 0 0 0 0 0 
0 0 0 0 0 0 0 0 0 
0 0 0 0 0 0 0 0 0 
0 0 0 0 0 0 0 0 0 
0 0 0 0 0 0 0 0 0 
0 0 0 0 0 0 0 0 0 
0 0 0 0 0 0 0 0 0 
0 0 0 0 0 0 0 0 0 
0 0 0 0 0 0 0 0 0 
0 0 0 0 0 0 0 0 0 
0 0 0 0 0 0 0 0 0 
0 0 0 0 0 0 0 0 0 
0 0 0 0 0 0 0 0 0 
0 0 0 0 0 0 0 0 0 
0 0 0 0 0 0 0 0 0 
0 0 0 0 0 0 0 0 0 
0 0 0 0 0 0 0 0 0 
0 0 0 0 0 0 0 0 0 
0 0 0 0 0 0 0 0 0 
0 0 0 0 0 0 0 0 0 
0 0 0 0 0 0 0 0 0 
0 0 0 0 0 0 0 0 0 
0 0 0 0 0 0 0 0 0 
0 0 0 0 0 0 0 0 0 
0 0 0 0 0 0 0 0 0 
0 0 0 0 0 0 0 0 0 
0 0 0 0 0 0 0 0 0 
0 0 0 0 0 0 0 0 0 
0 0 0 0 0 0 0 0 0 
0 0 0 0 0 0 0 0 0 
0 0 0 0 0 0 0 0 0 
0 0 0 0 0 0 0 0 0 
0 0 0 0 0 0 0 0 0 
0 0 0 0 0 0 0 0 0 
0 0 0 0 0 0 0 0 0 
0 0 0 0 0 0 0 0 0 
0 0 0 0 0 0 0 0 0 
0 0 0 0 0 0 0 0 0 
0 0 0 0 0 0 0 0 0 
0 0 0 0 0 0 0 0 0 
0 0 0 0 0 0 0 0 0 
0 0 0 0 0 0 0 0 0 
0 0 0 0 0 0 0 0 0 
0 0 0 0 0 0 0 0 0 
0 0 0 0 0 0 0 0 0 
0 0 0 0 0 0 0 0 0 
0 0 0 0 0 0 0 0 0 
0 0 0 0 0 0 0 0 0 
0 0 0 0 0 0 0 0 0 
0 0 0 0 0 0 0 0 0 
0 0 0 0 0 0 0 0 0 
0 0 0 0 0 0 0 0 0 
0 0 0 0 0 0 0 0 0 
0 0 0 0 0 0 0 0 0 
0 0 0 0 0 0 0 0 0 
0 0 0 0 0 0 0 0 0 
0 0 0 0 0 0 0 0 0 
0 0 0 0 0 0 0 0 0 
0 0 0 0 0 0 0 0 0 
0 0 0 0 0 0 0 0 0 
0 0 0 0 0 0 0 0 0 
0 0 0 0 0 0 0 0 0 

v 3 648 double
0 0 3.2413285931e-14 0 0 -0.00042869112044 0 0 -0.00059254622627 
0 0 0.0077384182335 0 0 0.0015827087139 0 0 -0.003448149023 
0 0 -0.024925786132 0 0 0.01060889174 0 0 0.0016286607468 
0 0 -0.02351938344 0 0 3.241328596e-14 0 0 0.079814342115 
0 0 -0.017874038519 0 0 3.2413286072e-14 0 0 3.2413289944e-14 
0 0 3.2413286006e-14 0 0 -0.0031636137498 0 0 0.0012712319594 
0 0 0.016292458117 0 0 -0.0089702459761 0 0 -0.00054693696717 
0 0 -0.0058618254266 0 0 -0.021201927 0 0 -0.00099315879837 
0 0 3.2413289938e-14 0 0 8.0432447378e-14 0 0 -0.00031737993287 
0 0 -5.8386481582e-06 0 0 8.0432443464e-14 0 0 0.00070526548472 
0 0 -0.02525606936 0 0 -0.0091034962542 0 0 3.2413289933e-14 
0 0 3.2413285961e-14 0 0 0.088865452373 0 0 8.0432447432e-14 
0 0 0.066681156135 0 0 0.009631568179 0 0 0.020320882634 
0 0 0.00086862435405 0 0 8.0432443599e-14 0 0 0.026898982316 
0 0 8.0432443456e-14 0 0 0.028593140736 0 0 -0.024118773785 
0 0 8.0432443441e-14 0 0 0.006900563781 0 0 -0.0078571637716 
0 0 -0.0013813776641 0 0 0.013457652514 0 0 -0.021008192575 
0 0 8.0432443553e-14 0 0 -0.0277342249 0 0 0.022481494611 
0 0 -0.01354958811 0 0 0.093090301512 0 0 0.087851975175 
0 0 3.2413290023e-14 0 0 -0.0002356557271 0 0 -0.014754248039 
0 0 3.2413289993e-14 0 0 8.0432447411e-14 0 0 -0.011007719291 
0 0 0.026032096041 0 0 0.032638033409 0 0 -0.0065060248854 
0 0 8.0432443474e-14 0 0 -0.0065064233729 0 0 8.0432443602e-14 
0 0 0.087863774248 0 0 0.036097072171 0 0 3.2413285982e-14 
0 0 -0.0073801740867 0 0 -0.071821950031 0 0 8.0432447573e-14 
0 0 -0.0053963385107 0 0 -0.021834024148 0 0 8.0432443644e-14 
0 0 -0.013644571856 0 0 3.2413286008e-14 0 0 -0.0095166952852 
0 0 0.067458702613 0 0 -0.01045136139 0 0 -1.560588404e-14 
0 0 8.0432443503e-14 0 0 1.173628176e-11 0 0 0.0014995296029 
0 0 -0.061008284653 0 0 0.015286827032 0 0 -0.020586877104 
0 0 0.093077966237 0 0 0.027305574294 0 0 8.0432443491e-14 
0 0 8.0432443537e-14 0 0 -0.072359717746 0 0 8.0432443498e-14 
0 0 3.2413285952e-14 0 0 0.094146817871 0 0 8.0432443535e-14 
0 0 8.0432443665e-14 0 0 8.0432447559e-14 0 0 0.003451645617 
0 0 8.0432447373e-14 0 0 -0.01665395759 0 0 -0.0034032755281 
0 0 -0.012042250495 0 0 0.0012102599197 0 0 -0.0022723389803 
0 0 3.2413286034e-14 0 0 -0.069369780286 0 0 8.0432443489e-14 
0 0 0.0079393769774 0 0 0.0077487243276 0 0 0.004453594983 
0 0 8.0432443443e-14 0 0 3.2413285951e-14 0 0 -0.0039294641212 
0 0 8.0432447588e-14 0 0 8.043244739e-14 0 0 8.0432443526e-14 
0 0 0.08759059349 0 0 -0.015740941892 0 0 0.01799062933 
0 0 0.090633762978 0 0 -0.023952047436 0 0 -0.0062643344346 
0 0 8.043244366e-14 0 0 8.0432443654e-14 0 0 0.076963326556 
0 0 8.0432443436e-14 0 0 0.0052164470538 0 0 -0.001637350892 
0 0 0.0017710390818 0 0 -1.5605883967e-14 0 0 8.043244349e-14 
0 0 8.0432447524e-14 0 0 3.2413286037e-14 0 0 0.030266979098 
0 0 3.2413286009e-14 0 0 0.0008645596911 0 0 0.018596019735 
0 0 0.023304032315 0 0 -0.0073857430957 0 0 8.0432447534e-14 
0 0 0.0013085982493 0 0 0.0028323920709 0 0 -0.018360483975 
0 0 -0.017151170862 0 0 -0.029865345045 0 0 6.4786042211e-05 
0 0 -0.011953921862 0 0 -0.003159304891 0 0 8.0432442906e-14 
0 0 3.2413285921e-14 0 0 0.025519527837 0 0 0.0032467097838 
0 0 3.2413289953e-14 0 0 -0.018568004575 0 0 8.0432447367e-14 
0 0 0.0056470161453 0 0 0.089982987076 0 0 -0.010941965415 
0 0 0.026509954206 0 0 -0.075622972394 0 0 8.04324474e-14 
0 0 -0.00053005560643 0 0 -0.017601845693 0 0 3.241328594e-14 
0 0 0.088291272975 0 0 0.029102782155 0 0 -0.037583777847 
0 0 -0.24568764035 0 0 -0.055579019946 0 0 -0.20019311733 
0 0 0.00071790794473 0 0 -0.06896364628 0 0 -0.032729848579 
0 0 0.079442514018 0 0 0.066926899496 0 0 -0.030161930112 
0 0 0.02513811424 0 0 0.057707581097 0 0 0.014197118103 
0 0 0.082679077522 0 0 -0.050999943953 0 0 0.076790101406 
0 0 0.069072099639 0 0 -0.034451438132 0 0 -0.076128859565 
0 0 0.073435204771 0 0 0.07733561403 0 0 0.013740693734 
0 0 -0.028459881538 0 0 0.085913548201 0 0 0.022432223036 
0 0 -0.054180142097 0 0 -0.069060310984 0 0 -0.056572913748 
0 0 -0.22408384454 0 0 0.047879541419 0 0 -0.039054363226 
0 0 0.025997073363 0 0 0.052380966773 0 0 0.074130430088 
0 0 0.05607872645 0 0 0.036144784079 0 0 0.062139329547 
0 0 -0.077030589789 0 0 0.0091277677035 0 0 -0.060388103125 
0 0 0.080562973701 0 0 0.083105514283 0 0 0.078381712877 
0 0 -0.047682189682 0 0 -0.22312056195 0 0 -0.075075575235 
0 0 0.0096055601496 0 0 0.048785003575 0 0 -0.24634068205 
0 0 -0.018671612174 0 0 0.062489497115 0 0 -0.057130329009 
0 0 -0.016703312685 0 0 0.0045267632894 0 0 0.03336862391 
0 0 0.061513238994 0 0 -0.021656798535 0 0 -0.026036632314 
0 0 -0.070394940941 0 0 -0.22113097048 0 0 0.079393951836 
0 0 0.068912129516 0 0 -0.050405935653 0 0 0.043754027281 
0 0 0.024968821618 0 0 -0.064184084515 0 0 0.043832458629 
0 0 0.043879359978 0 0 -0.0080778514071 0 0 0.064959122588 
0 0 0.0083728523142 0 0 -0.053331990152 0 0 -0.035397650251 
0 0 -0.06100683017 0 0 -0.064833625411 0 0 -0.037405704563 
0 0 0.054367414386 0 0 -0.039663306603 0 0 -0.058594515033 
0 0 -0.24442012049 0 0 -0.074263393836 0 0 0.083905419237 
0 0 0.061664625074 0 0 -0.06150416222 0 0 0.076753543828 
0 0 0.066950070287 0 0 0.053799066122 0 0 -0.18836205115 
0 0 0.03965881797 0 0 0.067725609671 0 0 -0.052076082359 
0 0 -0.023121134785 0 0 -0.070103850864 0 0 0.066169844574 
0 0 0.071484265792 0 0 0.063259632116 0 0 -0.037117720112 
0 0 0.062222022262 0 0 -0.018581315727 0 0 0.053446665687 
0 0 0.063284587248 0 0 0.0063959341063 0 0 0.063244547534 
0 0 0.065196755101 0 0 0.076727743202 0 0 -0.043840515082 
0 0 0.072056448337 0 0 0.058670092756 0 0 -0.052471498226 
0 0 -0.045021059209 0 0 0.068512582772 0 0 -0.058156865816 
0 0 0.034756000546 0 0 0.065954581341 0 0 0.093070749508 
0 0 0.051732944825 0 0 0.04483683688 0 0 -0.067095255502 
0 0 -0.070770880166 0 0 -0.056612608607 0 0 0.065551635554 
0 0 0.054310375234 0 0 -0.066190682347 0 0 -0.046937071673 
0 0 0.060327745285 0 0 0.080517290225 0 0 -0.05072011882 
0 0 0.063077601528 0 0 -0.0051473609152 0 0 -0.083391345045 
0 0 -0.079910959209 0 0 -0.086969333302 0 0 -0.064259397079 
0 0 0.090711573619 0 0 0.064157451215 0 0 -0.22943223441 
0 0 -0.073692476129 0 0 0.022990104519 0 0 -0.064869492512 
0 0 0.077527379149 0 0 -0.064860275885 0 0 0.011876932068 
0 0 0.067448456539 0 0 0.074646992732 0 0 -0.06020994851 
0 0 -0.19148294339 0 0 0.029018142595 0 0 0.082244646457 
0 0 -0.043315206377 0 0 -0.058004357381 0 0 0.068114632443 
0 0 0.0089245455896 0 0 -0.046434272839 0 0 -0.051583271847 
0 0 -0.065937709143 0 0 -0.075962332733 0 0 0.057147957775 
0 0 -0.023583714287 0 0 -0.019839677013 0 0 -0.051582024628 
0 0 0.033298787399 0 0 -0.023044265204 0 0 0.033879036268 
0 0 -0.034502124485 0 0 -0.00094629516924 0 0 0.042212299385 
0 0 -0.038586706662 0 0 0.041980258763 0 0 0.024999584592 
0 0 -0.024075705768 0 0 0.0087132151945 0 0 -0.0034780505396 
0 0 -0.0088839022129 0 0 -0.04695250089 0 0 -0.032239795506 
0 0 0.022592435354 0 0 -0.052325525905 0 0 0.015123988441 
0 0 -0.019282364162 0 0 0.016707029953 0 0 -0.0064195161 
0 0 -0.23668900912 0 0 0.044668538511 0 0 -0.24573366539 
0 0 -0.018204459465 0 0 -0.052667016091 0 0 0.019084917223 
0 0 -0.24769380273 0 0 -0.05334330771 0 0 0.048180954743 
0 0 0.030660240582 0 0 0.0097049569981 0 0 -0.015655607206 
0 0 0.043962339651 0 0 -0.042609964456 0 0 -0.027877123167 
0 0 0.030906654221 0 0 -0.23897592809 0 0 0.027098553848 
0 0 -0.0005631047528 0 0 -0.0071174296028 0 0 0.032382934618 
0 0 0.020117579802 0 0 -0.0031558183274 0 0 0.047589747288 
0 0 -0.24357381465 0 0 -0.04929904877 0 0 -0.020991962497 
0 0 -0.044217907914 0 0 0.019543468491 0 0 0.031236505027 
0 0 0.034362760126 0 0 -0.01727730787 0 0 0.021875436529 
0 0 -0.04602414965 0 0 0.020400821317 0 0 -0.0037526462463 
0 0 0.021721738027 0 0 0.02196141172 0 0 -0.21478921093 
0 0 0.012823284772 0 0 0.025570109614 0 0 0.03823409377 
0 0 0.038497129792 0 0 -0.0035715130388 0 0 -0.0043294796601 
0 0 0.025311740211 0 0 0.0058110819725 0 0 0.011862836221 
0 0 -0.03284610692 0 0 0.031177494925 0 0 -0.054553042741 
0 0 0.00087427390795 0 0 0.045290362997 0 0 -0.019616797788 
0 0 0.013052590548 0 0 0.049598086398 0 0 -0.24302273935 
0 0 -0.18835583152 0 0 -0.24117514502 0 0 0.032664398905 
0 0 -0.0069095217851 0 0 0.0057212399153 0 0 -0.057579835312 
0 0 -0.018020848541 0 0 -0.23903817549 0 0 -0.037292166992 
0 0 -0.0062741911761 0 0 -0.23614234607 0 0 -0.0085207922412 
0 0 0.057760078492 0 0 0.021053696202 0 0 -0.075970122716 
0 0 0.039548219276 0 0 0.041939611233 0 0 0.023959621553 
0 0 -0.00069760426477 0 0 0.012753820406 0 0 0.037460406237 
0 0 -0.0054039293076 0 0 0.022098542711 0 0 -0.025231250409 
0 0 0.026857471223 0 0 0.0378759239 0 0 0.026660888219 
0 0 0.11036340385 0 0 -0.027549475784 0 0 -0.24312656453 
0 0 -0.0062610340531 0 0 -0.24762933886 0 0 0.026126384128 
0 0 -0.02311159512 0 0 -0.24920881412 0 0 0.017565479676 
0 0 0.045268705134 0 0 -0.016806700482 0 0 -0.0025069573741 
0 0 -0.029856591964 0 0 -3.6671606148e-05 0 0 -0.0029079238404 
0 0 0.051163854533 0 0 0.03251772955 0 0 -0.044156204669 
0 0 -0.043530401468 0 0 0.050397790981 0 0 -0.015068005858 
0 0 0.0024749362299 0 0 -0.0040114000962 0 0 0.013700031851 
0 0 -0.04550410127 0 0 -0.02857048548 0 0 -0.038227692996 
0 0 -0.023016536599 0 0 0.028846730498 0 0 0.00033807097309 
0 0 -0.0072647884742 0 0 0.0066772510095 0 0 -0.023734730445 
0 0 0.030747931315 0 0 -0.0061843842882 0 0 0.051677949678 
0 0 -0.019990493397 0 0 -0.24303190221 0 0 0.0040544696346 
0 0 0.076518980126 0 0 -0.031449890326 0 0 0.013281832918 
0 0 -0.24047476986 0 0 -0.016303053239 0 0 -0.03075889359 
0 0 -0.031384414631 0 0 -0.034870298129 0 0 0.0041436182696 
0 0 0.027885076591 0 0 0.014949357431 0 0 -0.0078908045983 
0 0 0.008721986067 0 0 -0.018905690965 0 0 -0.0087931675213 
0 0 0.033842610005 0 0 0.025230651023 0 0 -0.039420110635 
0 0 -0.24200433005 0 0 -0.053819420697 0 0 0.03377182432 
0 0 -0.070772965167 0 0 -0.032775669607 0 0 0.0071291701058 
0 0 -0.24425689572 0 0 -0.0096344100469 0 0 0.036564240849 
0 0 -0.024202393183 0 0 -0.011176434947 0 0 -0.011497299862 
0 0 -0.011087332873 0 0 -0.01056430732 0 0 -0.18020190394 
0 0 -0.041367645253 0 0 0.030816797352 0 0 0.031382440943 
0 0 -0.032406525178 0 0 0.037170505421 0 0 0.023715447553 
0 0 0.036885255807 0 0 -0.011378102913 0 0 0.054577829163 
0 0 0.027864159238 0 0 0.033540857622 0 0 -0.0072651149653 
0 0 -0.014518771697 0 0 0.0065037096274 0 0 0.020406623255 
0 0 0.0089655652909 0 0 0.037172101426 0 0 -0.05756401987 
0 0 -0.02892007191 0 0 0.034059082256 0 0 -0.018591924902 
0 0 -0.00088498036866 0 0 -0.01749546606 0 0 -0.048746311161 
0 0 -0.17158744985 0 0 -0.2349259973 0 0 -0.2323851263 
0 0 0.0023534314434 0 0 -0.21374707645 0 0 -0.013336499182 
0 0 -0.21076842236 0 0 -0.23115691023 0 0 -0.033710518895 
0 0 0.0078365456257 0 0 0.0016378963821 0 0 -0.21037560874 
0 0 0.04619846019 0 0 -0.23399728699 0 0 -0.03089981282 
0 0 -0.17932933477 0 0 -0.23605358233 0 0 -0.23493989661 
0 0 -0.23238444697 0 0 -0.2304605279 0 0 -0.23018688572 
0 0 -0.23433891918 0 0 -0.16454452432 0 0 -0.17926001091 
0 0 -0.21211852971 0 0 -0.24592382612 0 0 -0.16277506863 
0 0 -0.15886143449 0 0 -0.20546672902 0 0 -0.16788100558 
0 0 -0.13341584954 0 0 -0.20507665314 0 0 -0.23104952226 
0 0 -0.20926452776 0 0 -0.1764112686 0 0 -0.23828340783 
0 0 -0.24007659686 0 0 -0.17764665769 0 0 -0.22062103492 
0 0 -0.1807166418 0 0 -0.22184365492 0 0 -0.14601007241 
0 0 -0.2370908538 0 0 -0.17235813152 0 0 -0.2164504545 
0 0 -0.16017323433 0 0 -0.17926435586 0 0 -0.17808585698 
0 0 -0.14994319381 0 0 -0.16637089719 0 0 -0.15988474847 
0 0 -0.18659405743 0 0 -0.16223205742 0 0 -0.1555723551 
0 0 -0.16423339925 0 0 -0.11868020185 0 0 -0.17105941295 
0 0 -0.20818609518 0 0 -0.14611245611 0 0 -0.13384637269 
0 0 -0.13501207394 0 0 -0.21638232405 0 0 -0.20449533896 
0 0 -0.13561065465 0 0 -0.13958133683 0 0 -0.14303823499 
0 0 -0.13351411469 0 0 -0.20788414059 0 0 -0.078513811111 
0 0 -0.1349521433 0 0 -0.080932226771 0 0 -0.12120524816 
0 0 -0.11627357689 0 0 -0.088077267165 0 0 -0.091413624146 
0 0 -0.098815235261 0 0 -0.08868451384 0 0 -0.1142142446 
0 0 -0.12677312742 0 0 -0.1029558158 0 0 -0.12904071036 
0 0 -0.12042926272 0 0 -0.093554173801 0 0 -0.11001711347 
0 0 -0.088405837294 0 0 -0.13467531537 0 0 -0.11873327787 
0 0 -0.098607840604 0 0 -0.055393035309 0 0 -0.051153633369 
0 0 -0.096422236779 0 0 -0.051309351834 0 0 -0.020897576023 
0 0 -0.090340975359 0 0 -0.044109665461 0 0 -0.027377340952 
0 0 -0.09556866144 0 0 -0.070022400863 0 0 -0.037040580893 
0 0 -0.064241450911 0 0 -0.026795378313 0 0 -0.054334829205 
0 0 -0.006025030268 0 0 -0.0037426170059 0 0 -0.034092075657 
0 0 -0.065706237945 0 0 -0.019307232003 0 0 -0.055415760928 
0 0 -0.049131727588 0 0 0.013326512782 0 0 -0.0022744395894 
0 0 -0.035563048472 0 0 -0.13807086008 0 0 -0.038215537472 
0 0 0.025429393546 0 0 -0.021007828675 0 0 -0.18712004578 

f 3 648 double
0 0 0 0 0 -1.7425367252e-10 0 0 -1.7425367252e-10 
0 0 -1.7425367252e-10 0 0 -1.7425367252e-10 0 0 -1.7425367252e-10 
0 0 -1.7425367252e-10 0 0 -1.7425367252e-10 0 0 -1.7425367252e-10 
0 0 -1.7425367252e-10 0 0 0 0 0 -1.7425367252e-10 
0 0 -1.7425367252e-10 0 0 0 0 0 0 
0 0 0 0 0 -1.7425367252e-10 0 0 -1.7425367252e-10 
0 0 -1.7425367252e-10 0 0 -1.7425367252e-10 0 0 -1.7425367252e-10 
0 0 -1.7425367252e-10 0 0 -1.7425367252e-10 0 0 -1.7425367252e-10 
0 0 0 0 0 0 0 0 -1.7425367252e-10 
0 0 -1.7425367252e-10 0 0 0 0 0 -1.7425367252e-10 
0 0 -1.7425367252e-10 0 0 -1.7425367252e-10 0 0 0 
0 0 0 0 0 -1.7425367252e-10 0 0 0 
0 0 -1.7425367252e-10 0 0 -1.7425367252e-10 0 0 -1.7425367252e-10 
0 0 -1.7425367252e-10 0 0 0 0 0 -1.7425367252e-10 
0 0 0 0 0 -1.7425367252e-10 0 0 -1.7425367252e-10 
0 0 0 0 0 -1.7425367252e-10 0 0 -1.7425367252e-10 
0 0 -1.7425367252e-10 0 0 -1.7425367252e-10 0 0 -1.7425367252e-10 
0 0 0 0 0 -1.7425367252e-10 0 0 -1.7425367252e-10 
0 0 -1.7425367252e-10 0 0 -1.7425367252e-10 0 0 -1.7425367252e-10 
0 0 0 0 0 -1.7425367252e-10 0 0 -1.7425367252e-10 
0 0 0 0 0 0 0 0 -1.7425367252e-10 
0 0 -1.7425367252e-10 0 0 -1.7425367252e-10 0 0 -1.7425367252e-10 
0 0 0 0 0 -1.7425367252e-10 0 0 0 
0 0 -1.7425367252e-10 0 0 -8.9019973083e-09 0 0 0 
0 0 -1.7425367252e-10 0 0 -1.7425367252e-10 0 0 0 
0 0 -1.7425367252e-10 0 0 -1.7425367252e-10 0 0 0 
0 0 -1.7425367252e-10 0 0 0 0 0 -1.7425367252e-10 
0 0 -1.7425367252e-10 0 0 -1.7425367252e-10 0 0 0 
0 0 0 0 0 1.065666532e-16 0 0 -1.7425367252e-10 
0 0 -1.7425367252e-10 0 0 -1.7425367252e-10 0 0 -1.7425367252e-10 
0 0 -1.7425367252e-10 0 0 -1.7425367252e-10 0 0 0 
0 0 0 0 0 -1.7425367252e-10 0 0 0 
0 0 0 0 0 -1.7425367252e-10 0 0 0 
0 0 0 0 0 0 0 0 -1.7425367252e-10 
0 0 0 0 0 -1.7425367252e-10 0 0 -1.7425367252e-10 
0 0 -1.7425367252e-10 0 0 -1.7425367252e-10 0 0 -1.7425367252e-10 
0 0 0 0 0 -1.7425367252e-10 0 0 0 
0 0 -1.7425367252e-10 0 0 -1.7425367252e-10 0 0 -1.7425367252e-10 
0 0 0 0 0 0 0 0 -1.7425367252e-10 
0 0 0 0 0 0 0 0 0 
0 0 -1.7425367252e-10 0 0 -1.7425367252e-10 0 0 -1.7425367252e-10 
0 0 -1.7425367252e-10 0 0 -1.7425367252e-10 0 0 -1.7425367252e-10 
0 0 0 0 0 0 0 0 -1.7425367252e-10 
0 0 0 0 0 -1.7425367252e-10 0 0 -1.7425367252e-10 
0 0 -1.7425367252e-10 0 0 0 0 0 0 
0 0 0 0 0 0 0 0 -1.7425367252e-10 
0 0 0 0 0 -1.7425367252e-10 0 0 -1.7425367252e-10 
0 0 -1.7425367252e-10 0 0 -1.7425367252e-10 0 0 0 
0 0 -1.7425367252e-10 0 0 -1.7425367252e-10 0 0 -1.7425367252e-10 
0 0 -1.7425367252e-10 0 0 -1.7425367252e-10 0 0 -1.7425367252e-10 
0 0 -1.7425367252e-10 0 0 -1.7425367252e-10 0 0 2.5849394142e-26 
0 0 0 0 0 -1.7425367252e-10 0 0 -1.7425367252e-10 
0 0 0 0 0 -1.7425367252e-10 0 0 0 
0 0 -1.7425367252e-10 0 0 -1.7425367252e-10 0 0 -1.7425367252e-10 
0 0 -1.7425367252e-10 0 0 -1.7425367252e-10 0 0 0 
0 0 -1.7425367252e-10 0 0 -1.7425367252e-10 0 0 0 
0 0 -1.7425367252e-10 0 0 -1.7425367252e-10 0 0 -1.7425367252e-10 
0 0 -1.7425367252e-10 0 0 -1.7425367252e-10 0 0 -1.7425367252e-10 
0 0 -1.7425367252e-10 0 0 -1.7425367252e-10 0 0 -1.7425367252e-10 
0 0 -1.7425367252e-10 0 0 -1.7425367252e-10 0 0 -1.7425367252e-10 
0 0 -1.7425367252e-10 0 0 -1.7425367252e-10 0 0 -1.7425367252e-10 
0 0 -1.7425367252e-10 0 0 -1.7425367252e-10 0 0 -1.7425367252e-10 
0 0 -1.7425367252e-10 0 0 -1.7425367252e-10 0 0 -1.7425367252e-10 
0 0 -1.7425367252e-10 0 0 -1.7425367252e-10 0 0 -1.7425367252e-10 
0 0 -1.7425367252e-10 0 0 -1.7425367252e-10 0 0 -1.7425367252e-10 
0 0 -1.7425367252e-10 0 0 -1.7425367252e-10 0 0 -1.7425367252e-10 
0 0 -1.7425367252e-10 0 0 -1.7425367252e-10 0 0 -1.7425367252e-10 
0 0 -1.7425367252e-10 0 0 -1.7425367252e-10 0 0 -1.7425367252e-10 
0 0 -1.7425367252e-10 0 0 -1.7425367252e-10 0 0 -1.7425367252e-10 
0 0 -1.7425367252e-10 0 0 -1.7425367252e-10 0 0 -1.7425367252e-10 
0 0 -1.7425367252e-10 0 0 -1.7425367252e-10 0 0 -1.7425367252e-10 
0 0 -1.7425367252e-10 0 0 -1.7425367252e-10 0 0 -1.7425367252e-10 
0 0 -1.7425367252e-10 0 0 -1.7425367252e-10 0 0 -1.7425367252e-10 
0 0 -1.7425367252e-10 0 0 -1.7425367252e-10 0 0 -1.7425367252e-10 
0 0 -1.7425367252e-10 0 0 -1.7425367252e-10 0 0 -1.7425367252e-10 
0 0 -1.7425367252e-10 0 0 -1.7425367252e-10 0 0 -1.7425367252e-10 
0 0 -1.7425367252e-10 0 0 -1.7425367252e-10 0 0 -1.7425367252e-10 
0 0 -1.7425367252e-10 0 0 -1.7425367252e-10 0 0 -1.7425367252e-10 
0 0 -1.7425367252e-10 0 0 -1.7425367252e-10 0 0 -1.7425367252e-10 
0 0 -1.7425367252e-10 0 0 -1.7425367252e-10 0 0 -1.7425367252e-10 
0 0 -1.7425367252e-10 0 0 -1.7425367252e-10 0 0 -1.7425367252e-10 
0 0 -1.7425367252e-10 0 0 -1.7425367252e-10 0 0 -1.7425367252e-10 
0 0 -1.7425367252e-10 0 0 -1.7425367252e-10 0 0 -1.7425367252e-10 
0 0 -1.7425367252e-10 0 0 -1.7425367252e-10 0 0 -1.7425367252e-10 
0 0 -1.7425367252e-10 0 0 -1.7425367252e-10 0 0 -1.7425367252e-10 
0 0 -1.7425367252e-10 0 0 -1.7425367252e-10 0 0 -1.7425367252e-10 
0 0 -1.7425367252e-10 0 0 -1.7425367252e-10 0 0 -1.7425367252e-10 
0 0 -1.7425367252e-10 0 0 -1.7425367252e-10 0 0 -1.7425367252e-10 
0 0 -1.7425367252e-10 0 0 -1.7425367252e-10 0 0 -1.7425367252e-10 
0 0 -1.7425367252e-10 0 0 -1.7425367252e-10 0 0 -1.7425367252e-10 
0 0 -1.7425367252e-10 0 0 -1.7425367252e-10 0 0 -1.7425367252e-10 
0 0 -1.7425367252e-10 0 0 -1.7425367252e-10 0 0 -1.7425367252e-10 
0 0 -1.7425367252e-10 0 0 -1.7425367252e-10 0 0 -1.7425367252e-10 
0 0 -1.7425367252e-10 0 0 -1.7425367252e-10 0 0 -1.7425367252e-10 
0 0 -1.7425367252e-10 0 0 -1.7425367252e-10 0 0 -1.7425367252e-10 
0 0 -1.7425367252e-10 0 0 -1.7425367252e-10 0 0 -1.7425367252e-10 
0 0 -1.7425367252e-10 0 0 -1.7425367252e-10 0 0 -1.7425367252e-10 
0 0 -1.7425367252e-10 0 0 -1.7425367252e-10 0 0 -1.7425367252e-10 
0 0 -1.7425367252e-10 0 0 -1.7425367252e-10 0 0 -1.7425367252e-10 
0 0 -1.7425367252e-10 0 0 -1.7425367252e-10 0 0 -1.7425367252e-10 
0 0 -1.7425367252e-10 0 0 -1.7425367252e-10 0 0 -1.7425367252e-10 
0 0 -1.7425367252e-10 0 0 -1.7425367252e-10 0 0 -1.7425367252e-10 
0 0 -1.7425367252e-10 0 0 -1.7425367252e-10 0 0 -1.7425367252e-10 
0 0 -1.7425367252e-10 0 0 -1.7425367252e-10 0 0 -1.7425367252e-10 
0 0 -1.7425367252e-10 0 0 -1.7425367252e-10 0 0 -1.7425367252e-10 
0 0 -1.7425367252e-10 0 0 -1.7425367252e-10 0 0 -1.7425367252e-10 
0 0 -1.7425367252e-10 0 0 -1.7425367252e-10 0 0 -1.7425367252e-10 
0 0 -1.7425367252e-10 0 0 -1.7425367252e-10 0 0 -1.7425367252e-10 
0 0 -1.7425367252e-10 0 0 -1.7425367252e-10 0 0 -1.7425367252e-10 
0 0 -1.7425367252e-10 0 0 -1.7425367252e-10 0 0 -1.7425367252e-10 
0 0 -1.7425367252e-10 0 0 -1.7425367252e-10 0 0 -1.7425367252e-10 
0 0 -1.7425367252e-10 0 0 -1.7425367252e-10 0 0 -1.7425367252e-10 
0 0 -1.7425367252e-10 0 0 -1.7425367252e-10 0 0 -1.7425367252e-10 
0 0 -1.7425367252e-10 0 0 -1.7425367252e-10 0 0 -1.7425367252e-10 
0 0 -1.7425367252e-10 0 0 -1.7425367252e-10 0 0 -1.7425367252e-10 
0 0 -1.7425367252e-10 0 0 -1.7425367252e-10 0 0 -1.7425367252e-10 
0 0 -1.7425367252e-10 0 0 -1.7425367252e-10 0 0 -1.7425367252e-10 
0 0 -1.7425367252e-10 0 0 -1.7425367252e-10 0 0 -1.7425367252e-10 
0 0 -1.7425367252e-10 0 0 -1.7425367252e-10 0 0 -1.7425367252e-10 
0 0 -1.7425367252e-10 0 0 -1.7425367252e-10 0 0 -1.7425367252e-10 
0 0 -1.7425367252e-10 0 0 -1.7425367252e-10 0 0 -1.7425367252e-10 
0 0 -1.7425367252e-10 0 0 -1.7425367252e-10 0 0 -1.7425367252e-10 
0 0 -1.7425367252e-10 0 0 -1.7425367252e-10 0 0 -1.7425367252e-10 
0 0 -1.7425367252e-10 0 0 -1.7425367252e-10 0 0 -1.7425367252e-10 
0 0 -1.7425367252e-10 0 0 -1.7425367252e-10 0 0 -1.7425367252e-10 
0 0 -1.7425367252e-10 0 0 -1.7425367252e-10 0 0 -1.7425367252e-10 
0 0 -1.7425367252e-10 0 0 -1.7425367252e-10 0 0 -1.7425367252e-10 
0 0 -1.7425367252e-10 0 0 -1.7425367252e-10 0 0 -1.7425367252e-10 
0 0 -1.7425367252e-10 0 0 -1.7425367252e-10 0 0 -1.7425367252e-10 
0 0 -1.7425367252e-10 0 0 -1.7425367252e-10 0 0 -1.7425367252e-10 
0 0 -1.7425367252e-10 0 0 -1.7425367252e-10 0 0 -1.7425367252e-10 
0 0 -1.7425367252e-10 0 0 -1.7425367252e-10 0 0 -1.7425367252e-10 
0 0 -1.7425367252e-10 0 0 -1.7425367252e-10 0 0 -1.7425367252e-10 
0 0 -1.7425367252e-10 0 0 -1.7425367252e-10 0 0 -1.7425367252e-10 
0 0 -1.7425367252e-10 0 0 -1.7425367252e-10 0 0 -1.7425367252e-10 
0 0 -1.7425367252e-10 0 0 -1.7425367252e-10 0 0 -1.7425367252e-10 
0 0 -1.7425367252e-10 0 0 -1.7425367252e-10 0 0 -1.7425367252e-10 
0 0 -1.7425367252e-10 0 0 -1.7425367252e-10 0 0 -1.7425367252e-10 
0 0 -1.7425367252e-10 0 0 -1.7425367252e-10 0 0 -1.7425367252e-10 
0 0 -1.7425367252e-10 0 0 -1.7425367252e-10 0 0 -1.7425367252e-10 
0 0 -1.7425367252e-10 0 0 -1.7425367252e-10 0 0 -8.9019973083e-09 
0 0 -1.7425367252e-10 0 0 -1.7425367252e-10 0 0 -1.7425367252e-10 
0 0 -1.7425367252e-10 0 0 -1.7425367252e-10 0 0 -1.7425367252e-10 
0 0 -1.7425367252e-10 0 0 -1.7425367252e-10 0 0 -1.7425367252e-10 
0 0 -1.7425367252e-10 0 0 -1.7425367252e-10 0 0 -1.7425367252e-10 
0 0 -6.8918688838e-08 0 0 -1.7425367252e-10 0 0 -1.7425367252e-10 
0 0 -1.7425367252e-10 0 0 -1.7425367252e-10 0 0 -1.7425367252e-10 
0 0 -1.7425367252e-10 0 0 -1.7425367252e-10 0 0 -1.7425367252e-10 
0 0 -1.7425367252e-10 0 0 -1.7425367252e-10 0 0 -1.7425367252e-10 
0 0 -1.7425367252e-10 0 0 -1.7425367252e-10 0 0 -1.7425367252e-10 
0 0 -1.7425367252e-10 0 0 -1.7425367252e-10 0 0 -1.7425367252e-10 
0 0 -1.7425367252e-10 0 0 -1.7425367252e-10 0 0 -1.7425367252e-10 
0 0 -1.7425367252e-10 0 0 -1.7425367252e-10 0 0 -1.7425367252e-10 
0 0 -1.7425367252e-10 0 0 -1.7425367252e-10 0 0 -1.7425367252e-10 
0 0 -1.7425367252e-10 0 0 -1.7425367252e-10 0 0 -1.7425367252e-10 
0 0 -1.7425367252e-10 0 0 -1.7425367252e-10 0 0 -1.7425367252e-10 
0 0 -1.7425367252e-10 0 0 -1.7425367252e-10 0 0 -1.7425367252e-10 
0 0 -1.7425367252e-10 0 0 -1.7425367252e-10 0 0 -1.7425367252e-10 
0 0 -8.9019973083e-09 0 0 -1.7425367252e-10 0 0 -1.7425367252e-10 
0 0 -1.7425367252e-10 0 0 -1.7425367252e-10 0 0 -1.7425367252e-10 
0 0 -1.7425367252e-10 0 0 -1.7425367252e-10 0 0 -1.7425367252e-10 
0 0 -1.7425367252e-10 0 0 -1.7425367252e-10 0 0 -1.7425367252e-10 
0 0 -1.7425367252e-10 0 0 -1.7425367252e-10 0 0 -1.7425367252e-10 
0 0 -1.7425367252e-10 0 0 -1.7425367252e-10 0 0 -1.7425367252e-10 
0 0 -1.7425367252e-10 0 0 -8.9019973083e-09 0 0 -1.7425367252e-10 
0 0 -8.9019973083e-09 0 0 -1.7425367252e-10 0 0 -1.7425367252e-10 
0 0 -1.7425367252e-10 0 0 -1.7425367252e-10 0 0 -1.7425367252e-10 
0 0 -1.7425367252e-10 0 0 -1.7425367252e-10 0 0 -1.7425367252e-10 
0 0 -1.7425367252e-10 0 0 -1.7425367252e-10 0 0 -1.7425367252e-10 
0 0 -1.7425367252e-10 0 0 -1.7425367252e-10 0 0 -1.7425367252e-10 
0 0 -1.7425367252e-10 0 0 -1.7425367252e-10 0 0 -1.7425367252e-10 
0 0 -1.7425367252e-10 0 0 -1.7425367252e-10 0 0 -1.7425367252e-10 
0 0 -1.7425367252e-10 0 0 -1.7425367252e-10 0 0 -1.7425367252e-10 
0 0 -1.7425367252e-10 0 0 -1.7425367252e-10 0 0 -1.7425367252e-10 
0 0 -1.7425367252e-10 0 0 -1.7425367252e-10 0 0 -1.7425367252e-10 
0 0 -1.7425367252e-10 0 0 -1.7425367252e-10 0 0 -1.7425367252e-10 
0 0 -1.7425367252e-10 0 0 -1.7425367252e-10 0 0 -1.7425367252e-10 
0 0 -1.7425367252e-10 0 0 -1.7425367252e-10 0 0 -1.7425367252e-10 
0 0 -8.9019973083e-09 0 0 -1.7425367252e-10 0 0 -8.9019973083e-09 
0 0 -1.7425367252e-10 0 0 -1.7425367252e-10 0 0 -8.9019973083e-09 
0 0 -8.9019973083e-09 0 0 -8.9019973083e-09 0 0 -1.7425367252e-10 
0 0 -8.9019973083e-09 0 0 -1.7425367252e-10 0 0 -8.9019973083e-09 
0 0 -1.7425367252e-10 0 0 -1.7425367252e-10 0 0 -1.7425367252e-10 
0 0 -1.7425367252e-10 0 0 -1.7425367252e-10 0 0 -1.7425367252e-10 
0 0 -1.7425367252e-10 0 0 -1.7425367252e-10 0 0 -1.7425367252e-10 
0 0 -1.7425367252e-10 0 0 -1.7425367252e-10 0 0 -1.7425367252e-10 
0 0 -1.7425367252e-10 0 0 -1.7425367252e-10 0 0 -1.7425367252e-10 
0 0 -1.7425367252e-10 0 0 -1.7425367252e-10 0 0 -1.7425367252e-10 
0 0 -1.7425367252e-10 0 0 -1.7425367252e-10 0 0 -8.9019973083e-09 
0 0 -1.7425367252e-10 0 0 -1.7425367252e-10 0 0 -1.7425367252e-10 
0 0 -1.7425367252e-10 0 0 -1.7425367252e-10 0 0 -1.7425367252e-10 
0 0 -8.9019973083e-09 0 0 -1.7425367252e-10 0 0 -1.7425367252e-10 
0 0 -1.7425367252e-10 0 0 -1.7425367252e-10 0 0 -1.7425367252e-10 
0 0 -1.7425367252e-10 0 0 -1.7425367252e-10 0 0 -1.7425367252e-10 
0 0 -1.7425367252e-10 0 0 -1.7425367252e-10 0 0 -1.7425367252e-10 
0 0 -1.7425367252e-10 0 0 -1.7425367252e-10 0 0 -1.7425367252e-10 
0 0 -8.9019973083e-09 0 0 -1.7425367252e-10 0 0 -1.7425367252e-10 
0 0 -1.7425367252e-10 0 0 -1.7425367252e-10 0 0 -1.7425367252e-10 
0 0 -1.7425367252e-10 0 0 -1.7425367252e-10 0 0 -1.7425367252e-10 
0 0 -1.7425367252e-10 0 0 -1.7425367252e-10 0 0 -1.7425367252e-10 
0 0 -1.7425367252e-10 0 0 -1.7425367252e-10 0 0 -1.7425367252e-10 
0 0 -1.7425367252e-10 0 0 -1.7425367252e-10 0 0 -1.7425367252e-10 
0 0 -1.7425367252e-10 0 0 -1.7425367252e-10 0 0 -1.7425367252e-10 
0 0 -1.7425367252e-10 0 0 -1.7425367252e-10 0 0 -1.7425367252e-10 
0 0 -1.7425367252e-10 0 0 -1.7425367252e-10 0 0 -1.7425367252e-10 
0 0 -1.7425367252e-10 0 0 -1.7425367252e-10 0 0 -1.7425367252e-10 
0 0 -1.7425367252e-10 0 0 -1.7425367252e-10 0 0 -1.7425367252e-10 
0 0 -1.7425367252e-10 0 0 -1.7425367252e-10 0 0 -1.7425367252e-10 
0 0 -1.7425367252e-10 0 0 -1.7425367252e-10 0 0 -1.7425367252e-10 
0 0 -1.7425367252e-10 0 0 -1.7425367252e-10 0 0 -1.7425367252e-10 
0 0 -1.7425367252e-10 0 0 -1.7425367252e-10 0 0 -1.7425367252e-10 
0 0 -1.7425367252e-10 0 0 -1.7425367252e-10 0 0 -1.7425367252e-10 
0 0 -1.7425367252e-10 0 0 -1.7425367252e-10 0 0 -8.9019973083e-09 
0 0 -1.7425367252e-10 0 0 -1.7425367252e-10 0 0 -1.7425367252e-10 
0 0 -1.7425367252e-10 0 0 -8.9019973083e-09 0 0 -1.7425367252e-10 
0 0 -1.7425367252e-10 0 0 -1.7425367252e-10 0 0 -5.3297119368e-07 

radius 1 648 double
2e-05 2e-05 2e-05 2e-05 2e-05 2e-05 2e-05 2e-05 2e-05 
2e-05 2e-05 2e-05 2e-05 2e-05 2e-05 2e-05 2e-05 2e-05 
2e-05 2e-05 2e-05 2e-05 2e-05 2e-05 2e-05 2e-05 2e-05 
2e-05 2e-05 2e-05 2e-05 2e-05 2e-05 2e-05 2e-05 2e-05 
2e-05 2e-05 2e-05 2e-05 2e-05 2e-05 2e-05 2e-05 2e-05 
2e-05 2e-05 2e-05 2e-05 2e-05 2e-05 2e-05 2e-05 2e-05 
2e-05 2e-05 2e-05 2e-05 2e-05 2e-05 2e-05 2e-05 2e-05 
2e-05 2e-05 2e-05 2e-05 2e-05 2e-05 2e-05 7.5e-05 2e-05 
2e-05 2e-05 2e-05 2e-05 2e-05 2e-05 2e-05 2e-05 2e-05 
2e-05 2e-05 2e-05 2e-05 2e-05 2e-05 2e-05 2e-05 2e-05 
2e-05 2e-05 2e-05 2e-05 2e-05 2e-05 2e-05 2e-05 2e-05 
2e-05 2e-05 2e-05 2e-05 2e-05 2e-05 2e-05 2e-05 2e-05 
2e-05 2e-05 2e-05 2e-05 2e-05 2e-05 2e-05 2e-05 2e-05 
2e-05 2e-05 2e-05 2e-05 2e-05 2e-05 2e-05 2e-05 2e-05 
2e-05 2e-05 2e-05 2e-05 2e-05 2e-05 2e-05 2e-05 2e-05 
2e-05 2e-05 2e-05 2e-05 2e-05 2e-05 2e-05 2e-05 2e-05 
2e-05 2e-05 2e-05 2e-05 2e-05 2e-05 2e-05 2e-05 2e-05 
2e-05 2e-05 2e-05 2e-05 2e-05 2e-05 2e-05 2e-05 2e-05 
2e-05 2e-05 2e-05 2e-05 2e-05 2e-05 2e-05 2e-05 2e-05 
2e-05 2e-05 2e-05 2e-05 2e-05 2e-05 2e-05 2e-05 2e-05 
2e-05 2e-05 2e-05 2e-05 2e-05 2e-05 2e-05 2e-05 2e-05 
2e-05 2e-05 2e-05 2e-05 2e-05 2e-05 2e-05 2e-05 2e-05 
2e-05 2e-05 2e-05 2e-05 2e-05 2e-05 2e-05 2e-05 2e-05 
2e-05 2e-05 2e-05 2e-05 2e-05 2e-05 2e-05 2e-05 2e-05 
2e-05 2e-05 2e-05 2e-05 2e-05 2e-05 2e-05 2e-05 2e-05 
2e-05 2e-05 2e-05 2e-05 2e-05 2e-05 2e-05 2e-05 2e-05 
2e-05 2e-05 2e-05 2e-05 2e-05 2e-05 2e-05 2e-05 2e-05 
2e-05 2e-05 2e-05 2e-05 2e-05 2e-05 2e-05 2e-05 2e-05 
2e-05 2e-05 2e-05 2e-05 2e-05 2e-05 2e-05 2e-05 2e-05 
2e-05 2e-05 2e-05 2e-05 2e-05 2e-05 2e-05 2e-05 2e-05 
2e-05 2e-05 2e-05 2e-05 2e-05 2e-05 2e-05 2e-05 2e-05 
2e-05 2e-05 2e-05 2e-05 2e-05 2e-05 2e-05 2e-05 2e-05 
2e-05 2e-05 2e-05 2e-05 2e-05 2e-05 2e-05 2e-05 2e-05 
2e-05 2e-05 2e-05 2e-05 2e-05 2e-05 2e-05 2e-05 2e-05 
2e-05 2e-05 2e-05 2e-05 2e-05 2e-05 2e-05 2e-05 2e-05 
2e-05 2e-05 2e-05 2e-05 2e-05 2e-05 2e-05 2e-05 2e-05 
2e-05 2e-05 2e-05 2e-05 2e-05 2e-05 2e-05 2e-05 2e-05 
2e-05 2e-05 2e-05 2e-05 2e-05 2e-05 2e-05 2e-05 2e-05 
2e-05 2e-05 2e-05 2e-05 2e-05 2e-05 2e-05 2e-05 2e-05 
2e-05 2e-05 2e-05 2e-05 2e-05 2e-05 2e-05 2e-05 2e-05 
2e-05 2e-05 2e-05 2e-05 2e-05 2e-05 2e-05 2e-05 2e-05 
2e-05 2e-05 2e-05 2e-05 2e-05 2e-05 2e-05 2e-05 2e-05 
2e-05 2e-05 2e-05 2e-05 2e-05 2e-05 2e-05 2e-05 2e-05 
2e-05 2e-05 2e-05 2e-05 2e-05 2e-05 2e-05 2e-05 2e-05 
2e-05 2e-05 2e-05 2e-05 2e-05 2e-05 2e-05 2e-05 2e-05 
2e-05 2e-05 2e-05 2e-05 2e-05 2e-05 2e-05 2e-05 2e-05 
2e-05 2e-05 2e-05 2e-05 2e-05 2e-05 2e-05 2e-05 7.5e-05 
2e-05 2e-05 2e-05 2e-05 2e-05 2e-05 2e-05 2e-05 2e-05 
2e-05 2e-05 2e-05 0.00015 2e-05 2e-05 2e-05 2e-05 2e-05 
2e-05 2e-05 2e-05 2e-05 2e-05 2e-05 2e-05 2e-05 2e-05 
2e-05 2e-05 2e-05 2e-05 2e-05 2e-05 2e-05 2e-05 2e-05 
2e-05 2e-05 2e-05 2e-05 2e-05 2e-05 2e-05 2e-05 2e-05 
2e-05 2e-05 2e-05 2e-05 2e-05 2e-05 7.5e-05 2e-05 2e-05 
2e-05 2e-05 2e-05 2e-05 2e-05 2e-05 2e-05 2e-05 2e-05 
2e-05 2e-05 2e-05 2e-05 2e-05 2e-05 2e-05 7.5e-05 2e-05 
7.5e-05 2e-05 2e-05 2e-05 2e-05 2e-05 2e-05 2e-05 2e-05 
2e-05 2e-05 2e-05 2e-05 2e-05 2e-05 2e-05 2e-05 2e-05 
2e-05 2e-05 2e-05 2e-05 2e-05 2e-05 2e-05 2e-05 2e-05 
2e-05 2e-05 2e-05 2e-05 2e-05 2e-05 2e-05 2e-05 2e-05 
2e-05 2e-05 2e-05 7.5e-05 2e-05 7.5e-05 2e-05 2e-05 7.5e-05 
7.5e-05 7.5e-05 2e-05 7.5e-05 2e-05 7.5e-05 2e-05 2e-05 2e-05 
2e-05 2e-05 2e-05 2e-05 2e-05 2e-05 2e-05 2e-05 2e-05 
2e-05 2e-05 2e-05 2e-05 2e-05 2e-05 2e-05 2e-05 7.5e-05 
2e-05 2e-05 2e-05 2e-05 2e-05 2e-05 7.5e-05 2e-05 2e-05 
2e-05 2e-05 2e-05 2e-05 2e-05 2e-05 2e-05 2e-05 2e-05 
2e-05 2e-05 2e-05 7.5e-05 2e-05 2e-05 2e-05 2e-05 2e-05 
2e-05 2e-05 2e-05 2e-05 2e-05 2e-05 2e-05 2e-05 2e-05 
2e-05 2e-05 2e-05 2e-05 2e-05 2e-05 2e-05 2e-05 2e-05 
2e-05 2e-05 2e-05 2e-05 2e-05 2e-05 2e-05 2e-05 2e-05 
2e-05 2e-05 2e-05 2e-05 2e-05 2e-05 2e-05 2e-05 2e-05 
2e-05 2e-05 2e-05 2e-05 2e-05 2e-05 2e-05 2e-05 7.5e-05 
2e-05 2e-05 2e-05 2e-05 7.5e-05 2e-05 2e-05 2e-05 0.0003 

omega 3 648 double
0 0 0 0 0 0 0 0 0 
0 0 0 0 0 0 0 0 0 
0 0 0 0 0 0 0 0 0 
0 0 0 0 0 0 0 0 0 
0 0 0 0 0 0 0 0 0 
0 0 0 0 0 0 0 0 0 
0 0 0 0 0 0 0 0 0 
0 0 0 0 0 0 0 0 0 
0 0 0 0 0 0 0 0 0 
0 0 0 0 0 0 0 0 0 
0 0 0 0 0 0 0 0 0 
0 0 0 0 0 0 0 0 0 
0 0 0 0 0 0 0 0 0 
0 0 0 0 0 0 0 0 0 
0 0 0 0 0 0 0 0 0 
0 0 0 0 0 0 0 0 0 
0 0 0 0 0 0 0 0 0 
0 0 0 0 0 0 0 0 0 
0 0 0 0 0 0 0 0 0 
0 0 0 0 0 0 0 0 0 
0 0 0 0 0 0 0 0 0 
0 0 0 0 0 0 0 0 0 
0 0 0 0 0 0 0 0 0 
0 0 0 0 0 0 0 0 0 
0 0 0 0 0 0 0 0 0 
0 0 0 0 0 0 0 0 0 
0 0 0 0 0 0 0 0 0 
0 0 0 0 0 0 0 0 0 
0 0 0 0 0 0 0 0 0 
0 0 0 0 0 0 0 0 0 
0 0 0 0 0 0 0 0 0 
0 0 0 0 0 0 0 0 0 
0 0 0 0 0 0 0 0 0 
0 0 0 0 0 0 0 0 0 
0 0 0 0 0 0 0 0 0 
0 0 0 0 0 0 0 0 0 
0 0 0 0 0 0 0 0 0 
0 0 0 0 0 0 0 0 0 
0 0 0 0 0 0 0 0 0 
0 0 0 0 0 0 0 0 0 
0 0 0 0 0 0 0 0 0 
0 0 0 0 0 0 0 0 0 
0 0 0 0 0 0 0 0 0 
0 0 0 0 0 0 0 0 0 
0 0 0 0 0 0 0 0 0 
0 0 0 0 0 0 0 0 0 
0 0 0 0 0 0 0 0 0 
0 0 0 0 0 0 0 0 0 
0 0 0 0 0 0 0 0 0 
0 0 0 0 0 0 0 0 0 
0 0 0 0 0 0 0 0 0 
0 0 0 0 0 0 0 0 0 
0 0 0 0 0 0 0 0 0 
0 0 0 0 0 0 0 0 0 
0 0 0 0 0 0 0 0 0 
0 0 0 0 0 0 0 0 0 
0 0 0 0 0 0 0 0 0 
0 0 0 0 0 0 0 0 0 
0 0 0 0 0 0 0 0 0 
0 0 0 0 0 0 0 0 0 
0 0 0 0 0 0 0 0 0 
0 0 0 0 0 0 0 0 0 
0 0 0 0 0 0 0 0 0 
0 0 0 0 0 0 0 0 0 
0 0 0 0 0 0 0 0 0 
0 0 0 0 0 0 0 0 0 
0 0 0 0 0 0 0 0 0 
0 0 0 0 0 0 0 0 0 
0 0 0 0 0 0 0 0 0 
0 0 0 0 0 0 0 0 0 
0 0 0 0 0 0 0 0 0 
0 0 0 0 0 0 0 0 0 
0 0 0 0 0 0 0 0 0 
0 0 0 0 0 0 0 0 0 
0 0 0 0 0 0 0 0 0 
0 0 0 0 0 0 0 0 0 
0 0 0 0 0 0 0 0 0 
0 0 0 0 0 0 0 0 0 
0 0 0 0 0 0 0 0 0 
0 0 0 0 0 0 0 0 0 
0 0 0 0 0 0 0 0 0 
0 0 0 0 0 0 0 0 0 
0 0 0 0 0 0 0 0 0 
0 0 0 0 0 0 0 0 0 
0 0 0 0 0 0 0 0 0 
0 0 0 0 0 0 0 0 0 
0 0 0 0 0 0 0 0 0 
0 0 0 0 0 0 0 0 0 
0 0 0 0 0 0 0 0 0 
0 0 0 0 0 0 0 0 0 
0 0 0 0 0 0 0 0 0 
0 0 0 0 0 0 0 0 0 
0 0 0 0 0 0 0 0 0 
0 0 0 0 0 0 0 0 0 
0 0 0 0 0 0 0 0 0 
0 0 0 0 0 0 0 0 0 
0 0 0 0 0 0 0 0 0 
0 0 0 0 0 0 0 0 0 
0 0 0 0 0 0 0 0 0 
0 0 0 0 0 0 0 0 0 
0 0 0 0 0 0 0 0 0 
0 0 0 0 0 0 0 0 0 
0 0 0 0 0 0 0 0 0 
0 0 0 0 0 0 0 0 0 
0 0 0 0 0 0 0 0 0 
0 0 0 0 0 0 0 0 0 
0 0 0 0 0 0 0 0 0 
0 0 0 0 0 0 0 0 0 
0 0 0 0 0 0 0 0 0 
0 0 0 0 0 0 0 0 0 
0 0 0 0 0 0 0 0 0 
0 0 0 0 0 0 0 0 0 
0 0 0 0 0 0 0 0 0 
0 0 0 0 0 0 0 0 0 
0 0 0 0 0 0 0 0 0 
0 0 0 0 0 0 0 0 0 
0 0 0 0 0 0 0 0 0 
0 0 0 0 0 0 0 0 0 
0 0 0 0 0 0 0 0 0 
0 0 0 0 0 0 0 0 0 
0 0 0 0 0 0 0 0 0 
0 0 0 0 0 0 0 0 0 
0 0 0 0 0 0 0 0 0 
0 0 0 0 0 0 0 0 0 
0 0 0 0 0 0 0 0 0 
0 0 0 0 0 0 0 0 0 
0 0 0 0 0 0 0 0 0 
0 0 0 0 0 0 0 0 0 
0 0 0 0 0 0 0 0 0 
0 0 0 0 0 0 0 0 0 
0 0 0 0 0 0 0 0 0 
0 0 0 0 0 0 0 0 0 
0 0 0 0 0 0 0 0 0 
0 0 0 0 0 0 0 0 0 
0 0 0 0 0 0 0 0 0 
0 0 0 0 0 0 0 0 0 
0 0 0 0 0 0 0 0 0 
0 0 0 0 0 0 0 0 0 
0 0 0 0 0 0 0 0 0 
0 0 0 0 0 0 0 0 0 
0 0 0 0 0 0 0 0 0 
0 0 0 0 0 0 0 0 0 
0 0 0 0 0 0 0 0 0 
0 0 0 0 0 0 0 0 0 
0 0 0 0 0 0 0 0 0 
0 0 0 0 0 0 0 0 0 
0 0 0 0 0 0 0 0 0 
0 0 0 0 0 0 0 0 0 
0 0 0 0 0 0 0 0 0 
0 0 0 0 0 0 0 0 0 
0 0 0 0 0 0 0 0 0 
0 0 0 0 0 0 0 0 0 
0 0 0 0 0 0 0 0 0 
0 0 0 0 0 0 0 0 0 
0 0 0 0 0 0 0 0 0 
0 0 0 0 0 0 0 0 0 
0 0 0 0 0 0 0 0 0 
0 0 0 0 0 0 0 0 0 
0 0 0 0 0 0 0 0 0 
0 0 0 0 0 0 0 0 0 
0 0 0 0 0 0 0 0 0 
0 0 0 0 0 0 0 0 0 
0 0 0 0 0 0 0 0 0 
0 0 0 0 0 0 0 0 0 
0 0 0 0 0 0 0 0 0 
0 0 0 0 0 0 0 0 0 
0 0 0 0 0 0 0 0 0 
0 0 0 0 0 0 0 0 0 
0 0 0 0 0 0 0 0 0 
0 0 0 0 0 0 0 0 0 
0 0 0 0 0 0 0 0 0 
0 0 0 0 0 0 0 0 0 
0 0 0 0 0 0 0 0 0 
0 0 0 0 0 0 0 0 0 
0 0 0 0 0 0 0 0 0 
0 0 0 0 0 0 0 0 0 
0 0 0 0 0 0 0 0 0 
0 0 0 0 0 0 0 0 0 
0 0 0 0 0 0 0 0 0 
0 0 0 0 0 0 0 0 0 
0 0 0 0 0 0 0 0 0 
0 0 0 0 0 0 0 0 0 
0 0 0 0 0 0 0 0 0 
0 0 0 0 0 0 0 0 0 
0 0 0 0 0 0 0 0 0 
0 0 0 0 0 0 0 0 0 
0 0 0 0 0 0 0 0 0 
0 0 0 0 0 0 0 0 0 
0 0 0 0 0 0 0 0 0 
0 0 0 0 0 0 0 0 0 
0 0 0 0 0 0 0 0 0 
0 0 0 0 0 0 0 0 0 
0 0 0 0 0 0 0 0 0 
0 0 0 0 0 0 0 0 0 
0 0 0 0 0 0 0 0 0 
0 0 0 0 0 0 0 0 0 
0 0 0 0 0 0 0 0 0 
0 0 0 0 0 0 0 0 0 
0 0 0 0 0 0 0 0 0 
0 0 0 0 0 0 0 0 0 
0 0 0 0 0 0 0 0 0 
0 0 0 0 0 0 0 0 0 
0 0 0 0 0 0 0 0 0 
0 0 0 0 0 0 0 0 0 
0 0 0 0 0 0 0 0 0 
0 0 0 0 0 0 0 0 0 
0 0 0 0 0 0 0 0 0 
0 0 0 0 0 0 0 0 0 
0 0 0 0 0 0 0 0 0 
0 0 0 0 0 0 0 0 0 
0 0 0 0 0 0 0 0 0 
0 0 0 0 0 0 0 0 0 
0 0 0 0 0 0 0 0 0 
0 0 0 0 0 0 0 0 0 
0 0 0 0 0 0 0 0 0 
0 0 0 0 0 0 0 0 0 

fx_mag_viz 1 648 double
0 0 0 0 0 0 0 0 0 
0 0 0 0 0 0 0 0 0 
0 0 0 0 0 0 0 0 0 
0 0 0 0 0 0 0 0 0 
0 0 0 0 0 0 0 0 0 
0 0 0 0 0 0 0 0 0 
0 0 0 0 0 0 0 0 0 
0 0 0 0 0 0 0 0 0 
0 0 0 0 0 0 0 0 0 
0 0 0 0 0 0 0 0 0 
0 0 0 0 0 0 0 0 0 
0 0 0 0 0 0 0 0 0 
0 0 0 0 0 0 0 0 0 
0 0 0 0 0 0 0 0 0 
0 0 0 0 0 0 0 0 0 
0 0 0 0 0 0 0 0 0 
0 0 0 0 0 0 0 0 0 
0 0 0 0 0 0 0 0 0 
0 0 0 0 0 0 0 0 0 
0 0 0 0 0 0 0 0 0 
0 0 0 0 0 0 0 0 0 
0 0 0 0 0 0 0 0 0 
0 0 0 0 0 0 0 0 0 
0 0 0 0 0 0 0 0 0 
0 0 0 0 0 0 0 0 0 
0 0 0 0 0 0 0 0 0 
0 0 0 0 0 0 0 0 0 
0 0 0 0 0 0 0 0 0 
0 0 0 0 0 0 0 0 0 
0 0 0 0 0 0 0 0 0 
0 0 0 0 0 0 0 0 0 
0 0 0 0 0 0 0 0 0 
0 0 0 0 0 0 0 0 0 
0 0 0 0 0 0 0 0 0 
0 0 0 0 0 0 0 0 0 
0 0 0 0 0 0 0 0 0 
0 0 0 0 0 0 0 0 0 
0 0 0 0 0 0 0 0 0 
0 0 0 0 0 0 0 0 0 
0 0 0 0 0 0 0 0 0 
0 0 0 0 0 0 0 0 0 
0 0 0 0 0 0 0 0 0 
0 0 0 0 0 0 0 0 0 
0 0 0 0 0 0 0 0 0 
0 0 0 0 0 0 0 0 0 
0 0 0 0 0 0 0 0 0 
0 0 0 0 0 0 0 0 0 
0 0 0 0 0 0 0 0 0 
0 0 0 0 0 0 0 0 0 
0 0 0 0 0 0 0 0 0 
0 0 0 0 0 0 0 0 0 
0 0 0 0 0 0 0 0 0 
0 0 0 0 0 0 0 0 0 
0 0 0 0 0 0 0 0 0 
0 0 0 0 0 0 0 0 0 
0 0 0 0 0 0 0 0 0 
0 0 0 0 0 0 0 0 0 
0 0 0 0 0 0 0 0 0 
0 0 0 0 0 0 0 0 0 
0 0 0 0 0 0 0 0 0 
0 0 0 0 0 0 0 0 0 
0 0 0 0 0 0 0 0 0 
0 0 0 0 0 0 0 0 0 
0 0 0 0 0 0 0 0 0 
0 0 0 0 0 0 0 0 0 
0 0 0 0 0 0 0 0 0 
0 0 0 0 0 0 0 0 0 
0 0 0 0 0 0 0 0 0 
0 0 0 0 0 0 0 0 0 
0 0 0 0 0 0 0 0 0 
0 0 0 0 0 0 0 0 0 
0 0 0 0 0 0 0 0 0 

fy_mag_viz 1 648 double
0 0 0 0 0 0 0 0 0 
0 0 0 0 0 0 0 0 0 
0 0 0 0 0 0 0 0 0 
0 0 0 0 0 0 0 0 0 
0 0 0 0 0 0 0 0 0 
0 0 0 0 0 0 0 0 0 
0 0 0 0 0 0 0 0 0 
0 0 0 0 0 0 0 0 0 
0 0 0 0 0 0 0 0 0 
0 0 0 0 0 0 0 0 0 
0 0 0 0 0 0 0 0 0 
0 0 0 0 0 0 0 0 0 
0 0 0 0 0 0 0 0 0 
0 0 0 0 0 0 0 0 0 
0 0 0 0 0 0 0 0 0 
0 0 0 0 0 0 0 0 0 
0 0 0 0 0 0 0 0 0 
0 0 0 0 0 0 0 0 0 
0 0 0 0 0 0 0 0 0 
0 0 0 0 0 0 0 0 0 
0 0 0 0 0 0 0 0 0 
0 0 0 0 0 0 0 0 0 
0 0 0 0 0 0 0 0 0 
0 0 0 0 0 0 0 0 0 
0 0 0 0 0 0 0 0 0 
0 0 0 0 0 0 0 0 0 
0 0 0 0 0 0 0 0 0 
0 0 0 0 0 0 0 0 0 
0 0 0 0 0 0 0 0 0 
0 0 0 0 0 0 0 0 0 
0 0 0 0 0 0 0 0 0 
0 0 0 0 0 0 0 0 0 
0 0 0 0 0 0 0 0 0 
0 0 0 0 0 0 0 0 0 
0 0 0 0 0 0 0 0 0 
0 0 0 0 0 0 0 0 0 
0 0 0 0 0 0 0 0 0 
0 0 0 0 0 0 0 0 0 
0 0 0 0 0 0 0 0 0 
0 0 0 0 0 0 0 0 0 
0 0 0 0 0 0 0 0 0 
0 0 0 0 0 0 0 0 0 
0 0 0 0 0 0 0 0 0 
0 0 0 0 0 0 0 0 0 
0 0 0 0 0 0 0 0 0 
0 0 0 0 0 0 0 0 0 
0 0 0 0 0 0 0 0 0 
0 0 0 0 0 0 0 0 0 
0 0 0 0 0 0 0 0 0 
0 0 0 0 0 0 0 0 0 
0 0 0 0 0 0 0 0 0 
0 0 0 0 0 0 0 0 0 
0 0 0 0 0 0 0 0 0 
0 0 0 0 0 0 0 0 0 
0 0 0 0 0 0 0 0 0 
0 0 0 0 0 0 0 0 0 
0 0 0 0 0 0 0 0 0 
0 0 0 0 0 0 0 0 0 
0 0 0 0 0 0 0 0 0 
0 0 0 0 0 0 0 0 0 
0 0 0 0 0 0 0 0 0 
0 0 0 0 0 0 0 0 0 
0 0 0 0 0 0 0 0 0 
0 0 0 0 0 0 0 0 0 
0 0 0 0 0 0 0 0 0 
0 0 0 0 0 0 0 0 0 
0 0 0 0 0 0 0 0 0 
0 0 0 0 0 0 0 0 0 
0 0 0 0 0 0 0 0 0 
0 0 0 0 0 0 0 0 0 
0 0 0 0 0 0 0 0 0 
0 0 0 0 0 0 0 0 0 

fz_mag_viz 1 648 double
0 0 0 0 0 0 0 0 0 
0 0 0 0 0 0 0 0 0 
0 0 0 0 0 0 0 0 0 
0 0 0 0 0 0 0 0 0 
0 0 0 0 0 0 0 0 0 
0 0 0 0 0 0 0 0 0 
0 0 0 0 0 0 0 0 0 
0 0 0 0 0 0 0 0 0 
0 0 0 0 0 0 0 0 0 
0 0 0 0 0 0 0 0 0 
0 0 0 0 0 0 0 0 0 
0 0 0 0 0 0 0 0 0 
0 0 0 0 0 0 0 0 0 
0 0 0 0 0 0 0 0 0 
0 0 0 0 0 0 0 0 0 
0 0 0 0 0 0 0 0 0 
0 0 0 0 0 0 0 0 0 
0 0 0 0 0 0 0 0 0 
0 0 0 0 0 0 0 0 0 
0 0 0 0 0 0 0 0 0 
0 0 0 0 0 0 0 0 0 
0 0 0 0 0 0 0 0 0 
0 0 0 0 0 0 0 0 0 
0 0 0 0 0 0 0 0 0 
0 0 0 0 0 0 0 0 0 
0 0 0 0 0 0 0 0 0 
0 0 0 0 0 0 0 0 0 
0 0 0 0 0 0 0 0 0 
0 0 0 0 0 0 0 0 0 
0 0 0 0 0 0 0 0 0 
0 0 0 0 0 0 0 0 0 
0 0 0 0 0 0 0 0 0 
0 0 0 0 0 0 0 0 0 
0 0 0 0 0 0 0 0 0 
0 0 0 0 0 0 0 0 0 
0 0 0 0 0 0 0 0 0 
0 0 0 0 0 0 0 0 0 
0 0 0 0 0 0 0 0 0 
0 0 0 0 0 0 0 0 0 
0 0 0 0 0 0 0 0 0 
0 0 0 0 0 0 0 0 0 
0 0 0 0 0 0 0 0 0 
0 0 0 0 0 0 0 0 0 
0 0 0 0 0 0 0 0 0 
0 0 0 0 0 0 0 0 0 
0 0 0 0 0 0 0 0 0 
0 0 0 0 0 0 0 0 0 
0 0 0 0 0 0 0 0 0 
0 0 0 0 0 0 0 0 0 
0 0 0 0 0 0 0 0 0 
0 0 0 0 0 0 0 0 0 
0 0 0 0 0 0 0 0 0 
0 0 0 0 0 0 0 0 0 
0 0 0 0 0 0 0 0 0 
0 0 0 0 0 0 0 0 0 
0 0 0 0 0 0 0 0 0 
0 0 0 0 0 0 0 0 0 
0 0 0 0 0 0 0 0 0 
0 0 0 0 0 0 0 0 0 
0 0 0 0 0 0 0 0 0 
0 0 0 0 0 0 0 0 0 
0 0 0 0 0 0 0 0 0 
0 0 0 0 0 0 0 0 0 
0 0 0 0 0 0 0 0 0 
0 0 0 0 0 0 0 0 0 
0 0 0 0 0 0 0 0 0 
0 0 0 0 0 0 0 0 0 
0 0 0 0 0 0 0 0 0 
0 0 0 0 0 0 0 0 0 
0 0 0 0 0 0 0 0 0 
0 0 0 0 0 0 0 0 0 
0 0 0 0 0 0 0 0 0 

B_magnitude 1 648 double
0 0 0 0 0 0 0 0 0 
0 0 0 0 0 0 0 0 0 
0 0 0 0 0 0 0 0 0 
0 0 0 0 0 0 0 0 0 
0 0 0 0 0 0 0 0 0 
0 0 0 0 0 0 0 0 0 
0 0 0 0 0 0 0 0 0 
0 0 0 0 0 0 0 0 0 
0 0 0 0 0 0 0 0 0 
0 0 0 0 0 0 0 0 0 
0 0 0 0 0 0 0 0 0 
0 0 0 0 0 0 0 0 0 
0 0 0 0 0 0 0 0 0 
0 0 0 0 0 0 0 0 0 
0 0 0 0 0 0 0 0 0 
0 0 0 0 0 0 0 0 0 
0 0 0 0 0 0 0 0 0 
0 0 0 0 0 0 0 0 0 
0 0 0 0 0 0 0 0 0 
0 0 0 0 0 0 0 0 0 
0 0 0 0 0 0 0 0 0 
0 0 0 0 0 0 0 0 0 
0 0 0 0 0 0 0 0 0 
0 0 0 0 0 0 0 0 0 
0 0 0 0 0 0 0 0 0 
0 0 0 0 0 0 0 0 0 
0 0 0 0 0 0 0 0 0 
0 0 0 0 0 0 0 0 0 
0 0 0 0 0 0 0 0 0 
0 0 0 0 0 0 0 0 0 
0 0 0 0 0 0 0 0 0 
0 0 0 0 0 0 0 0 0 
0 0 0 0 0 0 0 0 0 
0 0 0 0 0 0 0 0 0 
0 0 0 0 0 0 0 0 0 
0 0 0 0 0 0 0 0 0 
0 0 0 0 0 0 0 0 0 
0 0 0 0 0 0 0 0 0 
0 0 0 0 0 0 0 0 0 
0 0 0 0 0 0 0 0 0 
0 0 0 0 0 0 0 0 0 
0 0 0 0 0 0 0 0 0 
0 0 0 0 0 0 0 0 0 
0 0 0 0 0 0 0 0 0 
0 0 0 0 0 0 0 0 0 
0 0 0 0 0 0 0 0 0 
0 0 0 0 0 0 0 0 0 
0 0 0 0 0 0 0 0 0 
0 0 0 0 0 0 0 0 0 
0 0 0 0 0 0 0 0 0 
0 0 0 0 0 0 0 0 0 
0 0 0 0 0 0 0 0 0 
0 0 0 0 0 0 0 0 0 
0 0 0 0 0 0 0 0 0 
0 0 0 0 0 0 0 0 0 
0 0 0 0 0 0 0 0 0 
0 0 0 0 0 0 0 0 0 
0 0 0 0 0 0 0 0 0 
0 0 0 0 0 0 0 0 0 
0 0 0 0 0 0 0 0 0 
0 0 0 0 0 0 0 0 0 
0 0 0 0 0 0 0 0 0 
0 0 0 0 0 0 0 0 0 
0 0 0 0 0 0 0 0 0 
0 0 0 0 0 0 0 0 0 
0 0 0 0 0 0 0 0 0 
0 0 0 0 0 0 0 0 0 
0 0 0 0 0 0 0 0 0 
0 0 0 0 0 0 0 0 0 
0 0 0 0 0 0 0 0 0 
0 0 0 0 0 0 0 0 0 
0 0 0 0 0 0 0 0 0 

B_gradient_mag 1 648 double
0 0 0 0 0 0 0 0 0 
0 0 0 0 0 0 0 0 0 
0 0 0 0 0 0 0 0 0 
0 0 0 0 0 0 0 0 0 
0 0 0 0 0 0 0 0 0 
0 0 0 0 0 0 0 0 0 
0 0 0 0 0 0 0 0 0 
0 0 0 0 0 0 0 0 0 
0 0 0 0 0 0 0 0 0 
0 0 0 0 0 0 0 0 0 
0 0 0 0 0 0 0 0 0 
0 0 0 0 0 0 0 0 0 
0 0 0 0 0 0 0 0 0 
0 0 0 0 0 0 0 0 0 
0 0 0 0 0 0 0 0 0 
0 0 0 0 0 0 0 0 0 
0 0 0 0 0 0 0 0 0 
0 0 0 0 0 0 0 0 0 
0 0 0 0 0 0 0 0 0 
0 0 0 0 0 0 0 0 0 
0 0 0 0 0 0 0 0 0 
0 0 0 0 0 0 0 0 0 
0 0 0 0 0 0 0 0 0 
0 0 0 0 0 0 0 0 0 
0 0 0 0 0 0 0 0 0 
0 0 0 0 0 0 0 0 0 
0 0 0 0 0 0 0 0 0 
0 0 0 0 0 0 0 0 0 
0 0 0 0 0 0 0 0 0 
0 0 0 0 0 0 0 0 0 
0 0 0 0 0 0 0 0 0 
0 0 0 0 0 0 0 0 0 
0 0 0 0 0 0 0 0 0 
0 0 0 0 0 0 0 0 0 
0 0 0 0 0 0 0 0 0 
0 0 0 0 0 0 0 0 0 
0 0 0 0 0 0 0 0 0 
0 0 0 0 0 0 0 0 0 
0 0 0 0 0 0 0 0 0 
0 0 0 0 0 0 0 0 0 
0 0 0 0 0 0 0 0 0 
0 0 0 0 0 0 0 0 0 
0 0 0 0 0 0 0 0 0 
0 0 0 0 0 0 0 0 0 
0 0 0 0 0 0 0 0 0 
0 0 0 0 0 0 0 0 0 
0 0 0 0 0 0 0 0 0 
0 0 0 0 0 0 0 0 0 
0 0 0 0 0 0 0 0 0 
0 0 0 0 0 0 0 0 0 
0 0 0 0 0 0 0 0 0 
0 0 0 0 0 0 0 0 0 
0 0 0 0 0 0 0 0 0 
0 0 0 0 0 0 0 0 0 
0 0 0 0 0 0 0 0 0 
0 0 0 0 0 0 0 0 0 
0 0 0 0 0 0 0 0 0 
0 0 0 0 0 0 0 0 0 
0 0 0 0 0 0 0 0 0 
0 0 0 0 0 0 0 0 0 
0 0 0 0 0 0 0 0 0 
0 0 0 0 0 0 0 0 0 
0 0 0 0 0 0 0 0 0 
0 0 0 0 0 0 0 0 0 
0 0 0 0 0 0 0 0 0 
0 0 0 0 0 0 0 0 0 
0 0 0 0 0 0 0 0 0 
0 0 0 0 0 0 0 0 0 
0 0 0 0 0 0 0 0 0 
0 0 0 0 0 0 0 0 0 
0 0 0 0 0 0 0 0 0 
0 0 0 0 0 0 0 0 0 

