# vtk DataFile Version 5.1
Generated by LIGGGHTS
ASCII
DATASET POLYDATA
POINTS 648 float
-0.0428902 -0.0449088 0.00102 -0.0346971 -0.0446764 0.00106763 -0.00340304 -0.0448428 0.0012855 
-0.044759 -0.0437614 0.00102 -0.0335565 -0.0442122 0.00106664 -0.0308094 -0.0435702 0.00102 
-0.027409 -0.0433703 0.00113892 0.0416479 -0.0439733 0.00108616 -0.0248654 -0.0427111 0.00102524 
0.0248068 -0.0428986 0.00105603 0.0348044 -0.042095 0.00104888 0.0418836 -0.0421436 0.00102 
-0.0349861 -0.0412827 0.00107274 -0.00674967 -0.0416523 0.0010231 0.0339316 -0.041715 0.00137064 
0.0414821 -0.0410789 0.00102014 -0.042922 -0.0404536 0.00102 -0.0334706 -0.0396012 0.00104816 
-0.0248652 -0.040212 0.00114445 -0.018434 -0.0405477 0.00102 -0.00670669 -0.0394183 0.00105788 
0.0244803 -0.0401788 0.00122683 0.040047 -0.0404588 0.00102 -0.0108246 -0.0388127 0.00102 
-0.00302782 -0.0385948 0.00102 0.0156715 -0.0391733 0.00102 0.00798734 -0.0367051 0.00102 
0.0308099 -0.0378456 0.00102 0.0397687 -0.0374633 0.00103488 -0.0439713 -0.0357399 0.00113172 
0.000822496 -0.0363122 0.00102 0.00594186 -0.0351889 0.00108539 0.00879071 -0.0344865 0.00116283 
0.0333162 -0.0342631 0.00102 -0.0427235 -0.0332389 0.00117399 -0.00586029 -0.0338127 0.00112698 
0.00264867 -0.0338128 0.00149191 0.023158 -0.0340207 0.00102 0.0244271 -0.0334586 0.00102 
-0.0262624 -0.032473 0.00102 -0.0232422 -0.0321576 0.00102 0.0346336 -0.0325969 0.00118332 
-0.0396817 -0.0304797 0.00132366 -0.0266532 -0.0301716 0.00102 -0.0105296 -0.0314142 0.00102 
0.0280204 -0.0311414 0.00102 0.0449741 -0.0303513 0.00129952 -0.0448384 -0.0296834 0.00102 
0.0346338 -0.0290927 0.00126806 0.00577088 -0.0287415 0.00102 0.0164647 -0.0275391 0.00114439 
-0.0430551 -0.0267583 0.00103446 -0.00580099 -0.0272788 0.00109769 0.000892701 -0.0263701 0.00102014 
0.0306875 -0.0259396 0.00102171 0.033456 -0.0256735 0.00102 0.032808 -0.025967 0.00102 
0.0155599 -0.0240909 0.00113831 -0.0408326 -0.0234295 0.00102 -0.0139777 -0.0223984 0.00143445 
-0.0225401 -0.0213878 0.00104377 0.00623721 -0.0211799 0.00122421 0.0233461 -0.0214624 0.00107867 
0.039775 -0.0211058 0.00104942 0.0436787 -0.0219137 0.00102 -0.00827992 -0.020547 0.00126928 
0.0336491 -0.0197505 0.00102 -0.0108877 -0.0188832 0.00102 0.0363266 -0.0194176 0.00102 
-0.0317771 -0.0175651 0.00102 -0.0204621 -0.0172006 0.00125318 -0.0100897 -0.0180162 0.00105316 
0.0030191 -0.0179247 0.00102 0.0404767 -0.0183151 0.00102 -0.0339565 -0.0167518 0.00106632 
-0.0257955 -0.0157834 0.00102088 0.0223879 -0.0163393 0.00102 -0.00444012 -0.0151621 0.00102014 
0.0198229 -0.0156851 0.00115266 0.0268005 -0.0146468 0.00125194 -0.0388614 -0.0136303 0.00104726 
-0.0329121 -0.0139828 0.00118582 -0.0227164 -0.0141288 0.00106645 -0.0117656 -0.0138394 0.00102533 
0.0176437 -0.0119747 0.00127444 0.00689113 -0.0107816 0.00102 0.0277003 -0.0107969 0.00102 
-0.0222502 -0.00974669 0.0010232 -0.0196799 -0.00931279 0.00123416 -0.0112192 -0.0104501 0.00102 
0.00743742 -0.00926665 0.00102 0.013874 -0.00963069 0.00102346 0.0251729 -0.00985964 0.00120707 
0.0313953 -0.00974065 0.0010249 0.0350526 -0.0102353 0.00102 0.0352883 -0.0103067 0.00149838 
-0.00553214 -0.00871323 0.00102382 -0.00254943 -0.00825679 0.00129049 -0.0304645 -0.00701594 0.00124716 
-0.0198564 -0.00683511 0.00102 0.0109664 -0.00760095 0.00107172 0.0404774 -0.00688032 0.00123562 
-0.0129003 -0.00574839 0.00102 -0.00747582 -0.00609419 0.00102421 0.0387156 -0.00624884 0.00119858 
-0.040885 -0.00406647 0.00109327 0.00937085 -0.00418454 0.00102 0.0131353 -0.00504642 0.00102 
0.021323 -0.00444137 0.00102 -0.042786 -0.00359954 0.00126779 -0.0179231 -0.00300678 0.00102 
-0.0141425 -0.00311887 0.00102371 -0.0408474 -0.00214648 0.00112315 0.00664535 -0.00164817 0.00112559 
-0.0281455 -0.00127675 0.00120841 -0.00783961 -0.000387029 0.00102 -0.00702036 -0.00121172 0.00102 
-0.0260142 0.00017485 0.00102554 0.0384376 0.000848974 0.00102 -0.00967086 0.00179773 0.00102 
0.00417698 0.0024455 0.00102 0.0147261 0.00139147 0.00126121 0.0188762 0.00181355 0.00106253 
0.032558 0.00153523 0.00111389 -0.0325416 0.00283857 0.00103574 0.00265626 0.00371614 0.00123897 
0.0449494 0.00392273 0.00102616 -0.025141 0.00447188 0.00122347 0.0292006 0.00433004 0.00102 
0.0305447 0.00486582 0.00102 0.0404406 0.00462082 0.0011703 -0.037077 0.00611456 0.00124765 
-0.0287984 0.00559412 0.00102 -0.0170872 0.00564833 0.00102 0.0011249 0.00615697 0.00102 
0.0101693 0.00555192 0.00105211 0.021602 0.00540593 0.00102 0.0228765 0.00606581 0.00102 
0.0246705 0.0064451 0.00102 0.030759 0.00580352 0.00131684 -0.0426568 0.00723228 0.00102 
0.00533928 0.00728904 0.00114586 0.0221269 0.00728552 0.00102455 0.0283387 0.00890506 0.00102 
0.0340899 0.00882812 0.00105117 -0.0392616 0.00972366 0.00102 -0.0214351 0.00957734 0.00102 
-0.0101256 0.00978275 0.00102 0.0197977 0.00963841 0.00102 0.0212596 0.00979192 0.00102 
0.0211953 0.00966092 0.00114596 -0.0394276 0.0109375 0.00118768 0.0399323 0.0117688 0.00102 
0.0398091 0.011618 0.00104925 -0.0365733 0.0119208 0.00122679 -0.00279986 0.0127222 0.00102 
0.00243185 0.0120975 0.00111609 0.00861143 0.0123591 0.00105186 -0.0429188 0.0135204 0.0011831 
-0.034865 0.0142961 0.00102 -0.0310202 0.0131063 0.00102 8.23501e-07 0.0138406 0.00102 
0.0114764 0.0140289 0.00134098 0.0143092 0.0139794 0.00102 0.0248423 0.0143007 0.00102 
0.0287781 0.014071 0.00102 -0.00307286 0.0144526 0.00102 0.000954082 0.0152563 0.00125837 
0.0121458 0.0151918 0.00116992 0.00517921 0.0169249 0.00102 0.0418335 0.0161761 0.00102387 
-0.0360536 0.0173104 0.00102 -0.0122189 0.0175978 0.00141301 0.0215224 0.0171285 0.00102 
0.0407412 0.0174253 0.00120253 -0.0214239 0.0189608 0.00102 0.00395304 0.0187088 0.00131629 
0.0090081 0.0191686 0.00105539 0.018015 0.0183735 0.00124776 -0.0431379 0.0208085 0.00106183 
-0.023041 0.0197144 0.00102 -0.022709 0.0198803 0.00102 -0.0153727 0.020636 0.00102 
-0.0282566 0.021284 0.00102 0.0123926 0.0218243 0.00102 -0.0349287 0.0230684 0.00121406 
0.03506 0.0228899 0.00102 -0.0267196 0.0236159 0.00126265 0.0181332 0.0246356 0.00136668 
0.0307708 0.0242663 0.00105484 -0.00739359 0.0259593 0.00124577 0.0167463 0.0251763 0.00102 
0.0226957 0.0260881 0.00102 0.00953871 0.0271324 0.00125999 0.0395905 0.0272142 0.00103697 
-0.0357156 0.0282031 0.00113307 -0.0127911 0.0299546 0.00102477 -0.0409258 0.0305044 0.00102 
-0.0313244 0.0314049 0.00105006 -0.0200898 0.0311527 0.00102 0.00372347 0.0304157 0.00102 
0.0038092 0.0311583 0.00102028 0.026696 0.03017 0.00130251 0.0364634 0.0310238 0.00102 
0.0444958 0.0309554 0.00102 -0.0073504 0.0318329 0.00102625 0.00390562 0.0317225 0.00102103 
0.01325 0.0319187 0.00109632 -0.0337286 0.0337045 0.00126006 -0.0264781 0.032823 0.00102 
0.00284552 0.0345861 0.00102 0.0164577 0.0353116 0.00120526 0.0231674 0.0340949 0.00115364 
-0.041477 0.0364172 0.00104867 -0.00196307 0.0366495 0.00119971 -0.0245447 0.0378537 0.00126352 
0.0297434 0.0373158 0.00102 -0.00973825 0.0391656 0.00102 0.0165329 0.0385374 0.00102 
0.0238959 0.0383247 0.00102 -0.0375088 0.0393741 0.00121502 -0.0312382 0.0393096 0.00102543 
-0.0112537 0.0395394 0.00118369 0.0221021 0.0401282 0.00123244 0.0251972 0.0393087 0.00102 
-0.0133259 0.0414802 0.00123297 0.0163992 0.0415262 0.00102 0.0222253 0.0407186 0.00102 
-0.0390027 0.0421086 0.00102 0.00805094 0.0422278 0.00119527 0.0294278 0.0431452 0.00121408 
-0.0205282 0.0432397 0.00125117 0.0405446 0.0433429 0.00124572 0.0399235 0.0434757 0.00109095 
-0.0317519 -0.0446953 0.00258449 0.0147823 -0.0446949 0.00110561 0.0262096 -0.0449372 0.00254086 
0.0145521 -0.0432303 0.00151048 0.0181024 -0.0433049 0.00132192 0.0131812 -0.0427533 0.00234181 
0.000425919 -0.0415728 0.00244451 0.0238162 -0.0409762 0.00215783 0.0338942 -0.0410147 0.00240103 
0.0424299 -0.0409921 0.00237224 -0.0169239 -0.0402939 0.00185706 -0.0234086 -0.038644 0.002346 
-0.0370475 -0.0370945 0.00182279 -0.0273176 -0.0361067 0.00160308 -0.0168273 -0.0360331 0.00131368 
-0.00338111 -0.0363358 0.00220066 0.0195647 -0.0366528 0.00204502 0.0307351 -0.0355434 0.00237176 
-0.0179089 -0.0346335 0.00268077 0.0077947 -0.0345433 0.0021183 0.043014 -0.0343178 0.00253541 
0.0433459 -0.0353282 0.00197454 -0.0376897 -0.0314333 0.00190865 -0.0160452 -0.0323821 0.00226882 
0.00802514 -0.031483 0.00118274 -0.0386911 -0.0311434 0.0017602 -0.00682403 -0.0314098 0.00161088 
0.010226 -0.0308634 0.00242691 0.00231692 -0.0294453 0.00196504 0.0392765 -0.0300093 0.00247196 
-0.0432264 -0.0264101 0.0022563 0.0101031 -0.0273014 0.00210608 0.03382 -0.0268981 0.00223786 
-0.0338231 -0.0250135 0.00106355 -0.00446216 -0.0255279 0.00228388 0.0054016 -0.025334 0.00199763 
0.00538025 -0.0241403 0.00194705 -0.038621 -0.0229432 0.00202475 0.0115492 -0.0227248 0.00203266 
-0.0323128 -0.0219837 0.0025494 -0.0291427 -0.0219343 0.00250691 0.0262592 -0.0217201 0.0017688 
-0.0296942 -0.0196153 0.00126676 0.00156248 -0.0194187 0.00131873 0.0282033 -0.0178095 0.00170434 
-0.0426154 -0.0165053 0.00134504 -0.0405162 -0.0161033 0.00193714 0.0296492 -0.015918 0.00266928 
-0.015814 -0.0152491 0.00139884 0.0249316 -0.014475 0.00114387 0.0375745 -0.0151367 0.00149452 
0.0403752 -0.0143085 0.00180601 -0.0341597 -0.0122829 0.00116511 0.0414517 -0.0114994 0.00191158 
0.0218314 -0.00971151 0.0027512 0.0286804 -0.00919085 0.00139003 -0.0101373 -0.00698039 0.00267392 
-0.00433253 -0.00676057 0.00162624 -0.00401126 -0.00720159 0.00116279 0.0161928 -0.00760918 0.00231797 
0.0275881 -0.00673863 0.00183297 -0.00720807 -0.00608605 0.00253549 0.0180565 -0.00487531 0.00144335 
0.0386193 -0.00496685 0.00113572 0.0448793 -0.00396119 0.00217725 -0.0120059 -0.00345367 0.00137072 
0.00975646 -0.00313231 0.0024191 0.0293019 -0.00298432 0.00247344 -0.00896956 -0.00131708 0.00224054 
-0.0376932 -0.000132947 0.00182836 -0.000610522 -0.00103491 0.00256579 0.0290986 -0.000251763 0.00131798 
-0.0416237 0.00110806 0.00192476 -0.0332593 0.000859011 0.00254898 -0.0131355 0.00164571 0.00268528 
0.0362421 0.00170773 0.00217492 -0.0137512 0.00384646 0.00267728 0.00314898 0.00491531 0.00219141 
0.0323225 0.00436429 0.00182755 -0.00723413 0.00605583 0.0018508 -0.00552594 0.00555795 0.00226205 
-0.0442311 0.00821601 0.00182086 0.0142017 0.0079404 0.0011093 0.0202046 0.00840095 0.00114382 
0.00474506 0.0103043 0.00218941 0.00978397 0.00922321 0.00220781 0.00418285 0.0112423 0.00218303 
-0.0350204 0.0121089 0.00209468 0.0128044 0.0127337 0.00127915 0.014866 0.0127598 0.00148538 
0.0261916 0.0119357 0.00215889 0.00789931 0.0136568 0.00184137 0.0336082 0.013194 0.00156511 
0.0441199 0.0136981 0.00215361 -0.0196462 0.0155185 0.00175837 -0.0161548 0.0159009 0.00257997 
0.0226738 0.0181095 0.00124274 -0.0436896 0.0195853 0.00271686 0.00757299 0.0192258 0.00163334 
0.0122157 0.0191756 0.00121054 0.0388885 0.0193682 0.00125034 0.0350116 0.0207306 0.00240214 
0.00128112 0.0217131 0.00137797 -0.0421793 0.0225172 0.0023348 -0.0295899 0.0232577 0.00189183 
0.0146363 0.0223077 0.00116288 -0.00782209 0.0241861 0.00141186 0.0258603 0.0235991 0.00124604 
-0.0386663 0.0253433 0.00129364 -0.0132251 0.0252506 0.00253262 -0.0267569 0.0263983 0.00143058 
-0.0114472 0.026715 0.00215926 -0.0102477 0.0267602 0.00159433 -0.00563177 0.0268155 0.00133081 
0.00834461 0.0278725 0.00220625 -0.0406313 0.0295913 0.00251163 -0.0152062 0.0294088 0.00159055 
0.0191509 0.0299648 0.00132184 0.0434247 0.0295768 0.00226687 -0.032208 0.0306075 0.00107377 
-0.0108954 0.0304 0.00136862 0.00519606 0.0301696 0.00203429 -0.0213481 0.0319153 0.00201766 
-0.00435696 0.0325462 0.00134931 0.0372507 0.0318783 0.00147995 -0.0359241 0.0337864 0.00224276 
0.0152528 0.033152 0.00248613 0.00317215 0.0343196 0.00207362 0.0132394 0.0345575 0.00220113 
-0.00883869 0.0381834 0.00227899 -0.00647711 0.0391566 0.00236467 0.0281745 0.039089 0.00242709 
-0.0379532 0.0399341 0.00227145 -0.00785852 0.041878 0.00210544 0.0430506 0.0422314 0.00211977 
-0.0181988 0.0434549 0.00123646 0.0114086 0.0440135 0.00152661 0.0352379 0.0438995 0.00179482 
0.0352701 0.0439749 0.00235654 -0.0190394 0.0446837 0.00220738 -0.0160353 0.0448572 0.00185968 
0.0171919 0.0449185 0.00121392 0.0211706 0.0445491 0.0013547 -0.00396528 -0.0444182 0.00366795 
0.0195053 -0.043722 0.003353 -0.0389435 -0.0425966 0.00355472 0.0201641 -0.0426709 0.00341392 
0.0406519 -0.0427256 0.00368681 -0.0136468 -0.0412372 0.00369684 0.0166138 -0.0412108 0.00369733 
-0.0406141 -0.0405112 0.00270867 0.00849583 -0.0405939 0.00343967 -0.0289295 -0.0389067 0.00278946 
-0.0195638 -0.0385913 0.00349169 0.0325128 -0.03812 0.00361126 0.00985621 -0.0367022 0.00361017 
0.0341086 -0.0368686 0.00289558 -0.0309963 -0.0355024 0.00281431 -0.00161929 -0.0353994 0.00312506 
0.0355384 -0.0354155 0.00352103 -0.0177429 -0.0346724 0.00316102 -8.23525e-05 -0.034098 0.00341038 
0.0403097 -0.0347888 0.00314216 -0.0177803 -0.0340186 0.00371278 -0.0161578 -0.0337243 0.00311903 
0.027474 -0.0338615 0.0025626 -0.0233761 -0.031813 0.00383503 -0.0210092 -0.0320472 0.00328331 
-0.0220587 -0.0306349 0.00368434 -0.0414327 -0.0290659 0.00360941 -0.0263426 -0.0292431 0.00297596 
0.023019 -0.0293484 0.0034795 -0.0401314 -0.0280847 0.00322302 -0.0346801 -0.0287009 0.00305715 
-0.0240024 -0.0280603 0.00302977 0.0156293 -0.0283842 0.00290814 0.0153133 -0.0285941 0.00369613 
0.0350196 -0.0250011 0.00369029 0.0347572 -0.0260666 0.00346127 -0.00863888 -0.0237376 0.00291775 
0.00179778 -0.0247441 0.0029889 0.00558373 -0.0242787 0.0037439 0.0210005 -0.0239559 0.00321236 
-0.0350278 -0.0224863 0.002832 -0.0127621 -0.0231756 0.00288675 0.0109547 -0.0235646 0.00297904 
0.0240101 -0.0228809 0.00291082 0.035159 -0.023363 0.00350584 -0.0164034 -0.0216001 0.00316791 
0.0394323 -0.021923 0.00370495 -0.0210835 -0.0209207 0.00367247 -0.0033641 -0.0204173 0.00366574 
0.00548761 -0.0197918 0.00292482 -0.0207996 -0.0190456 0.00340569 0.0134129 -0.0192809 0.00273955 
0.0204492 -0.0194639 0.0036423 -0.0328213 -0.0176588 0.0025243 -0.0183202 -0.0175475 0.00242961 
0.0184681 -0.0172117 0.0028519 -0.0147645 -0.0165889 0.00318694 0.0252581 -0.0163235 0.00341027 
0.038292 -0.016257 0.00261168 -0.0408642 -0.0154151 0.00302831 0.0132043 -0.01541 0.00369521 
0.0323803 -0.0150629 0.00370348 -0.0313057 -0.0141988 0.00278178 -0.0279963 -0.0141356 0.00376074 
-0.0186412 -0.0134353 0.0025195 -0.00710141 -0.0133745 0.00312585 0.00886689 -0.0141191 0.00326947 
0.0144468 -0.013247 0.00370965 -0.0327621 -0.0121928 0.00346141 -0.0269092 -0.0125643 0.00255413 
-0.00528066 -0.0121118 0.00384712 0.0322358 -0.0130621 0.00279375 0.0347312 -0.012978 0.0028147 
0.0253763 -0.011051 0.00347109 -0.0253401 -0.0103599 0.00298083 -0.0136128 -0.00979682 0.00283091 
0.0334462 -0.00930086 0.00366145 0.0406218 -0.0100941 0.00278304 -0.042331 -0.00792816 0.00264352 
-0.0343844 -0.0078404 0.00282064 -0.0344646 -0.00725539 0.00251276 -0.0211095 -0.00770044 0.00297108 
-0.0150798 -0.00698339 0.00320734 -0.0135858 -0.00672635 0.0024376 0.0129906 -0.00677597 0.00312216 
0.00523139 -0.00599236 0.00275257 -0.0253129 -0.0039775 0.00381815 0.0180458 -0.00470109 0.00362569 
0.0200271 -0.00425623 0.00370635 -0.00941413 -0.00330341 0.00352627 -0.0395569 -0.00227866 0.00356027 
-0.0198668 -0.00211416 0.00313697 0.0168839 -0.00210364 0.00288579 -0.0283489 -0.000417126 0.00360389 
-0.0153419 -0.00108619 0.00384261 0.00127443 -0.000618905 0.00293181 0.0140084 -6.89735e-05 0.00356372 
0.0420414 -0.00101026 0.00336228 0.0407777 0.000744206 0.00284327 -0.00229178 0.0020129 0.00295645 
0.0116524 0.00206193 0.00363546 0.0189244 0.00254502 0.00351851 -0.0261639 0.00337815 0.00353358 
-0.0233311 0.00384073 0.00324069 0.00243665 0.00282786 0.00348383 0.0183943 0.00266245 0.003741 
-0.027449 0.00511055 0.0031881 0.0260144 0.00429017 0.00310554 -0.0406381 0.00555966 0.00252571 
-0.0403489 0.00598291 0.00303515 -0.01547 0.00642247 0.00312374 0.0250346 0.00641518 0.00300826 
0.0332757 0.00539899 0.00274346 0.0358407 0.00533501 0.0036378 -0.009285 0.00693532 0.00373329 
-0.00598638 0.00689803 0.00319046 0.0110904 0.00657535 0.00276558 -0.019893 0.00878872 0.00309065 
-0.0105861 0.00898083 0.00365751 0.0324887 0.00836074 0.00302819 -0.0408306 0.00999374 0.00308786 
-0.0349081 0.00917553 0.00355133 0.0234497 0.00978487 0.00365182 0.027557 0.009967 0.00350266 
-0.00808524 0.0113378 0.00357885 -0.00071691 0.0108932 0.00368042 -0.00831541 0.0129665 0.00257584 
-0.00841171 0.0143034 0.00377389 -0.00867948 0.0139924 0.00302309 0.012949 0.0143048 0.0029801 
0.0311878 0.014057 0.00256406 0.0396593 0.013993 0.00365872 -0.0287818 0.014969 0.00325967 
-0.0231109 0.0157017 0.00376702 0.0440772 0.0154938 0.00304181 -0.0408838 0.0159645 0.00367167 
-0.0286532 0.0159811 0.00315346 -0.00443291 0.0160613 0.00276298 -0.00317984 0.0164631 0.00308387 
-0.0193355 0.018129 0.00292478 0.00546842 0.0177814 0.00278542 0.0256029 0.0175394 0.00274377 
-0.0363159 0.0185996 0.00291474 0.00153271 0.0201988 0.00310311 0.00742845 0.0199749 0.00370514 
0.00976854 0.0197772 0.00316326 -0.0287332 0.0215601 0.00345534 -0.0122989 0.0222019 0.00336913 
0.0362273 0.0220011 0.0025164 0.0398418 0.0217469 0.00257963 -0.0324762 0.0230005 0.00372721 
-0.0148746 0.0223253 0.00369364 0.00126512 0.0228658 0.00360954 -0.0436572 0.0238848 0.00338501 
-0.0138035 0.0240512 0.00280516 0.00264144 0.0247174 0.0035036 0.021223 0.0244832 0.00376877 
0.0438582 0.0244724 0.00274413 0.000162142 0.0251126 0.00279992 -0.0190887 0.0269029 0.0027914 
-0.0128609 0.0265935 0.00323514 -0.0214233 0.0285543 0.00342493 -0.014478 0.0275162 0.0018617 
0.0397191 0.0283771 0.00365083 -0.0376379 0.0294143 0.00263095 -0.0219587 0.0304934 0.00257301 
0.0040127 0.0314243 0.00351216 0.0191028 0.0315895 0.00318382 0.0193546 0.0324404 0.0037338 
0.0337272 0.0324898 0.0031623 0.0380057 0.0324307 0.00363006 -0.0425374 0.0333781 0.00313161 
0.00727395 0.0332762 0.00301009 0.0214431 0.0335886 0.00267224 -0.0422696 0.0340949 0.00268798 
-0.00472634 0.0344449 0.00342988 0.0278529 0.0342296 0.00373355 -0.0407273 0.0358476 0.00338213 
-0.00750544 0.0361316 0.00273519 0.00888594 0.0360502 0.00321587 0.00367032 0.0371324 0.00362168 
0.0030545 0.0369981 0.00254152 0.0311732 0.0371467 0.00251506 -0.00585061 0.0388609 0.00351489 
-0.039126 0.0399637 0.00310938 0.00201585 0.0404036 0.00339546 0.0170579 0.0421878 0.00330451 
0.00528787 0.0432844 0.00367648 -0.0390775 0.0447256 0.00368278 0.0268369 -0.0315202 0.00407763 
-0.0240719 -0.0268296 0.00377325 0.0102479 -0.024092 0.00389158 0.0272875 -0.0186725 0.00392871 
0.0323804 -0.0132471 0.00352479 0.0342493 -0.0115037 0.00415654 -0.038829 -0.00978443 0.00421766 
-0.0214415 -0.007536 0.00444391 -0.0107529 -0.00365687 0.0040352 0.0277548 0.0042931 0.0039822 
-0.0429246 0.00657681 0.00398186 0.0320014 0.00756294 0.0038811 0.023953 0.00820576 0.0039674 
0.00976298 0.0163696 0.00507576 -0.0260391 0.0304395 0.00378358 0.0354139 0.0312817 0.00348211 
0.0412685 -0.0295104 0.00518398 0.0218308 -0.0192565 0.00510671 0.0223025 -0.0112244 0.00562493 
0.0127657 -0.00746761 0.00531438 -0.00474481 -0.00600267 0.00460654 0.039455 -0.000236508 0.00568522 
-0.0408092 0.00981999 0.00524069 0.012585 0.0155082 0.00462943 -0.0368667 0.0306348 0.00476483 
-0.0225361 -0.0441701 0.00632487 -0.0419519 -0.0259749 0.0070651 0.0153641 0.0146287 0.00695667 
-0.0269229 0.0267788 0.00615022 -0.0393221 -0.0167834 0.00789045 -0.0207563 -0.0111167 0.00764081 
-0.0449336 -0.00957357 0.00775406 -0.0326334 -0.00963456 0.00819202 0.00513794 0.0433856 0.00791824 
-0.0197415 0.0344175 0.00987896 0.00308146 0.0401468 0.00938302 0.0185094 -0.042363 0.0111741 
0.0419483 -0.0348097 0.0112369 -0.0336946 -0.0248459 0.0108821 -0.0328109 -0.0226975 0.0106802 
-0.0329608 -0.0218045 0.00997689 0.0302919 -0.0148257 0.0108422 -0.024842 -0.00884532 0.0102759 
-0.0371624 0.011326 0.010207 -0.0245993 0.0193658 0.0101453 0.0323341 0.0191974 0.0105784 
0.0104707 0.0313218 0.0111205 0.0439232 0.0371117 0.0105846 -0.0281804 0.0418824 0.011179 
-0.0440308 0.0448256 0.0109048 -0.015788 -0.0282898 0.0121708 0.0414834 -0.0181367 0.0114759 
0.0379188 0.0120326 0.0121253 -0.0420316 -0.0145538 0.0138551 -0.0155539 0.0359545 0.0133946 
-0.0386256 -0.00983966 0.0151619 -0.0437633 0.0406561 0.0142062 -0.00521279 -0.0413279 0.0165852 
-0.0385899 -0.0405251 0.0155375 0.0414788 -0.00521487 0.0157171 -0.0356048 -0.000104637 0.0164358 
0.00347554 0.00338662 0.015944 -0.0144089 0.0201081 0.0165309 -0.0296003 0.0277025 0.016329 
0.0433204 -0.0141837 0.0176589 0.0154702 -0.00154679 0.0172596 0.0133448 0.00646544 0.0170604 
-0.0081225 0.0151775 0.0174793 -0.0256005 0.0215871 0.0179022 0.0289145 -0.0340196 0.0189703 
0.00357123 -0.00830953 0.0190231 0.0282359 -0.00877456 0.0189564 -0.00757157 0.00454821 0.0189481 
0.0188903 -0.0308528 0.0197106 -0.0207679 -0.0256315 0.0200477 0.00635633 0.000852437 0.0201423 
0.0131273 0.040817 0.0194699 0.0242571 -0.0100823 0.0209313 -0.00254916 -0.00379952 0.020934 
0.00643655 -0.000956063 0.0206902 0.00741479 -0.0295782 0.0241793 -0.0170112 0.0231088 0.024537 

VERTICES 649 648
OFFSETS vtktypeint64
0 1 2 3 4 5 6 7 8 
9 10 11 12 13 14 15 16 17 
18 19 20 21 22 23 24 25 26 
27 28 29 30 31 32 33 34 35 
36 37 38 39 40 41 42 43 44 
45 46 47 48 49 50 51 52 53 
54 55 56 57 58 59 60 61 62 
63 64 65 66 67 68 69 70 71 
72 73 74 75 76 77 78 79 80 
81 82 83 84 85 86 87 88 89 
90 91 92 93 94 95 96 97 98 
99 100 101 102 103 104 105 106 107 
108 109 110 111 112 113 114 115 116 
117 118 119 120 121 122 123 124 125 
126 127 128 129 130 131 132 133 134 
135 136 137 138 139 140 141 142 143 
144 145 146 147 148 149 150 151 152 
153 154 155 156 157 158 159 160 161 
162 163 164 165 166 167 168 169 170 
171 172 173 174 175 176 177 178 179 
180 181 182 183 184 185 186 187 188 
189 190 191 192 193 194 195 196 197 
198 199 200 201 202 203 204 205 206 
207 208 209 210 211 212 213 214 215 
216 217 218 219 220 221 222 223 224 
225 226 227 228 229 230 231 232 233 
234 235 236 237 238 239 240 241 242 
243 244 245 246 247 248 249 250 251 
252 253 254 255 256 257 258 259 260 
261 262 263 264 265 266 267 268 269 
270 271 272 273 274 275 276 277 278 
279 280 281 282 283 284 285 286 287 
288 289 290 291 292 293 294 295 296 
297 298 299 300 301 302 303 304 305 
306 307 308 309 310 311 312 313 314 
315 316 317 318 319 320 321 322 323 
324 325 326 327 328 329 330 331 332 
333 334 335 336 337 338 339 340 341 
342 343 344 345 346 347 348 349 350 
351 352 353 354 355 356 357 358 359 
360 361 362 363 364 365 366 367 368 
369 370 371 372 373 374 375 376 377 
378 379 380 381 382 383 384 385 386 
387 388 389 390 391 392 393 394 395 
396 397 398 399 400 401 402 403 404 
405 406 407 408 409 410 411 412 413 
414 415 416 417 418 419 420 421 422 
423 424 425 426 427 428 429 430 431 
432 433 434 435 436 437 438 439 440 
441 442 443 444 445 446 447 448 449 
450 451 452 453 454 455 456 457 458 
459 460 461 462 463 464 465 466 467 
468 469 470 471 472 473 474 475 476 
477 478 479 480 481 482 483 484 485 
486 487 488 489 490 491 492 493 494 
495 496 497 498 499 500 501 502 503 
504 505 506 507 508 509 510 511 512 
513 514 515 516 517 518 519 520 521 
522 523 524 525 526 527 528 529 530 
531 532 533 534 535 536 537 538 539 
540 541 542 543 544 545 546 547 548 
549 550 551 552 553 554 555 556 557 
558 559 560 561 562 563 564 565 566 
567 568 569 570 571 572 573 574 575 
576 577 578 579 580 581 582 583 584 
585 586 587 588 589 590 591 592 593 
594 595 596 597 598 599 600 601 602 
603 604 605 606 607 608 609 610 611 
612 613 614 615 616 617 618 619 620 
621 622 623 624 625 626 627 628 629 
630 631 632 633 634 635 636 637 638 
639 640 641 642 643 644 645 646 647 
648 
CONNECTIVITY vtktypeint64
0 1 2 3 4 5 6 7 8 
9 10 11 12 13 14 15 16 17 
18 19 20 21 22 23 24 25 26 
27 28 29 30 31 32 33 34 35 
36 37 38 39 40 41 42 43 44 
45 46 47 48 49 50 51 52 53 
54 55 56 57 58 59 60 61 62 
63 64 65 66 67 68 69 70 71 
72 73 74 75 76 77 78 79 80 
81 82 83 84 85 86 87 88 89 
90 91 92 93 94 95 96 97 98 
99 100 101 102 103 104 105 106 107 
108 109 110 111 112 113 114 115 116 
117 118 119 120 121 122 123 124 125 
126 127 128 129 130 131 132 133 134 
135 136 137 138 139 140 141 142 143 
144 145 146 147 148 149 150 151 152 
153 154 155 156 157 158 159 160 161 
162 163 164 165 166 167 168 169 170 
171 172 173 174 175 176 177 178 179 
180 181 182 183 184 185 186 187 188 
189 190 191 192 193 194 195 196 197 
198 199 200 201 202 203 204 205 206 
207 208 209 210 211 212 213 214 215 
216 217 218 219 220 221 222 223 224 
225 226 227 228 229 230 231 232 233 
234 235 236 237 238 239 240 241 242 
243 244 245 246 247 248 249 250 251 
252 253 254 255 256 257 258 259 260 
261 262 263 264 265 266 267 268 269 
270 271 272 273 274 275 276 277 278 
279 280 281 282 283 284 285 286 287 
288 289 290 291 292 293 294 295 296 
297 298 299 300 301 302 303 304 305 
306 307 308 309 310 311 312 313 314 
315 316 317 318 319 320 321 322 323 
324 325 326 327 328 329 330 331 332 
333 334 335 336 337 338 339 340 341 
342 343 344 345 346 347 348 349 350 
351 352 353 354 355 356 357 358 359 
360 361 362 363 364 365 366 367 368 
369 370 371 372 373 374 375 376 377 
378 379 380 381 382 383 384 385 386 
387 388 389 390 391 392 393 394 395 
396 397 398 399 400 401 402 403 404 
405 406 407 408 409 410 411 412 413 
414 415 416 417 418 419 420 421 422 
423 424 425 426 427 428 429 430 431 
432 433 434 435 436 437 438 439 440 
441 442 443 444 445 446 447 448 449 
450 451 452 453 454 455 456 457 458 
459 460 461 462 463 464 465 466 467 
468 469 470 471 472 473 474 475 476 
477 478 479 480 481 482 483 484 485 
486 487 488 489 490 491 492 493 494 
495 496 497 498 499 500 501 502 503 
504 505 506 507 508 509 510 511 512 
513 514 515 516 517 518 519 520 521 
522 523 524 525 526 527 528 529 530 
531 532 533 534 535 536 537 538 539 
540 541 542 543 544 545 546 547 548 
549 550 551 552 553 554 555 556 557 
558 559 560 561 562 563 564 565 566 
567 568 569 570 571 572 573 574 575 
576 577 578 579 580 581 582 583 584 
585 586 587 588 589 590 591 592 593 
594 595 596 597 598 599 600 601 602 
603 604 605 606 607 608 609 610 611 
612 613 614 615 616 617 618 619 620 
621 622 623 624 625 626 627 628 629 
630 631 632 633 634 635 636 637 638 
639 640 641 642 643 644 645 646 647 

POINT_DATA 648
FIELD FieldData 12
id 1 648 int
164 275 98 463 366 200 188 31 113 
390 140 218 562 457 597 207 134 256 
87 35 314 326 508 34 92 459 115 
356 122 22 24 367 319 88 229 571 
616 51 347 303 404 543 525 304 185 
107 352 137 294 331 445 128 409 291 
121 190 267 71 282 513 64 167 472 
237 317 174 470 154 238 439 298 247 
289 355 73 176 444 381 168 290 58 
500 612 215 349 106 292 227 248 231 
428 127 427 157 293 3 324 260 399 
72 336 368 383 243 299 567 370 515 
125 263 57 385 360 135 542 132 66 
83 465 36 175 90 186 538 334 598 
86 56 418 458 141 495 407 478 456 
546 396 467 353 454 450 426 423 129 
165 261 197 288 255 214 420 601 432 
373 345 60 273 401 384 297 169 322 
633 150 491 310 202 469 308 193 40 
433 7 339 392 110 417 364 117 357 
521 149 166 49 18 330 219 109 12 
189 162 195 163 199 461 410 504 506 
488 187 201 158 268 26 327 253 148 
29 348 270 85 552 251 233 232 437 
362 320 246 328 76 318 155 435 386 
361 412 62 372 91 108 406 272 351 
242 241 534 84 346 414 591 429 577 
271 99 173 411 82 226 67 436 492 
402 489 47 605 477 570 505 333 398 
283 139 533 527 645 183 415 604 532 
484 37 449 576 547 573 479 440 517 
496 572 422 374 240 194 211 380 638 
101 483 39 6 42 278 615 224 11 
133 50 257 20 592 151 204 564 341 
75 389 499 61 300 593 216 486 545 
316 424 112 338 497 464 181 378 21 
446 46 236 63 178 468 54 152 443 
447 161 33 337 287 254 104 14 507 
100 131 408 30 535 280 509 524 540 
321 114 596 343 81 583 222 94 494 
579 313 391 559 413 536 249 277 19 
375 302 475 397 172 614 55 438 89 
93 258 203 471 68 52 549 136 312 
210 359 102 626 487 159 344 518 388 
69 350 156 589 239 307 250 393 295 
103 502 354 96 120 147 335 430 493 
116 79 234 526 416 192 323 329 160 
111 403 25 28 177 44 448 274 539 
551 462 553 170 143 376 74 306 276 
59 490 441 460 146 8 43 566 259 
340 23 264 38 311 95 563 53 511 
522 32 580 377 285 252 105 142 382 
405 371 205 217 365 265 80 196 565 
208 77 519 212 244 305 284 379 503 
501 245 474 126 153 425 213 528 124 
144 145 453 400 296 480 442 221 262 
17 119 41 395 363 48 70 358 315 
228 220 473 184 587 118 485 561 281 
514 138 431 529 279 130 325 394 191 
97 520 78 206 9 498 266 209 369 
179 451 419 332 481 65 180 466 455 
225 235 550 387 421 309 452 286 482 
182 198 45 523 123 434 342 476 5 
13 223 516 530 628 16 10 171 613 
301 556 510 15 269 623 548 558 599 
27 557 2 4 560 594 230 574 622 
637 618 585 554 617 586 600 643 635 
584 581 541 578 537 569 595 582 607 
611 531 555 639 629 603 620 590 624 
544 575 632 648 647 568 641 625 609 
644 610 512 619 646 634 608 602 631 
636 627 630 606 1 642 621 640 588 

type 1 648 int
1 1 1 1 1 1 1 1 1 
1 1 1 1 1 1 1 1 1 
1 1 1 1 1 1 1 1 1 
1 1 1 1 1 1 1 1 1 
1 1 1 1 1 1 1 1 1 
1 1 1 1 1 1 1 1 1 
1 1 1 1 1 1 1 1 1 
1 1 1 1 1 1 1 1 1 
1 1 1 1 1 1 1 1 1 
1 1 1 1 1 1 1 1 1 
1 1 1 1 1 2 1 1 1 
1 1 1 1 1 1 1 1 1 
1 1 1 1 1 1 1 1 1 
1 1 1 1 1 1 1 1 1 
1 1 1 1 1 1 1 1 1 
1 1 1 1 1 1 1 1 1 
1 1 1 1 1 1 1 1 1 
1 1 1 1 1 1 1 1 1 
1 1 1 1 1 1 1 1 1 
1 2 1 1 1 1 1 1 1 
1 1 1 1 1 1 1 1 2 
1 1 1 1 1 1 1 1 1 
1 1 1 1 1 1 1 1 1 
1 1 1 1 1 1 1 1 1 
1 1 1 1 1 1 1 1 1 
1 1 1 1 1 1 1 1 1 
1 1 1 1 1 1 1 1 1 
1 1 1 1 1 1 1 1 1 
1 1 1 1 1 1 1 1 1 
1 1 1 1 1 1 1 1 1 
1 1 1 1 1 1 1 1 1 
1 1 1 1 1 1 1 1 1 
1 1 1 2 1 1 1 1 2 
1 1 1 1 1 1 1 1 1 
1 1 1 1 1 1 1 1 1 
1 1 1 1 1 1 1 1 1 
1 1 1 1 1 1 1 1 1 
1 1 1 1 1 1 1 2 1 
1 1 1 1 1 1 1 1 1 
1 1 1 1 1 1 1 1 1 
1 1 1 1 1 1 1 1 1 
1 1 1 1 1 1 1 1 1 
1 1 1 1 1 1 1 1 1 
1 1 1 1 1 1 1 1 1 
1 1 1 1 1 1 1 1 1 
1 1 1 1 1 1 1 1 1 
1 1 1 1 1 1 1 1 1 
1 1 1 1 1 1 1 1 1 
1 1 1 1 1 1 1 1 1 
1 1 1 1 1 2 1 1 1 
1 1 1 1 1 1 1 1 1 
1 1 1 1 1 1 1 1 1 
1 1 1 1 1 1 1 1 1 
1 1 1 1 1 1 1 1 1 
1 1 1 1 1 1 1 1 1 
1 1 1 1 1 1 1 1 1 
1 1 1 1 1 1 1 1 1 
1 1 1 1 1 1 1 1 1 
1 1 1 1 1 1 1 1 1 
1 1 1 1 2 1 1 1 1 
1 1 1 1 1 1 1 1 1 
1 1 1 1 1 1 1 1 1 
1 1 1 1 1 1 1 1 2 
2 1 2 1 1 2 2 1 1 
1 1 1 2 1 1 1 1 1 
1 1 3 2 1 1 1 1 1 
1 1 1 1 1 1 1 1 1 
1 1 1 1 1 1 1 1 1 
1 1 1 1 1 1 1 1 1 
1 1 1 1 1 1 1 1 1 
1 1 2 1 1 2 1 1 1 
1 1 1 1 4 1 1 1 1 

i 3 648 int
0 0 0 0 0 0 0 0 0 
0 0 0 0 0 0 0 0 0 
0 0 0 0 0 0 0 0 0 
0 0 0 0 0 0 0 0 0 
0 0 0 0 0 0 0 0 0 
0 0 0 0 0 0 0 0 0 
0 0 0 0 0 0 0 0 0 
0 0 0 0 0 0 0 0 0 
0 0 0 0 0 0 0 0 0 
0 0 0 0 0 0 0 0 0 
0 0 0 0 0 0 0 0 0 
0 0 0 0 0 0 0 0 0 
0 0 0 0 0 0 0 0 0 
0 0 0 0 0 0 0 0 0 
0 0 0 0 0 0 0 0 0 
0 0 0 0 0 0 0 0 0 
0 0 0 0 0 0 0 0 0 
0 0 0 0 0 0 0 0 0 
0 0 0 0 0 0 0 0 0 
0 0 0 0 0 0 0 0 0 
0 0 0 0 0 0 0 0 0 
0 0 0 0 0 0 0 0 0 
0 0 0 0 0 0 0 0 0 
0 0 0 0 0 0 0 0 0 
0 0 0 0 0 0 0 0 0 
0 0 0 0 0 0 0 0 0 
0 0 0 0 0 0 0 0 0 
0 0 0 0 0 0 0 0 0 
0 0 0 0 0 0 0 0 0 
0 0 0 0 0 0 0 0 0 
0 0 0 0 0 0 0 0 0 
0 0 0 0 0 0 0 0 0 
0 0 0 0 0 0 0 0 0 
0 0 0 0 0 0 0 0 0 
0 0 0 0 0 0 0 0 0 
0 0 0 0 0 0 0 0 0 
0 0 0 0 0 0 0 0 0 
0 0 0 0 0 0 0 0 0 
0 0 0 0 0 0 0 0 0 
0 0 0 0 0 0 0 0 0 
0 0 0 0 0 0 0 0 0 
0 0 0 0 0 0 0 0 0 
0 0 0 0 0 0 0 0 0 
0 0 0 0 0 0 0 0 0 
0 0 0 0 0 0 0 0 0 
0 0 0 0 0 0 0 0 0 
0 0 0 0 0 0 0 0 0 
0 0 0 0 0 0 0 0 0 
0 0 0 0 0 0 0 0 0 
0 0 0 0 0 0 0 0 0 
0 0 0 0 0 0 0 0 0 
0 0 0 0 0 0 0 0 0 
0 0 0 0 0 0 0 0 0 
0 0 0 0 0 0 0 0 0 
0 0 0 0 0 0 0 0 0 
0 0 0 0 0 0 0 0 0 
0 0 0 0 0 0 0 0 0 
0 0 0 0 0 0 0 0 0 
0 0 0 0 0 0 0 0 0 
0 0 0 0 0 0 0 0 0 
0 0 0 0 0 0 0 0 0 
0 0 0 0 0 0 0 0 0 
0 0 0 0 0 0 0 0 0 
0 0 0 0 0 0 0 0 0 
0 0 0 0 0 0 0 0 0 
0 0 0 0 0 0 0 0 0 
0 0 0 0 0 0 0 0 0 
0 0 0 0 0 0 0 0 0 
0 0 0 0 0 0 0 0 0 
0 0 0 0 0 0 0 0 0 
0 0 0 0 0 0 0 0 0 
0 0 0 0 0 0 0 0 0 
0 0 0 0 0 0 0 0 0 
0 0 0 0 0 0 0 0 0 
0 0 0 0 0 0 0 0 0 
0 0 0 0 0 0 0 0 0 
0 0 0 0 0 0 0 0 0 
0 0 0 0 0 0 0 0 0 
0 0 0 0 0 0 0 0 0 
0 0 0 0 0 0 0 0 0 
0 0 0 0 0 0 0 0 0 
0 0 0 0 0 0 0 0 0 
0 0 0 0 0 0 0 0 0 
0 0 0 0 0 0 0 0 0 
0 0 0 0 0 0 0 0 0 
0 0 0 0 0 0 0 0 0 
0 0 0 0 0 0 0 0 0 
0 0 0 0 0 0 0 0 0 
0 0 0 0 0 0 0 0 0 
0 0 0 0 0 0 0 0 0 
0 0 0 0 0 0 0 0 0 
0 0 0 0 0 0 0 0 0 
0 0 0 0 0 0 0 0 0 
0 0 0 0 0 0 0 0 0 
0 0 0 0 0 0 0 0 0 
0 0 0 0 0 0 0 0 0 
0 0 0 0 0 0 0 0 0 
0 0 0 0 0 0 0 0 0 
0 0 0 0 0 0 0 0 0 
0 0 0 0 0 0 0 0 0 
0 0 0 0 0 0 0 0 0 
0 0 0 0 0 0 0 0 0 
0 0 0 0 0 0 0 0 0 
0 0 0 0 0 0 0 0 0 
0 0 0 0 0 0 0 0 0 
0 0 0 0 0 0 0 0 0 
0 0 0 0 0 0 0 0 0 
0 0 0 0 0 0 0 0 0 
0 0 0 0 0 0 0 0 0 
0 0 0 0 0 0 0 0 0 
0 0 0 0 0 0 0 0 0 
0 0 0 0 0 0 0 0 0 
0 0 0 0 0 0 0 0 0 
0 0 0 0 0 0 0 0 0 
0 0 0 0 0 0 0 0 0 
0 0 0 0 0 0 0 0 0 
0 0 0 0 0 0 0 0 0 
0 0 0 0 0 0 0 0 0 
0 0 0 0 0 0 0 0 0 
0 0 0 0 0 0 0 0 0 
0 0 0 0 0 0 0 0 0 
0 0 0 0 0 0 0 0 0 
0 0 0 0 0 0 0 0 0 
0 0 0 0 0 0 0 0 0 
0 0 0 0 0 0 0 0 0 
0 0 0 0 0 0 0 0 0 
0 0 0 0 0 0 0 0 0 
0 0 0 0 0 0 0 0 0 
0 0 0 0 0 0 0 0 0 
0 0 0 0 0 0 0 0 0 
0 0 0 0 0 0 0 0 0 
0 0 0 0 0 0 0 0 0 
0 0 0 0 0 0 0 0 0 
0 0 0 0 0 0 0 0 0 
0 0 0 0 0 0 0 0 0 
0 0 0 0 0 0 0 0 0 
0 0 0 0 0 0 0 0 0 
0 0 0 0 0 0 0 0 0 
0 0 0 0 0 0 0 0 0 
0 0 0 0 0 0 0 0 0 
0 0 0 0 0 0 0 0 0 
0 0 0 0 0 0 0 0 0 
0 0 0 0 0 0 0 0 0 
0 0 0 0 0 0 0 0 0 
0 0 0 0 0 0 0 0 0 
0 0 0 0 0 0 0 0 0 
0 0 0 0 0 0 0 0 0 
0 0 0 0 0 0 0 0 0 
0 0 0 0 0 0 0 0 0 
0 0 0 0 0 0 0 0 0 
0 0 0 0 0 0 0 0 0 
0 0 0 0 0 0 0 0 0 
0 0 0 0 0 0 0 0 0 
0 0 0 0 0 0 0 0 0 
0 0 0 0 0 0 0 0 0 
0 0 0 0 0 0 0 0 0 
0 0 0 0 0 0 0 0 0 
0 0 0 0 0 0 0 0 0 
0 0 0 0 0 0 0 0 0 
0 0 0 0 0 0 0 0 0 
0 0 0 0 0 0 0 0 0 
0 0 0 0 0 0 0 0 0 
0 0 0 0 0 0 0 0 0 
0 0 0 0 0 0 0 0 0 
0 0 0 0 0 0 0 0 0 
0 0 0 0 0 0 0 0 0 
0 0 0 0 0 0 0 0 0 
0 0 0 0 0 0 0 0 0 
0 0 0 0 0 0 0 0 0 
0 0 0 0 0 0 0 0 0 
0 0 0 0 0 0 0 0 0 
0 0 0 0 0 0 0 0 0 
0 0 0 0 0 0 0 0 0 
0 0 0 0 0 0 0 0 0 
0 0 0 0 0 0 0 0 0 
0 0 0 0 0 0 0 0 0 
0 0 0 0 0 0 0 0 0 
0 0 0 0 0 0 0 0 0 
0 0 0 0 0 0 0 0 0 
0 0 0 0 0 0 0 0 0 
0 0 0 0 0 0 0 0 0 
0 0 0 0 0 0 0 0 0 
0 0 0 0 0 0 0 0 0 
0 0 0 0 0 0 0 0 0 
0 0 0 0 0 0 0 0 0 
0 0 0 0 0 0 0 0 0 
0 0 0 0 0 0 0 0 0 
0 0 0 0 0 0 0 0 0 
0 0 0 0 0 0 0 0 0 
0 0 0 0 0 0 0 0 0 
0 0 0 0 0 0 0 0 0 
0 0 0 0 0 0 0 0 0 
0 0 0 0 0 0 0 0 0 
0 0 0 0 0 0 0 0 0 
0 0 0 0 0 0 0 0 0 
0 0 0 0 0 0 0 0 0 
0 0 0 0 0 0 0 0 0 
0 0 0 0 0 0 0 0 0 
0 0 0 0 0 0 0 0 0 
0 0 0 0 0 0 0 0 0 
0 0 0 0 0 0 0 0 0 
0 0 0 0 0 0 0 0 0 
0 0 0 0 0 0 0 0 0 
0 0 0 0 0 0 0 0 0 
0 0 0 0 0 0 0 0 0 
0 0 0 0 0 0 0 0 0 
0 0 0 0 0 0 0 0 0 
0 0 0 0 0 0 0 0 0 
0 0 0 0 0 0 0 0 0 
0 0 0 0 0 0 0 0 0 
0 0 0 0 0 0 0 0 0 
0 0 0 0 0 0 0 0 0 
0 0 0 0 0 0 0 0 0 
0 0 0 0 0 0 0 0 0 
0 0 0 0 0 0 0 0 0 
0 0 0 0 0 0 0 0 0 

v 3 648 double
0 0 3.2413285931e-14 0 0 0.0260501174 0 0 0.0087911723152 
0 0 3.2413285929e-14 0 0 0.00023757966239 0 0 3.2413290076e-14 
0 0 0.024993896014 0 0 0.022811757355 0 0 -0.078377124485 
0 0 0.027258233077 0 0 -0.00016457948376 0 0 8.0432443462e-14 
0 0 -0.074036930113 0 0 -0.0095931419267 0 0 0.074771901146 
0 0 -0.001722049166 0 0 8.0432447366e-14 0 0 -0.0039114208383 
0 0 -0.029677881897 0 0 8.0432443653e-14 0 0 0.030379301883 
0 0 0.012179178918 0 0 3.241328596e-14 0 0 8.0432443647e-14 
0 0 3.2413286072e-14 0 0 3.2413289944e-14 0 0 3.2413286006e-14 
0 0 -1.5605879955e-14 0 0 0.032605096694 0 0 0.026021086779 
0 0 3.2413286102e-14 0 0 -0.027582541883 0 0 0.02481306373 
0 0 8.0432443439e-14 0 0 0.029448340712 0 0 0.015629605808 
0 0 0.076397853747 0 0 8.0432447536e-14 0 0 3.241329003e-14 
0 0 3.2413289948e-14 0 0 3.2413290061e-14 0 0 -0.0089635856838 
0 0 0.076521451003 0 0 3.2413289938e-14 0 0 8.0432447378e-14 
0 0 8.0432447469e-14 0 0 -0.0016316596628 0 0 8.0432443568e-14 
0 0 0.0072324165955 0 0 8.0432443464e-14 0 0 0.018630020251 
0 0 -0.0070426121918 0 0 0.027468840889 0 0 0.00020920559046 
0 0 -0.0029844949785 0 0 3.2413289933e-14 0 0 3.2413285961e-14 
0 0 0.024539420098 0 0 8.0432447432e-14 0 0 0.087843387691 
0 0 0.0082753448475 0 0 -0.013105113669 0 0 -0.023554117366 
0 0 -0.034747232297 0 0 8.0432447426e-14 0 0 0.011256440954 
0 0 8.0432443599e-14 0 0 8.0432443456e-14 0 0 3.2413289963e-14 
0 0 8.0432443441e-14 0 0 0.018562438018 0 0 0.0066452675215 
0 0 -1.5605879989e-14 0 0 3.2413286097e-14 0 0 -0.030417347486 
0 0 -0.00013687096234 0 0 8.0432443553e-14 0 0 -0.00010412188912 
0 0 -0.021393505389 0 0 0.024716233178 0 0 0.0098140613413 
0 0 0.028959719702 0 0 0.018118347299 0 0 0.0022437930519 
0 0 -0.0049665052971 0 0 3.2413290023e-14 0 0 8.043244346e-14 
0 0 -0.0028916205658 0 0 0.010451211849 0 0 3.2413289993e-14 
0 0 8.0432447411e-14 0 0 0.0028972646913 0 0 -0.017842903959 
0 0 0.00035998462186 0 0 8.0432443474e-14 0 0 0.11809373509 
0 0 -0.010798513228 0 0 0.0044621460575 0 0 0.025507267788 
0 0 8.0432443602e-14 0 0 -0.0041575704123 0 0 0.015186009054 
0 0 3.2413285982e-14 0 0 0.0011684580768 0 0 -0.014657621631 
0 0 0.023708963088 0 0 8.0432447573e-14 0 0 8.0432443539e-14 
0 0 -6.1803993186e-13 0 0 0.015343914218 0 0 8.0432443644e-14 
0 0 0.0033410804487 0 0 0.020965354883 0 0 0.021289328072 
0 0 -0.0078859674322 0 0 3.2413286008e-14 0 0 3.2413289914e-14 
0 0 0.0015798008174 0 0 -1.560588404e-14 0 0 8.0432443503e-14 
0 0 3.24132899e-14 0 0 -0.0014703197464 0 0 -0.00096847701215 
0 0 -0.016921305745 0 0 0.0078327475779 0 0 0.079049192376 
0 0 -0.0020113671965 0 0 -0.016569425706 0 0 8.0432443491e-14 
0 0 8.0432443537e-14 0 0 -0.015789243727 0 0 0.013605801889 
0 0 8.0432443498e-14 0 0 3.2413285952e-14 0 0 8.0432443535e-14 
0 0 0.023084290009 0 0 8.0432443665e-14 0 0 8.0432447559e-14 
0 0 3.2413289844e-14 0 0 0.0049869020971 0 0 8.0432447373e-14 
0 0 0.017531626972 0 0 -0.012975407615 0 0 3.2413285933e-14 
0 0 0.0078273650022 0 0 8.0432443639e-14 0 0 3.2413289894e-14 
0 0 3.2413286133e-14 0 0 3.241328603e-14 0 0 3.2413286034e-14 
0 0 -0.016863790815 0 0 -0.0031443984014 0 0 8.0432443489e-14 
0 0 0.0074469188397 0 0 0.015750388988 0 0 8.0432443515e-14 
0 0 0.024873800635 0 0 -0.0013019503922 0 0 0.018133501965 
0 0 8.0432443443e-14 0 0 3.2413285951e-14 0 0 3.2413290037e-14 
0 0 0.061011178581 0 0 8.0432447588e-14 0 0 8.043244739e-14 
0 0 8.0432443526e-14 0 0 8.0432443646e-14 0 0 0.011489950463 
0 0 -0.02588437067 0 0 8.0432443436e-14 0 0 -0.01004476277 
0 0 8.043244366e-14 0 0 0.11848073921 0 0 8.0432443654e-14 
0 0 -0.011898188422 0 0 8.0432443436e-14 0 0 0.0041325018902 
0 0 0.0041447353393 0 0 -8.5551016661e-05 0 0 -0.07874529813 
0 0 3.2413285938e-14 0 0 8.0432447477e-14 0 0 -1.5605883967e-14 
0 0 8.043244349e-14 0 0 8.0432447524e-14 0 0 0.0168744382 
0 0 3.2413286037e-14 0 0 0.0062935749652 0 0 0.03285154896 
0 0 -0.0059284943635 0 0 -0.013608020902 0 0 3.2413286009e-14 
0 0 3.2413289873e-14 0 0 -0.0037290357668 0 0 -0.025278980265 
0 0 -0.020570967685 0 0 -0.00079286904197 0 0 8.0432447534e-14 
0 0 -0.0033560223179 0 0 3.2413290066e-14 0 0 3.2413285974e-14 
0 0 0.0013845792886 0 0 0.0041521282561 0 0 -1.5605880032e-14 
0 0 8.0432447369e-14 0 0 0.00030086796621 0 0 0.0033569435759 
0 0 -0.031998067932 0 0 -0.0032693944634 0 0 8.0432443508e-14 
0 0 3.2413285921e-14 0 0 0.074606268919 0 0 -0.018355472163 
0 0 -0.0029134768661 0 0 0.014471557143 0 0 0.0045087617613 
0 0 3.2413289953e-14 0 0 8.0432443615e-14 0 0 8.0432447367e-14 
0 0 3.2413285923e-14 0 0 0.016854987869 0 0 0.0010025746804 
0 0 -0.017365045794 0 0 -0.012995868975 0 0 8.04324474e-14 
0 0 0.00066130696009 0 0 8.0432443557e-14 0 0 -5.7940051545e-08 
0 0 3.241328594e-14 0 0 0.021823933905 0 0 -0.010240532812 
0 0 -0.010381598351 0 0 -0.014772217845 0 0 0.030119271983 
0 0 0.046063218267 0 0 0.099595085158 0 0 0.045146986473 
0 0 -0.066919265204 0 0 0.00020492831866 0 0 -0.044821295169 
0 0 -0.01873688576 0 0 -0.067950705768 0 0 -0.035161784805 
0 0 -0.04735305054 0 0 -0.052758902213 0 0 0.072135797645 
0 0 -0.076114795507 0 0 -0.063157364162 0 0 -0.0068822917551 
0 0 0.061141336013 0 0 -0.0502945161 0 0 0.05572739068 
0 0 0.052590846711 0 0 -0.062079459465 0 0 0.050275545295 
0 0 -0.030134306266 0 0 -0.059530607206 0 0 -0.021442776964 
0 0 -0.086484964456 0 0 -0.071752123167 0 0 0.091831847271 
0 0 0.056988087148 0 0 -0.050992429603 0 0 0.037582468387 
0 0 0.069241114556 0 0 -0.017877926637 0 0 -0.064866962497 
0 0 -0.088092907915 0 0 0.0085059667726 0 0 0.056979224703 
0 0 -0.06115230787 0 0 0.063193313637 0 0 -0.047627646246 
0 0 0.022806156135 0 0 0.057606390622 0 0 -0.2202862686 
0 0 -0.016976017684 0 0 -0.015281859264 0 0 0.068393607369 
0 0 0.0031414532296 0 0 -0.03426943985 0 0 0.04438603359 
0 0 -0.062546612174 0 0 -0.07672110692 0 0 -0.060578312685 
0 0 -0.063491797788 0 0 -0.069911632314 0 0 0.046749276359 
0 0 0.063307931334 0 0 -0.011236966591 0 0 0.062981945785 
0 0 -0.0077779278292 0 0 -0.081167166992 0 0 -0.050149191176 
0 0 -0.035502147686 0 0 0.067561192507 0 0 0.031091627651 
0 0 0.098705895167 0 0 0.081435232163 0 0 0.0089302254733 
0 0 -0.044572604265 0 0 -0.031121179594 0 0 -0.049278929308 
0 0 -0.069106250409 0 0 0.023583702613 0 0 -0.0044122258665 
0 0 -0.071424475784 0 0 0.049338320391 0 0 0.066941573803 
0 0 -0.066986595121 0 0 0.067369823196 0 0 0.023869189589 
0 0 -0.060681700482 0 0 -0.073731591964 0 0 0.064073988661 
0 0 0.098271016698 0 0 -0.088031204669 0 0 -0.087405401468 
0 0 -0.058943005858 0 0 -0.04140006377 0 0 0.076548698422 
0 0 -0.047886400096 0 0 -0.07244548548 0 0 -0.082102692996 
0 0 -0.066891536599 0 0 -0.051139788474 0 0 -0.067609730445 
0 0 -0.050059384288 0 0 -0.063865493397 0 0 0.052732017793 
0 0 -0.075324890326 0 0 0.061166934744 0 0 -0.060178053239 
0 0 -0.07463389359 0 0 -0.075259414631 0 0 -0.03973138173 
0 0 0.0064552585198 0 0 -0.062780690966 0 0 -0.052668167521 
0 0 -0.083295110635 0 0 -0.097694420698 0 0 -0.076650669607 
0 0 -0.0090778170117 0 0 0.047251924451 0 0 0.00016154441815 
0 0 -0.068077393183 0 0 0.059076922196 0 0 -0.0074042603626 
0 0 -0.055051434948 0 0 0.042628757332 0 0 0.072747242264 
0 0 0.0014176897405 0 0 -0.054962332873 0 0 0.089332438826 
0 0 0.010809075546 0 0 -0.05443930732 0 0 0.038538486711 
0 0 -0.085242645253 0 0 -0.076281525178 0 0 0.076017689284 
0 0 0.041404102982 0 0 -0.055253102913 0 0 0.077459594047 
0 0 -0.03495045441 0 0 -0.037371290373 0 0 -0.034909434709 
0 0 0.074565581429 0 0 0.077536679894 0 0 0.077687856865 
0 0 -0.07279507191 0 0 -0.062466924902 0 0 -0.06137046606 
0 0 -0.044759980369 0 0 0.07784167475 0 0 0.049259772835 
0 0 -0.067458714287 0 0 -0.063714677013 0 0 -0.010576212601 
0 0 -0.009995963732 0 0 0.035567514018 0 0 -0.0016627006155 
0 0 0.023051899495 0 0 -0.0018947412373 0 0 -0.018875415408 
0 0 0.013832581097 0 0 0.038804077522 0 0 0.035939342114 
0 0 0.032915101406 0 0 0.025197099639 0 0 -0.021282564646 
0 0 -0.17729084954 0 0 -0.028751011559 0 0 -0.027167970047 
0 0 0.00079353851107 0 0 0.029560204771 0 0 0.03346061403 
0 0 -0.024790082777 0 0 0.0043059547433 0 0 -0.013214759418 
0 0 -0.034170043002 0 0 8.7339651353e-05 0 0 0.0420385482 
0 0 -0.012968345779 0 0 -0.016776446152 0 0 -0.044438104753 
0 0 -0.011492065382 0 0 -0.023757420198 0 0 0.0040045414194 
0 0 -0.047030818327 0 0 0.062917764546 0 0 0.0037147472882 
0 0 0.030255430088 0 0 0.01220372645 0 0 -0.024331531509 
0 0 -0.012638494973 0 0 -0.0095122398743 0 0 0.044990452373 
0 0 -0.0077302159211 0 0 -0.023474178683 0 0 0.018264329547 
0 0 -0.022153261973 0 0 -0.02191358828 0 0 -0.031051715228 
0 0 -0.018304890386 0 0 -0.00564090623 0 0 -0.0053778702077 
0 0 -0.047446513039 0 0 0.036687973701 0 0 0.039230514283 
0 0 0.034506712877 0 0 -0.04820447966 0 0 -0.2245916418 
0 0 0.047145126529 0 0 -0.018563259789 0 0 0.0049100035745 
0 0 -0.038063918028 0 0 -0.032012163779 0 0 0.018614497115 
0 0 -0.012697505075 0 0 -0.01050637609 0 0 0.017638238994 
0 0 -0.043000726092 0 0 0.049215301512 0 0 0.043976975175 
0 0 0.0014153629972 0 0 -0.030822409452 0 0 -0.077585518895 
0 0 0.0057230863977 0 0 0.044926825196 0 0 0.058443949694 
0 0 0.035518951836 0 0 0.025037129516 0 0 -0.00012097271882 
0 0 -0.011210601095 0 0 -0.050784521785 0 0 -0.018906178382 
0 0 -4.2541370572e-05 0 0 -0.038153760085 0 0 4.3599782329e-06 
0 0 0.043988774247 0 0 -0.061895848541 0 0 0.021084122588 
0 0 -0.052395792241 0 0 0.013885078492 0 0 -0.022821303798 
0 0 -0.0043267807238 0 0 -0.019915378447 0 0 0.010492414386 
0 0 -0.0064145937634 0 0 -0.021776457289 0 0 -0.017017528777 
0 0 -0.0059990761003 0 0 0.056692660503 0 0 -0.017214111781 
0 0 0.040030419237 0 0 -0.050136034053 0 0 0.017789625074 
0 0 -0.017748615872 0 0 0.032878543828 0 0 0.023075070287 
0 0 0.0099240661216 0 0 -0.026309520324 0 0 0.0013937051341 
0 0 0.049202966236 0 0 -0.0042161820297 0 0 -0.046381957374 
0 0 0.023850609671 0 0 0.050271817871 0 0 -0.043911671606 
0 0 -0.04678292384 0 0 0.022294844574 0 0 0.027609265791 
0 0 0.019384632116 0 0 0.018347022262 0 0 0.0095716656867 
0 0 -0.01135727045 0 0 0.019409587248 0 0 0.019369547534 
0 0 0.006522790981 0 0 0.021321755101 0 0 0.032852743202 
0 0 0.028181448337 0 0 0.014795092756 0 0 -0.030174968149 
0 0 -0.015028269502 0 0 -0.043536929027 0 0 0.024637582772 
0 0 -0.03719774899 0 0 -0.013127068685 0 0 0.04371559349 
0 0 0.0078029496782 0 0 -0.0091189994543 0 0 0.022079581341 
0 0 0.046758762978 0 0 -0.039820530365 0 0 0.049195749507 
0 0 0.0078579448247 0 0 0.00096183687955 0 0 -0.030593167082 
0 0 0.033088326556 0 0 -0.21623313152 0 0 0.021676635554 
0 0 0.010435375234 0 0 -0.015989923409 0 0 -0.028925642569 
0 0 -0.051765804598 0 0 -0.035153013933 0 0 0.016452745285 
0 0 -0.010032389995 0 0 -0.018644348977 0 0 0.036642290225 
0 0 0.063027301896 0 0 -0.01010317568 0 0 0.019202601528 
0 0 -0.036745829894 0 0 -0.07477481282 0 0 -0.053509410047 
0 0 -0.0073107591513 0 0 0.046836573619 0 0 -0.2603254545 
0 0 0.020282451215 0 0 -0.055372299862 0 0 -0.020884895481 
0 0 0.033652379149 0 0 -0.013058202648 0 0 -0.012492559057 
0 0 0.023573456539 0 0 0.030771992732 0 0 -0.0067044945786 
0 0 -0.020159552447 0 0 -0.014856857405 0 0 -0.22313935586 
0 0 -0.0069897441934 0 0 0.010702829163 0 0 -0.016010840762 
0 0 0.038369646457 0 0 -0.010334142378 0 0 0.024239632443 
0 0 -0.051140114965 0 0 -0.058393771697 0 0 -0.023468376745 
0 0 0.046107987076 0 0 -0.0067028985741 0 0 0.044416272975 
0 0 -0.0098159177436 0 0 0.013272957775 0 0 -0.041521568557 
0 0 -0.057211499182 0 0 -0.021999563471 0 0 -0.25206109518 
0 0 -0.22196085698 0 0 -0.19381819381 0 0 -0.036038454374 
0 0 -0.042237103618 0 0 -0.001935388767 0 0 -0.20375974847 
0 0 0.0072888545332 0 0 -0.18988507241 0 0 -0.23046905743 
0 0 0.032643980126 0 0 -0.26025732405 0 0 -0.20404823433 
0 0 -0.20810839926 0 0 -0.21493441295 0 0 -0.18998745611 
0 0 -0.25175914059 0 0 -0.21024589719 0 0 0.066488403853 
0 0 0.0023234601899 0 0 -0.20610705742 0 0 -0.1994473551 
0 0 -0.24837033896 0 0 -0.16255520185 0 0 -0.17772137269 
0 0 -0.17888707394 0 0 -0.17948565465 0 0 -0.18345633683 
0 0 -0.18691323499 0 0 -0.17738911469 0 0 -0.1788271433 
0 0 -0.13528862415 0 0 -0.12238881111 0 0 -0.14269023526 
0 0 -0.12480722677 0 0 -0.1580892446 0 0 -0.17064812742 
0 0 -0.16508024816 0 0 -0.17291571036 0 0 -0.16430426272 
0 0 -0.16014857689 0 0 -0.13195226716 0 0 -0.15389211347 
0 0 -0.13228083729 0 0 -0.17855031537 0 0 -0.16260827787 
0 0 -0.1424828406 0 0 -0.13255951384 0 0 -0.1468308158 
0 0 -0.1374291738 0 0 -0.14029723678 0 0 -0.099268035309 
0 0 -0.13944366144 0 0 -0.13421597536 0 0 -0.087984665462 
0 0 -0.095028633369 0 0 -0.095184351834 0 0 -0.11389740086 
0 0 -0.064772576024 0 0 -0.10811645091 0 0 -0.098209829206 
0 0 -0.071252340952 0 0 -0.10958123795 0 0 -0.18194586008 
0 0 -0.080915580894 0 0 -0.070670378313 0 0 -0.099290760928 
0 0 -0.093006727588 0 0 -0.077967075658 0 0 -0.063182232003 
0 0 -0.049900030268 0 0 -0.047617617006 0 0 -0.079438048472 
0 0 -0.082090537473 0 0 -0.23099504578 0 0 -0.030548487218 
0 0 -0.046149439589 0 0 -0.018445606454 0 0 -0.064882828675 

f 3 648 double
0 0 0 0 0 -1.7425367252e-10 0 0 -1.7425367252e-10 
0 0 0 0 0 -1.7425367252e-10 0 0 0 
0 0 -1.7425367252e-10 0 0 -1.7425367252e-10 0 0 -1.7425367252e-10 
0 0 -1.7425367252e-10 0 0 -1.7425367252e-10 0 0 0 
0 0 -1.7425367252e-10 0 0 -1.7425367252e-10 0 0 -1.7425367252e-10 
0 0 -1.7425367252e-10 0 0 0 0 0 -1.7425367252e-10 
0 0 -1.7425367252e-10 0 0 0 0 0 -1.7425367252e-10 
0 0 -1.7425367252e-10 0 0 0 0 0 0 
0 0 0 0 0 0 0 0 0 
0 0 0 0 0 -1.7425367252e-10 0 0 -1.7425367252e-10 
0 0 0 0 0 -1.7425367252e-10 0 0 -1.7425367252e-10 
0 0 0 0 0 -1.7425367252e-10 0 0 -1.7425367252e-10 
0 0 -1.7425367252e-10 0 0 0 0 0 0 
0 0 0 0 0 0 0 0 -1.7425367252e-10 
0 0 -1.7425367252e-10 0 0 0 0 0 0 
0 0 0 0 0 -1.7425367252e-10 0 0 0 
0 0 -1.7425367252e-10 0 0 0 0 0 -1.7425367252e-10 
0 0 -1.7425367252e-10 0 0 -1.7425367252e-10 0 0 -1.7425367252e-10 
0 0 -1.7425367252e-10 0 0 0 0 0 0 
0 0 -1.7425367252e-10 0 0 0 0 0 -1.7425367252e-10 
0 0 -1.7425367252e-10 0 0 -1.7425367252e-10 0 0 -1.7425367252e-10 
0 0 -1.7425367252e-10 0 0 0 0 0 -1.7425367252e-10 
0 0 0 0 0 0 0 0 0 
0 0 0 0 0 -1.7425367252e-10 0 0 -1.7425367252e-10 
0 0 0 0 0 0 0 0 -1.7425367252e-10 
0 0 -1.7425367252e-10 0 0 0 0 0 -1.7425367252e-10 
0 0 -1.7425367252e-10 0 0 -1.7425367252e-10 0 0 -1.7425367252e-10 
0 0 -1.7425367252e-10 0 0 -1.7425367252e-10 0 0 -1.7425367252e-10 
0 0 -1.7425367252e-10 0 0 0 0 0 0 
0 0 -1.7425367252e-10 0 0 -1.7425367252e-10 0 0 0 
0 0 0 0 0 -1.7425367252e-10 0 0 -1.7425367252e-10 
0 0 -1.7425367252e-10 0 0 0 0 0 -8.9019973083e-09 
0 0 -1.7425367252e-10 0 0 -1.7425367252e-10 0 0 -1.7425367252e-10 
0 0 0 0 0 -1.7425367252e-10 0 0 -1.7425367252e-10 
0 0 0 0 0 -1.7425367252e-10 0 0 -1.7425367252e-10 
0 0 -1.7425367252e-10 0 0 0 0 0 0 
0 0 -8.2381256212e-17 0 0 -1.7425367252e-10 0 0 0 
0 0 -1.7425367252e-10 0 0 -1.7425367252e-10 0 0 -1.7425367252e-10 
0 0 -1.7425367252e-10 0 0 0 0 0 0 
0 0 -1.7425367252e-10 0 0 0 0 0 0 
0 0 0 0 0 -1.7425367252e-10 0 0 -1.7425367252e-10 
0 0 -1.7425367252e-10 0 0 -1.7425367252e-10 0 0 -1.7425367252e-10 
0 0 -1.7425367252e-10 0 0 -1.7425367252e-10 0 0 0 
0 0 0 0 0 -1.7425367252e-10 0 0 -1.7425367252e-10 
0 0 0 0 0 0 0 0 0 
0 0 -1.7425367252e-10 0 0 0 0 0 0 
0 0 0 0 0 -1.7425367252e-10 0 0 0 
0 0 -1.7425367252e-10 0 0 -1.7425367252e-10 0 0 0 
0 0 -1.7425367252e-10 0 0 0 0 0 0 
0 0 0 0 0 0 0 0 0 
0 0 -1.7425367252e-10 0 0 -1.7425367252e-10 0 0 0 
0 0 -1.7425367252e-10 0 0 -1.7425367252e-10 0 0 0 
0 0 -1.7425367252e-10 0 0 -1.7425367252e-10 0 0 -1.7425367252e-10 
0 0 0 0 0 0 0 0 0 
0 0 -1.7425367252e-10 0 0 0 0 0 0 
0 0 0 0 0 0 0 0 -1.7425367252e-10 
0 0 -1.7425367252e-10 0 0 0 0 0 -1.7425367252e-10 
0 0 0 0 0 -8.9019973083e-09 0 0 0 
0 0 -1.7425367252e-10 0 0 0 0 0 -1.7425367252e-10 
0 0 -1.7425367252e-10 0 0 -1.7425367252e-10 0 0 -1.7425367252e-10 
0 0 0 0 0 0 0 0 0 
0 0 0 0 0 0 0 0 -1.7425367252e-10 
0 0 0 0 0 -1.7425367252e-10 0 0 -8.9019973083e-09 
0 0 -1.7425367252e-10 0 0 -1.7425367252e-10 0 0 0 
0 0 0 0 0 -1.7425367252e-10 0 0 -1.7425367252e-10 
0 0 -1.7425367252e-10 0 0 -1.7425367252e-10 0 0 0 
0 0 -1.7425367252e-10 0 0 0 0 0 0 
0 0 -1.7425367252e-10 0 0 -1.7425367252e-10 0 0 0 
0 0 0 0 0 -1.7425367252e-10 0 0 -1.7425367252e-10 
0 0 -1.7425367252e-10 0 0 -1.7425367252e-10 0 0 0 
0 0 0 0 0 -1.7425367252e-10 0 0 -1.7425367252e-10 
0 0 -1.7425367252e-10 0 0 -1.7425367252e-10 0 0 -1.7425367252e-10 
0 0 0 0 0 0 0 0 0 
0 0 0 0 0 -1.7425367252e-10 0 0 -1.7425367252e-10 
0 0 -1.7425367252e-10 0 0 -1.7425367252e-10 0 0 0 
0 0 -1.7425367252e-10 0 0 0 0 0 -1.1526166463e-12 
0 0 0 0 0 -1.7425367252e-10 0 0 -1.7425367252e-10 
0 0 -1.7425367252e-10 0 0 -1.7425367252e-10 0 0 -1.7425367252e-10 
0 0 -1.7425367252e-10 0 0 -1.7425367252e-10 0 0 -1.7425367252e-10 
0 0 -1.7425367252e-10 0 0 -1.7425367252e-10 0 0 -1.7425367252e-10 
0 0 -1.7425367252e-10 0 0 -1.7425367252e-10 0 0 -1.7425367252e-10 
0 0 -1.7425367252e-10 0 0 -1.7425367252e-10 0 0 -1.7425367252e-10 
0 0 -1.7425367252e-10 0 0 -1.7425367252e-10 0 0 -1.7425367252e-10 
0 0 -1.7425367252e-10 0 0 -1.7425367252e-10 0 0 -1.7425367252e-10 
0 0 -1.7425367252e-10 0 0 -1.7425367252e-10 0 0 -1.7425367252e-10 
0 0 -1.7425367252e-10 0 0 -1.7425367252e-10 0 0 -1.7425367252e-10 
0 0 -1.7425367252e-10 0 0 -1.7425367252e-10 0 0 -1.7425367252e-10 
0 0 -1.7425367252e-10 0 0 -1.7425367252e-10 0 0 -1.7425367252e-10 
0 0 -1.7425367252e-10 0 0 -1.7425367252e-10 0 0 -1.7425367252e-10 
0 0 -1.7425367252e-10 0 0 -1.7425367252e-10 0 0 -1.7425367252e-10 
0 0 -1.7425367252e-10 0 0 -1.7425367252e-10 0 0 -1.7425367252e-10 
0 0 -1.7425367252e-10 0 0 -1.7425367252e-10 0 0 -1.7425367252e-10 
0 0 -1.7425367252e-10 0 0 -1.7425367252e-10 0 0 -1.7425367252e-10 
0 0 -1.7425367252e-10 0 0 -1.7425367252e-10 0 0 -1.7425367252e-10 
0 0 -1.7425367252e-10 0 0 -1.7425367252e-10 0 0 -1.7425367252e-10 
0 0 -1.7425367252e-10 0 0 -1.7425367252e-10 0 0 -1.7425367252e-10 
0 0 -1.7425367252e-10 0 0 -1.7425367252e-10 0 0 -1.7425367252e-10 
0 0 -8.9019973083e-09 0 0 -1.7425367252e-10 0 0 -1.7425367252e-10 
0 0 -1.7425367252e-10 0 0 -1.7425367252e-10 0 0 -8.9019973083e-09 
0 0 -1.7425367252e-10 0 0 -1.7425367252e-10 0 0 -1.7425367252e-10 
0 0 -1.7425367252e-10 0 0 -1.7425367252e-10 0 0 -1.7425367252e-10 
0 0 -1.7425367252e-10 0 0 -1.7425367252e-10 0 0 -1.7425367252e-10 
0 0 -1.7425367252e-10 0 0 -1.7425367252e-10 0 0 -1.7425367252e-10 
0 0 -1.7425367252e-10 0 0 -1.7425367252e-10 0 0 -1.7425367252e-10 
0 0 -1.7425367252e-10 0 0 -1.7425367252e-10 0 0 -1.7425367252e-10 
0 0 -1.7425367252e-10 0 0 -1.7425367252e-10 0 0 -1.7425367252e-10 
0 0 -1.7425367252e-10 0 0 -1.7425367252e-10 0 0 -1.7425367252e-10 
0 0 -1.7425367252e-10 0 0 -1.7425367252e-10 0 0 -1.7425367252e-10 
0 0 -1.7425367252e-10 0 0 -1.7425367252e-10 0 0 -1.7425367252e-10 
0 0 -1.7425367252e-10 0 0 -1.7425367252e-10 0 0 -1.7425367252e-10 
0 0 -1.7425367252e-10 0 0 -1.7425367252e-10 0 0 -1.7425367252e-10 
0 0 -1.7425367252e-10 0 0 -1.7425367252e-10 0 0 -1.7425367252e-10 
0 0 -1.7425367252e-10 0 0 -1.7425367252e-10 0 0 -1.7425367252e-10 
0 0 -1.7425367252e-10 0 0 -8.9019973083e-09 0 0 -1.7425367252e-10 
0 0 -1.7425367252e-10 0 0 -1.7425367252e-10 0 0 -1.7425367252e-10 
0 0 -1.7425367252e-10 0 0 -1.7425367252e-10 0 0 -1.7425367252e-10 
0 0 -1.7425367252e-10 0 0 -1.7425367252e-10 0 0 -1.7425367252e-10 
0 0 -1.7425367252e-10 0 0 -1.7425367252e-10 0 0 -1.7425367252e-10 
0 0 -1.7425367252e-10 0 0 -1.7425367252e-10 0 0 -1.7425367252e-10 
0 0 -1.7425367252e-10 0 0 -1.7425367252e-10 0 0 -1.7425367252e-10 
0 0 -1.7425367252e-10 0 0 -1.7425367252e-10 0 0 -1.7425367252e-10 
0 0 -1.7425367252e-10 0 0 -1.7425367252e-10 0 0 -1.7425367252e-10 
0 0 -1.7425367252e-10 0 0 -1.7425367252e-10 0 0 -1.7425367252e-10 
0 0 -1.7425367252e-10 0 0 -1.7425367252e-10 0 0 -1.7425367252e-10 
0 0 -1.7425367252e-10 0 0 -1.7425367252e-10 0 0 -1.7425367252e-10 
0 0 -1.7425367252e-10 0 0 -1.7425367252e-10 0 0 -1.7425367252e-10 
0 0 -1.7425367252e-10 0 0 -1.7425367252e-10 0 0 -1.7425367252e-10 
0 0 -1.7425367252e-10 0 0 -1.7425367252e-10 0 0 -1.7425367252e-10 
0 0 -1.7425367252e-10 0 0 -1.7425367252e-10 0 0 -1.7425367252e-10 
0 0 -1.7425367252e-10 0 0 -1.7425367252e-10 0 0 -1.7425367252e-10 
0 0 -1.7425367252e-10 0 0 -1.7425367252e-10 0 0 -1.7425367252e-10 
0 0 -1.7425367252e-10 0 0 -1.7425367252e-10 0 0 -1.7425367252e-10 
0 0 -1.7425367252e-10 0 0 -1.7425367252e-10 0 0 -1.7425367252e-10 
0 0 -1.7425367252e-10 0 0 -1.7425367252e-10 0 0 -1.7425367252e-10 
0 0 -1.7425367252e-10 0 0 -1.7425367252e-10 0 0 -1.7425367252e-10 
0 0 -1.7425367252e-10 0 0 -1.7425367252e-10 0 0 -1.7425367252e-10 
0 0 -1.7425367252e-10 0 0 -1.7425367252e-10 0 0 -1.7425367252e-10 
0 0 -1.7425367252e-10 0 0 -1.7425367252e-10 0 0 -1.7425367252e-10 
0 0 -1.7425367252e-10 0 0 -1.7425367252e-10 0 0 -1.7425367252e-10 
0 0 -1.7425367252e-10 0 0 -1.7425367252e-10 0 0 -1.7425367252e-10 
0 0 -1.7425367252e-10 0 0 -1.7425367252e-10 0 0 -1.7425367252e-10 
0 0 -1.7425367252e-10 0 0 -1.7425367252e-10 0 0 -1.7425367252e-10 
0 0 -1.7425367252e-10 0 0 -1.7425367252e-10 0 0 -1.7425367252e-10 
0 0 -1.7425367252e-10 0 0 -1.7425367252e-10 0 0 -1.7425367252e-10 
0 0 -1.7425367252e-10 0 0 -1.7425367252e-10 0 0 -1.7425367252e-10 
0 0 -1.7425367252e-10 0 0 -1.7425367252e-10 0 0 -1.7425367252e-10 
0 0 -1.7425367252e-10 0 0 -1.7425367252e-10 0 0 -1.7425367252e-10 
0 0 -1.7425367252e-10 0 0 -1.7425367252e-10 0 0 -1.7425367252e-10 
0 0 -1.7425367252e-10 0 0 -1.7425367252e-10 0 0 -8.9019973083e-09 
0 0 -1.7425367252e-10 0 0 -1.7425367252e-10 0 0 -1.7425367252e-10 
0 0 -1.7425367252e-10 0 0 -1.7425367252e-10 0 0 -1.7425367252e-10 
0 0 -1.7425367252e-10 0 0 -1.7425367252e-10 0 0 -1.7425367252e-10 
0 0 -1.7425367252e-10 0 0 -1.7425367252e-10 0 0 -1.7425367252e-10 
0 0 -1.7425367252e-10 0 0 -1.7425367252e-10 0 0 -1.7425367252e-10 
0 0 -1.7425367252e-10 0 0 -1.7425367252e-10 0 0 -1.7425367252e-10 
0 0 -1.7425367252e-10 0 0 -1.7425367252e-10 0 0 -1.7425367252e-10 
0 0 -1.7425367252e-10 0 0 -1.7425367252e-10 0 0 -1.7425367252e-10 
0 0 -1.7425367252e-10 0 0 -1.7425367252e-10 0 0 -1.7425367252e-10 
0 0 -1.7425367252e-10 0 0 -1.7425367252e-10 0 0 -1.7425367252e-10 
0 0 -1.7425367252e-10 0 0 -1.7425367252e-10 0 0 -1.7425367252e-10 
0 0 -1.7425367252e-10 0 0 -1.7425367252e-10 0 0 -1.7425367252e-10 
0 0 -1.7425367252e-10 0 0 -1.7425367252e-10 0 0 -1.7425367252e-10 
0 0 -1.7425367252e-10 0 0 -1.7425367252e-10 0 0 -1.7425367252e-10 
0 0 -1.7425367252e-10 0 0 -1.7425367252e-10 0 0 -1.7425367252e-10 
0 0 -1.7425367252e-10 0 0 -1.7425367252e-10 0 0 -1.7425367252e-10 
0 0 -1.7425367252e-10 0 0 -1.7425367252e-10 0 0 -1.7425367252e-10 
0 0 -1.7425367252e-10 0 0 -1.7425367252e-10 0 0 -1.7425367252e-10 
0 0 -1.7425367252e-10 0 0 -1.7425367252e-10 0 0 -1.7425367252e-10 
0 0 -1.7425367252e-10 0 0 -1.7425367252e-10 0 0 -1.7425367252e-10 
0 0 -1.7425367252e-10 0 0 -1.7425367252e-10 0 0 -1.7425367252e-10 
0 0 -1.7425367252e-10 0 0 -1.7425367252e-10 0 0 -1.7425367252e-10 
0 0 -1.7425367252e-10 0 0 -1.7425367252e-10 0 0 -1.7425367252e-10 
0 0 -1.7425367252e-10 0 0 -1.7425367252e-10 0 0 -1.7425367252e-10 
0 0 -1.7425367252e-10 0 0 -1.7425367252e-10 0 0 -1.7425367252e-10 
0 0 -1.7425367252e-10 0 0 -1.7425367252e-10 0 0 -1.7425367252e-10 
0 0 -1.7425367252e-10 0 0 -1.7425367252e-10 0 0 -1.7425367252e-10 
0 0 -1.7425367252e-10 0 0 -1.7425367252e-10 0 0 -1.7425367252e-10 
0 0 -1.7425367252e-10 0 0 -1.7425367252e-10 0 0 -1.7425367252e-10 
0 0 -1.7425367252e-10 0 0 -8.9019973083e-09 0 0 -1.7425367252e-10 
0 0 -1.7425367252e-10 0 0 -1.7425367252e-10 0 0 -1.7425367252e-10 
0 0 -1.7425367252e-10 0 0 -1.7425367252e-10 0 0 -1.7425367252e-10 
0 0 -1.7425367252e-10 0 0 -1.7425367252e-10 0 0 -1.7425367252e-10 
0 0 -1.7425367252e-10 0 0 -1.7425367252e-10 0 0 -1.7425367252e-10 
0 0 -1.7425367252e-10 0 0 -1.7425367252e-10 0 0 -1.7425367252e-10 
0 0 -1.7425367252e-10 0 0 -1.7425367252e-10 0 0 -1.7425367252e-10 
0 0 -1.7425367252e-10 0 0 -1.7425367252e-10 0 0 -1.7425367252e-10 
0 0 -1.7425367252e-10 0 0 -1.7425367252e-10 0 0 -1.7425367252e-10 
0 0 -1.7425367252e-10 0 0 -1.7425367252e-10 0 0 -1.7425367252e-10 
0 0 -1.7425367252e-10 0 0 -1.7425367252e-10 0 0 -8.9019973083e-09 
0 0 -8.9019973083e-09 0 0 -1.7425367252e-10 0 0 -8.9019973083e-09 
0 0 -1.7425367252e-10 0 0 -1.7425367252e-10 0 0 -8.9019973083e-09 
0 0 -8.9019973083e-09 0 0 -1.7425367252e-10 0 0 -1.7425367252e-10 
0 0 -1.7425367252e-10 0 0 -1.7425367252e-10 0 0 -1.7425367252e-10 
0 0 -8.9019973083e-09 0 0 -1.7425367252e-10 0 0 -1.7425367252e-10 
0 0 -1.7425367252e-10 0 0 -1.7425367252e-10 0 0 -1.7425367252e-10 
0 0 -1.7425367252e-10 0 0 -1.7425367252e-10 0 0 -6.8918688838e-08 
0 0 -8.9019973083e-09 0 0 -1.7425367252e-10 0 0 -1.7425367252e-10 
0 0 -1.7425367252e-10 0 0 -1.7425367252e-10 0 0 -1.7425367252e-10 
0 0 -1.7425367252e-10 0 0 -1.7425367252e-10 0 0 -1.7425367252e-10 
0 0 -1.7425367252e-10 0 0 -1.7425367252e-10 0 0 -1.7425367252e-10 
0 0 -1.7425367252e-10 0 0 -1.7425367252e-10 0 0 -1.7425367252e-10 
0 0 -1.7425367252e-10 0 0 -1.7425367252e-10 0 0 -1.7425367252e-10 
0 0 -1.7425367252e-10 0 0 -1.7425367252e-10 0 0 -1.7425367252e-10 
0 0 -1.7425367252e-10 0 0 -1.7425367252e-10 0 0 -1.7425367252e-10 
0 0 -1.7425367252e-10 0 0 -1.7425367252e-10 0 0 -1.7425367252e-10 
0 0 -1.7425367252e-10 0 0 -1.7425367252e-10 0 0 -1.7425367252e-10 
0 0 -1.7425367252e-10 0 0 -1.7425367252e-10 0 0 -1.7425367252e-10 
0 0 -1.7425367252e-10 0 0 -1.7425367252e-10 0 0 -1.7425367252e-10 
0 0 -1.7425367252e-10 0 0 -1.7425367252e-10 0 0 -1.7425367252e-10 
0 0 -1.7425367252e-10 0 0 -1.7425367252e-10 0 0 -1.7425367252e-10 
0 0 -1.7425367252e-10 0 0 -1.7425367252e-10 0 0 -8.9019973083e-09 
0 0 -1.7425367252e-10 0 0 -1.7425367252e-10 0 0 -8.9019973083e-09 
0 0 -1.7425367252e-10 0 0 -1.7425367252e-10 0 0 -1.7425367252e-10 
0 0 -1.7425367252e-10 0 0 -1.7425367252e-10 0 0 -1.7425367252e-10 
0 0 -1.7425367252e-10 0 0 -5.3297119368e-07 0 0 -1.7425367252e-10 
0 0 -1.7425367252e-10 0 0 -1.7425367252e-10 0 0 -1.7425367252e-10 

radius 1 648 double
2e-05 2e-05 2e-05 2e-05 2e-05 2e-05 2e-05 2e-05 2e-05 
2e-05 2e-05 2e-05 2e-05 2e-05 2e-05 2e-05 2e-05 2e-05 
2e-05 2e-05 2e-05 2e-05 2e-05 2e-05 2e-05 2e-05 2e-05 
2e-05 2e-05 2e-05 2e-05 2e-05 2e-05 2e-05 2e-05 2e-05 
2e-05 2e-05 2e-05 2e-05 2e-05 2e-05 2e-05 2e-05 2e-05 
2e-05 2e-05 2e-05 2e-05 2e-05 2e-05 2e-05 2e-05 2e-05 
2e-05 2e-05 2e-05 2e-05 2e-05 2e-05 2e-05 2e-05 2e-05 
2e-05 2e-05 2e-05 2e-05 2e-05 2e-05 2e-05 2e-05 2e-05 
2e-05 2e-05 2e-05 2e-05 2e-05 2e-05 2e-05 2e-05 2e-05 
2e-05 2e-05 2e-05 2e-05 2e-05 2e-05 2e-05 2e-05 2e-05 
2e-05 2e-05 2e-05 2e-05 2e-05 7.5e-05 2e-05 2e-05 2e-05 
2e-05 2e-05 2e-05 2e-05 2e-05 2e-05 2e-05 2e-05 2e-05 
2e-05 2e-05 2e-05 2e-05 2e-05 2e-05 2e-05 2e-05 2e-05 
2e-05 2e-05 2e-05 2e-05 2e-05 2e-05 2e-05 2e-05 2e-05 
2e-05 2e-05 2e-05 2e-05 2e-05 2e-05 2e-05 2e-05 2e-05 
2e-05 2e-05 2e-05 2e-05 2e-05 2e-05 2e-05 2e-05 2e-05 
2e-05 2e-05 2e-05 2e-05 2e-05 2e-05 2e-05 2e-05 2e-05 
2e-05 2e-05 2e-05 2e-05 2e-05 2e-05 2e-05 2e-05 2e-05 
2e-05 2e-05 2e-05 2e-05 2e-05 2e-05 2e-05 2e-05 2e-05 
2e-05 7.5e-05 2e-05 2e-05 2e-05 2e-05 2e-05 2e-05 2e-05 
2e-05 2e-05 2e-05 2e-05 2e-05 2e-05 2e-05 2e-05 7.5e-05 
2e-05 2e-05 2e-05 2e-05 2e-05 2e-05 2e-05 2e-05 2e-05 
2e-05 2e-05 2e-05 2e-05 2e-05 2e-05 2e-05 2e-05 2e-05 
2e-05 2e-05 2e-05 2e-05 2e-05 2e-05 2e-05 2e-05 2e-05 
2e-05 2e-05 2e-05 2e-05 2e-05 2e-05 2e-05 2e-05 2e-05 
2e-05 2e-05 2e-05 2e-05 2e-05 2e-05 2e-05 2e-05 2e-05 
2e-05 2e-05 2e-05 2e-05 2e-05 2e-05 2e-05 2e-05 2e-05 
2e-05 2e-05 2e-05 2e-05 2e-05 2e-05 2e-05 2e-05 2e-05 
2e-05 2e-05 2e-05 2e-05 2e-05 2e-05 2e-05 2e-05 2e-05 
2e-05 2e-05 2e-05 2e-05 2e-05 2e-05 2e-05 2e-05 2e-05 
2e-05 2e-05 2e-05 2e-05 2e-05 2e-05 2e-05 2e-05 2e-05 
2e-05 2e-05 2e-05 2e-05 2e-05 2e-05 2e-05 2e-05 2e-05 
2e-05 2e-05 2e-05 7.5e-05 2e-05 2e-05 2e-05 2e-05 7.5e-05 
2e-05 2e-05 2e-05 2e-05 2e-05 2e-05 2e-05 2e-05 2e-05 
2e-05 2e-05 2e-05 2e-05 2e-05 2e-05 2e-05 2e-05 2e-05 
2e-05 2e-05 2e-05 2e-05 2e-05 2e-05 2e-05 2e-05 2e-05 
2e-05 2e-05 2e-05 2e-05 2e-05 2e-05 2e-05 2e-05 2e-05 
2e-05 2e-05 2e-05 2e-05 2e-05 2e-05 2e-05 7.5e-05 2e-05 
2e-05 2e-05 2e-05 2e-05 2e-05 2e-05 2e-05 2e-05 2e-05 
2e-05 2e-05 2e-05 2e-05 2e-05 2e-05 2e-05 2e-05 2e-05 
2e-05 2e-05 2e-05 2e-05 2e-05 2e-05 2e-05 2e-05 2e-05 
2e-05 2e-05 2e-05 2e-05 2e-05 2e-05 2e-05 2e-05 2e-05 
2e-05 2e-05 2e-05 2e-05 2e-05 2e-05 2e-05 2e-05 2e-05 
2e-05 2e-05 2e-05 2e-05 2e-05 2e-05 2e-05 2e-05 2e-05 
2e-05 2e-05 2e-05 2e-05 2e-05 2e-05 2e-05 2e-05 2e-05 
2e-05 2e-05 2e-05 2e-05 2e-05 2e-05 2e-05 2e-05 2e-05 
2e-05 2e-05 2e-05 2e-05 2e-05 2e-05 2e-05 2e-05 2e-05 
2e-05 2e-05 2e-05 2e-05 2e-05 2e-05 2e-05 2e-05 2e-05 
2e-05 2e-05 2e-05 2e-05 2e-05 2e-05 2e-05 2e-05 2e-05 
2e-05 2e-05 2e-05 2e-05 2e-05 7.5e-05 2e-05 2e-05 2e-05 
2e-05 2e-05 2e-05 2e-05 2e-05 2e-05 2e-05 2e-05 2e-05 
2e-05 2e-05 2e-05 2e-05 2e-05 2e-05 2e-05 2e-05 2e-05 
2e-05 2e-05 2e-05 2e-05 2e-05 2e-05 2e-05 2e-05 2e-05 
2e-05 2e-05 2e-05 2e-05 2e-05 2e-05 2e-05 2e-05 2e-05 
2e-05 2e-05 2e-05 2e-05 2e-05 2e-05 2e-05 2e-05 2e-05 
2e-05 2e-05 2e-05 2e-05 2e-05 2e-05 2e-05 2e-05 2e-05 
2e-05 2e-05 2e-05 2e-05 2e-05 2e-05 2e-05 2e-05 2e-05 
2e-05 2e-05 2e-05 2e-05 2e-05 2e-05 2e-05 2e-05 2e-05 
2e-05 2e-05 2e-05 2e-05 2e-05 2e-05 2e-05 2e-05 2e-05 
2e-05 2e-05 2e-05 2e-05 7.5e-05 2e-05 2e-05 2e-05 2e-05 
2e-05 2e-05 2e-05 2e-05 2e-05 2e-05 2e-05 2e-05 2e-05 
2e-05 2e-05 2e-05 2e-05 2e-05 2e-05 2e-05 2e-05 2e-05 
2e-05 2e-05 2e-05 2e-05 2e-05 2e-05 2e-05 2e-05 7.5e-05 
7.5e-05 2e-05 7.5e-05 2e-05 2e-05 7.5e-05 7.5e-05 2e-05 2e-05 
2e-05 2e-05 2e-05 7.5e-05 2e-05 2e-05 2e-05 2e-05 2e-05 
2e-05 2e-05 0.00015 7.5e-05 2e-05 2e-05 2e-05 2e-05 2e-05 
2e-05 2e-05 2e-05 2e-05 2e-05 2e-05 2e-05 2e-05 2e-05 
2e-05 2e-05 2e-05 2e-05 2e-05 2e-05 2e-05 2e-05 2e-05 
2e-05 2e-05 2e-05 2e-05 2e-05 2e-05 2e-05 2e-05 2e-05 
2e-05 2e-05 2e-05 2e-05 2e-05 2e-05 2e-05 2e-05 2e-05 
2e-05 2e-05 7.5e-05 2e-05 2e-05 7.5e-05 2e-05 2e-05 2e-05 
2e-05 2e-05 2e-05 2e-05 0.0003 2e-05 2e-05 2e-05 2e-05 

omega 3 648 double
0 0 0 0 0 0 0 0 0 
0 0 0 0 0 0 0 0 0 
0 0 0 0 0 0 0 0 0 
0 0 0 0 0 0 0 0 0 
0 0 0 0 0 0 0 0 0 
0 0 0 0 0 0 0 0 0 
0 0 0 0 0 0 0 0 0 
0 0 0 0 0 0 0 0 0 
0 0 0 0 0 0 0 0 0 
0 0 0 0 0 0 0 0 0 
0 0 0 0 0 0 0 0 0 
0 0 0 0 0 0 0 0 0 
0 0 0 0 0 0 0 0 0 
0 0 0 0 0 0 0 0 0 
0 0 0 0 0 0 0 0 0 
0 0 0 0 0 0 0 0 0 
0 0 0 0 0 0 0 0 0 
0 0 0 0 0 0 0 0 0 
0 0 0 0 0 0 0 0 0 
0 0 0 0 0 0 0 0 0 
0 0 0 0 0 0 0 0 0 
0 0 0 0 0 0 0 0 0 
0 0 0 0 0 0 0 0 0 
0 0 0 0 0 0 0 0 0 
0 0 0 0 0 0 0 0 0 
0 0 0 0 0 0 0 0 0 
0 0 0 0 0 0 0 0 0 
0 0 0 0 0 0 0 0 0 
0 0 0 0 0 0 0 0 0 
0 0 0 0 0 0 0 0 0 
0 0 0 0 0 0 0 0 0 
0 0 0 0 0 0 0 0 0 
0 0 0 0 0 0 0 0 0 
0 0 0 0 0 0 0 0 0 
0 0 0 0 0 0 0 0 0 
0 0 0 0 0 0 0 0 0 
0 0 0 0 0 0 0 0 0 
0 0 0 0 0 0 0 0 0 
0 0 0 0 0 0 0 0 0 
0 0 0 0 0 0 0 0 0 
0 0 0 0 0 0 0 0 0 
0 0 0 0 0 0 0 0 0 
0 0 0 0 0 0 0 0 0 
0 0 0 0 0 0 0 0 0 
0 0 0 0 0 0 0 0 0 
0 0 0 0 0 0 0 0 0 
0 0 0 0 0 0 0 0 0 
0 0 0 0 0 0 0 0 0 
0 0 0 0 0 0 0 0 0 
0 0 0 0 0 0 0 0 0 
0 0 0 0 0 0 0 0 0 
0 0 0 0 0 0 0 0 0 
0 0 0 0 0 0 0 0 0 
0 0 0 0 0 0 0 0 0 
0 0 0 0 0 0 0 0 0 
0 0 0 0 0 0 0 0 0 
0 0 0 0 0 0 0 0 0 
0 0 0 0 0 0 0 0 0 
0 0 0 0 0 0 0 0 0 
0 0 0 0 0 0 0 0 0 
0 0 0 0 0 0 0 0 0 
0 0 0 0 0 0 0 0 0 
0 0 0 0 0 0 0 0 0 
0 0 0 0 0 0 0 0 0 
0 0 0 0 0 0 0 0 0 
0 0 0 0 0 0 0 0 0 
0 0 0 0 0 0 0 0 0 
0 0 0 0 0 0 0 0 0 
0 0 0 0 0 0 0 0 0 
0 0 0 0 0 0 0 0 0 
0 0 0 0 0 0 0 0 0 
0 0 0 0 0 0 0 0 0 
0 0 0 0 0 0 0 0 0 
0 0 0 0 0 0 0 0 0 
0 0 0 0 0 0 0 0 0 
0 0 0 0 0 0 0 0 0 
0 0 0 0 0 0 0 0 0 
0 0 0 0 0 0 0 0 0 
0 0 0 0 0 0 0 0 0 
0 0 0 0 0 0 0 0 0 
0 0 0 0 0 0 0 0 0 
0 0 0 0 0 0 0 0 0 
0 0 0 0 0 0 0 0 0 
0 0 0 0 0 0 0 0 0 
0 0 0 0 0 0 0 0 0 
0 0 0 0 0 0 0 0 0 
0 0 0 0 0 0 0 0 0 
0 0 0 0 0 0 0 0 0 
0 0 0 0 0 0 0 0 0 
0 0 0 0 0 0 0 0 0 
0 0 0 0 0 0 0 0 0 
0 0 0 0 0 0 0 0 0 
0 0 0 0 0 0 0 0 0 
0 0 0 0 0 0 0 0 0 
0 0 0 0 0 0 0 0 0 
0 0 0 0 0 0 0 0 0 
0 0 0 0 0 0 0 0 0 
0 0 0 0 0 0 0 0 0 
0 0 0 0 0 0 0 0 0 
0 0 0 0 0 0 0 0 0 
0 0 0 0 0 0 0 0 0 
0 0 0 0 0 0 0 0 0 
0 0 0 0 0 0 0 0 0 
0 0 0 0 0 0 0 0 0 
0 0 0 0 0 0 0 0 0 
0 0 0 0 0 0 0 0 0 
0 0 0 0 0 0 0 0 0 
0 0 0 0 0 0 0 0 0 
0 0 0 0 0 0 0 0 0 
0 0 0 0 0 0 0 0 0 
0 0 0 0 0 0 0 0 0 
0 0 0 0 0 0 0 0 0 
0 0 0 0 0 0 0 0 0 
0 0 0 0 0 0 0 0 0 
0 0 0 0 0 0 0 0 0 
0 0 0 0 0 0 0 0 0 
0 0 0 0 0 0 0 0 0 
0 0 0 0 0 0 0 0 0 
0 0 0 0 0 0 0 0 0 
0 0 0 0 0 0 0 0 0 
0 0 0 0 0 0 0 0 0 
0 0 0 0 0 0 0 0 0 
0 0 0 0 0 0 0 0 0 
0 0 0 0 0 0 0 0 0 
0 0 0 0 0 0 0 0 0 
0 0 0 0 0 0 0 0 0 
0 0 0 0 0 0 0 0 0 
0 0 0 0 0 0 0 0 0 
0 0 0 0 0 0 0 0 0 
0 0 0 0 0 0 0 0 0 
0 0 0 0 0 0 0 0 0 
0 0 0 0 0 0 0 0 0 
0 0 0 0 0 0 0 0 0 
0 0 0 0 0 0 0 0 0 
0 0 0 0 0 0 0 0 0 
0 0 0 0 0 0 0 0 0 
0 0 0 0 0 0 0 0 0 
0 0 0 0 0 0 0 0 0 
0 0 0 0 0 0 0 0 0 
0 0 0 0 0 0 0 0 0 
0 0 0 0 0 0 0 0 0 
0 0 0 0 0 0 0 0 0 
0 0 0 0 0 0 0 0 0 
0 0 0 0 0 0 0 0 0 
0 0 0 0 0 0 0 0 0 
0 0 0 0 0 0 0 0 0 
0 0 0 0 0 0 0 0 0 
0 0 0 0 0 0 0 0 0 
0 0 0 0 0 0 0 0 0 
0 0 0 0 0 0 0 0 0 
0 0 0 0 0 0 0 0 0 
0 0 0 0 0 0 0 0 0 
0 0 0 0 0 0 0 0 0 
0 0 0 0 0 0 0 0 0 
0 0 0 0 0 0 0 0 0 
0 0 0 0 0 0 0 0 0 
0 0 0 0 0 0 0 0 0 
0 0 0 0 0 0 0 0 0 
0 0 0 0 0 0 0 0 0 
0 0 0 0 0 0 0 0 0 
0 0 0 0 0 0 0 0 0 
0 0 0 0 0 0 0 0 0 
0 0 0 0 0 0 0 0 0 
0 0 0 0 0 0 0 0 0 
0 0 0 0 0 0 0 0 0 
0 0 0 0 0 0 0 0 0 
0 0 0 0 0 0 0 0 0 
0 0 0 0 0 0 0 0 0 
0 0 0 0 0 0 0 0 0 
0 0 0 0 0 0 0 0 0 
0 0 0 0 0 0 0 0 0 
0 0 0 0 0 0 0 0 0 
0 0 0 0 0 0 0 0 0 
0 0 0 0 0 0 0 0 0 
0 0 0 0 0 0 0 0 0 
0 0 0 0 0 0 0 0 0 
0 0 0 0 0 0 0 0 0 
0 0 0 0 0 0 0 0 0 
0 0 0 0 0 0 0 0 0 
0 0 0 0 0 0 0 0 0 
0 0 0 0 0 0 0 0 0 
0 0 0 0 0 0 0 0 0 
0 0 0 0 0 0 0 0 0 
0 0 0 0 0 0 0 0 0 
0 0 0 0 0 0 0 0 0 
0 0 0 0 0 0 0 0 0 
0 0 0 0 0 0 0 0 0 
0 0 0 0 0 0 0 0 0 
0 0 0 0 0 0 0 0 0 
0 0 0 0 0 0 0 0 0 
0 0 0 0 0 0 0 0 0 
0 0 0 0 0 0 0 0 0 
0 0 0 0 0 0 0 0 0 
0 0 0 0 0 0 0 0 0 
0 0 0 0 0 0 0 0 0 
0 0 0 0 0 0 0 0 0 
0 0 0 0 0 0 0 0 0 
0 0 0 0 0 0 0 0 0 
0 0 0 0 0 0 0 0 0 
0 0 0 0 0 0 0 0 0 
0 0 0 0 0 0 0 0 0 
0 0 0 0 0 0 0 0 0 
0 0 0 0 0 0 0 0 0 
0 0 0 0 0 0 0 0 0 
0 0 0 0 0 0 0 0 0 
0 0 0 0 0 0 0 0 0 
0 0 0 0 0 0 0 0 0 
0 0 0 0 0 0 0 0 0 
0 0 0 0 0 0 0 0 0 
0 0 0 0 0 0 0 0 0 
0 0 0 0 0 0 0 0 0 
0 0 0 0 0 0 0 0 0 
0 0 0 0 0 0 0 0 0 
0 0 0 0 0 0 0 0 0 
0 0 0 0 0 0 0 0 0 
0 0 0 0 0 0 0 0 0 

fx_mag_viz 1 648 double
0 0 0 0 0 0 0 0 0 
0 0 0 0 0 0 0 0 0 
0 0 0 0 0 0 0 0 0 
0 0 0 0 0 0 0 0 0 
0 0 0 0 0 0 0 0 0 
0 0 0 0 0 0 0 0 0 
0 0 0 0 0 0 0 0 0 
0 0 0 0 0 0 0 0 0 
0 0 0 0 0 0 0 0 0 
0 0 0 0 0 0 0 0 0 
0 0 0 0 0 0 0 0 0 
0 0 0 0 0 0 0 0 0 
0 0 0 0 0 0 0 0 0 
0 0 0 0 0 0 0 0 0 
0 0 0 0 0 0 0 0 0 
0 0 0 0 0 0 0 0 0 
0 0 0 0 0 0 0 0 0 
0 0 0 0 0 0 0 0 0 
0 0 0 0 0 0 0 0 0 
0 0 0 0 0 0 0 0 0 
0 0 0 0 0 0 0 0 0 
0 0 0 0 0 0 0 0 0 
0 0 0 0 0 0 0 0 0 
0 0 0 0 0 0 0 0 0 
0 0 0 0 0 0 0 0 0 
0 0 0 0 0 0 0 0 0 
0 0 0 0 0 0 0 0 0 
0 0 0 0 0 0 0 0 0 
0 0 0 0 0 0 0 0 0 
0 0 0 0 0 0 0 0 0 
0 0 0 0 0 0 0 0 0 
0 0 0 0 0 0 0 0 0 
0 0 0 0 0 0 0 0 0 
0 0 0 0 0 0 0 0 0 
0 0 0 0 0 0 0 0 0 
0 0 0 0 0 0 0 0 0 
0 0 0 0 0 0 0 0 0 
0 0 0 0 0 0 0 0 0 
0 0 0 0 0 0 0 0 0 
0 0 0 0 0 0 0 0 0 
0 0 0 0 0 0 0 0 0 
0 0 0 0 0 0 0 0 0 
0 0 0 0 0 0 0 0 0 
0 0 0 0 0 0 0 0 0 
0 0 0 0 0 0 0 0 0 
0 0 0 0 0 0 0 0 0 
0 0 0 0 0 0 0 0 0 
0 0 0 0 0 0 0 0 0 
0 0 0 0 0 0 0 0 0 
0 0 0 0 0 0 0 0 0 
0 0 0 0 0 0 0 0 0 
0 0 0 0 0 0 0 0 0 
0 0 0 0 0 0 0 0 0 
0 0 0 0 0 0 0 0 0 
0 0 0 0 0 0 0 0 0 
0 0 0 0 0 0 0 0 0 
0 0 0 0 0 0 0 0 0 
0 0 0 0 0 0 0 0 0 
0 0 0 0 0 0 0 0 0 
0 0 0 0 0 0 0 0 0 
0 0 0 0 0 0 0 0 0 
0 0 0 0 0 0 0 0 0 
0 0 0 0 0 0 0 0 0 
0 0 0 0 0 0 0 0 0 
0 0 0 0 0 0 0 0 0 
0 0 0 0 0 0 0 0 0 
0 0 0 0 0 0 0 0 0 
0 0 0 0 0 0 0 0 0 
0 0 0 0 0 0 0 0 0 
0 0 0 0 0 0 0 0 0 
0 0 0 0 0 0 0 0 0 
0 0 0 0 0 0 0 0 0 

fy_mag_viz 1 648 double
0 0 0 0 0 0 0 0 0 
0 0 0 0 0 0 0 0 0 
0 0 0 0 0 0 0 0 0 
0 0 0 0 0 0 0 0 0 
0 0 0 0 0 0 0 0 0 
0 0 0 0 0 0 0 0 0 
0 0 0 0 0 0 0 0 0 
0 0 0 0 0 0 0 0 0 
0 0 0 0 0 0 0 0 0 
0 0 0 0 0 0 0 0 0 
0 0 0 0 0 0 0 0 0 
0 0 0 0 0 0 0 0 0 
0 0 0 0 0 0 0 0 0 
0 0 0 0 0 0 0 0 0 
0 0 0 0 0 0 0 0 0 
0 0 0 0 0 0 0 0 0 
0 0 0 0 0 0 0 0 0 
0 0 0 0 0 0 0 0 0 
0 0 0 0 0 0 0 0 0 
0 0 0 0 0 0 0 0 0 
0 0 0 0 0 0 0 0 0 
0 0 0 0 0 0 0 0 0 
0 0 0 0 0 0 0 0 0 
0 0 0 0 0 0 0 0 0 
0 0 0 0 0 0 0 0 0 
0 0 0 0 0 0 0 0 0 
0 0 0 0 0 0 0 0 0 
0 0 0 0 0 0 0 0 0 
0 0 0 0 0 0 0 0 0 
0 0 0 0 0 0 0 0 0 
0 0 0 0 0 0 0 0 0 
0 0 0 0 0 0 0 0 0 
0 0 0 0 0 0 0 0 0 
0 0 0 0 0 0 0 0 0 
0 0 0 0 0 0 0 0 0 
0 0 0 0 0 0 0 0 0 
0 0 0 0 0 0 0 0 0 
0 0 0 0 0 0 0 0 0 
0 0 0 0 0 0 0 0 0 
0 0 0 0 0 0 0 0 0 
0 0 0 0 0 0 0 0 0 
0 0 0 0 0 0 0 0 0 
0 0 0 0 0 0 0 0 0 
0 0 0 0 0 0 0 0 0 
0 0 0 0 0 0 0 0 0 
0 0 0 0 0 0 0 0 0 
0 0 0 0 0 0 0 0 0 
0 0 0 0 0 0 0 0 0 
0 0 0 0 0 0 0 0 0 
0 0 0 0 0 0 0 0 0 
0 0 0 0 0 0 0 0 0 
0 0 0 0 0 0 0 0 0 
0 0 0 0 0 0 0 0 0 
0 0 0 0 0 0 0 0 0 
0 0 0 0 0 0 0 0 0 
0 0 0 0 0 0 0 0 0 
0 0 0 0 0 0 0 0 0 
0 0 0 0 0 0 0 0 0 
0 0 0 0 0 0 0 0 0 
0 0 0 0 0 0 0 0 0 
0 0 0 0 0 0 0 0 0 
0 0 0 0 0 0 0 0 0 
0 0 0 0 0 0 0 0 0 
0 0 0 0 0 0 0 0 0 
0 0 0 0 0 0 0 0 0 
0 0 0 0 0 0 0 0 0 
0 0 0 0 0 0 0 0 0 
0 0 0 0 0 0 0 0 0 
0 0 0 0 0 0 0 0 0 
0 0 0 0 0 0 0 0 0 
0 0 0 0 0 0 0 0 0 
0 0 0 0 0 0 0 0 0 

fz_mag_viz 1 648 double
0 0 0 0 0 0 0 0 0 
0 0 0 0 0 0 0 0 0 
0 0 0 0 0 0 0 0 0 
0 0 0 0 0 0 0 0 0 
0 0 0 0 0 0 0 0 0 
0 0 0 0 0 0 0 0 0 
0 0 0 0 0 0 0 0 0 
0 0 0 0 0 0 0 0 0 
0 0 0 0 0 0 0 0 0 
0 0 0 0 0 0 0 0 0 
0 0 0 0 0 0 0 0 0 
0 0 0 0 0 0 0 0 0 
0 0 0 0 0 0 0 0 0 
0 0 0 0 0 0 0 0 0 
0 0 0 0 0 0 0 0 0 
0 0 0 0 0 0 0 0 0 
0 0 0 0 0 0 0 0 0 
0 0 0 0 0 0 0 0 0 
0 0 0 0 0 0 0 0 0 
0 0 0 0 0 0 0 0 0 
0 0 0 0 0 0 0 0 0 
0 0 0 0 0 0 0 0 0 
0 0 0 0 0 0 0 0 0 
0 0 0 0 0 0 0 0 0 
0 0 0 0 0 0 0 0 0 
0 0 0 0 0 0 0 0 0 
0 0 0 0 0 0 0 0 0 
0 0 0 0 0 0 0 0 0 
0 0 0 0 0 0 0 0 0 
0 0 0 0 0 0 0 0 0 
0 0 0 0 0 0 0 0 0 
0 0 0 0 0 0 0 0 0 
0 0 0 0 0 0 0 0 0 
0 0 0 0 0 0 0 0 0 
0 0 0 0 0 0 0 0 0 
0 0 0 0 0 0 0 0 0 
0 0 0 0 0 0 0 0 0 
0 0 0 0 0 0 0 0 0 
0 0 0 0 0 0 0 0 0 
0 0 0 0 0 0 0 0 0 
0 0 0 0 0 0 0 0 0 
0 0 0 0 0 0 0 0 0 
0 0 0 0 0 0 0 0 0 
0 0 0 0 0 0 0 0 0 
0 0 0 0 0 0 0 0 0 
0 0 0 0 0 0 0 0 0 
0 0 0 0 0 0 0 0 0 
0 0 0 0 0 0 0 0 0 
0 0 0 0 0 0 0 0 0 
0 0 0 0 0 0 0 0 0 
0 0 0 0 0 0 0 0 0 
0 0 0 0 0 0 0 0 0 
0 0 0 0 0 0 0 0 0 
0 0 0 0 0 0 0 0 0 
0 0 0 0 0 0 0 0 0 
0 0 0 0 0 0 0 0 0 
0 0 0 0 0 0 0 0 0 
0 0 0 0 0 0 0 0 0 
0 0 0 0 0 0 0 0 0 
0 0 0 0 0 0 0 0 0 
0 0 0 0 0 0 0 0 0 
0 0 0 0 0 0 0 0 0 
0 0 0 0 0 0 0 0 0 
0 0 0 0 0 0 0 0 0 
0 0 0 0 0 0 0 0 0 
0 0 0 0 0 0 0 0 0 
0 0 0 0 0 0 0 0 0 
0 0 0 0 0 0 0 0 0 
0 0 0 0 0 0 0 0 0 
0 0 0 0 0 0 0 0 0 
0 0 0 0 0 0 0 0 0 
0 0 0 0 0 0 0 0 0 

B_magnitude 1 648 double
0 0 0 0 0 0 0 0 0 
0 0 0 0 0 0 0 0 0 
0 0 0 0 0 0 0 0 0 
0 0 0 0 0 0 0 0 0 
0 0 0 0 0 0 0 0 0 
0 0 0 0 0 0 0 0 0 
0 0 0 0 0 0 0 0 0 
0 0 0 0 0 0 0 0 0 
0 0 0 0 0 0 0 0 0 
0 0 0 0 0 0 0 0 0 
0 0 0 0 0 0 0 0 0 
0 0 0 0 0 0 0 0 0 
0 0 0 0 0 0 0 0 0 
0 0 0 0 0 0 0 0 0 
0 0 0 0 0 0 0 0 0 
0 0 0 0 0 0 0 0 0 
0 0 0 0 0 0 0 0 0 
0 0 0 0 0 0 0 0 0 
0 0 0 0 0 0 0 0 0 
0 0 0 0 0 0 0 0 0 
0 0 0 0 0 0 0 0 0 
0 0 0 0 0 0 0 0 0 
0 0 0 0 0 0 0 0 0 
0 0 0 0 0 0 0 0 0 
0 0 0 0 0 0 0 0 0 
0 0 0 0 0 0 0 0 0 
0 0 0 0 0 0 0 0 0 
0 0 0 0 0 0 0 0 0 
0 0 0 0 0 0 0 0 0 
0 0 0 0 0 0 0 0 0 
0 0 0 0 0 0 0 0 0 
0 0 0 0 0 0 0 0 0 
0 0 0 0 0 0 0 0 0 
0 0 0 0 0 0 0 0 0 
0 0 0 0 0 0 0 0 0 
0 0 0 0 0 0 0 0 0 
0 0 0 0 0 0 0 0 0 
0 0 0 0 0 0 0 0 0 
0 0 0 0 0 0 0 0 0 
0 0 0 0 0 0 0 0 0 
0 0 0 0 0 0 0 0 0 
0 0 0 0 0 0 0 0 0 
0 0 0 0 0 0 0 0 0 
0 0 0 0 0 0 0 0 0 
0 0 0 0 0 0 0 0 0 
0 0 0 0 0 0 0 0 0 
0 0 0 0 0 0 0 0 0 
0 0 0 0 0 0 0 0 0 
0 0 0 0 0 0 0 0 0 
0 0 0 0 0 0 0 0 0 
0 0 0 0 0 0 0 0 0 
0 0 0 0 0 0 0 0 0 
0 0 0 0 0 0 0 0 0 
0 0 0 0 0 0 0 0 0 
0 0 0 0 0 0 0 0 0 
0 0 0 0 0 0 0 0 0 
0 0 0 0 0 0 0 0 0 
0 0 0 0 0 0 0 0 0 
0 0 0 0 0 0 0 0 0 
0 0 0 0 0 0 0 0 0 
0 0 0 0 0 0 0 0 0 
0 0 0 0 0 0 0 0 0 
0 0 0 0 0 0 0 0 0 
0 0 0 0 0 0 0 0 0 
0 0 0 0 0 0 0 0 0 
0 0 0 0 0 0 0 0 0 
0 0 0 0 0 0 0 0 0 
0 0 0 0 0 0 0 0 0 
0 0 0 0 0 0 0 0 0 
0 0 0 0 0 0 0 0 0 
0 0 0 0 0 0 0 0 0 
0 0 0 0 0 0 0 0 0 

B_gradient_mag 1 648 double
0 0 0 0 0 0 0 0 0 
0 0 0 0 0 0 0 0 0 
0 0 0 0 0 0 0 0 0 
0 0 0 0 0 0 0 0 0 
0 0 0 0 0 0 0 0 0 
0 0 0 0 0 0 0 0 0 
0 0 0 0 0 0 0 0 0 
0 0 0 0 0 0 0 0 0 
0 0 0 0 0 0 0 0 0 
0 0 0 0 0 0 0 0 0 
0 0 0 0 0 0 0 0 0 
0 0 0 0 0 0 0 0 0 
0 0 0 0 0 0 0 0 0 
0 0 0 0 0 0 0 0 0 
0 0 0 0 0 0 0 0 0 
0 0 0 0 0 0 0 0 0 
0 0 0 0 0 0 0 0 0 
0 0 0 0 0 0 0 0 0 
0 0 0 0 0 0 0 0 0 
0 0 0 0 0 0 0 0 0 
0 0 0 0 0 0 0 0 0 
0 0 0 0 0 0 0 0 0 
0 0 0 0 0 0 0 0 0 
0 0 0 0 0 0 0 0 0 
0 0 0 0 0 0 0 0 0 
0 0 0 0 0 0 0 0 0 
0 0 0 0 0 0 0 0 0 
0 0 0 0 0 0 0 0 0 
0 0 0 0 0 0 0 0 0 
0 0 0 0 0 0 0 0 0 
0 0 0 0 0 0 0 0 0 
0 0 0 0 0 0 0 0 0 
0 0 0 0 0 0 0 0 0 
0 0 0 0 0 0 0 0 0 
0 0 0 0 0 0 0 0 0 
0 0 0 0 0 0 0 0 0 
0 0 0 0 0 0 0 0 0 
0 0 0 0 0 0 0 0 0 
0 0 0 0 0 0 0 0 0 
0 0 0 0 0 0 0 0 0 
0 0 0 0 0 0 0 0 0 
0 0 0 0 0 0 0 0 0 
0 0 0 0 0 0 0 0 0 
0 0 0 0 0 0 0 0 0 
0 0 0 0 0 0 0 0 0 
0 0 0 0 0 0 0 0 0 
0 0 0 0 0 0 0 0 0 
0 0 0 0 0 0 0 0 0 
0 0 0 0 0 0 0 0 0 
0 0 0 0 0 0 0 0 0 
0 0 0 0 0 0 0 0 0 
0 0 0 0 0 0 0 0 0 
0 0 0 0 0 0 0 0 0 
0 0 0 0 0 0 0 0 0 
0 0 0 0 0 0 0 0 0 
0 0 0 0 0 0 0 0 0 
0 0 0 0 0 0 0 0 0 
0 0 0 0 0 0 0 0 0 
0 0 0 0 0 0 0 0 0 
0 0 0 0 0 0 0 0 0 
0 0 0 0 0 0 0 0 0 
0 0 0 0 0 0 0 0 0 
0 0 0 0 0 0 0 0 0 
0 0 0 0 0 0 0 0 0 
0 0 0 0 0 0 0 0 0 
0 0 0 0 0 0 0 0 0 
0 0 0 0 0 0 0 0 0 
0 0 0 0 0 0 0 0 0 
0 0 0 0 0 0 0 0 0 
0 0 0 0 0 0 0 0 0 
0 0 0 0 0 0 0 0 0 
0 0 0 0 0 0 0 0 0 

