# vtk DataFile Version 5.1
Generated by LIGGGHTS
ASCII
DATASET POLYDATA
POINTS 505 float
-0.0308094 -0.0435702 0.0792366 -0.00433253 -0.00676057 0.0792859 -0.0179231 -0.00300678 0.0792313 
-0.042922 -0.0404536 0.0800578 0.0280204 -0.0311414 0.0801158 -0.0112192 -0.0104501 0.079579 
0.00743742 -0.00926665 0.0794765 0.013874 -0.00963069 0.0805591 -0.0129003 -0.00574839 0.0803378 
-0.0214351 0.00957734 0.0800552 0.0364634 0.0310238 0.0805864 -0.0264781 0.032823 0.0802841 
0.0297434 0.0373158 0.0803768 -0.0428902 -0.0449088 0.081369 0.00798734 -0.0367051 0.0810964 
0.000892701 -0.0263701 0.0810153 -0.0257955 -0.0157834 0.0817631 0.0384376 0.000848974 0.0816583 
0.021602 0.00540593 0.0808086 0.0221269 0.00728552 0.0810362 -0.0310202 0.0131063 0.0806552 
-0.022709 0.0198803 0.081511 0.0167463 0.0251763 0.0813336 -0.0390027 0.0421086 0.0815263 
0.0308099 -0.0378456 0.0822013 0.0333162 -0.0342631 0.0825099 0.0109664 -0.00760095 0.083117 
0.00937085 -0.00418454 0.082857 0.0180565 -0.00487531 0.0829499 0.0449494 0.00392273 0.0820378 
0.03506 0.0228899 0.0823385 0.0181332 0.0246356 0.0824127 -0.0105296 -0.0314142 0.0838638 
-0.0100897 -0.0180162 0.0839694 -0.00444012 -0.0151621 0.0832796 -0.0117656 -0.0138394 0.0836573 
-0.0198564 -0.00683511 0.0840866 -0.0141425 -0.00311887 0.0833357 0.0246705 0.0064451 0.0843686 
-0.0426568 0.00723228 0.0844363 0.0212596 0.00979192 0.0843731 0.0143092 0.0139794 0.0840876 
0.0248423 0.0143007 0.0836715 0.0123926 0.0218243 0.0834935 0.0156715 -0.0391733 0.0854808 
0.033456 -0.0256735 0.0856534 0.00689113 -0.0107816 0.084878 0.021323 -0.00444137 0.0851317 
0.0340899 0.00882812 0.0853904 0.0398091 0.011618 0.0849762 0.0307708 0.0242663 0.0850924 
-0.0200898 0.0311527 0.0853042 -0.0335565 -0.0442122 0.0859339 -0.00302782 -0.0385948 0.0869054 
-0.0266532 -0.0301716 0.0864056 0.039775 -0.0211058 0.0861207 -0.0388614 -0.0136303 0.0862435 
0.0350526 -0.0102353 0.0861242 0.0292006 0.00433004 0.0858364 -0.0360536 0.0173104 0.086559 
0.0090081 0.0191686 0.0868297 -0.00782209 0.0241861 0.086191 -0.0073504 0.0318329 0.0858361 
-0.0248652 -0.040212 0.0871951 -0.0260142 0.00017485 0.0883261 8.23501e-07 0.0138406 0.0882943 
0.00517921 0.0169249 0.0871846 0.0215224 0.0171285 0.0881123 0.000162142 0.0251126 0.087757 
-0.00563177 0.0268155 0.0879117 0.0038092 0.0311583 0.0877864 0.01325 0.0319187 0.0875896 
0.0165329 0.0385374 0.0877753 -0.00674967 -0.0416523 0.0887337 0.00594186 -0.0351889 0.0888733 
0.00156248 -0.0194187 0.0890719 0.0030191 -0.0179247 0.0893832 0.0286804 -0.00919085 0.0887755 
0.0188762 0.00181355 0.0893635 0.0305447 0.00486582 0.0890615 -0.0287984 0.00559412 0.0894132 
-0.0153727 0.020636 0.0885506 -0.0282566 0.021284 0.0893304 0.0251972 0.0393087 0.0896497 
0.00577088 -0.0287415 0.08995 -0.0408326 -0.0234295 0.0897788 -0.0108877 -0.0188832 0.0897102 
-0.0269092 -0.0125643 0.0901961 -0.0214415 -0.007536 0.0908609 0.00417698 0.0024455 0.0902201 
0.0287781 0.014071 0.0906083 -0.0313244 0.0314049 0.0908533 -0.0334706 -0.0396012 0.0910846 
0.0336491 -0.0197505 0.0911402 -0.0426154 -0.0165053 0.0922671 -0.0339565 -0.0167518 0.091147 
0.0223879 -0.0163393 0.0922745 -0.00702036 -0.00121172 0.0922558 -0.00967086 0.00179773 0.0921723 
-0.034865 0.0142961 0.091916 -0.041477 0.0364172 0.0916713 -0.0240719 -0.0268296 0.0925912 
0.0436787 -0.0219137 0.0936042 0.0277003 -0.0107969 0.0934533 -0.00783961 -0.000387029 0.0926574 
-0.0386663 0.0253433 0.092696 -0.0267569 0.0263983 0.093134 0.0221021 0.0401282 0.0925495 
0.0414821 -0.0410789 0.0943484 -0.0232422 -0.0321576 0.0942615 0.00802514 -0.031483 0.0936732 
0.0404767 -0.0183151 0.0944563 0.0228765 0.00606581 0.0946008 0.0399323 0.0117688 0.0948606 
0.0191509 0.0299648 0.0948299 0.0444958 0.0309554 0.0941776 0.00284552 0.0345861 0.0945033 
-0.0439713 -0.0357399 0.0956857 -0.0448384 -0.0296834 0.0960497 0.00623721 -0.0211799 0.0959624 
0.0251729 -0.00985964 0.0952586 0.0011249 0.00615697 0.0960077 0.030759 0.00580352 0.0956457 
0.00395304 0.0187088 0.0954665 -0.00739359 0.0259593 0.0949807 -0.0357156 0.0282031 0.095496 
-0.0112537 0.0395394 0.0952184 -0.0205282 0.0432397 0.0953214 -0.044759 -0.0437614 0.0970042 
-0.0370475 -0.0370945 0.0974366 0.0244271 -0.0334586 0.0963244 0.0268369 -0.0315202 0.0963755 
0.0268005 -0.0146468 0.0970683 -0.0329121 -0.0139828 0.0964062 0.0176437 -0.0119747 0.096732 
-0.0170872 0.00564833 0.09686 -0.00279986 0.0127222 0.0973517 0.0163992 0.0415262 0.0963897 
0.0244803 -0.0401788 0.0986694 -0.0427235 -0.0332389 0.098631 0.023158 -0.0340207 0.0982256 
0.032808 -0.025967 0.0978726 -0.0317771 -0.0175651 0.0981286 -0.038829 -0.00978443 0.0979247 
-0.0304645 -0.00701594 0.0979237 -0.042786 -0.00359954 0.0975425 0.0142017 0.0079404 0.0987458 
0.014866 0.0127598 0.098241 0.0418335 0.0161761 0.0975472 -0.0214239 0.0189608 0.0981765 
0.00128112 0.0217131 0.0975718 0.0226957 0.0260881 0.0981161 -0.00435696 0.0325462 0.0981361 
0.00805094 0.0422278 0.0975965 -0.027409 -0.0433703 0.0994613 0.00879071 -0.0344865 0.0992848 
-0.0262624 -0.032473 0.0998589 -0.00580099 -0.0272788 0.0993909 0.039455 -0.000236508 0.0991974 
0.0147261 0.00139147 0.100103 0.0202046 0.00840095 0.0990522 -0.0408092 0.00981999 0.0989293 
-0.0392616 0.00972366 0.0995383 0.0226738 0.0181095 0.0998392 0.0146363 0.0223077 0.0999429 
0.00953871 0.0271324 0.0991305 0.0399235 0.0434757 0.100044 -0.00340304 -0.0448428 0.101009 
-0.00670669 -0.0394183 0.100244 -0.0338231 -0.0250135 0.10102 0.0363266 -0.0194176 0.101266 
-0.0222502 -0.00974669 0.100819 -0.00553214 -0.00871323 0.100323 -0.037077 0.00611456 0.100779 
-0.0429188 0.0135204 0.100823 -0.0114472 0.026715 0.101297 -0.0127911 0.0299546 0.101327 
-0.0312382 0.0393096 0.100246 -0.0204621 -0.0172006 0.102014 0.0249316 -0.014475 0.101913 
-0.0196799 -0.00931279 0.102497 -0.0135858 -0.00672635 0.102703 -0.00723413 0.00605583 0.102693 
-0.0101256 0.00978275 0.10162 -0.0431379 0.0208085 0.101468 -0.0349287 0.0230684 0.102409 
0.0418836 -0.0421436 0.10396 0.000822496 -0.0363122 0.103191 -0.0240024 -0.0280603 0.103272 
0.0198229 -0.0156851 0.102818 0.0362421 0.00170773 0.103777 0.0404406 0.00462082 0.103894 
0.0336082 0.013194 0.103135 0.0388885 0.0193682 0.103776 -0.0375088 0.0393741 0.103127 
-0.0346971 -0.0446764 0.104468 0.0248068 -0.0428986 0.104312 0.0238162 -0.0409762 0.10402 
-0.018434 -0.0405477 0.1053 0.03382 -0.0268981 0.10515 0.0306875 -0.0259396 0.104256 
0.00538025 -0.0241403 0.104749 -0.0416237 0.00110806 0.104592 0.0197977 0.00963841 0.104378 
0.0261916 0.0119357 0.105208 0.00976298 0.0163696 0.104599 0.0122157 0.0191756 0.105162 
0.0238959 0.0383247 0.104181 -0.0248654 -0.0427111 0.105431 0.0424299 -0.0409921 0.106148 
-0.0108246 -0.0388127 0.105703 0.0397687 -0.0374633 0.105329 0.0102479 -0.024092 0.106286 
-0.0225401 -0.0213878 0.106201 -0.0296942 -0.0196153 0.106583 -0.00747582 -0.00609419 0.105765 
0.0128044 0.0127337 0.105948 -0.00307286 0.0144526 0.105541 -0.0421793 0.0225172 0.106496 
0.0311732 0.0371467 0.105811 -0.00973825 0.0391656 0.106372 -0.00827992 -0.020547 0.106786 
0.0403752 -0.0143085 0.107299 0.00523139 -0.00599236 0.106843 0.0407777 0.000744206 0.10777 
0.0283387 0.00890506 0.107431 -0.0190887 0.0269029 0.106882 -0.0376379 0.0294143 0.10686 
0.00372347 0.0304157 0.106968 -0.0245447 0.0378537 0.107529 0.0222253 0.0407186 0.107209 
-0.0181988 0.0434549 0.107186 0.0145521 -0.0432303 0.108124 0.0348044 -0.042095 0.109104 
0.00548761 -0.0197918 0.10865 0.0313953 -0.00974065 0.10846 0.0406218 -0.0100941 0.108612 
0.0290986 -0.000251763 0.108264 0.0250346 0.00641518 0.10915 0.00861143 0.0123591 0.108231 
-0.0196462 0.0155185 0.108497 0.0121458 0.0151918 0.108026 0.00390562 0.0317225 0.109198 
0.00317215 0.0343196 0.108913 0.0352379 0.0438995 0.108401 -0.0168273 -0.0360331 0.109826 
-0.0376897 -0.0314333 0.109552 -0.0263426 -0.0292431 0.110096 0.0233461 -0.0214624 0.110202 
0.0394323 -0.021923 0.109507 0.0323225 0.00436429 0.109598 -0.00867948 0.0139924 0.109285 
0.00519606 0.0301696 0.109383 -0.0430551 -0.0267583 0.111135 -0.0186412 -0.0134353 0.111144 
0.0161928 -0.00760918 0.110861 -0.00896956 -0.00131708 0.111739 0.000954082 0.0152563 0.111471 
-0.0108954 0.0304 0.110639 0.0231674 0.0340949 0.11071 0.0405446 0.0433429 0.111769 
0.0181024 -0.0433049 0.112538 0.0131812 -0.0427533 0.112746 -0.0327621 -0.0121928 0.11283 
0.0387156 -0.00624884 0.113061 -0.0120059 -0.00345367 0.111928 0.00975646 -0.00313231 0.112727 
0.0116524 0.00206193 0.112407 0.0441199 0.0136981 0.112143 0.0193546 0.0324404 0.112897 
-0.00585061 0.0388609 0.11293 0.0352701 0.0439749 0.112776 0.00985621 -0.0367022 0.113534 
0.0449741 -0.0303513 0.113437 0.0323803 -0.0150629 0.11411 -0.00841171 0.0143034 0.114219 
0.0311878 0.014057 0.113295 0.0407412 0.0174253 0.113874 -0.0122989 0.0222019 0.114195 
0.00126512 0.0228658 0.113316 0.0438582 0.0244724 0.114381 0.026696 0.03017 0.113425 
0.0166138 -0.0412108 0.115534 -0.0233761 -0.031813 0.115305 -0.0220587 -0.0306349 0.115044 
-0.0414327 -0.0290659 0.115057 0.0346338 -0.0290927 0.11562 0.00558373 -0.0242787 0.114613 
-0.0127621 -0.0231756 0.114697 0.035159 -0.023363 0.114981 0.038292 -0.016257 0.114443 
-0.00254943 -0.00825679 0.114609 -0.0344646 -0.00725539 0.114933 0.0180458 -0.00470109 0.115003 
-0.0107529 -0.00365687 0.115128 -0.00941413 -0.00330341 0.115587 -0.0283489 -0.000417126 0.11543 
-0.0325416 0.00283857 0.114459 0.00243665 0.00282786 0.11446 -0.025141 0.00447188 0.115067 
0.0396593 0.013993 0.115529 0.0398418 0.0217469 0.115682 0.021223 0.0244832 0.114822 
0.0395905 0.0272142 0.114914 0.0372507 0.0318783 0.115448 -0.00196307 0.0366495 0.11512 
-0.0309963 -0.0355024 0.116523 0.0240101 -0.0228809 0.115778 -0.0147645 -0.0165889 0.116144 
0.0334462 -0.00930086 0.116178 0.0140084 -6.89735e-05 0.116363 -0.0105861 0.00898083 0.116365 
0.0211953 0.00966092 0.116608 -0.0148746 0.0223253 0.116633 0.0294278 0.0431452 0.116431 
0.00528787 0.0432844 0.116545 -0.00396528 -0.0444182 0.117817 -0.0386911 -0.0311434 0.117648 
-0.00863888 -0.0237376 0.117226 -0.00401126 -0.00720159 0.117745 0.0404774 -0.00688032 0.117523 
-0.009285 0.00693532 0.117192 -0.0365733 0.0119208 0.117832 0.00243185 0.0120975 0.11803 
0.018015 0.0183735 0.117886 -0.0267196 0.0236159 0.117248 -0.0337286 0.0337045 0.117243 
0.00201585 0.0404036 0.117959 0.0195053 -0.043722 0.118661 0.0155599 -0.0240909 0.118998 
-0.0210835 -0.0209207 0.119587 0.0200271 -0.00425623 0.119495 -0.0408474 -0.00214648 0.11863 
0.0168839 -0.00210364 0.118658 -0.0376932 -0.000132947 0.119565 -0.0153419 -0.00108619 0.118822 
0.0260144 0.00429017 0.119133 -0.00598638 0.00689803 0.119349 0.0191028 0.0315895 0.118492 
0.00727395 0.0332762 0.118459 -0.0136468 -0.0412372 0.119932 -0.0161578 -0.0337243 0.119949 
0.0350196 -0.0250011 0.120623 0.00179778 -0.0247441 0.120181 -0.0033641 -0.0204173 0.119732 
-0.00528066 -0.0121118 0.12068 0.0242571 -0.0100823 0.120153 -0.0198668 -0.00211416 0.120725 
-0.0429246 0.00657681 0.120184 0.00533928 0.00728904 0.120477 -0.0128609 0.0265935 0.120253 
-0.0425374 0.0333781 0.119777 0.0278529 0.0342296 0.12092 0.00888594 0.0360502 0.119861 
-0.0133259 0.0414802 0.120799 -0.0177803 -0.0340186 0.121992 0.0153133 -0.0285941 0.121855 
0.0347572 -0.0260666 0.12174 0.0144468 -0.013247 0.121224 0.00664535 -0.00164817 0.12203 
0.0183943 0.00266245 0.121018 -0.0231109 0.0157017 0.121862 0.00742845 0.0199749 0.121724 
0.0030545 0.0369981 0.120935 0.0416479 -0.0439733 0.1232 0.0406519 -0.0427256 0.123447 
0.0077947 -0.0345433 0.123054 0.0164647 -0.0275391 0.12227 0.0204492 -0.0194639 0.122837 
-0.0341597 -0.0122829 0.122943 -0.0253129 -0.0039775 0.122583 -0.0233311 0.00384073 0.123329 
0.0332757 0.00539899 0.123058 -0.0287332 0.0215601 0.12324 -0.0324762 0.0230005 0.122521 
0.00231692 -0.0294453 0.124287 -0.0279963 -0.0141356 0.124553 -0.0406381 0.00555966 0.123842 
-0.019893 0.00878872 0.123897 -0.00071691 0.0108932 0.123978 -0.0295899 0.0232577 0.12359 
0.0397191 0.0283771 0.124655 0.0380057 0.0324307 0.124626 -0.0390775 0.0447256 0.124159 
-0.0273176 -0.0361067 0.125559 -0.0346801 -0.0287009 0.124987 0.0115492 -0.0227248 0.125148 
0.0132043 -0.01541 0.125235 0.0352883 -0.0103067 0.125655 0.0448793 -0.00396119 0.125418 
0.0189244 0.00254502 0.125336 -0.0403489 0.00598291 0.126071 -0.0408306 0.00999374 0.125754 
0.00474506 0.0103043 0.125143 0.0234497 0.00978487 0.125337 0.027557 0.009967 0.126096 
-0.00808524 0.0113378 0.12546 -0.0350204 0.0121089 0.125585 -0.0408838 0.0159645 0.126037 
0.00367032 0.0371324 0.125161 -0.00647711 0.0391566 0.12565 0.0114086 0.0440135 0.126077 
0.0171919 0.0449185 0.125759 -0.0195638 -0.0385913 0.126893 0.0325128 -0.03812 0.126908 
0.0195647 -0.0366528 0.126591 0.0253763 -0.011051 0.126182 0.0358407 0.00533501 0.126234 
-0.0442311 0.00821601 0.12685 -0.0122189 0.0175978 0.126144 0.0434247 0.0295768 0.12702 
0.0337272 0.0324898 0.126176 0.0211706 0.0445491 0.127265 0.00849583 -0.0405939 0.12765 
-0.0164034 -0.0216001 0.127668 -0.0328213 -0.0176588 0.127701 -0.0408642 -0.0154151 0.128094 
-0.015814 -0.0152491 0.127812 0.0375745 -0.0151367 0.12797 -0.0137512 0.00384646 0.127457 
0.0324887 0.00836074 0.1285 0.00757299 0.0192258 0.127856 0.0040127 0.0314243 0.127811 
-0.0389435 -0.0425966 0.128835 -0.0169239 -0.0402939 0.129796 -0.0401314 -0.0280847 0.129316 
-0.0207996 -0.0190456 0.12925 0.00886689 -0.0141191 0.129226 -0.0253401 -0.0103599 0.129515 
0.0420414 -0.00101026 0.129534 -0.0131355 0.00164571 0.128818 0.00789931 0.0136568 0.129278 
0.012949 0.0143048 0.129208 0.0350116 0.0207306 0.12874 -0.0436572 0.0238848 0.129901 
-0.0407273 0.0358476 0.129799 0.0170579 0.0421878 0.129163 -0.00161929 -0.0353994 0.131136 
0.0355384 -0.0354155 0.130549 0.043014 -0.0343178 0.130175 -0.0210092 -0.0320472 0.130473 
0.023019 -0.0293484 0.130691 0.0210005 -0.0239559 0.130848 -0.027449 0.00511055 0.131196 
-0.01547 0.00642247 0.130783 -0.00443291 0.0160613 0.130372 -0.0214233 0.0285543 0.130857 
-0.0289295 -0.0389067 0.132143 -0.0179089 -0.0346335 0.132435 0.0403097 -0.0347888 0.131931 
0.00978397 0.00922321 0.132221 -0.0287818 0.014969 0.131496 0.0440772 0.0154938 0.132294 
-0.0286532 0.0159811 0.132291 0.0256029 0.0175394 0.132625 -0.0363159 0.0185996 0.131525 
-0.00750544 0.0361316 0.131502 -0.0317519 -0.0446953 0.132903 -8.23525e-05 -0.034098 0.132666 
-0.00682403 -0.0314098 0.133052 0.0134129 -0.0192809 0.132642 0.0296492 -0.015918 0.133347 
-0.00710141 -0.0133745 0.132776 -0.0161548 0.0159009 0.133857 -0.00317984 0.0164631 0.133029 
-0.0132251 0.0252506 0.133442 -0.00472634 0.0344449 0.132871 0.0156293 -0.0283842 0.1341 
0.0347312 -0.012978 0.134617 0.0218314 -0.00971151 0.134949 0.00127443 -0.000618905 0.134569 
-0.0332593 0.000859011 0.134118 -0.00831541 0.0129665 0.134401 -0.0138035 0.0240512 0.134677 
-0.0260391 0.0304395 0.134141 -0.0359241 0.0337864 0.134191 0.0132394 0.0345575 0.134686 
-0.0190394 0.0446837 0.135184 0.0201641 -0.0426709 0.135858 -0.0234086 -0.038644 0.136194 
0.010226 -0.0308634 0.135355 0.0109547 -0.0235646 0.135435 -0.0313057 -0.0141988 0.136465 
-0.0101373 -0.00698039 0.136214 0.00418285 0.0112423 0.135415 -0.0436896 0.0195853 0.1356 
-0.0225361 -0.0441701 0.137376 0.0307351 -0.0355434 0.136991 -0.042331 -0.00792816 0.136854 
0.0127657 -0.00746761 0.137152 -0.00720807 -0.00608605 0.137023 0.0386193 -0.00496685 0.137282 
-0.0395569 -0.00227866 0.137519 -0.0219587 0.0304934 0.137274 -0.0379532 0.0399341 0.137522 
-0.00785852 0.041878 0.137698 0.0147823 -0.0446949 0.138082 -0.00338111 -0.0363358 0.138486 
-0.038621 -0.0229432 0.137895 -0.0136128 -0.00979682 0.139076 -0.0349081 0.00917553 0.137894 
-0.0193355 0.018129 0.138922 -0.014478 0.0275162 0.138801 0.0214431 0.0335886 0.138806 
0.0430506 0.0422314 0.138009 
VERTICES 506 505
OFFSETS vtktypeint64
0 1 2 3 4 5 6 7 8 
9 10 11 12 13 14 15 16 17 
18 19 20 21 22 23 24 25 26 
27 28 29 30 31 32 33 34 35 
36 37 38 39 40 41 42 43 44 
45 46 47 48 49 50 51 52 53 
54 55 56 57 58 59 60 61 62 
63 64 65 66 67 68 69 70 71 
72 73 74 75 76 77 78 79 80 
81 82 83 84 85 86 87 88 89 
90 91 92 93 94 95 96 97 98 
99 100 101 102 103 104 105 106 107 
108 109 110 111 112 113 114 115 116 
117 118 119 120 121 122 123 124 125 
126 127 128 129 130 131 132 133 134 
135 136 137 138 139 140 141 142 143 
144 145 146 147 148 149 150 151 152 
153 154 155 156 157 158 159 160 161 
162 163 164 165 166 167 168 169 170 
171 172 173 174 175 176 177 178 179 
180 181 182 183 184 185 186 187 188 
189 190 191 192 193 194 195 196 197 
198 199 200 201 202 203 204 205 206 
207 208 209 210 211 212 213 214 215 
216 217 218 219 220 221 222 223 224 
225 226 227 228 229 230 231 232 233 
234 235 236 237 238 239 240 241 242 
243 244 245 246 247 248 249 250 251 
252 253 254 255 256 257 258 259 260 
261 262 263 264 265 266 267 268 269 
270 271 272 273 274 275 276 277 278 
279 280 281 282 283 284 285 286 287 
288 289 290 291 292 293 294 295 296 
297 298 299 300 301 302 303 304 305 
306 307 308 309 310 311 312 313 314 
315 316 317 318 319 320 321 322 323 
324 325 326 327 328 329 330 331 332 
333 334 335 336 337 338 339 340 341 
342 343 344 345 346 347 348 349 350 
351 352 353 354 355 356 357 358 359 
360 361 362 363 364 365 366 367 368 
369 370 371 372 373 374 375 376 377 
378 379 380 381 382 383 384 385 386 
387 388 389 390 391 392 393 394 395 
396 397 398 399 400 401 402 403 404 
405 406 407 408 409 410 411 412 413 
414 415 416 417 418 419 420 421 422 
423 424 425 426 427 428 429 430 431 
432 433 434 435 436 437 438 439 440 
441 442 443 444 445 446 447 448 449 
450 451 452 453 454 455 456 457 458 
459 460 461 462 463 464 465 466 467 
468 469 470 471 472 473 474 475 476 
477 478 479 480 481 482 483 484 485 
486 487 488 489 490 491 492 493 494 
495 496 497 498 499 500 501 502 503 
504 505 
CONNECTIVITY vtktypeint64
0 1 2 3 4 5 6 7 8 
9 10 11 12 13 14 15 16 17 
18 19 20 21 22 23 24 25 26 
27 28 29 30 31 32 33 34 35 
36 37 38 39 40 41 42 43 44 
45 46 47 48 49 50 51 52 53 
54 55 56 57 58 59 60 61 62 
63 64 65 66 67 68 69 70 71 
72 73 74 75 76 77 78 79 80 
81 82 83 84 85 86 87 88 89 
90 91 92 93 94 95 96 97 98 
99 100 101 102 103 104 105 106 107 
108 109 110 111 112 113 114 115 116 
117 118 119 120 121 122 123 124 125 
126 127 128 129 130 131 132 133 134 
135 136 137 138 139 140 141 142 143 
144 145 146 147 148 149 150 151 152 
153 154 155 156 157 158 159 160 161 
162 163 164 165 166 167 168 169 170 
171 172 173 174 175 176 177 178 179 
180 181 182 183 184 185 186 187 188 
189 190 191 192 193 194 195 196 197 
198 199 200 201 202 203 204 205 206 
207 208 209 210 211 212 213 214 215 
216 217 218 219 220 221 222 223 224 
225 226 227 228 229 230 231 232 233 
234 235 236 237 238 239 240 241 242 
243 244 245 246 247 248 249 250 251 
252 253 254 255 256 257 258 259 260 
261 262 263 264 265 266 267 268 269 
270 271 272 273 274 275 276 277 278 
279 280 281 282 283 284 285 286 287 
288 289 290 291 292 293 294 295 296 
297 298 299 300 301 302 303 304 305 
306 307 308 309 310 311 312 313 314 
315 316 317 318 319 320 321 322 323 
324 325 326 327 328 329 330 331 332 
333 334 335 336 337 338 339 340 341 
342 343 344 345 346 347 348 349 350 
351 352 353 354 355 356 357 358 359 
360 361 362 363 364 365 366 367 368 
369 370 371 372 373 374 375 376 377 
378 379 380 381 382 383 384 385 386 
387 388 389 390 391 392 393 394 395 
396 397 398 399 400 401 402 403 404 
405 406 407 408 409 410 411 412 413 
414 415 416 417 418 419 420 421 422 
423 424 425 426 427 428 429 430 431 
432 433 434 435 436 437 438 439 440 
441 442 443 444 445 446 447 448 449 
450 451 452 453 454 455 456 457 458 
459 460 461 462 463 464 465 466 467 
468 469 470 471 472 473 474 475 476 
477 478 479 480 481 482 483 484 485 
486 487 488 489 490 491 492 493 494 
495 496 497 498 499 500 501 502 503 
504 
POINT_DATA 505
FIELD FieldData 12
id 1 505 int
200 6 57 134 107 231 428 127 383 
197 26 270 362 164 115 291 176 465 
396 423 169 149 195 372 356 88 336 
370 11 86 219 12 185 247 381 215 
72 385 353 450 214 150 491 18 459 
190 106 125 165 373 189 187 366 92 
304 237 58 293 418 433 364 14 253 
87 83 322 193 339 9 280 158 29 
246 457 367 440 289 483 186 458 407 
166 49 386 331 282 154 8 10 175 
310 488 256 470 496 73 444 66 36 
297 233 13 317 292 132 100 408 435 
207 404 505 355 467 432 321 327 85 
22 137 167 427 456 454 417 162 410 
155 406 463 411 347 5 290 500 349 
478 60 412 326 229 51 267 439 16 
399 263 424 21 40 110 337 163 222 
91 188 319 303 409 2 90 112 4 
261 54 104 199 351 98 314 415 238 
227 324 495 384 30 504 318 298 240 
248 32 486 288 357 330 218 24 96 
168 61 141 236 161 76 275 390 429 
35 183 121 484 75 255 446 15 447 
328 113 271 34 122 223 64 479 243 
378 202 287 198 320 174 211 377 196 
129 498 451 201 437 62 375 84 140 
28 157 311 341 474 401 178 308 148 
313 475 226 477 295 472 111 216 119 
81 128 59 278 151 469 343 251 272 
346 414 146 299 257 20 208 63 65 
45 397 102 352 74 17 395 392 431 
394 206 268 52 239 250 393 294 79 
416 329 170 260 53 252 171 142 205 
334 244 56 363 279 78 461 94 232 
487 323 462 38 265 144 420 325 108 
342 89 333 493 42 368 425 345 273 
117 109 348 123 93 71 403 105 360 
371 204 217 379 213 481 225 68 156 
335 116 25 43 1 405 301 426 266 
455 421 286 361 350 147 430 460 135 
305 70 281 182 31 471 489 445 448 
380 285 212 126 138 130 139 276 503 
124 221 254 179 466 476 82 354 449 
376 3 50 77 501 453 338 296 480 
442 181 315 482 413 302 55 210 359 
436 340 153 316 7 114 180 438 136 
160 274 143 374 194 300 145 443 332 
258 99 502 177 441 23 80 499 46 
41 33 191 309 434 159 344 47 307 
103 234 284 245 220 209 312 402 69 
497 48 358 228 118 485 452 242 388 
398 44 422 490 468 473 131 387 120 
259 101 365 389 262 97 269 494 391 
172 203 173 283 192 306 39 464 152 
230 492 95 27 224 133 382 419 249 
277 241 67 37 264 400 184 369 235 
19 
type 1 505 int
1 2 1 1 1 1 1 1 1 
1 1 1 1 1 1 1 1 1 
1 1 1 1 1 1 1 1 1 
1 2 1 1 2 1 1 1 1 
1 1 1 1 1 1 1 1 1 
1 1 1 1 1 1 1 1 1 
1 1 1 1 1 1 1 2 1 
1 1 1 1 1 2 1 1 1 
1 1 1 1 1 1 1 1 1 
1 1 1 1 1 1 2 2 1 
1 1 1 1 1 1 1 1 1 
1 1 2 1 1 1 1 1 1 
1 1 1 1 1 1 1 1 1 
1 1 1 1 1 1 1 1 1 
1 1 1 1 1 2 1 1 1 
1 1 1 1 1 1 1 1 2 
1 1 1 1 1 1 1 1 1 
1 1 1 1 1 3 1 1 2 
1 1 1 1 1 1 1 1 1 
1 1 1 1 1 1 1 1 1 
1 1 1 1 1 1 1 1 1 
1 1 1 1 1 1 1 1 1 
1 1 1 1 1 1 1 2 1 
1 1 1 1 1 1 1 1 1 
1 1 1 1 1 1 1 1 1 
1 1 1 1 1 1 1 1 1 
1 1 1 1 1 1 1 1 1 
1 1 1 1 1 1 1 1 1 
1 1 1 1 1 1 1 1 1 
1 1 1 1 1 1 1 1 1 
1 1 1 1 1 1 1 1 1 
1 1 1 1 1 1 1 1 1 
1 1 1 1 1 1 1 1 1 
1 1 1 1 1 1 1 1 1 
1 1 1 1 1 1 1 1 1 
1 1 1 1 1 1 1 1 1 
1 1 1 1 1 1 1 1 1 
1 1 1 1 1 1 1 1 1 
1 1 1 1 4 1 1 1 1 
1 1 1 1 1 1 1 1 1 
1 1 1 1 1 1 1 1 1 
1 1 1 1 1 1 1 1 1 
1 1 1 1 1 1 1 1 1 
1 2 1 1 1 1 1 1 1 
1 1 1 1 1 1 1 1 1 
1 1 1 1 2 1 1 1 1 
1 1 1 1 1 1 1 1 1 
1 1 1 1 1 1 1 1 1 
1 1 1 1 1 1 1 1 1 
1 1 1 1 1 1 1 1 1 
1 1 1 1 1 1 1 1 1 
1 1 1 1 1 1 1 1 1 
1 1 1 1 1 1 1 1 1 
1 1 1 1 1 1 1 1 1 
1 1 1 1 1 1 1 1 1 
1 1 1 1 1 1 1 1 1 
1 
i 3 505 int
0 0 0 0 0 0 0 0 0 
0 0 0 0 0 0 0 0 0 
0 0 0 0 0 0 0 0 0 
0 0 0 0 0 0 0 0 0 
0 0 0 0 0 0 0 0 0 
0 0 0 0 0 0 0 0 0 
0 0 0 0 0 0 0 0 0 
0 0 0 0 0 0 0 0 0 
0 0 0 0 0 0 0 0 0 
0 0 0 0 0 0 0 0 0 
0 0 0 0 0 0 0 0 0 
0 0 0 0 0 0 0 0 0 
0 0 0 0 0 0 0 0 0 
0 0 0 0 0 0 0 0 0 
0 0 0 0 0 0 0 0 0 
0 0 0 0 0 0 0 0 0 
0 0 0 0 0 0 0 0 0 
0 0 0 0 0 0 0 0 0 
0 0 0 0 0 0 0 0 0 
0 0 0 0 0 0 0 0 0 
0 0 0 0 0 0 0 0 0 
0 0 0 0 0 0 0 0 0 
0 0 0 0 0 0 0 0 0 
0 0 0 0 0 0 0 0 0 
0 0 0 0 0 0 0 0 0 
0 0 0 0 0 0 0 0 0 
0 0 0 0 0 0 0 0 0 
0 0 0 0 0 0 0 0 0 
0 0 0 0 0 0 0 0 0 
0 0 0 0 0 0 0 0 0 
0 0 0 0 0 0 0 0 0 
0 0 0 0 0 0 0 0 0 
0 0 0 0 0 0 0 0 0 
0 0 0 0 0 0 0 0 0 
0 0 0 0 0 0 0 0 0 
0 0 0 0 0 0 0 0 0 
0 0 0 0 0 0 0 0 0 
0 0 0 0 0 0 0 0 0 
0 0 0 0 0 0 0 0 0 
0 0 0 0 0 0 0 0 0 
0 0 0 0 0 0 0 0 0 
0 0 0 0 0 0 0 0 0 
0 0 0 0 0 0 0 0 0 
0 0 0 0 0 0 0 0 0 
0 0 0 0 0 0 0 0 0 
0 0 0 0 0 0 0 0 0 
0 0 0 0 0 0 0 0 0 
0 0 0 0 0 0 0 0 0 
0 0 0 0 0 0 0 0 0 
0 0 0 0 0 0 0 0 0 
0 0 0 0 0 0 0 0 0 
0 0 0 0 0 0 0 0 0 
0 0 0 0 0 0 0 0 0 
0 0 0 0 0 0 0 0 0 
0 0 0 0 0 0 0 0 0 
0 0 0 0 0 0 0 0 0 
0 0 0 0 0 0 0 0 0 
0 0 0 0 0 0 0 0 0 
0 0 0 0 0 0 0 0 0 
0 0 0 0 0 0 0 0 0 
0 0 0 0 0 0 0 0 0 
0 0 0 0 0 0 0 0 0 
0 0 0 0 0 0 0 0 0 
0 0 0 0 0 0 0 0 0 
0 0 0 0 0 0 0 0 0 
0 0 0 0 0 0 0 0 0 
0 0 0 0 0 0 0 0 0 
0 0 0 0 0 0 0 0 0 
0 0 0 0 0 0 0 0 0 
0 0 0 0 0 0 0 0 0 
0 0 0 0 0 0 0 0 0 
0 0 0 0 0 0 0 0 0 
0 0 0 0 0 0 0 0 0 
0 0 0 0 0 0 0 0 0 
0 0 0 0 0 0 0 0 0 
0 0 0 0 0 0 0 0 0 
0 0 0 0 0 0 0 0 0 
0 0 0 0 0 0 0 0 0 
0 0 0 0 0 0 0 0 0 
0 0 0 0 0 0 0 0 0 
0 0 0 0 0 0 0 0 0 
0 0 0 0 0 0 0 0 0 
0 0 0 0 0 0 0 0 0 
0 0 0 0 0 0 0 0 0 
0 0 0 0 0 0 0 0 0 
0 0 0 0 0 0 0 0 0 
0 0 0 0 0 0 0 0 0 
0 0 0 0 0 0 0 0 0 
0 0 0 0 0 0 0 0 0 
0 0 0 0 0 0 0 0 0 
0 0 0 0 0 0 0 0 0 
0 0 0 0 0 0 0 0 0 
0 0 0 0 0 0 0 0 0 
0 0 0 0 0 0 0 0 0 
0 0 0 0 0 0 0 0 0 
0 0 0 0 0 0 0 0 0 
0 0 0 0 0 0 0 0 0 
0 0 0 0 0 0 0 0 0 
0 0 0 0 0 0 0 0 0 
0 0 0 0 0 0 0 0 0 
0 0 0 0 0 0 0 0 0 
0 0 0 0 0 0 0 0 0 
0 0 0 0 0 0 0 0 0 
0 0 0 0 0 0 0 0 0 
0 0 0 0 0 0 0 0 0 
0 0 0 0 0 0 0 0 0 
0 0 0 0 0 0 0 0 0 
0 0 0 0 0 0 0 0 0 
0 0 0 0 0 0 0 0 0 
0 0 0 0 0 0 0 0 0 
0 0 0 0 0 0 0 0 0 
0 0 0 0 0 0 0 0 0 
0 0 0 0 0 0 0 0 0 
0 0 0 0 0 0 0 0 0 
0 0 0 0 0 0 0 0 0 
0 0 0 0 0 0 0 0 0 
0 0 0 0 0 0 0 0 0 
0 0 0 0 0 0 0 0 0 
0 0 0 0 0 0 0 0 0 
0 0 0 0 0 0 0 0 0 
0 0 0 0 0 0 0 0 0 
0 0 0 0 0 0 0 0 0 
0 0 0 0 0 0 0 0 0 
0 0 0 0 0 0 0 0 0 
0 0 0 0 0 0 0 0 0 
0 0 0 0 0 0 0 0 0 
0 0 0 0 0 0 0 0 0 
0 0 0 0 0 0 0 0 0 
0 0 0 0 0 0 0 0 0 
0 0 0 0 0 0 0 0 0 
0 0 0 0 0 0 0 0 0 
0 0 0 0 0 0 0 0 0 
0 0 0 0 0 0 0 0 0 
0 0 0 0 0 0 0 0 0 
0 0 0 0 0 0 0 0 0 
0 0 0 0 0 0 0 0 0 
0 0 0 0 0 0 0 0 0 
0 0 0 0 0 0 0 0 0 
0 0 0 0 0 0 0 0 0 
0 0 0 0 0 0 0 0 0 
0 0 0 0 0 0 0 0 0 
0 0 0 0 0 0 0 0 0 
0 0 0 0 0 0 0 0 0 
0 0 0 0 0 0 0 0 0 
0 0 0 0 0 0 0 0 0 
0 0 0 0 0 0 0 0 0 
0 0 0 0 0 0 0 0 0 
0 0 0 0 0 0 0 0 0 
0 0 0 0 0 0 0 0 0 
0 0 0 0 0 0 0 0 0 
0 0 0 0 0 0 0 0 0 
0 0 0 0 0 0 0 0 0 
0 0 0 0 0 0 0 0 0 
0 0 0 0 0 0 0 0 0 
0 0 0 0 0 0 0 0 0 
0 0 0 0 0 0 0 0 0 
0 0 0 0 0 0 0 0 0 
0 0 0 0 0 0 0 0 0 
0 0 0 0 0 0 0 0 0 
0 0 0 0 0 0 0 0 0 
0 0 0 0 0 0 0 0 0 
0 0 0 0 0 0 0 0 0 
0 0 0 0 0 0 0 0 0 
0 0 0 0 0 0 0 0 0 
0 0 0 0 0 0 0 0 0 
0 0 0 0 0 0 0 0 0 
0 0 0 0 0 0 0 0 0 
0 0 0 0 0 0 0 0 0 
0 0 0 
v 3 505 double
0 0 -0.0513741875 0 0 -0.0513741875 0 0 -0.0513741875 
0 0 -0.0513741875 0 0 -0.0513741875 0 0 -0.0513741875 
0 0 -0.0513741875 0 0 -0.0513741875 0 0 -0.0513741875 
0 0 -0.0513741875 0 0 -0.0513741875 0 0 -0.0513741875 
0 0 -0.0513741875 0 0 -0.0513741875 0 0 -0.0513741875 
0 0 -0.0513741875 0 0 -0.0513741875 0 0 -0.0513741875 
0 0 -0.0513741875 0 0 -0.0513741875 0 0 -0.0513741875 
0 0 -0.0513741875 0 0 -0.0513741875 0 0 -0.0513741875 
0 0 -0.0513741875 0 0 -0.0513741875 0 0 -0.0513741875 
0 0 -0.0513741875 0 0 -0.0513741875 0 0 -0.0513741875 
0 0 -0.0513741875 0 0 -0.0513741875 0 0 -0.0513741875 
0 0 -0.0513741875 0 0 -0.0513741875 0 0 -0.0513741875 
0 0 -0.0513741875 0 0 -0.0513741875 0 0 -0.0513741875 
0 0 -0.0513741875 0 0 -0.0513741875 0 0 -0.0513741875 
0 0 -0.0513741875 0 0 -0.0513741875 0 0 -0.0513741875 
0 0 -0.0513741875 0 0 -0.0513741875 0 0 -0.0513741875 
0 0 -0.0513741875 0 0 -0.0513741875 0 0 -0.0513741875 
0 0 -0.0513741875 0 0 -0.0513741875 0 0 -0.0513741875 
0 0 -0.0513741875 0 0 -0.0513741875 0 0 -0.0513741875 
0 0 -0.0513741875 0 0 -0.0513741875 0 0 -0.0513741875 
0 0 -0.0513741875 0 0 -0.0513741875 0 0 -0.0513741875 
0 0 -0.0513741875 0 0 -0.0513741875 0 0 -0.0513741875 
0 0 -0.0513741875 0 0 -0.0513741875 0 0 -0.0513741875 
0 0 -0.0513741875 0 0 -0.0513741875 0 0 -0.0513741875 
0 0 -0.0513741875 0 0 -0.0513741875 0 0 -0.0513741875 
0 0 -0.0513741875 0 0 -0.0513741875 0 0 -0.0513741875 
0 0 -0.0513741875 0 0 -0.0513741875 0 0 -0.0513741875 
0 0 -0.0513741875 0 0 -0.0513741875 0 0 -0.0513741875 
0 0 -0.0513741875 0 0 -0.0513741875 0 0 -0.0513741875 
0 0 -0.0513741875 0 0 -0.0513741875 0 0 -0.0513741875 
0 0 -0.0513741875 0 0 -0.0513741875 0 0 -0.0513741875 
0 0 -0.0513741875 0 0 -0.0513741875 0 0 -0.0513741875 
0 0 -0.0513741875 0 0 -0.0513741875 0 0 -0.0513741875 
0 0 -0.0513741875 0 0 -0.0513741875 0 0 -0.0513741875 
0 0 -0.0513741875 0 0 -0.0513741875 0 0 -0.0513741875 
0 0 -0.0513741875 0 0 -0.0513741875 0 0 -0.0513741875 
0 0 -0.0513741875 0 0 -0.0513741875 0 0 -0.0156241875 
0 0 -0.0513741875 0 0 -0.0513741875 0 0 -0.0513741875 
0 0 -0.0513741875 0 0 -0.0513741875 0 0 -0.0513741875 
0 0 -0.0513741875 0 0 -0.0513741875 0 0 -0.0513741875 
0 0 -0.0513741875 0 0 -0.0513741875 0 0 -0.0513741875 
0 0 -0.0513741875 0 0 -0.0513741875 0 0 -0.0513741875 
0 0 -0.0513741875 0 0 -0.0513741875 0 0 -0.0513741875 
0 0 -0.0513741875 0 0 -0.0513741875 0 0 -0.0513741875 
0 0 -0.0513741875 0 0 -0.0513741875 0 0 -0.0513741875 
0 0 -0.0513741875 0 0 -0.0513741875 0 0 -0.0513741875 
0 0 -0.0513741875 0 0 -0.0513741875 0 0 -0.0513741875 
0 0 -0.0513741875 0 0 -0.0513741875 0 0 -0.0513741875 
0 0 -0.0513741875 0 0 -0.0513741875 0 0 -0.0513741875 
0 0 -0.0513741875 0 0 -0.0513741875 0 0 -0.0513741875 
0 0 -0.0513741875 0 0 -0.0513741875 0 0 -0.0513741875 
0 0 -0.0513741875 0 0 -0.0513741875 0 0 -0.0513741875 
0 0 -0.0513741875 0 0 -0.0513741875 0 0 -0.0513741875 
0 0 -0.0513741875 0 0 -0.0513741875 0 0 -0.0513741875 
0 0 -0.0513741875 0 0 -0.0513741875 0 0 -0.0513741875 
0 0 -0.0513741875 0 0 -0.0513741875 0 0 -0.0513741875 
0 0 -0.0513741875 0 0 -0.0513741875 0 0 -0.0513741875 
0 0 -0.0513741875 0 0 -0.0513741875 0 0 -0.0513741875 
0 0 -0.0513741875 0 0 -0.0513741875 0 0 -0.0188741875 
0 0 -0.0513741875 0 0 -0.0513741875 0 0 -0.0513741875 
0 0 -0.0513741875 0 0 -0.0513741875 0 0 -0.0513741875 
0 0 -0.0513741875 0 0 -0.0513741875 0 0 -0.0513741875 
0 0 -0.0513741875 0 0 -0.0513741875 0 0 -0.0513741875 
0 0 -0.0513741875 0 0 -0.0513741875 0 0 -0.0513741875 
0 0 -0.0513741875 0 0 -0.0513741875 0 0 -0.0513741875 
0 0 -0.0513741875 0 0 -0.0513741875 0 0 -0.0513741875 
0 0 -0.0513741875 0 0 -0.0513741875 0 0 -0.0513741875 
0 0 -0.0513741875 0 0 -0.0513741875 0 0 -0.0513741875 
0 0 -0.0513741875 0 0 -0.0513741875 0 0 -0.0513741875 
0 0 -0.0513741875 0 0 -0.0513741875 0 0 -0.0513741875 
0 0 -0.0513741875 0 0 -0.0513741875 0 0 -0.0513741875 
0 0 -0.0513741875 0 0 -0.0513741875 0 0 -0.0513741875 
0 0 -0.0513741875 0 0 -0.0513741875 0 0 -0.0513741875 
0 0 -0.0513741875 0 0 -0.0513741875 0 0 -0.0513741875 
0 0 -0.0513741875 0 0 -0.0513741875 0 0 -0.0513741875 
0 0 -0.0513741875 0 0 -0.0513741875 0 0 -0.0513741875 
0 0 -0.0513741875 0 0 -0.0513741875 0 0 -0.0513741875 
0 0 -0.0513741875 0 0 -0.0513741875 0 0 -0.0513741875 
0 0 -0.0513741875 0 0 -0.0513741875 0 0 -0.0513741875 
0 0 -0.0513741875 0 0 -0.0513741875 0 0 -0.0513741875 
0 0 -0.0513741875 0 0 -0.0513741875 0 0 -0.0513741875 
0 0 -0.0513741875 0 0 -0.0513741875 0 0 -0.0513741875 
0 0 -0.0513741875 0 0 -0.0513741875 0 0 -0.0513741875 
0 0 -0.0513741875 0 0 -0.0513741875 0 0 -0.0513741875 
0 0 -0.0513741875 0 0 -0.0513741875 0 0 -0.0513741875 
0 0 -0.0513741875 0 0 -0.0513741875 0 0 -0.0513741875 
0 0 -0.0513741875 0 0 -0.0513741875 0 0 -0.0513741875 
0 0 -0.0513741875 0 0 -0.0513741875 0 0 -0.0513741875 
0 0 -0.0513741875 0 0 -0.0513741875 0 0 -0.0513741875 
0 0 -0.0513741875 0 0 -0.0513741875 0 0 -0.0513741875 
0 0 -0.0513741875 0 0 -0.0513741875 0 0 -0.0513741875 
0 0 -0.0513741875 0 0 -0.0513741875 0 0 -0.0513741875 
0 0 -0.0513741875 0 0 -0.0513741875 0 0 -0.0513741875 
0 0 -0.0513741875 0 0 -0.0513741875 0 0 -0.0513741875 
0 0 -0.0513741875 0 0 -0.0513741875 0 0 -0.0513741875 
0 0 -0.0513741875 0 0 -0.0513741875 0 0 -0.0513741875 
0 0 -0.0513741875 0 0 -0.0513741875 0 0 -0.0513741875 
0 0 -0.0513741875 0 0 -0.0513741875 0 0 -0.0513741875 
0 0 -0.0513741875 0 0 -0.0513741875 0 0 -0.0513741875 
0 0 -0.0513741875 0 0 -0.0513741875 0 0 -0.0513741875 
0 0 -0.0513741875 0 0 -0.0513741875 0 0 -0.0513741875 
0 0 -0.0513741875 0 0 -0.0513741875 0 0 -0.0513741875 
0 0 -0.0513741875 0 0 -0.0513741875 0 0 -0.0513741875 
0 0 -0.0513741875 0 0 -0.0513741875 0 0 -0.0513741875 
0 0 -0.0513741875 0 0 -0.0513741875 0 0 -0.0513741875 
0 0 -0.0513741875 0 0 -0.0513741875 0 0 -0.0513741875 
0 0 -0.0513741875 0 0 -0.0513741875 0 0 -0.0513741875 
0 0 -0.0513741875 0 0 -0.0513741875 0 0 -0.0513741875 
0 0 -0.0513741875 0 0 -0.0513741875 0 0 -0.0513741875 
0 0 -0.0513741875 0 0 -0.0513741875 0 0 -0.0513741875 
0 0 -0.0513741875 0 0 -0.0513741875 0 0 -0.0513741875 
0 0 -0.0513741875 0 0 -0.0513741875 0 0 -0.0513741875 
0 0 -0.0513741875 0 0 -0.0513741875 0 0 -0.0513741875 
0 0 -0.0513741875 0 0 -0.0513741875 0 0 -0.0513741875 
0 0 -0.0513741875 0 0 -0.0513741875 0 0 -0.0513741875 
0 0 -0.0513741875 0 0 -0.0513741875 0 0 -0.0513741875 
0 0 -0.0513741875 0 0 -0.0513741875 0 0 -0.0513741875 
0 0 -0.0513741875 0 0 -0.0513741875 0 0 -0.0513741875 
0 0 -0.0513741875 0 0 -0.0513741875 0 0 -0.0513741875 
0 0 -0.0513741875 0 0 -0.0513741875 0 0 -0.0513741875 
0 0 -0.0513741875 0 0 -0.0513741875 0 0 -0.0513741875 
0 0 -0.0513741875 0 0 -0.0513741875 0 0 -0.0513741875 
0 0 -0.0513741875 0 0 -0.0513741875 0 0 -0.0513741875 
0 0 -0.0513741875 0 0 -0.0513741875 0 0 -0.0513741875 
0 0 -0.0513741875 0 0 -0.0513741875 0 0 -0.0513741875 
0 0 -0.0513741875 0 0 -0.0513741875 0 0 -0.0318741875 
0 0 -0.0513741875 0 0 -0.0513741875 0 0 -0.0513741875 
0 0 -0.0513741875 0 0 -0.0513741875 0 0 -0.0513741875 
0 0 -0.0513741875 0 0 -0.0513741875 0 0 -0.0513741875 
0 0 -0.0513741875 0 0 -0.0513741875 0 0 -0.0513741875 
0 0 -0.0513741875 0 0 -0.0383741875 0 0 -0.0513741875 
0 0 -0.0513741875 0 0 -0.0513741875 0 0 -0.0513741875 
0 0 -0.0513741875 0 0 -0.0513741875 0 0 -0.0513741875 
0 0 -0.0513741875 0 0 -0.0513741875 0 0 -0.0513741875 
0 0 -0.0513741875 0 0 -0.0513741875 0 0 -0.0513741875 
0 0 -0.0513741875 0 0 -0.0513741875 0 0 -0.0513741875 
0 0 -0.0513741875 0 0 -0.0513741875 0 0 -0.0513741875 
0 0 -0.0513741875 0 0 -0.0513741875 0 0 -0.0513741875 
0 0 -0.0513741875 0 0 -0.0513741875 0 0 -0.0513741875 
0 0 -0.0513741875 0 0 -0.0513741875 0 0 -0.0513741875 
0 0 -0.0513741875 0 0 -0.0513741875 0 0 -0.0513741875 
0 0 -0.0513741875 0 0 -0.0513741875 0 0 -0.0383741875 
0 0 -0.0513741875 0 0 -0.0513741875 0 0 -0.0513741875 
0 0 -0.0513741875 0 0 -0.0513741875 0 0 -0.0513741875 
0 0 -0.0513741875 0 0 -0.0513741875 0 0 -0.0513741875 
0 0 -0.0513741875 0 0 -0.0513741875 0 0 -0.0513741875 
0 0 -0.0513741875 0 0 -0.0513741875 0 0 -0.0513741875 
0 0 -0.0513741875 0 0 -0.0513741875 0 0 -0.0513741875 
0 0 -0.0513741875 0 0 -0.0513741875 0 0 -0.0513741875 
0 0 -0.0513741875 0 0 -0.0513741875 0 0 -0.0513741875 
0 0 -0.0513741875 0 0 -0.0513741875 0 0 -0.0513741875 
0 0 -0.0513741875 0 0 -0.0513741875 0 0 -0.0513741875 
0 0 -0.0513741875 0 0 -0.0513741875 0 0 -0.0513741875 
0 0 -0.0513741875 0 0 -0.0513741875 0 0 -0.0513741875 
0 0 -0.0513741875 0 0 -0.0513741875 0 0 -0.0513741875 
0 0 -0.0513741875 0 0 -0.0513741875 0 0 -0.0513741875 
0 0 -0.0513741875 0 0 -0.0513741875 0 0 -0.0513741875 
0 0 -0.0513741875 0 0 -0.0513741875 0 0 -0.0513741875 
0 0 -0.0513741875 0 0 -0.0513741875 0 0 -0.0513741875 
0 0 -0.0513741875 0 0 -0.0513741875 0 0 -0.0513741875 
0 0 -0.0513741875 0 0 -0.0513741875 0 0 -0.0513741875 
0 0 -0.0513741875 0 0 -0.0513741875 0 0 -0.0513741875 
0 0 -0.0513741875 0 0 -0.0513741875 0 0 -0.0513741875 
0 0 -0.0513741875 0 0 -0.0513741875 0 0 -0.0513741875 
0 0 -0.0513741875 0 0 -0.0513741875 0 0 -0.0513741875 
0 0 -0.0513741875 0 0 -0.0513741875 0 0 -0.0513741875 
0 0 -0.0513741875 0 0 -0.0513741875 0 0 -0.0513741875 
0 0 -0.0513741875 0 0 -0.0513741875 0 0 -0.0513741875 
0 0 -0.0513741875 
f 3 505 double
0 0 -1.7425367252e-10 0 0 -8.9019973083e-09 0 0 -1.7425367252e-10 
0 0 -1.7425367252e-10 0 0 -1.7425367252e-10 0 0 -1.7425367252e-10 
0 0 -1.7425367252e-10 0 0 -1.7425367252e-10 0 0 -1.7425367252e-10 
0 0 -1.7425367252e-10 0 0 -1.7425367252e-10 0 0 -1.7425367252e-10 
0 0 -1.7425367252e-10 0 0 -1.7425367252e-10 0 0 -1.7425367252e-10 
0 0 -1.7425367252e-10 0 0 -1.7425367252e-10 0 0 -1.7425367252e-10 
0 0 -1.7425367252e-10 0 0 -1.7425367252e-10 0 0 -1.7425367252e-10 
0 0 -1.7425367252e-10 0 0 -1.7425367252e-10 0 0 -1.7425367252e-10 
0 0 -1.7425367252e-10 0 0 -1.7425367252e-10 0 0 -1.7425367252e-10 
0 0 -1.7425367252e-10 0 0 -8.9019973083e-09 0 0 -1.7425367252e-10 
0 0 -1.7425367252e-10 0 0 -8.9019973083e-09 0 0 -1.7425367252e-10 
0 0 -1.7425367252e-10 0 0 -1.7425367252e-10 0 0 -1.7425367252e-10 
0 0 -1.7425367252e-10 0 0 -1.7425367252e-10 0 0 -1.7425367252e-10 
0 0 -1.7425367252e-10 0 0 -1.7425367252e-10 0 0 -1.7425367252e-10 
0 0 -1.7425367252e-10 0 0 -1.7425367252e-10 0 0 -1.7425367252e-10 
0 0 -1.7425367252e-10 0 0 -1.7425367252e-10 0 0 -1.7425367252e-10 
0 0 -1.7425367252e-10 0 0 -1.7425367252e-10 0 0 -1.7425367252e-10 
0 0 -1.7425367252e-10 0 0 -1.7425367252e-10 0 0 -1.7425367252e-10 
0 0 -1.7425367252e-10 0 0 -1.7425367252e-10 0 0 -1.7425367252e-10 
0 0 -1.7425367252e-10 0 0 -1.7425367252e-10 0 0 -1.7425367252e-10 
0 0 -1.7425367252e-10 0 0 -8.9019973083e-09 0 0 -1.7425367252e-10 
0 0 -1.7425367252e-10 0 0 -1.7425367252e-10 0 0 -1.7425367252e-10 
0 0 -1.7425367252e-10 0 0 -1.7425367252e-10 0 0 -8.9019973083e-09 
0 0 -1.7425367252e-10 0 0 -1.7425367252e-10 0 0 -1.7425367252e-10 
0 0 -1.7425367252e-10 0 0 -1.7425367252e-10 0 0 -1.7425367252e-10 
0 0 -1.7425367252e-10 0 0 -1.7425367252e-10 0 0 -1.7425367252e-10 
0 0 -1.7425367252e-10 0 0 -1.7425367252e-10 0 0 -1.7425367252e-10 
0 0 -1.7425367252e-10 0 0 -1.7425367252e-10 0 0 -1.7425367252e-10 
0 0 -1.7425367252e-10 0 0 -1.7425367252e-10 0 0 -1.7425367252e-10 
0 0 -8.9019973083e-09 0 0 -8.9019973083e-09 0 0 -1.7425367252e-10 
0 0 -1.7425367252e-10 0 0 -1.7425367252e-10 0 0 -1.7425367252e-10 
0 0 -1.7425367252e-10 0 0 -1.7425367252e-10 0 0 -1.7425367252e-10 
0 0 -1.7425367252e-10 0 0 -1.7425367252e-10 0 0 -1.7425367252e-10 
0 0 -1.7425367252e-10 0 0 -1.7425367252e-10 0 0 -8.9019973083e-09 
0 0 -1.7425367252e-10 0 0 -1.7425367252e-10 0 0 -1.7425367252e-10 
0 0 -1.7425367252e-10 0 0 -1.7425367252e-10 0 0 -1.7425367252e-10 
0 0 -1.7425367252e-10 0 0 -1.7425367252e-10 0 0 -1.7425367252e-10 
0 0 -1.7425367252e-10 0 0 -1.7425367252e-10 0 0 -1.7425367252e-10 
0 0 -1.7425367252e-10 0 0 -1.7425367252e-10 0 0 -1.7425367252e-10 
0 0 -1.7425367252e-10 0 0 -1.7425367252e-10 0 0 -1.7425367252e-10 
0 0 -1.7425367252e-10 0 0 -1.7425367252e-10 0 0 -1.7425367252e-10 
0 0 -1.7425367252e-10 0 0 -1.7425367252e-10 0 0 -1.7425367252e-10 
0 0 -1.7425367252e-10 0 0 -1.7425367252e-10 0 0 -1.7425367252e-10 
0 0 -1.7425367252e-10 0 0 -1.7425367252e-10 0 0 -8.9019973083e-09 
0 0 -1.7425367252e-10 0 0 -1.7425367252e-10 0 0 -1.7425367252e-10 
0 0 -1.7425367252e-10 0 0 -1.7425367252e-10 0 0 -1.7425367252e-10 
0 0 -1.7425367252e-10 0 0 -1.7425367252e-10 0 0 -1.7425367252e-10 
0 0 -1.7425367252e-10 0 0 -1.7425367252e-10 0 0 -8.9019973083e-09 
0 0 -1.7425367252e-10 0 0 -1.7425367252e-10 0 0 -1.7425367252e-10 
0 0 -1.7425367252e-10 0 0 -1.7425367252e-10 0 0 -1.7425367252e-10 
0 0 -1.7425367252e-10 0 0 -1.7425367252e-10 0 0 -1.7425367252e-10 
0 0 -1.7425367252e-10 0 0 -1.7425367252e-10 0 0 -1.7425367252e-10 
0 0 -1.7425367252e-10 0 0 -1.7425367252e-10 0 0 -6.8918688838e-08 
0 0 -1.7425367252e-10 0 0 -1.7425367252e-10 0 0 -8.9019973083e-09 
0 0 -1.7425367252e-10 0 0 -1.7425367252e-10 0 0 -1.7425367252e-10 
0 0 -1.7425367252e-10 0 0 -1.7425367252e-10 0 0 -1.7425367252e-10 
0 0 -1.7425367252e-10 0 0 -1.7425367252e-10 0 0 -1.7425367252e-10 
0 0 -1.7425367252e-10 0 0 -1.7425367252e-10 0 0 -1.7425367252e-10 
0 0 -1.7425367252e-10 0 0 -1.7425367252e-10 0 0 -1.7425367252e-10 
0 0 -1.7425367252e-10 0 0 -1.7425367252e-10 0 0 -1.7425367252e-10 
0 0 -1.7425367252e-10 0 0 -1.7425367252e-10 0 0 -1.7425367252e-10 
0 0 -1.7425367252e-10 0 0 -1.7425367252e-10 0 0 -1.7425367252e-10 
0 0 -1.7425367252e-10 0 0 -1.7425367252e-10 0 0 -1.7425367252e-10 
0 0 -1.7425367252e-10 0 0 -1.7425367252e-10 0 0 -1.7425367252e-10 
0 0 -1.7425367252e-10 0 0 -1.7425367252e-10 0 0 -1.7425367252e-10 
0 0 -1.7425367252e-10 0 0 -1.7425367252e-10 0 0 -1.7425367252e-10 
0 0 -1.7425367252e-10 0 0 -1.7425367252e-10 0 0 -1.7425367252e-10 
0 0 -1.7425367252e-10 0 0 -1.7425367252e-10 0 0 -1.7425367252e-10 
0 0 -1.7425367252e-10 0 0 -8.9019973083e-09 0 0 -1.7425367252e-10 
0 0 -1.7425367252e-10 0 0 -1.7425367252e-10 0 0 -1.7425367252e-10 
0 0 -1.7425367252e-10 0 0 -1.7425367252e-10 0 0 -1.7425367252e-10 
0 0 -1.7425367252e-10 0 0 -1.7425367252e-10 0 0 -1.7425367252e-10 
0 0 -1.7425367252e-10 0 0 -1.7425367252e-10 0 0 -1.7425367252e-10 
0 0 -1.7425367252e-10 0 0 -1.7425367252e-10 0 0 -1.7425367252e-10 
0 0 -1.7425367252e-10 0 0 -1.7425367252e-10 0 0 -1.7425367252e-10 
0 0 -1.7425367252e-10 0 0 -1.7425367252e-10 0 0 -1.7425367252e-10 
0 0 -1.7425367252e-10 0 0 -1.7425367252e-10 0 0 -1.7425367252e-10 
0 0 -1.7425367252e-10 0 0 -1.7425367252e-10 0 0 -1.7425367252e-10 
0 0 -1.7425367252e-10 0 0 -1.7425367252e-10 0 0 -1.7425367252e-10 
0 0 -1.7425367252e-10 0 0 -1.7425367252e-10 0 0 -1.7425367252e-10 
0 0 -1.7425367252e-10 0 0 -1.7425367252e-10 0 0 -1.7425367252e-10 
0 0 -1.7425367252e-10 0 0 -1.7425367252e-10 0 0 -1.7425367252e-10 
0 0 -1.7425367252e-10 0 0 -1.7425367252e-10 0 0 -1.7425367252e-10 
0 0 -1.7425367252e-10 0 0 -1.7425367252e-10 0 0 -1.7425367252e-10 
0 0 -1.7425367252e-10 0 0 -1.7425367252e-10 0 0 -1.7425367252e-10 
0 0 -1.7425367252e-10 0 0 -1.7425367252e-10 0 0 -1.7425367252e-10 
0 0 -1.7425367252e-10 0 0 -1.7425367252e-10 0 0 -1.7425367252e-10 
0 0 -1.7425367252e-10 0 0 -1.7425367252e-10 0 0 -1.7425367252e-10 
0 0 -1.7425367252e-10 0 0 -1.7425367252e-10 0 0 -1.7425367252e-10 
0 0 -1.7425367252e-10 0 0 -1.7425367252e-10 0 0 -1.7425367252e-10 
0 0 -1.7425367252e-10 0 0 -1.7425367252e-10 0 0 -1.7425367252e-10 
0 0 -1.7425367252e-10 0 0 -1.7425367252e-10 0 0 -1.7425367252e-10 
0 0 -1.7425367252e-10 0 0 -1.7425367252e-10 0 0 -1.7425367252e-10 
0 0 -1.7425367252e-10 0 0 -1.7425367252e-10 0 0 -1.7425367252e-10 
0 0 -1.7425367252e-10 0 0 -1.7425367252e-10 0 0 -1.7425367252e-10 
0 0 -1.7425367252e-10 0 0 -1.7425367252e-10 0 0 -1.7425367252e-10 
0 0 -1.7425367252e-10 0 0 -1.7425367252e-10 0 0 -1.7425367252e-10 
0 0 -1.7425367252e-10 0 0 -1.7425367252e-10 0 0 -1.7425367252e-10 
0 0 -1.7425367252e-10 0 0 -1.7425367252e-10 0 0 -1.7425367252e-10 
0 0 -1.7425367252e-10 0 0 -1.7425367252e-10 0 0 -1.7425367252e-10 
0 0 -1.7425367252e-10 0 0 -1.7425367252e-10 0 0 -1.7425367252e-10 
0 0 -1.7425367252e-10 0 0 -1.7425367252e-10 0 0 -1.7425367252e-10 
0 0 -1.7425367252e-10 0 0 -1.7425367252e-10 0 0 -1.7425367252e-10 
0 0 -1.7425367252e-10 0 0 -1.7425367252e-10 0 0 -1.7425367252e-10 
0 0 -1.7425367252e-10 0 0 -1.7425367252e-10 0 0 -1.7425367252e-10 
0 0 -1.7425367252e-10 0 0 -1.7425367252e-10 0 0 -1.7425367252e-10 
0 0 -1.7425367252e-10 0 0 -1.7425367252e-10 0 0 -1.7425367252e-10 
0 0 -1.7425367252e-10 0 0 -1.7425367252e-10 0 0 -1.7425367252e-10 
0 0 -1.7425367252e-10 0 0 -1.7425367252e-10 0 0 -1.7425367252e-10 
0 0 -1.7425367252e-10 0 0 -1.7425367252e-10 0 0 -1.7425367252e-10 
0 0 -1.7425367252e-10 0 0 -1.7425367252e-10 0 0 -1.7425367252e-10 
0 0 -1.7425367252e-10 0 0 -1.7425367252e-10 0 0 -1.7425367252e-10 
0 0 -1.7425367252e-10 0 0 -1.7425367252e-10 0 0 -1.7425367252e-10 
0 0 -1.7425367252e-10 0 0 -1.7425367252e-10 0 0 -1.7425367252e-10 
0 0 -1.7425367252e-10 0 0 -1.7425367252e-10 0 0 -1.7425367252e-10 
0 0 -1.7425367252e-10 0 0 -5.3297119368e-07 0 0 -1.7425367252e-10 
0 0 -1.7425367252e-10 0 0 -1.7425367252e-10 0 0 -1.7425367252e-10 
0 0 -1.7425367252e-10 0 0 -1.7425367252e-10 0 0 -1.7425367252e-10 
0 0 -1.7425367252e-10 0 0 -1.7425367252e-10 0 0 -1.7425367252e-10 
0 0 -1.7425367252e-10 0 0 -1.7425367252e-10 0 0 -1.7425367252e-10 
0 0 -1.7425367252e-10 0 0 -1.7425367252e-10 0 0 -1.7425367252e-10 
0 0 -1.7425367252e-10 0 0 -1.7425367252e-10 0 0 -1.7425367252e-10 
0 0 -1.7425367252e-10 0 0 -1.7425367252e-10 0 0 -1.7425367252e-10 
0 0 -1.7425367252e-10 0 0 -1.7425367252e-10 0 0 -1.7425367252e-10 
0 0 -1.7425367252e-10 0 0 -1.7425367252e-10 0 0 -1.7425367252e-10 
0 0 -1.7425367252e-10 0 0 -1.7425367252e-10 0 0 -1.7425367252e-10 
0 0 -1.7425367252e-10 0 0 -1.7425367252e-10 0 0 -1.7425367252e-10 
0 0 -1.7425367252e-10 0 0 -1.7425367252e-10 0 0 -1.7425367252e-10 
0 0 -1.7425367252e-10 0 0 -1.7425367252e-10 0 0 -1.7425367252e-10 
0 0 -1.7425367252e-10 0 0 -8.9019973083e-09 0 0 -1.7425367252e-10 
0 0 -1.7425367252e-10 0 0 -1.7425367252e-10 0 0 -1.7425367252e-10 
0 0 -1.7425367252e-10 0 0 -1.7425367252e-10 0 0 -1.7425367252e-10 
0 0 -1.7425367252e-10 0 0 -1.7425367252e-10 0 0 -1.7425367252e-10 
0 0 -1.7425367252e-10 0 0 -1.7425367252e-10 0 0 -1.7425367252e-10 
0 0 -1.7425367252e-10 0 0 -1.7425367252e-10 0 0 -1.7425367252e-10 
0 0 -1.7425367252e-10 0 0 -1.7425367252e-10 0 0 -1.7425367252e-10 
0 0 -1.7425367252e-10 0 0 -8.9019973083e-09 0 0 -1.7425367252e-10 
0 0 -1.7425367252e-10 0 0 -1.7425367252e-10 0 0 -1.7425367252e-10 
0 0 -1.7425367252e-10 0 0 -1.7425367252e-10 0 0 -1.7425367252e-10 
0 0 -1.7425367252e-10 0 0 -1.7425367252e-10 0 0 -1.7425367252e-10 
0 0 -1.7425367252e-10 0 0 -1.7425367252e-10 0 0 -1.7425367252e-10 
0 0 -1.7425367252e-10 0 0 -1.7425367252e-10 0 0 -1.7425367252e-10 
0 0 -1.7425367252e-10 0 0 -1.7425367252e-10 0 0 -1.7425367252e-10 
0 0 -1.7425367252e-10 0 0 -1.7425367252e-10 0 0 -1.7425367252e-10 
0 0 -1.7425367252e-10 0 0 -1.7425367252e-10 0 0 -1.7425367252e-10 
0 0 -1.7425367252e-10 0 0 -1.7425367252e-10 0 0 -1.7425367252e-10 
0 0 -1.7425367252e-10 0 0 -1.7425367252e-10 0 0 -1.7425367252e-10 
0 0 -1.7425367252e-10 0 0 -1.7425367252e-10 0 0 -1.7425367252e-10 
0 0 -1.7425367252e-10 0 0 -1.7425367252e-10 0 0 -1.7425367252e-10 
0 0 -1.7425367252e-10 0 0 -1.7425367252e-10 0 0 -1.7425367252e-10 
0 0 -1.7425367252e-10 0 0 -1.7425367252e-10 0 0 -1.7425367252e-10 
0 0 -1.7425367252e-10 0 0 -1.7425367252e-10 0 0 -1.7425367252e-10 
0 0 -1.7425367252e-10 0 0 -1.7425367252e-10 0 0 -1.7425367252e-10 
0 0 -1.7425367252e-10 0 0 -1.7425367252e-10 0 0 -1.7425367252e-10 
0 0 -1.7425367252e-10 0 0 -1.7425367252e-10 0 0 -1.7425367252e-10 
0 0 -1.7425367252e-10 0 0 -1.7425367252e-10 0 0 -1.7425367252e-10 
0 0 -1.7425367252e-10 0 0 -1.7425367252e-10 0 0 -1.7425367252e-10 
0 0 -1.7425367252e-10 0 0 -1.7425367252e-10 0 0 -1.7425367252e-10 
0 0 -1.7425367252e-10 0 0 -1.7425367252e-10 0 0 -1.7425367252e-10 
0 0 -1.7425367252e-10 0 0 -1.7425367252e-10 0 0 -1.7425367252e-10 
0 0 -1.7425367252e-10 0 0 -1.7425367252e-10 0 0 -1.7425367252e-10 
0 0 -1.7425367252e-10 0 0 -1.7425367252e-10 0 0 -1.7425367252e-10 
0 0 -1.7425367252e-10 0 0 -1.7425367252e-10 0 0 -1.7425367252e-10 
0 0 -1.7425367252e-10 0 0 -1.7425367252e-10 0 0 -1.7425367252e-10 
0 0 -1.7425367252e-10 0 0 -1.7425367252e-10 0 0 -1.7425367252e-10 
0 0 -1.7425367252e-10 0 0 -1.7425367252e-10 0 0 -1.7425367252e-10 
0 0 -1.7425367252e-10 0 0 -1.7425367252e-10 0 0 -1.7425367252e-10 
0 0 -1.7425367252e-10 0 0 -1.7425367252e-10 0 0 -1.7425367252e-10 
0 0 -1.7425367252e-10 
radius 1 505 double
2e-05 7.5e-05 2e-05 2e-05 2e-05 2e-05 2e-05 2e-05 2e-05 
2e-05 2e-05 2e-05 2e-05 2e-05 2e-05 2e-05 2e-05 2e-05 
2e-05 2e-05 2e-05 2e-05 2e-05 2e-05 2e-05 2e-05 2e-05 
2e-05 7.5e-05 2e-05 2e-05 7.5e-05 2e-05 2e-05 2e-05 2e-05 
2e-05 2e-05 2e-05 2e-05 2e-05 2e-05 2e-05 2e-05 2e-05 
2e-05 2e-05 2e-05 2e-05 2e-05 2e-05 2e-05 2e-05 2e-05 
2e-05 2e-05 2e-05 2e-05 2e-05 2e-05 2e-05 7.5e-05 2e-05 
2e-05 2e-05 2e-05 2e-05 2e-05 7.5e-05 2e-05 2e-05 2e-05 
2e-05 2e-05 2e-05 2e-05 2e-05 2e-05 2e-05 2e-05 2e-05 
2e-05 2e-05 2e-05 2e-05 2e-05 2e-05 7.5e-05 7.5e-05 2e-05 
2e-05 2e-05 2e-05 2e-05 2e-05 2e-05 2e-05 2e-05 2e-05 
2e-05 2e-05 7.5e-05 2e-05 2e-05 2e-05 2e-05 2e-05 2e-05 
2e-05 2e-05 2e-05 2e-05 2e-05 2e-05 2e-05 2e-05 2e-05 
2e-05 2e-05 2e-05 2e-05 2e-05 2e-05 2e-05 2e-05 2e-05 
2e-05 2e-05 2e-05 2e-05 2e-05 7.5e-05 2e-05 2e-05 2e-05 
2e-05 2e-05 2e-05 2e-05 2e-05 2e-05 2e-05 2e-05 7.5e-05 
2e-05 2e-05 2e-05 2e-05 2e-05 2e-05 2e-05 2e-05 2e-05 
2e-05 2e-05 2e-05 2e-05 2e-05 0.00015 2e-05 2e-05 7.5e-05 
2e-05 2e-05 2e-05 2e-05 2e-05 2e-05 2e-05 2e-05 2e-05 
2e-05 2e-05 2e-05 2e-05 2e-05 2e-05 2e-05 2e-05 2e-05 
2e-05 2e-05 2e-05 2e-05 2e-05 2e-05 2e-05 2e-05 2e-05 
2e-05 2e-05 2e-05 2e-05 2e-05 2e-05 2e-05 2e-05 2e-05 
2e-05 2e-05 2e-05 2e-05 2e-05 2e-05 2e-05 7.5e-05 2e-05 
2e-05 2e-05 2e-05 2e-05 2e-05 2e-05 2e-05 2e-05 2e-05 
2e-05 2e-05 2e-05 2e-05 2e-05 2e-05 2e-05 2e-05 2e-05 
2e-05 2e-05 2e-05 2e-05 2e-05 2e-05 2e-05 2e-05 2e-05 
2e-05 2e-05 2e-05 2e-05 2e-05 2e-05 2e-05 2e-05 2e-05 
2e-05 2e-05 2e-05 2e-05 2e-05 2e-05 2e-05 2e-05 2e-05 
2e-05 2e-05 2e-05 2e-05 2e-05 2e-05 2e-05 2e-05 2e-05 
2e-05 2e-05 2e-05 2e-05 2e-05 2e-05 2e-05 2e-05 2e-05 
2e-05 2e-05 2e-05 2e-05 2e-05 2e-05 2e-05 2e-05 2e-05 
2e-05 2e-05 2e-05 2e-05 2e-05 2e-05 2e-05 2e-05 2e-05 
2e-05 2e-05 2e-05 2e-05 2e-05 2e-05 2e-05 2e-05 2e-05 
2e-05 2e-05 2e-05 2e-05 2e-05 2e-05 2e-05 2e-05 2e-05 
2e-05 2e-05 2e-05 2e-05 2e-05 2e-05 2e-05 2e-05 2e-05 
2e-05 2e-05 2e-05 2e-05 2e-05 2e-05 2e-05 2e-05 2e-05 
2e-05 2e-05 2e-05 2e-05 2e-05 2e-05 2e-05 2e-05 2e-05 
2e-05 2e-05 2e-05 2e-05 2e-05 2e-05 2e-05 2e-05 2e-05 
2e-05 2e-05 2e-05 2e-05 0.0003 2e-05 2e-05 2e-05 2e-05 
2e-05 2e-05 2e-05 2e-05 2e-05 2e-05 2e-05 2e-05 2e-05 
2e-05 2e-05 2e-05 2e-05 2e-05 2e-05 2e-05 2e-05 2e-05 
2e-05 2e-05 2e-05 2e-05 2e-05 2e-05 2e-05 2e-05 2e-05 
2e-05 2e-05 2e-05 2e-05 2e-05 2e-05 2e-05 2e-05 2e-05 
2e-05 7.5e-05 2e-05 2e-05 2e-05 2e-05 2e-05 2e-05 2e-05 
2e-05 2e-05 2e-05 2e-05 2e-05 2e-05 2e-05 2e-05 2e-05 
2e-05 2e-05 2e-05 2e-05 7.5e-05 2e-05 2e-05 2e-05 2e-05 
2e-05 2e-05 2e-05 2e-05 2e-05 2e-05 2e-05 2e-05 2e-05 
2e-05 2e-05 2e-05 2e-05 2e-05 2e-05 2e-05 2e-05 2e-05 
2e-05 2e-05 2e-05 2e-05 2e-05 2e-05 2e-05 2e-05 2e-05 
2e-05 2e-05 2e-05 2e-05 2e-05 2e-05 2e-05 2e-05 2e-05 
2e-05 2e-05 2e-05 2e-05 2e-05 2e-05 2e-05 2e-05 2e-05 
2e-05 2e-05 2e-05 2e-05 2e-05 2e-05 2e-05 2e-05 2e-05 
2e-05 2e-05 2e-05 2e-05 2e-05 2e-05 2e-05 2e-05 2e-05 
2e-05 2e-05 2e-05 2e-05 2e-05 2e-05 2e-05 2e-05 2e-05 
2e-05 2e-05 2e-05 2e-05 2e-05 2e-05 2e-05 2e-05 2e-05 
2e-05 2e-05 2e-05 2e-05 2e-05 2e-05 2e-05 2e-05 2e-05 
2e-05 
omega 3 505 double
0 0 0 0 0 0 0 0 0 
0 0 0 0 0 0 0 0 0 
0 0 0 0 0 0 0 0 0 
0 0 0 0 0 0 0 0 0 
0 0 0 0 0 0 0 0 0 
0 0 0 0 0 0 0 0 0 
0 0 0 0 0 0 0 0 0 
0 0 0 0 0 0 0 0 0 
0 0 0 0 0 0 0 0 0 
0 0 0 0 0 0 0 0 0 
0 0 0 0 0 0 0 0 0 
0 0 0 0 0 0 0 0 0 
0 0 0 0 0 0 0 0 0 
0 0 0 0 0 0 0 0 0 
0 0 0 0 0 0 0 0 0 
0 0 0 0 0 0 0 0 0 
0 0 0 0 0 0 0 0 0 
0 0 0 0 0 0 0 0 0 
0 0 0 0 0 0 0 0 0 
0 0 0 0 0 0 0 0 0 
0 0 0 0 0 0 0 0 0 
0 0 0 0 0 0 0 0 0 
0 0 0 0 0 0 0 0 0 
0 0 0 0 0 0 0 0 0 
0 0 0 0 0 0 0 0 0 
0 0 0 0 0 0 0 0 0 
0 0 0 0 0 0 0 0 0 
0 0 0 0 0 0 0 0 0 
0 0 0 0 0 0 0 0 0 
0 0 0 0 0 0 0 0 0 
0 0 0 0 0 0 0 0 0 
0 0 0 0 0 0 0 0 0 
0 0 0 0 0 0 0 0 0 
0 0 0 0 0 0 0 0 0 
0 0 0 0 0 0 0 0 0 
0 0 0 0 0 0 0 0 0 
0 0 0 0 0 0 0 0 0 
0 0 0 0 0 0 0 0 0 
0 0 0 0 0 0 0 0 0 
0 0 0 0 0 0 0 0 0 
0 0 0 0 0 0 0 0 0 
0 0 0 0 0 0 0 0 0 
0 0 0 0 0 0 0 0 0 
0 0 0 0 0 0 0 0 0 
0 0 0 0 0 0 0 0 0 
0 0 0 0 0 0 0 0 0 
0 0 0 0 0 0 0 0 0 
0 0 0 0 0 0 0 0 0 
0 0 0 0 0 0 0 0 0 
0 0 0 0 0 0 0 0 0 
0 0 0 0 0 0 0 0 0 
0 0 0 0 0 0 0 0 0 
0 0 0 0 0 0 0 0 0 
0 0 0 0 0 0 0 0 0 
0 0 0 0 0 0 0 0 0 
0 0 0 0 0 0 0 0 0 
0 0 0 0 0 0 0 0 0 
0 0 0 0 0 0 0 0 0 
0 0 0 0 0 0 0 0 0 
0 0 0 0 0 0 0 0 0 
0 0 0 0 0 0 0 0 0 
0 0 0 0 0 0 0 0 0 
0 0 0 0 0 0 0 0 0 
0 0 0 0 0 0 0 0 0 
0 0 0 0 0 0 0 0 0 
0 0 0 0 0 0 0 0 0 
0 0 0 0 0 0 0 0 0 
0 0 0 0 0 0 0 0 0 
0 0 0 0 0 0 0 0 0 
0 0 0 0 0 0 0 0 0 
0 0 0 0 0 0 0 0 0 
0 0 0 0 0 0 0 0 0 
0 0 0 0 0 0 0 0 0 
0 0 0 0 0 0 0 0 0 
0 0 0 0 0 0 0 0 0 
0 0 0 0 0 0 0 0 0 
0 0 0 0 0 0 0 0 0 
0 0 0 0 0 0 0 0 0 
0 0 0 0 0 0 0 0 0 
0 0 0 0 0 0 0 0 0 
0 0 0 0 0 0 0 0 0 
0 0 0 0 0 0 0 0 0 
0 0 0 0 0 0 0 0 0 
0 0 0 0 0 0 0 0 0 
0 0 0 0 0 0 0 0 0 
0 0 0 0 0 0 0 0 0 
0 0 0 0 0 0 0 0 0 
0 0 0 0 0 0 0 0 0 
0 0 0 0 0 0 0 0 0 
0 0 0 0 0 0 0 0 0 
0 0 0 0 0 0 0 0 0 
0 0 0 0 0 0 0 0 0 
0 0 0 0 0 0 0 0 0 
0 0 0 0 0 0 0 0 0 
0 0 0 0 0 0 0 0 0 
0 0 0 0 0 0 0 0 0 
0 0 0 0 0 0 0 0 0 
0 0 0 0 0 0 0 0 0 
0 0 0 0 0 0 0 0 0 
0 0 0 0 0 0 0 0 0 
0 0 0 0 0 0 0 0 0 
0 0 0 0 0 0 0 0 0 
0 0 0 0 0 0 0 0 0 
0 0 0 0 0 0 0 0 0 
0 0 0 0 0 0 0 0 0 
0 0 0 0 0 0 0 0 0 
0 0 0 0 0 0 0 0 0 
0 0 0 0 0 0 0 0 0 
0 0 0 0 0 0 0 0 0 
0 0 0 0 0 0 0 0 0 
0 0 0 0 0 0 0 0 0 
0 0 0 0 0 0 0 0 0 
0 0 0 0 0 0 0 0 0 
0 0 0 0 0 0 0 0 0 
0 0 0 0 0 0 0 0 0 
0 0 0 0 0 0 0 0 0 
0 0 0 0 0 0 0 0 0 
0 0 0 0 0 0 0 0 0 
0 0 0 0 0 0 0 0 0 
0 0 0 0 0 0 0 0 0 
0 0 0 0 0 0 0 0 0 
0 0 0 0 0 0 0 0 0 
0 0 0 0 0 0 0 0 0 
0 0 0 0 0 0 0 0 0 
0 0 0 0 0 0 0 0 0 
0 0 0 0 0 0 0 0 0 
0 0 0 0 0 0 0 0 0 
0 0 0 0 0 0 0 0 0 
0 0 0 0 0 0 0 0 0 
0 0 0 0 0 0 0 0 0 
0 0 0 0 0 0 0 0 0 
0 0 0 0 0 0 0 0 0 
0 0 0 0 0 0 0 0 0 
0 0 0 0 0 0 0 0 0 
0 0 0 0 0 0 0 0 0 
0 0 0 0 0 0 0 0 0 
0 0 0 0 0 0 0 0 0 
0 0 0 0 0 0 0 0 0 
0 0 0 0 0 0 0 0 0 
0 0 0 0 0 0 0 0 0 
0 0 0 0 0 0 0 0 0 
0 0 0 0 0 0 0 0 0 
0 0 0 0 0 0 0 0 0 
0 0 0 0 0 0 0 0 0 
0 0 0 0 0 0 0 0 0 
0 0 0 0 0 0 0 0 0 
0 0 0 0 0 0 0 0 0 
0 0 0 0 0 0 0 0 0 
0 0 0 0 0 0 0 0 0 
0 0 0 0 0 0 0 0 0 
0 0 0 0 0 0 0 0 0 
0 0 0 0 0 0 0 0 0 
0 0 0 0 0 0 0 0 0 
0 0 0 0 0 0 0 0 0 
0 0 0 0 0 0 0 0 0 
0 0 0 0 0 0 0 0 0 
0 0 0 0 0 0 0 0 0 
0 0 0 0 0 0 0 0 0 
0 0 0 0 0 0 0 0 0 
0 0 0 0 0 0 0 0 0 
0 0 0 0 0 0 0 0 0 
0 0 0 0 0 0 0 0 0 
0 0 0 0 0 0 0 0 0 
0 0 0 0 0 0 0 0 0 
0 0 0 0 0 0 0 0 0 
0 0 0 0 0 0 0 0 0 
0 0 0 0 0 0 0 0 0 
0 0 0 0 0 0 0 0 0 
0 0 0 
fx_mag_viz 1 505 double
0 0 0 0 0 0 0 0 0 
0 0 0 0 0 0 0 0 0 
0 0 0 0 0 0 0 0 0 
0 0 0 0 0 0 0 0 0 
0 0 0 0 0 0 0 0 0 
0 0 0 0 0 0 0 0 0 
0 0 0 0 0 0 0 0 0 
0 0 0 0 0 0 0 0 0 
0 0 0 0 0 0 0 0 0 
0 0 0 0 0 0 0 0 0 
0 0 0 0 0 0 0 0 0 
0 0 0 0 0 0 0 0 0 
0 0 0 0 0 0 0 0 0 
0 0 0 0 0 0 0 0 0 
0 0 0 0 0 0 0 0 0 
0 0 0 0 0 0 0 0 0 
0 0 0 0 0 0 0 0 0 
0 0 0 0 0 0 0 0 0 
0 0 0 0 0 0 0 0 0 
0 0 0 0 0 0 0 0 0 
0 0 0 0 0 0 0 0 0 
0 0 0 0 0 0 0 0 0 
0 0 0 0 0 0 0 0 0 
0 0 0 0 0 0 0 0 0 
0 0 0 0 0 0 0 0 0 
0 0 0 0 0 0 0 0 0 
0 0 0 0 0 0 0 0 0 
0 0 0 0 0 0 0 0 0 
0 0 0 0 0 0 0 0 0 
0 0 0 0 0 0 0 0 0 
0 0 0 0 0 0 0 0 0 
0 0 0 0 0 0 0 0 0 
0 0 0 0 0 0 0 0 0 
0 0 0 0 0 0 0 0 0 
0 0 0 0 0 0 0 0 0 
0 0 0 0 0 0 0 0 0 
0 0 0 0 0 0 0 0 0 
0 0 0 0 0 0 0 0 0 
0 0 0 0 0 0 0 0 0 
0 0 0 0 0 0 0 0 0 
0 0 0 0 0 0 0 0 0 
0 0 0 0 0 0 0 0 0 
0 0 0 0 0 0 0 0 0 
0 0 0 0 0 0 0 0 0 
0 0 0 0 0 0 0 0 0 
0 0 0 0 0 0 0 0 0 
0 0 0 0 0 0 0 0 0 
0 0 0 0 0 0 0 0 0 
0 0 0 0 0 0 0 0 0 
0 0 0 0 0 0 0 0 0 
0 0 0 0 0 0 0 0 0 
0 0 0 0 0 0 0 0 0 
0 0 0 0 0 0 0 0 0 
0 0 0 0 0 0 0 0 0 
0 0 0 0 0 0 0 0 0 
0 0 0 0 0 0 0 0 0 
0 
fy_mag_viz 1 505 double
0 0 0 0 0 0 0 0 0 
0 0 0 0 0 0 0 0 0 
0 0 0 0 0 0 0 0 0 
0 0 0 0 0 0 0 0 0 
0 0 0 0 0 0 0 0 0 
0 0 0 0 0 0 0 0 0 
0 0 0 0 0 0 0 0 0 
0 0 0 0 0 0 0 0 0 
0 0 0 0 0 0 0 0 0 
0 0 0 0 0 0 0 0 0 
0 0 0 0 0 0 0 0 0 
0 0 0 0 0 0 0 0 0 
0 0 0 0 0 0 0 0 0 
0 0 0 0 0 0 0 0 0 
0 0 0 0 0 0 0 0 0 
0 0 0 0 0 0 0 0 0 
0 0 0 0 0 0 0 0 0 
0 0 0 0 0 0 0 0 0 
0 0 0 0 0 0 0 0 0 
0 0 0 0 0 0 0 0 0 
0 0 0 0 0 0 0 0 0 
0 0 0 0 0 0 0 0 0 
0 0 0 0 0 0 0 0 0 
0 0 0 0 0 0 0 0 0 
0 0 0 0 0 0 0 0 0 
0 0 0 0 0 0 0 0 0 
0 0 0 0 0 0 0 0 0 
0 0 0 0 0 0 0 0 0 
0 0 0 0 0 0 0 0 0 
0 0 0 0 0 0 0 0 0 
0 0 0 0 0 0 0 0 0 
0 0 0 0 0 0 0 0 0 
0 0 0 0 0 0 0 0 0 
0 0 0 0 0 0 0 0 0 
0 0 0 0 0 0 0 0 0 
0 0 0 0 0 0 0 0 0 
0 0 0 0 0 0 0 0 0 
0 0 0 0 0 0 0 0 0 
0 0 0 0 0 0 0 0 0 
0 0 0 0 0 0 0 0 0 
0 0 0 0 0 0 0 0 0 
0 0 0 0 0 0 0 0 0 
0 0 0 0 0 0 0 0 0 
0 0 0 0 0 0 0 0 0 
0 0 0 0 0 0 0 0 0 
0 0 0 0 0 0 0 0 0 
0 0 0 0 0 0 0 0 0 
0 0 0 0 0 0 0 0 0 
0 0 0 0 0 0 0 0 0 
0 0 0 0 0 0 0 0 0 
0 0 0 0 0 0 0 0 0 
0 0 0 0 0 0 0 0 0 
0 0 0 0 0 0 0 0 0 
0 0 0 0 0 0 0 0 0 
0 0 0 0 0 0 0 0 0 
0 0 0 0 0 0 0 0 0 
0 
fz_mag_viz 1 505 double
0 0 0 0 0 0 0 0 0 
0 0 0 0 0 0 0 0 0 
0 0 0 0 0 0 0 0 0 
0 0 0 0 0 0 0 0 0 
0 0 0 0 0 0 0 0 0 
0 0 0 0 0 0 0 0 0 
0 0 0 0 0 0 0 0 0 
0 0 0 0 0 0 0 0 0 
0 0 0 0 0 0 0 0 0 
0 0 0 0 0 0 0 0 0 
0 0 0 0 0 0 0 0 0 
0 0 0 0 0 0 0 0 0 
0 0 0 0 0 0 0 0 0 
0 0 0 0 0 0 0 0 0 
0 0 0 0 0 0 0 0 0 
0 0 0 0 0 0 0 0 0 
0 0 0 0 0 0 0 0 0 
0 0 0 0 0 0 0 0 0 
0 0 0 0 0 0 0 0 0 
0 0 0 0 0 0 0 0 0 
0 0 0 0 0 0 0 0 0 
0 0 0 0 0 0 0 0 0 
0 0 0 0 0 0 0 0 0 
0 0 0 0 0 0 0 0 0 
0 0 0 0 0 0 0 0 0 
0 0 0 0 0 0 0 0 0 
0 0 0 0 0 0 0 0 0 
0 0 0 0 0 0 0 0 0 
0 0 0 0 0 0 0 0 0 
0 0 0 0 0 0 0 0 0 
0 0 0 0 0 0 0 0 0 
0 0 0 0 0 0 0 0 0 
0 0 0 0 0 0 0 0 0 
0 0 0 0 0 0 0 0 0 
0 0 0 0 0 0 0 0 0 
0 0 0 0 0 0 0 0 0 
0 0 0 0 0 0 0 0 0 
0 0 0 0 0 0 0 0 0 
0 0 0 0 0 0 0 0 0 
0 0 0 0 0 0 0 0 0 
0 0 0 0 0 0 0 0 0 
0 0 0 0 0 0 0 0 0 
0 0 0 0 0 0 0 0 0 
0 0 0 0 0 0 0 0 0 
0 0 0 0 0 0 0 0 0 
0 0 0 0 0 0 0 0 0 
0 0 0 0 0 0 0 0 0 
0 0 0 0 0 0 0 0 0 
0 0 0 0 0 0 0 0 0 
0 0 0 0 0 0 0 0 0 
0 0 0 0 0 0 0 0 0 
0 0 0 0 0 0 0 0 0 
0 0 0 0 0 0 0 0 0 
0 0 0 0 0 0 0 0 0 
0 0 0 0 0 0 0 0 0 
0 0 0 0 0 0 0 0 0 
0 
B_magnitude 1 505 double
0 0 0 0 0 0 0 0 0 
0 0 0 0 0 0 0 0 0 
0 0 0 0 0 0 0 0 0 
0 0 0 0 0 0 0 0 0 
0 0 0 0 0 0 0 0 0 
0 0 0 0 0 0 0 0 0 
0 0 0 0 0 0 0 0 0 
0 0 0 0 0 0 0 0 0 
0 0 0 0 0 0 0 0 0 
0 0 0 0 0 0 0 0 0 
0 0 0 0 0 0 0 0 0 
0 0 0 0 0 0 0 0 0 
0 0 0 0 0 0 0 0 0 
0 0 0 0 0 0 0 0 0 
0 0 0 0 0 0 0 0 0 
0 0 0 0 0 0 0 0 0 
0 0 0 0 0 0 0 0 0 
0 0 0 0 0 0 0 0 0 
0 0 0 0 0 0 0 0 0 
0 0 0 0 0 0 0 0 0 
0 0 0 0 0 0 0 0 0 
0 0 0 0 0 0 0 0 0 
0 0 0 0 0 0 0 0 0 
0 0 0 0 0 0 0 0 0 
0 0 0 0 0 0 0 0 0 
0 0 0 0 0 0 0 0 0 
0 0 0 0 0 0 0 0 0 
0 0 0 0 0 0 0 0 0 
0 0 0 0 0 0 0 0 0 
0 0 0 0 0 0 0 0 0 
0 0 0 0 0 0 0 0 0 
0 0 0 0 0 0 0 0 0 
0 0 0 0 0 0 0 0 0 
0 0 0 0 0 0 0 0 0 
0 0 0 0 0 0 0 0 0 
0 0 0 0 0 0 0 0 0 
0 0 0 0 0 0 0 0 0 
0 0 0 0 0 0 0 0 0 
0 0 0 0 0 0 0 0 0 
0 0 0 0 0 0 0 0 0 
0 0 0 0 0 0 0 0 0 
0 0 0 0 0 0 0 0 0 
0 0 0 0 0 0 0 0 0 
0 0 0 0 0 0 0 0 0 
0 0 0 0 0 0 0 0 0 
0 0 0 0 0 0 0 0 0 
0 0 0 0 0 0 0 0 0 
0 0 0 0 0 0 0 0 0 
0 0 0 0 0 0 0 0 0 
0 0 0 0 0 0 0 0 0 
0 0 0 0 0 0 0 0 0 
0 0 0 0 0 0 0 0 0 
0 0 0 0 0 0 0 0 0 
0 0 0 0 0 0 0 0 0 
0 0 0 0 0 0 0 0 0 
0 0 0 0 0 0 0 0 0 
0 
B_gradient_mag 1 505 double
0 0 0 0 0 0 0 0 0 
0 0 0 0 0 0 0 0 0 
0 0 0 0 0 0 0 0 0 
0 0 0 0 0 0 0 0 0 
0 0 0 0 0 0 0 0 0 
0 0 0 0 0 0 0 0 0 
0 0 0 0 0 0 0 0 0 
0 0 0 0 0 0 0 0 0 
0 0 0 0 0 0 0 0 0 
0 0 0 0 0 0 0 0 0 
0 0 0 0 0 0 0 0 0 
0 0 0 0 0 0 0 0 0 
0 0 0 0 0 0 0 0 0 
0 0 0 0 0 0 0 0 0 
0 0 0 0 0 0 0 0 0 
0 0 0 0 0 0 0 0 0 
0 0 0 0 0 0 0 0 0 
0 0 0 0 0 0 0 0 0 
0 0 0 0 0 0 0 0 0 
0 0 0 0 0 0 0 0 0 
0 0 0 0 0 0 0 0 0 
0 0 0 0 0 0 0 0 0 
0 0 0 0 0 0 0 0 0 
0 0 0 0 0 0 0 0 0 
0 0 0 0 0 0 0 0 0 
0 0 0 0 0 0 0 0 0 
0 0 0 0 0 0 0 0 0 
0 0 0 0 0 0 0 0 0 
0 0 0 0 0 0 0 0 0 
0 0 0 0 0 0 0 0 0 
0 0 0 0 0 0 0 0 0 
0 0 0 0 0 0 0 0 0 
0 0 0 0 0 0 0 0 0 
0 0 0 0 0 0 0 0 0 
0 0 0 0 0 0 0 0 0 
0 0 0 0 0 0 0 0 0 
0 0 0 0 0 0 0 0 0 
0 0 0 0 0 0 0 0 0 
0 0 0 0 0 0 0 0 0 
0 0 0 0 0 0 0 0 0 
0 0 0 0 0 0 0 0 0 
0 0 0 0 0 0 0 0 0 
0 0 0 0 0 0 0 0 0 
0 0 0 0 0 0 0 0 0 
0 0 0 0 0 0 0 0 0 
0 0 0 0 0 0 0 0 0 
0 0 0 0 0 0 0 0 0 
0 0 0 0 0 0 0 0 0 
0 0 0 0 0 0 0 0 0 
0 0 0 0 0 0 0 0 0 
0 0 0 0 0 0 0 0 0 
0 0 0 0 0 0 0 0 0 
0 0 0 0 0 0 0 0 0 
0 0 0 0 0 0 0 0 0 
0 0 0 0 0 0 0 0 0 
0 0 0 0 0 0 0 0 0 
0 
