# vtk DataFile Version 5.1
Generated by LIGGGHTS
ASCII
DATASET POLYDATA
POINTS 522 float
-0.0308094 -0.0435702 0.0775356 -0.0112192 -0.0104501 0.0778781 0.00743742 -0.00926665 0.0777756 
-0.00433253 -0.00676057 0.0775849 -0.0179231 -0.00300678 0.0775303 -0.042922 -0.0404536 0.0783568 
0.0280204 -0.0311414 0.0784148 0.013874 -0.00963069 0.0788582 -0.0129003 -0.00574839 0.0786368 
0.021602 0.00540593 0.0791076 -0.0214351 0.00957734 0.0783542 -0.0310202 0.0131063 0.0789542 
0.0364634 0.0310238 0.0788854 -0.0264781 0.032823 0.0785831 0.0297434 0.0373158 0.0786758 
-0.0428902 -0.0449088 0.079668 0.00798734 -0.0367051 0.0793954 0.0308099 -0.0378456 0.0805003 
0.000892701 -0.0263701 0.0793144 -0.0257955 -0.0157834 0.0800621 0.0384376 0.000848974 0.0799574 
0.0449494 0.00392273 0.0803368 0.0221269 0.00728552 0.0793352 -0.022709 0.0198803 0.07981 
0.0167463 0.0251763 0.0796326 -0.0390027 0.0421086 0.0798253 0.040047 -0.0404588 0.0817291 
0.0333162 -0.0342631 0.0808089 -0.00444012 -0.0151621 0.0815786 0.0109664 -0.00760095 0.081416 
0.00937085 -0.00418454 0.081156 0.0180565 -0.00487531 0.0812489 -0.0141425 -0.00311887 0.0816347 
0.0123926 0.0218243 0.0817925 0.03506 0.0228899 0.0806375 0.0181332 0.0246356 0.0807117 
-0.0409258 0.0305044 0.0814121 -0.0105296 -0.0314142 0.0821628 -0.0100897 -0.0180162 0.0822684 
-0.0117656 -0.0138394 0.0819563 -0.0198564 -0.00683511 0.0823856 0.0246705 0.0064451 0.0826676 
-0.0426568 0.00723228 0.0827353 0.0212596 0.00979192 0.0826721 0.0143092 0.0139794 0.0823866 
0.0248423 0.0143007 0.0819705 -0.0335565 -0.0442122 0.0842329 0.0156715 -0.0391733 0.0837798 
0.033456 -0.0256735 0.0839524 0.039775 -0.0211058 0.0844197 0.00689113 -0.0107816 0.083177 
0.0350526 -0.0102353 0.0844232 0.021323 -0.00444137 0.0834307 0.0292006 0.00433004 0.0841354 
0.0340899 0.00882812 0.0836894 0.0398091 0.011618 0.0832753 -0.023041 0.0197144 0.0833908 
0.0307708 0.0242663 0.0833915 -0.0200898 0.0311527 0.0836032 -0.0073504 0.0318329 0.0841351 
-0.0248652 -0.040212 0.0854941 -0.00302782 -0.0385948 0.0852044 -0.0266532 -0.0301716 0.0847046 
-0.0388614 -0.0136303 0.0845425 0.00517921 0.0169249 0.0854836 -0.0360536 0.0173104 0.0848581 
0.0090081 0.0191686 0.0851287 -0.00782209 0.0241861 0.0844901 -0.00674967 -0.0416523 0.0870327 
0.0131353 -0.00504642 0.0864289 -0.0260142 0.00017485 0.0866251 8.23501e-07 0.0138406 0.0865933 
0.0215224 0.0171285 0.0864113 -0.0153727 0.020636 0.0868497 0.000162142 0.0251126 0.086056 
-0.00563177 0.0268155 0.0862107 0.0038092 0.0311583 0.0860854 0.01325 0.0319187 0.0858886 
0.0165329 0.0385374 0.0860743 0.00594186 -0.0351889 0.0871723 0.00577088 -0.0287415 0.088249 
-0.0408326 -0.0234295 0.0880779 -0.0108877 -0.0188832 0.0880092 0.00156248 -0.0194187 0.087371 
0.0030191 -0.0179247 0.0876823 0.0286804 -0.00919085 0.0870745 0.0188762 0.00181355 0.0876626 
0.0305447 0.00486582 0.0873605 -0.0287984 0.00559412 0.0877123 -0.0282566 0.021284 0.0876294 
0.0251972 0.0393087 0.0879488 -0.0334706 -0.0396012 0.0893836 0.0336491 -0.0197505 0.0894392 
-0.0339565 -0.0167518 0.089446 -0.0269092 -0.0125643 0.0884952 -0.0214415 -0.007536 0.0891599 
0.00417698 0.0024455 0.0885191 0.0287781 0.014071 0.0889073 -0.0313244 0.0314049 0.0891523 
-0.0240719 -0.0268296 0.0908903 -0.0426154 -0.0165053 0.0905661 0.0223879 -0.0163393 0.0905735 
-0.00702036 -0.00121172 0.0905549 -0.00783961 -0.000387029 0.0909564 -0.00967086 0.00179773 0.0904714 
-0.034865 0.0142961 0.090215 -0.041477 0.0364172 0.0899704 0.0221021 0.0401282 0.0908485 
0.0436787 -0.0219137 0.0919032 0.0277003 -0.0107969 0.0917523 -0.0386663 0.0253433 0.090995 
-0.0267569 0.0263983 0.091433 0.0414821 -0.0410789 0.0926474 -0.0232422 -0.0321576 0.0925605 
0.00802514 -0.031483 0.0928302 0.0404767 -0.0183151 0.0927553 0.0251729 -0.00985964 0.0935576 
0.0228765 0.00606581 0.0928998 0.0399323 0.0117688 0.0931596 -0.00739359 0.0259593 0.0932798 
0.0191509 0.0299648 0.0931289 0.0444958 0.0309554 0.0924766 0.00284552 0.0345861 0.0928023 
-0.0112537 0.0395394 0.0935174 -0.0439713 -0.0357399 0.0939847 0.0244271 -0.0334586 0.0946234 
0.0268369 -0.0315202 0.0946745 -0.0448384 -0.0296834 0.0943487 0.00623721 -0.0211799 0.0942614 
-0.0329121 -0.0139828 0.0947052 0.0011249 0.00615697 0.0943067 0.030759 0.00580352 0.0939448 
0.00395304 0.0187088 0.0937655 -0.0357156 0.0282031 0.093795 0.0163992 0.0415262 0.0946887 
-0.0205282 0.0432397 0.0936204 -0.044759 -0.0437614 0.0953032 -0.0370475 -0.0370945 0.0957356 
0.0268005 -0.0146468 0.0953673 0.0176437 -0.0119747 0.095031 -0.042786 -0.00359954 0.0958415 
-0.0170872 0.00564833 0.095159 -0.00279986 0.0127222 0.0956507 0.0418335 0.0161761 0.0958462 
0.00128112 0.0217131 0.0958708 0.00805094 0.0422278 0.0958955 0.0244803 -0.0401788 0.0969684 
-0.0427235 -0.0332389 0.09693 0.023158 -0.0340207 0.0965246 0.032808 -0.025967 0.0961716 
-0.0317771 -0.0175651 0.0964276 -0.038829 -0.00978443 0.0962237 -0.0304645 -0.00701594 0.0962227 
0.0142017 0.0079404 0.0970448 0.0202046 0.00840095 0.0973512 -0.0408092 0.00981999 0.0972283 
0.014866 0.0127598 0.09654 -0.0214239 0.0189608 0.0964755 0.0226957 0.0260881 0.0964151 
0.00953871 0.0271324 0.0974295 -0.00435696 0.0325462 0.0964351 -0.027409 -0.0433703 0.0977604 
-0.00670669 -0.0394183 0.0985429 0.00879071 -0.0344865 0.0975838 -0.0262624 -0.032473 0.0981579 
-0.00580099 -0.0272788 0.0976899 -0.00553214 -0.00871323 0.0986225 0.039455 -0.000236508 0.0974964 
0.0147261 0.00139147 0.0984021 -0.0392616 0.00972366 0.0978374 0.0226738 0.0181095 0.0981382 
0.0146363 0.0223077 0.0982419 -0.0312382 0.0393096 0.0985449 0.0399235 0.0434757 0.0983428 
-0.00340304 -0.0448428 0.0993078 -0.0338231 -0.0250135 0.0993187 0.0363266 -0.0194176 0.0995646 
-0.0222502 -0.00974669 0.0991182 -0.037077 0.00611456 0.0990783 -0.0101256 0.00978275 0.0999191 
-0.0429188 0.0135204 0.0991223 -0.0431379 0.0208085 0.0997672 0.00264144 0.0247174 0.1 
-0.0114472 0.026715 0.0995957 -0.0204621 -0.0172006 0.100313 0.0198229 -0.0156851 0.101117 
0.0249316 -0.014475 0.100212 -0.0196799 -0.00931279 0.100796 -0.0135858 -0.00672635 0.101002 
-0.0261639 0.00337815 0.100986 -0.00723413 0.00605583 0.100992 -0.0349287 0.0230684 0.100708 
-0.0127911 0.0299546 0.100406 0.0248068 -0.0428986 0.102611 0.0418836 -0.0421436 0.102259 
0.0238162 -0.0409762 0.102319 0.000822496 -0.0363122 0.10149 -0.0240024 -0.0280603 0.101571 
0.0306875 -0.0259396 0.102555 0.0362421 0.00170773 0.102076 0.0404406 0.00462082 0.102193 
0.0336082 0.013194 0.101434 0.0388885 0.0193682 0.102075 0.0238959 0.0383247 0.10248 
-0.0375088 0.0393741 0.101426 -0.0346971 -0.0446764 0.102767 -0.0248654 -0.0427111 0.10373 
-0.018434 -0.0405477 0.103599 0.0397687 -0.0374633 0.103628 0.03382 -0.0268981 0.103449 
0.00538025 -0.0241403 0.103048 -0.0150798 -0.00698339 0.103453 -0.0416237 0.00110806 0.102891 
0.0197977 0.00963841 0.102677 0.0261916 0.0119357 0.103507 -0.00307286 0.0144526 0.10384 
0.00976298 0.0163696 0.102898 0.0122157 0.0191756 0.103461 0.0424299 -0.0409921 0.104447 
-0.0108246 -0.0388127 0.104002 0.0102479 -0.024092 0.104585 -0.0225401 -0.0213878 0.1045 
-0.00827992 -0.020547 0.105085 -0.0296942 -0.0196153 0.104882 -0.00747582 -0.00609419 0.104064 
0.00523139 -0.00599236 0.105142 0.0128044 0.0127337 0.104247 -0.0421793 0.0225172 0.104795 
-0.0190887 0.0269029 0.105181 -0.0376379 0.0294143 0.105159 0.00372347 0.0304157 0.105267 
0.0311732 0.0371467 0.10411 -0.00973825 0.0391656 0.104671 0.0145521 -0.0432303 0.106424 
0.0403752 -0.0143085 0.105598 0.0290986 -0.000251763 0.106563 0.0407777 0.000744206 0.106069 
0.0283387 0.00890506 0.10573 0.00861143 0.0123591 0.10653 0.0121458 0.0151918 0.106325 
-0.0245447 0.0378537 0.105828 0.0222253 0.0407186 0.105508 -0.0181988 0.0434549 0.105485 
0.0348044 -0.042095 0.107403 -0.0376897 -0.0314333 0.107851 0.0394323 -0.021923 0.107806 
0.00548761 -0.0197918 0.106949 0.0313953 -0.00974065 0.106759 0.0406218 -0.0100941 0.106911 
0.0250346 0.00641518 0.107449 -0.00867948 0.0139924 0.107584 -0.0196462 0.0155185 0.106796 
0.00519606 0.0301696 0.107682 0.00390562 0.0317225 0.107497 0.00317215 0.0343196 0.107212 
0.0352379 0.0438995 0.1067 -0.0168273 -0.0360331 0.108125 -0.0263426 -0.0292431 0.108395 
0.0233461 -0.0214624 0.108501 -0.0211095 -0.00770044 0.108878 0.0161928 -0.00760918 0.10916 
0.0323225 0.00436429 0.107897 -0.0108954 0.0304 0.108938 0.0231674 0.0340949 0.109009 
-0.0430551 -0.0267583 0.109434 -0.0186412 -0.0134353 0.109443 -0.0120059 -0.00345367 0.110227 
-0.00896956 -0.00131708 0.110038 0.0441199 0.0136981 0.110442 0.000954082 0.0152563 0.10977 
0.0258603 0.0235991 0.109447 0.0405446 0.0433429 0.110068 0.0181024 -0.0433049 0.110837 
0.0131812 -0.0427533 0.111045 0.0449741 -0.0303513 0.111736 0.0272875 -0.0186725 0.110722 
-0.0327621 -0.0121928 0.111129 0.0387156 -0.00624884 0.11136 0.00975646 -0.00313231 0.111026 
0.0116524 0.00206193 0.110706 0.0311878 0.014057 0.111594 0.00126512 0.0228658 0.111615 
0.00834461 0.0278725 0.111534 0.026696 0.03017 0.111724 0.0193546 0.0324404 0.111196 
-0.00585061 0.0388609 0.111229 0.0352701 0.0439749 0.111075 0.00985621 -0.0367022 0.111833 
0.00558373 -0.0242787 0.112912 -0.0127621 -0.0231756 0.112996 0.038292 -0.016257 0.112742 
0.0323803 -0.0150629 0.112409 -0.00254943 -0.00825679 0.112908 -0.0325416 0.00283857 0.112758 
0.00243665 0.00282786 0.112759 -0.00841171 0.0143034 0.112518 0.0407412 0.0174253 0.112173 
-0.0122989 0.0222019 0.112494 0.0438582 0.0244724 0.11268 0.0166138 -0.0412108 0.113833 
-0.0233761 -0.031813 0.113604 -0.0220587 -0.0306349 0.113343 -0.0414327 -0.0290659 0.113356 
0.0346338 -0.0290927 0.113919 0.0240101 -0.0228809 0.114077 0.035159 -0.023363 0.11328 
-0.0344646 -0.00725539 0.113232 0.0180458 -0.00470109 0.113302 -0.0107529 -0.00365687 0.113427 
-0.00941413 -0.00330341 0.113887 -0.0283489 -0.000417126 0.113729 -0.025141 0.00447188 0.113366 
0.0396593 0.013993 0.113828 0.0398418 0.0217469 0.113981 0.021223 0.0244832 0.113121 
0.0395905 0.0272142 0.113213 0.0372507 0.0318783 0.113747 -0.00196307 0.0366495 0.113419 
-0.0309963 -0.0355024 0.114822 -0.00863888 -0.0237376 0.115525 -0.0147645 -0.0165889 0.114443 
0.0334462 -0.00930086 0.114477 0.0140084 -6.89735e-05 0.114662 -0.009285 0.00693532 0.115491 
-0.0105861 0.00898083 0.114664 0.0211953 0.00966092 0.114907 -0.0148746 0.0223253 0.114932 
-0.0267196 0.0236159 0.115547 -0.0337286 0.0337045 0.115542 0.0294278 0.0431452 0.11473 
0.00528787 0.0432844 0.114844 -0.00396528 -0.0444182 0.116116 0.0195053 -0.043722 0.11696 
-0.0386911 -0.0311434 0.115947 -0.00401126 -0.00720159 0.116044 0.0404774 -0.00688032 0.115822 
-0.0408474 -0.00214648 0.116929 0.0168839 -0.00210364 0.116957 -0.0365733 0.0119208 0.116131 
0.00243185 0.0120975 0.116329 0.018015 0.0183735 0.116185 0.0191028 0.0315895 0.116791 
0.00727395 0.0332762 0.116758 0.00201585 0.0404036 0.116258 -0.0136468 -0.0412372 0.118231 
-0.0177429 -0.0346724 0.117303 -0.0161578 -0.0337243 0.118248 0.0155599 -0.0240909 0.117297 
-0.0210835 -0.0209207 0.117886 -0.0033641 -0.0204173 0.118031 0.0200271 -0.00425623 0.117794 
-0.0376932 -0.000132947 0.117864 -0.0153419 -0.00108619 0.117121 0.0260144 0.00429017 0.117432 
-0.00598638 0.00689803 0.117648 -0.0425374 0.0333781 0.118076 0.00888594 0.0360502 0.11816 
0.0350196 -0.0250011 0.118922 0.00179778 -0.0247441 0.11848 0.0144468 -0.013247 0.119523 
-0.00528066 -0.0121118 0.118979 0.0242571 -0.0100823 0.118452 -0.0198668 -0.00211416 0.119024 
0.0183943 0.00266245 0.119317 -0.0429246 0.00657681 0.118483 0.00533928 0.00728904 0.118776 
-0.0128609 0.0265935 0.118552 0.0278529 0.0342296 0.119219 0.0030545 0.0369981 0.119234 
-0.0133259 0.0414802 0.119098 -0.0177803 -0.0340186 0.120291 0.0153133 -0.0285941 0.120154 
0.0164647 -0.0275391 0.120569 0.0347572 -0.0260666 0.120039 0.0282033 -0.0178095 0.119898 
-0.0253129 -0.0039775 0.120882 0.00664535 -0.00164817 0.120329 -0.0231109 0.0157017 0.120161 
0.00742845 0.0199749 0.120023 -0.0324762 0.0230005 0.12082 0.0416479 -0.0439733 0.121499 
0.0406519 -0.0427256 0.121747 0.0077947 -0.0345433 0.121353 0.0204492 -0.0194639 0.121136 
-0.0341597 -0.0122829 0.121242 -0.0233311 0.00384073 0.121628 0.0332757 0.00539899 0.121357 
-0.0287332 0.0215601 0.121539 -0.0295899 0.0232577 0.121889 0.00231692 -0.0294453 0.122586 
-0.0346801 -0.0287009 0.123286 -0.0139777 -0.0223984 0.122927 0.0115492 -0.0227248 0.123447 
-0.0279963 -0.0141356 0.122852 -0.0406381 0.00555966 0.122609 -0.019893 0.00878872 0.122196 
0.00474506 0.0103043 0.123442 -0.00071691 0.0108932 0.122277 0.0397191 0.0283771 0.122954 
0.0380057 0.0324307 0.122925 0.00367032 0.0371324 0.12346 -0.0390775 0.0447256 0.122458 
-0.0273176 -0.0361067 0.123858 0.0132043 -0.01541 0.123534 0.0253763 -0.011051 0.124481 
0.0352883 -0.0103067 0.123954 0.0448793 -0.00396119 0.123717 0.0189244 0.00254502 0.123635 
-0.0403489 0.00598291 0.124682 0.0358407 0.00533501 0.124533 -0.0408306 0.00999374 0.124053 
0.0234497 0.00978487 0.123636 0.027557 0.009967 0.124395 -0.00808524 0.0113378 0.123759 
-0.0350204 0.0121089 0.123884 -0.0408838 0.0159645 0.124336 -0.0122189 0.0175978 0.124443 
0.0337272 0.0324898 0.124475 -0.00647711 0.0391566 0.123949 0.0114086 0.0440135 0.124376 
0.0171919 0.0449185 0.124058 0.00849583 -0.0405939 0.125949 -0.0195638 -0.0385913 0.125192 
0.0325128 -0.03812 0.125207 0.0195647 -0.0366528 0.12489 -0.0164034 -0.0216001 0.125967 
-0.0328213 -0.0176588 0.126 -0.0137512 0.00384646 0.125756 -0.0442311 0.00821601 0.125149 
0.0434247 0.0295768 0.125319 0.0211706 0.0445491 0.125564 -0.0389435 -0.0425966 0.127134 
-0.0408642 -0.0154151 0.126393 -0.015814 -0.0152491 0.126111 0.0375745 -0.0151367 0.126269 
-0.0131355 0.00164571 0.127117 0.0324887 0.00836074 0.126799 0.00757299 0.0192258 0.126155 
0.00976854 0.0197772 0.126718 0.0350116 0.0207306 0.127039 0.0040127 0.0314243 0.12611 
-0.0169239 -0.0402939 0.128095 0.043014 -0.0343178 0.128474 -0.0401314 -0.0280847 0.127927 
-0.0207996 -0.0190456 0.12755 0.00886689 -0.0141191 0.127525 -0.0253401 -0.0103599 0.127815 
0.0420414 -0.00101026 0.127833 0.00789931 0.0136568 0.127577 0.012949 0.0143048 0.127507 
-0.00443291 0.0160613 0.128671 -0.0436572 0.0238848 0.1282 -0.0407273 0.0358476 0.128098 
0.0170579 0.0421878 0.127462 -0.00161929 -0.0353994 0.129435 0.0355384 -0.0354155 0.128848 
-0.0210092 -0.0320472 0.128772 0.023019 -0.0293484 0.12899 0.0210005 -0.0239559 0.129147 
-0.027449 0.00511055 0.129495 -0.01547 0.00642247 0.129082 -0.0287818 0.014969 0.129795 
-0.0363159 0.0185996 0.129824 -0.0214233 0.0285543 0.129156 -0.00750544 0.0361316 0.129801 
-0.0317519 -0.0446953 0.131202 -0.0289295 -0.0389067 0.130442 -0.0179089 -0.0346335 0.130734 
-8.23525e-05 -0.034098 0.130965 0.0403097 -0.0347888 0.13023 0.0134129 -0.0192809 0.130942 
-0.00710141 -0.0133745 0.131075 0.00978397 0.00922321 0.13052 0.0440772 0.0154938 0.130593 
-0.0286532 0.0159811 0.13059 0.0256029 0.0175394 0.130924 -0.00472634 0.0344449 0.13117 
-0.00682403 -0.0314098 0.131351 0.0156293 -0.0283842 0.132399 0.0296492 -0.015918 0.131646 
-0.0332593 0.000859011 0.132417 0.023953 0.00820576 0.132527 -0.0161548 0.0159009 0.132156 
-0.00317984 0.0164631 0.131328 -0.0132251 0.0252506 0.131741 -0.0260391 0.0304395 0.13244 
-0.0359241 0.0337864 0.13249 0.010226 -0.0308634 0.133654 0.0109547 -0.0235646 0.133734 
0.0347312 -0.012978 0.132916 0.0218314 -0.00971151 0.133248 0.00127443 -0.000618905 0.132868 
0.0133448 0.00646544 0.132986 0.00418285 0.0112423 0.133714 -0.00831541 0.0129665 0.1327 
-0.0138035 0.0240512 0.132976 0.0132394 0.0345575 0.132985 -0.0190394 0.0446837 0.133483 
0.0201641 -0.0426709 0.134157 -0.0234086 -0.038644 0.134494 -0.0313057 -0.0141988 0.134764 
-0.042331 -0.00792816 0.135153 -0.0101373 -0.00698039 0.134513 -0.0436896 0.0195853 0.133899 
0.0147823 -0.0446949 0.136381 -0.0225361 -0.0441701 0.135675 0.0307351 -0.0355434 0.13529 
-0.038621 -0.0229432 0.136194 0.0127657 -0.00746761 0.135451 -0.00720807 -0.00608605 0.135322 
0.0386193 -0.00496685 0.135581 -0.0395569 -0.00227866 0.135818 -0.0349081 0.00917553 0.136193 
-0.0219587 0.0304934 0.135573 -0.0379532 0.0399341 0.135821 -0.00785852 0.041878 0.135997 
0.0430506 0.0422314 0.136308 -0.00338111 -0.0363358 0.136785 -0.0136128 -0.00979682 0.137375 
-0.0193355 0.018129 0.137221 -0.014478 0.0275162 0.1371 0.0214431 0.0335886 0.137105 

VERTICES 523 522
OFFSETS vtktypeint64
0 1 2 3 4 5 6 7 8 
9 10 11 12 13 14 15 16 17 
18 19 20 21 22 23 24 25 26 
27 28 29 30 31 32 33 34 35 
36 37 38 39 40 41 42 43 44 
45 46 47 48 49 50 51 52 53 
54 55 56 57 58 59 60 61 62 
63 64 65 66 67 68 69 70 71 
72 73 74 75 76 77 78 79 80 
81 82 83 84 85 86 87 88 89 
90 91 92 93 94 95 96 97 98 
99 100 101 102 103 104 105 106 107 
108 109 110 111 112 113 114 115 116 
117 118 119 120 121 122 123 124 125 
126 127 128 129 130 131 132 133 134 
135 136 137 138 139 140 141 142 143 
144 145 146 147 148 149 150 151 152 
153 154 155 156 157 158 159 160 161 
162 163 164 165 166 167 168 169 170 
171 172 173 174 175 176 177 178 179 
180 181 182 183 184 185 186 187 188 
189 190 191 192 193 194 195 196 197 
198 199 200 201 202 203 204 205 206 
207 208 209 210 211 212 213 214 215 
216 217 218 219 220 221 222 223 224 
225 226 227 228 229 230 231 232 233 
234 235 236 237 238 239 240 241 242 
243 244 245 246 247 248 249 250 251 
252 253 254 255 256 257 258 259 260 
261 262 263 264 265 266 267 268 269 
270 271 272 273 274 275 276 277 278 
279 280 281 282 283 284 285 286 287 
288 289 290 291 292 293 294 295 296 
297 298 299 300 301 302 303 304 305 
306 307 308 309 310 311 312 313 314 
315 316 317 318 319 320 321 322 323 
324 325 326 327 328 329 330 331 332 
333 334 335 336 337 338 339 340 341 
342 343 344 345 346 347 348 349 350 
351 352 353 354 355 356 357 358 359 
360 361 362 363 364 365 366 367 368 
369 370 371 372 373 374 375 376 377 
378 379 380 381 382 383 384 385 386 
387 388 389 390 391 392 393 394 395 
396 397 398 399 400 401 402 403 404 
405 406 407 408 409 410 411 412 413 
414 415 416 417 418 419 420 421 422 
423 424 425 426 427 428 429 430 431 
432 433 434 435 436 437 438 439 440 
441 442 443 444 445 446 447 448 449 
450 451 452 453 454 455 456 457 458 
459 460 461 462 463 464 465 466 467 
468 469 470 471 472 473 474 475 476 
477 478 479 480 481 482 483 484 485 
486 487 488 489 490 491 492 493 494 
495 496 497 498 499 500 501 502 503 
504 505 506 507 508 509 510 511 512 
513 514 515 516 517 518 519 520 521 
522 
CONNECTIVITY vtktypeint64
0 1 2 3 4 5 6 7 8 
9 10 11 12 13 14 15 16 17 
18 19 20 21 22 23 24 25 26 
27 28 29 30 31 32 33 34 35 
36 37 38 39 40 41 42 43 44 
45 46 47 48 49 50 51 52 53 
54 55 56 57 58 59 60 61 62 
63 64 65 66 67 68 69 70 71 
72 73 74 75 76 77 78 79 80 
81 82 83 84 85 86 87 88 89 
90 91 92 93 94 95 96 97 98 
99 100 101 102 103 104 105 106 107 
108 109 110 111 112 113 114 115 116 
117 118 119 120 121 122 123 124 125 
126 127 128 129 130 131 132 133 134 
135 136 137 138 139 140 141 142 143 
144 145 146 147 148 149 150 151 152 
153 154 155 156 157 158 159 160 161 
162 163 164 165 166 167 168 169 170 
171 172 173 174 175 176 177 178 179 
180 181 182 183 184 185 186 187 188 
189 190 191 192 193 194 195 196 197 
198 199 200 201 202 203 204 205 206 
207 208 209 210 211 212 213 214 215 
216 217 218 219 220 221 222 223 224 
225 226 227 228 229 230 231 232 233 
234 235 236 237 238 239 240 241 242 
243 244 245 246 247 248 249 250 251 
252 253 254 255 256 257 258 259 260 
261 262 263 264 265 266 267 268 269 
270 271 272 273 274 275 276 277 278 
279 280 281 282 283 284 285 286 287 
288 289 290 291 292 293 294 295 296 
297 298 299 300 301 302 303 304 305 
306 307 308 309 310 311 312 313 314 
315 316 317 318 319 320 321 322 323 
324 325 326 327 328 329 330 331 332 
333 334 335 336 337 338 339 340 341 
342 343 344 345 346 347 348 349 350 
351 352 353 354 355 356 357 358 359 
360 361 362 363 364 365 366 367 368 
369 370 371 372 373 374 375 376 377 
378 379 380 381 382 383 384 385 386 
387 388 389 390 391 392 393 394 395 
396 397 398 399 400 401 402 403 404 
405 406 407 408 409 410 411 412 413 
414 415 416 417 418 419 420 421 422 
423 424 425 426 427 428 429 430 431 
432 433 434 435 436 437 438 439 440 
441 442 443 444 445 446 447 448 449 
450 451 452 453 454 455 456 457 458 
459 460 461 462 463 464 465 466 467 
468 469 470 471 472 473 474 475 476 
477 478 479 480 481 482 483 484 485 
486 487 488 489 490 491 492 493 494 
495 496 497 498 499 500 501 502 503 
504 505 506 507 508 509 510 511 512 
513 514 515 516 517 518 519 520 521 

POINT_DATA 522
FIELD FieldData 12
id 1 522 int
200 231 428 6 57 134 107 127 383 
396 197 169 26 270 362 164 115 356 
291 176 465 86 423 149 195 372 508 
88 381 336 370 11 385 18 219 12 
506 185 247 215 72 353 450 214 150 
491 366 459 190 237 106 293 125 418 
165 373 521 189 187 253 87 92 304 
58 193 433 364 14 457 515 83 322 
339 166 9 280 158 29 246 367 331 
282 154 440 289 483 186 458 407 49 
386 256 470 73 8 10 175 310 488 
13 496 444 66 132 36 297 233 435 
317 292 100 408 207 404 505 355 427 
467 432 162 321 327 85 155 22 347 
5 137 167 500 456 454 417 410 412 
406 463 411 290 349 263 478 60 40 
337 91 326 229 51 267 439 16 399 
424 112 4 21 110 163 199 222 188 
314 319 303 409 324 2 90 261 54 
104 318 351 98 415 238 227 495 288 
384 357 520 30 298 168 240 248 32 
519 486 330 504 390 218 429 24 96 
121 61 141 236 161 328 76 275 113 
35 122 183 484 522 75 255 446 202 
15 447 271 34 223 64 174 479 243 
377 378 287 498 451 201 198 320 84 
211 341 196 129 401 308 437 62 375 
140 477 111 28 157 311 474 119 178 
81 148 313 475 226 295 472 511 278 
216 343 251 128 59 257 151 63 469 
507 272 346 414 352 516 146 299 20 
208 395 394 509 268 65 45 397 102 
79 416 170 74 260 334 244 17 392 
431 206 52 239 250 393 294 323 329 
53 252 171 142 205 56 363 279 78 
461 94 232 487 493 462 38 265 425 
144 420 325 109 348 108 342 89 93 
333 42 368 360 371 345 273 117 481 
225 123 68 518 156 71 403 25 105 
204 217 379 213 455 286 335 116 460 
43 1 405 305 301 426 266 421 182 
361 350 147 445 430 517 285 135 70 
281 130 31 471 489 448 380 212 126 
138 254 139 354 513 449 276 503 124 
338 221 179 466 482 476 82 376 340 
3 50 77 501 153 453 296 480 442 
181 315 7 180 413 302 55 136 210 
359 436 160 274 300 316 114 438 258 
143 374 194 499 145 443 514 33 332 
99 47 502 177 441 23 80 46 41 
220 191 309 434 159 344 307 103 234 
284 245 48 485 209 452 242 312 402 
388 69 44 490 497 358 228 118 387 
398 120 422 389 510 468 473 131 269 
494 283 192 259 101 365 512 464 262 
97 391 172 203 173 306 95 39 152 
241 230 492 37 27 224 133 382 400 
419 249 277 19 67 264 184 369 235 

type 1 522 int
1 1 1 2 1 1 1 1 1 
1 1 1 1 1 1 1 1 1 
1 1 1 1 1 1 1 1 1 
1 1 1 1 2 1 1 1 2 
1 1 1 1 1 1 1 1 1 
1 1 1 1 1 1 1 1 1 
1 1 1 1 1 1 1 1 1 
1 1 1 1 2 1 1 1 1 
1 1 2 1 1 1 1 1 1 
1 1 1 1 1 1 1 1 1 
1 1 1 1 2 2 1 1 1 
2 1 1 1 1 1 1 1 1 
1 1 1 1 1 1 1 1 1 
1 1 1 1 1 1 1 1 1 
2 1 1 1 1 1 1 1 1 
1 1 1 1 1 1 1 1 1 
1 1 1 1 1 1 1 2 1 
1 1 2 1 1 1 1 1 1 
1 1 1 1 1 3 1 1 1 
1 1 1 1 1 1 1 1 1 
1 1 1 1 1 1 1 1 1 
1 1 1 1 1 1 1 1 1 
1 1 1 1 1 1 1 1 1 
1 1 1 1 1 1 1 1 1 
2 1 1 1 1 1 1 1 1 
1 1 1 1 1 1 1 1 1 
1 1 1 1 1 1 1 1 1 
1 1 1 1 1 1 1 1 1 
1 1 1 1 1 1 1 1 1 
1 1 1 1 1 1 1 1 1 
1 1 1 1 1 2 1 1 1 
1 1 1 1 1 1 1 1 1 
1 1 1 1 1 1 1 1 1 
1 1 1 1 1 1 1 1 1 
1 1 1 1 1 1 1 1 1 
1 1 1 1 1 1 1 1 1 
1 1 1 1 1 1 1 1 1 
1 1 1 1 1 1 1 1 1 
1 1 1 1 1 1 1 1 1 
1 1 1 1 1 1 1 1 1 
1 4 1 1 1 1 1 1 1 
1 1 1 1 1 1 1 1 1 
1 1 1 1 1 1 1 1 1 
1 1 1 1 1 1 1 1 1 
1 1 1 1 1 1 1 1 1 
2 1 1 1 1 1 1 1 1 
1 1 2 1 1 1 1 1 1 
1 1 1 1 1 1 1 1 1 
1 1 1 1 1 1 1 1 1 
1 1 1 1 1 1 1 1 1 
1 1 1 1 1 1 1 1 1 
1 1 1 1 1 1 1 1 1 
1 1 1 1 1 1 1 1 1 
1 1 1 1 1 1 1 1 1 
1 1 1 1 1 1 2 1 1 
1 1 1 1 1 1 1 1 1 
1 1 1 1 1 1 1 1 1 
1 1 1 1 1 1 1 1 1 

i 3 522 int
0 0 0 0 0 0 0 0 0 
0 0 0 0 0 0 0 0 0 
0 0 0 0 0 0 0 0 0 
0 0 0 0 0 0 0 0 0 
0 0 0 0 0 0 0 0 0 
0 0 0 0 0 0 0 0 0 
0 0 0 0 0 0 0 0 0 
0 0 0 0 0 0 0 0 0 
0 0 0 0 0 0 0 0 0 
0 0 0 0 0 0 0 0 0 
0 0 0 0 0 0 0 0 0 
0 0 0 0 0 0 0 0 0 
0 0 0 0 0 0 0 0 0 
0 0 0 0 0 0 0 0 0 
0 0 0 0 0 0 0 0 0 
0 0 0 0 0 0 0 0 0 
0 0 0 0 0 0 0 0 0 
0 0 0 0 0 0 0 0 0 
0 0 0 0 0 0 0 0 0 
0 0 0 0 0 0 0 0 0 
0 0 0 0 0 0 0 0 0 
0 0 0 0 0 0 0 0 0 
0 0 0 0 0 0 0 0 0 
0 0 0 0 0 0 0 0 0 
0 0 0 0 0 0 0 0 0 
0 0 0 0 0 0 0 0 0 
0 0 0 0 0 0 0 0 0 
0 0 0 0 0 0 0 0 0 
0 0 0 0 0 0 0 0 0 
0 0 0 0 0 0 0 0 0 
0 0 0 0 0 0 0 0 0 
0 0 0 0 0 0 0 0 0 
0 0 0 0 0 0 0 0 0 
0 0 0 0 0 0 0 0 0 
0 0 0 0 0 0 0 0 0 
0 0 0 0 0 0 0 0 0 
0 0 0 0 0 0 0 0 0 
0 0 0 0 0 0 0 0 0 
0 0 0 0 0 0 0 0 0 
0 0 0 0 0 0 0 0 0 
0 0 0 0 0 0 0 0 0 
0 0 0 0 0 0 0 0 0 
0 0 0 0 0 0 0 0 0 
0 0 0 0 0 0 0 0 0 
0 0 0 0 0 0 0 0 0 
0 0 0 0 0 0 0 0 0 
0 0 0 0 0 0 0 0 0 
0 0 0 0 0 0 0 0 0 
0 0 0 0 0 0 0 0 0 
0 0 0 0 0 0 0 0 0 
0 0 0 0 0 0 0 0 0 
0 0 0 0 0 0 0 0 0 
0 0 0 0 0 0 0 0 0 
0 0 0 0 0 0 0 0 0 
0 0 0 0 0 0 0 0 0 
0 0 0 0 0 0 0 0 0 
0 0 0 0 0 0 0 0 0 
0 0 0 0 0 0 0 0 0 
0 0 0 0 0 0 0 0 0 
0 0 0 0 0 0 0 0 0 
0 0 0 0 0 0 0 0 0 
0 0 0 0 0 0 0 0 0 
0 0 0 0 0 0 0 0 0 
0 0 0 0 0 0 0 0 0 
0 0 0 0 0 0 0 0 0 
0 0 0 0 0 0 0 0 0 
0 0 0 0 0 0 0 0 0 
0 0 0 0 0 0 0 0 0 
0 0 0 0 0 0 0 0 0 
0 0 0 0 0 0 0 0 0 
0 0 0 0 0 0 0 0 0 
0 0 0 0 0 0 0 0 0 
0 0 0 0 0 0 0 0 0 
0 0 0 0 0 0 0 0 0 
0 0 0 0 0 0 0 0 0 
0 0 0 0 0 0 0 0 0 
0 0 0 0 0 0 0 0 0 
0 0 0 0 0 0 0 0 0 
0 0 0 0 0 0 0 0 0 
0 0 0 0 0 0 0 0 0 
0 0 0 0 0 0 0 0 0 
0 0 0 0 0 0 0 0 0 
0 0 0 0 0 0 0 0 0 
0 0 0 0 0 0 0 0 0 
0 0 0 0 0 0 0 0 0 
0 0 0 0 0 0 0 0 0 
0 0 0 0 0 0 0 0 0 
0 0 0 0 0 0 0 0 0 
0 0 0 0 0 0 0 0 0 
0 0 0 0 0 0 0 0 0 
0 0 0 0 0 0 0 0 0 
0 0 0 0 0 0 0 0 0 
0 0 0 0 0 0 0 0 0 
0 0 0 0 0 0 0 0 0 
0 0 0 0 0 0 0 0 0 
0 0 0 0 0 0 0 0 0 
0 0 0 0 0 0 0 0 0 
0 0 0 0 0 0 0 0 0 
0 0 0 0 0 0 0 0 0 
0 0 0 0 0 0 0 0 0 
0 0 0 0 0 0 0 0 0 
0 0 0 0 0 0 0 0 0 
0 0 0 0 0 0 0 0 0 
0 0 0 0 0 0 0 0 0 
0 0 0 0 0 0 0 0 0 
0 0 0 0 0 0 0 0 0 
0 0 0 0 0 0 0 0 0 
0 0 0 0 0 0 0 0 0 
0 0 0 0 0 0 0 0 0 
0 0 0 0 0 0 0 0 0 
0 0 0 0 0 0 0 0 0 
0 0 0 0 0 0 0 0 0 
0 0 0 0 0 0 0 0 0 
0 0 0 0 0 0 0 0 0 
0 0 0 0 0 0 0 0 0 
0 0 0 0 0 0 0 0 0 
0 0 0 0 0 0 0 0 0 
0 0 0 0 0 0 0 0 0 
0 0 0 0 0 0 0 0 0 
0 0 0 0 0 0 0 0 0 
0 0 0 0 0 0 0 0 0 
0 0 0 0 0 0 0 0 0 
0 0 0 0 0 0 0 0 0 
0 0 0 0 0 0 0 0 0 
0 0 0 0 0 0 0 0 0 
0 0 0 0 0 0 0 0 0 
0 0 0 0 0 0 0 0 0 
0 0 0 0 0 0 0 0 0 
0 0 0 0 0 0 0 0 0 
0 0 0 0 0 0 0 0 0 
0 0 0 0 0 0 0 0 0 
0 0 0 0 0 0 0 0 0 
0 0 0 0 0 0 0 0 0 
0 0 0 0 0 0 0 0 0 
0 0 0 0 0 0 0 0 0 
0 0 0 0 0 0 0 0 0 
0 0 0 0 0 0 0 0 0 
0 0 0 0 0 0 0 0 0 
0 0 0 0 0 0 0 0 0 
0 0 0 0 0 0 0 0 0 
0 0 0 0 0 0 0 0 0 
0 0 0 0 0 0 0 0 0 
0 0 0 0 0 0 0 0 0 
0 0 0 0 0 0 0 0 0 
0 0 0 0 0 0 0 0 0 
0 0 0 0 0 0 0 0 0 
0 0 0 0 0 0 0 0 0 
0 0 0 0 0 0 0 0 0 
0 0 0 0 0 0 0 0 0 
0 0 0 0 0 0 0 0 0 
0 0 0 0 0 0 0 0 0 
0 0 0 0 0 0 0 0 0 
0 0 0 0 0 0 0 0 0 
0 0 0 0 0 0 0 0 0 
0 0 0 0 0 0 0 0 0 
0 0 0 0 0 0 0 0 0 
0 0 0 0 0 0 0 0 0 
0 0 0 0 0 0 0 0 0 
0 0 0 0 0 0 0 0 0 
0 0 0 0 0 0 0 0 0 
0 0 0 0 0 0 0 0 0 
0 0 0 0 0 0 0 0 0 
0 0 0 0 0 0 0 0 0 
0 0 0 0 0 0 0 0 0 
0 0 0 0 0 0 0 0 0 
0 0 0 0 0 0 0 0 0 
0 0 0 0 0 0 0 0 0 
0 0 0 0 0 0 0 0 0 
0 0 0 0 0 0 0 0 0 
0 0 0 0 0 0 0 0 0 
0 0 0 0 0 0 0 0 0 
0 0 0 0 0 0 0 0 0 
0 0 0 0 0 0 0 0 0 
0 0 0 0 0 0 0 0 0 

v 3 522 double
0 0 -0.0903741875 0 0 -0.0903741875 0 0 -0.0903741875 
0 0 -0.0903741875 0 0 -0.0903741875 0 0 -0.0903741875 
0 0 -0.0903741875 0 0 -0.0903741875 0 0 -0.0903741875 
0 0 -0.0903741875 0 0 -0.0903741875 0 0 -0.0903741875 
0 0 -0.0903741875 0 0 -0.0903741875 0 0 -0.0903741875 
0 0 -0.0903741875 0 0 -0.0903741875 0 0 -0.0903741875 
0 0 -0.0903741875 0 0 -0.0903741875 0 0 -0.0903741875 
0 0 -0.0903741875 0 0 -0.0903741875 0 0 -0.0903741875 
0 0 -0.0903741875 0 0 -0.0903741875 0 0 -0.0351241875 
0 0 -0.0903741875 0 0 -0.0903741875 0 0 -0.0903741875 
0 0 -0.0903741875 0 0 -0.0903741875 0 0 -0.0903741875 
0 0 -0.0903741875 0 0 -0.0903741875 0 0 -0.0903741875 
0 0 -0.0351241875 0 0 -0.0903741875 0 0 -0.0903741875 
0 0 -0.0903741875 0 0 -0.0903741875 0 0 -0.0903741875 
0 0 -0.0903741875 0 0 -0.0903741875 0 0 -0.0903741875 
0 0 -0.0903741875 0 0 -0.0903741875 0 0 -0.0903741875 
0 0 -0.0903741875 0 0 -0.0903741875 0 0 -0.0903741875 
0 0 -0.0903741875 0 0 -0.0903741875 0 0 -0.0903741875 
0 0 -0.0903741875 0 0 -0.0903741875 0 0 -0.0026241875 
0 0 -0.0903741875 0 0 -0.0903741875 0 0 -0.0903741875 
0 0 -0.0903741875 0 0 -0.0903741875 0 0 -0.0903741875 
0 0 -0.0903741875 0 0 -0.0903741875 0 0 -0.0903741875 
0 0 -0.0903741875 0 0 -0.0903741875 0 0 -0.0903741875 
0 0 -0.0156241875 0 0 -0.0903741875 0 0 -0.0903741875 
0 0 -0.0903741875 0 0 -0.0903741875 0 0 -0.0903741875 
0 0 -0.0903741875 0 0 -0.0903741875 0 0 -0.0903741875 
0 0 -0.0903741875 0 0 -0.0903741875 0 0 -0.0903741875 
0 0 -0.0903741875 0 0 -0.0903741875 0 0 -0.0903741875 
0 0 -0.0903741875 0 0 -0.0903741875 0 0 -0.0903741875 
0 0 -0.0903741875 0 0 -0.0903741875 0 0 -0.0903741875 
0 0 -0.0903741875 0 0 -0.0903741875 0 0 -0.0903741875 
0 0 -0.0903741875 0 0 -0.0903741875 0 0 -0.0903741875 
0 0 -0.0903741875 0 0 -0.0903741875 0 0 -0.0903741875 
0 0 -0.0903741875 0 0 -0.0903741875 0 0 -0.0903741875 
0 0 -0.0903741875 0 0 -0.0903741875 0 0 -0.0903741875 
0 0 -0.0903741875 0 0 -0.0903741875 0 0 -0.0903741875 
0 0 -0.0903741875 0 0 -0.0903741875 0 0 -0.0903741875 
0 0 -0.0903741875 0 0 -0.0903741875 0 0 -0.0903741875 
0 0 -0.0546241875 0 0 -0.0903741875 0 0 -0.0903741875 
0 0 -0.0903741875 0 0 -0.0903741875 0 0 -0.0903741875 
0 0 -0.0903741875 0 0 -0.0903741875 0 0 -0.0903741875 
0 0 -0.0903741875 0 0 -0.0903741875 0 0 -0.0903741875 
0 0 -0.0903741875 0 0 -0.0903741875 0 0 -0.0903741875 
0 0 -0.0903741875 0 0 -0.0903741875 0 0 -0.0903741875 
0 0 -0.0903741875 0 0 -0.0903741875 0 0 -0.0903741875 
0 0 -0.0903741875 0 0 -0.0903741875 0 0 -0.0903741875 
0 0 -0.0903741875 0 0 -0.0903741875 0 0 -0.0903741875 
0 0 -0.0903741875 0 0 -0.0903741875 0 0 -0.0903741875 
0 0 -0.0903741875 0 0 -0.0903741875 0 0 -0.0903741875 
0 0 -0.0903741875 0 0 -0.0903741875 0 0 -0.0903741875 
0 0 -0.0903741875 0 0 -0.0903741875 0 0 -0.0903741875 
0 0 -0.0903741875 0 0 -0.0903741875 0 0 -0.0903741875 
0 0 -0.0903741875 0 0 -0.0903741875 0 0 -0.0903741875 
0 0 -0.0903741875 0 0 -0.0903741875 0 0 -0.0903741875 
0 0 -0.0903741875 0 0 -0.0903741875 0 0 -0.0903741875 
0 0 -0.0903741875 0 0 -0.0903741875 0 0 -0.0903741875 
0 0 -0.0903741875 0 0 -0.0903741875 0 0 -0.0903741875 
0 0 -0.0903741875 0 0 -0.0903741875 0 0 -0.0903741875 
0 0 -0.0903741875 0 0 -0.0903741875 0 0 -0.0903741875 
0 0 -0.0903741875 0 0 -0.0903741875 0 0 -0.0903741875 
0 0 -0.0903741875 0 0 -0.0903741875 0 0 -0.0058741875 
0 0 -0.0903741875 0 0 -0.0903741875 0 0 -0.0903741875 
0 0 -0.0903741875 0 0 -0.0903741875 0 0 -0.0903741875 
0 0 -0.0058741875 0 0 -0.0903741875 0 0 -0.0903741875 
0 0 -0.0578741875 0 0 -0.0903741875 0 0 -0.0903741875 
0 0 -0.0903741875 0 0 -0.0903741875 0 0 -0.0903741875 
0 0 -0.0903741875 0 0 -0.0903741875 0 0 -0.0903741875 
0 0 -0.0903741875 0 0 -0.0903741875 0 0 -0.0903741875 
0 0 -0.0903741875 0 0 -0.0903741875 0 0 -0.0903741875 
0 0 -0.0903741875 0 0 -0.0903741875 0 0 -0.0903741875 
0 0 -0.0903741875 0 0 -0.0026241875 0 0 -0.0903741875 
0 0 -0.0903741875 0 0 -0.0903741875 0 0 -0.0903741875 
0 0 -0.0903741875 0 0 -0.0903741875 0 0 -0.0903741875 
0 0 -0.0903741875 0 0 -0.0903741875 0 0 -0.0903741875 
0 0 -0.0903741875 0 0 -0.0903741875 0 0 -0.0903741875 
0 0 -0.0903741875 0 0 -0.0903741875 0 0 -0.0903741875 
0 0 -0.0903741875 0 0 -0.0903741875 0 0 -0.0903741875 
0 0 -0.0903741875 0 0 -0.0903741875 0 0 -0.0903741875 
0 0 -0.0903741875 0 0 -0.0903741875 0 0 -0.0903741875 
0 0 -0.0903741875 0 0 -0.0903741875 0 0 -0.0903741875 
0 0 -0.0903741875 0 0 -0.0903741875 0 0 -0.0903741875 
0 0 -0.0903741875 0 0 -0.0903741875 0 0 -0.0903741875 
0 0 -0.0903741875 0 0 -0.0903741875 0 0 -0.0903741875 
0 0 -0.0903741875 0 0 -0.0903741875 0 0 -0.0903741875 
0 0 -0.0903741875 0 0 -0.0903741875 0 0 -0.0903741875 
0 0 -0.0903741875 0 0 -0.0903741875 0 0 -0.0903741875 
0 0 -0.0903741875 0 0 -0.0286241875 0 0 -0.0903741875 
0 0 -0.0903741875 0 0 -0.0903741875 0 0 -0.0903741875 
0 0 -0.0903741875 0 0 -0.0903741875 0 0 -0.0903741875 
0 0 -0.0903741875 0 0 -0.0903741875 0 0 -0.0903741875 
0 0 -0.0351241875 0 0 -0.0903741875 0 0 -0.0903741875 
0 0 -0.0903741875 0 0 -0.0903741875 0 0 -0.0123741875 
0 0 -0.0903741875 0 0 -0.0903741875 0 0 -0.0903741875 
0 0 -0.0903741875 0 0 -0.0903741875 0 0 -0.0903741875 
0 0 -0.0286241875 0 0 -0.0903741875 0 0 -0.0903741875 
0 0 -0.0903741875 0 0 -0.0903741875 0 0 -0.0903741875 
0 0 -0.0903741875 0 0 -0.0903741875 0 0 -0.0903741875 
0 0 -0.0903741875 0 0 -0.0903741875 0 0 -0.0903741875 
0 0 -0.0903741875 0 0 -0.0903741875 0 0 -0.0903741875 
0 0 -0.0903741875 0 0 -0.0903741875 0 0 -0.0903741875 
0 0 -0.0903741875 0 0 -0.0903741875 0 0 -0.0903741875 
0 0 -0.0903741875 0 0 -0.0903741875 0 0 -0.0903741875 
0 0 -0.0903741875 0 0 -0.0903741875 0 0 -0.0903741875 
0 0 -0.0903741875 0 0 -0.0903741875 0 0 -0.0903741875 
0 0 -0.0903741875 0 0 -0.0903741875 0 0 -0.0903741875 
0 0 -0.0903741875 0 0 -0.0903741875 0 0 -0.0903741875 
0 0 -0.0903741875 0 0 -0.0903741875 0 0 -0.0903741875 
0 0 -0.0903741875 0 0 -0.0903741875 0 0 -0.0903741875 
0 0 -0.0903741875 0 0 -0.0903741875 0 0 -0.0903741875 
0 0 -0.0903741875 0 0 -0.0903741875 0 0 -0.0903741875 
0 0 -0.0903741875 0 0 -0.0903741875 0 0 -0.0903741875 
0 0 -0.0903741875 0 0 -0.0903741875 0 0 -0.0903741875 
0 0 -0.0903741875 0 0 -0.0903741875 0 0 -0.0903741875 
0 0 -0.0903741875 0 0 -0.0903741875 0 0 -0.0903741875 
0 0 -0.0903741875 0 0 -0.0903741875 0 0 -0.0903741875 
0 0 -0.0123741875 0 0 -0.0903741875 0 0 -0.0903741875 
0 0 -0.0903741875 0 0 -0.0903741875 0 0 -0.0903741875 
0 0 -0.0903741875 0 0 -0.0903741875 0 0 -0.0903741875 
0 0 -0.0903741875 0 0 -0.0903741875 0 0 -0.0903741875 
0 0 -0.0903741875 0 0 -0.0903741875 0 0 -0.0903741875 
0 0 -0.0903741875 0 0 -0.0903741875 0 0 -0.0903741875 
0 0 -0.0903741875 0 0 -0.0903741875 0 0 -0.0903741875 
0 0 -0.0903741875 0 0 -0.0903741875 0 0 -0.0903741875 
0 0 -0.0903741875 0 0 -0.0903741875 0 0 -0.0903741875 
0 0 -0.0903741875 0 0 -0.0903741875 0 0 -0.0123741875 
0 0 -0.0903741875 0 0 -0.0903741875 0 0 -0.0903741875 
0 0 -0.0903741875 0 0 -0.0903741875 0 0 -0.0903741875 
0 0 -0.0903741875 0 0 -0.0903741875 0 0 -0.0903741875 
0 0 -0.0903741875 0 0 -0.0903741875 0 0 -0.0903741875 
0 0 -0.0903741875 0 0 -0.0903741875 0 0 -0.0903741875 
0 0 -0.0903741875 0 0 -0.0221241875 0 0 -0.0903741875 
0 0 -0.0903741875 0 0 -0.0708741875 0 0 -0.0903741875 
0 0 -0.0903741875 0 0 -0.0903741875 0 0 -0.0903741875 
0 0 -0.0903741875 0 0 -0.0903741875 0 0 -0.0903741875 
0 0 -0.0903741875 0 0 -0.0903741875 0 0 -0.0903741875 
0 0 -0.0903741875 0 0 -0.0903741875 0 0 -0.0903741875 
0 0 -0.0773741875 0 0 -0.0903741875 0 0 -0.0903741875 
0 0 -0.0903741875 0 0 -0.0903741875 0 0 -0.0903741875 
0 0 -0.0903741875 0 0 -0.0903741875 0 0 -0.0903741875 
0 0 -0.0903741875 0 0 -0.0903741875 0 0 -0.0903741875 
0 0 -0.0903741875 0 0 -0.0903741875 0 0 -0.0903741875 
0 0 -0.0903741875 0 0 -0.0903741875 0 0 -0.0903741875 
0 0 -0.0903741875 0 0 -0.0903741875 0 0 -0.0903741875 
0 0 -0.0903741875 0 0 -0.0903741875 0 0 -0.0903741875 
0 0 -0.0903741875 0 0 -0.0903741875 0 0 -0.0903741875 
0 0 -0.0903741875 0 0 -0.0903741875 0 0 -0.0903741875 
0 0 -0.0221241875 0 0 -0.0903741875 0 0 -0.0903741875 
0 0 -0.0903741875 0 0 -0.0903741875 0 0 -0.0773741875 
0 0 -0.0903741875 0 0 -0.0903741875 0 0 -0.0903741875 
0 0 -0.0903741875 0 0 -0.0903741875 0 0 -0.0903741875 
0 0 -0.0903741875 0 0 -0.0903741875 0 0 -0.0903741875 
0 0 -0.0903741875 0 0 -0.0903741875 0 0 -0.0903741875 
0 0 -0.0903741875 0 0 -0.0903741875 0 0 -0.0903741875 
0 0 -0.0903741875 0 0 -0.0903741875 0 0 -0.0903741875 
0 0 -0.0903741875 0 0 -0.0903741875 0 0 -0.0903741875 
0 0 -0.0903741875 0 0 -0.0903741875 0 0 -0.0903741875 
0 0 -0.0903741875 0 0 -0.0903741875 0 0 -0.0903741875 
0 0 -0.0903741875 0 0 -0.0903741875 0 0 -0.0903741875 
0 0 -0.0903741875 0 0 -0.0903741875 0 0 -0.0903741875 
0 0 -0.0903741875 0 0 -0.0903741875 0 0 -0.0903741875 
0 0 -0.0903741875 0 0 -0.0286241875 0 0 -0.0903741875 
0 0 -0.0903741875 0 0 -0.0903741875 0 0 -0.0903741875 
0 0 -0.0903741875 0 0 -0.0903741875 0 0 -0.0903741875 
0 0 -0.0903741875 0 0 -0.0903741875 0 0 -0.0903741875 
0 0 -0.0221241875 0 0 -0.0903741875 0 0 -0.0903741875 
0 0 -0.0903741875 0 0 -0.0903741875 0 0 -0.0903741875 
0 0 -0.0903741875 0 0 -0.0903741875 0 0 -0.0903741875 
0 0 -0.0903741875 0 0 -0.0903741875 0 0 -0.0903741875 
0 0 -0.0903741875 0 0 -0.0903741875 0 0 -0.0903741875 
0 0 -0.0903741875 0 0 -0.0903741875 0 0 -0.0903741875 
0 0 -0.0903741875 0 0 -0.0903741875 0 0 -0.0903741875 
0 0 -0.0903741875 0 0 -0.0903741875 0 0 -0.0903741875 
0 0 -0.0903741875 0 0 -0.0903741875 0 0 -0.0903741875 
0 0 -0.0903741875 0 0 -0.0903741875 0 0 -0.0903741875 

f 3 522 double
0 0 -1.7425367252e-10 0 0 -1.7425367252e-10 0 0 -1.7425367252e-10 
0 0 -8.9019973083e-09 0 0 -1.7425367252e-10 0 0 -1.7425367252e-10 
0 0 -1.7425367252e-10 0 0 -1.7425367252e-10 0 0 -1.7425367252e-10 
0 0 -1.7425367252e-10 0 0 -1.7425367252e-10 0 0 -1.7425367252e-10 
0 0 -1.7425367252e-10 0 0 -1.7425367252e-10 0 0 -1.7425367252e-10 
0 0 -1.7425367252e-10 0 0 -1.7425367252e-10 0 0 -1.7425367252e-10 
0 0 -1.7425367252e-10 0 0 -1.7425367252e-10 0 0 -1.7425367252e-10 
0 0 -1.7425367252e-10 0 0 -1.7425367252e-10 0 0 -1.7425367252e-10 
0 0 -1.7425367252e-10 0 0 -1.7425367252e-10 0 0 -1.7425367252e-10 
0 0 -1.7425367252e-10 0 0 -1.7425367252e-10 0 0 -1.7425367252e-10 
0 0 -1.7425367252e-10 0 0 -8.9019973083e-09 0 0 -1.7425367252e-10 
0 0 -1.7425367252e-10 0 0 -1.7425367252e-10 0 0 -8.9019973083e-09 
0 0 -1.7425367252e-10 0 0 -1.7425367252e-10 0 0 -1.7425367252e-10 
0 0 -1.7425367252e-10 0 0 -1.7425367252e-10 0 0 -1.7425367252e-10 
0 0 -1.7425367252e-10 0 0 -1.7425367252e-10 0 0 -1.7425367252e-10 
0 0 -1.7425367252e-10 0 0 -1.7425367252e-10 0 0 -1.7425367252e-10 
0 0 -1.7425367252e-10 0 0 -1.7425367252e-10 0 0 -1.7425367252e-10 
0 0 -1.7425367252e-10 0 0 -1.7425367252e-10 0 0 -1.7425367252e-10 
0 0 -1.7425367252e-10 0 0 -1.7425367252e-10 0 0 -1.7425367252e-10 
0 0 -1.7425367252e-10 0 0 -1.7425367252e-10 0 0 -1.7425367252e-10 
0 0 -1.7425367252e-10 0 0 -1.7425367252e-10 0 0 -1.7425367252e-10 
0 0 -1.7425367252e-10 0 0 -1.7425367252e-10 0 0 -1.7425367252e-10 
0 0 -1.7425367252e-10 0 0 -8.9019973083e-09 0 0 -1.7425367252e-10 
0 0 -1.7425367252e-10 0 0 -1.7425367252e-10 0 0 -1.7425367252e-10 
0 0 -1.7425367252e-10 0 0 -1.7425367252e-10 0 0 -8.9019973083e-09 
0 0 -1.7425367252e-10 0 0 -1.7425367252e-10 0 0 -1.7425367252e-10 
0 0 -1.7425367252e-10 0 0 -1.7425367252e-10 0 0 -1.7425367252e-10 
0 0 -1.7425367252e-10 0 0 -1.7425367252e-10 0 0 -1.7425367252e-10 
0 0 -1.7425367252e-10 0 0 -1.7425367252e-10 0 0 -1.7425367252e-10 
0 0 -1.7425367252e-10 0 0 -1.7425367252e-10 0 0 -1.7425367252e-10 
0 0 -1.7425367252e-10 0 0 -1.7425367252e-10 0 0 -1.7425367252e-10 
0 0 -1.7425367252e-10 0 0 -8.9019973083e-09 0 0 -8.9019973083e-09 
0 0 -1.7425367252e-10 0 0 -1.7425367252e-10 0 0 -1.7425367252e-10 
0 0 -8.9019973083e-09 0 0 -1.7425367252e-10 0 0 -1.7425367252e-10 
0 0 -1.7425367252e-10 0 0 -1.7425367252e-10 0 0 -1.7425367252e-10 
0 0 -1.7425367252e-10 0 0 -1.7425367252e-10 0 0 -1.7425367252e-10 
0 0 -1.7425367252e-10 0 0 -1.7425367252e-10 0 0 -1.7425367252e-10 
0 0 -1.7425367252e-10 0 0 -1.7425367252e-10 0 0 -1.7425367252e-10 
0 0 -1.7425367252e-10 0 0 -1.7425367252e-10 0 0 -1.7425367252e-10 
0 0 -1.7425367252e-10 0 0 -1.7425367252e-10 0 0 -1.7425367252e-10 
0 0 -1.7425367252e-10 0 0 -1.7425367252e-10 0 0 -1.7425367252e-10 
0 0 -1.7425367252e-10 0 0 -1.7425367252e-10 0 0 -1.7425367252e-10 
0 0 -8.9019973083e-09 0 0 -1.7425367252e-10 0 0 -1.7425367252e-10 
0 0 -1.7425367252e-10 0 0 -1.7425367252e-10 0 0 -1.7425367252e-10 
0 0 -1.7425367252e-10 0 0 -1.7425367252e-10 0 0 -1.7425367252e-10 
0 0 -1.7425367252e-10 0 0 -1.7425367252e-10 0 0 -1.7425367252e-10 
0 0 -1.7425367252e-10 0 0 -1.7425367252e-10 0 0 -1.7425367252e-10 
0 0 -1.7425367252e-10 0 0 -1.7425367252e-10 0 0 -1.7425367252e-10 
0 0 -1.7425367252e-10 0 0 -1.7425367252e-10 0 0 -1.7425367252e-10 
0 0 -1.7425367252e-10 0 0 -1.7425367252e-10 0 0 -1.7425367252e-10 
0 0 -1.7425367252e-10 0 0 -8.9019973083e-09 0 0 -1.7425367252e-10 
0 0 -1.7425367252e-10 0 0 -1.7425367252e-10 0 0 -8.9019973083e-09 
0 0 -1.7425367252e-10 0 0 -1.7425367252e-10 0 0 -1.7425367252e-10 
0 0 -1.7425367252e-10 0 0 -1.7425367252e-10 0 0 -1.7425367252e-10 
0 0 -1.7425367252e-10 0 0 -1.7425367252e-10 0 0 -1.7425367252e-10 
0 0 -1.7425367252e-10 0 0 -1.7425367252e-10 0 0 -6.8918688838e-08 
0 0 -1.7425367252e-10 0 0 -1.7425367252e-10 0 0 -1.7425367252e-10 
0 0 -1.7425367252e-10 0 0 -1.7425367252e-10 0 0 -1.7425367252e-10 
0 0 -1.7425367252e-10 0 0 -1.7425367252e-10 0 0 -1.7425367252e-10 
0 0 -1.7425367252e-10 0 0 -1.7425367252e-10 0 0 -1.7425367252e-10 
0 0 -1.7425367252e-10 0 0 -1.7425367252e-10 0 0 -1.7425367252e-10 
0 0 -1.7425367252e-10 0 0 -1.7425367252e-10 0 0 -1.7425367252e-10 
0 0 -1.7425367252e-10 0 0 -1.7425367252e-10 0 0 -1.7425367252e-10 
0 0 -1.7425367252e-10 0 0 -1.7425367252e-10 0 0 -1.7425367252e-10 
0 0 -1.7425367252e-10 0 0 -1.7425367252e-10 0 0 -1.7425367252e-10 
0 0 -1.7425367252e-10 0 0 -1.7425367252e-10 0 0 -1.7425367252e-10 
0 0 -1.7425367252e-10 0 0 -1.7425367252e-10 0 0 -1.7425367252e-10 
0 0 -1.7425367252e-10 0 0 -1.7425367252e-10 0 0 -1.7425367252e-10 
0 0 -1.7425367252e-10 0 0 -1.7425367252e-10 0 0 -1.7425367252e-10 
0 0 -1.7425367252e-10 0 0 -1.7425367252e-10 0 0 -1.7425367252e-10 
0 0 -1.7425367252e-10 0 0 -1.7425367252e-10 0 0 -1.7425367252e-10 
0 0 -1.7425367252e-10 0 0 -1.7425367252e-10 0 0 -1.7425367252e-10 
0 0 -8.9019973083e-09 0 0 -1.7425367252e-10 0 0 -1.7425367252e-10 
0 0 -1.7425367252e-10 0 0 -1.7425367252e-10 0 0 -1.7425367252e-10 
0 0 -1.7425367252e-10 0 0 -1.7425367252e-10 0 0 -1.7425367252e-10 
0 0 -1.7425367252e-10 0 0 -1.7425367252e-10 0 0 -1.7425367252e-10 
0 0 -1.7425367252e-10 0 0 -1.7425367252e-10 0 0 -1.7425367252e-10 
0 0 -1.7425367252e-10 0 0 -1.7425367252e-10 0 0 -1.7425367252e-10 
0 0 -1.7425367252e-10 0 0 -1.7425367252e-10 0 0 -1.7425367252e-10 
0 0 -1.7425367252e-10 0 0 -1.7425367252e-10 0 0 -1.7425367252e-10 
0 0 -1.7425367252e-10 0 0 -1.7425367252e-10 0 0 -1.7425367252e-10 
0 0 -1.7425367252e-10 0 0 -1.7425367252e-10 0 0 -1.7425367252e-10 
0 0 -1.7425367252e-10 0 0 -1.7425367252e-10 0 0 -1.7425367252e-10 
0 0 -1.7425367252e-10 0 0 -1.7425367252e-10 0 0 -1.7425367252e-10 
0 0 -1.7425367252e-10 0 0 -1.7425367252e-10 0 0 -1.7425367252e-10 
0 0 -1.7425367252e-10 0 0 -1.7425367252e-10 0 0 -1.7425367252e-10 
0 0 -1.7425367252e-10 0 0 -1.7425367252e-10 0 0 -1.7425367252e-10 
0 0 -1.7425367252e-10 0 0 -1.7425367252e-10 0 0 -1.7425367252e-10 
0 0 -1.7425367252e-10 0 0 -1.7425367252e-10 0 0 -1.7425367252e-10 
0 0 -1.7425367252e-10 0 0 -1.7425367252e-10 0 0 -1.7425367252e-10 
0 0 -1.7425367252e-10 0 0 -1.7425367252e-10 0 0 -1.7425367252e-10 
0 0 -1.7425367252e-10 0 0 -1.7425367252e-10 0 0 -8.9019973083e-09 
0 0 -1.7425367252e-10 0 0 -1.7425367252e-10 0 0 -1.7425367252e-10 
0 0 -1.7425367252e-10 0 0 -1.7425367252e-10 0 0 -1.7425367252e-10 
0 0 -1.7425367252e-10 0 0 -1.7425367252e-10 0 0 -1.7425367252e-10 
0 0 -1.7425367252e-10 0 0 -1.7425367252e-10 0 0 -1.7425367252e-10 
0 0 -1.7425367252e-10 0 0 -1.7425367252e-10 0 0 -1.7425367252e-10 
0 0 -1.7425367252e-10 0 0 -1.7425367252e-10 0 0 -1.7425367252e-10 
0 0 -1.7425367252e-10 0 0 -1.7425367252e-10 0 0 -1.7425367252e-10 
0 0 -1.7425367252e-10 0 0 -1.7425367252e-10 0 0 -1.7425367252e-10 
0 0 -1.7425367252e-10 0 0 -1.7425367252e-10 0 0 -1.7425367252e-10 
0 0 -1.7425367252e-10 0 0 -1.7425367252e-10 0 0 -1.7425367252e-10 
0 0 -1.7425367252e-10 0 0 -1.7425367252e-10 0 0 -1.7425367252e-10 
0 0 -1.7425367252e-10 0 0 -1.7425367252e-10 0 0 -1.7425367252e-10 
0 0 -1.7425367252e-10 0 0 -1.7425367252e-10 0 0 -1.7425367252e-10 
0 0 -1.7425367252e-10 0 0 -1.7425367252e-10 0 0 -1.7425367252e-10 
0 0 -1.7425367252e-10 0 0 -1.7425367252e-10 0 0 -1.7425367252e-10 
0 0 -1.7425367252e-10 0 0 -1.7425367252e-10 0 0 -1.7425367252e-10 
0 0 -1.7425367252e-10 0 0 -1.7425367252e-10 0 0 -1.7425367252e-10 
0 0 -1.7425367252e-10 0 0 -1.7425367252e-10 0 0 -1.7425367252e-10 
0 0 -1.7425367252e-10 0 0 -1.7425367252e-10 0 0 -1.7425367252e-10 
0 0 -1.7425367252e-10 0 0 -1.7425367252e-10 0 0 -1.7425367252e-10 
0 0 -1.7425367252e-10 0 0 -1.7425367252e-10 0 0 -1.7425367252e-10 
0 0 -1.7425367252e-10 0 0 -1.7425367252e-10 0 0 -1.7425367252e-10 
0 0 -1.7425367252e-10 0 0 -1.7425367252e-10 0 0 -1.7425367252e-10 
0 0 -1.7425367252e-10 0 0 -1.7425367252e-10 0 0 -1.7425367252e-10 
0 0 -1.7425367252e-10 0 0 -1.7425367252e-10 0 0 -1.7425367252e-10 
0 0 -1.7425367252e-10 0 0 -1.7425367252e-10 0 0 -1.7425367252e-10 
0 0 -1.7425367252e-10 0 0 -1.7425367252e-10 0 0 -1.7425367252e-10 
0 0 -1.7425367252e-10 0 0 -1.7425367252e-10 0 0 -1.7425367252e-10 
0 0 -1.7425367252e-10 0 0 -5.3297119368e-07 0 0 -1.7425367252e-10 
0 0 -1.7425367252e-10 0 0 -1.7425367252e-10 0 0 -1.7425367252e-10 
0 0 -1.7425367252e-10 0 0 -1.7425367252e-10 0 0 -1.7425367252e-10 
0 0 -1.7425367252e-10 0 0 -1.7425367252e-10 0 0 -1.7425367252e-10 
0 0 -1.7425367252e-10 0 0 -1.7425367252e-10 0 0 -1.7425367252e-10 
0 0 -1.7425367252e-10 0 0 -1.7425367252e-10 0 0 -1.7425367252e-10 
0 0 -1.7425367252e-10 0 0 -1.7425367252e-10 0 0 -1.7425367252e-10 
0 0 -1.7425367252e-10 0 0 -1.7425367252e-10 0 0 -1.7425367252e-10 
0 0 -1.7425367252e-10 0 0 -1.7425367252e-10 0 0 -1.7425367252e-10 
0 0 -1.7425367252e-10 0 0 -1.7425367252e-10 0 0 -1.7425367252e-10 
0 0 -1.7425367252e-10 0 0 -1.7425367252e-10 0 0 -1.7425367252e-10 
0 0 -1.7425367252e-10 0 0 -1.7425367252e-10 0 0 -1.7425367252e-10 
0 0 -1.7425367252e-10 0 0 -1.7425367252e-10 0 0 -1.7425367252e-10 
0 0 -1.7425367252e-10 0 0 -1.7425367252e-10 0 0 -1.7425367252e-10 
0 0 -1.7425367252e-10 0 0 -1.7425367252e-10 0 0 -1.7425367252e-10 
0 0 -8.9019973083e-09 0 0 -1.7425367252e-10 0 0 -1.7425367252e-10 
0 0 -1.7425367252e-10 0 0 -1.7425367252e-10 0 0 -1.7425367252e-10 
0 0 -1.7425367252e-10 0 0 -1.7425367252e-10 0 0 -1.7425367252e-10 
0 0 -1.7425367252e-10 0 0 -1.7425367252e-10 0 0 -8.9019973083e-09 
0 0 -1.7425367252e-10 0 0 -1.7425367252e-10 0 0 -1.7425367252e-10 
0 0 -1.7425367252e-10 0 0 -1.7425367252e-10 0 0 -1.7425367252e-10 
0 0 -1.7425367252e-10 0 0 -1.7425367252e-10 0 0 -1.7425367252e-10 
0 0 -1.7425367252e-10 0 0 -1.7425367252e-10 0 0 -1.7425367252e-10 
0 0 -1.7425367252e-10 0 0 -1.7425367252e-10 0 0 -1.7425367252e-10 
0 0 -1.7425367252e-10 0 0 -1.7425367252e-10 0 0 -1.7425367252e-10 
0 0 -1.7425367252e-10 0 0 -1.7425367252e-10 0 0 -1.7425367252e-10 
0 0 -1.7425367252e-10 0 0 -1.7425367252e-10 0 0 -1.7425367252e-10 
0 0 -1.7425367252e-10 0 0 -1.7425367252e-10 0 0 -1.7425367252e-10 
0 0 -1.7425367252e-10 0 0 -1.7425367252e-10 0 0 -1.7425367252e-10 
0 0 -1.7425367252e-10 0 0 -1.7425367252e-10 0 0 -1.7425367252e-10 
0 0 -1.7425367252e-10 0 0 -1.7425367252e-10 0 0 -1.7425367252e-10 
0 0 -1.7425367252e-10 0 0 -1.7425367252e-10 0 0 -1.7425367252e-10 
0 0 -1.7425367252e-10 0 0 -1.7425367252e-10 0 0 -1.7425367252e-10 
0 0 -1.7425367252e-10 0 0 -1.7425367252e-10 0 0 -1.7425367252e-10 
0 0 -1.7425367252e-10 0 0 -1.7425367252e-10 0 0 -1.7425367252e-10 
0 0 -1.7425367252e-10 0 0 -1.7425367252e-10 0 0 -1.7425367252e-10 
0 0 -1.7425367252e-10 0 0 -1.7425367252e-10 0 0 -1.7425367252e-10 
0 0 -1.7425367252e-10 0 0 -1.7425367252e-10 0 0 -1.7425367252e-10 
0 0 -1.7425367252e-10 0 0 -1.7425367252e-10 0 0 -1.7425367252e-10 
0 0 -1.7425367252e-10 0 0 -1.7425367252e-10 0 0 -1.7425367252e-10 
0 0 -1.7425367252e-10 0 0 -1.7425367252e-10 0 0 -1.7425367252e-10 
0 0 -1.7425367252e-10 0 0 -1.7425367252e-10 0 0 -1.7425367252e-10 
0 0 -1.7425367252e-10 0 0 -1.7425367252e-10 0 0 -1.7425367252e-10 
0 0 -1.7425367252e-10 0 0 -1.7425367252e-10 0 0 -1.7425367252e-10 
0 0 -8.9019973083e-09 0 0 -1.7425367252e-10 0 0 -1.7425367252e-10 
0 0 -1.7425367252e-10 0 0 -1.7425367252e-10 0 0 -1.7425367252e-10 
0 0 -1.7425367252e-10 0 0 -1.7425367252e-10 0 0 -1.7425367252e-10 
0 0 -1.7425367252e-10 0 0 -1.7425367252e-10 0 0 -1.7425367252e-10 
0 0 -1.7425367252e-10 0 0 -1.7425367252e-10 0 0 -1.7425367252e-10 
0 0 -1.7425367252e-10 0 0 -1.7425367252e-10 0 0 -1.7425367252e-10 
0 0 -1.7425367252e-10 0 0 -1.7425367252e-10 0 0 -1.7425367252e-10 
0 0 -1.7425367252e-10 0 0 -1.7425367252e-10 0 0 -1.7425367252e-10 
0 0 -1.7425367252e-10 0 0 -1.7425367252e-10 0 0 -1.7425367252e-10 
0 0 -1.7425367252e-10 0 0 -1.7425367252e-10 0 0 -1.7425367252e-10 

radius 1 522 double
2e-05 2e-05 2e-05 7.5e-05 2e-05 2e-05 2e-05 2e-05 2e-05 
2e-05 2e-05 2e-05 2e-05 2e-05 2e-05 2e-05 2e-05 2e-05 
2e-05 2e-05 2e-05 2e-05 2e-05 2e-05 2e-05 2e-05 2e-05 
2e-05 2e-05 2e-05 2e-05 7.5e-05 2e-05 2e-05 2e-05 7.5e-05 
2e-05 2e-05 2e-05 2e-05 2e-05 2e-05 2e-05 2e-05 2e-05 
2e-05 2e-05 2e-05 2e-05 2e-05 2e-05 2e-05 2e-05 2e-05 
2e-05 2e-05 2e-05 2e-05 2e-05 2e-05 2e-05 2e-05 2e-05 
2e-05 2e-05 2e-05 2e-05 7.5e-05 2e-05 2e-05 2e-05 2e-05 
2e-05 2e-05 7.5e-05 2e-05 2e-05 2e-05 2e-05 2e-05 2e-05 
2e-05 2e-05 2e-05 2e-05 2e-05 2e-05 2e-05 2e-05 2e-05 
2e-05 2e-05 2e-05 2e-05 7.5e-05 7.5e-05 2e-05 2e-05 2e-05 
7.5e-05 2e-05 2e-05 2e-05 2e-05 2e-05 2e-05 2e-05 2e-05 
2e-05 2e-05 2e-05 2e-05 2e-05 2e-05 2e-05 2e-05 2e-05 
2e-05 2e-05 2e-05 2e-05 2e-05 2e-05 2e-05 2e-05 2e-05 
7.5e-05 2e-05 2e-05 2e-05 2e-05 2e-05 2e-05 2e-05 2e-05 
2e-05 2e-05 2e-05 2e-05 2e-05 2e-05 2e-05 2e-05 2e-05 
2e-05 2e-05 2e-05 2e-05 2e-05 2e-05 2e-05 7.5e-05 2e-05 
2e-05 2e-05 7.5e-05 2e-05 2e-05 2e-05 2e-05 2e-05 2e-05 
2e-05 2e-05 2e-05 2e-05 2e-05 0.00015 2e-05 2e-05 2e-05 
2e-05 2e-05 2e-05 2e-05 2e-05 2e-05 2e-05 2e-05 2e-05 
2e-05 2e-05 2e-05 2e-05 2e-05 2e-05 2e-05 2e-05 2e-05 
2e-05 2e-05 2e-05 2e-05 2e-05 2e-05 2e-05 2e-05 2e-05 
2e-05 2e-05 2e-05 2e-05 2e-05 2e-05 2e-05 2e-05 2e-05 
2e-05 2e-05 2e-05 2e-05 2e-05 2e-05 2e-05 2e-05 2e-05 
7.5e-05 2e-05 2e-05 2e-05 2e-05 2e-05 2e-05 2e-05 2e-05 
2e-05 2e-05 2e-05 2e-05 2e-05 2e-05 2e-05 2e-05 2e-05 
2e-05 2e-05 2e-05 2e-05 2e-05 2e-05 2e-05 2e-05 2e-05 
2e-05 2e-05 2e-05 2e-05 2e-05 2e-05 2e-05 2e-05 2e-05 
2e-05 2e-05 2e-05 2e-05 2e-05 2e-05 2e-05 2e-05 2e-05 
2e-05 2e-05 2e-05 2e-05 2e-05 2e-05 2e-05 2e-05 2e-05 
2e-05 2e-05 2e-05 2e-05 2e-05 7.5e-05 2e-05 2e-05 2e-05 
2e-05 2e-05 2e-05 2e-05 2e-05 2e-05 2e-05 2e-05 2e-05 
2e-05 2e-05 2e-05 2e-05 2e-05 2e-05 2e-05 2e-05 2e-05 
2e-05 2e-05 2e-05 2e-05 2e-05 2e-05 2e-05 2e-05 2e-05 
2e-05 2e-05 2e-05 2e-05 2e-05 2e-05 2e-05 2e-05 2e-05 
2e-05 2e-05 2e-05 2e-05 2e-05 2e-05 2e-05 2e-05 2e-05 
2e-05 2e-05 2e-05 2e-05 2e-05 2e-05 2e-05 2e-05 2e-05 
2e-05 2e-05 2e-05 2e-05 2e-05 2e-05 2e-05 2e-05 2e-05 
2e-05 2e-05 2e-05 2e-05 2e-05 2e-05 2e-05 2e-05 2e-05 
2e-05 2e-05 2e-05 2e-05 2e-05 2e-05 2e-05 2e-05 2e-05 
2e-05 0.0003 2e-05 2e-05 2e-05 2e-05 2e-05 2e-05 2e-05 
2e-05 2e-05 2e-05 2e-05 2e-05 2e-05 2e-05 2e-05 2e-05 
2e-05 2e-05 2e-05 2e-05 2e-05 2e-05 2e-05 2e-05 2e-05 
2e-05 2e-05 2e-05 2e-05 2e-05 2e-05 2e-05 2e-05 2e-05 
2e-05 2e-05 2e-05 2e-05 2e-05 2e-05 2e-05 2e-05 2e-05 
7.5e-05 2e-05 2e-05 2e-05 2e-05 2e-05 2e-05 2e-05 2e-05 
2e-05 2e-05 7.5e-05 2e-05 2e-05 2e-05 2e-05 2e-05 2e-05 
2e-05 2e-05 2e-05 2e-05 2e-05 2e-05 2e-05 2e-05 2e-05 
2e-05 2e-05 2e-05 2e-05 2e-05 2e-05 2e-05 2e-05 2e-05 
2e-05 2e-05 2e-05 2e-05 2e-05 2e-05 2e-05 2e-05 2e-05 
2e-05 2e-05 2e-05 2e-05 2e-05 2e-05 2e-05 2e-05 2e-05 
2e-05 2e-05 2e-05 2e-05 2e-05 2e-05 2e-05 2e-05 2e-05 
2e-05 2e-05 2e-05 2e-05 2e-05 2e-05 2e-05 2e-05 2e-05 
2e-05 2e-05 2e-05 2e-05 2e-05 2e-05 2e-05 2e-05 2e-05 
2e-05 2e-05 2e-05 2e-05 2e-05 2e-05 7.5e-05 2e-05 2e-05 
2e-05 2e-05 2e-05 2e-05 2e-05 2e-05 2e-05 2e-05 2e-05 
2e-05 2e-05 2e-05 2e-05 2e-05 2e-05 2e-05 2e-05 2e-05 
2e-05 2e-05 2e-05 2e-05 2e-05 2e-05 2e-05 2e-05 2e-05 

omega 3 522 double
0 0 0 0 0 0 0 0 0 
0 0 0 0 0 0 0 0 0 
0 0 0 0 0 0 0 0 0 
0 0 0 0 0 0 0 0 0 
0 0 0 0 0 0 0 0 0 
0 0 0 0 0 0 0 0 0 
0 0 0 0 0 0 0 0 0 
0 0 0 0 0 0 0 0 0 
0 0 0 0 0 0 0 0 0 
0 0 0 0 0 0 0 0 0 
0 0 0 0 0 0 0 0 0 
0 0 0 0 0 0 0 0 0 
0 0 0 0 0 0 0 0 0 
0 0 0 0 0 0 0 0 0 
0 0 0 0 0 0 0 0 0 
0 0 0 0 0 0 0 0 0 
0 0 0 0 0 0 0 0 0 
0 0 0 0 0 0 0 0 0 
0 0 0 0 0 0 0 0 0 
0 0 0 0 0 0 0 0 0 
0 0 0 0 0 0 0 0 0 
0 0 0 0 0 0 0 0 0 
0 0 0 0 0 0 0 0 0 
0 0 0 0 0 0 0 0 0 
0 0 0 0 0 0 0 0 0 
0 0 0 0 0 0 0 0 0 
0 0 0 0 0 0 0 0 0 
0 0 0 0 0 0 0 0 0 
0 0 0 0 0 0 0 0 0 
0 0 0 0 0 0 0 0 0 
0 0 0 0 0 0 0 0 0 
0 0 0 0 0 0 0 0 0 
0 0 0 0 0 0 0 0 0 
0 0 0 0 0 0 0 0 0 
0 0 0 0 0 0 0 0 0 
0 0 0 0 0 0 0 0 0 
0 0 0 0 0 0 0 0 0 
0 0 0 0 0 0 0 0 0 
0 0 0 0 0 0 0 0 0 
0 0 0 0 0 0 0 0 0 
0 0 0 0 0 0 0 0 0 
0 0 0 0 0 0 0 0 0 
0 0 0 0 0 0 0 0 0 
0 0 0 0 0 0 0 0 0 
0 0 0 0 0 0 0 0 0 
0 0 0 0 0 0 0 0 0 
0 0 0 0 0 0 0 0 0 
0 0 0 0 0 0 0 0 0 
0 0 0 0 0 0 0 0 0 
0 0 0 0 0 0 0 0 0 
0 0 0 0 0 0 0 0 0 
0 0 0 0 0 0 0 0 0 
0 0 0 0 0 0 0 0 0 
0 0 0 0 0 0 0 0 0 
0 0 0 0 0 0 0 0 0 
0 0 0 0 0 0 0 0 0 
0 0 0 0 0 0 0 0 0 
0 0 0 0 0 0 0 0 0 
0 0 0 0 0 0 0 0 0 
0 0 0 0 0 0 0 0 0 
0 0 0 0 0 0 0 0 0 
0 0 0 0 0 0 0 0 0 
0 0 0 0 0 0 0 0 0 
0 0 0 0 0 0 0 0 0 
0 0 0 0 0 0 0 0 0 
0 0 0 0 0 0 0 0 0 
0 0 0 0 0 0 0 0 0 
0 0 0 0 0 0 0 0 0 
0 0 0 0 0 0 0 0 0 
0 0 0 0 0 0 0 0 0 
0 0 0 0 0 0 0 0 0 
0 0 0 0 0 0 0 0 0 
0 0 0 0 0 0 0 0 0 
0 0 0 0 0 0 0 0 0 
0 0 0 0 0 0 0 0 0 
0 0 0 0 0 0 0 0 0 
0 0 0 0 0 0 0 0 0 
0 0 0 0 0 0 0 0 0 
0 0 0 0 0 0 0 0 0 
0 0 0 0 0 0 0 0 0 
0 0 0 0 0 0 0 0 0 
0 0 0 0 0 0 0 0 0 
0 0 0 0 0 0 0 0 0 
0 0 0 0 0 0 0 0 0 
0 0 0 0 0 0 0 0 0 
0 0 0 0 0 0 0 0 0 
0 0 0 0 0 0 0 0 0 
0 0 0 0 0 0 0 0 0 
0 0 0 0 0 0 0 0 0 
0 0 0 0 0 0 0 0 0 
0 0 0 0 0 0 0 0 0 
0 0 0 0 0 0 0 0 0 
0 0 0 0 0 0 0 0 0 
0 0 0 0 0 0 0 0 0 
0 0 0 0 0 0 0 0 0 
0 0 0 0 0 0 0 0 0 
0 0 0 0 0 0 0 0 0 
0 0 0 0 0 0 0 0 0 
0 0 0 0 0 0 0 0 0 
0 0 0 0 0 0 0 0 0 
0 0 0 0 0 0 0 0 0 
0 0 0 0 0 0 0 0 0 
0 0 0 0 0 0 0 0 0 
0 0 0 0 0 0 0 0 0 
0 0 0 0 0 0 0 0 0 
0 0 0 0 0 0 0 0 0 
0 0 0 0 0 0 0 0 0 
0 0 0 0 0 0 0 0 0 
0 0 0 0 0 0 0 0 0 
0 0 0 0 0 0 0 0 0 
0 0 0 0 0 0 0 0 0 
0 0 0 0 0 0 0 0 0 
0 0 0 0 0 0 0 0 0 
0 0 0 0 0 0 0 0 0 
0 0 0 0 0 0 0 0 0 
0 0 0 0 0 0 0 0 0 
0 0 0 0 0 0 0 0 0 
0 0 0 0 0 0 0 0 0 
0 0 0 0 0 0 0 0 0 
0 0 0 0 0 0 0 0 0 
0 0 0 0 0 0 0 0 0 
0 0 0 0 0 0 0 0 0 
0 0 0 0 0 0 0 0 0 
0 0 0 0 0 0 0 0 0 
0 0 0 0 0 0 0 0 0 
0 0 0 0 0 0 0 0 0 
0 0 0 0 0 0 0 0 0 
0 0 0 0 0 0 0 0 0 
0 0 0 0 0 0 0 0 0 
0 0 0 0 0 0 0 0 0 
0 0 0 0 0 0 0 0 0 
0 0 0 0 0 0 0 0 0 
0 0 0 0 0 0 0 0 0 
0 0 0 0 0 0 0 0 0 
0 0 0 0 0 0 0 0 0 
0 0 0 0 0 0 0 0 0 
0 0 0 0 0 0 0 0 0 
0 0 0 0 0 0 0 0 0 
0 0 0 0 0 0 0 0 0 
0 0 0 0 0 0 0 0 0 
0 0 0 0 0 0 0 0 0 
0 0 0 0 0 0 0 0 0 
0 0 0 0 0 0 0 0 0 
0 0 0 0 0 0 0 0 0 
0 0 0 0 0 0 0 0 0 
0 0 0 0 0 0 0 0 0 
0 0 0 0 0 0 0 0 0 
0 0 0 0 0 0 0 0 0 
0 0 0 0 0 0 0 0 0 
0 0 0 0 0 0 0 0 0 
0 0 0 0 0 0 0 0 0 
0 0 0 0 0 0 0 0 0 
0 0 0 0 0 0 0 0 0 
0 0 0 0 0 0 0 0 0 
0 0 0 0 0 0 0 0 0 
0 0 0 0 0 0 0 0 0 
0 0 0 0 0 0 0 0 0 
0 0 0 0 0 0 0 0 0 
0 0 0 0 0 0 0 0 0 
0 0 0 0 0 0 0 0 0 
0 0 0 0 0 0 0 0 0 
0 0 0 0 0 0 0 0 0 
0 0 0 0 0 0 0 0 0 
0 0 0 0 0 0 0 0 0 
0 0 0 0 0 0 0 0 0 
0 0 0 0 0 0 0 0 0 
0 0 0 0 0 0 0 0 0 
0 0 0 0 0 0 0 0 0 
0 0 0 0 0 0 0 0 0 
0 0 0 0 0 0 0 0 0 
0 0 0 0 0 0 0 0 0 
0 0 0 0 0 0 0 0 0 
0 0 0 0 0 0 0 0 0 
0 0 0 0 0 0 0 0 0 

fx_mag_viz 1 522 double
0 0 0 0 0 0 0 0 0 
0 0 0 0 0 0 0 0 0 
0 0 0 0 0 0 0 0 0 
0 0 0 0 0 0 0 0 0 
0 0 0 0 0 0 0 0 0 
0 0 0 0 0 0 0 0 0 
0 0 0 0 0 0 0 0 0 
0 0 0 0 0 0 0 0 0 
0 0 0 0 0 0 0 0 0 
0 0 0 0 0 0 0 0 0 
0 0 0 0 0 0 0 0 0 
0 0 0 0 0 0 0 0 0 
0 0 0 0 0 0 0 0 0 
0 0 0 0 0 0 0 0 0 
0 0 0 0 0 0 0 0 0 
0 0 0 0 0 0 0 0 0 
0 0 0 0 0 0 0 0 0 
0 0 0 0 0 0 0 0 0 
0 0 0 0 0 0 0 0 0 
0 0 0 0 0 0 0 0 0 
0 0 0 0 0 0 0 0 0 
0 0 0 0 0 0 0 0 0 
0 0 0 0 0 0 0 0 0 
0 0 0 0 0 0 0 0 0 
0 0 0 0 0 0 0 0 0 
0 0 0 0 0 0 0 0 0 
0 0 0 0 0 0 0 0 0 
0 0 0 0 0 0 0 0 0 
0 0 0 0 0 0 0 0 0 
0 0 0 0 0 0 0 0 0 
0 0 0 0 0 0 0 0 0 
0 0 0 0 0 0 0 0 0 
0 0 0 0 0 0 0 0 0 
0 0 0 0 0 0 0 0 0 
0 0 0 0 0 0 0 0 0 
0 0 0 0 0 0 0 0 0 
0 0 0 0 0 0 0 0 0 
0 0 0 0 0 0 0 0 0 
0 0 0 0 0 0 0 0 0 
0 0 0 0 0 0 0 0 0 
0 0 0 0 0 0 0 0 0 
0 0 0 0 0 0 0 0 0 
0 0 0 0 0 0 0 0 0 
0 0 0 0 0 0 0 0 0 
0 0 0 0 0 0 0 0 0 
0 0 0 0 0 0 0 0 0 
0 0 0 0 0 0 0 0 0 
0 0 0 0 0 0 0 0 0 
0 0 0 0 0 0 0 0 0 
0 0 0 0 0 0 0 0 0 
0 0 0 0 0 0 0 0 0 
0 0 0 0 0 0 0 0 0 
0 0 0 0 0 0 0 0 0 
0 0 0 0 0 0 0 0 0 
0 0 0 0 0 0 0 0 0 
0 0 0 0 0 0 0 0 0 
0 0 0 0 0 0 0 0 0 
0 0 0 0 0 0 0 0 0 

fy_mag_viz 1 522 double
0 0 0 0 0 0 0 0 0 
0 0 0 0 0 0 0 0 0 
0 0 0 0 0 0 0 0 0 
0 0 0 0 0 0 0 0 0 
0 0 0 0 0 0 0 0 0 
0 0 0 0 0 0 0 0 0 
0 0 0 0 0 0 0 0 0 
0 0 0 0 0 0 0 0 0 
0 0 0 0 0 0 0 0 0 
0 0 0 0 0 0 0 0 0 
0 0 0 0 0 0 0 0 0 
0 0 0 0 0 0 0 0 0 
0 0 0 0 0 0 0 0 0 
0 0 0 0 0 0 0 0 0 
0 0 0 0 0 0 0 0 0 
0 0 0 0 0 0 0 0 0 
0 0 0 0 0 0 0 0 0 
0 0 0 0 0 0 0 0 0 
0 0 0 0 0 0 0 0 0 
0 0 0 0 0 0 0 0 0 
0 0 0 0 0 0 0 0 0 
0 0 0 0 0 0 0 0 0 
0 0 0 0 0 0 0 0 0 
0 0 0 0 0 0 0 0 0 
0 0 0 0 0 0 0 0 0 
0 0 0 0 0 0 0 0 0 
0 0 0 0 0 0 0 0 0 
0 0 0 0 0 0 0 0 0 
0 0 0 0 0 0 0 0 0 
0 0 0 0 0 0 0 0 0 
0 0 0 0 0 0 0 0 0 
0 0 0 0 0 0 0 0 0 
0 0 0 0 0 0 0 0 0 
0 0 0 0 0 0 0 0 0 
0 0 0 0 0 0 0 0 0 
0 0 0 0 0 0 0 0 0 
0 0 0 0 0 0 0 0 0 
0 0 0 0 0 0 0 0 0 
0 0 0 0 0 0 0 0 0 
0 0 0 0 0 0 0 0 0 
0 0 0 0 0 0 0 0 0 
0 0 0 0 0 0 0 0 0 
0 0 0 0 0 0 0 0 0 
0 0 0 0 0 0 0 0 0 
0 0 0 0 0 0 0 0 0 
0 0 0 0 0 0 0 0 0 
0 0 0 0 0 0 0 0 0 
0 0 0 0 0 0 0 0 0 
0 0 0 0 0 0 0 0 0 
0 0 0 0 0 0 0 0 0 
0 0 0 0 0 0 0 0 0 
0 0 0 0 0 0 0 0 0 
0 0 0 0 0 0 0 0 0 
0 0 0 0 0 0 0 0 0 
0 0 0 0 0 0 0 0 0 
0 0 0 0 0 0 0 0 0 
0 0 0 0 0 0 0 0 0 
0 0 0 0 0 0 0 0 0 

fz_mag_viz 1 522 double
0 0 0 0 0 0 0 0 0 
0 0 0 0 0 0 0 0 0 
0 0 0 0 0 0 0 0 0 
0 0 0 0 0 0 0 0 0 
0 0 0 0 0 0 0 0 0 
0 0 0 0 0 0 0 0 0 
0 0 0 0 0 0 0 0 0 
0 0 0 0 0 0 0 0 0 
0 0 0 0 0 0 0 0 0 
0 0 0 0 0 0 0 0 0 
0 0 0 0 0 0 0 0 0 
0 0 0 0 0 0 0 0 0 
0 0 0 0 0 0 0 0 0 
0 0 0 0 0 0 0 0 0 
0 0 0 0 0 0 0 0 0 
0 0 0 0 0 0 0 0 0 
0 0 0 0 0 0 0 0 0 
0 0 0 0 0 0 0 0 0 
0 0 0 0 0 0 0 0 0 
0 0 0 0 0 0 0 0 0 
0 0 0 0 0 0 0 0 0 
0 0 0 0 0 0 0 0 0 
0 0 0 0 0 0 0 0 0 
0 0 0 0 0 0 0 0 0 
0 0 0 0 0 0 0 0 0 
0 0 0 0 0 0 0 0 0 
0 0 0 0 0 0 0 0 0 
0 0 0 0 0 0 0 0 0 
0 0 0 0 0 0 0 0 0 
0 0 0 0 0 0 0 0 0 
0 0 0 0 0 0 0 0 0 
0 0 0 0 0 0 0 0 0 
0 0 0 0 0 0 0 0 0 
0 0 0 0 0 0 0 0 0 
0 0 0 0 0 0 0 0 0 
0 0 0 0 0 0 0 0 0 
0 0 0 0 0 0 0 0 0 
0 0 0 0 0 0 0 0 0 
0 0 0 0 0 0 0 0 0 
0 0 0 0 0 0 0 0 0 
0 0 0 0 0 0 0 0 0 
0 0 0 0 0 0 0 0 0 
0 0 0 0 0 0 0 0 0 
0 0 0 0 0 0 0 0 0 
0 0 0 0 0 0 0 0 0 
0 0 0 0 0 0 0 0 0 
0 0 0 0 0 0 0 0 0 
0 0 0 0 0 0 0 0 0 
0 0 0 0 0 0 0 0 0 
0 0 0 0 0 0 0 0 0 
0 0 0 0 0 0 0 0 0 
0 0 0 0 0 0 0 0 0 
0 0 0 0 0 0 0 0 0 
0 0 0 0 0 0 0 0 0 
0 0 0 0 0 0 0 0 0 
0 0 0 0 0 0 0 0 0 
0 0 0 0 0 0 0 0 0 
0 0 0 0 0 0 0 0 0 

B_magnitude 1 522 double
0 0 0 0 0 0 0 0 0 
0 0 0 0 0 0 0 0 0 
0 0 0 0 0 0 0 0 0 
0 0 0 0 0 0 0 0 0 
0 0 0 0 0 0 0 0 0 
0 0 0 0 0 0 0 0 0 
0 0 0 0 0 0 0 0 0 
0 0 0 0 0 0 0 0 0 
0 0 0 0 0 0 0 0 0 
0 0 0 0 0 0 0 0 0 
0 0 0 0 0 0 0 0 0 
0 0 0 0 0 0 0 0 0 
0 0 0 0 0 0 0 0 0 
0 0 0 0 0 0 0 0 0 
0 0 0 0 0 0 0 0 0 
0 0 0 0 0 0 0 0 0 
0 0 0 0 0 0 0 0 0 
0 0 0 0 0 0 0 0 0 
0 0 0 0 0 0 0 0 0 
0 0 0 0 0 0 0 0 0 
0 0 0 0 0 0 0 0 0 
0 0 0 0 0 0 0 0 0 
0 0 0 0 0 0 0 0 0 
0 0 0 0 0 0 0 0 0 
0 0 0 0 0 0 0 0 0 
0 0 0 0 0 0 0 0 0 
0 0 0 0 0 0 0 0 0 
0 0 0 0 0 0 0 0 0 
0 0 0 0 0 0 0 0 0 
0 0 0 0 0 0 0 0 0 
0 0 0 0 0 0 0 0 0 
0 0 0 0 0 0 0 0 0 
0 0 0 0 0 0 0 0 0 
0 0 0 0 0 0 0 0 0 
0 0 0 0 0 0 0 0 0 
0 0 0 0 0 0 0 0 0 
0 0 0 0 0 0 0 0 0 
0 0 0 0 0 0 0 0 0 
0 0 0 0 0 0 0 0 0 
0 0 0 0 0 0 0 0 0 
0 0 0 0 0 0 0 0 0 
0 0 0 0 0 0 0 0 0 
0 0 0 0 0 0 0 0 0 
0 0 0 0 0 0 0 0 0 
0 0 0 0 0 0 0 0 0 
0 0 0 0 0 0 0 0 0 
0 0 0 0 0 0 0 0 0 
0 0 0 0 0 0 0 0 0 
0 0 0 0 0 0 0 0 0 
0 0 0 0 0 0 0 0 0 
0 0 0 0 0 0 0 0 0 
0 0 0 0 0 0 0 0 0 
0 0 0 0 0 0 0 0 0 
0 0 0 0 0 0 0 0 0 
0 0 0 0 0 0 0 0 0 
0 0 0 0 0 0 0 0 0 
0 0 0 0 0 0 0 0 0 
0 0 0 0 0 0 0 0 0 

B_gradient_mag 1 522 double
0 0 0 0 0 0 0 0 0 
0 0 0 0 0 0 0 0 0 
0 0 0 0 0 0 0 0 0 
0 0 0 0 0 0 0 0 0 
0 0 0 0 0 0 0 0 0 
0 0 0 0 0 0 0 0 0 
0 0 0 0 0 0 0 0 0 
0 0 0 0 0 0 0 0 0 
0 0 0 0 0 0 0 0 0 
0 0 0 0 0 0 0 0 0 
0 0 0 0 0 0 0 0 0 
0 0 0 0 0 0 0 0 0 
0 0 0 0 0 0 0 0 0 
0 0 0 0 0 0 0 0 0 
0 0 0 0 0 0 0 0 0 
0 0 0 0 0 0 0 0 0 
0 0 0 0 0 0 0 0 0 
0 0 0 0 0 0 0 0 0 
0 0 0 0 0 0 0 0 0 
0 0 0 0 0 0 0 0 0 
0 0 0 0 0 0 0 0 0 
0 0 0 0 0 0 0 0 0 
0 0 0 0 0 0 0 0 0 
0 0 0 0 0 0 0 0 0 
0 0 0 0 0 0 0 0 0 
0 0 0 0 0 0 0 0 0 
0 0 0 0 0 0 0 0 0 
0 0 0 0 0 0 0 0 0 
0 0 0 0 0 0 0 0 0 
0 0 0 0 0 0 0 0 0 
0 0 0 0 0 0 0 0 0 
0 0 0 0 0 0 0 0 0 
0 0 0 0 0 0 0 0 0 
0 0 0 0 0 0 0 0 0 
0 0 0 0 0 0 0 0 0 
0 0 0 0 0 0 0 0 0 
0 0 0 0 0 0 0 0 0 
0 0 0 0 0 0 0 0 0 
0 0 0 0 0 0 0 0 0 
0 0 0 0 0 0 0 0 0 
0 0 0 0 0 0 0 0 0 
0 0 0 0 0 0 0 0 0 
0 0 0 0 0 0 0 0 0 
0 0 0 0 0 0 0 0 0 
0 0 0 0 0 0 0 0 0 
0 0 0 0 0 0 0 0 0 
0 0 0 0 0 0 0 0 0 
0 0 0 0 0 0 0 0 0 
0 0 0 0 0 0 0 0 0 
0 0 0 0 0 0 0 0 0 
0 0 0 0 0 0 0 0 0 
0 0 0 0 0 0 0 0 0 
0 0 0 0 0 0 0 0 0 
0 0 0 0 0 0 0 0 0 
0 0 0 0 0 0 0 0 0 
0 0 0 0 0 0 0 0 0 
0 0 0 0 0 0 0 0 0 
0 0 0 0 0 0 0 0 0 

