# vtk DataFile Version 5.1
Generated by LIGGGHTS
ASCII
DATASET POLYDATA
POINTS 648 float
-0.0336946 -0.0248459 0.0024841 -0.0420316 -0.0145538 0.00122258 -0.0386256 -0.00983966 0.00232621 
-0.0371624 0.011326 0.00229915 0.0114764 0.0140289 0.00226591 0.0323341 0.0191974 0.00118143 
-0.0269229 0.0267788 0.00270209 0.0339316 -0.041715 0.00368365 -0.0329608 -0.0218045 0.00324273 
0.0414834 -0.0181367 0.00259713 -0.024842 -0.00884532 0.00335711 0.00265626 0.00371614 0.00362725 
0.0320014 0.00756294 0.0030505 0.0153641 0.0146287 0.00323111 -0.0281804 0.0418824 0.00385655 
-0.0160353 0.0448572 0.00344319 0.00798734 -0.0367051 0.0047502 0.0101031 -0.0273014 0.0047633 
-0.00446216 -0.0255279 0.00490262 -0.0328109 -0.0226975 0.00527122 -0.0393221 -0.0167834 0.00458479 
-0.0207563 -0.0111167 0.00528017 0.0223025 -0.0112244 0.0048187 0.0342493 -0.0115037 0.00426202 
-0.0326334 -0.00963456 0.00438737 -0.0129003 -0.00574839 0.00457277 -0.0179231 -0.00300678 0.0041612 
0.0384376 0.000848974 0.00491837 0.00314898 0.00491531 0.00477468 0.021602 0.00540593 0.00474858 
-0.0213481 0.0319153 0.00443989 0.0164577 0.0353116 0.00488595 -0.0437633 0.0406561 0.00331159 
0.00513794 0.0433856 0.00445585 -0.0428902 -0.0449088 0.00573407 0.0185094 -0.042363 0.00567484 
-0.0105296 -0.0314142 0.0058919 -0.0419519 -0.0259749 0.00479623 0.0302919 -0.0148257 0.00597292 
-0.0449336 -0.00957357 0.00621616 -0.0198564 -0.00683511 0.00589416 0.0277548 0.0042931 0.00645377 
-0.0426568 0.00723228 0.00618542 -0.0310202 0.0131063 0.00628957 0.0248423 0.0143007 0.0059484 
0.0123926 0.0218243 0.00570198 0.0167463 0.0251763 0.00571287 -0.0102477 0.0267602 0.00624106 
-0.0368667 0.0306348 0.00621005 0.0354139 0.0312817 0.00602234 0.0152528 0.033152 0.00581944 
0.0262096 -0.0449372 0.00776931 0.0341086 -0.0368686 0.00670617 0.0433459 -0.0353282 0.00688509 
0.00264867 -0.0338128 0.0068312 -0.0266532 -0.0301716 0.00763937 0.033456 -0.0256735 0.00646661 
-0.0227164 -0.0141288 0.00727947 0.00689113 -0.0107816 0.00748938 0.0414517 -0.0114994 0.0069439 
0.0350526 -0.0102353 0.00702025 0.0275881 -0.00673863 0.00670622 0.00937085 -0.00418454 0.00720751 
0.0293019 -0.00298432 0.00753412 0.0292006 0.00433004 0.00673144 0.0212596 0.00979192 0.00717354 
0.0379188 0.0120326 0.00640892 0.0143092 0.0139794 0.00674543 0.012585 0.0155082 0.00765966 
-0.0360536 0.0173104 0.00683782 -0.0153727 0.020636 0.00747343 0.03506 0.0228899 0.00738124 
-0.032208 0.0306075 0.00758541 0.0439232 0.0371117 0.00705631 -0.0440308 0.0448256 0.006453 
0.0338942 -0.0410147 0.00819519 0.040047 -0.0404588 0.00864284 -0.00302782 -0.0385948 0.00775617 
0.0156715 -0.0391733 0.00858071 -0.00586029 -0.0338127 0.00891288 -0.0160452 -0.0323821 0.00804163 
0.0412685 -0.0295104 0.00869053 0.0262592 -0.0217201 0.00817368 0.0336491 -0.0197505 0.00882736 
-0.0108877 -0.0188832 0.00804598 -0.0405162 -0.0161033 0.0079884 0.0223879 -0.0163393 0.00880531 
-0.0343844 -0.0078404 0.00906527 -0.00474481 -0.00600267 0.00862182 -0.00229178 0.0020129 0.00825752 
0.00417698 0.0024455 0.00814507 0.0305447 0.00486582 0.00771538 -0.0287984 0.00559412 0.0078696 
-0.0394276 0.0109375 0.00813072 -0.034865 0.0142961 0.00853553 0.0287781 0.014071 0.0081346 
0.0215224 0.0171285 0.00771985 0.00153271 0.0201988 0.00854335 -0.0282566 0.021284 0.00789012 
-0.0409258 0.0305044 0.0081169 0.0297434 0.0373158 0.00769945 0.0251972 0.0393087 0.00891265 
-0.0349861 -0.0412827 0.00952669 0.023158 -0.0340207 0.0102898 0.0244271 -0.0334586 0.00976641 
0.027474 -0.0338615 0.010009 -0.0232422 -0.0321576 0.00938487 0.0346336 -0.0325969 0.0103569 
-0.015788 -0.0282898 0.00909196 0.00577088 -0.0287415 0.0101598 0.0436787 -0.0219137 0.00925927 
0.0218308 -0.0192565 0.0102379 -0.0183202 -0.0175475 0.00985917 0.0030191 -0.0179247 0.00942696 
0.0323804 -0.0132471 0.0103282 0.0277003 -0.0107969 0.00945549 -0.040885 -0.00406647 0.00965144 
0.0131353 -0.00504642 0.009939 0.0154702 -0.00154679 0.00947399 -0.00783961 -0.000387029 0.00939493 
-0.00702036 -0.00121172 0.00983301 -0.00967086 0.00179773 0.00946781 -0.0170872 0.00564833 0.00995492 
0.0011249 0.00615697 0.00975074 0.0101693 0.00555192 0.00997669 0.0399323 0.0117688 0.00942748 
8.23501e-07 0.0138406 0.0101812 -0.0214239 0.0189608 0.0102173 -0.023041 0.0197144 0.00959717 
0.0226957 0.0260881 0.0102302 -0.0422696 0.0340949 0.0097719 0.00284552 0.0345861 0.00940048 
0.0165329 0.0385374 0.00913454 -0.0390027 0.0421086 0.00908055 -0.044759 -0.0437614 0.0104999 
-0.0308094 -0.0435702 0.0114468 0.0418836 -0.0421436 0.0115334 0.000425919 -0.0415728 0.0114073 
-0.042922 -0.0404536 0.0112371 0.000822496 -0.0363122 0.0116232 0.0289145 -0.0340196 0.0106835 
0.0280204 -0.0311414 0.0114766 -0.0448384 -0.0296834 0.0106343 0.032808 -0.025967 0.0104468 
-0.0408326 -0.0234295 0.0104159 -0.0323128 -0.0219837 0.0111072 -0.0291427 -0.0219343 0.0116848 
0.0363266 -0.0194176 0.0109147 -0.0317771 -0.0175651 0.0104757 0.0404767 -0.0183151 0.010741 
0.0322358 -0.0130621 0.0115831 -0.0222502 -0.00974669 0.011336 -0.0112192 -0.0104501 0.0113078 
0.00743742 -0.00926665 0.0110393 0.0129906 -0.00677597 0.0110819 -0.0356048 -0.000104637 0.0097717 
-0.0281455 -0.00127675 0.0116114 -0.000610522 -0.00103491 0.0114246 0.032558 0.00153523 0.0106775 
-0.00552594 0.00555795 0.0116247 0.0228765 0.00606581 0.0107391 -0.0392616 0.00972366 0.0109561 
-0.0214351 0.00957734 0.0113847 -0.0101256 0.00978275 0.0110119 0.0197977 0.00963841 0.0115361 
0.00546842 0.0177814 0.0111305 0.00976854 0.0197772 0.0108892 0.0364634 0.0310238 0.0115288 
0.0444958 0.0309554 0.0107668 -0.0264781 0.032823 0.011349 -0.0312382 0.0393096 0.0115914 
0.0163992 0.0415262 0.0109675 0.0414821 -0.0410789 0.0125287 -0.0406141 -0.0405112 0.0125577 
-0.018434 -0.0405477 0.0119228 -0.0108246 -0.0388127 0.0120163 0.0308099 -0.0378456 0.0120289 
-0.0177429 -0.0346724 0.0128579 0.0333162 -0.0342631 0.012184 -0.0262624 -0.032473 0.0124941 
0.0392765 -0.0300093 0.0125652 -0.0432264 -0.0264101 0.0125911 -0.0430551 -0.0267583 0.0127416 
0.000892701 -0.0263701 0.0116533 0.0054016 -0.025334 0.0121349 0.0306875 -0.0259396 0.0129235 
-0.0225401 -0.0213878 0.0122023 -0.0296942 -0.0196153 0.0128534 0.0184681 -0.0172117 0.012006 
-0.0257955 -0.0157834 0.0119587 0.0252581 -0.0163235 0.0127966 -0.00444012 -0.0151621 0.0124498 
-0.0117656 -0.0138394 0.0124619 0.013874 -0.00963069 0.0128873 0.0313953 -0.00974065 0.0123442 
-0.00553214 -0.00871323 0.0128434 0.0109664 -0.00760095 0.0126842 -0.00747582 -0.00609419 0.0123654 
-0.0141425 -0.00311887 0.0125095 0.0449494 0.00392273 0.011944 0.0246705 0.0064451 0.0126844 
0.0221269 0.00728552 0.0117964 0.023953 0.00820576 0.0127958 0.0283387 0.00890506 0.0120671 
-0.00279986 0.0127222 0.012232 0.00861143 0.0123591 0.0125877 -0.00307286 0.0144526 0.01243 
0.0121458 0.0151918 0.0121778 0.0418335 0.0161761 0.0120754 -0.022709 0.0198803 0.0118703 
-0.0144089 0.0201081 0.0117812 0.0258603 0.0235991 0.0123067 0.0307708 0.0242663 0.0128947 
0.00834461 0.0278725 0.012384 -0.0152062 0.0294088 0.0125726 -0.0127911 0.0299546 0.0120584 
0.00372347 0.0304157 0.0120879 0.00390562 0.0317225 0.0126124 -0.00973825 0.0391656 0.01225 
0.0238959 0.0383247 0.0117766 0.0222253 0.0407186 0.0120983 -0.0335565 -0.0442122 0.0131522 
0.0181024 -0.0433049 0.013204 0.0416479 -0.0439733 0.0140472 0.0201641 -0.0426709 0.0143802 
0.0348044 -0.042095 0.0132617 -0.0248652 -0.040212 0.0137926 -0.0169239 -0.0402939 0.0139116 
-0.0273176 -0.0361067 0.0140833 -0.0168273 -0.0360331 0.0131838 -0.00161929 -0.0353994 0.0142622 
0.00594186 -0.0351889 0.0139704 0.0077947 -0.0345433 0.0141106 0.0403097 -0.0347888 0.0142291 
-0.0396817 -0.0304797 0.0133083 0.0449741 -0.0303513 0.0130927 0.0346338 -0.0290927 0.0136743 
-0.0401314 -0.0280847 0.0137487 0.0164647 -0.0275391 0.0137687 0.0155599 -0.0240909 0.0134482 
-0.0139777 -0.0223984 0.014113 0.0233461 -0.0214624 0.0137796 0.039775 -0.0211058 0.0135564 
-0.0328213 -0.0176588 0.0140158 -0.0100897 -0.0180162 0.0138864 0.0282033 -0.0178095 0.0136751 
-0.015814 -0.0152491 0.013936 0.0198229 -0.0156851 0.0132596 0.0375745 -0.0151367 0.013981 
-0.0388614 -0.0136303 0.0132766 -0.0313057 -0.0141988 0.0143774 -0.0136128 -0.00979682 0.0142206 
-0.042331 -0.00792816 0.0139772 -0.00254943 -0.00825679 0.0131203 -0.00401126 -0.00720159 0.0141238 
-0.00433253 -0.00676057 0.0141283 0.0404774 -0.00688032 0.0133375 0.0387156 -0.00624884 0.0134999 
0.021323 -0.00444137 0.0136158 -0.0120059 -0.00345367 0.0135012 -0.0395569 -0.00227866 0.0144 
0.00664535 -0.00164817 0.0136417 0.0290986 -0.000251763 0.0134968 -0.0260142 0.00017485 0.0138204 
0.0188762 0.00181355 0.0140872 -0.0325416 0.00283857 0.0131031 -0.025141 0.00447188 0.0133625 
-0.0406381 0.00555966 0.0134971 0.0133448 0.00646544 0.0143402 0.0110904 0.00657535 0.0137123 
0.0340899 0.00882812 0.0136606 -0.0349081 0.00917553 0.0141645 0.00474506 0.0103043 0.013931 
0.00978397 0.00922321 0.0139484 0.0211953 0.00966092 0.0132393 0.0398091 0.011618 0.0138579 
-0.0365733 0.0119208 0.0133431 -0.00831541 0.0129665 0.0138981 0.00243185 0.0120975 0.0136037 
0.00789931 0.0136568 0.014171 0.000954082 0.0152563 0.01396 -0.00443291 0.0160613 0.0138936 
0.00517921 0.0169249 0.0134971 0.0256029 0.0175394 0.0140838 0.0407412 0.0174253 0.0137161 
0.00757299 0.0192258 0.013884 0.0090081 0.0191686 0.0135489 0.018015 0.0183735 0.0135954 
-0.0267196 0.0236159 0.0141207 0.0395905 0.0272142 0.0131697 -0.0406313 0.0295913 0.0139497 
0.0434247 0.0295768 0.0138428 -0.0219587 0.0304934 0.0138425 -0.0200898 0.0311527 0.0129606 
-0.0108954 0.0304 0.013612 0.0038092 0.0311583 0.0137648 0.0104707 0.0313218 0.0122852 
0.026696 0.03017 0.0132837 0.01325 0.0319187 0.0136536 -0.0337286 0.0337045 0.0135219 
0.0214431 0.0335886 0.0137357 0.0231674 0.0340949 0.0136667 -0.00883869 0.0381834 0.0135301 
0.0281745 0.039089 0.014063 -0.039126 0.0399637 0.0141012 -0.0133259 0.0414802 0.0135739 
0.0294278 0.0431452 0.0133303 0.0114086 0.0440135 0.0141359 0.0405446 0.0433429 0.013867 
0.0171919 0.0449185 0.0140671 0.0211706 0.0445491 0.0139816 -0.00674967 -0.0416523 0.0147061 
-0.0334706 -0.0396012 0.0145951 0.0195647 -0.0366528 0.0145622 0.0355384 -0.0354155 0.0156041 
-0.0386911 -0.0311434 0.0145249 0.00231692 -0.0294453 0.015061 0.023019 -0.0293484 0.0149716 
-0.0350278 -0.0224863 0.0145008 0.0109547 -0.0235646 0.0156665 0.0115492 -0.0227248 0.0151037 
-0.0164034 -0.0216001 0.014686 0.00623721 -0.0211799 0.0155381 -0.00827992 -0.020547 0.014498 
0.00156248 -0.0194187 0.0143516 -0.0426154 -0.0165053 0.0154678 -0.0339565 -0.0167518 0.0150416 
-0.0408642 -0.0154151 0.0146626 -0.0341597 -0.0122829 0.0144129 0.0286804 -0.00919085 0.0147438 
0.00357123 -0.00830953 0.0141359 -0.0408474 -0.00214648 0.0145183 -0.0376932 -0.000132947 0.0143754 
0.0404406 0.00462082 0.0149625 0.030759 0.00580352 0.0154599 0.0332757 0.00539899 0.0148339 
0.00533928 0.00728904 0.0143431 -0.0350204 0.0121089 0.0149199 0.0440772 0.0154938 0.0151436 
-0.0193355 0.018129 0.0144965 0.00395304 0.0187088 0.0154403 0.0350116 0.0207306 0.0145925 
0.0362273 0.0220011 0.0150995 -0.0295899 0.0232577 0.0151361 0.00264144 0.0247174 0.0149826 
-0.0386663 0.0253433 0.0149229 -0.00739359 0.0259593 0.0155059 -0.0267569 0.0263983 0.015101 
-0.00563177 0.0268155 0.0150589 -0.0357156 0.0282031 0.015462 0.0191509 0.0299648 0.0153037 
-0.0313244 0.0314049 0.0145225 -0.0073504 0.0318329 0.0143147 0.0372507 0.0318783 0.0147415 
-0.0197415 0.0344175 0.0142184 -0.00472634 0.0344449 0.0147736 -0.0407273 0.0358476 0.0149961 
-0.041477 0.0364172 0.0148036 -0.00196307 0.0366495 0.0148711 -0.0245447 0.0378537 0.0150087 
0.0030545 0.0369981 0.0150863 -0.00647711 0.0391566 0.0154688 -0.00340304 -0.0448428 0.0163696 
-0.027409 -0.0433703 0.016127 0.0248068 -0.0428986 0.0167668 -0.00670669 -0.0394183 0.0163139 
-0.0439713 -0.0357399 0.0166465 -0.00338111 -0.0363358 0.0165493 0.0307351 -0.0355434 0.0167333 
-8.23525e-05 -0.034098 0.0164763 0.00879071 -0.0344865 0.0160893 -0.0427235 -0.0332389 0.0160651 
0.00802514 -0.031483 0.0156454 -0.00580099 -0.0272788 0.0162907 -0.0338231 -0.0250135 0.0163706 
-0.038621 -0.0229432 0.0168775 -0.0204621 -0.0172006 0.0168051 0.0268005 -0.0146468 0.0161213 
-0.0329121 -0.0139828 0.0163216 0.0176437 -0.0119747 0.0158259 -0.0196799 -0.00931279 0.0165583 
0.0251729 -0.00985964 0.0155924 -0.0304645 -0.00701594 0.015868 -0.0211095 -0.00770044 0.0157368 
-0.0150798 -0.00698339 0.0160465 -0.0101373 -0.00698039 0.0168153 -0.00720807 -0.00608605 0.0167693 
0.0180565 -0.00487531 0.0156656 -0.042786 -0.00359954 0.0158047 0.00127443 -0.000618905 0.016944 
-0.0416237 0.00110806 0.016835 0.0147261 0.00139147 0.0162242 -0.0261639 0.00337815 0.0161864 
-0.0403489 0.00598291 0.0169378 -0.037077 0.00611456 0.0165542 0.0142017 0.0079404 0.0167362 
0.0202046 0.00840095 0.0167255 -0.0436896 0.0195853 0.0169167 -0.0287332 0.0215601 0.0163667 
0.00128112 0.0217131 0.0158739 -0.0349287 0.0230684 0.016747 -0.0170112 0.0231088 0.0160342 
0.0181332 0.0246356 0.0163949 0.00953871 0.0271324 0.016167 -0.0379532 0.0399341 0.0169117 
-0.0375088 0.0393741 0.0166871 -0.0112537 0.0395394 0.0158545 0.0221021 0.0401282 0.0163668 
-0.00785852 0.041878 0.0170129 0.00805094 0.0422278 0.0158324 0.0430506 0.0422314 0.0169189 
-0.0205282 0.0432397 0.0156315 0.0399235 0.0434757 0.0162067 -0.0346971 -0.0446764 0.0169303 
-0.0317519 -0.0446953 0.0174564 0.0147823 -0.0446949 0.0177203 -0.00396528 -0.0444182 0.0177262 
0.0145521 -0.0432303 0.0172471 0.0195053 -0.043722 0.0179016 -0.0389435 -0.0425966 0.0173796 
-0.0248654 -0.0427111 0.0169669 0.0131812 -0.0427533 0.0176167 0.0406519 -0.0427256 0.0181502 
-0.0136468 -0.0412372 0.0177473 0.0166138 -0.0412108 0.0176354 0.0238162 -0.0409762 0.0170845 
0.00849583 -0.0405939 0.017879 0.0244803 -0.0401788 0.0170831 -0.0289295 -0.0389067 0.0172203 
-0.0234086 -0.038644 0.0171908 -0.0195638 -0.0385913 0.0178355 0.0325128 -0.03812 0.0174479 
-0.0370475 -0.0370945 0.0177358 0.00985621 -0.0367022 0.017994 0.0397687 -0.0374633 0.0170532 
-0.0309963 -0.0355024 0.017638 -0.0179089 -0.0346335 0.0176313 0.043014 -0.0343178 0.0183197 
-0.0177803 -0.0340186 0.0175936 -0.0161578 -0.0337243 0.0176472 -0.0376897 -0.0314333 0.0172935 
-0.0210092 -0.0320472 0.0173839 -0.0220587 -0.0306349 0.0181817 0.010226 -0.0308634 0.0171451 
-0.0414327 -0.0290659 0.0179878 -0.0263426 -0.0292431 0.0174435 -0.0346801 -0.0287009 0.017524 
0.0156293 -0.0283842 0.0171988 0.0153133 -0.0285941 0.0176106 0.03382 -0.0268981 0.0171357 
-0.00863888 -0.0237376 0.0177065 0.00179778 -0.0247441 0.0177785 0.00538025 -0.0241403 0.0180481 
0.0210005 -0.0239559 0.0174253 0.0240101 -0.0228809 0.0182147 0.035159 -0.023363 0.0177353 
-0.0210835 -0.0209207 0.0176278 -0.0033641 -0.0204173 0.0176171 0.00548761 -0.0197918 0.0175077 
-0.0207996 -0.0190456 0.017436 0.0134129 -0.0192809 0.0172234 0.0272875 -0.0186725 0.017896 
-0.0147645 -0.0165889 0.018076 0.0296492 -0.015918 0.0172262 0.038292 -0.016257 0.0175458 
0.0132043 -0.01541 0.0175164 0.0249316 -0.014475 0.017725 -0.0279963 -0.0141356 0.0175804 
-0.0186412 -0.0134353 0.0179161 -0.00710141 -0.0133745 0.0171011 0.00886689 -0.0141191 0.0177692 
0.0144468 -0.013247 0.0176205 0.0403752 -0.0143085 0.0174296 -0.0327621 -0.0121928 0.0175444 
-0.0269092 -0.0125643 0.0180868 -0.00528066 -0.0121118 0.0178499 0.0347312 -0.012978 0.0170546 
0.0253763 -0.011051 0.0181215 -0.0253401 -0.0103599 0.0173728 0.0218314 -0.00971151 0.0170984 
0.0334462 -0.00930086 0.0180666 0.0406218 -0.0100941 0.0173413 -0.0344646 -0.00725539 0.017553 
-0.0135858 -0.00672635 0.0177294 0.0161928 -0.00760918 0.0175106 0.00523139 -0.00599236 0.0175727 
-0.0253129 -0.0039775 0.0178331 0.0180458 -0.00470109 0.0175337 0.0200271 -0.00425623 0.0176949 
0.0386193 -0.00496685 0.0179289 -0.00941413 -0.00330341 0.0177276 0.00975646 -0.00313231 0.0175463 
-0.0198668 -0.00211416 0.0178786 -0.00896956 -0.00131708 0.017514 0.0168839 -0.00210364 0.0176109 
-0.0283489 -0.000417126 0.0178919 -0.0153419 -0.00108619 0.0176124 0.0140084 -6.89735e-05 0.0177099 
0.0420414 -0.00101026 0.0175009 -0.0332593 0.000859011 0.0172336 0.0407777 0.000744206 0.0175111 
0.0189244 0.00254502 0.0182047 0.0362421 0.00170773 0.0172294 -0.0233311 0.00384073 0.0180294 
0.00243665 0.00282786 0.0175331 0.0183943 0.00266245 0.0176371 -0.027449 0.00511055 0.0174601 
0.0323225 0.00436429 0.0172597 -0.01547 0.00642247 0.0176453 -0.00723413 0.00605583 0.0170014 
0.0250346 0.00641518 0.0176562 0.0358407 0.00533501 0.0174765 -0.0429246 0.00657681 0.0179223 
-0.019893 0.00878872 0.01803 -0.0105861 0.00898083 0.0180178 0.0324887 0.00836074 0.0173746 
-0.0408306 0.00999374 0.0180025 0.0234497 0.00978487 0.0176446 0.027557 0.009967 0.0180252 
-0.00808524 0.0113378 0.0179494 -0.00071691 0.0108932 0.0176666 0.00418285 0.0112423 0.0175739 
0.0128044 0.0127337 0.0173049 0.014866 0.0127598 0.0171884 0.0261916 0.0119357 0.0169795 
-0.0429188 0.0135204 0.0171678 -0.00867948 0.0139924 0.017647 -0.00841171 0.0143034 0.0181294 
0.012949 0.0143048 0.0174373 0.0311878 0.014057 0.0179382 0.0336082 0.013194 0.0181064 
0.0396593 0.013993 0.0180868 0.0441199 0.0136981 0.0174602 -0.0287818 0.014969 0.0171866 
-0.0231109 0.0157017 0.0177547 -0.0196462 0.0155185 0.0172037 -0.0408838 0.0159645 0.017486 
-0.0286532 0.0159811 0.0171457 -0.0161548 0.0159009 0.0173418 -0.00317984 0.0164631 0.0170686 
0.0226738 0.0181095 0.0181962 -0.0363159 0.0185996 0.0171826 -0.0245993 0.0193658 0.0160892 
0.0122157 0.0191756 0.0172672 0.0388885 0.0193682 0.0174014 -0.0431379 0.0208085 0.0176451 
-0.0122989 0.0222019 0.0175054 0.0398418 0.0217469 0.0175718 -0.0421793 0.0225172 0.0169942 
-0.0324762 0.0230005 0.0180528 -0.0148746 0.0223253 0.0180074 0.00126512 0.0228658 0.018244 
0.0146363 0.0223077 0.0171357 -0.0436572 0.0238848 0.0172875 -0.0138035 0.0240512 0.0171252 
-0.00782209 0.0241861 0.0171903 0.0438582 0.0244724 0.0175163 -0.0132251 0.0252506 0.0173854 
-0.0190887 0.0269029 0.0173987 -0.0128609 0.0265935 0.0178273 -0.0114472 0.026715 0.0176037 
-0.0214233 0.0285543 0.0172985 -0.014478 0.0275162 0.0177959 0.0397191 0.0283771 0.0177698 
-0.0376379 0.0294143 0.0173941 0.0040127 0.0314243 0.0176109 0.00519606 0.0301696 0.0177357 
-0.00435696 0.0325462 0.016936 0.0191028 0.0315895 0.0179244 0.0337272 0.0324898 0.0179871 
0.0380057 0.0324307 0.0182087 -0.0425374 0.0333781 0.0180923 -0.0359241 0.0337864 0.0178606 
0.00727395 0.0332762 0.0176309 0.00317215 0.0343196 0.0176914 0.0132394 0.0345575 0.0177702 
0.0278529 0.0342296 0.0181602 -0.00750544 0.0361316 0.0175025 0.00888594 0.0360502 0.0177492 
0.00367032 0.0371324 0.0178333 0.0311732 0.0371467 0.0174125 -0.00585061 0.0388609 0.0180626 
0.00201585 0.0404036 0.0182317 0.0170579 0.0421878 0.0177679 -0.0181988 0.0434549 0.0170708 
0.00528787 0.0432844 0.0180597 0.0352701 0.0439749 0.0175973 0.0352379 0.0438995 0.0174713 
-0.0390775 0.0447256 0.0175506 -0.0190394 0.0446837 0.0176322 -0.0225361 -0.0441701 0.0194138 
0.0424299 -0.0409921 0.0187543 0.0419483 -0.0348097 0.0174172 -0.0233761 -0.031813 0.0188164 
0.0268369 -0.0315202 0.019483 -0.00682403 -0.0314098 0.0187794 -0.0240024 -0.0280603 0.0185561 
-0.0240719 -0.0268296 0.0188216 0.0347572 -0.0260666 0.0183043 0.0350196 -0.0250011 0.0191481 
0.00558373 -0.0242787 0.0184559 0.0102479 -0.024092 0.0192556 -0.0127621 -0.0231756 0.0183905 
0.0394323 -0.021923 0.0190322 0.0204492 -0.0194639 0.0187869 0.0323803 -0.0150629 0.0183948 
0.0127657 -0.00746761 0.0192098 -0.0107529 -0.00365687 0.0185286 0.00635633 0.000852437 0.0179449 
-0.0131355 0.00164571 0.0188646 0.0116524 0.00206193 0.0184896 -0.0137512 0.00384646 0.0192522 
0.0260144 0.00429017 0.0184294 -0.00598638 0.00689803 0.0195249 0.00742845 0.0199749 0.0185027 
0.000162142 0.0251126 0.0186417 -0.0296003 0.0277025 0.018067 0.0193546 0.0324404 0.018656 
-0.038829 -0.00978443 0.0195603 -0.0214415 -0.007536 0.0201479 0.0448793 -0.00396119 0.0204392 
-0.009285 0.00693532 0.0198758 -0.0442311 0.00821601 0.0204474 0.021223 0.0244832 0.0200582 
-0.0260391 0.0304395 0.0197016 0.0131273 0.040817 0.0188739 -0.0385899 -0.0405251 0.0209806 
0.0352883 -0.0103067 0.0212226 0.0414788 -0.00521487 0.0204285 -0.0408092 0.00981999 0.0215417 
-0.0122189 0.0175978 0.0211365 -0.00521279 -0.0413279 0.0223286 0.0282359 -0.00877456 0.0223586 
0.00976298 0.0163696 0.0221655 0.039455 -0.000236508 0.0247208 0.00308146 0.0401468 0.0226701 
-0.0081225 0.0151775 0.02396 -0.0155539 0.0359545 0.0249881 0.0433204 -0.0141837 0.0278238 
-0.0256005 0.0215871 0.0274823 0.0242571 -0.0100823 0.0298848 -0.00757157 0.00454821 0.0289645 
0.0188903 -0.0308528 0.0333686 -0.0207679 -0.0256315 0.0339363 0.00643655 -0.000956063 0.033141 
0.00741479 -0.0295782 0.0364225 0.00347554 0.00338662 0.0360474 -0.00254916 -0.00379952 0.0389439 

VERTICES 649 648
OFFSETS vtktypeint64
0 1 2 3 4 5 6 7 8 
9 10 11 12 13 14 15 16 17 
18 19 20 21 22 23 24 25 26 
27 28 29 30 31 32 33 34 35 
36 37 38 39 40 41 42 43 44 
45 46 47 48 49 50 51 52 53 
54 55 56 57 58 59 60 61 62 
63 64 65 66 67 68 69 70 71 
72 73 74 75 76 77 78 79 80 
81 82 83 84 85 86 87 88 89 
90 91 92 93 94 95 96 97 98 
99 100 101 102 103 104 105 106 107 
108 109 110 111 112 113 114 115 116 
117 118 119 120 121 122 123 124 125 
126 127 128 129 130 131 132 133 134 
135 136 137 138 139 140 141 142 143 
144 145 146 147 148 149 150 151 152 
153 154 155 156 157 158 159 160 161 
162 163 164 165 166 167 168 169 170 
171 172 173 174 175 176 177 178 179 
180 181 182 183 184 185 186 187 188 
189 190 191 192 193 194 195 196 197 
198 199 200 201 202 203 204 205 206 
207 208 209 210 211 212 213 214 215 
216 217 218 219 220 221 222 223 224 
225 226 227 228 229 230 231 232 233 
234 235 236 237 238 239 240 241 242 
243 244 245 246 247 248 249 250 251 
252 253 254 255 256 257 258 259 260 
261 262 263 264 265 266 267 268 269 
270 271 272 273 274 275 276 277 278 
279 280 281 282 283 284 285 286 287 
288 289 290 291 292 293 294 295 296 
297 298 299 300 301 302 303 304 305 
306 307 308 309 310 311 312 313 314 
315 316 317 318 319 320 321 322 323 
324 325 326 327 328 329 330 331 332 
333 334 335 336 337 338 339 340 341 
342 343 344 345 346 347 348 349 350 
351 352 353 354 355 356 357 358 359 
360 361 362 363 364 365 366 367 368 
369 370 371 372 373 374 375 376 377 
378 379 380 381 382 383 384 385 386 
387 388 389 390 391 392 393 394 395 
396 397 398 399 400 401 402 403 404 
405 406 407 408 409 410 411 412 413 
414 415 416 417 418 419 420 421 422 
423 424 425 426 427 428 429 430 431 
432 433 434 435 436 437 438 439 440 
441 442 443 444 445 446 447 448 449 
450 451 452 453 454 455 456 457 458 
459 460 461 462 463 464 465 466 467 
468 469 470 471 472 473 474 475 476 
477 478 479 480 481 482 483 484 485 
486 487 488 489 490 491 492 493 494 
495 496 497 498 499 500 501 502 503 
504 505 506 507 508 509 510 511 512 
513 514 515 516 517 518 519 520 521 
522 523 524 525 526 527 528 529 530 
531 532 533 534 535 536 537 538 539 
540 541 542 543 544 545 546 547 548 
549 550 551 552 553 554 555 556 557 
558 559 560 561 562 563 564 565 566 
567 568 569 570 571 572 573 574 575 
576 577 578 579 580 581 582 583 584 
585 586 587 588 589 590 591 592 593 
594 595 596 597 598 599 600 601 602 
603 604 605 606 607 608 609 610 611 
612 613 614 615 616 617 618 619 620 
621 622 623 624 625 626 627 628 629 
630 631 632 633 634 635 636 637 638 
639 640 641 642 643 644 645 646 647 
648 
CONNECTIVITY vtktypeint64
0 1 2 3 4 5 6 7 8 
9 10 11 12 13 14 15 16 17 
18 19 20 21 22 23 24 25 26 
27 28 29 30 31 32 33 34 35 
36 37 38 39 40 41 42 43 44 
45 46 47 48 49 50 51 52 53 
54 55 56 57 58 59 60 61 62 
63 64 65 66 67 68 69 70 71 
72 73 74 75 76 77 78 79 80 
81 82 83 84 85 86 87 88 89 
90 91 92 93 94 95 96 97 98 
99 100 101 102 103 104 105 106 107 
108 109 110 111 112 113 114 115 116 
117 118 119 120 121 122 123 124 125 
126 127 128 129 130 131 132 133 134 
135 136 137 138 139 140 141 142 143 
144 145 146 147 148 149 150 151 152 
153 154 155 156 157 158 159 160 161 
162 163 164 165 166 167 168 169 170 
171 172 173 174 175 176 177 178 179 
180 181 182 183 184 185 186 187 188 
189 190 191 192 193 194 195 196 197 
198 199 200 201 202 203 204 205 206 
207 208 209 210 211 212 213 214 215 
216 217 218 219 220 221 222 223 224 
225 226 227 228 229 230 231 232 233 
234 235 236 237 238 239 240 241 242 
243 244 245 246 247 248 249 250 251 
252 253 254 255 256 257 258 259 260 
261 262 263 264 265 266 267 268 269 
270 271 272 273 274 275 276 277 278 
279 280 281 282 283 284 285 286 287 
288 289 290 291 292 293 294 295 296 
297 298 299 300 301 302 303 304 305 
306 307 308 309 310 311 312 313 314 
315 316 317 318 319 320 321 322 323 
324 325 326 327 328 329 330 331 332 
333 334 335 336 337 338 339 340 341 
342 343 344 345 346 347 348 349 350 
351 352 353 354 355 356 357 358 359 
360 361 362 363 364 365 366 367 368 
369 370 371 372 373 374 375 376 377 
378 379 380 381 382 383 384 385 386 
387 388 389 390 391 392 393 394 395 
396 397 398 399 400 401 402 403 404 
405 406 407 408 409 410 411 412 413 
414 415 416 417 418 419 420 421 422 
423 424 425 426 427 428 429 430 431 
432 433 434 435 436 437 438 439 440 
441 442 443 444 445 446 447 448 449 
450 451 452 453 454 455 456 457 458 
459 460 461 462 463 464 465 466 467 
468 469 470 471 472 473 474 475 476 
477 478 479 480 481 482 483 484 485 
486 487 488 489 490 491 492 493 494 
495 496 497 498 499 500 501 502 503 
504 505 506 507 508 509 510 511 512 
513 514 515 516 517 518 519 520 521 
522 523 524 525 526 527 528 529 530 
531 532 533 534 535 536 537 538 539 
540 541 542 543 544 545 546 547 548 
549 550 551 552 553 554 555 556 557 
558 559 560 561 562 563 564 565 566 
567 568 569 570 571 572 573 574 575 
576 577 578 579 580 581 582 583 584 
585 586 587 588 589 590 591 592 593 
594 595 596 597 598 599 600 601 602 
603 604 605 606 607 608 609 610 611 
612 613 614 615 616 617 618 619 620 
621 622 623 624 625 626 627 628 629 
630 631 632 633 634 635 636 637 638 
639 640 641 642 643 644 645 646 647 

POINT_DATA 648
FIELD FieldData 12
id 1 648 int
581 590 544 595 633 607 637 597 578 
603 569 598 556 622 555 614 115 645 
604 541 618 585 599 628 617 383 57 
465 593 396 583 552 575 586 164 635 
185 574 537 554 72 613 450 169 491 
18 195 535 594 623 579 534 626 605 
616 304 190 612 106 638 293 615 370 
592 418 214 620 150 560 433 166 219 
596 531 639 577 508 92 459 571 570 
548 573 470 154 572 444 563 557 565 
175 458 407 601 297 310 339 561 49 
506 362 386 562 51 347 589 404 543 
629 331 317 558 539 289 530 292 567 
515 610 132 66 36 478 456 546 432 
322 110 521 163 550 85 246 372 463 
200 218 591 134 24 634 107 137 267 
282 576 547 238 439 355 566 227 231 
428 580 568 542 564 538 545 467 261 
197 288 255 587 514 26 327 270 318 
412 207 549 35 34 356 518 88 303 
533 527 128 291 532 121 64 479 551 
176 553 381 215 127 157 324 336 243 
385 86 353 423 510 129 60 401 202 
308 40 149 625 507 189 509 540 504 
201 148 320 328 62 366 346 31 203 
140 87 99 82 226 159 367 489 69 
525 352 294 502 445 71 513 472 237 
274 247 517 374 168 194 58 306 264 
95 260 42 6 368 299 125 257 382 
135 341 83 186 334 56 503 512 528 
165 400 338 497 420 373 345 262 273 
46 469 220 193 118 392 443 364 117 
109 461 524 114 419 187 343 158 611 
268 29 348 235 251 559 536 523 361 
108 302 272 55 438 457 256 436 344 
333 139 103 526 192 449 160 167 174 
440 496 73 143 380 483 608 360 204 
141 454 126 426 181 358 184 417 33 
529 254 520 100 162 408 280 410 321 
488 253 94 600 387 309 233 232 437 
182 413 98 188 390 314 22 67 492 
388 319 229 505 409 415 37 298 290 
500 349 248 427 399 511 522 39 224 
11 263 365 75 90 519 501 495 424 
112 152 138 337 330 588 12 199 249 
76 155 435 277 91 19 406 351 275 
242 241 89 84 93 258 113 414 471 
68 52 429 136 326 312 173 210 359 
411 102 122 487 402 47 350 156 477 
307 250 283 393 295 354 120 147 183 
493 116 484 234 323 329 403 25 28 
177 44 516 462 422 170 376 240 276 
59 490 441 460 211 146 8 43 259 
340 23 101 38 311 53 32 278 377 
285 252 105 133 142 20 405 151 371 
205 217 265 80 389 196 77 61 212 
244 305 284 216 245 486 474 153 301 
124 144 145 453 296 480 442 221 464 
378 21 446 384 119 17 41 395 236 
363 63 48 70 178 315 228 468 473 
54 485 582 447 161 357 431 279 287 
130 325 394 104 191 97 14 206 131 
498 266 30 209 369 179 451 332 81 
222 481 180 466 455 494 225 313 391 
421 452 286 482 198 45 123 434 375 
342 397 475 476 172 230 271 584 239 
5 398 96 13 430 335 79 223 416 
111 448 74 27 171 630 499 208 300 
379 213 281 9 609 65 16 10 50 
425 316 78 269 606 648 3 647 4 
7 632 602 15 2 643 619 624 644 
646 1 631 636 627 621 640 641 642 

type 1 648 int
1 1 1 1 1 1 1 1 1 
1 1 1 1 1 1 1 1 1 
1 1 1 1 1 1 1 1 1 
1 1 1 1 1 1 1 1 1 
1 1 1 1 1 1 1 1 1 
1 1 1 1 1 1 1 1 1 
1 1 1 1 1 1 1 1 1 
1 1 1 1 1 1 1 1 1 
1 1 1 1 1 1 1 1 1 
1 1 1 1 1 1 1 1 1 
1 1 1 1 1 1 1 1 1 
1 1 1 1 1 1 1 1 1 
1 1 1 1 1 1 1 1 1 
1 1 1 1 1 1 1 1 1 
1 1 1 1 1 1 1 1 1 
1 1 1 1 1 2 1 1 1 
1 1 1 1 1 1 1 1 1 
1 1 1 1 1 1 1 1 1 
1 1 1 1 1 1 1 1 1 
1 1 1 1 1 1 1 1 1 
1 1 1 1 1 1 1 1 1 
1 1 1 1 1 1 1 1 1 
1 1 1 1 1 1 1 1 1 
1 1 1 1 1 1 1 1 1 
1 1 1 1 1 1 1 1 1 
1 1 1 1 1 1 1 1 1 
1 1 1 1 1 1 1 1 1 
1 1 1 1 1 1 1 1 1 
1 1 1 2 1 1 1 1 1 
1 1 1 1 1 1 1 2 1 
1 1 1 1 1 1 1 1 1 
1 1 1 1 1 1 1 1 1 
1 1 1 1 1 1 1 1 1 
1 1 1 1 1 1 1 1 1 
1 1 1 1 1 1 1 1 1 
1 1 1 1 1 1 1 1 1 
1 1 1 1 1 1 1 1 1 
1 1 1 1 1 1 1 1 1 
1 1 1 1 1 1 1 1 1 
1 1 1 1 1 1 1 1 1 
1 1 1 1 1 1 1 1 1 
1 1 1 1 1 1 1 1 1 
1 1 1 1 1 1 1 1 1 
2 1 1 1 1 1 1 1 1 
1 1 1 1 1 1 2 1 1 
1 1 1 1 1 1 1 1 1 
1 1 1 1 1 1 1 1 1 
1 1 1 1 1 1 1 1 1 
1 1 1 1 1 1 1 1 1 
1 1 1 1 1 1 1 1 1 
1 1 1 1 1 1 1 1 1 
1 1 2 1 1 1 1 1 1 
1 1 1 1 1 1 2 1 1 
1 1 1 1 1 1 1 1 1 
1 1 1 1 1 1 1 1 1 
1 1 1 1 1 1 1 1 1 
1 1 1 1 1 1 1 1 1 
1 1 1 1 1 1 1 1 1 
1 1 1 1 1 1 1 1 1 
1 1 1 1 1 1 1 1 1 
1 1 1 1 1 1 1 1 1 
1 1 1 1 1 1 2 1 1 
1 1 1 1 1 1 1 1 1 
1 1 1 1 1 1 1 1 1 
1 1 1 1 1 1 1 1 1 
1 1 1 1 1 1 1 1 1 
2 1 1 2 1 1 1 1 1 
1 1 1 1 1 1 1 1 1 
1 1 1 2 1 1 2 2 1 
1 1 1 1 1 1 2 1 2 
2 1 1 2 3 1 1 1 1 
1 4 1 1 1 1 1 1 1 

i 3 648 int
0 0 0 0 0 0 0 0 0 
0 0 0 0 0 0 0 0 0 
0 0 0 0 0 0 0 0 0 
0 0 0 0 0 0 0 0 0 
0 0 0 0 0 0 0 0 0 
0 0 0 0 0 0 0 0 0 
0 0 0 0 0 0 0 0 0 
0 0 0 0 0 0 0 0 0 
0 0 0 0 0 0 0 0 0 
0 0 0 0 0 0 0 0 0 
0 0 0 0 0 0 0 0 0 
0 0 0 0 0 0 0 0 0 
0 0 0 0 0 0 0 0 0 
0 0 0 0 0 0 0 0 0 
0 0 0 0 0 0 0 0 0 
0 0 0 0 0 0 0 0 0 
0 0 0 0 0 0 0 0 0 
0 0 0 0 0 0 0 0 0 
0 0 0 0 0 0 0 0 0 
0 0 0 0 0 0 0 0 0 
0 0 0 0 0 0 0 0 0 
0 0 0 0 0 0 0 0 0 
0 0 0 0 0 0 0 0 0 
0 0 0 0 0 0 0 0 0 
0 0 0 0 0 0 0 0 0 
0 0 0 0 0 0 0 0 0 
0 0 0 0 0 0 0 0 0 
0 0 0 0 0 0 0 0 0 
0 0 0 0 0 0 0 0 0 
0 0 0 0 0 0 0 0 0 
0 0 0 0 0 0 0 0 0 
0 0 0 0 0 0 0 0 0 
0 0 0 0 0 0 0 0 0 
0 0 0 0 0 0 0 0 0 
0 0 0 0 0 0 0 0 0 
0 0 0 0 0 0 0 0 0 
0 0 0 0 0 0 0 0 0 
0 0 0 0 0 0 0 0 0 
0 0 0 0 0 0 0 0 0 
0 0 0 0 0 0 0 0 0 
0 0 0 0 0 0 0 0 0 
0 0 0 0 0 0 0 0 0 
0 0 0 0 0 0 0 0 0 
0 0 0 0 0 0 0 0 0 
0 0 0 0 0 0 0 0 0 
0 0 0 0 0 0 0 0 0 
0 0 0 0 0 0 0 0 0 
0 0 0 0 0 0 0 0 0 
0 0 0 0 0 0 0 0 0 
0 0 0 0 0 0 0 0 0 
0 0 0 0 0 0 0 0 0 
0 0 0 0 0 0 0 0 0 
0 0 0 0 0 0 0 0 0 
0 0 0 0 0 0 0 0 0 
0 0 0 0 0 0 0 0 0 
0 0 0 0 0 0 0 0 0 
0 0 0 0 0 0 0 0 0 
0 0 0 0 0 0 0 0 0 
0 0 0 0 0 0 0 0 0 
0 0 0 0 0 0 0 0 0 
0 0 0 0 0 0 0 0 0 
0 0 0 0 0 0 0 0 0 
0 0 0 0 0 0 0 0 0 
0 0 0 0 0 0 0 0 0 
0 0 0 0 0 0 0 0 0 
0 0 0 0 0 0 0 0 0 
0 0 0 0 0 0 0 0 0 
0 0 0 0 0 0 0 0 0 
0 0 0 0 0 0 0 0 0 
0 0 0 0 0 0 0 0 0 
0 0 0 0 0 0 0 0 0 
0 0 0 0 0 0 0 0 0 
0 0 0 0 0 0 0 0 0 
0 0 0 0 0 0 0 0 0 
0 0 0 0 0 0 0 0 0 
0 0 0 0 0 0 0 0 0 
0 0 0 0 0 0 0 0 0 
0 0 0 0 0 0 0 0 0 
0 0 0 0 0 0 0 0 0 
0 0 0 0 0 0 0 0 0 
0 0 0 0 0 0 0 0 0 
0 0 0 0 0 0 0 0 0 
0 0 0 0 0 0 0 0 0 
0 0 0 0 0 0 0 0 0 
0 0 0 0 0 0 0 0 0 
0 0 0 0 0 0 0 0 0 
0 0 0 0 0 0 0 0 0 
0 0 0 0 0 0 0 0 0 
0 0 0 0 0 0 0 0 0 
0 0 0 0 0 0 0 0 0 
0 0 0 0 0 0 0 0 0 
0 0 0 0 0 0 0 0 0 
0 0 0 0 0 0 0 0 0 
0 0 0 0 0 0 0 0 0 
0 0 0 0 0 0 0 0 0 
0 0 0 0 0 0 0 0 0 
0 0 0 0 0 0 0 0 0 
0 0 0 0 0 0 0 0 0 
0 0 0 0 0 0 0 0 0 
0 0 0 0 0 0 0 0 0 
0 0 0 0 0 0 0 0 0 
0 0 0 0 0 0 0 0 0 
0 0 0 0 0 0 0 0 0 
0 0 0 0 0 0 0 0 0 
0 0 0 0 0 0 0 0 0 
0 0 0 0 0 0 0 0 0 
0 0 0 0 0 0 0 0 0 
0 0 0 0 0 0 0 0 0 
0 0 0 0 0 0 0 0 0 
0 0 0 0 0 0 0 0 0 
0 0 0 0 0 0 0 0 0 
0 0 0 0 0 0 0 0 0 
0 0 0 0 0 0 0 0 0 
0 0 0 0 0 0 0 0 0 
0 0 0 0 0 0 0 0 0 
0 0 0 0 0 0 0 0 0 
0 0 0 0 0 0 0 0 0 
0 0 0 0 0 0 0 0 0 
0 0 0 0 0 0 0 0 0 
0 0 0 0 0 0 0 0 0 
0 0 0 0 0 0 0 0 0 
0 0 0 0 0 0 0 0 0 
0 0 0 0 0 0 0 0 0 
0 0 0 0 0 0 0 0 0 
0 0 0 0 0 0 0 0 0 
0 0 0 0 0 0 0 0 0 
0 0 0 0 0 0 0 0 0 
0 0 0 0 0 0 0 0 0 
0 0 0 0 0 0 0 0 0 
0 0 0 0 0 0 0 0 0 
0 0 0 0 0 0 0 0 0 
0 0 0 0 0 0 0 0 0 
0 0 0 0 0 0 0 0 0 
0 0 0 0 0 0 0 0 0 
0 0 0 0 0 0 0 0 0 
0 0 0 0 0 0 0 0 0 
0 0 0 0 0 0 0 0 0 
0 0 0 0 0 0 0 0 0 
0 0 0 0 0 0 0 0 0 
0 0 0 0 0 0 0 0 0 
0 0 0 0 0 0 0 0 0 
0 0 0 0 0 0 0 0 0 
0 0 0 0 0 0 0 0 0 
0 0 0 0 0 0 0 0 0 
0 0 0 0 0 0 0 0 0 
0 0 0 0 0 0 0 0 0 
0 0 0 0 0 0 0 0 0 
0 0 0 0 0 0 0 0 0 
0 0 0 0 0 0 0 0 0 
0 0 0 0 0 0 0 0 0 
0 0 0 0 0 0 0 0 0 
0 0 0 0 0 0 0 0 0 
0 0 0 0 0 0 0 0 0 
0 0 0 0 0 0 0 0 0 
0 0 0 0 0 0 0 0 0 
0 0 0 0 0 0 0 0 0 
0 0 0 0 0 0 0 0 0 
0 0 0 0 0 0 0 0 0 
0 0 0 0 0 0 0 0 0 
0 0 0 0 0 0 0 0 0 
0 0 0 0 0 0 0 0 0 
0 0 0 0 0 0 0 0 0 
0 0 0 0 0 0 0 0 0 
0 0 0 0 0 0 0 0 0 
0 0 0 0 0 0 0 0 0 
0 0 0 0 0 0 0 0 0 
0 0 0 0 0 0 0 0 0 
0 0 0 0 0 0 0 0 0 
0 0 0 0 0 0 0 0 0 
0 0 0 0 0 0 0 0 0 
0 0 0 0 0 0 0 0 0 
0 0 0 0 0 0 0 0 0 
0 0 0 0 0 0 0 0 0 
0 0 0 0 0 0 0 0 0 
0 0 0 0 0 0 0 0 0 
0 0 0 0 0 0 0 0 0 
0 0 0 0 0 0 0 0 0 
0 0 0 0 0 0 0 0 0 
0 0 0 0 0 0 0 0 0 
0 0 0 0 0 0 0 0 0 
0 0 0 0 0 0 0 0 0 
0 0 0 0 0 0 0 0 0 
0 0 0 0 0 0 0 0 0 
0 0 0 0 0 0 0 0 0 
0 0 0 0 0 0 0 0 0 
0 0 0 0 0 0 0 0 0 
0 0 0 0 0 0 0 0 0 
0 0 0 0 0 0 0 0 0 
0 0 0 0 0 0 0 0 0 
0 0 0 0 0 0 0 0 0 
0 0 0 0 0 0 0 0 0 
0 0 0 0 0 0 0 0 0 
0 0 0 0 0 0 0 0 0 
0 0 0 0 0 0 0 0 0 
0 0 0 0 0 0 0 0 0 
0 0 0 0 0 0 0 0 0 
0 0 0 0 0 0 0 0 0 
0 0 0 0 0 0 0 0 0 
0 0 0 0 0 0 0 0 0 
0 0 0 0 0 0 0 0 0 
0 0 0 0 0 0 0 0 0 
0 0 0 0 0 0 0 0 0 
0 0 0 0 0 0 0 0 0 
0 0 0 0 0 0 0 0 0 
0 0 0 0 0 0 0 0 0 
0 0 0 0 0 0 0 0 0 
0 0 0 0 0 0 0 0 0 
0 0 0 0 0 0 0 0 0 
0 0 0 0 0 0 0 0 0 
0 0 0 0 0 0 0 0 0 
0 0 0 0 0 0 0 0 0 
0 0 0 0 0 0 0 0 0 
0 0 0 0 0 0 0 0 0 
0 0 0 0 0 0 0 0 0 
0 0 0 0 0 0 0 0 0 
0 0 0 0 0 0 0 0 0 

v 3 648 double
0 0 0.22866075541 0 0 0.24645276322 0 0 0.24730633856 
0 0 0.22660142312 0 0 0.18401356551 0 0 0.23285788653 
0 0 0.20786292606 0 0 0.17833047568 0 0 0.22166975184 
0 0 -0.60224918749 0 0 0.22244573728 0 0 0.18009993137 
0 0 0.1968649276 0 0 0.20902862731 0 0 0.22414172213 
0 0 0.17128755015 0 0 -0.12838407038 0 0 0.13358395329 
0 0 0.14621246035 0 0 0.21610187259 0 0 0.20726434535 
0 0 0.20329366317 0 0 0.19676254389 0 0 0.19293180619 
0 0 0.20936088532 0 0 -0.13071408765 0 0 -0.13491005807 
0 0 -0.12644862751 0 0 0.15451294885 0 0 -0.12891173592 
0 0 0.16267309606 0 0 0.17499399442 0 0 -0.63799918749 
0 0 0.2079228567 0 0 -0.12250371988 0 0 -0.5729991875 
0 0 -0.11699846426 0 0 -0.63799918749 0 0 0.21383428964 
0 0 0.19983676501 0 0 -0.11657274539 0 0 0.18299025154 
0 0 -0.11427605475 0 0 -0.12081116986 0 0 -0.11703786718 
0 0 -0.11874967086 0 0 -0.12268561955 0 0 0.16354566524 
0 0 0.18730264491 0 0 0.18270176567 0 0 0.15139205661 
0 0 0.14268188267 0 0 -0.5794991875 0 0 0.11414232403 
0 0 0.16361498909 0 0 -0.10219331144 0 0 -0.11039088927 
0 0 0.090528044509 0 0 -0.1060332918 0 0 0.15451916848 
0 0 -0.10631297078 0 0 0.11238572195 0 0 -0.11154517269 
0 0 0.10230463324 0 0 -0.10852444263 0 0 -0.10880409195 
0 0 -0.5827491875 0 0 -0.11176980571 0 0 0.18064294258 
0 0 -0.10653739164 0 0 -0.09899023565 0 0 -0.11158874844 
0 0 0.16522834232 0 0 0.20819968463 0 0 -0.5697491875 
0 0 0.095700732 0 0 -0.069551608295 0 0 -0.1005379099 
0 0 -0.098610896647 0 0 0.074248416532 0 0 0.11076014922 
0 0 0.17864160075 0 0 0.16646373141 0 0 -0.085722301152 
0 0 -0.093308927093 0 0 0.10468890055 0 0 -0.083557375891 
0 0 0.11295407016 0 0 0.17650410282 0 0 0.12522867256 
0 0 -0.091704009381 0 0 -0.096559131142 0 0 -0.09494992772 
0 0 0.070464562113 0 0 -0.085942826346 0 0 -0.090998229348 
0 0 -0.098388042451 0 0 0.17051686848 0 0 -0.094989978588 
0 0 -0.073788457287 0 0 -0.11369667636 0 0 -0.088233182131 
0 0 0.060559972821 0 0 -0.061641507465 0 0 -0.069116774399 
0 0 0.083655700564 0 0 -0.075865898171 0 0 0.044528050192 
0 0 -0.5794991875 0 0 -0.08012200625 0 0 -0.078014929481 
0 0 0.17181558705 0 0 0.1621583582 0 0 -0.085701051292 
0 0 0.16478914302 0 0 -0.077098462906 0 0 0.056140167921 
0 0 -0.034656124883 0 0 -0.5957491875 0 0 -0.07912528642 
0 0 -0.077252323656 0 0 -0.079679423251 0 0 -0.066760658807 
0 0 -0.069884962122 0 0 0.070364951487 0 0 -0.074352738254 
0 0 -0.083497779961 0 0 -0.062226251662 0 0 -0.034579067839 
0 0 -0.062271233104 0 0 0.16361064415 0 0 -0.075265875749 
0 0 -0.090740990258 0 0 -0.10384963862 0 0 -0.062902708302 
0 0 -0.09588539917 0 0 -0.040357098916 0 0 0.091964132462 
0 0 -0.095217501777 0 0 -0.041497802067 0 0 -0.5729991875 
0 0 -0.093796356775 0 0 -0.064102326129 0 0 -0.061369181054 
0 0 -0.078946468808 0 0 0.11885911182 0 0 0.12808578907 
0 0 -0.050772677486 0 0 -0.060623137201 0 0 -0.066880681693 
0 0 0.12174402952 0 0 -0.048895025947 0 0 -0.095881145536 
0 0 -0.097546799568 0 0 0.11056517526 0 0 -0.64449918749 
0 0 0.028032793534 0 0 0.11743674555 0 0 0.037200100468 
0 0 0.13249939126 0 0 -0.066578626307 0 0 -0.054331213314 
0 0 -0.094425921422 0 0 -0.04931328755 0 0 -0.039371458317 
0 0 0.1033075179 0 0 0.10530606743 0 0 -0.09248046146 
0 0 -0.067322760317 0 0 -0.094118114904 0 0 -0.048459496967 
0 0 -0.061207519339 0 0 -0.055816112578 0 0 0.10495415364 
0 0 -0.034453149944 0 0 -0.032825660638 0 0 -0.086170120279 
0 0 0.10521768298 0 0 -0.08462306176 0 0 -0.04325596714 
0 0 0.11879115546 0 0 0.12912792355 0 0 -0.014124644665 
0 0 -0.090858606535 0 0 0.13210657764 0 0 -0.029796864997 
0 0 -0.03029118286 0 0 -0.02461537539 0 0 0.11975443805 
0 0 -0.087531623241 0 0 0.088607837327 0 0 -0.081417251517 
0 0 -0.08049850927 0 0 -0.085162478619 0 0 -0.023786730177 
0 0 -0.039800021679 0 0 -0.080475057984 0 0 -0.030153284499 
0 0 -0.08095678279 0 0 -0.087002476365 0 0 -0.077637107149 
0 0 -0.090031730852 0 0 0.15628094257 0 0 -0.028337512154 
0 0 -0.050816281144 0 0 -0.022527968323 0 0 -0.030225725187 
0 0 -0.026081864079 0 0 -0.051393730487 0 0 -0.088576193966 
0 0 -0.5794991875 0 0 0.034229265804 0 0 -0.074796357423 
0 0 0.050103891935 0 0 0.13740827098 0 0 -0.016357405264 
0 0 -0.029293119141 0 0 -0.019955344869 0 0 -0.029532986825 
0 0 -0.038120158756 0 0 -0.028639041986 0 0 -0.071393629308 
0 0 -0.0069172269418 0 0 0.029921986845 0 0 0.075294638326 
0 0 -0.015288105893 0 0 -0.064753974862 0 0 0.049260290954 
0 0 0.03745345373 0 0 -0.014044282121 0 0 0.057292789399 
0 0 -0.059753837905 0 0 0.030060953751 0 0 0.059667110573 
0 0 0.13779834687 0 0 -0.0054587271359 0 0 0.005064092239 
0 0 0.062359573387 0 0 0.024636743979 0 0 0.012463147125 
0 0 0.13361047224 0 0 -0.0085282010403 0 0 -0.068633575052 
0 0 0.043534113578 0 0 -0.071771644004 0 0 0.13075647029 
0 0 0.043108651877 0 0 -0.030931644113 0 0 0.044054321229 
0 0 -0.069963382864 0 0 0.077528639142 0 0 0.085733110278 
0 0 0.074471151307 0 0 -0.0021642689198 0 0 0.014706473196 
0 0 -0.081819144381 0 0 0.0074518019646 0 0 -0.0032043162576 
0 0 -0.070593790985 0 0 -0.0061721774901 0 0 0.081776551068 
0 0 0.022793553231 0 0 -0.015658957257 0 0 -0.061933900646 
0 0 -0.057895740198 0 0 -0.0027000547698 0 0 0.001020391582 
0 0 0.049143550493 0 0 0.20480413992 0 0 0.10081855832 
0 0 -0.069735431404 0 0 0.08051311647 0 0 0.034737771473 
0 0 0.057724916098 0 0 0.0041421040477 0 0 -0.069576881292 
0 0 0.0083431514884 0 0 0.064738464799 0 0 0.011098070238 
0 0 0.050166917199 0 0 -0.0037982201077 0 0 0.05097006627 
0 0 -0.066501982341 0 0 0.060530194812 0 0 0.00068486970829 
0 0 0.042741603102 0 0 -0.067026452919 0 0 0.010627641409 
0 0 0.013277748173 0 0 -0.00095897835379 0 0 0.11344276559 
0 0 0.039708066881 0 0 0.074497198769 0 0 -0.073936352906 
0 0 -0.0086755762425 0 0 -0.063529143407 0 0 -0.5924991875 
0 0 -0.0039679137846 0 0 -0.064642469672 0 0 0.0082340074064 
0 0 0.07901137709 0 0 -0.0080703624358 0 0 0.066559357459 
0 0 0.06099559261 0 0 0.10639926587 0 0 0.018642640385 
0 0 0.0044200297511 0 0 0.039565608115 0 0 -0.003730995575 
0 0 0.037920982088 0 0 0.04182007506 0 0 -0.055718756597 
0 0 -0.050703093409 0 0 0.045270701439 0 0 0.068992301217 
0 0 0.017817582551 0 0 0.042610630331 0 0 0.063035635512 
0 0 0.078375666438 0 0 0.087922354018 0 0 0.045766456636 
0 0 0.049965728209 0 0 -0.032718770859 0 0 -0.012062726126 
0 0 -0.057013485501 0 0 -0.042447008413 0 0 -0.047830207651 
0 0 0.051139969966 0 0 0.032478558058 0 0 -0.055394157566 
0 0 -0.5989991875 0 0 0.020599469454 0 0 0.022088709174 
0 0 -0.01625478303 0 0 -0.034022535111 0 0 0.036664113122 
0 0 0.024479791797 0 0 0.045443046318 0 0 0.070501272487 
0 0 0.088358496327 0 0 -0.034600205032 0 0 0.052587256076 
0 0 0.031853747606 0 0 0.041093879534 0 0 0.063845316595 
0 0 -0.044757297498 0 0 -0.035407034399 0 0 -0.042570058347 
0 0 -0.055625893961 0 0 -0.034387125312 0 0 -0.037071758431 
0 0 -0.051704434962 0 0 -0.064936621757 0 0 0.013343303994 
0 0 -0.60549918749 0 0 0.068679431138 0 0 0.060197632015 
0 0 -0.048002340556 0 0 0.013471983854 0 0 -0.0063391540734 
0 0 0.032398614839 0 0 0.050845478432 0 0 -0.01408032222 
0 0 -0.019821634868 0 0 -0.0023373577706 0 0 -0.016495975438 
0 0 -0.026305837262 0 0 0.1104898737 0 0 0.10618599088 
0 0 0.085899565954 0 0 -0.020537566096 0 0 -0.02240897984 
0 0 -0.0073786257878 0 0 -0.01890946601 0 0 -0.014044720066 
0 0 0.11171808977 0 0 -0.0083755376572 0 0 -0.026104210032 
0 0 -0.026522003016 0 0 -0.028894501934 0 0 -0.0087755140502 
0 0 -0.034153009497 0 0 -0.02555002527 0 0 0.075688250846 
0 0 0.095062775645 0 0 0.10383682451 0 0 0.10673265393 
0 0 -0.064669243136 0 0 -0.026948900821 0 0 0.098454879511 
0 0 -0.0010756344576 0 0 -0.017475775799 0 0 0.080406956281 
0 0 0.083820885163 0 0 -0.013435142894 0 0 -0.017646069893 
0 0 -0.016900235701 0 0 0.10240023014 0 0 0.051228633907 
0 0 -0.026419396467 0 0 -0.0077019148242 0 0 -0.62499918749 
0 0 -0.061941486836 0 0 -0.020422811447 0 0 0.11049055303 
0 0 -0.0061585299563 0 0 -0.03258193911 0 0 -0.036176470873 
0 0 0.1124144721 0 0 -0.02662832335 0 0 0.11268811428 
0 0 -0.033744009881 0 0 -0.017750743066 0 0 -0.00074284491987 
0 0 0.097187359652 0 0 0.12225396508 0 0 0.045401133342 
0 0 0.011939343041 0 0 0.049657903947 0 0 0.080571251335 
0 0 0.0022109751616 0 0 0.028523332822 0 0 0.068257710959 
0 0 0.052546722165 0 0 0.037335038608 0 0 -0.00089324918641 
0 0 0.081039952664 0 0 -0.015544603131 0 0 0.091669656469 
0 0 0.1079490027 0 0 0.077797014818 0 0 0.07411365276 
0 0 -0.014574149975 0 0 0.033957695178 0 0 0.0025468192274 
0 0 0.040493905421 0 0 0.097141334608 0 0 0.095181197274 
0 0 0.058140150294 0 0 0.051732834049 0 0 0.016447737445 
0 0 0.086842349529 0 0 0.040245971871 0 0 0.10389907191 
0 0 0.03870764348 0 0 0.019195960367 0 0 0.067925319371 
0 0 0.099301185353 0 0 0.057824849481 0 0 0.0026360082324 
0 0 0.043321218908 0 0 0.053652038579 0 0 0.0080309307644 
0 0 0.088717821822 0 0 0.042874663204 0 0 0.036408354614 
0 0 0.050360479199 0 0 0.050747971584 0 0 0.015418001321 
0 0 0.082698869986 0 0 0.093681378914 0 0 0.13468890482 
0 0 0.042911014577 0 0 0.096534317951 0 0 0.033187081465 
0 0 0.068738498822 0 0 -0.0022977644101 0 0 0.066914908569 
0 0 0.025980413492 0 0 0.092920910948 0 0 0.08593351482 
0 0 0.055773379886 0 0 0.010904181904 0 0 0.028208249374 
0 0 -0.03225434997 0 0 0.055962501302 0 0 0.099852260647 
0 0 0.07790705362 0 0 0.08306966802 0 0 0.10169985498 
0 0 0.042941208192 0 0 0.014060925891 0 0 0.034773787821 
0 0 -5.053589929e-05 0 0 0.021988510242 0 0 0.01063987987 
0 0 0.062332989658 0 0 0.034836509888 0 0 0.050638034858 
0 0 0.12103134508 0 0 0.038259967771 0 0 0.027907068178 
0 0 0.0563675969 0 0 0.024655051314 0 0 0.047158689747 
0 0 0.039108973104 0 0 0.047708087868 0 0 0.040580231142 
0 0 0.084423593272 0 0 0.099748435474 0 0 0.012874165259 
0 0 0.07557925621 0 0 -0.00054689336432 0 0 0.066729453068 
0 0 0.03313929975 0 0 0.05522378792 0 0 0.090433700734 
0 0 0.016327659134 0 0 0.090719189102 0 0 -0.0051531073299 
0 0 0.018010960755 0 0 0.071944281559 0 0 0.054921647332 
0 0 0.068753510313 0 0 0.043141074395 0 0 0.079269488951 
0 0 0.075200159567 0 0 0.070308622281 0 0 0.076672585433 
0 0 0.073626169186 0 0 0.065686722759 0 0 0.10887771301 
0 0 0.0061158168767 0 0 -0.015999106224 0 0 0.0016770321394 
0 0 -0.0091348707814 0 0 0.0183403253 0 0 0.037197916962 
0 0 0.082551092934 0 0 0.032766611681 0 0 0.0038098307463 
0 0 0.041021843845 0 0 0.025455892551 0 0 0.088780933588 
0 0 0.059141376806 0 0 0.012694927575 0 0 0.071321446961 
0 0 0.091472942695 0 0 0.099843097796 0 0 0.093585395982 
0 0 -0.0048880441972 0 0 0.088854423577 0 0 -0.62824918749 
0 0 0.0036153028844 0 0 0.00066485737765 0 0 -0.0040908042319 
0 0 0.032092854575 0 0 0.03727696755 0 0 0.0054114367133 
0 0 0.064105541667 0 0 0.043918801669 0 0 0.035271284937 
0 0 -0.011750897951 0 0 0.083676970095 0 0 0.10087066995 
0 0 -0.047943619304 0 0 0.032756118423 0 0 0.098618104285 
0 0 0.0094737661887 0 0 0.054321142767 0 0 -0.0048516778233 
0 0 0.087454034031 0 0 0.1264245455 0 0 0.0690404619 
0 0 0.0093790090767 0 0 0.079024060163 0 0 0.019303485051 
0 0 -0.017948547394 0 0 0.049294241068 0 0 0.076603207205 
0 0 0.073027975991 0 0 0.0550294822 0 0 0.10682141767 
0 0 0.046680019 0 0 0.01757425336 0 0 0.10793510339 
0 0 0.059517486388 0 0 0.092076280409 0 0 0.052326181367 
0 0 0.071451145812 0 0 0.0065075458671 0 0 0.032620761823 
0 0 0.050147772055 0 0 0.085678564471 0 0 0.0079351585699 
0 0 0.044072631488 0 0 0.028460652882 0 0 0.014418267907 
0 0 0.065250292957 0 0 0.10853608082 0 0 0.13837966104 
0 0 0.017226663259 0 0 -0.62824918749 0 0 0.046272246885 
0 0 -0.0066426238629 0 0 0.11182547774 0 0 0.0073585714845 
0 0 -0.021334786611 0 0 0.0636349779 0 0 0.067192757494 
0 0 0.041092606125 0 0 0.021288483717 0 0 0.040832265131 
0 0 0.029504100652 0 0 0.071876486542 0 0 0.038989291416 
0 0 0.13499085941 0 0 0.043345494014 0 0 -0.5794991875 
0 0 0.095245661141 0 0 0.034361090872 0 0 0.093666185878 
0 0 0.055770902 0 0 0.065974228357 0 0 0.065354866611 
0 0 -0.035422768368 0 0 -0.5957491875 0 0 0.03722126591 
0 0 -0.0017274602475 0 0 -0.017977363113 0 0 0.096951173882 
0 0 0.06141563999 0 0 0.10279840314 0 0 0.054788615742 
0 0 0.12649267595 0 0 -0.60224918749 0 0 -0.5664991875 
0 0 0.10459159217 0 0 -0.5664991875 0 0 0.01435758077 
0 0 0.1057841462 0 0 -0.5762491875 0 0 -0.60224918749 
0 0 0.036424264426 0 0 0.035694465046 0 0 -0.5664991875 
0 0 -0.5827491875 0 0 -0.5794991875 0 0 -0.5664991875 
0 0 -0.5664991875 0 0 0.15575495422 0 0 -0.5762491875 
0 0 -0.5729991875 0 0 -0.5794991875 0 0 -0.5827491875 
0 0 -0.5697491875 0 0 -0.5697491875 0 0 -0.5664991875 

f 3 648 double
0 0 -1.7425367252e-10 0 0 -1.7425367252e-10 0 0 -1.7425367252e-10 
0 0 -1.7425367252e-10 0 0 -1.7425367252e-10 0 0 -1.7425367252e-10 
0 0 -1.7425367252e-10 0 0 -1.7425367252e-10 0 0 -1.7425367252e-10 
0 0 -1.7425367252e-10 0 0 -1.7425367252e-10 0 0 -1.7425367252e-10 
0 0 -1.7425367252e-10 0 0 -1.7425367252e-10 0 0 -1.7425367252e-10 
0 0 -1.7425367252e-10 0 0 -1.7425367252e-10 0 0 -1.7425367252e-10 
0 0 -1.7425367252e-10 0 0 -1.7425367252e-10 0 0 -1.7425367252e-10 
0 0 -1.7425367252e-10 0 0 -1.7425367252e-10 0 0 -1.7425367252e-10 
0 0 -1.7425367252e-10 0 0 -1.7425367252e-10 0 0 -1.7425367252e-10 
0 0 -1.7425367252e-10 0 0 -1.7425367252e-10 0 0 -1.7425367252e-10 
0 0 -1.7425367252e-10 0 0 -1.7425367252e-10 0 0 -1.7425367252e-10 
0 0 -1.7425367252e-10 0 0 -1.7425367252e-10 0 0 -1.7425367252e-10 
0 0 -1.7425367252e-10 0 0 -1.7425367252e-10 0 0 -1.7425367252e-10 
0 0 -1.7425367252e-10 0 0 -1.7425367252e-10 0 0 -1.7425367252e-10 
0 0 -1.7425367252e-10 0 0 -1.7425367252e-10 0 0 -1.7425367252e-10 
0 0 -1.7425367252e-10 0 0 -1.7425367252e-10 0 0 -1.7425367252e-10 
0 0 -1.7425367252e-10 0 0 -1.7425367252e-10 0 0 -1.7425367252e-10 
0 0 -1.7425367252e-10 0 0 -1.7425367252e-10 0 0 -1.7425367252e-10 
0 0 -1.7425367252e-10 0 0 -1.7425367252e-10 0 0 -1.7425367252e-10 
0 0 -1.7425367252e-10 0 0 -1.7425367252e-10 0 0 -1.7425367252e-10 
0 0 -1.7425367252e-10 0 0 -1.7425367252e-10 0 0 -1.7425367252e-10 
0 0 -1.7425367252e-10 0 0 -1.7425367252e-10 0 0 -1.7425367252e-10 
0 0 -1.7425367252e-10 0 0 -1.7425367252e-10 0 0 -1.7425367252e-10 
0 0 -1.7425367252e-10 0 0 -1.7425367252e-10 0 0 -1.7425367252e-10 
0 0 -1.7425367252e-10 0 0 -1.7425367252e-10 0 0 -1.7425367252e-10 
0 0 -1.7425367252e-10 0 0 -1.7425367252e-10 0 0 -1.7425367252e-10 
0 0 -1.7425367252e-10 0 0 -1.7425367252e-10 0 0 -1.7425367252e-10 
0 0 -1.7425367252e-10 0 0 -1.7425367252e-10 0 0 -1.7425367252e-10 
0 0 -1.7425367252e-10 0 0 -1.7425367252e-10 0 0 -1.7425367252e-10 
0 0 -1.7425367252e-10 0 0 -1.7425367252e-10 0 0 -1.7425367252e-10 
0 0 -1.7425367252e-10 0 0 -1.7425367252e-10 0 0 -1.7425367252e-10 
0 0 -1.7425367252e-10 0 0 -1.7425367252e-10 0 0 -1.7425367252e-10 
0 0 -1.7425367252e-10 0 0 -1.7425367252e-10 0 0 -1.7425367252e-10 
0 0 -1.7425367252e-10 0 0 -1.7425367252e-10 0 0 -1.7425367252e-10 
0 0 -1.7425367252e-10 0 0 -1.7425367252e-10 0 0 -1.7425367252e-10 
0 0 -1.7425367252e-10 0 0 -1.7425367252e-10 0 0 -1.7425367252e-10 
0 0 -1.7425367252e-10 0 0 -1.7425367252e-10 0 0 -1.7425367252e-10 
0 0 -1.7425367252e-10 0 0 -1.7425367252e-10 0 0 -1.7425367252e-10 
0 0 -1.7425367252e-10 0 0 -1.7425367252e-10 0 0 -1.7425367252e-10 
0 0 -1.7425367252e-10 0 0 -1.7425367252e-10 0 0 -1.7425367252e-10 
0 0 -1.7425367252e-10 0 0 -1.7425367252e-10 0 0 -1.7425367252e-10 
0 0 -1.7425367252e-10 0 0 -1.7425367252e-10 0 0 -1.7425367252e-10 
0 0 -1.7425367252e-10 0 0 -1.7425367252e-10 0 0 -1.7425367252e-10 
0 0 -1.7425367252e-10 0 0 -1.7425367252e-10 0 0 -1.7425367252e-10 
0 0 -1.7425367252e-10 0 0 -1.7425367252e-10 0 0 -1.7425367252e-10 
0 0 -1.7425367252e-10 0 0 -1.7425367252e-10 0 0 -1.7425367252e-10 
0 0 -1.7425367252e-10 0 0 -1.7425367252e-10 0 0 -8.9019973083e-09 
0 0 -1.7425367252e-10 0 0 -1.7425367252e-10 0 0 -1.7425367252e-10 
0 0 -1.7425367252e-10 0 0 -1.7425367252e-10 0 0 -1.7425367252e-10 
0 0 -1.7425367252e-10 0 0 -1.7425367252e-10 0 0 -1.7425367252e-10 
0 0 -1.7425367252e-10 0 0 -1.7425367252e-10 0 0 -1.7425367252e-10 
0 0 -1.7425367252e-10 0 0 -1.7425367252e-10 0 0 -1.7425367252e-10 
0 0 -1.7425367252e-10 0 0 -1.7425367252e-10 0 0 -1.7425367252e-10 
0 0 -1.7425367252e-10 0 0 -1.7425367252e-10 0 0 -1.7425367252e-10 
0 0 -1.7425367252e-10 0 0 -1.7425367252e-10 0 0 -1.7425367252e-10 
0 0 -1.7425367252e-10 0 0 -1.7425367252e-10 0 0 -1.7425367252e-10 
0 0 -1.7425367252e-10 0 0 -1.7425367252e-10 0 0 -1.7425367252e-10 
0 0 -1.7425367252e-10 0 0 -1.7425367252e-10 0 0 -1.7425367252e-10 
0 0 -1.7425367252e-10 0 0 -1.7425367252e-10 0 0 -1.7425367252e-10 
0 0 -1.7425367252e-10 0 0 -1.7425367252e-10 0 0 -1.7425367252e-10 
0 0 -1.7425367252e-10 0 0 -1.7425367252e-10 0 0 -1.7425367252e-10 
0 0 -1.7425367252e-10 0 0 -1.7425367252e-10 0 0 -1.7425367252e-10 
0 0 -1.7425367252e-10 0 0 -1.7425367252e-10 0 0 -1.7425367252e-10 
0 0 -1.7425367252e-10 0 0 -1.7425367252e-10 0 0 -1.7425367252e-10 
0 0 -1.7425367252e-10 0 0 -1.7425367252e-10 0 0 -1.7425367252e-10 
0 0 -1.7425367252e-10 0 0 -1.7425367252e-10 0 0 -1.7425367252e-10 
0 0 -1.7425367252e-10 0 0 -1.7425367252e-10 0 0 -1.7425367252e-10 
0 0 -1.7425367252e-10 0 0 -1.7425367252e-10 0 0 -1.7425367252e-10 
0 0 -1.7425367252e-10 0 0 -1.7425367252e-10 0 0 -1.7425367252e-10 
0 0 -1.7425367252e-10 0 0 -1.7425367252e-10 0 0 -1.7425367252e-10 
0 0 -1.7425367252e-10 0 0 -1.7425367252e-10 0 0 -1.7425367252e-10 
0 0 -1.7425367252e-10 0 0 -1.7425367252e-10 0 0 -1.7425367252e-10 
0 0 -1.7425367252e-10 0 0 -1.7425367252e-10 0 0 -1.7425367252e-10 
0 0 -1.7425367252e-10 0 0 -1.7425367252e-10 0 0 -1.7425367252e-10 
0 0 -1.7425367252e-10 0 0 -1.7425367252e-10 0 0 -1.7425367252e-10 
0 0 -1.7425367252e-10 0 0 -1.7425367252e-10 0 0 -1.7425367252e-10 
0 0 -1.7425367252e-10 0 0 -1.7425367252e-10 0 0 -1.7425367252e-10 
0 0 -1.7425367252e-10 0 0 -1.7425367252e-10 0 0 -1.7425367252e-10 
0 0 -1.7425367252e-10 0 0 -1.7425367252e-10 0 0 -1.7425367252e-10 
0 0 -1.7425367252e-10 0 0 -1.7425367252e-10 0 0 -1.7425367252e-10 
0 0 -1.7425367252e-10 0 0 -1.7425367252e-10 0 0 -1.7425367252e-10 
0 0 -1.7425367252e-10 0 0 -1.7425367252e-10 0 0 -1.7425367252e-10 
0 0 -1.7425367252e-10 0 0 -1.7425367252e-10 0 0 -1.7425367252e-10 
0 0 -1.7425367252e-10 0 0 -1.7425367252e-10 0 0 -1.7425367252e-10 
0 0 -1.7425367252e-10 0 0 -1.7425367252e-10 0 0 -1.7425367252e-10 
0 0 -8.9019973083e-09 0 0 -1.7425367252e-10 0 0 -1.7425367252e-10 
0 0 -1.7425367252e-10 0 0 -1.7425367252e-10 0 0 -1.7425367252e-10 
0 0 -1.7425367252e-10 0 0 -1.7425367252e-10 0 0 -1.7425367252e-10 
0 0 -1.7425367252e-10 0 0 -1.7425367252e-10 0 0 -1.7425367252e-10 
0 0 -1.7425367252e-10 0 0 -8.9019973083e-09 0 0 -1.7425367252e-10 
0 0 -1.7425367252e-10 0 0 -1.7425367252e-10 0 0 -1.7425367252e-10 
0 0 -1.7425367252e-10 0 0 -1.7425367252e-10 0 0 -1.7425367252e-10 
0 0 -1.7425367252e-10 0 0 -1.7425367252e-10 0 0 -1.7425367252e-10 
0 0 -1.7425367252e-10 0 0 -1.7425367252e-10 0 0 -1.7425367252e-10 
0 0 -1.7425367252e-10 0 0 -1.7425367252e-10 0 0 -1.7425367252e-10 
0 0 -1.7425367252e-10 0 0 -1.7425367252e-10 0 0 -1.7425367252e-10 
0 0 -1.7425367252e-10 0 0 -1.7425367252e-10 0 0 -1.7425367252e-10 
0 0 -1.7425367252e-10 0 0 -1.7425367252e-10 0 0 -1.7425367252e-10 
0 0 -1.7425367252e-10 0 0 -1.7425367252e-10 0 0 -1.7425367252e-10 
0 0 -1.7425367252e-10 0 0 -1.7425367252e-10 0 0 -1.7425367252e-10 
0 0 -1.7425367252e-10 0 0 -1.7425367252e-10 0 0 -1.7425367252e-10 
0 0 -1.7425367252e-10 0 0 -1.7425367252e-10 0 0 -1.7425367252e-10 
0 0 -1.7425367252e-10 0 0 -1.7425367252e-10 0 0 -1.7425367252e-10 
0 0 -1.7425367252e-10 0 0 -1.7425367252e-10 0 0 -1.7425367252e-10 
0 0 -1.7425367252e-10 0 0 -1.7425367252e-10 0 0 -1.7425367252e-10 
0 0 -1.7425367252e-10 0 0 -1.7425367252e-10 0 0 -1.7425367252e-10 
0 0 -1.7425367252e-10 0 0 -1.7425367252e-10 0 0 -1.7425367252e-10 
0 0 -1.7425367252e-10 0 0 -1.7425367252e-10 0 0 -1.7425367252e-10 
0 0 -1.7425367252e-10 0 0 -1.7425367252e-10 0 0 -1.7425367252e-10 
0 0 -1.7425367252e-10 0 0 -1.7425367252e-10 0 0 -1.7425367252e-10 
0 0 -1.7425367252e-10 0 0 -1.7425367252e-10 0 0 -1.7425367252e-10 
0 0 -1.7425367252e-10 0 0 -1.7425367252e-10 0 0 -1.7425367252e-10 
0 0 -1.7425367252e-10 0 0 -1.7425367252e-10 0 0 -1.7425367252e-10 
0 0 -1.7425367252e-10 0 0 -1.7425367252e-10 0 0 -1.7425367252e-10 
0 0 -1.7425367252e-10 0 0 -1.7425367252e-10 0 0 -1.7425367252e-10 
0 0 -1.7425367252e-10 0 0 -1.7425367252e-10 0 0 -1.7425367252e-10 
0 0 -1.7425367252e-10 0 0 -1.7425367252e-10 0 0 -1.7425367252e-10 
0 0 -1.7425367252e-10 0 0 -1.7425367252e-10 0 0 -1.7425367252e-10 
0 0 -1.7425367252e-10 0 0 -1.7425367252e-10 0 0 -1.7425367252e-10 
0 0 -1.7425367252e-10 0 0 -1.7425367252e-10 0 0 -1.7425367252e-10 
0 0 -1.7425367252e-10 0 0 -1.7425367252e-10 0 0 -1.7425367252e-10 
0 0 -1.7425367252e-10 0 0 -1.7425367252e-10 0 0 -1.7425367252e-10 
0 0 -1.7425367252e-10 0 0 -1.7425367252e-10 0 0 -1.7425367252e-10 
0 0 -1.7425367252e-10 0 0 -1.7425367252e-10 0 0 -1.7425367252e-10 
0 0 -1.7425367252e-10 0 0 -1.7425367252e-10 0 0 -1.7425367252e-10 
0 0 -1.7425367252e-10 0 0 -1.7425367252e-10 0 0 -1.7425367252e-10 
0 0 -1.7425367252e-10 0 0 -1.7425367252e-10 0 0 -1.7425367252e-10 
0 0 -1.7425367252e-10 0 0 -1.7425367252e-10 0 0 -1.7425367252e-10 
0 0 -1.7425367252e-10 0 0 -1.7425367252e-10 0 0 -1.7425367252e-10 
0 0 -8.9019973083e-09 0 0 -1.7425367252e-10 0 0 -1.7425367252e-10 
0 0 -1.7425367252e-10 0 0 -1.7425367252e-10 0 0 -1.7425367252e-10 
0 0 -1.7425367252e-10 0 0 -1.7425367252e-10 0 0 -1.7425367252e-10 
0 0 -1.7425367252e-10 0 0 -1.7425367252e-10 0 0 -1.7425367252e-10 
0 0 -1.7425367252e-10 0 0 -1.7425367252e-10 0 0 -1.7425367252e-10 
0 0 -8.9019973083e-09 0 0 -1.7425367252e-10 0 0 -1.7425367252e-10 
0 0 -1.7425367252e-10 0 0 -1.7425367252e-10 0 0 -1.7425367252e-10 
0 0 -1.7425367252e-10 0 0 -1.7425367252e-10 0 0 -1.7425367252e-10 
0 0 -1.7425367252e-10 0 0 -1.7425367252e-10 0 0 -1.7425367252e-10 
0 0 -1.7425367252e-10 0 0 -1.7425367252e-10 0 0 -1.7425367252e-10 
0 0 -1.7425367252e-10 0 0 -1.7425367252e-10 0 0 -1.7425367252e-10 
0 0 -1.7425367252e-10 0 0 -1.7425367252e-10 0 0 -1.7425367252e-10 
0 0 -1.7425367252e-10 0 0 -1.7425367252e-10 0 0 -1.7425367252e-10 
0 0 -1.7425367252e-10 0 0 -1.7425367252e-10 0 0 -1.7425367252e-10 
0 0 -1.7425367252e-10 0 0 -1.7425367252e-10 0 0 -1.7425367252e-10 
0 0 -1.7425367252e-10 0 0 -1.7425367252e-10 0 0 -1.7425367252e-10 
0 0 -1.7425367252e-10 0 0 -1.7425367252e-10 0 0 -1.7425367252e-10 
0 0 -1.7425367252e-10 0 0 -1.7425367252e-10 0 0 -1.7425367252e-10 
0 0 -1.7425367252e-10 0 0 -1.7425367252e-10 0 0 -1.7425367252e-10 
0 0 -1.7425367252e-10 0 0 -1.7425367252e-10 0 0 -1.7425367252e-10 
0 0 -1.7425367252e-10 0 0 -1.7425367252e-10 0 0 -1.7425367252e-10 
0 0 -1.7425367252e-10 0 0 -1.7425367252e-10 0 0 -1.7425367252e-10 
0 0 -1.7425367252e-10 0 0 -1.7425367252e-10 0 0 -1.7425367252e-10 
0 0 -1.7425367252e-10 0 0 -1.7425367252e-10 0 0 -1.7425367252e-10 
0 0 -1.7425367252e-10 0 0 -1.7425367252e-10 0 0 -8.9019973083e-09 
0 0 -1.7425367252e-10 0 0 -1.7425367252e-10 0 0 -1.7425367252e-10 
0 0 -1.7425367252e-10 0 0 -1.7425367252e-10 0 0 -1.7425367252e-10 
0 0 -1.7425367252e-10 0 0 -1.7425367252e-10 0 0 -1.7425367252e-10 
0 0 -1.7425367252e-10 0 0 -1.7425367252e-10 0 0 -1.7425367252e-10 
0 0 -8.9019973083e-09 0 0 -1.7425367252e-10 0 0 -1.7425367252e-10 
0 0 -1.7425367252e-10 0 0 -1.7425367252e-10 0 0 -1.7425367252e-10 
0 0 -1.7425367252e-10 0 0 -1.7425367252e-10 0 0 -1.7425367252e-10 
0 0 -1.7425367252e-10 0 0 -1.7425367252e-10 0 0 -1.7425367252e-10 
0 0 -1.7425367252e-10 0 0 -1.7425367252e-10 0 0 -1.7425367252e-10 
0 0 -1.7425367252e-10 0 0 -1.7425367252e-10 0 0 -1.7425367252e-10 
0 0 -1.7425367252e-10 0 0 -1.7425367252e-10 0 0 -1.7425367252e-10 
0 0 -1.7425367252e-10 0 0 -1.7425367252e-10 0 0 -1.7425367252e-10 
0 0 -1.7425367252e-10 0 0 -1.7425367252e-10 0 0 -1.7425367252e-10 
0 0 -1.7425367252e-10 0 0 -1.7425367252e-10 0 0 -1.7425367252e-10 
0 0 -1.7425367252e-10 0 0 -1.7425367252e-10 0 0 -1.7425367252e-10 
0 0 -1.7425367252e-10 0 0 -1.7425367252e-10 0 0 -1.7425367252e-10 
0 0 -1.7425367252e-10 0 0 -1.7425367252e-10 0 0 -1.7425367252e-10 
0 0 -1.7425367252e-10 0 0 -1.7425367252e-10 0 0 -1.7425367252e-10 
0 0 -1.7425367252e-10 0 0 -1.7425367252e-10 0 0 -1.7425367252e-10 
0 0 -1.7425367252e-10 0 0 -1.7425367252e-10 0 0 -1.7425367252e-10 
0 0 -1.7425367252e-10 0 0 -1.7425367252e-10 0 0 -1.7425367252e-10 
0 0 -1.7425367252e-10 0 0 -1.7425367252e-10 0 0 -1.7425367252e-10 
0 0 -1.7425367252e-10 0 0 -1.7425367252e-10 0 0 -1.7425367252e-10 
0 0 -1.7425367252e-10 0 0 -1.7425367252e-10 0 0 -1.7425367252e-10 
0 0 -1.7425367252e-10 0 0 -1.7425367252e-10 0 0 -1.7425367252e-10 
0 0 -1.7425367252e-10 0 0 -1.7425367252e-10 0 0 -1.7425367252e-10 
0 0 -1.7425367252e-10 0 0 -1.7425367252e-10 0 0 -1.7425367252e-10 
0 0 -1.7425367252e-10 0 0 -1.7425367252e-10 0 0 -1.7425367252e-10 
0 0 -1.7425367252e-10 0 0 -1.7425367252e-10 0 0 -1.7425367252e-10 
0 0 -1.7425367252e-10 0 0 -1.7425367252e-10 0 0 -1.7425367252e-10 
0 0 -1.7425367252e-10 0 0 -1.7425367252e-10 0 0 -1.7425367252e-10 
0 0 -8.9019973083e-09 0 0 -1.7425367252e-10 0 0 -1.7425367252e-10 
0 0 -1.7425367252e-10 0 0 -1.7425367252e-10 0 0 -1.7425367252e-10 
0 0 -1.7425367252e-10 0 0 -1.7425367252e-10 0 0 -1.7425367252e-10 
0 0 -1.7425367252e-10 0 0 -1.7425367252e-10 0 0 -1.7425367252e-10 
0 0 -1.7425367252e-10 0 0 -1.7425367252e-10 0 0 -1.7425367252e-10 
0 0 -1.7425367252e-10 0 0 -1.7425367252e-10 0 0 -1.7425367252e-10 
0 0 -1.7425367252e-10 0 0 -1.7425367252e-10 0 0 -1.7425367252e-10 
0 0 -1.7425367252e-10 0 0 -1.7425367252e-10 0 0 -1.7425367252e-10 
0 0 -1.7425367252e-10 0 0 -1.7425367252e-10 0 0 -1.7425367252e-10 
0 0 -1.7425367252e-10 0 0 -1.7425367252e-10 0 0 -1.7425367252e-10 
0 0 -1.7425367252e-10 0 0 -1.7425367252e-10 0 0 -1.7425367252e-10 
0 0 -1.7425367252e-10 0 0 -1.7425367252e-10 0 0 -1.7425367252e-10 
0 0 -1.7425367252e-10 0 0 -1.7425367252e-10 0 0 -1.7425367252e-10 
0 0 -8.9019973083e-09 0 0 -1.7425367252e-10 0 0 -1.7425367252e-10 
0 0 -8.9019973083e-09 0 0 -1.7425367252e-10 0 0 -1.7425367252e-10 
0 0 -1.7425367252e-10 0 0 -1.7425367252e-10 0 0 -1.7425367252e-10 
0 0 -1.7425367252e-10 0 0 -1.7425367252e-10 0 0 -1.7425367252e-10 
0 0 -1.7425367252e-10 0 0 -1.7425367252e-10 0 0 -1.7425367252e-10 
0 0 -1.7425367252e-10 0 0 -1.7425367252e-10 0 0 -1.7425367252e-10 
0 0 -1.7425367252e-10 0 0 -1.7425367252e-10 0 0 -1.7425367252e-10 
0 0 -8.9019973083e-09 0 0 -1.7425367252e-10 0 0 -1.7425367252e-10 
0 0 -8.9019973083e-09 0 0 -8.9019973083e-09 0 0 -1.7425367252e-10 
0 0 -1.7425367252e-10 0 0 -1.7425367252e-10 0 0 -1.7425367252e-10 
0 0 -1.7425367252e-10 0 0 -1.7425367252e-10 0 0 -1.7425367252e-10 
0 0 -8.9019973083e-09 0 0 -1.7425367252e-10 0 0 -8.9019973083e-09 
0 0 -8.9019973083e-09 0 0 -1.7425367252e-10 0 0 -1.7425367252e-10 
0 0 -8.9019973083e-09 0 0 -6.8918688838e-08 0 0 -1.7425367252e-10 
0 0 -1.7425367252e-10 0 0 -1.7425367252e-10 0 0 -1.7425367252e-10 
0 0 -1.7425367252e-10 0 0 -5.3297119368e-07 0 0 -1.7425367252e-10 
0 0 -1.7425367252e-10 0 0 -1.7425367252e-10 0 0 -1.7425367252e-10 
0 0 -1.7425367252e-10 0 0 -1.7425367252e-10 0 0 -1.7425367252e-10 

radius 1 648 double
2e-05 2e-05 2e-05 2e-05 2e-05 2e-05 2e-05 2e-05 2e-05 
2e-05 2e-05 2e-05 2e-05 2e-05 2e-05 2e-05 2e-05 2e-05 
2e-05 2e-05 2e-05 2e-05 2e-05 2e-05 2e-05 2e-05 2e-05 
2e-05 2e-05 2e-05 2e-05 2e-05 2e-05 2e-05 2e-05 2e-05 
2e-05 2e-05 2e-05 2e-05 2e-05 2e-05 2e-05 2e-05 2e-05 
2e-05 2e-05 2e-05 2e-05 2e-05 2e-05 2e-05 2e-05 2e-05 
2e-05 2e-05 2e-05 2e-05 2e-05 2e-05 2e-05 2e-05 2e-05 
2e-05 2e-05 2e-05 2e-05 2e-05 2e-05 2e-05 2e-05 2e-05 
2e-05 2e-05 2e-05 2e-05 2e-05 2e-05 2e-05 2e-05 2e-05 
2e-05 2e-05 2e-05 2e-05 2e-05 2e-05 2e-05 2e-05 2e-05 
2e-05 2e-05 2e-05 2e-05 2e-05 2e-05 2e-05 2e-05 2e-05 
2e-05 2e-05 2e-05 2e-05 2e-05 2e-05 2e-05 2e-05 2e-05 
2e-05 2e-05 2e-05 2e-05 2e-05 2e-05 2e-05 2e-05 2e-05 
2e-05 2e-05 2e-05 2e-05 2e-05 2e-05 2e-05 2e-05 2e-05 
2e-05 2e-05 2e-05 2e-05 2e-05 2e-05 2e-05 2e-05 2e-05 
2e-05 2e-05 2e-05 2e-05 2e-05 7.5e-05 2e-05 2e-05 2e-05 
2e-05 2e-05 2e-05 2e-05 2e-05 2e-05 2e-05 2e-05 2e-05 
2e-05 2e-05 2e-05 2e-05 2e-05 2e-05 2e-05 2e-05 2e-05 
2e-05 2e-05 2e-05 2e-05 2e-05 2e-05 2e-05 2e-05 2e-05 
2e-05 2e-05 2e-05 2e-05 2e-05 2e-05 2e-05 2e-05 2e-05 
2e-05 2e-05 2e-05 2e-05 2e-05 2e-05 2e-05 2e-05 2e-05 
2e-05 2e-05 2e-05 2e-05 2e-05 2e-05 2e-05 2e-05 2e-05 
2e-05 2e-05 2e-05 2e-05 2e-05 2e-05 2e-05 2e-05 2e-05 
2e-05 2e-05 2e-05 2e-05 2e-05 2e-05 2e-05 2e-05 2e-05 
2e-05 2e-05 2e-05 2e-05 2e-05 2e-05 2e-05 2e-05 2e-05 
2e-05 2e-05 2e-05 2e-05 2e-05 2e-05 2e-05 2e-05 2e-05 
2e-05 2e-05 2e-05 2e-05 2e-05 2e-05 2e-05 2e-05 2e-05 
2e-05 2e-05 2e-05 2e-05 2e-05 2e-05 2e-05 2e-05 2e-05 
2e-05 2e-05 2e-05 7.5e-05 2e-05 2e-05 2e-05 2e-05 2e-05 
2e-05 2e-05 2e-05 2e-05 2e-05 2e-05 2e-05 7.5e-05 2e-05 
2e-05 2e-05 2e-05 2e-05 2e-05 2e-05 2e-05 2e-05 2e-05 
2e-05 2e-05 2e-05 2e-05 2e-05 2e-05 2e-05 2e-05 2e-05 
2e-05 2e-05 2e-05 2e-05 2e-05 2e-05 2e-05 2e-05 2e-05 
2e-05 2e-05 2e-05 2e-05 2e-05 2e-05 2e-05 2e-05 2e-05 
2e-05 2e-05 2e-05 2e-05 2e-05 2e-05 2e-05 2e-05 2e-05 
2e-05 2e-05 2e-05 2e-05 2e-05 2e-05 2e-05 2e-05 2e-05 
2e-05 2e-05 2e-05 2e-05 2e-05 2e-05 2e-05 2e-05 2e-05 
2e-05 2e-05 2e-05 2e-05 2e-05 2e-05 2e-05 2e-05 2e-05 
2e-05 2e-05 2e-05 2e-05 2e-05 2e-05 2e-05 2e-05 2e-05 
2e-05 2e-05 2e-05 2e-05 2e-05 2e-05 2e-05 2e-05 2e-05 
2e-05 2e-05 2e-05 2e-05 2e-05 2e-05 2e-05 2e-05 2e-05 
2e-05 2e-05 2e-05 2e-05 2e-05 2e-05 2e-05 2e-05 2e-05 
2e-05 2e-05 2e-05 2e-05 2e-05 2e-05 2e-05 2e-05 2e-05 
7.5e-05 2e-05 2e-05 2e-05 2e-05 2e-05 2e-05 2e-05 2e-05 
2e-05 2e-05 2e-05 2e-05 2e-05 2e-05 7.5e-05 2e-05 2e-05 
2e-05 2e-05 2e-05 2e-05 2e-05 2e-05 2e-05 2e-05 2e-05 
2e-05 2e-05 2e-05 2e-05 2e-05 2e-05 2e-05 2e-05 2e-05 
2e-05 2e-05 2e-05 2e-05 2e-05 2e-05 2e-05 2e-05 2e-05 
2e-05 2e-05 2e-05 2e-05 2e-05 2e-05 2e-05 2e-05 2e-05 
2e-05 2e-05 2e-05 2e-05 2e-05 2e-05 2e-05 2e-05 2e-05 
2e-05 2e-05 2e-05 2e-05 2e-05 2e-05 2e-05 2e-05 2e-05 
2e-05 2e-05 7.5e-05 2e-05 2e-05 2e-05 2e-05 2e-05 2e-05 
2e-05 2e-05 2e-05 2e-05 2e-05 2e-05 7.5e-05 2e-05 2e-05 
2e-05 2e-05 2e-05 2e-05 2e-05 2e-05 2e-05 2e-05 2e-05 
2e-05 2e-05 2e-05 2e-05 2e-05 2e-05 2e-05 2e-05 2e-05 
2e-05 2e-05 2e-05 2e-05 2e-05 2e-05 2e-05 2e-05 2e-05 
2e-05 2e-05 2e-05 2e-05 2e-05 2e-05 2e-05 2e-05 2e-05 
2e-05 2e-05 2e-05 2e-05 2e-05 2e-05 2e-05 2e-05 2e-05 
2e-05 2e-05 2e-05 2e-05 2e-05 2e-05 2e-05 2e-05 2e-05 
2e-05 2e-05 2e-05 2e-05 2e-05 2e-05 2e-05 2e-05 2e-05 
2e-05 2e-05 2e-05 2e-05 2e-05 2e-05 2e-05 2e-05 2e-05 
2e-05 2e-05 2e-05 2e-05 2e-05 2e-05 7.5e-05 2e-05 2e-05 
2e-05 2e-05 2e-05 2e-05 2e-05 2e-05 2e-05 2e-05 2e-05 
2e-05 2e-05 2e-05 2e-05 2e-05 2e-05 2e-05 2e-05 2e-05 
2e-05 2e-05 2e-05 2e-05 2e-05 2e-05 2e-05 2e-05 2e-05 
2e-05 2e-05 2e-05 2e-05 2e-05 2e-05 2e-05 2e-05 2e-05 
7.5e-05 2e-05 2e-05 7.5e-05 2e-05 2e-05 2e-05 2e-05 2e-05 
2e-05 2e-05 2e-05 2e-05 2e-05 2e-05 2e-05 2e-05 2e-05 
2e-05 2e-05 2e-05 7.5e-05 2e-05 2e-05 7.5e-05 7.5e-05 2e-05 
2e-05 2e-05 2e-05 2e-05 2e-05 2e-05 7.5e-05 2e-05 7.5e-05 
7.5e-05 2e-05 2e-05 7.5e-05 0.00015 2e-05 2e-05 2e-05 2e-05 
2e-05 0.0003 2e-05 2e-05 2e-05 2e-05 2e-05 2e-05 2e-05 

omega 3 648 double
0 0 0 0 0 0 0 0 0 
0 0 0 0 0 0 0 0 0 
0 0 0 0 0 0 0 0 0 
0 0 0 0 0 0 0 0 0 
0 0 0 0 0 0 0 0 0 
0 0 0 0 0 0 0 0 0 
0 0 0 0 0 0 0 0 0 
0 0 0 0 0 0 0 0 0 
0 0 0 0 0 0 0 0 0 
0 0 0 0 0 0 0 0 0 
0 0 0 0 0 0 0 0 0 
0 0 0 0 0 0 0 0 0 
0 0 0 0 0 0 0 0 0 
0 0 0 0 0 0 0 0 0 
0 0 0 0 0 0 0 0 0 
0 0 0 0 0 0 0 0 0 
0 0 0 0 0 0 0 0 0 
0 0 0 0 0 0 0 0 0 
0 0 0 0 0 0 0 0 0 
0 0 0 0 0 0 0 0 0 
0 0 0 0 0 0 0 0 0 
0 0 0 0 0 0 0 0 0 
0 0 0 0 0 0 0 0 0 
0 0 0 0 0 0 0 0 0 
0 0 0 0 0 0 0 0 0 
0 0 0 0 0 0 0 0 0 
0 0 0 0 0 0 0 0 0 
0 0 0 0 0 0 0 0 0 
0 0 0 0 0 0 0 0 0 
0 0 0 0 0 0 0 0 0 
0 0 0 0 0 0 0 0 0 
0 0 0 0 0 0 0 0 0 
0 0 0 0 0 0 0 0 0 
0 0 0 0 0 0 0 0 0 
0 0 0 0 0 0 0 0 0 
0 0 0 0 0 0 0 0 0 
0 0 0 0 0 0 0 0 0 
0 0 0 0 0 0 0 0 0 
0 0 0 0 0 0 0 0 0 
0 0 0 0 0 0 0 0 0 
0 0 0 0 0 0 0 0 0 
0 0 0 0 0 0 0 0 0 
0 0 0 0 0 0 0 0 0 
0 0 0 0 0 0 0 0 0 
0 0 0 0 0 0 0 0 0 
0 0 0 0 0 0 0 0 0 
0 0 0 0 0 0 0 0 0 
0 0 0 0 0 0 0 0 0 
0 0 0 0 0 0 0 0 0 
0 0 0 0 0 0 0 0 0 
0 0 0 0 0 0 0 0 0 
0 0 0 0 0 0 0 0 0 
0 0 0 0 0 0 0 0 0 
0 0 0 0 0 0 0 0 0 
0 0 0 0 0 0 0 0 0 
0 0 0 0 0 0 0 0 0 
0 0 0 0 0 0 0 0 0 
0 0 0 0 0 0 0 0 0 
0 0 0 0 0 0 0 0 0 
0 0 0 0 0 0 0 0 0 
0 0 0 0 0 0 0 0 0 
0 0 0 0 0 0 0 0 0 
0 0 0 0 0 0 0 0 0 
0 0 0 0 0 0 0 0 0 
0 0 0 0 0 0 0 0 0 
0 0 0 0 0 0 0 0 0 
0 0 0 0 0 0 0 0 0 
0 0 0 0 0 0 0 0 0 
0 0 0 0 0 0 0 0 0 
0 0 0 0 0 0 0 0 0 
0 0 0 0 0 0 0 0 0 
0 0 0 0 0 0 0 0 0 
0 0 0 0 0 0 0 0 0 
0 0 0 0 0 0 0 0 0 
0 0 0 0 0 0 0 0 0 
0 0 0 0 0 0 0 0 0 
0 0 0 0 0 0 0 0 0 
0 0 0 0 0 0 0 0 0 
0 0 0 0 0 0 0 0 0 
0 0 0 0 0 0 0 0 0 
0 0 0 0 0 0 0 0 0 
0 0 0 0 0 0 0 0 0 
0 0 0 0 0 0 0 0 0 
0 0 0 0 0 0 0 0 0 
0 0 0 0 0 0 0 0 0 
0 0 0 0 0 0 0 0 0 
0 0 0 0 0 0 0 0 0 
0 0 0 0 0 0 0 0 0 
0 0 0 0 0 0 0 0 0 
0 0 0 0 0 0 0 0 0 
0 0 0 0 0 0 0 0 0 
0 0 0 0 0 0 0 0 0 
0 0 0 0 0 0 0 0 0 
0 0 0 0 0 0 0 0 0 
0 0 0 0 0 0 0 0 0 
0 0 0 0 0 0 0 0 0 
0 0 0 0 0 0 0 0 0 
0 0 0 0 0 0 0 0 0 
0 0 0 0 0 0 0 0 0 
0 0 0 0 0 0 0 0 0 
0 0 0 0 0 0 0 0 0 
0 0 0 0 0 0 0 0 0 
0 0 0 0 0 0 0 0 0 
0 0 0 0 0 0 0 0 0 
0 0 0 0 0 0 0 0 0 
0 0 0 0 0 0 0 0 0 
0 0 0 0 0 0 0 0 0 
0 0 0 0 0 0 0 0 0 
0 0 0 0 0 0 0 0 0 
0 0 0 0 0 0 0 0 0 
0 0 0 0 0 0 0 0 0 
0 0 0 0 0 0 0 0 0 
0 0 0 0 0 0 0 0 0 
0 0 0 0 0 0 0 0 0 
0 0 0 0 0 0 0 0 0 
0 0 0 0 0 0 0 0 0 
0 0 0 0 0 0 0 0 0 
0 0 0 0 0 0 0 0 0 
0 0 0 0 0 0 0 0 0 
0 0 0 0 0 0 0 0 0 
0 0 0 0 0 0 0 0 0 
0 0 0 0 0 0 0 0 0 
0 0 0 0 0 0 0 0 0 
0 0 0 0 0 0 0 0 0 
0 0 0 0 0 0 0 0 0 
0 0 0 0 0 0 0 0 0 
0 0 0 0 0 0 0 0 0 
0 0 0 0 0 0 0 0 0 
0 0 0 0 0 0 0 0 0 
0 0 0 0 0 0 0 0 0 
0 0 0 0 0 0 0 0 0 
0 0 0 0 0 0 0 0 0 
0 0 0 0 0 0 0 0 0 
0 0 0 0 0 0 0 0 0 
0 0 0 0 0 0 0 0 0 
0 0 0 0 0 0 0 0 0 
0 0 0 0 0 0 0 0 0 
0 0 0 0 0 0 0 0 0 
0 0 0 0 0 0 0 0 0 
0 0 0 0 0 0 0 0 0 
0 0 0 0 0 0 0 0 0 
0 0 0 0 0 0 0 0 0 
0 0 0 0 0 0 0 0 0 
0 0 0 0 0 0 0 0 0 
0 0 0 0 0 0 0 0 0 
0 0 0 0 0 0 0 0 0 
0 0 0 0 0 0 0 0 0 
0 0 0 0 0 0 0 0 0 
0 0 0 0 0 0 0 0 0 
0 0 0 0 0 0 0 0 0 
0 0 0 0 0 0 0 0 0 
0 0 0 0 0 0 0 0 0 
0 0 0 0 0 0 0 0 0 
0 0 0 0 0 0 0 0 0 
0 0 0 0 0 0 0 0 0 
0 0 0 0 0 0 0 0 0 
0 0 0 0 0 0 0 0 0 
0 0 0 0 0 0 0 0 0 
0 0 0 0 0 0 0 0 0 
0 0 0 0 0 0 0 0 0 
0 0 0 0 0 0 0 0 0 
0 0 0 0 0 0 0 0 0 
0 0 0 0 0 0 0 0 0 
0 0 0 0 0 0 0 0 0 
0 0 0 0 0 0 0 0 0 
0 0 0 0 0 0 0 0 0 
0 0 0 0 0 0 0 0 0 
0 0 0 0 0 0 0 0 0 
0 0 0 0 0 0 0 0 0 
0 0 0 0 0 0 0 0 0 
0 0 0 0 0 0 0 0 0 
0 0 0 0 0 0 0 0 0 
0 0 0 0 0 0 0 0 0 
0 0 0 0 0 0 0 0 0 
0 0 0 0 0 0 0 0 0 
0 0 0 0 0 0 0 0 0 
0 0 0 0 0 0 0 0 0 
0 0 0 0 0 0 0 0 0 
0 0 0 0 0 0 0 0 0 
0 0 0 0 0 0 0 0 0 
0 0 0 0 0 0 0 0 0 
0 0 0 0 0 0 0 0 0 
0 0 0 0 0 0 0 0 0 
0 0 0 0 0 0 0 0 0 
0 0 0 0 0 0 0 0 0 
0 0 0 0 0 0 0 0 0 
0 0 0 0 0 0 0 0 0 
0 0 0 0 0 0 0 0 0 
0 0 0 0 0 0 0 0 0 
0 0 0 0 0 0 0 0 0 
0 0 0 0 0 0 0 0 0 
0 0 0 0 0 0 0 0 0 
0 0 0 0 0 0 0 0 0 
0 0 0 0 0 0 0 0 0 
0 0 0 0 0 0 0 0 0 
0 0 0 0 0 0 0 0 0 
0 0 0 0 0 0 0 0 0 
0 0 0 0 0 0 0 0 0 
0 0 0 0 0 0 0 0 0 
0 0 0 0 0 0 0 0 0 
0 0 0 0 0 0 0 0 0 
0 0 0 0 0 0 0 0 0 
0 0 0 0 0 0 0 0 0 
0 0 0 0 0 0 0 0 0 
0 0 0 0 0 0 0 0 0 
0 0 0 0 0 0 0 0 0 
0 0 0 0 0 0 0 0 0 
0 0 0 0 0 0 0 0 0 
0 0 0 0 0 0 0 0 0 
0 0 0 0 0 0 0 0 0 
0 0 0 0 0 0 0 0 0 
0 0 0 0 0 0 0 0 0 
0 0 0 0 0 0 0 0 0 
0 0 0 0 0 0 0 0 0 
0 0 0 0 0 0 0 0 0 
0 0 0 0 0 0 0 0 0 

fx_mag_viz 1 648 double
0 0 0 0 0 0 0 0 0 
0 0 0 0 0 0 0 0 0 
0 0 0 0 0 0 0 0 0 
0 0 0 0 0 0 0 0 0 
0 0 0 0 0 0 0 0 0 
0 0 0 0 0 0 0 0 0 
0 0 0 0 0 0 0 0 0 
0 0 0 0 0 0 0 0 0 
0 0 0 0 0 0 0 0 0 
0 0 0 0 0 0 0 0 0 
0 0 0 0 0 0 0 0 0 
0 0 0 0 0 0 0 0 0 
0 0 0 0 0 0 0 0 0 
0 0 0 0 0 0 0 0 0 
0 0 0 0 0 0 0 0 0 
0 0 0 0 0 0 0 0 0 
0 0 0 0 0 0 0 0 0 
0 0 0 0 0 0 0 0 0 
0 0 0 0 0 0 0 0 0 
0 0 0 0 0 0 0 0 0 
0 0 0 0 0 0 0 0 0 
0 0 0 0 0 0 0 0 0 
0 0 0 0 0 0 0 0 0 
0 0 0 0 0 0 0 0 0 
0 0 0 0 0 0 0 0 0 
0 0 0 0 0 0 0 0 0 
0 0 0 0 0 0 0 0 0 
0 0 0 0 0 0 0 0 0 
0 0 0 0 0 0 0 0 0 
0 0 0 0 0 0 0 0 0 
0 0 0 0 0 0 0 0 0 
0 0 0 0 0 0 0 0 0 
0 0 0 0 0 0 0 0 0 
0 0 0 0 0 0 0 0 0 
0 0 0 0 0 0 0 0 0 
0 0 0 0 0 0 0 0 0 
0 0 0 0 0 0 0 0 0 
0 0 0 0 0 0 0 0 0 
0 0 0 0 0 0 0 0 0 
0 0 0 0 0 0 0 0 0 
0 0 0 0 0 0 0 0 0 
0 0 0 0 0 0 0 0 0 
0 0 0 0 0 0 0 0 0 
0 0 0 0 0 0 0 0 0 
0 0 0 0 0 0 0 0 0 
0 0 0 0 0 0 0 0 0 
0 0 0 0 0 0 0 0 0 
0 0 0 0 0 0 0 0 0 
0 0 0 0 0 0 0 0 0 
0 0 0 0 0 0 0 0 0 
0 0 0 0 0 0 0 0 0 
0 0 0 0 0 0 0 0 0 
0 0 0 0 0 0 0 0 0 
0 0 0 0 0 0 0 0 0 
0 0 0 0 0 0 0 0 0 
0 0 0 0 0 0 0 0 0 
0 0 0 0 0 0 0 0 0 
0 0 0 0 0 0 0 0 0 
0 0 0 0 0 0 0 0 0 
0 0 0 0 0 0 0 0 0 
0 0 0 0 0 0 0 0 0 
0 0 0 0 0 0 0 0 0 
0 0 0 0 0 0 0 0 0 
0 0 0 0 0 0 0 0 0 
0 0 0 0 0 0 0 0 0 
0 0 0 0 0 0 0 0 0 
0 0 0 0 0 0 0 0 0 
0 0 0 0 0 0 0 0 0 
0 0 0 0 0 0 0 0 0 
0 0 0 0 0 0 0 0 0 
0 0 0 0 0 0 0 0 0 
0 0 0 0 0 0 0 0 0 

fy_mag_viz 1 648 double
0 0 0 0 0 0 0 0 0 
0 0 0 0 0 0 0 0 0 
0 0 0 0 0 0 0 0 0 
0 0 0 0 0 0 0 0 0 
0 0 0 0 0 0 0 0 0 
0 0 0 0 0 0 0 0 0 
0 0 0 0 0 0 0 0 0 
0 0 0 0 0 0 0 0 0 
0 0 0 0 0 0 0 0 0 
0 0 0 0 0 0 0 0 0 
0 0 0 0 0 0 0 0 0 
0 0 0 0 0 0 0 0 0 
0 0 0 0 0 0 0 0 0 
0 0 0 0 0 0 0 0 0 
0 0 0 0 0 0 0 0 0 
0 0 0 0 0 0 0 0 0 
0 0 0 0 0 0 0 0 0 
0 0 0 0 0 0 0 0 0 
0 0 0 0 0 0 0 0 0 
0 0 0 0 0 0 0 0 0 
0 0 0 0 0 0 0 0 0 
0 0 0 0 0 0 0 0 0 
0 0 0 0 0 0 0 0 0 
0 0 0 0 0 0 0 0 0 
0 0 0 0 0 0 0 0 0 
0 0 0 0 0 0 0 0 0 
0 0 0 0 0 0 0 0 0 
0 0 0 0 0 0 0 0 0 
0 0 0 0 0 0 0 0 0 
0 0 0 0 0 0 0 0 0 
0 0 0 0 0 0 0 0 0 
0 0 0 0 0 0 0 0 0 
0 0 0 0 0 0 0 0 0 
0 0 0 0 0 0 0 0 0 
0 0 0 0 0 0 0 0 0 
0 0 0 0 0 0 0 0 0 
0 0 0 0 0 0 0 0 0 
0 0 0 0 0 0 0 0 0 
0 0 0 0 0 0 0 0 0 
0 0 0 0 0 0 0 0 0 
0 0 0 0 0 0 0 0 0 
0 0 0 0 0 0 0 0 0 
0 0 0 0 0 0 0 0 0 
0 0 0 0 0 0 0 0 0 
0 0 0 0 0 0 0 0 0 
0 0 0 0 0 0 0 0 0 
0 0 0 0 0 0 0 0 0 
0 0 0 0 0 0 0 0 0 
0 0 0 0 0 0 0 0 0 
0 0 0 0 0 0 0 0 0 
0 0 0 0 0 0 0 0 0 
0 0 0 0 0 0 0 0 0 
0 0 0 0 0 0 0 0 0 
0 0 0 0 0 0 0 0 0 
0 0 0 0 0 0 0 0 0 
0 0 0 0 0 0 0 0 0 
0 0 0 0 0 0 0 0 0 
0 0 0 0 0 0 0 0 0 
0 0 0 0 0 0 0 0 0 
0 0 0 0 0 0 0 0 0 
0 0 0 0 0 0 0 0 0 
0 0 0 0 0 0 0 0 0 
0 0 0 0 0 0 0 0 0 
0 0 0 0 0 0 0 0 0 
0 0 0 0 0 0 0 0 0 
0 0 0 0 0 0 0 0 0 
0 0 0 0 0 0 0 0 0 
0 0 0 0 0 0 0 0 0 
0 0 0 0 0 0 0 0 0 
0 0 0 0 0 0 0 0 0 
0 0 0 0 0 0 0 0 0 
0 0 0 0 0 0 0 0 0 

fz_mag_viz 1 648 double
0 0 0 0 0 0 0 0 0 
0 0 0 0 0 0 0 0 0 
0 0 0 0 0 0 0 0 0 
0 0 0 0 0 0 0 0 0 
0 0 0 0 0 0 0 0 0 
0 0 0 0 0 0 0 0 0 
0 0 0 0 0 0 0 0 0 
0 0 0 0 0 0 0 0 0 
0 0 0 0 0 0 0 0 0 
0 0 0 0 0 0 0 0 0 
0 0 0 0 0 0 0 0 0 
0 0 0 0 0 0 0 0 0 
0 0 0 0 0 0 0 0 0 
0 0 0 0 0 0 0 0 0 
0 0 0 0 0 0 0 0 0 
0 0 0 0 0 0 0 0 0 
0 0 0 0 0 0 0 0 0 
0 0 0 0 0 0 0 0 0 
0 0 0 0 0 0 0 0 0 
0 0 0 0 0 0 0 0 0 
0 0 0 0 0 0 0 0 0 
0 0 0 0 0 0 0 0 0 
0 0 0 0 0 0 0 0 0 
0 0 0 0 0 0 0 0 0 
0 0 0 0 0 0 0 0 0 
0 0 0 0 0 0 0 0 0 
0 0 0 0 0 0 0 0 0 
0 0 0 0 0 0 0 0 0 
0 0 0 0 0 0 0 0 0 
0 0 0 0 0 0 0 0 0 
0 0 0 0 0 0 0 0 0 
0 0 0 0 0 0 0 0 0 
0 0 0 0 0 0 0 0 0 
0 0 0 0 0 0 0 0 0 
0 0 0 0 0 0 0 0 0 
0 0 0 0 0 0 0 0 0 
0 0 0 0 0 0 0 0 0 
0 0 0 0 0 0 0 0 0 
0 0 0 0 0 0 0 0 0 
0 0 0 0 0 0 0 0 0 
0 0 0 0 0 0 0 0 0 
0 0 0 0 0 0 0 0 0 
0 0 0 0 0 0 0 0 0 
0 0 0 0 0 0 0 0 0 
0 0 0 0 0 0 0 0 0 
0 0 0 0 0 0 0 0 0 
0 0 0 0 0 0 0 0 0 
0 0 0 0 0 0 0 0 0 
0 0 0 0 0 0 0 0 0 
0 0 0 0 0 0 0 0 0 
0 0 0 0 0 0 0 0 0 
0 0 0 0 0 0 0 0 0 
0 0 0 0 0 0 0 0 0 
0 0 0 0 0 0 0 0 0 
0 0 0 0 0 0 0 0 0 
0 0 0 0 0 0 0 0 0 
0 0 0 0 0 0 0 0 0 
0 0 0 0 0 0 0 0 0 
0 0 0 0 0 0 0 0 0 
0 0 0 0 0 0 0 0 0 
0 0 0 0 0 0 0 0 0 
0 0 0 0 0 0 0 0 0 
0 0 0 0 0 0 0 0 0 
0 0 0 0 0 0 0 0 0 
0 0 0 0 0 0 0 0 0 
0 0 0 0 0 0 0 0 0 
0 0 0 0 0 0 0 0 0 
0 0 0 0 0 0 0 0 0 
0 0 0 0 0 0 0 0 0 
0 0 0 0 0 0 0 0 0 
0 0 0 0 0 0 0 0 0 
0 0 0 0 0 0 0 0 0 

B_magnitude 1 648 double
0 0 0 0 0 0 0 0 0 
0 0 0 0 0 0 0 0 0 
0 0 0 0 0 0 0 0 0 
0 0 0 0 0 0 0 0 0 
0 0 0 0 0 0 0 0 0 
0 0 0 0 0 0 0 0 0 
0 0 0 0 0 0 0 0 0 
0 0 0 0 0 0 0 0 0 
0 0 0 0 0 0 0 0 0 
0 0 0 0 0 0 0 0 0 
0 0 0 0 0 0 0 0 0 
0 0 0 0 0 0 0 0 0 
0 0 0 0 0 0 0 0 0 
0 0 0 0 0 0 0 0 0 
0 0 0 0 0 0 0 0 0 
0 0 0 0 0 0 0 0 0 
0 0 0 0 0 0 0 0 0 
0 0 0 0 0 0 0 0 0 
0 0 0 0 0 0 0 0 0 
0 0 0 0 0 0 0 0 0 
0 0 0 0 0 0 0 0 0 
0 0 0 0 0 0 0 0 0 
0 0 0 0 0 0 0 0 0 
0 0 0 0 0 0 0 0 0 
0 0 0 0 0 0 0 0 0 
0 0 0 0 0 0 0 0 0 
0 0 0 0 0 0 0 0 0 
0 0 0 0 0 0 0 0 0 
0 0 0 0 0 0 0 0 0 
0 0 0 0 0 0 0 0 0 
0 0 0 0 0 0 0 0 0 
0 0 0 0 0 0 0 0 0 
0 0 0 0 0 0 0 0 0 
0 0 0 0 0 0 0 0 0 
0 0 0 0 0 0 0 0 0 
0 0 0 0 0 0 0 0 0 
0 0 0 0 0 0 0 0 0 
0 0 0 0 0 0 0 0 0 
0 0 0 0 0 0 0 0 0 
0 0 0 0 0 0 0 0 0 
0 0 0 0 0 0 0 0 0 
0 0 0 0 0 0 0 0 0 
0 0 0 0 0 0 0 0 0 
0 0 0 0 0 0 0 0 0 
0 0 0 0 0 0 0 0 0 
0 0 0 0 0 0 0 0 0 
0 0 0 0 0 0 0 0 0 
0 0 0 0 0 0 0 0 0 
0 0 0 0 0 0 0 0 0 
0 0 0 0 0 0 0 0 0 
0 0 0 0 0 0 0 0 0 
0 0 0 0 0 0 0 0 0 
0 0 0 0 0 0 0 0 0 
0 0 0 0 0 0 0 0 0 
0 0 0 0 0 0 0 0 0 
0 0 0 0 0 0 0 0 0 
0 0 0 0 0 0 0 0 0 
0 0 0 0 0 0 0 0 0 
0 0 0 0 0 0 0 0 0 
0 0 0 0 0 0 0 0 0 
0 0 0 0 0 0 0 0 0 
0 0 0 0 0 0 0 0 0 
0 0 0 0 0 0 0 0 0 
0 0 0 0 0 0 0 0 0 
0 0 0 0 0 0 0 0 0 
0 0 0 0 0 0 0 0 0 
0 0 0 0 0 0 0 0 0 
0 0 0 0 0 0 0 0 0 
0 0 0 0 0 0 0 0 0 
0 0 0 0 0 0 0 0 0 
0 0 0 0 0 0 0 0 0 
0 0 0 0 0 0 0 0 0 

B_gradient_mag 1 648 double
0 0 0 0 0 0 0 0 0 
0 0 0 0 0 0 0 0 0 
0 0 0 0 0 0 0 0 0 
0 0 0 0 0 0 0 0 0 
0 0 0 0 0 0 0 0 0 
0 0 0 0 0 0 0 0 0 
0 0 0 0 0 0 0 0 0 
0 0 0 0 0 0 0 0 0 
0 0 0 0 0 0 0 0 0 
0 0 0 0 0 0 0 0 0 
0 0 0 0 0 0 0 0 0 
0 0 0 0 0 0 0 0 0 
0 0 0 0 0 0 0 0 0 
0 0 0 0 0 0 0 0 0 
0 0 0 0 0 0 0 0 0 
0 0 0 0 0 0 0 0 0 
0 0 0 0 0 0 0 0 0 
0 0 0 0 0 0 0 0 0 
0 0 0 0 0 0 0 0 0 
0 0 0 0 0 0 0 0 0 
0 0 0 0 0 0 0 0 0 
0 0 0 0 0 0 0 0 0 
0 0 0 0 0 0 0 0 0 
0 0 0 0 0 0 0 0 0 
0 0 0 0 0 0 0 0 0 
0 0 0 0 0 0 0 0 0 
0 0 0 0 0 0 0 0 0 
0 0 0 0 0 0 0 0 0 
0 0 0 0 0 0 0 0 0 
0 0 0 0 0 0 0 0 0 
0 0 0 0 0 0 0 0 0 
0 0 0 0 0 0 0 0 0 
0 0 0 0 0 0 0 0 0 
0 0 0 0 0 0 0 0 0 
0 0 0 0 0 0 0 0 0 
0 0 0 0 0 0 0 0 0 
0 0 0 0 0 0 0 0 0 
0 0 0 0 0 0 0 0 0 
0 0 0 0 0 0 0 0 0 
0 0 0 0 0 0 0 0 0 
0 0 0 0 0 0 0 0 0 
0 0 0 0 0 0 0 0 0 
0 0 0 0 0 0 0 0 0 
0 0 0 0 0 0 0 0 0 
0 0 0 0 0 0 0 0 0 
0 0 0 0 0 0 0 0 0 
0 0 0 0 0 0 0 0 0 
0 0 0 0 0 0 0 0 0 
0 0 0 0 0 0 0 0 0 
0 0 0 0 0 0 0 0 0 
0 0 0 0 0 0 0 0 0 
0 0 0 0 0 0 0 0 0 
0 0 0 0 0 0 0 0 0 
0 0 0 0 0 0 0 0 0 
0 0 0 0 0 0 0 0 0 
0 0 0 0 0 0 0 0 0 
0 0 0 0 0 0 0 0 0 
0 0 0 0 0 0 0 0 0 
0 0 0 0 0 0 0 0 0 
0 0 0 0 0 0 0 0 0 
0 0 0 0 0 0 0 0 0 
0 0 0 0 0 0 0 0 0 
0 0 0 0 0 0 0 0 0 
0 0 0 0 0 0 0 0 0 
0 0 0 0 0 0 0 0 0 
0 0 0 0 0 0 0 0 0 
0 0 0 0 0 0 0 0 0 
0 0 0 0 0 0 0 0 0 
0 0 0 0 0 0 0 0 0 
0 0 0 0 0 0 0 0 0 
0 0 0 0 0 0 0 0 0 
0 0 0 0 0 0 0 0 0 

