# vtk DataFile Version 5.1
Generated by LIGGGHTS
ASCII
DATASET POLYDATA
POINTS 648 float
0.0289145 -0.0340196 0.0014893 0.00798734 -0.0367051 0.00217604 0.0341086 -0.0368686 0.00257457 
-0.015788 -0.0282898 0.00200885 -0.0129003 -0.00574839 0.00195666 -0.0179231 -0.00300678 0.00146957 
0.0154702 -0.00154679 0.00204245 -0.0356048 -0.000104637 0.0021682 0.0384376 0.000848974 0.00237905 
0.021602 0.00540593 0.00216492 -0.0144089 0.0201081 0.00108699 0.0104707 0.0313218 0.00135701 
-0.0428902 -0.0449088 0.00326575 0.0185094 -0.042363 0.00324093 -0.0105296 -0.0314142 0.00352268 
-0.0419519 -0.0259749 0.00350224 0.00357123 -0.00830953 0.00309069 -0.0198564 -0.00683511 0.0035326 
0.0379188 0.0120326 0.00303468 0.0248423 0.0143007 0.00357847 0.0123926 0.0218243 0.00330124 
0.0167463 0.0251763 0.00324128 -0.0197415 0.0344175 0.00305612 -0.0440308 0.0448256 0.00292606 
0.033456 -0.0256735 0.00421632 0.0414834 -0.0181367 0.00445372 -0.0420316 -0.0145538 0.00539548 
0.0350526 -0.0102353 0.00484336 0.00937085 -0.00418454 0.00493645 0.0292006 0.00433004 0.00451475 
-0.0426568 0.00723228 0.0038652 0.0212596 0.00979192 0.00495181 -0.0310202 0.0131063 0.00385172 
0.0114764 0.0140289 0.0053149 0.0143092 0.0139794 0.00447032 -0.0360536 0.0173104 0.0046569 
-0.0245993 0.0193658 0.00451744 0.0323341 0.0191974 0.00510962 -0.0170112 0.0231088 0.00452095 
-0.0437633 0.0406561 0.00440874 0.0339316 -0.041715 0.00663035 -0.00302782 -0.0385948 0.00568324 
0.0419483 -0.0348097 0.00584548 -0.0266532 -0.0301716 0.00553664 -0.0336946 -0.0248459 0.00633674 
-0.0108877 -0.0188832 0.00610317 0.00689113 -0.0107816 0.00531753 -0.0386256 -0.00983966 0.00651447 
0.00417698 0.0024455 0.00623115 0.00265626 0.00371614 0.0066058 0.0305447 0.00486582 0.00571406 
-0.0287984 0.00559412 0.00589725 0.0320014 0.00756294 0.00633082 -0.0371624 0.011326 0.00611473 
0.0287781 0.014071 0.00623338 0.0215224 0.0171285 0.00568561 -0.0153727 0.020636 0.00542835 
-0.0282566 0.021284 0.00591705 0.03506 0.0228899 0.00510939 -0.0269229 0.0267788 0.00618038 
0.0297434 0.0373158 0.00538966 -0.0160353 0.0448572 0.00626312 0.040047 -0.0404588 0.00712766 
0.0156715 -0.0391733 0.00654247 0.0101031 -0.0273014 0.00690456 -0.00446216 -0.0255279 0.00727119 
-0.0329608 -0.0218045 0.00696954 0.0436787 -0.0219137 0.00759175 0.0336491 -0.0197505 0.00702111 
0.0030191 -0.0179247 0.0076211 0.0223879 -0.0163393 0.00703803 0.0342493 -0.0115037 0.00747154 
-0.0326334 -0.00963456 0.00789262 -0.024842 -0.00884532 0.00709788 0.00314898 0.00491531 0.00729267 
-0.034865 0.0142961 0.00672531 0.0153641 0.0146287 0.00673038 -0.0296003 0.0277025 0.0070803 
-0.0409258 0.0305044 0.00652546 -0.0213481 0.0319153 0.00710476 0.0164577 0.0353116 0.00777259 
0.0165329 0.0385374 0.00723795 0.0251972 0.0393087 0.0070612 -0.0281804 0.0418824 0.00762785 
-0.0390027 0.0421086 0.006948 0.00513794 0.0433856 0.00793521 0.0433459 -0.0353282 0.0086764 
0.023158 -0.0340207 0.00891699 0.0244271 -0.0334586 0.00825906 -0.0232422 -0.0321576 0.00775604 
0.00577088 -0.0287415 0.00845434 -0.0408326 -0.0234295 0.00873166 -0.0328109 -0.0226975 0.0088978 
-0.0393221 -0.0167834 0.00805229 -0.0227164 -0.0141288 0.00864573 -0.0207563 -0.0111167 0.0086762 
0.0223025 -0.0112244 0.00809717 0.0277003 -0.0107969 0.00780446 0.0275881 -0.00673863 0.00846591 
0.0293019 -0.00298432 0.00911236 -0.00783961 -0.000387029 0.00770743 -0.00702036 -0.00121172 0.00817922 
0.00635633 0.000852437 0.00725063 -0.00967086 0.00179773 0.00777033 -0.0170872 0.00564833 0.00848997 
0.0011249 0.00615697 0.00822956 -0.0394276 0.0109375 0.00913583 0.0399323 0.0117688 0.00782588 
8.23501e-07 0.0138406 0.008415 -0.0214239 0.0189608 0.00883398 -0.023041 0.0197144 0.0087115 
0.0226957 0.0260881 0.00884603 -0.0102477 0.0267602 0.00892163 0.0354139 0.0312817 0.00904772 
0.0152528 0.033152 0.00828125 0.00284552 0.0345861 0.00778245 0.0131273 0.040817 0.00777021 
0.0262096 -0.0449372 0.0100743 -0.044759 -0.0437614 0.00910443 -0.0308094 -0.0435702 0.00945759 
-0.0349861 -0.0412827 0.0103535 0.0338942 -0.0410147 0.00965455 -0.042922 -0.0404536 0.0092599 
0.0308099 -0.0378456 0.0102146 -0.00586029 -0.0338127 0.0099861 0.00264867 -0.0338128 0.00951302 
-0.0160452 -0.0323821 0.00977206 0.0280204 -0.0311414 0.00952501 -0.0448384 -0.0296834 0.00921716 
0.000892701 -0.0263701 0.00975464 0.032808 -0.025967 0.0090789 0.0363266 -0.0194176 0.0097375 
-0.0317771 -0.0175651 0.00912124 0.0404767 -0.0183151 0.00927386 -0.0405162 -0.0161033 0.00960955 
-0.0257955 -0.0157834 0.0101198 0.0302919 -0.0148257 0.00955869 0.0414517 -0.0114994 0.00946199 
-0.0449336 -0.00957357 0.00954997 -0.0222502 -0.00974669 0.0101926 -0.0112192 -0.0104501 0.00931871 
0.00743742 -0.00926665 0.00902019 -0.040885 -0.00406647 0.0103987 0.0131353 -0.00504642 0.00905194 
-0.00229178 0.0020129 0.0102484 0.0449494 0.00392273 0.0101147 0.0277548 0.0042931 0.00948434 
0.0228765 0.00606581 0.00927744 0.0221269 0.00728552 0.00991259 -0.0392616 0.00972366 0.00971493 
-0.0214351 0.00957734 0.00942175 -0.0101256 0.00978275 0.00986098 -0.022709 0.0198803 0.0100127 
-0.0368667 0.0306348 0.00931825 -0.032208 0.0306075 0.0102963 0.0364634 0.0310238 0.00960091 
0.0444958 0.0309554 0.00929174 -0.0264781 0.032823 0.00939161 0.0439232 0.0371117 0.0105407 
0.0163992 0.0415262 0.00960252 -0.0335565 -0.0442122 0.0116039 0.0418836 -0.0421436 0.0105437 
0.0414821 -0.0410789 0.0112607 -0.0385899 -0.0405251 0.0105203 -0.018434 -0.0405477 0.0110394 
-0.0108246 -0.0388127 0.0111622 0.000822496 -0.0363122 0.010613 0.0333162 -0.0342631 0.0103976 
0.027474 -0.0338615 0.0112515 -0.0262624 -0.032473 0.0114523 0.0346336 -0.0325969 0.0108952 
0.0412685 -0.0295104 0.0116428 -0.0225401 -0.0213878 0.0113938 0.0262592 -0.0217201 0.0109068 
-0.00444012 -0.0151621 0.010721 -0.0117656 -0.0138394 0.0107497 0.013874 -0.00963069 0.0110912 
0.0313953 -0.00974065 0.0116527 -0.0343844 -0.0078404 0.0108352 0.0109664 -0.00760095 0.0109724 
-0.00747582 -0.00609419 0.0115594 -0.00474481 -0.00600267 0.0115356 0.0414788 -0.00521487 0.00996827 
-0.0141425 -0.00311887 0.010789 0.032558 0.00153523 0.0110839 0.0101693 0.00555192 0.01098 
0.0246705 0.0064451 0.0110237 0.0283387 0.00890506 0.0112937 0.0197977 0.00963841 0.0105642 
-0.00279986 0.0127222 0.0110541 -0.00307286 0.0144526 0.0116227 0.012585 0.0155082 0.010648 
0.0121458 0.0151918 0.0114451 0.0418335 0.0161761 0.0108871 0.00153271 0.0201988 0.0113494 
0.0307708 0.0242663 0.0112851 -0.0127911 0.0299546 0.0115007 -0.0200898 0.0311527 0.0113665 
0.00372347 0.0304157 0.0112974 -0.00973825 0.0391656 0.0114552 0.0238959 0.0383247 0.0108272 
-0.0312382 0.0393096 0.0104559 0.0222253 0.0407186 0.0113196 0.0181024 -0.0433049 0.0128163 
0.0348044 -0.042095 0.0127233 -0.00521279 -0.0413279 0.0116929 0.000425919 -0.0415728 0.0127994 
-0.0248652 -0.040212 0.0123637 -0.0168273 -0.0360331 0.0126677 0.00594186 -0.0351889 0.0126316 
0.0449741 -0.0303513 0.0127312 -0.0430551 -0.0267583 0.0122241 0.0306875 -0.0259396 0.0121239 
-0.0323128 -0.0219837 0.0129834 0.039775 -0.0211058 0.0120577 -0.0296942 -0.0196153 0.0121471 
0.0218308 -0.0192565 0.0130673 -0.0183202 -0.0175475 0.0125148 -0.0100897 -0.0180162 0.0123313 
0.0198229 -0.0156851 0.0124396 -0.0388614 -0.0136303 0.011754 0.0323804 -0.0132471 0.0130312 
-0.00553214 -0.00871323 0.0118637 -0.00254943 -0.00825679 0.0128181 0.0282359 -0.00877456 0.0112548 
-0.00433253 -0.00676057 0.0123923 0.0129906 -0.00677597 0.0128088 0.021323 -0.00444137 0.0120819 
-0.0281455 -0.00127675 0.0118528 0.0290986 -0.000251763 0.0129517 -0.0260142 0.00017485 0.0124423 
0.0188762 0.00181355 0.0127818 -0.0325416 0.00283857 0.0127913 0.0340899 0.00882812 0.0121421 
0.0398091 0.011618 0.0123422 0.00861143 0.0123591 0.011919 0.00517921 0.0169249 0.0120368 
0.00546842 0.0177814 0.0127268 0.0090081 0.0191686 0.0120792 0.00976854 0.0197772 0.0125215 
0.0258603 0.0235991 0.0126596 0.0395905 0.0272142 0.0128892 0.00834461 0.0278725 0.0130227 
0.0038092 0.0311583 0.0123581 0.026696 0.03017 0.012949 -0.0073504 0.0318329 0.0128826 
0.00390562 0.0317225 0.01199 0.01325 0.0319187 0.0122268 -0.0422696 0.0340949 0.0124536 
0.00308146 0.0401468 0.0122099 -0.00674967 -0.0416523 0.0134399 -0.0406141 -0.0405112 0.0141837 
-0.0334706 -0.0396012 0.0134192 0.0346338 -0.0290927 0.0135023 0.0164647 -0.0275391 0.0139489 
0.0054016 -0.025334 0.0142496 0.0155599 -0.0240909 0.0134093 -0.0291427 -0.0219343 0.0137271 
0.0233461 -0.0214624 0.0133628 -0.00827992 -0.020547 0.0140176 0.00156248 -0.0194187 0.0130621 
0.0184681 -0.0172117 0.0138984 -0.0339565 -0.0167518 0.0139175 0.0252581 -0.0163235 0.0141283 
0.0322358 -0.0130621 0.0135113 0.0286804 -0.00919085 0.0134834 -0.00401126 -0.00720159 0.0141253 
0.0404774 -0.00688032 0.0132084 0.0387156 -0.00624884 0.013179 -0.0120059 -0.00345367 0.0131268 
0.00664535 -0.00164817 0.0137887 -0.000610522 -0.00103491 0.0132752 -0.025141 0.00447188 0.0131177 
-0.0406381 0.00555966 0.0141185 -0.00552594 0.00555795 0.0137465 0.00474506 0.0103043 0.014293 
0.0211953 0.00966092 0.0130506 -0.0365733 0.0119208 0.0132301 0.00243185 0.0120975 0.0135402 
-0.0081225 0.0151775 0.0132073 0.000954082 0.0152563 0.0136284 0.0407412 0.0174253 0.0134651 
0.018015 0.0183735 0.0135234 -0.0267196 0.0236159 0.0140964 -0.0386663 0.0253433 0.013854 
-0.0267569 0.0263983 0.0140715 -0.00563177 0.0268155 0.0137944 0.0434247 0.0295768 0.0142943 
-0.0313244 0.0314049 0.0133285 -0.0108954 0.0304 0.0131926 -0.0337286 0.0337045 0.0134069 
0.0231674 0.0340949 0.0132582 -0.041477 0.0364172 0.0136763 -0.0133259 0.0414802 0.0136462 
0.0294278 0.0431452 0.0131466 0.0405446 0.0433429 0.0135366 -0.027409 -0.0433703 0.0155069 
0.0416479 -0.0439733 0.0143226 0.0201641 -0.0426709 0.0154722 -0.0169239 -0.0402939 0.014535 
-0.0273176 -0.0361067 0.0144942 -0.00161929 -0.0353994 0.0150302 0.0195647 -0.0366528 0.0151138 
-0.0177429 -0.0346724 0.0144885 0.0077947 -0.0345433 0.0143884 0.00879071 -0.0344865 0.0154563 
0.0403097 -0.0347888 0.0150399 -0.0427235 -0.0332389 0.0153985 0.00802514 -0.031483 0.0152493 
-0.0396817 -0.0304797 0.0155254 -0.0386911 -0.0311434 0.0145823 0.00231692 -0.0294453 0.0155648 
0.0392765 -0.0300093 0.0144402 -0.0401314 -0.0280847 0.0146079 -0.0432264 -0.0264101 0.0146521 
-0.0350278 -0.0224863 0.0156483 -0.0164034 -0.0216001 0.0153221 0.00623721 -0.0211799 0.0146859 
-0.0328213 -0.0176588 0.0145362 -0.0426154 -0.0165053 0.0144405 -0.0408642 -0.0154151 0.0153199 
-0.015814 -0.0152491 0.0144487 0.0268005 -0.0146468 0.0153882 0.0375745 -0.0151367 0.0145108 
-0.0313057 -0.0141988 0.0155097 -0.0341597 -0.0122829 0.0147343 0.0176437 -0.0119747 0.0150425 
-0.0136128 -0.00979682 0.0155006 0.0251729 -0.00985964 0.0147144 -0.042331 -0.00792816 0.0150544 
-0.0304645 -0.00701594 0.0151448 0.0180565 -0.00487531 0.0142383 -0.042786 -0.00359954 0.0150564 
-0.0408474 -0.00214648 0.0146258 -0.0395569 -0.00227866 0.0156087 -0.0376932 -0.000132947 0.0145097 
0.0404406 0.00462082 0.0144067 0.030759 0.00580352 0.0145842 0.0332757 0.00539899 0.0152306 
0.00533928 0.00728904 0.0145204 0.0110904 0.00657535 0.0152637 0.023953 0.00820576 0.0153456 
-0.0349081 0.00917553 0.0153504 0.00978397 0.00922321 0.0147242 -0.0350204 0.0121089 0.0154746 
-0.00831541 0.0129665 0.0148002 0.00789931 0.0136568 0.0148108 -0.00443291 0.0160613 0.0145479 
0.0256029 0.0175394 0.0149101 0.00395304 0.0187088 0.0145543 0.00757299 0.0192258 0.0143901 
0.0350116 0.0207306 0.0152758 0.00128112 0.0217131 0.0151351 0.0362273 0.0220011 0.0154097 
-0.0295899 0.0232577 0.0156126 0.0181332 0.0246356 0.0150167 -0.00739359 0.0259593 0.0146053 
0.00953871 0.0271324 0.0155361 -0.0357156 0.0282031 0.0145798 -0.0152062 0.0294088 0.0147827 
0.0191509 0.0299648 0.0143732 -0.0219587 0.0304934 0.0149202 0.0372507 0.0318783 0.0147184 
0.0214431 0.0335886 0.0148947 -0.0155539 0.0359545 0.0142939 -0.00196307 0.0366495 0.0148504 
-0.0245447 0.0378537 0.0146313 0.0030545 0.0369981 0.0154063 -0.00883869 0.0381834 0.0144649 
0.0281745 0.039089 0.0148976 -0.0112537 0.0395394 0.0150048 0.0221021 0.0401282 0.0154523 
0.00805094 0.0422278 0.0150898 -0.0205282 0.0432397 0.0147609 0.0114086 0.0440135 0.0145849 
0.0171919 0.0449185 0.0144864 0.0211706 0.0445491 0.0144711 -0.0346971 -0.0446764 0.0166537 
-0.00340304 -0.0448428 0.0158529 -0.0248654 -0.0427111 0.0167435 0.0248068 -0.0428986 0.0164615 
0.0238162 -0.0409762 0.0168052 -0.00670669 -0.0394183 0.0157537 0.0244803 -0.0401788 0.01654 
0.0397687 -0.0374633 0.0168358 -0.0439713 -0.0357399 0.0159098 0.0355384 -0.0354155 0.0165827 
0.023019 -0.0293484 0.015843 -0.00580099 -0.0272788 0.0156871 -0.0338231 -0.0250135 0.0158545 
-0.0139777 -0.0223984 0.0162547 0.0115492 -0.0227248 0.0156643 -0.0204621 -0.0172006 0.0163911 
0.0282033 -0.0178095 0.0157655 -0.0329121 -0.0139828 0.0155809 -0.0196799 -0.00931279 0.0161371 
-0.0211095 -0.00770044 0.016836 -0.0416237 0.00110806 0.0165524 0.0147261 0.00139147 0.0156464 
-0.037077 0.00611456 0.0160492 -0.00723413 0.00605583 0.0166454 0.0142017 0.0079404 0.0161553 
0.0202046 0.00840095 0.0161581 0.014866 0.0127598 0.0166372 0.0261916 0.0119357 0.0167464 
-0.0429188 0.0135204 0.0167402 0.0440772 0.0154938 0.0161494 -0.0193355 0.018129 0.0158237 
-0.0421793 0.0225172 0.0168283 -0.0349287 0.0230684 0.0163451 0.0146363 0.0223077 0.0166609 
-0.00782209 0.0241861 0.016064 0.00264144 0.0247174 0.0158685 -0.0406313 0.0295913 0.0157284 
-0.00435696 0.0325462 0.0163496 -0.00472634 0.0344449 0.0157466 -0.0407273 0.0358476 0.0158165 
-0.00647711 0.0391566 0.0161208 -0.039126 0.0399637 0.0157532 -0.0375088 0.0393741 0.016313 
0.0399235 0.0434757 0.0156239 0.0145521 -0.0432303 0.0171987 0.0131812 -0.0427533 0.0178669 
0.0166138 -0.0412108 0.0180442 -0.0370475 -0.0370945 0.0172102 -0.0309963 -0.0355024 0.0181037 
-0.00338111 -0.0363358 0.0182748 -8.23525e-05 -0.034098 0.0177592 -0.0376897 -0.0314333 0.0173263 
-0.0263426 -0.0292431 0.0175258 0.03382 -0.0268981 0.0169199 -0.00863888 -0.0237376 0.018223 
0.00538025 -0.0241403 0.0179294 0.0109547 -0.0235646 0.0169859 0.035159 -0.023363 0.0181274 
0.00548761 -0.0197918 0.017522 0.038292 -0.016257 0.0178799 0.0249316 -0.014475 0.0174204 
-0.0186412 -0.0134353 0.0181205 0.0403752 -0.0143085 0.0173626 0.0433204 -0.0141837 0.0173635 
-0.0327621 -0.0121928 0.0177889 -0.0269092 -0.0125643 0.017243 0.0406218 -0.0100941 0.0173312 
-0.0344646 -0.00725539 0.0179156 -0.0150798 -0.00698339 0.0174944 -0.0135858 -0.00672635 0.0174653 
0.0161928 -0.00760918 0.0176431 0.00523139 -0.00599236 0.017501 0.0180458 -0.00470109 0.0178975 
-0.00941413 -0.00330341 0.018153 0.00975646 -0.00313231 0.0177854 -0.00896956 -0.00131708 0.0176945 
0.0168839 -0.00210364 0.0181965 -0.0153419 -0.00108619 0.0182079 0.0140084 -6.89735e-05 0.0181771 
0.0407777 0.000744206 0.0174796 0.0362421 0.00170773 0.0169563 -0.0261639 0.00337815 0.0173704 
0.00243665 0.00282786 0.0178663 0.0323225 0.00436429 0.0172903 -0.0403489 0.00598291 0.0181833 
0.0133448 0.00646544 0.0177635 0.0250346 0.00641518 0.0177172 0.0128044 0.0127337 0.0171517 
-0.00867948 0.0139924 0.0177139 0.0336082 0.013194 0.0179117 0.0441199 0.0136981 0.0176552 
-0.0196462 0.0155185 0.017169 0.0226738 0.0181095 0.0178449 0.0122157 0.0191756 0.0170691 
0.0388885 0.0193682 0.0171502 -0.0431379 0.0208085 0.0173082 -0.0287332 0.0215601 0.0170256 
-0.0256005 0.0215871 0.0170221 -0.0122989 0.0222019 0.0178199 0.0398418 0.0217469 0.0179795 
0.0438582 0.0244724 0.0178427 0.000162142 0.0251126 0.0177408 -0.0190887 0.0269029 0.017306 
-0.0114472 0.026715 0.0172531 -0.0376379 0.0294143 0.0172997 0.00519606 0.0301696 0.0178199 
0.00727395 0.0332762 0.0182079 0.00317215 0.0343196 0.0177445 0.0311732 0.0371467 0.0172664 
-0.0181988 0.0434549 0.0169503 0.0352701 0.0439749 0.0178464 0.0352379 0.0438995 0.0174676 
-0.0317519 -0.0446953 0.0189426 -0.00396528 -0.0444182 0.0182802 0.0195053 -0.043722 0.0185322 
-0.0389435 -0.0425966 0.0185667 0.0406519 -0.0427256 0.0191156 -0.0136468 -0.0412372 0.0184299 
0.0424299 -0.0409921 0.0188011 0.00849583 -0.0405939 0.0190745 -0.0289295 -0.0389067 0.0186072 
-0.0234086 -0.038644 0.0188706 -0.0195638 -0.0385913 0.0189726 0.0325128 -0.03812 0.0185187 
0.00985621 -0.0367022 0.0183419 0.0307351 -0.0355434 0.0183814 -0.0179089 -0.0346335 0.0191166 
-0.0177803 -0.0340186 0.0183769 -0.0161578 -0.0337243 0.0183152 -0.0233761 -0.031813 0.019386 
-0.0210092 -0.0320472 0.0186838 0.0268369 -0.0315202 0.0191002 -0.0220587 -0.0306349 0.0186429 
0.010226 -0.0308634 0.018752 -0.0414327 -0.0290659 0.0184213 -0.0346801 -0.0287009 0.0184834 
-0.0240024 -0.0280603 0.0184253 0.0153133 -0.0285941 0.0183882 0.0156293 -0.0283842 0.018723 
-0.0240719 -0.0268296 0.0181743 0.0347572 -0.0260666 0.0191864 0.00179778 -0.0247441 0.018481 
0.00558373 -0.0242787 0.0189323 0.0102479 -0.024092 0.0193756 0.0210005 -0.0239559 0.0187589 
-0.038621 -0.0229432 0.0186252 -0.0127621 -0.0231756 0.0188622 0.0240101 -0.0228809 0.0187232 
0.0394323 -0.021923 0.0193 -0.0210835 -0.0209207 0.0182711 -0.0033641 -0.0204173 0.0182673 
-0.0207996 -0.0190456 0.0186614 0.0134129 -0.0192809 0.0186464 -0.0147645 -0.0165889 0.0185851 
0.0296492 -0.015918 0.0187006 0.0132043 -0.01541 0.0184905 0.0323803 -0.0150629 0.0188333 
-0.0279963 -0.0141356 0.0185216 -0.00710141 -0.0133745 0.0185104 0.00886689 -0.0141191 0.0190527 
0.0144468 -0.013247 0.0183612 -0.00528066 -0.0121118 0.018594 0.0347312 -0.012978 0.0185886 
0.0253763 -0.011051 0.0192605 -0.038829 -0.00978443 0.019266 -0.0253401 -0.0103599 0.0186048 
0.0218314 -0.00971151 0.0186657 0.0334462 -0.00930086 0.0185763 -0.0101373 -0.00698039 0.0184211 
-0.00720807 -0.00608605 0.0184272 -0.0253129 -0.0039775 0.0186919 0.0200271 -0.00425623 0.0183431 
-0.0107529 -0.00365687 0.0190456 -0.0198668 -0.00211416 0.0186299 -0.0283489 -0.000417126 0.0183326 
0.00127443 -0.000618905 0.018453 0.0420414 -0.00101026 0.0187573 -0.0332593 0.000859011 0.0187658 
0.0116524 0.00206193 0.0188448 0.0189244 0.00254502 0.0193019 -0.0233311 0.00384073 0.0189672 
0.0183943 0.00266245 0.0183679 -0.027449 0.00511055 0.0188247 -0.00757157 0.00454821 0.0183287 
0.0260144 0.00429017 0.0191701 -0.01547 0.00642247 0.019015 0.0358407 0.00533501 0.0185083 
-0.0429246 0.00657681 0.0186477 -0.019893 0.00878872 0.0190043 -0.0105861 0.00898083 0.0185311 
0.0324887 0.00836074 0.0185382 -0.0408306 0.00999374 0.0190929 0.0234497 0.00978487 0.0186469 
0.027557 0.009967 0.0191421 -0.00808524 0.0113378 0.0190114 -0.00071691 0.0108932 0.0185857 
0.00418285 0.0112423 0.0192704 -0.00841171 0.0143034 0.0185357 0.012949 0.0143048 0.0186599 
0.0311878 0.014057 0.0182647 0.0396593 0.013993 0.018562 -0.0287818 0.014969 0.0185214 
-0.0231109 0.0157017 0.018556 -0.0408838 0.0159645 0.0185065 -0.0286532 0.0159811 0.018529 
-0.0161548 0.0159009 0.0188757 -0.00317984 0.0164631 0.0184899 -0.0436896 0.0195853 0.0184966 
-0.0363159 0.0185996 0.0185187 0.00742845 0.0199749 0.0194159 -0.0324762 0.0230005 0.0189434 
-0.0148746 0.0223253 0.0185347 0.00126512 0.0228658 0.0186157 -0.0436572 0.0238848 0.0185304 
-0.0138035 0.0240512 0.0186776 -0.0132251 0.0252506 0.0188973 -0.0128609 0.0265935 0.0185418 
-0.0214233 0.0285543 0.0186094 0.0397191 0.0283771 0.0187493 0.0040127 0.0314243 0.0187701 
0.0191028 0.0315895 0.0185484 0.0193546 0.0324404 0.0190628 0.0337272 0.0324898 0.0191027 
0.0380057 0.0324307 0.01926 -0.0425374 0.0333781 0.0188195 -0.0359241 0.0337864 0.0195201 
0.0132394 0.0345575 0.0194498 0.0278529 0.0342296 0.0189683 -0.00750544 0.0361316 0.0188966 
0.00888594 0.0360502 0.0184279 0.00367032 0.0371324 0.0188562 -0.00585061 0.0388609 0.0183865 
-0.0379532 0.0399341 0.0186373 0.00201585 0.0404036 0.0188711 -0.00785852 0.041878 0.0187731 
0.0170579 0.0421878 0.0190469 0.0430506 0.0422314 0.018684 0.00528787 0.0432844 0.0185897 
-0.0390775 0.0447256 0.0184619 -0.0190394 0.0446837 0.0193226 0.0147823 -0.0446949 0.0196576 
0.043014 -0.0343178 0.0197697 -0.00682403 -0.0314098 0.020529 0.0350196 -0.0250011 0.0200944 
0.0204492 -0.0194639 0.0198175 0.0272875 -0.0186725 0.0200571 -0.0214415 -0.007536 0.019561 
0.0386193 -0.00496685 0.0198442 -0.0131355 0.00164571 0.0203158 -0.0137512 0.00384646 0.0206749 
-0.009285 0.00693532 0.020718 -0.00598638 0.00689803 0.0204492 0.021223 0.0244832 0.0207811 
-0.014478 0.0275162 0.0198083 -0.0225361 -0.0441701 0.0216413 0.0127657 -0.00746761 0.0213764 
0.0448793 -0.00396119 0.0219211 -0.0442311 0.00821601 0.0220345 -0.0408092 0.00981999 0.0215369 
-0.0260391 0.0304395 0.0217152 0.0188903 -0.0308528 0.0227914 0.0352883 -0.0103067 0.022842 
0.00643655 -0.000956063 0.0223883 0.00976298 0.0163696 0.0225579 -0.0122189 0.0175978 0.0227773 
-0.0207679 -0.0256315 0.0232421 0.039455 -0.000236508 0.0251001 0.00741479 -0.0295782 0.0259038 
0.00347554 0.00338662 0.0255287 -0.00254916 -0.00379952 0.0284836 0.0242571 -0.0100823 0.0324252 

VERTICES 649 648
OFFSETS vtktypeint64
0 1 2 3 4 5 6 7 8 
9 10 11 12 13 14 15 16 17 
18 19 20 21 22 23 24 25 26 
27 28 29 30 31 32 33 34 35 
36 37 38 39 40 41 42 43 44 
45 46 47 48 49 50 51 52 53 
54 55 56 57 58 59 60 61 62 
63 64 65 66 67 68 69 70 71 
72 73 74 75 76 77 78 79 80 
81 82 83 84 85 86 87 88 89 
90 91 92 93 94 95 96 97 98 
99 100 101 102 103 104 105 106 107 
108 109 110 111 112 113 114 115 116 
117 118 119 120 121 122 123 124 125 
126 127 128 129 130 131 132 133 134 
135 136 137 138 139 140 141 142 143 
144 145 146 147 148 149 150 151 152 
153 154 155 156 157 158 159 160 161 
162 163 164 165 166 167 168 169 170 
171 172 173 174 175 176 177 178 179 
180 181 182 183 184 185 186 187 188 
189 190 191 192 193 194 195 196 197 
198 199 200 201 202 203 204 205 206 
207 208 209 210 211 212 213 214 215 
216 217 218 219 220 221 222 223 224 
225 226 227 228 229 230 231 232 233 
234 235 236 237 238 239 240 241 242 
243 244 245 246 247 248 249 250 251 
252 253 254 255 256 257 258 259 260 
261 262 263 264 265 266 267 268 269 
270 271 272 273 274 275 276 277 278 
279 280 281 282 283 284 285 286 287 
288 289 290 291 292 293 294 295 296 
297 298 299 300 301 302 303 304 305 
306 307 308 309 310 311 312 313 314 
315 316 317 318 319 320 321 322 323 
324 325 326 327 328 329 330 331 332 
333 334 335 336 337 338 339 340 341 
342 343 344 345 346 347 348 349 350 
351 352 353 354 355 356 357 358 359 
360 361 362 363 364 365 366 367 368 
369 370 371 372 373 374 375 376 377 
378 379 380 381 382 383 384 385 386 
387 388 389 390 391 392 393 394 395 
396 397 398 399 400 401 402 403 404 
405 406 407 408 409 410 411 412 413 
414 415 416 417 418 419 420 421 422 
423 424 425 426 427 428 429 430 431 
432 433 434 435 436 437 438 439 440 
441 442 443 444 445 446 447 448 449 
450 451 452 453 454 455 456 457 458 
459 460 461 462 463 464 465 466 467 
468 469 470 471 472 473 474 475 476 
477 478 479 480 481 482 483 484 485 
486 487 488 489 490 491 492 493 494 
495 496 497 498 499 500 501 502 503 
504 505 506 507 508 509 510 511 512 
513 514 515 516 517 518 519 520 521 
522 523 524 525 526 527 528 529 530 
531 532 533 534 535 536 537 538 539 
540 541 542 543 544 545 546 547 548 
549 550 551 552 553 554 555 556 557 
558 559 560 561 562 563 564 565 566 
567 568 569 570 571 572 573 574 575 
576 577 578 579 580 581 582 583 584 
585 586 587 588 589 590 591 592 593 
594 595 596 597 598 599 600 601 602 
603 604 605 606 607 608 609 610 611 
612 613 614 615 616 617 618 619 620 
621 622 623 624 625 626 627 628 629 
630 631 632 633 634 635 636 637 638 
639 640 641 642 643 644 645 646 647 
648 
CONNECTIVITY vtktypeint64
0 1 2 3 4 5 6 7 8 
9 10 11 12 13 14 15 16 17 
18 19 20 21 22 23 24 25 26 
27 28 29 30 31 32 33 34 35 
36 37 38 39 40 41 42 43 44 
45 46 47 48 49 50 51 52 53 
54 55 56 57 58 59 60 61 62 
63 64 65 66 67 68 69 70 71 
72 73 74 75 76 77 78 79 80 
81 82 83 84 85 86 87 88 89 
90 91 92 93 94 95 96 97 98 
99 100 101 102 103 104 105 106 107 
108 109 110 111 112 113 114 115 116 
117 118 119 120 121 122 123 124 125 
126 127 128 129 130 131 132 133 134 
135 136 137 138 139 140 141 142 143 
144 145 146 147 148 149 150 151 152 
153 154 155 156 157 158 159 160 161 
162 163 164 165 166 167 168 169 170 
171 172 173 174 175 176 177 178 179 
180 181 182 183 184 185 186 187 188 
189 190 191 192 193 194 195 196 197 
198 199 200 201 202 203 204 205 206 
207 208 209 210 211 212 213 214 215 
216 217 218 219 220 221 222 223 224 
225 226 227 228 229 230 231 232 233 
234 235 236 237 238 239 240 241 242 
243 244 245 246 247 248 249 250 251 
252 253 254 255 256 257 258 259 260 
261 262 263 264 265 266 267 268 269 
270 271 272 273 274 275 276 277 278 
279 280 281 282 283 284 285 286 287 
288 289 290 291 292 293 294 295 296 
297 298 299 300 301 302 303 304 305 
306 307 308 309 310 311 312 313 314 
315 316 317 318 319 320 321 322 323 
324 325 326 327 328 329 330 331 332 
333 334 335 336 337 338 339 340 341 
342 343 344 345 346 347 348 349 350 
351 352 353 354 355 356 357 358 359 
360 361 362 363 364 365 366 367 368 
369 370 371 372 373 374 375 376 377 
378 379 380 381 382 383 384 385 386 
387 388 389 390 391 392 393 394 395 
396 397 398 399 400 401 402 403 404 
405 406 407 408 409 410 411 412 413 
414 415 416 417 418 419 420 421 422 
423 424 425 426 427 428 429 430 431 
432 433 434 435 436 437 438 439 440 
441 442 443 444 445 446 447 448 449 
450 451 452 453 454 455 456 457 458 
459 460 461 462 463 464 465 466 467 
468 469 470 471 472 473 474 475 476 
477 478 479 480 481 482 483 484 485 
486 487 488 489 490 491 492 493 494 
495 496 497 498 499 500 501 502 503 
504 505 506 507 508 509 510 511 512 
513 514 515 516 517 518 519 520 521 
522 523 524 525 526 527 528 529 530 
531 532 533 534 535 536 537 538 539 
540 541 542 543 544 545 546 547 548 
549 550 551 552 553 554 555 556 557 
558 559 560 561 562 563 564 565 566 
567 568 569 570 571 572 573 574 575 
576 577 578 579 580 581 582 583 584 
585 586 587 588 589 590 591 592 593 
594 595 596 597 598 599 600 601 602 
603 604 605 606 607 608 609 610 611 
612 613 614 615 616 617 618 619 620 
621 622 623 624 625 626 627 628 629 
630 631 632 633 634 635 636 637 638 
639 640 641 642 643 644 645 646 647 

POINT_DATA 648
FIELD FieldData 12
id 1 648 int
634 115 626 629 383 57 610 568 465 
396 625 611 164 635 185 574 608 72 
620 491 18 195 600 639 190 603 590 
293 370 418 450 214 169 633 150 433 
582 607 588 575 597 92 584 304 581 
154 106 544 175 598 458 407 556 595 
310 339 166 49 219 637 362 614 508 
459 645 604 578 317 470 289 444 628 
617 569 593 297 622 609 506 583 552 
246 386 555 372 586 605 51 347 404 
331 282 541 618 612 585 599 292 615 
592 132 66 630 36 478 456 601 432 
322 110 521 163 535 623 579 85 606 
534 463 200 562 577 134 356 571 616 
570 107 137 291 267 238 439 355 572 
176 537 638 554 227 231 428 567 515 
565 86 613 467 423 261 197 288 149 
594 596 26 327 270 531 412 366 218 
207 648 35 34 24 88 589 303 543 
548 64 573 381 215 127 157 563 336 
243 557 647 385 538 546 353 129 255 
60 202 560 308 40 561 189 504 187 
201 320 328 318 62 346 140 632 591 
87 226 367 352 128 121 576 237 479 
558 539 247 168 58 530 324 260 602 
6 580 125 542 341 83 186 334 165 
373 401 193 587 364 514 507 461 509 
158 268 253 148 29 550 643 457 549 
256 294 445 532 71 547 472 174 440 
551 73 553 566 483 42 368 299 257 
135 564 56 503 545 338 420 345 273 
619 469 392 117 109 100 408 280 114 
488 343 348 251 233 361 108 272 188 
31 203 99 82 159 436 518 489 319 
69 229 505 525 333 139 533 502 527 
526 160 167 274 496 143 374 290 194 
306 380 349 264 427 95 399 11 263 
360 382 204 141 454 126 426 528 510 
400 497 181 262 46 220 118 417 443 
33 337 529 254 12 162 199 410 540 
321 419 94 235 624 232 437 182 559 
536 155 435 91 406 302 55 438 275 
98 113 390 429 314 326 122 22 344 
103 409 415 513 449 298 517 500 248 
511 75 90 495 486 424 112 21 446 
384 358 184 287 330 104 14 520 524 
222 387 309 413 523 76 351 84 414 
52 411 487 67 388 477 295 183 493 
484 192 329 28 170 240 59 211 644 
146 8 311 53 522 32 278 377 252 
142 20 151 371 217 265 196 61 519 
244 216 501 512 474 378 119 236 63 
178 54 447 161 357 138 646 431 279 
206 9 498 30 451 81 225 313 198 
375 397 475 242 89 93 258 471 68 
271 136 312 173 210 359 102 492 402 
350 156 239 307 5 250 283 393 354 
96 147 120 13 430 116 79 223 234 
37 416 323 111 403 25 177 44 462 
422 376 74 276 490 441 460 43 259 
340 16 23 101 38 39 224 285 105 
171 405 205 365 80 389 208 77 212 
305 284 631 379 245 153 301 124 144 
145 453 296 480 442 221 464 17 41 
395 363 48 70 315 228 468 473 152 
485 281 130 325 394 191 97 131 266 
209 179 332 481 65 180 466 455 494 
391 421 452 286 482 45 249 123 277 
434 19 342 476 172 241 47 398 335 
448 516 10 133 499 300 425 213 78 
369 230 27 50 316 4 269 636 3 
621 15 7 627 2 640 641 642 1 

type 1 648 int
2 1 1 1 1 1 1 1 1 
1 1 1 1 1 1 1 1 1 
1 1 1 1 1 1 1 1 1 
1 1 1 1 1 1 1 1 1 
1 1 1 1 1 1 1 1 1 
1 1 1 1 1 1 1 1 1 
1 1 1 1 1 1 1 1 1 
1 1 1 1 1 1 1 1 1 
1 1 1 1 1 1 1 1 1 
1 1 1 1 1 1 1 1 1 
1 1 1 1 1 1 1 1 1 
1 1 1 1 1 1 1 1 1 
1 1 1 1 1 1 1 1 1 
1 1 1 1 1 1 1 1 1 
1 1 1 1 1 1 1 1 1 
1 1 1 1 1 1 1 1 1 
1 1 1 1 1 1 1 1 1 
1 1 1 1 1 1 1 1 1 
1 1 1 1 1 1 1 1 1 
1 1 1 1 1 1 1 1 1 
1 1 1 1 1 1 1 1 1 
1 1 1 1 1 1 1 1 1 
1 1 1 1 1 1 1 1 1 
1 1 1 1 1 1 1 1 1 
1 1 1 1 1 1 1 1 1 
2 1 1 1 1 1 1 1 1 
1 1 1 1 1 1 1 1 1 
1 1 1 1 1 1 1 1 1 
1 1 1 1 1 1 1 1 1 
1 1 1 1 1 1 1 1 1 
1 1 1 1 1 1 1 1 1 
1 1 1 1 1 1 1 1 1 
1 1 1 1 1 1 1 1 1 
1 1 1 1 1 1 1 1 1 
1 1 1 1 1 1 1 1 1 
1 1 1 1 1 1 1 1 1 
1 1 1 1 1 1 1 2 1 
1 1 1 1 1 1 1 1 1 
1 1 1 1 1 1 1 1 1 
1 1 1 1 2 1 1 1 1 
1 1 1 1 1 1 1 1 1 
1 1 1 1 1 1 1 1 1 
1 1 1 1 1 1 1 1 1 
1 1 1 1 1 1 1 1 1 
1 1 1 1 1 1 1 1 1 
1 1 1 1 1 1 2 1 1 
1 1 1 1 1 1 1 1 1 
1 1 1 1 1 1 1 1 1 
1 1 1 1 1 1 1 1 1 
1 2 1 1 1 1 1 1 1 
1 1 1 1 1 1 1 1 1 
1 1 1 2 1 1 1 1 1 
1 1 1 1 1 1 1 1 1 
1 2 1 1 1 1 1 1 1 
1 1 1 1 1 1 1 1 1 
1 1 1 1 1 1 1 1 1 
1 1 1 1 2 1 1 1 1 
1 1 1 2 1 1 1 1 1 
1 1 1 1 1 1 1 1 1 
1 1 1 1 1 1 1 1 1 
1 2 1 1 1 1 1 1 1 
1 1 1 1 1 1 1 1 1 
1 1 1 1 1 1 1 1 1 
1 1 1 1 1 1 1 1 1 
1 1 1 1 1 1 1 1 1 
1 1 1 1 1 1 1 1 1 
1 1 1 1 1 1 1 1 1 
1 1 1 1 1 1 1 1 1 
1 1 1 1 1 1 1 1 1 
1 2 2 1 1 1 1 1 1 
1 1 1 1 1 2 1 1 2 
1 2 2 1 3 1 1 1 4 

i 3 648 int
0 0 0 0 0 0 0 0 0 
0 0 0 0 0 0 0 0 0 
0 0 0 0 0 0 0 0 0 
0 0 0 0 0 0 0 0 0 
0 0 0 0 0 0 0 0 0 
0 0 0 0 0 0 0 0 0 
0 0 0 0 0 0 0 0 0 
0 0 0 0 0 0 0 0 0 
0 0 0 0 0 0 0 0 0 
0 0 0 0 0 0 0 0 0 
0 0 0 0 0 0 0 0 0 
0 0 0 0 0 0 0 0 0 
0 0 0 0 0 0 0 0 0 
0 0 0 0 0 0 0 0 0 
0 0 0 0 0 0 0 0 0 
0 0 0 0 0 0 0 0 0 
0 0 0 0 0 0 0 0 0 
0 0 0 0 0 0 0 0 0 
0 0 0 0 0 0 0 0 0 
0 0 0 0 0 0 0 0 0 
0 0 0 0 0 0 0 0 0 
0 0 0 0 0 0 0 0 0 
0 0 0 0 0 0 0 0 0 
0 0 0 0 0 0 0 0 0 
0 0 0 0 0 0 0 0 0 
0 0 0 0 0 0 0 0 0 
0 0 0 0 0 0 0 0 0 
0 0 0 0 0 0 0 0 0 
0 0 0 0 0 0 0 0 0 
0 0 0 0 0 0 0 0 0 
0 0 0 0 0 0 0 0 0 
0 0 0 0 0 0 0 0 0 
0 0 0 0 0 0 0 0 0 
0 0 0 0 0 0 0 0 0 
0 0 0 0 0 0 0 0 0 
0 0 0 0 0 0 0 0 0 
0 0 0 0 0 0 0 0 0 
0 0 0 0 0 0 0 0 0 
0 0 0 0 0 0 0 0 0 
0 0 0 0 0 0 0 0 0 
0 0 0 0 0 0 0 0 0 
0 0 0 0 0 0 0 0 0 
0 0 0 0 0 0 0 0 0 
0 0 0 0 0 0 0 0 0 
0 0 0 0 0 0 0 0 0 
0 0 0 0 0 0 0 0 0 
0 0 0 0 0 0 0 0 0 
0 0 0 0 0 0 0 0 0 
0 0 0 0 0 0 0 0 0 
0 0 0 0 0 0 0 0 0 
0 0 0 0 0 0 0 0 0 
0 0 0 0 0 0 0 0 0 
0 0 0 0 0 0 0 0 0 
0 0 0 0 0 0 0 0 0 
0 0 0 0 0 0 0 0 0 
0 0 0 0 0 0 0 0 0 
0 0 0 0 0 0 0 0 0 
0 0 0 0 0 0 0 0 0 
0 0 0 0 0 0 0 0 0 
0 0 0 0 0 0 0 0 0 
0 0 0 0 0 0 0 0 0 
0 0 0 0 0 0 0 0 0 
0 0 0 0 0 0 0 0 0 
0 0 0 0 0 0 0 0 0 
0 0 0 0 0 0 0 0 0 
0 0 0 0 0 0 0 0 0 
0 0 0 0 0 0 0 0 0 
0 0 0 0 0 0 0 0 0 
0 0 0 0 0 0 0 0 0 
0 0 0 0 0 0 0 0 0 
0 0 0 0 0 0 0 0 0 
0 0 0 0 0 0 0 0 0 
0 0 0 0 0 0 0 0 0 
0 0 0 0 0 0 0 0 0 
0 0 0 0 0 0 0 0 0 
0 0 0 0 0 0 0 0 0 
0 0 0 0 0 0 0 0 0 
0 0 0 0 0 0 0 0 0 
0 0 0 0 0 0 0 0 0 
0 0 0 0 0 0 0 0 0 
0 0 0 0 0 0 0 0 0 
0 0 0 0 0 0 0 0 0 
0 0 0 0 0 0 0 0 0 
0 0 0 0 0 0 0 0 0 
0 0 0 0 0 0 0 0 0 
0 0 0 0 0 0 0 0 0 
0 0 0 0 0 0 0 0 0 
0 0 0 0 0 0 0 0 0 
0 0 0 0 0 0 0 0 0 
0 0 0 0 0 0 0 0 0 
0 0 0 0 0 0 0 0 0 
0 0 0 0 0 0 0 0 0 
0 0 0 0 0 0 0 0 0 
0 0 0 0 0 0 0 0 0 
0 0 0 0 0 0 0 0 0 
0 0 0 0 0 0 0 0 0 
0 0 0 0 0 0 0 0 0 
0 0 0 0 0 0 0 0 0 
0 0 0 0 0 0 0 0 0 
0 0 0 0 0 0 0 0 0 
0 0 0 0 0 0 0 0 0 
0 0 0 0 0 0 0 0 0 
0 0 0 0 0 0 0 0 0 
0 0 0 0 0 0 0 0 0 
0 0 0 0 0 0 0 0 0 
0 0 0 0 0 0 0 0 0 
0 0 0 0 0 0 0 0 0 
0 0 0 0 0 0 0 0 0 
0 0 0 0 0 0 0 0 0 
0 0 0 0 0 0 0 0 0 
0 0 0 0 0 0 0 0 0 
0 0 0 0 0 0 0 0 0 
0 0 0 0 0 0 0 0 0 
0 0 0 0 0 0 0 0 0 
0 0 0 0 0 0 0 0 0 
0 0 0 0 0 0 0 0 0 
0 0 0 0 0 0 0 0 0 
0 0 0 0 0 0 0 0 0 
0 0 0 0 0 0 0 0 0 
0 0 0 0 0 0 0 0 0 
0 0 0 0 0 0 0 0 0 
0 0 0 0 0 0 0 0 0 
0 0 0 0 0 0 0 0 0 
0 0 0 0 0 0 0 0 0 
0 0 0 0 0 0 0 0 0 
0 0 0 0 0 0 0 0 0 
0 0 0 0 0 0 0 0 0 
0 0 0 0 0 0 0 0 0 
0 0 0 0 0 0 0 0 0 
0 0 0 0 0 0 0 0 0 
0 0 0 0 0 0 0 0 0 
0 0 0 0 0 0 0 0 0 
0 0 0 0 0 0 0 0 0 
0 0 0 0 0 0 0 0 0 
0 0 0 0 0 0 0 0 0 
0 0 0 0 0 0 0 0 0 
0 0 0 0 0 0 0 0 0 
0 0 0 0 0 0 0 0 0 
0 0 0 0 0 0 0 0 0 
0 0 0 0 0 0 0 0 0 
0 0 0 0 0 0 0 0 0 
0 0 0 0 0 0 0 0 0 
0 0 0 0 0 0 0 0 0 
0 0 0 0 0 0 0 0 0 
0 0 0 0 0 0 0 0 0 
0 0 0 0 0 0 0 0 0 
0 0 0 0 0 0 0 0 0 
0 0 0 0 0 0 0 0 0 
0 0 0 0 0 0 0 0 0 
0 0 0 0 0 0 0 0 0 
0 0 0 0 0 0 0 0 0 
0 0 0 0 0 0 0 0 0 
0 0 0 0 0 0 0 0 0 
0 0 0 0 0 0 0 0 0 
0 0 0 0 0 0 0 0 0 
0 0 0 0 0 0 0 0 0 
0 0 0 0 0 0 0 0 0 
0 0 0 0 0 0 0 0 0 
0 0 0 0 0 0 0 0 0 
0 0 0 0 0 0 0 0 0 
0 0 0 0 0 0 0 0 0 
0 0 0 0 0 0 0 0 0 
0 0 0 0 0 0 0 0 0 
0 0 0 0 0 0 0 0 0 
0 0 0 0 0 0 0 0 0 
0 0 0 0 0 0 0 0 0 
0 0 0 0 0 0 0 0 0 
0 0 0 0 0 0 0 0 0 
0 0 0 0 0 0 0 0 0 
0 0 0 0 0 0 0 0 0 
0 0 0 0 0 0 0 0 0 
0 0 0 0 0 0 0 0 0 
0 0 0 0 0 0 0 0 0 
0 0 0 0 0 0 0 0 0 
0 0 0 0 0 0 0 0 0 
0 0 0 0 0 0 0 0 0 
0 0 0 0 0 0 0 0 0 
0 0 0 0 0 0 0 0 0 
0 0 0 0 0 0 0 0 0 
0 0 0 0 0 0 0 0 0 
0 0 0 0 0 0 0 0 0 
0 0 0 0 0 0 0 0 0 
0 0 0 0 0 0 0 0 0 
0 0 0 0 0 0 0 0 0 
0 0 0 0 0 0 0 0 0 
0 0 0 0 0 0 0 0 0 
0 0 0 0 0 0 0 0 0 
0 0 0 0 0 0 0 0 0 
0 0 0 0 0 0 0 0 0 
0 0 0 0 0 0 0 0 0 
0 0 0 0 0 0 0 0 0 
0 0 0 0 0 0 0 0 0 
0 0 0 0 0 0 0 0 0 
0 0 0 0 0 0 0 0 0 
0 0 0 0 0 0 0 0 0 
0 0 0 0 0 0 0 0 0 
0 0 0 0 0 0 0 0 0 
0 0 0 0 0 0 0 0 0 
0 0 0 0 0 0 0 0 0 
0 0 0 0 0 0 0 0 0 
0 0 0 0 0 0 0 0 0 
0 0 0 0 0 0 0 0 0 
0 0 0 0 0 0 0 0 0 
0 0 0 0 0 0 0 0 0 
0 0 0 0 0 0 0 0 0 
0 0 0 0 0 0 0 0 0 
0 0 0 0 0 0 0 0 0 
0 0 0 0 0 0 0 0 0 
0 0 0 0 0 0 0 0 0 
0 0 0 0 0 0 0 0 0 
0 0 0 0 0 0 0 0 0 
0 0 0 0 0 0 0 0 0 
0 0 0 0 0 0 0 0 0 
0 0 0 0 0 0 0 0 0 
0 0 0 0 0 0 0 0 0 
0 0 0 0 0 0 0 0 0 

v 3 648 double
0 0 0.25820923907 0 0 -0.15763407038 0 0 0.18020915046 
0 0 0.22494048616 0 0 -0.15996408765 0 0 -0.16416005807 
0 0 0.24791876206 0 0 0.24360259914 0 0 -0.15569862751 
0 0 -0.15816173592 0 0 -0.60874918749 0 0 -0.62174918749 
0 0 -0.15175371988 0 0 0.21480976474 0 0 -0.14624846426 
0 0 0.19494479815 0 0 -0.62824918749 0 0 -0.14582274539 
0 0 0.2200708262 0 0 -0.14628786718 0 0 -0.14799967086 
0 0 -0.15193561955 0 0 -0.63474918749 0 0 0.2150171594 
0 0 -0.13964088927 0 0 0.2106691842 0 0 0.21720276322 
0 0 -0.13556297078 0 0 -0.14079517269 0 0 -0.13777444263 
0 0 -0.14352605475 0 0 -0.13805409195 0 0 -0.15006116986 
0 0 0.15476356551 0 0 -0.14101980571 0 0 -0.13578739164 
0 0 -0.65749918749 0 0 0.20360788653 0 0 -0.65424918749 
0 0 0.22328402464 0 0 0.14908047568 0 0 -0.1297879099 
0 0 -0.65749918749 0 0 -0.13144331144 0 0 0.1994107554 
0 0 -0.12255892709 0 0 -0.1352832918 0 0 0.21805633856 
0 0 -0.12095400938 0 0 0.15084993137 0 0 -0.12580913114 
0 0 -0.12419992772 0 0 0.1676149276 0 0 0.19735142312 
0 0 -0.12024822935 0 0 -0.12763804245 0 0 -0.12824023565 
0 0 -0.12423997859 0 0 -0.14083874844 0 0 0.17861292606 
0 0 -0.14294667636 0 0 0.14203755015 0 0 -0.098801608295 
0 0 -0.12786089665 0 0 0.10433395329 0 0 0.11696246035 
0 0 0.19241975184 0 0 -0.10726492948 0 0 -0.11497230115 
0 0 -0.11495105129 0 0 -0.11280737589 0 0 0.16368180619 
0 0 0.18011088532 0 0 0.19319573728 0 0 0.12526294885 
0 0 -0.11519282635 0 0 0.17977862731 0 0 -0.62499918749 
0 0 -0.10303845729 0 0 0.13342309606 0 0 0.14574399442 
0 0 -0.11999099026 0 0 -0.11748318213 0 0 0.19489172213 
0 0 -0.13309963862 0 0 0.1786728567 0 0 0.084892324033 
0 0 -0.090891507465 0 0 -0.098366774399 0 0 -0.10511589817 
0 0 -0.10937200625 0 0 -0.10819646881 0 0 0.18685187259 
0 0 0.17801434535 0 0 0.061278044509 0 0 0.17404366317 
0 0 0.16751254389 0 0 -0.10634846291 0 0 0.083135721953 
0 0 0.073054633243 0 0 -0.10837528642 0 0 -0.10650232366 
0 0 -0.60874918749 0 0 -0.10892942325 0 0 -0.096010658807 
0 0 -0.099134962122 0 0 0.041214562113 0 0 -0.10360273825 
0 0 -0.11274777996 0 0 -0.091476251662 0 0 -0.063829067839 
0 0 -0.091521233105 0 0 0.13429566524 0 0 0.15345176567 
0 0 0.12214205661 0 0 -0.10451587575 0 0 -0.63149918749 
0 0 0.11343188267 0 0 -0.092152708302 0 0 -0.12513539917 
0 0 0.031309972821 0 0 0.066450731999 0 0 -0.12446750178 
0 0 -0.11542012028 0 0 0.044998416532 0 0 0.13436498909 
0 0 0.081510149222 0 0 -0.12304635678 0 0 -0.093352326129 
0 0 -0.12010860654 0 0 -0.090619181054 0 0 -0.080022677486 
0 0 -0.089873137202 0 0 -0.096130681693 0 0 0.075438900547 
0 0 -0.11678162324 0 0 0.18458428964 0 0 0.12526916848 
0 0 0.17058676501 0 0 -0.078145025948 0 0 -0.12513114554 
0 0 -0.12679679957 0 0 0.026890167921 0 0 -0.063906124883 
0 0 0.095978672562 0 0 -0.11625247637 0 0 0.15374025154 
0 0 -0.095828626307 0 0 -0.11928173085 0 0 -0.083581213315 
0 0 -0.12367592142 0 0 -0.07856328755 0 0 -0.11782619397 
0 0 0.15805264491 0 0 0.13597834232 0 0 -0.12173046146 
0 0 -0.096572760317 0 0 -0.1233681149 0 0 0.17894968463 
0 0 -0.090457519339 0 0 -0.10064362931 0 0 -0.069607098916 
0 0 -0.085066112578 0 0 -0.5957491875 0 0 -0.063703149944 
0 0 -0.062075660639 0 0 -0.070747802067 0 0 -0.11387306176 
0 0 0.054405700564 0 0 -0.07250596714 0 0 0.015278050192 
0 0 0.14939160075 0 0 -0.05954118286 0 0 0.13721373141 
0 0 -0.11066725152 0 0 -0.10974850927 0 0 -0.11441247862 
0 0 -0.053036730177 0 0 0.083704070161 0 0 -0.10972505798 
0 0 -0.059403284499 0 0 0.14725410281 0 0 -0.5957491875 
0 0 -0.11020678279 0 0 0.0079501004678 0 0 0.041114951487 
0 0 -0.10688710715 0 0 -0.057587512154 0 0 -0.068621458317 
0 0 -0.080066281144 0 0 -0.059475725187 0 0 0.15139294258 
0 0 -0.055331864079 0 0 -0.080643730487 0 0 0.14126686848 
0 0 -0.10404635742 0 0 -0.045607405264 0 0 -0.10318635291 
0 0 -0.058543119141 0 0 -0.058782986825 0 0 -0.067370158756 
0 0 -0.077709496967 0 0 -0.057889041986 0 0 -0.036167226942 
0 0 -0.044538105893 0 0 -0.60549918749 0 0 0.062714132461 
0 0 -0.094003974862 0 0 -0.043294282121 0 0 -0.089003837905 
0 0 -0.034708727136 0 0 -0.043374644665 0 0 -0.059046864997 
0 0 0.089609111818 0 0 -0.097883575052 0 0 -0.05386537539 
0 0 0.14256558705 0 0 0.1329083582 0 0 -0.101021644 
0 0 -0.060181644113 0 0 -0.099213382864 0 0 0.13553914302 
0 0 -0.069050021679 0 0 -0.03141426892 0 0 -0.63149918749 
0 0 -0.11106914438 0 0 0.081315175257 0 0 -0.099843790985 
0 0 -0.0012172064659 0 0 -0.044908957257 0 0 -0.091183900646 
0 0 -0.087145740198 0 0 -0.03195005477 0 0 -0.098985431404 
0 0 -0.098826881292 0 0 -0.051777968323 0 0 -0.095751982341 
0 0 0.074057517903 0 0 -0.096276452919 0 0 0.076056067426 
0 0 0.004979265804 0 0 -0.030208978354 0 0 0.020853891935 
0 0 -0.092779143407 0 0 -0.033217913785 0 0 -0.094186621757 
0 0 -0.049205344869 0 0 -0.093892469672 0 0 0.13436064415 
0 0 -0.5957491875 0 0 -0.084968756597 0 0 0.075704153638 
0 0 -0.079953093409 0 0 -0.024185907761 0 0 -0.004613256021 
0 0 0.10285657764 0 0 -0.016786852875 0 0 0.098835789069 
0 0 -0.03777820104 0 0 -0.041312726126 0 0 -0.086263485502 
0 0 0.090504438053 0 0 -0.077080207651 0 0 0.059357837327 
0 0 0.092494029516 0 0 -0.084644157566 0 0 -0.014543526804 
0 0 -0.021798198035 0 0 -0.032454316258 0 0 -0.03542217749 
0 0 -0.0064564467691 0 0 0.08818674555 0 0 -0.028229608418 
0 0 0.019893550493 0 0 0.10324939126 0 0 0.0054877714733 
0 0 -0.025107895952 0 0 -0.020906848512 0 0 -0.018151929762 
0 0 -0.61199918749 0 0 -0.033048220108 0 0 -0.028565130292 
0 0 -0.018622358591 0 0 -0.015972251827 0 0 -0.074007297498 
0 0 -0.071820058348 0 0 -0.084875893962 0 0 0.010458066881 
0 0 -0.080954434962 0 0 -0.037925576242 0 0 -0.021015992594 
0 0 -0.037320362436 0 0 -0.077252340556 0 0 -0.010607359615 
0 0 -0.024829970249 0 0 -0.032980995575 0 0 -0.049071634868 
0 0 0.00067198684548 0 0 0.046044638326 0 0 0.020010290954 
0 0 0.00820345373 0 0 0.028042789399 0 0 0.016020701439 
0 0 0.075967682983 0 0 0.0008109537509 0 0 -0.049787566096 
0 0 0.030417110573 0 0 -0.05165897984 0 0 -0.036628625788 
0 0 0.10854834687 0 0 -0.011432417449 0 0 0.013360630331 
0 0 0.089541155459 0 0 0.033109573386 0 0 0.099877923551 
0 0 0.049125666438 0 0 0.020715728209 0 0 -0.061968770859 
0 0 0.014284113578 0 0 -0.071697008413 0 0 0.021889969966 
0 0 0.013858651877 0 0 -0.055354210032 0 0 0.014804321229 
0 0 0.048278639142 0 0 0.0032285580583 0 0 -0.058144501934 
0 0 0.056483110278 0 0 -0.063403009497 0 0 0.045221151307 
0 0 -0.05480002527 0 0 -0.093919243136 0 0 -0.056198900821 
0 0 -0.0086505305457 0 0 0.052526551068 0 0 -0.0071612908259 
0 0 -0.04550478303 0 0 -0.063272535111 0 0 0.0074141131222 
0 0 -0.0047702082032 0 0 0.071568558325 0 0 0.12703094257 
0 0 0.05126311647 0 0 0.028474916098 0 0 0.016193046318 
0 0 0.035488464799 0 0 0.020916917199 0 0 0.02172006627 
0 0 0.031280194811 0 0 -0.063850205032 0 0 0.013491603102 
0 0 0.023337256075 0 0 -0.055669396467 0 0 0.0026037476064 
0 0 0.011843879534 0 0 -0.091191486836 0 0 -0.064657034399 
0 0 -0.049672811447 0 0 -0.063637125312 0 0 0.10815827098 
0 0 -0.066321758431 0 0 0.045247198769 0 0 -0.015906696006 
0 0 0.04976137709 0 0 -0.60874918749 0 0 -0.015778016146 
0 0 -0.035589154073 0 0 0.0031486148392 0 0 0.037309357459 
0 0 0.03174559261 0 0 -0.06183193911 0 0 -0.065426470873 
0 0 -0.05587832335 0 0 -0.062994009881 0 0 0.010315608115 
0 0 0.008670982088 0 0 0.01257007506 0 0 -0.02999284492 
0 0 -0.04333032222 0 0 -0.027039024838 0 0 -0.031587357771 
0 0 -0.030143249186 0 0 -0.045745975438 0 0 -0.044794603131 
0 0 -0.026703180773 0 0 -0.055555837262 0 0 0.039742301216 
0 0 0.033785635512 0 0 -0.04815946601 0 0 -0.043294720066 
0 0 0.10436047224 0 0 0.016516456636 0 0 -0.037625537657 
0 0 0.10150647029 0 0 -0.055772003016 0 0 -0.03802551405 
0 0 0.046438250846 0 0 -0.030325634458 0 0 -0.046725775799 
0 0 -0.042685142894 0 0 -0.03440310733 0 0 -0.046896069893 
0 0 -0.046150235701 0 0 -0.045249106224 0 0 -0.027572967861 
0 0 -0.038384870781 0 0 0.041251272487 0 0 0.059108496327 
0 0 -0.023838563287 0 0 -0.036951914824 0 0 -0.041000897951 
0 0 -0.077193619304 0 0 0.034595316595 0 0 0.084192765594 
0 0 -0.047198547394 0 0 0.039429431138 0 0 0.030947632015 
0 0 0.021595478432 0 0 0.07714926587 0 0 -0.035408529956 
0 0 -0.047000743066 0 0 -0.017310656959 0 0 -0.00072666717763 
0 0 0.0080850386081 0 0 -0.043824149975 0 0 0.011243905421 
0 0 0.081239873702 0 0 0.056649565953 0 0 -0.012802262555 
0 0 -0.010054039633 0 0 -0.026613991768 0 0 0.014071218908 
0 0 -0.021219069236 0 0 0.058672354017 0 0 0.0071583546137 
0 0 -0.013831998679 0 0 0.0039370814651 0 0 -0.03154776441 
0 0 -0.0032695865076 0 0 -0.018345818096 0 0 -0.5957491875 
0 0 -0.0010417506256 0 0 -0.06150434997 0 0 -0.015189074109 
0 0 0.0055237878205 0 0 0.065812775645 0 0 -0.029300535899 
0 0 -0.0072614897585 0 0 -0.01861012013 0 0 0.0055865098877 
0 0 0.0090099677708 0 0 -0.0013429318224 0 0 -0.0045949486864 
0 0 0.017908689747 0 0 0.018458087867 0 0 0.011330231142 
0 0 -0.016375834741 0 0 -0.029796893364 0 0 0.051156956281 
0 0 0.0038892997498 0 0 -0.012922340866 0 0 0.054570885163 
0 0 0.17555413992 0 0 -0.011239039245 0 0 -0.023134183123 
0 0 -0.0109096747 0 0 -0.025440169254 0 0 -0.0037941074492 
0 0 -0.016555072425 0 0 -0.034138044197 0 0 -0.025634697116 
0 0 -0.028585142622 0 0 -0.033340804232 0 0 0.021978633907 
0 0 -0.5957491875 0 0 0.002842854575 0 0 0.0080269675502 
0 0 0.0035061184231 0 0 -0.064672768368 0 0 -0.019776233811 
0 0 -0.034101677823 0 0 -0.019870990923 0 0 -0.0099465149488 
0 0 0.017430019 0 0 -0.01167574664 0 0 -0.022742454133 
0 0 -0.02131484143 0 0 -0.00078934711834 0 0 -0.014831732093 
0 0 0.067937359652 0 0 0.016151133342 0 0 0.020407903947 
0 0 0.051321251334 0 0 0.039007710959 0 0 0.023296722165 
0 0 -0.012023336741 0 0 0.051789952664 0 0 0.062419656469 
0 0 0.0786990027 0 0 0.048547014818 0 0 0.04486365276 
0 0 0.0047076951778 0 0 0.076935990883 0 0 0.067891334608 
0 0 0.028890150294 0 0 0.022482834049 0 0 0.017022246885 
0 0 0.057592349529 0 0 -0.035892623863 0 0 0.010995971871 
0 0 0.074649071913 0 0 0.0094576434799 0 0 0.038675319371 
0 0 -0.021891428516 0 0 0.028574849481 0 0 0.070051185353 
0 0 -0.050584786611 0 0 0.0343849779 0 0 0.024402038579 
0 0 0.011842606125 0 0 -0.0079615162825 0 0 0.059467821822 
0 0 0.082468089768 0 0 0.011582265131 0 0 0.013624663204 
0 0 0.00025410065218 0 0 0.021110479199 0 0 0.021497971584 
0 0 0.053448869986 0 0 0.064431378913 0 0 0.013661014577 
0 0 0.067284317951 0 0 0.039488498822 0 0 0.0097392914155 
0 0 0.037664908569 0 0 0.063670910948 0 0 0.05668351482 
0 0 0.026523379886 0 0 0.026712501302 0 0 0.070602260647 
0 0 0.048657053619 0 0 -0.030977460247 0 0 0.05381966802 
0 0 0.072449854982 0 0 0.013691208192 0 0 0.07458682451 
0 0 0.07748265393 0 0 0.033082989658 0 0 0.021388034858 
0 0 0.014095494014 0 0 0.0271175969 0 0 0.0098589731039 
0 0 0.069204879511 0 0 0.055173593272 0 0 0.070498435473 
0 0 0.0051110908723 0 0 0.04632925621 0 0 0.037479453068 
0 0 0.02597378792 0 0 0.061183700734 0 0 -0.60549918749 
0 0 0.026520902 0 0 0.061469189102 0 0 0.042694281559 
0 0 0.025671647332 0 0 0.039503510313 0 0 0.013891074395 
0 0 0.050019488951 0 0 0.045950159567 0 0 0.04105862228 
0 0 0.047422585433 0 0 0.044376169186 0 0 0.036436722759 
0 0 0.079627713012 0 0 0.0079479169616 0 0 0.053301092934 
0 0 0.003516611681 0 0 0.011771843845 0 0 0.059530933588 
0 0 0.029891376806 0 0 0.042071446961 0 0 0.062222942695 
0 0 0.070593097796 0 0 0.064335395982 0 0 0.073150230145 
0 0 0.059604423577 0 0 0.036104866611 0 0 0.034855541666 
0 0 0.014668801669 0 0 0.0060212849365 0 0 0.054426970095 
0 0 0.071620669947 0 0 0.069368104285 0 0 0.025071142766 
0 0 0.058204034031 0 0 0.0397904619 0 0 0.049774060163 
0 0 0.020044241068 0 0 0.0079712659104 0 0 0.047353207205 
0 0 0.043777975991 0 0 0.0257794822 0 0 0.077571417668 
0 0 0.07868510339 0 0 0.030267486388 0 0 0.062826280409 
0 0 0.023076181367 0 0 0.042201145812 0 0 0.0033707618234 
0 0 0.081240553033 0 0 0.020897772055 0 0 0.083164472105 
0 0 0.056428564471 0 0 0.083438114278 0 0 0.014822631488 
0 0 0.036000292957 0 0 0.07928608082 0 0 0.093003965079 
0 0 0.065931197274 0 0 0.082575477741 0 0 0.037942757493 
0 0 0.042626486542 0 0 0.10543890482 0 0 -0.047227363113 
0 0 0.091781345079 0 0 0.065995661141 0 0 0.064416185878 
0 0 0.03216563999 0 0 0.036724228357 0 0 0.025538615742 
0 0 0.097174545498 0 0 0.10912966104 0 0 0.10574085941 
0 0 0.067701173882 0 0 0.073548403143 0 0 -0.01489241923 
0 0 0.09724267595 0 0 -0.60224918749 0 0 0.075341592173 
0 0 -0.61199918749 0 0 0.0071742644256 0 0 0.0765341462 
0 0 -0.60874918749 0 0 0.006444465046 0 0 -0.5989991875 
0 0 -0.5989991875 0 0 -0.5957491875 0 0 0.12650495422 

f 3 648 double
0 0 -8.9019973083e-09 0 0 -1.7425367252e-10 0 0 -1.7425367252e-10 
0 0 -1.7425367252e-10 0 0 -1.7425367252e-10 0 0 -1.7425367252e-10 
0 0 -1.7425367252e-10 0 0 -1.7425367252e-10 0 0 -1.7425367252e-10 
0 0 -1.7425367252e-10 0 0 -1.7425367252e-10 0 0 -1.7425367252e-10 
0 0 -1.7425367252e-10 0 0 -1.7425367252e-10 0 0 -1.7425367252e-10 
0 0 -1.7425367252e-10 0 0 -1.7425367252e-10 0 0 -1.7425367252e-10 
0 0 -1.7425367252e-10 0 0 -1.7425367252e-10 0 0 -1.7425367252e-10 
0 0 -1.7425367252e-10 0 0 -1.7425367252e-10 0 0 -1.7425367252e-10 
0 0 -1.7425367252e-10 0 0 -1.7425367252e-10 0 0 -1.7425367252e-10 
0 0 -1.7425367252e-10 0 0 -1.7425367252e-10 0 0 -1.7425367252e-10 
0 0 -1.7425367252e-10 0 0 -1.7425367252e-10 0 0 -1.7425367252e-10 
0 0 -1.7425367252e-10 0 0 -1.7425367252e-10 0 0 -1.7425367252e-10 
0 0 -1.7425367252e-10 0 0 -1.7425367252e-10 0 0 -1.7425367252e-10 
0 0 -1.7425367252e-10 0 0 -1.7425367252e-10 0 0 -1.7425367252e-10 
0 0 -1.7425367252e-10 0 0 -1.7425367252e-10 0 0 -1.7425367252e-10 
0 0 -1.7425367252e-10 0 0 -1.7425367252e-10 0 0 -1.7425367252e-10 
0 0 -1.7425367252e-10 0 0 -1.7425367252e-10 0 0 -1.7425367252e-10 
0 0 -1.7425367252e-10 0 0 -1.7425367252e-10 0 0 -1.7425367252e-10 
0 0 -1.7425367252e-10 0 0 -1.7425367252e-10 0 0 -1.7425367252e-10 
0 0 -1.7425367252e-10 0 0 -1.7425367252e-10 0 0 -1.7425367252e-10 
0 0 -1.7425367252e-10 0 0 -1.7425367252e-10 0 0 -1.7425367252e-10 
0 0 -1.7425367252e-10 0 0 -1.7425367252e-10 0 0 -1.7425367252e-10 
0 0 -1.7425367252e-10 0 0 -1.7425367252e-10 0 0 -1.7425367252e-10 
0 0 -1.7425367252e-10 0 0 -1.7425367252e-10 0 0 -1.7425367252e-10 
0 0 -1.7425367252e-10 0 0 -1.7425367252e-10 0 0 -1.7425367252e-10 
0 0 -1.7425367252e-10 0 0 -1.7425367252e-10 0 0 -1.7425367252e-10 
0 0 -1.7425367252e-10 0 0 -1.7425367252e-10 0 0 -1.7425367252e-10 
0 0 -1.7425367252e-10 0 0 -1.7425367252e-10 0 0 -1.7425367252e-10 
0 0 -1.7425367252e-10 0 0 -1.7425367252e-10 0 0 -1.7425367252e-10 
0 0 -1.7425367252e-10 0 0 -1.7425367252e-10 0 0 -1.7425367252e-10 
0 0 -1.7425367252e-10 0 0 -1.7425367252e-10 0 0 -1.7425367252e-10 
0 0 -1.7425367252e-10 0 0 -1.7425367252e-10 0 0 -1.7425367252e-10 
0 0 -1.7425367252e-10 0 0 -1.7425367252e-10 0 0 -1.7425367252e-10 
0 0 -1.7425367252e-10 0 0 -1.7425367252e-10 0 0 -1.7425367252e-10 
0 0 -1.7425367252e-10 0 0 -1.7425367252e-10 0 0 -1.7425367252e-10 
0 0 -1.7425367252e-10 0 0 -1.7425367252e-10 0 0 -1.7425367252e-10 
0 0 -1.7425367252e-10 0 0 -1.7425367252e-10 0 0 -1.7425367252e-10 
0 0 -1.7425367252e-10 0 0 -1.7425367252e-10 0 0 -1.7425367252e-10 
0 0 -1.7425367252e-10 0 0 -1.7425367252e-10 0 0 -1.7425367252e-10 
0 0 -1.7425367252e-10 0 0 -1.7425367252e-10 0 0 -1.7425367252e-10 
0 0 -1.7425367252e-10 0 0 -1.7425367252e-10 0 0 -1.7425367252e-10 
0 0 -1.7425367252e-10 0 0 -1.7425367252e-10 0 0 -1.7425367252e-10 
0 0 -1.7425367252e-10 0 0 -1.7425367252e-10 0 0 -1.7425367252e-10 
0 0 -1.7425367252e-10 0 0 -1.7425367252e-10 0 0 -1.7425367252e-10 
0 0 -1.7425367252e-10 0 0 -1.7425367252e-10 0 0 -1.7425367252e-10 
0 0 -1.7425367252e-10 0 0 -1.7425367252e-10 0 0 -1.7425367252e-10 
0 0 -1.7425367252e-10 0 0 -1.7425367252e-10 0 0 -1.7425367252e-10 
0 0 -1.7425367252e-10 0 0 -1.7425367252e-10 0 0 -1.7425367252e-10 
0 0 -1.7425367252e-10 0 0 -1.7425367252e-10 0 0 -1.7425367252e-10 
0 0 -1.7425367252e-10 0 0 -1.7425367252e-10 0 0 -1.7425367252e-10 
0 0 -1.7425367252e-10 0 0 -1.7425367252e-10 0 0 -1.7425367252e-10 
0 0 -1.7425367252e-10 0 0 -1.7425367252e-10 0 0 -1.7425367252e-10 
0 0 -1.7425367252e-10 0 0 -1.7425367252e-10 0 0 -1.7425367252e-10 
0 0 -1.7425367252e-10 0 0 -1.7425367252e-10 0 0 -1.7425367252e-10 
0 0 -1.7425367252e-10 0 0 -1.7425367252e-10 0 0 -1.7425367252e-10 
0 0 -1.7425367252e-10 0 0 -1.7425367252e-10 0 0 -1.7425367252e-10 
0 0 -1.7425367252e-10 0 0 -1.7425367252e-10 0 0 -1.7425367252e-10 
0 0 -1.7425367252e-10 0 0 -1.7425367252e-10 0 0 -1.7425367252e-10 
0 0 -1.7425367252e-10 0 0 -1.7425367252e-10 0 0 -1.7425367252e-10 
0 0 -1.7425367252e-10 0 0 -1.7425367252e-10 0 0 -1.7425367252e-10 
0 0 -1.7425367252e-10 0 0 -1.7425367252e-10 0 0 -1.7425367252e-10 
0 0 -1.7425367252e-10 0 0 -1.7425367252e-10 0 0 -1.7425367252e-10 
0 0 -1.7425367252e-10 0 0 -1.7425367252e-10 0 0 -1.7425367252e-10 
0 0 -1.7425367252e-10 0 0 -1.7425367252e-10 0 0 -1.7425367252e-10 
0 0 -1.7425367252e-10 0 0 -1.7425367252e-10 0 0 -1.7425367252e-10 
0 0 -1.7425367252e-10 0 0 -1.7425367252e-10 0 0 -1.7425367252e-10 
0 0 -1.7425367252e-10 0 0 -1.7425367252e-10 0 0 -1.7425367252e-10 
0 0 -1.7425367252e-10 0 0 -1.7425367252e-10 0 0 -1.7425367252e-10 
0 0 -1.7425367252e-10 0 0 -1.7425367252e-10 0 0 -1.7425367252e-10 
0 0 -1.7425367252e-10 0 0 -1.7425367252e-10 0 0 -1.7425367252e-10 
0 0 -1.7425367252e-10 0 0 -1.7425367252e-10 0 0 -1.7425367252e-10 
0 0 -1.7425367252e-10 0 0 -1.7425367252e-10 0 0 -1.7425367252e-10 
0 0 -1.7425367252e-10 0 0 -1.7425367252e-10 0 0 -1.7425367252e-10 
0 0 -1.7425367252e-10 0 0 -1.7425367252e-10 0 0 -1.7425367252e-10 
0 0 -1.7425367252e-10 0 0 -1.7425367252e-10 0 0 -1.7425367252e-10 
0 0 -8.9019973083e-09 0 0 -1.7425367252e-10 0 0 -1.7425367252e-10 
0 0 -1.7425367252e-10 0 0 -1.7425367252e-10 0 0 -1.7425367252e-10 
0 0 -1.7425367252e-10 0 0 -1.7425367252e-10 0 0 -1.7425367252e-10 
0 0 -1.7425367252e-10 0 0 -1.7425367252e-10 0 0 -1.7425367252e-10 
0 0 -1.7425367252e-10 0 0 -1.7425367252e-10 0 0 -1.7425367252e-10 
0 0 -1.7425367252e-10 0 0 -1.7425367252e-10 0 0 -1.7425367252e-10 
0 0 -1.7425367252e-10 0 0 -1.7425367252e-10 0 0 -1.7425367252e-10 
0 0 -1.7425367252e-10 0 0 -1.7425367252e-10 0 0 -1.7425367252e-10 
0 0 -1.7425367252e-10 0 0 -1.7425367252e-10 0 0 -1.7425367252e-10 
0 0 -1.7425367252e-10 0 0 -1.7425367252e-10 0 0 -1.7425367252e-10 
0 0 -1.7425367252e-10 0 0 -1.7425367252e-10 0 0 -1.7425367252e-10 
0 0 -1.7425367252e-10 0 0 -1.7425367252e-10 0 0 -1.7425367252e-10 
0 0 -1.7425367252e-10 0 0 -1.7425367252e-10 0 0 -1.7425367252e-10 
0 0 -1.7425367252e-10 0 0 -1.7425367252e-10 0 0 -1.7425367252e-10 
0 0 -1.7425367252e-10 0 0 -1.7425367252e-10 0 0 -1.7425367252e-10 
0 0 -1.7425367252e-10 0 0 -1.7425367252e-10 0 0 -1.7425367252e-10 
0 0 -1.7425367252e-10 0 0 -1.7425367252e-10 0 0 -1.7425367252e-10 
0 0 -1.7425367252e-10 0 0 -1.7425367252e-10 0 0 -1.7425367252e-10 
0 0 -1.7425367252e-10 0 0 -1.7425367252e-10 0 0 -1.7425367252e-10 
0 0 -1.7425367252e-10 0 0 -1.7425367252e-10 0 0 -1.7425367252e-10 
0 0 -1.7425367252e-10 0 0 -1.7425367252e-10 0 0 -1.7425367252e-10 
0 0 -1.7425367252e-10 0 0 -1.7425367252e-10 0 0 -1.7425367252e-10 
0 0 -1.7425367252e-10 0 0 -1.7425367252e-10 0 0 -1.7425367252e-10 
0 0 -1.7425367252e-10 0 0 -1.7425367252e-10 0 0 -1.7425367252e-10 
0 0 -1.7425367252e-10 0 0 -1.7425367252e-10 0 0 -1.7425367252e-10 
0 0 -1.7425367252e-10 0 0 -1.7425367252e-10 0 0 -1.7425367252e-10 
0 0 -1.7425367252e-10 0 0 -1.7425367252e-10 0 0 -1.7425367252e-10 
0 0 -1.7425367252e-10 0 0 -1.7425367252e-10 0 0 -1.7425367252e-10 
0 0 -1.7425367252e-10 0 0 -1.7425367252e-10 0 0 -1.7425367252e-10 
0 0 -1.7425367252e-10 0 0 -1.7425367252e-10 0 0 -1.7425367252e-10 
0 0 -1.7425367252e-10 0 0 -1.7425367252e-10 0 0 -1.7425367252e-10 
0 0 -1.7425367252e-10 0 0 -1.7425367252e-10 0 0 -1.7425367252e-10 
0 0 -1.7425367252e-10 0 0 -1.7425367252e-10 0 0 -1.7425367252e-10 
0 0 -1.7425367252e-10 0 0 -1.7425367252e-10 0 0 -1.7425367252e-10 
0 0 -1.7425367252e-10 0 0 -1.7425367252e-10 0 0 -1.7425367252e-10 
0 0 -1.7425367252e-10 0 0 -8.9019973083e-09 0 0 -1.7425367252e-10 
0 0 -1.7425367252e-10 0 0 -1.7425367252e-10 0 0 -1.7425367252e-10 
0 0 -1.7425367252e-10 0 0 -1.7425367252e-10 0 0 -1.7425367252e-10 
0 0 -1.7425367252e-10 0 0 -1.7425367252e-10 0 0 -1.7425367252e-10 
0 0 -1.7425367252e-10 0 0 -1.7425367252e-10 0 0 -1.7425367252e-10 
0 0 -1.7425367252e-10 0 0 -1.7425367252e-10 0 0 -1.7425367252e-10 
0 0 -1.7425367252e-10 0 0 -1.7425367252e-10 0 0 -1.7425367252e-10 
0 0 -1.7425367252e-10 0 0 -1.7425367252e-10 0 0 -1.7425367252e-10 
0 0 -1.7425367252e-10 0 0 -8.9019973083e-09 0 0 -1.7425367252e-10 
0 0 -1.7425367252e-10 0 0 -1.7425367252e-10 0 0 -1.7425367252e-10 
0 0 -1.7425367252e-10 0 0 -1.7425367252e-10 0 0 -1.7425367252e-10 
0 0 -1.7425367252e-10 0 0 -1.7425367252e-10 0 0 -1.7425367252e-10 
0 0 -1.7425367252e-10 0 0 -1.7425367252e-10 0 0 -1.7425367252e-10 
0 0 -1.7425367252e-10 0 0 -1.7425367252e-10 0 0 -1.7425367252e-10 
0 0 -1.7425367252e-10 0 0 -1.7425367252e-10 0 0 -1.7425367252e-10 
0 0 -1.7425367252e-10 0 0 -1.7425367252e-10 0 0 -1.7425367252e-10 
0 0 -1.7425367252e-10 0 0 -1.7425367252e-10 0 0 -1.7425367252e-10 
0 0 -1.7425367252e-10 0 0 -1.7425367252e-10 0 0 -1.7425367252e-10 
0 0 -1.7425367252e-10 0 0 -1.7425367252e-10 0 0 -1.7425367252e-10 
0 0 -1.7425367252e-10 0 0 -1.7425367252e-10 0 0 -1.7425367252e-10 
0 0 -1.7425367252e-10 0 0 -1.7425367252e-10 0 0 -1.7425367252e-10 
0 0 -1.7425367252e-10 0 0 -1.7425367252e-10 0 0 -1.7425367252e-10 
0 0 -1.7425367252e-10 0 0 -1.7425367252e-10 0 0 -1.7425367252e-10 
0 0 -1.7425367252e-10 0 0 -1.7425367252e-10 0 0 -1.7425367252e-10 
0 0 -1.7425367252e-10 0 0 -1.7425367252e-10 0 0 -1.7425367252e-10 
0 0 -1.7425367252e-10 0 0 -1.7425367252e-10 0 0 -1.7425367252e-10 
0 0 -1.7425367252e-10 0 0 -1.7425367252e-10 0 0 -1.7425367252e-10 
0 0 -8.9019973083e-09 0 0 -1.7425367252e-10 0 0 -1.7425367252e-10 
0 0 -1.7425367252e-10 0 0 -1.7425367252e-10 0 0 -1.7425367252e-10 
0 0 -1.7425367252e-10 0 0 -1.7425367252e-10 0 0 -1.7425367252e-10 
0 0 -1.7425367252e-10 0 0 -1.7425367252e-10 0 0 -1.7425367252e-10 
0 0 -1.7425367252e-10 0 0 -1.7425367252e-10 0 0 -1.7425367252e-10 
0 0 -1.7425367252e-10 0 0 -1.7425367252e-10 0 0 -1.7425367252e-10 
0 0 -1.7425367252e-10 0 0 -1.7425367252e-10 0 0 -1.7425367252e-10 
0 0 -1.7425367252e-10 0 0 -1.7425367252e-10 0 0 -1.7425367252e-10 
0 0 -1.7425367252e-10 0 0 -1.7425367252e-10 0 0 -1.7425367252e-10 
0 0 -1.7425367252e-10 0 0 -1.7425367252e-10 0 0 -1.7425367252e-10 
0 0 -1.7425367252e-10 0 0 -8.9019973083e-09 0 0 -1.7425367252e-10 
0 0 -1.7425367252e-10 0 0 -1.7425367252e-10 0 0 -1.7425367252e-10 
0 0 -1.7425367252e-10 0 0 -1.7425367252e-10 0 0 -1.7425367252e-10 
0 0 -1.7425367252e-10 0 0 -1.7425367252e-10 0 0 -1.7425367252e-10 
0 0 -1.7425367252e-10 0 0 -1.7425367252e-10 0 0 -1.7425367252e-10 
0 0 -1.7425367252e-10 0 0 -1.7425367252e-10 0 0 -1.7425367252e-10 
0 0 -1.7425367252e-10 0 0 -1.7425367252e-10 0 0 -1.7425367252e-10 
0 0 -8.9019973083e-09 0 0 -1.7425367252e-10 0 0 -1.7425367252e-10 
0 0 -1.7425367252e-10 0 0 -1.7425367252e-10 0 0 -1.7425367252e-10 
0 0 -1.7425367252e-10 0 0 -1.7425367252e-10 0 0 -1.7425367252e-10 
0 0 -1.7425367252e-10 0 0 -1.7425367252e-10 0 0 -1.7425367252e-10 
0 0 -1.7425367252e-10 0 0 -1.7425367252e-10 0 0 -1.7425367252e-10 
0 0 -1.7425367252e-10 0 0 -8.9019973083e-09 0 0 -1.7425367252e-10 
0 0 -1.7425367252e-10 0 0 -1.7425367252e-10 0 0 -1.7425367252e-10 
0 0 -1.7425367252e-10 0 0 -1.7425367252e-10 0 0 -1.7425367252e-10 
0 0 -1.7425367252e-10 0 0 -1.7425367252e-10 0 0 -1.7425367252e-10 
0 0 -1.7425367252e-10 0 0 -1.7425367252e-10 0 0 -1.7425367252e-10 
0 0 -1.7425367252e-10 0 0 -1.7425367252e-10 0 0 -1.7425367252e-10 
0 0 -1.7425367252e-10 0 0 -1.7425367252e-10 0 0 -1.7425367252e-10 
0 0 -1.7425367252e-10 0 0 -1.7425367252e-10 0 0 -1.7425367252e-10 
0 0 -1.7425367252e-10 0 0 -1.7425367252e-10 0 0 -1.7425367252e-10 
0 0 -1.7425367252e-10 0 0 -1.7425367252e-10 0 0 -1.7425367252e-10 
0 0 -1.7425367252e-10 0 0 -8.9019973083e-09 0 0 -1.7425367252e-10 
0 0 -1.7425367252e-10 0 0 -1.7425367252e-10 0 0 -1.7425367252e-10 
0 0 -1.7425367252e-10 0 0 -1.7425367252e-10 0 0 -1.7425367252e-10 
0 0 -8.9019973083e-09 0 0 -1.7425367252e-10 0 0 -1.7425367252e-10 
0 0 -1.7425367252e-10 0 0 -1.7425367252e-10 0 0 -1.7425367252e-10 
0 0 -1.7425367252e-10 0 0 -1.7425367252e-10 0 0 -1.7425367252e-10 
0 0 -1.7425367252e-10 0 0 -1.7425367252e-10 0 0 -1.7425367252e-10 
0 0 -1.7425367252e-10 0 0 -1.7425367252e-10 0 0 -1.7425367252e-10 
0 0 -1.7425367252e-10 0 0 -1.7425367252e-10 0 0 -1.7425367252e-10 
0 0 -1.7425367252e-10 0 0 -1.7425367252e-10 0 0 -1.7425367252e-10 
0 0 -1.7425367252e-10 0 0 -1.7425367252e-10 0 0 -1.7425367252e-10 
0 0 -1.7425367252e-10 0 0 -8.9019973083e-09 0 0 -1.7425367252e-10 
0 0 -1.7425367252e-10 0 0 -1.7425367252e-10 0 0 -1.7425367252e-10 
0 0 -1.7425367252e-10 0 0 -1.7425367252e-10 0 0 -1.7425367252e-10 
0 0 -1.7425367252e-10 0 0 -1.7425367252e-10 0 0 -1.7425367252e-10 
0 0 -1.7425367252e-10 0 0 -1.7425367252e-10 0 0 -1.7425367252e-10 
0 0 -1.7425367252e-10 0 0 -1.7425367252e-10 0 0 -1.7425367252e-10 
0 0 -1.7425367252e-10 0 0 -1.7425367252e-10 0 0 -1.7425367252e-10 
0 0 -1.7425367252e-10 0 0 -1.7425367252e-10 0 0 -1.7425367252e-10 
0 0 -1.7425367252e-10 0 0 -1.7425367252e-10 0 0 -1.7425367252e-10 
0 0 -1.7425367252e-10 0 0 -1.7425367252e-10 0 0 -1.7425367252e-10 
0 0 -1.7425367252e-10 0 0 -1.7425367252e-10 0 0 -1.7425367252e-10 
0 0 -1.7425367252e-10 0 0 -1.7425367252e-10 0 0 -1.7425367252e-10 
0 0 -1.7425367252e-10 0 0 -1.7425367252e-10 0 0 -1.7425367252e-10 
0 0 -1.7425367252e-10 0 0 -1.7425367252e-10 0 0 -1.7425367252e-10 
0 0 -1.7425367252e-10 0 0 -1.7425367252e-10 0 0 -1.7425367252e-10 
0 0 -1.7425367252e-10 0 0 -1.7425367252e-10 0 0 -1.7425367252e-10 
0 0 -1.7425367252e-10 0 0 -1.7425367252e-10 0 0 -1.7425367252e-10 
0 0 -1.7425367252e-10 0 0 -1.7425367252e-10 0 0 -1.7425367252e-10 
0 0 -1.7425367252e-10 0 0 -1.7425367252e-10 0 0 -1.7425367252e-10 
0 0 -1.7425367252e-10 0 0 -1.7425367252e-10 0 0 -1.7425367252e-10 
0 0 -1.7425367252e-10 0 0 -1.7425367252e-10 0 0 -1.7425367252e-10 
0 0 -1.7425367252e-10 0 0 -1.7425367252e-10 0 0 -1.7425367252e-10 
0 0 -1.7425367252e-10 0 0 -1.7425367252e-10 0 0 -1.7425367252e-10 
0 0 -1.7425367252e-10 0 0 -1.7425367252e-10 0 0 -1.7425367252e-10 
0 0 -1.7425367252e-10 0 0 -1.7425367252e-10 0 0 -1.7425367252e-10 
0 0 -1.7425367252e-10 0 0 -1.7425367252e-10 0 0 -1.7425367252e-10 
0 0 -1.7425367252e-10 0 0 -1.7425367252e-10 0 0 -1.7425367252e-10 
0 0 -1.7425367252e-10 0 0 -8.9019973083e-09 0 0 -8.9019973083e-09 
0 0 -1.7425367252e-10 0 0 -1.7425367252e-10 0 0 -1.7425367252e-10 
0 0 -1.7425367252e-10 0 0 -1.7425367252e-10 0 0 -1.7425367252e-10 
0 0 -1.7425367252e-10 0 0 -1.7425367252e-10 0 0 -1.7425367252e-10 
0 0 -1.7425367252e-10 0 0 -1.7425367252e-10 0 0 -8.9019973083e-09 
0 0 -1.7425367252e-10 0 0 -1.7425367252e-10 0 0 -8.9019973083e-09 
0 0 -1.7425367252e-10 0 0 -8.9019973083e-09 0 0 -8.9019973083e-09 
0 0 -1.7425367252e-10 0 0 -6.8918688838e-08 0 0 -1.7425367252e-10 
0 0 -1.7425367252e-10 0 0 -1.7425367252e-10 0 0 -5.3297119368e-07 

radius 1 648 double
7.5e-05 2e-05 2e-05 2e-05 2e-05 2e-05 2e-05 2e-05 2e-05 
2e-05 2e-05 2e-05 2e-05 2e-05 2e-05 2e-05 2e-05 2e-05 
2e-05 2e-05 2e-05 2e-05 2e-05 2e-05 2e-05 2e-05 2e-05 
2e-05 2e-05 2e-05 2e-05 2e-05 2e-05 2e-05 2e-05 2e-05 
2e-05 2e-05 2e-05 2e-05 2e-05 2e-05 2e-05 2e-05 2e-05 
2e-05 2e-05 2e-05 2e-05 2e-05 2e-05 2e-05 2e-05 2e-05 
2e-05 2e-05 2e-05 2e-05 2e-05 2e-05 2e-05 2e-05 2e-05 
2e-05 2e-05 2e-05 2e-05 2e-05 2e-05 2e-05 2e-05 2e-05 
2e-05 2e-05 2e-05 2e-05 2e-05 2e-05 2e-05 2e-05 2e-05 
2e-05 2e-05 2e-05 2e-05 2e-05 2e-05 2e-05 2e-05 2e-05 
2e-05 2e-05 2e-05 2e-05 2e-05 2e-05 2e-05 2e-05 2e-05 
2e-05 2e-05 2e-05 2e-05 2e-05 2e-05 2e-05 2e-05 2e-05 
2e-05 2e-05 2e-05 2e-05 2e-05 2e-05 2e-05 2e-05 2e-05 
2e-05 2e-05 2e-05 2e-05 2e-05 2e-05 2e-05 2e-05 2e-05 
2e-05 2e-05 2e-05 2e-05 2e-05 2e-05 2e-05 2e-05 2e-05 
2e-05 2e-05 2e-05 2e-05 2e-05 2e-05 2e-05 2e-05 2e-05 
2e-05 2e-05 2e-05 2e-05 2e-05 2e-05 2e-05 2e-05 2e-05 
2e-05 2e-05 2e-05 2e-05 2e-05 2e-05 2e-05 2e-05 2e-05 
2e-05 2e-05 2e-05 2e-05 2e-05 2e-05 2e-05 2e-05 2e-05 
2e-05 2e-05 2e-05 2e-05 2e-05 2e-05 2e-05 2e-05 2e-05 
2e-05 2e-05 2e-05 2e-05 2e-05 2e-05 2e-05 2e-05 2e-05 
2e-05 2e-05 2e-05 2e-05 2e-05 2e-05 2e-05 2e-05 2e-05 
2e-05 2e-05 2e-05 2e-05 2e-05 2e-05 2e-05 2e-05 2e-05 
2e-05 2e-05 2e-05 2e-05 2e-05 2e-05 2e-05 2e-05 2e-05 
2e-05 2e-05 2e-05 2e-05 2e-05 2e-05 2e-05 2e-05 2e-05 
7.5e-05 2e-05 2e-05 2e-05 2e-05 2e-05 2e-05 2e-05 2e-05 
2e-05 2e-05 2e-05 2e-05 2e-05 2e-05 2e-05 2e-05 2e-05 
2e-05 2e-05 2e-05 2e-05 2e-05 2e-05 2e-05 2e-05 2e-05 
2e-05 2e-05 2e-05 2e-05 2e-05 2e-05 2e-05 2e-05 2e-05 
2e-05 2e-05 2e-05 2e-05 2e-05 2e-05 2e-05 2e-05 2e-05 
2e-05 2e-05 2e-05 2e-05 2e-05 2e-05 2e-05 2e-05 2e-05 
2e-05 2e-05 2e-05 2e-05 2e-05 2e-05 2e-05 2e-05 2e-05 
2e-05 2e-05 2e-05 2e-05 2e-05 2e-05 2e-05 2e-05 2e-05 
2e-05 2e-05 2e-05 2e-05 2e-05 2e-05 2e-05 2e-05 2e-05 
2e-05 2e-05 2e-05 2e-05 2e-05 2e-05 2e-05 2e-05 2e-05 
2e-05 2e-05 2e-05 2e-05 2e-05 2e-05 2e-05 2e-05 2e-05 
2e-05 2e-05 2e-05 2e-05 2e-05 2e-05 2e-05 7.5e-05 2e-05 
2e-05 2e-05 2e-05 2e-05 2e-05 2e-05 2e-05 2e-05 2e-05 
2e-05 2e-05 2e-05 2e-05 2e-05 2e-05 2e-05 2e-05 2e-05 
2e-05 2e-05 2e-05 2e-05 7.5e-05 2e-05 2e-05 2e-05 2e-05 
2e-05 2e-05 2e-05 2e-05 2e-05 2e-05 2e-05 2e-05 2e-05 
2e-05 2e-05 2e-05 2e-05 2e-05 2e-05 2e-05 2e-05 2e-05 
2e-05 2e-05 2e-05 2e-05 2e-05 2e-05 2e-05 2e-05 2e-05 
2e-05 2e-05 2e-05 2e-05 2e-05 2e-05 2e-05 2e-05 2e-05 
2e-05 2e-05 2e-05 2e-05 2e-05 2e-05 2e-05 2e-05 2e-05 
2e-05 2e-05 2e-05 2e-05 2e-05 2e-05 7.5e-05 2e-05 2e-05 
2e-05 2e-05 2e-05 2e-05 2e-05 2e-05 2e-05 2e-05 2e-05 
2e-05 2e-05 2e-05 2e-05 2e-05 2e-05 2e-05 2e-05 2e-05 
2e-05 2e-05 2e-05 2e-05 2e-05 2e-05 2e-05 2e-05 2e-05 
2e-05 7.5e-05 2e-05 2e-05 2e-05 2e-05 2e-05 2e-05 2e-05 
2e-05 2e-05 2e-05 2e-05 2e-05 2e-05 2e-05 2e-05 2e-05 
2e-05 2e-05 2e-05 7.5e-05 2e-05 2e-05 2e-05 2e-05 2e-05 
2e-05 2e-05 2e-05 2e-05 2e-05 2e-05 2e-05 2e-05 2e-05 
2e-05 7.5e-05 2e-05 2e-05 2e-05 2e-05 2e-05 2e-05 2e-05 
2e-05 2e-05 2e-05 2e-05 2e-05 2e-05 2e-05 2e-05 2e-05 
2e-05 2e-05 2e-05 2e-05 2e-05 2e-05 2e-05 2e-05 2e-05 
2e-05 2e-05 2e-05 2e-05 7.5e-05 2e-05 2e-05 2e-05 2e-05 
2e-05 2e-05 2e-05 7.5e-05 2e-05 2e-05 2e-05 2e-05 2e-05 
2e-05 2e-05 2e-05 2e-05 2e-05 2e-05 2e-05 2e-05 2e-05 
2e-05 2e-05 2e-05 2e-05 2e-05 2e-05 2e-05 2e-05 2e-05 
2e-05 7.5e-05 2e-05 2e-05 2e-05 2e-05 2e-05 2e-05 2e-05 
2e-05 2e-05 2e-05 2e-05 2e-05 2e-05 2e-05 2e-05 2e-05 
2e-05 2e-05 2e-05 2e-05 2e-05 2e-05 2e-05 2e-05 2e-05 
2e-05 2e-05 2e-05 2e-05 2e-05 2e-05 2e-05 2e-05 2e-05 
2e-05 2e-05 2e-05 2e-05 2e-05 2e-05 2e-05 2e-05 2e-05 
2e-05 2e-05 2e-05 2e-05 2e-05 2e-05 2e-05 2e-05 2e-05 
2e-05 2e-05 2e-05 2e-05 2e-05 2e-05 2e-05 2e-05 2e-05 
2e-05 2e-05 2e-05 2e-05 2e-05 2e-05 2e-05 2e-05 2e-05 
2e-05 2e-05 2e-05 2e-05 2e-05 2e-05 2e-05 2e-05 2e-05 
2e-05 7.5e-05 7.5e-05 2e-05 2e-05 2e-05 2e-05 2e-05 2e-05 
2e-05 2e-05 2e-05 2e-05 2e-05 7.5e-05 2e-05 2e-05 7.5e-05 
2e-05 7.5e-05 7.5e-05 2e-05 0.00015 2e-05 2e-05 2e-05 0.0003 

omega 3 648 double
0 0 0 0 0 0 0 0 0 
0 0 0 0 0 0 0 0 0 
0 0 0 0 0 0 0 0 0 
0 0 0 0 0 0 0 0 0 
0 0 0 0 0 0 0 0 0 
0 0 0 0 0 0 0 0 0 
0 0 0 0 0 0 0 0 0 
0 0 0 0 0 0 0 0 0 
0 0 0 0 0 0 0 0 0 
0 0 0 0 0 0 0 0 0 
0 0 0 0 0 0 0 0 0 
0 0 0 0 0 0 0 0 0 
0 0 0 0 0 0 0 0 0 
0 0 0 0 0 0 0 0 0 
0 0 0 0 0 0 0 0 0 
0 0 0 0 0 0 0 0 0 
0 0 0 0 0 0 0 0 0 
0 0 0 0 0 0 0 0 0 
0 0 0 0 0 0 0 0 0 
0 0 0 0 0 0 0 0 0 
0 0 0 0 0 0 0 0 0 
0 0 0 0 0 0 0 0 0 
0 0 0 0 0 0 0 0 0 
0 0 0 0 0 0 0 0 0 
0 0 0 0 0 0 0 0 0 
0 0 0 0 0 0 0 0 0 
0 0 0 0 0 0 0 0 0 
0 0 0 0 0 0 0 0 0 
0 0 0 0 0 0 0 0 0 
0 0 0 0 0 0 0 0 0 
0 0 0 0 0 0 0 0 0 
0 0 0 0 0 0 0 0 0 
0 0 0 0 0 0 0 0 0 
0 0 0 0 0 0 0 0 0 
0 0 0 0 0 0 0 0 0 
0 0 0 0 0 0 0 0 0 
0 0 0 0 0 0 0 0 0 
0 0 0 0 0 0 0 0 0 
0 0 0 0 0 0 0 0 0 
0 0 0 0 0 0 0 0 0 
0 0 0 0 0 0 0 0 0 
0 0 0 0 0 0 0 0 0 
0 0 0 0 0 0 0 0 0 
0 0 0 0 0 0 0 0 0 
0 0 0 0 0 0 0 0 0 
0 0 0 0 0 0 0 0 0 
0 0 0 0 0 0 0 0 0 
0 0 0 0 0 0 0 0 0 
0 0 0 0 0 0 0 0 0 
0 0 0 0 0 0 0 0 0 
0 0 0 0 0 0 0 0 0 
0 0 0 0 0 0 0 0 0 
0 0 0 0 0 0 0 0 0 
0 0 0 0 0 0 0 0 0 
0 0 0 0 0 0 0 0 0 
0 0 0 0 0 0 0 0 0 
0 0 0 0 0 0 0 0 0 
0 0 0 0 0 0 0 0 0 
0 0 0 0 0 0 0 0 0 
0 0 0 0 0 0 0 0 0 
0 0 0 0 0 0 0 0 0 
0 0 0 0 0 0 0 0 0 
0 0 0 0 0 0 0 0 0 
0 0 0 0 0 0 0 0 0 
0 0 0 0 0 0 0 0 0 
0 0 0 0 0 0 0 0 0 
0 0 0 0 0 0 0 0 0 
0 0 0 0 0 0 0 0 0 
0 0 0 0 0 0 0 0 0 
0 0 0 0 0 0 0 0 0 
0 0 0 0 0 0 0 0 0 
0 0 0 0 0 0 0 0 0 
0 0 0 0 0 0 0 0 0 
0 0 0 0 0 0 0 0 0 
0 0 0 0 0 0 0 0 0 
0 0 0 0 0 0 0 0 0 
0 0 0 0 0 0 0 0 0 
0 0 0 0 0 0 0 0 0 
0 0 0 0 0 0 0 0 0 
0 0 0 0 0 0 0 0 0 
0 0 0 0 0 0 0 0 0 
0 0 0 0 0 0 0 0 0 
0 0 0 0 0 0 0 0 0 
0 0 0 0 0 0 0 0 0 
0 0 0 0 0 0 0 0 0 
0 0 0 0 0 0 0 0 0 
0 0 0 0 0 0 0 0 0 
0 0 0 0 0 0 0 0 0 
0 0 0 0 0 0 0 0 0 
0 0 0 0 0 0 0 0 0 
0 0 0 0 0 0 0 0 0 
0 0 0 0 0 0 0 0 0 
0 0 0 0 0 0 0 0 0 
0 0 0 0 0 0 0 0 0 
0 0 0 0 0 0 0 0 0 
0 0 0 0 0 0 0 0 0 
0 0 0 0 0 0 0 0 0 
0 0 0 0 0 0 0 0 0 
0 0 0 0 0 0 0 0 0 
0 0 0 0 0 0 0 0 0 
0 0 0 0 0 0 0 0 0 
0 0 0 0 0 0 0 0 0 
0 0 0 0 0 0 0 0 0 
0 0 0 0 0 0 0 0 0 
0 0 0 0 0 0 0 0 0 
0 0 0 0 0 0 0 0 0 
0 0 0 0 0 0 0 0 0 
0 0 0 0 0 0 0 0 0 
0 0 0 0 0 0 0 0 0 
0 0 0 0 0 0 0 0 0 
0 0 0 0 0 0 0 0 0 
0 0 0 0 0 0 0 0 0 
0 0 0 0 0 0 0 0 0 
0 0 0 0 0 0 0 0 0 
0 0 0 0 0 0 0 0 0 
0 0 0 0 0 0 0 0 0 
0 0 0 0 0 0 0 0 0 
0 0 0 0 0 0 0 0 0 
0 0 0 0 0 0 0 0 0 
0 0 0 0 0 0 0 0 0 
0 0 0 0 0 0 0 0 0 
0 0 0 0 0 0 0 0 0 
0 0 0 0 0 0 0 0 0 
0 0 0 0 0 0 0 0 0 
0 0 0 0 0 0 0 0 0 
0 0 0 0 0 0 0 0 0 
0 0 0 0 0 0 0 0 0 
0 0 0 0 0 0 0 0 0 
0 0 0 0 0 0 0 0 0 
0 0 0 0 0 0 0 0 0 
0 0 0 0 0 0 0 0 0 
0 0 0 0 0 0 0 0 0 
0 0 0 0 0 0 0 0 0 
0 0 0 0 0 0 0 0 0 
0 0 0 0 0 0 0 0 0 
0 0 0 0 0 0 0 0 0 
0 0 0 0 0 0 0 0 0 
0 0 0 0 0 0 0 0 0 
0 0 0 0 0 0 0 0 0 
0 0 0 0 0 0 0 0 0 
0 0 0 0 0 0 0 0 0 
0 0 0 0 0 0 0 0 0 
0 0 0 0 0 0 0 0 0 
0 0 0 0 0 0 0 0 0 
0 0 0 0 0 0 0 0 0 
0 0 0 0 0 0 0 0 0 
0 0 0 0 0 0 0 0 0 
0 0 0 0 0 0 0 0 0 
0 0 0 0 0 0 0 0 0 
0 0 0 0 0 0 0 0 0 
0 0 0 0 0 0 0 0 0 
0 0 0 0 0 0 0 0 0 
0 0 0 0 0 0 0 0 0 
0 0 0 0 0 0 0 0 0 
0 0 0 0 0 0 0 0 0 
0 0 0 0 0 0 0 0 0 
0 0 0 0 0 0 0 0 0 
0 0 0 0 0 0 0 0 0 
0 0 0 0 0 0 0 0 0 
0 0 0 0 0 0 0 0 0 
0 0 0 0 0 0 0 0 0 
0 0 0 0 0 0 0 0 0 
0 0 0 0 0 0 0 0 0 
0 0 0 0 0 0 0 0 0 
0 0 0 0 0 0 0 0 0 
0 0 0 0 0 0 0 0 0 
0 0 0 0 0 0 0 0 0 
0 0 0 0 0 0 0 0 0 
0 0 0 0 0 0 0 0 0 
0 0 0 0 0 0 0 0 0 
0 0 0 0 0 0 0 0 0 
0 0 0 0 0 0 0 0 0 
0 0 0 0 0 0 0 0 0 
0 0 0 0 0 0 0 0 0 
0 0 0 0 0 0 0 0 0 
0 0 0 0 0 0 0 0 0 
0 0 0 0 0 0 0 0 0 
0 0 0 0 0 0 0 0 0 
0 0 0 0 0 0 0 0 0 
0 0 0 0 0 0 0 0 0 
0 0 0 0 0 0 0 0 0 
0 0 0 0 0 0 0 0 0 
0 0 0 0 0 0 0 0 0 
0 0 0 0 0 0 0 0 0 
0 0 0 0 0 0 0 0 0 
0 0 0 0 0 0 0 0 0 
0 0 0 0 0 0 0 0 0 
0 0 0 0 0 0 0 0 0 
0 0 0 0 0 0 0 0 0 
0 0 0 0 0 0 0 0 0 
0 0 0 0 0 0 0 0 0 
0 0 0 0 0 0 0 0 0 
0 0 0 0 0 0 0 0 0 
0 0 0 0 0 0 0 0 0 
0 0 0 0 0 0 0 0 0 
0 0 0 0 0 0 0 0 0 
0 0 0 0 0 0 0 0 0 
0 0 0 0 0 0 0 0 0 
0 0 0 0 0 0 0 0 0 
0 0 0 0 0 0 0 0 0 
0 0 0 0 0 0 0 0 0 
0 0 0 0 0 0 0 0 0 
0 0 0 0 0 0 0 0 0 
0 0 0 0 0 0 0 0 0 
0 0 0 0 0 0 0 0 0 
0 0 0 0 0 0 0 0 0 
0 0 0 0 0 0 0 0 0 
0 0 0 0 0 0 0 0 0 
0 0 0 0 0 0 0 0 0 
0 0 0 0 0 0 0 0 0 
0 0 0 0 0 0 0 0 0 
0 0 0 0 0 0 0 0 0 
0 0 0 0 0 0 0 0 0 
0 0 0 0 0 0 0 0 0 
0 0 0 0 0 0 0 0 0 
0 0 0 0 0 0 0 0 0 

fx_mag_viz 1 648 double
0 0 0 0 0 0 0 0 0 
0 0 0 0 0 0 0 0 0 
0 0 0 0 0 0 0 0 0 
0 0 0 0 0 0 0 0 0 
0 0 0 0 0 0 0 0 0 
0 0 0 0 0 0 0 0 0 
0 0 0 0 0 0 0 0 0 
0 0 0 0 0 0 0 0 0 
0 0 0 0 0 0 0 0 0 
0 0 0 0 0 0 0 0 0 
0 0 0 0 0 0 0 0 0 
0 0 0 0 0 0 0 0 0 
0 0 0 0 0 0 0 0 0 
0 0 0 0 0 0 0 0 0 
0 0 0 0 0 0 0 0 0 
0 0 0 0 0 0 0 0 0 
0 0 0 0 0 0 0 0 0 
0 0 0 0 0 0 0 0 0 
0 0 0 0 0 0 0 0 0 
0 0 0 0 0 0 0 0 0 
0 0 0 0 0 0 0 0 0 
0 0 0 0 0 0 0 0 0 
0 0 0 0 0 0 0 0 0 
0 0 0 0 0 0 0 0 0 
0 0 0 0 0 0 0 0 0 
0 0 0 0 0 0 0 0 0 
0 0 0 0 0 0 0 0 0 
0 0 0 0 0 0 0 0 0 
0 0 0 0 0 0 0 0 0 
0 0 0 0 0 0 0 0 0 
0 0 0 0 0 0 0 0 0 
0 0 0 0 0 0 0 0 0 
0 0 0 0 0 0 0 0 0 
0 0 0 0 0 0 0 0 0 
0 0 0 0 0 0 0 0 0 
0 0 0 0 0 0 0 0 0 
0 0 0 0 0 0 0 0 0 
0 0 0 0 0 0 0 0 0 
0 0 0 0 0 0 0 0 0 
0 0 0 0 0 0 0 0 0 
0 0 0 0 0 0 0 0 0 
0 0 0 0 0 0 0 0 0 
0 0 0 0 0 0 0 0 0 
0 0 0 0 0 0 0 0 0 
0 0 0 0 0 0 0 0 0 
0 0 0 0 0 0 0 0 0 
0 0 0 0 0 0 0 0 0 
0 0 0 0 0 0 0 0 0 
0 0 0 0 0 0 0 0 0 
0 0 0 0 0 0 0 0 0 
0 0 0 0 0 0 0 0 0 
0 0 0 0 0 0 0 0 0 
0 0 0 0 0 0 0 0 0 
0 0 0 0 0 0 0 0 0 
0 0 0 0 0 0 0 0 0 
0 0 0 0 0 0 0 0 0 
0 0 0 0 0 0 0 0 0 
0 0 0 0 0 0 0 0 0 
0 0 0 0 0 0 0 0 0 
0 0 0 0 0 0 0 0 0 
0 0 0 0 0 0 0 0 0 
0 0 0 0 0 0 0 0 0 
0 0 0 0 0 0 0 0 0 
0 0 0 0 0 0 0 0 0 
0 0 0 0 0 0 0 0 0 
0 0 0 0 0 0 0 0 0 
0 0 0 0 0 0 0 0 0 
0 0 0 0 0 0 0 0 0 
0 0 0 0 0 0 0 0 0 
0 0 0 0 0 0 0 0 0 
0 0 0 0 0 0 0 0 0 
0 0 0 0 0 0 0 0 0 

fy_mag_viz 1 648 double
0 0 0 0 0 0 0 0 0 
0 0 0 0 0 0 0 0 0 
0 0 0 0 0 0 0 0 0 
0 0 0 0 0 0 0 0 0 
0 0 0 0 0 0 0 0 0 
0 0 0 0 0 0 0 0 0 
0 0 0 0 0 0 0 0 0 
0 0 0 0 0 0 0 0 0 
0 0 0 0 0 0 0 0 0 
0 0 0 0 0 0 0 0 0 
0 0 0 0 0 0 0 0 0 
0 0 0 0 0 0 0 0 0 
0 0 0 0 0 0 0 0 0 
0 0 0 0 0 0 0 0 0 
0 0 0 0 0 0 0 0 0 
0 0 0 0 0 0 0 0 0 
0 0 0 0 0 0 0 0 0 
0 0 0 0 0 0 0 0 0 
0 0 0 0 0 0 0 0 0 
0 0 0 0 0 0 0 0 0 
0 0 0 0 0 0 0 0 0 
0 0 0 0 0 0 0 0 0 
0 0 0 0 0 0 0 0 0 
0 0 0 0 0 0 0 0 0 
0 0 0 0 0 0 0 0 0 
0 0 0 0 0 0 0 0 0 
0 0 0 0 0 0 0 0 0 
0 0 0 0 0 0 0 0 0 
0 0 0 0 0 0 0 0 0 
0 0 0 0 0 0 0 0 0 
0 0 0 0 0 0 0 0 0 
0 0 0 0 0 0 0 0 0 
0 0 0 0 0 0 0 0 0 
0 0 0 0 0 0 0 0 0 
0 0 0 0 0 0 0 0 0 
0 0 0 0 0 0 0 0 0 
0 0 0 0 0 0 0 0 0 
0 0 0 0 0 0 0 0 0 
0 0 0 0 0 0 0 0 0 
0 0 0 0 0 0 0 0 0 
0 0 0 0 0 0 0 0 0 
0 0 0 0 0 0 0 0 0 
0 0 0 0 0 0 0 0 0 
0 0 0 0 0 0 0 0 0 
0 0 0 0 0 0 0 0 0 
0 0 0 0 0 0 0 0 0 
0 0 0 0 0 0 0 0 0 
0 0 0 0 0 0 0 0 0 
0 0 0 0 0 0 0 0 0 
0 0 0 0 0 0 0 0 0 
0 0 0 0 0 0 0 0 0 
0 0 0 0 0 0 0 0 0 
0 0 0 0 0 0 0 0 0 
0 0 0 0 0 0 0 0 0 
0 0 0 0 0 0 0 0 0 
0 0 0 0 0 0 0 0 0 
0 0 0 0 0 0 0 0 0 
0 0 0 0 0 0 0 0 0 
0 0 0 0 0 0 0 0 0 
0 0 0 0 0 0 0 0 0 
0 0 0 0 0 0 0 0 0 
0 0 0 0 0 0 0 0 0 
0 0 0 0 0 0 0 0 0 
0 0 0 0 0 0 0 0 0 
0 0 0 0 0 0 0 0 0 
0 0 0 0 0 0 0 0 0 
0 0 0 0 0 0 0 0 0 
0 0 0 0 0 0 0 0 0 
0 0 0 0 0 0 0 0 0 
0 0 0 0 0 0 0 0 0 
0 0 0 0 0 0 0 0 0 
0 0 0 0 0 0 0 0 0 

fz_mag_viz 1 648 double
0 0 0 0 0 0 0 0 0 
0 0 0 0 0 0 0 0 0 
0 0 0 0 0 0 0 0 0 
0 0 0 0 0 0 0 0 0 
0 0 0 0 0 0 0 0 0 
0 0 0 0 0 0 0 0 0 
0 0 0 0 0 0 0 0 0 
0 0 0 0 0 0 0 0 0 
0 0 0 0 0 0 0 0 0 
0 0 0 0 0 0 0 0 0 
0 0 0 0 0 0 0 0 0 
0 0 0 0 0 0 0 0 0 
0 0 0 0 0 0 0 0 0 
0 0 0 0 0 0 0 0 0 
0 0 0 0 0 0 0 0 0 
0 0 0 0 0 0 0 0 0 
0 0 0 0 0 0 0 0 0 
0 0 0 0 0 0 0 0 0 
0 0 0 0 0 0 0 0 0 
0 0 0 0 0 0 0 0 0 
0 0 0 0 0 0 0 0 0 
0 0 0 0 0 0 0 0 0 
0 0 0 0 0 0 0 0 0 
0 0 0 0 0 0 0 0 0 
0 0 0 0 0 0 0 0 0 
0 0 0 0 0 0 0 0 0 
0 0 0 0 0 0 0 0 0 
0 0 0 0 0 0 0 0 0 
0 0 0 0 0 0 0 0 0 
0 0 0 0 0 0 0 0 0 
0 0 0 0 0 0 0 0 0 
0 0 0 0 0 0 0 0 0 
0 0 0 0 0 0 0 0 0 
0 0 0 0 0 0 0 0 0 
0 0 0 0 0 0 0 0 0 
0 0 0 0 0 0 0 0 0 
0 0 0 0 0 0 0 0 0 
0 0 0 0 0 0 0 0 0 
0 0 0 0 0 0 0 0 0 
0 0 0 0 0 0 0 0 0 
0 0 0 0 0 0 0 0 0 
0 0 0 0 0 0 0 0 0 
0 0 0 0 0 0 0 0 0 
0 0 0 0 0 0 0 0 0 
0 0 0 0 0 0 0 0 0 
0 0 0 0 0 0 0 0 0 
0 0 0 0 0 0 0 0 0 
0 0 0 0 0 0 0 0 0 
0 0 0 0 0 0 0 0 0 
0 0 0 0 0 0 0 0 0 
0 0 0 0 0 0 0 0 0 
0 0 0 0 0 0 0 0 0 
0 0 0 0 0 0 0 0 0 
0 0 0 0 0 0 0 0 0 
0 0 0 0 0 0 0 0 0 
0 0 0 0 0 0 0 0 0 
0 0 0 0 0 0 0 0 0 
0 0 0 0 0 0 0 0 0 
0 0 0 0 0 0 0 0 0 
0 0 0 0 0 0 0 0 0 
0 0 0 0 0 0 0 0 0 
0 0 0 0 0 0 0 0 0 
0 0 0 0 0 0 0 0 0 
0 0 0 0 0 0 0 0 0 
0 0 0 0 0 0 0 0 0 
0 0 0 0 0 0 0 0 0 
0 0 0 0 0 0 0 0 0 
0 0 0 0 0 0 0 0 0 
0 0 0 0 0 0 0 0 0 
0 0 0 0 0 0 0 0 0 
0 0 0 0 0 0 0 0 0 
0 0 0 0 0 0 0 0 0 

B_magnitude 1 648 double
0 0 0 0 0 0 0 0 0 
0 0 0 0 0 0 0 0 0 
0 0 0 0 0 0 0 0 0 
0 0 0 0 0 0 0 0 0 
0 0 0 0 0 0 0 0 0 
0 0 0 0 0 0 0 0 0 
0 0 0 0 0 0 0 0 0 
0 0 0 0 0 0 0 0 0 
0 0 0 0 0 0 0 0 0 
0 0 0 0 0 0 0 0 0 
0 0 0 0 0 0 0 0 0 
0 0 0 0 0 0 0 0 0 
0 0 0 0 0 0 0 0 0 
0 0 0 0 0 0 0 0 0 
0 0 0 0 0 0 0 0 0 
0 0 0 0 0 0 0 0 0 
0 0 0 0 0 0 0 0 0 
0 0 0 0 0 0 0 0 0 
0 0 0 0 0 0 0 0 0 
0 0 0 0 0 0 0 0 0 
0 0 0 0 0 0 0 0 0 
0 0 0 0 0 0 0 0 0 
0 0 0 0 0 0 0 0 0 
0 0 0 0 0 0 0 0 0 
0 0 0 0 0 0 0 0 0 
0 0 0 0 0 0 0 0 0 
0 0 0 0 0 0 0 0 0 
0 0 0 0 0 0 0 0 0 
0 0 0 0 0 0 0 0 0 
0 0 0 0 0 0 0 0 0 
0 0 0 0 0 0 0 0 0 
0 0 0 0 0 0 0 0 0 
0 0 0 0 0 0 0 0 0 
0 0 0 0 0 0 0 0 0 
0 0 0 0 0 0 0 0 0 
0 0 0 0 0 0 0 0 0 
0 0 0 0 0 0 0 0 0 
0 0 0 0 0 0 0 0 0 
0 0 0 0 0 0 0 0 0 
0 0 0 0 0 0 0 0 0 
0 0 0 0 0 0 0 0 0 
0 0 0 0 0 0 0 0 0 
0 0 0 0 0 0 0 0 0 
0 0 0 0 0 0 0 0 0 
0 0 0 0 0 0 0 0 0 
0 0 0 0 0 0 0 0 0 
0 0 0 0 0 0 0 0 0 
0 0 0 0 0 0 0 0 0 
0 0 0 0 0 0 0 0 0 
0 0 0 0 0 0 0 0 0 
0 0 0 0 0 0 0 0 0 
0 0 0 0 0 0 0 0 0 
0 0 0 0 0 0 0 0 0 
0 0 0 0 0 0 0 0 0 
0 0 0 0 0 0 0 0 0 
0 0 0 0 0 0 0 0 0 
0 0 0 0 0 0 0 0 0 
0 0 0 0 0 0 0 0 0 
0 0 0 0 0 0 0 0 0 
0 0 0 0 0 0 0 0 0 
0 0 0 0 0 0 0 0 0 
0 0 0 0 0 0 0 0 0 
0 0 0 0 0 0 0 0 0 
0 0 0 0 0 0 0 0 0 
0 0 0 0 0 0 0 0 0 
0 0 0 0 0 0 0 0 0 
0 0 0 0 0 0 0 0 0 
0 0 0 0 0 0 0 0 0 
0 0 0 0 0 0 0 0 0 
0 0 0 0 0 0 0 0 0 
0 0 0 0 0 0 0 0 0 
0 0 0 0 0 0 0 0 0 

B_gradient_mag 1 648 double
0 0 0 0 0 0 0 0 0 
0 0 0 0 0 0 0 0 0 
0 0 0 0 0 0 0 0 0 
0 0 0 0 0 0 0 0 0 
0 0 0 0 0 0 0 0 0 
0 0 0 0 0 0 0 0 0 
0 0 0 0 0 0 0 0 0 
0 0 0 0 0 0 0 0 0 
0 0 0 0 0 0 0 0 0 
0 0 0 0 0 0 0 0 0 
0 0 0 0 0 0 0 0 0 
0 0 0 0 0 0 0 0 0 
0 0 0 0 0 0 0 0 0 
0 0 0 0 0 0 0 0 0 
0 0 0 0 0 0 0 0 0 
0 0 0 0 0 0 0 0 0 
0 0 0 0 0 0 0 0 0 
0 0 0 0 0 0 0 0 0 
0 0 0 0 0 0 0 0 0 
0 0 0 0 0 0 0 0 0 
0 0 0 0 0 0 0 0 0 
0 0 0 0 0 0 0 0 0 
0 0 0 0 0 0 0 0 0 
0 0 0 0 0 0 0 0 0 
0 0 0 0 0 0 0 0 0 
0 0 0 0 0 0 0 0 0 
0 0 0 0 0 0 0 0 0 
0 0 0 0 0 0 0 0 0 
0 0 0 0 0 0 0 0 0 
0 0 0 0 0 0 0 0 0 
0 0 0 0 0 0 0 0 0 
0 0 0 0 0 0 0 0 0 
0 0 0 0 0 0 0 0 0 
0 0 0 0 0 0 0 0 0 
0 0 0 0 0 0 0 0 0 
0 0 0 0 0 0 0 0 0 
0 0 0 0 0 0 0 0 0 
0 0 0 0 0 0 0 0 0 
0 0 0 0 0 0 0 0 0 
0 0 0 0 0 0 0 0 0 
0 0 0 0 0 0 0 0 0 
0 0 0 0 0 0 0 0 0 
0 0 0 0 0 0 0 0 0 
0 0 0 0 0 0 0 0 0 
0 0 0 0 0 0 0 0 0 
0 0 0 0 0 0 0 0 0 
0 0 0 0 0 0 0 0 0 
0 0 0 0 0 0 0 0 0 
0 0 0 0 0 0 0 0 0 
0 0 0 0 0 0 0 0 0 
0 0 0 0 0 0 0 0 0 
0 0 0 0 0 0 0 0 0 
0 0 0 0 0 0 0 0 0 
0 0 0 0 0 0 0 0 0 
0 0 0 0 0 0 0 0 0 
0 0 0 0 0 0 0 0 0 
0 0 0 0 0 0 0 0 0 
0 0 0 0 0 0 0 0 0 
0 0 0 0 0 0 0 0 0 
0 0 0 0 0 0 0 0 0 
0 0 0 0 0 0 0 0 0 
0 0 0 0 0 0 0 0 0 
0 0 0 0 0 0 0 0 0 
0 0 0 0 0 0 0 0 0 
0 0 0 0 0 0 0 0 0 
0 0 0 0 0 0 0 0 0 
0 0 0 0 0 0 0 0 0 
0 0 0 0 0 0 0 0 0 
0 0 0 0 0 0 0 0 0 
0 0 0 0 0 0 0 0 0 
0 0 0 0 0 0 0 0 0 
0 0 0 0 0 0 0 0 0 

