# vtk DataFile Version 5.1
Generated by LIGGGHTS
ASCII
DATASET POLYDATA
POINTS 648 float
-0.0428902 -0.0449088 0.00102 -0.044759 -0.0437614 0.00102434 -0.0335565 -0.0442122 0.00130735 
-0.0308094 -0.0435702 0.00102091 0.0348044 -0.042095 0.00118337 0.0418836 -0.0421436 0.00103831 
-0.00674967 -0.0416523 0.00125395 0.0414821 -0.0410789 0.00119221 -0.042922 -0.0404536 0.00107176 
-0.0334706 -0.0396012 0.00124796 -0.0248652 -0.040212 0.00130354 -0.018434 -0.0405477 0.00111652 
0.00849583 -0.0405939 0.0015443 0.040047 -0.0404588 0.00102 -0.0108246 -0.0388127 0.00118218 
-0.00302782 -0.0385948 0.00102 0.0156715 -0.0391733 0.00102 0.00798734 -0.0367051 0.00102 
0.0308099 -0.0378456 0.00106575 0.000822496 -0.0363122 0.00103791 -0.0177429 -0.0346724 0.00154296 
0.00594186 -0.0351889 0.00118162 0.0333162 -0.0342631 0.00104762 0.023158 -0.0340207 0.0010246 
0.0244271 -0.0334586 0.00106002 -0.0262624 -0.032473 0.00114428 -0.0232422 -0.0321576 0.00102168 
-0.0210092 -0.0320472 0.00129091 -0.0266532 -0.0301716 0.00102 -0.0105296 -0.0314142 0.00102 
0.0280204 -0.0311414 0.00102154 -0.0448384 -0.0296834 0.00102011 0.00577088 -0.0287415 0.00102 
-0.0430551 -0.0267583 0.00122299 0.000892701 -0.0263701 0.00118827 -0.00446216 -0.0255279 0.00129745 
0.0306875 -0.0259396 0.00123238 0.033456 -0.0256735 0.00102 0.032808 -0.025967 0.00102 
-0.0408326 -0.0234295 0.00102 -0.0225401 -0.0213878 0.00124023 0.0233461 -0.0214624 0.00105404 
0.039775 -0.0211058 0.00136059 0.0436787 -0.0219137 0.00102468 0.0336491 -0.0197505 0.00102 
-0.0296942 -0.0196153 0.00104479 -0.0207996 -0.0190456 0.00157381 -0.0108877 -0.0188832 0.00102 
0.00156248 -0.0194187 0.00104594 0.0363266 -0.0194176 0.00115356 -0.0317771 -0.0175651 0.00102 
-0.0100897 -0.0180162 0.00127838 0.0030191 -0.0179247 0.00106973 0.0404767 -0.0183151 0.0010233 
-0.0339565 -0.0167518 0.00124759 -0.0257955 -0.0157834 0.00123697 0.0223879 -0.0163393 0.00102004 
-0.00444012 -0.0151621 0.00119691 0.0198229 -0.0156851 0.00106321 0.00689113 -0.0107816 0.00102 
0.0277003 -0.0107969 0.00102273 -0.0253401 -0.0103599 0.00149847 -0.0222502 -0.00974669 0.00126232 
-0.0112192 -0.0104501 0.00102057 0.00743742 -0.00926665 0.00102 0.0313953 -0.00974065 0.00124298 
0.0350526 -0.0102353 0.00102 -0.00553214 -0.00871323 0.00126405 -0.0198564 -0.00683511 0.00102 
-0.0129003 -0.00574839 0.00102 -0.00747582 -0.00609419 0.00126047 0.00937085 -0.00418454 0.00102 
0.0131353 -0.00504642 0.00104813 0.021323 -0.00444137 0.00116879 -0.0179231 -0.00300678 0.00102 
-0.00783961 -0.000387029 0.00102 -0.00702036 -0.00121172 0.00105442 0.0420414 -0.00101026 0.00143012 
-0.0260142 0.00017485 0.00125854 0.0384376 0.000848974 0.00102 -0.00967086 0.00179773 0.00102 
0.00417698 0.0024455 0.0010211 0.0188762 0.00181355 0.00127703 -0.0325416 0.00283857 0.00109973 
0.0292006 0.00433004 0.00102 0.0305447 0.00486582 0.00102 -0.0403489 0.00598291 0.00158838 
-0.0287984 0.00559412 0.00102 -0.0170872 0.00564833 0.00102 0.0011249 0.00615697 0.00102 
0.021602 0.00540593 0.00102 0.0228765 0.00606581 0.0010201 0.0246705 0.0064451 0.00103723 
-0.0426568 0.00723228 0.00102 0.0110904 0.00657535 0.00148391 0.0283387 0.00890506 0.00117255 
0.0340899 0.00882812 0.00130677 -0.0392616 0.00972366 0.00102336 -0.0214351 0.00957734 0.00105111 
-0.0101256 0.00978275 0.00103253 0.0197977 0.00963841 0.00104454 0.0212596 0.00979192 0.00102 
0.0399323 0.0117688 0.00102 0.0398091 0.011618 0.00126708 -0.00279986 0.0127222 0.00106431 
0.00861143 0.0123591 0.00123183 -0.034865 0.0142961 0.00102 -0.0310202 0.0131063 0.00102 
8.23501e-07 0.0138406 0.00105623 0.012949 0.0143048 0.00150972 0.0143092 0.0139794 0.00102 
0.0248423 0.0143007 0.00102 0.0287781 0.014071 0.00102 -0.00307286 0.0144526 0.00118817 
0.0121458 0.0151918 0.0012152 0.00517921 0.0169249 0.00113827 0.0418335 0.0161761 0.00128587 
-0.0360536 0.0173104 0.00102 0.0215224 0.0171285 0.00102 -0.0214239 0.0189608 0.00102 
0.0090081 0.0191686 0.00128995 -0.023041 0.0197144 0.00102131 -0.022709 0.0198803 0.00104268 
-0.0153727 0.020636 0.00102 -0.0282566 0.021284 0.00102 0.0123926 0.0218243 0.00102 
0.03506 0.0228899 0.00102 -0.0436572 0.0238848 0.00155449 0.0167463 0.0251763 0.00102 
0.0226957 0.0260881 0.00104537 0.0395905 0.0272142 0.00106409 -0.0214233 0.0285543 0.00128859 
-0.0127911 0.0299546 0.00123771 -0.0409258 0.0305044 0.00102 -0.0313244 0.0314049 0.00126271 
-0.0200898 0.0311527 0.00103905 0.00372347 0.0304157 0.00117786 0.0038092 0.0311583 0.00124995 
0.0364634 0.0310238 0.00111753 0.0444958 0.0309554 0.00102009 -0.0073504 0.0318329 0.00125659 
0.00390562 0.0317225 0.00122979 0.01325 0.0319187 0.00132501 -0.0264781 0.032823 0.00102066 
0.00284552 0.0345861 0.00102 -0.041477 0.0364172 0.0012344 0.0297434 0.0373158 0.00102 
-0.00973825 0.0391656 0.00117803 0.0165329 0.0385374 0.00102 0.0238959 0.0383247 0.00103262 
-0.0312382 0.0393096 0.0012815 0.0251972 0.0393087 0.00102007 0.0163992 0.0415262 0.00102174 
0.0222253 0.0407186 0.00118174 -0.0390027 0.0421086 0.00102 -0.00340304 -0.0448428 0.00208045 
0.0181024 -0.0433049 0.00181035 0.0416479 -0.0439733 0.00238907 -0.0389435 -0.0425966 0.00175645 
0.0201641 -0.0426709 0.00273255 0.0406519 -0.0427256 0.002264 0.000425919 -0.0415728 0.00227536 
-0.0406141 -0.0405112 0.00156245 0.0244803 -0.0401788 0.00225655 -0.0289295 -0.0389067 0.00113564 
-0.0195638 -0.0385913 0.00177299 0.0325128 -0.03812 0.0021241 -0.0168273 -0.0360331 0.00149951 
0.0355384 -0.0354155 0.00276597 -8.23525e-05 -0.034098 0.00167531 0.0433459 -0.0353282 0.00214732 
-0.00586029 -0.0338127 0.00209432 -0.0160452 -0.0323821 0.00218085 0.0346336 -0.0325969 0.00154647 
0.0449741 -0.0303513 0.00177653 0.0346338 -0.0290927 0.00208738 -0.0346801 -0.0287009 0.00220576 
0.0164647 -0.0275391 0.00235173 0.0101031 -0.0273014 0.00191117 0.0350196 -0.0250011 0.00205138 
0.0347572 -0.0260666 0.00236391 0.00179778 -0.0247441 0.0026368 0.0210005 -0.0239559 0.00113139 
-0.0350278 -0.0224863 0.00233266 0.0109547 -0.0235646 0.00169986 -0.0323128 -0.0219837 0.00113396 
0.00623721 -0.0211799 0.00133278 -0.00827992 -0.020547 0.00228965 0.0134129 -0.0192809 0.00155715 
0.0204492 -0.0194639 0.00187585 -0.0204621 -0.0172006 0.00227603 0.0184681 -0.0172117 0.00176294 
-0.0426154 -0.0165053 0.00196435 -0.0405162 -0.0161033 0.00223397 0.0252581 -0.0163235 0.00253172 
-0.015814 -0.0152491 0.00254399 0.0132043 -0.01541 0.00240552 -0.0388614 -0.0136303 0.00138169 
-0.0313057 -0.0141988 0.00236572 -0.0279963 -0.0141356 0.00250034 -0.0227164 -0.0141288 0.00210647 
-0.0117656 -0.0138394 0.00128544 -0.00710141 -0.0133745 0.00127664 0.00886689 -0.0141191 0.00121891 
-0.0341597 -0.0122829 0.00253121 0.0176437 -0.0119747 0.00167378 0.0322358 -0.0130621 0.00175388 
0.0253763 -0.011051 0.00167427 -0.0196799 -0.00931279 0.00217548 -0.0136128 -0.00979682 0.00210329 
0.013874 -0.00963069 0.00130201 0.0251729 -0.00985964 0.00104149 0.0286804 -0.00919085 0.00107648 
-0.042331 -0.00792816 0.00247946 -0.00254943 -0.00825679 0.00203325 -0.0343844 -0.0078404 0.00209066 
-0.0211095 -0.00770044 0.0022397 -0.0150798 -0.00698339 0.00115643 -0.00433253 -0.00676057 0.00112833 
0.0109664 -0.00760095 0.00137604 0.0129906 -0.00677597 0.00175839 0.0275881 -0.00673863 0.00216678 
0.0404774 -0.00688032 0.00235955 0.0387156 -0.00624884 0.00127294 -0.040885 -0.00406647 0.00244945 
-0.0253129 -0.0039775 0.00267035 -0.0141425 -0.00311887 0.00129426 -0.0120059 -0.00345367 0.00201852 
0.0293019 -0.00298432 0.00267583 -0.0408474 -0.00214648 0.00239757 -0.0395569 -0.00227866 0.00251424 
-0.0198668 -0.00211416 0.00259816 0.00664535 -0.00164817 0.00245282 -0.0281455 -0.00127675 0.00158008 
-0.000610522 -0.00103491 0.00112703 0.0290986 -0.000251763 0.00162183 0.039455 -0.000236508 0.00295932 
-0.00229178 0.0020129 0.00169151 0.0147261 0.00139147 0.00180396 0.0189244 0.00254502 0.0018009 
0.032558 0.00153523 0.00129626 -0.0261639 0.00337815 0.00211008 -0.0233311 0.00384073 0.00221172 
0.0449494 0.00392273 0.0012648 -0.027449 0.00511055 0.00111832 -0.025141 0.00447188 0.00108636 
0.00314898 0.00491531 0.00176138 0.0260144 0.00429017 0.00250078 0.0404406 0.00462082 0.00127065 
-0.037077 0.00611456 0.00226122 -0.01547 0.00642247 0.00136292 0.0101693 0.00555192 0.00221056 
0.030759 0.00580352 0.00206644 0.0358407 0.00533501 0.0022377 -0.009285 0.00693532 0.00217376 
-0.00598638 0.00689803 0.00187767 0.00533928 0.00728904 0.00228401 0.0221269 0.00728552 0.00135952 
-0.019893 0.00878872 0.00207225 0.0324887 0.00836074 0.00171465 -0.0408306 0.00999374 0.00177553 
-0.0349081 0.00917553 0.0026244 0.0211953 0.00966092 0.00124912 0.0234497 0.00978487 0.00228092 
0.027557 0.009967 0.00178583 -0.0394276 0.0109375 0.00169791 -0.00808524 0.0113378 0.00200215 
-0.00071691 0.0108932 0.00250532 -0.0365733 0.0119208 0.00237938 -0.0429188 0.0135204 0.00238227 
-0.0287818 0.014969 0.00121695 -0.0231109 0.0157017 0.00280168 0.000954082 0.0152563 0.00228659 
0.0440772 0.0154938 0.00258413 -0.0408838 0.0159645 0.00227803 -0.0286532 0.0159811 0.0010201 
-0.00317984 0.0164631 0.00138238 -0.0193355 0.018129 0.00195779 0.00546842 0.0177814 0.00202532 
0.0407412 0.0174253 0.00142183 -0.0363159 0.0185996 0.00119084 0.00395304 0.0187088 0.00203765 
0.018015 0.0183735 0.00184431 0.00742845 0.0199749 0.00232359 0.00976854 0.0197772 0.00211895 
0.00128112 0.0217131 0.00192182 -0.0349287 0.0230684 0.00231983 -0.0324762 0.0230005 0.00250238 
-0.0267196 0.0236159 0.00197276 0.021223 0.0244832 0.00246145 0.0307708 0.0242663 0.00131375 
-0.0386663 0.0253433 0.00145231 -0.00739359 0.0259593 0.00124758 -0.0267569 0.0263983 0.00163835 
-0.0128609 0.0265935 0.00272321 -0.00563177 0.0268155 0.00148287 0.00953871 0.0271324 0.00172238 
-0.0357156 0.0282031 0.00102233 0.0397191 0.0283771 0.0023111 0.0191509 0.0299648 0.00192512 
-0.0219587 0.0304934 0.00246831 -0.0108954 0.0304 0.00209339 0.0040127 0.0314243 0.00177134 
0.026696 0.03017 0.00199655 0.0337272 0.0324898 0.00172384 0.0380057 0.0324307 0.00197565 
-0.0425374 0.0333781 0.00260149 -0.0337286 0.0337045 0.00170328 0.0214431 0.0335886 0.0023867 
0.0231674 0.0340949 0.00113505 0.0278529 0.0342296 0.00268121 -0.00750544 0.0361316 0.00150234 
-0.00196307 0.0366495 0.00222673 -0.0245447 0.0378537 0.00201797 0.00367032 0.0371324 0.00216324 
-0.00883869 0.0381834 0.00259626 -0.039126 0.0399637 0.00108028 -0.0375088 0.0393741 0.00230605 
-0.0112537 0.0395394 0.00113441 0.0221021 0.0401282 0.00131261 -0.0133259 0.0414802 0.00184741 
0.0170579 0.0421878 0.00124077 0.0294278 0.0431452 0.00148727 -0.0205282 0.0432397 0.00144096 
0.0405446 0.0433429 0.00115166 -0.0390775 0.0447256 0.00255334 0.0171919 0.0449185 0.00250644 
0.0211706 0.0445491 0.00253489 -0.0346971 -0.0446764 0.00259313 -0.0317519 -0.0446953 0.0025194 
0.0262096 -0.0449372 0.00229514 -0.027409 -0.0433703 0.00276636 -0.00396528 -0.0444182 0.00325399 
0.0145521 -0.0432303 0.00278681 0.0195053 -0.043722 0.00292163 -0.0248654 -0.0427111 0.0026453 
0.0131812 -0.0427533 0.0029552 0.0248068 -0.0428986 0.00265835 -0.0349861 -0.0412827 0.0025626 
-0.0136468 -0.0412372 0.00302244 0.0166138 -0.0412108 0.00353234 0.0238162 -0.0409762 0.0034651 
0.0338942 -0.0410147 0.00272464 0.0424299 -0.0409921 0.00306158 -0.0169239 -0.0402939 0.00270858 
-0.00670669 -0.0394183 0.00290446 -0.0370475 -0.0370945 0.00337498 0.00985621 -0.0367022 0.0035174 
0.0397687 -0.0374633 0.00260284 -0.0439713 -0.0357399 0.00281722 -0.0309963 -0.0355024 0.00294559 
-0.0273176 -0.0361067 0.00276655 -0.00161929 -0.0353994 0.00320885 0.0195647 -0.0366528 0.0028226 
-0.0179089 -0.0346335 0.00268474 0.0077947 -0.0345433 0.00324944 0.00879071 -0.0344865 0.00272618 
0.0403097 -0.0347888 0.00315461 0.043014 -0.0343178 0.00296543 -0.0427235 -0.0332389 0.00277145 
-0.0177803 -0.0340186 0.00285235 -0.0161578 -0.0337243 0.00278422 0.027474 -0.0338615 0.00285645 
-0.0376897 -0.0314333 0.00296332 -0.0233761 -0.031813 0.00310116 0.00802514 -0.031483 0.00304604 
-0.0386911 -0.0311434 0.00318151 -0.0220587 -0.0306349 0.00334214 -0.0414327 -0.0290659 0.00338145 
-0.0263426 -0.0292431 0.00357785 0.00231692 -0.0294453 0.00276356 0.023019 -0.0293484 0.00309301 
0.0392765 -0.0300093 0.00212178 -0.0401314 -0.0280847 0.00320449 -0.0240024 -0.0280603 0.00370945 
0.0153133 -0.0285941 0.00285344 0.0156293 -0.0283842 0.00270147 -0.00580099 -0.0272788 0.00284442 
0.03382 -0.0268981 0.00345262 -0.0338231 -0.0250135 0.00297508 -0.00863888 -0.0237376 0.00291645 
0.00558373 -0.0242787 0.00329801 0.00538025 -0.0241403 0.00305037 0.0102479 -0.024092 0.00382032 
0.0155599 -0.0240909 0.00261952 -0.0127621 -0.0231756 0.00285973 0.0115492 -0.0227248 0.00273024 
0.0240101 -0.0228809 0.00284416 0.035159 -0.023363 0.003432 -0.0164034 -0.0216001 0.00336821 
0.0394323 -0.021923 0.00352285 -0.0210835 -0.0209207 0.00311045 -0.0033641 -0.0204173 0.00309582 
0.00548761 -0.0197918 0.00361696 -0.0328213 -0.0176588 0.00323919 -0.0147645 -0.0165889 0.00301259 
0.0296492 -0.015918 0.00215333 0.038292 -0.016257 0.00302235 -0.0408642 -0.0154151 0.00325742 
0.0249316 -0.014475 0.00271426 0.0268005 -0.0146468 0.00260442 0.0323803 -0.0150629 0.00335315 
0.0375745 -0.0151367 0.00258062 -0.0329121 -0.0139828 0.00276745 -0.0186412 -0.0134353 0.00307827 
0.0144468 -0.013247 0.00293594 0.0403752 -0.0143085 0.00297952 -0.0327621 -0.0121928 0.00365483 
-0.00528066 -0.0121118 0.00294417 0.0347312 -0.012978 0.00267183 0.0334462 -0.00930086 0.00326652 
0.0406218 -0.0100941 0.00357532 -0.0344646 -0.00725539 0.00292613 -0.0304645 -0.00701594 0.0026401 
-0.0135858 -0.00672635 0.00356323 -0.00401126 -0.00720159 0.00286655 0.0161928 -0.00760918 0.00309119 
0.00523139 -0.00599236 0.00359319 0.0180458 -0.00470109 0.00357908 0.0180565 -0.00487531 0.00287237 
0.0200271 -0.00425623 0.0031049 -0.042786 -0.00359954 0.00243081 -0.0107529 -0.00365687 0.00336202 
-0.00941413 -0.00330341 0.00339248 0.00975646 -0.00313231 0.00302502 -0.00896956 -0.00131708 0.00298766 
0.0168839 -0.00210364 0.00280783 -0.0376932 -0.000132947 0.0031703 -0.0283489 -0.000417126 0.00338316 
-0.0153419 -0.00108619 0.00329133 0.00127443 -0.000618905 0.00227065 0.0140084 -6.89735e-05 0.0033489 
-0.0416237 0.00110806 0.00333624 -0.0332593 0.000859011 0.00282928 0.0407777 0.000744206 0.0036161 
0.0116524 0.00206193 0.00343666 0.0362421 0.00170773 0.00345327 0.00243665 0.00282786 0.00354187 
0.0183943 0.00266245 0.00296793 0.0323225 0.00436429 0.00291675 -0.0406381 0.00555966 0.00318592 
-0.00723413 0.00605583 0.0033315 0.0250346 0.00641518 0.00359436 0.0332757 0.00539899 0.0034157 
-0.0429246 0.00657681 0.00303194 -0.0105861 0.00898083 0.00326698 0.0142017 0.0079404 0.00301899 
0.0202046 0.00840095 0.00303473 0.00474506 0.0103043 0.00322645 0.00978397 0.00922321 0.00271856 
-0.0350204 0.0121089 0.00280002 -0.00831541 0.0129665 0.00274984 0.00243185 0.0120975 0.00266921 
0.0128044 0.0127337 0.00272127 0.014866 0.0127598 0.00321721 0.0261916 0.0119357 0.00343439 
-0.00841171 0.0143034 0.00349349 -0.00867948 0.0139924 0.00359795 0.00789931 0.0136568 0.00264431 
0.0311878 0.014057 0.00294874 0.0336082 0.013194 0.00286215 0.0396593 0.013993 0.00332129 
0.0441199 0.0136981 0.00292414 -0.0196462 0.0155185 0.00294308 -0.0161548 0.0159009 0.00295716 
-0.00443291 0.0160613 0.00322634 0.00976298 0.0163696 0.00336519 0.0226738 0.0181095 0.00277123 
0.0256029 0.0175394 0.00293031 0.00757299 0.0192258 0.00270743 0.0122157 0.0191756 0.00271831 
0.0388885 0.0193682 0.00277687 -0.0431379 0.0208085 0.00269294 0.0350116 0.0207306 0.00286283 
-0.0287332 0.0215601 0.00320379 -0.0122989 0.0222019 0.00350565 0.0362273 0.0220011 0.00333813 
0.0398418 0.0217469 0.00290297 -0.0421793 0.0225172 0.00348697 -0.0295899 0.0232577 0.00274062 
-0.0148746 0.0223253 0.00326336 0.00126512 0.0228658 0.00343762 0.0146363 0.0223077 0.00293048 
-0.0138035 0.0240512 0.0029543 -0.00782209 0.0241861 0.00361144 0.00264144 0.0247174 0.00307545 
0.0181332 0.0246356 0.00296767 0.0258603 0.0235991 0.00281431 0.0438582 0.0244724 0.00311526 
-0.0132251 0.0252506 0.00274596 -0.0190887 0.0269029 0.00366543 -0.0114472 0.026715 0.00347033 
0.00834461 0.0278725 0.00312654 -0.0406313 0.0295913 0.00239376 -0.0376379 0.0294143 0.00356087 
0.0434247 0.0295768 0.00318449 0.00519606 0.0301696 0.00293622 -0.0213481 0.0319153 0.0031239 
-0.00435696 0.0325462 0.00317534 0.0191028 0.0315895 0.00284432 0.0193546 0.0324404 0.00337733 
0.0372507 0.0318783 0.00303715 0.00727395 0.0332762 0.00288363 0.0152528 0.033152 0.00215699 
-0.00472634 0.0344449 0.00290832 0.00317215 0.0343196 0.00299997 -0.0407273 0.0358476 0.00313121 
0.00888594 0.0360502 0.00279464 0.0030545 0.0369981 0.00334448 0.0311732 0.0371467 0.00353563 
-0.00647711 0.0391566 0.00275456 -0.00585061 0.0388609 0.00348769 0.0281745 0.039089 0.00274312 
0.00201585 0.0404036 0.00286529 0.00805094 0.0422278 0.00270886 -0.0181988 0.0434549 0.00268906 
0.00528787 0.0432844 0.0032397 0.0114086 0.0440135 0.00266937 0.0352701 0.0439749 0.00296809 
0.0352379 0.0438995 0.00290468 0.0399235 0.0434757 0.00286497 0.0307351 -0.0355434 0.003668 
0.0268369 -0.0315202 0.00459203 0.010226 -0.0308634 0.00360406 -0.0432264 -0.0264101 0.00429768 
-0.0240719 -0.0268296 0.00475835 -0.0291427 -0.0219343 0.00317465 -0.0269092 -0.0125643 0.00415044 
0.0414517 -0.0114994 0.00393189 -0.038829 -0.00978443 0.00456757 0.0218314 -0.00971151 0.00309992 
-0.0214415 -0.007536 0.00497977 -0.0101373 -0.00698039 0.00326139 -0.00720807 -0.00608605 0.00381768 
-0.0131355 0.00164571 0.00352368 -0.0137512 0.00384646 0.00358273 -0.00552594 0.00555795 0.00403259 
-0.0408092 0.00981999 0.00443973 -0.0436896 0.0195853 0.00306393 0.000162142 0.0251126 0.00431191 
-0.0160353 0.0448572 0.003919 0.0339316 -0.041715 0.00562439 -0.0234086 -0.038644 0.0044922 
-0.00338111 -0.0363358 0.00437914 0.00264867 -0.0338128 0.00571112 0.0054016 -0.025334 0.00446111 
-0.038621 -0.0229432 0.00496291 0.0282033 -0.0178095 0.00572045 0.0448793 -0.00396119 0.00545309 
0.00418285 0.0112423 0.00506843 0.0114764 0.0140289 0.00538873 -0.0102477 0.0267602 0.00510656 
-0.0359241 0.0337864 0.00492744 0.0132394 0.0345575 0.00506868 -0.0379532 0.0399341 0.00474174 
-0.00785852 0.041878 0.00524311 0.0430506 0.0422314 0.00520601 -0.0190394 0.0446837 0.00505571 
-0.0396817 -0.0304797 0.00681833 -0.00682403 -0.0314098 0.00688708 -0.0139777 -0.0223984 0.00675199 
0.00265626 0.00371614 0.00593604 -0.0442311 0.00821601 0.00667747 -0.0152062 0.0294088 0.00600151 
-0.032208 0.0306075 0.0068009 0.0164577 0.0353116 0.0061327 0.0147823 -0.0446949 0.00799709 
0.0341086 -0.0368686 0.00748306 0.0262592 -0.0217201 0.00764614 -0.0183202 -0.0175475 0.00843611 
0.0352883 -0.0103067 0.00782566 0.0386193 -0.00496685 0.00795145 -0.0122189 0.0175978 0.00798757 
0.0323804 -0.0132471 0.00945236 0.0342493 -0.0115037 0.00923983 0.0277548 0.0042931 0.00936374 
0.0320014 0.00756294 0.0088464 0.00153271 0.0201988 0.00885886 -0.014478 0.0275162 0.00894021 
0.0354139 0.0312817 0.00887231 -0.0422696 0.0340949 0.00865091 0.0412685 -0.0295104 0.010696 
-0.0419519 -0.0259749 0.0112105 0.0218308 -0.0192565 0.0108235 0.0272875 -0.0186725 0.0107593 
0.0223025 -0.0112244 0.0105933 -0.00474481 -0.00600267 0.0101827 0.023953 0.00820576 0.0101502 
0.012585 0.0155082 0.0100814 -0.0269229 0.0267788 0.0107856 -0.0368667 0.0306348 0.010017 
-0.0260391 0.0304395 0.0108601 -0.0207563 -0.0111167 0.0124132 0.0127657 -0.00746761 0.0121359 
0.0153641 0.0146287 0.0115571 0.00308146 0.0401468 0.0123234 -0.0225361 -0.0441701 0.0130447 
-0.0393221 -0.0167834 0.0125438 -0.0449336 -0.00957357 0.0126302 -0.0326334 -0.00963456 0.0127824 
-0.0245993 0.0193658 0.0133726 -0.0197415 0.0344175 0.0132064 0.00513794 0.0433856 0.0125518 
0.0185094 -0.042363 0.0147235 0.0419483 -0.0348097 0.0142499 -0.0336946 -0.0248459 0.0148935 
-0.0328109 -0.0226975 0.0150684 -0.0329608 -0.0218045 0.014198 0.0414834 -0.0181367 0.0151496 
-0.024842 -0.00884532 0.0144738 -0.0371624 0.011326 0.0142803 0.0323341 0.0191974 0.0144639 
0.0104707 0.0313218 0.0143577 -0.0440308 0.0448256 0.0144481 -0.015788 -0.0282898 0.0154163 
0.0302919 -0.0148257 0.0152985 0.0379188 0.0120326 0.0155169 -0.0155539 0.0359545 0.0156414 
0.0439232 0.0371117 0.0152098 -0.0281804 0.0418824 0.015326 -0.0385899 -0.0405251 0.0176571 
-0.0420316 -0.0145538 0.0173328 0.0414788 -0.00521487 0.0178414 0.00347554 0.00338662 0.017156 
-0.0437633 0.0406561 0.0175015 -0.00521279 -0.0413279 0.0184935 0.0433204 -0.0141837 0.0190653 
-0.0386256 -0.00983966 0.0186139 -0.0356048 -0.000104637 0.0191214 -0.0081225 0.0151775 0.0191755 
-0.0144089 0.0201081 0.0190432 -0.0256005 0.0215871 0.0192911 -0.0296003 0.0277025 0.0185441 
0.0188903 -0.0308528 0.0204763 -0.0207679 -0.0256315 0.020745 0.0282359 -0.00877456 0.0205642 
0.0154702 -0.00154679 0.0198158 -0.00757157 0.00454821 0.0201123 0.0289145 -0.0340196 0.0212178 
0.00357123 -0.00830953 0.0210821 -0.00254916 -0.00379952 0.0211192 0.00643655 -0.000956063 0.0213434 
0.00635633 0.000852437 0.0217942 0.0131273 0.040817 0.0212014 0.0133448 0.00646544 0.0217875 
0.00741479 -0.0295782 0.0240014 -0.0170112 0.0231088 0.0257523 0.0242571 -0.0100823 0.0271299 

VERTICES 649 648
OFFSETS vtktypeint64
0 1 2 3 4 5 6 7 8 
9 10 11 12 13 14 15 16 17 
18 19 20 21 22 23 24 25 26 
27 28 29 30 31 32 33 34 35 
36 37 38 39 40 41 42 43 44 
45 46 47 48 49 50 51 52 53 
54 55 56 57 58 59 60 61 62 
63 64 65 66 67 68 69 70 71 
72 73 74 75 76 77 78 79 80 
81 82 83 84 85 86 87 88 89 
90 91 92 93 94 95 96 97 98 
99 100 101 102 103 104 105 106 107 
108 109 110 111 112 113 114 115 116 
117 118 119 120 121 122 123 124 125 
126 127 128 129 130 131 132 133 134 
135 136 137 138 139 140 141 142 143 
144 145 146 147 148 149 150 151 152 
153 154 155 156 157 158 159 160 161 
162 163 164 165 166 167 168 169 170 
171 172 173 174 175 176 177 178 179 
180 181 182 183 184 185 186 187 188 
189 190 191 192 193 194 195 196 197 
198 199 200 201 202 203 204 205 206 
207 208 209 210 211 212 213 214 215 
216 217 218 219 220 221 222 223 224 
225 226 227 228 229 230 231 232 233 
234 235 236 237 238 239 240 241 242 
243 244 245 246 247 248 249 250 251 
252 253 254 255 256 257 258 259 260 
261 262 263 264 265 266 267 268 269 
270 271 272 273 274 275 276 277 278 
279 280 281 282 283 284 285 286 287 
288 289 290 291 292 293 294 295 296 
297 298 299 300 301 302 303 304 305 
306 307 308 309 310 311 312 313 314 
315 316 317 318 319 320 321 322 323 
324 325 326 327 328 329 330 331 332 
333 334 335 336 337 338 339 340 341 
342 343 344 345 346 347 348 349 350 
351 352 353 354 355 356 357 358 359 
360 361 362 363 364 365 366 367 368 
369 370 371 372 373 374 375 376 377 
378 379 380 381 382 383 384 385 386 
387 388 389 390 391 392 393 394 395 
396 397 398 399 400 401 402 403 404 
405 406 407 408 409 410 411 412 413 
414 415 416 417 418 419 420 421 422 
423 424 425 426 427 428 429 430 431 
432 433 434 435 436 437 438 439 440 
441 442 443 444 445 446 447 448 449 
450 451 452 453 454 455 456 457 458 
459 460 461 462 463 464 465 466 467 
468 469 470 471 472 473 474 475 476 
477 478 479 480 481 482 483 484 485 
486 487 488 489 490 491 492 493 494 
495 496 497 498 499 500 501 502 503 
504 505 506 507 508 509 510 511 512 
513 514 515 516 517 518 519 520 521 
522 523 524 525 526 527 528 529 530 
531 532 533 534 535 536 537 538 539 
540 541 542 543 544 545 546 547 548 
549 550 551 552 553 554 555 556 557 
558 559 560 561 562 563 564 565 566 
567 568 569 570 571 572 573 574 575 
576 577 578 579 580 581 582 583 584 
585 586 587 588 589 590 591 592 593 
594 595 596 597 598 599 600 601 602 
603 604 605 606 607 608 609 610 611 
612 613 614 615 616 617 618 619 620 
621 622 623 624 625 626 627 628 629 
630 631 632 633 634 635 636 637 638 
639 640 641 642 643 644 645 646 647 
648 
CONNECTIVITY vtktypeint64
0 1 2 3 4 5 6 7 8 
9 10 11 12 13 14 15 16 17 
18 19 20 21 22 23 24 25 26 
27 28 29 30 31 32 33 34 35 
36 37 38 39 40 41 42 43 44 
45 46 47 48 49 50 51 52 53 
54 55 56 57 58 59 60 61 62 
63 64 65 66 67 68 69 70 71 
72 73 74 75 76 77 78 79 80 
81 82 83 84 85 86 87 88 89 
90 91 92 93 94 95 96 97 98 
99 100 101 102 103 104 105 106 107 
108 109 110 111 112 113 114 115 116 
117 118 119 120 121 122 123 124 125 
126 127 128 129 130 131 132 133 134 
135 136 137 138 139 140 141 142 143 
144 145 146 147 148 149 150 151 152 
153 154 155 156 157 158 159 160 161 
162 163 164 165 166 167 168 169 170 
171 172 173 174 175 176 177 178 179 
180 181 182 183 184 185 186 187 188 
189 190 191 192 193 194 195 196 197 
198 199 200 201 202 203 204 205 206 
207 208 209 210 211 212 213 214 215 
216 217 218 219 220 221 222 223 224 
225 226 227 228 229 230 231 232 233 
234 235 236 237 238 239 240 241 242 
243 244 245 246 247 248 249 250 251 
252 253 254 255 256 257 258 259 260 
261 262 263 264 265 266 267 268 269 
270 271 272 273 274 275 276 277 278 
279 280 281 282 283 284 285 286 287 
288 289 290 291 292 293 294 295 296 
297 298 299 300 301 302 303 304 305 
306 307 308 309 310 311 312 313 314 
315 316 317 318 319 320 321 322 323 
324 325 326 327 328 329 330 331 332 
333 334 335 336 337 338 339 340 341 
342 343 344 345 346 347 348 349 350 
351 352 353 354 355 356 357 358 359 
360 361 362 363 364 365 366 367 368 
369 370 371 372 373 374 375 376 377 
378 379 380 381 382 383 384 385 386 
387 388 389 390 391 392 393 394 395 
396 397 398 399 400 401 402 403 404 
405 406 407 408 409 410 411 412 413 
414 415 416 417 418 419 420 421 422 
423 424 425 426 427 428 429 430 431 
432 433 434 435 436 437 438 439 440 
441 442 443 444 445 446 447 448 449 
450 451 452 453 454 455 456 457 458 
459 460 461 462 463 464 465 466 467 
468 469 470 471 472 473 474 475 476 
477 478 479 480 481 482 483 484 485 
486 487 488 489 490 491 492 493 494 
495 496 497 498 499 500 501 502 503 
504 505 506 507 508 509 510 511 512 
513 514 515 516 517 518 519 520 521 
522 523 524 525 526 527 528 529 530 
531 532 533 534 535 536 537 538 539 
540 541 542 543 544 545 546 547 548 
549 550 551 552 553 554 555 556 557 
558 559 560 561 562 563 564 565 566 
567 568 569 570 571 572 573 574 575 
576 577 578 579 580 581 582 583 584 
585 586 587 588 589 590 591 592 593 
594 595 596 597 598 599 600 601 602 
603 604 605 606 607 608 609 610 611 
612 613 614 615 616 617 618 619 620 
621 622 623 624 625 626 627 628 629 
630 631 632 633 634 635 636 637 638 
639 640 641 642 643 644 645 646 647 

POINT_DATA 648
FIELD FieldData 12
id 1 648 int
164 463 366 200 140 218 457 207 134 
256 87 35 136 508 34 92 459 115 
356 24 518 367 88 51 347 303 404 
307 304 185 107 137 331 128 291 604 
121 190 267 282 64 472 237 317 470 
479 177 154 440 238 439 247 289 355 
73 176 444 381 168 106 292 23 227 
231 428 157 293 324 72 383 243 370 
515 125 57 132 66 80 83 465 36 
175 186 334 418 458 501 407 478 456 
396 467 353 450 528 129 165 261 197 
288 255 214 432 373 60 401 297 169 
322 41 150 491 310 202 308 193 40 
433 339 110 364 521 149 166 49 18 
219 191 195 163 461 209 504 506 488 
187 201 158 26 327 253 148 29 270 
85 233 362 320 246 328 318 386 412 
62 372 98 346 31 258 203 471 591 
549 326 312 210 359 226 344 388 605 
571 570 543 352 294 354 445 645 335 
430 116 234 526 192 576 167 174 44 
448 298 551 496 572 553 374 376 58 
306 276 612 215 490 441 380 349 566 
340 248 264 127 427 483 95 260 563 
511 522 6 336 580 615 368 299 567 
285 385 257 592 360 382 405 135 542 
564 341 2 565 90 77 538 519 212 
86 284 56 593 379 141 495 245 546 
454 153 425 213 426 423 124 145 453 
400 420 296 480 601 442 221 345 384 
48 70 469 358 315 228 473 184 587 
392 485 417 117 281 514 337 330 130 
109 78 189 100 162 408 266 280 199 
410 179 321 419 343 332 268 180 466 
455 348 235 251 421 452 232 437 482 
559 523 76 155 435 361 434 108 406 
272 476 55 438 275 242 534 188 89 
84 93 113 414 390 562 68 52 429 
577 271 99 314 411 102 122 22 487 
82 159 436 402 489 319 69 47 229 
350 156 589 477 239 505 333 250 393 
295 139 103 533 502 96 147 120 409 
183 415 493 79 484 223 71 416 449 
323 329 160 111 403 25 28 274 462 
422 170 143 240 290 74 194 500 59 
460 211 146 43 259 38 311 53 399 
32 42 278 377 252 11 105 263 171 
142 20 151 371 204 205 217 365 265 
75 389 196 208 61 244 305 216 503 
486 474 126 301 144 424 112 338 497 
181 262 273 378 21 446 17 119 46 
395 236 363 63 178 468 220 15 54 
118 443 447 161 357 33 138 431 529 
279 287 254 325 394 104 97 14 520 
12 507 206 131 498 30 509 524 451 
114 81 583 222 481 65 94 225 579 
387 313 309 286 182 198 413 45 536 
123 91 375 342 302 397 475 351 492 
5 283 527 13 547 8 638 16 101 
10 39 224 499 300 545 4 152 9 
614 597 173 67 616 532 37 517 50 
464 633 535 494 391 249 277 19 172 
525 398 513 598 316 540 596 552 241 
626 573 539 3 133 7 530 628 613 
556 561 369 623 550 548 574 558 516 
599 557 510 560 637 594 269 585 27 
622 643 230 618 554 617 582 600 586 
635 584 581 541 578 603 569 595 607 
611 639 629 537 620 624 531 555 648 
590 647 641 575 632 644 544 568 619 
625 646 609 636 627 602 610 631 634 
608 642 621 630 606 512 640 588 1 

type 1 648 int
1 1 1 1 1 1 1 1 1 
1 1 1 1 1 1 1 1 1 
1 1 1 1 1 1 1 1 1 
1 1 1 1 1 1 1 1 1 
1 1 1 1 1 1 1 1 1 
1 1 1 1 1 1 1 1 1 
1 1 1 1 1 1 1 1 1 
1 1 1 1 1 1 1 1 1 
1 1 1 1 1 1 1 1 1 
1 1 1 1 1 1 1 1 1 
1 1 1 1 1 1 1 1 1 
1 1 1 1 1 1 1 1 1 
1 1 1 1 1 1 1 1 1 
1 1 1 1 1 1 1 1 1 
1 1 1 1 1 1 1 1 1 
1 1 1 1 1 1 1 1 1 
1 1 1 1 1 1 1 1 1 
1 1 1 1 1 1 1 1 1 
1 1 1 1 1 1 1 1 1 
1 1 1 1 1 1 1 1 1 
1 1 1 1 1 1 1 1 1 
1 1 1 1 1 1 1 1 1 
1 1 1 1 1 1 1 1 1 
1 1 1 1 1 1 1 1 1 
1 1 2 1 1 1 1 1 1 
1 1 1 1 1 1 1 1 1 
1 1 3 1 1 1 1 1 1 
1 1 1 1 1 1 1 1 1 
1 1 1 1 1 1 1 1 1 
1 1 1 1 1 1 1 1 1 
1 1 1 1 1 1 1 1 1 
1 1 1 1 1 1 1 1 1 
1 1 1 1 1 1 1 1 1 
1 1 1 1 1 1 1 1 1 
1 1 1 1 1 1 1 1 1 
1 1 1 1 1 1 1 1 1 
1 1 1 1 1 1 1 1 1 
1 1 1 1 1 1 1 1 1 
1 1 1 1 1 1 1 1 1 
1 1 1 1 1 1 1 1 1 
1 1 1 1 1 1 1 1 1 
1 1 1 1 1 1 1 1 1 
1 1 1 1 1 1 1 1 1 
1 1 1 1 1 1 1 1 1 
1 1 1 1 1 1 1 1 1 
1 1 1 1 1 1 1 1 1 
1 1 1 1 1 2 1 1 1 
1 1 1 1 1 1 1 1 1 
1 1 1 1 1 1 1 1 1 
1 1 1 1 1 1 1 1 1 
1 1 1 1 1 1 1 1 1 
1 1 1 1 1 1 1 2 1 
1 1 1 1 1 1 1 1 1 
1 1 1 1 1 1 1 2 1 
2 1 1 1 1 1 1 1 1 
1 1 1 1 1 1 1 1 1 
1 1 1 1 1 1 1 1 1 
1 1 1 1 1 1 1 1 1 
2 1 1 2 1 2 1 2 1 
2 1 1 1 1 1 2 1 2 
1 1 1 1 1 1 1 1 1 
1 1 1 1 1 1 1 1 1 
1 1 1 1 1 1 1 1 1 
1 1 1 2 1 2 1 1 1 
1 1 1 1 1 1 1 1 2 
1 1 1 1 1 1 1 1 1 
1 1 1 1 1 1 1 1 1 
1 1 1 1 1 1 1 1 1 
1 1 1 1 1 1 1 1 1 
1 1 1 1 1 1 1 1 1 
1 1 1 1 1 1 1 1 2 
1 1 1 1 1 2 1 1 4 

i 3 648 int
0 0 0 0 0 0 0 0 0 
0 0 0 0 0 0 0 0 0 
0 0 0 0 0 0 0 0 0 
0 0 0 0 0 0 0 0 0 
0 0 0 0 0 0 0 0 0 
0 0 0 0 0 0 0 0 0 
0 0 0 0 0 0 0 0 0 
0 0 0 0 0 0 0 0 0 
0 0 0 0 0 0 0 0 0 
0 0 0 0 0 0 0 0 0 
0 0 0 0 0 0 0 0 0 
0 0 0 0 0 0 0 0 0 
0 0 0 0 0 0 0 0 0 
0 0 0 0 0 0 0 0 0 
0 0 0 0 0 0 0 0 0 
0 0 0 0 0 0 0 0 0 
0 0 0 0 0 0 0 0 0 
0 0 0 0 0 0 0 0 0 
0 0 0 0 0 0 0 0 0 
0 0 0 0 0 0 0 0 0 
0 0 0 0 0 0 0 0 0 
0 0 0 0 0 0 0 0 0 
0 0 0 0 0 0 0 0 0 
0 0 0 0 0 0 0 0 0 
0 0 0 0 0 0 0 0 0 
0 0 0 0 0 0 0 0 0 
0 0 0 0 0 0 0 0 0 
0 0 0 0 0 0 0 0 0 
0 0 0 0 0 0 0 0 0 
0 0 0 0 0 0 0 0 0 
0 0 0 0 0 0 0 0 0 
0 0 0 0 0 0 0 0 0 
0 0 0 0 0 0 0 0 0 
0 0 0 0 0 0 0 0 0 
0 0 0 0 0 0 0 0 0 
0 0 0 0 0 0 0 0 0 
0 0 0 0 0 0 0 0 0 
0 0 0 0 0 0 0 0 0 
0 0 0 0 0 0 0 0 0 
0 0 0 0 0 0 0 0 0 
0 0 0 0 0 0 0 0 0 
0 0 0 0 0 0 0 0 0 
0 0 0 0 0 0 0 0 0 
0 0 0 0 0 0 0 0 0 
0 0 0 0 0 0 0 0 0 
0 0 0 0 0 0 0 0 0 
0 0 0 0 0 0 0 0 0 
0 0 0 0 0 0 0 0 0 
0 0 0 0 0 0 0 0 0 
0 0 0 0 0 0 0 0 0 
0 0 0 0 0 0 0 0 0 
0 0 0 0 0 0 0 0 0 
0 0 0 0 0 0 0 0 0 
0 0 0 0 0 0 0 0 0 
0 0 0 0 0 0 0 0 0 
0 0 0 0 0 0 0 0 0 
0 0 0 0 0 0 0 0 0 
0 0 0 0 0 0 0 0 0 
0 0 0 0 0 0 0 0 0 
0 0 0 0 0 0 0 0 0 
0 0 0 0 0 0 0 0 0 
0 0 0 0 0 0 0 0 0 
0 0 0 0 0 0 0 0 0 
0 0 0 0 0 0 0 0 0 
0 0 0 0 0 0 0 0 0 
0 0 0 0 0 0 0 0 0 
0 0 0 0 0 0 0 0 0 
0 0 0 0 0 0 0 0 0 
0 0 0 0 0 0 0 0 0 
0 0 0 0 0 0 0 0 0 
0 0 0 0 0 0 0 0 0 
0 0 0 0 0 0 0 0 0 
0 0 0 0 0 0 0 0 0 
0 0 0 0 0 0 0 0 0 
0 0 0 0 0 0 0 0 0 
0 0 0 0 0 0 0 0 0 
0 0 0 0 0 0 0 0 0 
0 0 0 0 0 0 0 0 0 
0 0 0 0 0 0 0 0 0 
0 0 0 0 0 0 0 0 0 
0 0 0 0 0 0 0 0 0 
0 0 0 0 0 0 0 0 0 
0 0 0 0 0 0 0 0 0 
0 0 0 0 0 0 0 0 0 
0 0 0 0 0 0 0 0 0 
0 0 0 0 0 0 0 0 0 
0 0 0 0 0 0 0 0 0 
0 0 0 0 0 0 0 0 0 
0 0 0 0 0 0 0 0 0 
0 0 0 0 0 0 0 0 0 
0 0 0 0 0 0 0 0 0 
0 0 0 0 0 0 0 0 0 
0 0 0 0 0 0 0 0 0 
0 0 0 0 0 0 0 0 0 
0 0 0 0 0 0 0 0 0 
0 0 0 0 0 0 0 0 0 
0 0 0 0 0 0 0 0 0 
0 0 0 0 0 0 0 0 0 
0 0 0 0 0 0 0 0 0 
0 0 0 0 0 0 0 0 0 
0 0 0 0 0 0 0 0 0 
0 0 0 0 0 0 0 0 0 
0 0 0 0 0 0 0 0 0 
0 0 0 0 0 0 0 0 0 
0 0 0 0 0 0 0 0 0 
0 0 0 0 0 0 0 0 0 
0 0 0 0 0 0 0 0 0 
0 0 0 0 0 0 0 0 0 
0 0 0 0 0 0 0 0 0 
0 0 0 0 0 0 0 0 0 
0 0 0 0 0 0 0 0 0 
0 0 0 0 0 0 0 0 0 
0 0 0 0 0 0 0 0 0 
0 0 0 0 0 0 0 0 0 
0 0 0 0 0 0 0 0 0 
0 0 0 0 0 0 0 0 0 
0 0 0 0 0 0 0 0 0 
0 0 0 0 0 0 0 0 0 
0 0 0 0 0 0 0 0 0 
0 0 0 0 0 0 0 0 0 
0 0 0 0 0 0 0 0 0 
0 0 0 0 0 0 0 0 0 
0 0 0 0 0 0 0 0 0 
0 0 0 0 0 0 0 0 0 
0 0 0 0 0 0 0 0 0 
0 0 0 0 0 0 0 0 0 
0 0 0 0 0 0 0 0 0 
0 0 0 0 0 0 0 0 0 
0 0 0 0 0 0 0 0 0 
0 0 0 0 0 0 0 0 0 
0 0 0 0 0 0 0 0 0 
0 0 0 0 0 0 0 0 0 
0 0 0 0 0 0 0 0 0 
0 0 0 0 0 0 0 0 0 
0 0 0 0 0 0 0 0 0 
0 0 0 0 0 0 0 0 0 
0 0 0 0 0 0 0 0 0 
0 0 0 0 0 0 0 0 0 
0 0 0 0 0 0 0 0 0 
0 0 0 0 0 0 0 0 0 
0 0 0 0 0 0 0 0 0 
0 0 0 0 0 0 0 0 0 
0 0 0 0 0 0 0 0 0 
0 0 0 0 0 0 0 0 0 
0 0 0 0 0 0 0 0 0 
0 0 0 0 0 0 0 0 0 
0 0 0 0 0 0 0 0 0 
0 0 0 0 0 0 0 0 0 
0 0 0 0 0 0 0 0 0 
0 0 0 0 0 0 0 0 0 
0 0 0 0 0 0 0 0 0 
0 0 0 0 0 0 0 0 0 
0 0 0 0 0 0 0 0 0 
0 0 0 0 0 0 0 0 0 
0 0 0 0 0 0 0 0 0 
0 0 0 0 0 0 0 0 0 
0 0 0 0 0 0 0 0 0 
0 0 0 0 0 0 0 0 0 
0 0 0 0 0 0 0 0 0 
0 0 0 0 0 0 0 0 0 
0 0 0 0 0 0 0 0 0 
0 0 0 0 0 0 0 0 0 
0 0 0 0 0 0 0 0 0 
0 0 0 0 0 0 0 0 0 
0 0 0 0 0 0 0 0 0 
0 0 0 0 0 0 0 0 0 
0 0 0 0 0 0 0 0 0 
0 0 0 0 0 0 0 0 0 
0 0 0 0 0 0 0 0 0 
0 0 0 0 0 0 0 0 0 
0 0 0 0 0 0 0 0 0 
0 0 0 0 0 0 0 0 0 
0 0 0 0 0 0 0 0 0 
0 0 0 0 0 0 0 0 0 
0 0 0 0 0 0 0 0 0 
0 0 0 0 0 0 0 0 0 
0 0 0 0 0 0 0 0 0 
0 0 0 0 0 0 0 0 0 
0 0 0 0 0 0 0 0 0 
0 0 0 0 0 0 0 0 0 
0 0 0 0 0 0 0 0 0 
0 0 0 0 0 0 0 0 0 
0 0 0 0 0 0 0 0 0 
0 0 0 0 0 0 0 0 0 
0 0 0 0 0 0 0 0 0 
0 0 0 0 0 0 0 0 0 
0 0 0 0 0 0 0 0 0 
0 0 0 0 0 0 0 0 0 
0 0 0 0 0 0 0 0 0 
0 0 0 0 0 0 0 0 0 
0 0 0 0 0 0 0 0 0 
0 0 0 0 0 0 0 0 0 
0 0 0 0 0 0 0 0 0 
0 0 0 0 0 0 0 0 0 
0 0 0 0 0 0 0 0 0 
0 0 0 0 0 0 0 0 0 
0 0 0 0 0 0 0 0 0 
0 0 0 0 0 0 0 0 0 
0 0 0 0 0 0 0 0 0 
0 0 0 0 0 0 0 0 0 
0 0 0 0 0 0 0 0 0 
0 0 0 0 0 0 0 0 0 
0 0 0 0 0 0 0 0 0 
0 0 0 0 0 0 0 0 0 
0 0 0 0 0 0 0 0 0 
0 0 0 0 0 0 0 0 0 
0 0 0 0 0 0 0 0 0 
0 0 0 0 0 0 0 0 0 
0 0 0 0 0 0 0 0 0 
0 0 0 0 0 0 0 0 0 
0 0 0 0 0 0 0 0 0 
0 0 0 0 0 0 0 0 0 
0 0 0 0 0 0 0 0 0 
0 0 0 0 0 0 0 0 0 
0 0 0 0 0 0 0 0 0 
0 0 0 0 0 0 0 0 0 

v 3 648 double
0 0 3.2413285931e-14 0 0 -0.00093494608932 0 0 0.0055929079447 
0 0 -0.0039397034335 0 0 0.012613418234 0 0 0.0064577087139 
0 0 0.001426850977 0 0 -0.020050786132 0 0 -0.028989350558 
0 0 0.0065036607468 0 0 0.019072118103 0 0 -0.01864438344 
0 0 0.087554077522 0 0 3.241328596e-14 0 0 -0.012999038519 
0 0 3.2413286072e-14 0 0 3.2413289944e-14 0 0 3.2413286006e-14 
0 0 0.0017113862502 0 0 0.0061462319594 0 0 0.078310204771 
0 0 0.021167458117 0 0 -0.0040952459761 0 0 -0.0013493703335 
0 0 -0.00098682542661 0 0 -0.016326927 0 0 0.0038818412016 
0 0 0.090788548201 0 0 3.2413289938e-14 0 0 8.0432447378e-14 
0 0 -0.0036908229199 0 0 -0.0039168578711 0 0 8.0432443464e-14 
0 0 0.0055802654847 0 0 -0.02038106936 0 0 0.057255966773 
0 0 -0.0042284962542 0 0 3.2413289933e-14 0 0 3.2413285961e-14 
0 0 8.0432447432e-14 0 0 0.014506568179 0 0 0.025195882634 
0 0 0.014002767703 0 0 0.00020583902417 0 0 8.0432443599e-14 
0 0 0.031773982316 0 0 0.085437973701 0 0 8.0432443456e-14 
0 0 0.033468140736 0 0 -0.019243773785 0 0 1.94366722e-13 
0 0 0.011775563781 0 0 -0.0029821637716 0 0 -0.0015881851435 
0 0 0.018332652514 0 0 -0.016133192575 0 0 0.00046881686753 
0 0 -0.0228592249 0 0 0.027356494611 0 0 3.2413290023e-14 
0 0 -0.011049397387 0 0 0.073787129516 0 0 -0.0098792480392 
0 0 -0.00079538706996 0 0 1.9307863677e-12 0 0 -0.0016310248854 
0 0 8.0432443474e-14 0 0 -0.0016314233729 0 0 8.0432443602e-14 
0 0 3.2413285982e-14 0 0 -0.0025051740867 0 0 8.0432447573e-14 
0 0 -0.00052133851066 0 0 -0.016959024148 0 0 8.0432443644e-14 
0 0 3.2413286008e-14 0 0 -0.0046416952852 0 0 0.088780419237 
0 0 -0.0055763613904 0 0 -1.560588404e-14 0 0 8.0432443503e-14 
0 0 -0.00020644022963 0 0 0.0063745296029 0 0 0.020161827032 
0 0 8.0432443491e-14 0 0 8.0432443537e-14 0 0 0.072600609671 
0 0 8.0432443498e-14 0 0 3.2413285952e-14 0 0 8.0432443535e-14 
0 0 8.0432443665e-14 0 0 -0.00012580693328 0 0 0.008326645617 
0 0 8.0432447373e-14 0 0 0.067097022262 0 0 -0.01177895759 
0 0 0.011270934106 0 0 0.0014717244719 0 0 -0.0071672504945 
0 0 -0.0075087150187 0 0 0.0026026610197 0 0 3.2413286034e-14 
0 0 8.0432443489e-14 0 0 0.012814376977 0 0 -0.023721462069 
0 0 0.009328594983 0 0 8.0432443443e-14 0 0 3.2413285951e-14 
0 0 0.00094553587879 0 0 0.073387582772 0 0 8.0432447588e-14 
0 0 8.043244739e-14 0 0 8.0432443526e-14 0 0 -0.010865941892 
0 0 0.02286562933 0 0 -0.019077047436 0 0 -0.0013893344346 
0 0 8.043244366e-14 0 0 8.0432443654e-14 0 0 8.0432443436e-14 
0 0 0.010091447054 0 0 0.003237649108 0 0 0.0066460390818 
0 0 -1.5605883967e-14 0 0 8.043244349e-14 0 0 8.0432447524e-14 
0 0 3.2413286037e-14 0 0 0.085392290225 0 0 3.2413286009e-14 
0 0 0.0057395596911 0 0 0.023471019735 0 0 0.095586573619 
0 0 -0.0025107430957 0 0 8.0432447534e-14 0 0 0.0061835982493 
0 0 0.0077073920709 0 0 -0.013485483975 0 0 -0.012276170862 
0 0 -0.024990345045 0 0 0.001623933886 0 0 -0.0070789218622 
0 0 0.001715695109 0 0 0.016751932068 0 0 -1.2399571455e-05 
0 0 3.2413285921e-14 0 0 0.0081217097838 0 0 3.2413289953e-14 
0 0 -0.013693004575 0 0 8.0432447367e-14 0 0 -0.024993228806 
0 0 -0.0060669654154 0 0 -0.001528681952 0 0 -0.0028793878275 
0 0 -0.012726845693 0 0 3.241328594e-14 0 0 -0.050704019946 
0 0 -0.06408864628 0 0 -0.027854848579 0 0 0.084317514018 
0 0 0.047087299385 0 0 0.071801899496 0 0 0.03001311424 
0 0 0.062582581097 0 0 -0.046124943953 0 0 -0.24633034353 
0 0 0.081665101406 0 0 0.073947099639 0 0 -0.071253859565 
0 0 0.049543538511 0 0 0.08221061403 0 0 0.018615693734 
0 0 -0.023584881538 0 0 0.027307223036 0 0 -0.049305142097 
0 0 -0.064185310984 0 0 -0.051697913748 0 0 0.052754541419 
0 0 -0.034179363226 0 0 0.030872073363 0 0 0.079005430088 
0 0 0.06095372645 0 0 0.036111505027 0 0 0.093740452373 
0 0 0.041019784079 0 0 0.067014329547 0 0 0.071556156135 
0 0 -0.072155589789 0 0 -0.055513103125 0 0 -0.24431862109 
0 0 0.083256712877 0 0 -0.042807189682 0 0 -0.21824556195 
0 0 -0.070200575235 0 0 0.01448056015 0 0 0.053660003575 
0 0 -0.013796612174 0 0 0.067364497115 0 0 0.0094017632894 
0 0 0.03824362391 0 0 0.066388238994 0 0 -0.016781798535 
0 0 -0.0086745881099 0 0 -0.24507908905 0 0 0.092726975175 
0 0 -0.021161632314 0 0 -0.065519940941 0 0 -0.21625597048 
0 0 0.084268951836 0 0 -0.045530935653 0 0 0.048629027281 
0 0 -0.0061327192911 0 0 -0.075698123616 0 0 -0.08700023683 
0 0 0.029843821618 0 0 -0.059309084515 0 0 0.048707458629 
0 0 0.048754359978 0 0 0.092738774248 0 0 0.040972072171 
0 0 -0.0032028514071 0 0 0.069834122588 0 0 0.013247852314 
0 0 -0.048456990152 0 0 -0.066946950031 0 0 -0.030522650251 
0 0 0.062635078492 0 0 -0.0087695718563 0 0 -0.059958625411 
0 0 0.017628820406 0 0 -0.032530704563 0 0 0.059242414387 
0 0 0.042335406237 0 0 -0.034788306603 0 0 -0.053719515033 
0 0 0.072333702613 0 0 -0.069388393836 0 0 0.11523840385 
0 0 0.066539625074 0 0 -0.05662916222 0 0 0.081628543828 
0 0 -0.056133284652 0 0 0.071825070287 0 0 0.058674066122 
0 0 -0.015711877104 0 0 -0.24756629927 0 0 -0.067553489445 
0 0 -0.18348705115 0 0 0.04453381797 0 0 -0.067484717746 
0 0 -0.047201082359 0 0 -0.2472808109 0 0 -0.018246134785 
0 0 -0.065228850864 0 0 0.071044844574 0 0 0.076359265792 
0 0 0.068134632116 0 0 -0.032242720112 0 0 -0.013706315727 
0 0 0.058321665687 0 0 0.068159587248 0 0 0.068119547534 
0 0 0.055272790981 0 0 -0.064494780286 0 0 0.070071755101 
0 0 0.081602743202 0 0 -0.038965515082 0 0 0.076931448337 
0 0 0.063545092756 0 0 -0.047596498226 0 0 -0.040146059209 
0 0 0.09246559349 0 0 0.056552949678 0 0 -0.053281865816 
0 0 0.039631000546 0 0 0.070829581341 0 0 -0.24652705731 
0 0 -0.24441460402 0 0 0.056607944825 0 0 0.04971183688 
0 0 -0.062220255502 0 0 0.081838326556 0 0 -0.065895880166 
0 0 -0.051737608607 0 0 0.070426635554 0 0 0.059185375234 
0 0 -0.061315682347 0 0 -0.042062071673 0 0 0.065202745285 
0 0 -0.04584511882 0 0 0.067952601528 0 0 -0.00027236091516 
0 0 -0.078516345045 0 0 -0.074367090741 0 0 -0.075035959209 
0 0 0.041439240849 0 0 -0.082094333302 0 0 -0.059384397079 
0 0 -0.076484261837 0 0 0.069032451215 0 0 -0.068817476129 
0 0 0.027865104519 0 0 -0.059994492512 0 0 0.082402379149 
0 0 -0.059985275885 0 0 0.072323456539 0 0 0.079521992732 
0 0 0.042045505421 0 0 -0.05533494851 0 0 0.033893142595 
0 0 -0.070276553262 0 0 0.059452829163 0 0 -0.24592371959 
0 0 -0.038440206377 0 0 -0.053129357381 0 0 0.072989632443 
0 0 0.01379954559 0 0 -0.23160073413 0 0 -0.041559272839 
0 0 -0.073046951505 0 0 -0.070747972394 0 0 -0.046708271847 
0 0 0.093166272975 0 0 -0.061062709143 0 0 -0.071087332733 
0 0 -0.067118706453 0 0 0.062022957775 0 0 -0.018708714287 
0 0 -0.014964677013 0 0 -0.032708777847 0 0 -0.24081264035 
0 0 -0.19531811733 0 0 -0.046707024628 0 0 0.038173787399 
0 0 -0.018169265204 0 0 0.038754036268 0 0 -0.029627124485 
0 0 0.0039287048308 0 0 -0.033711706662 0 0 -0.025286930112 
0 0 0.046855258763 0 0 0.029874584592 0 0 -0.019200705768 
0 0 0.013588215195 0 0 0.0013969494604 0 0 -0.0040089022129 
0 0 -0.04207750089 0 0 -0.027364795506 0 0 0.027467435354 
0 0 -0.029576438131 0 0 -0.047450525905 0 0 0.019998988441 
0 0 -0.014407364162 0 0 0.021582029953 0 0 -0.0015445161 
0 0 -0.24085866539 0 0 -0.013329459465 0 0 -0.047792016091 
0 0 0.023959917223 0 0 -0.24281880273 0 0 -0.04846830771 
0 0 0.053055954743 0 0 0.035535240582 0 0 0.014579956998 
0 0 -0.010780607206 0 0 0.048837339651 0 0 -0.037734964456 
0 0 -0.023002123167 0 0 0.035781654221 0 0 0.031973553848 
0 0 0.0043118952472 0 0 -0.0022424296028 0 0 0.037257934618 
0 0 -0.21920884454 0 0 0.024992579802 0 0 0.0017191816726 
0 0 0.052464747288 0 0 -0.23869881465 0 0 -0.04442404877 
0 0 -0.016116962497 0 0 -0.039342907914 0 0 0.024418468491 
0 0 0.039237760126 0 0 -0.01240230787 0 0 0.026750436529 
0 0 -0.04114914965 0 0 0.025275821317 0 0 0.0011223537537 
0 0 0.026596738027 0 0 0.02683641172 0 0 0.017698284772 
0 0 0.030445109614 0 0 0.04310909377 0 0 0.043372129792 
0 0 0.0013034869612 0 0 0.00054552033994 0 0 0.030186740211 
0 0 -0.24146568205 0 0 0.010686081972 0 0 0.016737836221 
0 0 -0.02797110692 0 0 -0.052255329009 0 0 0.036052494925 
0 0 -0.011828312685 0 0 -0.049678042741 0 0 0.005749273908 
0 0 0.050165362997 0 0 -0.014741797788 0 0 0.017927590548 
0 0 0.054473086398 0 0 -0.23814773935 0 0 0.037539398905 
0 0 -0.0020345217851 0 0 0.010596239915 0 0 -0.052704835312 
0 0 -0.013145848541 0 0 -0.032417166992 0 0 -0.0013991911761 
0 0 -0.0036457922412 0 0 0.025928696202 0 0 -0.071095122716 
0 0 0.044423219276 0 0 -0.05613183017 0 0 0.046814611233 
0 0 0.028834621553 0 0 0.0041773957352 0 0 -0.00052892930758 
0 0 0.026973542711 0 0 -0.020356250409 0 0 0.031732471223 
0 0 0.0427509239 0 0 -0.23954512049 0 0 0.031535888219 
0 0 -0.022674475784 0 0 -0.23825156453 0 0 -0.0013860340531 
0 0 0.031001384128 0 0 -0.01823659512 0 0 0.022440479676 
0 0 0.050143705134 0 0 -0.011931700482 0 0 0.0023680426259 
0 0 -0.024981591964 0 0 0.0048383283939 0 0 0.0019670761596 
0 0 0.056038854533 0 0 0.03739272955 0 0 -0.039281204669 
0 0 -0.038655401468 0 0 -0.010193005858 0 0 0.0073499362299 
0 0 0.0008635999038 0 0 0.018575031851 0 0 -0.04062910127 
0 0 -0.02369548548 0 0 -0.033352692996 0 0 -0.018141536599 
0 0 0.033721730498 0 0 0.0052130709731 0 0 -0.0023897884742 
0 0 0.01155225101 0 0 -0.018859730445 0 0 0.035622931315 
0 0 -0.0013093842882 0 0 -0.015115493397 0 0 -0.23815690221 
0 0 0.0089294696346 0 0 0.081393980126 0 0 -0.026574890326 
0 0 0.018156832918 0 0 -0.011428053239 0 0 -0.02588389359 
0 0 -0.026509414631 0 0 -0.029995298129 0 0 0.0090186182696 
0 0 0.032760076591 0 0 0.019824357431 0 0 -0.0030158045983 
0 0 0.013596986067 0 0 -0.014030690965 0 0 -0.0039181675213 
0 0 0.038717610005 0 0 0.030105651023 0 0 -0.034545110635 
0 0 -0.23712933005 0 0 -0.048944420697 0 0 0.03864682432 
0 0 -0.065897965167 0 0 -0.027900669607 0 0 0.012004170106 
0 0 -0.23938189572 0 0 -0.0047594100469 0 0 -0.019327393183 
0 0 -0.0063014349475 0 0 -0.22455723441 0 0 -0.0066222998617 
0 0 -0.0062123328725 0 0 -0.0056893073201 0 0 -0.17532690394 
0 0 -0.036492645253 0 0 0.035691797352 0 0 0.036257440943 
0 0 -0.027531525178 0 0 0.028590447553 0 0 -0.18660794339 
0 0 0.041760255807 0 0 -0.006503102913 0 0 0.032739159238 
0 0 0.038415857622 0 0 -0.0023901149653 0 0 -0.0096437716968 
0 0 0.011378709627 0 0 0.025281623255 0 0 0.013840565291 
0 0 0.042047101426 0 0 -0.05268901987 0 0 -0.02404507191 
0 0 0.038934082256 0 0 -0.013716924902 0 0 0.0039900196313 
0 0 -0.01262046606 0 0 -0.043871311161 0 0 -0.23181400912 
0 0 0.0072284314434 0 0 -0.23410092809 0 0 -0.20887207645 
0 0 -0.008461499182 0 0 -0.20991421093 0 0 -0.028835518895 
0 0 -0.18348083152 0 0 0.012711545626 0 0 -0.23630014502 
0 0 0.0065128963821 0 0 -0.23416317549 0 0 -0.23126734607 
0 0 -0.24275433886 0 0 -0.24433381412 0 0 -0.20550060874 
0 0 0.05107346019 0 0 -0.23559976986 0 0 -0.02602481282 
0 0 -0.16671244985 0 0 -0.15966952432 0 0 -0.2300509973 
0 0 -0.2275101263 0 0 -0.17438501091 0 0 -0.20589342236 
0 0 -0.22628191023 0 0 -0.20724352971 0 0 -0.24104882612 
0 0 -0.22912228699 0 0 -0.15398643449 0 0 -0.17445433477 
0 0 -0.23117858233 0 0 -0.23006489661 0 0 -0.22750944697 
0 0 -0.2255855279 0 0 -0.22531188572 0 0 -0.22946391918 
0 0 -0.20020165314 0 0 -0.22617452226 0 0 -0.20438952776 
0 0 -0.15790006863 0 0 -0.23520159686 0 0 -0.20059172902 
0 0 -0.17277165769 0 0 -0.16300600558 0 0 -0.21574603492 
0 0 -0.12854084954 0 0 -0.1715362686 0 0 -0.1758416418 
0 0 -0.23340840783 0 0 -0.21696865492 0 0 -0.2322158538 
0 0 -0.17321085698 0 0 -0.14506819381 0 0 -0.15500974847 
0 0 -0.14113507241 0 0 -0.16748313152 0 0 -0.2115754545 
0 0 -0.15529823433 0 0 -0.17438935586 0 0 -0.15935839925 
0 0 -0.11380520185 0 0 -0.16618441295 0 0 -0.20331109518 
0 0 -0.14123745611 0 0 -0.16149589719 0 0 -0.18171905743 
0 0 -0.15735705742 0 0 -0.13013707394 0 0 -0.1506973551 
0 0 -0.21150732405 0 0 -0.13470633683 0 0 -0.20300914059 
0 0 -0.12897137269 0 0 -0.073638811111 0 0 -0.19962033896 
0 0 -0.13073565465 0 0 -0.13816323499 0 0 -0.12863911469 
0 0 -0.083202267165 0 0 -0.086538624146 0 0 -0.1300771433 
0 0 -0.093940235261 0 0 -0.076057226771 0 0 -0.1093392446 
0 0 -0.12189812742 0 0 -0.11633024816 0 0 -0.0980808158 
0 0 -0.11555426272 0 0 -0.11139857689 0 0 -0.10514211347 
0 0 -0.083530837294 0 0 -0.093732840604 0 0 -0.08380951384 
0 0 -0.12416571036 0 0 -0.088679173801 0 0 -0.050518035309 
0 0 -0.12980031537 0 0 -0.11385827787 0 0 -0.046278633369 
0 0 -0.091547236779 0 0 -0.046434351834 0 0 -0.016022576023 
0 0 -0.085465975359 0 0 -0.039234665461 0 0 -0.022502340952 
0 0 -0.09069366144 0 0 -0.065147400863 0 0 -0.032165580893 
0 0 -0.059366450911 0 0 -0.021920378313 0 0 -0.049459829205 
0 0 -0.001150030268 0 0 0.0011323829941 0 0 -0.029217075657 
0 0 -0.060831237945 0 0 -0.014432232003 0 0 -0.050540760928 
0 0 -0.044256727588 0 0 0.018201512782 0 0 0.0026005604106 
0 0 -0.030688048472 0 0 -0.033340537472 0 0 -0.13319586008 
0 0 0.030304393546 0 0 -0.016132828675 0 0 -0.18224504578 

f 3 648 double
0 0 0 0 0 -1.7425367252e-10 0 0 -1.7425367252e-10 
0 0 -1.7425367252e-10 0 0 -1.7425367252e-10 0 0 -1.7425367252e-10 
0 0 -1.7425367252e-10 0 0 -1.7425367252e-10 0 0 -1.7425367252e-10 
0 0 -1.7425367252e-10 0 0 -1.7425367252e-10 0 0 -1.7425367252e-10 
0 0 -1.7425367252e-10 0 0 0 0 0 -1.7425367252e-10 
0 0 0 0 0 0 0 0 0 
0 0 -1.7425367252e-10 0 0 -1.7425367252e-10 0 0 -1.7425367252e-10 
0 0 -1.7425367252e-10 0 0 -1.7425367252e-10 0 0 -1.7425367252e-10 
0 0 -1.7425367252e-10 0 0 -1.7425367252e-10 0 0 -1.7425367252e-10 
0 0 -1.7425367252e-10 0 0 0 0 0 0 
0 0 -1.7425367252e-10 0 0 -1.7425367252e-10 0 0 0 
0 0 -1.7425367252e-10 0 0 -1.7425367252e-10 0 0 -1.7425367252e-10 
0 0 -1.7425367252e-10 0 0 0 0 0 0 
0 0 0 0 0 -1.7425367252e-10 0 0 -1.7425367252e-10 
0 0 -1.7425367252e-10 0 0 -1.7425367252e-10 0 0 0 
0 0 -1.7425367252e-10 0 0 -1.7425367252e-10 0 0 0 
0 0 -1.7425367252e-10 0 0 -1.7425367252e-10 0 0 -2.5693469046e-18 
0 0 -1.7425367252e-10 0 0 -1.7425367252e-10 0 0 -1.7425367252e-10 
0 0 -1.7425367252e-10 0 0 -1.7425367252e-10 0 0 -1.7425367252e-10 
0 0 -1.7425367252e-10 0 0 -1.7425367252e-10 0 0 0 
0 0 -1.7425367252e-10 0 0 -1.7425367252e-10 0 0 -1.7425367252e-10 
0 0 -1.7425367252e-10 0 0 1.2111139529e-17 0 0 -1.7425367252e-10 
0 0 0 0 0 -1.7425367252e-10 0 0 0 
0 0 0 0 0 -1.7425367252e-10 0 0 0 
0 0 -1.7425367252e-10 0 0 -1.7425367252e-10 0 0 0 
0 0 0 0 0 -1.7425367252e-10 0 0 -1.7425367252e-10 
0 0 -1.7425367252e-10 0 0 0 0 0 0 
0 0 -1.7425367252e-10 0 0 -1.7425367252e-10 0 0 -1.7425367252e-10 
0 0 0 0 0 0 0 0 -1.7425367252e-10 
0 0 0 0 0 0 0 0 0 
0 0 0 0 0 -1.7425367252e-10 0 0 -1.7425367252e-10 
0 0 0 0 0 -1.7425367252e-10 0 0 -1.7425367252e-10 
0 0 -1.7425367252e-10 0 0 -1.7425367252e-10 0 0 -1.7425367252e-10 
0 0 -1.7425367252e-10 0 0 -1.7425367252e-10 0 0 0 
0 0 0 0 0 -1.7425367252e-10 0 0 -1.7425367252e-10 
0 0 -1.7425367252e-10 0 0 0 0 0 0 
0 0 -1.7425367252e-10 0 0 -1.7425367252e-10 0 0 0 
0 0 0 0 0 0 0 0 -1.7425367252e-10 
0 0 -1.7425367252e-10 0 0 -1.7425367252e-10 0 0 -1.7425367252e-10 
0 0 0 0 0 0 0 0 0 
0 0 -1.7425367252e-10 0 0 -1.7425367252e-10 0 0 -1.7425367252e-10 
0 0 0 0 0 0 0 0 0 
0 0 0 0 0 -1.7425367252e-10 0 0 0 
0 0 -1.7425367252e-10 0 0 -1.7425367252e-10 0 0 -1.7425367252e-10 
0 0 -1.7425367252e-10 0 0 0 0 0 -1.7425367252e-10 
0 0 -1.7425367252e-10 0 0 -1.7425367252e-10 0 0 -1.7425367252e-10 
0 0 -1.7425367252e-10 0 0 -1.7425367252e-10 0 0 -1.7425367252e-10 
0 0 -1.7425367252e-10 0 0 -1.7425367252e-10 0 0 -1.7425367252e-10 
0 0 0 0 0 -1.7425367252e-10 0 0 0 
0 0 -1.7425367252e-10 0 0 0 0 0 -1.7425367252e-10 
0 0 -1.7425367252e-10 0 0 -1.7425367252e-10 0 0 -1.7425367252e-10 
0 0 -1.7425367252e-10 0 0 0 0 0 -1.7425367252e-10 
0 0 -1.7425367252e-10 0 0 -1.7425367252e-10 0 0 -1.7425367252e-10 
0 0 -1.7425367252e-10 0 0 -1.7425367252e-10 0 0 -1.7425367252e-10 
0 0 -1.7425367252e-10 0 0 -1.7425367252e-10 0 0 -1.7425367252e-10 
0 0 -1.7425367252e-10 0 0 -1.7425367252e-10 0 0 -1.7425367252e-10 
0 0 -1.7425367252e-10 0 0 -1.7425367252e-10 0 0 -1.7425367252e-10 
0 0 -1.7425367252e-10 0 0 -1.7425367252e-10 0 0 -1.7425367252e-10 
0 0 -1.7425367252e-10 0 0 -1.7425367252e-10 0 0 -1.7425367252e-10 
0 0 -1.7425367252e-10 0 0 -1.7425367252e-10 0 0 -1.7425367252e-10 
0 0 -1.7425367252e-10 0 0 -1.7425367252e-10 0 0 -1.7425367252e-10 
0 0 -1.7425367252e-10 0 0 -1.7425367252e-10 0 0 -1.7425367252e-10 
0 0 -1.7425367252e-10 0 0 -1.7425367252e-10 0 0 -1.7425367252e-10 
0 0 -1.7425367252e-10 0 0 -1.7425367252e-10 0 0 -1.7425367252e-10 
0 0 -1.7425367252e-10 0 0 -1.7425367252e-10 0 0 -1.7425367252e-10 
0 0 -1.7425367252e-10 0 0 -1.7425367252e-10 0 0 -1.7425367252e-10 
0 0 -1.7425367252e-10 0 0 -1.7425367252e-10 0 0 -1.7425367252e-10 
0 0 -1.7425367252e-10 0 0 -1.7425367252e-10 0 0 -1.7425367252e-10 
0 0 -1.7425367252e-10 0 0 -1.7425367252e-10 0 0 -1.7425367252e-10 
0 0 -1.7425367252e-10 0 0 -1.7425367252e-10 0 0 -1.7425367252e-10 
0 0 -1.7425367252e-10 0 0 -1.7425367252e-10 0 0 -1.7425367252e-10 
0 0 -1.7425367252e-10 0 0 -1.7425367252e-10 0 0 -1.7425367252e-10 
0 0 -1.7425367252e-10 0 0 -1.7425367252e-10 0 0 -8.9019973083e-09 
0 0 -1.7425367252e-10 0 0 -1.7425367252e-10 0 0 -1.7425367252e-10 
0 0 -1.7425367252e-10 0 0 -1.7425367252e-10 0 0 -1.7425367252e-10 
0 0 -1.7425367252e-10 0 0 -1.7425367252e-10 0 0 -1.7425367252e-10 
0 0 -1.7425367252e-10 0 0 -1.7425367252e-10 0 0 -1.7425367252e-10 
0 0 -1.7425367252e-10 0 0 -1.7425367252e-10 0 0 -1.7425367252e-10 
0 0 -1.7425367252e-10 0 0 -1.7425367252e-10 0 0 -6.8918688838e-08 
0 0 -1.7425367252e-10 0 0 -1.7425367252e-10 0 0 -1.7425367252e-10 
0 0 -1.7425367252e-10 0 0 -1.7425367252e-10 0 0 -1.7425367252e-10 
0 0 -1.7425367252e-10 0 0 -1.7425367252e-10 0 0 -1.7425367252e-10 
0 0 -1.7425367252e-10 0 0 -1.7425367252e-10 0 0 -1.7425367252e-10 
0 0 -1.7425367252e-10 0 0 -1.7425367252e-10 0 0 -1.7425367252e-10 
0 0 -1.7425367252e-10 0 0 -1.7425367252e-10 0 0 -1.7425367252e-10 
0 0 -1.7425367252e-10 0 0 -1.7425367252e-10 0 0 -1.7425367252e-10 
0 0 -1.7425367252e-10 0 0 -1.7425367252e-10 0 0 -1.7425367252e-10 
0 0 -1.7425367252e-10 0 0 -1.7425367252e-10 0 0 -1.7425367252e-10 
0 0 -1.7425367252e-10 0 0 -1.7425367252e-10 0 0 -1.7425367252e-10 
0 0 -1.7425367252e-10 0 0 -1.7425367252e-10 0 0 -1.7425367252e-10 
0 0 -1.7425367252e-10 0 0 -1.7425367252e-10 0 0 -1.7425367252e-10 
0 0 -1.7425367252e-10 0 0 -1.7425367252e-10 0 0 -1.7425367252e-10 
0 0 -1.7425367252e-10 0 0 -1.7425367252e-10 0 0 -1.7425367252e-10 
0 0 -1.7425367252e-10 0 0 -1.7425367252e-10 0 0 -1.7425367252e-10 
0 0 -1.7425367252e-10 0 0 -1.7425367252e-10 0 0 -1.7425367252e-10 
0 0 -1.7425367252e-10 0 0 -1.7425367252e-10 0 0 -1.7425367252e-10 
0 0 -1.7425367252e-10 0 0 -1.7425367252e-10 0 0 -1.7425367252e-10 
0 0 -1.7425367252e-10 0 0 -1.7425367252e-10 0 0 -1.7425367252e-10 
0 0 -1.7425367252e-10 0 0 -1.7425367252e-10 0 0 -1.7425367252e-10 
0 0 -1.7425367252e-10 0 0 -1.7425367252e-10 0 0 -1.7425367252e-10 
0 0 -1.7425367252e-10 0 0 -1.7425367252e-10 0 0 -1.7425367252e-10 
0 0 -1.7425367252e-10 0 0 -1.7425367252e-10 0 0 -1.7425367252e-10 
0 0 -1.7425367252e-10 0 0 -1.7425367252e-10 0 0 -1.7425367252e-10 
0 0 -1.7425367252e-10 0 0 -1.7425367252e-10 0 0 -1.7425367252e-10 
0 0 -1.7425367252e-10 0 0 -1.7425367252e-10 0 0 -1.7425367252e-10 
0 0 -1.7425367252e-10 0 0 -1.7425367252e-10 0 0 -1.7425367252e-10 
0 0 -1.7425367252e-10 0 0 -1.7425367252e-10 0 0 -1.7425367252e-10 
0 0 -1.7425367252e-10 0 0 -1.7425367252e-10 0 0 -1.7425367252e-10 
0 0 -1.7425367252e-10 0 0 -1.7425367252e-10 0 0 -1.7425367252e-10 
0 0 -1.7425367252e-10 0 0 -1.7425367252e-10 0 0 -1.7425367252e-10 
0 0 -1.7425367252e-10 0 0 -1.7425367252e-10 0 0 -1.7425367252e-10 
0 0 -1.7425367252e-10 0 0 -1.7425367252e-10 0 0 -1.7425367252e-10 
0 0 -1.7425367252e-10 0 0 -1.7425367252e-10 0 0 -1.7425367252e-10 
0 0 -1.7425367252e-10 0 0 -1.7425367252e-10 0 0 -1.7425367252e-10 
0 0 -1.7425367252e-10 0 0 -1.7425367252e-10 0 0 -1.7425367252e-10 
0 0 -1.7425367252e-10 0 0 -1.7425367252e-10 0 0 -1.7425367252e-10 
0 0 -1.7425367252e-10 0 0 -1.7425367252e-10 0 0 -1.7425367252e-10 
0 0 -1.7425367252e-10 0 0 -1.7425367252e-10 0 0 -1.7425367252e-10 
0 0 -1.7425367252e-10 0 0 -1.7425367252e-10 0 0 -1.7425367252e-10 
0 0 -1.7425367252e-10 0 0 -1.7425367252e-10 0 0 -1.7425367252e-10 
0 0 -1.7425367252e-10 0 0 -1.7425367252e-10 0 0 -1.7425367252e-10 
0 0 -1.7425367252e-10 0 0 -1.7425367252e-10 0 0 -1.7425367252e-10 
0 0 -1.7425367252e-10 0 0 -1.7425367252e-10 0 0 -1.7425367252e-10 
0 0 -1.7425367252e-10 0 0 -1.7425367252e-10 0 0 -1.7425367252e-10 
0 0 -1.7425367252e-10 0 0 -1.7425367252e-10 0 0 -1.7425367252e-10 
0 0 -1.7425367252e-10 0 0 -1.7425367252e-10 0 0 -1.7425367252e-10 
0 0 -1.7425367252e-10 0 0 -1.7425367252e-10 0 0 -1.7425367252e-10 
0 0 -1.7425367252e-10 0 0 -1.7425367252e-10 0 0 -1.7425367252e-10 
0 0 -1.7425367252e-10 0 0 -1.7425367252e-10 0 0 -1.7425367252e-10 
0 0 -1.7425367252e-10 0 0 -1.7425367252e-10 0 0 -1.7425367252e-10 
0 0 -1.7425367252e-10 0 0 -1.7425367252e-10 0 0 -1.7425367252e-10 
0 0 -1.7425367252e-10 0 0 -1.7425367252e-10 0 0 -1.7425367252e-10 
0 0 -1.7425367252e-10 0 0 -1.7425367252e-10 0 0 -1.7425367252e-10 
0 0 -1.7425367252e-10 0 0 -1.7425367252e-10 0 0 -1.7425367252e-10 
0 0 -1.7425367252e-10 0 0 -1.7425367252e-10 0 0 -1.7425367252e-10 
0 0 -1.7425367252e-10 0 0 -1.7425367252e-10 0 0 -1.7425367252e-10 
0 0 -1.7425367252e-10 0 0 -1.7425367252e-10 0 0 -1.7425367252e-10 
0 0 -1.7425367252e-10 0 0 -1.7425367252e-10 0 0 -1.7425367252e-10 
0 0 -1.7425367252e-10 0 0 -1.7425367252e-10 0 0 -1.7425367252e-10 
0 0 -1.7425367252e-10 0 0 -1.7425367252e-10 0 0 -8.9019973083e-09 
0 0 -1.7425367252e-10 0 0 -1.7425367252e-10 0 0 -1.7425367252e-10 
0 0 -1.7425367252e-10 0 0 -1.7425367252e-10 0 0 -1.7425367252e-10 
0 0 -1.7425367252e-10 0 0 -1.7425367252e-10 0 0 -1.7425367252e-10 
0 0 -1.7425367252e-10 0 0 -1.7425367252e-10 0 0 -1.7425367252e-10 
0 0 -1.7425367252e-10 0 0 -1.7425367252e-10 0 0 -1.7425367252e-10 
0 0 -1.7425367252e-10 0 0 -1.7425367252e-10 0 0 -1.7425367252e-10 
0 0 -1.7425367252e-10 0 0 -1.7425367252e-10 0 0 -1.7425367252e-10 
0 0 -1.7425367252e-10 0 0 -1.7425367252e-10 0 0 -1.7425367252e-10 
0 0 -1.7425367252e-10 0 0 -1.7425367252e-10 0 0 -1.7425367252e-10 
0 0 -1.7425367252e-10 0 0 -1.7425367252e-10 0 0 -1.7425367252e-10 
0 0 -1.7425367252e-10 0 0 -1.7425367252e-10 0 0 -1.7425367252e-10 
0 0 -1.7425367252e-10 0 0 -1.7425367252e-10 0 0 -1.7425367252e-10 
0 0 -1.7425367252e-10 0 0 -1.7425367252e-10 0 0 -1.7425367252e-10 
0 0 -1.7425367252e-10 0 0 -1.7425367252e-10 0 0 -1.7425367252e-10 
0 0 -1.7425367252e-10 0 0 -1.7425367252e-10 0 0 -1.7425367252e-10 
0 0 -1.7425367252e-10 0 0 -8.9019973083e-09 0 0 -1.7425367252e-10 
0 0 -1.7425367252e-10 0 0 -1.7425367252e-10 0 0 -1.7425367252e-10 
0 0 -1.7425367252e-10 0 0 -1.7425367252e-10 0 0 -1.7425367252e-10 
0 0 -1.7425367252e-10 0 0 -1.7425367252e-10 0 0 -1.7425367252e-10 
0 0 -1.7425367252e-10 0 0 -1.7425367252e-10 0 0 -1.7425367252e-10 
0 0 -1.7425367252e-10 0 0 -1.7425367252e-10 0 0 -1.7425367252e-10 
0 0 -1.7425367252e-10 0 0 -8.9019973083e-09 0 0 -1.7425367252e-10 
0 0 -8.9019973083e-09 0 0 -1.7425367252e-10 0 0 -1.7425367252e-10 
0 0 -1.7425367252e-10 0 0 -1.7425367252e-10 0 0 -1.7425367252e-10 
0 0 -1.7425367252e-10 0 0 -1.7425367252e-10 0 0 -1.7425367252e-10 
0 0 -1.7425367252e-10 0 0 -1.7425367252e-10 0 0 -1.7425367252e-10 
0 0 -1.7425367252e-10 0 0 -1.7425367252e-10 0 0 -1.7425367252e-10 
0 0 -1.7425367252e-10 0 0 -1.7425367252e-10 0 0 -1.7425367252e-10 
0 0 -1.7425367252e-10 0 0 -1.7425367252e-10 0 0 -1.7425367252e-10 
0 0 -1.7425367252e-10 0 0 -1.7425367252e-10 0 0 -1.7425367252e-10 
0 0 -1.7425367252e-10 0 0 -1.7425367252e-10 0 0 -1.7425367252e-10 
0 0 -1.7425367252e-10 0 0 -1.7425367252e-10 0 0 -1.7425367252e-10 
0 0 -1.7425367252e-10 0 0 -1.7425367252e-10 0 0 -1.7425367252e-10 
0 0 -1.7425367252e-10 0 0 -1.7425367252e-10 0 0 -1.7425367252e-10 
0 0 -8.9019973083e-09 0 0 -1.7425367252e-10 0 0 -1.7425367252e-10 
0 0 -8.9019973083e-09 0 0 -1.7425367252e-10 0 0 -8.9019973083e-09 
0 0 -1.7425367252e-10 0 0 -8.9019973083e-09 0 0 -1.7425367252e-10 
0 0 -8.9019973083e-09 0 0 -1.7425367252e-10 0 0 -1.7425367252e-10 
0 0 -1.7425367252e-10 0 0 -1.7425367252e-10 0 0 -1.7425367252e-10 
0 0 -8.9019973083e-09 0 0 -1.7425367252e-10 0 0 -8.9019973083e-09 
0 0 -1.7425367252e-10 0 0 -1.7425367252e-10 0 0 -1.7425367252e-10 
0 0 -1.7425367252e-10 0 0 -1.7425367252e-10 0 0 -1.7425367252e-10 
0 0 -1.7425367252e-10 0 0 -1.7425367252e-10 0 0 -1.7425367252e-10 
0 0 -1.7425367252e-10 0 0 -1.7425367252e-10 0 0 -1.7425367252e-10 
0 0 -1.7425367252e-10 0 0 -1.7425367252e-10 0 0 -1.7425367252e-10 
0 0 -1.7425367252e-10 0 0 -1.7425367252e-10 0 0 -1.7425367252e-10 
0 0 -1.7425367252e-10 0 0 -1.7425367252e-10 0 0 -1.7425367252e-10 
0 0 -1.7425367252e-10 0 0 -1.7425367252e-10 0 0 -1.7425367252e-10 
0 0 -1.7425367252e-10 0 0 -1.7425367252e-10 0 0 -1.7425367252e-10 
0 0 -1.7425367252e-10 0 0 -1.7425367252e-10 0 0 -1.7425367252e-10 
0 0 -8.9019973083e-09 0 0 -1.7425367252e-10 0 0 -8.9019973083e-09 
0 0 -1.7425367252e-10 0 0 -1.7425367252e-10 0 0 -1.7425367252e-10 
0 0 -1.7425367252e-10 0 0 -1.7425367252e-10 0 0 -1.7425367252e-10 
0 0 -1.7425367252e-10 0 0 -1.7425367252e-10 0 0 -1.7425367252e-10 
0 0 -1.7425367252e-10 0 0 -1.7425367252e-10 0 0 -8.9019973083e-09 
0 0 -1.7425367252e-10 0 0 -1.7425367252e-10 0 0 -1.7425367252e-10 
0 0 -1.7425367252e-10 0 0 -1.7425367252e-10 0 0 -1.7425367252e-10 
0 0 -1.7425367252e-10 0 0 -1.7425367252e-10 0 0 -1.7425367252e-10 
0 0 -1.7425367252e-10 0 0 -1.7425367252e-10 0 0 -1.7425367252e-10 
0 0 -1.7425367252e-10 0 0 -1.7425367252e-10 0 0 -1.7425367252e-10 
0 0 -1.7425367252e-10 0 0 -1.7425367252e-10 0 0 -1.7425367252e-10 
0 0 -1.7425367252e-10 0 0 -1.7425367252e-10 0 0 -1.7425367252e-10 
0 0 -1.7425367252e-10 0 0 -1.7425367252e-10 0 0 -1.7425367252e-10 
0 0 -1.7425367252e-10 0 0 -1.7425367252e-10 0 0 -1.7425367252e-10 
0 0 -1.7425367252e-10 0 0 -1.7425367252e-10 0 0 -1.7425367252e-10 
0 0 -1.7425367252e-10 0 0 -1.7425367252e-10 0 0 -1.7425367252e-10 
0 0 -1.7425367252e-10 0 0 -1.7425367252e-10 0 0 -1.7425367252e-10 
0 0 -1.7425367252e-10 0 0 -1.7425367252e-10 0 0 -1.7425367252e-10 
0 0 -1.7425367252e-10 0 0 -1.7425367252e-10 0 0 -1.7425367252e-10 
0 0 -1.7425367252e-10 0 0 -1.7425367252e-10 0 0 -1.7425367252e-10 
0 0 -1.7425367252e-10 0 0 -1.7425367252e-10 0 0 -1.7425367252e-10 
0 0 -1.7425367252e-10 0 0 -1.7425367252e-10 0 0 -1.7425367252e-10 
0 0 -1.7425367252e-10 0 0 -1.7425367252e-10 0 0 -8.9019973083e-09 
0 0 -1.7425367252e-10 0 0 -1.7425367252e-10 0 0 -1.7425367252e-10 
0 0 -1.7425367252e-10 0 0 -1.7425367252e-10 0 0 -8.9019973083e-09 
0 0 -1.7425367252e-10 0 0 -1.7425367252e-10 0 0 -5.3297119368e-07 

radius 1 648 double
2e-05 2e-05 2e-05 2e-05 2e-05 2e-05 2e-05 2e-05 2e-05 
2e-05 2e-05 2e-05 2e-05 2e-05 2e-05 2e-05 2e-05 2e-05 
2e-05 2e-05 2e-05 2e-05 2e-05 2e-05 2e-05 2e-05 2e-05 
2e-05 2e-05 2e-05 2e-05 2e-05 2e-05 2e-05 2e-05 2e-05 
2e-05 2e-05 2e-05 2e-05 2e-05 2e-05 2e-05 2e-05 2e-05 
2e-05 2e-05 2e-05 2e-05 2e-05 2e-05 2e-05 2e-05 2e-05 
2e-05 2e-05 2e-05 2e-05 2e-05 2e-05 2e-05 2e-05 2e-05 
2e-05 2e-05 2e-05 2e-05 2e-05 2e-05 2e-05 2e-05 2e-05 
2e-05 2e-05 2e-05 2e-05 2e-05 2e-05 2e-05 2e-05 2e-05 
2e-05 2e-05 2e-05 2e-05 2e-05 2e-05 2e-05 2e-05 2e-05 
2e-05 2e-05 2e-05 2e-05 2e-05 2e-05 2e-05 2e-05 2e-05 
2e-05 2e-05 2e-05 2e-05 2e-05 2e-05 2e-05 2e-05 2e-05 
2e-05 2e-05 2e-05 2e-05 2e-05 2e-05 2e-05 2e-05 2e-05 
2e-05 2e-05 2e-05 2e-05 2e-05 2e-05 2e-05 2e-05 2e-05 
2e-05 2e-05 2e-05 2e-05 2e-05 2e-05 2e-05 2e-05 2e-05 
2e-05 2e-05 2e-05 2e-05 2e-05 2e-05 2e-05 2e-05 2e-05 
2e-05 2e-05 2e-05 2e-05 2e-05 2e-05 2e-05 2e-05 2e-05 
2e-05 2e-05 2e-05 2e-05 2e-05 2e-05 2e-05 2e-05 2e-05 
2e-05 2e-05 2e-05 2e-05 2e-05 2e-05 2e-05 2e-05 2e-05 
2e-05 2e-05 2e-05 2e-05 2e-05 2e-05 2e-05 2e-05 2e-05 
2e-05 2e-05 2e-05 2e-05 2e-05 2e-05 2e-05 2e-05 2e-05 
2e-05 2e-05 2e-05 2e-05 2e-05 2e-05 2e-05 2e-05 2e-05 
2e-05 2e-05 2e-05 2e-05 2e-05 2e-05 2e-05 2e-05 2e-05 
2e-05 2e-05 2e-05 2e-05 2e-05 2e-05 2e-05 2e-05 2e-05 
2e-05 2e-05 7.5e-05 2e-05 2e-05 2e-05 2e-05 2e-05 2e-05 
2e-05 2e-05 2e-05 2e-05 2e-05 2e-05 2e-05 2e-05 2e-05 
2e-05 2e-05 0.00015 2e-05 2e-05 2e-05 2e-05 2e-05 2e-05 
2e-05 2e-05 2e-05 2e-05 2e-05 2e-05 2e-05 2e-05 2e-05 
2e-05 2e-05 2e-05 2e-05 2e-05 2e-05 2e-05 2e-05 2e-05 
2e-05 2e-05 2e-05 2e-05 2e-05 2e-05 2e-05 2e-05 2e-05 
2e-05 2e-05 2e-05 2e-05 2e-05 2e-05 2e-05 2e-05 2e-05 
2e-05 2e-05 2e-05 2e-05 2e-05 2e-05 2e-05 2e-05 2e-05 
2e-05 2e-05 2e-05 2e-05 2e-05 2e-05 2e-05 2e-05 2e-05 
2e-05 2e-05 2e-05 2e-05 2e-05 2e-05 2e-05 2e-05 2e-05 
2e-05 2e-05 2e-05 2e-05 2e-05 2e-05 2e-05 2e-05 2e-05 
2e-05 2e-05 2e-05 2e-05 2e-05 2e-05 2e-05 2e-05 2e-05 
2e-05 2e-05 2e-05 2e-05 2e-05 2e-05 2e-05 2e-05 2e-05 
2e-05 2e-05 2e-05 2e-05 2e-05 2e-05 2e-05 2e-05 2e-05 
2e-05 2e-05 2e-05 2e-05 2e-05 2e-05 2e-05 2e-05 2e-05 
2e-05 2e-05 2e-05 2e-05 2e-05 2e-05 2e-05 2e-05 2e-05 
2e-05 2e-05 2e-05 2e-05 2e-05 2e-05 2e-05 2e-05 2e-05 
2e-05 2e-05 2e-05 2e-05 2e-05 2e-05 2e-05 2e-05 2e-05 
2e-05 2e-05 2e-05 2e-05 2e-05 2e-05 2e-05 2e-05 2e-05 
2e-05 2e-05 2e-05 2e-05 2e-05 2e-05 2e-05 2e-05 2e-05 
2e-05 2e-05 2e-05 2e-05 2e-05 2e-05 2e-05 2e-05 2e-05 
2e-05 2e-05 2e-05 2e-05 2e-05 2e-05 2e-05 2e-05 2e-05 
2e-05 2e-05 2e-05 2e-05 2e-05 7.5e-05 2e-05 2e-05 2e-05 
2e-05 2e-05 2e-05 2e-05 2e-05 2e-05 2e-05 2e-05 2e-05 
2e-05 2e-05 2e-05 2e-05 2e-05 2e-05 2e-05 2e-05 2e-05 
2e-05 2e-05 2e-05 2e-05 2e-05 2e-05 2e-05 2e-05 2e-05 
2e-05 2e-05 2e-05 2e-05 2e-05 2e-05 2e-05 2e-05 2e-05 
2e-05 2e-05 2e-05 2e-05 2e-05 2e-05 2e-05 7.5e-05 2e-05 
2e-05 2e-05 2e-05 2e-05 2e-05 2e-05 2e-05 2e-05 2e-05 
2e-05 2e-05 2e-05 2e-05 2e-05 2e-05 2e-05 7.5e-05 2e-05 
7.5e-05 2e-05 2e-05 2e-05 2e-05 2e-05 2e-05 2e-05 2e-05 
2e-05 2e-05 2e-05 2e-05 2e-05 2e-05 2e-05 2e-05 2e-05 
2e-05 2e-05 2e-05 2e-05 2e-05 2e-05 2e-05 2e-05 2e-05 
2e-05 2e-05 2e-05 2e-05 2e-05 2e-05 2e-05 2e-05 2e-05 
7.5e-05 2e-05 2e-05 7.5e-05 2e-05 7.5e-05 2e-05 7.5e-05 2e-05 
7.5e-05 2e-05 2e-05 2e-05 2e-05 2e-05 7.5e-05 2e-05 7.5e-05 
2e-05 2e-05 2e-05 2e-05 2e-05 2e-05 2e-05 2e-05 2e-05 
2e-05 2e-05 2e-05 2e-05 2e-05 2e-05 2e-05 2e-05 2e-05 
2e-05 2e-05 2e-05 2e-05 2e-05 2e-05 2e-05 2e-05 2e-05 
2e-05 2e-05 2e-05 7.5e-05 2e-05 7.5e-05 2e-05 2e-05 2e-05 
2e-05 2e-05 2e-05 2e-05 2e-05 2e-05 2e-05 2e-05 7.5e-05 
2e-05 2e-05 2e-05 2e-05 2e-05 2e-05 2e-05 2e-05 2e-05 
2e-05 2e-05 2e-05 2e-05 2e-05 2e-05 2e-05 2e-05 2e-05 
2e-05 2e-05 2e-05 2e-05 2e-05 2e-05 2e-05 2e-05 2e-05 
2e-05 2e-05 2e-05 2e-05 2e-05 2e-05 2e-05 2e-05 2e-05 
2e-05 2e-05 2e-05 2e-05 2e-05 2e-05 2e-05 2e-05 2e-05 
2e-05 2e-05 2e-05 2e-05 2e-05 2e-05 2e-05 2e-05 7.5e-05 
2e-05 2e-05 2e-05 2e-05 2e-05 7.5e-05 2e-05 2e-05 0.0003 

omega 3 648 double
0 0 0 0 0 0 0 0 0 
0 0 0 0 0 0 0 0 0 
0 0 0 0 0 0 0 0 0 
0 0 0 0 0 0 0 0 0 
0 0 0 0 0 0 0 0 0 
0 0 0 0 0 0 0 0 0 
0 0 0 0 0 0 0 0 0 
0 0 0 0 0 0 0 0 0 
0 0 0 0 0 0 0 0 0 
0 0 0 0 0 0 0 0 0 
0 0 0 0 0 0 0 0 0 
0 0 0 0 0 0 0 0 0 
0 0 0 0 0 0 0 0 0 
0 0 0 0 0 0 0 0 0 
0 0 0 0 0 0 0 0 0 
0 0 0 0 0 0 0 0 0 
0 0 0 0 0 0 0 0 0 
0 0 0 0 0 0 0 0 0 
0 0 0 0 0 0 0 0 0 
0 0 0 0 0 0 0 0 0 
0 0 0 0 0 0 0 0 0 
0 0 0 0 0 0 0 0 0 
0 0 0 0 0 0 0 0 0 
0 0 0 0 0 0 0 0 0 
0 0 0 0 0 0 0 0 0 
0 0 0 0 0 0 0 0 0 
0 0 0 0 0 0 0 0 0 
0 0 0 0 0 0 0 0 0 
0 0 0 0 0 0 0 0 0 
0 0 0 0 0 0 0 0 0 
0 0 0 0 0 0 0 0 0 
0 0 0 0 0 0 0 0 0 
0 0 0 0 0 0 0 0 0 
0 0 0 0 0 0 0 0 0 
0 0 0 0 0 0 0 0 0 
0 0 0 0 0 0 0 0 0 
0 0 0 0 0 0 0 0 0 
0 0 0 0 0 0 0 0 0 
0 0 0 0 0 0 0 0 0 
0 0 0 0 0 0 0 0 0 
0 0 0 0 0 0 0 0 0 
0 0 0 0 0 0 0 0 0 
0 0 0 0 0 0 0 0 0 
0 0 0 0 0 0 0 0 0 
0 0 0 0 0 0 0 0 0 
0 0 0 0 0 0 0 0 0 
0 0 0 0 0 0 0 0 0 
0 0 0 0 0 0 0 0 0 
0 0 0 0 0 0 0 0 0 
0 0 0 0 0 0 0 0 0 
0 0 0 0 0 0 0 0 0 
0 0 0 0 0 0 0 0 0 
0 0 0 0 0 0 0 0 0 
0 0 0 0 0 0 0 0 0 
0 0 0 0 0 0 0 0 0 
0 0 0 0 0 0 0 0 0 
0 0 0 0 0 0 0 0 0 
0 0 0 0 0 0 0 0 0 
0 0 0 0 0 0 0 0 0 
0 0 0 0 0 0 0 0 0 
0 0 0 0 0 0 0 0 0 
0 0 0 0 0 0 0 0 0 
0 0 0 0 0 0 0 0 0 
0 0 0 0 0 0 0 0 0 
0 0 0 0 0 0 0 0 0 
0 0 0 0 0 0 0 0 0 
0 0 0 0 0 0 0 0 0 
0 0 0 0 0 0 0 0 0 
0 0 0 0 0 0 0 0 0 
0 0 0 0 0 0 0 0 0 
0 0 0 0 0 0 0 0 0 
0 0 0 0 0 0 0 0 0 
0 0 0 0 0 0 0 0 0 
0 0 0 0 0 0 0 0 0 
0 0 0 0 0 0 0 0 0 
0 0 0 0 0 0 0 0 0 
0 0 0 0 0 0 0 0 0 
0 0 0 0 0 0 0 0 0 
0 0 0 0 0 0 0 0 0 
0 0 0 0 0 0 0 0 0 
0 0 0 0 0 0 0 0 0 
0 0 0 0 0 0 0 0 0 
0 0 0 0 0 0 0 0 0 
0 0 0 0 0 0 0 0 0 
0 0 0 0 0 0 0 0 0 
0 0 0 0 0 0 0 0 0 
0 0 0 0 0 0 0 0 0 
0 0 0 0 0 0 0 0 0 
0 0 0 0 0 0 0 0 0 
0 0 0 0 0 0 0 0 0 
0 0 0 0 0 0 0 0 0 
0 0 0 0 0 0 0 0 0 
0 0 0 0 0 0 0 0 0 
0 0 0 0 0 0 0 0 0 
0 0 0 0 0 0 0 0 0 
0 0 0 0 0 0 0 0 0 
0 0 0 0 0 0 0 0 0 
0 0 0 0 0 0 0 0 0 
0 0 0 0 0 0 0 0 0 
0 0 0 0 0 0 0 0 0 
0 0 0 0 0 0 0 0 0 
0 0 0 0 0 0 0 0 0 
0 0 0 0 0 0 0 0 0 
0 0 0 0 0 0 0 0 0 
0 0 0 0 0 0 0 0 0 
0 0 0 0 0 0 0 0 0 
0 0 0 0 0 0 0 0 0 
0 0 0 0 0 0 0 0 0 
0 0 0 0 0 0 0 0 0 
0 0 0 0 0 0 0 0 0 
0 0 0 0 0 0 0 0 0 
0 0 0 0 0 0 0 0 0 
0 0 0 0 0 0 0 0 0 
0 0 0 0 0 0 0 0 0 
0 0 0 0 0 0 0 0 0 
0 0 0 0 0 0 0 0 0 
0 0 0 0 0 0 0 0 0 
0 0 0 0 0 0 0 0 0 
0 0 0 0 0 0 0 0 0 
0 0 0 0 0 0 0 0 0 
0 0 0 0 0 0 0 0 0 
0 0 0 0 0 0 0 0 0 
0 0 0 0 0 0 0 0 0 
0 0 0 0 0 0 0 0 0 
0 0 0 0 0 0 0 0 0 
0 0 0 0 0 0 0 0 0 
0 0 0 0 0 0 0 0 0 
0 0 0 0 0 0 0 0 0 
0 0 0 0 0 0 0 0 0 
0 0 0 0 0 0 0 0 0 
0 0 0 0 0 0 0 0 0 
0 0 0 0 0 0 0 0 0 
0 0 0 0 0 0 0 0 0 
0 0 0 0 0 0 0 0 0 
0 0 0 0 0 0 0 0 0 
0 0 0 0 0 0 0 0 0 
0 0 0 0 0 0 0 0 0 
0 0 0 0 0 0 0 0 0 
0 0 0 0 0 0 0 0 0 
0 0 0 0 0 0 0 0 0 
0 0 0 0 0 0 0 0 0 
0 0 0 0 0 0 0 0 0 
0 0 0 0 0 0 0 0 0 
0 0 0 0 0 0 0 0 0 
0 0 0 0 0 0 0 0 0 
0 0 0 0 0 0 0 0 0 
0 0 0 0 0 0 0 0 0 
0 0 0 0 0 0 0 0 0 
0 0 0 0 0 0 0 0 0 
0 0 0 0 0 0 0 0 0 
0 0 0 0 0 0 0 0 0 
0 0 0 0 0 0 0 0 0 
0 0 0 0 0 0 0 0 0 
0 0 0 0 0 0 0 0 0 
0 0 0 0 0 0 0 0 0 
0 0 0 0 0 0 0 0 0 
0 0 0 0 0 0 0 0 0 
0 0 0 0 0 0 0 0 0 
0 0 0 0 0 0 0 0 0 
0 0 0 0 0 0 0 0 0 
0 0 0 0 0 0 0 0 0 
0 0 0 0 0 0 0 0 0 
0 0 0 0 0 0 0 0 0 
0 0 0 0 0 0 0 0 0 
0 0 0 0 0 0 0 0 0 
0 0 0 0 0 0 0 0 0 
0 0 0 0 0 0 0 0 0 
0 0 0 0 0 0 0 0 0 
0 0 0 0 0 0 0 0 0 
0 0 0 0 0 0 0 0 0 
0 0 0 0 0 0 0 0 0 
0 0 0 0 0 0 0 0 0 
0 0 0 0 0 0 0 0 0 
0 0 0 0 0 0 0 0 0 
0 0 0 0 0 0 0 0 0 
0 0 0 0 0 0 0 0 0 
0 0 0 0 0 0 0 0 0 
0 0 0 0 0 0 0 0 0 
0 0 0 0 0 0 0 0 0 
0 0 0 0 0 0 0 0 0 
0 0 0 0 0 0 0 0 0 
0 0 0 0 0 0 0 0 0 
0 0 0 0 0 0 0 0 0 
0 0 0 0 0 0 0 0 0 
0 0 0 0 0 0 0 0 0 
0 0 0 0 0 0 0 0 0 
0 0 0 0 0 0 0 0 0 
0 0 0 0 0 0 0 0 0 
0 0 0 0 0 0 0 0 0 
0 0 0 0 0 0 0 0 0 
0 0 0 0 0 0 0 0 0 
0 0 0 0 0 0 0 0 0 
0 0 0 0 0 0 0 0 0 
0 0 0 0 0 0 0 0 0 
0 0 0 0 0 0 0 0 0 
0 0 0 0 0 0 0 0 0 
0 0 0 0 0 0 0 0 0 
0 0 0 0 0 0 0 0 0 
0 0 0 0 0 0 0 0 0 
0 0 0 0 0 0 0 0 0 
0 0 0 0 0 0 0 0 0 
0 0 0 0 0 0 0 0 0 
0 0 0 0 0 0 0 0 0 
0 0 0 0 0 0 0 0 0 
0 0 0 0 0 0 0 0 0 
0 0 0 0 0 0 0 0 0 
0 0 0 0 0 0 0 0 0 
0 0 0 0 0 0 0 0 0 
0 0 0 0 0 0 0 0 0 
0 0 0 0 0 0 0 0 0 
0 0 0 0 0 0 0 0 0 
0 0 0 0 0 0 0 0 0 
0 0 0 0 0 0 0 0 0 
0 0 0 0 0 0 0 0 0 
0 0 0 0 0 0 0 0 0 
0 0 0 0 0 0 0 0 0 

fx_mag_viz 1 648 double
0 0 0 0 0 0 0 0 0 
0 0 0 0 0 0 0 0 0 
0 0 0 0 0 0 0 0 0 
0 0 0 0 0 0 0 0 0 
0 0 0 0 0 0 0 0 0 
0 0 0 0 0 0 0 0 0 
0 0 0 0 0 0 0 0 0 
0 0 0 0 0 0 0 0 0 
0 0 0 0 0 0 0 0 0 
0 0 0 0 0 0 0 0 0 
0 0 0 0 0 0 0 0 0 
0 0 0 0 0 0 0 0 0 
0 0 0 0 0 0 0 0 0 
0 0 0 0 0 0 0 0 0 
0 0 0 0 0 0 0 0 0 
0 0 0 0 0 0 0 0 0 
0 0 0 0 0 0 0 0 0 
0 0 0 0 0 0 0 0 0 
0 0 0 0 0 0 0 0 0 
0 0 0 0 0 0 0 0 0 
0 0 0 0 0 0 0 0 0 
0 0 0 0 0 0 0 0 0 
0 0 0 0 0 0 0 0 0 
0 0 0 0 0 0 0 0 0 
0 0 0 0 0 0 0 0 0 
0 0 0 0 0 0 0 0 0 
0 0 0 0 0 0 0 0 0 
0 0 0 0 0 0 0 0 0 
0 0 0 0 0 0 0 0 0 
0 0 0 0 0 0 0 0 0 
0 0 0 0 0 0 0 0 0 
0 0 0 0 0 0 0 0 0 
0 0 0 0 0 0 0 0 0 
0 0 0 0 0 0 0 0 0 
0 0 0 0 0 0 0 0 0 
0 0 0 0 0 0 0 0 0 
0 0 0 0 0 0 0 0 0 
0 0 0 0 0 0 0 0 0 
0 0 0 0 0 0 0 0 0 
0 0 0 0 0 0 0 0 0 
0 0 0 0 0 0 0 0 0 
0 0 0 0 0 0 0 0 0 
0 0 0 0 0 0 0 0 0 
0 0 0 0 0 0 0 0 0 
0 0 0 0 0 0 0 0 0 
0 0 0 0 0 0 0 0 0 
0 0 0 0 0 0 0 0 0 
0 0 0 0 0 0 0 0 0 
0 0 0 0 0 0 0 0 0 
0 0 0 0 0 0 0 0 0 
0 0 0 0 0 0 0 0 0 
0 0 0 0 0 0 0 0 0 
0 0 0 0 0 0 0 0 0 
0 0 0 0 0 0 0 0 0 
0 0 0 0 0 0 0 0 0 
0 0 0 0 0 0 0 0 0 
0 0 0 0 0 0 0 0 0 
0 0 0 0 0 0 0 0 0 
0 0 0 0 0 0 0 0 0 
0 0 0 0 0 0 0 0 0 
0 0 0 0 0 0 0 0 0 
0 0 0 0 0 0 0 0 0 
0 0 0 0 0 0 0 0 0 
0 0 0 0 0 0 0 0 0 
0 0 0 0 0 0 0 0 0 
0 0 0 0 0 0 0 0 0 
0 0 0 0 0 0 0 0 0 
0 0 0 0 0 0 0 0 0 
0 0 0 0 0 0 0 0 0 
0 0 0 0 0 0 0 0 0 
0 0 0 0 0 0 0 0 0 
0 0 0 0 0 0 0 0 0 

fy_mag_viz 1 648 double
0 0 0 0 0 0 0 0 0 
0 0 0 0 0 0 0 0 0 
0 0 0 0 0 0 0 0 0 
0 0 0 0 0 0 0 0 0 
0 0 0 0 0 0 0 0 0 
0 0 0 0 0 0 0 0 0 
0 0 0 0 0 0 0 0 0 
0 0 0 0 0 0 0 0 0 
0 0 0 0 0 0 0 0 0 
0 0 0 0 0 0 0 0 0 
0 0 0 0 0 0 0 0 0 
0 0 0 0 0 0 0 0 0 
0 0 0 0 0 0 0 0 0 
0 0 0 0 0 0 0 0 0 
0 0 0 0 0 0 0 0 0 
0 0 0 0 0 0 0 0 0 
0 0 0 0 0 0 0 0 0 
0 0 0 0 0 0 0 0 0 
0 0 0 0 0 0 0 0 0 
0 0 0 0 0 0 0 0 0 
0 0 0 0 0 0 0 0 0 
0 0 0 0 0 0 0 0 0 
0 0 0 0 0 0 0 0 0 
0 0 0 0 0 0 0 0 0 
0 0 0 0 0 0 0 0 0 
0 0 0 0 0 0 0 0 0 
0 0 0 0 0 0 0 0 0 
0 0 0 0 0 0 0 0 0 
0 0 0 0 0 0 0 0 0 
0 0 0 0 0 0 0 0 0 
0 0 0 0 0 0 0 0 0 
0 0 0 0 0 0 0 0 0 
0 0 0 0 0 0 0 0 0 
0 0 0 0 0 0 0 0 0 
0 0 0 0 0 0 0 0 0 
0 0 0 0 0 0 0 0 0 
0 0 0 0 0 0 0 0 0 
0 0 0 0 0 0 0 0 0 
0 0 0 0 0 0 0 0 0 
0 0 0 0 0 0 0 0 0 
0 0 0 0 0 0 0 0 0 
0 0 0 0 0 0 0 0 0 
0 0 0 0 0 0 0 0 0 
0 0 0 0 0 0 0 0 0 
0 0 0 0 0 0 0 0 0 
0 0 0 0 0 0 0 0 0 
0 0 0 0 0 0 0 0 0 
0 0 0 0 0 0 0 0 0 
0 0 0 0 0 0 0 0 0 
0 0 0 0 0 0 0 0 0 
0 0 0 0 0 0 0 0 0 
0 0 0 0 0 0 0 0 0 
0 0 0 0 0 0 0 0 0 
0 0 0 0 0 0 0 0 0 
0 0 0 0 0 0 0 0 0 
0 0 0 0 0 0 0 0 0 
0 0 0 0 0 0 0 0 0 
0 0 0 0 0 0 0 0 0 
0 0 0 0 0 0 0 0 0 
0 0 0 0 0 0 0 0 0 
0 0 0 0 0 0 0 0 0 
0 0 0 0 0 0 0 0 0 
0 0 0 0 0 0 0 0 0 
0 0 0 0 0 0 0 0 0 
0 0 0 0 0 0 0 0 0 
0 0 0 0 0 0 0 0 0 
0 0 0 0 0 0 0 0 0 
0 0 0 0 0 0 0 0 0 
0 0 0 0 0 0 0 0 0 
0 0 0 0 0 0 0 0 0 
0 0 0 0 0 0 0 0 0 
0 0 0 0 0 0 0 0 0 

fz_mag_viz 1 648 double
0 0 0 0 0 0 0 0 0 
0 0 0 0 0 0 0 0 0 
0 0 0 0 0 0 0 0 0 
0 0 0 0 0 0 0 0 0 
0 0 0 0 0 0 0 0 0 
0 0 0 0 0 0 0 0 0 
0 0 0 0 0 0 0 0 0 
0 0 0 0 0 0 0 0 0 
0 0 0 0 0 0 0 0 0 
0 0 0 0 0 0 0 0 0 
0 0 0 0 0 0 0 0 0 
0 0 0 0 0 0 0 0 0 
0 0 0 0 0 0 0 0 0 
0 0 0 0 0 0 0 0 0 
0 0 0 0 0 0 0 0 0 
0 0 0 0 0 0 0 0 0 
0 0 0 0 0 0 0 0 0 
0 0 0 0 0 0 0 0 0 
0 0 0 0 0 0 0 0 0 
0 0 0 0 0 0 0 0 0 
0 0 0 0 0 0 0 0 0 
0 0 0 0 0 0 0 0 0 
0 0 0 0 0 0 0 0 0 
0 0 0 0 0 0 0 0 0 
0 0 0 0 0 0 0 0 0 
0 0 0 0 0 0 0 0 0 
0 0 0 0 0 0 0 0 0 
0 0 0 0 0 0 0 0 0 
0 0 0 0 0 0 0 0 0 
0 0 0 0 0 0 0 0 0 
0 0 0 0 0 0 0 0 0 
0 0 0 0 0 0 0 0 0 
0 0 0 0 0 0 0 0 0 
0 0 0 0 0 0 0 0 0 
0 0 0 0 0 0 0 0 0 
0 0 0 0 0 0 0 0 0 
0 0 0 0 0 0 0 0 0 
0 0 0 0 0 0 0 0 0 
0 0 0 0 0 0 0 0 0 
0 0 0 0 0 0 0 0 0 
0 0 0 0 0 0 0 0 0 
0 0 0 0 0 0 0 0 0 
0 0 0 0 0 0 0 0 0 
0 0 0 0 0 0 0 0 0 
0 0 0 0 0 0 0 0 0 
0 0 0 0 0 0 0 0 0 
0 0 0 0 0 0 0 0 0 
0 0 0 0 0 0 0 0 0 
0 0 0 0 0 0 0 0 0 
0 0 0 0 0 0 0 0 0 
0 0 0 0 0 0 0 0 0 
0 0 0 0 0 0 0 0 0 
0 0 0 0 0 0 0 0 0 
0 0 0 0 0 0 0 0 0 
0 0 0 0 0 0 0 0 0 
0 0 0 0 0 0 0 0 0 
0 0 0 0 0 0 0 0 0 
0 0 0 0 0 0 0 0 0 
0 0 0 0 0 0 0 0 0 
0 0 0 0 0 0 0 0 0 
0 0 0 0 0 0 0 0 0 
0 0 0 0 0 0 0 0 0 
0 0 0 0 0 0 0 0 0 
0 0 0 0 0 0 0 0 0 
0 0 0 0 0 0 0 0 0 
0 0 0 0 0 0 0 0 0 
0 0 0 0 0 0 0 0 0 
0 0 0 0 0 0 0 0 0 
0 0 0 0 0 0 0 0 0 
0 0 0 0 0 0 0 0 0 
0 0 0 0 0 0 0 0 0 
0 0 0 0 0 0 0 0 0 

B_magnitude 1 648 double
0 0 0 0 0 0 0 0 0 
0 0 0 0 0 0 0 0 0 
0 0 0 0 0 0 0 0 0 
0 0 0 0 0 0 0 0 0 
0 0 0 0 0 0 0 0 0 
0 0 0 0 0 0 0 0 0 
0 0 0 0 0 0 0 0 0 
0 0 0 0 0 0 0 0 0 
0 0 0 0 0 0 0 0 0 
0 0 0 0 0 0 0 0 0 
0 0 0 0 0 0 0 0 0 
0 0 0 0 0 0 0 0 0 
0 0 0 0 0 0 0 0 0 
0 0 0 0 0 0 0 0 0 
0 0 0 0 0 0 0 0 0 
0 0 0 0 0 0 0 0 0 
0 0 0 0 0 0 0 0 0 
0 0 0 0 0 0 0 0 0 
0 0 0 0 0 0 0 0 0 
0 0 0 0 0 0 0 0 0 
0 0 0 0 0 0 0 0 0 
0 0 0 0 0 0 0 0 0 
0 0 0 0 0 0 0 0 0 
0 0 0 0 0 0 0 0 0 
0 0 0 0 0 0 0 0 0 
0 0 0 0 0 0 0 0 0 
0 0 0 0 0 0 0 0 0 
0 0 0 0 0 0 0 0 0 
0 0 0 0 0 0 0 0 0 
0 0 0 0 0 0 0 0 0 
0 0 0 0 0 0 0 0 0 
0 0 0 0 0 0 0 0 0 
0 0 0 0 0 0 0 0 0 
0 0 0 0 0 0 0 0 0 
0 0 0 0 0 0 0 0 0 
0 0 0 0 0 0 0 0 0 
0 0 0 0 0 0 0 0 0 
0 0 0 0 0 0 0 0 0 
0 0 0 0 0 0 0 0 0 
0 0 0 0 0 0 0 0 0 
0 0 0 0 0 0 0 0 0 
0 0 0 0 0 0 0 0 0 
0 0 0 0 0 0 0 0 0 
0 0 0 0 0 0 0 0 0 
0 0 0 0 0 0 0 0 0 
0 0 0 0 0 0 0 0 0 
0 0 0 0 0 0 0 0 0 
0 0 0 0 0 0 0 0 0 
0 0 0 0 0 0 0 0 0 
0 0 0 0 0 0 0 0 0 
0 0 0 0 0 0 0 0 0 
0 0 0 0 0 0 0 0 0 
0 0 0 0 0 0 0 0 0 
0 0 0 0 0 0 0 0 0 
0 0 0 0 0 0 0 0 0 
0 0 0 0 0 0 0 0 0 
0 0 0 0 0 0 0 0 0 
0 0 0 0 0 0 0 0 0 
0 0 0 0 0 0 0 0 0 
0 0 0 0 0 0 0 0 0 
0 0 0 0 0 0 0 0 0 
0 0 0 0 0 0 0 0 0 
0 0 0 0 0 0 0 0 0 
0 0 0 0 0 0 0 0 0 
0 0 0 0 0 0 0 0 0 
0 0 0 0 0 0 0 0 0 
0 0 0 0 0 0 0 0 0 
0 0 0 0 0 0 0 0 0 
0 0 0 0 0 0 0 0 0 
0 0 0 0 0 0 0 0 0 
0 0 0 0 0 0 0 0 0 
0 0 0 0 0 0 0 0 0 

B_gradient_mag 1 648 double
0 0 0 0 0 0 0 0 0 
0 0 0 0 0 0 0 0 0 
0 0 0 0 0 0 0 0 0 
0 0 0 0 0 0 0 0 0 
0 0 0 0 0 0 0 0 0 
0 0 0 0 0 0 0 0 0 
0 0 0 0 0 0 0 0 0 
0 0 0 0 0 0 0 0 0 
0 0 0 0 0 0 0 0 0 
0 0 0 0 0 0 0 0 0 
0 0 0 0 0 0 0 0 0 
0 0 0 0 0 0 0 0 0 
0 0 0 0 0 0 0 0 0 
0 0 0 0 0 0 0 0 0 
0 0 0 0 0 0 0 0 0 
0 0 0 0 0 0 0 0 0 
0 0 0 0 0 0 0 0 0 
0 0 0 0 0 0 0 0 0 
0 0 0 0 0 0 0 0 0 
0 0 0 0 0 0 0 0 0 
0 0 0 0 0 0 0 0 0 
0 0 0 0 0 0 0 0 0 
0 0 0 0 0 0 0 0 0 
0 0 0 0 0 0 0 0 0 
0 0 0 0 0 0 0 0 0 
0 0 0 0 0 0 0 0 0 
0 0 0 0 0 0 0 0 0 
0 0 0 0 0 0 0 0 0 
0 0 0 0 0 0 0 0 0 
0 0 0 0 0 0 0 0 0 
0 0 0 0 0 0 0 0 0 
0 0 0 0 0 0 0 0 0 
0 0 0 0 0 0 0 0 0 
0 0 0 0 0 0 0 0 0 
0 0 0 0 0 0 0 0 0 
0 0 0 0 0 0 0 0 0 
0 0 0 0 0 0 0 0 0 
0 0 0 0 0 0 0 0 0 
0 0 0 0 0 0 0 0 0 
0 0 0 0 0 0 0 0 0 
0 0 0 0 0 0 0 0 0 
0 0 0 0 0 0 0 0 0 
0 0 0 0 0 0 0 0 0 
0 0 0 0 0 0 0 0 0 
0 0 0 0 0 0 0 0 0 
0 0 0 0 0 0 0 0 0 
0 0 0 0 0 0 0 0 0 
0 0 0 0 0 0 0 0 0 
0 0 0 0 0 0 0 0 0 
0 0 0 0 0 0 0 0 0 
0 0 0 0 0 0 0 0 0 
0 0 0 0 0 0 0 0 0 
0 0 0 0 0 0 0 0 0 
0 0 0 0 0 0 0 0 0 
0 0 0 0 0 0 0 0 0 
0 0 0 0 0 0 0 0 0 
0 0 0 0 0 0 0 0 0 
0 0 0 0 0 0 0 0 0 
0 0 0 0 0 0 0 0 0 
0 0 0 0 0 0 0 0 0 
0 0 0 0 0 0 0 0 0 
0 0 0 0 0 0 0 0 0 
0 0 0 0 0 0 0 0 0 
0 0 0 0 0 0 0 0 0 
0 0 0 0 0 0 0 0 0 
0 0 0 0 0 0 0 0 0 
0 0 0 0 0 0 0 0 0 
0 0 0 0 0 0 0 0 0 
0 0 0 0 0 0 0 0 0 
0 0 0 0 0 0 0 0 0 
0 0 0 0 0 0 0 0 0 
0 0 0 0 0 0 0 0 0 

