# vtk DataFile Version 5.1
Generated by LIGGGHTS
ASCII
DATASET POLYDATA
POINTS 648 float
0.00798734 -0.0367051 0.00118921 -0.0129003 -0.00574839 0.00128667 0.00635633 0.000852437 0.00108189 
0.0384376 0.000848974 0.00111658 0.021602 0.00540593 0.0012324 -0.0296003 0.0277025 0.00112186 
-0.0428902 -0.0449088 0.00166697 0.0419483 -0.0348097 0.00161516 -0.0105296 -0.0314142 0.00197895 
-0.0198564 -0.00683511 0.00199312 -0.0179231 -0.00300678 0.00141453 -0.0426568 0.00723228 0.00234869 
-0.0310202 0.0131063 0.00226986 0.0248423 0.0143007 0.00203434 -0.0245993 0.0193658 0.00202401 
0.0123926 0.0218243 0.00173999 -0.0170112 0.0231088 0.00233118 0.0167463 0.0251763 0.00164067 
-0.0197415 0.0344175 0.00245832 0.0131273 0.040817 0.00137397 0.033456 -0.0256735 0.00273866 
0.0350526 -0.0102353 0.00340648 0.00357123 -0.00830953 0.00272329 0.00937085 -0.00418454 0.00344725 
0.0292006 0.00433004 0.00305576 0.0212596 0.00979192 0.00349002 0.0143092 0.0139794 0.00297888 
-0.0360536 0.0173104 0.00321778 -0.0144089 0.0201081 0.00340412 0.03506 0.0228899 0.00361975 
0.0104707 0.0313218 0.00306821 -0.0385899 -0.0405251 0.0044816 -0.00302782 -0.0385948 0.00430411 
0.0341086 -0.0368686 0.00429541 0.0289145 -0.0340196 0.00399014 -0.0266532 -0.0301716 0.00414096 
-0.015788 -0.0282898 0.00417701 -0.0108877 -0.0188832 0.00479633 0.00689113 -0.0107816 0.00388345 
0.0282359 -0.00877456 0.00485859 0.0414788 -0.00521487 0.00392952 0.0154702 -0.00154679 0.00444038 
-0.0356048 -0.000104637 0.00452298 0.00417698 0.0024455 0.00494036 0.0305447 0.00486582 0.00437472 
-0.0287984 0.00559412 0.004574 0.0379188 0.0120326 0.00515414 0.0287781 0.014071 0.00494965 
0.0215224 0.0171285 0.00432798 -0.0153727 0.020636 0.0040647 -0.0282566 0.021284 0.0045934 
0.0297434 0.0373158 0.00387895 -0.0440308 0.0448256 0.00499498 0.0185094 -0.042363 0.00530778 
-0.00521279 -0.0413279 0.00555662 0.040047 -0.0404588 0.00605839 0.0156715 -0.0391733 0.00518261 
-0.0419519 -0.0259749 0.00537044 0.0436787 -0.0219137 0.00643785 0.0336491 -0.0197505 0.00579014 
0.0030191 -0.0179247 0.00639034 0.0414834 -0.0181367 0.00647916 0.0223879 -0.0163393 0.0058287 
-0.034865 0.0142961 0.00549213 -0.0409258 0.0305044 0.00541383 0.0165329 0.0385374 0.00595679 
0.00308146 0.0401468 0.00617113 0.0251972 0.0393087 0.00580512 -0.0437633 0.0406561 0.00656033 
-0.0390027 0.0421086 0.00553576 0.0244271 -0.0334586 0.00719414 -0.0232422 -0.0321576 0.00662363 
0.00577088 -0.0287415 0.00727937 -0.0408326 -0.0234295 0.00756844 -0.0420316 -0.0145538 0.00748625 
0.0277003 -0.0107969 0.00665973 0.00743742 -0.00926665 0.00767097 -0.00783961 -0.000387029 0.00654242 
-0.00702036 -0.00121172 0.00703295 -0.00967086 0.00179773 0.00659979 -0.0170872 0.00564833 0.00744862 
0.0011249 0.00615697 0.00715696 0.0399323 0.0117688 0.0067086 8.23501e-07 0.0138406 0.00720627 
0.0114764 0.0140289 0.00678129 -0.0081225 0.0151775 0.00700602 0.0323341 0.0191974 0.00706445 
0.00284552 0.0345861 0.00665604 -0.0160353 0.0448572 0.00760224 -0.044759 -0.0437614 0.00810166 
-0.0308094 -0.0435702 0.00812498 0.0339316 -0.041715 0.0080399 -0.042922 -0.0404536 0.00793398 
0.0308099 -0.0378456 0.00897913 0.023158 -0.0340207 0.00792683 0.0280204 -0.0311414 0.0082133 
-0.0448384 -0.0296834 0.00820239 0.000892701 -0.0263701 0.0084723 0.0101031 -0.0273014 0.00786665 
-0.00446216 -0.0255279 0.00835957 0.032808 -0.025967 0.00809145 -0.0336946 -0.0248459 0.0082496 
-0.0329608 -0.0218045 0.00881249 0.0363266 -0.0194176 0.00885602 -0.0317771 -0.0175651 0.00814126 
0.0404767 -0.0183151 0.0082313 -0.0257955 -0.0157834 0.00887078 0.0342493 -0.0115037 0.00902711 
-0.0386256 -0.00983966 0.00861378 -0.0112192 -0.0104501 0.00798614 -0.024842 -0.00884532 0.00894859 
0.0131353 -0.00504642 0.00833163 0.00265626 0.00371614 0.00803305 0.0449494 0.00392273 0.00887089 
0.00314898 0.00491531 0.00846404 0.0228765 0.00606581 0.0082379 0.0221269 0.00728552 0.00863852 
0.0320014 0.00756294 0.00792572 -0.0392616 0.00972366 0.00879787 -0.0214351 0.00957734 0.00810374 
-0.0101256 0.00978275 0.0089941 -0.0371624 0.011326 0.00800699 0.0153641 0.0146287 0.00844691 
-0.0214239 0.0189608 0.00783797 -0.023041 0.0197144 0.00799196 -0.022709 0.0198803 0.00875318 
0.0226957 0.0260881 0.00784957 -0.0269229 0.0267788 0.00788525 0.0364634 0.0310238 0.00830235 
0.0444958 0.0309554 0.00824476 -0.0213481 0.0319153 0.00835774 -0.0264781 0.032823 0.00807667 
-0.0155539 0.0359545 0.00812511 0.0163992 0.0415262 0.00861669 0.0418836 -0.0421436 0.00976639 
0.0338942 -0.0410147 0.0102378 0.0414821 -0.0410789 0.0103288 -0.018434 -0.0405477 0.0103211 
0.000822496 -0.0363122 0.00982427 0.0333162 -0.0342631 0.0091776 0.0433459 -0.0353282 0.00944407 
-0.00586029 -0.0338127 0.0103548 -0.0393221 -0.0167834 0.00975119 -0.0405162 -0.0161033 0.0102827 
-0.00444012 -0.0151621 0.00953307 -0.0227164 -0.0141288 0.00917726 -0.0117656 -0.0138394 0.00957097 
-0.0207563 -0.0111167 0.0103354 0.0223025 -0.0112244 0.00969105 -0.0326334 -0.00963456 0.00961248 
-0.0222502 -0.00974669 0.00932992 0.013874 -0.00963069 0.00986578 0.0109664 -0.00760095 0.00979386 
0.0275881 -0.00673863 0.00921602 -0.0141425 -0.00311887 0.00960569 0.0293019 -0.00298432 0.00976165 
0.0246705 0.0064451 0.00987358 0.0197977 0.00963841 0.00979671 -0.0394276 0.0109375 0.00946673 
-0.00279986 0.0127222 0.0101722 0.0418335 0.0161761 0.00999938 0.0307708 0.0242663 0.0101634 
-0.0102477 0.0267602 0.0101833 -0.0200898 0.0311527 0.0102534 0.0152528 0.033152 0.00942142 
0.0164577 0.0353116 0.00914878 0.0238959 0.0383247 0.0100722 -0.0312382 0.0393096 0.00959754 
-0.0281804 0.0418824 0.00949552 0.00513794 0.0433856 0.00964069 0.0262096 -0.0449372 0.0111274 
-0.0335565 -0.0442122 0.0105162 -0.0349861 -0.0412827 0.0105854 -0.0248652 -0.040212 0.0113425 
-0.0108246 -0.0388127 0.0104602 0.00594186 -0.0351889 0.0116603 0.00264867 -0.0338128 0.0107754 
0.027474 -0.0338615 0.0117143 -0.0262624 -0.032473 0.010646 -0.0160452 -0.0323821 0.0105059 
0.0346336 -0.0325969 0.0109667 0.0306875 -0.0259396 0.0114522 -0.0328109 -0.0226975 0.0106851 
-0.0225401 -0.0213878 0.0107172 0.039775 -0.0211058 0.0109976 -0.0296942 -0.0196153 0.0115271 
-0.0100897 -0.0180162 0.0112398 0.0302919 -0.0148257 0.0113233 -0.0388614 -0.0136303 0.0106806 
0.0433204 -0.0141837 0.0113248 0.0414517 -0.0114994 0.0106334 -0.0449336 -0.00957357 0.0111746 
0.0313953 -0.00974065 0.0110411 -0.00553214 -0.00871323 0.011092 -0.0343844 -0.0078404 0.011591 
-0.00433253 -0.00676057 0.0112004 -0.00747582 -0.00609419 0.0108841 -0.040885 -0.00406647 0.0105864 
0.021323 -0.00444137 0.0110022 -0.0260142 0.00017485 0.0114492 -0.00229178 0.0020129 0.0111269 
0.032558 0.00153523 0.0110821 0.0277548 0.0042931 0.0109405 0.0101693 0.00555192 0.0113099 
0.0283387 0.00890506 0.0106366 0.0340899 0.00882812 0.011071 0.0398091 0.011618 0.0112727 
0.00861143 0.0123591 0.0113199 -0.00307286 0.0144526 0.0109466 0.0121458 0.0151918 0.0108105 
0.00517921 0.0169249 0.0109981 0.0090081 0.0191686 0.0110352 -0.0256005 0.0215871 0.0109833 
-0.0127911 0.0299546 0.0109634 -0.0368667 0.0306348 0.0108175 -0.032208 0.0306075 0.0115748 
0.00372347 0.0304157 0.0106307 0.0038092 0.0311583 0.011349 0.0354139 0.0312817 0.010501 
0.00390562 0.0317225 0.0114167 0.01325 0.0319187 0.0112066 -0.00973825 0.0391656 0.0107861 
0.0222253 0.0407186 0.0106594 0.0181024 -0.0433049 0.0123733 0.0348044 -0.042095 0.0121966 
-0.00674967 -0.0416523 0.012509 -0.0334706 -0.0396012 0.0125384 -0.0168273 -0.0360331 0.0121535 
0.0449741 -0.0303513 0.0123028 -0.0430551 -0.0267583 0.0117091 0.0233461 -0.0214624 0.0129038 
0.0262592 -0.0217201 0.0121977 0.00156248 -0.0194187 0.0121182 0.0198229 -0.0156851 0.0117565 
0.0286804 -0.00919085 0.0125557 -0.00254943 -0.00825679 0.0124227 0.0404774 -0.00688032 0.0129092 
-0.00474481 -0.00600267 0.0129269 0.0387156 -0.00624884 0.0127732 -0.0120059 -0.00345367 0.0126913 
-0.0281455 -0.00127675 0.0117593 0.0290986 -0.000251763 0.0124213 0.0188762 0.00181355 0.0118291 
-0.0325416 0.00283857 0.0123905 -0.025141 0.00447188 0.0127541 -0.00757157 0.00454821 0.0121925 
0.0211953 0.00966092 0.0127183 -0.0365733 0.0119208 0.0129397 0.012585 0.0155082 0.0120807 
0.00153271 0.0201988 0.0126808 0.0258603 0.0235991 0.0126281 -0.00563177 0.0268155 0.0128644 
0.0395905 0.0272142 0.0125058 -0.0313244 0.0314049 0.0124377 -0.0108954 0.0304 0.0127321 
0.026696 0.03017 0.0125356 -0.0073504 0.0318329 0.0118595 0.0231674 0.0340949 0.0128037 
-0.041477 0.0364172 0.0128226 0.0439232 0.0371117 0.0122489 0.0294278 0.0431452 0.012817 
0.0416479 -0.0439733 0.014248 0.000425919 -0.0415728 0.0133453 0.0346338 -0.0290927 0.0131791 
0.0412685 -0.0295104 0.0130555 0.0164647 -0.0275391 0.0138216 0.0155599 -0.0240909 0.0131601 
-0.0323128 -0.0219837 0.0137982 0.00623721 -0.0211799 0.0139849 -0.00827992 -0.020547 0.0135233 
-0.0183202 -0.0175475 0.0137626 -0.0426154 -0.0165053 0.0136423 -0.0339565 -0.0167518 0.0130654 
0.0323804 -0.0132471 0.0143053 0.0251729 -0.00985964 0.0139991 -0.00401126 -0.00720159 0.0138986 
0.0129906 -0.00677597 0.0135407 0.0180565 -0.00487531 0.0132178 0.00664535 -0.00164817 0.0136429 
-0.000610522 -0.00103491 0.0140758 0.0404406 0.00462082 0.0138704 -0.0406381 0.00555966 0.0142362 
0.030759 0.00580352 0.0138702 0.00474506 0.0103043 0.0142666 0.00243185 0.0120975 0.0132774 
0.000954082 0.0152563 0.0132167 0.00546842 0.0177814 0.0133861 0.0407412 0.0174253 0.0130982 
0.00395304 0.0187088 0.0138345 0.018015 0.0183735 0.0132559 0.00976854 0.0197772 0.0132008 
-0.0267196 0.0236159 0.0138555 0.0181332 0.0246356 0.0140236 -0.0386663 0.0253433 0.0130327 
-0.00739359 0.0259593 0.0138775 -0.0267569 0.0263983 0.013272 -0.0357156 0.0282031 0.0138621 
0.00834461 0.0278725 0.01315 0.0191509 0.0299648 0.0136287 -0.0337286 0.0337045 0.0131155 
-0.0422696 0.0340949 0.013716 -0.0245447 0.0378537 0.0141942 -0.0133259 0.0414802 0.0134589 
-0.0205282 0.0432397 0.0140497 0.0405446 0.0433429 0.0131256 -0.00340304 -0.0448428 0.0153384 
-0.027409 -0.0433703 0.014935 -0.0406141 -0.0405112 0.0148595 -0.0169239 -0.0402939 0.0146539 
-0.00670669 -0.0394183 0.015215 -0.0439713 -0.0357399 0.015273 -0.0273176 -0.0361067 0.014495 
-0.00161929 -0.0353994 0.0152294 0.0195647 -0.0366528 0.0151928 -0.0177429 -0.0346724 0.015167 
0.0077947 -0.0345433 0.0143153 0.00879071 -0.0344865 0.0148772 0.0403097 -0.0347888 0.0152628 
-0.0427235 -0.0332389 0.0148006 0.00802514 -0.031483 0.0148018 -0.0386911 -0.0311434 0.0143868 
0.0392765 -0.0300093 0.0152544 -0.0401314 -0.0280847 0.0148577 -0.0432264 -0.0264101 0.0155697 
-0.00580099 -0.0272788 0.0151243 -0.0338231 -0.0250135 0.0153403 0.0054016 -0.025334 0.0151969 
-0.0291427 -0.0219343 0.0146342 -0.0164034 -0.0216001 0.015448 0.0218308 -0.0192565 0.0144117 
-0.0328213 -0.0176588 0.0145978 0.0184681 -0.0172117 0.0147221 0.0252581 -0.0163235 0.0146407 
-0.0408642 -0.0154151 0.0154575 -0.015814 -0.0152491 0.014506 0.0268005 -0.0146468 0.0147534 
0.0375745 -0.0151367 0.0145776 -0.0329121 -0.0139828 0.0149419 -0.0341597 -0.0122829 0.0146853 
0.0176437 -0.0119747 0.0143798 0.0322358 -0.0130621 0.014355 -0.042331 -0.00792816 0.0154254 
-0.0304645 -0.00701594 0.0145156 -0.042786 -0.00359954 0.0144132 -0.0408474 -0.00214648 0.0144581 
-0.0376932 -0.000132947 0.0143569 0.0147261 0.00139147 0.0150979 -0.037077 0.00611456 0.0155411 
-0.00552594 0.00555795 0.0146977 0.0332757 0.00539899 0.0152235 0.00533928 0.00728904 0.0143915 
0.00978397 0.00922321 0.0149277 -0.0350204 0.0121089 0.0155553 -0.00831541 0.0129665 0.0150738 
0.00789931 0.0136568 0.0149387 -0.00443291 0.0160613 0.0146838 0.0256029 0.0175394 0.0151416 
0.00757299 0.0192258 0.0144438 0.0350116 0.0207306 0.0154279 0.00128112 0.0217131 0.0144972 
0.0362273 0.0220011 0.0153545 -0.00782209 0.0241861 0.0152108 0.00953871 0.0271324 0.0149581 
0.0434247 0.0295768 0.0143176 -0.0219587 0.0304934 0.0152914 0.0372507 0.0318783 0.0144781 
0.0214431 0.0335886 0.015311 -0.00196307 0.0366495 0.0146113 0.0030545 0.0369981 0.0153565 
-0.00883869 0.0381834 0.0147567 0.0281745 0.039089 0.0151338 -0.0112537 0.0395394 0.0143052 
0.0221021 0.0401282 0.0147168 0.00805094 0.0422278 0.0144498 0.0114086 0.0440135 0.0146068 
0.0399235 0.0434757 0.0150726 0.0171919 0.0449185 0.0144919 0.0211706 0.0445491 0.0145155 
-0.0346971 -0.0446764 0.0162725 -0.0248654 -0.0427111 0.0163918 0.0201641 -0.0426709 0.0158514 
0.0248068 -0.0428986 0.0160644 0.0238162 -0.0409762 0.0164225 0.0244803 -0.0401788 0.0160109 
-0.0370475 -0.0370945 0.0166907 0.0397687 -0.0374633 0.0164875 0.0355384 -0.0354155 0.0168989 
-0.0396817 -0.0304797 0.0165296 0.0188903 -0.0308528 0.0166877 0.00231692 -0.0294453 0.0156171 
0.023019 -0.0293484 0.0160996 0.03382 -0.0268981 0.0165725 -0.0350278 -0.0224863 0.0160583 
0.0115492 -0.0227248 0.0157482 -0.0204621 -0.0172006 0.0159336 0.0282033 -0.0178095 0.0166993 
-0.0313057 -0.0141988 0.0159112 -0.0269092 -0.0125643 0.0165467 -0.0196799 -0.00931279 0.0156756 
-0.0136128 -0.00979682 0.0159842 -0.0395569 -0.00227866 0.0160527 0.00643655 -0.000956063 0.016187 
-0.0416237 0.00110806 0.0161679 0.0362421 0.00170773 0.0165771 -0.00723413 0.00605583 0.0162201 
0.0110904 0.00657535 0.0158982 0.0142017 0.0079404 0.0156051 0.0202046 0.00840095 0.0156153 
0.023953 0.00820576 0.0165347 -0.0349081 0.00917553 0.0157818 0.0128044 0.0127337 0.0168391 
0.014866 0.0127598 0.0161034 0.0261916 0.0119357 0.0163894 -0.0429188 0.0135204 0.0162751 
0.0440772 0.0154938 0.0164807 -0.0193355 0.018129 0.0163335 0.0122157 0.0191756 0.0167315 
0.0388885 0.0193682 0.0167831 -0.0431379 0.0208085 0.0168935 -0.0421793 0.0225172 0.0165087 
-0.0349287 0.0230684 0.0158943 -0.0295899 0.0232577 0.0156497 0.0146363 0.0223077 0.0161697 
0.00264144 0.0247174 0.0161332 -0.0114472 0.026715 0.0168308 -0.0406313 0.0295913 0.0164891 
-0.0152062 0.0294088 0.015783 -0.00435696 0.0325462 0.0157964 -0.00472634 0.0344449 0.0160596 
-0.0407273 0.0358476 0.0160447 -0.00647711 0.0391566 0.0162555 -0.039126 0.0399637 0.0164434 
-0.0375088 0.0393741 0.0158777 -0.0181988 0.0434549 0.0166559 0.0145521 -0.0432303 0.0169444 
0.0131812 -0.0427533 0.0177784 0.0166138 -0.0412108 0.0180438 -0.0309963 -0.0355024 0.0181348 
-0.0376897 -0.0314333 0.017117 -0.0263426 -0.0292431 0.017344 -0.0240024 -0.0280603 0.0181252 
-0.0240719 -0.0268296 0.0175872 -0.0207679 -0.0256315 0.0170733 0.00538025 -0.0241403 0.0176359 
-0.0139777 -0.0223984 0.0172171 0.0109547 -0.0235646 0.0174914 0.035159 -0.023363 0.0181178 
0.00548761 -0.0197918 0.0173024 0.038292 -0.016257 0.017838 0.0249316 -0.014475 0.0170237 
-0.0186412 -0.0134353 0.0180065 0.0403752 -0.0143085 0.0170979 -0.0327621 -0.0121928 0.0176973 
0.0406218 -0.0100941 0.0170981 -0.0344646 -0.00725539 0.0178896 -0.0211095 -0.00770044 0.0172191 
-0.0150798 -0.00698339 0.0180713 -0.0135858 -0.00672635 0.017091 0.0161928 -0.00760918 0.0174893 
0.00523139 -0.00599236 0.0172336 0.0180458 -0.00470109 0.0178722 -0.00941413 -0.00330341 0.0181619 
0.00975646 -0.00313231 0.0176907 -0.00896956 -0.00131708 0.0175673 0.0140084 -6.89735e-05 0.0182091 
0.0407777 0.000744206 0.0172345 -0.0261639 0.00337815 0.0178008 0.00243665 0.00282786 0.017824 
0.0323225 0.00436429 0.0170799 0.0250346 0.00641518 0.0175235 -0.00867948 0.0139924 0.0175235 
0.0336082 0.013194 0.0175761 0.0441199 0.0136981 0.017536 -0.0196462 0.0155185 0.0169222 
0.0226738 0.0181095 0.0174223 -0.0287332 0.0215601 0.0171641 -0.0122989 0.0222019 0.017767 
0.0398418 0.0217469 0.0179785 0.0438582 0.0244724 0.0177965 0.000162142 0.0251126 0.0170129 
-0.0190887 0.0269029 0.017027 -0.0376379 0.0294143 0.0170197 0.00519606 0.0301696 0.0176392 
0.00317215 0.0343196 0.0175465 0.0311732 0.0371467 0.0169577 0.0352701 0.0439749 0.0177572 
0.0352379 0.0438995 0.017238 -0.00396528 -0.0444182 0.0183605 0.0195053 -0.043722 0.018655 
-0.0389435 -0.0425966 0.0189986 0.0406519 -0.0427256 0.0194245 -0.0136468 -0.0412372 0.0185816 
0.0424299 -0.0409921 0.0185996 0.00849583 -0.0405939 0.0195112 -0.0289295 -0.0389067 0.0191501 
-0.0195638 -0.0385913 0.0193769 0.0325128 -0.03812 0.0188861 0.00985621 -0.0367022 0.0183078 
-0.00338111 -0.0363358 0.019006 0.0307351 -0.0355434 0.0190695 -8.23525e-05 -0.034098 0.0182445 
-0.0177803 -0.0340186 0.0185846 -0.0161578 -0.0337243 0.0184588 -0.0233761 -0.031813 0.019475 
-0.0210092 -0.0320472 0.0191785 0.0268369 -0.0315202 0.01866 -0.0220587 -0.0306349 0.0186716 
0.010226 -0.0308634 0.0194172 -0.0414327 -0.0290659 0.0184346 -0.0346801 -0.0287009 0.0187889 
0.0153133 -0.0285941 0.0185927 0.0156293 -0.0283842 0.0193423 0.0347572 -0.0260666 0.019449 
-0.00863888 -0.0237376 0.0182825 0.00179778 -0.0247441 0.0186437 0.00558373 -0.0242787 0.0189695 
0.0102479 -0.024092 0.0192147 0.0210005 -0.0239559 0.0192724 -0.038621 -0.0229432 0.0193687 
-0.0127621 -0.0231756 0.0188968 0.0240101 -0.0228809 0.0187782 0.0394323 -0.021923 0.0192213 
-0.0210835 -0.0209207 0.0184009 -0.0033641 -0.0204173 0.018401 -0.0207996 -0.0190456 0.0191146 
0.0134129 -0.0192809 0.0192095 -0.0147645 -0.0165889 0.0186405 0.0296492 -0.015918 0.0192922 
0.0132043 -0.01541 0.0188041 0.0323803 -0.0150629 0.0188495 -0.0279963 -0.0141356 0.018817 
-0.00710141 -0.0133745 0.0190659 0.0144468 -0.013247 0.0185452 -0.00528066 -0.0121118 0.0187799 
0.0347312 -0.012978 0.0192134 -0.038829 -0.00978443 0.0188749 -0.0253401 -0.0103599 0.0190618 
0.0218314 -0.00971151 0.0193089 0.0334462 -0.00930086 0.018632 -0.0214415 -0.007536 0.0190075 
-0.0101373 -0.00698039 0.0190858 -0.00720807 -0.00608605 0.0191208 -0.0253129 -0.0039775 0.0189414 
0.0200271 -0.00425623 0.0184758 -0.0107529 -0.00365687 0.0191053 -0.0198668 -0.00211416 0.0188199 
0.0168839 -0.00210364 0.0182943 -0.0283489 -0.000417126 0.01835 -0.0153419 -0.00108619 0.0183112 
0.00127443 -0.000618905 0.0190638 0.0420414 -0.00101026 0.0192278 -0.0332593 0.000859011 0.0193896 
0.0116524 0.00206193 0.0188147 -0.0233311 0.00384073 0.0192608 0.0183943 0.00266245 0.0185464 
-0.027449 0.00511055 0.0193552 0.0260144 0.00429017 0.019354 -0.0403489 0.00598291 0.0186478 
0.0133448 0.00646544 0.0194378 0.0358407 0.00533501 0.018854 -0.0429246 0.00657681 0.0188231 
-0.019893 0.00878872 0.0193181 -0.0105861 0.00898083 0.0185887 0.0324887 0.00836074 0.0189571 
-0.0408306 0.00999374 0.0194711 0.0234497 0.00978487 0.0189762 -0.00808524 0.0113378 0.0193739 
-0.00071691 0.0108932 0.0188688 -0.00841171 0.0143034 0.0185339 0.012949 0.0143048 0.0191117 
0.0311878 0.014057 0.0182187 0.0396593 0.013993 0.0185984 -0.0287818 0.014969 0.0190354 
-0.0231109 0.0157017 0.0187737 -0.0408838 0.0159645 0.018846 -0.0286532 0.0159811 0.01907 
-0.0161548 0.0159009 0.0195004 -0.00317984 0.0164631 0.019052 -0.0436896 0.0195853 0.0191469 
-0.0363159 0.0185996 0.0190335 -0.0324762 0.0230005 0.0192107 -0.0148746 0.0223253 0.0186001 
0.00126512 0.0228658 0.0185946 -0.0436572 0.0238848 0.0189934 -0.0138035 0.0240512 0.0193126 
-0.0132251 0.0252506 0.0195097 -0.0128609 0.0265935 0.0187113 -0.0214233 0.0285543 0.0191102 
0.0397191 0.0283771 0.019066 0.0040127 0.0314243 0.0191866 0.0191028 0.0315895 0.0186676 
0.0193546 0.0324404 0.0190612 0.0337272 0.0324898 0.019495 -0.0425374 0.0333781 0.0189961 
0.00727395 0.0332762 0.018301 0.0278529 0.0342296 0.0191897 -0.00750544 0.0361316 0.0194436 
0.00888594 0.0360502 0.0185774 0.00367032 0.0371324 0.0191969 -0.00585061 0.0388609 0.018339 
-0.0379532 0.0399341 0.0193684 0.00201585 0.0404036 0.0189989 -0.00785852 0.041878 0.0195235 
0.0430506 0.0422314 0.0194371 0.00528787 0.0432844 0.0186567 -0.0390775 0.0447256 0.0187406 
-0.0317519 -0.0446953 0.0195407 0.0147823 -0.0446949 0.0205064 -0.0234086 -0.038644 0.0195764 
-0.0179089 -0.0346335 0.0197143 0.043014 -0.0343178 0.0203478 0.00741479 -0.0295782 0.0198325 
0.0350196 -0.0250011 0.0203925 0.0204492 -0.0194639 0.0201625 0.00886689 -0.0141191 0.0195383 
0.0253763 -0.011051 0.0196659 0.0386193 -0.00496685 0.0206808 0.0189244 0.00254502 0.0196839 
0.00347554 0.00338662 0.0194574 -0.01547 0.00642247 0.0195485 -0.00598638 0.00689803 0.0207351 
0.027557 0.009967 0.0195351 0.00418285 0.0112423 0.0199854 0.00742845 0.0199749 0.0196957 
-0.014478 0.0275162 0.0206988 0.0380057 0.0324307 0.0196165 -0.0359241 0.0337864 0.0202146 
0.0132394 0.0345575 0.0201554 0.0170579 0.0421878 0.0195299 -0.0190394 0.0446837 0.0200342 
-0.00682403 -0.0314098 0.0212735 0.0272875 -0.0186725 0.0210303 -0.0131355 0.00164571 0.0208945 
-0.0137512 0.00384646 0.0212378 -0.009285 0.00693532 0.0209584 -0.0408092 0.00981999 0.0213067 
0.021223 0.0244832 0.0209552 -0.0225361 -0.0441701 0.0226514 0.0127657 -0.00746761 0.0223525 
0.0448793 -0.00396119 0.0225169 -0.00254916 -0.00379952 0.0224449 -0.0442311 0.00821601 0.0226888 
0.00976298 0.0163696 0.0225484 -0.0260391 0.0304395 0.0226064 0.0352883 -0.0103067 0.0235142 
-0.0122189 0.0175978 0.0234614 0.039455 -0.000236508 0.0250833 0.0242571 -0.0100823 0.033609 

VERTICES 649 648
OFFSETS vtktypeint64
0 1 2 3 4 5 6 7 8 
9 10 11 12 13 14 15 16 17 
18 19 20 21 22 23 24 25 26 
27 28 29 30 31 32 33 34 35 
36 37 38 39 40 41 42 43 44 
45 46 47 48 49 50 51 52 53 
54 55 56 57 58 59 60 61 62 
63 64 65 66 67 68 69 70 71 
72 73 74 75 76 77 78 79 80 
81 82 83 84 85 86 87 88 89 
90 91 92 93 94 95 96 97 98 
99 100 101 102 103 104 105 106 107 
108 109 110 111 112 113 114 115 116 
117 118 119 120 121 122 123 124 125 
126 127 128 129 130 131 132 133 134 
135 136 137 138 139 140 141 142 143 
144 145 146 147 148 149 150 151 152 
153 154 155 156 157 158 159 160 161 
162 163 164 165 166 167 168 169 170 
171 172 173 174 175 176 177 178 179 
180 181 182 183 184 185 186 187 188 
189 190 191 192 193 194 195 196 197 
198 199 200 201 202 203 204 205 206 
207 208 209 210 211 212 213 214 215 
216 217 218 219 220 221 222 223 224 
225 226 227 228 229 230 231 232 233 
234 235 236 237 238 239 240 241 242 
243 244 245 246 247 248 249 250 251 
252 253 254 255 256 257 258 259 260 
261 262 263 264 265 266 267 268 269 
270 271 272 273 274 275 276 277 278 
279 280 281 282 283 284 285 286 287 
288 289 290 291 292 293 294 295 296 
297 298 299 300 301 302 303 304 305 
306 307 308 309 310 311 312 313 314 
315 316 317 318 319 320 321 322 323 
324 325 326 327 328 329 330 331 332 
333 334 335 336 337 338 339 340 341 
342 343 344 345 346 347 348 349 350 
351 352 353 354 355 356 357 358 359 
360 361 362 363 364 365 366 367 368 
369 370 371 372 373 374 375 376 377 
378 379 380 381 382 383 384 385 386 
387 388 389 390 391 392 393 394 395 
396 397 398 399 400 401 402 403 404 
405 406 407 408 409 410 411 412 413 
414 415 416 417 418 419 420 421 422 
423 424 425 426 427 428 429 430 431 
432 433 434 435 436 437 438 439 440 
441 442 443 444 445 446 447 448 449 
450 451 452 453 454 455 456 457 458 
459 460 461 462 463 464 465 466 467 
468 469 470 471 472 473 474 475 476 
477 478 479 480 481 482 483 484 485 
486 487 488 489 490 491 492 493 494 
495 496 497 498 499 500 501 502 503 
504 505 506 507 508 509 510 511 512 
513 514 515 516 517 518 519 520 521 
522 523 524 525 526 527 528 529 530 
531 532 533 534 535 536 537 538 539 
540 541 542 543 544 545 546 547 548 
549 550 551 552 553 554 555 556 557 
558 559 560 561 562 563 564 565 566 
567 568 569 570 571 572 573 574 575 
576 577 578 579 580 581 582 583 584 
585 586 587 588 589 590 591 592 593 
594 595 596 597 598 599 600 601 602 
603 604 605 606 607 608 609 610 611 
612 613 614 615 616 617 618 619 620 
621 622 623 624 625 626 627 628 629 
630 631 632 633 634 635 636 637 638 
639 640 641 642 643 644 645 646 647 
648 
CONNECTIVITY vtktypeint64
0 1 2 3 4 5 6 7 8 
9 10 11 12 13 14 15 16 17 
18 19 20 21 22 23 24 25 26 
27 28 29 30 31 32 33 34 35 
36 37 38 39 40 41 42 43 44 
45 46 47 48 49 50 51 52 53 
54 55 56 57 58 59 60 61 62 
63 64 65 66 67 68 69 70 71 
72 73 74 75 76 77 78 79 80 
81 82 83 84 85 86 87 88 89 
90 91 92 93 94 95 96 97 98 
99 100 101 102 103 104 105 106 107 
108 109 110 111 112 113 114 115 116 
117 118 119 120 121 122 123 124 125 
126 127 128 129 130 131 132 133 134 
135 136 137 138 139 140 141 142 143 
144 145 146 147 148 149 150 151 152 
153 154 155 156 157 158 159 160 161 
162 163 164 165 166 167 168 169 170 
171 172 173 174 175 176 177 178 179 
180 181 182 183 184 185 186 187 188 
189 190 191 192 193 194 195 196 197 
198 199 200 201 202 203 204 205 206 
207 208 209 210 211 212 213 214 215 
216 217 218 219 220 221 222 223 224 
225 226 227 228 229 230 231 232 233 
234 235 236 237 238 239 240 241 242 
243 244 245 246 247 248 249 250 251 
252 253 254 255 256 257 258 259 260 
261 262 263 264 265 266 267 268 269 
270 271 272 273 274 275 276 277 278 
279 280 281 282 283 284 285 286 287 
288 289 290 291 292 293 294 295 296 
297 298 299 300 301 302 303 304 305 
306 307 308 309 310 311 312 313 314 
315 316 317 318 319 320 321 322 323 
324 325 326 327 328 329 330 331 332 
333 334 335 336 337 338 339 340 341 
342 343 344 345 346 347 348 349 350 
351 352 353 354 355 356 357 358 359 
360 361 362 363 364 365 366 367 368 
369 370 371 372 373 374 375 376 377 
378 379 380 381 382 383 384 385 386 
387 388 389 390 391 392 393 394 395 
396 397 398 399 400 401 402 403 404 
405 406 407 408 409 410 411 412 413 
414 415 416 417 418 419 420 421 422 
423 424 425 426 427 428 429 430 431 
432 433 434 435 436 437 438 439 440 
441 442 443 444 445 446 447 448 449 
450 451 452 453 454 455 456 457 458 
459 460 461 462 463 464 465 466 467 
468 469 470 471 472 473 474 475 476 
477 478 479 480 481 482 483 484 485 
486 487 488 489 490 491 492 493 494 
495 496 497 498 499 500 501 502 503 
504 505 506 507 508 509 510 511 512 
513 514 515 516 517 518 519 520 521 
522 523 524 525 526 527 528 529 530 
531 532 533 534 535 536 537 538 539 
540 541 542 543 544 545 546 547 548 
549 550 551 552 553 554 555 556 557 
558 559 560 561 562 563 564 565 566 
567 568 569 570 571 572 573 574 575 
576 577 578 579 580 581 582 583 584 
585 586 587 588 589 590 591 592 593 
594 595 596 597 598 599 600 601 602 
603 604 605 606 607 608 609 610 611 
612 613 614 615 616 617 618 619 620 
621 622 623 624 625 626 627 628 629 
630 631 632 633 634 635 636 637 638 
639 640 641 642 643 644 645 646 647 

POINT_DATA 648
FIELD FieldData 12
id 1 648 int
115 383 630 465 396 609 164 584 185 
72 57 450 169 491 582 18 588 195 
600 606 190 293 608 370 418 214 150 
433 625 219 611 648 92 626 634 304 
629 154 106 602 647 610 568 175 458 
407 620 310 339 166 49 362 639 635 
632 508 459 574 317 470 289 603 444 
297 506 246 643 386 575 372 347 404 
331 282 590 292 428 132 66 36 478 
456 432 322 633 619 607 85 614 463 
200 597 134 356 51 107 137 291 645 
604 267 581 578 238 439 355 176 628 
544 231 569 515 598 86 593 467 423 
556 261 197 288 595 622 110 521 149 
163 637 26 327 583 270 624 412 218 
577 207 35 24 88 605 571 618 572 
381 612 215 585 599 617 227 127 336 
615 385 592 353 255 601 60 40 189 
535 187 579 552 328 318 555 586 534 
366 562 87 34 367 616 589 303 570 
543 121 541 64 237 479 247 537 58 
644 638 554 157 324 563 6 243 567 
125 83 565 538 613 546 129 165 373 
401 202 308 193 364 646 504 594 596 
201 158 623 148 29 320 62 346 140 
457 256 226 352 128 472 573 440 168 
483 260 368 557 299 257 542 341 186 
334 56 631 420 345 560 561 507 280 
461 488 343 268 253 251 233 531 108 
31 591 294 548 445 71 576 167 174 
539 496 73 530 427 42 580 11 135 
564 141 503 454 338 273 469 587 392 
417 117 514 109 12 100 162 408 410 
509 321 348 550 437 361 406 272 98 
188 549 99 314 22 82 159 436 518 
489 319 69 229 505 333 533 502 527 
409 415 532 547 160 558 274 551 553 
143 374 290 194 500 380 349 566 95 
399 263 360 204 90 495 545 126 426 
497 181 262 46 220 118 443 33 337 
529 14 199 114 419 94 235 232 182 
559 536 155 435 91 302 351 55 438 
275 113 203 390 429 326 411 122 344 
525 636 139 103 183 526 449 298 517 
306 8 248 264 382 621 75 61 486 
528 424 112 510 400 378 21 446 384 
358 184 447 161 357 287 330 254 104 
520 30 524 540 222 387 309 413 523 
76 375 84 414 52 487 477 295 96 
13 627 484 513 192 329 28 170 240 
59 211 146 311 53 511 522 32 278 
377 252 142 20 151 265 196 519 244 
216 474 119 236 63 178 54 138 431 
279 206 9 498 451 81 313 198 397 
475 89 93 258 471 68 271 136 312 
210 359 102 67 492 388 350 156 239 
307 5 250 283 393 354 147 120 430 
493 116 79 223 234 37 416 323 111 
403 25 177 44 462 422 376 74 276 
490 460 43 259 16 23 101 38 10 
39 224 285 105 171 405 371 205 217 
365 80 389 208 212 305 284 379 501 
512 153 301 124 144 145 453 296 442 
221 17 41 395 363 48 70 315 228 
468 473 152 485 130 325 394 191 97 
131 266 209 179 332 481 65 180 455 
225 421 452 286 482 45 249 123 277 
19 342 476 242 241 173 402 47 640 
335 448 441 340 133 77 641 245 213 
480 464 281 369 466 494 391 434 172 
398 516 499 300 425 4 78 230 27 
50 642 316 15 269 3 7 2 1 

type 1 648 int
1 1 1 1 1 1 1 1 1 
1 1 1 1 1 1 1 1 1 
1 1 1 1 1 1 1 1 1 
1 1 1 1 1 1 1 2 1 
1 1 1 1 1 1 1 1 1 
1 1 1 1 1 1 1 1 1 
1 1 1 1 1 1 1 1 1 
1 1 1 1 1 1 1 1 1 
1 1 1 1 1 1 1 1 1 
1 1 1 1 1 1 1 1 1 
1 1 1 1 1 1 1 1 1 
1 1 1 1 1 1 1 1 1 
1 1 1 1 1 1 1 1 1 
1 1 1 1 1 1 1 1 1 
1 1 1 1 1 1 1 1 1 
1 1 1 1 1 1 1 1 1 
1 1 1 1 1 1 1 1 1 
1 1 1 1 1 1 1 1 1 
1 1 1 1 1 1 1 1 1 
1 1 1 1 1 1 1 1 1 
1 1 1 1 1 1 1 1 1 
1 1 1 1 1 1 2 1 1 
1 1 1 1 1 1 1 1 1 
1 1 1 1 1 1 1 1 1 
1 1 1 1 1 1 1 1 1 
1 1 1 1 1 1 1 1 1 
1 1 1 1 1 1 1 1 1 
1 1 1 1 1 1 1 1 1 
1 1 1 1 1 1 1 1 1 
1 1 1 1 1 1 1 1 1 
1 1 1 1 1 1 1 2 1 
1 1 1 1 1 1 1 1 1 
1 1 1 1 2 1 1 1 1 
1 1 1 1 1 1 1 1 1 
1 1 1 1 1 1 1 1 1 
1 1 1 1 1 1 1 1 1 
1 1 1 1 1 1 1 1 1 
1 1 1 1 1 1 1 1 1 
1 1 1 1 1 1 1 1 1 
1 1 1 1 1 1 1 1 1 
1 2 1 1 1 1 1 1 1 
1 1 1 1 1 1 1 1 1 
1 1 1 1 1 1 1 1 1 
1 1 1 1 1 1 1 1 1 
1 2 1 1 1 1 1 1 1 
1 1 1 1 1 1 1 1 1 
1 1 1 1 1 1 1 1 1 
1 1 1 1 1 1 1 1 1 
1 1 1 1 1 1 1 1 1 
2 1 1 1 1 1 1 1 1 
1 1 1 1 1 1 1 1 1 
1 1 1 1 1 1 1 1 1 
1 1 1 1 1 1 1 1 1 
1 1 2 1 1 1 1 1 1 
1 1 1 1 1 1 1 1 1 
1 1 1 1 1 1 1 1 1 
1 2 1 1 1 1 1 1 1 
1 1 1 1 1 1 1 1 1 
1 1 1 1 1 1 1 1 1 
1 1 1 1 2 1 1 1 2 
1 1 1 1 1 1 1 1 1 
1 1 1 1 1 1 1 1 1 
2 1 1 1 1 1 1 1 1 
1 1 1 1 1 1 1 1 1 
1 1 1 1 1 1 1 1 1 
1 1 1 1 1 1 1 1 1 
1 1 1 1 1 1 1 1 1 
1 1 1 1 1 1 1 1 1 
1 1 1 1 1 1 1 1 1 
1 1 1 1 1 1 1 1 1 
1 2 1 1 1 2 1 1 1 
1 1 1 2 1 2 2 3 4 

i 3 648 int
0 0 0 0 0 0 0 0 0 
0 0 0 0 0 0 0 0 0 
0 0 0 0 0 0 0 0 0 
0 0 0 0 0 0 0 0 0 
0 0 0 0 0 0 0 0 0 
0 0 0 0 0 0 0 0 0 
0 0 0 0 0 0 0 0 0 
0 0 0 0 0 0 0 0 0 
0 0 0 0 0 0 0 0 0 
0 0 0 0 0 0 0 0 0 
0 0 0 0 0 0 0 0 0 
0 0 0 0 0 0 0 0 0 
0 0 0 0 0 0 0 0 0 
0 0 0 0 0 0 0 0 0 
0 0 0 0 0 0 0 0 0 
0 0 0 0 0 0 0 0 0 
0 0 0 0 0 0 0 0 0 
0 0 0 0 0 0 0 0 0 
0 0 0 0 0 0 0 0 0 
0 0 0 0 0 0 0 0 0 
0 0 0 0 0 0 0 0 0 
0 0 0 0 0 0 0 0 0 
0 0 0 0 0 0 0 0 0 
0 0 0 0 0 0 0 0 0 
0 0 0 0 0 0 0 0 0 
0 0 0 0 0 0 0 0 0 
0 0 0 0 0 0 0 0 0 
0 0 0 0 0 0 0 0 0 
0 0 0 0 0 0 0 0 0 
0 0 0 0 0 0 0 0 0 
0 0 0 0 0 0 0 0 0 
0 0 0 0 0 0 0 0 0 
0 0 0 0 0 0 0 0 0 
0 0 0 0 0 0 0 0 0 
0 0 0 0 0 0 0 0 0 
0 0 0 0 0 0 0 0 0 
0 0 0 0 0 0 0 0 0 
0 0 0 0 0 0 0 0 0 
0 0 0 0 0 0 0 0 0 
0 0 0 0 0 0 0 0 0 
0 0 0 0 0 0 0 0 0 
0 0 0 0 0 0 0 0 0 
0 0 0 0 0 0 0 0 0 
0 0 0 0 0 0 0 0 0 
0 0 0 0 0 0 0 0 0 
0 0 0 0 0 0 0 0 0 
0 0 0 0 0 0 0 0 0 
0 0 0 0 0 0 0 0 0 
0 0 0 0 0 0 0 0 0 
0 0 0 0 0 0 0 0 0 
0 0 0 0 0 0 0 0 0 
0 0 0 0 0 0 0 0 0 
0 0 0 0 0 0 0 0 0 
0 0 0 0 0 0 0 0 0 
0 0 0 0 0 0 0 0 0 
0 0 0 0 0 0 0 0 0 
0 0 0 0 0 0 0 0 0 
0 0 0 0 0 0 0 0 0 
0 0 0 0 0 0 0 0 0 
0 0 0 0 0 0 0 0 0 
0 0 0 0 0 0 0 0 0 
0 0 0 0 0 0 0 0 0 
0 0 0 0 0 0 0 0 0 
0 0 0 0 0 0 0 0 0 
0 0 0 0 0 0 0 0 0 
0 0 0 0 0 0 0 0 0 
0 0 0 0 0 0 0 0 0 
0 0 0 0 0 0 0 0 0 
0 0 0 0 0 0 0 0 0 
0 0 0 0 0 0 0 0 0 
0 0 0 0 0 0 0 0 0 
0 0 0 0 0 0 0 0 0 
0 0 0 0 0 0 0 0 0 
0 0 0 0 0 0 0 0 0 
0 0 0 0 0 0 0 0 0 
0 0 0 0 0 0 0 0 0 
0 0 0 0 0 0 0 0 0 
0 0 0 0 0 0 0 0 0 
0 0 0 0 0 0 0 0 0 
0 0 0 0 0 0 0 0 0 
0 0 0 0 0 0 0 0 0 
0 0 0 0 0 0 0 0 0 
0 0 0 0 0 0 0 0 0 
0 0 0 0 0 0 0 0 0 
0 0 0 0 0 0 0 0 0 
0 0 0 0 0 0 0 0 0 
0 0 0 0 0 0 0 0 0 
0 0 0 0 0 0 0 0 0 
0 0 0 0 0 0 0 0 0 
0 0 0 0 0 0 0 0 0 
0 0 0 0 0 0 0 0 0 
0 0 0 0 0 0 0 0 0 
0 0 0 0 0 0 0 0 0 
0 0 0 0 0 0 0 0 0 
0 0 0 0 0 0 0 0 0 
0 0 0 0 0 0 0 0 0 
0 0 0 0 0 0 0 0 0 
0 0 0 0 0 0 0 0 0 
0 0 0 0 0 0 0 0 0 
0 0 0 0 0 0 0 0 0 
0 0 0 0 0 0 0 0 0 
0 0 0 0 0 0 0 0 0 
0 0 0 0 0 0 0 0 0 
0 0 0 0 0 0 0 0 0 
0 0 0 0 0 0 0 0 0 
0 0 0 0 0 0 0 0 0 
0 0 0 0 0 0 0 0 0 
0 0 0 0 0 0 0 0 0 
0 0 0 0 0 0 0 0 0 
0 0 0 0 0 0 0 0 0 
0 0 0 0 0 0 0 0 0 
0 0 0 0 0 0 0 0 0 
0 0 0 0 0 0 0 0 0 
0 0 0 0 0 0 0 0 0 
0 0 0 0 0 0 0 0 0 
0 0 0 0 0 0 0 0 0 
0 0 0 0 0 0 0 0 0 
0 0 0 0 0 0 0 0 0 
0 0 0 0 0 0 0 0 0 
0 0 0 0 0 0 0 0 0 
0 0 0 0 0 0 0 0 0 
0 0 0 0 0 0 0 0 0 
0 0 0 0 0 0 0 0 0 
0 0 0 0 0 0 0 0 0 
0 0 0 0 0 0 0 0 0 
0 0 0 0 0 0 0 0 0 
0 0 0 0 0 0 0 0 0 
0 0 0 0 0 0 0 0 0 
0 0 0 0 0 0 0 0 0 
0 0 0 0 0 0 0 0 0 
0 0 0 0 0 0 0 0 0 
0 0 0 0 0 0 0 0 0 
0 0 0 0 0 0 0 0 0 
0 0 0 0 0 0 0 0 0 
0 0 0 0 0 0 0 0 0 
0 0 0 0 0 0 0 0 0 
0 0 0 0 0 0 0 0 0 
0 0 0 0 0 0 0 0 0 
0 0 0 0 0 0 0 0 0 
0 0 0 0 0 0 0 0 0 
0 0 0 0 0 0 0 0 0 
0 0 0 0 0 0 0 0 0 
0 0 0 0 0 0 0 0 0 
0 0 0 0 0 0 0 0 0 
0 0 0 0 0 0 0 0 0 
0 0 0 0 0 0 0 0 0 
0 0 0 0 0 0 0 0 0 
0 0 0 0 0 0 0 0 0 
0 0 0 0 0 0 0 0 0 
0 0 0 0 0 0 0 0 0 
0 0 0 0 0 0 0 0 0 
0 0 0 0 0 0 0 0 0 
0 0 0 0 0 0 0 0 0 
0 0 0 0 0 0 0 0 0 
0 0 0 0 0 0 0 0 0 
0 0 0 0 0 0 0 0 0 
0 0 0 0 0 0 0 0 0 
0 0 0 0 0 0 0 0 0 
0 0 0 0 0 0 0 0 0 
0 0 0 0 0 0 0 0 0 
0 0 0 0 0 0 0 0 0 
0 0 0 0 0 0 0 0 0 
0 0 0 0 0 0 0 0 0 
0 0 0 0 0 0 0 0 0 
0 0 0 0 0 0 0 0 0 
0 0 0 0 0 0 0 0 0 
0 0 0 0 0 0 0 0 0 
0 0 0 0 0 0 0 0 0 
0 0 0 0 0 0 0 0 0 
0 0 0 0 0 0 0 0 0 
0 0 0 0 0 0 0 0 0 
0 0 0 0 0 0 0 0 0 
0 0 0 0 0 0 0 0 0 
0 0 0 0 0 0 0 0 0 
0 0 0 0 0 0 0 0 0 
0 0 0 0 0 0 0 0 0 
0 0 0 0 0 0 0 0 0 
0 0 0 0 0 0 0 0 0 
0 0 0 0 0 0 0 0 0 
0 0 0 0 0 0 0 0 0 
0 0 0 0 0 0 0 0 0 
0 0 0 0 0 0 0 0 0 
0 0 0 0 0 0 0 0 0 
0 0 0 0 0 0 0 0 0 
0 0 0 0 0 0 0 0 0 
0 0 0 0 0 0 0 0 0 
0 0 0 0 0 0 0 0 0 
0 0 0 0 0 0 0 0 0 
0 0 0 0 0 0 0 0 0 
0 0 0 0 0 0 0 0 0 
0 0 0 0 0 0 0 0 0 
0 0 0 0 0 0 0 0 0 
0 0 0 0 0 0 0 0 0 
0 0 0 0 0 0 0 0 0 
0 0 0 0 0 0 0 0 0 
0 0 0 0 0 0 0 0 0 
0 0 0 0 0 0 0 0 0 
0 0 0 0 0 0 0 0 0 
0 0 0 0 0 0 0 0 0 
0 0 0 0 0 0 0 0 0 
0 0 0 0 0 0 0 0 0 
0 0 0 0 0 0 0 0 0 
0 0 0 0 0 0 0 0 0 
0 0 0 0 0 0 0 0 0 
0 0 0 0 0 0 0 0 0 
0 0 0 0 0 0 0 0 0 
0 0 0 0 0 0 0 0 0 
0 0 0 0 0 0 0 0 0 
0 0 0 0 0 0 0 0 0 
0 0 0 0 0 0 0 0 0 
0 0 0 0 0 0 0 0 0 
0 0 0 0 0 0 0 0 0 
0 0 0 0 0 0 0 0 0 
0 0 0 0 0 0 0 0 0 
0 0 0 0 0 0 0 0 0 
0 0 0 0 0 0 0 0 0 

v 3 648 double
0 0 0.055607567247 0 0 0.058473781283 0 0 -0.62499918749 
0 0 0.057911248862 0 0 0.068210226722 0 0 0.2430401708 
0 0 -0.16800371988 0 0 0.21644277323 0 0 -0.16249846426 
0 0 -0.16207274539 0 0 0.048182312389 0 0 -0.15977605475 
0 0 -0.16631116986 0 0 -0.16253786718 0 0 0.20929773284 
0 0 -0.16424967086 0 0 0.27636717133 0 0 -0.16818561955 
0 0 0.20596137585 0 0 -0.64774918749 0 0 -0.15589088927 
0 0 -0.15181297078 0 0 0.24824327241 0 0 -0.15704517269 
0 0 -0.15402444263 0 0 -0.15430409195 0 0 -0.15726980571 
0 0 -0.15203739164 0 0 0.23313354909 0 0 -0.15708874844 
0 0 0.20896916271 0 0 -0.61199918749 0 0 -0.1460379099 
0 0 0.16395915046 0 0 0.24195923907 0 0 -0.14769331144 
0 0 0.20869048616 0 0 -0.13880892709 0 0 -0.1515332918 
0 0 -0.64774918749 0 0 -0.61199918749 0 0 0.23166876206 
0 0 0.22735259914 0 0 -0.13720400938 0 0 -0.14205913114 
0 0 -0.14044992772 0 0 0.2038208262 0 0 -0.13649822935 
0 0 -0.14388804245 0 0 -0.14449023565 0 0 -0.14048997859 
0 0 -0.15919667636 0 0 0.1987671594 0 0 0.19855976474 
0 0 -0.62174918749 0 0 -0.1150516083 0 0 -0.14411089665 
0 0 0.17869479815 0 0 -0.12351492948 0 0 -0.13122230115 
0 0 -0.13120105129 0 0 0.1944191842 0 0 -0.12905737589 
0 0 -0.13144282635 0 0 -0.11928845729 0 0 -0.13624099026 
0 0 -0.61199918749 0 0 -0.13373318213 0 0 0.20703402464 
0 0 -0.14934963862 0 0 -0.1146167744 0 0 -0.12136589817 
0 0 -0.12562200625 0 0 -0.12444646881 0 0 0.20095276322 
0 0 -0.12259846291 0 0 -0.14304679957 0 0 -0.12462528642 
0 0 -0.12275232366 0 0 -0.12517942325 0 0 -0.11226065881 
0 0 -0.11538496212 0 0 -0.11985273825 0 0 -0.12899777996 
0 0 0.13851356551 0 0 -0.62824918749 0 0 0.18735788653 
0 0 -0.12076587575 0 0 0.12578755015 0 0 -0.1084027083 
0 0 -0.14138539917 0 0 0.13283047568 0 0 -0.14071750178 
0 0 -0.13167012028 0 0 -0.10714150746 0 0 -0.13929635678 
0 0 -0.10960232613 0 0 -0.13635860654 0 0 0.088083953287 
0 0 0.10071246035 0 0 -0.10686918105 0 0 0.1831607554 
0 0 0.17616975184 0 0 -0.096272677486 0 0 -0.1061231372 
0 0 -0.11238068169 0 0 -0.13303162324 0 0 0.14743180619 
0 0 0.20180633856 0 0 -0.14138114554 0 0 0.17694573728 
0 0 -0.080156124883 0 0 0.13459993137 0 0 -0.13250247637 
0 0 0.10901294885 0 0 -0.11207862631 0 0 -0.13553173085 
0 0 0.1513649276 0 0 -0.099831213315 0 0 -0.13992592142 
0 0 -0.09481328755 0 0 0.18110142312 0 0 0.16352862731 
0 0 -0.10772625166 0 0 -0.080079067839 0 0 -0.13407619397 
0 0 -0.1077712331 0 0 0.16236292606 0 0 -0.13798046146 
0 0 -0.11282276032 0 0 0.11717309606 0 0 -0.1396181149 
0 0 -0.62499918749 0 0 -0.10670751934 0 0 -0.085857098916 
0 0 0.050200731999 0 0 -0.10131611258 0 0 -0.079953149944 
0 0 -0.086997802067 0 0 -0.13012306176 0 0 0.068642324033 
0 0 0.028748416532 0 0 0.16176434535 0 0 0.059188900547 
0 0 -0.12691725152 0 0 0.045028044509 0 0 -0.12599850927 
0 0 0.15779366317 0 0 0.15126254389 0 0 0.16386088532 
0 0 -0.094395025948 0 0 -0.13066247862 0 0 -0.12597505798 
0 0 0.066885721953 0 0 -0.12645678279 0 0 0.056804633242 
0 0 -0.12313710715 0 0 -0.084871458317 0 0 0.024964562113 
0 0 -0.096316281144 0 0 -0.096893730487 0 0 -0.12029635742 
0 0 0.11804566524 0 0 -0.11943635291 0 0 0.10589205661 
0 0 0.12949399442 0 0 -0.083620158756 0 0 -0.093959496967 
0 0 0.17864172213 0 0 0.1624228567 0 0 0.097181882671 
0 0 -0.11689362931 0 0 0.015059972821 0 0 -0.11025397486 
0 0 -0.078325660639 0 0 -0.1052538379 0 0 0.11811498909 
0 0 0.038155700564 0 0 -0.08875596714 0 0 0.065260149222 
0 0 -0.00097194980797 0 0 -0.075296864998 0 0 0.17060187259 
0 0 -0.07579118286 0 0 -0.11413357505 0 0 -0.07011537539 
0 0 -0.117271644 0 0 0.16833428964 0 0 -0.11546338286 
0 0 -0.61199918749 0 0 0.10901916848 0 0 0.15433676501 
0 0 -0.069286730177 0 0 -0.085300021679 0 0 0.067454070161 
0 0 -0.12731914438 0 0 -0.075653284499 0 0 0.010640167921 
0 0 -0.11609379099 0 0 -0.10743390065 0 0 0.079728672562 
0 0 -0.0082998995322 0 0 0.13749025154 0 0 0.024864951487 
0 0 -0.073837512154 0 0 -0.1152354314 0 0 -0.11507688129 
0 0 -0.068027968323 0 0 -0.075725725187 0 0 -0.071581864079 
0 0 -0.11200198234 0 0 -0.11252645292 0 0 -0.61199918749 
0 0 -0.061857405264 0 0 0.14180264491 0 0 0.11972834232 
0 0 -0.074793119141 0 0 -0.10902914341 0 0 0.13720176567 
0 0 -0.06545534487 0 0 -0.11014246967 0 0 -0.075032986826 
0 0 -0.074139041986 0 0 -0.052417226942 0 0 -0.060788105893 
0 0 -0.1012187566 0 0 -0.096203093409 0 0 -0.059544282121 
0 0 -0.050958727136 0 0 -0.059624644665 0 0 -0.05402820104 
0 0 0.12096373141 0 0 -0.1025134855 0 0 -0.076431644113 
0 0 -0.10089415757 0 0 -0.04766426892 0 0 -0.038048198035 
0 0 0.13100410281 0 0 -0.048704316258 0 0 -0.05167217749 
0 0 -0.017467206466 0 0 -0.061158957257 0 0 -0.1033957402 
0 0 -0.04820005477 0 0 -0.044479608418 0 0 -0.62174918749 
0 0 -0.041357895952 0 0 -0.037156848512 0 0 0.13514294258 
0 0 0.12501686848 0 0 -0.011270734196 0 0 -0.10112589396 
0 0 -0.046458978354 0 0 -0.097204434962 0 0 -0.054175576243 
0 0 -0.049467913785 0 0 -0.11043662176 0 0 -0.053570362436 
0 0 -0.093502340556 0 0 0.16269968463 0 0 -0.041079970249 
0 0 -0.015578013155 0 0 0.046464132461 0 0 -0.040435907761 
0 0 0.13314160075 0 0 -0.020863256021 0 0 -0.033036852875 
0 0 0.073359111818 0 0 -0.078218770859 0 0 -0.057562726126 
0 0 0.1166583582 0 0 -0.087947008413 0 0 -0.093330207651 
0 0 0.11928914302 0 0 -0.079653009497 0 0 -0.030793526804 
0 0 0.065065175257 0 0 -0.11016924314 0 0 -0.022706446769 
0 0 0.07193674555 0 0 -0.06175478303 0 0 0.003643550493 
0 0 -0.079522535111 0 0 -0.010762228527 0 0 -0.034401929762 
0 0 -0.049298220108 0 0 0.057807517903 0 0 -0.044815130292 
0 0 -0.080100205032 0 0 -0.034872358591 0 0 0.059806067426 
0 0 -0.032222251827 0 0 -0.10744148684 0 0 -0.090257297498 
0 0 -0.080907034399 0 0 -0.088070058348 0 0 -0.079887125312 
0 0 0.0046038919348 0 0 -0.082571758431 0 0 -0.037265992594 
0 0 0.11811064415 0 0 -0.051839154073 0 0 -0.026857359615 
0 0 -0.079244009881 0 0 -0.049230995575 0 0 -0.05958032222 
0 0 -0.065321634868 0 0 0.059454153638 0 0 0.003760290954 
0 0 -0.061995975438 0 0 -0.071805837262 0 0 -0.00804654627 
0 0 0.011792789399 0 0 -0.00022929856063 0 0 0.059717682983 
0 0 -0.015439046249 0 0 -0.066037566096 0 0 0.014167110573 
0 0 -0.067908979841 0 0 -0.052878625788 0 0 -0.027682417449 
0 0 0.073291155459 0 0 0.016859573386 0 0 0.083627923551 
0 0 -0.06440946601 0 0 -0.059544720066 0 0 0.086606577644 
0 0 0.082585789069 0 0 0.0044657282086 0 0 0.12631558705 
0 0 -0.0019658864216 0 0 0.074254438053 0 0 0.043107837327 
0 0 0.0056399699664 0 0 -0.0023913481228 0 0 -0.071604210032 
0 0 -0.0014456787706 0 0 -0.072022003016 0 0 -0.013021441942 
0 0 -0.074394501934 0 0 0.076244029516 0 0 0.028971151307 
0 0 -0.07105002527 0 0 -0.072448900821 0 0 -0.024900530546 
0 0 -0.023411290826 0 0 -0.062975775799 0 0 -0.058935142894 
0 0 0.086999391257 0 0 -0.0088358868778 0 0 -0.021020208203 
0 0 0.012224916098 0 0 -5.6953681927e-05 0 0 0.019238464799 
0 0 0.0046669171989 0 0 0.0054700662697 0 0 0.015030194812 
0 0 -0.002758396898 0 0 0.0070872560755 0 0 -0.071919396467 
0 0 -0.013646252394 0 0 -0.093443619304 0 0 -0.065922811447 
0 0 -0.005791933119 0 0 0.028997198769 0 0 -0.032156696006 
0 0 0.03351137709 0 0 -0.032028016146 0 0 -0.013101385161 
0 0 0.021059357459 0 0 0.01549559261 0 0 -0.07808193911 
0 0 -0.081676470873 0 0 -0.07212832335 0 0 -0.0059343918851 
0 0 -0.063250743066 0 0 -0.007579017912 0 0 -0.0036799249399 
0 0 -0.04624284492 0 0 -0.043289024838 0 0 0.029794638326 
0 0 -0.047837357771 0 0 -0.046393249186 0 0 -0.061044603132 
0 0 -0.060074149975 0 0 -0.042953180773 0 0 0.023492301216 
0 0 0.092298346865 0 0 -0.61849918749 0 0 -0.0028893696692 
0 0 0.017535635512 0 0 -0.042863991768 0 0 0.032875666438 
0 0 0.00026645663634 0 0 -0.053875537657 0 0 0.085256470288 
0 0 0.032028639142 0 0 -0.07775434997 0 0 -0.05427551405 
0 0 0.040233110278 0 0 0.036276551068 0 0 -0.62824918749 
0 0 -0.046575634458 0 0 -0.046046893364 0 0 -0.05065310733 
0 0 0.055318558325 0 0 -0.063146069893 0 0 -0.062400235701 
0 0 0.11078094257 0 0 0.03501311647 0 0 -0.039384183123 
0 0 -0.061499106224 0 0 -0.043822967861 0 0 -0.054634870781 
0 0 0.025001272487 0 0 0.042858496327 0 0 -0.041884697116 
0 0 -0.044835142622 0 0 -0.049590804232 0 0 -0.040088563287 
0 0 -0.053201914824 0 0 -0.0044061204664 0 0 -0.057250897951 
0 0 0.018345316595 0 0 -0.050351677823 0 0 0.067942765594 
0 0 0.091908270976 0 0 -0.063448547394 0 0 0.023179431138 
0 0 0.014697632015 0 0 0.0053454784317 0 0 0.06089926587 
0 0 -0.051658529956 0 0 -0.03756484143 0 0 -0.033560656959 
0 0 -0.016976667178 0 0 -0.0081649613919 0 0 -0.0050060945793 
0 0 -0.029052262555 0 0 -0.026304039633 0 0 -0.038141428516 
0 0 -0.066834786611 0 0 -0.62499918749 0 0 -0.037469069236 
0 0 0.088110472238 0 0 0.042422354017 0 0 -0.0090916453863 
0 0 -0.030081998679 0 0 -0.012312918535 0 0 -0.04779776441 
0 0 -0.019519586508 0 0 -0.034595818096 0 0 -0.017291750626 
0 0 -0.031439074109 0 0 -0.010726212179 0 0 0.030188250846 
0 0 0.049562775645 0 0 -0.045550535899 0 0 -0.023511489758 
0 0 -0.03486012013 0 0 -0.010663490112 0 0 -0.0072400322292 
0 0 -0.017592931822 0 0 -0.020844948686 0 0 -0.0049197688576 
0 0 -0.032625834741 0 0 0.034906956281 0 0 -0.01236070025 
0 0 -0.029172340866 0 0 -0.027489039245 0 0 -0.0271596747 
0 0 -0.041690169254 0 0 -0.020044107449 0 0 -0.032805072425 
0 0 -0.050388044197 0 0 0.0057286339068 0 0 -0.013407145425 
0 0 -0.0082230324498 0 0 -0.012743881577 0 0 -0.080922768369 
0 0 -0.036026233811 0 0 -0.036120990923 0 0 -0.026196514949 
0 0 -0.02792574664 0 0 -0.038992454133 0 0 -0.017039347118 
0 0 -0.031081732093 0 0 -9.8866657992e-05 0 0 0.0041579039469 
0 0 0.035071251334 0 0 0.022757710959 0 0 0.0070467221647 
0 0 -0.028273336741 0 0 0.035539952664 0 0 0.046169656469 
0 0 0.032297014818 0 0 0.02861365276 0 0 -0.011542304822 
0 0 0.064989873702 0 0 0.060685990883 0 0 0.040399565953 
0 0 0.012640150294 0 0 0.0062328340494 0 0 0.00077224688487 
0 0 0.041342349529 0 0 -0.052142623863 0 0 -0.0052540281287 
0 0 0.058399071913 0 0 -0.0067923565201 0 0 0.022425319371 
0 0 0.012324849481 0 0 0.053801185353 0 0 0.0181349779 
0 0 -0.0021787810923 0 0 0.0081520385788 0 0 -0.0044073938749 
0 0 -0.024211516283 0 0 0.043217821822 0 0 0.066218089768 
0 0 -0.0046677348695 0 0 -0.0026253367959 0 0 -0.015995899348 
0 0 0.004860479199 0 0 0.0052479715838 0 0 0.037198869986 
0 0 0.048181378913 0 0 -0.0025889854232 0 0 0.051034317951 
0 0 0.023238498822 0 0 -0.0065107085845 0 0 0.021414908569 
0 0 0.047420910948 0 0 0.010273379886 0 0 0.010462501302 
0 0 0.054352260647 0 0 -0.047227460248 0 0 0.03756966802 
0 0 0.056199854982 0 0 -0.0025587918076 0 0 -0.063477363113 
0 0 0.05833682451 0 0 0.06123265393 0 0 0.016832989658 
0 0 0.0051380348576 0 0 -0.0021545059857 0 0 0.0108675969 
0 0 0.0016586897474 0 0 -0.0063910268961 0 0 0.0022080878675 
0 0 0.052954879511 0 0 0.038923593272 0 0 0.054248435473 
0 0 -0.011138909128 0 0 0.021229453068 0 0 0.0097237879199 
0 0 0.044933700734 0 0 0.010270902 0 0 0.038320885163 
0 0 0.15930413992 0 0 0.026444281559 0 0 0.0094216473316 
0 0 0.023253510313 0 0 -0.0023589256054 0 0 0.033769488951 
0 0 0.029700159567 0 0 0.02480862228 0 0 0.028126169186 
0 0 0.020186722759 0 0 -0.0083020830384 0 0 0.037051092934 
0 0 -0.012733388319 0 0 -0.0044781561554 0 0 0.043280933588 
0 0 0.013641376806 0 0 0.025821446961 0 0 0.045972942694 
0 0 0.054343097796 0 0 0.048085395982 0 0 0.056900230145 
0 0 0.043354423577 0 0 0.018605541666 0 0 -0.0015811983312 
0 0 -0.010228715063 0 0 0.038176970095 0 0 0.055370669946 
0 0 0.053118104285 0 0 0.0088211427665 0 0 0.041954034031 
0 0 0.0235404619 0 0 0.033524060163 0 0 0.0037942410683 
0 0 -0.0082787340896 0 0 0.031103207205 0 0 0.0095294822002 
0 0 0.0011800190005 0 0 0.014017486388 0 0 0.046576280409 
0 0 0.0068261813673 0 0 0.025951145812 0 0 -0.012879238177 
0 0 0.064990553033 0 0 0.0046477720549 0 0 0.066914472105 
0 0 0.067188114278 0 0 -0.0014273685122 0 0 0.019750292957 
0 0 0.051687359652 0 0 0.076753965079 0 0 0.0624490027 
0 0 0.051641334608 0 0 0.049681197274 0 0 -0.61524918749 
0 0 0.021692757493 0 0 0.026376486542 0 0 0.04043351482 
0 0 0.032407053619 0 0 0.075531345079 0 0 0.03007925621 
0 0 -0.61524918749 0 0 0.045219189102 0 0 0.020474228357 
0 0 0.031172585433 0 0 0.063377713012 0 0 0.019854866611 
0 0 0.080924545498 0 0 0.027527975991 0 0 0.061321417668 
0 0 0.06243510339 0 0 0.040178564471 0 0 0.06303608082 
0 0 0.066325477741 0 0 0.089188904819 0 0 0.049745661141 
0 0 0.048166185878 0 0 0.01591563999 0 0 -0.03114241923 
0 0 0.0092886157423 0 0 0.092879661041 0 0 0.089490859411 
0 0 0.051451173882 0 0 -0.61199918749 0 0 0.057298403143 
0 0 -0.0090757355744 0 0 0.08099267595 0 0 0.059091592173 
0 0 0.0602841462 0 0 -0.009805534954 0 0 0.11025495422 

f 3 648 double
0 0 -1.7425367252e-10 0 0 -1.7425367252e-10 0 0 -1.7425367252e-10 
0 0 -1.7425367252e-10 0 0 -1.7425367252e-10 0 0 -1.7425367252e-10 
0 0 -1.7425367252e-10 0 0 -1.7425367252e-10 0 0 -1.7425367252e-10 
0 0 -1.7425367252e-10 0 0 -1.7425367252e-10 0 0 -1.7425367252e-10 
0 0 -1.7425367252e-10 0 0 -1.7425367252e-10 0 0 -1.7425367252e-10 
0 0 -1.7425367252e-10 0 0 -1.7425367252e-10 0 0 -1.7425367252e-10 
0 0 -1.7425367252e-10 0 0 -1.7425367252e-10 0 0 -1.7425367252e-10 
0 0 -1.7425367252e-10 0 0 -1.7425367252e-10 0 0 -1.7425367252e-10 
0 0 -1.7425367252e-10 0 0 -1.7425367252e-10 0 0 -1.7425367252e-10 
0 0 -1.7425367252e-10 0 0 -1.7425367252e-10 0 0 -1.7425367252e-10 
0 0 -1.7425367252e-10 0 0 -1.7425367252e-10 0 0 -1.7425367252e-10 
0 0 -1.7425367252e-10 0 0 -8.9019973083e-09 0 0 -1.7425367252e-10 
0 0 -1.7425367252e-10 0 0 -1.7425367252e-10 0 0 -1.7425367252e-10 
0 0 -1.7425367252e-10 0 0 -1.7425367252e-10 0 0 -1.7425367252e-10 
0 0 -1.7425367252e-10 0 0 -1.7425367252e-10 0 0 -1.7425367252e-10 
0 0 -1.7425367252e-10 0 0 -1.7425367252e-10 0 0 -1.7425367252e-10 
0 0 -1.7425367252e-10 0 0 -1.7425367252e-10 0 0 -1.7425367252e-10 
0 0 -1.7425367252e-10 0 0 -1.7425367252e-10 0 0 -1.7425367252e-10 
0 0 -1.7425367252e-10 0 0 -1.7425367252e-10 0 0 -1.7425367252e-10 
0 0 -1.7425367252e-10 0 0 -1.7425367252e-10 0 0 -1.7425367252e-10 
0 0 -1.7425367252e-10 0 0 -1.7425367252e-10 0 0 -1.7425367252e-10 
0 0 -1.7425367252e-10 0 0 -1.7425367252e-10 0 0 -1.7425367252e-10 
0 0 -1.7425367252e-10 0 0 -1.7425367252e-10 0 0 -1.7425367252e-10 
0 0 -1.7425367252e-10 0 0 -1.7425367252e-10 0 0 -1.7425367252e-10 
0 0 -1.7425367252e-10 0 0 -1.7425367252e-10 0 0 -1.7425367252e-10 
0 0 -1.7425367252e-10 0 0 -1.7425367252e-10 0 0 -1.7425367252e-10 
0 0 -1.7425367252e-10 0 0 -1.7425367252e-10 0 0 -1.7425367252e-10 
0 0 -1.7425367252e-10 0 0 -1.7425367252e-10 0 0 -1.7425367252e-10 
0 0 -1.7425367252e-10 0 0 -1.7425367252e-10 0 0 -1.7425367252e-10 
0 0 -1.7425367252e-10 0 0 -1.7425367252e-10 0 0 -1.7425367252e-10 
0 0 -1.7425367252e-10 0 0 -1.7425367252e-10 0 0 -1.7425367252e-10 
0 0 -1.7425367252e-10 0 0 -1.7425367252e-10 0 0 -1.7425367252e-10 
0 0 -1.7425367252e-10 0 0 -1.7425367252e-10 0 0 -1.7425367252e-10 
0 0 -1.7425367252e-10 0 0 -1.7425367252e-10 0 0 -1.7425367252e-10 
0 0 -1.7425367252e-10 0 0 -1.7425367252e-10 0 0 -1.7425367252e-10 
0 0 -1.7425367252e-10 0 0 -1.7425367252e-10 0 0 -1.7425367252e-10 
0 0 -1.7425367252e-10 0 0 -1.7425367252e-10 0 0 -1.7425367252e-10 
0 0 -1.7425367252e-10 0 0 -1.7425367252e-10 0 0 -1.7425367252e-10 
0 0 -1.7425367252e-10 0 0 -1.7425367252e-10 0 0 -1.7425367252e-10 
0 0 -1.7425367252e-10 0 0 -1.7425367252e-10 0 0 -1.7425367252e-10 
0 0 -1.7425367252e-10 0 0 -1.7425367252e-10 0 0 -1.7425367252e-10 
0 0 -1.7425367252e-10 0 0 -1.7425367252e-10 0 0 -1.7425367252e-10 
0 0 -1.7425367252e-10 0 0 -1.7425367252e-10 0 0 -1.7425367252e-10 
0 0 -1.7425367252e-10 0 0 -1.7425367252e-10 0 0 -1.7425367252e-10 
0 0 -1.7425367252e-10 0 0 -1.7425367252e-10 0 0 -1.7425367252e-10 
0 0 -1.7425367252e-10 0 0 -1.7425367252e-10 0 0 -1.7425367252e-10 
0 0 -1.7425367252e-10 0 0 -1.7425367252e-10 0 0 -1.7425367252e-10 
0 0 -1.7425367252e-10 0 0 -1.7425367252e-10 0 0 -1.7425367252e-10 
0 0 -1.7425367252e-10 0 0 -1.7425367252e-10 0 0 -1.7425367252e-10 
0 0 -1.7425367252e-10 0 0 -1.7425367252e-10 0 0 -1.7425367252e-10 
0 0 -1.7425367252e-10 0 0 -1.7425367252e-10 0 0 -1.7425367252e-10 
0 0 -1.7425367252e-10 0 0 -1.7425367252e-10 0 0 -1.7425367252e-10 
0 0 -1.7425367252e-10 0 0 -1.7425367252e-10 0 0 -1.7425367252e-10 
0 0 -1.7425367252e-10 0 0 -1.7425367252e-10 0 0 -1.7425367252e-10 
0 0 -1.7425367252e-10 0 0 -1.7425367252e-10 0 0 -1.7425367252e-10 
0 0 -1.7425367252e-10 0 0 -1.7425367252e-10 0 0 -1.7425367252e-10 
0 0 -1.7425367252e-10 0 0 -1.7425367252e-10 0 0 -1.7425367252e-10 
0 0 -1.7425367252e-10 0 0 -1.7425367252e-10 0 0 -1.7425367252e-10 
0 0 -1.7425367252e-10 0 0 -1.7425367252e-10 0 0 -1.7425367252e-10 
0 0 -1.7425367252e-10 0 0 -1.7425367252e-10 0 0 -1.7425367252e-10 
0 0 -1.7425367252e-10 0 0 -1.7425367252e-10 0 0 -1.7425367252e-10 
0 0 -1.7425367252e-10 0 0 -1.7425367252e-10 0 0 -1.7425367252e-10 
0 0 -1.7425367252e-10 0 0 -1.7425367252e-10 0 0 -1.7425367252e-10 
0 0 -1.7425367252e-10 0 0 -1.7425367252e-10 0 0 -1.7425367252e-10 
0 0 -1.7425367252e-10 0 0 -1.7425367252e-10 0 0 -1.7425367252e-10 
0 0 -8.9019973083e-09 0 0 -1.7425367252e-10 0 0 -1.7425367252e-10 
0 0 -1.7425367252e-10 0 0 -1.7425367252e-10 0 0 -1.7425367252e-10 
0 0 -1.7425367252e-10 0 0 -1.7425367252e-10 0 0 -1.7425367252e-10 
0 0 -1.7425367252e-10 0 0 -1.7425367252e-10 0 0 -1.7425367252e-10 
0 0 -1.7425367252e-10 0 0 -1.7425367252e-10 0 0 -1.7425367252e-10 
0 0 -1.7425367252e-10 0 0 -1.7425367252e-10 0 0 -1.7425367252e-10 
0 0 -1.7425367252e-10 0 0 -1.7425367252e-10 0 0 -1.7425367252e-10 
0 0 -1.7425367252e-10 0 0 -1.7425367252e-10 0 0 -1.7425367252e-10 
0 0 -1.7425367252e-10 0 0 -1.7425367252e-10 0 0 -1.7425367252e-10 
0 0 -1.7425367252e-10 0 0 -1.7425367252e-10 0 0 -1.7425367252e-10 
0 0 -1.7425367252e-10 0 0 -1.7425367252e-10 0 0 -1.7425367252e-10 
0 0 -1.7425367252e-10 0 0 -1.7425367252e-10 0 0 -1.7425367252e-10 
0 0 -1.7425367252e-10 0 0 -1.7425367252e-10 0 0 -1.7425367252e-10 
0 0 -1.7425367252e-10 0 0 -1.7425367252e-10 0 0 -1.7425367252e-10 
0 0 -1.7425367252e-10 0 0 -1.7425367252e-10 0 0 -1.7425367252e-10 
0 0 -1.7425367252e-10 0 0 -1.7425367252e-10 0 0 -1.7425367252e-10 
0 0 -1.7425367252e-10 0 0 -1.7425367252e-10 0 0 -1.7425367252e-10 
0 0 -1.7425367252e-10 0 0 -1.7425367252e-10 0 0 -1.7425367252e-10 
0 0 -1.7425367252e-10 0 0 -1.7425367252e-10 0 0 -1.7425367252e-10 
0 0 -1.7425367252e-10 0 0 -1.7425367252e-10 0 0 -1.7425367252e-10 
0 0 -1.7425367252e-10 0 0 -1.7425367252e-10 0 0 -1.7425367252e-10 
0 0 -1.7425367252e-10 0 0 -1.7425367252e-10 0 0 -1.7425367252e-10 
0 0 -1.7425367252e-10 0 0 -1.7425367252e-10 0 0 -1.7425367252e-10 
0 0 -1.7425367252e-10 0 0 -1.7425367252e-10 0 0 -1.7425367252e-10 
0 0 -1.7425367252e-10 0 0 -1.7425367252e-10 0 0 -1.7425367252e-10 
0 0 -1.7425367252e-10 0 0 -1.7425367252e-10 0 0 -1.7425367252e-10 
0 0 -1.7425367252e-10 0 0 -1.7425367252e-10 0 0 -1.7425367252e-10 
0 0 -1.7425367252e-10 0 0 -8.9019973083e-09 0 0 -1.7425367252e-10 
0 0 -1.7425367252e-10 0 0 -1.7425367252e-10 0 0 -1.7425367252e-10 
0 0 -1.7425367252e-10 0 0 -1.7425367252e-10 0 0 -1.7425367252e-10 
0 0 -1.7425367252e-10 0 0 -1.7425367252e-10 0 0 -1.7425367252e-10 
0 0 -1.7425367252e-10 0 0 -1.7425367252e-10 0 0 -1.7425367252e-10 
0 0 -1.7425367252e-10 0 0 -8.9019973083e-09 0 0 -1.7425367252e-10 
0 0 -1.7425367252e-10 0 0 -1.7425367252e-10 0 0 -1.7425367252e-10 
0 0 -1.7425367252e-10 0 0 -1.7425367252e-10 0 0 -1.7425367252e-10 
0 0 -1.7425367252e-10 0 0 -1.7425367252e-10 0 0 -1.7425367252e-10 
0 0 -1.7425367252e-10 0 0 -1.7425367252e-10 0 0 -1.7425367252e-10 
0 0 -1.7425367252e-10 0 0 -1.7425367252e-10 0 0 -1.7425367252e-10 
0 0 -1.7425367252e-10 0 0 -1.7425367252e-10 0 0 -1.7425367252e-10 
0 0 -1.7425367252e-10 0 0 -1.7425367252e-10 0 0 -1.7425367252e-10 
0 0 -1.7425367252e-10 0 0 -1.7425367252e-10 0 0 -1.7425367252e-10 
0 0 -1.7425367252e-10 0 0 -1.7425367252e-10 0 0 -1.7425367252e-10 
0 0 -1.7425367252e-10 0 0 -1.7425367252e-10 0 0 -1.7425367252e-10 
0 0 -1.7425367252e-10 0 0 -1.7425367252e-10 0 0 -1.7425367252e-10 
0 0 -1.7425367252e-10 0 0 -1.7425367252e-10 0 0 -1.7425367252e-10 
0 0 -1.7425367252e-10 0 0 -1.7425367252e-10 0 0 -1.7425367252e-10 
0 0 -1.7425367252e-10 0 0 -1.7425367252e-10 0 0 -1.7425367252e-10 
0 0 -1.7425367252e-10 0 0 -1.7425367252e-10 0 0 -1.7425367252e-10 
0 0 -1.7425367252e-10 0 0 -1.7425367252e-10 0 0 -1.7425367252e-10 
0 0 -1.7425367252e-10 0 0 -1.7425367252e-10 0 0 -1.7425367252e-10 
0 0 -1.7425367252e-10 0 0 -1.7425367252e-10 0 0 -1.7425367252e-10 
0 0 -1.7425367252e-10 0 0 -1.7425367252e-10 0 0 -1.7425367252e-10 
0 0 -1.7425367252e-10 0 0 -1.7425367252e-10 0 0 -1.7425367252e-10 
0 0 -1.7425367252e-10 0 0 -1.7425367252e-10 0 0 -1.7425367252e-10 
0 0 -1.7425367252e-10 0 0 -1.7425367252e-10 0 0 -1.7425367252e-10 
0 0 -1.7425367252e-10 0 0 -8.9019973083e-09 0 0 -1.7425367252e-10 
0 0 -1.7425367252e-10 0 0 -1.7425367252e-10 0 0 -1.7425367252e-10 
0 0 -1.7425367252e-10 0 0 -1.7425367252e-10 0 0 -1.7425367252e-10 
0 0 -1.7425367252e-10 0 0 -1.7425367252e-10 0 0 -1.7425367252e-10 
0 0 -1.7425367252e-10 0 0 -1.7425367252e-10 0 0 -1.7425367252e-10 
0 0 -1.7425367252e-10 0 0 -1.7425367252e-10 0 0 -1.7425367252e-10 
0 0 -1.7425367252e-10 0 0 -1.7425367252e-10 0 0 -1.7425367252e-10 
0 0 -1.7425367252e-10 0 0 -1.7425367252e-10 0 0 -1.7425367252e-10 
0 0 -1.7425367252e-10 0 0 -1.7425367252e-10 0 0 -1.7425367252e-10 
0 0 -1.7425367252e-10 0 0 -1.7425367252e-10 0 0 -1.7425367252e-10 
0 0 -1.7425367252e-10 0 0 -1.7425367252e-10 0 0 -1.7425367252e-10 
0 0 -1.7425367252e-10 0 0 -1.7425367252e-10 0 0 -1.7425367252e-10 
0 0 -1.7425367252e-10 0 0 -8.9019973083e-09 0 0 -1.7425367252e-10 
0 0 -1.7425367252e-10 0 0 -1.7425367252e-10 0 0 -1.7425367252e-10 
0 0 -1.7425367252e-10 0 0 -1.7425367252e-10 0 0 -1.7425367252e-10 
0 0 -1.7425367252e-10 0 0 -1.7425367252e-10 0 0 -1.7425367252e-10 
0 0 -1.7425367252e-10 0 0 -1.7425367252e-10 0 0 -1.7425367252e-10 
0 0 -1.7425367252e-10 0 0 -1.7425367252e-10 0 0 -1.7425367252e-10 
0 0 -1.7425367252e-10 0 0 -1.7425367252e-10 0 0 -1.7425367252e-10 
0 0 -1.7425367252e-10 0 0 -1.7425367252e-10 0 0 -1.7425367252e-10 
0 0 -1.7425367252e-10 0 0 -1.7425367252e-10 0 0 -1.7425367252e-10 
0 0 -1.7425367252e-10 0 0 -1.7425367252e-10 0 0 -1.7425367252e-10 
0 0 -1.7425367252e-10 0 0 -1.7425367252e-10 0 0 -1.7425367252e-10 
0 0 -1.7425367252e-10 0 0 -1.7425367252e-10 0 0 -1.7425367252e-10 
0 0 -1.7425367252e-10 0 0 -1.7425367252e-10 0 0 -1.7425367252e-10 
0 0 -1.7425367252e-10 0 0 -1.7425367252e-10 0 0 -1.7425367252e-10 
0 0 -1.7425367252e-10 0 0 -1.7425367252e-10 0 0 -1.7425367252e-10 
0 0 -8.9019973083e-09 0 0 -1.7425367252e-10 0 0 -1.7425367252e-10 
0 0 -1.7425367252e-10 0 0 -1.7425367252e-10 0 0 -1.7425367252e-10 
0 0 -1.7425367252e-10 0 0 -1.7425367252e-10 0 0 -1.7425367252e-10 
0 0 -1.7425367252e-10 0 0 -1.7425367252e-10 0 0 -1.7425367252e-10 
0 0 -1.7425367252e-10 0 0 -1.7425367252e-10 0 0 -1.7425367252e-10 
0 0 -1.7425367252e-10 0 0 -1.7425367252e-10 0 0 -1.7425367252e-10 
0 0 -1.7425367252e-10 0 0 -1.7425367252e-10 0 0 -1.7425367252e-10 
0 0 -1.7425367252e-10 0 0 -1.7425367252e-10 0 0 -1.7425367252e-10 
0 0 -1.7425367252e-10 0 0 -1.7425367252e-10 0 0 -1.7425367252e-10 
0 0 -1.7425367252e-10 0 0 -1.7425367252e-10 0 0 -1.7425367252e-10 
0 0 -1.7425367252e-10 0 0 -1.7425367252e-10 0 0 -1.7425367252e-10 
0 0 -1.7425367252e-10 0 0 -1.7425367252e-10 0 0 -1.7425367252e-10 
0 0 -1.7425367252e-10 0 0 -1.7425367252e-10 0 0 -8.9019973083e-09 
0 0 -1.7425367252e-10 0 0 -1.7425367252e-10 0 0 -1.7425367252e-10 
0 0 -1.7425367252e-10 0 0 -1.7425367252e-10 0 0 -1.7425367252e-10 
0 0 -1.7425367252e-10 0 0 -1.7425367252e-10 0 0 -1.7425367252e-10 
0 0 -1.7425367252e-10 0 0 -1.7425367252e-10 0 0 -1.7425367252e-10 
0 0 -1.7425367252e-10 0 0 -1.7425367252e-10 0 0 -1.7425367252e-10 
0 0 -1.7425367252e-10 0 0 -1.7425367252e-10 0 0 -1.7425367252e-10 
0 0 -1.7425367252e-10 0 0 -1.7425367252e-10 0 0 -1.7425367252e-10 
0 0 -1.7425367252e-10 0 0 -1.7425367252e-10 0 0 -1.7425367252e-10 
0 0 -1.7425367252e-10 0 0 -8.9019973083e-09 0 0 -1.7425367252e-10 
0 0 -1.7425367252e-10 0 0 -1.7425367252e-10 0 0 -1.7425367252e-10 
0 0 -1.7425367252e-10 0 0 -1.7425367252e-10 0 0 -1.7425367252e-10 
0 0 -1.7425367252e-10 0 0 -1.7425367252e-10 0 0 -1.7425367252e-10 
0 0 -1.7425367252e-10 0 0 -1.7425367252e-10 0 0 -1.7425367252e-10 
0 0 -1.7425367252e-10 0 0 -1.7425367252e-10 0 0 -1.7425367252e-10 
0 0 -1.7425367252e-10 0 0 -1.7425367252e-10 0 0 -1.7425367252e-10 
0 0 -1.7425367252e-10 0 0 -1.7425367252e-10 0 0 -1.7425367252e-10 
0 0 -1.7425367252e-10 0 0 -1.7425367252e-10 0 0 -1.7425367252e-10 
0 0 -1.7425367252e-10 0 0 -1.7425367252e-10 0 0 -1.7425367252e-10 
0 0 -1.7425367252e-10 0 0 -8.9019973083e-09 0 0 -1.7425367252e-10 
0 0 -1.7425367252e-10 0 0 -1.7425367252e-10 0 0 -8.9019973083e-09 
0 0 -1.7425367252e-10 0 0 -1.7425367252e-10 0 0 -1.7425367252e-10 
0 0 -1.7425367252e-10 0 0 -1.7425367252e-10 0 0 -1.7425367252e-10 
0 0 -1.7425367252e-10 0 0 -1.7425367252e-10 0 0 -1.7425367252e-10 
0 0 -1.7425367252e-10 0 0 -1.7425367252e-10 0 0 -1.7425367252e-10 
0 0 -1.7425367252e-10 0 0 -1.7425367252e-10 0 0 -1.7425367252e-10 
0 0 -1.7425367252e-10 0 0 -1.7425367252e-10 0 0 -1.7425367252e-10 
0 0 -8.9019973083e-09 0 0 -1.7425367252e-10 0 0 -1.7425367252e-10 
0 0 -1.7425367252e-10 0 0 -1.7425367252e-10 0 0 -1.7425367252e-10 
0 0 -1.7425367252e-10 0 0 -1.7425367252e-10 0 0 -1.7425367252e-10 
0 0 -1.7425367252e-10 0 0 -1.7425367252e-10 0 0 -1.7425367252e-10 
0 0 -1.7425367252e-10 0 0 -1.7425367252e-10 0 0 -1.7425367252e-10 
0 0 -1.7425367252e-10 0 0 -1.7425367252e-10 0 0 -1.7425367252e-10 
0 0 -1.7425367252e-10 0 0 -1.7425367252e-10 0 0 -1.7425367252e-10 
0 0 -1.7425367252e-10 0 0 -1.7425367252e-10 0 0 -1.7425367252e-10 
0 0 -1.7425367252e-10 0 0 -1.7425367252e-10 0 0 -1.7425367252e-10 
0 0 -1.7425367252e-10 0 0 -1.7425367252e-10 0 0 -1.7425367252e-10 
0 0 -1.7425367252e-10 0 0 -1.7425367252e-10 0 0 -1.7425367252e-10 
0 0 -1.7425367252e-10 0 0 -1.7425367252e-10 0 0 -1.7425367252e-10 
0 0 -1.7425367252e-10 0 0 -1.7425367252e-10 0 0 -1.7425367252e-10 
0 0 -1.7425367252e-10 0 0 -1.7425367252e-10 0 0 -1.7425367252e-10 
0 0 -1.7425367252e-10 0 0 -1.7425367252e-10 0 0 -1.7425367252e-10 
0 0 -1.7425367252e-10 0 0 -1.7425367252e-10 0 0 -1.7425367252e-10 
0 0 -1.7425367252e-10 0 0 -1.7425367252e-10 0 0 -1.7425367252e-10 
0 0 -1.7425367252e-10 0 0 -1.7425367252e-10 0 0 -1.7425367252e-10 
0 0 -1.7425367252e-10 0 0 -1.7425367252e-10 0 0 -1.7425367252e-10 
0 0 -1.7425367252e-10 0 0 -1.7425367252e-10 0 0 -1.7425367252e-10 
0 0 -1.7425367252e-10 0 0 -1.7425367252e-10 0 0 -1.7425367252e-10 
0 0 -1.7425367252e-10 0 0 -1.7425367252e-10 0 0 -1.7425367252e-10 
0 0 -1.7425367252e-10 0 0 -1.7425367252e-10 0 0 -1.7425367252e-10 
0 0 -1.7425367252e-10 0 0 -1.7425367252e-10 0 0 -1.7425367252e-10 
0 0 -1.7425367252e-10 0 0 -8.9019973083e-09 0 0 -1.7425367252e-10 
0 0 -1.7425367252e-10 0 0 -1.7425367252e-10 0 0 -8.9019973083e-09 
0 0 -1.7425367252e-10 0 0 -1.7425367252e-10 0 0 -1.7425367252e-10 
0 0 -1.7425367252e-10 0 0 -1.7425367252e-10 0 0 -1.7425367252e-10 
0 0 -8.9019973083e-09 0 0 -1.7425367252e-10 0 0 -8.9019973083e-09 
0 0 -8.9019973083e-09 0 0 -6.8918688838e-08 0 0 -5.3297119368e-07 

radius 1 648 double
2e-05 2e-05 2e-05 2e-05 2e-05 2e-05 2e-05 2e-05 2e-05 
2e-05 2e-05 2e-05 2e-05 2e-05 2e-05 2e-05 2e-05 2e-05 
2e-05 2e-05 2e-05 2e-05 2e-05 2e-05 2e-05 2e-05 2e-05 
2e-05 2e-05 2e-05 2e-05 2e-05 2e-05 2e-05 7.5e-05 2e-05 
2e-05 2e-05 2e-05 2e-05 2e-05 2e-05 2e-05 2e-05 2e-05 
2e-05 2e-05 2e-05 2e-05 2e-05 2e-05 2e-05 2e-05 2e-05 
2e-05 2e-05 2e-05 2e-05 2e-05 2e-05 2e-05 2e-05 2e-05 
2e-05 2e-05 2e-05 2e-05 2e-05 2e-05 2e-05 2e-05 2e-05 
2e-05 2e-05 2e-05 2e-05 2e-05 2e-05 2e-05 2e-05 2e-05 
2e-05 2e-05 2e-05 2e-05 2e-05 2e-05 2e-05 2e-05 2e-05 
2e-05 2e-05 2e-05 2e-05 2e-05 2e-05 2e-05 2e-05 2e-05 
2e-05 2e-05 2e-05 2e-05 2e-05 2e-05 2e-05 2e-05 2e-05 
2e-05 2e-05 2e-05 2e-05 2e-05 2e-05 2e-05 2e-05 2e-05 
2e-05 2e-05 2e-05 2e-05 2e-05 2e-05 2e-05 2e-05 2e-05 
2e-05 2e-05 2e-05 2e-05 2e-05 2e-05 2e-05 2e-05 2e-05 
2e-05 2e-05 2e-05 2e-05 2e-05 2e-05 2e-05 2e-05 2e-05 
2e-05 2e-05 2e-05 2e-05 2e-05 2e-05 2e-05 2e-05 2e-05 
2e-05 2e-05 2e-05 2e-05 2e-05 2e-05 2e-05 2e-05 2e-05 
2e-05 2e-05 2e-05 2e-05 2e-05 2e-05 2e-05 2e-05 2e-05 
2e-05 2e-05 2e-05 2e-05 2e-05 2e-05 2e-05 2e-05 2e-05 
2e-05 2e-05 2e-05 2e-05 2e-05 2e-05 2e-05 2e-05 2e-05 
2e-05 2e-05 2e-05 2e-05 2e-05 2e-05 7.5e-05 2e-05 2e-05 
2e-05 2e-05 2e-05 2e-05 2e-05 2e-05 2e-05 2e-05 2e-05 
2e-05 2e-05 2e-05 2e-05 2e-05 2e-05 2e-05 2e-05 2e-05 
2e-05 2e-05 2e-05 2e-05 2e-05 2e-05 2e-05 2e-05 2e-05 
2e-05 2e-05 2e-05 2e-05 2e-05 2e-05 2e-05 2e-05 2e-05 
2e-05 2e-05 2e-05 2e-05 2e-05 2e-05 2e-05 2e-05 2e-05 
2e-05 2e-05 2e-05 2e-05 2e-05 2e-05 2e-05 2e-05 2e-05 
2e-05 2e-05 2e-05 2e-05 2e-05 2e-05 2e-05 2e-05 2e-05 
2e-05 2e-05 2e-05 2e-05 2e-05 2e-05 2e-05 2e-05 2e-05 
2e-05 2e-05 2e-05 2e-05 2e-05 2e-05 2e-05 7.5e-05 2e-05 
2e-05 2e-05 2e-05 2e-05 2e-05 2e-05 2e-05 2e-05 2e-05 
2e-05 2e-05 2e-05 2e-05 7.5e-05 2e-05 2e-05 2e-05 2e-05 
2e-05 2e-05 2e-05 2e-05 2e-05 2e-05 2e-05 2e-05 2e-05 
2e-05 2e-05 2e-05 2e-05 2e-05 2e-05 2e-05 2e-05 2e-05 
2e-05 2e-05 2e-05 2e-05 2e-05 2e-05 2e-05 2e-05 2e-05 
2e-05 2e-05 2e-05 2e-05 2e-05 2e-05 2e-05 2e-05 2e-05 
2e-05 2e-05 2e-05 2e-05 2e-05 2e-05 2e-05 2e-05 2e-05 
2e-05 2e-05 2e-05 2e-05 2e-05 2e-05 2e-05 2e-05 2e-05 
2e-05 2e-05 2e-05 2e-05 2e-05 2e-05 2e-05 2e-05 2e-05 
2e-05 7.5e-05 2e-05 2e-05 2e-05 2e-05 2e-05 2e-05 2e-05 
2e-05 2e-05 2e-05 2e-05 2e-05 2e-05 2e-05 2e-05 2e-05 
2e-05 2e-05 2e-05 2e-05 2e-05 2e-05 2e-05 2e-05 2e-05 
2e-05 2e-05 2e-05 2e-05 2e-05 2e-05 2e-05 2e-05 2e-05 
2e-05 7.5e-05 2e-05 2e-05 2e-05 2e-05 2e-05 2e-05 2e-05 
2e-05 2e-05 2e-05 2e-05 2e-05 2e-05 2e-05 2e-05 2e-05 
2e-05 2e-05 2e-05 2e-05 2e-05 2e-05 2e-05 2e-05 2e-05 
2e-05 2e-05 2e-05 2e-05 2e-05 2e-05 2e-05 2e-05 2e-05 
2e-05 2e-05 2e-05 2e-05 2e-05 2e-05 2e-05 2e-05 2e-05 
7.5e-05 2e-05 2e-05 2e-05 2e-05 2e-05 2e-05 2e-05 2e-05 
2e-05 2e-05 2e-05 2e-05 2e-05 2e-05 2e-05 2e-05 2e-05 
2e-05 2e-05 2e-05 2e-05 2e-05 2e-05 2e-05 2e-05 2e-05 
2e-05 2e-05 2e-05 2e-05 2e-05 2e-05 2e-05 2e-05 2e-05 
2e-05 2e-05 7.5e-05 2e-05 2e-05 2e-05 2e-05 2e-05 2e-05 
2e-05 2e-05 2e-05 2e-05 2e-05 2e-05 2e-05 2e-05 2e-05 
2e-05 2e-05 2e-05 2e-05 2e-05 2e-05 2e-05 2e-05 2e-05 
2e-05 7.5e-05 2e-05 2e-05 2e-05 2e-05 2e-05 2e-05 2e-05 
2e-05 2e-05 2e-05 2e-05 2e-05 2e-05 2e-05 2e-05 2e-05 
2e-05 2e-05 2e-05 2e-05 2e-05 2e-05 2e-05 2e-05 2e-05 
2e-05 2e-05 2e-05 2e-05 7.5e-05 2e-05 2e-05 2e-05 7.5e-05 
2e-05 2e-05 2e-05 2e-05 2e-05 2e-05 2e-05 2e-05 2e-05 
2e-05 2e-05 2e-05 2e-05 2e-05 2e-05 2e-05 2e-05 2e-05 
7.5e-05 2e-05 2e-05 2e-05 2e-05 2e-05 2e-05 2e-05 2e-05 
2e-05 2e-05 2e-05 2e-05 2e-05 2e-05 2e-05 2e-05 2e-05 
2e-05 2e-05 2e-05 2e-05 2e-05 2e-05 2e-05 2e-05 2e-05 
2e-05 2e-05 2e-05 2e-05 2e-05 2e-05 2e-05 2e-05 2e-05 
2e-05 2e-05 2e-05 2e-05 2e-05 2e-05 2e-05 2e-05 2e-05 
2e-05 2e-05 2e-05 2e-05 2e-05 2e-05 2e-05 2e-05 2e-05 
2e-05 2e-05 2e-05 2e-05 2e-05 2e-05 2e-05 2e-05 2e-05 
2e-05 2e-05 2e-05 2e-05 2e-05 2e-05 2e-05 2e-05 2e-05 
2e-05 7.5e-05 2e-05 2e-05 2e-05 7.5e-05 2e-05 2e-05 2e-05 
2e-05 2e-05 2e-05 7.5e-05 2e-05 7.5e-05 7.5e-05 0.00015 0.0003 

omega 3 648 double
0 0 0 0 0 0 0 0 0 
0 0 0 0 0 0 0 0 0 
0 0 0 0 0 0 0 0 0 
0 0 0 0 0 0 0 0 0 
0 0 0 0 0 0 0 0 0 
0 0 0 0 0 0 0 0 0 
0 0 0 0 0 0 0 0 0 
0 0 0 0 0 0 0 0 0 
0 0 0 0 0 0 0 0 0 
0 0 0 0 0 0 0 0 0 
0 0 0 0 0 0 0 0 0 
0 0 0 0 0 0 0 0 0 
0 0 0 0 0 0 0 0 0 
0 0 0 0 0 0 0 0 0 
0 0 0 0 0 0 0 0 0 
0 0 0 0 0 0 0 0 0 
0 0 0 0 0 0 0 0 0 
0 0 0 0 0 0 0 0 0 
0 0 0 0 0 0 0 0 0 
0 0 0 0 0 0 0 0 0 
0 0 0 0 0 0 0 0 0 
0 0 0 0 0 0 0 0 0 
0 0 0 0 0 0 0 0 0 
0 0 0 0 0 0 0 0 0 
0 0 0 0 0 0 0 0 0 
0 0 0 0 0 0 0 0 0 
0 0 0 0 0 0 0 0 0 
0 0 0 0 0 0 0 0 0 
0 0 0 0 0 0 0 0 0 
0 0 0 0 0 0 0 0 0 
0 0 0 0 0 0 0 0 0 
0 0 0 0 0 0 0 0 0 
0 0 0 0 0 0 0 0 0 
0 0 0 0 0 0 0 0 0 
0 0 0 0 0 0 0 0 0 
0 0 0 0 0 0 0 0 0 
0 0 0 0 0 0 0 0 0 
0 0 0 0 0 0 0 0 0 
0 0 0 0 0 0 0 0 0 
0 0 0 0 0 0 0 0 0 
0 0 0 0 0 0 0 0 0 
0 0 0 0 0 0 0 0 0 
0 0 0 0 0 0 0 0 0 
0 0 0 0 0 0 0 0 0 
0 0 0 0 0 0 0 0 0 
0 0 0 0 0 0 0 0 0 
0 0 0 0 0 0 0 0 0 
0 0 0 0 0 0 0 0 0 
0 0 0 0 0 0 0 0 0 
0 0 0 0 0 0 0 0 0 
0 0 0 0 0 0 0 0 0 
0 0 0 0 0 0 0 0 0 
0 0 0 0 0 0 0 0 0 
0 0 0 0 0 0 0 0 0 
0 0 0 0 0 0 0 0 0 
0 0 0 0 0 0 0 0 0 
0 0 0 0 0 0 0 0 0 
0 0 0 0 0 0 0 0 0 
0 0 0 0 0 0 0 0 0 
0 0 0 0 0 0 0 0 0 
0 0 0 0 0 0 0 0 0 
0 0 0 0 0 0 0 0 0 
0 0 0 0 0 0 0 0 0 
0 0 0 0 0 0 0 0 0 
0 0 0 0 0 0 0 0 0 
0 0 0 0 0 0 0 0 0 
0 0 0 0 0 0 0 0 0 
0 0 0 0 0 0 0 0 0 
0 0 0 0 0 0 0 0 0 
0 0 0 0 0 0 0 0 0 
0 0 0 0 0 0 0 0 0 
0 0 0 0 0 0 0 0 0 
0 0 0 0 0 0 0 0 0 
0 0 0 0 0 0 0 0 0 
0 0 0 0 0 0 0 0 0 
0 0 0 0 0 0 0 0 0 
0 0 0 0 0 0 0 0 0 
0 0 0 0 0 0 0 0 0 
0 0 0 0 0 0 0 0 0 
0 0 0 0 0 0 0 0 0 
0 0 0 0 0 0 0 0 0 
0 0 0 0 0 0 0 0 0 
0 0 0 0 0 0 0 0 0 
0 0 0 0 0 0 0 0 0 
0 0 0 0 0 0 0 0 0 
0 0 0 0 0 0 0 0 0 
0 0 0 0 0 0 0 0 0 
0 0 0 0 0 0 0 0 0 
0 0 0 0 0 0 0 0 0 
0 0 0 0 0 0 0 0 0 
0 0 0 0 0 0 0 0 0 
0 0 0 0 0 0 0 0 0 
0 0 0 0 0 0 0 0 0 
0 0 0 0 0 0 0 0 0 
0 0 0 0 0 0 0 0 0 
0 0 0 0 0 0 0 0 0 
0 0 0 0 0 0 0 0 0 
0 0 0 0 0 0 0 0 0 
0 0 0 0 0 0 0 0 0 
0 0 0 0 0 0 0 0 0 
0 0 0 0 0 0 0 0 0 
0 0 0 0 0 0 0 0 0 
0 0 0 0 0 0 0 0 0 
0 0 0 0 0 0 0 0 0 
0 0 0 0 0 0 0 0 0 
0 0 0 0 0 0 0 0 0 
0 0 0 0 0 0 0 0 0 
0 0 0 0 0 0 0 0 0 
0 0 0 0 0 0 0 0 0 
0 0 0 0 0 0 0 0 0 
0 0 0 0 0 0 0 0 0 
0 0 0 0 0 0 0 0 0 
0 0 0 0 0 0 0 0 0 
0 0 0 0 0 0 0 0 0 
0 0 0 0 0 0 0 0 0 
0 0 0 0 0 0 0 0 0 
0 0 0 0 0 0 0 0 0 
0 0 0 0 0 0 0 0 0 
0 0 0 0 0 0 0 0 0 
0 0 0 0 0 0 0 0 0 
0 0 0 0 0 0 0 0 0 
0 0 0 0 0 0 0 0 0 
0 0 0 0 0 0 0 0 0 
0 0 0 0 0 0 0 0 0 
0 0 0 0 0 0 0 0 0 
0 0 0 0 0 0 0 0 0 
0 0 0 0 0 0 0 0 0 
0 0 0 0 0 0 0 0 0 
0 0 0 0 0 0 0 0 0 
0 0 0 0 0 0 0 0 0 
0 0 0 0 0 0 0 0 0 
0 0 0 0 0 0 0 0 0 
0 0 0 0 0 0 0 0 0 
0 0 0 0 0 0 0 0 0 
0 0 0 0 0 0 0 0 0 
0 0 0 0 0 0 0 0 0 
0 0 0 0 0 0 0 0 0 
0 0 0 0 0 0 0 0 0 
0 0 0 0 0 0 0 0 0 
0 0 0 0 0 0 0 0 0 
0 0 0 0 0 0 0 0 0 
0 0 0 0 0 0 0 0 0 
0 0 0 0 0 0 0 0 0 
0 0 0 0 0 0 0 0 0 
0 0 0 0 0 0 0 0 0 
0 0 0 0 0 0 0 0 0 
0 0 0 0 0 0 0 0 0 
0 0 0 0 0 0 0 0 0 
0 0 0 0 0 0 0 0 0 
0 0 0 0 0 0 0 0 0 
0 0 0 0 0 0 0 0 0 
0 0 0 0 0 0 0 0 0 
0 0 0 0 0 0 0 0 0 
0 0 0 0 0 0 0 0 0 
0 0 0 0 0 0 0 0 0 
0 0 0 0 0 0 0 0 0 
0 0 0 0 0 0 0 0 0 
0 0 0 0 0 0 0 0 0 
0 0 0 0 0 0 0 0 0 
0 0 0 0 0 0 0 0 0 
0 0 0 0 0 0 0 0 0 
0 0 0 0 0 0 0 0 0 
0 0 0 0 0 0 0 0 0 
0 0 0 0 0 0 0 0 0 
0 0 0 0 0 0 0 0 0 
0 0 0 0 0 0 0 0 0 
0 0 0 0 0 0 0 0 0 
0 0 0 0 0 0 0 0 0 
0 0 0 0 0 0 0 0 0 
0 0 0 0 0 0 0 0 0 
0 0 0 0 0 0 0 0 0 
0 0 0 0 0 0 0 0 0 
0 0 0 0 0 0 0 0 0 
0 0 0 0 0 0 0 0 0 
0 0 0 0 0 0 0 0 0 
0 0 0 0 0 0 0 0 0 
0 0 0 0 0 0 0 0 0 
0 0 0 0 0 0 0 0 0 
0 0 0 0 0 0 0 0 0 
0 0 0 0 0 0 0 0 0 
0 0 0 0 0 0 0 0 0 
0 0 0 0 0 0 0 0 0 
0 0 0 0 0 0 0 0 0 
0 0 0 0 0 0 0 0 0 
0 0 0 0 0 0 0 0 0 
0 0 0 0 0 0 0 0 0 
0 0 0 0 0 0 0 0 0 
0 0 0 0 0 0 0 0 0 
0 0 0 0 0 0 0 0 0 
0 0 0 0 0 0 0 0 0 
0 0 0 0 0 0 0 0 0 
0 0 0 0 0 0 0 0 0 
0 0 0 0 0 0 0 0 0 
0 0 0 0 0 0 0 0 0 
0 0 0 0 0 0 0 0 0 
0 0 0 0 0 0 0 0 0 
0 0 0 0 0 0 0 0 0 
0 0 0 0 0 0 0 0 0 
0 0 0 0 0 0 0 0 0 
0 0 0 0 0 0 0 0 0 
0 0 0 0 0 0 0 0 0 
0 0 0 0 0 0 0 0 0 
0 0 0 0 0 0 0 0 0 
0 0 0 0 0 0 0 0 0 
0 0 0 0 0 0 0 0 0 
0 0 0 0 0 0 0 0 0 
0 0 0 0 0 0 0 0 0 
0 0 0 0 0 0 0 0 0 
0 0 0 0 0 0 0 0 0 
0 0 0 0 0 0 0 0 0 
0 0 0 0 0 0 0 0 0 
0 0 0 0 0 0 0 0 0 
0 0 0 0 0 0 0 0 0 
0 0 0 0 0 0 0 0 0 
0 0 0 0 0 0 0 0 0 
0 0 0 0 0 0 0 0 0 

fx_mag_viz 1 648 double
0 0 0 0 0 0 0 0 0 
0 0 0 0 0 0 0 0 0 
0 0 0 0 0 0 0 0 0 
0 0 0 0 0 0 0 0 0 
0 0 0 0 0 0 0 0 0 
0 0 0 0 0 0 0 0 0 
0 0 0 0 0 0 0 0 0 
0 0 0 0 0 0 0 0 0 
0 0 0 0 0 0 0 0 0 
0 0 0 0 0 0 0 0 0 
0 0 0 0 0 0 0 0 0 
0 0 0 0 0 0 0 0 0 
0 0 0 0 0 0 0 0 0 
0 0 0 0 0 0 0 0 0 
0 0 0 0 0 0 0 0 0 
0 0 0 0 0 0 0 0 0 
0 0 0 0 0 0 0 0 0 
0 0 0 0 0 0 0 0 0 
0 0 0 0 0 0 0 0 0 
0 0 0 0 0 0 0 0 0 
0 0 0 0 0 0 0 0 0 
0 0 0 0 0 0 0 0 0 
0 0 0 0 0 0 0 0 0 
0 0 0 0 0 0 0 0 0 
0 0 0 0 0 0 0 0 0 
0 0 0 0 0 0 0 0 0 
0 0 0 0 0 0 0 0 0 
0 0 0 0 0 0 0 0 0 
0 0 0 0 0 0 0 0 0 
0 0 0 0 0 0 0 0 0 
0 0 0 0 0 0 0 0 0 
0 0 0 0 0 0 0 0 0 
0 0 0 0 0 0 0 0 0 
0 0 0 0 0 0 0 0 0 
0 0 0 0 0 0 0 0 0 
0 0 0 0 0 0 0 0 0 
0 0 0 0 0 0 0 0 0 
0 0 0 0 0 0 0 0 0 
0 0 0 0 0 0 0 0 0 
0 0 0 0 0 0 0 0 0 
0 0 0 0 0 0 0 0 0 
0 0 0 0 0 0 0 0 0 
0 0 0 0 0 0 0 0 0 
0 0 0 0 0 0 0 0 0 
0 0 0 0 0 0 0 0 0 
0 0 0 0 0 0 0 0 0 
0 0 0 0 0 0 0 0 0 
0 0 0 0 0 0 0 0 0 
0 0 0 0 0 0 0 0 0 
0 0 0 0 0 0 0 0 0 
0 0 0 0 0 0 0 0 0 
0 0 0 0 0 0 0 0 0 
0 0 0 0 0 0 0 0 0 
0 0 0 0 0 0 0 0 0 
0 0 0 0 0 0 0 0 0 
0 0 0 0 0 0 0 0 0 
0 0 0 0 0 0 0 0 0 
0 0 0 0 0 0 0 0 0 
0 0 0 0 0 0 0 0 0 
0 0 0 0 0 0 0 0 0 
0 0 0 0 0 0 0 0 0 
0 0 0 0 0 0 0 0 0 
0 0 0 0 0 0 0 0 0 
0 0 0 0 0 0 0 0 0 
0 0 0 0 0 0 0 0 0 
0 0 0 0 0 0 0 0 0 
0 0 0 0 0 0 0 0 0 
0 0 0 0 0 0 0 0 0 
0 0 0 0 0 0 0 0 0 
0 0 0 0 0 0 0 0 0 
0 0 0 0 0 0 0 0 0 
0 0 0 0 0 0 0 0 0 

fy_mag_viz 1 648 double
0 0 0 0 0 0 0 0 0 
0 0 0 0 0 0 0 0 0 
0 0 0 0 0 0 0 0 0 
0 0 0 0 0 0 0 0 0 
0 0 0 0 0 0 0 0 0 
0 0 0 0 0 0 0 0 0 
0 0 0 0 0 0 0 0 0 
0 0 0 0 0 0 0 0 0 
0 0 0 0 0 0 0 0 0 
0 0 0 0 0 0 0 0 0 
0 0 0 0 0 0 0 0 0 
0 0 0 0 0 0 0 0 0 
0 0 0 0 0 0 0 0 0 
0 0 0 0 0 0 0 0 0 
0 0 0 0 0 0 0 0 0 
0 0 0 0 0 0 0 0 0 
0 0 0 0 0 0 0 0 0 
0 0 0 0 0 0 0 0 0 
0 0 0 0 0 0 0 0 0 
0 0 0 0 0 0 0 0 0 
0 0 0 0 0 0 0 0 0 
0 0 0 0 0 0 0 0 0 
0 0 0 0 0 0 0 0 0 
0 0 0 0 0 0 0 0 0 
0 0 0 0 0 0 0 0 0 
0 0 0 0 0 0 0 0 0 
0 0 0 0 0 0 0 0 0 
0 0 0 0 0 0 0 0 0 
0 0 0 0 0 0 0 0 0 
0 0 0 0 0 0 0 0 0 
0 0 0 0 0 0 0 0 0 
0 0 0 0 0 0 0 0 0 
0 0 0 0 0 0 0 0 0 
0 0 0 0 0 0 0 0 0 
0 0 0 0 0 0 0 0 0 
0 0 0 0 0 0 0 0 0 
0 0 0 0 0 0 0 0 0 
0 0 0 0 0 0 0 0 0 
0 0 0 0 0 0 0 0 0 
0 0 0 0 0 0 0 0 0 
0 0 0 0 0 0 0 0 0 
0 0 0 0 0 0 0 0 0 
0 0 0 0 0 0 0 0 0 
0 0 0 0 0 0 0 0 0 
0 0 0 0 0 0 0 0 0 
0 0 0 0 0 0 0 0 0 
0 0 0 0 0 0 0 0 0 
0 0 0 0 0 0 0 0 0 
0 0 0 0 0 0 0 0 0 
0 0 0 0 0 0 0 0 0 
0 0 0 0 0 0 0 0 0 
0 0 0 0 0 0 0 0 0 
0 0 0 0 0 0 0 0 0 
0 0 0 0 0 0 0 0 0 
0 0 0 0 0 0 0 0 0 
0 0 0 0 0 0 0 0 0 
0 0 0 0 0 0 0 0 0 
0 0 0 0 0 0 0 0 0 
0 0 0 0 0 0 0 0 0 
0 0 0 0 0 0 0 0 0 
0 0 0 0 0 0 0 0 0 
0 0 0 0 0 0 0 0 0 
0 0 0 0 0 0 0 0 0 
0 0 0 0 0 0 0 0 0 
0 0 0 0 0 0 0 0 0 
0 0 0 0 0 0 0 0 0 
0 0 0 0 0 0 0 0 0 
0 0 0 0 0 0 0 0 0 
0 0 0 0 0 0 0 0 0 
0 0 0 0 0 0 0 0 0 
0 0 0 0 0 0 0 0 0 
0 0 0 0 0 0 0 0 0 

fz_mag_viz 1 648 double
0 0 0 0 0 0 0 0 0 
0 0 0 0 0 0 0 0 0 
0 0 0 0 0 0 0 0 0 
0 0 0 0 0 0 0 0 0 
0 0 0 0 0 0 0 0 0 
0 0 0 0 0 0 0 0 0 
0 0 0 0 0 0 0 0 0 
0 0 0 0 0 0 0 0 0 
0 0 0 0 0 0 0 0 0 
0 0 0 0 0 0 0 0 0 
0 0 0 0 0 0 0 0 0 
0 0 0 0 0 0 0 0 0 
0 0 0 0 0 0 0 0 0 
0 0 0 0 0 0 0 0 0 
0 0 0 0 0 0 0 0 0 
0 0 0 0 0 0 0 0 0 
0 0 0 0 0 0 0 0 0 
0 0 0 0 0 0 0 0 0 
0 0 0 0 0 0 0 0 0 
0 0 0 0 0 0 0 0 0 
0 0 0 0 0 0 0 0 0 
0 0 0 0 0 0 0 0 0 
0 0 0 0 0 0 0 0 0 
0 0 0 0 0 0 0 0 0 
0 0 0 0 0 0 0 0 0 
0 0 0 0 0 0 0 0 0 
0 0 0 0 0 0 0 0 0 
0 0 0 0 0 0 0 0 0 
0 0 0 0 0 0 0 0 0 
0 0 0 0 0 0 0 0 0 
0 0 0 0 0 0 0 0 0 
0 0 0 0 0 0 0 0 0 
0 0 0 0 0 0 0 0 0 
0 0 0 0 0 0 0 0 0 
0 0 0 0 0 0 0 0 0 
0 0 0 0 0 0 0 0 0 
0 0 0 0 0 0 0 0 0 
0 0 0 0 0 0 0 0 0 
0 0 0 0 0 0 0 0 0 
0 0 0 0 0 0 0 0 0 
0 0 0 0 0 0 0 0 0 
0 0 0 0 0 0 0 0 0 
0 0 0 0 0 0 0 0 0 
0 0 0 0 0 0 0 0 0 
0 0 0 0 0 0 0 0 0 
0 0 0 0 0 0 0 0 0 
0 0 0 0 0 0 0 0 0 
0 0 0 0 0 0 0 0 0 
0 0 0 0 0 0 0 0 0 
0 0 0 0 0 0 0 0 0 
0 0 0 0 0 0 0 0 0 
0 0 0 0 0 0 0 0 0 
0 0 0 0 0 0 0 0 0 
0 0 0 0 0 0 0 0 0 
0 0 0 0 0 0 0 0 0 
0 0 0 0 0 0 0 0 0 
0 0 0 0 0 0 0 0 0 
0 0 0 0 0 0 0 0 0 
0 0 0 0 0 0 0 0 0 
0 0 0 0 0 0 0 0 0 
0 0 0 0 0 0 0 0 0 
0 0 0 0 0 0 0 0 0 
0 0 0 0 0 0 0 0 0 
0 0 0 0 0 0 0 0 0 
0 0 0 0 0 0 0 0 0 
0 0 0 0 0 0 0 0 0 
0 0 0 0 0 0 0 0 0 
0 0 0 0 0 0 0 0 0 
0 0 0 0 0 0 0 0 0 
0 0 0 0 0 0 0 0 0 
0 0 0 0 0 0 0 0 0 
0 0 0 0 0 0 0 0 0 

B_magnitude 1 648 double
0 0 0 0 0 0 0 0 0 
0 0 0 0 0 0 0 0 0 
0 0 0 0 0 0 0 0 0 
0 0 0 0 0 0 0 0 0 
0 0 0 0 0 0 0 0 0 
0 0 0 0 0 0 0 0 0 
0 0 0 0 0 0 0 0 0 
0 0 0 0 0 0 0 0 0 
0 0 0 0 0 0 0 0 0 
0 0 0 0 0 0 0 0 0 
0 0 0 0 0 0 0 0 0 
0 0 0 0 0 0 0 0 0 
0 0 0 0 0 0 0 0 0 
0 0 0 0 0 0 0 0 0 
0 0 0 0 0 0 0 0 0 
0 0 0 0 0 0 0 0 0 
0 0 0 0 0 0 0 0 0 
0 0 0 0 0 0 0 0 0 
0 0 0 0 0 0 0 0 0 
0 0 0 0 0 0 0 0 0 
0 0 0 0 0 0 0 0 0 
0 0 0 0 0 0 0 0 0 
0 0 0 0 0 0 0 0 0 
0 0 0 0 0 0 0 0 0 
0 0 0 0 0 0 0 0 0 
0 0 0 0 0 0 0 0 0 
0 0 0 0 0 0 0 0 0 
0 0 0 0 0 0 0 0 0 
0 0 0 0 0 0 0 0 0 
0 0 0 0 0 0 0 0 0 
0 0 0 0 0 0 0 0 0 
0 0 0 0 0 0 0 0 0 
0 0 0 0 0 0 0 0 0 
0 0 0 0 0 0 0 0 0 
0 0 0 0 0 0 0 0 0 
0 0 0 0 0 0 0 0 0 
0 0 0 0 0 0 0 0 0 
0 0 0 0 0 0 0 0 0 
0 0 0 0 0 0 0 0 0 
0 0 0 0 0 0 0 0 0 
0 0 0 0 0 0 0 0 0 
0 0 0 0 0 0 0 0 0 
0 0 0 0 0 0 0 0 0 
0 0 0 0 0 0 0 0 0 
0 0 0 0 0 0 0 0 0 
0 0 0 0 0 0 0 0 0 
0 0 0 0 0 0 0 0 0 
0 0 0 0 0 0 0 0 0 
0 0 0 0 0 0 0 0 0 
0 0 0 0 0 0 0 0 0 
0 0 0 0 0 0 0 0 0 
0 0 0 0 0 0 0 0 0 
0 0 0 0 0 0 0 0 0 
0 0 0 0 0 0 0 0 0 
0 0 0 0 0 0 0 0 0 
0 0 0 0 0 0 0 0 0 
0 0 0 0 0 0 0 0 0 
0 0 0 0 0 0 0 0 0 
0 0 0 0 0 0 0 0 0 
0 0 0 0 0 0 0 0 0 
0 0 0 0 0 0 0 0 0 
0 0 0 0 0 0 0 0 0 
0 0 0 0 0 0 0 0 0 
0 0 0 0 0 0 0 0 0 
0 0 0 0 0 0 0 0 0 
0 0 0 0 0 0 0 0 0 
0 0 0 0 0 0 0 0 0 
0 0 0 0 0 0 0 0 0 
0 0 0 0 0 0 0 0 0 
0 0 0 0 0 0 0 0 0 
0 0 0 0 0 0 0 0 0 
0 0 0 0 0 0 0 0 0 

B_gradient_mag 1 648 double
0 0 0 0 0 0 0 0 0 
0 0 0 0 0 0 0 0 0 
0 0 0 0 0 0 0 0 0 
0 0 0 0 0 0 0 0 0 
0 0 0 0 0 0 0 0 0 
0 0 0 0 0 0 0 0 0 
0 0 0 0 0 0 0 0 0 
0 0 0 0 0 0 0 0 0 
0 0 0 0 0 0 0 0 0 
0 0 0 0 0 0 0 0 0 
0 0 0 0 0 0 0 0 0 
0 0 0 0 0 0 0 0 0 
0 0 0 0 0 0 0 0 0 
0 0 0 0 0 0 0 0 0 
0 0 0 0 0 0 0 0 0 
0 0 0 0 0 0 0 0 0 
0 0 0 0 0 0 0 0 0 
0 0 0 0 0 0 0 0 0 
0 0 0 0 0 0 0 0 0 
0 0 0 0 0 0 0 0 0 
0 0 0 0 0 0 0 0 0 
0 0 0 0 0 0 0 0 0 
0 0 0 0 0 0 0 0 0 
0 0 0 0 0 0 0 0 0 
0 0 0 0 0 0 0 0 0 
0 0 0 0 0 0 0 0 0 
0 0 0 0 0 0 0 0 0 
0 0 0 0 0 0 0 0 0 
0 0 0 0 0 0 0 0 0 
0 0 0 0 0 0 0 0 0 
0 0 0 0 0 0 0 0 0 
0 0 0 0 0 0 0 0 0 
0 0 0 0 0 0 0 0 0 
0 0 0 0 0 0 0 0 0 
0 0 0 0 0 0 0 0 0 
0 0 0 0 0 0 0 0 0 
0 0 0 0 0 0 0 0 0 
0 0 0 0 0 0 0 0 0 
0 0 0 0 0 0 0 0 0 
0 0 0 0 0 0 0 0 0 
0 0 0 0 0 0 0 0 0 
0 0 0 0 0 0 0 0 0 
0 0 0 0 0 0 0 0 0 
0 0 0 0 0 0 0 0 0 
0 0 0 0 0 0 0 0 0 
0 0 0 0 0 0 0 0 0 
0 0 0 0 0 0 0 0 0 
0 0 0 0 0 0 0 0 0 
0 0 0 0 0 0 0 0 0 
0 0 0 0 0 0 0 0 0 
0 0 0 0 0 0 0 0 0 
0 0 0 0 0 0 0 0 0 
0 0 0 0 0 0 0 0 0 
0 0 0 0 0 0 0 0 0 
0 0 0 0 0 0 0 0 0 
0 0 0 0 0 0 0 0 0 
0 0 0 0 0 0 0 0 0 
0 0 0 0 0 0 0 0 0 
0 0 0 0 0 0 0 0 0 
0 0 0 0 0 0 0 0 0 
0 0 0 0 0 0 0 0 0 
0 0 0 0 0 0 0 0 0 
0 0 0 0 0 0 0 0 0 
0 0 0 0 0 0 0 0 0 
0 0 0 0 0 0 0 0 0 
0 0 0 0 0 0 0 0 0 
0 0 0 0 0 0 0 0 0 
0 0 0 0 0 0 0 0 0 
0 0 0 0 0 0 0 0 0 
0 0 0 0 0 0 0 0 0 
0 0 0 0 0 0 0 0 0 
0 0 0 0 0 0 0 0 0 

