<?xml version="1.0"?>
<VTKFile type="UnstructuredGrid" version="0.1" byte_order="LittleEndian">
<UnstructuredGrid>
<Piece NumberOfPoints="200" NumberOfCells="200">
<Points>
<DataArray type="Float64" NumberOfComponents="3" format="ascii">
4.6707405709e-03 4.7848816030e-03 9.9000027403e-03
5.0594513305e-03 5.0551751629e-03 9.9000092596e-03
4.4019981287e-03 4.8745665699e-03 9.7540011629e-03
5.5581899360e-03 4.3247765861e-03 8.8197886944e-03
4.6094963327e-03 5.3874058649e-03 9.9000055343e-03
4.7587384470e-03 5.1701357588e-03 9.7309798002e-03
4.0830709040e-03 4.9108741805e-03 6.9658006541e-03
5.7432730682e-03 5.4061068222e-03 9.9000018090e-03
4.4279564172e-03 5.5461511947e-03 9.9000027403e-03
4.6114507131e-03 5.0285882317e-03 9.4084236771e-03
5.8232187293e-03 5.0688111223e-03 9.8459785804e-03
5.5451621301e-03 5.4330015555e-03 9.5171416178e-03
5.1275123842e-03 5.1666605286e-03 9.2801563442e-03
4.7272499651e-03 5.5692195892e-03 9.5242476091e-03
4.7626523301e-03 4.9273855984e-03 9.3253795058e-03
4.2495676316e-03 5.4557272233e-03 9.9000027403e-03
5.2309436724e-03 4.5797382481e-03 9.9000046030e-03
5.0875274464e-03 4.8463623971e-03 9.9000083283e-03
5.7213287801e-03 4.6635894105e-03 9.8873404786e-03
5.1793474704e-03 4.6721431427e-03 9.7303064540e-03
5.2731852047e-03 4.7773271799e-03 7.8065926209e-03
5.6988485157e-03 4.6773585491e-03 9.5989089459e-03
5.6938314810e-03 5.2123190835e-03 9.9000046030e-03
2.8893681243e-02 -5.6902233511e-02 4.5307371765e-03
6.8045747466e-03 1.3494602172e-04 8.6646210402e-03
4.8425053246e-03 4.5334552415e-03 9.9000064656e-03
4.5136362314e-03 4.9534202553e-03 9.9000101909e-03
5.2716881037e-03 4.7218487598e-03 9.5600001514e-03
5.3015416488e-03 5.1643378101e-03 9.9000073969e-03
4.9201440997e-03 5.8388705365e-03 9.9000018090e-03
5.3090574220e-03 5.2917129360e-03 9.7284987569e-03
5.4242652841e-03 5.1345168613e-03 9.3349888921e-03
5.0082416274e-03 5.2485037595e-03 9.9000073969e-03
4.4150855392e-03 5.3404672071e-03 9.9000018090e-03
5.1982332952e-03 5.9259342961e-03 9.9000027403e-03
4.4726226479e-03 4.7575463541e-03 9.9000046030e-03
5.0496975891e-03 5.9127216227e-03 9.7667314112e-03
4.9372217618e-03 5.6396038271e-03 9.9000046030e-03
5.0594322383e-03 4.6933563426e-03 9.5716584474e-03
5.2908570506e-03 5.4790801369e-03 9.8109841347e-03
5.5004688911e-03 5.1655676216e-03 9.8793962970e-03
4.7949813306e-03 5.3125089034e-03 9.9000036716e-03
4.5649763197e-03 5.0743105821e-03 9.7491815686e-03
4.6867593192e-03 4.4449320994e-03 9.8110958934e-03
4.2836191133e-03 5.3491326980e-03 9.7342412919e-03
5.4263514467e-03 5.6341877207e-03 9.7598489374e-03
5.0853211433e-03 5.4133385420e-03 9.7513636574e-03
7.0641189814e-03 7.6050716452e-03 5.5039981380e-03
4.9054576084e-03 5.3276396357e-03 9.7339767963e-03
4.4538229704e-03 5.1442598924e-03 9.9000101909e-03
4.7712153755e-03 5.5280653760e-03 9.9000055343e-03
3.7370375358e-03 2.3569348268e-03 9.2943105847e-03
4.6518631279e-03 5.1728067920e-03 9.9000046030e-03
5.1470668986e-03 5.4098633118e-03 9.4026746228e-03
3.7132713478e-03 5.5759651586e-03 9.4541637227e-03
5.1062786952e-03 5.7464614511e-03 9.9000036716e-03
5.0596380606e-03 4.3841442093e-03 9.5624038950e-03
4.7263354063e-03 5.4163704626e-03 9.7402948886e-03
4.9508102238e-03 5.4400707595e-03 9.9000046030e-03
5.2032666281e-03 4.3795574456e-03 9.9000064656e-03
4.7610304318e-03 5.6470222771e-03 9.7169661894e-03
5.0545618869e-03 4.5158513822e-03 9.7306696698e-03
5.5511645041e-03 4.8115658574e-03 9.6122128889e-03
5.2419751883e-03 4.9734194763e-03 9.9000027403e-03
2.1455220412e-03 2.1425611340e-03 8.7806321681e-03
4.3182130903e-03 4.9972590059e-03 9.9000018090e-03
4.5966175385e-03 4.7045326792e-03 9.6376826987e-03
4.9530966207e-03 5.1188860089e-03 9.3655716628e-03
4.8637059517e-03 4.7323238105e-03 9.9000036716e-03
4.4058486819e-03 5.1924148574e-03 9.7119202837e-03
5.1974728703e-03 5.0433021970e-03 9.6379779279e-03
4.8231105320e-03 5.3987419233e-03 9.5661608502e-03
5.5702100508e-03 4.6696602367e-03 9.7518535331e-03
4.6760644764e-03 5.0081773661e-03 9.5965918154e-03
5.3051244467e-03 5.5704112165e-03 9.6141239628e-03
5.6447959505e-03 5.3909262642e-03 7.0581422187e-03
4.1944524273e-03 5.0813150592e-03 9.7627751529e-03
5.9011918493e-03 4.8097027466e-03 9.7719235346e-03
4.7200494446e-03 4.5619145967e-03 9.5711732283e-03
5.3769098595e-03 5.8360821567e-03 9.9000018090e-03
6.1301216483e-03 5.3502428345e-03 9.7606750205e-03
6.2162140384e-03 4.3024076149e-03 9.4349160790e-03
4.4740764424e-03 4.4343625195e-03 9.9000018090e-03
4.8835477792e-03 2.0886256825e-03 8.1479009241e-03
5.0390781835e-03 4.6361852437e-03 9.9000018090e-03
4.7692987137e-03 4.8036575317e-03 9.6573745832e-03
5.3769825026e-03 5.3065917455e-03 9.5409797505e-03
5.7277842425e-03 4.8957099207e-03 9.7052445635e-03
4.2775035836e-03 4.8014479689e-03 9.9000018090e-03
5.4902057163e-03 4.2864279822e-03 9.9000008777e-03
5.1478948444e-03 5.1820520312e-03 9.7732078284e-03
5.1901675761e-03 4.1799899191e-03 9.9000018090e-03
4.7360565513e-03 4.6415603720e-03 9.7696995363e-03
4.9916901626e-03 4.7578113154e-03 9.7484476864e-03
5.0881360658e-03 4.3173655868e-03 9.7487568855e-03
5.6734667160e-03 4.9351803027e-03 9.5134153962e-03
5.1422789693e-03 4.8738038167e-03 9.5473024994e-03
4.4511854649e-03 5.2994629368e-03 9.5491809770e-03
4.9049602821e-03 4.9280170351e-03 9.9000046030e-03
5.1185674965e-03 5.6063313968e-03 9.7107859328e-03
5.3389822133e-03 5.1120310090e-03 9.5144882798e-03
4.9456343986e-03 4.8576109111e-03 9.5799621195e-03
4.8377523199e-03 4.7138002701e-03 9.4923311844e-03
5.5305622518e-03 5.0694025122e-03 9.5529397950e-03
5.3687342443e-03 5.0676497631e-03 9.7383484244e-03
5.0469841808e-03 4.7347508371e-03 9.3763880432e-03
5.4623619653e-03 4.4647334144e-03 9.6705043688e-03
5.7561020367e-03 4.8601329327e-03 9.9000046030e-03
5.0175953656e-03 5.4575386457e-03 9.5676938072e-03
4.4992691837e-03 4.9037616700e-03 9.5670474693e-03
8.1204809248e-03 6.3583459705e-03 9.5431394875e-03
4.9094306305e-03 5.6445170194e-03 9.5580061898e-03
5.1142931916e-03 5.6233634241e-03 9.5115602016e-03
5.0091128796e-03 4.9291355535e-03 9.4043090940e-03
4.7763269395e-03 5.2863974124e-03 9.4074504450e-03
5.2199820057e-03 4.8679616302e-03 9.7314976156e-03
4.7586690634e-03 4.3656951748e-03 9.5735238865e-03
5.0382576883e-03 4.9514626153e-03 9.7303297371e-03
4.9665253609e-03 5.7352683507e-03 9.7268344834e-03
4.8331562430e-03 4.8128780909e-03 8.5245398805e-03
5.4468642920e-03 5.4435431957e-03 9.6909962595e-03
5.4010003805e-03 5.3378520533e-03 9.9000073969e-03
4.8538576812e-03 5.1213721745e-03 9.9000101909e-03
4.4021159410e-03 4.6755466610e-03 9.7317658365e-03
5.6597054936e-03 5.3112492897e-03 9.6270674840e-03
4.3362639844e-03 5.0213555805e-03 9.6351290122e-03
4.8958305269e-03 4.6102311462e-03 9.6534276381e-03
4.5029106550e-03 5.1036430523e-03 9.5612620935e-03
4.5541385189e-03 5.7277763262e-03 9.9000018090e-03
5.3020534106e-03 5.7622976601e-03 9.5578264445e-03
3.8842381909e-03 4.9335360527e-03 8.0188047141e-03
5.2743465640e-03 4.7749704681e-03 9.9000055343e-03
5.1862783730e-03 4.5387377031e-03 9.5703005791e-03
5.3321835585e-03 5.9408596717e-03 9.7356233746e-03
3.1161417719e-03 5.7817362249e-03 8.1569328904e-03
4.8285410739e-03 4.9828640185e-03 9.7235124558e-03
4.5871930197e-03 5.2727335133e-03 9.7376732156e-03
4.6716383658e-03 4.8410110176e-03 9.4868876040e-03
5.2066859789e-03 5.3975819610e-03 9.5931831747e-03
5.5453381501e-03 4.9743349664e-03 9.7282752395e-03
5.1833558828e-03 5.0254170783e-03 9.4235064462e-03
4.8452573828e-03 5.0053545274e-03 9.4899907708e-03
5.2171940915e-03 4.6261129901e-03 9.3930745497e-03
5.1905601285e-03 5.3307125345e-03 9.9000083283e-03
4.5344610699e-03 4.5270710252e-03 9.7108101472e-03
5.0564929843e-03 5.2677411586e-03 9.6173156053e-03
4.4658174738e-03 5.4314667359e-03 9.7292847931e-03
5.4419599473e-03 4.9754329957e-03 9.9000055343e-03
5.2395188250e-03 4.8244101927e-03 9.3796616420e-03
5.3913430311e-03 4.4602807611e-03 9.9000027403e-03
4.8981537111e-03 5.5055394769e-03 9.4146290794e-03
5.8863805607e-03 5.2663916722e-03 9.9000008777e-03
-3.5030045547e-03 1.3717431575e-02 9.2192497104e-03
5.4363934323e-03 4.6577570029e-03 9.9000073969e-03
4.6665300615e-03 5.2186469547e-03 9.5602693036e-03
5.2904081531e-03 6.8905726075e-03 9.7529562190e-03
4.5911893249e-03 4.5964843594e-03 9.9000046030e-03
5.0074877217e-03 4.4204131700e-03 9.9000046030e-03
4.8213833943e-03 4.7388100065e-03 9.2939315364e-03
4.9806092866e-03 5.3040874191e-03 9.4358772039e-03
5.4130493663e-03 4.8293094151e-03 9.7665498033e-03
4.6015884727e-03 4.8780771904e-03 9.7369598225e-03
5.6661553681e-03 5.1334043965e-03 9.7183305770e-03
4.8668123782e-03 5.2035758272e-03 9.5660556108e-03
5.4996879771e-03 5.5118044838e-03 9.9000027403e-03
5.5820080452e-03 4.5206593350e-03 9.8999720067e-03
5.4884562269e-03 5.2172080614e-03 9.6809221432e-03
5.4474370554e-03 4.7252392396e-03 9.4646085054e-03
5.6367805228e-03 5.0206347369e-03 9.9000073969e-03
4.9918442965e-03 5.4095205851e-03 9.2662991956e-03
4.8306039535e-03 5.2050258964e-03 9.2330034822e-03
4.9679330550e-03 4.5413132757e-03 9.4794090837e-03
4.6518077143e-03 4.5254095457e-03 8.0757625401e-03
5.2856965922e-03 5.6580970995e-03 9.9000055343e-03
5.3162514232e-03 5.3083822131e-03 9.3504339457e-03
5.2291629836e-03 5.7696383446e-03 9.7439233214e-03
4.7541363165e-03 5.7273320854e-03 9.9000027403e-03
5.5774743669e-03 5.3452043794e-03 9.8061887547e-03
4.9288915470e-03 5.5388025939e-03 9.7274649888e-03
5.0218533725e-03 5.0783990882e-03 9.5489621162e-03
6.3959839754e-03 6.2480964698e-03 9.8393103108e-03
5.7452302426e-03 5.7730479166e-03 9.8289279267e-03
4.2645302601e-03 5.2088159136e-03 9.9000036716e-03
5.5613024160e-03 4.8148334026e-03 9.9000036716e-03
4.8273093998e-03 4.3335827067e-03 9.9000018090e-03
5.1783653907e-03 5.2208187990e-03 9.4658443704e-03
5.6829466484e-03 5.5967858061e-03 9.9000027403e-03
5.2738804370e-03 4.4715162367e-03 9.7370510921e-03
4.8700752668e-03 4.4265086763e-03 9.7281392664e-03
4.7117765062e-03 4.9806213938e-03 9.9000018090e-03
4.6008303761e-03 5.5606919341e-03 9.8004946485e-03
5.3765089251e-03 4.6410132200e-03 9.7099225968e-03
5.3570871241e-03 4.9257790670e-03 9.5978612080e-03
5.1230499521e-03 5.5417162366e-03 9.9000055343e-03
5.5592632852e-03 5.7539502159e-03 9.9000018090e-03
4.9692145549e-03 5.2046566270e-03 4.3784412555e-03
7.2244182229e-03 4.9865841866e-03 9.2862052843e-03
4.9584056251e-03 5.1348218694e-03 9.7300494090e-03
4.9943197519e-03 4.2208498344e-03 9.9000018090e-03
4.6150260605e-03 5.4113958031e-03 9.5742102712e-03
</DataArray>
</Points>
<Cells>
<DataArray type="Int32" Name="connectivity" format="ascii">
0
1
2
3
4
5
6
7
8
9
10
11
12
13
14
15
16
17
18
19
20
21
22
23
24
25
26
27
28
29
30
31
32
33
34
35
36
37
38
39
40
41
42
43
44
45
46
47
48
49
50
51
52
53
54
55
56
57
58
59
60
61
62
63
64
65
66
67
68
69
70
71
72
73
74
75
76
77
78
79
80
81
82
83
84
85
86
87
88
89
90
91
92
93
94
95
96
97
98
99
100
101
102
103
104
105
106
107
108
109
110
111
112
113
114
115
116
117
118
119
120
121
122
123
124
125
126
127
128
129
130
131
132
133
134
135
136
137
138
139
140
141
142
143
144
145
146
147
148
149
150
151
152
153
154
155
156
157
158
159
160
161
162
163
164
165
166
167
168
169
170
171
172
173
174
175
176
177
178
179
180
181
182
183
184
185
186
187
188
189
190
191
192
193
194
195
196
197
198
199
</DataArray>
<DataArray type="Int32" Name="offsets" format="ascii">
1
2
3
4
5
6
7
8
9
10
11
12
13
14
15
16
17
18
19
20
21
22
23
24
25
26
27
28
29
30
31
32
33
34
35
36
37
38
39
40
41
42
43
44
45
46
47
48
49
50
51
52
53
54
55
56
57
58
59
60
61
62
63
64
65
66
67
68
69
70
71
72
73
74
75
76
77
78
79
80
81
82
83
84
85
86
87
88
89
90
91
92
93
94
95
96
97
98
99
100
101
102
103
104
105
106
107
108
109
110
111
112
113
114
115
116
117
118
119
120
121
122
123
124
125
126
127
128
129
130
131
132
133
134
135
136
137
138
139
140
141
142
143
144
145
146
147
148
149
150
151
152
153
154
155
156
157
158
159
160
161
162
163
164
165
166
167
168
169
170
171
172
173
174
175
176
177
178
179
180
181
182
183
184
185
186
187
188
189
190
191
192
193
194
195
196
197
198
199
200
</DataArray>
<DataArray type="UInt8" Name="types" format="ascii">
1
1
1
1
1
1
1
1
1
1
1
1
1
1
1
1
1
1
1
1
1
1
1
1
1
1
1
1
1
1
1
1
1
1
1
1
1
1
1
1
1
1
1
1
1
1
1
1
1
1
1
1
1
1
1
1
1
1
1
1
1
1
1
1
1
1
1
1
1
1
1
1
1
1
1
1
1
1
1
1
1
1
1
1
1
1
1
1
1
1
1
1
1
1
1
1
1
1
1
1
1
1
1
1
1
1
1
1
1
1
1
1
1
1
1
1
1
1
1
1
1
1
1
1
1
1
1
1
1
1
1
1
1
1
1
1
1
1
1
1
1
1
1
1
1
1
1
1
1
1
1
1
1
1
1
1
1
1
1
1
1
1
1
1
1
1
1
1
1
1
1
1
1
1
1
1
1
1
1
1
1
1
1
1
1
1
1
1
1
1
1
1
1
1
1
1
1
1
1
1
</DataArray>
</Cells>
<PointData Scalars="kinetic_energy" Vectors="velocity">
<DataArray type="Float64" Name="velocity" NumberOfComponents="3" format="ascii">
7.1492954157e-03 9.5711071044e-03 5.8010082284e-06
7.1968627162e-03 9.5393620431e-03 -3.7961079215e-05
7.1951933205e-03 9.5900837332e-03 -3.9332499000e-06
9.5995858312e-02 -1.4066240191e-01 3.0320474878e-02
7.1418709122e-03 9.5851449296e-03 4.5080847485e-05
7.1372967213e-03 9.6605680883e-03 -2.2294188966e-06
1.0900572874e-02 -1.4677242935e-01 -6.9401808083e-02
7.2119631805e-03 9.5521658659e-03 -3.8938436774e-05
7.1740071289e-03 9.5221595839e-03 -1.3704208868e-05
7.1111959405e-03 9.6112322062e-03 -8.7632535724e-05
7.2154467925e-03 9.6099348739e-03 2.1568579541e-05
7.1564591490e-03 9.4991987571e-03 -1.9103701561e-05
7.1783848107e-03 9.5836957917e-03 -8.9870067313e-05
7.1824234910e-03 9.5480578020e-03 2.3979042453e-05
7.1370666847e-03 9.5694027841e-03 7.0795184001e-05
7.1977465414e-03 9.5406770706e-03 -1.8806056687e-05
7.1327034384e-03 9.5314942300e-03 1.6823931219e-05
7.1439580061e-03 9.6261873841e-03 -3.4867050999e-05
7.2034248151e-03 9.5920413733e-03 4.0164588427e-05
7.1952859871e-03 9.5487106591e-03 -3.1283572753e-05
-5.7256858796e-02 1.4998652041e-01 -1.6216452420e-01
7.1290382184e-03 9.5947589725e-03 4.2080358980e-05
7.1919625625e-03 9.5590371639e-03 4.0528633690e-05
2.6160481502e-04 -6.7082518945e-04 -1.0324772447e-01
-8.3304867148e-02 2.2464078665e-01 -9.0632677078e-02
7.1863513440e-03 9.5855360851e-03 1.2720985978e-05
7.0935264230e-03 9.6757393330e-03 5.2805691666e-05
7.1567362174e-03 9.5568858087e-03 2.6831203286e-05
7.1358093992e-03 9.5415273681e-03 5.0092487072e-05
7.1409177035e-03 9.5479069278e-03 1.2089270058e-05
7.1730264463e-03 9.5299398527e-03 2.0987319658e-05
7.1849282831e-03 9.5860119909e-03 9.0518362413e-05
7.1702967398e-03 9.5316693187e-03 1.0485918028e-04
7.1245911531e-03 9.6432585269e-03 5.3811549151e-05
7.1304836310e-03 9.5540843904e-03 -2.9731236282e-05
7.1913753636e-03 9.5826024190e-03 -6.1477396230e-05
7.1678319946e-03 9.5884855837e-03 -2.8975529858e-05
7.1482378989e-03 9.5765860751e-03 2.3569762561e-05
7.1809790097e-03 9.5714004710e-03 -1.9952112780e-05
7.1546952240e-03 9.5865270123e-03 -6.7948712967e-05
7.1396827698e-03 9.5384223387e-03 1.8865972379e-05
7.1845222265e-03 9.6184862778e-03 4.9580362429e-06
7.1295280941e-03 9.6597559750e-03 -7.6161944889e-05
7.2075990029e-03 9.5776384696e-03 1.9844894268e-05
7.2111217305e-03 9.5419082791e-03 -8.4565281213e-06
7.1713160723e-03 9.5971450210e-03 -2.1543248295e-05
7.1202865802e-03 9.6144285053e-03 1.3603083062e-05
6.7483015358e-02 1.0186127573e-01 -4.5003749430e-02
7.1721305139e-03 9.5651671290e-03 -3.1468978705e-05
7.1387565695e-03 9.7320340574e-03 1.1237384024e-04
7.1858279407e-03 9.5414547250e-03 6.1181315687e-05
2.0697947592e-02 6.9622568786e-02 1.1996153742e-01
7.1650100872e-03 9.6213128418e-03 5.4541878853e-06
7.1895252913e-03 9.5751499757e-03 1.2496629097e-05
-2.6179434732e-02 -3.5247109830e-02 -9.1979838908e-02
7.1430937387e-03 9.5556471497e-03 -2.6766281735e-05
7.0506357588e-03 9.6460655332e-03 8.9365938038e-05
7.1700573899e-03 9.6485195681e-03 -6.5099782660e-05
7.1734283119e-03 9.5633966848e-03 -8.1791273260e-05
7.1753878146e-03 9.5978332683e-03 -2.8500000553e-05
7.1134520695e-03 9.4425827265e-03 9.7164054750e-05
7.1301232092e-03 9.5482431352e-03 2.6896454074e-05
7.1754236706e-03 9.5571298152e-03 3.9299186028e-05
7.1552838199e-03 9.5629990101e-03 -5.4318839830e-05
-7.5974012725e-03 -6.2503874302e-02 1.6223402694e-02
7.1762418374e-03 9.5913028345e-03 -4.9322720770e-06
7.1180402301e-03 9.3081379309e-03 -1.8235616153e-04
7.1721491404e-03 9.5906862989e-03 -9.4112088846e-05
7.1110390127e-03 9.5960758626e-03 -1.3249016774e-05
7.1784667671e-03 9.5276879147e-03 -3.1905758078e-05
7.2194491513e-03 9.5403390005e-03 -7.7997436165e-05
7.1990578435e-03 9.5809139311e-03 4.3876389100e-06
7.1838935837e-03 9.5939766616e-03 -4.5241642511e-05
7.1153929457e-03 9.5939626917e-03 1.8484424800e-06
7.2100018151e-03 9.6170958132e-03 1.6876767404e-05
-1.4521728456e-01 -9.2702947557e-02 -1.0832381248e-01
7.2051957250e-03 9.5439618453e-03 7.1172371463e-06
7.1615469642e-03 9.5721324906e-03 3.4546086681e-05
7.0838257670e-03 9.4340769574e-03 -1.1065552098e-04
7.1789869107e-03 9.5603261143e-03 -3.6637760786e-05
-7.2888112627e-03 1.5815712512e-02 4.6209100634e-02
1.6062922776e-02 1.9666834851e-04 4.1927564889e-02
7.2156451643e-03 9.6045546234e-03 -6.4004008891e-05
-3.1777106225e-02 1.1522264034e-01 1.5316341817e-01
7.2174547240e-03 9.5647266135e-03 5.9438691096e-05
7.1216421202e-03 9.6124624833e-03 2.3431894078e-06
7.1835643612e-03 9.6176015213e-03 -4.4883017836e-05
7.1868821979e-03 9.5663676038e-03 -3.0767718272e-05
7.1612512693e-03 9.6056433395e-03 -4.1741541281e-06
7.1394615807e-03 9.5954341814e-03 3.0353929105e-05
7.1166385897e-03 9.6405530348e-03 -4.2289735575e-05
7.1133053862e-03 9.5373429358e-03 -5.8658519265e-05
7.1569187567e-03 9.5751062036e-03 -5.0253889640e-05
7.2455676273e-03 9.4684539363e-03 7.2974842624e-05
7.1905390359e-03 9.6082575619e-03 2.7748166758e-05
7.2049219161e-03 9.5459092408e-03 8.3905681095e-05
7.1922512725e-03 9.5955207944e-03 2.7701315048e-05
7.2017214261e-03 9.5443623140e-03 -3.2919280784e-05
7.1313069202e-03 9.5778517425e-03 8.5365347331e-05
7.2008296847e-03 9.5579260960e-03 -3.5998898966e-05
7.2083584964e-03 9.6245612949e-03 4.4465527026e-05
7.1407645009e-03 9.5535898581e-03 9.9737844721e-06
7.1797287092e-03 9.5578525215e-03 5.6425160437e-05
7.2070481256e-03 9.5827626064e-03 1.9910945412e-05
7.1823322214e-03 9.6472222358e-03 -7.8517514339e-05
7.1759405546e-03 9.5597375184e-03 5.8316600189e-05
7.5695738196e-03 9.5171956345e-03 1.1962316930e-03
7.2014797479e-03 9.5561156049e-03 2.5388631911e-05
7.1945898235e-03 9.5693059266e-03 3.7543679355e-05
7.2445692495e-03 9.5514608547e-03 5.0064842071e-05
-1.0228725523e-01 -3.7960596383e-02 -1.6703005135e-01
7.2025433183e-03 9.5709515736e-03 3.7962974602e-05
7.1989996359e-03 9.5520485193e-03 1.2953682017e-05
7.1608084254e-03 9.6053956077e-03 6.6487700678e-05
7.2001386434e-03 9.5663852990e-03 -2.5292631108e-05
7.1305111051e-03 9.5797860995e-03 1.1046698637e-04
7.2767091915e-03 9.6119893715e-03 3.3929018537e-04
7.1426527575e-03 9.6072666347e-03 -6.0219550505e-05
7.1644778363e-03 9.5427716151e-03 -1.8720884327e-05
-1.8959176540e-01 -2.6559270918e-02 -3.2593466341e-02
7.1619004011e-03 9.5466189086e-03 -9.6515504993e-06
7.1521643549e-03 9.5788920298e-03 -2.6979587346e-05
7.1462388150e-03 9.5322160050e-03 -3.4156160837e-05
7.1910624392e-03 9.5839314163e-03 -8.8677479653e-05
7.1509345435e-03 9.6079818904e-03 -6.4096957431e-06
7.2079864331e-03 9.5611475408e-03 -1.4388032469e-05
7.0822592825e-03 9.3966536224e-03 -9.7323165392e-05
7.1778595448e-03 9.5369582996e-03 -1.2735808014e-05
7.1788779460e-03 9.5535907894e-03 -1.1990181520e-05
7.1834670380e-03 9.5495181158e-03 -3.1648702134e-05
1.2360875309e-01 1.2213279307e-01 2.8956532478e-02
7.1824872866e-03 9.5781348646e-03 -5.4726227972e-05
7.1882740594e-03 9.5903519541e-03 3.7447738578e-05
7.1775536053e-03 9.5689259470e-03 -2.7175407013e-05
-1.1230580509e-01 5.6463561952e-02 1.0030412115e-02
7.1624559350e-03 9.5978248864e-03 -3.9082333387e-05
7.1628489532e-03 9.6566705033e-03 -2.4185395887e-05
7.0837596431e-03 9.5930835232e-03 -5.0710979849e-05
7.1781850420e-03 9.5714535564e-03 1.8854858354e-05
7.2065405548e-03 9.5422081649e-03 -1.0088435374e-05
7.2089778259e-03 9.6185905859e-03 6.6364504164e-05
7.1177305654e-03 9.5903966576e-03 -4.9477071116e-06
7.1782697923e-03 9.6088955179e-03 1.4300241673e-05
7.2264834307e-03 9.5376092941e-03 -8.8845190476e-05
7.1973688900e-03 9.6528287977e-03 1.5068185348e-05
7.1724513546e-03 9.5684407279e-03 1.4960431145e-05
7.1645253338e-03 9.5589589328e-03 -4.5313121518e-05
7.2079203092e-03 9.5392400399e-03 3.3049280319e-05
7.2010005824e-03 9.5793046057e-03 8.2316350017e-05
7.1500618942e-03 9.5726288855e-03 2.6297013392e-05
7.1855667047e-03 9.5563717186e-03 1.9394452465e-05
7.1746339090e-03 9.5509672537e-03 4.7868470574e-05
1.6380073503e-02 -1.4015045017e-02 -5.1421076059e-02
7.1525000967e-03 9.6020689234e-03 -5.7033532357e-05
7.2163818404e-03 9.5667280257e-03 -4.5083419536e-05
2.5159046054e-02 -4.4634930789e-02 9.2706903815e-02
7.1870675310e-03 9.6368417144e-03 -2.5786081096e-05
7.1957348846e-03 9.5931310207e-03 -5.7413348259e-05
8.7621975690e-03 9.6399961039e-03 2.7060837019e-03
7.1767764166e-03 9.5960460603e-03 2.4263790692e-05
7.1806814522e-03 9.6029993147e-03 -1.9826533389e-05
7.2216144763e-03 9.5221046358e-03 -4.7747191275e-05
7.1877888404e-03 9.5562692732e-03 9.3344478955e-06
7.1583813988e-03 9.5656346530e-03 2.2340740543e-05
7.2024115361e-03 9.5748528838e-03 -1.3281242900e-05
7.1590305306e-03 9.5458356664e-03 3.8331989344e-05
7.1991160512e-03 9.5926318318e-03 7.8604316514e-06
7.1930056438e-03 9.5618451014e-03 3.5150904296e-05
7.2104749270e-03 9.6193877980e-03 -5.5156015151e-05
7.1887271479e-03 9.5682069659e-03 2.9282640753e-05
7.2076465003e-03 9.5602348447e-03 -5.6041812059e-05
6.8351142108e-03 9.6570551395e-03 3.0246231472e-04
1.2841199338e-01 6.6545918584e-02 -1.0026323050e-01
7.2107017040e-03 9.5522077754e-03 -3.8913589378e-05
7.2139147669e-03 9.6004158258e-03 6.6352309659e-05
7.1775750257e-03 9.5732919872e-03 -1.1384114259e-05
7.1884575300e-03 9.5554422587e-03 -2.2560176149e-05
7.1705933660e-03 9.5639899373e-03 2.1060815925e-05
7.1757826954e-03 9.5887603238e-03 1.2032327504e-05
7.1900519542e-03 9.6072582528e-03 3.9347680286e-05
2.2371988744e-02 2.4098878726e-02 5.3689226508e-02
7.1485452354e-03 9.6243806183e-03 -3.5339820897e-05
7.2092828341e-03 9.5565207303e-03 3.3798760342e-06
7.1653677151e-03 9.5576588064e-03 2.9197799449e-05
7.1125240065e-03 9.5003843307e-03 -4.0269981127e-07
7.2143254802e-03 9.5974272117e-03 5.6927055994e-05
7.1652354673e-03 9.5249610022e-03 -1.5907475245e-05
7.1147014387e-03 9.6370847896e-03 -7.5928081060e-05
7.1823908947e-03 9.4253169373e-03 4.0942722990e-07
7.1175610647e-03 9.5562422648e-03 -7.4948620750e-06
7.1900910698e-03 9.5655042678e-03 -5.6457523897e-05
7.1940990165e-03 9.5236739144e-03 -3.0504128517e-05
7.1693612263e-03 9.5772370696e-03 7.5640532486e-06
7.1904323995e-03 9.5741869882e-03 -6.6285021603e-05
7.1597211063e-03 9.5697995275e-03 -2.3140888516e-05
7.7714145184e-02 7.5378671288e-02 -6.4537614584e-02
-5.8641016483e-02 1.5949804336e-02 1.0337086022e-01
7.2235283442e-03 9.5981787890e-03 7.4026684160e-05
7.2054234333e-03 9.6194222569e-03 -4.5223008783e-05
7.1865241043e-03 9.5294006169e-03 -1.2459518985e-05
</DataArray>
<DataArray type="Float64" Name="magnetic_force" NumberOfComponents="3" format="ascii">
5.7677461029e-08 3.7687289733e-08 1.0509206305e-07
-1.2332150412e-08 -1.1442183201e-08 1.2453254783e-07
7.7932419629e-08 1.6351913601e-08 9.7213757044e-08
-3.6990730479e-08 4.4738296623e-08 1.1145193923e-07
6.0292315140e-08 -5.9801159580e-08 9.2628411608e-08
3.6810575921e-08 -2.5947313631e-08 1.1731615501e-07
3.1553369695e-08 3.0415596708e-09 1.2159974005e-07
-8.9985462637e-08 -4.9162498073e-08 7.2643153715e-08
7.2416511898e-08 -6.9128404334e-08 7.5950481460e-08
4.2130885447e-08 -3.0943880791e-09 1.1835022917e-07
-9.8180372277e-08 -8.2013400515e-09 7.8004596560e-08
-5.6876100274e-08 -4.5172541263e-08 1.0254712635e-07
-1.2942166450e-08 -1.6915484125e-08 1.2384558090e-07
2.9497860154e-08 -6.1547737573e-08 1.0551357121e-07
2.4846967150e-08 7.6055721721e-09 1.2294773910e-07
8.8683101751e-08 -5.3847863057e-08 7.0901890581e-08
-3.7777457607e-08 6.8764251182e-08 9.8161621054e-08
-1.7576880396e-08 3.0875053625e-08 1.2053691023e-07
-9.0243261752e-08 4.2095386732e-08 7.6651765823e-08
-2.6334962655e-08 4.8158355526e-08 1.1304250336e-07
-1.2654576942e-08 1.0338607304e-08 1.2459669563e-07
-7.4100341863e-08 3.4217155331e-08 9.5549395951e-08
-9.2603009705e-08 -2.8332481250e-08 8.0083175646e-08
-3.9431569988e-12 1.0215680732e-11 9.8501794828e-13
-4.1203151113e-08 1.1108188858e-07 4.1886465851e-08
2.5502910006e-08 7.5537599287e-08 9.7134112309e-08
7.8991661212e-08 7.5724413406e-09 9.7438892510e-08
-3.3558098522e-08 3.4366838264e-08 1.1612121398e-07
-5.4807816952e-08 -2.9864754225e-08 1.0906676806e-07
9.7055137260e-09 -1.0190308330e-07 7.2889839942e-08
-4.4089002671e-08 -4.1612750579e-08 1.1007225709e-07
-4.2746759021e-08 -1.3549538380e-08 1.1739032146e-07
-1.5877678061e-09 -4.8074173975e-08 1.1609355965e-07
8.1271586794e-08 -4.7297024963e-08 8.3362358794e-08
-2.2218724638e-08 -1.0379551441e-07 6.7262043046e-08
7.9388023266e-08 3.6502154188e-08 9.0313335477e-08
-5.3257167565e-09 -9.7874774951e-08 7.8635416401e-08
8.9780973767e-09 -9.1412701408e-08 8.5758230739e-08
-7.6202555377e-09 3.9346897296e-08 1.1910128705e-07
-4.1148581431e-08 -6.7778728408e-08 9.7489483153e-08
-7.7233544005e-08 -2.5545299209e-08 9.5779853382e-08
3.6453169372e-08 -5.5547182853e-08 1.0666320804e-07
6.2773303000e-08 -1.0715058174e-08 1.0833311137e-07
4.1944797857e-08 7.4324830734e-08 9.2237826266e-08
8.1457073975e-08 -3.9691244069e-08 8.7067284937e-08
-5.0358771375e-08 -7.4908115266e-08 8.7430727547e-08
-1.2470968258e-08 -6.0433634985e-08 1.0946969553e-07
-4.3223298718e-08 -5.4549268214e-08 1.0463023870e-07
1.4174462493e-08 -4.9096311017e-08 1.1480418038e-07
8.3290196073e-08 -2.1990349097e-08 9.1490591103e-08
3.4587312570e-08 -7.9812480180e-08 9.0692054755e-08
5.0096797821e-08 1.0484532709e-07 4.7844871176e-08
6.1202150903e-08 -3.0367750981e-08 1.0546780516e-07
-1.5650787333e-08 -4.3622961243e-08 1.1680519663e-07
9.2123691786e-08 -4.1253191085e-08 7.4851605802e-08
-1.3856022107e-08 -9.7345974837e-08 7.8250465663e-08
-6.6673111476e-09 6.8896518712e-08 1.0488174951e-07
3.7857869728e-08 -5.7585129554e-08 1.0508138359e-07
8.2956042036e-09 -7.4153724938e-08 1.0111266135e-07
-2.8800796414e-08 8.7932590986e-08 8.5027863861e-08
2.8782848105e-08 -7.7913874463e-08 9.4299196007e-08
-7.5242256870e-09 6.6815722732e-08 1.0616218304e-07
-6.5225478352e-08 2.2306634762e-08 1.0506860804e-07
-4.6955335620e-08 5.1680051349e-09 1.1644677755e-07
8.1718056322e-08 8.1794958362e-08 4.9225072019e-08
9.4337387679e-08 3.8586631113e-10 8.3016082897e-08
5.0856346689e-08 3.7253567342e-08 1.0870680001e-07
5.1669082346e-09 -1.3081323580e-08 1.2487411993e-07
2.5531052827e-08 5.0137977325e-08 1.1236419084e-07
7.4255538607e-08 -2.4040156532e-08 9.8486282241e-08
-2.8021917231e-08 -6.1390967865e-09 1.2234561098e-07
2.1571130659e-08 -4.8609702930e-08 1.1385581900e-07
-7.1866935514e-08 4.1643311022e-08 9.4299210218e-08
4.2417585888e-08 -1.0643996795e-09 1.1828345947e-07
-3.4952037709e-08 -6.5342838695e-08 1.0148906426e-07
-2.3024517404e-08 -1.3960109513e-08 1.2274504968e-07
9.2448132705e-08 -9.3262171319e-09 8.4603342998e-08
-9.6454130016e-08 2.0373352783e-08 7.7928746123e-08
3.3053513704e-08 5.1723375805e-08 1.0965180763e-07
-4.3215273138e-08 -9.5866099059e-08 6.8800375175e-08
-1.0178568743e-07 -3.1536881551e-08 6.6606780535e-08
-8.6791580145e-08 4.9784986800e-08 7.6026566376e-08
6.7575584239e-08 7.2679604557e-08 7.7088124328e-08
3.9016829767e-09 9.7696982948e-08 7.8939457637e-08
-6.9810268677e-09 6.5060859811e-08 1.0728332001e-07
3.2380693682e-08 2.7560673743e-08 1.1825084556e-07
-4.4060829651e-08 -3.5831529743e-08 1.1209865391e-07
-8.4469775175e-08 1.2110504599e-08 9.2247255168e-08
9.4584748922e-08 2.5998177833e-08 7.8544132975e-08
-5.8477549914e-08 8.5135248185e-08 7.1580210204e-08
-2.4330166326e-08 -2.9948559188e-08 1.1959301105e-07
-2.3112638914e-08 9.9686864985e-08 7.2936252593e-08
3.8784786938e-08 5.2670291240e-08 1.0729839772e-07
1.3281435951e-09 3.8548105152e-08 1.1959784274e-07
-1.0865516487e-08 8.4196010164e-08 9.2651688988e-08
-7.0741307923e-08 6.8140351139e-09 1.0363686442e-07
-1.8399276769e-08 1.6329767760e-08 1.2323216936e-07
6.0609174568e-08 -3.3064264215e-08 1.0499830694e-07
1.9530506989e-08 1.4796650127e-08 1.2325169507e-07
-1.4861824660e-08 -7.6017435902e-08 9.8953726990e-08
-4.0635878662e-08 -1.3425523804e-08 1.1815178169e-07
7.3304460280e-09 1.9193024059e-08 1.2397279647e-07
1.9238209248e-08 3.3933783783e-08 1.1945607525e-07
-6.1289981090e-08 -8.0123152557e-09 1.0941072759e-07
-5.4579253117e-08 -1.0007190632e-08 1.1274894973e-07
-5.1059396711e-09 2.8852728207e-08 1.2219989287e-07
-5.3294140656e-08 6.1707972066e-08 9.5620201535e-08
-9.7416432254e-08 1.8027536797e-08 7.7307241497e-08
-2.1244883630e-09 -5.5350501071e-08 1.1279703926e-07
5.9186408663e-08 1.1380208775e-08 1.1026703817e-07
-1.1092874530e-07 -4.8286150189e-08 3.3979784320e-08
9.9443733248e-09 -7.0733776170e-08 1.0338860790e-07
-1.2228600355e-08 -6.6711429270e-08 1.0578946075e-07
-1.0388387928e-09 8.1156050769e-09 1.2539705097e-07
2.4415705013e-08 -3.1252355370e-08 1.1924146293e-07
-3.4114215453e-08 2.0486902841e-08 1.1919676979e-07
2.6409599840e-08 6.9408784498e-08 1.0137216577e-07
-6.2204481566e-09 7.9070270331e-09 1.2526031412e-07
3.9449372657e-09 -8.6552304879e-08 9.1019224158e-08
1.0470373901e-08 1.1801676081e-08 1.2466938415e-07
-5.4775245673e-08 -5.4366637414e-08 9.9173099954e-08
-6.3237060033e-08 -5.3275883261e-08 9.4626201985e-08
2.9187916084e-08 -2.4225370154e-08 1.1980216641e-07
7.3221748664e-08 3.9738679902e-08 9.4078565382e-08
-7.2872829548e-08 -3.4378004443e-08 9.6431662655e-08
7.6494245604e-08 -2.4555408817e-09 9.9669264841e-08
1.3963037837e-08 5.2233819048e-08 1.1343730932e-07
5.8532314995e-08 -1.2197522103e-08 1.1052851079e-07
5.3709136694e-08 -8.7656218284e-08 7.2270857743e-08
-3.0387123928e-08 -7.6692792561e-08 9.4795574057e-08
5.1543707968e-08 3.0968489995e-09 1.1456447169e-07
-4.9451507778e-08 4.0575930171e-08 1.0816425799e-07
-2.2195703053e-08 5.4977228103e-08 1.1079809781e-07
-3.3208642947e-08 -9.4063786094e-08 7.6423511075e-08
7.6193373388e-08 -3.1615641660e-08 9.4796547501e-08
2.7094595012e-08 2.7148889803e-09 1.2267793181e-07
5.7084822203e-08 -3.7704879219e-08 1.0540885853e-07
3.8323680229e-08 1.8559482839e-08 1.1822945822e-07
-2.5674168569e-08 -4.9389530687e-08 1.1266266142e-07
-7.2490614400e-08 3.4181197872e-09 1.0259039840e-07
-2.1090349023e-08 -2.9186419948e-09 1.2384685988e-07
1.9034747112e-08 -6.5262056870e-10 1.2421197937e-07
-2.2962948876e-08 3.9540946517e-08 1.1704946701e-07
-3.3670030319e-08 -5.8436256722e-08 1.0603252321e-07
5.6737970766e-08 5.7640100692e-08 9.6175810427e-08
-7.6772552760e-09 -3.6401882397e-08 1.2003052063e-07
6.5035301589e-08 -5.2520583438e-08 9.3826223235e-08
-7.4483622825e-08 4.1486050151e-09 1.0112538007e-07
-2.5965020356e-08 1.9042829535e-08 1.2146830386e-07
-5.4824386808e-08 7.5624456031e-08 8.4063032091e-08
1.0654526150e-08 -5.2862841216e-08 1.1350490325e-07
-1.0098303704e-07 -3.0345084667e-08 6.8359078398e-08
8.7263380522e-08 -8.9463824793e-08 1.3141129074e-08
-6.7112999602e-08 5.2645258819e-08 9.2280465935e-08
4.1054171618e-08 -2.6909301454e-08 1.1567976799e-07
-1.7761115245e-08 -1.1568950953e-07 4.5736701537e-08
6.1850229827e-08 6.1051032674e-08 9.0767201755e-08
-1.1224540186e-09 8.7307462593e-08 9.0374278727e-08
1.8005311020e-08 2.6327493075e-08 1.2154849571e-07
2.2054864601e-09 -3.4517626091e-08 1.2080988654e-07
-6.0428241966e-08 2.4980829849e-08 1.0731145750e-07
5.7591499569e-08 1.7629528060e-08 1.1028954106e-07
-8.0828058913e-08 -1.6181704865e-08 9.4849049503e-08
1.7346684089e-08 -2.6500874384e-08 1.2160657548e-07
-6.7256308967e-08 -6.8885633198e-08 8.0763363997e-08
-7.5894838858e-08 6.2516861021e-08 7.8249456692e-08
-6.2753528596e-08 -2.7901306154e-08 1.0523721983e-07
-4.8429136257e-08 2.9746768604e-08 1.1207635708e-07
-9.1432561078e-08 -2.9561477710e-09 8.6155161227e-08
7.9187922886e-10 -3.9584325151e-08 1.1926364607e-07
1.6446266571e-08 -1.9896640779e-08 1.2298376362e-07
3.6036034157e-09 5.1497092812e-08 1.1457061078e-07
1.7574107503e-08 2.3926409298e-08 1.2210668388e-07
-3.8383962675e-08 -8.8421415967e-08 8.0620637277e-08
-3.2267312378e-08 -3.1463084582e-08 1.1730411842e-07
-2.6106260265e-08 -8.7685464223e-08 8.6145718114e-08
3.1713302207e-08 -9.3796820977e-08 7.7380789776e-08
-7.5085416995e-08 -4.4881346639e-08 9.0217547211e-08
9.4653271887e-09 -7.1678222469e-08 1.0278132834e-07
-2.8723490253e-09 -1.0315149623e-08 1.2520666814e-07
-8.8339476179e-08 -7.8979674356e-08 4.1829515851e-08
-7.3958503322e-08 -7.6718130515e-08 6.6602048321e-08
9.5100702424e-08 -2.6993665969e-08 7.7579386470e-08
-8.3744808421e-08 2.7635257638e-08 8.9523517488e-08
2.3767437796e-08 9.1706908734e-08 8.2560966064e-08
-2.0896854025e-08 -2.5870168230e-08 1.2118341886e-07
-7.8918809265e-08 -6.8960510191e-08 6.9337097841e-08
-3.5561310341e-08 6.8634683714e-08 9.9075904814e-08
1.6830103533e-08 7.4274183248e-08 9.9957269128e-08
5.4395265181e-08 3.6658287517e-09 1.1322136828e-07
5.1120409239e-08 -7.1793508027e-08 8.9575429740e-08
-5.0011095709e-08 4.7694481253e-08 1.0495470093e-07
-4.6110372409e-08 9.5912282561e-09 1.1650410414e-07
-1.8906211707e-08 -8.3249709348e-08 9.2213902292e-08
-6.3080427992e-08 -8.5039594921e-08 6.7679302163e-08
6.3960464702e-10 -4.1913046367e-09 1.2559213758e-07
-1.1030068237e-07 6.6909527918e-10 6.0205273655e-08
6.6833005796e-09 -2.1636383352e-08 1.2360648327e-07
7.3037825787e-10 9.9564388734e-08 7.6666566429e-08
4.4642661123e-08 -4.7696694594e-08 1.0734719780e-07
</DataArray>
<DataArray type="Float64" Name="magnetic_force_magnitude" format="ascii">
1.2566368923e-07
1.2566367502e-07
1.2566367502e-07
1.2566368923e-07
1.2566368923e-07
1.2566368923e-07
1.2566368923e-07
1.2566368923e-07
1.2566368923e-07
1.2566368923e-07
1.2566368923e-07
1.2566368923e-07
1.2566368923e-07
1.2566368923e-07
1.2566368923e-07
1.2566368923e-07
1.2566368923e-07
1.2566368923e-07
1.2566367502e-07
1.2566370344e-07
1.2566368923e-07
1.2566367502e-07
1.2566368923e-07
1.0994493510e-11
1.2566368923e-07
1.2566368923e-07
1.2566368923e-07
1.2566367502e-07
1.2566367502e-07
1.2566368923e-07
1.2566368923e-07
1.2566368923e-07
1.2566368923e-07
1.2566368923e-07
1.2566368923e-07
1.2566368923e-07
1.2566368923e-07
1.2566368923e-07
1.2566368923e-07
1.2566367502e-07
1.2566368923e-07
1.2566368923e-07
1.2566368923e-07
1.2566368923e-07
1.2566367502e-07
1.2566368923e-07
1.2566368923e-07
1.2566368923e-07
1.2566368923e-07
1.2566367502e-07
1.2566368923e-07
1.2566368923e-07
1.2566367502e-07
1.2566368923e-07
1.2566368923e-07
1.2566368923e-07
1.2566368923e-07
1.2566368923e-07
1.2566368923e-07
1.2566368923e-07
1.2566368923e-07
1.2566368923e-07
1.2566368923e-07
1.2566368923e-07
1.2566368923e-07
1.2566368923e-07
1.2566368923e-07
1.2566368923e-07
1.2566368923e-07
1.2566368923e-07
1.2566368923e-07
1.2566368923e-07
1.2566368923e-07
1.2566367502e-07
1.2566367502e-07
1.2566367502e-07
1.2566367502e-07
1.2566368923e-07
1.2566367502e-07
1.2566367502e-07
1.2566368923e-07
1.2566368923e-07
1.2566368923e-07
1.2566367502e-07
1.2566367502e-07
1.2566368923e-07
1.2566368923e-07
1.2566368923e-07
1.2566367502e-07
1.2566367502e-07
1.2566368923e-07
1.2566368923e-07
1.2566370344e-07
1.2566368923e-07
1.2566368923e-07
1.2566368923e-07
1.2566368923e-07
1.2566368923e-07
1.2566368923e-07
1.2566368923e-07
1.2566368923e-07
1.2566367502e-07
1.2566368923e-07
1.2566370344e-07
1.2566368923e-07
1.2566368923e-07
1.2566368923e-07
1.2566368923e-07
1.2566368923e-07
1.2566367502e-07
1.2566370344e-07
1.2566368923e-07
1.2566368923e-07
1.2566368923e-07
1.2566368923e-07
1.2566368923e-07
1.2566368923e-07
1.2566368923e-07
1.2566368923e-07
1.2566368923e-07
1.2566368923e-07
1.2566368923e-07
1.2566367502e-07
1.2566368923e-07
1.2566368923e-07
1.2566368923e-07
1.2566367502e-07
1.2566368923e-07
1.2566367502e-07
1.2566368923e-07
1.2566368923e-07
1.2566368923e-07
1.2566368923e-07
1.2566368923e-07
1.2566368923e-07
1.2566368923e-07
1.2566368923e-07
1.2566368923e-07
1.2566368923e-07
1.2566368923e-07
1.2566370344e-07
1.2566368923e-07
1.2566367502e-07
1.2566368923e-07
1.2566368923e-07
1.2566368923e-07
1.2566368923e-07
1.2566368923e-07
1.2566367502e-07
1.2566368923e-07
1.2566368923e-07
1.2566367502e-07
1.2566368923e-07
1.2566368923e-07
1.2566368923e-07
1.2566370344e-07
1.2566368923e-07
1.2566368923e-07
1.2566368923e-07
1.2566367502e-07
1.2566368923e-07
1.2566368923e-07
1.2566368923e-07
1.2566368923e-07
1.2566368923e-07
1.2566368923e-07
1.2566367502e-07
1.2566367502e-07
1.2566368923e-07
1.2566368923e-07
1.2566368923e-07
1.2566367502e-07
1.2566368923e-07
1.2566368923e-07
1.2566367502e-07
1.2566368923e-07
1.2566368923e-07
1.2566367502e-07
1.2566368923e-07
1.2566368923e-07
1.2566367502e-07
1.2566368923e-07
1.2566368923e-07
1.2566367502e-07
1.2566367502e-07
1.2566368923e-07
1.2566368923e-07
1.2566368923e-07
1.2566368923e-07
1.2566367502e-07
1.2566367502e-07
1.2566368923e-07
1.2566368923e-07
1.2566368923e-07
1.2566367502e-07
1.2566367502e-07
1.2566368923e-07
1.2566368923e-07
1.2566368923e-07
1.2566368923e-07
</DataArray>
<DataArray type="Float64" Name="kinetic_energy" format="ascii">
8.9672692015e-13
8.9721172115e-13
9.0314821594e-13
1.8799568846e-10
8.9776249585e-13
9.0645980305e-13
1.6636350630e-10
9.0011516036e-13
8.9307977246e-13
8.9819736935e-13
9.0737969438e-13
8.8875667893e-13
9.0091123580e-13
8.9694462795e-13
8.9545547626e-13
8.9744249358e-13
8.9048500561e-13
9.0289879523e-13
9.0413890567e-13
8.9818739469e-13
3.2717570320e-10
8.9776878423e-13
8.9913097584e-13
6.6982586144e-11
4.1228662151e-10
9.0180223315e-13
9.0440681203e-13
8.9569080234e-13
8.9197984936e-13
8.9318840952e-13
8.9392436595e-13
9.0178157910e-13
8.9395185048e-13
9.0323993944e-13
8.9299889098e-13
9.0192550694e-13
9.0049154114e-13
8.9729433736e-13
8.9961718630e-13
8.9909714873e-13
8.9194146860e-13
9.0561211958e-13
9.0570129521e-13
9.0277438303e-13
8.9879926418e-13
9.0184695649e-13
8.9934927994e-13
1.0653147808e-10
8.9807355346e-13
9.1537801644e-13
8.9647977626e-13
1.2356810020e-10
9.0419457945e-13
9.0083854005e-13
6.5269796512e-11
8.9431630504e-13
8.9702529259e-13
9.0796966300e-13
8.9801354287e-13
9.0229917721e-13
8.7821964328e-13
8.9226450664e-13
8.9740828700e-13
8.9630874337e-13
2.6563126698e-11
9.0158392904e-13
8.6293992785e-13
9.0119616413e-13
8.9630706286e-13
8.9414890422e-13
8.9940386952e-13
9.0239317754e-13
9.0260931325e-13
8.9644036552e-13
9.0775022048e-13
2.6022400901e-10
8.9850848116e-13
8.9795917013e-13
8.7458550601e-13
8.9811220527e-13
1.5321823671e-11
1.2666754798e-11
9.0677096908e-13
2.3715923669e-10
9.0213454111e-13
8.9923191506e-13
9.0543111203e-13
8.9954844788e-13
9.0196318296e-13
8.9877920644e-13
9.0219357592e-13
8.8946921660e-13
8.9790897157e-13
8.9318732532e-13
9.0492457278e-13
8.9876131711e-13
9.0354237764e-13
8.9824854369e-13
8.9596998440e-13
8.9979716386e-13
9.0851447459e-13
8.9385649490e-13
8.9789363011e-13
9.0334142076e-13
9.0893151295e-13
8.9777978888e-13
9.3811980753e-13
8.9963447933e-13
9.0060120819e-13
9.0299843341e-13
2.5008786708e-10
9.0151871428e-13
8.9891885168e-13
9.0192111592e-13
9.0074703338e-13
8.9616232187e-13
9.1392659499e-13
9.0051029784e-13
8.9469138478e-13
2.3695626017e-10
8.9491912145e-13
8.9792577670e-13
8.9179141502e-13
9.0208287888e-13
9.0131792004e-13
9.0082520436e-13
8.7000090292e-13
8.9519917087e-13
8.9728604321e-13
8.9721670848e-13
1.9499248050e-10
9.0057995783e-13
9.0256388518e-13
8.9901285201e-13
9.9911023899e-11
9.0113772564e-13
9.0828625003e-13
8.9352836111e-13
8.9937134346e-13
8.9842033552e-13
9.0786395329e-13
8.9621973037e-13
9.0389029811e-13
8.9972647388e-13
9.1093257069e-13
8.9849113392e-13
8.9664912864e-13
8.9819563462e-13
9.0241768051e-13
8.9698300870e-13
8.9822507071e-13
8.9660174901e-13
1.9533510226e-11
9.0076513956e-13
9.0226827745e-13
7.0496226912e-11
9.0806664488e-13
9.0358509520e-13
1.1123027412e-12
9.0220739950e-13
9.0339736560e-13
8.9739245765e-13
8.9841166191e-13
8.9688857469e-13
9.0196822450e-13
8.9457570041e-13
9.0381039241e-13
8.9956004885e-13
9.0808729893e-13
8.9993572490e-13
9.0070323162e-13
8.8007921263e-13
1.9459470146e-10
9.0000587278e-13
9.0611659885e-13
8.9953603377e-13
8.9837534113e-13
8.9779008880e-13
9.0123693014e-13
9.0476465296e-13
2.4905251472e-11
9.0309243373e-13
9.0038566880e-13
8.9656136248e-13
8.8495692979e-13
9.0578602561e-13
8.9262516649e-13
9.0162523714e-13
8.8230567600e-13
8.9209585899e-13
8.9974870002e-13
8.9507952916e-13
8.9926986213e-13
9.0083122168e-13
8.9751014780e-13
9.9818028843e-11
9.0344023929e-11
9.0672559521e-13
9.0762775984e-13
8.9507573445e-13
</DataArray>
<DataArray type="Float64" Name="radius" format="ascii">
9.9999997474e-05
9.9999997474e-05
9.9999997474e-05
9.9999997474e-05
9.9999997474e-05
9.9999997474e-05
9.9999997474e-05
9.9999997474e-05
9.9999997474e-05
9.9999997474e-05
9.9999997474e-05
9.9999997474e-05
9.9999997474e-05
9.9999997474e-05
9.9999997474e-05
9.9999997474e-05
9.9999997474e-05
9.9999997474e-05
9.9999997474e-05
9.9999997474e-05
9.9999997474e-05
9.9999997474e-05
9.9999997474e-05
9.9999997474e-05
9.9999997474e-05
9.9999997474e-05
9.9999997474e-05
9.9999997474e-05
9.9999997474e-05
9.9999997474e-05
9.9999997474e-05
9.9999997474e-05
9.9999997474e-05
9.9999997474e-05
9.9999997474e-05
9.9999997474e-05
9.9999997474e-05
9.9999997474e-05
9.9999997474e-05
9.9999997474e-05
9.9999997474e-05
9.9999997474e-05
9.9999997474e-05
9.9999997474e-05
9.9999997474e-05
9.9999997474e-05
9.9999997474e-05
9.9999997474e-05
9.9999997474e-05
9.9999997474e-05
9.9999997474e-05
9.9999997474e-05
9.9999997474e-05
9.9999997474e-05
9.9999997474e-05
9.9999997474e-05
9.9999997474e-05
9.9999997474e-05
9.9999997474e-05
9.9999997474e-05
9.9999997474e-05
9.9999997474e-05
9.9999997474e-05
9.9999997474e-05
9.9999997474e-05
9.9999997474e-05
9.9999997474e-05
9.9999997474e-05
9.9999997474e-05
9.9999997474e-05
9.9999997474e-05
9.9999997474e-05
9.9999997474e-05
9.9999997474e-05
9.9999997474e-05
9.9999997474e-05
9.9999997474e-05
9.9999997474e-05
9.9999997474e-05
9.9999997474e-05
9.9999997474e-05
9.9999997474e-05
9.9999997474e-05
9.9999997474e-05
9.9999997474e-05
9.9999997474e-05
9.9999997474e-05
9.9999997474e-05
9.9999997474e-05
9.9999997474e-05
9.9999997474e-05
9.9999997474e-05
9.9999997474e-05
9.9999997474e-05
9.9999997474e-05
9.9999997474e-05
9.9999997474e-05
9.9999997474e-05
9.9999997474e-05
9.9999997474e-05
9.9999997474e-05
9.9999997474e-05
9.9999997474e-05
9.9999997474e-05
9.9999997474e-05
9.9999997474e-05
9.9999997474e-05
9.9999997474e-05
9.9999997474e-05
9.9999997474e-05
9.9999997474e-05
9.9999997474e-05
9.9999997474e-05
9.9999997474e-05
9.9999997474e-05
9.9999997474e-05
9.9999997474e-05
9.9999997474e-05
9.9999997474e-05
9.9999997474e-05
9.9999997474e-05
9.9999997474e-05
9.9999997474e-05
9.9999997474e-05
9.9999997474e-05
9.9999997474e-05
9.9999997474e-05
9.9999997474e-05
9.9999997474e-05
9.9999997474e-05
9.9999997474e-05
9.9999997474e-05
9.9999997474e-05
9.9999997474e-05
9.9999997474e-05
9.9999997474e-05
9.9999997474e-05
9.9999997474e-05
9.9999997474e-05
9.9999997474e-05
9.9999997474e-05
9.9999997474e-05
9.9999997474e-05
9.9999997474e-05
9.9999997474e-05
9.9999997474e-05
9.9999997474e-05
9.9999997474e-05
9.9999997474e-05
9.9999997474e-05
9.9999997474e-05
9.9999997474e-05
9.9999997474e-05
9.9999997474e-05
9.9999997474e-05
9.9999997474e-05
9.9999997474e-05
9.9999997474e-05
9.9999997474e-05
9.9999997474e-05
9.9999997474e-05
9.9999997474e-05
9.9999997474e-05
9.9999997474e-05
9.9999997474e-05
9.9999997474e-05
9.9999997474e-05
9.9999997474e-05
9.9999997474e-05
9.9999997474e-05
9.9999997474e-05
9.9999997474e-05
9.9999997474e-05
9.9999997474e-05
9.9999997474e-05
9.9999997474e-05
9.9999997474e-05
9.9999997474e-05
9.9999997474e-05
9.9999997474e-05
9.9999997474e-05
9.9999997474e-05
9.9999997474e-05
9.9999997474e-05
9.9999997474e-05
9.9999997474e-05
9.9999997474e-05
9.9999997474e-05
9.9999997474e-05
9.9999997474e-05
9.9999997474e-05
9.9999997474e-05
9.9999997474e-05
9.9999997474e-05
9.9999997474e-05
9.9999997474e-05
9.9999997474e-05
9.9999997474e-05
9.9999997474e-05
9.9999997474e-05
</DataArray>
</PointData>
</Piece>
</UnstructuredGrid>
</VTKFile>
